<svg xmlns="http://www.w3.org/2000/svg" viewBox="0 0 820 280" width="820" height="280">

  <!-- title -->
  <text x="52" y="18" font-size="13" font-weight="600"
        fill="#24292f" font-family="-apple-system, BlinkMacSystemFont, 'Segoe UI', sans-serif"
        >Clone traffic — 500ad</text>
  <text x="800" y="18" font-size="10" fill="#8c959f"
        font-family="ui-monospace, SFMono-Regular, 'SF Mono', Menlo, monospace" text-anchor="end">2026-07-14</text>

  <!-- grid -->
  <line x1="52" y1="232.0" x2="800" y2="232.0" stroke="#e8e8e8" stroke-width="1"/><line x1="52" y1="194.7" x2="800" y2="194.7" stroke="#e8e8e8" stroke-width="1"/><line x1="52" y1="157.4" x2="800" y2="157.4" stroke="#e8e8e8" stroke-width="1"/><line x1="52" y1="120.0" x2="800" y2="120.0" stroke="#e8e8e8" stroke-width="1"/><line x1="52" y1="82.7" x2="800" y2="82.7" stroke="#e8e8e8" stroke-width="1"/><line x1="52" y1="45.4" x2="800" y2="45.4" stroke="#e8e8e8" stroke-width="1"/><line x1="52" y1="8.1" x2="800" y2="8.1" stroke="#e8e8e8" stroke-width="1"/>

  <!-- area fill -->
  <path d="M52.0,232.0 L52.0,232.0 L64.1,230.8 L76.1,229.5 L88.2,232.0 L100.3,232.0 L112.3,232.0 L124.4,232.0 L136.5,232.0 L148.5,228.3 L160.6,232.0 L172.6,229.5 L184.7,74.0 L196.8,100.1 L208.8,28.0 L220.9,217.1 L233.0,218.3 L245.0,232.0 L257.1,30.5 L269.2,193.4 L281.2,163.6 L293.3,225.8 L305.4,223.3 L317.4,225.8 L329.5,230.8 L341.5,232.0 L353.6,230.8 L365.7,105.1 L377.7,113.8 L389.8,229.5 L401.9,229.5 L413.9,225.8 L426.0,228.3 L438.1,203.4 L450.1,166.1 L462.2,225.8 L474.3,208.4 L486.3,230.8 L498.4,232.0 L510.5,122.5 L522.5,102.6 L534.6,222.0 L546.6,217.1 L558.7,230.8 L570.8,230.8 L582.8,229.5 L594.9,230.8 L607.0,229.5 L619.0,230.8 L631.1,232.0 L643.2,228.3 L655.2,229.5 L667.3,232.0 L679.4,230.8 L691.4,230.8 L703.5,227.0 L715.5,230.8 L727.6,228.3 L739.7,229.5 L751.7,230.8 L763.8,229.5 L775.9,228.3 L787.9,230.8 L800.0,229.5 L800.0,232.0 L52.0,232.0Z" fill="#4e79a7" opacity="0.12"/>

  <!-- lines -->
  <polyline points="52.0,232.0 64.1,230.8 76.1,229.5 88.2,232.0 100.3,232.0 112.3,232.0 124.4,232.0 136.5,232.0 148.5,228.3 160.6,232.0 172.6,229.5 184.7,74.0 196.8,100.1 208.8,28.0 220.9,217.1 233.0,218.3 245.0,232.0 257.1,30.5 269.2,193.4 281.2,163.6 293.3,225.8 305.4,223.3 317.4,225.8 329.5,230.8 341.5,232.0 353.6,230.8 365.7,105.1 377.7,113.8 389.8,229.5 401.9,229.5 413.9,225.8 426.0,228.3 438.1,203.4 450.1,166.1 462.2,225.8 474.3,208.4 486.3,230.8 498.4,232.0 510.5,122.5 522.5,102.6 534.6,222.0 546.6,217.1 558.7,230.8 570.8,230.8 582.8,229.5 594.9,230.8 607.0,229.5 619.0,230.8 631.1,232.0 643.2,228.3 655.2,229.5 667.3,232.0 679.4,230.8 691.4,230.8 703.5,227.0 715.5,230.8 727.6,228.3 739.7,229.5 751.7,230.8 763.8,229.5 775.9,228.3 787.9,230.8 800.0,229.5"
            fill="none" stroke="#4e79a7"
            stroke-width="2" stroke-linejoin="round"/>
  <polyline points="52.0,232.0 64.1,230.8 76.1,229.5 88.2,232.0 100.3,232.0 112.3,232.0 124.4,232.0 136.5,232.0 148.5,229.5 160.6,232.0 172.6,229.5 184.7,177.3 196.8,156.1 208.8,125.0 220.9,228.3 233.0,228.3 245.0,232.0 257.1,147.4 269.2,210.9 281.2,210.9 293.3,227.0 305.4,228.3 317.4,229.5 329.5,230.8 341.5,232.0 353.6,230.8 365.7,183.5 377.7,186.0 389.8,230.8 401.9,229.5 413.9,228.3 426.0,228.3 438.1,219.6 450.1,218.3 462.2,229.5 474.3,228.3 486.3,230.8 498.4,232.0 510.5,207.1 522.5,210.9 534.6,229.5 546.6,228.3 558.7,230.8 570.8,230.8 582.8,229.5 594.9,230.8 607.0,229.5 619.0,230.8 631.1,232.0 643.2,229.5 655.2,229.5 667.3,232.0 679.4,230.8 691.4,230.8 703.5,228.3 715.5,230.8 727.6,229.5 739.7,229.5 751.7,230.8 763.8,229.5 775.9,229.5 787.9,230.8 800.0,229.5"
            fill="none" stroke="#f28e2b"
            stroke-width="2" stroke-linejoin="round"
            stroke-dasharray="5,3"/>

  <!-- dots -->
  <circle cx="52.0" cy="232.0" r="3" fill="#4e79a7"/><circle cx="64.1" cy="230.8" r="3" fill="#4e79a7"/><circle cx="76.1" cy="229.5" r="3" fill="#4e79a7"/><circle cx="88.2" cy="232.0" r="3" fill="#4e79a7"/><circle cx="100.3" cy="232.0" r="3" fill="#4e79a7"/><circle cx="112.3" cy="232.0" r="3" fill="#4e79a7"/><circle cx="124.4" cy="232.0" r="3" fill="#4e79a7"/><circle cx="136.5" cy="232.0" r="3" fill="#4e79a7"/><circle cx="148.5" cy="228.3" r="3" fill="#4e79a7"/><circle cx="160.6" cy="232.0" r="3" fill="#4e79a7"/><circle cx="172.6" cy="229.5" r="3" fill="#4e79a7"/><circle cx="184.7" cy="74.0" r="3" fill="#4e79a7"/><circle cx="196.8" cy="100.1" r="3" fill="#4e79a7"/><circle cx="208.8" cy="28.0" r="3" fill="#4e79a7"/><circle cx="220.9" cy="217.1" r="3" fill="#4e79a7"/><circle cx="233.0" cy="218.3" r="3" fill="#4e79a7"/><circle cx="245.0" cy="232.0" r="3" fill="#4e79a7"/><circle cx="257.1" cy="30.5" r="3" fill="#4e79a7"/><circle cx="269.2" cy="193.4" r="3" fill="#4e79a7"/><circle cx="281.2" cy="163.6" r="3" fill="#4e79a7"/><circle cx="293.3" cy="225.8" r="3" fill="#4e79a7"/><circle cx="305.4" cy="223.3" r="3" fill="#4e79a7"/><circle cx="317.4" cy="225.8" r="3" fill="#4e79a7"/><circle cx="329.5" cy="230.8" r="3" fill="#4e79a7"/><circle cx="341.5" cy="232.0" r="3" fill="#4e79a7"/><circle cx="353.6" cy="230.8" r="3" fill="#4e79a7"/><circle cx="365.7" cy="105.1" r="3" fill="#4e79a7"/><circle cx="377.7" cy="113.8" r="3" fill="#4e79a7"/><circle cx="389.8" cy="229.5" r="3" fill="#4e79a7"/><circle cx="401.9" cy="229.5" r="3" fill="#4e79a7"/><circle cx="413.9" cy="225.8" r="3" fill="#4e79a7"/><circle cx="426.0" cy="228.3" r="3" fill="#4e79a7"/><circle cx="438.1" cy="203.4" r="3" fill="#4e79a7"/><circle cx="450.1" cy="166.1" r="3" fill="#4e79a7"/><circle cx="462.2" cy="225.8" r="3" fill="#4e79a7"/><circle cx="474.3" cy="208.4" r="3" fill="#4e79a7"/><circle cx="486.3" cy="230.8" r="3" fill="#4e79a7"/><circle cx="498.4" cy="232.0" r="3" fill="#4e79a7"/><circle cx="510.5" cy="122.5" r="3" fill="#4e79a7"/><circle cx="522.5" cy="102.6" r="3" fill="#4e79a7"/><circle cx="534.6" cy="222.0" r="3" fill="#4e79a7"/><circle cx="546.6" cy="217.1" r="3" fill="#4e79a7"/><circle cx="558.7" cy="230.8" r="3" fill="#4e79a7"/><circle cx="570.8" cy="230.8" r="3" fill="#4e79a7"/><circle cx="582.8" cy="229.5" r="3" fill="#4e79a7"/><circle cx="594.9" cy="230.8" r="3" fill="#4e79a7"/><circle cx="607.0" cy="229.5" r="3" fill="#4e79a7"/><circle cx="619.0" cy="230.8" r="3" fill="#4e79a7"/><circle cx="631.1" cy="232.0" r="3" fill="#4e79a7"/><circle cx="643.2" cy="228.3" r="3" fill="#4e79a7"/><circle cx="655.2" cy="229.5" r="3" fill="#4e79a7"/><circle cx="667.3" cy="232.0" r="3" fill="#4e79a7"/><circle cx="679.4" cy="230.8" r="3" fill="#4e79a7"/><circle cx="691.4" cy="230.8" r="3" fill="#4e79a7"/><circle cx="703.5" cy="227.0" r="3" fill="#4e79a7"/><circle cx="715.5" cy="230.8" r="3" fill="#4e79a7"/><circle cx="727.6" cy="228.3" r="3" fill="#4e79a7"/><circle cx="739.7" cy="229.5" r="3" fill="#4e79a7"/><circle cx="751.7" cy="230.8" r="3" fill="#4e79a7"/><circle cx="763.8" cy="229.5" r="3" fill="#4e79a7"/><circle cx="775.9" cy="228.3" r="3" fill="#4e79a7"/><circle cx="787.9" cy="230.8" r="3" fill="#4e79a7"/><circle cx="800.0" cy="229.5" r="3" fill="#4e79a7"/>
  <circle cx="52.0" cy="232.0" r="3" fill="#f28e2b"/><circle cx="64.1" cy="230.8" r="3" fill="#f28e2b"/><circle cx="76.1" cy="229.5" r="3" fill="#f28e2b"/><circle cx="88.2" cy="232.0" r="3" fill="#f28e2b"/><circle cx="100.3" cy="232.0" r="3" fill="#f28e2b"/><circle cx="112.3" cy="232.0" r="3" fill="#f28e2b"/><circle cx="124.4" cy="232.0" r="3" fill="#f28e2b"/><circle cx="136.5" cy="232.0" r="3" fill="#f28e2b"/><circle cx="148.5" cy="229.5" r="3" fill="#f28e2b"/><circle cx="160.6" cy="232.0" r="3" fill="#f28e2b"/><circle cx="172.6" cy="229.5" r="3" fill="#f28e2b"/><circle cx="184.7" cy="177.3" r="3" fill="#f28e2b"/><circle cx="196.8" cy="156.1" r="3" fill="#f28e2b"/><circle cx="208.8" cy="125.0" r="3" fill="#f28e2b"/><circle cx="220.9" cy="228.3" r="3" fill="#f28e2b"/><circle cx="233.0" cy="228.3" r="3" fill="#f28e2b"/><circle cx="245.0" cy="232.0" r="3" fill="#f28e2b"/><circle cx="257.1" cy="147.4" r="3" fill="#f28e2b"/><circle cx="269.2" cy="210.9" r="3" fill="#f28e2b"/><circle cx="281.2" cy="210.9" r="3" fill="#f28e2b"/><circle cx="293.3" cy="227.0" r="3" fill="#f28e2b"/><circle cx="305.4" cy="228.3" r="3" fill="#f28e2b"/><circle cx="317.4" cy="229.5" r="3" fill="#f28e2b"/><circle cx="329.5" cy="230.8" r="3" fill="#f28e2b"/><circle cx="341.5" cy="232.0" r="3" fill="#f28e2b"/><circle cx="353.6" cy="230.8" r="3" fill="#f28e2b"/><circle cx="365.7" cy="183.5" r="3" fill="#f28e2b"/><circle cx="377.7" cy="186.0" r="3" fill="#f28e2b"/><circle cx="389.8" cy="230.8" r="3" fill="#f28e2b"/><circle cx="401.9" cy="229.5" r="3" fill="#f28e2b"/><circle cx="413.9" cy="228.3" r="3" fill="#f28e2b"/><circle cx="426.0" cy="228.3" r="3" fill="#f28e2b"/><circle cx="438.1" cy="219.6" r="3" fill="#f28e2b"/><circle cx="450.1" cy="218.3" r="3" fill="#f28e2b"/><circle cx="462.2" cy="229.5" r="3" fill="#f28e2b"/><circle cx="474.3" cy="228.3" r="3" fill="#f28e2b"/><circle cx="486.3" cy="230.8" r="3" fill="#f28e2b"/><circle cx="498.4" cy="232.0" r="3" fill="#f28e2b"/><circle cx="510.5" cy="207.1" r="3" fill="#f28e2b"/><circle cx="522.5" cy="210.9" r="3" fill="#f28e2b"/><circle cx="534.6" cy="229.5" r="3" fill="#f28e2b"/><circle cx="546.6" cy="228.3" r="3" fill="#f28e2b"/><circle cx="558.7" cy="230.8" r="3" fill="#f28e2b"/><circle cx="570.8" cy="230.8" r="3" fill="#f28e2b"/><circle cx="582.8" cy="229.5" r="3" fill="#f28e2b"/><circle cx="594.9" cy="230.8" r="3" fill="#f28e2b"/><circle cx="607.0" cy="229.5" r="3" fill="#f28e2b"/><circle cx="619.0" cy="230.8" r="3" fill="#f28e2b"/><circle cx="631.1" cy="232.0" r="3" fill="#f28e2b"/><circle cx="643.2" cy="229.5" r="3" fill="#f28e2b"/><circle cx="655.2" cy="229.5" r="3" fill="#f28e2b"/><circle cx="667.3" cy="232.0" r="3" fill="#f28e2b"/><circle cx="679.4" cy="230.8" r="3" fill="#f28e2b"/><circle cx="691.4" cy="230.8" r="3" fill="#f28e2b"/><circle cx="703.5" cy="228.3" r="3" fill="#f28e2b"/><circle cx="715.5" cy="230.8" r="3" fill="#f28e2b"/><circle cx="727.6" cy="229.5" r="3" fill="#f28e2b"/><circle cx="739.7" cy="229.5" r="3" fill="#f28e2b"/><circle cx="751.7" cy="230.8" r="3" fill="#f28e2b"/><circle cx="763.8" cy="229.5" r="3" fill="#f28e2b"/><circle cx="775.9" cy="229.5" r="3" fill="#f28e2b"/><circle cx="787.9" cy="230.8" r="3" fill="#f28e2b"/><circle cx="800.0" cy="229.5" r="3" fill="#f28e2b"/>

  <!-- axes -->
  <line x1="52" y1="28" x2="52" y2="232"
        stroke="#cccccc" stroke-width="1"/>
  <line x1="52" y1="232" x2="800" y2="232"
        stroke="#cccccc" stroke-width="1"/>

  <!-- y-axis labels -->
  <text x="47" y="236.0" text-anchor="end" font-size="10" fill="#57606a" font-family="ui-monospace, SFMono-Regular, 'SF Mono', Menlo, monospace">0</text><text x="47" y="198.7" text-anchor="end" font-size="10" fill="#57606a" font-family="ui-monospace, SFMono-Regular, 'SF Mono', Menlo, monospace">30</text><text x="47" y="161.4" text-anchor="end" font-size="10" fill="#57606a" font-family="ui-monospace, SFMono-Regular, 'SF Mono', Menlo, monospace">60</text><text x="47" y="124.0" text-anchor="end" font-size="10" fill="#57606a" font-family="ui-monospace, SFMono-Regular, 'SF Mono', Menlo, monospace">90</text><text x="47" y="86.7" text-anchor="end" font-size="10" fill="#57606a" font-family="ui-monospace, SFMono-Regular, 'SF Mono', Menlo, monospace">120</text><text x="47" y="49.4" text-anchor="end" font-size="10" fill="#57606a" font-family="ui-monospace, SFMono-Regular, 'SF Mono', Menlo, monospace">150</text><text x="47" y="12.1" text-anchor="end" font-size="10" fill="#57606a" font-family="ui-monospace, SFMono-Regular, 'SF Mono', Menlo, monospace">180</text>

  <!-- x-axis labels -->
  <text x="52.0" y="248" text-anchor="middle" font-size="10" fill="#8c959f" font-family="ui-monospace, SFMono-Regular, 'SF Mono', Menlo, monospace">05-11</text><text x="474.3" y="248" text-anchor="middle" font-size="10" fill="#8c959f" font-family="ui-monospace, SFMono-Regular, 'SF Mono', Menlo, monospace">06-15</text><text x="136.5" y="248" text-anchor="middle" font-size="10" fill="#8c959f" font-family="ui-monospace, SFMono-Regular, 'SF Mono', Menlo, monospace">05-18</text><text x="558.7" y="248" text-anchor="middle" font-size="10" fill="#8c959f" font-family="ui-monospace, SFMono-Regular, 'SF Mono', Menlo, monospace">06-22</text><text x="220.9" y="248" text-anchor="middle" font-size="10" fill="#8c959f" font-family="ui-monospace, SFMono-Regular, 'SF Mono', Menlo, monospace">05-25</text><text x="643.2" y="248" text-anchor="middle" font-size="10" fill="#8c959f" font-family="ui-monospace, SFMono-Regular, 'SF Mono', Menlo, monospace">06-29</text><text x="305.4" y="248" text-anchor="middle" font-size="10" fill="#8c959f" font-family="ui-monospace, SFMono-Regular, 'SF Mono', Menlo, monospace">06-01</text><text x="727.6" y="248" text-anchor="middle" font-size="10" fill="#8c959f" font-family="ui-monospace, SFMono-Regular, 'SF Mono', Menlo, monospace">07-06</text><text x="389.8" y="248" text-anchor="middle" font-size="10" fill="#8c959f" font-family="ui-monospace, SFMono-Regular, 'SF Mono', Menlo, monospace">06-08</text><text x="800.0" y="248" text-anchor="middle" font-size="10" fill="#8c959f" font-family="ui-monospace, SFMono-Regular, 'SF Mono', Menlo, monospace">07-12</text>

  <!-- legend -->
  <rect x="60" y="262" width="16" height="3" fill="#4e79a7" rx="1"/><text x="80" y="268" font-size="11" fill="#57606a" font-family="-apple-system, BlinkMacSystemFont, 'Segoe UI', sans-serif">Total clones (1,251)</text><line x1="230" y1="264" x2="246" y2="264" stroke="#f28e2b" stroke-width="2" stroke-dasharray="5,3"/><text x="250" y="268" font-size="11" fill="#57606a" font-family="-apple-system, BlinkMacSystemFont, 'Segoe UI', sans-serif">Unique cloners</text>

</svg>