<svg xmlns="http://www.w3.org/2000/svg" viewBox="0 0 820 280" width="820" height="280">

  <!-- title -->
  <text x="52" y="18" font-size="13" font-weight="600"
        fill="#24292f" font-family="-apple-system, BlinkMacSystemFont, 'Segoe UI', sans-serif"
        >Clone traffic — 500ad</text>
  <text x="800" y="18" font-size="10" fill="#8c959f"
        font-family="ui-monospace, SFMono-Regular, 'SF Mono', Menlo, monospace" text-anchor="end">2026-07-01</text>

  <!-- grid -->
  <line x1="52" y1="232.0" x2="800" y2="232.0" stroke="#e8e8e8" stroke-width="1"/><line x1="52" y1="194.7" x2="800" y2="194.7" stroke="#e8e8e8" stroke-width="1"/><line x1="52" y1="157.4" x2="800" y2="157.4" stroke="#e8e8e8" stroke-width="1"/><line x1="52" y1="120.0" x2="800" y2="120.0" stroke="#e8e8e8" stroke-width="1"/><line x1="52" y1="82.7" x2="800" y2="82.7" stroke="#e8e8e8" stroke-width="1"/><line x1="52" y1="45.4" x2="800" y2="45.4" stroke="#e8e8e8" stroke-width="1"/><line x1="52" y1="8.1" x2="800" y2="8.1" stroke="#e8e8e8" stroke-width="1"/>

  <!-- area fill -->
  <path d="M52.0,232.0 L52.0,232.0 L67.3,230.8 L82.5,229.5 L97.8,232.0 L113.1,232.0 L128.3,232.0 L143.6,232.0 L158.9,232.0 L174.1,228.3 L189.4,232.0 L204.7,229.5 L219.9,74.0 L235.2,100.1 L250.4,28.0 L265.7,217.1 L281.0,218.3 L296.2,232.0 L311.5,30.5 L326.8,193.4 L342.0,163.6 L357.3,225.8 L372.6,223.3 L387.8,225.8 L403.1,230.8 L418.4,232.0 L433.6,230.8 L448.9,105.1 L464.2,113.8 L479.4,229.5 L494.7,229.5 L510.0,225.8 L525.2,228.3 L540.5,203.4 L555.8,166.1 L571.0,225.8 L586.3,208.4 L601.6,230.8 L616.8,232.0 L632.1,122.5 L647.3,102.6 L662.6,222.0 L677.9,217.1 L693.1,230.8 L708.4,230.8 L723.7,229.5 L738.9,230.8 L754.2,229.5 L769.5,230.8 L784.7,232.0 L800.0,228.3 L800.0,232.0 L52.0,232.0Z" fill="#4e79a7" opacity="0.12"/>

  <!-- lines -->
  <polyline points="52.0,232.0 67.3,230.8 82.5,229.5 97.8,232.0 113.1,232.0 128.3,232.0 143.6,232.0 158.9,232.0 174.1,228.3 189.4,232.0 204.7,229.5 219.9,74.0 235.2,100.1 250.4,28.0 265.7,217.1 281.0,218.3 296.2,232.0 311.5,30.5 326.8,193.4 342.0,163.6 357.3,225.8 372.6,223.3 387.8,225.8 403.1,230.8 418.4,232.0 433.6,230.8 448.9,105.1 464.2,113.8 479.4,229.5 494.7,229.5 510.0,225.8 525.2,228.3 540.5,203.4 555.8,166.1 571.0,225.8 586.3,208.4 601.6,230.8 616.8,232.0 632.1,122.5 647.3,102.6 662.6,222.0 677.9,217.1 693.1,230.8 708.4,230.8 723.7,229.5 738.9,230.8 754.2,229.5 769.5,230.8 784.7,232.0 800.0,228.3"
            fill="none" stroke="#4e79a7"
            stroke-width="2" stroke-linejoin="round"/>
  <polyline points="52.0,232.0 67.3,230.8 82.5,229.5 97.8,232.0 113.1,232.0 128.3,232.0 143.6,232.0 158.9,232.0 174.1,229.5 189.4,232.0 204.7,229.5 219.9,177.3 235.2,156.1 250.4,125.0 265.7,228.3 281.0,228.3 296.2,232.0 311.5,147.4 326.8,210.9 342.0,210.9 357.3,227.0 372.6,228.3 387.8,229.5 403.1,230.8 418.4,232.0 433.6,230.8 448.9,183.5 464.2,186.0 479.4,230.8 494.7,229.5 510.0,228.3 525.2,228.3 540.5,219.6 555.8,218.3 571.0,229.5 586.3,228.3 601.6,230.8 616.8,232.0 632.1,207.1 647.3,210.9 662.6,229.5 677.9,228.3 693.1,230.8 708.4,230.8 723.7,229.5 738.9,230.8 754.2,229.5 769.5,230.8 784.7,232.0 800.0,229.5"
            fill="none" stroke="#f28e2b"
            stroke-width="2" stroke-linejoin="round"
            stroke-dasharray="5,3"/>

  <!-- dots -->
  <circle cx="52.0" cy="232.0" r="3" fill="#4e79a7"/><circle cx="67.3" cy="230.8" r="3" fill="#4e79a7"/><circle cx="82.5" cy="229.5" r="3" fill="#4e79a7"/><circle cx="97.8" cy="232.0" r="3" fill="#4e79a7"/><circle cx="113.1" cy="232.0" r="3" fill="#4e79a7"/><circle cx="128.3" cy="232.0" r="3" fill="#4e79a7"/><circle cx="143.6" cy="232.0" r="3" fill="#4e79a7"/><circle cx="158.9" cy="232.0" r="3" fill="#4e79a7"/><circle cx="174.1" cy="228.3" r="3" fill="#4e79a7"/><circle cx="189.4" cy="232.0" r="3" fill="#4e79a7"/><circle cx="204.7" cy="229.5" r="3" fill="#4e79a7"/><circle cx="219.9" cy="74.0" r="3" fill="#4e79a7"/><circle cx="235.2" cy="100.1" r="3" fill="#4e79a7"/><circle cx="250.4" cy="28.0" r="3" fill="#4e79a7"/><circle cx="265.7" cy="217.1" r="3" fill="#4e79a7"/><circle cx="281.0" cy="218.3" r="3" fill="#4e79a7"/><circle cx="296.2" cy="232.0" r="3" fill="#4e79a7"/><circle cx="311.5" cy="30.5" r="3" fill="#4e79a7"/><circle cx="326.8" cy="193.4" r="3" fill="#4e79a7"/><circle cx="342.0" cy="163.6" r="3" fill="#4e79a7"/><circle cx="357.3" cy="225.8" r="3" fill="#4e79a7"/><circle cx="372.6" cy="223.3" r="3" fill="#4e79a7"/><circle cx="387.8" cy="225.8" r="3" fill="#4e79a7"/><circle cx="403.1" cy="230.8" r="3" fill="#4e79a7"/><circle cx="418.4" cy="232.0" r="3" fill="#4e79a7"/><circle cx="433.6" cy="230.8" r="3" fill="#4e79a7"/><circle cx="448.9" cy="105.1" r="3" fill="#4e79a7"/><circle cx="464.2" cy="113.8" r="3" fill="#4e79a7"/><circle cx="479.4" cy="229.5" r="3" fill="#4e79a7"/><circle cx="494.7" cy="229.5" r="3" fill="#4e79a7"/><circle cx="510.0" cy="225.8" r="3" fill="#4e79a7"/><circle cx="525.2" cy="228.3" r="3" fill="#4e79a7"/><circle cx="540.5" cy="203.4" r="3" fill="#4e79a7"/><circle cx="555.8" cy="166.1" r="3" fill="#4e79a7"/><circle cx="571.0" cy="225.8" r="3" fill="#4e79a7"/><circle cx="586.3" cy="208.4" r="3" fill="#4e79a7"/><circle cx="601.6" cy="230.8" r="3" fill="#4e79a7"/><circle cx="616.8" cy="232.0" r="3" fill="#4e79a7"/><circle cx="632.1" cy="122.5" r="3" fill="#4e79a7"/><circle cx="647.3" cy="102.6" r="3" fill="#4e79a7"/><circle cx="662.6" cy="222.0" r="3" fill="#4e79a7"/><circle cx="677.9" cy="217.1" r="3" fill="#4e79a7"/><circle cx="693.1" cy="230.8" r="3" fill="#4e79a7"/><circle cx="708.4" cy="230.8" r="3" fill="#4e79a7"/><circle cx="723.7" cy="229.5" r="3" fill="#4e79a7"/><circle cx="738.9" cy="230.8" r="3" fill="#4e79a7"/><circle cx="754.2" cy="229.5" r="3" fill="#4e79a7"/><circle cx="769.5" cy="230.8" r="3" fill="#4e79a7"/><circle cx="784.7" cy="232.0" r="3" fill="#4e79a7"/><circle cx="800.0" cy="228.3" r="3" fill="#4e79a7"/>
  <circle cx="52.0" cy="232.0" r="3" fill="#f28e2b"/><circle cx="67.3" cy="230.8" r="3" fill="#f28e2b"/><circle cx="82.5" cy="229.5" r="3" fill="#f28e2b"/><circle cx="97.8" cy="232.0" r="3" fill="#f28e2b"/><circle cx="113.1" cy="232.0" r="3" fill="#f28e2b"/><circle cx="128.3" cy="232.0" r="3" fill="#f28e2b"/><circle cx="143.6" cy="232.0" r="3" fill="#f28e2b"/><circle cx="158.9" cy="232.0" r="3" fill="#f28e2b"/><circle cx="174.1" cy="229.5" r="3" fill="#f28e2b"/><circle cx="189.4" cy="232.0" r="3" fill="#f28e2b"/><circle cx="204.7" cy="229.5" r="3" fill="#f28e2b"/><circle cx="219.9" cy="177.3" r="3" fill="#f28e2b"/><circle cx="235.2" cy="156.1" r="3" fill="#f28e2b"/><circle cx="250.4" cy="125.0" r="3" fill="#f28e2b"/><circle cx="265.7" cy="228.3" r="3" fill="#f28e2b"/><circle cx="281.0" cy="228.3" r="3" fill="#f28e2b"/><circle cx="296.2" cy="232.0" r="3" fill="#f28e2b"/><circle cx="311.5" cy="147.4" r="3" fill="#f28e2b"/><circle cx="326.8" cy="210.9" r="3" fill="#f28e2b"/><circle cx="342.0" cy="210.9" r="3" fill="#f28e2b"/><circle cx="357.3" cy="227.0" r="3" fill="#f28e2b"/><circle cx="372.6" cy="228.3" r="3" fill="#f28e2b"/><circle cx="387.8" cy="229.5" r="3" fill="#f28e2b"/><circle cx="403.1" cy="230.8" r="3" fill="#f28e2b"/><circle cx="418.4" cy="232.0" r="3" fill="#f28e2b"/><circle cx="433.6" cy="230.8" r="3" fill="#f28e2b"/><circle cx="448.9" cy="183.5" r="3" fill="#f28e2b"/><circle cx="464.2" cy="186.0" r="3" fill="#f28e2b"/><circle cx="479.4" cy="230.8" r="3" fill="#f28e2b"/><circle cx="494.7" cy="229.5" r="3" fill="#f28e2b"/><circle cx="510.0" cy="228.3" r="3" fill="#f28e2b"/><circle cx="525.2" cy="228.3" r="3" fill="#f28e2b"/><circle cx="540.5" cy="219.6" r="3" fill="#f28e2b"/><circle cx="555.8" cy="218.3" r="3" fill="#f28e2b"/><circle cx="571.0" cy="229.5" r="3" fill="#f28e2b"/><circle cx="586.3" cy="228.3" r="3" fill="#f28e2b"/><circle cx="601.6" cy="230.8" r="3" fill="#f28e2b"/><circle cx="616.8" cy="232.0" r="3" fill="#f28e2b"/><circle cx="632.1" cy="207.1" r="3" fill="#f28e2b"/><circle cx="647.3" cy="210.9" r="3" fill="#f28e2b"/><circle cx="662.6" cy="229.5" r="3" fill="#f28e2b"/><circle cx="677.9" cy="228.3" r="3" fill="#f28e2b"/><circle cx="693.1" cy="230.8" r="3" fill="#f28e2b"/><circle cx="708.4" cy="230.8" r="3" fill="#f28e2b"/><circle cx="723.7" cy="229.5" r="3" fill="#f28e2b"/><circle cx="738.9" cy="230.8" r="3" fill="#f28e2b"/><circle cx="754.2" cy="229.5" r="3" fill="#f28e2b"/><circle cx="769.5" cy="230.8" r="3" fill="#f28e2b"/><circle cx="784.7" cy="232.0" r="3" fill="#f28e2b"/><circle cx="800.0" cy="229.5" r="3" fill="#f28e2b"/>

  <!-- axes -->
  <line x1="52" y1="28" x2="52" y2="232"
        stroke="#cccccc" stroke-width="1"/>
  <line x1="52" y1="232" x2="800" y2="232"
        stroke="#cccccc" stroke-width="1"/>

  <!-- y-axis labels -->
  <text x="47" y="236.0" text-anchor="end" font-size="10" fill="#57606a" font-family="ui-monospace, SFMono-Regular, 'SF Mono', Menlo, monospace">0</text><text x="47" y="198.7" text-anchor="end" font-size="10" fill="#57606a" font-family="ui-monospace, SFMono-Regular, 'SF Mono', Menlo, monospace">30</text><text x="47" y="161.4" text-anchor="end" font-size="10" fill="#57606a" font-family="ui-monospace, SFMono-Regular, 'SF Mono', Menlo, monospace">60</text><text x="47" y="124.0" text-anchor="end" font-size="10" fill="#57606a" font-family="ui-monospace, SFMono-Regular, 'SF Mono', Menlo, monospace">90</text><text x="47" y="86.7" text-anchor="end" font-size="10" fill="#57606a" font-family="ui-monospace, SFMono-Regular, 'SF Mono', Menlo, monospace">120</text><text x="47" y="49.4" text-anchor="end" font-size="10" fill="#57606a" font-family="ui-monospace, SFMono-Regular, 'SF Mono', Menlo, monospace">150</text><text x="47" y="12.1" text-anchor="end" font-size="10" fill="#57606a" font-family="ui-monospace, SFMono-Regular, 'SF Mono', Menlo, monospace">180</text>

  <!-- x-axis labels -->
  <text x="52.0" y="248" text-anchor="middle" font-size="10" fill="#8c959f" font-family="ui-monospace, SFMono-Regular, 'SF Mono', Menlo, monospace">05-11</text><text x="601.6" y="248" text-anchor="middle" font-size="10" fill="#8c959f" font-family="ui-monospace, SFMono-Regular, 'SF Mono', Menlo, monospace">06-16</text><text x="143.6" y="248" text-anchor="middle" font-size="10" fill="#8c959f" font-family="ui-monospace, SFMono-Regular, 'SF Mono', Menlo, monospace">05-17</text><text x="693.1" y="248" text-anchor="middle" font-size="10" fill="#8c959f" font-family="ui-monospace, SFMono-Regular, 'SF Mono', Menlo, monospace">06-22</text><text x="235.2" y="248" text-anchor="middle" font-size="10" fill="#8c959f" font-family="ui-monospace, SFMono-Regular, 'SF Mono', Menlo, monospace">05-23</text><text x="784.7" y="248" text-anchor="middle" font-size="10" fill="#8c959f" font-family="ui-monospace, SFMono-Regular, 'SF Mono', Menlo, monospace">06-28</text><text x="800.0" y="248" text-anchor="middle" font-size="10" fill="#8c959f" font-family="ui-monospace, SFMono-Regular, 'SF Mono', Menlo, monospace">06-29</text><text x="326.8" y="248" text-anchor="middle" font-size="10" fill="#8c959f" font-family="ui-monospace, SFMono-Regular, 'SF Mono', Menlo, monospace">05-29</text><text x="418.4" y="248" text-anchor="middle" font-size="10" fill="#8c959f" font-family="ui-monospace, SFMono-Regular, 'SF Mono', Menlo, monospace">06-04</text><text x="510.0" y="248" text-anchor="middle" font-size="10" fill="#8c959f" font-family="ui-monospace, SFMono-Regular, 'SF Mono', Menlo, monospace">06-10</text>

  <!-- legend -->
  <rect x="60" y="262" width="16" height="3" fill="#4e79a7" rx="1"/><text x="80" y="268" font-size="11" fill="#57606a" font-family="-apple-system, BlinkMacSystemFont, 'Segoe UI', sans-serif">Total clones (1,228)</text><line x1="230" y1="264" x2="246" y2="264" stroke="#f28e2b" stroke-width="2" stroke-dasharray="5,3"/><text x="250" y="268" font-size="11" fill="#57606a" font-family="-apple-system, BlinkMacSystemFont, 'Segoe UI', sans-serif">Unique cloners</text>

</svg>