<svg xmlns="http://www.w3.org/2000/svg" viewBox="0 0 820 280" width="820" height="280">

  <!-- title -->
  <text x="52" y="18" font-size="13" font-weight="600"
        fill="#24292f" font-family="-apple-system, BlinkMacSystemFont, 'Segoe UI', sans-serif"
        >Clone traffic — 500ad</text>
  <text x="800" y="18" font-size="10" fill="#8c959f"
        font-family="ui-monospace, SFMono-Regular, 'SF Mono', Menlo, monospace" text-anchor="end">2026-07-24</text>

  <!-- grid -->
  <line x1="52" y1="232.0" x2="800" y2="232.0" stroke="#e8e8e8" stroke-width="1"/><line x1="52" y1="194.7" x2="800" y2="194.7" stroke="#e8e8e8" stroke-width="1"/><line x1="52" y1="157.4" x2="800" y2="157.4" stroke="#e8e8e8" stroke-width="1"/><line x1="52" y1="120.0" x2="800" y2="120.0" stroke="#e8e8e8" stroke-width="1"/><line x1="52" y1="82.7" x2="800" y2="82.7" stroke="#e8e8e8" stroke-width="1"/><line x1="52" y1="45.4" x2="800" y2="45.4" stroke="#e8e8e8" stroke-width="1"/><line x1="52" y1="8.1" x2="800" y2="8.1" stroke="#e8e8e8" stroke-width="1"/>

  <!-- area fill -->
  <path d="M52.0,232.0 L52.0,232.0 L62.4,230.8 L72.8,229.5 L83.2,232.0 L93.6,232.0 L103.9,232.0 L114.3,232.0 L124.7,232.0 L135.1,228.3 L145.5,232.0 L155.9,229.5 L166.3,74.0 L176.7,100.1 L187.1,28.0 L197.4,217.1 L207.8,218.3 L218.2,232.0 L228.6,30.5 L239.0,193.4 L249.4,163.6 L259.8,225.8 L270.2,223.3 L280.6,225.8 L290.9,230.8 L301.3,232.0 L311.7,230.8 L322.1,105.1 L332.5,113.8 L342.9,229.5 L353.3,229.5 L363.7,225.8 L374.1,228.3 L384.4,203.4 L394.8,166.1 L405.2,225.8 L415.6,208.4 L426.0,230.8 L436.4,232.0 L446.8,122.5 L457.2,102.6 L467.6,222.0 L477.9,217.1 L488.3,230.8 L498.7,230.8 L509.1,229.5 L519.5,230.8 L529.9,229.5 L540.3,230.8 L550.7,232.0 L561.1,228.3 L571.4,229.5 L581.8,232.0 L592.2,230.8 L602.6,230.8 L613.0,227.0 L623.4,230.8 L633.8,228.3 L644.2,229.5 L654.6,230.8 L664.9,229.5 L675.3,228.3 L685.7,230.8 L696.1,229.5 L706.5,229.5 L716.9,219.6 L727.3,232.0 L737.7,230.8 L748.1,230.8 L758.4,229.5 L768.8,230.8 L779.2,230.8 L789.6,230.8 L800.0,230.8 L800.0,232.0 L52.0,232.0Z" fill="#4e79a7" opacity="0.12"/>

  <!-- lines -->
  <polyline points="52.0,232.0 62.4,230.8 72.8,229.5 83.2,232.0 93.6,232.0 103.9,232.0 114.3,232.0 124.7,232.0 135.1,228.3 145.5,232.0 155.9,229.5 166.3,74.0 176.7,100.1 187.1,28.0 197.4,217.1 207.8,218.3 218.2,232.0 228.6,30.5 239.0,193.4 249.4,163.6 259.8,225.8 270.2,223.3 280.6,225.8 290.9,230.8 301.3,232.0 311.7,230.8 322.1,105.1 332.5,113.8 342.9,229.5 353.3,229.5 363.7,225.8 374.1,228.3 384.4,203.4 394.8,166.1 405.2,225.8 415.6,208.4 426.0,230.8 436.4,232.0 446.8,122.5 457.2,102.6 467.6,222.0 477.9,217.1 488.3,230.8 498.7,230.8 509.1,229.5 519.5,230.8 529.9,229.5 540.3,230.8 550.7,232.0 561.1,228.3 571.4,229.5 581.8,232.0 592.2,230.8 602.6,230.8 613.0,227.0 623.4,230.8 633.8,228.3 644.2,229.5 654.6,230.8 664.9,229.5 675.3,228.3 685.7,230.8 696.1,229.5 706.5,229.5 716.9,219.6 727.3,232.0 737.7,230.8 748.1,230.8 758.4,229.5 768.8,230.8 779.2,230.8 789.6,230.8 800.0,230.8"
            fill="none" stroke="#4e79a7"
            stroke-width="2" stroke-linejoin="round"/>
  <polyline points="52.0,232.0 62.4,230.8 72.8,229.5 83.2,232.0 93.6,232.0 103.9,232.0 114.3,232.0 124.7,232.0 135.1,229.5 145.5,232.0 155.9,229.5 166.3,177.3 176.7,156.1 187.1,125.0 197.4,228.3 207.8,228.3 218.2,232.0 228.6,147.4 239.0,210.9 249.4,210.9 259.8,227.0 270.2,228.3 280.6,229.5 290.9,230.8 301.3,232.0 311.7,230.8 322.1,183.5 332.5,186.0 342.9,230.8 353.3,229.5 363.7,228.3 374.1,228.3 384.4,219.6 394.8,218.3 405.2,229.5 415.6,228.3 426.0,230.8 436.4,232.0 446.8,207.1 457.2,210.9 467.6,229.5 477.9,228.3 488.3,230.8 498.7,230.8 509.1,229.5 519.5,230.8 529.9,229.5 540.3,230.8 550.7,232.0 561.1,229.5 571.4,229.5 581.8,232.0 592.2,230.8 602.6,230.8 613.0,228.3 623.4,230.8 633.8,229.5 644.2,229.5 654.6,230.8 664.9,229.5 675.3,229.5 685.7,230.8 696.1,229.5 706.5,229.5 716.9,228.3 727.3,232.0 737.7,230.8 748.1,230.8 758.4,229.5 768.8,230.8 779.2,230.8 789.6,230.8 800.0,230.8"
            fill="none" stroke="#f28e2b"
            stroke-width="2" stroke-linejoin="round"
            stroke-dasharray="5,3"/>

  <!-- dots -->
  <circle cx="52.0" cy="232.0" r="3" fill="#4e79a7"/><circle cx="62.4" cy="230.8" r="3" fill="#4e79a7"/><circle cx="72.8" cy="229.5" r="3" fill="#4e79a7"/><circle cx="83.2" cy="232.0" r="3" fill="#4e79a7"/><circle cx="93.6" cy="232.0" r="3" fill="#4e79a7"/><circle cx="103.9" cy="232.0" r="3" fill="#4e79a7"/><circle cx="114.3" cy="232.0" r="3" fill="#4e79a7"/><circle cx="124.7" cy="232.0" r="3" fill="#4e79a7"/><circle cx="135.1" cy="228.3" r="3" fill="#4e79a7"/><circle cx="145.5" cy="232.0" r="3" fill="#4e79a7"/><circle cx="155.9" cy="229.5" r="3" fill="#4e79a7"/><circle cx="166.3" cy="74.0" r="3" fill="#4e79a7"/><circle cx="176.7" cy="100.1" r="3" fill="#4e79a7"/><circle cx="187.1" cy="28.0" r="3" fill="#4e79a7"/><circle cx="197.4" cy="217.1" r="3" fill="#4e79a7"/><circle cx="207.8" cy="218.3" r="3" fill="#4e79a7"/><circle cx="218.2" cy="232.0" r="3" fill="#4e79a7"/><circle cx="228.6" cy="30.5" r="3" fill="#4e79a7"/><circle cx="239.0" cy="193.4" r="3" fill="#4e79a7"/><circle cx="249.4" cy="163.6" r="3" fill="#4e79a7"/><circle cx="259.8" cy="225.8" r="3" fill="#4e79a7"/><circle cx="270.2" cy="223.3" r="3" fill="#4e79a7"/><circle cx="280.6" cy="225.8" r="3" fill="#4e79a7"/><circle cx="290.9" cy="230.8" r="3" fill="#4e79a7"/><circle cx="301.3" cy="232.0" r="3" fill="#4e79a7"/><circle cx="311.7" cy="230.8" r="3" fill="#4e79a7"/><circle cx="322.1" cy="105.1" r="3" fill="#4e79a7"/><circle cx="332.5" cy="113.8" r="3" fill="#4e79a7"/><circle cx="342.9" cy="229.5" r="3" fill="#4e79a7"/><circle cx="353.3" cy="229.5" r="3" fill="#4e79a7"/><circle cx="363.7" cy="225.8" r="3" fill="#4e79a7"/><circle cx="374.1" cy="228.3" r="3" fill="#4e79a7"/><circle cx="384.4" cy="203.4" r="3" fill="#4e79a7"/><circle cx="394.8" cy="166.1" r="3" fill="#4e79a7"/><circle cx="405.2" cy="225.8" r="3" fill="#4e79a7"/><circle cx="415.6" cy="208.4" r="3" fill="#4e79a7"/><circle cx="426.0" cy="230.8" r="3" fill="#4e79a7"/><circle cx="436.4" cy="232.0" r="3" fill="#4e79a7"/><circle cx="446.8" cy="122.5" r="3" fill="#4e79a7"/><circle cx="457.2" cy="102.6" r="3" fill="#4e79a7"/><circle cx="467.6" cy="222.0" r="3" fill="#4e79a7"/><circle cx="477.9" cy="217.1" r="3" fill="#4e79a7"/><circle cx="488.3" cy="230.8" r="3" fill="#4e79a7"/><circle cx="498.7" cy="230.8" r="3" fill="#4e79a7"/><circle cx="509.1" cy="229.5" r="3" fill="#4e79a7"/><circle cx="519.5" cy="230.8" r="3" fill="#4e79a7"/><circle cx="529.9" cy="229.5" r="3" fill="#4e79a7"/><circle cx="540.3" cy="230.8" r="3" fill="#4e79a7"/><circle cx="550.7" cy="232.0" r="3" fill="#4e79a7"/><circle cx="561.1" cy="228.3" r="3" fill="#4e79a7"/><circle cx="571.4" cy="229.5" r="3" fill="#4e79a7"/><circle cx="581.8" cy="232.0" r="3" fill="#4e79a7"/><circle cx="592.2" cy="230.8" r="3" fill="#4e79a7"/><circle cx="602.6" cy="230.8" r="3" fill="#4e79a7"/><circle cx="613.0" cy="227.0" r="3" fill="#4e79a7"/><circle cx="623.4" cy="230.8" r="3" fill="#4e79a7"/><circle cx="633.8" cy="228.3" r="3" fill="#4e79a7"/><circle cx="644.2" cy="229.5" r="3" fill="#4e79a7"/><circle cx="654.6" cy="230.8" r="3" fill="#4e79a7"/><circle cx="664.9" cy="229.5" r="3" fill="#4e79a7"/><circle cx="675.3" cy="228.3" r="3" fill="#4e79a7"/><circle cx="685.7" cy="230.8" r="3" fill="#4e79a7"/><circle cx="696.1" cy="229.5" r="3" fill="#4e79a7"/><circle cx="706.5" cy="229.5" r="3" fill="#4e79a7"/><circle cx="716.9" cy="219.6" r="3" fill="#4e79a7"/><circle cx="727.3" cy="232.0" r="3" fill="#4e79a7"/><circle cx="737.7" cy="230.8" r="3" fill="#4e79a7"/><circle cx="748.1" cy="230.8" r="3" fill="#4e79a7"/><circle cx="758.4" cy="229.5" r="3" fill="#4e79a7"/><circle cx="768.8" cy="230.8" r="3" fill="#4e79a7"/><circle cx="779.2" cy="230.8" r="3" fill="#4e79a7"/><circle cx="789.6" cy="230.8" r="3" fill="#4e79a7"/><circle cx="800.0" cy="230.8" r="3" fill="#4e79a7"/>
  <circle cx="52.0" cy="232.0" r="3" fill="#f28e2b"/><circle cx="62.4" cy="230.8" r="3" fill="#f28e2b"/><circle cx="72.8" cy="229.5" r="3" fill="#f28e2b"/><circle cx="83.2" cy="232.0" r="3" fill="#f28e2b"/><circle cx="93.6" cy="232.0" r="3" fill="#f28e2b"/><circle cx="103.9" cy="232.0" r="3" fill="#f28e2b"/><circle cx="114.3" cy="232.0" r="3" fill="#f28e2b"/><circle cx="124.7" cy="232.0" r="3" fill="#f28e2b"/><circle cx="135.1" cy="229.5" r="3" fill="#f28e2b"/><circle cx="145.5" cy="232.0" r="3" fill="#f28e2b"/><circle cx="155.9" cy="229.5" r="3" fill="#f28e2b"/><circle cx="166.3" cy="177.3" r="3" fill="#f28e2b"/><circle cx="176.7" cy="156.1" r="3" fill="#f28e2b"/><circle cx="187.1" cy="125.0" r="3" fill="#f28e2b"/><circle cx="197.4" cy="228.3" r="3" fill="#f28e2b"/><circle cx="207.8" cy="228.3" r="3" fill="#f28e2b"/><circle cx="218.2" cy="232.0" r="3" fill="#f28e2b"/><circle cx="228.6" cy="147.4" r="3" fill="#f28e2b"/><circle cx="239.0" cy="210.9" r="3" fill="#f28e2b"/><circle cx="249.4" cy="210.9" r="3" fill="#f28e2b"/><circle cx="259.8" cy="227.0" r="3" fill="#f28e2b"/><circle cx="270.2" cy="228.3" r="3" fill="#f28e2b"/><circle cx="280.6" cy="229.5" r="3" fill="#f28e2b"/><circle cx="290.9" cy="230.8" r="3" fill="#f28e2b"/><circle cx="301.3" cy="232.0" r="3" fill="#f28e2b"/><circle cx="311.7" cy="230.8" r="3" fill="#f28e2b"/><circle cx="322.1" cy="183.5" r="3" fill="#f28e2b"/><circle cx="332.5" cy="186.0" r="3" fill="#f28e2b"/><circle cx="342.9" cy="230.8" r="3" fill="#f28e2b"/><circle cx="353.3" cy="229.5" r="3" fill="#f28e2b"/><circle cx="363.7" cy="228.3" r="3" fill="#f28e2b"/><circle cx="374.1" cy="228.3" r="3" fill="#f28e2b"/><circle cx="384.4" cy="219.6" r="3" fill="#f28e2b"/><circle cx="394.8" cy="218.3" r="3" fill="#f28e2b"/><circle cx="405.2" cy="229.5" r="3" fill="#f28e2b"/><circle cx="415.6" cy="228.3" r="3" fill="#f28e2b"/><circle cx="426.0" cy="230.8" r="3" fill="#f28e2b"/><circle cx="436.4" cy="232.0" r="3" fill="#f28e2b"/><circle cx="446.8" cy="207.1" r="3" fill="#f28e2b"/><circle cx="457.2" cy="210.9" r="3" fill="#f28e2b"/><circle cx="467.6" cy="229.5" r="3" fill="#f28e2b"/><circle cx="477.9" cy="228.3" r="3" fill="#f28e2b"/><circle cx="488.3" cy="230.8" r="3" fill="#f28e2b"/><circle cx="498.7" cy="230.8" r="3" fill="#f28e2b"/><circle cx="509.1" cy="229.5" r="3" fill="#f28e2b"/><circle cx="519.5" cy="230.8" r="3" fill="#f28e2b"/><circle cx="529.9" cy="229.5" r="3" fill="#f28e2b"/><circle cx="540.3" cy="230.8" r="3" fill="#f28e2b"/><circle cx="550.7" cy="232.0" r="3" fill="#f28e2b"/><circle cx="561.1" cy="229.5" r="3" fill="#f28e2b"/><circle cx="571.4" cy="229.5" r="3" fill="#f28e2b"/><circle cx="581.8" cy="232.0" r="3" fill="#f28e2b"/><circle cx="592.2" cy="230.8" r="3" fill="#f28e2b"/><circle cx="602.6" cy="230.8" r="3" fill="#f28e2b"/><circle cx="613.0" cy="228.3" r="3" fill="#f28e2b"/><circle cx="623.4" cy="230.8" r="3" fill="#f28e2b"/><circle cx="633.8" cy="229.5" r="3" fill="#f28e2b"/><circle cx="644.2" cy="229.5" r="3" fill="#f28e2b"/><circle cx="654.6" cy="230.8" r="3" fill="#f28e2b"/><circle cx="664.9" cy="229.5" r="3" fill="#f28e2b"/><circle cx="675.3" cy="229.5" r="3" fill="#f28e2b"/><circle cx="685.7" cy="230.8" r="3" fill="#f28e2b"/><circle cx="696.1" cy="229.5" r="3" fill="#f28e2b"/><circle cx="706.5" cy="229.5" r="3" fill="#f28e2b"/><circle cx="716.9" cy="228.3" r="3" fill="#f28e2b"/><circle cx="727.3" cy="232.0" r="3" fill="#f28e2b"/><circle cx="737.7" cy="230.8" r="3" fill="#f28e2b"/><circle cx="748.1" cy="230.8" r="3" fill="#f28e2b"/><circle cx="758.4" cy="229.5" r="3" fill="#f28e2b"/><circle cx="768.8" cy="230.8" r="3" fill="#f28e2b"/><circle cx="779.2" cy="230.8" r="3" fill="#f28e2b"/><circle cx="789.6" cy="230.8" r="3" fill="#f28e2b"/><circle cx="800.0" cy="230.8" r="3" fill="#f28e2b"/>

  <!-- axes -->
  <line x1="52" y1="28" x2="52" y2="232"
        stroke="#cccccc" stroke-width="1"/>
  <line x1="52" y1="232" x2="800" y2="232"
        stroke="#cccccc" stroke-width="1"/>

  <!-- y-axis labels -->
  <text x="47" y="236.0" text-anchor="end" font-size="10" fill="#57606a" font-family="ui-monospace, SFMono-Regular, 'SF Mono', Menlo, monospace">0</text><text x="47" y="198.7" text-anchor="end" font-size="10" fill="#57606a" font-family="ui-monospace, SFMono-Regular, 'SF Mono', Menlo, monospace">30</text><text x="47" y="161.4" text-anchor="end" font-size="10" fill="#57606a" font-family="ui-monospace, SFMono-Regular, 'SF Mono', Menlo, monospace">60</text><text x="47" y="124.0" text-anchor="end" font-size="10" fill="#57606a" font-family="ui-monospace, SFMono-Regular, 'SF Mono', Menlo, monospace">90</text><text x="47" y="86.7" text-anchor="end" font-size="10" fill="#57606a" font-family="ui-monospace, SFMono-Regular, 'SF Mono', Menlo, monospace">120</text><text x="47" y="49.4" text-anchor="end" font-size="10" fill="#57606a" font-family="ui-monospace, SFMono-Regular, 'SF Mono', Menlo, monospace">150</text><text x="47" y="12.1" text-anchor="end" font-size="10" fill="#57606a" font-family="ui-monospace, SFMono-Regular, 'SF Mono', Menlo, monospace">180</text>

  <!-- x-axis labels -->
  <text x="52.0" y="248" text-anchor="middle" font-size="10" fill="#8c959f" font-family="ui-monospace, SFMono-Regular, 'SF Mono', Menlo, monospace">05-11</text><text x="426.0" y="248" text-anchor="middle" font-size="10" fill="#8c959f" font-family="ui-monospace, SFMono-Regular, 'SF Mono', Menlo, monospace">06-16</text><text x="800.0" y="248" text-anchor="middle" font-size="10" fill="#8c959f" font-family="ui-monospace, SFMono-Regular, 'SF Mono', Menlo, monospace">07-22</text><text x="145.5" y="248" text-anchor="middle" font-size="10" fill="#8c959f" font-family="ui-monospace, SFMono-Regular, 'SF Mono', Menlo, monospace">05-20</text><text x="519.5" y="248" text-anchor="middle" font-size="10" fill="#8c959f" font-family="ui-monospace, SFMono-Regular, 'SF Mono', Menlo, monospace">06-25</text><text x="239.0" y="248" text-anchor="middle" font-size="10" fill="#8c959f" font-family="ui-monospace, SFMono-Regular, 'SF Mono', Menlo, monospace">05-29</text><text x="613.0" y="248" text-anchor="middle" font-size="10" fill="#8c959f" font-family="ui-monospace, SFMono-Regular, 'SF Mono', Menlo, monospace">07-04</text><text x="332.5" y="248" text-anchor="middle" font-size="10" fill="#8c959f" font-family="ui-monospace, SFMono-Regular, 'SF Mono', Menlo, monospace">06-07</text><text x="706.5" y="248" text-anchor="middle" font-size="10" fill="#8c959f" font-family="ui-monospace, SFMono-Regular, 'SF Mono', Menlo, monospace">07-13</text>

  <!-- legend -->
  <rect x="60" y="262" width="16" height="3" fill="#4e79a7" rx="1"/><text x="80" y="268" font-size="11" fill="#57606a" font-family="-apple-system, BlinkMacSystemFont, 'Segoe UI', sans-serif">Total clones (1,271)</text><line x1="230" y1="264" x2="246" y2="264" stroke="#f28e2b" stroke-width="2" stroke-dasharray="5,3"/><text x="250" y="268" font-size="11" fill="#57606a" font-family="-apple-system, BlinkMacSystemFont, 'Segoe UI', sans-serif">Unique cloners</text>

</svg>