<svg xmlns="http://www.w3.org/2000/svg" viewBox="0 0 820 280" width="820" height="280">

  <!-- title -->
  <text x="52" y="18" font-size="13" font-weight="600"
        fill="#24292f" font-family="-apple-system, BlinkMacSystemFont, 'Segoe UI', sans-serif"
        >Clone traffic — 500ad</text>
  <text x="800" y="18" font-size="10" fill="#8c959f"
        font-family="ui-monospace, SFMono-Regular, 'SF Mono', Menlo, monospace" text-anchor="end">2026-07-03</text>

  <!-- grid -->
  <line x1="52" y1="232.0" x2="800" y2="232.0" stroke="#e8e8e8" stroke-width="1"/><line x1="52" y1="194.7" x2="800" y2="194.7" stroke="#e8e8e8" stroke-width="1"/><line x1="52" y1="157.4" x2="800" y2="157.4" stroke="#e8e8e8" stroke-width="1"/><line x1="52" y1="120.0" x2="800" y2="120.0" stroke="#e8e8e8" stroke-width="1"/><line x1="52" y1="82.7" x2="800" y2="82.7" stroke="#e8e8e8" stroke-width="1"/><line x1="52" y1="45.4" x2="800" y2="45.4" stroke="#e8e8e8" stroke-width="1"/><line x1="52" y1="8.1" x2="800" y2="8.1" stroke="#e8e8e8" stroke-width="1"/>

  <!-- area fill -->
  <path d="M52.0,232.0 L52.0,232.0 L66.7,230.8 L81.3,229.5 L96.0,232.0 L110.7,232.0 L125.3,232.0 L140.0,232.0 L154.7,232.0 L169.3,228.3 L184.0,232.0 L198.7,229.5 L213.3,74.0 L228.0,100.1 L242.7,28.0 L257.3,217.1 L272.0,218.3 L286.7,232.0 L301.3,30.5 L316.0,193.4 L330.7,163.6 L345.3,225.8 L360.0,223.3 L374.7,225.8 L389.3,230.8 L404.0,232.0 L418.7,230.8 L433.3,105.1 L448.0,113.8 L462.7,229.5 L477.3,229.5 L492.0,225.8 L506.7,228.3 L521.3,203.4 L536.0,166.1 L550.7,225.8 L565.3,208.4 L580.0,230.8 L594.7,232.0 L609.3,122.5 L624.0,102.6 L638.7,222.0 L653.3,217.1 L668.0,230.8 L682.7,230.8 L697.3,229.5 L712.0,230.8 L726.7,229.5 L741.3,230.8 L756.0,232.0 L770.7,228.3 L785.3,229.5 L800.0,232.0 L800.0,232.0 L52.0,232.0Z" fill="#4e79a7" opacity="0.12"/>

  <!-- lines -->
  <polyline points="52.0,232.0 66.7,230.8 81.3,229.5 96.0,232.0 110.7,232.0 125.3,232.0 140.0,232.0 154.7,232.0 169.3,228.3 184.0,232.0 198.7,229.5 213.3,74.0 228.0,100.1 242.7,28.0 257.3,217.1 272.0,218.3 286.7,232.0 301.3,30.5 316.0,193.4 330.7,163.6 345.3,225.8 360.0,223.3 374.7,225.8 389.3,230.8 404.0,232.0 418.7,230.8 433.3,105.1 448.0,113.8 462.7,229.5 477.3,229.5 492.0,225.8 506.7,228.3 521.3,203.4 536.0,166.1 550.7,225.8 565.3,208.4 580.0,230.8 594.7,232.0 609.3,122.5 624.0,102.6 638.7,222.0 653.3,217.1 668.0,230.8 682.7,230.8 697.3,229.5 712.0,230.8 726.7,229.5 741.3,230.8 756.0,232.0 770.7,228.3 785.3,229.5 800.0,232.0"
            fill="none" stroke="#4e79a7"
            stroke-width="2" stroke-linejoin="round"/>
  <polyline points="52.0,232.0 66.7,230.8 81.3,229.5 96.0,232.0 110.7,232.0 125.3,232.0 140.0,232.0 154.7,232.0 169.3,229.5 184.0,232.0 198.7,229.5 213.3,177.3 228.0,156.1 242.7,125.0 257.3,228.3 272.0,228.3 286.7,232.0 301.3,147.4 316.0,210.9 330.7,210.9 345.3,227.0 360.0,228.3 374.7,229.5 389.3,230.8 404.0,232.0 418.7,230.8 433.3,183.5 448.0,186.0 462.7,230.8 477.3,229.5 492.0,228.3 506.7,228.3 521.3,219.6 536.0,218.3 550.7,229.5 565.3,228.3 580.0,230.8 594.7,232.0 609.3,207.1 624.0,210.9 638.7,229.5 653.3,228.3 668.0,230.8 682.7,230.8 697.3,229.5 712.0,230.8 726.7,229.5 741.3,230.8 756.0,232.0 770.7,229.5 785.3,229.5 800.0,232.0"
            fill="none" stroke="#f28e2b"
            stroke-width="2" stroke-linejoin="round"
            stroke-dasharray="5,3"/>

  <!-- dots -->
  <circle cx="52.0" cy="232.0" r="3" fill="#4e79a7"/><circle cx="66.7" cy="230.8" r="3" fill="#4e79a7"/><circle cx="81.3" cy="229.5" r="3" fill="#4e79a7"/><circle cx="96.0" cy="232.0" r="3" fill="#4e79a7"/><circle cx="110.7" cy="232.0" r="3" fill="#4e79a7"/><circle cx="125.3" cy="232.0" r="3" fill="#4e79a7"/><circle cx="140.0" cy="232.0" r="3" fill="#4e79a7"/><circle cx="154.7" cy="232.0" r="3" fill="#4e79a7"/><circle cx="169.3" cy="228.3" r="3" fill="#4e79a7"/><circle cx="184.0" cy="232.0" r="3" fill="#4e79a7"/><circle cx="198.7" cy="229.5" r="3" fill="#4e79a7"/><circle cx="213.3" cy="74.0" r="3" fill="#4e79a7"/><circle cx="228.0" cy="100.1" r="3" fill="#4e79a7"/><circle cx="242.7" cy="28.0" r="3" fill="#4e79a7"/><circle cx="257.3" cy="217.1" r="3" fill="#4e79a7"/><circle cx="272.0" cy="218.3" r="3" fill="#4e79a7"/><circle cx="286.7" cy="232.0" r="3" fill="#4e79a7"/><circle cx="301.3" cy="30.5" r="3" fill="#4e79a7"/><circle cx="316.0" cy="193.4" r="3" fill="#4e79a7"/><circle cx="330.7" cy="163.6" r="3" fill="#4e79a7"/><circle cx="345.3" cy="225.8" r="3" fill="#4e79a7"/><circle cx="360.0" cy="223.3" r="3" fill="#4e79a7"/><circle cx="374.7" cy="225.8" r="3" fill="#4e79a7"/><circle cx="389.3" cy="230.8" r="3" fill="#4e79a7"/><circle cx="404.0" cy="232.0" r="3" fill="#4e79a7"/><circle cx="418.7" cy="230.8" r="3" fill="#4e79a7"/><circle cx="433.3" cy="105.1" r="3" fill="#4e79a7"/><circle cx="448.0" cy="113.8" r="3" fill="#4e79a7"/><circle cx="462.7" cy="229.5" r="3" fill="#4e79a7"/><circle cx="477.3" cy="229.5" r="3" fill="#4e79a7"/><circle cx="492.0" cy="225.8" r="3" fill="#4e79a7"/><circle cx="506.7" cy="228.3" r="3" fill="#4e79a7"/><circle cx="521.3" cy="203.4" r="3" fill="#4e79a7"/><circle cx="536.0" cy="166.1" r="3" fill="#4e79a7"/><circle cx="550.7" cy="225.8" r="3" fill="#4e79a7"/><circle cx="565.3" cy="208.4" r="3" fill="#4e79a7"/><circle cx="580.0" cy="230.8" r="3" fill="#4e79a7"/><circle cx="594.7" cy="232.0" r="3" fill="#4e79a7"/><circle cx="609.3" cy="122.5" r="3" fill="#4e79a7"/><circle cx="624.0" cy="102.6" r="3" fill="#4e79a7"/><circle cx="638.7" cy="222.0" r="3" fill="#4e79a7"/><circle cx="653.3" cy="217.1" r="3" fill="#4e79a7"/><circle cx="668.0" cy="230.8" r="3" fill="#4e79a7"/><circle cx="682.7" cy="230.8" r="3" fill="#4e79a7"/><circle cx="697.3" cy="229.5" r="3" fill="#4e79a7"/><circle cx="712.0" cy="230.8" r="3" fill="#4e79a7"/><circle cx="726.7" cy="229.5" r="3" fill="#4e79a7"/><circle cx="741.3" cy="230.8" r="3" fill="#4e79a7"/><circle cx="756.0" cy="232.0" r="3" fill="#4e79a7"/><circle cx="770.7" cy="228.3" r="3" fill="#4e79a7"/><circle cx="785.3" cy="229.5" r="3" fill="#4e79a7"/><circle cx="800.0" cy="232.0" r="3" fill="#4e79a7"/>
  <circle cx="52.0" cy="232.0" r="3" fill="#f28e2b"/><circle cx="66.7" cy="230.8" r="3" fill="#f28e2b"/><circle cx="81.3" cy="229.5" r="3" fill="#f28e2b"/><circle cx="96.0" cy="232.0" r="3" fill="#f28e2b"/><circle cx="110.7" cy="232.0" r="3" fill="#f28e2b"/><circle cx="125.3" cy="232.0" r="3" fill="#f28e2b"/><circle cx="140.0" cy="232.0" r="3" fill="#f28e2b"/><circle cx="154.7" cy="232.0" r="3" fill="#f28e2b"/><circle cx="169.3" cy="229.5" r="3" fill="#f28e2b"/><circle cx="184.0" cy="232.0" r="3" fill="#f28e2b"/><circle cx="198.7" cy="229.5" r="3" fill="#f28e2b"/><circle cx="213.3" cy="177.3" r="3" fill="#f28e2b"/><circle cx="228.0" cy="156.1" r="3" fill="#f28e2b"/><circle cx="242.7" cy="125.0" r="3" fill="#f28e2b"/><circle cx="257.3" cy="228.3" r="3" fill="#f28e2b"/><circle cx="272.0" cy="228.3" r="3" fill="#f28e2b"/><circle cx="286.7" cy="232.0" r="3" fill="#f28e2b"/><circle cx="301.3" cy="147.4" r="3" fill="#f28e2b"/><circle cx="316.0" cy="210.9" r="3" fill="#f28e2b"/><circle cx="330.7" cy="210.9" r="3" fill="#f28e2b"/><circle cx="345.3" cy="227.0" r="3" fill="#f28e2b"/><circle cx="360.0" cy="228.3" r="3" fill="#f28e2b"/><circle cx="374.7" cy="229.5" r="3" fill="#f28e2b"/><circle cx="389.3" cy="230.8" r="3" fill="#f28e2b"/><circle cx="404.0" cy="232.0" r="3" fill="#f28e2b"/><circle cx="418.7" cy="230.8" r="3" fill="#f28e2b"/><circle cx="433.3" cy="183.5" r="3" fill="#f28e2b"/><circle cx="448.0" cy="186.0" r="3" fill="#f28e2b"/><circle cx="462.7" cy="230.8" r="3" fill="#f28e2b"/><circle cx="477.3" cy="229.5" r="3" fill="#f28e2b"/><circle cx="492.0" cy="228.3" r="3" fill="#f28e2b"/><circle cx="506.7" cy="228.3" r="3" fill="#f28e2b"/><circle cx="521.3" cy="219.6" r="3" fill="#f28e2b"/><circle cx="536.0" cy="218.3" r="3" fill="#f28e2b"/><circle cx="550.7" cy="229.5" r="3" fill="#f28e2b"/><circle cx="565.3" cy="228.3" r="3" fill="#f28e2b"/><circle cx="580.0" cy="230.8" r="3" fill="#f28e2b"/><circle cx="594.7" cy="232.0" r="3" fill="#f28e2b"/><circle cx="609.3" cy="207.1" r="3" fill="#f28e2b"/><circle cx="624.0" cy="210.9" r="3" fill="#f28e2b"/><circle cx="638.7" cy="229.5" r="3" fill="#f28e2b"/><circle cx="653.3" cy="228.3" r="3" fill="#f28e2b"/><circle cx="668.0" cy="230.8" r="3" fill="#f28e2b"/><circle cx="682.7" cy="230.8" r="3" fill="#f28e2b"/><circle cx="697.3" cy="229.5" r="3" fill="#f28e2b"/><circle cx="712.0" cy="230.8" r="3" fill="#f28e2b"/><circle cx="726.7" cy="229.5" r="3" fill="#f28e2b"/><circle cx="741.3" cy="230.8" r="3" fill="#f28e2b"/><circle cx="756.0" cy="232.0" r="3" fill="#f28e2b"/><circle cx="770.7" cy="229.5" r="3" fill="#f28e2b"/><circle cx="785.3" cy="229.5" r="3" fill="#f28e2b"/><circle cx="800.0" cy="232.0" r="3" fill="#f28e2b"/>

  <!-- axes -->
  <line x1="52" y1="28" x2="52" y2="232"
        stroke="#cccccc" stroke-width="1"/>
  <line x1="52" y1="232" x2="800" y2="232"
        stroke="#cccccc" stroke-width="1"/>

  <!-- y-axis labels -->
  <text x="47" y="236.0" text-anchor="end" font-size="10" fill="#57606a" font-family="ui-monospace, SFMono-Regular, 'SF Mono', Menlo, monospace">0</text><text x="47" y="198.7" text-anchor="end" font-size="10" fill="#57606a" font-family="ui-monospace, SFMono-Regular, 'SF Mono', Menlo, monospace">30</text><text x="47" y="161.4" text-anchor="end" font-size="10" fill="#57606a" font-family="ui-monospace, SFMono-Regular, 'SF Mono', Menlo, monospace">60</text><text x="47" y="124.0" text-anchor="end" font-size="10" fill="#57606a" font-family="ui-monospace, SFMono-Regular, 'SF Mono', Menlo, monospace">90</text><text x="47" y="86.7" text-anchor="end" font-size="10" fill="#57606a" font-family="ui-monospace, SFMono-Regular, 'SF Mono', Menlo, monospace">120</text><text x="47" y="49.4" text-anchor="end" font-size="10" fill="#57606a" font-family="ui-monospace, SFMono-Regular, 'SF Mono', Menlo, monospace">150</text><text x="47" y="12.1" text-anchor="end" font-size="10" fill="#57606a" font-family="ui-monospace, SFMono-Regular, 'SF Mono', Menlo, monospace">180</text>

  <!-- x-axis labels -->
  <text x="52.0" y="248" text-anchor="middle" font-size="10" fill="#8c959f" font-family="ui-monospace, SFMono-Regular, 'SF Mono', Menlo, monospace">05-11</text><text x="580.0" y="248" text-anchor="middle" font-size="10" fill="#8c959f" font-family="ui-monospace, SFMono-Regular, 'SF Mono', Menlo, monospace">06-16</text><text x="140.0" y="248" text-anchor="middle" font-size="10" fill="#8c959f" font-family="ui-monospace, SFMono-Regular, 'SF Mono', Menlo, monospace">05-17</text><text x="668.0" y="248" text-anchor="middle" font-size="10" fill="#8c959f" font-family="ui-monospace, SFMono-Regular, 'SF Mono', Menlo, monospace">06-22</text><text x="228.0" y="248" text-anchor="middle" font-size="10" fill="#8c959f" font-family="ui-monospace, SFMono-Regular, 'SF Mono', Menlo, monospace">05-23</text><text x="756.0" y="248" text-anchor="middle" font-size="10" fill="#8c959f" font-family="ui-monospace, SFMono-Regular, 'SF Mono', Menlo, monospace">06-28</text><text x="316.0" y="248" text-anchor="middle" font-size="10" fill="#8c959f" font-family="ui-monospace, SFMono-Regular, 'SF Mono', Menlo, monospace">05-29</text><text x="800.0" y="248" text-anchor="middle" font-size="10" fill="#8c959f" font-family="ui-monospace, SFMono-Regular, 'SF Mono', Menlo, monospace">07-01</text><text x="404.0" y="248" text-anchor="middle" font-size="10" fill="#8c959f" font-family="ui-monospace, SFMono-Regular, 'SF Mono', Menlo, monospace">06-04</text><text x="492.0" y="248" text-anchor="middle" font-size="10" fill="#8c959f" font-family="ui-monospace, SFMono-Regular, 'SF Mono', Menlo, monospace">06-10</text>

  <!-- legend -->
  <rect x="60" y="262" width="16" height="3" fill="#4e79a7" rx="1"/><text x="80" y="268" font-size="11" fill="#57606a" font-family="-apple-system, BlinkMacSystemFont, 'Segoe UI', sans-serif">Total clones (1,230)</text><line x1="230" y1="264" x2="246" y2="264" stroke="#f28e2b" stroke-width="2" stroke-dasharray="5,3"/><text x="250" y="268" font-size="11" fill="#57606a" font-family="-apple-system, BlinkMacSystemFont, 'Segoe UI', sans-serif">Unique cloners</text>

</svg>