<svg xmlns="http://www.w3.org/2000/svg" viewBox="0 0 820 280" width="820" height="280">

  <!-- title -->
  <text x="52" y="18" font-size="13" font-weight="600"
        fill="#24292f" font-family="-apple-system, BlinkMacSystemFont, 'Segoe UI', sans-serif"
        >Clone traffic — 500ad</text>
  <text x="800" y="18" font-size="10" fill="#8c959f"
        font-family="ui-monospace, SFMono-Regular, 'SF Mono', Menlo, monospace" text-anchor="end">2026-06-04</text>

  <!-- grid -->
  <line x1="52" y1="232.0" x2="800" y2="232.0" stroke="#e8e8e8" stroke-width="1"/><line x1="52" y1="194.7" x2="800" y2="194.7" stroke="#e8e8e8" stroke-width="1"/><line x1="52" y1="157.4" x2="800" y2="157.4" stroke="#e8e8e8" stroke-width="1"/><line x1="52" y1="120.0" x2="800" y2="120.0" stroke="#e8e8e8" stroke-width="1"/><line x1="52" y1="82.7" x2="800" y2="82.7" stroke="#e8e8e8" stroke-width="1"/><line x1="52" y1="45.4" x2="800" y2="45.4" stroke="#e8e8e8" stroke-width="1"/><line x1="52" y1="8.1" x2="800" y2="8.1" stroke="#e8e8e8" stroke-width="1"/>

  <!-- area fill -->
  <path d="M52.0,232.0 L52.0,232.0 L86.0,230.8 L120.0,229.5 L154.0,232.0 L188.0,232.0 L222.0,232.0 L256.0,232.0 L290.0,232.0 L324.0,228.3 L358.0,232.0 L392.0,229.5 L426.0,74.0 L460.0,100.1 L494.0,28.0 L528.0,217.1 L562.0,218.3 L596.0,232.0 L630.0,30.5 L664.0,193.4 L698.0,163.6 L732.0,225.8 L766.0,223.3 L800.0,225.8 L800.0,232.0 L52.0,232.0Z" fill="#4e79a7" opacity="0.12"/>

  <!-- lines -->
  <polyline points="52.0,232.0 86.0,230.8 120.0,229.5 154.0,232.0 188.0,232.0 222.0,232.0 256.0,232.0 290.0,232.0 324.0,228.3 358.0,232.0 392.0,229.5 426.0,74.0 460.0,100.1 494.0,28.0 528.0,217.1 562.0,218.3 596.0,232.0 630.0,30.5 664.0,193.4 698.0,163.6 732.0,225.8 766.0,223.3 800.0,225.8"
            fill="none" stroke="#4e79a7"
            stroke-width="2" stroke-linejoin="round"/>
  <polyline points="52.0,232.0 86.0,230.8 120.0,229.5 154.0,232.0 188.0,232.0 222.0,232.0 256.0,232.0 290.0,232.0 324.0,229.5 358.0,232.0 392.0,229.5 426.0,177.3 460.0,156.1 494.0,125.0 528.0,228.3 562.0,228.3 596.0,232.0 630.0,147.4 664.0,210.9 698.0,210.9 732.0,227.0 766.0,228.3 800.0,229.5"
            fill="none" stroke="#f28e2b"
            stroke-width="2" stroke-linejoin="round"
            stroke-dasharray="5,3"/>

  <!-- dots -->
  <circle cx="52.0" cy="232.0" r="3" fill="#4e79a7"/><circle cx="86.0" cy="230.8" r="3" fill="#4e79a7"/><circle cx="120.0" cy="229.5" r="3" fill="#4e79a7"/><circle cx="154.0" cy="232.0" r="3" fill="#4e79a7"/><circle cx="188.0" cy="232.0" r="3" fill="#4e79a7"/><circle cx="222.0" cy="232.0" r="3" fill="#4e79a7"/><circle cx="256.0" cy="232.0" r="3" fill="#4e79a7"/><circle cx="290.0" cy="232.0" r="3" fill="#4e79a7"/><circle cx="324.0" cy="228.3" r="3" fill="#4e79a7"/><circle cx="358.0" cy="232.0" r="3" fill="#4e79a7"/><circle cx="392.0" cy="229.5" r="3" fill="#4e79a7"/><circle cx="426.0" cy="74.0" r="3" fill="#4e79a7"/><circle cx="460.0" cy="100.1" r="3" fill="#4e79a7"/><circle cx="494.0" cy="28.0" r="3" fill="#4e79a7"/><circle cx="528.0" cy="217.1" r="3" fill="#4e79a7"/><circle cx="562.0" cy="218.3" r="3" fill="#4e79a7"/><circle cx="596.0" cy="232.0" r="3" fill="#4e79a7"/><circle cx="630.0" cy="30.5" r="3" fill="#4e79a7"/><circle cx="664.0" cy="193.4" r="3" fill="#4e79a7"/><circle cx="698.0" cy="163.6" r="3" fill="#4e79a7"/><circle cx="732.0" cy="225.8" r="3" fill="#4e79a7"/><circle cx="766.0" cy="223.3" r="3" fill="#4e79a7"/><circle cx="800.0" cy="225.8" r="3" fill="#4e79a7"/>
  <circle cx="52.0" cy="232.0" r="3" fill="#f28e2b"/><circle cx="86.0" cy="230.8" r="3" fill="#f28e2b"/><circle cx="120.0" cy="229.5" r="3" fill="#f28e2b"/><circle cx="154.0" cy="232.0" r="3" fill="#f28e2b"/><circle cx="188.0" cy="232.0" r="3" fill="#f28e2b"/><circle cx="222.0" cy="232.0" r="3" fill="#f28e2b"/><circle cx="256.0" cy="232.0" r="3" fill="#f28e2b"/><circle cx="290.0" cy="232.0" r="3" fill="#f28e2b"/><circle cx="324.0" cy="229.5" r="3" fill="#f28e2b"/><circle cx="358.0" cy="232.0" r="3" fill="#f28e2b"/><circle cx="392.0" cy="229.5" r="3" fill="#f28e2b"/><circle cx="426.0" cy="177.3" r="3" fill="#f28e2b"/><circle cx="460.0" cy="156.1" r="3" fill="#f28e2b"/><circle cx="494.0" cy="125.0" r="3" fill="#f28e2b"/><circle cx="528.0" cy="228.3" r="3" fill="#f28e2b"/><circle cx="562.0" cy="228.3" r="3" fill="#f28e2b"/><circle cx="596.0" cy="232.0" r="3" fill="#f28e2b"/><circle cx="630.0" cy="147.4" r="3" fill="#f28e2b"/><circle cx="664.0" cy="210.9" r="3" fill="#f28e2b"/><circle cx="698.0" cy="210.9" r="3" fill="#f28e2b"/><circle cx="732.0" cy="227.0" r="3" fill="#f28e2b"/><circle cx="766.0" cy="228.3" r="3" fill="#f28e2b"/><circle cx="800.0" cy="229.5" r="3" fill="#f28e2b"/>

  <!-- axes -->
  <line x1="52" y1="28" x2="52" y2="232"
        stroke="#cccccc" stroke-width="1"/>
  <line x1="52" y1="232" x2="800" y2="232"
        stroke="#cccccc" stroke-width="1"/>

  <!-- y-axis labels -->
  <text x="47" y="236.0" text-anchor="end" font-size="10" fill="#57606a" font-family="ui-monospace, SFMono-Regular, 'SF Mono', Menlo, monospace">0</text><text x="47" y="198.7" text-anchor="end" font-size="10" fill="#57606a" font-family="ui-monospace, SFMono-Regular, 'SF Mono', Menlo, monospace">30</text><text x="47" y="161.4" text-anchor="end" font-size="10" fill="#57606a" font-family="ui-monospace, SFMono-Regular, 'SF Mono', Menlo, monospace">60</text><text x="47" y="124.0" text-anchor="end" font-size="10" fill="#57606a" font-family="ui-monospace, SFMono-Regular, 'SF Mono', Menlo, monospace">90</text><text x="47" y="86.7" text-anchor="end" font-size="10" fill="#57606a" font-family="ui-monospace, SFMono-Regular, 'SF Mono', Menlo, monospace">120</text><text x="47" y="49.4" text-anchor="end" font-size="10" fill="#57606a" font-family="ui-monospace, SFMono-Regular, 'SF Mono', Menlo, monospace">150</text><text x="47" y="12.1" text-anchor="end" font-size="10" fill="#57606a" font-family="ui-monospace, SFMono-Regular, 'SF Mono', Menlo, monospace">180</text>

  <!-- x-axis labels -->
  <text x="52.0" y="248" text-anchor="middle" font-size="10" fill="#8c959f" font-family="ui-monospace, SFMono-Regular, 'SF Mono', Menlo, monospace">05-11</text><text x="120.0" y="248" text-anchor="middle" font-size="10" fill="#8c959f" font-family="ui-monospace, SFMono-Regular, 'SF Mono', Menlo, monospace">05-13</text><text x="188.0" y="248" text-anchor="middle" font-size="10" fill="#8c959f" font-family="ui-monospace, SFMono-Regular, 'SF Mono', Menlo, monospace">05-15</text><text x="256.0" y="248" text-anchor="middle" font-size="10" fill="#8c959f" font-family="ui-monospace, SFMono-Regular, 'SF Mono', Menlo, monospace">05-17</text><text x="324.0" y="248" text-anchor="middle" font-size="10" fill="#8c959f" font-family="ui-monospace, SFMono-Regular, 'SF Mono', Menlo, monospace">05-19</text><text x="392.0" y="248" text-anchor="middle" font-size="10" fill="#8c959f" font-family="ui-monospace, SFMono-Regular, 'SF Mono', Menlo, monospace">05-21</text><text x="460.0" y="248" text-anchor="middle" font-size="10" fill="#8c959f" font-family="ui-monospace, SFMono-Regular, 'SF Mono', Menlo, monospace">05-23</text><text x="528.0" y="248" text-anchor="middle" font-size="10" fill="#8c959f" font-family="ui-monospace, SFMono-Regular, 'SF Mono', Menlo, monospace">05-25</text><text x="596.0" y="248" text-anchor="middle" font-size="10" fill="#8c959f" font-family="ui-monospace, SFMono-Regular, 'SF Mono', Menlo, monospace">05-27</text><text x="664.0" y="248" text-anchor="middle" font-size="10" fill="#8c959f" font-family="ui-monospace, SFMono-Regular, 'SF Mono', Menlo, monospace">05-29</text><text x="732.0" y="248" text-anchor="middle" font-size="10" fill="#8c959f" font-family="ui-monospace, SFMono-Regular, 'SF Mono', Menlo, monospace">05-31</text><text x="800.0" y="248" text-anchor="middle" font-size="10" fill="#8c959f" font-family="ui-monospace, SFMono-Regular, 'SF Mono', Menlo, monospace">06-02</text>

  <!-- legend -->
  <rect x="60" y="262" width="16" height="3" fill="#4e79a7" rx="1"/><text x="80" y="268" font-size="11" fill="#57606a" font-family="-apple-system, BlinkMacSystemFont, 'Segoe UI', sans-serif">Total clones (693)</text><line x1="230" y1="264" x2="246" y2="264" stroke="#f28e2b" stroke-width="2" stroke-dasharray="5,3"/><text x="250" y="268" font-size="11" fill="#57606a" font-family="-apple-system, BlinkMacSystemFont, 'Segoe UI', sans-serif">Unique cloners</text>

</svg>