<svg xmlns="http://www.w3.org/2000/svg" viewBox="0 0 820 280" width="820" height="280">

  <!-- title -->
  <text x="52" y="18" font-size="13" font-weight="600"
        fill="#24292f" font-family="-apple-system, BlinkMacSystemFont, 'Segoe UI', sans-serif"
        >Clone traffic — 500ad</text>
  <text x="800" y="18" font-size="10" fill="#8c959f"
        font-family="ui-monospace, SFMono-Regular, 'SF Mono', Menlo, monospace" text-anchor="end">2026-06-14</text>

  <!-- grid -->
  <line x1="52" y1="232.0" x2="800" y2="232.0" stroke="#e8e8e8" stroke-width="1"/><line x1="52" y1="194.7" x2="800" y2="194.7" stroke="#e8e8e8" stroke-width="1"/><line x1="52" y1="157.4" x2="800" y2="157.4" stroke="#e8e8e8" stroke-width="1"/><line x1="52" y1="120.0" x2="800" y2="120.0" stroke="#e8e8e8" stroke-width="1"/><line x1="52" y1="82.7" x2="800" y2="82.7" stroke="#e8e8e8" stroke-width="1"/><line x1="52" y1="45.4" x2="800" y2="45.4" stroke="#e8e8e8" stroke-width="1"/><line x1="52" y1="8.1" x2="800" y2="8.1" stroke="#e8e8e8" stroke-width="1"/>

  <!-- area fill -->
  <path d="M52.0,232.0 L52.0,232.0 L75.4,230.8 L98.8,229.5 L122.1,232.0 L145.5,232.0 L168.9,232.0 L192.2,232.0 L215.6,232.0 L239.0,228.3 L262.4,232.0 L285.8,229.5 L309.1,74.0 L332.5,100.1 L355.9,28.0 L379.2,217.1 L402.6,218.3 L426.0,232.0 L449.4,30.5 L472.8,193.4 L496.1,163.6 L519.5,225.8 L542.9,223.3 L566.2,225.8 L589.6,230.8 L613.0,232.0 L636.4,230.8 L659.8,105.1 L683.1,113.8 L706.5,229.5 L729.9,229.5 L753.2,225.8 L776.6,228.3 L800.0,203.4 L800.0,232.0 L52.0,232.0Z" fill="#4e79a7" opacity="0.12"/>

  <!-- lines -->
  <polyline points="52.0,232.0 75.4,230.8 98.8,229.5 122.1,232.0 145.5,232.0 168.9,232.0 192.2,232.0 215.6,232.0 239.0,228.3 262.4,232.0 285.8,229.5 309.1,74.0 332.5,100.1 355.9,28.0 379.2,217.1 402.6,218.3 426.0,232.0 449.4,30.5 472.8,193.4 496.1,163.6 519.5,225.8 542.9,223.3 566.2,225.8 589.6,230.8 613.0,232.0 636.4,230.8 659.8,105.1 683.1,113.8 706.5,229.5 729.9,229.5 753.2,225.8 776.6,228.3 800.0,203.4"
            fill="none" stroke="#4e79a7"
            stroke-width="2" stroke-linejoin="round"/>
  <polyline points="52.0,232.0 75.4,230.8 98.8,229.5 122.1,232.0 145.5,232.0 168.9,232.0 192.2,232.0 215.6,232.0 239.0,229.5 262.4,232.0 285.8,229.5 309.1,177.3 332.5,156.1 355.9,125.0 379.2,228.3 402.6,228.3 426.0,232.0 449.4,147.4 472.8,210.9 496.1,210.9 519.5,227.0 542.9,228.3 566.2,229.5 589.6,230.8 613.0,232.0 636.4,230.8 659.8,183.5 683.1,186.0 706.5,230.8 729.9,229.5 753.2,228.3 776.6,228.3 800.0,219.6"
            fill="none" stroke="#f28e2b"
            stroke-width="2" stroke-linejoin="round"
            stroke-dasharray="5,3"/>

  <!-- dots -->
  <circle cx="52.0" cy="232.0" r="3" fill="#4e79a7"/><circle cx="75.4" cy="230.8" r="3" fill="#4e79a7"/><circle cx="98.8" cy="229.5" r="3" fill="#4e79a7"/><circle cx="122.1" cy="232.0" r="3" fill="#4e79a7"/><circle cx="145.5" cy="232.0" r="3" fill="#4e79a7"/><circle cx="168.9" cy="232.0" r="3" fill="#4e79a7"/><circle cx="192.2" cy="232.0" r="3" fill="#4e79a7"/><circle cx="215.6" cy="232.0" r="3" fill="#4e79a7"/><circle cx="239.0" cy="228.3" r="3" fill="#4e79a7"/><circle cx="262.4" cy="232.0" r="3" fill="#4e79a7"/><circle cx="285.8" cy="229.5" r="3" fill="#4e79a7"/><circle cx="309.1" cy="74.0" r="3" fill="#4e79a7"/><circle cx="332.5" cy="100.1" r="3" fill="#4e79a7"/><circle cx="355.9" cy="28.0" r="3" fill="#4e79a7"/><circle cx="379.2" cy="217.1" r="3" fill="#4e79a7"/><circle cx="402.6" cy="218.3" r="3" fill="#4e79a7"/><circle cx="426.0" cy="232.0" r="3" fill="#4e79a7"/><circle cx="449.4" cy="30.5" r="3" fill="#4e79a7"/><circle cx="472.8" cy="193.4" r="3" fill="#4e79a7"/><circle cx="496.1" cy="163.6" r="3" fill="#4e79a7"/><circle cx="519.5" cy="225.8" r="3" fill="#4e79a7"/><circle cx="542.9" cy="223.3" r="3" fill="#4e79a7"/><circle cx="566.2" cy="225.8" r="3" fill="#4e79a7"/><circle cx="589.6" cy="230.8" r="3" fill="#4e79a7"/><circle cx="613.0" cy="232.0" r="3" fill="#4e79a7"/><circle cx="636.4" cy="230.8" r="3" fill="#4e79a7"/><circle cx="659.8" cy="105.1" r="3" fill="#4e79a7"/><circle cx="683.1" cy="113.8" r="3" fill="#4e79a7"/><circle cx="706.5" cy="229.5" r="3" fill="#4e79a7"/><circle cx="729.9" cy="229.5" r="3" fill="#4e79a7"/><circle cx="753.2" cy="225.8" r="3" fill="#4e79a7"/><circle cx="776.6" cy="228.3" r="3" fill="#4e79a7"/><circle cx="800.0" cy="203.4" r="3" fill="#4e79a7"/>
  <circle cx="52.0" cy="232.0" r="3" fill="#f28e2b"/><circle cx="75.4" cy="230.8" r="3" fill="#f28e2b"/><circle cx="98.8" cy="229.5" r="3" fill="#f28e2b"/><circle cx="122.1" cy="232.0" r="3" fill="#f28e2b"/><circle cx="145.5" cy="232.0" r="3" fill="#f28e2b"/><circle cx="168.9" cy="232.0" r="3" fill="#f28e2b"/><circle cx="192.2" cy="232.0" r="3" fill="#f28e2b"/><circle cx="215.6" cy="232.0" r="3" fill="#f28e2b"/><circle cx="239.0" cy="229.5" r="3" fill="#f28e2b"/><circle cx="262.4" cy="232.0" r="3" fill="#f28e2b"/><circle cx="285.8" cy="229.5" r="3" fill="#f28e2b"/><circle cx="309.1" cy="177.3" r="3" fill="#f28e2b"/><circle cx="332.5" cy="156.1" r="3" fill="#f28e2b"/><circle cx="355.9" cy="125.0" r="3" fill="#f28e2b"/><circle cx="379.2" cy="228.3" r="3" fill="#f28e2b"/><circle cx="402.6" cy="228.3" r="3" fill="#f28e2b"/><circle cx="426.0" cy="232.0" r="3" fill="#f28e2b"/><circle cx="449.4" cy="147.4" r="3" fill="#f28e2b"/><circle cx="472.8" cy="210.9" r="3" fill="#f28e2b"/><circle cx="496.1" cy="210.9" r="3" fill="#f28e2b"/><circle cx="519.5" cy="227.0" r="3" fill="#f28e2b"/><circle cx="542.9" cy="228.3" r="3" fill="#f28e2b"/><circle cx="566.2" cy="229.5" r="3" fill="#f28e2b"/><circle cx="589.6" cy="230.8" r="3" fill="#f28e2b"/><circle cx="613.0" cy="232.0" r="3" fill="#f28e2b"/><circle cx="636.4" cy="230.8" r="3" fill="#f28e2b"/><circle cx="659.8" cy="183.5" r="3" fill="#f28e2b"/><circle cx="683.1" cy="186.0" r="3" fill="#f28e2b"/><circle cx="706.5" cy="230.8" r="3" fill="#f28e2b"/><circle cx="729.9" cy="229.5" r="3" fill="#f28e2b"/><circle cx="753.2" cy="228.3" r="3" fill="#f28e2b"/><circle cx="776.6" cy="228.3" r="3" fill="#f28e2b"/><circle cx="800.0" cy="219.6" r="3" fill="#f28e2b"/>

  <!-- axes -->
  <line x1="52" y1="28" x2="52" y2="232"
        stroke="#cccccc" stroke-width="1"/>
  <line x1="52" y1="232" x2="800" y2="232"
        stroke="#cccccc" stroke-width="1"/>

  <!-- y-axis labels -->
  <text x="47" y="236.0" text-anchor="end" font-size="10" fill="#57606a" font-family="ui-monospace, SFMono-Regular, 'SF Mono', Menlo, monospace">0</text><text x="47" y="198.7" text-anchor="end" font-size="10" fill="#57606a" font-family="ui-monospace, SFMono-Regular, 'SF Mono', Menlo, monospace">30</text><text x="47" y="161.4" text-anchor="end" font-size="10" fill="#57606a" font-family="ui-monospace, SFMono-Regular, 'SF Mono', Menlo, monospace">60</text><text x="47" y="124.0" text-anchor="end" font-size="10" fill="#57606a" font-family="ui-monospace, SFMono-Regular, 'SF Mono', Menlo, monospace">90</text><text x="47" y="86.7" text-anchor="end" font-size="10" fill="#57606a" font-family="ui-monospace, SFMono-Regular, 'SF Mono', Menlo, monospace">120</text><text x="47" y="49.4" text-anchor="end" font-size="10" fill="#57606a" font-family="ui-monospace, SFMono-Regular, 'SF Mono', Menlo, monospace">150</text><text x="47" y="12.1" text-anchor="end" font-size="10" fill="#57606a" font-family="ui-monospace, SFMono-Regular, 'SF Mono', Menlo, monospace">180</text>

  <!-- x-axis labels -->
  <text x="52.0" y="248" text-anchor="middle" font-size="10" fill="#8c959f" font-family="ui-monospace, SFMono-Regular, 'SF Mono', Menlo, monospace">05-11</text><text x="800.0" y="248" text-anchor="middle" font-size="10" fill="#8c959f" font-family="ui-monospace, SFMono-Regular, 'SF Mono', Menlo, monospace">06-12</text><text x="145.5" y="248" text-anchor="middle" font-size="10" fill="#8c959f" font-family="ui-monospace, SFMono-Regular, 'SF Mono', Menlo, monospace">05-15</text><text x="239.0" y="248" text-anchor="middle" font-size="10" fill="#8c959f" font-family="ui-monospace, SFMono-Regular, 'SF Mono', Menlo, monospace">05-19</text><text x="332.5" y="248" text-anchor="middle" font-size="10" fill="#8c959f" font-family="ui-monospace, SFMono-Regular, 'SF Mono', Menlo, monospace">05-23</text><text x="426.0" y="248" text-anchor="middle" font-size="10" fill="#8c959f" font-family="ui-monospace, SFMono-Regular, 'SF Mono', Menlo, monospace">05-27</text><text x="519.5" y="248" text-anchor="middle" font-size="10" fill="#8c959f" font-family="ui-monospace, SFMono-Regular, 'SF Mono', Menlo, monospace">05-31</text><text x="613.0" y="248" text-anchor="middle" font-size="10" fill="#8c959f" font-family="ui-monospace, SFMono-Regular, 'SF Mono', Menlo, monospace">06-04</text><text x="706.5" y="248" text-anchor="middle" font-size="10" fill="#8c959f" font-family="ui-monospace, SFMono-Regular, 'SF Mono', Menlo, monospace">06-08</text>

  <!-- legend -->
  <rect x="60" y="262" width="16" height="3" fill="#4e79a7" rx="1"/><text x="80" y="268" font-size="11" fill="#57606a" font-family="-apple-system, BlinkMacSystemFont, 'Segoe UI', sans-serif">Total clones (927)</text><line x1="230" y1="264" x2="246" y2="264" stroke="#f28e2b" stroke-width="2" stroke-dasharray="5,3"/><text x="250" y="268" font-size="11" fill="#57606a" font-family="-apple-system, BlinkMacSystemFont, 'Segoe UI', sans-serif">Unique cloners</text>

</svg>