<svg xmlns="http://www.w3.org/2000/svg" viewBox="0 0 820 280" width="820" height="280">

  <!-- title -->
  <text x="52" y="18" font-size="13" font-weight="600"
        fill="#24292f" font-family="-apple-system, BlinkMacSystemFont, 'Segoe UI', sans-serif"
        >Clone traffic — 500ad</text>
  <text x="800" y="18" font-size="10" fill="#8c959f"
        font-family="ui-monospace, SFMono-Regular, 'SF Mono', Menlo, monospace" text-anchor="end">2026-07-05</text>

  <!-- grid -->
  <line x1="52" y1="232.0" x2="800" y2="232.0" stroke="#e8e8e8" stroke-width="1"/><line x1="52" y1="194.7" x2="800" y2="194.7" stroke="#e8e8e8" stroke-width="1"/><line x1="52" y1="157.4" x2="800" y2="157.4" stroke="#e8e8e8" stroke-width="1"/><line x1="52" y1="120.0" x2="800" y2="120.0" stroke="#e8e8e8" stroke-width="1"/><line x1="52" y1="82.7" x2="800" y2="82.7" stroke="#e8e8e8" stroke-width="1"/><line x1="52" y1="45.4" x2="800" y2="45.4" stroke="#e8e8e8" stroke-width="1"/><line x1="52" y1="8.1" x2="800" y2="8.1" stroke="#e8e8e8" stroke-width="1"/>

  <!-- area fill -->
  <path d="M52.0,232.0 L52.0,232.0 L66.1,230.8 L80.2,229.5 L94.3,232.0 L108.5,232.0 L122.6,232.0 L136.7,232.0 L150.8,232.0 L164.9,228.3 L179.0,232.0 L193.1,229.5 L207.2,74.0 L221.4,100.1 L235.5,28.0 L249.6,217.1 L263.7,218.3 L277.8,232.0 L291.9,30.5 L306.0,193.4 L320.2,163.6 L334.3,225.8 L348.4,223.3 L362.5,225.8 L376.6,230.8 L390.7,232.0 L404.8,230.8 L418.9,105.1 L433.1,113.8 L447.2,229.5 L461.3,229.5 L475.4,225.8 L489.5,228.3 L503.6,203.4 L517.7,166.1 L531.8,225.8 L546.0,208.4 L560.1,230.8 L574.2,232.0 L588.3,122.5 L602.4,102.6 L616.5,222.0 L630.6,217.1 L644.8,230.8 L658.9,230.8 L673.0,229.5 L687.1,230.8 L701.2,229.5 L715.3,230.8 L729.4,232.0 L743.5,228.3 L757.7,229.5 L771.8,232.0 L785.9,230.8 L800.0,230.8 L800.0,232.0 L52.0,232.0Z" fill="#4e79a7" opacity="0.12"/>

  <!-- lines -->
  <polyline points="52.0,232.0 66.1,230.8 80.2,229.5 94.3,232.0 108.5,232.0 122.6,232.0 136.7,232.0 150.8,232.0 164.9,228.3 179.0,232.0 193.1,229.5 207.2,74.0 221.4,100.1 235.5,28.0 249.6,217.1 263.7,218.3 277.8,232.0 291.9,30.5 306.0,193.4 320.2,163.6 334.3,225.8 348.4,223.3 362.5,225.8 376.6,230.8 390.7,232.0 404.8,230.8 418.9,105.1 433.1,113.8 447.2,229.5 461.3,229.5 475.4,225.8 489.5,228.3 503.6,203.4 517.7,166.1 531.8,225.8 546.0,208.4 560.1,230.8 574.2,232.0 588.3,122.5 602.4,102.6 616.5,222.0 630.6,217.1 644.8,230.8 658.9,230.8 673.0,229.5 687.1,230.8 701.2,229.5 715.3,230.8 729.4,232.0 743.5,228.3 757.7,229.5 771.8,232.0 785.9,230.8 800.0,230.8"
            fill="none" stroke="#4e79a7"
            stroke-width="2" stroke-linejoin="round"/>
  <polyline points="52.0,232.0 66.1,230.8 80.2,229.5 94.3,232.0 108.5,232.0 122.6,232.0 136.7,232.0 150.8,232.0 164.9,229.5 179.0,232.0 193.1,229.5 207.2,177.3 221.4,156.1 235.5,125.0 249.6,228.3 263.7,228.3 277.8,232.0 291.9,147.4 306.0,210.9 320.2,210.9 334.3,227.0 348.4,228.3 362.5,229.5 376.6,230.8 390.7,232.0 404.8,230.8 418.9,183.5 433.1,186.0 447.2,230.8 461.3,229.5 475.4,228.3 489.5,228.3 503.6,219.6 517.7,218.3 531.8,229.5 546.0,228.3 560.1,230.8 574.2,232.0 588.3,207.1 602.4,210.9 616.5,229.5 630.6,228.3 644.8,230.8 658.9,230.8 673.0,229.5 687.1,230.8 701.2,229.5 715.3,230.8 729.4,232.0 743.5,229.5 757.7,229.5 771.8,232.0 785.9,230.8 800.0,230.8"
            fill="none" stroke="#f28e2b"
            stroke-width="2" stroke-linejoin="round"
            stroke-dasharray="5,3"/>

  <!-- dots -->
  <circle cx="52.0" cy="232.0" r="3" fill="#4e79a7"/><circle cx="66.1" cy="230.8" r="3" fill="#4e79a7"/><circle cx="80.2" cy="229.5" r="3" fill="#4e79a7"/><circle cx="94.3" cy="232.0" r="3" fill="#4e79a7"/><circle cx="108.5" cy="232.0" r="3" fill="#4e79a7"/><circle cx="122.6" cy="232.0" r="3" fill="#4e79a7"/><circle cx="136.7" cy="232.0" r="3" fill="#4e79a7"/><circle cx="150.8" cy="232.0" r="3" fill="#4e79a7"/><circle cx="164.9" cy="228.3" r="3" fill="#4e79a7"/><circle cx="179.0" cy="232.0" r="3" fill="#4e79a7"/><circle cx="193.1" cy="229.5" r="3" fill="#4e79a7"/><circle cx="207.2" cy="74.0" r="3" fill="#4e79a7"/><circle cx="221.4" cy="100.1" r="3" fill="#4e79a7"/><circle cx="235.5" cy="28.0" r="3" fill="#4e79a7"/><circle cx="249.6" cy="217.1" r="3" fill="#4e79a7"/><circle cx="263.7" cy="218.3" r="3" fill="#4e79a7"/><circle cx="277.8" cy="232.0" r="3" fill="#4e79a7"/><circle cx="291.9" cy="30.5" r="3" fill="#4e79a7"/><circle cx="306.0" cy="193.4" r="3" fill="#4e79a7"/><circle cx="320.2" cy="163.6" r="3" fill="#4e79a7"/><circle cx="334.3" cy="225.8" r="3" fill="#4e79a7"/><circle cx="348.4" cy="223.3" r="3" fill="#4e79a7"/><circle cx="362.5" cy="225.8" r="3" fill="#4e79a7"/><circle cx="376.6" cy="230.8" r="3" fill="#4e79a7"/><circle cx="390.7" cy="232.0" r="3" fill="#4e79a7"/><circle cx="404.8" cy="230.8" r="3" fill="#4e79a7"/><circle cx="418.9" cy="105.1" r="3" fill="#4e79a7"/><circle cx="433.1" cy="113.8" r="3" fill="#4e79a7"/><circle cx="447.2" cy="229.5" r="3" fill="#4e79a7"/><circle cx="461.3" cy="229.5" r="3" fill="#4e79a7"/><circle cx="475.4" cy="225.8" r="3" fill="#4e79a7"/><circle cx="489.5" cy="228.3" r="3" fill="#4e79a7"/><circle cx="503.6" cy="203.4" r="3" fill="#4e79a7"/><circle cx="517.7" cy="166.1" r="3" fill="#4e79a7"/><circle cx="531.8" cy="225.8" r="3" fill="#4e79a7"/><circle cx="546.0" cy="208.4" r="3" fill="#4e79a7"/><circle cx="560.1" cy="230.8" r="3" fill="#4e79a7"/><circle cx="574.2" cy="232.0" r="3" fill="#4e79a7"/><circle cx="588.3" cy="122.5" r="3" fill="#4e79a7"/><circle cx="602.4" cy="102.6" r="3" fill="#4e79a7"/><circle cx="616.5" cy="222.0" r="3" fill="#4e79a7"/><circle cx="630.6" cy="217.1" r="3" fill="#4e79a7"/><circle cx="644.8" cy="230.8" r="3" fill="#4e79a7"/><circle cx="658.9" cy="230.8" r="3" fill="#4e79a7"/><circle cx="673.0" cy="229.5" r="3" fill="#4e79a7"/><circle cx="687.1" cy="230.8" r="3" fill="#4e79a7"/><circle cx="701.2" cy="229.5" r="3" fill="#4e79a7"/><circle cx="715.3" cy="230.8" r="3" fill="#4e79a7"/><circle cx="729.4" cy="232.0" r="3" fill="#4e79a7"/><circle cx="743.5" cy="228.3" r="3" fill="#4e79a7"/><circle cx="757.7" cy="229.5" r="3" fill="#4e79a7"/><circle cx="771.8" cy="232.0" r="3" fill="#4e79a7"/><circle cx="785.9" cy="230.8" r="3" fill="#4e79a7"/><circle cx="800.0" cy="230.8" r="3" fill="#4e79a7"/>
  <circle cx="52.0" cy="232.0" r="3" fill="#f28e2b"/><circle cx="66.1" cy="230.8" r="3" fill="#f28e2b"/><circle cx="80.2" cy="229.5" r="3" fill="#f28e2b"/><circle cx="94.3" cy="232.0" r="3" fill="#f28e2b"/><circle cx="108.5" cy="232.0" r="3" fill="#f28e2b"/><circle cx="122.6" cy="232.0" r="3" fill="#f28e2b"/><circle cx="136.7" cy="232.0" r="3" fill="#f28e2b"/><circle cx="150.8" cy="232.0" r="3" fill="#f28e2b"/><circle cx="164.9" cy="229.5" r="3" fill="#f28e2b"/><circle cx="179.0" cy="232.0" r="3" fill="#f28e2b"/><circle cx="193.1" cy="229.5" r="3" fill="#f28e2b"/><circle cx="207.2" cy="177.3" r="3" fill="#f28e2b"/><circle cx="221.4" cy="156.1" r="3" fill="#f28e2b"/><circle cx="235.5" cy="125.0" r="3" fill="#f28e2b"/><circle cx="249.6" cy="228.3" r="3" fill="#f28e2b"/><circle cx="263.7" cy="228.3" r="3" fill="#f28e2b"/><circle cx="277.8" cy="232.0" r="3" fill="#f28e2b"/><circle cx="291.9" cy="147.4" r="3" fill="#f28e2b"/><circle cx="306.0" cy="210.9" r="3" fill="#f28e2b"/><circle cx="320.2" cy="210.9" r="3" fill="#f28e2b"/><circle cx="334.3" cy="227.0" r="3" fill="#f28e2b"/><circle cx="348.4" cy="228.3" r="3" fill="#f28e2b"/><circle cx="362.5" cy="229.5" r="3" fill="#f28e2b"/><circle cx="376.6" cy="230.8" r="3" fill="#f28e2b"/><circle cx="390.7" cy="232.0" r="3" fill="#f28e2b"/><circle cx="404.8" cy="230.8" r="3" fill="#f28e2b"/><circle cx="418.9" cy="183.5" r="3" fill="#f28e2b"/><circle cx="433.1" cy="186.0" r="3" fill="#f28e2b"/><circle cx="447.2" cy="230.8" r="3" fill="#f28e2b"/><circle cx="461.3" cy="229.5" r="3" fill="#f28e2b"/><circle cx="475.4" cy="228.3" r="3" fill="#f28e2b"/><circle cx="489.5" cy="228.3" r="3" fill="#f28e2b"/><circle cx="503.6" cy="219.6" r="3" fill="#f28e2b"/><circle cx="517.7" cy="218.3" r="3" fill="#f28e2b"/><circle cx="531.8" cy="229.5" r="3" fill="#f28e2b"/><circle cx="546.0" cy="228.3" r="3" fill="#f28e2b"/><circle cx="560.1" cy="230.8" r="3" fill="#f28e2b"/><circle cx="574.2" cy="232.0" r="3" fill="#f28e2b"/><circle cx="588.3" cy="207.1" r="3" fill="#f28e2b"/><circle cx="602.4" cy="210.9" r="3" fill="#f28e2b"/><circle cx="616.5" cy="229.5" r="3" fill="#f28e2b"/><circle cx="630.6" cy="228.3" r="3" fill="#f28e2b"/><circle cx="644.8" cy="230.8" r="3" fill="#f28e2b"/><circle cx="658.9" cy="230.8" r="3" fill="#f28e2b"/><circle cx="673.0" cy="229.5" r="3" fill="#f28e2b"/><circle cx="687.1" cy="230.8" r="3" fill="#f28e2b"/><circle cx="701.2" cy="229.5" r="3" fill="#f28e2b"/><circle cx="715.3" cy="230.8" r="3" fill="#f28e2b"/><circle cx="729.4" cy="232.0" r="3" fill="#f28e2b"/><circle cx="743.5" cy="229.5" r="3" fill="#f28e2b"/><circle cx="757.7" cy="229.5" r="3" fill="#f28e2b"/><circle cx="771.8" cy="232.0" r="3" fill="#f28e2b"/><circle cx="785.9" cy="230.8" r="3" fill="#f28e2b"/><circle cx="800.0" cy="230.8" r="3" fill="#f28e2b"/>

  <!-- axes -->
  <line x1="52" y1="28" x2="52" y2="232"
        stroke="#cccccc" stroke-width="1"/>
  <line x1="52" y1="232" x2="800" y2="232"
        stroke="#cccccc" stroke-width="1"/>

  <!-- y-axis labels -->
  <text x="47" y="236.0" text-anchor="end" font-size="10" fill="#57606a" font-family="ui-monospace, SFMono-Regular, 'SF Mono', Menlo, monospace">0</text><text x="47" y="198.7" text-anchor="end" font-size="10" fill="#57606a" font-family="ui-monospace, SFMono-Regular, 'SF Mono', Menlo, monospace">30</text><text x="47" y="161.4" text-anchor="end" font-size="10" fill="#57606a" font-family="ui-monospace, SFMono-Regular, 'SF Mono', Menlo, monospace">60</text><text x="47" y="124.0" text-anchor="end" font-size="10" fill="#57606a" font-family="ui-monospace, SFMono-Regular, 'SF Mono', Menlo, monospace">90</text><text x="47" y="86.7" text-anchor="end" font-size="10" fill="#57606a" font-family="ui-monospace, SFMono-Regular, 'SF Mono', Menlo, monospace">120</text><text x="47" y="49.4" text-anchor="end" font-size="10" fill="#57606a" font-family="ui-monospace, SFMono-Regular, 'SF Mono', Menlo, monospace">150</text><text x="47" y="12.1" text-anchor="end" font-size="10" fill="#57606a" font-family="ui-monospace, SFMono-Regular, 'SF Mono', Menlo, monospace">180</text>

  <!-- x-axis labels -->
  <text x="52.0" y="248" text-anchor="middle" font-size="10" fill="#8c959f" font-family="ui-monospace, SFMono-Regular, 'SF Mono', Menlo, monospace">05-11</text><text x="560.1" y="248" text-anchor="middle" font-size="10" fill="#8c959f" font-family="ui-monospace, SFMono-Regular, 'SF Mono', Menlo, monospace">06-16</text><text x="136.7" y="248" text-anchor="middle" font-size="10" fill="#8c959f" font-family="ui-monospace, SFMono-Regular, 'SF Mono', Menlo, monospace">05-17</text><text x="644.8" y="248" text-anchor="middle" font-size="10" fill="#8c959f" font-family="ui-monospace, SFMono-Regular, 'SF Mono', Menlo, monospace">06-22</text><text x="221.4" y="248" text-anchor="middle" font-size="10" fill="#8c959f" font-family="ui-monospace, SFMono-Regular, 'SF Mono', Menlo, monospace">05-23</text><text x="729.4" y="248" text-anchor="middle" font-size="10" fill="#8c959f" font-family="ui-monospace, SFMono-Regular, 'SF Mono', Menlo, monospace">06-28</text><text x="306.0" y="248" text-anchor="middle" font-size="10" fill="#8c959f" font-family="ui-monospace, SFMono-Regular, 'SF Mono', Menlo, monospace">05-29</text><text x="800.0" y="248" text-anchor="middle" font-size="10" fill="#8c959f" font-family="ui-monospace, SFMono-Regular, 'SF Mono', Menlo, monospace">07-03</text><text x="390.7" y="248" text-anchor="middle" font-size="10" fill="#8c959f" font-family="ui-monospace, SFMono-Regular, 'SF Mono', Menlo, monospace">06-04</text><text x="475.4" y="248" text-anchor="middle" font-size="10" fill="#8c959f" font-family="ui-monospace, SFMono-Regular, 'SF Mono', Menlo, monospace">06-10</text>

  <!-- legend -->
  <rect x="60" y="262" width="16" height="3" fill="#4e79a7" rx="1"/><text x="80" y="268" font-size="11" fill="#57606a" font-family="-apple-system, BlinkMacSystemFont, 'Segoe UI', sans-serif">Total clones (1,232)</text><line x1="230" y1="264" x2="246" y2="264" stroke="#f28e2b" stroke-width="2" stroke-dasharray="5,3"/><text x="250" y="268" font-size="11" fill="#57606a" font-family="-apple-system, BlinkMacSystemFont, 'Segoe UI', sans-serif">Unique cloners</text>

</svg>