<svg xmlns="http://www.w3.org/2000/svg" viewBox="0 0 820 280" width="820" height="280">

  <!-- title -->
  <text x="52" y="18" font-size="13" font-weight="600"
        fill="#24292f" font-family="-apple-system, BlinkMacSystemFont, 'Segoe UI', sans-serif"
        >Clone traffic — 500ad</text>
  <text x="800" y="18" font-size="10" fill="#8c959f"
        font-family="ui-monospace, SFMono-Regular, 'SF Mono', Menlo, monospace" text-anchor="end">2026-06-24</text>

  <!-- grid -->
  <line x1="52" y1="232.0" x2="800" y2="232.0" stroke="#e8e8e8" stroke-width="1"/><line x1="52" y1="194.7" x2="800" y2="194.7" stroke="#e8e8e8" stroke-width="1"/><line x1="52" y1="157.4" x2="800" y2="157.4" stroke="#e8e8e8" stroke-width="1"/><line x1="52" y1="120.0" x2="800" y2="120.0" stroke="#e8e8e8" stroke-width="1"/><line x1="52" y1="82.7" x2="800" y2="82.7" stroke="#e8e8e8" stroke-width="1"/><line x1="52" y1="45.4" x2="800" y2="45.4" stroke="#e8e8e8" stroke-width="1"/><line x1="52" y1="8.1" x2="800" y2="8.1" stroke="#e8e8e8" stroke-width="1"/>

  <!-- area fill -->
  <path d="M52.0,232.0 L52.0,232.0 L69.8,230.8 L87.6,229.5 L105.4,232.0 L123.2,232.0 L141.0,232.0 L158.9,232.0 L176.7,232.0 L194.5,228.3 L212.3,232.0 L230.1,229.5 L247.9,74.0 L265.7,100.1 L283.5,28.0 L301.3,217.1 L319.1,218.3 L337.0,232.0 L354.8,30.5 L372.6,193.4 L390.4,163.6 L408.2,225.8 L426.0,223.3 L443.8,225.8 L461.6,230.8 L479.4,232.0 L497.2,230.8 L515.0,105.1 L532.9,113.8 L550.7,229.5 L568.5,229.5 L586.3,225.8 L604.1,228.3 L621.9,203.4 L639.7,166.1 L657.5,225.8 L675.3,208.4 L693.1,230.8 L711.0,232.0 L728.8,122.5 L746.6,102.6 L764.4,222.0 L782.2,217.1 L800.0,230.8 L800.0,232.0 L52.0,232.0Z" fill="#4e79a7" opacity="0.12"/>

  <!-- lines -->
  <polyline points="52.0,232.0 69.8,230.8 87.6,229.5 105.4,232.0 123.2,232.0 141.0,232.0 158.9,232.0 176.7,232.0 194.5,228.3 212.3,232.0 230.1,229.5 247.9,74.0 265.7,100.1 283.5,28.0 301.3,217.1 319.1,218.3 337.0,232.0 354.8,30.5 372.6,193.4 390.4,163.6 408.2,225.8 426.0,223.3 443.8,225.8 461.6,230.8 479.4,232.0 497.2,230.8 515.0,105.1 532.9,113.8 550.7,229.5 568.5,229.5 586.3,225.8 604.1,228.3 621.9,203.4 639.7,166.1 657.5,225.8 675.3,208.4 693.1,230.8 711.0,232.0 728.8,122.5 746.6,102.6 764.4,222.0 782.2,217.1 800.0,230.8"
            fill="none" stroke="#4e79a7"
            stroke-width="2" stroke-linejoin="round"/>
  <polyline points="52.0,232.0 69.8,230.8 87.6,229.5 105.4,232.0 123.2,232.0 141.0,232.0 158.9,232.0 176.7,232.0 194.5,229.5 212.3,232.0 230.1,229.5 247.9,177.3 265.7,156.1 283.5,125.0 301.3,228.3 319.1,228.3 337.0,232.0 354.8,147.4 372.6,210.9 390.4,210.9 408.2,227.0 426.0,228.3 443.8,229.5 461.6,230.8 479.4,232.0 497.2,230.8 515.0,183.5 532.9,186.0 550.7,230.8 568.5,229.5 586.3,228.3 604.1,228.3 621.9,219.6 639.7,218.3 657.5,229.5 675.3,228.3 693.1,230.8 711.0,232.0 728.8,207.1 746.6,210.9 764.4,229.5 782.2,228.3 800.0,230.8"
            fill="none" stroke="#f28e2b"
            stroke-width="2" stroke-linejoin="round"
            stroke-dasharray="5,3"/>

  <!-- dots -->
  <circle cx="52.0" cy="232.0" r="3" fill="#4e79a7"/><circle cx="69.8" cy="230.8" r="3" fill="#4e79a7"/><circle cx="87.6" cy="229.5" r="3" fill="#4e79a7"/><circle cx="105.4" cy="232.0" r="3" fill="#4e79a7"/><circle cx="123.2" cy="232.0" r="3" fill="#4e79a7"/><circle cx="141.0" cy="232.0" r="3" fill="#4e79a7"/><circle cx="158.9" cy="232.0" r="3" fill="#4e79a7"/><circle cx="176.7" cy="232.0" r="3" fill="#4e79a7"/><circle cx="194.5" cy="228.3" r="3" fill="#4e79a7"/><circle cx="212.3" cy="232.0" r="3" fill="#4e79a7"/><circle cx="230.1" cy="229.5" r="3" fill="#4e79a7"/><circle cx="247.9" cy="74.0" r="3" fill="#4e79a7"/><circle cx="265.7" cy="100.1" r="3" fill="#4e79a7"/><circle cx="283.5" cy="28.0" r="3" fill="#4e79a7"/><circle cx="301.3" cy="217.1" r="3" fill="#4e79a7"/><circle cx="319.1" cy="218.3" r="3" fill="#4e79a7"/><circle cx="337.0" cy="232.0" r="3" fill="#4e79a7"/><circle cx="354.8" cy="30.5" r="3" fill="#4e79a7"/><circle cx="372.6" cy="193.4" r="3" fill="#4e79a7"/><circle cx="390.4" cy="163.6" r="3" fill="#4e79a7"/><circle cx="408.2" cy="225.8" r="3" fill="#4e79a7"/><circle cx="426.0" cy="223.3" r="3" fill="#4e79a7"/><circle cx="443.8" cy="225.8" r="3" fill="#4e79a7"/><circle cx="461.6" cy="230.8" r="3" fill="#4e79a7"/><circle cx="479.4" cy="232.0" r="3" fill="#4e79a7"/><circle cx="497.2" cy="230.8" r="3" fill="#4e79a7"/><circle cx="515.0" cy="105.1" r="3" fill="#4e79a7"/><circle cx="532.9" cy="113.8" r="3" fill="#4e79a7"/><circle cx="550.7" cy="229.5" r="3" fill="#4e79a7"/><circle cx="568.5" cy="229.5" r="3" fill="#4e79a7"/><circle cx="586.3" cy="225.8" r="3" fill="#4e79a7"/><circle cx="604.1" cy="228.3" r="3" fill="#4e79a7"/><circle cx="621.9" cy="203.4" r="3" fill="#4e79a7"/><circle cx="639.7" cy="166.1" r="3" fill="#4e79a7"/><circle cx="657.5" cy="225.8" r="3" fill="#4e79a7"/><circle cx="675.3" cy="208.4" r="3" fill="#4e79a7"/><circle cx="693.1" cy="230.8" r="3" fill="#4e79a7"/><circle cx="711.0" cy="232.0" r="3" fill="#4e79a7"/><circle cx="728.8" cy="122.5" r="3" fill="#4e79a7"/><circle cx="746.6" cy="102.6" r="3" fill="#4e79a7"/><circle cx="764.4" cy="222.0" r="3" fill="#4e79a7"/><circle cx="782.2" cy="217.1" r="3" fill="#4e79a7"/><circle cx="800.0" cy="230.8" r="3" fill="#4e79a7"/>
  <circle cx="52.0" cy="232.0" r="3" fill="#f28e2b"/><circle cx="69.8" cy="230.8" r="3" fill="#f28e2b"/><circle cx="87.6" cy="229.5" r="3" fill="#f28e2b"/><circle cx="105.4" cy="232.0" r="3" fill="#f28e2b"/><circle cx="123.2" cy="232.0" r="3" fill="#f28e2b"/><circle cx="141.0" cy="232.0" r="3" fill="#f28e2b"/><circle cx="158.9" cy="232.0" r="3" fill="#f28e2b"/><circle cx="176.7" cy="232.0" r="3" fill="#f28e2b"/><circle cx="194.5" cy="229.5" r="3" fill="#f28e2b"/><circle cx="212.3" cy="232.0" r="3" fill="#f28e2b"/><circle cx="230.1" cy="229.5" r="3" fill="#f28e2b"/><circle cx="247.9" cy="177.3" r="3" fill="#f28e2b"/><circle cx="265.7" cy="156.1" r="3" fill="#f28e2b"/><circle cx="283.5" cy="125.0" r="3" fill="#f28e2b"/><circle cx="301.3" cy="228.3" r="3" fill="#f28e2b"/><circle cx="319.1" cy="228.3" r="3" fill="#f28e2b"/><circle cx="337.0" cy="232.0" r="3" fill="#f28e2b"/><circle cx="354.8" cy="147.4" r="3" fill="#f28e2b"/><circle cx="372.6" cy="210.9" r="3" fill="#f28e2b"/><circle cx="390.4" cy="210.9" r="3" fill="#f28e2b"/><circle cx="408.2" cy="227.0" r="3" fill="#f28e2b"/><circle cx="426.0" cy="228.3" r="3" fill="#f28e2b"/><circle cx="443.8" cy="229.5" r="3" fill="#f28e2b"/><circle cx="461.6" cy="230.8" r="3" fill="#f28e2b"/><circle cx="479.4" cy="232.0" r="3" fill="#f28e2b"/><circle cx="497.2" cy="230.8" r="3" fill="#f28e2b"/><circle cx="515.0" cy="183.5" r="3" fill="#f28e2b"/><circle cx="532.9" cy="186.0" r="3" fill="#f28e2b"/><circle cx="550.7" cy="230.8" r="3" fill="#f28e2b"/><circle cx="568.5" cy="229.5" r="3" fill="#f28e2b"/><circle cx="586.3" cy="228.3" r="3" fill="#f28e2b"/><circle cx="604.1" cy="228.3" r="3" fill="#f28e2b"/><circle cx="621.9" cy="219.6" r="3" fill="#f28e2b"/><circle cx="639.7" cy="218.3" r="3" fill="#f28e2b"/><circle cx="657.5" cy="229.5" r="3" fill="#f28e2b"/><circle cx="675.3" cy="228.3" r="3" fill="#f28e2b"/><circle cx="693.1" cy="230.8" r="3" fill="#f28e2b"/><circle cx="711.0" cy="232.0" r="3" fill="#f28e2b"/><circle cx="728.8" cy="207.1" r="3" fill="#f28e2b"/><circle cx="746.6" cy="210.9" r="3" fill="#f28e2b"/><circle cx="764.4" cy="229.5" r="3" fill="#f28e2b"/><circle cx="782.2" cy="228.3" r="3" fill="#f28e2b"/><circle cx="800.0" cy="230.8" r="3" fill="#f28e2b"/>

  <!-- axes -->
  <line x1="52" y1="28" x2="52" y2="232"
        stroke="#cccccc" stroke-width="1"/>
  <line x1="52" y1="232" x2="800" y2="232"
        stroke="#cccccc" stroke-width="1"/>

  <!-- y-axis labels -->
  <text x="47" y="236.0" text-anchor="end" font-size="10" fill="#57606a" font-family="ui-monospace, SFMono-Regular, 'SF Mono', Menlo, monospace">0</text><text x="47" y="198.7" text-anchor="end" font-size="10" fill="#57606a" font-family="ui-monospace, SFMono-Regular, 'SF Mono', Menlo, monospace">30</text><text x="47" y="161.4" text-anchor="end" font-size="10" fill="#57606a" font-family="ui-monospace, SFMono-Regular, 'SF Mono', Menlo, monospace">60</text><text x="47" y="124.0" text-anchor="end" font-size="10" fill="#57606a" font-family="ui-monospace, SFMono-Regular, 'SF Mono', Menlo, monospace">90</text><text x="47" y="86.7" text-anchor="end" font-size="10" fill="#57606a" font-family="ui-monospace, SFMono-Regular, 'SF Mono', Menlo, monospace">120</text><text x="47" y="49.4" text-anchor="end" font-size="10" fill="#57606a" font-family="ui-monospace, SFMono-Regular, 'SF Mono', Menlo, monospace">150</text><text x="47" y="12.1" text-anchor="end" font-size="10" fill="#57606a" font-family="ui-monospace, SFMono-Regular, 'SF Mono', Menlo, monospace">180</text>

  <!-- x-axis labels -->
  <text x="52.0" y="248" text-anchor="middle" font-size="10" fill="#8c959f" font-family="ui-monospace, SFMono-Regular, 'SF Mono', Menlo, monospace">05-11</text><text x="675.3" y="248" text-anchor="middle" font-size="10" fill="#8c959f" font-family="ui-monospace, SFMono-Regular, 'SF Mono', Menlo, monospace">06-15</text><text x="141.0" y="248" text-anchor="middle" font-size="10" fill="#8c959f" font-family="ui-monospace, SFMono-Regular, 'SF Mono', Menlo, monospace">05-16</text><text x="764.4" y="248" text-anchor="middle" font-size="10" fill="#8c959f" font-family="ui-monospace, SFMono-Regular, 'SF Mono', Menlo, monospace">06-20</text><text x="230.1" y="248" text-anchor="middle" font-size="10" fill="#8c959f" font-family="ui-monospace, SFMono-Regular, 'SF Mono', Menlo, monospace">05-21</text><text x="800.0" y="248" text-anchor="middle" font-size="10" fill="#8c959f" font-family="ui-monospace, SFMono-Regular, 'SF Mono', Menlo, monospace">06-22</text><text x="319.1" y="248" text-anchor="middle" font-size="10" fill="#8c959f" font-family="ui-monospace, SFMono-Regular, 'SF Mono', Menlo, monospace">05-26</text><text x="408.2" y="248" text-anchor="middle" font-size="10" fill="#8c959f" font-family="ui-monospace, SFMono-Regular, 'SF Mono', Menlo, monospace">05-31</text><text x="497.2" y="248" text-anchor="middle" font-size="10" fill="#8c959f" font-family="ui-monospace, SFMono-Regular, 'SF Mono', Menlo, monospace">06-05</text><text x="586.3" y="248" text-anchor="middle" font-size="10" fill="#8c959f" font-family="ui-monospace, SFMono-Regular, 'SF Mono', Menlo, monospace">06-10</text>

  <!-- legend -->
  <rect x="60" y="262" width="16" height="3" fill="#4e79a7" rx="1"/><text x="80" y="268" font-size="11" fill="#57606a" font-family="-apple-system, BlinkMacSystemFont, 'Segoe UI', sans-serif">Total clones (1,218)</text><line x1="230" y1="264" x2="246" y2="264" stroke="#f28e2b" stroke-width="2" stroke-dasharray="5,3"/><text x="250" y="268" font-size="11" fill="#57606a" font-family="-apple-system, BlinkMacSystemFont, 'Segoe UI', sans-serif">Unique cloners</text>

</svg>