<svg xmlns="http://www.w3.org/2000/svg" viewBox="0 0 820 280" width="820" height="280">

  <!-- title -->
  <text x="52" y="18" font-size="13" font-weight="600"
        fill="#24292f" font-family="-apple-system, BlinkMacSystemFont, 'Segoe UI', sans-serif"
        >Clone traffic — 500ad</text>
  <text x="800" y="18" font-size="10" fill="#8c959f"
        font-family="ui-monospace, SFMono-Regular, 'SF Mono', Menlo, monospace" text-anchor="end">2026-06-06</text>

  <!-- grid -->
  <line x1="52" y1="232.0" x2="800" y2="232.0" stroke="#e8e8e8" stroke-width="1"/><line x1="52" y1="194.7" x2="800" y2="194.7" stroke="#e8e8e8" stroke-width="1"/><line x1="52" y1="157.4" x2="800" y2="157.4" stroke="#e8e8e8" stroke-width="1"/><line x1="52" y1="120.0" x2="800" y2="120.0" stroke="#e8e8e8" stroke-width="1"/><line x1="52" y1="82.7" x2="800" y2="82.7" stroke="#e8e8e8" stroke-width="1"/><line x1="52" y1="45.4" x2="800" y2="45.4" stroke="#e8e8e8" stroke-width="1"/><line x1="52" y1="8.1" x2="800" y2="8.1" stroke="#e8e8e8" stroke-width="1"/>

  <!-- area fill -->
  <path d="M52.0,232.0 L52.0,232.0 L83.2,230.8 L114.3,229.5 L145.5,232.0 L176.7,232.0 L207.8,232.0 L239.0,232.0 L270.2,232.0 L301.3,228.3 L332.5,232.0 L363.7,229.5 L394.8,74.0 L426.0,100.1 L457.2,28.0 L488.3,217.1 L519.5,218.3 L550.7,232.0 L581.8,30.5 L613.0,193.4 L644.2,163.6 L675.3,225.8 L706.5,223.3 L737.7,225.8 L768.8,230.8 L800.0,232.0 L800.0,232.0 L52.0,232.0Z" fill="#4e79a7" opacity="0.12"/>

  <!-- lines -->
  <polyline points="52.0,232.0 83.2,230.8 114.3,229.5 145.5,232.0 176.7,232.0 207.8,232.0 239.0,232.0 270.2,232.0 301.3,228.3 332.5,232.0 363.7,229.5 394.8,74.0 426.0,100.1 457.2,28.0 488.3,217.1 519.5,218.3 550.7,232.0 581.8,30.5 613.0,193.4 644.2,163.6 675.3,225.8 706.5,223.3 737.7,225.8 768.8,230.8 800.0,232.0"
            fill="none" stroke="#4e79a7"
            stroke-width="2" stroke-linejoin="round"/>
  <polyline points="52.0,232.0 83.2,230.8 114.3,229.5 145.5,232.0 176.7,232.0 207.8,232.0 239.0,232.0 270.2,232.0 301.3,229.5 332.5,232.0 363.7,229.5 394.8,177.3 426.0,156.1 457.2,125.0 488.3,228.3 519.5,228.3 550.7,232.0 581.8,147.4 613.0,210.9 644.2,210.9 675.3,227.0 706.5,228.3 737.7,229.5 768.8,230.8 800.0,232.0"
            fill="none" stroke="#f28e2b"
            stroke-width="2" stroke-linejoin="round"
            stroke-dasharray="5,3"/>

  <!-- dots -->
  <circle cx="52.0" cy="232.0" r="3" fill="#4e79a7"/><circle cx="83.2" cy="230.8" r="3" fill="#4e79a7"/><circle cx="114.3" cy="229.5" r="3" fill="#4e79a7"/><circle cx="145.5" cy="232.0" r="3" fill="#4e79a7"/><circle cx="176.7" cy="232.0" r="3" fill="#4e79a7"/><circle cx="207.8" cy="232.0" r="3" fill="#4e79a7"/><circle cx="239.0" cy="232.0" r="3" fill="#4e79a7"/><circle cx="270.2" cy="232.0" r="3" fill="#4e79a7"/><circle cx="301.3" cy="228.3" r="3" fill="#4e79a7"/><circle cx="332.5" cy="232.0" r="3" fill="#4e79a7"/><circle cx="363.7" cy="229.5" r="3" fill="#4e79a7"/><circle cx="394.8" cy="74.0" r="3" fill="#4e79a7"/><circle cx="426.0" cy="100.1" r="3" fill="#4e79a7"/><circle cx="457.2" cy="28.0" r="3" fill="#4e79a7"/><circle cx="488.3" cy="217.1" r="3" fill="#4e79a7"/><circle cx="519.5" cy="218.3" r="3" fill="#4e79a7"/><circle cx="550.7" cy="232.0" r="3" fill="#4e79a7"/><circle cx="581.8" cy="30.5" r="3" fill="#4e79a7"/><circle cx="613.0" cy="193.4" r="3" fill="#4e79a7"/><circle cx="644.2" cy="163.6" r="3" fill="#4e79a7"/><circle cx="675.3" cy="225.8" r="3" fill="#4e79a7"/><circle cx="706.5" cy="223.3" r="3" fill="#4e79a7"/><circle cx="737.7" cy="225.8" r="3" fill="#4e79a7"/><circle cx="768.8" cy="230.8" r="3" fill="#4e79a7"/><circle cx="800.0" cy="232.0" r="3" fill="#4e79a7"/>
  <circle cx="52.0" cy="232.0" r="3" fill="#f28e2b"/><circle cx="83.2" cy="230.8" r="3" fill="#f28e2b"/><circle cx="114.3" cy="229.5" r="3" fill="#f28e2b"/><circle cx="145.5" cy="232.0" r="3" fill="#f28e2b"/><circle cx="176.7" cy="232.0" r="3" fill="#f28e2b"/><circle cx="207.8" cy="232.0" r="3" fill="#f28e2b"/><circle cx="239.0" cy="232.0" r="3" fill="#f28e2b"/><circle cx="270.2" cy="232.0" r="3" fill="#f28e2b"/><circle cx="301.3" cy="229.5" r="3" fill="#f28e2b"/><circle cx="332.5" cy="232.0" r="3" fill="#f28e2b"/><circle cx="363.7" cy="229.5" r="3" fill="#f28e2b"/><circle cx="394.8" cy="177.3" r="3" fill="#f28e2b"/><circle cx="426.0" cy="156.1" r="3" fill="#f28e2b"/><circle cx="457.2" cy="125.0" r="3" fill="#f28e2b"/><circle cx="488.3" cy="228.3" r="3" fill="#f28e2b"/><circle cx="519.5" cy="228.3" r="3" fill="#f28e2b"/><circle cx="550.7" cy="232.0" r="3" fill="#f28e2b"/><circle cx="581.8" cy="147.4" r="3" fill="#f28e2b"/><circle cx="613.0" cy="210.9" r="3" fill="#f28e2b"/><circle cx="644.2" cy="210.9" r="3" fill="#f28e2b"/><circle cx="675.3" cy="227.0" r="3" fill="#f28e2b"/><circle cx="706.5" cy="228.3" r="3" fill="#f28e2b"/><circle cx="737.7" cy="229.5" r="3" fill="#f28e2b"/><circle cx="768.8" cy="230.8" r="3" fill="#f28e2b"/><circle cx="800.0" cy="232.0" r="3" fill="#f28e2b"/>

  <!-- axes -->
  <line x1="52" y1="28" x2="52" y2="232"
        stroke="#cccccc" stroke-width="1"/>
  <line x1="52" y1="232" x2="800" y2="232"
        stroke="#cccccc" stroke-width="1"/>

  <!-- y-axis labels -->
  <text x="47" y="236.0" text-anchor="end" font-size="10" fill="#57606a" font-family="ui-monospace, SFMono-Regular, 'SF Mono', Menlo, monospace">0</text><text x="47" y="198.7" text-anchor="end" font-size="10" fill="#57606a" font-family="ui-monospace, SFMono-Regular, 'SF Mono', Menlo, monospace">30</text><text x="47" y="161.4" text-anchor="end" font-size="10" fill="#57606a" font-family="ui-monospace, SFMono-Regular, 'SF Mono', Menlo, monospace">60</text><text x="47" y="124.0" text-anchor="end" font-size="10" fill="#57606a" font-family="ui-monospace, SFMono-Regular, 'SF Mono', Menlo, monospace">90</text><text x="47" y="86.7" text-anchor="end" font-size="10" fill="#57606a" font-family="ui-monospace, SFMono-Regular, 'SF Mono', Menlo, monospace">120</text><text x="47" y="49.4" text-anchor="end" font-size="10" fill="#57606a" font-family="ui-monospace, SFMono-Regular, 'SF Mono', Menlo, monospace">150</text><text x="47" y="12.1" text-anchor="end" font-size="10" fill="#57606a" font-family="ui-monospace, SFMono-Regular, 'SF Mono', Menlo, monospace">180</text>

  <!-- x-axis labels -->
  <text x="52.0" y="248" text-anchor="middle" font-size="10" fill="#8c959f" font-family="ui-monospace, SFMono-Regular, 'SF Mono', Menlo, monospace">05-11</text><text x="145.5" y="248" text-anchor="middle" font-size="10" fill="#8c959f" font-family="ui-monospace, SFMono-Regular, 'SF Mono', Menlo, monospace">05-14</text><text x="239.0" y="248" text-anchor="middle" font-size="10" fill="#8c959f" font-family="ui-monospace, SFMono-Regular, 'SF Mono', Menlo, monospace">05-17</text><text x="332.5" y="248" text-anchor="middle" font-size="10" fill="#8c959f" font-family="ui-monospace, SFMono-Regular, 'SF Mono', Menlo, monospace">05-20</text><text x="426.0" y="248" text-anchor="middle" font-size="10" fill="#8c959f" font-family="ui-monospace, SFMono-Regular, 'SF Mono', Menlo, monospace">05-23</text><text x="519.5" y="248" text-anchor="middle" font-size="10" fill="#8c959f" font-family="ui-monospace, SFMono-Regular, 'SF Mono', Menlo, monospace">05-26</text><text x="613.0" y="248" text-anchor="middle" font-size="10" fill="#8c959f" font-family="ui-monospace, SFMono-Regular, 'SF Mono', Menlo, monospace">05-29</text><text x="706.5" y="248" text-anchor="middle" font-size="10" fill="#8c959f" font-family="ui-monospace, SFMono-Regular, 'SF Mono', Menlo, monospace">06-01</text><text x="800.0" y="248" text-anchor="middle" font-size="10" fill="#8c959f" font-family="ui-monospace, SFMono-Regular, 'SF Mono', Menlo, monospace">06-04</text>

  <!-- legend -->
  <rect x="60" y="262" width="16" height="3" fill="#4e79a7" rx="1"/><text x="80" y="268" font-size="11" fill="#57606a" font-family="-apple-system, BlinkMacSystemFont, 'Segoe UI', sans-serif">Total clones (694)</text><line x1="230" y1="264" x2="246" y2="264" stroke="#f28e2b" stroke-width="2" stroke-dasharray="5,3"/><text x="250" y="268" font-size="11" fill="#57606a" font-family="-apple-system, BlinkMacSystemFont, 'Segoe UI', sans-serif">Unique cloners</text>

</svg>