<svg xmlns="http://www.w3.org/2000/svg" viewBox="0 0 820 280" width="820" height="280">

  <!-- title -->
  <text x="52" y="18" font-size="13" font-weight="600"
        fill="#24292f" font-family="-apple-system, BlinkMacSystemFont, 'Segoe UI', sans-serif"
        >Clone traffic — 500ad</text>
  <text x="800" y="18" font-size="10" fill="#8c959f"
        font-family="ui-monospace, SFMono-Regular, 'SF Mono', Menlo, monospace" text-anchor="end">2026-07-11</text>

  <!-- grid -->
  <line x1="52" y1="232.0" x2="800" y2="232.0" stroke="#e8e8e8" stroke-width="1"/><line x1="52" y1="194.7" x2="800" y2="194.7" stroke="#e8e8e8" stroke-width="1"/><line x1="52" y1="157.4" x2="800" y2="157.4" stroke="#e8e8e8" stroke-width="1"/><line x1="52" y1="120.0" x2="800" y2="120.0" stroke="#e8e8e8" stroke-width="1"/><line x1="52" y1="82.7" x2="800" y2="82.7" stroke="#e8e8e8" stroke-width="1"/><line x1="52" y1="45.4" x2="800" y2="45.4" stroke="#e8e8e8" stroke-width="1"/><line x1="52" y1="8.1" x2="800" y2="8.1" stroke="#e8e8e8" stroke-width="1"/>

  <!-- area fill -->
  <path d="M52.0,232.0 L52.0,232.0 L64.7,230.8 L77.4,229.5 L90.0,232.0 L102.7,232.0 L115.4,232.0 L128.1,232.0 L140.7,232.0 L153.4,228.3 L166.1,232.0 L178.8,229.5 L191.5,74.0 L204.1,100.1 L216.8,28.0 L229.5,217.1 L242.2,218.3 L254.8,232.0 L267.5,30.5 L280.2,193.4 L292.9,163.6 L305.6,225.8 L318.2,223.3 L330.9,225.8 L343.6,230.8 L356.3,232.0 L368.9,230.8 L381.6,105.1 L394.3,113.8 L407.0,229.5 L419.7,229.5 L432.3,225.8 L445.0,228.3 L457.7,203.4 L470.4,166.1 L483.1,225.8 L495.7,208.4 L508.4,230.8 L521.1,232.0 L533.8,122.5 L546.4,102.6 L559.1,222.0 L571.8,217.1 L584.5,230.8 L597.2,230.8 L609.8,229.5 L622.5,230.8 L635.2,229.5 L647.9,230.8 L660.5,232.0 L673.2,228.3 L685.9,229.5 L698.6,232.0 L711.3,230.8 L723.9,230.8 L736.6,227.0 L749.3,230.8 L762.0,228.3 L774.6,229.5 L787.3,230.8 L800.0,229.5 L800.0,232.0 L52.0,232.0Z" fill="#4e79a7" opacity="0.12"/>

  <!-- lines -->
  <polyline points="52.0,232.0 64.7,230.8 77.4,229.5 90.0,232.0 102.7,232.0 115.4,232.0 128.1,232.0 140.7,232.0 153.4,228.3 166.1,232.0 178.8,229.5 191.5,74.0 204.1,100.1 216.8,28.0 229.5,217.1 242.2,218.3 254.8,232.0 267.5,30.5 280.2,193.4 292.9,163.6 305.6,225.8 318.2,223.3 330.9,225.8 343.6,230.8 356.3,232.0 368.9,230.8 381.6,105.1 394.3,113.8 407.0,229.5 419.7,229.5 432.3,225.8 445.0,228.3 457.7,203.4 470.4,166.1 483.1,225.8 495.7,208.4 508.4,230.8 521.1,232.0 533.8,122.5 546.4,102.6 559.1,222.0 571.8,217.1 584.5,230.8 597.2,230.8 609.8,229.5 622.5,230.8 635.2,229.5 647.9,230.8 660.5,232.0 673.2,228.3 685.9,229.5 698.6,232.0 711.3,230.8 723.9,230.8 736.6,227.0 749.3,230.8 762.0,228.3 774.6,229.5 787.3,230.8 800.0,229.5"
            fill="none" stroke="#4e79a7"
            stroke-width="2" stroke-linejoin="round"/>
  <polyline points="52.0,232.0 64.7,230.8 77.4,229.5 90.0,232.0 102.7,232.0 115.4,232.0 128.1,232.0 140.7,232.0 153.4,229.5 166.1,232.0 178.8,229.5 191.5,177.3 204.1,156.1 216.8,125.0 229.5,228.3 242.2,228.3 254.8,232.0 267.5,147.4 280.2,210.9 292.9,210.9 305.6,227.0 318.2,228.3 330.9,229.5 343.6,230.8 356.3,232.0 368.9,230.8 381.6,183.5 394.3,186.0 407.0,230.8 419.7,229.5 432.3,228.3 445.0,228.3 457.7,219.6 470.4,218.3 483.1,229.5 495.7,228.3 508.4,230.8 521.1,232.0 533.8,207.1 546.4,210.9 559.1,229.5 571.8,228.3 584.5,230.8 597.2,230.8 609.8,229.5 622.5,230.8 635.2,229.5 647.9,230.8 660.5,232.0 673.2,229.5 685.9,229.5 698.6,232.0 711.3,230.8 723.9,230.8 736.6,228.3 749.3,230.8 762.0,229.5 774.6,229.5 787.3,230.8 800.0,229.5"
            fill="none" stroke="#f28e2b"
            stroke-width="2" stroke-linejoin="round"
            stroke-dasharray="5,3"/>

  <!-- dots -->
  <circle cx="52.0" cy="232.0" r="3" fill="#4e79a7"/><circle cx="64.7" cy="230.8" r="3" fill="#4e79a7"/><circle cx="77.4" cy="229.5" r="3" fill="#4e79a7"/><circle cx="90.0" cy="232.0" r="3" fill="#4e79a7"/><circle cx="102.7" cy="232.0" r="3" fill="#4e79a7"/><circle cx="115.4" cy="232.0" r="3" fill="#4e79a7"/><circle cx="128.1" cy="232.0" r="3" fill="#4e79a7"/><circle cx="140.7" cy="232.0" r="3" fill="#4e79a7"/><circle cx="153.4" cy="228.3" r="3" fill="#4e79a7"/><circle cx="166.1" cy="232.0" r="3" fill="#4e79a7"/><circle cx="178.8" cy="229.5" r="3" fill="#4e79a7"/><circle cx="191.5" cy="74.0" r="3" fill="#4e79a7"/><circle cx="204.1" cy="100.1" r="3" fill="#4e79a7"/><circle cx="216.8" cy="28.0" r="3" fill="#4e79a7"/><circle cx="229.5" cy="217.1" r="3" fill="#4e79a7"/><circle cx="242.2" cy="218.3" r="3" fill="#4e79a7"/><circle cx="254.8" cy="232.0" r="3" fill="#4e79a7"/><circle cx="267.5" cy="30.5" r="3" fill="#4e79a7"/><circle cx="280.2" cy="193.4" r="3" fill="#4e79a7"/><circle cx="292.9" cy="163.6" r="3" fill="#4e79a7"/><circle cx="305.6" cy="225.8" r="3" fill="#4e79a7"/><circle cx="318.2" cy="223.3" r="3" fill="#4e79a7"/><circle cx="330.9" cy="225.8" r="3" fill="#4e79a7"/><circle cx="343.6" cy="230.8" r="3" fill="#4e79a7"/><circle cx="356.3" cy="232.0" r="3" fill="#4e79a7"/><circle cx="368.9" cy="230.8" r="3" fill="#4e79a7"/><circle cx="381.6" cy="105.1" r="3" fill="#4e79a7"/><circle cx="394.3" cy="113.8" r="3" fill="#4e79a7"/><circle cx="407.0" cy="229.5" r="3" fill="#4e79a7"/><circle cx="419.7" cy="229.5" r="3" fill="#4e79a7"/><circle cx="432.3" cy="225.8" r="3" fill="#4e79a7"/><circle cx="445.0" cy="228.3" r="3" fill="#4e79a7"/><circle cx="457.7" cy="203.4" r="3" fill="#4e79a7"/><circle cx="470.4" cy="166.1" r="3" fill="#4e79a7"/><circle cx="483.1" cy="225.8" r="3" fill="#4e79a7"/><circle cx="495.7" cy="208.4" r="3" fill="#4e79a7"/><circle cx="508.4" cy="230.8" r="3" fill="#4e79a7"/><circle cx="521.1" cy="232.0" r="3" fill="#4e79a7"/><circle cx="533.8" cy="122.5" r="3" fill="#4e79a7"/><circle cx="546.4" cy="102.6" r="3" fill="#4e79a7"/><circle cx="559.1" cy="222.0" r="3" fill="#4e79a7"/><circle cx="571.8" cy="217.1" r="3" fill="#4e79a7"/><circle cx="584.5" cy="230.8" r="3" fill="#4e79a7"/><circle cx="597.2" cy="230.8" r="3" fill="#4e79a7"/><circle cx="609.8" cy="229.5" r="3" fill="#4e79a7"/><circle cx="622.5" cy="230.8" r="3" fill="#4e79a7"/><circle cx="635.2" cy="229.5" r="3" fill="#4e79a7"/><circle cx="647.9" cy="230.8" r="3" fill="#4e79a7"/><circle cx="660.5" cy="232.0" r="3" fill="#4e79a7"/><circle cx="673.2" cy="228.3" r="3" fill="#4e79a7"/><circle cx="685.9" cy="229.5" r="3" fill="#4e79a7"/><circle cx="698.6" cy="232.0" r="3" fill="#4e79a7"/><circle cx="711.3" cy="230.8" r="3" fill="#4e79a7"/><circle cx="723.9" cy="230.8" r="3" fill="#4e79a7"/><circle cx="736.6" cy="227.0" r="3" fill="#4e79a7"/><circle cx="749.3" cy="230.8" r="3" fill="#4e79a7"/><circle cx="762.0" cy="228.3" r="3" fill="#4e79a7"/><circle cx="774.6" cy="229.5" r="3" fill="#4e79a7"/><circle cx="787.3" cy="230.8" r="3" fill="#4e79a7"/><circle cx="800.0" cy="229.5" r="3" fill="#4e79a7"/>
  <circle cx="52.0" cy="232.0" r="3" fill="#f28e2b"/><circle cx="64.7" cy="230.8" r="3" fill="#f28e2b"/><circle cx="77.4" cy="229.5" r="3" fill="#f28e2b"/><circle cx="90.0" cy="232.0" r="3" fill="#f28e2b"/><circle cx="102.7" cy="232.0" r="3" fill="#f28e2b"/><circle cx="115.4" cy="232.0" r="3" fill="#f28e2b"/><circle cx="128.1" cy="232.0" r="3" fill="#f28e2b"/><circle cx="140.7" cy="232.0" r="3" fill="#f28e2b"/><circle cx="153.4" cy="229.5" r="3" fill="#f28e2b"/><circle cx="166.1" cy="232.0" r="3" fill="#f28e2b"/><circle cx="178.8" cy="229.5" r="3" fill="#f28e2b"/><circle cx="191.5" cy="177.3" r="3" fill="#f28e2b"/><circle cx="204.1" cy="156.1" r="3" fill="#f28e2b"/><circle cx="216.8" cy="125.0" r="3" fill="#f28e2b"/><circle cx="229.5" cy="228.3" r="3" fill="#f28e2b"/><circle cx="242.2" cy="228.3" r="3" fill="#f28e2b"/><circle cx="254.8" cy="232.0" r="3" fill="#f28e2b"/><circle cx="267.5" cy="147.4" r="3" fill="#f28e2b"/><circle cx="280.2" cy="210.9" r="3" fill="#f28e2b"/><circle cx="292.9" cy="210.9" r="3" fill="#f28e2b"/><circle cx="305.6" cy="227.0" r="3" fill="#f28e2b"/><circle cx="318.2" cy="228.3" r="3" fill="#f28e2b"/><circle cx="330.9" cy="229.5" r="3" fill="#f28e2b"/><circle cx="343.6" cy="230.8" r="3" fill="#f28e2b"/><circle cx="356.3" cy="232.0" r="3" fill="#f28e2b"/><circle cx="368.9" cy="230.8" r="3" fill="#f28e2b"/><circle cx="381.6" cy="183.5" r="3" fill="#f28e2b"/><circle cx="394.3" cy="186.0" r="3" fill="#f28e2b"/><circle cx="407.0" cy="230.8" r="3" fill="#f28e2b"/><circle cx="419.7" cy="229.5" r="3" fill="#f28e2b"/><circle cx="432.3" cy="228.3" r="3" fill="#f28e2b"/><circle cx="445.0" cy="228.3" r="3" fill="#f28e2b"/><circle cx="457.7" cy="219.6" r="3" fill="#f28e2b"/><circle cx="470.4" cy="218.3" r="3" fill="#f28e2b"/><circle cx="483.1" cy="229.5" r="3" fill="#f28e2b"/><circle cx="495.7" cy="228.3" r="3" fill="#f28e2b"/><circle cx="508.4" cy="230.8" r="3" fill="#f28e2b"/><circle cx="521.1" cy="232.0" r="3" fill="#f28e2b"/><circle cx="533.8" cy="207.1" r="3" fill="#f28e2b"/><circle cx="546.4" cy="210.9" r="3" fill="#f28e2b"/><circle cx="559.1" cy="229.5" r="3" fill="#f28e2b"/><circle cx="571.8" cy="228.3" r="3" fill="#f28e2b"/><circle cx="584.5" cy="230.8" r="3" fill="#f28e2b"/><circle cx="597.2" cy="230.8" r="3" fill="#f28e2b"/><circle cx="609.8" cy="229.5" r="3" fill="#f28e2b"/><circle cx="622.5" cy="230.8" r="3" fill="#f28e2b"/><circle cx="635.2" cy="229.5" r="3" fill="#f28e2b"/><circle cx="647.9" cy="230.8" r="3" fill="#f28e2b"/><circle cx="660.5" cy="232.0" r="3" fill="#f28e2b"/><circle cx="673.2" cy="229.5" r="3" fill="#f28e2b"/><circle cx="685.9" cy="229.5" r="3" fill="#f28e2b"/><circle cx="698.6" cy="232.0" r="3" fill="#f28e2b"/><circle cx="711.3" cy="230.8" r="3" fill="#f28e2b"/><circle cx="723.9" cy="230.8" r="3" fill="#f28e2b"/><circle cx="736.6" cy="228.3" r="3" fill="#f28e2b"/><circle cx="749.3" cy="230.8" r="3" fill="#f28e2b"/><circle cx="762.0" cy="229.5" r="3" fill="#f28e2b"/><circle cx="774.6" cy="229.5" r="3" fill="#f28e2b"/><circle cx="787.3" cy="230.8" r="3" fill="#f28e2b"/><circle cx="800.0" cy="229.5" r="3" fill="#f28e2b"/>

  <!-- axes -->
  <line x1="52" y1="28" x2="52" y2="232"
        stroke="#cccccc" stroke-width="1"/>
  <line x1="52" y1="232" x2="800" y2="232"
        stroke="#cccccc" stroke-width="1"/>

  <!-- y-axis labels -->
  <text x="47" y="236.0" text-anchor="end" font-size="10" fill="#57606a" font-family="ui-monospace, SFMono-Regular, 'SF Mono', Menlo, monospace">0</text><text x="47" y="198.7" text-anchor="end" font-size="10" fill="#57606a" font-family="ui-monospace, SFMono-Regular, 'SF Mono', Menlo, monospace">30</text><text x="47" y="161.4" text-anchor="end" font-size="10" fill="#57606a" font-family="ui-monospace, SFMono-Regular, 'SF Mono', Menlo, monospace">60</text><text x="47" y="124.0" text-anchor="end" font-size="10" fill="#57606a" font-family="ui-monospace, SFMono-Regular, 'SF Mono', Menlo, monospace">90</text><text x="47" y="86.7" text-anchor="end" font-size="10" fill="#57606a" font-family="ui-monospace, SFMono-Regular, 'SF Mono', Menlo, monospace">120</text><text x="47" y="49.4" text-anchor="end" font-size="10" fill="#57606a" font-family="ui-monospace, SFMono-Regular, 'SF Mono', Menlo, monospace">150</text><text x="47" y="12.1" text-anchor="end" font-size="10" fill="#57606a" font-family="ui-monospace, SFMono-Regular, 'SF Mono', Menlo, monospace">180</text>

  <!-- x-axis labels -->
  <text x="52.0" y="248" text-anchor="middle" font-size="10" fill="#8c959f" font-family="ui-monospace, SFMono-Regular, 'SF Mono', Menlo, monospace">05-11</text><text x="495.7" y="248" text-anchor="middle" font-size="10" fill="#8c959f" font-family="ui-monospace, SFMono-Regular, 'SF Mono', Menlo, monospace">06-15</text><text x="140.7" y="248" text-anchor="middle" font-size="10" fill="#8c959f" font-family="ui-monospace, SFMono-Regular, 'SF Mono', Menlo, monospace">05-18</text><text x="584.5" y="248" text-anchor="middle" font-size="10" fill="#8c959f" font-family="ui-monospace, SFMono-Regular, 'SF Mono', Menlo, monospace">06-22</text><text x="229.5" y="248" text-anchor="middle" font-size="10" fill="#8c959f" font-family="ui-monospace, SFMono-Regular, 'SF Mono', Menlo, monospace">05-25</text><text x="673.2" y="248" text-anchor="middle" font-size="10" fill="#8c959f" font-family="ui-monospace, SFMono-Regular, 'SF Mono', Menlo, monospace">06-29</text><text x="318.2" y="248" text-anchor="middle" font-size="10" fill="#8c959f" font-family="ui-monospace, SFMono-Regular, 'SF Mono', Menlo, monospace">06-01</text><text x="762.0" y="248" text-anchor="middle" font-size="10" fill="#8c959f" font-family="ui-monospace, SFMono-Regular, 'SF Mono', Menlo, monospace">07-06</text><text x="800.0" y="248" text-anchor="middle" font-size="10" fill="#8c959f" font-family="ui-monospace, SFMono-Regular, 'SF Mono', Menlo, monospace">07-09</text><text x="407.0" y="248" text-anchor="middle" font-size="10" fill="#8c959f" font-family="ui-monospace, SFMono-Regular, 'SF Mono', Menlo, monospace">06-08</text>

  <!-- legend -->
  <rect x="60" y="262" width="16" height="3" fill="#4e79a7" rx="1"/><text x="80" y="268" font-size="11" fill="#57606a" font-family="-apple-system, BlinkMacSystemFont, 'Segoe UI', sans-serif">Total clones (1,245)</text><line x1="230" y1="264" x2="246" y2="264" stroke="#f28e2b" stroke-width="2" stroke-dasharray="5,3"/><text x="250" y="268" font-size="11" fill="#57606a" font-family="-apple-system, BlinkMacSystemFont, 'Segoe UI', sans-serif">Unique cloners</text>

</svg>