<svg xmlns="http://www.w3.org/2000/svg" viewBox="0 0 820 280" width="820" height="280">

  <!-- title -->
  <text x="52" y="18" font-size="13" font-weight="600"
        fill="#24292f" font-family="-apple-system, BlinkMacSystemFont, 'Segoe UI', sans-serif"
        >Clone traffic — 500ad</text>
  <text x="800" y="18" font-size="10" fill="#8c959f"
        font-family="ui-monospace, SFMono-Regular, 'SF Mono', Menlo, monospace" text-anchor="end">2026-07-22</text>

  <!-- grid -->
  <line x1="52" y1="232.0" x2="800" y2="232.0" stroke="#e8e8e8" stroke-width="1"/><line x1="52" y1="194.7" x2="800" y2="194.7" stroke="#e8e8e8" stroke-width="1"/><line x1="52" y1="157.4" x2="800" y2="157.4" stroke="#e8e8e8" stroke-width="1"/><line x1="52" y1="120.0" x2="800" y2="120.0" stroke="#e8e8e8" stroke-width="1"/><line x1="52" y1="82.7" x2="800" y2="82.7" stroke="#e8e8e8" stroke-width="1"/><line x1="52" y1="45.4" x2="800" y2="45.4" stroke="#e8e8e8" stroke-width="1"/><line x1="52" y1="8.1" x2="800" y2="8.1" stroke="#e8e8e8" stroke-width="1"/>

  <!-- area fill -->
  <path d="M52.0,232.0 L52.0,232.0 L62.7,230.8 L73.4,229.5 L84.1,232.0 L94.7,232.0 L105.4,232.0 L116.1,232.0 L126.8,232.0 L137.5,228.3 L148.2,232.0 L158.9,229.5 L169.5,74.0 L180.2,100.1 L190.9,28.0 L201.6,217.1 L212.3,218.3 L223.0,232.0 L233.7,30.5 L244.3,193.4 L255.0,163.6 L265.7,225.8 L276.4,223.3 L287.1,225.8 L297.8,230.8 L308.5,232.0 L319.1,230.8 L329.8,105.1 L340.5,113.8 L351.2,229.5 L361.9,229.5 L372.6,225.8 L383.3,228.3 L393.9,203.4 L404.6,166.1 L415.3,225.8 L426.0,208.4 L436.7,230.8 L447.4,232.0 L458.1,122.5 L468.7,102.6 L479.4,222.0 L490.1,217.1 L500.8,230.8 L511.5,230.8 L522.2,229.5 L532.9,230.8 L543.5,229.5 L554.2,230.8 L564.9,232.0 L575.6,228.3 L586.3,229.5 L597.0,232.0 L607.7,230.8 L618.3,230.8 L629.0,227.0 L639.7,230.8 L650.4,228.3 L661.1,229.5 L671.8,230.8 L682.5,229.5 L693.1,228.3 L703.8,230.8 L714.5,229.5 L725.2,229.5 L735.9,219.6 L746.6,232.0 L757.3,230.8 L767.9,230.8 L778.6,229.5 L789.3,230.8 L800.0,230.8 L800.0,232.0 L52.0,232.0Z" fill="#4e79a7" opacity="0.12"/>

  <!-- lines -->
  <polyline points="52.0,232.0 62.7,230.8 73.4,229.5 84.1,232.0 94.7,232.0 105.4,232.0 116.1,232.0 126.8,232.0 137.5,228.3 148.2,232.0 158.9,229.5 169.5,74.0 180.2,100.1 190.9,28.0 201.6,217.1 212.3,218.3 223.0,232.0 233.7,30.5 244.3,193.4 255.0,163.6 265.7,225.8 276.4,223.3 287.1,225.8 297.8,230.8 308.5,232.0 319.1,230.8 329.8,105.1 340.5,113.8 351.2,229.5 361.9,229.5 372.6,225.8 383.3,228.3 393.9,203.4 404.6,166.1 415.3,225.8 426.0,208.4 436.7,230.8 447.4,232.0 458.1,122.5 468.7,102.6 479.4,222.0 490.1,217.1 500.8,230.8 511.5,230.8 522.2,229.5 532.9,230.8 543.5,229.5 554.2,230.8 564.9,232.0 575.6,228.3 586.3,229.5 597.0,232.0 607.7,230.8 618.3,230.8 629.0,227.0 639.7,230.8 650.4,228.3 661.1,229.5 671.8,230.8 682.5,229.5 693.1,228.3 703.8,230.8 714.5,229.5 725.2,229.5 735.9,219.6 746.6,232.0 757.3,230.8 767.9,230.8 778.6,229.5 789.3,230.8 800.0,230.8"
            fill="none" stroke="#4e79a7"
            stroke-width="2" stroke-linejoin="round"/>
  <polyline points="52.0,232.0 62.7,230.8 73.4,229.5 84.1,232.0 94.7,232.0 105.4,232.0 116.1,232.0 126.8,232.0 137.5,229.5 148.2,232.0 158.9,229.5 169.5,177.3 180.2,156.1 190.9,125.0 201.6,228.3 212.3,228.3 223.0,232.0 233.7,147.4 244.3,210.9 255.0,210.9 265.7,227.0 276.4,228.3 287.1,229.5 297.8,230.8 308.5,232.0 319.1,230.8 329.8,183.5 340.5,186.0 351.2,230.8 361.9,229.5 372.6,228.3 383.3,228.3 393.9,219.6 404.6,218.3 415.3,229.5 426.0,228.3 436.7,230.8 447.4,232.0 458.1,207.1 468.7,210.9 479.4,229.5 490.1,228.3 500.8,230.8 511.5,230.8 522.2,229.5 532.9,230.8 543.5,229.5 554.2,230.8 564.9,232.0 575.6,229.5 586.3,229.5 597.0,232.0 607.7,230.8 618.3,230.8 629.0,228.3 639.7,230.8 650.4,229.5 661.1,229.5 671.8,230.8 682.5,229.5 693.1,229.5 703.8,230.8 714.5,229.5 725.2,229.5 735.9,228.3 746.6,232.0 757.3,230.8 767.9,230.8 778.6,229.5 789.3,230.8 800.0,230.8"
            fill="none" stroke="#f28e2b"
            stroke-width="2" stroke-linejoin="round"
            stroke-dasharray="5,3"/>

  <!-- dots -->
  <circle cx="52.0" cy="232.0" r="3" fill="#4e79a7"/><circle cx="62.7" cy="230.8" r="3" fill="#4e79a7"/><circle cx="73.4" cy="229.5" r="3" fill="#4e79a7"/><circle cx="84.1" cy="232.0" r="3" fill="#4e79a7"/><circle cx="94.7" cy="232.0" r="3" fill="#4e79a7"/><circle cx="105.4" cy="232.0" r="3" fill="#4e79a7"/><circle cx="116.1" cy="232.0" r="3" fill="#4e79a7"/><circle cx="126.8" cy="232.0" r="3" fill="#4e79a7"/><circle cx="137.5" cy="228.3" r="3" fill="#4e79a7"/><circle cx="148.2" cy="232.0" r="3" fill="#4e79a7"/><circle cx="158.9" cy="229.5" r="3" fill="#4e79a7"/><circle cx="169.5" cy="74.0" r="3" fill="#4e79a7"/><circle cx="180.2" cy="100.1" r="3" fill="#4e79a7"/><circle cx="190.9" cy="28.0" r="3" fill="#4e79a7"/><circle cx="201.6" cy="217.1" r="3" fill="#4e79a7"/><circle cx="212.3" cy="218.3" r="3" fill="#4e79a7"/><circle cx="223.0" cy="232.0" r="3" fill="#4e79a7"/><circle cx="233.7" cy="30.5" r="3" fill="#4e79a7"/><circle cx="244.3" cy="193.4" r="3" fill="#4e79a7"/><circle cx="255.0" cy="163.6" r="3" fill="#4e79a7"/><circle cx="265.7" cy="225.8" r="3" fill="#4e79a7"/><circle cx="276.4" cy="223.3" r="3" fill="#4e79a7"/><circle cx="287.1" cy="225.8" r="3" fill="#4e79a7"/><circle cx="297.8" cy="230.8" r="3" fill="#4e79a7"/><circle cx="308.5" cy="232.0" r="3" fill="#4e79a7"/><circle cx="319.1" cy="230.8" r="3" fill="#4e79a7"/><circle cx="329.8" cy="105.1" r="3" fill="#4e79a7"/><circle cx="340.5" cy="113.8" r="3" fill="#4e79a7"/><circle cx="351.2" cy="229.5" r="3" fill="#4e79a7"/><circle cx="361.9" cy="229.5" r="3" fill="#4e79a7"/><circle cx="372.6" cy="225.8" r="3" fill="#4e79a7"/><circle cx="383.3" cy="228.3" r="3" fill="#4e79a7"/><circle cx="393.9" cy="203.4" r="3" fill="#4e79a7"/><circle cx="404.6" cy="166.1" r="3" fill="#4e79a7"/><circle cx="415.3" cy="225.8" r="3" fill="#4e79a7"/><circle cx="426.0" cy="208.4" r="3" fill="#4e79a7"/><circle cx="436.7" cy="230.8" r="3" fill="#4e79a7"/><circle cx="447.4" cy="232.0" r="3" fill="#4e79a7"/><circle cx="458.1" cy="122.5" r="3" fill="#4e79a7"/><circle cx="468.7" cy="102.6" r="3" fill="#4e79a7"/><circle cx="479.4" cy="222.0" r="3" fill="#4e79a7"/><circle cx="490.1" cy="217.1" r="3" fill="#4e79a7"/><circle cx="500.8" cy="230.8" r="3" fill="#4e79a7"/><circle cx="511.5" cy="230.8" r="3" fill="#4e79a7"/><circle cx="522.2" cy="229.5" r="3" fill="#4e79a7"/><circle cx="532.9" cy="230.8" r="3" fill="#4e79a7"/><circle cx="543.5" cy="229.5" r="3" fill="#4e79a7"/><circle cx="554.2" cy="230.8" r="3" fill="#4e79a7"/><circle cx="564.9" cy="232.0" r="3" fill="#4e79a7"/><circle cx="575.6" cy="228.3" r="3" fill="#4e79a7"/><circle cx="586.3" cy="229.5" r="3" fill="#4e79a7"/><circle cx="597.0" cy="232.0" r="3" fill="#4e79a7"/><circle cx="607.7" cy="230.8" r="3" fill="#4e79a7"/><circle cx="618.3" cy="230.8" r="3" fill="#4e79a7"/><circle cx="629.0" cy="227.0" r="3" fill="#4e79a7"/><circle cx="639.7" cy="230.8" r="3" fill="#4e79a7"/><circle cx="650.4" cy="228.3" r="3" fill="#4e79a7"/><circle cx="661.1" cy="229.5" r="3" fill="#4e79a7"/><circle cx="671.8" cy="230.8" r="3" fill="#4e79a7"/><circle cx="682.5" cy="229.5" r="3" fill="#4e79a7"/><circle cx="693.1" cy="228.3" r="3" fill="#4e79a7"/><circle cx="703.8" cy="230.8" r="3" fill="#4e79a7"/><circle cx="714.5" cy="229.5" r="3" fill="#4e79a7"/><circle cx="725.2" cy="229.5" r="3" fill="#4e79a7"/><circle cx="735.9" cy="219.6" r="3" fill="#4e79a7"/><circle cx="746.6" cy="232.0" r="3" fill="#4e79a7"/><circle cx="757.3" cy="230.8" r="3" fill="#4e79a7"/><circle cx="767.9" cy="230.8" r="3" fill="#4e79a7"/><circle cx="778.6" cy="229.5" r="3" fill="#4e79a7"/><circle cx="789.3" cy="230.8" r="3" fill="#4e79a7"/><circle cx="800.0" cy="230.8" r="3" fill="#4e79a7"/>
  <circle cx="52.0" cy="232.0" r="3" fill="#f28e2b"/><circle cx="62.7" cy="230.8" r="3" fill="#f28e2b"/><circle cx="73.4" cy="229.5" r="3" fill="#f28e2b"/><circle cx="84.1" cy="232.0" r="3" fill="#f28e2b"/><circle cx="94.7" cy="232.0" r="3" fill="#f28e2b"/><circle cx="105.4" cy="232.0" r="3" fill="#f28e2b"/><circle cx="116.1" cy="232.0" r="3" fill="#f28e2b"/><circle cx="126.8" cy="232.0" r="3" fill="#f28e2b"/><circle cx="137.5" cy="229.5" r="3" fill="#f28e2b"/><circle cx="148.2" cy="232.0" r="3" fill="#f28e2b"/><circle cx="158.9" cy="229.5" r="3" fill="#f28e2b"/><circle cx="169.5" cy="177.3" r="3" fill="#f28e2b"/><circle cx="180.2" cy="156.1" r="3" fill="#f28e2b"/><circle cx="190.9" cy="125.0" r="3" fill="#f28e2b"/><circle cx="201.6" cy="228.3" r="3" fill="#f28e2b"/><circle cx="212.3" cy="228.3" r="3" fill="#f28e2b"/><circle cx="223.0" cy="232.0" r="3" fill="#f28e2b"/><circle cx="233.7" cy="147.4" r="3" fill="#f28e2b"/><circle cx="244.3" cy="210.9" r="3" fill="#f28e2b"/><circle cx="255.0" cy="210.9" r="3" fill="#f28e2b"/><circle cx="265.7" cy="227.0" r="3" fill="#f28e2b"/><circle cx="276.4" cy="228.3" r="3" fill="#f28e2b"/><circle cx="287.1" cy="229.5" r="3" fill="#f28e2b"/><circle cx="297.8" cy="230.8" r="3" fill="#f28e2b"/><circle cx="308.5" cy="232.0" r="3" fill="#f28e2b"/><circle cx="319.1" cy="230.8" r="3" fill="#f28e2b"/><circle cx="329.8" cy="183.5" r="3" fill="#f28e2b"/><circle cx="340.5" cy="186.0" r="3" fill="#f28e2b"/><circle cx="351.2" cy="230.8" r="3" fill="#f28e2b"/><circle cx="361.9" cy="229.5" r="3" fill="#f28e2b"/><circle cx="372.6" cy="228.3" r="3" fill="#f28e2b"/><circle cx="383.3" cy="228.3" r="3" fill="#f28e2b"/><circle cx="393.9" cy="219.6" r="3" fill="#f28e2b"/><circle cx="404.6" cy="218.3" r="3" fill="#f28e2b"/><circle cx="415.3" cy="229.5" r="3" fill="#f28e2b"/><circle cx="426.0" cy="228.3" r="3" fill="#f28e2b"/><circle cx="436.7" cy="230.8" r="3" fill="#f28e2b"/><circle cx="447.4" cy="232.0" r="3" fill="#f28e2b"/><circle cx="458.1" cy="207.1" r="3" fill="#f28e2b"/><circle cx="468.7" cy="210.9" r="3" fill="#f28e2b"/><circle cx="479.4" cy="229.5" r="3" fill="#f28e2b"/><circle cx="490.1" cy="228.3" r="3" fill="#f28e2b"/><circle cx="500.8" cy="230.8" r="3" fill="#f28e2b"/><circle cx="511.5" cy="230.8" r="3" fill="#f28e2b"/><circle cx="522.2" cy="229.5" r="3" fill="#f28e2b"/><circle cx="532.9" cy="230.8" r="3" fill="#f28e2b"/><circle cx="543.5" cy="229.5" r="3" fill="#f28e2b"/><circle cx="554.2" cy="230.8" r="3" fill="#f28e2b"/><circle cx="564.9" cy="232.0" r="3" fill="#f28e2b"/><circle cx="575.6" cy="229.5" r="3" fill="#f28e2b"/><circle cx="586.3" cy="229.5" r="3" fill="#f28e2b"/><circle cx="597.0" cy="232.0" r="3" fill="#f28e2b"/><circle cx="607.7" cy="230.8" r="3" fill="#f28e2b"/><circle cx="618.3" cy="230.8" r="3" fill="#f28e2b"/><circle cx="629.0" cy="228.3" r="3" fill="#f28e2b"/><circle cx="639.7" cy="230.8" r="3" fill="#f28e2b"/><circle cx="650.4" cy="229.5" r="3" fill="#f28e2b"/><circle cx="661.1" cy="229.5" r="3" fill="#f28e2b"/><circle cx="671.8" cy="230.8" r="3" fill="#f28e2b"/><circle cx="682.5" cy="229.5" r="3" fill="#f28e2b"/><circle cx="693.1" cy="229.5" r="3" fill="#f28e2b"/><circle cx="703.8" cy="230.8" r="3" fill="#f28e2b"/><circle cx="714.5" cy="229.5" r="3" fill="#f28e2b"/><circle cx="725.2" cy="229.5" r="3" fill="#f28e2b"/><circle cx="735.9" cy="228.3" r="3" fill="#f28e2b"/><circle cx="746.6" cy="232.0" r="3" fill="#f28e2b"/><circle cx="757.3" cy="230.8" r="3" fill="#f28e2b"/><circle cx="767.9" cy="230.8" r="3" fill="#f28e2b"/><circle cx="778.6" cy="229.5" r="3" fill="#f28e2b"/><circle cx="789.3" cy="230.8" r="3" fill="#f28e2b"/><circle cx="800.0" cy="230.8" r="3" fill="#f28e2b"/>

  <!-- axes -->
  <line x1="52" y1="28" x2="52" y2="232"
        stroke="#cccccc" stroke-width="1"/>
  <line x1="52" y1="232" x2="800" y2="232"
        stroke="#cccccc" stroke-width="1"/>

  <!-- y-axis labels -->
  <text x="47" y="236.0" text-anchor="end" font-size="10" fill="#57606a" font-family="ui-monospace, SFMono-Regular, 'SF Mono', Menlo, monospace">0</text><text x="47" y="198.7" text-anchor="end" font-size="10" fill="#57606a" font-family="ui-monospace, SFMono-Regular, 'SF Mono', Menlo, monospace">30</text><text x="47" y="161.4" text-anchor="end" font-size="10" fill="#57606a" font-family="ui-monospace, SFMono-Regular, 'SF Mono', Menlo, monospace">60</text><text x="47" y="124.0" text-anchor="end" font-size="10" fill="#57606a" font-family="ui-monospace, SFMono-Regular, 'SF Mono', Menlo, monospace">90</text><text x="47" y="86.7" text-anchor="end" font-size="10" fill="#57606a" font-family="ui-monospace, SFMono-Regular, 'SF Mono', Menlo, monospace">120</text><text x="47" y="49.4" text-anchor="end" font-size="10" fill="#57606a" font-family="ui-monospace, SFMono-Regular, 'SF Mono', Menlo, monospace">150</text><text x="47" y="12.1" text-anchor="end" font-size="10" fill="#57606a" font-family="ui-monospace, SFMono-Regular, 'SF Mono', Menlo, monospace">180</text>

  <!-- x-axis labels -->
  <text x="52.0" y="248" text-anchor="middle" font-size="10" fill="#8c959f" font-family="ui-monospace, SFMono-Regular, 'SF Mono', Menlo, monospace">05-11</text><text x="393.9" y="248" text-anchor="middle" font-size="10" fill="#8c959f" font-family="ui-monospace, SFMono-Regular, 'SF Mono', Menlo, monospace">06-12</text><text x="735.9" y="248" text-anchor="middle" font-size="10" fill="#8c959f" font-family="ui-monospace, SFMono-Regular, 'SF Mono', Menlo, monospace">07-14</text><text x="800.0" y="248" text-anchor="middle" font-size="10" fill="#8c959f" font-family="ui-monospace, SFMono-Regular, 'SF Mono', Menlo, monospace">07-20</text><text x="137.5" y="248" text-anchor="middle" font-size="10" fill="#8c959f" font-family="ui-monospace, SFMono-Regular, 'SF Mono', Menlo, monospace">05-19</text><text x="479.4" y="248" text-anchor="middle" font-size="10" fill="#8c959f" font-family="ui-monospace, SFMono-Regular, 'SF Mono', Menlo, monospace">06-20</text><text x="223.0" y="248" text-anchor="middle" font-size="10" fill="#8c959f" font-family="ui-monospace, SFMono-Regular, 'SF Mono', Menlo, monospace">05-27</text><text x="564.9" y="248" text-anchor="middle" font-size="10" fill="#8c959f" font-family="ui-monospace, SFMono-Regular, 'SF Mono', Menlo, monospace">06-28</text><text x="308.5" y="248" text-anchor="middle" font-size="10" fill="#8c959f" font-family="ui-monospace, SFMono-Regular, 'SF Mono', Menlo, monospace">06-04</text><text x="650.4" y="248" text-anchor="middle" font-size="10" fill="#8c959f" font-family="ui-monospace, SFMono-Regular, 'SF Mono', Menlo, monospace">07-06</text>

  <!-- legend -->
  <rect x="60" y="262" width="16" height="3" fill="#4e79a7" rx="1"/><text x="80" y="268" font-size="11" fill="#57606a" font-family="-apple-system, BlinkMacSystemFont, 'Segoe UI', sans-serif">Total clones (1,269)</text><line x1="230" y1="264" x2="246" y2="264" stroke="#f28e2b" stroke-width="2" stroke-dasharray="5,3"/><text x="250" y="268" font-size="11" fill="#57606a" font-family="-apple-system, BlinkMacSystemFont, 'Segoe UI', sans-serif">Unique cloners</text>

</svg>