<svg xmlns="http://www.w3.org/2000/svg" viewBox="0 0 820 280" width="820" height="280">

  <!-- title -->
  <text x="52" y="18" font-size="13" font-weight="600"
        fill="#24292f" font-family="-apple-system, BlinkMacSystemFont, 'Segoe UI', sans-serif"
        >Clone traffic — 500ad</text>
  <text x="800" y="18" font-size="10" fill="#8c959f"
        font-family="ui-monospace, SFMono-Regular, 'SF Mono', Menlo, monospace" text-anchor="end">2026-06-29</text>

  <!-- grid -->
  <line x1="52" y1="232.0" x2="800" y2="232.0" stroke="#e8e8e8" stroke-width="1"/><line x1="52" y1="194.7" x2="800" y2="194.7" stroke="#e8e8e8" stroke-width="1"/><line x1="52" y1="157.4" x2="800" y2="157.4" stroke="#e8e8e8" stroke-width="1"/><line x1="52" y1="120.0" x2="800" y2="120.0" stroke="#e8e8e8" stroke-width="1"/><line x1="52" y1="82.7" x2="800" y2="82.7" stroke="#e8e8e8" stroke-width="1"/><line x1="52" y1="45.4" x2="800" y2="45.4" stroke="#e8e8e8" stroke-width="1"/><line x1="52" y1="8.1" x2="800" y2="8.1" stroke="#e8e8e8" stroke-width="1"/>

  <!-- area fill -->
  <path d="M52.0,232.0 L52.0,232.0 L67.9,230.8 L83.8,229.5 L99.7,232.0 L115.7,232.0 L131.6,232.0 L147.5,232.0 L163.4,232.0 L179.3,228.3 L195.2,232.0 L211.1,229.5 L227.1,74.0 L243.0,100.1 L258.9,28.0 L274.8,217.1 L290.7,218.3 L306.6,232.0 L322.6,30.5 L338.5,193.4 L354.4,163.6 L370.3,225.8 L386.2,223.3 L402.1,225.8 L418.0,230.8 L434.0,232.0 L449.9,230.8 L465.8,105.1 L481.7,113.8 L497.6,229.5 L513.5,229.5 L529.4,225.8 L545.4,228.3 L561.3,203.4 L577.2,166.1 L593.1,225.8 L609.0,208.4 L624.9,230.8 L640.9,232.0 L656.8,122.5 L672.7,102.6 L688.6,222.0 L704.5,217.1 L720.4,230.8 L736.3,230.8 L752.3,229.5 L768.2,230.8 L784.1,229.5 L800.0,230.8 L800.0,232.0 L52.0,232.0Z" fill="#4e79a7" opacity="0.12"/>

  <!-- lines -->
  <polyline points="52.0,232.0 67.9,230.8 83.8,229.5 99.7,232.0 115.7,232.0 131.6,232.0 147.5,232.0 163.4,232.0 179.3,228.3 195.2,232.0 211.1,229.5 227.1,74.0 243.0,100.1 258.9,28.0 274.8,217.1 290.7,218.3 306.6,232.0 322.6,30.5 338.5,193.4 354.4,163.6 370.3,225.8 386.2,223.3 402.1,225.8 418.0,230.8 434.0,232.0 449.9,230.8 465.8,105.1 481.7,113.8 497.6,229.5 513.5,229.5 529.4,225.8 545.4,228.3 561.3,203.4 577.2,166.1 593.1,225.8 609.0,208.4 624.9,230.8 640.9,232.0 656.8,122.5 672.7,102.6 688.6,222.0 704.5,217.1 720.4,230.8 736.3,230.8 752.3,229.5 768.2,230.8 784.1,229.5 800.0,230.8"
            fill="none" stroke="#4e79a7"
            stroke-width="2" stroke-linejoin="round"/>
  <polyline points="52.0,232.0 67.9,230.8 83.8,229.5 99.7,232.0 115.7,232.0 131.6,232.0 147.5,232.0 163.4,232.0 179.3,229.5 195.2,232.0 211.1,229.5 227.1,177.3 243.0,156.1 258.9,125.0 274.8,228.3 290.7,228.3 306.6,232.0 322.6,147.4 338.5,210.9 354.4,210.9 370.3,227.0 386.2,228.3 402.1,229.5 418.0,230.8 434.0,232.0 449.9,230.8 465.8,183.5 481.7,186.0 497.6,230.8 513.5,229.5 529.4,228.3 545.4,228.3 561.3,219.6 577.2,218.3 593.1,229.5 609.0,228.3 624.9,230.8 640.9,232.0 656.8,207.1 672.7,210.9 688.6,229.5 704.5,228.3 720.4,230.8 736.3,230.8 752.3,229.5 768.2,230.8 784.1,229.5 800.0,230.8"
            fill="none" stroke="#f28e2b"
            stroke-width="2" stroke-linejoin="round"
            stroke-dasharray="5,3"/>

  <!-- dots -->
  <circle cx="52.0" cy="232.0" r="3" fill="#4e79a7"/><circle cx="67.9" cy="230.8" r="3" fill="#4e79a7"/><circle cx="83.8" cy="229.5" r="3" fill="#4e79a7"/><circle cx="99.7" cy="232.0" r="3" fill="#4e79a7"/><circle cx="115.7" cy="232.0" r="3" fill="#4e79a7"/><circle cx="131.6" cy="232.0" r="3" fill="#4e79a7"/><circle cx="147.5" cy="232.0" r="3" fill="#4e79a7"/><circle cx="163.4" cy="232.0" r="3" fill="#4e79a7"/><circle cx="179.3" cy="228.3" r="3" fill="#4e79a7"/><circle cx="195.2" cy="232.0" r="3" fill="#4e79a7"/><circle cx="211.1" cy="229.5" r="3" fill="#4e79a7"/><circle cx="227.1" cy="74.0" r="3" fill="#4e79a7"/><circle cx="243.0" cy="100.1" r="3" fill="#4e79a7"/><circle cx="258.9" cy="28.0" r="3" fill="#4e79a7"/><circle cx="274.8" cy="217.1" r="3" fill="#4e79a7"/><circle cx="290.7" cy="218.3" r="3" fill="#4e79a7"/><circle cx="306.6" cy="232.0" r="3" fill="#4e79a7"/><circle cx="322.6" cy="30.5" r="3" fill="#4e79a7"/><circle cx="338.5" cy="193.4" r="3" fill="#4e79a7"/><circle cx="354.4" cy="163.6" r="3" fill="#4e79a7"/><circle cx="370.3" cy="225.8" r="3" fill="#4e79a7"/><circle cx="386.2" cy="223.3" r="3" fill="#4e79a7"/><circle cx="402.1" cy="225.8" r="3" fill="#4e79a7"/><circle cx="418.0" cy="230.8" r="3" fill="#4e79a7"/><circle cx="434.0" cy="232.0" r="3" fill="#4e79a7"/><circle cx="449.9" cy="230.8" r="3" fill="#4e79a7"/><circle cx="465.8" cy="105.1" r="3" fill="#4e79a7"/><circle cx="481.7" cy="113.8" r="3" fill="#4e79a7"/><circle cx="497.6" cy="229.5" r="3" fill="#4e79a7"/><circle cx="513.5" cy="229.5" r="3" fill="#4e79a7"/><circle cx="529.4" cy="225.8" r="3" fill="#4e79a7"/><circle cx="545.4" cy="228.3" r="3" fill="#4e79a7"/><circle cx="561.3" cy="203.4" r="3" fill="#4e79a7"/><circle cx="577.2" cy="166.1" r="3" fill="#4e79a7"/><circle cx="593.1" cy="225.8" r="3" fill="#4e79a7"/><circle cx="609.0" cy="208.4" r="3" fill="#4e79a7"/><circle cx="624.9" cy="230.8" r="3" fill="#4e79a7"/><circle cx="640.9" cy="232.0" r="3" fill="#4e79a7"/><circle cx="656.8" cy="122.5" r="3" fill="#4e79a7"/><circle cx="672.7" cy="102.6" r="3" fill="#4e79a7"/><circle cx="688.6" cy="222.0" r="3" fill="#4e79a7"/><circle cx="704.5" cy="217.1" r="3" fill="#4e79a7"/><circle cx="720.4" cy="230.8" r="3" fill="#4e79a7"/><circle cx="736.3" cy="230.8" r="3" fill="#4e79a7"/><circle cx="752.3" cy="229.5" r="3" fill="#4e79a7"/><circle cx="768.2" cy="230.8" r="3" fill="#4e79a7"/><circle cx="784.1" cy="229.5" r="3" fill="#4e79a7"/><circle cx="800.0" cy="230.8" r="3" fill="#4e79a7"/>
  <circle cx="52.0" cy="232.0" r="3" fill="#f28e2b"/><circle cx="67.9" cy="230.8" r="3" fill="#f28e2b"/><circle cx="83.8" cy="229.5" r="3" fill="#f28e2b"/><circle cx="99.7" cy="232.0" r="3" fill="#f28e2b"/><circle cx="115.7" cy="232.0" r="3" fill="#f28e2b"/><circle cx="131.6" cy="232.0" r="3" fill="#f28e2b"/><circle cx="147.5" cy="232.0" r="3" fill="#f28e2b"/><circle cx="163.4" cy="232.0" r="3" fill="#f28e2b"/><circle cx="179.3" cy="229.5" r="3" fill="#f28e2b"/><circle cx="195.2" cy="232.0" r="3" fill="#f28e2b"/><circle cx="211.1" cy="229.5" r="3" fill="#f28e2b"/><circle cx="227.1" cy="177.3" r="3" fill="#f28e2b"/><circle cx="243.0" cy="156.1" r="3" fill="#f28e2b"/><circle cx="258.9" cy="125.0" r="3" fill="#f28e2b"/><circle cx="274.8" cy="228.3" r="3" fill="#f28e2b"/><circle cx="290.7" cy="228.3" r="3" fill="#f28e2b"/><circle cx="306.6" cy="232.0" r="3" fill="#f28e2b"/><circle cx="322.6" cy="147.4" r="3" fill="#f28e2b"/><circle cx="338.5" cy="210.9" r="3" fill="#f28e2b"/><circle cx="354.4" cy="210.9" r="3" fill="#f28e2b"/><circle cx="370.3" cy="227.0" r="3" fill="#f28e2b"/><circle cx="386.2" cy="228.3" r="3" fill="#f28e2b"/><circle cx="402.1" cy="229.5" r="3" fill="#f28e2b"/><circle cx="418.0" cy="230.8" r="3" fill="#f28e2b"/><circle cx="434.0" cy="232.0" r="3" fill="#f28e2b"/><circle cx="449.9" cy="230.8" r="3" fill="#f28e2b"/><circle cx="465.8" cy="183.5" r="3" fill="#f28e2b"/><circle cx="481.7" cy="186.0" r="3" fill="#f28e2b"/><circle cx="497.6" cy="230.8" r="3" fill="#f28e2b"/><circle cx="513.5" cy="229.5" r="3" fill="#f28e2b"/><circle cx="529.4" cy="228.3" r="3" fill="#f28e2b"/><circle cx="545.4" cy="228.3" r="3" fill="#f28e2b"/><circle cx="561.3" cy="219.6" r="3" fill="#f28e2b"/><circle cx="577.2" cy="218.3" r="3" fill="#f28e2b"/><circle cx="593.1" cy="229.5" r="3" fill="#f28e2b"/><circle cx="609.0" cy="228.3" r="3" fill="#f28e2b"/><circle cx="624.9" cy="230.8" r="3" fill="#f28e2b"/><circle cx="640.9" cy="232.0" r="3" fill="#f28e2b"/><circle cx="656.8" cy="207.1" r="3" fill="#f28e2b"/><circle cx="672.7" cy="210.9" r="3" fill="#f28e2b"/><circle cx="688.6" cy="229.5" r="3" fill="#f28e2b"/><circle cx="704.5" cy="228.3" r="3" fill="#f28e2b"/><circle cx="720.4" cy="230.8" r="3" fill="#f28e2b"/><circle cx="736.3" cy="230.8" r="3" fill="#f28e2b"/><circle cx="752.3" cy="229.5" r="3" fill="#f28e2b"/><circle cx="768.2" cy="230.8" r="3" fill="#f28e2b"/><circle cx="784.1" cy="229.5" r="3" fill="#f28e2b"/><circle cx="800.0" cy="230.8" r="3" fill="#f28e2b"/>

  <!-- axes -->
  <line x1="52" y1="28" x2="52" y2="232"
        stroke="#cccccc" stroke-width="1"/>
  <line x1="52" y1="232" x2="800" y2="232"
        stroke="#cccccc" stroke-width="1"/>

  <!-- y-axis labels -->
  <text x="47" y="236.0" text-anchor="end" font-size="10" fill="#57606a" font-family="ui-monospace, SFMono-Regular, 'SF Mono', Menlo, monospace">0</text><text x="47" y="198.7" text-anchor="end" font-size="10" fill="#57606a" font-family="ui-monospace, SFMono-Regular, 'SF Mono', Menlo, monospace">30</text><text x="47" y="161.4" text-anchor="end" font-size="10" fill="#57606a" font-family="ui-monospace, SFMono-Regular, 'SF Mono', Menlo, monospace">60</text><text x="47" y="124.0" text-anchor="end" font-size="10" fill="#57606a" font-family="ui-monospace, SFMono-Regular, 'SF Mono', Menlo, monospace">90</text><text x="47" y="86.7" text-anchor="end" font-size="10" fill="#57606a" font-family="ui-monospace, SFMono-Regular, 'SF Mono', Menlo, monospace">120</text><text x="47" y="49.4" text-anchor="end" font-size="10" fill="#57606a" font-family="ui-monospace, SFMono-Regular, 'SF Mono', Menlo, monospace">150</text><text x="47" y="12.1" text-anchor="end" font-size="10" fill="#57606a" font-family="ui-monospace, SFMono-Regular, 'SF Mono', Menlo, monospace">180</text>

  <!-- x-axis labels -->
  <text x="52.0" y="248" text-anchor="middle" font-size="10" fill="#8c959f" font-family="ui-monospace, SFMono-Regular, 'SF Mono', Menlo, monospace">05-11</text><text x="624.9" y="248" text-anchor="middle" font-size="10" fill="#8c959f" font-family="ui-monospace, SFMono-Regular, 'SF Mono', Menlo, monospace">06-16</text><text x="147.5" y="248" text-anchor="middle" font-size="10" fill="#8c959f" font-family="ui-monospace, SFMono-Regular, 'SF Mono', Menlo, monospace">05-17</text><text x="720.4" y="248" text-anchor="middle" font-size="10" fill="#8c959f" font-family="ui-monospace, SFMono-Regular, 'SF Mono', Menlo, monospace">06-22</text><text x="243.0" y="248" text-anchor="middle" font-size="10" fill="#8c959f" font-family="ui-monospace, SFMono-Regular, 'SF Mono', Menlo, monospace">05-23</text><text x="800.0" y="248" text-anchor="middle" font-size="10" fill="#8c959f" font-family="ui-monospace, SFMono-Regular, 'SF Mono', Menlo, monospace">06-27</text><text x="338.5" y="248" text-anchor="middle" font-size="10" fill="#8c959f" font-family="ui-monospace, SFMono-Regular, 'SF Mono', Menlo, monospace">05-29</text><text x="434.0" y="248" text-anchor="middle" font-size="10" fill="#8c959f" font-family="ui-monospace, SFMono-Regular, 'SF Mono', Menlo, monospace">06-04</text><text x="529.4" y="248" text-anchor="middle" font-size="10" fill="#8c959f" font-family="ui-monospace, SFMono-Regular, 'SF Mono', Menlo, monospace">06-10</text>

  <!-- legend -->
  <rect x="60" y="262" width="16" height="3" fill="#4e79a7" rx="1"/><text x="80" y="268" font-size="11" fill="#57606a" font-family="-apple-system, BlinkMacSystemFont, 'Segoe UI', sans-serif">Total clones (1,225)</text><line x1="230" y1="264" x2="246" y2="264" stroke="#f28e2b" stroke-width="2" stroke-dasharray="5,3"/><text x="250" y="268" font-size="11" fill="#57606a" font-family="-apple-system, BlinkMacSystemFont, 'Segoe UI', sans-serif">Unique cloners</text>

</svg>