<svg xmlns="http://www.w3.org/2000/svg" viewBox="0 0 820 280" width="820" height="280">

  <!-- title -->
  <text x="52" y="18" font-size="13" font-weight="600"
        fill="#24292f" font-family="-apple-system, BlinkMacSystemFont, 'Segoe UI', sans-serif"
        >Clone traffic — 500ad</text>
  <text x="800" y="18" font-size="10" fill="#8c959f"
        font-family="ui-monospace, SFMono-Regular, 'SF Mono', Menlo, monospace" text-anchor="end">2026-06-27</text>

  <!-- grid -->
  <line x1="52" y1="232.0" x2="800" y2="232.0" stroke="#e8e8e8" stroke-width="1"/><line x1="52" y1="194.7" x2="800" y2="194.7" stroke="#e8e8e8" stroke-width="1"/><line x1="52" y1="157.4" x2="800" y2="157.4" stroke="#e8e8e8" stroke-width="1"/><line x1="52" y1="120.0" x2="800" y2="120.0" stroke="#e8e8e8" stroke-width="1"/><line x1="52" y1="82.7" x2="800" y2="82.7" stroke="#e8e8e8" stroke-width="1"/><line x1="52" y1="45.4" x2="800" y2="45.4" stroke="#e8e8e8" stroke-width="1"/><line x1="52" y1="8.1" x2="800" y2="8.1" stroke="#e8e8e8" stroke-width="1"/>

  <!-- area fill -->
  <path d="M52.0,232.0 L52.0,232.0 L68.6,230.8 L85.2,229.5 L101.9,232.0 L118.5,232.0 L135.1,232.0 L151.7,232.0 L168.4,232.0 L185.0,228.3 L201.6,232.0 L218.2,229.5 L234.8,74.0 L251.5,100.1 L268.1,28.0 L284.7,217.1 L301.3,218.3 L318.0,232.0 L334.6,30.5 L351.2,193.4 L367.8,163.6 L384.4,225.8 L401.1,223.3 L417.7,225.8 L434.3,230.8 L450.9,232.0 L467.6,230.8 L484.2,105.1 L500.8,113.8 L517.4,229.5 L534.0,229.5 L550.7,225.8 L567.3,228.3 L583.9,203.4 L600.5,166.1 L617.2,225.8 L633.8,208.4 L650.4,230.8 L667.0,232.0 L683.6,122.5 L700.3,102.6 L716.9,222.0 L733.5,217.1 L750.1,230.8 L766.8,230.8 L783.4,229.5 L800.0,230.8 L800.0,232.0 L52.0,232.0Z" fill="#4e79a7" opacity="0.12"/>

  <!-- lines -->
  <polyline points="52.0,232.0 68.6,230.8 85.2,229.5 101.9,232.0 118.5,232.0 135.1,232.0 151.7,232.0 168.4,232.0 185.0,228.3 201.6,232.0 218.2,229.5 234.8,74.0 251.5,100.1 268.1,28.0 284.7,217.1 301.3,218.3 318.0,232.0 334.6,30.5 351.2,193.4 367.8,163.6 384.4,225.8 401.1,223.3 417.7,225.8 434.3,230.8 450.9,232.0 467.6,230.8 484.2,105.1 500.8,113.8 517.4,229.5 534.0,229.5 550.7,225.8 567.3,228.3 583.9,203.4 600.5,166.1 617.2,225.8 633.8,208.4 650.4,230.8 667.0,232.0 683.6,122.5 700.3,102.6 716.9,222.0 733.5,217.1 750.1,230.8 766.8,230.8 783.4,229.5 800.0,230.8"
            fill="none" stroke="#4e79a7"
            stroke-width="2" stroke-linejoin="round"/>
  <polyline points="52.0,232.0 68.6,230.8 85.2,229.5 101.9,232.0 118.5,232.0 135.1,232.0 151.7,232.0 168.4,232.0 185.0,229.5 201.6,232.0 218.2,229.5 234.8,177.3 251.5,156.1 268.1,125.0 284.7,228.3 301.3,228.3 318.0,232.0 334.6,147.4 351.2,210.9 367.8,210.9 384.4,227.0 401.1,228.3 417.7,229.5 434.3,230.8 450.9,232.0 467.6,230.8 484.2,183.5 500.8,186.0 517.4,230.8 534.0,229.5 550.7,228.3 567.3,228.3 583.9,219.6 600.5,218.3 617.2,229.5 633.8,228.3 650.4,230.8 667.0,232.0 683.6,207.1 700.3,210.9 716.9,229.5 733.5,228.3 750.1,230.8 766.8,230.8 783.4,229.5 800.0,230.8"
            fill="none" stroke="#f28e2b"
            stroke-width="2" stroke-linejoin="round"
            stroke-dasharray="5,3"/>

  <!-- dots -->
  <circle cx="52.0" cy="232.0" r="3" fill="#4e79a7"/><circle cx="68.6" cy="230.8" r="3" fill="#4e79a7"/><circle cx="85.2" cy="229.5" r="3" fill="#4e79a7"/><circle cx="101.9" cy="232.0" r="3" fill="#4e79a7"/><circle cx="118.5" cy="232.0" r="3" fill="#4e79a7"/><circle cx="135.1" cy="232.0" r="3" fill="#4e79a7"/><circle cx="151.7" cy="232.0" r="3" fill="#4e79a7"/><circle cx="168.4" cy="232.0" r="3" fill="#4e79a7"/><circle cx="185.0" cy="228.3" r="3" fill="#4e79a7"/><circle cx="201.6" cy="232.0" r="3" fill="#4e79a7"/><circle cx="218.2" cy="229.5" r="3" fill="#4e79a7"/><circle cx="234.8" cy="74.0" r="3" fill="#4e79a7"/><circle cx="251.5" cy="100.1" r="3" fill="#4e79a7"/><circle cx="268.1" cy="28.0" r="3" fill="#4e79a7"/><circle cx="284.7" cy="217.1" r="3" fill="#4e79a7"/><circle cx="301.3" cy="218.3" r="3" fill="#4e79a7"/><circle cx="318.0" cy="232.0" r="3" fill="#4e79a7"/><circle cx="334.6" cy="30.5" r="3" fill="#4e79a7"/><circle cx="351.2" cy="193.4" r="3" fill="#4e79a7"/><circle cx="367.8" cy="163.6" r="3" fill="#4e79a7"/><circle cx="384.4" cy="225.8" r="3" fill="#4e79a7"/><circle cx="401.1" cy="223.3" r="3" fill="#4e79a7"/><circle cx="417.7" cy="225.8" r="3" fill="#4e79a7"/><circle cx="434.3" cy="230.8" r="3" fill="#4e79a7"/><circle cx="450.9" cy="232.0" r="3" fill="#4e79a7"/><circle cx="467.6" cy="230.8" r="3" fill="#4e79a7"/><circle cx="484.2" cy="105.1" r="3" fill="#4e79a7"/><circle cx="500.8" cy="113.8" r="3" fill="#4e79a7"/><circle cx="517.4" cy="229.5" r="3" fill="#4e79a7"/><circle cx="534.0" cy="229.5" r="3" fill="#4e79a7"/><circle cx="550.7" cy="225.8" r="3" fill="#4e79a7"/><circle cx="567.3" cy="228.3" r="3" fill="#4e79a7"/><circle cx="583.9" cy="203.4" r="3" fill="#4e79a7"/><circle cx="600.5" cy="166.1" r="3" fill="#4e79a7"/><circle cx="617.2" cy="225.8" r="3" fill="#4e79a7"/><circle cx="633.8" cy="208.4" r="3" fill="#4e79a7"/><circle cx="650.4" cy="230.8" r="3" fill="#4e79a7"/><circle cx="667.0" cy="232.0" r="3" fill="#4e79a7"/><circle cx="683.6" cy="122.5" r="3" fill="#4e79a7"/><circle cx="700.3" cy="102.6" r="3" fill="#4e79a7"/><circle cx="716.9" cy="222.0" r="3" fill="#4e79a7"/><circle cx="733.5" cy="217.1" r="3" fill="#4e79a7"/><circle cx="750.1" cy="230.8" r="3" fill="#4e79a7"/><circle cx="766.8" cy="230.8" r="3" fill="#4e79a7"/><circle cx="783.4" cy="229.5" r="3" fill="#4e79a7"/><circle cx="800.0" cy="230.8" r="3" fill="#4e79a7"/>
  <circle cx="52.0" cy="232.0" r="3" fill="#f28e2b"/><circle cx="68.6" cy="230.8" r="3" fill="#f28e2b"/><circle cx="85.2" cy="229.5" r="3" fill="#f28e2b"/><circle cx="101.9" cy="232.0" r="3" fill="#f28e2b"/><circle cx="118.5" cy="232.0" r="3" fill="#f28e2b"/><circle cx="135.1" cy="232.0" r="3" fill="#f28e2b"/><circle cx="151.7" cy="232.0" r="3" fill="#f28e2b"/><circle cx="168.4" cy="232.0" r="3" fill="#f28e2b"/><circle cx="185.0" cy="229.5" r="3" fill="#f28e2b"/><circle cx="201.6" cy="232.0" r="3" fill="#f28e2b"/><circle cx="218.2" cy="229.5" r="3" fill="#f28e2b"/><circle cx="234.8" cy="177.3" r="3" fill="#f28e2b"/><circle cx="251.5" cy="156.1" r="3" fill="#f28e2b"/><circle cx="268.1" cy="125.0" r="3" fill="#f28e2b"/><circle cx="284.7" cy="228.3" r="3" fill="#f28e2b"/><circle cx="301.3" cy="228.3" r="3" fill="#f28e2b"/><circle cx="318.0" cy="232.0" r="3" fill="#f28e2b"/><circle cx="334.6" cy="147.4" r="3" fill="#f28e2b"/><circle cx="351.2" cy="210.9" r="3" fill="#f28e2b"/><circle cx="367.8" cy="210.9" r="3" fill="#f28e2b"/><circle cx="384.4" cy="227.0" r="3" fill="#f28e2b"/><circle cx="401.1" cy="228.3" r="3" fill="#f28e2b"/><circle cx="417.7" cy="229.5" r="3" fill="#f28e2b"/><circle cx="434.3" cy="230.8" r="3" fill="#f28e2b"/><circle cx="450.9" cy="232.0" r="3" fill="#f28e2b"/><circle cx="467.6" cy="230.8" r="3" fill="#f28e2b"/><circle cx="484.2" cy="183.5" r="3" fill="#f28e2b"/><circle cx="500.8" cy="186.0" r="3" fill="#f28e2b"/><circle cx="517.4" cy="230.8" r="3" fill="#f28e2b"/><circle cx="534.0" cy="229.5" r="3" fill="#f28e2b"/><circle cx="550.7" cy="228.3" r="3" fill="#f28e2b"/><circle cx="567.3" cy="228.3" r="3" fill="#f28e2b"/><circle cx="583.9" cy="219.6" r="3" fill="#f28e2b"/><circle cx="600.5" cy="218.3" r="3" fill="#f28e2b"/><circle cx="617.2" cy="229.5" r="3" fill="#f28e2b"/><circle cx="633.8" cy="228.3" r="3" fill="#f28e2b"/><circle cx="650.4" cy="230.8" r="3" fill="#f28e2b"/><circle cx="667.0" cy="232.0" r="3" fill="#f28e2b"/><circle cx="683.6" cy="207.1" r="3" fill="#f28e2b"/><circle cx="700.3" cy="210.9" r="3" fill="#f28e2b"/><circle cx="716.9" cy="229.5" r="3" fill="#f28e2b"/><circle cx="733.5" cy="228.3" r="3" fill="#f28e2b"/><circle cx="750.1" cy="230.8" r="3" fill="#f28e2b"/><circle cx="766.8" cy="230.8" r="3" fill="#f28e2b"/><circle cx="783.4" cy="229.5" r="3" fill="#f28e2b"/><circle cx="800.0" cy="230.8" r="3" fill="#f28e2b"/>

  <!-- axes -->
  <line x1="52" y1="28" x2="52" y2="232"
        stroke="#cccccc" stroke-width="1"/>
  <line x1="52" y1="232" x2="800" y2="232"
        stroke="#cccccc" stroke-width="1"/>

  <!-- y-axis labels -->
  <text x="47" y="236.0" text-anchor="end" font-size="10" fill="#57606a" font-family="ui-monospace, SFMono-Regular, 'SF Mono', Menlo, monospace">0</text><text x="47" y="198.7" text-anchor="end" font-size="10" fill="#57606a" font-family="ui-monospace, SFMono-Regular, 'SF Mono', Menlo, monospace">30</text><text x="47" y="161.4" text-anchor="end" font-size="10" fill="#57606a" font-family="ui-monospace, SFMono-Regular, 'SF Mono', Menlo, monospace">60</text><text x="47" y="124.0" text-anchor="end" font-size="10" fill="#57606a" font-family="ui-monospace, SFMono-Regular, 'SF Mono', Menlo, monospace">90</text><text x="47" y="86.7" text-anchor="end" font-size="10" fill="#57606a" font-family="ui-monospace, SFMono-Regular, 'SF Mono', Menlo, monospace">120</text><text x="47" y="49.4" text-anchor="end" font-size="10" fill="#57606a" font-family="ui-monospace, SFMono-Regular, 'SF Mono', Menlo, monospace">150</text><text x="47" y="12.1" text-anchor="end" font-size="10" fill="#57606a" font-family="ui-monospace, SFMono-Regular, 'SF Mono', Menlo, monospace">180</text>

  <!-- x-axis labels -->
  <text x="52.0" y="248" text-anchor="middle" font-size="10" fill="#8c959f" font-family="ui-monospace, SFMono-Regular, 'SF Mono', Menlo, monospace">05-11</text><text x="633.8" y="248" text-anchor="middle" font-size="10" fill="#8c959f" font-family="ui-monospace, SFMono-Regular, 'SF Mono', Menlo, monospace">06-15</text><text x="135.1" y="248" text-anchor="middle" font-size="10" fill="#8c959f" font-family="ui-monospace, SFMono-Regular, 'SF Mono', Menlo, monospace">05-16</text><text x="716.9" y="248" text-anchor="middle" font-size="10" fill="#8c959f" font-family="ui-monospace, SFMono-Regular, 'SF Mono', Menlo, monospace">06-20</text><text x="218.2" y="248" text-anchor="middle" font-size="10" fill="#8c959f" font-family="ui-monospace, SFMono-Regular, 'SF Mono', Menlo, monospace">05-21</text><text x="800.0" y="248" text-anchor="middle" font-size="10" fill="#8c959f" font-family="ui-monospace, SFMono-Regular, 'SF Mono', Menlo, monospace">06-25</text><text x="301.3" y="248" text-anchor="middle" font-size="10" fill="#8c959f" font-family="ui-monospace, SFMono-Regular, 'SF Mono', Menlo, monospace">05-26</text><text x="384.4" y="248" text-anchor="middle" font-size="10" fill="#8c959f" font-family="ui-monospace, SFMono-Regular, 'SF Mono', Menlo, monospace">05-31</text><text x="467.6" y="248" text-anchor="middle" font-size="10" fill="#8c959f" font-family="ui-monospace, SFMono-Regular, 'SF Mono', Menlo, monospace">06-05</text><text x="550.7" y="248" text-anchor="middle" font-size="10" fill="#8c959f" font-family="ui-monospace, SFMono-Regular, 'SF Mono', Menlo, monospace">06-10</text>

  <!-- legend -->
  <rect x="60" y="262" width="16" height="3" fill="#4e79a7" rx="1"/><text x="80" y="268" font-size="11" fill="#57606a" font-family="-apple-system, BlinkMacSystemFont, 'Segoe UI', sans-serif">Total clones (1,222)</text><line x1="230" y1="264" x2="246" y2="264" stroke="#f28e2b" stroke-width="2" stroke-dasharray="5,3"/><text x="250" y="268" font-size="11" fill="#57606a" font-family="-apple-system, BlinkMacSystemFont, 'Segoe UI', sans-serif">Unique cloners</text>

</svg>