<svg xmlns="http://www.w3.org/2000/svg" viewBox="0 0 820 280" width="820" height="280">

  <!-- title -->
  <text x="52" y="18" font-size="13" font-weight="600"
        fill="#24292f" font-family="-apple-system, BlinkMacSystemFont, 'Segoe UI', sans-serif"
        >Clone traffic — 500ad</text>
  <text x="800" y="18" font-size="10" fill="#8c959f"
        font-family="ui-monospace, SFMono-Regular, 'SF Mono', Menlo, monospace" text-anchor="end">2026-06-21</text>

  <!-- grid -->
  <line x1="52" y1="232.0" x2="800" y2="232.0" stroke="#e8e8e8" stroke-width="1"/><line x1="52" y1="194.7" x2="800" y2="194.7" stroke="#e8e8e8" stroke-width="1"/><line x1="52" y1="157.4" x2="800" y2="157.4" stroke="#e8e8e8" stroke-width="1"/><line x1="52" y1="120.0" x2="800" y2="120.0" stroke="#e8e8e8" stroke-width="1"/><line x1="52" y1="82.7" x2="800" y2="82.7" stroke="#e8e8e8" stroke-width="1"/><line x1="52" y1="45.4" x2="800" y2="45.4" stroke="#e8e8e8" stroke-width="1"/><line x1="52" y1="8.1" x2="800" y2="8.1" stroke="#e8e8e8" stroke-width="1"/>

  <!-- area fill -->
  <path d="M52.0,232.0 L52.0,232.0 L71.2,230.8 L90.4,229.5 L109.5,232.0 L128.7,232.0 L147.9,232.0 L167.1,232.0 L186.3,232.0 L205.4,228.3 L224.6,232.0 L243.8,229.5 L263.0,74.0 L282.2,100.1 L301.3,28.0 L320.5,217.1 L339.7,218.3 L358.9,232.0 L378.1,30.5 L397.2,193.4 L416.4,163.6 L435.6,225.8 L454.8,223.3 L473.9,225.8 L493.1,230.8 L512.3,232.0 L531.5,230.8 L550.7,105.1 L569.8,113.8 L589.0,229.5 L608.2,229.5 L627.4,225.8 L646.6,228.3 L665.7,203.4 L684.9,166.1 L704.1,225.8 L723.3,208.4 L742.5,230.8 L761.6,232.0 L780.8,122.5 L800.0,102.6 L800.0,232.0 L52.0,232.0Z" fill="#4e79a7" opacity="0.12"/>

  <!-- lines -->
  <polyline points="52.0,232.0 71.2,230.8 90.4,229.5 109.5,232.0 128.7,232.0 147.9,232.0 167.1,232.0 186.3,232.0 205.4,228.3 224.6,232.0 243.8,229.5 263.0,74.0 282.2,100.1 301.3,28.0 320.5,217.1 339.7,218.3 358.9,232.0 378.1,30.5 397.2,193.4 416.4,163.6 435.6,225.8 454.8,223.3 473.9,225.8 493.1,230.8 512.3,232.0 531.5,230.8 550.7,105.1 569.8,113.8 589.0,229.5 608.2,229.5 627.4,225.8 646.6,228.3 665.7,203.4 684.9,166.1 704.1,225.8 723.3,208.4 742.5,230.8 761.6,232.0 780.8,122.5 800.0,102.6"
            fill="none" stroke="#4e79a7"
            stroke-width="2" stroke-linejoin="round"/>
  <polyline points="52.0,232.0 71.2,230.8 90.4,229.5 109.5,232.0 128.7,232.0 147.9,232.0 167.1,232.0 186.3,232.0 205.4,229.5 224.6,232.0 243.8,229.5 263.0,177.3 282.2,156.1 301.3,125.0 320.5,228.3 339.7,228.3 358.9,232.0 378.1,147.4 397.2,210.9 416.4,210.9 435.6,227.0 454.8,228.3 473.9,229.5 493.1,230.8 512.3,232.0 531.5,230.8 550.7,183.5 569.8,186.0 589.0,230.8 608.2,229.5 627.4,228.3 646.6,228.3 665.7,219.6 684.9,218.3 704.1,229.5 723.3,228.3 742.5,230.8 761.6,232.0 780.8,207.1 800.0,210.9"
            fill="none" stroke="#f28e2b"
            stroke-width="2" stroke-linejoin="round"
            stroke-dasharray="5,3"/>

  <!-- dots -->
  <circle cx="52.0" cy="232.0" r="3" fill="#4e79a7"/><circle cx="71.2" cy="230.8" r="3" fill="#4e79a7"/><circle cx="90.4" cy="229.5" r="3" fill="#4e79a7"/><circle cx="109.5" cy="232.0" r="3" fill="#4e79a7"/><circle cx="128.7" cy="232.0" r="3" fill="#4e79a7"/><circle cx="147.9" cy="232.0" r="3" fill="#4e79a7"/><circle cx="167.1" cy="232.0" r="3" fill="#4e79a7"/><circle cx="186.3" cy="232.0" r="3" fill="#4e79a7"/><circle cx="205.4" cy="228.3" r="3" fill="#4e79a7"/><circle cx="224.6" cy="232.0" r="3" fill="#4e79a7"/><circle cx="243.8" cy="229.5" r="3" fill="#4e79a7"/><circle cx="263.0" cy="74.0" r="3" fill="#4e79a7"/><circle cx="282.2" cy="100.1" r="3" fill="#4e79a7"/><circle cx="301.3" cy="28.0" r="3" fill="#4e79a7"/><circle cx="320.5" cy="217.1" r="3" fill="#4e79a7"/><circle cx="339.7" cy="218.3" r="3" fill="#4e79a7"/><circle cx="358.9" cy="232.0" r="3" fill="#4e79a7"/><circle cx="378.1" cy="30.5" r="3" fill="#4e79a7"/><circle cx="397.2" cy="193.4" r="3" fill="#4e79a7"/><circle cx="416.4" cy="163.6" r="3" fill="#4e79a7"/><circle cx="435.6" cy="225.8" r="3" fill="#4e79a7"/><circle cx="454.8" cy="223.3" r="3" fill="#4e79a7"/><circle cx="473.9" cy="225.8" r="3" fill="#4e79a7"/><circle cx="493.1" cy="230.8" r="3" fill="#4e79a7"/><circle cx="512.3" cy="232.0" r="3" fill="#4e79a7"/><circle cx="531.5" cy="230.8" r="3" fill="#4e79a7"/><circle cx="550.7" cy="105.1" r="3" fill="#4e79a7"/><circle cx="569.8" cy="113.8" r="3" fill="#4e79a7"/><circle cx="589.0" cy="229.5" r="3" fill="#4e79a7"/><circle cx="608.2" cy="229.5" r="3" fill="#4e79a7"/><circle cx="627.4" cy="225.8" r="3" fill="#4e79a7"/><circle cx="646.6" cy="228.3" r="3" fill="#4e79a7"/><circle cx="665.7" cy="203.4" r="3" fill="#4e79a7"/><circle cx="684.9" cy="166.1" r="3" fill="#4e79a7"/><circle cx="704.1" cy="225.8" r="3" fill="#4e79a7"/><circle cx="723.3" cy="208.4" r="3" fill="#4e79a7"/><circle cx="742.5" cy="230.8" r="3" fill="#4e79a7"/><circle cx="761.6" cy="232.0" r="3" fill="#4e79a7"/><circle cx="780.8" cy="122.5" r="3" fill="#4e79a7"/><circle cx="800.0" cy="102.6" r="3" fill="#4e79a7"/>
  <circle cx="52.0" cy="232.0" r="3" fill="#f28e2b"/><circle cx="71.2" cy="230.8" r="3" fill="#f28e2b"/><circle cx="90.4" cy="229.5" r="3" fill="#f28e2b"/><circle cx="109.5" cy="232.0" r="3" fill="#f28e2b"/><circle cx="128.7" cy="232.0" r="3" fill="#f28e2b"/><circle cx="147.9" cy="232.0" r="3" fill="#f28e2b"/><circle cx="167.1" cy="232.0" r="3" fill="#f28e2b"/><circle cx="186.3" cy="232.0" r="3" fill="#f28e2b"/><circle cx="205.4" cy="229.5" r="3" fill="#f28e2b"/><circle cx="224.6" cy="232.0" r="3" fill="#f28e2b"/><circle cx="243.8" cy="229.5" r="3" fill="#f28e2b"/><circle cx="263.0" cy="177.3" r="3" fill="#f28e2b"/><circle cx="282.2" cy="156.1" r="3" fill="#f28e2b"/><circle cx="301.3" cy="125.0" r="3" fill="#f28e2b"/><circle cx="320.5" cy="228.3" r="3" fill="#f28e2b"/><circle cx="339.7" cy="228.3" r="3" fill="#f28e2b"/><circle cx="358.9" cy="232.0" r="3" fill="#f28e2b"/><circle cx="378.1" cy="147.4" r="3" fill="#f28e2b"/><circle cx="397.2" cy="210.9" r="3" fill="#f28e2b"/><circle cx="416.4" cy="210.9" r="3" fill="#f28e2b"/><circle cx="435.6" cy="227.0" r="3" fill="#f28e2b"/><circle cx="454.8" cy="228.3" r="3" fill="#f28e2b"/><circle cx="473.9" cy="229.5" r="3" fill="#f28e2b"/><circle cx="493.1" cy="230.8" r="3" fill="#f28e2b"/><circle cx="512.3" cy="232.0" r="3" fill="#f28e2b"/><circle cx="531.5" cy="230.8" r="3" fill="#f28e2b"/><circle cx="550.7" cy="183.5" r="3" fill="#f28e2b"/><circle cx="569.8" cy="186.0" r="3" fill="#f28e2b"/><circle cx="589.0" cy="230.8" r="3" fill="#f28e2b"/><circle cx="608.2" cy="229.5" r="3" fill="#f28e2b"/><circle cx="627.4" cy="228.3" r="3" fill="#f28e2b"/><circle cx="646.6" cy="228.3" r="3" fill="#f28e2b"/><circle cx="665.7" cy="219.6" r="3" fill="#f28e2b"/><circle cx="684.9" cy="218.3" r="3" fill="#f28e2b"/><circle cx="704.1" cy="229.5" r="3" fill="#f28e2b"/><circle cx="723.3" cy="228.3" r="3" fill="#f28e2b"/><circle cx="742.5" cy="230.8" r="3" fill="#f28e2b"/><circle cx="761.6" cy="232.0" r="3" fill="#f28e2b"/><circle cx="780.8" cy="207.1" r="3" fill="#f28e2b"/><circle cx="800.0" cy="210.9" r="3" fill="#f28e2b"/>

  <!-- axes -->
  <line x1="52" y1="28" x2="52" y2="232"
        stroke="#cccccc" stroke-width="1"/>
  <line x1="52" y1="232" x2="800" y2="232"
        stroke="#cccccc" stroke-width="1"/>

  <!-- y-axis labels -->
  <text x="47" y="236.0" text-anchor="end" font-size="10" fill="#57606a" font-family="ui-monospace, SFMono-Regular, 'SF Mono', Menlo, monospace">0</text><text x="47" y="198.7" text-anchor="end" font-size="10" fill="#57606a" font-family="ui-monospace, SFMono-Regular, 'SF Mono', Menlo, monospace">30</text><text x="47" y="161.4" text-anchor="end" font-size="10" fill="#57606a" font-family="ui-monospace, SFMono-Regular, 'SF Mono', Menlo, monospace">60</text><text x="47" y="124.0" text-anchor="end" font-size="10" fill="#57606a" font-family="ui-monospace, SFMono-Regular, 'SF Mono', Menlo, monospace">90</text><text x="47" y="86.7" text-anchor="end" font-size="10" fill="#57606a" font-family="ui-monospace, SFMono-Regular, 'SF Mono', Menlo, monospace">120</text><text x="47" y="49.4" text-anchor="end" font-size="10" fill="#57606a" font-family="ui-monospace, SFMono-Regular, 'SF Mono', Menlo, monospace">150</text><text x="47" y="12.1" text-anchor="end" font-size="10" fill="#57606a" font-family="ui-monospace, SFMono-Regular, 'SF Mono', Menlo, monospace">180</text>

  <!-- x-axis labels -->
  <text x="52.0" y="248" text-anchor="middle" font-size="10" fill="#8c959f" font-family="ui-monospace, SFMono-Regular, 'SF Mono', Menlo, monospace">05-11</text><text x="723.3" y="248" text-anchor="middle" font-size="10" fill="#8c959f" font-family="ui-monospace, SFMono-Regular, 'SF Mono', Menlo, monospace">06-15</text><text x="147.9" y="248" text-anchor="middle" font-size="10" fill="#8c959f" font-family="ui-monospace, SFMono-Regular, 'SF Mono', Menlo, monospace">05-16</text><text x="800.0" y="248" text-anchor="middle" font-size="10" fill="#8c959f" font-family="ui-monospace, SFMono-Regular, 'SF Mono', Menlo, monospace">06-19</text><text x="243.8" y="248" text-anchor="middle" font-size="10" fill="#8c959f" font-family="ui-monospace, SFMono-Regular, 'SF Mono', Menlo, monospace">05-21</text><text x="339.7" y="248" text-anchor="middle" font-size="10" fill="#8c959f" font-family="ui-monospace, SFMono-Regular, 'SF Mono', Menlo, monospace">05-26</text><text x="435.6" y="248" text-anchor="middle" font-size="10" fill="#8c959f" font-family="ui-monospace, SFMono-Regular, 'SF Mono', Menlo, monospace">05-31</text><text x="531.5" y="248" text-anchor="middle" font-size="10" fill="#8c959f" font-family="ui-monospace, SFMono-Regular, 'SF Mono', Menlo, monospace">06-05</text><text x="627.4" y="248" text-anchor="middle" font-size="10" fill="#8c959f" font-family="ui-monospace, SFMono-Regular, 'SF Mono', Menlo, monospace">06-10</text>

  <!-- legend -->
  <rect x="60" y="262" width="16" height="3" fill="#4e79a7" rx="1"/><text x="80" y="268" font-size="11" fill="#57606a" font-family="-apple-system, BlinkMacSystemFont, 'Segoe UI', sans-serif">Total clones (1,197)</text><line x1="230" y1="264" x2="246" y2="264" stroke="#f28e2b" stroke-width="2" stroke-dasharray="5,3"/><text x="250" y="268" font-size="11" fill="#57606a" font-family="-apple-system, BlinkMacSystemFont, 'Segoe UI', sans-serif">Unique cloners</text>

</svg>