<svg xmlns="http://www.w3.org/2000/svg" viewBox="0 0 820 280" width="820" height="280">

  <!-- title -->
  <text x="52" y="18" font-size="13" font-weight="600"
        fill="#24292f" font-family="-apple-system, BlinkMacSystemFont, 'Segoe UI', sans-serif"
        >Clone traffic — 500ad</text>
  <text x="800" y="18" font-size="10" fill="#8c959f"
        font-family="ui-monospace, SFMono-Regular, 'SF Mono', Menlo, monospace" text-anchor="end">2026-07-12</text>

  <!-- grid -->
  <line x1="52" y1="232.0" x2="800" y2="232.0" stroke="#e8e8e8" stroke-width="1"/><line x1="52" y1="194.7" x2="800" y2="194.7" stroke="#e8e8e8" stroke-width="1"/><line x1="52" y1="157.4" x2="800" y2="157.4" stroke="#e8e8e8" stroke-width="1"/><line x1="52" y1="120.0" x2="800" y2="120.0" stroke="#e8e8e8" stroke-width="1"/><line x1="52" y1="82.7" x2="800" y2="82.7" stroke="#e8e8e8" stroke-width="1"/><line x1="52" y1="45.4" x2="800" y2="45.4" stroke="#e8e8e8" stroke-width="1"/><line x1="52" y1="8.1" x2="800" y2="8.1" stroke="#e8e8e8" stroke-width="1"/>

  <!-- area fill -->
  <path d="M52.0,232.0 L52.0,232.0 L64.5,230.8 L76.9,229.5 L89.4,232.0 L101.9,232.0 L114.3,232.0 L126.8,232.0 L139.3,232.0 L151.7,228.3 L164.2,232.0 L176.7,229.5 L189.1,74.0 L201.6,100.1 L214.1,28.0 L226.5,217.1 L239.0,218.3 L251.5,232.0 L263.9,30.5 L276.4,193.4 L288.9,163.6 L301.3,225.8 L313.8,223.3 L326.3,225.8 L338.7,230.8 L351.2,232.0 L363.7,230.8 L376.1,105.1 L388.6,113.8 L401.1,229.5 L413.5,229.5 L426.0,225.8 L438.5,228.3 L450.9,203.4 L463.4,166.1 L475.9,225.8 L488.3,208.4 L500.8,230.8 L513.3,232.0 L525.7,122.5 L538.2,102.6 L550.7,222.0 L563.1,217.1 L575.6,230.8 L588.1,230.8 L600.5,229.5 L613.0,230.8 L625.5,229.5 L637.9,230.8 L650.4,232.0 L662.9,228.3 L675.3,229.5 L687.8,232.0 L700.3,230.8 L712.7,230.8 L725.2,227.0 L737.7,230.8 L750.1,228.3 L762.6,229.5 L775.1,230.8 L787.5,229.5 L800.0,228.3 L800.0,232.0 L52.0,232.0Z" fill="#4e79a7" opacity="0.12"/>

  <!-- lines -->
  <polyline points="52.0,232.0 64.5,230.8 76.9,229.5 89.4,232.0 101.9,232.0 114.3,232.0 126.8,232.0 139.3,232.0 151.7,228.3 164.2,232.0 176.7,229.5 189.1,74.0 201.6,100.1 214.1,28.0 226.5,217.1 239.0,218.3 251.5,232.0 263.9,30.5 276.4,193.4 288.9,163.6 301.3,225.8 313.8,223.3 326.3,225.8 338.7,230.8 351.2,232.0 363.7,230.8 376.1,105.1 388.6,113.8 401.1,229.5 413.5,229.5 426.0,225.8 438.5,228.3 450.9,203.4 463.4,166.1 475.9,225.8 488.3,208.4 500.8,230.8 513.3,232.0 525.7,122.5 538.2,102.6 550.7,222.0 563.1,217.1 575.6,230.8 588.1,230.8 600.5,229.5 613.0,230.8 625.5,229.5 637.9,230.8 650.4,232.0 662.9,228.3 675.3,229.5 687.8,232.0 700.3,230.8 712.7,230.8 725.2,227.0 737.7,230.8 750.1,228.3 762.6,229.5 775.1,230.8 787.5,229.5 800.0,228.3"
            fill="none" stroke="#4e79a7"
            stroke-width="2" stroke-linejoin="round"/>
  <polyline points="52.0,232.0 64.5,230.8 76.9,229.5 89.4,232.0 101.9,232.0 114.3,232.0 126.8,232.0 139.3,232.0 151.7,229.5 164.2,232.0 176.7,229.5 189.1,177.3 201.6,156.1 214.1,125.0 226.5,228.3 239.0,228.3 251.5,232.0 263.9,147.4 276.4,210.9 288.9,210.9 301.3,227.0 313.8,228.3 326.3,229.5 338.7,230.8 351.2,232.0 363.7,230.8 376.1,183.5 388.6,186.0 401.1,230.8 413.5,229.5 426.0,228.3 438.5,228.3 450.9,219.6 463.4,218.3 475.9,229.5 488.3,228.3 500.8,230.8 513.3,232.0 525.7,207.1 538.2,210.9 550.7,229.5 563.1,228.3 575.6,230.8 588.1,230.8 600.5,229.5 613.0,230.8 625.5,229.5 637.9,230.8 650.4,232.0 662.9,229.5 675.3,229.5 687.8,232.0 700.3,230.8 712.7,230.8 725.2,228.3 737.7,230.8 750.1,229.5 762.6,229.5 775.1,230.8 787.5,229.5 800.0,229.5"
            fill="none" stroke="#f28e2b"
            stroke-width="2" stroke-linejoin="round"
            stroke-dasharray="5,3"/>

  <!-- dots -->
  <circle cx="52.0" cy="232.0" r="3" fill="#4e79a7"/><circle cx="64.5" cy="230.8" r="3" fill="#4e79a7"/><circle cx="76.9" cy="229.5" r="3" fill="#4e79a7"/><circle cx="89.4" cy="232.0" r="3" fill="#4e79a7"/><circle cx="101.9" cy="232.0" r="3" fill="#4e79a7"/><circle cx="114.3" cy="232.0" r="3" fill="#4e79a7"/><circle cx="126.8" cy="232.0" r="3" fill="#4e79a7"/><circle cx="139.3" cy="232.0" r="3" fill="#4e79a7"/><circle cx="151.7" cy="228.3" r="3" fill="#4e79a7"/><circle cx="164.2" cy="232.0" r="3" fill="#4e79a7"/><circle cx="176.7" cy="229.5" r="3" fill="#4e79a7"/><circle cx="189.1" cy="74.0" r="3" fill="#4e79a7"/><circle cx="201.6" cy="100.1" r="3" fill="#4e79a7"/><circle cx="214.1" cy="28.0" r="3" fill="#4e79a7"/><circle cx="226.5" cy="217.1" r="3" fill="#4e79a7"/><circle cx="239.0" cy="218.3" r="3" fill="#4e79a7"/><circle cx="251.5" cy="232.0" r="3" fill="#4e79a7"/><circle cx="263.9" cy="30.5" r="3" fill="#4e79a7"/><circle cx="276.4" cy="193.4" r="3" fill="#4e79a7"/><circle cx="288.9" cy="163.6" r="3" fill="#4e79a7"/><circle cx="301.3" cy="225.8" r="3" fill="#4e79a7"/><circle cx="313.8" cy="223.3" r="3" fill="#4e79a7"/><circle cx="326.3" cy="225.8" r="3" fill="#4e79a7"/><circle cx="338.7" cy="230.8" r="3" fill="#4e79a7"/><circle cx="351.2" cy="232.0" r="3" fill="#4e79a7"/><circle cx="363.7" cy="230.8" r="3" fill="#4e79a7"/><circle cx="376.1" cy="105.1" r="3" fill="#4e79a7"/><circle cx="388.6" cy="113.8" r="3" fill="#4e79a7"/><circle cx="401.1" cy="229.5" r="3" fill="#4e79a7"/><circle cx="413.5" cy="229.5" r="3" fill="#4e79a7"/><circle cx="426.0" cy="225.8" r="3" fill="#4e79a7"/><circle cx="438.5" cy="228.3" r="3" fill="#4e79a7"/><circle cx="450.9" cy="203.4" r="3" fill="#4e79a7"/><circle cx="463.4" cy="166.1" r="3" fill="#4e79a7"/><circle cx="475.9" cy="225.8" r="3" fill="#4e79a7"/><circle cx="488.3" cy="208.4" r="3" fill="#4e79a7"/><circle cx="500.8" cy="230.8" r="3" fill="#4e79a7"/><circle cx="513.3" cy="232.0" r="3" fill="#4e79a7"/><circle cx="525.7" cy="122.5" r="3" fill="#4e79a7"/><circle cx="538.2" cy="102.6" r="3" fill="#4e79a7"/><circle cx="550.7" cy="222.0" r="3" fill="#4e79a7"/><circle cx="563.1" cy="217.1" r="3" fill="#4e79a7"/><circle cx="575.6" cy="230.8" r="3" fill="#4e79a7"/><circle cx="588.1" cy="230.8" r="3" fill="#4e79a7"/><circle cx="600.5" cy="229.5" r="3" fill="#4e79a7"/><circle cx="613.0" cy="230.8" r="3" fill="#4e79a7"/><circle cx="625.5" cy="229.5" r="3" fill="#4e79a7"/><circle cx="637.9" cy="230.8" r="3" fill="#4e79a7"/><circle cx="650.4" cy="232.0" r="3" fill="#4e79a7"/><circle cx="662.9" cy="228.3" r="3" fill="#4e79a7"/><circle cx="675.3" cy="229.5" r="3" fill="#4e79a7"/><circle cx="687.8" cy="232.0" r="3" fill="#4e79a7"/><circle cx="700.3" cy="230.8" r="3" fill="#4e79a7"/><circle cx="712.7" cy="230.8" r="3" fill="#4e79a7"/><circle cx="725.2" cy="227.0" r="3" fill="#4e79a7"/><circle cx="737.7" cy="230.8" r="3" fill="#4e79a7"/><circle cx="750.1" cy="228.3" r="3" fill="#4e79a7"/><circle cx="762.6" cy="229.5" r="3" fill="#4e79a7"/><circle cx="775.1" cy="230.8" r="3" fill="#4e79a7"/><circle cx="787.5" cy="229.5" r="3" fill="#4e79a7"/><circle cx="800.0" cy="228.3" r="3" fill="#4e79a7"/>
  <circle cx="52.0" cy="232.0" r="3" fill="#f28e2b"/><circle cx="64.5" cy="230.8" r="3" fill="#f28e2b"/><circle cx="76.9" cy="229.5" r="3" fill="#f28e2b"/><circle cx="89.4" cy="232.0" r="3" fill="#f28e2b"/><circle cx="101.9" cy="232.0" r="3" fill="#f28e2b"/><circle cx="114.3" cy="232.0" r="3" fill="#f28e2b"/><circle cx="126.8" cy="232.0" r="3" fill="#f28e2b"/><circle cx="139.3" cy="232.0" r="3" fill="#f28e2b"/><circle cx="151.7" cy="229.5" r="3" fill="#f28e2b"/><circle cx="164.2" cy="232.0" r="3" fill="#f28e2b"/><circle cx="176.7" cy="229.5" r="3" fill="#f28e2b"/><circle cx="189.1" cy="177.3" r="3" fill="#f28e2b"/><circle cx="201.6" cy="156.1" r="3" fill="#f28e2b"/><circle cx="214.1" cy="125.0" r="3" fill="#f28e2b"/><circle cx="226.5" cy="228.3" r="3" fill="#f28e2b"/><circle cx="239.0" cy="228.3" r="3" fill="#f28e2b"/><circle cx="251.5" cy="232.0" r="3" fill="#f28e2b"/><circle cx="263.9" cy="147.4" r="3" fill="#f28e2b"/><circle cx="276.4" cy="210.9" r="3" fill="#f28e2b"/><circle cx="288.9" cy="210.9" r="3" fill="#f28e2b"/><circle cx="301.3" cy="227.0" r="3" fill="#f28e2b"/><circle cx="313.8" cy="228.3" r="3" fill="#f28e2b"/><circle cx="326.3" cy="229.5" r="3" fill="#f28e2b"/><circle cx="338.7" cy="230.8" r="3" fill="#f28e2b"/><circle cx="351.2" cy="232.0" r="3" fill="#f28e2b"/><circle cx="363.7" cy="230.8" r="3" fill="#f28e2b"/><circle cx="376.1" cy="183.5" r="3" fill="#f28e2b"/><circle cx="388.6" cy="186.0" r="3" fill="#f28e2b"/><circle cx="401.1" cy="230.8" r="3" fill="#f28e2b"/><circle cx="413.5" cy="229.5" r="3" fill="#f28e2b"/><circle cx="426.0" cy="228.3" r="3" fill="#f28e2b"/><circle cx="438.5" cy="228.3" r="3" fill="#f28e2b"/><circle cx="450.9" cy="219.6" r="3" fill="#f28e2b"/><circle cx="463.4" cy="218.3" r="3" fill="#f28e2b"/><circle cx="475.9" cy="229.5" r="3" fill="#f28e2b"/><circle cx="488.3" cy="228.3" r="3" fill="#f28e2b"/><circle cx="500.8" cy="230.8" r="3" fill="#f28e2b"/><circle cx="513.3" cy="232.0" r="3" fill="#f28e2b"/><circle cx="525.7" cy="207.1" r="3" fill="#f28e2b"/><circle cx="538.2" cy="210.9" r="3" fill="#f28e2b"/><circle cx="550.7" cy="229.5" r="3" fill="#f28e2b"/><circle cx="563.1" cy="228.3" r="3" fill="#f28e2b"/><circle cx="575.6" cy="230.8" r="3" fill="#f28e2b"/><circle cx="588.1" cy="230.8" r="3" fill="#f28e2b"/><circle cx="600.5" cy="229.5" r="3" fill="#f28e2b"/><circle cx="613.0" cy="230.8" r="3" fill="#f28e2b"/><circle cx="625.5" cy="229.5" r="3" fill="#f28e2b"/><circle cx="637.9" cy="230.8" r="3" fill="#f28e2b"/><circle cx="650.4" cy="232.0" r="3" fill="#f28e2b"/><circle cx="662.9" cy="229.5" r="3" fill="#f28e2b"/><circle cx="675.3" cy="229.5" r="3" fill="#f28e2b"/><circle cx="687.8" cy="232.0" r="3" fill="#f28e2b"/><circle cx="700.3" cy="230.8" r="3" fill="#f28e2b"/><circle cx="712.7" cy="230.8" r="3" fill="#f28e2b"/><circle cx="725.2" cy="228.3" r="3" fill="#f28e2b"/><circle cx="737.7" cy="230.8" r="3" fill="#f28e2b"/><circle cx="750.1" cy="229.5" r="3" fill="#f28e2b"/><circle cx="762.6" cy="229.5" r="3" fill="#f28e2b"/><circle cx="775.1" cy="230.8" r="3" fill="#f28e2b"/><circle cx="787.5" cy="229.5" r="3" fill="#f28e2b"/><circle cx="800.0" cy="229.5" r="3" fill="#f28e2b"/>

  <!-- axes -->
  <line x1="52" y1="28" x2="52" y2="232"
        stroke="#cccccc" stroke-width="1"/>
  <line x1="52" y1="232" x2="800" y2="232"
        stroke="#cccccc" stroke-width="1"/>

  <!-- y-axis labels -->
  <text x="47" y="236.0" text-anchor="end" font-size="10" fill="#57606a" font-family="ui-monospace, SFMono-Regular, 'SF Mono', Menlo, monospace">0</text><text x="47" y="198.7" text-anchor="end" font-size="10" fill="#57606a" font-family="ui-monospace, SFMono-Regular, 'SF Mono', Menlo, monospace">30</text><text x="47" y="161.4" text-anchor="end" font-size="10" fill="#57606a" font-family="ui-monospace, SFMono-Regular, 'SF Mono', Menlo, monospace">60</text><text x="47" y="124.0" text-anchor="end" font-size="10" fill="#57606a" font-family="ui-monospace, SFMono-Regular, 'SF Mono', Menlo, monospace">90</text><text x="47" y="86.7" text-anchor="end" font-size="10" fill="#57606a" font-family="ui-monospace, SFMono-Regular, 'SF Mono', Menlo, monospace">120</text><text x="47" y="49.4" text-anchor="end" font-size="10" fill="#57606a" font-family="ui-monospace, SFMono-Regular, 'SF Mono', Menlo, monospace">150</text><text x="47" y="12.1" text-anchor="end" font-size="10" fill="#57606a" font-family="ui-monospace, SFMono-Regular, 'SF Mono', Menlo, monospace">180</text>

  <!-- x-axis labels -->
  <text x="52.0" y="248" text-anchor="middle" font-size="10" fill="#8c959f" font-family="ui-monospace, SFMono-Regular, 'SF Mono', Menlo, monospace">05-11</text><text x="488.3" y="248" text-anchor="middle" font-size="10" fill="#8c959f" font-family="ui-monospace, SFMono-Regular, 'SF Mono', Menlo, monospace">06-15</text><text x="139.3" y="248" text-anchor="middle" font-size="10" fill="#8c959f" font-family="ui-monospace, SFMono-Regular, 'SF Mono', Menlo, monospace">05-18</text><text x="575.6" y="248" text-anchor="middle" font-size="10" fill="#8c959f" font-family="ui-monospace, SFMono-Regular, 'SF Mono', Menlo, monospace">06-22</text><text x="226.5" y="248" text-anchor="middle" font-size="10" fill="#8c959f" font-family="ui-monospace, SFMono-Regular, 'SF Mono', Menlo, monospace">05-25</text><text x="800.0" y="248" text-anchor="middle" font-size="10" fill="#8c959f" font-family="ui-monospace, SFMono-Regular, 'SF Mono', Menlo, monospace">07-10</text><text x="662.9" y="248" text-anchor="middle" font-size="10" fill="#8c959f" font-family="ui-monospace, SFMono-Regular, 'SF Mono', Menlo, monospace">06-29</text><text x="313.8" y="248" text-anchor="middle" font-size="10" fill="#8c959f" font-family="ui-monospace, SFMono-Regular, 'SF Mono', Menlo, monospace">06-01</text><text x="750.1" y="248" text-anchor="middle" font-size="10" fill="#8c959f" font-family="ui-monospace, SFMono-Regular, 'SF Mono', Menlo, monospace">07-06</text><text x="401.1" y="248" text-anchor="middle" font-size="10" fill="#8c959f" font-family="ui-monospace, SFMono-Regular, 'SF Mono', Menlo, monospace">06-08</text>

  <!-- legend -->
  <rect x="60" y="262" width="16" height="3" fill="#4e79a7" rx="1"/><text x="80" y="268" font-size="11" fill="#57606a" font-family="-apple-system, BlinkMacSystemFont, 'Segoe UI', sans-serif">Total clones (1,248)</text><line x1="230" y1="264" x2="246" y2="264" stroke="#f28e2b" stroke-width="2" stroke-dasharray="5,3"/><text x="250" y="268" font-size="11" fill="#57606a" font-family="-apple-system, BlinkMacSystemFont, 'Segoe UI', sans-serif">Unique cloners</text>

</svg>