<svg xmlns="http://www.w3.org/2000/svg" viewBox="0 0 820 280" width="820" height="280">

  <!-- title -->
  <text x="52" y="18" font-size="13" font-weight="600"
        fill="#24292f" font-family="-apple-system, BlinkMacSystemFont, 'Segoe UI', sans-serif"
        >Clone traffic — 500ad</text>
  <text x="800" y="18" font-size="10" fill="#8c959f"
        font-family="ui-monospace, SFMono-Regular, 'SF Mono', Menlo, monospace" text-anchor="end">2026-07-17</text>

  <!-- grid -->
  <line x1="52" y1="232.0" x2="800" y2="232.0" stroke="#e8e8e8" stroke-width="1"/><line x1="52" y1="194.7" x2="800" y2="194.7" stroke="#e8e8e8" stroke-width="1"/><line x1="52" y1="157.4" x2="800" y2="157.4" stroke="#e8e8e8" stroke-width="1"/><line x1="52" y1="120.0" x2="800" y2="120.0" stroke="#e8e8e8" stroke-width="1"/><line x1="52" y1="82.7" x2="800" y2="82.7" stroke="#e8e8e8" stroke-width="1"/><line x1="52" y1="45.4" x2="800" y2="45.4" stroke="#e8e8e8" stroke-width="1"/><line x1="52" y1="8.1" x2="800" y2="8.1" stroke="#e8e8e8" stroke-width="1"/>

  <!-- area fill -->
  <path d="M52.0,232.0 L52.0,232.0 L63.5,230.8 L75.0,229.5 L86.5,232.0 L98.0,232.0 L109.5,232.0 L121.0,232.0 L132.6,232.0 L144.1,228.3 L155.6,232.0 L167.1,229.5 L178.6,74.0 L190.1,100.1 L201.6,28.0 L213.1,217.1 L224.6,218.3 L236.1,232.0 L247.6,30.5 L259.1,193.4 L270.6,163.6 L282.2,225.8 L293.7,223.3 L305.2,225.8 L316.7,230.8 L328.2,232.0 L339.7,230.8 L351.2,105.1 L362.7,113.8 L374.2,229.5 L385.7,229.5 L397.2,225.8 L408.7,228.3 L420.2,203.4 L431.8,166.1 L443.3,225.8 L454.8,208.4 L466.3,230.8 L477.8,232.0 L489.3,122.5 L500.8,102.6 L512.3,222.0 L523.8,217.1 L535.3,230.8 L546.8,230.8 L558.3,229.5 L569.8,230.8 L581.4,229.5 L592.9,230.8 L604.4,232.0 L615.9,228.3 L627.4,229.5 L638.9,232.0 L650.4,230.8 L661.9,230.8 L673.4,227.0 L684.9,230.8 L696.4,228.3 L707.9,229.5 L719.4,230.8 L731.0,229.5 L742.5,228.3 L754.0,230.8 L765.5,229.5 L777.0,229.5 L788.5,219.6 L800.0,232.0 L800.0,232.0 L52.0,232.0Z" fill="#4e79a7" opacity="0.12"/>

  <!-- lines -->
  <polyline points="52.0,232.0 63.5,230.8 75.0,229.5 86.5,232.0 98.0,232.0 109.5,232.0 121.0,232.0 132.6,232.0 144.1,228.3 155.6,232.0 167.1,229.5 178.6,74.0 190.1,100.1 201.6,28.0 213.1,217.1 224.6,218.3 236.1,232.0 247.6,30.5 259.1,193.4 270.6,163.6 282.2,225.8 293.7,223.3 305.2,225.8 316.7,230.8 328.2,232.0 339.7,230.8 351.2,105.1 362.7,113.8 374.2,229.5 385.7,229.5 397.2,225.8 408.7,228.3 420.2,203.4 431.8,166.1 443.3,225.8 454.8,208.4 466.3,230.8 477.8,232.0 489.3,122.5 500.8,102.6 512.3,222.0 523.8,217.1 535.3,230.8 546.8,230.8 558.3,229.5 569.8,230.8 581.4,229.5 592.9,230.8 604.4,232.0 615.9,228.3 627.4,229.5 638.9,232.0 650.4,230.8 661.9,230.8 673.4,227.0 684.9,230.8 696.4,228.3 707.9,229.5 719.4,230.8 731.0,229.5 742.5,228.3 754.0,230.8 765.5,229.5 777.0,229.5 788.5,219.6 800.0,232.0"
            fill="none" stroke="#4e79a7"
            stroke-width="2" stroke-linejoin="round"/>
  <polyline points="52.0,232.0 63.5,230.8 75.0,229.5 86.5,232.0 98.0,232.0 109.5,232.0 121.0,232.0 132.6,232.0 144.1,229.5 155.6,232.0 167.1,229.5 178.6,177.3 190.1,156.1 201.6,125.0 213.1,228.3 224.6,228.3 236.1,232.0 247.6,147.4 259.1,210.9 270.6,210.9 282.2,227.0 293.7,228.3 305.2,229.5 316.7,230.8 328.2,232.0 339.7,230.8 351.2,183.5 362.7,186.0 374.2,230.8 385.7,229.5 397.2,228.3 408.7,228.3 420.2,219.6 431.8,218.3 443.3,229.5 454.8,228.3 466.3,230.8 477.8,232.0 489.3,207.1 500.8,210.9 512.3,229.5 523.8,228.3 535.3,230.8 546.8,230.8 558.3,229.5 569.8,230.8 581.4,229.5 592.9,230.8 604.4,232.0 615.9,229.5 627.4,229.5 638.9,232.0 650.4,230.8 661.9,230.8 673.4,228.3 684.9,230.8 696.4,229.5 707.9,229.5 719.4,230.8 731.0,229.5 742.5,229.5 754.0,230.8 765.5,229.5 777.0,229.5 788.5,228.3 800.0,232.0"
            fill="none" stroke="#f28e2b"
            stroke-width="2" stroke-linejoin="round"
            stroke-dasharray="5,3"/>

  <!-- dots -->
  <circle cx="52.0" cy="232.0" r="3" fill="#4e79a7"/><circle cx="63.5" cy="230.8" r="3" fill="#4e79a7"/><circle cx="75.0" cy="229.5" r="3" fill="#4e79a7"/><circle cx="86.5" cy="232.0" r="3" fill="#4e79a7"/><circle cx="98.0" cy="232.0" r="3" fill="#4e79a7"/><circle cx="109.5" cy="232.0" r="3" fill="#4e79a7"/><circle cx="121.0" cy="232.0" r="3" fill="#4e79a7"/><circle cx="132.6" cy="232.0" r="3" fill="#4e79a7"/><circle cx="144.1" cy="228.3" r="3" fill="#4e79a7"/><circle cx="155.6" cy="232.0" r="3" fill="#4e79a7"/><circle cx="167.1" cy="229.5" r="3" fill="#4e79a7"/><circle cx="178.6" cy="74.0" r="3" fill="#4e79a7"/><circle cx="190.1" cy="100.1" r="3" fill="#4e79a7"/><circle cx="201.6" cy="28.0" r="3" fill="#4e79a7"/><circle cx="213.1" cy="217.1" r="3" fill="#4e79a7"/><circle cx="224.6" cy="218.3" r="3" fill="#4e79a7"/><circle cx="236.1" cy="232.0" r="3" fill="#4e79a7"/><circle cx="247.6" cy="30.5" r="3" fill="#4e79a7"/><circle cx="259.1" cy="193.4" r="3" fill="#4e79a7"/><circle cx="270.6" cy="163.6" r="3" fill="#4e79a7"/><circle cx="282.2" cy="225.8" r="3" fill="#4e79a7"/><circle cx="293.7" cy="223.3" r="3" fill="#4e79a7"/><circle cx="305.2" cy="225.8" r="3" fill="#4e79a7"/><circle cx="316.7" cy="230.8" r="3" fill="#4e79a7"/><circle cx="328.2" cy="232.0" r="3" fill="#4e79a7"/><circle cx="339.7" cy="230.8" r="3" fill="#4e79a7"/><circle cx="351.2" cy="105.1" r="3" fill="#4e79a7"/><circle cx="362.7" cy="113.8" r="3" fill="#4e79a7"/><circle cx="374.2" cy="229.5" r="3" fill="#4e79a7"/><circle cx="385.7" cy="229.5" r="3" fill="#4e79a7"/><circle cx="397.2" cy="225.8" r="3" fill="#4e79a7"/><circle cx="408.7" cy="228.3" r="3" fill="#4e79a7"/><circle cx="420.2" cy="203.4" r="3" fill="#4e79a7"/><circle cx="431.8" cy="166.1" r="3" fill="#4e79a7"/><circle cx="443.3" cy="225.8" r="3" fill="#4e79a7"/><circle cx="454.8" cy="208.4" r="3" fill="#4e79a7"/><circle cx="466.3" cy="230.8" r="3" fill="#4e79a7"/><circle cx="477.8" cy="232.0" r="3" fill="#4e79a7"/><circle cx="489.3" cy="122.5" r="3" fill="#4e79a7"/><circle cx="500.8" cy="102.6" r="3" fill="#4e79a7"/><circle cx="512.3" cy="222.0" r="3" fill="#4e79a7"/><circle cx="523.8" cy="217.1" r="3" fill="#4e79a7"/><circle cx="535.3" cy="230.8" r="3" fill="#4e79a7"/><circle cx="546.8" cy="230.8" r="3" fill="#4e79a7"/><circle cx="558.3" cy="229.5" r="3" fill="#4e79a7"/><circle cx="569.8" cy="230.8" r="3" fill="#4e79a7"/><circle cx="581.4" cy="229.5" r="3" fill="#4e79a7"/><circle cx="592.9" cy="230.8" r="3" fill="#4e79a7"/><circle cx="604.4" cy="232.0" r="3" fill="#4e79a7"/><circle cx="615.9" cy="228.3" r="3" fill="#4e79a7"/><circle cx="627.4" cy="229.5" r="3" fill="#4e79a7"/><circle cx="638.9" cy="232.0" r="3" fill="#4e79a7"/><circle cx="650.4" cy="230.8" r="3" fill="#4e79a7"/><circle cx="661.9" cy="230.8" r="3" fill="#4e79a7"/><circle cx="673.4" cy="227.0" r="3" fill="#4e79a7"/><circle cx="684.9" cy="230.8" r="3" fill="#4e79a7"/><circle cx="696.4" cy="228.3" r="3" fill="#4e79a7"/><circle cx="707.9" cy="229.5" r="3" fill="#4e79a7"/><circle cx="719.4" cy="230.8" r="3" fill="#4e79a7"/><circle cx="731.0" cy="229.5" r="3" fill="#4e79a7"/><circle cx="742.5" cy="228.3" r="3" fill="#4e79a7"/><circle cx="754.0" cy="230.8" r="3" fill="#4e79a7"/><circle cx="765.5" cy="229.5" r="3" fill="#4e79a7"/><circle cx="777.0" cy="229.5" r="3" fill="#4e79a7"/><circle cx="788.5" cy="219.6" r="3" fill="#4e79a7"/><circle cx="800.0" cy="232.0" r="3" fill="#4e79a7"/>
  <circle cx="52.0" cy="232.0" r="3" fill="#f28e2b"/><circle cx="63.5" cy="230.8" r="3" fill="#f28e2b"/><circle cx="75.0" cy="229.5" r="3" fill="#f28e2b"/><circle cx="86.5" cy="232.0" r="3" fill="#f28e2b"/><circle cx="98.0" cy="232.0" r="3" fill="#f28e2b"/><circle cx="109.5" cy="232.0" r="3" fill="#f28e2b"/><circle cx="121.0" cy="232.0" r="3" fill="#f28e2b"/><circle cx="132.6" cy="232.0" r="3" fill="#f28e2b"/><circle cx="144.1" cy="229.5" r="3" fill="#f28e2b"/><circle cx="155.6" cy="232.0" r="3" fill="#f28e2b"/><circle cx="167.1" cy="229.5" r="3" fill="#f28e2b"/><circle cx="178.6" cy="177.3" r="3" fill="#f28e2b"/><circle cx="190.1" cy="156.1" r="3" fill="#f28e2b"/><circle cx="201.6" cy="125.0" r="3" fill="#f28e2b"/><circle cx="213.1" cy="228.3" r="3" fill="#f28e2b"/><circle cx="224.6" cy="228.3" r="3" fill="#f28e2b"/><circle cx="236.1" cy="232.0" r="3" fill="#f28e2b"/><circle cx="247.6" cy="147.4" r="3" fill="#f28e2b"/><circle cx="259.1" cy="210.9" r="3" fill="#f28e2b"/><circle cx="270.6" cy="210.9" r="3" fill="#f28e2b"/><circle cx="282.2" cy="227.0" r="3" fill="#f28e2b"/><circle cx="293.7" cy="228.3" r="3" fill="#f28e2b"/><circle cx="305.2" cy="229.5" r="3" fill="#f28e2b"/><circle cx="316.7" cy="230.8" r="3" fill="#f28e2b"/><circle cx="328.2" cy="232.0" r="3" fill="#f28e2b"/><circle cx="339.7" cy="230.8" r="3" fill="#f28e2b"/><circle cx="351.2" cy="183.5" r="3" fill="#f28e2b"/><circle cx="362.7" cy="186.0" r="3" fill="#f28e2b"/><circle cx="374.2" cy="230.8" r="3" fill="#f28e2b"/><circle cx="385.7" cy="229.5" r="3" fill="#f28e2b"/><circle cx="397.2" cy="228.3" r="3" fill="#f28e2b"/><circle cx="408.7" cy="228.3" r="3" fill="#f28e2b"/><circle cx="420.2" cy="219.6" r="3" fill="#f28e2b"/><circle cx="431.8" cy="218.3" r="3" fill="#f28e2b"/><circle cx="443.3" cy="229.5" r="3" fill="#f28e2b"/><circle cx="454.8" cy="228.3" r="3" fill="#f28e2b"/><circle cx="466.3" cy="230.8" r="3" fill="#f28e2b"/><circle cx="477.8" cy="232.0" r="3" fill="#f28e2b"/><circle cx="489.3" cy="207.1" r="3" fill="#f28e2b"/><circle cx="500.8" cy="210.9" r="3" fill="#f28e2b"/><circle cx="512.3" cy="229.5" r="3" fill="#f28e2b"/><circle cx="523.8" cy="228.3" r="3" fill="#f28e2b"/><circle cx="535.3" cy="230.8" r="3" fill="#f28e2b"/><circle cx="546.8" cy="230.8" r="3" fill="#f28e2b"/><circle cx="558.3" cy="229.5" r="3" fill="#f28e2b"/><circle cx="569.8" cy="230.8" r="3" fill="#f28e2b"/><circle cx="581.4" cy="229.5" r="3" fill="#f28e2b"/><circle cx="592.9" cy="230.8" r="3" fill="#f28e2b"/><circle cx="604.4" cy="232.0" r="3" fill="#f28e2b"/><circle cx="615.9" cy="229.5" r="3" fill="#f28e2b"/><circle cx="627.4" cy="229.5" r="3" fill="#f28e2b"/><circle cx="638.9" cy="232.0" r="3" fill="#f28e2b"/><circle cx="650.4" cy="230.8" r="3" fill="#f28e2b"/><circle cx="661.9" cy="230.8" r="3" fill="#f28e2b"/><circle cx="673.4" cy="228.3" r="3" fill="#f28e2b"/><circle cx="684.9" cy="230.8" r="3" fill="#f28e2b"/><circle cx="696.4" cy="229.5" r="3" fill="#f28e2b"/><circle cx="707.9" cy="229.5" r="3" fill="#f28e2b"/><circle cx="719.4" cy="230.8" r="3" fill="#f28e2b"/><circle cx="731.0" cy="229.5" r="3" fill="#f28e2b"/><circle cx="742.5" cy="229.5" r="3" fill="#f28e2b"/><circle cx="754.0" cy="230.8" r="3" fill="#f28e2b"/><circle cx="765.5" cy="229.5" r="3" fill="#f28e2b"/><circle cx="777.0" cy="229.5" r="3" fill="#f28e2b"/><circle cx="788.5" cy="228.3" r="3" fill="#f28e2b"/><circle cx="800.0" cy="232.0" r="3" fill="#f28e2b"/>

  <!-- axes -->
  <line x1="52" y1="28" x2="52" y2="232"
        stroke="#cccccc" stroke-width="1"/>
  <line x1="52" y1="232" x2="800" y2="232"
        stroke="#cccccc" stroke-width="1"/>

  <!-- y-axis labels -->
  <text x="47" y="236.0" text-anchor="end" font-size="10" fill="#57606a" font-family="ui-monospace, SFMono-Regular, 'SF Mono', Menlo, monospace">0</text><text x="47" y="198.7" text-anchor="end" font-size="10" fill="#57606a" font-family="ui-monospace, SFMono-Regular, 'SF Mono', Menlo, monospace">30</text><text x="47" y="161.4" text-anchor="end" font-size="10" fill="#57606a" font-family="ui-monospace, SFMono-Regular, 'SF Mono', Menlo, monospace">60</text><text x="47" y="124.0" text-anchor="end" font-size="10" fill="#57606a" font-family="ui-monospace, SFMono-Regular, 'SF Mono', Menlo, monospace">90</text><text x="47" y="86.7" text-anchor="end" font-size="10" fill="#57606a" font-family="ui-monospace, SFMono-Regular, 'SF Mono', Menlo, monospace">120</text><text x="47" y="49.4" text-anchor="end" font-size="10" fill="#57606a" font-family="ui-monospace, SFMono-Regular, 'SF Mono', Menlo, monospace">150</text><text x="47" y="12.1" text-anchor="end" font-size="10" fill="#57606a" font-family="ui-monospace, SFMono-Regular, 'SF Mono', Menlo, monospace">180</text>

  <!-- x-axis labels -->
  <text x="52.0" y="248" text-anchor="middle" font-size="10" fill="#8c959f" font-family="ui-monospace, SFMono-Regular, 'SF Mono', Menlo, monospace">05-11</text><text x="420.2" y="248" text-anchor="middle" font-size="10" fill="#8c959f" font-family="ui-monospace, SFMono-Regular, 'SF Mono', Menlo, monospace">06-12</text><text x="788.5" y="248" text-anchor="middle" font-size="10" fill="#8c959f" font-family="ui-monospace, SFMono-Regular, 'SF Mono', Menlo, monospace">07-14</text><text x="800.0" y="248" text-anchor="middle" font-size="10" fill="#8c959f" font-family="ui-monospace, SFMono-Regular, 'SF Mono', Menlo, monospace">07-15</text><text x="144.1" y="248" text-anchor="middle" font-size="10" fill="#8c959f" font-family="ui-monospace, SFMono-Regular, 'SF Mono', Menlo, monospace">05-19</text><text x="512.3" y="248" text-anchor="middle" font-size="10" fill="#8c959f" font-family="ui-monospace, SFMono-Regular, 'SF Mono', Menlo, monospace">06-20</text><text x="236.1" y="248" text-anchor="middle" font-size="10" fill="#8c959f" font-family="ui-monospace, SFMono-Regular, 'SF Mono', Menlo, monospace">05-27</text><text x="604.4" y="248" text-anchor="middle" font-size="10" fill="#8c959f" font-family="ui-monospace, SFMono-Regular, 'SF Mono', Menlo, monospace">06-28</text><text x="328.2" y="248" text-anchor="middle" font-size="10" fill="#8c959f" font-family="ui-monospace, SFMono-Regular, 'SF Mono', Menlo, monospace">06-04</text><text x="696.4" y="248" text-anchor="middle" font-size="10" fill="#8c959f" font-family="ui-monospace, SFMono-Regular, 'SF Mono', Menlo, monospace">07-06</text>

  <!-- legend -->
  <rect x="60" y="262" width="16" height="3" fill="#4e79a7" rx="1"/><text x="80" y="268" font-size="11" fill="#57606a" font-family="-apple-system, BlinkMacSystemFont, 'Segoe UI', sans-serif">Total clones (1,263)</text><line x1="230" y1="264" x2="246" y2="264" stroke="#f28e2b" stroke-width="2" stroke-dasharray="5,3"/><text x="250" y="268" font-size="11" fill="#57606a" font-family="-apple-system, BlinkMacSystemFont, 'Segoe UI', sans-serif">Unique cloners</text>

</svg>