<svg xmlns="http://www.w3.org/2000/svg" viewBox="0 0 820 280" width="820" height="280">

  <!-- title -->
  <text x="52" y="18" font-size="13" font-weight="600"
        fill="#24292f" font-family="-apple-system, BlinkMacSystemFont, 'Segoe UI', sans-serif"
        >Clone traffic — 500ad</text>
  <text x="800" y="18" font-size="10" fill="#8c959f"
        font-family="ui-monospace, SFMono-Regular, 'SF Mono', Menlo, monospace" text-anchor="end">2026-07-06</text>

  <!-- grid -->
  <line x1="52" y1="232.0" x2="800" y2="232.0" stroke="#e8e8e8" stroke-width="1"/><line x1="52" y1="194.7" x2="800" y2="194.7" stroke="#e8e8e8" stroke-width="1"/><line x1="52" y1="157.4" x2="800" y2="157.4" stroke="#e8e8e8" stroke-width="1"/><line x1="52" y1="120.0" x2="800" y2="120.0" stroke="#e8e8e8" stroke-width="1"/><line x1="52" y1="82.7" x2="800" y2="82.7" stroke="#e8e8e8" stroke-width="1"/><line x1="52" y1="45.4" x2="800" y2="45.4" stroke="#e8e8e8" stroke-width="1"/><line x1="52" y1="8.1" x2="800" y2="8.1" stroke="#e8e8e8" stroke-width="1"/>

  <!-- area fill -->
  <path d="M52.0,232.0 L52.0,232.0 L65.6,230.8 L79.2,229.5 L92.8,232.0 L106.4,232.0 L120.0,232.0 L133.6,232.0 L147.2,232.0 L160.8,228.3 L174.4,232.0 L188.0,229.5 L201.6,74.0 L215.2,100.1 L228.8,28.0 L242.4,217.1 L256.0,218.3 L269.6,232.0 L283.2,30.5 L296.8,193.4 L310.4,163.6 L324.0,225.8 L337.6,223.3 L351.2,225.8 L364.8,230.8 L378.4,232.0 L392.0,230.8 L405.6,105.1 L419.2,113.8 L432.8,229.5 L446.4,229.5 L460.0,225.8 L473.6,228.3 L487.2,203.4 L500.8,166.1 L514.4,225.8 L528.0,208.4 L541.6,230.8 L555.2,232.0 L568.8,122.5 L582.4,102.6 L596.0,222.0 L609.6,217.1 L623.2,230.8 L636.8,230.8 L650.4,229.5 L664.0,230.8 L677.6,229.5 L691.2,230.8 L704.8,232.0 L718.4,228.3 L732.0,229.5 L745.6,232.0 L759.2,230.8 L772.8,230.8 L786.4,227.0 L800.0,230.8 L800.0,232.0 L52.0,232.0Z" fill="#4e79a7" opacity="0.12"/>

  <!-- lines -->
  <polyline points="52.0,232.0 65.6,230.8 79.2,229.5 92.8,232.0 106.4,232.0 120.0,232.0 133.6,232.0 147.2,232.0 160.8,228.3 174.4,232.0 188.0,229.5 201.6,74.0 215.2,100.1 228.8,28.0 242.4,217.1 256.0,218.3 269.6,232.0 283.2,30.5 296.8,193.4 310.4,163.6 324.0,225.8 337.6,223.3 351.2,225.8 364.8,230.8 378.4,232.0 392.0,230.8 405.6,105.1 419.2,113.8 432.8,229.5 446.4,229.5 460.0,225.8 473.6,228.3 487.2,203.4 500.8,166.1 514.4,225.8 528.0,208.4 541.6,230.8 555.2,232.0 568.8,122.5 582.4,102.6 596.0,222.0 609.6,217.1 623.2,230.8 636.8,230.8 650.4,229.5 664.0,230.8 677.6,229.5 691.2,230.8 704.8,232.0 718.4,228.3 732.0,229.5 745.6,232.0 759.2,230.8 772.8,230.8 786.4,227.0 800.0,230.8"
            fill="none" stroke="#4e79a7"
            stroke-width="2" stroke-linejoin="round"/>
  <polyline points="52.0,232.0 65.6,230.8 79.2,229.5 92.8,232.0 106.4,232.0 120.0,232.0 133.6,232.0 147.2,232.0 160.8,229.5 174.4,232.0 188.0,229.5 201.6,177.3 215.2,156.1 228.8,125.0 242.4,228.3 256.0,228.3 269.6,232.0 283.2,147.4 296.8,210.9 310.4,210.9 324.0,227.0 337.6,228.3 351.2,229.5 364.8,230.8 378.4,232.0 392.0,230.8 405.6,183.5 419.2,186.0 432.8,230.8 446.4,229.5 460.0,228.3 473.6,228.3 487.2,219.6 500.8,218.3 514.4,229.5 528.0,228.3 541.6,230.8 555.2,232.0 568.8,207.1 582.4,210.9 596.0,229.5 609.6,228.3 623.2,230.8 636.8,230.8 650.4,229.5 664.0,230.8 677.6,229.5 691.2,230.8 704.8,232.0 718.4,229.5 732.0,229.5 745.6,232.0 759.2,230.8 772.8,230.8 786.4,228.3 800.0,230.8"
            fill="none" stroke="#f28e2b"
            stroke-width="2" stroke-linejoin="round"
            stroke-dasharray="5,3"/>

  <!-- dots -->
  <circle cx="52.0" cy="232.0" r="3" fill="#4e79a7"/><circle cx="65.6" cy="230.8" r="3" fill="#4e79a7"/><circle cx="79.2" cy="229.5" r="3" fill="#4e79a7"/><circle cx="92.8" cy="232.0" r="3" fill="#4e79a7"/><circle cx="106.4" cy="232.0" r="3" fill="#4e79a7"/><circle cx="120.0" cy="232.0" r="3" fill="#4e79a7"/><circle cx="133.6" cy="232.0" r="3" fill="#4e79a7"/><circle cx="147.2" cy="232.0" r="3" fill="#4e79a7"/><circle cx="160.8" cy="228.3" r="3" fill="#4e79a7"/><circle cx="174.4" cy="232.0" r="3" fill="#4e79a7"/><circle cx="188.0" cy="229.5" r="3" fill="#4e79a7"/><circle cx="201.6" cy="74.0" r="3" fill="#4e79a7"/><circle cx="215.2" cy="100.1" r="3" fill="#4e79a7"/><circle cx="228.8" cy="28.0" r="3" fill="#4e79a7"/><circle cx="242.4" cy="217.1" r="3" fill="#4e79a7"/><circle cx="256.0" cy="218.3" r="3" fill="#4e79a7"/><circle cx="269.6" cy="232.0" r="3" fill="#4e79a7"/><circle cx="283.2" cy="30.5" r="3" fill="#4e79a7"/><circle cx="296.8" cy="193.4" r="3" fill="#4e79a7"/><circle cx="310.4" cy="163.6" r="3" fill="#4e79a7"/><circle cx="324.0" cy="225.8" r="3" fill="#4e79a7"/><circle cx="337.6" cy="223.3" r="3" fill="#4e79a7"/><circle cx="351.2" cy="225.8" r="3" fill="#4e79a7"/><circle cx="364.8" cy="230.8" r="3" fill="#4e79a7"/><circle cx="378.4" cy="232.0" r="3" fill="#4e79a7"/><circle cx="392.0" cy="230.8" r="3" fill="#4e79a7"/><circle cx="405.6" cy="105.1" r="3" fill="#4e79a7"/><circle cx="419.2" cy="113.8" r="3" fill="#4e79a7"/><circle cx="432.8" cy="229.5" r="3" fill="#4e79a7"/><circle cx="446.4" cy="229.5" r="3" fill="#4e79a7"/><circle cx="460.0" cy="225.8" r="3" fill="#4e79a7"/><circle cx="473.6" cy="228.3" r="3" fill="#4e79a7"/><circle cx="487.2" cy="203.4" r="3" fill="#4e79a7"/><circle cx="500.8" cy="166.1" r="3" fill="#4e79a7"/><circle cx="514.4" cy="225.8" r="3" fill="#4e79a7"/><circle cx="528.0" cy="208.4" r="3" fill="#4e79a7"/><circle cx="541.6" cy="230.8" r="3" fill="#4e79a7"/><circle cx="555.2" cy="232.0" r="3" fill="#4e79a7"/><circle cx="568.8" cy="122.5" r="3" fill="#4e79a7"/><circle cx="582.4" cy="102.6" r="3" fill="#4e79a7"/><circle cx="596.0" cy="222.0" r="3" fill="#4e79a7"/><circle cx="609.6" cy="217.1" r="3" fill="#4e79a7"/><circle cx="623.2" cy="230.8" r="3" fill="#4e79a7"/><circle cx="636.8" cy="230.8" r="3" fill="#4e79a7"/><circle cx="650.4" cy="229.5" r="3" fill="#4e79a7"/><circle cx="664.0" cy="230.8" r="3" fill="#4e79a7"/><circle cx="677.6" cy="229.5" r="3" fill="#4e79a7"/><circle cx="691.2" cy="230.8" r="3" fill="#4e79a7"/><circle cx="704.8" cy="232.0" r="3" fill="#4e79a7"/><circle cx="718.4" cy="228.3" r="3" fill="#4e79a7"/><circle cx="732.0" cy="229.5" r="3" fill="#4e79a7"/><circle cx="745.6" cy="232.0" r="3" fill="#4e79a7"/><circle cx="759.2" cy="230.8" r="3" fill="#4e79a7"/><circle cx="772.8" cy="230.8" r="3" fill="#4e79a7"/><circle cx="786.4" cy="227.0" r="3" fill="#4e79a7"/><circle cx="800.0" cy="230.8" r="3" fill="#4e79a7"/>
  <circle cx="52.0" cy="232.0" r="3" fill="#f28e2b"/><circle cx="65.6" cy="230.8" r="3" fill="#f28e2b"/><circle cx="79.2" cy="229.5" r="3" fill="#f28e2b"/><circle cx="92.8" cy="232.0" r="3" fill="#f28e2b"/><circle cx="106.4" cy="232.0" r="3" fill="#f28e2b"/><circle cx="120.0" cy="232.0" r="3" fill="#f28e2b"/><circle cx="133.6" cy="232.0" r="3" fill="#f28e2b"/><circle cx="147.2" cy="232.0" r="3" fill="#f28e2b"/><circle cx="160.8" cy="229.5" r="3" fill="#f28e2b"/><circle cx="174.4" cy="232.0" r="3" fill="#f28e2b"/><circle cx="188.0" cy="229.5" r="3" fill="#f28e2b"/><circle cx="201.6" cy="177.3" r="3" fill="#f28e2b"/><circle cx="215.2" cy="156.1" r="3" fill="#f28e2b"/><circle cx="228.8" cy="125.0" r="3" fill="#f28e2b"/><circle cx="242.4" cy="228.3" r="3" fill="#f28e2b"/><circle cx="256.0" cy="228.3" r="3" fill="#f28e2b"/><circle cx="269.6" cy="232.0" r="3" fill="#f28e2b"/><circle cx="283.2" cy="147.4" r="3" fill="#f28e2b"/><circle cx="296.8" cy="210.9" r="3" fill="#f28e2b"/><circle cx="310.4" cy="210.9" r="3" fill="#f28e2b"/><circle cx="324.0" cy="227.0" r="3" fill="#f28e2b"/><circle cx="337.6" cy="228.3" r="3" fill="#f28e2b"/><circle cx="351.2" cy="229.5" r="3" fill="#f28e2b"/><circle cx="364.8" cy="230.8" r="3" fill="#f28e2b"/><circle cx="378.4" cy="232.0" r="3" fill="#f28e2b"/><circle cx="392.0" cy="230.8" r="3" fill="#f28e2b"/><circle cx="405.6" cy="183.5" r="3" fill="#f28e2b"/><circle cx="419.2" cy="186.0" r="3" fill="#f28e2b"/><circle cx="432.8" cy="230.8" r="3" fill="#f28e2b"/><circle cx="446.4" cy="229.5" r="3" fill="#f28e2b"/><circle cx="460.0" cy="228.3" r="3" fill="#f28e2b"/><circle cx="473.6" cy="228.3" r="3" fill="#f28e2b"/><circle cx="487.2" cy="219.6" r="3" fill="#f28e2b"/><circle cx="500.8" cy="218.3" r="3" fill="#f28e2b"/><circle cx="514.4" cy="229.5" r="3" fill="#f28e2b"/><circle cx="528.0" cy="228.3" r="3" fill="#f28e2b"/><circle cx="541.6" cy="230.8" r="3" fill="#f28e2b"/><circle cx="555.2" cy="232.0" r="3" fill="#f28e2b"/><circle cx="568.8" cy="207.1" r="3" fill="#f28e2b"/><circle cx="582.4" cy="210.9" r="3" fill="#f28e2b"/><circle cx="596.0" cy="229.5" r="3" fill="#f28e2b"/><circle cx="609.6" cy="228.3" r="3" fill="#f28e2b"/><circle cx="623.2" cy="230.8" r="3" fill="#f28e2b"/><circle cx="636.8" cy="230.8" r="3" fill="#f28e2b"/><circle cx="650.4" cy="229.5" r="3" fill="#f28e2b"/><circle cx="664.0" cy="230.8" r="3" fill="#f28e2b"/><circle cx="677.6" cy="229.5" r="3" fill="#f28e2b"/><circle cx="691.2" cy="230.8" r="3" fill="#f28e2b"/><circle cx="704.8" cy="232.0" r="3" fill="#f28e2b"/><circle cx="718.4" cy="229.5" r="3" fill="#f28e2b"/><circle cx="732.0" cy="229.5" r="3" fill="#f28e2b"/><circle cx="745.6" cy="232.0" r="3" fill="#f28e2b"/><circle cx="759.2" cy="230.8" r="3" fill="#f28e2b"/><circle cx="772.8" cy="230.8" r="3" fill="#f28e2b"/><circle cx="786.4" cy="228.3" r="3" fill="#f28e2b"/><circle cx="800.0" cy="230.8" r="3" fill="#f28e2b"/>

  <!-- axes -->
  <line x1="52" y1="28" x2="52" y2="232"
        stroke="#cccccc" stroke-width="1"/>
  <line x1="52" y1="232" x2="800" y2="232"
        stroke="#cccccc" stroke-width="1"/>

  <!-- y-axis labels -->
  <text x="47" y="236.0" text-anchor="end" font-size="10" fill="#57606a" font-family="ui-monospace, SFMono-Regular, 'SF Mono', Menlo, monospace">0</text><text x="47" y="198.7" text-anchor="end" font-size="10" fill="#57606a" font-family="ui-monospace, SFMono-Regular, 'SF Mono', Menlo, monospace">30</text><text x="47" y="161.4" text-anchor="end" font-size="10" fill="#57606a" font-family="ui-monospace, SFMono-Regular, 'SF Mono', Menlo, monospace">60</text><text x="47" y="124.0" text-anchor="end" font-size="10" fill="#57606a" font-family="ui-monospace, SFMono-Regular, 'SF Mono', Menlo, monospace">90</text><text x="47" y="86.7" text-anchor="end" font-size="10" fill="#57606a" font-family="ui-monospace, SFMono-Regular, 'SF Mono', Menlo, monospace">120</text><text x="47" y="49.4" text-anchor="end" font-size="10" fill="#57606a" font-family="ui-monospace, SFMono-Regular, 'SF Mono', Menlo, monospace">150</text><text x="47" y="12.1" text-anchor="end" font-size="10" fill="#57606a" font-family="ui-monospace, SFMono-Regular, 'SF Mono', Menlo, monospace">180</text>

  <!-- x-axis labels -->
  <text x="52.0" y="248" text-anchor="middle" font-size="10" fill="#8c959f" font-family="ui-monospace, SFMono-Regular, 'SF Mono', Menlo, monospace">05-11</text><text x="528.0" y="248" text-anchor="middle" font-size="10" fill="#8c959f" font-family="ui-monospace, SFMono-Regular, 'SF Mono', Menlo, monospace">06-15</text><text x="147.2" y="248" text-anchor="middle" font-size="10" fill="#8c959f" font-family="ui-monospace, SFMono-Regular, 'SF Mono', Menlo, monospace">05-18</text><text x="623.2" y="248" text-anchor="middle" font-size="10" fill="#8c959f" font-family="ui-monospace, SFMono-Regular, 'SF Mono', Menlo, monospace">06-22</text><text x="242.4" y="248" text-anchor="middle" font-size="10" fill="#8c959f" font-family="ui-monospace, SFMono-Regular, 'SF Mono', Menlo, monospace">05-25</text><text x="718.4" y="248" text-anchor="middle" font-size="10" fill="#8c959f" font-family="ui-monospace, SFMono-Regular, 'SF Mono', Menlo, monospace">06-29</text><text x="337.6" y="248" text-anchor="middle" font-size="10" fill="#8c959f" font-family="ui-monospace, SFMono-Regular, 'SF Mono', Menlo, monospace">06-01</text><text x="800.0" y="248" text-anchor="middle" font-size="10" fill="#8c959f" font-family="ui-monospace, SFMono-Regular, 'SF Mono', Menlo, monospace">07-05</text><text x="432.8" y="248" text-anchor="middle" font-size="10" fill="#8c959f" font-family="ui-monospace, SFMono-Regular, 'SF Mono', Menlo, monospace">06-08</text>

  <!-- legend -->
  <rect x="60" y="262" width="16" height="3" fill="#4e79a7" rx="1"/><text x="80" y="268" font-size="11" fill="#57606a" font-family="-apple-system, BlinkMacSystemFont, 'Segoe UI', sans-serif">Total clones (1,237)</text><line x1="230" y1="264" x2="246" y2="264" stroke="#f28e2b" stroke-width="2" stroke-dasharray="5,3"/><text x="250" y="268" font-size="11" fill="#57606a" font-family="-apple-system, BlinkMacSystemFont, 'Segoe UI', sans-serif">Unique cloners</text>

</svg>