<svg xmlns="http://www.w3.org/2000/svg" viewBox="0 0 820 280" width="820" height="280">

  <!-- title -->
  <text x="52" y="18" font-size="13" font-weight="600"
        fill="#24292f" font-family="-apple-system, BlinkMacSystemFont, 'Segoe UI', sans-serif"
        >Clone traffic — 500ad</text>
  <text x="800" y="18" font-size="10" fill="#8c959f"
        font-family="ui-monospace, SFMono-Regular, 'SF Mono', Menlo, monospace" text-anchor="end">2026-07-09</text>

  <!-- grid -->
  <line x1="52" y1="232.0" x2="800" y2="232.0" stroke="#e8e8e8" stroke-width="1"/><line x1="52" y1="194.7" x2="800" y2="194.7" stroke="#e8e8e8" stroke-width="1"/><line x1="52" y1="157.4" x2="800" y2="157.4" stroke="#e8e8e8" stroke-width="1"/><line x1="52" y1="120.0" x2="800" y2="120.0" stroke="#e8e8e8" stroke-width="1"/><line x1="52" y1="82.7" x2="800" y2="82.7" stroke="#e8e8e8" stroke-width="1"/><line x1="52" y1="45.4" x2="800" y2="45.4" stroke="#e8e8e8" stroke-width="1"/><line x1="52" y1="8.1" x2="800" y2="8.1" stroke="#e8e8e8" stroke-width="1"/>

  <!-- area fill -->
  <path d="M52.0,232.0 L52.0,232.0 L65.1,230.8 L78.2,229.5 L91.4,232.0 L104.5,232.0 L117.6,232.0 L130.7,232.0 L143.9,232.0 L157.0,228.3 L170.1,232.0 L183.2,229.5 L196.4,74.0 L209.5,100.1 L222.6,28.0 L235.7,217.1 L248.8,218.3 L262.0,232.0 L275.1,30.5 L288.2,193.4 L301.3,163.6 L314.5,225.8 L327.6,223.3 L340.7,225.8 L353.8,230.8 L366.9,232.0 L380.1,230.8 L393.2,105.1 L406.3,113.8 L419.4,229.5 L432.6,229.5 L445.7,225.8 L458.8,228.3 L471.9,203.4 L485.1,166.1 L498.2,225.8 L511.3,208.4 L524.4,230.8 L537.5,232.0 L550.7,122.5 L563.8,102.6 L576.9,222.0 L590.0,217.1 L603.2,230.8 L616.3,230.8 L629.4,229.5 L642.5,230.8 L655.6,229.5 L668.8,230.8 L681.9,232.0 L695.0,228.3 L708.1,229.5 L721.3,232.0 L734.4,230.8 L747.5,230.8 L760.6,227.0 L773.8,230.8 L786.9,228.3 L800.0,229.5 L800.0,232.0 L52.0,232.0Z" fill="#4e79a7" opacity="0.12"/>

  <!-- lines -->
  <polyline points="52.0,232.0 65.1,230.8 78.2,229.5 91.4,232.0 104.5,232.0 117.6,232.0 130.7,232.0 143.9,232.0 157.0,228.3 170.1,232.0 183.2,229.5 196.4,74.0 209.5,100.1 222.6,28.0 235.7,217.1 248.8,218.3 262.0,232.0 275.1,30.5 288.2,193.4 301.3,163.6 314.5,225.8 327.6,223.3 340.7,225.8 353.8,230.8 366.9,232.0 380.1,230.8 393.2,105.1 406.3,113.8 419.4,229.5 432.6,229.5 445.7,225.8 458.8,228.3 471.9,203.4 485.1,166.1 498.2,225.8 511.3,208.4 524.4,230.8 537.5,232.0 550.7,122.5 563.8,102.6 576.9,222.0 590.0,217.1 603.2,230.8 616.3,230.8 629.4,229.5 642.5,230.8 655.6,229.5 668.8,230.8 681.9,232.0 695.0,228.3 708.1,229.5 721.3,232.0 734.4,230.8 747.5,230.8 760.6,227.0 773.8,230.8 786.9,228.3 800.0,229.5"
            fill="none" stroke="#4e79a7"
            stroke-width="2" stroke-linejoin="round"/>
  <polyline points="52.0,232.0 65.1,230.8 78.2,229.5 91.4,232.0 104.5,232.0 117.6,232.0 130.7,232.0 143.9,232.0 157.0,229.5 170.1,232.0 183.2,229.5 196.4,177.3 209.5,156.1 222.6,125.0 235.7,228.3 248.8,228.3 262.0,232.0 275.1,147.4 288.2,210.9 301.3,210.9 314.5,227.0 327.6,228.3 340.7,229.5 353.8,230.8 366.9,232.0 380.1,230.8 393.2,183.5 406.3,186.0 419.4,230.8 432.6,229.5 445.7,228.3 458.8,228.3 471.9,219.6 485.1,218.3 498.2,229.5 511.3,228.3 524.4,230.8 537.5,232.0 550.7,207.1 563.8,210.9 576.9,229.5 590.0,228.3 603.2,230.8 616.3,230.8 629.4,229.5 642.5,230.8 655.6,229.5 668.8,230.8 681.9,232.0 695.0,229.5 708.1,229.5 721.3,232.0 734.4,230.8 747.5,230.8 760.6,228.3 773.8,230.8 786.9,229.5 800.0,229.5"
            fill="none" stroke="#f28e2b"
            stroke-width="2" stroke-linejoin="round"
            stroke-dasharray="5,3"/>

  <!-- dots -->
  <circle cx="52.0" cy="232.0" r="3" fill="#4e79a7"/><circle cx="65.1" cy="230.8" r="3" fill="#4e79a7"/><circle cx="78.2" cy="229.5" r="3" fill="#4e79a7"/><circle cx="91.4" cy="232.0" r="3" fill="#4e79a7"/><circle cx="104.5" cy="232.0" r="3" fill="#4e79a7"/><circle cx="117.6" cy="232.0" r="3" fill="#4e79a7"/><circle cx="130.7" cy="232.0" r="3" fill="#4e79a7"/><circle cx="143.9" cy="232.0" r="3" fill="#4e79a7"/><circle cx="157.0" cy="228.3" r="3" fill="#4e79a7"/><circle cx="170.1" cy="232.0" r="3" fill="#4e79a7"/><circle cx="183.2" cy="229.5" r="3" fill="#4e79a7"/><circle cx="196.4" cy="74.0" r="3" fill="#4e79a7"/><circle cx="209.5" cy="100.1" r="3" fill="#4e79a7"/><circle cx="222.6" cy="28.0" r="3" fill="#4e79a7"/><circle cx="235.7" cy="217.1" r="3" fill="#4e79a7"/><circle cx="248.8" cy="218.3" r="3" fill="#4e79a7"/><circle cx="262.0" cy="232.0" r="3" fill="#4e79a7"/><circle cx="275.1" cy="30.5" r="3" fill="#4e79a7"/><circle cx="288.2" cy="193.4" r="3" fill="#4e79a7"/><circle cx="301.3" cy="163.6" r="3" fill="#4e79a7"/><circle cx="314.5" cy="225.8" r="3" fill="#4e79a7"/><circle cx="327.6" cy="223.3" r="3" fill="#4e79a7"/><circle cx="340.7" cy="225.8" r="3" fill="#4e79a7"/><circle cx="353.8" cy="230.8" r="3" fill="#4e79a7"/><circle cx="366.9" cy="232.0" r="3" fill="#4e79a7"/><circle cx="380.1" cy="230.8" r="3" fill="#4e79a7"/><circle cx="393.2" cy="105.1" r="3" fill="#4e79a7"/><circle cx="406.3" cy="113.8" r="3" fill="#4e79a7"/><circle cx="419.4" cy="229.5" r="3" fill="#4e79a7"/><circle cx="432.6" cy="229.5" r="3" fill="#4e79a7"/><circle cx="445.7" cy="225.8" r="3" fill="#4e79a7"/><circle cx="458.8" cy="228.3" r="3" fill="#4e79a7"/><circle cx="471.9" cy="203.4" r="3" fill="#4e79a7"/><circle cx="485.1" cy="166.1" r="3" fill="#4e79a7"/><circle cx="498.2" cy="225.8" r="3" fill="#4e79a7"/><circle cx="511.3" cy="208.4" r="3" fill="#4e79a7"/><circle cx="524.4" cy="230.8" r="3" fill="#4e79a7"/><circle cx="537.5" cy="232.0" r="3" fill="#4e79a7"/><circle cx="550.7" cy="122.5" r="3" fill="#4e79a7"/><circle cx="563.8" cy="102.6" r="3" fill="#4e79a7"/><circle cx="576.9" cy="222.0" r="3" fill="#4e79a7"/><circle cx="590.0" cy="217.1" r="3" fill="#4e79a7"/><circle cx="603.2" cy="230.8" r="3" fill="#4e79a7"/><circle cx="616.3" cy="230.8" r="3" fill="#4e79a7"/><circle cx="629.4" cy="229.5" r="3" fill="#4e79a7"/><circle cx="642.5" cy="230.8" r="3" fill="#4e79a7"/><circle cx="655.6" cy="229.5" r="3" fill="#4e79a7"/><circle cx="668.8" cy="230.8" r="3" fill="#4e79a7"/><circle cx="681.9" cy="232.0" r="3" fill="#4e79a7"/><circle cx="695.0" cy="228.3" r="3" fill="#4e79a7"/><circle cx="708.1" cy="229.5" r="3" fill="#4e79a7"/><circle cx="721.3" cy="232.0" r="3" fill="#4e79a7"/><circle cx="734.4" cy="230.8" r="3" fill="#4e79a7"/><circle cx="747.5" cy="230.8" r="3" fill="#4e79a7"/><circle cx="760.6" cy="227.0" r="3" fill="#4e79a7"/><circle cx="773.8" cy="230.8" r="3" fill="#4e79a7"/><circle cx="786.9" cy="228.3" r="3" fill="#4e79a7"/><circle cx="800.0" cy="229.5" r="3" fill="#4e79a7"/>
  <circle cx="52.0" cy="232.0" r="3" fill="#f28e2b"/><circle cx="65.1" cy="230.8" r="3" fill="#f28e2b"/><circle cx="78.2" cy="229.5" r="3" fill="#f28e2b"/><circle cx="91.4" cy="232.0" r="3" fill="#f28e2b"/><circle cx="104.5" cy="232.0" r="3" fill="#f28e2b"/><circle cx="117.6" cy="232.0" r="3" fill="#f28e2b"/><circle cx="130.7" cy="232.0" r="3" fill="#f28e2b"/><circle cx="143.9" cy="232.0" r="3" fill="#f28e2b"/><circle cx="157.0" cy="229.5" r="3" fill="#f28e2b"/><circle cx="170.1" cy="232.0" r="3" fill="#f28e2b"/><circle cx="183.2" cy="229.5" r="3" fill="#f28e2b"/><circle cx="196.4" cy="177.3" r="3" fill="#f28e2b"/><circle cx="209.5" cy="156.1" r="3" fill="#f28e2b"/><circle cx="222.6" cy="125.0" r="3" fill="#f28e2b"/><circle cx="235.7" cy="228.3" r="3" fill="#f28e2b"/><circle cx="248.8" cy="228.3" r="3" fill="#f28e2b"/><circle cx="262.0" cy="232.0" r="3" fill="#f28e2b"/><circle cx="275.1" cy="147.4" r="3" fill="#f28e2b"/><circle cx="288.2" cy="210.9" r="3" fill="#f28e2b"/><circle cx="301.3" cy="210.9" r="3" fill="#f28e2b"/><circle cx="314.5" cy="227.0" r="3" fill="#f28e2b"/><circle cx="327.6" cy="228.3" r="3" fill="#f28e2b"/><circle cx="340.7" cy="229.5" r="3" fill="#f28e2b"/><circle cx="353.8" cy="230.8" r="3" fill="#f28e2b"/><circle cx="366.9" cy="232.0" r="3" fill="#f28e2b"/><circle cx="380.1" cy="230.8" r="3" fill="#f28e2b"/><circle cx="393.2" cy="183.5" r="3" fill="#f28e2b"/><circle cx="406.3" cy="186.0" r="3" fill="#f28e2b"/><circle cx="419.4" cy="230.8" r="3" fill="#f28e2b"/><circle cx="432.6" cy="229.5" r="3" fill="#f28e2b"/><circle cx="445.7" cy="228.3" r="3" fill="#f28e2b"/><circle cx="458.8" cy="228.3" r="3" fill="#f28e2b"/><circle cx="471.9" cy="219.6" r="3" fill="#f28e2b"/><circle cx="485.1" cy="218.3" r="3" fill="#f28e2b"/><circle cx="498.2" cy="229.5" r="3" fill="#f28e2b"/><circle cx="511.3" cy="228.3" r="3" fill="#f28e2b"/><circle cx="524.4" cy="230.8" r="3" fill="#f28e2b"/><circle cx="537.5" cy="232.0" r="3" fill="#f28e2b"/><circle cx="550.7" cy="207.1" r="3" fill="#f28e2b"/><circle cx="563.8" cy="210.9" r="3" fill="#f28e2b"/><circle cx="576.9" cy="229.5" r="3" fill="#f28e2b"/><circle cx="590.0" cy="228.3" r="3" fill="#f28e2b"/><circle cx="603.2" cy="230.8" r="3" fill="#f28e2b"/><circle cx="616.3" cy="230.8" r="3" fill="#f28e2b"/><circle cx="629.4" cy="229.5" r="3" fill="#f28e2b"/><circle cx="642.5" cy="230.8" r="3" fill="#f28e2b"/><circle cx="655.6" cy="229.5" r="3" fill="#f28e2b"/><circle cx="668.8" cy="230.8" r="3" fill="#f28e2b"/><circle cx="681.9" cy="232.0" r="3" fill="#f28e2b"/><circle cx="695.0" cy="229.5" r="3" fill="#f28e2b"/><circle cx="708.1" cy="229.5" r="3" fill="#f28e2b"/><circle cx="721.3" cy="232.0" r="3" fill="#f28e2b"/><circle cx="734.4" cy="230.8" r="3" fill="#f28e2b"/><circle cx="747.5" cy="230.8" r="3" fill="#f28e2b"/><circle cx="760.6" cy="228.3" r="3" fill="#f28e2b"/><circle cx="773.8" cy="230.8" r="3" fill="#f28e2b"/><circle cx="786.9" cy="229.5" r="3" fill="#f28e2b"/><circle cx="800.0" cy="229.5" r="3" fill="#f28e2b"/>

  <!-- axes -->
  <line x1="52" y1="28" x2="52" y2="232"
        stroke="#cccccc" stroke-width="1"/>
  <line x1="52" y1="232" x2="800" y2="232"
        stroke="#cccccc" stroke-width="1"/>

  <!-- y-axis labels -->
  <text x="47" y="236.0" text-anchor="end" font-size="10" fill="#57606a" font-family="ui-monospace, SFMono-Regular, 'SF Mono', Menlo, monospace">0</text><text x="47" y="198.7" text-anchor="end" font-size="10" fill="#57606a" font-family="ui-monospace, SFMono-Regular, 'SF Mono', Menlo, monospace">30</text><text x="47" y="161.4" text-anchor="end" font-size="10" fill="#57606a" font-family="ui-monospace, SFMono-Regular, 'SF Mono', Menlo, monospace">60</text><text x="47" y="124.0" text-anchor="end" font-size="10" fill="#57606a" font-family="ui-monospace, SFMono-Regular, 'SF Mono', Menlo, monospace">90</text><text x="47" y="86.7" text-anchor="end" font-size="10" fill="#57606a" font-family="ui-monospace, SFMono-Regular, 'SF Mono', Menlo, monospace">120</text><text x="47" y="49.4" text-anchor="end" font-size="10" fill="#57606a" font-family="ui-monospace, SFMono-Regular, 'SF Mono', Menlo, monospace">150</text><text x="47" y="12.1" text-anchor="end" font-size="10" fill="#57606a" font-family="ui-monospace, SFMono-Regular, 'SF Mono', Menlo, monospace">180</text>

  <!-- x-axis labels -->
  <text x="52.0" y="248" text-anchor="middle" font-size="10" fill="#8c959f" font-family="ui-monospace, SFMono-Regular, 'SF Mono', Menlo, monospace">05-11</text><text x="511.3" y="248" text-anchor="middle" font-size="10" fill="#8c959f" font-family="ui-monospace, SFMono-Regular, 'SF Mono', Menlo, monospace">06-15</text><text x="143.9" y="248" text-anchor="middle" font-size="10" fill="#8c959f" font-family="ui-monospace, SFMono-Regular, 'SF Mono', Menlo, monospace">05-18</text><text x="603.2" y="248" text-anchor="middle" font-size="10" fill="#8c959f" font-family="ui-monospace, SFMono-Regular, 'SF Mono', Menlo, monospace">06-22</text><text x="235.7" y="248" text-anchor="middle" font-size="10" fill="#8c959f" font-family="ui-monospace, SFMono-Regular, 'SF Mono', Menlo, monospace">05-25</text><text x="695.0" y="248" text-anchor="middle" font-size="10" fill="#8c959f" font-family="ui-monospace, SFMono-Regular, 'SF Mono', Menlo, monospace">06-29</text><text x="327.6" y="248" text-anchor="middle" font-size="10" fill="#8c959f" font-family="ui-monospace, SFMono-Regular, 'SF Mono', Menlo, monospace">06-01</text><text x="786.9" y="248" text-anchor="middle" font-size="10" fill="#8c959f" font-family="ui-monospace, SFMono-Regular, 'SF Mono', Menlo, monospace">07-06</text><text x="800.0" y="248" text-anchor="middle" font-size="10" fill="#8c959f" font-family="ui-monospace, SFMono-Regular, 'SF Mono', Menlo, monospace">07-07</text><text x="419.4" y="248" text-anchor="middle" font-size="10" fill="#8c959f" font-family="ui-monospace, SFMono-Regular, 'SF Mono', Menlo, monospace">06-08</text>

  <!-- legend -->
  <rect x="60" y="262" width="16" height="3" fill="#4e79a7" rx="1"/><text x="80" y="268" font-size="11" fill="#57606a" font-family="-apple-system, BlinkMacSystemFont, 'Segoe UI', sans-serif">Total clones (1,242)</text><line x1="230" y1="264" x2="246" y2="264" stroke="#f28e2b" stroke-width="2" stroke-dasharray="5,3"/><text x="250" y="268" font-size="11" fill="#57606a" font-family="-apple-system, BlinkMacSystemFont, 'Segoe UI', sans-serif">Unique cloners</text>

</svg>