<svg xmlns="http://www.w3.org/2000/svg" viewBox="0 0 820 280" width="820" height="280">

  <!-- title -->
  <text x="52" y="18" font-size="13" font-weight="600"
        fill="#24292f" font-family="-apple-system, BlinkMacSystemFont, 'Segoe UI', sans-serif"
        >Clone traffic — 500ad</text>
  <text x="800" y="18" font-size="10" fill="#8c959f"
        font-family="ui-monospace, SFMono-Regular, 'SF Mono', Menlo, monospace" text-anchor="end">2026-06-25</text>

  <!-- grid -->
  <line x1="52" y1="232.0" x2="800" y2="232.0" stroke="#e8e8e8" stroke-width="1"/><line x1="52" y1="194.7" x2="800" y2="194.7" stroke="#e8e8e8" stroke-width="1"/><line x1="52" y1="157.4" x2="800" y2="157.4" stroke="#e8e8e8" stroke-width="1"/><line x1="52" y1="120.0" x2="800" y2="120.0" stroke="#e8e8e8" stroke-width="1"/><line x1="52" y1="82.7" x2="800" y2="82.7" stroke="#e8e8e8" stroke-width="1"/><line x1="52" y1="45.4" x2="800" y2="45.4" stroke="#e8e8e8" stroke-width="1"/><line x1="52" y1="8.1" x2="800" y2="8.1" stroke="#e8e8e8" stroke-width="1"/>

  <!-- area fill -->
  <path d="M52.0,232.0 L52.0,232.0 L69.4,230.8 L86.8,229.5 L104.2,232.0 L121.6,232.0 L139.0,232.0 L156.4,232.0 L173.8,232.0 L191.2,228.3 L208.6,232.0 L226.0,229.5 L243.3,74.0 L260.7,100.1 L278.1,28.0 L295.5,217.1 L312.9,218.3 L330.3,232.0 L347.7,30.5 L365.1,193.4 L382.5,163.6 L399.9,225.8 L417.3,223.3 L434.7,225.8 L452.1,230.8 L469.5,232.0 L486.9,230.8 L504.3,105.1 L521.7,113.8 L539.1,229.5 L556.5,229.5 L573.9,225.8 L591.3,228.3 L608.7,203.4 L626.0,166.1 L643.4,225.8 L660.8,208.4 L678.2,230.8 L695.6,232.0 L713.0,122.5 L730.4,102.6 L747.8,222.0 L765.2,217.1 L782.6,230.8 L800.0,230.8 L800.0,232.0 L52.0,232.0Z" fill="#4e79a7" opacity="0.12"/>

  <!-- lines -->
  <polyline points="52.0,232.0 69.4,230.8 86.8,229.5 104.2,232.0 121.6,232.0 139.0,232.0 156.4,232.0 173.8,232.0 191.2,228.3 208.6,232.0 226.0,229.5 243.3,74.0 260.7,100.1 278.1,28.0 295.5,217.1 312.9,218.3 330.3,232.0 347.7,30.5 365.1,193.4 382.5,163.6 399.9,225.8 417.3,223.3 434.7,225.8 452.1,230.8 469.5,232.0 486.9,230.8 504.3,105.1 521.7,113.8 539.1,229.5 556.5,229.5 573.9,225.8 591.3,228.3 608.7,203.4 626.0,166.1 643.4,225.8 660.8,208.4 678.2,230.8 695.6,232.0 713.0,122.5 730.4,102.6 747.8,222.0 765.2,217.1 782.6,230.8 800.0,230.8"
            fill="none" stroke="#4e79a7"
            stroke-width="2" stroke-linejoin="round"/>
  <polyline points="52.0,232.0 69.4,230.8 86.8,229.5 104.2,232.0 121.6,232.0 139.0,232.0 156.4,232.0 173.8,232.0 191.2,229.5 208.6,232.0 226.0,229.5 243.3,177.3 260.7,156.1 278.1,125.0 295.5,228.3 312.9,228.3 330.3,232.0 347.7,147.4 365.1,210.9 382.5,210.9 399.9,227.0 417.3,228.3 434.7,229.5 452.1,230.8 469.5,232.0 486.9,230.8 504.3,183.5 521.7,186.0 539.1,230.8 556.5,229.5 573.9,228.3 591.3,228.3 608.7,219.6 626.0,218.3 643.4,229.5 660.8,228.3 678.2,230.8 695.6,232.0 713.0,207.1 730.4,210.9 747.8,229.5 765.2,228.3 782.6,230.8 800.0,230.8"
            fill="none" stroke="#f28e2b"
            stroke-width="2" stroke-linejoin="round"
            stroke-dasharray="5,3"/>

  <!-- dots -->
  <circle cx="52.0" cy="232.0" r="3" fill="#4e79a7"/><circle cx="69.4" cy="230.8" r="3" fill="#4e79a7"/><circle cx="86.8" cy="229.5" r="3" fill="#4e79a7"/><circle cx="104.2" cy="232.0" r="3" fill="#4e79a7"/><circle cx="121.6" cy="232.0" r="3" fill="#4e79a7"/><circle cx="139.0" cy="232.0" r="3" fill="#4e79a7"/><circle cx="156.4" cy="232.0" r="3" fill="#4e79a7"/><circle cx="173.8" cy="232.0" r="3" fill="#4e79a7"/><circle cx="191.2" cy="228.3" r="3" fill="#4e79a7"/><circle cx="208.6" cy="232.0" r="3" fill="#4e79a7"/><circle cx="226.0" cy="229.5" r="3" fill="#4e79a7"/><circle cx="243.3" cy="74.0" r="3" fill="#4e79a7"/><circle cx="260.7" cy="100.1" r="3" fill="#4e79a7"/><circle cx="278.1" cy="28.0" r="3" fill="#4e79a7"/><circle cx="295.5" cy="217.1" r="3" fill="#4e79a7"/><circle cx="312.9" cy="218.3" r="3" fill="#4e79a7"/><circle cx="330.3" cy="232.0" r="3" fill="#4e79a7"/><circle cx="347.7" cy="30.5" r="3" fill="#4e79a7"/><circle cx="365.1" cy="193.4" r="3" fill="#4e79a7"/><circle cx="382.5" cy="163.6" r="3" fill="#4e79a7"/><circle cx="399.9" cy="225.8" r="3" fill="#4e79a7"/><circle cx="417.3" cy="223.3" r="3" fill="#4e79a7"/><circle cx="434.7" cy="225.8" r="3" fill="#4e79a7"/><circle cx="452.1" cy="230.8" r="3" fill="#4e79a7"/><circle cx="469.5" cy="232.0" r="3" fill="#4e79a7"/><circle cx="486.9" cy="230.8" r="3" fill="#4e79a7"/><circle cx="504.3" cy="105.1" r="3" fill="#4e79a7"/><circle cx="521.7" cy="113.8" r="3" fill="#4e79a7"/><circle cx="539.1" cy="229.5" r="3" fill="#4e79a7"/><circle cx="556.5" cy="229.5" r="3" fill="#4e79a7"/><circle cx="573.9" cy="225.8" r="3" fill="#4e79a7"/><circle cx="591.3" cy="228.3" r="3" fill="#4e79a7"/><circle cx="608.7" cy="203.4" r="3" fill="#4e79a7"/><circle cx="626.0" cy="166.1" r="3" fill="#4e79a7"/><circle cx="643.4" cy="225.8" r="3" fill="#4e79a7"/><circle cx="660.8" cy="208.4" r="3" fill="#4e79a7"/><circle cx="678.2" cy="230.8" r="3" fill="#4e79a7"/><circle cx="695.6" cy="232.0" r="3" fill="#4e79a7"/><circle cx="713.0" cy="122.5" r="3" fill="#4e79a7"/><circle cx="730.4" cy="102.6" r="3" fill="#4e79a7"/><circle cx="747.8" cy="222.0" r="3" fill="#4e79a7"/><circle cx="765.2" cy="217.1" r="3" fill="#4e79a7"/><circle cx="782.6" cy="230.8" r="3" fill="#4e79a7"/><circle cx="800.0" cy="230.8" r="3" fill="#4e79a7"/>
  <circle cx="52.0" cy="232.0" r="3" fill="#f28e2b"/><circle cx="69.4" cy="230.8" r="3" fill="#f28e2b"/><circle cx="86.8" cy="229.5" r="3" fill="#f28e2b"/><circle cx="104.2" cy="232.0" r="3" fill="#f28e2b"/><circle cx="121.6" cy="232.0" r="3" fill="#f28e2b"/><circle cx="139.0" cy="232.0" r="3" fill="#f28e2b"/><circle cx="156.4" cy="232.0" r="3" fill="#f28e2b"/><circle cx="173.8" cy="232.0" r="3" fill="#f28e2b"/><circle cx="191.2" cy="229.5" r="3" fill="#f28e2b"/><circle cx="208.6" cy="232.0" r="3" fill="#f28e2b"/><circle cx="226.0" cy="229.5" r="3" fill="#f28e2b"/><circle cx="243.3" cy="177.3" r="3" fill="#f28e2b"/><circle cx="260.7" cy="156.1" r="3" fill="#f28e2b"/><circle cx="278.1" cy="125.0" r="3" fill="#f28e2b"/><circle cx="295.5" cy="228.3" r="3" fill="#f28e2b"/><circle cx="312.9" cy="228.3" r="3" fill="#f28e2b"/><circle cx="330.3" cy="232.0" r="3" fill="#f28e2b"/><circle cx="347.7" cy="147.4" r="3" fill="#f28e2b"/><circle cx="365.1" cy="210.9" r="3" fill="#f28e2b"/><circle cx="382.5" cy="210.9" r="3" fill="#f28e2b"/><circle cx="399.9" cy="227.0" r="3" fill="#f28e2b"/><circle cx="417.3" cy="228.3" r="3" fill="#f28e2b"/><circle cx="434.7" cy="229.5" r="3" fill="#f28e2b"/><circle cx="452.1" cy="230.8" r="3" fill="#f28e2b"/><circle cx="469.5" cy="232.0" r="3" fill="#f28e2b"/><circle cx="486.9" cy="230.8" r="3" fill="#f28e2b"/><circle cx="504.3" cy="183.5" r="3" fill="#f28e2b"/><circle cx="521.7" cy="186.0" r="3" fill="#f28e2b"/><circle cx="539.1" cy="230.8" r="3" fill="#f28e2b"/><circle cx="556.5" cy="229.5" r="3" fill="#f28e2b"/><circle cx="573.9" cy="228.3" r="3" fill="#f28e2b"/><circle cx="591.3" cy="228.3" r="3" fill="#f28e2b"/><circle cx="608.7" cy="219.6" r="3" fill="#f28e2b"/><circle cx="626.0" cy="218.3" r="3" fill="#f28e2b"/><circle cx="643.4" cy="229.5" r="3" fill="#f28e2b"/><circle cx="660.8" cy="228.3" r="3" fill="#f28e2b"/><circle cx="678.2" cy="230.8" r="3" fill="#f28e2b"/><circle cx="695.6" cy="232.0" r="3" fill="#f28e2b"/><circle cx="713.0" cy="207.1" r="3" fill="#f28e2b"/><circle cx="730.4" cy="210.9" r="3" fill="#f28e2b"/><circle cx="747.8" cy="229.5" r="3" fill="#f28e2b"/><circle cx="765.2" cy="228.3" r="3" fill="#f28e2b"/><circle cx="782.6" cy="230.8" r="3" fill="#f28e2b"/><circle cx="800.0" cy="230.8" r="3" fill="#f28e2b"/>

  <!-- axes -->
  <line x1="52" y1="28" x2="52" y2="232"
        stroke="#cccccc" stroke-width="1"/>
  <line x1="52" y1="232" x2="800" y2="232"
        stroke="#cccccc" stroke-width="1"/>

  <!-- y-axis labels -->
  <text x="47" y="236.0" text-anchor="end" font-size="10" fill="#57606a" font-family="ui-monospace, SFMono-Regular, 'SF Mono', Menlo, monospace">0</text><text x="47" y="198.7" text-anchor="end" font-size="10" fill="#57606a" font-family="ui-monospace, SFMono-Regular, 'SF Mono', Menlo, monospace">30</text><text x="47" y="161.4" text-anchor="end" font-size="10" fill="#57606a" font-family="ui-monospace, SFMono-Regular, 'SF Mono', Menlo, monospace">60</text><text x="47" y="124.0" text-anchor="end" font-size="10" fill="#57606a" font-family="ui-monospace, SFMono-Regular, 'SF Mono', Menlo, monospace">90</text><text x="47" y="86.7" text-anchor="end" font-size="10" fill="#57606a" font-family="ui-monospace, SFMono-Regular, 'SF Mono', Menlo, monospace">120</text><text x="47" y="49.4" text-anchor="end" font-size="10" fill="#57606a" font-family="ui-monospace, SFMono-Regular, 'SF Mono', Menlo, monospace">150</text><text x="47" y="12.1" text-anchor="end" font-size="10" fill="#57606a" font-family="ui-monospace, SFMono-Regular, 'SF Mono', Menlo, monospace">180</text>

  <!-- x-axis labels -->
  <text x="52.0" y="248" text-anchor="middle" font-size="10" fill="#8c959f" font-family="ui-monospace, SFMono-Regular, 'SF Mono', Menlo, monospace">05-11</text><text x="660.8" y="248" text-anchor="middle" font-size="10" fill="#8c959f" font-family="ui-monospace, SFMono-Regular, 'SF Mono', Menlo, monospace">06-15</text><text x="139.0" y="248" text-anchor="middle" font-size="10" fill="#8c959f" font-family="ui-monospace, SFMono-Regular, 'SF Mono', Menlo, monospace">05-16</text><text x="747.8" y="248" text-anchor="middle" font-size="10" fill="#8c959f" font-family="ui-monospace, SFMono-Regular, 'SF Mono', Menlo, monospace">06-20</text><text x="226.0" y="248" text-anchor="middle" font-size="10" fill="#8c959f" font-family="ui-monospace, SFMono-Regular, 'SF Mono', Menlo, monospace">05-21</text><text x="800.0" y="248" text-anchor="middle" font-size="10" fill="#8c959f" font-family="ui-monospace, SFMono-Regular, 'SF Mono', Menlo, monospace">06-23</text><text x="312.9" y="248" text-anchor="middle" font-size="10" fill="#8c959f" font-family="ui-monospace, SFMono-Regular, 'SF Mono', Menlo, monospace">05-26</text><text x="399.9" y="248" text-anchor="middle" font-size="10" fill="#8c959f" font-family="ui-monospace, SFMono-Regular, 'SF Mono', Menlo, monospace">05-31</text><text x="486.9" y="248" text-anchor="middle" font-size="10" fill="#8c959f" font-family="ui-monospace, SFMono-Regular, 'SF Mono', Menlo, monospace">06-05</text><text x="573.9" y="248" text-anchor="middle" font-size="10" fill="#8c959f" font-family="ui-monospace, SFMono-Regular, 'SF Mono', Menlo, monospace">06-10</text>

  <!-- legend -->
  <rect x="60" y="262" width="16" height="3" fill="#4e79a7" rx="1"/><text x="80" y="268" font-size="11" fill="#57606a" font-family="-apple-system, BlinkMacSystemFont, 'Segoe UI', sans-serif">Total clones (1,219)</text><line x1="230" y1="264" x2="246" y2="264" stroke="#f28e2b" stroke-width="2" stroke-dasharray="5,3"/><text x="250" y="268" font-size="11" fill="#57606a" font-family="-apple-system, BlinkMacSystemFont, 'Segoe UI', sans-serif">Unique cloners</text>

</svg>