<svg xmlns="http://www.w3.org/2000/svg" viewBox="0 0 820 280" width="820" height="280">

  <!-- title -->
  <text x="52" y="18" font-size="13" font-weight="600"
        fill="#24292f" font-family="-apple-system, BlinkMacSystemFont, 'Segoe UI', sans-serif"
        >Clone traffic — 500ad</text>
  <text x="800" y="18" font-size="10" fill="#8c959f"
        font-family="ui-monospace, SFMono-Regular, 'SF Mono', Menlo, monospace" text-anchor="end">2026-06-28</text>

  <!-- grid -->
  <line x1="52" y1="232.0" x2="800" y2="232.0" stroke="#e8e8e8" stroke-width="1"/><line x1="52" y1="194.7" x2="800" y2="194.7" stroke="#e8e8e8" stroke-width="1"/><line x1="52" y1="157.4" x2="800" y2="157.4" stroke="#e8e8e8" stroke-width="1"/><line x1="52" y1="120.0" x2="800" y2="120.0" stroke="#e8e8e8" stroke-width="1"/><line x1="52" y1="82.7" x2="800" y2="82.7" stroke="#e8e8e8" stroke-width="1"/><line x1="52" y1="45.4" x2="800" y2="45.4" stroke="#e8e8e8" stroke-width="1"/><line x1="52" y1="8.1" x2="800" y2="8.1" stroke="#e8e8e8" stroke-width="1"/>

  <!-- area fill -->
  <path d="M52.0,232.0 L52.0,232.0 L68.3,230.8 L84.5,229.5 L100.8,232.0 L117.0,232.0 L133.3,232.0 L149.6,232.0 L165.8,232.0 L182.1,228.3 L198.3,232.0 L214.6,229.5 L230.9,74.0 L247.1,100.1 L263.4,28.0 L279.7,217.1 L295.9,218.3 L312.2,232.0 L328.4,30.5 L344.7,193.4 L361.0,163.6 L377.2,225.8 L393.5,223.3 L409.7,225.8 L426.0,230.8 L442.3,232.0 L458.5,230.8 L474.8,105.1 L491.0,113.8 L507.3,229.5 L523.6,229.5 L539.8,225.8 L556.1,228.3 L572.3,203.4 L588.6,166.1 L604.9,225.8 L621.1,208.4 L637.4,230.8 L653.7,232.0 L669.9,122.5 L686.2,102.6 L702.4,222.0 L718.7,217.1 L735.0,230.8 L751.2,230.8 L767.5,229.5 L783.7,230.8 L800.0,229.5 L800.0,232.0 L52.0,232.0Z" fill="#4e79a7" opacity="0.12"/>

  <!-- lines -->
  <polyline points="52.0,232.0 68.3,230.8 84.5,229.5 100.8,232.0 117.0,232.0 133.3,232.0 149.6,232.0 165.8,232.0 182.1,228.3 198.3,232.0 214.6,229.5 230.9,74.0 247.1,100.1 263.4,28.0 279.7,217.1 295.9,218.3 312.2,232.0 328.4,30.5 344.7,193.4 361.0,163.6 377.2,225.8 393.5,223.3 409.7,225.8 426.0,230.8 442.3,232.0 458.5,230.8 474.8,105.1 491.0,113.8 507.3,229.5 523.6,229.5 539.8,225.8 556.1,228.3 572.3,203.4 588.6,166.1 604.9,225.8 621.1,208.4 637.4,230.8 653.7,232.0 669.9,122.5 686.2,102.6 702.4,222.0 718.7,217.1 735.0,230.8 751.2,230.8 767.5,229.5 783.7,230.8 800.0,229.5"
            fill="none" stroke="#4e79a7"
            stroke-width="2" stroke-linejoin="round"/>
  <polyline points="52.0,232.0 68.3,230.8 84.5,229.5 100.8,232.0 117.0,232.0 133.3,232.0 149.6,232.0 165.8,232.0 182.1,229.5 198.3,232.0 214.6,229.5 230.9,177.3 247.1,156.1 263.4,125.0 279.7,228.3 295.9,228.3 312.2,232.0 328.4,147.4 344.7,210.9 361.0,210.9 377.2,227.0 393.5,228.3 409.7,229.5 426.0,230.8 442.3,232.0 458.5,230.8 474.8,183.5 491.0,186.0 507.3,230.8 523.6,229.5 539.8,228.3 556.1,228.3 572.3,219.6 588.6,218.3 604.9,229.5 621.1,228.3 637.4,230.8 653.7,232.0 669.9,207.1 686.2,210.9 702.4,229.5 718.7,228.3 735.0,230.8 751.2,230.8 767.5,229.5 783.7,230.8 800.0,229.5"
            fill="none" stroke="#f28e2b"
            stroke-width="2" stroke-linejoin="round"
            stroke-dasharray="5,3"/>

  <!-- dots -->
  <circle cx="52.0" cy="232.0" r="3" fill="#4e79a7"/><circle cx="68.3" cy="230.8" r="3" fill="#4e79a7"/><circle cx="84.5" cy="229.5" r="3" fill="#4e79a7"/><circle cx="100.8" cy="232.0" r="3" fill="#4e79a7"/><circle cx="117.0" cy="232.0" r="3" fill="#4e79a7"/><circle cx="133.3" cy="232.0" r="3" fill="#4e79a7"/><circle cx="149.6" cy="232.0" r="3" fill="#4e79a7"/><circle cx="165.8" cy="232.0" r="3" fill="#4e79a7"/><circle cx="182.1" cy="228.3" r="3" fill="#4e79a7"/><circle cx="198.3" cy="232.0" r="3" fill="#4e79a7"/><circle cx="214.6" cy="229.5" r="3" fill="#4e79a7"/><circle cx="230.9" cy="74.0" r="3" fill="#4e79a7"/><circle cx="247.1" cy="100.1" r="3" fill="#4e79a7"/><circle cx="263.4" cy="28.0" r="3" fill="#4e79a7"/><circle cx="279.7" cy="217.1" r="3" fill="#4e79a7"/><circle cx="295.9" cy="218.3" r="3" fill="#4e79a7"/><circle cx="312.2" cy="232.0" r="3" fill="#4e79a7"/><circle cx="328.4" cy="30.5" r="3" fill="#4e79a7"/><circle cx="344.7" cy="193.4" r="3" fill="#4e79a7"/><circle cx="361.0" cy="163.6" r="3" fill="#4e79a7"/><circle cx="377.2" cy="225.8" r="3" fill="#4e79a7"/><circle cx="393.5" cy="223.3" r="3" fill="#4e79a7"/><circle cx="409.7" cy="225.8" r="3" fill="#4e79a7"/><circle cx="426.0" cy="230.8" r="3" fill="#4e79a7"/><circle cx="442.3" cy="232.0" r="3" fill="#4e79a7"/><circle cx="458.5" cy="230.8" r="3" fill="#4e79a7"/><circle cx="474.8" cy="105.1" r="3" fill="#4e79a7"/><circle cx="491.0" cy="113.8" r="3" fill="#4e79a7"/><circle cx="507.3" cy="229.5" r="3" fill="#4e79a7"/><circle cx="523.6" cy="229.5" r="3" fill="#4e79a7"/><circle cx="539.8" cy="225.8" r="3" fill="#4e79a7"/><circle cx="556.1" cy="228.3" r="3" fill="#4e79a7"/><circle cx="572.3" cy="203.4" r="3" fill="#4e79a7"/><circle cx="588.6" cy="166.1" r="3" fill="#4e79a7"/><circle cx="604.9" cy="225.8" r="3" fill="#4e79a7"/><circle cx="621.1" cy="208.4" r="3" fill="#4e79a7"/><circle cx="637.4" cy="230.8" r="3" fill="#4e79a7"/><circle cx="653.7" cy="232.0" r="3" fill="#4e79a7"/><circle cx="669.9" cy="122.5" r="3" fill="#4e79a7"/><circle cx="686.2" cy="102.6" r="3" fill="#4e79a7"/><circle cx="702.4" cy="222.0" r="3" fill="#4e79a7"/><circle cx="718.7" cy="217.1" r="3" fill="#4e79a7"/><circle cx="735.0" cy="230.8" r="3" fill="#4e79a7"/><circle cx="751.2" cy="230.8" r="3" fill="#4e79a7"/><circle cx="767.5" cy="229.5" r="3" fill="#4e79a7"/><circle cx="783.7" cy="230.8" r="3" fill="#4e79a7"/><circle cx="800.0" cy="229.5" r="3" fill="#4e79a7"/>
  <circle cx="52.0" cy="232.0" r="3" fill="#f28e2b"/><circle cx="68.3" cy="230.8" r="3" fill="#f28e2b"/><circle cx="84.5" cy="229.5" r="3" fill="#f28e2b"/><circle cx="100.8" cy="232.0" r="3" fill="#f28e2b"/><circle cx="117.0" cy="232.0" r="3" fill="#f28e2b"/><circle cx="133.3" cy="232.0" r="3" fill="#f28e2b"/><circle cx="149.6" cy="232.0" r="3" fill="#f28e2b"/><circle cx="165.8" cy="232.0" r="3" fill="#f28e2b"/><circle cx="182.1" cy="229.5" r="3" fill="#f28e2b"/><circle cx="198.3" cy="232.0" r="3" fill="#f28e2b"/><circle cx="214.6" cy="229.5" r="3" fill="#f28e2b"/><circle cx="230.9" cy="177.3" r="3" fill="#f28e2b"/><circle cx="247.1" cy="156.1" r="3" fill="#f28e2b"/><circle cx="263.4" cy="125.0" r="3" fill="#f28e2b"/><circle cx="279.7" cy="228.3" r="3" fill="#f28e2b"/><circle cx="295.9" cy="228.3" r="3" fill="#f28e2b"/><circle cx="312.2" cy="232.0" r="3" fill="#f28e2b"/><circle cx="328.4" cy="147.4" r="3" fill="#f28e2b"/><circle cx="344.7" cy="210.9" r="3" fill="#f28e2b"/><circle cx="361.0" cy="210.9" r="3" fill="#f28e2b"/><circle cx="377.2" cy="227.0" r="3" fill="#f28e2b"/><circle cx="393.5" cy="228.3" r="3" fill="#f28e2b"/><circle cx="409.7" cy="229.5" r="3" fill="#f28e2b"/><circle cx="426.0" cy="230.8" r="3" fill="#f28e2b"/><circle cx="442.3" cy="232.0" r="3" fill="#f28e2b"/><circle cx="458.5" cy="230.8" r="3" fill="#f28e2b"/><circle cx="474.8" cy="183.5" r="3" fill="#f28e2b"/><circle cx="491.0" cy="186.0" r="3" fill="#f28e2b"/><circle cx="507.3" cy="230.8" r="3" fill="#f28e2b"/><circle cx="523.6" cy="229.5" r="3" fill="#f28e2b"/><circle cx="539.8" cy="228.3" r="3" fill="#f28e2b"/><circle cx="556.1" cy="228.3" r="3" fill="#f28e2b"/><circle cx="572.3" cy="219.6" r="3" fill="#f28e2b"/><circle cx="588.6" cy="218.3" r="3" fill="#f28e2b"/><circle cx="604.9" cy="229.5" r="3" fill="#f28e2b"/><circle cx="621.1" cy="228.3" r="3" fill="#f28e2b"/><circle cx="637.4" cy="230.8" r="3" fill="#f28e2b"/><circle cx="653.7" cy="232.0" r="3" fill="#f28e2b"/><circle cx="669.9" cy="207.1" r="3" fill="#f28e2b"/><circle cx="686.2" cy="210.9" r="3" fill="#f28e2b"/><circle cx="702.4" cy="229.5" r="3" fill="#f28e2b"/><circle cx="718.7" cy="228.3" r="3" fill="#f28e2b"/><circle cx="735.0" cy="230.8" r="3" fill="#f28e2b"/><circle cx="751.2" cy="230.8" r="3" fill="#f28e2b"/><circle cx="767.5" cy="229.5" r="3" fill="#f28e2b"/><circle cx="783.7" cy="230.8" r="3" fill="#f28e2b"/><circle cx="800.0" cy="229.5" r="3" fill="#f28e2b"/>

  <!-- axes -->
  <line x1="52" y1="28" x2="52" y2="232"
        stroke="#cccccc" stroke-width="1"/>
  <line x1="52" y1="232" x2="800" y2="232"
        stroke="#cccccc" stroke-width="1"/>

  <!-- y-axis labels -->
  <text x="47" y="236.0" text-anchor="end" font-size="10" fill="#57606a" font-family="ui-monospace, SFMono-Regular, 'SF Mono', Menlo, monospace">0</text><text x="47" y="198.7" text-anchor="end" font-size="10" fill="#57606a" font-family="ui-monospace, SFMono-Regular, 'SF Mono', Menlo, monospace">30</text><text x="47" y="161.4" text-anchor="end" font-size="10" fill="#57606a" font-family="ui-monospace, SFMono-Regular, 'SF Mono', Menlo, monospace">60</text><text x="47" y="124.0" text-anchor="end" font-size="10" fill="#57606a" font-family="ui-monospace, SFMono-Regular, 'SF Mono', Menlo, monospace">90</text><text x="47" y="86.7" text-anchor="end" font-size="10" fill="#57606a" font-family="ui-monospace, SFMono-Regular, 'SF Mono', Menlo, monospace">120</text><text x="47" y="49.4" text-anchor="end" font-size="10" fill="#57606a" font-family="ui-monospace, SFMono-Regular, 'SF Mono', Menlo, monospace">150</text><text x="47" y="12.1" text-anchor="end" font-size="10" fill="#57606a" font-family="ui-monospace, SFMono-Regular, 'SF Mono', Menlo, monospace">180</text>

  <!-- x-axis labels -->
  <text x="52.0" y="248" text-anchor="middle" font-size="10" fill="#8c959f" font-family="ui-monospace, SFMono-Regular, 'SF Mono', Menlo, monospace">05-11</text><text x="621.1" y="248" text-anchor="middle" font-size="10" fill="#8c959f" font-family="ui-monospace, SFMono-Regular, 'SF Mono', Menlo, monospace">06-15</text><text x="133.3" y="248" text-anchor="middle" font-size="10" fill="#8c959f" font-family="ui-monospace, SFMono-Regular, 'SF Mono', Menlo, monospace">05-16</text><text x="702.4" y="248" text-anchor="middle" font-size="10" fill="#8c959f" font-family="ui-monospace, SFMono-Regular, 'SF Mono', Menlo, monospace">06-20</text><text x="214.6" y="248" text-anchor="middle" font-size="10" fill="#8c959f" font-family="ui-monospace, SFMono-Regular, 'SF Mono', Menlo, monospace">05-21</text><text x="783.7" y="248" text-anchor="middle" font-size="10" fill="#8c959f" font-family="ui-monospace, SFMono-Regular, 'SF Mono', Menlo, monospace">06-25</text><text x="800.0" y="248" text-anchor="middle" font-size="10" fill="#8c959f" font-family="ui-monospace, SFMono-Regular, 'SF Mono', Menlo, monospace">06-26</text><text x="295.9" y="248" text-anchor="middle" font-size="10" fill="#8c959f" font-family="ui-monospace, SFMono-Regular, 'SF Mono', Menlo, monospace">05-26</text><text x="377.2" y="248" text-anchor="middle" font-size="10" fill="#8c959f" font-family="ui-monospace, SFMono-Regular, 'SF Mono', Menlo, monospace">05-31</text><text x="458.5" y="248" text-anchor="middle" font-size="10" fill="#8c959f" font-family="ui-monospace, SFMono-Regular, 'SF Mono', Menlo, monospace">06-05</text><text x="539.8" y="248" text-anchor="middle" font-size="10" fill="#8c959f" font-family="ui-monospace, SFMono-Regular, 'SF Mono', Menlo, monospace">06-10</text>

  <!-- legend -->
  <rect x="60" y="262" width="16" height="3" fill="#4e79a7" rx="1"/><text x="80" y="268" font-size="11" fill="#57606a" font-family="-apple-system, BlinkMacSystemFont, 'Segoe UI', sans-serif">Total clones (1,224)</text><line x1="230" y1="264" x2="246" y2="264" stroke="#f28e2b" stroke-width="2" stroke-dasharray="5,3"/><text x="250" y="268" font-size="11" fill="#57606a" font-family="-apple-system, BlinkMacSystemFont, 'Segoe UI', sans-serif">Unique cloners</text>

</svg>