<svg xmlns="http://www.w3.org/2000/svg" viewBox="0 0 820 280" width="820" height="280">

  <!-- title -->
  <text x="52" y="18" font-size="13" font-weight="600"
        fill="#24292f" font-family="-apple-system, BlinkMacSystemFont, 'Segoe UI', sans-serif"
        >Clone traffic — 500ad</text>
  <text x="800" y="18" font-size="10" fill="#8c959f"
        font-family="ui-monospace, SFMono-Regular, 'SF Mono', Menlo, monospace" text-anchor="end">2026-06-20</text>

  <!-- grid -->
  <line x1="52" y1="232.0" x2="800" y2="232.0" stroke="#e8e8e8" stroke-width="1"/><line x1="52" y1="194.7" x2="800" y2="194.7" stroke="#e8e8e8" stroke-width="1"/><line x1="52" y1="157.4" x2="800" y2="157.4" stroke="#e8e8e8" stroke-width="1"/><line x1="52" y1="120.0" x2="800" y2="120.0" stroke="#e8e8e8" stroke-width="1"/><line x1="52" y1="82.7" x2="800" y2="82.7" stroke="#e8e8e8" stroke-width="1"/><line x1="52" y1="45.4" x2="800" y2="45.4" stroke="#e8e8e8" stroke-width="1"/><line x1="52" y1="8.1" x2="800" y2="8.1" stroke="#e8e8e8" stroke-width="1"/>

  <!-- area fill -->
  <path d="M52.0,232.0 L52.0,232.0 L71.7,230.8 L91.4,229.5 L111.1,232.0 L130.7,232.0 L150.4,232.0 L170.1,232.0 L189.8,232.0 L209.5,228.3 L229.2,232.0 L248.8,229.5 L268.5,74.0 L288.2,100.1 L307.9,28.0 L327.6,217.1 L347.3,218.3 L366.9,232.0 L386.6,30.5 L406.3,193.4 L426.0,163.6 L445.7,225.8 L465.4,223.3 L485.1,225.8 L504.7,230.8 L524.4,232.0 L544.1,230.8 L563.8,105.1 L583.5,113.8 L603.2,229.5 L622.8,229.5 L642.5,225.8 L662.2,228.3 L681.9,203.4 L701.6,166.1 L721.3,225.8 L740.9,208.4 L760.6,230.8 L780.3,232.0 L800.0,122.5 L800.0,232.0 L52.0,232.0Z" fill="#4e79a7" opacity="0.12"/>

  <!-- lines -->
  <polyline points="52.0,232.0 71.7,230.8 91.4,229.5 111.1,232.0 130.7,232.0 150.4,232.0 170.1,232.0 189.8,232.0 209.5,228.3 229.2,232.0 248.8,229.5 268.5,74.0 288.2,100.1 307.9,28.0 327.6,217.1 347.3,218.3 366.9,232.0 386.6,30.5 406.3,193.4 426.0,163.6 445.7,225.8 465.4,223.3 485.1,225.8 504.7,230.8 524.4,232.0 544.1,230.8 563.8,105.1 583.5,113.8 603.2,229.5 622.8,229.5 642.5,225.8 662.2,228.3 681.9,203.4 701.6,166.1 721.3,225.8 740.9,208.4 760.6,230.8 780.3,232.0 800.0,122.5"
            fill="none" stroke="#4e79a7"
            stroke-width="2" stroke-linejoin="round"/>
  <polyline points="52.0,232.0 71.7,230.8 91.4,229.5 111.1,232.0 130.7,232.0 150.4,232.0 170.1,232.0 189.8,232.0 209.5,229.5 229.2,232.0 248.8,229.5 268.5,177.3 288.2,156.1 307.9,125.0 327.6,228.3 347.3,228.3 366.9,232.0 386.6,147.4 406.3,210.9 426.0,210.9 445.7,227.0 465.4,228.3 485.1,229.5 504.7,230.8 524.4,232.0 544.1,230.8 563.8,183.5 583.5,186.0 603.2,230.8 622.8,229.5 642.5,228.3 662.2,228.3 681.9,219.6 701.6,218.3 721.3,229.5 740.9,228.3 760.6,230.8 780.3,232.0 800.0,207.1"
            fill="none" stroke="#f28e2b"
            stroke-width="2" stroke-linejoin="round"
            stroke-dasharray="5,3"/>

  <!-- dots -->
  <circle cx="52.0" cy="232.0" r="3" fill="#4e79a7"/><circle cx="71.7" cy="230.8" r="3" fill="#4e79a7"/><circle cx="91.4" cy="229.5" r="3" fill="#4e79a7"/><circle cx="111.1" cy="232.0" r="3" fill="#4e79a7"/><circle cx="130.7" cy="232.0" r="3" fill="#4e79a7"/><circle cx="150.4" cy="232.0" r="3" fill="#4e79a7"/><circle cx="170.1" cy="232.0" r="3" fill="#4e79a7"/><circle cx="189.8" cy="232.0" r="3" fill="#4e79a7"/><circle cx="209.5" cy="228.3" r="3" fill="#4e79a7"/><circle cx="229.2" cy="232.0" r="3" fill="#4e79a7"/><circle cx="248.8" cy="229.5" r="3" fill="#4e79a7"/><circle cx="268.5" cy="74.0" r="3" fill="#4e79a7"/><circle cx="288.2" cy="100.1" r="3" fill="#4e79a7"/><circle cx="307.9" cy="28.0" r="3" fill="#4e79a7"/><circle cx="327.6" cy="217.1" r="3" fill="#4e79a7"/><circle cx="347.3" cy="218.3" r="3" fill="#4e79a7"/><circle cx="366.9" cy="232.0" r="3" fill="#4e79a7"/><circle cx="386.6" cy="30.5" r="3" fill="#4e79a7"/><circle cx="406.3" cy="193.4" r="3" fill="#4e79a7"/><circle cx="426.0" cy="163.6" r="3" fill="#4e79a7"/><circle cx="445.7" cy="225.8" r="3" fill="#4e79a7"/><circle cx="465.4" cy="223.3" r="3" fill="#4e79a7"/><circle cx="485.1" cy="225.8" r="3" fill="#4e79a7"/><circle cx="504.7" cy="230.8" r="3" fill="#4e79a7"/><circle cx="524.4" cy="232.0" r="3" fill="#4e79a7"/><circle cx="544.1" cy="230.8" r="3" fill="#4e79a7"/><circle cx="563.8" cy="105.1" r="3" fill="#4e79a7"/><circle cx="583.5" cy="113.8" r="3" fill="#4e79a7"/><circle cx="603.2" cy="229.5" r="3" fill="#4e79a7"/><circle cx="622.8" cy="229.5" r="3" fill="#4e79a7"/><circle cx="642.5" cy="225.8" r="3" fill="#4e79a7"/><circle cx="662.2" cy="228.3" r="3" fill="#4e79a7"/><circle cx="681.9" cy="203.4" r="3" fill="#4e79a7"/><circle cx="701.6" cy="166.1" r="3" fill="#4e79a7"/><circle cx="721.3" cy="225.8" r="3" fill="#4e79a7"/><circle cx="740.9" cy="208.4" r="3" fill="#4e79a7"/><circle cx="760.6" cy="230.8" r="3" fill="#4e79a7"/><circle cx="780.3" cy="232.0" r="3" fill="#4e79a7"/><circle cx="800.0" cy="122.5" r="3" fill="#4e79a7"/>
  <circle cx="52.0" cy="232.0" r="3" fill="#f28e2b"/><circle cx="71.7" cy="230.8" r="3" fill="#f28e2b"/><circle cx="91.4" cy="229.5" r="3" fill="#f28e2b"/><circle cx="111.1" cy="232.0" r="3" fill="#f28e2b"/><circle cx="130.7" cy="232.0" r="3" fill="#f28e2b"/><circle cx="150.4" cy="232.0" r="3" fill="#f28e2b"/><circle cx="170.1" cy="232.0" r="3" fill="#f28e2b"/><circle cx="189.8" cy="232.0" r="3" fill="#f28e2b"/><circle cx="209.5" cy="229.5" r="3" fill="#f28e2b"/><circle cx="229.2" cy="232.0" r="3" fill="#f28e2b"/><circle cx="248.8" cy="229.5" r="3" fill="#f28e2b"/><circle cx="268.5" cy="177.3" r="3" fill="#f28e2b"/><circle cx="288.2" cy="156.1" r="3" fill="#f28e2b"/><circle cx="307.9" cy="125.0" r="3" fill="#f28e2b"/><circle cx="327.6" cy="228.3" r="3" fill="#f28e2b"/><circle cx="347.3" cy="228.3" r="3" fill="#f28e2b"/><circle cx="366.9" cy="232.0" r="3" fill="#f28e2b"/><circle cx="386.6" cy="147.4" r="3" fill="#f28e2b"/><circle cx="406.3" cy="210.9" r="3" fill="#f28e2b"/><circle cx="426.0" cy="210.9" r="3" fill="#f28e2b"/><circle cx="445.7" cy="227.0" r="3" fill="#f28e2b"/><circle cx="465.4" cy="228.3" r="3" fill="#f28e2b"/><circle cx="485.1" cy="229.5" r="3" fill="#f28e2b"/><circle cx="504.7" cy="230.8" r="3" fill="#f28e2b"/><circle cx="524.4" cy="232.0" r="3" fill="#f28e2b"/><circle cx="544.1" cy="230.8" r="3" fill="#f28e2b"/><circle cx="563.8" cy="183.5" r="3" fill="#f28e2b"/><circle cx="583.5" cy="186.0" r="3" fill="#f28e2b"/><circle cx="603.2" cy="230.8" r="3" fill="#f28e2b"/><circle cx="622.8" cy="229.5" r="3" fill="#f28e2b"/><circle cx="642.5" cy="228.3" r="3" fill="#f28e2b"/><circle cx="662.2" cy="228.3" r="3" fill="#f28e2b"/><circle cx="681.9" cy="219.6" r="3" fill="#f28e2b"/><circle cx="701.6" cy="218.3" r="3" fill="#f28e2b"/><circle cx="721.3" cy="229.5" r="3" fill="#f28e2b"/><circle cx="740.9" cy="228.3" r="3" fill="#f28e2b"/><circle cx="760.6" cy="230.8" r="3" fill="#f28e2b"/><circle cx="780.3" cy="232.0" r="3" fill="#f28e2b"/><circle cx="800.0" cy="207.1" r="3" fill="#f28e2b"/>

  <!-- axes -->
  <line x1="52" y1="28" x2="52" y2="232"
        stroke="#cccccc" stroke-width="1"/>
  <line x1="52" y1="232" x2="800" y2="232"
        stroke="#cccccc" stroke-width="1"/>

  <!-- y-axis labels -->
  <text x="47" y="236.0" text-anchor="end" font-size="10" fill="#57606a" font-family="ui-monospace, SFMono-Regular, 'SF Mono', Menlo, monospace">0</text><text x="47" y="198.7" text-anchor="end" font-size="10" fill="#57606a" font-family="ui-monospace, SFMono-Regular, 'SF Mono', Menlo, monospace">30</text><text x="47" y="161.4" text-anchor="end" font-size="10" fill="#57606a" font-family="ui-monospace, SFMono-Regular, 'SF Mono', Menlo, monospace">60</text><text x="47" y="124.0" text-anchor="end" font-size="10" fill="#57606a" font-family="ui-monospace, SFMono-Regular, 'SF Mono', Menlo, monospace">90</text><text x="47" y="86.7" text-anchor="end" font-size="10" fill="#57606a" font-family="ui-monospace, SFMono-Regular, 'SF Mono', Menlo, monospace">120</text><text x="47" y="49.4" text-anchor="end" font-size="10" fill="#57606a" font-family="ui-monospace, SFMono-Regular, 'SF Mono', Menlo, monospace">150</text><text x="47" y="12.1" text-anchor="end" font-size="10" fill="#57606a" font-family="ui-monospace, SFMono-Regular, 'SF Mono', Menlo, monospace">180</text>

  <!-- x-axis labels -->
  <text x="52.0" y="248" text-anchor="middle" font-size="10" fill="#8c959f" font-family="ui-monospace, SFMono-Regular, 'SF Mono', Menlo, monospace">05-11</text><text x="681.9" y="248" text-anchor="middle" font-size="10" fill="#8c959f" font-family="ui-monospace, SFMono-Regular, 'SF Mono', Menlo, monospace">06-12</text><text x="130.7" y="248" text-anchor="middle" font-size="10" fill="#8c959f" font-family="ui-monospace, SFMono-Regular, 'SF Mono', Menlo, monospace">05-15</text><text x="760.6" y="248" text-anchor="middle" font-size="10" fill="#8c959f" font-family="ui-monospace, SFMono-Regular, 'SF Mono', Menlo, monospace">06-16</text><text x="800.0" y="248" text-anchor="middle" font-size="10" fill="#8c959f" font-family="ui-monospace, SFMono-Regular, 'SF Mono', Menlo, monospace">06-18</text><text x="209.5" y="248" text-anchor="middle" font-size="10" fill="#8c959f" font-family="ui-monospace, SFMono-Regular, 'SF Mono', Menlo, monospace">05-19</text><text x="288.2" y="248" text-anchor="middle" font-size="10" fill="#8c959f" font-family="ui-monospace, SFMono-Regular, 'SF Mono', Menlo, monospace">05-23</text><text x="366.9" y="248" text-anchor="middle" font-size="10" fill="#8c959f" font-family="ui-monospace, SFMono-Regular, 'SF Mono', Menlo, monospace">05-27</text><text x="445.7" y="248" text-anchor="middle" font-size="10" fill="#8c959f" font-family="ui-monospace, SFMono-Regular, 'SF Mono', Menlo, monospace">05-31</text><text x="524.4" y="248" text-anchor="middle" font-size="10" fill="#8c959f" font-family="ui-monospace, SFMono-Regular, 'SF Mono', Menlo, monospace">06-04</text><text x="603.2" y="248" text-anchor="middle" font-size="10" fill="#8c959f" font-family="ui-monospace, SFMono-Regular, 'SF Mono', Menlo, monospace">06-08</text>

  <!-- legend -->
  <rect x="60" y="262" width="16" height="3" fill="#4e79a7" rx="1"/><text x="80" y="268" font-size="11" fill="#57606a" font-family="-apple-system, BlinkMacSystemFont, 'Segoe UI', sans-serif">Total clones (1,093)</text><line x1="230" y1="264" x2="246" y2="264" stroke="#f28e2b" stroke-width="2" stroke-dasharray="5,3"/><text x="250" y="268" font-size="11" fill="#57606a" font-family="-apple-system, BlinkMacSystemFont, 'Segoe UI', sans-serif">Unique cloners</text>

</svg>