<svg xmlns="http://www.w3.org/2000/svg" viewBox="0 0 820 280" width="820" height="280">

  <!-- title -->
  <text x="52" y="18" font-size="13" font-weight="600"
        fill="#24292f" font-family="-apple-system, BlinkMacSystemFont, 'Segoe UI', sans-serif"
        >Clone traffic — 500ad</text>
  <text x="800" y="18" font-size="10" fill="#8c959f"
        font-family="ui-monospace, SFMono-Regular, 'SF Mono', Menlo, monospace" text-anchor="end">2026-07-10</text>

  <!-- grid -->
  <line x1="52" y1="232.0" x2="800" y2="232.0" stroke="#e8e8e8" stroke-width="1"/><line x1="52" y1="194.7" x2="800" y2="194.7" stroke="#e8e8e8" stroke-width="1"/><line x1="52" y1="157.4" x2="800" y2="157.4" stroke="#e8e8e8" stroke-width="1"/><line x1="52" y1="120.0" x2="800" y2="120.0" stroke="#e8e8e8" stroke-width="1"/><line x1="52" y1="82.7" x2="800" y2="82.7" stroke="#e8e8e8" stroke-width="1"/><line x1="52" y1="45.4" x2="800" y2="45.4" stroke="#e8e8e8" stroke-width="1"/><line x1="52" y1="8.1" x2="800" y2="8.1" stroke="#e8e8e8" stroke-width="1"/>

  <!-- area fill -->
  <path d="M52.0,232.0 L52.0,232.0 L64.9,230.8 L77.8,229.5 L90.7,232.0 L103.6,232.0 L116.5,232.0 L129.4,232.0 L142.3,232.0 L155.2,228.3 L168.1,232.0 L181.0,229.5 L193.9,74.0 L206.8,100.1 L219.7,28.0 L232.6,217.1 L245.4,218.3 L258.3,232.0 L271.2,30.5 L284.1,193.4 L297.0,163.6 L309.9,225.8 L322.8,223.3 L335.7,225.8 L348.6,230.8 L361.5,232.0 L374.4,230.8 L387.3,105.1 L400.2,113.8 L413.1,229.5 L426.0,229.5 L438.9,225.8 L451.8,228.3 L464.7,203.4 L477.6,166.1 L490.5,225.8 L503.4,208.4 L516.3,230.8 L529.2,232.0 L542.1,122.5 L555.0,102.6 L567.9,222.0 L580.8,217.1 L593.7,230.8 L606.6,230.8 L619.4,229.5 L632.3,230.8 L645.2,229.5 L658.1,230.8 L671.0,232.0 L683.9,228.3 L696.8,229.5 L709.7,232.0 L722.6,230.8 L735.5,230.8 L748.4,227.0 L761.3,230.8 L774.2,228.3 L787.1,229.5 L800.0,230.8 L800.0,232.0 L52.0,232.0Z" fill="#4e79a7" opacity="0.12"/>

  <!-- lines -->
  <polyline points="52.0,232.0 64.9,230.8 77.8,229.5 90.7,232.0 103.6,232.0 116.5,232.0 129.4,232.0 142.3,232.0 155.2,228.3 168.1,232.0 181.0,229.5 193.9,74.0 206.8,100.1 219.7,28.0 232.6,217.1 245.4,218.3 258.3,232.0 271.2,30.5 284.1,193.4 297.0,163.6 309.9,225.8 322.8,223.3 335.7,225.8 348.6,230.8 361.5,232.0 374.4,230.8 387.3,105.1 400.2,113.8 413.1,229.5 426.0,229.5 438.9,225.8 451.8,228.3 464.7,203.4 477.6,166.1 490.5,225.8 503.4,208.4 516.3,230.8 529.2,232.0 542.1,122.5 555.0,102.6 567.9,222.0 580.8,217.1 593.7,230.8 606.6,230.8 619.4,229.5 632.3,230.8 645.2,229.5 658.1,230.8 671.0,232.0 683.9,228.3 696.8,229.5 709.7,232.0 722.6,230.8 735.5,230.8 748.4,227.0 761.3,230.8 774.2,228.3 787.1,229.5 800.0,230.8"
            fill="none" stroke="#4e79a7"
            stroke-width="2" stroke-linejoin="round"/>
  <polyline points="52.0,232.0 64.9,230.8 77.8,229.5 90.7,232.0 103.6,232.0 116.5,232.0 129.4,232.0 142.3,232.0 155.2,229.5 168.1,232.0 181.0,229.5 193.9,177.3 206.8,156.1 219.7,125.0 232.6,228.3 245.4,228.3 258.3,232.0 271.2,147.4 284.1,210.9 297.0,210.9 309.9,227.0 322.8,228.3 335.7,229.5 348.6,230.8 361.5,232.0 374.4,230.8 387.3,183.5 400.2,186.0 413.1,230.8 426.0,229.5 438.9,228.3 451.8,228.3 464.7,219.6 477.6,218.3 490.5,229.5 503.4,228.3 516.3,230.8 529.2,232.0 542.1,207.1 555.0,210.9 567.9,229.5 580.8,228.3 593.7,230.8 606.6,230.8 619.4,229.5 632.3,230.8 645.2,229.5 658.1,230.8 671.0,232.0 683.9,229.5 696.8,229.5 709.7,232.0 722.6,230.8 735.5,230.8 748.4,228.3 761.3,230.8 774.2,229.5 787.1,229.5 800.0,230.8"
            fill="none" stroke="#f28e2b"
            stroke-width="2" stroke-linejoin="round"
            stroke-dasharray="5,3"/>

  <!-- dots -->
  <circle cx="52.0" cy="232.0" r="3" fill="#4e79a7"/><circle cx="64.9" cy="230.8" r="3" fill="#4e79a7"/><circle cx="77.8" cy="229.5" r="3" fill="#4e79a7"/><circle cx="90.7" cy="232.0" r="3" fill="#4e79a7"/><circle cx="103.6" cy="232.0" r="3" fill="#4e79a7"/><circle cx="116.5" cy="232.0" r="3" fill="#4e79a7"/><circle cx="129.4" cy="232.0" r="3" fill="#4e79a7"/><circle cx="142.3" cy="232.0" r="3" fill="#4e79a7"/><circle cx="155.2" cy="228.3" r="3" fill="#4e79a7"/><circle cx="168.1" cy="232.0" r="3" fill="#4e79a7"/><circle cx="181.0" cy="229.5" r="3" fill="#4e79a7"/><circle cx="193.9" cy="74.0" r="3" fill="#4e79a7"/><circle cx="206.8" cy="100.1" r="3" fill="#4e79a7"/><circle cx="219.7" cy="28.0" r="3" fill="#4e79a7"/><circle cx="232.6" cy="217.1" r="3" fill="#4e79a7"/><circle cx="245.4" cy="218.3" r="3" fill="#4e79a7"/><circle cx="258.3" cy="232.0" r="3" fill="#4e79a7"/><circle cx="271.2" cy="30.5" r="3" fill="#4e79a7"/><circle cx="284.1" cy="193.4" r="3" fill="#4e79a7"/><circle cx="297.0" cy="163.6" r="3" fill="#4e79a7"/><circle cx="309.9" cy="225.8" r="3" fill="#4e79a7"/><circle cx="322.8" cy="223.3" r="3" fill="#4e79a7"/><circle cx="335.7" cy="225.8" r="3" fill="#4e79a7"/><circle cx="348.6" cy="230.8" r="3" fill="#4e79a7"/><circle cx="361.5" cy="232.0" r="3" fill="#4e79a7"/><circle cx="374.4" cy="230.8" r="3" fill="#4e79a7"/><circle cx="387.3" cy="105.1" r="3" fill="#4e79a7"/><circle cx="400.2" cy="113.8" r="3" fill="#4e79a7"/><circle cx="413.1" cy="229.5" r="3" fill="#4e79a7"/><circle cx="426.0" cy="229.5" r="3" fill="#4e79a7"/><circle cx="438.9" cy="225.8" r="3" fill="#4e79a7"/><circle cx="451.8" cy="228.3" r="3" fill="#4e79a7"/><circle cx="464.7" cy="203.4" r="3" fill="#4e79a7"/><circle cx="477.6" cy="166.1" r="3" fill="#4e79a7"/><circle cx="490.5" cy="225.8" r="3" fill="#4e79a7"/><circle cx="503.4" cy="208.4" r="3" fill="#4e79a7"/><circle cx="516.3" cy="230.8" r="3" fill="#4e79a7"/><circle cx="529.2" cy="232.0" r="3" fill="#4e79a7"/><circle cx="542.1" cy="122.5" r="3" fill="#4e79a7"/><circle cx="555.0" cy="102.6" r="3" fill="#4e79a7"/><circle cx="567.9" cy="222.0" r="3" fill="#4e79a7"/><circle cx="580.8" cy="217.1" r="3" fill="#4e79a7"/><circle cx="593.7" cy="230.8" r="3" fill="#4e79a7"/><circle cx="606.6" cy="230.8" r="3" fill="#4e79a7"/><circle cx="619.4" cy="229.5" r="3" fill="#4e79a7"/><circle cx="632.3" cy="230.8" r="3" fill="#4e79a7"/><circle cx="645.2" cy="229.5" r="3" fill="#4e79a7"/><circle cx="658.1" cy="230.8" r="3" fill="#4e79a7"/><circle cx="671.0" cy="232.0" r="3" fill="#4e79a7"/><circle cx="683.9" cy="228.3" r="3" fill="#4e79a7"/><circle cx="696.8" cy="229.5" r="3" fill="#4e79a7"/><circle cx="709.7" cy="232.0" r="3" fill="#4e79a7"/><circle cx="722.6" cy="230.8" r="3" fill="#4e79a7"/><circle cx="735.5" cy="230.8" r="3" fill="#4e79a7"/><circle cx="748.4" cy="227.0" r="3" fill="#4e79a7"/><circle cx="761.3" cy="230.8" r="3" fill="#4e79a7"/><circle cx="774.2" cy="228.3" r="3" fill="#4e79a7"/><circle cx="787.1" cy="229.5" r="3" fill="#4e79a7"/><circle cx="800.0" cy="230.8" r="3" fill="#4e79a7"/>
  <circle cx="52.0" cy="232.0" r="3" fill="#f28e2b"/><circle cx="64.9" cy="230.8" r="3" fill="#f28e2b"/><circle cx="77.8" cy="229.5" r="3" fill="#f28e2b"/><circle cx="90.7" cy="232.0" r="3" fill="#f28e2b"/><circle cx="103.6" cy="232.0" r="3" fill="#f28e2b"/><circle cx="116.5" cy="232.0" r="3" fill="#f28e2b"/><circle cx="129.4" cy="232.0" r="3" fill="#f28e2b"/><circle cx="142.3" cy="232.0" r="3" fill="#f28e2b"/><circle cx="155.2" cy="229.5" r="3" fill="#f28e2b"/><circle cx="168.1" cy="232.0" r="3" fill="#f28e2b"/><circle cx="181.0" cy="229.5" r="3" fill="#f28e2b"/><circle cx="193.9" cy="177.3" r="3" fill="#f28e2b"/><circle cx="206.8" cy="156.1" r="3" fill="#f28e2b"/><circle cx="219.7" cy="125.0" r="3" fill="#f28e2b"/><circle cx="232.6" cy="228.3" r="3" fill="#f28e2b"/><circle cx="245.4" cy="228.3" r="3" fill="#f28e2b"/><circle cx="258.3" cy="232.0" r="3" fill="#f28e2b"/><circle cx="271.2" cy="147.4" r="3" fill="#f28e2b"/><circle cx="284.1" cy="210.9" r="3" fill="#f28e2b"/><circle cx="297.0" cy="210.9" r="3" fill="#f28e2b"/><circle cx="309.9" cy="227.0" r="3" fill="#f28e2b"/><circle cx="322.8" cy="228.3" r="3" fill="#f28e2b"/><circle cx="335.7" cy="229.5" r="3" fill="#f28e2b"/><circle cx="348.6" cy="230.8" r="3" fill="#f28e2b"/><circle cx="361.5" cy="232.0" r="3" fill="#f28e2b"/><circle cx="374.4" cy="230.8" r="3" fill="#f28e2b"/><circle cx="387.3" cy="183.5" r="3" fill="#f28e2b"/><circle cx="400.2" cy="186.0" r="3" fill="#f28e2b"/><circle cx="413.1" cy="230.8" r="3" fill="#f28e2b"/><circle cx="426.0" cy="229.5" r="3" fill="#f28e2b"/><circle cx="438.9" cy="228.3" r="3" fill="#f28e2b"/><circle cx="451.8" cy="228.3" r="3" fill="#f28e2b"/><circle cx="464.7" cy="219.6" r="3" fill="#f28e2b"/><circle cx="477.6" cy="218.3" r="3" fill="#f28e2b"/><circle cx="490.5" cy="229.5" r="3" fill="#f28e2b"/><circle cx="503.4" cy="228.3" r="3" fill="#f28e2b"/><circle cx="516.3" cy="230.8" r="3" fill="#f28e2b"/><circle cx="529.2" cy="232.0" r="3" fill="#f28e2b"/><circle cx="542.1" cy="207.1" r="3" fill="#f28e2b"/><circle cx="555.0" cy="210.9" r="3" fill="#f28e2b"/><circle cx="567.9" cy="229.5" r="3" fill="#f28e2b"/><circle cx="580.8" cy="228.3" r="3" fill="#f28e2b"/><circle cx="593.7" cy="230.8" r="3" fill="#f28e2b"/><circle cx="606.6" cy="230.8" r="3" fill="#f28e2b"/><circle cx="619.4" cy="229.5" r="3" fill="#f28e2b"/><circle cx="632.3" cy="230.8" r="3" fill="#f28e2b"/><circle cx="645.2" cy="229.5" r="3" fill="#f28e2b"/><circle cx="658.1" cy="230.8" r="3" fill="#f28e2b"/><circle cx="671.0" cy="232.0" r="3" fill="#f28e2b"/><circle cx="683.9" cy="229.5" r="3" fill="#f28e2b"/><circle cx="696.8" cy="229.5" r="3" fill="#f28e2b"/><circle cx="709.7" cy="232.0" r="3" fill="#f28e2b"/><circle cx="722.6" cy="230.8" r="3" fill="#f28e2b"/><circle cx="735.5" cy="230.8" r="3" fill="#f28e2b"/><circle cx="748.4" cy="228.3" r="3" fill="#f28e2b"/><circle cx="761.3" cy="230.8" r="3" fill="#f28e2b"/><circle cx="774.2" cy="229.5" r="3" fill="#f28e2b"/><circle cx="787.1" cy="229.5" r="3" fill="#f28e2b"/><circle cx="800.0" cy="230.8" r="3" fill="#f28e2b"/>

  <!-- axes -->
  <line x1="52" y1="28" x2="52" y2="232"
        stroke="#cccccc" stroke-width="1"/>
  <line x1="52" y1="232" x2="800" y2="232"
        stroke="#cccccc" stroke-width="1"/>

  <!-- y-axis labels -->
  <text x="47" y="236.0" text-anchor="end" font-size="10" fill="#57606a" font-family="ui-monospace, SFMono-Regular, 'SF Mono', Menlo, monospace">0</text><text x="47" y="198.7" text-anchor="end" font-size="10" fill="#57606a" font-family="ui-monospace, SFMono-Regular, 'SF Mono', Menlo, monospace">30</text><text x="47" y="161.4" text-anchor="end" font-size="10" fill="#57606a" font-family="ui-monospace, SFMono-Regular, 'SF Mono', Menlo, monospace">60</text><text x="47" y="124.0" text-anchor="end" font-size="10" fill="#57606a" font-family="ui-monospace, SFMono-Regular, 'SF Mono', Menlo, monospace">90</text><text x="47" y="86.7" text-anchor="end" font-size="10" fill="#57606a" font-family="ui-monospace, SFMono-Regular, 'SF Mono', Menlo, monospace">120</text><text x="47" y="49.4" text-anchor="end" font-size="10" fill="#57606a" font-family="ui-monospace, SFMono-Regular, 'SF Mono', Menlo, monospace">150</text><text x="47" y="12.1" text-anchor="end" font-size="10" fill="#57606a" font-family="ui-monospace, SFMono-Regular, 'SF Mono', Menlo, monospace">180</text>

  <!-- x-axis labels -->
  <text x="52.0" y="248" text-anchor="middle" font-size="10" fill="#8c959f" font-family="ui-monospace, SFMono-Regular, 'SF Mono', Menlo, monospace">05-11</text><text x="503.4" y="248" text-anchor="middle" font-size="10" fill="#8c959f" font-family="ui-monospace, SFMono-Regular, 'SF Mono', Menlo, monospace">06-15</text><text x="142.3" y="248" text-anchor="middle" font-size="10" fill="#8c959f" font-family="ui-monospace, SFMono-Regular, 'SF Mono', Menlo, monospace">05-18</text><text x="593.7" y="248" text-anchor="middle" font-size="10" fill="#8c959f" font-family="ui-monospace, SFMono-Regular, 'SF Mono', Menlo, monospace">06-22</text><text x="232.6" y="248" text-anchor="middle" font-size="10" fill="#8c959f" font-family="ui-monospace, SFMono-Regular, 'SF Mono', Menlo, monospace">05-25</text><text x="683.9" y="248" text-anchor="middle" font-size="10" fill="#8c959f" font-family="ui-monospace, SFMono-Regular, 'SF Mono', Menlo, monospace">06-29</text><text x="322.8" y="248" text-anchor="middle" font-size="10" fill="#8c959f" font-family="ui-monospace, SFMono-Regular, 'SF Mono', Menlo, monospace">06-01</text><text x="774.2" y="248" text-anchor="middle" font-size="10" fill="#8c959f" font-family="ui-monospace, SFMono-Regular, 'SF Mono', Menlo, monospace">07-06</text><text x="800.0" y="248" text-anchor="middle" font-size="10" fill="#8c959f" font-family="ui-monospace, SFMono-Regular, 'SF Mono', Menlo, monospace">07-08</text><text x="413.1" y="248" text-anchor="middle" font-size="10" fill="#8c959f" font-family="ui-monospace, SFMono-Regular, 'SF Mono', Menlo, monospace">06-08</text>

  <!-- legend -->
  <rect x="60" y="262" width="16" height="3" fill="#4e79a7" rx="1"/><text x="80" y="268" font-size="11" fill="#57606a" font-family="-apple-system, BlinkMacSystemFont, 'Segoe UI', sans-serif">Total clones (1,243)</text><line x1="230" y1="264" x2="246" y2="264" stroke="#f28e2b" stroke-width="2" stroke-dasharray="5,3"/><text x="250" y="268" font-size="11" fill="#57606a" font-family="-apple-system, BlinkMacSystemFont, 'Segoe UI', sans-serif">Unique cloners</text>

</svg>