<svg xmlns="http://www.w3.org/2000/svg" viewBox="0 0 820 280" width="820" height="280">

  <!-- title -->
  <text x="52" y="18" font-size="13" font-weight="600"
        fill="#24292f" font-family="-apple-system, BlinkMacSystemFont, 'Segoe UI', sans-serif"
        >Clone traffic — 500ad</text>
  <text x="800" y="18" font-size="10" fill="#8c959f"
        font-family="ui-monospace, SFMono-Regular, 'SF Mono', Menlo, monospace" text-anchor="end">2026-07-18</text>

  <!-- grid -->
  <line x1="52" y1="232.0" x2="800" y2="232.0" stroke="#e8e8e8" stroke-width="1"/><line x1="52" y1="194.7" x2="800" y2="194.7" stroke="#e8e8e8" stroke-width="1"/><line x1="52" y1="157.4" x2="800" y2="157.4" stroke="#e8e8e8" stroke-width="1"/><line x1="52" y1="120.0" x2="800" y2="120.0" stroke="#e8e8e8" stroke-width="1"/><line x1="52" y1="82.7" x2="800" y2="82.7" stroke="#e8e8e8" stroke-width="1"/><line x1="52" y1="45.4" x2="800" y2="45.4" stroke="#e8e8e8" stroke-width="1"/><line x1="52" y1="8.1" x2="800" y2="8.1" stroke="#e8e8e8" stroke-width="1"/>

  <!-- area fill -->
  <path d="M52.0,232.0 L52.0,232.0 L63.3,230.8 L74.7,229.5 L86.0,232.0 L97.3,232.0 L108.7,232.0 L120.0,232.0 L131.3,232.0 L142.7,228.3 L154.0,232.0 L165.3,229.5 L176.7,74.0 L188.0,100.1 L199.3,28.0 L210.7,217.1 L222.0,218.3 L233.3,232.0 L244.7,30.5 L256.0,193.4 L267.3,163.6 L278.7,225.8 L290.0,223.3 L301.3,225.8 L312.7,230.8 L324.0,232.0 L335.3,230.8 L346.7,105.1 L358.0,113.8 L369.3,229.5 L380.7,229.5 L392.0,225.8 L403.3,228.3 L414.7,203.4 L426.0,166.1 L437.3,225.8 L448.7,208.4 L460.0,230.8 L471.3,232.0 L482.7,122.5 L494.0,102.6 L505.3,222.0 L516.7,217.1 L528.0,230.8 L539.3,230.8 L550.7,229.5 L562.0,230.8 L573.3,229.5 L584.7,230.8 L596.0,232.0 L607.3,228.3 L618.7,229.5 L630.0,232.0 L641.3,230.8 L652.7,230.8 L664.0,227.0 L675.3,230.8 L686.7,228.3 L698.0,229.5 L709.3,230.8 L720.7,229.5 L732.0,228.3 L743.3,230.8 L754.7,229.5 L766.0,229.5 L777.3,219.6 L788.7,232.0 L800.0,230.8 L800.0,232.0 L52.0,232.0Z" fill="#4e79a7" opacity="0.12"/>

  <!-- lines -->
  <polyline points="52.0,232.0 63.3,230.8 74.7,229.5 86.0,232.0 97.3,232.0 108.7,232.0 120.0,232.0 131.3,232.0 142.7,228.3 154.0,232.0 165.3,229.5 176.7,74.0 188.0,100.1 199.3,28.0 210.7,217.1 222.0,218.3 233.3,232.0 244.7,30.5 256.0,193.4 267.3,163.6 278.7,225.8 290.0,223.3 301.3,225.8 312.7,230.8 324.0,232.0 335.3,230.8 346.7,105.1 358.0,113.8 369.3,229.5 380.7,229.5 392.0,225.8 403.3,228.3 414.7,203.4 426.0,166.1 437.3,225.8 448.7,208.4 460.0,230.8 471.3,232.0 482.7,122.5 494.0,102.6 505.3,222.0 516.7,217.1 528.0,230.8 539.3,230.8 550.7,229.5 562.0,230.8 573.3,229.5 584.7,230.8 596.0,232.0 607.3,228.3 618.7,229.5 630.0,232.0 641.3,230.8 652.7,230.8 664.0,227.0 675.3,230.8 686.7,228.3 698.0,229.5 709.3,230.8 720.7,229.5 732.0,228.3 743.3,230.8 754.7,229.5 766.0,229.5 777.3,219.6 788.7,232.0 800.0,230.8"
            fill="none" stroke="#4e79a7"
            stroke-width="2" stroke-linejoin="round"/>
  <polyline points="52.0,232.0 63.3,230.8 74.7,229.5 86.0,232.0 97.3,232.0 108.7,232.0 120.0,232.0 131.3,232.0 142.7,229.5 154.0,232.0 165.3,229.5 176.7,177.3 188.0,156.1 199.3,125.0 210.7,228.3 222.0,228.3 233.3,232.0 244.7,147.4 256.0,210.9 267.3,210.9 278.7,227.0 290.0,228.3 301.3,229.5 312.7,230.8 324.0,232.0 335.3,230.8 346.7,183.5 358.0,186.0 369.3,230.8 380.7,229.5 392.0,228.3 403.3,228.3 414.7,219.6 426.0,218.3 437.3,229.5 448.7,228.3 460.0,230.8 471.3,232.0 482.7,207.1 494.0,210.9 505.3,229.5 516.7,228.3 528.0,230.8 539.3,230.8 550.7,229.5 562.0,230.8 573.3,229.5 584.7,230.8 596.0,232.0 607.3,229.5 618.7,229.5 630.0,232.0 641.3,230.8 652.7,230.8 664.0,228.3 675.3,230.8 686.7,229.5 698.0,229.5 709.3,230.8 720.7,229.5 732.0,229.5 743.3,230.8 754.7,229.5 766.0,229.5 777.3,228.3 788.7,232.0 800.0,230.8"
            fill="none" stroke="#f28e2b"
            stroke-width="2" stroke-linejoin="round"
            stroke-dasharray="5,3"/>

  <!-- dots -->
  <circle cx="52.0" cy="232.0" r="3" fill="#4e79a7"/><circle cx="63.3" cy="230.8" r="3" fill="#4e79a7"/><circle cx="74.7" cy="229.5" r="3" fill="#4e79a7"/><circle cx="86.0" cy="232.0" r="3" fill="#4e79a7"/><circle cx="97.3" cy="232.0" r="3" fill="#4e79a7"/><circle cx="108.7" cy="232.0" r="3" fill="#4e79a7"/><circle cx="120.0" cy="232.0" r="3" fill="#4e79a7"/><circle cx="131.3" cy="232.0" r="3" fill="#4e79a7"/><circle cx="142.7" cy="228.3" r="3" fill="#4e79a7"/><circle cx="154.0" cy="232.0" r="3" fill="#4e79a7"/><circle cx="165.3" cy="229.5" r="3" fill="#4e79a7"/><circle cx="176.7" cy="74.0" r="3" fill="#4e79a7"/><circle cx="188.0" cy="100.1" r="3" fill="#4e79a7"/><circle cx="199.3" cy="28.0" r="3" fill="#4e79a7"/><circle cx="210.7" cy="217.1" r="3" fill="#4e79a7"/><circle cx="222.0" cy="218.3" r="3" fill="#4e79a7"/><circle cx="233.3" cy="232.0" r="3" fill="#4e79a7"/><circle cx="244.7" cy="30.5" r="3" fill="#4e79a7"/><circle cx="256.0" cy="193.4" r="3" fill="#4e79a7"/><circle cx="267.3" cy="163.6" r="3" fill="#4e79a7"/><circle cx="278.7" cy="225.8" r="3" fill="#4e79a7"/><circle cx="290.0" cy="223.3" r="3" fill="#4e79a7"/><circle cx="301.3" cy="225.8" r="3" fill="#4e79a7"/><circle cx="312.7" cy="230.8" r="3" fill="#4e79a7"/><circle cx="324.0" cy="232.0" r="3" fill="#4e79a7"/><circle cx="335.3" cy="230.8" r="3" fill="#4e79a7"/><circle cx="346.7" cy="105.1" r="3" fill="#4e79a7"/><circle cx="358.0" cy="113.8" r="3" fill="#4e79a7"/><circle cx="369.3" cy="229.5" r="3" fill="#4e79a7"/><circle cx="380.7" cy="229.5" r="3" fill="#4e79a7"/><circle cx="392.0" cy="225.8" r="3" fill="#4e79a7"/><circle cx="403.3" cy="228.3" r="3" fill="#4e79a7"/><circle cx="414.7" cy="203.4" r="3" fill="#4e79a7"/><circle cx="426.0" cy="166.1" r="3" fill="#4e79a7"/><circle cx="437.3" cy="225.8" r="3" fill="#4e79a7"/><circle cx="448.7" cy="208.4" r="3" fill="#4e79a7"/><circle cx="460.0" cy="230.8" r="3" fill="#4e79a7"/><circle cx="471.3" cy="232.0" r="3" fill="#4e79a7"/><circle cx="482.7" cy="122.5" r="3" fill="#4e79a7"/><circle cx="494.0" cy="102.6" r="3" fill="#4e79a7"/><circle cx="505.3" cy="222.0" r="3" fill="#4e79a7"/><circle cx="516.7" cy="217.1" r="3" fill="#4e79a7"/><circle cx="528.0" cy="230.8" r="3" fill="#4e79a7"/><circle cx="539.3" cy="230.8" r="3" fill="#4e79a7"/><circle cx="550.7" cy="229.5" r="3" fill="#4e79a7"/><circle cx="562.0" cy="230.8" r="3" fill="#4e79a7"/><circle cx="573.3" cy="229.5" r="3" fill="#4e79a7"/><circle cx="584.7" cy="230.8" r="3" fill="#4e79a7"/><circle cx="596.0" cy="232.0" r="3" fill="#4e79a7"/><circle cx="607.3" cy="228.3" r="3" fill="#4e79a7"/><circle cx="618.7" cy="229.5" r="3" fill="#4e79a7"/><circle cx="630.0" cy="232.0" r="3" fill="#4e79a7"/><circle cx="641.3" cy="230.8" r="3" fill="#4e79a7"/><circle cx="652.7" cy="230.8" r="3" fill="#4e79a7"/><circle cx="664.0" cy="227.0" r="3" fill="#4e79a7"/><circle cx="675.3" cy="230.8" r="3" fill="#4e79a7"/><circle cx="686.7" cy="228.3" r="3" fill="#4e79a7"/><circle cx="698.0" cy="229.5" r="3" fill="#4e79a7"/><circle cx="709.3" cy="230.8" r="3" fill="#4e79a7"/><circle cx="720.7" cy="229.5" r="3" fill="#4e79a7"/><circle cx="732.0" cy="228.3" r="3" fill="#4e79a7"/><circle cx="743.3" cy="230.8" r="3" fill="#4e79a7"/><circle cx="754.7" cy="229.5" r="3" fill="#4e79a7"/><circle cx="766.0" cy="229.5" r="3" fill="#4e79a7"/><circle cx="777.3" cy="219.6" r="3" fill="#4e79a7"/><circle cx="788.7" cy="232.0" r="3" fill="#4e79a7"/><circle cx="800.0" cy="230.8" r="3" fill="#4e79a7"/>
  <circle cx="52.0" cy="232.0" r="3" fill="#f28e2b"/><circle cx="63.3" cy="230.8" r="3" fill="#f28e2b"/><circle cx="74.7" cy="229.5" r="3" fill="#f28e2b"/><circle cx="86.0" cy="232.0" r="3" fill="#f28e2b"/><circle cx="97.3" cy="232.0" r="3" fill="#f28e2b"/><circle cx="108.7" cy="232.0" r="3" fill="#f28e2b"/><circle cx="120.0" cy="232.0" r="3" fill="#f28e2b"/><circle cx="131.3" cy="232.0" r="3" fill="#f28e2b"/><circle cx="142.7" cy="229.5" r="3" fill="#f28e2b"/><circle cx="154.0" cy="232.0" r="3" fill="#f28e2b"/><circle cx="165.3" cy="229.5" r="3" fill="#f28e2b"/><circle cx="176.7" cy="177.3" r="3" fill="#f28e2b"/><circle cx="188.0" cy="156.1" r="3" fill="#f28e2b"/><circle cx="199.3" cy="125.0" r="3" fill="#f28e2b"/><circle cx="210.7" cy="228.3" r="3" fill="#f28e2b"/><circle cx="222.0" cy="228.3" r="3" fill="#f28e2b"/><circle cx="233.3" cy="232.0" r="3" fill="#f28e2b"/><circle cx="244.7" cy="147.4" r="3" fill="#f28e2b"/><circle cx="256.0" cy="210.9" r="3" fill="#f28e2b"/><circle cx="267.3" cy="210.9" r="3" fill="#f28e2b"/><circle cx="278.7" cy="227.0" r="3" fill="#f28e2b"/><circle cx="290.0" cy="228.3" r="3" fill="#f28e2b"/><circle cx="301.3" cy="229.5" r="3" fill="#f28e2b"/><circle cx="312.7" cy="230.8" r="3" fill="#f28e2b"/><circle cx="324.0" cy="232.0" r="3" fill="#f28e2b"/><circle cx="335.3" cy="230.8" r="3" fill="#f28e2b"/><circle cx="346.7" cy="183.5" r="3" fill="#f28e2b"/><circle cx="358.0" cy="186.0" r="3" fill="#f28e2b"/><circle cx="369.3" cy="230.8" r="3" fill="#f28e2b"/><circle cx="380.7" cy="229.5" r="3" fill="#f28e2b"/><circle cx="392.0" cy="228.3" r="3" fill="#f28e2b"/><circle cx="403.3" cy="228.3" r="3" fill="#f28e2b"/><circle cx="414.7" cy="219.6" r="3" fill="#f28e2b"/><circle cx="426.0" cy="218.3" r="3" fill="#f28e2b"/><circle cx="437.3" cy="229.5" r="3" fill="#f28e2b"/><circle cx="448.7" cy="228.3" r="3" fill="#f28e2b"/><circle cx="460.0" cy="230.8" r="3" fill="#f28e2b"/><circle cx="471.3" cy="232.0" r="3" fill="#f28e2b"/><circle cx="482.7" cy="207.1" r="3" fill="#f28e2b"/><circle cx="494.0" cy="210.9" r="3" fill="#f28e2b"/><circle cx="505.3" cy="229.5" r="3" fill="#f28e2b"/><circle cx="516.7" cy="228.3" r="3" fill="#f28e2b"/><circle cx="528.0" cy="230.8" r="3" fill="#f28e2b"/><circle cx="539.3" cy="230.8" r="3" fill="#f28e2b"/><circle cx="550.7" cy="229.5" r="3" fill="#f28e2b"/><circle cx="562.0" cy="230.8" r="3" fill="#f28e2b"/><circle cx="573.3" cy="229.5" r="3" fill="#f28e2b"/><circle cx="584.7" cy="230.8" r="3" fill="#f28e2b"/><circle cx="596.0" cy="232.0" r="3" fill="#f28e2b"/><circle cx="607.3" cy="229.5" r="3" fill="#f28e2b"/><circle cx="618.7" cy="229.5" r="3" fill="#f28e2b"/><circle cx="630.0" cy="232.0" r="3" fill="#f28e2b"/><circle cx="641.3" cy="230.8" r="3" fill="#f28e2b"/><circle cx="652.7" cy="230.8" r="3" fill="#f28e2b"/><circle cx="664.0" cy="228.3" r="3" fill="#f28e2b"/><circle cx="675.3" cy="230.8" r="3" fill="#f28e2b"/><circle cx="686.7" cy="229.5" r="3" fill="#f28e2b"/><circle cx="698.0" cy="229.5" r="3" fill="#f28e2b"/><circle cx="709.3" cy="230.8" r="3" fill="#f28e2b"/><circle cx="720.7" cy="229.5" r="3" fill="#f28e2b"/><circle cx="732.0" cy="229.5" r="3" fill="#f28e2b"/><circle cx="743.3" cy="230.8" r="3" fill="#f28e2b"/><circle cx="754.7" cy="229.5" r="3" fill="#f28e2b"/><circle cx="766.0" cy="229.5" r="3" fill="#f28e2b"/><circle cx="777.3" cy="228.3" r="3" fill="#f28e2b"/><circle cx="788.7" cy="232.0" r="3" fill="#f28e2b"/><circle cx="800.0" cy="230.8" r="3" fill="#f28e2b"/>

  <!-- axes -->
  <line x1="52" y1="28" x2="52" y2="232"
        stroke="#cccccc" stroke-width="1"/>
  <line x1="52" y1="232" x2="800" y2="232"
        stroke="#cccccc" stroke-width="1"/>

  <!-- y-axis labels -->
  <text x="47" y="236.0" text-anchor="end" font-size="10" fill="#57606a" font-family="ui-monospace, SFMono-Regular, 'SF Mono', Menlo, monospace">0</text><text x="47" y="198.7" text-anchor="end" font-size="10" fill="#57606a" font-family="ui-monospace, SFMono-Regular, 'SF Mono', Menlo, monospace">30</text><text x="47" y="161.4" text-anchor="end" font-size="10" fill="#57606a" font-family="ui-monospace, SFMono-Regular, 'SF Mono', Menlo, monospace">60</text><text x="47" y="124.0" text-anchor="end" font-size="10" fill="#57606a" font-family="ui-monospace, SFMono-Regular, 'SF Mono', Menlo, monospace">90</text><text x="47" y="86.7" text-anchor="end" font-size="10" fill="#57606a" font-family="ui-monospace, SFMono-Regular, 'SF Mono', Menlo, monospace">120</text><text x="47" y="49.4" text-anchor="end" font-size="10" fill="#57606a" font-family="ui-monospace, SFMono-Regular, 'SF Mono', Menlo, monospace">150</text><text x="47" y="12.1" text-anchor="end" font-size="10" fill="#57606a" font-family="ui-monospace, SFMono-Regular, 'SF Mono', Menlo, monospace">180</text>

  <!-- x-axis labels -->
  <text x="52.0" y="248" text-anchor="middle" font-size="10" fill="#8c959f" font-family="ui-monospace, SFMono-Regular, 'SF Mono', Menlo, monospace">05-11</text><text x="414.7" y="248" text-anchor="middle" font-size="10" fill="#8c959f" font-family="ui-monospace, SFMono-Regular, 'SF Mono', Menlo, monospace">06-12</text><text x="777.3" y="248" text-anchor="middle" font-size="10" fill="#8c959f" font-family="ui-monospace, SFMono-Regular, 'SF Mono', Menlo, monospace">07-14</text><text x="800.0" y="248" text-anchor="middle" font-size="10" fill="#8c959f" font-family="ui-monospace, SFMono-Regular, 'SF Mono', Menlo, monospace">07-16</text><text x="142.7" y="248" text-anchor="middle" font-size="10" fill="#8c959f" font-family="ui-monospace, SFMono-Regular, 'SF Mono', Menlo, monospace">05-19</text><text x="505.3" y="248" text-anchor="middle" font-size="10" fill="#8c959f" font-family="ui-monospace, SFMono-Regular, 'SF Mono', Menlo, monospace">06-20</text><text x="233.3" y="248" text-anchor="middle" font-size="10" fill="#8c959f" font-family="ui-monospace, SFMono-Regular, 'SF Mono', Menlo, monospace">05-27</text><text x="596.0" y="248" text-anchor="middle" font-size="10" fill="#8c959f" font-family="ui-monospace, SFMono-Regular, 'SF Mono', Menlo, monospace">06-28</text><text x="324.0" y="248" text-anchor="middle" font-size="10" fill="#8c959f" font-family="ui-monospace, SFMono-Regular, 'SF Mono', Menlo, monospace">06-04</text><text x="686.7" y="248" text-anchor="middle" font-size="10" fill="#8c959f" font-family="ui-monospace, SFMono-Regular, 'SF Mono', Menlo, monospace">07-06</text>

  <!-- legend -->
  <rect x="60" y="262" width="16" height="3" fill="#4e79a7" rx="1"/><text x="80" y="268" font-size="11" fill="#57606a" font-family="-apple-system, BlinkMacSystemFont, 'Segoe UI', sans-serif">Total clones (1,264)</text><line x1="230" y1="264" x2="246" y2="264" stroke="#f28e2b" stroke-width="2" stroke-dasharray="5,3"/><text x="250" y="268" font-size="11" fill="#57606a" font-family="-apple-system, BlinkMacSystemFont, 'Segoe UI', sans-serif">Unique cloners</text>

</svg>