<svg xmlns="http://www.w3.org/2000/svg" viewBox="0 0 820 280" width="820" height="280">

  <!-- title -->
  <text x="52" y="18" font-size="13" font-weight="600"
        fill="#24292f" font-family="-apple-system, BlinkMacSystemFont, 'Segoe UI', sans-serif"
        >Clone traffic — 500ad</text>
  <text x="800" y="18" font-size="10" fill="#8c959f"
        font-family="ui-monospace, SFMono-Regular, 'SF Mono', Menlo, monospace" text-anchor="end">2026-06-23</text>

  <!-- grid -->
  <line x1="52" y1="232.0" x2="800" y2="232.0" stroke="#e8e8e8" stroke-width="1"/><line x1="52" y1="194.7" x2="800" y2="194.7" stroke="#e8e8e8" stroke-width="1"/><line x1="52" y1="157.4" x2="800" y2="157.4" stroke="#e8e8e8" stroke-width="1"/><line x1="52" y1="120.0" x2="800" y2="120.0" stroke="#e8e8e8" stroke-width="1"/><line x1="52" y1="82.7" x2="800" y2="82.7" stroke="#e8e8e8" stroke-width="1"/><line x1="52" y1="45.4" x2="800" y2="45.4" stroke="#e8e8e8" stroke-width="1"/><line x1="52" y1="8.1" x2="800" y2="8.1" stroke="#e8e8e8" stroke-width="1"/>

  <!-- area fill -->
  <path d="M52.0,232.0 L52.0,232.0 L70.2,230.8 L88.5,229.5 L106.7,232.0 L125.0,232.0 L143.2,232.0 L161.5,232.0 L179.7,232.0 L198.0,228.3 L216.2,232.0 L234.4,229.5 L252.7,74.0 L270.9,100.1 L289.2,28.0 L307.4,217.1 L325.7,218.3 L343.9,232.0 L362.1,30.5 L380.4,193.4 L398.6,163.6 L416.9,225.8 L435.1,223.3 L453.4,225.8 L471.6,230.8 L489.9,232.0 L508.1,230.8 L526.3,105.1 L544.6,113.8 L562.8,229.5 L581.1,229.5 L599.3,225.8 L617.6,228.3 L635.8,203.4 L654.0,166.1 L672.3,225.8 L690.5,208.4 L708.8,230.8 L727.0,232.0 L745.3,122.5 L763.5,102.6 L781.8,222.0 L800.0,217.1 L800.0,232.0 L52.0,232.0Z" fill="#4e79a7" opacity="0.12"/>

  <!-- lines -->
  <polyline points="52.0,232.0 70.2,230.8 88.5,229.5 106.7,232.0 125.0,232.0 143.2,232.0 161.5,232.0 179.7,232.0 198.0,228.3 216.2,232.0 234.4,229.5 252.7,74.0 270.9,100.1 289.2,28.0 307.4,217.1 325.7,218.3 343.9,232.0 362.1,30.5 380.4,193.4 398.6,163.6 416.9,225.8 435.1,223.3 453.4,225.8 471.6,230.8 489.9,232.0 508.1,230.8 526.3,105.1 544.6,113.8 562.8,229.5 581.1,229.5 599.3,225.8 617.6,228.3 635.8,203.4 654.0,166.1 672.3,225.8 690.5,208.4 708.8,230.8 727.0,232.0 745.3,122.5 763.5,102.6 781.8,222.0 800.0,217.1"
            fill="none" stroke="#4e79a7"
            stroke-width="2" stroke-linejoin="round"/>
  <polyline points="52.0,232.0 70.2,230.8 88.5,229.5 106.7,232.0 125.0,232.0 143.2,232.0 161.5,232.0 179.7,232.0 198.0,229.5 216.2,232.0 234.4,229.5 252.7,177.3 270.9,156.1 289.2,125.0 307.4,228.3 325.7,228.3 343.9,232.0 362.1,147.4 380.4,210.9 398.6,210.9 416.9,227.0 435.1,228.3 453.4,229.5 471.6,230.8 489.9,232.0 508.1,230.8 526.3,183.5 544.6,186.0 562.8,230.8 581.1,229.5 599.3,228.3 617.6,228.3 635.8,219.6 654.0,218.3 672.3,229.5 690.5,228.3 708.8,230.8 727.0,232.0 745.3,207.1 763.5,210.9 781.8,229.5 800.0,228.3"
            fill="none" stroke="#f28e2b"
            stroke-width="2" stroke-linejoin="round"
            stroke-dasharray="5,3"/>

  <!-- dots -->
  <circle cx="52.0" cy="232.0" r="3" fill="#4e79a7"/><circle cx="70.2" cy="230.8" r="3" fill="#4e79a7"/><circle cx="88.5" cy="229.5" r="3" fill="#4e79a7"/><circle cx="106.7" cy="232.0" r="3" fill="#4e79a7"/><circle cx="125.0" cy="232.0" r="3" fill="#4e79a7"/><circle cx="143.2" cy="232.0" r="3" fill="#4e79a7"/><circle cx="161.5" cy="232.0" r="3" fill="#4e79a7"/><circle cx="179.7" cy="232.0" r="3" fill="#4e79a7"/><circle cx="198.0" cy="228.3" r="3" fill="#4e79a7"/><circle cx="216.2" cy="232.0" r="3" fill="#4e79a7"/><circle cx="234.4" cy="229.5" r="3" fill="#4e79a7"/><circle cx="252.7" cy="74.0" r="3" fill="#4e79a7"/><circle cx="270.9" cy="100.1" r="3" fill="#4e79a7"/><circle cx="289.2" cy="28.0" r="3" fill="#4e79a7"/><circle cx="307.4" cy="217.1" r="3" fill="#4e79a7"/><circle cx="325.7" cy="218.3" r="3" fill="#4e79a7"/><circle cx="343.9" cy="232.0" r="3" fill="#4e79a7"/><circle cx="362.1" cy="30.5" r="3" fill="#4e79a7"/><circle cx="380.4" cy="193.4" r="3" fill="#4e79a7"/><circle cx="398.6" cy="163.6" r="3" fill="#4e79a7"/><circle cx="416.9" cy="225.8" r="3" fill="#4e79a7"/><circle cx="435.1" cy="223.3" r="3" fill="#4e79a7"/><circle cx="453.4" cy="225.8" r="3" fill="#4e79a7"/><circle cx="471.6" cy="230.8" r="3" fill="#4e79a7"/><circle cx="489.9" cy="232.0" r="3" fill="#4e79a7"/><circle cx="508.1" cy="230.8" r="3" fill="#4e79a7"/><circle cx="526.3" cy="105.1" r="3" fill="#4e79a7"/><circle cx="544.6" cy="113.8" r="3" fill="#4e79a7"/><circle cx="562.8" cy="229.5" r="3" fill="#4e79a7"/><circle cx="581.1" cy="229.5" r="3" fill="#4e79a7"/><circle cx="599.3" cy="225.8" r="3" fill="#4e79a7"/><circle cx="617.6" cy="228.3" r="3" fill="#4e79a7"/><circle cx="635.8" cy="203.4" r="3" fill="#4e79a7"/><circle cx="654.0" cy="166.1" r="3" fill="#4e79a7"/><circle cx="672.3" cy="225.8" r="3" fill="#4e79a7"/><circle cx="690.5" cy="208.4" r="3" fill="#4e79a7"/><circle cx="708.8" cy="230.8" r="3" fill="#4e79a7"/><circle cx="727.0" cy="232.0" r="3" fill="#4e79a7"/><circle cx="745.3" cy="122.5" r="3" fill="#4e79a7"/><circle cx="763.5" cy="102.6" r="3" fill="#4e79a7"/><circle cx="781.8" cy="222.0" r="3" fill="#4e79a7"/><circle cx="800.0" cy="217.1" r="3" fill="#4e79a7"/>
  <circle cx="52.0" cy="232.0" r="3" fill="#f28e2b"/><circle cx="70.2" cy="230.8" r="3" fill="#f28e2b"/><circle cx="88.5" cy="229.5" r="3" fill="#f28e2b"/><circle cx="106.7" cy="232.0" r="3" fill="#f28e2b"/><circle cx="125.0" cy="232.0" r="3" fill="#f28e2b"/><circle cx="143.2" cy="232.0" r="3" fill="#f28e2b"/><circle cx="161.5" cy="232.0" r="3" fill="#f28e2b"/><circle cx="179.7" cy="232.0" r="3" fill="#f28e2b"/><circle cx="198.0" cy="229.5" r="3" fill="#f28e2b"/><circle cx="216.2" cy="232.0" r="3" fill="#f28e2b"/><circle cx="234.4" cy="229.5" r="3" fill="#f28e2b"/><circle cx="252.7" cy="177.3" r="3" fill="#f28e2b"/><circle cx="270.9" cy="156.1" r="3" fill="#f28e2b"/><circle cx="289.2" cy="125.0" r="3" fill="#f28e2b"/><circle cx="307.4" cy="228.3" r="3" fill="#f28e2b"/><circle cx="325.7" cy="228.3" r="3" fill="#f28e2b"/><circle cx="343.9" cy="232.0" r="3" fill="#f28e2b"/><circle cx="362.1" cy="147.4" r="3" fill="#f28e2b"/><circle cx="380.4" cy="210.9" r="3" fill="#f28e2b"/><circle cx="398.6" cy="210.9" r="3" fill="#f28e2b"/><circle cx="416.9" cy="227.0" r="3" fill="#f28e2b"/><circle cx="435.1" cy="228.3" r="3" fill="#f28e2b"/><circle cx="453.4" cy="229.5" r="3" fill="#f28e2b"/><circle cx="471.6" cy="230.8" r="3" fill="#f28e2b"/><circle cx="489.9" cy="232.0" r="3" fill="#f28e2b"/><circle cx="508.1" cy="230.8" r="3" fill="#f28e2b"/><circle cx="526.3" cy="183.5" r="3" fill="#f28e2b"/><circle cx="544.6" cy="186.0" r="3" fill="#f28e2b"/><circle cx="562.8" cy="230.8" r="3" fill="#f28e2b"/><circle cx="581.1" cy="229.5" r="3" fill="#f28e2b"/><circle cx="599.3" cy="228.3" r="3" fill="#f28e2b"/><circle cx="617.6" cy="228.3" r="3" fill="#f28e2b"/><circle cx="635.8" cy="219.6" r="3" fill="#f28e2b"/><circle cx="654.0" cy="218.3" r="3" fill="#f28e2b"/><circle cx="672.3" cy="229.5" r="3" fill="#f28e2b"/><circle cx="690.5" cy="228.3" r="3" fill="#f28e2b"/><circle cx="708.8" cy="230.8" r="3" fill="#f28e2b"/><circle cx="727.0" cy="232.0" r="3" fill="#f28e2b"/><circle cx="745.3" cy="207.1" r="3" fill="#f28e2b"/><circle cx="763.5" cy="210.9" r="3" fill="#f28e2b"/><circle cx="781.8" cy="229.5" r="3" fill="#f28e2b"/><circle cx="800.0" cy="228.3" r="3" fill="#f28e2b"/>

  <!-- axes -->
  <line x1="52" y1="28" x2="52" y2="232"
        stroke="#cccccc" stroke-width="1"/>
  <line x1="52" y1="232" x2="800" y2="232"
        stroke="#cccccc" stroke-width="1"/>

  <!-- y-axis labels -->
  <text x="47" y="236.0" text-anchor="end" font-size="10" fill="#57606a" font-family="ui-monospace, SFMono-Regular, 'SF Mono', Menlo, monospace">0</text><text x="47" y="198.7" text-anchor="end" font-size="10" fill="#57606a" font-family="ui-monospace, SFMono-Regular, 'SF Mono', Menlo, monospace">30</text><text x="47" y="161.4" text-anchor="end" font-size="10" fill="#57606a" font-family="ui-monospace, SFMono-Regular, 'SF Mono', Menlo, monospace">60</text><text x="47" y="124.0" text-anchor="end" font-size="10" fill="#57606a" font-family="ui-monospace, SFMono-Regular, 'SF Mono', Menlo, monospace">90</text><text x="47" y="86.7" text-anchor="end" font-size="10" fill="#57606a" font-family="ui-monospace, SFMono-Regular, 'SF Mono', Menlo, monospace">120</text><text x="47" y="49.4" text-anchor="end" font-size="10" fill="#57606a" font-family="ui-monospace, SFMono-Regular, 'SF Mono', Menlo, monospace">150</text><text x="47" y="12.1" text-anchor="end" font-size="10" fill="#57606a" font-family="ui-monospace, SFMono-Regular, 'SF Mono', Menlo, monospace">180</text>

  <!-- x-axis labels -->
  <text x="52.0" y="248" text-anchor="middle" font-size="10" fill="#8c959f" font-family="ui-monospace, SFMono-Regular, 'SF Mono', Menlo, monospace">05-11</text><text x="690.5" y="248" text-anchor="middle" font-size="10" fill="#8c959f" font-family="ui-monospace, SFMono-Regular, 'SF Mono', Menlo, monospace">06-15</text><text x="143.2" y="248" text-anchor="middle" font-size="10" fill="#8c959f" font-family="ui-monospace, SFMono-Regular, 'SF Mono', Menlo, monospace">05-16</text><text x="781.8" y="248" text-anchor="middle" font-size="10" fill="#8c959f" font-family="ui-monospace, SFMono-Regular, 'SF Mono', Menlo, monospace">06-20</text><text x="800.0" y="248" text-anchor="middle" font-size="10" fill="#8c959f" font-family="ui-monospace, SFMono-Regular, 'SF Mono', Menlo, monospace">06-21</text><text x="234.4" y="248" text-anchor="middle" font-size="10" fill="#8c959f" font-family="ui-monospace, SFMono-Regular, 'SF Mono', Menlo, monospace">05-21</text><text x="325.7" y="248" text-anchor="middle" font-size="10" fill="#8c959f" font-family="ui-monospace, SFMono-Regular, 'SF Mono', Menlo, monospace">05-26</text><text x="416.9" y="248" text-anchor="middle" font-size="10" fill="#8c959f" font-family="ui-monospace, SFMono-Regular, 'SF Mono', Menlo, monospace">05-31</text><text x="508.1" y="248" text-anchor="middle" font-size="10" fill="#8c959f" font-family="ui-monospace, SFMono-Regular, 'SF Mono', Menlo, monospace">06-05</text><text x="599.3" y="248" text-anchor="middle" font-size="10" fill="#8c959f" font-family="ui-monospace, SFMono-Regular, 'SF Mono', Menlo, monospace">06-10</text>

  <!-- legend -->
  <rect x="60" y="262" width="16" height="3" fill="#4e79a7" rx="1"/><text x="80" y="268" font-size="11" fill="#57606a" font-family="-apple-system, BlinkMacSystemFont, 'Segoe UI', sans-serif">Total clones (1,217)</text><line x1="230" y1="264" x2="246" y2="264" stroke="#f28e2b" stroke-width="2" stroke-dasharray="5,3"/><text x="250" y="268" font-size="11" fill="#57606a" font-family="-apple-system, BlinkMacSystemFont, 'Segoe UI', sans-serif">Unique cloners</text>

</svg>