<svg xmlns="http://www.w3.org/2000/svg" viewBox="0 0 820 280" width="820" height="280">

  <!-- title -->
  <text x="52" y="18" font-size="13" font-weight="600"
        fill="#24292f" font-family="-apple-system, BlinkMacSystemFont, 'Segoe UI', sans-serif"
        >Clone traffic — 500ad</text>
  <text x="800" y="18" font-size="10" fill="#8c959f"
        font-family="ui-monospace, SFMono-Regular, 'SF Mono', Menlo, monospace" text-anchor="end">2026-06-19</text>

  <!-- grid -->
  <line x1="52" y1="232.0" x2="800" y2="232.0" stroke="#e8e8e8" stroke-width="1"/><line x1="52" y1="194.7" x2="800" y2="194.7" stroke="#e8e8e8" stroke-width="1"/><line x1="52" y1="157.4" x2="800" y2="157.4" stroke="#e8e8e8" stroke-width="1"/><line x1="52" y1="120.0" x2="800" y2="120.0" stroke="#e8e8e8" stroke-width="1"/><line x1="52" y1="82.7" x2="800" y2="82.7" stroke="#e8e8e8" stroke-width="1"/><line x1="52" y1="45.4" x2="800" y2="45.4" stroke="#e8e8e8" stroke-width="1"/><line x1="52" y1="8.1" x2="800" y2="8.1" stroke="#e8e8e8" stroke-width="1"/>

  <!-- area fill -->
  <path d="M52.0,232.0 L52.0,232.0 L72.2,230.8 L92.4,229.5 L112.6,232.0 L132.9,232.0 L153.1,232.0 L173.3,232.0 L193.5,232.0 L213.7,228.3 L233.9,232.0 L254.2,229.5 L274.4,74.0 L294.6,100.1 L314.8,28.0 L335.0,217.1 L355.2,218.3 L375.5,232.0 L395.7,30.5 L415.9,193.4 L436.1,163.6 L456.3,225.8 L476.5,223.3 L496.8,225.8 L517.0,230.8 L537.2,232.0 L557.4,230.8 L577.6,105.1 L597.8,113.8 L618.1,229.5 L638.3,229.5 L658.5,225.8 L678.7,228.3 L698.9,203.4 L719.1,166.1 L739.4,225.8 L759.6,208.4 L779.8,230.8 L800.0,232.0 L800.0,232.0 L52.0,232.0Z" fill="#4e79a7" opacity="0.12"/>

  <!-- lines -->
  <polyline points="52.0,232.0 72.2,230.8 92.4,229.5 112.6,232.0 132.9,232.0 153.1,232.0 173.3,232.0 193.5,232.0 213.7,228.3 233.9,232.0 254.2,229.5 274.4,74.0 294.6,100.1 314.8,28.0 335.0,217.1 355.2,218.3 375.5,232.0 395.7,30.5 415.9,193.4 436.1,163.6 456.3,225.8 476.5,223.3 496.8,225.8 517.0,230.8 537.2,232.0 557.4,230.8 577.6,105.1 597.8,113.8 618.1,229.5 638.3,229.5 658.5,225.8 678.7,228.3 698.9,203.4 719.1,166.1 739.4,225.8 759.6,208.4 779.8,230.8 800.0,232.0"
            fill="none" stroke="#4e79a7"
            stroke-width="2" stroke-linejoin="round"/>
  <polyline points="52.0,232.0 72.2,230.8 92.4,229.5 112.6,232.0 132.9,232.0 153.1,232.0 173.3,232.0 193.5,232.0 213.7,229.5 233.9,232.0 254.2,229.5 274.4,177.3 294.6,156.1 314.8,125.0 335.0,228.3 355.2,228.3 375.5,232.0 395.7,147.4 415.9,210.9 436.1,210.9 456.3,227.0 476.5,228.3 496.8,229.5 517.0,230.8 537.2,232.0 557.4,230.8 577.6,183.5 597.8,186.0 618.1,230.8 638.3,229.5 658.5,228.3 678.7,228.3 698.9,219.6 719.1,218.3 739.4,229.5 759.6,228.3 779.8,230.8 800.0,232.0"
            fill="none" stroke="#f28e2b"
            stroke-width="2" stroke-linejoin="round"
            stroke-dasharray="5,3"/>

  <!-- dots -->
  <circle cx="52.0" cy="232.0" r="3" fill="#4e79a7"/><circle cx="72.2" cy="230.8" r="3" fill="#4e79a7"/><circle cx="92.4" cy="229.5" r="3" fill="#4e79a7"/><circle cx="112.6" cy="232.0" r="3" fill="#4e79a7"/><circle cx="132.9" cy="232.0" r="3" fill="#4e79a7"/><circle cx="153.1" cy="232.0" r="3" fill="#4e79a7"/><circle cx="173.3" cy="232.0" r="3" fill="#4e79a7"/><circle cx="193.5" cy="232.0" r="3" fill="#4e79a7"/><circle cx="213.7" cy="228.3" r="3" fill="#4e79a7"/><circle cx="233.9" cy="232.0" r="3" fill="#4e79a7"/><circle cx="254.2" cy="229.5" r="3" fill="#4e79a7"/><circle cx="274.4" cy="74.0" r="3" fill="#4e79a7"/><circle cx="294.6" cy="100.1" r="3" fill="#4e79a7"/><circle cx="314.8" cy="28.0" r="3" fill="#4e79a7"/><circle cx="335.0" cy="217.1" r="3" fill="#4e79a7"/><circle cx="355.2" cy="218.3" r="3" fill="#4e79a7"/><circle cx="375.5" cy="232.0" r="3" fill="#4e79a7"/><circle cx="395.7" cy="30.5" r="3" fill="#4e79a7"/><circle cx="415.9" cy="193.4" r="3" fill="#4e79a7"/><circle cx="436.1" cy="163.6" r="3" fill="#4e79a7"/><circle cx="456.3" cy="225.8" r="3" fill="#4e79a7"/><circle cx="476.5" cy="223.3" r="3" fill="#4e79a7"/><circle cx="496.8" cy="225.8" r="3" fill="#4e79a7"/><circle cx="517.0" cy="230.8" r="3" fill="#4e79a7"/><circle cx="537.2" cy="232.0" r="3" fill="#4e79a7"/><circle cx="557.4" cy="230.8" r="3" fill="#4e79a7"/><circle cx="577.6" cy="105.1" r="3" fill="#4e79a7"/><circle cx="597.8" cy="113.8" r="3" fill="#4e79a7"/><circle cx="618.1" cy="229.5" r="3" fill="#4e79a7"/><circle cx="638.3" cy="229.5" r="3" fill="#4e79a7"/><circle cx="658.5" cy="225.8" r="3" fill="#4e79a7"/><circle cx="678.7" cy="228.3" r="3" fill="#4e79a7"/><circle cx="698.9" cy="203.4" r="3" fill="#4e79a7"/><circle cx="719.1" cy="166.1" r="3" fill="#4e79a7"/><circle cx="739.4" cy="225.8" r="3" fill="#4e79a7"/><circle cx="759.6" cy="208.4" r="3" fill="#4e79a7"/><circle cx="779.8" cy="230.8" r="3" fill="#4e79a7"/><circle cx="800.0" cy="232.0" r="3" fill="#4e79a7"/>
  <circle cx="52.0" cy="232.0" r="3" fill="#f28e2b"/><circle cx="72.2" cy="230.8" r="3" fill="#f28e2b"/><circle cx="92.4" cy="229.5" r="3" fill="#f28e2b"/><circle cx="112.6" cy="232.0" r="3" fill="#f28e2b"/><circle cx="132.9" cy="232.0" r="3" fill="#f28e2b"/><circle cx="153.1" cy="232.0" r="3" fill="#f28e2b"/><circle cx="173.3" cy="232.0" r="3" fill="#f28e2b"/><circle cx="193.5" cy="232.0" r="3" fill="#f28e2b"/><circle cx="213.7" cy="229.5" r="3" fill="#f28e2b"/><circle cx="233.9" cy="232.0" r="3" fill="#f28e2b"/><circle cx="254.2" cy="229.5" r="3" fill="#f28e2b"/><circle cx="274.4" cy="177.3" r="3" fill="#f28e2b"/><circle cx="294.6" cy="156.1" r="3" fill="#f28e2b"/><circle cx="314.8" cy="125.0" r="3" fill="#f28e2b"/><circle cx="335.0" cy="228.3" r="3" fill="#f28e2b"/><circle cx="355.2" cy="228.3" r="3" fill="#f28e2b"/><circle cx="375.5" cy="232.0" r="3" fill="#f28e2b"/><circle cx="395.7" cy="147.4" r="3" fill="#f28e2b"/><circle cx="415.9" cy="210.9" r="3" fill="#f28e2b"/><circle cx="436.1" cy="210.9" r="3" fill="#f28e2b"/><circle cx="456.3" cy="227.0" r="3" fill="#f28e2b"/><circle cx="476.5" cy="228.3" r="3" fill="#f28e2b"/><circle cx="496.8" cy="229.5" r="3" fill="#f28e2b"/><circle cx="517.0" cy="230.8" r="3" fill="#f28e2b"/><circle cx="537.2" cy="232.0" r="3" fill="#f28e2b"/><circle cx="557.4" cy="230.8" r="3" fill="#f28e2b"/><circle cx="577.6" cy="183.5" r="3" fill="#f28e2b"/><circle cx="597.8" cy="186.0" r="3" fill="#f28e2b"/><circle cx="618.1" cy="230.8" r="3" fill="#f28e2b"/><circle cx="638.3" cy="229.5" r="3" fill="#f28e2b"/><circle cx="658.5" cy="228.3" r="3" fill="#f28e2b"/><circle cx="678.7" cy="228.3" r="3" fill="#f28e2b"/><circle cx="698.9" cy="219.6" r="3" fill="#f28e2b"/><circle cx="719.1" cy="218.3" r="3" fill="#f28e2b"/><circle cx="739.4" cy="229.5" r="3" fill="#f28e2b"/><circle cx="759.6" cy="228.3" r="3" fill="#f28e2b"/><circle cx="779.8" cy="230.8" r="3" fill="#f28e2b"/><circle cx="800.0" cy="232.0" r="3" fill="#f28e2b"/>

  <!-- axes -->
  <line x1="52" y1="28" x2="52" y2="232"
        stroke="#cccccc" stroke-width="1"/>
  <line x1="52" y1="232" x2="800" y2="232"
        stroke="#cccccc" stroke-width="1"/>

  <!-- y-axis labels -->
  <text x="47" y="236.0" text-anchor="end" font-size="10" fill="#57606a" font-family="ui-monospace, SFMono-Regular, 'SF Mono', Menlo, monospace">0</text><text x="47" y="198.7" text-anchor="end" font-size="10" fill="#57606a" font-family="ui-monospace, SFMono-Regular, 'SF Mono', Menlo, monospace">30</text><text x="47" y="161.4" text-anchor="end" font-size="10" fill="#57606a" font-family="ui-monospace, SFMono-Regular, 'SF Mono', Menlo, monospace">60</text><text x="47" y="124.0" text-anchor="end" font-size="10" fill="#57606a" font-family="ui-monospace, SFMono-Regular, 'SF Mono', Menlo, monospace">90</text><text x="47" y="86.7" text-anchor="end" font-size="10" fill="#57606a" font-family="ui-monospace, SFMono-Regular, 'SF Mono', Menlo, monospace">120</text><text x="47" y="49.4" text-anchor="end" font-size="10" fill="#57606a" font-family="ui-monospace, SFMono-Regular, 'SF Mono', Menlo, monospace">150</text><text x="47" y="12.1" text-anchor="end" font-size="10" fill="#57606a" font-family="ui-monospace, SFMono-Regular, 'SF Mono', Menlo, monospace">180</text>

  <!-- x-axis labels -->
  <text x="52.0" y="248" text-anchor="middle" font-size="10" fill="#8c959f" font-family="ui-monospace, SFMono-Regular, 'SF Mono', Menlo, monospace">05-11</text><text x="698.9" y="248" text-anchor="middle" font-size="10" fill="#8c959f" font-family="ui-monospace, SFMono-Regular, 'SF Mono', Menlo, monospace">06-12</text><text x="132.9" y="248" text-anchor="middle" font-size="10" fill="#8c959f" font-family="ui-monospace, SFMono-Regular, 'SF Mono', Menlo, monospace">05-15</text><text x="779.8" y="248" text-anchor="middle" font-size="10" fill="#8c959f" font-family="ui-monospace, SFMono-Regular, 'SF Mono', Menlo, monospace">06-16</text><text x="800.0" y="248" text-anchor="middle" font-size="10" fill="#8c959f" font-family="ui-monospace, SFMono-Regular, 'SF Mono', Menlo, monospace">06-17</text><text x="213.7" y="248" text-anchor="middle" font-size="10" fill="#8c959f" font-family="ui-monospace, SFMono-Regular, 'SF Mono', Menlo, monospace">05-19</text><text x="294.6" y="248" text-anchor="middle" font-size="10" fill="#8c959f" font-family="ui-monospace, SFMono-Regular, 'SF Mono', Menlo, monospace">05-23</text><text x="375.5" y="248" text-anchor="middle" font-size="10" fill="#8c959f" font-family="ui-monospace, SFMono-Regular, 'SF Mono', Menlo, monospace">05-27</text><text x="456.3" y="248" text-anchor="middle" font-size="10" fill="#8c959f" font-family="ui-monospace, SFMono-Regular, 'SF Mono', Menlo, monospace">05-31</text><text x="537.2" y="248" text-anchor="middle" font-size="10" fill="#8c959f" font-family="ui-monospace, SFMono-Regular, 'SF Mono', Menlo, monospace">06-04</text><text x="618.1" y="248" text-anchor="middle" font-size="10" fill="#8c959f" font-family="ui-monospace, SFMono-Regular, 'SF Mono', Menlo, monospace">06-08</text>

  <!-- legend -->
  <rect x="60" y="262" width="16" height="3" fill="#4e79a7" rx="1"/><text x="80" y="268" font-size="11" fill="#57606a" font-family="-apple-system, BlinkMacSystemFont, 'Segoe UI', sans-serif">Total clones (1,005)</text><line x1="230" y1="264" x2="246" y2="264" stroke="#f28e2b" stroke-width="2" stroke-dasharray="5,3"/><text x="250" y="268" font-size="11" fill="#57606a" font-family="-apple-system, BlinkMacSystemFont, 'Segoe UI', sans-serif">Unique cloners</text>

</svg>