<svg xmlns="http://www.w3.org/2000/svg" viewBox="0 0 820 280" width="820" height="280">

  <!-- title -->
  <text x="52" y="18" font-size="13" font-weight="600"
        fill="#24292f" font-family="-apple-system, BlinkMacSystemFont, 'Segoe UI', sans-serif"
        >Clone traffic — agentvault</text>
  <text x="800" y="18" font-size="10" fill="#8c959f"
        font-family="ui-monospace, SFMono-Regular, 'SF Mono', Menlo, monospace" text-anchor="end">2026-06-22</text>

  <!-- grid -->
  <line x1="52" y1="232.0" x2="800" y2="232.0" stroke="#e8e8e8" stroke-width="1"/><line x1="52" y1="192.7" x2="800" y2="192.7" stroke="#e8e8e8" stroke-width="1"/><line x1="52" y1="153.3" x2="800" y2="153.3" stroke="#e8e8e8" stroke-width="1"/><line x1="52" y1="114.0" x2="800" y2="114.0" stroke="#e8e8e8" stroke-width="1"/><line x1="52" y1="74.6" x2="800" y2="74.6" stroke="#e8e8e8" stroke-width="1"/><line x1="52" y1="35.3" x2="800" y2="35.3" stroke="#e8e8e8" stroke-width="1"/><line x1="52" y1="-4.0" x2="800" y2="-4.0" stroke="#e8e8e8" stroke-width="1"/>

  <!-- area fill -->
  <path d="M52.0,232.0 L52.0,232.0 L70.7,231.4 L89.4,230.9 L108.1,230.9 L126.8,188.7 L145.5,229.8 L164.2,231.4 L182.9,231.4 L201.6,231.4 L220.3,231.4 L239.0,230.9 L257.7,232.0 L276.4,231.4 L295.1,232.0 L313.8,231.4 L332.5,231.4 L351.2,232.0 L369.9,232.0 L388.6,232.0 L407.3,231.4 L426.0,230.9 L444.7,230.9 L463.4,232.0 L482.1,231.4 L500.8,232.0 L519.5,231.4 L538.2,231.4 L556.9,28.0 L575.6,56.1 L594.3,175.8 L613.0,230.3 L631.7,230.9 L650.4,210.1 L669.1,208.4 L687.8,167.9 L706.5,94.3 L725.2,230.9 L743.9,231.4 L762.6,81.4 L781.3,228.1 L800.0,224.1 L800.0,232.0 L52.0,232.0Z" fill="#4e79a7" opacity="0.12"/>

  <!-- lines -->
  <polyline points="52.0,232.0 70.7,231.4 89.4,230.9 108.1,230.9 126.8,188.7 145.5,229.8 164.2,231.4 182.9,231.4 201.6,231.4 220.3,231.4 239.0,230.9 257.7,232.0 276.4,231.4 295.1,232.0 313.8,231.4 332.5,231.4 351.2,232.0 369.9,232.0 388.6,232.0 407.3,231.4 426.0,230.9 444.7,230.9 463.4,232.0 482.1,231.4 500.8,232.0 519.5,231.4 538.2,231.4 556.9,28.0 575.6,56.1 594.3,175.8 613.0,230.3 631.7,230.9 650.4,210.1 669.1,208.4 687.8,167.9 706.5,94.3 725.2,230.9 743.9,231.4 762.6,81.4 781.3,228.1 800.0,224.1"
            fill="none" stroke="#4e79a7"
            stroke-width="2" stroke-linejoin="round"/>
  <polyline points="52.0,232.0 70.7,231.4 89.4,230.9 108.1,231.4 126.8,211.8 145.5,230.3 164.2,231.4 182.9,231.4 201.6,231.4 220.3,231.4 239.0,230.9 257.7,232.0 276.4,231.4 295.1,232.0 313.8,231.4 332.5,231.4 351.2,232.0 369.9,232.0 388.6,232.0 407.3,231.4 426.0,230.9 444.7,230.9 463.4,232.0 482.1,231.4 500.8,232.0 519.5,231.4 538.2,231.4 556.9,180.9 575.6,193.8 594.3,212.9 613.0,230.3 631.7,231.4 650.4,225.8 669.1,226.4 687.8,215.7 706.5,203.3 725.2,230.9 743.9,231.4 762.6,202.2 781.3,228.6 800.0,229.8"
            fill="none" stroke="#f28e2b"
            stroke-width="2" stroke-linejoin="round"
            stroke-dasharray="5,3"/>

  <!-- dots -->
  <circle cx="52.0" cy="232.0" r="3" fill="#4e79a7"/><circle cx="70.7" cy="231.4" r="3" fill="#4e79a7"/><circle cx="89.4" cy="230.9" r="3" fill="#4e79a7"/><circle cx="108.1" cy="230.9" r="3" fill="#4e79a7"/><circle cx="126.8" cy="188.7" r="3" fill="#4e79a7"/><circle cx="145.5" cy="229.8" r="3" fill="#4e79a7"/><circle cx="164.2" cy="231.4" r="3" fill="#4e79a7"/><circle cx="182.9" cy="231.4" r="3" fill="#4e79a7"/><circle cx="201.6" cy="231.4" r="3" fill="#4e79a7"/><circle cx="220.3" cy="231.4" r="3" fill="#4e79a7"/><circle cx="239.0" cy="230.9" r="3" fill="#4e79a7"/><circle cx="257.7" cy="232.0" r="3" fill="#4e79a7"/><circle cx="276.4" cy="231.4" r="3" fill="#4e79a7"/><circle cx="295.1" cy="232.0" r="3" fill="#4e79a7"/><circle cx="313.8" cy="231.4" r="3" fill="#4e79a7"/><circle cx="332.5" cy="231.4" r="3" fill="#4e79a7"/><circle cx="351.2" cy="232.0" r="3" fill="#4e79a7"/><circle cx="369.9" cy="232.0" r="3" fill="#4e79a7"/><circle cx="388.6" cy="232.0" r="3" fill="#4e79a7"/><circle cx="407.3" cy="231.4" r="3" fill="#4e79a7"/><circle cx="426.0" cy="230.9" r="3" fill="#4e79a7"/><circle cx="444.7" cy="230.9" r="3" fill="#4e79a7"/><circle cx="463.4" cy="232.0" r="3" fill="#4e79a7"/><circle cx="482.1" cy="231.4" r="3" fill="#4e79a7"/><circle cx="500.8" cy="232.0" r="3" fill="#4e79a7"/><circle cx="519.5" cy="231.4" r="3" fill="#4e79a7"/><circle cx="538.2" cy="231.4" r="3" fill="#4e79a7"/><circle cx="556.9" cy="28.0" r="3" fill="#4e79a7"/><circle cx="575.6" cy="56.1" r="3" fill="#4e79a7"/><circle cx="594.3" cy="175.8" r="3" fill="#4e79a7"/><circle cx="613.0" cy="230.3" r="3" fill="#4e79a7"/><circle cx="631.7" cy="230.9" r="3" fill="#4e79a7"/><circle cx="650.4" cy="210.1" r="3" fill="#4e79a7"/><circle cx="669.1" cy="208.4" r="3" fill="#4e79a7"/><circle cx="687.8" cy="167.9" r="3" fill="#4e79a7"/><circle cx="706.5" cy="94.3" r="3" fill="#4e79a7"/><circle cx="725.2" cy="230.9" r="3" fill="#4e79a7"/><circle cx="743.9" cy="231.4" r="3" fill="#4e79a7"/><circle cx="762.6" cy="81.4" r="3" fill="#4e79a7"/><circle cx="781.3" cy="228.1" r="3" fill="#4e79a7"/><circle cx="800.0" cy="224.1" r="3" fill="#4e79a7"/>
  <circle cx="52.0" cy="232.0" r="3" fill="#f28e2b"/><circle cx="70.7" cy="231.4" r="3" fill="#f28e2b"/><circle cx="89.4" cy="230.9" r="3" fill="#f28e2b"/><circle cx="108.1" cy="231.4" r="3" fill="#f28e2b"/><circle cx="126.8" cy="211.8" r="3" fill="#f28e2b"/><circle cx="145.5" cy="230.3" r="3" fill="#f28e2b"/><circle cx="164.2" cy="231.4" r="3" fill="#f28e2b"/><circle cx="182.9" cy="231.4" r="3" fill="#f28e2b"/><circle cx="201.6" cy="231.4" r="3" fill="#f28e2b"/><circle cx="220.3" cy="231.4" r="3" fill="#f28e2b"/><circle cx="239.0" cy="230.9" r="3" fill="#f28e2b"/><circle cx="257.7" cy="232.0" r="3" fill="#f28e2b"/><circle cx="276.4" cy="231.4" r="3" fill="#f28e2b"/><circle cx="295.1" cy="232.0" r="3" fill="#f28e2b"/><circle cx="313.8" cy="231.4" r="3" fill="#f28e2b"/><circle cx="332.5" cy="231.4" r="3" fill="#f28e2b"/><circle cx="351.2" cy="232.0" r="3" fill="#f28e2b"/><circle cx="369.9" cy="232.0" r="3" fill="#f28e2b"/><circle cx="388.6" cy="232.0" r="3" fill="#f28e2b"/><circle cx="407.3" cy="231.4" r="3" fill="#f28e2b"/><circle cx="426.0" cy="230.9" r="3" fill="#f28e2b"/><circle cx="444.7" cy="230.9" r="3" fill="#f28e2b"/><circle cx="463.4" cy="232.0" r="3" fill="#f28e2b"/><circle cx="482.1" cy="231.4" r="3" fill="#f28e2b"/><circle cx="500.8" cy="232.0" r="3" fill="#f28e2b"/><circle cx="519.5" cy="231.4" r="3" fill="#f28e2b"/><circle cx="538.2" cy="231.4" r="3" fill="#f28e2b"/><circle cx="556.9" cy="180.9" r="3" fill="#f28e2b"/><circle cx="575.6" cy="193.8" r="3" fill="#f28e2b"/><circle cx="594.3" cy="212.9" r="3" fill="#f28e2b"/><circle cx="613.0" cy="230.3" r="3" fill="#f28e2b"/><circle cx="631.7" cy="231.4" r="3" fill="#f28e2b"/><circle cx="650.4" cy="225.8" r="3" fill="#f28e2b"/><circle cx="669.1" cy="226.4" r="3" fill="#f28e2b"/><circle cx="687.8" cy="215.7" r="3" fill="#f28e2b"/><circle cx="706.5" cy="203.3" r="3" fill="#f28e2b"/><circle cx="725.2" cy="230.9" r="3" fill="#f28e2b"/><circle cx="743.9" cy="231.4" r="3" fill="#f28e2b"/><circle cx="762.6" cy="202.2" r="3" fill="#f28e2b"/><circle cx="781.3" cy="228.6" r="3" fill="#f28e2b"/><circle cx="800.0" cy="229.8" r="3" fill="#f28e2b"/>

  <!-- axes -->
  <line x1="52" y1="28" x2="52" y2="232"
        stroke="#cccccc" stroke-width="1"/>
  <line x1="52" y1="232" x2="800" y2="232"
        stroke="#cccccc" stroke-width="1"/>

  <!-- y-axis labels -->
  <text x="47" y="236.0" text-anchor="end" font-size="10" fill="#57606a" font-family="ui-monospace, SFMono-Regular, 'SF Mono', Menlo, monospace">0</text><text x="47" y="196.7" text-anchor="end" font-size="10" fill="#57606a" font-family="ui-monospace, SFMono-Regular, 'SF Mono', Menlo, monospace">70</text><text x="47" y="157.3" text-anchor="end" font-size="10" fill="#57606a" font-family="ui-monospace, SFMono-Regular, 'SF Mono', Menlo, monospace">140</text><text x="47" y="118.0" text-anchor="end" font-size="10" fill="#57606a" font-family="ui-monospace, SFMono-Regular, 'SF Mono', Menlo, monospace">210</text><text x="47" y="78.6" text-anchor="end" font-size="10" fill="#57606a" font-family="ui-monospace, SFMono-Regular, 'SF Mono', Menlo, monospace">280</text><text x="47" y="39.3" text-anchor="end" font-size="10" fill="#57606a" font-family="ui-monospace, SFMono-Regular, 'SF Mono', Menlo, monospace">350</text><text x="47" y="-0.0" text-anchor="end" font-size="10" fill="#57606a" font-family="ui-monospace, SFMono-Regular, 'SF Mono', Menlo, monospace">420</text>

  <!-- x-axis labels -->
  <text x="52.0" y="248" text-anchor="middle" font-size="10" fill="#8c959f" font-family="ui-monospace, SFMono-Regular, 'SF Mono', Menlo, monospace">05-11</text><text x="706.5" y="248" text-anchor="middle" font-size="10" fill="#8c959f" font-family="ui-monospace, SFMono-Regular, 'SF Mono', Menlo, monospace">06-15</text><text x="145.5" y="248" text-anchor="middle" font-size="10" fill="#8c959f" font-family="ui-monospace, SFMono-Regular, 'SF Mono', Menlo, monospace">05-16</text><text x="800.0" y="248" text-anchor="middle" font-size="10" fill="#8c959f" font-family="ui-monospace, SFMono-Regular, 'SF Mono', Menlo, monospace">06-20</text><text x="239.0" y="248" text-anchor="middle" font-size="10" fill="#8c959f" font-family="ui-monospace, SFMono-Regular, 'SF Mono', Menlo, monospace">05-21</text><text x="332.5" y="248" text-anchor="middle" font-size="10" fill="#8c959f" font-family="ui-monospace, SFMono-Regular, 'SF Mono', Menlo, monospace">05-26</text><text x="426.0" y="248" text-anchor="middle" font-size="10" fill="#8c959f" font-family="ui-monospace, SFMono-Regular, 'SF Mono', Menlo, monospace">05-31</text><text x="519.5" y="248" text-anchor="middle" font-size="10" fill="#8c959f" font-family="ui-monospace, SFMono-Regular, 'SF Mono', Menlo, monospace">06-05</text><text x="613.0" y="248" text-anchor="middle" font-size="10" fill="#8c959f" font-family="ui-monospace, SFMono-Regular, 'SF Mono', Menlo, monospace">06-10</text>

  <!-- legend -->
  <rect x="60" y="262" width="16" height="3" fill="#4e79a7" rx="1"/><text x="80" y="268" font-size="11" fill="#57606a" font-family="-apple-system, BlinkMacSystemFont, 'Segoe UI', sans-serif">Total clones (1,616)</text><line x1="230" y1="264" x2="246" y2="264" stroke="#f28e2b" stroke-width="2" stroke-dasharray="5,3"/><text x="250" y="268" font-size="11" fill="#57606a" font-family="-apple-system, BlinkMacSystemFont, 'Segoe UI', sans-serif">Unique cloners</text>

</svg>