<svg xmlns="http://www.w3.org/2000/svg" viewBox="0 0 820 280" width="820" height="280">

  <!-- title -->
  <text x="52" y="18" font-size="13" font-weight="600"
        fill="#24292f" font-family="-apple-system, BlinkMacSystemFont, 'Segoe UI', sans-serif"
        >Clone traffic — ai-runner</text>
  <text x="800" y="18" font-size="10" fill="#8c959f"
        font-family="ui-monospace, SFMono-Regular, 'SF Mono', Menlo, monospace" text-anchor="end">2026-06-29</text>

  <!-- grid -->
  <line x1="52" y1="232.0" x2="800" y2="232.0" stroke="#e8e8e8" stroke-width="1"/><line x1="52" y1="191.2" x2="800" y2="191.2" stroke="#e8e8e8" stroke-width="1"/><line x1="52" y1="150.4" x2="800" y2="150.4" stroke="#e8e8e8" stroke-width="1"/><line x1="52" y1="109.6" x2="800" y2="109.6" stroke="#e8e8e8" stroke-width="1"/><line x1="52" y1="68.8" x2="800" y2="68.8" stroke="#e8e8e8" stroke-width="1"/><line x1="52" y1="28.0" x2="800" y2="28.0" stroke="#e8e8e8" stroke-width="1"/>

  <!-- area fill -->
  <path d="M52.0,232.0 L52.0,232.0 L67.9,201.4 L83.8,191.2 L99.7,58.6 L115.7,201.4 L131.6,221.8 L147.5,221.8 L163.4,232.0 L179.3,232.0 L195.2,221.8 L211.1,232.0 L227.1,232.0 L243.0,232.0 L258.9,232.0 L274.8,232.0 L290.7,232.0 L306.6,232.0 L322.6,221.8 L338.5,211.6 L354.4,232.0 L370.3,211.6 L386.2,211.6 L402.1,232.0 L418.0,232.0 L434.0,232.0 L449.9,211.6 L465.8,232.0 L481.7,221.8 L497.6,232.0 L513.5,191.2 L529.4,221.8 L545.4,232.0 L561.3,232.0 L577.2,232.0 L593.1,232.0 L609.0,211.6 L624.9,232.0 L640.9,232.0 L656.8,211.6 L672.7,221.8 L688.6,211.6 L704.5,191.2 L720.4,28.0 L736.3,232.0 L752.3,170.8 L768.2,211.6 L784.1,232.0 L800.0,221.8 L800.0,232.0 L52.0,232.0Z" fill="#4e79a7" opacity="0.12"/>

  <!-- lines -->
  <polyline points="52.0,232.0 67.9,201.4 83.8,191.2 99.7,58.6 115.7,201.4 131.6,221.8 147.5,221.8 163.4,232.0 179.3,232.0 195.2,221.8 211.1,232.0 227.1,232.0 243.0,232.0 258.9,232.0 274.8,232.0 290.7,232.0 306.6,232.0 322.6,221.8 338.5,211.6 354.4,232.0 370.3,211.6 386.2,211.6 402.1,232.0 418.0,232.0 434.0,232.0 449.9,211.6 465.8,232.0 481.7,221.8 497.6,232.0 513.5,191.2 529.4,221.8 545.4,232.0 561.3,232.0 577.2,232.0 593.1,232.0 609.0,211.6 624.9,232.0 640.9,232.0 656.8,211.6 672.7,221.8 688.6,211.6 704.5,191.2 720.4,28.0 736.3,232.0 752.3,170.8 768.2,211.6 784.1,232.0 800.0,221.8"
            fill="none" stroke="#4e79a7"
            stroke-width="2" stroke-linejoin="round"/>
  <polyline points="52.0,232.0 67.9,201.4 83.8,191.2 99.7,109.6 115.7,201.4 131.6,221.8 147.5,221.8 163.4,232.0 179.3,232.0 195.2,221.8 211.1,232.0 227.1,232.0 243.0,232.0 258.9,232.0 274.8,232.0 290.7,232.0 306.6,232.0 322.6,221.8 338.5,211.6 354.4,232.0 370.3,211.6 386.2,211.6 402.1,232.0 418.0,232.0 434.0,232.0 449.9,211.6 465.8,232.0 481.7,221.8 497.6,232.0 513.5,201.4 529.4,221.8 545.4,232.0 561.3,232.0 577.2,232.0 593.1,232.0 609.0,211.6 624.9,232.0 640.9,232.0 656.8,211.6 672.7,221.8 688.6,211.6 704.5,221.8 720.4,181.0 736.3,232.0 752.3,221.8 768.2,211.6 784.1,232.0 800.0,221.8"
            fill="none" stroke="#f28e2b"
            stroke-width="2" stroke-linejoin="round"
            stroke-dasharray="5,3"/>

  <!-- dots -->
  <circle cx="52.0" cy="232.0" r="3" fill="#4e79a7"/><circle cx="67.9" cy="201.4" r="3" fill="#4e79a7"/><circle cx="83.8" cy="191.2" r="3" fill="#4e79a7"/><circle cx="99.7" cy="58.6" r="3" fill="#4e79a7"/><circle cx="115.7" cy="201.4" r="3" fill="#4e79a7"/><circle cx="131.6" cy="221.8" r="3" fill="#4e79a7"/><circle cx="147.5" cy="221.8" r="3" fill="#4e79a7"/><circle cx="163.4" cy="232.0" r="3" fill="#4e79a7"/><circle cx="179.3" cy="232.0" r="3" fill="#4e79a7"/><circle cx="195.2" cy="221.8" r="3" fill="#4e79a7"/><circle cx="211.1" cy="232.0" r="3" fill="#4e79a7"/><circle cx="227.1" cy="232.0" r="3" fill="#4e79a7"/><circle cx="243.0" cy="232.0" r="3" fill="#4e79a7"/><circle cx="258.9" cy="232.0" r="3" fill="#4e79a7"/><circle cx="274.8" cy="232.0" r="3" fill="#4e79a7"/><circle cx="290.7" cy="232.0" r="3" fill="#4e79a7"/><circle cx="306.6" cy="232.0" r="3" fill="#4e79a7"/><circle cx="322.6" cy="221.8" r="3" fill="#4e79a7"/><circle cx="338.5" cy="211.6" r="3" fill="#4e79a7"/><circle cx="354.4" cy="232.0" r="3" fill="#4e79a7"/><circle cx="370.3" cy="211.6" r="3" fill="#4e79a7"/><circle cx="386.2" cy="211.6" r="3" fill="#4e79a7"/><circle cx="402.1" cy="232.0" r="3" fill="#4e79a7"/><circle cx="418.0" cy="232.0" r="3" fill="#4e79a7"/><circle cx="434.0" cy="232.0" r="3" fill="#4e79a7"/><circle cx="449.9" cy="211.6" r="3" fill="#4e79a7"/><circle cx="465.8" cy="232.0" r="3" fill="#4e79a7"/><circle cx="481.7" cy="221.8" r="3" fill="#4e79a7"/><circle cx="497.6" cy="232.0" r="3" fill="#4e79a7"/><circle cx="513.5" cy="191.2" r="3" fill="#4e79a7"/><circle cx="529.4" cy="221.8" r="3" fill="#4e79a7"/><circle cx="545.4" cy="232.0" r="3" fill="#4e79a7"/><circle cx="561.3" cy="232.0" r="3" fill="#4e79a7"/><circle cx="577.2" cy="232.0" r="3" fill="#4e79a7"/><circle cx="593.1" cy="232.0" r="3" fill="#4e79a7"/><circle cx="609.0" cy="211.6" r="3" fill="#4e79a7"/><circle cx="624.9" cy="232.0" r="3" fill="#4e79a7"/><circle cx="640.9" cy="232.0" r="3" fill="#4e79a7"/><circle cx="656.8" cy="211.6" r="3" fill="#4e79a7"/><circle cx="672.7" cy="221.8" r="3" fill="#4e79a7"/><circle cx="688.6" cy="211.6" r="3" fill="#4e79a7"/><circle cx="704.5" cy="191.2" r="3" fill="#4e79a7"/><circle cx="720.4" cy="28.0" r="3" fill="#4e79a7"/><circle cx="736.3" cy="232.0" r="3" fill="#4e79a7"/><circle cx="752.3" cy="170.8" r="3" fill="#4e79a7"/><circle cx="768.2" cy="211.6" r="3" fill="#4e79a7"/><circle cx="784.1" cy="232.0" r="3" fill="#4e79a7"/><circle cx="800.0" cy="221.8" r="3" fill="#4e79a7"/>
  <circle cx="52.0" cy="232.0" r="3" fill="#f28e2b"/><circle cx="67.9" cy="201.4" r="3" fill="#f28e2b"/><circle cx="83.8" cy="191.2" r="3" fill="#f28e2b"/><circle cx="99.7" cy="109.6" r="3" fill="#f28e2b"/><circle cx="115.7" cy="201.4" r="3" fill="#f28e2b"/><circle cx="131.6" cy="221.8" r="3" fill="#f28e2b"/><circle cx="147.5" cy="221.8" r="3" fill="#f28e2b"/><circle cx="163.4" cy="232.0" r="3" fill="#f28e2b"/><circle cx="179.3" cy="232.0" r="3" fill="#f28e2b"/><circle cx="195.2" cy="221.8" r="3" fill="#f28e2b"/><circle cx="211.1" cy="232.0" r="3" fill="#f28e2b"/><circle cx="227.1" cy="232.0" r="3" fill="#f28e2b"/><circle cx="243.0" cy="232.0" r="3" fill="#f28e2b"/><circle cx="258.9" cy="232.0" r="3" fill="#f28e2b"/><circle cx="274.8" cy="232.0" r="3" fill="#f28e2b"/><circle cx="290.7" cy="232.0" r="3" fill="#f28e2b"/><circle cx="306.6" cy="232.0" r="3" fill="#f28e2b"/><circle cx="322.6" cy="221.8" r="3" fill="#f28e2b"/><circle cx="338.5" cy="211.6" r="3" fill="#f28e2b"/><circle cx="354.4" cy="232.0" r="3" fill="#f28e2b"/><circle cx="370.3" cy="211.6" r="3" fill="#f28e2b"/><circle cx="386.2" cy="211.6" r="3" fill="#f28e2b"/><circle cx="402.1" cy="232.0" r="3" fill="#f28e2b"/><circle cx="418.0" cy="232.0" r="3" fill="#f28e2b"/><circle cx="434.0" cy="232.0" r="3" fill="#f28e2b"/><circle cx="449.9" cy="211.6" r="3" fill="#f28e2b"/><circle cx="465.8" cy="232.0" r="3" fill="#f28e2b"/><circle cx="481.7" cy="221.8" r="3" fill="#f28e2b"/><circle cx="497.6" cy="232.0" r="3" fill="#f28e2b"/><circle cx="513.5" cy="201.4" r="3" fill="#f28e2b"/><circle cx="529.4" cy="221.8" r="3" fill="#f28e2b"/><circle cx="545.4" cy="232.0" r="3" fill="#f28e2b"/><circle cx="561.3" cy="232.0" r="3" fill="#f28e2b"/><circle cx="577.2" cy="232.0" r="3" fill="#f28e2b"/><circle cx="593.1" cy="232.0" r="3" fill="#f28e2b"/><circle cx="609.0" cy="211.6" r="3" fill="#f28e2b"/><circle cx="624.9" cy="232.0" r="3" fill="#f28e2b"/><circle cx="640.9" cy="232.0" r="3" fill="#f28e2b"/><circle cx="656.8" cy="211.6" r="3" fill="#f28e2b"/><circle cx="672.7" cy="221.8" r="3" fill="#f28e2b"/><circle cx="688.6" cy="211.6" r="3" fill="#f28e2b"/><circle cx="704.5" cy="221.8" r="3" fill="#f28e2b"/><circle cx="720.4" cy="181.0" r="3" fill="#f28e2b"/><circle cx="736.3" cy="232.0" r="3" fill="#f28e2b"/><circle cx="752.3" cy="221.8" r="3" fill="#f28e2b"/><circle cx="768.2" cy="211.6" r="3" fill="#f28e2b"/><circle cx="784.1" cy="232.0" r="3" fill="#f28e2b"/><circle cx="800.0" cy="221.8" r="3" fill="#f28e2b"/>

  <!-- axes -->
  <line x1="52" y1="28" x2="52" y2="232"
        stroke="#cccccc" stroke-width="1"/>
  <line x1="52" y1="232" x2="800" y2="232"
        stroke="#cccccc" stroke-width="1"/>

  <!-- y-axis labels -->
  <text x="47" y="236.0" text-anchor="end" font-size="10" fill="#57606a" font-family="ui-monospace, SFMono-Regular, 'SF Mono', Menlo, monospace">0</text><text x="47" y="195.2" text-anchor="end" font-size="10" fill="#57606a" font-family="ui-monospace, SFMono-Regular, 'SF Mono', Menlo, monospace">4</text><text x="47" y="154.4" text-anchor="end" font-size="10" fill="#57606a" font-family="ui-monospace, SFMono-Regular, 'SF Mono', Menlo, monospace">8</text><text x="47" y="113.6" text-anchor="end" font-size="10" fill="#57606a" font-family="ui-monospace, SFMono-Regular, 'SF Mono', Menlo, monospace">12</text><text x="47" y="72.8" text-anchor="end" font-size="10" fill="#57606a" font-family="ui-monospace, SFMono-Regular, 'SF Mono', Menlo, monospace">16</text><text x="47" y="32.0" text-anchor="end" font-size="10" fill="#57606a" font-family="ui-monospace, SFMono-Regular, 'SF Mono', Menlo, monospace">20</text>

  <!-- x-axis labels -->
  <text x="52.0" y="248" text-anchor="middle" font-size="10" fill="#8c959f" font-family="ui-monospace, SFMono-Regular, 'SF Mono', Menlo, monospace">05-11</text><text x="624.9" y="248" text-anchor="middle" font-size="10" fill="#8c959f" font-family="ui-monospace, SFMono-Regular, 'SF Mono', Menlo, monospace">06-16</text><text x="147.5" y="248" text-anchor="middle" font-size="10" fill="#8c959f" font-family="ui-monospace, SFMono-Regular, 'SF Mono', Menlo, monospace">05-17</text><text x="720.4" y="248" text-anchor="middle" font-size="10" fill="#8c959f" font-family="ui-monospace, SFMono-Regular, 'SF Mono', Menlo, monospace">06-22</text><text x="243.0" y="248" text-anchor="middle" font-size="10" fill="#8c959f" font-family="ui-monospace, SFMono-Regular, 'SF Mono', Menlo, monospace">05-23</text><text x="800.0" y="248" text-anchor="middle" font-size="10" fill="#8c959f" font-family="ui-monospace, SFMono-Regular, 'SF Mono', Menlo, monospace">06-27</text><text x="338.5" y="248" text-anchor="middle" font-size="10" fill="#8c959f" font-family="ui-monospace, SFMono-Regular, 'SF Mono', Menlo, monospace">05-29</text><text x="434.0" y="248" text-anchor="middle" font-size="10" fill="#8c959f" font-family="ui-monospace, SFMono-Regular, 'SF Mono', Menlo, monospace">06-04</text><text x="529.4" y="248" text-anchor="middle" font-size="10" fill="#8c959f" font-family="ui-monospace, SFMono-Regular, 'SF Mono', Menlo, monospace">06-10</text>

  <!-- legend -->
  <rect x="60" y="262" width="16" height="3" fill="#4e79a7" rx="1"/><text x="80" y="268" font-size="11" fill="#57606a" font-family="-apple-system, BlinkMacSystemFont, 'Segoe UI', sans-serif">Total clones (85)</text><line x1="230" y1="264" x2="246" y2="264" stroke="#f28e2b" stroke-width="2" stroke-dasharray="5,3"/><text x="250" y="268" font-size="11" fill="#57606a" font-family="-apple-system, BlinkMacSystemFont, 'Segoe UI', sans-serif">Unique cloners</text>

</svg>