<svg xmlns="http://www.w3.org/2000/svg" viewBox="0 0 820 280" width="820" height="280">

  <!-- title -->
  <text x="52" y="18" font-size="13" font-weight="600"
        fill="#24292f" font-family="-apple-system, BlinkMacSystemFont, 'Segoe UI', sans-serif"
        >Clone traffic — ai-runner</text>
  <text x="800" y="18" font-size="10" fill="#8c959f"
        font-family="ui-monospace, SFMono-Regular, 'SF Mono', Menlo, monospace" text-anchor="end">2026-06-21</text>

  <!-- grid -->
  <line x1="52" y1="232.0" x2="800" y2="232.0" stroke="#e8e8e8" stroke-width="1"/><line x1="52" y1="196.0" x2="800" y2="196.0" stroke="#e8e8e8" stroke-width="1"/><line x1="52" y1="160.0" x2="800" y2="160.0" stroke="#e8e8e8" stroke-width="1"/><line x1="52" y1="124.0" x2="800" y2="124.0" stroke="#e8e8e8" stroke-width="1"/><line x1="52" y1="88.0" x2="800" y2="88.0" stroke="#e8e8e8" stroke-width="1"/><line x1="52" y1="52.0" x2="800" y2="52.0" stroke="#e8e8e8" stroke-width="1"/><line x1="52" y1="16.0" x2="800" y2="16.0" stroke="#e8e8e8" stroke-width="1"/>

  <!-- area fill -->
  <path d="M52.0,232.0 L52.0,232.0 L71.2,196.0 L90.4,184.0 L109.5,28.0 L128.7,196.0 L147.9,220.0 L167.1,220.0 L186.3,232.0 L205.4,232.0 L224.6,220.0 L243.8,232.0 L263.0,232.0 L282.2,232.0 L301.3,232.0 L320.5,232.0 L339.7,232.0 L358.9,232.0 L378.1,220.0 L397.2,208.0 L416.4,232.0 L435.6,208.0 L454.8,208.0 L473.9,232.0 L493.1,232.0 L512.3,232.0 L531.5,208.0 L550.7,232.0 L569.8,220.0 L589.0,232.0 L608.2,184.0 L627.4,220.0 L646.6,232.0 L665.7,232.0 L684.9,232.0 L704.1,232.0 L723.3,208.0 L742.5,232.0 L761.6,232.0 L780.8,208.0 L800.0,220.0 L800.0,232.0 L52.0,232.0Z" fill="#4e79a7" opacity="0.12"/>

  <!-- lines -->
  <polyline points="52.0,232.0 71.2,196.0 90.4,184.0 109.5,28.0 128.7,196.0 147.9,220.0 167.1,220.0 186.3,232.0 205.4,232.0 224.6,220.0 243.8,232.0 263.0,232.0 282.2,232.0 301.3,232.0 320.5,232.0 339.7,232.0 358.9,232.0 378.1,220.0 397.2,208.0 416.4,232.0 435.6,208.0 454.8,208.0 473.9,232.0 493.1,232.0 512.3,232.0 531.5,208.0 550.7,232.0 569.8,220.0 589.0,232.0 608.2,184.0 627.4,220.0 646.6,232.0 665.7,232.0 684.9,232.0 704.1,232.0 723.3,208.0 742.5,232.0 761.6,232.0 780.8,208.0 800.0,220.0"
            fill="none" stroke="#4e79a7"
            stroke-width="2" stroke-linejoin="round"/>
  <polyline points="52.0,232.0 71.2,196.0 90.4,184.0 109.5,88.0 128.7,196.0 147.9,220.0 167.1,220.0 186.3,232.0 205.4,232.0 224.6,220.0 243.8,232.0 263.0,232.0 282.2,232.0 301.3,232.0 320.5,232.0 339.7,232.0 358.9,232.0 378.1,220.0 397.2,208.0 416.4,232.0 435.6,208.0 454.8,208.0 473.9,232.0 493.1,232.0 512.3,232.0 531.5,208.0 550.7,232.0 569.8,220.0 589.0,232.0 608.2,196.0 627.4,220.0 646.6,232.0 665.7,232.0 684.9,232.0 704.1,232.0 723.3,208.0 742.5,232.0 761.6,232.0 780.8,208.0 800.0,220.0"
            fill="none" stroke="#f28e2b"
            stroke-width="2" stroke-linejoin="round"
            stroke-dasharray="5,3"/>

  <!-- dots -->
  <circle cx="52.0" cy="232.0" r="3" fill="#4e79a7"/><circle cx="71.2" cy="196.0" r="3" fill="#4e79a7"/><circle cx="90.4" cy="184.0" r="3" fill="#4e79a7"/><circle cx="109.5" cy="28.0" r="3" fill="#4e79a7"/><circle cx="128.7" cy="196.0" r="3" fill="#4e79a7"/><circle cx="147.9" cy="220.0" r="3" fill="#4e79a7"/><circle cx="167.1" cy="220.0" r="3" fill="#4e79a7"/><circle cx="186.3" cy="232.0" r="3" fill="#4e79a7"/><circle cx="205.4" cy="232.0" r="3" fill="#4e79a7"/><circle cx="224.6" cy="220.0" r="3" fill="#4e79a7"/><circle cx="243.8" cy="232.0" r="3" fill="#4e79a7"/><circle cx="263.0" cy="232.0" r="3" fill="#4e79a7"/><circle cx="282.2" cy="232.0" r="3" fill="#4e79a7"/><circle cx="301.3" cy="232.0" r="3" fill="#4e79a7"/><circle cx="320.5" cy="232.0" r="3" fill="#4e79a7"/><circle cx="339.7" cy="232.0" r="3" fill="#4e79a7"/><circle cx="358.9" cy="232.0" r="3" fill="#4e79a7"/><circle cx="378.1" cy="220.0" r="3" fill="#4e79a7"/><circle cx="397.2" cy="208.0" r="3" fill="#4e79a7"/><circle cx="416.4" cy="232.0" r="3" fill="#4e79a7"/><circle cx="435.6" cy="208.0" r="3" fill="#4e79a7"/><circle cx="454.8" cy="208.0" r="3" fill="#4e79a7"/><circle cx="473.9" cy="232.0" r="3" fill="#4e79a7"/><circle cx="493.1" cy="232.0" r="3" fill="#4e79a7"/><circle cx="512.3" cy="232.0" r="3" fill="#4e79a7"/><circle cx="531.5" cy="208.0" r="3" fill="#4e79a7"/><circle cx="550.7" cy="232.0" r="3" fill="#4e79a7"/><circle cx="569.8" cy="220.0" r="3" fill="#4e79a7"/><circle cx="589.0" cy="232.0" r="3" fill="#4e79a7"/><circle cx="608.2" cy="184.0" r="3" fill="#4e79a7"/><circle cx="627.4" cy="220.0" r="3" fill="#4e79a7"/><circle cx="646.6" cy="232.0" r="3" fill="#4e79a7"/><circle cx="665.7" cy="232.0" r="3" fill="#4e79a7"/><circle cx="684.9" cy="232.0" r="3" fill="#4e79a7"/><circle cx="704.1" cy="232.0" r="3" fill="#4e79a7"/><circle cx="723.3" cy="208.0" r="3" fill="#4e79a7"/><circle cx="742.5" cy="232.0" r="3" fill="#4e79a7"/><circle cx="761.6" cy="232.0" r="3" fill="#4e79a7"/><circle cx="780.8" cy="208.0" r="3" fill="#4e79a7"/><circle cx="800.0" cy="220.0" r="3" fill="#4e79a7"/>
  <circle cx="52.0" cy="232.0" r="3" fill="#f28e2b"/><circle cx="71.2" cy="196.0" r="3" fill="#f28e2b"/><circle cx="90.4" cy="184.0" r="3" fill="#f28e2b"/><circle cx="109.5" cy="88.0" r="3" fill="#f28e2b"/><circle cx="128.7" cy="196.0" r="3" fill="#f28e2b"/><circle cx="147.9" cy="220.0" r="3" fill="#f28e2b"/><circle cx="167.1" cy="220.0" r="3" fill="#f28e2b"/><circle cx="186.3" cy="232.0" r="3" fill="#f28e2b"/><circle cx="205.4" cy="232.0" r="3" fill="#f28e2b"/><circle cx="224.6" cy="220.0" r="3" fill="#f28e2b"/><circle cx="243.8" cy="232.0" r="3" fill="#f28e2b"/><circle cx="263.0" cy="232.0" r="3" fill="#f28e2b"/><circle cx="282.2" cy="232.0" r="3" fill="#f28e2b"/><circle cx="301.3" cy="232.0" r="3" fill="#f28e2b"/><circle cx="320.5" cy="232.0" r="3" fill="#f28e2b"/><circle cx="339.7" cy="232.0" r="3" fill="#f28e2b"/><circle cx="358.9" cy="232.0" r="3" fill="#f28e2b"/><circle cx="378.1" cy="220.0" r="3" fill="#f28e2b"/><circle cx="397.2" cy="208.0" r="3" fill="#f28e2b"/><circle cx="416.4" cy="232.0" r="3" fill="#f28e2b"/><circle cx="435.6" cy="208.0" r="3" fill="#f28e2b"/><circle cx="454.8" cy="208.0" r="3" fill="#f28e2b"/><circle cx="473.9" cy="232.0" r="3" fill="#f28e2b"/><circle cx="493.1" cy="232.0" r="3" fill="#f28e2b"/><circle cx="512.3" cy="232.0" r="3" fill="#f28e2b"/><circle cx="531.5" cy="208.0" r="3" fill="#f28e2b"/><circle cx="550.7" cy="232.0" r="3" fill="#f28e2b"/><circle cx="569.8" cy="220.0" r="3" fill="#f28e2b"/><circle cx="589.0" cy="232.0" r="3" fill="#f28e2b"/><circle cx="608.2" cy="196.0" r="3" fill="#f28e2b"/><circle cx="627.4" cy="220.0" r="3" fill="#f28e2b"/><circle cx="646.6" cy="232.0" r="3" fill="#f28e2b"/><circle cx="665.7" cy="232.0" r="3" fill="#f28e2b"/><circle cx="684.9" cy="232.0" r="3" fill="#f28e2b"/><circle cx="704.1" cy="232.0" r="3" fill="#f28e2b"/><circle cx="723.3" cy="208.0" r="3" fill="#f28e2b"/><circle cx="742.5" cy="232.0" r="3" fill="#f28e2b"/><circle cx="761.6" cy="232.0" r="3" fill="#f28e2b"/><circle cx="780.8" cy="208.0" r="3" fill="#f28e2b"/><circle cx="800.0" cy="220.0" r="3" fill="#f28e2b"/>

  <!-- axes -->
  <line x1="52" y1="28" x2="52" y2="232"
        stroke="#cccccc" stroke-width="1"/>
  <line x1="52" y1="232" x2="800" y2="232"
        stroke="#cccccc" stroke-width="1"/>

  <!-- y-axis labels -->
  <text x="47" y="236.0" text-anchor="end" font-size="10" fill="#57606a" font-family="ui-monospace, SFMono-Regular, 'SF Mono', Menlo, monospace">0</text><text x="47" y="200.0" text-anchor="end" font-size="10" fill="#57606a" font-family="ui-monospace, SFMono-Regular, 'SF Mono', Menlo, monospace">3</text><text x="47" y="164.0" text-anchor="end" font-size="10" fill="#57606a" font-family="ui-monospace, SFMono-Regular, 'SF Mono', Menlo, monospace">6</text><text x="47" y="128.0" text-anchor="end" font-size="10" fill="#57606a" font-family="ui-monospace, SFMono-Regular, 'SF Mono', Menlo, monospace">9</text><text x="47" y="92.0" text-anchor="end" font-size="10" fill="#57606a" font-family="ui-monospace, SFMono-Regular, 'SF Mono', Menlo, monospace">12</text><text x="47" y="56.0" text-anchor="end" font-size="10" fill="#57606a" font-family="ui-monospace, SFMono-Regular, 'SF Mono', Menlo, monospace">15</text><text x="47" y="20.0" text-anchor="end" font-size="10" fill="#57606a" font-family="ui-monospace, SFMono-Regular, 'SF Mono', Menlo, monospace">18</text>

  <!-- x-axis labels -->
  <text x="52.0" y="248" text-anchor="middle" font-size="10" fill="#8c959f" font-family="ui-monospace, SFMono-Regular, 'SF Mono', Menlo, monospace">05-11</text><text x="723.3" y="248" text-anchor="middle" font-size="10" fill="#8c959f" font-family="ui-monospace, SFMono-Regular, 'SF Mono', Menlo, monospace">06-15</text><text x="147.9" y="248" text-anchor="middle" font-size="10" fill="#8c959f" font-family="ui-monospace, SFMono-Regular, 'SF Mono', Menlo, monospace">05-16</text><text x="800.0" y="248" text-anchor="middle" font-size="10" fill="#8c959f" font-family="ui-monospace, SFMono-Regular, 'SF Mono', Menlo, monospace">06-19</text><text x="243.8" y="248" text-anchor="middle" font-size="10" fill="#8c959f" font-family="ui-monospace, SFMono-Regular, 'SF Mono', Menlo, monospace">05-21</text><text x="339.7" y="248" text-anchor="middle" font-size="10" fill="#8c959f" font-family="ui-monospace, SFMono-Regular, 'SF Mono', Menlo, monospace">05-26</text><text x="435.6" y="248" text-anchor="middle" font-size="10" fill="#8c959f" font-family="ui-monospace, SFMono-Regular, 'SF Mono', Menlo, monospace">05-31</text><text x="531.5" y="248" text-anchor="middle" font-size="10" fill="#8c959f" font-family="ui-monospace, SFMono-Regular, 'SF Mono', Menlo, monospace">06-05</text><text x="627.4" y="248" text-anchor="middle" font-size="10" fill="#8c959f" font-family="ui-monospace, SFMono-Regular, 'SF Mono', Menlo, monospace">06-10</text>

  <!-- legend -->
  <rect x="60" y="262" width="16" height="3" fill="#4e79a7" rx="1"/><text x="80" y="268" font-size="11" fill="#57606a" font-family="-apple-system, BlinkMacSystemFont, 'Segoe UI', sans-serif">Total clones (50)</text><line x1="230" y1="264" x2="246" y2="264" stroke="#f28e2b" stroke-width="2" stroke-dasharray="5,3"/><text x="250" y="268" font-size="11" fill="#57606a" font-family="-apple-system, BlinkMacSystemFont, 'Segoe UI', sans-serif">Unique cloners</text>

</svg>