<svg xmlns="http://www.w3.org/2000/svg" viewBox="0 0 820 280" width="820" height="280">

  <!-- title -->
  <text x="52" y="18" font-size="13" font-weight="600"
        fill="#24292f" font-family="-apple-system, BlinkMacSystemFont, 'Segoe UI', sans-serif"
        >Clone traffic — ai-runner</text>
  <text x="800" y="18" font-size="10" fill="#8c959f"
        font-family="ui-monospace, SFMono-Regular, 'SF Mono', Menlo, monospace" text-anchor="end">2026-06-23</text>

  <!-- grid -->
  <line x1="52" y1="232.0" x2="800" y2="232.0" stroke="#e8e8e8" stroke-width="1"/><line x1="52" y1="196.0" x2="800" y2="196.0" stroke="#e8e8e8" stroke-width="1"/><line x1="52" y1="160.0" x2="800" y2="160.0" stroke="#e8e8e8" stroke-width="1"/><line x1="52" y1="124.0" x2="800" y2="124.0" stroke="#e8e8e8" stroke-width="1"/><line x1="52" y1="88.0" x2="800" y2="88.0" stroke="#e8e8e8" stroke-width="1"/><line x1="52" y1="52.0" x2="800" y2="52.0" stroke="#e8e8e8" stroke-width="1"/><line x1="52" y1="16.0" x2="800" y2="16.0" stroke="#e8e8e8" stroke-width="1"/>

  <!-- area fill -->
  <path d="M52.0,232.0 L52.0,232.0 L70.2,196.0 L88.5,184.0 L106.7,28.0 L125.0,196.0 L143.2,220.0 L161.5,220.0 L179.7,232.0 L198.0,232.0 L216.2,220.0 L234.4,232.0 L252.7,232.0 L270.9,232.0 L289.2,232.0 L307.4,232.0 L325.7,232.0 L343.9,232.0 L362.1,220.0 L380.4,208.0 L398.6,232.0 L416.9,208.0 L435.1,208.0 L453.4,232.0 L471.6,232.0 L489.9,232.0 L508.1,208.0 L526.3,232.0 L544.6,220.0 L562.8,232.0 L581.1,184.0 L599.3,220.0 L617.6,232.0 L635.8,232.0 L654.0,232.0 L672.3,232.0 L690.5,208.0 L708.8,232.0 L727.0,232.0 L745.3,208.0 L763.5,220.0 L781.8,208.0 L800.0,184.0 L800.0,232.0 L52.0,232.0Z" fill="#4e79a7" opacity="0.12"/>

  <!-- lines -->
  <polyline points="52.0,232.0 70.2,196.0 88.5,184.0 106.7,28.0 125.0,196.0 143.2,220.0 161.5,220.0 179.7,232.0 198.0,232.0 216.2,220.0 234.4,232.0 252.7,232.0 270.9,232.0 289.2,232.0 307.4,232.0 325.7,232.0 343.9,232.0 362.1,220.0 380.4,208.0 398.6,232.0 416.9,208.0 435.1,208.0 453.4,232.0 471.6,232.0 489.9,232.0 508.1,208.0 526.3,232.0 544.6,220.0 562.8,232.0 581.1,184.0 599.3,220.0 617.6,232.0 635.8,232.0 654.0,232.0 672.3,232.0 690.5,208.0 708.8,232.0 727.0,232.0 745.3,208.0 763.5,220.0 781.8,208.0 800.0,184.0"
            fill="none" stroke="#4e79a7"
            stroke-width="2" stroke-linejoin="round"/>
  <polyline points="52.0,232.0 70.2,196.0 88.5,184.0 106.7,88.0 125.0,196.0 143.2,220.0 161.5,220.0 179.7,232.0 198.0,232.0 216.2,220.0 234.4,232.0 252.7,232.0 270.9,232.0 289.2,232.0 307.4,232.0 325.7,232.0 343.9,232.0 362.1,220.0 380.4,208.0 398.6,232.0 416.9,208.0 435.1,208.0 453.4,232.0 471.6,232.0 489.9,232.0 508.1,208.0 526.3,232.0 544.6,220.0 562.8,232.0 581.1,196.0 599.3,220.0 617.6,232.0 635.8,232.0 654.0,232.0 672.3,232.0 690.5,208.0 708.8,232.0 727.0,232.0 745.3,208.0 763.5,220.0 781.8,208.0 800.0,220.0"
            fill="none" stroke="#f28e2b"
            stroke-width="2" stroke-linejoin="round"
            stroke-dasharray="5,3"/>

  <!-- dots -->
  <circle cx="52.0" cy="232.0" r="3" fill="#4e79a7"/><circle cx="70.2" cy="196.0" r="3" fill="#4e79a7"/><circle cx="88.5" cy="184.0" r="3" fill="#4e79a7"/><circle cx="106.7" cy="28.0" r="3" fill="#4e79a7"/><circle cx="125.0" cy="196.0" r="3" fill="#4e79a7"/><circle cx="143.2" cy="220.0" r="3" fill="#4e79a7"/><circle cx="161.5" cy="220.0" r="3" fill="#4e79a7"/><circle cx="179.7" cy="232.0" r="3" fill="#4e79a7"/><circle cx="198.0" cy="232.0" r="3" fill="#4e79a7"/><circle cx="216.2" cy="220.0" r="3" fill="#4e79a7"/><circle cx="234.4" cy="232.0" r="3" fill="#4e79a7"/><circle cx="252.7" cy="232.0" r="3" fill="#4e79a7"/><circle cx="270.9" cy="232.0" r="3" fill="#4e79a7"/><circle cx="289.2" cy="232.0" r="3" fill="#4e79a7"/><circle cx="307.4" cy="232.0" r="3" fill="#4e79a7"/><circle cx="325.7" cy="232.0" r="3" fill="#4e79a7"/><circle cx="343.9" cy="232.0" r="3" fill="#4e79a7"/><circle cx="362.1" cy="220.0" r="3" fill="#4e79a7"/><circle cx="380.4" cy="208.0" r="3" fill="#4e79a7"/><circle cx="398.6" cy="232.0" r="3" fill="#4e79a7"/><circle cx="416.9" cy="208.0" r="3" fill="#4e79a7"/><circle cx="435.1" cy="208.0" r="3" fill="#4e79a7"/><circle cx="453.4" cy="232.0" r="3" fill="#4e79a7"/><circle cx="471.6" cy="232.0" r="3" fill="#4e79a7"/><circle cx="489.9" cy="232.0" r="3" fill="#4e79a7"/><circle cx="508.1" cy="208.0" r="3" fill="#4e79a7"/><circle cx="526.3" cy="232.0" r="3" fill="#4e79a7"/><circle cx="544.6" cy="220.0" r="3" fill="#4e79a7"/><circle cx="562.8" cy="232.0" r="3" fill="#4e79a7"/><circle cx="581.1" cy="184.0" r="3" fill="#4e79a7"/><circle cx="599.3" cy="220.0" r="3" fill="#4e79a7"/><circle cx="617.6" cy="232.0" r="3" fill="#4e79a7"/><circle cx="635.8" cy="232.0" r="3" fill="#4e79a7"/><circle cx="654.0" cy="232.0" r="3" fill="#4e79a7"/><circle cx="672.3" cy="232.0" r="3" fill="#4e79a7"/><circle cx="690.5" cy="208.0" r="3" fill="#4e79a7"/><circle cx="708.8" cy="232.0" r="3" fill="#4e79a7"/><circle cx="727.0" cy="232.0" r="3" fill="#4e79a7"/><circle cx="745.3" cy="208.0" r="3" fill="#4e79a7"/><circle cx="763.5" cy="220.0" r="3" fill="#4e79a7"/><circle cx="781.8" cy="208.0" r="3" fill="#4e79a7"/><circle cx="800.0" cy="184.0" r="3" fill="#4e79a7"/>
  <circle cx="52.0" cy="232.0" r="3" fill="#f28e2b"/><circle cx="70.2" cy="196.0" r="3" fill="#f28e2b"/><circle cx="88.5" cy="184.0" r="3" fill="#f28e2b"/><circle cx="106.7" cy="88.0" r="3" fill="#f28e2b"/><circle cx="125.0" cy="196.0" r="3" fill="#f28e2b"/><circle cx="143.2" cy="220.0" r="3" fill="#f28e2b"/><circle cx="161.5" cy="220.0" r="3" fill="#f28e2b"/><circle cx="179.7" cy="232.0" r="3" fill="#f28e2b"/><circle cx="198.0" cy="232.0" r="3" fill="#f28e2b"/><circle cx="216.2" cy="220.0" r="3" fill="#f28e2b"/><circle cx="234.4" cy="232.0" r="3" fill="#f28e2b"/><circle cx="252.7" cy="232.0" r="3" fill="#f28e2b"/><circle cx="270.9" cy="232.0" r="3" fill="#f28e2b"/><circle cx="289.2" cy="232.0" r="3" fill="#f28e2b"/><circle cx="307.4" cy="232.0" r="3" fill="#f28e2b"/><circle cx="325.7" cy="232.0" r="3" fill="#f28e2b"/><circle cx="343.9" cy="232.0" r="3" fill="#f28e2b"/><circle cx="362.1" cy="220.0" r="3" fill="#f28e2b"/><circle cx="380.4" cy="208.0" r="3" fill="#f28e2b"/><circle cx="398.6" cy="232.0" r="3" fill="#f28e2b"/><circle cx="416.9" cy="208.0" r="3" fill="#f28e2b"/><circle cx="435.1" cy="208.0" r="3" fill="#f28e2b"/><circle cx="453.4" cy="232.0" r="3" fill="#f28e2b"/><circle cx="471.6" cy="232.0" r="3" fill="#f28e2b"/><circle cx="489.9" cy="232.0" r="3" fill="#f28e2b"/><circle cx="508.1" cy="208.0" r="3" fill="#f28e2b"/><circle cx="526.3" cy="232.0" r="3" fill="#f28e2b"/><circle cx="544.6" cy="220.0" r="3" fill="#f28e2b"/><circle cx="562.8" cy="232.0" r="3" fill="#f28e2b"/><circle cx="581.1" cy="196.0" r="3" fill="#f28e2b"/><circle cx="599.3" cy="220.0" r="3" fill="#f28e2b"/><circle cx="617.6" cy="232.0" r="3" fill="#f28e2b"/><circle cx="635.8" cy="232.0" r="3" fill="#f28e2b"/><circle cx="654.0" cy="232.0" r="3" fill="#f28e2b"/><circle cx="672.3" cy="232.0" r="3" fill="#f28e2b"/><circle cx="690.5" cy="208.0" r="3" fill="#f28e2b"/><circle cx="708.8" cy="232.0" r="3" fill="#f28e2b"/><circle cx="727.0" cy="232.0" r="3" fill="#f28e2b"/><circle cx="745.3" cy="208.0" r="3" fill="#f28e2b"/><circle cx="763.5" cy="220.0" r="3" fill="#f28e2b"/><circle cx="781.8" cy="208.0" r="3" fill="#f28e2b"/><circle cx="800.0" cy="220.0" r="3" fill="#f28e2b"/>

  <!-- axes -->
  <line x1="52" y1="28" x2="52" y2="232"
        stroke="#cccccc" stroke-width="1"/>
  <line x1="52" y1="232" x2="800" y2="232"
        stroke="#cccccc" stroke-width="1"/>

  <!-- y-axis labels -->
  <text x="47" y="236.0" text-anchor="end" font-size="10" fill="#57606a" font-family="ui-monospace, SFMono-Regular, 'SF Mono', Menlo, monospace">0</text><text x="47" y="200.0" text-anchor="end" font-size="10" fill="#57606a" font-family="ui-monospace, SFMono-Regular, 'SF Mono', Menlo, monospace">3</text><text x="47" y="164.0" text-anchor="end" font-size="10" fill="#57606a" font-family="ui-monospace, SFMono-Regular, 'SF Mono', Menlo, monospace">6</text><text x="47" y="128.0" text-anchor="end" font-size="10" fill="#57606a" font-family="ui-monospace, SFMono-Regular, 'SF Mono', Menlo, monospace">9</text><text x="47" y="92.0" text-anchor="end" font-size="10" fill="#57606a" font-family="ui-monospace, SFMono-Regular, 'SF Mono', Menlo, monospace">12</text><text x="47" y="56.0" text-anchor="end" font-size="10" fill="#57606a" font-family="ui-monospace, SFMono-Regular, 'SF Mono', Menlo, monospace">15</text><text x="47" y="20.0" text-anchor="end" font-size="10" fill="#57606a" font-family="ui-monospace, SFMono-Regular, 'SF Mono', Menlo, monospace">18</text>

  <!-- x-axis labels -->
  <text x="52.0" y="248" text-anchor="middle" font-size="10" fill="#8c959f" font-family="ui-monospace, SFMono-Regular, 'SF Mono', Menlo, monospace">05-11</text><text x="690.5" y="248" text-anchor="middle" font-size="10" fill="#8c959f" font-family="ui-monospace, SFMono-Regular, 'SF Mono', Menlo, monospace">06-15</text><text x="143.2" y="248" text-anchor="middle" font-size="10" fill="#8c959f" font-family="ui-monospace, SFMono-Regular, 'SF Mono', Menlo, monospace">05-16</text><text x="781.8" y="248" text-anchor="middle" font-size="10" fill="#8c959f" font-family="ui-monospace, SFMono-Regular, 'SF Mono', Menlo, monospace">06-20</text><text x="800.0" y="248" text-anchor="middle" font-size="10" fill="#8c959f" font-family="ui-monospace, SFMono-Regular, 'SF Mono', Menlo, monospace">06-21</text><text x="234.4" y="248" text-anchor="middle" font-size="10" fill="#8c959f" font-family="ui-monospace, SFMono-Regular, 'SF Mono', Menlo, monospace">05-21</text><text x="325.7" y="248" text-anchor="middle" font-size="10" fill="#8c959f" font-family="ui-monospace, SFMono-Regular, 'SF Mono', Menlo, monospace">05-26</text><text x="416.9" y="248" text-anchor="middle" font-size="10" fill="#8c959f" font-family="ui-monospace, SFMono-Regular, 'SF Mono', Menlo, monospace">05-31</text><text x="508.1" y="248" text-anchor="middle" font-size="10" fill="#8c959f" font-family="ui-monospace, SFMono-Regular, 'SF Mono', Menlo, monospace">06-05</text><text x="599.3" y="248" text-anchor="middle" font-size="10" fill="#8c959f" font-family="ui-monospace, SFMono-Regular, 'SF Mono', Menlo, monospace">06-10</text>

  <!-- legend -->
  <rect x="60" y="262" width="16" height="3" fill="#4e79a7" rx="1"/><text x="80" y="268" font-size="11" fill="#57606a" font-family="-apple-system, BlinkMacSystemFont, 'Segoe UI', sans-serif">Total clones (56)</text><line x1="230" y1="264" x2="246" y2="264" stroke="#f28e2b" stroke-width="2" stroke-dasharray="5,3"/><text x="250" y="268" font-size="11" fill="#57606a" font-family="-apple-system, BlinkMacSystemFont, 'Segoe UI', sans-serif">Unique cloners</text>

</svg>