<svg xmlns="http://www.w3.org/2000/svg" viewBox="0 0 820 280" width="820" height="280">

  <!-- title -->
  <text x="52" y="18" font-size="13" font-weight="600"
        fill="#24292f" font-family="-apple-system, BlinkMacSystemFont, 'Segoe UI', sans-serif"
        >Clone traffic — ai-runner</text>
  <text x="800" y="18" font-size="10" fill="#8c959f"
        font-family="ui-monospace, SFMono-Regular, 'SF Mono', Menlo, monospace" text-anchor="end">2026-07-03</text>

  <!-- grid -->
  <line x1="52" y1="232.0" x2="800" y2="232.0" stroke="#e8e8e8" stroke-width="1"/><line x1="52" y1="191.2" x2="800" y2="191.2" stroke="#e8e8e8" stroke-width="1"/><line x1="52" y1="150.4" x2="800" y2="150.4" stroke="#e8e8e8" stroke-width="1"/><line x1="52" y1="109.6" x2="800" y2="109.6" stroke="#e8e8e8" stroke-width="1"/><line x1="52" y1="68.8" x2="800" y2="68.8" stroke="#e8e8e8" stroke-width="1"/><line x1="52" y1="28.0" x2="800" y2="28.0" stroke="#e8e8e8" stroke-width="1"/>

  <!-- area fill -->
  <path d="M52.0,232.0 L52.0,232.0 L66.7,201.4 L81.3,191.2 L96.0,58.6 L110.7,201.4 L125.3,221.8 L140.0,221.8 L154.7,232.0 L169.3,232.0 L184.0,221.8 L198.7,232.0 L213.3,232.0 L228.0,232.0 L242.7,232.0 L257.3,232.0 L272.0,232.0 L286.7,232.0 L301.3,221.8 L316.0,211.6 L330.7,232.0 L345.3,211.6 L360.0,211.6 L374.7,232.0 L389.3,232.0 L404.0,232.0 L418.7,211.6 L433.3,232.0 L448.0,221.8 L462.7,232.0 L477.3,191.2 L492.0,221.8 L506.7,232.0 L521.3,232.0 L536.0,232.0 L550.7,232.0 L565.3,211.6 L580.0,232.0 L594.7,232.0 L609.3,211.6 L624.0,221.8 L638.7,211.6 L653.3,191.2 L668.0,28.0 L682.7,232.0 L697.3,170.8 L712.0,211.6 L726.7,232.0 L741.3,221.8 L756.0,232.0 L770.7,232.0 L785.3,221.8 L800.0,232.0 L800.0,232.0 L52.0,232.0Z" fill="#4e79a7" opacity="0.12"/>

  <!-- lines -->
  <polyline points="52.0,232.0 66.7,201.4 81.3,191.2 96.0,58.6 110.7,201.4 125.3,221.8 140.0,221.8 154.7,232.0 169.3,232.0 184.0,221.8 198.7,232.0 213.3,232.0 228.0,232.0 242.7,232.0 257.3,232.0 272.0,232.0 286.7,232.0 301.3,221.8 316.0,211.6 330.7,232.0 345.3,211.6 360.0,211.6 374.7,232.0 389.3,232.0 404.0,232.0 418.7,211.6 433.3,232.0 448.0,221.8 462.7,232.0 477.3,191.2 492.0,221.8 506.7,232.0 521.3,232.0 536.0,232.0 550.7,232.0 565.3,211.6 580.0,232.0 594.7,232.0 609.3,211.6 624.0,221.8 638.7,211.6 653.3,191.2 668.0,28.0 682.7,232.0 697.3,170.8 712.0,211.6 726.7,232.0 741.3,221.8 756.0,232.0 770.7,232.0 785.3,221.8 800.0,232.0"
            fill="none" stroke="#4e79a7"
            stroke-width="2" stroke-linejoin="round"/>
  <polyline points="52.0,232.0 66.7,201.4 81.3,191.2 96.0,109.6 110.7,201.4 125.3,221.8 140.0,221.8 154.7,232.0 169.3,232.0 184.0,221.8 198.7,232.0 213.3,232.0 228.0,232.0 242.7,232.0 257.3,232.0 272.0,232.0 286.7,232.0 301.3,221.8 316.0,211.6 330.7,232.0 345.3,211.6 360.0,211.6 374.7,232.0 389.3,232.0 404.0,232.0 418.7,211.6 433.3,232.0 448.0,221.8 462.7,232.0 477.3,201.4 492.0,221.8 506.7,232.0 521.3,232.0 536.0,232.0 550.7,232.0 565.3,211.6 580.0,232.0 594.7,232.0 609.3,211.6 624.0,221.8 638.7,211.6 653.3,221.8 668.0,181.0 682.7,232.0 697.3,221.8 712.0,211.6 726.7,232.0 741.3,221.8 756.0,232.0 770.7,232.0 785.3,221.8 800.0,232.0"
            fill="none" stroke="#f28e2b"
            stroke-width="2" stroke-linejoin="round"
            stroke-dasharray="5,3"/>

  <!-- dots -->
  <circle cx="52.0" cy="232.0" r="3" fill="#4e79a7"/><circle cx="66.7" cy="201.4" r="3" fill="#4e79a7"/><circle cx="81.3" cy="191.2" r="3" fill="#4e79a7"/><circle cx="96.0" cy="58.6" r="3" fill="#4e79a7"/><circle cx="110.7" cy="201.4" r="3" fill="#4e79a7"/><circle cx="125.3" cy="221.8" r="3" fill="#4e79a7"/><circle cx="140.0" cy="221.8" r="3" fill="#4e79a7"/><circle cx="154.7" cy="232.0" r="3" fill="#4e79a7"/><circle cx="169.3" cy="232.0" r="3" fill="#4e79a7"/><circle cx="184.0" cy="221.8" r="3" fill="#4e79a7"/><circle cx="198.7" cy="232.0" r="3" fill="#4e79a7"/><circle cx="213.3" cy="232.0" r="3" fill="#4e79a7"/><circle cx="228.0" cy="232.0" r="3" fill="#4e79a7"/><circle cx="242.7" cy="232.0" r="3" fill="#4e79a7"/><circle cx="257.3" cy="232.0" r="3" fill="#4e79a7"/><circle cx="272.0" cy="232.0" r="3" fill="#4e79a7"/><circle cx="286.7" cy="232.0" r="3" fill="#4e79a7"/><circle cx="301.3" cy="221.8" r="3" fill="#4e79a7"/><circle cx="316.0" cy="211.6" r="3" fill="#4e79a7"/><circle cx="330.7" cy="232.0" r="3" fill="#4e79a7"/><circle cx="345.3" cy="211.6" r="3" fill="#4e79a7"/><circle cx="360.0" cy="211.6" r="3" fill="#4e79a7"/><circle cx="374.7" cy="232.0" r="3" fill="#4e79a7"/><circle cx="389.3" cy="232.0" r="3" fill="#4e79a7"/><circle cx="404.0" cy="232.0" r="3" fill="#4e79a7"/><circle cx="418.7" cy="211.6" r="3" fill="#4e79a7"/><circle cx="433.3" cy="232.0" r="3" fill="#4e79a7"/><circle cx="448.0" cy="221.8" r="3" fill="#4e79a7"/><circle cx="462.7" cy="232.0" r="3" fill="#4e79a7"/><circle cx="477.3" cy="191.2" r="3" fill="#4e79a7"/><circle cx="492.0" cy="221.8" r="3" fill="#4e79a7"/><circle cx="506.7" cy="232.0" r="3" fill="#4e79a7"/><circle cx="521.3" cy="232.0" r="3" fill="#4e79a7"/><circle cx="536.0" cy="232.0" r="3" fill="#4e79a7"/><circle cx="550.7" cy="232.0" r="3" fill="#4e79a7"/><circle cx="565.3" cy="211.6" r="3" fill="#4e79a7"/><circle cx="580.0" cy="232.0" r="3" fill="#4e79a7"/><circle cx="594.7" cy="232.0" r="3" fill="#4e79a7"/><circle cx="609.3" cy="211.6" r="3" fill="#4e79a7"/><circle cx="624.0" cy="221.8" r="3" fill="#4e79a7"/><circle cx="638.7" cy="211.6" r="3" fill="#4e79a7"/><circle cx="653.3" cy="191.2" r="3" fill="#4e79a7"/><circle cx="668.0" cy="28.0" r="3" fill="#4e79a7"/><circle cx="682.7" cy="232.0" r="3" fill="#4e79a7"/><circle cx="697.3" cy="170.8" r="3" fill="#4e79a7"/><circle cx="712.0" cy="211.6" r="3" fill="#4e79a7"/><circle cx="726.7" cy="232.0" r="3" fill="#4e79a7"/><circle cx="741.3" cy="221.8" r="3" fill="#4e79a7"/><circle cx="756.0" cy="232.0" r="3" fill="#4e79a7"/><circle cx="770.7" cy="232.0" r="3" fill="#4e79a7"/><circle cx="785.3" cy="221.8" r="3" fill="#4e79a7"/><circle cx="800.0" cy="232.0" r="3" fill="#4e79a7"/>
  <circle cx="52.0" cy="232.0" r="3" fill="#f28e2b"/><circle cx="66.7" cy="201.4" r="3" fill="#f28e2b"/><circle cx="81.3" cy="191.2" r="3" fill="#f28e2b"/><circle cx="96.0" cy="109.6" r="3" fill="#f28e2b"/><circle cx="110.7" cy="201.4" r="3" fill="#f28e2b"/><circle cx="125.3" cy="221.8" r="3" fill="#f28e2b"/><circle cx="140.0" cy="221.8" r="3" fill="#f28e2b"/><circle cx="154.7" cy="232.0" r="3" fill="#f28e2b"/><circle cx="169.3" cy="232.0" r="3" fill="#f28e2b"/><circle cx="184.0" cy="221.8" r="3" fill="#f28e2b"/><circle cx="198.7" cy="232.0" r="3" fill="#f28e2b"/><circle cx="213.3" cy="232.0" r="3" fill="#f28e2b"/><circle cx="228.0" cy="232.0" r="3" fill="#f28e2b"/><circle cx="242.7" cy="232.0" r="3" fill="#f28e2b"/><circle cx="257.3" cy="232.0" r="3" fill="#f28e2b"/><circle cx="272.0" cy="232.0" r="3" fill="#f28e2b"/><circle cx="286.7" cy="232.0" r="3" fill="#f28e2b"/><circle cx="301.3" cy="221.8" r="3" fill="#f28e2b"/><circle cx="316.0" cy="211.6" r="3" fill="#f28e2b"/><circle cx="330.7" cy="232.0" r="3" fill="#f28e2b"/><circle cx="345.3" cy="211.6" r="3" fill="#f28e2b"/><circle cx="360.0" cy="211.6" r="3" fill="#f28e2b"/><circle cx="374.7" cy="232.0" r="3" fill="#f28e2b"/><circle cx="389.3" cy="232.0" r="3" fill="#f28e2b"/><circle cx="404.0" cy="232.0" r="3" fill="#f28e2b"/><circle cx="418.7" cy="211.6" r="3" fill="#f28e2b"/><circle cx="433.3" cy="232.0" r="3" fill="#f28e2b"/><circle cx="448.0" cy="221.8" r="3" fill="#f28e2b"/><circle cx="462.7" cy="232.0" r="3" fill="#f28e2b"/><circle cx="477.3" cy="201.4" r="3" fill="#f28e2b"/><circle cx="492.0" cy="221.8" r="3" fill="#f28e2b"/><circle cx="506.7" cy="232.0" r="3" fill="#f28e2b"/><circle cx="521.3" cy="232.0" r="3" fill="#f28e2b"/><circle cx="536.0" cy="232.0" r="3" fill="#f28e2b"/><circle cx="550.7" cy="232.0" r="3" fill="#f28e2b"/><circle cx="565.3" cy="211.6" r="3" fill="#f28e2b"/><circle cx="580.0" cy="232.0" r="3" fill="#f28e2b"/><circle cx="594.7" cy="232.0" r="3" fill="#f28e2b"/><circle cx="609.3" cy="211.6" r="3" fill="#f28e2b"/><circle cx="624.0" cy="221.8" r="3" fill="#f28e2b"/><circle cx="638.7" cy="211.6" r="3" fill="#f28e2b"/><circle cx="653.3" cy="221.8" r="3" fill="#f28e2b"/><circle cx="668.0" cy="181.0" r="3" fill="#f28e2b"/><circle cx="682.7" cy="232.0" r="3" fill="#f28e2b"/><circle cx="697.3" cy="221.8" r="3" fill="#f28e2b"/><circle cx="712.0" cy="211.6" r="3" fill="#f28e2b"/><circle cx="726.7" cy="232.0" r="3" fill="#f28e2b"/><circle cx="741.3" cy="221.8" r="3" fill="#f28e2b"/><circle cx="756.0" cy="232.0" r="3" fill="#f28e2b"/><circle cx="770.7" cy="232.0" r="3" fill="#f28e2b"/><circle cx="785.3" cy="221.8" r="3" fill="#f28e2b"/><circle cx="800.0" cy="232.0" r="3" fill="#f28e2b"/>

  <!-- axes -->
  <line x1="52" y1="28" x2="52" y2="232"
        stroke="#cccccc" stroke-width="1"/>
  <line x1="52" y1="232" x2="800" y2="232"
        stroke="#cccccc" stroke-width="1"/>

  <!-- y-axis labels -->
  <text x="47" y="236.0" text-anchor="end" font-size="10" fill="#57606a" font-family="ui-monospace, SFMono-Regular, 'SF Mono', Menlo, monospace">0</text><text x="47" y="195.2" text-anchor="end" font-size="10" fill="#57606a" font-family="ui-monospace, SFMono-Regular, 'SF Mono', Menlo, monospace">4</text><text x="47" y="154.4" text-anchor="end" font-size="10" fill="#57606a" font-family="ui-monospace, SFMono-Regular, 'SF Mono', Menlo, monospace">8</text><text x="47" y="113.6" text-anchor="end" font-size="10" fill="#57606a" font-family="ui-monospace, SFMono-Regular, 'SF Mono', Menlo, monospace">12</text><text x="47" y="72.8" text-anchor="end" font-size="10" fill="#57606a" font-family="ui-monospace, SFMono-Regular, 'SF Mono', Menlo, monospace">16</text><text x="47" y="32.0" text-anchor="end" font-size="10" fill="#57606a" font-family="ui-monospace, SFMono-Regular, 'SF Mono', Menlo, monospace">20</text>

  <!-- x-axis labels -->
  <text x="52.0" y="248" text-anchor="middle" font-size="10" fill="#8c959f" font-family="ui-monospace, SFMono-Regular, 'SF Mono', Menlo, monospace">05-11</text><text x="580.0" y="248" text-anchor="middle" font-size="10" fill="#8c959f" font-family="ui-monospace, SFMono-Regular, 'SF Mono', Menlo, monospace">06-16</text><text x="140.0" y="248" text-anchor="middle" font-size="10" fill="#8c959f" font-family="ui-monospace, SFMono-Regular, 'SF Mono', Menlo, monospace">05-17</text><text x="668.0" y="248" text-anchor="middle" font-size="10" fill="#8c959f" font-family="ui-monospace, SFMono-Regular, 'SF Mono', Menlo, monospace">06-22</text><text x="228.0" y="248" text-anchor="middle" font-size="10" fill="#8c959f" font-family="ui-monospace, SFMono-Regular, 'SF Mono', Menlo, monospace">05-23</text><text x="756.0" y="248" text-anchor="middle" font-size="10" fill="#8c959f" font-family="ui-monospace, SFMono-Regular, 'SF Mono', Menlo, monospace">06-28</text><text x="316.0" y="248" text-anchor="middle" font-size="10" fill="#8c959f" font-family="ui-monospace, SFMono-Regular, 'SF Mono', Menlo, monospace">05-29</text><text x="800.0" y="248" text-anchor="middle" font-size="10" fill="#8c959f" font-family="ui-monospace, SFMono-Regular, 'SF Mono', Menlo, monospace">07-01</text><text x="404.0" y="248" text-anchor="middle" font-size="10" fill="#8c959f" font-family="ui-monospace, SFMono-Regular, 'SF Mono', Menlo, monospace">06-04</text><text x="492.0" y="248" text-anchor="middle" font-size="10" fill="#8c959f" font-family="ui-monospace, SFMono-Regular, 'SF Mono', Menlo, monospace">06-10</text>

  <!-- legend -->
  <rect x="60" y="262" width="16" height="3" fill="#4e79a7" rx="1"/><text x="80" y="268" font-size="11" fill="#57606a" font-family="-apple-system, BlinkMacSystemFont, 'Segoe UI', sans-serif">Total clones (86)</text><line x1="230" y1="264" x2="246" y2="264" stroke="#f28e2b" stroke-width="2" stroke-dasharray="5,3"/><text x="250" y="268" font-size="11" fill="#57606a" font-family="-apple-system, BlinkMacSystemFont, 'Segoe UI', sans-serif">Unique cloners</text>

</svg>