<svg xmlns="http://www.w3.org/2000/svg" viewBox="0 0 820 280" width="820" height="280">

  <!-- title -->
  <text x="52" y="18" font-size="13" font-weight="600"
        fill="#24292f" font-family="-apple-system, BlinkMacSystemFont, 'Segoe UI', sans-serif"
        >Clone traffic — ai-runner</text>
  <text x="800" y="18" font-size="10" fill="#8c959f"
        font-family="ui-monospace, SFMono-Regular, 'SF Mono', Menlo, monospace" text-anchor="end">2026-07-17</text>

  <!-- grid -->
  <line x1="52" y1="232.0" x2="800" y2="232.0" stroke="#e8e8e8" stroke-width="1"/><line x1="52" y1="191.2" x2="800" y2="191.2" stroke="#e8e8e8" stroke-width="1"/><line x1="52" y1="150.4" x2="800" y2="150.4" stroke="#e8e8e8" stroke-width="1"/><line x1="52" y1="109.6" x2="800" y2="109.6" stroke="#e8e8e8" stroke-width="1"/><line x1="52" y1="68.8" x2="800" y2="68.8" stroke="#e8e8e8" stroke-width="1"/><line x1="52" y1="28.0" x2="800" y2="28.0" stroke="#e8e8e8" stroke-width="1"/>

  <!-- area fill -->
  <path d="M52.0,232.0 L52.0,232.0 L63.5,201.4 L75.0,191.2 L86.5,58.6 L98.0,201.4 L109.5,221.8 L121.0,221.8 L132.6,232.0 L144.1,232.0 L155.6,221.8 L167.1,232.0 L178.6,232.0 L190.1,232.0 L201.6,232.0 L213.1,232.0 L224.6,232.0 L236.1,232.0 L247.6,221.8 L259.1,211.6 L270.6,232.0 L282.2,211.6 L293.7,211.6 L305.2,232.0 L316.7,232.0 L328.2,232.0 L339.7,211.6 L351.2,232.0 L362.7,221.8 L374.2,232.0 L385.7,191.2 L397.2,221.8 L408.7,232.0 L420.2,232.0 L431.8,232.0 L443.3,232.0 L454.8,211.6 L466.3,232.0 L477.8,232.0 L489.3,211.6 L500.8,221.8 L512.3,211.6 L523.8,191.2 L535.3,28.0 L546.8,232.0 L558.3,170.8 L569.8,211.6 L581.4,232.0 L592.9,221.8 L604.4,232.0 L615.9,232.0 L627.4,221.8 L638.9,232.0 L650.4,232.0 L661.9,221.8 L673.4,201.4 L684.9,232.0 L696.4,211.6 L707.9,232.0 L719.4,232.0 L731.0,221.8 L742.5,232.0 L754.0,221.8 L765.5,232.0 L777.0,232.0 L788.5,232.0 L800.0,232.0 L800.0,232.0 L52.0,232.0Z" fill="#4e79a7" opacity="0.12"/>

  <!-- lines -->
  <polyline points="52.0,232.0 63.5,201.4 75.0,191.2 86.5,58.6 98.0,201.4 109.5,221.8 121.0,221.8 132.6,232.0 144.1,232.0 155.6,221.8 167.1,232.0 178.6,232.0 190.1,232.0 201.6,232.0 213.1,232.0 224.6,232.0 236.1,232.0 247.6,221.8 259.1,211.6 270.6,232.0 282.2,211.6 293.7,211.6 305.2,232.0 316.7,232.0 328.2,232.0 339.7,211.6 351.2,232.0 362.7,221.8 374.2,232.0 385.7,191.2 397.2,221.8 408.7,232.0 420.2,232.0 431.8,232.0 443.3,232.0 454.8,211.6 466.3,232.0 477.8,232.0 489.3,211.6 500.8,221.8 512.3,211.6 523.8,191.2 535.3,28.0 546.8,232.0 558.3,170.8 569.8,211.6 581.4,232.0 592.9,221.8 604.4,232.0 615.9,232.0 627.4,221.8 638.9,232.0 650.4,232.0 661.9,221.8 673.4,201.4 684.9,232.0 696.4,211.6 707.9,232.0 719.4,232.0 731.0,221.8 742.5,232.0 754.0,221.8 765.5,232.0 777.0,232.0 788.5,232.0 800.0,232.0"
            fill="none" stroke="#4e79a7"
            stroke-width="2" stroke-linejoin="round"/>
  <polyline points="52.0,232.0 63.5,201.4 75.0,191.2 86.5,109.6 98.0,201.4 109.5,221.8 121.0,221.8 132.6,232.0 144.1,232.0 155.6,221.8 167.1,232.0 178.6,232.0 190.1,232.0 201.6,232.0 213.1,232.0 224.6,232.0 236.1,232.0 247.6,221.8 259.1,211.6 270.6,232.0 282.2,211.6 293.7,211.6 305.2,232.0 316.7,232.0 328.2,232.0 339.7,211.6 351.2,232.0 362.7,221.8 374.2,232.0 385.7,201.4 397.2,221.8 408.7,232.0 420.2,232.0 431.8,232.0 443.3,232.0 454.8,211.6 466.3,232.0 477.8,232.0 489.3,211.6 500.8,221.8 512.3,211.6 523.8,221.8 535.3,181.0 546.8,232.0 558.3,221.8 569.8,211.6 581.4,232.0 592.9,221.8 604.4,232.0 615.9,232.0 627.4,221.8 638.9,232.0 650.4,232.0 661.9,221.8 673.4,211.6 684.9,232.0 696.4,211.6 707.9,232.0 719.4,232.0 731.0,221.8 742.5,232.0 754.0,221.8 765.5,232.0 777.0,232.0 788.5,232.0 800.0,232.0"
            fill="none" stroke="#f28e2b"
            stroke-width="2" stroke-linejoin="round"
            stroke-dasharray="5,3"/>

  <!-- dots -->
  <circle cx="52.0" cy="232.0" r="3" fill="#4e79a7"/><circle cx="63.5" cy="201.4" r="3" fill="#4e79a7"/><circle cx="75.0" cy="191.2" r="3" fill="#4e79a7"/><circle cx="86.5" cy="58.6" r="3" fill="#4e79a7"/><circle cx="98.0" cy="201.4" r="3" fill="#4e79a7"/><circle cx="109.5" cy="221.8" r="3" fill="#4e79a7"/><circle cx="121.0" cy="221.8" r="3" fill="#4e79a7"/><circle cx="132.6" cy="232.0" r="3" fill="#4e79a7"/><circle cx="144.1" cy="232.0" r="3" fill="#4e79a7"/><circle cx="155.6" cy="221.8" r="3" fill="#4e79a7"/><circle cx="167.1" cy="232.0" r="3" fill="#4e79a7"/><circle cx="178.6" cy="232.0" r="3" fill="#4e79a7"/><circle cx="190.1" cy="232.0" r="3" fill="#4e79a7"/><circle cx="201.6" cy="232.0" r="3" fill="#4e79a7"/><circle cx="213.1" cy="232.0" r="3" fill="#4e79a7"/><circle cx="224.6" cy="232.0" r="3" fill="#4e79a7"/><circle cx="236.1" cy="232.0" r="3" fill="#4e79a7"/><circle cx="247.6" cy="221.8" r="3" fill="#4e79a7"/><circle cx="259.1" cy="211.6" r="3" fill="#4e79a7"/><circle cx="270.6" cy="232.0" r="3" fill="#4e79a7"/><circle cx="282.2" cy="211.6" r="3" fill="#4e79a7"/><circle cx="293.7" cy="211.6" r="3" fill="#4e79a7"/><circle cx="305.2" cy="232.0" r="3" fill="#4e79a7"/><circle cx="316.7" cy="232.0" r="3" fill="#4e79a7"/><circle cx="328.2" cy="232.0" r="3" fill="#4e79a7"/><circle cx="339.7" cy="211.6" r="3" fill="#4e79a7"/><circle cx="351.2" cy="232.0" r="3" fill="#4e79a7"/><circle cx="362.7" cy="221.8" r="3" fill="#4e79a7"/><circle cx="374.2" cy="232.0" r="3" fill="#4e79a7"/><circle cx="385.7" cy="191.2" r="3" fill="#4e79a7"/><circle cx="397.2" cy="221.8" r="3" fill="#4e79a7"/><circle cx="408.7" cy="232.0" r="3" fill="#4e79a7"/><circle cx="420.2" cy="232.0" r="3" fill="#4e79a7"/><circle cx="431.8" cy="232.0" r="3" fill="#4e79a7"/><circle cx="443.3" cy="232.0" r="3" fill="#4e79a7"/><circle cx="454.8" cy="211.6" r="3" fill="#4e79a7"/><circle cx="466.3" cy="232.0" r="3" fill="#4e79a7"/><circle cx="477.8" cy="232.0" r="3" fill="#4e79a7"/><circle cx="489.3" cy="211.6" r="3" fill="#4e79a7"/><circle cx="500.8" cy="221.8" r="3" fill="#4e79a7"/><circle cx="512.3" cy="211.6" r="3" fill="#4e79a7"/><circle cx="523.8" cy="191.2" r="3" fill="#4e79a7"/><circle cx="535.3" cy="28.0" r="3" fill="#4e79a7"/><circle cx="546.8" cy="232.0" r="3" fill="#4e79a7"/><circle cx="558.3" cy="170.8" r="3" fill="#4e79a7"/><circle cx="569.8" cy="211.6" r="3" fill="#4e79a7"/><circle cx="581.4" cy="232.0" r="3" fill="#4e79a7"/><circle cx="592.9" cy="221.8" r="3" fill="#4e79a7"/><circle cx="604.4" cy="232.0" r="3" fill="#4e79a7"/><circle cx="615.9" cy="232.0" r="3" fill="#4e79a7"/><circle cx="627.4" cy="221.8" r="3" fill="#4e79a7"/><circle cx="638.9" cy="232.0" r="3" fill="#4e79a7"/><circle cx="650.4" cy="232.0" r="3" fill="#4e79a7"/><circle cx="661.9" cy="221.8" r="3" fill="#4e79a7"/><circle cx="673.4" cy="201.4" r="3" fill="#4e79a7"/><circle cx="684.9" cy="232.0" r="3" fill="#4e79a7"/><circle cx="696.4" cy="211.6" r="3" fill="#4e79a7"/><circle cx="707.9" cy="232.0" r="3" fill="#4e79a7"/><circle cx="719.4" cy="232.0" r="3" fill="#4e79a7"/><circle cx="731.0" cy="221.8" r="3" fill="#4e79a7"/><circle cx="742.5" cy="232.0" r="3" fill="#4e79a7"/><circle cx="754.0" cy="221.8" r="3" fill="#4e79a7"/><circle cx="765.5" cy="232.0" r="3" fill="#4e79a7"/><circle cx="777.0" cy="232.0" r="3" fill="#4e79a7"/><circle cx="788.5" cy="232.0" r="3" fill="#4e79a7"/><circle cx="800.0" cy="232.0" r="3" fill="#4e79a7"/>
  <circle cx="52.0" cy="232.0" r="3" fill="#f28e2b"/><circle cx="63.5" cy="201.4" r="3" fill="#f28e2b"/><circle cx="75.0" cy="191.2" r="3" fill="#f28e2b"/><circle cx="86.5" cy="109.6" r="3" fill="#f28e2b"/><circle cx="98.0" cy="201.4" r="3" fill="#f28e2b"/><circle cx="109.5" cy="221.8" r="3" fill="#f28e2b"/><circle cx="121.0" cy="221.8" r="3" fill="#f28e2b"/><circle cx="132.6" cy="232.0" r="3" fill="#f28e2b"/><circle cx="144.1" cy="232.0" r="3" fill="#f28e2b"/><circle cx="155.6" cy="221.8" r="3" fill="#f28e2b"/><circle cx="167.1" cy="232.0" r="3" fill="#f28e2b"/><circle cx="178.6" cy="232.0" r="3" fill="#f28e2b"/><circle cx="190.1" cy="232.0" r="3" fill="#f28e2b"/><circle cx="201.6" cy="232.0" r="3" fill="#f28e2b"/><circle cx="213.1" cy="232.0" r="3" fill="#f28e2b"/><circle cx="224.6" cy="232.0" r="3" fill="#f28e2b"/><circle cx="236.1" cy="232.0" r="3" fill="#f28e2b"/><circle cx="247.6" cy="221.8" r="3" fill="#f28e2b"/><circle cx="259.1" cy="211.6" r="3" fill="#f28e2b"/><circle cx="270.6" cy="232.0" r="3" fill="#f28e2b"/><circle cx="282.2" cy="211.6" r="3" fill="#f28e2b"/><circle cx="293.7" cy="211.6" r="3" fill="#f28e2b"/><circle cx="305.2" cy="232.0" r="3" fill="#f28e2b"/><circle cx="316.7" cy="232.0" r="3" fill="#f28e2b"/><circle cx="328.2" cy="232.0" r="3" fill="#f28e2b"/><circle cx="339.7" cy="211.6" r="3" fill="#f28e2b"/><circle cx="351.2" cy="232.0" r="3" fill="#f28e2b"/><circle cx="362.7" cy="221.8" r="3" fill="#f28e2b"/><circle cx="374.2" cy="232.0" r="3" fill="#f28e2b"/><circle cx="385.7" cy="201.4" r="3" fill="#f28e2b"/><circle cx="397.2" cy="221.8" r="3" fill="#f28e2b"/><circle cx="408.7" cy="232.0" r="3" fill="#f28e2b"/><circle cx="420.2" cy="232.0" r="3" fill="#f28e2b"/><circle cx="431.8" cy="232.0" r="3" fill="#f28e2b"/><circle cx="443.3" cy="232.0" r="3" fill="#f28e2b"/><circle cx="454.8" cy="211.6" r="3" fill="#f28e2b"/><circle cx="466.3" cy="232.0" r="3" fill="#f28e2b"/><circle cx="477.8" cy="232.0" r="3" fill="#f28e2b"/><circle cx="489.3" cy="211.6" r="3" fill="#f28e2b"/><circle cx="500.8" cy="221.8" r="3" fill="#f28e2b"/><circle cx="512.3" cy="211.6" r="3" fill="#f28e2b"/><circle cx="523.8" cy="221.8" r="3" fill="#f28e2b"/><circle cx="535.3" cy="181.0" r="3" fill="#f28e2b"/><circle cx="546.8" cy="232.0" r="3" fill="#f28e2b"/><circle cx="558.3" cy="221.8" r="3" fill="#f28e2b"/><circle cx="569.8" cy="211.6" r="3" fill="#f28e2b"/><circle cx="581.4" cy="232.0" r="3" fill="#f28e2b"/><circle cx="592.9" cy="221.8" r="3" fill="#f28e2b"/><circle cx="604.4" cy="232.0" r="3" fill="#f28e2b"/><circle cx="615.9" cy="232.0" r="3" fill="#f28e2b"/><circle cx="627.4" cy="221.8" r="3" fill="#f28e2b"/><circle cx="638.9" cy="232.0" r="3" fill="#f28e2b"/><circle cx="650.4" cy="232.0" r="3" fill="#f28e2b"/><circle cx="661.9" cy="221.8" r="3" fill="#f28e2b"/><circle cx="673.4" cy="211.6" r="3" fill="#f28e2b"/><circle cx="684.9" cy="232.0" r="3" fill="#f28e2b"/><circle cx="696.4" cy="211.6" r="3" fill="#f28e2b"/><circle cx="707.9" cy="232.0" r="3" fill="#f28e2b"/><circle cx="719.4" cy="232.0" r="3" fill="#f28e2b"/><circle cx="731.0" cy="221.8" r="3" fill="#f28e2b"/><circle cx="742.5" cy="232.0" r="3" fill="#f28e2b"/><circle cx="754.0" cy="221.8" r="3" fill="#f28e2b"/><circle cx="765.5" cy="232.0" r="3" fill="#f28e2b"/><circle cx="777.0" cy="232.0" r="3" fill="#f28e2b"/><circle cx="788.5" cy="232.0" r="3" fill="#f28e2b"/><circle cx="800.0" cy="232.0" r="3" fill="#f28e2b"/>

  <!-- axes -->
  <line x1="52" y1="28" x2="52" y2="232"
        stroke="#cccccc" stroke-width="1"/>
  <line x1="52" y1="232" x2="800" y2="232"
        stroke="#cccccc" stroke-width="1"/>

  <!-- y-axis labels -->
  <text x="47" y="236.0" text-anchor="end" font-size="10" fill="#57606a" font-family="ui-monospace, SFMono-Regular, 'SF Mono', Menlo, monospace">0</text><text x="47" y="195.2" text-anchor="end" font-size="10" fill="#57606a" font-family="ui-monospace, SFMono-Regular, 'SF Mono', Menlo, monospace">4</text><text x="47" y="154.4" text-anchor="end" font-size="10" fill="#57606a" font-family="ui-monospace, SFMono-Regular, 'SF Mono', Menlo, monospace">8</text><text x="47" y="113.6" text-anchor="end" font-size="10" fill="#57606a" font-family="ui-monospace, SFMono-Regular, 'SF Mono', Menlo, monospace">12</text><text x="47" y="72.8" text-anchor="end" font-size="10" fill="#57606a" font-family="ui-monospace, SFMono-Regular, 'SF Mono', Menlo, monospace">16</text><text x="47" y="32.0" text-anchor="end" font-size="10" fill="#57606a" font-family="ui-monospace, SFMono-Regular, 'SF Mono', Menlo, monospace">20</text>

  <!-- x-axis labels -->
  <text x="52.0" y="248" text-anchor="middle" font-size="10" fill="#8c959f" font-family="ui-monospace, SFMono-Regular, 'SF Mono', Menlo, monospace">05-11</text><text x="420.2" y="248" text-anchor="middle" font-size="10" fill="#8c959f" font-family="ui-monospace, SFMono-Regular, 'SF Mono', Menlo, monospace">06-12</text><text x="788.5" y="248" text-anchor="middle" font-size="10" fill="#8c959f" font-family="ui-monospace, SFMono-Regular, 'SF Mono', Menlo, monospace">07-14</text><text x="800.0" y="248" text-anchor="middle" font-size="10" fill="#8c959f" font-family="ui-monospace, SFMono-Regular, 'SF Mono', Menlo, monospace">07-15</text><text x="144.1" y="248" text-anchor="middle" font-size="10" fill="#8c959f" font-family="ui-monospace, SFMono-Regular, 'SF Mono', Menlo, monospace">05-19</text><text x="512.3" y="248" text-anchor="middle" font-size="10" fill="#8c959f" font-family="ui-monospace, SFMono-Regular, 'SF Mono', Menlo, monospace">06-20</text><text x="236.1" y="248" text-anchor="middle" font-size="10" fill="#8c959f" font-family="ui-monospace, SFMono-Regular, 'SF Mono', Menlo, monospace">05-27</text><text x="604.4" y="248" text-anchor="middle" font-size="10" fill="#8c959f" font-family="ui-monospace, SFMono-Regular, 'SF Mono', Menlo, monospace">06-28</text><text x="328.2" y="248" text-anchor="middle" font-size="10" fill="#8c959f" font-family="ui-monospace, SFMono-Regular, 'SF Mono', Menlo, monospace">06-04</text><text x="696.4" y="248" text-anchor="middle" font-size="10" fill="#8c959f" font-family="ui-monospace, SFMono-Regular, 'SF Mono', Menlo, monospace">07-06</text>

  <!-- legend -->
  <rect x="60" y="262" width="16" height="3" fill="#4e79a7" rx="1"/><text x="80" y="268" font-size="11" fill="#57606a" font-family="-apple-system, BlinkMacSystemFont, 'Segoe UI', sans-serif">Total clones (94)</text><line x1="230" y1="264" x2="246" y2="264" stroke="#f28e2b" stroke-width="2" stroke-dasharray="5,3"/><text x="250" y="268" font-size="11" fill="#57606a" font-family="-apple-system, BlinkMacSystemFont, 'Segoe UI', sans-serif">Unique cloners</text>

</svg>