<svg xmlns="http://www.w3.org/2000/svg" viewBox="0 0 820 280" width="820" height="280">

  <!-- title -->
  <text x="52" y="18" font-size="13" font-weight="600"
        fill="#24292f" font-family="-apple-system, BlinkMacSystemFont, 'Segoe UI', sans-serif"
        >Clone traffic — ai-runner</text>
  <text x="800" y="18" font-size="10" fill="#8c959f"
        font-family="ui-monospace, SFMono-Regular, 'SF Mono', Menlo, monospace" text-anchor="end">2026-07-12</text>

  <!-- grid -->
  <line x1="52" y1="232.0" x2="800" y2="232.0" stroke="#e8e8e8" stroke-width="1"/><line x1="52" y1="191.2" x2="800" y2="191.2" stroke="#e8e8e8" stroke-width="1"/><line x1="52" y1="150.4" x2="800" y2="150.4" stroke="#e8e8e8" stroke-width="1"/><line x1="52" y1="109.6" x2="800" y2="109.6" stroke="#e8e8e8" stroke-width="1"/><line x1="52" y1="68.8" x2="800" y2="68.8" stroke="#e8e8e8" stroke-width="1"/><line x1="52" y1="28.0" x2="800" y2="28.0" stroke="#e8e8e8" stroke-width="1"/>

  <!-- area fill -->
  <path d="M52.0,232.0 L52.0,232.0 L64.5,201.4 L76.9,191.2 L89.4,58.6 L101.9,201.4 L114.3,221.8 L126.8,221.8 L139.3,232.0 L151.7,232.0 L164.2,221.8 L176.7,232.0 L189.1,232.0 L201.6,232.0 L214.1,232.0 L226.5,232.0 L239.0,232.0 L251.5,232.0 L263.9,221.8 L276.4,211.6 L288.9,232.0 L301.3,211.6 L313.8,211.6 L326.3,232.0 L338.7,232.0 L351.2,232.0 L363.7,211.6 L376.1,232.0 L388.6,221.8 L401.1,232.0 L413.5,191.2 L426.0,221.8 L438.5,232.0 L450.9,232.0 L463.4,232.0 L475.9,232.0 L488.3,211.6 L500.8,232.0 L513.3,232.0 L525.7,211.6 L538.2,221.8 L550.7,211.6 L563.1,191.2 L575.6,28.0 L588.1,232.0 L600.5,170.8 L613.0,211.6 L625.5,232.0 L637.9,221.8 L650.4,232.0 L662.9,232.0 L675.3,221.8 L687.8,232.0 L700.3,232.0 L712.7,221.8 L725.2,201.4 L737.7,232.0 L750.1,211.6 L762.6,232.0 L775.1,232.0 L787.5,221.8 L800.0,232.0 L800.0,232.0 L52.0,232.0Z" fill="#4e79a7" opacity="0.12"/>

  <!-- lines -->
  <polyline points="52.0,232.0 64.5,201.4 76.9,191.2 89.4,58.6 101.9,201.4 114.3,221.8 126.8,221.8 139.3,232.0 151.7,232.0 164.2,221.8 176.7,232.0 189.1,232.0 201.6,232.0 214.1,232.0 226.5,232.0 239.0,232.0 251.5,232.0 263.9,221.8 276.4,211.6 288.9,232.0 301.3,211.6 313.8,211.6 326.3,232.0 338.7,232.0 351.2,232.0 363.7,211.6 376.1,232.0 388.6,221.8 401.1,232.0 413.5,191.2 426.0,221.8 438.5,232.0 450.9,232.0 463.4,232.0 475.9,232.0 488.3,211.6 500.8,232.0 513.3,232.0 525.7,211.6 538.2,221.8 550.7,211.6 563.1,191.2 575.6,28.0 588.1,232.0 600.5,170.8 613.0,211.6 625.5,232.0 637.9,221.8 650.4,232.0 662.9,232.0 675.3,221.8 687.8,232.0 700.3,232.0 712.7,221.8 725.2,201.4 737.7,232.0 750.1,211.6 762.6,232.0 775.1,232.0 787.5,221.8 800.0,232.0"
            fill="none" stroke="#4e79a7"
            stroke-width="2" stroke-linejoin="round"/>
  <polyline points="52.0,232.0 64.5,201.4 76.9,191.2 89.4,109.6 101.9,201.4 114.3,221.8 126.8,221.8 139.3,232.0 151.7,232.0 164.2,221.8 176.7,232.0 189.1,232.0 201.6,232.0 214.1,232.0 226.5,232.0 239.0,232.0 251.5,232.0 263.9,221.8 276.4,211.6 288.9,232.0 301.3,211.6 313.8,211.6 326.3,232.0 338.7,232.0 351.2,232.0 363.7,211.6 376.1,232.0 388.6,221.8 401.1,232.0 413.5,201.4 426.0,221.8 438.5,232.0 450.9,232.0 463.4,232.0 475.9,232.0 488.3,211.6 500.8,232.0 513.3,232.0 525.7,211.6 538.2,221.8 550.7,211.6 563.1,221.8 575.6,181.0 588.1,232.0 600.5,221.8 613.0,211.6 625.5,232.0 637.9,221.8 650.4,232.0 662.9,232.0 675.3,221.8 687.8,232.0 700.3,232.0 712.7,221.8 725.2,211.6 737.7,232.0 750.1,211.6 762.6,232.0 775.1,232.0 787.5,221.8 800.0,232.0"
            fill="none" stroke="#f28e2b"
            stroke-width="2" stroke-linejoin="round"
            stroke-dasharray="5,3"/>

  <!-- dots -->
  <circle cx="52.0" cy="232.0" r="3" fill="#4e79a7"/><circle cx="64.5" cy="201.4" r="3" fill="#4e79a7"/><circle cx="76.9" cy="191.2" r="3" fill="#4e79a7"/><circle cx="89.4" cy="58.6" r="3" fill="#4e79a7"/><circle cx="101.9" cy="201.4" r="3" fill="#4e79a7"/><circle cx="114.3" cy="221.8" r="3" fill="#4e79a7"/><circle cx="126.8" cy="221.8" r="3" fill="#4e79a7"/><circle cx="139.3" cy="232.0" r="3" fill="#4e79a7"/><circle cx="151.7" cy="232.0" r="3" fill="#4e79a7"/><circle cx="164.2" cy="221.8" r="3" fill="#4e79a7"/><circle cx="176.7" cy="232.0" r="3" fill="#4e79a7"/><circle cx="189.1" cy="232.0" r="3" fill="#4e79a7"/><circle cx="201.6" cy="232.0" r="3" fill="#4e79a7"/><circle cx="214.1" cy="232.0" r="3" fill="#4e79a7"/><circle cx="226.5" cy="232.0" r="3" fill="#4e79a7"/><circle cx="239.0" cy="232.0" r="3" fill="#4e79a7"/><circle cx="251.5" cy="232.0" r="3" fill="#4e79a7"/><circle cx="263.9" cy="221.8" r="3" fill="#4e79a7"/><circle cx="276.4" cy="211.6" r="3" fill="#4e79a7"/><circle cx="288.9" cy="232.0" r="3" fill="#4e79a7"/><circle cx="301.3" cy="211.6" r="3" fill="#4e79a7"/><circle cx="313.8" cy="211.6" r="3" fill="#4e79a7"/><circle cx="326.3" cy="232.0" r="3" fill="#4e79a7"/><circle cx="338.7" cy="232.0" r="3" fill="#4e79a7"/><circle cx="351.2" cy="232.0" r="3" fill="#4e79a7"/><circle cx="363.7" cy="211.6" r="3" fill="#4e79a7"/><circle cx="376.1" cy="232.0" r="3" fill="#4e79a7"/><circle cx="388.6" cy="221.8" r="3" fill="#4e79a7"/><circle cx="401.1" cy="232.0" r="3" fill="#4e79a7"/><circle cx="413.5" cy="191.2" r="3" fill="#4e79a7"/><circle cx="426.0" cy="221.8" r="3" fill="#4e79a7"/><circle cx="438.5" cy="232.0" r="3" fill="#4e79a7"/><circle cx="450.9" cy="232.0" r="3" fill="#4e79a7"/><circle cx="463.4" cy="232.0" r="3" fill="#4e79a7"/><circle cx="475.9" cy="232.0" r="3" fill="#4e79a7"/><circle cx="488.3" cy="211.6" r="3" fill="#4e79a7"/><circle cx="500.8" cy="232.0" r="3" fill="#4e79a7"/><circle cx="513.3" cy="232.0" r="3" fill="#4e79a7"/><circle cx="525.7" cy="211.6" r="3" fill="#4e79a7"/><circle cx="538.2" cy="221.8" r="3" fill="#4e79a7"/><circle cx="550.7" cy="211.6" r="3" fill="#4e79a7"/><circle cx="563.1" cy="191.2" r="3" fill="#4e79a7"/><circle cx="575.6" cy="28.0" r="3" fill="#4e79a7"/><circle cx="588.1" cy="232.0" r="3" fill="#4e79a7"/><circle cx="600.5" cy="170.8" r="3" fill="#4e79a7"/><circle cx="613.0" cy="211.6" r="3" fill="#4e79a7"/><circle cx="625.5" cy="232.0" r="3" fill="#4e79a7"/><circle cx="637.9" cy="221.8" r="3" fill="#4e79a7"/><circle cx="650.4" cy="232.0" r="3" fill="#4e79a7"/><circle cx="662.9" cy="232.0" r="3" fill="#4e79a7"/><circle cx="675.3" cy="221.8" r="3" fill="#4e79a7"/><circle cx="687.8" cy="232.0" r="3" fill="#4e79a7"/><circle cx="700.3" cy="232.0" r="3" fill="#4e79a7"/><circle cx="712.7" cy="221.8" r="3" fill="#4e79a7"/><circle cx="725.2" cy="201.4" r="3" fill="#4e79a7"/><circle cx="737.7" cy="232.0" r="3" fill="#4e79a7"/><circle cx="750.1" cy="211.6" r="3" fill="#4e79a7"/><circle cx="762.6" cy="232.0" r="3" fill="#4e79a7"/><circle cx="775.1" cy="232.0" r="3" fill="#4e79a7"/><circle cx="787.5" cy="221.8" r="3" fill="#4e79a7"/><circle cx="800.0" cy="232.0" r="3" fill="#4e79a7"/>
  <circle cx="52.0" cy="232.0" r="3" fill="#f28e2b"/><circle cx="64.5" cy="201.4" r="3" fill="#f28e2b"/><circle cx="76.9" cy="191.2" r="3" fill="#f28e2b"/><circle cx="89.4" cy="109.6" r="3" fill="#f28e2b"/><circle cx="101.9" cy="201.4" r="3" fill="#f28e2b"/><circle cx="114.3" cy="221.8" r="3" fill="#f28e2b"/><circle cx="126.8" cy="221.8" r="3" fill="#f28e2b"/><circle cx="139.3" cy="232.0" r="3" fill="#f28e2b"/><circle cx="151.7" cy="232.0" r="3" fill="#f28e2b"/><circle cx="164.2" cy="221.8" r="3" fill="#f28e2b"/><circle cx="176.7" cy="232.0" r="3" fill="#f28e2b"/><circle cx="189.1" cy="232.0" r="3" fill="#f28e2b"/><circle cx="201.6" cy="232.0" r="3" fill="#f28e2b"/><circle cx="214.1" cy="232.0" r="3" fill="#f28e2b"/><circle cx="226.5" cy="232.0" r="3" fill="#f28e2b"/><circle cx="239.0" cy="232.0" r="3" fill="#f28e2b"/><circle cx="251.5" cy="232.0" r="3" fill="#f28e2b"/><circle cx="263.9" cy="221.8" r="3" fill="#f28e2b"/><circle cx="276.4" cy="211.6" r="3" fill="#f28e2b"/><circle cx="288.9" cy="232.0" r="3" fill="#f28e2b"/><circle cx="301.3" cy="211.6" r="3" fill="#f28e2b"/><circle cx="313.8" cy="211.6" r="3" fill="#f28e2b"/><circle cx="326.3" cy="232.0" r="3" fill="#f28e2b"/><circle cx="338.7" cy="232.0" r="3" fill="#f28e2b"/><circle cx="351.2" cy="232.0" r="3" fill="#f28e2b"/><circle cx="363.7" cy="211.6" r="3" fill="#f28e2b"/><circle cx="376.1" cy="232.0" r="3" fill="#f28e2b"/><circle cx="388.6" cy="221.8" r="3" fill="#f28e2b"/><circle cx="401.1" cy="232.0" r="3" fill="#f28e2b"/><circle cx="413.5" cy="201.4" r="3" fill="#f28e2b"/><circle cx="426.0" cy="221.8" r="3" fill="#f28e2b"/><circle cx="438.5" cy="232.0" r="3" fill="#f28e2b"/><circle cx="450.9" cy="232.0" r="3" fill="#f28e2b"/><circle cx="463.4" cy="232.0" r="3" fill="#f28e2b"/><circle cx="475.9" cy="232.0" r="3" fill="#f28e2b"/><circle cx="488.3" cy="211.6" r="3" fill="#f28e2b"/><circle cx="500.8" cy="232.0" r="3" fill="#f28e2b"/><circle cx="513.3" cy="232.0" r="3" fill="#f28e2b"/><circle cx="525.7" cy="211.6" r="3" fill="#f28e2b"/><circle cx="538.2" cy="221.8" r="3" fill="#f28e2b"/><circle cx="550.7" cy="211.6" r="3" fill="#f28e2b"/><circle cx="563.1" cy="221.8" r="3" fill="#f28e2b"/><circle cx="575.6" cy="181.0" r="3" fill="#f28e2b"/><circle cx="588.1" cy="232.0" r="3" fill="#f28e2b"/><circle cx="600.5" cy="221.8" r="3" fill="#f28e2b"/><circle cx="613.0" cy="211.6" r="3" fill="#f28e2b"/><circle cx="625.5" cy="232.0" r="3" fill="#f28e2b"/><circle cx="637.9" cy="221.8" r="3" fill="#f28e2b"/><circle cx="650.4" cy="232.0" r="3" fill="#f28e2b"/><circle cx="662.9" cy="232.0" r="3" fill="#f28e2b"/><circle cx="675.3" cy="221.8" r="3" fill="#f28e2b"/><circle cx="687.8" cy="232.0" r="3" fill="#f28e2b"/><circle cx="700.3" cy="232.0" r="3" fill="#f28e2b"/><circle cx="712.7" cy="221.8" r="3" fill="#f28e2b"/><circle cx="725.2" cy="211.6" r="3" fill="#f28e2b"/><circle cx="737.7" cy="232.0" r="3" fill="#f28e2b"/><circle cx="750.1" cy="211.6" r="3" fill="#f28e2b"/><circle cx="762.6" cy="232.0" r="3" fill="#f28e2b"/><circle cx="775.1" cy="232.0" r="3" fill="#f28e2b"/><circle cx="787.5" cy="221.8" r="3" fill="#f28e2b"/><circle cx="800.0" cy="232.0" r="3" fill="#f28e2b"/>

  <!-- axes -->
  <line x1="52" y1="28" x2="52" y2="232"
        stroke="#cccccc" stroke-width="1"/>
  <line x1="52" y1="232" x2="800" y2="232"
        stroke="#cccccc" stroke-width="1"/>

  <!-- y-axis labels -->
  <text x="47" y="236.0" text-anchor="end" font-size="10" fill="#57606a" font-family="ui-monospace, SFMono-Regular, 'SF Mono', Menlo, monospace">0</text><text x="47" y="195.2" text-anchor="end" font-size="10" fill="#57606a" font-family="ui-monospace, SFMono-Regular, 'SF Mono', Menlo, monospace">4</text><text x="47" y="154.4" text-anchor="end" font-size="10" fill="#57606a" font-family="ui-monospace, SFMono-Regular, 'SF Mono', Menlo, monospace">8</text><text x="47" y="113.6" text-anchor="end" font-size="10" fill="#57606a" font-family="ui-monospace, SFMono-Regular, 'SF Mono', Menlo, monospace">12</text><text x="47" y="72.8" text-anchor="end" font-size="10" fill="#57606a" font-family="ui-monospace, SFMono-Regular, 'SF Mono', Menlo, monospace">16</text><text x="47" y="32.0" text-anchor="end" font-size="10" fill="#57606a" font-family="ui-monospace, SFMono-Regular, 'SF Mono', Menlo, monospace">20</text>

  <!-- x-axis labels -->
  <text x="52.0" y="248" text-anchor="middle" font-size="10" fill="#8c959f" font-family="ui-monospace, SFMono-Regular, 'SF Mono', Menlo, monospace">05-11</text><text x="488.3" y="248" text-anchor="middle" font-size="10" fill="#8c959f" font-family="ui-monospace, SFMono-Regular, 'SF Mono', Menlo, monospace">06-15</text><text x="139.3" y="248" text-anchor="middle" font-size="10" fill="#8c959f" font-family="ui-monospace, SFMono-Regular, 'SF Mono', Menlo, monospace">05-18</text><text x="575.6" y="248" text-anchor="middle" font-size="10" fill="#8c959f" font-family="ui-monospace, SFMono-Regular, 'SF Mono', Menlo, monospace">06-22</text><text x="226.5" y="248" text-anchor="middle" font-size="10" fill="#8c959f" font-family="ui-monospace, SFMono-Regular, 'SF Mono', Menlo, monospace">05-25</text><text x="800.0" y="248" text-anchor="middle" font-size="10" fill="#8c959f" font-family="ui-monospace, SFMono-Regular, 'SF Mono', Menlo, monospace">07-10</text><text x="662.9" y="248" text-anchor="middle" font-size="10" fill="#8c959f" font-family="ui-monospace, SFMono-Regular, 'SF Mono', Menlo, monospace">06-29</text><text x="313.8" y="248" text-anchor="middle" font-size="10" fill="#8c959f" font-family="ui-monospace, SFMono-Regular, 'SF Mono', Menlo, monospace">06-01</text><text x="750.1" y="248" text-anchor="middle" font-size="10" fill="#8c959f" font-family="ui-monospace, SFMono-Regular, 'SF Mono', Menlo, monospace">07-06</text><text x="401.1" y="248" text-anchor="middle" font-size="10" fill="#8c959f" font-family="ui-monospace, SFMono-Regular, 'SF Mono', Menlo, monospace">06-08</text>

  <!-- legend -->
  <rect x="60" y="262" width="16" height="3" fill="#4e79a7" rx="1"/><text x="80" y="268" font-size="11" fill="#57606a" font-family="-apple-system, BlinkMacSystemFont, 'Segoe UI', sans-serif">Total clones (93)</text><line x1="230" y1="264" x2="246" y2="264" stroke="#f28e2b" stroke-width="2" stroke-dasharray="5,3"/><text x="250" y="268" font-size="11" fill="#57606a" font-family="-apple-system, BlinkMacSystemFont, 'Segoe UI', sans-serif">Unique cloners</text>

</svg>