<svg xmlns="http://www.w3.org/2000/svg" viewBox="0 0 820 280" width="820" height="280">

  <!-- title -->
  <text x="52" y="18" font-size="13" font-weight="600"
        fill="#24292f" font-family="-apple-system, BlinkMacSystemFont, 'Segoe UI', sans-serif"
        >Clone traffic — ai-runner</text>
  <text x="800" y="18" font-size="10" fill="#8c959f"
        font-family="ui-monospace, SFMono-Regular, 'SF Mono', Menlo, monospace" text-anchor="end">2026-06-08</text>

  <!-- grid -->
  <line x1="52" y1="232.0" x2="800" y2="232.0" stroke="#e8e8e8" stroke-width="1"/><line x1="52" y1="196.0" x2="800" y2="196.0" stroke="#e8e8e8" stroke-width="1"/><line x1="52" y1="160.0" x2="800" y2="160.0" stroke="#e8e8e8" stroke-width="1"/><line x1="52" y1="124.0" x2="800" y2="124.0" stroke="#e8e8e8" stroke-width="1"/><line x1="52" y1="88.0" x2="800" y2="88.0" stroke="#e8e8e8" stroke-width="1"/><line x1="52" y1="52.0" x2="800" y2="52.0" stroke="#e8e8e8" stroke-width="1"/><line x1="52" y1="16.0" x2="800" y2="16.0" stroke="#e8e8e8" stroke-width="1"/>

  <!-- area fill -->
  <path d="M52.0,232.0 L52.0,232.0 L80.8,196.0 L109.5,184.0 L138.3,28.0 L167.1,196.0 L195.8,220.0 L224.6,220.0 L253.4,232.0 L282.2,232.0 L310.9,220.0 L339.7,232.0 L368.5,232.0 L397.2,232.0 L426.0,232.0 L454.8,232.0 L483.5,232.0 L512.3,232.0 L541.1,220.0 L569.8,208.0 L598.6,232.0 L627.4,208.0 L656.2,208.0 L684.9,232.0 L713.7,232.0 L742.5,232.0 L771.2,208.0 L800.0,232.0 L800.0,232.0 L52.0,232.0Z" fill="#4e79a7" opacity="0.12"/>

  <!-- lines -->
  <polyline points="52.0,232.0 80.8,196.0 109.5,184.0 138.3,28.0 167.1,196.0 195.8,220.0 224.6,220.0 253.4,232.0 282.2,232.0 310.9,220.0 339.7,232.0 368.5,232.0 397.2,232.0 426.0,232.0 454.8,232.0 483.5,232.0 512.3,232.0 541.1,220.0 569.8,208.0 598.6,232.0 627.4,208.0 656.2,208.0 684.9,232.0 713.7,232.0 742.5,232.0 771.2,208.0 800.0,232.0"
            fill="none" stroke="#4e79a7"
            stroke-width="2" stroke-linejoin="round"/>
  <polyline points="52.0,232.0 80.8,196.0 109.5,184.0 138.3,88.0 167.1,196.0 195.8,220.0 224.6,220.0 253.4,232.0 282.2,232.0 310.9,220.0 339.7,232.0 368.5,232.0 397.2,232.0 426.0,232.0 454.8,232.0 483.5,232.0 512.3,232.0 541.1,220.0 569.8,208.0 598.6,232.0 627.4,208.0 656.2,208.0 684.9,232.0 713.7,232.0 742.5,232.0 771.2,208.0 800.0,232.0"
            fill="none" stroke="#f28e2b"
            stroke-width="2" stroke-linejoin="round"
            stroke-dasharray="5,3"/>

  <!-- dots -->
  <circle cx="52.0" cy="232.0" r="3" fill="#4e79a7"/><circle cx="80.8" cy="196.0" r="3" fill="#4e79a7"/><circle cx="109.5" cy="184.0" r="3" fill="#4e79a7"/><circle cx="138.3" cy="28.0" r="3" fill="#4e79a7"/><circle cx="167.1" cy="196.0" r="3" fill="#4e79a7"/><circle cx="195.8" cy="220.0" r="3" fill="#4e79a7"/><circle cx="224.6" cy="220.0" r="3" fill="#4e79a7"/><circle cx="253.4" cy="232.0" r="3" fill="#4e79a7"/><circle cx="282.2" cy="232.0" r="3" fill="#4e79a7"/><circle cx="310.9" cy="220.0" r="3" fill="#4e79a7"/><circle cx="339.7" cy="232.0" r="3" fill="#4e79a7"/><circle cx="368.5" cy="232.0" r="3" fill="#4e79a7"/><circle cx="397.2" cy="232.0" r="3" fill="#4e79a7"/><circle cx="426.0" cy="232.0" r="3" fill="#4e79a7"/><circle cx="454.8" cy="232.0" r="3" fill="#4e79a7"/><circle cx="483.5" cy="232.0" r="3" fill="#4e79a7"/><circle cx="512.3" cy="232.0" r="3" fill="#4e79a7"/><circle cx="541.1" cy="220.0" r="3" fill="#4e79a7"/><circle cx="569.8" cy="208.0" r="3" fill="#4e79a7"/><circle cx="598.6" cy="232.0" r="3" fill="#4e79a7"/><circle cx="627.4" cy="208.0" r="3" fill="#4e79a7"/><circle cx="656.2" cy="208.0" r="3" fill="#4e79a7"/><circle cx="684.9" cy="232.0" r="3" fill="#4e79a7"/><circle cx="713.7" cy="232.0" r="3" fill="#4e79a7"/><circle cx="742.5" cy="232.0" r="3" fill="#4e79a7"/><circle cx="771.2" cy="208.0" r="3" fill="#4e79a7"/><circle cx="800.0" cy="232.0" r="3" fill="#4e79a7"/>
  <circle cx="52.0" cy="232.0" r="3" fill="#f28e2b"/><circle cx="80.8" cy="196.0" r="3" fill="#f28e2b"/><circle cx="109.5" cy="184.0" r="3" fill="#f28e2b"/><circle cx="138.3" cy="88.0" r="3" fill="#f28e2b"/><circle cx="167.1" cy="196.0" r="3" fill="#f28e2b"/><circle cx="195.8" cy="220.0" r="3" fill="#f28e2b"/><circle cx="224.6" cy="220.0" r="3" fill="#f28e2b"/><circle cx="253.4" cy="232.0" r="3" fill="#f28e2b"/><circle cx="282.2" cy="232.0" r="3" fill="#f28e2b"/><circle cx="310.9" cy="220.0" r="3" fill="#f28e2b"/><circle cx="339.7" cy="232.0" r="3" fill="#f28e2b"/><circle cx="368.5" cy="232.0" r="3" fill="#f28e2b"/><circle cx="397.2" cy="232.0" r="3" fill="#f28e2b"/><circle cx="426.0" cy="232.0" r="3" fill="#f28e2b"/><circle cx="454.8" cy="232.0" r="3" fill="#f28e2b"/><circle cx="483.5" cy="232.0" r="3" fill="#f28e2b"/><circle cx="512.3" cy="232.0" r="3" fill="#f28e2b"/><circle cx="541.1" cy="220.0" r="3" fill="#f28e2b"/><circle cx="569.8" cy="208.0" r="3" fill="#f28e2b"/><circle cx="598.6" cy="232.0" r="3" fill="#f28e2b"/><circle cx="627.4" cy="208.0" r="3" fill="#f28e2b"/><circle cx="656.2" cy="208.0" r="3" fill="#f28e2b"/><circle cx="684.9" cy="232.0" r="3" fill="#f28e2b"/><circle cx="713.7" cy="232.0" r="3" fill="#f28e2b"/><circle cx="742.5" cy="232.0" r="3" fill="#f28e2b"/><circle cx="771.2" cy="208.0" r="3" fill="#f28e2b"/><circle cx="800.0" cy="232.0" r="3" fill="#f28e2b"/>

  <!-- axes -->
  <line x1="52" y1="28" x2="52" y2="232"
        stroke="#cccccc" stroke-width="1"/>
  <line x1="52" y1="232" x2="800" y2="232"
        stroke="#cccccc" stroke-width="1"/>

  <!-- y-axis labels -->
  <text x="47" y="236.0" text-anchor="end" font-size="10" fill="#57606a" font-family="ui-monospace, SFMono-Regular, 'SF Mono', Menlo, monospace">0</text><text x="47" y="200.0" text-anchor="end" font-size="10" fill="#57606a" font-family="ui-monospace, SFMono-Regular, 'SF Mono', Menlo, monospace">3</text><text x="47" y="164.0" text-anchor="end" font-size="10" fill="#57606a" font-family="ui-monospace, SFMono-Regular, 'SF Mono', Menlo, monospace">6</text><text x="47" y="128.0" text-anchor="end" font-size="10" fill="#57606a" font-family="ui-monospace, SFMono-Regular, 'SF Mono', Menlo, monospace">9</text><text x="47" y="92.0" text-anchor="end" font-size="10" fill="#57606a" font-family="ui-monospace, SFMono-Regular, 'SF Mono', Menlo, monospace">12</text><text x="47" y="56.0" text-anchor="end" font-size="10" fill="#57606a" font-family="ui-monospace, SFMono-Regular, 'SF Mono', Menlo, monospace">15</text><text x="47" y="20.0" text-anchor="end" font-size="10" fill="#57606a" font-family="ui-monospace, SFMono-Regular, 'SF Mono', Menlo, monospace">18</text>

  <!-- x-axis labels -->
  <text x="52.0" y="248" text-anchor="middle" font-size="10" fill="#8c959f" font-family="ui-monospace, SFMono-Regular, 'SF Mono', Menlo, monospace">05-11</text><text x="138.3" y="248" text-anchor="middle" font-size="10" fill="#8c959f" font-family="ui-monospace, SFMono-Regular, 'SF Mono', Menlo, monospace">05-14</text><text x="224.6" y="248" text-anchor="middle" font-size="10" fill="#8c959f" font-family="ui-monospace, SFMono-Regular, 'SF Mono', Menlo, monospace">05-17</text><text x="310.9" y="248" text-anchor="middle" font-size="10" fill="#8c959f" font-family="ui-monospace, SFMono-Regular, 'SF Mono', Menlo, monospace">05-20</text><text x="397.2" y="248" text-anchor="middle" font-size="10" fill="#8c959f" font-family="ui-monospace, SFMono-Regular, 'SF Mono', Menlo, monospace">05-23</text><text x="483.5" y="248" text-anchor="middle" font-size="10" fill="#8c959f" font-family="ui-monospace, SFMono-Regular, 'SF Mono', Menlo, monospace">05-26</text><text x="569.8" y="248" text-anchor="middle" font-size="10" fill="#8c959f" font-family="ui-monospace, SFMono-Regular, 'SF Mono', Menlo, monospace">05-29</text><text x="656.2" y="248" text-anchor="middle" font-size="10" fill="#8c959f" font-family="ui-monospace, SFMono-Regular, 'SF Mono', Menlo, monospace">06-01</text><text x="742.5" y="248" text-anchor="middle" font-size="10" fill="#8c959f" font-family="ui-monospace, SFMono-Regular, 'SF Mono', Menlo, monospace">06-04</text><text x="800.0" y="248" text-anchor="middle" font-size="10" fill="#8c959f" font-family="ui-monospace, SFMono-Regular, 'SF Mono', Menlo, monospace">06-06</text>

  <!-- legend -->
  <rect x="60" y="262" width="16" height="3" fill="#4e79a7" rx="1"/><text x="80" y="268" font-size="11" fill="#57606a" font-family="-apple-system, BlinkMacSystemFont, 'Segoe UI', sans-serif">Total clones (39)</text><line x1="230" y1="264" x2="246" y2="264" stroke="#f28e2b" stroke-width="2" stroke-dasharray="5,3"/><text x="250" y="268" font-size="11" fill="#57606a" font-family="-apple-system, BlinkMacSystemFont, 'Segoe UI', sans-serif">Unique cloners</text>

</svg>