<svg xmlns="http://www.w3.org/2000/svg" viewBox="0 0 820 280" width="820" height="280">

  <!-- title -->
  <text x="52" y="18" font-size="13" font-weight="600"
        fill="#24292f" font-family="-apple-system, BlinkMacSystemFont, 'Segoe UI', sans-serif"
        >Clone traffic — ai-runner</text>
  <text x="800" y="18" font-size="10" fill="#8c959f"
        font-family="ui-monospace, SFMono-Regular, 'SF Mono', Menlo, monospace" text-anchor="end">2026-07-18</text>

  <!-- grid -->
  <line x1="52" y1="232.0" x2="800" y2="232.0" stroke="#e8e8e8" stroke-width="1"/><line x1="52" y1="191.2" x2="800" y2="191.2" stroke="#e8e8e8" stroke-width="1"/><line x1="52" y1="150.4" x2="800" y2="150.4" stroke="#e8e8e8" stroke-width="1"/><line x1="52" y1="109.6" x2="800" y2="109.6" stroke="#e8e8e8" stroke-width="1"/><line x1="52" y1="68.8" x2="800" y2="68.8" stroke="#e8e8e8" stroke-width="1"/><line x1="52" y1="28.0" x2="800" y2="28.0" stroke="#e8e8e8" stroke-width="1"/>

  <!-- area fill -->
  <path d="M52.0,232.0 L52.0,232.0 L63.3,201.4 L74.7,191.2 L86.0,58.6 L97.3,201.4 L108.7,221.8 L120.0,221.8 L131.3,232.0 L142.7,232.0 L154.0,221.8 L165.3,232.0 L176.7,232.0 L188.0,232.0 L199.3,232.0 L210.7,232.0 L222.0,232.0 L233.3,232.0 L244.7,221.8 L256.0,211.6 L267.3,232.0 L278.7,211.6 L290.0,211.6 L301.3,232.0 L312.7,232.0 L324.0,232.0 L335.3,211.6 L346.7,232.0 L358.0,221.8 L369.3,232.0 L380.7,191.2 L392.0,221.8 L403.3,232.0 L414.7,232.0 L426.0,232.0 L437.3,232.0 L448.7,211.6 L460.0,232.0 L471.3,232.0 L482.7,211.6 L494.0,221.8 L505.3,211.6 L516.7,191.2 L528.0,28.0 L539.3,232.0 L550.7,170.8 L562.0,211.6 L573.3,232.0 L584.7,221.8 L596.0,232.0 L607.3,232.0 L618.7,221.8 L630.0,232.0 L641.3,232.0 L652.7,221.8 L664.0,201.4 L675.3,232.0 L686.7,211.6 L698.0,232.0 L709.3,232.0 L720.7,221.8 L732.0,232.0 L743.3,221.8 L754.7,232.0 L766.0,232.0 L777.3,232.0 L788.7,232.0 L800.0,232.0 L800.0,232.0 L52.0,232.0Z" fill="#4e79a7" opacity="0.12"/>

  <!-- lines -->
  <polyline points="52.0,232.0 63.3,201.4 74.7,191.2 86.0,58.6 97.3,201.4 108.7,221.8 120.0,221.8 131.3,232.0 142.7,232.0 154.0,221.8 165.3,232.0 176.7,232.0 188.0,232.0 199.3,232.0 210.7,232.0 222.0,232.0 233.3,232.0 244.7,221.8 256.0,211.6 267.3,232.0 278.7,211.6 290.0,211.6 301.3,232.0 312.7,232.0 324.0,232.0 335.3,211.6 346.7,232.0 358.0,221.8 369.3,232.0 380.7,191.2 392.0,221.8 403.3,232.0 414.7,232.0 426.0,232.0 437.3,232.0 448.7,211.6 460.0,232.0 471.3,232.0 482.7,211.6 494.0,221.8 505.3,211.6 516.7,191.2 528.0,28.0 539.3,232.0 550.7,170.8 562.0,211.6 573.3,232.0 584.7,221.8 596.0,232.0 607.3,232.0 618.7,221.8 630.0,232.0 641.3,232.0 652.7,221.8 664.0,201.4 675.3,232.0 686.7,211.6 698.0,232.0 709.3,232.0 720.7,221.8 732.0,232.0 743.3,221.8 754.7,232.0 766.0,232.0 777.3,232.0 788.7,232.0 800.0,232.0"
            fill="none" stroke="#4e79a7"
            stroke-width="2" stroke-linejoin="round"/>
  <polyline points="52.0,232.0 63.3,201.4 74.7,191.2 86.0,109.6 97.3,201.4 108.7,221.8 120.0,221.8 131.3,232.0 142.7,232.0 154.0,221.8 165.3,232.0 176.7,232.0 188.0,232.0 199.3,232.0 210.7,232.0 222.0,232.0 233.3,232.0 244.7,221.8 256.0,211.6 267.3,232.0 278.7,211.6 290.0,211.6 301.3,232.0 312.7,232.0 324.0,232.0 335.3,211.6 346.7,232.0 358.0,221.8 369.3,232.0 380.7,201.4 392.0,221.8 403.3,232.0 414.7,232.0 426.0,232.0 437.3,232.0 448.7,211.6 460.0,232.0 471.3,232.0 482.7,211.6 494.0,221.8 505.3,211.6 516.7,221.8 528.0,181.0 539.3,232.0 550.7,221.8 562.0,211.6 573.3,232.0 584.7,221.8 596.0,232.0 607.3,232.0 618.7,221.8 630.0,232.0 641.3,232.0 652.7,221.8 664.0,211.6 675.3,232.0 686.7,211.6 698.0,232.0 709.3,232.0 720.7,221.8 732.0,232.0 743.3,221.8 754.7,232.0 766.0,232.0 777.3,232.0 788.7,232.0 800.0,232.0"
            fill="none" stroke="#f28e2b"
            stroke-width="2" stroke-linejoin="round"
            stroke-dasharray="5,3"/>

  <!-- dots -->
  <circle cx="52.0" cy="232.0" r="3" fill="#4e79a7"/><circle cx="63.3" cy="201.4" r="3" fill="#4e79a7"/><circle cx="74.7" cy="191.2" r="3" fill="#4e79a7"/><circle cx="86.0" cy="58.6" r="3" fill="#4e79a7"/><circle cx="97.3" cy="201.4" r="3" fill="#4e79a7"/><circle cx="108.7" cy="221.8" r="3" fill="#4e79a7"/><circle cx="120.0" cy="221.8" r="3" fill="#4e79a7"/><circle cx="131.3" cy="232.0" r="3" fill="#4e79a7"/><circle cx="142.7" cy="232.0" r="3" fill="#4e79a7"/><circle cx="154.0" cy="221.8" r="3" fill="#4e79a7"/><circle cx="165.3" cy="232.0" r="3" fill="#4e79a7"/><circle cx="176.7" cy="232.0" r="3" fill="#4e79a7"/><circle cx="188.0" cy="232.0" r="3" fill="#4e79a7"/><circle cx="199.3" cy="232.0" r="3" fill="#4e79a7"/><circle cx="210.7" cy="232.0" r="3" fill="#4e79a7"/><circle cx="222.0" cy="232.0" r="3" fill="#4e79a7"/><circle cx="233.3" cy="232.0" r="3" fill="#4e79a7"/><circle cx="244.7" cy="221.8" r="3" fill="#4e79a7"/><circle cx="256.0" cy="211.6" r="3" fill="#4e79a7"/><circle cx="267.3" cy="232.0" r="3" fill="#4e79a7"/><circle cx="278.7" cy="211.6" r="3" fill="#4e79a7"/><circle cx="290.0" cy="211.6" r="3" fill="#4e79a7"/><circle cx="301.3" cy="232.0" r="3" fill="#4e79a7"/><circle cx="312.7" cy="232.0" r="3" fill="#4e79a7"/><circle cx="324.0" cy="232.0" r="3" fill="#4e79a7"/><circle cx="335.3" cy="211.6" r="3" fill="#4e79a7"/><circle cx="346.7" cy="232.0" r="3" fill="#4e79a7"/><circle cx="358.0" cy="221.8" r="3" fill="#4e79a7"/><circle cx="369.3" cy="232.0" r="3" fill="#4e79a7"/><circle cx="380.7" cy="191.2" r="3" fill="#4e79a7"/><circle cx="392.0" cy="221.8" r="3" fill="#4e79a7"/><circle cx="403.3" cy="232.0" r="3" fill="#4e79a7"/><circle cx="414.7" cy="232.0" r="3" fill="#4e79a7"/><circle cx="426.0" cy="232.0" r="3" fill="#4e79a7"/><circle cx="437.3" cy="232.0" r="3" fill="#4e79a7"/><circle cx="448.7" cy="211.6" r="3" fill="#4e79a7"/><circle cx="460.0" cy="232.0" r="3" fill="#4e79a7"/><circle cx="471.3" cy="232.0" r="3" fill="#4e79a7"/><circle cx="482.7" cy="211.6" r="3" fill="#4e79a7"/><circle cx="494.0" cy="221.8" r="3" fill="#4e79a7"/><circle cx="505.3" cy="211.6" r="3" fill="#4e79a7"/><circle cx="516.7" cy="191.2" r="3" fill="#4e79a7"/><circle cx="528.0" cy="28.0" r="3" fill="#4e79a7"/><circle cx="539.3" cy="232.0" r="3" fill="#4e79a7"/><circle cx="550.7" cy="170.8" r="3" fill="#4e79a7"/><circle cx="562.0" cy="211.6" r="3" fill="#4e79a7"/><circle cx="573.3" cy="232.0" r="3" fill="#4e79a7"/><circle cx="584.7" cy="221.8" r="3" fill="#4e79a7"/><circle cx="596.0" cy="232.0" r="3" fill="#4e79a7"/><circle cx="607.3" cy="232.0" r="3" fill="#4e79a7"/><circle cx="618.7" cy="221.8" r="3" fill="#4e79a7"/><circle cx="630.0" cy="232.0" r="3" fill="#4e79a7"/><circle cx="641.3" cy="232.0" r="3" fill="#4e79a7"/><circle cx="652.7" cy="221.8" r="3" fill="#4e79a7"/><circle cx="664.0" cy="201.4" r="3" fill="#4e79a7"/><circle cx="675.3" cy="232.0" r="3" fill="#4e79a7"/><circle cx="686.7" cy="211.6" r="3" fill="#4e79a7"/><circle cx="698.0" cy="232.0" r="3" fill="#4e79a7"/><circle cx="709.3" cy="232.0" r="3" fill="#4e79a7"/><circle cx="720.7" cy="221.8" r="3" fill="#4e79a7"/><circle cx="732.0" cy="232.0" r="3" fill="#4e79a7"/><circle cx="743.3" cy="221.8" r="3" fill="#4e79a7"/><circle cx="754.7" cy="232.0" r="3" fill="#4e79a7"/><circle cx="766.0" cy="232.0" r="3" fill="#4e79a7"/><circle cx="777.3" cy="232.0" r="3" fill="#4e79a7"/><circle cx="788.7" cy="232.0" r="3" fill="#4e79a7"/><circle cx="800.0" cy="232.0" r="3" fill="#4e79a7"/>
  <circle cx="52.0" cy="232.0" r="3" fill="#f28e2b"/><circle cx="63.3" cy="201.4" r="3" fill="#f28e2b"/><circle cx="74.7" cy="191.2" r="3" fill="#f28e2b"/><circle cx="86.0" cy="109.6" r="3" fill="#f28e2b"/><circle cx="97.3" cy="201.4" r="3" fill="#f28e2b"/><circle cx="108.7" cy="221.8" r="3" fill="#f28e2b"/><circle cx="120.0" cy="221.8" r="3" fill="#f28e2b"/><circle cx="131.3" cy="232.0" r="3" fill="#f28e2b"/><circle cx="142.7" cy="232.0" r="3" fill="#f28e2b"/><circle cx="154.0" cy="221.8" r="3" fill="#f28e2b"/><circle cx="165.3" cy="232.0" r="3" fill="#f28e2b"/><circle cx="176.7" cy="232.0" r="3" fill="#f28e2b"/><circle cx="188.0" cy="232.0" r="3" fill="#f28e2b"/><circle cx="199.3" cy="232.0" r="3" fill="#f28e2b"/><circle cx="210.7" cy="232.0" r="3" fill="#f28e2b"/><circle cx="222.0" cy="232.0" r="3" fill="#f28e2b"/><circle cx="233.3" cy="232.0" r="3" fill="#f28e2b"/><circle cx="244.7" cy="221.8" r="3" fill="#f28e2b"/><circle cx="256.0" cy="211.6" r="3" fill="#f28e2b"/><circle cx="267.3" cy="232.0" r="3" fill="#f28e2b"/><circle cx="278.7" cy="211.6" r="3" fill="#f28e2b"/><circle cx="290.0" cy="211.6" r="3" fill="#f28e2b"/><circle cx="301.3" cy="232.0" r="3" fill="#f28e2b"/><circle cx="312.7" cy="232.0" r="3" fill="#f28e2b"/><circle cx="324.0" cy="232.0" r="3" fill="#f28e2b"/><circle cx="335.3" cy="211.6" r="3" fill="#f28e2b"/><circle cx="346.7" cy="232.0" r="3" fill="#f28e2b"/><circle cx="358.0" cy="221.8" r="3" fill="#f28e2b"/><circle cx="369.3" cy="232.0" r="3" fill="#f28e2b"/><circle cx="380.7" cy="201.4" r="3" fill="#f28e2b"/><circle cx="392.0" cy="221.8" r="3" fill="#f28e2b"/><circle cx="403.3" cy="232.0" r="3" fill="#f28e2b"/><circle cx="414.7" cy="232.0" r="3" fill="#f28e2b"/><circle cx="426.0" cy="232.0" r="3" fill="#f28e2b"/><circle cx="437.3" cy="232.0" r="3" fill="#f28e2b"/><circle cx="448.7" cy="211.6" r="3" fill="#f28e2b"/><circle cx="460.0" cy="232.0" r="3" fill="#f28e2b"/><circle cx="471.3" cy="232.0" r="3" fill="#f28e2b"/><circle cx="482.7" cy="211.6" r="3" fill="#f28e2b"/><circle cx="494.0" cy="221.8" r="3" fill="#f28e2b"/><circle cx="505.3" cy="211.6" r="3" fill="#f28e2b"/><circle cx="516.7" cy="221.8" r="3" fill="#f28e2b"/><circle cx="528.0" cy="181.0" r="3" fill="#f28e2b"/><circle cx="539.3" cy="232.0" r="3" fill="#f28e2b"/><circle cx="550.7" cy="221.8" r="3" fill="#f28e2b"/><circle cx="562.0" cy="211.6" r="3" fill="#f28e2b"/><circle cx="573.3" cy="232.0" r="3" fill="#f28e2b"/><circle cx="584.7" cy="221.8" r="3" fill="#f28e2b"/><circle cx="596.0" cy="232.0" r="3" fill="#f28e2b"/><circle cx="607.3" cy="232.0" r="3" fill="#f28e2b"/><circle cx="618.7" cy="221.8" r="3" fill="#f28e2b"/><circle cx="630.0" cy="232.0" r="3" fill="#f28e2b"/><circle cx="641.3" cy="232.0" r="3" fill="#f28e2b"/><circle cx="652.7" cy="221.8" r="3" fill="#f28e2b"/><circle cx="664.0" cy="211.6" r="3" fill="#f28e2b"/><circle cx="675.3" cy="232.0" r="3" fill="#f28e2b"/><circle cx="686.7" cy="211.6" r="3" fill="#f28e2b"/><circle cx="698.0" cy="232.0" r="3" fill="#f28e2b"/><circle cx="709.3" cy="232.0" r="3" fill="#f28e2b"/><circle cx="720.7" cy="221.8" r="3" fill="#f28e2b"/><circle cx="732.0" cy="232.0" r="3" fill="#f28e2b"/><circle cx="743.3" cy="221.8" r="3" fill="#f28e2b"/><circle cx="754.7" cy="232.0" r="3" fill="#f28e2b"/><circle cx="766.0" cy="232.0" r="3" fill="#f28e2b"/><circle cx="777.3" cy="232.0" r="3" fill="#f28e2b"/><circle cx="788.7" cy="232.0" r="3" fill="#f28e2b"/><circle cx="800.0" cy="232.0" r="3" fill="#f28e2b"/>

  <!-- axes -->
  <line x1="52" y1="28" x2="52" y2="232"
        stroke="#cccccc" stroke-width="1"/>
  <line x1="52" y1="232" x2="800" y2="232"
        stroke="#cccccc" stroke-width="1"/>

  <!-- y-axis labels -->
  <text x="47" y="236.0" text-anchor="end" font-size="10" fill="#57606a" font-family="ui-monospace, SFMono-Regular, 'SF Mono', Menlo, monospace">0</text><text x="47" y="195.2" text-anchor="end" font-size="10" fill="#57606a" font-family="ui-monospace, SFMono-Regular, 'SF Mono', Menlo, monospace">4</text><text x="47" y="154.4" text-anchor="end" font-size="10" fill="#57606a" font-family="ui-monospace, SFMono-Regular, 'SF Mono', Menlo, monospace">8</text><text x="47" y="113.6" text-anchor="end" font-size="10" fill="#57606a" font-family="ui-monospace, SFMono-Regular, 'SF Mono', Menlo, monospace">12</text><text x="47" y="72.8" text-anchor="end" font-size="10" fill="#57606a" font-family="ui-monospace, SFMono-Regular, 'SF Mono', Menlo, monospace">16</text><text x="47" y="32.0" text-anchor="end" font-size="10" fill="#57606a" font-family="ui-monospace, SFMono-Regular, 'SF Mono', Menlo, monospace">20</text>

  <!-- x-axis labels -->
  <text x="52.0" y="248" text-anchor="middle" font-size="10" fill="#8c959f" font-family="ui-monospace, SFMono-Regular, 'SF Mono', Menlo, monospace">05-11</text><text x="414.7" y="248" text-anchor="middle" font-size="10" fill="#8c959f" font-family="ui-monospace, SFMono-Regular, 'SF Mono', Menlo, monospace">06-12</text><text x="777.3" y="248" text-anchor="middle" font-size="10" fill="#8c959f" font-family="ui-monospace, SFMono-Regular, 'SF Mono', Menlo, monospace">07-14</text><text x="800.0" y="248" text-anchor="middle" font-size="10" fill="#8c959f" font-family="ui-monospace, SFMono-Regular, 'SF Mono', Menlo, monospace">07-16</text><text x="142.7" y="248" text-anchor="middle" font-size="10" fill="#8c959f" font-family="ui-monospace, SFMono-Regular, 'SF Mono', Menlo, monospace">05-19</text><text x="505.3" y="248" text-anchor="middle" font-size="10" fill="#8c959f" font-family="ui-monospace, SFMono-Regular, 'SF Mono', Menlo, monospace">06-20</text><text x="233.3" y="248" text-anchor="middle" font-size="10" fill="#8c959f" font-family="ui-monospace, SFMono-Regular, 'SF Mono', Menlo, monospace">05-27</text><text x="596.0" y="248" text-anchor="middle" font-size="10" fill="#8c959f" font-family="ui-monospace, SFMono-Regular, 'SF Mono', Menlo, monospace">06-28</text><text x="324.0" y="248" text-anchor="middle" font-size="10" fill="#8c959f" font-family="ui-monospace, SFMono-Regular, 'SF Mono', Menlo, monospace">06-04</text><text x="686.7" y="248" text-anchor="middle" font-size="10" fill="#8c959f" font-family="ui-monospace, SFMono-Regular, 'SF Mono', Menlo, monospace">07-06</text>

  <!-- legend -->
  <rect x="60" y="262" width="16" height="3" fill="#4e79a7" rx="1"/><text x="80" y="268" font-size="11" fill="#57606a" font-family="-apple-system, BlinkMacSystemFont, 'Segoe UI', sans-serif">Total clones (94)</text><line x1="230" y1="264" x2="246" y2="264" stroke="#f28e2b" stroke-width="2" stroke-dasharray="5,3"/><text x="250" y="268" font-size="11" fill="#57606a" font-family="-apple-system, BlinkMacSystemFont, 'Segoe UI', sans-serif">Unique cloners</text>

</svg>