<svg xmlns="http://www.w3.org/2000/svg" viewBox="0 0 820 280" width="820" height="280">

  <!-- title -->
  <text x="52" y="18" font-size="13" font-weight="600"
        fill="#24292f" font-family="-apple-system, BlinkMacSystemFont, 'Segoe UI', sans-serif"
        >Clone traffic — ai-runner</text>
  <text x="800" y="18" font-size="10" fill="#8c959f"
        font-family="ui-monospace, SFMono-Regular, 'SF Mono', Menlo, monospace" text-anchor="end">2026-07-06</text>

  <!-- grid -->
  <line x1="52" y1="232.0" x2="800" y2="232.0" stroke="#e8e8e8" stroke-width="1"/><line x1="52" y1="191.2" x2="800" y2="191.2" stroke="#e8e8e8" stroke-width="1"/><line x1="52" y1="150.4" x2="800" y2="150.4" stroke="#e8e8e8" stroke-width="1"/><line x1="52" y1="109.6" x2="800" y2="109.6" stroke="#e8e8e8" stroke-width="1"/><line x1="52" y1="68.8" x2="800" y2="68.8" stroke="#e8e8e8" stroke-width="1"/><line x1="52" y1="28.0" x2="800" y2="28.0" stroke="#e8e8e8" stroke-width="1"/>

  <!-- area fill -->
  <path d="M52.0,232.0 L52.0,232.0 L65.9,201.4 L79.7,191.2 L93.6,58.6 L107.4,201.4 L121.3,221.8 L135.1,221.8 L149.0,232.0 L162.8,232.0 L176.7,221.8 L190.5,232.0 L204.4,232.0 L218.2,232.0 L232.1,232.0 L245.9,232.0 L259.8,232.0 L273.6,232.0 L287.5,221.8 L301.3,211.6 L315.2,232.0 L329.0,211.6 L342.9,211.6 L356.7,232.0 L370.6,232.0 L384.4,232.0 L398.3,211.6 L412.1,232.0 L426.0,221.8 L439.9,232.0 L453.7,191.2 L467.6,221.8 L481.4,232.0 L495.3,232.0 L509.1,232.0 L523.0,232.0 L536.8,211.6 L550.7,232.0 L564.5,232.0 L578.4,211.6 L592.2,221.8 L606.1,211.6 L619.9,191.2 L633.8,28.0 L647.6,232.0 L661.5,170.8 L675.3,211.6 L689.2,232.0 L703.0,221.8 L716.9,232.0 L730.7,232.0 L744.6,221.8 L758.4,232.0 L772.3,232.0 L786.1,221.8 L800.0,201.4 L800.0,232.0 L52.0,232.0Z" fill="#4e79a7" opacity="0.12"/>

  <!-- lines -->
  <polyline points="52.0,232.0 65.9,201.4 79.7,191.2 93.6,58.6 107.4,201.4 121.3,221.8 135.1,221.8 149.0,232.0 162.8,232.0 176.7,221.8 190.5,232.0 204.4,232.0 218.2,232.0 232.1,232.0 245.9,232.0 259.8,232.0 273.6,232.0 287.5,221.8 301.3,211.6 315.2,232.0 329.0,211.6 342.9,211.6 356.7,232.0 370.6,232.0 384.4,232.0 398.3,211.6 412.1,232.0 426.0,221.8 439.9,232.0 453.7,191.2 467.6,221.8 481.4,232.0 495.3,232.0 509.1,232.0 523.0,232.0 536.8,211.6 550.7,232.0 564.5,232.0 578.4,211.6 592.2,221.8 606.1,211.6 619.9,191.2 633.8,28.0 647.6,232.0 661.5,170.8 675.3,211.6 689.2,232.0 703.0,221.8 716.9,232.0 730.7,232.0 744.6,221.8 758.4,232.0 772.3,232.0 786.1,221.8 800.0,201.4"
            fill="none" stroke="#4e79a7"
            stroke-width="2" stroke-linejoin="round"/>
  <polyline points="52.0,232.0 65.9,201.4 79.7,191.2 93.6,109.6 107.4,201.4 121.3,221.8 135.1,221.8 149.0,232.0 162.8,232.0 176.7,221.8 190.5,232.0 204.4,232.0 218.2,232.0 232.1,232.0 245.9,232.0 259.8,232.0 273.6,232.0 287.5,221.8 301.3,211.6 315.2,232.0 329.0,211.6 342.9,211.6 356.7,232.0 370.6,232.0 384.4,232.0 398.3,211.6 412.1,232.0 426.0,221.8 439.9,232.0 453.7,201.4 467.6,221.8 481.4,232.0 495.3,232.0 509.1,232.0 523.0,232.0 536.8,211.6 550.7,232.0 564.5,232.0 578.4,211.6 592.2,221.8 606.1,211.6 619.9,221.8 633.8,181.0 647.6,232.0 661.5,221.8 675.3,211.6 689.2,232.0 703.0,221.8 716.9,232.0 730.7,232.0 744.6,221.8 758.4,232.0 772.3,232.0 786.1,221.8 800.0,211.6"
            fill="none" stroke="#f28e2b"
            stroke-width="2" stroke-linejoin="round"
            stroke-dasharray="5,3"/>

  <!-- dots -->
  <circle cx="52.0" cy="232.0" r="3" fill="#4e79a7"/><circle cx="65.9" cy="201.4" r="3" fill="#4e79a7"/><circle cx="79.7" cy="191.2" r="3" fill="#4e79a7"/><circle cx="93.6" cy="58.6" r="3" fill="#4e79a7"/><circle cx="107.4" cy="201.4" r="3" fill="#4e79a7"/><circle cx="121.3" cy="221.8" r="3" fill="#4e79a7"/><circle cx="135.1" cy="221.8" r="3" fill="#4e79a7"/><circle cx="149.0" cy="232.0" r="3" fill="#4e79a7"/><circle cx="162.8" cy="232.0" r="3" fill="#4e79a7"/><circle cx="176.7" cy="221.8" r="3" fill="#4e79a7"/><circle cx="190.5" cy="232.0" r="3" fill="#4e79a7"/><circle cx="204.4" cy="232.0" r="3" fill="#4e79a7"/><circle cx="218.2" cy="232.0" r="3" fill="#4e79a7"/><circle cx="232.1" cy="232.0" r="3" fill="#4e79a7"/><circle cx="245.9" cy="232.0" r="3" fill="#4e79a7"/><circle cx="259.8" cy="232.0" r="3" fill="#4e79a7"/><circle cx="273.6" cy="232.0" r="3" fill="#4e79a7"/><circle cx="287.5" cy="221.8" r="3" fill="#4e79a7"/><circle cx="301.3" cy="211.6" r="3" fill="#4e79a7"/><circle cx="315.2" cy="232.0" r="3" fill="#4e79a7"/><circle cx="329.0" cy="211.6" r="3" fill="#4e79a7"/><circle cx="342.9" cy="211.6" r="3" fill="#4e79a7"/><circle cx="356.7" cy="232.0" r="3" fill="#4e79a7"/><circle cx="370.6" cy="232.0" r="3" fill="#4e79a7"/><circle cx="384.4" cy="232.0" r="3" fill="#4e79a7"/><circle cx="398.3" cy="211.6" r="3" fill="#4e79a7"/><circle cx="412.1" cy="232.0" r="3" fill="#4e79a7"/><circle cx="426.0" cy="221.8" r="3" fill="#4e79a7"/><circle cx="439.9" cy="232.0" r="3" fill="#4e79a7"/><circle cx="453.7" cy="191.2" r="3" fill="#4e79a7"/><circle cx="467.6" cy="221.8" r="3" fill="#4e79a7"/><circle cx="481.4" cy="232.0" r="3" fill="#4e79a7"/><circle cx="495.3" cy="232.0" r="3" fill="#4e79a7"/><circle cx="509.1" cy="232.0" r="3" fill="#4e79a7"/><circle cx="523.0" cy="232.0" r="3" fill="#4e79a7"/><circle cx="536.8" cy="211.6" r="3" fill="#4e79a7"/><circle cx="550.7" cy="232.0" r="3" fill="#4e79a7"/><circle cx="564.5" cy="232.0" r="3" fill="#4e79a7"/><circle cx="578.4" cy="211.6" r="3" fill="#4e79a7"/><circle cx="592.2" cy="221.8" r="3" fill="#4e79a7"/><circle cx="606.1" cy="211.6" r="3" fill="#4e79a7"/><circle cx="619.9" cy="191.2" r="3" fill="#4e79a7"/><circle cx="633.8" cy="28.0" r="3" fill="#4e79a7"/><circle cx="647.6" cy="232.0" r="3" fill="#4e79a7"/><circle cx="661.5" cy="170.8" r="3" fill="#4e79a7"/><circle cx="675.3" cy="211.6" r="3" fill="#4e79a7"/><circle cx="689.2" cy="232.0" r="3" fill="#4e79a7"/><circle cx="703.0" cy="221.8" r="3" fill="#4e79a7"/><circle cx="716.9" cy="232.0" r="3" fill="#4e79a7"/><circle cx="730.7" cy="232.0" r="3" fill="#4e79a7"/><circle cx="744.6" cy="221.8" r="3" fill="#4e79a7"/><circle cx="758.4" cy="232.0" r="3" fill="#4e79a7"/><circle cx="772.3" cy="232.0" r="3" fill="#4e79a7"/><circle cx="786.1" cy="221.8" r="3" fill="#4e79a7"/><circle cx="800.0" cy="201.4" r="3" fill="#4e79a7"/>
  <circle cx="52.0" cy="232.0" r="3" fill="#f28e2b"/><circle cx="65.9" cy="201.4" r="3" fill="#f28e2b"/><circle cx="79.7" cy="191.2" r="3" fill="#f28e2b"/><circle cx="93.6" cy="109.6" r="3" fill="#f28e2b"/><circle cx="107.4" cy="201.4" r="3" fill="#f28e2b"/><circle cx="121.3" cy="221.8" r="3" fill="#f28e2b"/><circle cx="135.1" cy="221.8" r="3" fill="#f28e2b"/><circle cx="149.0" cy="232.0" r="3" fill="#f28e2b"/><circle cx="162.8" cy="232.0" r="3" fill="#f28e2b"/><circle cx="176.7" cy="221.8" r="3" fill="#f28e2b"/><circle cx="190.5" cy="232.0" r="3" fill="#f28e2b"/><circle cx="204.4" cy="232.0" r="3" fill="#f28e2b"/><circle cx="218.2" cy="232.0" r="3" fill="#f28e2b"/><circle cx="232.1" cy="232.0" r="3" fill="#f28e2b"/><circle cx="245.9" cy="232.0" r="3" fill="#f28e2b"/><circle cx="259.8" cy="232.0" r="3" fill="#f28e2b"/><circle cx="273.6" cy="232.0" r="3" fill="#f28e2b"/><circle cx="287.5" cy="221.8" r="3" fill="#f28e2b"/><circle cx="301.3" cy="211.6" r="3" fill="#f28e2b"/><circle cx="315.2" cy="232.0" r="3" fill="#f28e2b"/><circle cx="329.0" cy="211.6" r="3" fill="#f28e2b"/><circle cx="342.9" cy="211.6" r="3" fill="#f28e2b"/><circle cx="356.7" cy="232.0" r="3" fill="#f28e2b"/><circle cx="370.6" cy="232.0" r="3" fill="#f28e2b"/><circle cx="384.4" cy="232.0" r="3" fill="#f28e2b"/><circle cx="398.3" cy="211.6" r="3" fill="#f28e2b"/><circle cx="412.1" cy="232.0" r="3" fill="#f28e2b"/><circle cx="426.0" cy="221.8" r="3" fill="#f28e2b"/><circle cx="439.9" cy="232.0" r="3" fill="#f28e2b"/><circle cx="453.7" cy="201.4" r="3" fill="#f28e2b"/><circle cx="467.6" cy="221.8" r="3" fill="#f28e2b"/><circle cx="481.4" cy="232.0" r="3" fill="#f28e2b"/><circle cx="495.3" cy="232.0" r="3" fill="#f28e2b"/><circle cx="509.1" cy="232.0" r="3" fill="#f28e2b"/><circle cx="523.0" cy="232.0" r="3" fill="#f28e2b"/><circle cx="536.8" cy="211.6" r="3" fill="#f28e2b"/><circle cx="550.7" cy="232.0" r="3" fill="#f28e2b"/><circle cx="564.5" cy="232.0" r="3" fill="#f28e2b"/><circle cx="578.4" cy="211.6" r="3" fill="#f28e2b"/><circle cx="592.2" cy="221.8" r="3" fill="#f28e2b"/><circle cx="606.1" cy="211.6" r="3" fill="#f28e2b"/><circle cx="619.9" cy="221.8" r="3" fill="#f28e2b"/><circle cx="633.8" cy="181.0" r="3" fill="#f28e2b"/><circle cx="647.6" cy="232.0" r="3" fill="#f28e2b"/><circle cx="661.5" cy="221.8" r="3" fill="#f28e2b"/><circle cx="675.3" cy="211.6" r="3" fill="#f28e2b"/><circle cx="689.2" cy="232.0" r="3" fill="#f28e2b"/><circle cx="703.0" cy="221.8" r="3" fill="#f28e2b"/><circle cx="716.9" cy="232.0" r="3" fill="#f28e2b"/><circle cx="730.7" cy="232.0" r="3" fill="#f28e2b"/><circle cx="744.6" cy="221.8" r="3" fill="#f28e2b"/><circle cx="758.4" cy="232.0" r="3" fill="#f28e2b"/><circle cx="772.3" cy="232.0" r="3" fill="#f28e2b"/><circle cx="786.1" cy="221.8" r="3" fill="#f28e2b"/><circle cx="800.0" cy="211.6" r="3" fill="#f28e2b"/>

  <!-- axes -->
  <line x1="52" y1="28" x2="52" y2="232"
        stroke="#cccccc" stroke-width="1"/>
  <line x1="52" y1="232" x2="800" y2="232"
        stroke="#cccccc" stroke-width="1"/>

  <!-- y-axis labels -->
  <text x="47" y="236.0" text-anchor="end" font-size="10" fill="#57606a" font-family="ui-monospace, SFMono-Regular, 'SF Mono', Menlo, monospace">0</text><text x="47" y="195.2" text-anchor="end" font-size="10" fill="#57606a" font-family="ui-monospace, SFMono-Regular, 'SF Mono', Menlo, monospace">4</text><text x="47" y="154.4" text-anchor="end" font-size="10" fill="#57606a" font-family="ui-monospace, SFMono-Regular, 'SF Mono', Menlo, monospace">8</text><text x="47" y="113.6" text-anchor="end" font-size="10" fill="#57606a" font-family="ui-monospace, SFMono-Regular, 'SF Mono', Menlo, monospace">12</text><text x="47" y="72.8" text-anchor="end" font-size="10" fill="#57606a" font-family="ui-monospace, SFMono-Regular, 'SF Mono', Menlo, monospace">16</text><text x="47" y="32.0" text-anchor="end" font-size="10" fill="#57606a" font-family="ui-monospace, SFMono-Regular, 'SF Mono', Menlo, monospace">20</text>

  <!-- x-axis labels -->
  <text x="52.0" y="248" text-anchor="middle" font-size="10" fill="#8c959f" font-family="ui-monospace, SFMono-Regular, 'SF Mono', Menlo, monospace">05-11</text><text x="550.7" y="248" text-anchor="middle" font-size="10" fill="#8c959f" font-family="ui-monospace, SFMono-Regular, 'SF Mono', Menlo, monospace">06-16</text><text x="135.1" y="248" text-anchor="middle" font-size="10" fill="#8c959f" font-family="ui-monospace, SFMono-Regular, 'SF Mono', Menlo, monospace">05-17</text><text x="633.8" y="248" text-anchor="middle" font-size="10" fill="#8c959f" font-family="ui-monospace, SFMono-Regular, 'SF Mono', Menlo, monospace">06-22</text><text x="218.2" y="248" text-anchor="middle" font-size="10" fill="#8c959f" font-family="ui-monospace, SFMono-Regular, 'SF Mono', Menlo, monospace">05-23</text><text x="716.9" y="248" text-anchor="middle" font-size="10" fill="#8c959f" font-family="ui-monospace, SFMono-Regular, 'SF Mono', Menlo, monospace">06-28</text><text x="301.3" y="248" text-anchor="middle" font-size="10" fill="#8c959f" font-family="ui-monospace, SFMono-Regular, 'SF Mono', Menlo, monospace">05-29</text><text x="800.0" y="248" text-anchor="middle" font-size="10" fill="#8c959f" font-family="ui-monospace, SFMono-Regular, 'SF Mono', Menlo, monospace">07-04</text><text x="384.4" y="248" text-anchor="middle" font-size="10" fill="#8c959f" font-family="ui-monospace, SFMono-Regular, 'SF Mono', Menlo, monospace">06-04</text><text x="467.6" y="248" text-anchor="middle" font-size="10" fill="#8c959f" font-family="ui-monospace, SFMono-Regular, 'SF Mono', Menlo, monospace">06-10</text>

  <!-- legend -->
  <rect x="60" y="262" width="16" height="3" fill="#4e79a7" rx="1"/><text x="80" y="268" font-size="11" fill="#57606a" font-family="-apple-system, BlinkMacSystemFont, 'Segoe UI', sans-serif">Total clones (90)</text><line x1="230" y1="264" x2="246" y2="264" stroke="#f28e2b" stroke-width="2" stroke-dasharray="5,3"/><text x="250" y="268" font-size="11" fill="#57606a" font-family="-apple-system, BlinkMacSystemFont, 'Segoe UI', sans-serif">Unique cloners</text>

</svg>