<svg xmlns="http://www.w3.org/2000/svg" viewBox="0 0 820 280" width="820" height="280">

  <!-- title -->
  <text x="52" y="18" font-size="13" font-weight="600"
        fill="#24292f" font-family="-apple-system, BlinkMacSystemFont, 'Segoe UI', sans-serif"
        >Clone traffic — ai-runner</text>
  <text x="800" y="18" font-size="10" fill="#8c959f"
        font-family="ui-monospace, SFMono-Regular, 'SF Mono', Menlo, monospace" text-anchor="end">2026-06-28</text>

  <!-- grid -->
  <line x1="52" y1="232.0" x2="800" y2="232.0" stroke="#e8e8e8" stroke-width="1"/><line x1="52" y1="191.2" x2="800" y2="191.2" stroke="#e8e8e8" stroke-width="1"/><line x1="52" y1="150.4" x2="800" y2="150.4" stroke="#e8e8e8" stroke-width="1"/><line x1="52" y1="109.6" x2="800" y2="109.6" stroke="#e8e8e8" stroke-width="1"/><line x1="52" y1="68.8" x2="800" y2="68.8" stroke="#e8e8e8" stroke-width="1"/><line x1="52" y1="28.0" x2="800" y2="28.0" stroke="#e8e8e8" stroke-width="1"/>

  <!-- area fill -->
  <path d="M52.0,232.0 L52.0,232.0 L68.3,201.4 L84.5,191.2 L100.8,58.6 L117.0,201.4 L133.3,221.8 L149.6,221.8 L165.8,232.0 L182.1,232.0 L198.3,221.8 L214.6,232.0 L230.9,232.0 L247.1,232.0 L263.4,232.0 L279.7,232.0 L295.9,232.0 L312.2,232.0 L328.4,221.8 L344.7,211.6 L361.0,232.0 L377.2,211.6 L393.5,211.6 L409.7,232.0 L426.0,232.0 L442.3,232.0 L458.5,211.6 L474.8,232.0 L491.0,221.8 L507.3,232.0 L523.6,191.2 L539.8,221.8 L556.1,232.0 L572.3,232.0 L588.6,232.0 L604.9,232.0 L621.1,211.6 L637.4,232.0 L653.7,232.0 L669.9,211.6 L686.2,221.8 L702.4,211.6 L718.7,191.2 L735.0,28.0 L751.2,232.0 L767.5,170.8 L783.7,211.6 L800.0,232.0 L800.0,232.0 L52.0,232.0Z" fill="#4e79a7" opacity="0.12"/>

  <!-- lines -->
  <polyline points="52.0,232.0 68.3,201.4 84.5,191.2 100.8,58.6 117.0,201.4 133.3,221.8 149.6,221.8 165.8,232.0 182.1,232.0 198.3,221.8 214.6,232.0 230.9,232.0 247.1,232.0 263.4,232.0 279.7,232.0 295.9,232.0 312.2,232.0 328.4,221.8 344.7,211.6 361.0,232.0 377.2,211.6 393.5,211.6 409.7,232.0 426.0,232.0 442.3,232.0 458.5,211.6 474.8,232.0 491.0,221.8 507.3,232.0 523.6,191.2 539.8,221.8 556.1,232.0 572.3,232.0 588.6,232.0 604.9,232.0 621.1,211.6 637.4,232.0 653.7,232.0 669.9,211.6 686.2,221.8 702.4,211.6 718.7,191.2 735.0,28.0 751.2,232.0 767.5,170.8 783.7,211.6 800.0,232.0"
            fill="none" stroke="#4e79a7"
            stroke-width="2" stroke-linejoin="round"/>
  <polyline points="52.0,232.0 68.3,201.4 84.5,191.2 100.8,109.6 117.0,201.4 133.3,221.8 149.6,221.8 165.8,232.0 182.1,232.0 198.3,221.8 214.6,232.0 230.9,232.0 247.1,232.0 263.4,232.0 279.7,232.0 295.9,232.0 312.2,232.0 328.4,221.8 344.7,211.6 361.0,232.0 377.2,211.6 393.5,211.6 409.7,232.0 426.0,232.0 442.3,232.0 458.5,211.6 474.8,232.0 491.0,221.8 507.3,232.0 523.6,201.4 539.8,221.8 556.1,232.0 572.3,232.0 588.6,232.0 604.9,232.0 621.1,211.6 637.4,232.0 653.7,232.0 669.9,211.6 686.2,221.8 702.4,211.6 718.7,221.8 735.0,181.0 751.2,232.0 767.5,221.8 783.7,211.6 800.0,232.0"
            fill="none" stroke="#f28e2b"
            stroke-width="2" stroke-linejoin="round"
            stroke-dasharray="5,3"/>

  <!-- dots -->
  <circle cx="52.0" cy="232.0" r="3" fill="#4e79a7"/><circle cx="68.3" cy="201.4" r="3" fill="#4e79a7"/><circle cx="84.5" cy="191.2" r="3" fill="#4e79a7"/><circle cx="100.8" cy="58.6" r="3" fill="#4e79a7"/><circle cx="117.0" cy="201.4" r="3" fill="#4e79a7"/><circle cx="133.3" cy="221.8" r="3" fill="#4e79a7"/><circle cx="149.6" cy="221.8" r="3" fill="#4e79a7"/><circle cx="165.8" cy="232.0" r="3" fill="#4e79a7"/><circle cx="182.1" cy="232.0" r="3" fill="#4e79a7"/><circle cx="198.3" cy="221.8" r="3" fill="#4e79a7"/><circle cx="214.6" cy="232.0" r="3" fill="#4e79a7"/><circle cx="230.9" cy="232.0" r="3" fill="#4e79a7"/><circle cx="247.1" cy="232.0" r="3" fill="#4e79a7"/><circle cx="263.4" cy="232.0" r="3" fill="#4e79a7"/><circle cx="279.7" cy="232.0" r="3" fill="#4e79a7"/><circle cx="295.9" cy="232.0" r="3" fill="#4e79a7"/><circle cx="312.2" cy="232.0" r="3" fill="#4e79a7"/><circle cx="328.4" cy="221.8" r="3" fill="#4e79a7"/><circle cx="344.7" cy="211.6" r="3" fill="#4e79a7"/><circle cx="361.0" cy="232.0" r="3" fill="#4e79a7"/><circle cx="377.2" cy="211.6" r="3" fill="#4e79a7"/><circle cx="393.5" cy="211.6" r="3" fill="#4e79a7"/><circle cx="409.7" cy="232.0" r="3" fill="#4e79a7"/><circle cx="426.0" cy="232.0" r="3" fill="#4e79a7"/><circle cx="442.3" cy="232.0" r="3" fill="#4e79a7"/><circle cx="458.5" cy="211.6" r="3" fill="#4e79a7"/><circle cx="474.8" cy="232.0" r="3" fill="#4e79a7"/><circle cx="491.0" cy="221.8" r="3" fill="#4e79a7"/><circle cx="507.3" cy="232.0" r="3" fill="#4e79a7"/><circle cx="523.6" cy="191.2" r="3" fill="#4e79a7"/><circle cx="539.8" cy="221.8" r="3" fill="#4e79a7"/><circle cx="556.1" cy="232.0" r="3" fill="#4e79a7"/><circle cx="572.3" cy="232.0" r="3" fill="#4e79a7"/><circle cx="588.6" cy="232.0" r="3" fill="#4e79a7"/><circle cx="604.9" cy="232.0" r="3" fill="#4e79a7"/><circle cx="621.1" cy="211.6" r="3" fill="#4e79a7"/><circle cx="637.4" cy="232.0" r="3" fill="#4e79a7"/><circle cx="653.7" cy="232.0" r="3" fill="#4e79a7"/><circle cx="669.9" cy="211.6" r="3" fill="#4e79a7"/><circle cx="686.2" cy="221.8" r="3" fill="#4e79a7"/><circle cx="702.4" cy="211.6" r="3" fill="#4e79a7"/><circle cx="718.7" cy="191.2" r="3" fill="#4e79a7"/><circle cx="735.0" cy="28.0" r="3" fill="#4e79a7"/><circle cx="751.2" cy="232.0" r="3" fill="#4e79a7"/><circle cx="767.5" cy="170.8" r="3" fill="#4e79a7"/><circle cx="783.7" cy="211.6" r="3" fill="#4e79a7"/><circle cx="800.0" cy="232.0" r="3" fill="#4e79a7"/>
  <circle cx="52.0" cy="232.0" r="3" fill="#f28e2b"/><circle cx="68.3" cy="201.4" r="3" fill="#f28e2b"/><circle cx="84.5" cy="191.2" r="3" fill="#f28e2b"/><circle cx="100.8" cy="109.6" r="3" fill="#f28e2b"/><circle cx="117.0" cy="201.4" r="3" fill="#f28e2b"/><circle cx="133.3" cy="221.8" r="3" fill="#f28e2b"/><circle cx="149.6" cy="221.8" r="3" fill="#f28e2b"/><circle cx="165.8" cy="232.0" r="3" fill="#f28e2b"/><circle cx="182.1" cy="232.0" r="3" fill="#f28e2b"/><circle cx="198.3" cy="221.8" r="3" fill="#f28e2b"/><circle cx="214.6" cy="232.0" r="3" fill="#f28e2b"/><circle cx="230.9" cy="232.0" r="3" fill="#f28e2b"/><circle cx="247.1" cy="232.0" r="3" fill="#f28e2b"/><circle cx="263.4" cy="232.0" r="3" fill="#f28e2b"/><circle cx="279.7" cy="232.0" r="3" fill="#f28e2b"/><circle cx="295.9" cy="232.0" r="3" fill="#f28e2b"/><circle cx="312.2" cy="232.0" r="3" fill="#f28e2b"/><circle cx="328.4" cy="221.8" r="3" fill="#f28e2b"/><circle cx="344.7" cy="211.6" r="3" fill="#f28e2b"/><circle cx="361.0" cy="232.0" r="3" fill="#f28e2b"/><circle cx="377.2" cy="211.6" r="3" fill="#f28e2b"/><circle cx="393.5" cy="211.6" r="3" fill="#f28e2b"/><circle cx="409.7" cy="232.0" r="3" fill="#f28e2b"/><circle cx="426.0" cy="232.0" r="3" fill="#f28e2b"/><circle cx="442.3" cy="232.0" r="3" fill="#f28e2b"/><circle cx="458.5" cy="211.6" r="3" fill="#f28e2b"/><circle cx="474.8" cy="232.0" r="3" fill="#f28e2b"/><circle cx="491.0" cy="221.8" r="3" fill="#f28e2b"/><circle cx="507.3" cy="232.0" r="3" fill="#f28e2b"/><circle cx="523.6" cy="201.4" r="3" fill="#f28e2b"/><circle cx="539.8" cy="221.8" r="3" fill="#f28e2b"/><circle cx="556.1" cy="232.0" r="3" fill="#f28e2b"/><circle cx="572.3" cy="232.0" r="3" fill="#f28e2b"/><circle cx="588.6" cy="232.0" r="3" fill="#f28e2b"/><circle cx="604.9" cy="232.0" r="3" fill="#f28e2b"/><circle cx="621.1" cy="211.6" r="3" fill="#f28e2b"/><circle cx="637.4" cy="232.0" r="3" fill="#f28e2b"/><circle cx="653.7" cy="232.0" r="3" fill="#f28e2b"/><circle cx="669.9" cy="211.6" r="3" fill="#f28e2b"/><circle cx="686.2" cy="221.8" r="3" fill="#f28e2b"/><circle cx="702.4" cy="211.6" r="3" fill="#f28e2b"/><circle cx="718.7" cy="221.8" r="3" fill="#f28e2b"/><circle cx="735.0" cy="181.0" r="3" fill="#f28e2b"/><circle cx="751.2" cy="232.0" r="3" fill="#f28e2b"/><circle cx="767.5" cy="221.8" r="3" fill="#f28e2b"/><circle cx="783.7" cy="211.6" r="3" fill="#f28e2b"/><circle cx="800.0" cy="232.0" r="3" fill="#f28e2b"/>

  <!-- axes -->
  <line x1="52" y1="28" x2="52" y2="232"
        stroke="#cccccc" stroke-width="1"/>
  <line x1="52" y1="232" x2="800" y2="232"
        stroke="#cccccc" stroke-width="1"/>

  <!-- y-axis labels -->
  <text x="47" y="236.0" text-anchor="end" font-size="10" fill="#57606a" font-family="ui-monospace, SFMono-Regular, 'SF Mono', Menlo, monospace">0</text><text x="47" y="195.2" text-anchor="end" font-size="10" fill="#57606a" font-family="ui-monospace, SFMono-Regular, 'SF Mono', Menlo, monospace">4</text><text x="47" y="154.4" text-anchor="end" font-size="10" fill="#57606a" font-family="ui-monospace, SFMono-Regular, 'SF Mono', Menlo, monospace">8</text><text x="47" y="113.6" text-anchor="end" font-size="10" fill="#57606a" font-family="ui-monospace, SFMono-Regular, 'SF Mono', Menlo, monospace">12</text><text x="47" y="72.8" text-anchor="end" font-size="10" fill="#57606a" font-family="ui-monospace, SFMono-Regular, 'SF Mono', Menlo, monospace">16</text><text x="47" y="32.0" text-anchor="end" font-size="10" fill="#57606a" font-family="ui-monospace, SFMono-Regular, 'SF Mono', Menlo, monospace">20</text>

  <!-- x-axis labels -->
  <text x="52.0" y="248" text-anchor="middle" font-size="10" fill="#8c959f" font-family="ui-monospace, SFMono-Regular, 'SF Mono', Menlo, monospace">05-11</text><text x="621.1" y="248" text-anchor="middle" font-size="10" fill="#8c959f" font-family="ui-monospace, SFMono-Regular, 'SF Mono', Menlo, monospace">06-15</text><text x="133.3" y="248" text-anchor="middle" font-size="10" fill="#8c959f" font-family="ui-monospace, SFMono-Regular, 'SF Mono', Menlo, monospace">05-16</text><text x="702.4" y="248" text-anchor="middle" font-size="10" fill="#8c959f" font-family="ui-monospace, SFMono-Regular, 'SF Mono', Menlo, monospace">06-20</text><text x="214.6" y="248" text-anchor="middle" font-size="10" fill="#8c959f" font-family="ui-monospace, SFMono-Regular, 'SF Mono', Menlo, monospace">05-21</text><text x="783.7" y="248" text-anchor="middle" font-size="10" fill="#8c959f" font-family="ui-monospace, SFMono-Regular, 'SF Mono', Menlo, monospace">06-25</text><text x="800.0" y="248" text-anchor="middle" font-size="10" fill="#8c959f" font-family="ui-monospace, SFMono-Regular, 'SF Mono', Menlo, monospace">06-26</text><text x="295.9" y="248" text-anchor="middle" font-size="10" fill="#8c959f" font-family="ui-monospace, SFMono-Regular, 'SF Mono', Menlo, monospace">05-26</text><text x="377.2" y="248" text-anchor="middle" font-size="10" fill="#8c959f" font-family="ui-monospace, SFMono-Regular, 'SF Mono', Menlo, monospace">05-31</text><text x="458.5" y="248" text-anchor="middle" font-size="10" fill="#8c959f" font-family="ui-monospace, SFMono-Regular, 'SF Mono', Menlo, monospace">06-05</text><text x="539.8" y="248" text-anchor="middle" font-size="10" fill="#8c959f" font-family="ui-monospace, SFMono-Regular, 'SF Mono', Menlo, monospace">06-10</text>

  <!-- legend -->
  <rect x="60" y="262" width="16" height="3" fill="#4e79a7" rx="1"/><text x="80" y="268" font-size="11" fill="#57606a" font-family="-apple-system, BlinkMacSystemFont, 'Segoe UI', sans-serif">Total clones (84)</text><line x1="230" y1="264" x2="246" y2="264" stroke="#f28e2b" stroke-width="2" stroke-dasharray="5,3"/><text x="250" y="268" font-size="11" fill="#57606a" font-family="-apple-system, BlinkMacSystemFont, 'Segoe UI', sans-serif">Unique cloners</text>

</svg>