<svg xmlns="http://www.w3.org/2000/svg" viewBox="0 0 820 280" width="820" height="280">

  <!-- title -->
  <text x="52" y="18" font-size="13" font-weight="600"
        fill="#24292f" font-family="-apple-system, BlinkMacSystemFont, 'Segoe UI', sans-serif"
        >Clone traffic — ai-runner</text>
  <text x="800" y="18" font-size="10" fill="#8c959f"
        font-family="ui-monospace, SFMono-Regular, 'SF Mono', Menlo, monospace" text-anchor="end">2026-07-23</text>

  <!-- grid -->
  <line x1="52" y1="232.0" x2="800" y2="232.0" stroke="#e8e8e8" stroke-width="1"/><line x1="52" y1="191.2" x2="800" y2="191.2" stroke="#e8e8e8" stroke-width="1"/><line x1="52" y1="150.4" x2="800" y2="150.4" stroke="#e8e8e8" stroke-width="1"/><line x1="52" y1="109.6" x2="800" y2="109.6" stroke="#e8e8e8" stroke-width="1"/><line x1="52" y1="68.8" x2="800" y2="68.8" stroke="#e8e8e8" stroke-width="1"/><line x1="52" y1="28.0" x2="800" y2="28.0" stroke="#e8e8e8" stroke-width="1"/>

  <!-- area fill -->
  <path d="M52.0,232.0 L52.0,232.0 L62.5,201.4 L73.1,191.2 L83.6,58.6 L94.1,201.4 L104.7,221.8 L115.2,221.8 L125.7,232.0 L136.3,232.0 L146.8,221.8 L157.4,232.0 L167.9,232.0 L178.4,232.0 L189.0,232.0 L199.5,232.0 L210.0,232.0 L220.6,232.0 L231.1,221.8 L241.6,211.6 L252.2,232.0 L262.7,211.6 L273.2,211.6 L283.8,232.0 L294.3,232.0 L304.8,232.0 L315.4,211.6 L325.9,232.0 L336.5,221.8 L347.0,232.0 L357.5,191.2 L368.1,221.8 L378.6,232.0 L389.1,232.0 L399.7,232.0 L410.2,232.0 L420.7,211.6 L431.3,232.0 L441.8,232.0 L452.3,211.6 L462.9,221.8 L473.4,211.6 L483.9,191.2 L494.5,28.0 L505.0,232.0 L515.5,170.8 L526.1,211.6 L536.6,232.0 L547.2,221.8 L557.7,232.0 L568.2,232.0 L578.8,221.8 L589.3,232.0 L599.8,232.0 L610.4,221.8 L620.9,201.4 L631.4,232.0 L642.0,211.6 L652.5,232.0 L663.0,232.0 L673.6,221.8 L684.1,232.0 L694.6,221.8 L705.2,232.0 L715.7,232.0 L726.3,232.0 L736.8,232.0 L747.3,232.0 L757.9,232.0 L768.4,232.0 L778.9,232.0 L789.5,211.6 L800.0,232.0 L800.0,232.0 L52.0,232.0Z" fill="#4e79a7" opacity="0.12"/>

  <!-- lines -->
  <polyline points="52.0,232.0 62.5,201.4 73.1,191.2 83.6,58.6 94.1,201.4 104.7,221.8 115.2,221.8 125.7,232.0 136.3,232.0 146.8,221.8 157.4,232.0 167.9,232.0 178.4,232.0 189.0,232.0 199.5,232.0 210.0,232.0 220.6,232.0 231.1,221.8 241.6,211.6 252.2,232.0 262.7,211.6 273.2,211.6 283.8,232.0 294.3,232.0 304.8,232.0 315.4,211.6 325.9,232.0 336.5,221.8 347.0,232.0 357.5,191.2 368.1,221.8 378.6,232.0 389.1,232.0 399.7,232.0 410.2,232.0 420.7,211.6 431.3,232.0 441.8,232.0 452.3,211.6 462.9,221.8 473.4,211.6 483.9,191.2 494.5,28.0 505.0,232.0 515.5,170.8 526.1,211.6 536.6,232.0 547.2,221.8 557.7,232.0 568.2,232.0 578.8,221.8 589.3,232.0 599.8,232.0 610.4,221.8 620.9,201.4 631.4,232.0 642.0,211.6 652.5,232.0 663.0,232.0 673.6,221.8 684.1,232.0 694.6,221.8 705.2,232.0 715.7,232.0 726.3,232.0 736.8,232.0 747.3,232.0 757.9,232.0 768.4,232.0 778.9,232.0 789.5,211.6 800.0,232.0"
            fill="none" stroke="#4e79a7"
            stroke-width="2" stroke-linejoin="round"/>
  <polyline points="52.0,232.0 62.5,201.4 73.1,191.2 83.6,109.6 94.1,201.4 104.7,221.8 115.2,221.8 125.7,232.0 136.3,232.0 146.8,221.8 157.4,232.0 167.9,232.0 178.4,232.0 189.0,232.0 199.5,232.0 210.0,232.0 220.6,232.0 231.1,221.8 241.6,211.6 252.2,232.0 262.7,211.6 273.2,211.6 283.8,232.0 294.3,232.0 304.8,232.0 315.4,211.6 325.9,232.0 336.5,221.8 347.0,232.0 357.5,201.4 368.1,221.8 378.6,232.0 389.1,232.0 399.7,232.0 410.2,232.0 420.7,211.6 431.3,232.0 441.8,232.0 452.3,211.6 462.9,221.8 473.4,211.6 483.9,221.8 494.5,181.0 505.0,232.0 515.5,221.8 526.1,211.6 536.6,232.0 547.2,221.8 557.7,232.0 568.2,232.0 578.8,221.8 589.3,232.0 599.8,232.0 610.4,221.8 620.9,211.6 631.4,232.0 642.0,211.6 652.5,232.0 663.0,232.0 673.6,221.8 684.1,232.0 694.6,221.8 705.2,232.0 715.7,232.0 726.3,232.0 736.8,232.0 747.3,232.0 757.9,232.0 768.4,232.0 778.9,232.0 789.5,211.6 800.0,232.0"
            fill="none" stroke="#f28e2b"
            stroke-width="2" stroke-linejoin="round"
            stroke-dasharray="5,3"/>

  <!-- dots -->
  <circle cx="52.0" cy="232.0" r="3" fill="#4e79a7"/><circle cx="62.5" cy="201.4" r="3" fill="#4e79a7"/><circle cx="73.1" cy="191.2" r="3" fill="#4e79a7"/><circle cx="83.6" cy="58.6" r="3" fill="#4e79a7"/><circle cx="94.1" cy="201.4" r="3" fill="#4e79a7"/><circle cx="104.7" cy="221.8" r="3" fill="#4e79a7"/><circle cx="115.2" cy="221.8" r="3" fill="#4e79a7"/><circle cx="125.7" cy="232.0" r="3" fill="#4e79a7"/><circle cx="136.3" cy="232.0" r="3" fill="#4e79a7"/><circle cx="146.8" cy="221.8" r="3" fill="#4e79a7"/><circle cx="157.4" cy="232.0" r="3" fill="#4e79a7"/><circle cx="167.9" cy="232.0" r="3" fill="#4e79a7"/><circle cx="178.4" cy="232.0" r="3" fill="#4e79a7"/><circle cx="189.0" cy="232.0" r="3" fill="#4e79a7"/><circle cx="199.5" cy="232.0" r="3" fill="#4e79a7"/><circle cx="210.0" cy="232.0" r="3" fill="#4e79a7"/><circle cx="220.6" cy="232.0" r="3" fill="#4e79a7"/><circle cx="231.1" cy="221.8" r="3" fill="#4e79a7"/><circle cx="241.6" cy="211.6" r="3" fill="#4e79a7"/><circle cx="252.2" cy="232.0" r="3" fill="#4e79a7"/><circle cx="262.7" cy="211.6" r="3" fill="#4e79a7"/><circle cx="273.2" cy="211.6" r="3" fill="#4e79a7"/><circle cx="283.8" cy="232.0" r="3" fill="#4e79a7"/><circle cx="294.3" cy="232.0" r="3" fill="#4e79a7"/><circle cx="304.8" cy="232.0" r="3" fill="#4e79a7"/><circle cx="315.4" cy="211.6" r="3" fill="#4e79a7"/><circle cx="325.9" cy="232.0" r="3" fill="#4e79a7"/><circle cx="336.5" cy="221.8" r="3" fill="#4e79a7"/><circle cx="347.0" cy="232.0" r="3" fill="#4e79a7"/><circle cx="357.5" cy="191.2" r="3" fill="#4e79a7"/><circle cx="368.1" cy="221.8" r="3" fill="#4e79a7"/><circle cx="378.6" cy="232.0" r="3" fill="#4e79a7"/><circle cx="389.1" cy="232.0" r="3" fill="#4e79a7"/><circle cx="399.7" cy="232.0" r="3" fill="#4e79a7"/><circle cx="410.2" cy="232.0" r="3" fill="#4e79a7"/><circle cx="420.7" cy="211.6" r="3" fill="#4e79a7"/><circle cx="431.3" cy="232.0" r="3" fill="#4e79a7"/><circle cx="441.8" cy="232.0" r="3" fill="#4e79a7"/><circle cx="452.3" cy="211.6" r="3" fill="#4e79a7"/><circle cx="462.9" cy="221.8" r="3" fill="#4e79a7"/><circle cx="473.4" cy="211.6" r="3" fill="#4e79a7"/><circle cx="483.9" cy="191.2" r="3" fill="#4e79a7"/><circle cx="494.5" cy="28.0" r="3" fill="#4e79a7"/><circle cx="505.0" cy="232.0" r="3" fill="#4e79a7"/><circle cx="515.5" cy="170.8" r="3" fill="#4e79a7"/><circle cx="526.1" cy="211.6" r="3" fill="#4e79a7"/><circle cx="536.6" cy="232.0" r="3" fill="#4e79a7"/><circle cx="547.2" cy="221.8" r="3" fill="#4e79a7"/><circle cx="557.7" cy="232.0" r="3" fill="#4e79a7"/><circle cx="568.2" cy="232.0" r="3" fill="#4e79a7"/><circle cx="578.8" cy="221.8" r="3" fill="#4e79a7"/><circle cx="589.3" cy="232.0" r="3" fill="#4e79a7"/><circle cx="599.8" cy="232.0" r="3" fill="#4e79a7"/><circle cx="610.4" cy="221.8" r="3" fill="#4e79a7"/><circle cx="620.9" cy="201.4" r="3" fill="#4e79a7"/><circle cx="631.4" cy="232.0" r="3" fill="#4e79a7"/><circle cx="642.0" cy="211.6" r="3" fill="#4e79a7"/><circle cx="652.5" cy="232.0" r="3" fill="#4e79a7"/><circle cx="663.0" cy="232.0" r="3" fill="#4e79a7"/><circle cx="673.6" cy="221.8" r="3" fill="#4e79a7"/><circle cx="684.1" cy="232.0" r="3" fill="#4e79a7"/><circle cx="694.6" cy="221.8" r="3" fill="#4e79a7"/><circle cx="705.2" cy="232.0" r="3" fill="#4e79a7"/><circle cx="715.7" cy="232.0" r="3" fill="#4e79a7"/><circle cx="726.3" cy="232.0" r="3" fill="#4e79a7"/><circle cx="736.8" cy="232.0" r="3" fill="#4e79a7"/><circle cx="747.3" cy="232.0" r="3" fill="#4e79a7"/><circle cx="757.9" cy="232.0" r="3" fill="#4e79a7"/><circle cx="768.4" cy="232.0" r="3" fill="#4e79a7"/><circle cx="778.9" cy="232.0" r="3" fill="#4e79a7"/><circle cx="789.5" cy="211.6" r="3" fill="#4e79a7"/><circle cx="800.0" cy="232.0" r="3" fill="#4e79a7"/>
  <circle cx="52.0" cy="232.0" r="3" fill="#f28e2b"/><circle cx="62.5" cy="201.4" r="3" fill="#f28e2b"/><circle cx="73.1" cy="191.2" r="3" fill="#f28e2b"/><circle cx="83.6" cy="109.6" r="3" fill="#f28e2b"/><circle cx="94.1" cy="201.4" r="3" fill="#f28e2b"/><circle cx="104.7" cy="221.8" r="3" fill="#f28e2b"/><circle cx="115.2" cy="221.8" r="3" fill="#f28e2b"/><circle cx="125.7" cy="232.0" r="3" fill="#f28e2b"/><circle cx="136.3" cy="232.0" r="3" fill="#f28e2b"/><circle cx="146.8" cy="221.8" r="3" fill="#f28e2b"/><circle cx="157.4" cy="232.0" r="3" fill="#f28e2b"/><circle cx="167.9" cy="232.0" r="3" fill="#f28e2b"/><circle cx="178.4" cy="232.0" r="3" fill="#f28e2b"/><circle cx="189.0" cy="232.0" r="3" fill="#f28e2b"/><circle cx="199.5" cy="232.0" r="3" fill="#f28e2b"/><circle cx="210.0" cy="232.0" r="3" fill="#f28e2b"/><circle cx="220.6" cy="232.0" r="3" fill="#f28e2b"/><circle cx="231.1" cy="221.8" r="3" fill="#f28e2b"/><circle cx="241.6" cy="211.6" r="3" fill="#f28e2b"/><circle cx="252.2" cy="232.0" r="3" fill="#f28e2b"/><circle cx="262.7" cy="211.6" r="3" fill="#f28e2b"/><circle cx="273.2" cy="211.6" r="3" fill="#f28e2b"/><circle cx="283.8" cy="232.0" r="3" fill="#f28e2b"/><circle cx="294.3" cy="232.0" r="3" fill="#f28e2b"/><circle cx="304.8" cy="232.0" r="3" fill="#f28e2b"/><circle cx="315.4" cy="211.6" r="3" fill="#f28e2b"/><circle cx="325.9" cy="232.0" r="3" fill="#f28e2b"/><circle cx="336.5" cy="221.8" r="3" fill="#f28e2b"/><circle cx="347.0" cy="232.0" r="3" fill="#f28e2b"/><circle cx="357.5" cy="201.4" r="3" fill="#f28e2b"/><circle cx="368.1" cy="221.8" r="3" fill="#f28e2b"/><circle cx="378.6" cy="232.0" r="3" fill="#f28e2b"/><circle cx="389.1" cy="232.0" r="3" fill="#f28e2b"/><circle cx="399.7" cy="232.0" r="3" fill="#f28e2b"/><circle cx="410.2" cy="232.0" r="3" fill="#f28e2b"/><circle cx="420.7" cy="211.6" r="3" fill="#f28e2b"/><circle cx="431.3" cy="232.0" r="3" fill="#f28e2b"/><circle cx="441.8" cy="232.0" r="3" fill="#f28e2b"/><circle cx="452.3" cy="211.6" r="3" fill="#f28e2b"/><circle cx="462.9" cy="221.8" r="3" fill="#f28e2b"/><circle cx="473.4" cy="211.6" r="3" fill="#f28e2b"/><circle cx="483.9" cy="221.8" r="3" fill="#f28e2b"/><circle cx="494.5" cy="181.0" r="3" fill="#f28e2b"/><circle cx="505.0" cy="232.0" r="3" fill="#f28e2b"/><circle cx="515.5" cy="221.8" r="3" fill="#f28e2b"/><circle cx="526.1" cy="211.6" r="3" fill="#f28e2b"/><circle cx="536.6" cy="232.0" r="3" fill="#f28e2b"/><circle cx="547.2" cy="221.8" r="3" fill="#f28e2b"/><circle cx="557.7" cy="232.0" r="3" fill="#f28e2b"/><circle cx="568.2" cy="232.0" r="3" fill="#f28e2b"/><circle cx="578.8" cy="221.8" r="3" fill="#f28e2b"/><circle cx="589.3" cy="232.0" r="3" fill="#f28e2b"/><circle cx="599.8" cy="232.0" r="3" fill="#f28e2b"/><circle cx="610.4" cy="221.8" r="3" fill="#f28e2b"/><circle cx="620.9" cy="211.6" r="3" fill="#f28e2b"/><circle cx="631.4" cy="232.0" r="3" fill="#f28e2b"/><circle cx="642.0" cy="211.6" r="3" fill="#f28e2b"/><circle cx="652.5" cy="232.0" r="3" fill="#f28e2b"/><circle cx="663.0" cy="232.0" r="3" fill="#f28e2b"/><circle cx="673.6" cy="221.8" r="3" fill="#f28e2b"/><circle cx="684.1" cy="232.0" r="3" fill="#f28e2b"/><circle cx="694.6" cy="221.8" r="3" fill="#f28e2b"/><circle cx="705.2" cy="232.0" r="3" fill="#f28e2b"/><circle cx="715.7" cy="232.0" r="3" fill="#f28e2b"/><circle cx="726.3" cy="232.0" r="3" fill="#f28e2b"/><circle cx="736.8" cy="232.0" r="3" fill="#f28e2b"/><circle cx="747.3" cy="232.0" r="3" fill="#f28e2b"/><circle cx="757.9" cy="232.0" r="3" fill="#f28e2b"/><circle cx="768.4" cy="232.0" r="3" fill="#f28e2b"/><circle cx="778.9" cy="232.0" r="3" fill="#f28e2b"/><circle cx="789.5" cy="211.6" r="3" fill="#f28e2b"/><circle cx="800.0" cy="232.0" r="3" fill="#f28e2b"/>

  <!-- axes -->
  <line x1="52" y1="28" x2="52" y2="232"
        stroke="#cccccc" stroke-width="1"/>
  <line x1="52" y1="232" x2="800" y2="232"
        stroke="#cccccc" stroke-width="1"/>

  <!-- y-axis labels -->
  <text x="47" y="236.0" text-anchor="end" font-size="10" fill="#57606a" font-family="ui-monospace, SFMono-Regular, 'SF Mono', Menlo, monospace">0</text><text x="47" y="195.2" text-anchor="end" font-size="10" fill="#57606a" font-family="ui-monospace, SFMono-Regular, 'SF Mono', Menlo, monospace">4</text><text x="47" y="154.4" text-anchor="end" font-size="10" fill="#57606a" font-family="ui-monospace, SFMono-Regular, 'SF Mono', Menlo, monospace">8</text><text x="47" y="113.6" text-anchor="end" font-size="10" fill="#57606a" font-family="ui-monospace, SFMono-Regular, 'SF Mono', Menlo, monospace">12</text><text x="47" y="72.8" text-anchor="end" font-size="10" fill="#57606a" font-family="ui-monospace, SFMono-Regular, 'SF Mono', Menlo, monospace">16</text><text x="47" y="32.0" text-anchor="end" font-size="10" fill="#57606a" font-family="ui-monospace, SFMono-Regular, 'SF Mono', Menlo, monospace">20</text>

  <!-- x-axis labels -->
  <text x="52.0" y="248" text-anchor="middle" font-size="10" fill="#8c959f" font-family="ui-monospace, SFMono-Regular, 'SF Mono', Menlo, monospace">05-11</text><text x="431.3" y="248" text-anchor="middle" font-size="10" fill="#8c959f" font-family="ui-monospace, SFMono-Regular, 'SF Mono', Menlo, monospace">06-16</text><text x="800.0" y="248" text-anchor="middle" font-size="10" fill="#8c959f" font-family="ui-monospace, SFMono-Regular, 'SF Mono', Menlo, monospace">07-21</text><text x="146.8" y="248" text-anchor="middle" font-size="10" fill="#8c959f" font-family="ui-monospace, SFMono-Regular, 'SF Mono', Menlo, monospace">05-20</text><text x="526.1" y="248" text-anchor="middle" font-size="10" fill="#8c959f" font-family="ui-monospace, SFMono-Regular, 'SF Mono', Menlo, monospace">06-25</text><text x="241.6" y="248" text-anchor="middle" font-size="10" fill="#8c959f" font-family="ui-monospace, SFMono-Regular, 'SF Mono', Menlo, monospace">05-29</text><text x="620.9" y="248" text-anchor="middle" font-size="10" fill="#8c959f" font-family="ui-monospace, SFMono-Regular, 'SF Mono', Menlo, monospace">07-04</text><text x="336.5" y="248" text-anchor="middle" font-size="10" fill="#8c959f" font-family="ui-monospace, SFMono-Regular, 'SF Mono', Menlo, monospace">06-07</text><text x="715.7" y="248" text-anchor="middle" font-size="10" fill="#8c959f" font-family="ui-monospace, SFMono-Regular, 'SF Mono', Menlo, monospace">07-13</text>

  <!-- legend -->
  <rect x="60" y="262" width="16" height="3" fill="#4e79a7" rx="1"/><text x="80" y="268" font-size="11" fill="#57606a" font-family="-apple-system, BlinkMacSystemFont, 'Segoe UI', sans-serif">Total clones (96)</text><line x1="230" y1="264" x2="246" y2="264" stroke="#f28e2b" stroke-width="2" stroke-dasharray="5,3"/><text x="250" y="268" font-size="11" fill="#57606a" font-family="-apple-system, BlinkMacSystemFont, 'Segoe UI', sans-serif">Unique cloners</text>

</svg>