<svg xmlns="http://www.w3.org/2000/svg" viewBox="0 0 820 280" width="820" height="280">

  <!-- title -->
  <text x="52" y="18" font-size="13" font-weight="600"
        fill="#24292f" font-family="-apple-system, BlinkMacSystemFont, 'Segoe UI', sans-serif"
        >Clone traffic — ai-runner</text>
  <text x="800" y="18" font-size="10" fill="#8c959f"
        font-family="ui-monospace, SFMono-Regular, 'SF Mono', Menlo, monospace" text-anchor="end">2026-06-30</text>

  <!-- grid -->
  <line x1="52" y1="232.0" x2="800" y2="232.0" stroke="#e8e8e8" stroke-width="1"/><line x1="52" y1="191.2" x2="800" y2="191.2" stroke="#e8e8e8" stroke-width="1"/><line x1="52" y1="150.4" x2="800" y2="150.4" stroke="#e8e8e8" stroke-width="1"/><line x1="52" y1="109.6" x2="800" y2="109.6" stroke="#e8e8e8" stroke-width="1"/><line x1="52" y1="68.8" x2="800" y2="68.8" stroke="#e8e8e8" stroke-width="1"/><line x1="52" y1="28.0" x2="800" y2="28.0" stroke="#e8e8e8" stroke-width="1"/>

  <!-- area fill -->
  <path d="M52.0,232.0 L52.0,232.0 L67.6,201.4 L83.2,191.2 L98.8,58.6 L114.3,201.4 L129.9,221.8 L145.5,221.8 L161.1,232.0 L176.7,232.0 L192.2,221.8 L207.8,232.0 L223.4,232.0 L239.0,232.0 L254.6,232.0 L270.2,232.0 L285.8,232.0 L301.3,232.0 L316.9,221.8 L332.5,211.6 L348.1,232.0 L363.7,211.6 L379.2,211.6 L394.8,232.0 L410.4,232.0 L426.0,232.0 L441.6,211.6 L457.2,232.0 L472.8,221.8 L488.3,232.0 L503.9,191.2 L519.5,221.8 L535.1,232.0 L550.7,232.0 L566.2,232.0 L581.8,232.0 L597.4,211.6 L613.0,232.0 L628.6,232.0 L644.2,211.6 L659.8,221.8 L675.3,211.6 L690.9,191.2 L706.5,28.0 L722.1,232.0 L737.7,170.8 L753.2,211.6 L768.8,232.0 L784.4,221.8 L800.0,232.0 L800.0,232.0 L52.0,232.0Z" fill="#4e79a7" opacity="0.12"/>

  <!-- lines -->
  <polyline points="52.0,232.0 67.6,201.4 83.2,191.2 98.8,58.6 114.3,201.4 129.9,221.8 145.5,221.8 161.1,232.0 176.7,232.0 192.2,221.8 207.8,232.0 223.4,232.0 239.0,232.0 254.6,232.0 270.2,232.0 285.8,232.0 301.3,232.0 316.9,221.8 332.5,211.6 348.1,232.0 363.7,211.6 379.2,211.6 394.8,232.0 410.4,232.0 426.0,232.0 441.6,211.6 457.2,232.0 472.8,221.8 488.3,232.0 503.9,191.2 519.5,221.8 535.1,232.0 550.7,232.0 566.2,232.0 581.8,232.0 597.4,211.6 613.0,232.0 628.6,232.0 644.2,211.6 659.8,221.8 675.3,211.6 690.9,191.2 706.5,28.0 722.1,232.0 737.7,170.8 753.2,211.6 768.8,232.0 784.4,221.8 800.0,232.0"
            fill="none" stroke="#4e79a7"
            stroke-width="2" stroke-linejoin="round"/>
  <polyline points="52.0,232.0 67.6,201.4 83.2,191.2 98.8,109.6 114.3,201.4 129.9,221.8 145.5,221.8 161.1,232.0 176.7,232.0 192.2,221.8 207.8,232.0 223.4,232.0 239.0,232.0 254.6,232.0 270.2,232.0 285.8,232.0 301.3,232.0 316.9,221.8 332.5,211.6 348.1,232.0 363.7,211.6 379.2,211.6 394.8,232.0 410.4,232.0 426.0,232.0 441.6,211.6 457.2,232.0 472.8,221.8 488.3,232.0 503.9,201.4 519.5,221.8 535.1,232.0 550.7,232.0 566.2,232.0 581.8,232.0 597.4,211.6 613.0,232.0 628.6,232.0 644.2,211.6 659.8,221.8 675.3,211.6 690.9,221.8 706.5,181.0 722.1,232.0 737.7,221.8 753.2,211.6 768.8,232.0 784.4,221.8 800.0,232.0"
            fill="none" stroke="#f28e2b"
            stroke-width="2" stroke-linejoin="round"
            stroke-dasharray="5,3"/>

  <!-- dots -->
  <circle cx="52.0" cy="232.0" r="3" fill="#4e79a7"/><circle cx="67.6" cy="201.4" r="3" fill="#4e79a7"/><circle cx="83.2" cy="191.2" r="3" fill="#4e79a7"/><circle cx="98.8" cy="58.6" r="3" fill="#4e79a7"/><circle cx="114.3" cy="201.4" r="3" fill="#4e79a7"/><circle cx="129.9" cy="221.8" r="3" fill="#4e79a7"/><circle cx="145.5" cy="221.8" r="3" fill="#4e79a7"/><circle cx="161.1" cy="232.0" r="3" fill="#4e79a7"/><circle cx="176.7" cy="232.0" r="3" fill="#4e79a7"/><circle cx="192.2" cy="221.8" r="3" fill="#4e79a7"/><circle cx="207.8" cy="232.0" r="3" fill="#4e79a7"/><circle cx="223.4" cy="232.0" r="3" fill="#4e79a7"/><circle cx="239.0" cy="232.0" r="3" fill="#4e79a7"/><circle cx="254.6" cy="232.0" r="3" fill="#4e79a7"/><circle cx="270.2" cy="232.0" r="3" fill="#4e79a7"/><circle cx="285.8" cy="232.0" r="3" fill="#4e79a7"/><circle cx="301.3" cy="232.0" r="3" fill="#4e79a7"/><circle cx="316.9" cy="221.8" r="3" fill="#4e79a7"/><circle cx="332.5" cy="211.6" r="3" fill="#4e79a7"/><circle cx="348.1" cy="232.0" r="3" fill="#4e79a7"/><circle cx="363.7" cy="211.6" r="3" fill="#4e79a7"/><circle cx="379.2" cy="211.6" r="3" fill="#4e79a7"/><circle cx="394.8" cy="232.0" r="3" fill="#4e79a7"/><circle cx="410.4" cy="232.0" r="3" fill="#4e79a7"/><circle cx="426.0" cy="232.0" r="3" fill="#4e79a7"/><circle cx="441.6" cy="211.6" r="3" fill="#4e79a7"/><circle cx="457.2" cy="232.0" r="3" fill="#4e79a7"/><circle cx="472.8" cy="221.8" r="3" fill="#4e79a7"/><circle cx="488.3" cy="232.0" r="3" fill="#4e79a7"/><circle cx="503.9" cy="191.2" r="3" fill="#4e79a7"/><circle cx="519.5" cy="221.8" r="3" fill="#4e79a7"/><circle cx="535.1" cy="232.0" r="3" fill="#4e79a7"/><circle cx="550.7" cy="232.0" r="3" fill="#4e79a7"/><circle cx="566.2" cy="232.0" r="3" fill="#4e79a7"/><circle cx="581.8" cy="232.0" r="3" fill="#4e79a7"/><circle cx="597.4" cy="211.6" r="3" fill="#4e79a7"/><circle cx="613.0" cy="232.0" r="3" fill="#4e79a7"/><circle cx="628.6" cy="232.0" r="3" fill="#4e79a7"/><circle cx="644.2" cy="211.6" r="3" fill="#4e79a7"/><circle cx="659.8" cy="221.8" r="3" fill="#4e79a7"/><circle cx="675.3" cy="211.6" r="3" fill="#4e79a7"/><circle cx="690.9" cy="191.2" r="3" fill="#4e79a7"/><circle cx="706.5" cy="28.0" r="3" fill="#4e79a7"/><circle cx="722.1" cy="232.0" r="3" fill="#4e79a7"/><circle cx="737.7" cy="170.8" r="3" fill="#4e79a7"/><circle cx="753.2" cy="211.6" r="3" fill="#4e79a7"/><circle cx="768.8" cy="232.0" r="3" fill="#4e79a7"/><circle cx="784.4" cy="221.8" r="3" fill="#4e79a7"/><circle cx="800.0" cy="232.0" r="3" fill="#4e79a7"/>
  <circle cx="52.0" cy="232.0" r="3" fill="#f28e2b"/><circle cx="67.6" cy="201.4" r="3" fill="#f28e2b"/><circle cx="83.2" cy="191.2" r="3" fill="#f28e2b"/><circle cx="98.8" cy="109.6" r="3" fill="#f28e2b"/><circle cx="114.3" cy="201.4" r="3" fill="#f28e2b"/><circle cx="129.9" cy="221.8" r="3" fill="#f28e2b"/><circle cx="145.5" cy="221.8" r="3" fill="#f28e2b"/><circle cx="161.1" cy="232.0" r="3" fill="#f28e2b"/><circle cx="176.7" cy="232.0" r="3" fill="#f28e2b"/><circle cx="192.2" cy="221.8" r="3" fill="#f28e2b"/><circle cx="207.8" cy="232.0" r="3" fill="#f28e2b"/><circle cx="223.4" cy="232.0" r="3" fill="#f28e2b"/><circle cx="239.0" cy="232.0" r="3" fill="#f28e2b"/><circle cx="254.6" cy="232.0" r="3" fill="#f28e2b"/><circle cx="270.2" cy="232.0" r="3" fill="#f28e2b"/><circle cx="285.8" cy="232.0" r="3" fill="#f28e2b"/><circle cx="301.3" cy="232.0" r="3" fill="#f28e2b"/><circle cx="316.9" cy="221.8" r="3" fill="#f28e2b"/><circle cx="332.5" cy="211.6" r="3" fill="#f28e2b"/><circle cx="348.1" cy="232.0" r="3" fill="#f28e2b"/><circle cx="363.7" cy="211.6" r="3" fill="#f28e2b"/><circle cx="379.2" cy="211.6" r="3" fill="#f28e2b"/><circle cx="394.8" cy="232.0" r="3" fill="#f28e2b"/><circle cx="410.4" cy="232.0" r="3" fill="#f28e2b"/><circle cx="426.0" cy="232.0" r="3" fill="#f28e2b"/><circle cx="441.6" cy="211.6" r="3" fill="#f28e2b"/><circle cx="457.2" cy="232.0" r="3" fill="#f28e2b"/><circle cx="472.8" cy="221.8" r="3" fill="#f28e2b"/><circle cx="488.3" cy="232.0" r="3" fill="#f28e2b"/><circle cx="503.9" cy="201.4" r="3" fill="#f28e2b"/><circle cx="519.5" cy="221.8" r="3" fill="#f28e2b"/><circle cx="535.1" cy="232.0" r="3" fill="#f28e2b"/><circle cx="550.7" cy="232.0" r="3" fill="#f28e2b"/><circle cx="566.2" cy="232.0" r="3" fill="#f28e2b"/><circle cx="581.8" cy="232.0" r="3" fill="#f28e2b"/><circle cx="597.4" cy="211.6" r="3" fill="#f28e2b"/><circle cx="613.0" cy="232.0" r="3" fill="#f28e2b"/><circle cx="628.6" cy="232.0" r="3" fill="#f28e2b"/><circle cx="644.2" cy="211.6" r="3" fill="#f28e2b"/><circle cx="659.8" cy="221.8" r="3" fill="#f28e2b"/><circle cx="675.3" cy="211.6" r="3" fill="#f28e2b"/><circle cx="690.9" cy="221.8" r="3" fill="#f28e2b"/><circle cx="706.5" cy="181.0" r="3" fill="#f28e2b"/><circle cx="722.1" cy="232.0" r="3" fill="#f28e2b"/><circle cx="737.7" cy="221.8" r="3" fill="#f28e2b"/><circle cx="753.2" cy="211.6" r="3" fill="#f28e2b"/><circle cx="768.8" cy="232.0" r="3" fill="#f28e2b"/><circle cx="784.4" cy="221.8" r="3" fill="#f28e2b"/><circle cx="800.0" cy="232.0" r="3" fill="#f28e2b"/>

  <!-- axes -->
  <line x1="52" y1="28" x2="52" y2="232"
        stroke="#cccccc" stroke-width="1"/>
  <line x1="52" y1="232" x2="800" y2="232"
        stroke="#cccccc" stroke-width="1"/>

  <!-- y-axis labels -->
  <text x="47" y="236.0" text-anchor="end" font-size="10" fill="#57606a" font-family="ui-monospace, SFMono-Regular, 'SF Mono', Menlo, monospace">0</text><text x="47" y="195.2" text-anchor="end" font-size="10" fill="#57606a" font-family="ui-monospace, SFMono-Regular, 'SF Mono', Menlo, monospace">4</text><text x="47" y="154.4" text-anchor="end" font-size="10" fill="#57606a" font-family="ui-monospace, SFMono-Regular, 'SF Mono', Menlo, monospace">8</text><text x="47" y="113.6" text-anchor="end" font-size="10" fill="#57606a" font-family="ui-monospace, SFMono-Regular, 'SF Mono', Menlo, monospace">12</text><text x="47" y="72.8" text-anchor="end" font-size="10" fill="#57606a" font-family="ui-monospace, SFMono-Regular, 'SF Mono', Menlo, monospace">16</text><text x="47" y="32.0" text-anchor="end" font-size="10" fill="#57606a" font-family="ui-monospace, SFMono-Regular, 'SF Mono', Menlo, monospace">20</text>

  <!-- x-axis labels -->
  <text x="52.0" y="248" text-anchor="middle" font-size="10" fill="#8c959f" font-family="ui-monospace, SFMono-Regular, 'SF Mono', Menlo, monospace">05-11</text><text x="613.0" y="248" text-anchor="middle" font-size="10" fill="#8c959f" font-family="ui-monospace, SFMono-Regular, 'SF Mono', Menlo, monospace">06-16</text><text x="145.5" y="248" text-anchor="middle" font-size="10" fill="#8c959f" font-family="ui-monospace, SFMono-Regular, 'SF Mono', Menlo, monospace">05-17</text><text x="706.5" y="248" text-anchor="middle" font-size="10" fill="#8c959f" font-family="ui-monospace, SFMono-Regular, 'SF Mono', Menlo, monospace">06-22</text><text x="239.0" y="248" text-anchor="middle" font-size="10" fill="#8c959f" font-family="ui-monospace, SFMono-Regular, 'SF Mono', Menlo, monospace">05-23</text><text x="800.0" y="248" text-anchor="middle" font-size="10" fill="#8c959f" font-family="ui-monospace, SFMono-Regular, 'SF Mono', Menlo, monospace">06-28</text><text x="332.5" y="248" text-anchor="middle" font-size="10" fill="#8c959f" font-family="ui-monospace, SFMono-Regular, 'SF Mono', Menlo, monospace">05-29</text><text x="426.0" y="248" text-anchor="middle" font-size="10" fill="#8c959f" font-family="ui-monospace, SFMono-Regular, 'SF Mono', Menlo, monospace">06-04</text><text x="519.5" y="248" text-anchor="middle" font-size="10" fill="#8c959f" font-family="ui-monospace, SFMono-Regular, 'SF Mono', Menlo, monospace">06-10</text>

  <!-- legend -->
  <rect x="60" y="262" width="16" height="3" fill="#4e79a7" rx="1"/><text x="80" y="268" font-size="11" fill="#57606a" font-family="-apple-system, BlinkMacSystemFont, 'Segoe UI', sans-serif">Total clones (85)</text><line x1="230" y1="264" x2="246" y2="264" stroke="#f28e2b" stroke-width="2" stroke-dasharray="5,3"/><text x="250" y="268" font-size="11" fill="#57606a" font-family="-apple-system, BlinkMacSystemFont, 'Segoe UI', sans-serif">Unique cloners</text>

</svg>