<svg xmlns="http://www.w3.org/2000/svg" viewBox="0 0 820 280" width="820" height="280">

  <!-- title -->
  <text x="52" y="18" font-size="13" font-weight="600"
        fill="#24292f" font-family="-apple-system, BlinkMacSystemFont, 'Segoe UI', sans-serif"
        >Clone traffic — ai-runner</text>
  <text x="800" y="18" font-size="10" fill="#8c959f"
        font-family="ui-monospace, SFMono-Regular, 'SF Mono', Menlo, monospace" text-anchor="end">2026-07-01</text>

  <!-- grid -->
  <line x1="52" y1="232.0" x2="800" y2="232.0" stroke="#e8e8e8" stroke-width="1"/><line x1="52" y1="191.2" x2="800" y2="191.2" stroke="#e8e8e8" stroke-width="1"/><line x1="52" y1="150.4" x2="800" y2="150.4" stroke="#e8e8e8" stroke-width="1"/><line x1="52" y1="109.6" x2="800" y2="109.6" stroke="#e8e8e8" stroke-width="1"/><line x1="52" y1="68.8" x2="800" y2="68.8" stroke="#e8e8e8" stroke-width="1"/><line x1="52" y1="28.0" x2="800" y2="28.0" stroke="#e8e8e8" stroke-width="1"/>

  <!-- area fill -->
  <path d="M52.0,232.0 L52.0,232.0 L67.3,201.4 L82.5,191.2 L97.8,58.6 L113.1,201.4 L128.3,221.8 L143.6,221.8 L158.9,232.0 L174.1,232.0 L189.4,221.8 L204.7,232.0 L219.9,232.0 L235.2,232.0 L250.4,232.0 L265.7,232.0 L281.0,232.0 L296.2,232.0 L311.5,221.8 L326.8,211.6 L342.0,232.0 L357.3,211.6 L372.6,211.6 L387.8,232.0 L403.1,232.0 L418.4,232.0 L433.6,211.6 L448.9,232.0 L464.2,221.8 L479.4,232.0 L494.7,191.2 L510.0,221.8 L525.2,232.0 L540.5,232.0 L555.8,232.0 L571.0,232.0 L586.3,211.6 L601.6,232.0 L616.8,232.0 L632.1,211.6 L647.3,221.8 L662.6,211.6 L677.9,191.2 L693.1,28.0 L708.4,232.0 L723.7,170.8 L738.9,211.6 L754.2,232.0 L769.5,221.8 L784.7,232.0 L800.0,232.0 L800.0,232.0 L52.0,232.0Z" fill="#4e79a7" opacity="0.12"/>

  <!-- lines -->
  <polyline points="52.0,232.0 67.3,201.4 82.5,191.2 97.8,58.6 113.1,201.4 128.3,221.8 143.6,221.8 158.9,232.0 174.1,232.0 189.4,221.8 204.7,232.0 219.9,232.0 235.2,232.0 250.4,232.0 265.7,232.0 281.0,232.0 296.2,232.0 311.5,221.8 326.8,211.6 342.0,232.0 357.3,211.6 372.6,211.6 387.8,232.0 403.1,232.0 418.4,232.0 433.6,211.6 448.9,232.0 464.2,221.8 479.4,232.0 494.7,191.2 510.0,221.8 525.2,232.0 540.5,232.0 555.8,232.0 571.0,232.0 586.3,211.6 601.6,232.0 616.8,232.0 632.1,211.6 647.3,221.8 662.6,211.6 677.9,191.2 693.1,28.0 708.4,232.0 723.7,170.8 738.9,211.6 754.2,232.0 769.5,221.8 784.7,232.0 800.0,232.0"
            fill="none" stroke="#4e79a7"
            stroke-width="2" stroke-linejoin="round"/>
  <polyline points="52.0,232.0 67.3,201.4 82.5,191.2 97.8,109.6 113.1,201.4 128.3,221.8 143.6,221.8 158.9,232.0 174.1,232.0 189.4,221.8 204.7,232.0 219.9,232.0 235.2,232.0 250.4,232.0 265.7,232.0 281.0,232.0 296.2,232.0 311.5,221.8 326.8,211.6 342.0,232.0 357.3,211.6 372.6,211.6 387.8,232.0 403.1,232.0 418.4,232.0 433.6,211.6 448.9,232.0 464.2,221.8 479.4,232.0 494.7,201.4 510.0,221.8 525.2,232.0 540.5,232.0 555.8,232.0 571.0,232.0 586.3,211.6 601.6,232.0 616.8,232.0 632.1,211.6 647.3,221.8 662.6,211.6 677.9,221.8 693.1,181.0 708.4,232.0 723.7,221.8 738.9,211.6 754.2,232.0 769.5,221.8 784.7,232.0 800.0,232.0"
            fill="none" stroke="#f28e2b"
            stroke-width="2" stroke-linejoin="round"
            stroke-dasharray="5,3"/>

  <!-- dots -->
  <circle cx="52.0" cy="232.0" r="3" fill="#4e79a7"/><circle cx="67.3" cy="201.4" r="3" fill="#4e79a7"/><circle cx="82.5" cy="191.2" r="3" fill="#4e79a7"/><circle cx="97.8" cy="58.6" r="3" fill="#4e79a7"/><circle cx="113.1" cy="201.4" r="3" fill="#4e79a7"/><circle cx="128.3" cy="221.8" r="3" fill="#4e79a7"/><circle cx="143.6" cy="221.8" r="3" fill="#4e79a7"/><circle cx="158.9" cy="232.0" r="3" fill="#4e79a7"/><circle cx="174.1" cy="232.0" r="3" fill="#4e79a7"/><circle cx="189.4" cy="221.8" r="3" fill="#4e79a7"/><circle cx="204.7" cy="232.0" r="3" fill="#4e79a7"/><circle cx="219.9" cy="232.0" r="3" fill="#4e79a7"/><circle cx="235.2" cy="232.0" r="3" fill="#4e79a7"/><circle cx="250.4" cy="232.0" r="3" fill="#4e79a7"/><circle cx="265.7" cy="232.0" r="3" fill="#4e79a7"/><circle cx="281.0" cy="232.0" r="3" fill="#4e79a7"/><circle cx="296.2" cy="232.0" r="3" fill="#4e79a7"/><circle cx="311.5" cy="221.8" r="3" fill="#4e79a7"/><circle cx="326.8" cy="211.6" r="3" fill="#4e79a7"/><circle cx="342.0" cy="232.0" r="3" fill="#4e79a7"/><circle cx="357.3" cy="211.6" r="3" fill="#4e79a7"/><circle cx="372.6" cy="211.6" r="3" fill="#4e79a7"/><circle cx="387.8" cy="232.0" r="3" fill="#4e79a7"/><circle cx="403.1" cy="232.0" r="3" fill="#4e79a7"/><circle cx="418.4" cy="232.0" r="3" fill="#4e79a7"/><circle cx="433.6" cy="211.6" r="3" fill="#4e79a7"/><circle cx="448.9" cy="232.0" r="3" fill="#4e79a7"/><circle cx="464.2" cy="221.8" r="3" fill="#4e79a7"/><circle cx="479.4" cy="232.0" r="3" fill="#4e79a7"/><circle cx="494.7" cy="191.2" r="3" fill="#4e79a7"/><circle cx="510.0" cy="221.8" r="3" fill="#4e79a7"/><circle cx="525.2" cy="232.0" r="3" fill="#4e79a7"/><circle cx="540.5" cy="232.0" r="3" fill="#4e79a7"/><circle cx="555.8" cy="232.0" r="3" fill="#4e79a7"/><circle cx="571.0" cy="232.0" r="3" fill="#4e79a7"/><circle cx="586.3" cy="211.6" r="3" fill="#4e79a7"/><circle cx="601.6" cy="232.0" r="3" fill="#4e79a7"/><circle cx="616.8" cy="232.0" r="3" fill="#4e79a7"/><circle cx="632.1" cy="211.6" r="3" fill="#4e79a7"/><circle cx="647.3" cy="221.8" r="3" fill="#4e79a7"/><circle cx="662.6" cy="211.6" r="3" fill="#4e79a7"/><circle cx="677.9" cy="191.2" r="3" fill="#4e79a7"/><circle cx="693.1" cy="28.0" r="3" fill="#4e79a7"/><circle cx="708.4" cy="232.0" r="3" fill="#4e79a7"/><circle cx="723.7" cy="170.8" r="3" fill="#4e79a7"/><circle cx="738.9" cy="211.6" r="3" fill="#4e79a7"/><circle cx="754.2" cy="232.0" r="3" fill="#4e79a7"/><circle cx="769.5" cy="221.8" r="3" fill="#4e79a7"/><circle cx="784.7" cy="232.0" r="3" fill="#4e79a7"/><circle cx="800.0" cy="232.0" r="3" fill="#4e79a7"/>
  <circle cx="52.0" cy="232.0" r="3" fill="#f28e2b"/><circle cx="67.3" cy="201.4" r="3" fill="#f28e2b"/><circle cx="82.5" cy="191.2" r="3" fill="#f28e2b"/><circle cx="97.8" cy="109.6" r="3" fill="#f28e2b"/><circle cx="113.1" cy="201.4" r="3" fill="#f28e2b"/><circle cx="128.3" cy="221.8" r="3" fill="#f28e2b"/><circle cx="143.6" cy="221.8" r="3" fill="#f28e2b"/><circle cx="158.9" cy="232.0" r="3" fill="#f28e2b"/><circle cx="174.1" cy="232.0" r="3" fill="#f28e2b"/><circle cx="189.4" cy="221.8" r="3" fill="#f28e2b"/><circle cx="204.7" cy="232.0" r="3" fill="#f28e2b"/><circle cx="219.9" cy="232.0" r="3" fill="#f28e2b"/><circle cx="235.2" cy="232.0" r="3" fill="#f28e2b"/><circle cx="250.4" cy="232.0" r="3" fill="#f28e2b"/><circle cx="265.7" cy="232.0" r="3" fill="#f28e2b"/><circle cx="281.0" cy="232.0" r="3" fill="#f28e2b"/><circle cx="296.2" cy="232.0" r="3" fill="#f28e2b"/><circle cx="311.5" cy="221.8" r="3" fill="#f28e2b"/><circle cx="326.8" cy="211.6" r="3" fill="#f28e2b"/><circle cx="342.0" cy="232.0" r="3" fill="#f28e2b"/><circle cx="357.3" cy="211.6" r="3" fill="#f28e2b"/><circle cx="372.6" cy="211.6" r="3" fill="#f28e2b"/><circle cx="387.8" cy="232.0" r="3" fill="#f28e2b"/><circle cx="403.1" cy="232.0" r="3" fill="#f28e2b"/><circle cx="418.4" cy="232.0" r="3" fill="#f28e2b"/><circle cx="433.6" cy="211.6" r="3" fill="#f28e2b"/><circle cx="448.9" cy="232.0" r="3" fill="#f28e2b"/><circle cx="464.2" cy="221.8" r="3" fill="#f28e2b"/><circle cx="479.4" cy="232.0" r="3" fill="#f28e2b"/><circle cx="494.7" cy="201.4" r="3" fill="#f28e2b"/><circle cx="510.0" cy="221.8" r="3" fill="#f28e2b"/><circle cx="525.2" cy="232.0" r="3" fill="#f28e2b"/><circle cx="540.5" cy="232.0" r="3" fill="#f28e2b"/><circle cx="555.8" cy="232.0" r="3" fill="#f28e2b"/><circle cx="571.0" cy="232.0" r="3" fill="#f28e2b"/><circle cx="586.3" cy="211.6" r="3" fill="#f28e2b"/><circle cx="601.6" cy="232.0" r="3" fill="#f28e2b"/><circle cx="616.8" cy="232.0" r="3" fill="#f28e2b"/><circle cx="632.1" cy="211.6" r="3" fill="#f28e2b"/><circle cx="647.3" cy="221.8" r="3" fill="#f28e2b"/><circle cx="662.6" cy="211.6" r="3" fill="#f28e2b"/><circle cx="677.9" cy="221.8" r="3" fill="#f28e2b"/><circle cx="693.1" cy="181.0" r="3" fill="#f28e2b"/><circle cx="708.4" cy="232.0" r="3" fill="#f28e2b"/><circle cx="723.7" cy="221.8" r="3" fill="#f28e2b"/><circle cx="738.9" cy="211.6" r="3" fill="#f28e2b"/><circle cx="754.2" cy="232.0" r="3" fill="#f28e2b"/><circle cx="769.5" cy="221.8" r="3" fill="#f28e2b"/><circle cx="784.7" cy="232.0" r="3" fill="#f28e2b"/><circle cx="800.0" cy="232.0" r="3" fill="#f28e2b"/>

  <!-- axes -->
  <line x1="52" y1="28" x2="52" y2="232"
        stroke="#cccccc" stroke-width="1"/>
  <line x1="52" y1="232" x2="800" y2="232"
        stroke="#cccccc" stroke-width="1"/>

  <!-- y-axis labels -->
  <text x="47" y="236.0" text-anchor="end" font-size="10" fill="#57606a" font-family="ui-monospace, SFMono-Regular, 'SF Mono', Menlo, monospace">0</text><text x="47" y="195.2" text-anchor="end" font-size="10" fill="#57606a" font-family="ui-monospace, SFMono-Regular, 'SF Mono', Menlo, monospace">4</text><text x="47" y="154.4" text-anchor="end" font-size="10" fill="#57606a" font-family="ui-monospace, SFMono-Regular, 'SF Mono', Menlo, monospace">8</text><text x="47" y="113.6" text-anchor="end" font-size="10" fill="#57606a" font-family="ui-monospace, SFMono-Regular, 'SF Mono', Menlo, monospace">12</text><text x="47" y="72.8" text-anchor="end" font-size="10" fill="#57606a" font-family="ui-monospace, SFMono-Regular, 'SF Mono', Menlo, monospace">16</text><text x="47" y="32.0" text-anchor="end" font-size="10" fill="#57606a" font-family="ui-monospace, SFMono-Regular, 'SF Mono', Menlo, monospace">20</text>

  <!-- x-axis labels -->
  <text x="52.0" y="248" text-anchor="middle" font-size="10" fill="#8c959f" font-family="ui-monospace, SFMono-Regular, 'SF Mono', Menlo, monospace">05-11</text><text x="601.6" y="248" text-anchor="middle" font-size="10" fill="#8c959f" font-family="ui-monospace, SFMono-Regular, 'SF Mono', Menlo, monospace">06-16</text><text x="143.6" y="248" text-anchor="middle" font-size="10" fill="#8c959f" font-family="ui-monospace, SFMono-Regular, 'SF Mono', Menlo, monospace">05-17</text><text x="693.1" y="248" text-anchor="middle" font-size="10" fill="#8c959f" font-family="ui-monospace, SFMono-Regular, 'SF Mono', Menlo, monospace">06-22</text><text x="235.2" y="248" text-anchor="middle" font-size="10" fill="#8c959f" font-family="ui-monospace, SFMono-Regular, 'SF Mono', Menlo, monospace">05-23</text><text x="784.7" y="248" text-anchor="middle" font-size="10" fill="#8c959f" font-family="ui-monospace, SFMono-Regular, 'SF Mono', Menlo, monospace">06-28</text><text x="800.0" y="248" text-anchor="middle" font-size="10" fill="#8c959f" font-family="ui-monospace, SFMono-Regular, 'SF Mono', Menlo, monospace">06-29</text><text x="326.8" y="248" text-anchor="middle" font-size="10" fill="#8c959f" font-family="ui-monospace, SFMono-Regular, 'SF Mono', Menlo, monospace">05-29</text><text x="418.4" y="248" text-anchor="middle" font-size="10" fill="#8c959f" font-family="ui-monospace, SFMono-Regular, 'SF Mono', Menlo, monospace">06-04</text><text x="510.0" y="248" text-anchor="middle" font-size="10" fill="#8c959f" font-family="ui-monospace, SFMono-Regular, 'SF Mono', Menlo, monospace">06-10</text>

  <!-- legend -->
  <rect x="60" y="262" width="16" height="3" fill="#4e79a7" rx="1"/><text x="80" y="268" font-size="11" fill="#57606a" font-family="-apple-system, BlinkMacSystemFont, 'Segoe UI', sans-serif">Total clones (85)</text><line x1="230" y1="264" x2="246" y2="264" stroke="#f28e2b" stroke-width="2" stroke-dasharray="5,3"/><text x="250" y="268" font-size="11" fill="#57606a" font-family="-apple-system, BlinkMacSystemFont, 'Segoe UI', sans-serif">Unique cloners</text>

</svg>