<svg xmlns="http://www.w3.org/2000/svg" viewBox="0 0 820 280" width="820" height="280">

  <!-- title -->
  <text x="52" y="18" font-size="13" font-weight="600"
        fill="#24292f" font-family="-apple-system, BlinkMacSystemFont, 'Segoe UI', sans-serif"
        >Clone traffic — android-device-rescue-kit</text>
  <text x="800" y="18" font-size="10" fill="#8c959f"
        font-family="ui-monospace, SFMono-Regular, 'SF Mono', Menlo, monospace" text-anchor="end">2026-06-26</text>

  <!-- grid -->
  <line x1="52" y1="232.0" x2="800" y2="232.0" stroke="#e8e8e8" stroke-width="1"/><line x1="52" y1="197.4" x2="800" y2="197.4" stroke="#e8e8e8" stroke-width="1"/><line x1="52" y1="162.8" x2="800" y2="162.8" stroke="#e8e8e8" stroke-width="1"/><line x1="52" y1="128.3" x2="800" y2="128.3" stroke="#e8e8e8" stroke-width="1"/><line x1="52" y1="93.7" x2="800" y2="93.7" stroke="#e8e8e8" stroke-width="1"/><line x1="52" y1="59.1" x2="800" y2="59.1" stroke="#e8e8e8" stroke-width="1"/><line x1="52" y1="24.5" x2="800" y2="24.5" stroke="#e8e8e8" stroke-width="1"/>

  <!-- area fill -->
  <path d="M52.0,232.0 L52.0,232.0 L69.4,232.0 L86.8,232.0 L104.2,232.0 L121.6,232.0 L139.0,232.0 L156.4,232.0 L173.8,232.0 L191.2,232.0 L208.6,232.0 L226.0,232.0 L243.3,232.0 L260.7,232.0 L278.1,28.0 L295.5,225.1 L312.9,232.0 L330.3,228.5 L347.7,228.5 L365.1,221.6 L382.5,228.5 L399.9,225.1 L417.3,228.5 L434.7,228.5 L452.1,232.0 L469.5,218.2 L486.9,225.1 L504.3,232.0 L521.7,232.0 L539.1,228.5 L556.5,228.5 L573.9,232.0 L591.3,232.0 L608.7,228.5 L626.0,232.0 L643.4,232.0 L660.8,228.5 L678.2,232.0 L695.6,183.6 L713.0,214.7 L730.4,228.5 L747.8,228.5 L765.2,228.5 L782.6,232.0 L800.0,221.6 L800.0,232.0 L52.0,232.0Z" fill="#4e79a7" opacity="0.12"/>

  <!-- lines -->
  <polyline points="52.0,232.0 69.4,232.0 86.8,232.0 104.2,232.0 121.6,232.0 139.0,232.0 156.4,232.0 173.8,232.0 191.2,232.0 208.6,232.0 226.0,232.0 243.3,232.0 260.7,232.0 278.1,28.0 295.5,225.1 312.9,232.0 330.3,228.5 347.7,228.5 365.1,221.6 382.5,228.5 399.9,225.1 417.3,228.5 434.7,228.5 452.1,232.0 469.5,218.2 486.9,225.1 504.3,232.0 521.7,232.0 539.1,228.5 556.5,228.5 573.9,232.0 591.3,232.0 608.7,228.5 626.0,232.0 643.4,232.0 660.8,228.5 678.2,232.0 695.6,183.6 713.0,214.7 730.4,228.5 747.8,228.5 765.2,228.5 782.6,232.0 800.0,221.6"
            fill="none" stroke="#4e79a7"
            stroke-width="2" stroke-linejoin="round"/>
  <polyline points="52.0,232.0 69.4,232.0 86.8,232.0 104.2,232.0 121.6,232.0 139.0,232.0 156.4,232.0 173.8,232.0 191.2,232.0 208.6,232.0 226.0,232.0 243.3,232.0 260.7,232.0 278.1,90.2 295.5,225.1 312.9,232.0 330.3,228.5 347.7,228.5 365.1,221.6 382.5,228.5 399.9,228.5 417.3,228.5 434.7,228.5 452.1,232.0 469.5,218.2 486.9,225.1 504.3,232.0 521.7,232.0 539.1,228.5 556.5,228.5 573.9,232.0 591.3,232.0 608.7,228.5 626.0,232.0 643.4,232.0 660.8,228.5 678.2,232.0 695.6,200.9 713.0,218.2 730.4,228.5 747.8,228.5 765.2,228.5 782.6,232.0 800.0,221.6"
            fill="none" stroke="#f28e2b"
            stroke-width="2" stroke-linejoin="round"
            stroke-dasharray="5,3"/>

  <!-- dots -->
  <circle cx="52.0" cy="232.0" r="3" fill="#4e79a7"/><circle cx="69.4" cy="232.0" r="3" fill="#4e79a7"/><circle cx="86.8" cy="232.0" r="3" fill="#4e79a7"/><circle cx="104.2" cy="232.0" r="3" fill="#4e79a7"/><circle cx="121.6" cy="232.0" r="3" fill="#4e79a7"/><circle cx="139.0" cy="232.0" r="3" fill="#4e79a7"/><circle cx="156.4" cy="232.0" r="3" fill="#4e79a7"/><circle cx="173.8" cy="232.0" r="3" fill="#4e79a7"/><circle cx="191.2" cy="232.0" r="3" fill="#4e79a7"/><circle cx="208.6" cy="232.0" r="3" fill="#4e79a7"/><circle cx="226.0" cy="232.0" r="3" fill="#4e79a7"/><circle cx="243.3" cy="232.0" r="3" fill="#4e79a7"/><circle cx="260.7" cy="232.0" r="3" fill="#4e79a7"/><circle cx="278.1" cy="28.0" r="3" fill="#4e79a7"/><circle cx="295.5" cy="225.1" r="3" fill="#4e79a7"/><circle cx="312.9" cy="232.0" r="3" fill="#4e79a7"/><circle cx="330.3" cy="228.5" r="3" fill="#4e79a7"/><circle cx="347.7" cy="228.5" r="3" fill="#4e79a7"/><circle cx="365.1" cy="221.6" r="3" fill="#4e79a7"/><circle cx="382.5" cy="228.5" r="3" fill="#4e79a7"/><circle cx="399.9" cy="225.1" r="3" fill="#4e79a7"/><circle cx="417.3" cy="228.5" r="3" fill="#4e79a7"/><circle cx="434.7" cy="228.5" r="3" fill="#4e79a7"/><circle cx="452.1" cy="232.0" r="3" fill="#4e79a7"/><circle cx="469.5" cy="218.2" r="3" fill="#4e79a7"/><circle cx="486.9" cy="225.1" r="3" fill="#4e79a7"/><circle cx="504.3" cy="232.0" r="3" fill="#4e79a7"/><circle cx="521.7" cy="232.0" r="3" fill="#4e79a7"/><circle cx="539.1" cy="228.5" r="3" fill="#4e79a7"/><circle cx="556.5" cy="228.5" r="3" fill="#4e79a7"/><circle cx="573.9" cy="232.0" r="3" fill="#4e79a7"/><circle cx="591.3" cy="232.0" r="3" fill="#4e79a7"/><circle cx="608.7" cy="228.5" r="3" fill="#4e79a7"/><circle cx="626.0" cy="232.0" r="3" fill="#4e79a7"/><circle cx="643.4" cy="232.0" r="3" fill="#4e79a7"/><circle cx="660.8" cy="228.5" r="3" fill="#4e79a7"/><circle cx="678.2" cy="232.0" r="3" fill="#4e79a7"/><circle cx="695.6" cy="183.6" r="3" fill="#4e79a7"/><circle cx="713.0" cy="214.7" r="3" fill="#4e79a7"/><circle cx="730.4" cy="228.5" r="3" fill="#4e79a7"/><circle cx="747.8" cy="228.5" r="3" fill="#4e79a7"/><circle cx="765.2" cy="228.5" r="3" fill="#4e79a7"/><circle cx="782.6" cy="232.0" r="3" fill="#4e79a7"/><circle cx="800.0" cy="221.6" r="3" fill="#4e79a7"/>
  <circle cx="52.0" cy="232.0" r="3" fill="#f28e2b"/><circle cx="69.4" cy="232.0" r="3" fill="#f28e2b"/><circle cx="86.8" cy="232.0" r="3" fill="#f28e2b"/><circle cx="104.2" cy="232.0" r="3" fill="#f28e2b"/><circle cx="121.6" cy="232.0" r="3" fill="#f28e2b"/><circle cx="139.0" cy="232.0" r="3" fill="#f28e2b"/><circle cx="156.4" cy="232.0" r="3" fill="#f28e2b"/><circle cx="173.8" cy="232.0" r="3" fill="#f28e2b"/><circle cx="191.2" cy="232.0" r="3" fill="#f28e2b"/><circle cx="208.6" cy="232.0" r="3" fill="#f28e2b"/><circle cx="226.0" cy="232.0" r="3" fill="#f28e2b"/><circle cx="243.3" cy="232.0" r="3" fill="#f28e2b"/><circle cx="260.7" cy="232.0" r="3" fill="#f28e2b"/><circle cx="278.1" cy="90.2" r="3" fill="#f28e2b"/><circle cx="295.5" cy="225.1" r="3" fill="#f28e2b"/><circle cx="312.9" cy="232.0" r="3" fill="#f28e2b"/><circle cx="330.3" cy="228.5" r="3" fill="#f28e2b"/><circle cx="347.7" cy="228.5" r="3" fill="#f28e2b"/><circle cx="365.1" cy="221.6" r="3" fill="#f28e2b"/><circle cx="382.5" cy="228.5" r="3" fill="#f28e2b"/><circle cx="399.9" cy="228.5" r="3" fill="#f28e2b"/><circle cx="417.3" cy="228.5" r="3" fill="#f28e2b"/><circle cx="434.7" cy="228.5" r="3" fill="#f28e2b"/><circle cx="452.1" cy="232.0" r="3" fill="#f28e2b"/><circle cx="469.5" cy="218.2" r="3" fill="#f28e2b"/><circle cx="486.9" cy="225.1" r="3" fill="#f28e2b"/><circle cx="504.3" cy="232.0" r="3" fill="#f28e2b"/><circle cx="521.7" cy="232.0" r="3" fill="#f28e2b"/><circle cx="539.1" cy="228.5" r="3" fill="#f28e2b"/><circle cx="556.5" cy="228.5" r="3" fill="#f28e2b"/><circle cx="573.9" cy="232.0" r="3" fill="#f28e2b"/><circle cx="591.3" cy="232.0" r="3" fill="#f28e2b"/><circle cx="608.7" cy="228.5" r="3" fill="#f28e2b"/><circle cx="626.0" cy="232.0" r="3" fill="#f28e2b"/><circle cx="643.4" cy="232.0" r="3" fill="#f28e2b"/><circle cx="660.8" cy="228.5" r="3" fill="#f28e2b"/><circle cx="678.2" cy="232.0" r="3" fill="#f28e2b"/><circle cx="695.6" cy="200.9" r="3" fill="#f28e2b"/><circle cx="713.0" cy="218.2" r="3" fill="#f28e2b"/><circle cx="730.4" cy="228.5" r="3" fill="#f28e2b"/><circle cx="747.8" cy="228.5" r="3" fill="#f28e2b"/><circle cx="765.2" cy="228.5" r="3" fill="#f28e2b"/><circle cx="782.6" cy="232.0" r="3" fill="#f28e2b"/><circle cx="800.0" cy="221.6" r="3" fill="#f28e2b"/>

  <!-- axes -->
  <line x1="52" y1="28" x2="52" y2="232"
        stroke="#cccccc" stroke-width="1"/>
  <line x1="52" y1="232" x2="800" y2="232"
        stroke="#cccccc" stroke-width="1"/>

  <!-- y-axis labels -->
  <text x="47" y="236.0" text-anchor="end" font-size="10" fill="#57606a" font-family="ui-monospace, SFMono-Regular, 'SF Mono', Menlo, monospace">0</text><text x="47" y="201.4" text-anchor="end" font-size="10" fill="#57606a" font-family="ui-monospace, SFMono-Regular, 'SF Mono', Menlo, monospace">10</text><text x="47" y="166.8" text-anchor="end" font-size="10" fill="#57606a" font-family="ui-monospace, SFMono-Regular, 'SF Mono', Menlo, monospace">20</text><text x="47" y="132.3" text-anchor="end" font-size="10" fill="#57606a" font-family="ui-monospace, SFMono-Regular, 'SF Mono', Menlo, monospace">30</text><text x="47" y="97.7" text-anchor="end" font-size="10" fill="#57606a" font-family="ui-monospace, SFMono-Regular, 'SF Mono', Menlo, monospace">40</text><text x="47" y="63.1" text-anchor="end" font-size="10" fill="#57606a" font-family="ui-monospace, SFMono-Regular, 'SF Mono', Menlo, monospace">50</text><text x="47" y="28.5" text-anchor="end" font-size="10" fill="#57606a" font-family="ui-monospace, SFMono-Regular, 'SF Mono', Menlo, monospace">60</text>

  <!-- x-axis labels -->
  <text x="52.0" y="248" text-anchor="middle" font-size="10" fill="#8c959f" font-family="ui-monospace, SFMono-Regular, 'SF Mono', Menlo, monospace">05-12</text><text x="660.8" y="248" text-anchor="middle" font-size="10" fill="#8c959f" font-family="ui-monospace, SFMono-Regular, 'SF Mono', Menlo, monospace">06-16</text><text x="139.0" y="248" text-anchor="middle" font-size="10" fill="#8c959f" font-family="ui-monospace, SFMono-Regular, 'SF Mono', Menlo, monospace">05-17</text><text x="747.8" y="248" text-anchor="middle" font-size="10" fill="#8c959f" font-family="ui-monospace, SFMono-Regular, 'SF Mono', Menlo, monospace">06-21</text><text x="226.0" y="248" text-anchor="middle" font-size="10" fill="#8c959f" font-family="ui-monospace, SFMono-Regular, 'SF Mono', Menlo, monospace">05-22</text><text x="800.0" y="248" text-anchor="middle" font-size="10" fill="#8c959f" font-family="ui-monospace, SFMono-Regular, 'SF Mono', Menlo, monospace">06-24</text><text x="312.9" y="248" text-anchor="middle" font-size="10" fill="#8c959f" font-family="ui-monospace, SFMono-Regular, 'SF Mono', Menlo, monospace">05-27</text><text x="399.9" y="248" text-anchor="middle" font-size="10" fill="#8c959f" font-family="ui-monospace, SFMono-Regular, 'SF Mono', Menlo, monospace">06-01</text><text x="486.9" y="248" text-anchor="middle" font-size="10" fill="#8c959f" font-family="ui-monospace, SFMono-Regular, 'SF Mono', Menlo, monospace">06-06</text><text x="573.9" y="248" text-anchor="middle" font-size="10" fill="#8c959f" font-family="ui-monospace, SFMono-Regular, 'SF Mono', Menlo, monospace">06-11</text>

  <!-- legend -->
  <rect x="60" y="262" width="16" height="3" fill="#4e79a7" rx="1"/><text x="80" y="268" font-size="11" fill="#57606a" font-family="-apple-system, BlinkMacSystemFont, 'Segoe UI', sans-serif">Total clones (106)</text><line x1="230" y1="264" x2="246" y2="264" stroke="#f28e2b" stroke-width="2" stroke-dasharray="5,3"/><text x="250" y="268" font-size="11" fill="#57606a" font-family="-apple-system, BlinkMacSystemFont, 'Segoe UI', sans-serif">Unique cloners</text>

</svg>