<svg xmlns="http://www.w3.org/2000/svg" viewBox="0 0 820 280" width="820" height="280">

  <!-- title -->
  <text x="52" y="18" font-size="13" font-weight="600"
        fill="#24292f" font-family="-apple-system, BlinkMacSystemFont, 'Segoe UI', sans-serif"
        >Clone traffic — android-device-rescue-kit</text>
  <text x="800" y="18" font-size="10" fill="#8c959f"
        font-family="ui-monospace, SFMono-Regular, 'SF Mono', Menlo, monospace" text-anchor="end">2026-07-21</text>

  <!-- grid -->
  <line x1="52" y1="232.0" x2="800" y2="232.0" stroke="#e8e8e8" stroke-width="1"/><line x1="52" y1="197.4" x2="800" y2="197.4" stroke="#e8e8e8" stroke-width="1"/><line x1="52" y1="162.8" x2="800" y2="162.8" stroke="#e8e8e8" stroke-width="1"/><line x1="52" y1="128.3" x2="800" y2="128.3" stroke="#e8e8e8" stroke-width="1"/><line x1="52" y1="93.7" x2="800" y2="93.7" stroke="#e8e8e8" stroke-width="1"/><line x1="52" y1="59.1" x2="800" y2="59.1" stroke="#e8e8e8" stroke-width="1"/><line x1="52" y1="24.5" x2="800" y2="24.5" stroke="#e8e8e8" stroke-width="1"/>

  <!-- area fill -->
  <path d="M52.0,232.0 L52.0,232.0 L63.0,232.0 L74.0,232.0 L85.0,232.0 L96.0,232.0 L107.0,232.0 L118.0,232.0 L129.0,232.0 L140.0,232.0 L151.0,232.0 L162.0,232.0 L173.0,232.0 L184.0,232.0 L195.0,28.0 L206.0,225.1 L217.0,232.0 L228.0,228.5 L239.0,228.5 L250.0,221.6 L261.0,228.5 L272.0,225.1 L283.0,228.5 L294.0,228.5 L305.0,232.0 L316.0,218.2 L327.0,225.1 L338.0,232.0 L349.0,232.0 L360.0,228.5 L371.0,228.5 L382.0,232.0 L393.0,232.0 L404.0,228.5 L415.0,232.0 L426.0,232.0 L437.0,228.5 L448.0,232.0 L459.0,183.6 L470.0,214.7 L481.0,228.5 L492.0,228.5 L503.0,228.5 L514.0,232.0 L525.0,221.6 L536.0,232.0 L547.0,228.5 L558.0,228.5 L569.0,232.0 L580.0,232.0 L591.0,232.0 L602.0,228.5 L613.0,232.0 L624.0,232.0 L635.0,228.5 L646.0,232.0 L657.0,228.5 L668.0,232.0 L679.0,232.0 L690.0,232.0 L701.0,228.5 L712.0,228.5 L723.0,228.5 L734.0,232.0 L745.0,232.0 L756.0,232.0 L767.0,228.5 L778.0,232.0 L789.0,225.1 L800.0,232.0 L800.0,232.0 L52.0,232.0Z" fill="#4e79a7" opacity="0.12"/>

  <!-- lines -->
  <polyline points="52.0,232.0 63.0,232.0 74.0,232.0 85.0,232.0 96.0,232.0 107.0,232.0 118.0,232.0 129.0,232.0 140.0,232.0 151.0,232.0 162.0,232.0 173.0,232.0 184.0,232.0 195.0,28.0 206.0,225.1 217.0,232.0 228.0,228.5 239.0,228.5 250.0,221.6 261.0,228.5 272.0,225.1 283.0,228.5 294.0,228.5 305.0,232.0 316.0,218.2 327.0,225.1 338.0,232.0 349.0,232.0 360.0,228.5 371.0,228.5 382.0,232.0 393.0,232.0 404.0,228.5 415.0,232.0 426.0,232.0 437.0,228.5 448.0,232.0 459.0,183.6 470.0,214.7 481.0,228.5 492.0,228.5 503.0,228.5 514.0,232.0 525.0,221.6 536.0,232.0 547.0,228.5 558.0,228.5 569.0,232.0 580.0,232.0 591.0,232.0 602.0,228.5 613.0,232.0 624.0,232.0 635.0,228.5 646.0,232.0 657.0,228.5 668.0,232.0 679.0,232.0 690.0,232.0 701.0,228.5 712.0,228.5 723.0,228.5 734.0,232.0 745.0,232.0 756.0,232.0 767.0,228.5 778.0,232.0 789.0,225.1 800.0,232.0"
            fill="none" stroke="#4e79a7"
            stroke-width="2" stroke-linejoin="round"/>
  <polyline points="52.0,232.0 63.0,232.0 74.0,232.0 85.0,232.0 96.0,232.0 107.0,232.0 118.0,232.0 129.0,232.0 140.0,232.0 151.0,232.0 162.0,232.0 173.0,232.0 184.0,232.0 195.0,90.2 206.0,225.1 217.0,232.0 228.0,228.5 239.0,228.5 250.0,221.6 261.0,228.5 272.0,228.5 283.0,228.5 294.0,228.5 305.0,232.0 316.0,218.2 327.0,225.1 338.0,232.0 349.0,232.0 360.0,228.5 371.0,228.5 382.0,232.0 393.0,232.0 404.0,228.5 415.0,232.0 426.0,232.0 437.0,228.5 448.0,232.0 459.0,200.9 470.0,218.2 481.0,228.5 492.0,228.5 503.0,228.5 514.0,232.0 525.0,221.6 536.0,232.0 547.0,228.5 558.0,228.5 569.0,232.0 580.0,232.0 591.0,232.0 602.0,228.5 613.0,232.0 624.0,232.0 635.0,228.5 646.0,232.0 657.0,228.5 668.0,232.0 679.0,232.0 690.0,232.0 701.0,228.5 712.0,228.5 723.0,228.5 734.0,232.0 745.0,232.0 756.0,232.0 767.0,228.5 778.0,232.0 789.0,225.1 800.0,232.0"
            fill="none" stroke="#f28e2b"
            stroke-width="2" stroke-linejoin="round"
            stroke-dasharray="5,3"/>

  <!-- dots -->
  <circle cx="52.0" cy="232.0" r="3" fill="#4e79a7"/><circle cx="63.0" cy="232.0" r="3" fill="#4e79a7"/><circle cx="74.0" cy="232.0" r="3" fill="#4e79a7"/><circle cx="85.0" cy="232.0" r="3" fill="#4e79a7"/><circle cx="96.0" cy="232.0" r="3" fill="#4e79a7"/><circle cx="107.0" cy="232.0" r="3" fill="#4e79a7"/><circle cx="118.0" cy="232.0" r="3" fill="#4e79a7"/><circle cx="129.0" cy="232.0" r="3" fill="#4e79a7"/><circle cx="140.0" cy="232.0" r="3" fill="#4e79a7"/><circle cx="151.0" cy="232.0" r="3" fill="#4e79a7"/><circle cx="162.0" cy="232.0" r="3" fill="#4e79a7"/><circle cx="173.0" cy="232.0" r="3" fill="#4e79a7"/><circle cx="184.0" cy="232.0" r="3" fill="#4e79a7"/><circle cx="195.0" cy="28.0" r="3" fill="#4e79a7"/><circle cx="206.0" cy="225.1" r="3" fill="#4e79a7"/><circle cx="217.0" cy="232.0" r="3" fill="#4e79a7"/><circle cx="228.0" cy="228.5" r="3" fill="#4e79a7"/><circle cx="239.0" cy="228.5" r="3" fill="#4e79a7"/><circle cx="250.0" cy="221.6" r="3" fill="#4e79a7"/><circle cx="261.0" cy="228.5" r="3" fill="#4e79a7"/><circle cx="272.0" cy="225.1" r="3" fill="#4e79a7"/><circle cx="283.0" cy="228.5" r="3" fill="#4e79a7"/><circle cx="294.0" cy="228.5" r="3" fill="#4e79a7"/><circle cx="305.0" cy="232.0" r="3" fill="#4e79a7"/><circle cx="316.0" cy="218.2" r="3" fill="#4e79a7"/><circle cx="327.0" cy="225.1" r="3" fill="#4e79a7"/><circle cx="338.0" cy="232.0" r="3" fill="#4e79a7"/><circle cx="349.0" cy="232.0" r="3" fill="#4e79a7"/><circle cx="360.0" cy="228.5" r="3" fill="#4e79a7"/><circle cx="371.0" cy="228.5" r="3" fill="#4e79a7"/><circle cx="382.0" cy="232.0" r="3" fill="#4e79a7"/><circle cx="393.0" cy="232.0" r="3" fill="#4e79a7"/><circle cx="404.0" cy="228.5" r="3" fill="#4e79a7"/><circle cx="415.0" cy="232.0" r="3" fill="#4e79a7"/><circle cx="426.0" cy="232.0" r="3" fill="#4e79a7"/><circle cx="437.0" cy="228.5" r="3" fill="#4e79a7"/><circle cx="448.0" cy="232.0" r="3" fill="#4e79a7"/><circle cx="459.0" cy="183.6" r="3" fill="#4e79a7"/><circle cx="470.0" cy="214.7" r="3" fill="#4e79a7"/><circle cx="481.0" cy="228.5" r="3" fill="#4e79a7"/><circle cx="492.0" cy="228.5" r="3" fill="#4e79a7"/><circle cx="503.0" cy="228.5" r="3" fill="#4e79a7"/><circle cx="514.0" cy="232.0" r="3" fill="#4e79a7"/><circle cx="525.0" cy="221.6" r="3" fill="#4e79a7"/><circle cx="536.0" cy="232.0" r="3" fill="#4e79a7"/><circle cx="547.0" cy="228.5" r="3" fill="#4e79a7"/><circle cx="558.0" cy="228.5" r="3" fill="#4e79a7"/><circle cx="569.0" cy="232.0" r="3" fill="#4e79a7"/><circle cx="580.0" cy="232.0" r="3" fill="#4e79a7"/><circle cx="591.0" cy="232.0" r="3" fill="#4e79a7"/><circle cx="602.0" cy="228.5" r="3" fill="#4e79a7"/><circle cx="613.0" cy="232.0" r="3" fill="#4e79a7"/><circle cx="624.0" cy="232.0" r="3" fill="#4e79a7"/><circle cx="635.0" cy="228.5" r="3" fill="#4e79a7"/><circle cx="646.0" cy="232.0" r="3" fill="#4e79a7"/><circle cx="657.0" cy="228.5" r="3" fill="#4e79a7"/><circle cx="668.0" cy="232.0" r="3" fill="#4e79a7"/><circle cx="679.0" cy="232.0" r="3" fill="#4e79a7"/><circle cx="690.0" cy="232.0" r="3" fill="#4e79a7"/><circle cx="701.0" cy="228.5" r="3" fill="#4e79a7"/><circle cx="712.0" cy="228.5" r="3" fill="#4e79a7"/><circle cx="723.0" cy="228.5" r="3" fill="#4e79a7"/><circle cx="734.0" cy="232.0" r="3" fill="#4e79a7"/><circle cx="745.0" cy="232.0" r="3" fill="#4e79a7"/><circle cx="756.0" cy="232.0" r="3" fill="#4e79a7"/><circle cx="767.0" cy="228.5" r="3" fill="#4e79a7"/><circle cx="778.0" cy="232.0" r="3" fill="#4e79a7"/><circle cx="789.0" cy="225.1" r="3" fill="#4e79a7"/><circle cx="800.0" cy="232.0" r="3" fill="#4e79a7"/>
  <circle cx="52.0" cy="232.0" r="3" fill="#f28e2b"/><circle cx="63.0" cy="232.0" r="3" fill="#f28e2b"/><circle cx="74.0" cy="232.0" r="3" fill="#f28e2b"/><circle cx="85.0" cy="232.0" r="3" fill="#f28e2b"/><circle cx="96.0" cy="232.0" r="3" fill="#f28e2b"/><circle cx="107.0" cy="232.0" r="3" fill="#f28e2b"/><circle cx="118.0" cy="232.0" r="3" fill="#f28e2b"/><circle cx="129.0" cy="232.0" r="3" fill="#f28e2b"/><circle cx="140.0" cy="232.0" r="3" fill="#f28e2b"/><circle cx="151.0" cy="232.0" r="3" fill="#f28e2b"/><circle cx="162.0" cy="232.0" r="3" fill="#f28e2b"/><circle cx="173.0" cy="232.0" r="3" fill="#f28e2b"/><circle cx="184.0" cy="232.0" r="3" fill="#f28e2b"/><circle cx="195.0" cy="90.2" r="3" fill="#f28e2b"/><circle cx="206.0" cy="225.1" r="3" fill="#f28e2b"/><circle cx="217.0" cy="232.0" r="3" fill="#f28e2b"/><circle cx="228.0" cy="228.5" r="3" fill="#f28e2b"/><circle cx="239.0" cy="228.5" r="3" fill="#f28e2b"/><circle cx="250.0" cy="221.6" r="3" fill="#f28e2b"/><circle cx="261.0" cy="228.5" r="3" fill="#f28e2b"/><circle cx="272.0" cy="228.5" r="3" fill="#f28e2b"/><circle cx="283.0" cy="228.5" r="3" fill="#f28e2b"/><circle cx="294.0" cy="228.5" r="3" fill="#f28e2b"/><circle cx="305.0" cy="232.0" r="3" fill="#f28e2b"/><circle cx="316.0" cy="218.2" r="3" fill="#f28e2b"/><circle cx="327.0" cy="225.1" r="3" fill="#f28e2b"/><circle cx="338.0" cy="232.0" r="3" fill="#f28e2b"/><circle cx="349.0" cy="232.0" r="3" fill="#f28e2b"/><circle cx="360.0" cy="228.5" r="3" fill="#f28e2b"/><circle cx="371.0" cy="228.5" r="3" fill="#f28e2b"/><circle cx="382.0" cy="232.0" r="3" fill="#f28e2b"/><circle cx="393.0" cy="232.0" r="3" fill="#f28e2b"/><circle cx="404.0" cy="228.5" r="3" fill="#f28e2b"/><circle cx="415.0" cy="232.0" r="3" fill="#f28e2b"/><circle cx="426.0" cy="232.0" r="3" fill="#f28e2b"/><circle cx="437.0" cy="228.5" r="3" fill="#f28e2b"/><circle cx="448.0" cy="232.0" r="3" fill="#f28e2b"/><circle cx="459.0" cy="200.9" r="3" fill="#f28e2b"/><circle cx="470.0" cy="218.2" r="3" fill="#f28e2b"/><circle cx="481.0" cy="228.5" r="3" fill="#f28e2b"/><circle cx="492.0" cy="228.5" r="3" fill="#f28e2b"/><circle cx="503.0" cy="228.5" r="3" fill="#f28e2b"/><circle cx="514.0" cy="232.0" r="3" fill="#f28e2b"/><circle cx="525.0" cy="221.6" r="3" fill="#f28e2b"/><circle cx="536.0" cy="232.0" r="3" fill="#f28e2b"/><circle cx="547.0" cy="228.5" r="3" fill="#f28e2b"/><circle cx="558.0" cy="228.5" r="3" fill="#f28e2b"/><circle cx="569.0" cy="232.0" r="3" fill="#f28e2b"/><circle cx="580.0" cy="232.0" r="3" fill="#f28e2b"/><circle cx="591.0" cy="232.0" r="3" fill="#f28e2b"/><circle cx="602.0" cy="228.5" r="3" fill="#f28e2b"/><circle cx="613.0" cy="232.0" r="3" fill="#f28e2b"/><circle cx="624.0" cy="232.0" r="3" fill="#f28e2b"/><circle cx="635.0" cy="228.5" r="3" fill="#f28e2b"/><circle cx="646.0" cy="232.0" r="3" fill="#f28e2b"/><circle cx="657.0" cy="228.5" r="3" fill="#f28e2b"/><circle cx="668.0" cy="232.0" r="3" fill="#f28e2b"/><circle cx="679.0" cy="232.0" r="3" fill="#f28e2b"/><circle cx="690.0" cy="232.0" r="3" fill="#f28e2b"/><circle cx="701.0" cy="228.5" r="3" fill="#f28e2b"/><circle cx="712.0" cy="228.5" r="3" fill="#f28e2b"/><circle cx="723.0" cy="228.5" r="3" fill="#f28e2b"/><circle cx="734.0" cy="232.0" r="3" fill="#f28e2b"/><circle cx="745.0" cy="232.0" r="3" fill="#f28e2b"/><circle cx="756.0" cy="232.0" r="3" fill="#f28e2b"/><circle cx="767.0" cy="228.5" r="3" fill="#f28e2b"/><circle cx="778.0" cy="232.0" r="3" fill="#f28e2b"/><circle cx="789.0" cy="225.1" r="3" fill="#f28e2b"/><circle cx="800.0" cy="232.0" r="3" fill="#f28e2b"/>

  <!-- axes -->
  <line x1="52" y1="28" x2="52" y2="232"
        stroke="#cccccc" stroke-width="1"/>
  <line x1="52" y1="232" x2="800" y2="232"
        stroke="#cccccc" stroke-width="1"/>

  <!-- y-axis labels -->
  <text x="47" y="236.0" text-anchor="end" font-size="10" fill="#57606a" font-family="ui-monospace, SFMono-Regular, 'SF Mono', Menlo, monospace">0</text><text x="47" y="201.4" text-anchor="end" font-size="10" fill="#57606a" font-family="ui-monospace, SFMono-Regular, 'SF Mono', Menlo, monospace">10</text><text x="47" y="166.8" text-anchor="end" font-size="10" fill="#57606a" font-family="ui-monospace, SFMono-Regular, 'SF Mono', Menlo, monospace">20</text><text x="47" y="132.3" text-anchor="end" font-size="10" fill="#57606a" font-family="ui-monospace, SFMono-Regular, 'SF Mono', Menlo, monospace">30</text><text x="47" y="97.7" text-anchor="end" font-size="10" fill="#57606a" font-family="ui-monospace, SFMono-Regular, 'SF Mono', Menlo, monospace">40</text><text x="47" y="63.1" text-anchor="end" font-size="10" fill="#57606a" font-family="ui-monospace, SFMono-Regular, 'SF Mono', Menlo, monospace">50</text><text x="47" y="28.5" text-anchor="end" font-size="10" fill="#57606a" font-family="ui-monospace, SFMono-Regular, 'SF Mono', Menlo, monospace">60</text>

  <!-- x-axis labels -->
  <text x="52.0" y="248" text-anchor="middle" font-size="10" fill="#8c959f" font-family="ui-monospace, SFMono-Regular, 'SF Mono', Menlo, monospace">05-12</text><text x="404.0" y="248" text-anchor="middle" font-size="10" fill="#8c959f" font-family="ui-monospace, SFMono-Regular, 'SF Mono', Menlo, monospace">06-13</text><text x="756.0" y="248" text-anchor="middle" font-size="10" fill="#8c959f" font-family="ui-monospace, SFMono-Regular, 'SF Mono', Menlo, monospace">07-15</text><text x="800.0" y="248" text-anchor="middle" font-size="10" fill="#8c959f" font-family="ui-monospace, SFMono-Regular, 'SF Mono', Menlo, monospace">07-19</text><text x="140.0" y="248" text-anchor="middle" font-size="10" fill="#8c959f" font-family="ui-monospace, SFMono-Regular, 'SF Mono', Menlo, monospace">05-20</text><text x="492.0" y="248" text-anchor="middle" font-size="10" fill="#8c959f" font-family="ui-monospace, SFMono-Regular, 'SF Mono', Menlo, monospace">06-21</text><text x="228.0" y="248" text-anchor="middle" font-size="10" fill="#8c959f" font-family="ui-monospace, SFMono-Regular, 'SF Mono', Menlo, monospace">05-28</text><text x="580.0" y="248" text-anchor="middle" font-size="10" fill="#8c959f" font-family="ui-monospace, SFMono-Regular, 'SF Mono', Menlo, monospace">06-29</text><text x="316.0" y="248" text-anchor="middle" font-size="10" fill="#8c959f" font-family="ui-monospace, SFMono-Regular, 'SF Mono', Menlo, monospace">06-05</text><text x="668.0" y="248" text-anchor="middle" font-size="10" fill="#8c959f" font-family="ui-monospace, SFMono-Regular, 'SF Mono', Menlo, monospace">07-07</text>

  <!-- legend -->
  <rect x="60" y="262" width="16" height="3" fill="#4e79a7" rx="1"/><text x="80" y="268" font-size="11" fill="#57606a" font-family="-apple-system, BlinkMacSystemFont, 'Segoe UI', sans-serif">Total clones (117)</text><line x1="230" y1="264" x2="246" y2="264" stroke="#f28e2b" stroke-width="2" stroke-dasharray="5,3"/><text x="250" y="268" font-size="11" fill="#57606a" font-family="-apple-system, BlinkMacSystemFont, 'Segoe UI', sans-serif">Unique cloners</text>

</svg>