<svg xmlns="http://www.w3.org/2000/svg" viewBox="0 0 820 280" width="820" height="280">

  <!-- title -->
  <text x="52" y="18" font-size="13" font-weight="600"
        fill="#24292f" font-family="-apple-system, BlinkMacSystemFont, 'Segoe UI', sans-serif"
        >Clone traffic — android-device-rescue-kit</text>
  <text x="800" y="18" font-size="10" fill="#8c959f"
        font-family="ui-monospace, SFMono-Regular, 'SF Mono', Menlo, monospace" text-anchor="end">2026-06-14</text>

  <!-- grid -->
  <line x1="52" y1="232.0" x2="800" y2="232.0" stroke="#e8e8e8" stroke-width="1"/><line x1="52" y1="197.4" x2="800" y2="197.4" stroke="#e8e8e8" stroke-width="1"/><line x1="52" y1="162.8" x2="800" y2="162.8" stroke="#e8e8e8" stroke-width="1"/><line x1="52" y1="128.3" x2="800" y2="128.3" stroke="#e8e8e8" stroke-width="1"/><line x1="52" y1="93.7" x2="800" y2="93.7" stroke="#e8e8e8" stroke-width="1"/><line x1="52" y1="59.1" x2="800" y2="59.1" stroke="#e8e8e8" stroke-width="1"/><line x1="52" y1="24.5" x2="800" y2="24.5" stroke="#e8e8e8" stroke-width="1"/>

  <!-- area fill -->
  <path d="M52.0,232.0 L52.0,232.0 L76.1,232.0 L100.3,232.0 L124.4,232.0 L148.5,232.0 L172.6,232.0 L196.8,232.0 L220.9,232.0 L245.0,232.0 L269.2,232.0 L293.3,232.0 L317.4,232.0 L341.5,232.0 L365.7,28.0 L389.8,225.1 L413.9,232.0 L438.1,228.5 L462.2,228.5 L486.3,221.6 L510.5,228.5 L534.6,225.1 L558.7,228.5 L582.8,228.5 L607.0,232.0 L631.1,218.2 L655.2,225.1 L679.4,232.0 L703.5,232.0 L727.6,228.5 L751.7,228.5 L775.9,232.0 L800.0,232.0 L800.0,232.0 L52.0,232.0Z" fill="#4e79a7" opacity="0.12"/>

  <!-- lines -->
  <polyline points="52.0,232.0 76.1,232.0 100.3,232.0 124.4,232.0 148.5,232.0 172.6,232.0 196.8,232.0 220.9,232.0 245.0,232.0 269.2,232.0 293.3,232.0 317.4,232.0 341.5,232.0 365.7,28.0 389.8,225.1 413.9,232.0 438.1,228.5 462.2,228.5 486.3,221.6 510.5,228.5 534.6,225.1 558.7,228.5 582.8,228.5 607.0,232.0 631.1,218.2 655.2,225.1 679.4,232.0 703.5,232.0 727.6,228.5 751.7,228.5 775.9,232.0 800.0,232.0"
            fill="none" stroke="#4e79a7"
            stroke-width="2" stroke-linejoin="round"/>
  <polyline points="52.0,232.0 76.1,232.0 100.3,232.0 124.4,232.0 148.5,232.0 172.6,232.0 196.8,232.0 220.9,232.0 245.0,232.0 269.2,232.0 293.3,232.0 317.4,232.0 341.5,232.0 365.7,90.2 389.8,225.1 413.9,232.0 438.1,228.5 462.2,228.5 486.3,221.6 510.5,228.5 534.6,228.5 558.7,228.5 582.8,228.5 607.0,232.0 631.1,218.2 655.2,225.1 679.4,232.0 703.5,232.0 727.6,228.5 751.7,228.5 775.9,232.0 800.0,232.0"
            fill="none" stroke="#f28e2b"
            stroke-width="2" stroke-linejoin="round"
            stroke-dasharray="5,3"/>

  <!-- dots -->
  <circle cx="52.0" cy="232.0" r="3" fill="#4e79a7"/><circle cx="76.1" cy="232.0" r="3" fill="#4e79a7"/><circle cx="100.3" cy="232.0" r="3" fill="#4e79a7"/><circle cx="124.4" cy="232.0" r="3" fill="#4e79a7"/><circle cx="148.5" cy="232.0" r="3" fill="#4e79a7"/><circle cx="172.6" cy="232.0" r="3" fill="#4e79a7"/><circle cx="196.8" cy="232.0" r="3" fill="#4e79a7"/><circle cx="220.9" cy="232.0" r="3" fill="#4e79a7"/><circle cx="245.0" cy="232.0" r="3" fill="#4e79a7"/><circle cx="269.2" cy="232.0" r="3" fill="#4e79a7"/><circle cx="293.3" cy="232.0" r="3" fill="#4e79a7"/><circle cx="317.4" cy="232.0" r="3" fill="#4e79a7"/><circle cx="341.5" cy="232.0" r="3" fill="#4e79a7"/><circle cx="365.7" cy="28.0" r="3" fill="#4e79a7"/><circle cx="389.8" cy="225.1" r="3" fill="#4e79a7"/><circle cx="413.9" cy="232.0" r="3" fill="#4e79a7"/><circle cx="438.1" cy="228.5" r="3" fill="#4e79a7"/><circle cx="462.2" cy="228.5" r="3" fill="#4e79a7"/><circle cx="486.3" cy="221.6" r="3" fill="#4e79a7"/><circle cx="510.5" cy="228.5" r="3" fill="#4e79a7"/><circle cx="534.6" cy="225.1" r="3" fill="#4e79a7"/><circle cx="558.7" cy="228.5" r="3" fill="#4e79a7"/><circle cx="582.8" cy="228.5" r="3" fill="#4e79a7"/><circle cx="607.0" cy="232.0" r="3" fill="#4e79a7"/><circle cx="631.1" cy="218.2" r="3" fill="#4e79a7"/><circle cx="655.2" cy="225.1" r="3" fill="#4e79a7"/><circle cx="679.4" cy="232.0" r="3" fill="#4e79a7"/><circle cx="703.5" cy="232.0" r="3" fill="#4e79a7"/><circle cx="727.6" cy="228.5" r="3" fill="#4e79a7"/><circle cx="751.7" cy="228.5" r="3" fill="#4e79a7"/><circle cx="775.9" cy="232.0" r="3" fill="#4e79a7"/><circle cx="800.0" cy="232.0" r="3" fill="#4e79a7"/>
  <circle cx="52.0" cy="232.0" r="3" fill="#f28e2b"/><circle cx="76.1" cy="232.0" r="3" fill="#f28e2b"/><circle cx="100.3" cy="232.0" r="3" fill="#f28e2b"/><circle cx="124.4" cy="232.0" r="3" fill="#f28e2b"/><circle cx="148.5" cy="232.0" r="3" fill="#f28e2b"/><circle cx="172.6" cy="232.0" r="3" fill="#f28e2b"/><circle cx="196.8" cy="232.0" r="3" fill="#f28e2b"/><circle cx="220.9" cy="232.0" r="3" fill="#f28e2b"/><circle cx="245.0" cy="232.0" r="3" fill="#f28e2b"/><circle cx="269.2" cy="232.0" r="3" fill="#f28e2b"/><circle cx="293.3" cy="232.0" r="3" fill="#f28e2b"/><circle cx="317.4" cy="232.0" r="3" fill="#f28e2b"/><circle cx="341.5" cy="232.0" r="3" fill="#f28e2b"/><circle cx="365.7" cy="90.2" r="3" fill="#f28e2b"/><circle cx="389.8" cy="225.1" r="3" fill="#f28e2b"/><circle cx="413.9" cy="232.0" r="3" fill="#f28e2b"/><circle cx="438.1" cy="228.5" r="3" fill="#f28e2b"/><circle cx="462.2" cy="228.5" r="3" fill="#f28e2b"/><circle cx="486.3" cy="221.6" r="3" fill="#f28e2b"/><circle cx="510.5" cy="228.5" r="3" fill="#f28e2b"/><circle cx="534.6" cy="228.5" r="3" fill="#f28e2b"/><circle cx="558.7" cy="228.5" r="3" fill="#f28e2b"/><circle cx="582.8" cy="228.5" r="3" fill="#f28e2b"/><circle cx="607.0" cy="232.0" r="3" fill="#f28e2b"/><circle cx="631.1" cy="218.2" r="3" fill="#f28e2b"/><circle cx="655.2" cy="225.1" r="3" fill="#f28e2b"/><circle cx="679.4" cy="232.0" r="3" fill="#f28e2b"/><circle cx="703.5" cy="232.0" r="3" fill="#f28e2b"/><circle cx="727.6" cy="228.5" r="3" fill="#f28e2b"/><circle cx="751.7" cy="228.5" r="3" fill="#f28e2b"/><circle cx="775.9" cy="232.0" r="3" fill="#f28e2b"/><circle cx="800.0" cy="232.0" r="3" fill="#f28e2b"/>

  <!-- axes -->
  <line x1="52" y1="28" x2="52" y2="232"
        stroke="#cccccc" stroke-width="1"/>
  <line x1="52" y1="232" x2="800" y2="232"
        stroke="#cccccc" stroke-width="1"/>

  <!-- y-axis labels -->
  <text x="47" y="236.0" text-anchor="end" font-size="10" fill="#57606a" font-family="ui-monospace, SFMono-Regular, 'SF Mono', Menlo, monospace">0</text><text x="47" y="201.4" text-anchor="end" font-size="10" fill="#57606a" font-family="ui-monospace, SFMono-Regular, 'SF Mono', Menlo, monospace">10</text><text x="47" y="166.8" text-anchor="end" font-size="10" fill="#57606a" font-family="ui-monospace, SFMono-Regular, 'SF Mono', Menlo, monospace">20</text><text x="47" y="132.3" text-anchor="end" font-size="10" fill="#57606a" font-family="ui-monospace, SFMono-Regular, 'SF Mono', Menlo, monospace">30</text><text x="47" y="97.7" text-anchor="end" font-size="10" fill="#57606a" font-family="ui-monospace, SFMono-Regular, 'SF Mono', Menlo, monospace">40</text><text x="47" y="63.1" text-anchor="end" font-size="10" fill="#57606a" font-family="ui-monospace, SFMono-Regular, 'SF Mono', Menlo, monospace">50</text><text x="47" y="28.5" text-anchor="end" font-size="10" fill="#57606a" font-family="ui-monospace, SFMono-Regular, 'SF Mono', Menlo, monospace">60</text>

  <!-- x-axis labels -->
  <text x="52.0" y="248" text-anchor="middle" font-size="10" fill="#8c959f" font-family="ui-monospace, SFMono-Regular, 'SF Mono', Menlo, monospace">05-12</text><text x="148.5" y="248" text-anchor="middle" font-size="10" fill="#8c959f" font-family="ui-monospace, SFMono-Regular, 'SF Mono', Menlo, monospace">05-16</text><text x="245.0" y="248" text-anchor="middle" font-size="10" fill="#8c959f" font-family="ui-monospace, SFMono-Regular, 'SF Mono', Menlo, monospace">05-20</text><text x="341.5" y="248" text-anchor="middle" font-size="10" fill="#8c959f" font-family="ui-monospace, SFMono-Regular, 'SF Mono', Menlo, monospace">05-24</text><text x="438.1" y="248" text-anchor="middle" font-size="10" fill="#8c959f" font-family="ui-monospace, SFMono-Regular, 'SF Mono', Menlo, monospace">05-28</text><text x="534.6" y="248" text-anchor="middle" font-size="10" fill="#8c959f" font-family="ui-monospace, SFMono-Regular, 'SF Mono', Menlo, monospace">06-01</text><text x="631.1" y="248" text-anchor="middle" font-size="10" fill="#8c959f" font-family="ui-monospace, SFMono-Regular, 'SF Mono', Menlo, monospace">06-05</text><text x="727.6" y="248" text-anchor="middle" font-size="10" fill="#8c959f" font-family="ui-monospace, SFMono-Regular, 'SF Mono', Menlo, monospace">06-09</text><text x="800.0" y="248" text-anchor="middle" font-size="10" fill="#8c959f" font-family="ui-monospace, SFMono-Regular, 'SF Mono', Menlo, monospace">06-12</text>

  <!-- legend -->
  <rect x="60" y="262" width="16" height="3" fill="#4e79a7" rx="1"/><text x="80" y="268" font-size="11" fill="#57606a" font-family="-apple-system, BlinkMacSystemFont, 'Segoe UI', sans-serif">Total clones (79)</text><line x1="230" y1="264" x2="246" y2="264" stroke="#f28e2b" stroke-width="2" stroke-dasharray="5,3"/><text x="250" y="268" font-size="11" fill="#57606a" font-family="-apple-system, BlinkMacSystemFont, 'Segoe UI', sans-serif">Unique cloners</text>

</svg>