<svg xmlns="http://www.w3.org/2000/svg" viewBox="0 0 820 280" width="820" height="280">

  <!-- title -->
  <text x="52" y="18" font-size="13" font-weight="600"
        fill="#24292f" font-family="-apple-system, BlinkMacSystemFont, 'Segoe UI', sans-serif"
        >Clone traffic — android-device-rescue-kit</text>
  <text x="800" y="18" font-size="10" fill="#8c959f"
        font-family="ui-monospace, SFMono-Regular, 'SF Mono', Menlo, monospace" text-anchor="end">2026-06-29</text>

  <!-- grid -->
  <line x1="52" y1="232.0" x2="800" y2="232.0" stroke="#e8e8e8" stroke-width="1"/><line x1="52" y1="197.4" x2="800" y2="197.4" stroke="#e8e8e8" stroke-width="1"/><line x1="52" y1="162.8" x2="800" y2="162.8" stroke="#e8e8e8" stroke-width="1"/><line x1="52" y1="128.3" x2="800" y2="128.3" stroke="#e8e8e8" stroke-width="1"/><line x1="52" y1="93.7" x2="800" y2="93.7" stroke="#e8e8e8" stroke-width="1"/><line x1="52" y1="59.1" x2="800" y2="59.1" stroke="#e8e8e8" stroke-width="1"/><line x1="52" y1="24.5" x2="800" y2="24.5" stroke="#e8e8e8" stroke-width="1"/>

  <!-- area fill -->
  <path d="M52.0,232.0 L52.0,232.0 L68.3,232.0 L84.5,232.0 L100.8,232.0 L117.0,232.0 L133.3,232.0 L149.6,232.0 L165.8,232.0 L182.1,232.0 L198.3,232.0 L214.6,232.0 L230.9,232.0 L247.1,232.0 L263.4,28.0 L279.7,225.1 L295.9,232.0 L312.2,228.5 L328.4,228.5 L344.7,221.6 L361.0,228.5 L377.2,225.1 L393.5,228.5 L409.7,228.5 L426.0,232.0 L442.3,218.2 L458.5,225.1 L474.8,232.0 L491.0,232.0 L507.3,228.5 L523.6,228.5 L539.8,232.0 L556.1,232.0 L572.3,228.5 L588.6,232.0 L604.9,232.0 L621.1,228.5 L637.4,232.0 L653.7,183.6 L669.9,214.7 L686.2,228.5 L702.4,228.5 L718.7,228.5 L735.0,232.0 L751.2,221.6 L767.5,232.0 L783.7,228.5 L800.0,228.5 L800.0,232.0 L52.0,232.0Z" fill="#4e79a7" opacity="0.12"/>

  <!-- lines -->
  <polyline points="52.0,232.0 68.3,232.0 84.5,232.0 100.8,232.0 117.0,232.0 133.3,232.0 149.6,232.0 165.8,232.0 182.1,232.0 198.3,232.0 214.6,232.0 230.9,232.0 247.1,232.0 263.4,28.0 279.7,225.1 295.9,232.0 312.2,228.5 328.4,228.5 344.7,221.6 361.0,228.5 377.2,225.1 393.5,228.5 409.7,228.5 426.0,232.0 442.3,218.2 458.5,225.1 474.8,232.0 491.0,232.0 507.3,228.5 523.6,228.5 539.8,232.0 556.1,232.0 572.3,228.5 588.6,232.0 604.9,232.0 621.1,228.5 637.4,232.0 653.7,183.6 669.9,214.7 686.2,228.5 702.4,228.5 718.7,228.5 735.0,232.0 751.2,221.6 767.5,232.0 783.7,228.5 800.0,228.5"
            fill="none" stroke="#4e79a7"
            stroke-width="2" stroke-linejoin="round"/>
  <polyline points="52.0,232.0 68.3,232.0 84.5,232.0 100.8,232.0 117.0,232.0 133.3,232.0 149.6,232.0 165.8,232.0 182.1,232.0 198.3,232.0 214.6,232.0 230.9,232.0 247.1,232.0 263.4,90.2 279.7,225.1 295.9,232.0 312.2,228.5 328.4,228.5 344.7,221.6 361.0,228.5 377.2,228.5 393.5,228.5 409.7,228.5 426.0,232.0 442.3,218.2 458.5,225.1 474.8,232.0 491.0,232.0 507.3,228.5 523.6,228.5 539.8,232.0 556.1,232.0 572.3,228.5 588.6,232.0 604.9,232.0 621.1,228.5 637.4,232.0 653.7,200.9 669.9,218.2 686.2,228.5 702.4,228.5 718.7,228.5 735.0,232.0 751.2,221.6 767.5,232.0 783.7,228.5 800.0,228.5"
            fill="none" stroke="#f28e2b"
            stroke-width="2" stroke-linejoin="round"
            stroke-dasharray="5,3"/>

  <!-- dots -->
  <circle cx="52.0" cy="232.0" r="3" fill="#4e79a7"/><circle cx="68.3" cy="232.0" r="3" fill="#4e79a7"/><circle cx="84.5" cy="232.0" r="3" fill="#4e79a7"/><circle cx="100.8" cy="232.0" r="3" fill="#4e79a7"/><circle cx="117.0" cy="232.0" r="3" fill="#4e79a7"/><circle cx="133.3" cy="232.0" r="3" fill="#4e79a7"/><circle cx="149.6" cy="232.0" r="3" fill="#4e79a7"/><circle cx="165.8" cy="232.0" r="3" fill="#4e79a7"/><circle cx="182.1" cy="232.0" r="3" fill="#4e79a7"/><circle cx="198.3" cy="232.0" r="3" fill="#4e79a7"/><circle cx="214.6" cy="232.0" r="3" fill="#4e79a7"/><circle cx="230.9" cy="232.0" r="3" fill="#4e79a7"/><circle cx="247.1" cy="232.0" r="3" fill="#4e79a7"/><circle cx="263.4" cy="28.0" r="3" fill="#4e79a7"/><circle cx="279.7" cy="225.1" r="3" fill="#4e79a7"/><circle cx="295.9" cy="232.0" r="3" fill="#4e79a7"/><circle cx="312.2" cy="228.5" r="3" fill="#4e79a7"/><circle cx="328.4" cy="228.5" r="3" fill="#4e79a7"/><circle cx="344.7" cy="221.6" r="3" fill="#4e79a7"/><circle cx="361.0" cy="228.5" r="3" fill="#4e79a7"/><circle cx="377.2" cy="225.1" r="3" fill="#4e79a7"/><circle cx="393.5" cy="228.5" r="3" fill="#4e79a7"/><circle cx="409.7" cy="228.5" r="3" fill="#4e79a7"/><circle cx="426.0" cy="232.0" r="3" fill="#4e79a7"/><circle cx="442.3" cy="218.2" r="3" fill="#4e79a7"/><circle cx="458.5" cy="225.1" r="3" fill="#4e79a7"/><circle cx="474.8" cy="232.0" r="3" fill="#4e79a7"/><circle cx="491.0" cy="232.0" r="3" fill="#4e79a7"/><circle cx="507.3" cy="228.5" r="3" fill="#4e79a7"/><circle cx="523.6" cy="228.5" r="3" fill="#4e79a7"/><circle cx="539.8" cy="232.0" r="3" fill="#4e79a7"/><circle cx="556.1" cy="232.0" r="3" fill="#4e79a7"/><circle cx="572.3" cy="228.5" r="3" fill="#4e79a7"/><circle cx="588.6" cy="232.0" r="3" fill="#4e79a7"/><circle cx="604.9" cy="232.0" r="3" fill="#4e79a7"/><circle cx="621.1" cy="228.5" r="3" fill="#4e79a7"/><circle cx="637.4" cy="232.0" r="3" fill="#4e79a7"/><circle cx="653.7" cy="183.6" r="3" fill="#4e79a7"/><circle cx="669.9" cy="214.7" r="3" fill="#4e79a7"/><circle cx="686.2" cy="228.5" r="3" fill="#4e79a7"/><circle cx="702.4" cy="228.5" r="3" fill="#4e79a7"/><circle cx="718.7" cy="228.5" r="3" fill="#4e79a7"/><circle cx="735.0" cy="232.0" r="3" fill="#4e79a7"/><circle cx="751.2" cy="221.6" r="3" fill="#4e79a7"/><circle cx="767.5" cy="232.0" r="3" fill="#4e79a7"/><circle cx="783.7" cy="228.5" r="3" fill="#4e79a7"/><circle cx="800.0" cy="228.5" r="3" fill="#4e79a7"/>
  <circle cx="52.0" cy="232.0" r="3" fill="#f28e2b"/><circle cx="68.3" cy="232.0" r="3" fill="#f28e2b"/><circle cx="84.5" cy="232.0" r="3" fill="#f28e2b"/><circle cx="100.8" cy="232.0" r="3" fill="#f28e2b"/><circle cx="117.0" cy="232.0" r="3" fill="#f28e2b"/><circle cx="133.3" cy="232.0" r="3" fill="#f28e2b"/><circle cx="149.6" cy="232.0" r="3" fill="#f28e2b"/><circle cx="165.8" cy="232.0" r="3" fill="#f28e2b"/><circle cx="182.1" cy="232.0" r="3" fill="#f28e2b"/><circle cx="198.3" cy="232.0" r="3" fill="#f28e2b"/><circle cx="214.6" cy="232.0" r="3" fill="#f28e2b"/><circle cx="230.9" cy="232.0" r="3" fill="#f28e2b"/><circle cx="247.1" cy="232.0" r="3" fill="#f28e2b"/><circle cx="263.4" cy="90.2" r="3" fill="#f28e2b"/><circle cx="279.7" cy="225.1" r="3" fill="#f28e2b"/><circle cx="295.9" cy="232.0" r="3" fill="#f28e2b"/><circle cx="312.2" cy="228.5" r="3" fill="#f28e2b"/><circle cx="328.4" cy="228.5" r="3" fill="#f28e2b"/><circle cx="344.7" cy="221.6" r="3" fill="#f28e2b"/><circle cx="361.0" cy="228.5" r="3" fill="#f28e2b"/><circle cx="377.2" cy="228.5" r="3" fill="#f28e2b"/><circle cx="393.5" cy="228.5" r="3" fill="#f28e2b"/><circle cx="409.7" cy="228.5" r="3" fill="#f28e2b"/><circle cx="426.0" cy="232.0" r="3" fill="#f28e2b"/><circle cx="442.3" cy="218.2" r="3" fill="#f28e2b"/><circle cx="458.5" cy="225.1" r="3" fill="#f28e2b"/><circle cx="474.8" cy="232.0" r="3" fill="#f28e2b"/><circle cx="491.0" cy="232.0" r="3" fill="#f28e2b"/><circle cx="507.3" cy="228.5" r="3" fill="#f28e2b"/><circle cx="523.6" cy="228.5" r="3" fill="#f28e2b"/><circle cx="539.8" cy="232.0" r="3" fill="#f28e2b"/><circle cx="556.1" cy="232.0" r="3" fill="#f28e2b"/><circle cx="572.3" cy="228.5" r="3" fill="#f28e2b"/><circle cx="588.6" cy="232.0" r="3" fill="#f28e2b"/><circle cx="604.9" cy="232.0" r="3" fill="#f28e2b"/><circle cx="621.1" cy="228.5" r="3" fill="#f28e2b"/><circle cx="637.4" cy="232.0" r="3" fill="#f28e2b"/><circle cx="653.7" cy="200.9" r="3" fill="#f28e2b"/><circle cx="669.9" cy="218.2" r="3" fill="#f28e2b"/><circle cx="686.2" cy="228.5" r="3" fill="#f28e2b"/><circle cx="702.4" cy="228.5" r="3" fill="#f28e2b"/><circle cx="718.7" cy="228.5" r="3" fill="#f28e2b"/><circle cx="735.0" cy="232.0" r="3" fill="#f28e2b"/><circle cx="751.2" cy="221.6" r="3" fill="#f28e2b"/><circle cx="767.5" cy="232.0" r="3" fill="#f28e2b"/><circle cx="783.7" cy="228.5" r="3" fill="#f28e2b"/><circle cx="800.0" cy="228.5" r="3" fill="#f28e2b"/>

  <!-- axes -->
  <line x1="52" y1="28" x2="52" y2="232"
        stroke="#cccccc" stroke-width="1"/>
  <line x1="52" y1="232" x2="800" y2="232"
        stroke="#cccccc" stroke-width="1"/>

  <!-- y-axis labels -->
  <text x="47" y="236.0" text-anchor="end" font-size="10" fill="#57606a" font-family="ui-monospace, SFMono-Regular, 'SF Mono', Menlo, monospace">0</text><text x="47" y="201.4" text-anchor="end" font-size="10" fill="#57606a" font-family="ui-monospace, SFMono-Regular, 'SF Mono', Menlo, monospace">10</text><text x="47" y="166.8" text-anchor="end" font-size="10" fill="#57606a" font-family="ui-monospace, SFMono-Regular, 'SF Mono', Menlo, monospace">20</text><text x="47" y="132.3" text-anchor="end" font-size="10" fill="#57606a" font-family="ui-monospace, SFMono-Regular, 'SF Mono', Menlo, monospace">30</text><text x="47" y="97.7" text-anchor="end" font-size="10" fill="#57606a" font-family="ui-monospace, SFMono-Regular, 'SF Mono', Menlo, monospace">40</text><text x="47" y="63.1" text-anchor="end" font-size="10" fill="#57606a" font-family="ui-monospace, SFMono-Regular, 'SF Mono', Menlo, monospace">50</text><text x="47" y="28.5" text-anchor="end" font-size="10" fill="#57606a" font-family="ui-monospace, SFMono-Regular, 'SF Mono', Menlo, monospace">60</text>

  <!-- x-axis labels -->
  <text x="52.0" y="248" text-anchor="middle" font-size="10" fill="#8c959f" font-family="ui-monospace, SFMono-Regular, 'SF Mono', Menlo, monospace">05-12</text><text x="621.1" y="248" text-anchor="middle" font-size="10" fill="#8c959f" font-family="ui-monospace, SFMono-Regular, 'SF Mono', Menlo, monospace">06-16</text><text x="133.3" y="248" text-anchor="middle" font-size="10" fill="#8c959f" font-family="ui-monospace, SFMono-Regular, 'SF Mono', Menlo, monospace">05-17</text><text x="702.4" y="248" text-anchor="middle" font-size="10" fill="#8c959f" font-family="ui-monospace, SFMono-Regular, 'SF Mono', Menlo, monospace">06-21</text><text x="214.6" y="248" text-anchor="middle" font-size="10" fill="#8c959f" font-family="ui-monospace, SFMono-Regular, 'SF Mono', Menlo, monospace">05-22</text><text x="783.7" y="248" text-anchor="middle" font-size="10" fill="#8c959f" font-family="ui-monospace, SFMono-Regular, 'SF Mono', Menlo, monospace">06-26</text><text x="800.0" y="248" text-anchor="middle" font-size="10" fill="#8c959f" font-family="ui-monospace, SFMono-Regular, 'SF Mono', Menlo, monospace">06-27</text><text x="295.9" y="248" text-anchor="middle" font-size="10" fill="#8c959f" font-family="ui-monospace, SFMono-Regular, 'SF Mono', Menlo, monospace">05-27</text><text x="377.2" y="248" text-anchor="middle" font-size="10" fill="#8c959f" font-family="ui-monospace, SFMono-Regular, 'SF Mono', Menlo, monospace">06-01</text><text x="458.5" y="248" text-anchor="middle" font-size="10" fill="#8c959f" font-family="ui-monospace, SFMono-Regular, 'SF Mono', Menlo, monospace">06-06</text><text x="539.8" y="248" text-anchor="middle" font-size="10" fill="#8c959f" font-family="ui-monospace, SFMono-Regular, 'SF Mono', Menlo, monospace">06-11</text>

  <!-- legend -->
  <rect x="60" y="262" width="16" height="3" fill="#4e79a7" rx="1"/><text x="80" y="268" font-size="11" fill="#57606a" font-family="-apple-system, BlinkMacSystemFont, 'Segoe UI', sans-serif">Total clones (108)</text><line x1="230" y1="264" x2="246" y2="264" stroke="#f28e2b" stroke-width="2" stroke-dasharray="5,3"/><text x="250" y="268" font-size="11" fill="#57606a" font-family="-apple-system, BlinkMacSystemFont, 'Segoe UI', sans-serif">Unique cloners</text>

</svg>