<svg xmlns="http://www.w3.org/2000/svg" viewBox="0 0 820 280" width="820" height="280">

  <!-- title -->
  <text x="52" y="18" font-size="13" font-weight="600"
        fill="#24292f" font-family="-apple-system, BlinkMacSystemFont, 'Segoe UI', sans-serif"
        >Clone traffic — android-device-rescue-kit</text>
  <text x="800" y="18" font-size="10" fill="#8c959f"
        font-family="ui-monospace, SFMono-Regular, 'SF Mono', Menlo, monospace" text-anchor="end">2026-06-12</text>

  <!-- grid -->
  <line x1="52" y1="232.0" x2="800" y2="232.0" stroke="#e8e8e8" stroke-width="1"/><line x1="52" y1="197.4" x2="800" y2="197.4" stroke="#e8e8e8" stroke-width="1"/><line x1="52" y1="162.8" x2="800" y2="162.8" stroke="#e8e8e8" stroke-width="1"/><line x1="52" y1="128.3" x2="800" y2="128.3" stroke="#e8e8e8" stroke-width="1"/><line x1="52" y1="93.7" x2="800" y2="93.7" stroke="#e8e8e8" stroke-width="1"/><line x1="52" y1="59.1" x2="800" y2="59.1" stroke="#e8e8e8" stroke-width="1"/><line x1="52" y1="24.5" x2="800" y2="24.5" stroke="#e8e8e8" stroke-width="1"/>

  <!-- area fill -->
  <path d="M52.0,232.0 L52.0,232.0 L77.8,232.0 L103.6,232.0 L129.4,232.0 L155.2,232.0 L181.0,232.0 L206.8,232.0 L232.6,232.0 L258.3,232.0 L284.1,232.0 L309.9,232.0 L335.7,232.0 L361.5,232.0 L387.3,28.0 L413.1,225.1 L438.9,232.0 L464.7,228.5 L490.5,228.5 L516.3,221.6 L542.1,228.5 L567.9,225.1 L593.7,228.5 L619.4,228.5 L645.2,232.0 L671.0,218.2 L696.8,225.1 L722.6,232.0 L748.4,232.0 L774.2,228.5 L800.0,228.5 L800.0,232.0 L52.0,232.0Z" fill="#4e79a7" opacity="0.12"/>

  <!-- lines -->
  <polyline points="52.0,232.0 77.8,232.0 103.6,232.0 129.4,232.0 155.2,232.0 181.0,232.0 206.8,232.0 232.6,232.0 258.3,232.0 284.1,232.0 309.9,232.0 335.7,232.0 361.5,232.0 387.3,28.0 413.1,225.1 438.9,232.0 464.7,228.5 490.5,228.5 516.3,221.6 542.1,228.5 567.9,225.1 593.7,228.5 619.4,228.5 645.2,232.0 671.0,218.2 696.8,225.1 722.6,232.0 748.4,232.0 774.2,228.5 800.0,228.5"
            fill="none" stroke="#4e79a7"
            stroke-width="2" stroke-linejoin="round"/>
  <polyline points="52.0,232.0 77.8,232.0 103.6,232.0 129.4,232.0 155.2,232.0 181.0,232.0 206.8,232.0 232.6,232.0 258.3,232.0 284.1,232.0 309.9,232.0 335.7,232.0 361.5,232.0 387.3,90.2 413.1,225.1 438.9,232.0 464.7,228.5 490.5,228.5 516.3,221.6 542.1,228.5 567.9,228.5 593.7,228.5 619.4,228.5 645.2,232.0 671.0,218.2 696.8,225.1 722.6,232.0 748.4,232.0 774.2,228.5 800.0,228.5"
            fill="none" stroke="#f28e2b"
            stroke-width="2" stroke-linejoin="round"
            stroke-dasharray="5,3"/>

  <!-- dots -->
  <circle cx="52.0" cy="232.0" r="3" fill="#4e79a7"/><circle cx="77.8" cy="232.0" r="3" fill="#4e79a7"/><circle cx="103.6" cy="232.0" r="3" fill="#4e79a7"/><circle cx="129.4" cy="232.0" r="3" fill="#4e79a7"/><circle cx="155.2" cy="232.0" r="3" fill="#4e79a7"/><circle cx="181.0" cy="232.0" r="3" fill="#4e79a7"/><circle cx="206.8" cy="232.0" r="3" fill="#4e79a7"/><circle cx="232.6" cy="232.0" r="3" fill="#4e79a7"/><circle cx="258.3" cy="232.0" r="3" fill="#4e79a7"/><circle cx="284.1" cy="232.0" r="3" fill="#4e79a7"/><circle cx="309.9" cy="232.0" r="3" fill="#4e79a7"/><circle cx="335.7" cy="232.0" r="3" fill="#4e79a7"/><circle cx="361.5" cy="232.0" r="3" fill="#4e79a7"/><circle cx="387.3" cy="28.0" r="3" fill="#4e79a7"/><circle cx="413.1" cy="225.1" r="3" fill="#4e79a7"/><circle cx="438.9" cy="232.0" r="3" fill="#4e79a7"/><circle cx="464.7" cy="228.5" r="3" fill="#4e79a7"/><circle cx="490.5" cy="228.5" r="3" fill="#4e79a7"/><circle cx="516.3" cy="221.6" r="3" fill="#4e79a7"/><circle cx="542.1" cy="228.5" r="3" fill="#4e79a7"/><circle cx="567.9" cy="225.1" r="3" fill="#4e79a7"/><circle cx="593.7" cy="228.5" r="3" fill="#4e79a7"/><circle cx="619.4" cy="228.5" r="3" fill="#4e79a7"/><circle cx="645.2" cy="232.0" r="3" fill="#4e79a7"/><circle cx="671.0" cy="218.2" r="3" fill="#4e79a7"/><circle cx="696.8" cy="225.1" r="3" fill="#4e79a7"/><circle cx="722.6" cy="232.0" r="3" fill="#4e79a7"/><circle cx="748.4" cy="232.0" r="3" fill="#4e79a7"/><circle cx="774.2" cy="228.5" r="3" fill="#4e79a7"/><circle cx="800.0" cy="228.5" r="3" fill="#4e79a7"/>
  <circle cx="52.0" cy="232.0" r="3" fill="#f28e2b"/><circle cx="77.8" cy="232.0" r="3" fill="#f28e2b"/><circle cx="103.6" cy="232.0" r="3" fill="#f28e2b"/><circle cx="129.4" cy="232.0" r="3" fill="#f28e2b"/><circle cx="155.2" cy="232.0" r="3" fill="#f28e2b"/><circle cx="181.0" cy="232.0" r="3" fill="#f28e2b"/><circle cx="206.8" cy="232.0" r="3" fill="#f28e2b"/><circle cx="232.6" cy="232.0" r="3" fill="#f28e2b"/><circle cx="258.3" cy="232.0" r="3" fill="#f28e2b"/><circle cx="284.1" cy="232.0" r="3" fill="#f28e2b"/><circle cx="309.9" cy="232.0" r="3" fill="#f28e2b"/><circle cx="335.7" cy="232.0" r="3" fill="#f28e2b"/><circle cx="361.5" cy="232.0" r="3" fill="#f28e2b"/><circle cx="387.3" cy="90.2" r="3" fill="#f28e2b"/><circle cx="413.1" cy="225.1" r="3" fill="#f28e2b"/><circle cx="438.9" cy="232.0" r="3" fill="#f28e2b"/><circle cx="464.7" cy="228.5" r="3" fill="#f28e2b"/><circle cx="490.5" cy="228.5" r="3" fill="#f28e2b"/><circle cx="516.3" cy="221.6" r="3" fill="#f28e2b"/><circle cx="542.1" cy="228.5" r="3" fill="#f28e2b"/><circle cx="567.9" cy="228.5" r="3" fill="#f28e2b"/><circle cx="593.7" cy="228.5" r="3" fill="#f28e2b"/><circle cx="619.4" cy="228.5" r="3" fill="#f28e2b"/><circle cx="645.2" cy="232.0" r="3" fill="#f28e2b"/><circle cx="671.0" cy="218.2" r="3" fill="#f28e2b"/><circle cx="696.8" cy="225.1" r="3" fill="#f28e2b"/><circle cx="722.6" cy="232.0" r="3" fill="#f28e2b"/><circle cx="748.4" cy="232.0" r="3" fill="#f28e2b"/><circle cx="774.2" cy="228.5" r="3" fill="#f28e2b"/><circle cx="800.0" cy="228.5" r="3" fill="#f28e2b"/>

  <!-- axes -->
  <line x1="52" y1="28" x2="52" y2="232"
        stroke="#cccccc" stroke-width="1"/>
  <line x1="52" y1="232" x2="800" y2="232"
        stroke="#cccccc" stroke-width="1"/>

  <!-- y-axis labels -->
  <text x="47" y="236.0" text-anchor="end" font-size="10" fill="#57606a" font-family="ui-monospace, SFMono-Regular, 'SF Mono', Menlo, monospace">0</text><text x="47" y="201.4" text-anchor="end" font-size="10" fill="#57606a" font-family="ui-monospace, SFMono-Regular, 'SF Mono', Menlo, monospace">10</text><text x="47" y="166.8" text-anchor="end" font-size="10" fill="#57606a" font-family="ui-monospace, SFMono-Regular, 'SF Mono', Menlo, monospace">20</text><text x="47" y="132.3" text-anchor="end" font-size="10" fill="#57606a" font-family="ui-monospace, SFMono-Regular, 'SF Mono', Menlo, monospace">30</text><text x="47" y="97.7" text-anchor="end" font-size="10" fill="#57606a" font-family="ui-monospace, SFMono-Regular, 'SF Mono', Menlo, monospace">40</text><text x="47" y="63.1" text-anchor="end" font-size="10" fill="#57606a" font-family="ui-monospace, SFMono-Regular, 'SF Mono', Menlo, monospace">50</text><text x="47" y="28.5" text-anchor="end" font-size="10" fill="#57606a" font-family="ui-monospace, SFMono-Regular, 'SF Mono', Menlo, monospace">60</text>

  <!-- x-axis labels -->
  <text x="52.0" y="248" text-anchor="middle" font-size="10" fill="#8c959f" font-family="ui-monospace, SFMono-Regular, 'SF Mono', Menlo, monospace">05-12</text><text x="129.4" y="248" text-anchor="middle" font-size="10" fill="#8c959f" font-family="ui-monospace, SFMono-Regular, 'SF Mono', Menlo, monospace">05-15</text><text x="206.8" y="248" text-anchor="middle" font-size="10" fill="#8c959f" font-family="ui-monospace, SFMono-Regular, 'SF Mono', Menlo, monospace">05-18</text><text x="284.1" y="248" text-anchor="middle" font-size="10" fill="#8c959f" font-family="ui-monospace, SFMono-Regular, 'SF Mono', Menlo, monospace">05-21</text><text x="361.5" y="248" text-anchor="middle" font-size="10" fill="#8c959f" font-family="ui-monospace, SFMono-Regular, 'SF Mono', Menlo, monospace">05-24</text><text x="438.9" y="248" text-anchor="middle" font-size="10" fill="#8c959f" font-family="ui-monospace, SFMono-Regular, 'SF Mono', Menlo, monospace">05-27</text><text x="516.3" y="248" text-anchor="middle" font-size="10" fill="#8c959f" font-family="ui-monospace, SFMono-Regular, 'SF Mono', Menlo, monospace">05-30</text><text x="593.7" y="248" text-anchor="middle" font-size="10" fill="#8c959f" font-family="ui-monospace, SFMono-Regular, 'SF Mono', Menlo, monospace">06-02</text><text x="671.0" y="248" text-anchor="middle" font-size="10" fill="#8c959f" font-family="ui-monospace, SFMono-Regular, 'SF Mono', Menlo, monospace">06-05</text><text x="748.4" y="248" text-anchor="middle" font-size="10" fill="#8c959f" font-family="ui-monospace, SFMono-Regular, 'SF Mono', Menlo, monospace">06-08</text><text x="800.0" y="248" text-anchor="middle" font-size="10" fill="#8c959f" font-family="ui-monospace, SFMono-Regular, 'SF Mono', Menlo, monospace">06-10</text>

  <!-- legend -->
  <rect x="60" y="262" width="16" height="3" fill="#4e79a7" rx="1"/><text x="80" y="268" font-size="11" fill="#57606a" font-family="-apple-system, BlinkMacSystemFont, 'Segoe UI', sans-serif">Total clones (79)</text><line x1="230" y1="264" x2="246" y2="264" stroke="#f28e2b" stroke-width="2" stroke-dasharray="5,3"/><text x="250" y="268" font-size="11" fill="#57606a" font-family="-apple-system, BlinkMacSystemFont, 'Segoe UI', sans-serif">Unique cloners</text>

</svg>