<svg xmlns="http://www.w3.org/2000/svg" viewBox="0 0 820 280" width="820" height="280">

  <!-- title -->
  <text x="52" y="18" font-size="13" font-weight="600"
        fill="#24292f" font-family="-apple-system, BlinkMacSystemFont, 'Segoe UI', sans-serif"
        >Clone traffic — android-device-rescue-kit</text>
  <text x="800" y="18" font-size="10" fill="#8c959f"
        font-family="ui-monospace, SFMono-Regular, 'SF Mono', Menlo, monospace" text-anchor="end">2026-07-01</text>

  <!-- grid -->
  <line x1="52" y1="232.0" x2="800" y2="232.0" stroke="#e8e8e8" stroke-width="1"/><line x1="52" y1="197.4" x2="800" y2="197.4" stroke="#e8e8e8" stroke-width="1"/><line x1="52" y1="162.8" x2="800" y2="162.8" stroke="#e8e8e8" stroke-width="1"/><line x1="52" y1="128.3" x2="800" y2="128.3" stroke="#e8e8e8" stroke-width="1"/><line x1="52" y1="93.7" x2="800" y2="93.7" stroke="#e8e8e8" stroke-width="1"/><line x1="52" y1="59.1" x2="800" y2="59.1" stroke="#e8e8e8" stroke-width="1"/><line x1="52" y1="24.5" x2="800" y2="24.5" stroke="#e8e8e8" stroke-width="1"/>

  <!-- area fill -->
  <path d="M52.0,232.0 L52.0,232.0 L67.6,232.0 L83.2,232.0 L98.8,232.0 L114.3,232.0 L129.9,232.0 L145.5,232.0 L161.1,232.0 L176.7,232.0 L192.2,232.0 L207.8,232.0 L223.4,232.0 L239.0,232.0 L254.6,28.0 L270.2,225.1 L285.8,232.0 L301.3,228.5 L316.9,228.5 L332.5,221.6 L348.1,228.5 L363.7,225.1 L379.2,228.5 L394.8,228.5 L410.4,232.0 L426.0,218.2 L441.6,225.1 L457.2,232.0 L472.8,232.0 L488.3,228.5 L503.9,228.5 L519.5,232.0 L535.1,232.0 L550.7,228.5 L566.2,232.0 L581.8,232.0 L597.4,228.5 L613.0,232.0 L628.6,183.6 L644.2,214.7 L659.8,228.5 L675.3,228.5 L690.9,228.5 L706.5,232.0 L722.1,221.6 L737.7,232.0 L753.2,228.5 L768.8,228.5 L784.4,232.0 L800.0,232.0 L800.0,232.0 L52.0,232.0Z" fill="#4e79a7" opacity="0.12"/>

  <!-- lines -->
  <polyline points="52.0,232.0 67.6,232.0 83.2,232.0 98.8,232.0 114.3,232.0 129.9,232.0 145.5,232.0 161.1,232.0 176.7,232.0 192.2,232.0 207.8,232.0 223.4,232.0 239.0,232.0 254.6,28.0 270.2,225.1 285.8,232.0 301.3,228.5 316.9,228.5 332.5,221.6 348.1,228.5 363.7,225.1 379.2,228.5 394.8,228.5 410.4,232.0 426.0,218.2 441.6,225.1 457.2,232.0 472.8,232.0 488.3,228.5 503.9,228.5 519.5,232.0 535.1,232.0 550.7,228.5 566.2,232.0 581.8,232.0 597.4,228.5 613.0,232.0 628.6,183.6 644.2,214.7 659.8,228.5 675.3,228.5 690.9,228.5 706.5,232.0 722.1,221.6 737.7,232.0 753.2,228.5 768.8,228.5 784.4,232.0 800.0,232.0"
            fill="none" stroke="#4e79a7"
            stroke-width="2" stroke-linejoin="round"/>
  <polyline points="52.0,232.0 67.6,232.0 83.2,232.0 98.8,232.0 114.3,232.0 129.9,232.0 145.5,232.0 161.1,232.0 176.7,232.0 192.2,232.0 207.8,232.0 223.4,232.0 239.0,232.0 254.6,90.2 270.2,225.1 285.8,232.0 301.3,228.5 316.9,228.5 332.5,221.6 348.1,228.5 363.7,228.5 379.2,228.5 394.8,228.5 410.4,232.0 426.0,218.2 441.6,225.1 457.2,232.0 472.8,232.0 488.3,228.5 503.9,228.5 519.5,232.0 535.1,232.0 550.7,228.5 566.2,232.0 581.8,232.0 597.4,228.5 613.0,232.0 628.6,200.9 644.2,218.2 659.8,228.5 675.3,228.5 690.9,228.5 706.5,232.0 722.1,221.6 737.7,232.0 753.2,228.5 768.8,228.5 784.4,232.0 800.0,232.0"
            fill="none" stroke="#f28e2b"
            stroke-width="2" stroke-linejoin="round"
            stroke-dasharray="5,3"/>

  <!-- dots -->
  <circle cx="52.0" cy="232.0" r="3" fill="#4e79a7"/><circle cx="67.6" cy="232.0" r="3" fill="#4e79a7"/><circle cx="83.2" cy="232.0" r="3" fill="#4e79a7"/><circle cx="98.8" cy="232.0" r="3" fill="#4e79a7"/><circle cx="114.3" cy="232.0" r="3" fill="#4e79a7"/><circle cx="129.9" cy="232.0" r="3" fill="#4e79a7"/><circle cx="145.5" cy="232.0" r="3" fill="#4e79a7"/><circle cx="161.1" cy="232.0" r="3" fill="#4e79a7"/><circle cx="176.7" cy="232.0" r="3" fill="#4e79a7"/><circle cx="192.2" cy="232.0" r="3" fill="#4e79a7"/><circle cx="207.8" cy="232.0" r="3" fill="#4e79a7"/><circle cx="223.4" cy="232.0" r="3" fill="#4e79a7"/><circle cx="239.0" cy="232.0" r="3" fill="#4e79a7"/><circle cx="254.6" cy="28.0" r="3" fill="#4e79a7"/><circle cx="270.2" cy="225.1" r="3" fill="#4e79a7"/><circle cx="285.8" cy="232.0" r="3" fill="#4e79a7"/><circle cx="301.3" cy="228.5" r="3" fill="#4e79a7"/><circle cx="316.9" cy="228.5" r="3" fill="#4e79a7"/><circle cx="332.5" cy="221.6" r="3" fill="#4e79a7"/><circle cx="348.1" cy="228.5" r="3" fill="#4e79a7"/><circle cx="363.7" cy="225.1" r="3" fill="#4e79a7"/><circle cx="379.2" cy="228.5" r="3" fill="#4e79a7"/><circle cx="394.8" cy="228.5" r="3" fill="#4e79a7"/><circle cx="410.4" cy="232.0" r="3" fill="#4e79a7"/><circle cx="426.0" cy="218.2" r="3" fill="#4e79a7"/><circle cx="441.6" cy="225.1" r="3" fill="#4e79a7"/><circle cx="457.2" cy="232.0" r="3" fill="#4e79a7"/><circle cx="472.8" cy="232.0" r="3" fill="#4e79a7"/><circle cx="488.3" cy="228.5" r="3" fill="#4e79a7"/><circle cx="503.9" cy="228.5" r="3" fill="#4e79a7"/><circle cx="519.5" cy="232.0" r="3" fill="#4e79a7"/><circle cx="535.1" cy="232.0" r="3" fill="#4e79a7"/><circle cx="550.7" cy="228.5" r="3" fill="#4e79a7"/><circle cx="566.2" cy="232.0" r="3" fill="#4e79a7"/><circle cx="581.8" cy="232.0" r="3" fill="#4e79a7"/><circle cx="597.4" cy="228.5" r="3" fill="#4e79a7"/><circle cx="613.0" cy="232.0" r="3" fill="#4e79a7"/><circle cx="628.6" cy="183.6" r="3" fill="#4e79a7"/><circle cx="644.2" cy="214.7" r="3" fill="#4e79a7"/><circle cx="659.8" cy="228.5" r="3" fill="#4e79a7"/><circle cx="675.3" cy="228.5" r="3" fill="#4e79a7"/><circle cx="690.9" cy="228.5" r="3" fill="#4e79a7"/><circle cx="706.5" cy="232.0" r="3" fill="#4e79a7"/><circle cx="722.1" cy="221.6" r="3" fill="#4e79a7"/><circle cx="737.7" cy="232.0" r="3" fill="#4e79a7"/><circle cx="753.2" cy="228.5" r="3" fill="#4e79a7"/><circle cx="768.8" cy="228.5" r="3" fill="#4e79a7"/><circle cx="784.4" cy="232.0" r="3" fill="#4e79a7"/><circle cx="800.0" cy="232.0" r="3" fill="#4e79a7"/>
  <circle cx="52.0" cy="232.0" r="3" fill="#f28e2b"/><circle cx="67.6" cy="232.0" r="3" fill="#f28e2b"/><circle cx="83.2" cy="232.0" r="3" fill="#f28e2b"/><circle cx="98.8" cy="232.0" r="3" fill="#f28e2b"/><circle cx="114.3" cy="232.0" r="3" fill="#f28e2b"/><circle cx="129.9" cy="232.0" r="3" fill="#f28e2b"/><circle cx="145.5" cy="232.0" r="3" fill="#f28e2b"/><circle cx="161.1" cy="232.0" r="3" fill="#f28e2b"/><circle cx="176.7" cy="232.0" r="3" fill="#f28e2b"/><circle cx="192.2" cy="232.0" r="3" fill="#f28e2b"/><circle cx="207.8" cy="232.0" r="3" fill="#f28e2b"/><circle cx="223.4" cy="232.0" r="3" fill="#f28e2b"/><circle cx="239.0" cy="232.0" r="3" fill="#f28e2b"/><circle cx="254.6" cy="90.2" r="3" fill="#f28e2b"/><circle cx="270.2" cy="225.1" r="3" fill="#f28e2b"/><circle cx="285.8" cy="232.0" r="3" fill="#f28e2b"/><circle cx="301.3" cy="228.5" r="3" fill="#f28e2b"/><circle cx="316.9" cy="228.5" r="3" fill="#f28e2b"/><circle cx="332.5" cy="221.6" r="3" fill="#f28e2b"/><circle cx="348.1" cy="228.5" r="3" fill="#f28e2b"/><circle cx="363.7" cy="228.5" r="3" fill="#f28e2b"/><circle cx="379.2" cy="228.5" r="3" fill="#f28e2b"/><circle cx="394.8" cy="228.5" r="3" fill="#f28e2b"/><circle cx="410.4" cy="232.0" r="3" fill="#f28e2b"/><circle cx="426.0" cy="218.2" r="3" fill="#f28e2b"/><circle cx="441.6" cy="225.1" r="3" fill="#f28e2b"/><circle cx="457.2" cy="232.0" r="3" fill="#f28e2b"/><circle cx="472.8" cy="232.0" r="3" fill="#f28e2b"/><circle cx="488.3" cy="228.5" r="3" fill="#f28e2b"/><circle cx="503.9" cy="228.5" r="3" fill="#f28e2b"/><circle cx="519.5" cy="232.0" r="3" fill="#f28e2b"/><circle cx="535.1" cy="232.0" r="3" fill="#f28e2b"/><circle cx="550.7" cy="228.5" r="3" fill="#f28e2b"/><circle cx="566.2" cy="232.0" r="3" fill="#f28e2b"/><circle cx="581.8" cy="232.0" r="3" fill="#f28e2b"/><circle cx="597.4" cy="228.5" r="3" fill="#f28e2b"/><circle cx="613.0" cy="232.0" r="3" fill="#f28e2b"/><circle cx="628.6" cy="200.9" r="3" fill="#f28e2b"/><circle cx="644.2" cy="218.2" r="3" fill="#f28e2b"/><circle cx="659.8" cy="228.5" r="3" fill="#f28e2b"/><circle cx="675.3" cy="228.5" r="3" fill="#f28e2b"/><circle cx="690.9" cy="228.5" r="3" fill="#f28e2b"/><circle cx="706.5" cy="232.0" r="3" fill="#f28e2b"/><circle cx="722.1" cy="221.6" r="3" fill="#f28e2b"/><circle cx="737.7" cy="232.0" r="3" fill="#f28e2b"/><circle cx="753.2" cy="228.5" r="3" fill="#f28e2b"/><circle cx="768.8" cy="228.5" r="3" fill="#f28e2b"/><circle cx="784.4" cy="232.0" r="3" fill="#f28e2b"/><circle cx="800.0" cy="232.0" r="3" fill="#f28e2b"/>

  <!-- axes -->
  <line x1="52" y1="28" x2="52" y2="232"
        stroke="#cccccc" stroke-width="1"/>
  <line x1="52" y1="232" x2="800" y2="232"
        stroke="#cccccc" stroke-width="1"/>

  <!-- y-axis labels -->
  <text x="47" y="236.0" text-anchor="end" font-size="10" fill="#57606a" font-family="ui-monospace, SFMono-Regular, 'SF Mono', Menlo, monospace">0</text><text x="47" y="201.4" text-anchor="end" font-size="10" fill="#57606a" font-family="ui-monospace, SFMono-Regular, 'SF Mono', Menlo, monospace">10</text><text x="47" y="166.8" text-anchor="end" font-size="10" fill="#57606a" font-family="ui-monospace, SFMono-Regular, 'SF Mono', Menlo, monospace">20</text><text x="47" y="132.3" text-anchor="end" font-size="10" fill="#57606a" font-family="ui-monospace, SFMono-Regular, 'SF Mono', Menlo, monospace">30</text><text x="47" y="97.7" text-anchor="end" font-size="10" fill="#57606a" font-family="ui-monospace, SFMono-Regular, 'SF Mono', Menlo, monospace">40</text><text x="47" y="63.1" text-anchor="end" font-size="10" fill="#57606a" font-family="ui-monospace, SFMono-Regular, 'SF Mono', Menlo, monospace">50</text><text x="47" y="28.5" text-anchor="end" font-size="10" fill="#57606a" font-family="ui-monospace, SFMono-Regular, 'SF Mono', Menlo, monospace">60</text>

  <!-- x-axis labels -->
  <text x="52.0" y="248" text-anchor="middle" font-size="10" fill="#8c959f" font-family="ui-monospace, SFMono-Regular, 'SF Mono', Menlo, monospace">05-12</text><text x="613.0" y="248" text-anchor="middle" font-size="10" fill="#8c959f" font-family="ui-monospace, SFMono-Regular, 'SF Mono', Menlo, monospace">06-17</text><text x="145.5" y="248" text-anchor="middle" font-size="10" fill="#8c959f" font-family="ui-monospace, SFMono-Regular, 'SF Mono', Menlo, monospace">05-18</text><text x="706.5" y="248" text-anchor="middle" font-size="10" fill="#8c959f" font-family="ui-monospace, SFMono-Regular, 'SF Mono', Menlo, monospace">06-23</text><text x="239.0" y="248" text-anchor="middle" font-size="10" fill="#8c959f" font-family="ui-monospace, SFMono-Regular, 'SF Mono', Menlo, monospace">05-24</text><text x="800.0" y="248" text-anchor="middle" font-size="10" fill="#8c959f" font-family="ui-monospace, SFMono-Regular, 'SF Mono', Menlo, monospace">06-29</text><text x="332.5" y="248" text-anchor="middle" font-size="10" fill="#8c959f" font-family="ui-monospace, SFMono-Regular, 'SF Mono', Menlo, monospace">05-30</text><text x="426.0" y="248" text-anchor="middle" font-size="10" fill="#8c959f" font-family="ui-monospace, SFMono-Regular, 'SF Mono', Menlo, monospace">06-05</text><text x="519.5" y="248" text-anchor="middle" font-size="10" fill="#8c959f" font-family="ui-monospace, SFMono-Regular, 'SF Mono', Menlo, monospace">06-11</text>

  <!-- legend -->
  <rect x="60" y="262" width="16" height="3" fill="#4e79a7" rx="1"/><text x="80" y="268" font-size="11" fill="#57606a" font-family="-apple-system, BlinkMacSystemFont, 'Segoe UI', sans-serif">Total clones (108)</text><line x1="230" y1="264" x2="246" y2="264" stroke="#f28e2b" stroke-width="2" stroke-dasharray="5,3"/><text x="250" y="268" font-size="11" fill="#57606a" font-family="-apple-system, BlinkMacSystemFont, 'Segoe UI', sans-serif">Unique cloners</text>

</svg>