<svg xmlns="http://www.w3.org/2000/svg" viewBox="0 0 820 280" width="820" height="280">

  <!-- title -->
  <text x="52" y="18" font-size="13" font-weight="600"
        fill="#24292f" font-family="-apple-system, BlinkMacSystemFont, 'Segoe UI', sans-serif"
        >Clone traffic — android-device-rescue-kit</text>
  <text x="800" y="18" font-size="10" fill="#8c959f"
        font-family="ui-monospace, SFMono-Regular, 'SF Mono', Menlo, monospace" text-anchor="end">2026-06-03</text>

  <!-- grid -->
  <line x1="52" y1="232.0" x2="800" y2="232.0" stroke="#e8e8e8" stroke-width="1"/><line x1="52" y1="197.4" x2="800" y2="197.4" stroke="#e8e8e8" stroke-width="1"/><line x1="52" y1="162.8" x2="800" y2="162.8" stroke="#e8e8e8" stroke-width="1"/><line x1="52" y1="128.3" x2="800" y2="128.3" stroke="#e8e8e8" stroke-width="1"/><line x1="52" y1="93.7" x2="800" y2="93.7" stroke="#e8e8e8" stroke-width="1"/><line x1="52" y1="59.1" x2="800" y2="59.1" stroke="#e8e8e8" stroke-width="1"/><line x1="52" y1="24.5" x2="800" y2="24.5" stroke="#e8e8e8" stroke-width="1"/>

  <!-- area fill -->
  <path d="M52.0,232.0 L52.0,232.0 L89.4,232.0 L126.8,232.0 L164.2,232.0 L201.6,232.0 L239.0,232.0 L276.4,232.0 L313.8,232.0 L351.2,232.0 L388.6,232.0 L426.0,232.0 L463.4,232.0 L500.8,232.0 L538.2,28.0 L575.6,225.1 L613.0,232.0 L650.4,228.5 L687.8,228.5 L725.2,221.6 L762.6,228.5 L800.0,225.1 L800.0,232.0 L52.0,232.0Z" fill="#4e79a7" opacity="0.12"/>

  <!-- lines -->
  <polyline points="52.0,232.0 89.4,232.0 126.8,232.0 164.2,232.0 201.6,232.0 239.0,232.0 276.4,232.0 313.8,232.0 351.2,232.0 388.6,232.0 426.0,232.0 463.4,232.0 500.8,232.0 538.2,28.0 575.6,225.1 613.0,232.0 650.4,228.5 687.8,228.5 725.2,221.6 762.6,228.5 800.0,225.1"
            fill="none" stroke="#4e79a7"
            stroke-width="2" stroke-linejoin="round"/>
  <polyline points="52.0,232.0 89.4,232.0 126.8,232.0 164.2,232.0 201.6,232.0 239.0,232.0 276.4,232.0 313.8,232.0 351.2,232.0 388.6,232.0 426.0,232.0 463.4,232.0 500.8,232.0 538.2,90.2 575.6,225.1 613.0,232.0 650.4,228.5 687.8,228.5 725.2,221.6 762.6,228.5 800.0,228.5"
            fill="none" stroke="#f28e2b"
            stroke-width="2" stroke-linejoin="round"
            stroke-dasharray="5,3"/>

  <!-- dots -->
  <circle cx="52.0" cy="232.0" r="3" fill="#4e79a7"/><circle cx="89.4" cy="232.0" r="3" fill="#4e79a7"/><circle cx="126.8" cy="232.0" r="3" fill="#4e79a7"/><circle cx="164.2" cy="232.0" r="3" fill="#4e79a7"/><circle cx="201.6" cy="232.0" r="3" fill="#4e79a7"/><circle cx="239.0" cy="232.0" r="3" fill="#4e79a7"/><circle cx="276.4" cy="232.0" r="3" fill="#4e79a7"/><circle cx="313.8" cy="232.0" r="3" fill="#4e79a7"/><circle cx="351.2" cy="232.0" r="3" fill="#4e79a7"/><circle cx="388.6" cy="232.0" r="3" fill="#4e79a7"/><circle cx="426.0" cy="232.0" r="3" fill="#4e79a7"/><circle cx="463.4" cy="232.0" r="3" fill="#4e79a7"/><circle cx="500.8" cy="232.0" r="3" fill="#4e79a7"/><circle cx="538.2" cy="28.0" r="3" fill="#4e79a7"/><circle cx="575.6" cy="225.1" r="3" fill="#4e79a7"/><circle cx="613.0" cy="232.0" r="3" fill="#4e79a7"/><circle cx="650.4" cy="228.5" r="3" fill="#4e79a7"/><circle cx="687.8" cy="228.5" r="3" fill="#4e79a7"/><circle cx="725.2" cy="221.6" r="3" fill="#4e79a7"/><circle cx="762.6" cy="228.5" r="3" fill="#4e79a7"/><circle cx="800.0" cy="225.1" r="3" fill="#4e79a7"/>
  <circle cx="52.0" cy="232.0" r="3" fill="#f28e2b"/><circle cx="89.4" cy="232.0" r="3" fill="#f28e2b"/><circle cx="126.8" cy="232.0" r="3" fill="#f28e2b"/><circle cx="164.2" cy="232.0" r="3" fill="#f28e2b"/><circle cx="201.6" cy="232.0" r="3" fill="#f28e2b"/><circle cx="239.0" cy="232.0" r="3" fill="#f28e2b"/><circle cx="276.4" cy="232.0" r="3" fill="#f28e2b"/><circle cx="313.8" cy="232.0" r="3" fill="#f28e2b"/><circle cx="351.2" cy="232.0" r="3" fill="#f28e2b"/><circle cx="388.6" cy="232.0" r="3" fill="#f28e2b"/><circle cx="426.0" cy="232.0" r="3" fill="#f28e2b"/><circle cx="463.4" cy="232.0" r="3" fill="#f28e2b"/><circle cx="500.8" cy="232.0" r="3" fill="#f28e2b"/><circle cx="538.2" cy="90.2" r="3" fill="#f28e2b"/><circle cx="575.6" cy="225.1" r="3" fill="#f28e2b"/><circle cx="613.0" cy="232.0" r="3" fill="#f28e2b"/><circle cx="650.4" cy="228.5" r="3" fill="#f28e2b"/><circle cx="687.8" cy="228.5" r="3" fill="#f28e2b"/><circle cx="725.2" cy="221.6" r="3" fill="#f28e2b"/><circle cx="762.6" cy="228.5" r="3" fill="#f28e2b"/><circle cx="800.0" cy="228.5" r="3" fill="#f28e2b"/>

  <!-- axes -->
  <line x1="52" y1="28" x2="52" y2="232"
        stroke="#cccccc" stroke-width="1"/>
  <line x1="52" y1="232" x2="800" y2="232"
        stroke="#cccccc" stroke-width="1"/>

  <!-- y-axis labels -->
  <text x="47" y="236.0" text-anchor="end" font-size="10" fill="#57606a" font-family="ui-monospace, SFMono-Regular, 'SF Mono', Menlo, monospace">0</text><text x="47" y="201.4" text-anchor="end" font-size="10" fill="#57606a" font-family="ui-monospace, SFMono-Regular, 'SF Mono', Menlo, monospace">10</text><text x="47" y="166.8" text-anchor="end" font-size="10" fill="#57606a" font-family="ui-monospace, SFMono-Regular, 'SF Mono', Menlo, monospace">20</text><text x="47" y="132.3" text-anchor="end" font-size="10" fill="#57606a" font-family="ui-monospace, SFMono-Regular, 'SF Mono', Menlo, monospace">30</text><text x="47" y="97.7" text-anchor="end" font-size="10" fill="#57606a" font-family="ui-monospace, SFMono-Regular, 'SF Mono', Menlo, monospace">40</text><text x="47" y="63.1" text-anchor="end" font-size="10" fill="#57606a" font-family="ui-monospace, SFMono-Regular, 'SF Mono', Menlo, monospace">50</text><text x="47" y="28.5" text-anchor="end" font-size="10" fill="#57606a" font-family="ui-monospace, SFMono-Regular, 'SF Mono', Menlo, monospace">60</text>

  <!-- x-axis labels -->
  <text x="52.0" y="248" text-anchor="middle" font-size="10" fill="#8c959f" font-family="ui-monospace, SFMono-Regular, 'SF Mono', Menlo, monospace">05-12</text><text x="126.8" y="248" text-anchor="middle" font-size="10" fill="#8c959f" font-family="ui-monospace, SFMono-Regular, 'SF Mono', Menlo, monospace">05-14</text><text x="201.6" y="248" text-anchor="middle" font-size="10" fill="#8c959f" font-family="ui-monospace, SFMono-Regular, 'SF Mono', Menlo, monospace">05-16</text><text x="276.4" y="248" text-anchor="middle" font-size="10" fill="#8c959f" font-family="ui-monospace, SFMono-Regular, 'SF Mono', Menlo, monospace">05-18</text><text x="351.2" y="248" text-anchor="middle" font-size="10" fill="#8c959f" font-family="ui-monospace, SFMono-Regular, 'SF Mono', Menlo, monospace">05-20</text><text x="426.0" y="248" text-anchor="middle" font-size="10" fill="#8c959f" font-family="ui-monospace, SFMono-Regular, 'SF Mono', Menlo, monospace">05-22</text><text x="500.8" y="248" text-anchor="middle" font-size="10" fill="#8c959f" font-family="ui-monospace, SFMono-Regular, 'SF Mono', Menlo, monospace">05-24</text><text x="575.6" y="248" text-anchor="middle" font-size="10" fill="#8c959f" font-family="ui-monospace, SFMono-Regular, 'SF Mono', Menlo, monospace">05-26</text><text x="650.4" y="248" text-anchor="middle" font-size="10" fill="#8c959f" font-family="ui-monospace, SFMono-Regular, 'SF Mono', Menlo, monospace">05-28</text><text x="725.2" y="248" text-anchor="middle" font-size="10" fill="#8c959f" font-family="ui-monospace, SFMono-Regular, 'SF Mono', Menlo, monospace">05-30</text><text x="800.0" y="248" text-anchor="middle" font-size="10" fill="#8c959f" font-family="ui-monospace, SFMono-Regular, 'SF Mono', Menlo, monospace">06-01</text>

  <!-- legend -->
  <rect x="60" y="262" width="16" height="3" fill="#4e79a7" rx="1"/><text x="80" y="268" font-size="11" fill="#57606a" font-family="-apple-system, BlinkMacSystemFont, 'Segoe UI', sans-serif">Total clones (69)</text><line x1="230" y1="264" x2="246" y2="264" stroke="#f28e2b" stroke-width="2" stroke-dasharray="5,3"/><text x="250" y="268" font-size="11" fill="#57606a" font-family="-apple-system, BlinkMacSystemFont, 'Segoe UI', sans-serif">Unique cloners</text>

</svg>