<svg xmlns="http://www.w3.org/2000/svg" viewBox="0 0 820 280" width="820" height="280">

  <!-- title -->
  <text x="52" y="18" font-size="13" font-weight="600"
        fill="#24292f" font-family="-apple-system, BlinkMacSystemFont, 'Segoe UI', sans-serif"
        >Clone traffic — android-device-rescue-kit</text>
  <text x="800" y="18" font-size="10" fill="#8c959f"
        font-family="ui-monospace, SFMono-Regular, 'SF Mono', Menlo, monospace" text-anchor="end">2026-06-27</text>

  <!-- grid -->
  <line x1="52" y1="232.0" x2="800" y2="232.0" stroke="#e8e8e8" stroke-width="1"/><line x1="52" y1="197.4" x2="800" y2="197.4" stroke="#e8e8e8" stroke-width="1"/><line x1="52" y1="162.8" x2="800" y2="162.8" stroke="#e8e8e8" stroke-width="1"/><line x1="52" y1="128.3" x2="800" y2="128.3" stroke="#e8e8e8" stroke-width="1"/><line x1="52" y1="93.7" x2="800" y2="93.7" stroke="#e8e8e8" stroke-width="1"/><line x1="52" y1="59.1" x2="800" y2="59.1" stroke="#e8e8e8" stroke-width="1"/><line x1="52" y1="24.5" x2="800" y2="24.5" stroke="#e8e8e8" stroke-width="1"/>

  <!-- area fill -->
  <path d="M52.0,232.0 L52.0,232.0 L69.0,232.0 L86.0,232.0 L103.0,232.0 L120.0,232.0 L137.0,232.0 L154.0,232.0 L171.0,232.0 L188.0,232.0 L205.0,232.0 L222.0,232.0 L239.0,232.0 L256.0,232.0 L273.0,28.0 L290.0,225.1 L307.0,232.0 L324.0,228.5 L341.0,228.5 L358.0,221.6 L375.0,228.5 L392.0,225.1 L409.0,228.5 L426.0,228.5 L443.0,232.0 L460.0,218.2 L477.0,225.1 L494.0,232.0 L511.0,232.0 L528.0,228.5 L545.0,228.5 L562.0,232.0 L579.0,232.0 L596.0,228.5 L613.0,232.0 L630.0,232.0 L647.0,228.5 L664.0,232.0 L681.0,183.6 L698.0,214.7 L715.0,228.5 L732.0,228.5 L749.0,228.5 L766.0,232.0 L783.0,221.6 L800.0,232.0 L800.0,232.0 L52.0,232.0Z" fill="#4e79a7" opacity="0.12"/>

  <!-- lines -->
  <polyline points="52.0,232.0 69.0,232.0 86.0,232.0 103.0,232.0 120.0,232.0 137.0,232.0 154.0,232.0 171.0,232.0 188.0,232.0 205.0,232.0 222.0,232.0 239.0,232.0 256.0,232.0 273.0,28.0 290.0,225.1 307.0,232.0 324.0,228.5 341.0,228.5 358.0,221.6 375.0,228.5 392.0,225.1 409.0,228.5 426.0,228.5 443.0,232.0 460.0,218.2 477.0,225.1 494.0,232.0 511.0,232.0 528.0,228.5 545.0,228.5 562.0,232.0 579.0,232.0 596.0,228.5 613.0,232.0 630.0,232.0 647.0,228.5 664.0,232.0 681.0,183.6 698.0,214.7 715.0,228.5 732.0,228.5 749.0,228.5 766.0,232.0 783.0,221.6 800.0,232.0"
            fill="none" stroke="#4e79a7"
            stroke-width="2" stroke-linejoin="round"/>
  <polyline points="52.0,232.0 69.0,232.0 86.0,232.0 103.0,232.0 120.0,232.0 137.0,232.0 154.0,232.0 171.0,232.0 188.0,232.0 205.0,232.0 222.0,232.0 239.0,232.0 256.0,232.0 273.0,90.2 290.0,225.1 307.0,232.0 324.0,228.5 341.0,228.5 358.0,221.6 375.0,228.5 392.0,228.5 409.0,228.5 426.0,228.5 443.0,232.0 460.0,218.2 477.0,225.1 494.0,232.0 511.0,232.0 528.0,228.5 545.0,228.5 562.0,232.0 579.0,232.0 596.0,228.5 613.0,232.0 630.0,232.0 647.0,228.5 664.0,232.0 681.0,200.9 698.0,218.2 715.0,228.5 732.0,228.5 749.0,228.5 766.0,232.0 783.0,221.6 800.0,232.0"
            fill="none" stroke="#f28e2b"
            stroke-width="2" stroke-linejoin="round"
            stroke-dasharray="5,3"/>

  <!-- dots -->
  <circle cx="52.0" cy="232.0" r="3" fill="#4e79a7"/><circle cx="69.0" cy="232.0" r="3" fill="#4e79a7"/><circle cx="86.0" cy="232.0" r="3" fill="#4e79a7"/><circle cx="103.0" cy="232.0" r="3" fill="#4e79a7"/><circle cx="120.0" cy="232.0" r="3" fill="#4e79a7"/><circle cx="137.0" cy="232.0" r="3" fill="#4e79a7"/><circle cx="154.0" cy="232.0" r="3" fill="#4e79a7"/><circle cx="171.0" cy="232.0" r="3" fill="#4e79a7"/><circle cx="188.0" cy="232.0" r="3" fill="#4e79a7"/><circle cx="205.0" cy="232.0" r="3" fill="#4e79a7"/><circle cx="222.0" cy="232.0" r="3" fill="#4e79a7"/><circle cx="239.0" cy="232.0" r="3" fill="#4e79a7"/><circle cx="256.0" cy="232.0" r="3" fill="#4e79a7"/><circle cx="273.0" cy="28.0" r="3" fill="#4e79a7"/><circle cx="290.0" cy="225.1" r="3" fill="#4e79a7"/><circle cx="307.0" cy="232.0" r="3" fill="#4e79a7"/><circle cx="324.0" cy="228.5" r="3" fill="#4e79a7"/><circle cx="341.0" cy="228.5" r="3" fill="#4e79a7"/><circle cx="358.0" cy="221.6" r="3" fill="#4e79a7"/><circle cx="375.0" cy="228.5" r="3" fill="#4e79a7"/><circle cx="392.0" cy="225.1" r="3" fill="#4e79a7"/><circle cx="409.0" cy="228.5" r="3" fill="#4e79a7"/><circle cx="426.0" cy="228.5" r="3" fill="#4e79a7"/><circle cx="443.0" cy="232.0" r="3" fill="#4e79a7"/><circle cx="460.0" cy="218.2" r="3" fill="#4e79a7"/><circle cx="477.0" cy="225.1" r="3" fill="#4e79a7"/><circle cx="494.0" cy="232.0" r="3" fill="#4e79a7"/><circle cx="511.0" cy="232.0" r="3" fill="#4e79a7"/><circle cx="528.0" cy="228.5" r="3" fill="#4e79a7"/><circle cx="545.0" cy="228.5" r="3" fill="#4e79a7"/><circle cx="562.0" cy="232.0" r="3" fill="#4e79a7"/><circle cx="579.0" cy="232.0" r="3" fill="#4e79a7"/><circle cx="596.0" cy="228.5" r="3" fill="#4e79a7"/><circle cx="613.0" cy="232.0" r="3" fill="#4e79a7"/><circle cx="630.0" cy="232.0" r="3" fill="#4e79a7"/><circle cx="647.0" cy="228.5" r="3" fill="#4e79a7"/><circle cx="664.0" cy="232.0" r="3" fill="#4e79a7"/><circle cx="681.0" cy="183.6" r="3" fill="#4e79a7"/><circle cx="698.0" cy="214.7" r="3" fill="#4e79a7"/><circle cx="715.0" cy="228.5" r="3" fill="#4e79a7"/><circle cx="732.0" cy="228.5" r="3" fill="#4e79a7"/><circle cx="749.0" cy="228.5" r="3" fill="#4e79a7"/><circle cx="766.0" cy="232.0" r="3" fill="#4e79a7"/><circle cx="783.0" cy="221.6" r="3" fill="#4e79a7"/><circle cx="800.0" cy="232.0" r="3" fill="#4e79a7"/>
  <circle cx="52.0" cy="232.0" r="3" fill="#f28e2b"/><circle cx="69.0" cy="232.0" r="3" fill="#f28e2b"/><circle cx="86.0" cy="232.0" r="3" fill="#f28e2b"/><circle cx="103.0" cy="232.0" r="3" fill="#f28e2b"/><circle cx="120.0" cy="232.0" r="3" fill="#f28e2b"/><circle cx="137.0" cy="232.0" r="3" fill="#f28e2b"/><circle cx="154.0" cy="232.0" r="3" fill="#f28e2b"/><circle cx="171.0" cy="232.0" r="3" fill="#f28e2b"/><circle cx="188.0" cy="232.0" r="3" fill="#f28e2b"/><circle cx="205.0" cy="232.0" r="3" fill="#f28e2b"/><circle cx="222.0" cy="232.0" r="3" fill="#f28e2b"/><circle cx="239.0" cy="232.0" r="3" fill="#f28e2b"/><circle cx="256.0" cy="232.0" r="3" fill="#f28e2b"/><circle cx="273.0" cy="90.2" r="3" fill="#f28e2b"/><circle cx="290.0" cy="225.1" r="3" fill="#f28e2b"/><circle cx="307.0" cy="232.0" r="3" fill="#f28e2b"/><circle cx="324.0" cy="228.5" r="3" fill="#f28e2b"/><circle cx="341.0" cy="228.5" r="3" fill="#f28e2b"/><circle cx="358.0" cy="221.6" r="3" fill="#f28e2b"/><circle cx="375.0" cy="228.5" r="3" fill="#f28e2b"/><circle cx="392.0" cy="228.5" r="3" fill="#f28e2b"/><circle cx="409.0" cy="228.5" r="3" fill="#f28e2b"/><circle cx="426.0" cy="228.5" r="3" fill="#f28e2b"/><circle cx="443.0" cy="232.0" r="3" fill="#f28e2b"/><circle cx="460.0" cy="218.2" r="3" fill="#f28e2b"/><circle cx="477.0" cy="225.1" r="3" fill="#f28e2b"/><circle cx="494.0" cy="232.0" r="3" fill="#f28e2b"/><circle cx="511.0" cy="232.0" r="3" fill="#f28e2b"/><circle cx="528.0" cy="228.5" r="3" fill="#f28e2b"/><circle cx="545.0" cy="228.5" r="3" fill="#f28e2b"/><circle cx="562.0" cy="232.0" r="3" fill="#f28e2b"/><circle cx="579.0" cy="232.0" r="3" fill="#f28e2b"/><circle cx="596.0" cy="228.5" r="3" fill="#f28e2b"/><circle cx="613.0" cy="232.0" r="3" fill="#f28e2b"/><circle cx="630.0" cy="232.0" r="3" fill="#f28e2b"/><circle cx="647.0" cy="228.5" r="3" fill="#f28e2b"/><circle cx="664.0" cy="232.0" r="3" fill="#f28e2b"/><circle cx="681.0" cy="200.9" r="3" fill="#f28e2b"/><circle cx="698.0" cy="218.2" r="3" fill="#f28e2b"/><circle cx="715.0" cy="228.5" r="3" fill="#f28e2b"/><circle cx="732.0" cy="228.5" r="3" fill="#f28e2b"/><circle cx="749.0" cy="228.5" r="3" fill="#f28e2b"/><circle cx="766.0" cy="232.0" r="3" fill="#f28e2b"/><circle cx="783.0" cy="221.6" r="3" fill="#f28e2b"/><circle cx="800.0" cy="232.0" r="3" fill="#f28e2b"/>

  <!-- axes -->
  <line x1="52" y1="28" x2="52" y2="232"
        stroke="#cccccc" stroke-width="1"/>
  <line x1="52" y1="232" x2="800" y2="232"
        stroke="#cccccc" stroke-width="1"/>

  <!-- y-axis labels -->
  <text x="47" y="236.0" text-anchor="end" font-size="10" fill="#57606a" font-family="ui-monospace, SFMono-Regular, 'SF Mono', Menlo, monospace">0</text><text x="47" y="201.4" text-anchor="end" font-size="10" fill="#57606a" font-family="ui-monospace, SFMono-Regular, 'SF Mono', Menlo, monospace">10</text><text x="47" y="166.8" text-anchor="end" font-size="10" fill="#57606a" font-family="ui-monospace, SFMono-Regular, 'SF Mono', Menlo, monospace">20</text><text x="47" y="132.3" text-anchor="end" font-size="10" fill="#57606a" font-family="ui-monospace, SFMono-Regular, 'SF Mono', Menlo, monospace">30</text><text x="47" y="97.7" text-anchor="end" font-size="10" fill="#57606a" font-family="ui-monospace, SFMono-Regular, 'SF Mono', Menlo, monospace">40</text><text x="47" y="63.1" text-anchor="end" font-size="10" fill="#57606a" font-family="ui-monospace, SFMono-Regular, 'SF Mono', Menlo, monospace">50</text><text x="47" y="28.5" text-anchor="end" font-size="10" fill="#57606a" font-family="ui-monospace, SFMono-Regular, 'SF Mono', Menlo, monospace">60</text>

  <!-- x-axis labels -->
  <text x="52.0" y="248" text-anchor="middle" font-size="10" fill="#8c959f" font-family="ui-monospace, SFMono-Regular, 'SF Mono', Menlo, monospace">05-12</text><text x="647.0" y="248" text-anchor="middle" font-size="10" fill="#8c959f" font-family="ui-monospace, SFMono-Regular, 'SF Mono', Menlo, monospace">06-16</text><text x="137.0" y="248" text-anchor="middle" font-size="10" fill="#8c959f" font-family="ui-monospace, SFMono-Regular, 'SF Mono', Menlo, monospace">05-17</text><text x="732.0" y="248" text-anchor="middle" font-size="10" fill="#8c959f" font-family="ui-monospace, SFMono-Regular, 'SF Mono', Menlo, monospace">06-21</text><text x="222.0" y="248" text-anchor="middle" font-size="10" fill="#8c959f" font-family="ui-monospace, SFMono-Regular, 'SF Mono', Menlo, monospace">05-22</text><text x="800.0" y="248" text-anchor="middle" font-size="10" fill="#8c959f" font-family="ui-monospace, SFMono-Regular, 'SF Mono', Menlo, monospace">06-25</text><text x="307.0" y="248" text-anchor="middle" font-size="10" fill="#8c959f" font-family="ui-monospace, SFMono-Regular, 'SF Mono', Menlo, monospace">05-27</text><text x="392.0" y="248" text-anchor="middle" font-size="10" fill="#8c959f" font-family="ui-monospace, SFMono-Regular, 'SF Mono', Menlo, monospace">06-01</text><text x="477.0" y="248" text-anchor="middle" font-size="10" fill="#8c959f" font-family="ui-monospace, SFMono-Regular, 'SF Mono', Menlo, monospace">06-06</text><text x="562.0" y="248" text-anchor="middle" font-size="10" fill="#8c959f" font-family="ui-monospace, SFMono-Regular, 'SF Mono', Menlo, monospace">06-11</text>

  <!-- legend -->
  <rect x="60" y="262" width="16" height="3" fill="#4e79a7" rx="1"/><text x="80" y="268" font-size="11" fill="#57606a" font-family="-apple-system, BlinkMacSystemFont, 'Segoe UI', sans-serif">Total clones (106)</text><line x1="230" y1="264" x2="246" y2="264" stroke="#f28e2b" stroke-width="2" stroke-dasharray="5,3"/><text x="250" y="268" font-size="11" fill="#57606a" font-family="-apple-system, BlinkMacSystemFont, 'Segoe UI', sans-serif">Unique cloners</text>

</svg>