<svg xmlns="http://www.w3.org/2000/svg" viewBox="0 0 820 280" width="820" height="280">

  <!-- title -->
  <text x="52" y="18" font-size="13" font-weight="600"
        fill="#24292f" font-family="-apple-system, BlinkMacSystemFont, 'Segoe UI', sans-serif"
        >Clone traffic — bt-takeover</text>
  <text x="800" y="18" font-size="10" fill="#8c959f"
        font-family="ui-monospace, SFMono-Regular, 'SF Mono', Menlo, monospace" text-anchor="end">2026-07-19</text>

  <!-- grid -->
  <line x1="52" y1="232.0" x2="800" y2="232.0" stroke="#e8e8e8" stroke-width="1"/><line x1="52" y1="193.1" x2="800" y2="193.1" stroke="#e8e8e8" stroke-width="1"/><line x1="52" y1="154.3" x2="800" y2="154.3" stroke="#e8e8e8" stroke-width="1"/><line x1="52" y1="115.4" x2="800" y2="115.4" stroke="#e8e8e8" stroke-width="1"/><line x1="52" y1="76.6" x2="800" y2="76.6" stroke="#e8e8e8" stroke-width="1"/><line x1="52" y1="37.7" x2="800" y2="37.7" stroke="#e8e8e8" stroke-width="1"/><line x1="52" y1="-1.1" x2="800" y2="-1.1" stroke="#e8e8e8" stroke-width="1"/>

  <!-- area fill -->
  <path d="M52.0,232.0 L52.0,232.0 L63.0,227.1 L74.0,222.3 L85.0,232.0 L96.0,227.1 L107.0,232.0 L118.0,232.0 L129.0,232.0 L140.0,232.0 L151.0,227.1 L162.0,232.0 L173.0,232.0 L184.0,232.0 L195.0,28.0 L206.0,207.7 L217.0,159.1 L228.0,232.0 L239.0,227.1 L250.0,222.3 L261.0,232.0 L272.0,212.6 L283.0,232.0 L294.0,227.1 L305.0,227.1 L316.0,232.0 L327.0,227.1 L338.0,222.3 L349.0,227.1 L360.0,227.1 L371.0,222.3 L382.0,227.1 L393.0,232.0 L404.0,232.0 L415.0,227.1 L426.0,232.0 L437.0,232.0 L448.0,232.0 L459.0,232.0 L470.0,173.7 L481.0,178.6 L492.0,232.0 L503.0,227.1 L514.0,232.0 L525.0,232.0 L536.0,232.0 L547.0,232.0 L558.0,232.0 L569.0,227.1 L580.0,232.0 L591.0,232.0 L602.0,232.0 L613.0,232.0 L624.0,232.0 L635.0,232.0 L646.0,227.1 L657.0,193.1 L668.0,232.0 L679.0,232.0 L690.0,232.0 L701.0,227.1 L712.0,232.0 L723.0,227.1 L734.0,232.0 L745.0,232.0 L756.0,232.0 L767.0,232.0 L778.0,232.0 L789.0,227.1 L800.0,232.0 L800.0,232.0 L52.0,232.0Z" fill="#4e79a7" opacity="0.12"/>

  <!-- lines -->
  <polyline points="52.0,232.0 63.0,227.1 74.0,222.3 85.0,232.0 96.0,227.1 107.0,232.0 118.0,232.0 129.0,232.0 140.0,232.0 151.0,227.1 162.0,232.0 173.0,232.0 184.0,232.0 195.0,28.0 206.0,207.7 217.0,159.1 228.0,232.0 239.0,227.1 250.0,222.3 261.0,232.0 272.0,212.6 283.0,232.0 294.0,227.1 305.0,227.1 316.0,232.0 327.0,227.1 338.0,222.3 349.0,227.1 360.0,227.1 371.0,222.3 382.0,227.1 393.0,232.0 404.0,232.0 415.0,227.1 426.0,232.0 437.0,232.0 448.0,232.0 459.0,232.0 470.0,173.7 481.0,178.6 492.0,232.0 503.0,227.1 514.0,232.0 525.0,232.0 536.0,232.0 547.0,232.0 558.0,232.0 569.0,227.1 580.0,232.0 591.0,232.0 602.0,232.0 613.0,232.0 624.0,232.0 635.0,232.0 646.0,227.1 657.0,193.1 668.0,232.0 679.0,232.0 690.0,232.0 701.0,227.1 712.0,232.0 723.0,227.1 734.0,232.0 745.0,232.0 756.0,232.0 767.0,232.0 778.0,232.0 789.0,227.1 800.0,232.0"
            fill="none" stroke="#4e79a7"
            stroke-width="2" stroke-linejoin="round"/>
  <polyline points="52.0,232.0 63.0,227.1 74.0,222.3 85.0,232.0 96.0,227.1 107.0,232.0 118.0,232.0 129.0,232.0 140.0,232.0 151.0,227.1 162.0,232.0 173.0,232.0 184.0,232.0 195.0,120.3 206.0,207.7 217.0,212.6 228.0,232.0 239.0,227.1 250.0,222.3 261.0,232.0 272.0,217.4 283.0,232.0 294.0,227.1 305.0,227.1 316.0,232.0 327.0,227.1 338.0,222.3 349.0,227.1 360.0,227.1 371.0,222.3 382.0,227.1 393.0,232.0 404.0,232.0 415.0,227.1 426.0,232.0 437.0,232.0 448.0,232.0 459.0,232.0 470.0,188.3 481.0,207.7 492.0,232.0 503.0,227.1 514.0,232.0 525.0,232.0 536.0,232.0 547.0,232.0 558.0,232.0 569.0,227.1 580.0,232.0 591.0,232.0 602.0,232.0 613.0,232.0 624.0,232.0 635.0,232.0 646.0,227.1 657.0,198.0 668.0,232.0 679.0,232.0 690.0,232.0 701.0,227.1 712.0,232.0 723.0,227.1 734.0,232.0 745.0,232.0 756.0,232.0 767.0,232.0 778.0,232.0 789.0,227.1 800.0,232.0"
            fill="none" stroke="#f28e2b"
            stroke-width="2" stroke-linejoin="round"
            stroke-dasharray="5,3"/>

  <!-- dots -->
  <circle cx="52.0" cy="232.0" r="3" fill="#4e79a7"/><circle cx="63.0" cy="227.1" r="3" fill="#4e79a7"/><circle cx="74.0" cy="222.3" r="3" fill="#4e79a7"/><circle cx="85.0" cy="232.0" r="3" fill="#4e79a7"/><circle cx="96.0" cy="227.1" r="3" fill="#4e79a7"/><circle cx="107.0" cy="232.0" r="3" fill="#4e79a7"/><circle cx="118.0" cy="232.0" r="3" fill="#4e79a7"/><circle cx="129.0" cy="232.0" r="3" fill="#4e79a7"/><circle cx="140.0" cy="232.0" r="3" fill="#4e79a7"/><circle cx="151.0" cy="227.1" r="3" fill="#4e79a7"/><circle cx="162.0" cy="232.0" r="3" fill="#4e79a7"/><circle cx="173.0" cy="232.0" r="3" fill="#4e79a7"/><circle cx="184.0" cy="232.0" r="3" fill="#4e79a7"/><circle cx="195.0" cy="28.0" r="3" fill="#4e79a7"/><circle cx="206.0" cy="207.7" r="3" fill="#4e79a7"/><circle cx="217.0" cy="159.1" r="3" fill="#4e79a7"/><circle cx="228.0" cy="232.0" r="3" fill="#4e79a7"/><circle cx="239.0" cy="227.1" r="3" fill="#4e79a7"/><circle cx="250.0" cy="222.3" r="3" fill="#4e79a7"/><circle cx="261.0" cy="232.0" r="3" fill="#4e79a7"/><circle cx="272.0" cy="212.6" r="3" fill="#4e79a7"/><circle cx="283.0" cy="232.0" r="3" fill="#4e79a7"/><circle cx="294.0" cy="227.1" r="3" fill="#4e79a7"/><circle cx="305.0" cy="227.1" r="3" fill="#4e79a7"/><circle cx="316.0" cy="232.0" r="3" fill="#4e79a7"/><circle cx="327.0" cy="227.1" r="3" fill="#4e79a7"/><circle cx="338.0" cy="222.3" r="3" fill="#4e79a7"/><circle cx="349.0" cy="227.1" r="3" fill="#4e79a7"/><circle cx="360.0" cy="227.1" r="3" fill="#4e79a7"/><circle cx="371.0" cy="222.3" r="3" fill="#4e79a7"/><circle cx="382.0" cy="227.1" r="3" fill="#4e79a7"/><circle cx="393.0" cy="232.0" r="3" fill="#4e79a7"/><circle cx="404.0" cy="232.0" r="3" fill="#4e79a7"/><circle cx="415.0" cy="227.1" r="3" fill="#4e79a7"/><circle cx="426.0" cy="232.0" r="3" fill="#4e79a7"/><circle cx="437.0" cy="232.0" r="3" fill="#4e79a7"/><circle cx="448.0" cy="232.0" r="3" fill="#4e79a7"/><circle cx="459.0" cy="232.0" r="3" fill="#4e79a7"/><circle cx="470.0" cy="173.7" r="3" fill="#4e79a7"/><circle cx="481.0" cy="178.6" r="3" fill="#4e79a7"/><circle cx="492.0" cy="232.0" r="3" fill="#4e79a7"/><circle cx="503.0" cy="227.1" r="3" fill="#4e79a7"/><circle cx="514.0" cy="232.0" r="3" fill="#4e79a7"/><circle cx="525.0" cy="232.0" r="3" fill="#4e79a7"/><circle cx="536.0" cy="232.0" r="3" fill="#4e79a7"/><circle cx="547.0" cy="232.0" r="3" fill="#4e79a7"/><circle cx="558.0" cy="232.0" r="3" fill="#4e79a7"/><circle cx="569.0" cy="227.1" r="3" fill="#4e79a7"/><circle cx="580.0" cy="232.0" r="3" fill="#4e79a7"/><circle cx="591.0" cy="232.0" r="3" fill="#4e79a7"/><circle cx="602.0" cy="232.0" r="3" fill="#4e79a7"/><circle cx="613.0" cy="232.0" r="3" fill="#4e79a7"/><circle cx="624.0" cy="232.0" r="3" fill="#4e79a7"/><circle cx="635.0" cy="232.0" r="3" fill="#4e79a7"/><circle cx="646.0" cy="227.1" r="3" fill="#4e79a7"/><circle cx="657.0" cy="193.1" r="3" fill="#4e79a7"/><circle cx="668.0" cy="232.0" r="3" fill="#4e79a7"/><circle cx="679.0" cy="232.0" r="3" fill="#4e79a7"/><circle cx="690.0" cy="232.0" r="3" fill="#4e79a7"/><circle cx="701.0" cy="227.1" r="3" fill="#4e79a7"/><circle cx="712.0" cy="232.0" r="3" fill="#4e79a7"/><circle cx="723.0" cy="227.1" r="3" fill="#4e79a7"/><circle cx="734.0" cy="232.0" r="3" fill="#4e79a7"/><circle cx="745.0" cy="232.0" r="3" fill="#4e79a7"/><circle cx="756.0" cy="232.0" r="3" fill="#4e79a7"/><circle cx="767.0" cy="232.0" r="3" fill="#4e79a7"/><circle cx="778.0" cy="232.0" r="3" fill="#4e79a7"/><circle cx="789.0" cy="227.1" r="3" fill="#4e79a7"/><circle cx="800.0" cy="232.0" r="3" fill="#4e79a7"/>
  <circle cx="52.0" cy="232.0" r="3" fill="#f28e2b"/><circle cx="63.0" cy="227.1" r="3" fill="#f28e2b"/><circle cx="74.0" cy="222.3" r="3" fill="#f28e2b"/><circle cx="85.0" cy="232.0" r="3" fill="#f28e2b"/><circle cx="96.0" cy="227.1" r="3" fill="#f28e2b"/><circle cx="107.0" cy="232.0" r="3" fill="#f28e2b"/><circle cx="118.0" cy="232.0" r="3" fill="#f28e2b"/><circle cx="129.0" cy="232.0" r="3" fill="#f28e2b"/><circle cx="140.0" cy="232.0" r="3" fill="#f28e2b"/><circle cx="151.0" cy="227.1" r="3" fill="#f28e2b"/><circle cx="162.0" cy="232.0" r="3" fill="#f28e2b"/><circle cx="173.0" cy="232.0" r="3" fill="#f28e2b"/><circle cx="184.0" cy="232.0" r="3" fill="#f28e2b"/><circle cx="195.0" cy="120.3" r="3" fill="#f28e2b"/><circle cx="206.0" cy="207.7" r="3" fill="#f28e2b"/><circle cx="217.0" cy="212.6" r="3" fill="#f28e2b"/><circle cx="228.0" cy="232.0" r="3" fill="#f28e2b"/><circle cx="239.0" cy="227.1" r="3" fill="#f28e2b"/><circle cx="250.0" cy="222.3" r="3" fill="#f28e2b"/><circle cx="261.0" cy="232.0" r="3" fill="#f28e2b"/><circle cx="272.0" cy="217.4" r="3" fill="#f28e2b"/><circle cx="283.0" cy="232.0" r="3" fill="#f28e2b"/><circle cx="294.0" cy="227.1" r="3" fill="#f28e2b"/><circle cx="305.0" cy="227.1" r="3" fill="#f28e2b"/><circle cx="316.0" cy="232.0" r="3" fill="#f28e2b"/><circle cx="327.0" cy="227.1" r="3" fill="#f28e2b"/><circle cx="338.0" cy="222.3" r="3" fill="#f28e2b"/><circle cx="349.0" cy="227.1" r="3" fill="#f28e2b"/><circle cx="360.0" cy="227.1" r="3" fill="#f28e2b"/><circle cx="371.0" cy="222.3" r="3" fill="#f28e2b"/><circle cx="382.0" cy="227.1" r="3" fill="#f28e2b"/><circle cx="393.0" cy="232.0" r="3" fill="#f28e2b"/><circle cx="404.0" cy="232.0" r="3" fill="#f28e2b"/><circle cx="415.0" cy="227.1" r="3" fill="#f28e2b"/><circle cx="426.0" cy="232.0" r="3" fill="#f28e2b"/><circle cx="437.0" cy="232.0" r="3" fill="#f28e2b"/><circle cx="448.0" cy="232.0" r="3" fill="#f28e2b"/><circle cx="459.0" cy="232.0" r="3" fill="#f28e2b"/><circle cx="470.0" cy="188.3" r="3" fill="#f28e2b"/><circle cx="481.0" cy="207.7" r="3" fill="#f28e2b"/><circle cx="492.0" cy="232.0" r="3" fill="#f28e2b"/><circle cx="503.0" cy="227.1" r="3" fill="#f28e2b"/><circle cx="514.0" cy="232.0" r="3" fill="#f28e2b"/><circle cx="525.0" cy="232.0" r="3" fill="#f28e2b"/><circle cx="536.0" cy="232.0" r="3" fill="#f28e2b"/><circle cx="547.0" cy="232.0" r="3" fill="#f28e2b"/><circle cx="558.0" cy="232.0" r="3" fill="#f28e2b"/><circle cx="569.0" cy="227.1" r="3" fill="#f28e2b"/><circle cx="580.0" cy="232.0" r="3" fill="#f28e2b"/><circle cx="591.0" cy="232.0" r="3" fill="#f28e2b"/><circle cx="602.0" cy="232.0" r="3" fill="#f28e2b"/><circle cx="613.0" cy="232.0" r="3" fill="#f28e2b"/><circle cx="624.0" cy="232.0" r="3" fill="#f28e2b"/><circle cx="635.0" cy="232.0" r="3" fill="#f28e2b"/><circle cx="646.0" cy="227.1" r="3" fill="#f28e2b"/><circle cx="657.0" cy="198.0" r="3" fill="#f28e2b"/><circle cx="668.0" cy="232.0" r="3" fill="#f28e2b"/><circle cx="679.0" cy="232.0" r="3" fill="#f28e2b"/><circle cx="690.0" cy="232.0" r="3" fill="#f28e2b"/><circle cx="701.0" cy="227.1" r="3" fill="#f28e2b"/><circle cx="712.0" cy="232.0" r="3" fill="#f28e2b"/><circle cx="723.0" cy="227.1" r="3" fill="#f28e2b"/><circle cx="734.0" cy="232.0" r="3" fill="#f28e2b"/><circle cx="745.0" cy="232.0" r="3" fill="#f28e2b"/><circle cx="756.0" cy="232.0" r="3" fill="#f28e2b"/><circle cx="767.0" cy="232.0" r="3" fill="#f28e2b"/><circle cx="778.0" cy="232.0" r="3" fill="#f28e2b"/><circle cx="789.0" cy="227.1" r="3" fill="#f28e2b"/><circle cx="800.0" cy="232.0" r="3" fill="#f28e2b"/>

  <!-- axes -->
  <line x1="52" y1="28" x2="52" y2="232"
        stroke="#cccccc" stroke-width="1"/>
  <line x1="52" y1="232" x2="800" y2="232"
        stroke="#cccccc" stroke-width="1"/>

  <!-- y-axis labels -->
  <text x="47" y="236.0" text-anchor="end" font-size="10" fill="#57606a" font-family="ui-monospace, SFMono-Regular, 'SF Mono', Menlo, monospace">0</text><text x="47" y="197.1" text-anchor="end" font-size="10" fill="#57606a" font-family="ui-monospace, SFMono-Regular, 'SF Mono', Menlo, monospace">8</text><text x="47" y="158.3" text-anchor="end" font-size="10" fill="#57606a" font-family="ui-monospace, SFMono-Regular, 'SF Mono', Menlo, monospace">16</text><text x="47" y="119.4" text-anchor="end" font-size="10" fill="#57606a" font-family="ui-monospace, SFMono-Regular, 'SF Mono', Menlo, monospace">24</text><text x="47" y="80.6" text-anchor="end" font-size="10" fill="#57606a" font-family="ui-monospace, SFMono-Regular, 'SF Mono', Menlo, monospace">32</text><text x="47" y="41.7" text-anchor="end" font-size="10" fill="#57606a" font-family="ui-monospace, SFMono-Regular, 'SF Mono', Menlo, monospace">40</text><text x="47" y="2.9" text-anchor="end" font-size="10" fill="#57606a" font-family="ui-monospace, SFMono-Regular, 'SF Mono', Menlo, monospace">48</text>

  <!-- x-axis labels -->
  <text x="52.0" y="248" text-anchor="middle" font-size="10" fill="#8c959f" font-family="ui-monospace, SFMono-Regular, 'SF Mono', Menlo, monospace">05-11</text><text x="404.0" y="248" text-anchor="middle" font-size="10" fill="#8c959f" font-family="ui-monospace, SFMono-Regular, 'SF Mono', Menlo, monospace">06-12</text><text x="756.0" y="248" text-anchor="middle" font-size="10" fill="#8c959f" font-family="ui-monospace, SFMono-Regular, 'SF Mono', Menlo, monospace">07-14</text><text x="800.0" y="248" text-anchor="middle" font-size="10" fill="#8c959f" font-family="ui-monospace, SFMono-Regular, 'SF Mono', Menlo, monospace">07-18</text><text x="140.0" y="248" text-anchor="middle" font-size="10" fill="#8c959f" font-family="ui-monospace, SFMono-Regular, 'SF Mono', Menlo, monospace">05-19</text><text x="492.0" y="248" text-anchor="middle" font-size="10" fill="#8c959f" font-family="ui-monospace, SFMono-Regular, 'SF Mono', Menlo, monospace">06-20</text><text x="228.0" y="248" text-anchor="middle" font-size="10" fill="#8c959f" font-family="ui-monospace, SFMono-Regular, 'SF Mono', Menlo, monospace">05-27</text><text x="580.0" y="248" text-anchor="middle" font-size="10" fill="#8c959f" font-family="ui-monospace, SFMono-Regular, 'SF Mono', Menlo, monospace">06-28</text><text x="316.0" y="248" text-anchor="middle" font-size="10" fill="#8c959f" font-family="ui-monospace, SFMono-Regular, 'SF Mono', Menlo, monospace">06-04</text><text x="668.0" y="248" text-anchor="middle" font-size="10" fill="#8c959f" font-family="ui-monospace, SFMono-Regular, 'SF Mono', Menlo, monospace">07-06</text>

  <!-- legend -->
  <rect x="60" y="262" width="16" height="3" fill="#4e79a7" rx="1"/><text x="80" y="268" font-size="11" fill="#57606a" font-family="-apple-system, BlinkMacSystemFont, 'Segoe UI', sans-serif">Total clones (122)</text><line x1="230" y1="264" x2="246" y2="264" stroke="#f28e2b" stroke-width="2" stroke-dasharray="5,3"/><text x="250" y="268" font-size="11" fill="#57606a" font-family="-apple-system, BlinkMacSystemFont, 'Segoe UI', sans-serif">Unique cloners</text>

</svg>