<svg xmlns="http://www.w3.org/2000/svg" viewBox="0 0 820 280" width="820" height="280">

  <!-- title -->
  <text x="52" y="18" font-size="13" font-weight="600"
        fill="#24292f" font-family="-apple-system, BlinkMacSystemFont, 'Segoe UI', sans-serif"
        >Clone traffic — bt-takeover</text>
  <text x="800" y="18" font-size="10" fill="#8c959f"
        font-family="ui-monospace, SFMono-Regular, 'SF Mono', Menlo, monospace" text-anchor="end">2026-06-16</text>

  <!-- grid -->
  <line x1="52" y1="232.0" x2="800" y2="232.0" stroke="#e8e8e8" stroke-width="1"/><line x1="52" y1="193.1" x2="800" y2="193.1" stroke="#e8e8e8" stroke-width="1"/><line x1="52" y1="154.3" x2="800" y2="154.3" stroke="#e8e8e8" stroke-width="1"/><line x1="52" y1="115.4" x2="800" y2="115.4" stroke="#e8e8e8" stroke-width="1"/><line x1="52" y1="76.6" x2="800" y2="76.6" stroke="#e8e8e8" stroke-width="1"/><line x1="52" y1="37.7" x2="800" y2="37.7" stroke="#e8e8e8" stroke-width="1"/><line x1="52" y1="-1.1" x2="800" y2="-1.1" stroke="#e8e8e8" stroke-width="1"/>

  <!-- area fill -->
  <path d="M52.0,232.0 L52.0,232.0 L74.0,227.1 L96.0,222.3 L118.0,232.0 L140.0,227.1 L162.0,232.0 L184.0,232.0 L206.0,232.0 L228.0,232.0 L250.0,227.1 L272.0,232.0 L294.0,232.0 L316.0,232.0 L338.0,28.0 L360.0,207.7 L382.0,159.1 L404.0,232.0 L426.0,227.1 L448.0,222.3 L470.0,232.0 L492.0,212.6 L514.0,232.0 L536.0,227.1 L558.0,227.1 L580.0,232.0 L602.0,227.1 L624.0,222.3 L646.0,227.1 L668.0,227.1 L690.0,222.3 L712.0,227.1 L734.0,232.0 L756.0,232.0 L778.0,227.1 L800.0,232.0 L800.0,232.0 L52.0,232.0Z" fill="#4e79a7" opacity="0.12"/>

  <!-- lines -->
  <polyline points="52.0,232.0 74.0,227.1 96.0,222.3 118.0,232.0 140.0,227.1 162.0,232.0 184.0,232.0 206.0,232.0 228.0,232.0 250.0,227.1 272.0,232.0 294.0,232.0 316.0,232.0 338.0,28.0 360.0,207.7 382.0,159.1 404.0,232.0 426.0,227.1 448.0,222.3 470.0,232.0 492.0,212.6 514.0,232.0 536.0,227.1 558.0,227.1 580.0,232.0 602.0,227.1 624.0,222.3 646.0,227.1 668.0,227.1 690.0,222.3 712.0,227.1 734.0,232.0 756.0,232.0 778.0,227.1 800.0,232.0"
            fill="none" stroke="#4e79a7"
            stroke-width="2" stroke-linejoin="round"/>
  <polyline points="52.0,232.0 74.0,227.1 96.0,222.3 118.0,232.0 140.0,227.1 162.0,232.0 184.0,232.0 206.0,232.0 228.0,232.0 250.0,227.1 272.0,232.0 294.0,232.0 316.0,232.0 338.0,120.3 360.0,207.7 382.0,212.6 404.0,232.0 426.0,227.1 448.0,222.3 470.0,232.0 492.0,217.4 514.0,232.0 536.0,227.1 558.0,227.1 580.0,232.0 602.0,227.1 624.0,222.3 646.0,227.1 668.0,227.1 690.0,222.3 712.0,227.1 734.0,232.0 756.0,232.0 778.0,227.1 800.0,232.0"
            fill="none" stroke="#f28e2b"
            stroke-width="2" stroke-linejoin="round"
            stroke-dasharray="5,3"/>

  <!-- dots -->
  <circle cx="52.0" cy="232.0" r="3" fill="#4e79a7"/><circle cx="74.0" cy="227.1" r="3" fill="#4e79a7"/><circle cx="96.0" cy="222.3" r="3" fill="#4e79a7"/><circle cx="118.0" cy="232.0" r="3" fill="#4e79a7"/><circle cx="140.0" cy="227.1" r="3" fill="#4e79a7"/><circle cx="162.0" cy="232.0" r="3" fill="#4e79a7"/><circle cx="184.0" cy="232.0" r="3" fill="#4e79a7"/><circle cx="206.0" cy="232.0" r="3" fill="#4e79a7"/><circle cx="228.0" cy="232.0" r="3" fill="#4e79a7"/><circle cx="250.0" cy="227.1" r="3" fill="#4e79a7"/><circle cx="272.0" cy="232.0" r="3" fill="#4e79a7"/><circle cx="294.0" cy="232.0" r="3" fill="#4e79a7"/><circle cx="316.0" cy="232.0" r="3" fill="#4e79a7"/><circle cx="338.0" cy="28.0" r="3" fill="#4e79a7"/><circle cx="360.0" cy="207.7" r="3" fill="#4e79a7"/><circle cx="382.0" cy="159.1" r="3" fill="#4e79a7"/><circle cx="404.0" cy="232.0" r="3" fill="#4e79a7"/><circle cx="426.0" cy="227.1" r="3" fill="#4e79a7"/><circle cx="448.0" cy="222.3" r="3" fill="#4e79a7"/><circle cx="470.0" cy="232.0" r="3" fill="#4e79a7"/><circle cx="492.0" cy="212.6" r="3" fill="#4e79a7"/><circle cx="514.0" cy="232.0" r="3" fill="#4e79a7"/><circle cx="536.0" cy="227.1" r="3" fill="#4e79a7"/><circle cx="558.0" cy="227.1" r="3" fill="#4e79a7"/><circle cx="580.0" cy="232.0" r="3" fill="#4e79a7"/><circle cx="602.0" cy="227.1" r="3" fill="#4e79a7"/><circle cx="624.0" cy="222.3" r="3" fill="#4e79a7"/><circle cx="646.0" cy="227.1" r="3" fill="#4e79a7"/><circle cx="668.0" cy="227.1" r="3" fill="#4e79a7"/><circle cx="690.0" cy="222.3" r="3" fill="#4e79a7"/><circle cx="712.0" cy="227.1" r="3" fill="#4e79a7"/><circle cx="734.0" cy="232.0" r="3" fill="#4e79a7"/><circle cx="756.0" cy="232.0" r="3" fill="#4e79a7"/><circle cx="778.0" cy="227.1" r="3" fill="#4e79a7"/><circle cx="800.0" cy="232.0" r="3" fill="#4e79a7"/>
  <circle cx="52.0" cy="232.0" r="3" fill="#f28e2b"/><circle cx="74.0" cy="227.1" r="3" fill="#f28e2b"/><circle cx="96.0" cy="222.3" r="3" fill="#f28e2b"/><circle cx="118.0" cy="232.0" r="3" fill="#f28e2b"/><circle cx="140.0" cy="227.1" r="3" fill="#f28e2b"/><circle cx="162.0" cy="232.0" r="3" fill="#f28e2b"/><circle cx="184.0" cy="232.0" r="3" fill="#f28e2b"/><circle cx="206.0" cy="232.0" r="3" fill="#f28e2b"/><circle cx="228.0" cy="232.0" r="3" fill="#f28e2b"/><circle cx="250.0" cy="227.1" r="3" fill="#f28e2b"/><circle cx="272.0" cy="232.0" r="3" fill="#f28e2b"/><circle cx="294.0" cy="232.0" r="3" fill="#f28e2b"/><circle cx="316.0" cy="232.0" r="3" fill="#f28e2b"/><circle cx="338.0" cy="120.3" r="3" fill="#f28e2b"/><circle cx="360.0" cy="207.7" r="3" fill="#f28e2b"/><circle cx="382.0" cy="212.6" r="3" fill="#f28e2b"/><circle cx="404.0" cy="232.0" r="3" fill="#f28e2b"/><circle cx="426.0" cy="227.1" r="3" fill="#f28e2b"/><circle cx="448.0" cy="222.3" r="3" fill="#f28e2b"/><circle cx="470.0" cy="232.0" r="3" fill="#f28e2b"/><circle cx="492.0" cy="217.4" r="3" fill="#f28e2b"/><circle cx="514.0" cy="232.0" r="3" fill="#f28e2b"/><circle cx="536.0" cy="227.1" r="3" fill="#f28e2b"/><circle cx="558.0" cy="227.1" r="3" fill="#f28e2b"/><circle cx="580.0" cy="232.0" r="3" fill="#f28e2b"/><circle cx="602.0" cy="227.1" r="3" fill="#f28e2b"/><circle cx="624.0" cy="222.3" r="3" fill="#f28e2b"/><circle cx="646.0" cy="227.1" r="3" fill="#f28e2b"/><circle cx="668.0" cy="227.1" r="3" fill="#f28e2b"/><circle cx="690.0" cy="222.3" r="3" fill="#f28e2b"/><circle cx="712.0" cy="227.1" r="3" fill="#f28e2b"/><circle cx="734.0" cy="232.0" r="3" fill="#f28e2b"/><circle cx="756.0" cy="232.0" r="3" fill="#f28e2b"/><circle cx="778.0" cy="227.1" r="3" fill="#f28e2b"/><circle cx="800.0" cy="232.0" r="3" fill="#f28e2b"/>

  <!-- axes -->
  <line x1="52" y1="28" x2="52" y2="232"
        stroke="#cccccc" stroke-width="1"/>
  <line x1="52" y1="232" x2="800" y2="232"
        stroke="#cccccc" stroke-width="1"/>

  <!-- y-axis labels -->
  <text x="47" y="236.0" text-anchor="end" font-size="10" fill="#57606a" font-family="ui-monospace, SFMono-Regular, 'SF Mono', Menlo, monospace">0</text><text x="47" y="197.1" text-anchor="end" font-size="10" fill="#57606a" font-family="ui-monospace, SFMono-Regular, 'SF Mono', Menlo, monospace">8</text><text x="47" y="158.3" text-anchor="end" font-size="10" fill="#57606a" font-family="ui-monospace, SFMono-Regular, 'SF Mono', Menlo, monospace">16</text><text x="47" y="119.4" text-anchor="end" font-size="10" fill="#57606a" font-family="ui-monospace, SFMono-Regular, 'SF Mono', Menlo, monospace">24</text><text x="47" y="80.6" text-anchor="end" font-size="10" fill="#57606a" font-family="ui-monospace, SFMono-Regular, 'SF Mono', Menlo, monospace">32</text><text x="47" y="41.7" text-anchor="end" font-size="10" fill="#57606a" font-family="ui-monospace, SFMono-Regular, 'SF Mono', Menlo, monospace">40</text><text x="47" y="2.9" text-anchor="end" font-size="10" fill="#57606a" font-family="ui-monospace, SFMono-Regular, 'SF Mono', Menlo, monospace">48</text>

  <!-- x-axis labels -->
  <text x="52.0" y="248" text-anchor="middle" font-size="10" fill="#8c959f" font-family="ui-monospace, SFMono-Regular, 'SF Mono', Menlo, monospace">05-11</text><text x="756.0" y="248" text-anchor="middle" font-size="10" fill="#8c959f" font-family="ui-monospace, SFMono-Regular, 'SF Mono', Menlo, monospace">06-12</text><text x="800.0" y="248" text-anchor="middle" font-size="10" fill="#8c959f" font-family="ui-monospace, SFMono-Regular, 'SF Mono', Menlo, monospace">06-14</text><text x="140.0" y="248" text-anchor="middle" font-size="10" fill="#8c959f" font-family="ui-monospace, SFMono-Regular, 'SF Mono', Menlo, monospace">05-15</text><text x="228.0" y="248" text-anchor="middle" font-size="10" fill="#8c959f" font-family="ui-monospace, SFMono-Regular, 'SF Mono', Menlo, monospace">05-19</text><text x="316.0" y="248" text-anchor="middle" font-size="10" fill="#8c959f" font-family="ui-monospace, SFMono-Regular, 'SF Mono', Menlo, monospace">05-23</text><text x="404.0" y="248" text-anchor="middle" font-size="10" fill="#8c959f" font-family="ui-monospace, SFMono-Regular, 'SF Mono', Menlo, monospace">05-27</text><text x="492.0" y="248" text-anchor="middle" font-size="10" fill="#8c959f" font-family="ui-monospace, SFMono-Regular, 'SF Mono', Menlo, monospace">05-31</text><text x="580.0" y="248" text-anchor="middle" font-size="10" fill="#8c959f" font-family="ui-monospace, SFMono-Regular, 'SF Mono', Menlo, monospace">06-04</text><text x="668.0" y="248" text-anchor="middle" font-size="10" fill="#8c959f" font-family="ui-monospace, SFMono-Regular, 'SF Mono', Menlo, monospace">06-08</text>

  <!-- legend -->
  <rect x="60" y="262" width="16" height="3" fill="#4e79a7" rx="1"/><text x="80" y="268" font-size="11" fill="#57606a" font-family="-apple-system, BlinkMacSystemFont, 'Segoe UI', sans-serif">Total clones (85)</text><line x1="230" y1="264" x2="246" y2="264" stroke="#f28e2b" stroke-width="2" stroke-dasharray="5,3"/><text x="250" y="268" font-size="11" fill="#57606a" font-family="-apple-system, BlinkMacSystemFont, 'Segoe UI', sans-serif">Unique cloners</text>

</svg>