<svg xmlns="http://www.w3.org/2000/svg" viewBox="0 0 820 280" width="820" height="280">

  <!-- title -->
  <text x="52" y="18" font-size="13" font-weight="600"
        fill="#24292f" font-family="-apple-system, BlinkMacSystemFont, 'Segoe UI', sans-serif"
        >Clone traffic — bt-takeover</text>
  <text x="800" y="18" font-size="10" fill="#8c959f"
        font-family="ui-monospace, SFMono-Regular, 'SF Mono', Menlo, monospace" text-anchor="end">2026-06-28</text>

  <!-- grid -->
  <line x1="52" y1="232.0" x2="800" y2="232.0" stroke="#e8e8e8" stroke-width="1"/><line x1="52" y1="193.1" x2="800" y2="193.1" stroke="#e8e8e8" stroke-width="1"/><line x1="52" y1="154.3" x2="800" y2="154.3" stroke="#e8e8e8" stroke-width="1"/><line x1="52" y1="115.4" x2="800" y2="115.4" stroke="#e8e8e8" stroke-width="1"/><line x1="52" y1="76.6" x2="800" y2="76.6" stroke="#e8e8e8" stroke-width="1"/><line x1="52" y1="37.7" x2="800" y2="37.7" stroke="#e8e8e8" stroke-width="1"/><line x1="52" y1="-1.1" x2="800" y2="-1.1" stroke="#e8e8e8" stroke-width="1"/>

  <!-- area fill -->
  <path d="M52.0,232.0 L52.0,232.0 L68.3,227.1 L84.5,222.3 L100.8,232.0 L117.0,227.1 L133.3,232.0 L149.6,232.0 L165.8,232.0 L182.1,232.0 L198.3,227.1 L214.6,232.0 L230.9,232.0 L247.1,232.0 L263.4,28.0 L279.7,207.7 L295.9,159.1 L312.2,232.0 L328.4,227.1 L344.7,222.3 L361.0,232.0 L377.2,212.6 L393.5,232.0 L409.7,227.1 L426.0,227.1 L442.3,232.0 L458.5,227.1 L474.8,222.3 L491.0,227.1 L507.3,227.1 L523.6,222.3 L539.8,227.1 L556.1,232.0 L572.3,232.0 L588.6,227.1 L604.9,232.0 L621.1,232.0 L637.4,232.0 L653.7,232.0 L669.9,173.7 L686.2,178.6 L702.4,232.0 L718.7,227.1 L735.0,232.0 L751.2,232.0 L767.5,232.0 L783.7,232.0 L800.0,232.0 L800.0,232.0 L52.0,232.0Z" fill="#4e79a7" opacity="0.12"/>

  <!-- lines -->
  <polyline points="52.0,232.0 68.3,227.1 84.5,222.3 100.8,232.0 117.0,227.1 133.3,232.0 149.6,232.0 165.8,232.0 182.1,232.0 198.3,227.1 214.6,232.0 230.9,232.0 247.1,232.0 263.4,28.0 279.7,207.7 295.9,159.1 312.2,232.0 328.4,227.1 344.7,222.3 361.0,232.0 377.2,212.6 393.5,232.0 409.7,227.1 426.0,227.1 442.3,232.0 458.5,227.1 474.8,222.3 491.0,227.1 507.3,227.1 523.6,222.3 539.8,227.1 556.1,232.0 572.3,232.0 588.6,227.1 604.9,232.0 621.1,232.0 637.4,232.0 653.7,232.0 669.9,173.7 686.2,178.6 702.4,232.0 718.7,227.1 735.0,232.0 751.2,232.0 767.5,232.0 783.7,232.0 800.0,232.0"
            fill="none" stroke="#4e79a7"
            stroke-width="2" stroke-linejoin="round"/>
  <polyline points="52.0,232.0 68.3,227.1 84.5,222.3 100.8,232.0 117.0,227.1 133.3,232.0 149.6,232.0 165.8,232.0 182.1,232.0 198.3,227.1 214.6,232.0 230.9,232.0 247.1,232.0 263.4,120.3 279.7,207.7 295.9,212.6 312.2,232.0 328.4,227.1 344.7,222.3 361.0,232.0 377.2,217.4 393.5,232.0 409.7,227.1 426.0,227.1 442.3,232.0 458.5,227.1 474.8,222.3 491.0,227.1 507.3,227.1 523.6,222.3 539.8,227.1 556.1,232.0 572.3,232.0 588.6,227.1 604.9,232.0 621.1,232.0 637.4,232.0 653.7,232.0 669.9,188.3 686.2,207.7 702.4,232.0 718.7,227.1 735.0,232.0 751.2,232.0 767.5,232.0 783.7,232.0 800.0,232.0"
            fill="none" stroke="#f28e2b"
            stroke-width="2" stroke-linejoin="round"
            stroke-dasharray="5,3"/>

  <!-- dots -->
  <circle cx="52.0" cy="232.0" r="3" fill="#4e79a7"/><circle cx="68.3" cy="227.1" r="3" fill="#4e79a7"/><circle cx="84.5" cy="222.3" r="3" fill="#4e79a7"/><circle cx="100.8" cy="232.0" r="3" fill="#4e79a7"/><circle cx="117.0" cy="227.1" r="3" fill="#4e79a7"/><circle cx="133.3" cy="232.0" r="3" fill="#4e79a7"/><circle cx="149.6" cy="232.0" r="3" fill="#4e79a7"/><circle cx="165.8" cy="232.0" r="3" fill="#4e79a7"/><circle cx="182.1" cy="232.0" r="3" fill="#4e79a7"/><circle cx="198.3" cy="227.1" r="3" fill="#4e79a7"/><circle cx="214.6" cy="232.0" r="3" fill="#4e79a7"/><circle cx="230.9" cy="232.0" r="3" fill="#4e79a7"/><circle cx="247.1" cy="232.0" r="3" fill="#4e79a7"/><circle cx="263.4" cy="28.0" r="3" fill="#4e79a7"/><circle cx="279.7" cy="207.7" r="3" fill="#4e79a7"/><circle cx="295.9" cy="159.1" r="3" fill="#4e79a7"/><circle cx="312.2" cy="232.0" r="3" fill="#4e79a7"/><circle cx="328.4" cy="227.1" r="3" fill="#4e79a7"/><circle cx="344.7" cy="222.3" r="3" fill="#4e79a7"/><circle cx="361.0" cy="232.0" r="3" fill="#4e79a7"/><circle cx="377.2" cy="212.6" r="3" fill="#4e79a7"/><circle cx="393.5" cy="232.0" r="3" fill="#4e79a7"/><circle cx="409.7" cy="227.1" r="3" fill="#4e79a7"/><circle cx="426.0" cy="227.1" r="3" fill="#4e79a7"/><circle cx="442.3" cy="232.0" r="3" fill="#4e79a7"/><circle cx="458.5" cy="227.1" r="3" fill="#4e79a7"/><circle cx="474.8" cy="222.3" r="3" fill="#4e79a7"/><circle cx="491.0" cy="227.1" r="3" fill="#4e79a7"/><circle cx="507.3" cy="227.1" r="3" fill="#4e79a7"/><circle cx="523.6" cy="222.3" r="3" fill="#4e79a7"/><circle cx="539.8" cy="227.1" r="3" fill="#4e79a7"/><circle cx="556.1" cy="232.0" r="3" fill="#4e79a7"/><circle cx="572.3" cy="232.0" r="3" fill="#4e79a7"/><circle cx="588.6" cy="227.1" r="3" fill="#4e79a7"/><circle cx="604.9" cy="232.0" r="3" fill="#4e79a7"/><circle cx="621.1" cy="232.0" r="3" fill="#4e79a7"/><circle cx="637.4" cy="232.0" r="3" fill="#4e79a7"/><circle cx="653.7" cy="232.0" r="3" fill="#4e79a7"/><circle cx="669.9" cy="173.7" r="3" fill="#4e79a7"/><circle cx="686.2" cy="178.6" r="3" fill="#4e79a7"/><circle cx="702.4" cy="232.0" r="3" fill="#4e79a7"/><circle cx="718.7" cy="227.1" r="3" fill="#4e79a7"/><circle cx="735.0" cy="232.0" r="3" fill="#4e79a7"/><circle cx="751.2" cy="232.0" r="3" fill="#4e79a7"/><circle cx="767.5" cy="232.0" r="3" fill="#4e79a7"/><circle cx="783.7" cy="232.0" r="3" fill="#4e79a7"/><circle cx="800.0" cy="232.0" r="3" fill="#4e79a7"/>
  <circle cx="52.0" cy="232.0" r="3" fill="#f28e2b"/><circle cx="68.3" cy="227.1" r="3" fill="#f28e2b"/><circle cx="84.5" cy="222.3" r="3" fill="#f28e2b"/><circle cx="100.8" cy="232.0" r="3" fill="#f28e2b"/><circle cx="117.0" cy="227.1" r="3" fill="#f28e2b"/><circle cx="133.3" cy="232.0" r="3" fill="#f28e2b"/><circle cx="149.6" cy="232.0" r="3" fill="#f28e2b"/><circle cx="165.8" cy="232.0" r="3" fill="#f28e2b"/><circle cx="182.1" cy="232.0" r="3" fill="#f28e2b"/><circle cx="198.3" cy="227.1" r="3" fill="#f28e2b"/><circle cx="214.6" cy="232.0" r="3" fill="#f28e2b"/><circle cx="230.9" cy="232.0" r="3" fill="#f28e2b"/><circle cx="247.1" cy="232.0" r="3" fill="#f28e2b"/><circle cx="263.4" cy="120.3" r="3" fill="#f28e2b"/><circle cx="279.7" cy="207.7" r="3" fill="#f28e2b"/><circle cx="295.9" cy="212.6" r="3" fill="#f28e2b"/><circle cx="312.2" cy="232.0" r="3" fill="#f28e2b"/><circle cx="328.4" cy="227.1" r="3" fill="#f28e2b"/><circle cx="344.7" cy="222.3" r="3" fill="#f28e2b"/><circle cx="361.0" cy="232.0" r="3" fill="#f28e2b"/><circle cx="377.2" cy="217.4" r="3" fill="#f28e2b"/><circle cx="393.5" cy="232.0" r="3" fill="#f28e2b"/><circle cx="409.7" cy="227.1" r="3" fill="#f28e2b"/><circle cx="426.0" cy="227.1" r="3" fill="#f28e2b"/><circle cx="442.3" cy="232.0" r="3" fill="#f28e2b"/><circle cx="458.5" cy="227.1" r="3" fill="#f28e2b"/><circle cx="474.8" cy="222.3" r="3" fill="#f28e2b"/><circle cx="491.0" cy="227.1" r="3" fill="#f28e2b"/><circle cx="507.3" cy="227.1" r="3" fill="#f28e2b"/><circle cx="523.6" cy="222.3" r="3" fill="#f28e2b"/><circle cx="539.8" cy="227.1" r="3" fill="#f28e2b"/><circle cx="556.1" cy="232.0" r="3" fill="#f28e2b"/><circle cx="572.3" cy="232.0" r="3" fill="#f28e2b"/><circle cx="588.6" cy="227.1" r="3" fill="#f28e2b"/><circle cx="604.9" cy="232.0" r="3" fill="#f28e2b"/><circle cx="621.1" cy="232.0" r="3" fill="#f28e2b"/><circle cx="637.4" cy="232.0" r="3" fill="#f28e2b"/><circle cx="653.7" cy="232.0" r="3" fill="#f28e2b"/><circle cx="669.9" cy="188.3" r="3" fill="#f28e2b"/><circle cx="686.2" cy="207.7" r="3" fill="#f28e2b"/><circle cx="702.4" cy="232.0" r="3" fill="#f28e2b"/><circle cx="718.7" cy="227.1" r="3" fill="#f28e2b"/><circle cx="735.0" cy="232.0" r="3" fill="#f28e2b"/><circle cx="751.2" cy="232.0" r="3" fill="#f28e2b"/><circle cx="767.5" cy="232.0" r="3" fill="#f28e2b"/><circle cx="783.7" cy="232.0" r="3" fill="#f28e2b"/><circle cx="800.0" cy="232.0" r="3" fill="#f28e2b"/>

  <!-- axes -->
  <line x1="52" y1="28" x2="52" y2="232"
        stroke="#cccccc" stroke-width="1"/>
  <line x1="52" y1="232" x2="800" y2="232"
        stroke="#cccccc" stroke-width="1"/>

  <!-- y-axis labels -->
  <text x="47" y="236.0" text-anchor="end" font-size="10" fill="#57606a" font-family="ui-monospace, SFMono-Regular, 'SF Mono', Menlo, monospace">0</text><text x="47" y="197.1" text-anchor="end" font-size="10" fill="#57606a" font-family="ui-monospace, SFMono-Regular, 'SF Mono', Menlo, monospace">8</text><text x="47" y="158.3" text-anchor="end" font-size="10" fill="#57606a" font-family="ui-monospace, SFMono-Regular, 'SF Mono', Menlo, monospace">16</text><text x="47" y="119.4" text-anchor="end" font-size="10" fill="#57606a" font-family="ui-monospace, SFMono-Regular, 'SF Mono', Menlo, monospace">24</text><text x="47" y="80.6" text-anchor="end" font-size="10" fill="#57606a" font-family="ui-monospace, SFMono-Regular, 'SF Mono', Menlo, monospace">32</text><text x="47" y="41.7" text-anchor="end" font-size="10" fill="#57606a" font-family="ui-monospace, SFMono-Regular, 'SF Mono', Menlo, monospace">40</text><text x="47" y="2.9" text-anchor="end" font-size="10" fill="#57606a" font-family="ui-monospace, SFMono-Regular, 'SF Mono', Menlo, monospace">48</text>

  <!-- x-axis labels -->
  <text x="52.0" y="248" text-anchor="middle" font-size="10" fill="#8c959f" font-family="ui-monospace, SFMono-Regular, 'SF Mono', Menlo, monospace">05-11</text><text x="621.1" y="248" text-anchor="middle" font-size="10" fill="#8c959f" font-family="ui-monospace, SFMono-Regular, 'SF Mono', Menlo, monospace">06-15</text><text x="133.3" y="248" text-anchor="middle" font-size="10" fill="#8c959f" font-family="ui-monospace, SFMono-Regular, 'SF Mono', Menlo, monospace">05-16</text><text x="702.4" y="248" text-anchor="middle" font-size="10" fill="#8c959f" font-family="ui-monospace, SFMono-Regular, 'SF Mono', Menlo, monospace">06-20</text><text x="214.6" y="248" text-anchor="middle" font-size="10" fill="#8c959f" font-family="ui-monospace, SFMono-Regular, 'SF Mono', Menlo, monospace">05-21</text><text x="783.7" y="248" text-anchor="middle" font-size="10" fill="#8c959f" font-family="ui-monospace, SFMono-Regular, 'SF Mono', Menlo, monospace">06-25</text><text x="800.0" y="248" text-anchor="middle" font-size="10" fill="#8c959f" font-family="ui-monospace, SFMono-Regular, 'SF Mono', Menlo, monospace">06-26</text><text x="295.9" y="248" text-anchor="middle" font-size="10" fill="#8c959f" font-family="ui-monospace, SFMono-Regular, 'SF Mono', Menlo, monospace">05-26</text><text x="377.2" y="248" text-anchor="middle" font-size="10" fill="#8c959f" font-family="ui-monospace, SFMono-Regular, 'SF Mono', Menlo, monospace">05-31</text><text x="458.5" y="248" text-anchor="middle" font-size="10" fill="#8c959f" font-family="ui-monospace, SFMono-Regular, 'SF Mono', Menlo, monospace">06-05</text><text x="539.8" y="248" text-anchor="middle" font-size="10" fill="#8c959f" font-family="ui-monospace, SFMono-Regular, 'SF Mono', Menlo, monospace">06-10</text>

  <!-- legend -->
  <rect x="60" y="262" width="16" height="3" fill="#4e79a7" rx="1"/><text x="80" y="268" font-size="11" fill="#57606a" font-family="-apple-system, BlinkMacSystemFont, 'Segoe UI', sans-serif">Total clones (109)</text><line x1="230" y1="264" x2="246" y2="264" stroke="#f28e2b" stroke-width="2" stroke-dasharray="5,3"/><text x="250" y="268" font-size="11" fill="#57606a" font-family="-apple-system, BlinkMacSystemFont, 'Segoe UI', sans-serif">Unique cloners</text>

</svg>