<svg xmlns="http://www.w3.org/2000/svg" viewBox="0 0 820 280" width="820" height="280">

  <!-- title -->
  <text x="52" y="18" font-size="13" font-weight="600"
        fill="#24292f" font-family="-apple-system, BlinkMacSystemFont, 'Segoe UI', sans-serif"
        >Clone traffic — bt-takeover</text>
  <text x="800" y="18" font-size="10" fill="#8c959f"
        font-family="ui-monospace, SFMono-Regular, 'SF Mono', Menlo, monospace" text-anchor="end">2026-07-08</text>

  <!-- grid -->
  <line x1="52" y1="232.0" x2="800" y2="232.0" stroke="#e8e8e8" stroke-width="1"/><line x1="52" y1="193.1" x2="800" y2="193.1" stroke="#e8e8e8" stroke-width="1"/><line x1="52" y1="154.3" x2="800" y2="154.3" stroke="#e8e8e8" stroke-width="1"/><line x1="52" y1="115.4" x2="800" y2="115.4" stroke="#e8e8e8" stroke-width="1"/><line x1="52" y1="76.6" x2="800" y2="76.6" stroke="#e8e8e8" stroke-width="1"/><line x1="52" y1="37.7" x2="800" y2="37.7" stroke="#e8e8e8" stroke-width="1"/><line x1="52" y1="-1.1" x2="800" y2="-1.1" stroke="#e8e8e8" stroke-width="1"/>

  <!-- area fill -->
  <path d="M52.0,232.0 L52.0,232.0 L65.4,227.1 L78.7,222.3 L92.1,232.0 L105.4,227.1 L118.8,232.0 L132.1,232.0 L145.5,232.0 L158.9,232.0 L172.2,227.1 L185.6,232.0 L198.9,232.0 L212.3,232.0 L225.6,28.0 L239.0,207.7 L252.4,159.1 L265.7,232.0 L279.1,227.1 L292.4,222.3 L305.8,232.0 L319.1,212.6 L332.5,232.0 L345.9,227.1 L359.2,227.1 L372.6,232.0 L385.9,227.1 L399.3,222.3 L412.6,227.1 L426.0,227.1 L439.4,222.3 L452.7,227.1 L466.1,232.0 L479.4,232.0 L492.8,227.1 L506.1,232.0 L519.5,232.0 L532.9,232.0 L546.2,232.0 L559.6,173.7 L572.9,178.6 L586.3,232.0 L599.6,227.1 L613.0,232.0 L626.4,232.0 L639.7,232.0 L653.1,232.0 L666.4,232.0 L679.8,227.1 L693.1,232.0 L706.5,232.0 L719.9,232.0 L733.2,232.0 L746.6,232.0 L759.9,232.0 L773.3,227.1 L786.6,193.1 L800.0,232.0 L800.0,232.0 L52.0,232.0Z" fill="#4e79a7" opacity="0.12"/>

  <!-- lines -->
  <polyline points="52.0,232.0 65.4,227.1 78.7,222.3 92.1,232.0 105.4,227.1 118.8,232.0 132.1,232.0 145.5,232.0 158.9,232.0 172.2,227.1 185.6,232.0 198.9,232.0 212.3,232.0 225.6,28.0 239.0,207.7 252.4,159.1 265.7,232.0 279.1,227.1 292.4,222.3 305.8,232.0 319.1,212.6 332.5,232.0 345.9,227.1 359.2,227.1 372.6,232.0 385.9,227.1 399.3,222.3 412.6,227.1 426.0,227.1 439.4,222.3 452.7,227.1 466.1,232.0 479.4,232.0 492.8,227.1 506.1,232.0 519.5,232.0 532.9,232.0 546.2,232.0 559.6,173.7 572.9,178.6 586.3,232.0 599.6,227.1 613.0,232.0 626.4,232.0 639.7,232.0 653.1,232.0 666.4,232.0 679.8,227.1 693.1,232.0 706.5,232.0 719.9,232.0 733.2,232.0 746.6,232.0 759.9,232.0 773.3,227.1 786.6,193.1 800.0,232.0"
            fill="none" stroke="#4e79a7"
            stroke-width="2" stroke-linejoin="round"/>
  <polyline points="52.0,232.0 65.4,227.1 78.7,222.3 92.1,232.0 105.4,227.1 118.8,232.0 132.1,232.0 145.5,232.0 158.9,232.0 172.2,227.1 185.6,232.0 198.9,232.0 212.3,232.0 225.6,120.3 239.0,207.7 252.4,212.6 265.7,232.0 279.1,227.1 292.4,222.3 305.8,232.0 319.1,217.4 332.5,232.0 345.9,227.1 359.2,227.1 372.6,232.0 385.9,227.1 399.3,222.3 412.6,227.1 426.0,227.1 439.4,222.3 452.7,227.1 466.1,232.0 479.4,232.0 492.8,227.1 506.1,232.0 519.5,232.0 532.9,232.0 546.2,232.0 559.6,188.3 572.9,207.7 586.3,232.0 599.6,227.1 613.0,232.0 626.4,232.0 639.7,232.0 653.1,232.0 666.4,232.0 679.8,227.1 693.1,232.0 706.5,232.0 719.9,232.0 733.2,232.0 746.6,232.0 759.9,232.0 773.3,227.1 786.6,198.0 800.0,232.0"
            fill="none" stroke="#f28e2b"
            stroke-width="2" stroke-linejoin="round"
            stroke-dasharray="5,3"/>

  <!-- dots -->
  <circle cx="52.0" cy="232.0" r="3" fill="#4e79a7"/><circle cx="65.4" cy="227.1" r="3" fill="#4e79a7"/><circle cx="78.7" cy="222.3" r="3" fill="#4e79a7"/><circle cx="92.1" cy="232.0" r="3" fill="#4e79a7"/><circle cx="105.4" cy="227.1" r="3" fill="#4e79a7"/><circle cx="118.8" cy="232.0" r="3" fill="#4e79a7"/><circle cx="132.1" cy="232.0" r="3" fill="#4e79a7"/><circle cx="145.5" cy="232.0" r="3" fill="#4e79a7"/><circle cx="158.9" cy="232.0" r="3" fill="#4e79a7"/><circle cx="172.2" cy="227.1" r="3" fill="#4e79a7"/><circle cx="185.6" cy="232.0" r="3" fill="#4e79a7"/><circle cx="198.9" cy="232.0" r="3" fill="#4e79a7"/><circle cx="212.3" cy="232.0" r="3" fill="#4e79a7"/><circle cx="225.6" cy="28.0" r="3" fill="#4e79a7"/><circle cx="239.0" cy="207.7" r="3" fill="#4e79a7"/><circle cx="252.4" cy="159.1" r="3" fill="#4e79a7"/><circle cx="265.7" cy="232.0" r="3" fill="#4e79a7"/><circle cx="279.1" cy="227.1" r="3" fill="#4e79a7"/><circle cx="292.4" cy="222.3" r="3" fill="#4e79a7"/><circle cx="305.8" cy="232.0" r="3" fill="#4e79a7"/><circle cx="319.1" cy="212.6" r="3" fill="#4e79a7"/><circle cx="332.5" cy="232.0" r="3" fill="#4e79a7"/><circle cx="345.9" cy="227.1" r="3" fill="#4e79a7"/><circle cx="359.2" cy="227.1" r="3" fill="#4e79a7"/><circle cx="372.6" cy="232.0" r="3" fill="#4e79a7"/><circle cx="385.9" cy="227.1" r="3" fill="#4e79a7"/><circle cx="399.3" cy="222.3" r="3" fill="#4e79a7"/><circle cx="412.6" cy="227.1" r="3" fill="#4e79a7"/><circle cx="426.0" cy="227.1" r="3" fill="#4e79a7"/><circle cx="439.4" cy="222.3" r="3" fill="#4e79a7"/><circle cx="452.7" cy="227.1" r="3" fill="#4e79a7"/><circle cx="466.1" cy="232.0" r="3" fill="#4e79a7"/><circle cx="479.4" cy="232.0" r="3" fill="#4e79a7"/><circle cx="492.8" cy="227.1" r="3" fill="#4e79a7"/><circle cx="506.1" cy="232.0" r="3" fill="#4e79a7"/><circle cx="519.5" cy="232.0" r="3" fill="#4e79a7"/><circle cx="532.9" cy="232.0" r="3" fill="#4e79a7"/><circle cx="546.2" cy="232.0" r="3" fill="#4e79a7"/><circle cx="559.6" cy="173.7" r="3" fill="#4e79a7"/><circle cx="572.9" cy="178.6" r="3" fill="#4e79a7"/><circle cx="586.3" cy="232.0" r="3" fill="#4e79a7"/><circle cx="599.6" cy="227.1" r="3" fill="#4e79a7"/><circle cx="613.0" cy="232.0" r="3" fill="#4e79a7"/><circle cx="626.4" cy="232.0" r="3" fill="#4e79a7"/><circle cx="639.7" cy="232.0" r="3" fill="#4e79a7"/><circle cx="653.1" cy="232.0" r="3" fill="#4e79a7"/><circle cx="666.4" cy="232.0" r="3" fill="#4e79a7"/><circle cx="679.8" cy="227.1" r="3" fill="#4e79a7"/><circle cx="693.1" cy="232.0" r="3" fill="#4e79a7"/><circle cx="706.5" cy="232.0" r="3" fill="#4e79a7"/><circle cx="719.9" cy="232.0" r="3" fill="#4e79a7"/><circle cx="733.2" cy="232.0" r="3" fill="#4e79a7"/><circle cx="746.6" cy="232.0" r="3" fill="#4e79a7"/><circle cx="759.9" cy="232.0" r="3" fill="#4e79a7"/><circle cx="773.3" cy="227.1" r="3" fill="#4e79a7"/><circle cx="786.6" cy="193.1" r="3" fill="#4e79a7"/><circle cx="800.0" cy="232.0" r="3" fill="#4e79a7"/>
  <circle cx="52.0" cy="232.0" r="3" fill="#f28e2b"/><circle cx="65.4" cy="227.1" r="3" fill="#f28e2b"/><circle cx="78.7" cy="222.3" r="3" fill="#f28e2b"/><circle cx="92.1" cy="232.0" r="3" fill="#f28e2b"/><circle cx="105.4" cy="227.1" r="3" fill="#f28e2b"/><circle cx="118.8" cy="232.0" r="3" fill="#f28e2b"/><circle cx="132.1" cy="232.0" r="3" fill="#f28e2b"/><circle cx="145.5" cy="232.0" r="3" fill="#f28e2b"/><circle cx="158.9" cy="232.0" r="3" fill="#f28e2b"/><circle cx="172.2" cy="227.1" r="3" fill="#f28e2b"/><circle cx="185.6" cy="232.0" r="3" fill="#f28e2b"/><circle cx="198.9" cy="232.0" r="3" fill="#f28e2b"/><circle cx="212.3" cy="232.0" r="3" fill="#f28e2b"/><circle cx="225.6" cy="120.3" r="3" fill="#f28e2b"/><circle cx="239.0" cy="207.7" r="3" fill="#f28e2b"/><circle cx="252.4" cy="212.6" r="3" fill="#f28e2b"/><circle cx="265.7" cy="232.0" r="3" fill="#f28e2b"/><circle cx="279.1" cy="227.1" r="3" fill="#f28e2b"/><circle cx="292.4" cy="222.3" r="3" fill="#f28e2b"/><circle cx="305.8" cy="232.0" r="3" fill="#f28e2b"/><circle cx="319.1" cy="217.4" r="3" fill="#f28e2b"/><circle cx="332.5" cy="232.0" r="3" fill="#f28e2b"/><circle cx="345.9" cy="227.1" r="3" fill="#f28e2b"/><circle cx="359.2" cy="227.1" r="3" fill="#f28e2b"/><circle cx="372.6" cy="232.0" r="3" fill="#f28e2b"/><circle cx="385.9" cy="227.1" r="3" fill="#f28e2b"/><circle cx="399.3" cy="222.3" r="3" fill="#f28e2b"/><circle cx="412.6" cy="227.1" r="3" fill="#f28e2b"/><circle cx="426.0" cy="227.1" r="3" fill="#f28e2b"/><circle cx="439.4" cy="222.3" r="3" fill="#f28e2b"/><circle cx="452.7" cy="227.1" r="3" fill="#f28e2b"/><circle cx="466.1" cy="232.0" r="3" fill="#f28e2b"/><circle cx="479.4" cy="232.0" r="3" fill="#f28e2b"/><circle cx="492.8" cy="227.1" r="3" fill="#f28e2b"/><circle cx="506.1" cy="232.0" r="3" fill="#f28e2b"/><circle cx="519.5" cy="232.0" r="3" fill="#f28e2b"/><circle cx="532.9" cy="232.0" r="3" fill="#f28e2b"/><circle cx="546.2" cy="232.0" r="3" fill="#f28e2b"/><circle cx="559.6" cy="188.3" r="3" fill="#f28e2b"/><circle cx="572.9" cy="207.7" r="3" fill="#f28e2b"/><circle cx="586.3" cy="232.0" r="3" fill="#f28e2b"/><circle cx="599.6" cy="227.1" r="3" fill="#f28e2b"/><circle cx="613.0" cy="232.0" r="3" fill="#f28e2b"/><circle cx="626.4" cy="232.0" r="3" fill="#f28e2b"/><circle cx="639.7" cy="232.0" r="3" fill="#f28e2b"/><circle cx="653.1" cy="232.0" r="3" fill="#f28e2b"/><circle cx="666.4" cy="232.0" r="3" fill="#f28e2b"/><circle cx="679.8" cy="227.1" r="3" fill="#f28e2b"/><circle cx="693.1" cy="232.0" r="3" fill="#f28e2b"/><circle cx="706.5" cy="232.0" r="3" fill="#f28e2b"/><circle cx="719.9" cy="232.0" r="3" fill="#f28e2b"/><circle cx="733.2" cy="232.0" r="3" fill="#f28e2b"/><circle cx="746.6" cy="232.0" r="3" fill="#f28e2b"/><circle cx="759.9" cy="232.0" r="3" fill="#f28e2b"/><circle cx="773.3" cy="227.1" r="3" fill="#f28e2b"/><circle cx="786.6" cy="198.0" r="3" fill="#f28e2b"/><circle cx="800.0" cy="232.0" r="3" fill="#f28e2b"/>

  <!-- axes -->
  <line x1="52" y1="28" x2="52" y2="232"
        stroke="#cccccc" stroke-width="1"/>
  <line x1="52" y1="232" x2="800" y2="232"
        stroke="#cccccc" stroke-width="1"/>

  <!-- y-axis labels -->
  <text x="47" y="236.0" text-anchor="end" font-size="10" fill="#57606a" font-family="ui-monospace, SFMono-Regular, 'SF Mono', Menlo, monospace">0</text><text x="47" y="197.1" text-anchor="end" font-size="10" fill="#57606a" font-family="ui-monospace, SFMono-Regular, 'SF Mono', Menlo, monospace">8</text><text x="47" y="158.3" text-anchor="end" font-size="10" fill="#57606a" font-family="ui-monospace, SFMono-Regular, 'SF Mono', Menlo, monospace">16</text><text x="47" y="119.4" text-anchor="end" font-size="10" fill="#57606a" font-family="ui-monospace, SFMono-Regular, 'SF Mono', Menlo, monospace">24</text><text x="47" y="80.6" text-anchor="end" font-size="10" fill="#57606a" font-family="ui-monospace, SFMono-Regular, 'SF Mono', Menlo, monospace">32</text><text x="47" y="41.7" text-anchor="end" font-size="10" fill="#57606a" font-family="ui-monospace, SFMono-Regular, 'SF Mono', Menlo, monospace">40</text><text x="47" y="2.9" text-anchor="end" font-size="10" fill="#57606a" font-family="ui-monospace, SFMono-Regular, 'SF Mono', Menlo, monospace">48</text>

  <!-- x-axis labels -->
  <text x="52.0" y="248" text-anchor="middle" font-size="10" fill="#8c959f" font-family="ui-monospace, SFMono-Regular, 'SF Mono', Menlo, monospace">05-11</text><text x="519.5" y="248" text-anchor="middle" font-size="10" fill="#8c959f" font-family="ui-monospace, SFMono-Regular, 'SF Mono', Menlo, monospace">06-15</text><text x="145.5" y="248" text-anchor="middle" font-size="10" fill="#8c959f" font-family="ui-monospace, SFMono-Regular, 'SF Mono', Menlo, monospace">05-18</text><text x="613.0" y="248" text-anchor="middle" font-size="10" fill="#8c959f" font-family="ui-monospace, SFMono-Regular, 'SF Mono', Menlo, monospace">06-22</text><text x="239.0" y="248" text-anchor="middle" font-size="10" fill="#8c959f" font-family="ui-monospace, SFMono-Regular, 'SF Mono', Menlo, monospace">05-25</text><text x="706.5" y="248" text-anchor="middle" font-size="10" fill="#8c959f" font-family="ui-monospace, SFMono-Regular, 'SF Mono', Menlo, monospace">06-29</text><text x="332.5" y="248" text-anchor="middle" font-size="10" fill="#8c959f" font-family="ui-monospace, SFMono-Regular, 'SF Mono', Menlo, monospace">06-01</text><text x="800.0" y="248" text-anchor="middle" font-size="10" fill="#8c959f" font-family="ui-monospace, SFMono-Regular, 'SF Mono', Menlo, monospace">07-06</text><text x="426.0" y="248" text-anchor="middle" font-size="10" fill="#8c959f" font-family="ui-monospace, SFMono-Regular, 'SF Mono', Menlo, monospace">06-08</text>

  <!-- legend -->
  <rect x="60" y="262" width="16" height="3" fill="#4e79a7" rx="1"/><text x="80" y="268" font-size="11" fill="#57606a" font-family="-apple-system, BlinkMacSystemFont, 'Segoe UI', sans-serif">Total clones (119)</text><line x1="230" y1="264" x2="246" y2="264" stroke="#f28e2b" stroke-width="2" stroke-dasharray="5,3"/><text x="250" y="268" font-size="11" fill="#57606a" font-family="-apple-system, BlinkMacSystemFont, 'Segoe UI', sans-serif">Unique cloners</text>

</svg>