<svg xmlns="http://www.w3.org/2000/svg" viewBox="0 0 820 280" width="820" height="280">

  <!-- title -->
  <text x="52" y="18" font-size="13" font-weight="600"
        fill="#24292f" font-family="-apple-system, BlinkMacSystemFont, 'Segoe UI', sans-serif"
        >Clone traffic — bt-takeover</text>
  <text x="800" y="18" font-size="10" fill="#8c959f"
        font-family="ui-monospace, SFMono-Regular, 'SF Mono', Menlo, monospace" text-anchor="end">2026-07-04</text>

  <!-- grid -->
  <line x1="52" y1="232.0" x2="800" y2="232.0" stroke="#e8e8e8" stroke-width="1"/><line x1="52" y1="193.1" x2="800" y2="193.1" stroke="#e8e8e8" stroke-width="1"/><line x1="52" y1="154.3" x2="800" y2="154.3" stroke="#e8e8e8" stroke-width="1"/><line x1="52" y1="115.4" x2="800" y2="115.4" stroke="#e8e8e8" stroke-width="1"/><line x1="52" y1="76.6" x2="800" y2="76.6" stroke="#e8e8e8" stroke-width="1"/><line x1="52" y1="37.7" x2="800" y2="37.7" stroke="#e8e8e8" stroke-width="1"/><line x1="52" y1="-1.1" x2="800" y2="-1.1" stroke="#e8e8e8" stroke-width="1"/>

  <!-- area fill -->
  <path d="M52.0,232.0 L52.0,232.0 L66.1,227.1 L80.2,222.3 L94.3,232.0 L108.5,227.1 L122.6,232.0 L136.7,232.0 L150.8,232.0 L164.9,232.0 L179.0,227.1 L193.1,232.0 L207.2,232.0 L221.4,232.0 L235.5,28.0 L249.6,207.7 L263.7,159.1 L277.8,232.0 L291.9,227.1 L306.0,222.3 L320.2,232.0 L334.3,212.6 L348.4,232.0 L362.5,227.1 L376.6,227.1 L390.7,232.0 L404.8,227.1 L418.9,222.3 L433.1,227.1 L447.2,227.1 L461.3,222.3 L475.4,227.1 L489.5,232.0 L503.6,232.0 L517.7,227.1 L531.8,232.0 L546.0,232.0 L560.1,232.0 L574.2,232.0 L588.3,173.7 L602.4,178.6 L616.5,232.0 L630.6,227.1 L644.8,232.0 L658.9,232.0 L673.0,232.0 L687.1,232.0 L701.2,232.0 L715.3,227.1 L729.4,232.0 L743.5,232.0 L757.7,232.0 L771.8,232.0 L785.9,232.0 L800.0,232.0 L800.0,232.0 L52.0,232.0Z" fill="#4e79a7" opacity="0.12"/>

  <!-- lines -->
  <polyline points="52.0,232.0 66.1,227.1 80.2,222.3 94.3,232.0 108.5,227.1 122.6,232.0 136.7,232.0 150.8,232.0 164.9,232.0 179.0,227.1 193.1,232.0 207.2,232.0 221.4,232.0 235.5,28.0 249.6,207.7 263.7,159.1 277.8,232.0 291.9,227.1 306.0,222.3 320.2,232.0 334.3,212.6 348.4,232.0 362.5,227.1 376.6,227.1 390.7,232.0 404.8,227.1 418.9,222.3 433.1,227.1 447.2,227.1 461.3,222.3 475.4,227.1 489.5,232.0 503.6,232.0 517.7,227.1 531.8,232.0 546.0,232.0 560.1,232.0 574.2,232.0 588.3,173.7 602.4,178.6 616.5,232.0 630.6,227.1 644.8,232.0 658.9,232.0 673.0,232.0 687.1,232.0 701.2,232.0 715.3,227.1 729.4,232.0 743.5,232.0 757.7,232.0 771.8,232.0 785.9,232.0 800.0,232.0"
            fill="none" stroke="#4e79a7"
            stroke-width="2" stroke-linejoin="round"/>
  <polyline points="52.0,232.0 66.1,227.1 80.2,222.3 94.3,232.0 108.5,227.1 122.6,232.0 136.7,232.0 150.8,232.0 164.9,232.0 179.0,227.1 193.1,232.0 207.2,232.0 221.4,232.0 235.5,120.3 249.6,207.7 263.7,212.6 277.8,232.0 291.9,227.1 306.0,222.3 320.2,232.0 334.3,217.4 348.4,232.0 362.5,227.1 376.6,227.1 390.7,232.0 404.8,227.1 418.9,222.3 433.1,227.1 447.2,227.1 461.3,222.3 475.4,227.1 489.5,232.0 503.6,232.0 517.7,227.1 531.8,232.0 546.0,232.0 560.1,232.0 574.2,232.0 588.3,188.3 602.4,207.7 616.5,232.0 630.6,227.1 644.8,232.0 658.9,232.0 673.0,232.0 687.1,232.0 701.2,232.0 715.3,227.1 729.4,232.0 743.5,232.0 757.7,232.0 771.8,232.0 785.9,232.0 800.0,232.0"
            fill="none" stroke="#f28e2b"
            stroke-width="2" stroke-linejoin="round"
            stroke-dasharray="5,3"/>

  <!-- dots -->
  <circle cx="52.0" cy="232.0" r="3" fill="#4e79a7"/><circle cx="66.1" cy="227.1" r="3" fill="#4e79a7"/><circle cx="80.2" cy="222.3" r="3" fill="#4e79a7"/><circle cx="94.3" cy="232.0" r="3" fill="#4e79a7"/><circle cx="108.5" cy="227.1" r="3" fill="#4e79a7"/><circle cx="122.6" cy="232.0" r="3" fill="#4e79a7"/><circle cx="136.7" cy="232.0" r="3" fill="#4e79a7"/><circle cx="150.8" cy="232.0" r="3" fill="#4e79a7"/><circle cx="164.9" cy="232.0" r="3" fill="#4e79a7"/><circle cx="179.0" cy="227.1" r="3" fill="#4e79a7"/><circle cx="193.1" cy="232.0" r="3" fill="#4e79a7"/><circle cx="207.2" cy="232.0" r="3" fill="#4e79a7"/><circle cx="221.4" cy="232.0" r="3" fill="#4e79a7"/><circle cx="235.5" cy="28.0" r="3" fill="#4e79a7"/><circle cx="249.6" cy="207.7" r="3" fill="#4e79a7"/><circle cx="263.7" cy="159.1" r="3" fill="#4e79a7"/><circle cx="277.8" cy="232.0" r="3" fill="#4e79a7"/><circle cx="291.9" cy="227.1" r="3" fill="#4e79a7"/><circle cx="306.0" cy="222.3" r="3" fill="#4e79a7"/><circle cx="320.2" cy="232.0" r="3" fill="#4e79a7"/><circle cx="334.3" cy="212.6" r="3" fill="#4e79a7"/><circle cx="348.4" cy="232.0" r="3" fill="#4e79a7"/><circle cx="362.5" cy="227.1" r="3" fill="#4e79a7"/><circle cx="376.6" cy="227.1" r="3" fill="#4e79a7"/><circle cx="390.7" cy="232.0" r="3" fill="#4e79a7"/><circle cx="404.8" cy="227.1" r="3" fill="#4e79a7"/><circle cx="418.9" cy="222.3" r="3" fill="#4e79a7"/><circle cx="433.1" cy="227.1" r="3" fill="#4e79a7"/><circle cx="447.2" cy="227.1" r="3" fill="#4e79a7"/><circle cx="461.3" cy="222.3" r="3" fill="#4e79a7"/><circle cx="475.4" cy="227.1" r="3" fill="#4e79a7"/><circle cx="489.5" cy="232.0" r="3" fill="#4e79a7"/><circle cx="503.6" cy="232.0" r="3" fill="#4e79a7"/><circle cx="517.7" cy="227.1" r="3" fill="#4e79a7"/><circle cx="531.8" cy="232.0" r="3" fill="#4e79a7"/><circle cx="546.0" cy="232.0" r="3" fill="#4e79a7"/><circle cx="560.1" cy="232.0" r="3" fill="#4e79a7"/><circle cx="574.2" cy="232.0" r="3" fill="#4e79a7"/><circle cx="588.3" cy="173.7" r="3" fill="#4e79a7"/><circle cx="602.4" cy="178.6" r="3" fill="#4e79a7"/><circle cx="616.5" cy="232.0" r="3" fill="#4e79a7"/><circle cx="630.6" cy="227.1" r="3" fill="#4e79a7"/><circle cx="644.8" cy="232.0" r="3" fill="#4e79a7"/><circle cx="658.9" cy="232.0" r="3" fill="#4e79a7"/><circle cx="673.0" cy="232.0" r="3" fill="#4e79a7"/><circle cx="687.1" cy="232.0" r="3" fill="#4e79a7"/><circle cx="701.2" cy="232.0" r="3" fill="#4e79a7"/><circle cx="715.3" cy="227.1" r="3" fill="#4e79a7"/><circle cx="729.4" cy="232.0" r="3" fill="#4e79a7"/><circle cx="743.5" cy="232.0" r="3" fill="#4e79a7"/><circle cx="757.7" cy="232.0" r="3" fill="#4e79a7"/><circle cx="771.8" cy="232.0" r="3" fill="#4e79a7"/><circle cx="785.9" cy="232.0" r="3" fill="#4e79a7"/><circle cx="800.0" cy="232.0" r="3" fill="#4e79a7"/>
  <circle cx="52.0" cy="232.0" r="3" fill="#f28e2b"/><circle cx="66.1" cy="227.1" r="3" fill="#f28e2b"/><circle cx="80.2" cy="222.3" r="3" fill="#f28e2b"/><circle cx="94.3" cy="232.0" r="3" fill="#f28e2b"/><circle cx="108.5" cy="227.1" r="3" fill="#f28e2b"/><circle cx="122.6" cy="232.0" r="3" fill="#f28e2b"/><circle cx="136.7" cy="232.0" r="3" fill="#f28e2b"/><circle cx="150.8" cy="232.0" r="3" fill="#f28e2b"/><circle cx="164.9" cy="232.0" r="3" fill="#f28e2b"/><circle cx="179.0" cy="227.1" r="3" fill="#f28e2b"/><circle cx="193.1" cy="232.0" r="3" fill="#f28e2b"/><circle cx="207.2" cy="232.0" r="3" fill="#f28e2b"/><circle cx="221.4" cy="232.0" r="3" fill="#f28e2b"/><circle cx="235.5" cy="120.3" r="3" fill="#f28e2b"/><circle cx="249.6" cy="207.7" r="3" fill="#f28e2b"/><circle cx="263.7" cy="212.6" r="3" fill="#f28e2b"/><circle cx="277.8" cy="232.0" r="3" fill="#f28e2b"/><circle cx="291.9" cy="227.1" r="3" fill="#f28e2b"/><circle cx="306.0" cy="222.3" r="3" fill="#f28e2b"/><circle cx="320.2" cy="232.0" r="3" fill="#f28e2b"/><circle cx="334.3" cy="217.4" r="3" fill="#f28e2b"/><circle cx="348.4" cy="232.0" r="3" fill="#f28e2b"/><circle cx="362.5" cy="227.1" r="3" fill="#f28e2b"/><circle cx="376.6" cy="227.1" r="3" fill="#f28e2b"/><circle cx="390.7" cy="232.0" r="3" fill="#f28e2b"/><circle cx="404.8" cy="227.1" r="3" fill="#f28e2b"/><circle cx="418.9" cy="222.3" r="3" fill="#f28e2b"/><circle cx="433.1" cy="227.1" r="3" fill="#f28e2b"/><circle cx="447.2" cy="227.1" r="3" fill="#f28e2b"/><circle cx="461.3" cy="222.3" r="3" fill="#f28e2b"/><circle cx="475.4" cy="227.1" r="3" fill="#f28e2b"/><circle cx="489.5" cy="232.0" r="3" fill="#f28e2b"/><circle cx="503.6" cy="232.0" r="3" fill="#f28e2b"/><circle cx="517.7" cy="227.1" r="3" fill="#f28e2b"/><circle cx="531.8" cy="232.0" r="3" fill="#f28e2b"/><circle cx="546.0" cy="232.0" r="3" fill="#f28e2b"/><circle cx="560.1" cy="232.0" r="3" fill="#f28e2b"/><circle cx="574.2" cy="232.0" r="3" fill="#f28e2b"/><circle cx="588.3" cy="188.3" r="3" fill="#f28e2b"/><circle cx="602.4" cy="207.7" r="3" fill="#f28e2b"/><circle cx="616.5" cy="232.0" r="3" fill="#f28e2b"/><circle cx="630.6" cy="227.1" r="3" fill="#f28e2b"/><circle cx="644.8" cy="232.0" r="3" fill="#f28e2b"/><circle cx="658.9" cy="232.0" r="3" fill="#f28e2b"/><circle cx="673.0" cy="232.0" r="3" fill="#f28e2b"/><circle cx="687.1" cy="232.0" r="3" fill="#f28e2b"/><circle cx="701.2" cy="232.0" r="3" fill="#f28e2b"/><circle cx="715.3" cy="227.1" r="3" fill="#f28e2b"/><circle cx="729.4" cy="232.0" r="3" fill="#f28e2b"/><circle cx="743.5" cy="232.0" r="3" fill="#f28e2b"/><circle cx="757.7" cy="232.0" r="3" fill="#f28e2b"/><circle cx="771.8" cy="232.0" r="3" fill="#f28e2b"/><circle cx="785.9" cy="232.0" r="3" fill="#f28e2b"/><circle cx="800.0" cy="232.0" r="3" fill="#f28e2b"/>

  <!-- axes -->
  <line x1="52" y1="28" x2="52" y2="232"
        stroke="#cccccc" stroke-width="1"/>
  <line x1="52" y1="232" x2="800" y2="232"
        stroke="#cccccc" stroke-width="1"/>

  <!-- y-axis labels -->
  <text x="47" y="236.0" text-anchor="end" font-size="10" fill="#57606a" font-family="ui-monospace, SFMono-Regular, 'SF Mono', Menlo, monospace">0</text><text x="47" y="197.1" text-anchor="end" font-size="10" fill="#57606a" font-family="ui-monospace, SFMono-Regular, 'SF Mono', Menlo, monospace">8</text><text x="47" y="158.3" text-anchor="end" font-size="10" fill="#57606a" font-family="ui-monospace, SFMono-Regular, 'SF Mono', Menlo, monospace">16</text><text x="47" y="119.4" text-anchor="end" font-size="10" fill="#57606a" font-family="ui-monospace, SFMono-Regular, 'SF Mono', Menlo, monospace">24</text><text x="47" y="80.6" text-anchor="end" font-size="10" fill="#57606a" font-family="ui-monospace, SFMono-Regular, 'SF Mono', Menlo, monospace">32</text><text x="47" y="41.7" text-anchor="end" font-size="10" fill="#57606a" font-family="ui-monospace, SFMono-Regular, 'SF Mono', Menlo, monospace">40</text><text x="47" y="2.9" text-anchor="end" font-size="10" fill="#57606a" font-family="ui-monospace, SFMono-Regular, 'SF Mono', Menlo, monospace">48</text>

  <!-- x-axis labels -->
  <text x="52.0" y="248" text-anchor="middle" font-size="10" fill="#8c959f" font-family="ui-monospace, SFMono-Regular, 'SF Mono', Menlo, monospace">05-11</text><text x="560.1" y="248" text-anchor="middle" font-size="10" fill="#8c959f" font-family="ui-monospace, SFMono-Regular, 'SF Mono', Menlo, monospace">06-16</text><text x="136.7" y="248" text-anchor="middle" font-size="10" fill="#8c959f" font-family="ui-monospace, SFMono-Regular, 'SF Mono', Menlo, monospace">05-17</text><text x="644.8" y="248" text-anchor="middle" font-size="10" fill="#8c959f" font-family="ui-monospace, SFMono-Regular, 'SF Mono', Menlo, monospace">06-22</text><text x="221.4" y="248" text-anchor="middle" font-size="10" fill="#8c959f" font-family="ui-monospace, SFMono-Regular, 'SF Mono', Menlo, monospace">05-23</text><text x="729.4" y="248" text-anchor="middle" font-size="10" fill="#8c959f" font-family="ui-monospace, SFMono-Regular, 'SF Mono', Menlo, monospace">06-28</text><text x="306.0" y="248" text-anchor="middle" font-size="10" fill="#8c959f" font-family="ui-monospace, SFMono-Regular, 'SF Mono', Menlo, monospace">05-29</text><text x="800.0" y="248" text-anchor="middle" font-size="10" fill="#8c959f" font-family="ui-monospace, SFMono-Regular, 'SF Mono', Menlo, monospace">07-03</text><text x="390.7" y="248" text-anchor="middle" font-size="10" fill="#8c959f" font-family="ui-monospace, SFMono-Regular, 'SF Mono', Menlo, monospace">06-04</text><text x="475.4" y="248" text-anchor="middle" font-size="10" fill="#8c959f" font-family="ui-monospace, SFMono-Regular, 'SF Mono', Menlo, monospace">06-10</text>

  <!-- legend -->
  <rect x="60" y="262" width="16" height="3" fill="#4e79a7" rx="1"/><text x="80" y="268" font-size="11" fill="#57606a" font-family="-apple-system, BlinkMacSystemFont, 'Segoe UI', sans-serif">Total clones (110)</text><line x1="230" y1="264" x2="246" y2="264" stroke="#f28e2b" stroke-width="2" stroke-dasharray="5,3"/><text x="250" y="268" font-size="11" fill="#57606a" font-family="-apple-system, BlinkMacSystemFont, 'Segoe UI', sans-serif">Unique cloners</text>

</svg>