<svg xmlns="http://www.w3.org/2000/svg" viewBox="0 0 820 280" width="820" height="280">

  <!-- title -->
  <text x="52" y="18" font-size="13" font-weight="600"
        fill="#24292f" font-family="-apple-system, BlinkMacSystemFont, 'Segoe UI', sans-serif"
        >Clone traffic — bt-takeover</text>
  <text x="800" y="18" font-size="10" fill="#8c959f"
        font-family="ui-monospace, SFMono-Regular, 'SF Mono', Menlo, monospace" text-anchor="end">2026-06-20</text>

  <!-- grid -->
  <line x1="52" y1="232.0" x2="800" y2="232.0" stroke="#e8e8e8" stroke-width="1"/><line x1="52" y1="193.1" x2="800" y2="193.1" stroke="#e8e8e8" stroke-width="1"/><line x1="52" y1="154.3" x2="800" y2="154.3" stroke="#e8e8e8" stroke-width="1"/><line x1="52" y1="115.4" x2="800" y2="115.4" stroke="#e8e8e8" stroke-width="1"/><line x1="52" y1="76.6" x2="800" y2="76.6" stroke="#e8e8e8" stroke-width="1"/><line x1="52" y1="37.7" x2="800" y2="37.7" stroke="#e8e8e8" stroke-width="1"/><line x1="52" y1="-1.1" x2="800" y2="-1.1" stroke="#e8e8e8" stroke-width="1"/>

  <!-- area fill -->
  <path d="M52.0,232.0 L52.0,232.0 L71.7,227.1 L91.4,222.3 L111.1,232.0 L130.7,227.1 L150.4,232.0 L170.1,232.0 L189.8,232.0 L209.5,232.0 L229.2,227.1 L248.8,232.0 L268.5,232.0 L288.2,232.0 L307.9,28.0 L327.6,207.7 L347.3,159.1 L366.9,232.0 L386.6,227.1 L406.3,222.3 L426.0,232.0 L445.7,212.6 L465.4,232.0 L485.1,227.1 L504.7,227.1 L524.4,232.0 L544.1,227.1 L563.8,222.3 L583.5,227.1 L603.2,227.1 L622.8,222.3 L642.5,227.1 L662.2,232.0 L681.9,232.0 L701.6,227.1 L721.3,232.0 L740.9,232.0 L760.6,232.0 L780.3,232.0 L800.0,173.7 L800.0,232.0 L52.0,232.0Z" fill="#4e79a7" opacity="0.12"/>

  <!-- lines -->
  <polyline points="52.0,232.0 71.7,227.1 91.4,222.3 111.1,232.0 130.7,227.1 150.4,232.0 170.1,232.0 189.8,232.0 209.5,232.0 229.2,227.1 248.8,232.0 268.5,232.0 288.2,232.0 307.9,28.0 327.6,207.7 347.3,159.1 366.9,232.0 386.6,227.1 406.3,222.3 426.0,232.0 445.7,212.6 465.4,232.0 485.1,227.1 504.7,227.1 524.4,232.0 544.1,227.1 563.8,222.3 583.5,227.1 603.2,227.1 622.8,222.3 642.5,227.1 662.2,232.0 681.9,232.0 701.6,227.1 721.3,232.0 740.9,232.0 760.6,232.0 780.3,232.0 800.0,173.7"
            fill="none" stroke="#4e79a7"
            stroke-width="2" stroke-linejoin="round"/>
  <polyline points="52.0,232.0 71.7,227.1 91.4,222.3 111.1,232.0 130.7,227.1 150.4,232.0 170.1,232.0 189.8,232.0 209.5,232.0 229.2,227.1 248.8,232.0 268.5,232.0 288.2,232.0 307.9,120.3 327.6,207.7 347.3,212.6 366.9,232.0 386.6,227.1 406.3,222.3 426.0,232.0 445.7,217.4 465.4,232.0 485.1,227.1 504.7,227.1 524.4,232.0 544.1,227.1 563.8,222.3 583.5,227.1 603.2,227.1 622.8,222.3 642.5,227.1 662.2,232.0 681.9,232.0 701.6,227.1 721.3,232.0 740.9,232.0 760.6,232.0 780.3,232.0 800.0,188.3"
            fill="none" stroke="#f28e2b"
            stroke-width="2" stroke-linejoin="round"
            stroke-dasharray="5,3"/>

  <!-- dots -->
  <circle cx="52.0" cy="232.0" r="3" fill="#4e79a7"/><circle cx="71.7" cy="227.1" r="3" fill="#4e79a7"/><circle cx="91.4" cy="222.3" r="3" fill="#4e79a7"/><circle cx="111.1" cy="232.0" r="3" fill="#4e79a7"/><circle cx="130.7" cy="227.1" r="3" fill="#4e79a7"/><circle cx="150.4" cy="232.0" r="3" fill="#4e79a7"/><circle cx="170.1" cy="232.0" r="3" fill="#4e79a7"/><circle cx="189.8" cy="232.0" r="3" fill="#4e79a7"/><circle cx="209.5" cy="232.0" r="3" fill="#4e79a7"/><circle cx="229.2" cy="227.1" r="3" fill="#4e79a7"/><circle cx="248.8" cy="232.0" r="3" fill="#4e79a7"/><circle cx="268.5" cy="232.0" r="3" fill="#4e79a7"/><circle cx="288.2" cy="232.0" r="3" fill="#4e79a7"/><circle cx="307.9" cy="28.0" r="3" fill="#4e79a7"/><circle cx="327.6" cy="207.7" r="3" fill="#4e79a7"/><circle cx="347.3" cy="159.1" r="3" fill="#4e79a7"/><circle cx="366.9" cy="232.0" r="3" fill="#4e79a7"/><circle cx="386.6" cy="227.1" r="3" fill="#4e79a7"/><circle cx="406.3" cy="222.3" r="3" fill="#4e79a7"/><circle cx="426.0" cy="232.0" r="3" fill="#4e79a7"/><circle cx="445.7" cy="212.6" r="3" fill="#4e79a7"/><circle cx="465.4" cy="232.0" r="3" fill="#4e79a7"/><circle cx="485.1" cy="227.1" r="3" fill="#4e79a7"/><circle cx="504.7" cy="227.1" r="3" fill="#4e79a7"/><circle cx="524.4" cy="232.0" r="3" fill="#4e79a7"/><circle cx="544.1" cy="227.1" r="3" fill="#4e79a7"/><circle cx="563.8" cy="222.3" r="3" fill="#4e79a7"/><circle cx="583.5" cy="227.1" r="3" fill="#4e79a7"/><circle cx="603.2" cy="227.1" r="3" fill="#4e79a7"/><circle cx="622.8" cy="222.3" r="3" fill="#4e79a7"/><circle cx="642.5" cy="227.1" r="3" fill="#4e79a7"/><circle cx="662.2" cy="232.0" r="3" fill="#4e79a7"/><circle cx="681.9" cy="232.0" r="3" fill="#4e79a7"/><circle cx="701.6" cy="227.1" r="3" fill="#4e79a7"/><circle cx="721.3" cy="232.0" r="3" fill="#4e79a7"/><circle cx="740.9" cy="232.0" r="3" fill="#4e79a7"/><circle cx="760.6" cy="232.0" r="3" fill="#4e79a7"/><circle cx="780.3" cy="232.0" r="3" fill="#4e79a7"/><circle cx="800.0" cy="173.7" r="3" fill="#4e79a7"/>
  <circle cx="52.0" cy="232.0" r="3" fill="#f28e2b"/><circle cx="71.7" cy="227.1" r="3" fill="#f28e2b"/><circle cx="91.4" cy="222.3" r="3" fill="#f28e2b"/><circle cx="111.1" cy="232.0" r="3" fill="#f28e2b"/><circle cx="130.7" cy="227.1" r="3" fill="#f28e2b"/><circle cx="150.4" cy="232.0" r="3" fill="#f28e2b"/><circle cx="170.1" cy="232.0" r="3" fill="#f28e2b"/><circle cx="189.8" cy="232.0" r="3" fill="#f28e2b"/><circle cx="209.5" cy="232.0" r="3" fill="#f28e2b"/><circle cx="229.2" cy="227.1" r="3" fill="#f28e2b"/><circle cx="248.8" cy="232.0" r="3" fill="#f28e2b"/><circle cx="268.5" cy="232.0" r="3" fill="#f28e2b"/><circle cx="288.2" cy="232.0" r="3" fill="#f28e2b"/><circle cx="307.9" cy="120.3" r="3" fill="#f28e2b"/><circle cx="327.6" cy="207.7" r="3" fill="#f28e2b"/><circle cx="347.3" cy="212.6" r="3" fill="#f28e2b"/><circle cx="366.9" cy="232.0" r="3" fill="#f28e2b"/><circle cx="386.6" cy="227.1" r="3" fill="#f28e2b"/><circle cx="406.3" cy="222.3" r="3" fill="#f28e2b"/><circle cx="426.0" cy="232.0" r="3" fill="#f28e2b"/><circle cx="445.7" cy="217.4" r="3" fill="#f28e2b"/><circle cx="465.4" cy="232.0" r="3" fill="#f28e2b"/><circle cx="485.1" cy="227.1" r="3" fill="#f28e2b"/><circle cx="504.7" cy="227.1" r="3" fill="#f28e2b"/><circle cx="524.4" cy="232.0" r="3" fill="#f28e2b"/><circle cx="544.1" cy="227.1" r="3" fill="#f28e2b"/><circle cx="563.8" cy="222.3" r="3" fill="#f28e2b"/><circle cx="583.5" cy="227.1" r="3" fill="#f28e2b"/><circle cx="603.2" cy="227.1" r="3" fill="#f28e2b"/><circle cx="622.8" cy="222.3" r="3" fill="#f28e2b"/><circle cx="642.5" cy="227.1" r="3" fill="#f28e2b"/><circle cx="662.2" cy="232.0" r="3" fill="#f28e2b"/><circle cx="681.9" cy="232.0" r="3" fill="#f28e2b"/><circle cx="701.6" cy="227.1" r="3" fill="#f28e2b"/><circle cx="721.3" cy="232.0" r="3" fill="#f28e2b"/><circle cx="740.9" cy="232.0" r="3" fill="#f28e2b"/><circle cx="760.6" cy="232.0" r="3" fill="#f28e2b"/><circle cx="780.3" cy="232.0" r="3" fill="#f28e2b"/><circle cx="800.0" cy="188.3" r="3" fill="#f28e2b"/>

  <!-- axes -->
  <line x1="52" y1="28" x2="52" y2="232"
        stroke="#cccccc" stroke-width="1"/>
  <line x1="52" y1="232" x2="800" y2="232"
        stroke="#cccccc" stroke-width="1"/>

  <!-- y-axis labels -->
  <text x="47" y="236.0" text-anchor="end" font-size="10" fill="#57606a" font-family="ui-monospace, SFMono-Regular, 'SF Mono', Menlo, monospace">0</text><text x="47" y="197.1" text-anchor="end" font-size="10" fill="#57606a" font-family="ui-monospace, SFMono-Regular, 'SF Mono', Menlo, monospace">8</text><text x="47" y="158.3" text-anchor="end" font-size="10" fill="#57606a" font-family="ui-monospace, SFMono-Regular, 'SF Mono', Menlo, monospace">16</text><text x="47" y="119.4" text-anchor="end" font-size="10" fill="#57606a" font-family="ui-monospace, SFMono-Regular, 'SF Mono', Menlo, monospace">24</text><text x="47" y="80.6" text-anchor="end" font-size="10" fill="#57606a" font-family="ui-monospace, SFMono-Regular, 'SF Mono', Menlo, monospace">32</text><text x="47" y="41.7" text-anchor="end" font-size="10" fill="#57606a" font-family="ui-monospace, SFMono-Regular, 'SF Mono', Menlo, monospace">40</text><text x="47" y="2.9" text-anchor="end" font-size="10" fill="#57606a" font-family="ui-monospace, SFMono-Regular, 'SF Mono', Menlo, monospace">48</text>

  <!-- x-axis labels -->
  <text x="52.0" y="248" text-anchor="middle" font-size="10" fill="#8c959f" font-family="ui-monospace, SFMono-Regular, 'SF Mono', Menlo, monospace">05-11</text><text x="681.9" y="248" text-anchor="middle" font-size="10" fill="#8c959f" font-family="ui-monospace, SFMono-Regular, 'SF Mono', Menlo, monospace">06-12</text><text x="130.7" y="248" text-anchor="middle" font-size="10" fill="#8c959f" font-family="ui-monospace, SFMono-Regular, 'SF Mono', Menlo, monospace">05-15</text><text x="760.6" y="248" text-anchor="middle" font-size="10" fill="#8c959f" font-family="ui-monospace, SFMono-Regular, 'SF Mono', Menlo, monospace">06-16</text><text x="800.0" y="248" text-anchor="middle" font-size="10" fill="#8c959f" font-family="ui-monospace, SFMono-Regular, 'SF Mono', Menlo, monospace">06-18</text><text x="209.5" y="248" text-anchor="middle" font-size="10" fill="#8c959f" font-family="ui-monospace, SFMono-Regular, 'SF Mono', Menlo, monospace">05-19</text><text x="288.2" y="248" text-anchor="middle" font-size="10" fill="#8c959f" font-family="ui-monospace, SFMono-Regular, 'SF Mono', Menlo, monospace">05-23</text><text x="366.9" y="248" text-anchor="middle" font-size="10" fill="#8c959f" font-family="ui-monospace, SFMono-Regular, 'SF Mono', Menlo, monospace">05-27</text><text x="445.7" y="248" text-anchor="middle" font-size="10" fill="#8c959f" font-family="ui-monospace, SFMono-Regular, 'SF Mono', Menlo, monospace">05-31</text><text x="524.4" y="248" text-anchor="middle" font-size="10" fill="#8c959f" font-family="ui-monospace, SFMono-Regular, 'SF Mono', Menlo, monospace">06-04</text><text x="603.2" y="248" text-anchor="middle" font-size="10" fill="#8c959f" font-family="ui-monospace, SFMono-Regular, 'SF Mono', Menlo, monospace">06-08</text>

  <!-- legend -->
  <rect x="60" y="262" width="16" height="3" fill="#4e79a7" rx="1"/><text x="80" y="268" font-size="11" fill="#57606a" font-family="-apple-system, BlinkMacSystemFont, 'Segoe UI', sans-serif">Total clones (97)</text><line x1="230" y1="264" x2="246" y2="264" stroke="#f28e2b" stroke-width="2" stroke-dasharray="5,3"/><text x="250" y="268" font-size="11" fill="#57606a" font-family="-apple-system, BlinkMacSystemFont, 'Segoe UI', sans-serif">Unique cloners</text>

</svg>