<svg xmlns="http://www.w3.org/2000/svg" viewBox="0 0 820 280" width="820" height="280">

  <!-- title -->
  <text x="52" y="18" font-size="13" font-weight="600"
        fill="#24292f" font-family="-apple-system, BlinkMacSystemFont, 'Segoe UI', sans-serif"
        >Clone traffic — bt-takeover</text>
  <text x="800" y="18" font-size="10" fill="#8c959f"
        font-family="ui-monospace, SFMono-Regular, 'SF Mono', Menlo, monospace" text-anchor="end">2026-05-29</text>

  <!-- grid -->
  <line x1="52" y1="232.0" x2="800" y2="232.0" stroke="#e8e8e8" stroke-width="1"/><line x1="52" y1="193.1" x2="800" y2="193.1" stroke="#e8e8e8" stroke-width="1"/><line x1="52" y1="154.3" x2="800" y2="154.3" stroke="#e8e8e8" stroke-width="1"/><line x1="52" y1="115.4" x2="800" y2="115.4" stroke="#e8e8e8" stroke-width="1"/><line x1="52" y1="76.6" x2="800" y2="76.6" stroke="#e8e8e8" stroke-width="1"/><line x1="52" y1="37.7" x2="800" y2="37.7" stroke="#e8e8e8" stroke-width="1"/><line x1="52" y1="-1.1" x2="800" y2="-1.1" stroke="#e8e8e8" stroke-width="1"/>

  <!-- area fill -->
  <path d="M52.0,232.0 L52.0,232.0 L98.8,227.1 L145.5,222.3 L192.2,232.0 L239.0,227.1 L285.8,232.0 L332.5,232.0 L379.2,232.0 L426.0,232.0 L472.8,227.1 L519.5,232.0 L566.2,232.0 L613.0,232.0 L659.8,28.0 L706.5,207.7 L753.2,159.1 L800.0,232.0 L800.0,232.0 L52.0,232.0Z" fill="#4e79a7" opacity="0.12"/>

  <!-- lines -->
  <polyline points="52.0,232.0 98.8,227.1 145.5,222.3 192.2,232.0 239.0,227.1 285.8,232.0 332.5,232.0 379.2,232.0 426.0,232.0 472.8,227.1 519.5,232.0 566.2,232.0 613.0,232.0 659.8,28.0 706.5,207.7 753.2,159.1 800.0,232.0"
            fill="none" stroke="#4e79a7"
            stroke-width="2" stroke-linejoin="round"/>
  <polyline points="52.0,232.0 98.8,227.1 145.5,222.3 192.2,232.0 239.0,227.1 285.8,232.0 332.5,232.0 379.2,232.0 426.0,232.0 472.8,227.1 519.5,232.0 566.2,232.0 613.0,232.0 659.8,120.3 706.5,207.7 753.2,212.6 800.0,232.0"
            fill="none" stroke="#f28e2b"
            stroke-width="2" stroke-linejoin="round"
            stroke-dasharray="5,3"/>

  <!-- dots -->
  <circle cx="52.0" cy="232.0" r="3" fill="#4e79a7"/><circle cx="98.8" cy="227.1" r="3" fill="#4e79a7"/><circle cx="145.5" cy="222.3" r="3" fill="#4e79a7"/><circle cx="192.2" cy="232.0" r="3" fill="#4e79a7"/><circle cx="239.0" cy="227.1" r="3" fill="#4e79a7"/><circle cx="285.8" cy="232.0" r="3" fill="#4e79a7"/><circle cx="332.5" cy="232.0" r="3" fill="#4e79a7"/><circle cx="379.2" cy="232.0" r="3" fill="#4e79a7"/><circle cx="426.0" cy="232.0" r="3" fill="#4e79a7"/><circle cx="472.8" cy="227.1" r="3" fill="#4e79a7"/><circle cx="519.5" cy="232.0" r="3" fill="#4e79a7"/><circle cx="566.2" cy="232.0" r="3" fill="#4e79a7"/><circle cx="613.0" cy="232.0" r="3" fill="#4e79a7"/><circle cx="659.8" cy="28.0" r="3" fill="#4e79a7"/><circle cx="706.5" cy="207.7" r="3" fill="#4e79a7"/><circle cx="753.2" cy="159.1" r="3" fill="#4e79a7"/><circle cx="800.0" cy="232.0" r="3" fill="#4e79a7"/>
  <circle cx="52.0" cy="232.0" r="3" fill="#f28e2b"/><circle cx="98.8" cy="227.1" r="3" fill="#f28e2b"/><circle cx="145.5" cy="222.3" r="3" fill="#f28e2b"/><circle cx="192.2" cy="232.0" r="3" fill="#f28e2b"/><circle cx="239.0" cy="227.1" r="3" fill="#f28e2b"/><circle cx="285.8" cy="232.0" r="3" fill="#f28e2b"/><circle cx="332.5" cy="232.0" r="3" fill="#f28e2b"/><circle cx="379.2" cy="232.0" r="3" fill="#f28e2b"/><circle cx="426.0" cy="232.0" r="3" fill="#f28e2b"/><circle cx="472.8" cy="227.1" r="3" fill="#f28e2b"/><circle cx="519.5" cy="232.0" r="3" fill="#f28e2b"/><circle cx="566.2" cy="232.0" r="3" fill="#f28e2b"/><circle cx="613.0" cy="232.0" r="3" fill="#f28e2b"/><circle cx="659.8" cy="120.3" r="3" fill="#f28e2b"/><circle cx="706.5" cy="207.7" r="3" fill="#f28e2b"/><circle cx="753.2" cy="212.6" r="3" fill="#f28e2b"/><circle cx="800.0" cy="232.0" r="3" fill="#f28e2b"/>

  <!-- axes -->
  <line x1="52" y1="28" x2="52" y2="232"
        stroke="#cccccc" stroke-width="1"/>
  <line x1="52" y1="232" x2="800" y2="232"
        stroke="#cccccc" stroke-width="1"/>

  <!-- y-axis labels -->
  <text x="47" y="236.0" text-anchor="end" font-size="10" fill="#57606a" font-family="ui-monospace, SFMono-Regular, 'SF Mono', Menlo, monospace">0</text><text x="47" y="197.1" text-anchor="end" font-size="10" fill="#57606a" font-family="ui-monospace, SFMono-Regular, 'SF Mono', Menlo, monospace">8</text><text x="47" y="158.3" text-anchor="end" font-size="10" fill="#57606a" font-family="ui-monospace, SFMono-Regular, 'SF Mono', Menlo, monospace">16</text><text x="47" y="119.4" text-anchor="end" font-size="10" fill="#57606a" font-family="ui-monospace, SFMono-Regular, 'SF Mono', Menlo, monospace">24</text><text x="47" y="80.6" text-anchor="end" font-size="10" fill="#57606a" font-family="ui-monospace, SFMono-Regular, 'SF Mono', Menlo, monospace">32</text><text x="47" y="41.7" text-anchor="end" font-size="10" fill="#57606a" font-family="ui-monospace, SFMono-Regular, 'SF Mono', Menlo, monospace">40</text><text x="47" y="2.9" text-anchor="end" font-size="10" fill="#57606a" font-family="ui-monospace, SFMono-Regular, 'SF Mono', Menlo, monospace">48</text>

  <!-- x-axis labels -->
  <text x="52.0" y="248" text-anchor="middle" font-size="10" fill="#8c959f" font-family="ui-monospace, SFMono-Regular, 'SF Mono', Menlo, monospace">05-11</text><text x="145.5" y="248" text-anchor="middle" font-size="10" fill="#8c959f" font-family="ui-monospace, SFMono-Regular, 'SF Mono', Menlo, monospace">05-13</text><text x="239.0" y="248" text-anchor="middle" font-size="10" fill="#8c959f" font-family="ui-monospace, SFMono-Regular, 'SF Mono', Menlo, monospace">05-15</text><text x="332.5" y="248" text-anchor="middle" font-size="10" fill="#8c959f" font-family="ui-monospace, SFMono-Regular, 'SF Mono', Menlo, monospace">05-17</text><text x="426.0" y="248" text-anchor="middle" font-size="10" fill="#8c959f" font-family="ui-monospace, SFMono-Regular, 'SF Mono', Menlo, monospace">05-19</text><text x="519.5" y="248" text-anchor="middle" font-size="10" fill="#8c959f" font-family="ui-monospace, SFMono-Regular, 'SF Mono', Menlo, monospace">05-21</text><text x="613.0" y="248" text-anchor="middle" font-size="10" fill="#8c959f" font-family="ui-monospace, SFMono-Regular, 'SF Mono', Menlo, monospace">05-23</text><text x="706.5" y="248" text-anchor="middle" font-size="10" fill="#8c959f" font-family="ui-monospace, SFMono-Regular, 'SF Mono', Menlo, monospace">05-25</text><text x="800.0" y="248" text-anchor="middle" font-size="10" fill="#8c959f" font-family="ui-monospace, SFMono-Regular, 'SF Mono', Menlo, monospace">05-27</text>

  <!-- legend -->
  <rect x="60" y="262" width="16" height="3" fill="#4e79a7" rx="1"/><text x="80" y="268" font-size="11" fill="#57606a" font-family="-apple-system, BlinkMacSystemFont, 'Segoe UI', sans-serif">Total clones (67)</text><line x1="230" y1="264" x2="246" y2="264" stroke="#f28e2b" stroke-width="2" stroke-dasharray="5,3"/><text x="250" y="268" font-size="11" fill="#57606a" font-family="-apple-system, BlinkMacSystemFont, 'Segoe UI', sans-serif">Unique cloners</text>

</svg>