<svg xmlns="http://www.w3.org/2000/svg" viewBox="0 0 820 280" width="820" height="280">

  <!-- title -->
  <text x="52" y="18" font-size="13" font-weight="600"
        fill="#24292f" font-family="-apple-system, BlinkMacSystemFont, 'Segoe UI', sans-serif"
        >Clone traffic — bt-takeover</text>
  <text x="800" y="18" font-size="10" fill="#8c959f"
        font-family="ui-monospace, SFMono-Regular, 'SF Mono', Menlo, monospace" text-anchor="end">2026-07-14</text>

  <!-- grid -->
  <line x1="52" y1="232.0" x2="800" y2="232.0" stroke="#e8e8e8" stroke-width="1"/><line x1="52" y1="193.1" x2="800" y2="193.1" stroke="#e8e8e8" stroke-width="1"/><line x1="52" y1="154.3" x2="800" y2="154.3" stroke="#e8e8e8" stroke-width="1"/><line x1="52" y1="115.4" x2="800" y2="115.4" stroke="#e8e8e8" stroke-width="1"/><line x1="52" y1="76.6" x2="800" y2="76.6" stroke="#e8e8e8" stroke-width="1"/><line x1="52" y1="37.7" x2="800" y2="37.7" stroke="#e8e8e8" stroke-width="1"/><line x1="52" y1="-1.1" x2="800" y2="-1.1" stroke="#e8e8e8" stroke-width="1"/>

  <!-- area fill -->
  <path d="M52.0,232.0 L52.0,232.0 L64.1,227.1 L76.1,222.3 L88.2,232.0 L100.3,227.1 L112.3,232.0 L124.4,232.0 L136.5,232.0 L148.5,232.0 L160.6,227.1 L172.6,232.0 L184.7,232.0 L196.8,232.0 L208.8,28.0 L220.9,207.7 L233.0,159.1 L245.0,232.0 L257.1,227.1 L269.2,222.3 L281.2,232.0 L293.3,212.6 L305.4,232.0 L317.4,227.1 L329.5,227.1 L341.5,232.0 L353.6,227.1 L365.7,222.3 L377.7,227.1 L389.8,227.1 L401.9,222.3 L413.9,227.1 L426.0,232.0 L438.1,232.0 L450.1,227.1 L462.2,232.0 L474.3,232.0 L486.3,232.0 L498.4,232.0 L510.5,173.7 L522.5,178.6 L534.6,232.0 L546.6,227.1 L558.7,232.0 L570.8,232.0 L582.8,232.0 L594.9,232.0 L607.0,232.0 L619.0,227.1 L631.1,232.0 L643.2,232.0 L655.2,232.0 L667.3,232.0 L679.4,232.0 L691.4,232.0 L703.5,227.1 L715.5,193.1 L727.6,232.0 L739.7,232.0 L751.7,232.0 L763.8,227.1 L775.9,232.0 L787.9,227.1 L800.0,232.0 L800.0,232.0 L52.0,232.0Z" fill="#4e79a7" opacity="0.12"/>

  <!-- lines -->
  <polyline points="52.0,232.0 64.1,227.1 76.1,222.3 88.2,232.0 100.3,227.1 112.3,232.0 124.4,232.0 136.5,232.0 148.5,232.0 160.6,227.1 172.6,232.0 184.7,232.0 196.8,232.0 208.8,28.0 220.9,207.7 233.0,159.1 245.0,232.0 257.1,227.1 269.2,222.3 281.2,232.0 293.3,212.6 305.4,232.0 317.4,227.1 329.5,227.1 341.5,232.0 353.6,227.1 365.7,222.3 377.7,227.1 389.8,227.1 401.9,222.3 413.9,227.1 426.0,232.0 438.1,232.0 450.1,227.1 462.2,232.0 474.3,232.0 486.3,232.0 498.4,232.0 510.5,173.7 522.5,178.6 534.6,232.0 546.6,227.1 558.7,232.0 570.8,232.0 582.8,232.0 594.9,232.0 607.0,232.0 619.0,227.1 631.1,232.0 643.2,232.0 655.2,232.0 667.3,232.0 679.4,232.0 691.4,232.0 703.5,227.1 715.5,193.1 727.6,232.0 739.7,232.0 751.7,232.0 763.8,227.1 775.9,232.0 787.9,227.1 800.0,232.0"
            fill="none" stroke="#4e79a7"
            stroke-width="2" stroke-linejoin="round"/>
  <polyline points="52.0,232.0 64.1,227.1 76.1,222.3 88.2,232.0 100.3,227.1 112.3,232.0 124.4,232.0 136.5,232.0 148.5,232.0 160.6,227.1 172.6,232.0 184.7,232.0 196.8,232.0 208.8,120.3 220.9,207.7 233.0,212.6 245.0,232.0 257.1,227.1 269.2,222.3 281.2,232.0 293.3,217.4 305.4,232.0 317.4,227.1 329.5,227.1 341.5,232.0 353.6,227.1 365.7,222.3 377.7,227.1 389.8,227.1 401.9,222.3 413.9,227.1 426.0,232.0 438.1,232.0 450.1,227.1 462.2,232.0 474.3,232.0 486.3,232.0 498.4,232.0 510.5,188.3 522.5,207.7 534.6,232.0 546.6,227.1 558.7,232.0 570.8,232.0 582.8,232.0 594.9,232.0 607.0,232.0 619.0,227.1 631.1,232.0 643.2,232.0 655.2,232.0 667.3,232.0 679.4,232.0 691.4,232.0 703.5,227.1 715.5,198.0 727.6,232.0 739.7,232.0 751.7,232.0 763.8,227.1 775.9,232.0 787.9,227.1 800.0,232.0"
            fill="none" stroke="#f28e2b"
            stroke-width="2" stroke-linejoin="round"
            stroke-dasharray="5,3"/>

  <!-- dots -->
  <circle cx="52.0" cy="232.0" r="3" fill="#4e79a7"/><circle cx="64.1" cy="227.1" r="3" fill="#4e79a7"/><circle cx="76.1" cy="222.3" r="3" fill="#4e79a7"/><circle cx="88.2" cy="232.0" r="3" fill="#4e79a7"/><circle cx="100.3" cy="227.1" r="3" fill="#4e79a7"/><circle cx="112.3" cy="232.0" r="3" fill="#4e79a7"/><circle cx="124.4" cy="232.0" r="3" fill="#4e79a7"/><circle cx="136.5" cy="232.0" r="3" fill="#4e79a7"/><circle cx="148.5" cy="232.0" r="3" fill="#4e79a7"/><circle cx="160.6" cy="227.1" r="3" fill="#4e79a7"/><circle cx="172.6" cy="232.0" r="3" fill="#4e79a7"/><circle cx="184.7" cy="232.0" r="3" fill="#4e79a7"/><circle cx="196.8" cy="232.0" r="3" fill="#4e79a7"/><circle cx="208.8" cy="28.0" r="3" fill="#4e79a7"/><circle cx="220.9" cy="207.7" r="3" fill="#4e79a7"/><circle cx="233.0" cy="159.1" r="3" fill="#4e79a7"/><circle cx="245.0" cy="232.0" r="3" fill="#4e79a7"/><circle cx="257.1" cy="227.1" r="3" fill="#4e79a7"/><circle cx="269.2" cy="222.3" r="3" fill="#4e79a7"/><circle cx="281.2" cy="232.0" r="3" fill="#4e79a7"/><circle cx="293.3" cy="212.6" r="3" fill="#4e79a7"/><circle cx="305.4" cy="232.0" r="3" fill="#4e79a7"/><circle cx="317.4" cy="227.1" r="3" fill="#4e79a7"/><circle cx="329.5" cy="227.1" r="3" fill="#4e79a7"/><circle cx="341.5" cy="232.0" r="3" fill="#4e79a7"/><circle cx="353.6" cy="227.1" r="3" fill="#4e79a7"/><circle cx="365.7" cy="222.3" r="3" fill="#4e79a7"/><circle cx="377.7" cy="227.1" r="3" fill="#4e79a7"/><circle cx="389.8" cy="227.1" r="3" fill="#4e79a7"/><circle cx="401.9" cy="222.3" r="3" fill="#4e79a7"/><circle cx="413.9" cy="227.1" r="3" fill="#4e79a7"/><circle cx="426.0" cy="232.0" r="3" fill="#4e79a7"/><circle cx="438.1" cy="232.0" r="3" fill="#4e79a7"/><circle cx="450.1" cy="227.1" r="3" fill="#4e79a7"/><circle cx="462.2" cy="232.0" r="3" fill="#4e79a7"/><circle cx="474.3" cy="232.0" r="3" fill="#4e79a7"/><circle cx="486.3" cy="232.0" r="3" fill="#4e79a7"/><circle cx="498.4" cy="232.0" r="3" fill="#4e79a7"/><circle cx="510.5" cy="173.7" r="3" fill="#4e79a7"/><circle cx="522.5" cy="178.6" r="3" fill="#4e79a7"/><circle cx="534.6" cy="232.0" r="3" fill="#4e79a7"/><circle cx="546.6" cy="227.1" r="3" fill="#4e79a7"/><circle cx="558.7" cy="232.0" r="3" fill="#4e79a7"/><circle cx="570.8" cy="232.0" r="3" fill="#4e79a7"/><circle cx="582.8" cy="232.0" r="3" fill="#4e79a7"/><circle cx="594.9" cy="232.0" r="3" fill="#4e79a7"/><circle cx="607.0" cy="232.0" r="3" fill="#4e79a7"/><circle cx="619.0" cy="227.1" r="3" fill="#4e79a7"/><circle cx="631.1" cy="232.0" r="3" fill="#4e79a7"/><circle cx="643.2" cy="232.0" r="3" fill="#4e79a7"/><circle cx="655.2" cy="232.0" r="3" fill="#4e79a7"/><circle cx="667.3" cy="232.0" r="3" fill="#4e79a7"/><circle cx="679.4" cy="232.0" r="3" fill="#4e79a7"/><circle cx="691.4" cy="232.0" r="3" fill="#4e79a7"/><circle cx="703.5" cy="227.1" r="3" fill="#4e79a7"/><circle cx="715.5" cy="193.1" r="3" fill="#4e79a7"/><circle cx="727.6" cy="232.0" r="3" fill="#4e79a7"/><circle cx="739.7" cy="232.0" r="3" fill="#4e79a7"/><circle cx="751.7" cy="232.0" r="3" fill="#4e79a7"/><circle cx="763.8" cy="227.1" r="3" fill="#4e79a7"/><circle cx="775.9" cy="232.0" r="3" fill="#4e79a7"/><circle cx="787.9" cy="227.1" r="3" fill="#4e79a7"/><circle cx="800.0" cy="232.0" r="3" fill="#4e79a7"/>
  <circle cx="52.0" cy="232.0" r="3" fill="#f28e2b"/><circle cx="64.1" cy="227.1" r="3" fill="#f28e2b"/><circle cx="76.1" cy="222.3" r="3" fill="#f28e2b"/><circle cx="88.2" cy="232.0" r="3" fill="#f28e2b"/><circle cx="100.3" cy="227.1" r="3" fill="#f28e2b"/><circle cx="112.3" cy="232.0" r="3" fill="#f28e2b"/><circle cx="124.4" cy="232.0" r="3" fill="#f28e2b"/><circle cx="136.5" cy="232.0" r="3" fill="#f28e2b"/><circle cx="148.5" cy="232.0" r="3" fill="#f28e2b"/><circle cx="160.6" cy="227.1" r="3" fill="#f28e2b"/><circle cx="172.6" cy="232.0" r="3" fill="#f28e2b"/><circle cx="184.7" cy="232.0" r="3" fill="#f28e2b"/><circle cx="196.8" cy="232.0" r="3" fill="#f28e2b"/><circle cx="208.8" cy="120.3" r="3" fill="#f28e2b"/><circle cx="220.9" cy="207.7" r="3" fill="#f28e2b"/><circle cx="233.0" cy="212.6" r="3" fill="#f28e2b"/><circle cx="245.0" cy="232.0" r="3" fill="#f28e2b"/><circle cx="257.1" cy="227.1" r="3" fill="#f28e2b"/><circle cx="269.2" cy="222.3" r="3" fill="#f28e2b"/><circle cx="281.2" cy="232.0" r="3" fill="#f28e2b"/><circle cx="293.3" cy="217.4" r="3" fill="#f28e2b"/><circle cx="305.4" cy="232.0" r="3" fill="#f28e2b"/><circle cx="317.4" cy="227.1" r="3" fill="#f28e2b"/><circle cx="329.5" cy="227.1" r="3" fill="#f28e2b"/><circle cx="341.5" cy="232.0" r="3" fill="#f28e2b"/><circle cx="353.6" cy="227.1" r="3" fill="#f28e2b"/><circle cx="365.7" cy="222.3" r="3" fill="#f28e2b"/><circle cx="377.7" cy="227.1" r="3" fill="#f28e2b"/><circle cx="389.8" cy="227.1" r="3" fill="#f28e2b"/><circle cx="401.9" cy="222.3" r="3" fill="#f28e2b"/><circle cx="413.9" cy="227.1" r="3" fill="#f28e2b"/><circle cx="426.0" cy="232.0" r="3" fill="#f28e2b"/><circle cx="438.1" cy="232.0" r="3" fill="#f28e2b"/><circle cx="450.1" cy="227.1" r="3" fill="#f28e2b"/><circle cx="462.2" cy="232.0" r="3" fill="#f28e2b"/><circle cx="474.3" cy="232.0" r="3" fill="#f28e2b"/><circle cx="486.3" cy="232.0" r="3" fill="#f28e2b"/><circle cx="498.4" cy="232.0" r="3" fill="#f28e2b"/><circle cx="510.5" cy="188.3" r="3" fill="#f28e2b"/><circle cx="522.5" cy="207.7" r="3" fill="#f28e2b"/><circle cx="534.6" cy="232.0" r="3" fill="#f28e2b"/><circle cx="546.6" cy="227.1" r="3" fill="#f28e2b"/><circle cx="558.7" cy="232.0" r="3" fill="#f28e2b"/><circle cx="570.8" cy="232.0" r="3" fill="#f28e2b"/><circle cx="582.8" cy="232.0" r="3" fill="#f28e2b"/><circle cx="594.9" cy="232.0" r="3" fill="#f28e2b"/><circle cx="607.0" cy="232.0" r="3" fill="#f28e2b"/><circle cx="619.0" cy="227.1" r="3" fill="#f28e2b"/><circle cx="631.1" cy="232.0" r="3" fill="#f28e2b"/><circle cx="643.2" cy="232.0" r="3" fill="#f28e2b"/><circle cx="655.2" cy="232.0" r="3" fill="#f28e2b"/><circle cx="667.3" cy="232.0" r="3" fill="#f28e2b"/><circle cx="679.4" cy="232.0" r="3" fill="#f28e2b"/><circle cx="691.4" cy="232.0" r="3" fill="#f28e2b"/><circle cx="703.5" cy="227.1" r="3" fill="#f28e2b"/><circle cx="715.5" cy="198.0" r="3" fill="#f28e2b"/><circle cx="727.6" cy="232.0" r="3" fill="#f28e2b"/><circle cx="739.7" cy="232.0" r="3" fill="#f28e2b"/><circle cx="751.7" cy="232.0" r="3" fill="#f28e2b"/><circle cx="763.8" cy="227.1" r="3" fill="#f28e2b"/><circle cx="775.9" cy="232.0" r="3" fill="#f28e2b"/><circle cx="787.9" cy="227.1" r="3" fill="#f28e2b"/><circle cx="800.0" cy="232.0" r="3" fill="#f28e2b"/>

  <!-- axes -->
  <line x1="52" y1="28" x2="52" y2="232"
        stroke="#cccccc" stroke-width="1"/>
  <line x1="52" y1="232" x2="800" y2="232"
        stroke="#cccccc" stroke-width="1"/>

  <!-- y-axis labels -->
  <text x="47" y="236.0" text-anchor="end" font-size="10" fill="#57606a" font-family="ui-monospace, SFMono-Regular, 'SF Mono', Menlo, monospace">0</text><text x="47" y="197.1" text-anchor="end" font-size="10" fill="#57606a" font-family="ui-monospace, SFMono-Regular, 'SF Mono', Menlo, monospace">8</text><text x="47" y="158.3" text-anchor="end" font-size="10" fill="#57606a" font-family="ui-monospace, SFMono-Regular, 'SF Mono', Menlo, monospace">16</text><text x="47" y="119.4" text-anchor="end" font-size="10" fill="#57606a" font-family="ui-monospace, SFMono-Regular, 'SF Mono', Menlo, monospace">24</text><text x="47" y="80.6" text-anchor="end" font-size="10" fill="#57606a" font-family="ui-monospace, SFMono-Regular, 'SF Mono', Menlo, monospace">32</text><text x="47" y="41.7" text-anchor="end" font-size="10" fill="#57606a" font-family="ui-monospace, SFMono-Regular, 'SF Mono', Menlo, monospace">40</text><text x="47" y="2.9" text-anchor="end" font-size="10" fill="#57606a" font-family="ui-monospace, SFMono-Regular, 'SF Mono', Menlo, monospace">48</text>

  <!-- x-axis labels -->
  <text x="52.0" y="248" text-anchor="middle" font-size="10" fill="#8c959f" font-family="ui-monospace, SFMono-Regular, 'SF Mono', Menlo, monospace">05-11</text><text x="474.3" y="248" text-anchor="middle" font-size="10" fill="#8c959f" font-family="ui-monospace, SFMono-Regular, 'SF Mono', Menlo, monospace">06-15</text><text x="136.5" y="248" text-anchor="middle" font-size="10" fill="#8c959f" font-family="ui-monospace, SFMono-Regular, 'SF Mono', Menlo, monospace">05-18</text><text x="558.7" y="248" text-anchor="middle" font-size="10" fill="#8c959f" font-family="ui-monospace, SFMono-Regular, 'SF Mono', Menlo, monospace">06-22</text><text x="220.9" y="248" text-anchor="middle" font-size="10" fill="#8c959f" font-family="ui-monospace, SFMono-Regular, 'SF Mono', Menlo, monospace">05-25</text><text x="643.2" y="248" text-anchor="middle" font-size="10" fill="#8c959f" font-family="ui-monospace, SFMono-Regular, 'SF Mono', Menlo, monospace">06-29</text><text x="305.4" y="248" text-anchor="middle" font-size="10" fill="#8c959f" font-family="ui-monospace, SFMono-Regular, 'SF Mono', Menlo, monospace">06-01</text><text x="727.6" y="248" text-anchor="middle" font-size="10" fill="#8c959f" font-family="ui-monospace, SFMono-Regular, 'SF Mono', Menlo, monospace">07-06</text><text x="389.8" y="248" text-anchor="middle" font-size="10" fill="#8c959f" font-family="ui-monospace, SFMono-Regular, 'SF Mono', Menlo, monospace">06-08</text><text x="800.0" y="248" text-anchor="middle" font-size="10" fill="#8c959f" font-family="ui-monospace, SFMono-Regular, 'SF Mono', Menlo, monospace">07-12</text>

  <!-- legend -->
  <rect x="60" y="262" width="16" height="3" fill="#4e79a7" rx="1"/><text x="80" y="268" font-size="11" fill="#57606a" font-family="-apple-system, BlinkMacSystemFont, 'Segoe UI', sans-serif">Total clones (121)</text><line x1="230" y1="264" x2="246" y2="264" stroke="#f28e2b" stroke-width="2" stroke-dasharray="5,3"/><text x="250" y="268" font-size="11" fill="#57606a" font-family="-apple-system, BlinkMacSystemFont, 'Segoe UI', sans-serif">Unique cloners</text>

</svg>