<svg xmlns="http://www.w3.org/2000/svg" viewBox="0 0 820 280" width="820" height="280">

  <!-- title -->
  <text x="52" y="18" font-size="13" font-weight="600"
        fill="#24292f" font-family="-apple-system, BlinkMacSystemFont, 'Segoe UI', sans-serif"
        >Clone traffic — bt-takeover</text>
  <text x="800" y="18" font-size="10" fill="#8c959f"
        font-family="ui-monospace, SFMono-Regular, 'SF Mono', Menlo, monospace" text-anchor="end">2026-07-16</text>

  <!-- grid -->
  <line x1="52" y1="232.0" x2="800" y2="232.0" stroke="#e8e8e8" stroke-width="1"/><line x1="52" y1="193.1" x2="800" y2="193.1" stroke="#e8e8e8" stroke-width="1"/><line x1="52" y1="154.3" x2="800" y2="154.3" stroke="#e8e8e8" stroke-width="1"/><line x1="52" y1="115.4" x2="800" y2="115.4" stroke="#e8e8e8" stroke-width="1"/><line x1="52" y1="76.6" x2="800" y2="76.6" stroke="#e8e8e8" stroke-width="1"/><line x1="52" y1="37.7" x2="800" y2="37.7" stroke="#e8e8e8" stroke-width="1"/><line x1="52" y1="-1.1" x2="800" y2="-1.1" stroke="#e8e8e8" stroke-width="1"/>

  <!-- area fill -->
  <path d="M52.0,232.0 L52.0,232.0 L63.5,227.1 L75.0,222.3 L86.5,232.0 L98.0,227.1 L109.5,232.0 L121.0,232.0 L132.6,232.0 L144.1,232.0 L155.6,227.1 L167.1,232.0 L178.6,232.0 L190.1,232.0 L201.6,28.0 L213.1,207.7 L224.6,159.1 L236.1,232.0 L247.6,227.1 L259.1,222.3 L270.6,232.0 L282.2,212.6 L293.7,232.0 L305.2,227.1 L316.7,227.1 L328.2,232.0 L339.7,227.1 L351.2,222.3 L362.7,227.1 L374.2,227.1 L385.7,222.3 L397.2,227.1 L408.7,232.0 L420.2,232.0 L431.8,227.1 L443.3,232.0 L454.8,232.0 L466.3,232.0 L477.8,232.0 L489.3,173.7 L500.8,178.6 L512.3,232.0 L523.8,227.1 L535.3,232.0 L546.8,232.0 L558.3,232.0 L569.8,232.0 L581.4,232.0 L592.9,227.1 L604.4,232.0 L615.9,232.0 L627.4,232.0 L638.9,232.0 L650.4,232.0 L661.9,232.0 L673.4,227.1 L684.9,193.1 L696.4,232.0 L707.9,232.0 L719.4,232.0 L731.0,227.1 L742.5,232.0 L754.0,227.1 L765.5,232.0 L777.0,232.0 L788.5,232.0 L800.0,232.0 L800.0,232.0 L52.0,232.0Z" fill="#4e79a7" opacity="0.12"/>

  <!-- lines -->
  <polyline points="52.0,232.0 63.5,227.1 75.0,222.3 86.5,232.0 98.0,227.1 109.5,232.0 121.0,232.0 132.6,232.0 144.1,232.0 155.6,227.1 167.1,232.0 178.6,232.0 190.1,232.0 201.6,28.0 213.1,207.7 224.6,159.1 236.1,232.0 247.6,227.1 259.1,222.3 270.6,232.0 282.2,212.6 293.7,232.0 305.2,227.1 316.7,227.1 328.2,232.0 339.7,227.1 351.2,222.3 362.7,227.1 374.2,227.1 385.7,222.3 397.2,227.1 408.7,232.0 420.2,232.0 431.8,227.1 443.3,232.0 454.8,232.0 466.3,232.0 477.8,232.0 489.3,173.7 500.8,178.6 512.3,232.0 523.8,227.1 535.3,232.0 546.8,232.0 558.3,232.0 569.8,232.0 581.4,232.0 592.9,227.1 604.4,232.0 615.9,232.0 627.4,232.0 638.9,232.0 650.4,232.0 661.9,232.0 673.4,227.1 684.9,193.1 696.4,232.0 707.9,232.0 719.4,232.0 731.0,227.1 742.5,232.0 754.0,227.1 765.5,232.0 777.0,232.0 788.5,232.0 800.0,232.0"
            fill="none" stroke="#4e79a7"
            stroke-width="2" stroke-linejoin="round"/>
  <polyline points="52.0,232.0 63.5,227.1 75.0,222.3 86.5,232.0 98.0,227.1 109.5,232.0 121.0,232.0 132.6,232.0 144.1,232.0 155.6,227.1 167.1,232.0 178.6,232.0 190.1,232.0 201.6,120.3 213.1,207.7 224.6,212.6 236.1,232.0 247.6,227.1 259.1,222.3 270.6,232.0 282.2,217.4 293.7,232.0 305.2,227.1 316.7,227.1 328.2,232.0 339.7,227.1 351.2,222.3 362.7,227.1 374.2,227.1 385.7,222.3 397.2,227.1 408.7,232.0 420.2,232.0 431.8,227.1 443.3,232.0 454.8,232.0 466.3,232.0 477.8,232.0 489.3,188.3 500.8,207.7 512.3,232.0 523.8,227.1 535.3,232.0 546.8,232.0 558.3,232.0 569.8,232.0 581.4,232.0 592.9,227.1 604.4,232.0 615.9,232.0 627.4,232.0 638.9,232.0 650.4,232.0 661.9,232.0 673.4,227.1 684.9,198.0 696.4,232.0 707.9,232.0 719.4,232.0 731.0,227.1 742.5,232.0 754.0,227.1 765.5,232.0 777.0,232.0 788.5,232.0 800.0,232.0"
            fill="none" stroke="#f28e2b"
            stroke-width="2" stroke-linejoin="round"
            stroke-dasharray="5,3"/>

  <!-- dots -->
  <circle cx="52.0" cy="232.0" r="3" fill="#4e79a7"/><circle cx="63.5" cy="227.1" r="3" fill="#4e79a7"/><circle cx="75.0" cy="222.3" r="3" fill="#4e79a7"/><circle cx="86.5" cy="232.0" r="3" fill="#4e79a7"/><circle cx="98.0" cy="227.1" r="3" fill="#4e79a7"/><circle cx="109.5" cy="232.0" r="3" fill="#4e79a7"/><circle cx="121.0" cy="232.0" r="3" fill="#4e79a7"/><circle cx="132.6" cy="232.0" r="3" fill="#4e79a7"/><circle cx="144.1" cy="232.0" r="3" fill="#4e79a7"/><circle cx="155.6" cy="227.1" r="3" fill="#4e79a7"/><circle cx="167.1" cy="232.0" r="3" fill="#4e79a7"/><circle cx="178.6" cy="232.0" r="3" fill="#4e79a7"/><circle cx="190.1" cy="232.0" r="3" fill="#4e79a7"/><circle cx="201.6" cy="28.0" r="3" fill="#4e79a7"/><circle cx="213.1" cy="207.7" r="3" fill="#4e79a7"/><circle cx="224.6" cy="159.1" r="3" fill="#4e79a7"/><circle cx="236.1" cy="232.0" r="3" fill="#4e79a7"/><circle cx="247.6" cy="227.1" r="3" fill="#4e79a7"/><circle cx="259.1" cy="222.3" r="3" fill="#4e79a7"/><circle cx="270.6" cy="232.0" r="3" fill="#4e79a7"/><circle cx="282.2" cy="212.6" r="3" fill="#4e79a7"/><circle cx="293.7" cy="232.0" r="3" fill="#4e79a7"/><circle cx="305.2" cy="227.1" r="3" fill="#4e79a7"/><circle cx="316.7" cy="227.1" r="3" fill="#4e79a7"/><circle cx="328.2" cy="232.0" r="3" fill="#4e79a7"/><circle cx="339.7" cy="227.1" r="3" fill="#4e79a7"/><circle cx="351.2" cy="222.3" r="3" fill="#4e79a7"/><circle cx="362.7" cy="227.1" r="3" fill="#4e79a7"/><circle cx="374.2" cy="227.1" r="3" fill="#4e79a7"/><circle cx="385.7" cy="222.3" r="3" fill="#4e79a7"/><circle cx="397.2" cy="227.1" r="3" fill="#4e79a7"/><circle cx="408.7" cy="232.0" r="3" fill="#4e79a7"/><circle cx="420.2" cy="232.0" r="3" fill="#4e79a7"/><circle cx="431.8" cy="227.1" r="3" fill="#4e79a7"/><circle cx="443.3" cy="232.0" r="3" fill="#4e79a7"/><circle cx="454.8" cy="232.0" r="3" fill="#4e79a7"/><circle cx="466.3" cy="232.0" r="3" fill="#4e79a7"/><circle cx="477.8" cy="232.0" r="3" fill="#4e79a7"/><circle cx="489.3" cy="173.7" r="3" fill="#4e79a7"/><circle cx="500.8" cy="178.6" r="3" fill="#4e79a7"/><circle cx="512.3" cy="232.0" r="3" fill="#4e79a7"/><circle cx="523.8" cy="227.1" r="3" fill="#4e79a7"/><circle cx="535.3" cy="232.0" r="3" fill="#4e79a7"/><circle cx="546.8" cy="232.0" r="3" fill="#4e79a7"/><circle cx="558.3" cy="232.0" r="3" fill="#4e79a7"/><circle cx="569.8" cy="232.0" r="3" fill="#4e79a7"/><circle cx="581.4" cy="232.0" r="3" fill="#4e79a7"/><circle cx="592.9" cy="227.1" r="3" fill="#4e79a7"/><circle cx="604.4" cy="232.0" r="3" fill="#4e79a7"/><circle cx="615.9" cy="232.0" r="3" fill="#4e79a7"/><circle cx="627.4" cy="232.0" r="3" fill="#4e79a7"/><circle cx="638.9" cy="232.0" r="3" fill="#4e79a7"/><circle cx="650.4" cy="232.0" r="3" fill="#4e79a7"/><circle cx="661.9" cy="232.0" r="3" fill="#4e79a7"/><circle cx="673.4" cy="227.1" r="3" fill="#4e79a7"/><circle cx="684.9" cy="193.1" r="3" fill="#4e79a7"/><circle cx="696.4" cy="232.0" r="3" fill="#4e79a7"/><circle cx="707.9" cy="232.0" r="3" fill="#4e79a7"/><circle cx="719.4" cy="232.0" r="3" fill="#4e79a7"/><circle cx="731.0" cy="227.1" r="3" fill="#4e79a7"/><circle cx="742.5" cy="232.0" r="3" fill="#4e79a7"/><circle cx="754.0" cy="227.1" r="3" fill="#4e79a7"/><circle cx="765.5" cy="232.0" r="3" fill="#4e79a7"/><circle cx="777.0" cy="232.0" r="3" fill="#4e79a7"/><circle cx="788.5" cy="232.0" r="3" fill="#4e79a7"/><circle cx="800.0" cy="232.0" r="3" fill="#4e79a7"/>
  <circle cx="52.0" cy="232.0" r="3" fill="#f28e2b"/><circle cx="63.5" cy="227.1" r="3" fill="#f28e2b"/><circle cx="75.0" cy="222.3" r="3" fill="#f28e2b"/><circle cx="86.5" cy="232.0" r="3" fill="#f28e2b"/><circle cx="98.0" cy="227.1" r="3" fill="#f28e2b"/><circle cx="109.5" cy="232.0" r="3" fill="#f28e2b"/><circle cx="121.0" cy="232.0" r="3" fill="#f28e2b"/><circle cx="132.6" cy="232.0" r="3" fill="#f28e2b"/><circle cx="144.1" cy="232.0" r="3" fill="#f28e2b"/><circle cx="155.6" cy="227.1" r="3" fill="#f28e2b"/><circle cx="167.1" cy="232.0" r="3" fill="#f28e2b"/><circle cx="178.6" cy="232.0" r="3" fill="#f28e2b"/><circle cx="190.1" cy="232.0" r="3" fill="#f28e2b"/><circle cx="201.6" cy="120.3" r="3" fill="#f28e2b"/><circle cx="213.1" cy="207.7" r="3" fill="#f28e2b"/><circle cx="224.6" cy="212.6" r="3" fill="#f28e2b"/><circle cx="236.1" cy="232.0" r="3" fill="#f28e2b"/><circle cx="247.6" cy="227.1" r="3" fill="#f28e2b"/><circle cx="259.1" cy="222.3" r="3" fill="#f28e2b"/><circle cx="270.6" cy="232.0" r="3" fill="#f28e2b"/><circle cx="282.2" cy="217.4" r="3" fill="#f28e2b"/><circle cx="293.7" cy="232.0" r="3" fill="#f28e2b"/><circle cx="305.2" cy="227.1" r="3" fill="#f28e2b"/><circle cx="316.7" cy="227.1" r="3" fill="#f28e2b"/><circle cx="328.2" cy="232.0" r="3" fill="#f28e2b"/><circle cx="339.7" cy="227.1" r="3" fill="#f28e2b"/><circle cx="351.2" cy="222.3" r="3" fill="#f28e2b"/><circle cx="362.7" cy="227.1" r="3" fill="#f28e2b"/><circle cx="374.2" cy="227.1" r="3" fill="#f28e2b"/><circle cx="385.7" cy="222.3" r="3" fill="#f28e2b"/><circle cx="397.2" cy="227.1" r="3" fill="#f28e2b"/><circle cx="408.7" cy="232.0" r="3" fill="#f28e2b"/><circle cx="420.2" cy="232.0" r="3" fill="#f28e2b"/><circle cx="431.8" cy="227.1" r="3" fill="#f28e2b"/><circle cx="443.3" cy="232.0" r="3" fill="#f28e2b"/><circle cx="454.8" cy="232.0" r="3" fill="#f28e2b"/><circle cx="466.3" cy="232.0" r="3" fill="#f28e2b"/><circle cx="477.8" cy="232.0" r="3" fill="#f28e2b"/><circle cx="489.3" cy="188.3" r="3" fill="#f28e2b"/><circle cx="500.8" cy="207.7" r="3" fill="#f28e2b"/><circle cx="512.3" cy="232.0" r="3" fill="#f28e2b"/><circle cx="523.8" cy="227.1" r="3" fill="#f28e2b"/><circle cx="535.3" cy="232.0" r="3" fill="#f28e2b"/><circle cx="546.8" cy="232.0" r="3" fill="#f28e2b"/><circle cx="558.3" cy="232.0" r="3" fill="#f28e2b"/><circle cx="569.8" cy="232.0" r="3" fill="#f28e2b"/><circle cx="581.4" cy="232.0" r="3" fill="#f28e2b"/><circle cx="592.9" cy="227.1" r="3" fill="#f28e2b"/><circle cx="604.4" cy="232.0" r="3" fill="#f28e2b"/><circle cx="615.9" cy="232.0" r="3" fill="#f28e2b"/><circle cx="627.4" cy="232.0" r="3" fill="#f28e2b"/><circle cx="638.9" cy="232.0" r="3" fill="#f28e2b"/><circle cx="650.4" cy="232.0" r="3" fill="#f28e2b"/><circle cx="661.9" cy="232.0" r="3" fill="#f28e2b"/><circle cx="673.4" cy="227.1" r="3" fill="#f28e2b"/><circle cx="684.9" cy="198.0" r="3" fill="#f28e2b"/><circle cx="696.4" cy="232.0" r="3" fill="#f28e2b"/><circle cx="707.9" cy="232.0" r="3" fill="#f28e2b"/><circle cx="719.4" cy="232.0" r="3" fill="#f28e2b"/><circle cx="731.0" cy="227.1" r="3" fill="#f28e2b"/><circle cx="742.5" cy="232.0" r="3" fill="#f28e2b"/><circle cx="754.0" cy="227.1" r="3" fill="#f28e2b"/><circle cx="765.5" cy="232.0" r="3" fill="#f28e2b"/><circle cx="777.0" cy="232.0" r="3" fill="#f28e2b"/><circle cx="788.5" cy="232.0" r="3" fill="#f28e2b"/><circle cx="800.0" cy="232.0" r="3" fill="#f28e2b"/>

  <!-- axes -->
  <line x1="52" y1="28" x2="52" y2="232"
        stroke="#cccccc" stroke-width="1"/>
  <line x1="52" y1="232" x2="800" y2="232"
        stroke="#cccccc" stroke-width="1"/>

  <!-- y-axis labels -->
  <text x="47" y="236.0" text-anchor="end" font-size="10" fill="#57606a" font-family="ui-monospace, SFMono-Regular, 'SF Mono', Menlo, monospace">0</text><text x="47" y="197.1" text-anchor="end" font-size="10" fill="#57606a" font-family="ui-monospace, SFMono-Regular, 'SF Mono', Menlo, monospace">8</text><text x="47" y="158.3" text-anchor="end" font-size="10" fill="#57606a" font-family="ui-monospace, SFMono-Regular, 'SF Mono', Menlo, monospace">16</text><text x="47" y="119.4" text-anchor="end" font-size="10" fill="#57606a" font-family="ui-monospace, SFMono-Regular, 'SF Mono', Menlo, monospace">24</text><text x="47" y="80.6" text-anchor="end" font-size="10" fill="#57606a" font-family="ui-monospace, SFMono-Regular, 'SF Mono', Menlo, monospace">32</text><text x="47" y="41.7" text-anchor="end" font-size="10" fill="#57606a" font-family="ui-monospace, SFMono-Regular, 'SF Mono', Menlo, monospace">40</text><text x="47" y="2.9" text-anchor="end" font-size="10" fill="#57606a" font-family="ui-monospace, SFMono-Regular, 'SF Mono', Menlo, monospace">48</text>

  <!-- x-axis labels -->
  <text x="52.0" y="248" text-anchor="middle" font-size="10" fill="#8c959f" font-family="ui-monospace, SFMono-Regular, 'SF Mono', Menlo, monospace">05-11</text><text x="420.2" y="248" text-anchor="middle" font-size="10" fill="#8c959f" font-family="ui-monospace, SFMono-Regular, 'SF Mono', Menlo, monospace">06-12</text><text x="788.5" y="248" text-anchor="middle" font-size="10" fill="#8c959f" font-family="ui-monospace, SFMono-Regular, 'SF Mono', Menlo, monospace">07-14</text><text x="800.0" y="248" text-anchor="middle" font-size="10" fill="#8c959f" font-family="ui-monospace, SFMono-Regular, 'SF Mono', Menlo, monospace">07-15</text><text x="144.1" y="248" text-anchor="middle" font-size="10" fill="#8c959f" font-family="ui-monospace, SFMono-Regular, 'SF Mono', Menlo, monospace">05-19</text><text x="512.3" y="248" text-anchor="middle" font-size="10" fill="#8c959f" font-family="ui-monospace, SFMono-Regular, 'SF Mono', Menlo, monospace">06-20</text><text x="236.1" y="248" text-anchor="middle" font-size="10" fill="#8c959f" font-family="ui-monospace, SFMono-Regular, 'SF Mono', Menlo, monospace">05-27</text><text x="604.4" y="248" text-anchor="middle" font-size="10" fill="#8c959f" font-family="ui-monospace, SFMono-Regular, 'SF Mono', Menlo, monospace">06-28</text><text x="328.2" y="248" text-anchor="middle" font-size="10" fill="#8c959f" font-family="ui-monospace, SFMono-Regular, 'SF Mono', Menlo, monospace">06-04</text><text x="696.4" y="248" text-anchor="middle" font-size="10" fill="#8c959f" font-family="ui-monospace, SFMono-Regular, 'SF Mono', Menlo, monospace">07-06</text>

  <!-- legend -->
  <rect x="60" y="262" width="16" height="3" fill="#4e79a7" rx="1"/><text x="80" y="268" font-size="11" fill="#57606a" font-family="-apple-system, BlinkMacSystemFont, 'Segoe UI', sans-serif">Total clones (121)</text><line x1="230" y1="264" x2="246" y2="264" stroke="#f28e2b" stroke-width="2" stroke-dasharray="5,3"/><text x="250" y="268" font-size="11" fill="#57606a" font-family="-apple-system, BlinkMacSystemFont, 'Segoe UI', sans-serif">Unique cloners</text>

</svg>