<svg xmlns="http://www.w3.org/2000/svg" viewBox="0 0 820 280" width="820" height="280">

  <!-- title -->
  <text x="52" y="18" font-size="13" font-weight="600"
        fill="#24292f" font-family="-apple-system, BlinkMacSystemFont, 'Segoe UI', sans-serif"
        >Clone traffic — bt-takeover</text>
  <text x="800" y="18" font-size="10" fill="#8c959f"
        font-family="ui-monospace, SFMono-Regular, 'SF Mono', Menlo, monospace" text-anchor="end">2026-06-12</text>

  <!-- grid -->
  <line x1="52" y1="232.0" x2="800" y2="232.0" stroke="#e8e8e8" stroke-width="1"/><line x1="52" y1="193.1" x2="800" y2="193.1" stroke="#e8e8e8" stroke-width="1"/><line x1="52" y1="154.3" x2="800" y2="154.3" stroke="#e8e8e8" stroke-width="1"/><line x1="52" y1="115.4" x2="800" y2="115.4" stroke="#e8e8e8" stroke-width="1"/><line x1="52" y1="76.6" x2="800" y2="76.6" stroke="#e8e8e8" stroke-width="1"/><line x1="52" y1="37.7" x2="800" y2="37.7" stroke="#e8e8e8" stroke-width="1"/><line x1="52" y1="-1.1" x2="800" y2="-1.1" stroke="#e8e8e8" stroke-width="1"/>

  <!-- area fill -->
  <path d="M52.0,232.0 L52.0,232.0 L76.9,227.1 L101.9,222.3 L126.8,232.0 L151.7,227.1 L176.7,232.0 L201.6,232.0 L226.5,232.0 L251.5,232.0 L276.4,227.1 L301.3,232.0 L326.3,232.0 L351.2,232.0 L376.1,28.0 L401.1,207.7 L426.0,159.1 L450.9,232.0 L475.9,227.1 L500.8,222.3 L525.7,232.0 L550.7,212.6 L575.6,232.0 L600.5,227.1 L625.5,227.1 L650.4,232.0 L675.3,227.1 L700.3,222.3 L725.2,227.1 L750.1,227.1 L775.1,222.3 L800.0,227.1 L800.0,232.0 L52.0,232.0Z" fill="#4e79a7" opacity="0.12"/>

  <!-- lines -->
  <polyline points="52.0,232.0 76.9,227.1 101.9,222.3 126.8,232.0 151.7,227.1 176.7,232.0 201.6,232.0 226.5,232.0 251.5,232.0 276.4,227.1 301.3,232.0 326.3,232.0 351.2,232.0 376.1,28.0 401.1,207.7 426.0,159.1 450.9,232.0 475.9,227.1 500.8,222.3 525.7,232.0 550.7,212.6 575.6,232.0 600.5,227.1 625.5,227.1 650.4,232.0 675.3,227.1 700.3,222.3 725.2,227.1 750.1,227.1 775.1,222.3 800.0,227.1"
            fill="none" stroke="#4e79a7"
            stroke-width="2" stroke-linejoin="round"/>
  <polyline points="52.0,232.0 76.9,227.1 101.9,222.3 126.8,232.0 151.7,227.1 176.7,232.0 201.6,232.0 226.5,232.0 251.5,232.0 276.4,227.1 301.3,232.0 326.3,232.0 351.2,232.0 376.1,120.3 401.1,207.7 426.0,212.6 450.9,232.0 475.9,227.1 500.8,222.3 525.7,232.0 550.7,217.4 575.6,232.0 600.5,227.1 625.5,227.1 650.4,232.0 675.3,227.1 700.3,222.3 725.2,227.1 750.1,227.1 775.1,222.3 800.0,227.1"
            fill="none" stroke="#f28e2b"
            stroke-width="2" stroke-linejoin="round"
            stroke-dasharray="5,3"/>

  <!-- dots -->
  <circle cx="52.0" cy="232.0" r="3" fill="#4e79a7"/><circle cx="76.9" cy="227.1" r="3" fill="#4e79a7"/><circle cx="101.9" cy="222.3" r="3" fill="#4e79a7"/><circle cx="126.8" cy="232.0" r="3" fill="#4e79a7"/><circle cx="151.7" cy="227.1" r="3" fill="#4e79a7"/><circle cx="176.7" cy="232.0" r="3" fill="#4e79a7"/><circle cx="201.6" cy="232.0" r="3" fill="#4e79a7"/><circle cx="226.5" cy="232.0" r="3" fill="#4e79a7"/><circle cx="251.5" cy="232.0" r="3" fill="#4e79a7"/><circle cx="276.4" cy="227.1" r="3" fill="#4e79a7"/><circle cx="301.3" cy="232.0" r="3" fill="#4e79a7"/><circle cx="326.3" cy="232.0" r="3" fill="#4e79a7"/><circle cx="351.2" cy="232.0" r="3" fill="#4e79a7"/><circle cx="376.1" cy="28.0" r="3" fill="#4e79a7"/><circle cx="401.1" cy="207.7" r="3" fill="#4e79a7"/><circle cx="426.0" cy="159.1" r="3" fill="#4e79a7"/><circle cx="450.9" cy="232.0" r="3" fill="#4e79a7"/><circle cx="475.9" cy="227.1" r="3" fill="#4e79a7"/><circle cx="500.8" cy="222.3" r="3" fill="#4e79a7"/><circle cx="525.7" cy="232.0" r="3" fill="#4e79a7"/><circle cx="550.7" cy="212.6" r="3" fill="#4e79a7"/><circle cx="575.6" cy="232.0" r="3" fill="#4e79a7"/><circle cx="600.5" cy="227.1" r="3" fill="#4e79a7"/><circle cx="625.5" cy="227.1" r="3" fill="#4e79a7"/><circle cx="650.4" cy="232.0" r="3" fill="#4e79a7"/><circle cx="675.3" cy="227.1" r="3" fill="#4e79a7"/><circle cx="700.3" cy="222.3" r="3" fill="#4e79a7"/><circle cx="725.2" cy="227.1" r="3" fill="#4e79a7"/><circle cx="750.1" cy="227.1" r="3" fill="#4e79a7"/><circle cx="775.1" cy="222.3" r="3" fill="#4e79a7"/><circle cx="800.0" cy="227.1" r="3" fill="#4e79a7"/>
  <circle cx="52.0" cy="232.0" r="3" fill="#f28e2b"/><circle cx="76.9" cy="227.1" r="3" fill="#f28e2b"/><circle cx="101.9" cy="222.3" r="3" fill="#f28e2b"/><circle cx="126.8" cy="232.0" r="3" fill="#f28e2b"/><circle cx="151.7" cy="227.1" r="3" fill="#f28e2b"/><circle cx="176.7" cy="232.0" r="3" fill="#f28e2b"/><circle cx="201.6" cy="232.0" r="3" fill="#f28e2b"/><circle cx="226.5" cy="232.0" r="3" fill="#f28e2b"/><circle cx="251.5" cy="232.0" r="3" fill="#f28e2b"/><circle cx="276.4" cy="227.1" r="3" fill="#f28e2b"/><circle cx="301.3" cy="232.0" r="3" fill="#f28e2b"/><circle cx="326.3" cy="232.0" r="3" fill="#f28e2b"/><circle cx="351.2" cy="232.0" r="3" fill="#f28e2b"/><circle cx="376.1" cy="120.3" r="3" fill="#f28e2b"/><circle cx="401.1" cy="207.7" r="3" fill="#f28e2b"/><circle cx="426.0" cy="212.6" r="3" fill="#f28e2b"/><circle cx="450.9" cy="232.0" r="3" fill="#f28e2b"/><circle cx="475.9" cy="227.1" r="3" fill="#f28e2b"/><circle cx="500.8" cy="222.3" r="3" fill="#f28e2b"/><circle cx="525.7" cy="232.0" r="3" fill="#f28e2b"/><circle cx="550.7" cy="217.4" r="3" fill="#f28e2b"/><circle cx="575.6" cy="232.0" r="3" fill="#f28e2b"/><circle cx="600.5" cy="227.1" r="3" fill="#f28e2b"/><circle cx="625.5" cy="227.1" r="3" fill="#f28e2b"/><circle cx="650.4" cy="232.0" r="3" fill="#f28e2b"/><circle cx="675.3" cy="227.1" r="3" fill="#f28e2b"/><circle cx="700.3" cy="222.3" r="3" fill="#f28e2b"/><circle cx="725.2" cy="227.1" r="3" fill="#f28e2b"/><circle cx="750.1" cy="227.1" r="3" fill="#f28e2b"/><circle cx="775.1" cy="222.3" r="3" fill="#f28e2b"/><circle cx="800.0" cy="227.1" r="3" fill="#f28e2b"/>

  <!-- axes -->
  <line x1="52" y1="28" x2="52" y2="232"
        stroke="#cccccc" stroke-width="1"/>
  <line x1="52" y1="232" x2="800" y2="232"
        stroke="#cccccc" stroke-width="1"/>

  <!-- y-axis labels -->
  <text x="47" y="236.0" text-anchor="end" font-size="10" fill="#57606a" font-family="ui-monospace, SFMono-Regular, 'SF Mono', Menlo, monospace">0</text><text x="47" y="197.1" text-anchor="end" font-size="10" fill="#57606a" font-family="ui-monospace, SFMono-Regular, 'SF Mono', Menlo, monospace">8</text><text x="47" y="158.3" text-anchor="end" font-size="10" fill="#57606a" font-family="ui-monospace, SFMono-Regular, 'SF Mono', Menlo, monospace">16</text><text x="47" y="119.4" text-anchor="end" font-size="10" fill="#57606a" font-family="ui-monospace, SFMono-Regular, 'SF Mono', Menlo, monospace">24</text><text x="47" y="80.6" text-anchor="end" font-size="10" fill="#57606a" font-family="ui-monospace, SFMono-Regular, 'SF Mono', Menlo, monospace">32</text><text x="47" y="41.7" text-anchor="end" font-size="10" fill="#57606a" font-family="ui-monospace, SFMono-Regular, 'SF Mono', Menlo, monospace">40</text><text x="47" y="2.9" text-anchor="end" font-size="10" fill="#57606a" font-family="ui-monospace, SFMono-Regular, 'SF Mono', Menlo, monospace">48</text>

  <!-- x-axis labels -->
  <text x="52.0" y="248" text-anchor="middle" font-size="10" fill="#8c959f" font-family="ui-monospace, SFMono-Regular, 'SF Mono', Menlo, monospace">05-11</text><text x="126.8" y="248" text-anchor="middle" font-size="10" fill="#8c959f" font-family="ui-monospace, SFMono-Regular, 'SF Mono', Menlo, monospace">05-14</text><text x="201.6" y="248" text-anchor="middle" font-size="10" fill="#8c959f" font-family="ui-monospace, SFMono-Regular, 'SF Mono', Menlo, monospace">05-17</text><text x="276.4" y="248" text-anchor="middle" font-size="10" fill="#8c959f" font-family="ui-monospace, SFMono-Regular, 'SF Mono', Menlo, monospace">05-20</text><text x="351.2" y="248" text-anchor="middle" font-size="10" fill="#8c959f" font-family="ui-monospace, SFMono-Regular, 'SF Mono', Menlo, monospace">05-23</text><text x="426.0" y="248" text-anchor="middle" font-size="10" fill="#8c959f" font-family="ui-monospace, SFMono-Regular, 'SF Mono', Menlo, monospace">05-26</text><text x="500.8" y="248" text-anchor="middle" font-size="10" fill="#8c959f" font-family="ui-monospace, SFMono-Regular, 'SF Mono', Menlo, monospace">05-29</text><text x="575.6" y="248" text-anchor="middle" font-size="10" fill="#8c959f" font-family="ui-monospace, SFMono-Regular, 'SF Mono', Menlo, monospace">06-01</text><text x="650.4" y="248" text-anchor="middle" font-size="10" fill="#8c959f" font-family="ui-monospace, SFMono-Regular, 'SF Mono', Menlo, monospace">06-04</text><text x="725.2" y="248" text-anchor="middle" font-size="10" fill="#8c959f" font-family="ui-monospace, SFMono-Regular, 'SF Mono', Menlo, monospace">06-07</text><text x="800.0" y="248" text-anchor="middle" font-size="10" fill="#8c959f" font-family="ui-monospace, SFMono-Regular, 'SF Mono', Menlo, monospace">06-10</text>

  <!-- legend -->
  <rect x="60" y="262" width="16" height="3" fill="#4e79a7" rx="1"/><text x="80" y="268" font-size="11" fill="#57606a" font-family="-apple-system, BlinkMacSystemFont, 'Segoe UI', sans-serif">Total clones (84)</text><line x1="230" y1="264" x2="246" y2="264" stroke="#f28e2b" stroke-width="2" stroke-dasharray="5,3"/><text x="250" y="268" font-size="11" fill="#57606a" font-family="-apple-system, BlinkMacSystemFont, 'Segoe UI', sans-serif">Unique cloners</text>

</svg>