<svg xmlns="http://www.w3.org/2000/svg" viewBox="0 0 820 280" width="820" height="280">

  <!-- title -->
  <text x="52" y="18" font-size="13" font-weight="600"
        fill="#24292f" font-family="-apple-system, BlinkMacSystemFont, 'Segoe UI', sans-serif"
        >Clone traffic — burn-iso</text>
  <text x="800" y="18" font-size="10" fill="#8c959f"
        font-family="ui-monospace, SFMono-Regular, 'SF Mono', Menlo, monospace" text-anchor="end">2026-07-09</text>

  <!-- grid -->
  <line x1="52" y1="232.0" x2="800" y2="232.0" stroke="#e8e8e8" stroke-width="1"/><line x1="52" y1="187.7" x2="800" y2="187.7" stroke="#e8e8e8" stroke-width="1"/><line x1="52" y1="143.3" x2="800" y2="143.3" stroke="#e8e8e8" stroke-width="1"/><line x1="52" y1="99.0" x2="800" y2="99.0" stroke="#e8e8e8" stroke-width="1"/><line x1="52" y1="54.6" x2="800" y2="54.6" stroke="#e8e8e8" stroke-width="1"/><line x1="52" y1="10.3" x2="800" y2="10.3" stroke="#e8e8e8" stroke-width="1"/>

  <!-- area fill -->
  <path d="M52.0,232.0 L52.0,232.0 L65.1,223.1 L78.2,205.4 L91.4,232.0 L104.5,223.1 L117.6,232.0 L130.7,232.0 L143.9,232.0 L157.0,232.0 L170.1,223.1 L183.2,232.0 L196.4,232.0 L209.5,232.0 L222.6,28.0 L235.7,205.4 L248.8,232.0 L262.0,232.0 L275.1,223.1 L288.2,214.3 L301.3,232.0 L314.5,214.3 L327.6,232.0 L340.7,223.1 L353.8,232.0 L366.9,232.0 L380.1,223.1 L393.2,223.1 L406.3,223.1 L419.4,232.0 L432.6,214.3 L445.7,223.1 L458.8,232.0 L471.9,232.0 L485.1,232.0 L498.2,232.0 L511.3,232.0 L524.4,232.0 L537.5,223.1 L550.7,63.5 L563.8,223.1 L576.9,232.0 L590.0,223.1 L603.2,232.0 L616.3,232.0 L629.4,232.0 L642.5,232.0 L655.6,232.0 L668.8,223.1 L681.9,232.0 L695.0,232.0 L708.1,232.0 L721.3,232.0 L734.4,232.0 L747.5,223.1 L760.6,232.0 L773.8,232.0 L786.9,232.0 L800.0,161.0 L800.0,232.0 L52.0,232.0Z" fill="#4e79a7" opacity="0.12"/>

  <!-- lines -->
  <polyline points="52.0,232.0 65.1,223.1 78.2,205.4 91.4,232.0 104.5,223.1 117.6,232.0 130.7,232.0 143.9,232.0 157.0,232.0 170.1,223.1 183.2,232.0 196.4,232.0 209.5,232.0 222.6,28.0 235.7,205.4 248.8,232.0 262.0,232.0 275.1,223.1 288.2,214.3 301.3,232.0 314.5,214.3 327.6,232.0 340.7,223.1 353.8,232.0 366.9,232.0 380.1,223.1 393.2,223.1 406.3,223.1 419.4,232.0 432.6,214.3 445.7,223.1 458.8,232.0 471.9,232.0 485.1,232.0 498.2,232.0 511.3,232.0 524.4,232.0 537.5,223.1 550.7,63.5 563.8,223.1 576.9,232.0 590.0,223.1 603.2,232.0 616.3,232.0 629.4,232.0 642.5,232.0 655.6,232.0 668.8,223.1 681.9,232.0 695.0,232.0 708.1,232.0 721.3,232.0 734.4,232.0 747.5,223.1 760.6,232.0 773.8,232.0 786.9,232.0 800.0,161.0"
            fill="none" stroke="#4e79a7"
            stroke-width="2" stroke-linejoin="round"/>
  <polyline points="52.0,232.0 65.1,223.1 78.2,205.4 91.4,232.0 104.5,223.1 117.6,232.0 130.7,232.0 143.9,232.0 157.0,232.0 170.1,223.1 183.2,232.0 196.4,232.0 209.5,232.0 222.6,107.8 235.7,205.4 248.8,232.0 262.0,232.0 275.1,223.1 288.2,214.3 301.3,232.0 314.5,214.3 327.6,232.0 340.7,223.1 353.8,232.0 366.9,232.0 380.1,223.1 393.2,223.1 406.3,223.1 419.4,232.0 432.6,214.3 445.7,223.1 458.8,232.0 471.9,232.0 485.1,232.0 498.2,232.0 511.3,232.0 524.4,232.0 537.5,223.1 550.7,143.3 563.8,223.1 576.9,232.0 590.0,223.1 603.2,232.0 616.3,232.0 629.4,232.0 642.5,232.0 655.6,232.0 668.8,223.1 681.9,232.0 695.0,232.0 708.1,232.0 721.3,232.0 734.4,232.0 747.5,223.1 760.6,232.0 773.8,232.0 786.9,232.0 800.0,223.1"
            fill="none" stroke="#f28e2b"
            stroke-width="2" stroke-linejoin="round"
            stroke-dasharray="5,3"/>

  <!-- dots -->
  <circle cx="52.0" cy="232.0" r="3" fill="#4e79a7"/><circle cx="65.1" cy="223.1" r="3" fill="#4e79a7"/><circle cx="78.2" cy="205.4" r="3" fill="#4e79a7"/><circle cx="91.4" cy="232.0" r="3" fill="#4e79a7"/><circle cx="104.5" cy="223.1" r="3" fill="#4e79a7"/><circle cx="117.6" cy="232.0" r="3" fill="#4e79a7"/><circle cx="130.7" cy="232.0" r="3" fill="#4e79a7"/><circle cx="143.9" cy="232.0" r="3" fill="#4e79a7"/><circle cx="157.0" cy="232.0" r="3" fill="#4e79a7"/><circle cx="170.1" cy="223.1" r="3" fill="#4e79a7"/><circle cx="183.2" cy="232.0" r="3" fill="#4e79a7"/><circle cx="196.4" cy="232.0" r="3" fill="#4e79a7"/><circle cx="209.5" cy="232.0" r="3" fill="#4e79a7"/><circle cx="222.6" cy="28.0" r="3" fill="#4e79a7"/><circle cx="235.7" cy="205.4" r="3" fill="#4e79a7"/><circle cx="248.8" cy="232.0" r="3" fill="#4e79a7"/><circle cx="262.0" cy="232.0" r="3" fill="#4e79a7"/><circle cx="275.1" cy="223.1" r="3" fill="#4e79a7"/><circle cx="288.2" cy="214.3" r="3" fill="#4e79a7"/><circle cx="301.3" cy="232.0" r="3" fill="#4e79a7"/><circle cx="314.5" cy="214.3" r="3" fill="#4e79a7"/><circle cx="327.6" cy="232.0" r="3" fill="#4e79a7"/><circle cx="340.7" cy="223.1" r="3" fill="#4e79a7"/><circle cx="353.8" cy="232.0" r="3" fill="#4e79a7"/><circle cx="366.9" cy="232.0" r="3" fill="#4e79a7"/><circle cx="380.1" cy="223.1" r="3" fill="#4e79a7"/><circle cx="393.2" cy="223.1" r="3" fill="#4e79a7"/><circle cx="406.3" cy="223.1" r="3" fill="#4e79a7"/><circle cx="419.4" cy="232.0" r="3" fill="#4e79a7"/><circle cx="432.6" cy="214.3" r="3" fill="#4e79a7"/><circle cx="445.7" cy="223.1" r="3" fill="#4e79a7"/><circle cx="458.8" cy="232.0" r="3" fill="#4e79a7"/><circle cx="471.9" cy="232.0" r="3" fill="#4e79a7"/><circle cx="485.1" cy="232.0" r="3" fill="#4e79a7"/><circle cx="498.2" cy="232.0" r="3" fill="#4e79a7"/><circle cx="511.3" cy="232.0" r="3" fill="#4e79a7"/><circle cx="524.4" cy="232.0" r="3" fill="#4e79a7"/><circle cx="537.5" cy="223.1" r="3" fill="#4e79a7"/><circle cx="550.7" cy="63.5" r="3" fill="#4e79a7"/><circle cx="563.8" cy="223.1" r="3" fill="#4e79a7"/><circle cx="576.9" cy="232.0" r="3" fill="#4e79a7"/><circle cx="590.0" cy="223.1" r="3" fill="#4e79a7"/><circle cx="603.2" cy="232.0" r="3" fill="#4e79a7"/><circle cx="616.3" cy="232.0" r="3" fill="#4e79a7"/><circle cx="629.4" cy="232.0" r="3" fill="#4e79a7"/><circle cx="642.5" cy="232.0" r="3" fill="#4e79a7"/><circle cx="655.6" cy="232.0" r="3" fill="#4e79a7"/><circle cx="668.8" cy="223.1" r="3" fill="#4e79a7"/><circle cx="681.9" cy="232.0" r="3" fill="#4e79a7"/><circle cx="695.0" cy="232.0" r="3" fill="#4e79a7"/><circle cx="708.1" cy="232.0" r="3" fill="#4e79a7"/><circle cx="721.3" cy="232.0" r="3" fill="#4e79a7"/><circle cx="734.4" cy="232.0" r="3" fill="#4e79a7"/><circle cx="747.5" cy="223.1" r="3" fill="#4e79a7"/><circle cx="760.6" cy="232.0" r="3" fill="#4e79a7"/><circle cx="773.8" cy="232.0" r="3" fill="#4e79a7"/><circle cx="786.9" cy="232.0" r="3" fill="#4e79a7"/><circle cx="800.0" cy="161.0" r="3" fill="#4e79a7"/>
  <circle cx="52.0" cy="232.0" r="3" fill="#f28e2b"/><circle cx="65.1" cy="223.1" r="3" fill="#f28e2b"/><circle cx="78.2" cy="205.4" r="3" fill="#f28e2b"/><circle cx="91.4" cy="232.0" r="3" fill="#f28e2b"/><circle cx="104.5" cy="223.1" r="3" fill="#f28e2b"/><circle cx="117.6" cy="232.0" r="3" fill="#f28e2b"/><circle cx="130.7" cy="232.0" r="3" fill="#f28e2b"/><circle cx="143.9" cy="232.0" r="3" fill="#f28e2b"/><circle cx="157.0" cy="232.0" r="3" fill="#f28e2b"/><circle cx="170.1" cy="223.1" r="3" fill="#f28e2b"/><circle cx="183.2" cy="232.0" r="3" fill="#f28e2b"/><circle cx="196.4" cy="232.0" r="3" fill="#f28e2b"/><circle cx="209.5" cy="232.0" r="3" fill="#f28e2b"/><circle cx="222.6" cy="107.8" r="3" fill="#f28e2b"/><circle cx="235.7" cy="205.4" r="3" fill="#f28e2b"/><circle cx="248.8" cy="232.0" r="3" fill="#f28e2b"/><circle cx="262.0" cy="232.0" r="3" fill="#f28e2b"/><circle cx="275.1" cy="223.1" r="3" fill="#f28e2b"/><circle cx="288.2" cy="214.3" r="3" fill="#f28e2b"/><circle cx="301.3" cy="232.0" r="3" fill="#f28e2b"/><circle cx="314.5" cy="214.3" r="3" fill="#f28e2b"/><circle cx="327.6" cy="232.0" r="3" fill="#f28e2b"/><circle cx="340.7" cy="223.1" r="3" fill="#f28e2b"/><circle cx="353.8" cy="232.0" r="3" fill="#f28e2b"/><circle cx="366.9" cy="232.0" r="3" fill="#f28e2b"/><circle cx="380.1" cy="223.1" r="3" fill="#f28e2b"/><circle cx="393.2" cy="223.1" r="3" fill="#f28e2b"/><circle cx="406.3" cy="223.1" r="3" fill="#f28e2b"/><circle cx="419.4" cy="232.0" r="3" fill="#f28e2b"/><circle cx="432.6" cy="214.3" r="3" fill="#f28e2b"/><circle cx="445.7" cy="223.1" r="3" fill="#f28e2b"/><circle cx="458.8" cy="232.0" r="3" fill="#f28e2b"/><circle cx="471.9" cy="232.0" r="3" fill="#f28e2b"/><circle cx="485.1" cy="232.0" r="3" fill="#f28e2b"/><circle cx="498.2" cy="232.0" r="3" fill="#f28e2b"/><circle cx="511.3" cy="232.0" r="3" fill="#f28e2b"/><circle cx="524.4" cy="232.0" r="3" fill="#f28e2b"/><circle cx="537.5" cy="223.1" r="3" fill="#f28e2b"/><circle cx="550.7" cy="143.3" r="3" fill="#f28e2b"/><circle cx="563.8" cy="223.1" r="3" fill="#f28e2b"/><circle cx="576.9" cy="232.0" r="3" fill="#f28e2b"/><circle cx="590.0" cy="223.1" r="3" fill="#f28e2b"/><circle cx="603.2" cy="232.0" r="3" fill="#f28e2b"/><circle cx="616.3" cy="232.0" r="3" fill="#f28e2b"/><circle cx="629.4" cy="232.0" r="3" fill="#f28e2b"/><circle cx="642.5" cy="232.0" r="3" fill="#f28e2b"/><circle cx="655.6" cy="232.0" r="3" fill="#f28e2b"/><circle cx="668.8" cy="223.1" r="3" fill="#f28e2b"/><circle cx="681.9" cy="232.0" r="3" fill="#f28e2b"/><circle cx="695.0" cy="232.0" r="3" fill="#f28e2b"/><circle cx="708.1" cy="232.0" r="3" fill="#f28e2b"/><circle cx="721.3" cy="232.0" r="3" fill="#f28e2b"/><circle cx="734.4" cy="232.0" r="3" fill="#f28e2b"/><circle cx="747.5" cy="223.1" r="3" fill="#f28e2b"/><circle cx="760.6" cy="232.0" r="3" fill="#f28e2b"/><circle cx="773.8" cy="232.0" r="3" fill="#f28e2b"/><circle cx="786.9" cy="232.0" r="3" fill="#f28e2b"/><circle cx="800.0" cy="223.1" r="3" fill="#f28e2b"/>

  <!-- axes -->
  <line x1="52" y1="28" x2="52" y2="232"
        stroke="#cccccc" stroke-width="1"/>
  <line x1="52" y1="232" x2="800" y2="232"
        stroke="#cccccc" stroke-width="1"/>

  <!-- y-axis labels -->
  <text x="47" y="236.0" text-anchor="end" font-size="10" fill="#57606a" font-family="ui-monospace, SFMono-Regular, 'SF Mono', Menlo, monospace">0</text><text x="47" y="191.7" text-anchor="end" font-size="10" fill="#57606a" font-family="ui-monospace, SFMono-Regular, 'SF Mono', Menlo, monospace">5</text><text x="47" y="147.3" text-anchor="end" font-size="10" fill="#57606a" font-family="ui-monospace, SFMono-Regular, 'SF Mono', Menlo, monospace">10</text><text x="47" y="103.0" text-anchor="end" font-size="10" fill="#57606a" font-family="ui-monospace, SFMono-Regular, 'SF Mono', Menlo, monospace">15</text><text x="47" y="58.6" text-anchor="end" font-size="10" fill="#57606a" font-family="ui-monospace, SFMono-Regular, 'SF Mono', Menlo, monospace">20</text><text x="47" y="14.3" text-anchor="end" font-size="10" fill="#57606a" font-family="ui-monospace, SFMono-Regular, 'SF Mono', Menlo, monospace">25</text>

  <!-- x-axis labels -->
  <text x="52.0" y="248" text-anchor="middle" font-size="10" fill="#8c959f" font-family="ui-monospace, SFMono-Regular, 'SF Mono', Menlo, monospace">05-11</text><text x="511.3" y="248" text-anchor="middle" font-size="10" fill="#8c959f" font-family="ui-monospace, SFMono-Regular, 'SF Mono', Menlo, monospace">06-15</text><text x="143.9" y="248" text-anchor="middle" font-size="10" fill="#8c959f" font-family="ui-monospace, SFMono-Regular, 'SF Mono', Menlo, monospace">05-18</text><text x="603.2" y="248" text-anchor="middle" font-size="10" fill="#8c959f" font-family="ui-monospace, SFMono-Regular, 'SF Mono', Menlo, monospace">06-22</text><text x="235.7" y="248" text-anchor="middle" font-size="10" fill="#8c959f" font-family="ui-monospace, SFMono-Regular, 'SF Mono', Menlo, monospace">05-25</text><text x="695.0" y="248" text-anchor="middle" font-size="10" fill="#8c959f" font-family="ui-monospace, SFMono-Regular, 'SF Mono', Menlo, monospace">06-29</text><text x="327.6" y="248" text-anchor="middle" font-size="10" fill="#8c959f" font-family="ui-monospace, SFMono-Regular, 'SF Mono', Menlo, monospace">06-01</text><text x="786.9" y="248" text-anchor="middle" font-size="10" fill="#8c959f" font-family="ui-monospace, SFMono-Regular, 'SF Mono', Menlo, monospace">07-06</text><text x="800.0" y="248" text-anchor="middle" font-size="10" fill="#8c959f" font-family="ui-monospace, SFMono-Regular, 'SF Mono', Menlo, monospace">07-07</text><text x="419.4" y="248" text-anchor="middle" font-size="10" fill="#8c959f" font-family="ui-monospace, SFMono-Regular, 'SF Mono', Menlo, monospace">06-08</text>

  <!-- legend -->
  <rect x="60" y="262" width="16" height="3" fill="#4e79a7" rx="1"/><text x="80" y="268" font-size="11" fill="#57606a" font-family="-apple-system, BlinkMacSystemFont, 'Segoe UI', sans-serif">Total clones (76)</text><line x1="230" y1="264" x2="246" y2="264" stroke="#f28e2b" stroke-width="2" stroke-dasharray="5,3"/><text x="250" y="268" font-size="11" fill="#57606a" font-family="-apple-system, BlinkMacSystemFont, 'Segoe UI', sans-serif">Unique cloners</text>

</svg>