<svg xmlns="http://www.w3.org/2000/svg" viewBox="0 0 820 280" width="820" height="280">

  <!-- title -->
  <text x="52" y="18" font-size="13" font-weight="600"
        fill="#24292f" font-family="-apple-system, BlinkMacSystemFont, 'Segoe UI', sans-serif"
        >Clone traffic — ci-helpers</text>
  <text x="800" y="18" font-size="10" fill="#8c959f"
        font-family="ui-monospace, SFMono-Regular, 'SF Mono', Menlo, monospace" text-anchor="end">2026-07-05</text>

  <!-- grid -->
  <line x1="52" y1="232.0" x2="800" y2="232.0" stroke="#e8e8e8" stroke-width="1"/><line x1="52" y1="183.5" x2="800" y2="183.5" stroke="#e8e8e8" stroke-width="1"/><line x1="52" y1="135.1" x2="800" y2="135.1" stroke="#e8e8e8" stroke-width="1"/><line x1="52" y1="86.6" x2="800" y2="86.6" stroke="#e8e8e8" stroke-width="1"/><line x1="52" y1="38.2" x2="800" y2="38.2" stroke="#e8e8e8" stroke-width="1"/><line x1="52" y1="-10.3" x2="800" y2="-10.3" stroke="#e8e8e8" stroke-width="1"/>

  <!-- area fill -->
  <path d="M52.0,232.0 L52.0,232.0 L66.1,231.7 L80.2,231.5 L94.3,224.4 L108.5,231.2 L122.6,231.8 L136.7,232.0 L150.8,231.0 L164.9,232.0 L179.0,231.7 L193.1,147.7 L207.2,197.4 L221.4,155.9 L235.5,212.1 L249.6,194.9 L263.7,206.6 L277.8,231.5 L291.9,227.5 L306.0,203.7 L320.2,225.4 L334.3,231.5 L348.4,221.2 L362.5,231.4 L376.6,231.8 L390.7,208.4 L404.8,230.4 L418.9,230.2 L433.1,232.0 L447.2,227.6 L461.3,227.5 L475.4,205.7 L489.5,207.3 L503.6,142.5 L517.7,174.5 L531.8,214.1 L546.0,28.0 L560.1,221.7 L574.2,198.4 L588.3,225.2 L602.4,196.3 L616.5,230.2 L630.6,231.0 L644.8,47.1 L658.9,222.3 L673.0,224.9 L687.1,231.7 L701.2,232.0 L715.3,232.0 L729.4,193.2 L743.5,221.2 L757.7,230.7 L771.8,231.4 L785.9,231.7 L800.0,231.7 L800.0,232.0 L52.0,232.0Z" fill="#4e79a7" opacity="0.12"/>

  <!-- lines -->
  <polyline points="52.0,232.0 66.1,231.7 80.2,231.5 94.3,224.4 108.5,231.2 122.6,231.8 136.7,232.0 150.8,231.0 164.9,232.0 179.0,231.7 193.1,147.7 207.2,197.4 221.4,155.9 235.5,212.1 249.6,194.9 263.7,206.6 277.8,231.5 291.9,227.5 306.0,203.7 320.2,225.4 334.3,231.5 348.4,221.2 362.5,231.4 376.6,231.8 390.7,208.4 404.8,230.4 418.9,230.2 433.1,232.0 447.2,227.6 461.3,227.5 475.4,205.7 489.5,207.3 503.6,142.5 517.7,174.5 531.8,214.1 546.0,28.0 560.1,221.7 574.2,198.4 588.3,225.2 602.4,196.3 616.5,230.2 630.6,231.0 644.8,47.1 658.9,222.3 673.0,224.9 687.1,231.7 701.2,232.0 715.3,232.0 729.4,193.2 743.5,221.2 757.7,230.7 771.8,231.4 785.9,231.7 800.0,231.7"
            fill="none" stroke="#4e79a7"
            stroke-width="2" stroke-linejoin="round"/>
  <polyline points="52.0,232.0 66.1,231.7 80.2,231.5 94.3,228.8 108.5,231.4 122.6,231.8 136.7,232.0 150.8,231.8 164.9,232.0 179.0,231.7 193.1,222.5 207.2,216.0 221.4,202.6 235.5,227.8 249.6,221.5 263.7,223.1 277.8,231.5 291.9,231.8 306.0,220.2 320.2,230.7 334.3,231.5 348.4,230.7 362.5,231.5 376.6,231.8 390.7,223.9 404.8,230.7 418.9,231.2 433.1,232.0 447.2,231.2 461.3,230.4 475.4,221.2 489.5,222.1 503.6,207.8 517.7,213.3 531.8,228.9 546.0,209.1 560.1,229.9 574.2,224.4 588.3,230.4 602.4,224.6 616.5,230.9 630.6,231.5 644.8,214.1 658.9,229.1 673.0,230.9 687.1,231.7 701.2,232.0 715.3,232.0 729.4,227.0 743.5,228.3 757.7,231.4 771.8,231.4 785.9,231.7 800.0,231.7"
            fill="none" stroke="#f28e2b"
            stroke-width="2" stroke-linejoin="round"
            stroke-dasharray="5,3"/>

  <!-- dots -->
  <circle cx="52.0" cy="232.0" r="3" fill="#4e79a7"/><circle cx="66.1" cy="231.7" r="3" fill="#4e79a7"/><circle cx="80.2" cy="231.5" r="3" fill="#4e79a7"/><circle cx="94.3" cy="224.4" r="3" fill="#4e79a7"/><circle cx="108.5" cy="231.2" r="3" fill="#4e79a7"/><circle cx="122.6" cy="231.8" r="3" fill="#4e79a7"/><circle cx="136.7" cy="232.0" r="3" fill="#4e79a7"/><circle cx="150.8" cy="231.0" r="3" fill="#4e79a7"/><circle cx="164.9" cy="232.0" r="3" fill="#4e79a7"/><circle cx="179.0" cy="231.7" r="3" fill="#4e79a7"/><circle cx="193.1" cy="147.7" r="3" fill="#4e79a7"/><circle cx="207.2" cy="197.4" r="3" fill="#4e79a7"/><circle cx="221.4" cy="155.9" r="3" fill="#4e79a7"/><circle cx="235.5" cy="212.1" r="3" fill="#4e79a7"/><circle cx="249.6" cy="194.9" r="3" fill="#4e79a7"/><circle cx="263.7" cy="206.6" r="3" fill="#4e79a7"/><circle cx="277.8" cy="231.5" r="3" fill="#4e79a7"/><circle cx="291.9" cy="227.5" r="3" fill="#4e79a7"/><circle cx="306.0" cy="203.7" r="3" fill="#4e79a7"/><circle cx="320.2" cy="225.4" r="3" fill="#4e79a7"/><circle cx="334.3" cy="231.5" r="3" fill="#4e79a7"/><circle cx="348.4" cy="221.2" r="3" fill="#4e79a7"/><circle cx="362.5" cy="231.4" r="3" fill="#4e79a7"/><circle cx="376.6" cy="231.8" r="3" fill="#4e79a7"/><circle cx="390.7" cy="208.4" r="3" fill="#4e79a7"/><circle cx="404.8" cy="230.4" r="3" fill="#4e79a7"/><circle cx="418.9" cy="230.2" r="3" fill="#4e79a7"/><circle cx="433.1" cy="232.0" r="3" fill="#4e79a7"/><circle cx="447.2" cy="227.6" r="3" fill="#4e79a7"/><circle cx="461.3" cy="227.5" r="3" fill="#4e79a7"/><circle cx="475.4" cy="205.7" r="3" fill="#4e79a7"/><circle cx="489.5" cy="207.3" r="3" fill="#4e79a7"/><circle cx="503.6" cy="142.5" r="3" fill="#4e79a7"/><circle cx="517.7" cy="174.5" r="3" fill="#4e79a7"/><circle cx="531.8" cy="214.1" r="3" fill="#4e79a7"/><circle cx="546.0" cy="28.0" r="3" fill="#4e79a7"/><circle cx="560.1" cy="221.7" r="3" fill="#4e79a7"/><circle cx="574.2" cy="198.4" r="3" fill="#4e79a7"/><circle cx="588.3" cy="225.2" r="3" fill="#4e79a7"/><circle cx="602.4" cy="196.3" r="3" fill="#4e79a7"/><circle cx="616.5" cy="230.2" r="3" fill="#4e79a7"/><circle cx="630.6" cy="231.0" r="3" fill="#4e79a7"/><circle cx="644.8" cy="47.1" r="3" fill="#4e79a7"/><circle cx="658.9" cy="222.3" r="3" fill="#4e79a7"/><circle cx="673.0" cy="224.9" r="3" fill="#4e79a7"/><circle cx="687.1" cy="231.7" r="3" fill="#4e79a7"/><circle cx="701.2" cy="232.0" r="3" fill="#4e79a7"/><circle cx="715.3" cy="232.0" r="3" fill="#4e79a7"/><circle cx="729.4" cy="193.2" r="3" fill="#4e79a7"/><circle cx="743.5" cy="221.2" r="3" fill="#4e79a7"/><circle cx="757.7" cy="230.7" r="3" fill="#4e79a7"/><circle cx="771.8" cy="231.4" r="3" fill="#4e79a7"/><circle cx="785.9" cy="231.7" r="3" fill="#4e79a7"/><circle cx="800.0" cy="231.7" r="3" fill="#4e79a7"/>
  <circle cx="52.0" cy="232.0" r="3" fill="#f28e2b"/><circle cx="66.1" cy="231.7" r="3" fill="#f28e2b"/><circle cx="80.2" cy="231.5" r="3" fill="#f28e2b"/><circle cx="94.3" cy="228.8" r="3" fill="#f28e2b"/><circle cx="108.5" cy="231.4" r="3" fill="#f28e2b"/><circle cx="122.6" cy="231.8" r="3" fill="#f28e2b"/><circle cx="136.7" cy="232.0" r="3" fill="#f28e2b"/><circle cx="150.8" cy="231.8" r="3" fill="#f28e2b"/><circle cx="164.9" cy="232.0" r="3" fill="#f28e2b"/><circle cx="179.0" cy="231.7" r="3" fill="#f28e2b"/><circle cx="193.1" cy="222.5" r="3" fill="#f28e2b"/><circle cx="207.2" cy="216.0" r="3" fill="#f28e2b"/><circle cx="221.4" cy="202.6" r="3" fill="#f28e2b"/><circle cx="235.5" cy="227.8" r="3" fill="#f28e2b"/><circle cx="249.6" cy="221.5" r="3" fill="#f28e2b"/><circle cx="263.7" cy="223.1" r="3" fill="#f28e2b"/><circle cx="277.8" cy="231.5" r="3" fill="#f28e2b"/><circle cx="291.9" cy="231.8" r="3" fill="#f28e2b"/><circle cx="306.0" cy="220.2" r="3" fill="#f28e2b"/><circle cx="320.2" cy="230.7" r="3" fill="#f28e2b"/><circle cx="334.3" cy="231.5" r="3" fill="#f28e2b"/><circle cx="348.4" cy="230.7" r="3" fill="#f28e2b"/><circle cx="362.5" cy="231.5" r="3" fill="#f28e2b"/><circle cx="376.6" cy="231.8" r="3" fill="#f28e2b"/><circle cx="390.7" cy="223.9" r="3" fill="#f28e2b"/><circle cx="404.8" cy="230.7" r="3" fill="#f28e2b"/><circle cx="418.9" cy="231.2" r="3" fill="#f28e2b"/><circle cx="433.1" cy="232.0" r="3" fill="#f28e2b"/><circle cx="447.2" cy="231.2" r="3" fill="#f28e2b"/><circle cx="461.3" cy="230.4" r="3" fill="#f28e2b"/><circle cx="475.4" cy="221.2" r="3" fill="#f28e2b"/><circle cx="489.5" cy="222.1" r="3" fill="#f28e2b"/><circle cx="503.6" cy="207.8" r="3" fill="#f28e2b"/><circle cx="517.7" cy="213.3" r="3" fill="#f28e2b"/><circle cx="531.8" cy="228.9" r="3" fill="#f28e2b"/><circle cx="546.0" cy="209.1" r="3" fill="#f28e2b"/><circle cx="560.1" cy="229.9" r="3" fill="#f28e2b"/><circle cx="574.2" cy="224.4" r="3" fill="#f28e2b"/><circle cx="588.3" cy="230.4" r="3" fill="#f28e2b"/><circle cx="602.4" cy="224.6" r="3" fill="#f28e2b"/><circle cx="616.5" cy="230.9" r="3" fill="#f28e2b"/><circle cx="630.6" cy="231.5" r="3" fill="#f28e2b"/><circle cx="644.8" cy="214.1" r="3" fill="#f28e2b"/><circle cx="658.9" cy="229.1" r="3" fill="#f28e2b"/><circle cx="673.0" cy="230.9" r="3" fill="#f28e2b"/><circle cx="687.1" cy="231.7" r="3" fill="#f28e2b"/><circle cx="701.2" cy="232.0" r="3" fill="#f28e2b"/><circle cx="715.3" cy="232.0" r="3" fill="#f28e2b"/><circle cx="729.4" cy="227.0" r="3" fill="#f28e2b"/><circle cx="743.5" cy="228.3" r="3" fill="#f28e2b"/><circle cx="757.7" cy="231.4" r="3" fill="#f28e2b"/><circle cx="771.8" cy="231.4" r="3" fill="#f28e2b"/><circle cx="785.9" cy="231.7" r="3" fill="#f28e2b"/><circle cx="800.0" cy="231.7" r="3" fill="#f28e2b"/>

  <!-- axes -->
  <line x1="52" y1="28" x2="52" y2="232"
        stroke="#cccccc" stroke-width="1"/>
  <line x1="52" y1="232" x2="800" y2="232"
        stroke="#cccccc" stroke-width="1"/>

  <!-- y-axis labels -->
  <text x="47" y="236.0" text-anchor="end" font-size="10" fill="#57606a" font-family="ui-monospace, SFMono-Regular, 'SF Mono', Menlo, monospace">0</text><text x="47" y="187.5" text-anchor="end" font-size="10" fill="#57606a" font-family="ui-monospace, SFMono-Regular, 'SF Mono', Menlo, monospace">300</text><text x="47" y="139.1" text-anchor="end" font-size="10" fill="#57606a" font-family="ui-monospace, SFMono-Regular, 'SF Mono', Menlo, monospace">600</text><text x="47" y="90.6" text-anchor="end" font-size="10" fill="#57606a" font-family="ui-monospace, SFMono-Regular, 'SF Mono', Menlo, monospace">900</text><text x="47" y="42.2" text-anchor="end" font-size="10" fill="#57606a" font-family="ui-monospace, SFMono-Regular, 'SF Mono', Menlo, monospace">1,200</text><text x="47" y="-6.3" text-anchor="end" font-size="10" fill="#57606a" font-family="ui-monospace, SFMono-Regular, 'SF Mono', Menlo, monospace">1,500</text>

  <!-- x-axis labels -->
  <text x="52.0" y="248" text-anchor="middle" font-size="10" fill="#8c959f" font-family="ui-monospace, SFMono-Regular, 'SF Mono', Menlo, monospace">05-11</text><text x="560.1" y="248" text-anchor="middle" font-size="10" fill="#8c959f" font-family="ui-monospace, SFMono-Regular, 'SF Mono', Menlo, monospace">06-16</text><text x="136.7" y="248" text-anchor="middle" font-size="10" fill="#8c959f" font-family="ui-monospace, SFMono-Regular, 'SF Mono', Menlo, monospace">05-17</text><text x="644.8" y="248" text-anchor="middle" font-size="10" fill="#8c959f" font-family="ui-monospace, SFMono-Regular, 'SF Mono', Menlo, monospace">06-22</text><text x="221.4" y="248" text-anchor="middle" font-size="10" fill="#8c959f" font-family="ui-monospace, SFMono-Regular, 'SF Mono', Menlo, monospace">05-23</text><text x="729.4" y="248" text-anchor="middle" font-size="10" fill="#8c959f" font-family="ui-monospace, SFMono-Regular, 'SF Mono', Menlo, monospace">06-28</text><text x="306.0" y="248" text-anchor="middle" font-size="10" fill="#8c959f" font-family="ui-monospace, SFMono-Regular, 'SF Mono', Menlo, monospace">05-29</text><text x="800.0" y="248" text-anchor="middle" font-size="10" fill="#8c959f" font-family="ui-monospace, SFMono-Regular, 'SF Mono', Menlo, monospace">07-03</text><text x="390.7" y="248" text-anchor="middle" font-size="10" fill="#8c959f" font-family="ui-monospace, SFMono-Regular, 'SF Mono', Menlo, monospace">06-04</text><text x="475.4" y="248" text-anchor="middle" font-size="10" fill="#8c959f" font-family="ui-monospace, SFMono-Regular, 'SF Mono', Menlo, monospace">06-10</text>

  <!-- legend -->
  <rect x="60" y="262" width="16" height="3" fill="#4e79a7" rx="1"/><text x="80" y="268" font-size="11" fill="#57606a" font-family="-apple-system, BlinkMacSystemFont, 'Segoe UI', sans-serif">Total clones (7,053)</text><line x1="230" y1="264" x2="246" y2="264" stroke="#f28e2b" stroke-width="2" stroke-dasharray="5,3"/><text x="250" y="268" font-size="11" fill="#57606a" font-family="-apple-system, BlinkMacSystemFont, 'Segoe UI', sans-serif">Unique cloners</text>

</svg>