<svg xmlns="http://www.w3.org/2000/svg" viewBox="0 0 820 280" width="820" height="280">

  <!-- title -->
  <text x="52" y="18" font-size="13" font-weight="600"
        fill="#24292f" font-family="-apple-system, BlinkMacSystemFont, 'Segoe UI', sans-serif"
        >Clone traffic — ci-helpers</text>
  <text x="800" y="18" font-size="10" fill="#8c959f"
        font-family="ui-monospace, SFMono-Regular, 'SF Mono', Menlo, monospace" text-anchor="end">2026-09-21</text>

  <!-- grid -->
  <line x1="52" y1="232.0" x2="800" y2="232.0" stroke="#e8e8e8" stroke-width="1"/><line x1="52" y1="183.5" x2="800" y2="183.5" stroke="#e8e8e8" stroke-width="1"/><line x1="52" y1="135.1" x2="800" y2="135.1" stroke="#e8e8e8" stroke-width="1"/><line x1="52" y1="86.6" x2="800" y2="86.6" stroke="#e8e8e8" stroke-width="1"/><line x1="52" y1="38.2" x2="800" y2="38.2" stroke="#e8e8e8" stroke-width="1"/><line x1="52" y1="-10.3" x2="800" y2="-10.3" stroke="#e8e8e8" stroke-width="1"/>

  <!-- area fill -->
  <path d="M52.0,232.0 L52.0,232.0 L57.9,231.7 L63.9,231.5 L69.8,224.4 L75.7,231.2 L81.7,231.8 L87.6,232.0 L93.6,231.0 L99.5,232.0 L105.4,231.7 L111.4,147.7 L117.3,197.4 L123.2,155.9 L129.2,212.1 L135.1,194.9 L141.0,206.6 L147.0,231.5 L152.9,227.5 L158.9,203.7 L164.8,225.4 L170.7,231.5 L176.7,221.2 L182.6,231.4 L188.5,231.8 L194.5,208.4 L200.4,230.4 L206.3,230.2 L212.3,232.0 L218.2,227.6 L224.2,227.5 L230.1,205.7 L236.0,207.3 L242.0,142.5 L247.9,174.5 L253.8,214.1 L259.8,28.0 L265.7,221.7 L271.7,198.4 L277.6,225.2 L283.5,196.3 L289.5,230.2 L295.4,231.0 L301.3,47.1 L307.3,222.3 L313.2,224.9 L319.1,231.7 L325.1,232.0 L331.0,232.0 L337.0,193.2 L342.9,221.2 L348.8,230.7 L354.8,231.4 L360.7,231.7 L366.6,231.7 L372.6,231.4 L378.5,231.8 L384.4,219.9 L390.4,227.6 L396.3,231.7 L402.3,231.0 L408.2,231.7 L414.1,231.7 L420.1,232.0 L426.0,224.4 L431.9,230.1 L437.9,230.7 L443.8,229.6 L449.7,231.8 L455.7,232.0 L461.6,232.0 L467.6,229.6 L473.5,227.8 L479.4,229.6 L485.4,231.8 L491.3,231.2 L497.2,231.8 L503.2,224.1 L509.1,219.1 L515.0,230.4 L521.0,230.9 L526.9,232.0 L532.9,225.5 L538.8,227.6 L544.7,230.7 L550.7,228.4 L556.6,226.2 L562.5,230.9 L568.5,230.9 L574.4,231.7 L580.3,216.7 L586.3,223.0 L592.2,227.6 L598.2,232.0 L604.1,232.0 L610.0,232.0 L616.0,231.5 L621.9,231.8 L627.8,231.8 L633.8,229.4 L639.7,231.7 L645.7,231.8 L651.6,232.0 L657.5,231.7 L663.5,232.0 L669.4,232.0 L675.3,232.0 L681.3,231.8 L687.2,229.4 L693.1,228.8 L699.1,219.2 L705.0,224.7 L711.0,231.7 L716.9,232.0 L722.8,231.5 L728.8,222.6 L734.7,228.9 L740.6,231.4 L746.6,173.9 L752.5,228.1 L758.4,226.0 L764.4,224.4 L770.3,213.6 L776.3,220.4 L782.2,230.5 L788.1,224.4 L794.1,189.4 L800.0,195.7 L800.0,232.0 L52.0,232.0Z" fill="#4e79a7" opacity="0.12"/>

  <!-- lines -->
  <polyline points="52.0,232.0 57.9,231.7 63.9,231.5 69.8,224.4 75.7,231.2 81.7,231.8 87.6,232.0 93.6,231.0 99.5,232.0 105.4,231.7 111.4,147.7 117.3,197.4 123.2,155.9 129.2,212.1 135.1,194.9 141.0,206.6 147.0,231.5 152.9,227.5 158.9,203.7 164.8,225.4 170.7,231.5 176.7,221.2 182.6,231.4 188.5,231.8 194.5,208.4 200.4,230.4 206.3,230.2 212.3,232.0 218.2,227.6 224.2,227.5 230.1,205.7 236.0,207.3 242.0,142.5 247.9,174.5 253.8,214.1 259.8,28.0 265.7,221.7 271.7,198.4 277.6,225.2 283.5,196.3 289.5,230.2 295.4,231.0 301.3,47.1 307.3,222.3 313.2,224.9 319.1,231.7 325.1,232.0 331.0,232.0 337.0,193.2 342.9,221.2 348.8,230.7 354.8,231.4 360.7,231.7 366.6,231.7 372.6,231.4 378.5,231.8 384.4,219.9 390.4,227.6 396.3,231.7 402.3,231.0 408.2,231.7 414.1,231.7 420.1,232.0 426.0,224.4 431.9,230.1 437.9,230.7 443.8,229.6 449.7,231.8 455.7,232.0 461.6,232.0 467.6,229.6 473.5,227.8 479.4,229.6 485.4,231.8 491.3,231.2 497.2,231.8 503.2,224.1 509.1,219.1 515.0,230.4 521.0,230.9 526.9,232.0 532.9,225.5 538.8,227.6 544.7,230.7 550.7,228.4 556.6,226.2 562.5,230.9 568.5,230.9 574.4,231.7 580.3,216.7 586.3,223.0 592.2,227.6 598.2,232.0 604.1,232.0 610.0,232.0 616.0,231.5 621.9,231.8 627.8,231.8 633.8,229.4 639.7,231.7 645.7,231.8 651.6,232.0 657.5,231.7 663.5,232.0 669.4,232.0 675.3,232.0 681.3,231.8 687.2,229.4 693.1,228.8 699.1,219.2 705.0,224.7 711.0,231.7 716.9,232.0 722.8,231.5 728.8,222.6 734.7,228.9 740.6,231.4 746.6,173.9 752.5,228.1 758.4,226.0 764.4,224.4 770.3,213.6 776.3,220.4 782.2,230.5 788.1,224.4 794.1,189.4 800.0,195.7"
            fill="none" stroke="#4e79a7"
            stroke-width="2" stroke-linejoin="round"/>
  <polyline points="52.0,232.0 57.9,231.7 63.9,231.5 69.8,228.8 75.7,231.4 81.7,231.8 87.6,232.0 93.6,231.8 99.5,232.0 105.4,231.7 111.4,222.5 117.3,216.0 123.2,202.6 129.2,227.8 135.1,221.5 141.0,223.1 147.0,231.5 152.9,231.8 158.9,220.2 164.8,230.7 170.7,231.5 176.7,230.7 182.6,231.5 188.5,231.8 194.5,223.9 200.4,230.7 206.3,231.2 212.3,232.0 218.2,231.2 224.2,230.4 230.1,221.2 236.0,222.1 242.0,207.8 247.9,213.3 253.8,228.9 259.8,209.1 265.7,229.9 271.7,224.4 277.6,230.4 283.5,224.6 289.5,230.9 295.4,231.5 301.3,214.1 307.3,229.1 313.2,230.9 319.1,231.7 325.1,232.0 331.0,232.0 337.0,227.0 342.9,228.3 348.8,231.4 354.8,231.4 360.7,231.7 366.6,231.7 372.6,231.5 378.5,231.8 384.4,230.2 390.4,230.4 396.3,231.7 402.3,231.5 408.2,231.7 414.1,231.7 420.1,232.0 426.0,231.0 431.9,231.5 437.9,231.7 443.8,231.4 449.7,231.8 455.7,232.0 461.6,232.0 467.6,231.2 473.5,229.9 479.4,231.2 485.4,231.8 491.3,231.5 497.2,231.8 503.2,229.3 509.1,227.3 515.0,231.2 521.0,230.9 526.9,232.0 532.9,229.3 538.8,229.7 544.7,231.7 550.7,231.0 556.6,229.4 562.5,231.0 568.5,231.4 574.4,231.7 580.3,226.7 586.3,227.6 592.2,229.1 598.2,232.0 604.1,232.0 610.0,232.0 616.0,231.5 621.9,231.8 627.8,231.8 633.8,231.4 639.7,231.7 645.7,231.8 651.6,232.0 657.5,231.7 663.5,232.0 669.4,232.0 675.3,232.0 681.3,231.8 687.2,230.9 693.1,230.4 699.1,228.3 705.0,229.7 711.0,231.8 716.9,232.0 722.8,231.5 728.8,229.7 734.7,229.9 740.6,231.4 746.6,223.4 752.5,229.9 758.4,228.6 764.4,228.9 770.3,227.6 776.3,228.9 782.2,231.0 788.1,230.2 794.1,221.5 800.0,222.3"
            fill="none" stroke="#f28e2b"
            stroke-width="2" stroke-linejoin="round"
            stroke-dasharray="5,3"/>

  <!-- dots -->
  <circle cx="52.0" cy="232.0" r="3" fill="#4e79a7"/><circle cx="57.9" cy="231.7" r="3" fill="#4e79a7"/><circle cx="63.9" cy="231.5" r="3" fill="#4e79a7"/><circle cx="69.8" cy="224.4" r="3" fill="#4e79a7"/><circle cx="75.7" cy="231.2" r="3" fill="#4e79a7"/><circle cx="81.7" cy="231.8" r="3" fill="#4e79a7"/><circle cx="87.6" cy="232.0" r="3" fill="#4e79a7"/><circle cx="93.6" cy="231.0" r="3" fill="#4e79a7"/><circle cx="99.5" cy="232.0" r="3" fill="#4e79a7"/><circle cx="105.4" cy="231.7" r="3" fill="#4e79a7"/><circle cx="111.4" cy="147.7" r="3" fill="#4e79a7"/><circle cx="117.3" cy="197.4" r="3" fill="#4e79a7"/><circle cx="123.2" cy="155.9" r="3" fill="#4e79a7"/><circle cx="129.2" cy="212.1" r="3" fill="#4e79a7"/><circle cx="135.1" cy="194.9" r="3" fill="#4e79a7"/><circle cx="141.0" cy="206.6" r="3" fill="#4e79a7"/><circle cx="147.0" cy="231.5" r="3" fill="#4e79a7"/><circle cx="152.9" cy="227.5" r="3" fill="#4e79a7"/><circle cx="158.9" cy="203.7" r="3" fill="#4e79a7"/><circle cx="164.8" cy="225.4" r="3" fill="#4e79a7"/><circle cx="170.7" cy="231.5" r="3" fill="#4e79a7"/><circle cx="176.7" cy="221.2" r="3" fill="#4e79a7"/><circle cx="182.6" cy="231.4" r="3" fill="#4e79a7"/><circle cx="188.5" cy="231.8" r="3" fill="#4e79a7"/><circle cx="194.5" cy="208.4" r="3" fill="#4e79a7"/><circle cx="200.4" cy="230.4" r="3" fill="#4e79a7"/><circle cx="206.3" cy="230.2" r="3" fill="#4e79a7"/><circle cx="212.3" cy="232.0" r="3" fill="#4e79a7"/><circle cx="218.2" cy="227.6" r="3" fill="#4e79a7"/><circle cx="224.2" cy="227.5" r="3" fill="#4e79a7"/><circle cx="230.1" cy="205.7" r="3" fill="#4e79a7"/><circle cx="236.0" cy="207.3" r="3" fill="#4e79a7"/><circle cx="242.0" cy="142.5" r="3" fill="#4e79a7"/><circle cx="247.9" cy="174.5" r="3" fill="#4e79a7"/><circle cx="253.8" cy="214.1" r="3" fill="#4e79a7"/><circle cx="259.8" cy="28.0" r="3" fill="#4e79a7"/><circle cx="265.7" cy="221.7" r="3" fill="#4e79a7"/><circle cx="271.7" cy="198.4" r="3" fill="#4e79a7"/><circle cx="277.6" cy="225.2" r="3" fill="#4e79a7"/><circle cx="283.5" cy="196.3" r="3" fill="#4e79a7"/><circle cx="289.5" cy="230.2" r="3" fill="#4e79a7"/><circle cx="295.4" cy="231.0" r="3" fill="#4e79a7"/><circle cx="301.3" cy="47.1" r="3" fill="#4e79a7"/><circle cx="307.3" cy="222.3" r="3" fill="#4e79a7"/><circle cx="313.2" cy="224.9" r="3" fill="#4e79a7"/><circle cx="319.1" cy="231.7" r="3" fill="#4e79a7"/><circle cx="325.1" cy="232.0" r="3" fill="#4e79a7"/><circle cx="331.0" cy="232.0" r="3" fill="#4e79a7"/><circle cx="337.0" cy="193.2" r="3" fill="#4e79a7"/><circle cx="342.9" cy="221.2" r="3" fill="#4e79a7"/><circle cx="348.8" cy="230.7" r="3" fill="#4e79a7"/><circle cx="354.8" cy="231.4" r="3" fill="#4e79a7"/><circle cx="360.7" cy="231.7" r="3" fill="#4e79a7"/><circle cx="366.6" cy="231.7" r="3" fill="#4e79a7"/><circle cx="372.6" cy="231.4" r="3" fill="#4e79a7"/><circle cx="378.5" cy="231.8" r="3" fill="#4e79a7"/><circle cx="384.4" cy="219.9" r="3" fill="#4e79a7"/><circle cx="390.4" cy="227.6" r="3" fill="#4e79a7"/><circle cx="396.3" cy="231.7" r="3" fill="#4e79a7"/><circle cx="402.3" cy="231.0" r="3" fill="#4e79a7"/><circle cx="408.2" cy="231.7" r="3" fill="#4e79a7"/><circle cx="414.1" cy="231.7" r="3" fill="#4e79a7"/><circle cx="420.1" cy="232.0" r="3" fill="#4e79a7"/><circle cx="426.0" cy="224.4" r="3" fill="#4e79a7"/><circle cx="431.9" cy="230.1" r="3" fill="#4e79a7"/><circle cx="437.9" cy="230.7" r="3" fill="#4e79a7"/><circle cx="443.8" cy="229.6" r="3" fill="#4e79a7"/><circle cx="449.7" cy="231.8" r="3" fill="#4e79a7"/><circle cx="455.7" cy="232.0" r="3" fill="#4e79a7"/><circle cx="461.6" cy="232.0" r="3" fill="#4e79a7"/><circle cx="467.6" cy="229.6" r="3" fill="#4e79a7"/><circle cx="473.5" cy="227.8" r="3" fill="#4e79a7"/><circle cx="479.4" cy="229.6" r="3" fill="#4e79a7"/><circle cx="485.4" cy="231.8" r="3" fill="#4e79a7"/><circle cx="491.3" cy="231.2" r="3" fill="#4e79a7"/><circle cx="497.2" cy="231.8" r="3" fill="#4e79a7"/><circle cx="503.2" cy="224.1" r="3" fill="#4e79a7"/><circle cx="509.1" cy="219.1" r="3" fill="#4e79a7"/><circle cx="515.0" cy="230.4" r="3" fill="#4e79a7"/><circle cx="521.0" cy="230.9" r="3" fill="#4e79a7"/><circle cx="526.9" cy="232.0" r="3" fill="#4e79a7"/><circle cx="532.9" cy="225.5" r="3" fill="#4e79a7"/><circle cx="538.8" cy="227.6" r="3" fill="#4e79a7"/><circle cx="544.7" cy="230.7" r="3" fill="#4e79a7"/><circle cx="550.7" cy="228.4" r="3" fill="#4e79a7"/><circle cx="556.6" cy="226.2" r="3" fill="#4e79a7"/><circle cx="562.5" cy="230.9" r="3" fill="#4e79a7"/><circle cx="568.5" cy="230.9" r="3" fill="#4e79a7"/><circle cx="574.4" cy="231.7" r="3" fill="#4e79a7"/><circle cx="580.3" cy="216.7" r="3" fill="#4e79a7"/><circle cx="586.3" cy="223.0" r="3" fill="#4e79a7"/><circle cx="592.2" cy="227.6" r="3" fill="#4e79a7"/><circle cx="598.2" cy="232.0" r="3" fill="#4e79a7"/><circle cx="604.1" cy="232.0" r="3" fill="#4e79a7"/><circle cx="610.0" cy="232.0" r="3" fill="#4e79a7"/><circle cx="616.0" cy="231.5" r="3" fill="#4e79a7"/><circle cx="621.9" cy="231.8" r="3" fill="#4e79a7"/><circle cx="627.8" cy="231.8" r="3" fill="#4e79a7"/><circle cx="633.8" cy="229.4" r="3" fill="#4e79a7"/><circle cx="639.7" cy="231.7" r="3" fill="#4e79a7"/><circle cx="645.7" cy="231.8" r="3" fill="#4e79a7"/><circle cx="651.6" cy="232.0" r="3" fill="#4e79a7"/><circle cx="657.5" cy="231.7" r="3" fill="#4e79a7"/><circle cx="663.5" cy="232.0" r="3" fill="#4e79a7"/><circle cx="669.4" cy="232.0" r="3" fill="#4e79a7"/><circle cx="675.3" cy="232.0" r="3" fill="#4e79a7"/><circle cx="681.3" cy="231.8" r="3" fill="#4e79a7"/><circle cx="687.2" cy="229.4" r="3" fill="#4e79a7"/><circle cx="693.1" cy="228.8" r="3" fill="#4e79a7"/><circle cx="699.1" cy="219.2" r="3" fill="#4e79a7"/><circle cx="705.0" cy="224.7" r="3" fill="#4e79a7"/><circle cx="711.0" cy="231.7" r="3" fill="#4e79a7"/><circle cx="716.9" cy="232.0" r="3" fill="#4e79a7"/><circle cx="722.8" cy="231.5" r="3" fill="#4e79a7"/><circle cx="728.8" cy="222.6" r="3" fill="#4e79a7"/><circle cx="734.7" cy="228.9" r="3" fill="#4e79a7"/><circle cx="740.6" cy="231.4" r="3" fill="#4e79a7"/><circle cx="746.6" cy="173.9" r="3" fill="#4e79a7"/><circle cx="752.5" cy="228.1" r="3" fill="#4e79a7"/><circle cx="758.4" cy="226.0" r="3" fill="#4e79a7"/><circle cx="764.4" cy="224.4" r="3" fill="#4e79a7"/><circle cx="770.3" cy="213.6" r="3" fill="#4e79a7"/><circle cx="776.3" cy="220.4" r="3" fill="#4e79a7"/><circle cx="782.2" cy="230.5" r="3" fill="#4e79a7"/><circle cx="788.1" cy="224.4" r="3" fill="#4e79a7"/><circle cx="794.1" cy="189.4" r="3" fill="#4e79a7"/><circle cx="800.0" cy="195.7" r="3" fill="#4e79a7"/>
  <circle cx="52.0" cy="232.0" r="3" fill="#f28e2b"/><circle cx="57.9" cy="231.7" r="3" fill="#f28e2b"/><circle cx="63.9" cy="231.5" r="3" fill="#f28e2b"/><circle cx="69.8" cy="228.8" r="3" fill="#f28e2b"/><circle cx="75.7" cy="231.4" r="3" fill="#f28e2b"/><circle cx="81.7" cy="231.8" r="3" fill="#f28e2b"/><circle cx="87.6" cy="232.0" r="3" fill="#f28e2b"/><circle cx="93.6" cy="231.8" r="3" fill="#f28e2b"/><circle cx="99.5" cy="232.0" r="3" fill="#f28e2b"/><circle cx="105.4" cy="231.7" r="3" fill="#f28e2b"/><circle cx="111.4" cy="222.5" r="3" fill="#f28e2b"/><circle cx="117.3" cy="216.0" r="3" fill="#f28e2b"/><circle cx="123.2" cy="202.6" r="3" fill="#f28e2b"/><circle cx="129.2" cy="227.8" r="3" fill="#f28e2b"/><circle cx="135.1" cy="221.5" r="3" fill="#f28e2b"/><circle cx="141.0" cy="223.1" r="3" fill="#f28e2b"/><circle cx="147.0" cy="231.5" r="3" fill="#f28e2b"/><circle cx="152.9" cy="231.8" r="3" fill="#f28e2b"/><circle cx="158.9" cy="220.2" r="3" fill="#f28e2b"/><circle cx="164.8" cy="230.7" r="3" fill="#f28e2b"/><circle cx="170.7" cy="231.5" r="3" fill="#f28e2b"/><circle cx="176.7" cy="230.7" r="3" fill="#f28e2b"/><circle cx="182.6" cy="231.5" r="3" fill="#f28e2b"/><circle cx="188.5" cy="231.8" r="3" fill="#f28e2b"/><circle cx="194.5" cy="223.9" r="3" fill="#f28e2b"/><circle cx="200.4" cy="230.7" r="3" fill="#f28e2b"/><circle cx="206.3" cy="231.2" r="3" fill="#f28e2b"/><circle cx="212.3" cy="232.0" r="3" fill="#f28e2b"/><circle cx="218.2" cy="231.2" r="3" fill="#f28e2b"/><circle cx="224.2" cy="230.4" r="3" fill="#f28e2b"/><circle cx="230.1" cy="221.2" r="3" fill="#f28e2b"/><circle cx="236.0" cy="222.1" r="3" fill="#f28e2b"/><circle cx="242.0" cy="207.8" r="3" fill="#f28e2b"/><circle cx="247.9" cy="213.3" r="3" fill="#f28e2b"/><circle cx="253.8" cy="228.9" r="3" fill="#f28e2b"/><circle cx="259.8" cy="209.1" r="3" fill="#f28e2b"/><circle cx="265.7" cy="229.9" r="3" fill="#f28e2b"/><circle cx="271.7" cy="224.4" r="3" fill="#f28e2b"/><circle cx="277.6" cy="230.4" r="3" fill="#f28e2b"/><circle cx="283.5" cy="224.6" r="3" fill="#f28e2b"/><circle cx="289.5" cy="230.9" r="3" fill="#f28e2b"/><circle cx="295.4" cy="231.5" r="3" fill="#f28e2b"/><circle cx="301.3" cy="214.1" r="3" fill="#f28e2b"/><circle cx="307.3" cy="229.1" r="3" fill="#f28e2b"/><circle cx="313.2" cy="230.9" r="3" fill="#f28e2b"/><circle cx="319.1" cy="231.7" r="3" fill="#f28e2b"/><circle cx="325.1" cy="232.0" r="3" fill="#f28e2b"/><circle cx="331.0" cy="232.0" r="3" fill="#f28e2b"/><circle cx="337.0" cy="227.0" r="3" fill="#f28e2b"/><circle cx="342.9" cy="228.3" r="3" fill="#f28e2b"/><circle cx="348.8" cy="231.4" r="3" fill="#f28e2b"/><circle cx="354.8" cy="231.4" r="3" fill="#f28e2b"/><circle cx="360.7" cy="231.7" r="3" fill="#f28e2b"/><circle cx="366.6" cy="231.7" r="3" fill="#f28e2b"/><circle cx="372.6" cy="231.5" r="3" fill="#f28e2b"/><circle cx="378.5" cy="231.8" r="3" fill="#f28e2b"/><circle cx="384.4" cy="230.2" r="3" fill="#f28e2b"/><circle cx="390.4" cy="230.4" r="3" fill="#f28e2b"/><circle cx="396.3" cy="231.7" r="3" fill="#f28e2b"/><circle cx="402.3" cy="231.5" r="3" fill="#f28e2b"/><circle cx="408.2" cy="231.7" r="3" fill="#f28e2b"/><circle cx="414.1" cy="231.7" r="3" fill="#f28e2b"/><circle cx="420.1" cy="232.0" r="3" fill="#f28e2b"/><circle cx="426.0" cy="231.0" r="3" fill="#f28e2b"/><circle cx="431.9" cy="231.5" r="3" fill="#f28e2b"/><circle cx="437.9" cy="231.7" r="3" fill="#f28e2b"/><circle cx="443.8" cy="231.4" r="3" fill="#f28e2b"/><circle cx="449.7" cy="231.8" r="3" fill="#f28e2b"/><circle cx="455.7" cy="232.0" r="3" fill="#f28e2b"/><circle cx="461.6" cy="232.0" r="3" fill="#f28e2b"/><circle cx="467.6" cy="231.2" r="3" fill="#f28e2b"/><circle cx="473.5" cy="229.9" r="3" fill="#f28e2b"/><circle cx="479.4" cy="231.2" r="3" fill="#f28e2b"/><circle cx="485.4" cy="231.8" r="3" fill="#f28e2b"/><circle cx="491.3" cy="231.5" r="3" fill="#f28e2b"/><circle cx="497.2" cy="231.8" r="3" fill="#f28e2b"/><circle cx="503.2" cy="229.3" r="3" fill="#f28e2b"/><circle cx="509.1" cy="227.3" r="3" fill="#f28e2b"/><circle cx="515.0" cy="231.2" r="3" fill="#f28e2b"/><circle cx="521.0" cy="230.9" r="3" fill="#f28e2b"/><circle cx="526.9" cy="232.0" r="3" fill="#f28e2b"/><circle cx="532.9" cy="229.3" r="3" fill="#f28e2b"/><circle cx="538.8" cy="229.7" r="3" fill="#f28e2b"/><circle cx="544.7" cy="231.7" r="3" fill="#f28e2b"/><circle cx="550.7" cy="231.0" r="3" fill="#f28e2b"/><circle cx="556.6" cy="229.4" r="3" fill="#f28e2b"/><circle cx="562.5" cy="231.0" r="3" fill="#f28e2b"/><circle cx="568.5" cy="231.4" r="3" fill="#f28e2b"/><circle cx="574.4" cy="231.7" r="3" fill="#f28e2b"/><circle cx="580.3" cy="226.7" r="3" fill="#f28e2b"/><circle cx="586.3" cy="227.6" r="3" fill="#f28e2b"/><circle cx="592.2" cy="229.1" r="3" fill="#f28e2b"/><circle cx="598.2" cy="232.0" r="3" fill="#f28e2b"/><circle cx="604.1" cy="232.0" r="3" fill="#f28e2b"/><circle cx="610.0" cy="232.0" r="3" fill="#f28e2b"/><circle cx="616.0" cy="231.5" r="3" fill="#f28e2b"/><circle cx="621.9" cy="231.8" r="3" fill="#f28e2b"/><circle cx="627.8" cy="231.8" r="3" fill="#f28e2b"/><circle cx="633.8" cy="231.4" r="3" fill="#f28e2b"/><circle cx="639.7" cy="231.7" r="3" fill="#f28e2b"/><circle cx="645.7" cy="231.8" r="3" fill="#f28e2b"/><circle cx="651.6" cy="232.0" r="3" fill="#f28e2b"/><circle cx="657.5" cy="231.7" r="3" fill="#f28e2b"/><circle cx="663.5" cy="232.0" r="3" fill="#f28e2b"/><circle cx="669.4" cy="232.0" r="3" fill="#f28e2b"/><circle cx="675.3" cy="232.0" r="3" fill="#f28e2b"/><circle cx="681.3" cy="231.8" r="3" fill="#f28e2b"/><circle cx="687.2" cy="230.9" r="3" fill="#f28e2b"/><circle cx="693.1" cy="230.4" r="3" fill="#f28e2b"/><circle cx="699.1" cy="228.3" r="3" fill="#f28e2b"/><circle cx="705.0" cy="229.7" r="3" fill="#f28e2b"/><circle cx="711.0" cy="231.8" r="3" fill="#f28e2b"/><circle cx="716.9" cy="232.0" r="3" fill="#f28e2b"/><circle cx="722.8" cy="231.5" r="3" fill="#f28e2b"/><circle cx="728.8" cy="229.7" r="3" fill="#f28e2b"/><circle cx="734.7" cy="229.9" r="3" fill="#f28e2b"/><circle cx="740.6" cy="231.4" r="3" fill="#f28e2b"/><circle cx="746.6" cy="223.4" r="3" fill="#f28e2b"/><circle cx="752.5" cy="229.9" r="3" fill="#f28e2b"/><circle cx="758.4" cy="228.6" r="3" fill="#f28e2b"/><circle cx="764.4" cy="228.9" r="3" fill="#f28e2b"/><circle cx="770.3" cy="227.6" r="3" fill="#f28e2b"/><circle cx="776.3" cy="228.9" r="3" fill="#f28e2b"/><circle cx="782.2" cy="231.0" r="3" fill="#f28e2b"/><circle cx="788.1" cy="230.2" r="3" fill="#f28e2b"/><circle cx="794.1" cy="221.5" r="3" fill="#f28e2b"/><circle cx="800.0" cy="222.3" r="3" fill="#f28e2b"/>

  <!-- axes -->
  <line x1="52" y1="28" x2="52" y2="232"
        stroke="#cccccc" stroke-width="1"/>
  <line x1="52" y1="232" x2="800" y2="232"
        stroke="#cccccc" stroke-width="1"/>

  <!-- y-axis labels -->
  <text x="47" y="236.0" text-anchor="end" font-size="10" fill="#57606a" font-family="ui-monospace, SFMono-Regular, 'SF Mono', Menlo, monospace">0</text><text x="47" y="187.5" text-anchor="end" font-size="10" fill="#57606a" font-family="ui-monospace, SFMono-Regular, 'SF Mono', Menlo, monospace">300</text><text x="47" y="139.1" text-anchor="end" font-size="10" fill="#57606a" font-family="ui-monospace, SFMono-Regular, 'SF Mono', Menlo, monospace">600</text><text x="47" y="90.6" text-anchor="end" font-size="10" fill="#57606a" font-family="ui-monospace, SFMono-Regular, 'SF Mono', Menlo, monospace">900</text><text x="47" y="42.2" text-anchor="end" font-size="10" fill="#57606a" font-family="ui-monospace, SFMono-Regular, 'SF Mono', Menlo, monospace">1,200</text><text x="47" y="-6.3" text-anchor="end" font-size="10" fill="#57606a" font-family="ui-monospace, SFMono-Regular, 'SF Mono', Menlo, monospace">1,500</text>

  <!-- x-axis labels -->
  <text x="52.0" y="248" text-anchor="middle" font-size="10" fill="#8c959f" font-family="ui-monospace, SFMono-Regular, 'SF Mono', Menlo, monospace">05-11</text><text x="800.0" y="248" text-anchor="middle" font-size="10" fill="#8c959f" font-family="ui-monospace, SFMono-Regular, 'SF Mono', Menlo, monospace">09-19</text><text x="675.3" y="248" text-anchor="middle" font-size="10" fill="#8c959f" font-family="ui-monospace, SFMono-Regular, 'SF Mono', Menlo, monospace">08-29</text><text x="497.2" y="248" text-anchor="middle" font-size="10" fill="#8c959f" font-family="ui-monospace, SFMono-Regular, 'SF Mono', Menlo, monospace">07-25</text><text x="319.1" y="248" text-anchor="middle" font-size="10" fill="#8c959f" font-family="ui-monospace, SFMono-Regular, 'SF Mono', Menlo, monospace">06-25</text><text x="141.0" y="248" text-anchor="middle" font-size="10" fill="#8c959f" font-family="ui-monospace, SFMono-Regular, 'SF Mono', Menlo, monospace">05-26</text><text x="764.4" y="248" text-anchor="middle" font-size="10" fill="#8c959f" font-family="ui-monospace, SFMono-Regular, 'SF Mono', Menlo, monospace">09-13</text><text x="586.3" y="248" text-anchor="middle" font-size="10" fill="#8c959f" font-family="ui-monospace, SFMono-Regular, 'SF Mono', Menlo, monospace">08-09</text><text x="408.2" y="248" text-anchor="middle" font-size="10" fill="#8c959f" font-family="ui-monospace, SFMono-Regular, 'SF Mono', Menlo, monospace">07-10</text><text x="230.1" y="248" text-anchor="middle" font-size="10" fill="#8c959f" font-family="ui-monospace, SFMono-Regular, 'SF Mono', Menlo, monospace">06-10</text>

  <!-- legend -->
  <rect x="60" y="262" width="16" height="3" fill="#4e79a7" rx="1"/><text x="80" y="268" font-size="11" fill="#57606a" font-family="-apple-system, BlinkMacSystemFont, 'Segoe UI', sans-serif">Total clones (9,263)</text><line x1="230" y1="264" x2="246" y2="264" stroke="#f28e2b" stroke-width="2" stroke-dasharray="5,3"/><text x="250" y="268" font-size="11" fill="#57606a" font-family="-apple-system, BlinkMacSystemFont, 'Segoe UI', sans-serif">Unique cloners</text>

</svg>