<svg xmlns="http://www.w3.org/2000/svg" viewBox="0 0 820 280" width="820" height="280">

  <!-- title -->
  <text x="52" y="18" font-size="13" font-weight="600"
        fill="#24292f" font-family="-apple-system, BlinkMacSystemFont, 'Segoe UI', sans-serif"
        >Clone traffic — ci-helpers</text>
  <text x="800" y="18" font-size="10" fill="#8c959f"
        font-family="ui-monospace, SFMono-Regular, 'SF Mono', Menlo, monospace" text-anchor="end">2026-06-22</text>

  <!-- grid -->
  <line x1="52" y1="232.0" x2="800" y2="232.0" stroke="#e8e8e8" stroke-width="1"/><line x1="52" y1="183.5" x2="800" y2="183.5" stroke="#e8e8e8" stroke-width="1"/><line x1="52" y1="135.1" x2="800" y2="135.1" stroke="#e8e8e8" stroke-width="1"/><line x1="52" y1="86.6" x2="800" y2="86.6" stroke="#e8e8e8" stroke-width="1"/><line x1="52" y1="38.2" x2="800" y2="38.2" stroke="#e8e8e8" stroke-width="1"/><line x1="52" y1="-10.3" x2="800" y2="-10.3" stroke="#e8e8e8" stroke-width="1"/>

  <!-- area fill -->
  <path d="M52.0,232.0 L52.0,232.0 L70.7,231.7 L89.4,231.5 L108.1,224.4 L126.8,231.2 L145.5,231.8 L164.2,232.0 L182.9,231.0 L201.6,232.0 L220.3,231.7 L239.0,147.7 L257.7,197.4 L276.4,155.9 L295.1,212.1 L313.8,194.9 L332.5,206.6 L351.2,231.5 L369.9,227.5 L388.6,203.7 L407.3,225.4 L426.0,231.5 L444.7,221.2 L463.4,231.4 L482.1,231.8 L500.8,208.4 L519.5,230.4 L538.2,230.2 L556.9,232.0 L575.6,227.6 L594.3,227.5 L613.0,205.7 L631.7,207.3 L650.4,142.5 L669.1,174.5 L687.8,214.1 L706.5,28.0 L725.2,221.7 L743.9,198.4 L762.6,225.2 L781.3,196.3 L800.0,230.2 L800.0,232.0 L52.0,232.0Z" fill="#4e79a7" opacity="0.12"/>

  <!-- lines -->
  <polyline points="52.0,232.0 70.7,231.7 89.4,231.5 108.1,224.4 126.8,231.2 145.5,231.8 164.2,232.0 182.9,231.0 201.6,232.0 220.3,231.7 239.0,147.7 257.7,197.4 276.4,155.9 295.1,212.1 313.8,194.9 332.5,206.6 351.2,231.5 369.9,227.5 388.6,203.7 407.3,225.4 426.0,231.5 444.7,221.2 463.4,231.4 482.1,231.8 500.8,208.4 519.5,230.4 538.2,230.2 556.9,232.0 575.6,227.6 594.3,227.5 613.0,205.7 631.7,207.3 650.4,142.5 669.1,174.5 687.8,214.1 706.5,28.0 725.2,221.7 743.9,198.4 762.6,225.2 781.3,196.3 800.0,230.2"
            fill="none" stroke="#4e79a7"
            stroke-width="2" stroke-linejoin="round"/>
  <polyline points="52.0,232.0 70.7,231.7 89.4,231.5 108.1,228.8 126.8,231.4 145.5,231.8 164.2,232.0 182.9,231.8 201.6,232.0 220.3,231.7 239.0,222.5 257.7,216.0 276.4,202.6 295.1,227.8 313.8,221.5 332.5,223.1 351.2,231.5 369.9,231.8 388.6,220.2 407.3,230.7 426.0,231.5 444.7,230.7 463.4,231.5 482.1,231.8 500.8,223.9 519.5,230.7 538.2,231.2 556.9,232.0 575.6,231.2 594.3,230.4 613.0,221.2 631.7,222.1 650.4,207.8 669.1,213.3 687.8,228.9 706.5,209.1 725.2,229.9 743.9,224.4 762.6,230.4 781.3,224.6 800.0,230.9"
            fill="none" stroke="#f28e2b"
            stroke-width="2" stroke-linejoin="round"
            stroke-dasharray="5,3"/>

  <!-- dots -->
  <circle cx="52.0" cy="232.0" r="3" fill="#4e79a7"/><circle cx="70.7" cy="231.7" r="3" fill="#4e79a7"/><circle cx="89.4" cy="231.5" r="3" fill="#4e79a7"/><circle cx="108.1" cy="224.4" r="3" fill="#4e79a7"/><circle cx="126.8" cy="231.2" r="3" fill="#4e79a7"/><circle cx="145.5" cy="231.8" r="3" fill="#4e79a7"/><circle cx="164.2" cy="232.0" r="3" fill="#4e79a7"/><circle cx="182.9" cy="231.0" r="3" fill="#4e79a7"/><circle cx="201.6" cy="232.0" r="3" fill="#4e79a7"/><circle cx="220.3" cy="231.7" r="3" fill="#4e79a7"/><circle cx="239.0" cy="147.7" r="3" fill="#4e79a7"/><circle cx="257.7" cy="197.4" r="3" fill="#4e79a7"/><circle cx="276.4" cy="155.9" r="3" fill="#4e79a7"/><circle cx="295.1" cy="212.1" r="3" fill="#4e79a7"/><circle cx="313.8" cy="194.9" r="3" fill="#4e79a7"/><circle cx="332.5" cy="206.6" r="3" fill="#4e79a7"/><circle cx="351.2" cy="231.5" r="3" fill="#4e79a7"/><circle cx="369.9" cy="227.5" r="3" fill="#4e79a7"/><circle cx="388.6" cy="203.7" r="3" fill="#4e79a7"/><circle cx="407.3" cy="225.4" r="3" fill="#4e79a7"/><circle cx="426.0" cy="231.5" r="3" fill="#4e79a7"/><circle cx="444.7" cy="221.2" r="3" fill="#4e79a7"/><circle cx="463.4" cy="231.4" r="3" fill="#4e79a7"/><circle cx="482.1" cy="231.8" r="3" fill="#4e79a7"/><circle cx="500.8" cy="208.4" r="3" fill="#4e79a7"/><circle cx="519.5" cy="230.4" r="3" fill="#4e79a7"/><circle cx="538.2" cy="230.2" r="3" fill="#4e79a7"/><circle cx="556.9" cy="232.0" r="3" fill="#4e79a7"/><circle cx="575.6" cy="227.6" r="3" fill="#4e79a7"/><circle cx="594.3" cy="227.5" r="3" fill="#4e79a7"/><circle cx="613.0" cy="205.7" r="3" fill="#4e79a7"/><circle cx="631.7" cy="207.3" r="3" fill="#4e79a7"/><circle cx="650.4" cy="142.5" r="3" fill="#4e79a7"/><circle cx="669.1" cy="174.5" r="3" fill="#4e79a7"/><circle cx="687.8" cy="214.1" r="3" fill="#4e79a7"/><circle cx="706.5" cy="28.0" r="3" fill="#4e79a7"/><circle cx="725.2" cy="221.7" r="3" fill="#4e79a7"/><circle cx="743.9" cy="198.4" r="3" fill="#4e79a7"/><circle cx="762.6" cy="225.2" r="3" fill="#4e79a7"/><circle cx="781.3" cy="196.3" r="3" fill="#4e79a7"/><circle cx="800.0" cy="230.2" r="3" fill="#4e79a7"/>
  <circle cx="52.0" cy="232.0" r="3" fill="#f28e2b"/><circle cx="70.7" cy="231.7" r="3" fill="#f28e2b"/><circle cx="89.4" cy="231.5" r="3" fill="#f28e2b"/><circle cx="108.1" cy="228.8" r="3" fill="#f28e2b"/><circle cx="126.8" cy="231.4" r="3" fill="#f28e2b"/><circle cx="145.5" cy="231.8" r="3" fill="#f28e2b"/><circle cx="164.2" cy="232.0" r="3" fill="#f28e2b"/><circle cx="182.9" cy="231.8" r="3" fill="#f28e2b"/><circle cx="201.6" cy="232.0" r="3" fill="#f28e2b"/><circle cx="220.3" cy="231.7" r="3" fill="#f28e2b"/><circle cx="239.0" cy="222.5" r="3" fill="#f28e2b"/><circle cx="257.7" cy="216.0" r="3" fill="#f28e2b"/><circle cx="276.4" cy="202.6" r="3" fill="#f28e2b"/><circle cx="295.1" cy="227.8" r="3" fill="#f28e2b"/><circle cx="313.8" cy="221.5" r="3" fill="#f28e2b"/><circle cx="332.5" cy="223.1" r="3" fill="#f28e2b"/><circle cx="351.2" cy="231.5" r="3" fill="#f28e2b"/><circle cx="369.9" cy="231.8" r="3" fill="#f28e2b"/><circle cx="388.6" cy="220.2" r="3" fill="#f28e2b"/><circle cx="407.3" cy="230.7" r="3" fill="#f28e2b"/><circle cx="426.0" cy="231.5" r="3" fill="#f28e2b"/><circle cx="444.7" cy="230.7" r="3" fill="#f28e2b"/><circle cx="463.4" cy="231.5" r="3" fill="#f28e2b"/><circle cx="482.1" cy="231.8" r="3" fill="#f28e2b"/><circle cx="500.8" cy="223.9" r="3" fill="#f28e2b"/><circle cx="519.5" cy="230.7" r="3" fill="#f28e2b"/><circle cx="538.2" cy="231.2" r="3" fill="#f28e2b"/><circle cx="556.9" cy="232.0" r="3" fill="#f28e2b"/><circle cx="575.6" cy="231.2" r="3" fill="#f28e2b"/><circle cx="594.3" cy="230.4" r="3" fill="#f28e2b"/><circle cx="613.0" cy="221.2" r="3" fill="#f28e2b"/><circle cx="631.7" cy="222.1" r="3" fill="#f28e2b"/><circle cx="650.4" cy="207.8" r="3" fill="#f28e2b"/><circle cx="669.1" cy="213.3" r="3" fill="#f28e2b"/><circle cx="687.8" cy="228.9" r="3" fill="#f28e2b"/><circle cx="706.5" cy="209.1" r="3" fill="#f28e2b"/><circle cx="725.2" cy="229.9" r="3" fill="#f28e2b"/><circle cx="743.9" cy="224.4" r="3" fill="#f28e2b"/><circle cx="762.6" cy="230.4" r="3" fill="#f28e2b"/><circle cx="781.3" cy="224.6" r="3" fill="#f28e2b"/><circle cx="800.0" cy="230.9" r="3" fill="#f28e2b"/>

  <!-- axes -->
  <line x1="52" y1="28" x2="52" y2="232"
        stroke="#cccccc" stroke-width="1"/>
  <line x1="52" y1="232" x2="800" y2="232"
        stroke="#cccccc" stroke-width="1"/>

  <!-- y-axis labels -->
  <text x="47" y="236.0" text-anchor="end" font-size="10" fill="#57606a" font-family="ui-monospace, SFMono-Regular, 'SF Mono', Menlo, monospace">0</text><text x="47" y="187.5" text-anchor="end" font-size="10" fill="#57606a" font-family="ui-monospace, SFMono-Regular, 'SF Mono', Menlo, monospace">300</text><text x="47" y="139.1" text-anchor="end" font-size="10" fill="#57606a" font-family="ui-monospace, SFMono-Regular, 'SF Mono', Menlo, monospace">600</text><text x="47" y="90.6" text-anchor="end" font-size="10" fill="#57606a" font-family="ui-monospace, SFMono-Regular, 'SF Mono', Menlo, monospace">900</text><text x="47" y="42.2" text-anchor="end" font-size="10" fill="#57606a" font-family="ui-monospace, SFMono-Regular, 'SF Mono', Menlo, monospace">1,200</text><text x="47" y="-6.3" text-anchor="end" font-size="10" fill="#57606a" font-family="ui-monospace, SFMono-Regular, 'SF Mono', Menlo, monospace">1,500</text>

  <!-- x-axis labels -->
  <text x="52.0" y="248" text-anchor="middle" font-size="10" fill="#8c959f" font-family="ui-monospace, SFMono-Regular, 'SF Mono', Menlo, monospace">05-11</text><text x="706.5" y="248" text-anchor="middle" font-size="10" fill="#8c959f" font-family="ui-monospace, SFMono-Regular, 'SF Mono', Menlo, monospace">06-15</text><text x="145.5" y="248" text-anchor="middle" font-size="10" fill="#8c959f" font-family="ui-monospace, SFMono-Regular, 'SF Mono', Menlo, monospace">05-16</text><text x="800.0" y="248" text-anchor="middle" font-size="10" fill="#8c959f" font-family="ui-monospace, SFMono-Regular, 'SF Mono', Menlo, monospace">06-20</text><text x="239.0" y="248" text-anchor="middle" font-size="10" fill="#8c959f" font-family="ui-monospace, SFMono-Regular, 'SF Mono', Menlo, monospace">05-21</text><text x="332.5" y="248" text-anchor="middle" font-size="10" fill="#8c959f" font-family="ui-monospace, SFMono-Regular, 'SF Mono', Menlo, monospace">05-26</text><text x="426.0" y="248" text-anchor="middle" font-size="10" fill="#8c959f" font-family="ui-monospace, SFMono-Regular, 'SF Mono', Menlo, monospace">05-31</text><text x="519.5" y="248" text-anchor="middle" font-size="10" fill="#8c959f" font-family="ui-monospace, SFMono-Regular, 'SF Mono', Menlo, monospace">06-05</text><text x="613.0" y="248" text-anchor="middle" font-size="10" fill="#8c959f" font-family="ui-monospace, SFMono-Regular, 'SF Mono', Menlo, monospace">06-10</text>

  <!-- legend -->
  <rect x="60" y="262" width="16" height="3" fill="#4e79a7" rx="1"/><text x="80" y="268" font-size="11" fill="#57606a" font-family="-apple-system, BlinkMacSystemFont, 'Segoe UI', sans-serif">Total clones (5,473)</text><line x1="230" y1="264" x2="246" y2="264" stroke="#f28e2b" stroke-width="2" stroke-dasharray="5,3"/><text x="250" y="268" font-size="11" fill="#57606a" font-family="-apple-system, BlinkMacSystemFont, 'Segoe UI', sans-serif">Unique cloners</text>

</svg>