<svg xmlns="http://www.w3.org/2000/svg" viewBox="0 0 820 280" width="820" height="280">

  <!-- title -->
  <text x="52" y="18" font-size="13" font-weight="600"
        fill="#24292f" font-family="-apple-system, BlinkMacSystemFont, 'Segoe UI', sans-serif"
        >Clone traffic — ci-helpers</text>
  <text x="800" y="18" font-size="10" fill="#8c959f"
        font-family="ui-monospace, SFMono-Regular, 'SF Mono', Menlo, monospace" text-anchor="end">2026-06-18</text>

  <!-- grid -->
  <line x1="52" y1="232.0" x2="800" y2="232.0" stroke="#e8e8e8" stroke-width="1"/><line x1="52" y1="183.5" x2="800" y2="183.5" stroke="#e8e8e8" stroke-width="1"/><line x1="52" y1="135.1" x2="800" y2="135.1" stroke="#e8e8e8" stroke-width="1"/><line x1="52" y1="86.6" x2="800" y2="86.6" stroke="#e8e8e8" stroke-width="1"/><line x1="52" y1="38.2" x2="800" y2="38.2" stroke="#e8e8e8" stroke-width="1"/><line x1="52" y1="-10.3" x2="800" y2="-10.3" stroke="#e8e8e8" stroke-width="1"/>

  <!-- area fill -->
  <path d="M52.0,232.0 L52.0,232.0 L72.8,231.7 L93.6,231.5 L114.3,224.4 L135.1,231.2 L155.9,231.8 L176.7,232.0 L197.4,231.0 L218.2,232.0 L239.0,231.7 L259.8,147.7 L280.6,197.4 L301.3,155.9 L322.1,212.1 L342.9,194.9 L363.7,206.6 L384.4,231.5 L405.2,227.5 L426.0,203.7 L446.8,225.4 L467.6,231.5 L488.3,221.2 L509.1,231.4 L529.9,231.8 L550.7,208.4 L571.4,230.4 L592.2,230.2 L613.0,232.0 L633.8,227.6 L654.6,227.5 L675.3,205.7 L696.1,207.3 L716.9,142.5 L737.7,174.5 L758.4,214.1 L779.2,28.0 L800.0,221.7 L800.0,232.0 L52.0,232.0Z" fill="#4e79a7" opacity="0.12"/>

  <!-- lines -->
  <polyline points="52.0,232.0 72.8,231.7 93.6,231.5 114.3,224.4 135.1,231.2 155.9,231.8 176.7,232.0 197.4,231.0 218.2,232.0 239.0,231.7 259.8,147.7 280.6,197.4 301.3,155.9 322.1,212.1 342.9,194.9 363.7,206.6 384.4,231.5 405.2,227.5 426.0,203.7 446.8,225.4 467.6,231.5 488.3,221.2 509.1,231.4 529.9,231.8 550.7,208.4 571.4,230.4 592.2,230.2 613.0,232.0 633.8,227.6 654.6,227.5 675.3,205.7 696.1,207.3 716.9,142.5 737.7,174.5 758.4,214.1 779.2,28.0 800.0,221.7"
            fill="none" stroke="#4e79a7"
            stroke-width="2" stroke-linejoin="round"/>
  <polyline points="52.0,232.0 72.8,231.7 93.6,231.5 114.3,228.8 135.1,231.4 155.9,231.8 176.7,232.0 197.4,231.8 218.2,232.0 239.0,231.7 259.8,222.5 280.6,216.0 301.3,202.6 322.1,227.8 342.9,221.5 363.7,223.1 384.4,231.5 405.2,231.8 426.0,220.2 446.8,230.7 467.6,231.5 488.3,230.7 509.1,231.5 529.9,231.8 550.7,223.9 571.4,230.7 592.2,231.2 613.0,232.0 633.8,231.2 654.6,230.4 675.3,221.2 696.1,222.1 716.9,207.8 737.7,213.3 758.4,228.9 779.2,209.1 800.0,229.9"
            fill="none" stroke="#f28e2b"
            stroke-width="2" stroke-linejoin="round"
            stroke-dasharray="5,3"/>

  <!-- dots -->
  <circle cx="52.0" cy="232.0" r="3" fill="#4e79a7"/><circle cx="72.8" cy="231.7" r="3" fill="#4e79a7"/><circle cx="93.6" cy="231.5" r="3" fill="#4e79a7"/><circle cx="114.3" cy="224.4" r="3" fill="#4e79a7"/><circle cx="135.1" cy="231.2" r="3" fill="#4e79a7"/><circle cx="155.9" cy="231.8" r="3" fill="#4e79a7"/><circle cx="176.7" cy="232.0" r="3" fill="#4e79a7"/><circle cx="197.4" cy="231.0" r="3" fill="#4e79a7"/><circle cx="218.2" cy="232.0" r="3" fill="#4e79a7"/><circle cx="239.0" cy="231.7" r="3" fill="#4e79a7"/><circle cx="259.8" cy="147.7" r="3" fill="#4e79a7"/><circle cx="280.6" cy="197.4" r="3" fill="#4e79a7"/><circle cx="301.3" cy="155.9" r="3" fill="#4e79a7"/><circle cx="322.1" cy="212.1" r="3" fill="#4e79a7"/><circle cx="342.9" cy="194.9" r="3" fill="#4e79a7"/><circle cx="363.7" cy="206.6" r="3" fill="#4e79a7"/><circle cx="384.4" cy="231.5" r="3" fill="#4e79a7"/><circle cx="405.2" cy="227.5" r="3" fill="#4e79a7"/><circle cx="426.0" cy="203.7" r="3" fill="#4e79a7"/><circle cx="446.8" cy="225.4" r="3" fill="#4e79a7"/><circle cx="467.6" cy="231.5" r="3" fill="#4e79a7"/><circle cx="488.3" cy="221.2" r="3" fill="#4e79a7"/><circle cx="509.1" cy="231.4" r="3" fill="#4e79a7"/><circle cx="529.9" cy="231.8" r="3" fill="#4e79a7"/><circle cx="550.7" cy="208.4" r="3" fill="#4e79a7"/><circle cx="571.4" cy="230.4" r="3" fill="#4e79a7"/><circle cx="592.2" cy="230.2" r="3" fill="#4e79a7"/><circle cx="613.0" cy="232.0" r="3" fill="#4e79a7"/><circle cx="633.8" cy="227.6" r="3" fill="#4e79a7"/><circle cx="654.6" cy="227.5" r="3" fill="#4e79a7"/><circle cx="675.3" cy="205.7" r="3" fill="#4e79a7"/><circle cx="696.1" cy="207.3" r="3" fill="#4e79a7"/><circle cx="716.9" cy="142.5" r="3" fill="#4e79a7"/><circle cx="737.7" cy="174.5" r="3" fill="#4e79a7"/><circle cx="758.4" cy="214.1" r="3" fill="#4e79a7"/><circle cx="779.2" cy="28.0" r="3" fill="#4e79a7"/><circle cx="800.0" cy="221.7" r="3" fill="#4e79a7"/>
  <circle cx="52.0" cy="232.0" r="3" fill="#f28e2b"/><circle cx="72.8" cy="231.7" r="3" fill="#f28e2b"/><circle cx="93.6" cy="231.5" r="3" fill="#f28e2b"/><circle cx="114.3" cy="228.8" r="3" fill="#f28e2b"/><circle cx="135.1" cy="231.4" r="3" fill="#f28e2b"/><circle cx="155.9" cy="231.8" r="3" fill="#f28e2b"/><circle cx="176.7" cy="232.0" r="3" fill="#f28e2b"/><circle cx="197.4" cy="231.8" r="3" fill="#f28e2b"/><circle cx="218.2" cy="232.0" r="3" fill="#f28e2b"/><circle cx="239.0" cy="231.7" r="3" fill="#f28e2b"/><circle cx="259.8" cy="222.5" r="3" fill="#f28e2b"/><circle cx="280.6" cy="216.0" r="3" fill="#f28e2b"/><circle cx="301.3" cy="202.6" r="3" fill="#f28e2b"/><circle cx="322.1" cy="227.8" r="3" fill="#f28e2b"/><circle cx="342.9" cy="221.5" r="3" fill="#f28e2b"/><circle cx="363.7" cy="223.1" r="3" fill="#f28e2b"/><circle cx="384.4" cy="231.5" r="3" fill="#f28e2b"/><circle cx="405.2" cy="231.8" r="3" fill="#f28e2b"/><circle cx="426.0" cy="220.2" r="3" fill="#f28e2b"/><circle cx="446.8" cy="230.7" r="3" fill="#f28e2b"/><circle cx="467.6" cy="231.5" r="3" fill="#f28e2b"/><circle cx="488.3" cy="230.7" r="3" fill="#f28e2b"/><circle cx="509.1" cy="231.5" r="3" fill="#f28e2b"/><circle cx="529.9" cy="231.8" r="3" fill="#f28e2b"/><circle cx="550.7" cy="223.9" r="3" fill="#f28e2b"/><circle cx="571.4" cy="230.7" r="3" fill="#f28e2b"/><circle cx="592.2" cy="231.2" r="3" fill="#f28e2b"/><circle cx="613.0" cy="232.0" r="3" fill="#f28e2b"/><circle cx="633.8" cy="231.2" r="3" fill="#f28e2b"/><circle cx="654.6" cy="230.4" r="3" fill="#f28e2b"/><circle cx="675.3" cy="221.2" r="3" fill="#f28e2b"/><circle cx="696.1" cy="222.1" r="3" fill="#f28e2b"/><circle cx="716.9" cy="207.8" r="3" fill="#f28e2b"/><circle cx="737.7" cy="213.3" r="3" fill="#f28e2b"/><circle cx="758.4" cy="228.9" r="3" fill="#f28e2b"/><circle cx="779.2" cy="209.1" r="3" fill="#f28e2b"/><circle cx="800.0" cy="229.9" r="3" fill="#f28e2b"/>

  <!-- axes -->
  <line x1="52" y1="28" x2="52" y2="232"
        stroke="#cccccc" stroke-width="1"/>
  <line x1="52" y1="232" x2="800" y2="232"
        stroke="#cccccc" stroke-width="1"/>

  <!-- y-axis labels -->
  <text x="47" y="236.0" text-anchor="end" font-size="10" fill="#57606a" font-family="ui-monospace, SFMono-Regular, 'SF Mono', Menlo, monospace">0</text><text x="47" y="187.5" text-anchor="end" font-size="10" fill="#57606a" font-family="ui-monospace, SFMono-Regular, 'SF Mono', Menlo, monospace">300</text><text x="47" y="139.1" text-anchor="end" font-size="10" fill="#57606a" font-family="ui-monospace, SFMono-Regular, 'SF Mono', Menlo, monospace">600</text><text x="47" y="90.6" text-anchor="end" font-size="10" fill="#57606a" font-family="ui-monospace, SFMono-Regular, 'SF Mono', Menlo, monospace">900</text><text x="47" y="42.2" text-anchor="end" font-size="10" fill="#57606a" font-family="ui-monospace, SFMono-Regular, 'SF Mono', Menlo, monospace">1,200</text><text x="47" y="-6.3" text-anchor="end" font-size="10" fill="#57606a" font-family="ui-monospace, SFMono-Regular, 'SF Mono', Menlo, monospace">1,500</text>

  <!-- x-axis labels -->
  <text x="52.0" y="248" text-anchor="middle" font-size="10" fill="#8c959f" font-family="ui-monospace, SFMono-Regular, 'SF Mono', Menlo, monospace">05-11</text><text x="716.9" y="248" text-anchor="middle" font-size="10" fill="#8c959f" font-family="ui-monospace, SFMono-Regular, 'SF Mono', Menlo, monospace">06-12</text><text x="135.1" y="248" text-anchor="middle" font-size="10" fill="#8c959f" font-family="ui-monospace, SFMono-Regular, 'SF Mono', Menlo, monospace">05-15</text><text x="800.0" y="248" text-anchor="middle" font-size="10" fill="#8c959f" font-family="ui-monospace, SFMono-Regular, 'SF Mono', Menlo, monospace">06-16</text><text x="218.2" y="248" text-anchor="middle" font-size="10" fill="#8c959f" font-family="ui-monospace, SFMono-Regular, 'SF Mono', Menlo, monospace">05-19</text><text x="301.3" y="248" text-anchor="middle" font-size="10" fill="#8c959f" font-family="ui-monospace, SFMono-Regular, 'SF Mono', Menlo, monospace">05-23</text><text x="384.4" y="248" text-anchor="middle" font-size="10" fill="#8c959f" font-family="ui-monospace, SFMono-Regular, 'SF Mono', Menlo, monospace">05-27</text><text x="467.6" y="248" text-anchor="middle" font-size="10" fill="#8c959f" font-family="ui-monospace, SFMono-Regular, 'SF Mono', Menlo, monospace">05-31</text><text x="550.7" y="248" text-anchor="middle" font-size="10" fill="#8c959f" font-family="ui-monospace, SFMono-Regular, 'SF Mono', Menlo, monospace">06-04</text><text x="633.8" y="248" text-anchor="middle" font-size="10" fill="#8c959f" font-family="ui-monospace, SFMono-Regular, 'SF Mono', Menlo, monospace">06-08</text>

  <!-- legend -->
  <rect x="60" y="262" width="16" height="3" fill="#4e79a7" rx="1"/><text x="80" y="268" font-size="11" fill="#57606a" font-family="-apple-system, BlinkMacSystemFont, 'Segoe UI', sans-serif">Total clones (4,991)</text><line x1="230" y1="264" x2="246" y2="264" stroke="#f28e2b" stroke-width="2" stroke-dasharray="5,3"/><text x="250" y="268" font-size="11" fill="#57606a" font-family="-apple-system, BlinkMacSystemFont, 'Segoe UI', sans-serif">Unique cloners</text>

</svg>