<svg xmlns="http://www.w3.org/2000/svg" viewBox="0 0 820 280" width="820" height="280">

  <!-- title -->
  <text x="52" y="18" font-size="13" font-weight="600"
        fill="#24292f" font-family="-apple-system, BlinkMacSystemFont, 'Segoe UI', sans-serif"
        >Clone traffic — ci-helpers</text>
  <text x="800" y="18" font-size="10" fill="#8c959f"
        font-family="ui-monospace, SFMono-Regular, 'SF Mono', Menlo, monospace" text-anchor="end">2026-06-15</text>

  <!-- grid -->
  <line x1="52" y1="232.0" x2="800" y2="232.0" stroke="#e8e8e8" stroke-width="1"/><line x1="52" y1="195.2" x2="800" y2="195.2" stroke="#e8e8e8" stroke-width="1"/><line x1="52" y1="158.4" x2="800" y2="158.4" stroke="#e8e8e8" stroke-width="1"/><line x1="52" y1="121.5" x2="800" y2="121.5" stroke="#e8e8e8" stroke-width="1"/><line x1="52" y1="84.7" x2="800" y2="84.7" stroke="#e8e8e8" stroke-width="1"/><line x1="52" y1="47.9" x2="800" y2="47.9" stroke="#e8e8e8" stroke-width="1"/><line x1="52" y1="11.1" x2="800" y2="11.1" stroke="#e8e8e8" stroke-width="1"/>

  <!-- area fill -->
  <path d="M52.0,232.0 L52.0,232.0 L74.7,231.3 L97.3,230.9 L120.0,214.7 L142.7,230.2 L165.3,231.6 L188.0,232.0 L210.7,229.8 L233.3,232.0 L256.0,231.3 L278.7,39.8 L301.3,153.2 L324.0,58.6 L346.7,186.7 L369.3,147.3 L392.0,174.2 L414.7,230.9 L437.3,221.7 L460.0,167.6 L482.7,216.9 L505.3,230.9 L528.0,207.3 L550.7,230.5 L573.3,231.6 L596.0,178.2 L618.7,228.3 L641.3,227.9 L664.0,232.0 L686.7,222.1 L709.3,221.7 L732.0,172.0 L754.7,175.7 L777.3,28.0 L800.0,100.9 L800.0,232.0 L52.0,232.0Z" fill="#4e79a7" opacity="0.12"/>

  <!-- lines -->
  <polyline points="52.0,232.0 74.7,231.3 97.3,230.9 120.0,214.7 142.7,230.2 165.3,231.6 188.0,232.0 210.7,229.8 233.3,232.0 256.0,231.3 278.7,39.8 301.3,153.2 324.0,58.6 346.7,186.7 369.3,147.3 392.0,174.2 414.7,230.9 437.3,221.7 460.0,167.6 482.7,216.9 505.3,230.9 528.0,207.3 550.7,230.5 573.3,231.6 596.0,178.2 618.7,228.3 641.3,227.9 664.0,232.0 686.7,222.1 709.3,221.7 732.0,172.0 754.7,175.7 777.3,28.0 800.0,100.9"
            fill="none" stroke="#4e79a7"
            stroke-width="2" stroke-linejoin="round"/>
  <polyline points="52.0,232.0 74.7,231.3 97.3,230.9 120.0,224.6 142.7,230.5 165.3,231.6 188.0,232.0 210.7,231.6 233.3,232.0 256.0,231.3 278.7,210.3 301.3,195.5 324.0,165.0 346.7,222.4 369.3,208.1 392.0,211.7 414.7,230.9 437.3,231.6 460.0,205.1 482.7,229.1 505.3,230.9 528.0,229.1 550.7,230.9 573.3,231.6 596.0,213.6 618.7,229.1 641.3,230.2 664.0,232.0 686.7,230.2 709.3,228.3 732.0,207.3 754.7,209.5 777.3,176.8 800.0,189.3"
            fill="none" stroke="#f28e2b"
            stroke-width="2" stroke-linejoin="round"
            stroke-dasharray="5,3"/>

  <!-- dots -->
  <circle cx="52.0" cy="232.0" r="3" fill="#4e79a7"/><circle cx="74.7" cy="231.3" r="3" fill="#4e79a7"/><circle cx="97.3" cy="230.9" r="3" fill="#4e79a7"/><circle cx="120.0" cy="214.7" r="3" fill="#4e79a7"/><circle cx="142.7" cy="230.2" r="3" fill="#4e79a7"/><circle cx="165.3" cy="231.6" r="3" fill="#4e79a7"/><circle cx="188.0" cy="232.0" r="3" fill="#4e79a7"/><circle cx="210.7" cy="229.8" r="3" fill="#4e79a7"/><circle cx="233.3" cy="232.0" r="3" fill="#4e79a7"/><circle cx="256.0" cy="231.3" r="3" fill="#4e79a7"/><circle cx="278.7" cy="39.8" r="3" fill="#4e79a7"/><circle cx="301.3" cy="153.2" r="3" fill="#4e79a7"/><circle cx="324.0" cy="58.6" r="3" fill="#4e79a7"/><circle cx="346.7" cy="186.7" r="3" fill="#4e79a7"/><circle cx="369.3" cy="147.3" r="3" fill="#4e79a7"/><circle cx="392.0" cy="174.2" r="3" fill="#4e79a7"/><circle cx="414.7" cy="230.9" r="3" fill="#4e79a7"/><circle cx="437.3" cy="221.7" r="3" fill="#4e79a7"/><circle cx="460.0" cy="167.6" r="3" fill="#4e79a7"/><circle cx="482.7" cy="216.9" r="3" fill="#4e79a7"/><circle cx="505.3" cy="230.9" r="3" fill="#4e79a7"/><circle cx="528.0" cy="207.3" r="3" fill="#4e79a7"/><circle cx="550.7" cy="230.5" r="3" fill="#4e79a7"/><circle cx="573.3" cy="231.6" r="3" fill="#4e79a7"/><circle cx="596.0" cy="178.2" r="3" fill="#4e79a7"/><circle cx="618.7" cy="228.3" r="3" fill="#4e79a7"/><circle cx="641.3" cy="227.9" r="3" fill="#4e79a7"/><circle cx="664.0" cy="232.0" r="3" fill="#4e79a7"/><circle cx="686.7" cy="222.1" r="3" fill="#4e79a7"/><circle cx="709.3" cy="221.7" r="3" fill="#4e79a7"/><circle cx="732.0" cy="172.0" r="3" fill="#4e79a7"/><circle cx="754.7" cy="175.7" r="3" fill="#4e79a7"/><circle cx="777.3" cy="28.0" r="3" fill="#4e79a7"/><circle cx="800.0" cy="100.9" r="3" fill="#4e79a7"/>
  <circle cx="52.0" cy="232.0" r="3" fill="#f28e2b"/><circle cx="74.7" cy="231.3" r="3" fill="#f28e2b"/><circle cx="97.3" cy="230.9" r="3" fill="#f28e2b"/><circle cx="120.0" cy="224.6" r="3" fill="#f28e2b"/><circle cx="142.7" cy="230.5" r="3" fill="#f28e2b"/><circle cx="165.3" cy="231.6" r="3" fill="#f28e2b"/><circle cx="188.0" cy="232.0" r="3" fill="#f28e2b"/><circle cx="210.7" cy="231.6" r="3" fill="#f28e2b"/><circle cx="233.3" cy="232.0" r="3" fill="#f28e2b"/><circle cx="256.0" cy="231.3" r="3" fill="#f28e2b"/><circle cx="278.7" cy="210.3" r="3" fill="#f28e2b"/><circle cx="301.3" cy="195.5" r="3" fill="#f28e2b"/><circle cx="324.0" cy="165.0" r="3" fill="#f28e2b"/><circle cx="346.7" cy="222.4" r="3" fill="#f28e2b"/><circle cx="369.3" cy="208.1" r="3" fill="#f28e2b"/><circle cx="392.0" cy="211.7" r="3" fill="#f28e2b"/><circle cx="414.7" cy="230.9" r="3" fill="#f28e2b"/><circle cx="437.3" cy="231.6" r="3" fill="#f28e2b"/><circle cx="460.0" cy="205.1" r="3" fill="#f28e2b"/><circle cx="482.7" cy="229.1" r="3" fill="#f28e2b"/><circle cx="505.3" cy="230.9" r="3" fill="#f28e2b"/><circle cx="528.0" cy="229.1" r="3" fill="#f28e2b"/><circle cx="550.7" cy="230.9" r="3" fill="#f28e2b"/><circle cx="573.3" cy="231.6" r="3" fill="#f28e2b"/><circle cx="596.0" cy="213.6" r="3" fill="#f28e2b"/><circle cx="618.7" cy="229.1" r="3" fill="#f28e2b"/><circle cx="641.3" cy="230.2" r="3" fill="#f28e2b"/><circle cx="664.0" cy="232.0" r="3" fill="#f28e2b"/><circle cx="686.7" cy="230.2" r="3" fill="#f28e2b"/><circle cx="709.3" cy="228.3" r="3" fill="#f28e2b"/><circle cx="732.0" cy="207.3" r="3" fill="#f28e2b"/><circle cx="754.7" cy="209.5" r="3" fill="#f28e2b"/><circle cx="777.3" cy="176.8" r="3" fill="#f28e2b"/><circle cx="800.0" cy="189.3" r="3" fill="#f28e2b"/>

  <!-- axes -->
  <line x1="52" y1="28" x2="52" y2="232"
        stroke="#cccccc" stroke-width="1"/>
  <line x1="52" y1="232" x2="800" y2="232"
        stroke="#cccccc" stroke-width="1"/>

  <!-- y-axis labels -->
  <text x="47" y="236.0" text-anchor="end" font-size="10" fill="#57606a" font-family="ui-monospace, SFMono-Regular, 'SF Mono', Menlo, monospace">0</text><text x="47" y="199.2" text-anchor="end" font-size="10" fill="#57606a" font-family="ui-monospace, SFMono-Regular, 'SF Mono', Menlo, monospace">100</text><text x="47" y="162.4" text-anchor="end" font-size="10" fill="#57606a" font-family="ui-monospace, SFMono-Regular, 'SF Mono', Menlo, monospace">200</text><text x="47" y="125.5" text-anchor="end" font-size="10" fill="#57606a" font-family="ui-monospace, SFMono-Regular, 'SF Mono', Menlo, monospace">300</text><text x="47" y="88.7" text-anchor="end" font-size="10" fill="#57606a" font-family="ui-monospace, SFMono-Regular, 'SF Mono', Menlo, monospace">400</text><text x="47" y="51.9" text-anchor="end" font-size="10" fill="#57606a" font-family="ui-monospace, SFMono-Regular, 'SF Mono', Menlo, monospace">500</text><text x="47" y="15.1" text-anchor="end" font-size="10" fill="#57606a" font-family="ui-monospace, SFMono-Regular, 'SF Mono', Menlo, monospace">600</text>

  <!-- x-axis labels -->
  <text x="52.0" y="248" text-anchor="middle" font-size="10" fill="#8c959f" font-family="ui-monospace, SFMono-Regular, 'SF Mono', Menlo, monospace">05-11</text><text x="777.3" y="248" text-anchor="middle" font-size="10" fill="#8c959f" font-family="ui-monospace, SFMono-Regular, 'SF Mono', Menlo, monospace">06-12</text><text x="800.0" y="248" text-anchor="middle" font-size="10" fill="#8c959f" font-family="ui-monospace, SFMono-Regular, 'SF Mono', Menlo, monospace">06-13</text><text x="142.7" y="248" text-anchor="middle" font-size="10" fill="#8c959f" font-family="ui-monospace, SFMono-Regular, 'SF Mono', Menlo, monospace">05-15</text><text x="233.3" y="248" text-anchor="middle" font-size="10" fill="#8c959f" font-family="ui-monospace, SFMono-Regular, 'SF Mono', Menlo, monospace">05-19</text><text x="324.0" y="248" text-anchor="middle" font-size="10" fill="#8c959f" font-family="ui-monospace, SFMono-Regular, 'SF Mono', Menlo, monospace">05-23</text><text x="414.7" y="248" text-anchor="middle" font-size="10" fill="#8c959f" font-family="ui-monospace, SFMono-Regular, 'SF Mono', Menlo, monospace">05-27</text><text x="505.3" y="248" text-anchor="middle" font-size="10" fill="#8c959f" font-family="ui-monospace, SFMono-Regular, 'SF Mono', Menlo, monospace">05-31</text><text x="596.0" y="248" text-anchor="middle" font-size="10" fill="#8c959f" font-family="ui-monospace, SFMono-Regular, 'SF Mono', Menlo, monospace">06-04</text><text x="686.7" y="248" text-anchor="middle" font-size="10" fill="#8c959f" font-family="ui-monospace, SFMono-Regular, 'SF Mono', Menlo, monospace">06-08</text>

  <!-- legend -->
  <rect x="60" y="262" width="16" height="3" fill="#4e79a7" rx="1"/><text x="80" y="268" font-size="11" fill="#57606a" font-family="-apple-system, BlinkMacSystemFont, 'Segoe UI', sans-serif">Total clones (3,553)</text><line x1="230" y1="264" x2="246" y2="264" stroke="#f28e2b" stroke-width="2" stroke-dasharray="5,3"/><text x="250" y="268" font-size="11" fill="#57606a" font-family="-apple-system, BlinkMacSystemFont, 'Segoe UI', sans-serif">Unique cloners</text>

</svg>