<svg xmlns="http://www.w3.org/2000/svg" viewBox="0 0 820 280" width="820" height="280">

  <!-- title -->
  <text x="52" y="18" font-size="13" font-weight="600"
        fill="#24292f" font-family="-apple-system, BlinkMacSystemFont, 'Segoe UI', sans-serif"
        >Clone traffic — ci-helpers</text>
  <text x="800" y="18" font-size="10" fill="#8c959f"
        font-family="ui-monospace, SFMono-Regular, 'SF Mono', Menlo, monospace" text-anchor="end">2026-06-19</text>

  <!-- grid -->
  <line x1="52" y1="232.0" x2="800" y2="232.0" stroke="#e8e8e8" stroke-width="1"/><line x1="52" y1="183.5" x2="800" y2="183.5" stroke="#e8e8e8" stroke-width="1"/><line x1="52" y1="135.1" x2="800" y2="135.1" stroke="#e8e8e8" stroke-width="1"/><line x1="52" y1="86.6" x2="800" y2="86.6" stroke="#e8e8e8" stroke-width="1"/><line x1="52" y1="38.2" x2="800" y2="38.2" stroke="#e8e8e8" stroke-width="1"/><line x1="52" y1="-10.3" x2="800" y2="-10.3" stroke="#e8e8e8" stroke-width="1"/>

  <!-- area fill -->
  <path d="M52.0,232.0 L52.0,232.0 L72.2,231.7 L92.4,231.5 L112.6,224.4 L132.9,231.2 L153.1,231.8 L173.3,232.0 L193.5,231.0 L213.7,232.0 L233.9,231.7 L254.2,147.7 L274.4,197.4 L294.6,155.9 L314.8,212.1 L335.0,194.9 L355.2,206.6 L375.5,231.5 L395.7,227.5 L415.9,203.7 L436.1,225.4 L456.3,231.5 L476.5,221.2 L496.8,231.4 L517.0,231.8 L537.2,208.4 L557.4,230.4 L577.6,230.2 L597.8,232.0 L618.1,227.6 L638.3,227.5 L658.5,205.7 L678.7,207.3 L698.9,142.5 L719.1,174.5 L739.4,214.1 L759.6,28.0 L779.8,221.7 L800.0,198.4 L800.0,232.0 L52.0,232.0Z" fill="#4e79a7" opacity="0.12"/>

  <!-- lines -->
  <polyline points="52.0,232.0 72.2,231.7 92.4,231.5 112.6,224.4 132.9,231.2 153.1,231.8 173.3,232.0 193.5,231.0 213.7,232.0 233.9,231.7 254.2,147.7 274.4,197.4 294.6,155.9 314.8,212.1 335.0,194.9 355.2,206.6 375.5,231.5 395.7,227.5 415.9,203.7 436.1,225.4 456.3,231.5 476.5,221.2 496.8,231.4 517.0,231.8 537.2,208.4 557.4,230.4 577.6,230.2 597.8,232.0 618.1,227.6 638.3,227.5 658.5,205.7 678.7,207.3 698.9,142.5 719.1,174.5 739.4,214.1 759.6,28.0 779.8,221.7 800.0,198.4"
            fill="none" stroke="#4e79a7"
            stroke-width="2" stroke-linejoin="round"/>
  <polyline points="52.0,232.0 72.2,231.7 92.4,231.5 112.6,228.8 132.9,231.4 153.1,231.8 173.3,232.0 193.5,231.8 213.7,232.0 233.9,231.7 254.2,222.5 274.4,216.0 294.6,202.6 314.8,227.8 335.0,221.5 355.2,223.1 375.5,231.5 395.7,231.8 415.9,220.2 436.1,230.7 456.3,231.5 476.5,230.7 496.8,231.5 517.0,231.8 537.2,223.9 557.4,230.7 577.6,231.2 597.8,232.0 618.1,231.2 638.3,230.4 658.5,221.2 678.7,222.1 698.9,207.8 719.1,213.3 739.4,228.9 759.6,209.1 779.8,229.9 800.0,224.4"
            fill="none" stroke="#f28e2b"
            stroke-width="2" stroke-linejoin="round"
            stroke-dasharray="5,3"/>

  <!-- dots -->
  <circle cx="52.0" cy="232.0" r="3" fill="#4e79a7"/><circle cx="72.2" cy="231.7" r="3" fill="#4e79a7"/><circle cx="92.4" cy="231.5" r="3" fill="#4e79a7"/><circle cx="112.6" cy="224.4" r="3" fill="#4e79a7"/><circle cx="132.9" cy="231.2" r="3" fill="#4e79a7"/><circle cx="153.1" cy="231.8" r="3" fill="#4e79a7"/><circle cx="173.3" cy="232.0" r="3" fill="#4e79a7"/><circle cx="193.5" cy="231.0" r="3" fill="#4e79a7"/><circle cx="213.7" cy="232.0" r="3" fill="#4e79a7"/><circle cx="233.9" cy="231.7" r="3" fill="#4e79a7"/><circle cx="254.2" cy="147.7" r="3" fill="#4e79a7"/><circle cx="274.4" cy="197.4" r="3" fill="#4e79a7"/><circle cx="294.6" cy="155.9" r="3" fill="#4e79a7"/><circle cx="314.8" cy="212.1" r="3" fill="#4e79a7"/><circle cx="335.0" cy="194.9" r="3" fill="#4e79a7"/><circle cx="355.2" cy="206.6" r="3" fill="#4e79a7"/><circle cx="375.5" cy="231.5" r="3" fill="#4e79a7"/><circle cx="395.7" cy="227.5" r="3" fill="#4e79a7"/><circle cx="415.9" cy="203.7" r="3" fill="#4e79a7"/><circle cx="436.1" cy="225.4" r="3" fill="#4e79a7"/><circle cx="456.3" cy="231.5" r="3" fill="#4e79a7"/><circle cx="476.5" cy="221.2" r="3" fill="#4e79a7"/><circle cx="496.8" cy="231.4" r="3" fill="#4e79a7"/><circle cx="517.0" cy="231.8" r="3" fill="#4e79a7"/><circle cx="537.2" cy="208.4" r="3" fill="#4e79a7"/><circle cx="557.4" cy="230.4" r="3" fill="#4e79a7"/><circle cx="577.6" cy="230.2" r="3" fill="#4e79a7"/><circle cx="597.8" cy="232.0" r="3" fill="#4e79a7"/><circle cx="618.1" cy="227.6" r="3" fill="#4e79a7"/><circle cx="638.3" cy="227.5" r="3" fill="#4e79a7"/><circle cx="658.5" cy="205.7" r="3" fill="#4e79a7"/><circle cx="678.7" cy="207.3" r="3" fill="#4e79a7"/><circle cx="698.9" cy="142.5" r="3" fill="#4e79a7"/><circle cx="719.1" cy="174.5" r="3" fill="#4e79a7"/><circle cx="739.4" cy="214.1" r="3" fill="#4e79a7"/><circle cx="759.6" cy="28.0" r="3" fill="#4e79a7"/><circle cx="779.8" cy="221.7" r="3" fill="#4e79a7"/><circle cx="800.0" cy="198.4" r="3" fill="#4e79a7"/>
  <circle cx="52.0" cy="232.0" r="3" fill="#f28e2b"/><circle cx="72.2" cy="231.7" r="3" fill="#f28e2b"/><circle cx="92.4" cy="231.5" r="3" fill="#f28e2b"/><circle cx="112.6" cy="228.8" r="3" fill="#f28e2b"/><circle cx="132.9" cy="231.4" r="3" fill="#f28e2b"/><circle cx="153.1" cy="231.8" r="3" fill="#f28e2b"/><circle cx="173.3" cy="232.0" r="3" fill="#f28e2b"/><circle cx="193.5" cy="231.8" r="3" fill="#f28e2b"/><circle cx="213.7" cy="232.0" r="3" fill="#f28e2b"/><circle cx="233.9" cy="231.7" r="3" fill="#f28e2b"/><circle cx="254.2" cy="222.5" r="3" fill="#f28e2b"/><circle cx="274.4" cy="216.0" r="3" fill="#f28e2b"/><circle cx="294.6" cy="202.6" r="3" fill="#f28e2b"/><circle cx="314.8" cy="227.8" r="3" fill="#f28e2b"/><circle cx="335.0" cy="221.5" r="3" fill="#f28e2b"/><circle cx="355.2" cy="223.1" r="3" fill="#f28e2b"/><circle cx="375.5" cy="231.5" r="3" fill="#f28e2b"/><circle cx="395.7" cy="231.8" r="3" fill="#f28e2b"/><circle cx="415.9" cy="220.2" r="3" fill="#f28e2b"/><circle cx="436.1" cy="230.7" r="3" fill="#f28e2b"/><circle cx="456.3" cy="231.5" r="3" fill="#f28e2b"/><circle cx="476.5" cy="230.7" r="3" fill="#f28e2b"/><circle cx="496.8" cy="231.5" r="3" fill="#f28e2b"/><circle cx="517.0" cy="231.8" r="3" fill="#f28e2b"/><circle cx="537.2" cy="223.9" r="3" fill="#f28e2b"/><circle cx="557.4" cy="230.7" r="3" fill="#f28e2b"/><circle cx="577.6" cy="231.2" r="3" fill="#f28e2b"/><circle cx="597.8" cy="232.0" r="3" fill="#f28e2b"/><circle cx="618.1" cy="231.2" r="3" fill="#f28e2b"/><circle cx="638.3" cy="230.4" r="3" fill="#f28e2b"/><circle cx="658.5" cy="221.2" r="3" fill="#f28e2b"/><circle cx="678.7" cy="222.1" r="3" fill="#f28e2b"/><circle cx="698.9" cy="207.8" r="3" fill="#f28e2b"/><circle cx="719.1" cy="213.3" r="3" fill="#f28e2b"/><circle cx="739.4" cy="228.9" r="3" fill="#f28e2b"/><circle cx="759.6" cy="209.1" r="3" fill="#f28e2b"/><circle cx="779.8" cy="229.9" r="3" fill="#f28e2b"/><circle cx="800.0" cy="224.4" r="3" fill="#f28e2b"/>

  <!-- axes -->
  <line x1="52" y1="28" x2="52" y2="232"
        stroke="#cccccc" stroke-width="1"/>
  <line x1="52" y1="232" x2="800" y2="232"
        stroke="#cccccc" stroke-width="1"/>

  <!-- y-axis labels -->
  <text x="47" y="236.0" text-anchor="end" font-size="10" fill="#57606a" font-family="ui-monospace, SFMono-Regular, 'SF Mono', Menlo, monospace">0</text><text x="47" y="187.5" text-anchor="end" font-size="10" fill="#57606a" font-family="ui-monospace, SFMono-Regular, 'SF Mono', Menlo, monospace">300</text><text x="47" y="139.1" text-anchor="end" font-size="10" fill="#57606a" font-family="ui-monospace, SFMono-Regular, 'SF Mono', Menlo, monospace">600</text><text x="47" y="90.6" text-anchor="end" font-size="10" fill="#57606a" font-family="ui-monospace, SFMono-Regular, 'SF Mono', Menlo, monospace">900</text><text x="47" y="42.2" text-anchor="end" font-size="10" fill="#57606a" font-family="ui-monospace, SFMono-Regular, 'SF Mono', Menlo, monospace">1,200</text><text x="47" y="-6.3" text-anchor="end" font-size="10" fill="#57606a" font-family="ui-monospace, SFMono-Regular, 'SF Mono', Menlo, monospace">1,500</text>

  <!-- x-axis labels -->
  <text x="52.0" y="248" text-anchor="middle" font-size="10" fill="#8c959f" font-family="ui-monospace, SFMono-Regular, 'SF Mono', Menlo, monospace">05-11</text><text x="698.9" y="248" text-anchor="middle" font-size="10" fill="#8c959f" font-family="ui-monospace, SFMono-Regular, 'SF Mono', Menlo, monospace">06-12</text><text x="132.9" y="248" text-anchor="middle" font-size="10" fill="#8c959f" font-family="ui-monospace, SFMono-Regular, 'SF Mono', Menlo, monospace">05-15</text><text x="779.8" y="248" text-anchor="middle" font-size="10" fill="#8c959f" font-family="ui-monospace, SFMono-Regular, 'SF Mono', Menlo, monospace">06-16</text><text x="800.0" y="248" text-anchor="middle" font-size="10" fill="#8c959f" font-family="ui-monospace, SFMono-Regular, 'SF Mono', Menlo, monospace">06-17</text><text x="213.7" y="248" text-anchor="middle" font-size="10" fill="#8c959f" font-family="ui-monospace, SFMono-Regular, 'SF Mono', Menlo, monospace">05-19</text><text x="294.6" y="248" text-anchor="middle" font-size="10" fill="#8c959f" font-family="ui-monospace, SFMono-Regular, 'SF Mono', Menlo, monospace">05-23</text><text x="375.5" y="248" text-anchor="middle" font-size="10" fill="#8c959f" font-family="ui-monospace, SFMono-Regular, 'SF Mono', Menlo, monospace">05-27</text><text x="456.3" y="248" text-anchor="middle" font-size="10" fill="#8c959f" font-family="ui-monospace, SFMono-Regular, 'SF Mono', Menlo, monospace">05-31</text><text x="537.2" y="248" text-anchor="middle" font-size="10" fill="#8c959f" font-family="ui-monospace, SFMono-Regular, 'SF Mono', Menlo, monospace">06-04</text><text x="618.1" y="248" text-anchor="middle" font-size="10" fill="#8c959f" font-family="ui-monospace, SFMono-Regular, 'SF Mono', Menlo, monospace">06-08</text>

  <!-- legend -->
  <rect x="60" y="262" width="16" height="3" fill="#4e79a7" rx="1"/><text x="80" y="268" font-size="11" fill="#57606a" font-family="-apple-system, BlinkMacSystemFont, 'Segoe UI', sans-serif">Total clones (5,199)</text><line x1="230" y1="264" x2="246" y2="264" stroke="#f28e2b" stroke-width="2" stroke-dasharray="5,3"/><text x="250" y="268" font-size="11" fill="#57606a" font-family="-apple-system, BlinkMacSystemFont, 'Segoe UI', sans-serif">Unique cloners</text>

</svg>