<svg xmlns="http://www.w3.org/2000/svg" viewBox="0 0 820 280" width="820" height="280">

  <!-- title -->
  <text x="52" y="18" font-size="13" font-weight="600"
        fill="#24292f" font-family="-apple-system, BlinkMacSystemFont, 'Segoe UI', sans-serif"
        >Clone traffic — ci-helpers</text>
  <text x="800" y="18" font-size="10" fill="#8c959f"
        font-family="ui-monospace, SFMono-Regular, 'SF Mono', Menlo, monospace" text-anchor="end">2026-07-08</text>

  <!-- grid -->
  <line x1="52" y1="232.0" x2="800" y2="232.0" stroke="#e8e8e8" stroke-width="1"/><line x1="52" y1="183.5" x2="800" y2="183.5" stroke="#e8e8e8" stroke-width="1"/><line x1="52" y1="135.1" x2="800" y2="135.1" stroke="#e8e8e8" stroke-width="1"/><line x1="52" y1="86.6" x2="800" y2="86.6" stroke="#e8e8e8" stroke-width="1"/><line x1="52" y1="38.2" x2="800" y2="38.2" stroke="#e8e8e8" stroke-width="1"/><line x1="52" y1="-10.3" x2="800" y2="-10.3" stroke="#e8e8e8" stroke-width="1"/>

  <!-- area fill -->
  <path d="M52.0,232.0 L52.0,232.0 L65.4,231.7 L78.7,231.5 L92.1,224.4 L105.4,231.2 L118.8,231.8 L132.1,232.0 L145.5,231.0 L158.9,232.0 L172.2,231.7 L185.6,147.7 L198.9,197.4 L212.3,155.9 L225.6,212.1 L239.0,194.9 L252.4,206.6 L265.7,231.5 L279.1,227.5 L292.4,203.7 L305.8,225.4 L319.1,231.5 L332.5,221.2 L345.9,231.4 L359.2,231.8 L372.6,208.4 L385.9,230.4 L399.3,230.2 L412.6,232.0 L426.0,227.6 L439.4,227.5 L452.7,205.7 L466.1,207.3 L479.4,142.5 L492.8,174.5 L506.1,214.1 L519.5,28.0 L532.9,221.7 L546.2,198.4 L559.6,225.2 L572.9,196.3 L586.3,230.2 L599.6,231.0 L613.0,47.1 L626.4,222.3 L639.7,224.9 L653.1,231.7 L666.4,232.0 L679.8,232.0 L693.1,193.2 L706.5,221.2 L719.9,230.7 L733.2,231.4 L746.6,231.7 L759.9,231.7 L773.3,231.4 L786.6,231.8 L800.0,219.9 L800.0,232.0 L52.0,232.0Z" fill="#4e79a7" opacity="0.12"/>

  <!-- lines -->
  <polyline points="52.0,232.0 65.4,231.7 78.7,231.5 92.1,224.4 105.4,231.2 118.8,231.8 132.1,232.0 145.5,231.0 158.9,232.0 172.2,231.7 185.6,147.7 198.9,197.4 212.3,155.9 225.6,212.1 239.0,194.9 252.4,206.6 265.7,231.5 279.1,227.5 292.4,203.7 305.8,225.4 319.1,231.5 332.5,221.2 345.9,231.4 359.2,231.8 372.6,208.4 385.9,230.4 399.3,230.2 412.6,232.0 426.0,227.6 439.4,227.5 452.7,205.7 466.1,207.3 479.4,142.5 492.8,174.5 506.1,214.1 519.5,28.0 532.9,221.7 546.2,198.4 559.6,225.2 572.9,196.3 586.3,230.2 599.6,231.0 613.0,47.1 626.4,222.3 639.7,224.9 653.1,231.7 666.4,232.0 679.8,232.0 693.1,193.2 706.5,221.2 719.9,230.7 733.2,231.4 746.6,231.7 759.9,231.7 773.3,231.4 786.6,231.8 800.0,219.9"
            fill="none" stroke="#4e79a7"
            stroke-width="2" stroke-linejoin="round"/>
  <polyline points="52.0,232.0 65.4,231.7 78.7,231.5 92.1,228.8 105.4,231.4 118.8,231.8 132.1,232.0 145.5,231.8 158.9,232.0 172.2,231.7 185.6,222.5 198.9,216.0 212.3,202.6 225.6,227.8 239.0,221.5 252.4,223.1 265.7,231.5 279.1,231.8 292.4,220.2 305.8,230.7 319.1,231.5 332.5,230.7 345.9,231.5 359.2,231.8 372.6,223.9 385.9,230.7 399.3,231.2 412.6,232.0 426.0,231.2 439.4,230.4 452.7,221.2 466.1,222.1 479.4,207.8 492.8,213.3 506.1,228.9 519.5,209.1 532.9,229.9 546.2,224.4 559.6,230.4 572.9,224.6 586.3,230.9 599.6,231.5 613.0,214.1 626.4,229.1 639.7,230.9 653.1,231.7 666.4,232.0 679.8,232.0 693.1,227.0 706.5,228.3 719.9,231.4 733.2,231.4 746.6,231.7 759.9,231.7 773.3,231.5 786.6,231.8 800.0,230.2"
            fill="none" stroke="#f28e2b"
            stroke-width="2" stroke-linejoin="round"
            stroke-dasharray="5,3"/>

  <!-- dots -->
  <circle cx="52.0" cy="232.0" r="3" fill="#4e79a7"/><circle cx="65.4" cy="231.7" r="3" fill="#4e79a7"/><circle cx="78.7" cy="231.5" r="3" fill="#4e79a7"/><circle cx="92.1" cy="224.4" r="3" fill="#4e79a7"/><circle cx="105.4" cy="231.2" r="3" fill="#4e79a7"/><circle cx="118.8" cy="231.8" r="3" fill="#4e79a7"/><circle cx="132.1" cy="232.0" r="3" fill="#4e79a7"/><circle cx="145.5" cy="231.0" r="3" fill="#4e79a7"/><circle cx="158.9" cy="232.0" r="3" fill="#4e79a7"/><circle cx="172.2" cy="231.7" r="3" fill="#4e79a7"/><circle cx="185.6" cy="147.7" r="3" fill="#4e79a7"/><circle cx="198.9" cy="197.4" r="3" fill="#4e79a7"/><circle cx="212.3" cy="155.9" r="3" fill="#4e79a7"/><circle cx="225.6" cy="212.1" r="3" fill="#4e79a7"/><circle cx="239.0" cy="194.9" r="3" fill="#4e79a7"/><circle cx="252.4" cy="206.6" r="3" fill="#4e79a7"/><circle cx="265.7" cy="231.5" r="3" fill="#4e79a7"/><circle cx="279.1" cy="227.5" r="3" fill="#4e79a7"/><circle cx="292.4" cy="203.7" r="3" fill="#4e79a7"/><circle cx="305.8" cy="225.4" r="3" fill="#4e79a7"/><circle cx="319.1" cy="231.5" r="3" fill="#4e79a7"/><circle cx="332.5" cy="221.2" r="3" fill="#4e79a7"/><circle cx="345.9" cy="231.4" r="3" fill="#4e79a7"/><circle cx="359.2" cy="231.8" r="3" fill="#4e79a7"/><circle cx="372.6" cy="208.4" r="3" fill="#4e79a7"/><circle cx="385.9" cy="230.4" r="3" fill="#4e79a7"/><circle cx="399.3" cy="230.2" r="3" fill="#4e79a7"/><circle cx="412.6" cy="232.0" r="3" fill="#4e79a7"/><circle cx="426.0" cy="227.6" r="3" fill="#4e79a7"/><circle cx="439.4" cy="227.5" r="3" fill="#4e79a7"/><circle cx="452.7" cy="205.7" r="3" fill="#4e79a7"/><circle cx="466.1" cy="207.3" r="3" fill="#4e79a7"/><circle cx="479.4" cy="142.5" r="3" fill="#4e79a7"/><circle cx="492.8" cy="174.5" r="3" fill="#4e79a7"/><circle cx="506.1" cy="214.1" r="3" fill="#4e79a7"/><circle cx="519.5" cy="28.0" r="3" fill="#4e79a7"/><circle cx="532.9" cy="221.7" r="3" fill="#4e79a7"/><circle cx="546.2" cy="198.4" r="3" fill="#4e79a7"/><circle cx="559.6" cy="225.2" r="3" fill="#4e79a7"/><circle cx="572.9" cy="196.3" r="3" fill="#4e79a7"/><circle cx="586.3" cy="230.2" r="3" fill="#4e79a7"/><circle cx="599.6" cy="231.0" r="3" fill="#4e79a7"/><circle cx="613.0" cy="47.1" r="3" fill="#4e79a7"/><circle cx="626.4" cy="222.3" r="3" fill="#4e79a7"/><circle cx="639.7" cy="224.9" r="3" fill="#4e79a7"/><circle cx="653.1" cy="231.7" r="3" fill="#4e79a7"/><circle cx="666.4" cy="232.0" r="3" fill="#4e79a7"/><circle cx="679.8" cy="232.0" r="3" fill="#4e79a7"/><circle cx="693.1" cy="193.2" r="3" fill="#4e79a7"/><circle cx="706.5" cy="221.2" r="3" fill="#4e79a7"/><circle cx="719.9" cy="230.7" r="3" fill="#4e79a7"/><circle cx="733.2" cy="231.4" r="3" fill="#4e79a7"/><circle cx="746.6" cy="231.7" r="3" fill="#4e79a7"/><circle cx="759.9" cy="231.7" r="3" fill="#4e79a7"/><circle cx="773.3" cy="231.4" r="3" fill="#4e79a7"/><circle cx="786.6" cy="231.8" r="3" fill="#4e79a7"/><circle cx="800.0" cy="219.9" r="3" fill="#4e79a7"/>
  <circle cx="52.0" cy="232.0" r="3" fill="#f28e2b"/><circle cx="65.4" cy="231.7" r="3" fill="#f28e2b"/><circle cx="78.7" cy="231.5" r="3" fill="#f28e2b"/><circle cx="92.1" cy="228.8" r="3" fill="#f28e2b"/><circle cx="105.4" cy="231.4" r="3" fill="#f28e2b"/><circle cx="118.8" cy="231.8" r="3" fill="#f28e2b"/><circle cx="132.1" cy="232.0" r="3" fill="#f28e2b"/><circle cx="145.5" cy="231.8" r="3" fill="#f28e2b"/><circle cx="158.9" cy="232.0" r="3" fill="#f28e2b"/><circle cx="172.2" cy="231.7" r="3" fill="#f28e2b"/><circle cx="185.6" cy="222.5" r="3" fill="#f28e2b"/><circle cx="198.9" cy="216.0" r="3" fill="#f28e2b"/><circle cx="212.3" cy="202.6" r="3" fill="#f28e2b"/><circle cx="225.6" cy="227.8" r="3" fill="#f28e2b"/><circle cx="239.0" cy="221.5" r="3" fill="#f28e2b"/><circle cx="252.4" cy="223.1" r="3" fill="#f28e2b"/><circle cx="265.7" cy="231.5" r="3" fill="#f28e2b"/><circle cx="279.1" cy="231.8" r="3" fill="#f28e2b"/><circle cx="292.4" cy="220.2" r="3" fill="#f28e2b"/><circle cx="305.8" cy="230.7" r="3" fill="#f28e2b"/><circle cx="319.1" cy="231.5" r="3" fill="#f28e2b"/><circle cx="332.5" cy="230.7" r="3" fill="#f28e2b"/><circle cx="345.9" cy="231.5" r="3" fill="#f28e2b"/><circle cx="359.2" cy="231.8" r="3" fill="#f28e2b"/><circle cx="372.6" cy="223.9" r="3" fill="#f28e2b"/><circle cx="385.9" cy="230.7" r="3" fill="#f28e2b"/><circle cx="399.3" cy="231.2" r="3" fill="#f28e2b"/><circle cx="412.6" cy="232.0" r="3" fill="#f28e2b"/><circle cx="426.0" cy="231.2" r="3" fill="#f28e2b"/><circle cx="439.4" cy="230.4" r="3" fill="#f28e2b"/><circle cx="452.7" cy="221.2" r="3" fill="#f28e2b"/><circle cx="466.1" cy="222.1" r="3" fill="#f28e2b"/><circle cx="479.4" cy="207.8" r="3" fill="#f28e2b"/><circle cx="492.8" cy="213.3" r="3" fill="#f28e2b"/><circle cx="506.1" cy="228.9" r="3" fill="#f28e2b"/><circle cx="519.5" cy="209.1" r="3" fill="#f28e2b"/><circle cx="532.9" cy="229.9" r="3" fill="#f28e2b"/><circle cx="546.2" cy="224.4" r="3" fill="#f28e2b"/><circle cx="559.6" cy="230.4" r="3" fill="#f28e2b"/><circle cx="572.9" cy="224.6" r="3" fill="#f28e2b"/><circle cx="586.3" cy="230.9" r="3" fill="#f28e2b"/><circle cx="599.6" cy="231.5" r="3" fill="#f28e2b"/><circle cx="613.0" cy="214.1" r="3" fill="#f28e2b"/><circle cx="626.4" cy="229.1" r="3" fill="#f28e2b"/><circle cx="639.7" cy="230.9" r="3" fill="#f28e2b"/><circle cx="653.1" cy="231.7" r="3" fill="#f28e2b"/><circle cx="666.4" cy="232.0" r="3" fill="#f28e2b"/><circle cx="679.8" cy="232.0" r="3" fill="#f28e2b"/><circle cx="693.1" cy="227.0" r="3" fill="#f28e2b"/><circle cx="706.5" cy="228.3" r="3" fill="#f28e2b"/><circle cx="719.9" cy="231.4" r="3" fill="#f28e2b"/><circle cx="733.2" cy="231.4" r="3" fill="#f28e2b"/><circle cx="746.6" cy="231.7" r="3" fill="#f28e2b"/><circle cx="759.9" cy="231.7" r="3" fill="#f28e2b"/><circle cx="773.3" cy="231.5" r="3" fill="#f28e2b"/><circle cx="786.6" cy="231.8" r="3" fill="#f28e2b"/><circle cx="800.0" cy="230.2" r="3" fill="#f28e2b"/>

  <!-- axes -->
  <line x1="52" y1="28" x2="52" y2="232"
        stroke="#cccccc" stroke-width="1"/>
  <line x1="52" y1="232" x2="800" y2="232"
        stroke="#cccccc" stroke-width="1"/>

  <!-- y-axis labels -->
  <text x="47" y="236.0" text-anchor="end" font-size="10" fill="#57606a" font-family="ui-monospace, SFMono-Regular, 'SF Mono', Menlo, monospace">0</text><text x="47" y="187.5" text-anchor="end" font-size="10" fill="#57606a" font-family="ui-monospace, SFMono-Regular, 'SF Mono', Menlo, monospace">300</text><text x="47" y="139.1" text-anchor="end" font-size="10" fill="#57606a" font-family="ui-monospace, SFMono-Regular, 'SF Mono', Menlo, monospace">600</text><text x="47" y="90.6" text-anchor="end" font-size="10" fill="#57606a" font-family="ui-monospace, SFMono-Regular, 'SF Mono', Menlo, monospace">900</text><text x="47" y="42.2" text-anchor="end" font-size="10" fill="#57606a" font-family="ui-monospace, SFMono-Regular, 'SF Mono', Menlo, monospace">1,200</text><text x="47" y="-6.3" text-anchor="end" font-size="10" fill="#57606a" font-family="ui-monospace, SFMono-Regular, 'SF Mono', Menlo, monospace">1,500</text>

  <!-- x-axis labels -->
  <text x="52.0" y="248" text-anchor="middle" font-size="10" fill="#8c959f" font-family="ui-monospace, SFMono-Regular, 'SF Mono', Menlo, monospace">05-11</text><text x="519.5" y="248" text-anchor="middle" font-size="10" fill="#8c959f" font-family="ui-monospace, SFMono-Regular, 'SF Mono', Menlo, monospace">06-15</text><text x="145.5" y="248" text-anchor="middle" font-size="10" fill="#8c959f" font-family="ui-monospace, SFMono-Regular, 'SF Mono', Menlo, monospace">05-18</text><text x="613.0" y="248" text-anchor="middle" font-size="10" fill="#8c959f" font-family="ui-monospace, SFMono-Regular, 'SF Mono', Menlo, monospace">06-22</text><text x="239.0" y="248" text-anchor="middle" font-size="10" fill="#8c959f" font-family="ui-monospace, SFMono-Regular, 'SF Mono', Menlo, monospace">05-25</text><text x="706.5" y="248" text-anchor="middle" font-size="10" fill="#8c959f" font-family="ui-monospace, SFMono-Regular, 'SF Mono', Menlo, monospace">06-29</text><text x="332.5" y="248" text-anchor="middle" font-size="10" fill="#8c959f" font-family="ui-monospace, SFMono-Regular, 'SF Mono', Menlo, monospace">06-01</text><text x="800.0" y="248" text-anchor="middle" font-size="10" fill="#8c959f" font-family="ui-monospace, SFMono-Regular, 'SF Mono', Menlo, monospace">07-06</text><text x="426.0" y="248" text-anchor="middle" font-size="10" fill="#8c959f" font-family="ui-monospace, SFMono-Regular, 'SF Mono', Menlo, monospace">06-08</text>

  <!-- legend -->
  <rect x="60" y="262" width="16" height="3" fill="#4e79a7" rx="1"/><text x="80" y="268" font-size="11" fill="#57606a" font-family="-apple-system, BlinkMacSystemFont, 'Segoe UI', sans-serif">Total clones (7,133)</text><line x1="230" y1="264" x2="246" y2="264" stroke="#f28e2b" stroke-width="2" stroke-dasharray="5,3"/><text x="250" y="268" font-size="11" fill="#57606a" font-family="-apple-system, BlinkMacSystemFont, 'Segoe UI', sans-serif">Unique cloners</text>

</svg>