<svg xmlns="http://www.w3.org/2000/svg" viewBox="0 0 820 280" width="820" height="280">

  <!-- title -->
  <text x="52" y="18" font-size="13" font-weight="600"
        fill="#24292f" font-family="-apple-system, BlinkMacSystemFont, 'Segoe UI', sans-serif"
        >Clone traffic — ci-helpers</text>
  <text x="800" y="18" font-size="10" fill="#8c959f"
        font-family="ui-monospace, SFMono-Regular, 'SF Mono', Menlo, monospace" text-anchor="end">2026-07-24</text>

  <!-- grid -->
  <line x1="52" y1="232.0" x2="800" y2="232.0" stroke="#e8e8e8" stroke-width="1"/><line x1="52" y1="183.5" x2="800" y2="183.5" stroke="#e8e8e8" stroke-width="1"/><line x1="52" y1="135.1" x2="800" y2="135.1" stroke="#e8e8e8" stroke-width="1"/><line x1="52" y1="86.6" x2="800" y2="86.6" stroke="#e8e8e8" stroke-width="1"/><line x1="52" y1="38.2" x2="800" y2="38.2" stroke="#e8e8e8" stroke-width="1"/><line x1="52" y1="-10.3" x2="800" y2="-10.3" stroke="#e8e8e8" stroke-width="1"/>

  <!-- area fill -->
  <path d="M52.0,232.0 L52.0,232.0 L62.4,231.7 L72.8,231.5 L83.2,224.4 L93.6,231.2 L103.9,231.8 L114.3,232.0 L124.7,231.0 L135.1,232.0 L145.5,231.7 L155.9,147.7 L166.3,197.4 L176.7,155.9 L187.1,212.1 L197.4,194.9 L207.8,206.6 L218.2,231.5 L228.6,227.5 L239.0,203.7 L249.4,225.4 L259.8,231.5 L270.2,221.2 L280.6,231.4 L290.9,231.8 L301.3,208.4 L311.7,230.4 L322.1,230.2 L332.5,232.0 L342.9,227.6 L353.3,227.5 L363.7,205.7 L374.1,207.3 L384.4,142.5 L394.8,174.5 L405.2,214.1 L415.6,28.0 L426.0,221.7 L436.4,198.4 L446.8,225.2 L457.2,196.3 L467.6,230.2 L477.9,231.0 L488.3,47.1 L498.7,222.3 L509.1,224.9 L519.5,231.7 L529.9,232.0 L540.3,232.0 L550.7,193.2 L561.1,221.2 L571.4,230.7 L581.8,231.4 L592.2,231.7 L602.6,231.7 L613.0,231.4 L623.4,231.8 L633.8,219.9 L644.2,227.6 L654.6,231.7 L664.9,231.0 L675.3,231.7 L685.7,231.7 L696.1,232.0 L706.5,224.4 L716.9,230.1 L727.3,230.7 L737.7,229.6 L748.1,231.8 L758.4,232.0 L768.8,232.0 L779.2,229.6 L789.6,227.8 L800.0,229.6 L800.0,232.0 L52.0,232.0Z" fill="#4e79a7" opacity="0.12"/>

  <!-- lines -->
  <polyline points="52.0,232.0 62.4,231.7 72.8,231.5 83.2,224.4 93.6,231.2 103.9,231.8 114.3,232.0 124.7,231.0 135.1,232.0 145.5,231.7 155.9,147.7 166.3,197.4 176.7,155.9 187.1,212.1 197.4,194.9 207.8,206.6 218.2,231.5 228.6,227.5 239.0,203.7 249.4,225.4 259.8,231.5 270.2,221.2 280.6,231.4 290.9,231.8 301.3,208.4 311.7,230.4 322.1,230.2 332.5,232.0 342.9,227.6 353.3,227.5 363.7,205.7 374.1,207.3 384.4,142.5 394.8,174.5 405.2,214.1 415.6,28.0 426.0,221.7 436.4,198.4 446.8,225.2 457.2,196.3 467.6,230.2 477.9,231.0 488.3,47.1 498.7,222.3 509.1,224.9 519.5,231.7 529.9,232.0 540.3,232.0 550.7,193.2 561.1,221.2 571.4,230.7 581.8,231.4 592.2,231.7 602.6,231.7 613.0,231.4 623.4,231.8 633.8,219.9 644.2,227.6 654.6,231.7 664.9,231.0 675.3,231.7 685.7,231.7 696.1,232.0 706.5,224.4 716.9,230.1 727.3,230.7 737.7,229.6 748.1,231.8 758.4,232.0 768.8,232.0 779.2,229.6 789.6,227.8 800.0,229.6"
            fill="none" stroke="#4e79a7"
            stroke-width="2" stroke-linejoin="round"/>
  <polyline points="52.0,232.0 62.4,231.7 72.8,231.5 83.2,228.8 93.6,231.4 103.9,231.8 114.3,232.0 124.7,231.8 135.1,232.0 145.5,231.7 155.9,222.5 166.3,216.0 176.7,202.6 187.1,227.8 197.4,221.5 207.8,223.1 218.2,231.5 228.6,231.8 239.0,220.2 249.4,230.7 259.8,231.5 270.2,230.7 280.6,231.5 290.9,231.8 301.3,223.9 311.7,230.7 322.1,231.2 332.5,232.0 342.9,231.2 353.3,230.4 363.7,221.2 374.1,222.1 384.4,207.8 394.8,213.3 405.2,228.9 415.6,209.1 426.0,229.9 436.4,224.4 446.8,230.4 457.2,224.6 467.6,230.9 477.9,231.5 488.3,214.1 498.7,229.1 509.1,230.9 519.5,231.7 529.9,232.0 540.3,232.0 550.7,227.0 561.1,228.3 571.4,231.4 581.8,231.4 592.2,231.7 602.6,231.7 613.0,231.5 623.4,231.8 633.8,230.2 644.2,230.4 654.6,231.7 664.9,231.5 675.3,231.7 685.7,231.7 696.1,232.0 706.5,231.0 716.9,231.5 727.3,231.7 737.7,231.4 748.1,231.8 758.4,232.0 768.8,232.0 779.2,231.2 789.6,229.9 800.0,231.2"
            fill="none" stroke="#f28e2b"
            stroke-width="2" stroke-linejoin="round"
            stroke-dasharray="5,3"/>

  <!-- dots -->
  <circle cx="52.0" cy="232.0" r="3" fill="#4e79a7"/><circle cx="62.4" cy="231.7" r="3" fill="#4e79a7"/><circle cx="72.8" cy="231.5" r="3" fill="#4e79a7"/><circle cx="83.2" cy="224.4" r="3" fill="#4e79a7"/><circle cx="93.6" cy="231.2" r="3" fill="#4e79a7"/><circle cx="103.9" cy="231.8" r="3" fill="#4e79a7"/><circle cx="114.3" cy="232.0" r="3" fill="#4e79a7"/><circle cx="124.7" cy="231.0" r="3" fill="#4e79a7"/><circle cx="135.1" cy="232.0" r="3" fill="#4e79a7"/><circle cx="145.5" cy="231.7" r="3" fill="#4e79a7"/><circle cx="155.9" cy="147.7" r="3" fill="#4e79a7"/><circle cx="166.3" cy="197.4" r="3" fill="#4e79a7"/><circle cx="176.7" cy="155.9" r="3" fill="#4e79a7"/><circle cx="187.1" cy="212.1" r="3" fill="#4e79a7"/><circle cx="197.4" cy="194.9" r="3" fill="#4e79a7"/><circle cx="207.8" cy="206.6" r="3" fill="#4e79a7"/><circle cx="218.2" cy="231.5" r="3" fill="#4e79a7"/><circle cx="228.6" cy="227.5" r="3" fill="#4e79a7"/><circle cx="239.0" cy="203.7" r="3" fill="#4e79a7"/><circle cx="249.4" cy="225.4" r="3" fill="#4e79a7"/><circle cx="259.8" cy="231.5" r="3" fill="#4e79a7"/><circle cx="270.2" cy="221.2" r="3" fill="#4e79a7"/><circle cx="280.6" cy="231.4" r="3" fill="#4e79a7"/><circle cx="290.9" cy="231.8" r="3" fill="#4e79a7"/><circle cx="301.3" cy="208.4" r="3" fill="#4e79a7"/><circle cx="311.7" cy="230.4" r="3" fill="#4e79a7"/><circle cx="322.1" cy="230.2" r="3" fill="#4e79a7"/><circle cx="332.5" cy="232.0" r="3" fill="#4e79a7"/><circle cx="342.9" cy="227.6" r="3" fill="#4e79a7"/><circle cx="353.3" cy="227.5" r="3" fill="#4e79a7"/><circle cx="363.7" cy="205.7" r="3" fill="#4e79a7"/><circle cx="374.1" cy="207.3" r="3" fill="#4e79a7"/><circle cx="384.4" cy="142.5" r="3" fill="#4e79a7"/><circle cx="394.8" cy="174.5" r="3" fill="#4e79a7"/><circle cx="405.2" cy="214.1" r="3" fill="#4e79a7"/><circle cx="415.6" cy="28.0" r="3" fill="#4e79a7"/><circle cx="426.0" cy="221.7" r="3" fill="#4e79a7"/><circle cx="436.4" cy="198.4" r="3" fill="#4e79a7"/><circle cx="446.8" cy="225.2" r="3" fill="#4e79a7"/><circle cx="457.2" cy="196.3" r="3" fill="#4e79a7"/><circle cx="467.6" cy="230.2" r="3" fill="#4e79a7"/><circle cx="477.9" cy="231.0" r="3" fill="#4e79a7"/><circle cx="488.3" cy="47.1" r="3" fill="#4e79a7"/><circle cx="498.7" cy="222.3" r="3" fill="#4e79a7"/><circle cx="509.1" cy="224.9" r="3" fill="#4e79a7"/><circle cx="519.5" cy="231.7" r="3" fill="#4e79a7"/><circle cx="529.9" cy="232.0" r="3" fill="#4e79a7"/><circle cx="540.3" cy="232.0" r="3" fill="#4e79a7"/><circle cx="550.7" cy="193.2" r="3" fill="#4e79a7"/><circle cx="561.1" cy="221.2" r="3" fill="#4e79a7"/><circle cx="571.4" cy="230.7" r="3" fill="#4e79a7"/><circle cx="581.8" cy="231.4" r="3" fill="#4e79a7"/><circle cx="592.2" cy="231.7" r="3" fill="#4e79a7"/><circle cx="602.6" cy="231.7" r="3" fill="#4e79a7"/><circle cx="613.0" cy="231.4" r="3" fill="#4e79a7"/><circle cx="623.4" cy="231.8" r="3" fill="#4e79a7"/><circle cx="633.8" cy="219.9" r="3" fill="#4e79a7"/><circle cx="644.2" cy="227.6" r="3" fill="#4e79a7"/><circle cx="654.6" cy="231.7" r="3" fill="#4e79a7"/><circle cx="664.9" cy="231.0" r="3" fill="#4e79a7"/><circle cx="675.3" cy="231.7" r="3" fill="#4e79a7"/><circle cx="685.7" cy="231.7" r="3" fill="#4e79a7"/><circle cx="696.1" cy="232.0" r="3" fill="#4e79a7"/><circle cx="706.5" cy="224.4" r="3" fill="#4e79a7"/><circle cx="716.9" cy="230.1" r="3" fill="#4e79a7"/><circle cx="727.3" cy="230.7" r="3" fill="#4e79a7"/><circle cx="737.7" cy="229.6" r="3" fill="#4e79a7"/><circle cx="748.1" cy="231.8" r="3" fill="#4e79a7"/><circle cx="758.4" cy="232.0" r="3" fill="#4e79a7"/><circle cx="768.8" cy="232.0" r="3" fill="#4e79a7"/><circle cx="779.2" cy="229.6" r="3" fill="#4e79a7"/><circle cx="789.6" cy="227.8" r="3" fill="#4e79a7"/><circle cx="800.0" cy="229.6" r="3" fill="#4e79a7"/>
  <circle cx="52.0" cy="232.0" r="3" fill="#f28e2b"/><circle cx="62.4" cy="231.7" r="3" fill="#f28e2b"/><circle cx="72.8" cy="231.5" r="3" fill="#f28e2b"/><circle cx="83.2" cy="228.8" r="3" fill="#f28e2b"/><circle cx="93.6" cy="231.4" r="3" fill="#f28e2b"/><circle cx="103.9" cy="231.8" r="3" fill="#f28e2b"/><circle cx="114.3" cy="232.0" r="3" fill="#f28e2b"/><circle cx="124.7" cy="231.8" r="3" fill="#f28e2b"/><circle cx="135.1" cy="232.0" r="3" fill="#f28e2b"/><circle cx="145.5" cy="231.7" r="3" fill="#f28e2b"/><circle cx="155.9" cy="222.5" r="3" fill="#f28e2b"/><circle cx="166.3" cy="216.0" r="3" fill="#f28e2b"/><circle cx="176.7" cy="202.6" r="3" fill="#f28e2b"/><circle cx="187.1" cy="227.8" r="3" fill="#f28e2b"/><circle cx="197.4" cy="221.5" r="3" fill="#f28e2b"/><circle cx="207.8" cy="223.1" r="3" fill="#f28e2b"/><circle cx="218.2" cy="231.5" r="3" fill="#f28e2b"/><circle cx="228.6" cy="231.8" r="3" fill="#f28e2b"/><circle cx="239.0" cy="220.2" r="3" fill="#f28e2b"/><circle cx="249.4" cy="230.7" r="3" fill="#f28e2b"/><circle cx="259.8" cy="231.5" r="3" fill="#f28e2b"/><circle cx="270.2" cy="230.7" r="3" fill="#f28e2b"/><circle cx="280.6" cy="231.5" r="3" fill="#f28e2b"/><circle cx="290.9" cy="231.8" r="3" fill="#f28e2b"/><circle cx="301.3" cy="223.9" r="3" fill="#f28e2b"/><circle cx="311.7" cy="230.7" r="3" fill="#f28e2b"/><circle cx="322.1" cy="231.2" r="3" fill="#f28e2b"/><circle cx="332.5" cy="232.0" r="3" fill="#f28e2b"/><circle cx="342.9" cy="231.2" r="3" fill="#f28e2b"/><circle cx="353.3" cy="230.4" r="3" fill="#f28e2b"/><circle cx="363.7" cy="221.2" r="3" fill="#f28e2b"/><circle cx="374.1" cy="222.1" r="3" fill="#f28e2b"/><circle cx="384.4" cy="207.8" r="3" fill="#f28e2b"/><circle cx="394.8" cy="213.3" r="3" fill="#f28e2b"/><circle cx="405.2" cy="228.9" r="3" fill="#f28e2b"/><circle cx="415.6" cy="209.1" r="3" fill="#f28e2b"/><circle cx="426.0" cy="229.9" r="3" fill="#f28e2b"/><circle cx="436.4" cy="224.4" r="3" fill="#f28e2b"/><circle cx="446.8" cy="230.4" r="3" fill="#f28e2b"/><circle cx="457.2" cy="224.6" r="3" fill="#f28e2b"/><circle cx="467.6" cy="230.9" r="3" fill="#f28e2b"/><circle cx="477.9" cy="231.5" r="3" fill="#f28e2b"/><circle cx="488.3" cy="214.1" r="3" fill="#f28e2b"/><circle cx="498.7" cy="229.1" r="3" fill="#f28e2b"/><circle cx="509.1" cy="230.9" r="3" fill="#f28e2b"/><circle cx="519.5" cy="231.7" r="3" fill="#f28e2b"/><circle cx="529.9" cy="232.0" r="3" fill="#f28e2b"/><circle cx="540.3" cy="232.0" r="3" fill="#f28e2b"/><circle cx="550.7" cy="227.0" r="3" fill="#f28e2b"/><circle cx="561.1" cy="228.3" r="3" fill="#f28e2b"/><circle cx="571.4" cy="231.4" r="3" fill="#f28e2b"/><circle cx="581.8" cy="231.4" r="3" fill="#f28e2b"/><circle cx="592.2" cy="231.7" r="3" fill="#f28e2b"/><circle cx="602.6" cy="231.7" r="3" fill="#f28e2b"/><circle cx="613.0" cy="231.5" r="3" fill="#f28e2b"/><circle cx="623.4" cy="231.8" r="3" fill="#f28e2b"/><circle cx="633.8" cy="230.2" r="3" fill="#f28e2b"/><circle cx="644.2" cy="230.4" r="3" fill="#f28e2b"/><circle cx="654.6" cy="231.7" r="3" fill="#f28e2b"/><circle cx="664.9" cy="231.5" r="3" fill="#f28e2b"/><circle cx="675.3" cy="231.7" r="3" fill="#f28e2b"/><circle cx="685.7" cy="231.7" r="3" fill="#f28e2b"/><circle cx="696.1" cy="232.0" r="3" fill="#f28e2b"/><circle cx="706.5" cy="231.0" r="3" fill="#f28e2b"/><circle cx="716.9" cy="231.5" r="3" fill="#f28e2b"/><circle cx="727.3" cy="231.7" r="3" fill="#f28e2b"/><circle cx="737.7" cy="231.4" r="3" fill="#f28e2b"/><circle cx="748.1" cy="231.8" r="3" fill="#f28e2b"/><circle cx="758.4" cy="232.0" r="3" fill="#f28e2b"/><circle cx="768.8" cy="232.0" r="3" fill="#f28e2b"/><circle cx="779.2" cy="231.2" r="3" fill="#f28e2b"/><circle cx="789.6" cy="229.9" r="3" fill="#f28e2b"/><circle cx="800.0" cy="231.2" r="3" fill="#f28e2b"/>

  <!-- axes -->
  <line x1="52" y1="28" x2="52" y2="232"
        stroke="#cccccc" stroke-width="1"/>
  <line x1="52" y1="232" x2="800" y2="232"
        stroke="#cccccc" stroke-width="1"/>

  <!-- y-axis labels -->
  <text x="47" y="236.0" text-anchor="end" font-size="10" fill="#57606a" font-family="ui-monospace, SFMono-Regular, 'SF Mono', Menlo, monospace">0</text><text x="47" y="187.5" text-anchor="end" font-size="10" fill="#57606a" font-family="ui-monospace, SFMono-Regular, 'SF Mono', Menlo, monospace">300</text><text x="47" y="139.1" text-anchor="end" font-size="10" fill="#57606a" font-family="ui-monospace, SFMono-Regular, 'SF Mono', Menlo, monospace">600</text><text x="47" y="90.6" text-anchor="end" font-size="10" fill="#57606a" font-family="ui-monospace, SFMono-Regular, 'SF Mono', Menlo, monospace">900</text><text x="47" y="42.2" text-anchor="end" font-size="10" fill="#57606a" font-family="ui-monospace, SFMono-Regular, 'SF Mono', Menlo, monospace">1,200</text><text x="47" y="-6.3" text-anchor="end" font-size="10" fill="#57606a" font-family="ui-monospace, SFMono-Regular, 'SF Mono', Menlo, monospace">1,500</text>

  <!-- x-axis labels -->
  <text x="52.0" y="248" text-anchor="middle" font-size="10" fill="#8c959f" font-family="ui-monospace, SFMono-Regular, 'SF Mono', Menlo, monospace">05-11</text><text x="426.0" y="248" text-anchor="middle" font-size="10" fill="#8c959f" font-family="ui-monospace, SFMono-Regular, 'SF Mono', Menlo, monospace">06-16</text><text x="800.0" y="248" text-anchor="middle" font-size="10" fill="#8c959f" font-family="ui-monospace, SFMono-Regular, 'SF Mono', Menlo, monospace">07-22</text><text x="145.5" y="248" text-anchor="middle" font-size="10" fill="#8c959f" font-family="ui-monospace, SFMono-Regular, 'SF Mono', Menlo, monospace">05-20</text><text x="519.5" y="248" text-anchor="middle" font-size="10" fill="#8c959f" font-family="ui-monospace, SFMono-Regular, 'SF Mono', Menlo, monospace">06-25</text><text x="239.0" y="248" text-anchor="middle" font-size="10" fill="#8c959f" font-family="ui-monospace, SFMono-Regular, 'SF Mono', Menlo, monospace">05-29</text><text x="613.0" y="248" text-anchor="middle" font-size="10" fill="#8c959f" font-family="ui-monospace, SFMono-Regular, 'SF Mono', Menlo, monospace">07-04</text><text x="332.5" y="248" text-anchor="middle" font-size="10" fill="#8c959f" font-family="ui-monospace, SFMono-Regular, 'SF Mono', Menlo, monospace">06-07</text><text x="706.5" y="248" text-anchor="middle" font-size="10" fill="#8c959f" font-family="ui-monospace, SFMono-Regular, 'SF Mono', Menlo, monospace">07-13</text>

  <!-- legend -->
  <rect x="60" y="262" width="16" height="3" fill="#4e79a7" rx="1"/><text x="80" y="268" font-size="11" fill="#57606a" font-family="-apple-system, BlinkMacSystemFont, 'Segoe UI', sans-serif">Total clones (7,311)</text><line x1="230" y1="264" x2="246" y2="264" stroke="#f28e2b" stroke-width="2" stroke-dasharray="5,3"/><text x="250" y="268" font-size="11" fill="#57606a" font-family="-apple-system, BlinkMacSystemFont, 'Segoe UI', sans-serif">Unique cloners</text>

</svg>