<svg xmlns="http://www.w3.org/2000/svg" viewBox="0 0 820 280" width="820" height="280">

  <!-- title -->
  <text x="52" y="18" font-size="13" font-weight="600"
        fill="#24292f" font-family="-apple-system, BlinkMacSystemFont, 'Segoe UI', sans-serif"
        >Clone traffic — ci-helpers</text>
  <text x="800" y="18" font-size="10" fill="#8c959f"
        font-family="ui-monospace, SFMono-Regular, 'SF Mono', Menlo, monospace" text-anchor="end">2026-06-30</text>

  <!-- grid -->
  <line x1="52" y1="232.0" x2="800" y2="232.0" stroke="#e8e8e8" stroke-width="1"/><line x1="52" y1="183.5" x2="800" y2="183.5" stroke="#e8e8e8" stroke-width="1"/><line x1="52" y1="135.1" x2="800" y2="135.1" stroke="#e8e8e8" stroke-width="1"/><line x1="52" y1="86.6" x2="800" y2="86.6" stroke="#e8e8e8" stroke-width="1"/><line x1="52" y1="38.2" x2="800" y2="38.2" stroke="#e8e8e8" stroke-width="1"/><line x1="52" y1="-10.3" x2="800" y2="-10.3" stroke="#e8e8e8" stroke-width="1"/>

  <!-- area fill -->
  <path d="M52.0,232.0 L52.0,232.0 L67.6,231.7 L83.2,231.5 L98.8,224.4 L114.3,231.2 L129.9,231.8 L145.5,232.0 L161.1,231.0 L176.7,232.0 L192.2,231.7 L207.8,147.7 L223.4,197.4 L239.0,155.9 L254.6,212.1 L270.2,194.9 L285.8,206.6 L301.3,231.5 L316.9,227.5 L332.5,203.7 L348.1,225.4 L363.7,231.5 L379.2,221.2 L394.8,231.4 L410.4,231.8 L426.0,208.4 L441.6,230.4 L457.2,230.2 L472.8,232.0 L488.3,227.6 L503.9,227.5 L519.5,205.7 L535.1,207.3 L550.7,142.5 L566.2,174.5 L581.8,214.1 L597.4,28.0 L613.0,221.7 L628.6,198.4 L644.2,225.2 L659.8,196.3 L675.3,230.2 L690.9,231.0 L706.5,47.1 L722.1,222.3 L737.7,224.9 L753.2,231.7 L768.8,232.0 L784.4,232.0 L800.0,193.2 L800.0,232.0 L52.0,232.0Z" fill="#4e79a7" opacity="0.12"/>

  <!-- lines -->
  <polyline points="52.0,232.0 67.6,231.7 83.2,231.5 98.8,224.4 114.3,231.2 129.9,231.8 145.5,232.0 161.1,231.0 176.7,232.0 192.2,231.7 207.8,147.7 223.4,197.4 239.0,155.9 254.6,212.1 270.2,194.9 285.8,206.6 301.3,231.5 316.9,227.5 332.5,203.7 348.1,225.4 363.7,231.5 379.2,221.2 394.8,231.4 410.4,231.8 426.0,208.4 441.6,230.4 457.2,230.2 472.8,232.0 488.3,227.6 503.9,227.5 519.5,205.7 535.1,207.3 550.7,142.5 566.2,174.5 581.8,214.1 597.4,28.0 613.0,221.7 628.6,198.4 644.2,225.2 659.8,196.3 675.3,230.2 690.9,231.0 706.5,47.1 722.1,222.3 737.7,224.9 753.2,231.7 768.8,232.0 784.4,232.0 800.0,193.2"
            fill="none" stroke="#4e79a7"
            stroke-width="2" stroke-linejoin="round"/>
  <polyline points="52.0,232.0 67.6,231.7 83.2,231.5 98.8,228.8 114.3,231.4 129.9,231.8 145.5,232.0 161.1,231.8 176.7,232.0 192.2,231.7 207.8,222.5 223.4,216.0 239.0,202.6 254.6,227.8 270.2,221.5 285.8,223.1 301.3,231.5 316.9,231.8 332.5,220.2 348.1,230.7 363.7,231.5 379.2,230.7 394.8,231.5 410.4,231.8 426.0,223.9 441.6,230.7 457.2,231.2 472.8,232.0 488.3,231.2 503.9,230.4 519.5,221.2 535.1,222.1 550.7,207.8 566.2,213.3 581.8,228.9 597.4,209.1 613.0,229.9 628.6,224.4 644.2,230.4 659.8,224.6 675.3,230.9 690.9,231.5 706.5,214.1 722.1,229.1 737.7,230.9 753.2,231.7 768.8,232.0 784.4,232.0 800.0,227.0"
            fill="none" stroke="#f28e2b"
            stroke-width="2" stroke-linejoin="round"
            stroke-dasharray="5,3"/>

  <!-- dots -->
  <circle cx="52.0" cy="232.0" r="3" fill="#4e79a7"/><circle cx="67.6" cy="231.7" r="3" fill="#4e79a7"/><circle cx="83.2" cy="231.5" r="3" fill="#4e79a7"/><circle cx="98.8" cy="224.4" r="3" fill="#4e79a7"/><circle cx="114.3" cy="231.2" r="3" fill="#4e79a7"/><circle cx="129.9" cy="231.8" r="3" fill="#4e79a7"/><circle cx="145.5" cy="232.0" r="3" fill="#4e79a7"/><circle cx="161.1" cy="231.0" r="3" fill="#4e79a7"/><circle cx="176.7" cy="232.0" r="3" fill="#4e79a7"/><circle cx="192.2" cy="231.7" r="3" fill="#4e79a7"/><circle cx="207.8" cy="147.7" r="3" fill="#4e79a7"/><circle cx="223.4" cy="197.4" r="3" fill="#4e79a7"/><circle cx="239.0" cy="155.9" r="3" fill="#4e79a7"/><circle cx="254.6" cy="212.1" r="3" fill="#4e79a7"/><circle cx="270.2" cy="194.9" r="3" fill="#4e79a7"/><circle cx="285.8" cy="206.6" r="3" fill="#4e79a7"/><circle cx="301.3" cy="231.5" r="3" fill="#4e79a7"/><circle cx="316.9" cy="227.5" r="3" fill="#4e79a7"/><circle cx="332.5" cy="203.7" r="3" fill="#4e79a7"/><circle cx="348.1" cy="225.4" r="3" fill="#4e79a7"/><circle cx="363.7" cy="231.5" r="3" fill="#4e79a7"/><circle cx="379.2" cy="221.2" r="3" fill="#4e79a7"/><circle cx="394.8" cy="231.4" r="3" fill="#4e79a7"/><circle cx="410.4" cy="231.8" r="3" fill="#4e79a7"/><circle cx="426.0" cy="208.4" r="3" fill="#4e79a7"/><circle cx="441.6" cy="230.4" r="3" fill="#4e79a7"/><circle cx="457.2" cy="230.2" r="3" fill="#4e79a7"/><circle cx="472.8" cy="232.0" r="3" fill="#4e79a7"/><circle cx="488.3" cy="227.6" r="3" fill="#4e79a7"/><circle cx="503.9" cy="227.5" r="3" fill="#4e79a7"/><circle cx="519.5" cy="205.7" r="3" fill="#4e79a7"/><circle cx="535.1" cy="207.3" r="3" fill="#4e79a7"/><circle cx="550.7" cy="142.5" r="3" fill="#4e79a7"/><circle cx="566.2" cy="174.5" r="3" fill="#4e79a7"/><circle cx="581.8" cy="214.1" r="3" fill="#4e79a7"/><circle cx="597.4" cy="28.0" r="3" fill="#4e79a7"/><circle cx="613.0" cy="221.7" r="3" fill="#4e79a7"/><circle cx="628.6" cy="198.4" r="3" fill="#4e79a7"/><circle cx="644.2" cy="225.2" r="3" fill="#4e79a7"/><circle cx="659.8" cy="196.3" r="3" fill="#4e79a7"/><circle cx="675.3" cy="230.2" r="3" fill="#4e79a7"/><circle cx="690.9" cy="231.0" r="3" fill="#4e79a7"/><circle cx="706.5" cy="47.1" r="3" fill="#4e79a7"/><circle cx="722.1" cy="222.3" r="3" fill="#4e79a7"/><circle cx="737.7" cy="224.9" r="3" fill="#4e79a7"/><circle cx="753.2" cy="231.7" r="3" fill="#4e79a7"/><circle cx="768.8" cy="232.0" r="3" fill="#4e79a7"/><circle cx="784.4" cy="232.0" r="3" fill="#4e79a7"/><circle cx="800.0" cy="193.2" r="3" fill="#4e79a7"/>
  <circle cx="52.0" cy="232.0" r="3" fill="#f28e2b"/><circle cx="67.6" cy="231.7" r="3" fill="#f28e2b"/><circle cx="83.2" cy="231.5" r="3" fill="#f28e2b"/><circle cx="98.8" cy="228.8" r="3" fill="#f28e2b"/><circle cx="114.3" cy="231.4" r="3" fill="#f28e2b"/><circle cx="129.9" cy="231.8" r="3" fill="#f28e2b"/><circle cx="145.5" cy="232.0" r="3" fill="#f28e2b"/><circle cx="161.1" cy="231.8" r="3" fill="#f28e2b"/><circle cx="176.7" cy="232.0" r="3" fill="#f28e2b"/><circle cx="192.2" cy="231.7" r="3" fill="#f28e2b"/><circle cx="207.8" cy="222.5" r="3" fill="#f28e2b"/><circle cx="223.4" cy="216.0" r="3" fill="#f28e2b"/><circle cx="239.0" cy="202.6" r="3" fill="#f28e2b"/><circle cx="254.6" cy="227.8" r="3" fill="#f28e2b"/><circle cx="270.2" cy="221.5" r="3" fill="#f28e2b"/><circle cx="285.8" cy="223.1" r="3" fill="#f28e2b"/><circle cx="301.3" cy="231.5" r="3" fill="#f28e2b"/><circle cx="316.9" cy="231.8" r="3" fill="#f28e2b"/><circle cx="332.5" cy="220.2" r="3" fill="#f28e2b"/><circle cx="348.1" cy="230.7" r="3" fill="#f28e2b"/><circle cx="363.7" cy="231.5" r="3" fill="#f28e2b"/><circle cx="379.2" cy="230.7" r="3" fill="#f28e2b"/><circle cx="394.8" cy="231.5" r="3" fill="#f28e2b"/><circle cx="410.4" cy="231.8" r="3" fill="#f28e2b"/><circle cx="426.0" cy="223.9" r="3" fill="#f28e2b"/><circle cx="441.6" cy="230.7" r="3" fill="#f28e2b"/><circle cx="457.2" cy="231.2" r="3" fill="#f28e2b"/><circle cx="472.8" cy="232.0" r="3" fill="#f28e2b"/><circle cx="488.3" cy="231.2" r="3" fill="#f28e2b"/><circle cx="503.9" cy="230.4" r="3" fill="#f28e2b"/><circle cx="519.5" cy="221.2" r="3" fill="#f28e2b"/><circle cx="535.1" cy="222.1" r="3" fill="#f28e2b"/><circle cx="550.7" cy="207.8" r="3" fill="#f28e2b"/><circle cx="566.2" cy="213.3" r="3" fill="#f28e2b"/><circle cx="581.8" cy="228.9" r="3" fill="#f28e2b"/><circle cx="597.4" cy="209.1" r="3" fill="#f28e2b"/><circle cx="613.0" cy="229.9" r="3" fill="#f28e2b"/><circle cx="628.6" cy="224.4" r="3" fill="#f28e2b"/><circle cx="644.2" cy="230.4" r="3" fill="#f28e2b"/><circle cx="659.8" cy="224.6" r="3" fill="#f28e2b"/><circle cx="675.3" cy="230.9" r="3" fill="#f28e2b"/><circle cx="690.9" cy="231.5" r="3" fill="#f28e2b"/><circle cx="706.5" cy="214.1" r="3" fill="#f28e2b"/><circle cx="722.1" cy="229.1" r="3" fill="#f28e2b"/><circle cx="737.7" cy="230.9" r="3" fill="#f28e2b"/><circle cx="753.2" cy="231.7" r="3" fill="#f28e2b"/><circle cx="768.8" cy="232.0" r="3" fill="#f28e2b"/><circle cx="784.4" cy="232.0" r="3" fill="#f28e2b"/><circle cx="800.0" cy="227.0" r="3" fill="#f28e2b"/>

  <!-- axes -->
  <line x1="52" y1="28" x2="52" y2="232"
        stroke="#cccccc" stroke-width="1"/>
  <line x1="52" y1="232" x2="800" y2="232"
        stroke="#cccccc" stroke-width="1"/>

  <!-- y-axis labels -->
  <text x="47" y="236.0" text-anchor="end" font-size="10" fill="#57606a" font-family="ui-monospace, SFMono-Regular, 'SF Mono', Menlo, monospace">0</text><text x="47" y="187.5" text-anchor="end" font-size="10" fill="#57606a" font-family="ui-monospace, SFMono-Regular, 'SF Mono', Menlo, monospace">300</text><text x="47" y="139.1" text-anchor="end" font-size="10" fill="#57606a" font-family="ui-monospace, SFMono-Regular, 'SF Mono', Menlo, monospace">600</text><text x="47" y="90.6" text-anchor="end" font-size="10" fill="#57606a" font-family="ui-monospace, SFMono-Regular, 'SF Mono', Menlo, monospace">900</text><text x="47" y="42.2" text-anchor="end" font-size="10" fill="#57606a" font-family="ui-monospace, SFMono-Regular, 'SF Mono', Menlo, monospace">1,200</text><text x="47" y="-6.3" text-anchor="end" font-size="10" fill="#57606a" font-family="ui-monospace, SFMono-Regular, 'SF Mono', Menlo, monospace">1,500</text>

  <!-- x-axis labels -->
  <text x="52.0" y="248" text-anchor="middle" font-size="10" fill="#8c959f" font-family="ui-monospace, SFMono-Regular, 'SF Mono', Menlo, monospace">05-11</text><text x="613.0" y="248" text-anchor="middle" font-size="10" fill="#8c959f" font-family="ui-monospace, SFMono-Regular, 'SF Mono', Menlo, monospace">06-16</text><text x="145.5" y="248" text-anchor="middle" font-size="10" fill="#8c959f" font-family="ui-monospace, SFMono-Regular, 'SF Mono', Menlo, monospace">05-17</text><text x="706.5" y="248" text-anchor="middle" font-size="10" fill="#8c959f" font-family="ui-monospace, SFMono-Regular, 'SF Mono', Menlo, monospace">06-22</text><text x="239.0" y="248" text-anchor="middle" font-size="10" fill="#8c959f" font-family="ui-monospace, SFMono-Regular, 'SF Mono', Menlo, monospace">05-23</text><text x="800.0" y="248" text-anchor="middle" font-size="10" fill="#8c959f" font-family="ui-monospace, SFMono-Regular, 'SF Mono', Menlo, monospace">06-28</text><text x="332.5" y="248" text-anchor="middle" font-size="10" fill="#8c959f" font-family="ui-monospace, SFMono-Regular, 'SF Mono', Menlo, monospace">05-29</text><text x="426.0" y="248" text-anchor="middle" font-size="10" fill="#8c959f" font-family="ui-monospace, SFMono-Regular, 'SF Mono', Menlo, monospace">06-04</text><text x="519.5" y="248" text-anchor="middle" font-size="10" fill="#8c959f" font-family="ui-monospace, SFMono-Regular, 'SF Mono', Menlo, monospace">06-10</text>

  <!-- legend -->
  <rect x="60" y="262" width="16" height="3" fill="#4e79a7" rx="1"/><text x="80" y="268" font-size="11" fill="#57606a" font-family="-apple-system, BlinkMacSystemFont, 'Segoe UI', sans-serif">Total clones (6,970)</text><line x1="230" y1="264" x2="246" y2="264" stroke="#f28e2b" stroke-width="2" stroke-dasharray="5,3"/><text x="250" y="268" font-size="11" fill="#57606a" font-family="-apple-system, BlinkMacSystemFont, 'Segoe UI', sans-serif">Unique cloners</text>

</svg>