<svg xmlns="http://www.w3.org/2000/svg" viewBox="0 0 820 280" width="820" height="280">

  <!-- title -->
  <text x="52" y="18" font-size="13" font-weight="600"
        fill="#24292f" font-family="-apple-system, BlinkMacSystemFont, 'Segoe UI', sans-serif"
        >Clone traffic — ci-helpers</text>
  <text x="800" y="18" font-size="10" fill="#8c959f"
        font-family="ui-monospace, SFMono-Regular, 'SF Mono', Menlo, monospace" text-anchor="end">2026-07-04</text>

  <!-- grid -->
  <line x1="52" y1="232.0" x2="800" y2="232.0" stroke="#e8e8e8" stroke-width="1"/><line x1="52" y1="183.5" x2="800" y2="183.5" stroke="#e8e8e8" stroke-width="1"/><line x1="52" y1="135.1" x2="800" y2="135.1" stroke="#e8e8e8" stroke-width="1"/><line x1="52" y1="86.6" x2="800" y2="86.6" stroke="#e8e8e8" stroke-width="1"/><line x1="52" y1="38.2" x2="800" y2="38.2" stroke="#e8e8e8" stroke-width="1"/><line x1="52" y1="-10.3" x2="800" y2="-10.3" stroke="#e8e8e8" stroke-width="1"/>

  <!-- area fill -->
  <path d="M52.0,232.0 L52.0,232.0 L66.4,231.7 L80.8,231.5 L95.2,224.4 L109.5,231.2 L123.9,231.8 L138.3,232.0 L152.7,231.0 L167.1,232.0 L181.5,231.7 L195.8,147.7 L210.2,197.4 L224.6,155.9 L239.0,212.1 L253.4,194.9 L267.8,206.6 L282.2,231.5 L296.5,227.5 L310.9,203.7 L325.3,225.4 L339.7,231.5 L354.1,221.2 L368.5,231.4 L382.8,231.8 L397.2,208.4 L411.6,230.4 L426.0,230.2 L440.4,232.0 L454.8,227.6 L469.2,227.5 L483.5,205.7 L497.9,207.3 L512.3,142.5 L526.7,174.5 L541.1,214.1 L555.5,28.0 L569.8,221.7 L584.2,198.4 L598.6,225.2 L613.0,196.3 L627.4,230.2 L641.8,231.0 L656.2,47.1 L670.5,222.3 L684.9,224.9 L699.3,231.7 L713.7,232.0 L728.1,232.0 L742.5,193.2 L756.8,221.2 L771.2,230.7 L785.6,231.4 L800.0,231.7 L800.0,232.0 L52.0,232.0Z" fill="#4e79a7" opacity="0.12"/>

  <!-- lines -->
  <polyline points="52.0,232.0 66.4,231.7 80.8,231.5 95.2,224.4 109.5,231.2 123.9,231.8 138.3,232.0 152.7,231.0 167.1,232.0 181.5,231.7 195.8,147.7 210.2,197.4 224.6,155.9 239.0,212.1 253.4,194.9 267.8,206.6 282.2,231.5 296.5,227.5 310.9,203.7 325.3,225.4 339.7,231.5 354.1,221.2 368.5,231.4 382.8,231.8 397.2,208.4 411.6,230.4 426.0,230.2 440.4,232.0 454.8,227.6 469.2,227.5 483.5,205.7 497.9,207.3 512.3,142.5 526.7,174.5 541.1,214.1 555.5,28.0 569.8,221.7 584.2,198.4 598.6,225.2 613.0,196.3 627.4,230.2 641.8,231.0 656.2,47.1 670.5,222.3 684.9,224.9 699.3,231.7 713.7,232.0 728.1,232.0 742.5,193.2 756.8,221.2 771.2,230.7 785.6,231.4 800.0,231.7"
            fill="none" stroke="#4e79a7"
            stroke-width="2" stroke-linejoin="round"/>
  <polyline points="52.0,232.0 66.4,231.7 80.8,231.5 95.2,228.8 109.5,231.4 123.9,231.8 138.3,232.0 152.7,231.8 167.1,232.0 181.5,231.7 195.8,222.5 210.2,216.0 224.6,202.6 239.0,227.8 253.4,221.5 267.8,223.1 282.2,231.5 296.5,231.8 310.9,220.2 325.3,230.7 339.7,231.5 354.1,230.7 368.5,231.5 382.8,231.8 397.2,223.9 411.6,230.7 426.0,231.2 440.4,232.0 454.8,231.2 469.2,230.4 483.5,221.2 497.9,222.1 512.3,207.8 526.7,213.3 541.1,228.9 555.5,209.1 569.8,229.9 584.2,224.4 598.6,230.4 613.0,224.6 627.4,230.9 641.8,231.5 656.2,214.1 670.5,229.1 684.9,230.9 699.3,231.7 713.7,232.0 728.1,232.0 742.5,227.0 756.8,228.3 771.2,231.4 785.6,231.4 800.0,231.7"
            fill="none" stroke="#f28e2b"
            stroke-width="2" stroke-linejoin="round"
            stroke-dasharray="5,3"/>

  <!-- dots -->
  <circle cx="52.0" cy="232.0" r="3" fill="#4e79a7"/><circle cx="66.4" cy="231.7" r="3" fill="#4e79a7"/><circle cx="80.8" cy="231.5" r="3" fill="#4e79a7"/><circle cx="95.2" cy="224.4" r="3" fill="#4e79a7"/><circle cx="109.5" cy="231.2" r="3" fill="#4e79a7"/><circle cx="123.9" cy="231.8" r="3" fill="#4e79a7"/><circle cx="138.3" cy="232.0" r="3" fill="#4e79a7"/><circle cx="152.7" cy="231.0" r="3" fill="#4e79a7"/><circle cx="167.1" cy="232.0" r="3" fill="#4e79a7"/><circle cx="181.5" cy="231.7" r="3" fill="#4e79a7"/><circle cx="195.8" cy="147.7" r="3" fill="#4e79a7"/><circle cx="210.2" cy="197.4" r="3" fill="#4e79a7"/><circle cx="224.6" cy="155.9" r="3" fill="#4e79a7"/><circle cx="239.0" cy="212.1" r="3" fill="#4e79a7"/><circle cx="253.4" cy="194.9" r="3" fill="#4e79a7"/><circle cx="267.8" cy="206.6" r="3" fill="#4e79a7"/><circle cx="282.2" cy="231.5" r="3" fill="#4e79a7"/><circle cx="296.5" cy="227.5" r="3" fill="#4e79a7"/><circle cx="310.9" cy="203.7" r="3" fill="#4e79a7"/><circle cx="325.3" cy="225.4" r="3" fill="#4e79a7"/><circle cx="339.7" cy="231.5" r="3" fill="#4e79a7"/><circle cx="354.1" cy="221.2" r="3" fill="#4e79a7"/><circle cx="368.5" cy="231.4" r="3" fill="#4e79a7"/><circle cx="382.8" cy="231.8" r="3" fill="#4e79a7"/><circle cx="397.2" cy="208.4" r="3" fill="#4e79a7"/><circle cx="411.6" cy="230.4" r="3" fill="#4e79a7"/><circle cx="426.0" cy="230.2" r="3" fill="#4e79a7"/><circle cx="440.4" cy="232.0" r="3" fill="#4e79a7"/><circle cx="454.8" cy="227.6" r="3" fill="#4e79a7"/><circle cx="469.2" cy="227.5" r="3" fill="#4e79a7"/><circle cx="483.5" cy="205.7" r="3" fill="#4e79a7"/><circle cx="497.9" cy="207.3" r="3" fill="#4e79a7"/><circle cx="512.3" cy="142.5" r="3" fill="#4e79a7"/><circle cx="526.7" cy="174.5" r="3" fill="#4e79a7"/><circle cx="541.1" cy="214.1" r="3" fill="#4e79a7"/><circle cx="555.5" cy="28.0" r="3" fill="#4e79a7"/><circle cx="569.8" cy="221.7" r="3" fill="#4e79a7"/><circle cx="584.2" cy="198.4" r="3" fill="#4e79a7"/><circle cx="598.6" cy="225.2" r="3" fill="#4e79a7"/><circle cx="613.0" cy="196.3" r="3" fill="#4e79a7"/><circle cx="627.4" cy="230.2" r="3" fill="#4e79a7"/><circle cx="641.8" cy="231.0" r="3" fill="#4e79a7"/><circle cx="656.2" cy="47.1" r="3" fill="#4e79a7"/><circle cx="670.5" cy="222.3" r="3" fill="#4e79a7"/><circle cx="684.9" cy="224.9" r="3" fill="#4e79a7"/><circle cx="699.3" cy="231.7" r="3" fill="#4e79a7"/><circle cx="713.7" cy="232.0" r="3" fill="#4e79a7"/><circle cx="728.1" cy="232.0" r="3" fill="#4e79a7"/><circle cx="742.5" cy="193.2" r="3" fill="#4e79a7"/><circle cx="756.8" cy="221.2" r="3" fill="#4e79a7"/><circle cx="771.2" cy="230.7" r="3" fill="#4e79a7"/><circle cx="785.6" cy="231.4" r="3" fill="#4e79a7"/><circle cx="800.0" cy="231.7" r="3" fill="#4e79a7"/>
  <circle cx="52.0" cy="232.0" r="3" fill="#f28e2b"/><circle cx="66.4" cy="231.7" r="3" fill="#f28e2b"/><circle cx="80.8" cy="231.5" r="3" fill="#f28e2b"/><circle cx="95.2" cy="228.8" r="3" fill="#f28e2b"/><circle cx="109.5" cy="231.4" r="3" fill="#f28e2b"/><circle cx="123.9" cy="231.8" r="3" fill="#f28e2b"/><circle cx="138.3" cy="232.0" r="3" fill="#f28e2b"/><circle cx="152.7" cy="231.8" r="3" fill="#f28e2b"/><circle cx="167.1" cy="232.0" r="3" fill="#f28e2b"/><circle cx="181.5" cy="231.7" r="3" fill="#f28e2b"/><circle cx="195.8" cy="222.5" r="3" fill="#f28e2b"/><circle cx="210.2" cy="216.0" r="3" fill="#f28e2b"/><circle cx="224.6" cy="202.6" r="3" fill="#f28e2b"/><circle cx="239.0" cy="227.8" r="3" fill="#f28e2b"/><circle cx="253.4" cy="221.5" r="3" fill="#f28e2b"/><circle cx="267.8" cy="223.1" r="3" fill="#f28e2b"/><circle cx="282.2" cy="231.5" r="3" fill="#f28e2b"/><circle cx="296.5" cy="231.8" r="3" fill="#f28e2b"/><circle cx="310.9" cy="220.2" r="3" fill="#f28e2b"/><circle cx="325.3" cy="230.7" r="3" fill="#f28e2b"/><circle cx="339.7" cy="231.5" r="3" fill="#f28e2b"/><circle cx="354.1" cy="230.7" r="3" fill="#f28e2b"/><circle cx="368.5" cy="231.5" r="3" fill="#f28e2b"/><circle cx="382.8" cy="231.8" r="3" fill="#f28e2b"/><circle cx="397.2" cy="223.9" r="3" fill="#f28e2b"/><circle cx="411.6" cy="230.7" r="3" fill="#f28e2b"/><circle cx="426.0" cy="231.2" r="3" fill="#f28e2b"/><circle cx="440.4" cy="232.0" r="3" fill="#f28e2b"/><circle cx="454.8" cy="231.2" r="3" fill="#f28e2b"/><circle cx="469.2" cy="230.4" r="3" fill="#f28e2b"/><circle cx="483.5" cy="221.2" r="3" fill="#f28e2b"/><circle cx="497.9" cy="222.1" r="3" fill="#f28e2b"/><circle cx="512.3" cy="207.8" r="3" fill="#f28e2b"/><circle cx="526.7" cy="213.3" r="3" fill="#f28e2b"/><circle cx="541.1" cy="228.9" r="3" fill="#f28e2b"/><circle cx="555.5" cy="209.1" r="3" fill="#f28e2b"/><circle cx="569.8" cy="229.9" r="3" fill="#f28e2b"/><circle cx="584.2" cy="224.4" r="3" fill="#f28e2b"/><circle cx="598.6" cy="230.4" r="3" fill="#f28e2b"/><circle cx="613.0" cy="224.6" r="3" fill="#f28e2b"/><circle cx="627.4" cy="230.9" r="3" fill="#f28e2b"/><circle cx="641.8" cy="231.5" r="3" fill="#f28e2b"/><circle cx="656.2" cy="214.1" r="3" fill="#f28e2b"/><circle cx="670.5" cy="229.1" r="3" fill="#f28e2b"/><circle cx="684.9" cy="230.9" r="3" fill="#f28e2b"/><circle cx="699.3" cy="231.7" r="3" fill="#f28e2b"/><circle cx="713.7" cy="232.0" r="3" fill="#f28e2b"/><circle cx="728.1" cy="232.0" r="3" fill="#f28e2b"/><circle cx="742.5" cy="227.0" r="3" fill="#f28e2b"/><circle cx="756.8" cy="228.3" r="3" fill="#f28e2b"/><circle cx="771.2" cy="231.4" r="3" fill="#f28e2b"/><circle cx="785.6" cy="231.4" r="3" fill="#f28e2b"/><circle cx="800.0" cy="231.7" r="3" fill="#f28e2b"/>

  <!-- axes -->
  <line x1="52" y1="28" x2="52" y2="232"
        stroke="#cccccc" stroke-width="1"/>
  <line x1="52" y1="232" x2="800" y2="232"
        stroke="#cccccc" stroke-width="1"/>

  <!-- y-axis labels -->
  <text x="47" y="236.0" text-anchor="end" font-size="10" fill="#57606a" font-family="ui-monospace, SFMono-Regular, 'SF Mono', Menlo, monospace">0</text><text x="47" y="187.5" text-anchor="end" font-size="10" fill="#57606a" font-family="ui-monospace, SFMono-Regular, 'SF Mono', Menlo, monospace">300</text><text x="47" y="139.1" text-anchor="end" font-size="10" fill="#57606a" font-family="ui-monospace, SFMono-Regular, 'SF Mono', Menlo, monospace">600</text><text x="47" y="90.6" text-anchor="end" font-size="10" fill="#57606a" font-family="ui-monospace, SFMono-Regular, 'SF Mono', Menlo, monospace">900</text><text x="47" y="42.2" text-anchor="end" font-size="10" fill="#57606a" font-family="ui-monospace, SFMono-Regular, 'SF Mono', Menlo, monospace">1,200</text><text x="47" y="-6.3" text-anchor="end" font-size="10" fill="#57606a" font-family="ui-monospace, SFMono-Regular, 'SF Mono', Menlo, monospace">1,500</text>

  <!-- x-axis labels -->
  <text x="52.0" y="248" text-anchor="middle" font-size="10" fill="#8c959f" font-family="ui-monospace, SFMono-Regular, 'SF Mono', Menlo, monospace">05-11</text><text x="569.8" y="248" text-anchor="middle" font-size="10" fill="#8c959f" font-family="ui-monospace, SFMono-Regular, 'SF Mono', Menlo, monospace">06-16</text><text x="138.3" y="248" text-anchor="middle" font-size="10" fill="#8c959f" font-family="ui-monospace, SFMono-Regular, 'SF Mono', Menlo, monospace">05-17</text><text x="656.2" y="248" text-anchor="middle" font-size="10" fill="#8c959f" font-family="ui-monospace, SFMono-Regular, 'SF Mono', Menlo, monospace">06-22</text><text x="224.6" y="248" text-anchor="middle" font-size="10" fill="#8c959f" font-family="ui-monospace, SFMono-Regular, 'SF Mono', Menlo, monospace">05-23</text><text x="742.5" y="248" text-anchor="middle" font-size="10" fill="#8c959f" font-family="ui-monospace, SFMono-Regular, 'SF Mono', Menlo, monospace">06-28</text><text x="310.9" y="248" text-anchor="middle" font-size="10" fill="#8c959f" font-family="ui-monospace, SFMono-Regular, 'SF Mono', Menlo, monospace">05-29</text><text x="800.0" y="248" text-anchor="middle" font-size="10" fill="#8c959f" font-family="ui-monospace, SFMono-Regular, 'SF Mono', Menlo, monospace">07-02</text><text x="397.2" y="248" text-anchor="middle" font-size="10" fill="#8c959f" font-family="ui-monospace, SFMono-Regular, 'SF Mono', Menlo, monospace">06-04</text><text x="483.5" y="248" text-anchor="middle" font-size="10" fill="#8c959f" font-family="ui-monospace, SFMono-Regular, 'SF Mono', Menlo, monospace">06-10</text>

  <!-- legend -->
  <rect x="60" y="262" width="16" height="3" fill="#4e79a7" rx="1"/><text x="80" y="268" font-size="11" fill="#57606a" font-family="-apple-system, BlinkMacSystemFont, 'Segoe UI', sans-serif">Total clones (7,051)</text><line x1="230" y1="264" x2="246" y2="264" stroke="#f28e2b" stroke-width="2" stroke-dasharray="5,3"/><text x="250" y="268" font-size="11" fill="#57606a" font-family="-apple-system, BlinkMacSystemFont, 'Segoe UI', sans-serif">Unique cloners</text>

</svg>