<svg xmlns="http://www.w3.org/2000/svg" viewBox="0 0 820 280" width="820" height="280">

  <!-- title -->
  <text x="52" y="18" font-size="13" font-weight="600"
        fill="#24292f" font-family="-apple-system, BlinkMacSystemFont, 'Segoe UI', sans-serif"
        >Clone traffic — ci-helpers</text>
  <text x="800" y="18" font-size="10" fill="#8c959f"
        font-family="ui-monospace, SFMono-Regular, 'SF Mono', Menlo, monospace" text-anchor="end">2026-06-11</text>

  <!-- grid -->
  <line x1="52" y1="232.0" x2="800" y2="232.0" stroke="#e8e8e8" stroke-width="1"/><line x1="52" y1="192.9" x2="800" y2="192.9" stroke="#e8e8e8" stroke-width="1"/><line x1="52" y1="153.8" x2="800" y2="153.8" stroke="#e8e8e8" stroke-width="1"/><line x1="52" y1="114.8" x2="800" y2="114.8" stroke="#e8e8e8" stroke-width="1"/><line x1="52" y1="75.7" x2="800" y2="75.7" stroke="#e8e8e8" stroke-width="1"/><line x1="52" y1="36.6" x2="800" y2="36.6" stroke="#e8e8e8" stroke-width="1"/><line x1="52" y1="-2.5" x2="800" y2="-2.5" stroke="#e8e8e8" stroke-width="1"/>

  <!-- area fill -->
  <path d="M52.0,232.0 L52.0,232.0 L78.7,231.2 L105.4,230.8 L132.1,213.6 L158.9,230.0 L185.6,231.6 L212.3,232.0 L239.0,229.7 L265.7,232.0 L292.4,231.2 L319.1,28.0 L345.9,148.4 L372.6,47.9 L399.3,183.9 L426.0,142.1 L452.7,170.6 L479.4,230.8 L506.1,221.1 L532.9,163.6 L559.6,216.0 L586.3,230.8 L613.0,205.8 L639.7,230.4 L666.4,231.6 L693.1,174.9 L719.9,228.1 L746.6,227.7 L773.3,232.0 L800.0,221.4 L800.0,232.0 L52.0,232.0Z" fill="#4e79a7" opacity="0.12"/>

  <!-- lines -->
  <polyline points="52.0,232.0 78.7,231.2 105.4,230.8 132.1,213.6 158.9,230.0 185.6,231.6 212.3,232.0 239.0,229.7 265.7,232.0 292.4,231.2 319.1,28.0 345.9,148.4 372.6,47.9 399.3,183.9 426.0,142.1 452.7,170.6 479.4,230.8 506.1,221.1 532.9,163.6 559.6,216.0 586.3,230.8 613.0,205.8 639.7,230.4 666.4,231.6 693.1,174.9 719.9,228.1 746.6,227.7 773.3,232.0 800.0,221.4"
            fill="none" stroke="#4e79a7"
            stroke-width="2" stroke-linejoin="round"/>
  <polyline points="52.0,232.0 78.7,231.2 105.4,230.8 132.1,224.2 158.9,230.4 185.6,231.6 212.3,232.0 239.0,231.6 265.7,232.0 292.4,231.2 319.1,208.9 345.9,193.3 372.6,160.9 399.3,221.8 426.0,206.6 452.7,210.5 479.4,230.8 506.1,231.6 532.9,203.5 559.6,228.9 586.3,230.8 613.0,228.9 639.7,230.8 666.4,231.6 693.1,212.5 719.9,228.9 746.6,230.0 773.3,232.0 800.0,230.0"
            fill="none" stroke="#f28e2b"
            stroke-width="2" stroke-linejoin="round"
            stroke-dasharray="5,3"/>

  <!-- dots -->
  <circle cx="52.0" cy="232.0" r="3" fill="#4e79a7"/><circle cx="78.7" cy="231.2" r="3" fill="#4e79a7"/><circle cx="105.4" cy="230.8" r="3" fill="#4e79a7"/><circle cx="132.1" cy="213.6" r="3" fill="#4e79a7"/><circle cx="158.9" cy="230.0" r="3" fill="#4e79a7"/><circle cx="185.6" cy="231.6" r="3" fill="#4e79a7"/><circle cx="212.3" cy="232.0" r="3" fill="#4e79a7"/><circle cx="239.0" cy="229.7" r="3" fill="#4e79a7"/><circle cx="265.7" cy="232.0" r="3" fill="#4e79a7"/><circle cx="292.4" cy="231.2" r="3" fill="#4e79a7"/><circle cx="319.1" cy="28.0" r="3" fill="#4e79a7"/><circle cx="345.9" cy="148.4" r="3" fill="#4e79a7"/><circle cx="372.6" cy="47.9" r="3" fill="#4e79a7"/><circle cx="399.3" cy="183.9" r="3" fill="#4e79a7"/><circle cx="426.0" cy="142.1" r="3" fill="#4e79a7"/><circle cx="452.7" cy="170.6" r="3" fill="#4e79a7"/><circle cx="479.4" cy="230.8" r="3" fill="#4e79a7"/><circle cx="506.1" cy="221.1" r="3" fill="#4e79a7"/><circle cx="532.9" cy="163.6" r="3" fill="#4e79a7"/><circle cx="559.6" cy="216.0" r="3" fill="#4e79a7"/><circle cx="586.3" cy="230.8" r="3" fill="#4e79a7"/><circle cx="613.0" cy="205.8" r="3" fill="#4e79a7"/><circle cx="639.7" cy="230.4" r="3" fill="#4e79a7"/><circle cx="666.4" cy="231.6" r="3" fill="#4e79a7"/><circle cx="693.1" cy="174.9" r="3" fill="#4e79a7"/><circle cx="719.9" cy="228.1" r="3" fill="#4e79a7"/><circle cx="746.6" cy="227.7" r="3" fill="#4e79a7"/><circle cx="773.3" cy="232.0" r="3" fill="#4e79a7"/><circle cx="800.0" cy="221.4" r="3" fill="#4e79a7"/>
  <circle cx="52.0" cy="232.0" r="3" fill="#f28e2b"/><circle cx="78.7" cy="231.2" r="3" fill="#f28e2b"/><circle cx="105.4" cy="230.8" r="3" fill="#f28e2b"/><circle cx="132.1" cy="224.2" r="3" fill="#f28e2b"/><circle cx="158.9" cy="230.4" r="3" fill="#f28e2b"/><circle cx="185.6" cy="231.6" r="3" fill="#f28e2b"/><circle cx="212.3" cy="232.0" r="3" fill="#f28e2b"/><circle cx="239.0" cy="231.6" r="3" fill="#f28e2b"/><circle cx="265.7" cy="232.0" r="3" fill="#f28e2b"/><circle cx="292.4" cy="231.2" r="3" fill="#f28e2b"/><circle cx="319.1" cy="208.9" r="3" fill="#f28e2b"/><circle cx="345.9" cy="193.3" r="3" fill="#f28e2b"/><circle cx="372.6" cy="160.9" r="3" fill="#f28e2b"/><circle cx="399.3" cy="221.8" r="3" fill="#f28e2b"/><circle cx="426.0" cy="206.6" r="3" fill="#f28e2b"/><circle cx="452.7" cy="210.5" r="3" fill="#f28e2b"/><circle cx="479.4" cy="230.8" r="3" fill="#f28e2b"/><circle cx="506.1" cy="231.6" r="3" fill="#f28e2b"/><circle cx="532.9" cy="203.5" r="3" fill="#f28e2b"/><circle cx="559.6" cy="228.9" r="3" fill="#f28e2b"/><circle cx="586.3" cy="230.8" r="3" fill="#f28e2b"/><circle cx="613.0" cy="228.9" r="3" fill="#f28e2b"/><circle cx="639.7" cy="230.8" r="3" fill="#f28e2b"/><circle cx="666.4" cy="231.6" r="3" fill="#f28e2b"/><circle cx="693.1" cy="212.5" r="3" fill="#f28e2b"/><circle cx="719.9" cy="228.9" r="3" fill="#f28e2b"/><circle cx="746.6" cy="230.0" r="3" fill="#f28e2b"/><circle cx="773.3" cy="232.0" r="3" fill="#f28e2b"/><circle cx="800.0" cy="230.0" r="3" fill="#f28e2b"/>

  <!-- axes -->
  <line x1="52" y1="28" x2="52" y2="232"
        stroke="#cccccc" stroke-width="1"/>
  <line x1="52" y1="232" x2="800" y2="232"
        stroke="#cccccc" stroke-width="1"/>

  <!-- y-axis labels -->
  <text x="47" y="236.0" text-anchor="end" font-size="10" fill="#57606a" font-family="ui-monospace, SFMono-Regular, 'SF Mono', Menlo, monospace">0</text><text x="47" y="196.9" text-anchor="end" font-size="10" fill="#57606a" font-family="ui-monospace, SFMono-Regular, 'SF Mono', Menlo, monospace">100</text><text x="47" y="157.8" text-anchor="end" font-size="10" fill="#57606a" font-family="ui-monospace, SFMono-Regular, 'SF Mono', Menlo, monospace">200</text><text x="47" y="118.8" text-anchor="end" font-size="10" fill="#57606a" font-family="ui-monospace, SFMono-Regular, 'SF Mono', Menlo, monospace">300</text><text x="47" y="79.7" text-anchor="end" font-size="10" fill="#57606a" font-family="ui-monospace, SFMono-Regular, 'SF Mono', Menlo, monospace">400</text><text x="47" y="40.6" text-anchor="end" font-size="10" fill="#57606a" font-family="ui-monospace, SFMono-Regular, 'SF Mono', Menlo, monospace">500</text><text x="47" y="1.5" text-anchor="end" font-size="10" fill="#57606a" font-family="ui-monospace, SFMono-Regular, 'SF Mono', Menlo, monospace">600</text>

  <!-- x-axis labels -->
  <text x="52.0" y="248" text-anchor="middle" font-size="10" fill="#8c959f" font-family="ui-monospace, SFMono-Regular, 'SF Mono', Menlo, monospace">05-11</text><text x="132.1" y="248" text-anchor="middle" font-size="10" fill="#8c959f" font-family="ui-monospace, SFMono-Regular, 'SF Mono', Menlo, monospace">05-14</text><text x="212.3" y="248" text-anchor="middle" font-size="10" fill="#8c959f" font-family="ui-monospace, SFMono-Regular, 'SF Mono', Menlo, monospace">05-17</text><text x="292.4" y="248" text-anchor="middle" font-size="10" fill="#8c959f" font-family="ui-monospace, SFMono-Regular, 'SF Mono', Menlo, monospace">05-20</text><text x="372.6" y="248" text-anchor="middle" font-size="10" fill="#8c959f" font-family="ui-monospace, SFMono-Regular, 'SF Mono', Menlo, monospace">05-23</text><text x="452.7" y="248" text-anchor="middle" font-size="10" fill="#8c959f" font-family="ui-monospace, SFMono-Regular, 'SF Mono', Menlo, monospace">05-26</text><text x="532.9" y="248" text-anchor="middle" font-size="10" fill="#8c959f" font-family="ui-monospace, SFMono-Regular, 'SF Mono', Menlo, monospace">05-29</text><text x="613.0" y="248" text-anchor="middle" font-size="10" fill="#8c959f" font-family="ui-monospace, SFMono-Regular, 'SF Mono', Menlo, monospace">06-01</text><text x="693.1" y="248" text-anchor="middle" font-size="10" fill="#8c959f" font-family="ui-monospace, SFMono-Regular, 'SF Mono', Menlo, monospace">06-04</text><text x="773.3" y="248" text-anchor="middle" font-size="10" fill="#8c959f" font-family="ui-monospace, SFMono-Regular, 'SF Mono', Menlo, monospace">06-07</text><text x="800.0" y="248" text-anchor="middle" font-size="10" fill="#8c959f" font-family="ui-monospace, SFMono-Regular, 'SF Mono', Menlo, monospace">06-08</text>

  <!-- legend -->
  <rect x="60" y="262" width="16" height="3" fill="#4e79a7" rx="1"/><text x="80" y="268" font-size="11" fill="#57606a" font-family="-apple-system, BlinkMacSystemFont, 'Segoe UI', sans-serif">Total clones (2,299)</text><line x1="230" y1="264" x2="246" y2="264" stroke="#f28e2b" stroke-width="2" stroke-dasharray="5,3"/><text x="250" y="268" font-size="11" fill="#57606a" font-family="-apple-system, BlinkMacSystemFont, 'Segoe UI', sans-serif">Unique cloners</text>

</svg>