<svg xmlns="http://www.w3.org/2000/svg" viewBox="0 0 820 280" width="820" height="280">

  <!-- title -->
  <text x="52" y="18" font-size="13" font-weight="600"
        fill="#24292f" font-family="-apple-system, BlinkMacSystemFont, 'Segoe UI', sans-serif"
        >Clone traffic — ci-helpers</text>
  <text x="800" y="18" font-size="10" fill="#8c959f"
        font-family="ui-monospace, SFMono-Regular, 'SF Mono', Menlo, monospace" text-anchor="end">2026-07-19</text>

  <!-- grid -->
  <line x1="52" y1="232.0" x2="800" y2="232.0" stroke="#e8e8e8" stroke-width="1"/><line x1="52" y1="183.5" x2="800" y2="183.5" stroke="#e8e8e8" stroke-width="1"/><line x1="52" y1="135.1" x2="800" y2="135.1" stroke="#e8e8e8" stroke-width="1"/><line x1="52" y1="86.6" x2="800" y2="86.6" stroke="#e8e8e8" stroke-width="1"/><line x1="52" y1="38.2" x2="800" y2="38.2" stroke="#e8e8e8" stroke-width="1"/><line x1="52" y1="-10.3" x2="800" y2="-10.3" stroke="#e8e8e8" stroke-width="1"/>

  <!-- area fill -->
  <path d="M52.0,232.0 L52.0,232.0 L63.2,231.7 L74.3,231.5 L85.5,224.4 L96.7,231.2 L107.8,231.8 L119.0,232.0 L130.1,231.0 L141.3,232.0 L152.5,231.7 L163.6,147.7 L174.8,197.4 L186.0,155.9 L197.1,212.1 L208.3,194.9 L219.5,206.6 L230.6,231.5 L241.8,227.5 L253.0,203.7 L264.1,225.4 L275.3,231.5 L286.4,221.2 L297.6,231.4 L308.8,231.8 L319.9,208.4 L331.1,230.4 L342.3,230.2 L353.4,232.0 L364.6,227.6 L375.8,227.5 L386.9,205.7 L398.1,207.3 L409.3,142.5 L420.4,174.5 L431.6,214.1 L442.7,28.0 L453.9,221.7 L465.1,198.4 L476.2,225.2 L487.4,196.3 L498.6,230.2 L509.7,231.0 L520.9,47.1 L532.1,222.3 L543.2,224.9 L554.4,231.7 L565.6,232.0 L576.7,232.0 L587.9,193.2 L599.0,221.2 L610.2,230.7 L621.4,231.4 L632.5,231.7 L643.7,231.7 L654.9,231.4 L666.0,231.8 L677.2,219.9 L688.4,227.6 L699.5,231.7 L710.7,231.0 L721.9,231.7 L733.0,231.7 L744.2,232.0 L755.3,224.4 L766.5,230.1 L777.7,230.7 L788.8,229.6 L800.0,231.8 L800.0,232.0 L52.0,232.0Z" fill="#4e79a7" opacity="0.12"/>

  <!-- lines -->
  <polyline points="52.0,232.0 63.2,231.7 74.3,231.5 85.5,224.4 96.7,231.2 107.8,231.8 119.0,232.0 130.1,231.0 141.3,232.0 152.5,231.7 163.6,147.7 174.8,197.4 186.0,155.9 197.1,212.1 208.3,194.9 219.5,206.6 230.6,231.5 241.8,227.5 253.0,203.7 264.1,225.4 275.3,231.5 286.4,221.2 297.6,231.4 308.8,231.8 319.9,208.4 331.1,230.4 342.3,230.2 353.4,232.0 364.6,227.6 375.8,227.5 386.9,205.7 398.1,207.3 409.3,142.5 420.4,174.5 431.6,214.1 442.7,28.0 453.9,221.7 465.1,198.4 476.2,225.2 487.4,196.3 498.6,230.2 509.7,231.0 520.9,47.1 532.1,222.3 543.2,224.9 554.4,231.7 565.6,232.0 576.7,232.0 587.9,193.2 599.0,221.2 610.2,230.7 621.4,231.4 632.5,231.7 643.7,231.7 654.9,231.4 666.0,231.8 677.2,219.9 688.4,227.6 699.5,231.7 710.7,231.0 721.9,231.7 733.0,231.7 744.2,232.0 755.3,224.4 766.5,230.1 777.7,230.7 788.8,229.6 800.0,231.8"
            fill="none" stroke="#4e79a7"
            stroke-width="2" stroke-linejoin="round"/>
  <polyline points="52.0,232.0 63.2,231.7 74.3,231.5 85.5,228.8 96.7,231.4 107.8,231.8 119.0,232.0 130.1,231.8 141.3,232.0 152.5,231.7 163.6,222.5 174.8,216.0 186.0,202.6 197.1,227.8 208.3,221.5 219.5,223.1 230.6,231.5 241.8,231.8 253.0,220.2 264.1,230.7 275.3,231.5 286.4,230.7 297.6,231.5 308.8,231.8 319.9,223.9 331.1,230.7 342.3,231.2 353.4,232.0 364.6,231.2 375.8,230.4 386.9,221.2 398.1,222.1 409.3,207.8 420.4,213.3 431.6,228.9 442.7,209.1 453.9,229.9 465.1,224.4 476.2,230.4 487.4,224.6 498.6,230.9 509.7,231.5 520.9,214.1 532.1,229.1 543.2,230.9 554.4,231.7 565.6,232.0 576.7,232.0 587.9,227.0 599.0,228.3 610.2,231.4 621.4,231.4 632.5,231.7 643.7,231.7 654.9,231.5 666.0,231.8 677.2,230.2 688.4,230.4 699.5,231.7 710.7,231.5 721.9,231.7 733.0,231.7 744.2,232.0 755.3,231.0 766.5,231.5 777.7,231.7 788.8,231.4 800.0,231.8"
            fill="none" stroke="#f28e2b"
            stroke-width="2" stroke-linejoin="round"
            stroke-dasharray="5,3"/>

  <!-- dots -->
  <circle cx="52.0" cy="232.0" r="3" fill="#4e79a7"/><circle cx="63.2" cy="231.7" r="3" fill="#4e79a7"/><circle cx="74.3" cy="231.5" r="3" fill="#4e79a7"/><circle cx="85.5" cy="224.4" r="3" fill="#4e79a7"/><circle cx="96.7" cy="231.2" r="3" fill="#4e79a7"/><circle cx="107.8" cy="231.8" r="3" fill="#4e79a7"/><circle cx="119.0" cy="232.0" r="3" fill="#4e79a7"/><circle cx="130.1" cy="231.0" r="3" fill="#4e79a7"/><circle cx="141.3" cy="232.0" r="3" fill="#4e79a7"/><circle cx="152.5" cy="231.7" r="3" fill="#4e79a7"/><circle cx="163.6" cy="147.7" r="3" fill="#4e79a7"/><circle cx="174.8" cy="197.4" r="3" fill="#4e79a7"/><circle cx="186.0" cy="155.9" r="3" fill="#4e79a7"/><circle cx="197.1" cy="212.1" r="3" fill="#4e79a7"/><circle cx="208.3" cy="194.9" r="3" fill="#4e79a7"/><circle cx="219.5" cy="206.6" r="3" fill="#4e79a7"/><circle cx="230.6" cy="231.5" r="3" fill="#4e79a7"/><circle cx="241.8" cy="227.5" r="3" fill="#4e79a7"/><circle cx="253.0" cy="203.7" r="3" fill="#4e79a7"/><circle cx="264.1" cy="225.4" r="3" fill="#4e79a7"/><circle cx="275.3" cy="231.5" r="3" fill="#4e79a7"/><circle cx="286.4" cy="221.2" r="3" fill="#4e79a7"/><circle cx="297.6" cy="231.4" r="3" fill="#4e79a7"/><circle cx="308.8" cy="231.8" r="3" fill="#4e79a7"/><circle cx="319.9" cy="208.4" r="3" fill="#4e79a7"/><circle cx="331.1" cy="230.4" r="3" fill="#4e79a7"/><circle cx="342.3" cy="230.2" r="3" fill="#4e79a7"/><circle cx="353.4" cy="232.0" r="3" fill="#4e79a7"/><circle cx="364.6" cy="227.6" r="3" fill="#4e79a7"/><circle cx="375.8" cy="227.5" r="3" fill="#4e79a7"/><circle cx="386.9" cy="205.7" r="3" fill="#4e79a7"/><circle cx="398.1" cy="207.3" r="3" fill="#4e79a7"/><circle cx="409.3" cy="142.5" r="3" fill="#4e79a7"/><circle cx="420.4" cy="174.5" r="3" fill="#4e79a7"/><circle cx="431.6" cy="214.1" r="3" fill="#4e79a7"/><circle cx="442.7" cy="28.0" r="3" fill="#4e79a7"/><circle cx="453.9" cy="221.7" r="3" fill="#4e79a7"/><circle cx="465.1" cy="198.4" r="3" fill="#4e79a7"/><circle cx="476.2" cy="225.2" r="3" fill="#4e79a7"/><circle cx="487.4" cy="196.3" r="3" fill="#4e79a7"/><circle cx="498.6" cy="230.2" r="3" fill="#4e79a7"/><circle cx="509.7" cy="231.0" r="3" fill="#4e79a7"/><circle cx="520.9" cy="47.1" r="3" fill="#4e79a7"/><circle cx="532.1" cy="222.3" r="3" fill="#4e79a7"/><circle cx="543.2" cy="224.9" r="3" fill="#4e79a7"/><circle cx="554.4" cy="231.7" r="3" fill="#4e79a7"/><circle cx="565.6" cy="232.0" r="3" fill="#4e79a7"/><circle cx="576.7" cy="232.0" r="3" fill="#4e79a7"/><circle cx="587.9" cy="193.2" r="3" fill="#4e79a7"/><circle cx="599.0" cy="221.2" r="3" fill="#4e79a7"/><circle cx="610.2" cy="230.7" r="3" fill="#4e79a7"/><circle cx="621.4" cy="231.4" r="3" fill="#4e79a7"/><circle cx="632.5" cy="231.7" r="3" fill="#4e79a7"/><circle cx="643.7" cy="231.7" r="3" fill="#4e79a7"/><circle cx="654.9" cy="231.4" r="3" fill="#4e79a7"/><circle cx="666.0" cy="231.8" r="3" fill="#4e79a7"/><circle cx="677.2" cy="219.9" r="3" fill="#4e79a7"/><circle cx="688.4" cy="227.6" r="3" fill="#4e79a7"/><circle cx="699.5" cy="231.7" r="3" fill="#4e79a7"/><circle cx="710.7" cy="231.0" r="3" fill="#4e79a7"/><circle cx="721.9" cy="231.7" r="3" fill="#4e79a7"/><circle cx="733.0" cy="231.7" r="3" fill="#4e79a7"/><circle cx="744.2" cy="232.0" r="3" fill="#4e79a7"/><circle cx="755.3" cy="224.4" r="3" fill="#4e79a7"/><circle cx="766.5" cy="230.1" r="3" fill="#4e79a7"/><circle cx="777.7" cy="230.7" r="3" fill="#4e79a7"/><circle cx="788.8" cy="229.6" r="3" fill="#4e79a7"/><circle cx="800.0" cy="231.8" r="3" fill="#4e79a7"/>
  <circle cx="52.0" cy="232.0" r="3" fill="#f28e2b"/><circle cx="63.2" cy="231.7" r="3" fill="#f28e2b"/><circle cx="74.3" cy="231.5" r="3" fill="#f28e2b"/><circle cx="85.5" cy="228.8" r="3" fill="#f28e2b"/><circle cx="96.7" cy="231.4" r="3" fill="#f28e2b"/><circle cx="107.8" cy="231.8" r="3" fill="#f28e2b"/><circle cx="119.0" cy="232.0" r="3" fill="#f28e2b"/><circle cx="130.1" cy="231.8" r="3" fill="#f28e2b"/><circle cx="141.3" cy="232.0" r="3" fill="#f28e2b"/><circle cx="152.5" cy="231.7" r="3" fill="#f28e2b"/><circle cx="163.6" cy="222.5" r="3" fill="#f28e2b"/><circle cx="174.8" cy="216.0" r="3" fill="#f28e2b"/><circle cx="186.0" cy="202.6" r="3" fill="#f28e2b"/><circle cx="197.1" cy="227.8" r="3" fill="#f28e2b"/><circle cx="208.3" cy="221.5" r="3" fill="#f28e2b"/><circle cx="219.5" cy="223.1" r="3" fill="#f28e2b"/><circle cx="230.6" cy="231.5" r="3" fill="#f28e2b"/><circle cx="241.8" cy="231.8" r="3" fill="#f28e2b"/><circle cx="253.0" cy="220.2" r="3" fill="#f28e2b"/><circle cx="264.1" cy="230.7" r="3" fill="#f28e2b"/><circle cx="275.3" cy="231.5" r="3" fill="#f28e2b"/><circle cx="286.4" cy="230.7" r="3" fill="#f28e2b"/><circle cx="297.6" cy="231.5" r="3" fill="#f28e2b"/><circle cx="308.8" cy="231.8" r="3" fill="#f28e2b"/><circle cx="319.9" cy="223.9" r="3" fill="#f28e2b"/><circle cx="331.1" cy="230.7" r="3" fill="#f28e2b"/><circle cx="342.3" cy="231.2" r="3" fill="#f28e2b"/><circle cx="353.4" cy="232.0" r="3" fill="#f28e2b"/><circle cx="364.6" cy="231.2" r="3" fill="#f28e2b"/><circle cx="375.8" cy="230.4" r="3" fill="#f28e2b"/><circle cx="386.9" cy="221.2" r="3" fill="#f28e2b"/><circle cx="398.1" cy="222.1" r="3" fill="#f28e2b"/><circle cx="409.3" cy="207.8" r="3" fill="#f28e2b"/><circle cx="420.4" cy="213.3" r="3" fill="#f28e2b"/><circle cx="431.6" cy="228.9" r="3" fill="#f28e2b"/><circle cx="442.7" cy="209.1" r="3" fill="#f28e2b"/><circle cx="453.9" cy="229.9" r="3" fill="#f28e2b"/><circle cx="465.1" cy="224.4" r="3" fill="#f28e2b"/><circle cx="476.2" cy="230.4" r="3" fill="#f28e2b"/><circle cx="487.4" cy="224.6" r="3" fill="#f28e2b"/><circle cx="498.6" cy="230.9" r="3" fill="#f28e2b"/><circle cx="509.7" cy="231.5" r="3" fill="#f28e2b"/><circle cx="520.9" cy="214.1" r="3" fill="#f28e2b"/><circle cx="532.1" cy="229.1" r="3" fill="#f28e2b"/><circle cx="543.2" cy="230.9" r="3" fill="#f28e2b"/><circle cx="554.4" cy="231.7" r="3" fill="#f28e2b"/><circle cx="565.6" cy="232.0" r="3" fill="#f28e2b"/><circle cx="576.7" cy="232.0" r="3" fill="#f28e2b"/><circle cx="587.9" cy="227.0" r="3" fill="#f28e2b"/><circle cx="599.0" cy="228.3" r="3" fill="#f28e2b"/><circle cx="610.2" cy="231.4" r="3" fill="#f28e2b"/><circle cx="621.4" cy="231.4" r="3" fill="#f28e2b"/><circle cx="632.5" cy="231.7" r="3" fill="#f28e2b"/><circle cx="643.7" cy="231.7" r="3" fill="#f28e2b"/><circle cx="654.9" cy="231.5" r="3" fill="#f28e2b"/><circle cx="666.0" cy="231.8" r="3" fill="#f28e2b"/><circle cx="677.2" cy="230.2" r="3" fill="#f28e2b"/><circle cx="688.4" cy="230.4" r="3" fill="#f28e2b"/><circle cx="699.5" cy="231.7" r="3" fill="#f28e2b"/><circle cx="710.7" cy="231.5" r="3" fill="#f28e2b"/><circle cx="721.9" cy="231.7" r="3" fill="#f28e2b"/><circle cx="733.0" cy="231.7" r="3" fill="#f28e2b"/><circle cx="744.2" cy="232.0" r="3" fill="#f28e2b"/><circle cx="755.3" cy="231.0" r="3" fill="#f28e2b"/><circle cx="766.5" cy="231.5" r="3" fill="#f28e2b"/><circle cx="777.7" cy="231.7" r="3" fill="#f28e2b"/><circle cx="788.8" cy="231.4" r="3" fill="#f28e2b"/><circle cx="800.0" cy="231.8" r="3" fill="#f28e2b"/>

  <!-- axes -->
  <line x1="52" y1="28" x2="52" y2="232"
        stroke="#cccccc" stroke-width="1"/>
  <line x1="52" y1="232" x2="800" y2="232"
        stroke="#cccccc" stroke-width="1"/>

  <!-- y-axis labels -->
  <text x="47" y="236.0" text-anchor="end" font-size="10" fill="#57606a" font-family="ui-monospace, SFMono-Regular, 'SF Mono', Menlo, monospace">0</text><text x="47" y="187.5" text-anchor="end" font-size="10" fill="#57606a" font-family="ui-monospace, SFMono-Regular, 'SF Mono', Menlo, monospace">300</text><text x="47" y="139.1" text-anchor="end" font-size="10" fill="#57606a" font-family="ui-monospace, SFMono-Regular, 'SF Mono', Menlo, monospace">600</text><text x="47" y="90.6" text-anchor="end" font-size="10" fill="#57606a" font-family="ui-monospace, SFMono-Regular, 'SF Mono', Menlo, monospace">900</text><text x="47" y="42.2" text-anchor="end" font-size="10" fill="#57606a" font-family="ui-monospace, SFMono-Regular, 'SF Mono', Menlo, monospace">1,200</text><text x="47" y="-6.3" text-anchor="end" font-size="10" fill="#57606a" font-family="ui-monospace, SFMono-Regular, 'SF Mono', Menlo, monospace">1,500</text>

  <!-- x-axis labels -->
  <text x="52.0" y="248" text-anchor="middle" font-size="10" fill="#8c959f" font-family="ui-monospace, SFMono-Regular, 'SF Mono', Menlo, monospace">05-11</text><text x="409.3" y="248" text-anchor="middle" font-size="10" fill="#8c959f" font-family="ui-monospace, SFMono-Regular, 'SF Mono', Menlo, monospace">06-12</text><text x="766.5" y="248" text-anchor="middle" font-size="10" fill="#8c959f" font-family="ui-monospace, SFMono-Regular, 'SF Mono', Menlo, monospace">07-14</text><text x="800.0" y="248" text-anchor="middle" font-size="10" fill="#8c959f" font-family="ui-monospace, SFMono-Regular, 'SF Mono', Menlo, monospace">07-17</text><text x="141.3" y="248" text-anchor="middle" font-size="10" fill="#8c959f" font-family="ui-monospace, SFMono-Regular, 'SF Mono', Menlo, monospace">05-19</text><text x="498.6" y="248" text-anchor="middle" font-size="10" fill="#8c959f" font-family="ui-monospace, SFMono-Regular, 'SF Mono', Menlo, monospace">06-20</text><text x="230.6" y="248" text-anchor="middle" font-size="10" fill="#8c959f" font-family="ui-monospace, SFMono-Regular, 'SF Mono', Menlo, monospace">05-27</text><text x="587.9" y="248" text-anchor="middle" font-size="10" fill="#8c959f" font-family="ui-monospace, SFMono-Regular, 'SF Mono', Menlo, monospace">06-28</text><text x="319.9" y="248" text-anchor="middle" font-size="10" fill="#8c959f" font-family="ui-monospace, SFMono-Regular, 'SF Mono', Menlo, monospace">06-04</text><text x="677.2" y="248" text-anchor="middle" font-size="10" fill="#8c959f" font-family="ui-monospace, SFMono-Regular, 'SF Mono', Menlo, monospace">07-06</text>

  <!-- legend -->
  <rect x="60" y="262" width="16" height="3" fill="#4e79a7" rx="1"/><text x="80" y="268" font-size="11" fill="#57606a" font-family="-apple-system, BlinkMacSystemFont, 'Segoe UI', sans-serif">Total clones (7,255)</text><line x1="230" y1="264" x2="246" y2="264" stroke="#f28e2b" stroke-width="2" stroke-dasharray="5,3"/><text x="250" y="268" font-size="11" fill="#57606a" font-family="-apple-system, BlinkMacSystemFont, 'Segoe UI', sans-serif">Unique cloners</text>

</svg>