<svg xmlns="http://www.w3.org/2000/svg" viewBox="0 0 820 280" width="820" height="280">

  <!-- title -->
  <text x="52" y="18" font-size="13" font-weight="600"
        fill="#24292f" font-family="-apple-system, BlinkMacSystemFont, 'Segoe UI', sans-serif"
        >Clone traffic — ci-helpers</text>
  <text x="800" y="18" font-size="10" fill="#8c959f"
        font-family="ui-monospace, SFMono-Regular, 'SF Mono', Menlo, monospace" text-anchor="end">2026-06-14</text>

  <!-- grid -->
  <line x1="52" y1="232.0" x2="800" y2="232.0" stroke="#e8e8e8" stroke-width="1"/><line x1="52" y1="195.2" x2="800" y2="195.2" stroke="#e8e8e8" stroke-width="1"/><line x1="52" y1="158.4" x2="800" y2="158.4" stroke="#e8e8e8" stroke-width="1"/><line x1="52" y1="121.5" x2="800" y2="121.5" stroke="#e8e8e8" stroke-width="1"/><line x1="52" y1="84.7" x2="800" y2="84.7" stroke="#e8e8e8" stroke-width="1"/><line x1="52" y1="47.9" x2="800" y2="47.9" stroke="#e8e8e8" stroke-width="1"/><line x1="52" y1="11.1" x2="800" y2="11.1" stroke="#e8e8e8" stroke-width="1"/>

  <!-- area fill -->
  <path d="M52.0,232.0 L52.0,232.0 L75.4,231.3 L98.8,230.9 L122.1,214.7 L145.5,230.2 L168.9,231.6 L192.2,232.0 L215.6,229.8 L239.0,232.0 L262.4,231.3 L285.8,39.8 L309.1,153.2 L332.5,58.6 L355.9,186.7 L379.2,147.3 L402.6,174.2 L426.0,230.9 L449.4,221.7 L472.8,167.6 L496.1,216.9 L519.5,230.9 L542.9,207.3 L566.2,230.5 L589.6,231.6 L613.0,178.2 L636.4,228.3 L659.8,227.9 L683.1,232.0 L706.5,222.1 L729.9,221.7 L753.2,172.0 L776.6,175.7 L800.0,28.0 L800.0,232.0 L52.0,232.0Z" fill="#4e79a7" opacity="0.12"/>

  <!-- lines -->
  <polyline points="52.0,232.0 75.4,231.3 98.8,230.9 122.1,214.7 145.5,230.2 168.9,231.6 192.2,232.0 215.6,229.8 239.0,232.0 262.4,231.3 285.8,39.8 309.1,153.2 332.5,58.6 355.9,186.7 379.2,147.3 402.6,174.2 426.0,230.9 449.4,221.7 472.8,167.6 496.1,216.9 519.5,230.9 542.9,207.3 566.2,230.5 589.6,231.6 613.0,178.2 636.4,228.3 659.8,227.9 683.1,232.0 706.5,222.1 729.9,221.7 753.2,172.0 776.6,175.7 800.0,28.0"
            fill="none" stroke="#4e79a7"
            stroke-width="2" stroke-linejoin="round"/>
  <polyline points="52.0,232.0 75.4,231.3 98.8,230.9 122.1,224.6 145.5,230.5 168.9,231.6 192.2,232.0 215.6,231.6 239.0,232.0 262.4,231.3 285.8,210.3 309.1,195.5 332.5,165.0 355.9,222.4 379.2,208.1 402.6,211.7 426.0,230.9 449.4,231.6 472.8,205.1 496.1,229.1 519.5,230.9 542.9,229.1 566.2,230.9 589.6,231.6 613.0,213.6 636.4,229.1 659.8,230.2 683.1,232.0 706.5,230.2 729.9,228.3 753.2,207.3 776.6,209.5 800.0,176.8"
            fill="none" stroke="#f28e2b"
            stroke-width="2" stroke-linejoin="round"
            stroke-dasharray="5,3"/>

  <!-- dots -->
  <circle cx="52.0" cy="232.0" r="3" fill="#4e79a7"/><circle cx="75.4" cy="231.3" r="3" fill="#4e79a7"/><circle cx="98.8" cy="230.9" r="3" fill="#4e79a7"/><circle cx="122.1" cy="214.7" r="3" fill="#4e79a7"/><circle cx="145.5" cy="230.2" r="3" fill="#4e79a7"/><circle cx="168.9" cy="231.6" r="3" fill="#4e79a7"/><circle cx="192.2" cy="232.0" r="3" fill="#4e79a7"/><circle cx="215.6" cy="229.8" r="3" fill="#4e79a7"/><circle cx="239.0" cy="232.0" r="3" fill="#4e79a7"/><circle cx="262.4" cy="231.3" r="3" fill="#4e79a7"/><circle cx="285.8" cy="39.8" r="3" fill="#4e79a7"/><circle cx="309.1" cy="153.2" r="3" fill="#4e79a7"/><circle cx="332.5" cy="58.6" r="3" fill="#4e79a7"/><circle cx="355.9" cy="186.7" r="3" fill="#4e79a7"/><circle cx="379.2" cy="147.3" r="3" fill="#4e79a7"/><circle cx="402.6" cy="174.2" r="3" fill="#4e79a7"/><circle cx="426.0" cy="230.9" r="3" fill="#4e79a7"/><circle cx="449.4" cy="221.7" r="3" fill="#4e79a7"/><circle cx="472.8" cy="167.6" r="3" fill="#4e79a7"/><circle cx="496.1" cy="216.9" r="3" fill="#4e79a7"/><circle cx="519.5" cy="230.9" r="3" fill="#4e79a7"/><circle cx="542.9" cy="207.3" r="3" fill="#4e79a7"/><circle cx="566.2" cy="230.5" r="3" fill="#4e79a7"/><circle cx="589.6" cy="231.6" r="3" fill="#4e79a7"/><circle cx="613.0" cy="178.2" r="3" fill="#4e79a7"/><circle cx="636.4" cy="228.3" r="3" fill="#4e79a7"/><circle cx="659.8" cy="227.9" r="3" fill="#4e79a7"/><circle cx="683.1" cy="232.0" r="3" fill="#4e79a7"/><circle cx="706.5" cy="222.1" r="3" fill="#4e79a7"/><circle cx="729.9" cy="221.7" r="3" fill="#4e79a7"/><circle cx="753.2" cy="172.0" r="3" fill="#4e79a7"/><circle cx="776.6" cy="175.7" r="3" fill="#4e79a7"/><circle cx="800.0" cy="28.0" r="3" fill="#4e79a7"/>
  <circle cx="52.0" cy="232.0" r="3" fill="#f28e2b"/><circle cx="75.4" cy="231.3" r="3" fill="#f28e2b"/><circle cx="98.8" cy="230.9" r="3" fill="#f28e2b"/><circle cx="122.1" cy="224.6" r="3" fill="#f28e2b"/><circle cx="145.5" cy="230.5" r="3" fill="#f28e2b"/><circle cx="168.9" cy="231.6" r="3" fill="#f28e2b"/><circle cx="192.2" cy="232.0" r="3" fill="#f28e2b"/><circle cx="215.6" cy="231.6" r="3" fill="#f28e2b"/><circle cx="239.0" cy="232.0" r="3" fill="#f28e2b"/><circle cx="262.4" cy="231.3" r="3" fill="#f28e2b"/><circle cx="285.8" cy="210.3" r="3" fill="#f28e2b"/><circle cx="309.1" cy="195.5" r="3" fill="#f28e2b"/><circle cx="332.5" cy="165.0" r="3" fill="#f28e2b"/><circle cx="355.9" cy="222.4" r="3" fill="#f28e2b"/><circle cx="379.2" cy="208.1" r="3" fill="#f28e2b"/><circle cx="402.6" cy="211.7" r="3" fill="#f28e2b"/><circle cx="426.0" cy="230.9" r="3" fill="#f28e2b"/><circle cx="449.4" cy="231.6" r="3" fill="#f28e2b"/><circle cx="472.8" cy="205.1" r="3" fill="#f28e2b"/><circle cx="496.1" cy="229.1" r="3" fill="#f28e2b"/><circle cx="519.5" cy="230.9" r="3" fill="#f28e2b"/><circle cx="542.9" cy="229.1" r="3" fill="#f28e2b"/><circle cx="566.2" cy="230.9" r="3" fill="#f28e2b"/><circle cx="589.6" cy="231.6" r="3" fill="#f28e2b"/><circle cx="613.0" cy="213.6" r="3" fill="#f28e2b"/><circle cx="636.4" cy="229.1" r="3" fill="#f28e2b"/><circle cx="659.8" cy="230.2" r="3" fill="#f28e2b"/><circle cx="683.1" cy="232.0" r="3" fill="#f28e2b"/><circle cx="706.5" cy="230.2" r="3" fill="#f28e2b"/><circle cx="729.9" cy="228.3" r="3" fill="#f28e2b"/><circle cx="753.2" cy="207.3" r="3" fill="#f28e2b"/><circle cx="776.6" cy="209.5" r="3" fill="#f28e2b"/><circle cx="800.0" cy="176.8" r="3" fill="#f28e2b"/>

  <!-- axes -->
  <line x1="52" y1="28" x2="52" y2="232"
        stroke="#cccccc" stroke-width="1"/>
  <line x1="52" y1="232" x2="800" y2="232"
        stroke="#cccccc" stroke-width="1"/>

  <!-- y-axis labels -->
  <text x="47" y="236.0" text-anchor="end" font-size="10" fill="#57606a" font-family="ui-monospace, SFMono-Regular, 'SF Mono', Menlo, monospace">0</text><text x="47" y="199.2" text-anchor="end" font-size="10" fill="#57606a" font-family="ui-monospace, SFMono-Regular, 'SF Mono', Menlo, monospace">100</text><text x="47" y="162.4" text-anchor="end" font-size="10" fill="#57606a" font-family="ui-monospace, SFMono-Regular, 'SF Mono', Menlo, monospace">200</text><text x="47" y="125.5" text-anchor="end" font-size="10" fill="#57606a" font-family="ui-monospace, SFMono-Regular, 'SF Mono', Menlo, monospace">300</text><text x="47" y="88.7" text-anchor="end" font-size="10" fill="#57606a" font-family="ui-monospace, SFMono-Regular, 'SF Mono', Menlo, monospace">400</text><text x="47" y="51.9" text-anchor="end" font-size="10" fill="#57606a" font-family="ui-monospace, SFMono-Regular, 'SF Mono', Menlo, monospace">500</text><text x="47" y="15.1" text-anchor="end" font-size="10" fill="#57606a" font-family="ui-monospace, SFMono-Regular, 'SF Mono', Menlo, monospace">600</text>

  <!-- x-axis labels -->
  <text x="52.0" y="248" text-anchor="middle" font-size="10" fill="#8c959f" font-family="ui-monospace, SFMono-Regular, 'SF Mono', Menlo, monospace">05-11</text><text x="800.0" y="248" text-anchor="middle" font-size="10" fill="#8c959f" font-family="ui-monospace, SFMono-Regular, 'SF Mono', Menlo, monospace">06-12</text><text x="145.5" y="248" text-anchor="middle" font-size="10" fill="#8c959f" font-family="ui-monospace, SFMono-Regular, 'SF Mono', Menlo, monospace">05-15</text><text x="239.0" y="248" text-anchor="middle" font-size="10" fill="#8c959f" font-family="ui-monospace, SFMono-Regular, 'SF Mono', Menlo, monospace">05-19</text><text x="332.5" y="248" text-anchor="middle" font-size="10" fill="#8c959f" font-family="ui-monospace, SFMono-Regular, 'SF Mono', Menlo, monospace">05-23</text><text x="426.0" y="248" text-anchor="middle" font-size="10" fill="#8c959f" font-family="ui-monospace, SFMono-Regular, 'SF Mono', Menlo, monospace">05-27</text><text x="519.5" y="248" text-anchor="middle" font-size="10" fill="#8c959f" font-family="ui-monospace, SFMono-Regular, 'SF Mono', Menlo, monospace">05-31</text><text x="613.0" y="248" text-anchor="middle" font-size="10" fill="#8c959f" font-family="ui-monospace, SFMono-Regular, 'SF Mono', Menlo, monospace">06-04</text><text x="706.5" y="248" text-anchor="middle" font-size="10" fill="#8c959f" font-family="ui-monospace, SFMono-Regular, 'SF Mono', Menlo, monospace">06-08</text>

  <!-- legend -->
  <rect x="60" y="262" width="16" height="3" fill="#4e79a7" rx="1"/><text x="80" y="268" font-size="11" fill="#57606a" font-family="-apple-system, BlinkMacSystemFont, 'Segoe UI', sans-serif">Total clones (3,197)</text><line x1="230" y1="264" x2="246" y2="264" stroke="#f28e2b" stroke-width="2" stroke-dasharray="5,3"/><text x="250" y="268" font-size="11" fill="#57606a" font-family="-apple-system, BlinkMacSystemFont, 'Segoe UI', sans-serif">Unique cloners</text>

</svg>