<svg xmlns="http://www.w3.org/2000/svg" viewBox="0 0 820 280" width="820" height="280">

  <!-- title -->
  <text x="52" y="18" font-size="13" font-weight="600"
        fill="#24292f" font-family="-apple-system, BlinkMacSystemFont, 'Segoe UI', sans-serif"
        >Clone traffic — ci-helpers</text>
  <text x="800" y="18" font-size="10" fill="#8c959f"
        font-family="ui-monospace, SFMono-Regular, 'SF Mono', Menlo, monospace" text-anchor="end">2026-06-07</text>

  <!-- grid -->
  <line x1="52" y1="232.0" x2="800" y2="232.0" stroke="#e8e8e8" stroke-width="1"/><line x1="52" y1="192.9" x2="800" y2="192.9" stroke="#e8e8e8" stroke-width="1"/><line x1="52" y1="153.8" x2="800" y2="153.8" stroke="#e8e8e8" stroke-width="1"/><line x1="52" y1="114.8" x2="800" y2="114.8" stroke="#e8e8e8" stroke-width="1"/><line x1="52" y1="75.7" x2="800" y2="75.7" stroke="#e8e8e8" stroke-width="1"/><line x1="52" y1="36.6" x2="800" y2="36.6" stroke="#e8e8e8" stroke-width="1"/><line x1="52" y1="-2.5" x2="800" y2="-2.5" stroke="#e8e8e8" stroke-width="1"/>

  <!-- area fill -->
  <path d="M52.0,232.0 L52.0,232.0 L81.9,231.2 L111.8,230.8 L141.8,213.6 L171.7,230.0 L201.6,231.6 L231.5,232.0 L261.4,229.7 L291.4,232.0 L321.3,231.2 L351.2,28.0 L381.1,148.4 L411.0,47.9 L441.0,183.9 L470.9,142.1 L500.8,170.6 L530.7,230.8 L560.6,221.1 L590.6,163.6 L620.5,216.0 L650.4,230.8 L680.3,205.8 L710.2,230.4 L740.2,231.6 L770.1,174.9 L800.0,228.1 L800.0,232.0 L52.0,232.0Z" fill="#4e79a7" opacity="0.12"/>

  <!-- lines -->
  <polyline points="52.0,232.0 81.9,231.2 111.8,230.8 141.8,213.6 171.7,230.0 201.6,231.6 231.5,232.0 261.4,229.7 291.4,232.0 321.3,231.2 351.2,28.0 381.1,148.4 411.0,47.9 441.0,183.9 470.9,142.1 500.8,170.6 530.7,230.8 560.6,221.1 590.6,163.6 620.5,216.0 650.4,230.8 680.3,205.8 710.2,230.4 740.2,231.6 770.1,174.9 800.0,228.1"
            fill="none" stroke="#4e79a7"
            stroke-width="2" stroke-linejoin="round"/>
  <polyline points="52.0,232.0 81.9,231.2 111.8,230.8 141.8,224.2 171.7,230.4 201.6,231.6 231.5,232.0 261.4,231.6 291.4,232.0 321.3,231.2 351.2,208.9 381.1,193.3 411.0,160.9 441.0,221.8 470.9,206.6 500.8,210.5 530.7,230.8 560.6,231.6 590.6,203.5 620.5,228.9 650.4,230.8 680.3,228.9 710.2,230.8 740.2,231.6 770.1,212.5 800.0,228.9"
            fill="none" stroke="#f28e2b"
            stroke-width="2" stroke-linejoin="round"
            stroke-dasharray="5,3"/>

  <!-- dots -->
  <circle cx="52.0" cy="232.0" r="3" fill="#4e79a7"/><circle cx="81.9" cy="231.2" r="3" fill="#4e79a7"/><circle cx="111.8" cy="230.8" r="3" fill="#4e79a7"/><circle cx="141.8" cy="213.6" r="3" fill="#4e79a7"/><circle cx="171.7" cy="230.0" r="3" fill="#4e79a7"/><circle cx="201.6" cy="231.6" r="3" fill="#4e79a7"/><circle cx="231.5" cy="232.0" r="3" fill="#4e79a7"/><circle cx="261.4" cy="229.7" r="3" fill="#4e79a7"/><circle cx="291.4" cy="232.0" r="3" fill="#4e79a7"/><circle cx="321.3" cy="231.2" r="3" fill="#4e79a7"/><circle cx="351.2" cy="28.0" r="3" fill="#4e79a7"/><circle cx="381.1" cy="148.4" r="3" fill="#4e79a7"/><circle cx="411.0" cy="47.9" r="3" fill="#4e79a7"/><circle cx="441.0" cy="183.9" r="3" fill="#4e79a7"/><circle cx="470.9" cy="142.1" r="3" fill="#4e79a7"/><circle cx="500.8" cy="170.6" r="3" fill="#4e79a7"/><circle cx="530.7" cy="230.8" r="3" fill="#4e79a7"/><circle cx="560.6" cy="221.1" r="3" fill="#4e79a7"/><circle cx="590.6" cy="163.6" r="3" fill="#4e79a7"/><circle cx="620.5" cy="216.0" r="3" fill="#4e79a7"/><circle cx="650.4" cy="230.8" r="3" fill="#4e79a7"/><circle cx="680.3" cy="205.8" r="3" fill="#4e79a7"/><circle cx="710.2" cy="230.4" r="3" fill="#4e79a7"/><circle cx="740.2" cy="231.6" r="3" fill="#4e79a7"/><circle cx="770.1" cy="174.9" r="3" fill="#4e79a7"/><circle cx="800.0" cy="228.1" r="3" fill="#4e79a7"/>
  <circle cx="52.0" cy="232.0" r="3" fill="#f28e2b"/><circle cx="81.9" cy="231.2" r="3" fill="#f28e2b"/><circle cx="111.8" cy="230.8" r="3" fill="#f28e2b"/><circle cx="141.8" cy="224.2" r="3" fill="#f28e2b"/><circle cx="171.7" cy="230.4" r="3" fill="#f28e2b"/><circle cx="201.6" cy="231.6" r="3" fill="#f28e2b"/><circle cx="231.5" cy="232.0" r="3" fill="#f28e2b"/><circle cx="261.4" cy="231.6" r="3" fill="#f28e2b"/><circle cx="291.4" cy="232.0" r="3" fill="#f28e2b"/><circle cx="321.3" cy="231.2" r="3" fill="#f28e2b"/><circle cx="351.2" cy="208.9" r="3" fill="#f28e2b"/><circle cx="381.1" cy="193.3" r="3" fill="#f28e2b"/><circle cx="411.0" cy="160.9" r="3" fill="#f28e2b"/><circle cx="441.0" cy="221.8" r="3" fill="#f28e2b"/><circle cx="470.9" cy="206.6" r="3" fill="#f28e2b"/><circle cx="500.8" cy="210.5" r="3" fill="#f28e2b"/><circle cx="530.7" cy="230.8" r="3" fill="#f28e2b"/><circle cx="560.6" cy="231.6" r="3" fill="#f28e2b"/><circle cx="590.6" cy="203.5" r="3" fill="#f28e2b"/><circle cx="620.5" cy="228.9" r="3" fill="#f28e2b"/><circle cx="650.4" cy="230.8" r="3" fill="#f28e2b"/><circle cx="680.3" cy="228.9" r="3" fill="#f28e2b"/><circle cx="710.2" cy="230.8" r="3" fill="#f28e2b"/><circle cx="740.2" cy="231.6" r="3" fill="#f28e2b"/><circle cx="770.1" cy="212.5" r="3" fill="#f28e2b"/><circle cx="800.0" cy="228.9" r="3" fill="#f28e2b"/>

  <!-- axes -->
  <line x1="52" y1="28" x2="52" y2="232"
        stroke="#cccccc" stroke-width="1"/>
  <line x1="52" y1="232" x2="800" y2="232"
        stroke="#cccccc" stroke-width="1"/>

  <!-- y-axis labels -->
  <text x="47" y="236.0" text-anchor="end" font-size="10" fill="#57606a" font-family="ui-monospace, SFMono-Regular, 'SF Mono', Menlo, monospace">0</text><text x="47" y="196.9" text-anchor="end" font-size="10" fill="#57606a" font-family="ui-monospace, SFMono-Regular, 'SF Mono', Menlo, monospace">100</text><text x="47" y="157.8" text-anchor="end" font-size="10" fill="#57606a" font-family="ui-monospace, SFMono-Regular, 'SF Mono', Menlo, monospace">200</text><text x="47" y="118.8" text-anchor="end" font-size="10" fill="#57606a" font-family="ui-monospace, SFMono-Regular, 'SF Mono', Menlo, monospace">300</text><text x="47" y="79.7" text-anchor="end" font-size="10" fill="#57606a" font-family="ui-monospace, SFMono-Regular, 'SF Mono', Menlo, monospace">400</text><text x="47" y="40.6" text-anchor="end" font-size="10" fill="#57606a" font-family="ui-monospace, SFMono-Regular, 'SF Mono', Menlo, monospace">500</text><text x="47" y="1.5" text-anchor="end" font-size="10" fill="#57606a" font-family="ui-monospace, SFMono-Regular, 'SF Mono', Menlo, monospace">600</text>

  <!-- x-axis labels -->
  <text x="52.0" y="248" text-anchor="middle" font-size="10" fill="#8c959f" font-family="ui-monospace, SFMono-Regular, 'SF Mono', Menlo, monospace">05-11</text><text x="141.8" y="248" text-anchor="middle" font-size="10" fill="#8c959f" font-family="ui-monospace, SFMono-Regular, 'SF Mono', Menlo, monospace">05-14</text><text x="231.5" y="248" text-anchor="middle" font-size="10" fill="#8c959f" font-family="ui-monospace, SFMono-Regular, 'SF Mono', Menlo, monospace">05-17</text><text x="321.3" y="248" text-anchor="middle" font-size="10" fill="#8c959f" font-family="ui-monospace, SFMono-Regular, 'SF Mono', Menlo, monospace">05-20</text><text x="411.0" y="248" text-anchor="middle" font-size="10" fill="#8c959f" font-family="ui-monospace, SFMono-Regular, 'SF Mono', Menlo, monospace">05-23</text><text x="500.8" y="248" text-anchor="middle" font-size="10" fill="#8c959f" font-family="ui-monospace, SFMono-Regular, 'SF Mono', Menlo, monospace">05-26</text><text x="590.6" y="248" text-anchor="middle" font-size="10" fill="#8c959f" font-family="ui-monospace, SFMono-Regular, 'SF Mono', Menlo, monospace">05-29</text><text x="680.3" y="248" text-anchor="middle" font-size="10" fill="#8c959f" font-family="ui-monospace, SFMono-Regular, 'SF Mono', Menlo, monospace">06-01</text><text x="770.1" y="248" text-anchor="middle" font-size="10" fill="#8c959f" font-family="ui-monospace, SFMono-Regular, 'SF Mono', Menlo, monospace">06-04</text><text x="800.0" y="248" text-anchor="middle" font-size="10" fill="#8c959f" font-family="ui-monospace, SFMono-Regular, 'SF Mono', Menlo, monospace">06-05</text>

  <!-- legend -->
  <rect x="60" y="262" width="16" height="3" fill="#4e79a7" rx="1"/><text x="80" y="268" font-size="11" fill="#57606a" font-family="-apple-system, BlinkMacSystemFont, 'Segoe UI', sans-serif">Total clones (2,261)</text><line x1="230" y1="264" x2="246" y2="264" stroke="#f28e2b" stroke-width="2" stroke-dasharray="5,3"/><text x="250" y="268" font-size="11" fill="#57606a" font-family="-apple-system, BlinkMacSystemFont, 'Segoe UI', sans-serif">Unique cloners</text>

</svg>