<svg xmlns="http://www.w3.org/2000/svg" viewBox="0 0 820 280" width="820" height="280">

  <!-- title -->
  <text x="52" y="18" font-size="13" font-weight="600"
        fill="#24292f" font-family="-apple-system, BlinkMacSystemFont, 'Segoe UI', sans-serif"
        >Clone traffic — ci-helpers</text>
  <text x="800" y="18" font-size="10" fill="#8c959f"
        font-family="ui-monospace, SFMono-Regular, 'SF Mono', Menlo, monospace" text-anchor="end">2026-06-03</text>

  <!-- grid -->
  <line x1="52" y1="232.0" x2="800" y2="232.0" stroke="#e8e8e8" stroke-width="1"/><line x1="52" y1="192.9" x2="800" y2="192.9" stroke="#e8e8e8" stroke-width="1"/><line x1="52" y1="153.8" x2="800" y2="153.8" stroke="#e8e8e8" stroke-width="1"/><line x1="52" y1="114.8" x2="800" y2="114.8" stroke="#e8e8e8" stroke-width="1"/><line x1="52" y1="75.7" x2="800" y2="75.7" stroke="#e8e8e8" stroke-width="1"/><line x1="52" y1="36.6" x2="800" y2="36.6" stroke="#e8e8e8" stroke-width="1"/><line x1="52" y1="-2.5" x2="800" y2="-2.5" stroke="#e8e8e8" stroke-width="1"/>

  <!-- area fill -->
  <path d="M52.0,232.0 L52.0,232.0 L87.6,231.2 L123.2,230.8 L158.9,213.6 L194.5,230.0 L230.1,231.6 L265.7,232.0 L301.3,229.7 L337.0,232.0 L372.6,231.2 L408.2,28.0 L443.8,148.4 L479.4,47.9 L515.0,183.9 L550.7,142.1 L586.3,170.6 L621.9,230.8 L657.5,221.1 L693.1,163.6 L728.8,216.0 L764.4,230.8 L800.0,205.8 L800.0,232.0 L52.0,232.0Z" fill="#4e79a7" opacity="0.12"/>

  <!-- lines -->
  <polyline points="52.0,232.0 87.6,231.2 123.2,230.8 158.9,213.6 194.5,230.0 230.1,231.6 265.7,232.0 301.3,229.7 337.0,232.0 372.6,231.2 408.2,28.0 443.8,148.4 479.4,47.9 515.0,183.9 550.7,142.1 586.3,170.6 621.9,230.8 657.5,221.1 693.1,163.6 728.8,216.0 764.4,230.8 800.0,205.8"
            fill="none" stroke="#4e79a7"
            stroke-width="2" stroke-linejoin="round"/>
  <polyline points="52.0,232.0 87.6,231.2 123.2,230.8 158.9,224.2 194.5,230.4 230.1,231.6 265.7,232.0 301.3,231.6 337.0,232.0 372.6,231.2 408.2,208.9 443.8,193.3 479.4,160.9 515.0,221.8 550.7,206.6 586.3,210.5 621.9,230.8 657.5,231.6 693.1,203.5 728.8,228.9 764.4,230.8 800.0,228.9"
            fill="none" stroke="#f28e2b"
            stroke-width="2" stroke-linejoin="round"
            stroke-dasharray="5,3"/>

  <!-- dots -->
  <circle cx="52.0" cy="232.0" r="3" fill="#4e79a7"/><circle cx="87.6" cy="231.2" r="3" fill="#4e79a7"/><circle cx="123.2" cy="230.8" r="3" fill="#4e79a7"/><circle cx="158.9" cy="213.6" r="3" fill="#4e79a7"/><circle cx="194.5" cy="230.0" r="3" fill="#4e79a7"/><circle cx="230.1" cy="231.6" r="3" fill="#4e79a7"/><circle cx="265.7" cy="232.0" r="3" fill="#4e79a7"/><circle cx="301.3" cy="229.7" r="3" fill="#4e79a7"/><circle cx="337.0" cy="232.0" r="3" fill="#4e79a7"/><circle cx="372.6" cy="231.2" r="3" fill="#4e79a7"/><circle cx="408.2" cy="28.0" r="3" fill="#4e79a7"/><circle cx="443.8" cy="148.4" r="3" fill="#4e79a7"/><circle cx="479.4" cy="47.9" r="3" fill="#4e79a7"/><circle cx="515.0" cy="183.9" r="3" fill="#4e79a7"/><circle cx="550.7" cy="142.1" r="3" fill="#4e79a7"/><circle cx="586.3" cy="170.6" r="3" fill="#4e79a7"/><circle cx="621.9" cy="230.8" r="3" fill="#4e79a7"/><circle cx="657.5" cy="221.1" r="3" fill="#4e79a7"/><circle cx="693.1" cy="163.6" r="3" fill="#4e79a7"/><circle cx="728.8" cy="216.0" r="3" fill="#4e79a7"/><circle cx="764.4" cy="230.8" r="3" fill="#4e79a7"/><circle cx="800.0" cy="205.8" r="3" fill="#4e79a7"/>
  <circle cx="52.0" cy="232.0" r="3" fill="#f28e2b"/><circle cx="87.6" cy="231.2" r="3" fill="#f28e2b"/><circle cx="123.2" cy="230.8" r="3" fill="#f28e2b"/><circle cx="158.9" cy="224.2" r="3" fill="#f28e2b"/><circle cx="194.5" cy="230.4" r="3" fill="#f28e2b"/><circle cx="230.1" cy="231.6" r="3" fill="#f28e2b"/><circle cx="265.7" cy="232.0" r="3" fill="#f28e2b"/><circle cx="301.3" cy="231.6" r="3" fill="#f28e2b"/><circle cx="337.0" cy="232.0" r="3" fill="#f28e2b"/><circle cx="372.6" cy="231.2" r="3" fill="#f28e2b"/><circle cx="408.2" cy="208.9" r="3" fill="#f28e2b"/><circle cx="443.8" cy="193.3" r="3" fill="#f28e2b"/><circle cx="479.4" cy="160.9" r="3" fill="#f28e2b"/><circle cx="515.0" cy="221.8" r="3" fill="#f28e2b"/><circle cx="550.7" cy="206.6" r="3" fill="#f28e2b"/><circle cx="586.3" cy="210.5" r="3" fill="#f28e2b"/><circle cx="621.9" cy="230.8" r="3" fill="#f28e2b"/><circle cx="657.5" cy="231.6" r="3" fill="#f28e2b"/><circle cx="693.1" cy="203.5" r="3" fill="#f28e2b"/><circle cx="728.8" cy="228.9" r="3" fill="#f28e2b"/><circle cx="764.4" cy="230.8" r="3" fill="#f28e2b"/><circle cx="800.0" cy="228.9" r="3" fill="#f28e2b"/>

  <!-- axes -->
  <line x1="52" y1="28" x2="52" y2="232"
        stroke="#cccccc" stroke-width="1"/>
  <line x1="52" y1="232" x2="800" y2="232"
        stroke="#cccccc" stroke-width="1"/>

  <!-- y-axis labels -->
  <text x="47" y="236.0" text-anchor="end" font-size="10" fill="#57606a" font-family="ui-monospace, SFMono-Regular, 'SF Mono', Menlo, monospace">0</text><text x="47" y="196.9" text-anchor="end" font-size="10" fill="#57606a" font-family="ui-monospace, SFMono-Regular, 'SF Mono', Menlo, monospace">100</text><text x="47" y="157.8" text-anchor="end" font-size="10" fill="#57606a" font-family="ui-monospace, SFMono-Regular, 'SF Mono', Menlo, monospace">200</text><text x="47" y="118.8" text-anchor="end" font-size="10" fill="#57606a" font-family="ui-monospace, SFMono-Regular, 'SF Mono', Menlo, monospace">300</text><text x="47" y="79.7" text-anchor="end" font-size="10" fill="#57606a" font-family="ui-monospace, SFMono-Regular, 'SF Mono', Menlo, monospace">400</text><text x="47" y="40.6" text-anchor="end" font-size="10" fill="#57606a" font-family="ui-monospace, SFMono-Regular, 'SF Mono', Menlo, monospace">500</text><text x="47" y="1.5" text-anchor="end" font-size="10" fill="#57606a" font-family="ui-monospace, SFMono-Regular, 'SF Mono', Menlo, monospace">600</text>

  <!-- x-axis labels -->
  <text x="52.0" y="248" text-anchor="middle" font-size="10" fill="#8c959f" font-family="ui-monospace, SFMono-Regular, 'SF Mono', Menlo, monospace">05-11</text><text x="123.2" y="248" text-anchor="middle" font-size="10" fill="#8c959f" font-family="ui-monospace, SFMono-Regular, 'SF Mono', Menlo, monospace">05-13</text><text x="194.5" y="248" text-anchor="middle" font-size="10" fill="#8c959f" font-family="ui-monospace, SFMono-Regular, 'SF Mono', Menlo, monospace">05-15</text><text x="265.7" y="248" text-anchor="middle" font-size="10" fill="#8c959f" font-family="ui-monospace, SFMono-Regular, 'SF Mono', Menlo, monospace">05-17</text><text x="337.0" y="248" text-anchor="middle" font-size="10" fill="#8c959f" font-family="ui-monospace, SFMono-Regular, 'SF Mono', Menlo, monospace">05-19</text><text x="408.2" y="248" text-anchor="middle" font-size="10" fill="#8c959f" font-family="ui-monospace, SFMono-Regular, 'SF Mono', Menlo, monospace">05-21</text><text x="479.4" y="248" text-anchor="middle" font-size="10" fill="#8c959f" font-family="ui-monospace, SFMono-Regular, 'SF Mono', Menlo, monospace">05-23</text><text x="550.7" y="248" text-anchor="middle" font-size="10" fill="#8c959f" font-family="ui-monospace, SFMono-Regular, 'SF Mono', Menlo, monospace">05-25</text><text x="621.9" y="248" text-anchor="middle" font-size="10" fill="#8c959f" font-family="ui-monospace, SFMono-Regular, 'SF Mono', Menlo, monospace">05-27</text><text x="693.1" y="248" text-anchor="middle" font-size="10" fill="#8c959f" font-family="ui-monospace, SFMono-Regular, 'SF Mono', Menlo, monospace">05-29</text><text x="764.4" y="248" text-anchor="middle" font-size="10" fill="#8c959f" font-family="ui-monospace, SFMono-Regular, 'SF Mono', Menlo, monospace">05-31</text><text x="800.0" y="248" text-anchor="middle" font-size="10" fill="#8c959f" font-family="ui-monospace, SFMono-Regular, 'SF Mono', Menlo, monospace">06-01</text>

  <!-- legend -->
  <rect x="60" y="262" width="16" height="3" fill="#4e79a7" rx="1"/><text x="80" y="268" font-size="11" fill="#57606a" font-family="-apple-system, BlinkMacSystemFont, 'Segoe UI', sans-serif">Total clones (2,100)</text><line x1="230" y1="264" x2="246" y2="264" stroke="#f28e2b" stroke-width="2" stroke-dasharray="5,3"/><text x="250" y="268" font-size="11" fill="#57606a" font-family="-apple-system, BlinkMacSystemFont, 'Segoe UI', sans-serif">Unique cloners</text>

</svg>