<svg xmlns="http://www.w3.org/2000/svg" viewBox="0 0 820 280" width="820" height="280">

  <!-- title -->
  <text x="52" y="18" font-size="13" font-weight="600"
        fill="#24292f" font-family="-apple-system, BlinkMacSystemFont, 'Segoe UI', sans-serif"
        >Clone traffic — ci-helpers</text>
  <text x="800" y="18" font-size="10" fill="#8c959f"
        font-family="ui-monospace, SFMono-Regular, 'SF Mono', Menlo, monospace" text-anchor="end">2026-05-31</text>

  <!-- grid -->
  <line x1="52" y1="232.0" x2="800" y2="232.0" stroke="#e8e8e8" stroke-width="1"/><line x1="52" y1="192.9" x2="800" y2="192.9" stroke="#e8e8e8" stroke-width="1"/><line x1="52" y1="153.8" x2="800" y2="153.8" stroke="#e8e8e8" stroke-width="1"/><line x1="52" y1="114.8" x2="800" y2="114.8" stroke="#e8e8e8" stroke-width="1"/><line x1="52" y1="75.7" x2="800" y2="75.7" stroke="#e8e8e8" stroke-width="1"/><line x1="52" y1="36.6" x2="800" y2="36.6" stroke="#e8e8e8" stroke-width="1"/><line x1="52" y1="-2.5" x2="800" y2="-2.5" stroke="#e8e8e8" stroke-width="1"/>

  <!-- area fill -->
  <path d="M52.0,232.0 L52.0,232.0 L93.6,231.2 L135.1,230.8 L176.7,213.6 L218.2,230.0 L259.8,231.6 L301.3,232.0 L342.9,229.7 L384.4,232.0 L426.0,231.2 L467.6,28.0 L509.1,148.4 L550.7,47.9 L592.2,183.9 L633.8,142.1 L675.3,170.6 L716.9,230.8 L758.4,221.1 L800.0,163.6 L800.0,232.0 L52.0,232.0Z" fill="#4e79a7" opacity="0.12"/>

  <!-- lines -->
  <polyline points="52.0,232.0 93.6,231.2 135.1,230.8 176.7,213.6 218.2,230.0 259.8,231.6 301.3,232.0 342.9,229.7 384.4,232.0 426.0,231.2 467.6,28.0 509.1,148.4 550.7,47.9 592.2,183.9 633.8,142.1 675.3,170.6 716.9,230.8 758.4,221.1 800.0,163.6"
            fill="none" stroke="#4e79a7"
            stroke-width="2" stroke-linejoin="round"/>
  <polyline points="52.0,232.0 93.6,231.2 135.1,230.8 176.7,224.2 218.2,230.4 259.8,231.6 301.3,232.0 342.9,231.6 384.4,232.0 426.0,231.2 467.6,208.9 509.1,193.3 550.7,160.9 592.2,221.8 633.8,206.6 675.3,210.5 716.9,230.8 758.4,231.6 800.0,203.5"
            fill="none" stroke="#f28e2b"
            stroke-width="2" stroke-linejoin="round"
            stroke-dasharray="5,3"/>

  <!-- dots -->
  <circle cx="52.0" cy="232.0" r="3" fill="#4e79a7"/><circle cx="93.6" cy="231.2" r="3" fill="#4e79a7"/><circle cx="135.1" cy="230.8" r="3" fill="#4e79a7"/><circle cx="176.7" cy="213.6" r="3" fill="#4e79a7"/><circle cx="218.2" cy="230.0" r="3" fill="#4e79a7"/><circle cx="259.8" cy="231.6" r="3" fill="#4e79a7"/><circle cx="301.3" cy="232.0" r="3" fill="#4e79a7"/><circle cx="342.9" cy="229.7" r="3" fill="#4e79a7"/><circle cx="384.4" cy="232.0" r="3" fill="#4e79a7"/><circle cx="426.0" cy="231.2" r="3" fill="#4e79a7"/><circle cx="467.6" cy="28.0" r="3" fill="#4e79a7"/><circle cx="509.1" cy="148.4" r="3" fill="#4e79a7"/><circle cx="550.7" cy="47.9" r="3" fill="#4e79a7"/><circle cx="592.2" cy="183.9" r="3" fill="#4e79a7"/><circle cx="633.8" cy="142.1" r="3" fill="#4e79a7"/><circle cx="675.3" cy="170.6" r="3" fill="#4e79a7"/><circle cx="716.9" cy="230.8" r="3" fill="#4e79a7"/><circle cx="758.4" cy="221.1" r="3" fill="#4e79a7"/><circle cx="800.0" cy="163.6" r="3" fill="#4e79a7"/>
  <circle cx="52.0" cy="232.0" r="3" fill="#f28e2b"/><circle cx="93.6" cy="231.2" r="3" fill="#f28e2b"/><circle cx="135.1" cy="230.8" r="3" fill="#f28e2b"/><circle cx="176.7" cy="224.2" r="3" fill="#f28e2b"/><circle cx="218.2" cy="230.4" r="3" fill="#f28e2b"/><circle cx="259.8" cy="231.6" r="3" fill="#f28e2b"/><circle cx="301.3" cy="232.0" r="3" fill="#f28e2b"/><circle cx="342.9" cy="231.6" r="3" fill="#f28e2b"/><circle cx="384.4" cy="232.0" r="3" fill="#f28e2b"/><circle cx="426.0" cy="231.2" r="3" fill="#f28e2b"/><circle cx="467.6" cy="208.9" r="3" fill="#f28e2b"/><circle cx="509.1" cy="193.3" r="3" fill="#f28e2b"/><circle cx="550.7" cy="160.9" r="3" fill="#f28e2b"/><circle cx="592.2" cy="221.8" r="3" fill="#f28e2b"/><circle cx="633.8" cy="206.6" r="3" fill="#f28e2b"/><circle cx="675.3" cy="210.5" r="3" fill="#f28e2b"/><circle cx="716.9" cy="230.8" r="3" fill="#f28e2b"/><circle cx="758.4" cy="231.6" r="3" fill="#f28e2b"/><circle cx="800.0" cy="203.5" r="3" fill="#f28e2b"/>

  <!-- axes -->
  <line x1="52" y1="28" x2="52" y2="232"
        stroke="#cccccc" stroke-width="1"/>
  <line x1="52" y1="232" x2="800" y2="232"
        stroke="#cccccc" stroke-width="1"/>

  <!-- y-axis labels -->
  <text x="47" y="236.0" text-anchor="end" font-size="10" fill="#57606a" font-family="ui-monospace, SFMono-Regular, 'SF Mono', Menlo, monospace">0</text><text x="47" y="196.9" text-anchor="end" font-size="10" fill="#57606a" font-family="ui-monospace, SFMono-Regular, 'SF Mono', Menlo, monospace">100</text><text x="47" y="157.8" text-anchor="end" font-size="10" fill="#57606a" font-family="ui-monospace, SFMono-Regular, 'SF Mono', Menlo, monospace">200</text><text x="47" y="118.8" text-anchor="end" font-size="10" fill="#57606a" font-family="ui-monospace, SFMono-Regular, 'SF Mono', Menlo, monospace">300</text><text x="47" y="79.7" text-anchor="end" font-size="10" fill="#57606a" font-family="ui-monospace, SFMono-Regular, 'SF Mono', Menlo, monospace">400</text><text x="47" y="40.6" text-anchor="end" font-size="10" fill="#57606a" font-family="ui-monospace, SFMono-Regular, 'SF Mono', Menlo, monospace">500</text><text x="47" y="1.5" text-anchor="end" font-size="10" fill="#57606a" font-family="ui-monospace, SFMono-Regular, 'SF Mono', Menlo, monospace">600</text>

  <!-- x-axis labels -->
  <text x="52.0" y="248" text-anchor="middle" font-size="10" fill="#8c959f" font-family="ui-monospace, SFMono-Regular, 'SF Mono', Menlo, monospace">05-11</text><text x="135.1" y="248" text-anchor="middle" font-size="10" fill="#8c959f" font-family="ui-monospace, SFMono-Regular, 'SF Mono', Menlo, monospace">05-13</text><text x="218.2" y="248" text-anchor="middle" font-size="10" fill="#8c959f" font-family="ui-monospace, SFMono-Regular, 'SF Mono', Menlo, monospace">05-15</text><text x="301.3" y="248" text-anchor="middle" font-size="10" fill="#8c959f" font-family="ui-monospace, SFMono-Regular, 'SF Mono', Menlo, monospace">05-17</text><text x="384.4" y="248" text-anchor="middle" font-size="10" fill="#8c959f" font-family="ui-monospace, SFMono-Regular, 'SF Mono', Menlo, monospace">05-19</text><text x="467.6" y="248" text-anchor="middle" font-size="10" fill="#8c959f" font-family="ui-monospace, SFMono-Regular, 'SF Mono', Menlo, monospace">05-21</text><text x="550.7" y="248" text-anchor="middle" font-size="10" fill="#8c959f" font-family="ui-monospace, SFMono-Regular, 'SF Mono', Menlo, monospace">05-23</text><text x="633.8" y="248" text-anchor="middle" font-size="10" fill="#8c959f" font-family="ui-monospace, SFMono-Regular, 'SF Mono', Menlo, monospace">05-25</text><text x="716.9" y="248" text-anchor="middle" font-size="10" fill="#8c959f" font-family="ui-monospace, SFMono-Regular, 'SF Mono', Menlo, monospace">05-27</text><text x="800.0" y="248" text-anchor="middle" font-size="10" fill="#8c959f" font-family="ui-monospace, SFMono-Regular, 'SF Mono', Menlo, monospace">05-29</text>

  <!-- legend -->
  <rect x="60" y="262" width="16" height="3" fill="#4e79a7" rx="1"/><text x="80" y="268" font-size="11" fill="#57606a" font-family="-apple-system, BlinkMacSystemFont, 'Segoe UI', sans-serif">Total clones (1,989)</text><line x1="230" y1="264" x2="246" y2="264" stroke="#f28e2b" stroke-width="2" stroke-dasharray="5,3"/><text x="250" y="268" font-size="11" fill="#57606a" font-family="-apple-system, BlinkMacSystemFont, 'Segoe UI', sans-serif">Unique cloners</text>

</svg>