<svg xmlns="http://www.w3.org/2000/svg" viewBox="0 0 820 280" width="820" height="280">

  <!-- title -->
  <text x="52" y="18" font-size="13" font-weight="600"
        fill="#24292f" font-family="-apple-system, BlinkMacSystemFont, 'Segoe UI', sans-serif"
        >Clone traffic — ci-helpers</text>
  <text x="800" y="18" font-size="10" fill="#8c959f"
        font-family="ui-monospace, SFMono-Regular, 'SF Mono', Menlo, monospace" text-anchor="end">2026-07-16</text>

  <!-- grid -->
  <line x1="52" y1="232.0" x2="800" y2="232.0" stroke="#e8e8e8" stroke-width="1"/><line x1="52" y1="183.5" x2="800" y2="183.5" stroke="#e8e8e8" stroke-width="1"/><line x1="52" y1="135.1" x2="800" y2="135.1" stroke="#e8e8e8" stroke-width="1"/><line x1="52" y1="86.6" x2="800" y2="86.6" stroke="#e8e8e8" stroke-width="1"/><line x1="52" y1="38.2" x2="800" y2="38.2" stroke="#e8e8e8" stroke-width="1"/><line x1="52" y1="-10.3" x2="800" y2="-10.3" stroke="#e8e8e8" stroke-width="1"/>

  <!-- area fill -->
  <path d="M52.0,232.0 L52.0,232.0 L63.7,231.7 L75.4,231.5 L87.1,224.4 L98.8,231.2 L110.4,231.8 L122.1,232.0 L133.8,231.0 L145.5,232.0 L157.2,231.7 L168.9,147.7 L180.6,197.4 L192.2,155.9 L203.9,212.1 L215.6,194.9 L227.3,206.6 L239.0,231.5 L250.7,227.5 L262.4,203.7 L274.1,225.4 L285.8,231.5 L297.4,221.2 L309.1,231.4 L320.8,231.8 L332.5,208.4 L344.2,230.4 L355.9,230.2 L367.6,232.0 L379.2,227.6 L390.9,227.5 L402.6,205.7 L414.3,207.3 L426.0,142.5 L437.7,174.5 L449.4,214.1 L461.1,28.0 L472.8,221.7 L484.4,198.4 L496.1,225.2 L507.8,196.3 L519.5,230.2 L531.2,231.0 L542.9,47.1 L554.6,222.3 L566.2,224.9 L577.9,231.7 L589.6,232.0 L601.3,232.0 L613.0,193.2 L624.7,221.2 L636.4,230.7 L648.1,231.4 L659.8,231.7 L671.4,231.7 L683.1,231.4 L694.8,231.8 L706.5,219.9 L718.2,227.6 L729.9,231.7 L741.6,231.0 L753.2,231.7 L764.9,231.7 L776.6,232.0 L788.3,224.4 L800.0,230.1 L800.0,232.0 L52.0,232.0Z" fill="#4e79a7" opacity="0.12"/>

  <!-- lines -->
  <polyline points="52.0,232.0 63.7,231.7 75.4,231.5 87.1,224.4 98.8,231.2 110.4,231.8 122.1,232.0 133.8,231.0 145.5,232.0 157.2,231.7 168.9,147.7 180.6,197.4 192.2,155.9 203.9,212.1 215.6,194.9 227.3,206.6 239.0,231.5 250.7,227.5 262.4,203.7 274.1,225.4 285.8,231.5 297.4,221.2 309.1,231.4 320.8,231.8 332.5,208.4 344.2,230.4 355.9,230.2 367.6,232.0 379.2,227.6 390.9,227.5 402.6,205.7 414.3,207.3 426.0,142.5 437.7,174.5 449.4,214.1 461.1,28.0 472.8,221.7 484.4,198.4 496.1,225.2 507.8,196.3 519.5,230.2 531.2,231.0 542.9,47.1 554.6,222.3 566.2,224.9 577.9,231.7 589.6,232.0 601.3,232.0 613.0,193.2 624.7,221.2 636.4,230.7 648.1,231.4 659.8,231.7 671.4,231.7 683.1,231.4 694.8,231.8 706.5,219.9 718.2,227.6 729.9,231.7 741.6,231.0 753.2,231.7 764.9,231.7 776.6,232.0 788.3,224.4 800.0,230.1"
            fill="none" stroke="#4e79a7"
            stroke-width="2" stroke-linejoin="round"/>
  <polyline points="52.0,232.0 63.7,231.7 75.4,231.5 87.1,228.8 98.8,231.4 110.4,231.8 122.1,232.0 133.8,231.8 145.5,232.0 157.2,231.7 168.9,222.5 180.6,216.0 192.2,202.6 203.9,227.8 215.6,221.5 227.3,223.1 239.0,231.5 250.7,231.8 262.4,220.2 274.1,230.7 285.8,231.5 297.4,230.7 309.1,231.5 320.8,231.8 332.5,223.9 344.2,230.7 355.9,231.2 367.6,232.0 379.2,231.2 390.9,230.4 402.6,221.2 414.3,222.1 426.0,207.8 437.7,213.3 449.4,228.9 461.1,209.1 472.8,229.9 484.4,224.4 496.1,230.4 507.8,224.6 519.5,230.9 531.2,231.5 542.9,214.1 554.6,229.1 566.2,230.9 577.9,231.7 589.6,232.0 601.3,232.0 613.0,227.0 624.7,228.3 636.4,231.4 648.1,231.4 659.8,231.7 671.4,231.7 683.1,231.5 694.8,231.8 706.5,230.2 718.2,230.4 729.9,231.7 741.6,231.5 753.2,231.7 764.9,231.7 776.6,232.0 788.3,231.0 800.0,231.5"
            fill="none" stroke="#f28e2b"
            stroke-width="2" stroke-linejoin="round"
            stroke-dasharray="5,3"/>

  <!-- dots -->
  <circle cx="52.0" cy="232.0" r="3" fill="#4e79a7"/><circle cx="63.7" cy="231.7" r="3" fill="#4e79a7"/><circle cx="75.4" cy="231.5" r="3" fill="#4e79a7"/><circle cx="87.1" cy="224.4" r="3" fill="#4e79a7"/><circle cx="98.8" cy="231.2" r="3" fill="#4e79a7"/><circle cx="110.4" cy="231.8" r="3" fill="#4e79a7"/><circle cx="122.1" cy="232.0" r="3" fill="#4e79a7"/><circle cx="133.8" cy="231.0" r="3" fill="#4e79a7"/><circle cx="145.5" cy="232.0" r="3" fill="#4e79a7"/><circle cx="157.2" cy="231.7" r="3" fill="#4e79a7"/><circle cx="168.9" cy="147.7" r="3" fill="#4e79a7"/><circle cx="180.6" cy="197.4" r="3" fill="#4e79a7"/><circle cx="192.2" cy="155.9" r="3" fill="#4e79a7"/><circle cx="203.9" cy="212.1" r="3" fill="#4e79a7"/><circle cx="215.6" cy="194.9" r="3" fill="#4e79a7"/><circle cx="227.3" cy="206.6" r="3" fill="#4e79a7"/><circle cx="239.0" cy="231.5" r="3" fill="#4e79a7"/><circle cx="250.7" cy="227.5" r="3" fill="#4e79a7"/><circle cx="262.4" cy="203.7" r="3" fill="#4e79a7"/><circle cx="274.1" cy="225.4" r="3" fill="#4e79a7"/><circle cx="285.8" cy="231.5" r="3" fill="#4e79a7"/><circle cx="297.4" cy="221.2" r="3" fill="#4e79a7"/><circle cx="309.1" cy="231.4" r="3" fill="#4e79a7"/><circle cx="320.8" cy="231.8" r="3" fill="#4e79a7"/><circle cx="332.5" cy="208.4" r="3" fill="#4e79a7"/><circle cx="344.2" cy="230.4" r="3" fill="#4e79a7"/><circle cx="355.9" cy="230.2" r="3" fill="#4e79a7"/><circle cx="367.6" cy="232.0" r="3" fill="#4e79a7"/><circle cx="379.2" cy="227.6" r="3" fill="#4e79a7"/><circle cx="390.9" cy="227.5" r="3" fill="#4e79a7"/><circle cx="402.6" cy="205.7" r="3" fill="#4e79a7"/><circle cx="414.3" cy="207.3" r="3" fill="#4e79a7"/><circle cx="426.0" cy="142.5" r="3" fill="#4e79a7"/><circle cx="437.7" cy="174.5" r="3" fill="#4e79a7"/><circle cx="449.4" cy="214.1" r="3" fill="#4e79a7"/><circle cx="461.1" cy="28.0" r="3" fill="#4e79a7"/><circle cx="472.8" cy="221.7" r="3" fill="#4e79a7"/><circle cx="484.4" cy="198.4" r="3" fill="#4e79a7"/><circle cx="496.1" cy="225.2" r="3" fill="#4e79a7"/><circle cx="507.8" cy="196.3" r="3" fill="#4e79a7"/><circle cx="519.5" cy="230.2" r="3" fill="#4e79a7"/><circle cx="531.2" cy="231.0" r="3" fill="#4e79a7"/><circle cx="542.9" cy="47.1" r="3" fill="#4e79a7"/><circle cx="554.6" cy="222.3" r="3" fill="#4e79a7"/><circle cx="566.2" cy="224.9" r="3" fill="#4e79a7"/><circle cx="577.9" cy="231.7" r="3" fill="#4e79a7"/><circle cx="589.6" cy="232.0" r="3" fill="#4e79a7"/><circle cx="601.3" cy="232.0" r="3" fill="#4e79a7"/><circle cx="613.0" cy="193.2" r="3" fill="#4e79a7"/><circle cx="624.7" cy="221.2" r="3" fill="#4e79a7"/><circle cx="636.4" cy="230.7" r="3" fill="#4e79a7"/><circle cx="648.1" cy="231.4" r="3" fill="#4e79a7"/><circle cx="659.8" cy="231.7" r="3" fill="#4e79a7"/><circle cx="671.4" cy="231.7" r="3" fill="#4e79a7"/><circle cx="683.1" cy="231.4" r="3" fill="#4e79a7"/><circle cx="694.8" cy="231.8" r="3" fill="#4e79a7"/><circle cx="706.5" cy="219.9" r="3" fill="#4e79a7"/><circle cx="718.2" cy="227.6" r="3" fill="#4e79a7"/><circle cx="729.9" cy="231.7" r="3" fill="#4e79a7"/><circle cx="741.6" cy="231.0" r="3" fill="#4e79a7"/><circle cx="753.2" cy="231.7" r="3" fill="#4e79a7"/><circle cx="764.9" cy="231.7" r="3" fill="#4e79a7"/><circle cx="776.6" cy="232.0" r="3" fill="#4e79a7"/><circle cx="788.3" cy="224.4" r="3" fill="#4e79a7"/><circle cx="800.0" cy="230.1" r="3" fill="#4e79a7"/>
  <circle cx="52.0" cy="232.0" r="3" fill="#f28e2b"/><circle cx="63.7" cy="231.7" r="3" fill="#f28e2b"/><circle cx="75.4" cy="231.5" r="3" fill="#f28e2b"/><circle cx="87.1" cy="228.8" r="3" fill="#f28e2b"/><circle cx="98.8" cy="231.4" r="3" fill="#f28e2b"/><circle cx="110.4" cy="231.8" r="3" fill="#f28e2b"/><circle cx="122.1" cy="232.0" r="3" fill="#f28e2b"/><circle cx="133.8" cy="231.8" r="3" fill="#f28e2b"/><circle cx="145.5" cy="232.0" r="3" fill="#f28e2b"/><circle cx="157.2" cy="231.7" r="3" fill="#f28e2b"/><circle cx="168.9" cy="222.5" r="3" fill="#f28e2b"/><circle cx="180.6" cy="216.0" r="3" fill="#f28e2b"/><circle cx="192.2" cy="202.6" r="3" fill="#f28e2b"/><circle cx="203.9" cy="227.8" r="3" fill="#f28e2b"/><circle cx="215.6" cy="221.5" r="3" fill="#f28e2b"/><circle cx="227.3" cy="223.1" r="3" fill="#f28e2b"/><circle cx="239.0" cy="231.5" r="3" fill="#f28e2b"/><circle cx="250.7" cy="231.8" r="3" fill="#f28e2b"/><circle cx="262.4" cy="220.2" r="3" fill="#f28e2b"/><circle cx="274.1" cy="230.7" r="3" fill="#f28e2b"/><circle cx="285.8" cy="231.5" r="3" fill="#f28e2b"/><circle cx="297.4" cy="230.7" r="3" fill="#f28e2b"/><circle cx="309.1" cy="231.5" r="3" fill="#f28e2b"/><circle cx="320.8" cy="231.8" r="3" fill="#f28e2b"/><circle cx="332.5" cy="223.9" r="3" fill="#f28e2b"/><circle cx="344.2" cy="230.7" r="3" fill="#f28e2b"/><circle cx="355.9" cy="231.2" r="3" fill="#f28e2b"/><circle cx="367.6" cy="232.0" r="3" fill="#f28e2b"/><circle cx="379.2" cy="231.2" r="3" fill="#f28e2b"/><circle cx="390.9" cy="230.4" r="3" fill="#f28e2b"/><circle cx="402.6" cy="221.2" r="3" fill="#f28e2b"/><circle cx="414.3" cy="222.1" r="3" fill="#f28e2b"/><circle cx="426.0" cy="207.8" r="3" fill="#f28e2b"/><circle cx="437.7" cy="213.3" r="3" fill="#f28e2b"/><circle cx="449.4" cy="228.9" r="3" fill="#f28e2b"/><circle cx="461.1" cy="209.1" r="3" fill="#f28e2b"/><circle cx="472.8" cy="229.9" r="3" fill="#f28e2b"/><circle cx="484.4" cy="224.4" r="3" fill="#f28e2b"/><circle cx="496.1" cy="230.4" r="3" fill="#f28e2b"/><circle cx="507.8" cy="224.6" r="3" fill="#f28e2b"/><circle cx="519.5" cy="230.9" r="3" fill="#f28e2b"/><circle cx="531.2" cy="231.5" r="3" fill="#f28e2b"/><circle cx="542.9" cy="214.1" r="3" fill="#f28e2b"/><circle cx="554.6" cy="229.1" r="3" fill="#f28e2b"/><circle cx="566.2" cy="230.9" r="3" fill="#f28e2b"/><circle cx="577.9" cy="231.7" r="3" fill="#f28e2b"/><circle cx="589.6" cy="232.0" r="3" fill="#f28e2b"/><circle cx="601.3" cy="232.0" r="3" fill="#f28e2b"/><circle cx="613.0" cy="227.0" r="3" fill="#f28e2b"/><circle cx="624.7" cy="228.3" r="3" fill="#f28e2b"/><circle cx="636.4" cy="231.4" r="3" fill="#f28e2b"/><circle cx="648.1" cy="231.4" r="3" fill="#f28e2b"/><circle cx="659.8" cy="231.7" r="3" fill="#f28e2b"/><circle cx="671.4" cy="231.7" r="3" fill="#f28e2b"/><circle cx="683.1" cy="231.5" r="3" fill="#f28e2b"/><circle cx="694.8" cy="231.8" r="3" fill="#f28e2b"/><circle cx="706.5" cy="230.2" r="3" fill="#f28e2b"/><circle cx="718.2" cy="230.4" r="3" fill="#f28e2b"/><circle cx="729.9" cy="231.7" r="3" fill="#f28e2b"/><circle cx="741.6" cy="231.5" r="3" fill="#f28e2b"/><circle cx="753.2" cy="231.7" r="3" fill="#f28e2b"/><circle cx="764.9" cy="231.7" r="3" fill="#f28e2b"/><circle cx="776.6" cy="232.0" r="3" fill="#f28e2b"/><circle cx="788.3" cy="231.0" r="3" fill="#f28e2b"/><circle cx="800.0" cy="231.5" r="3" fill="#f28e2b"/>

  <!-- axes -->
  <line x1="52" y1="28" x2="52" y2="232"
        stroke="#cccccc" stroke-width="1"/>
  <line x1="52" y1="232" x2="800" y2="232"
        stroke="#cccccc" stroke-width="1"/>

  <!-- y-axis labels -->
  <text x="47" y="236.0" text-anchor="end" font-size="10" fill="#57606a" font-family="ui-monospace, SFMono-Regular, 'SF Mono', Menlo, monospace">0</text><text x="47" y="187.5" text-anchor="end" font-size="10" fill="#57606a" font-family="ui-monospace, SFMono-Regular, 'SF Mono', Menlo, monospace">300</text><text x="47" y="139.1" text-anchor="end" font-size="10" fill="#57606a" font-family="ui-monospace, SFMono-Regular, 'SF Mono', Menlo, monospace">600</text><text x="47" y="90.6" text-anchor="end" font-size="10" fill="#57606a" font-family="ui-monospace, SFMono-Regular, 'SF Mono', Menlo, monospace">900</text><text x="47" y="42.2" text-anchor="end" font-size="10" fill="#57606a" font-family="ui-monospace, SFMono-Regular, 'SF Mono', Menlo, monospace">1,200</text><text x="47" y="-6.3" text-anchor="end" font-size="10" fill="#57606a" font-family="ui-monospace, SFMono-Regular, 'SF Mono', Menlo, monospace">1,500</text>

  <!-- x-axis labels -->
  <text x="52.0" y="248" text-anchor="middle" font-size="10" fill="#8c959f" font-family="ui-monospace, SFMono-Regular, 'SF Mono', Menlo, monospace">05-11</text><text x="426.0" y="248" text-anchor="middle" font-size="10" fill="#8c959f" font-family="ui-monospace, SFMono-Regular, 'SF Mono', Menlo, monospace">06-12</text><text x="800.0" y="248" text-anchor="middle" font-size="10" fill="#8c959f" font-family="ui-monospace, SFMono-Regular, 'SF Mono', Menlo, monospace">07-14</text><text x="145.5" y="248" text-anchor="middle" font-size="10" fill="#8c959f" font-family="ui-monospace, SFMono-Regular, 'SF Mono', Menlo, monospace">05-19</text><text x="519.5" y="248" text-anchor="middle" font-size="10" fill="#8c959f" font-family="ui-monospace, SFMono-Regular, 'SF Mono', Menlo, monospace">06-20</text><text x="239.0" y="248" text-anchor="middle" font-size="10" fill="#8c959f" font-family="ui-monospace, SFMono-Regular, 'SF Mono', Menlo, monospace">05-27</text><text x="613.0" y="248" text-anchor="middle" font-size="10" fill="#8c959f" font-family="ui-monospace, SFMono-Regular, 'SF Mono', Menlo, monospace">06-28</text><text x="332.5" y="248" text-anchor="middle" font-size="10" fill="#8c959f" font-family="ui-monospace, SFMono-Regular, 'SF Mono', Menlo, monospace">06-04</text><text x="706.5" y="248" text-anchor="middle" font-size="10" fill="#8c959f" font-family="ui-monospace, SFMono-Regular, 'SF Mono', Menlo, monospace">07-06</text>

  <!-- legend -->
  <rect x="60" y="262" width="16" height="3" fill="#4e79a7" rx="1"/><text x="80" y="268" font-size="11" fill="#57606a" font-family="-apple-system, BlinkMacSystemFont, 'Segoe UI', sans-serif">Total clones (7,231)</text><line x1="230" y1="264" x2="246" y2="264" stroke="#f28e2b" stroke-width="2" stroke-dasharray="5,3"/><text x="250" y="268" font-size="11" fill="#57606a" font-family="-apple-system, BlinkMacSystemFont, 'Segoe UI', sans-serif">Unique cloners</text>

</svg>