<svg xmlns="http://www.w3.org/2000/svg" viewBox="0 0 820 280" width="820" height="280">

  <!-- title -->
  <text x="52" y="18" font-size="13" font-weight="600"
        fill="#24292f" font-family="-apple-system, BlinkMacSystemFont, 'Segoe UI', sans-serif"
        >Clone traffic — ci-helpers</text>
  <text x="800" y="18" font-size="10" fill="#8c959f"
        font-family="ui-monospace, SFMono-Regular, 'SF Mono', Menlo, monospace" text-anchor="end">2026-07-17</text>

  <!-- grid -->
  <line x1="52" y1="232.0" x2="800" y2="232.0" stroke="#e8e8e8" stroke-width="1"/><line x1="52" y1="183.5" x2="800" y2="183.5" stroke="#e8e8e8" stroke-width="1"/><line x1="52" y1="135.1" x2="800" y2="135.1" stroke="#e8e8e8" stroke-width="1"/><line x1="52" y1="86.6" x2="800" y2="86.6" stroke="#e8e8e8" stroke-width="1"/><line x1="52" y1="38.2" x2="800" y2="38.2" stroke="#e8e8e8" stroke-width="1"/><line x1="52" y1="-10.3" x2="800" y2="-10.3" stroke="#e8e8e8" stroke-width="1"/>

  <!-- area fill -->
  <path d="M52.0,232.0 L52.0,232.0 L63.5,231.7 L75.0,231.5 L86.5,224.4 L98.0,231.2 L109.5,231.8 L121.0,232.0 L132.6,231.0 L144.1,232.0 L155.6,231.7 L167.1,147.7 L178.6,197.4 L190.1,155.9 L201.6,212.1 L213.1,194.9 L224.6,206.6 L236.1,231.5 L247.6,227.5 L259.1,203.7 L270.6,225.4 L282.2,231.5 L293.7,221.2 L305.2,231.4 L316.7,231.8 L328.2,208.4 L339.7,230.4 L351.2,230.2 L362.7,232.0 L374.2,227.6 L385.7,227.5 L397.2,205.7 L408.7,207.3 L420.2,142.5 L431.8,174.5 L443.3,214.1 L454.8,28.0 L466.3,221.7 L477.8,198.4 L489.3,225.2 L500.8,196.3 L512.3,230.2 L523.8,231.0 L535.3,47.1 L546.8,222.3 L558.3,224.9 L569.8,231.7 L581.4,232.0 L592.9,232.0 L604.4,193.2 L615.9,221.2 L627.4,230.7 L638.9,231.4 L650.4,231.7 L661.9,231.7 L673.4,231.4 L684.9,231.8 L696.4,219.9 L707.9,227.6 L719.4,231.7 L731.0,231.0 L742.5,231.7 L754.0,231.7 L765.5,232.0 L777.0,224.4 L788.5,230.1 L800.0,230.7 L800.0,232.0 L52.0,232.0Z" fill="#4e79a7" opacity="0.12"/>

  <!-- lines -->
  <polyline points="52.0,232.0 63.5,231.7 75.0,231.5 86.5,224.4 98.0,231.2 109.5,231.8 121.0,232.0 132.6,231.0 144.1,232.0 155.6,231.7 167.1,147.7 178.6,197.4 190.1,155.9 201.6,212.1 213.1,194.9 224.6,206.6 236.1,231.5 247.6,227.5 259.1,203.7 270.6,225.4 282.2,231.5 293.7,221.2 305.2,231.4 316.7,231.8 328.2,208.4 339.7,230.4 351.2,230.2 362.7,232.0 374.2,227.6 385.7,227.5 397.2,205.7 408.7,207.3 420.2,142.5 431.8,174.5 443.3,214.1 454.8,28.0 466.3,221.7 477.8,198.4 489.3,225.2 500.8,196.3 512.3,230.2 523.8,231.0 535.3,47.1 546.8,222.3 558.3,224.9 569.8,231.7 581.4,232.0 592.9,232.0 604.4,193.2 615.9,221.2 627.4,230.7 638.9,231.4 650.4,231.7 661.9,231.7 673.4,231.4 684.9,231.8 696.4,219.9 707.9,227.6 719.4,231.7 731.0,231.0 742.5,231.7 754.0,231.7 765.5,232.0 777.0,224.4 788.5,230.1 800.0,230.7"
            fill="none" stroke="#4e79a7"
            stroke-width="2" stroke-linejoin="round"/>
  <polyline points="52.0,232.0 63.5,231.7 75.0,231.5 86.5,228.8 98.0,231.4 109.5,231.8 121.0,232.0 132.6,231.8 144.1,232.0 155.6,231.7 167.1,222.5 178.6,216.0 190.1,202.6 201.6,227.8 213.1,221.5 224.6,223.1 236.1,231.5 247.6,231.8 259.1,220.2 270.6,230.7 282.2,231.5 293.7,230.7 305.2,231.5 316.7,231.8 328.2,223.9 339.7,230.7 351.2,231.2 362.7,232.0 374.2,231.2 385.7,230.4 397.2,221.2 408.7,222.1 420.2,207.8 431.8,213.3 443.3,228.9 454.8,209.1 466.3,229.9 477.8,224.4 489.3,230.4 500.8,224.6 512.3,230.9 523.8,231.5 535.3,214.1 546.8,229.1 558.3,230.9 569.8,231.7 581.4,232.0 592.9,232.0 604.4,227.0 615.9,228.3 627.4,231.4 638.9,231.4 650.4,231.7 661.9,231.7 673.4,231.5 684.9,231.8 696.4,230.2 707.9,230.4 719.4,231.7 731.0,231.5 742.5,231.7 754.0,231.7 765.5,232.0 777.0,231.0 788.5,231.5 800.0,231.7"
            fill="none" stroke="#f28e2b"
            stroke-width="2" stroke-linejoin="round"
            stroke-dasharray="5,3"/>

  <!-- dots -->
  <circle cx="52.0" cy="232.0" r="3" fill="#4e79a7"/><circle cx="63.5" cy="231.7" r="3" fill="#4e79a7"/><circle cx="75.0" cy="231.5" r="3" fill="#4e79a7"/><circle cx="86.5" cy="224.4" r="3" fill="#4e79a7"/><circle cx="98.0" cy="231.2" r="3" fill="#4e79a7"/><circle cx="109.5" cy="231.8" r="3" fill="#4e79a7"/><circle cx="121.0" cy="232.0" r="3" fill="#4e79a7"/><circle cx="132.6" cy="231.0" r="3" fill="#4e79a7"/><circle cx="144.1" cy="232.0" r="3" fill="#4e79a7"/><circle cx="155.6" cy="231.7" r="3" fill="#4e79a7"/><circle cx="167.1" cy="147.7" r="3" fill="#4e79a7"/><circle cx="178.6" cy="197.4" r="3" fill="#4e79a7"/><circle cx="190.1" cy="155.9" r="3" fill="#4e79a7"/><circle cx="201.6" cy="212.1" r="3" fill="#4e79a7"/><circle cx="213.1" cy="194.9" r="3" fill="#4e79a7"/><circle cx="224.6" cy="206.6" r="3" fill="#4e79a7"/><circle cx="236.1" cy="231.5" r="3" fill="#4e79a7"/><circle cx="247.6" cy="227.5" r="3" fill="#4e79a7"/><circle cx="259.1" cy="203.7" r="3" fill="#4e79a7"/><circle cx="270.6" cy="225.4" r="3" fill="#4e79a7"/><circle cx="282.2" cy="231.5" r="3" fill="#4e79a7"/><circle cx="293.7" cy="221.2" r="3" fill="#4e79a7"/><circle cx="305.2" cy="231.4" r="3" fill="#4e79a7"/><circle cx="316.7" cy="231.8" r="3" fill="#4e79a7"/><circle cx="328.2" cy="208.4" r="3" fill="#4e79a7"/><circle cx="339.7" cy="230.4" r="3" fill="#4e79a7"/><circle cx="351.2" cy="230.2" r="3" fill="#4e79a7"/><circle cx="362.7" cy="232.0" r="3" fill="#4e79a7"/><circle cx="374.2" cy="227.6" r="3" fill="#4e79a7"/><circle cx="385.7" cy="227.5" r="3" fill="#4e79a7"/><circle cx="397.2" cy="205.7" r="3" fill="#4e79a7"/><circle cx="408.7" cy="207.3" r="3" fill="#4e79a7"/><circle cx="420.2" cy="142.5" r="3" fill="#4e79a7"/><circle cx="431.8" cy="174.5" r="3" fill="#4e79a7"/><circle cx="443.3" cy="214.1" r="3" fill="#4e79a7"/><circle cx="454.8" cy="28.0" r="3" fill="#4e79a7"/><circle cx="466.3" cy="221.7" r="3" fill="#4e79a7"/><circle cx="477.8" cy="198.4" r="3" fill="#4e79a7"/><circle cx="489.3" cy="225.2" r="3" fill="#4e79a7"/><circle cx="500.8" cy="196.3" r="3" fill="#4e79a7"/><circle cx="512.3" cy="230.2" r="3" fill="#4e79a7"/><circle cx="523.8" cy="231.0" r="3" fill="#4e79a7"/><circle cx="535.3" cy="47.1" r="3" fill="#4e79a7"/><circle cx="546.8" cy="222.3" r="3" fill="#4e79a7"/><circle cx="558.3" cy="224.9" r="3" fill="#4e79a7"/><circle cx="569.8" cy="231.7" r="3" fill="#4e79a7"/><circle cx="581.4" cy="232.0" r="3" fill="#4e79a7"/><circle cx="592.9" cy="232.0" r="3" fill="#4e79a7"/><circle cx="604.4" cy="193.2" r="3" fill="#4e79a7"/><circle cx="615.9" cy="221.2" r="3" fill="#4e79a7"/><circle cx="627.4" cy="230.7" r="3" fill="#4e79a7"/><circle cx="638.9" cy="231.4" r="3" fill="#4e79a7"/><circle cx="650.4" cy="231.7" r="3" fill="#4e79a7"/><circle cx="661.9" cy="231.7" r="3" fill="#4e79a7"/><circle cx="673.4" cy="231.4" r="3" fill="#4e79a7"/><circle cx="684.9" cy="231.8" r="3" fill="#4e79a7"/><circle cx="696.4" cy="219.9" r="3" fill="#4e79a7"/><circle cx="707.9" cy="227.6" r="3" fill="#4e79a7"/><circle cx="719.4" cy="231.7" r="3" fill="#4e79a7"/><circle cx="731.0" cy="231.0" r="3" fill="#4e79a7"/><circle cx="742.5" cy="231.7" r="3" fill="#4e79a7"/><circle cx="754.0" cy="231.7" r="3" fill="#4e79a7"/><circle cx="765.5" cy="232.0" r="3" fill="#4e79a7"/><circle cx="777.0" cy="224.4" r="3" fill="#4e79a7"/><circle cx="788.5" cy="230.1" r="3" fill="#4e79a7"/><circle cx="800.0" cy="230.7" r="3" fill="#4e79a7"/>
  <circle cx="52.0" cy="232.0" r="3" fill="#f28e2b"/><circle cx="63.5" cy="231.7" r="3" fill="#f28e2b"/><circle cx="75.0" cy="231.5" r="3" fill="#f28e2b"/><circle cx="86.5" cy="228.8" r="3" fill="#f28e2b"/><circle cx="98.0" cy="231.4" r="3" fill="#f28e2b"/><circle cx="109.5" cy="231.8" r="3" fill="#f28e2b"/><circle cx="121.0" cy="232.0" r="3" fill="#f28e2b"/><circle cx="132.6" cy="231.8" r="3" fill="#f28e2b"/><circle cx="144.1" cy="232.0" r="3" fill="#f28e2b"/><circle cx="155.6" cy="231.7" r="3" fill="#f28e2b"/><circle cx="167.1" cy="222.5" r="3" fill="#f28e2b"/><circle cx="178.6" cy="216.0" r="3" fill="#f28e2b"/><circle cx="190.1" cy="202.6" r="3" fill="#f28e2b"/><circle cx="201.6" cy="227.8" r="3" fill="#f28e2b"/><circle cx="213.1" cy="221.5" r="3" fill="#f28e2b"/><circle cx="224.6" cy="223.1" r="3" fill="#f28e2b"/><circle cx="236.1" cy="231.5" r="3" fill="#f28e2b"/><circle cx="247.6" cy="231.8" r="3" fill="#f28e2b"/><circle cx="259.1" cy="220.2" r="3" fill="#f28e2b"/><circle cx="270.6" cy="230.7" r="3" fill="#f28e2b"/><circle cx="282.2" cy="231.5" r="3" fill="#f28e2b"/><circle cx="293.7" cy="230.7" r="3" fill="#f28e2b"/><circle cx="305.2" cy="231.5" r="3" fill="#f28e2b"/><circle cx="316.7" cy="231.8" r="3" fill="#f28e2b"/><circle cx="328.2" cy="223.9" r="3" fill="#f28e2b"/><circle cx="339.7" cy="230.7" r="3" fill="#f28e2b"/><circle cx="351.2" cy="231.2" r="3" fill="#f28e2b"/><circle cx="362.7" cy="232.0" r="3" fill="#f28e2b"/><circle cx="374.2" cy="231.2" r="3" fill="#f28e2b"/><circle cx="385.7" cy="230.4" r="3" fill="#f28e2b"/><circle cx="397.2" cy="221.2" r="3" fill="#f28e2b"/><circle cx="408.7" cy="222.1" r="3" fill="#f28e2b"/><circle cx="420.2" cy="207.8" r="3" fill="#f28e2b"/><circle cx="431.8" cy="213.3" r="3" fill="#f28e2b"/><circle cx="443.3" cy="228.9" r="3" fill="#f28e2b"/><circle cx="454.8" cy="209.1" r="3" fill="#f28e2b"/><circle cx="466.3" cy="229.9" r="3" fill="#f28e2b"/><circle cx="477.8" cy="224.4" r="3" fill="#f28e2b"/><circle cx="489.3" cy="230.4" r="3" fill="#f28e2b"/><circle cx="500.8" cy="224.6" r="3" fill="#f28e2b"/><circle cx="512.3" cy="230.9" r="3" fill="#f28e2b"/><circle cx="523.8" cy="231.5" r="3" fill="#f28e2b"/><circle cx="535.3" cy="214.1" r="3" fill="#f28e2b"/><circle cx="546.8" cy="229.1" r="3" fill="#f28e2b"/><circle cx="558.3" cy="230.9" r="3" fill="#f28e2b"/><circle cx="569.8" cy="231.7" r="3" fill="#f28e2b"/><circle cx="581.4" cy="232.0" r="3" fill="#f28e2b"/><circle cx="592.9" cy="232.0" r="3" fill="#f28e2b"/><circle cx="604.4" cy="227.0" r="3" fill="#f28e2b"/><circle cx="615.9" cy="228.3" r="3" fill="#f28e2b"/><circle cx="627.4" cy="231.4" r="3" fill="#f28e2b"/><circle cx="638.9" cy="231.4" r="3" fill="#f28e2b"/><circle cx="650.4" cy="231.7" r="3" fill="#f28e2b"/><circle cx="661.9" cy="231.7" r="3" fill="#f28e2b"/><circle cx="673.4" cy="231.5" r="3" fill="#f28e2b"/><circle cx="684.9" cy="231.8" r="3" fill="#f28e2b"/><circle cx="696.4" cy="230.2" r="3" fill="#f28e2b"/><circle cx="707.9" cy="230.4" r="3" fill="#f28e2b"/><circle cx="719.4" cy="231.7" r="3" fill="#f28e2b"/><circle cx="731.0" cy="231.5" r="3" fill="#f28e2b"/><circle cx="742.5" cy="231.7" r="3" fill="#f28e2b"/><circle cx="754.0" cy="231.7" r="3" fill="#f28e2b"/><circle cx="765.5" cy="232.0" r="3" fill="#f28e2b"/><circle cx="777.0" cy="231.0" r="3" fill="#f28e2b"/><circle cx="788.5" cy="231.5" r="3" fill="#f28e2b"/><circle cx="800.0" cy="231.7" r="3" fill="#f28e2b"/>

  <!-- axes -->
  <line x1="52" y1="28" x2="52" y2="232"
        stroke="#cccccc" stroke-width="1"/>
  <line x1="52" y1="232" x2="800" y2="232"
        stroke="#cccccc" stroke-width="1"/>

  <!-- y-axis labels -->
  <text x="47" y="236.0" text-anchor="end" font-size="10" fill="#57606a" font-family="ui-monospace, SFMono-Regular, 'SF Mono', Menlo, monospace">0</text><text x="47" y="187.5" text-anchor="end" font-size="10" fill="#57606a" font-family="ui-monospace, SFMono-Regular, 'SF Mono', Menlo, monospace">300</text><text x="47" y="139.1" text-anchor="end" font-size="10" fill="#57606a" font-family="ui-monospace, SFMono-Regular, 'SF Mono', Menlo, monospace">600</text><text x="47" y="90.6" text-anchor="end" font-size="10" fill="#57606a" font-family="ui-monospace, SFMono-Regular, 'SF Mono', Menlo, monospace">900</text><text x="47" y="42.2" text-anchor="end" font-size="10" fill="#57606a" font-family="ui-monospace, SFMono-Regular, 'SF Mono', Menlo, monospace">1,200</text><text x="47" y="-6.3" text-anchor="end" font-size="10" fill="#57606a" font-family="ui-monospace, SFMono-Regular, 'SF Mono', Menlo, monospace">1,500</text>

  <!-- x-axis labels -->
  <text x="52.0" y="248" text-anchor="middle" font-size="10" fill="#8c959f" font-family="ui-monospace, SFMono-Regular, 'SF Mono', Menlo, monospace">05-11</text><text x="420.2" y="248" text-anchor="middle" font-size="10" fill="#8c959f" font-family="ui-monospace, SFMono-Regular, 'SF Mono', Menlo, monospace">06-12</text><text x="788.5" y="248" text-anchor="middle" font-size="10" fill="#8c959f" font-family="ui-monospace, SFMono-Regular, 'SF Mono', Menlo, monospace">07-14</text><text x="800.0" y="248" text-anchor="middle" font-size="10" fill="#8c959f" font-family="ui-monospace, SFMono-Regular, 'SF Mono', Menlo, monospace">07-15</text><text x="144.1" y="248" text-anchor="middle" font-size="10" fill="#8c959f" font-family="ui-monospace, SFMono-Regular, 'SF Mono', Menlo, monospace">05-19</text><text x="512.3" y="248" text-anchor="middle" font-size="10" fill="#8c959f" font-family="ui-monospace, SFMono-Regular, 'SF Mono', Menlo, monospace">06-20</text><text x="236.1" y="248" text-anchor="middle" font-size="10" fill="#8c959f" font-family="ui-monospace, SFMono-Regular, 'SF Mono', Menlo, monospace">05-27</text><text x="604.4" y="248" text-anchor="middle" font-size="10" fill="#8c959f" font-family="ui-monospace, SFMono-Regular, 'SF Mono', Menlo, monospace">06-28</text><text x="328.2" y="248" text-anchor="middle" font-size="10" fill="#8c959f" font-family="ui-monospace, SFMono-Regular, 'SF Mono', Menlo, monospace">06-04</text><text x="696.4" y="248" text-anchor="middle" font-size="10" fill="#8c959f" font-family="ui-monospace, SFMono-Regular, 'SF Mono', Menlo, monospace">07-06</text>

  <!-- legend -->
  <rect x="60" y="262" width="16" height="3" fill="#4e79a7" rx="1"/><text x="80" y="268" font-size="11" fill="#57606a" font-family="-apple-system, BlinkMacSystemFont, 'Segoe UI', sans-serif">Total clones (7,239)</text><line x1="230" y1="264" x2="246" y2="264" stroke="#f28e2b" stroke-width="2" stroke-dasharray="5,3"/><text x="250" y="268" font-size="11" fill="#57606a" font-family="-apple-system, BlinkMacSystemFont, 'Segoe UI', sans-serif">Unique cloners</text>

</svg>