<svg xmlns="http://www.w3.org/2000/svg" viewBox="0 0 820 280" width="820" height="280">

  <!-- title -->
  <text x="52" y="18" font-size="13" font-weight="600"
        fill="#24292f" font-family="-apple-system, BlinkMacSystemFont, 'Segoe UI', sans-serif"
        >Clone traffic — ci-helpers</text>
  <text x="800" y="18" font-size="10" fill="#8c959f"
        font-family="ui-monospace, SFMono-Regular, 'SF Mono', Menlo, monospace" text-anchor="end">2026-06-29</text>

  <!-- grid -->
  <line x1="52" y1="232.0" x2="800" y2="232.0" stroke="#e8e8e8" stroke-width="1"/><line x1="52" y1="183.5" x2="800" y2="183.5" stroke="#e8e8e8" stroke-width="1"/><line x1="52" y1="135.1" x2="800" y2="135.1" stroke="#e8e8e8" stroke-width="1"/><line x1="52" y1="86.6" x2="800" y2="86.6" stroke="#e8e8e8" stroke-width="1"/><line x1="52" y1="38.2" x2="800" y2="38.2" stroke="#e8e8e8" stroke-width="1"/><line x1="52" y1="-10.3" x2="800" y2="-10.3" stroke="#e8e8e8" stroke-width="1"/>

  <!-- area fill -->
  <path d="M52.0,232.0 L52.0,232.0 L67.9,231.7 L83.8,231.5 L99.7,224.4 L115.7,231.2 L131.6,231.8 L147.5,232.0 L163.4,231.0 L179.3,232.0 L195.2,231.7 L211.1,147.7 L227.1,197.4 L243.0,155.9 L258.9,212.1 L274.8,194.9 L290.7,206.6 L306.6,231.5 L322.6,227.5 L338.5,203.7 L354.4,225.4 L370.3,231.5 L386.2,221.2 L402.1,231.4 L418.0,231.8 L434.0,208.4 L449.9,230.4 L465.8,230.2 L481.7,232.0 L497.6,227.6 L513.5,227.5 L529.4,205.7 L545.4,207.3 L561.3,142.5 L577.2,174.5 L593.1,214.1 L609.0,28.0 L624.9,221.7 L640.9,198.4 L656.8,225.2 L672.7,196.3 L688.6,230.2 L704.5,231.0 L720.4,47.1 L736.3,222.3 L752.3,224.9 L768.2,231.7 L784.1,232.0 L800.0,232.0 L800.0,232.0 L52.0,232.0Z" fill="#4e79a7" opacity="0.12"/>

  <!-- lines -->
  <polyline points="52.0,232.0 67.9,231.7 83.8,231.5 99.7,224.4 115.7,231.2 131.6,231.8 147.5,232.0 163.4,231.0 179.3,232.0 195.2,231.7 211.1,147.7 227.1,197.4 243.0,155.9 258.9,212.1 274.8,194.9 290.7,206.6 306.6,231.5 322.6,227.5 338.5,203.7 354.4,225.4 370.3,231.5 386.2,221.2 402.1,231.4 418.0,231.8 434.0,208.4 449.9,230.4 465.8,230.2 481.7,232.0 497.6,227.6 513.5,227.5 529.4,205.7 545.4,207.3 561.3,142.5 577.2,174.5 593.1,214.1 609.0,28.0 624.9,221.7 640.9,198.4 656.8,225.2 672.7,196.3 688.6,230.2 704.5,231.0 720.4,47.1 736.3,222.3 752.3,224.9 768.2,231.7 784.1,232.0 800.0,232.0"
            fill="none" stroke="#4e79a7"
            stroke-width="2" stroke-linejoin="round"/>
  <polyline points="52.0,232.0 67.9,231.7 83.8,231.5 99.7,228.8 115.7,231.4 131.6,231.8 147.5,232.0 163.4,231.8 179.3,232.0 195.2,231.7 211.1,222.5 227.1,216.0 243.0,202.6 258.9,227.8 274.8,221.5 290.7,223.1 306.6,231.5 322.6,231.8 338.5,220.2 354.4,230.7 370.3,231.5 386.2,230.7 402.1,231.5 418.0,231.8 434.0,223.9 449.9,230.7 465.8,231.2 481.7,232.0 497.6,231.2 513.5,230.4 529.4,221.2 545.4,222.1 561.3,207.8 577.2,213.3 593.1,228.9 609.0,209.1 624.9,229.9 640.9,224.4 656.8,230.4 672.7,224.6 688.6,230.9 704.5,231.5 720.4,214.1 736.3,229.1 752.3,230.9 768.2,231.7 784.1,232.0 800.0,232.0"
            fill="none" stroke="#f28e2b"
            stroke-width="2" stroke-linejoin="round"
            stroke-dasharray="5,3"/>

  <!-- dots -->
  <circle cx="52.0" cy="232.0" r="3" fill="#4e79a7"/><circle cx="67.9" cy="231.7" r="3" fill="#4e79a7"/><circle cx="83.8" cy="231.5" r="3" fill="#4e79a7"/><circle cx="99.7" cy="224.4" r="3" fill="#4e79a7"/><circle cx="115.7" cy="231.2" r="3" fill="#4e79a7"/><circle cx="131.6" cy="231.8" r="3" fill="#4e79a7"/><circle cx="147.5" cy="232.0" r="3" fill="#4e79a7"/><circle cx="163.4" cy="231.0" r="3" fill="#4e79a7"/><circle cx="179.3" cy="232.0" r="3" fill="#4e79a7"/><circle cx="195.2" cy="231.7" r="3" fill="#4e79a7"/><circle cx="211.1" cy="147.7" r="3" fill="#4e79a7"/><circle cx="227.1" cy="197.4" r="3" fill="#4e79a7"/><circle cx="243.0" cy="155.9" r="3" fill="#4e79a7"/><circle cx="258.9" cy="212.1" r="3" fill="#4e79a7"/><circle cx="274.8" cy="194.9" r="3" fill="#4e79a7"/><circle cx="290.7" cy="206.6" r="3" fill="#4e79a7"/><circle cx="306.6" cy="231.5" r="3" fill="#4e79a7"/><circle cx="322.6" cy="227.5" r="3" fill="#4e79a7"/><circle cx="338.5" cy="203.7" r="3" fill="#4e79a7"/><circle cx="354.4" cy="225.4" r="3" fill="#4e79a7"/><circle cx="370.3" cy="231.5" r="3" fill="#4e79a7"/><circle cx="386.2" cy="221.2" r="3" fill="#4e79a7"/><circle cx="402.1" cy="231.4" r="3" fill="#4e79a7"/><circle cx="418.0" cy="231.8" r="3" fill="#4e79a7"/><circle cx="434.0" cy="208.4" r="3" fill="#4e79a7"/><circle cx="449.9" cy="230.4" r="3" fill="#4e79a7"/><circle cx="465.8" cy="230.2" r="3" fill="#4e79a7"/><circle cx="481.7" cy="232.0" r="3" fill="#4e79a7"/><circle cx="497.6" cy="227.6" r="3" fill="#4e79a7"/><circle cx="513.5" cy="227.5" r="3" fill="#4e79a7"/><circle cx="529.4" cy="205.7" r="3" fill="#4e79a7"/><circle cx="545.4" cy="207.3" r="3" fill="#4e79a7"/><circle cx="561.3" cy="142.5" r="3" fill="#4e79a7"/><circle cx="577.2" cy="174.5" r="3" fill="#4e79a7"/><circle cx="593.1" cy="214.1" r="3" fill="#4e79a7"/><circle cx="609.0" cy="28.0" r="3" fill="#4e79a7"/><circle cx="624.9" cy="221.7" r="3" fill="#4e79a7"/><circle cx="640.9" cy="198.4" r="3" fill="#4e79a7"/><circle cx="656.8" cy="225.2" r="3" fill="#4e79a7"/><circle cx="672.7" cy="196.3" r="3" fill="#4e79a7"/><circle cx="688.6" cy="230.2" r="3" fill="#4e79a7"/><circle cx="704.5" cy="231.0" r="3" fill="#4e79a7"/><circle cx="720.4" cy="47.1" r="3" fill="#4e79a7"/><circle cx="736.3" cy="222.3" r="3" fill="#4e79a7"/><circle cx="752.3" cy="224.9" r="3" fill="#4e79a7"/><circle cx="768.2" cy="231.7" r="3" fill="#4e79a7"/><circle cx="784.1" cy="232.0" r="3" fill="#4e79a7"/><circle cx="800.0" cy="232.0" r="3" fill="#4e79a7"/>
  <circle cx="52.0" cy="232.0" r="3" fill="#f28e2b"/><circle cx="67.9" cy="231.7" r="3" fill="#f28e2b"/><circle cx="83.8" cy="231.5" r="3" fill="#f28e2b"/><circle cx="99.7" cy="228.8" r="3" fill="#f28e2b"/><circle cx="115.7" cy="231.4" r="3" fill="#f28e2b"/><circle cx="131.6" cy="231.8" r="3" fill="#f28e2b"/><circle cx="147.5" cy="232.0" r="3" fill="#f28e2b"/><circle cx="163.4" cy="231.8" r="3" fill="#f28e2b"/><circle cx="179.3" cy="232.0" r="3" fill="#f28e2b"/><circle cx="195.2" cy="231.7" r="3" fill="#f28e2b"/><circle cx="211.1" cy="222.5" r="3" fill="#f28e2b"/><circle cx="227.1" cy="216.0" r="3" fill="#f28e2b"/><circle cx="243.0" cy="202.6" r="3" fill="#f28e2b"/><circle cx="258.9" cy="227.8" r="3" fill="#f28e2b"/><circle cx="274.8" cy="221.5" r="3" fill="#f28e2b"/><circle cx="290.7" cy="223.1" r="3" fill="#f28e2b"/><circle cx="306.6" cy="231.5" r="3" fill="#f28e2b"/><circle cx="322.6" cy="231.8" r="3" fill="#f28e2b"/><circle cx="338.5" cy="220.2" r="3" fill="#f28e2b"/><circle cx="354.4" cy="230.7" r="3" fill="#f28e2b"/><circle cx="370.3" cy="231.5" r="3" fill="#f28e2b"/><circle cx="386.2" cy="230.7" r="3" fill="#f28e2b"/><circle cx="402.1" cy="231.5" r="3" fill="#f28e2b"/><circle cx="418.0" cy="231.8" r="3" fill="#f28e2b"/><circle cx="434.0" cy="223.9" r="3" fill="#f28e2b"/><circle cx="449.9" cy="230.7" r="3" fill="#f28e2b"/><circle cx="465.8" cy="231.2" r="3" fill="#f28e2b"/><circle cx="481.7" cy="232.0" r="3" fill="#f28e2b"/><circle cx="497.6" cy="231.2" r="3" fill="#f28e2b"/><circle cx="513.5" cy="230.4" r="3" fill="#f28e2b"/><circle cx="529.4" cy="221.2" r="3" fill="#f28e2b"/><circle cx="545.4" cy="222.1" r="3" fill="#f28e2b"/><circle cx="561.3" cy="207.8" r="3" fill="#f28e2b"/><circle cx="577.2" cy="213.3" r="3" fill="#f28e2b"/><circle cx="593.1" cy="228.9" r="3" fill="#f28e2b"/><circle cx="609.0" cy="209.1" r="3" fill="#f28e2b"/><circle cx="624.9" cy="229.9" r="3" fill="#f28e2b"/><circle cx="640.9" cy="224.4" r="3" fill="#f28e2b"/><circle cx="656.8" cy="230.4" r="3" fill="#f28e2b"/><circle cx="672.7" cy="224.6" r="3" fill="#f28e2b"/><circle cx="688.6" cy="230.9" r="3" fill="#f28e2b"/><circle cx="704.5" cy="231.5" r="3" fill="#f28e2b"/><circle cx="720.4" cy="214.1" r="3" fill="#f28e2b"/><circle cx="736.3" cy="229.1" r="3" fill="#f28e2b"/><circle cx="752.3" cy="230.9" r="3" fill="#f28e2b"/><circle cx="768.2" cy="231.7" r="3" fill="#f28e2b"/><circle cx="784.1" cy="232.0" r="3" fill="#f28e2b"/><circle cx="800.0" cy="232.0" r="3" fill="#f28e2b"/>

  <!-- axes -->
  <line x1="52" y1="28" x2="52" y2="232"
        stroke="#cccccc" stroke-width="1"/>
  <line x1="52" y1="232" x2="800" y2="232"
        stroke="#cccccc" stroke-width="1"/>

  <!-- y-axis labels -->
  <text x="47" y="236.0" text-anchor="end" font-size="10" fill="#57606a" font-family="ui-monospace, SFMono-Regular, 'SF Mono', Menlo, monospace">0</text><text x="47" y="187.5" text-anchor="end" font-size="10" fill="#57606a" font-family="ui-monospace, SFMono-Regular, 'SF Mono', Menlo, monospace">300</text><text x="47" y="139.1" text-anchor="end" font-size="10" fill="#57606a" font-family="ui-monospace, SFMono-Regular, 'SF Mono', Menlo, monospace">600</text><text x="47" y="90.6" text-anchor="end" font-size="10" fill="#57606a" font-family="ui-monospace, SFMono-Regular, 'SF Mono', Menlo, monospace">900</text><text x="47" y="42.2" text-anchor="end" font-size="10" fill="#57606a" font-family="ui-monospace, SFMono-Regular, 'SF Mono', Menlo, monospace">1,200</text><text x="47" y="-6.3" text-anchor="end" font-size="10" fill="#57606a" font-family="ui-monospace, SFMono-Regular, 'SF Mono', Menlo, monospace">1,500</text>

  <!-- x-axis labels -->
  <text x="52.0" y="248" text-anchor="middle" font-size="10" fill="#8c959f" font-family="ui-monospace, SFMono-Regular, 'SF Mono', Menlo, monospace">05-11</text><text x="624.9" y="248" text-anchor="middle" font-size="10" fill="#8c959f" font-family="ui-monospace, SFMono-Regular, 'SF Mono', Menlo, monospace">06-16</text><text x="147.5" y="248" text-anchor="middle" font-size="10" fill="#8c959f" font-family="ui-monospace, SFMono-Regular, 'SF Mono', Menlo, monospace">05-17</text><text x="720.4" y="248" text-anchor="middle" font-size="10" fill="#8c959f" font-family="ui-monospace, SFMono-Regular, 'SF Mono', Menlo, monospace">06-22</text><text x="243.0" y="248" text-anchor="middle" font-size="10" fill="#8c959f" font-family="ui-monospace, SFMono-Regular, 'SF Mono', Menlo, monospace">05-23</text><text x="800.0" y="248" text-anchor="middle" font-size="10" fill="#8c959f" font-family="ui-monospace, SFMono-Regular, 'SF Mono', Menlo, monospace">06-27</text><text x="338.5" y="248" text-anchor="middle" font-size="10" fill="#8c959f" font-family="ui-monospace, SFMono-Regular, 'SF Mono', Menlo, monospace">05-29</text><text x="434.0" y="248" text-anchor="middle" font-size="10" fill="#8c959f" font-family="ui-monospace, SFMono-Regular, 'SF Mono', Menlo, monospace">06-04</text><text x="529.4" y="248" text-anchor="middle" font-size="10" fill="#8c959f" font-family="ui-monospace, SFMono-Regular, 'SF Mono', Menlo, monospace">06-10</text>

  <!-- legend -->
  <rect x="60" y="262" width="16" height="3" fill="#4e79a7" rx="1"/><text x="80" y="268" font-size="11" fill="#57606a" font-family="-apple-system, BlinkMacSystemFont, 'Segoe UI', sans-serif">Total clones (6,730)</text><line x1="230" y1="264" x2="246" y2="264" stroke="#f28e2b" stroke-width="2" stroke-dasharray="5,3"/><text x="250" y="268" font-size="11" fill="#57606a" font-family="-apple-system, BlinkMacSystemFont, 'Segoe UI', sans-serif">Unique cloners</text>

</svg>