<svg xmlns="http://www.w3.org/2000/svg" viewBox="0 0 820 280" width="820" height="280">

  <!-- title -->
  <text x="52" y="18" font-size="13" font-weight="600"
        fill="#24292f" font-family="-apple-system, BlinkMacSystemFont, 'Segoe UI', sans-serif"
        >Clone traffic — ci-helpers</text>
  <text x="800" y="18" font-size="10" fill="#8c959f"
        font-family="ui-monospace, SFMono-Regular, 'SF Mono', Menlo, monospace" text-anchor="end">2026-06-25</text>

  <!-- grid -->
  <line x1="52" y1="232.0" x2="800" y2="232.0" stroke="#e8e8e8" stroke-width="1"/><line x1="52" y1="183.5" x2="800" y2="183.5" stroke="#e8e8e8" stroke-width="1"/><line x1="52" y1="135.1" x2="800" y2="135.1" stroke="#e8e8e8" stroke-width="1"/><line x1="52" y1="86.6" x2="800" y2="86.6" stroke="#e8e8e8" stroke-width="1"/><line x1="52" y1="38.2" x2="800" y2="38.2" stroke="#e8e8e8" stroke-width="1"/><line x1="52" y1="-10.3" x2="800" y2="-10.3" stroke="#e8e8e8" stroke-width="1"/>

  <!-- area fill -->
  <path d="M52.0,232.0 L52.0,232.0 L69.4,231.7 L86.8,231.5 L104.2,224.4 L121.6,231.2 L139.0,231.8 L156.4,232.0 L173.8,231.0 L191.2,232.0 L208.6,231.7 L226.0,147.7 L243.3,197.4 L260.7,155.9 L278.1,212.1 L295.5,194.9 L312.9,206.6 L330.3,231.5 L347.7,227.5 L365.1,203.7 L382.5,225.4 L399.9,231.5 L417.3,221.2 L434.7,231.4 L452.1,231.8 L469.5,208.4 L486.9,230.4 L504.3,230.2 L521.7,232.0 L539.1,227.6 L556.5,227.5 L573.9,205.7 L591.3,207.3 L608.7,142.5 L626.0,174.5 L643.4,214.1 L660.8,28.0 L678.2,221.7 L695.6,198.4 L713.0,225.2 L730.4,196.3 L747.8,230.2 L765.2,231.0 L782.6,47.1 L800.0,222.3 L800.0,232.0 L52.0,232.0Z" fill="#4e79a7" opacity="0.12"/>

  <!-- lines -->
  <polyline points="52.0,232.0 69.4,231.7 86.8,231.5 104.2,224.4 121.6,231.2 139.0,231.8 156.4,232.0 173.8,231.0 191.2,232.0 208.6,231.7 226.0,147.7 243.3,197.4 260.7,155.9 278.1,212.1 295.5,194.9 312.9,206.6 330.3,231.5 347.7,227.5 365.1,203.7 382.5,225.4 399.9,231.5 417.3,221.2 434.7,231.4 452.1,231.8 469.5,208.4 486.9,230.4 504.3,230.2 521.7,232.0 539.1,227.6 556.5,227.5 573.9,205.7 591.3,207.3 608.7,142.5 626.0,174.5 643.4,214.1 660.8,28.0 678.2,221.7 695.6,198.4 713.0,225.2 730.4,196.3 747.8,230.2 765.2,231.0 782.6,47.1 800.0,222.3"
            fill="none" stroke="#4e79a7"
            stroke-width="2" stroke-linejoin="round"/>
  <polyline points="52.0,232.0 69.4,231.7 86.8,231.5 104.2,228.8 121.6,231.4 139.0,231.8 156.4,232.0 173.8,231.8 191.2,232.0 208.6,231.7 226.0,222.5 243.3,216.0 260.7,202.6 278.1,227.8 295.5,221.5 312.9,223.1 330.3,231.5 347.7,231.8 365.1,220.2 382.5,230.7 399.9,231.5 417.3,230.7 434.7,231.5 452.1,231.8 469.5,223.9 486.9,230.7 504.3,231.2 521.7,232.0 539.1,231.2 556.5,230.4 573.9,221.2 591.3,222.1 608.7,207.8 626.0,213.3 643.4,228.9 660.8,209.1 678.2,229.9 695.6,224.4 713.0,230.4 730.4,224.6 747.8,230.9 765.2,231.5 782.6,214.1 800.0,229.1"
            fill="none" stroke="#f28e2b"
            stroke-width="2" stroke-linejoin="round"
            stroke-dasharray="5,3"/>

  <!-- dots -->
  <circle cx="52.0" cy="232.0" r="3" fill="#4e79a7"/><circle cx="69.4" cy="231.7" r="3" fill="#4e79a7"/><circle cx="86.8" cy="231.5" r="3" fill="#4e79a7"/><circle cx="104.2" cy="224.4" r="3" fill="#4e79a7"/><circle cx="121.6" cy="231.2" r="3" fill="#4e79a7"/><circle cx="139.0" cy="231.8" r="3" fill="#4e79a7"/><circle cx="156.4" cy="232.0" r="3" fill="#4e79a7"/><circle cx="173.8" cy="231.0" r="3" fill="#4e79a7"/><circle cx="191.2" cy="232.0" r="3" fill="#4e79a7"/><circle cx="208.6" cy="231.7" r="3" fill="#4e79a7"/><circle cx="226.0" cy="147.7" r="3" fill="#4e79a7"/><circle cx="243.3" cy="197.4" r="3" fill="#4e79a7"/><circle cx="260.7" cy="155.9" r="3" fill="#4e79a7"/><circle cx="278.1" cy="212.1" r="3" fill="#4e79a7"/><circle cx="295.5" cy="194.9" r="3" fill="#4e79a7"/><circle cx="312.9" cy="206.6" r="3" fill="#4e79a7"/><circle cx="330.3" cy="231.5" r="3" fill="#4e79a7"/><circle cx="347.7" cy="227.5" r="3" fill="#4e79a7"/><circle cx="365.1" cy="203.7" r="3" fill="#4e79a7"/><circle cx="382.5" cy="225.4" r="3" fill="#4e79a7"/><circle cx="399.9" cy="231.5" r="3" fill="#4e79a7"/><circle cx="417.3" cy="221.2" r="3" fill="#4e79a7"/><circle cx="434.7" cy="231.4" r="3" fill="#4e79a7"/><circle cx="452.1" cy="231.8" r="3" fill="#4e79a7"/><circle cx="469.5" cy="208.4" r="3" fill="#4e79a7"/><circle cx="486.9" cy="230.4" r="3" fill="#4e79a7"/><circle cx="504.3" cy="230.2" r="3" fill="#4e79a7"/><circle cx="521.7" cy="232.0" r="3" fill="#4e79a7"/><circle cx="539.1" cy="227.6" r="3" fill="#4e79a7"/><circle cx="556.5" cy="227.5" r="3" fill="#4e79a7"/><circle cx="573.9" cy="205.7" r="3" fill="#4e79a7"/><circle cx="591.3" cy="207.3" r="3" fill="#4e79a7"/><circle cx="608.7" cy="142.5" r="3" fill="#4e79a7"/><circle cx="626.0" cy="174.5" r="3" fill="#4e79a7"/><circle cx="643.4" cy="214.1" r="3" fill="#4e79a7"/><circle cx="660.8" cy="28.0" r="3" fill="#4e79a7"/><circle cx="678.2" cy="221.7" r="3" fill="#4e79a7"/><circle cx="695.6" cy="198.4" r="3" fill="#4e79a7"/><circle cx="713.0" cy="225.2" r="3" fill="#4e79a7"/><circle cx="730.4" cy="196.3" r="3" fill="#4e79a7"/><circle cx="747.8" cy="230.2" r="3" fill="#4e79a7"/><circle cx="765.2" cy="231.0" r="3" fill="#4e79a7"/><circle cx="782.6" cy="47.1" r="3" fill="#4e79a7"/><circle cx="800.0" cy="222.3" r="3" fill="#4e79a7"/>
  <circle cx="52.0" cy="232.0" r="3" fill="#f28e2b"/><circle cx="69.4" cy="231.7" r="3" fill="#f28e2b"/><circle cx="86.8" cy="231.5" r="3" fill="#f28e2b"/><circle cx="104.2" cy="228.8" r="3" fill="#f28e2b"/><circle cx="121.6" cy="231.4" r="3" fill="#f28e2b"/><circle cx="139.0" cy="231.8" r="3" fill="#f28e2b"/><circle cx="156.4" cy="232.0" r="3" fill="#f28e2b"/><circle cx="173.8" cy="231.8" r="3" fill="#f28e2b"/><circle cx="191.2" cy="232.0" r="3" fill="#f28e2b"/><circle cx="208.6" cy="231.7" r="3" fill="#f28e2b"/><circle cx="226.0" cy="222.5" r="3" fill="#f28e2b"/><circle cx="243.3" cy="216.0" r="3" fill="#f28e2b"/><circle cx="260.7" cy="202.6" r="3" fill="#f28e2b"/><circle cx="278.1" cy="227.8" r="3" fill="#f28e2b"/><circle cx="295.5" cy="221.5" r="3" fill="#f28e2b"/><circle cx="312.9" cy="223.1" r="3" fill="#f28e2b"/><circle cx="330.3" cy="231.5" r="3" fill="#f28e2b"/><circle cx="347.7" cy="231.8" r="3" fill="#f28e2b"/><circle cx="365.1" cy="220.2" r="3" fill="#f28e2b"/><circle cx="382.5" cy="230.7" r="3" fill="#f28e2b"/><circle cx="399.9" cy="231.5" r="3" fill="#f28e2b"/><circle cx="417.3" cy="230.7" r="3" fill="#f28e2b"/><circle cx="434.7" cy="231.5" r="3" fill="#f28e2b"/><circle cx="452.1" cy="231.8" r="3" fill="#f28e2b"/><circle cx="469.5" cy="223.9" r="3" fill="#f28e2b"/><circle cx="486.9" cy="230.7" r="3" fill="#f28e2b"/><circle cx="504.3" cy="231.2" r="3" fill="#f28e2b"/><circle cx="521.7" cy="232.0" r="3" fill="#f28e2b"/><circle cx="539.1" cy="231.2" r="3" fill="#f28e2b"/><circle cx="556.5" cy="230.4" r="3" fill="#f28e2b"/><circle cx="573.9" cy="221.2" r="3" fill="#f28e2b"/><circle cx="591.3" cy="222.1" r="3" fill="#f28e2b"/><circle cx="608.7" cy="207.8" r="3" fill="#f28e2b"/><circle cx="626.0" cy="213.3" r="3" fill="#f28e2b"/><circle cx="643.4" cy="228.9" r="3" fill="#f28e2b"/><circle cx="660.8" cy="209.1" r="3" fill="#f28e2b"/><circle cx="678.2" cy="229.9" r="3" fill="#f28e2b"/><circle cx="695.6" cy="224.4" r="3" fill="#f28e2b"/><circle cx="713.0" cy="230.4" r="3" fill="#f28e2b"/><circle cx="730.4" cy="224.6" r="3" fill="#f28e2b"/><circle cx="747.8" cy="230.9" r="3" fill="#f28e2b"/><circle cx="765.2" cy="231.5" r="3" fill="#f28e2b"/><circle cx="782.6" cy="214.1" r="3" fill="#f28e2b"/><circle cx="800.0" cy="229.1" r="3" fill="#f28e2b"/>

  <!-- axes -->
  <line x1="52" y1="28" x2="52" y2="232"
        stroke="#cccccc" stroke-width="1"/>
  <line x1="52" y1="232" x2="800" y2="232"
        stroke="#cccccc" stroke-width="1"/>

  <!-- y-axis labels -->
  <text x="47" y="236.0" text-anchor="end" font-size="10" fill="#57606a" font-family="ui-monospace, SFMono-Regular, 'SF Mono', Menlo, monospace">0</text><text x="47" y="187.5" text-anchor="end" font-size="10" fill="#57606a" font-family="ui-monospace, SFMono-Regular, 'SF Mono', Menlo, monospace">300</text><text x="47" y="139.1" text-anchor="end" font-size="10" fill="#57606a" font-family="ui-monospace, SFMono-Regular, 'SF Mono', Menlo, monospace">600</text><text x="47" y="90.6" text-anchor="end" font-size="10" fill="#57606a" font-family="ui-monospace, SFMono-Regular, 'SF Mono', Menlo, monospace">900</text><text x="47" y="42.2" text-anchor="end" font-size="10" fill="#57606a" font-family="ui-monospace, SFMono-Regular, 'SF Mono', Menlo, monospace">1,200</text><text x="47" y="-6.3" text-anchor="end" font-size="10" fill="#57606a" font-family="ui-monospace, SFMono-Regular, 'SF Mono', Menlo, monospace">1,500</text>

  <!-- x-axis labels -->
  <text x="52.0" y="248" text-anchor="middle" font-size="10" fill="#8c959f" font-family="ui-monospace, SFMono-Regular, 'SF Mono', Menlo, monospace">05-11</text><text x="660.8" y="248" text-anchor="middle" font-size="10" fill="#8c959f" font-family="ui-monospace, SFMono-Regular, 'SF Mono', Menlo, monospace">06-15</text><text x="139.0" y="248" text-anchor="middle" font-size="10" fill="#8c959f" font-family="ui-monospace, SFMono-Regular, 'SF Mono', Menlo, monospace">05-16</text><text x="747.8" y="248" text-anchor="middle" font-size="10" fill="#8c959f" font-family="ui-monospace, SFMono-Regular, 'SF Mono', Menlo, monospace">06-20</text><text x="226.0" y="248" text-anchor="middle" font-size="10" fill="#8c959f" font-family="ui-monospace, SFMono-Regular, 'SF Mono', Menlo, monospace">05-21</text><text x="800.0" y="248" text-anchor="middle" font-size="10" fill="#8c959f" font-family="ui-monospace, SFMono-Regular, 'SF Mono', Menlo, monospace">06-23</text><text x="312.9" y="248" text-anchor="middle" font-size="10" fill="#8c959f" font-family="ui-monospace, SFMono-Regular, 'SF Mono', Menlo, monospace">05-26</text><text x="399.9" y="248" text-anchor="middle" font-size="10" fill="#8c959f" font-family="ui-monospace, SFMono-Regular, 'SF Mono', Menlo, monospace">05-31</text><text x="486.9" y="248" text-anchor="middle" font-size="10" fill="#8c959f" font-family="ui-monospace, SFMono-Regular, 'SF Mono', Menlo, monospace">06-05</text><text x="573.9" y="248" text-anchor="middle" font-size="10" fill="#8c959f" font-family="ui-monospace, SFMono-Regular, 'SF Mono', Menlo, monospace">06-10</text>

  <!-- legend -->
  <rect x="60" y="262" width="16" height="3" fill="#4e79a7" rx="1"/><text x="80" y="268" font-size="11" fill="#57606a" font-family="-apple-system, BlinkMacSystemFont, 'Segoe UI', sans-serif">Total clones (6,684)</text><line x1="230" y1="264" x2="246" y2="264" stroke="#f28e2b" stroke-width="2" stroke-dasharray="5,3"/><text x="250" y="268" font-size="11" fill="#57606a" font-family="-apple-system, BlinkMacSystemFont, 'Segoe UI', sans-serif">Unique cloners</text>

</svg>