<svg xmlns="http://www.w3.org/2000/svg" viewBox="0 0 820 280" width="820" height="280">

  <!-- title -->
  <text x="52" y="18" font-size="13" font-weight="600"
        fill="#24292f" font-family="-apple-system, BlinkMacSystemFont, 'Segoe UI', sans-serif"
        >Clone traffic — ci-helpers</text>
  <text x="800" y="18" font-size="10" fill="#8c959f"
        font-family="ui-monospace, SFMono-Regular, 'SF Mono', Menlo, monospace" text-anchor="end">2026-06-28</text>

  <!-- grid -->
  <line x1="52" y1="232.0" x2="800" y2="232.0" stroke="#e8e8e8" stroke-width="1"/><line x1="52" y1="183.5" x2="800" y2="183.5" stroke="#e8e8e8" stroke-width="1"/><line x1="52" y1="135.1" x2="800" y2="135.1" stroke="#e8e8e8" stroke-width="1"/><line x1="52" y1="86.6" x2="800" y2="86.6" stroke="#e8e8e8" stroke-width="1"/><line x1="52" y1="38.2" x2="800" y2="38.2" stroke="#e8e8e8" stroke-width="1"/><line x1="52" y1="-10.3" x2="800" y2="-10.3" stroke="#e8e8e8" stroke-width="1"/>

  <!-- area fill -->
  <path d="M52.0,232.0 L52.0,232.0 L68.3,231.7 L84.5,231.5 L100.8,224.4 L117.0,231.2 L133.3,231.8 L149.6,232.0 L165.8,231.0 L182.1,232.0 L198.3,231.7 L214.6,147.7 L230.9,197.4 L247.1,155.9 L263.4,212.1 L279.7,194.9 L295.9,206.6 L312.2,231.5 L328.4,227.5 L344.7,203.7 L361.0,225.4 L377.2,231.5 L393.5,221.2 L409.7,231.4 L426.0,231.8 L442.3,208.4 L458.5,230.4 L474.8,230.2 L491.0,232.0 L507.3,227.6 L523.6,227.5 L539.8,205.7 L556.1,207.3 L572.3,142.5 L588.6,174.5 L604.9,214.1 L621.1,28.0 L637.4,221.7 L653.7,198.4 L669.9,225.2 L686.2,196.3 L702.4,230.2 L718.7,231.0 L735.0,47.1 L751.2,222.3 L767.5,224.9 L783.7,231.7 L800.0,232.0 L800.0,232.0 L52.0,232.0Z" fill="#4e79a7" opacity="0.12"/>

  <!-- lines -->
  <polyline points="52.0,232.0 68.3,231.7 84.5,231.5 100.8,224.4 117.0,231.2 133.3,231.8 149.6,232.0 165.8,231.0 182.1,232.0 198.3,231.7 214.6,147.7 230.9,197.4 247.1,155.9 263.4,212.1 279.7,194.9 295.9,206.6 312.2,231.5 328.4,227.5 344.7,203.7 361.0,225.4 377.2,231.5 393.5,221.2 409.7,231.4 426.0,231.8 442.3,208.4 458.5,230.4 474.8,230.2 491.0,232.0 507.3,227.6 523.6,227.5 539.8,205.7 556.1,207.3 572.3,142.5 588.6,174.5 604.9,214.1 621.1,28.0 637.4,221.7 653.7,198.4 669.9,225.2 686.2,196.3 702.4,230.2 718.7,231.0 735.0,47.1 751.2,222.3 767.5,224.9 783.7,231.7 800.0,232.0"
            fill="none" stroke="#4e79a7"
            stroke-width="2" stroke-linejoin="round"/>
  <polyline points="52.0,232.0 68.3,231.7 84.5,231.5 100.8,228.8 117.0,231.4 133.3,231.8 149.6,232.0 165.8,231.8 182.1,232.0 198.3,231.7 214.6,222.5 230.9,216.0 247.1,202.6 263.4,227.8 279.7,221.5 295.9,223.1 312.2,231.5 328.4,231.8 344.7,220.2 361.0,230.7 377.2,231.5 393.5,230.7 409.7,231.5 426.0,231.8 442.3,223.9 458.5,230.7 474.8,231.2 491.0,232.0 507.3,231.2 523.6,230.4 539.8,221.2 556.1,222.1 572.3,207.8 588.6,213.3 604.9,228.9 621.1,209.1 637.4,229.9 653.7,224.4 669.9,230.4 686.2,224.6 702.4,230.9 718.7,231.5 735.0,214.1 751.2,229.1 767.5,230.9 783.7,231.7 800.0,232.0"
            fill="none" stroke="#f28e2b"
            stroke-width="2" stroke-linejoin="round"
            stroke-dasharray="5,3"/>

  <!-- dots -->
  <circle cx="52.0" cy="232.0" r="3" fill="#4e79a7"/><circle cx="68.3" cy="231.7" r="3" fill="#4e79a7"/><circle cx="84.5" cy="231.5" r="3" fill="#4e79a7"/><circle cx="100.8" cy="224.4" r="3" fill="#4e79a7"/><circle cx="117.0" cy="231.2" r="3" fill="#4e79a7"/><circle cx="133.3" cy="231.8" r="3" fill="#4e79a7"/><circle cx="149.6" cy="232.0" r="3" fill="#4e79a7"/><circle cx="165.8" cy="231.0" r="3" fill="#4e79a7"/><circle cx="182.1" cy="232.0" r="3" fill="#4e79a7"/><circle cx="198.3" cy="231.7" r="3" fill="#4e79a7"/><circle cx="214.6" cy="147.7" r="3" fill="#4e79a7"/><circle cx="230.9" cy="197.4" r="3" fill="#4e79a7"/><circle cx="247.1" cy="155.9" r="3" fill="#4e79a7"/><circle cx="263.4" cy="212.1" r="3" fill="#4e79a7"/><circle cx="279.7" cy="194.9" r="3" fill="#4e79a7"/><circle cx="295.9" cy="206.6" r="3" fill="#4e79a7"/><circle cx="312.2" cy="231.5" r="3" fill="#4e79a7"/><circle cx="328.4" cy="227.5" r="3" fill="#4e79a7"/><circle cx="344.7" cy="203.7" r="3" fill="#4e79a7"/><circle cx="361.0" cy="225.4" r="3" fill="#4e79a7"/><circle cx="377.2" cy="231.5" r="3" fill="#4e79a7"/><circle cx="393.5" cy="221.2" r="3" fill="#4e79a7"/><circle cx="409.7" cy="231.4" r="3" fill="#4e79a7"/><circle cx="426.0" cy="231.8" r="3" fill="#4e79a7"/><circle cx="442.3" cy="208.4" r="3" fill="#4e79a7"/><circle cx="458.5" cy="230.4" r="3" fill="#4e79a7"/><circle cx="474.8" cy="230.2" r="3" fill="#4e79a7"/><circle cx="491.0" cy="232.0" r="3" fill="#4e79a7"/><circle cx="507.3" cy="227.6" r="3" fill="#4e79a7"/><circle cx="523.6" cy="227.5" r="3" fill="#4e79a7"/><circle cx="539.8" cy="205.7" r="3" fill="#4e79a7"/><circle cx="556.1" cy="207.3" r="3" fill="#4e79a7"/><circle cx="572.3" cy="142.5" r="3" fill="#4e79a7"/><circle cx="588.6" cy="174.5" r="3" fill="#4e79a7"/><circle cx="604.9" cy="214.1" r="3" fill="#4e79a7"/><circle cx="621.1" cy="28.0" r="3" fill="#4e79a7"/><circle cx="637.4" cy="221.7" r="3" fill="#4e79a7"/><circle cx="653.7" cy="198.4" r="3" fill="#4e79a7"/><circle cx="669.9" cy="225.2" r="3" fill="#4e79a7"/><circle cx="686.2" cy="196.3" r="3" fill="#4e79a7"/><circle cx="702.4" cy="230.2" r="3" fill="#4e79a7"/><circle cx="718.7" cy="231.0" r="3" fill="#4e79a7"/><circle cx="735.0" cy="47.1" r="3" fill="#4e79a7"/><circle cx="751.2" cy="222.3" r="3" fill="#4e79a7"/><circle cx="767.5" cy="224.9" r="3" fill="#4e79a7"/><circle cx="783.7" cy="231.7" r="3" fill="#4e79a7"/><circle cx="800.0" cy="232.0" r="3" fill="#4e79a7"/>
  <circle cx="52.0" cy="232.0" r="3" fill="#f28e2b"/><circle cx="68.3" cy="231.7" r="3" fill="#f28e2b"/><circle cx="84.5" cy="231.5" r="3" fill="#f28e2b"/><circle cx="100.8" cy="228.8" r="3" fill="#f28e2b"/><circle cx="117.0" cy="231.4" r="3" fill="#f28e2b"/><circle cx="133.3" cy="231.8" r="3" fill="#f28e2b"/><circle cx="149.6" cy="232.0" r="3" fill="#f28e2b"/><circle cx="165.8" cy="231.8" r="3" fill="#f28e2b"/><circle cx="182.1" cy="232.0" r="3" fill="#f28e2b"/><circle cx="198.3" cy="231.7" r="3" fill="#f28e2b"/><circle cx="214.6" cy="222.5" r="3" fill="#f28e2b"/><circle cx="230.9" cy="216.0" r="3" fill="#f28e2b"/><circle cx="247.1" cy="202.6" r="3" fill="#f28e2b"/><circle cx="263.4" cy="227.8" r="3" fill="#f28e2b"/><circle cx="279.7" cy="221.5" r="3" fill="#f28e2b"/><circle cx="295.9" cy="223.1" r="3" fill="#f28e2b"/><circle cx="312.2" cy="231.5" r="3" fill="#f28e2b"/><circle cx="328.4" cy="231.8" r="3" fill="#f28e2b"/><circle cx="344.7" cy="220.2" r="3" fill="#f28e2b"/><circle cx="361.0" cy="230.7" r="3" fill="#f28e2b"/><circle cx="377.2" cy="231.5" r="3" fill="#f28e2b"/><circle cx="393.5" cy="230.7" r="3" fill="#f28e2b"/><circle cx="409.7" cy="231.5" r="3" fill="#f28e2b"/><circle cx="426.0" cy="231.8" r="3" fill="#f28e2b"/><circle cx="442.3" cy="223.9" r="3" fill="#f28e2b"/><circle cx="458.5" cy="230.7" r="3" fill="#f28e2b"/><circle cx="474.8" cy="231.2" r="3" fill="#f28e2b"/><circle cx="491.0" cy="232.0" r="3" fill="#f28e2b"/><circle cx="507.3" cy="231.2" r="3" fill="#f28e2b"/><circle cx="523.6" cy="230.4" r="3" fill="#f28e2b"/><circle cx="539.8" cy="221.2" r="3" fill="#f28e2b"/><circle cx="556.1" cy="222.1" r="3" fill="#f28e2b"/><circle cx="572.3" cy="207.8" r="3" fill="#f28e2b"/><circle cx="588.6" cy="213.3" r="3" fill="#f28e2b"/><circle cx="604.9" cy="228.9" r="3" fill="#f28e2b"/><circle cx="621.1" cy="209.1" r="3" fill="#f28e2b"/><circle cx="637.4" cy="229.9" r="3" fill="#f28e2b"/><circle cx="653.7" cy="224.4" r="3" fill="#f28e2b"/><circle cx="669.9" cy="230.4" r="3" fill="#f28e2b"/><circle cx="686.2" cy="224.6" r="3" fill="#f28e2b"/><circle cx="702.4" cy="230.9" r="3" fill="#f28e2b"/><circle cx="718.7" cy="231.5" r="3" fill="#f28e2b"/><circle cx="735.0" cy="214.1" r="3" fill="#f28e2b"/><circle cx="751.2" cy="229.1" r="3" fill="#f28e2b"/><circle cx="767.5" cy="230.9" r="3" fill="#f28e2b"/><circle cx="783.7" cy="231.7" r="3" fill="#f28e2b"/><circle cx="800.0" cy="232.0" r="3" fill="#f28e2b"/>

  <!-- axes -->
  <line x1="52" y1="28" x2="52" y2="232"
        stroke="#cccccc" stroke-width="1"/>
  <line x1="52" y1="232" x2="800" y2="232"
        stroke="#cccccc" stroke-width="1"/>

  <!-- y-axis labels -->
  <text x="47" y="236.0" text-anchor="end" font-size="10" fill="#57606a" font-family="ui-monospace, SFMono-Regular, 'SF Mono', Menlo, monospace">0</text><text x="47" y="187.5" text-anchor="end" font-size="10" fill="#57606a" font-family="ui-monospace, SFMono-Regular, 'SF Mono', Menlo, monospace">300</text><text x="47" y="139.1" text-anchor="end" font-size="10" fill="#57606a" font-family="ui-monospace, SFMono-Regular, 'SF Mono', Menlo, monospace">600</text><text x="47" y="90.6" text-anchor="end" font-size="10" fill="#57606a" font-family="ui-monospace, SFMono-Regular, 'SF Mono', Menlo, monospace">900</text><text x="47" y="42.2" text-anchor="end" font-size="10" fill="#57606a" font-family="ui-monospace, SFMono-Regular, 'SF Mono', Menlo, monospace">1,200</text><text x="47" y="-6.3" text-anchor="end" font-size="10" fill="#57606a" font-family="ui-monospace, SFMono-Regular, 'SF Mono', Menlo, monospace">1,500</text>

  <!-- x-axis labels -->
  <text x="52.0" y="248" text-anchor="middle" font-size="10" fill="#8c959f" font-family="ui-monospace, SFMono-Regular, 'SF Mono', Menlo, monospace">05-11</text><text x="621.1" y="248" text-anchor="middle" font-size="10" fill="#8c959f" font-family="ui-monospace, SFMono-Regular, 'SF Mono', Menlo, monospace">06-15</text><text x="133.3" y="248" text-anchor="middle" font-size="10" fill="#8c959f" font-family="ui-monospace, SFMono-Regular, 'SF Mono', Menlo, monospace">05-16</text><text x="702.4" y="248" text-anchor="middle" font-size="10" fill="#8c959f" font-family="ui-monospace, SFMono-Regular, 'SF Mono', Menlo, monospace">06-20</text><text x="214.6" y="248" text-anchor="middle" font-size="10" fill="#8c959f" font-family="ui-monospace, SFMono-Regular, 'SF Mono', Menlo, monospace">05-21</text><text x="783.7" y="248" text-anchor="middle" font-size="10" fill="#8c959f" font-family="ui-monospace, SFMono-Regular, 'SF Mono', Menlo, monospace">06-25</text><text x="800.0" y="248" text-anchor="middle" font-size="10" fill="#8c959f" font-family="ui-monospace, SFMono-Regular, 'SF Mono', Menlo, monospace">06-26</text><text x="295.9" y="248" text-anchor="middle" font-size="10" fill="#8c959f" font-family="ui-monospace, SFMono-Regular, 'SF Mono', Menlo, monospace">05-26</text><text x="377.2" y="248" text-anchor="middle" font-size="10" fill="#8c959f" font-family="ui-monospace, SFMono-Regular, 'SF Mono', Menlo, monospace">05-31</text><text x="458.5" y="248" text-anchor="middle" font-size="10" fill="#8c959f" font-family="ui-monospace, SFMono-Regular, 'SF Mono', Menlo, monospace">06-05</text><text x="539.8" y="248" text-anchor="middle" font-size="10" fill="#8c959f" font-family="ui-monospace, SFMono-Regular, 'SF Mono', Menlo, monospace">06-10</text>

  <!-- legend -->
  <rect x="60" y="262" width="16" height="3" fill="#4e79a7" rx="1"/><text x="80" y="268" font-size="11" fill="#57606a" font-family="-apple-system, BlinkMacSystemFont, 'Segoe UI', sans-serif">Total clones (6,730)</text><line x1="230" y1="264" x2="246" y2="264" stroke="#f28e2b" stroke-width="2" stroke-dasharray="5,3"/><text x="250" y="268" font-size="11" fill="#57606a" font-family="-apple-system, BlinkMacSystemFont, 'Segoe UI', sans-serif">Unique cloners</text>

</svg>