<svg xmlns="http://www.w3.org/2000/svg" viewBox="0 0 820 280" width="820" height="280">

  <!-- title -->
  <text x="52" y="18" font-size="13" font-weight="600"
        fill="#24292f" font-family="-apple-system, BlinkMacSystemFont, 'Segoe UI', sans-serif"
        >Clone traffic — ci-helpers</text>
  <text x="800" y="18" font-size="10" fill="#8c959f"
        font-family="ui-monospace, SFMono-Regular, 'SF Mono', Menlo, monospace" text-anchor="end">2026-07-12</text>

  <!-- grid -->
  <line x1="52" y1="232.0" x2="800" y2="232.0" stroke="#e8e8e8" stroke-width="1"/><line x1="52" y1="183.5" x2="800" y2="183.5" stroke="#e8e8e8" stroke-width="1"/><line x1="52" y1="135.1" x2="800" y2="135.1" stroke="#e8e8e8" stroke-width="1"/><line x1="52" y1="86.6" x2="800" y2="86.6" stroke="#e8e8e8" stroke-width="1"/><line x1="52" y1="38.2" x2="800" y2="38.2" stroke="#e8e8e8" stroke-width="1"/><line x1="52" y1="-10.3" x2="800" y2="-10.3" stroke="#e8e8e8" stroke-width="1"/>

  <!-- area fill -->
  <path d="M52.0,232.0 L52.0,232.0 L64.5,231.7 L76.9,231.5 L89.4,224.4 L101.9,231.2 L114.3,231.8 L126.8,232.0 L139.3,231.0 L151.7,232.0 L164.2,231.7 L176.7,147.7 L189.1,197.4 L201.6,155.9 L214.1,212.1 L226.5,194.9 L239.0,206.6 L251.5,231.5 L263.9,227.5 L276.4,203.7 L288.9,225.4 L301.3,231.5 L313.8,221.2 L326.3,231.4 L338.7,231.8 L351.2,208.4 L363.7,230.4 L376.1,230.2 L388.6,232.0 L401.1,227.6 L413.5,227.5 L426.0,205.7 L438.5,207.3 L450.9,142.5 L463.4,174.5 L475.9,214.1 L488.3,28.0 L500.8,221.7 L513.3,198.4 L525.7,225.2 L538.2,196.3 L550.7,230.2 L563.1,231.0 L575.6,47.1 L588.1,222.3 L600.5,224.9 L613.0,231.7 L625.5,232.0 L637.9,232.0 L650.4,193.2 L662.9,221.2 L675.3,230.7 L687.8,231.4 L700.3,231.7 L712.7,231.7 L725.2,231.4 L737.7,231.8 L750.1,219.9 L762.6,227.6 L775.1,231.7 L787.5,231.0 L800.0,231.7 L800.0,232.0 L52.0,232.0Z" fill="#4e79a7" opacity="0.12"/>

  <!-- lines -->
  <polyline points="52.0,232.0 64.5,231.7 76.9,231.5 89.4,224.4 101.9,231.2 114.3,231.8 126.8,232.0 139.3,231.0 151.7,232.0 164.2,231.7 176.7,147.7 189.1,197.4 201.6,155.9 214.1,212.1 226.5,194.9 239.0,206.6 251.5,231.5 263.9,227.5 276.4,203.7 288.9,225.4 301.3,231.5 313.8,221.2 326.3,231.4 338.7,231.8 351.2,208.4 363.7,230.4 376.1,230.2 388.6,232.0 401.1,227.6 413.5,227.5 426.0,205.7 438.5,207.3 450.9,142.5 463.4,174.5 475.9,214.1 488.3,28.0 500.8,221.7 513.3,198.4 525.7,225.2 538.2,196.3 550.7,230.2 563.1,231.0 575.6,47.1 588.1,222.3 600.5,224.9 613.0,231.7 625.5,232.0 637.9,232.0 650.4,193.2 662.9,221.2 675.3,230.7 687.8,231.4 700.3,231.7 712.7,231.7 725.2,231.4 737.7,231.8 750.1,219.9 762.6,227.6 775.1,231.7 787.5,231.0 800.0,231.7"
            fill="none" stroke="#4e79a7"
            stroke-width="2" stroke-linejoin="round"/>
  <polyline points="52.0,232.0 64.5,231.7 76.9,231.5 89.4,228.8 101.9,231.4 114.3,231.8 126.8,232.0 139.3,231.8 151.7,232.0 164.2,231.7 176.7,222.5 189.1,216.0 201.6,202.6 214.1,227.8 226.5,221.5 239.0,223.1 251.5,231.5 263.9,231.8 276.4,220.2 288.9,230.7 301.3,231.5 313.8,230.7 326.3,231.5 338.7,231.8 351.2,223.9 363.7,230.7 376.1,231.2 388.6,232.0 401.1,231.2 413.5,230.4 426.0,221.2 438.5,222.1 450.9,207.8 463.4,213.3 475.9,228.9 488.3,209.1 500.8,229.9 513.3,224.4 525.7,230.4 538.2,224.6 550.7,230.9 563.1,231.5 575.6,214.1 588.1,229.1 600.5,230.9 613.0,231.7 625.5,232.0 637.9,232.0 650.4,227.0 662.9,228.3 675.3,231.4 687.8,231.4 700.3,231.7 712.7,231.7 725.2,231.5 737.7,231.8 750.1,230.2 762.6,230.4 775.1,231.7 787.5,231.5 800.0,231.7"
            fill="none" stroke="#f28e2b"
            stroke-width="2" stroke-linejoin="round"
            stroke-dasharray="5,3"/>

  <!-- dots -->
  <circle cx="52.0" cy="232.0" r="3" fill="#4e79a7"/><circle cx="64.5" cy="231.7" r="3" fill="#4e79a7"/><circle cx="76.9" cy="231.5" r="3" fill="#4e79a7"/><circle cx="89.4" cy="224.4" r="3" fill="#4e79a7"/><circle cx="101.9" cy="231.2" r="3" fill="#4e79a7"/><circle cx="114.3" cy="231.8" r="3" fill="#4e79a7"/><circle cx="126.8" cy="232.0" r="3" fill="#4e79a7"/><circle cx="139.3" cy="231.0" r="3" fill="#4e79a7"/><circle cx="151.7" cy="232.0" r="3" fill="#4e79a7"/><circle cx="164.2" cy="231.7" r="3" fill="#4e79a7"/><circle cx="176.7" cy="147.7" r="3" fill="#4e79a7"/><circle cx="189.1" cy="197.4" r="3" fill="#4e79a7"/><circle cx="201.6" cy="155.9" r="3" fill="#4e79a7"/><circle cx="214.1" cy="212.1" r="3" fill="#4e79a7"/><circle cx="226.5" cy="194.9" r="3" fill="#4e79a7"/><circle cx="239.0" cy="206.6" r="3" fill="#4e79a7"/><circle cx="251.5" cy="231.5" r="3" fill="#4e79a7"/><circle cx="263.9" cy="227.5" r="3" fill="#4e79a7"/><circle cx="276.4" cy="203.7" r="3" fill="#4e79a7"/><circle cx="288.9" cy="225.4" r="3" fill="#4e79a7"/><circle cx="301.3" cy="231.5" r="3" fill="#4e79a7"/><circle cx="313.8" cy="221.2" r="3" fill="#4e79a7"/><circle cx="326.3" cy="231.4" r="3" fill="#4e79a7"/><circle cx="338.7" cy="231.8" r="3" fill="#4e79a7"/><circle cx="351.2" cy="208.4" r="3" fill="#4e79a7"/><circle cx="363.7" cy="230.4" r="3" fill="#4e79a7"/><circle cx="376.1" cy="230.2" r="3" fill="#4e79a7"/><circle cx="388.6" cy="232.0" r="3" fill="#4e79a7"/><circle cx="401.1" cy="227.6" r="3" fill="#4e79a7"/><circle cx="413.5" cy="227.5" r="3" fill="#4e79a7"/><circle cx="426.0" cy="205.7" r="3" fill="#4e79a7"/><circle cx="438.5" cy="207.3" r="3" fill="#4e79a7"/><circle cx="450.9" cy="142.5" r="3" fill="#4e79a7"/><circle cx="463.4" cy="174.5" r="3" fill="#4e79a7"/><circle cx="475.9" cy="214.1" r="3" fill="#4e79a7"/><circle cx="488.3" cy="28.0" r="3" fill="#4e79a7"/><circle cx="500.8" cy="221.7" r="3" fill="#4e79a7"/><circle cx="513.3" cy="198.4" r="3" fill="#4e79a7"/><circle cx="525.7" cy="225.2" r="3" fill="#4e79a7"/><circle cx="538.2" cy="196.3" r="3" fill="#4e79a7"/><circle cx="550.7" cy="230.2" r="3" fill="#4e79a7"/><circle cx="563.1" cy="231.0" r="3" fill="#4e79a7"/><circle cx="575.6" cy="47.1" r="3" fill="#4e79a7"/><circle cx="588.1" cy="222.3" r="3" fill="#4e79a7"/><circle cx="600.5" cy="224.9" r="3" fill="#4e79a7"/><circle cx="613.0" cy="231.7" r="3" fill="#4e79a7"/><circle cx="625.5" cy="232.0" r="3" fill="#4e79a7"/><circle cx="637.9" cy="232.0" r="3" fill="#4e79a7"/><circle cx="650.4" cy="193.2" r="3" fill="#4e79a7"/><circle cx="662.9" cy="221.2" r="3" fill="#4e79a7"/><circle cx="675.3" cy="230.7" r="3" fill="#4e79a7"/><circle cx="687.8" cy="231.4" r="3" fill="#4e79a7"/><circle cx="700.3" cy="231.7" r="3" fill="#4e79a7"/><circle cx="712.7" cy="231.7" r="3" fill="#4e79a7"/><circle cx="725.2" cy="231.4" r="3" fill="#4e79a7"/><circle cx="737.7" cy="231.8" r="3" fill="#4e79a7"/><circle cx="750.1" cy="219.9" r="3" fill="#4e79a7"/><circle cx="762.6" cy="227.6" r="3" fill="#4e79a7"/><circle cx="775.1" cy="231.7" r="3" fill="#4e79a7"/><circle cx="787.5" cy="231.0" r="3" fill="#4e79a7"/><circle cx="800.0" cy="231.7" r="3" fill="#4e79a7"/>
  <circle cx="52.0" cy="232.0" r="3" fill="#f28e2b"/><circle cx="64.5" cy="231.7" r="3" fill="#f28e2b"/><circle cx="76.9" cy="231.5" r="3" fill="#f28e2b"/><circle cx="89.4" cy="228.8" r="3" fill="#f28e2b"/><circle cx="101.9" cy="231.4" r="3" fill="#f28e2b"/><circle cx="114.3" cy="231.8" r="3" fill="#f28e2b"/><circle cx="126.8" cy="232.0" r="3" fill="#f28e2b"/><circle cx="139.3" cy="231.8" r="3" fill="#f28e2b"/><circle cx="151.7" cy="232.0" r="3" fill="#f28e2b"/><circle cx="164.2" cy="231.7" r="3" fill="#f28e2b"/><circle cx="176.7" cy="222.5" r="3" fill="#f28e2b"/><circle cx="189.1" cy="216.0" r="3" fill="#f28e2b"/><circle cx="201.6" cy="202.6" r="3" fill="#f28e2b"/><circle cx="214.1" cy="227.8" r="3" fill="#f28e2b"/><circle cx="226.5" cy="221.5" r="3" fill="#f28e2b"/><circle cx="239.0" cy="223.1" r="3" fill="#f28e2b"/><circle cx="251.5" cy="231.5" r="3" fill="#f28e2b"/><circle cx="263.9" cy="231.8" r="3" fill="#f28e2b"/><circle cx="276.4" cy="220.2" r="3" fill="#f28e2b"/><circle cx="288.9" cy="230.7" r="3" fill="#f28e2b"/><circle cx="301.3" cy="231.5" r="3" fill="#f28e2b"/><circle cx="313.8" cy="230.7" r="3" fill="#f28e2b"/><circle cx="326.3" cy="231.5" r="3" fill="#f28e2b"/><circle cx="338.7" cy="231.8" r="3" fill="#f28e2b"/><circle cx="351.2" cy="223.9" r="3" fill="#f28e2b"/><circle cx="363.7" cy="230.7" r="3" fill="#f28e2b"/><circle cx="376.1" cy="231.2" r="3" fill="#f28e2b"/><circle cx="388.6" cy="232.0" r="3" fill="#f28e2b"/><circle cx="401.1" cy="231.2" r="3" fill="#f28e2b"/><circle cx="413.5" cy="230.4" r="3" fill="#f28e2b"/><circle cx="426.0" cy="221.2" r="3" fill="#f28e2b"/><circle cx="438.5" cy="222.1" r="3" fill="#f28e2b"/><circle cx="450.9" cy="207.8" r="3" fill="#f28e2b"/><circle cx="463.4" cy="213.3" r="3" fill="#f28e2b"/><circle cx="475.9" cy="228.9" r="3" fill="#f28e2b"/><circle cx="488.3" cy="209.1" r="3" fill="#f28e2b"/><circle cx="500.8" cy="229.9" r="3" fill="#f28e2b"/><circle cx="513.3" cy="224.4" r="3" fill="#f28e2b"/><circle cx="525.7" cy="230.4" r="3" fill="#f28e2b"/><circle cx="538.2" cy="224.6" r="3" fill="#f28e2b"/><circle cx="550.7" cy="230.9" r="3" fill="#f28e2b"/><circle cx="563.1" cy="231.5" r="3" fill="#f28e2b"/><circle cx="575.6" cy="214.1" r="3" fill="#f28e2b"/><circle cx="588.1" cy="229.1" r="3" fill="#f28e2b"/><circle cx="600.5" cy="230.9" r="3" fill="#f28e2b"/><circle cx="613.0" cy="231.7" r="3" fill="#f28e2b"/><circle cx="625.5" cy="232.0" r="3" fill="#f28e2b"/><circle cx="637.9" cy="232.0" r="3" fill="#f28e2b"/><circle cx="650.4" cy="227.0" r="3" fill="#f28e2b"/><circle cx="662.9" cy="228.3" r="3" fill="#f28e2b"/><circle cx="675.3" cy="231.4" r="3" fill="#f28e2b"/><circle cx="687.8" cy="231.4" r="3" fill="#f28e2b"/><circle cx="700.3" cy="231.7" r="3" fill="#f28e2b"/><circle cx="712.7" cy="231.7" r="3" fill="#f28e2b"/><circle cx="725.2" cy="231.5" r="3" fill="#f28e2b"/><circle cx="737.7" cy="231.8" r="3" fill="#f28e2b"/><circle cx="750.1" cy="230.2" r="3" fill="#f28e2b"/><circle cx="762.6" cy="230.4" r="3" fill="#f28e2b"/><circle cx="775.1" cy="231.7" r="3" fill="#f28e2b"/><circle cx="787.5" cy="231.5" r="3" fill="#f28e2b"/><circle cx="800.0" cy="231.7" r="3" fill="#f28e2b"/>

  <!-- axes -->
  <line x1="52" y1="28" x2="52" y2="232"
        stroke="#cccccc" stroke-width="1"/>
  <line x1="52" y1="232" x2="800" y2="232"
        stroke="#cccccc" stroke-width="1"/>

  <!-- y-axis labels -->
  <text x="47" y="236.0" text-anchor="end" font-size="10" fill="#57606a" font-family="ui-monospace, SFMono-Regular, 'SF Mono', Menlo, monospace">0</text><text x="47" y="187.5" text-anchor="end" font-size="10" fill="#57606a" font-family="ui-monospace, SFMono-Regular, 'SF Mono', Menlo, monospace">300</text><text x="47" y="139.1" text-anchor="end" font-size="10" fill="#57606a" font-family="ui-monospace, SFMono-Regular, 'SF Mono', Menlo, monospace">600</text><text x="47" y="90.6" text-anchor="end" font-size="10" fill="#57606a" font-family="ui-monospace, SFMono-Regular, 'SF Mono', Menlo, monospace">900</text><text x="47" y="42.2" text-anchor="end" font-size="10" fill="#57606a" font-family="ui-monospace, SFMono-Regular, 'SF Mono', Menlo, monospace">1,200</text><text x="47" y="-6.3" text-anchor="end" font-size="10" fill="#57606a" font-family="ui-monospace, SFMono-Regular, 'SF Mono', Menlo, monospace">1,500</text>

  <!-- x-axis labels -->
  <text x="52.0" y="248" text-anchor="middle" font-size="10" fill="#8c959f" font-family="ui-monospace, SFMono-Regular, 'SF Mono', Menlo, monospace">05-11</text><text x="488.3" y="248" text-anchor="middle" font-size="10" fill="#8c959f" font-family="ui-monospace, SFMono-Regular, 'SF Mono', Menlo, monospace">06-15</text><text x="139.3" y="248" text-anchor="middle" font-size="10" fill="#8c959f" font-family="ui-monospace, SFMono-Regular, 'SF Mono', Menlo, monospace">05-18</text><text x="575.6" y="248" text-anchor="middle" font-size="10" fill="#8c959f" font-family="ui-monospace, SFMono-Regular, 'SF Mono', Menlo, monospace">06-22</text><text x="226.5" y="248" text-anchor="middle" font-size="10" fill="#8c959f" font-family="ui-monospace, SFMono-Regular, 'SF Mono', Menlo, monospace">05-25</text><text x="800.0" y="248" text-anchor="middle" font-size="10" fill="#8c959f" font-family="ui-monospace, SFMono-Regular, 'SF Mono', Menlo, monospace">07-10</text><text x="662.9" y="248" text-anchor="middle" font-size="10" fill="#8c959f" font-family="ui-monospace, SFMono-Regular, 'SF Mono', Menlo, monospace">06-29</text><text x="313.8" y="248" text-anchor="middle" font-size="10" fill="#8c959f" font-family="ui-monospace, SFMono-Regular, 'SF Mono', Menlo, monospace">06-01</text><text x="750.1" y="248" text-anchor="middle" font-size="10" fill="#8c959f" font-family="ui-monospace, SFMono-Regular, 'SF Mono', Menlo, monospace">07-06</text><text x="401.1" y="248" text-anchor="middle" font-size="10" fill="#8c959f" font-family="ui-monospace, SFMono-Regular, 'SF Mono', Menlo, monospace">06-08</text>

  <!-- legend -->
  <rect x="60" y="262" width="16" height="3" fill="#4e79a7" rx="1"/><text x="80" y="268" font-size="11" fill="#57606a" font-family="-apple-system, BlinkMacSystemFont, 'Segoe UI', sans-serif">Total clones (7,170)</text><line x1="230" y1="264" x2="246" y2="264" stroke="#f28e2b" stroke-width="2" stroke-dasharray="5,3"/><text x="250" y="268" font-size="11" fill="#57606a" font-family="-apple-system, BlinkMacSystemFont, 'Segoe UI', sans-serif">Unique cloners</text>

</svg>