<svg xmlns="http://www.w3.org/2000/svg" viewBox="0 0 820 280" width="820" height="280">

  <!-- title -->
  <text x="52" y="18" font-size="13" font-weight="600"
        fill="#24292f" font-family="-apple-system, BlinkMacSystemFont, 'Segoe UI', sans-serif"
        >Clone traffic — ci-helpers</text>
  <text x="800" y="18" font-size="10" fill="#8c959f"
        font-family="ui-monospace, SFMono-Regular, 'SF Mono', Menlo, monospace" text-anchor="end">2026-06-17</text>

  <!-- grid -->
  <line x1="52" y1="232.0" x2="800" y2="232.0" stroke="#e8e8e8" stroke-width="1"/><line x1="52" y1="183.5" x2="800" y2="183.5" stroke="#e8e8e8" stroke-width="1"/><line x1="52" y1="135.1" x2="800" y2="135.1" stroke="#e8e8e8" stroke-width="1"/><line x1="52" y1="86.6" x2="800" y2="86.6" stroke="#e8e8e8" stroke-width="1"/><line x1="52" y1="38.2" x2="800" y2="38.2" stroke="#e8e8e8" stroke-width="1"/><line x1="52" y1="-10.3" x2="800" y2="-10.3" stroke="#e8e8e8" stroke-width="1"/>

  <!-- area fill -->
  <path d="M52.0,232.0 L52.0,232.0 L73.4,231.7 L94.7,231.5 L116.1,224.4 L137.5,231.2 L158.9,231.8 L180.2,232.0 L201.6,231.0 L223.0,232.0 L244.3,231.7 L265.7,147.7 L287.1,197.4 L308.5,155.9 L329.8,212.1 L351.2,194.9 L372.6,206.6 L393.9,231.5 L415.3,227.5 L436.7,203.7 L458.1,225.4 L479.4,231.5 L500.8,221.2 L522.2,231.4 L543.5,231.8 L564.9,208.4 L586.3,230.4 L607.7,230.2 L629.0,232.0 L650.4,227.6 L671.8,227.5 L693.1,205.7 L714.5,207.3 L735.9,142.5 L757.3,174.5 L778.6,214.1 L800.0,28.0 L800.0,232.0 L52.0,232.0Z" fill="#4e79a7" opacity="0.12"/>

  <!-- lines -->
  <polyline points="52.0,232.0 73.4,231.7 94.7,231.5 116.1,224.4 137.5,231.2 158.9,231.8 180.2,232.0 201.6,231.0 223.0,232.0 244.3,231.7 265.7,147.7 287.1,197.4 308.5,155.9 329.8,212.1 351.2,194.9 372.6,206.6 393.9,231.5 415.3,227.5 436.7,203.7 458.1,225.4 479.4,231.5 500.8,221.2 522.2,231.4 543.5,231.8 564.9,208.4 586.3,230.4 607.7,230.2 629.0,232.0 650.4,227.6 671.8,227.5 693.1,205.7 714.5,207.3 735.9,142.5 757.3,174.5 778.6,214.1 800.0,28.0"
            fill="none" stroke="#4e79a7"
            stroke-width="2" stroke-linejoin="round"/>
  <polyline points="52.0,232.0 73.4,231.7 94.7,231.5 116.1,228.8 137.5,231.4 158.9,231.8 180.2,232.0 201.6,231.8 223.0,232.0 244.3,231.7 265.7,222.5 287.1,216.0 308.5,202.6 329.8,227.8 351.2,221.5 372.6,223.1 393.9,231.5 415.3,231.8 436.7,220.2 458.1,230.7 479.4,231.5 500.8,230.7 522.2,231.5 543.5,231.8 564.9,223.9 586.3,230.7 607.7,231.2 629.0,232.0 650.4,231.2 671.8,230.4 693.1,221.2 714.5,222.1 735.9,207.8 757.3,213.3 778.6,228.9 800.0,209.1"
            fill="none" stroke="#f28e2b"
            stroke-width="2" stroke-linejoin="round"
            stroke-dasharray="5,3"/>

  <!-- dots -->
  <circle cx="52.0" cy="232.0" r="3" fill="#4e79a7"/><circle cx="73.4" cy="231.7" r="3" fill="#4e79a7"/><circle cx="94.7" cy="231.5" r="3" fill="#4e79a7"/><circle cx="116.1" cy="224.4" r="3" fill="#4e79a7"/><circle cx="137.5" cy="231.2" r="3" fill="#4e79a7"/><circle cx="158.9" cy="231.8" r="3" fill="#4e79a7"/><circle cx="180.2" cy="232.0" r="3" fill="#4e79a7"/><circle cx="201.6" cy="231.0" r="3" fill="#4e79a7"/><circle cx="223.0" cy="232.0" r="3" fill="#4e79a7"/><circle cx="244.3" cy="231.7" r="3" fill="#4e79a7"/><circle cx="265.7" cy="147.7" r="3" fill="#4e79a7"/><circle cx="287.1" cy="197.4" r="3" fill="#4e79a7"/><circle cx="308.5" cy="155.9" r="3" fill="#4e79a7"/><circle cx="329.8" cy="212.1" r="3" fill="#4e79a7"/><circle cx="351.2" cy="194.9" r="3" fill="#4e79a7"/><circle cx="372.6" cy="206.6" r="3" fill="#4e79a7"/><circle cx="393.9" cy="231.5" r="3" fill="#4e79a7"/><circle cx="415.3" cy="227.5" r="3" fill="#4e79a7"/><circle cx="436.7" cy="203.7" r="3" fill="#4e79a7"/><circle cx="458.1" cy="225.4" r="3" fill="#4e79a7"/><circle cx="479.4" cy="231.5" r="3" fill="#4e79a7"/><circle cx="500.8" cy="221.2" r="3" fill="#4e79a7"/><circle cx="522.2" cy="231.4" r="3" fill="#4e79a7"/><circle cx="543.5" cy="231.8" r="3" fill="#4e79a7"/><circle cx="564.9" cy="208.4" r="3" fill="#4e79a7"/><circle cx="586.3" cy="230.4" r="3" fill="#4e79a7"/><circle cx="607.7" cy="230.2" r="3" fill="#4e79a7"/><circle cx="629.0" cy="232.0" r="3" fill="#4e79a7"/><circle cx="650.4" cy="227.6" r="3" fill="#4e79a7"/><circle cx="671.8" cy="227.5" r="3" fill="#4e79a7"/><circle cx="693.1" cy="205.7" r="3" fill="#4e79a7"/><circle cx="714.5" cy="207.3" r="3" fill="#4e79a7"/><circle cx="735.9" cy="142.5" r="3" fill="#4e79a7"/><circle cx="757.3" cy="174.5" r="3" fill="#4e79a7"/><circle cx="778.6" cy="214.1" r="3" fill="#4e79a7"/><circle cx="800.0" cy="28.0" r="3" fill="#4e79a7"/>
  <circle cx="52.0" cy="232.0" r="3" fill="#f28e2b"/><circle cx="73.4" cy="231.7" r="3" fill="#f28e2b"/><circle cx="94.7" cy="231.5" r="3" fill="#f28e2b"/><circle cx="116.1" cy="228.8" r="3" fill="#f28e2b"/><circle cx="137.5" cy="231.4" r="3" fill="#f28e2b"/><circle cx="158.9" cy="231.8" r="3" fill="#f28e2b"/><circle cx="180.2" cy="232.0" r="3" fill="#f28e2b"/><circle cx="201.6" cy="231.8" r="3" fill="#f28e2b"/><circle cx="223.0" cy="232.0" r="3" fill="#f28e2b"/><circle cx="244.3" cy="231.7" r="3" fill="#f28e2b"/><circle cx="265.7" cy="222.5" r="3" fill="#f28e2b"/><circle cx="287.1" cy="216.0" r="3" fill="#f28e2b"/><circle cx="308.5" cy="202.6" r="3" fill="#f28e2b"/><circle cx="329.8" cy="227.8" r="3" fill="#f28e2b"/><circle cx="351.2" cy="221.5" r="3" fill="#f28e2b"/><circle cx="372.6" cy="223.1" r="3" fill="#f28e2b"/><circle cx="393.9" cy="231.5" r="3" fill="#f28e2b"/><circle cx="415.3" cy="231.8" r="3" fill="#f28e2b"/><circle cx="436.7" cy="220.2" r="3" fill="#f28e2b"/><circle cx="458.1" cy="230.7" r="3" fill="#f28e2b"/><circle cx="479.4" cy="231.5" r="3" fill="#f28e2b"/><circle cx="500.8" cy="230.7" r="3" fill="#f28e2b"/><circle cx="522.2" cy="231.5" r="3" fill="#f28e2b"/><circle cx="543.5" cy="231.8" r="3" fill="#f28e2b"/><circle cx="564.9" cy="223.9" r="3" fill="#f28e2b"/><circle cx="586.3" cy="230.7" r="3" fill="#f28e2b"/><circle cx="607.7" cy="231.2" r="3" fill="#f28e2b"/><circle cx="629.0" cy="232.0" r="3" fill="#f28e2b"/><circle cx="650.4" cy="231.2" r="3" fill="#f28e2b"/><circle cx="671.8" cy="230.4" r="3" fill="#f28e2b"/><circle cx="693.1" cy="221.2" r="3" fill="#f28e2b"/><circle cx="714.5" cy="222.1" r="3" fill="#f28e2b"/><circle cx="735.9" cy="207.8" r="3" fill="#f28e2b"/><circle cx="757.3" cy="213.3" r="3" fill="#f28e2b"/><circle cx="778.6" cy="228.9" r="3" fill="#f28e2b"/><circle cx="800.0" cy="209.1" r="3" fill="#f28e2b"/>

  <!-- axes -->
  <line x1="52" y1="28" x2="52" y2="232"
        stroke="#cccccc" stroke-width="1"/>
  <line x1="52" y1="232" x2="800" y2="232"
        stroke="#cccccc" stroke-width="1"/>

  <!-- y-axis labels -->
  <text x="47" y="236.0" text-anchor="end" font-size="10" fill="#57606a" font-family="ui-monospace, SFMono-Regular, 'SF Mono', Menlo, monospace">0</text><text x="47" y="187.5" text-anchor="end" font-size="10" fill="#57606a" font-family="ui-monospace, SFMono-Regular, 'SF Mono', Menlo, monospace">300</text><text x="47" y="139.1" text-anchor="end" font-size="10" fill="#57606a" font-family="ui-monospace, SFMono-Regular, 'SF Mono', Menlo, monospace">600</text><text x="47" y="90.6" text-anchor="end" font-size="10" fill="#57606a" font-family="ui-monospace, SFMono-Regular, 'SF Mono', Menlo, monospace">900</text><text x="47" y="42.2" text-anchor="end" font-size="10" fill="#57606a" font-family="ui-monospace, SFMono-Regular, 'SF Mono', Menlo, monospace">1,200</text><text x="47" y="-6.3" text-anchor="end" font-size="10" fill="#57606a" font-family="ui-monospace, SFMono-Regular, 'SF Mono', Menlo, monospace">1,500</text>

  <!-- x-axis labels -->
  <text x="52.0" y="248" text-anchor="middle" font-size="10" fill="#8c959f" font-family="ui-monospace, SFMono-Regular, 'SF Mono', Menlo, monospace">05-11</text><text x="735.9" y="248" text-anchor="middle" font-size="10" fill="#8c959f" font-family="ui-monospace, SFMono-Regular, 'SF Mono', Menlo, monospace">06-12</text><text x="800.0" y="248" text-anchor="middle" font-size="10" fill="#8c959f" font-family="ui-monospace, SFMono-Regular, 'SF Mono', Menlo, monospace">06-15</text><text x="137.5" y="248" text-anchor="middle" font-size="10" fill="#8c959f" font-family="ui-monospace, SFMono-Regular, 'SF Mono', Menlo, monospace">05-15</text><text x="223.0" y="248" text-anchor="middle" font-size="10" fill="#8c959f" font-family="ui-monospace, SFMono-Regular, 'SF Mono', Menlo, monospace">05-19</text><text x="308.5" y="248" text-anchor="middle" font-size="10" fill="#8c959f" font-family="ui-monospace, SFMono-Regular, 'SF Mono', Menlo, monospace">05-23</text><text x="393.9" y="248" text-anchor="middle" font-size="10" fill="#8c959f" font-family="ui-monospace, SFMono-Regular, 'SF Mono', Menlo, monospace">05-27</text><text x="479.4" y="248" text-anchor="middle" font-size="10" fill="#8c959f" font-family="ui-monospace, SFMono-Regular, 'SF Mono', Menlo, monospace">05-31</text><text x="564.9" y="248" text-anchor="middle" font-size="10" fill="#8c959f" font-family="ui-monospace, SFMono-Regular, 'SF Mono', Menlo, monospace">06-04</text><text x="650.4" y="248" text-anchor="middle" font-size="10" fill="#8c959f" font-family="ui-monospace, SFMono-Regular, 'SF Mono', Menlo, monospace">06-08</text>

  <!-- legend -->
  <rect x="60" y="262" width="16" height="3" fill="#4e79a7" rx="1"/><text x="80" y="268" font-size="11" fill="#57606a" font-family="-apple-system, BlinkMacSystemFont, 'Segoe UI', sans-serif">Total clones (4,927)</text><line x1="230" y1="264" x2="246" y2="264" stroke="#f28e2b" stroke-width="2" stroke-dasharray="5,3"/><text x="250" y="268" font-size="11" fill="#57606a" font-family="-apple-system, BlinkMacSystemFont, 'Segoe UI', sans-serif">Unique cloners</text>

</svg>