<svg xmlns="http://www.w3.org/2000/svg" viewBox="0 0 820 280" width="820" height="280">

  <!-- title -->
  <text x="52" y="18" font-size="13" font-weight="600"
        fill="#24292f" font-family="-apple-system, BlinkMacSystemFont, 'Segoe UI', sans-serif"
        >Clone traffic — ci-helpers</text>
  <text x="800" y="18" font-size="10" fill="#8c959f"
        font-family="ui-monospace, SFMono-Regular, 'SF Mono', Menlo, monospace" text-anchor="end">2026-06-01</text>

  <!-- grid -->
  <line x1="52" y1="232.0" x2="800" y2="232.0" stroke="#e8e8e8" stroke-width="1"/><line x1="52" y1="192.9" x2="800" y2="192.9" stroke="#e8e8e8" stroke-width="1"/><line x1="52" y1="153.8" x2="800" y2="153.8" stroke="#e8e8e8" stroke-width="1"/><line x1="52" y1="114.8" x2="800" y2="114.8" stroke="#e8e8e8" stroke-width="1"/><line x1="52" y1="75.7" x2="800" y2="75.7" stroke="#e8e8e8" stroke-width="1"/><line x1="52" y1="36.6" x2="800" y2="36.6" stroke="#e8e8e8" stroke-width="1"/><line x1="52" y1="-2.5" x2="800" y2="-2.5" stroke="#e8e8e8" stroke-width="1"/>

  <!-- area fill -->
  <path d="M52.0,232.0 L52.0,232.0 L91.4,231.2 L130.7,230.8 L170.1,213.6 L209.5,230.0 L248.8,231.6 L288.2,232.0 L327.6,229.7 L366.9,232.0 L406.3,231.2 L445.7,28.0 L485.1,148.4 L524.4,47.9 L563.8,183.9 L603.2,142.1 L642.5,170.6 L681.9,230.8 L721.3,221.1 L760.6,163.6 L800.0,216.0 L800.0,232.0 L52.0,232.0Z" fill="#4e79a7" opacity="0.12"/>

  <!-- lines -->
  <polyline points="52.0,232.0 91.4,231.2 130.7,230.8 170.1,213.6 209.5,230.0 248.8,231.6 288.2,232.0 327.6,229.7 366.9,232.0 406.3,231.2 445.7,28.0 485.1,148.4 524.4,47.9 563.8,183.9 603.2,142.1 642.5,170.6 681.9,230.8 721.3,221.1 760.6,163.6 800.0,216.0"
            fill="none" stroke="#4e79a7"
            stroke-width="2" stroke-linejoin="round"/>
  <polyline points="52.0,232.0 91.4,231.2 130.7,230.8 170.1,224.2 209.5,230.4 248.8,231.6 288.2,232.0 327.6,231.6 366.9,232.0 406.3,231.2 445.7,208.9 485.1,193.3 524.4,160.9 563.8,221.8 603.2,206.6 642.5,210.5 681.9,230.8 721.3,231.6 760.6,203.5 800.0,228.9"
            fill="none" stroke="#f28e2b"
            stroke-width="2" stroke-linejoin="round"
            stroke-dasharray="5,3"/>

  <!-- dots -->
  <circle cx="52.0" cy="232.0" r="3" fill="#4e79a7"/><circle cx="91.4" cy="231.2" r="3" fill="#4e79a7"/><circle cx="130.7" cy="230.8" r="3" fill="#4e79a7"/><circle cx="170.1" cy="213.6" r="3" fill="#4e79a7"/><circle cx="209.5" cy="230.0" r="3" fill="#4e79a7"/><circle cx="248.8" cy="231.6" r="3" fill="#4e79a7"/><circle cx="288.2" cy="232.0" r="3" fill="#4e79a7"/><circle cx="327.6" cy="229.7" r="3" fill="#4e79a7"/><circle cx="366.9" cy="232.0" r="3" fill="#4e79a7"/><circle cx="406.3" cy="231.2" r="3" fill="#4e79a7"/><circle cx="445.7" cy="28.0" r="3" fill="#4e79a7"/><circle cx="485.1" cy="148.4" r="3" fill="#4e79a7"/><circle cx="524.4" cy="47.9" r="3" fill="#4e79a7"/><circle cx="563.8" cy="183.9" r="3" fill="#4e79a7"/><circle cx="603.2" cy="142.1" r="3" fill="#4e79a7"/><circle cx="642.5" cy="170.6" r="3" fill="#4e79a7"/><circle cx="681.9" cy="230.8" r="3" fill="#4e79a7"/><circle cx="721.3" cy="221.1" r="3" fill="#4e79a7"/><circle cx="760.6" cy="163.6" r="3" fill="#4e79a7"/><circle cx="800.0" cy="216.0" r="3" fill="#4e79a7"/>
  <circle cx="52.0" cy="232.0" r="3" fill="#f28e2b"/><circle cx="91.4" cy="231.2" r="3" fill="#f28e2b"/><circle cx="130.7" cy="230.8" r="3" fill="#f28e2b"/><circle cx="170.1" cy="224.2" r="3" fill="#f28e2b"/><circle cx="209.5" cy="230.4" r="3" fill="#f28e2b"/><circle cx="248.8" cy="231.6" r="3" fill="#f28e2b"/><circle cx="288.2" cy="232.0" r="3" fill="#f28e2b"/><circle cx="327.6" cy="231.6" r="3" fill="#f28e2b"/><circle cx="366.9" cy="232.0" r="3" fill="#f28e2b"/><circle cx="406.3" cy="231.2" r="3" fill="#f28e2b"/><circle cx="445.7" cy="208.9" r="3" fill="#f28e2b"/><circle cx="485.1" cy="193.3" r="3" fill="#f28e2b"/><circle cx="524.4" cy="160.9" r="3" fill="#f28e2b"/><circle cx="563.8" cy="221.8" r="3" fill="#f28e2b"/><circle cx="603.2" cy="206.6" r="3" fill="#f28e2b"/><circle cx="642.5" cy="210.5" r="3" fill="#f28e2b"/><circle cx="681.9" cy="230.8" r="3" fill="#f28e2b"/><circle cx="721.3" cy="231.6" r="3" fill="#f28e2b"/><circle cx="760.6" cy="203.5" r="3" fill="#f28e2b"/><circle cx="800.0" cy="228.9" r="3" fill="#f28e2b"/>

  <!-- axes -->
  <line x1="52" y1="28" x2="52" y2="232"
        stroke="#cccccc" stroke-width="1"/>
  <line x1="52" y1="232" x2="800" y2="232"
        stroke="#cccccc" stroke-width="1"/>

  <!-- y-axis labels -->
  <text x="47" y="236.0" text-anchor="end" font-size="10" fill="#57606a" font-family="ui-monospace, SFMono-Regular, 'SF Mono', Menlo, monospace">0</text><text x="47" y="196.9" text-anchor="end" font-size="10" fill="#57606a" font-family="ui-monospace, SFMono-Regular, 'SF Mono', Menlo, monospace">100</text><text x="47" y="157.8" text-anchor="end" font-size="10" fill="#57606a" font-family="ui-monospace, SFMono-Regular, 'SF Mono', Menlo, monospace">200</text><text x="47" y="118.8" text-anchor="end" font-size="10" fill="#57606a" font-family="ui-monospace, SFMono-Regular, 'SF Mono', Menlo, monospace">300</text><text x="47" y="79.7" text-anchor="end" font-size="10" fill="#57606a" font-family="ui-monospace, SFMono-Regular, 'SF Mono', Menlo, monospace">400</text><text x="47" y="40.6" text-anchor="end" font-size="10" fill="#57606a" font-family="ui-monospace, SFMono-Regular, 'SF Mono', Menlo, monospace">500</text><text x="47" y="1.5" text-anchor="end" font-size="10" fill="#57606a" font-family="ui-monospace, SFMono-Regular, 'SF Mono', Menlo, monospace">600</text>

  <!-- x-axis labels -->
  <text x="52.0" y="248" text-anchor="middle" font-size="10" fill="#8c959f" font-family="ui-monospace, SFMono-Regular, 'SF Mono', Menlo, monospace">05-11</text><text x="130.7" y="248" text-anchor="middle" font-size="10" fill="#8c959f" font-family="ui-monospace, SFMono-Regular, 'SF Mono', Menlo, monospace">05-13</text><text x="209.5" y="248" text-anchor="middle" font-size="10" fill="#8c959f" font-family="ui-monospace, SFMono-Regular, 'SF Mono', Menlo, monospace">05-15</text><text x="288.2" y="248" text-anchor="middle" font-size="10" fill="#8c959f" font-family="ui-monospace, SFMono-Regular, 'SF Mono', Menlo, monospace">05-17</text><text x="366.9" y="248" text-anchor="middle" font-size="10" fill="#8c959f" font-family="ui-monospace, SFMono-Regular, 'SF Mono', Menlo, monospace">05-19</text><text x="445.7" y="248" text-anchor="middle" font-size="10" fill="#8c959f" font-family="ui-monospace, SFMono-Regular, 'SF Mono', Menlo, monospace">05-21</text><text x="524.4" y="248" text-anchor="middle" font-size="10" fill="#8c959f" font-family="ui-monospace, SFMono-Regular, 'SF Mono', Menlo, monospace">05-23</text><text x="603.2" y="248" text-anchor="middle" font-size="10" fill="#8c959f" font-family="ui-monospace, SFMono-Regular, 'SF Mono', Menlo, monospace">05-25</text><text x="681.9" y="248" text-anchor="middle" font-size="10" fill="#8c959f" font-family="ui-monospace, SFMono-Regular, 'SF Mono', Menlo, monospace">05-27</text><text x="760.6" y="248" text-anchor="middle" font-size="10" fill="#8c959f" font-family="ui-monospace, SFMono-Regular, 'SF Mono', Menlo, monospace">05-29</text><text x="800.0" y="248" text-anchor="middle" font-size="10" fill="#8c959f" font-family="ui-monospace, SFMono-Regular, 'SF Mono', Menlo, monospace">05-30</text>

  <!-- legend -->
  <rect x="60" y="262" width="16" height="3" fill="#4e79a7" rx="1"/><text x="80" y="268" font-size="11" fill="#57606a" font-family="-apple-system, BlinkMacSystemFont, 'Segoe UI', sans-serif">Total clones (2,030)</text><line x1="230" y1="264" x2="246" y2="264" stroke="#f28e2b" stroke-width="2" stroke-dasharray="5,3"/><text x="250" y="268" font-size="11" fill="#57606a" font-family="-apple-system, BlinkMacSystemFont, 'Segoe UI', sans-serif">Unique cloners</text>

</svg>