<svg xmlns="http://www.w3.org/2000/svg" viewBox="0 0 820 280" width="820" height="280">

  <!-- title -->
  <text x="52" y="18" font-size="13" font-weight="600"
        fill="#24292f" font-family="-apple-system, BlinkMacSystemFont, 'Segoe UI', sans-serif"
        >Clone traffic — ci-helpers</text>
  <text x="800" y="18" font-size="10" fill="#8c959f"
        font-family="ui-monospace, SFMono-Regular, 'SF Mono', Menlo, monospace" text-anchor="end">2026-06-24</text>

  <!-- grid -->
  <line x1="52" y1="232.0" x2="800" y2="232.0" stroke="#e8e8e8" stroke-width="1"/><line x1="52" y1="183.5" x2="800" y2="183.5" stroke="#e8e8e8" stroke-width="1"/><line x1="52" y1="135.1" x2="800" y2="135.1" stroke="#e8e8e8" stroke-width="1"/><line x1="52" y1="86.6" x2="800" y2="86.6" stroke="#e8e8e8" stroke-width="1"/><line x1="52" y1="38.2" x2="800" y2="38.2" stroke="#e8e8e8" stroke-width="1"/><line x1="52" y1="-10.3" x2="800" y2="-10.3" stroke="#e8e8e8" stroke-width="1"/>

  <!-- area fill -->
  <path d="M52.0,232.0 L52.0,232.0 L69.8,231.7 L87.6,231.5 L105.4,224.4 L123.2,231.2 L141.0,231.8 L158.9,232.0 L176.7,231.0 L194.5,232.0 L212.3,231.7 L230.1,147.7 L247.9,197.4 L265.7,155.9 L283.5,212.1 L301.3,194.9 L319.1,206.6 L337.0,231.5 L354.8,227.5 L372.6,203.7 L390.4,225.4 L408.2,231.5 L426.0,221.2 L443.8,231.4 L461.6,231.8 L479.4,208.4 L497.2,230.4 L515.0,230.2 L532.9,232.0 L550.7,227.6 L568.5,227.5 L586.3,205.7 L604.1,207.3 L621.9,142.5 L639.7,174.5 L657.5,214.1 L675.3,28.0 L693.1,221.7 L711.0,198.4 L728.8,225.2 L746.6,196.3 L764.4,230.2 L782.2,231.0 L800.0,47.1 L800.0,232.0 L52.0,232.0Z" fill="#4e79a7" opacity="0.12"/>

  <!-- lines -->
  <polyline points="52.0,232.0 69.8,231.7 87.6,231.5 105.4,224.4 123.2,231.2 141.0,231.8 158.9,232.0 176.7,231.0 194.5,232.0 212.3,231.7 230.1,147.7 247.9,197.4 265.7,155.9 283.5,212.1 301.3,194.9 319.1,206.6 337.0,231.5 354.8,227.5 372.6,203.7 390.4,225.4 408.2,231.5 426.0,221.2 443.8,231.4 461.6,231.8 479.4,208.4 497.2,230.4 515.0,230.2 532.9,232.0 550.7,227.6 568.5,227.5 586.3,205.7 604.1,207.3 621.9,142.5 639.7,174.5 657.5,214.1 675.3,28.0 693.1,221.7 711.0,198.4 728.8,225.2 746.6,196.3 764.4,230.2 782.2,231.0 800.0,47.1"
            fill="none" stroke="#4e79a7"
            stroke-width="2" stroke-linejoin="round"/>
  <polyline points="52.0,232.0 69.8,231.7 87.6,231.5 105.4,228.8 123.2,231.4 141.0,231.8 158.9,232.0 176.7,231.8 194.5,232.0 212.3,231.7 230.1,222.5 247.9,216.0 265.7,202.6 283.5,227.8 301.3,221.5 319.1,223.1 337.0,231.5 354.8,231.8 372.6,220.2 390.4,230.7 408.2,231.5 426.0,230.7 443.8,231.5 461.6,231.8 479.4,223.9 497.2,230.7 515.0,231.2 532.9,232.0 550.7,231.2 568.5,230.4 586.3,221.2 604.1,222.1 621.9,207.8 639.7,213.3 657.5,228.9 675.3,209.1 693.1,229.9 711.0,224.4 728.8,230.4 746.6,224.6 764.4,230.9 782.2,231.5 800.0,214.1"
            fill="none" stroke="#f28e2b"
            stroke-width="2" stroke-linejoin="round"
            stroke-dasharray="5,3"/>

  <!-- dots -->
  <circle cx="52.0" cy="232.0" r="3" fill="#4e79a7"/><circle cx="69.8" cy="231.7" r="3" fill="#4e79a7"/><circle cx="87.6" cy="231.5" r="3" fill="#4e79a7"/><circle cx="105.4" cy="224.4" r="3" fill="#4e79a7"/><circle cx="123.2" cy="231.2" r="3" fill="#4e79a7"/><circle cx="141.0" cy="231.8" r="3" fill="#4e79a7"/><circle cx="158.9" cy="232.0" r="3" fill="#4e79a7"/><circle cx="176.7" cy="231.0" r="3" fill="#4e79a7"/><circle cx="194.5" cy="232.0" r="3" fill="#4e79a7"/><circle cx="212.3" cy="231.7" r="3" fill="#4e79a7"/><circle cx="230.1" cy="147.7" r="3" fill="#4e79a7"/><circle cx="247.9" cy="197.4" r="3" fill="#4e79a7"/><circle cx="265.7" cy="155.9" r="3" fill="#4e79a7"/><circle cx="283.5" cy="212.1" r="3" fill="#4e79a7"/><circle cx="301.3" cy="194.9" r="3" fill="#4e79a7"/><circle cx="319.1" cy="206.6" r="3" fill="#4e79a7"/><circle cx="337.0" cy="231.5" r="3" fill="#4e79a7"/><circle cx="354.8" cy="227.5" r="3" fill="#4e79a7"/><circle cx="372.6" cy="203.7" r="3" fill="#4e79a7"/><circle cx="390.4" cy="225.4" r="3" fill="#4e79a7"/><circle cx="408.2" cy="231.5" r="3" fill="#4e79a7"/><circle cx="426.0" cy="221.2" r="3" fill="#4e79a7"/><circle cx="443.8" cy="231.4" r="3" fill="#4e79a7"/><circle cx="461.6" cy="231.8" r="3" fill="#4e79a7"/><circle cx="479.4" cy="208.4" r="3" fill="#4e79a7"/><circle cx="497.2" cy="230.4" r="3" fill="#4e79a7"/><circle cx="515.0" cy="230.2" r="3" fill="#4e79a7"/><circle cx="532.9" cy="232.0" r="3" fill="#4e79a7"/><circle cx="550.7" cy="227.6" r="3" fill="#4e79a7"/><circle cx="568.5" cy="227.5" r="3" fill="#4e79a7"/><circle cx="586.3" cy="205.7" r="3" fill="#4e79a7"/><circle cx="604.1" cy="207.3" r="3" fill="#4e79a7"/><circle cx="621.9" cy="142.5" r="3" fill="#4e79a7"/><circle cx="639.7" cy="174.5" r="3" fill="#4e79a7"/><circle cx="657.5" cy="214.1" r="3" fill="#4e79a7"/><circle cx="675.3" cy="28.0" r="3" fill="#4e79a7"/><circle cx="693.1" cy="221.7" r="3" fill="#4e79a7"/><circle cx="711.0" cy="198.4" r="3" fill="#4e79a7"/><circle cx="728.8" cy="225.2" r="3" fill="#4e79a7"/><circle cx="746.6" cy="196.3" r="3" fill="#4e79a7"/><circle cx="764.4" cy="230.2" r="3" fill="#4e79a7"/><circle cx="782.2" cy="231.0" r="3" fill="#4e79a7"/><circle cx="800.0" cy="47.1" r="3" fill="#4e79a7"/>
  <circle cx="52.0" cy="232.0" r="3" fill="#f28e2b"/><circle cx="69.8" cy="231.7" r="3" fill="#f28e2b"/><circle cx="87.6" cy="231.5" r="3" fill="#f28e2b"/><circle cx="105.4" cy="228.8" r="3" fill="#f28e2b"/><circle cx="123.2" cy="231.4" r="3" fill="#f28e2b"/><circle cx="141.0" cy="231.8" r="3" fill="#f28e2b"/><circle cx="158.9" cy="232.0" r="3" fill="#f28e2b"/><circle cx="176.7" cy="231.8" r="3" fill="#f28e2b"/><circle cx="194.5" cy="232.0" r="3" fill="#f28e2b"/><circle cx="212.3" cy="231.7" r="3" fill="#f28e2b"/><circle cx="230.1" cy="222.5" r="3" fill="#f28e2b"/><circle cx="247.9" cy="216.0" r="3" fill="#f28e2b"/><circle cx="265.7" cy="202.6" r="3" fill="#f28e2b"/><circle cx="283.5" cy="227.8" r="3" fill="#f28e2b"/><circle cx="301.3" cy="221.5" r="3" fill="#f28e2b"/><circle cx="319.1" cy="223.1" r="3" fill="#f28e2b"/><circle cx="337.0" cy="231.5" r="3" fill="#f28e2b"/><circle cx="354.8" cy="231.8" r="3" fill="#f28e2b"/><circle cx="372.6" cy="220.2" r="3" fill="#f28e2b"/><circle cx="390.4" cy="230.7" r="3" fill="#f28e2b"/><circle cx="408.2" cy="231.5" r="3" fill="#f28e2b"/><circle cx="426.0" cy="230.7" r="3" fill="#f28e2b"/><circle cx="443.8" cy="231.5" r="3" fill="#f28e2b"/><circle cx="461.6" cy="231.8" r="3" fill="#f28e2b"/><circle cx="479.4" cy="223.9" r="3" fill="#f28e2b"/><circle cx="497.2" cy="230.7" r="3" fill="#f28e2b"/><circle cx="515.0" cy="231.2" r="3" fill="#f28e2b"/><circle cx="532.9" cy="232.0" r="3" fill="#f28e2b"/><circle cx="550.7" cy="231.2" r="3" fill="#f28e2b"/><circle cx="568.5" cy="230.4" r="3" fill="#f28e2b"/><circle cx="586.3" cy="221.2" r="3" fill="#f28e2b"/><circle cx="604.1" cy="222.1" r="3" fill="#f28e2b"/><circle cx="621.9" cy="207.8" r="3" fill="#f28e2b"/><circle cx="639.7" cy="213.3" r="3" fill="#f28e2b"/><circle cx="657.5" cy="228.9" r="3" fill="#f28e2b"/><circle cx="675.3" cy="209.1" r="3" fill="#f28e2b"/><circle cx="693.1" cy="229.9" r="3" fill="#f28e2b"/><circle cx="711.0" cy="224.4" r="3" fill="#f28e2b"/><circle cx="728.8" cy="230.4" r="3" fill="#f28e2b"/><circle cx="746.6" cy="224.6" r="3" fill="#f28e2b"/><circle cx="764.4" cy="230.9" r="3" fill="#f28e2b"/><circle cx="782.2" cy="231.5" r="3" fill="#f28e2b"/><circle cx="800.0" cy="214.1" r="3" fill="#f28e2b"/>

  <!-- axes -->
  <line x1="52" y1="28" x2="52" y2="232"
        stroke="#cccccc" stroke-width="1"/>
  <line x1="52" y1="232" x2="800" y2="232"
        stroke="#cccccc" stroke-width="1"/>

  <!-- y-axis labels -->
  <text x="47" y="236.0" text-anchor="end" font-size="10" fill="#57606a" font-family="ui-monospace, SFMono-Regular, 'SF Mono', Menlo, monospace">0</text><text x="47" y="187.5" text-anchor="end" font-size="10" fill="#57606a" font-family="ui-monospace, SFMono-Regular, 'SF Mono', Menlo, monospace">300</text><text x="47" y="139.1" text-anchor="end" font-size="10" fill="#57606a" font-family="ui-monospace, SFMono-Regular, 'SF Mono', Menlo, monospace">600</text><text x="47" y="90.6" text-anchor="end" font-size="10" fill="#57606a" font-family="ui-monospace, SFMono-Regular, 'SF Mono', Menlo, monospace">900</text><text x="47" y="42.2" text-anchor="end" font-size="10" fill="#57606a" font-family="ui-monospace, SFMono-Regular, 'SF Mono', Menlo, monospace">1,200</text><text x="47" y="-6.3" text-anchor="end" font-size="10" fill="#57606a" font-family="ui-monospace, SFMono-Regular, 'SF Mono', Menlo, monospace">1,500</text>

  <!-- x-axis labels -->
  <text x="52.0" y="248" text-anchor="middle" font-size="10" fill="#8c959f" font-family="ui-monospace, SFMono-Regular, 'SF Mono', Menlo, monospace">05-11</text><text x="675.3" y="248" text-anchor="middle" font-size="10" fill="#8c959f" font-family="ui-monospace, SFMono-Regular, 'SF Mono', Menlo, monospace">06-15</text><text x="141.0" y="248" text-anchor="middle" font-size="10" fill="#8c959f" font-family="ui-monospace, SFMono-Regular, 'SF Mono', Menlo, monospace">05-16</text><text x="764.4" y="248" text-anchor="middle" font-size="10" fill="#8c959f" font-family="ui-monospace, SFMono-Regular, 'SF Mono', Menlo, monospace">06-20</text><text x="230.1" y="248" text-anchor="middle" font-size="10" fill="#8c959f" font-family="ui-monospace, SFMono-Regular, 'SF Mono', Menlo, monospace">05-21</text><text x="800.0" y="248" text-anchor="middle" font-size="10" fill="#8c959f" font-family="ui-monospace, SFMono-Regular, 'SF Mono', Menlo, monospace">06-22</text><text x="319.1" y="248" text-anchor="middle" font-size="10" fill="#8c959f" font-family="ui-monospace, SFMono-Regular, 'SF Mono', Menlo, monospace">05-26</text><text x="408.2" y="248" text-anchor="middle" font-size="10" fill="#8c959f" font-family="ui-monospace, SFMono-Regular, 'SF Mono', Menlo, monospace">05-31</text><text x="497.2" y="248" text-anchor="middle" font-size="10" fill="#8c959f" font-family="ui-monospace, SFMono-Regular, 'SF Mono', Menlo, monospace">06-05</text><text x="586.3" y="248" text-anchor="middle" font-size="10" fill="#8c959f" font-family="ui-monospace, SFMono-Regular, 'SF Mono', Menlo, monospace">06-10</text>

  <!-- legend -->
  <rect x="60" y="262" width="16" height="3" fill="#4e79a7" rx="1"/><text x="80" y="268" font-size="11" fill="#57606a" font-family="-apple-system, BlinkMacSystemFont, 'Segoe UI', sans-serif">Total clones (6,624)</text><line x1="230" y1="264" x2="246" y2="264" stroke="#f28e2b" stroke-width="2" stroke-dasharray="5,3"/><text x="250" y="268" font-size="11" fill="#57606a" font-family="-apple-system, BlinkMacSystemFont, 'Segoe UI', sans-serif">Unique cloners</text>

</svg>