<svg xmlns="http://www.w3.org/2000/svg" viewBox="0 0 820 280" width="820" height="280">

  <!-- title -->
  <text x="52" y="18" font-size="13" font-weight="600"
        fill="#24292f" font-family="-apple-system, BlinkMacSystemFont, 'Segoe UI', sans-serif"
        >Clone traffic — claude-reposec</text>
  <text x="800" y="18" font-size="10" fill="#8c959f"
        font-family="ui-monospace, SFMono-Regular, 'SF Mono', Menlo, monospace" text-anchor="end">2026-07-04</text>

  <!-- grid -->
  <line x1="52" y1="232.0" x2="800" y2="232.0" stroke="#e8e8e8" stroke-width="1"/><line x1="52" y1="185.6" x2="800" y2="185.6" stroke="#e8e8e8" stroke-width="1"/><line x1="52" y1="139.3" x2="800" y2="139.3" stroke="#e8e8e8" stroke-width="1"/><line x1="52" y1="92.9" x2="800" y2="92.9" stroke="#e8e8e8" stroke-width="1"/><line x1="52" y1="46.5" x2="800" y2="46.5" stroke="#e8e8e8" stroke-width="1"/><line x1="52" y1="0.2" x2="800" y2="0.2" stroke="#e8e8e8" stroke-width="1"/>

  <!-- area fill -->
  <path d="M52.0,232.0 L52.0,232.0 L67.0,232.0 L81.9,232.0 L96.9,232.0 L111.8,232.0 L126.8,232.0 L141.8,232.0 L156.7,232.0 L171.7,232.0 L186.6,232.0 L201.6,232.0 L216.6,232.0 L231.5,232.0 L246.5,101.0 L261.4,28.0 L276.4,223.9 L291.4,227.4 L306.3,229.7 L321.3,227.4 L336.2,228.5 L351.2,232.0 L366.2,228.5 L381.1,230.8 L396.1,230.8 L411.0,229.7 L426.0,232.0 L441.0,230.8 L455.9,230.8 L470.9,229.7 L485.8,232.0 L500.8,232.0 L515.8,230.8 L530.7,218.1 L545.7,230.8 L560.6,232.0 L575.6,232.0 L590.6,207.7 L605.5,206.5 L620.5,230.8 L635.4,229.7 L650.4,230.8 L665.4,230.8 L680.3,232.0 L695.3,232.0 L710.2,232.0 L725.2,232.0 L740.2,232.0 L755.1,230.8 L770.1,232.0 L785.0,230.8 L800.0,232.0 L800.0,232.0 L52.0,232.0Z" fill="#4e79a7" opacity="0.12"/>

  <!-- lines -->
  <polyline points="52.0,232.0 67.0,232.0 81.9,232.0 96.9,232.0 111.8,232.0 126.8,232.0 141.8,232.0 156.7,232.0 171.7,232.0 186.6,232.0 201.6,232.0 216.6,232.0 231.5,232.0 246.5,101.0 261.4,28.0 276.4,223.9 291.4,227.4 306.3,229.7 321.3,227.4 336.2,228.5 351.2,232.0 366.2,228.5 381.1,230.8 396.1,230.8 411.0,229.7 426.0,232.0 441.0,230.8 455.9,230.8 470.9,229.7 485.8,232.0 500.8,232.0 515.8,230.8 530.7,218.1 545.7,230.8 560.6,232.0 575.6,232.0 590.6,207.7 605.5,206.5 620.5,230.8 635.4,229.7 650.4,230.8 665.4,230.8 680.3,232.0 695.3,232.0 710.2,232.0 725.2,232.0 740.2,232.0 755.1,230.8 770.1,232.0 785.0,230.8 800.0,232.0"
            fill="none" stroke="#4e79a7"
            stroke-width="2" stroke-linejoin="round"/>
  <polyline points="52.0,232.0 67.0,232.0 81.9,232.0 96.9,232.0 111.8,232.0 126.8,232.0 141.8,232.0 156.7,232.0 171.7,232.0 186.6,232.0 201.6,232.0 216.6,232.0 231.5,232.0 246.5,168.2 261.4,142.8 276.4,226.2 291.4,227.4 306.3,229.7 321.3,228.5 336.2,228.5 351.2,232.0 366.2,228.5 381.1,230.8 396.1,230.8 411.0,229.7 426.0,232.0 441.0,230.8 455.9,230.8 470.9,229.7 485.8,232.0 500.8,232.0 515.8,230.8 530.7,228.5 545.7,230.8 560.6,232.0 575.6,232.0 590.6,220.4 605.5,223.9 620.5,230.8 635.4,229.7 650.4,230.8 665.4,230.8 680.3,232.0 695.3,232.0 710.2,232.0 725.2,232.0 740.2,232.0 755.1,230.8 770.1,232.0 785.0,230.8 800.0,232.0"
            fill="none" stroke="#f28e2b"
            stroke-width="2" stroke-linejoin="round"
            stroke-dasharray="5,3"/>

  <!-- dots -->
  <circle cx="52.0" cy="232.0" r="3" fill="#4e79a7"/><circle cx="67.0" cy="232.0" r="3" fill="#4e79a7"/><circle cx="81.9" cy="232.0" r="3" fill="#4e79a7"/><circle cx="96.9" cy="232.0" r="3" fill="#4e79a7"/><circle cx="111.8" cy="232.0" r="3" fill="#4e79a7"/><circle cx="126.8" cy="232.0" r="3" fill="#4e79a7"/><circle cx="141.8" cy="232.0" r="3" fill="#4e79a7"/><circle cx="156.7" cy="232.0" r="3" fill="#4e79a7"/><circle cx="171.7" cy="232.0" r="3" fill="#4e79a7"/><circle cx="186.6" cy="232.0" r="3" fill="#4e79a7"/><circle cx="201.6" cy="232.0" r="3" fill="#4e79a7"/><circle cx="216.6" cy="232.0" r="3" fill="#4e79a7"/><circle cx="231.5" cy="232.0" r="3" fill="#4e79a7"/><circle cx="246.5" cy="101.0" r="3" fill="#4e79a7"/><circle cx="261.4" cy="28.0" r="3" fill="#4e79a7"/><circle cx="276.4" cy="223.9" r="3" fill="#4e79a7"/><circle cx="291.4" cy="227.4" r="3" fill="#4e79a7"/><circle cx="306.3" cy="229.7" r="3" fill="#4e79a7"/><circle cx="321.3" cy="227.4" r="3" fill="#4e79a7"/><circle cx="336.2" cy="228.5" r="3" fill="#4e79a7"/><circle cx="351.2" cy="232.0" r="3" fill="#4e79a7"/><circle cx="366.2" cy="228.5" r="3" fill="#4e79a7"/><circle cx="381.1" cy="230.8" r="3" fill="#4e79a7"/><circle cx="396.1" cy="230.8" r="3" fill="#4e79a7"/><circle cx="411.0" cy="229.7" r="3" fill="#4e79a7"/><circle cx="426.0" cy="232.0" r="3" fill="#4e79a7"/><circle cx="441.0" cy="230.8" r="3" fill="#4e79a7"/><circle cx="455.9" cy="230.8" r="3" fill="#4e79a7"/><circle cx="470.9" cy="229.7" r="3" fill="#4e79a7"/><circle cx="485.8" cy="232.0" r="3" fill="#4e79a7"/><circle cx="500.8" cy="232.0" r="3" fill="#4e79a7"/><circle cx="515.8" cy="230.8" r="3" fill="#4e79a7"/><circle cx="530.7" cy="218.1" r="3" fill="#4e79a7"/><circle cx="545.7" cy="230.8" r="3" fill="#4e79a7"/><circle cx="560.6" cy="232.0" r="3" fill="#4e79a7"/><circle cx="575.6" cy="232.0" r="3" fill="#4e79a7"/><circle cx="590.6" cy="207.7" r="3" fill="#4e79a7"/><circle cx="605.5" cy="206.5" r="3" fill="#4e79a7"/><circle cx="620.5" cy="230.8" r="3" fill="#4e79a7"/><circle cx="635.4" cy="229.7" r="3" fill="#4e79a7"/><circle cx="650.4" cy="230.8" r="3" fill="#4e79a7"/><circle cx="665.4" cy="230.8" r="3" fill="#4e79a7"/><circle cx="680.3" cy="232.0" r="3" fill="#4e79a7"/><circle cx="695.3" cy="232.0" r="3" fill="#4e79a7"/><circle cx="710.2" cy="232.0" r="3" fill="#4e79a7"/><circle cx="725.2" cy="232.0" r="3" fill="#4e79a7"/><circle cx="740.2" cy="232.0" r="3" fill="#4e79a7"/><circle cx="755.1" cy="230.8" r="3" fill="#4e79a7"/><circle cx="770.1" cy="232.0" r="3" fill="#4e79a7"/><circle cx="785.0" cy="230.8" r="3" fill="#4e79a7"/><circle cx="800.0" cy="232.0" r="3" fill="#4e79a7"/>
  <circle cx="52.0" cy="232.0" r="3" fill="#f28e2b"/><circle cx="67.0" cy="232.0" r="3" fill="#f28e2b"/><circle cx="81.9" cy="232.0" r="3" fill="#f28e2b"/><circle cx="96.9" cy="232.0" r="3" fill="#f28e2b"/><circle cx="111.8" cy="232.0" r="3" fill="#f28e2b"/><circle cx="126.8" cy="232.0" r="3" fill="#f28e2b"/><circle cx="141.8" cy="232.0" r="3" fill="#f28e2b"/><circle cx="156.7" cy="232.0" r="3" fill="#f28e2b"/><circle cx="171.7" cy="232.0" r="3" fill="#f28e2b"/><circle cx="186.6" cy="232.0" r="3" fill="#f28e2b"/><circle cx="201.6" cy="232.0" r="3" fill="#f28e2b"/><circle cx="216.6" cy="232.0" r="3" fill="#f28e2b"/><circle cx="231.5" cy="232.0" r="3" fill="#f28e2b"/><circle cx="246.5" cy="168.2" r="3" fill="#f28e2b"/><circle cx="261.4" cy="142.8" r="3" fill="#f28e2b"/><circle cx="276.4" cy="226.2" r="3" fill="#f28e2b"/><circle cx="291.4" cy="227.4" r="3" fill="#f28e2b"/><circle cx="306.3" cy="229.7" r="3" fill="#f28e2b"/><circle cx="321.3" cy="228.5" r="3" fill="#f28e2b"/><circle cx="336.2" cy="228.5" r="3" fill="#f28e2b"/><circle cx="351.2" cy="232.0" r="3" fill="#f28e2b"/><circle cx="366.2" cy="228.5" r="3" fill="#f28e2b"/><circle cx="381.1" cy="230.8" r="3" fill="#f28e2b"/><circle cx="396.1" cy="230.8" r="3" fill="#f28e2b"/><circle cx="411.0" cy="229.7" r="3" fill="#f28e2b"/><circle cx="426.0" cy="232.0" r="3" fill="#f28e2b"/><circle cx="441.0" cy="230.8" r="3" fill="#f28e2b"/><circle cx="455.9" cy="230.8" r="3" fill="#f28e2b"/><circle cx="470.9" cy="229.7" r="3" fill="#f28e2b"/><circle cx="485.8" cy="232.0" r="3" fill="#f28e2b"/><circle cx="500.8" cy="232.0" r="3" fill="#f28e2b"/><circle cx="515.8" cy="230.8" r="3" fill="#f28e2b"/><circle cx="530.7" cy="228.5" r="3" fill="#f28e2b"/><circle cx="545.7" cy="230.8" r="3" fill="#f28e2b"/><circle cx="560.6" cy="232.0" r="3" fill="#f28e2b"/><circle cx="575.6" cy="232.0" r="3" fill="#f28e2b"/><circle cx="590.6" cy="220.4" r="3" fill="#f28e2b"/><circle cx="605.5" cy="223.9" r="3" fill="#f28e2b"/><circle cx="620.5" cy="230.8" r="3" fill="#f28e2b"/><circle cx="635.4" cy="229.7" r="3" fill="#f28e2b"/><circle cx="650.4" cy="230.8" r="3" fill="#f28e2b"/><circle cx="665.4" cy="230.8" r="3" fill="#f28e2b"/><circle cx="680.3" cy="232.0" r="3" fill="#f28e2b"/><circle cx="695.3" cy="232.0" r="3" fill="#f28e2b"/><circle cx="710.2" cy="232.0" r="3" fill="#f28e2b"/><circle cx="725.2" cy="232.0" r="3" fill="#f28e2b"/><circle cx="740.2" cy="232.0" r="3" fill="#f28e2b"/><circle cx="755.1" cy="230.8" r="3" fill="#f28e2b"/><circle cx="770.1" cy="232.0" r="3" fill="#f28e2b"/><circle cx="785.0" cy="230.8" r="3" fill="#f28e2b"/><circle cx="800.0" cy="232.0" r="3" fill="#f28e2b"/>

  <!-- axes -->
  <line x1="52" y1="28" x2="52" y2="232"
        stroke="#cccccc" stroke-width="1"/>
  <line x1="52" y1="232" x2="800" y2="232"
        stroke="#cccccc" stroke-width="1"/>

  <!-- y-axis labels -->
  <text x="47" y="236.0" text-anchor="end" font-size="10" fill="#57606a" font-family="ui-monospace, SFMono-Regular, 'SF Mono', Menlo, monospace">0</text><text x="47" y="189.6" text-anchor="end" font-size="10" fill="#57606a" font-family="ui-monospace, SFMono-Regular, 'SF Mono', Menlo, monospace">40</text><text x="47" y="143.3" text-anchor="end" font-size="10" fill="#57606a" font-family="ui-monospace, SFMono-Regular, 'SF Mono', Menlo, monospace">80</text><text x="47" y="96.9" text-anchor="end" font-size="10" fill="#57606a" font-family="ui-monospace, SFMono-Regular, 'SF Mono', Menlo, monospace">120</text><text x="47" y="50.5" text-anchor="end" font-size="10" fill="#57606a" font-family="ui-monospace, SFMono-Regular, 'SF Mono', Menlo, monospace">160</text><text x="47" y="4.2" text-anchor="end" font-size="10" fill="#57606a" font-family="ui-monospace, SFMono-Regular, 'SF Mono', Menlo, monospace">200</text>

  <!-- x-axis labels -->
  <text x="52.0" y="248" text-anchor="middle" font-size="10" fill="#8c959f" font-family="ui-monospace, SFMono-Regular, 'SF Mono', Menlo, monospace">05-13</text><text x="590.6" y="248" text-anchor="middle" font-size="10" fill="#8c959f" font-family="ui-monospace, SFMono-Regular, 'SF Mono', Menlo, monospace">06-18</text><text x="141.8" y="248" text-anchor="middle" font-size="10" fill="#8c959f" font-family="ui-monospace, SFMono-Regular, 'SF Mono', Menlo, monospace">05-19</text><text x="680.3" y="248" text-anchor="middle" font-size="10" fill="#8c959f" font-family="ui-monospace, SFMono-Regular, 'SF Mono', Menlo, monospace">06-24</text><text x="231.5" y="248" text-anchor="middle" font-size="10" fill="#8c959f" font-family="ui-monospace, SFMono-Regular, 'SF Mono', Menlo, monospace">05-25</text><text x="770.1" y="248" text-anchor="middle" font-size="10" fill="#8c959f" font-family="ui-monospace, SFMono-Regular, 'SF Mono', Menlo, monospace">06-30</text><text x="321.3" y="248" text-anchor="middle" font-size="10" fill="#8c959f" font-family="ui-monospace, SFMono-Regular, 'SF Mono', Menlo, monospace">05-31</text><text x="800.0" y="248" text-anchor="middle" font-size="10" fill="#8c959f" font-family="ui-monospace, SFMono-Regular, 'SF Mono', Menlo, monospace">07-02</text><text x="411.0" y="248" text-anchor="middle" font-size="10" fill="#8c959f" font-family="ui-monospace, SFMono-Regular, 'SF Mono', Menlo, monospace">06-06</text><text x="500.8" y="248" text-anchor="middle" font-size="10" fill="#8c959f" font-family="ui-monospace, SFMono-Regular, 'SF Mono', Menlo, monospace">06-12</text>

  <!-- legend -->
  <rect x="60" y="262" width="16" height="3" fill="#4e79a7" rx="1"/><text x="80" y="268" font-size="11" fill="#57606a" font-family="-apple-system, BlinkMacSystemFont, 'Segoe UI', sans-serif">Total clones (384)</text><line x1="230" y1="264" x2="246" y2="264" stroke="#f28e2b" stroke-width="2" stroke-dasharray="5,3"/><text x="250" y="268" font-size="11" fill="#57606a" font-family="-apple-system, BlinkMacSystemFont, 'Segoe UI', sans-serif">Unique cloners</text>

</svg>