<svg xmlns="http://www.w3.org/2000/svg" viewBox="0 0 820 280" width="820" height="280">

  <!-- title -->
  <text x="52" y="18" font-size="13" font-weight="600"
        fill="#24292f" font-family="-apple-system, BlinkMacSystemFont, 'Segoe UI', sans-serif"
        >Clone traffic — claude-reposec</text>
  <text x="800" y="18" font-size="10" fill="#8c959f"
        font-family="ui-monospace, SFMono-Regular, 'SF Mono', Menlo, monospace" text-anchor="end">2026-07-14</text>

  <!-- grid -->
  <line x1="52" y1="232.0" x2="800" y2="232.0" stroke="#e8e8e8" stroke-width="1"/><line x1="52" y1="185.6" x2="800" y2="185.6" stroke="#e8e8e8" stroke-width="1"/><line x1="52" y1="139.3" x2="800" y2="139.3" stroke="#e8e8e8" stroke-width="1"/><line x1="52" y1="92.9" x2="800" y2="92.9" stroke="#e8e8e8" stroke-width="1"/><line x1="52" y1="46.5" x2="800" y2="46.5" stroke="#e8e8e8" stroke-width="1"/><line x1="52" y1="0.2" x2="800" y2="0.2" stroke="#e8e8e8" stroke-width="1"/>

  <!-- area fill -->
  <path d="M52.0,232.0 L52.0,232.0 L64.5,232.0 L76.9,232.0 L89.4,232.0 L101.9,232.0 L114.3,232.0 L126.8,232.0 L139.3,232.0 L151.7,232.0 L164.2,232.0 L176.7,232.0 L189.1,232.0 L201.6,232.0 L214.1,101.0 L226.5,28.0 L239.0,223.9 L251.5,227.4 L263.9,229.7 L276.4,227.4 L288.9,228.5 L301.3,232.0 L313.8,228.5 L326.3,230.8 L338.7,230.8 L351.2,229.7 L363.7,232.0 L376.1,230.8 L388.6,230.8 L401.1,229.7 L413.5,232.0 L426.0,232.0 L438.5,230.8 L450.9,218.1 L463.4,230.8 L475.9,232.0 L488.3,232.0 L500.8,207.7 L513.3,206.5 L525.7,230.8 L538.2,229.7 L550.7,230.8 L563.1,230.8 L575.6,232.0 L588.1,232.0 L600.5,232.0 L613.0,232.0 L625.5,232.0 L637.9,230.8 L650.4,232.0 L662.9,230.8 L675.3,232.0 L687.8,232.0 L700.3,232.0 L712.7,232.0 L725.2,230.8 L737.7,232.0 L750.1,232.0 L762.6,232.0 L775.1,230.8 L787.5,230.8 L800.0,232.0 L800.0,232.0 L52.0,232.0Z" fill="#4e79a7" opacity="0.12"/>

  <!-- lines -->
  <polyline points="52.0,232.0 64.5,232.0 76.9,232.0 89.4,232.0 101.9,232.0 114.3,232.0 126.8,232.0 139.3,232.0 151.7,232.0 164.2,232.0 176.7,232.0 189.1,232.0 201.6,232.0 214.1,101.0 226.5,28.0 239.0,223.9 251.5,227.4 263.9,229.7 276.4,227.4 288.9,228.5 301.3,232.0 313.8,228.5 326.3,230.8 338.7,230.8 351.2,229.7 363.7,232.0 376.1,230.8 388.6,230.8 401.1,229.7 413.5,232.0 426.0,232.0 438.5,230.8 450.9,218.1 463.4,230.8 475.9,232.0 488.3,232.0 500.8,207.7 513.3,206.5 525.7,230.8 538.2,229.7 550.7,230.8 563.1,230.8 575.6,232.0 588.1,232.0 600.5,232.0 613.0,232.0 625.5,232.0 637.9,230.8 650.4,232.0 662.9,230.8 675.3,232.0 687.8,232.0 700.3,232.0 712.7,232.0 725.2,230.8 737.7,232.0 750.1,232.0 762.6,232.0 775.1,230.8 787.5,230.8 800.0,232.0"
            fill="none" stroke="#4e79a7"
            stroke-width="2" stroke-linejoin="round"/>
  <polyline points="52.0,232.0 64.5,232.0 76.9,232.0 89.4,232.0 101.9,232.0 114.3,232.0 126.8,232.0 139.3,232.0 151.7,232.0 164.2,232.0 176.7,232.0 189.1,232.0 201.6,232.0 214.1,168.2 226.5,142.8 239.0,226.2 251.5,227.4 263.9,229.7 276.4,228.5 288.9,228.5 301.3,232.0 313.8,228.5 326.3,230.8 338.7,230.8 351.2,229.7 363.7,232.0 376.1,230.8 388.6,230.8 401.1,229.7 413.5,232.0 426.0,232.0 438.5,230.8 450.9,228.5 463.4,230.8 475.9,232.0 488.3,232.0 500.8,220.4 513.3,223.9 525.7,230.8 538.2,229.7 550.7,230.8 563.1,230.8 575.6,232.0 588.1,232.0 600.5,232.0 613.0,232.0 625.5,232.0 637.9,230.8 650.4,232.0 662.9,230.8 675.3,232.0 687.8,232.0 700.3,232.0 712.7,232.0 725.2,230.8 737.7,232.0 750.1,232.0 762.6,232.0 775.1,230.8 787.5,230.8 800.0,232.0"
            fill="none" stroke="#f28e2b"
            stroke-width="2" stroke-linejoin="round"
            stroke-dasharray="5,3"/>

  <!-- dots -->
  <circle cx="52.0" cy="232.0" r="3" fill="#4e79a7"/><circle cx="64.5" cy="232.0" r="3" fill="#4e79a7"/><circle cx="76.9" cy="232.0" r="3" fill="#4e79a7"/><circle cx="89.4" cy="232.0" r="3" fill="#4e79a7"/><circle cx="101.9" cy="232.0" r="3" fill="#4e79a7"/><circle cx="114.3" cy="232.0" r="3" fill="#4e79a7"/><circle cx="126.8" cy="232.0" r="3" fill="#4e79a7"/><circle cx="139.3" cy="232.0" r="3" fill="#4e79a7"/><circle cx="151.7" cy="232.0" r="3" fill="#4e79a7"/><circle cx="164.2" cy="232.0" r="3" fill="#4e79a7"/><circle cx="176.7" cy="232.0" r="3" fill="#4e79a7"/><circle cx="189.1" cy="232.0" r="3" fill="#4e79a7"/><circle cx="201.6" cy="232.0" r="3" fill="#4e79a7"/><circle cx="214.1" cy="101.0" r="3" fill="#4e79a7"/><circle cx="226.5" cy="28.0" r="3" fill="#4e79a7"/><circle cx="239.0" cy="223.9" r="3" fill="#4e79a7"/><circle cx="251.5" cy="227.4" r="3" fill="#4e79a7"/><circle cx="263.9" cy="229.7" r="3" fill="#4e79a7"/><circle cx="276.4" cy="227.4" r="3" fill="#4e79a7"/><circle cx="288.9" cy="228.5" r="3" fill="#4e79a7"/><circle cx="301.3" cy="232.0" r="3" fill="#4e79a7"/><circle cx="313.8" cy="228.5" r="3" fill="#4e79a7"/><circle cx="326.3" cy="230.8" r="3" fill="#4e79a7"/><circle cx="338.7" cy="230.8" r="3" fill="#4e79a7"/><circle cx="351.2" cy="229.7" r="3" fill="#4e79a7"/><circle cx="363.7" cy="232.0" r="3" fill="#4e79a7"/><circle cx="376.1" cy="230.8" r="3" fill="#4e79a7"/><circle cx="388.6" cy="230.8" r="3" fill="#4e79a7"/><circle cx="401.1" cy="229.7" r="3" fill="#4e79a7"/><circle cx="413.5" cy="232.0" r="3" fill="#4e79a7"/><circle cx="426.0" cy="232.0" r="3" fill="#4e79a7"/><circle cx="438.5" cy="230.8" r="3" fill="#4e79a7"/><circle cx="450.9" cy="218.1" r="3" fill="#4e79a7"/><circle cx="463.4" cy="230.8" r="3" fill="#4e79a7"/><circle cx="475.9" cy="232.0" r="3" fill="#4e79a7"/><circle cx="488.3" cy="232.0" r="3" fill="#4e79a7"/><circle cx="500.8" cy="207.7" r="3" fill="#4e79a7"/><circle cx="513.3" cy="206.5" r="3" fill="#4e79a7"/><circle cx="525.7" cy="230.8" r="3" fill="#4e79a7"/><circle cx="538.2" cy="229.7" r="3" fill="#4e79a7"/><circle cx="550.7" cy="230.8" r="3" fill="#4e79a7"/><circle cx="563.1" cy="230.8" r="3" fill="#4e79a7"/><circle cx="575.6" cy="232.0" r="3" fill="#4e79a7"/><circle cx="588.1" cy="232.0" r="3" fill="#4e79a7"/><circle cx="600.5" cy="232.0" r="3" fill="#4e79a7"/><circle cx="613.0" cy="232.0" r="3" fill="#4e79a7"/><circle cx="625.5" cy="232.0" r="3" fill="#4e79a7"/><circle cx="637.9" cy="230.8" r="3" fill="#4e79a7"/><circle cx="650.4" cy="232.0" r="3" fill="#4e79a7"/><circle cx="662.9" cy="230.8" r="3" fill="#4e79a7"/><circle cx="675.3" cy="232.0" r="3" fill="#4e79a7"/><circle cx="687.8" cy="232.0" r="3" fill="#4e79a7"/><circle cx="700.3" cy="232.0" r="3" fill="#4e79a7"/><circle cx="712.7" cy="232.0" r="3" fill="#4e79a7"/><circle cx="725.2" cy="230.8" r="3" fill="#4e79a7"/><circle cx="737.7" cy="232.0" r="3" fill="#4e79a7"/><circle cx="750.1" cy="232.0" r="3" fill="#4e79a7"/><circle cx="762.6" cy="232.0" r="3" fill="#4e79a7"/><circle cx="775.1" cy="230.8" r="3" fill="#4e79a7"/><circle cx="787.5" cy="230.8" r="3" fill="#4e79a7"/><circle cx="800.0" cy="232.0" r="3" fill="#4e79a7"/>
  <circle cx="52.0" cy="232.0" r="3" fill="#f28e2b"/><circle cx="64.5" cy="232.0" r="3" fill="#f28e2b"/><circle cx="76.9" cy="232.0" r="3" fill="#f28e2b"/><circle cx="89.4" cy="232.0" r="3" fill="#f28e2b"/><circle cx="101.9" cy="232.0" r="3" fill="#f28e2b"/><circle cx="114.3" cy="232.0" r="3" fill="#f28e2b"/><circle cx="126.8" cy="232.0" r="3" fill="#f28e2b"/><circle cx="139.3" cy="232.0" r="3" fill="#f28e2b"/><circle cx="151.7" cy="232.0" r="3" fill="#f28e2b"/><circle cx="164.2" cy="232.0" r="3" fill="#f28e2b"/><circle cx="176.7" cy="232.0" r="3" fill="#f28e2b"/><circle cx="189.1" cy="232.0" r="3" fill="#f28e2b"/><circle cx="201.6" cy="232.0" r="3" fill="#f28e2b"/><circle cx="214.1" cy="168.2" r="3" fill="#f28e2b"/><circle cx="226.5" cy="142.8" r="3" fill="#f28e2b"/><circle cx="239.0" cy="226.2" r="3" fill="#f28e2b"/><circle cx="251.5" cy="227.4" r="3" fill="#f28e2b"/><circle cx="263.9" cy="229.7" r="3" fill="#f28e2b"/><circle cx="276.4" cy="228.5" r="3" fill="#f28e2b"/><circle cx="288.9" cy="228.5" r="3" fill="#f28e2b"/><circle cx="301.3" cy="232.0" r="3" fill="#f28e2b"/><circle cx="313.8" cy="228.5" r="3" fill="#f28e2b"/><circle cx="326.3" cy="230.8" r="3" fill="#f28e2b"/><circle cx="338.7" cy="230.8" r="3" fill="#f28e2b"/><circle cx="351.2" cy="229.7" r="3" fill="#f28e2b"/><circle cx="363.7" cy="232.0" r="3" fill="#f28e2b"/><circle cx="376.1" cy="230.8" r="3" fill="#f28e2b"/><circle cx="388.6" cy="230.8" r="3" fill="#f28e2b"/><circle cx="401.1" cy="229.7" r="3" fill="#f28e2b"/><circle cx="413.5" cy="232.0" r="3" fill="#f28e2b"/><circle cx="426.0" cy="232.0" r="3" fill="#f28e2b"/><circle cx="438.5" cy="230.8" r="3" fill="#f28e2b"/><circle cx="450.9" cy="228.5" r="3" fill="#f28e2b"/><circle cx="463.4" cy="230.8" r="3" fill="#f28e2b"/><circle cx="475.9" cy="232.0" r="3" fill="#f28e2b"/><circle cx="488.3" cy="232.0" r="3" fill="#f28e2b"/><circle cx="500.8" cy="220.4" r="3" fill="#f28e2b"/><circle cx="513.3" cy="223.9" r="3" fill="#f28e2b"/><circle cx="525.7" cy="230.8" r="3" fill="#f28e2b"/><circle cx="538.2" cy="229.7" r="3" fill="#f28e2b"/><circle cx="550.7" cy="230.8" r="3" fill="#f28e2b"/><circle cx="563.1" cy="230.8" r="3" fill="#f28e2b"/><circle cx="575.6" cy="232.0" r="3" fill="#f28e2b"/><circle cx="588.1" cy="232.0" r="3" fill="#f28e2b"/><circle cx="600.5" cy="232.0" r="3" fill="#f28e2b"/><circle cx="613.0" cy="232.0" r="3" fill="#f28e2b"/><circle cx="625.5" cy="232.0" r="3" fill="#f28e2b"/><circle cx="637.9" cy="230.8" r="3" fill="#f28e2b"/><circle cx="650.4" cy="232.0" r="3" fill="#f28e2b"/><circle cx="662.9" cy="230.8" r="3" fill="#f28e2b"/><circle cx="675.3" cy="232.0" r="3" fill="#f28e2b"/><circle cx="687.8" cy="232.0" r="3" fill="#f28e2b"/><circle cx="700.3" cy="232.0" r="3" fill="#f28e2b"/><circle cx="712.7" cy="232.0" r="3" fill="#f28e2b"/><circle cx="725.2" cy="230.8" r="3" fill="#f28e2b"/><circle cx="737.7" cy="232.0" r="3" fill="#f28e2b"/><circle cx="750.1" cy="232.0" r="3" fill="#f28e2b"/><circle cx="762.6" cy="232.0" r="3" fill="#f28e2b"/><circle cx="775.1" cy="230.8" r="3" fill="#f28e2b"/><circle cx="787.5" cy="230.8" r="3" fill="#f28e2b"/><circle cx="800.0" cy="232.0" r="3" fill="#f28e2b"/>

  <!-- axes -->
  <line x1="52" y1="28" x2="52" y2="232"
        stroke="#cccccc" stroke-width="1"/>
  <line x1="52" y1="232" x2="800" y2="232"
        stroke="#cccccc" stroke-width="1"/>

  <!-- y-axis labels -->
  <text x="47" y="236.0" text-anchor="end" font-size="10" fill="#57606a" font-family="ui-monospace, SFMono-Regular, 'SF Mono', Menlo, monospace">0</text><text x="47" y="189.6" text-anchor="end" font-size="10" fill="#57606a" font-family="ui-monospace, SFMono-Regular, 'SF Mono', Menlo, monospace">40</text><text x="47" y="143.3" text-anchor="end" font-size="10" fill="#57606a" font-family="ui-monospace, SFMono-Regular, 'SF Mono', Menlo, monospace">80</text><text x="47" y="96.9" text-anchor="end" font-size="10" fill="#57606a" font-family="ui-monospace, SFMono-Regular, 'SF Mono', Menlo, monospace">120</text><text x="47" y="50.5" text-anchor="end" font-size="10" fill="#57606a" font-family="ui-monospace, SFMono-Regular, 'SF Mono', Menlo, monospace">160</text><text x="47" y="4.2" text-anchor="end" font-size="10" fill="#57606a" font-family="ui-monospace, SFMono-Regular, 'SF Mono', Menlo, monospace">200</text>

  <!-- x-axis labels -->
  <text x="52.0" y="248" text-anchor="middle" font-size="10" fill="#8c959f" font-family="ui-monospace, SFMono-Regular, 'SF Mono', Menlo, monospace">05-13</text><text x="488.3" y="248" text-anchor="middle" font-size="10" fill="#8c959f" font-family="ui-monospace, SFMono-Regular, 'SF Mono', Menlo, monospace">06-17</text><text x="139.3" y="248" text-anchor="middle" font-size="10" fill="#8c959f" font-family="ui-monospace, SFMono-Regular, 'SF Mono', Menlo, monospace">05-20</text><text x="575.6" y="248" text-anchor="middle" font-size="10" fill="#8c959f" font-family="ui-monospace, SFMono-Regular, 'SF Mono', Menlo, monospace">06-24</text><text x="226.5" y="248" text-anchor="middle" font-size="10" fill="#8c959f" font-family="ui-monospace, SFMono-Regular, 'SF Mono', Menlo, monospace">05-27</text><text x="800.0" y="248" text-anchor="middle" font-size="10" fill="#8c959f" font-family="ui-monospace, SFMono-Regular, 'SF Mono', Menlo, monospace">07-12</text><text x="662.9" y="248" text-anchor="middle" font-size="10" fill="#8c959f" font-family="ui-monospace, SFMono-Regular, 'SF Mono', Menlo, monospace">07-01</text><text x="313.8" y="248" text-anchor="middle" font-size="10" fill="#8c959f" font-family="ui-monospace, SFMono-Regular, 'SF Mono', Menlo, monospace">06-03</text><text x="750.1" y="248" text-anchor="middle" font-size="10" fill="#8c959f" font-family="ui-monospace, SFMono-Regular, 'SF Mono', Menlo, monospace">07-08</text><text x="401.1" y="248" text-anchor="middle" font-size="10" fill="#8c959f" font-family="ui-monospace, SFMono-Regular, 'SF Mono', Menlo, monospace">06-10</text>

  <!-- legend -->
  <rect x="60" y="262" width="16" height="3" fill="#4e79a7" rx="1"/><text x="80" y="268" font-size="11" fill="#57606a" font-family="-apple-system, BlinkMacSystemFont, 'Segoe UI', sans-serif">Total clones (387)</text><line x1="230" y1="264" x2="246" y2="264" stroke="#f28e2b" stroke-width="2" stroke-dasharray="5,3"/><text x="250" y="268" font-size="11" fill="#57606a" font-family="-apple-system, BlinkMacSystemFont, 'Segoe UI', sans-serif">Unique cloners</text>

</svg>