<svg xmlns="http://www.w3.org/2000/svg" viewBox="0 0 820 280" width="820" height="280">

  <!-- title -->
  <text x="52" y="18" font-size="13" font-weight="600"
        fill="#24292f" font-family="-apple-system, BlinkMacSystemFont, 'Segoe UI', sans-serif"
        >Clone traffic — denial-shield</text>
  <text x="800" y="18" font-size="10" fill="#8c959f"
        font-family="ui-monospace, SFMono-Regular, 'SF Mono', Menlo, monospace" text-anchor="end">2026-06-07</text>

  <!-- grid -->
  <line x1="52" y1="232.0" x2="800" y2="232.0" stroke="#e8e8e8" stroke-width="1"/><line x1="52" y1="187.4" x2="800" y2="187.4" stroke="#e8e8e8" stroke-width="1"/><line x1="52" y1="142.8" x2="800" y2="142.8" stroke="#e8e8e8" stroke-width="1"/><line x1="52" y1="98.2" x2="800" y2="98.2" stroke="#e8e8e8" stroke-width="1"/><line x1="52" y1="53.6" x2="800" y2="53.6" stroke="#e8e8e8" stroke-width="1"/><line x1="52" y1="9.0" x2="800" y2="9.0" stroke="#e8e8e8" stroke-width="1"/>

  <!-- area fill -->
  <path d="M52.0,232.0 L52.0,232.0 L81.9,230.9 L111.8,228.7 L141.8,232.0 L171.7,229.8 L201.6,232.0 L231.5,232.0 L261.4,232.0 L291.4,230.9 L321.3,232.0 L351.2,232.0 L381.1,28.0 L411.0,223.1 L441.0,232.0 L470.9,219.7 L500.8,230.9 L530.7,229.8 L560.6,230.9 L590.6,229.8 L620.5,232.0 L650.4,230.9 L680.3,232.0 L710.2,230.9 L740.2,230.9 L770.1,232.0 L800.0,230.9 L800.0,232.0 L52.0,232.0Z" fill="#4e79a7" opacity="0.12"/>

  <!-- lines -->
  <polyline points="52.0,232.0 81.9,230.9 111.8,228.7 141.8,232.0 171.7,229.8 201.6,232.0 231.5,232.0 261.4,232.0 291.4,230.9 321.3,232.0 351.2,232.0 381.1,28.0 411.0,223.1 441.0,232.0 470.9,219.7 500.8,230.9 530.7,229.8 560.6,230.9 590.6,229.8 620.5,232.0 650.4,230.9 680.3,232.0 710.2,230.9 740.2,230.9 770.1,232.0 800.0,230.9"
            fill="none" stroke="#4e79a7"
            stroke-width="2" stroke-linejoin="round"/>
  <polyline points="52.0,232.0 81.9,230.9 111.8,228.7 141.8,232.0 171.7,229.8 201.6,232.0 231.5,232.0 261.4,232.0 291.4,230.9 321.3,232.0 351.2,232.0 381.1,156.2 411.0,227.5 441.0,232.0 470.9,223.1 500.8,230.9 530.7,229.8 560.6,230.9 590.6,229.8 620.5,232.0 650.4,230.9 680.3,232.0 710.2,230.9 740.2,230.9 770.1,232.0 800.0,230.9"
            fill="none" stroke="#f28e2b"
            stroke-width="2" stroke-linejoin="round"
            stroke-dasharray="5,3"/>

  <!-- dots -->
  <circle cx="52.0" cy="232.0" r="3" fill="#4e79a7"/><circle cx="81.9" cy="230.9" r="3" fill="#4e79a7"/><circle cx="111.8" cy="228.7" r="3" fill="#4e79a7"/><circle cx="141.8" cy="232.0" r="3" fill="#4e79a7"/><circle cx="171.7" cy="229.8" r="3" fill="#4e79a7"/><circle cx="201.6" cy="232.0" r="3" fill="#4e79a7"/><circle cx="231.5" cy="232.0" r="3" fill="#4e79a7"/><circle cx="261.4" cy="232.0" r="3" fill="#4e79a7"/><circle cx="291.4" cy="230.9" r="3" fill="#4e79a7"/><circle cx="321.3" cy="232.0" r="3" fill="#4e79a7"/><circle cx="351.2" cy="232.0" r="3" fill="#4e79a7"/><circle cx="381.1" cy="28.0" r="3" fill="#4e79a7"/><circle cx="411.0" cy="223.1" r="3" fill="#4e79a7"/><circle cx="441.0" cy="232.0" r="3" fill="#4e79a7"/><circle cx="470.9" cy="219.7" r="3" fill="#4e79a7"/><circle cx="500.8" cy="230.9" r="3" fill="#4e79a7"/><circle cx="530.7" cy="229.8" r="3" fill="#4e79a7"/><circle cx="560.6" cy="230.9" r="3" fill="#4e79a7"/><circle cx="590.6" cy="229.8" r="3" fill="#4e79a7"/><circle cx="620.5" cy="232.0" r="3" fill="#4e79a7"/><circle cx="650.4" cy="230.9" r="3" fill="#4e79a7"/><circle cx="680.3" cy="232.0" r="3" fill="#4e79a7"/><circle cx="710.2" cy="230.9" r="3" fill="#4e79a7"/><circle cx="740.2" cy="230.9" r="3" fill="#4e79a7"/><circle cx="770.1" cy="232.0" r="3" fill="#4e79a7"/><circle cx="800.0" cy="230.9" r="3" fill="#4e79a7"/>
  <circle cx="52.0" cy="232.0" r="3" fill="#f28e2b"/><circle cx="81.9" cy="230.9" r="3" fill="#f28e2b"/><circle cx="111.8" cy="228.7" r="3" fill="#f28e2b"/><circle cx="141.8" cy="232.0" r="3" fill="#f28e2b"/><circle cx="171.7" cy="229.8" r="3" fill="#f28e2b"/><circle cx="201.6" cy="232.0" r="3" fill="#f28e2b"/><circle cx="231.5" cy="232.0" r="3" fill="#f28e2b"/><circle cx="261.4" cy="232.0" r="3" fill="#f28e2b"/><circle cx="291.4" cy="230.9" r="3" fill="#f28e2b"/><circle cx="321.3" cy="232.0" r="3" fill="#f28e2b"/><circle cx="351.2" cy="232.0" r="3" fill="#f28e2b"/><circle cx="381.1" cy="156.2" r="3" fill="#f28e2b"/><circle cx="411.0" cy="227.5" r="3" fill="#f28e2b"/><circle cx="441.0" cy="232.0" r="3" fill="#f28e2b"/><circle cx="470.9" cy="223.1" r="3" fill="#f28e2b"/><circle cx="500.8" cy="230.9" r="3" fill="#f28e2b"/><circle cx="530.7" cy="229.8" r="3" fill="#f28e2b"/><circle cx="560.6" cy="230.9" r="3" fill="#f28e2b"/><circle cx="590.6" cy="229.8" r="3" fill="#f28e2b"/><circle cx="620.5" cy="232.0" r="3" fill="#f28e2b"/><circle cx="650.4" cy="230.9" r="3" fill="#f28e2b"/><circle cx="680.3" cy="232.0" r="3" fill="#f28e2b"/><circle cx="710.2" cy="230.9" r="3" fill="#f28e2b"/><circle cx="740.2" cy="230.9" r="3" fill="#f28e2b"/><circle cx="770.1" cy="232.0" r="3" fill="#f28e2b"/><circle cx="800.0" cy="230.9" r="3" fill="#f28e2b"/>

  <!-- axes -->
  <line x1="52" y1="28" x2="52" y2="232"
        stroke="#cccccc" stroke-width="1"/>
  <line x1="52" y1="232" x2="800" y2="232"
        stroke="#cccccc" stroke-width="1"/>

  <!-- y-axis labels -->
  <text x="47" y="236.0" text-anchor="end" font-size="10" fill="#57606a" font-family="ui-monospace, SFMono-Regular, 'SF Mono', Menlo, monospace">0</text><text x="47" y="191.4" text-anchor="end" font-size="10" fill="#57606a" font-family="ui-monospace, SFMono-Regular, 'SF Mono', Menlo, monospace">40</text><text x="47" y="146.8" text-anchor="end" font-size="10" fill="#57606a" font-family="ui-monospace, SFMono-Regular, 'SF Mono', Menlo, monospace">80</text><text x="47" y="102.2" text-anchor="end" font-size="10" fill="#57606a" font-family="ui-monospace, SFMono-Regular, 'SF Mono', Menlo, monospace">120</text><text x="47" y="57.6" text-anchor="end" font-size="10" fill="#57606a" font-family="ui-monospace, SFMono-Regular, 'SF Mono', Menlo, monospace">160</text><text x="47" y="13.0" text-anchor="end" font-size="10" fill="#57606a" font-family="ui-monospace, SFMono-Regular, 'SF Mono', Menlo, monospace">200</text>

  <!-- x-axis labels -->
  <text x="52.0" y="248" text-anchor="middle" font-size="10" fill="#8c959f" font-family="ui-monospace, SFMono-Regular, 'SF Mono', Menlo, monospace">05-11</text><text x="141.8" y="248" text-anchor="middle" font-size="10" fill="#8c959f" font-family="ui-monospace, SFMono-Regular, 'SF Mono', Menlo, monospace">05-14</text><text x="231.5" y="248" text-anchor="middle" font-size="10" fill="#8c959f" font-family="ui-monospace, SFMono-Regular, 'SF Mono', Menlo, monospace">05-17</text><text x="321.3" y="248" text-anchor="middle" font-size="10" fill="#8c959f" font-family="ui-monospace, SFMono-Regular, 'SF Mono', Menlo, monospace">05-20</text><text x="411.0" y="248" text-anchor="middle" font-size="10" fill="#8c959f" font-family="ui-monospace, SFMono-Regular, 'SF Mono', Menlo, monospace">05-23</text><text x="500.8" y="248" text-anchor="middle" font-size="10" fill="#8c959f" font-family="ui-monospace, SFMono-Regular, 'SF Mono', Menlo, monospace">05-26</text><text x="590.6" y="248" text-anchor="middle" font-size="10" fill="#8c959f" font-family="ui-monospace, SFMono-Regular, 'SF Mono', Menlo, monospace">05-29</text><text x="680.3" y="248" text-anchor="middle" font-size="10" fill="#8c959f" font-family="ui-monospace, SFMono-Regular, 'SF Mono', Menlo, monospace">06-01</text><text x="770.1" y="248" text-anchor="middle" font-size="10" fill="#8c959f" font-family="ui-monospace, SFMono-Regular, 'SF Mono', Menlo, monospace">06-04</text><text x="800.0" y="248" text-anchor="middle" font-size="10" fill="#8c959f" font-family="ui-monospace, SFMono-Regular, 'SF Mono', Menlo, monospace">06-05</text>

  <!-- legend -->
  <rect x="60" y="262" width="16" height="3" fill="#4e79a7" rx="1"/><text x="80" y="268" font-size="11" fill="#57606a" font-family="-apple-system, BlinkMacSystemFont, 'Segoe UI', sans-serif">Total clones (219)</text><line x1="230" y1="264" x2="246" y2="264" stroke="#f28e2b" stroke-width="2" stroke-dasharray="5,3"/><text x="250" y="268" font-size="11" fill="#57606a" font-family="-apple-system, BlinkMacSystemFont, 'Segoe UI', sans-serif">Unique cloners</text>

</svg>