<svg xmlns="http://www.w3.org/2000/svg" viewBox="0 0 820 280" width="820" height="280">

  <!-- title -->
  <text x="52" y="18" font-size="13" font-weight="600"
        fill="#24292f" font-family="-apple-system, BlinkMacSystemFont, 'Segoe UI', sans-serif"
        >Clone traffic — denial-shield</text>
  <text x="800" y="18" font-size="10" fill="#8c959f"
        font-family="ui-monospace, SFMono-Regular, 'SF Mono', Menlo, monospace" text-anchor="end">2026-06-24</text>

  <!-- grid -->
  <line x1="52" y1="232.0" x2="800" y2="232.0" stroke="#e8e8e8" stroke-width="1"/><line x1="52" y1="187.4" x2="800" y2="187.4" stroke="#e8e8e8" stroke-width="1"/><line x1="52" y1="142.8" x2="800" y2="142.8" stroke="#e8e8e8" stroke-width="1"/><line x1="52" y1="98.2" x2="800" y2="98.2" stroke="#e8e8e8" stroke-width="1"/><line x1="52" y1="53.6" x2="800" y2="53.6" stroke="#e8e8e8" stroke-width="1"/><line x1="52" y1="9.0" x2="800" y2="9.0" stroke="#e8e8e8" stroke-width="1"/>

  <!-- area fill -->
  <path d="M52.0,232.0 L52.0,232.0 L69.8,230.9 L87.6,228.7 L105.4,232.0 L123.2,229.8 L141.0,232.0 L158.9,232.0 L176.7,232.0 L194.5,230.9 L212.3,232.0 L230.1,232.0 L247.9,28.0 L265.7,223.1 L283.5,232.0 L301.3,219.7 L319.1,230.9 L337.0,229.8 L354.8,230.9 L372.6,229.8 L390.4,232.0 L408.2,230.9 L426.0,232.0 L443.8,230.9 L461.6,230.9 L479.4,232.0 L497.2,230.9 L515.0,232.0 L532.9,230.9 L550.7,232.0 L568.5,229.8 L586.3,230.9 L604.1,232.0 L621.9,232.0 L639.7,232.0 L657.5,232.0 L675.3,232.0 L693.1,232.0 L711.0,232.0 L728.8,219.7 L746.6,204.1 L764.4,232.0 L782.2,229.8 L800.0,232.0 L800.0,232.0 L52.0,232.0Z" fill="#4e79a7" opacity="0.12"/>

  <!-- lines -->
  <polyline points="52.0,232.0 69.8,230.9 87.6,228.7 105.4,232.0 123.2,229.8 141.0,232.0 158.9,232.0 176.7,232.0 194.5,230.9 212.3,232.0 230.1,232.0 247.9,28.0 265.7,223.1 283.5,232.0 301.3,219.7 319.1,230.9 337.0,229.8 354.8,230.9 372.6,229.8 390.4,232.0 408.2,230.9 426.0,232.0 443.8,230.9 461.6,230.9 479.4,232.0 497.2,230.9 515.0,232.0 532.9,230.9 550.7,232.0 568.5,229.8 586.3,230.9 604.1,232.0 621.9,232.0 639.7,232.0 657.5,232.0 675.3,232.0 693.1,232.0 711.0,232.0 728.8,219.7 746.6,204.1 764.4,232.0 782.2,229.8 800.0,232.0"
            fill="none" stroke="#4e79a7"
            stroke-width="2" stroke-linejoin="round"/>
  <polyline points="52.0,232.0 69.8,230.9 87.6,228.7 105.4,232.0 123.2,229.8 141.0,232.0 158.9,232.0 176.7,232.0 194.5,230.9 212.3,232.0 230.1,232.0 247.9,156.2 265.7,227.5 283.5,232.0 301.3,223.1 319.1,230.9 337.0,229.8 354.8,230.9 372.6,229.8 390.4,232.0 408.2,230.9 426.0,232.0 443.8,230.9 461.6,230.9 479.4,232.0 497.2,230.9 515.0,232.0 532.9,230.9 550.7,232.0 568.5,229.8 586.3,230.9 604.1,232.0 621.9,232.0 639.7,232.0 657.5,232.0 675.3,232.0 693.1,232.0 711.0,232.0 728.8,224.2 746.6,222.0 764.4,232.0 782.2,229.8 800.0,232.0"
            fill="none" stroke="#f28e2b"
            stroke-width="2" stroke-linejoin="round"
            stroke-dasharray="5,3"/>

  <!-- dots -->
  <circle cx="52.0" cy="232.0" r="3" fill="#4e79a7"/><circle cx="69.8" cy="230.9" r="3" fill="#4e79a7"/><circle cx="87.6" cy="228.7" r="3" fill="#4e79a7"/><circle cx="105.4" cy="232.0" r="3" fill="#4e79a7"/><circle cx="123.2" cy="229.8" r="3" fill="#4e79a7"/><circle cx="141.0" cy="232.0" r="3" fill="#4e79a7"/><circle cx="158.9" cy="232.0" r="3" fill="#4e79a7"/><circle cx="176.7" cy="232.0" r="3" fill="#4e79a7"/><circle cx="194.5" cy="230.9" r="3" fill="#4e79a7"/><circle cx="212.3" cy="232.0" r="3" fill="#4e79a7"/><circle cx="230.1" cy="232.0" r="3" fill="#4e79a7"/><circle cx="247.9" cy="28.0" r="3" fill="#4e79a7"/><circle cx="265.7" cy="223.1" r="3" fill="#4e79a7"/><circle cx="283.5" cy="232.0" r="3" fill="#4e79a7"/><circle cx="301.3" cy="219.7" r="3" fill="#4e79a7"/><circle cx="319.1" cy="230.9" r="3" fill="#4e79a7"/><circle cx="337.0" cy="229.8" r="3" fill="#4e79a7"/><circle cx="354.8" cy="230.9" r="3" fill="#4e79a7"/><circle cx="372.6" cy="229.8" r="3" fill="#4e79a7"/><circle cx="390.4" cy="232.0" r="3" fill="#4e79a7"/><circle cx="408.2" cy="230.9" r="3" fill="#4e79a7"/><circle cx="426.0" cy="232.0" r="3" fill="#4e79a7"/><circle cx="443.8" cy="230.9" r="3" fill="#4e79a7"/><circle cx="461.6" cy="230.9" r="3" fill="#4e79a7"/><circle cx="479.4" cy="232.0" r="3" fill="#4e79a7"/><circle cx="497.2" cy="230.9" r="3" fill="#4e79a7"/><circle cx="515.0" cy="232.0" r="3" fill="#4e79a7"/><circle cx="532.9" cy="230.9" r="3" fill="#4e79a7"/><circle cx="550.7" cy="232.0" r="3" fill="#4e79a7"/><circle cx="568.5" cy="229.8" r="3" fill="#4e79a7"/><circle cx="586.3" cy="230.9" r="3" fill="#4e79a7"/><circle cx="604.1" cy="232.0" r="3" fill="#4e79a7"/><circle cx="621.9" cy="232.0" r="3" fill="#4e79a7"/><circle cx="639.7" cy="232.0" r="3" fill="#4e79a7"/><circle cx="657.5" cy="232.0" r="3" fill="#4e79a7"/><circle cx="675.3" cy="232.0" r="3" fill="#4e79a7"/><circle cx="693.1" cy="232.0" r="3" fill="#4e79a7"/><circle cx="711.0" cy="232.0" r="3" fill="#4e79a7"/><circle cx="728.8" cy="219.7" r="3" fill="#4e79a7"/><circle cx="746.6" cy="204.1" r="3" fill="#4e79a7"/><circle cx="764.4" cy="232.0" r="3" fill="#4e79a7"/><circle cx="782.2" cy="229.8" r="3" fill="#4e79a7"/><circle cx="800.0" cy="232.0" r="3" fill="#4e79a7"/>
  <circle cx="52.0" cy="232.0" r="3" fill="#f28e2b"/><circle cx="69.8" cy="230.9" r="3" fill="#f28e2b"/><circle cx="87.6" cy="228.7" r="3" fill="#f28e2b"/><circle cx="105.4" cy="232.0" r="3" fill="#f28e2b"/><circle cx="123.2" cy="229.8" r="3" fill="#f28e2b"/><circle cx="141.0" cy="232.0" r="3" fill="#f28e2b"/><circle cx="158.9" cy="232.0" r="3" fill="#f28e2b"/><circle cx="176.7" cy="232.0" r="3" fill="#f28e2b"/><circle cx="194.5" cy="230.9" r="3" fill="#f28e2b"/><circle cx="212.3" cy="232.0" r="3" fill="#f28e2b"/><circle cx="230.1" cy="232.0" r="3" fill="#f28e2b"/><circle cx="247.9" cy="156.2" r="3" fill="#f28e2b"/><circle cx="265.7" cy="227.5" r="3" fill="#f28e2b"/><circle cx="283.5" cy="232.0" r="3" fill="#f28e2b"/><circle cx="301.3" cy="223.1" r="3" fill="#f28e2b"/><circle cx="319.1" cy="230.9" r="3" fill="#f28e2b"/><circle cx="337.0" cy="229.8" r="3" fill="#f28e2b"/><circle cx="354.8" cy="230.9" r="3" fill="#f28e2b"/><circle cx="372.6" cy="229.8" r="3" fill="#f28e2b"/><circle cx="390.4" cy="232.0" r="3" fill="#f28e2b"/><circle cx="408.2" cy="230.9" r="3" fill="#f28e2b"/><circle cx="426.0" cy="232.0" r="3" fill="#f28e2b"/><circle cx="443.8" cy="230.9" r="3" fill="#f28e2b"/><circle cx="461.6" cy="230.9" r="3" fill="#f28e2b"/><circle cx="479.4" cy="232.0" r="3" fill="#f28e2b"/><circle cx="497.2" cy="230.9" r="3" fill="#f28e2b"/><circle cx="515.0" cy="232.0" r="3" fill="#f28e2b"/><circle cx="532.9" cy="230.9" r="3" fill="#f28e2b"/><circle cx="550.7" cy="232.0" r="3" fill="#f28e2b"/><circle cx="568.5" cy="229.8" r="3" fill="#f28e2b"/><circle cx="586.3" cy="230.9" r="3" fill="#f28e2b"/><circle cx="604.1" cy="232.0" r="3" fill="#f28e2b"/><circle cx="621.9" cy="232.0" r="3" fill="#f28e2b"/><circle cx="639.7" cy="232.0" r="3" fill="#f28e2b"/><circle cx="657.5" cy="232.0" r="3" fill="#f28e2b"/><circle cx="675.3" cy="232.0" r="3" fill="#f28e2b"/><circle cx="693.1" cy="232.0" r="3" fill="#f28e2b"/><circle cx="711.0" cy="232.0" r="3" fill="#f28e2b"/><circle cx="728.8" cy="224.2" r="3" fill="#f28e2b"/><circle cx="746.6" cy="222.0" r="3" fill="#f28e2b"/><circle cx="764.4" cy="232.0" r="3" fill="#f28e2b"/><circle cx="782.2" cy="229.8" r="3" fill="#f28e2b"/><circle cx="800.0" cy="232.0" r="3" fill="#f28e2b"/>

  <!-- axes -->
  <line x1="52" y1="28" x2="52" y2="232"
        stroke="#cccccc" stroke-width="1"/>
  <line x1="52" y1="232" x2="800" y2="232"
        stroke="#cccccc" stroke-width="1"/>

  <!-- y-axis labels -->
  <text x="47" y="236.0" text-anchor="end" font-size="10" fill="#57606a" font-family="ui-monospace, SFMono-Regular, 'SF Mono', Menlo, monospace">0</text><text x="47" y="191.4" text-anchor="end" font-size="10" fill="#57606a" font-family="ui-monospace, SFMono-Regular, 'SF Mono', Menlo, monospace">40</text><text x="47" y="146.8" text-anchor="end" font-size="10" fill="#57606a" font-family="ui-monospace, SFMono-Regular, 'SF Mono', Menlo, monospace">80</text><text x="47" y="102.2" text-anchor="end" font-size="10" fill="#57606a" font-family="ui-monospace, SFMono-Regular, 'SF Mono', Menlo, monospace">120</text><text x="47" y="57.6" text-anchor="end" font-size="10" fill="#57606a" font-family="ui-monospace, SFMono-Regular, 'SF Mono', Menlo, monospace">160</text><text x="47" y="13.0" text-anchor="end" font-size="10" fill="#57606a" font-family="ui-monospace, SFMono-Regular, 'SF Mono', Menlo, monospace">200</text>

  <!-- x-axis labels -->
  <text x="52.0" y="248" text-anchor="middle" font-size="10" fill="#8c959f" font-family="ui-monospace, SFMono-Regular, 'SF Mono', Menlo, monospace">05-11</text><text x="675.3" y="248" text-anchor="middle" font-size="10" fill="#8c959f" font-family="ui-monospace, SFMono-Regular, 'SF Mono', Menlo, monospace">06-15</text><text x="141.0" y="248" text-anchor="middle" font-size="10" fill="#8c959f" font-family="ui-monospace, SFMono-Regular, 'SF Mono', Menlo, monospace">05-16</text><text x="764.4" y="248" text-anchor="middle" font-size="10" fill="#8c959f" font-family="ui-monospace, SFMono-Regular, 'SF Mono', Menlo, monospace">06-20</text><text x="230.1" y="248" text-anchor="middle" font-size="10" fill="#8c959f" font-family="ui-monospace, SFMono-Regular, 'SF Mono', Menlo, monospace">05-21</text><text x="800.0" y="248" text-anchor="middle" font-size="10" fill="#8c959f" font-family="ui-monospace, SFMono-Regular, 'SF Mono', Menlo, monospace">06-22</text><text x="319.1" y="248" text-anchor="middle" font-size="10" fill="#8c959f" font-family="ui-monospace, SFMono-Regular, 'SF Mono', Menlo, monospace">05-26</text><text x="408.2" y="248" text-anchor="middle" font-size="10" fill="#8c959f" font-family="ui-monospace, SFMono-Regular, 'SF Mono', Menlo, monospace">05-31</text><text x="497.2" y="248" text-anchor="middle" font-size="10" fill="#8c959f" font-family="ui-monospace, SFMono-Regular, 'SF Mono', Menlo, monospace">06-05</text><text x="586.3" y="248" text-anchor="middle" font-size="10" fill="#8c959f" font-family="ui-monospace, SFMono-Regular, 'SF Mono', Menlo, monospace">06-10</text>

  <!-- legend -->
  <rect x="60" y="262" width="16" height="3" fill="#4e79a7" rx="1"/><text x="80" y="268" font-size="11" fill="#57606a" font-family="-apple-system, BlinkMacSystemFont, 'Segoe UI', sans-serif">Total clones (261)</text><line x1="230" y1="264" x2="246" y2="264" stroke="#f28e2b" stroke-width="2" stroke-dasharray="5,3"/><text x="250" y="268" font-size="11" fill="#57606a" font-family="-apple-system, BlinkMacSystemFont, 'Segoe UI', sans-serif">Unique cloners</text>

</svg>