<svg xmlns="http://www.w3.org/2000/svg" viewBox="0 0 820 280" width="820" height="280">

  <!-- title -->
  <text x="52" y="18" font-size="13" font-weight="600"
        fill="#24292f" font-family="-apple-system, BlinkMacSystemFont, 'Segoe UI', sans-serif"
        >Clone traffic — denial-shield</text>
  <text x="800" y="18" font-size="10" fill="#8c959f"
        font-family="ui-monospace, SFMono-Regular, 'SF Mono', Menlo, monospace" text-anchor="end">2026-07-09</text>

  <!-- grid -->
  <line x1="52" y1="232.0" x2="800" y2="232.0" stroke="#e8e8e8" stroke-width="1"/><line x1="52" y1="187.4" x2="800" y2="187.4" stroke="#e8e8e8" stroke-width="1"/><line x1="52" y1="142.8" x2="800" y2="142.8" stroke="#e8e8e8" stroke-width="1"/><line x1="52" y1="98.2" x2="800" y2="98.2" stroke="#e8e8e8" stroke-width="1"/><line x1="52" y1="53.6" x2="800" y2="53.6" stroke="#e8e8e8" stroke-width="1"/><line x1="52" y1="9.0" x2="800" y2="9.0" stroke="#e8e8e8" stroke-width="1"/>

  <!-- area fill -->
  <path d="M52.0,232.0 L52.0,232.0 L65.1,230.9 L78.2,228.7 L91.4,232.0 L104.5,229.8 L117.6,232.0 L130.7,232.0 L143.9,232.0 L157.0,230.9 L170.1,232.0 L183.2,232.0 L196.4,28.0 L209.5,223.1 L222.6,232.0 L235.7,219.7 L248.8,230.9 L262.0,229.8 L275.1,230.9 L288.2,229.8 L301.3,232.0 L314.5,230.9 L327.6,232.0 L340.7,230.9 L353.8,230.9 L366.9,232.0 L380.1,230.9 L393.2,232.0 L406.3,230.9 L419.4,232.0 L432.6,229.8 L445.7,230.9 L458.8,232.0 L471.9,232.0 L485.1,232.0 L498.2,232.0 L511.3,232.0 L524.4,232.0 L537.5,232.0 L550.7,219.7 L563.8,204.1 L576.9,232.0 L590.0,229.8 L603.2,232.0 L616.3,232.0 L629.4,230.9 L642.5,232.0 L655.6,232.0 L668.8,232.0 L681.9,232.0 L695.0,232.0 L708.1,232.0 L721.3,230.9 L734.4,232.0 L747.5,232.0 L760.6,230.9 L773.8,232.0 L786.9,232.0 L800.0,229.8 L800.0,232.0 L52.0,232.0Z" fill="#4e79a7" opacity="0.12"/>

  <!-- lines -->
  <polyline points="52.0,232.0 65.1,230.9 78.2,228.7 91.4,232.0 104.5,229.8 117.6,232.0 130.7,232.0 143.9,232.0 157.0,230.9 170.1,232.0 183.2,232.0 196.4,28.0 209.5,223.1 222.6,232.0 235.7,219.7 248.8,230.9 262.0,229.8 275.1,230.9 288.2,229.8 301.3,232.0 314.5,230.9 327.6,232.0 340.7,230.9 353.8,230.9 366.9,232.0 380.1,230.9 393.2,232.0 406.3,230.9 419.4,232.0 432.6,229.8 445.7,230.9 458.8,232.0 471.9,232.0 485.1,232.0 498.2,232.0 511.3,232.0 524.4,232.0 537.5,232.0 550.7,219.7 563.8,204.1 576.9,232.0 590.0,229.8 603.2,232.0 616.3,232.0 629.4,230.9 642.5,232.0 655.6,232.0 668.8,232.0 681.9,232.0 695.0,232.0 708.1,232.0 721.3,230.9 734.4,232.0 747.5,232.0 760.6,230.9 773.8,232.0 786.9,232.0 800.0,229.8"
            fill="none" stroke="#4e79a7"
            stroke-width="2" stroke-linejoin="round"/>
  <polyline points="52.0,232.0 65.1,230.9 78.2,228.7 91.4,232.0 104.5,229.8 117.6,232.0 130.7,232.0 143.9,232.0 157.0,230.9 170.1,232.0 183.2,232.0 196.4,156.2 209.5,227.5 222.6,232.0 235.7,223.1 248.8,230.9 262.0,229.8 275.1,230.9 288.2,229.8 301.3,232.0 314.5,230.9 327.6,232.0 340.7,230.9 353.8,230.9 366.9,232.0 380.1,230.9 393.2,232.0 406.3,230.9 419.4,232.0 432.6,229.8 445.7,230.9 458.8,232.0 471.9,232.0 485.1,232.0 498.2,232.0 511.3,232.0 524.4,232.0 537.5,232.0 550.7,224.2 563.8,222.0 576.9,232.0 590.0,229.8 603.2,232.0 616.3,232.0 629.4,230.9 642.5,232.0 655.6,232.0 668.8,232.0 681.9,232.0 695.0,232.0 708.1,232.0 721.3,230.9 734.4,232.0 747.5,232.0 760.6,230.9 773.8,232.0 786.9,232.0 800.0,230.9"
            fill="none" stroke="#f28e2b"
            stroke-width="2" stroke-linejoin="round"
            stroke-dasharray="5,3"/>

  <!-- dots -->
  <circle cx="52.0" cy="232.0" r="3" fill="#4e79a7"/><circle cx="65.1" cy="230.9" r="3" fill="#4e79a7"/><circle cx="78.2" cy="228.7" r="3" fill="#4e79a7"/><circle cx="91.4" cy="232.0" r="3" fill="#4e79a7"/><circle cx="104.5" cy="229.8" r="3" fill="#4e79a7"/><circle cx="117.6" cy="232.0" r="3" fill="#4e79a7"/><circle cx="130.7" cy="232.0" r="3" fill="#4e79a7"/><circle cx="143.9" cy="232.0" r="3" fill="#4e79a7"/><circle cx="157.0" cy="230.9" r="3" fill="#4e79a7"/><circle cx="170.1" cy="232.0" r="3" fill="#4e79a7"/><circle cx="183.2" cy="232.0" r="3" fill="#4e79a7"/><circle cx="196.4" cy="28.0" r="3" fill="#4e79a7"/><circle cx="209.5" cy="223.1" r="3" fill="#4e79a7"/><circle cx="222.6" cy="232.0" r="3" fill="#4e79a7"/><circle cx="235.7" cy="219.7" r="3" fill="#4e79a7"/><circle cx="248.8" cy="230.9" r="3" fill="#4e79a7"/><circle cx="262.0" cy="229.8" r="3" fill="#4e79a7"/><circle cx="275.1" cy="230.9" r="3" fill="#4e79a7"/><circle cx="288.2" cy="229.8" r="3" fill="#4e79a7"/><circle cx="301.3" cy="232.0" r="3" fill="#4e79a7"/><circle cx="314.5" cy="230.9" r="3" fill="#4e79a7"/><circle cx="327.6" cy="232.0" r="3" fill="#4e79a7"/><circle cx="340.7" cy="230.9" r="3" fill="#4e79a7"/><circle cx="353.8" cy="230.9" r="3" fill="#4e79a7"/><circle cx="366.9" cy="232.0" r="3" fill="#4e79a7"/><circle cx="380.1" cy="230.9" r="3" fill="#4e79a7"/><circle cx="393.2" cy="232.0" r="3" fill="#4e79a7"/><circle cx="406.3" cy="230.9" r="3" fill="#4e79a7"/><circle cx="419.4" cy="232.0" r="3" fill="#4e79a7"/><circle cx="432.6" cy="229.8" r="3" fill="#4e79a7"/><circle cx="445.7" cy="230.9" r="3" fill="#4e79a7"/><circle cx="458.8" cy="232.0" r="3" fill="#4e79a7"/><circle cx="471.9" cy="232.0" r="3" fill="#4e79a7"/><circle cx="485.1" cy="232.0" r="3" fill="#4e79a7"/><circle cx="498.2" cy="232.0" r="3" fill="#4e79a7"/><circle cx="511.3" cy="232.0" r="3" fill="#4e79a7"/><circle cx="524.4" cy="232.0" r="3" fill="#4e79a7"/><circle cx="537.5" cy="232.0" r="3" fill="#4e79a7"/><circle cx="550.7" cy="219.7" r="3" fill="#4e79a7"/><circle cx="563.8" cy="204.1" r="3" fill="#4e79a7"/><circle cx="576.9" cy="232.0" r="3" fill="#4e79a7"/><circle cx="590.0" cy="229.8" r="3" fill="#4e79a7"/><circle cx="603.2" cy="232.0" r="3" fill="#4e79a7"/><circle cx="616.3" cy="232.0" r="3" fill="#4e79a7"/><circle cx="629.4" cy="230.9" r="3" fill="#4e79a7"/><circle cx="642.5" cy="232.0" r="3" fill="#4e79a7"/><circle cx="655.6" cy="232.0" r="3" fill="#4e79a7"/><circle cx="668.8" cy="232.0" r="3" fill="#4e79a7"/><circle cx="681.9" cy="232.0" r="3" fill="#4e79a7"/><circle cx="695.0" cy="232.0" r="3" fill="#4e79a7"/><circle cx="708.1" cy="232.0" r="3" fill="#4e79a7"/><circle cx="721.3" cy="230.9" r="3" fill="#4e79a7"/><circle cx="734.4" cy="232.0" r="3" fill="#4e79a7"/><circle cx="747.5" cy="232.0" r="3" fill="#4e79a7"/><circle cx="760.6" cy="230.9" r="3" fill="#4e79a7"/><circle cx="773.8" cy="232.0" r="3" fill="#4e79a7"/><circle cx="786.9" cy="232.0" r="3" fill="#4e79a7"/><circle cx="800.0" cy="229.8" r="3" fill="#4e79a7"/>
  <circle cx="52.0" cy="232.0" r="3" fill="#f28e2b"/><circle cx="65.1" cy="230.9" r="3" fill="#f28e2b"/><circle cx="78.2" cy="228.7" r="3" fill="#f28e2b"/><circle cx="91.4" cy="232.0" r="3" fill="#f28e2b"/><circle cx="104.5" cy="229.8" r="3" fill="#f28e2b"/><circle cx="117.6" cy="232.0" r="3" fill="#f28e2b"/><circle cx="130.7" cy="232.0" r="3" fill="#f28e2b"/><circle cx="143.9" cy="232.0" r="3" fill="#f28e2b"/><circle cx="157.0" cy="230.9" r="3" fill="#f28e2b"/><circle cx="170.1" cy="232.0" r="3" fill="#f28e2b"/><circle cx="183.2" cy="232.0" r="3" fill="#f28e2b"/><circle cx="196.4" cy="156.2" r="3" fill="#f28e2b"/><circle cx="209.5" cy="227.5" r="3" fill="#f28e2b"/><circle cx="222.6" cy="232.0" r="3" fill="#f28e2b"/><circle cx="235.7" cy="223.1" r="3" fill="#f28e2b"/><circle cx="248.8" cy="230.9" r="3" fill="#f28e2b"/><circle cx="262.0" cy="229.8" r="3" fill="#f28e2b"/><circle cx="275.1" cy="230.9" r="3" fill="#f28e2b"/><circle cx="288.2" cy="229.8" r="3" fill="#f28e2b"/><circle cx="301.3" cy="232.0" r="3" fill="#f28e2b"/><circle cx="314.5" cy="230.9" r="3" fill="#f28e2b"/><circle cx="327.6" cy="232.0" r="3" fill="#f28e2b"/><circle cx="340.7" cy="230.9" r="3" fill="#f28e2b"/><circle cx="353.8" cy="230.9" r="3" fill="#f28e2b"/><circle cx="366.9" cy="232.0" r="3" fill="#f28e2b"/><circle cx="380.1" cy="230.9" r="3" fill="#f28e2b"/><circle cx="393.2" cy="232.0" r="3" fill="#f28e2b"/><circle cx="406.3" cy="230.9" r="3" fill="#f28e2b"/><circle cx="419.4" cy="232.0" r="3" fill="#f28e2b"/><circle cx="432.6" cy="229.8" r="3" fill="#f28e2b"/><circle cx="445.7" cy="230.9" r="3" fill="#f28e2b"/><circle cx="458.8" cy="232.0" r="3" fill="#f28e2b"/><circle cx="471.9" cy="232.0" r="3" fill="#f28e2b"/><circle cx="485.1" cy="232.0" r="3" fill="#f28e2b"/><circle cx="498.2" cy="232.0" r="3" fill="#f28e2b"/><circle cx="511.3" cy="232.0" r="3" fill="#f28e2b"/><circle cx="524.4" cy="232.0" r="3" fill="#f28e2b"/><circle cx="537.5" cy="232.0" r="3" fill="#f28e2b"/><circle cx="550.7" cy="224.2" r="3" fill="#f28e2b"/><circle cx="563.8" cy="222.0" r="3" fill="#f28e2b"/><circle cx="576.9" cy="232.0" r="3" fill="#f28e2b"/><circle cx="590.0" cy="229.8" r="3" fill="#f28e2b"/><circle cx="603.2" cy="232.0" r="3" fill="#f28e2b"/><circle cx="616.3" cy="232.0" r="3" fill="#f28e2b"/><circle cx="629.4" cy="230.9" r="3" fill="#f28e2b"/><circle cx="642.5" cy="232.0" r="3" fill="#f28e2b"/><circle cx="655.6" cy="232.0" r="3" fill="#f28e2b"/><circle cx="668.8" cy="232.0" r="3" fill="#f28e2b"/><circle cx="681.9" cy="232.0" r="3" fill="#f28e2b"/><circle cx="695.0" cy="232.0" r="3" fill="#f28e2b"/><circle cx="708.1" cy="232.0" r="3" fill="#f28e2b"/><circle cx="721.3" cy="230.9" r="3" fill="#f28e2b"/><circle cx="734.4" cy="232.0" r="3" fill="#f28e2b"/><circle cx="747.5" cy="232.0" r="3" fill="#f28e2b"/><circle cx="760.6" cy="230.9" r="3" fill="#f28e2b"/><circle cx="773.8" cy="232.0" r="3" fill="#f28e2b"/><circle cx="786.9" cy="232.0" r="3" fill="#f28e2b"/><circle cx="800.0" cy="230.9" r="3" fill="#f28e2b"/>

  <!-- axes -->
  <line x1="52" y1="28" x2="52" y2="232"
        stroke="#cccccc" stroke-width="1"/>
  <line x1="52" y1="232" x2="800" y2="232"
        stroke="#cccccc" stroke-width="1"/>

  <!-- y-axis labels -->
  <text x="47" y="236.0" text-anchor="end" font-size="10" fill="#57606a" font-family="ui-monospace, SFMono-Regular, 'SF Mono', Menlo, monospace">0</text><text x="47" y="191.4" text-anchor="end" font-size="10" fill="#57606a" font-family="ui-monospace, SFMono-Regular, 'SF Mono', Menlo, monospace">40</text><text x="47" y="146.8" text-anchor="end" font-size="10" fill="#57606a" font-family="ui-monospace, SFMono-Regular, 'SF Mono', Menlo, monospace">80</text><text x="47" y="102.2" text-anchor="end" font-size="10" fill="#57606a" font-family="ui-monospace, SFMono-Regular, 'SF Mono', Menlo, monospace">120</text><text x="47" y="57.6" text-anchor="end" font-size="10" fill="#57606a" font-family="ui-monospace, SFMono-Regular, 'SF Mono', Menlo, monospace">160</text><text x="47" y="13.0" text-anchor="end" font-size="10" fill="#57606a" font-family="ui-monospace, SFMono-Regular, 'SF Mono', Menlo, monospace">200</text>

  <!-- x-axis labels -->
  <text x="52.0" y="248" text-anchor="middle" font-size="10" fill="#8c959f" font-family="ui-monospace, SFMono-Regular, 'SF Mono', Menlo, monospace">05-11</text><text x="511.3" y="248" text-anchor="middle" font-size="10" fill="#8c959f" font-family="ui-monospace, SFMono-Regular, 'SF Mono', Menlo, monospace">06-15</text><text x="143.9" y="248" text-anchor="middle" font-size="10" fill="#8c959f" font-family="ui-monospace, SFMono-Regular, 'SF Mono', Menlo, monospace">05-18</text><text x="603.2" y="248" text-anchor="middle" font-size="10" fill="#8c959f" font-family="ui-monospace, SFMono-Regular, 'SF Mono', Menlo, monospace">06-22</text><text x="235.7" y="248" text-anchor="middle" font-size="10" fill="#8c959f" font-family="ui-monospace, SFMono-Regular, 'SF Mono', Menlo, monospace">05-25</text><text x="695.0" y="248" text-anchor="middle" font-size="10" fill="#8c959f" font-family="ui-monospace, SFMono-Regular, 'SF Mono', Menlo, monospace">06-29</text><text x="327.6" y="248" text-anchor="middle" font-size="10" fill="#8c959f" font-family="ui-monospace, SFMono-Regular, 'SF Mono', Menlo, monospace">06-01</text><text x="786.9" y="248" text-anchor="middle" font-size="10" fill="#8c959f" font-family="ui-monospace, SFMono-Regular, 'SF Mono', Menlo, monospace">07-06</text><text x="800.0" y="248" text-anchor="middle" font-size="10" fill="#8c959f" font-family="ui-monospace, SFMono-Regular, 'SF Mono', Menlo, monospace">07-07</text><text x="419.4" y="248" text-anchor="middle" font-size="10" fill="#8c959f" font-family="ui-monospace, SFMono-Regular, 'SF Mono', Menlo, monospace">06-08</text>

  <!-- legend -->
  <rect x="60" y="262" width="16" height="3" fill="#4e79a7" rx="1"/><text x="80" y="268" font-size="11" fill="#57606a" font-family="-apple-system, BlinkMacSystemFont, 'Segoe UI', sans-serif">Total clones (266)</text><line x1="230" y1="264" x2="246" y2="264" stroke="#f28e2b" stroke-width="2" stroke-dasharray="5,3"/><text x="250" y="268" font-size="11" fill="#57606a" font-family="-apple-system, BlinkMacSystemFont, 'Segoe UI', sans-serif">Unique cloners</text>

</svg>