<svg xmlns="http://www.w3.org/2000/svg" viewBox="0 0 820 280" width="820" height="280">

  <!-- title -->
  <text x="52" y="18" font-size="13" font-weight="600"
        fill="#24292f" font-family="-apple-system, BlinkMacSystemFont, 'Segoe UI', sans-serif"
        >Clone traffic — denial-shield</text>
  <text x="800" y="18" font-size="10" fill="#8c959f"
        font-family="ui-monospace, SFMono-Regular, 'SF Mono', Menlo, monospace" text-anchor="end">2026-07-11</text>

  <!-- grid -->
  <line x1="52" y1="232.0" x2="800" y2="232.0" stroke="#e8e8e8" stroke-width="1"/><line x1="52" y1="187.4" x2="800" y2="187.4" stroke="#e8e8e8" stroke-width="1"/><line x1="52" y1="142.8" x2="800" y2="142.8" stroke="#e8e8e8" stroke-width="1"/><line x1="52" y1="98.2" x2="800" y2="98.2" stroke="#e8e8e8" stroke-width="1"/><line x1="52" y1="53.6" x2="800" y2="53.6" stroke="#e8e8e8" stroke-width="1"/><line x1="52" y1="9.0" x2="800" y2="9.0" stroke="#e8e8e8" stroke-width="1"/>

  <!-- area fill -->
  <path d="M52.0,232.0 L52.0,232.0 L64.5,230.9 L76.9,228.7 L89.4,232.0 L101.9,229.8 L114.3,232.0 L126.8,232.0 L139.3,232.0 L151.7,230.9 L164.2,232.0 L176.7,232.0 L189.1,28.0 L201.6,223.1 L214.1,232.0 L226.5,219.7 L239.0,230.9 L251.5,229.8 L263.9,230.9 L276.4,229.8 L288.9,232.0 L301.3,230.9 L313.8,232.0 L326.3,230.9 L338.7,230.9 L351.2,232.0 L363.7,230.9 L376.1,232.0 L388.6,230.9 L401.1,232.0 L413.5,229.8 L426.0,230.9 L438.5,232.0 L450.9,232.0 L463.4,232.0 L475.9,232.0 L488.3,232.0 L500.8,232.0 L513.3,232.0 L525.7,219.7 L538.2,204.1 L550.7,232.0 L563.1,229.8 L575.6,232.0 L588.1,232.0 L600.5,230.9 L613.0,232.0 L625.5,232.0 L637.9,232.0 L650.4,232.0 L662.9,232.0 L675.3,232.0 L687.8,230.9 L700.3,232.0 L712.7,232.0 L725.2,230.9 L737.7,232.0 L750.1,232.0 L762.6,229.8 L775.1,232.0 L787.5,232.0 L800.0,232.0 L800.0,232.0 L52.0,232.0Z" fill="#4e79a7" opacity="0.12"/>

  <!-- lines -->
  <polyline points="52.0,232.0 64.5,230.9 76.9,228.7 89.4,232.0 101.9,229.8 114.3,232.0 126.8,232.0 139.3,232.0 151.7,230.9 164.2,232.0 176.7,232.0 189.1,28.0 201.6,223.1 214.1,232.0 226.5,219.7 239.0,230.9 251.5,229.8 263.9,230.9 276.4,229.8 288.9,232.0 301.3,230.9 313.8,232.0 326.3,230.9 338.7,230.9 351.2,232.0 363.7,230.9 376.1,232.0 388.6,230.9 401.1,232.0 413.5,229.8 426.0,230.9 438.5,232.0 450.9,232.0 463.4,232.0 475.9,232.0 488.3,232.0 500.8,232.0 513.3,232.0 525.7,219.7 538.2,204.1 550.7,232.0 563.1,229.8 575.6,232.0 588.1,232.0 600.5,230.9 613.0,232.0 625.5,232.0 637.9,232.0 650.4,232.0 662.9,232.0 675.3,232.0 687.8,230.9 700.3,232.0 712.7,232.0 725.2,230.9 737.7,232.0 750.1,232.0 762.6,229.8 775.1,232.0 787.5,232.0 800.0,232.0"
            fill="none" stroke="#4e79a7"
            stroke-width="2" stroke-linejoin="round"/>
  <polyline points="52.0,232.0 64.5,230.9 76.9,228.7 89.4,232.0 101.9,229.8 114.3,232.0 126.8,232.0 139.3,232.0 151.7,230.9 164.2,232.0 176.7,232.0 189.1,156.2 201.6,227.5 214.1,232.0 226.5,223.1 239.0,230.9 251.5,229.8 263.9,230.9 276.4,229.8 288.9,232.0 301.3,230.9 313.8,232.0 326.3,230.9 338.7,230.9 351.2,232.0 363.7,230.9 376.1,232.0 388.6,230.9 401.1,232.0 413.5,229.8 426.0,230.9 438.5,232.0 450.9,232.0 463.4,232.0 475.9,232.0 488.3,232.0 500.8,232.0 513.3,232.0 525.7,224.2 538.2,222.0 550.7,232.0 563.1,229.8 575.6,232.0 588.1,232.0 600.5,230.9 613.0,232.0 625.5,232.0 637.9,232.0 650.4,232.0 662.9,232.0 675.3,232.0 687.8,230.9 700.3,232.0 712.7,232.0 725.2,230.9 737.7,232.0 750.1,232.0 762.6,230.9 775.1,232.0 787.5,232.0 800.0,232.0"
            fill="none" stroke="#f28e2b"
            stroke-width="2" stroke-linejoin="round"
            stroke-dasharray="5,3"/>

  <!-- dots -->
  <circle cx="52.0" cy="232.0" r="3" fill="#4e79a7"/><circle cx="64.5" cy="230.9" r="3" fill="#4e79a7"/><circle cx="76.9" cy="228.7" r="3" fill="#4e79a7"/><circle cx="89.4" cy="232.0" r="3" fill="#4e79a7"/><circle cx="101.9" cy="229.8" r="3" fill="#4e79a7"/><circle cx="114.3" cy="232.0" r="3" fill="#4e79a7"/><circle cx="126.8" cy="232.0" r="3" fill="#4e79a7"/><circle cx="139.3" cy="232.0" r="3" fill="#4e79a7"/><circle cx="151.7" cy="230.9" r="3" fill="#4e79a7"/><circle cx="164.2" cy="232.0" r="3" fill="#4e79a7"/><circle cx="176.7" cy="232.0" r="3" fill="#4e79a7"/><circle cx="189.1" cy="28.0" r="3" fill="#4e79a7"/><circle cx="201.6" cy="223.1" r="3" fill="#4e79a7"/><circle cx="214.1" cy="232.0" r="3" fill="#4e79a7"/><circle cx="226.5" cy="219.7" r="3" fill="#4e79a7"/><circle cx="239.0" cy="230.9" r="3" fill="#4e79a7"/><circle cx="251.5" cy="229.8" r="3" fill="#4e79a7"/><circle cx="263.9" cy="230.9" r="3" fill="#4e79a7"/><circle cx="276.4" cy="229.8" r="3" fill="#4e79a7"/><circle cx="288.9" cy="232.0" r="3" fill="#4e79a7"/><circle cx="301.3" cy="230.9" r="3" fill="#4e79a7"/><circle cx="313.8" cy="232.0" r="3" fill="#4e79a7"/><circle cx="326.3" cy="230.9" r="3" fill="#4e79a7"/><circle cx="338.7" cy="230.9" r="3" fill="#4e79a7"/><circle cx="351.2" cy="232.0" r="3" fill="#4e79a7"/><circle cx="363.7" cy="230.9" r="3" fill="#4e79a7"/><circle cx="376.1" cy="232.0" r="3" fill="#4e79a7"/><circle cx="388.6" cy="230.9" r="3" fill="#4e79a7"/><circle cx="401.1" cy="232.0" r="3" fill="#4e79a7"/><circle cx="413.5" cy="229.8" r="3" fill="#4e79a7"/><circle cx="426.0" cy="230.9" r="3" fill="#4e79a7"/><circle cx="438.5" cy="232.0" r="3" fill="#4e79a7"/><circle cx="450.9" cy="232.0" r="3" fill="#4e79a7"/><circle cx="463.4" cy="232.0" r="3" fill="#4e79a7"/><circle cx="475.9" cy="232.0" r="3" fill="#4e79a7"/><circle cx="488.3" cy="232.0" r="3" fill="#4e79a7"/><circle cx="500.8" cy="232.0" r="3" fill="#4e79a7"/><circle cx="513.3" cy="232.0" r="3" fill="#4e79a7"/><circle cx="525.7" cy="219.7" r="3" fill="#4e79a7"/><circle cx="538.2" cy="204.1" r="3" fill="#4e79a7"/><circle cx="550.7" cy="232.0" r="3" fill="#4e79a7"/><circle cx="563.1" cy="229.8" r="3" fill="#4e79a7"/><circle cx="575.6" cy="232.0" r="3" fill="#4e79a7"/><circle cx="588.1" cy="232.0" r="3" fill="#4e79a7"/><circle cx="600.5" cy="230.9" r="3" fill="#4e79a7"/><circle cx="613.0" cy="232.0" r="3" fill="#4e79a7"/><circle cx="625.5" cy="232.0" r="3" fill="#4e79a7"/><circle cx="637.9" cy="232.0" r="3" fill="#4e79a7"/><circle cx="650.4" cy="232.0" r="3" fill="#4e79a7"/><circle cx="662.9" cy="232.0" r="3" fill="#4e79a7"/><circle cx="675.3" cy="232.0" r="3" fill="#4e79a7"/><circle cx="687.8" cy="230.9" r="3" fill="#4e79a7"/><circle cx="700.3" cy="232.0" r="3" fill="#4e79a7"/><circle cx="712.7" cy="232.0" r="3" fill="#4e79a7"/><circle cx="725.2" cy="230.9" r="3" fill="#4e79a7"/><circle cx="737.7" cy="232.0" r="3" fill="#4e79a7"/><circle cx="750.1" cy="232.0" r="3" fill="#4e79a7"/><circle cx="762.6" cy="229.8" r="3" fill="#4e79a7"/><circle cx="775.1" cy="232.0" r="3" fill="#4e79a7"/><circle cx="787.5" cy="232.0" r="3" fill="#4e79a7"/><circle cx="800.0" cy="232.0" r="3" fill="#4e79a7"/>
  <circle cx="52.0" cy="232.0" r="3" fill="#f28e2b"/><circle cx="64.5" cy="230.9" r="3" fill="#f28e2b"/><circle cx="76.9" cy="228.7" r="3" fill="#f28e2b"/><circle cx="89.4" cy="232.0" r="3" fill="#f28e2b"/><circle cx="101.9" cy="229.8" r="3" fill="#f28e2b"/><circle cx="114.3" cy="232.0" r="3" fill="#f28e2b"/><circle cx="126.8" cy="232.0" r="3" fill="#f28e2b"/><circle cx="139.3" cy="232.0" r="3" fill="#f28e2b"/><circle cx="151.7" cy="230.9" r="3" fill="#f28e2b"/><circle cx="164.2" cy="232.0" r="3" fill="#f28e2b"/><circle cx="176.7" cy="232.0" r="3" fill="#f28e2b"/><circle cx="189.1" cy="156.2" r="3" fill="#f28e2b"/><circle cx="201.6" cy="227.5" r="3" fill="#f28e2b"/><circle cx="214.1" cy="232.0" r="3" fill="#f28e2b"/><circle cx="226.5" cy="223.1" r="3" fill="#f28e2b"/><circle cx="239.0" cy="230.9" r="3" fill="#f28e2b"/><circle cx="251.5" cy="229.8" r="3" fill="#f28e2b"/><circle cx="263.9" cy="230.9" r="3" fill="#f28e2b"/><circle cx="276.4" cy="229.8" r="3" fill="#f28e2b"/><circle cx="288.9" cy="232.0" r="3" fill="#f28e2b"/><circle cx="301.3" cy="230.9" r="3" fill="#f28e2b"/><circle cx="313.8" cy="232.0" r="3" fill="#f28e2b"/><circle cx="326.3" cy="230.9" r="3" fill="#f28e2b"/><circle cx="338.7" cy="230.9" r="3" fill="#f28e2b"/><circle cx="351.2" cy="232.0" r="3" fill="#f28e2b"/><circle cx="363.7" cy="230.9" r="3" fill="#f28e2b"/><circle cx="376.1" cy="232.0" r="3" fill="#f28e2b"/><circle cx="388.6" cy="230.9" r="3" fill="#f28e2b"/><circle cx="401.1" cy="232.0" r="3" fill="#f28e2b"/><circle cx="413.5" cy="229.8" r="3" fill="#f28e2b"/><circle cx="426.0" cy="230.9" r="3" fill="#f28e2b"/><circle cx="438.5" cy="232.0" r="3" fill="#f28e2b"/><circle cx="450.9" cy="232.0" r="3" fill="#f28e2b"/><circle cx="463.4" cy="232.0" r="3" fill="#f28e2b"/><circle cx="475.9" cy="232.0" r="3" fill="#f28e2b"/><circle cx="488.3" cy="232.0" r="3" fill="#f28e2b"/><circle cx="500.8" cy="232.0" r="3" fill="#f28e2b"/><circle cx="513.3" cy="232.0" r="3" fill="#f28e2b"/><circle cx="525.7" cy="224.2" r="3" fill="#f28e2b"/><circle cx="538.2" cy="222.0" r="3" fill="#f28e2b"/><circle cx="550.7" cy="232.0" r="3" fill="#f28e2b"/><circle cx="563.1" cy="229.8" r="3" fill="#f28e2b"/><circle cx="575.6" cy="232.0" r="3" fill="#f28e2b"/><circle cx="588.1" cy="232.0" r="3" fill="#f28e2b"/><circle cx="600.5" cy="230.9" r="3" fill="#f28e2b"/><circle cx="613.0" cy="232.0" r="3" fill="#f28e2b"/><circle cx="625.5" cy="232.0" r="3" fill="#f28e2b"/><circle cx="637.9" cy="232.0" r="3" fill="#f28e2b"/><circle cx="650.4" cy="232.0" r="3" fill="#f28e2b"/><circle cx="662.9" cy="232.0" r="3" fill="#f28e2b"/><circle cx="675.3" cy="232.0" r="3" fill="#f28e2b"/><circle cx="687.8" cy="230.9" r="3" fill="#f28e2b"/><circle cx="700.3" cy="232.0" r="3" fill="#f28e2b"/><circle cx="712.7" cy="232.0" r="3" fill="#f28e2b"/><circle cx="725.2" cy="230.9" r="3" fill="#f28e2b"/><circle cx="737.7" cy="232.0" r="3" fill="#f28e2b"/><circle cx="750.1" cy="232.0" r="3" fill="#f28e2b"/><circle cx="762.6" cy="230.9" r="3" fill="#f28e2b"/><circle cx="775.1" cy="232.0" r="3" fill="#f28e2b"/><circle cx="787.5" cy="232.0" r="3" fill="#f28e2b"/><circle cx="800.0" cy="232.0" r="3" fill="#f28e2b"/>

  <!-- axes -->
  <line x1="52" y1="28" x2="52" y2="232"
        stroke="#cccccc" stroke-width="1"/>
  <line x1="52" y1="232" x2="800" y2="232"
        stroke="#cccccc" stroke-width="1"/>

  <!-- y-axis labels -->
  <text x="47" y="236.0" text-anchor="end" font-size="10" fill="#57606a" font-family="ui-monospace, SFMono-Regular, 'SF Mono', Menlo, monospace">0</text><text x="47" y="191.4" text-anchor="end" font-size="10" fill="#57606a" font-family="ui-monospace, SFMono-Regular, 'SF Mono', Menlo, monospace">40</text><text x="47" y="146.8" text-anchor="end" font-size="10" fill="#57606a" font-family="ui-monospace, SFMono-Regular, 'SF Mono', Menlo, monospace">80</text><text x="47" y="102.2" text-anchor="end" font-size="10" fill="#57606a" font-family="ui-monospace, SFMono-Regular, 'SF Mono', Menlo, monospace">120</text><text x="47" y="57.6" text-anchor="end" font-size="10" fill="#57606a" font-family="ui-monospace, SFMono-Regular, 'SF Mono', Menlo, monospace">160</text><text x="47" y="13.0" text-anchor="end" font-size="10" fill="#57606a" font-family="ui-monospace, SFMono-Regular, 'SF Mono', Menlo, monospace">200</text>

  <!-- x-axis labels -->
  <text x="52.0" y="248" text-anchor="middle" font-size="10" fill="#8c959f" font-family="ui-monospace, SFMono-Regular, 'SF Mono', Menlo, monospace">05-11</text><text x="488.3" y="248" text-anchor="middle" font-size="10" fill="#8c959f" font-family="ui-monospace, SFMono-Regular, 'SF Mono', Menlo, monospace">06-15</text><text x="139.3" y="248" text-anchor="middle" font-size="10" fill="#8c959f" font-family="ui-monospace, SFMono-Regular, 'SF Mono', Menlo, monospace">05-18</text><text x="575.6" y="248" text-anchor="middle" font-size="10" fill="#8c959f" font-family="ui-monospace, SFMono-Regular, 'SF Mono', Menlo, monospace">06-22</text><text x="226.5" y="248" text-anchor="middle" font-size="10" fill="#8c959f" font-family="ui-monospace, SFMono-Regular, 'SF Mono', Menlo, monospace">05-25</text><text x="800.0" y="248" text-anchor="middle" font-size="10" fill="#8c959f" font-family="ui-monospace, SFMono-Regular, 'SF Mono', Menlo, monospace">07-10</text><text x="662.9" y="248" text-anchor="middle" font-size="10" fill="#8c959f" font-family="ui-monospace, SFMono-Regular, 'SF Mono', Menlo, monospace">06-29</text><text x="313.8" y="248" text-anchor="middle" font-size="10" fill="#8c959f" font-family="ui-monospace, SFMono-Regular, 'SF Mono', Menlo, monospace">06-01</text><text x="750.1" y="248" text-anchor="middle" font-size="10" fill="#8c959f" font-family="ui-monospace, SFMono-Regular, 'SF Mono', Menlo, monospace">07-06</text><text x="401.1" y="248" text-anchor="middle" font-size="10" fill="#8c959f" font-family="ui-monospace, SFMono-Regular, 'SF Mono', Menlo, monospace">06-08</text>

  <!-- legend -->
  <rect x="60" y="262" width="16" height="3" fill="#4e79a7" rx="1"/><text x="80" y="268" font-size="11" fill="#57606a" font-family="-apple-system, BlinkMacSystemFont, 'Segoe UI', sans-serif">Total clones (266)</text><line x1="230" y1="264" x2="246" y2="264" stroke="#f28e2b" stroke-width="2" stroke-dasharray="5,3"/><text x="250" y="268" font-size="11" fill="#57606a" font-family="-apple-system, BlinkMacSystemFont, 'Segoe UI', sans-serif">Unique cloners</text>

</svg>