<svg xmlns="http://www.w3.org/2000/svg" viewBox="0 0 820 280" width="820" height="280">

  <!-- title -->
  <text x="52" y="18" font-size="13" font-weight="600"
        fill="#24292f" font-family="-apple-system, BlinkMacSystemFont, 'Segoe UI', sans-serif"
        >Clone traffic — denial-shield</text>
  <text x="800" y="18" font-size="10" fill="#8c959f"
        font-family="ui-monospace, SFMono-Regular, 'SF Mono', Menlo, monospace" text-anchor="end">2026-07-21</text>

  <!-- grid -->
  <line x1="52" y1="232.0" x2="800" y2="232.0" stroke="#e8e8e8" stroke-width="1"/><line x1="52" y1="187.4" x2="800" y2="187.4" stroke="#e8e8e8" stroke-width="1"/><line x1="52" y1="142.8" x2="800" y2="142.8" stroke="#e8e8e8" stroke-width="1"/><line x1="52" y1="98.2" x2="800" y2="98.2" stroke="#e8e8e8" stroke-width="1"/><line x1="52" y1="53.6" x2="800" y2="53.6" stroke="#e8e8e8" stroke-width="1"/><line x1="52" y1="9.0" x2="800" y2="9.0" stroke="#e8e8e8" stroke-width="1"/>

  <!-- area fill -->
  <path d="M52.0,232.0 L52.0,232.0 L62.8,230.9 L73.7,228.7 L84.5,232.0 L95.4,229.8 L106.2,232.0 L117.0,232.0 L127.9,232.0 L138.7,230.9 L149.6,232.0 L160.4,232.0 L171.2,28.0 L182.1,223.1 L192.9,232.0 L203.8,219.7 L214.6,230.9 L225.4,229.8 L236.3,230.9 L247.1,229.8 L258.0,232.0 L268.8,230.9 L279.7,232.0 L290.5,230.9 L301.3,230.9 L312.2,232.0 L323.0,230.9 L333.9,232.0 L344.7,230.9 L355.5,232.0 L366.4,229.8 L377.2,230.9 L388.1,232.0 L398.9,232.0 L409.7,232.0 L420.6,232.0 L431.4,232.0 L442.3,232.0 L453.1,232.0 L463.9,219.7 L474.8,204.1 L485.6,232.0 L496.5,229.8 L507.3,232.0 L518.1,232.0 L529.0,230.9 L539.8,232.0 L550.7,232.0 L561.5,232.0 L572.3,232.0 L583.2,232.0 L594.0,232.0 L604.9,230.9 L615.7,232.0 L626.6,232.0 L637.4,230.9 L648.2,232.0 L659.1,232.0 L669.9,229.8 L680.8,232.0 L691.6,232.0 L702.4,232.0 L713.3,232.0 L724.1,232.0 L735.0,230.9 L745.8,232.0 L756.6,232.0 L767.5,230.9 L778.3,232.0 L789.2,232.0 L800.0,232.0 L800.0,232.0 L52.0,232.0Z" fill="#4e79a7" opacity="0.12"/>

  <!-- lines -->
  <polyline points="52.0,232.0 62.8,230.9 73.7,228.7 84.5,232.0 95.4,229.8 106.2,232.0 117.0,232.0 127.9,232.0 138.7,230.9 149.6,232.0 160.4,232.0 171.2,28.0 182.1,223.1 192.9,232.0 203.8,219.7 214.6,230.9 225.4,229.8 236.3,230.9 247.1,229.8 258.0,232.0 268.8,230.9 279.7,232.0 290.5,230.9 301.3,230.9 312.2,232.0 323.0,230.9 333.9,232.0 344.7,230.9 355.5,232.0 366.4,229.8 377.2,230.9 388.1,232.0 398.9,232.0 409.7,232.0 420.6,232.0 431.4,232.0 442.3,232.0 453.1,232.0 463.9,219.7 474.8,204.1 485.6,232.0 496.5,229.8 507.3,232.0 518.1,232.0 529.0,230.9 539.8,232.0 550.7,232.0 561.5,232.0 572.3,232.0 583.2,232.0 594.0,232.0 604.9,230.9 615.7,232.0 626.6,232.0 637.4,230.9 648.2,232.0 659.1,232.0 669.9,229.8 680.8,232.0 691.6,232.0 702.4,232.0 713.3,232.0 724.1,232.0 735.0,230.9 745.8,232.0 756.6,232.0 767.5,230.9 778.3,232.0 789.2,232.0 800.0,232.0"
            fill="none" stroke="#4e79a7"
            stroke-width="2" stroke-linejoin="round"/>
  <polyline points="52.0,232.0 62.8,230.9 73.7,228.7 84.5,232.0 95.4,229.8 106.2,232.0 117.0,232.0 127.9,232.0 138.7,230.9 149.6,232.0 160.4,232.0 171.2,156.2 182.1,227.5 192.9,232.0 203.8,223.1 214.6,230.9 225.4,229.8 236.3,230.9 247.1,229.8 258.0,232.0 268.8,230.9 279.7,232.0 290.5,230.9 301.3,230.9 312.2,232.0 323.0,230.9 333.9,232.0 344.7,230.9 355.5,232.0 366.4,229.8 377.2,230.9 388.1,232.0 398.9,232.0 409.7,232.0 420.6,232.0 431.4,232.0 442.3,232.0 453.1,232.0 463.9,224.2 474.8,222.0 485.6,232.0 496.5,229.8 507.3,232.0 518.1,232.0 529.0,230.9 539.8,232.0 550.7,232.0 561.5,232.0 572.3,232.0 583.2,232.0 594.0,232.0 604.9,230.9 615.7,232.0 626.6,232.0 637.4,230.9 648.2,232.0 659.1,232.0 669.9,230.9 680.8,232.0 691.6,232.0 702.4,232.0 713.3,232.0 724.1,232.0 735.0,230.9 745.8,232.0 756.6,232.0 767.5,230.9 778.3,232.0 789.2,232.0 800.0,232.0"
            fill="none" stroke="#f28e2b"
            stroke-width="2" stroke-linejoin="round"
            stroke-dasharray="5,3"/>

  <!-- dots -->
  <circle cx="52.0" cy="232.0" r="3" fill="#4e79a7"/><circle cx="62.8" cy="230.9" r="3" fill="#4e79a7"/><circle cx="73.7" cy="228.7" r="3" fill="#4e79a7"/><circle cx="84.5" cy="232.0" r="3" fill="#4e79a7"/><circle cx="95.4" cy="229.8" r="3" fill="#4e79a7"/><circle cx="106.2" cy="232.0" r="3" fill="#4e79a7"/><circle cx="117.0" cy="232.0" r="3" fill="#4e79a7"/><circle cx="127.9" cy="232.0" r="3" fill="#4e79a7"/><circle cx="138.7" cy="230.9" r="3" fill="#4e79a7"/><circle cx="149.6" cy="232.0" r="3" fill="#4e79a7"/><circle cx="160.4" cy="232.0" r="3" fill="#4e79a7"/><circle cx="171.2" cy="28.0" r="3" fill="#4e79a7"/><circle cx="182.1" cy="223.1" r="3" fill="#4e79a7"/><circle cx="192.9" cy="232.0" r="3" fill="#4e79a7"/><circle cx="203.8" cy="219.7" r="3" fill="#4e79a7"/><circle cx="214.6" cy="230.9" r="3" fill="#4e79a7"/><circle cx="225.4" cy="229.8" r="3" fill="#4e79a7"/><circle cx="236.3" cy="230.9" r="3" fill="#4e79a7"/><circle cx="247.1" cy="229.8" r="3" fill="#4e79a7"/><circle cx="258.0" cy="232.0" r="3" fill="#4e79a7"/><circle cx="268.8" cy="230.9" r="3" fill="#4e79a7"/><circle cx="279.7" cy="232.0" r="3" fill="#4e79a7"/><circle cx="290.5" cy="230.9" r="3" fill="#4e79a7"/><circle cx="301.3" cy="230.9" r="3" fill="#4e79a7"/><circle cx="312.2" cy="232.0" r="3" fill="#4e79a7"/><circle cx="323.0" cy="230.9" r="3" fill="#4e79a7"/><circle cx="333.9" cy="232.0" r="3" fill="#4e79a7"/><circle cx="344.7" cy="230.9" r="3" fill="#4e79a7"/><circle cx="355.5" cy="232.0" r="3" fill="#4e79a7"/><circle cx="366.4" cy="229.8" r="3" fill="#4e79a7"/><circle cx="377.2" cy="230.9" r="3" fill="#4e79a7"/><circle cx="388.1" cy="232.0" r="3" fill="#4e79a7"/><circle cx="398.9" cy="232.0" r="3" fill="#4e79a7"/><circle cx="409.7" cy="232.0" r="3" fill="#4e79a7"/><circle cx="420.6" cy="232.0" r="3" fill="#4e79a7"/><circle cx="431.4" cy="232.0" r="3" fill="#4e79a7"/><circle cx="442.3" cy="232.0" r="3" fill="#4e79a7"/><circle cx="453.1" cy="232.0" r="3" fill="#4e79a7"/><circle cx="463.9" cy="219.7" r="3" fill="#4e79a7"/><circle cx="474.8" cy="204.1" r="3" fill="#4e79a7"/><circle cx="485.6" cy="232.0" r="3" fill="#4e79a7"/><circle cx="496.5" cy="229.8" r="3" fill="#4e79a7"/><circle cx="507.3" cy="232.0" r="3" fill="#4e79a7"/><circle cx="518.1" cy="232.0" r="3" fill="#4e79a7"/><circle cx="529.0" cy="230.9" r="3" fill="#4e79a7"/><circle cx="539.8" cy="232.0" r="3" fill="#4e79a7"/><circle cx="550.7" cy="232.0" r="3" fill="#4e79a7"/><circle cx="561.5" cy="232.0" r="3" fill="#4e79a7"/><circle cx="572.3" cy="232.0" r="3" fill="#4e79a7"/><circle cx="583.2" cy="232.0" r="3" fill="#4e79a7"/><circle cx="594.0" cy="232.0" r="3" fill="#4e79a7"/><circle cx="604.9" cy="230.9" r="3" fill="#4e79a7"/><circle cx="615.7" cy="232.0" r="3" fill="#4e79a7"/><circle cx="626.6" cy="232.0" r="3" fill="#4e79a7"/><circle cx="637.4" cy="230.9" r="3" fill="#4e79a7"/><circle cx="648.2" cy="232.0" r="3" fill="#4e79a7"/><circle cx="659.1" cy="232.0" r="3" fill="#4e79a7"/><circle cx="669.9" cy="229.8" r="3" fill="#4e79a7"/><circle cx="680.8" cy="232.0" r="3" fill="#4e79a7"/><circle cx="691.6" cy="232.0" r="3" fill="#4e79a7"/><circle cx="702.4" cy="232.0" r="3" fill="#4e79a7"/><circle cx="713.3" cy="232.0" r="3" fill="#4e79a7"/><circle cx="724.1" cy="232.0" r="3" fill="#4e79a7"/><circle cx="735.0" cy="230.9" r="3" fill="#4e79a7"/><circle cx="745.8" cy="232.0" r="3" fill="#4e79a7"/><circle cx="756.6" cy="232.0" r="3" fill="#4e79a7"/><circle cx="767.5" cy="230.9" r="3" fill="#4e79a7"/><circle cx="778.3" cy="232.0" r="3" fill="#4e79a7"/><circle cx="789.2" cy="232.0" r="3" fill="#4e79a7"/><circle cx="800.0" cy="232.0" r="3" fill="#4e79a7"/>
  <circle cx="52.0" cy="232.0" r="3" fill="#f28e2b"/><circle cx="62.8" cy="230.9" r="3" fill="#f28e2b"/><circle cx="73.7" cy="228.7" r="3" fill="#f28e2b"/><circle cx="84.5" cy="232.0" r="3" fill="#f28e2b"/><circle cx="95.4" cy="229.8" r="3" fill="#f28e2b"/><circle cx="106.2" cy="232.0" r="3" fill="#f28e2b"/><circle cx="117.0" cy="232.0" r="3" fill="#f28e2b"/><circle cx="127.9" cy="232.0" r="3" fill="#f28e2b"/><circle cx="138.7" cy="230.9" r="3" fill="#f28e2b"/><circle cx="149.6" cy="232.0" r="3" fill="#f28e2b"/><circle cx="160.4" cy="232.0" r="3" fill="#f28e2b"/><circle cx="171.2" cy="156.2" r="3" fill="#f28e2b"/><circle cx="182.1" cy="227.5" r="3" fill="#f28e2b"/><circle cx="192.9" cy="232.0" r="3" fill="#f28e2b"/><circle cx="203.8" cy="223.1" r="3" fill="#f28e2b"/><circle cx="214.6" cy="230.9" r="3" fill="#f28e2b"/><circle cx="225.4" cy="229.8" r="3" fill="#f28e2b"/><circle cx="236.3" cy="230.9" r="3" fill="#f28e2b"/><circle cx="247.1" cy="229.8" r="3" fill="#f28e2b"/><circle cx="258.0" cy="232.0" r="3" fill="#f28e2b"/><circle cx="268.8" cy="230.9" r="3" fill="#f28e2b"/><circle cx="279.7" cy="232.0" r="3" fill="#f28e2b"/><circle cx="290.5" cy="230.9" r="3" fill="#f28e2b"/><circle cx="301.3" cy="230.9" r="3" fill="#f28e2b"/><circle cx="312.2" cy="232.0" r="3" fill="#f28e2b"/><circle cx="323.0" cy="230.9" r="3" fill="#f28e2b"/><circle cx="333.9" cy="232.0" r="3" fill="#f28e2b"/><circle cx="344.7" cy="230.9" r="3" fill="#f28e2b"/><circle cx="355.5" cy="232.0" r="3" fill="#f28e2b"/><circle cx="366.4" cy="229.8" r="3" fill="#f28e2b"/><circle cx="377.2" cy="230.9" r="3" fill="#f28e2b"/><circle cx="388.1" cy="232.0" r="3" fill="#f28e2b"/><circle cx="398.9" cy="232.0" r="3" fill="#f28e2b"/><circle cx="409.7" cy="232.0" r="3" fill="#f28e2b"/><circle cx="420.6" cy="232.0" r="3" fill="#f28e2b"/><circle cx="431.4" cy="232.0" r="3" fill="#f28e2b"/><circle cx="442.3" cy="232.0" r="3" fill="#f28e2b"/><circle cx="453.1" cy="232.0" r="3" fill="#f28e2b"/><circle cx="463.9" cy="224.2" r="3" fill="#f28e2b"/><circle cx="474.8" cy="222.0" r="3" fill="#f28e2b"/><circle cx="485.6" cy="232.0" r="3" fill="#f28e2b"/><circle cx="496.5" cy="229.8" r="3" fill="#f28e2b"/><circle cx="507.3" cy="232.0" r="3" fill="#f28e2b"/><circle cx="518.1" cy="232.0" r="3" fill="#f28e2b"/><circle cx="529.0" cy="230.9" r="3" fill="#f28e2b"/><circle cx="539.8" cy="232.0" r="3" fill="#f28e2b"/><circle cx="550.7" cy="232.0" r="3" fill="#f28e2b"/><circle cx="561.5" cy="232.0" r="3" fill="#f28e2b"/><circle cx="572.3" cy="232.0" r="3" fill="#f28e2b"/><circle cx="583.2" cy="232.0" r="3" fill="#f28e2b"/><circle cx="594.0" cy="232.0" r="3" fill="#f28e2b"/><circle cx="604.9" cy="230.9" r="3" fill="#f28e2b"/><circle cx="615.7" cy="232.0" r="3" fill="#f28e2b"/><circle cx="626.6" cy="232.0" r="3" fill="#f28e2b"/><circle cx="637.4" cy="230.9" r="3" fill="#f28e2b"/><circle cx="648.2" cy="232.0" r="3" fill="#f28e2b"/><circle cx="659.1" cy="232.0" r="3" fill="#f28e2b"/><circle cx="669.9" cy="230.9" r="3" fill="#f28e2b"/><circle cx="680.8" cy="232.0" r="3" fill="#f28e2b"/><circle cx="691.6" cy="232.0" r="3" fill="#f28e2b"/><circle cx="702.4" cy="232.0" r="3" fill="#f28e2b"/><circle cx="713.3" cy="232.0" r="3" fill="#f28e2b"/><circle cx="724.1" cy="232.0" r="3" fill="#f28e2b"/><circle cx="735.0" cy="230.9" r="3" fill="#f28e2b"/><circle cx="745.8" cy="232.0" r="3" fill="#f28e2b"/><circle cx="756.6" cy="232.0" r="3" fill="#f28e2b"/><circle cx="767.5" cy="230.9" r="3" fill="#f28e2b"/><circle cx="778.3" cy="232.0" r="3" fill="#f28e2b"/><circle cx="789.2" cy="232.0" r="3" fill="#f28e2b"/><circle cx="800.0" cy="232.0" r="3" fill="#f28e2b"/>

  <!-- axes -->
  <line x1="52" y1="28" x2="52" y2="232"
        stroke="#cccccc" stroke-width="1"/>
  <line x1="52" y1="232" x2="800" y2="232"
        stroke="#cccccc" stroke-width="1"/>

  <!-- y-axis labels -->
  <text x="47" y="236.0" text-anchor="end" font-size="10" fill="#57606a" font-family="ui-monospace, SFMono-Regular, 'SF Mono', Menlo, monospace">0</text><text x="47" y="191.4" text-anchor="end" font-size="10" fill="#57606a" font-family="ui-monospace, SFMono-Regular, 'SF Mono', Menlo, monospace">40</text><text x="47" y="146.8" text-anchor="end" font-size="10" fill="#57606a" font-family="ui-monospace, SFMono-Regular, 'SF Mono', Menlo, monospace">80</text><text x="47" y="102.2" text-anchor="end" font-size="10" fill="#57606a" font-family="ui-monospace, SFMono-Regular, 'SF Mono', Menlo, monospace">120</text><text x="47" y="57.6" text-anchor="end" font-size="10" fill="#57606a" font-family="ui-monospace, SFMono-Regular, 'SF Mono', Menlo, monospace">160</text><text x="47" y="13.0" text-anchor="end" font-size="10" fill="#57606a" font-family="ui-monospace, SFMono-Regular, 'SF Mono', Menlo, monospace">200</text>

  <!-- x-axis labels -->
  <text x="52.0" y="248" text-anchor="middle" font-size="10" fill="#8c959f" font-family="ui-monospace, SFMono-Regular, 'SF Mono', Menlo, monospace">05-11</text><text x="398.9" y="248" text-anchor="middle" font-size="10" fill="#8c959f" font-family="ui-monospace, SFMono-Regular, 'SF Mono', Menlo, monospace">06-12</text><text x="745.8" y="248" text-anchor="middle" font-size="10" fill="#8c959f" font-family="ui-monospace, SFMono-Regular, 'SF Mono', Menlo, monospace">07-14</text><text x="800.0" y="248" text-anchor="middle" font-size="10" fill="#8c959f" font-family="ui-monospace, SFMono-Regular, 'SF Mono', Menlo, monospace">07-19</text><text x="138.7" y="248" text-anchor="middle" font-size="10" fill="#8c959f" font-family="ui-monospace, SFMono-Regular, 'SF Mono', Menlo, monospace">05-19</text><text x="485.6" y="248" text-anchor="middle" font-size="10" fill="#8c959f" font-family="ui-monospace, SFMono-Regular, 'SF Mono', Menlo, monospace">06-20</text><text x="225.4" y="248" text-anchor="middle" font-size="10" fill="#8c959f" font-family="ui-monospace, SFMono-Regular, 'SF Mono', Menlo, monospace">05-27</text><text x="572.3" y="248" text-anchor="middle" font-size="10" fill="#8c959f" font-family="ui-monospace, SFMono-Regular, 'SF Mono', Menlo, monospace">06-28</text><text x="312.2" y="248" text-anchor="middle" font-size="10" fill="#8c959f" font-family="ui-monospace, SFMono-Regular, 'SF Mono', Menlo, monospace">06-04</text><text x="659.1" y="248" text-anchor="middle" font-size="10" fill="#8c959f" font-family="ui-monospace, SFMono-Regular, 'SF Mono', Menlo, monospace">07-06</text>

  <!-- legend -->
  <rect x="60" y="262" width="16" height="3" fill="#4e79a7" rx="1"/><text x="80" y="268" font-size="11" fill="#57606a" font-family="-apple-system, BlinkMacSystemFont, 'Segoe UI', sans-serif">Total clones (268)</text><line x1="230" y1="264" x2="246" y2="264" stroke="#f28e2b" stroke-width="2" stroke-dasharray="5,3"/><text x="250" y="268" font-size="11" fill="#57606a" font-family="-apple-system, BlinkMacSystemFont, 'Segoe UI', sans-serif">Unique cloners</text>

</svg>