<svg xmlns="http://www.w3.org/2000/svg" viewBox="0 0 820 280" width="820" height="280">

  <!-- title -->
  <text x="52" y="18" font-size="13" font-weight="600"
        fill="#24292f" font-family="-apple-system, BlinkMacSystemFont, 'Segoe UI', sans-serif"
        >Clone traffic — denial-shield</text>
  <text x="800" y="18" font-size="10" fill="#8c959f"
        font-family="ui-monospace, SFMono-Regular, 'SF Mono', Menlo, monospace" text-anchor="end">2026-06-28</text>

  <!-- grid -->
  <line x1="52" y1="232.0" x2="800" y2="232.0" stroke="#e8e8e8" stroke-width="1"/><line x1="52" y1="187.4" x2="800" y2="187.4" stroke="#e8e8e8" stroke-width="1"/><line x1="52" y1="142.8" x2="800" y2="142.8" stroke="#e8e8e8" stroke-width="1"/><line x1="52" y1="98.2" x2="800" y2="98.2" stroke="#e8e8e8" stroke-width="1"/><line x1="52" y1="53.6" x2="800" y2="53.6" stroke="#e8e8e8" stroke-width="1"/><line x1="52" y1="9.0" x2="800" y2="9.0" stroke="#e8e8e8" stroke-width="1"/>

  <!-- area fill -->
  <path d="M52.0,232.0 L52.0,232.0 L68.3,230.9 L84.5,228.7 L100.8,232.0 L117.0,229.8 L133.3,232.0 L149.6,232.0 L165.8,232.0 L182.1,230.9 L198.3,232.0 L214.6,232.0 L230.9,28.0 L247.1,223.1 L263.4,232.0 L279.7,219.7 L295.9,230.9 L312.2,229.8 L328.4,230.9 L344.7,229.8 L361.0,232.0 L377.2,230.9 L393.5,232.0 L409.7,230.9 L426.0,230.9 L442.3,232.0 L458.5,230.9 L474.8,232.0 L491.0,230.9 L507.3,232.0 L523.6,229.8 L539.8,230.9 L556.1,232.0 L572.3,232.0 L588.6,232.0 L604.9,232.0 L621.1,232.0 L637.4,232.0 L653.7,232.0 L669.9,219.7 L686.2,204.1 L702.4,232.0 L718.7,229.8 L735.0,232.0 L751.2,232.0 L767.5,230.9 L783.7,232.0 L800.0,232.0 L800.0,232.0 L52.0,232.0Z" fill="#4e79a7" opacity="0.12"/>

  <!-- lines -->
  <polyline points="52.0,232.0 68.3,230.9 84.5,228.7 100.8,232.0 117.0,229.8 133.3,232.0 149.6,232.0 165.8,232.0 182.1,230.9 198.3,232.0 214.6,232.0 230.9,28.0 247.1,223.1 263.4,232.0 279.7,219.7 295.9,230.9 312.2,229.8 328.4,230.9 344.7,229.8 361.0,232.0 377.2,230.9 393.5,232.0 409.7,230.9 426.0,230.9 442.3,232.0 458.5,230.9 474.8,232.0 491.0,230.9 507.3,232.0 523.6,229.8 539.8,230.9 556.1,232.0 572.3,232.0 588.6,232.0 604.9,232.0 621.1,232.0 637.4,232.0 653.7,232.0 669.9,219.7 686.2,204.1 702.4,232.0 718.7,229.8 735.0,232.0 751.2,232.0 767.5,230.9 783.7,232.0 800.0,232.0"
            fill="none" stroke="#4e79a7"
            stroke-width="2" stroke-linejoin="round"/>
  <polyline points="52.0,232.0 68.3,230.9 84.5,228.7 100.8,232.0 117.0,229.8 133.3,232.0 149.6,232.0 165.8,232.0 182.1,230.9 198.3,232.0 214.6,232.0 230.9,156.2 247.1,227.5 263.4,232.0 279.7,223.1 295.9,230.9 312.2,229.8 328.4,230.9 344.7,229.8 361.0,232.0 377.2,230.9 393.5,232.0 409.7,230.9 426.0,230.9 442.3,232.0 458.5,230.9 474.8,232.0 491.0,230.9 507.3,232.0 523.6,229.8 539.8,230.9 556.1,232.0 572.3,232.0 588.6,232.0 604.9,232.0 621.1,232.0 637.4,232.0 653.7,232.0 669.9,224.2 686.2,222.0 702.4,232.0 718.7,229.8 735.0,232.0 751.2,232.0 767.5,230.9 783.7,232.0 800.0,232.0"
            fill="none" stroke="#f28e2b"
            stroke-width="2" stroke-linejoin="round"
            stroke-dasharray="5,3"/>

  <!-- dots -->
  <circle cx="52.0" cy="232.0" r="3" fill="#4e79a7"/><circle cx="68.3" cy="230.9" r="3" fill="#4e79a7"/><circle cx="84.5" cy="228.7" r="3" fill="#4e79a7"/><circle cx="100.8" cy="232.0" r="3" fill="#4e79a7"/><circle cx="117.0" cy="229.8" r="3" fill="#4e79a7"/><circle cx="133.3" cy="232.0" r="3" fill="#4e79a7"/><circle cx="149.6" cy="232.0" r="3" fill="#4e79a7"/><circle cx="165.8" cy="232.0" r="3" fill="#4e79a7"/><circle cx="182.1" cy="230.9" r="3" fill="#4e79a7"/><circle cx="198.3" cy="232.0" r="3" fill="#4e79a7"/><circle cx="214.6" cy="232.0" r="3" fill="#4e79a7"/><circle cx="230.9" cy="28.0" r="3" fill="#4e79a7"/><circle cx="247.1" cy="223.1" r="3" fill="#4e79a7"/><circle cx="263.4" cy="232.0" r="3" fill="#4e79a7"/><circle cx="279.7" cy="219.7" r="3" fill="#4e79a7"/><circle cx="295.9" cy="230.9" r="3" fill="#4e79a7"/><circle cx="312.2" cy="229.8" r="3" fill="#4e79a7"/><circle cx="328.4" cy="230.9" r="3" fill="#4e79a7"/><circle cx="344.7" cy="229.8" r="3" fill="#4e79a7"/><circle cx="361.0" cy="232.0" r="3" fill="#4e79a7"/><circle cx="377.2" cy="230.9" r="3" fill="#4e79a7"/><circle cx="393.5" cy="232.0" r="3" fill="#4e79a7"/><circle cx="409.7" cy="230.9" r="3" fill="#4e79a7"/><circle cx="426.0" cy="230.9" r="3" fill="#4e79a7"/><circle cx="442.3" cy="232.0" r="3" fill="#4e79a7"/><circle cx="458.5" cy="230.9" r="3" fill="#4e79a7"/><circle cx="474.8" cy="232.0" r="3" fill="#4e79a7"/><circle cx="491.0" cy="230.9" r="3" fill="#4e79a7"/><circle cx="507.3" cy="232.0" r="3" fill="#4e79a7"/><circle cx="523.6" cy="229.8" r="3" fill="#4e79a7"/><circle cx="539.8" cy="230.9" r="3" fill="#4e79a7"/><circle cx="556.1" cy="232.0" r="3" fill="#4e79a7"/><circle cx="572.3" cy="232.0" r="3" fill="#4e79a7"/><circle cx="588.6" cy="232.0" r="3" fill="#4e79a7"/><circle cx="604.9" cy="232.0" r="3" fill="#4e79a7"/><circle cx="621.1" cy="232.0" r="3" fill="#4e79a7"/><circle cx="637.4" cy="232.0" r="3" fill="#4e79a7"/><circle cx="653.7" cy="232.0" r="3" fill="#4e79a7"/><circle cx="669.9" cy="219.7" r="3" fill="#4e79a7"/><circle cx="686.2" cy="204.1" r="3" fill="#4e79a7"/><circle cx="702.4" cy="232.0" r="3" fill="#4e79a7"/><circle cx="718.7" cy="229.8" r="3" fill="#4e79a7"/><circle cx="735.0" cy="232.0" r="3" fill="#4e79a7"/><circle cx="751.2" cy="232.0" r="3" fill="#4e79a7"/><circle cx="767.5" cy="230.9" r="3" fill="#4e79a7"/><circle cx="783.7" cy="232.0" r="3" fill="#4e79a7"/><circle cx="800.0" cy="232.0" r="3" fill="#4e79a7"/>
  <circle cx="52.0" cy="232.0" r="3" fill="#f28e2b"/><circle cx="68.3" cy="230.9" r="3" fill="#f28e2b"/><circle cx="84.5" cy="228.7" r="3" fill="#f28e2b"/><circle cx="100.8" cy="232.0" r="3" fill="#f28e2b"/><circle cx="117.0" cy="229.8" r="3" fill="#f28e2b"/><circle cx="133.3" cy="232.0" r="3" fill="#f28e2b"/><circle cx="149.6" cy="232.0" r="3" fill="#f28e2b"/><circle cx="165.8" cy="232.0" r="3" fill="#f28e2b"/><circle cx="182.1" cy="230.9" r="3" fill="#f28e2b"/><circle cx="198.3" cy="232.0" r="3" fill="#f28e2b"/><circle cx="214.6" cy="232.0" r="3" fill="#f28e2b"/><circle cx="230.9" cy="156.2" r="3" fill="#f28e2b"/><circle cx="247.1" cy="227.5" r="3" fill="#f28e2b"/><circle cx="263.4" cy="232.0" r="3" fill="#f28e2b"/><circle cx="279.7" cy="223.1" r="3" fill="#f28e2b"/><circle cx="295.9" cy="230.9" r="3" fill="#f28e2b"/><circle cx="312.2" cy="229.8" r="3" fill="#f28e2b"/><circle cx="328.4" cy="230.9" r="3" fill="#f28e2b"/><circle cx="344.7" cy="229.8" r="3" fill="#f28e2b"/><circle cx="361.0" cy="232.0" r="3" fill="#f28e2b"/><circle cx="377.2" cy="230.9" r="3" fill="#f28e2b"/><circle cx="393.5" cy="232.0" r="3" fill="#f28e2b"/><circle cx="409.7" cy="230.9" r="3" fill="#f28e2b"/><circle cx="426.0" cy="230.9" r="3" fill="#f28e2b"/><circle cx="442.3" cy="232.0" r="3" fill="#f28e2b"/><circle cx="458.5" cy="230.9" r="3" fill="#f28e2b"/><circle cx="474.8" cy="232.0" r="3" fill="#f28e2b"/><circle cx="491.0" cy="230.9" r="3" fill="#f28e2b"/><circle cx="507.3" cy="232.0" r="3" fill="#f28e2b"/><circle cx="523.6" cy="229.8" r="3" fill="#f28e2b"/><circle cx="539.8" cy="230.9" r="3" fill="#f28e2b"/><circle cx="556.1" cy="232.0" r="3" fill="#f28e2b"/><circle cx="572.3" cy="232.0" r="3" fill="#f28e2b"/><circle cx="588.6" cy="232.0" r="3" fill="#f28e2b"/><circle cx="604.9" cy="232.0" r="3" fill="#f28e2b"/><circle cx="621.1" cy="232.0" r="3" fill="#f28e2b"/><circle cx="637.4" cy="232.0" r="3" fill="#f28e2b"/><circle cx="653.7" cy="232.0" r="3" fill="#f28e2b"/><circle cx="669.9" cy="224.2" r="3" fill="#f28e2b"/><circle cx="686.2" cy="222.0" r="3" fill="#f28e2b"/><circle cx="702.4" cy="232.0" r="3" fill="#f28e2b"/><circle cx="718.7" cy="229.8" r="3" fill="#f28e2b"/><circle cx="735.0" cy="232.0" r="3" fill="#f28e2b"/><circle cx="751.2" cy="232.0" r="3" fill="#f28e2b"/><circle cx="767.5" cy="230.9" r="3" fill="#f28e2b"/><circle cx="783.7" cy="232.0" r="3" fill="#f28e2b"/><circle cx="800.0" cy="232.0" r="3" fill="#f28e2b"/>

  <!-- axes -->
  <line x1="52" y1="28" x2="52" y2="232"
        stroke="#cccccc" stroke-width="1"/>
  <line x1="52" y1="232" x2="800" y2="232"
        stroke="#cccccc" stroke-width="1"/>

  <!-- y-axis labels -->
  <text x="47" y="236.0" text-anchor="end" font-size="10" fill="#57606a" font-family="ui-monospace, SFMono-Regular, 'SF Mono', Menlo, monospace">0</text><text x="47" y="191.4" text-anchor="end" font-size="10" fill="#57606a" font-family="ui-monospace, SFMono-Regular, 'SF Mono', Menlo, monospace">40</text><text x="47" y="146.8" text-anchor="end" font-size="10" fill="#57606a" font-family="ui-monospace, SFMono-Regular, 'SF Mono', Menlo, monospace">80</text><text x="47" y="102.2" text-anchor="end" font-size="10" fill="#57606a" font-family="ui-monospace, SFMono-Regular, 'SF Mono', Menlo, monospace">120</text><text x="47" y="57.6" text-anchor="end" font-size="10" fill="#57606a" font-family="ui-monospace, SFMono-Regular, 'SF Mono', Menlo, monospace">160</text><text x="47" y="13.0" text-anchor="end" font-size="10" fill="#57606a" font-family="ui-monospace, SFMono-Regular, 'SF Mono', Menlo, monospace">200</text>

  <!-- x-axis labels -->
  <text x="52.0" y="248" text-anchor="middle" font-size="10" fill="#8c959f" font-family="ui-monospace, SFMono-Regular, 'SF Mono', Menlo, monospace">05-11</text><text x="621.1" y="248" text-anchor="middle" font-size="10" fill="#8c959f" font-family="ui-monospace, SFMono-Regular, 'SF Mono', Menlo, monospace">06-15</text><text x="133.3" y="248" text-anchor="middle" font-size="10" fill="#8c959f" font-family="ui-monospace, SFMono-Regular, 'SF Mono', Menlo, monospace">05-16</text><text x="702.4" y="248" text-anchor="middle" font-size="10" fill="#8c959f" font-family="ui-monospace, SFMono-Regular, 'SF Mono', Menlo, monospace">06-20</text><text x="214.6" y="248" text-anchor="middle" font-size="10" fill="#8c959f" font-family="ui-monospace, SFMono-Regular, 'SF Mono', Menlo, monospace">05-21</text><text x="783.7" y="248" text-anchor="middle" font-size="10" fill="#8c959f" font-family="ui-monospace, SFMono-Regular, 'SF Mono', Menlo, monospace">06-25</text><text x="800.0" y="248" text-anchor="middle" font-size="10" fill="#8c959f" font-family="ui-monospace, SFMono-Regular, 'SF Mono', Menlo, monospace">06-26</text><text x="295.9" y="248" text-anchor="middle" font-size="10" fill="#8c959f" font-family="ui-monospace, SFMono-Regular, 'SF Mono', Menlo, monospace">05-26</text><text x="377.2" y="248" text-anchor="middle" font-size="10" fill="#8c959f" font-family="ui-monospace, SFMono-Regular, 'SF Mono', Menlo, monospace">05-31</text><text x="458.5" y="248" text-anchor="middle" font-size="10" fill="#8c959f" font-family="ui-monospace, SFMono-Regular, 'SF Mono', Menlo, monospace">06-05</text><text x="539.8" y="248" text-anchor="middle" font-size="10" fill="#8c959f" font-family="ui-monospace, SFMono-Regular, 'SF Mono', Menlo, monospace">06-10</text>

  <!-- legend -->
  <rect x="60" y="262" width="16" height="3" fill="#4e79a7" rx="1"/><text x="80" y="268" font-size="11" fill="#57606a" font-family="-apple-system, BlinkMacSystemFont, 'Segoe UI', sans-serif">Total clones (262)</text><line x1="230" y1="264" x2="246" y2="264" stroke="#f28e2b" stroke-width="2" stroke-dasharray="5,3"/><text x="250" y="268" font-size="11" fill="#57606a" font-family="-apple-system, BlinkMacSystemFont, 'Segoe UI', sans-serif">Unique cloners</text>

</svg>