<svg xmlns="http://www.w3.org/2000/svg" viewBox="0 0 820 280" width="820" height="280">

  <!-- title -->
  <text x="52" y="18" font-size="13" font-weight="600"
        fill="#24292f" font-family="-apple-system, BlinkMacSystemFont, 'Segoe UI', sans-serif"
        >Clone traffic — denial-shield</text>
  <text x="800" y="18" font-size="10" fill="#8c959f"
        font-family="ui-monospace, SFMono-Regular, 'SF Mono', Menlo, monospace" text-anchor="end">2026-06-23</text>

  <!-- grid -->
  <line x1="52" y1="232.0" x2="800" y2="232.0" stroke="#e8e8e8" stroke-width="1"/><line x1="52" y1="187.4" x2="800" y2="187.4" stroke="#e8e8e8" stroke-width="1"/><line x1="52" y1="142.8" x2="800" y2="142.8" stroke="#e8e8e8" stroke-width="1"/><line x1="52" y1="98.2" x2="800" y2="98.2" stroke="#e8e8e8" stroke-width="1"/><line x1="52" y1="53.6" x2="800" y2="53.6" stroke="#e8e8e8" stroke-width="1"/><line x1="52" y1="9.0" x2="800" y2="9.0" stroke="#e8e8e8" stroke-width="1"/>

  <!-- area fill -->
  <path d="M52.0,232.0 L52.0,232.0 L70.2,230.9 L88.5,228.7 L106.7,232.0 L125.0,229.8 L143.2,232.0 L161.5,232.0 L179.7,232.0 L198.0,230.9 L216.2,232.0 L234.4,232.0 L252.7,28.0 L270.9,223.1 L289.2,232.0 L307.4,219.7 L325.7,230.9 L343.9,229.8 L362.1,230.9 L380.4,229.8 L398.6,232.0 L416.9,230.9 L435.1,232.0 L453.4,230.9 L471.6,230.9 L489.9,232.0 L508.1,230.9 L526.3,232.0 L544.6,230.9 L562.8,232.0 L581.1,229.8 L599.3,230.9 L617.6,232.0 L635.8,232.0 L654.0,232.0 L672.3,232.0 L690.5,232.0 L708.8,232.0 L727.0,232.0 L745.3,219.7 L763.5,204.1 L781.8,232.0 L800.0,229.8 L800.0,232.0 L52.0,232.0Z" fill="#4e79a7" opacity="0.12"/>

  <!-- lines -->
  <polyline points="52.0,232.0 70.2,230.9 88.5,228.7 106.7,232.0 125.0,229.8 143.2,232.0 161.5,232.0 179.7,232.0 198.0,230.9 216.2,232.0 234.4,232.0 252.7,28.0 270.9,223.1 289.2,232.0 307.4,219.7 325.7,230.9 343.9,229.8 362.1,230.9 380.4,229.8 398.6,232.0 416.9,230.9 435.1,232.0 453.4,230.9 471.6,230.9 489.9,232.0 508.1,230.9 526.3,232.0 544.6,230.9 562.8,232.0 581.1,229.8 599.3,230.9 617.6,232.0 635.8,232.0 654.0,232.0 672.3,232.0 690.5,232.0 708.8,232.0 727.0,232.0 745.3,219.7 763.5,204.1 781.8,232.0 800.0,229.8"
            fill="none" stroke="#4e79a7"
            stroke-width="2" stroke-linejoin="round"/>
  <polyline points="52.0,232.0 70.2,230.9 88.5,228.7 106.7,232.0 125.0,229.8 143.2,232.0 161.5,232.0 179.7,232.0 198.0,230.9 216.2,232.0 234.4,232.0 252.7,156.2 270.9,227.5 289.2,232.0 307.4,223.1 325.7,230.9 343.9,229.8 362.1,230.9 380.4,229.8 398.6,232.0 416.9,230.9 435.1,232.0 453.4,230.9 471.6,230.9 489.9,232.0 508.1,230.9 526.3,232.0 544.6,230.9 562.8,232.0 581.1,229.8 599.3,230.9 617.6,232.0 635.8,232.0 654.0,232.0 672.3,232.0 690.5,232.0 708.8,232.0 727.0,232.0 745.3,224.2 763.5,222.0 781.8,232.0 800.0,229.8"
            fill="none" stroke="#f28e2b"
            stroke-width="2" stroke-linejoin="round"
            stroke-dasharray="5,3"/>

  <!-- dots -->
  <circle cx="52.0" cy="232.0" r="3" fill="#4e79a7"/><circle cx="70.2" cy="230.9" r="3" fill="#4e79a7"/><circle cx="88.5" cy="228.7" r="3" fill="#4e79a7"/><circle cx="106.7" cy="232.0" r="3" fill="#4e79a7"/><circle cx="125.0" cy="229.8" r="3" fill="#4e79a7"/><circle cx="143.2" cy="232.0" r="3" fill="#4e79a7"/><circle cx="161.5" cy="232.0" r="3" fill="#4e79a7"/><circle cx="179.7" cy="232.0" r="3" fill="#4e79a7"/><circle cx="198.0" cy="230.9" r="3" fill="#4e79a7"/><circle cx="216.2" cy="232.0" r="3" fill="#4e79a7"/><circle cx="234.4" cy="232.0" r="3" fill="#4e79a7"/><circle cx="252.7" cy="28.0" r="3" fill="#4e79a7"/><circle cx="270.9" cy="223.1" r="3" fill="#4e79a7"/><circle cx="289.2" cy="232.0" r="3" fill="#4e79a7"/><circle cx="307.4" cy="219.7" r="3" fill="#4e79a7"/><circle cx="325.7" cy="230.9" r="3" fill="#4e79a7"/><circle cx="343.9" cy="229.8" r="3" fill="#4e79a7"/><circle cx="362.1" cy="230.9" r="3" fill="#4e79a7"/><circle cx="380.4" cy="229.8" r="3" fill="#4e79a7"/><circle cx="398.6" cy="232.0" r="3" fill="#4e79a7"/><circle cx="416.9" cy="230.9" r="3" fill="#4e79a7"/><circle cx="435.1" cy="232.0" r="3" fill="#4e79a7"/><circle cx="453.4" cy="230.9" r="3" fill="#4e79a7"/><circle cx="471.6" cy="230.9" r="3" fill="#4e79a7"/><circle cx="489.9" cy="232.0" r="3" fill="#4e79a7"/><circle cx="508.1" cy="230.9" r="3" fill="#4e79a7"/><circle cx="526.3" cy="232.0" r="3" fill="#4e79a7"/><circle cx="544.6" cy="230.9" r="3" fill="#4e79a7"/><circle cx="562.8" cy="232.0" r="3" fill="#4e79a7"/><circle cx="581.1" cy="229.8" r="3" fill="#4e79a7"/><circle cx="599.3" cy="230.9" r="3" fill="#4e79a7"/><circle cx="617.6" cy="232.0" r="3" fill="#4e79a7"/><circle cx="635.8" cy="232.0" r="3" fill="#4e79a7"/><circle cx="654.0" cy="232.0" r="3" fill="#4e79a7"/><circle cx="672.3" cy="232.0" r="3" fill="#4e79a7"/><circle cx="690.5" cy="232.0" r="3" fill="#4e79a7"/><circle cx="708.8" cy="232.0" r="3" fill="#4e79a7"/><circle cx="727.0" cy="232.0" r="3" fill="#4e79a7"/><circle cx="745.3" cy="219.7" r="3" fill="#4e79a7"/><circle cx="763.5" cy="204.1" r="3" fill="#4e79a7"/><circle cx="781.8" cy="232.0" r="3" fill="#4e79a7"/><circle cx="800.0" cy="229.8" r="3" fill="#4e79a7"/>
  <circle cx="52.0" cy="232.0" r="3" fill="#f28e2b"/><circle cx="70.2" cy="230.9" r="3" fill="#f28e2b"/><circle cx="88.5" cy="228.7" r="3" fill="#f28e2b"/><circle cx="106.7" cy="232.0" r="3" fill="#f28e2b"/><circle cx="125.0" cy="229.8" r="3" fill="#f28e2b"/><circle cx="143.2" cy="232.0" r="3" fill="#f28e2b"/><circle cx="161.5" cy="232.0" r="3" fill="#f28e2b"/><circle cx="179.7" cy="232.0" r="3" fill="#f28e2b"/><circle cx="198.0" cy="230.9" r="3" fill="#f28e2b"/><circle cx="216.2" cy="232.0" r="3" fill="#f28e2b"/><circle cx="234.4" cy="232.0" r="3" fill="#f28e2b"/><circle cx="252.7" cy="156.2" r="3" fill="#f28e2b"/><circle cx="270.9" cy="227.5" r="3" fill="#f28e2b"/><circle cx="289.2" cy="232.0" r="3" fill="#f28e2b"/><circle cx="307.4" cy="223.1" r="3" fill="#f28e2b"/><circle cx="325.7" cy="230.9" r="3" fill="#f28e2b"/><circle cx="343.9" cy="229.8" r="3" fill="#f28e2b"/><circle cx="362.1" cy="230.9" r="3" fill="#f28e2b"/><circle cx="380.4" cy="229.8" r="3" fill="#f28e2b"/><circle cx="398.6" cy="232.0" r="3" fill="#f28e2b"/><circle cx="416.9" cy="230.9" r="3" fill="#f28e2b"/><circle cx="435.1" cy="232.0" r="3" fill="#f28e2b"/><circle cx="453.4" cy="230.9" r="3" fill="#f28e2b"/><circle cx="471.6" cy="230.9" r="3" fill="#f28e2b"/><circle cx="489.9" cy="232.0" r="3" fill="#f28e2b"/><circle cx="508.1" cy="230.9" r="3" fill="#f28e2b"/><circle cx="526.3" cy="232.0" r="3" fill="#f28e2b"/><circle cx="544.6" cy="230.9" r="3" fill="#f28e2b"/><circle cx="562.8" cy="232.0" r="3" fill="#f28e2b"/><circle cx="581.1" cy="229.8" r="3" fill="#f28e2b"/><circle cx="599.3" cy="230.9" r="3" fill="#f28e2b"/><circle cx="617.6" cy="232.0" r="3" fill="#f28e2b"/><circle cx="635.8" cy="232.0" r="3" fill="#f28e2b"/><circle cx="654.0" cy="232.0" r="3" fill="#f28e2b"/><circle cx="672.3" cy="232.0" r="3" fill="#f28e2b"/><circle cx="690.5" cy="232.0" r="3" fill="#f28e2b"/><circle cx="708.8" cy="232.0" r="3" fill="#f28e2b"/><circle cx="727.0" cy="232.0" r="3" fill="#f28e2b"/><circle cx="745.3" cy="224.2" r="3" fill="#f28e2b"/><circle cx="763.5" cy="222.0" r="3" fill="#f28e2b"/><circle cx="781.8" cy="232.0" r="3" fill="#f28e2b"/><circle cx="800.0" cy="229.8" r="3" fill="#f28e2b"/>

  <!-- axes -->
  <line x1="52" y1="28" x2="52" y2="232"
        stroke="#cccccc" stroke-width="1"/>
  <line x1="52" y1="232" x2="800" y2="232"
        stroke="#cccccc" stroke-width="1"/>

  <!-- y-axis labels -->
  <text x="47" y="236.0" text-anchor="end" font-size="10" fill="#57606a" font-family="ui-monospace, SFMono-Regular, 'SF Mono', Menlo, monospace">0</text><text x="47" y="191.4" text-anchor="end" font-size="10" fill="#57606a" font-family="ui-monospace, SFMono-Regular, 'SF Mono', Menlo, monospace">40</text><text x="47" y="146.8" text-anchor="end" font-size="10" fill="#57606a" font-family="ui-monospace, SFMono-Regular, 'SF Mono', Menlo, monospace">80</text><text x="47" y="102.2" text-anchor="end" font-size="10" fill="#57606a" font-family="ui-monospace, SFMono-Regular, 'SF Mono', Menlo, monospace">120</text><text x="47" y="57.6" text-anchor="end" font-size="10" fill="#57606a" font-family="ui-monospace, SFMono-Regular, 'SF Mono', Menlo, monospace">160</text><text x="47" y="13.0" text-anchor="end" font-size="10" fill="#57606a" font-family="ui-monospace, SFMono-Regular, 'SF Mono', Menlo, monospace">200</text>

  <!-- x-axis labels -->
  <text x="52.0" y="248" text-anchor="middle" font-size="10" fill="#8c959f" font-family="ui-monospace, SFMono-Regular, 'SF Mono', Menlo, monospace">05-11</text><text x="690.5" y="248" text-anchor="middle" font-size="10" fill="#8c959f" font-family="ui-monospace, SFMono-Regular, 'SF Mono', Menlo, monospace">06-15</text><text x="143.2" y="248" text-anchor="middle" font-size="10" fill="#8c959f" font-family="ui-monospace, SFMono-Regular, 'SF Mono', Menlo, monospace">05-16</text><text x="781.8" y="248" text-anchor="middle" font-size="10" fill="#8c959f" font-family="ui-monospace, SFMono-Regular, 'SF Mono', Menlo, monospace">06-20</text><text x="800.0" y="248" text-anchor="middle" font-size="10" fill="#8c959f" font-family="ui-monospace, SFMono-Regular, 'SF Mono', Menlo, monospace">06-21</text><text x="234.4" y="248" text-anchor="middle" font-size="10" fill="#8c959f" font-family="ui-monospace, SFMono-Regular, 'SF Mono', Menlo, monospace">05-21</text><text x="325.7" y="248" text-anchor="middle" font-size="10" fill="#8c959f" font-family="ui-monospace, SFMono-Regular, 'SF Mono', Menlo, monospace">05-26</text><text x="416.9" y="248" text-anchor="middle" font-size="10" fill="#8c959f" font-family="ui-monospace, SFMono-Regular, 'SF Mono', Menlo, monospace">05-31</text><text x="508.1" y="248" text-anchor="middle" font-size="10" fill="#8c959f" font-family="ui-monospace, SFMono-Regular, 'SF Mono', Menlo, monospace">06-05</text><text x="599.3" y="248" text-anchor="middle" font-size="10" fill="#8c959f" font-family="ui-monospace, SFMono-Regular, 'SF Mono', Menlo, monospace">06-10</text>

  <!-- legend -->
  <rect x="60" y="262" width="16" height="3" fill="#4e79a7" rx="1"/><text x="80" y="268" font-size="11" fill="#57606a" font-family="-apple-system, BlinkMacSystemFont, 'Segoe UI', sans-serif">Total clones (261)</text><line x1="230" y1="264" x2="246" y2="264" stroke="#f28e2b" stroke-width="2" stroke-dasharray="5,3"/><text x="250" y="268" font-size="11" fill="#57606a" font-family="-apple-system, BlinkMacSystemFont, 'Segoe UI', sans-serif">Unique cloners</text>

</svg>