<svg xmlns="http://www.w3.org/2000/svg" viewBox="0 0 820 280" width="820" height="280">

  <!-- title -->
  <text x="52" y="18" font-size="13" font-weight="600"
        fill="#24292f" font-family="-apple-system, BlinkMacSystemFont, 'Segoe UI', sans-serif"
        >Clone traffic — denial-shield</text>
  <text x="800" y="18" font-size="10" fill="#8c959f"
        font-family="ui-monospace, SFMono-Regular, 'SF Mono', Menlo, monospace" text-anchor="end">2026-07-24</text>

  <!-- grid -->
  <line x1="52" y1="232.0" x2="800" y2="232.0" stroke="#e8e8e8" stroke-width="1"/><line x1="52" y1="187.4" x2="800" y2="187.4" stroke="#e8e8e8" stroke-width="1"/><line x1="52" y1="142.8" x2="800" y2="142.8" stroke="#e8e8e8" stroke-width="1"/><line x1="52" y1="98.2" x2="800" y2="98.2" stroke="#e8e8e8" stroke-width="1"/><line x1="52" y1="53.6" x2="800" y2="53.6" stroke="#e8e8e8" stroke-width="1"/><line x1="52" y1="9.0" x2="800" y2="9.0" stroke="#e8e8e8" stroke-width="1"/>

  <!-- area fill -->
  <path d="M52.0,232.0 L52.0,232.0 L62.4,230.9 L72.8,228.7 L83.2,232.0 L93.6,229.8 L103.9,232.0 L114.3,232.0 L124.7,232.0 L135.1,230.9 L145.5,232.0 L155.9,232.0 L166.3,28.0 L176.7,223.1 L187.1,232.0 L197.4,219.7 L207.8,230.9 L218.2,229.8 L228.6,230.9 L239.0,229.8 L249.4,232.0 L259.8,230.9 L270.2,232.0 L280.6,230.9 L290.9,230.9 L301.3,232.0 L311.7,230.9 L322.1,232.0 L332.5,230.9 L342.9,232.0 L353.3,229.8 L363.7,230.9 L374.1,232.0 L384.4,232.0 L394.8,232.0 L405.2,232.0 L415.6,232.0 L426.0,232.0 L436.4,232.0 L446.8,219.7 L457.2,204.1 L467.6,232.0 L477.9,229.8 L488.3,232.0 L498.7,232.0 L509.1,230.9 L519.5,232.0 L529.9,232.0 L540.3,232.0 L550.7,232.0 L561.1,232.0 L571.4,232.0 L581.8,230.9 L592.2,232.0 L602.6,232.0 L613.0,230.9 L623.4,232.0 L633.8,232.0 L644.2,229.8 L654.6,232.0 L664.9,232.0 L675.3,232.0 L685.7,232.0 L696.1,232.0 L706.5,230.9 L716.9,232.0 L727.3,232.0 L737.7,230.9 L748.1,232.0 L758.4,232.0 L768.8,232.0 L779.2,232.0 L789.6,232.0 L800.0,232.0 L800.0,232.0 L52.0,232.0Z" fill="#4e79a7" opacity="0.12"/>

  <!-- lines -->
  <polyline points="52.0,232.0 62.4,230.9 72.8,228.7 83.2,232.0 93.6,229.8 103.9,232.0 114.3,232.0 124.7,232.0 135.1,230.9 145.5,232.0 155.9,232.0 166.3,28.0 176.7,223.1 187.1,232.0 197.4,219.7 207.8,230.9 218.2,229.8 228.6,230.9 239.0,229.8 249.4,232.0 259.8,230.9 270.2,232.0 280.6,230.9 290.9,230.9 301.3,232.0 311.7,230.9 322.1,232.0 332.5,230.9 342.9,232.0 353.3,229.8 363.7,230.9 374.1,232.0 384.4,232.0 394.8,232.0 405.2,232.0 415.6,232.0 426.0,232.0 436.4,232.0 446.8,219.7 457.2,204.1 467.6,232.0 477.9,229.8 488.3,232.0 498.7,232.0 509.1,230.9 519.5,232.0 529.9,232.0 540.3,232.0 550.7,232.0 561.1,232.0 571.4,232.0 581.8,230.9 592.2,232.0 602.6,232.0 613.0,230.9 623.4,232.0 633.8,232.0 644.2,229.8 654.6,232.0 664.9,232.0 675.3,232.0 685.7,232.0 696.1,232.0 706.5,230.9 716.9,232.0 727.3,232.0 737.7,230.9 748.1,232.0 758.4,232.0 768.8,232.0 779.2,232.0 789.6,232.0 800.0,232.0"
            fill="none" stroke="#4e79a7"
            stroke-width="2" stroke-linejoin="round"/>
  <polyline points="52.0,232.0 62.4,230.9 72.8,228.7 83.2,232.0 93.6,229.8 103.9,232.0 114.3,232.0 124.7,232.0 135.1,230.9 145.5,232.0 155.9,232.0 166.3,156.2 176.7,227.5 187.1,232.0 197.4,223.1 207.8,230.9 218.2,229.8 228.6,230.9 239.0,229.8 249.4,232.0 259.8,230.9 270.2,232.0 280.6,230.9 290.9,230.9 301.3,232.0 311.7,230.9 322.1,232.0 332.5,230.9 342.9,232.0 353.3,229.8 363.7,230.9 374.1,232.0 384.4,232.0 394.8,232.0 405.2,232.0 415.6,232.0 426.0,232.0 436.4,232.0 446.8,224.2 457.2,222.0 467.6,232.0 477.9,229.8 488.3,232.0 498.7,232.0 509.1,230.9 519.5,232.0 529.9,232.0 540.3,232.0 550.7,232.0 561.1,232.0 571.4,232.0 581.8,230.9 592.2,232.0 602.6,232.0 613.0,230.9 623.4,232.0 633.8,232.0 644.2,230.9 654.6,232.0 664.9,232.0 675.3,232.0 685.7,232.0 696.1,232.0 706.5,230.9 716.9,232.0 727.3,232.0 737.7,230.9 748.1,232.0 758.4,232.0 768.8,232.0 779.2,232.0 789.6,232.0 800.0,232.0"
            fill="none" stroke="#f28e2b"
            stroke-width="2" stroke-linejoin="round"
            stroke-dasharray="5,3"/>

  <!-- dots -->
  <circle cx="52.0" cy="232.0" r="3" fill="#4e79a7"/><circle cx="62.4" cy="230.9" r="3" fill="#4e79a7"/><circle cx="72.8" cy="228.7" r="3" fill="#4e79a7"/><circle cx="83.2" cy="232.0" r="3" fill="#4e79a7"/><circle cx="93.6" cy="229.8" r="3" fill="#4e79a7"/><circle cx="103.9" cy="232.0" r="3" fill="#4e79a7"/><circle cx="114.3" cy="232.0" r="3" fill="#4e79a7"/><circle cx="124.7" cy="232.0" r="3" fill="#4e79a7"/><circle cx="135.1" cy="230.9" r="3" fill="#4e79a7"/><circle cx="145.5" cy="232.0" r="3" fill="#4e79a7"/><circle cx="155.9" cy="232.0" r="3" fill="#4e79a7"/><circle cx="166.3" cy="28.0" r="3" fill="#4e79a7"/><circle cx="176.7" cy="223.1" r="3" fill="#4e79a7"/><circle cx="187.1" cy="232.0" r="3" fill="#4e79a7"/><circle cx="197.4" cy="219.7" r="3" fill="#4e79a7"/><circle cx="207.8" cy="230.9" r="3" fill="#4e79a7"/><circle cx="218.2" cy="229.8" r="3" fill="#4e79a7"/><circle cx="228.6" cy="230.9" r="3" fill="#4e79a7"/><circle cx="239.0" cy="229.8" r="3" fill="#4e79a7"/><circle cx="249.4" cy="232.0" r="3" fill="#4e79a7"/><circle cx="259.8" cy="230.9" r="3" fill="#4e79a7"/><circle cx="270.2" cy="232.0" r="3" fill="#4e79a7"/><circle cx="280.6" cy="230.9" r="3" fill="#4e79a7"/><circle cx="290.9" cy="230.9" r="3" fill="#4e79a7"/><circle cx="301.3" cy="232.0" r="3" fill="#4e79a7"/><circle cx="311.7" cy="230.9" r="3" fill="#4e79a7"/><circle cx="322.1" cy="232.0" r="3" fill="#4e79a7"/><circle cx="332.5" cy="230.9" r="3" fill="#4e79a7"/><circle cx="342.9" cy="232.0" r="3" fill="#4e79a7"/><circle cx="353.3" cy="229.8" r="3" fill="#4e79a7"/><circle cx="363.7" cy="230.9" r="3" fill="#4e79a7"/><circle cx="374.1" cy="232.0" r="3" fill="#4e79a7"/><circle cx="384.4" cy="232.0" r="3" fill="#4e79a7"/><circle cx="394.8" cy="232.0" r="3" fill="#4e79a7"/><circle cx="405.2" cy="232.0" r="3" fill="#4e79a7"/><circle cx="415.6" cy="232.0" r="3" fill="#4e79a7"/><circle cx="426.0" cy="232.0" r="3" fill="#4e79a7"/><circle cx="436.4" cy="232.0" r="3" fill="#4e79a7"/><circle cx="446.8" cy="219.7" r="3" fill="#4e79a7"/><circle cx="457.2" cy="204.1" r="3" fill="#4e79a7"/><circle cx="467.6" cy="232.0" r="3" fill="#4e79a7"/><circle cx="477.9" cy="229.8" r="3" fill="#4e79a7"/><circle cx="488.3" cy="232.0" r="3" fill="#4e79a7"/><circle cx="498.7" cy="232.0" r="3" fill="#4e79a7"/><circle cx="509.1" cy="230.9" r="3" fill="#4e79a7"/><circle cx="519.5" cy="232.0" r="3" fill="#4e79a7"/><circle cx="529.9" cy="232.0" r="3" fill="#4e79a7"/><circle cx="540.3" cy="232.0" r="3" fill="#4e79a7"/><circle cx="550.7" cy="232.0" r="3" fill="#4e79a7"/><circle cx="561.1" cy="232.0" r="3" fill="#4e79a7"/><circle cx="571.4" cy="232.0" r="3" fill="#4e79a7"/><circle cx="581.8" cy="230.9" r="3" fill="#4e79a7"/><circle cx="592.2" cy="232.0" r="3" fill="#4e79a7"/><circle cx="602.6" cy="232.0" r="3" fill="#4e79a7"/><circle cx="613.0" cy="230.9" r="3" fill="#4e79a7"/><circle cx="623.4" cy="232.0" r="3" fill="#4e79a7"/><circle cx="633.8" cy="232.0" r="3" fill="#4e79a7"/><circle cx="644.2" cy="229.8" r="3" fill="#4e79a7"/><circle cx="654.6" cy="232.0" r="3" fill="#4e79a7"/><circle cx="664.9" cy="232.0" r="3" fill="#4e79a7"/><circle cx="675.3" cy="232.0" r="3" fill="#4e79a7"/><circle cx="685.7" cy="232.0" r="3" fill="#4e79a7"/><circle cx="696.1" cy="232.0" r="3" fill="#4e79a7"/><circle cx="706.5" cy="230.9" r="3" fill="#4e79a7"/><circle cx="716.9" cy="232.0" r="3" fill="#4e79a7"/><circle cx="727.3" cy="232.0" r="3" fill="#4e79a7"/><circle cx="737.7" cy="230.9" r="3" fill="#4e79a7"/><circle cx="748.1" cy="232.0" r="3" fill="#4e79a7"/><circle cx="758.4" cy="232.0" r="3" fill="#4e79a7"/><circle cx="768.8" cy="232.0" r="3" fill="#4e79a7"/><circle cx="779.2" cy="232.0" r="3" fill="#4e79a7"/><circle cx="789.6" cy="232.0" r="3" fill="#4e79a7"/><circle cx="800.0" cy="232.0" r="3" fill="#4e79a7"/>
  <circle cx="52.0" cy="232.0" r="3" fill="#f28e2b"/><circle cx="62.4" cy="230.9" r="3" fill="#f28e2b"/><circle cx="72.8" cy="228.7" r="3" fill="#f28e2b"/><circle cx="83.2" cy="232.0" r="3" fill="#f28e2b"/><circle cx="93.6" cy="229.8" r="3" fill="#f28e2b"/><circle cx="103.9" cy="232.0" r="3" fill="#f28e2b"/><circle cx="114.3" cy="232.0" r="3" fill="#f28e2b"/><circle cx="124.7" cy="232.0" r="3" fill="#f28e2b"/><circle cx="135.1" cy="230.9" r="3" fill="#f28e2b"/><circle cx="145.5" cy="232.0" r="3" fill="#f28e2b"/><circle cx="155.9" cy="232.0" r="3" fill="#f28e2b"/><circle cx="166.3" cy="156.2" r="3" fill="#f28e2b"/><circle cx="176.7" cy="227.5" r="3" fill="#f28e2b"/><circle cx="187.1" cy="232.0" r="3" fill="#f28e2b"/><circle cx="197.4" cy="223.1" r="3" fill="#f28e2b"/><circle cx="207.8" cy="230.9" r="3" fill="#f28e2b"/><circle cx="218.2" cy="229.8" r="3" fill="#f28e2b"/><circle cx="228.6" cy="230.9" r="3" fill="#f28e2b"/><circle cx="239.0" cy="229.8" r="3" fill="#f28e2b"/><circle cx="249.4" cy="232.0" r="3" fill="#f28e2b"/><circle cx="259.8" cy="230.9" r="3" fill="#f28e2b"/><circle cx="270.2" cy="232.0" r="3" fill="#f28e2b"/><circle cx="280.6" cy="230.9" r="3" fill="#f28e2b"/><circle cx="290.9" cy="230.9" r="3" fill="#f28e2b"/><circle cx="301.3" cy="232.0" r="3" fill="#f28e2b"/><circle cx="311.7" cy="230.9" r="3" fill="#f28e2b"/><circle cx="322.1" cy="232.0" r="3" fill="#f28e2b"/><circle cx="332.5" cy="230.9" r="3" fill="#f28e2b"/><circle cx="342.9" cy="232.0" r="3" fill="#f28e2b"/><circle cx="353.3" cy="229.8" r="3" fill="#f28e2b"/><circle cx="363.7" cy="230.9" r="3" fill="#f28e2b"/><circle cx="374.1" cy="232.0" r="3" fill="#f28e2b"/><circle cx="384.4" cy="232.0" r="3" fill="#f28e2b"/><circle cx="394.8" cy="232.0" r="3" fill="#f28e2b"/><circle cx="405.2" cy="232.0" r="3" fill="#f28e2b"/><circle cx="415.6" cy="232.0" r="3" fill="#f28e2b"/><circle cx="426.0" cy="232.0" r="3" fill="#f28e2b"/><circle cx="436.4" cy="232.0" r="3" fill="#f28e2b"/><circle cx="446.8" cy="224.2" r="3" fill="#f28e2b"/><circle cx="457.2" cy="222.0" r="3" fill="#f28e2b"/><circle cx="467.6" cy="232.0" r="3" fill="#f28e2b"/><circle cx="477.9" cy="229.8" r="3" fill="#f28e2b"/><circle cx="488.3" cy="232.0" r="3" fill="#f28e2b"/><circle cx="498.7" cy="232.0" r="3" fill="#f28e2b"/><circle cx="509.1" cy="230.9" r="3" fill="#f28e2b"/><circle cx="519.5" cy="232.0" r="3" fill="#f28e2b"/><circle cx="529.9" cy="232.0" r="3" fill="#f28e2b"/><circle cx="540.3" cy="232.0" r="3" fill="#f28e2b"/><circle cx="550.7" cy="232.0" r="3" fill="#f28e2b"/><circle cx="561.1" cy="232.0" r="3" fill="#f28e2b"/><circle cx="571.4" cy="232.0" r="3" fill="#f28e2b"/><circle cx="581.8" cy="230.9" r="3" fill="#f28e2b"/><circle cx="592.2" cy="232.0" r="3" fill="#f28e2b"/><circle cx="602.6" cy="232.0" r="3" fill="#f28e2b"/><circle cx="613.0" cy="230.9" r="3" fill="#f28e2b"/><circle cx="623.4" cy="232.0" r="3" fill="#f28e2b"/><circle cx="633.8" cy="232.0" r="3" fill="#f28e2b"/><circle cx="644.2" cy="230.9" r="3" fill="#f28e2b"/><circle cx="654.6" cy="232.0" r="3" fill="#f28e2b"/><circle cx="664.9" cy="232.0" r="3" fill="#f28e2b"/><circle cx="675.3" cy="232.0" r="3" fill="#f28e2b"/><circle cx="685.7" cy="232.0" r="3" fill="#f28e2b"/><circle cx="696.1" cy="232.0" r="3" fill="#f28e2b"/><circle cx="706.5" cy="230.9" r="3" fill="#f28e2b"/><circle cx="716.9" cy="232.0" r="3" fill="#f28e2b"/><circle cx="727.3" cy="232.0" r="3" fill="#f28e2b"/><circle cx="737.7" cy="230.9" r="3" fill="#f28e2b"/><circle cx="748.1" cy="232.0" r="3" fill="#f28e2b"/><circle cx="758.4" cy="232.0" r="3" fill="#f28e2b"/><circle cx="768.8" cy="232.0" r="3" fill="#f28e2b"/><circle cx="779.2" cy="232.0" r="3" fill="#f28e2b"/><circle cx="789.6" cy="232.0" r="3" fill="#f28e2b"/><circle cx="800.0" cy="232.0" r="3" fill="#f28e2b"/>

  <!-- axes -->
  <line x1="52" y1="28" x2="52" y2="232"
        stroke="#cccccc" stroke-width="1"/>
  <line x1="52" y1="232" x2="800" y2="232"
        stroke="#cccccc" stroke-width="1"/>

  <!-- y-axis labels -->
  <text x="47" y="236.0" text-anchor="end" font-size="10" fill="#57606a" font-family="ui-monospace, SFMono-Regular, 'SF Mono', Menlo, monospace">0</text><text x="47" y="191.4" text-anchor="end" font-size="10" fill="#57606a" font-family="ui-monospace, SFMono-Regular, 'SF Mono', Menlo, monospace">40</text><text x="47" y="146.8" text-anchor="end" font-size="10" fill="#57606a" font-family="ui-monospace, SFMono-Regular, 'SF Mono', Menlo, monospace">80</text><text x="47" y="102.2" text-anchor="end" font-size="10" fill="#57606a" font-family="ui-monospace, SFMono-Regular, 'SF Mono', Menlo, monospace">120</text><text x="47" y="57.6" text-anchor="end" font-size="10" fill="#57606a" font-family="ui-monospace, SFMono-Regular, 'SF Mono', Menlo, monospace">160</text><text x="47" y="13.0" text-anchor="end" font-size="10" fill="#57606a" font-family="ui-monospace, SFMono-Regular, 'SF Mono', Menlo, monospace">200</text>

  <!-- x-axis labels -->
  <text x="52.0" y="248" text-anchor="middle" font-size="10" fill="#8c959f" font-family="ui-monospace, SFMono-Regular, 'SF Mono', Menlo, monospace">05-11</text><text x="426.0" y="248" text-anchor="middle" font-size="10" fill="#8c959f" font-family="ui-monospace, SFMono-Regular, 'SF Mono', Menlo, monospace">06-16</text><text x="800.0" y="248" text-anchor="middle" font-size="10" fill="#8c959f" font-family="ui-monospace, SFMono-Regular, 'SF Mono', Menlo, monospace">07-22</text><text x="145.5" y="248" text-anchor="middle" font-size="10" fill="#8c959f" font-family="ui-monospace, SFMono-Regular, 'SF Mono', Menlo, monospace">05-20</text><text x="519.5" y="248" text-anchor="middle" font-size="10" fill="#8c959f" font-family="ui-monospace, SFMono-Regular, 'SF Mono', Menlo, monospace">06-25</text><text x="239.0" y="248" text-anchor="middle" font-size="10" fill="#8c959f" font-family="ui-monospace, SFMono-Regular, 'SF Mono', Menlo, monospace">05-29</text><text x="613.0" y="248" text-anchor="middle" font-size="10" fill="#8c959f" font-family="ui-monospace, SFMono-Regular, 'SF Mono', Menlo, monospace">07-04</text><text x="332.5" y="248" text-anchor="middle" font-size="10" fill="#8c959f" font-family="ui-monospace, SFMono-Regular, 'SF Mono', Menlo, monospace">06-07</text><text x="706.5" y="248" text-anchor="middle" font-size="10" fill="#8c959f" font-family="ui-monospace, SFMono-Regular, 'SF Mono', Menlo, monospace">07-13</text>

  <!-- legend -->
  <rect x="60" y="262" width="16" height="3" fill="#4e79a7" rx="1"/><text x="80" y="268" font-size="11" fill="#57606a" font-family="-apple-system, BlinkMacSystemFont, 'Segoe UI', sans-serif">Total clones (268)</text><line x1="230" y1="264" x2="246" y2="264" stroke="#f28e2b" stroke-width="2" stroke-dasharray="5,3"/><text x="250" y="268" font-size="11" fill="#57606a" font-family="-apple-system, BlinkMacSystemFont, 'Segoe UI', sans-serif">Unique cloners</text>

</svg>