<svg xmlns="http://www.w3.org/2000/svg" viewBox="0 0 820 280" width="820" height="280">

  <!-- title -->
  <text x="52" y="18" font-size="13" font-weight="600"
        fill="#24292f" font-family="-apple-system, BlinkMacSystemFont, 'Segoe UI', sans-serif"
        >Clone traffic — denial-shield</text>
  <text x="800" y="18" font-size="10" fill="#8c959f"
        font-family="ui-monospace, SFMono-Regular, 'SF Mono', Menlo, monospace" text-anchor="end">2026-07-07</text>

  <!-- grid -->
  <line x1="52" y1="232.0" x2="800" y2="232.0" stroke="#e8e8e8" stroke-width="1"/><line x1="52" y1="187.4" x2="800" y2="187.4" stroke="#e8e8e8" stroke-width="1"/><line x1="52" y1="142.8" x2="800" y2="142.8" stroke="#e8e8e8" stroke-width="1"/><line x1="52" y1="98.2" x2="800" y2="98.2" stroke="#e8e8e8" stroke-width="1"/><line x1="52" y1="53.6" x2="800" y2="53.6" stroke="#e8e8e8" stroke-width="1"/><line x1="52" y1="9.0" x2="800" y2="9.0" stroke="#e8e8e8" stroke-width="1"/>

  <!-- area fill -->
  <path d="M52.0,232.0 L52.0,232.0 L65.6,230.9 L79.2,228.7 L92.8,232.0 L106.4,229.8 L120.0,232.0 L133.6,232.0 L147.2,232.0 L160.8,230.9 L174.4,232.0 L188.0,232.0 L201.6,28.0 L215.2,223.1 L228.8,232.0 L242.4,219.7 L256.0,230.9 L269.6,229.8 L283.2,230.9 L296.8,229.8 L310.4,232.0 L324.0,230.9 L337.6,232.0 L351.2,230.9 L364.8,230.9 L378.4,232.0 L392.0,230.9 L405.6,232.0 L419.2,230.9 L432.8,232.0 L446.4,229.8 L460.0,230.9 L473.6,232.0 L487.2,232.0 L500.8,232.0 L514.4,232.0 L528.0,232.0 L541.6,232.0 L555.2,232.0 L568.8,219.7 L582.4,204.1 L596.0,232.0 L609.6,229.8 L623.2,232.0 L636.8,232.0 L650.4,230.9 L664.0,232.0 L677.6,232.0 L691.2,232.0 L704.8,232.0 L718.4,232.0 L732.0,232.0 L745.6,230.9 L759.2,232.0 L772.8,232.0 L786.4,230.9 L800.0,232.0 L800.0,232.0 L52.0,232.0Z" fill="#4e79a7" opacity="0.12"/>

  <!-- lines -->
  <polyline points="52.0,232.0 65.6,230.9 79.2,228.7 92.8,232.0 106.4,229.8 120.0,232.0 133.6,232.0 147.2,232.0 160.8,230.9 174.4,232.0 188.0,232.0 201.6,28.0 215.2,223.1 228.8,232.0 242.4,219.7 256.0,230.9 269.6,229.8 283.2,230.9 296.8,229.8 310.4,232.0 324.0,230.9 337.6,232.0 351.2,230.9 364.8,230.9 378.4,232.0 392.0,230.9 405.6,232.0 419.2,230.9 432.8,232.0 446.4,229.8 460.0,230.9 473.6,232.0 487.2,232.0 500.8,232.0 514.4,232.0 528.0,232.0 541.6,232.0 555.2,232.0 568.8,219.7 582.4,204.1 596.0,232.0 609.6,229.8 623.2,232.0 636.8,232.0 650.4,230.9 664.0,232.0 677.6,232.0 691.2,232.0 704.8,232.0 718.4,232.0 732.0,232.0 745.6,230.9 759.2,232.0 772.8,232.0 786.4,230.9 800.0,232.0"
            fill="none" stroke="#4e79a7"
            stroke-width="2" stroke-linejoin="round"/>
  <polyline points="52.0,232.0 65.6,230.9 79.2,228.7 92.8,232.0 106.4,229.8 120.0,232.0 133.6,232.0 147.2,232.0 160.8,230.9 174.4,232.0 188.0,232.0 201.6,156.2 215.2,227.5 228.8,232.0 242.4,223.1 256.0,230.9 269.6,229.8 283.2,230.9 296.8,229.8 310.4,232.0 324.0,230.9 337.6,232.0 351.2,230.9 364.8,230.9 378.4,232.0 392.0,230.9 405.6,232.0 419.2,230.9 432.8,232.0 446.4,229.8 460.0,230.9 473.6,232.0 487.2,232.0 500.8,232.0 514.4,232.0 528.0,232.0 541.6,232.0 555.2,232.0 568.8,224.2 582.4,222.0 596.0,232.0 609.6,229.8 623.2,232.0 636.8,232.0 650.4,230.9 664.0,232.0 677.6,232.0 691.2,232.0 704.8,232.0 718.4,232.0 732.0,232.0 745.6,230.9 759.2,232.0 772.8,232.0 786.4,230.9 800.0,232.0"
            fill="none" stroke="#f28e2b"
            stroke-width="2" stroke-linejoin="round"
            stroke-dasharray="5,3"/>

  <!-- dots -->
  <circle cx="52.0" cy="232.0" r="3" fill="#4e79a7"/><circle cx="65.6" cy="230.9" r="3" fill="#4e79a7"/><circle cx="79.2" cy="228.7" r="3" fill="#4e79a7"/><circle cx="92.8" cy="232.0" r="3" fill="#4e79a7"/><circle cx="106.4" cy="229.8" r="3" fill="#4e79a7"/><circle cx="120.0" cy="232.0" r="3" fill="#4e79a7"/><circle cx="133.6" cy="232.0" r="3" fill="#4e79a7"/><circle cx="147.2" cy="232.0" r="3" fill="#4e79a7"/><circle cx="160.8" cy="230.9" r="3" fill="#4e79a7"/><circle cx="174.4" cy="232.0" r="3" fill="#4e79a7"/><circle cx="188.0" cy="232.0" r="3" fill="#4e79a7"/><circle cx="201.6" cy="28.0" r="3" fill="#4e79a7"/><circle cx="215.2" cy="223.1" r="3" fill="#4e79a7"/><circle cx="228.8" cy="232.0" r="3" fill="#4e79a7"/><circle cx="242.4" cy="219.7" r="3" fill="#4e79a7"/><circle cx="256.0" cy="230.9" r="3" fill="#4e79a7"/><circle cx="269.6" cy="229.8" r="3" fill="#4e79a7"/><circle cx="283.2" cy="230.9" r="3" fill="#4e79a7"/><circle cx="296.8" cy="229.8" r="3" fill="#4e79a7"/><circle cx="310.4" cy="232.0" r="3" fill="#4e79a7"/><circle cx="324.0" cy="230.9" r="3" fill="#4e79a7"/><circle cx="337.6" cy="232.0" r="3" fill="#4e79a7"/><circle cx="351.2" cy="230.9" r="3" fill="#4e79a7"/><circle cx="364.8" cy="230.9" r="3" fill="#4e79a7"/><circle cx="378.4" cy="232.0" r="3" fill="#4e79a7"/><circle cx="392.0" cy="230.9" r="3" fill="#4e79a7"/><circle cx="405.6" cy="232.0" r="3" fill="#4e79a7"/><circle cx="419.2" cy="230.9" r="3" fill="#4e79a7"/><circle cx="432.8" cy="232.0" r="3" fill="#4e79a7"/><circle cx="446.4" cy="229.8" r="3" fill="#4e79a7"/><circle cx="460.0" cy="230.9" r="3" fill="#4e79a7"/><circle cx="473.6" cy="232.0" r="3" fill="#4e79a7"/><circle cx="487.2" cy="232.0" r="3" fill="#4e79a7"/><circle cx="500.8" cy="232.0" r="3" fill="#4e79a7"/><circle cx="514.4" cy="232.0" r="3" fill="#4e79a7"/><circle cx="528.0" cy="232.0" r="3" fill="#4e79a7"/><circle cx="541.6" cy="232.0" r="3" fill="#4e79a7"/><circle cx="555.2" cy="232.0" r="3" fill="#4e79a7"/><circle cx="568.8" cy="219.7" r="3" fill="#4e79a7"/><circle cx="582.4" cy="204.1" r="3" fill="#4e79a7"/><circle cx="596.0" cy="232.0" r="3" fill="#4e79a7"/><circle cx="609.6" cy="229.8" r="3" fill="#4e79a7"/><circle cx="623.2" cy="232.0" r="3" fill="#4e79a7"/><circle cx="636.8" cy="232.0" r="3" fill="#4e79a7"/><circle cx="650.4" cy="230.9" r="3" fill="#4e79a7"/><circle cx="664.0" cy="232.0" r="3" fill="#4e79a7"/><circle cx="677.6" cy="232.0" r="3" fill="#4e79a7"/><circle cx="691.2" cy="232.0" r="3" fill="#4e79a7"/><circle cx="704.8" cy="232.0" r="3" fill="#4e79a7"/><circle cx="718.4" cy="232.0" r="3" fill="#4e79a7"/><circle cx="732.0" cy="232.0" r="3" fill="#4e79a7"/><circle cx="745.6" cy="230.9" r="3" fill="#4e79a7"/><circle cx="759.2" cy="232.0" r="3" fill="#4e79a7"/><circle cx="772.8" cy="232.0" r="3" fill="#4e79a7"/><circle cx="786.4" cy="230.9" r="3" fill="#4e79a7"/><circle cx="800.0" cy="232.0" r="3" fill="#4e79a7"/>
  <circle cx="52.0" cy="232.0" r="3" fill="#f28e2b"/><circle cx="65.6" cy="230.9" r="3" fill="#f28e2b"/><circle cx="79.2" cy="228.7" r="3" fill="#f28e2b"/><circle cx="92.8" cy="232.0" r="3" fill="#f28e2b"/><circle cx="106.4" cy="229.8" r="3" fill="#f28e2b"/><circle cx="120.0" cy="232.0" r="3" fill="#f28e2b"/><circle cx="133.6" cy="232.0" r="3" fill="#f28e2b"/><circle cx="147.2" cy="232.0" r="3" fill="#f28e2b"/><circle cx="160.8" cy="230.9" r="3" fill="#f28e2b"/><circle cx="174.4" cy="232.0" r="3" fill="#f28e2b"/><circle cx="188.0" cy="232.0" r="3" fill="#f28e2b"/><circle cx="201.6" cy="156.2" r="3" fill="#f28e2b"/><circle cx="215.2" cy="227.5" r="3" fill="#f28e2b"/><circle cx="228.8" cy="232.0" r="3" fill="#f28e2b"/><circle cx="242.4" cy="223.1" r="3" fill="#f28e2b"/><circle cx="256.0" cy="230.9" r="3" fill="#f28e2b"/><circle cx="269.6" cy="229.8" r="3" fill="#f28e2b"/><circle cx="283.2" cy="230.9" r="3" fill="#f28e2b"/><circle cx="296.8" cy="229.8" r="3" fill="#f28e2b"/><circle cx="310.4" cy="232.0" r="3" fill="#f28e2b"/><circle cx="324.0" cy="230.9" r="3" fill="#f28e2b"/><circle cx="337.6" cy="232.0" r="3" fill="#f28e2b"/><circle cx="351.2" cy="230.9" r="3" fill="#f28e2b"/><circle cx="364.8" cy="230.9" r="3" fill="#f28e2b"/><circle cx="378.4" cy="232.0" r="3" fill="#f28e2b"/><circle cx="392.0" cy="230.9" r="3" fill="#f28e2b"/><circle cx="405.6" cy="232.0" r="3" fill="#f28e2b"/><circle cx="419.2" cy="230.9" r="3" fill="#f28e2b"/><circle cx="432.8" cy="232.0" r="3" fill="#f28e2b"/><circle cx="446.4" cy="229.8" r="3" fill="#f28e2b"/><circle cx="460.0" cy="230.9" r="3" fill="#f28e2b"/><circle cx="473.6" cy="232.0" r="3" fill="#f28e2b"/><circle cx="487.2" cy="232.0" r="3" fill="#f28e2b"/><circle cx="500.8" cy="232.0" r="3" fill="#f28e2b"/><circle cx="514.4" cy="232.0" r="3" fill="#f28e2b"/><circle cx="528.0" cy="232.0" r="3" fill="#f28e2b"/><circle cx="541.6" cy="232.0" r="3" fill="#f28e2b"/><circle cx="555.2" cy="232.0" r="3" fill="#f28e2b"/><circle cx="568.8" cy="224.2" r="3" fill="#f28e2b"/><circle cx="582.4" cy="222.0" r="3" fill="#f28e2b"/><circle cx="596.0" cy="232.0" r="3" fill="#f28e2b"/><circle cx="609.6" cy="229.8" r="3" fill="#f28e2b"/><circle cx="623.2" cy="232.0" r="3" fill="#f28e2b"/><circle cx="636.8" cy="232.0" r="3" fill="#f28e2b"/><circle cx="650.4" cy="230.9" r="3" fill="#f28e2b"/><circle cx="664.0" cy="232.0" r="3" fill="#f28e2b"/><circle cx="677.6" cy="232.0" r="3" fill="#f28e2b"/><circle cx="691.2" cy="232.0" r="3" fill="#f28e2b"/><circle cx="704.8" cy="232.0" r="3" fill="#f28e2b"/><circle cx="718.4" cy="232.0" r="3" fill="#f28e2b"/><circle cx="732.0" cy="232.0" r="3" fill="#f28e2b"/><circle cx="745.6" cy="230.9" r="3" fill="#f28e2b"/><circle cx="759.2" cy="232.0" r="3" fill="#f28e2b"/><circle cx="772.8" cy="232.0" r="3" fill="#f28e2b"/><circle cx="786.4" cy="230.9" r="3" fill="#f28e2b"/><circle cx="800.0" cy="232.0" r="3" fill="#f28e2b"/>

  <!-- axes -->
  <line x1="52" y1="28" x2="52" y2="232"
        stroke="#cccccc" stroke-width="1"/>
  <line x1="52" y1="232" x2="800" y2="232"
        stroke="#cccccc" stroke-width="1"/>

  <!-- y-axis labels -->
  <text x="47" y="236.0" text-anchor="end" font-size="10" fill="#57606a" font-family="ui-monospace, SFMono-Regular, 'SF Mono', Menlo, monospace">0</text><text x="47" y="191.4" text-anchor="end" font-size="10" fill="#57606a" font-family="ui-monospace, SFMono-Regular, 'SF Mono', Menlo, monospace">40</text><text x="47" y="146.8" text-anchor="end" font-size="10" fill="#57606a" font-family="ui-monospace, SFMono-Regular, 'SF Mono', Menlo, monospace">80</text><text x="47" y="102.2" text-anchor="end" font-size="10" fill="#57606a" font-family="ui-monospace, SFMono-Regular, 'SF Mono', Menlo, monospace">120</text><text x="47" y="57.6" text-anchor="end" font-size="10" fill="#57606a" font-family="ui-monospace, SFMono-Regular, 'SF Mono', Menlo, monospace">160</text><text x="47" y="13.0" text-anchor="end" font-size="10" fill="#57606a" font-family="ui-monospace, SFMono-Regular, 'SF Mono', Menlo, monospace">200</text>

  <!-- x-axis labels -->
  <text x="52.0" y="248" text-anchor="middle" font-size="10" fill="#8c959f" font-family="ui-monospace, SFMono-Regular, 'SF Mono', Menlo, monospace">05-11</text><text x="528.0" y="248" text-anchor="middle" font-size="10" fill="#8c959f" font-family="ui-monospace, SFMono-Regular, 'SF Mono', Menlo, monospace">06-15</text><text x="147.2" y="248" text-anchor="middle" font-size="10" fill="#8c959f" font-family="ui-monospace, SFMono-Regular, 'SF Mono', Menlo, monospace">05-18</text><text x="623.2" y="248" text-anchor="middle" font-size="10" fill="#8c959f" font-family="ui-monospace, SFMono-Regular, 'SF Mono', Menlo, monospace">06-22</text><text x="242.4" y="248" text-anchor="middle" font-size="10" fill="#8c959f" font-family="ui-monospace, SFMono-Regular, 'SF Mono', Menlo, monospace">05-25</text><text x="718.4" y="248" text-anchor="middle" font-size="10" fill="#8c959f" font-family="ui-monospace, SFMono-Regular, 'SF Mono', Menlo, monospace">06-29</text><text x="337.6" y="248" text-anchor="middle" font-size="10" fill="#8c959f" font-family="ui-monospace, SFMono-Regular, 'SF Mono', Menlo, monospace">06-01</text><text x="800.0" y="248" text-anchor="middle" font-size="10" fill="#8c959f" font-family="ui-monospace, SFMono-Regular, 'SF Mono', Menlo, monospace">07-05</text><text x="432.8" y="248" text-anchor="middle" font-size="10" fill="#8c959f" font-family="ui-monospace, SFMono-Regular, 'SF Mono', Menlo, monospace">06-08</text>

  <!-- legend -->
  <rect x="60" y="262" width="16" height="3" fill="#4e79a7" rx="1"/><text x="80" y="268" font-size="11" fill="#57606a" font-family="-apple-system, BlinkMacSystemFont, 'Segoe UI', sans-serif">Total clones (264)</text><line x1="230" y1="264" x2="246" y2="264" stroke="#f28e2b" stroke-width="2" stroke-dasharray="5,3"/><text x="250" y="268" font-size="11" fill="#57606a" font-family="-apple-system, BlinkMacSystemFont, 'Segoe UI', sans-serif">Unique cloners</text>

</svg>