<svg xmlns="http://www.w3.org/2000/svg" viewBox="0 0 820 280" width="820" height="280">

  <!-- title -->
  <text x="52" y="18" font-size="13" font-weight="600"
        fill="#24292f" font-family="-apple-system, BlinkMacSystemFont, 'Segoe UI', sans-serif"
        >Clone traffic — denial-shield</text>
  <text x="800" y="18" font-size="10" fill="#8c959f"
        font-family="ui-monospace, SFMono-Regular, 'SF Mono', Menlo, monospace" text-anchor="end">2026-06-05</text>

  <!-- grid -->
  <line x1="52" y1="232.0" x2="800" y2="232.0" stroke="#e8e8e8" stroke-width="1"/><line x1="52" y1="187.4" x2="800" y2="187.4" stroke="#e8e8e8" stroke-width="1"/><line x1="52" y1="142.8" x2="800" y2="142.8" stroke="#e8e8e8" stroke-width="1"/><line x1="52" y1="98.2" x2="800" y2="98.2" stroke="#e8e8e8" stroke-width="1"/><line x1="52" y1="53.6" x2="800" y2="53.6" stroke="#e8e8e8" stroke-width="1"/><line x1="52" y1="9.0" x2="800" y2="9.0" stroke="#e8e8e8" stroke-width="1"/>

  <!-- area fill -->
  <path d="M52.0,232.0 L52.0,232.0 L84.5,230.9 L117.0,228.7 L149.6,232.0 L182.1,229.8 L214.6,232.0 L247.1,232.0 L279.7,232.0 L312.2,230.9 L344.7,232.0 L377.2,232.0 L409.7,28.0 L442.3,223.1 L474.8,232.0 L507.3,219.7 L539.8,230.9 L572.3,229.8 L604.9,230.9 L637.4,229.8 L669.9,232.0 L702.4,230.9 L735.0,232.0 L767.5,230.9 L800.0,230.9 L800.0,232.0 L52.0,232.0Z" fill="#4e79a7" opacity="0.12"/>

  <!-- lines -->
  <polyline points="52.0,232.0 84.5,230.9 117.0,228.7 149.6,232.0 182.1,229.8 214.6,232.0 247.1,232.0 279.7,232.0 312.2,230.9 344.7,232.0 377.2,232.0 409.7,28.0 442.3,223.1 474.8,232.0 507.3,219.7 539.8,230.9 572.3,229.8 604.9,230.9 637.4,229.8 669.9,232.0 702.4,230.9 735.0,232.0 767.5,230.9 800.0,230.9"
            fill="none" stroke="#4e79a7"
            stroke-width="2" stroke-linejoin="round"/>
  <polyline points="52.0,232.0 84.5,230.9 117.0,228.7 149.6,232.0 182.1,229.8 214.6,232.0 247.1,232.0 279.7,232.0 312.2,230.9 344.7,232.0 377.2,232.0 409.7,156.2 442.3,227.5 474.8,232.0 507.3,223.1 539.8,230.9 572.3,229.8 604.9,230.9 637.4,229.8 669.9,232.0 702.4,230.9 735.0,232.0 767.5,230.9 800.0,230.9"
            fill="none" stroke="#f28e2b"
            stroke-width="2" stroke-linejoin="round"
            stroke-dasharray="5,3"/>

  <!-- dots -->
  <circle cx="52.0" cy="232.0" r="3" fill="#4e79a7"/><circle cx="84.5" cy="230.9" r="3" fill="#4e79a7"/><circle cx="117.0" cy="228.7" r="3" fill="#4e79a7"/><circle cx="149.6" cy="232.0" r="3" fill="#4e79a7"/><circle cx="182.1" cy="229.8" r="3" fill="#4e79a7"/><circle cx="214.6" cy="232.0" r="3" fill="#4e79a7"/><circle cx="247.1" cy="232.0" r="3" fill="#4e79a7"/><circle cx="279.7" cy="232.0" r="3" fill="#4e79a7"/><circle cx="312.2" cy="230.9" r="3" fill="#4e79a7"/><circle cx="344.7" cy="232.0" r="3" fill="#4e79a7"/><circle cx="377.2" cy="232.0" r="3" fill="#4e79a7"/><circle cx="409.7" cy="28.0" r="3" fill="#4e79a7"/><circle cx="442.3" cy="223.1" r="3" fill="#4e79a7"/><circle cx="474.8" cy="232.0" r="3" fill="#4e79a7"/><circle cx="507.3" cy="219.7" r="3" fill="#4e79a7"/><circle cx="539.8" cy="230.9" r="3" fill="#4e79a7"/><circle cx="572.3" cy="229.8" r="3" fill="#4e79a7"/><circle cx="604.9" cy="230.9" r="3" fill="#4e79a7"/><circle cx="637.4" cy="229.8" r="3" fill="#4e79a7"/><circle cx="669.9" cy="232.0" r="3" fill="#4e79a7"/><circle cx="702.4" cy="230.9" r="3" fill="#4e79a7"/><circle cx="735.0" cy="232.0" r="3" fill="#4e79a7"/><circle cx="767.5" cy="230.9" r="3" fill="#4e79a7"/><circle cx="800.0" cy="230.9" r="3" fill="#4e79a7"/>
  <circle cx="52.0" cy="232.0" r="3" fill="#f28e2b"/><circle cx="84.5" cy="230.9" r="3" fill="#f28e2b"/><circle cx="117.0" cy="228.7" r="3" fill="#f28e2b"/><circle cx="149.6" cy="232.0" r="3" fill="#f28e2b"/><circle cx="182.1" cy="229.8" r="3" fill="#f28e2b"/><circle cx="214.6" cy="232.0" r="3" fill="#f28e2b"/><circle cx="247.1" cy="232.0" r="3" fill="#f28e2b"/><circle cx="279.7" cy="232.0" r="3" fill="#f28e2b"/><circle cx="312.2" cy="230.9" r="3" fill="#f28e2b"/><circle cx="344.7" cy="232.0" r="3" fill="#f28e2b"/><circle cx="377.2" cy="232.0" r="3" fill="#f28e2b"/><circle cx="409.7" cy="156.2" r="3" fill="#f28e2b"/><circle cx="442.3" cy="227.5" r="3" fill="#f28e2b"/><circle cx="474.8" cy="232.0" r="3" fill="#f28e2b"/><circle cx="507.3" cy="223.1" r="3" fill="#f28e2b"/><circle cx="539.8" cy="230.9" r="3" fill="#f28e2b"/><circle cx="572.3" cy="229.8" r="3" fill="#f28e2b"/><circle cx="604.9" cy="230.9" r="3" fill="#f28e2b"/><circle cx="637.4" cy="229.8" r="3" fill="#f28e2b"/><circle cx="669.9" cy="232.0" r="3" fill="#f28e2b"/><circle cx="702.4" cy="230.9" r="3" fill="#f28e2b"/><circle cx="735.0" cy="232.0" r="3" fill="#f28e2b"/><circle cx="767.5" cy="230.9" r="3" fill="#f28e2b"/><circle cx="800.0" cy="230.9" r="3" fill="#f28e2b"/>

  <!-- axes -->
  <line x1="52" y1="28" x2="52" y2="232"
        stroke="#cccccc" stroke-width="1"/>
  <line x1="52" y1="232" x2="800" y2="232"
        stroke="#cccccc" stroke-width="1"/>

  <!-- y-axis labels -->
  <text x="47" y="236.0" text-anchor="end" font-size="10" fill="#57606a" font-family="ui-monospace, SFMono-Regular, 'SF Mono', Menlo, monospace">0</text><text x="47" y="191.4" text-anchor="end" font-size="10" fill="#57606a" font-family="ui-monospace, SFMono-Regular, 'SF Mono', Menlo, monospace">40</text><text x="47" y="146.8" text-anchor="end" font-size="10" fill="#57606a" font-family="ui-monospace, SFMono-Regular, 'SF Mono', Menlo, monospace">80</text><text x="47" y="102.2" text-anchor="end" font-size="10" fill="#57606a" font-family="ui-monospace, SFMono-Regular, 'SF Mono', Menlo, monospace">120</text><text x="47" y="57.6" text-anchor="end" font-size="10" fill="#57606a" font-family="ui-monospace, SFMono-Regular, 'SF Mono', Menlo, monospace">160</text><text x="47" y="13.0" text-anchor="end" font-size="10" fill="#57606a" font-family="ui-monospace, SFMono-Regular, 'SF Mono', Menlo, monospace">200</text>

  <!-- x-axis labels -->
  <text x="52.0" y="248" text-anchor="middle" font-size="10" fill="#8c959f" font-family="ui-monospace, SFMono-Regular, 'SF Mono', Menlo, monospace">05-11</text><text x="149.6" y="248" text-anchor="middle" font-size="10" fill="#8c959f" font-family="ui-monospace, SFMono-Regular, 'SF Mono', Menlo, monospace">05-14</text><text x="247.1" y="248" text-anchor="middle" font-size="10" fill="#8c959f" font-family="ui-monospace, SFMono-Regular, 'SF Mono', Menlo, monospace">05-17</text><text x="344.7" y="248" text-anchor="middle" font-size="10" fill="#8c959f" font-family="ui-monospace, SFMono-Regular, 'SF Mono', Menlo, monospace">05-20</text><text x="442.3" y="248" text-anchor="middle" font-size="10" fill="#8c959f" font-family="ui-monospace, SFMono-Regular, 'SF Mono', Menlo, monospace">05-23</text><text x="539.8" y="248" text-anchor="middle" font-size="10" fill="#8c959f" font-family="ui-monospace, SFMono-Regular, 'SF Mono', Menlo, monospace">05-26</text><text x="637.4" y="248" text-anchor="middle" font-size="10" fill="#8c959f" font-family="ui-monospace, SFMono-Regular, 'SF Mono', Menlo, monospace">05-29</text><text x="735.0" y="248" text-anchor="middle" font-size="10" fill="#8c959f" font-family="ui-monospace, SFMono-Regular, 'SF Mono', Menlo, monospace">06-01</text><text x="800.0" y="248" text-anchor="middle" font-size="10" fill="#8c959f" font-family="ui-monospace, SFMono-Regular, 'SF Mono', Menlo, monospace">06-03</text>

  <!-- legend -->
  <rect x="60" y="262" width="16" height="3" fill="#4e79a7" rx="1"/><text x="80" y="268" font-size="11" fill="#57606a" font-family="-apple-system, BlinkMacSystemFont, 'Segoe UI', sans-serif">Total clones (218)</text><line x1="230" y1="264" x2="246" y2="264" stroke="#f28e2b" stroke-width="2" stroke-dasharray="5,3"/><text x="250" y="268" font-size="11" fill="#57606a" font-family="-apple-system, BlinkMacSystemFont, 'Segoe UI', sans-serif">Unique cloners</text>

</svg>