<svg xmlns="http://www.w3.org/2000/svg" viewBox="0 0 820 280" width="820" height="280">

  <!-- title -->
  <text x="52" y="18" font-size="13" font-weight="600"
        fill="#24292f" font-family="-apple-system, BlinkMacSystemFont, 'Segoe UI', sans-serif"
        >Clone traffic — dir-sync</text>
  <text x="800" y="18" font-size="10" fill="#8c959f"
        font-family="ui-monospace, SFMono-Regular, 'SF Mono', Menlo, monospace" text-anchor="end">2026-06-29</text>

  <!-- grid -->
  <line x1="52" y1="232.0" x2="800" y2="232.0" stroke="#e8e8e8" stroke-width="1"/><line x1="52" y1="190.4" x2="800" y2="190.4" stroke="#e8e8e8" stroke-width="1"/><line x1="52" y1="148.7" x2="800" y2="148.7" stroke="#e8e8e8" stroke-width="1"/><line x1="52" y1="107.1" x2="800" y2="107.1" stroke="#e8e8e8" stroke-width="1"/><line x1="52" y1="65.5" x2="800" y2="65.5" stroke="#e8e8e8" stroke-width="1"/><line x1="52" y1="23.8" x2="800" y2="23.8" stroke="#e8e8e8" stroke-width="1"/>

  <!-- area fill -->
  <path d="M52.0,232.0 L52.0,232.0 L67.9,231.3 L83.8,230.6 L99.7,232.0 L115.7,231.3 L131.6,232.0 L147.5,232.0 L163.4,232.0 L179.3,231.3 L195.2,232.0 L211.1,232.0 L227.1,164.0 L243.0,227.8 L258.9,141.1 L274.8,204.9 L290.7,220.2 L306.6,231.3 L322.6,231.3 L338.5,231.3 L354.4,232.0 L370.3,231.3 L386.2,232.0 L402.1,231.3 L418.0,231.3 L434.0,231.3 L449.9,231.3 L465.8,230.6 L481.7,231.3 L497.6,232.0 L513.5,229.9 L529.4,231.3 L545.4,232.0 L561.3,231.3 L577.2,232.0 L593.1,232.0 L609.0,232.0 L624.9,232.0 L640.9,232.0 L656.8,28.0 L672.7,228.5 L688.6,231.3 L704.5,231.3 L720.4,231.3 L736.3,232.0 L752.3,214.7 L768.2,123.8 L784.1,232.0 L800.0,231.3 L800.0,232.0 L52.0,232.0Z" fill="#4e79a7" opacity="0.12"/>

  <!-- lines -->
  <polyline points="52.0,232.0 67.9,231.3 83.8,230.6 99.7,232.0 115.7,231.3 131.6,232.0 147.5,232.0 163.4,232.0 179.3,231.3 195.2,232.0 211.1,232.0 227.1,164.0 243.0,227.8 258.9,141.1 274.8,204.9 290.7,220.2 306.6,231.3 322.6,231.3 338.5,231.3 354.4,232.0 370.3,231.3 386.2,232.0 402.1,231.3 418.0,231.3 434.0,231.3 449.9,231.3 465.8,230.6 481.7,231.3 497.6,232.0 513.5,229.9 529.4,231.3 545.4,232.0 561.3,231.3 577.2,232.0 593.1,232.0 609.0,232.0 624.9,232.0 640.9,232.0 656.8,28.0 672.7,228.5 688.6,231.3 704.5,231.3 720.4,231.3 736.3,232.0 752.3,214.7 768.2,123.8 784.1,232.0 800.0,231.3"
            fill="none" stroke="#4e79a7"
            stroke-width="2" stroke-linejoin="round"/>
  <polyline points="52.0,232.0 67.9,231.3 83.8,230.6 99.7,232.0 115.7,231.3 131.6,232.0 147.5,232.0 163.4,232.0 179.3,231.3 195.2,232.0 211.1,232.0 227.1,215.3 243.0,230.6 258.9,229.2 274.8,231.3 290.7,231.3 306.6,231.3 322.6,231.3 338.5,231.3 354.4,232.0 370.3,231.3 386.2,232.0 402.1,231.3 418.0,231.3 434.0,231.3 449.9,231.3 465.8,230.6 481.7,231.3 497.6,232.0 513.5,230.6 529.4,231.3 545.4,232.0 561.3,231.3 577.2,232.0 593.1,232.0 609.0,232.0 624.9,232.0 640.9,232.0 656.8,223.0 672.7,228.5 688.6,231.3 704.5,231.3 720.4,231.3 736.3,232.0 752.3,230.6 768.2,225.8 784.1,232.0 800.0,231.3"
            fill="none" stroke="#f28e2b"
            stroke-width="2" stroke-linejoin="round"
            stroke-dasharray="5,3"/>

  <!-- dots -->
  <circle cx="52.0" cy="232.0" r="3" fill="#4e79a7"/><circle cx="67.9" cy="231.3" r="3" fill="#4e79a7"/><circle cx="83.8" cy="230.6" r="3" fill="#4e79a7"/><circle cx="99.7" cy="232.0" r="3" fill="#4e79a7"/><circle cx="115.7" cy="231.3" r="3" fill="#4e79a7"/><circle cx="131.6" cy="232.0" r="3" fill="#4e79a7"/><circle cx="147.5" cy="232.0" r="3" fill="#4e79a7"/><circle cx="163.4" cy="232.0" r="3" fill="#4e79a7"/><circle cx="179.3" cy="231.3" r="3" fill="#4e79a7"/><circle cx="195.2" cy="232.0" r="3" fill="#4e79a7"/><circle cx="211.1" cy="232.0" r="3" fill="#4e79a7"/><circle cx="227.1" cy="164.0" r="3" fill="#4e79a7"/><circle cx="243.0" cy="227.8" r="3" fill="#4e79a7"/><circle cx="258.9" cy="141.1" r="3" fill="#4e79a7"/><circle cx="274.8" cy="204.9" r="3" fill="#4e79a7"/><circle cx="290.7" cy="220.2" r="3" fill="#4e79a7"/><circle cx="306.6" cy="231.3" r="3" fill="#4e79a7"/><circle cx="322.6" cy="231.3" r="3" fill="#4e79a7"/><circle cx="338.5" cy="231.3" r="3" fill="#4e79a7"/><circle cx="354.4" cy="232.0" r="3" fill="#4e79a7"/><circle cx="370.3" cy="231.3" r="3" fill="#4e79a7"/><circle cx="386.2" cy="232.0" r="3" fill="#4e79a7"/><circle cx="402.1" cy="231.3" r="3" fill="#4e79a7"/><circle cx="418.0" cy="231.3" r="3" fill="#4e79a7"/><circle cx="434.0" cy="231.3" r="3" fill="#4e79a7"/><circle cx="449.9" cy="231.3" r="3" fill="#4e79a7"/><circle cx="465.8" cy="230.6" r="3" fill="#4e79a7"/><circle cx="481.7" cy="231.3" r="3" fill="#4e79a7"/><circle cx="497.6" cy="232.0" r="3" fill="#4e79a7"/><circle cx="513.5" cy="229.9" r="3" fill="#4e79a7"/><circle cx="529.4" cy="231.3" r="3" fill="#4e79a7"/><circle cx="545.4" cy="232.0" r="3" fill="#4e79a7"/><circle cx="561.3" cy="231.3" r="3" fill="#4e79a7"/><circle cx="577.2" cy="232.0" r="3" fill="#4e79a7"/><circle cx="593.1" cy="232.0" r="3" fill="#4e79a7"/><circle cx="609.0" cy="232.0" r="3" fill="#4e79a7"/><circle cx="624.9" cy="232.0" r="3" fill="#4e79a7"/><circle cx="640.9" cy="232.0" r="3" fill="#4e79a7"/><circle cx="656.8" cy="28.0" r="3" fill="#4e79a7"/><circle cx="672.7" cy="228.5" r="3" fill="#4e79a7"/><circle cx="688.6" cy="231.3" r="3" fill="#4e79a7"/><circle cx="704.5" cy="231.3" r="3" fill="#4e79a7"/><circle cx="720.4" cy="231.3" r="3" fill="#4e79a7"/><circle cx="736.3" cy="232.0" r="3" fill="#4e79a7"/><circle cx="752.3" cy="214.7" r="3" fill="#4e79a7"/><circle cx="768.2" cy="123.8" r="3" fill="#4e79a7"/><circle cx="784.1" cy="232.0" r="3" fill="#4e79a7"/><circle cx="800.0" cy="231.3" r="3" fill="#4e79a7"/>
  <circle cx="52.0" cy="232.0" r="3" fill="#f28e2b"/><circle cx="67.9" cy="231.3" r="3" fill="#f28e2b"/><circle cx="83.8" cy="230.6" r="3" fill="#f28e2b"/><circle cx="99.7" cy="232.0" r="3" fill="#f28e2b"/><circle cx="115.7" cy="231.3" r="3" fill="#f28e2b"/><circle cx="131.6" cy="232.0" r="3" fill="#f28e2b"/><circle cx="147.5" cy="232.0" r="3" fill="#f28e2b"/><circle cx="163.4" cy="232.0" r="3" fill="#f28e2b"/><circle cx="179.3" cy="231.3" r="3" fill="#f28e2b"/><circle cx="195.2" cy="232.0" r="3" fill="#f28e2b"/><circle cx="211.1" cy="232.0" r="3" fill="#f28e2b"/><circle cx="227.1" cy="215.3" r="3" fill="#f28e2b"/><circle cx="243.0" cy="230.6" r="3" fill="#f28e2b"/><circle cx="258.9" cy="229.2" r="3" fill="#f28e2b"/><circle cx="274.8" cy="231.3" r="3" fill="#f28e2b"/><circle cx="290.7" cy="231.3" r="3" fill="#f28e2b"/><circle cx="306.6" cy="231.3" r="3" fill="#f28e2b"/><circle cx="322.6" cy="231.3" r="3" fill="#f28e2b"/><circle cx="338.5" cy="231.3" r="3" fill="#f28e2b"/><circle cx="354.4" cy="232.0" r="3" fill="#f28e2b"/><circle cx="370.3" cy="231.3" r="3" fill="#f28e2b"/><circle cx="386.2" cy="232.0" r="3" fill="#f28e2b"/><circle cx="402.1" cy="231.3" r="3" fill="#f28e2b"/><circle cx="418.0" cy="231.3" r="3" fill="#f28e2b"/><circle cx="434.0" cy="231.3" r="3" fill="#f28e2b"/><circle cx="449.9" cy="231.3" r="3" fill="#f28e2b"/><circle cx="465.8" cy="230.6" r="3" fill="#f28e2b"/><circle cx="481.7" cy="231.3" r="3" fill="#f28e2b"/><circle cx="497.6" cy="232.0" r="3" fill="#f28e2b"/><circle cx="513.5" cy="230.6" r="3" fill="#f28e2b"/><circle cx="529.4" cy="231.3" r="3" fill="#f28e2b"/><circle cx="545.4" cy="232.0" r="3" fill="#f28e2b"/><circle cx="561.3" cy="231.3" r="3" fill="#f28e2b"/><circle cx="577.2" cy="232.0" r="3" fill="#f28e2b"/><circle cx="593.1" cy="232.0" r="3" fill="#f28e2b"/><circle cx="609.0" cy="232.0" r="3" fill="#f28e2b"/><circle cx="624.9" cy="232.0" r="3" fill="#f28e2b"/><circle cx="640.9" cy="232.0" r="3" fill="#f28e2b"/><circle cx="656.8" cy="223.0" r="3" fill="#f28e2b"/><circle cx="672.7" cy="228.5" r="3" fill="#f28e2b"/><circle cx="688.6" cy="231.3" r="3" fill="#f28e2b"/><circle cx="704.5" cy="231.3" r="3" fill="#f28e2b"/><circle cx="720.4" cy="231.3" r="3" fill="#f28e2b"/><circle cx="736.3" cy="232.0" r="3" fill="#f28e2b"/><circle cx="752.3" cy="230.6" r="3" fill="#f28e2b"/><circle cx="768.2" cy="225.8" r="3" fill="#f28e2b"/><circle cx="784.1" cy="232.0" r="3" fill="#f28e2b"/><circle cx="800.0" cy="231.3" r="3" fill="#f28e2b"/>

  <!-- axes -->
  <line x1="52" y1="28" x2="52" y2="232"
        stroke="#cccccc" stroke-width="1"/>
  <line x1="52" y1="232" x2="800" y2="232"
        stroke="#cccccc" stroke-width="1"/>

  <!-- y-axis labels -->
  <text x="47" y="236.0" text-anchor="end" font-size="10" fill="#57606a" font-family="ui-monospace, SFMono-Regular, 'SF Mono', Menlo, monospace">0</text><text x="47" y="194.4" text-anchor="end" font-size="10" fill="#57606a" font-family="ui-monospace, SFMono-Regular, 'SF Mono', Menlo, monospace">60</text><text x="47" y="152.7" text-anchor="end" font-size="10" fill="#57606a" font-family="ui-monospace, SFMono-Regular, 'SF Mono', Menlo, monospace">120</text><text x="47" y="111.1" text-anchor="end" font-size="10" fill="#57606a" font-family="ui-monospace, SFMono-Regular, 'SF Mono', Menlo, monospace">180</text><text x="47" y="69.5" text-anchor="end" font-size="10" fill="#57606a" font-family="ui-monospace, SFMono-Regular, 'SF Mono', Menlo, monospace">240</text><text x="47" y="27.8" text-anchor="end" font-size="10" fill="#57606a" font-family="ui-monospace, SFMono-Regular, 'SF Mono', Menlo, monospace">300</text>

  <!-- x-axis labels -->
  <text x="52.0" y="248" text-anchor="middle" font-size="10" fill="#8c959f" font-family="ui-monospace, SFMono-Regular, 'SF Mono', Menlo, monospace">05-11</text><text x="624.9" y="248" text-anchor="middle" font-size="10" fill="#8c959f" font-family="ui-monospace, SFMono-Regular, 'SF Mono', Menlo, monospace">06-16</text><text x="147.5" y="248" text-anchor="middle" font-size="10" fill="#8c959f" font-family="ui-monospace, SFMono-Regular, 'SF Mono', Menlo, monospace">05-17</text><text x="720.4" y="248" text-anchor="middle" font-size="10" fill="#8c959f" font-family="ui-monospace, SFMono-Regular, 'SF Mono', Menlo, monospace">06-22</text><text x="243.0" y="248" text-anchor="middle" font-size="10" fill="#8c959f" font-family="ui-monospace, SFMono-Regular, 'SF Mono', Menlo, monospace">05-23</text><text x="800.0" y="248" text-anchor="middle" font-size="10" fill="#8c959f" font-family="ui-monospace, SFMono-Regular, 'SF Mono', Menlo, monospace">06-27</text><text x="338.5" y="248" text-anchor="middle" font-size="10" fill="#8c959f" font-family="ui-monospace, SFMono-Regular, 'SF Mono', Menlo, monospace">05-29</text><text x="434.0" y="248" text-anchor="middle" font-size="10" fill="#8c959f" font-family="ui-monospace, SFMono-Regular, 'SF Mono', Menlo, monospace">06-04</text><text x="529.4" y="248" text-anchor="middle" font-size="10" fill="#8c959f" font-family="ui-monospace, SFMono-Regular, 'SF Mono', Menlo, monospace">06-10</text>

  <!-- legend -->
  <rect x="60" y="262" width="16" height="3" fill="#4e79a7" rx="1"/><text x="80" y="268" font-size="11" fill="#57606a" font-family="-apple-system, BlinkMacSystemFont, 'Segoe UI', sans-serif">Total clones (796)</text><line x1="230" y1="264" x2="246" y2="264" stroke="#f28e2b" stroke-width="2" stroke-dasharray="5,3"/><text x="250" y="268" font-size="11" fill="#57606a" font-family="-apple-system, BlinkMacSystemFont, 'Segoe UI', sans-serif">Unique cloners</text>

</svg>