<svg xmlns="http://www.w3.org/2000/svg" viewBox="0 0 820 280" width="820" height="280">

  <!-- title -->
  <text x="52" y="18" font-size="13" font-weight="600"
        fill="#24292f" font-family="-apple-system, BlinkMacSystemFont, 'Segoe UI', sans-serif"
        >Clone traffic — dir-sync</text>
  <text x="800" y="18" font-size="10" fill="#8c959f"
        font-family="ui-monospace, SFMono-Regular, 'SF Mono', Menlo, monospace" text-anchor="end">2026-06-03</text>

  <!-- grid -->
  <line x1="52" y1="232.0" x2="800" y2="232.0" stroke="#e8e8e8" stroke-width="1"/><line x1="52" y1="185.3" x2="800" y2="185.3" stroke="#e8e8e8" stroke-width="1"/><line x1="52" y1="138.6" x2="800" y2="138.6" stroke="#e8e8e8" stroke-width="1"/><line x1="52" y1="91.8" x2="800" y2="91.8" stroke="#e8e8e8" stroke-width="1"/><line x1="52" y1="45.1" x2="800" y2="45.1" stroke="#e8e8e8" stroke-width="1"/><line x1="52" y1="-1.6" x2="800" y2="-1.6" stroke="#e8e8e8" stroke-width="1"/>

  <!-- area fill -->
  <path d="M52.0,232.0 L52.0,232.0 L87.6,230.4 L123.2,228.9 L158.9,232.0 L194.5,230.4 L230.1,232.0 L265.7,232.0 L301.3,232.0 L337.0,230.4 L372.6,232.0 L408.2,232.0 L443.8,79.4 L479.4,222.7 L515.0,28.0 L550.7,171.3 L586.3,205.5 L621.9,230.4 L657.5,230.4 L693.1,230.4 L728.8,232.0 L764.4,230.4 L800.0,232.0 L800.0,232.0 L52.0,232.0Z" fill="#4e79a7" opacity="0.12"/>

  <!-- lines -->
  <polyline points="52.0,232.0 87.6,230.4 123.2,228.9 158.9,232.0 194.5,230.4 230.1,232.0 265.7,232.0 301.3,232.0 337.0,230.4 372.6,232.0 408.2,232.0 443.8,79.4 479.4,222.7 515.0,28.0 550.7,171.3 586.3,205.5 621.9,230.4 657.5,230.4 693.1,230.4 728.8,232.0 764.4,230.4 800.0,232.0"
            fill="none" stroke="#4e79a7"
            stroke-width="2" stroke-linejoin="round"/>
  <polyline points="52.0,232.0 87.6,230.4 123.2,228.9 158.9,232.0 194.5,230.4 230.1,232.0 265.7,232.0 301.3,232.0 337.0,230.4 372.6,232.0 408.2,232.0 443.8,194.6 479.4,228.9 515.0,225.8 550.7,230.4 586.3,230.4 621.9,230.4 657.5,230.4 693.1,230.4 728.8,232.0 764.4,230.4 800.0,232.0"
            fill="none" stroke="#f28e2b"
            stroke-width="2" stroke-linejoin="round"
            stroke-dasharray="5,3"/>

  <!-- dots -->
  <circle cx="52.0" cy="232.0" r="3" fill="#4e79a7"/><circle cx="87.6" cy="230.4" r="3" fill="#4e79a7"/><circle cx="123.2" cy="228.9" r="3" fill="#4e79a7"/><circle cx="158.9" cy="232.0" r="3" fill="#4e79a7"/><circle cx="194.5" cy="230.4" r="3" fill="#4e79a7"/><circle cx="230.1" cy="232.0" r="3" fill="#4e79a7"/><circle cx="265.7" cy="232.0" r="3" fill="#4e79a7"/><circle cx="301.3" cy="232.0" r="3" fill="#4e79a7"/><circle cx="337.0" cy="230.4" r="3" fill="#4e79a7"/><circle cx="372.6" cy="232.0" r="3" fill="#4e79a7"/><circle cx="408.2" cy="232.0" r="3" fill="#4e79a7"/><circle cx="443.8" cy="79.4" r="3" fill="#4e79a7"/><circle cx="479.4" cy="222.7" r="3" fill="#4e79a7"/><circle cx="515.0" cy="28.0" r="3" fill="#4e79a7"/><circle cx="550.7" cy="171.3" r="3" fill="#4e79a7"/><circle cx="586.3" cy="205.5" r="3" fill="#4e79a7"/><circle cx="621.9" cy="230.4" r="3" fill="#4e79a7"/><circle cx="657.5" cy="230.4" r="3" fill="#4e79a7"/><circle cx="693.1" cy="230.4" r="3" fill="#4e79a7"/><circle cx="728.8" cy="232.0" r="3" fill="#4e79a7"/><circle cx="764.4" cy="230.4" r="3" fill="#4e79a7"/><circle cx="800.0" cy="232.0" r="3" fill="#4e79a7"/>
  <circle cx="52.0" cy="232.0" r="3" fill="#f28e2b"/><circle cx="87.6" cy="230.4" r="3" fill="#f28e2b"/><circle cx="123.2" cy="228.9" r="3" fill="#f28e2b"/><circle cx="158.9" cy="232.0" r="3" fill="#f28e2b"/><circle cx="194.5" cy="230.4" r="3" fill="#f28e2b"/><circle cx="230.1" cy="232.0" r="3" fill="#f28e2b"/><circle cx="265.7" cy="232.0" r="3" fill="#f28e2b"/><circle cx="301.3" cy="232.0" r="3" fill="#f28e2b"/><circle cx="337.0" cy="230.4" r="3" fill="#f28e2b"/><circle cx="372.6" cy="232.0" r="3" fill="#f28e2b"/><circle cx="408.2" cy="232.0" r="3" fill="#f28e2b"/><circle cx="443.8" cy="194.6" r="3" fill="#f28e2b"/><circle cx="479.4" cy="228.9" r="3" fill="#f28e2b"/><circle cx="515.0" cy="225.8" r="3" fill="#f28e2b"/><circle cx="550.7" cy="230.4" r="3" fill="#f28e2b"/><circle cx="586.3" cy="230.4" r="3" fill="#f28e2b"/><circle cx="621.9" cy="230.4" r="3" fill="#f28e2b"/><circle cx="657.5" cy="230.4" r="3" fill="#f28e2b"/><circle cx="693.1" cy="230.4" r="3" fill="#f28e2b"/><circle cx="728.8" cy="232.0" r="3" fill="#f28e2b"/><circle cx="764.4" cy="230.4" r="3" fill="#f28e2b"/><circle cx="800.0" cy="232.0" r="3" fill="#f28e2b"/>

  <!-- axes -->
  <line x1="52" y1="28" x2="52" y2="232"
        stroke="#cccccc" stroke-width="1"/>
  <line x1="52" y1="232" x2="800" y2="232"
        stroke="#cccccc" stroke-width="1"/>

  <!-- y-axis labels -->
  <text x="47" y="236.0" text-anchor="end" font-size="10" fill="#57606a" font-family="ui-monospace, SFMono-Regular, 'SF Mono', Menlo, monospace">0</text><text x="47" y="189.3" text-anchor="end" font-size="10" fill="#57606a" font-family="ui-monospace, SFMono-Regular, 'SF Mono', Menlo, monospace">30</text><text x="47" y="142.6" text-anchor="end" font-size="10" fill="#57606a" font-family="ui-monospace, SFMono-Regular, 'SF Mono', Menlo, monospace">60</text><text x="47" y="95.8" text-anchor="end" font-size="10" fill="#57606a" font-family="ui-monospace, SFMono-Regular, 'SF Mono', Menlo, monospace">90</text><text x="47" y="49.1" text-anchor="end" font-size="10" fill="#57606a" font-family="ui-monospace, SFMono-Regular, 'SF Mono', Menlo, monospace">120</text><text x="47" y="2.4" text-anchor="end" font-size="10" fill="#57606a" font-family="ui-monospace, SFMono-Regular, 'SF Mono', Menlo, monospace">150</text>

  <!-- x-axis labels -->
  <text x="52.0" y="248" text-anchor="middle" font-size="10" fill="#8c959f" font-family="ui-monospace, SFMono-Regular, 'SF Mono', Menlo, monospace">05-11</text><text x="123.2" y="248" text-anchor="middle" font-size="10" fill="#8c959f" font-family="ui-monospace, SFMono-Regular, 'SF Mono', Menlo, monospace">05-13</text><text x="194.5" y="248" text-anchor="middle" font-size="10" fill="#8c959f" font-family="ui-monospace, SFMono-Regular, 'SF Mono', Menlo, monospace">05-15</text><text x="265.7" y="248" text-anchor="middle" font-size="10" fill="#8c959f" font-family="ui-monospace, SFMono-Regular, 'SF Mono', Menlo, monospace">05-17</text><text x="337.0" y="248" text-anchor="middle" font-size="10" fill="#8c959f" font-family="ui-monospace, SFMono-Regular, 'SF Mono', Menlo, monospace">05-19</text><text x="408.2" y="248" text-anchor="middle" font-size="10" fill="#8c959f" font-family="ui-monospace, SFMono-Regular, 'SF Mono', Menlo, monospace">05-21</text><text x="479.4" y="248" text-anchor="middle" font-size="10" fill="#8c959f" font-family="ui-monospace, SFMono-Regular, 'SF Mono', Menlo, monospace">05-23</text><text x="550.7" y="248" text-anchor="middle" font-size="10" fill="#8c959f" font-family="ui-monospace, SFMono-Regular, 'SF Mono', Menlo, monospace">05-25</text><text x="621.9" y="248" text-anchor="middle" font-size="10" fill="#8c959f" font-family="ui-monospace, SFMono-Regular, 'SF Mono', Menlo, monospace">05-27</text><text x="693.1" y="248" text-anchor="middle" font-size="10" fill="#8c959f" font-family="ui-monospace, SFMono-Regular, 'SF Mono', Menlo, monospace">05-29</text><text x="764.4" y="248" text-anchor="middle" font-size="10" fill="#8c959f" font-family="ui-monospace, SFMono-Regular, 'SF Mono', Menlo, monospace">05-31</text><text x="800.0" y="248" text-anchor="middle" font-size="10" fill="#8c959f" font-family="ui-monospace, SFMono-Regular, 'SF Mono', Menlo, monospace">06-01</text>

  <!-- legend -->
  <rect x="60" y="262" width="16" height="3" fill="#4e79a7" rx="1"/><text x="80" y="268" font-size="11" fill="#57606a" font-family="-apple-system, BlinkMacSystemFont, 'Segoe UI', sans-serif">Total clones (300)</text><line x1="230" y1="264" x2="246" y2="264" stroke="#f28e2b" stroke-width="2" stroke-dasharray="5,3"/><text x="250" y="268" font-size="11" fill="#57606a" font-family="-apple-system, BlinkMacSystemFont, 'Segoe UI', sans-serif">Unique cloners</text>

</svg>