<svg xmlns="http://www.w3.org/2000/svg" viewBox="0 0 820 280" width="820" height="280">

  <!-- title -->
  <text x="52" y="18" font-size="13" font-weight="600"
        fill="#24292f" font-family="-apple-system, BlinkMacSystemFont, 'Segoe UI', sans-serif"
        >Clone traffic — dir-sync</text>
  <text x="800" y="18" font-size="10" fill="#8c959f"
        font-family="ui-monospace, SFMono-Regular, 'SF Mono', Menlo, monospace" text-anchor="end">2026-06-14</text>

  <!-- grid -->
  <line x1="52" y1="232.0" x2="800" y2="232.0" stroke="#e8e8e8" stroke-width="1"/><line x1="52" y1="185.3" x2="800" y2="185.3" stroke="#e8e8e8" stroke-width="1"/><line x1="52" y1="138.6" x2="800" y2="138.6" stroke="#e8e8e8" stroke-width="1"/><line x1="52" y1="91.8" x2="800" y2="91.8" stroke="#e8e8e8" stroke-width="1"/><line x1="52" y1="45.1" x2="800" y2="45.1" stroke="#e8e8e8" stroke-width="1"/><line x1="52" y1="-1.6" x2="800" y2="-1.6" stroke="#e8e8e8" stroke-width="1"/>

  <!-- area fill -->
  <path d="M52.0,232.0 L52.0,232.0 L75.4,230.4 L98.8,228.9 L122.1,232.0 L145.5,230.4 L168.9,232.0 L192.2,232.0 L215.6,232.0 L239.0,230.4 L262.4,232.0 L285.8,232.0 L309.1,79.4 L332.5,222.7 L355.9,28.0 L379.2,171.3 L402.6,205.5 L426.0,230.4 L449.4,230.4 L472.8,230.4 L496.1,232.0 L519.5,230.4 L542.9,232.0 L566.2,230.4 L589.6,230.4 L613.0,230.4 L636.4,230.4 L659.8,228.9 L683.1,230.4 L706.5,232.0 L729.9,227.3 L753.2,230.4 L776.6,232.0 L800.0,230.4 L800.0,232.0 L52.0,232.0Z" fill="#4e79a7" opacity="0.12"/>

  <!-- lines -->
  <polyline points="52.0,232.0 75.4,230.4 98.8,228.9 122.1,232.0 145.5,230.4 168.9,232.0 192.2,232.0 215.6,232.0 239.0,230.4 262.4,232.0 285.8,232.0 309.1,79.4 332.5,222.7 355.9,28.0 379.2,171.3 402.6,205.5 426.0,230.4 449.4,230.4 472.8,230.4 496.1,232.0 519.5,230.4 542.9,232.0 566.2,230.4 589.6,230.4 613.0,230.4 636.4,230.4 659.8,228.9 683.1,230.4 706.5,232.0 729.9,227.3 753.2,230.4 776.6,232.0 800.0,230.4"
            fill="none" stroke="#4e79a7"
            stroke-width="2" stroke-linejoin="round"/>
  <polyline points="52.0,232.0 75.4,230.4 98.8,228.9 122.1,232.0 145.5,230.4 168.9,232.0 192.2,232.0 215.6,232.0 239.0,230.4 262.4,232.0 285.8,232.0 309.1,194.6 332.5,228.9 355.9,225.8 379.2,230.4 402.6,230.4 426.0,230.4 449.4,230.4 472.8,230.4 496.1,232.0 519.5,230.4 542.9,232.0 566.2,230.4 589.6,230.4 613.0,230.4 636.4,230.4 659.8,228.9 683.1,230.4 706.5,232.0 729.9,228.9 753.2,230.4 776.6,232.0 800.0,230.4"
            fill="none" stroke="#f28e2b"
            stroke-width="2" stroke-linejoin="round"
            stroke-dasharray="5,3"/>

  <!-- dots -->
  <circle cx="52.0" cy="232.0" r="3" fill="#4e79a7"/><circle cx="75.4" cy="230.4" r="3" fill="#4e79a7"/><circle cx="98.8" cy="228.9" r="3" fill="#4e79a7"/><circle cx="122.1" cy="232.0" r="3" fill="#4e79a7"/><circle cx="145.5" cy="230.4" r="3" fill="#4e79a7"/><circle cx="168.9" cy="232.0" r="3" fill="#4e79a7"/><circle cx="192.2" cy="232.0" r="3" fill="#4e79a7"/><circle cx="215.6" cy="232.0" r="3" fill="#4e79a7"/><circle cx="239.0" cy="230.4" r="3" fill="#4e79a7"/><circle cx="262.4" cy="232.0" r="3" fill="#4e79a7"/><circle cx="285.8" cy="232.0" r="3" fill="#4e79a7"/><circle cx="309.1" cy="79.4" r="3" fill="#4e79a7"/><circle cx="332.5" cy="222.7" r="3" fill="#4e79a7"/><circle cx="355.9" cy="28.0" r="3" fill="#4e79a7"/><circle cx="379.2" cy="171.3" r="3" fill="#4e79a7"/><circle cx="402.6" cy="205.5" r="3" fill="#4e79a7"/><circle cx="426.0" cy="230.4" r="3" fill="#4e79a7"/><circle cx="449.4" cy="230.4" r="3" fill="#4e79a7"/><circle cx="472.8" cy="230.4" r="3" fill="#4e79a7"/><circle cx="496.1" cy="232.0" r="3" fill="#4e79a7"/><circle cx="519.5" cy="230.4" r="3" fill="#4e79a7"/><circle cx="542.9" cy="232.0" r="3" fill="#4e79a7"/><circle cx="566.2" cy="230.4" r="3" fill="#4e79a7"/><circle cx="589.6" cy="230.4" r="3" fill="#4e79a7"/><circle cx="613.0" cy="230.4" r="3" fill="#4e79a7"/><circle cx="636.4" cy="230.4" r="3" fill="#4e79a7"/><circle cx="659.8" cy="228.9" r="3" fill="#4e79a7"/><circle cx="683.1" cy="230.4" r="3" fill="#4e79a7"/><circle cx="706.5" cy="232.0" r="3" fill="#4e79a7"/><circle cx="729.9" cy="227.3" r="3" fill="#4e79a7"/><circle cx="753.2" cy="230.4" r="3" fill="#4e79a7"/><circle cx="776.6" cy="232.0" r="3" fill="#4e79a7"/><circle cx="800.0" cy="230.4" r="3" fill="#4e79a7"/>
  <circle cx="52.0" cy="232.0" r="3" fill="#f28e2b"/><circle cx="75.4" cy="230.4" r="3" fill="#f28e2b"/><circle cx="98.8" cy="228.9" r="3" fill="#f28e2b"/><circle cx="122.1" cy="232.0" r="3" fill="#f28e2b"/><circle cx="145.5" cy="230.4" r="3" fill="#f28e2b"/><circle cx="168.9" cy="232.0" r="3" fill="#f28e2b"/><circle cx="192.2" cy="232.0" r="3" fill="#f28e2b"/><circle cx="215.6" cy="232.0" r="3" fill="#f28e2b"/><circle cx="239.0" cy="230.4" r="3" fill="#f28e2b"/><circle cx="262.4" cy="232.0" r="3" fill="#f28e2b"/><circle cx="285.8" cy="232.0" r="3" fill="#f28e2b"/><circle cx="309.1" cy="194.6" r="3" fill="#f28e2b"/><circle cx="332.5" cy="228.9" r="3" fill="#f28e2b"/><circle cx="355.9" cy="225.8" r="3" fill="#f28e2b"/><circle cx="379.2" cy="230.4" r="3" fill="#f28e2b"/><circle cx="402.6" cy="230.4" r="3" fill="#f28e2b"/><circle cx="426.0" cy="230.4" r="3" fill="#f28e2b"/><circle cx="449.4" cy="230.4" r="3" fill="#f28e2b"/><circle cx="472.8" cy="230.4" r="3" fill="#f28e2b"/><circle cx="496.1" cy="232.0" r="3" fill="#f28e2b"/><circle cx="519.5" cy="230.4" r="3" fill="#f28e2b"/><circle cx="542.9" cy="232.0" r="3" fill="#f28e2b"/><circle cx="566.2" cy="230.4" r="3" fill="#f28e2b"/><circle cx="589.6" cy="230.4" r="3" fill="#f28e2b"/><circle cx="613.0" cy="230.4" r="3" fill="#f28e2b"/><circle cx="636.4" cy="230.4" r="3" fill="#f28e2b"/><circle cx="659.8" cy="228.9" r="3" fill="#f28e2b"/><circle cx="683.1" cy="230.4" r="3" fill="#f28e2b"/><circle cx="706.5" cy="232.0" r="3" fill="#f28e2b"/><circle cx="729.9" cy="228.9" r="3" fill="#f28e2b"/><circle cx="753.2" cy="230.4" r="3" fill="#f28e2b"/><circle cx="776.6" cy="232.0" r="3" fill="#f28e2b"/><circle cx="800.0" cy="230.4" r="3" fill="#f28e2b"/>

  <!-- axes -->
  <line x1="52" y1="28" x2="52" y2="232"
        stroke="#cccccc" stroke-width="1"/>
  <line x1="52" y1="232" x2="800" y2="232"
        stroke="#cccccc" stroke-width="1"/>

  <!-- y-axis labels -->
  <text x="47" y="236.0" text-anchor="end" font-size="10" fill="#57606a" font-family="ui-monospace, SFMono-Regular, 'SF Mono', Menlo, monospace">0</text><text x="47" y="189.3" text-anchor="end" font-size="10" fill="#57606a" font-family="ui-monospace, SFMono-Regular, 'SF Mono', Menlo, monospace">30</text><text x="47" y="142.6" text-anchor="end" font-size="10" fill="#57606a" font-family="ui-monospace, SFMono-Regular, 'SF Mono', Menlo, monospace">60</text><text x="47" y="95.8" text-anchor="end" font-size="10" fill="#57606a" font-family="ui-monospace, SFMono-Regular, 'SF Mono', Menlo, monospace">90</text><text x="47" y="49.1" text-anchor="end" font-size="10" fill="#57606a" font-family="ui-monospace, SFMono-Regular, 'SF Mono', Menlo, monospace">120</text><text x="47" y="2.4" text-anchor="end" font-size="10" fill="#57606a" font-family="ui-monospace, SFMono-Regular, 'SF Mono', Menlo, monospace">150</text>

  <!-- x-axis labels -->
  <text x="52.0" y="248" text-anchor="middle" font-size="10" fill="#8c959f" font-family="ui-monospace, SFMono-Regular, 'SF Mono', Menlo, monospace">05-11</text><text x="800.0" y="248" text-anchor="middle" font-size="10" fill="#8c959f" font-family="ui-monospace, SFMono-Regular, 'SF Mono', Menlo, monospace">06-12</text><text x="145.5" y="248" text-anchor="middle" font-size="10" fill="#8c959f" font-family="ui-monospace, SFMono-Regular, 'SF Mono', Menlo, monospace">05-15</text><text x="239.0" y="248" text-anchor="middle" font-size="10" fill="#8c959f" font-family="ui-monospace, SFMono-Regular, 'SF Mono', Menlo, monospace">05-19</text><text x="332.5" y="248" text-anchor="middle" font-size="10" fill="#8c959f" font-family="ui-monospace, SFMono-Regular, 'SF Mono', Menlo, monospace">05-23</text><text x="426.0" y="248" text-anchor="middle" font-size="10" fill="#8c959f" font-family="ui-monospace, SFMono-Regular, 'SF Mono', Menlo, monospace">05-27</text><text x="519.5" y="248" text-anchor="middle" font-size="10" fill="#8c959f" font-family="ui-monospace, SFMono-Regular, 'SF Mono', Menlo, monospace">05-31</text><text x="613.0" y="248" text-anchor="middle" font-size="10" fill="#8c959f" font-family="ui-monospace, SFMono-Regular, 'SF Mono', Menlo, monospace">06-04</text><text x="706.5" y="248" text-anchor="middle" font-size="10" fill="#8c959f" font-family="ui-monospace, SFMono-Regular, 'SF Mono', Menlo, monospace">06-08</text>

  <!-- legend -->
  <rect x="60" y="262" width="16" height="3" fill="#4e79a7" rx="1"/><text x="80" y="268" font-size="11" fill="#57606a" font-family="-apple-system, BlinkMacSystemFont, 'Segoe UI', sans-serif">Total clones (312)</text><line x1="230" y1="264" x2="246" y2="264" stroke="#f28e2b" stroke-width="2" stroke-dasharray="5,3"/><text x="250" y="268" font-size="11" fill="#57606a" font-family="-apple-system, BlinkMacSystemFont, 'Segoe UI', sans-serif">Unique cloners</text>

</svg>