<svg xmlns="http://www.w3.org/2000/svg" viewBox="0 0 820 280" width="820" height="280">

  <!-- title -->
  <text x="52" y="18" font-size="13" font-weight="600"
        fill="#24292f" font-family="-apple-system, BlinkMacSystemFont, 'Segoe UI', sans-serif"
        >Clone traffic — dir-sync</text>
  <text x="800" y="18" font-size="10" fill="#8c959f"
        font-family="ui-monospace, SFMono-Regular, 'SF Mono', Menlo, monospace" text-anchor="end">2026-06-26</text>

  <!-- grid -->
  <line x1="52" y1="232.0" x2="800" y2="232.0" stroke="#e8e8e8" stroke-width="1"/><line x1="52" y1="190.4" x2="800" y2="190.4" stroke="#e8e8e8" stroke-width="1"/><line x1="52" y1="148.7" x2="800" y2="148.7" stroke="#e8e8e8" stroke-width="1"/><line x1="52" y1="107.1" x2="800" y2="107.1" stroke="#e8e8e8" stroke-width="1"/><line x1="52" y1="65.5" x2="800" y2="65.5" stroke="#e8e8e8" stroke-width="1"/><line x1="52" y1="23.8" x2="800" y2="23.8" stroke="#e8e8e8" stroke-width="1"/>

  <!-- area fill -->
  <path d="M52.0,232.0 L52.0,232.0 L69.0,231.3 L86.0,230.6 L103.0,232.0 L120.0,231.3 L137.0,232.0 L154.0,232.0 L171.0,232.0 L188.0,231.3 L205.0,232.0 L222.0,232.0 L239.0,164.0 L256.0,227.8 L273.0,141.1 L290.0,204.9 L307.0,220.2 L324.0,231.3 L341.0,231.3 L358.0,231.3 L375.0,232.0 L392.0,231.3 L409.0,232.0 L426.0,231.3 L443.0,231.3 L460.0,231.3 L477.0,231.3 L494.0,230.6 L511.0,231.3 L528.0,232.0 L545.0,229.9 L562.0,231.3 L579.0,232.0 L596.0,231.3 L613.0,232.0 L630.0,232.0 L647.0,232.0 L664.0,232.0 L681.0,232.0 L698.0,28.0 L715.0,228.5 L732.0,231.3 L749.0,231.3 L766.0,231.3 L783.0,232.0 L800.0,214.7 L800.0,232.0 L52.0,232.0Z" fill="#4e79a7" opacity="0.12"/>

  <!-- lines -->
  <polyline points="52.0,232.0 69.0,231.3 86.0,230.6 103.0,232.0 120.0,231.3 137.0,232.0 154.0,232.0 171.0,232.0 188.0,231.3 205.0,232.0 222.0,232.0 239.0,164.0 256.0,227.8 273.0,141.1 290.0,204.9 307.0,220.2 324.0,231.3 341.0,231.3 358.0,231.3 375.0,232.0 392.0,231.3 409.0,232.0 426.0,231.3 443.0,231.3 460.0,231.3 477.0,231.3 494.0,230.6 511.0,231.3 528.0,232.0 545.0,229.9 562.0,231.3 579.0,232.0 596.0,231.3 613.0,232.0 630.0,232.0 647.0,232.0 664.0,232.0 681.0,232.0 698.0,28.0 715.0,228.5 732.0,231.3 749.0,231.3 766.0,231.3 783.0,232.0 800.0,214.7"
            fill="none" stroke="#4e79a7"
            stroke-width="2" stroke-linejoin="round"/>
  <polyline points="52.0,232.0 69.0,231.3 86.0,230.6 103.0,232.0 120.0,231.3 137.0,232.0 154.0,232.0 171.0,232.0 188.0,231.3 205.0,232.0 222.0,232.0 239.0,215.3 256.0,230.6 273.0,229.2 290.0,231.3 307.0,231.3 324.0,231.3 341.0,231.3 358.0,231.3 375.0,232.0 392.0,231.3 409.0,232.0 426.0,231.3 443.0,231.3 460.0,231.3 477.0,231.3 494.0,230.6 511.0,231.3 528.0,232.0 545.0,230.6 562.0,231.3 579.0,232.0 596.0,231.3 613.0,232.0 630.0,232.0 647.0,232.0 664.0,232.0 681.0,232.0 698.0,223.0 715.0,228.5 732.0,231.3 749.0,231.3 766.0,231.3 783.0,232.0 800.0,230.6"
            fill="none" stroke="#f28e2b"
            stroke-width="2" stroke-linejoin="round"
            stroke-dasharray="5,3"/>

  <!-- dots -->
  <circle cx="52.0" cy="232.0" r="3" fill="#4e79a7"/><circle cx="69.0" cy="231.3" r="3" fill="#4e79a7"/><circle cx="86.0" cy="230.6" r="3" fill="#4e79a7"/><circle cx="103.0" cy="232.0" r="3" fill="#4e79a7"/><circle cx="120.0" cy="231.3" r="3" fill="#4e79a7"/><circle cx="137.0" cy="232.0" r="3" fill="#4e79a7"/><circle cx="154.0" cy="232.0" r="3" fill="#4e79a7"/><circle cx="171.0" cy="232.0" r="3" fill="#4e79a7"/><circle cx="188.0" cy="231.3" r="3" fill="#4e79a7"/><circle cx="205.0" cy="232.0" r="3" fill="#4e79a7"/><circle cx="222.0" cy="232.0" r="3" fill="#4e79a7"/><circle cx="239.0" cy="164.0" r="3" fill="#4e79a7"/><circle cx="256.0" cy="227.8" r="3" fill="#4e79a7"/><circle cx="273.0" cy="141.1" r="3" fill="#4e79a7"/><circle cx="290.0" cy="204.9" r="3" fill="#4e79a7"/><circle cx="307.0" cy="220.2" r="3" fill="#4e79a7"/><circle cx="324.0" cy="231.3" r="3" fill="#4e79a7"/><circle cx="341.0" cy="231.3" r="3" fill="#4e79a7"/><circle cx="358.0" cy="231.3" r="3" fill="#4e79a7"/><circle cx="375.0" cy="232.0" r="3" fill="#4e79a7"/><circle cx="392.0" cy="231.3" r="3" fill="#4e79a7"/><circle cx="409.0" cy="232.0" r="3" fill="#4e79a7"/><circle cx="426.0" cy="231.3" r="3" fill="#4e79a7"/><circle cx="443.0" cy="231.3" r="3" fill="#4e79a7"/><circle cx="460.0" cy="231.3" r="3" fill="#4e79a7"/><circle cx="477.0" cy="231.3" r="3" fill="#4e79a7"/><circle cx="494.0" cy="230.6" r="3" fill="#4e79a7"/><circle cx="511.0" cy="231.3" r="3" fill="#4e79a7"/><circle cx="528.0" cy="232.0" r="3" fill="#4e79a7"/><circle cx="545.0" cy="229.9" r="3" fill="#4e79a7"/><circle cx="562.0" cy="231.3" r="3" fill="#4e79a7"/><circle cx="579.0" cy="232.0" r="3" fill="#4e79a7"/><circle cx="596.0" cy="231.3" r="3" fill="#4e79a7"/><circle cx="613.0" cy="232.0" r="3" fill="#4e79a7"/><circle cx="630.0" cy="232.0" r="3" fill="#4e79a7"/><circle cx="647.0" cy="232.0" r="3" fill="#4e79a7"/><circle cx="664.0" cy="232.0" r="3" fill="#4e79a7"/><circle cx="681.0" cy="232.0" r="3" fill="#4e79a7"/><circle cx="698.0" cy="28.0" r="3" fill="#4e79a7"/><circle cx="715.0" cy="228.5" r="3" fill="#4e79a7"/><circle cx="732.0" cy="231.3" r="3" fill="#4e79a7"/><circle cx="749.0" cy="231.3" r="3" fill="#4e79a7"/><circle cx="766.0" cy="231.3" r="3" fill="#4e79a7"/><circle cx="783.0" cy="232.0" r="3" fill="#4e79a7"/><circle cx="800.0" cy="214.7" r="3" fill="#4e79a7"/>
  <circle cx="52.0" cy="232.0" r="3" fill="#f28e2b"/><circle cx="69.0" cy="231.3" r="3" fill="#f28e2b"/><circle cx="86.0" cy="230.6" r="3" fill="#f28e2b"/><circle cx="103.0" cy="232.0" r="3" fill="#f28e2b"/><circle cx="120.0" cy="231.3" r="3" fill="#f28e2b"/><circle cx="137.0" cy="232.0" r="3" fill="#f28e2b"/><circle cx="154.0" cy="232.0" r="3" fill="#f28e2b"/><circle cx="171.0" cy="232.0" r="3" fill="#f28e2b"/><circle cx="188.0" cy="231.3" r="3" fill="#f28e2b"/><circle cx="205.0" cy="232.0" r="3" fill="#f28e2b"/><circle cx="222.0" cy="232.0" r="3" fill="#f28e2b"/><circle cx="239.0" cy="215.3" r="3" fill="#f28e2b"/><circle cx="256.0" cy="230.6" r="3" fill="#f28e2b"/><circle cx="273.0" cy="229.2" r="3" fill="#f28e2b"/><circle cx="290.0" cy="231.3" r="3" fill="#f28e2b"/><circle cx="307.0" cy="231.3" r="3" fill="#f28e2b"/><circle cx="324.0" cy="231.3" r="3" fill="#f28e2b"/><circle cx="341.0" cy="231.3" r="3" fill="#f28e2b"/><circle cx="358.0" cy="231.3" r="3" fill="#f28e2b"/><circle cx="375.0" cy="232.0" r="3" fill="#f28e2b"/><circle cx="392.0" cy="231.3" r="3" fill="#f28e2b"/><circle cx="409.0" cy="232.0" r="3" fill="#f28e2b"/><circle cx="426.0" cy="231.3" r="3" fill="#f28e2b"/><circle cx="443.0" cy="231.3" r="3" fill="#f28e2b"/><circle cx="460.0" cy="231.3" r="3" fill="#f28e2b"/><circle cx="477.0" cy="231.3" r="3" fill="#f28e2b"/><circle cx="494.0" cy="230.6" r="3" fill="#f28e2b"/><circle cx="511.0" cy="231.3" r="3" fill="#f28e2b"/><circle cx="528.0" cy="232.0" r="3" fill="#f28e2b"/><circle cx="545.0" cy="230.6" r="3" fill="#f28e2b"/><circle cx="562.0" cy="231.3" r="3" fill="#f28e2b"/><circle cx="579.0" cy="232.0" r="3" fill="#f28e2b"/><circle cx="596.0" cy="231.3" r="3" fill="#f28e2b"/><circle cx="613.0" cy="232.0" r="3" fill="#f28e2b"/><circle cx="630.0" cy="232.0" r="3" fill="#f28e2b"/><circle cx="647.0" cy="232.0" r="3" fill="#f28e2b"/><circle cx="664.0" cy="232.0" r="3" fill="#f28e2b"/><circle cx="681.0" cy="232.0" r="3" fill="#f28e2b"/><circle cx="698.0" cy="223.0" r="3" fill="#f28e2b"/><circle cx="715.0" cy="228.5" r="3" fill="#f28e2b"/><circle cx="732.0" cy="231.3" r="3" fill="#f28e2b"/><circle cx="749.0" cy="231.3" r="3" fill="#f28e2b"/><circle cx="766.0" cy="231.3" r="3" fill="#f28e2b"/><circle cx="783.0" cy="232.0" r="3" fill="#f28e2b"/><circle cx="800.0" cy="230.6" r="3" fill="#f28e2b"/>

  <!-- axes -->
  <line x1="52" y1="28" x2="52" y2="232"
        stroke="#cccccc" stroke-width="1"/>
  <line x1="52" y1="232" x2="800" y2="232"
        stroke="#cccccc" stroke-width="1"/>

  <!-- y-axis labels -->
  <text x="47" y="236.0" text-anchor="end" font-size="10" fill="#57606a" font-family="ui-monospace, SFMono-Regular, 'SF Mono', Menlo, monospace">0</text><text x="47" y="194.4" text-anchor="end" font-size="10" fill="#57606a" font-family="ui-monospace, SFMono-Regular, 'SF Mono', Menlo, monospace">60</text><text x="47" y="152.7" text-anchor="end" font-size="10" fill="#57606a" font-family="ui-monospace, SFMono-Regular, 'SF Mono', Menlo, monospace">120</text><text x="47" y="111.1" text-anchor="end" font-size="10" fill="#57606a" font-family="ui-monospace, SFMono-Regular, 'SF Mono', Menlo, monospace">180</text><text x="47" y="69.5" text-anchor="end" font-size="10" fill="#57606a" font-family="ui-monospace, SFMono-Regular, 'SF Mono', Menlo, monospace">240</text><text x="47" y="27.8" text-anchor="end" font-size="10" fill="#57606a" font-family="ui-monospace, SFMono-Regular, 'SF Mono', Menlo, monospace">300</text>

  <!-- x-axis labels -->
  <text x="52.0" y="248" text-anchor="middle" font-size="10" fill="#8c959f" font-family="ui-monospace, SFMono-Regular, 'SF Mono', Menlo, monospace">05-11</text><text x="647.0" y="248" text-anchor="middle" font-size="10" fill="#8c959f" font-family="ui-monospace, SFMono-Regular, 'SF Mono', Menlo, monospace">06-15</text><text x="137.0" y="248" text-anchor="middle" font-size="10" fill="#8c959f" font-family="ui-monospace, SFMono-Regular, 'SF Mono', Menlo, monospace">05-16</text><text x="732.0" y="248" text-anchor="middle" font-size="10" fill="#8c959f" font-family="ui-monospace, SFMono-Regular, 'SF Mono', Menlo, monospace">06-20</text><text x="222.0" y="248" text-anchor="middle" font-size="10" fill="#8c959f" font-family="ui-monospace, SFMono-Regular, 'SF Mono', Menlo, monospace">05-21</text><text x="800.0" y="248" text-anchor="middle" font-size="10" fill="#8c959f" font-family="ui-monospace, SFMono-Regular, 'SF Mono', Menlo, monospace">06-24</text><text x="307.0" y="248" text-anchor="middle" font-size="10" fill="#8c959f" font-family="ui-monospace, SFMono-Regular, 'SF Mono', Menlo, monospace">05-26</text><text x="392.0" y="248" text-anchor="middle" font-size="10" fill="#8c959f" font-family="ui-monospace, SFMono-Regular, 'SF Mono', Menlo, monospace">05-31</text><text x="477.0" y="248" text-anchor="middle" font-size="10" fill="#8c959f" font-family="ui-monospace, SFMono-Regular, 'SF Mono', Menlo, monospace">06-05</text><text x="562.0" y="248" text-anchor="middle" font-size="10" fill="#8c959f" font-family="ui-monospace, SFMono-Regular, 'SF Mono', Menlo, monospace">06-10</text>

  <!-- legend -->
  <rect x="60" y="262" width="16" height="3" fill="#4e79a7" rx="1"/><text x="80" y="268" font-size="11" fill="#57606a" font-family="-apple-system, BlinkMacSystemFont, 'Segoe UI', sans-serif">Total clones (639)</text><line x1="230" y1="264" x2="246" y2="264" stroke="#f28e2b" stroke-width="2" stroke-dasharray="5,3"/><text x="250" y="268" font-size="11" fill="#57606a" font-family="-apple-system, BlinkMacSystemFont, 'Segoe UI', sans-serif">Unique cloners</text>

</svg>