<svg xmlns="http://www.w3.org/2000/svg" viewBox="0 0 820 280" width="820" height="280">

  <!-- title -->
  <text x="52" y="18" font-size="13" font-weight="600"
        fill="#24292f" font-family="-apple-system, BlinkMacSystemFont, 'Segoe UI', sans-serif"
        >Clone traffic — dir-sync</text>
  <text x="800" y="18" font-size="10" fill="#8c959f"
        font-family="ui-monospace, SFMono-Regular, 'SF Mono', Menlo, monospace" text-anchor="end">2026-06-28</text>

  <!-- grid -->
  <line x1="52" y1="232.0" x2="800" y2="232.0" stroke="#e8e8e8" stroke-width="1"/><line x1="52" y1="190.4" x2="800" y2="190.4" stroke="#e8e8e8" stroke-width="1"/><line x1="52" y1="148.7" x2="800" y2="148.7" stroke="#e8e8e8" stroke-width="1"/><line x1="52" y1="107.1" x2="800" y2="107.1" stroke="#e8e8e8" stroke-width="1"/><line x1="52" y1="65.5" x2="800" y2="65.5" stroke="#e8e8e8" stroke-width="1"/><line x1="52" y1="23.8" x2="800" y2="23.8" stroke="#e8e8e8" stroke-width="1"/>

  <!-- area fill -->
  <path d="M52.0,232.0 L52.0,232.0 L68.3,231.3 L84.5,230.6 L100.8,232.0 L117.0,231.3 L133.3,232.0 L149.6,232.0 L165.8,232.0 L182.1,231.3 L198.3,232.0 L214.6,232.0 L230.9,164.0 L247.1,227.8 L263.4,141.1 L279.7,204.9 L295.9,220.2 L312.2,231.3 L328.4,231.3 L344.7,231.3 L361.0,232.0 L377.2,231.3 L393.5,232.0 L409.7,231.3 L426.0,231.3 L442.3,231.3 L458.5,231.3 L474.8,230.6 L491.0,231.3 L507.3,232.0 L523.6,229.9 L539.8,231.3 L556.1,232.0 L572.3,231.3 L588.6,232.0 L604.9,232.0 L621.1,232.0 L637.4,232.0 L653.7,232.0 L669.9,28.0 L686.2,228.5 L702.4,231.3 L718.7,231.3 L735.0,231.3 L751.2,232.0 L767.5,214.7 L783.7,123.8 L800.0,232.0 L800.0,232.0 L52.0,232.0Z" fill="#4e79a7" opacity="0.12"/>

  <!-- lines -->
  <polyline points="52.0,232.0 68.3,231.3 84.5,230.6 100.8,232.0 117.0,231.3 133.3,232.0 149.6,232.0 165.8,232.0 182.1,231.3 198.3,232.0 214.6,232.0 230.9,164.0 247.1,227.8 263.4,141.1 279.7,204.9 295.9,220.2 312.2,231.3 328.4,231.3 344.7,231.3 361.0,232.0 377.2,231.3 393.5,232.0 409.7,231.3 426.0,231.3 442.3,231.3 458.5,231.3 474.8,230.6 491.0,231.3 507.3,232.0 523.6,229.9 539.8,231.3 556.1,232.0 572.3,231.3 588.6,232.0 604.9,232.0 621.1,232.0 637.4,232.0 653.7,232.0 669.9,28.0 686.2,228.5 702.4,231.3 718.7,231.3 735.0,231.3 751.2,232.0 767.5,214.7 783.7,123.8 800.0,232.0"
            fill="none" stroke="#4e79a7"
            stroke-width="2" stroke-linejoin="round"/>
  <polyline points="52.0,232.0 68.3,231.3 84.5,230.6 100.8,232.0 117.0,231.3 133.3,232.0 149.6,232.0 165.8,232.0 182.1,231.3 198.3,232.0 214.6,232.0 230.9,215.3 247.1,230.6 263.4,229.2 279.7,231.3 295.9,231.3 312.2,231.3 328.4,231.3 344.7,231.3 361.0,232.0 377.2,231.3 393.5,232.0 409.7,231.3 426.0,231.3 442.3,231.3 458.5,231.3 474.8,230.6 491.0,231.3 507.3,232.0 523.6,230.6 539.8,231.3 556.1,232.0 572.3,231.3 588.6,232.0 604.9,232.0 621.1,232.0 637.4,232.0 653.7,232.0 669.9,223.0 686.2,228.5 702.4,231.3 718.7,231.3 735.0,231.3 751.2,232.0 767.5,230.6 783.7,225.8 800.0,232.0"
            fill="none" stroke="#f28e2b"
            stroke-width="2" stroke-linejoin="round"
            stroke-dasharray="5,3"/>

  <!-- dots -->
  <circle cx="52.0" cy="232.0" r="3" fill="#4e79a7"/><circle cx="68.3" cy="231.3" r="3" fill="#4e79a7"/><circle cx="84.5" cy="230.6" r="3" fill="#4e79a7"/><circle cx="100.8" cy="232.0" r="3" fill="#4e79a7"/><circle cx="117.0" cy="231.3" r="3" fill="#4e79a7"/><circle cx="133.3" cy="232.0" r="3" fill="#4e79a7"/><circle cx="149.6" cy="232.0" r="3" fill="#4e79a7"/><circle cx="165.8" cy="232.0" r="3" fill="#4e79a7"/><circle cx="182.1" cy="231.3" r="3" fill="#4e79a7"/><circle cx="198.3" cy="232.0" r="3" fill="#4e79a7"/><circle cx="214.6" cy="232.0" r="3" fill="#4e79a7"/><circle cx="230.9" cy="164.0" r="3" fill="#4e79a7"/><circle cx="247.1" cy="227.8" r="3" fill="#4e79a7"/><circle cx="263.4" cy="141.1" r="3" fill="#4e79a7"/><circle cx="279.7" cy="204.9" r="3" fill="#4e79a7"/><circle cx="295.9" cy="220.2" r="3" fill="#4e79a7"/><circle cx="312.2" cy="231.3" r="3" fill="#4e79a7"/><circle cx="328.4" cy="231.3" r="3" fill="#4e79a7"/><circle cx="344.7" cy="231.3" r="3" fill="#4e79a7"/><circle cx="361.0" cy="232.0" r="3" fill="#4e79a7"/><circle cx="377.2" cy="231.3" r="3" fill="#4e79a7"/><circle cx="393.5" cy="232.0" r="3" fill="#4e79a7"/><circle cx="409.7" cy="231.3" r="3" fill="#4e79a7"/><circle cx="426.0" cy="231.3" r="3" fill="#4e79a7"/><circle cx="442.3" cy="231.3" r="3" fill="#4e79a7"/><circle cx="458.5" cy="231.3" r="3" fill="#4e79a7"/><circle cx="474.8" cy="230.6" r="3" fill="#4e79a7"/><circle cx="491.0" cy="231.3" r="3" fill="#4e79a7"/><circle cx="507.3" cy="232.0" r="3" fill="#4e79a7"/><circle cx="523.6" cy="229.9" r="3" fill="#4e79a7"/><circle cx="539.8" cy="231.3" r="3" fill="#4e79a7"/><circle cx="556.1" cy="232.0" r="3" fill="#4e79a7"/><circle cx="572.3" cy="231.3" r="3" fill="#4e79a7"/><circle cx="588.6" cy="232.0" r="3" fill="#4e79a7"/><circle cx="604.9" cy="232.0" r="3" fill="#4e79a7"/><circle cx="621.1" cy="232.0" r="3" fill="#4e79a7"/><circle cx="637.4" cy="232.0" r="3" fill="#4e79a7"/><circle cx="653.7" cy="232.0" r="3" fill="#4e79a7"/><circle cx="669.9" cy="28.0" r="3" fill="#4e79a7"/><circle cx="686.2" cy="228.5" r="3" fill="#4e79a7"/><circle cx="702.4" cy="231.3" r="3" fill="#4e79a7"/><circle cx="718.7" cy="231.3" r="3" fill="#4e79a7"/><circle cx="735.0" cy="231.3" r="3" fill="#4e79a7"/><circle cx="751.2" cy="232.0" r="3" fill="#4e79a7"/><circle cx="767.5" cy="214.7" r="3" fill="#4e79a7"/><circle cx="783.7" cy="123.8" r="3" fill="#4e79a7"/><circle cx="800.0" cy="232.0" r="3" fill="#4e79a7"/>
  <circle cx="52.0" cy="232.0" r="3" fill="#f28e2b"/><circle cx="68.3" cy="231.3" r="3" fill="#f28e2b"/><circle cx="84.5" cy="230.6" r="3" fill="#f28e2b"/><circle cx="100.8" cy="232.0" r="3" fill="#f28e2b"/><circle cx="117.0" cy="231.3" r="3" fill="#f28e2b"/><circle cx="133.3" cy="232.0" r="3" fill="#f28e2b"/><circle cx="149.6" cy="232.0" r="3" fill="#f28e2b"/><circle cx="165.8" cy="232.0" r="3" fill="#f28e2b"/><circle cx="182.1" cy="231.3" r="3" fill="#f28e2b"/><circle cx="198.3" cy="232.0" r="3" fill="#f28e2b"/><circle cx="214.6" cy="232.0" r="3" fill="#f28e2b"/><circle cx="230.9" cy="215.3" r="3" fill="#f28e2b"/><circle cx="247.1" cy="230.6" r="3" fill="#f28e2b"/><circle cx="263.4" cy="229.2" r="3" fill="#f28e2b"/><circle cx="279.7" cy="231.3" r="3" fill="#f28e2b"/><circle cx="295.9" cy="231.3" r="3" fill="#f28e2b"/><circle cx="312.2" cy="231.3" r="3" fill="#f28e2b"/><circle cx="328.4" cy="231.3" r="3" fill="#f28e2b"/><circle cx="344.7" cy="231.3" r="3" fill="#f28e2b"/><circle cx="361.0" cy="232.0" r="3" fill="#f28e2b"/><circle cx="377.2" cy="231.3" r="3" fill="#f28e2b"/><circle cx="393.5" cy="232.0" r="3" fill="#f28e2b"/><circle cx="409.7" cy="231.3" r="3" fill="#f28e2b"/><circle cx="426.0" cy="231.3" r="3" fill="#f28e2b"/><circle cx="442.3" cy="231.3" r="3" fill="#f28e2b"/><circle cx="458.5" cy="231.3" r="3" fill="#f28e2b"/><circle cx="474.8" cy="230.6" r="3" fill="#f28e2b"/><circle cx="491.0" cy="231.3" r="3" fill="#f28e2b"/><circle cx="507.3" cy="232.0" r="3" fill="#f28e2b"/><circle cx="523.6" cy="230.6" r="3" fill="#f28e2b"/><circle cx="539.8" cy="231.3" r="3" fill="#f28e2b"/><circle cx="556.1" cy="232.0" r="3" fill="#f28e2b"/><circle cx="572.3" cy="231.3" r="3" fill="#f28e2b"/><circle cx="588.6" cy="232.0" r="3" fill="#f28e2b"/><circle cx="604.9" cy="232.0" r="3" fill="#f28e2b"/><circle cx="621.1" cy="232.0" r="3" fill="#f28e2b"/><circle cx="637.4" cy="232.0" r="3" fill="#f28e2b"/><circle cx="653.7" cy="232.0" r="3" fill="#f28e2b"/><circle cx="669.9" cy="223.0" r="3" fill="#f28e2b"/><circle cx="686.2" cy="228.5" r="3" fill="#f28e2b"/><circle cx="702.4" cy="231.3" r="3" fill="#f28e2b"/><circle cx="718.7" cy="231.3" r="3" fill="#f28e2b"/><circle cx="735.0" cy="231.3" r="3" fill="#f28e2b"/><circle cx="751.2" cy="232.0" r="3" fill="#f28e2b"/><circle cx="767.5" cy="230.6" r="3" fill="#f28e2b"/><circle cx="783.7" cy="225.8" r="3" fill="#f28e2b"/><circle cx="800.0" cy="232.0" r="3" fill="#f28e2b"/>

  <!-- axes -->
  <line x1="52" y1="28" x2="52" y2="232"
        stroke="#cccccc" stroke-width="1"/>
  <line x1="52" y1="232" x2="800" y2="232"
        stroke="#cccccc" stroke-width="1"/>

  <!-- y-axis labels -->
  <text x="47" y="236.0" text-anchor="end" font-size="10" fill="#57606a" font-family="ui-monospace, SFMono-Regular, 'SF Mono', Menlo, monospace">0</text><text x="47" y="194.4" text-anchor="end" font-size="10" fill="#57606a" font-family="ui-monospace, SFMono-Regular, 'SF Mono', Menlo, monospace">60</text><text x="47" y="152.7" text-anchor="end" font-size="10" fill="#57606a" font-family="ui-monospace, SFMono-Regular, 'SF Mono', Menlo, monospace">120</text><text x="47" y="111.1" text-anchor="end" font-size="10" fill="#57606a" font-family="ui-monospace, SFMono-Regular, 'SF Mono', Menlo, monospace">180</text><text x="47" y="69.5" text-anchor="end" font-size="10" fill="#57606a" font-family="ui-monospace, SFMono-Regular, 'SF Mono', Menlo, monospace">240</text><text x="47" y="27.8" text-anchor="end" font-size="10" fill="#57606a" font-family="ui-monospace, SFMono-Regular, 'SF Mono', Menlo, monospace">300</text>

  <!-- x-axis labels -->
  <text x="52.0" y="248" text-anchor="middle" font-size="10" fill="#8c959f" font-family="ui-monospace, SFMono-Regular, 'SF Mono', Menlo, monospace">05-11</text><text x="621.1" y="248" text-anchor="middle" font-size="10" fill="#8c959f" font-family="ui-monospace, SFMono-Regular, 'SF Mono', Menlo, monospace">06-15</text><text x="133.3" y="248" text-anchor="middle" font-size="10" fill="#8c959f" font-family="ui-monospace, SFMono-Regular, 'SF Mono', Menlo, monospace">05-16</text><text x="702.4" y="248" text-anchor="middle" font-size="10" fill="#8c959f" font-family="ui-monospace, SFMono-Regular, 'SF Mono', Menlo, monospace">06-20</text><text x="214.6" y="248" text-anchor="middle" font-size="10" fill="#8c959f" font-family="ui-monospace, SFMono-Regular, 'SF Mono', Menlo, monospace">05-21</text><text x="783.7" y="248" text-anchor="middle" font-size="10" fill="#8c959f" font-family="ui-monospace, SFMono-Regular, 'SF Mono', Menlo, monospace">06-25</text><text x="800.0" y="248" text-anchor="middle" font-size="10" fill="#8c959f" font-family="ui-monospace, SFMono-Regular, 'SF Mono', Menlo, monospace">06-26</text><text x="295.9" y="248" text-anchor="middle" font-size="10" fill="#8c959f" font-family="ui-monospace, SFMono-Regular, 'SF Mono', Menlo, monospace">05-26</text><text x="377.2" y="248" text-anchor="middle" font-size="10" fill="#8c959f" font-family="ui-monospace, SFMono-Regular, 'SF Mono', Menlo, monospace">05-31</text><text x="458.5" y="248" text-anchor="middle" font-size="10" fill="#8c959f" font-family="ui-monospace, SFMono-Regular, 'SF Mono', Menlo, monospace">06-05</text><text x="539.8" y="248" text-anchor="middle" font-size="10" fill="#8c959f" font-family="ui-monospace, SFMono-Regular, 'SF Mono', Menlo, monospace">06-10</text>

  <!-- legend -->
  <rect x="60" y="262" width="16" height="3" fill="#4e79a7" rx="1"/><text x="80" y="268" font-size="11" fill="#57606a" font-family="-apple-system, BlinkMacSystemFont, 'Segoe UI', sans-serif">Total clones (795)</text><line x1="230" y1="264" x2="246" y2="264" stroke="#f28e2b" stroke-width="2" stroke-dasharray="5,3"/><text x="250" y="268" font-size="11" fill="#57606a" font-family="-apple-system, BlinkMacSystemFont, 'Segoe UI', sans-serif">Unique cloners</text>

</svg>