<svg xmlns="http://www.w3.org/2000/svg" viewBox="0 0 820 280" width="820" height="280">

  <!-- title -->
  <text x="52" y="18" font-size="13" font-weight="600"
        fill="#24292f" font-family="-apple-system, BlinkMacSystemFont, 'Segoe UI', sans-serif"
        >Clone traffic — dir-sync</text>
  <text x="800" y="18" font-size="10" fill="#8c959f"
        font-family="ui-monospace, SFMono-Regular, 'SF Mono', Menlo, monospace" text-anchor="end">2026-06-24</text>

  <!-- grid -->
  <line x1="52" y1="232.0" x2="800" y2="232.0" stroke="#e8e8e8" stroke-width="1"/><line x1="52" y1="190.4" x2="800" y2="190.4" stroke="#e8e8e8" stroke-width="1"/><line x1="52" y1="148.7" x2="800" y2="148.7" stroke="#e8e8e8" stroke-width="1"/><line x1="52" y1="107.1" x2="800" y2="107.1" stroke="#e8e8e8" stroke-width="1"/><line x1="52" y1="65.5" x2="800" y2="65.5" stroke="#e8e8e8" stroke-width="1"/><line x1="52" y1="23.8" x2="800" y2="23.8" stroke="#e8e8e8" stroke-width="1"/>

  <!-- area fill -->
  <path d="M52.0,232.0 L52.0,232.0 L69.8,231.3 L87.6,230.6 L105.4,232.0 L123.2,231.3 L141.0,232.0 L158.9,232.0 L176.7,232.0 L194.5,231.3 L212.3,232.0 L230.1,232.0 L247.9,164.0 L265.7,227.8 L283.5,141.1 L301.3,204.9 L319.1,220.2 L337.0,231.3 L354.8,231.3 L372.6,231.3 L390.4,232.0 L408.2,231.3 L426.0,232.0 L443.8,231.3 L461.6,231.3 L479.4,231.3 L497.2,231.3 L515.0,230.6 L532.9,231.3 L550.7,232.0 L568.5,229.9 L586.3,231.3 L604.1,232.0 L621.9,231.3 L639.7,232.0 L657.5,232.0 L675.3,232.0 L693.1,232.0 L711.0,232.0 L728.8,28.0 L746.6,228.5 L764.4,231.3 L782.2,231.3 L800.0,231.3 L800.0,232.0 L52.0,232.0Z" fill="#4e79a7" opacity="0.12"/>

  <!-- lines -->
  <polyline points="52.0,232.0 69.8,231.3 87.6,230.6 105.4,232.0 123.2,231.3 141.0,232.0 158.9,232.0 176.7,232.0 194.5,231.3 212.3,232.0 230.1,232.0 247.9,164.0 265.7,227.8 283.5,141.1 301.3,204.9 319.1,220.2 337.0,231.3 354.8,231.3 372.6,231.3 390.4,232.0 408.2,231.3 426.0,232.0 443.8,231.3 461.6,231.3 479.4,231.3 497.2,231.3 515.0,230.6 532.9,231.3 550.7,232.0 568.5,229.9 586.3,231.3 604.1,232.0 621.9,231.3 639.7,232.0 657.5,232.0 675.3,232.0 693.1,232.0 711.0,232.0 728.8,28.0 746.6,228.5 764.4,231.3 782.2,231.3 800.0,231.3"
            fill="none" stroke="#4e79a7"
            stroke-width="2" stroke-linejoin="round"/>
  <polyline points="52.0,232.0 69.8,231.3 87.6,230.6 105.4,232.0 123.2,231.3 141.0,232.0 158.9,232.0 176.7,232.0 194.5,231.3 212.3,232.0 230.1,232.0 247.9,215.3 265.7,230.6 283.5,229.2 301.3,231.3 319.1,231.3 337.0,231.3 354.8,231.3 372.6,231.3 390.4,232.0 408.2,231.3 426.0,232.0 443.8,231.3 461.6,231.3 479.4,231.3 497.2,231.3 515.0,230.6 532.9,231.3 550.7,232.0 568.5,230.6 586.3,231.3 604.1,232.0 621.9,231.3 639.7,232.0 657.5,232.0 675.3,232.0 693.1,232.0 711.0,232.0 728.8,223.0 746.6,228.5 764.4,231.3 782.2,231.3 800.0,231.3"
            fill="none" stroke="#f28e2b"
            stroke-width="2" stroke-linejoin="round"
            stroke-dasharray="5,3"/>

  <!-- dots -->
  <circle cx="52.0" cy="232.0" r="3" fill="#4e79a7"/><circle cx="69.8" cy="231.3" r="3" fill="#4e79a7"/><circle cx="87.6" cy="230.6" r="3" fill="#4e79a7"/><circle cx="105.4" cy="232.0" r="3" fill="#4e79a7"/><circle cx="123.2" cy="231.3" r="3" fill="#4e79a7"/><circle cx="141.0" cy="232.0" r="3" fill="#4e79a7"/><circle cx="158.9" cy="232.0" r="3" fill="#4e79a7"/><circle cx="176.7" cy="232.0" r="3" fill="#4e79a7"/><circle cx="194.5" cy="231.3" r="3" fill="#4e79a7"/><circle cx="212.3" cy="232.0" r="3" fill="#4e79a7"/><circle cx="230.1" cy="232.0" r="3" fill="#4e79a7"/><circle cx="247.9" cy="164.0" r="3" fill="#4e79a7"/><circle cx="265.7" cy="227.8" r="3" fill="#4e79a7"/><circle cx="283.5" cy="141.1" r="3" fill="#4e79a7"/><circle cx="301.3" cy="204.9" r="3" fill="#4e79a7"/><circle cx="319.1" cy="220.2" r="3" fill="#4e79a7"/><circle cx="337.0" cy="231.3" r="3" fill="#4e79a7"/><circle cx="354.8" cy="231.3" r="3" fill="#4e79a7"/><circle cx="372.6" cy="231.3" r="3" fill="#4e79a7"/><circle cx="390.4" cy="232.0" r="3" fill="#4e79a7"/><circle cx="408.2" cy="231.3" r="3" fill="#4e79a7"/><circle cx="426.0" cy="232.0" r="3" fill="#4e79a7"/><circle cx="443.8" cy="231.3" r="3" fill="#4e79a7"/><circle cx="461.6" cy="231.3" r="3" fill="#4e79a7"/><circle cx="479.4" cy="231.3" r="3" fill="#4e79a7"/><circle cx="497.2" cy="231.3" r="3" fill="#4e79a7"/><circle cx="515.0" cy="230.6" r="3" fill="#4e79a7"/><circle cx="532.9" cy="231.3" r="3" fill="#4e79a7"/><circle cx="550.7" cy="232.0" r="3" fill="#4e79a7"/><circle cx="568.5" cy="229.9" r="3" fill="#4e79a7"/><circle cx="586.3" cy="231.3" r="3" fill="#4e79a7"/><circle cx="604.1" cy="232.0" r="3" fill="#4e79a7"/><circle cx="621.9" cy="231.3" r="3" fill="#4e79a7"/><circle cx="639.7" cy="232.0" r="3" fill="#4e79a7"/><circle cx="657.5" cy="232.0" r="3" fill="#4e79a7"/><circle cx="675.3" cy="232.0" r="3" fill="#4e79a7"/><circle cx="693.1" cy="232.0" r="3" fill="#4e79a7"/><circle cx="711.0" cy="232.0" r="3" fill="#4e79a7"/><circle cx="728.8" cy="28.0" r="3" fill="#4e79a7"/><circle cx="746.6" cy="228.5" r="3" fill="#4e79a7"/><circle cx="764.4" cy="231.3" r="3" fill="#4e79a7"/><circle cx="782.2" cy="231.3" r="3" fill="#4e79a7"/><circle cx="800.0" cy="231.3" r="3" fill="#4e79a7"/>
  <circle cx="52.0" cy="232.0" r="3" fill="#f28e2b"/><circle cx="69.8" cy="231.3" r="3" fill="#f28e2b"/><circle cx="87.6" cy="230.6" r="3" fill="#f28e2b"/><circle cx="105.4" cy="232.0" r="3" fill="#f28e2b"/><circle cx="123.2" cy="231.3" r="3" fill="#f28e2b"/><circle cx="141.0" cy="232.0" r="3" fill="#f28e2b"/><circle cx="158.9" cy="232.0" r="3" fill="#f28e2b"/><circle cx="176.7" cy="232.0" r="3" fill="#f28e2b"/><circle cx="194.5" cy="231.3" r="3" fill="#f28e2b"/><circle cx="212.3" cy="232.0" r="3" fill="#f28e2b"/><circle cx="230.1" cy="232.0" r="3" fill="#f28e2b"/><circle cx="247.9" cy="215.3" r="3" fill="#f28e2b"/><circle cx="265.7" cy="230.6" r="3" fill="#f28e2b"/><circle cx="283.5" cy="229.2" r="3" fill="#f28e2b"/><circle cx="301.3" cy="231.3" r="3" fill="#f28e2b"/><circle cx="319.1" cy="231.3" r="3" fill="#f28e2b"/><circle cx="337.0" cy="231.3" r="3" fill="#f28e2b"/><circle cx="354.8" cy="231.3" r="3" fill="#f28e2b"/><circle cx="372.6" cy="231.3" r="3" fill="#f28e2b"/><circle cx="390.4" cy="232.0" r="3" fill="#f28e2b"/><circle cx="408.2" cy="231.3" r="3" fill="#f28e2b"/><circle cx="426.0" cy="232.0" r="3" fill="#f28e2b"/><circle cx="443.8" cy="231.3" r="3" fill="#f28e2b"/><circle cx="461.6" cy="231.3" r="3" fill="#f28e2b"/><circle cx="479.4" cy="231.3" r="3" fill="#f28e2b"/><circle cx="497.2" cy="231.3" r="3" fill="#f28e2b"/><circle cx="515.0" cy="230.6" r="3" fill="#f28e2b"/><circle cx="532.9" cy="231.3" r="3" fill="#f28e2b"/><circle cx="550.7" cy="232.0" r="3" fill="#f28e2b"/><circle cx="568.5" cy="230.6" r="3" fill="#f28e2b"/><circle cx="586.3" cy="231.3" r="3" fill="#f28e2b"/><circle cx="604.1" cy="232.0" r="3" fill="#f28e2b"/><circle cx="621.9" cy="231.3" r="3" fill="#f28e2b"/><circle cx="639.7" cy="232.0" r="3" fill="#f28e2b"/><circle cx="657.5" cy="232.0" r="3" fill="#f28e2b"/><circle cx="675.3" cy="232.0" r="3" fill="#f28e2b"/><circle cx="693.1" cy="232.0" r="3" fill="#f28e2b"/><circle cx="711.0" cy="232.0" r="3" fill="#f28e2b"/><circle cx="728.8" cy="223.0" r="3" fill="#f28e2b"/><circle cx="746.6" cy="228.5" r="3" fill="#f28e2b"/><circle cx="764.4" cy="231.3" r="3" fill="#f28e2b"/><circle cx="782.2" cy="231.3" r="3" fill="#f28e2b"/><circle cx="800.0" cy="231.3" r="3" fill="#f28e2b"/>

  <!-- axes -->
  <line x1="52" y1="28" x2="52" y2="232"
        stroke="#cccccc" stroke-width="1"/>
  <line x1="52" y1="232" x2="800" y2="232"
        stroke="#cccccc" stroke-width="1"/>

  <!-- y-axis labels -->
  <text x="47" y="236.0" text-anchor="end" font-size="10" fill="#57606a" font-family="ui-monospace, SFMono-Regular, 'SF Mono', Menlo, monospace">0</text><text x="47" y="194.4" text-anchor="end" font-size="10" fill="#57606a" font-family="ui-monospace, SFMono-Regular, 'SF Mono', Menlo, monospace">60</text><text x="47" y="152.7" text-anchor="end" font-size="10" fill="#57606a" font-family="ui-monospace, SFMono-Regular, 'SF Mono', Menlo, monospace">120</text><text x="47" y="111.1" text-anchor="end" font-size="10" fill="#57606a" font-family="ui-monospace, SFMono-Regular, 'SF Mono', Menlo, monospace">180</text><text x="47" y="69.5" text-anchor="end" font-size="10" fill="#57606a" font-family="ui-monospace, SFMono-Regular, 'SF Mono', Menlo, monospace">240</text><text x="47" y="27.8" text-anchor="end" font-size="10" fill="#57606a" font-family="ui-monospace, SFMono-Regular, 'SF Mono', Menlo, monospace">300</text>

  <!-- x-axis labels -->
  <text x="52.0" y="248" text-anchor="middle" font-size="10" fill="#8c959f" font-family="ui-monospace, SFMono-Regular, 'SF Mono', Menlo, monospace">05-11</text><text x="675.3" y="248" text-anchor="middle" font-size="10" fill="#8c959f" font-family="ui-monospace, SFMono-Regular, 'SF Mono', Menlo, monospace">06-15</text><text x="141.0" y="248" text-anchor="middle" font-size="10" fill="#8c959f" font-family="ui-monospace, SFMono-Regular, 'SF Mono', Menlo, monospace">05-16</text><text x="764.4" y="248" text-anchor="middle" font-size="10" fill="#8c959f" font-family="ui-monospace, SFMono-Regular, 'SF Mono', Menlo, monospace">06-20</text><text x="230.1" y="248" text-anchor="middle" font-size="10" fill="#8c959f" font-family="ui-monospace, SFMono-Regular, 'SF Mono', Menlo, monospace">05-21</text><text x="800.0" y="248" text-anchor="middle" font-size="10" fill="#8c959f" font-family="ui-monospace, SFMono-Regular, 'SF Mono', Menlo, monospace">06-22</text><text x="319.1" y="248" text-anchor="middle" font-size="10" fill="#8c959f" font-family="ui-monospace, SFMono-Regular, 'SF Mono', Menlo, monospace">05-26</text><text x="408.2" y="248" text-anchor="middle" font-size="10" fill="#8c959f" font-family="ui-monospace, SFMono-Regular, 'SF Mono', Menlo, monospace">05-31</text><text x="497.2" y="248" text-anchor="middle" font-size="10" fill="#8c959f" font-family="ui-monospace, SFMono-Regular, 'SF Mono', Menlo, monospace">06-05</text><text x="586.3" y="248" text-anchor="middle" font-size="10" fill="#8c959f" font-family="ui-monospace, SFMono-Regular, 'SF Mono', Menlo, monospace">06-10</text>

  <!-- legend -->
  <rect x="60" y="262" width="16" height="3" fill="#4e79a7" rx="1"/><text x="80" y="268" font-size="11" fill="#57606a" font-family="-apple-system, BlinkMacSystemFont, 'Segoe UI', sans-serif">Total clones (614)</text><line x1="230" y1="264" x2="246" y2="264" stroke="#f28e2b" stroke-width="2" stroke-dasharray="5,3"/><text x="250" y="268" font-size="11" fill="#57606a" font-family="-apple-system, BlinkMacSystemFont, 'Segoe UI', sans-serif">Unique cloners</text>

</svg>