<svg xmlns="http://www.w3.org/2000/svg" viewBox="0 0 820 280" width="820" height="280">

  <!-- title -->
  <text x="52" y="18" font-size="13" font-weight="600"
        fill="#24292f" font-family="-apple-system, BlinkMacSystemFont, 'Segoe UI', sans-serif"
        >Clone traffic — dir-sync</text>
  <text x="800" y="18" font-size="10" fill="#8c959f"
        font-family="ui-monospace, SFMono-Regular, 'SF Mono', Menlo, monospace" text-anchor="end">2026-06-13</text>

  <!-- grid -->
  <line x1="52" y1="232.0" x2="800" y2="232.0" stroke="#e8e8e8" stroke-width="1"/><line x1="52" y1="185.3" x2="800" y2="185.3" stroke="#e8e8e8" stroke-width="1"/><line x1="52" y1="138.6" x2="800" y2="138.6" stroke="#e8e8e8" stroke-width="1"/><line x1="52" y1="91.8" x2="800" y2="91.8" stroke="#e8e8e8" stroke-width="1"/><line x1="52" y1="45.1" x2="800" y2="45.1" stroke="#e8e8e8" stroke-width="1"/><line x1="52" y1="-1.6" x2="800" y2="-1.6" stroke="#e8e8e8" stroke-width="1"/>

  <!-- area fill -->
  <path d="M52.0,232.0 L52.0,232.0 L76.9,230.4 L101.9,228.9 L126.8,232.0 L151.7,230.4 L176.7,232.0 L201.6,232.0 L226.5,232.0 L251.5,230.4 L276.4,232.0 L301.3,232.0 L326.3,79.4 L351.2,222.7 L376.1,28.0 L401.1,171.3 L426.0,205.5 L450.9,230.4 L475.9,230.4 L500.8,230.4 L525.7,232.0 L550.7,230.4 L575.6,232.0 L600.5,230.4 L625.5,230.4 L650.4,230.4 L675.3,230.4 L700.3,228.9 L725.2,230.4 L750.1,232.0 L775.1,227.3 L800.0,230.4 L800.0,232.0 L52.0,232.0Z" fill="#4e79a7" opacity="0.12"/>

  <!-- lines -->
  <polyline points="52.0,232.0 76.9,230.4 101.9,228.9 126.8,232.0 151.7,230.4 176.7,232.0 201.6,232.0 226.5,232.0 251.5,230.4 276.4,232.0 301.3,232.0 326.3,79.4 351.2,222.7 376.1,28.0 401.1,171.3 426.0,205.5 450.9,230.4 475.9,230.4 500.8,230.4 525.7,232.0 550.7,230.4 575.6,232.0 600.5,230.4 625.5,230.4 650.4,230.4 675.3,230.4 700.3,228.9 725.2,230.4 750.1,232.0 775.1,227.3 800.0,230.4"
            fill="none" stroke="#4e79a7"
            stroke-width="2" stroke-linejoin="round"/>
  <polyline points="52.0,232.0 76.9,230.4 101.9,228.9 126.8,232.0 151.7,230.4 176.7,232.0 201.6,232.0 226.5,232.0 251.5,230.4 276.4,232.0 301.3,232.0 326.3,194.6 351.2,228.9 376.1,225.8 401.1,230.4 426.0,230.4 450.9,230.4 475.9,230.4 500.8,230.4 525.7,232.0 550.7,230.4 575.6,232.0 600.5,230.4 625.5,230.4 650.4,230.4 675.3,230.4 700.3,228.9 725.2,230.4 750.1,232.0 775.1,228.9 800.0,230.4"
            fill="none" stroke="#f28e2b"
            stroke-width="2" stroke-linejoin="round"
            stroke-dasharray="5,3"/>

  <!-- dots -->
  <circle cx="52.0" cy="232.0" r="3" fill="#4e79a7"/><circle cx="76.9" cy="230.4" r="3" fill="#4e79a7"/><circle cx="101.9" cy="228.9" r="3" fill="#4e79a7"/><circle cx="126.8" cy="232.0" r="3" fill="#4e79a7"/><circle cx="151.7" cy="230.4" r="3" fill="#4e79a7"/><circle cx="176.7" cy="232.0" r="3" fill="#4e79a7"/><circle cx="201.6" cy="232.0" r="3" fill="#4e79a7"/><circle cx="226.5" cy="232.0" r="3" fill="#4e79a7"/><circle cx="251.5" cy="230.4" r="3" fill="#4e79a7"/><circle cx="276.4" cy="232.0" r="3" fill="#4e79a7"/><circle cx="301.3" cy="232.0" r="3" fill="#4e79a7"/><circle cx="326.3" cy="79.4" r="3" fill="#4e79a7"/><circle cx="351.2" cy="222.7" r="3" fill="#4e79a7"/><circle cx="376.1" cy="28.0" r="3" fill="#4e79a7"/><circle cx="401.1" cy="171.3" r="3" fill="#4e79a7"/><circle cx="426.0" cy="205.5" r="3" fill="#4e79a7"/><circle cx="450.9" cy="230.4" r="3" fill="#4e79a7"/><circle cx="475.9" cy="230.4" r="3" fill="#4e79a7"/><circle cx="500.8" cy="230.4" r="3" fill="#4e79a7"/><circle cx="525.7" cy="232.0" r="3" fill="#4e79a7"/><circle cx="550.7" cy="230.4" r="3" fill="#4e79a7"/><circle cx="575.6" cy="232.0" r="3" fill="#4e79a7"/><circle cx="600.5" cy="230.4" r="3" fill="#4e79a7"/><circle cx="625.5" cy="230.4" r="3" fill="#4e79a7"/><circle cx="650.4" cy="230.4" r="3" fill="#4e79a7"/><circle cx="675.3" cy="230.4" r="3" fill="#4e79a7"/><circle cx="700.3" cy="228.9" r="3" fill="#4e79a7"/><circle cx="725.2" cy="230.4" r="3" fill="#4e79a7"/><circle cx="750.1" cy="232.0" r="3" fill="#4e79a7"/><circle cx="775.1" cy="227.3" r="3" fill="#4e79a7"/><circle cx="800.0" cy="230.4" r="3" fill="#4e79a7"/>
  <circle cx="52.0" cy="232.0" r="3" fill="#f28e2b"/><circle cx="76.9" cy="230.4" r="3" fill="#f28e2b"/><circle cx="101.9" cy="228.9" r="3" fill="#f28e2b"/><circle cx="126.8" cy="232.0" r="3" fill="#f28e2b"/><circle cx="151.7" cy="230.4" r="3" fill="#f28e2b"/><circle cx="176.7" cy="232.0" r="3" fill="#f28e2b"/><circle cx="201.6" cy="232.0" r="3" fill="#f28e2b"/><circle cx="226.5" cy="232.0" r="3" fill="#f28e2b"/><circle cx="251.5" cy="230.4" r="3" fill="#f28e2b"/><circle cx="276.4" cy="232.0" r="3" fill="#f28e2b"/><circle cx="301.3" cy="232.0" r="3" fill="#f28e2b"/><circle cx="326.3" cy="194.6" r="3" fill="#f28e2b"/><circle cx="351.2" cy="228.9" r="3" fill="#f28e2b"/><circle cx="376.1" cy="225.8" r="3" fill="#f28e2b"/><circle cx="401.1" cy="230.4" r="3" fill="#f28e2b"/><circle cx="426.0" cy="230.4" r="3" fill="#f28e2b"/><circle cx="450.9" cy="230.4" r="3" fill="#f28e2b"/><circle cx="475.9" cy="230.4" r="3" fill="#f28e2b"/><circle cx="500.8" cy="230.4" r="3" fill="#f28e2b"/><circle cx="525.7" cy="232.0" r="3" fill="#f28e2b"/><circle cx="550.7" cy="230.4" r="3" fill="#f28e2b"/><circle cx="575.6" cy="232.0" r="3" fill="#f28e2b"/><circle cx="600.5" cy="230.4" r="3" fill="#f28e2b"/><circle cx="625.5" cy="230.4" r="3" fill="#f28e2b"/><circle cx="650.4" cy="230.4" r="3" fill="#f28e2b"/><circle cx="675.3" cy="230.4" r="3" fill="#f28e2b"/><circle cx="700.3" cy="228.9" r="3" fill="#f28e2b"/><circle cx="725.2" cy="230.4" r="3" fill="#f28e2b"/><circle cx="750.1" cy="232.0" r="3" fill="#f28e2b"/><circle cx="775.1" cy="228.9" r="3" fill="#f28e2b"/><circle cx="800.0" cy="230.4" r="3" fill="#f28e2b"/>

  <!-- axes -->
  <line x1="52" y1="28" x2="52" y2="232"
        stroke="#cccccc" stroke-width="1"/>
  <line x1="52" y1="232" x2="800" y2="232"
        stroke="#cccccc" stroke-width="1"/>

  <!-- y-axis labels -->
  <text x="47" y="236.0" text-anchor="end" font-size="10" fill="#57606a" font-family="ui-monospace, SFMono-Regular, 'SF Mono', Menlo, monospace">0</text><text x="47" y="189.3" text-anchor="end" font-size="10" fill="#57606a" font-family="ui-monospace, SFMono-Regular, 'SF Mono', Menlo, monospace">30</text><text x="47" y="142.6" text-anchor="end" font-size="10" fill="#57606a" font-family="ui-monospace, SFMono-Regular, 'SF Mono', Menlo, monospace">60</text><text x="47" y="95.8" text-anchor="end" font-size="10" fill="#57606a" font-family="ui-monospace, SFMono-Regular, 'SF Mono', Menlo, monospace">90</text><text x="47" y="49.1" text-anchor="end" font-size="10" fill="#57606a" font-family="ui-monospace, SFMono-Regular, 'SF Mono', Menlo, monospace">120</text><text x="47" y="2.4" text-anchor="end" font-size="10" fill="#57606a" font-family="ui-monospace, SFMono-Regular, 'SF Mono', Menlo, monospace">150</text>

  <!-- x-axis labels -->
  <text x="52.0" y="248" text-anchor="middle" font-size="10" fill="#8c959f" font-family="ui-monospace, SFMono-Regular, 'SF Mono', Menlo, monospace">05-11</text><text x="126.8" y="248" text-anchor="middle" font-size="10" fill="#8c959f" font-family="ui-monospace, SFMono-Regular, 'SF Mono', Menlo, monospace">05-14</text><text x="201.6" y="248" text-anchor="middle" font-size="10" fill="#8c959f" font-family="ui-monospace, SFMono-Regular, 'SF Mono', Menlo, monospace">05-17</text><text x="276.4" y="248" text-anchor="middle" font-size="10" fill="#8c959f" font-family="ui-monospace, SFMono-Regular, 'SF Mono', Menlo, monospace">05-20</text><text x="351.2" y="248" text-anchor="middle" font-size="10" fill="#8c959f" font-family="ui-monospace, SFMono-Regular, 'SF Mono', Menlo, monospace">05-23</text><text x="426.0" y="248" text-anchor="middle" font-size="10" fill="#8c959f" font-family="ui-monospace, SFMono-Regular, 'SF Mono', Menlo, monospace">05-26</text><text x="500.8" y="248" text-anchor="middle" font-size="10" fill="#8c959f" font-family="ui-monospace, SFMono-Regular, 'SF Mono', Menlo, monospace">05-29</text><text x="575.6" y="248" text-anchor="middle" font-size="10" fill="#8c959f" font-family="ui-monospace, SFMono-Regular, 'SF Mono', Menlo, monospace">06-01</text><text x="650.4" y="248" text-anchor="middle" font-size="10" fill="#8c959f" font-family="ui-monospace, SFMono-Regular, 'SF Mono', Menlo, monospace">06-04</text><text x="725.2" y="248" text-anchor="middle" font-size="10" fill="#8c959f" font-family="ui-monospace, SFMono-Regular, 'SF Mono', Menlo, monospace">06-07</text><text x="800.0" y="248" text-anchor="middle" font-size="10" fill="#8c959f" font-family="ui-monospace, SFMono-Regular, 'SF Mono', Menlo, monospace">06-10</text>

  <!-- legend -->
  <rect x="60" y="262" width="16" height="3" fill="#4e79a7" rx="1"/><text x="80" y="268" font-size="11" fill="#57606a" font-family="-apple-system, BlinkMacSystemFont, 'Segoe UI', sans-serif">Total clones (311)</text><line x1="230" y1="264" x2="246" y2="264" stroke="#f28e2b" stroke-width="2" stroke-dasharray="5,3"/><text x="250" y="268" font-size="11" fill="#57606a" font-family="-apple-system, BlinkMacSystemFont, 'Segoe UI', sans-serif">Unique cloners</text>

</svg>