<svg xmlns="http://www.w3.org/2000/svg" viewBox="0 0 820 280" width="820" height="280">

  <!-- title -->
  <text x="52" y="18" font-size="13" font-weight="600"
        fill="#24292f" font-family="-apple-system, BlinkMacSystemFont, 'Segoe UI', sans-serif"
        >Clone traffic — distrodeck</text>
  <text x="800" y="18" font-size="10" fill="#8c959f"
        font-family="ui-monospace, SFMono-Regular, 'SF Mono', Menlo, monospace" text-anchor="end">2026-07-11</text>

  <!-- grid -->
  <line x1="52" y1="232.0" x2="800" y2="232.0" stroke="#e8e8e8" stroke-width="1"/><line x1="52" y1="182.2" x2="800" y2="182.2" stroke="#e8e8e8" stroke-width="1"/><line x1="52" y1="132.5" x2="800" y2="132.5" stroke="#e8e8e8" stroke-width="1"/><line x1="52" y1="82.7" x2="800" y2="82.7" stroke="#e8e8e8" stroke-width="1"/><line x1="52" y1="33.0" x2="800" y2="33.0" stroke="#e8e8e8" stroke-width="1"/><line x1="52" y1="-16.8" x2="800" y2="-16.8" stroke="#e8e8e8" stroke-width="1"/>

  <!-- area fill -->
  <path d="M52.0,232.0 L52.0,232.0 L64.7,229.5 L77.4,227.0 L90.0,232.0 L102.7,219.6 L115.4,232.0 L128.1,229.5 L140.7,232.0 L153.4,224.5 L166.1,232.0 L178.8,232.0 L191.5,232.0 L204.1,232.0 L216.8,232.0 L229.5,232.0 L242.2,232.0 L254.8,232.0 L267.5,232.0 L280.2,232.0 L292.9,232.0 L305.6,219.6 L318.2,229.5 L330.9,229.5 L343.6,232.0 L356.3,232.0 L368.9,232.0 L381.6,232.0 L394.3,232.0 L407.0,229.5 L419.7,227.0 L432.3,229.5 L445.0,232.0 L457.7,232.0 L470.4,232.0 L483.1,232.0 L495.7,232.0 L508.4,232.0 L521.1,229.5 L533.8,202.1 L546.4,227.0 L559.1,229.5 L571.8,219.6 L584.5,122.5 L597.2,232.0 L609.8,120.0 L622.5,28.0 L635.2,187.2 L647.9,219.6 L660.5,229.5 L673.2,227.0 L685.9,229.5 L698.6,229.5 L711.3,232.0 L723.9,227.0 L736.6,227.0 L749.3,229.5 L762.0,232.0 L774.6,209.6 L787.3,232.0 L800.0,204.6 L800.0,232.0 L52.0,232.0Z" fill="#4e79a7" opacity="0.12"/>

  <!-- lines -->
  <polyline points="52.0,232.0 64.7,229.5 77.4,227.0 90.0,232.0 102.7,219.6 115.4,232.0 128.1,229.5 140.7,232.0 153.4,224.5 166.1,232.0 178.8,232.0 191.5,232.0 204.1,232.0 216.8,232.0 229.5,232.0 242.2,232.0 254.8,232.0 267.5,232.0 280.2,232.0 292.9,232.0 305.6,219.6 318.2,229.5 330.9,229.5 343.6,232.0 356.3,232.0 368.9,232.0 381.6,232.0 394.3,232.0 407.0,229.5 419.7,227.0 432.3,229.5 445.0,232.0 457.7,232.0 470.4,232.0 483.1,232.0 495.7,232.0 508.4,232.0 521.1,229.5 533.8,202.1 546.4,227.0 559.1,229.5 571.8,219.6 584.5,122.5 597.2,232.0 609.8,120.0 622.5,28.0 635.2,187.2 647.9,219.6 660.5,229.5 673.2,227.0 685.9,229.5 698.6,229.5 711.3,232.0 723.9,227.0 736.6,227.0 749.3,229.5 762.0,232.0 774.6,209.6 787.3,232.0 800.0,204.6"
            fill="none" stroke="#4e79a7"
            stroke-width="2" stroke-linejoin="round"/>
  <polyline points="52.0,232.0 64.7,229.5 77.4,227.0 90.0,232.0 102.7,229.5 115.4,232.0 128.1,229.5 140.7,232.0 153.4,224.5 166.1,232.0 178.8,232.0 191.5,232.0 204.1,232.0 216.8,232.0 229.5,232.0 242.2,232.0 254.8,232.0 267.5,232.0 280.2,232.0 292.9,232.0 305.6,224.5 318.2,229.5 330.9,229.5 343.6,232.0 356.3,232.0 368.9,232.0 381.6,232.0 394.3,232.0 407.0,229.5 419.7,227.0 432.3,229.5 445.0,232.0 457.7,232.0 470.4,232.0 483.1,232.0 495.7,232.0 508.4,232.0 521.1,229.5 533.8,209.6 546.4,227.0 559.1,229.5 571.8,227.0 584.5,204.6 597.2,232.0 609.8,169.8 622.5,144.9 635.2,207.1 647.9,227.0 660.5,229.5 673.2,227.0 685.9,229.5 698.6,229.5 711.3,232.0 723.9,227.0 736.6,229.5 749.3,229.5 762.0,232.0 774.6,229.5 787.3,232.0 800.0,222.0"
            fill="none" stroke="#f28e2b"
            stroke-width="2" stroke-linejoin="round"
            stroke-dasharray="5,3"/>

  <!-- dots -->
  <circle cx="52.0" cy="232.0" r="3" fill="#4e79a7"/><circle cx="64.7" cy="229.5" r="3" fill="#4e79a7"/><circle cx="77.4" cy="227.0" r="3" fill="#4e79a7"/><circle cx="90.0" cy="232.0" r="3" fill="#4e79a7"/><circle cx="102.7" cy="219.6" r="3" fill="#4e79a7"/><circle cx="115.4" cy="232.0" r="3" fill="#4e79a7"/><circle cx="128.1" cy="229.5" r="3" fill="#4e79a7"/><circle cx="140.7" cy="232.0" r="3" fill="#4e79a7"/><circle cx="153.4" cy="224.5" r="3" fill="#4e79a7"/><circle cx="166.1" cy="232.0" r="3" fill="#4e79a7"/><circle cx="178.8" cy="232.0" r="3" fill="#4e79a7"/><circle cx="191.5" cy="232.0" r="3" fill="#4e79a7"/><circle cx="204.1" cy="232.0" r="3" fill="#4e79a7"/><circle cx="216.8" cy="232.0" r="3" fill="#4e79a7"/><circle cx="229.5" cy="232.0" r="3" fill="#4e79a7"/><circle cx="242.2" cy="232.0" r="3" fill="#4e79a7"/><circle cx="254.8" cy="232.0" r="3" fill="#4e79a7"/><circle cx="267.5" cy="232.0" r="3" fill="#4e79a7"/><circle cx="280.2" cy="232.0" r="3" fill="#4e79a7"/><circle cx="292.9" cy="232.0" r="3" fill="#4e79a7"/><circle cx="305.6" cy="219.6" r="3" fill="#4e79a7"/><circle cx="318.2" cy="229.5" r="3" fill="#4e79a7"/><circle cx="330.9" cy="229.5" r="3" fill="#4e79a7"/><circle cx="343.6" cy="232.0" r="3" fill="#4e79a7"/><circle cx="356.3" cy="232.0" r="3" fill="#4e79a7"/><circle cx="368.9" cy="232.0" r="3" fill="#4e79a7"/><circle cx="381.6" cy="232.0" r="3" fill="#4e79a7"/><circle cx="394.3" cy="232.0" r="3" fill="#4e79a7"/><circle cx="407.0" cy="229.5" r="3" fill="#4e79a7"/><circle cx="419.7" cy="227.0" r="3" fill="#4e79a7"/><circle cx="432.3" cy="229.5" r="3" fill="#4e79a7"/><circle cx="445.0" cy="232.0" r="3" fill="#4e79a7"/><circle cx="457.7" cy="232.0" r="3" fill="#4e79a7"/><circle cx="470.4" cy="232.0" r="3" fill="#4e79a7"/><circle cx="483.1" cy="232.0" r="3" fill="#4e79a7"/><circle cx="495.7" cy="232.0" r="3" fill="#4e79a7"/><circle cx="508.4" cy="232.0" r="3" fill="#4e79a7"/><circle cx="521.1" cy="229.5" r="3" fill="#4e79a7"/><circle cx="533.8" cy="202.1" r="3" fill="#4e79a7"/><circle cx="546.4" cy="227.0" r="3" fill="#4e79a7"/><circle cx="559.1" cy="229.5" r="3" fill="#4e79a7"/><circle cx="571.8" cy="219.6" r="3" fill="#4e79a7"/><circle cx="584.5" cy="122.5" r="3" fill="#4e79a7"/><circle cx="597.2" cy="232.0" r="3" fill="#4e79a7"/><circle cx="609.8" cy="120.0" r="3" fill="#4e79a7"/><circle cx="622.5" cy="28.0" r="3" fill="#4e79a7"/><circle cx="635.2" cy="187.2" r="3" fill="#4e79a7"/><circle cx="647.9" cy="219.6" r="3" fill="#4e79a7"/><circle cx="660.5" cy="229.5" r="3" fill="#4e79a7"/><circle cx="673.2" cy="227.0" r="3" fill="#4e79a7"/><circle cx="685.9" cy="229.5" r="3" fill="#4e79a7"/><circle cx="698.6" cy="229.5" r="3" fill="#4e79a7"/><circle cx="711.3" cy="232.0" r="3" fill="#4e79a7"/><circle cx="723.9" cy="227.0" r="3" fill="#4e79a7"/><circle cx="736.6" cy="227.0" r="3" fill="#4e79a7"/><circle cx="749.3" cy="229.5" r="3" fill="#4e79a7"/><circle cx="762.0" cy="232.0" r="3" fill="#4e79a7"/><circle cx="774.6" cy="209.6" r="3" fill="#4e79a7"/><circle cx="787.3" cy="232.0" r="3" fill="#4e79a7"/><circle cx="800.0" cy="204.6" r="3" fill="#4e79a7"/>
  <circle cx="52.0" cy="232.0" r="3" fill="#f28e2b"/><circle cx="64.7" cy="229.5" r="3" fill="#f28e2b"/><circle cx="77.4" cy="227.0" r="3" fill="#f28e2b"/><circle cx="90.0" cy="232.0" r="3" fill="#f28e2b"/><circle cx="102.7" cy="229.5" r="3" fill="#f28e2b"/><circle cx="115.4" cy="232.0" r="3" fill="#f28e2b"/><circle cx="128.1" cy="229.5" r="3" fill="#f28e2b"/><circle cx="140.7" cy="232.0" r="3" fill="#f28e2b"/><circle cx="153.4" cy="224.5" r="3" fill="#f28e2b"/><circle cx="166.1" cy="232.0" r="3" fill="#f28e2b"/><circle cx="178.8" cy="232.0" r="3" fill="#f28e2b"/><circle cx="191.5" cy="232.0" r="3" fill="#f28e2b"/><circle cx="204.1" cy="232.0" r="3" fill="#f28e2b"/><circle cx="216.8" cy="232.0" r="3" fill="#f28e2b"/><circle cx="229.5" cy="232.0" r="3" fill="#f28e2b"/><circle cx="242.2" cy="232.0" r="3" fill="#f28e2b"/><circle cx="254.8" cy="232.0" r="3" fill="#f28e2b"/><circle cx="267.5" cy="232.0" r="3" fill="#f28e2b"/><circle cx="280.2" cy="232.0" r="3" fill="#f28e2b"/><circle cx="292.9" cy="232.0" r="3" fill="#f28e2b"/><circle cx="305.6" cy="224.5" r="3" fill="#f28e2b"/><circle cx="318.2" cy="229.5" r="3" fill="#f28e2b"/><circle cx="330.9" cy="229.5" r="3" fill="#f28e2b"/><circle cx="343.6" cy="232.0" r="3" fill="#f28e2b"/><circle cx="356.3" cy="232.0" r="3" fill="#f28e2b"/><circle cx="368.9" cy="232.0" r="3" fill="#f28e2b"/><circle cx="381.6" cy="232.0" r="3" fill="#f28e2b"/><circle cx="394.3" cy="232.0" r="3" fill="#f28e2b"/><circle cx="407.0" cy="229.5" r="3" fill="#f28e2b"/><circle cx="419.7" cy="227.0" r="3" fill="#f28e2b"/><circle cx="432.3" cy="229.5" r="3" fill="#f28e2b"/><circle cx="445.0" cy="232.0" r="3" fill="#f28e2b"/><circle cx="457.7" cy="232.0" r="3" fill="#f28e2b"/><circle cx="470.4" cy="232.0" r="3" fill="#f28e2b"/><circle cx="483.1" cy="232.0" r="3" fill="#f28e2b"/><circle cx="495.7" cy="232.0" r="3" fill="#f28e2b"/><circle cx="508.4" cy="232.0" r="3" fill="#f28e2b"/><circle cx="521.1" cy="229.5" r="3" fill="#f28e2b"/><circle cx="533.8" cy="209.6" r="3" fill="#f28e2b"/><circle cx="546.4" cy="227.0" r="3" fill="#f28e2b"/><circle cx="559.1" cy="229.5" r="3" fill="#f28e2b"/><circle cx="571.8" cy="227.0" r="3" fill="#f28e2b"/><circle cx="584.5" cy="204.6" r="3" fill="#f28e2b"/><circle cx="597.2" cy="232.0" r="3" fill="#f28e2b"/><circle cx="609.8" cy="169.8" r="3" fill="#f28e2b"/><circle cx="622.5" cy="144.9" r="3" fill="#f28e2b"/><circle cx="635.2" cy="207.1" r="3" fill="#f28e2b"/><circle cx="647.9" cy="227.0" r="3" fill="#f28e2b"/><circle cx="660.5" cy="229.5" r="3" fill="#f28e2b"/><circle cx="673.2" cy="227.0" r="3" fill="#f28e2b"/><circle cx="685.9" cy="229.5" r="3" fill="#f28e2b"/><circle cx="698.6" cy="229.5" r="3" fill="#f28e2b"/><circle cx="711.3" cy="232.0" r="3" fill="#f28e2b"/><circle cx="723.9" cy="227.0" r="3" fill="#f28e2b"/><circle cx="736.6" cy="229.5" r="3" fill="#f28e2b"/><circle cx="749.3" cy="229.5" r="3" fill="#f28e2b"/><circle cx="762.0" cy="232.0" r="3" fill="#f28e2b"/><circle cx="774.6" cy="229.5" r="3" fill="#f28e2b"/><circle cx="787.3" cy="232.0" r="3" fill="#f28e2b"/><circle cx="800.0" cy="222.0" r="3" fill="#f28e2b"/>

  <!-- axes -->
  <line x1="52" y1="28" x2="52" y2="232"
        stroke="#cccccc" stroke-width="1"/>
  <line x1="52" y1="232" x2="800" y2="232"
        stroke="#cccccc" stroke-width="1"/>

  <!-- y-axis labels -->
  <text x="47" y="236.0" text-anchor="end" font-size="10" fill="#57606a" font-family="ui-monospace, SFMono-Regular, 'SF Mono', Menlo, monospace">0</text><text x="47" y="186.2" text-anchor="end" font-size="10" fill="#57606a" font-family="ui-monospace, SFMono-Regular, 'SF Mono', Menlo, monospace">20</text><text x="47" y="136.5" text-anchor="end" font-size="10" fill="#57606a" font-family="ui-monospace, SFMono-Regular, 'SF Mono', Menlo, monospace">40</text><text x="47" y="86.7" text-anchor="end" font-size="10" fill="#57606a" font-family="ui-monospace, SFMono-Regular, 'SF Mono', Menlo, monospace">60</text><text x="47" y="37.0" text-anchor="end" font-size="10" fill="#57606a" font-family="ui-monospace, SFMono-Regular, 'SF Mono', Menlo, monospace">80</text><text x="47" y="-12.8" text-anchor="end" font-size="10" fill="#57606a" font-family="ui-monospace, SFMono-Regular, 'SF Mono', Menlo, monospace">100</text>

  <!-- x-axis labels -->
  <text x="52.0" y="248" text-anchor="middle" font-size="10" fill="#8c959f" font-family="ui-monospace, SFMono-Regular, 'SF Mono', Menlo, monospace">05-11</text><text x="495.7" y="248" text-anchor="middle" font-size="10" fill="#8c959f" font-family="ui-monospace, SFMono-Regular, 'SF Mono', Menlo, monospace">06-15</text><text x="140.7" y="248" text-anchor="middle" font-size="10" fill="#8c959f" font-family="ui-monospace, SFMono-Regular, 'SF Mono', Menlo, monospace">05-18</text><text x="584.5" y="248" text-anchor="middle" font-size="10" fill="#8c959f" font-family="ui-monospace, SFMono-Regular, 'SF Mono', Menlo, monospace">06-22</text><text x="229.5" y="248" text-anchor="middle" font-size="10" fill="#8c959f" font-family="ui-monospace, SFMono-Regular, 'SF Mono', Menlo, monospace">05-25</text><text x="673.2" y="248" text-anchor="middle" font-size="10" fill="#8c959f" font-family="ui-monospace, SFMono-Regular, 'SF Mono', Menlo, monospace">06-29</text><text x="318.2" y="248" text-anchor="middle" font-size="10" fill="#8c959f" font-family="ui-monospace, SFMono-Regular, 'SF Mono', Menlo, monospace">06-01</text><text x="762.0" y="248" text-anchor="middle" font-size="10" fill="#8c959f" font-family="ui-monospace, SFMono-Regular, 'SF Mono', Menlo, monospace">07-06</text><text x="800.0" y="248" text-anchor="middle" font-size="10" fill="#8c959f" font-family="ui-monospace, SFMono-Regular, 'SF Mono', Menlo, monospace">07-09</text><text x="407.0" y="248" text-anchor="middle" font-size="10" fill="#8c959f" font-family="ui-monospace, SFMono-Regular, 'SF Mono', Menlo, monospace">06-08</text>

  <!-- legend -->
  <rect x="60" y="262" width="16" height="3" fill="#4e79a7" rx="1"/><text x="80" y="268" font-size="11" fill="#57606a" font-family="-apple-system, BlinkMacSystemFont, 'Segoe UI', sans-serif">Total clones (268)</text><line x1="230" y1="264" x2="246" y2="264" stroke="#f28e2b" stroke-width="2" stroke-dasharray="5,3"/><text x="250" y="268" font-size="11" fill="#57606a" font-family="-apple-system, BlinkMacSystemFont, 'Segoe UI', sans-serif">Unique cloners</text>

</svg>