<svg xmlns="http://www.w3.org/2000/svg" viewBox="0 0 820 280" width="820" height="280">

  <!-- title -->
  <text x="52" y="18" font-size="13" font-weight="600"
        fill="#24292f" font-family="-apple-system, BlinkMacSystemFont, 'Segoe UI', sans-serif"
        >Clone traffic — distrodeck</text>
  <text x="800" y="18" font-size="10" fill="#8c959f"
        font-family="ui-monospace, SFMono-Regular, 'SF Mono', Menlo, monospace" text-anchor="end">2026-07-24</text>

  <!-- grid -->
  <line x1="52" y1="232.0" x2="800" y2="232.0" stroke="#e8e8e8" stroke-width="1"/><line x1="52" y1="182.2" x2="800" y2="182.2" stroke="#e8e8e8" stroke-width="1"/><line x1="52" y1="132.5" x2="800" y2="132.5" stroke="#e8e8e8" stroke-width="1"/><line x1="52" y1="82.7" x2="800" y2="82.7" stroke="#e8e8e8" stroke-width="1"/><line x1="52" y1="33.0" x2="800" y2="33.0" stroke="#e8e8e8" stroke-width="1"/><line x1="52" y1="-16.8" x2="800" y2="-16.8" stroke="#e8e8e8" stroke-width="1"/>

  <!-- area fill -->
  <path d="M52.0,232.0 L52.0,232.0 L62.2,229.5 L72.5,227.0 L82.7,232.0 L93.0,219.6 L103.2,232.0 L113.5,229.5 L123.7,232.0 L134.0,224.5 L144.2,232.0 L154.5,232.0 L164.7,232.0 L175.0,232.0 L185.2,232.0 L195.5,232.0 L205.7,232.0 L215.9,232.0 L226.2,232.0 L236.4,232.0 L246.7,232.0 L256.9,219.6 L267.2,229.5 L277.4,229.5 L287.7,232.0 L297.9,232.0 L308.2,232.0 L318.4,232.0 L328.7,232.0 L338.9,229.5 L349.2,227.0 L359.4,229.5 L369.6,232.0 L379.9,232.0 L390.1,232.0 L400.4,232.0 L410.6,232.0 L420.9,232.0 L431.1,229.5 L441.4,202.1 L451.6,227.0 L461.9,229.5 L472.1,219.6 L482.4,122.5 L492.6,232.0 L502.8,120.0 L513.1,28.0 L523.3,187.2 L533.6,219.6 L543.8,229.5 L554.1,227.0 L564.3,229.5 L574.6,229.5 L584.8,232.0 L595.1,227.0 L605.3,227.0 L615.6,229.5 L625.8,232.0 L636.1,209.6 L646.3,232.0 L656.5,204.6 L666.8,232.0 L677.0,219.6 L687.3,232.0 L697.5,232.0 L707.8,232.0 L718.0,232.0 L728.3,229.5 L738.5,229.5 L748.8,227.0 L759.0,232.0 L769.3,232.0 L779.5,232.0 L789.8,222.0 L800.0,232.0 L800.0,232.0 L52.0,232.0Z" fill="#4e79a7" opacity="0.12"/>

  <!-- lines -->
  <polyline points="52.0,232.0 62.2,229.5 72.5,227.0 82.7,232.0 93.0,219.6 103.2,232.0 113.5,229.5 123.7,232.0 134.0,224.5 144.2,232.0 154.5,232.0 164.7,232.0 175.0,232.0 185.2,232.0 195.5,232.0 205.7,232.0 215.9,232.0 226.2,232.0 236.4,232.0 246.7,232.0 256.9,219.6 267.2,229.5 277.4,229.5 287.7,232.0 297.9,232.0 308.2,232.0 318.4,232.0 328.7,232.0 338.9,229.5 349.2,227.0 359.4,229.5 369.6,232.0 379.9,232.0 390.1,232.0 400.4,232.0 410.6,232.0 420.9,232.0 431.1,229.5 441.4,202.1 451.6,227.0 461.9,229.5 472.1,219.6 482.4,122.5 492.6,232.0 502.8,120.0 513.1,28.0 523.3,187.2 533.6,219.6 543.8,229.5 554.1,227.0 564.3,229.5 574.6,229.5 584.8,232.0 595.1,227.0 605.3,227.0 615.6,229.5 625.8,232.0 636.1,209.6 646.3,232.0 656.5,204.6 666.8,232.0 677.0,219.6 687.3,232.0 697.5,232.0 707.8,232.0 718.0,232.0 728.3,229.5 738.5,229.5 748.8,227.0 759.0,232.0 769.3,232.0 779.5,232.0 789.8,222.0 800.0,232.0"
            fill="none" stroke="#4e79a7"
            stroke-width="2" stroke-linejoin="round"/>
  <polyline points="52.0,232.0 62.2,229.5 72.5,227.0 82.7,232.0 93.0,229.5 103.2,232.0 113.5,229.5 123.7,232.0 134.0,224.5 144.2,232.0 154.5,232.0 164.7,232.0 175.0,232.0 185.2,232.0 195.5,232.0 205.7,232.0 215.9,232.0 226.2,232.0 236.4,232.0 246.7,232.0 256.9,224.5 267.2,229.5 277.4,229.5 287.7,232.0 297.9,232.0 308.2,232.0 318.4,232.0 328.7,232.0 338.9,229.5 349.2,227.0 359.4,229.5 369.6,232.0 379.9,232.0 390.1,232.0 400.4,232.0 410.6,232.0 420.9,232.0 431.1,229.5 441.4,209.6 451.6,227.0 461.9,229.5 472.1,227.0 482.4,204.6 492.6,232.0 502.8,169.8 513.1,144.9 523.3,207.1 533.6,227.0 543.8,229.5 554.1,227.0 564.3,229.5 574.6,229.5 584.8,232.0 595.1,227.0 605.3,229.5 615.6,229.5 625.8,232.0 636.1,229.5 646.3,232.0 656.5,222.0 666.8,232.0 677.0,222.0 687.3,232.0 697.5,232.0 707.8,232.0 718.0,232.0 728.3,229.5 738.5,229.5 748.8,229.5 759.0,232.0 769.3,232.0 779.5,232.0 789.8,229.5 800.0,232.0"
            fill="none" stroke="#f28e2b"
            stroke-width="2" stroke-linejoin="round"
            stroke-dasharray="5,3"/>

  <!-- dots -->
  <circle cx="52.0" cy="232.0" r="3" fill="#4e79a7"/><circle cx="62.2" cy="229.5" r="3" fill="#4e79a7"/><circle cx="72.5" cy="227.0" r="3" fill="#4e79a7"/><circle cx="82.7" cy="232.0" r="3" fill="#4e79a7"/><circle cx="93.0" cy="219.6" r="3" fill="#4e79a7"/><circle cx="103.2" cy="232.0" r="3" fill="#4e79a7"/><circle cx="113.5" cy="229.5" r="3" fill="#4e79a7"/><circle cx="123.7" cy="232.0" r="3" fill="#4e79a7"/><circle cx="134.0" cy="224.5" r="3" fill="#4e79a7"/><circle cx="144.2" cy="232.0" r="3" fill="#4e79a7"/><circle cx="154.5" cy="232.0" r="3" fill="#4e79a7"/><circle cx="164.7" cy="232.0" r="3" fill="#4e79a7"/><circle cx="175.0" cy="232.0" r="3" fill="#4e79a7"/><circle cx="185.2" cy="232.0" r="3" fill="#4e79a7"/><circle cx="195.5" cy="232.0" r="3" fill="#4e79a7"/><circle cx="205.7" cy="232.0" r="3" fill="#4e79a7"/><circle cx="215.9" cy="232.0" r="3" fill="#4e79a7"/><circle cx="226.2" cy="232.0" r="3" fill="#4e79a7"/><circle cx="236.4" cy="232.0" r="3" fill="#4e79a7"/><circle cx="246.7" cy="232.0" r="3" fill="#4e79a7"/><circle cx="256.9" cy="219.6" r="3" fill="#4e79a7"/><circle cx="267.2" cy="229.5" r="3" fill="#4e79a7"/><circle cx="277.4" cy="229.5" r="3" fill="#4e79a7"/><circle cx="287.7" cy="232.0" r="3" fill="#4e79a7"/><circle cx="297.9" cy="232.0" r="3" fill="#4e79a7"/><circle cx="308.2" cy="232.0" r="3" fill="#4e79a7"/><circle cx="318.4" cy="232.0" r="3" fill="#4e79a7"/><circle cx="328.7" cy="232.0" r="3" fill="#4e79a7"/><circle cx="338.9" cy="229.5" r="3" fill="#4e79a7"/><circle cx="349.2" cy="227.0" r="3" fill="#4e79a7"/><circle cx="359.4" cy="229.5" r="3" fill="#4e79a7"/><circle cx="369.6" cy="232.0" r="3" fill="#4e79a7"/><circle cx="379.9" cy="232.0" r="3" fill="#4e79a7"/><circle cx="390.1" cy="232.0" r="3" fill="#4e79a7"/><circle cx="400.4" cy="232.0" r="3" fill="#4e79a7"/><circle cx="410.6" cy="232.0" r="3" fill="#4e79a7"/><circle cx="420.9" cy="232.0" r="3" fill="#4e79a7"/><circle cx="431.1" cy="229.5" r="3" fill="#4e79a7"/><circle cx="441.4" cy="202.1" r="3" fill="#4e79a7"/><circle cx="451.6" cy="227.0" r="3" fill="#4e79a7"/><circle cx="461.9" cy="229.5" r="3" fill="#4e79a7"/><circle cx="472.1" cy="219.6" r="3" fill="#4e79a7"/><circle cx="482.4" cy="122.5" r="3" fill="#4e79a7"/><circle cx="492.6" cy="232.0" r="3" fill="#4e79a7"/><circle cx="502.8" cy="120.0" r="3" fill="#4e79a7"/><circle cx="513.1" cy="28.0" r="3" fill="#4e79a7"/><circle cx="523.3" cy="187.2" r="3" fill="#4e79a7"/><circle cx="533.6" cy="219.6" r="3" fill="#4e79a7"/><circle cx="543.8" cy="229.5" r="3" fill="#4e79a7"/><circle cx="554.1" cy="227.0" r="3" fill="#4e79a7"/><circle cx="564.3" cy="229.5" r="3" fill="#4e79a7"/><circle cx="574.6" cy="229.5" r="3" fill="#4e79a7"/><circle cx="584.8" cy="232.0" r="3" fill="#4e79a7"/><circle cx="595.1" cy="227.0" r="3" fill="#4e79a7"/><circle cx="605.3" cy="227.0" r="3" fill="#4e79a7"/><circle cx="615.6" cy="229.5" r="3" fill="#4e79a7"/><circle cx="625.8" cy="232.0" r="3" fill="#4e79a7"/><circle cx="636.1" cy="209.6" r="3" fill="#4e79a7"/><circle cx="646.3" cy="232.0" r="3" fill="#4e79a7"/><circle cx="656.5" cy="204.6" r="3" fill="#4e79a7"/><circle cx="666.8" cy="232.0" r="3" fill="#4e79a7"/><circle cx="677.0" cy="219.6" r="3" fill="#4e79a7"/><circle cx="687.3" cy="232.0" r="3" fill="#4e79a7"/><circle cx="697.5" cy="232.0" r="3" fill="#4e79a7"/><circle cx="707.8" cy="232.0" r="3" fill="#4e79a7"/><circle cx="718.0" cy="232.0" r="3" fill="#4e79a7"/><circle cx="728.3" cy="229.5" r="3" fill="#4e79a7"/><circle cx="738.5" cy="229.5" r="3" fill="#4e79a7"/><circle cx="748.8" cy="227.0" r="3" fill="#4e79a7"/><circle cx="759.0" cy="232.0" r="3" fill="#4e79a7"/><circle cx="769.3" cy="232.0" r="3" fill="#4e79a7"/><circle cx="779.5" cy="232.0" r="3" fill="#4e79a7"/><circle cx="789.8" cy="222.0" r="3" fill="#4e79a7"/><circle cx="800.0" cy="232.0" r="3" fill="#4e79a7"/>
  <circle cx="52.0" cy="232.0" r="3" fill="#f28e2b"/><circle cx="62.2" cy="229.5" r="3" fill="#f28e2b"/><circle cx="72.5" cy="227.0" r="3" fill="#f28e2b"/><circle cx="82.7" cy="232.0" r="3" fill="#f28e2b"/><circle cx="93.0" cy="229.5" r="3" fill="#f28e2b"/><circle cx="103.2" cy="232.0" r="3" fill="#f28e2b"/><circle cx="113.5" cy="229.5" r="3" fill="#f28e2b"/><circle cx="123.7" cy="232.0" r="3" fill="#f28e2b"/><circle cx="134.0" cy="224.5" r="3" fill="#f28e2b"/><circle cx="144.2" cy="232.0" r="3" fill="#f28e2b"/><circle cx="154.5" cy="232.0" r="3" fill="#f28e2b"/><circle cx="164.7" cy="232.0" r="3" fill="#f28e2b"/><circle cx="175.0" cy="232.0" r="3" fill="#f28e2b"/><circle cx="185.2" cy="232.0" r="3" fill="#f28e2b"/><circle cx="195.5" cy="232.0" r="3" fill="#f28e2b"/><circle cx="205.7" cy="232.0" r="3" fill="#f28e2b"/><circle cx="215.9" cy="232.0" r="3" fill="#f28e2b"/><circle cx="226.2" cy="232.0" r="3" fill="#f28e2b"/><circle cx="236.4" cy="232.0" r="3" fill="#f28e2b"/><circle cx="246.7" cy="232.0" r="3" fill="#f28e2b"/><circle cx="256.9" cy="224.5" r="3" fill="#f28e2b"/><circle cx="267.2" cy="229.5" r="3" fill="#f28e2b"/><circle cx="277.4" cy="229.5" r="3" fill="#f28e2b"/><circle cx="287.7" cy="232.0" r="3" fill="#f28e2b"/><circle cx="297.9" cy="232.0" r="3" fill="#f28e2b"/><circle cx="308.2" cy="232.0" r="3" fill="#f28e2b"/><circle cx="318.4" cy="232.0" r="3" fill="#f28e2b"/><circle cx="328.7" cy="232.0" r="3" fill="#f28e2b"/><circle cx="338.9" cy="229.5" r="3" fill="#f28e2b"/><circle cx="349.2" cy="227.0" r="3" fill="#f28e2b"/><circle cx="359.4" cy="229.5" r="3" fill="#f28e2b"/><circle cx="369.6" cy="232.0" r="3" fill="#f28e2b"/><circle cx="379.9" cy="232.0" r="3" fill="#f28e2b"/><circle cx="390.1" cy="232.0" r="3" fill="#f28e2b"/><circle cx="400.4" cy="232.0" r="3" fill="#f28e2b"/><circle cx="410.6" cy="232.0" r="3" fill="#f28e2b"/><circle cx="420.9" cy="232.0" r="3" fill="#f28e2b"/><circle cx="431.1" cy="229.5" r="3" fill="#f28e2b"/><circle cx="441.4" cy="209.6" r="3" fill="#f28e2b"/><circle cx="451.6" cy="227.0" r="3" fill="#f28e2b"/><circle cx="461.9" cy="229.5" r="3" fill="#f28e2b"/><circle cx="472.1" cy="227.0" r="3" fill="#f28e2b"/><circle cx="482.4" cy="204.6" r="3" fill="#f28e2b"/><circle cx="492.6" cy="232.0" r="3" fill="#f28e2b"/><circle cx="502.8" cy="169.8" r="3" fill="#f28e2b"/><circle cx="513.1" cy="144.9" r="3" fill="#f28e2b"/><circle cx="523.3" cy="207.1" r="3" fill="#f28e2b"/><circle cx="533.6" cy="227.0" r="3" fill="#f28e2b"/><circle cx="543.8" cy="229.5" r="3" fill="#f28e2b"/><circle cx="554.1" cy="227.0" r="3" fill="#f28e2b"/><circle cx="564.3" cy="229.5" r="3" fill="#f28e2b"/><circle cx="574.6" cy="229.5" r="3" fill="#f28e2b"/><circle cx="584.8" cy="232.0" r="3" fill="#f28e2b"/><circle cx="595.1" cy="227.0" r="3" fill="#f28e2b"/><circle cx="605.3" cy="229.5" r="3" fill="#f28e2b"/><circle cx="615.6" cy="229.5" r="3" fill="#f28e2b"/><circle cx="625.8" cy="232.0" r="3" fill="#f28e2b"/><circle cx="636.1" cy="229.5" r="3" fill="#f28e2b"/><circle cx="646.3" cy="232.0" r="3" fill="#f28e2b"/><circle cx="656.5" cy="222.0" r="3" fill="#f28e2b"/><circle cx="666.8" cy="232.0" r="3" fill="#f28e2b"/><circle cx="677.0" cy="222.0" r="3" fill="#f28e2b"/><circle cx="687.3" cy="232.0" r="3" fill="#f28e2b"/><circle cx="697.5" cy="232.0" r="3" fill="#f28e2b"/><circle cx="707.8" cy="232.0" r="3" fill="#f28e2b"/><circle cx="718.0" cy="232.0" r="3" fill="#f28e2b"/><circle cx="728.3" cy="229.5" r="3" fill="#f28e2b"/><circle cx="738.5" cy="229.5" r="3" fill="#f28e2b"/><circle cx="748.8" cy="229.5" r="3" fill="#f28e2b"/><circle cx="759.0" cy="232.0" r="3" fill="#f28e2b"/><circle cx="769.3" cy="232.0" r="3" fill="#f28e2b"/><circle cx="779.5" cy="232.0" r="3" fill="#f28e2b"/><circle cx="789.8" cy="229.5" r="3" fill="#f28e2b"/><circle cx="800.0" cy="232.0" r="3" fill="#f28e2b"/>

  <!-- axes -->
  <line x1="52" y1="28" x2="52" y2="232"
        stroke="#cccccc" stroke-width="1"/>
  <line x1="52" y1="232" x2="800" y2="232"
        stroke="#cccccc" stroke-width="1"/>

  <!-- y-axis labels -->
  <text x="47" y="236.0" text-anchor="end" font-size="10" fill="#57606a" font-family="ui-monospace, SFMono-Regular, 'SF Mono', Menlo, monospace">0</text><text x="47" y="186.2" text-anchor="end" font-size="10" fill="#57606a" font-family="ui-monospace, SFMono-Regular, 'SF Mono', Menlo, monospace">20</text><text x="47" y="136.5" text-anchor="end" font-size="10" fill="#57606a" font-family="ui-monospace, SFMono-Regular, 'SF Mono', Menlo, monospace">40</text><text x="47" y="86.7" text-anchor="end" font-size="10" fill="#57606a" font-family="ui-monospace, SFMono-Regular, 'SF Mono', Menlo, monospace">60</text><text x="47" y="37.0" text-anchor="end" font-size="10" fill="#57606a" font-family="ui-monospace, SFMono-Regular, 'SF Mono', Menlo, monospace">80</text><text x="47" y="-12.8" text-anchor="end" font-size="10" fill="#57606a" font-family="ui-monospace, SFMono-Regular, 'SF Mono', Menlo, monospace">100</text>

  <!-- x-axis labels -->
  <text x="52.0" y="248" text-anchor="middle" font-size="10" fill="#8c959f" font-family="ui-monospace, SFMono-Regular, 'SF Mono', Menlo, monospace">05-11</text><text x="420.9" y="248" text-anchor="middle" font-size="10" fill="#8c959f" font-family="ui-monospace, SFMono-Regular, 'SF Mono', Menlo, monospace">06-16</text><text x="789.8" y="248" text-anchor="middle" font-size="10" fill="#8c959f" font-family="ui-monospace, SFMono-Regular, 'SF Mono', Menlo, monospace">07-22</text><text x="144.2" y="248" text-anchor="middle" font-size="10" fill="#8c959f" font-family="ui-monospace, SFMono-Regular, 'SF Mono', Menlo, monospace">05-20</text><text x="800.0" y="248" text-anchor="middle" font-size="10" fill="#8c959f" font-family="ui-monospace, SFMono-Regular, 'SF Mono', Menlo, monospace">07-23</text><text x="513.1" y="248" text-anchor="middle" font-size="10" fill="#8c959f" font-family="ui-monospace, SFMono-Regular, 'SF Mono', Menlo, monospace">06-25</text><text x="236.4" y="248" text-anchor="middle" font-size="10" fill="#8c959f" font-family="ui-monospace, SFMono-Regular, 'SF Mono', Menlo, monospace">05-29</text><text x="605.3" y="248" text-anchor="middle" font-size="10" fill="#8c959f" font-family="ui-monospace, SFMono-Regular, 'SF Mono', Menlo, monospace">07-04</text><text x="328.7" y="248" text-anchor="middle" font-size="10" fill="#8c959f" font-family="ui-monospace, SFMono-Regular, 'SF Mono', Menlo, monospace">06-07</text><text x="697.5" y="248" text-anchor="middle" font-size="10" fill="#8c959f" font-family="ui-monospace, SFMono-Regular, 'SF Mono', Menlo, monospace">07-13</text>

  <!-- legend -->
  <rect x="60" y="262" width="16" height="3" fill="#4e79a7" rx="1"/><text x="80" y="268" font-size="11" fill="#57606a" font-family="-apple-system, BlinkMacSystemFont, 'Segoe UI', sans-serif">Total clones (281)</text><line x1="230" y1="264" x2="246" y2="264" stroke="#f28e2b" stroke-width="2" stroke-dasharray="5,3"/><text x="250" y="268" font-size="11" fill="#57606a" font-family="-apple-system, BlinkMacSystemFont, 'Segoe UI', sans-serif">Unique cloners</text>

</svg>