<svg xmlns="http://www.w3.org/2000/svg" viewBox="0 0 820 280" width="820" height="280">

  <!-- title -->
  <text x="52" y="18" font-size="13" font-weight="600"
        fill="#24292f" font-family="-apple-system, BlinkMacSystemFont, 'Segoe UI', sans-serif"
        >Clone traffic — distrodeck</text>
  <text x="800" y="18" font-size="10" fill="#8c959f"
        font-family="ui-monospace, SFMono-Regular, 'SF Mono', Menlo, monospace" text-anchor="end">2026-07-19</text>

  <!-- grid -->
  <line x1="52" y1="232.0" x2="800" y2="232.0" stroke="#e8e8e8" stroke-width="1"/><line x1="52" y1="182.2" x2="800" y2="182.2" stroke="#e8e8e8" stroke-width="1"/><line x1="52" y1="132.5" x2="800" y2="132.5" stroke="#e8e8e8" stroke-width="1"/><line x1="52" y1="82.7" x2="800" y2="82.7" stroke="#e8e8e8" stroke-width="1"/><line x1="52" y1="33.0" x2="800" y2="33.0" stroke="#e8e8e8" stroke-width="1"/><line x1="52" y1="-16.8" x2="800" y2="-16.8" stroke="#e8e8e8" stroke-width="1"/>

  <!-- area fill -->
  <path d="M52.0,232.0 L52.0,232.0 L63.2,229.5 L74.3,227.0 L85.5,232.0 L96.7,219.6 L107.8,232.0 L119.0,229.5 L130.1,232.0 L141.3,224.5 L152.5,232.0 L163.6,232.0 L174.8,232.0 L186.0,232.0 L197.1,232.0 L208.3,232.0 L219.5,232.0 L230.6,232.0 L241.8,232.0 L253.0,232.0 L264.1,232.0 L275.3,219.6 L286.4,229.5 L297.6,229.5 L308.8,232.0 L319.9,232.0 L331.1,232.0 L342.3,232.0 L353.4,232.0 L364.6,229.5 L375.8,227.0 L386.9,229.5 L398.1,232.0 L409.3,232.0 L420.4,232.0 L431.6,232.0 L442.7,232.0 L453.9,232.0 L465.1,229.5 L476.2,202.1 L487.4,227.0 L498.6,229.5 L509.7,219.6 L520.9,122.5 L532.1,232.0 L543.2,120.0 L554.4,28.0 L565.6,187.2 L576.7,219.6 L587.9,229.5 L599.0,227.0 L610.2,229.5 L621.4,229.5 L632.5,232.0 L643.7,227.0 L654.9,227.0 L666.0,229.5 L677.2,232.0 L688.4,209.6 L699.5,232.0 L710.7,204.6 L721.9,232.0 L733.0,219.6 L744.2,232.0 L755.3,232.0 L766.5,232.0 L777.7,232.0 L788.8,229.5 L800.0,229.5 L800.0,232.0 L52.0,232.0Z" fill="#4e79a7" opacity="0.12"/>

  <!-- lines -->
  <polyline points="52.0,232.0 63.2,229.5 74.3,227.0 85.5,232.0 96.7,219.6 107.8,232.0 119.0,229.5 130.1,232.0 141.3,224.5 152.5,232.0 163.6,232.0 174.8,232.0 186.0,232.0 197.1,232.0 208.3,232.0 219.5,232.0 230.6,232.0 241.8,232.0 253.0,232.0 264.1,232.0 275.3,219.6 286.4,229.5 297.6,229.5 308.8,232.0 319.9,232.0 331.1,232.0 342.3,232.0 353.4,232.0 364.6,229.5 375.8,227.0 386.9,229.5 398.1,232.0 409.3,232.0 420.4,232.0 431.6,232.0 442.7,232.0 453.9,232.0 465.1,229.5 476.2,202.1 487.4,227.0 498.6,229.5 509.7,219.6 520.9,122.5 532.1,232.0 543.2,120.0 554.4,28.0 565.6,187.2 576.7,219.6 587.9,229.5 599.0,227.0 610.2,229.5 621.4,229.5 632.5,232.0 643.7,227.0 654.9,227.0 666.0,229.5 677.2,232.0 688.4,209.6 699.5,232.0 710.7,204.6 721.9,232.0 733.0,219.6 744.2,232.0 755.3,232.0 766.5,232.0 777.7,232.0 788.8,229.5 800.0,229.5"
            fill="none" stroke="#4e79a7"
            stroke-width="2" stroke-linejoin="round"/>
  <polyline points="52.0,232.0 63.2,229.5 74.3,227.0 85.5,232.0 96.7,229.5 107.8,232.0 119.0,229.5 130.1,232.0 141.3,224.5 152.5,232.0 163.6,232.0 174.8,232.0 186.0,232.0 197.1,232.0 208.3,232.0 219.5,232.0 230.6,232.0 241.8,232.0 253.0,232.0 264.1,232.0 275.3,224.5 286.4,229.5 297.6,229.5 308.8,232.0 319.9,232.0 331.1,232.0 342.3,232.0 353.4,232.0 364.6,229.5 375.8,227.0 386.9,229.5 398.1,232.0 409.3,232.0 420.4,232.0 431.6,232.0 442.7,232.0 453.9,232.0 465.1,229.5 476.2,209.6 487.4,227.0 498.6,229.5 509.7,227.0 520.9,204.6 532.1,232.0 543.2,169.8 554.4,144.9 565.6,207.1 576.7,227.0 587.9,229.5 599.0,227.0 610.2,229.5 621.4,229.5 632.5,232.0 643.7,227.0 654.9,229.5 666.0,229.5 677.2,232.0 688.4,229.5 699.5,232.0 710.7,222.0 721.9,232.0 733.0,222.0 744.2,232.0 755.3,232.0 766.5,232.0 777.7,232.0 788.8,229.5 800.0,229.5"
            fill="none" stroke="#f28e2b"
            stroke-width="2" stroke-linejoin="round"
            stroke-dasharray="5,3"/>

  <!-- dots -->
  <circle cx="52.0" cy="232.0" r="3" fill="#4e79a7"/><circle cx="63.2" cy="229.5" r="3" fill="#4e79a7"/><circle cx="74.3" cy="227.0" r="3" fill="#4e79a7"/><circle cx="85.5" cy="232.0" r="3" fill="#4e79a7"/><circle cx="96.7" cy="219.6" r="3" fill="#4e79a7"/><circle cx="107.8" cy="232.0" r="3" fill="#4e79a7"/><circle cx="119.0" cy="229.5" r="3" fill="#4e79a7"/><circle cx="130.1" cy="232.0" r="3" fill="#4e79a7"/><circle cx="141.3" cy="224.5" r="3" fill="#4e79a7"/><circle cx="152.5" cy="232.0" r="3" fill="#4e79a7"/><circle cx="163.6" cy="232.0" r="3" fill="#4e79a7"/><circle cx="174.8" cy="232.0" r="3" fill="#4e79a7"/><circle cx="186.0" cy="232.0" r="3" fill="#4e79a7"/><circle cx="197.1" cy="232.0" r="3" fill="#4e79a7"/><circle cx="208.3" cy="232.0" r="3" fill="#4e79a7"/><circle cx="219.5" cy="232.0" r="3" fill="#4e79a7"/><circle cx="230.6" cy="232.0" r="3" fill="#4e79a7"/><circle cx="241.8" cy="232.0" r="3" fill="#4e79a7"/><circle cx="253.0" cy="232.0" r="3" fill="#4e79a7"/><circle cx="264.1" cy="232.0" r="3" fill="#4e79a7"/><circle cx="275.3" cy="219.6" r="3" fill="#4e79a7"/><circle cx="286.4" cy="229.5" r="3" fill="#4e79a7"/><circle cx="297.6" cy="229.5" r="3" fill="#4e79a7"/><circle cx="308.8" cy="232.0" r="3" fill="#4e79a7"/><circle cx="319.9" cy="232.0" r="3" fill="#4e79a7"/><circle cx="331.1" cy="232.0" r="3" fill="#4e79a7"/><circle cx="342.3" cy="232.0" r="3" fill="#4e79a7"/><circle cx="353.4" cy="232.0" r="3" fill="#4e79a7"/><circle cx="364.6" cy="229.5" r="3" fill="#4e79a7"/><circle cx="375.8" cy="227.0" r="3" fill="#4e79a7"/><circle cx="386.9" cy="229.5" r="3" fill="#4e79a7"/><circle cx="398.1" cy="232.0" r="3" fill="#4e79a7"/><circle cx="409.3" cy="232.0" r="3" fill="#4e79a7"/><circle cx="420.4" cy="232.0" r="3" fill="#4e79a7"/><circle cx="431.6" cy="232.0" r="3" fill="#4e79a7"/><circle cx="442.7" cy="232.0" r="3" fill="#4e79a7"/><circle cx="453.9" cy="232.0" r="3" fill="#4e79a7"/><circle cx="465.1" cy="229.5" r="3" fill="#4e79a7"/><circle cx="476.2" cy="202.1" r="3" fill="#4e79a7"/><circle cx="487.4" cy="227.0" r="3" fill="#4e79a7"/><circle cx="498.6" cy="229.5" r="3" fill="#4e79a7"/><circle cx="509.7" cy="219.6" r="3" fill="#4e79a7"/><circle cx="520.9" cy="122.5" r="3" fill="#4e79a7"/><circle cx="532.1" cy="232.0" r="3" fill="#4e79a7"/><circle cx="543.2" cy="120.0" r="3" fill="#4e79a7"/><circle cx="554.4" cy="28.0" r="3" fill="#4e79a7"/><circle cx="565.6" cy="187.2" r="3" fill="#4e79a7"/><circle cx="576.7" cy="219.6" r="3" fill="#4e79a7"/><circle cx="587.9" cy="229.5" r="3" fill="#4e79a7"/><circle cx="599.0" cy="227.0" r="3" fill="#4e79a7"/><circle cx="610.2" cy="229.5" r="3" fill="#4e79a7"/><circle cx="621.4" cy="229.5" r="3" fill="#4e79a7"/><circle cx="632.5" cy="232.0" r="3" fill="#4e79a7"/><circle cx="643.7" cy="227.0" r="3" fill="#4e79a7"/><circle cx="654.9" cy="227.0" r="3" fill="#4e79a7"/><circle cx="666.0" cy="229.5" r="3" fill="#4e79a7"/><circle cx="677.2" cy="232.0" r="3" fill="#4e79a7"/><circle cx="688.4" cy="209.6" r="3" fill="#4e79a7"/><circle cx="699.5" cy="232.0" r="3" fill="#4e79a7"/><circle cx="710.7" cy="204.6" r="3" fill="#4e79a7"/><circle cx="721.9" cy="232.0" r="3" fill="#4e79a7"/><circle cx="733.0" cy="219.6" r="3" fill="#4e79a7"/><circle cx="744.2" cy="232.0" r="3" fill="#4e79a7"/><circle cx="755.3" cy="232.0" r="3" fill="#4e79a7"/><circle cx="766.5" cy="232.0" r="3" fill="#4e79a7"/><circle cx="777.7" cy="232.0" r="3" fill="#4e79a7"/><circle cx="788.8" cy="229.5" r="3" fill="#4e79a7"/><circle cx="800.0" cy="229.5" r="3" fill="#4e79a7"/>
  <circle cx="52.0" cy="232.0" r="3" fill="#f28e2b"/><circle cx="63.2" cy="229.5" r="3" fill="#f28e2b"/><circle cx="74.3" cy="227.0" r="3" fill="#f28e2b"/><circle cx="85.5" cy="232.0" r="3" fill="#f28e2b"/><circle cx="96.7" cy="229.5" r="3" fill="#f28e2b"/><circle cx="107.8" cy="232.0" r="3" fill="#f28e2b"/><circle cx="119.0" cy="229.5" r="3" fill="#f28e2b"/><circle cx="130.1" cy="232.0" r="3" fill="#f28e2b"/><circle cx="141.3" cy="224.5" r="3" fill="#f28e2b"/><circle cx="152.5" cy="232.0" r="3" fill="#f28e2b"/><circle cx="163.6" cy="232.0" r="3" fill="#f28e2b"/><circle cx="174.8" cy="232.0" r="3" fill="#f28e2b"/><circle cx="186.0" cy="232.0" r="3" fill="#f28e2b"/><circle cx="197.1" cy="232.0" r="3" fill="#f28e2b"/><circle cx="208.3" cy="232.0" r="3" fill="#f28e2b"/><circle cx="219.5" cy="232.0" r="3" fill="#f28e2b"/><circle cx="230.6" cy="232.0" r="3" fill="#f28e2b"/><circle cx="241.8" cy="232.0" r="3" fill="#f28e2b"/><circle cx="253.0" cy="232.0" r="3" fill="#f28e2b"/><circle cx="264.1" cy="232.0" r="3" fill="#f28e2b"/><circle cx="275.3" cy="224.5" r="3" fill="#f28e2b"/><circle cx="286.4" cy="229.5" r="3" fill="#f28e2b"/><circle cx="297.6" cy="229.5" r="3" fill="#f28e2b"/><circle cx="308.8" cy="232.0" r="3" fill="#f28e2b"/><circle cx="319.9" cy="232.0" r="3" fill="#f28e2b"/><circle cx="331.1" cy="232.0" r="3" fill="#f28e2b"/><circle cx="342.3" cy="232.0" r="3" fill="#f28e2b"/><circle cx="353.4" cy="232.0" r="3" fill="#f28e2b"/><circle cx="364.6" cy="229.5" r="3" fill="#f28e2b"/><circle cx="375.8" cy="227.0" r="3" fill="#f28e2b"/><circle cx="386.9" cy="229.5" r="3" fill="#f28e2b"/><circle cx="398.1" cy="232.0" r="3" fill="#f28e2b"/><circle cx="409.3" cy="232.0" r="3" fill="#f28e2b"/><circle cx="420.4" cy="232.0" r="3" fill="#f28e2b"/><circle cx="431.6" cy="232.0" r="3" fill="#f28e2b"/><circle cx="442.7" cy="232.0" r="3" fill="#f28e2b"/><circle cx="453.9" cy="232.0" r="3" fill="#f28e2b"/><circle cx="465.1" cy="229.5" r="3" fill="#f28e2b"/><circle cx="476.2" cy="209.6" r="3" fill="#f28e2b"/><circle cx="487.4" cy="227.0" r="3" fill="#f28e2b"/><circle cx="498.6" cy="229.5" r="3" fill="#f28e2b"/><circle cx="509.7" cy="227.0" r="3" fill="#f28e2b"/><circle cx="520.9" cy="204.6" r="3" fill="#f28e2b"/><circle cx="532.1" cy="232.0" r="3" fill="#f28e2b"/><circle cx="543.2" cy="169.8" r="3" fill="#f28e2b"/><circle cx="554.4" cy="144.9" r="3" fill="#f28e2b"/><circle cx="565.6" cy="207.1" r="3" fill="#f28e2b"/><circle cx="576.7" cy="227.0" r="3" fill="#f28e2b"/><circle cx="587.9" cy="229.5" r="3" fill="#f28e2b"/><circle cx="599.0" cy="227.0" r="3" fill="#f28e2b"/><circle cx="610.2" cy="229.5" r="3" fill="#f28e2b"/><circle cx="621.4" cy="229.5" r="3" fill="#f28e2b"/><circle cx="632.5" cy="232.0" r="3" fill="#f28e2b"/><circle cx="643.7" cy="227.0" r="3" fill="#f28e2b"/><circle cx="654.9" cy="229.5" r="3" fill="#f28e2b"/><circle cx="666.0" cy="229.5" r="3" fill="#f28e2b"/><circle cx="677.2" cy="232.0" r="3" fill="#f28e2b"/><circle cx="688.4" cy="229.5" r="3" fill="#f28e2b"/><circle cx="699.5" cy="232.0" r="3" fill="#f28e2b"/><circle cx="710.7" cy="222.0" r="3" fill="#f28e2b"/><circle cx="721.9" cy="232.0" r="3" fill="#f28e2b"/><circle cx="733.0" cy="222.0" r="3" fill="#f28e2b"/><circle cx="744.2" cy="232.0" r="3" fill="#f28e2b"/><circle cx="755.3" cy="232.0" r="3" fill="#f28e2b"/><circle cx="766.5" cy="232.0" r="3" fill="#f28e2b"/><circle cx="777.7" cy="232.0" r="3" fill="#f28e2b"/><circle cx="788.8" cy="229.5" r="3" fill="#f28e2b"/><circle cx="800.0" cy="229.5" r="3" fill="#f28e2b"/>

  <!-- axes -->
  <line x1="52" y1="28" x2="52" y2="232"
        stroke="#cccccc" stroke-width="1"/>
  <line x1="52" y1="232" x2="800" y2="232"
        stroke="#cccccc" stroke-width="1"/>

  <!-- y-axis labels -->
  <text x="47" y="236.0" text-anchor="end" font-size="10" fill="#57606a" font-family="ui-monospace, SFMono-Regular, 'SF Mono', Menlo, monospace">0</text><text x="47" y="186.2" text-anchor="end" font-size="10" fill="#57606a" font-family="ui-monospace, SFMono-Regular, 'SF Mono', Menlo, monospace">20</text><text x="47" y="136.5" text-anchor="end" font-size="10" fill="#57606a" font-family="ui-monospace, SFMono-Regular, 'SF Mono', Menlo, monospace">40</text><text x="47" y="86.7" text-anchor="end" font-size="10" fill="#57606a" font-family="ui-monospace, SFMono-Regular, 'SF Mono', Menlo, monospace">60</text><text x="47" y="37.0" text-anchor="end" font-size="10" fill="#57606a" font-family="ui-monospace, SFMono-Regular, 'SF Mono', Menlo, monospace">80</text><text x="47" y="-12.8" text-anchor="end" font-size="10" fill="#57606a" font-family="ui-monospace, SFMono-Regular, 'SF Mono', Menlo, monospace">100</text>

  <!-- x-axis labels -->
  <text x="52.0" y="248" text-anchor="middle" font-size="10" fill="#8c959f" font-family="ui-monospace, SFMono-Regular, 'SF Mono', Menlo, monospace">05-11</text><text x="409.3" y="248" text-anchor="middle" font-size="10" fill="#8c959f" font-family="ui-monospace, SFMono-Regular, 'SF Mono', Menlo, monospace">06-12</text><text x="766.5" y="248" text-anchor="middle" font-size="10" fill="#8c959f" font-family="ui-monospace, SFMono-Regular, 'SF Mono', Menlo, monospace">07-14</text><text x="800.0" y="248" text-anchor="middle" font-size="10" fill="#8c959f" font-family="ui-monospace, SFMono-Regular, 'SF Mono', Menlo, monospace">07-17</text><text x="141.3" y="248" text-anchor="middle" font-size="10" fill="#8c959f" font-family="ui-monospace, SFMono-Regular, 'SF Mono', Menlo, monospace">05-19</text><text x="498.6" y="248" text-anchor="middle" font-size="10" fill="#8c959f" font-family="ui-monospace, SFMono-Regular, 'SF Mono', Menlo, monospace">06-20</text><text x="230.6" y="248" text-anchor="middle" font-size="10" fill="#8c959f" font-family="ui-monospace, SFMono-Regular, 'SF Mono', Menlo, monospace">05-27</text><text x="587.9" y="248" text-anchor="middle" font-size="10" fill="#8c959f" font-family="ui-monospace, SFMono-Regular, 'SF Mono', Menlo, monospace">06-28</text><text x="319.9" y="248" text-anchor="middle" font-size="10" fill="#8c959f" font-family="ui-monospace, SFMono-Regular, 'SF Mono', Menlo, monospace">06-04</text><text x="677.2" y="248" text-anchor="middle" font-size="10" fill="#8c959f" font-family="ui-monospace, SFMono-Regular, 'SF Mono', Menlo, monospace">07-06</text>

  <!-- legend -->
  <rect x="60" y="262" width="16" height="3" fill="#4e79a7" rx="1"/><text x="80" y="268" font-size="11" fill="#57606a" font-family="-apple-system, BlinkMacSystemFont, 'Segoe UI', sans-serif">Total clones (275)</text><line x1="230" y1="264" x2="246" y2="264" stroke="#f28e2b" stroke-width="2" stroke-dasharray="5,3"/><text x="250" y="268" font-size="11" fill="#57606a" font-family="-apple-system, BlinkMacSystemFont, 'Segoe UI', sans-serif">Unique cloners</text>

</svg>