<svg xmlns="http://www.w3.org/2000/svg" viewBox="0 0 820 280" width="820" height="280">

  <!-- title -->
  <text x="52" y="18" font-size="13" font-weight="600"
        fill="#24292f" font-family="-apple-system, BlinkMacSystemFont, 'Segoe UI', sans-serif"
        >Clone traffic — distrodeck</text>
  <text x="800" y="18" font-size="10" fill="#8c959f"
        font-family="ui-monospace, SFMono-Regular, 'SF Mono', Menlo, monospace" text-anchor="end">2026-07-20</text>

  <!-- grid -->
  <line x1="52" y1="232.0" x2="800" y2="232.0" stroke="#e8e8e8" stroke-width="1"/><line x1="52" y1="182.2" x2="800" y2="182.2" stroke="#e8e8e8" stroke-width="1"/><line x1="52" y1="132.5" x2="800" y2="132.5" stroke="#e8e8e8" stroke-width="1"/><line x1="52" y1="82.7" x2="800" y2="82.7" stroke="#e8e8e8" stroke-width="1"/><line x1="52" y1="33.0" x2="800" y2="33.0" stroke="#e8e8e8" stroke-width="1"/><line x1="52" y1="-16.8" x2="800" y2="-16.8" stroke="#e8e8e8" stroke-width="1"/>

  <!-- area fill -->
  <path d="M52.0,232.0 L52.0,232.0 L63.0,229.5 L74.0,227.0 L85.0,232.0 L96.0,219.6 L107.0,232.0 L118.0,229.5 L129.0,232.0 L140.0,224.5 L151.0,232.0 L162.0,232.0 L173.0,232.0 L184.0,232.0 L195.0,232.0 L206.0,232.0 L217.0,232.0 L228.0,232.0 L239.0,232.0 L250.0,232.0 L261.0,232.0 L272.0,219.6 L283.0,229.5 L294.0,229.5 L305.0,232.0 L316.0,232.0 L327.0,232.0 L338.0,232.0 L349.0,232.0 L360.0,229.5 L371.0,227.0 L382.0,229.5 L393.0,232.0 L404.0,232.0 L415.0,232.0 L426.0,232.0 L437.0,232.0 L448.0,232.0 L459.0,229.5 L470.0,202.1 L481.0,227.0 L492.0,229.5 L503.0,219.6 L514.0,122.5 L525.0,232.0 L536.0,120.0 L547.0,28.0 L558.0,187.2 L569.0,219.6 L580.0,229.5 L591.0,227.0 L602.0,229.5 L613.0,229.5 L624.0,232.0 L635.0,227.0 L646.0,227.0 L657.0,229.5 L668.0,232.0 L679.0,209.6 L690.0,232.0 L701.0,204.6 L712.0,232.0 L723.0,219.6 L734.0,232.0 L745.0,232.0 L756.0,232.0 L767.0,232.0 L778.0,229.5 L789.0,229.5 L800.0,227.0 L800.0,232.0 L52.0,232.0Z" fill="#4e79a7" opacity="0.12"/>

  <!-- lines -->
  <polyline points="52.0,232.0 63.0,229.5 74.0,227.0 85.0,232.0 96.0,219.6 107.0,232.0 118.0,229.5 129.0,232.0 140.0,224.5 151.0,232.0 162.0,232.0 173.0,232.0 184.0,232.0 195.0,232.0 206.0,232.0 217.0,232.0 228.0,232.0 239.0,232.0 250.0,232.0 261.0,232.0 272.0,219.6 283.0,229.5 294.0,229.5 305.0,232.0 316.0,232.0 327.0,232.0 338.0,232.0 349.0,232.0 360.0,229.5 371.0,227.0 382.0,229.5 393.0,232.0 404.0,232.0 415.0,232.0 426.0,232.0 437.0,232.0 448.0,232.0 459.0,229.5 470.0,202.1 481.0,227.0 492.0,229.5 503.0,219.6 514.0,122.5 525.0,232.0 536.0,120.0 547.0,28.0 558.0,187.2 569.0,219.6 580.0,229.5 591.0,227.0 602.0,229.5 613.0,229.5 624.0,232.0 635.0,227.0 646.0,227.0 657.0,229.5 668.0,232.0 679.0,209.6 690.0,232.0 701.0,204.6 712.0,232.0 723.0,219.6 734.0,232.0 745.0,232.0 756.0,232.0 767.0,232.0 778.0,229.5 789.0,229.5 800.0,227.0"
            fill="none" stroke="#4e79a7"
            stroke-width="2" stroke-linejoin="round"/>
  <polyline points="52.0,232.0 63.0,229.5 74.0,227.0 85.0,232.0 96.0,229.5 107.0,232.0 118.0,229.5 129.0,232.0 140.0,224.5 151.0,232.0 162.0,232.0 173.0,232.0 184.0,232.0 195.0,232.0 206.0,232.0 217.0,232.0 228.0,232.0 239.0,232.0 250.0,232.0 261.0,232.0 272.0,224.5 283.0,229.5 294.0,229.5 305.0,232.0 316.0,232.0 327.0,232.0 338.0,232.0 349.0,232.0 360.0,229.5 371.0,227.0 382.0,229.5 393.0,232.0 404.0,232.0 415.0,232.0 426.0,232.0 437.0,232.0 448.0,232.0 459.0,229.5 470.0,209.6 481.0,227.0 492.0,229.5 503.0,227.0 514.0,204.6 525.0,232.0 536.0,169.8 547.0,144.9 558.0,207.1 569.0,227.0 580.0,229.5 591.0,227.0 602.0,229.5 613.0,229.5 624.0,232.0 635.0,227.0 646.0,229.5 657.0,229.5 668.0,232.0 679.0,229.5 690.0,232.0 701.0,222.0 712.0,232.0 723.0,222.0 734.0,232.0 745.0,232.0 756.0,232.0 767.0,232.0 778.0,229.5 789.0,229.5 800.0,229.5"
            fill="none" stroke="#f28e2b"
            stroke-width="2" stroke-linejoin="round"
            stroke-dasharray="5,3"/>

  <!-- dots -->
  <circle cx="52.0" cy="232.0" r="3" fill="#4e79a7"/><circle cx="63.0" cy="229.5" r="3" fill="#4e79a7"/><circle cx="74.0" cy="227.0" r="3" fill="#4e79a7"/><circle cx="85.0" cy="232.0" r="3" fill="#4e79a7"/><circle cx="96.0" cy="219.6" r="3" fill="#4e79a7"/><circle cx="107.0" cy="232.0" r="3" fill="#4e79a7"/><circle cx="118.0" cy="229.5" r="3" fill="#4e79a7"/><circle cx="129.0" cy="232.0" r="3" fill="#4e79a7"/><circle cx="140.0" cy="224.5" r="3" fill="#4e79a7"/><circle cx="151.0" cy="232.0" r="3" fill="#4e79a7"/><circle cx="162.0" cy="232.0" r="3" fill="#4e79a7"/><circle cx="173.0" cy="232.0" r="3" fill="#4e79a7"/><circle cx="184.0" cy="232.0" r="3" fill="#4e79a7"/><circle cx="195.0" cy="232.0" r="3" fill="#4e79a7"/><circle cx="206.0" cy="232.0" r="3" fill="#4e79a7"/><circle cx="217.0" cy="232.0" r="3" fill="#4e79a7"/><circle cx="228.0" cy="232.0" r="3" fill="#4e79a7"/><circle cx="239.0" cy="232.0" r="3" fill="#4e79a7"/><circle cx="250.0" cy="232.0" r="3" fill="#4e79a7"/><circle cx="261.0" cy="232.0" r="3" fill="#4e79a7"/><circle cx="272.0" cy="219.6" r="3" fill="#4e79a7"/><circle cx="283.0" cy="229.5" r="3" fill="#4e79a7"/><circle cx="294.0" cy="229.5" r="3" fill="#4e79a7"/><circle cx="305.0" cy="232.0" r="3" fill="#4e79a7"/><circle cx="316.0" cy="232.0" r="3" fill="#4e79a7"/><circle cx="327.0" cy="232.0" r="3" fill="#4e79a7"/><circle cx="338.0" cy="232.0" r="3" fill="#4e79a7"/><circle cx="349.0" cy="232.0" r="3" fill="#4e79a7"/><circle cx="360.0" cy="229.5" r="3" fill="#4e79a7"/><circle cx="371.0" cy="227.0" r="3" fill="#4e79a7"/><circle cx="382.0" cy="229.5" r="3" fill="#4e79a7"/><circle cx="393.0" cy="232.0" r="3" fill="#4e79a7"/><circle cx="404.0" cy="232.0" r="3" fill="#4e79a7"/><circle cx="415.0" cy="232.0" r="3" fill="#4e79a7"/><circle cx="426.0" cy="232.0" r="3" fill="#4e79a7"/><circle cx="437.0" cy="232.0" r="3" fill="#4e79a7"/><circle cx="448.0" cy="232.0" r="3" fill="#4e79a7"/><circle cx="459.0" cy="229.5" r="3" fill="#4e79a7"/><circle cx="470.0" cy="202.1" r="3" fill="#4e79a7"/><circle cx="481.0" cy="227.0" r="3" fill="#4e79a7"/><circle cx="492.0" cy="229.5" r="3" fill="#4e79a7"/><circle cx="503.0" cy="219.6" r="3" fill="#4e79a7"/><circle cx="514.0" cy="122.5" r="3" fill="#4e79a7"/><circle cx="525.0" cy="232.0" r="3" fill="#4e79a7"/><circle cx="536.0" cy="120.0" r="3" fill="#4e79a7"/><circle cx="547.0" cy="28.0" r="3" fill="#4e79a7"/><circle cx="558.0" cy="187.2" r="3" fill="#4e79a7"/><circle cx="569.0" cy="219.6" r="3" fill="#4e79a7"/><circle cx="580.0" cy="229.5" r="3" fill="#4e79a7"/><circle cx="591.0" cy="227.0" r="3" fill="#4e79a7"/><circle cx="602.0" cy="229.5" r="3" fill="#4e79a7"/><circle cx="613.0" cy="229.5" r="3" fill="#4e79a7"/><circle cx="624.0" cy="232.0" r="3" fill="#4e79a7"/><circle cx="635.0" cy="227.0" r="3" fill="#4e79a7"/><circle cx="646.0" cy="227.0" r="3" fill="#4e79a7"/><circle cx="657.0" cy="229.5" r="3" fill="#4e79a7"/><circle cx="668.0" cy="232.0" r="3" fill="#4e79a7"/><circle cx="679.0" cy="209.6" r="3" fill="#4e79a7"/><circle cx="690.0" cy="232.0" r="3" fill="#4e79a7"/><circle cx="701.0" cy="204.6" r="3" fill="#4e79a7"/><circle cx="712.0" cy="232.0" r="3" fill="#4e79a7"/><circle cx="723.0" cy="219.6" r="3" fill="#4e79a7"/><circle cx="734.0" cy="232.0" r="3" fill="#4e79a7"/><circle cx="745.0" cy="232.0" r="3" fill="#4e79a7"/><circle cx="756.0" cy="232.0" r="3" fill="#4e79a7"/><circle cx="767.0" cy="232.0" r="3" fill="#4e79a7"/><circle cx="778.0" cy="229.5" r="3" fill="#4e79a7"/><circle cx="789.0" cy="229.5" r="3" fill="#4e79a7"/><circle cx="800.0" cy="227.0" r="3" fill="#4e79a7"/>
  <circle cx="52.0" cy="232.0" r="3" fill="#f28e2b"/><circle cx="63.0" cy="229.5" r="3" fill="#f28e2b"/><circle cx="74.0" cy="227.0" r="3" fill="#f28e2b"/><circle cx="85.0" cy="232.0" r="3" fill="#f28e2b"/><circle cx="96.0" cy="229.5" r="3" fill="#f28e2b"/><circle cx="107.0" cy="232.0" r="3" fill="#f28e2b"/><circle cx="118.0" cy="229.5" r="3" fill="#f28e2b"/><circle cx="129.0" cy="232.0" r="3" fill="#f28e2b"/><circle cx="140.0" cy="224.5" r="3" fill="#f28e2b"/><circle cx="151.0" cy="232.0" r="3" fill="#f28e2b"/><circle cx="162.0" cy="232.0" r="3" fill="#f28e2b"/><circle cx="173.0" cy="232.0" r="3" fill="#f28e2b"/><circle cx="184.0" cy="232.0" r="3" fill="#f28e2b"/><circle cx="195.0" cy="232.0" r="3" fill="#f28e2b"/><circle cx="206.0" cy="232.0" r="3" fill="#f28e2b"/><circle cx="217.0" cy="232.0" r="3" fill="#f28e2b"/><circle cx="228.0" cy="232.0" r="3" fill="#f28e2b"/><circle cx="239.0" cy="232.0" r="3" fill="#f28e2b"/><circle cx="250.0" cy="232.0" r="3" fill="#f28e2b"/><circle cx="261.0" cy="232.0" r="3" fill="#f28e2b"/><circle cx="272.0" cy="224.5" r="3" fill="#f28e2b"/><circle cx="283.0" cy="229.5" r="3" fill="#f28e2b"/><circle cx="294.0" cy="229.5" r="3" fill="#f28e2b"/><circle cx="305.0" cy="232.0" r="3" fill="#f28e2b"/><circle cx="316.0" cy="232.0" r="3" fill="#f28e2b"/><circle cx="327.0" cy="232.0" r="3" fill="#f28e2b"/><circle cx="338.0" cy="232.0" r="3" fill="#f28e2b"/><circle cx="349.0" cy="232.0" r="3" fill="#f28e2b"/><circle cx="360.0" cy="229.5" r="3" fill="#f28e2b"/><circle cx="371.0" cy="227.0" r="3" fill="#f28e2b"/><circle cx="382.0" cy="229.5" r="3" fill="#f28e2b"/><circle cx="393.0" cy="232.0" r="3" fill="#f28e2b"/><circle cx="404.0" cy="232.0" r="3" fill="#f28e2b"/><circle cx="415.0" cy="232.0" r="3" fill="#f28e2b"/><circle cx="426.0" cy="232.0" r="3" fill="#f28e2b"/><circle cx="437.0" cy="232.0" r="3" fill="#f28e2b"/><circle cx="448.0" cy="232.0" r="3" fill="#f28e2b"/><circle cx="459.0" cy="229.5" r="3" fill="#f28e2b"/><circle cx="470.0" cy="209.6" r="3" fill="#f28e2b"/><circle cx="481.0" cy="227.0" r="3" fill="#f28e2b"/><circle cx="492.0" cy="229.5" r="3" fill="#f28e2b"/><circle cx="503.0" cy="227.0" r="3" fill="#f28e2b"/><circle cx="514.0" cy="204.6" r="3" fill="#f28e2b"/><circle cx="525.0" cy="232.0" r="3" fill="#f28e2b"/><circle cx="536.0" cy="169.8" r="3" fill="#f28e2b"/><circle cx="547.0" cy="144.9" r="3" fill="#f28e2b"/><circle cx="558.0" cy="207.1" r="3" fill="#f28e2b"/><circle cx="569.0" cy="227.0" r="3" fill="#f28e2b"/><circle cx="580.0" cy="229.5" r="3" fill="#f28e2b"/><circle cx="591.0" cy="227.0" r="3" fill="#f28e2b"/><circle cx="602.0" cy="229.5" r="3" fill="#f28e2b"/><circle cx="613.0" cy="229.5" r="3" fill="#f28e2b"/><circle cx="624.0" cy="232.0" r="3" fill="#f28e2b"/><circle cx="635.0" cy="227.0" r="3" fill="#f28e2b"/><circle cx="646.0" cy="229.5" r="3" fill="#f28e2b"/><circle cx="657.0" cy="229.5" r="3" fill="#f28e2b"/><circle cx="668.0" cy="232.0" r="3" fill="#f28e2b"/><circle cx="679.0" cy="229.5" r="3" fill="#f28e2b"/><circle cx="690.0" cy="232.0" r="3" fill="#f28e2b"/><circle cx="701.0" cy="222.0" r="3" fill="#f28e2b"/><circle cx="712.0" cy="232.0" r="3" fill="#f28e2b"/><circle cx="723.0" cy="222.0" r="3" fill="#f28e2b"/><circle cx="734.0" cy="232.0" r="3" fill="#f28e2b"/><circle cx="745.0" cy="232.0" r="3" fill="#f28e2b"/><circle cx="756.0" cy="232.0" r="3" fill="#f28e2b"/><circle cx="767.0" cy="232.0" r="3" fill="#f28e2b"/><circle cx="778.0" cy="229.5" r="3" fill="#f28e2b"/><circle cx="789.0" cy="229.5" r="3" fill="#f28e2b"/><circle cx="800.0" cy="229.5" r="3" fill="#f28e2b"/>

  <!-- axes -->
  <line x1="52" y1="28" x2="52" y2="232"
        stroke="#cccccc" stroke-width="1"/>
  <line x1="52" y1="232" x2="800" y2="232"
        stroke="#cccccc" stroke-width="1"/>

  <!-- y-axis labels -->
  <text x="47" y="236.0" text-anchor="end" font-size="10" fill="#57606a" font-family="ui-monospace, SFMono-Regular, 'SF Mono', Menlo, monospace">0</text><text x="47" y="186.2" text-anchor="end" font-size="10" fill="#57606a" font-family="ui-monospace, SFMono-Regular, 'SF Mono', Menlo, monospace">20</text><text x="47" y="136.5" text-anchor="end" font-size="10" fill="#57606a" font-family="ui-monospace, SFMono-Regular, 'SF Mono', Menlo, monospace">40</text><text x="47" y="86.7" text-anchor="end" font-size="10" fill="#57606a" font-family="ui-monospace, SFMono-Regular, 'SF Mono', Menlo, monospace">60</text><text x="47" y="37.0" text-anchor="end" font-size="10" fill="#57606a" font-family="ui-monospace, SFMono-Regular, 'SF Mono', Menlo, monospace">80</text><text x="47" y="-12.8" text-anchor="end" font-size="10" fill="#57606a" font-family="ui-monospace, SFMono-Regular, 'SF Mono', Menlo, monospace">100</text>

  <!-- x-axis labels -->
  <text x="52.0" y="248" text-anchor="middle" font-size="10" fill="#8c959f" font-family="ui-monospace, SFMono-Regular, 'SF Mono', Menlo, monospace">05-11</text><text x="404.0" y="248" text-anchor="middle" font-size="10" fill="#8c959f" font-family="ui-monospace, SFMono-Regular, 'SF Mono', Menlo, monospace">06-12</text><text x="756.0" y="248" text-anchor="middle" font-size="10" fill="#8c959f" font-family="ui-monospace, SFMono-Regular, 'SF Mono', Menlo, monospace">07-14</text><text x="800.0" y="248" text-anchor="middle" font-size="10" fill="#8c959f" font-family="ui-monospace, SFMono-Regular, 'SF Mono', Menlo, monospace">07-18</text><text x="140.0" y="248" text-anchor="middle" font-size="10" fill="#8c959f" font-family="ui-monospace, SFMono-Regular, 'SF Mono', Menlo, monospace">05-19</text><text x="492.0" y="248" text-anchor="middle" font-size="10" fill="#8c959f" font-family="ui-monospace, SFMono-Regular, 'SF Mono', Menlo, monospace">06-20</text><text x="228.0" y="248" text-anchor="middle" font-size="10" fill="#8c959f" font-family="ui-monospace, SFMono-Regular, 'SF Mono', Menlo, monospace">05-27</text><text x="580.0" y="248" text-anchor="middle" font-size="10" fill="#8c959f" font-family="ui-monospace, SFMono-Regular, 'SF Mono', Menlo, monospace">06-28</text><text x="316.0" y="248" text-anchor="middle" font-size="10" fill="#8c959f" font-family="ui-monospace, SFMono-Regular, 'SF Mono', Menlo, monospace">06-04</text><text x="668.0" y="248" text-anchor="middle" font-size="10" fill="#8c959f" font-family="ui-monospace, SFMono-Regular, 'SF Mono', Menlo, monospace">07-06</text>

  <!-- legend -->
  <rect x="60" y="262" width="16" height="3" fill="#4e79a7" rx="1"/><text x="80" y="268" font-size="11" fill="#57606a" font-family="-apple-system, BlinkMacSystemFont, 'Segoe UI', sans-serif">Total clones (277)</text><line x1="230" y1="264" x2="246" y2="264" stroke="#f28e2b" stroke-width="2" stroke-dasharray="5,3"/><text x="250" y="268" font-size="11" fill="#57606a" font-family="-apple-system, BlinkMacSystemFont, 'Segoe UI', sans-serif">Unique cloners</text>

</svg>