<svg xmlns="http://www.w3.org/2000/svg" viewBox="0 0 820 280" width="820" height="280">

  <!-- title -->
  <text x="52" y="18" font-size="13" font-weight="600"
        fill="#24292f" font-family="-apple-system, BlinkMacSystemFont, 'Segoe UI', sans-serif"
        >Clone traffic — docforge</text>
  <text x="800" y="18" font-size="10" fill="#8c959f"
        font-family="ui-monospace, SFMono-Regular, 'SF Mono', Menlo, monospace" text-anchor="end">2026-06-27</text>

  <!-- grid -->
  <line x1="52" y1="232.0" x2="800" y2="232.0" stroke="#e8e8e8" stroke-width="1"/><line x1="52" y1="189.1" x2="800" y2="189.1" stroke="#e8e8e8" stroke-width="1"/><line x1="52" y1="146.1" x2="800" y2="146.1" stroke="#e8e8e8" stroke-width="1"/><line x1="52" y1="103.2" x2="800" y2="103.2" stroke="#e8e8e8" stroke-width="1"/><line x1="52" y1="60.2" x2="800" y2="60.2" stroke="#e8e8e8" stroke-width="1"/><line x1="52" y1="17.3" x2="800" y2="17.3" stroke="#e8e8e8" stroke-width="1"/>

  <!-- area fill -->
  <path d="M52.0,232.0 L52.0,232.0 L68.6,210.5 L85.2,210.5 L101.9,232.0 L118.5,221.3 L135.1,232.0 L151.7,232.0 L168.4,221.3 L185.0,232.0 L201.6,221.3 L218.2,232.0 L234.8,232.0 L251.5,232.0 L268.1,92.4 L284.7,49.5 L301.3,60.2 L318.0,221.3 L334.6,232.0 L351.2,221.3 L367.8,232.0 L384.4,221.3 L401.1,232.0 L417.7,221.3 L434.3,232.0 L450.9,232.0 L467.6,221.3 L484.2,232.0 L500.8,232.0 L517.4,221.3 L534.0,199.8 L550.7,210.5 L567.3,232.0 L583.9,232.0 L600.5,210.5 L617.2,210.5 L633.8,221.3 L650.4,221.3 L667.0,232.0 L683.6,28.0 L700.3,49.5 L716.9,232.0 L733.5,221.3 L750.1,221.3 L766.8,221.3 L783.4,221.3 L800.0,232.0 L800.0,232.0 L52.0,232.0Z" fill="#4e79a7" opacity="0.12"/>

  <!-- lines -->
  <polyline points="52.0,232.0 68.6,210.5 85.2,210.5 101.9,232.0 118.5,221.3 135.1,232.0 151.7,232.0 168.4,221.3 185.0,232.0 201.6,221.3 218.2,232.0 234.8,232.0 251.5,232.0 268.1,92.4 284.7,49.5 301.3,60.2 318.0,221.3 334.6,232.0 351.2,221.3 367.8,232.0 384.4,221.3 401.1,232.0 417.7,221.3 434.3,232.0 450.9,232.0 467.6,221.3 484.2,232.0 500.8,232.0 517.4,221.3 534.0,199.8 550.7,210.5 567.3,232.0 583.9,232.0 600.5,210.5 617.2,210.5 633.8,221.3 650.4,221.3 667.0,232.0 683.6,28.0 700.3,49.5 716.9,232.0 733.5,221.3 750.1,221.3 766.8,221.3 783.4,221.3 800.0,232.0"
            fill="none" stroke="#4e79a7"
            stroke-width="2" stroke-linejoin="round"/>
  <polyline points="52.0,232.0 68.6,210.5 85.2,210.5 101.9,232.0 118.5,221.3 135.1,232.0 151.7,232.0 168.4,221.3 185.0,232.0 201.6,221.3 218.2,232.0 234.8,232.0 251.5,232.0 268.1,124.6 284.7,103.2 301.3,103.2 318.0,221.3 334.6,232.0 351.2,221.3 367.8,232.0 384.4,221.3 401.1,232.0 417.7,221.3 434.3,232.0 450.9,232.0 467.6,221.3 484.2,232.0 500.8,232.0 517.4,221.3 534.0,210.5 550.7,210.5 567.3,232.0 583.9,232.0 600.5,221.3 617.2,210.5 633.8,221.3 650.4,221.3 667.0,232.0 683.6,146.1 700.3,167.6 716.9,232.0 733.5,221.3 750.1,221.3 766.8,221.3 783.4,221.3 800.0,232.0"
            fill="none" stroke="#f28e2b"
            stroke-width="2" stroke-linejoin="round"
            stroke-dasharray="5,3"/>

  <!-- dots -->
  <circle cx="52.0" cy="232.0" r="3" fill="#4e79a7"/><circle cx="68.6" cy="210.5" r="3" fill="#4e79a7"/><circle cx="85.2" cy="210.5" r="3" fill="#4e79a7"/><circle cx="101.9" cy="232.0" r="3" fill="#4e79a7"/><circle cx="118.5" cy="221.3" r="3" fill="#4e79a7"/><circle cx="135.1" cy="232.0" r="3" fill="#4e79a7"/><circle cx="151.7" cy="232.0" r="3" fill="#4e79a7"/><circle cx="168.4" cy="221.3" r="3" fill="#4e79a7"/><circle cx="185.0" cy="232.0" r="3" fill="#4e79a7"/><circle cx="201.6" cy="221.3" r="3" fill="#4e79a7"/><circle cx="218.2" cy="232.0" r="3" fill="#4e79a7"/><circle cx="234.8" cy="232.0" r="3" fill="#4e79a7"/><circle cx="251.5" cy="232.0" r="3" fill="#4e79a7"/><circle cx="268.1" cy="92.4" r="3" fill="#4e79a7"/><circle cx="284.7" cy="49.5" r="3" fill="#4e79a7"/><circle cx="301.3" cy="60.2" r="3" fill="#4e79a7"/><circle cx="318.0" cy="221.3" r="3" fill="#4e79a7"/><circle cx="334.6" cy="232.0" r="3" fill="#4e79a7"/><circle cx="351.2" cy="221.3" r="3" fill="#4e79a7"/><circle cx="367.8" cy="232.0" r="3" fill="#4e79a7"/><circle cx="384.4" cy="221.3" r="3" fill="#4e79a7"/><circle cx="401.1" cy="232.0" r="3" fill="#4e79a7"/><circle cx="417.7" cy="221.3" r="3" fill="#4e79a7"/><circle cx="434.3" cy="232.0" r="3" fill="#4e79a7"/><circle cx="450.9" cy="232.0" r="3" fill="#4e79a7"/><circle cx="467.6" cy="221.3" r="3" fill="#4e79a7"/><circle cx="484.2" cy="232.0" r="3" fill="#4e79a7"/><circle cx="500.8" cy="232.0" r="3" fill="#4e79a7"/><circle cx="517.4" cy="221.3" r="3" fill="#4e79a7"/><circle cx="534.0" cy="199.8" r="3" fill="#4e79a7"/><circle cx="550.7" cy="210.5" r="3" fill="#4e79a7"/><circle cx="567.3" cy="232.0" r="3" fill="#4e79a7"/><circle cx="583.9" cy="232.0" r="3" fill="#4e79a7"/><circle cx="600.5" cy="210.5" r="3" fill="#4e79a7"/><circle cx="617.2" cy="210.5" r="3" fill="#4e79a7"/><circle cx="633.8" cy="221.3" r="3" fill="#4e79a7"/><circle cx="650.4" cy="221.3" r="3" fill="#4e79a7"/><circle cx="667.0" cy="232.0" r="3" fill="#4e79a7"/><circle cx="683.6" cy="28.0" r="3" fill="#4e79a7"/><circle cx="700.3" cy="49.5" r="3" fill="#4e79a7"/><circle cx="716.9" cy="232.0" r="3" fill="#4e79a7"/><circle cx="733.5" cy="221.3" r="3" fill="#4e79a7"/><circle cx="750.1" cy="221.3" r="3" fill="#4e79a7"/><circle cx="766.8" cy="221.3" r="3" fill="#4e79a7"/><circle cx="783.4" cy="221.3" r="3" fill="#4e79a7"/><circle cx="800.0" cy="232.0" r="3" fill="#4e79a7"/>
  <circle cx="52.0" cy="232.0" r="3" fill="#f28e2b"/><circle cx="68.6" cy="210.5" r="3" fill="#f28e2b"/><circle cx="85.2" cy="210.5" r="3" fill="#f28e2b"/><circle cx="101.9" cy="232.0" r="3" fill="#f28e2b"/><circle cx="118.5" cy="221.3" r="3" fill="#f28e2b"/><circle cx="135.1" cy="232.0" r="3" fill="#f28e2b"/><circle cx="151.7" cy="232.0" r="3" fill="#f28e2b"/><circle cx="168.4" cy="221.3" r="3" fill="#f28e2b"/><circle cx="185.0" cy="232.0" r="3" fill="#f28e2b"/><circle cx="201.6" cy="221.3" r="3" fill="#f28e2b"/><circle cx="218.2" cy="232.0" r="3" fill="#f28e2b"/><circle cx="234.8" cy="232.0" r="3" fill="#f28e2b"/><circle cx="251.5" cy="232.0" r="3" fill="#f28e2b"/><circle cx="268.1" cy="124.6" r="3" fill="#f28e2b"/><circle cx="284.7" cy="103.2" r="3" fill="#f28e2b"/><circle cx="301.3" cy="103.2" r="3" fill="#f28e2b"/><circle cx="318.0" cy="221.3" r="3" fill="#f28e2b"/><circle cx="334.6" cy="232.0" r="3" fill="#f28e2b"/><circle cx="351.2" cy="221.3" r="3" fill="#f28e2b"/><circle cx="367.8" cy="232.0" r="3" fill="#f28e2b"/><circle cx="384.4" cy="221.3" r="3" fill="#f28e2b"/><circle cx="401.1" cy="232.0" r="3" fill="#f28e2b"/><circle cx="417.7" cy="221.3" r="3" fill="#f28e2b"/><circle cx="434.3" cy="232.0" r="3" fill="#f28e2b"/><circle cx="450.9" cy="232.0" r="3" fill="#f28e2b"/><circle cx="467.6" cy="221.3" r="3" fill="#f28e2b"/><circle cx="484.2" cy="232.0" r="3" fill="#f28e2b"/><circle cx="500.8" cy="232.0" r="3" fill="#f28e2b"/><circle cx="517.4" cy="221.3" r="3" fill="#f28e2b"/><circle cx="534.0" cy="210.5" r="3" fill="#f28e2b"/><circle cx="550.7" cy="210.5" r="3" fill="#f28e2b"/><circle cx="567.3" cy="232.0" r="3" fill="#f28e2b"/><circle cx="583.9" cy="232.0" r="3" fill="#f28e2b"/><circle cx="600.5" cy="221.3" r="3" fill="#f28e2b"/><circle cx="617.2" cy="210.5" r="3" fill="#f28e2b"/><circle cx="633.8" cy="221.3" r="3" fill="#f28e2b"/><circle cx="650.4" cy="221.3" r="3" fill="#f28e2b"/><circle cx="667.0" cy="232.0" r="3" fill="#f28e2b"/><circle cx="683.6" cy="146.1" r="3" fill="#f28e2b"/><circle cx="700.3" cy="167.6" r="3" fill="#f28e2b"/><circle cx="716.9" cy="232.0" r="3" fill="#f28e2b"/><circle cx="733.5" cy="221.3" r="3" fill="#f28e2b"/><circle cx="750.1" cy="221.3" r="3" fill="#f28e2b"/><circle cx="766.8" cy="221.3" r="3" fill="#f28e2b"/><circle cx="783.4" cy="221.3" r="3" fill="#f28e2b"/><circle cx="800.0" cy="232.0" r="3" fill="#f28e2b"/>

  <!-- axes -->
  <line x1="52" y1="28" x2="52" y2="232"
        stroke="#cccccc" stroke-width="1"/>
  <line x1="52" y1="232" x2="800" y2="232"
        stroke="#cccccc" stroke-width="1"/>

  <!-- y-axis labels -->
  <text x="47" y="236.0" text-anchor="end" font-size="10" fill="#57606a" font-family="ui-monospace, SFMono-Regular, 'SF Mono', Menlo, monospace">0</text><text x="47" y="193.1" text-anchor="end" font-size="10" fill="#57606a" font-family="ui-monospace, SFMono-Regular, 'SF Mono', Menlo, monospace">4</text><text x="47" y="150.1" text-anchor="end" font-size="10" fill="#57606a" font-family="ui-monospace, SFMono-Regular, 'SF Mono', Menlo, monospace">8</text><text x="47" y="107.2" text-anchor="end" font-size="10" fill="#57606a" font-family="ui-monospace, SFMono-Regular, 'SF Mono', Menlo, monospace">12</text><text x="47" y="64.2" text-anchor="end" font-size="10" fill="#57606a" font-family="ui-monospace, SFMono-Regular, 'SF Mono', Menlo, monospace">16</text><text x="47" y="21.3" text-anchor="end" font-size="10" fill="#57606a" font-family="ui-monospace, SFMono-Regular, 'SF Mono', Menlo, monospace">20</text>

  <!-- x-axis labels -->
  <text x="52.0" y="248" text-anchor="middle" font-size="10" fill="#8c959f" font-family="ui-monospace, SFMono-Regular, 'SF Mono', Menlo, monospace">05-11</text><text x="633.8" y="248" text-anchor="middle" font-size="10" fill="#8c959f" font-family="ui-monospace, SFMono-Regular, 'SF Mono', Menlo, monospace">06-15</text><text x="135.1" y="248" text-anchor="middle" font-size="10" fill="#8c959f" font-family="ui-monospace, SFMono-Regular, 'SF Mono', Menlo, monospace">05-16</text><text x="716.9" y="248" text-anchor="middle" font-size="10" fill="#8c959f" font-family="ui-monospace, SFMono-Regular, 'SF Mono', Menlo, monospace">06-20</text><text x="218.2" y="248" text-anchor="middle" font-size="10" fill="#8c959f" font-family="ui-monospace, SFMono-Regular, 'SF Mono', Menlo, monospace">05-21</text><text x="800.0" y="248" text-anchor="middle" font-size="10" fill="#8c959f" font-family="ui-monospace, SFMono-Regular, 'SF Mono', Menlo, monospace">06-25</text><text x="301.3" y="248" text-anchor="middle" font-size="10" fill="#8c959f" font-family="ui-monospace, SFMono-Regular, 'SF Mono', Menlo, monospace">05-26</text><text x="384.4" y="248" text-anchor="middle" font-size="10" fill="#8c959f" font-family="ui-monospace, SFMono-Regular, 'SF Mono', Menlo, monospace">05-31</text><text x="467.6" y="248" text-anchor="middle" font-size="10" fill="#8c959f" font-family="ui-monospace, SFMono-Regular, 'SF Mono', Menlo, monospace">06-05</text><text x="550.7" y="248" text-anchor="middle" font-size="10" fill="#8c959f" font-family="ui-monospace, SFMono-Regular, 'SF Mono', Menlo, monospace">06-10</text>

  <!-- legend -->
  <rect x="60" y="262" width="16" height="3" fill="#4e79a7" rx="1"/><text x="80" y="268" font-size="11" fill="#57606a" font-family="-apple-system, BlinkMacSystemFont, 'Segoe UI', sans-serif">Total clones (110)</text><line x1="230" y1="264" x2="246" y2="264" stroke="#f28e2b" stroke-width="2" stroke-dasharray="5,3"/><text x="250" y="268" font-size="11" fill="#57606a" font-family="-apple-system, BlinkMacSystemFont, 'Segoe UI', sans-serif">Unique cloners</text>

</svg>