<svg xmlns="http://www.w3.org/2000/svg" viewBox="0 0 820 280" width="820" height="280">

  <!-- title -->
  <text x="52" y="18" font-size="13" font-weight="600"
        fill="#24292f" font-family="-apple-system, BlinkMacSystemFont, 'Segoe UI', sans-serif"
        >Clone traffic — docforge</text>
  <text x="800" y="18" font-size="10" fill="#8c959f"
        font-family="ui-monospace, SFMono-Regular, 'SF Mono', Menlo, monospace" text-anchor="end">2026-07-19</text>

  <!-- grid -->
  <line x1="52" y1="232.0" x2="800" y2="232.0" stroke="#e8e8e8" stroke-width="1"/><line x1="52" y1="189.1" x2="800" y2="189.1" stroke="#e8e8e8" stroke-width="1"/><line x1="52" y1="146.1" x2="800" y2="146.1" stroke="#e8e8e8" stroke-width="1"/><line x1="52" y1="103.2" x2="800" y2="103.2" stroke="#e8e8e8" stroke-width="1"/><line x1="52" y1="60.2" x2="800" y2="60.2" stroke="#e8e8e8" stroke-width="1"/><line x1="52" y1="17.3" x2="800" y2="17.3" stroke="#e8e8e8" stroke-width="1"/>

  <!-- area fill -->
  <path d="M52.0,232.0 L52.0,232.0 L63.2,210.5 L74.3,210.5 L85.5,232.0 L96.7,221.3 L107.8,232.0 L119.0,232.0 L130.1,221.3 L141.3,232.0 L152.5,221.3 L163.6,232.0 L174.8,232.0 L186.0,232.0 L197.1,92.4 L208.3,49.5 L219.5,60.2 L230.6,221.3 L241.8,232.0 L253.0,221.3 L264.1,232.0 L275.3,221.3 L286.4,232.0 L297.6,221.3 L308.8,232.0 L319.9,232.0 L331.1,221.3 L342.3,232.0 L353.4,232.0 L364.6,221.3 L375.8,199.8 L386.9,210.5 L398.1,232.0 L409.3,232.0 L420.4,210.5 L431.6,210.5 L442.7,221.3 L453.9,221.3 L465.1,232.0 L476.2,28.0 L487.4,49.5 L498.6,232.0 L509.7,221.3 L520.9,221.3 L532.1,221.3 L543.2,221.3 L554.4,232.0 L565.6,232.0 L576.7,232.0 L587.9,210.5 L599.0,232.0 L610.2,210.5 L621.4,232.0 L632.5,232.0 L643.7,232.0 L654.9,221.3 L666.0,221.3 L677.2,232.0 L688.4,232.0 L699.5,232.0 L710.7,232.0 L721.9,232.0 L733.0,221.3 L744.2,221.3 L755.3,232.0 L766.5,232.0 L777.7,221.3 L788.8,221.3 L800.0,232.0 L800.0,232.0 L52.0,232.0Z" fill="#4e79a7" opacity="0.12"/>

  <!-- lines -->
  <polyline points="52.0,232.0 63.2,210.5 74.3,210.5 85.5,232.0 96.7,221.3 107.8,232.0 119.0,232.0 130.1,221.3 141.3,232.0 152.5,221.3 163.6,232.0 174.8,232.0 186.0,232.0 197.1,92.4 208.3,49.5 219.5,60.2 230.6,221.3 241.8,232.0 253.0,221.3 264.1,232.0 275.3,221.3 286.4,232.0 297.6,221.3 308.8,232.0 319.9,232.0 331.1,221.3 342.3,232.0 353.4,232.0 364.6,221.3 375.8,199.8 386.9,210.5 398.1,232.0 409.3,232.0 420.4,210.5 431.6,210.5 442.7,221.3 453.9,221.3 465.1,232.0 476.2,28.0 487.4,49.5 498.6,232.0 509.7,221.3 520.9,221.3 532.1,221.3 543.2,221.3 554.4,232.0 565.6,232.0 576.7,232.0 587.9,210.5 599.0,232.0 610.2,210.5 621.4,232.0 632.5,232.0 643.7,232.0 654.9,221.3 666.0,221.3 677.2,232.0 688.4,232.0 699.5,232.0 710.7,232.0 721.9,232.0 733.0,221.3 744.2,221.3 755.3,232.0 766.5,232.0 777.7,221.3 788.8,221.3 800.0,232.0"
            fill="none" stroke="#4e79a7"
            stroke-width="2" stroke-linejoin="round"/>
  <polyline points="52.0,232.0 63.2,210.5 74.3,210.5 85.5,232.0 96.7,221.3 107.8,232.0 119.0,232.0 130.1,221.3 141.3,232.0 152.5,221.3 163.6,232.0 174.8,232.0 186.0,232.0 197.1,124.6 208.3,103.2 219.5,103.2 230.6,221.3 241.8,232.0 253.0,221.3 264.1,232.0 275.3,221.3 286.4,232.0 297.6,221.3 308.8,232.0 319.9,232.0 331.1,221.3 342.3,232.0 353.4,232.0 364.6,221.3 375.8,210.5 386.9,210.5 398.1,232.0 409.3,232.0 420.4,221.3 431.6,210.5 442.7,221.3 453.9,221.3 465.1,232.0 476.2,146.1 487.4,167.6 498.6,232.0 509.7,221.3 520.9,221.3 532.1,221.3 543.2,221.3 554.4,232.0 565.6,232.0 576.7,232.0 587.9,210.5 599.0,232.0 610.2,210.5 621.4,232.0 632.5,232.0 643.7,232.0 654.9,221.3 666.0,221.3 677.2,232.0 688.4,232.0 699.5,232.0 710.7,232.0 721.9,232.0 733.0,221.3 744.2,221.3 755.3,232.0 766.5,232.0 777.7,221.3 788.8,221.3 800.0,232.0"
            fill="none" stroke="#f28e2b"
            stroke-width="2" stroke-linejoin="round"
            stroke-dasharray="5,3"/>

  <!-- dots -->
  <circle cx="52.0" cy="232.0" r="3" fill="#4e79a7"/><circle cx="63.2" cy="210.5" r="3" fill="#4e79a7"/><circle cx="74.3" cy="210.5" r="3" fill="#4e79a7"/><circle cx="85.5" cy="232.0" r="3" fill="#4e79a7"/><circle cx="96.7" cy="221.3" r="3" fill="#4e79a7"/><circle cx="107.8" cy="232.0" r="3" fill="#4e79a7"/><circle cx="119.0" cy="232.0" r="3" fill="#4e79a7"/><circle cx="130.1" cy="221.3" r="3" fill="#4e79a7"/><circle cx="141.3" cy="232.0" r="3" fill="#4e79a7"/><circle cx="152.5" cy="221.3" r="3" fill="#4e79a7"/><circle cx="163.6" cy="232.0" r="3" fill="#4e79a7"/><circle cx="174.8" cy="232.0" r="3" fill="#4e79a7"/><circle cx="186.0" cy="232.0" r="3" fill="#4e79a7"/><circle cx="197.1" cy="92.4" r="3" fill="#4e79a7"/><circle cx="208.3" cy="49.5" r="3" fill="#4e79a7"/><circle cx="219.5" cy="60.2" r="3" fill="#4e79a7"/><circle cx="230.6" cy="221.3" r="3" fill="#4e79a7"/><circle cx="241.8" cy="232.0" r="3" fill="#4e79a7"/><circle cx="253.0" cy="221.3" r="3" fill="#4e79a7"/><circle cx="264.1" cy="232.0" r="3" fill="#4e79a7"/><circle cx="275.3" cy="221.3" r="3" fill="#4e79a7"/><circle cx="286.4" cy="232.0" r="3" fill="#4e79a7"/><circle cx="297.6" cy="221.3" r="3" fill="#4e79a7"/><circle cx="308.8" cy="232.0" r="3" fill="#4e79a7"/><circle cx="319.9" cy="232.0" r="3" fill="#4e79a7"/><circle cx="331.1" cy="221.3" r="3" fill="#4e79a7"/><circle cx="342.3" cy="232.0" r="3" fill="#4e79a7"/><circle cx="353.4" cy="232.0" r="3" fill="#4e79a7"/><circle cx="364.6" cy="221.3" r="3" fill="#4e79a7"/><circle cx="375.8" cy="199.8" r="3" fill="#4e79a7"/><circle cx="386.9" cy="210.5" r="3" fill="#4e79a7"/><circle cx="398.1" cy="232.0" r="3" fill="#4e79a7"/><circle cx="409.3" cy="232.0" r="3" fill="#4e79a7"/><circle cx="420.4" cy="210.5" r="3" fill="#4e79a7"/><circle cx="431.6" cy="210.5" r="3" fill="#4e79a7"/><circle cx="442.7" cy="221.3" r="3" fill="#4e79a7"/><circle cx="453.9" cy="221.3" r="3" fill="#4e79a7"/><circle cx="465.1" cy="232.0" r="3" fill="#4e79a7"/><circle cx="476.2" cy="28.0" r="3" fill="#4e79a7"/><circle cx="487.4" cy="49.5" r="3" fill="#4e79a7"/><circle cx="498.6" cy="232.0" r="3" fill="#4e79a7"/><circle cx="509.7" cy="221.3" r="3" fill="#4e79a7"/><circle cx="520.9" cy="221.3" r="3" fill="#4e79a7"/><circle cx="532.1" cy="221.3" r="3" fill="#4e79a7"/><circle cx="543.2" cy="221.3" r="3" fill="#4e79a7"/><circle cx="554.4" cy="232.0" r="3" fill="#4e79a7"/><circle cx="565.6" cy="232.0" r="3" fill="#4e79a7"/><circle cx="576.7" cy="232.0" r="3" fill="#4e79a7"/><circle cx="587.9" cy="210.5" r="3" fill="#4e79a7"/><circle cx="599.0" cy="232.0" r="3" fill="#4e79a7"/><circle cx="610.2" cy="210.5" r="3" fill="#4e79a7"/><circle cx="621.4" cy="232.0" r="3" fill="#4e79a7"/><circle cx="632.5" cy="232.0" r="3" fill="#4e79a7"/><circle cx="643.7" cy="232.0" r="3" fill="#4e79a7"/><circle cx="654.9" cy="221.3" r="3" fill="#4e79a7"/><circle cx="666.0" cy="221.3" r="3" fill="#4e79a7"/><circle cx="677.2" cy="232.0" r="3" fill="#4e79a7"/><circle cx="688.4" cy="232.0" r="3" fill="#4e79a7"/><circle cx="699.5" cy="232.0" r="3" fill="#4e79a7"/><circle cx="710.7" cy="232.0" r="3" fill="#4e79a7"/><circle cx="721.9" cy="232.0" r="3" fill="#4e79a7"/><circle cx="733.0" cy="221.3" r="3" fill="#4e79a7"/><circle cx="744.2" cy="221.3" r="3" fill="#4e79a7"/><circle cx="755.3" cy="232.0" r="3" fill="#4e79a7"/><circle cx="766.5" cy="232.0" r="3" fill="#4e79a7"/><circle cx="777.7" cy="221.3" r="3" fill="#4e79a7"/><circle cx="788.8" cy="221.3" r="3" fill="#4e79a7"/><circle cx="800.0" cy="232.0" r="3" fill="#4e79a7"/>
  <circle cx="52.0" cy="232.0" r="3" fill="#f28e2b"/><circle cx="63.2" cy="210.5" r="3" fill="#f28e2b"/><circle cx="74.3" cy="210.5" r="3" fill="#f28e2b"/><circle cx="85.5" cy="232.0" r="3" fill="#f28e2b"/><circle cx="96.7" cy="221.3" r="3" fill="#f28e2b"/><circle cx="107.8" cy="232.0" r="3" fill="#f28e2b"/><circle cx="119.0" cy="232.0" r="3" fill="#f28e2b"/><circle cx="130.1" cy="221.3" r="3" fill="#f28e2b"/><circle cx="141.3" cy="232.0" r="3" fill="#f28e2b"/><circle cx="152.5" cy="221.3" r="3" fill="#f28e2b"/><circle cx="163.6" cy="232.0" r="3" fill="#f28e2b"/><circle cx="174.8" cy="232.0" r="3" fill="#f28e2b"/><circle cx="186.0" cy="232.0" r="3" fill="#f28e2b"/><circle cx="197.1" cy="124.6" r="3" fill="#f28e2b"/><circle cx="208.3" cy="103.2" r="3" fill="#f28e2b"/><circle cx="219.5" cy="103.2" r="3" fill="#f28e2b"/><circle cx="230.6" cy="221.3" r="3" fill="#f28e2b"/><circle cx="241.8" cy="232.0" r="3" fill="#f28e2b"/><circle cx="253.0" cy="221.3" r="3" fill="#f28e2b"/><circle cx="264.1" cy="232.0" r="3" fill="#f28e2b"/><circle cx="275.3" cy="221.3" r="3" fill="#f28e2b"/><circle cx="286.4" cy="232.0" r="3" fill="#f28e2b"/><circle cx="297.6" cy="221.3" r="3" fill="#f28e2b"/><circle cx="308.8" cy="232.0" r="3" fill="#f28e2b"/><circle cx="319.9" cy="232.0" r="3" fill="#f28e2b"/><circle cx="331.1" cy="221.3" r="3" fill="#f28e2b"/><circle cx="342.3" cy="232.0" r="3" fill="#f28e2b"/><circle cx="353.4" cy="232.0" r="3" fill="#f28e2b"/><circle cx="364.6" cy="221.3" r="3" fill="#f28e2b"/><circle cx="375.8" cy="210.5" r="3" fill="#f28e2b"/><circle cx="386.9" cy="210.5" r="3" fill="#f28e2b"/><circle cx="398.1" cy="232.0" r="3" fill="#f28e2b"/><circle cx="409.3" cy="232.0" r="3" fill="#f28e2b"/><circle cx="420.4" cy="221.3" r="3" fill="#f28e2b"/><circle cx="431.6" cy="210.5" r="3" fill="#f28e2b"/><circle cx="442.7" cy="221.3" r="3" fill="#f28e2b"/><circle cx="453.9" cy="221.3" r="3" fill="#f28e2b"/><circle cx="465.1" cy="232.0" r="3" fill="#f28e2b"/><circle cx="476.2" cy="146.1" r="3" fill="#f28e2b"/><circle cx="487.4" cy="167.6" r="3" fill="#f28e2b"/><circle cx="498.6" cy="232.0" r="3" fill="#f28e2b"/><circle cx="509.7" cy="221.3" r="3" fill="#f28e2b"/><circle cx="520.9" cy="221.3" r="3" fill="#f28e2b"/><circle cx="532.1" cy="221.3" r="3" fill="#f28e2b"/><circle cx="543.2" cy="221.3" r="3" fill="#f28e2b"/><circle cx="554.4" cy="232.0" r="3" fill="#f28e2b"/><circle cx="565.6" cy="232.0" r="3" fill="#f28e2b"/><circle cx="576.7" cy="232.0" r="3" fill="#f28e2b"/><circle cx="587.9" cy="210.5" r="3" fill="#f28e2b"/><circle cx="599.0" cy="232.0" r="3" fill="#f28e2b"/><circle cx="610.2" cy="210.5" r="3" fill="#f28e2b"/><circle cx="621.4" cy="232.0" r="3" fill="#f28e2b"/><circle cx="632.5" cy="232.0" r="3" fill="#f28e2b"/><circle cx="643.7" cy="232.0" r="3" fill="#f28e2b"/><circle cx="654.9" cy="221.3" r="3" fill="#f28e2b"/><circle cx="666.0" cy="221.3" r="3" fill="#f28e2b"/><circle cx="677.2" cy="232.0" r="3" fill="#f28e2b"/><circle cx="688.4" cy="232.0" r="3" fill="#f28e2b"/><circle cx="699.5" cy="232.0" r="3" fill="#f28e2b"/><circle cx="710.7" cy="232.0" r="3" fill="#f28e2b"/><circle cx="721.9" cy="232.0" r="3" fill="#f28e2b"/><circle cx="733.0" cy="221.3" r="3" fill="#f28e2b"/><circle cx="744.2" cy="221.3" r="3" fill="#f28e2b"/><circle cx="755.3" cy="232.0" r="3" fill="#f28e2b"/><circle cx="766.5" cy="232.0" r="3" fill="#f28e2b"/><circle cx="777.7" cy="221.3" r="3" fill="#f28e2b"/><circle cx="788.8" cy="221.3" r="3" fill="#f28e2b"/><circle cx="800.0" cy="232.0" r="3" fill="#f28e2b"/>

  <!-- axes -->
  <line x1="52" y1="28" x2="52" y2="232"
        stroke="#cccccc" stroke-width="1"/>
  <line x1="52" y1="232" x2="800" y2="232"
        stroke="#cccccc" stroke-width="1"/>

  <!-- y-axis labels -->
  <text x="47" y="236.0" text-anchor="end" font-size="10" fill="#57606a" font-family="ui-monospace, SFMono-Regular, 'SF Mono', Menlo, monospace">0</text><text x="47" y="193.1" text-anchor="end" font-size="10" fill="#57606a" font-family="ui-monospace, SFMono-Regular, 'SF Mono', Menlo, monospace">4</text><text x="47" y="150.1" text-anchor="end" font-size="10" fill="#57606a" font-family="ui-monospace, SFMono-Regular, 'SF Mono', Menlo, monospace">8</text><text x="47" y="107.2" text-anchor="end" font-size="10" fill="#57606a" font-family="ui-monospace, SFMono-Regular, 'SF Mono', Menlo, monospace">12</text><text x="47" y="64.2" text-anchor="end" font-size="10" fill="#57606a" font-family="ui-monospace, SFMono-Regular, 'SF Mono', Menlo, monospace">16</text><text x="47" y="21.3" text-anchor="end" font-size="10" fill="#57606a" font-family="ui-monospace, SFMono-Regular, 'SF Mono', Menlo, monospace">20</text>

  <!-- x-axis labels -->
  <text x="52.0" y="248" text-anchor="middle" font-size="10" fill="#8c959f" font-family="ui-monospace, SFMono-Regular, 'SF Mono', Menlo, monospace">05-11</text><text x="409.3" y="248" text-anchor="middle" font-size="10" fill="#8c959f" font-family="ui-monospace, SFMono-Regular, 'SF Mono', Menlo, monospace">06-12</text><text x="766.5" y="248" text-anchor="middle" font-size="10" fill="#8c959f" font-family="ui-monospace, SFMono-Regular, 'SF Mono', Menlo, monospace">07-14</text><text x="800.0" y="248" text-anchor="middle" font-size="10" fill="#8c959f" font-family="ui-monospace, SFMono-Regular, 'SF Mono', Menlo, monospace">07-17</text><text x="141.3" y="248" text-anchor="middle" font-size="10" fill="#8c959f" font-family="ui-monospace, SFMono-Regular, 'SF Mono', Menlo, monospace">05-19</text><text x="498.6" y="248" text-anchor="middle" font-size="10" fill="#8c959f" font-family="ui-monospace, SFMono-Regular, 'SF Mono', Menlo, monospace">06-20</text><text x="230.6" y="248" text-anchor="middle" font-size="10" fill="#8c959f" font-family="ui-monospace, SFMono-Regular, 'SF Mono', Menlo, monospace">05-27</text><text x="587.9" y="248" text-anchor="middle" font-size="10" fill="#8c959f" font-family="ui-monospace, SFMono-Regular, 'SF Mono', Menlo, monospace">06-28</text><text x="319.9" y="248" text-anchor="middle" font-size="10" fill="#8c959f" font-family="ui-monospace, SFMono-Regular, 'SF Mono', Menlo, monospace">06-04</text><text x="677.2" y="248" text-anchor="middle" font-size="10" fill="#8c959f" font-family="ui-monospace, SFMono-Regular, 'SF Mono', Menlo, monospace">07-06</text>

  <!-- legend -->
  <rect x="60" y="262" width="16" height="3" fill="#4e79a7" rx="1"/><text x="80" y="268" font-size="11" fill="#57606a" font-family="-apple-system, BlinkMacSystemFont, 'Segoe UI', sans-serif">Total clones (120)</text><line x1="230" y1="264" x2="246" y2="264" stroke="#f28e2b" stroke-width="2" stroke-dasharray="5,3"/><text x="250" y="268" font-size="11" fill="#57606a" font-family="-apple-system, BlinkMacSystemFont, 'Segoe UI', sans-serif">Unique cloners</text>

</svg>