<svg xmlns="http://www.w3.org/2000/svg" viewBox="0 0 820 280" width="820" height="280">

  <!-- title -->
  <text x="52" y="18" font-size="13" font-weight="600"
        fill="#24292f" font-family="-apple-system, BlinkMacSystemFont, 'Segoe UI', sans-serif"
        >Clone traffic — docforge</text>
  <text x="800" y="18" font-size="10" fill="#8c959f"
        font-family="ui-monospace, SFMono-Regular, 'SF Mono', Menlo, monospace" text-anchor="end">2026-07-20</text>

  <!-- grid -->
  <line x1="52" y1="232.0" x2="800" y2="232.0" stroke="#e8e8e8" stroke-width="1"/><line x1="52" y1="189.1" x2="800" y2="189.1" stroke="#e8e8e8" stroke-width="1"/><line x1="52" y1="146.1" x2="800" y2="146.1" stroke="#e8e8e8" stroke-width="1"/><line x1="52" y1="103.2" x2="800" y2="103.2" stroke="#e8e8e8" stroke-width="1"/><line x1="52" y1="60.2" x2="800" y2="60.2" stroke="#e8e8e8" stroke-width="1"/><line x1="52" y1="17.3" x2="800" y2="17.3" stroke="#e8e8e8" stroke-width="1"/>

  <!-- area fill -->
  <path d="M52.0,232.0 L52.0,232.0 L63.0,210.5 L74.0,210.5 L85.0,232.0 L96.0,221.3 L107.0,232.0 L118.0,232.0 L129.0,221.3 L140.0,232.0 L151.0,221.3 L162.0,232.0 L173.0,232.0 L184.0,232.0 L195.0,92.4 L206.0,49.5 L217.0,60.2 L228.0,221.3 L239.0,232.0 L250.0,221.3 L261.0,232.0 L272.0,221.3 L283.0,232.0 L294.0,221.3 L305.0,232.0 L316.0,232.0 L327.0,221.3 L338.0,232.0 L349.0,232.0 L360.0,221.3 L371.0,199.8 L382.0,210.5 L393.0,232.0 L404.0,232.0 L415.0,210.5 L426.0,210.5 L437.0,221.3 L448.0,221.3 L459.0,232.0 L470.0,28.0 L481.0,49.5 L492.0,232.0 L503.0,221.3 L514.0,221.3 L525.0,221.3 L536.0,221.3 L547.0,232.0 L558.0,232.0 L569.0,232.0 L580.0,210.5 L591.0,232.0 L602.0,210.5 L613.0,232.0 L624.0,232.0 L635.0,232.0 L646.0,221.3 L657.0,221.3 L668.0,232.0 L679.0,232.0 L690.0,232.0 L701.0,232.0 L712.0,232.0 L723.0,221.3 L734.0,221.3 L745.0,232.0 L756.0,232.0 L767.0,221.3 L778.0,221.3 L789.0,232.0 L800.0,232.0 L800.0,232.0 L52.0,232.0Z" fill="#4e79a7" opacity="0.12"/>

  <!-- lines -->
  <polyline points="52.0,232.0 63.0,210.5 74.0,210.5 85.0,232.0 96.0,221.3 107.0,232.0 118.0,232.0 129.0,221.3 140.0,232.0 151.0,221.3 162.0,232.0 173.0,232.0 184.0,232.0 195.0,92.4 206.0,49.5 217.0,60.2 228.0,221.3 239.0,232.0 250.0,221.3 261.0,232.0 272.0,221.3 283.0,232.0 294.0,221.3 305.0,232.0 316.0,232.0 327.0,221.3 338.0,232.0 349.0,232.0 360.0,221.3 371.0,199.8 382.0,210.5 393.0,232.0 404.0,232.0 415.0,210.5 426.0,210.5 437.0,221.3 448.0,221.3 459.0,232.0 470.0,28.0 481.0,49.5 492.0,232.0 503.0,221.3 514.0,221.3 525.0,221.3 536.0,221.3 547.0,232.0 558.0,232.0 569.0,232.0 580.0,210.5 591.0,232.0 602.0,210.5 613.0,232.0 624.0,232.0 635.0,232.0 646.0,221.3 657.0,221.3 668.0,232.0 679.0,232.0 690.0,232.0 701.0,232.0 712.0,232.0 723.0,221.3 734.0,221.3 745.0,232.0 756.0,232.0 767.0,221.3 778.0,221.3 789.0,232.0 800.0,232.0"
            fill="none" stroke="#4e79a7"
            stroke-width="2" stroke-linejoin="round"/>
  <polyline points="52.0,232.0 63.0,210.5 74.0,210.5 85.0,232.0 96.0,221.3 107.0,232.0 118.0,232.0 129.0,221.3 140.0,232.0 151.0,221.3 162.0,232.0 173.0,232.0 184.0,232.0 195.0,124.6 206.0,103.2 217.0,103.2 228.0,221.3 239.0,232.0 250.0,221.3 261.0,232.0 272.0,221.3 283.0,232.0 294.0,221.3 305.0,232.0 316.0,232.0 327.0,221.3 338.0,232.0 349.0,232.0 360.0,221.3 371.0,210.5 382.0,210.5 393.0,232.0 404.0,232.0 415.0,221.3 426.0,210.5 437.0,221.3 448.0,221.3 459.0,232.0 470.0,146.1 481.0,167.6 492.0,232.0 503.0,221.3 514.0,221.3 525.0,221.3 536.0,221.3 547.0,232.0 558.0,232.0 569.0,232.0 580.0,210.5 591.0,232.0 602.0,210.5 613.0,232.0 624.0,232.0 635.0,232.0 646.0,221.3 657.0,221.3 668.0,232.0 679.0,232.0 690.0,232.0 701.0,232.0 712.0,232.0 723.0,221.3 734.0,221.3 745.0,232.0 756.0,232.0 767.0,221.3 778.0,221.3 789.0,232.0 800.0,232.0"
            fill="none" stroke="#f28e2b"
            stroke-width="2" stroke-linejoin="round"
            stroke-dasharray="5,3"/>

  <!-- dots -->
  <circle cx="52.0" cy="232.0" r="3" fill="#4e79a7"/><circle cx="63.0" cy="210.5" r="3" fill="#4e79a7"/><circle cx="74.0" cy="210.5" r="3" fill="#4e79a7"/><circle cx="85.0" cy="232.0" r="3" fill="#4e79a7"/><circle cx="96.0" cy="221.3" r="3" fill="#4e79a7"/><circle cx="107.0" cy="232.0" r="3" fill="#4e79a7"/><circle cx="118.0" cy="232.0" r="3" fill="#4e79a7"/><circle cx="129.0" cy="221.3" r="3" fill="#4e79a7"/><circle cx="140.0" cy="232.0" r="3" fill="#4e79a7"/><circle cx="151.0" cy="221.3" r="3" fill="#4e79a7"/><circle cx="162.0" cy="232.0" r="3" fill="#4e79a7"/><circle cx="173.0" cy="232.0" r="3" fill="#4e79a7"/><circle cx="184.0" cy="232.0" r="3" fill="#4e79a7"/><circle cx="195.0" cy="92.4" r="3" fill="#4e79a7"/><circle cx="206.0" cy="49.5" r="3" fill="#4e79a7"/><circle cx="217.0" cy="60.2" r="3" fill="#4e79a7"/><circle cx="228.0" cy="221.3" r="3" fill="#4e79a7"/><circle cx="239.0" cy="232.0" r="3" fill="#4e79a7"/><circle cx="250.0" cy="221.3" r="3" fill="#4e79a7"/><circle cx="261.0" cy="232.0" r="3" fill="#4e79a7"/><circle cx="272.0" cy="221.3" r="3" fill="#4e79a7"/><circle cx="283.0" cy="232.0" r="3" fill="#4e79a7"/><circle cx="294.0" cy="221.3" r="3" fill="#4e79a7"/><circle cx="305.0" cy="232.0" r="3" fill="#4e79a7"/><circle cx="316.0" cy="232.0" r="3" fill="#4e79a7"/><circle cx="327.0" cy="221.3" r="3" fill="#4e79a7"/><circle cx="338.0" cy="232.0" r="3" fill="#4e79a7"/><circle cx="349.0" cy="232.0" r="3" fill="#4e79a7"/><circle cx="360.0" cy="221.3" r="3" fill="#4e79a7"/><circle cx="371.0" cy="199.8" r="3" fill="#4e79a7"/><circle cx="382.0" cy="210.5" r="3" fill="#4e79a7"/><circle cx="393.0" cy="232.0" r="3" fill="#4e79a7"/><circle cx="404.0" cy="232.0" r="3" fill="#4e79a7"/><circle cx="415.0" cy="210.5" r="3" fill="#4e79a7"/><circle cx="426.0" cy="210.5" r="3" fill="#4e79a7"/><circle cx="437.0" cy="221.3" r="3" fill="#4e79a7"/><circle cx="448.0" cy="221.3" r="3" fill="#4e79a7"/><circle cx="459.0" cy="232.0" r="3" fill="#4e79a7"/><circle cx="470.0" cy="28.0" r="3" fill="#4e79a7"/><circle cx="481.0" cy="49.5" r="3" fill="#4e79a7"/><circle cx="492.0" cy="232.0" r="3" fill="#4e79a7"/><circle cx="503.0" cy="221.3" r="3" fill="#4e79a7"/><circle cx="514.0" cy="221.3" r="3" fill="#4e79a7"/><circle cx="525.0" cy="221.3" r="3" fill="#4e79a7"/><circle cx="536.0" cy="221.3" r="3" fill="#4e79a7"/><circle cx="547.0" cy="232.0" r="3" fill="#4e79a7"/><circle cx="558.0" cy="232.0" r="3" fill="#4e79a7"/><circle cx="569.0" cy="232.0" r="3" fill="#4e79a7"/><circle cx="580.0" cy="210.5" r="3" fill="#4e79a7"/><circle cx="591.0" cy="232.0" r="3" fill="#4e79a7"/><circle cx="602.0" cy="210.5" r="3" fill="#4e79a7"/><circle cx="613.0" cy="232.0" r="3" fill="#4e79a7"/><circle cx="624.0" cy="232.0" r="3" fill="#4e79a7"/><circle cx="635.0" cy="232.0" r="3" fill="#4e79a7"/><circle cx="646.0" cy="221.3" r="3" fill="#4e79a7"/><circle cx="657.0" cy="221.3" r="3" fill="#4e79a7"/><circle cx="668.0" cy="232.0" r="3" fill="#4e79a7"/><circle cx="679.0" cy="232.0" r="3" fill="#4e79a7"/><circle cx="690.0" cy="232.0" r="3" fill="#4e79a7"/><circle cx="701.0" cy="232.0" r="3" fill="#4e79a7"/><circle cx="712.0" cy="232.0" r="3" fill="#4e79a7"/><circle cx="723.0" cy="221.3" r="3" fill="#4e79a7"/><circle cx="734.0" cy="221.3" r="3" fill="#4e79a7"/><circle cx="745.0" cy="232.0" r="3" fill="#4e79a7"/><circle cx="756.0" cy="232.0" r="3" fill="#4e79a7"/><circle cx="767.0" cy="221.3" r="3" fill="#4e79a7"/><circle cx="778.0" cy="221.3" r="3" fill="#4e79a7"/><circle cx="789.0" cy="232.0" r="3" fill="#4e79a7"/><circle cx="800.0" cy="232.0" r="3" fill="#4e79a7"/>
  <circle cx="52.0" cy="232.0" r="3" fill="#f28e2b"/><circle cx="63.0" cy="210.5" r="3" fill="#f28e2b"/><circle cx="74.0" cy="210.5" r="3" fill="#f28e2b"/><circle cx="85.0" cy="232.0" r="3" fill="#f28e2b"/><circle cx="96.0" cy="221.3" r="3" fill="#f28e2b"/><circle cx="107.0" cy="232.0" r="3" fill="#f28e2b"/><circle cx="118.0" cy="232.0" r="3" fill="#f28e2b"/><circle cx="129.0" cy="221.3" r="3" fill="#f28e2b"/><circle cx="140.0" cy="232.0" r="3" fill="#f28e2b"/><circle cx="151.0" cy="221.3" r="3" fill="#f28e2b"/><circle cx="162.0" cy="232.0" r="3" fill="#f28e2b"/><circle cx="173.0" cy="232.0" r="3" fill="#f28e2b"/><circle cx="184.0" cy="232.0" r="3" fill="#f28e2b"/><circle cx="195.0" cy="124.6" r="3" fill="#f28e2b"/><circle cx="206.0" cy="103.2" r="3" fill="#f28e2b"/><circle cx="217.0" cy="103.2" r="3" fill="#f28e2b"/><circle cx="228.0" cy="221.3" r="3" fill="#f28e2b"/><circle cx="239.0" cy="232.0" r="3" fill="#f28e2b"/><circle cx="250.0" cy="221.3" r="3" fill="#f28e2b"/><circle cx="261.0" cy="232.0" r="3" fill="#f28e2b"/><circle cx="272.0" cy="221.3" r="3" fill="#f28e2b"/><circle cx="283.0" cy="232.0" r="3" fill="#f28e2b"/><circle cx="294.0" cy="221.3" r="3" fill="#f28e2b"/><circle cx="305.0" cy="232.0" r="3" fill="#f28e2b"/><circle cx="316.0" cy="232.0" r="3" fill="#f28e2b"/><circle cx="327.0" cy="221.3" r="3" fill="#f28e2b"/><circle cx="338.0" cy="232.0" r="3" fill="#f28e2b"/><circle cx="349.0" cy="232.0" r="3" fill="#f28e2b"/><circle cx="360.0" cy="221.3" r="3" fill="#f28e2b"/><circle cx="371.0" cy="210.5" r="3" fill="#f28e2b"/><circle cx="382.0" cy="210.5" r="3" fill="#f28e2b"/><circle cx="393.0" cy="232.0" r="3" fill="#f28e2b"/><circle cx="404.0" cy="232.0" r="3" fill="#f28e2b"/><circle cx="415.0" cy="221.3" r="3" fill="#f28e2b"/><circle cx="426.0" cy="210.5" r="3" fill="#f28e2b"/><circle cx="437.0" cy="221.3" r="3" fill="#f28e2b"/><circle cx="448.0" cy="221.3" r="3" fill="#f28e2b"/><circle cx="459.0" cy="232.0" r="3" fill="#f28e2b"/><circle cx="470.0" cy="146.1" r="3" fill="#f28e2b"/><circle cx="481.0" cy="167.6" r="3" fill="#f28e2b"/><circle cx="492.0" cy="232.0" r="3" fill="#f28e2b"/><circle cx="503.0" cy="221.3" r="3" fill="#f28e2b"/><circle cx="514.0" cy="221.3" r="3" fill="#f28e2b"/><circle cx="525.0" cy="221.3" r="3" fill="#f28e2b"/><circle cx="536.0" cy="221.3" r="3" fill="#f28e2b"/><circle cx="547.0" cy="232.0" r="3" fill="#f28e2b"/><circle cx="558.0" cy="232.0" r="3" fill="#f28e2b"/><circle cx="569.0" cy="232.0" r="3" fill="#f28e2b"/><circle cx="580.0" cy="210.5" r="3" fill="#f28e2b"/><circle cx="591.0" cy="232.0" r="3" fill="#f28e2b"/><circle cx="602.0" cy="210.5" r="3" fill="#f28e2b"/><circle cx="613.0" cy="232.0" r="3" fill="#f28e2b"/><circle cx="624.0" cy="232.0" r="3" fill="#f28e2b"/><circle cx="635.0" cy="232.0" r="3" fill="#f28e2b"/><circle cx="646.0" cy="221.3" r="3" fill="#f28e2b"/><circle cx="657.0" cy="221.3" r="3" fill="#f28e2b"/><circle cx="668.0" cy="232.0" r="3" fill="#f28e2b"/><circle cx="679.0" cy="232.0" r="3" fill="#f28e2b"/><circle cx="690.0" cy="232.0" r="3" fill="#f28e2b"/><circle cx="701.0" cy="232.0" r="3" fill="#f28e2b"/><circle cx="712.0" cy="232.0" r="3" fill="#f28e2b"/><circle cx="723.0" cy="221.3" r="3" fill="#f28e2b"/><circle cx="734.0" cy="221.3" r="3" fill="#f28e2b"/><circle cx="745.0" cy="232.0" r="3" fill="#f28e2b"/><circle cx="756.0" cy="232.0" r="3" fill="#f28e2b"/><circle cx="767.0" cy="221.3" r="3" fill="#f28e2b"/><circle cx="778.0" cy="221.3" r="3" fill="#f28e2b"/><circle cx="789.0" cy="232.0" r="3" fill="#f28e2b"/><circle cx="800.0" cy="232.0" r="3" fill="#f28e2b"/>

  <!-- axes -->
  <line x1="52" y1="28" x2="52" y2="232"
        stroke="#cccccc" stroke-width="1"/>
  <line x1="52" y1="232" x2="800" y2="232"
        stroke="#cccccc" stroke-width="1"/>

  <!-- y-axis labels -->
  <text x="47" y="236.0" text-anchor="end" font-size="10" fill="#57606a" font-family="ui-monospace, SFMono-Regular, 'SF Mono', Menlo, monospace">0</text><text x="47" y="193.1" text-anchor="end" font-size="10" fill="#57606a" font-family="ui-monospace, SFMono-Regular, 'SF Mono', Menlo, monospace">4</text><text x="47" y="150.1" text-anchor="end" font-size="10" fill="#57606a" font-family="ui-monospace, SFMono-Regular, 'SF Mono', Menlo, monospace">8</text><text x="47" y="107.2" text-anchor="end" font-size="10" fill="#57606a" font-family="ui-monospace, SFMono-Regular, 'SF Mono', Menlo, monospace">12</text><text x="47" y="64.2" text-anchor="end" font-size="10" fill="#57606a" font-family="ui-monospace, SFMono-Regular, 'SF Mono', Menlo, monospace">16</text><text x="47" y="21.3" text-anchor="end" font-size="10" fill="#57606a" font-family="ui-monospace, SFMono-Regular, 'SF Mono', Menlo, monospace">20</text>

  <!-- x-axis labels -->
  <text x="52.0" y="248" text-anchor="middle" font-size="10" fill="#8c959f" font-family="ui-monospace, SFMono-Regular, 'SF Mono', Menlo, monospace">05-11</text><text x="404.0" y="248" text-anchor="middle" font-size="10" fill="#8c959f" font-family="ui-monospace, SFMono-Regular, 'SF Mono', Menlo, monospace">06-12</text><text x="756.0" y="248" text-anchor="middle" font-size="10" fill="#8c959f" font-family="ui-monospace, SFMono-Regular, 'SF Mono', Menlo, monospace">07-14</text><text x="800.0" y="248" text-anchor="middle" font-size="10" fill="#8c959f" font-family="ui-monospace, SFMono-Regular, 'SF Mono', Menlo, monospace">07-18</text><text x="140.0" y="248" text-anchor="middle" font-size="10" fill="#8c959f" font-family="ui-monospace, SFMono-Regular, 'SF Mono', Menlo, monospace">05-19</text><text x="492.0" y="248" text-anchor="middle" font-size="10" fill="#8c959f" font-family="ui-monospace, SFMono-Regular, 'SF Mono', Menlo, monospace">06-20</text><text x="228.0" y="248" text-anchor="middle" font-size="10" fill="#8c959f" font-family="ui-monospace, SFMono-Regular, 'SF Mono', Menlo, monospace">05-27</text><text x="580.0" y="248" text-anchor="middle" font-size="10" fill="#8c959f" font-family="ui-monospace, SFMono-Regular, 'SF Mono', Menlo, monospace">06-28</text><text x="316.0" y="248" text-anchor="middle" font-size="10" fill="#8c959f" font-family="ui-monospace, SFMono-Regular, 'SF Mono', Menlo, monospace">06-04</text><text x="668.0" y="248" text-anchor="middle" font-size="10" fill="#8c959f" font-family="ui-monospace, SFMono-Regular, 'SF Mono', Menlo, monospace">07-06</text>

  <!-- legend -->
  <rect x="60" y="262" width="16" height="3" fill="#4e79a7" rx="1"/><text x="80" y="268" font-size="11" fill="#57606a" font-family="-apple-system, BlinkMacSystemFont, 'Segoe UI', sans-serif">Total clones (120)</text><line x1="230" y1="264" x2="246" y2="264" stroke="#f28e2b" stroke-width="2" stroke-dasharray="5,3"/><text x="250" y="268" font-size="11" fill="#57606a" font-family="-apple-system, BlinkMacSystemFont, 'Segoe UI', sans-serif">Unique cloners</text>

</svg>