<svg xmlns="http://www.w3.org/2000/svg" viewBox="0 0 820 280" width="820" height="280">

  <!-- title -->
  <text x="52" y="18" font-size="13" font-weight="600"
        fill="#24292f" font-family="-apple-system, BlinkMacSystemFont, 'Segoe UI', sans-serif"
        >Clone traffic — docforge</text>
  <text x="800" y="18" font-size="10" fill="#8c959f"
        font-family="ui-monospace, SFMono-Regular, 'SF Mono', Menlo, monospace" text-anchor="end">2026-07-06</text>

  <!-- grid -->
  <line x1="52" y1="232.0" x2="800" y2="232.0" stroke="#e8e8e8" stroke-width="1"/><line x1="52" y1="189.1" x2="800" y2="189.1" stroke="#e8e8e8" stroke-width="1"/><line x1="52" y1="146.1" x2="800" y2="146.1" stroke="#e8e8e8" stroke-width="1"/><line x1="52" y1="103.2" x2="800" y2="103.2" stroke="#e8e8e8" stroke-width="1"/><line x1="52" y1="60.2" x2="800" y2="60.2" stroke="#e8e8e8" stroke-width="1"/><line x1="52" y1="17.3" x2="800" y2="17.3" stroke="#e8e8e8" stroke-width="1"/>

  <!-- area fill -->
  <path d="M52.0,232.0 L52.0,232.0 L65.6,210.5 L79.2,210.5 L92.8,232.0 L106.4,221.3 L120.0,232.0 L133.6,232.0 L147.2,221.3 L160.8,232.0 L174.4,221.3 L188.0,232.0 L201.6,232.0 L215.2,232.0 L228.8,92.4 L242.4,49.5 L256.0,60.2 L269.6,221.3 L283.2,232.0 L296.8,221.3 L310.4,232.0 L324.0,221.3 L337.6,232.0 L351.2,221.3 L364.8,232.0 L378.4,232.0 L392.0,221.3 L405.6,232.0 L419.2,232.0 L432.8,221.3 L446.4,199.8 L460.0,210.5 L473.6,232.0 L487.2,232.0 L500.8,210.5 L514.4,210.5 L528.0,221.3 L541.6,221.3 L555.2,232.0 L568.8,28.0 L582.4,49.5 L596.0,232.0 L609.6,221.3 L623.2,221.3 L636.8,221.3 L650.4,221.3 L664.0,232.0 L677.6,232.0 L691.2,232.0 L704.8,210.5 L718.4,232.0 L732.0,210.5 L745.6,232.0 L759.2,232.0 L772.8,232.0 L786.4,221.3 L800.0,221.3 L800.0,232.0 L52.0,232.0Z" fill="#4e79a7" opacity="0.12"/>

  <!-- lines -->
  <polyline points="52.0,232.0 65.6,210.5 79.2,210.5 92.8,232.0 106.4,221.3 120.0,232.0 133.6,232.0 147.2,221.3 160.8,232.0 174.4,221.3 188.0,232.0 201.6,232.0 215.2,232.0 228.8,92.4 242.4,49.5 256.0,60.2 269.6,221.3 283.2,232.0 296.8,221.3 310.4,232.0 324.0,221.3 337.6,232.0 351.2,221.3 364.8,232.0 378.4,232.0 392.0,221.3 405.6,232.0 419.2,232.0 432.8,221.3 446.4,199.8 460.0,210.5 473.6,232.0 487.2,232.0 500.8,210.5 514.4,210.5 528.0,221.3 541.6,221.3 555.2,232.0 568.8,28.0 582.4,49.5 596.0,232.0 609.6,221.3 623.2,221.3 636.8,221.3 650.4,221.3 664.0,232.0 677.6,232.0 691.2,232.0 704.8,210.5 718.4,232.0 732.0,210.5 745.6,232.0 759.2,232.0 772.8,232.0 786.4,221.3 800.0,221.3"
            fill="none" stroke="#4e79a7"
            stroke-width="2" stroke-linejoin="round"/>
  <polyline points="52.0,232.0 65.6,210.5 79.2,210.5 92.8,232.0 106.4,221.3 120.0,232.0 133.6,232.0 147.2,221.3 160.8,232.0 174.4,221.3 188.0,232.0 201.6,232.0 215.2,232.0 228.8,124.6 242.4,103.2 256.0,103.2 269.6,221.3 283.2,232.0 296.8,221.3 310.4,232.0 324.0,221.3 337.6,232.0 351.2,221.3 364.8,232.0 378.4,232.0 392.0,221.3 405.6,232.0 419.2,232.0 432.8,221.3 446.4,210.5 460.0,210.5 473.6,232.0 487.2,232.0 500.8,221.3 514.4,210.5 528.0,221.3 541.6,221.3 555.2,232.0 568.8,146.1 582.4,167.6 596.0,232.0 609.6,221.3 623.2,221.3 636.8,221.3 650.4,221.3 664.0,232.0 677.6,232.0 691.2,232.0 704.8,210.5 718.4,232.0 732.0,210.5 745.6,232.0 759.2,232.0 772.8,232.0 786.4,221.3 800.0,221.3"
            fill="none" stroke="#f28e2b"
            stroke-width="2" stroke-linejoin="round"
            stroke-dasharray="5,3"/>

  <!-- dots -->
  <circle cx="52.0" cy="232.0" r="3" fill="#4e79a7"/><circle cx="65.6" cy="210.5" r="3" fill="#4e79a7"/><circle cx="79.2" cy="210.5" r="3" fill="#4e79a7"/><circle cx="92.8" cy="232.0" r="3" fill="#4e79a7"/><circle cx="106.4" cy="221.3" r="3" fill="#4e79a7"/><circle cx="120.0" cy="232.0" r="3" fill="#4e79a7"/><circle cx="133.6" cy="232.0" r="3" fill="#4e79a7"/><circle cx="147.2" cy="221.3" r="3" fill="#4e79a7"/><circle cx="160.8" cy="232.0" r="3" fill="#4e79a7"/><circle cx="174.4" cy="221.3" r="3" fill="#4e79a7"/><circle cx="188.0" cy="232.0" r="3" fill="#4e79a7"/><circle cx="201.6" cy="232.0" r="3" fill="#4e79a7"/><circle cx="215.2" cy="232.0" r="3" fill="#4e79a7"/><circle cx="228.8" cy="92.4" r="3" fill="#4e79a7"/><circle cx="242.4" cy="49.5" r="3" fill="#4e79a7"/><circle cx="256.0" cy="60.2" r="3" fill="#4e79a7"/><circle cx="269.6" cy="221.3" r="3" fill="#4e79a7"/><circle cx="283.2" cy="232.0" r="3" fill="#4e79a7"/><circle cx="296.8" cy="221.3" r="3" fill="#4e79a7"/><circle cx="310.4" cy="232.0" r="3" fill="#4e79a7"/><circle cx="324.0" cy="221.3" r="3" fill="#4e79a7"/><circle cx="337.6" cy="232.0" r="3" fill="#4e79a7"/><circle cx="351.2" cy="221.3" r="3" fill="#4e79a7"/><circle cx="364.8" cy="232.0" r="3" fill="#4e79a7"/><circle cx="378.4" cy="232.0" r="3" fill="#4e79a7"/><circle cx="392.0" cy="221.3" r="3" fill="#4e79a7"/><circle cx="405.6" cy="232.0" r="3" fill="#4e79a7"/><circle cx="419.2" cy="232.0" r="3" fill="#4e79a7"/><circle cx="432.8" cy="221.3" r="3" fill="#4e79a7"/><circle cx="446.4" cy="199.8" r="3" fill="#4e79a7"/><circle cx="460.0" cy="210.5" r="3" fill="#4e79a7"/><circle cx="473.6" cy="232.0" r="3" fill="#4e79a7"/><circle cx="487.2" cy="232.0" r="3" fill="#4e79a7"/><circle cx="500.8" cy="210.5" r="3" fill="#4e79a7"/><circle cx="514.4" cy="210.5" r="3" fill="#4e79a7"/><circle cx="528.0" cy="221.3" r="3" fill="#4e79a7"/><circle cx="541.6" cy="221.3" r="3" fill="#4e79a7"/><circle cx="555.2" cy="232.0" r="3" fill="#4e79a7"/><circle cx="568.8" cy="28.0" r="3" fill="#4e79a7"/><circle cx="582.4" cy="49.5" r="3" fill="#4e79a7"/><circle cx="596.0" cy="232.0" r="3" fill="#4e79a7"/><circle cx="609.6" cy="221.3" r="3" fill="#4e79a7"/><circle cx="623.2" cy="221.3" r="3" fill="#4e79a7"/><circle cx="636.8" cy="221.3" r="3" fill="#4e79a7"/><circle cx="650.4" cy="221.3" r="3" fill="#4e79a7"/><circle cx="664.0" cy="232.0" r="3" fill="#4e79a7"/><circle cx="677.6" cy="232.0" r="3" fill="#4e79a7"/><circle cx="691.2" cy="232.0" r="3" fill="#4e79a7"/><circle cx="704.8" cy="210.5" r="3" fill="#4e79a7"/><circle cx="718.4" cy="232.0" r="3" fill="#4e79a7"/><circle cx="732.0" cy="210.5" r="3" fill="#4e79a7"/><circle cx="745.6" cy="232.0" r="3" fill="#4e79a7"/><circle cx="759.2" cy="232.0" r="3" fill="#4e79a7"/><circle cx="772.8" cy="232.0" r="3" fill="#4e79a7"/><circle cx="786.4" cy="221.3" r="3" fill="#4e79a7"/><circle cx="800.0" cy="221.3" r="3" fill="#4e79a7"/>
  <circle cx="52.0" cy="232.0" r="3" fill="#f28e2b"/><circle cx="65.6" cy="210.5" r="3" fill="#f28e2b"/><circle cx="79.2" cy="210.5" r="3" fill="#f28e2b"/><circle cx="92.8" cy="232.0" r="3" fill="#f28e2b"/><circle cx="106.4" cy="221.3" r="3" fill="#f28e2b"/><circle cx="120.0" cy="232.0" r="3" fill="#f28e2b"/><circle cx="133.6" cy="232.0" r="3" fill="#f28e2b"/><circle cx="147.2" cy="221.3" r="3" fill="#f28e2b"/><circle cx="160.8" cy="232.0" r="3" fill="#f28e2b"/><circle cx="174.4" cy="221.3" r="3" fill="#f28e2b"/><circle cx="188.0" cy="232.0" r="3" fill="#f28e2b"/><circle cx="201.6" cy="232.0" r="3" fill="#f28e2b"/><circle cx="215.2" cy="232.0" r="3" fill="#f28e2b"/><circle cx="228.8" cy="124.6" r="3" fill="#f28e2b"/><circle cx="242.4" cy="103.2" r="3" fill="#f28e2b"/><circle cx="256.0" cy="103.2" r="3" fill="#f28e2b"/><circle cx="269.6" cy="221.3" r="3" fill="#f28e2b"/><circle cx="283.2" cy="232.0" r="3" fill="#f28e2b"/><circle cx="296.8" cy="221.3" r="3" fill="#f28e2b"/><circle cx="310.4" cy="232.0" r="3" fill="#f28e2b"/><circle cx="324.0" cy="221.3" r="3" fill="#f28e2b"/><circle cx="337.6" cy="232.0" r="3" fill="#f28e2b"/><circle cx="351.2" cy="221.3" r="3" fill="#f28e2b"/><circle cx="364.8" cy="232.0" r="3" fill="#f28e2b"/><circle cx="378.4" cy="232.0" r="3" fill="#f28e2b"/><circle cx="392.0" cy="221.3" r="3" fill="#f28e2b"/><circle cx="405.6" cy="232.0" r="3" fill="#f28e2b"/><circle cx="419.2" cy="232.0" r="3" fill="#f28e2b"/><circle cx="432.8" cy="221.3" r="3" fill="#f28e2b"/><circle cx="446.4" cy="210.5" r="3" fill="#f28e2b"/><circle cx="460.0" cy="210.5" r="3" fill="#f28e2b"/><circle cx="473.6" cy="232.0" r="3" fill="#f28e2b"/><circle cx="487.2" cy="232.0" r="3" fill="#f28e2b"/><circle cx="500.8" cy="221.3" r="3" fill="#f28e2b"/><circle cx="514.4" cy="210.5" r="3" fill="#f28e2b"/><circle cx="528.0" cy="221.3" r="3" fill="#f28e2b"/><circle cx="541.6" cy="221.3" r="3" fill="#f28e2b"/><circle cx="555.2" cy="232.0" r="3" fill="#f28e2b"/><circle cx="568.8" cy="146.1" r="3" fill="#f28e2b"/><circle cx="582.4" cy="167.6" r="3" fill="#f28e2b"/><circle cx="596.0" cy="232.0" r="3" fill="#f28e2b"/><circle cx="609.6" cy="221.3" r="3" fill="#f28e2b"/><circle cx="623.2" cy="221.3" r="3" fill="#f28e2b"/><circle cx="636.8" cy="221.3" r="3" fill="#f28e2b"/><circle cx="650.4" cy="221.3" r="3" fill="#f28e2b"/><circle cx="664.0" cy="232.0" r="3" fill="#f28e2b"/><circle cx="677.6" cy="232.0" r="3" fill="#f28e2b"/><circle cx="691.2" cy="232.0" r="3" fill="#f28e2b"/><circle cx="704.8" cy="210.5" r="3" fill="#f28e2b"/><circle cx="718.4" cy="232.0" r="3" fill="#f28e2b"/><circle cx="732.0" cy="210.5" r="3" fill="#f28e2b"/><circle cx="745.6" cy="232.0" r="3" fill="#f28e2b"/><circle cx="759.2" cy="232.0" r="3" fill="#f28e2b"/><circle cx="772.8" cy="232.0" r="3" fill="#f28e2b"/><circle cx="786.4" cy="221.3" r="3" fill="#f28e2b"/><circle cx="800.0" cy="221.3" r="3" fill="#f28e2b"/>

  <!-- axes -->
  <line x1="52" y1="28" x2="52" y2="232"
        stroke="#cccccc" stroke-width="1"/>
  <line x1="52" y1="232" x2="800" y2="232"
        stroke="#cccccc" stroke-width="1"/>

  <!-- y-axis labels -->
  <text x="47" y="236.0" text-anchor="end" font-size="10" fill="#57606a" font-family="ui-monospace, SFMono-Regular, 'SF Mono', Menlo, monospace">0</text><text x="47" y="193.1" text-anchor="end" font-size="10" fill="#57606a" font-family="ui-monospace, SFMono-Regular, 'SF Mono', Menlo, monospace">4</text><text x="47" y="150.1" text-anchor="end" font-size="10" fill="#57606a" font-family="ui-monospace, SFMono-Regular, 'SF Mono', Menlo, monospace">8</text><text x="47" y="107.2" text-anchor="end" font-size="10" fill="#57606a" font-family="ui-monospace, SFMono-Regular, 'SF Mono', Menlo, monospace">12</text><text x="47" y="64.2" text-anchor="end" font-size="10" fill="#57606a" font-family="ui-monospace, SFMono-Regular, 'SF Mono', Menlo, monospace">16</text><text x="47" y="21.3" text-anchor="end" font-size="10" fill="#57606a" font-family="ui-monospace, SFMono-Regular, 'SF Mono', Menlo, monospace">20</text>

  <!-- x-axis labels -->
  <text x="52.0" y="248" text-anchor="middle" font-size="10" fill="#8c959f" font-family="ui-monospace, SFMono-Regular, 'SF Mono', Menlo, monospace">05-11</text><text x="528.0" y="248" text-anchor="middle" font-size="10" fill="#8c959f" font-family="ui-monospace, SFMono-Regular, 'SF Mono', Menlo, monospace">06-15</text><text x="147.2" y="248" text-anchor="middle" font-size="10" fill="#8c959f" font-family="ui-monospace, SFMono-Regular, 'SF Mono', Menlo, monospace">05-18</text><text x="623.2" y="248" text-anchor="middle" font-size="10" fill="#8c959f" font-family="ui-monospace, SFMono-Regular, 'SF Mono', Menlo, monospace">06-22</text><text x="242.4" y="248" text-anchor="middle" font-size="10" fill="#8c959f" font-family="ui-monospace, SFMono-Regular, 'SF Mono', Menlo, monospace">05-25</text><text x="718.4" y="248" text-anchor="middle" font-size="10" fill="#8c959f" font-family="ui-monospace, SFMono-Regular, 'SF Mono', Menlo, monospace">06-29</text><text x="337.6" y="248" text-anchor="middle" font-size="10" fill="#8c959f" font-family="ui-monospace, SFMono-Regular, 'SF Mono', Menlo, monospace">06-01</text><text x="800.0" y="248" text-anchor="middle" font-size="10" fill="#8c959f" font-family="ui-monospace, SFMono-Regular, 'SF Mono', Menlo, monospace">07-05</text><text x="432.8" y="248" text-anchor="middle" font-size="10" fill="#8c959f" font-family="ui-monospace, SFMono-Regular, 'SF Mono', Menlo, monospace">06-08</text>

  <!-- legend -->
  <rect x="60" y="262" width="16" height="3" fill="#4e79a7" rx="1"/><text x="80" y="268" font-size="11" fill="#57606a" font-family="-apple-system, BlinkMacSystemFont, 'Segoe UI', sans-serif">Total clones (116)</text><line x1="230" y1="264" x2="246" y2="264" stroke="#f28e2b" stroke-width="2" stroke-dasharray="5,3"/><text x="250" y="268" font-size="11" fill="#57606a" font-family="-apple-system, BlinkMacSystemFont, 'Segoe UI', sans-serif">Unique cloners</text>

</svg>