<svg xmlns="http://www.w3.org/2000/svg" viewBox="0 0 820 280" width="820" height="280">

  <!-- title -->
  <text x="52" y="18" font-size="13" font-weight="600"
        fill="#24292f" font-family="-apple-system, BlinkMacSystemFont, 'Segoe UI', sans-serif"
        >Clone traffic — docforge</text>
  <text x="800" y="18" font-size="10" fill="#8c959f"
        font-family="ui-monospace, SFMono-Regular, 'SF Mono', Menlo, monospace" text-anchor="end">2026-07-15</text>

  <!-- grid -->
  <line x1="52" y1="232.0" x2="800" y2="232.0" stroke="#e8e8e8" stroke-width="1"/><line x1="52" y1="189.1" x2="800" y2="189.1" stroke="#e8e8e8" stroke-width="1"/><line x1="52" y1="146.1" x2="800" y2="146.1" stroke="#e8e8e8" stroke-width="1"/><line x1="52" y1="103.2" x2="800" y2="103.2" stroke="#e8e8e8" stroke-width="1"/><line x1="52" y1="60.2" x2="800" y2="60.2" stroke="#e8e8e8" stroke-width="1"/><line x1="52" y1="17.3" x2="800" y2="17.3" stroke="#e8e8e8" stroke-width="1"/>

  <!-- area fill -->
  <path d="M52.0,232.0 L52.0,232.0 L63.9,210.5 L75.7,210.5 L87.6,232.0 L99.5,221.3 L111.4,232.0 L123.2,232.0 L135.1,221.3 L147.0,232.0 L158.9,221.3 L170.7,232.0 L182.6,232.0 L194.5,232.0 L206.3,92.4 L218.2,49.5 L230.1,60.2 L242.0,221.3 L253.8,232.0 L265.7,221.3 L277.6,232.0 L289.5,221.3 L301.3,232.0 L313.2,221.3 L325.1,232.0 L337.0,232.0 L348.8,221.3 L360.7,232.0 L372.6,232.0 L384.4,221.3 L396.3,199.8 L408.2,210.5 L420.1,232.0 L431.9,232.0 L443.8,210.5 L455.7,210.5 L467.6,221.3 L479.4,221.3 L491.3,232.0 L503.2,28.0 L515.0,49.5 L526.9,232.0 L538.8,221.3 L550.7,221.3 L562.5,221.3 L574.4,221.3 L586.3,232.0 L598.2,232.0 L610.0,232.0 L621.9,210.5 L633.8,232.0 L645.7,210.5 L657.5,232.0 L669.4,232.0 L681.3,232.0 L693.1,221.3 L705.0,221.3 L716.9,232.0 L728.8,232.0 L740.6,232.0 L752.5,232.0 L764.4,232.0 L776.3,221.3 L788.1,221.3 L800.0,232.0 L800.0,232.0 L52.0,232.0Z" fill="#4e79a7" opacity="0.12"/>

  <!-- lines -->
  <polyline points="52.0,232.0 63.9,210.5 75.7,210.5 87.6,232.0 99.5,221.3 111.4,232.0 123.2,232.0 135.1,221.3 147.0,232.0 158.9,221.3 170.7,232.0 182.6,232.0 194.5,232.0 206.3,92.4 218.2,49.5 230.1,60.2 242.0,221.3 253.8,232.0 265.7,221.3 277.6,232.0 289.5,221.3 301.3,232.0 313.2,221.3 325.1,232.0 337.0,232.0 348.8,221.3 360.7,232.0 372.6,232.0 384.4,221.3 396.3,199.8 408.2,210.5 420.1,232.0 431.9,232.0 443.8,210.5 455.7,210.5 467.6,221.3 479.4,221.3 491.3,232.0 503.2,28.0 515.0,49.5 526.9,232.0 538.8,221.3 550.7,221.3 562.5,221.3 574.4,221.3 586.3,232.0 598.2,232.0 610.0,232.0 621.9,210.5 633.8,232.0 645.7,210.5 657.5,232.0 669.4,232.0 681.3,232.0 693.1,221.3 705.0,221.3 716.9,232.0 728.8,232.0 740.6,232.0 752.5,232.0 764.4,232.0 776.3,221.3 788.1,221.3 800.0,232.0"
            fill="none" stroke="#4e79a7"
            stroke-width="2" stroke-linejoin="round"/>
  <polyline points="52.0,232.0 63.9,210.5 75.7,210.5 87.6,232.0 99.5,221.3 111.4,232.0 123.2,232.0 135.1,221.3 147.0,232.0 158.9,221.3 170.7,232.0 182.6,232.0 194.5,232.0 206.3,124.6 218.2,103.2 230.1,103.2 242.0,221.3 253.8,232.0 265.7,221.3 277.6,232.0 289.5,221.3 301.3,232.0 313.2,221.3 325.1,232.0 337.0,232.0 348.8,221.3 360.7,232.0 372.6,232.0 384.4,221.3 396.3,210.5 408.2,210.5 420.1,232.0 431.9,232.0 443.8,221.3 455.7,210.5 467.6,221.3 479.4,221.3 491.3,232.0 503.2,146.1 515.0,167.6 526.9,232.0 538.8,221.3 550.7,221.3 562.5,221.3 574.4,221.3 586.3,232.0 598.2,232.0 610.0,232.0 621.9,210.5 633.8,232.0 645.7,210.5 657.5,232.0 669.4,232.0 681.3,232.0 693.1,221.3 705.0,221.3 716.9,232.0 728.8,232.0 740.6,232.0 752.5,232.0 764.4,232.0 776.3,221.3 788.1,221.3 800.0,232.0"
            fill="none" stroke="#f28e2b"
            stroke-width="2" stroke-linejoin="round"
            stroke-dasharray="5,3"/>

  <!-- dots -->
  <circle cx="52.0" cy="232.0" r="3" fill="#4e79a7"/><circle cx="63.9" cy="210.5" r="3" fill="#4e79a7"/><circle cx="75.7" cy="210.5" r="3" fill="#4e79a7"/><circle cx="87.6" cy="232.0" r="3" fill="#4e79a7"/><circle cx="99.5" cy="221.3" r="3" fill="#4e79a7"/><circle cx="111.4" cy="232.0" r="3" fill="#4e79a7"/><circle cx="123.2" cy="232.0" r="3" fill="#4e79a7"/><circle cx="135.1" cy="221.3" r="3" fill="#4e79a7"/><circle cx="147.0" cy="232.0" r="3" fill="#4e79a7"/><circle cx="158.9" cy="221.3" r="3" fill="#4e79a7"/><circle cx="170.7" cy="232.0" r="3" fill="#4e79a7"/><circle cx="182.6" cy="232.0" r="3" fill="#4e79a7"/><circle cx="194.5" cy="232.0" r="3" fill="#4e79a7"/><circle cx="206.3" cy="92.4" r="3" fill="#4e79a7"/><circle cx="218.2" cy="49.5" r="3" fill="#4e79a7"/><circle cx="230.1" cy="60.2" r="3" fill="#4e79a7"/><circle cx="242.0" cy="221.3" r="3" fill="#4e79a7"/><circle cx="253.8" cy="232.0" r="3" fill="#4e79a7"/><circle cx="265.7" cy="221.3" r="3" fill="#4e79a7"/><circle cx="277.6" cy="232.0" r="3" fill="#4e79a7"/><circle cx="289.5" cy="221.3" r="3" fill="#4e79a7"/><circle cx="301.3" cy="232.0" r="3" fill="#4e79a7"/><circle cx="313.2" cy="221.3" r="3" fill="#4e79a7"/><circle cx="325.1" cy="232.0" r="3" fill="#4e79a7"/><circle cx="337.0" cy="232.0" r="3" fill="#4e79a7"/><circle cx="348.8" cy="221.3" r="3" fill="#4e79a7"/><circle cx="360.7" cy="232.0" r="3" fill="#4e79a7"/><circle cx="372.6" cy="232.0" r="3" fill="#4e79a7"/><circle cx="384.4" cy="221.3" r="3" fill="#4e79a7"/><circle cx="396.3" cy="199.8" r="3" fill="#4e79a7"/><circle cx="408.2" cy="210.5" r="3" fill="#4e79a7"/><circle cx="420.1" cy="232.0" r="3" fill="#4e79a7"/><circle cx="431.9" cy="232.0" r="3" fill="#4e79a7"/><circle cx="443.8" cy="210.5" r="3" fill="#4e79a7"/><circle cx="455.7" cy="210.5" r="3" fill="#4e79a7"/><circle cx="467.6" cy="221.3" r="3" fill="#4e79a7"/><circle cx="479.4" cy="221.3" r="3" fill="#4e79a7"/><circle cx="491.3" cy="232.0" r="3" fill="#4e79a7"/><circle cx="503.2" cy="28.0" r="3" fill="#4e79a7"/><circle cx="515.0" cy="49.5" r="3" fill="#4e79a7"/><circle cx="526.9" cy="232.0" r="3" fill="#4e79a7"/><circle cx="538.8" cy="221.3" r="3" fill="#4e79a7"/><circle cx="550.7" cy="221.3" r="3" fill="#4e79a7"/><circle cx="562.5" cy="221.3" r="3" fill="#4e79a7"/><circle cx="574.4" cy="221.3" r="3" fill="#4e79a7"/><circle cx="586.3" cy="232.0" r="3" fill="#4e79a7"/><circle cx="598.2" cy="232.0" r="3" fill="#4e79a7"/><circle cx="610.0" cy="232.0" r="3" fill="#4e79a7"/><circle cx="621.9" cy="210.5" r="3" fill="#4e79a7"/><circle cx="633.8" cy="232.0" r="3" fill="#4e79a7"/><circle cx="645.7" cy="210.5" r="3" fill="#4e79a7"/><circle cx="657.5" cy="232.0" r="3" fill="#4e79a7"/><circle cx="669.4" cy="232.0" r="3" fill="#4e79a7"/><circle cx="681.3" cy="232.0" r="3" fill="#4e79a7"/><circle cx="693.1" cy="221.3" r="3" fill="#4e79a7"/><circle cx="705.0" cy="221.3" r="3" fill="#4e79a7"/><circle cx="716.9" cy="232.0" r="3" fill="#4e79a7"/><circle cx="728.8" cy="232.0" r="3" fill="#4e79a7"/><circle cx="740.6" cy="232.0" r="3" fill="#4e79a7"/><circle cx="752.5" cy="232.0" r="3" fill="#4e79a7"/><circle cx="764.4" cy="232.0" r="3" fill="#4e79a7"/><circle cx="776.3" cy="221.3" r="3" fill="#4e79a7"/><circle cx="788.1" cy="221.3" r="3" fill="#4e79a7"/><circle cx="800.0" cy="232.0" r="3" fill="#4e79a7"/>
  <circle cx="52.0" cy="232.0" r="3" fill="#f28e2b"/><circle cx="63.9" cy="210.5" r="3" fill="#f28e2b"/><circle cx="75.7" cy="210.5" r="3" fill="#f28e2b"/><circle cx="87.6" cy="232.0" r="3" fill="#f28e2b"/><circle cx="99.5" cy="221.3" r="3" fill="#f28e2b"/><circle cx="111.4" cy="232.0" r="3" fill="#f28e2b"/><circle cx="123.2" cy="232.0" r="3" fill="#f28e2b"/><circle cx="135.1" cy="221.3" r="3" fill="#f28e2b"/><circle cx="147.0" cy="232.0" r="3" fill="#f28e2b"/><circle cx="158.9" cy="221.3" r="3" fill="#f28e2b"/><circle cx="170.7" cy="232.0" r="3" fill="#f28e2b"/><circle cx="182.6" cy="232.0" r="3" fill="#f28e2b"/><circle cx="194.5" cy="232.0" r="3" fill="#f28e2b"/><circle cx="206.3" cy="124.6" r="3" fill="#f28e2b"/><circle cx="218.2" cy="103.2" r="3" fill="#f28e2b"/><circle cx="230.1" cy="103.2" r="3" fill="#f28e2b"/><circle cx="242.0" cy="221.3" r="3" fill="#f28e2b"/><circle cx="253.8" cy="232.0" r="3" fill="#f28e2b"/><circle cx="265.7" cy="221.3" r="3" fill="#f28e2b"/><circle cx="277.6" cy="232.0" r="3" fill="#f28e2b"/><circle cx="289.5" cy="221.3" r="3" fill="#f28e2b"/><circle cx="301.3" cy="232.0" r="3" fill="#f28e2b"/><circle cx="313.2" cy="221.3" r="3" fill="#f28e2b"/><circle cx="325.1" cy="232.0" r="3" fill="#f28e2b"/><circle cx="337.0" cy="232.0" r="3" fill="#f28e2b"/><circle cx="348.8" cy="221.3" r="3" fill="#f28e2b"/><circle cx="360.7" cy="232.0" r="3" fill="#f28e2b"/><circle cx="372.6" cy="232.0" r="3" fill="#f28e2b"/><circle cx="384.4" cy="221.3" r="3" fill="#f28e2b"/><circle cx="396.3" cy="210.5" r="3" fill="#f28e2b"/><circle cx="408.2" cy="210.5" r="3" fill="#f28e2b"/><circle cx="420.1" cy="232.0" r="3" fill="#f28e2b"/><circle cx="431.9" cy="232.0" r="3" fill="#f28e2b"/><circle cx="443.8" cy="221.3" r="3" fill="#f28e2b"/><circle cx="455.7" cy="210.5" r="3" fill="#f28e2b"/><circle cx="467.6" cy="221.3" r="3" fill="#f28e2b"/><circle cx="479.4" cy="221.3" r="3" fill="#f28e2b"/><circle cx="491.3" cy="232.0" r="3" fill="#f28e2b"/><circle cx="503.2" cy="146.1" r="3" fill="#f28e2b"/><circle cx="515.0" cy="167.6" r="3" fill="#f28e2b"/><circle cx="526.9" cy="232.0" r="3" fill="#f28e2b"/><circle cx="538.8" cy="221.3" r="3" fill="#f28e2b"/><circle cx="550.7" cy="221.3" r="3" fill="#f28e2b"/><circle cx="562.5" cy="221.3" r="3" fill="#f28e2b"/><circle cx="574.4" cy="221.3" r="3" fill="#f28e2b"/><circle cx="586.3" cy="232.0" r="3" fill="#f28e2b"/><circle cx="598.2" cy="232.0" r="3" fill="#f28e2b"/><circle cx="610.0" cy="232.0" r="3" fill="#f28e2b"/><circle cx="621.9" cy="210.5" r="3" fill="#f28e2b"/><circle cx="633.8" cy="232.0" r="3" fill="#f28e2b"/><circle cx="645.7" cy="210.5" r="3" fill="#f28e2b"/><circle cx="657.5" cy="232.0" r="3" fill="#f28e2b"/><circle cx="669.4" cy="232.0" r="3" fill="#f28e2b"/><circle cx="681.3" cy="232.0" r="3" fill="#f28e2b"/><circle cx="693.1" cy="221.3" r="3" fill="#f28e2b"/><circle cx="705.0" cy="221.3" r="3" fill="#f28e2b"/><circle cx="716.9" cy="232.0" r="3" fill="#f28e2b"/><circle cx="728.8" cy="232.0" r="3" fill="#f28e2b"/><circle cx="740.6" cy="232.0" r="3" fill="#f28e2b"/><circle cx="752.5" cy="232.0" r="3" fill="#f28e2b"/><circle cx="764.4" cy="232.0" r="3" fill="#f28e2b"/><circle cx="776.3" cy="221.3" r="3" fill="#f28e2b"/><circle cx="788.1" cy="221.3" r="3" fill="#f28e2b"/><circle cx="800.0" cy="232.0" r="3" fill="#f28e2b"/>

  <!-- axes -->
  <line x1="52" y1="28" x2="52" y2="232"
        stroke="#cccccc" stroke-width="1"/>
  <line x1="52" y1="232" x2="800" y2="232"
        stroke="#cccccc" stroke-width="1"/>

  <!-- y-axis labels -->
  <text x="47" y="236.0" text-anchor="end" font-size="10" fill="#57606a" font-family="ui-monospace, SFMono-Regular, 'SF Mono', Menlo, monospace">0</text><text x="47" y="193.1" text-anchor="end" font-size="10" fill="#57606a" font-family="ui-monospace, SFMono-Regular, 'SF Mono', Menlo, monospace">4</text><text x="47" y="150.1" text-anchor="end" font-size="10" fill="#57606a" font-family="ui-monospace, SFMono-Regular, 'SF Mono', Menlo, monospace">8</text><text x="47" y="107.2" text-anchor="end" font-size="10" fill="#57606a" font-family="ui-monospace, SFMono-Regular, 'SF Mono', Menlo, monospace">12</text><text x="47" y="64.2" text-anchor="end" font-size="10" fill="#57606a" font-family="ui-monospace, SFMono-Regular, 'SF Mono', Menlo, monospace">16</text><text x="47" y="21.3" text-anchor="end" font-size="10" fill="#57606a" font-family="ui-monospace, SFMono-Regular, 'SF Mono', Menlo, monospace">20</text>

  <!-- x-axis labels -->
  <text x="52.0" y="248" text-anchor="middle" font-size="10" fill="#8c959f" font-family="ui-monospace, SFMono-Regular, 'SF Mono', Menlo, monospace">05-11</text><text x="431.9" y="248" text-anchor="middle" font-size="10" fill="#8c959f" font-family="ui-monospace, SFMono-Regular, 'SF Mono', Menlo, monospace">06-12</text><text x="147.0" y="248" text-anchor="middle" font-size="10" fill="#8c959f" font-family="ui-monospace, SFMono-Regular, 'SF Mono', Menlo, monospace">05-19</text><text x="526.9" y="248" text-anchor="middle" font-size="10" fill="#8c959f" font-family="ui-monospace, SFMono-Regular, 'SF Mono', Menlo, monospace">06-20</text><text x="242.0" y="248" text-anchor="middle" font-size="10" fill="#8c959f" font-family="ui-monospace, SFMono-Regular, 'SF Mono', Menlo, monospace">05-27</text><text x="621.9" y="248" text-anchor="middle" font-size="10" fill="#8c959f" font-family="ui-monospace, SFMono-Regular, 'SF Mono', Menlo, monospace">06-28</text><text x="337.0" y="248" text-anchor="middle" font-size="10" fill="#8c959f" font-family="ui-monospace, SFMono-Regular, 'SF Mono', Menlo, monospace">06-04</text><text x="716.9" y="248" text-anchor="middle" font-size="10" fill="#8c959f" font-family="ui-monospace, SFMono-Regular, 'SF Mono', Menlo, monospace">07-06</text><text x="800.0" y="248" text-anchor="middle" font-size="10" fill="#8c959f" font-family="ui-monospace, SFMono-Regular, 'SF Mono', Menlo, monospace">07-13</text>

  <!-- legend -->
  <rect x="60" y="262" width="16" height="3" fill="#4e79a7" rx="1"/><text x="80" y="268" font-size="11" fill="#57606a" font-family="-apple-system, BlinkMacSystemFont, 'Segoe UI', sans-serif">Total clones (118)</text><line x1="230" y1="264" x2="246" y2="264" stroke="#f28e2b" stroke-width="2" stroke-dasharray="5,3"/><text x="250" y="268" font-size="11" fill="#57606a" font-family="-apple-system, BlinkMacSystemFont, 'Segoe UI', sans-serif">Unique cloners</text>

</svg>