<svg xmlns="http://www.w3.org/2000/svg" viewBox="0 0 820 280" width="820" height="280">

  <!-- title -->
  <text x="52" y="18" font-size="13" font-weight="600"
        fill="#24292f" font-family="-apple-system, BlinkMacSystemFont, 'Segoe UI', sans-serif"
        >Clone traffic — docforge</text>
  <text x="800" y="18" font-size="10" fill="#8c959f"
        font-family="ui-monospace, SFMono-Regular, 'SF Mono', Menlo, monospace" text-anchor="end">2026-07-13</text>

  <!-- grid -->
  <line x1="52" y1="232.0" x2="800" y2="232.0" stroke="#e8e8e8" stroke-width="1"/><line x1="52" y1="189.1" x2="800" y2="189.1" stroke="#e8e8e8" stroke-width="1"/><line x1="52" y1="146.1" x2="800" y2="146.1" stroke="#e8e8e8" stroke-width="1"/><line x1="52" y1="103.2" x2="800" y2="103.2" stroke="#e8e8e8" stroke-width="1"/><line x1="52" y1="60.2" x2="800" y2="60.2" stroke="#e8e8e8" stroke-width="1"/><line x1="52" y1="17.3" x2="800" y2="17.3" stroke="#e8e8e8" stroke-width="1"/>

  <!-- area fill -->
  <path d="M52.0,232.0 L52.0,232.0 L64.3,210.5 L76.5,210.5 L88.8,232.0 L101.0,221.3 L113.3,232.0 L125.6,232.0 L137.8,221.3 L150.1,232.0 L162.4,221.3 L174.6,232.0 L186.9,232.0 L199.1,232.0 L211.4,92.4 L223.7,49.5 L235.9,60.2 L248.2,221.3 L260.5,232.0 L272.7,221.3 L285.0,232.0 L297.2,221.3 L309.5,232.0 L321.8,221.3 L334.0,232.0 L346.3,232.0 L358.6,221.3 L370.8,232.0 L383.1,232.0 L395.3,221.3 L407.6,199.8 L419.9,210.5 L432.1,232.0 L444.4,232.0 L456.7,210.5 L468.9,210.5 L481.2,221.3 L493.4,221.3 L505.7,232.0 L518.0,28.0 L530.2,49.5 L542.5,232.0 L554.8,221.3 L567.0,221.3 L579.3,221.3 L591.5,221.3 L603.8,232.0 L616.1,232.0 L628.3,232.0 L640.6,210.5 L652.9,232.0 L665.1,210.5 L677.4,232.0 L689.6,232.0 L701.9,232.0 L714.2,221.3 L726.4,221.3 L738.7,232.0 L751.0,232.0 L763.2,232.0 L775.5,232.0 L787.7,232.0 L800.0,221.3 L800.0,232.0 L52.0,232.0Z" fill="#4e79a7" opacity="0.12"/>

  <!-- lines -->
  <polyline points="52.0,232.0 64.3,210.5 76.5,210.5 88.8,232.0 101.0,221.3 113.3,232.0 125.6,232.0 137.8,221.3 150.1,232.0 162.4,221.3 174.6,232.0 186.9,232.0 199.1,232.0 211.4,92.4 223.7,49.5 235.9,60.2 248.2,221.3 260.5,232.0 272.7,221.3 285.0,232.0 297.2,221.3 309.5,232.0 321.8,221.3 334.0,232.0 346.3,232.0 358.6,221.3 370.8,232.0 383.1,232.0 395.3,221.3 407.6,199.8 419.9,210.5 432.1,232.0 444.4,232.0 456.7,210.5 468.9,210.5 481.2,221.3 493.4,221.3 505.7,232.0 518.0,28.0 530.2,49.5 542.5,232.0 554.8,221.3 567.0,221.3 579.3,221.3 591.5,221.3 603.8,232.0 616.1,232.0 628.3,232.0 640.6,210.5 652.9,232.0 665.1,210.5 677.4,232.0 689.6,232.0 701.9,232.0 714.2,221.3 726.4,221.3 738.7,232.0 751.0,232.0 763.2,232.0 775.5,232.0 787.7,232.0 800.0,221.3"
            fill="none" stroke="#4e79a7"
            stroke-width="2" stroke-linejoin="round"/>
  <polyline points="52.0,232.0 64.3,210.5 76.5,210.5 88.8,232.0 101.0,221.3 113.3,232.0 125.6,232.0 137.8,221.3 150.1,232.0 162.4,221.3 174.6,232.0 186.9,232.0 199.1,232.0 211.4,124.6 223.7,103.2 235.9,103.2 248.2,221.3 260.5,232.0 272.7,221.3 285.0,232.0 297.2,221.3 309.5,232.0 321.8,221.3 334.0,232.0 346.3,232.0 358.6,221.3 370.8,232.0 383.1,232.0 395.3,221.3 407.6,210.5 419.9,210.5 432.1,232.0 444.4,232.0 456.7,221.3 468.9,210.5 481.2,221.3 493.4,221.3 505.7,232.0 518.0,146.1 530.2,167.6 542.5,232.0 554.8,221.3 567.0,221.3 579.3,221.3 591.5,221.3 603.8,232.0 616.1,232.0 628.3,232.0 640.6,210.5 652.9,232.0 665.1,210.5 677.4,232.0 689.6,232.0 701.9,232.0 714.2,221.3 726.4,221.3 738.7,232.0 751.0,232.0 763.2,232.0 775.5,232.0 787.7,232.0 800.0,221.3"
            fill="none" stroke="#f28e2b"
            stroke-width="2" stroke-linejoin="round"
            stroke-dasharray="5,3"/>

  <!-- dots -->
  <circle cx="52.0" cy="232.0" r="3" fill="#4e79a7"/><circle cx="64.3" cy="210.5" r="3" fill="#4e79a7"/><circle cx="76.5" cy="210.5" r="3" fill="#4e79a7"/><circle cx="88.8" cy="232.0" r="3" fill="#4e79a7"/><circle cx="101.0" cy="221.3" r="3" fill="#4e79a7"/><circle cx="113.3" cy="232.0" r="3" fill="#4e79a7"/><circle cx="125.6" cy="232.0" r="3" fill="#4e79a7"/><circle cx="137.8" cy="221.3" r="3" fill="#4e79a7"/><circle cx="150.1" cy="232.0" r="3" fill="#4e79a7"/><circle cx="162.4" cy="221.3" r="3" fill="#4e79a7"/><circle cx="174.6" cy="232.0" r="3" fill="#4e79a7"/><circle cx="186.9" cy="232.0" r="3" fill="#4e79a7"/><circle cx="199.1" cy="232.0" r="3" fill="#4e79a7"/><circle cx="211.4" cy="92.4" r="3" fill="#4e79a7"/><circle cx="223.7" cy="49.5" r="3" fill="#4e79a7"/><circle cx="235.9" cy="60.2" r="3" fill="#4e79a7"/><circle cx="248.2" cy="221.3" r="3" fill="#4e79a7"/><circle cx="260.5" cy="232.0" r="3" fill="#4e79a7"/><circle cx="272.7" cy="221.3" r="3" fill="#4e79a7"/><circle cx="285.0" cy="232.0" r="3" fill="#4e79a7"/><circle cx="297.2" cy="221.3" r="3" fill="#4e79a7"/><circle cx="309.5" cy="232.0" r="3" fill="#4e79a7"/><circle cx="321.8" cy="221.3" r="3" fill="#4e79a7"/><circle cx="334.0" cy="232.0" r="3" fill="#4e79a7"/><circle cx="346.3" cy="232.0" r="3" fill="#4e79a7"/><circle cx="358.6" cy="221.3" r="3" fill="#4e79a7"/><circle cx="370.8" cy="232.0" r="3" fill="#4e79a7"/><circle cx="383.1" cy="232.0" r="3" fill="#4e79a7"/><circle cx="395.3" cy="221.3" r="3" fill="#4e79a7"/><circle cx="407.6" cy="199.8" r="3" fill="#4e79a7"/><circle cx="419.9" cy="210.5" r="3" fill="#4e79a7"/><circle cx="432.1" cy="232.0" r="3" fill="#4e79a7"/><circle cx="444.4" cy="232.0" r="3" fill="#4e79a7"/><circle cx="456.7" cy="210.5" r="3" fill="#4e79a7"/><circle cx="468.9" cy="210.5" r="3" fill="#4e79a7"/><circle cx="481.2" cy="221.3" r="3" fill="#4e79a7"/><circle cx="493.4" cy="221.3" r="3" fill="#4e79a7"/><circle cx="505.7" cy="232.0" r="3" fill="#4e79a7"/><circle cx="518.0" cy="28.0" r="3" fill="#4e79a7"/><circle cx="530.2" cy="49.5" r="3" fill="#4e79a7"/><circle cx="542.5" cy="232.0" r="3" fill="#4e79a7"/><circle cx="554.8" cy="221.3" r="3" fill="#4e79a7"/><circle cx="567.0" cy="221.3" r="3" fill="#4e79a7"/><circle cx="579.3" cy="221.3" r="3" fill="#4e79a7"/><circle cx="591.5" cy="221.3" r="3" fill="#4e79a7"/><circle cx="603.8" cy="232.0" r="3" fill="#4e79a7"/><circle cx="616.1" cy="232.0" r="3" fill="#4e79a7"/><circle cx="628.3" cy="232.0" r="3" fill="#4e79a7"/><circle cx="640.6" cy="210.5" r="3" fill="#4e79a7"/><circle cx="652.9" cy="232.0" r="3" fill="#4e79a7"/><circle cx="665.1" cy="210.5" r="3" fill="#4e79a7"/><circle cx="677.4" cy="232.0" r="3" fill="#4e79a7"/><circle cx="689.6" cy="232.0" r="3" fill="#4e79a7"/><circle cx="701.9" cy="232.0" r="3" fill="#4e79a7"/><circle cx="714.2" cy="221.3" r="3" fill="#4e79a7"/><circle cx="726.4" cy="221.3" r="3" fill="#4e79a7"/><circle cx="738.7" cy="232.0" r="3" fill="#4e79a7"/><circle cx="751.0" cy="232.0" r="3" fill="#4e79a7"/><circle cx="763.2" cy="232.0" r="3" fill="#4e79a7"/><circle cx="775.5" cy="232.0" r="3" fill="#4e79a7"/><circle cx="787.7" cy="232.0" r="3" fill="#4e79a7"/><circle cx="800.0" cy="221.3" r="3" fill="#4e79a7"/>
  <circle cx="52.0" cy="232.0" r="3" fill="#f28e2b"/><circle cx="64.3" cy="210.5" r="3" fill="#f28e2b"/><circle cx="76.5" cy="210.5" r="3" fill="#f28e2b"/><circle cx="88.8" cy="232.0" r="3" fill="#f28e2b"/><circle cx="101.0" cy="221.3" r="3" fill="#f28e2b"/><circle cx="113.3" cy="232.0" r="3" fill="#f28e2b"/><circle cx="125.6" cy="232.0" r="3" fill="#f28e2b"/><circle cx="137.8" cy="221.3" r="3" fill="#f28e2b"/><circle cx="150.1" cy="232.0" r="3" fill="#f28e2b"/><circle cx="162.4" cy="221.3" r="3" fill="#f28e2b"/><circle cx="174.6" cy="232.0" r="3" fill="#f28e2b"/><circle cx="186.9" cy="232.0" r="3" fill="#f28e2b"/><circle cx="199.1" cy="232.0" r="3" fill="#f28e2b"/><circle cx="211.4" cy="124.6" r="3" fill="#f28e2b"/><circle cx="223.7" cy="103.2" r="3" fill="#f28e2b"/><circle cx="235.9" cy="103.2" r="3" fill="#f28e2b"/><circle cx="248.2" cy="221.3" r="3" fill="#f28e2b"/><circle cx="260.5" cy="232.0" r="3" fill="#f28e2b"/><circle cx="272.7" cy="221.3" r="3" fill="#f28e2b"/><circle cx="285.0" cy="232.0" r="3" fill="#f28e2b"/><circle cx="297.2" cy="221.3" r="3" fill="#f28e2b"/><circle cx="309.5" cy="232.0" r="3" fill="#f28e2b"/><circle cx="321.8" cy="221.3" r="3" fill="#f28e2b"/><circle cx="334.0" cy="232.0" r="3" fill="#f28e2b"/><circle cx="346.3" cy="232.0" r="3" fill="#f28e2b"/><circle cx="358.6" cy="221.3" r="3" fill="#f28e2b"/><circle cx="370.8" cy="232.0" r="3" fill="#f28e2b"/><circle cx="383.1" cy="232.0" r="3" fill="#f28e2b"/><circle cx="395.3" cy="221.3" r="3" fill="#f28e2b"/><circle cx="407.6" cy="210.5" r="3" fill="#f28e2b"/><circle cx="419.9" cy="210.5" r="3" fill="#f28e2b"/><circle cx="432.1" cy="232.0" r="3" fill="#f28e2b"/><circle cx="444.4" cy="232.0" r="3" fill="#f28e2b"/><circle cx="456.7" cy="221.3" r="3" fill="#f28e2b"/><circle cx="468.9" cy="210.5" r="3" fill="#f28e2b"/><circle cx="481.2" cy="221.3" r="3" fill="#f28e2b"/><circle cx="493.4" cy="221.3" r="3" fill="#f28e2b"/><circle cx="505.7" cy="232.0" r="3" fill="#f28e2b"/><circle cx="518.0" cy="146.1" r="3" fill="#f28e2b"/><circle cx="530.2" cy="167.6" r="3" fill="#f28e2b"/><circle cx="542.5" cy="232.0" r="3" fill="#f28e2b"/><circle cx="554.8" cy="221.3" r="3" fill="#f28e2b"/><circle cx="567.0" cy="221.3" r="3" fill="#f28e2b"/><circle cx="579.3" cy="221.3" r="3" fill="#f28e2b"/><circle cx="591.5" cy="221.3" r="3" fill="#f28e2b"/><circle cx="603.8" cy="232.0" r="3" fill="#f28e2b"/><circle cx="616.1" cy="232.0" r="3" fill="#f28e2b"/><circle cx="628.3" cy="232.0" r="3" fill="#f28e2b"/><circle cx="640.6" cy="210.5" r="3" fill="#f28e2b"/><circle cx="652.9" cy="232.0" r="3" fill="#f28e2b"/><circle cx="665.1" cy="210.5" r="3" fill="#f28e2b"/><circle cx="677.4" cy="232.0" r="3" fill="#f28e2b"/><circle cx="689.6" cy="232.0" r="3" fill="#f28e2b"/><circle cx="701.9" cy="232.0" r="3" fill="#f28e2b"/><circle cx="714.2" cy="221.3" r="3" fill="#f28e2b"/><circle cx="726.4" cy="221.3" r="3" fill="#f28e2b"/><circle cx="738.7" cy="232.0" r="3" fill="#f28e2b"/><circle cx="751.0" cy="232.0" r="3" fill="#f28e2b"/><circle cx="763.2" cy="232.0" r="3" fill="#f28e2b"/><circle cx="775.5" cy="232.0" r="3" fill="#f28e2b"/><circle cx="787.7" cy="232.0" r="3" fill="#f28e2b"/><circle cx="800.0" cy="221.3" r="3" fill="#f28e2b"/>

  <!-- axes -->
  <line x1="52" y1="28" x2="52" y2="232"
        stroke="#cccccc" stroke-width="1"/>
  <line x1="52" y1="232" x2="800" y2="232"
        stroke="#cccccc" stroke-width="1"/>

  <!-- y-axis labels -->
  <text x="47" y="236.0" text-anchor="end" font-size="10" fill="#57606a" font-family="ui-monospace, SFMono-Regular, 'SF Mono', Menlo, monospace">0</text><text x="47" y="193.1" text-anchor="end" font-size="10" fill="#57606a" font-family="ui-monospace, SFMono-Regular, 'SF Mono', Menlo, monospace">4</text><text x="47" y="150.1" text-anchor="end" font-size="10" fill="#57606a" font-family="ui-monospace, SFMono-Regular, 'SF Mono', Menlo, monospace">8</text><text x="47" y="107.2" text-anchor="end" font-size="10" fill="#57606a" font-family="ui-monospace, SFMono-Regular, 'SF Mono', Menlo, monospace">12</text><text x="47" y="64.2" text-anchor="end" font-size="10" fill="#57606a" font-family="ui-monospace, SFMono-Regular, 'SF Mono', Menlo, monospace">16</text><text x="47" y="21.3" text-anchor="end" font-size="10" fill="#57606a" font-family="ui-monospace, SFMono-Regular, 'SF Mono', Menlo, monospace">20</text>

  <!-- x-axis labels -->
  <text x="52.0" y="248" text-anchor="middle" font-size="10" fill="#8c959f" font-family="ui-monospace, SFMono-Regular, 'SF Mono', Menlo, monospace">05-11</text><text x="481.2" y="248" text-anchor="middle" font-size="10" fill="#8c959f" font-family="ui-monospace, SFMono-Regular, 'SF Mono', Menlo, monospace">06-15</text><text x="137.8" y="248" text-anchor="middle" font-size="10" fill="#8c959f" font-family="ui-monospace, SFMono-Regular, 'SF Mono', Menlo, monospace">05-18</text><text x="567.0" y="248" text-anchor="middle" font-size="10" fill="#8c959f" font-family="ui-monospace, SFMono-Regular, 'SF Mono', Menlo, monospace">06-22</text><text x="223.7" y="248" text-anchor="middle" font-size="10" fill="#8c959f" font-family="ui-monospace, SFMono-Regular, 'SF Mono', Menlo, monospace">05-25</text><text x="652.9" y="248" text-anchor="middle" font-size="10" fill="#8c959f" font-family="ui-monospace, SFMono-Regular, 'SF Mono', Menlo, monospace">06-29</text><text x="309.5" y="248" text-anchor="middle" font-size="10" fill="#8c959f" font-family="ui-monospace, SFMono-Regular, 'SF Mono', Menlo, monospace">06-01</text><text x="738.7" y="248" text-anchor="middle" font-size="10" fill="#8c959f" font-family="ui-monospace, SFMono-Regular, 'SF Mono', Menlo, monospace">07-06</text><text x="395.3" y="248" text-anchor="middle" font-size="10" fill="#8c959f" font-family="ui-monospace, SFMono-Regular, 'SF Mono', Menlo, monospace">06-08</text><text x="800.0" y="248" text-anchor="middle" font-size="10" fill="#8c959f" font-family="ui-monospace, SFMono-Regular, 'SF Mono', Menlo, monospace">07-11</text>

  <!-- legend -->
  <rect x="60" y="262" width="16" height="3" fill="#4e79a7" rx="1"/><text x="80" y="268" font-size="11" fill="#57606a" font-family="-apple-system, BlinkMacSystemFont, 'Segoe UI', sans-serif">Total clones (117)</text><line x1="230" y1="264" x2="246" y2="264" stroke="#f28e2b" stroke-width="2" stroke-dasharray="5,3"/><text x="250" y="268" font-size="11" fill="#57606a" font-family="-apple-system, BlinkMacSystemFont, 'Segoe UI', sans-serif">Unique cloners</text>

</svg>