<svg xmlns="http://www.w3.org/2000/svg" viewBox="0 0 820 280" width="820" height="280">

  <!-- title -->
  <text x="52" y="18" font-size="13" font-weight="600"
        fill="#24292f" font-family="-apple-system, BlinkMacSystemFont, 'Segoe UI', sans-serif"
        >Clone traffic — docforge</text>
  <text x="800" y="18" font-size="10" fill="#8c959f"
        font-family="ui-monospace, SFMono-Regular, 'SF Mono', Menlo, monospace" text-anchor="end">2026-06-24</text>

  <!-- grid -->
  <line x1="52" y1="232.0" x2="800" y2="232.0" stroke="#e8e8e8" stroke-width="1"/><line x1="52" y1="189.1" x2="800" y2="189.1" stroke="#e8e8e8" stroke-width="1"/><line x1="52" y1="146.1" x2="800" y2="146.1" stroke="#e8e8e8" stroke-width="1"/><line x1="52" y1="103.2" x2="800" y2="103.2" stroke="#e8e8e8" stroke-width="1"/><line x1="52" y1="60.2" x2="800" y2="60.2" stroke="#e8e8e8" stroke-width="1"/><line x1="52" y1="17.3" x2="800" y2="17.3" stroke="#e8e8e8" stroke-width="1"/>

  <!-- area fill -->
  <path d="M52.0,232.0 L52.0,232.0 L69.8,210.5 L87.6,210.5 L105.4,232.0 L123.2,221.3 L141.0,232.0 L158.9,232.0 L176.7,221.3 L194.5,232.0 L212.3,221.3 L230.1,232.0 L247.9,232.0 L265.7,232.0 L283.5,92.4 L301.3,49.5 L319.1,60.2 L337.0,221.3 L354.8,232.0 L372.6,221.3 L390.4,232.0 L408.2,221.3 L426.0,232.0 L443.8,221.3 L461.6,232.0 L479.4,232.0 L497.2,221.3 L515.0,232.0 L532.9,232.0 L550.7,221.3 L568.5,199.8 L586.3,210.5 L604.1,232.0 L621.9,232.0 L639.7,210.5 L657.5,210.5 L675.3,221.3 L693.1,221.3 L711.0,232.0 L728.8,28.0 L746.6,49.5 L764.4,232.0 L782.2,221.3 L800.0,221.3 L800.0,232.0 L52.0,232.0Z" fill="#4e79a7" opacity="0.12"/>

  <!-- lines -->
  <polyline points="52.0,232.0 69.8,210.5 87.6,210.5 105.4,232.0 123.2,221.3 141.0,232.0 158.9,232.0 176.7,221.3 194.5,232.0 212.3,221.3 230.1,232.0 247.9,232.0 265.7,232.0 283.5,92.4 301.3,49.5 319.1,60.2 337.0,221.3 354.8,232.0 372.6,221.3 390.4,232.0 408.2,221.3 426.0,232.0 443.8,221.3 461.6,232.0 479.4,232.0 497.2,221.3 515.0,232.0 532.9,232.0 550.7,221.3 568.5,199.8 586.3,210.5 604.1,232.0 621.9,232.0 639.7,210.5 657.5,210.5 675.3,221.3 693.1,221.3 711.0,232.0 728.8,28.0 746.6,49.5 764.4,232.0 782.2,221.3 800.0,221.3"
            fill="none" stroke="#4e79a7"
            stroke-width="2" stroke-linejoin="round"/>
  <polyline points="52.0,232.0 69.8,210.5 87.6,210.5 105.4,232.0 123.2,221.3 141.0,232.0 158.9,232.0 176.7,221.3 194.5,232.0 212.3,221.3 230.1,232.0 247.9,232.0 265.7,232.0 283.5,124.6 301.3,103.2 319.1,103.2 337.0,221.3 354.8,232.0 372.6,221.3 390.4,232.0 408.2,221.3 426.0,232.0 443.8,221.3 461.6,232.0 479.4,232.0 497.2,221.3 515.0,232.0 532.9,232.0 550.7,221.3 568.5,210.5 586.3,210.5 604.1,232.0 621.9,232.0 639.7,221.3 657.5,210.5 675.3,221.3 693.1,221.3 711.0,232.0 728.8,146.1 746.6,167.6 764.4,232.0 782.2,221.3 800.0,221.3"
            fill="none" stroke="#f28e2b"
            stroke-width="2" stroke-linejoin="round"
            stroke-dasharray="5,3"/>

  <!-- dots -->
  <circle cx="52.0" cy="232.0" r="3" fill="#4e79a7"/><circle cx="69.8" cy="210.5" r="3" fill="#4e79a7"/><circle cx="87.6" cy="210.5" r="3" fill="#4e79a7"/><circle cx="105.4" cy="232.0" r="3" fill="#4e79a7"/><circle cx="123.2" cy="221.3" r="3" fill="#4e79a7"/><circle cx="141.0" cy="232.0" r="3" fill="#4e79a7"/><circle cx="158.9" cy="232.0" r="3" fill="#4e79a7"/><circle cx="176.7" cy="221.3" r="3" fill="#4e79a7"/><circle cx="194.5" cy="232.0" r="3" fill="#4e79a7"/><circle cx="212.3" cy="221.3" r="3" fill="#4e79a7"/><circle cx="230.1" cy="232.0" r="3" fill="#4e79a7"/><circle cx="247.9" cy="232.0" r="3" fill="#4e79a7"/><circle cx="265.7" cy="232.0" r="3" fill="#4e79a7"/><circle cx="283.5" cy="92.4" r="3" fill="#4e79a7"/><circle cx="301.3" cy="49.5" r="3" fill="#4e79a7"/><circle cx="319.1" cy="60.2" r="3" fill="#4e79a7"/><circle cx="337.0" cy="221.3" r="3" fill="#4e79a7"/><circle cx="354.8" cy="232.0" r="3" fill="#4e79a7"/><circle cx="372.6" cy="221.3" r="3" fill="#4e79a7"/><circle cx="390.4" cy="232.0" r="3" fill="#4e79a7"/><circle cx="408.2" cy="221.3" r="3" fill="#4e79a7"/><circle cx="426.0" cy="232.0" r="3" fill="#4e79a7"/><circle cx="443.8" cy="221.3" r="3" fill="#4e79a7"/><circle cx="461.6" cy="232.0" r="3" fill="#4e79a7"/><circle cx="479.4" cy="232.0" r="3" fill="#4e79a7"/><circle cx="497.2" cy="221.3" r="3" fill="#4e79a7"/><circle cx="515.0" cy="232.0" r="3" fill="#4e79a7"/><circle cx="532.9" cy="232.0" r="3" fill="#4e79a7"/><circle cx="550.7" cy="221.3" r="3" fill="#4e79a7"/><circle cx="568.5" cy="199.8" r="3" fill="#4e79a7"/><circle cx="586.3" cy="210.5" r="3" fill="#4e79a7"/><circle cx="604.1" cy="232.0" r="3" fill="#4e79a7"/><circle cx="621.9" cy="232.0" r="3" fill="#4e79a7"/><circle cx="639.7" cy="210.5" r="3" fill="#4e79a7"/><circle cx="657.5" cy="210.5" r="3" fill="#4e79a7"/><circle cx="675.3" cy="221.3" r="3" fill="#4e79a7"/><circle cx="693.1" cy="221.3" r="3" fill="#4e79a7"/><circle cx="711.0" cy="232.0" r="3" fill="#4e79a7"/><circle cx="728.8" cy="28.0" r="3" fill="#4e79a7"/><circle cx="746.6" cy="49.5" r="3" fill="#4e79a7"/><circle cx="764.4" cy="232.0" r="3" fill="#4e79a7"/><circle cx="782.2" cy="221.3" r="3" fill="#4e79a7"/><circle cx="800.0" cy="221.3" r="3" fill="#4e79a7"/>
  <circle cx="52.0" cy="232.0" r="3" fill="#f28e2b"/><circle cx="69.8" cy="210.5" r="3" fill="#f28e2b"/><circle cx="87.6" cy="210.5" r="3" fill="#f28e2b"/><circle cx="105.4" cy="232.0" r="3" fill="#f28e2b"/><circle cx="123.2" cy="221.3" r="3" fill="#f28e2b"/><circle cx="141.0" cy="232.0" r="3" fill="#f28e2b"/><circle cx="158.9" cy="232.0" r="3" fill="#f28e2b"/><circle cx="176.7" cy="221.3" r="3" fill="#f28e2b"/><circle cx="194.5" cy="232.0" r="3" fill="#f28e2b"/><circle cx="212.3" cy="221.3" r="3" fill="#f28e2b"/><circle cx="230.1" cy="232.0" r="3" fill="#f28e2b"/><circle cx="247.9" cy="232.0" r="3" fill="#f28e2b"/><circle cx="265.7" cy="232.0" r="3" fill="#f28e2b"/><circle cx="283.5" cy="124.6" r="3" fill="#f28e2b"/><circle cx="301.3" cy="103.2" r="3" fill="#f28e2b"/><circle cx="319.1" cy="103.2" r="3" fill="#f28e2b"/><circle cx="337.0" cy="221.3" r="3" fill="#f28e2b"/><circle cx="354.8" cy="232.0" r="3" fill="#f28e2b"/><circle cx="372.6" cy="221.3" r="3" fill="#f28e2b"/><circle cx="390.4" cy="232.0" r="3" fill="#f28e2b"/><circle cx="408.2" cy="221.3" r="3" fill="#f28e2b"/><circle cx="426.0" cy="232.0" r="3" fill="#f28e2b"/><circle cx="443.8" cy="221.3" r="3" fill="#f28e2b"/><circle cx="461.6" cy="232.0" r="3" fill="#f28e2b"/><circle cx="479.4" cy="232.0" r="3" fill="#f28e2b"/><circle cx="497.2" cy="221.3" r="3" fill="#f28e2b"/><circle cx="515.0" cy="232.0" r="3" fill="#f28e2b"/><circle cx="532.9" cy="232.0" r="3" fill="#f28e2b"/><circle cx="550.7" cy="221.3" r="3" fill="#f28e2b"/><circle cx="568.5" cy="210.5" r="3" fill="#f28e2b"/><circle cx="586.3" cy="210.5" r="3" fill="#f28e2b"/><circle cx="604.1" cy="232.0" r="3" fill="#f28e2b"/><circle cx="621.9" cy="232.0" r="3" fill="#f28e2b"/><circle cx="639.7" cy="221.3" r="3" fill="#f28e2b"/><circle cx="657.5" cy="210.5" r="3" fill="#f28e2b"/><circle cx="675.3" cy="221.3" r="3" fill="#f28e2b"/><circle cx="693.1" cy="221.3" r="3" fill="#f28e2b"/><circle cx="711.0" cy="232.0" r="3" fill="#f28e2b"/><circle cx="728.8" cy="146.1" r="3" fill="#f28e2b"/><circle cx="746.6" cy="167.6" r="3" fill="#f28e2b"/><circle cx="764.4" cy="232.0" r="3" fill="#f28e2b"/><circle cx="782.2" cy="221.3" r="3" fill="#f28e2b"/><circle cx="800.0" cy="221.3" r="3" fill="#f28e2b"/>

  <!-- axes -->
  <line x1="52" y1="28" x2="52" y2="232"
        stroke="#cccccc" stroke-width="1"/>
  <line x1="52" y1="232" x2="800" y2="232"
        stroke="#cccccc" stroke-width="1"/>

  <!-- y-axis labels -->
  <text x="47" y="236.0" text-anchor="end" font-size="10" fill="#57606a" font-family="ui-monospace, SFMono-Regular, 'SF Mono', Menlo, monospace">0</text><text x="47" y="193.1" text-anchor="end" font-size="10" fill="#57606a" font-family="ui-monospace, SFMono-Regular, 'SF Mono', Menlo, monospace">4</text><text x="47" y="150.1" text-anchor="end" font-size="10" fill="#57606a" font-family="ui-monospace, SFMono-Regular, 'SF Mono', Menlo, monospace">8</text><text x="47" y="107.2" text-anchor="end" font-size="10" fill="#57606a" font-family="ui-monospace, SFMono-Regular, 'SF Mono', Menlo, monospace">12</text><text x="47" y="64.2" text-anchor="end" font-size="10" fill="#57606a" font-family="ui-monospace, SFMono-Regular, 'SF Mono', Menlo, monospace">16</text><text x="47" y="21.3" text-anchor="end" font-size="10" fill="#57606a" font-family="ui-monospace, SFMono-Regular, 'SF Mono', Menlo, monospace">20</text>

  <!-- x-axis labels -->
  <text x="52.0" y="248" text-anchor="middle" font-size="10" fill="#8c959f" font-family="ui-monospace, SFMono-Regular, 'SF Mono', Menlo, monospace">05-11</text><text x="675.3" y="248" text-anchor="middle" font-size="10" fill="#8c959f" font-family="ui-monospace, SFMono-Regular, 'SF Mono', Menlo, monospace">06-15</text><text x="141.0" y="248" text-anchor="middle" font-size="10" fill="#8c959f" font-family="ui-monospace, SFMono-Regular, 'SF Mono', Menlo, monospace">05-16</text><text x="764.4" y="248" text-anchor="middle" font-size="10" fill="#8c959f" font-family="ui-monospace, SFMono-Regular, 'SF Mono', Menlo, monospace">06-20</text><text x="230.1" y="248" text-anchor="middle" font-size="10" fill="#8c959f" font-family="ui-monospace, SFMono-Regular, 'SF Mono', Menlo, monospace">05-21</text><text x="800.0" y="248" text-anchor="middle" font-size="10" fill="#8c959f" font-family="ui-monospace, SFMono-Regular, 'SF Mono', Menlo, monospace">06-22</text><text x="319.1" y="248" text-anchor="middle" font-size="10" fill="#8c959f" font-family="ui-monospace, SFMono-Regular, 'SF Mono', Menlo, monospace">05-26</text><text x="408.2" y="248" text-anchor="middle" font-size="10" fill="#8c959f" font-family="ui-monospace, SFMono-Regular, 'SF Mono', Menlo, monospace">05-31</text><text x="497.2" y="248" text-anchor="middle" font-size="10" fill="#8c959f" font-family="ui-monospace, SFMono-Regular, 'SF Mono', Menlo, monospace">06-05</text><text x="586.3" y="248" text-anchor="middle" font-size="10" fill="#8c959f" font-family="ui-monospace, SFMono-Regular, 'SF Mono', Menlo, monospace">06-10</text>

  <!-- legend -->
  <rect x="60" y="262" width="16" height="3" fill="#4e79a7" rx="1"/><text x="80" y="268" font-size="11" fill="#57606a" font-family="-apple-system, BlinkMacSystemFont, 'Segoe UI', sans-serif">Total clones (108)</text><line x1="230" y1="264" x2="246" y2="264" stroke="#f28e2b" stroke-width="2" stroke-dasharray="5,3"/><text x="250" y="268" font-size="11" fill="#57606a" font-family="-apple-system, BlinkMacSystemFont, 'Segoe UI', sans-serif">Unique cloners</text>

</svg>