<svg xmlns="http://www.w3.org/2000/svg" viewBox="0 0 820 280" width="820" height="280">

  <!-- title -->
  <text x="52" y="18" font-size="13" font-weight="600"
        fill="#24292f" font-family="-apple-system, BlinkMacSystemFont, 'Segoe UI', sans-serif"
        >Clone traffic — docker_pi</text>
  <text x="800" y="18" font-size="10" fill="#8c959f"
        font-family="ui-monospace, SFMono-Regular, 'SF Mono', Menlo, monospace" text-anchor="end">2026-07-19</text>

  <!-- grid -->
  <line x1="52" y1="232.0" x2="800" y2="232.0" stroke="#e8e8e8" stroke-width="1"/><line x1="52" y1="198.0" x2="800" y2="198.0" stroke="#e8e8e8" stroke-width="1"/><line x1="52" y1="164.0" x2="800" y2="164.0" stroke="#e8e8e8" stroke-width="1"/><line x1="52" y1="130.0" x2="800" y2="130.0" stroke="#e8e8e8" stroke-width="1"/><line x1="52" y1="96.0" x2="800" y2="96.0" stroke="#e8e8e8" stroke-width="1"/><line x1="52" y1="62.0" x2="800" y2="62.0" stroke="#e8e8e8" stroke-width="1"/><line x1="52" y1="28.0" x2="800" y2="28.0" stroke="#e8e8e8" stroke-width="1"/>

  <!-- area fill -->
  <path d="M52.0,232.0 L52.0,232.0 L63.2,198.0 L74.3,164.0 L85.5,232.0 L96.7,232.0 L107.8,232.0 L119.0,232.0 L130.1,198.0 L141.3,198.0 L152.5,232.0 L163.6,198.0 L174.8,232.0 L186.0,232.0 L197.1,164.0 L208.3,232.0 L219.5,232.0 L230.6,232.0 L241.8,232.0 L253.0,232.0 L264.1,232.0 L275.3,198.0 L286.4,232.0 L297.6,198.0 L308.8,198.0 L319.9,232.0 L331.1,232.0 L342.3,232.0 L353.4,232.0 L364.6,232.0 L375.8,130.0 L386.9,198.0 L398.1,232.0 L409.3,232.0 L420.4,232.0 L431.6,232.0 L442.7,232.0 L453.9,232.0 L465.1,232.0 L476.2,28.0 L487.4,198.0 L498.6,232.0 L509.7,198.0 L520.9,232.0 L532.1,232.0 L543.2,232.0 L554.4,198.0 L565.6,232.0 L576.7,232.0 L587.9,232.0 L599.0,232.0 L610.2,232.0 L621.4,232.0 L632.5,232.0 L643.7,232.0 L654.9,198.0 L666.0,232.0 L677.2,232.0 L688.4,198.0 L699.5,232.0 L710.7,232.0 L721.9,232.0 L733.0,232.0 L744.2,232.0 L755.3,232.0 L766.5,232.0 L777.7,232.0 L788.8,232.0 L800.0,232.0 L800.0,232.0 L52.0,232.0Z" fill="#4e79a7" opacity="0.12"/>

  <!-- lines -->
  <polyline points="52.0,232.0 63.2,198.0 74.3,164.0 85.5,232.0 96.7,232.0 107.8,232.0 119.0,232.0 130.1,198.0 141.3,198.0 152.5,232.0 163.6,198.0 174.8,232.0 186.0,232.0 197.1,164.0 208.3,232.0 219.5,232.0 230.6,232.0 241.8,232.0 253.0,232.0 264.1,232.0 275.3,198.0 286.4,232.0 297.6,198.0 308.8,198.0 319.9,232.0 331.1,232.0 342.3,232.0 353.4,232.0 364.6,232.0 375.8,130.0 386.9,198.0 398.1,232.0 409.3,232.0 420.4,232.0 431.6,232.0 442.7,232.0 453.9,232.0 465.1,232.0 476.2,28.0 487.4,198.0 498.6,232.0 509.7,198.0 520.9,232.0 532.1,232.0 543.2,232.0 554.4,198.0 565.6,232.0 576.7,232.0 587.9,232.0 599.0,232.0 610.2,232.0 621.4,232.0 632.5,232.0 643.7,232.0 654.9,198.0 666.0,232.0 677.2,232.0 688.4,198.0 699.5,232.0 710.7,232.0 721.9,232.0 733.0,232.0 744.2,232.0 755.3,232.0 766.5,232.0 777.7,232.0 788.8,232.0 800.0,232.0"
            fill="none" stroke="#4e79a7"
            stroke-width="2" stroke-linejoin="round"/>
  <polyline points="52.0,232.0 63.2,198.0 74.3,164.0 85.5,232.0 96.7,232.0 107.8,232.0 119.0,232.0 130.1,198.0 141.3,198.0 152.5,232.0 163.6,198.0 174.8,232.0 186.0,232.0 197.1,164.0 208.3,232.0 219.5,232.0 230.6,232.0 241.8,232.0 253.0,232.0 264.1,232.0 275.3,198.0 286.4,232.0 297.6,198.0 308.8,198.0 319.9,232.0 331.1,232.0 342.3,232.0 353.4,232.0 364.6,232.0 375.8,164.0 386.9,198.0 398.1,232.0 409.3,232.0 420.4,232.0 431.6,232.0 442.7,232.0 453.9,232.0 465.1,232.0 476.2,62.0 487.4,198.0 498.6,232.0 509.7,198.0 520.9,232.0 532.1,232.0 543.2,232.0 554.4,198.0 565.6,232.0 576.7,232.0 587.9,232.0 599.0,232.0 610.2,232.0 621.4,232.0 632.5,232.0 643.7,232.0 654.9,198.0 666.0,232.0 677.2,232.0 688.4,198.0 699.5,232.0 710.7,232.0 721.9,232.0 733.0,232.0 744.2,232.0 755.3,232.0 766.5,232.0 777.7,232.0 788.8,232.0 800.0,232.0"
            fill="none" stroke="#f28e2b"
            stroke-width="2" stroke-linejoin="round"
            stroke-dasharray="5,3"/>

  <!-- dots -->
  <circle cx="52.0" cy="232.0" r="3" fill="#4e79a7"/><circle cx="63.2" cy="198.0" r="3" fill="#4e79a7"/><circle cx="74.3" cy="164.0" r="3" fill="#4e79a7"/><circle cx="85.5" cy="232.0" r="3" fill="#4e79a7"/><circle cx="96.7" cy="232.0" r="3" fill="#4e79a7"/><circle cx="107.8" cy="232.0" r="3" fill="#4e79a7"/><circle cx="119.0" cy="232.0" r="3" fill="#4e79a7"/><circle cx="130.1" cy="198.0" r="3" fill="#4e79a7"/><circle cx="141.3" cy="198.0" r="3" fill="#4e79a7"/><circle cx="152.5" cy="232.0" r="3" fill="#4e79a7"/><circle cx="163.6" cy="198.0" r="3" fill="#4e79a7"/><circle cx="174.8" cy="232.0" r="3" fill="#4e79a7"/><circle cx="186.0" cy="232.0" r="3" fill="#4e79a7"/><circle cx="197.1" cy="164.0" r="3" fill="#4e79a7"/><circle cx="208.3" cy="232.0" r="3" fill="#4e79a7"/><circle cx="219.5" cy="232.0" r="3" fill="#4e79a7"/><circle cx="230.6" cy="232.0" r="3" fill="#4e79a7"/><circle cx="241.8" cy="232.0" r="3" fill="#4e79a7"/><circle cx="253.0" cy="232.0" r="3" fill="#4e79a7"/><circle cx="264.1" cy="232.0" r="3" fill="#4e79a7"/><circle cx="275.3" cy="198.0" r="3" fill="#4e79a7"/><circle cx="286.4" cy="232.0" r="3" fill="#4e79a7"/><circle cx="297.6" cy="198.0" r="3" fill="#4e79a7"/><circle cx="308.8" cy="198.0" r="3" fill="#4e79a7"/><circle cx="319.9" cy="232.0" r="3" fill="#4e79a7"/><circle cx="331.1" cy="232.0" r="3" fill="#4e79a7"/><circle cx="342.3" cy="232.0" r="3" fill="#4e79a7"/><circle cx="353.4" cy="232.0" r="3" fill="#4e79a7"/><circle cx="364.6" cy="232.0" r="3" fill="#4e79a7"/><circle cx="375.8" cy="130.0" r="3" fill="#4e79a7"/><circle cx="386.9" cy="198.0" r="3" fill="#4e79a7"/><circle cx="398.1" cy="232.0" r="3" fill="#4e79a7"/><circle cx="409.3" cy="232.0" r="3" fill="#4e79a7"/><circle cx="420.4" cy="232.0" r="3" fill="#4e79a7"/><circle cx="431.6" cy="232.0" r="3" fill="#4e79a7"/><circle cx="442.7" cy="232.0" r="3" fill="#4e79a7"/><circle cx="453.9" cy="232.0" r="3" fill="#4e79a7"/><circle cx="465.1" cy="232.0" r="3" fill="#4e79a7"/><circle cx="476.2" cy="28.0" r="3" fill="#4e79a7"/><circle cx="487.4" cy="198.0" r="3" fill="#4e79a7"/><circle cx="498.6" cy="232.0" r="3" fill="#4e79a7"/><circle cx="509.7" cy="198.0" r="3" fill="#4e79a7"/><circle cx="520.9" cy="232.0" r="3" fill="#4e79a7"/><circle cx="532.1" cy="232.0" r="3" fill="#4e79a7"/><circle cx="543.2" cy="232.0" r="3" fill="#4e79a7"/><circle cx="554.4" cy="198.0" r="3" fill="#4e79a7"/><circle cx="565.6" cy="232.0" r="3" fill="#4e79a7"/><circle cx="576.7" cy="232.0" r="3" fill="#4e79a7"/><circle cx="587.9" cy="232.0" r="3" fill="#4e79a7"/><circle cx="599.0" cy="232.0" r="3" fill="#4e79a7"/><circle cx="610.2" cy="232.0" r="3" fill="#4e79a7"/><circle cx="621.4" cy="232.0" r="3" fill="#4e79a7"/><circle cx="632.5" cy="232.0" r="3" fill="#4e79a7"/><circle cx="643.7" cy="232.0" r="3" fill="#4e79a7"/><circle cx="654.9" cy="198.0" r="3" fill="#4e79a7"/><circle cx="666.0" cy="232.0" r="3" fill="#4e79a7"/><circle cx="677.2" cy="232.0" r="3" fill="#4e79a7"/><circle cx="688.4" cy="198.0" r="3" fill="#4e79a7"/><circle cx="699.5" cy="232.0" r="3" fill="#4e79a7"/><circle cx="710.7" cy="232.0" r="3" fill="#4e79a7"/><circle cx="721.9" cy="232.0" r="3" fill="#4e79a7"/><circle cx="733.0" cy="232.0" r="3" fill="#4e79a7"/><circle cx="744.2" cy="232.0" r="3" fill="#4e79a7"/><circle cx="755.3" cy="232.0" r="3" fill="#4e79a7"/><circle cx="766.5" cy="232.0" r="3" fill="#4e79a7"/><circle cx="777.7" cy="232.0" r="3" fill="#4e79a7"/><circle cx="788.8" cy="232.0" r="3" fill="#4e79a7"/><circle cx="800.0" cy="232.0" r="3" fill="#4e79a7"/>
  <circle cx="52.0" cy="232.0" r="3" fill="#f28e2b"/><circle cx="63.2" cy="198.0" r="3" fill="#f28e2b"/><circle cx="74.3" cy="164.0" r="3" fill="#f28e2b"/><circle cx="85.5" cy="232.0" r="3" fill="#f28e2b"/><circle cx="96.7" cy="232.0" r="3" fill="#f28e2b"/><circle cx="107.8" cy="232.0" r="3" fill="#f28e2b"/><circle cx="119.0" cy="232.0" r="3" fill="#f28e2b"/><circle cx="130.1" cy="198.0" r="3" fill="#f28e2b"/><circle cx="141.3" cy="198.0" r="3" fill="#f28e2b"/><circle cx="152.5" cy="232.0" r="3" fill="#f28e2b"/><circle cx="163.6" cy="198.0" r="3" fill="#f28e2b"/><circle cx="174.8" cy="232.0" r="3" fill="#f28e2b"/><circle cx="186.0" cy="232.0" r="3" fill="#f28e2b"/><circle cx="197.1" cy="164.0" r="3" fill="#f28e2b"/><circle cx="208.3" cy="232.0" r="3" fill="#f28e2b"/><circle cx="219.5" cy="232.0" r="3" fill="#f28e2b"/><circle cx="230.6" cy="232.0" r="3" fill="#f28e2b"/><circle cx="241.8" cy="232.0" r="3" fill="#f28e2b"/><circle cx="253.0" cy="232.0" r="3" fill="#f28e2b"/><circle cx="264.1" cy="232.0" r="3" fill="#f28e2b"/><circle cx="275.3" cy="198.0" r="3" fill="#f28e2b"/><circle cx="286.4" cy="232.0" r="3" fill="#f28e2b"/><circle cx="297.6" cy="198.0" r="3" fill="#f28e2b"/><circle cx="308.8" cy="198.0" r="3" fill="#f28e2b"/><circle cx="319.9" cy="232.0" r="3" fill="#f28e2b"/><circle cx="331.1" cy="232.0" r="3" fill="#f28e2b"/><circle cx="342.3" cy="232.0" r="3" fill="#f28e2b"/><circle cx="353.4" cy="232.0" r="3" fill="#f28e2b"/><circle cx="364.6" cy="232.0" r="3" fill="#f28e2b"/><circle cx="375.8" cy="164.0" r="3" fill="#f28e2b"/><circle cx="386.9" cy="198.0" r="3" fill="#f28e2b"/><circle cx="398.1" cy="232.0" r="3" fill="#f28e2b"/><circle cx="409.3" cy="232.0" r="3" fill="#f28e2b"/><circle cx="420.4" cy="232.0" r="3" fill="#f28e2b"/><circle cx="431.6" cy="232.0" r="3" fill="#f28e2b"/><circle cx="442.7" cy="232.0" r="3" fill="#f28e2b"/><circle cx="453.9" cy="232.0" r="3" fill="#f28e2b"/><circle cx="465.1" cy="232.0" r="3" fill="#f28e2b"/><circle cx="476.2" cy="62.0" r="3" fill="#f28e2b"/><circle cx="487.4" cy="198.0" r="3" fill="#f28e2b"/><circle cx="498.6" cy="232.0" r="3" fill="#f28e2b"/><circle cx="509.7" cy="198.0" r="3" fill="#f28e2b"/><circle cx="520.9" cy="232.0" r="3" fill="#f28e2b"/><circle cx="532.1" cy="232.0" r="3" fill="#f28e2b"/><circle cx="543.2" cy="232.0" r="3" fill="#f28e2b"/><circle cx="554.4" cy="198.0" r="3" fill="#f28e2b"/><circle cx="565.6" cy="232.0" r="3" fill="#f28e2b"/><circle cx="576.7" cy="232.0" r="3" fill="#f28e2b"/><circle cx="587.9" cy="232.0" r="3" fill="#f28e2b"/><circle cx="599.0" cy="232.0" r="3" fill="#f28e2b"/><circle cx="610.2" cy="232.0" r="3" fill="#f28e2b"/><circle cx="621.4" cy="232.0" r="3" fill="#f28e2b"/><circle cx="632.5" cy="232.0" r="3" fill="#f28e2b"/><circle cx="643.7" cy="232.0" r="3" fill="#f28e2b"/><circle cx="654.9" cy="198.0" r="3" fill="#f28e2b"/><circle cx="666.0" cy="232.0" r="3" fill="#f28e2b"/><circle cx="677.2" cy="232.0" r="3" fill="#f28e2b"/><circle cx="688.4" cy="198.0" r="3" fill="#f28e2b"/><circle cx="699.5" cy="232.0" r="3" fill="#f28e2b"/><circle cx="710.7" cy="232.0" r="3" fill="#f28e2b"/><circle cx="721.9" cy="232.0" r="3" fill="#f28e2b"/><circle cx="733.0" cy="232.0" r="3" fill="#f28e2b"/><circle cx="744.2" cy="232.0" r="3" fill="#f28e2b"/><circle cx="755.3" cy="232.0" r="3" fill="#f28e2b"/><circle cx="766.5" cy="232.0" r="3" fill="#f28e2b"/><circle cx="777.7" cy="232.0" r="3" fill="#f28e2b"/><circle cx="788.8" cy="232.0" r="3" fill="#f28e2b"/><circle cx="800.0" cy="232.0" r="3" fill="#f28e2b"/>

  <!-- axes -->
  <line x1="52" y1="28" x2="52" y2="232"
        stroke="#cccccc" stroke-width="1"/>
  <line x1="52" y1="232" x2="800" y2="232"
        stroke="#cccccc" stroke-width="1"/>

  <!-- y-axis labels -->
  <text x="47" y="236.0" text-anchor="end" font-size="10" fill="#57606a" font-family="ui-monospace, SFMono-Regular, 'SF Mono', Menlo, monospace">0</text><text x="47" y="202.0" text-anchor="end" font-size="10" fill="#57606a" font-family="ui-monospace, SFMono-Regular, 'SF Mono', Menlo, monospace">1</text><text x="47" y="168.0" text-anchor="end" font-size="10" fill="#57606a" font-family="ui-monospace, SFMono-Regular, 'SF Mono', Menlo, monospace">2</text><text x="47" y="134.0" text-anchor="end" font-size="10" fill="#57606a" font-family="ui-monospace, SFMono-Regular, 'SF Mono', Menlo, monospace">3</text><text x="47" y="100.0" text-anchor="end" font-size="10" fill="#57606a" font-family="ui-monospace, SFMono-Regular, 'SF Mono', Menlo, monospace">4</text><text x="47" y="66.0" text-anchor="end" font-size="10" fill="#57606a" font-family="ui-monospace, SFMono-Regular, 'SF Mono', Menlo, monospace">5</text><text x="47" y="32.0" text-anchor="end" font-size="10" fill="#57606a" font-family="ui-monospace, SFMono-Regular, 'SF Mono', Menlo, monospace">6</text>

  <!-- x-axis labels -->
  <text x="52.0" y="248" text-anchor="middle" font-size="10" fill="#8c959f" font-family="ui-monospace, SFMono-Regular, 'SF Mono', Menlo, monospace">05-11</text><text x="409.3" y="248" text-anchor="middle" font-size="10" fill="#8c959f" font-family="ui-monospace, SFMono-Regular, 'SF Mono', Menlo, monospace">06-12</text><text x="766.5" y="248" text-anchor="middle" font-size="10" fill="#8c959f" font-family="ui-monospace, SFMono-Regular, 'SF Mono', Menlo, monospace">07-14</text><text x="800.0" y="248" text-anchor="middle" font-size="10" fill="#8c959f" font-family="ui-monospace, SFMono-Regular, 'SF Mono', Menlo, monospace">07-17</text><text x="141.3" y="248" text-anchor="middle" font-size="10" fill="#8c959f" font-family="ui-monospace, SFMono-Regular, 'SF Mono', Menlo, monospace">05-19</text><text x="498.6" y="248" text-anchor="middle" font-size="10" fill="#8c959f" font-family="ui-monospace, SFMono-Regular, 'SF Mono', Menlo, monospace">06-20</text><text x="230.6" y="248" text-anchor="middle" font-size="10" fill="#8c959f" font-family="ui-monospace, SFMono-Regular, 'SF Mono', Menlo, monospace">05-27</text><text x="587.9" y="248" text-anchor="middle" font-size="10" fill="#8c959f" font-family="ui-monospace, SFMono-Regular, 'SF Mono', Menlo, monospace">06-28</text><text x="319.9" y="248" text-anchor="middle" font-size="10" fill="#8c959f" font-family="ui-monospace, SFMono-Regular, 'SF Mono', Menlo, monospace">06-04</text><text x="677.2" y="248" text-anchor="middle" font-size="10" fill="#8c959f" font-family="ui-monospace, SFMono-Regular, 'SF Mono', Menlo, monospace">07-06</text>

  <!-- legend -->
  <rect x="60" y="262" width="16" height="3" fill="#4e79a7" rx="1"/><text x="80" y="268" font-size="11" fill="#57606a" font-family="-apple-system, BlinkMacSystemFont, 'Segoe UI', sans-serif">Total clones (26)</text><line x1="230" y1="264" x2="246" y2="264" stroke="#f28e2b" stroke-width="2" stroke-dasharray="5,3"/><text x="250" y="268" font-size="11" fill="#57606a" font-family="-apple-system, BlinkMacSystemFont, 'Segoe UI', sans-serif">Unique cloners</text>

</svg>