<svg xmlns="http://www.w3.org/2000/svg" viewBox="0 0 820 280" width="820" height="280">

  <!-- title -->
  <text x="52" y="18" font-size="13" font-weight="600"
        fill="#24292f" font-family="-apple-system, BlinkMacSystemFont, 'Segoe UI', sans-serif"
        >Clone traffic — docker_pi</text>
  <text x="800" y="18" font-size="10" fill="#8c959f"
        font-family="ui-monospace, SFMono-Regular, 'SF Mono', Menlo, monospace" text-anchor="end">2026-06-25</text>

  <!-- grid -->
  <line x1="52" y1="232.0" x2="800" y2="232.0" stroke="#e8e8e8" stroke-width="1"/><line x1="52" y1="198.0" x2="800" y2="198.0" stroke="#e8e8e8" stroke-width="1"/><line x1="52" y1="164.0" x2="800" y2="164.0" stroke="#e8e8e8" stroke-width="1"/><line x1="52" y1="130.0" x2="800" y2="130.0" stroke="#e8e8e8" stroke-width="1"/><line x1="52" y1="96.0" x2="800" y2="96.0" stroke="#e8e8e8" stroke-width="1"/><line x1="52" y1="62.0" x2="800" y2="62.0" stroke="#e8e8e8" stroke-width="1"/><line x1="52" y1="28.0" x2="800" y2="28.0" stroke="#e8e8e8" stroke-width="1"/>

  <!-- area fill -->
  <path d="M52.0,232.0 L52.0,232.0 L69.4,198.0 L86.8,164.0 L104.2,232.0 L121.6,232.0 L139.0,232.0 L156.4,232.0 L173.8,198.0 L191.2,198.0 L208.6,232.0 L226.0,198.0 L243.3,232.0 L260.7,232.0 L278.1,164.0 L295.5,232.0 L312.9,232.0 L330.3,232.0 L347.7,232.0 L365.1,232.0 L382.5,232.0 L399.9,198.0 L417.3,232.0 L434.7,198.0 L452.1,198.0 L469.5,232.0 L486.9,232.0 L504.3,232.0 L521.7,232.0 L539.1,232.0 L556.5,130.0 L573.9,198.0 L591.3,232.0 L608.7,232.0 L626.0,232.0 L643.4,232.0 L660.8,232.0 L678.2,232.0 L695.6,232.0 L713.0,28.0 L730.4,198.0 L747.8,232.0 L765.2,198.0 L782.6,232.0 L800.0,232.0 L800.0,232.0 L52.0,232.0Z" fill="#4e79a7" opacity="0.12"/>

  <!-- lines -->
  <polyline points="52.0,232.0 69.4,198.0 86.8,164.0 104.2,232.0 121.6,232.0 139.0,232.0 156.4,232.0 173.8,198.0 191.2,198.0 208.6,232.0 226.0,198.0 243.3,232.0 260.7,232.0 278.1,164.0 295.5,232.0 312.9,232.0 330.3,232.0 347.7,232.0 365.1,232.0 382.5,232.0 399.9,198.0 417.3,232.0 434.7,198.0 452.1,198.0 469.5,232.0 486.9,232.0 504.3,232.0 521.7,232.0 539.1,232.0 556.5,130.0 573.9,198.0 591.3,232.0 608.7,232.0 626.0,232.0 643.4,232.0 660.8,232.0 678.2,232.0 695.6,232.0 713.0,28.0 730.4,198.0 747.8,232.0 765.2,198.0 782.6,232.0 800.0,232.0"
            fill="none" stroke="#4e79a7"
            stroke-width="2" stroke-linejoin="round"/>
  <polyline points="52.0,232.0 69.4,198.0 86.8,164.0 104.2,232.0 121.6,232.0 139.0,232.0 156.4,232.0 173.8,198.0 191.2,198.0 208.6,232.0 226.0,198.0 243.3,232.0 260.7,232.0 278.1,164.0 295.5,232.0 312.9,232.0 330.3,232.0 347.7,232.0 365.1,232.0 382.5,232.0 399.9,198.0 417.3,232.0 434.7,198.0 452.1,198.0 469.5,232.0 486.9,232.0 504.3,232.0 521.7,232.0 539.1,232.0 556.5,164.0 573.9,198.0 591.3,232.0 608.7,232.0 626.0,232.0 643.4,232.0 660.8,232.0 678.2,232.0 695.6,232.0 713.0,62.0 730.4,198.0 747.8,232.0 765.2,198.0 782.6,232.0 800.0,232.0"
            fill="none" stroke="#f28e2b"
            stroke-width="2" stroke-linejoin="round"
            stroke-dasharray="5,3"/>

  <!-- dots -->
  <circle cx="52.0" cy="232.0" r="3" fill="#4e79a7"/><circle cx="69.4" cy="198.0" r="3" fill="#4e79a7"/><circle cx="86.8" cy="164.0" r="3" fill="#4e79a7"/><circle cx="104.2" cy="232.0" r="3" fill="#4e79a7"/><circle cx="121.6" cy="232.0" r="3" fill="#4e79a7"/><circle cx="139.0" cy="232.0" r="3" fill="#4e79a7"/><circle cx="156.4" cy="232.0" r="3" fill="#4e79a7"/><circle cx="173.8" cy="198.0" r="3" fill="#4e79a7"/><circle cx="191.2" cy="198.0" r="3" fill="#4e79a7"/><circle cx="208.6" cy="232.0" r="3" fill="#4e79a7"/><circle cx="226.0" cy="198.0" r="3" fill="#4e79a7"/><circle cx="243.3" cy="232.0" r="3" fill="#4e79a7"/><circle cx="260.7" cy="232.0" r="3" fill="#4e79a7"/><circle cx="278.1" cy="164.0" r="3" fill="#4e79a7"/><circle cx="295.5" cy="232.0" r="3" fill="#4e79a7"/><circle cx="312.9" cy="232.0" r="3" fill="#4e79a7"/><circle cx="330.3" cy="232.0" r="3" fill="#4e79a7"/><circle cx="347.7" cy="232.0" r="3" fill="#4e79a7"/><circle cx="365.1" cy="232.0" r="3" fill="#4e79a7"/><circle cx="382.5" cy="232.0" r="3" fill="#4e79a7"/><circle cx="399.9" cy="198.0" r="3" fill="#4e79a7"/><circle cx="417.3" cy="232.0" r="3" fill="#4e79a7"/><circle cx="434.7" cy="198.0" r="3" fill="#4e79a7"/><circle cx="452.1" cy="198.0" r="3" fill="#4e79a7"/><circle cx="469.5" cy="232.0" r="3" fill="#4e79a7"/><circle cx="486.9" cy="232.0" r="3" fill="#4e79a7"/><circle cx="504.3" cy="232.0" r="3" fill="#4e79a7"/><circle cx="521.7" cy="232.0" r="3" fill="#4e79a7"/><circle cx="539.1" cy="232.0" r="3" fill="#4e79a7"/><circle cx="556.5" cy="130.0" r="3" fill="#4e79a7"/><circle cx="573.9" cy="198.0" r="3" fill="#4e79a7"/><circle cx="591.3" cy="232.0" r="3" fill="#4e79a7"/><circle cx="608.7" cy="232.0" r="3" fill="#4e79a7"/><circle cx="626.0" cy="232.0" r="3" fill="#4e79a7"/><circle cx="643.4" cy="232.0" r="3" fill="#4e79a7"/><circle cx="660.8" cy="232.0" r="3" fill="#4e79a7"/><circle cx="678.2" cy="232.0" r="3" fill="#4e79a7"/><circle cx="695.6" cy="232.0" r="3" fill="#4e79a7"/><circle cx="713.0" cy="28.0" r="3" fill="#4e79a7"/><circle cx="730.4" cy="198.0" r="3" fill="#4e79a7"/><circle cx="747.8" cy="232.0" r="3" fill="#4e79a7"/><circle cx="765.2" cy="198.0" r="3" fill="#4e79a7"/><circle cx="782.6" cy="232.0" r="3" fill="#4e79a7"/><circle cx="800.0" cy="232.0" r="3" fill="#4e79a7"/>
  <circle cx="52.0" cy="232.0" r="3" fill="#f28e2b"/><circle cx="69.4" cy="198.0" r="3" fill="#f28e2b"/><circle cx="86.8" cy="164.0" r="3" fill="#f28e2b"/><circle cx="104.2" cy="232.0" r="3" fill="#f28e2b"/><circle cx="121.6" cy="232.0" r="3" fill="#f28e2b"/><circle cx="139.0" cy="232.0" r="3" fill="#f28e2b"/><circle cx="156.4" cy="232.0" r="3" fill="#f28e2b"/><circle cx="173.8" cy="198.0" r="3" fill="#f28e2b"/><circle cx="191.2" cy="198.0" r="3" fill="#f28e2b"/><circle cx="208.6" cy="232.0" r="3" fill="#f28e2b"/><circle cx="226.0" cy="198.0" r="3" fill="#f28e2b"/><circle cx="243.3" cy="232.0" r="3" fill="#f28e2b"/><circle cx="260.7" cy="232.0" r="3" fill="#f28e2b"/><circle cx="278.1" cy="164.0" r="3" fill="#f28e2b"/><circle cx="295.5" cy="232.0" r="3" fill="#f28e2b"/><circle cx="312.9" cy="232.0" r="3" fill="#f28e2b"/><circle cx="330.3" cy="232.0" r="3" fill="#f28e2b"/><circle cx="347.7" cy="232.0" r="3" fill="#f28e2b"/><circle cx="365.1" cy="232.0" r="3" fill="#f28e2b"/><circle cx="382.5" cy="232.0" r="3" fill="#f28e2b"/><circle cx="399.9" cy="198.0" r="3" fill="#f28e2b"/><circle cx="417.3" cy="232.0" r="3" fill="#f28e2b"/><circle cx="434.7" cy="198.0" r="3" fill="#f28e2b"/><circle cx="452.1" cy="198.0" r="3" fill="#f28e2b"/><circle cx="469.5" cy="232.0" r="3" fill="#f28e2b"/><circle cx="486.9" cy="232.0" r="3" fill="#f28e2b"/><circle cx="504.3" cy="232.0" r="3" fill="#f28e2b"/><circle cx="521.7" cy="232.0" r="3" fill="#f28e2b"/><circle cx="539.1" cy="232.0" r="3" fill="#f28e2b"/><circle cx="556.5" cy="164.0" r="3" fill="#f28e2b"/><circle cx="573.9" cy="198.0" r="3" fill="#f28e2b"/><circle cx="591.3" cy="232.0" r="3" fill="#f28e2b"/><circle cx="608.7" cy="232.0" r="3" fill="#f28e2b"/><circle cx="626.0" cy="232.0" r="3" fill="#f28e2b"/><circle cx="643.4" cy="232.0" r="3" fill="#f28e2b"/><circle cx="660.8" cy="232.0" r="3" fill="#f28e2b"/><circle cx="678.2" cy="232.0" r="3" fill="#f28e2b"/><circle cx="695.6" cy="232.0" r="3" fill="#f28e2b"/><circle cx="713.0" cy="62.0" r="3" fill="#f28e2b"/><circle cx="730.4" cy="198.0" r="3" fill="#f28e2b"/><circle cx="747.8" cy="232.0" r="3" fill="#f28e2b"/><circle cx="765.2" cy="198.0" r="3" fill="#f28e2b"/><circle cx="782.6" cy="232.0" r="3" fill="#f28e2b"/><circle cx="800.0" cy="232.0" r="3" fill="#f28e2b"/>

  <!-- axes -->
  <line x1="52" y1="28" x2="52" y2="232"
        stroke="#cccccc" stroke-width="1"/>
  <line x1="52" y1="232" x2="800" y2="232"
        stroke="#cccccc" stroke-width="1"/>

  <!-- y-axis labels -->
  <text x="47" y="236.0" text-anchor="end" font-size="10" fill="#57606a" font-family="ui-monospace, SFMono-Regular, 'SF Mono', Menlo, monospace">0</text><text x="47" y="202.0" text-anchor="end" font-size="10" fill="#57606a" font-family="ui-monospace, SFMono-Regular, 'SF Mono', Menlo, monospace">1</text><text x="47" y="168.0" text-anchor="end" font-size="10" fill="#57606a" font-family="ui-monospace, SFMono-Regular, 'SF Mono', Menlo, monospace">2</text><text x="47" y="134.0" text-anchor="end" font-size="10" fill="#57606a" font-family="ui-monospace, SFMono-Regular, 'SF Mono', Menlo, monospace">3</text><text x="47" y="100.0" text-anchor="end" font-size="10" fill="#57606a" font-family="ui-monospace, SFMono-Regular, 'SF Mono', Menlo, monospace">4</text><text x="47" y="66.0" text-anchor="end" font-size="10" fill="#57606a" font-family="ui-monospace, SFMono-Regular, 'SF Mono', Menlo, monospace">5</text><text x="47" y="32.0" text-anchor="end" font-size="10" fill="#57606a" font-family="ui-monospace, SFMono-Regular, 'SF Mono', Menlo, monospace">6</text>

  <!-- x-axis labels -->
  <text x="52.0" y="248" text-anchor="middle" font-size="10" fill="#8c959f" font-family="ui-monospace, SFMono-Regular, 'SF Mono', Menlo, monospace">05-11</text><text x="660.8" y="248" text-anchor="middle" font-size="10" fill="#8c959f" font-family="ui-monospace, SFMono-Regular, 'SF Mono', Menlo, monospace">06-15</text><text x="139.0" y="248" text-anchor="middle" font-size="10" fill="#8c959f" font-family="ui-monospace, SFMono-Regular, 'SF Mono', Menlo, monospace">05-16</text><text x="747.8" y="248" text-anchor="middle" font-size="10" fill="#8c959f" font-family="ui-monospace, SFMono-Regular, 'SF Mono', Menlo, monospace">06-20</text><text x="226.0" y="248" text-anchor="middle" font-size="10" fill="#8c959f" font-family="ui-monospace, SFMono-Regular, 'SF Mono', Menlo, monospace">05-21</text><text x="800.0" y="248" text-anchor="middle" font-size="10" fill="#8c959f" font-family="ui-monospace, SFMono-Regular, 'SF Mono', Menlo, monospace">06-23</text><text x="312.9" y="248" text-anchor="middle" font-size="10" fill="#8c959f" font-family="ui-monospace, SFMono-Regular, 'SF Mono', Menlo, monospace">05-26</text><text x="399.9" y="248" text-anchor="middle" font-size="10" fill="#8c959f" font-family="ui-monospace, SFMono-Regular, 'SF Mono', Menlo, monospace">05-31</text><text x="486.9" y="248" text-anchor="middle" font-size="10" fill="#8c959f" font-family="ui-monospace, SFMono-Regular, 'SF Mono', Menlo, monospace">06-05</text><text x="573.9" y="248" text-anchor="middle" font-size="10" fill="#8c959f" font-family="ui-monospace, SFMono-Regular, 'SF Mono', Menlo, monospace">06-10</text>

  <!-- legend -->
  <rect x="60" y="262" width="16" height="3" fill="#4e79a7" rx="1"/><text x="80" y="268" font-size="11" fill="#57606a" font-family="-apple-system, BlinkMacSystemFont, 'Segoe UI', sans-serif">Total clones (23)</text><line x1="230" y1="264" x2="246" y2="264" stroke="#f28e2b" stroke-width="2" stroke-dasharray="5,3"/><text x="250" y="268" font-size="11" fill="#57606a" font-family="-apple-system, BlinkMacSystemFont, 'Segoe UI', sans-serif">Unique cloners</text>

</svg>