<svg xmlns="http://www.w3.org/2000/svg" viewBox="0 0 820 280" width="820" height="280">

  <!-- title -->
  <text x="52" y="18" font-size="13" font-weight="600"
        fill="#24292f" font-family="-apple-system, BlinkMacSystemFont, 'Segoe UI', sans-serif"
        >Clone traffic — git-lantern</text>
  <text x="800" y="18" font-size="10" fill="#8c959f"
        font-family="ui-monospace, SFMono-Regular, 'SF Mono', Menlo, monospace" text-anchor="end">2026-06-29</text>

  <!-- grid -->
  <line x1="52" y1="232.0" x2="800" y2="232.0" stroke="#e8e8e8" stroke-width="1"/><line x1="52" y1="191.6" x2="800" y2="191.6" stroke="#e8e8e8" stroke-width="1"/><line x1="52" y1="151.2" x2="800" y2="151.2" stroke="#e8e8e8" stroke-width="1"/><line x1="52" y1="110.8" x2="800" y2="110.8" stroke="#e8e8e8" stroke-width="1"/><line x1="52" y1="70.4" x2="800" y2="70.4" stroke="#e8e8e8" stroke-width="1"/><line x1="52" y1="30.0" x2="800" y2="30.0" stroke="#e8e8e8" stroke-width="1"/><line x1="52" y1="-10.4" x2="800" y2="-10.4" stroke="#e8e8e8" stroke-width="1"/>

  <!-- area fill -->
  <path d="M52.0,232.0 L52.0,232.0 L67.9,230.0 L83.8,199.7 L99.7,228.0 L115.7,230.0 L131.6,230.0 L147.5,232.0 L163.4,228.0 L179.3,230.0 L195.2,211.8 L211.1,228.0 L227.1,232.0 L243.0,232.0 L258.9,232.0 L274.8,232.0 L290.7,215.8 L306.6,215.8 L322.6,228.0 L338.5,232.0 L354.4,230.0 L370.3,230.0 L386.2,225.9 L402.1,232.0 L418.0,230.0 L434.0,232.0 L449.9,232.0 L465.8,232.0 L481.7,232.0 L497.6,232.0 L513.5,223.9 L529.4,228.0 L545.4,230.0 L561.3,232.0 L577.2,232.0 L593.1,232.0 L609.0,230.0 L624.9,232.0 L640.9,232.0 L656.8,207.8 L672.7,219.9 L688.6,68.4 L704.5,28.0 L720.4,157.3 L736.3,215.8 L752.3,225.9 L768.2,137.1 L784.1,232.0 L800.0,219.9 L800.0,232.0 L52.0,232.0Z" fill="#4e79a7" opacity="0.12"/>

  <!-- lines -->
  <polyline points="52.0,232.0 67.9,230.0 83.8,199.7 99.7,228.0 115.7,230.0 131.6,230.0 147.5,232.0 163.4,228.0 179.3,230.0 195.2,211.8 211.1,228.0 227.1,232.0 243.0,232.0 258.9,232.0 274.8,232.0 290.7,215.8 306.6,215.8 322.6,228.0 338.5,232.0 354.4,230.0 370.3,230.0 386.2,225.9 402.1,232.0 418.0,230.0 434.0,232.0 449.9,232.0 465.8,232.0 481.7,232.0 497.6,232.0 513.5,223.9 529.4,228.0 545.4,230.0 561.3,232.0 577.2,232.0 593.1,232.0 609.0,230.0 624.9,232.0 640.9,232.0 656.8,207.8 672.7,219.9 688.6,68.4 704.5,28.0 720.4,157.3 736.3,215.8 752.3,225.9 768.2,137.1 784.1,232.0 800.0,219.9"
            fill="none" stroke="#4e79a7"
            stroke-width="2" stroke-linejoin="round"/>
  <polyline points="52.0,232.0 67.9,230.0 83.8,213.8 99.7,230.0 115.7,230.0 131.6,230.0 147.5,232.0 163.4,230.0 179.3,230.0 195.2,225.9 211.1,228.0 227.1,232.0 243.0,232.0 258.9,232.0 274.8,232.0 290.7,223.9 306.6,223.9 322.6,230.0 338.5,232.0 354.4,230.0 370.3,230.0 386.2,225.9 402.1,232.0 418.0,230.0 434.0,232.0 449.9,232.0 465.8,232.0 481.7,232.0 497.6,232.0 513.5,225.9 529.4,228.0 545.4,230.0 561.3,232.0 577.2,232.0 593.1,232.0 609.0,230.0 624.9,232.0 640.9,232.0 656.8,215.8 672.7,225.9 688.6,171.4 704.5,133.0 720.4,207.8 736.3,228.0 752.3,225.9 768.2,211.8 784.1,232.0 800.0,230.0"
            fill="none" stroke="#f28e2b"
            stroke-width="2" stroke-linejoin="round"
            stroke-dasharray="5,3"/>

  <!-- dots -->
  <circle cx="52.0" cy="232.0" r="3" fill="#4e79a7"/><circle cx="67.9" cy="230.0" r="3" fill="#4e79a7"/><circle cx="83.8" cy="199.7" r="3" fill="#4e79a7"/><circle cx="99.7" cy="228.0" r="3" fill="#4e79a7"/><circle cx="115.7" cy="230.0" r="3" fill="#4e79a7"/><circle cx="131.6" cy="230.0" r="3" fill="#4e79a7"/><circle cx="147.5" cy="232.0" r="3" fill="#4e79a7"/><circle cx="163.4" cy="228.0" r="3" fill="#4e79a7"/><circle cx="179.3" cy="230.0" r="3" fill="#4e79a7"/><circle cx="195.2" cy="211.8" r="3" fill="#4e79a7"/><circle cx="211.1" cy="228.0" r="3" fill="#4e79a7"/><circle cx="227.1" cy="232.0" r="3" fill="#4e79a7"/><circle cx="243.0" cy="232.0" r="3" fill="#4e79a7"/><circle cx="258.9" cy="232.0" r="3" fill="#4e79a7"/><circle cx="274.8" cy="232.0" r="3" fill="#4e79a7"/><circle cx="290.7" cy="215.8" r="3" fill="#4e79a7"/><circle cx="306.6" cy="215.8" r="3" fill="#4e79a7"/><circle cx="322.6" cy="228.0" r="3" fill="#4e79a7"/><circle cx="338.5" cy="232.0" r="3" fill="#4e79a7"/><circle cx="354.4" cy="230.0" r="3" fill="#4e79a7"/><circle cx="370.3" cy="230.0" r="3" fill="#4e79a7"/><circle cx="386.2" cy="225.9" r="3" fill="#4e79a7"/><circle cx="402.1" cy="232.0" r="3" fill="#4e79a7"/><circle cx="418.0" cy="230.0" r="3" fill="#4e79a7"/><circle cx="434.0" cy="232.0" r="3" fill="#4e79a7"/><circle cx="449.9" cy="232.0" r="3" fill="#4e79a7"/><circle cx="465.8" cy="232.0" r="3" fill="#4e79a7"/><circle cx="481.7" cy="232.0" r="3" fill="#4e79a7"/><circle cx="497.6" cy="232.0" r="3" fill="#4e79a7"/><circle cx="513.5" cy="223.9" r="3" fill="#4e79a7"/><circle cx="529.4" cy="228.0" r="3" fill="#4e79a7"/><circle cx="545.4" cy="230.0" r="3" fill="#4e79a7"/><circle cx="561.3" cy="232.0" r="3" fill="#4e79a7"/><circle cx="577.2" cy="232.0" r="3" fill="#4e79a7"/><circle cx="593.1" cy="232.0" r="3" fill="#4e79a7"/><circle cx="609.0" cy="230.0" r="3" fill="#4e79a7"/><circle cx="624.9" cy="232.0" r="3" fill="#4e79a7"/><circle cx="640.9" cy="232.0" r="3" fill="#4e79a7"/><circle cx="656.8" cy="207.8" r="3" fill="#4e79a7"/><circle cx="672.7" cy="219.9" r="3" fill="#4e79a7"/><circle cx="688.6" cy="68.4" r="3" fill="#4e79a7"/><circle cx="704.5" cy="28.0" r="3" fill="#4e79a7"/><circle cx="720.4" cy="157.3" r="3" fill="#4e79a7"/><circle cx="736.3" cy="215.8" r="3" fill="#4e79a7"/><circle cx="752.3" cy="225.9" r="3" fill="#4e79a7"/><circle cx="768.2" cy="137.1" r="3" fill="#4e79a7"/><circle cx="784.1" cy="232.0" r="3" fill="#4e79a7"/><circle cx="800.0" cy="219.9" r="3" fill="#4e79a7"/>
  <circle cx="52.0" cy="232.0" r="3" fill="#f28e2b"/><circle cx="67.9" cy="230.0" r="3" fill="#f28e2b"/><circle cx="83.8" cy="213.8" r="3" fill="#f28e2b"/><circle cx="99.7" cy="230.0" r="3" fill="#f28e2b"/><circle cx="115.7" cy="230.0" r="3" fill="#f28e2b"/><circle cx="131.6" cy="230.0" r="3" fill="#f28e2b"/><circle cx="147.5" cy="232.0" r="3" fill="#f28e2b"/><circle cx="163.4" cy="230.0" r="3" fill="#f28e2b"/><circle cx="179.3" cy="230.0" r="3" fill="#f28e2b"/><circle cx="195.2" cy="225.9" r="3" fill="#f28e2b"/><circle cx="211.1" cy="228.0" r="3" fill="#f28e2b"/><circle cx="227.1" cy="232.0" r="3" fill="#f28e2b"/><circle cx="243.0" cy="232.0" r="3" fill="#f28e2b"/><circle cx="258.9" cy="232.0" r="3" fill="#f28e2b"/><circle cx="274.8" cy="232.0" r="3" fill="#f28e2b"/><circle cx="290.7" cy="223.9" r="3" fill="#f28e2b"/><circle cx="306.6" cy="223.9" r="3" fill="#f28e2b"/><circle cx="322.6" cy="230.0" r="3" fill="#f28e2b"/><circle cx="338.5" cy="232.0" r="3" fill="#f28e2b"/><circle cx="354.4" cy="230.0" r="3" fill="#f28e2b"/><circle cx="370.3" cy="230.0" r="3" fill="#f28e2b"/><circle cx="386.2" cy="225.9" r="3" fill="#f28e2b"/><circle cx="402.1" cy="232.0" r="3" fill="#f28e2b"/><circle cx="418.0" cy="230.0" r="3" fill="#f28e2b"/><circle cx="434.0" cy="232.0" r="3" fill="#f28e2b"/><circle cx="449.9" cy="232.0" r="3" fill="#f28e2b"/><circle cx="465.8" cy="232.0" r="3" fill="#f28e2b"/><circle cx="481.7" cy="232.0" r="3" fill="#f28e2b"/><circle cx="497.6" cy="232.0" r="3" fill="#f28e2b"/><circle cx="513.5" cy="225.9" r="3" fill="#f28e2b"/><circle cx="529.4" cy="228.0" r="3" fill="#f28e2b"/><circle cx="545.4" cy="230.0" r="3" fill="#f28e2b"/><circle cx="561.3" cy="232.0" r="3" fill="#f28e2b"/><circle cx="577.2" cy="232.0" r="3" fill="#f28e2b"/><circle cx="593.1" cy="232.0" r="3" fill="#f28e2b"/><circle cx="609.0" cy="230.0" r="3" fill="#f28e2b"/><circle cx="624.9" cy="232.0" r="3" fill="#f28e2b"/><circle cx="640.9" cy="232.0" r="3" fill="#f28e2b"/><circle cx="656.8" cy="215.8" r="3" fill="#f28e2b"/><circle cx="672.7" cy="225.9" r="3" fill="#f28e2b"/><circle cx="688.6" cy="171.4" r="3" fill="#f28e2b"/><circle cx="704.5" cy="133.0" r="3" fill="#f28e2b"/><circle cx="720.4" cy="207.8" r="3" fill="#f28e2b"/><circle cx="736.3" cy="228.0" r="3" fill="#f28e2b"/><circle cx="752.3" cy="225.9" r="3" fill="#f28e2b"/><circle cx="768.2" cy="211.8" r="3" fill="#f28e2b"/><circle cx="784.1" cy="232.0" r="3" fill="#f28e2b"/><circle cx="800.0" cy="230.0" r="3" fill="#f28e2b"/>

  <!-- axes -->
  <line x1="52" y1="28" x2="52" y2="232"
        stroke="#cccccc" stroke-width="1"/>
  <line x1="52" y1="232" x2="800" y2="232"
        stroke="#cccccc" stroke-width="1"/>

  <!-- y-axis labels -->
  <text x="47" y="236.0" text-anchor="end" font-size="10" fill="#57606a" font-family="ui-monospace, SFMono-Regular, 'SF Mono', Menlo, monospace">0</text><text x="47" y="195.6" text-anchor="end" font-size="10" fill="#57606a" font-family="ui-monospace, SFMono-Regular, 'SF Mono', Menlo, monospace">20</text><text x="47" y="155.2" text-anchor="end" font-size="10" fill="#57606a" font-family="ui-monospace, SFMono-Regular, 'SF Mono', Menlo, monospace">40</text><text x="47" y="114.8" text-anchor="end" font-size="10" fill="#57606a" font-family="ui-monospace, SFMono-Regular, 'SF Mono', Menlo, monospace">60</text><text x="47" y="74.4" text-anchor="end" font-size="10" fill="#57606a" font-family="ui-monospace, SFMono-Regular, 'SF Mono', Menlo, monospace">80</text><text x="47" y="34.0" text-anchor="end" font-size="10" fill="#57606a" font-family="ui-monospace, SFMono-Regular, 'SF Mono', Menlo, monospace">100</text><text x="47" y="-6.4" text-anchor="end" font-size="10" fill="#57606a" font-family="ui-monospace, SFMono-Regular, 'SF Mono', Menlo, monospace">120</text>

  <!-- x-axis labels -->
  <text x="52.0" y="248" text-anchor="middle" font-size="10" fill="#8c959f" font-family="ui-monospace, SFMono-Regular, 'SF Mono', Menlo, monospace">05-11</text><text x="624.9" y="248" text-anchor="middle" font-size="10" fill="#8c959f" font-family="ui-monospace, SFMono-Regular, 'SF Mono', Menlo, monospace">06-16</text><text x="147.5" y="248" text-anchor="middle" font-size="10" fill="#8c959f" font-family="ui-monospace, SFMono-Regular, 'SF Mono', Menlo, monospace">05-17</text><text x="720.4" y="248" text-anchor="middle" font-size="10" fill="#8c959f" font-family="ui-monospace, SFMono-Regular, 'SF Mono', Menlo, monospace">06-22</text><text x="243.0" y="248" text-anchor="middle" font-size="10" fill="#8c959f" font-family="ui-monospace, SFMono-Regular, 'SF Mono', Menlo, monospace">05-23</text><text x="800.0" y="248" text-anchor="middle" font-size="10" fill="#8c959f" font-family="ui-monospace, SFMono-Regular, 'SF Mono', Menlo, monospace">06-27</text><text x="338.5" y="248" text-anchor="middle" font-size="10" fill="#8c959f" font-family="ui-monospace, SFMono-Regular, 'SF Mono', Menlo, monospace">05-29</text><text x="434.0" y="248" text-anchor="middle" font-size="10" fill="#8c959f" font-family="ui-monospace, SFMono-Regular, 'SF Mono', Menlo, monospace">06-04</text><text x="529.4" y="248" text-anchor="middle" font-size="10" fill="#8c959f" font-family="ui-monospace, SFMono-Regular, 'SF Mono', Menlo, monospace">06-10</text>

  <!-- legend -->
  <rect x="60" y="262" width="16" height="3" fill="#4e79a7" rx="1"/><text x="80" y="268" font-size="11" fill="#57606a" font-family="-apple-system, BlinkMacSystemFont, 'Segoe UI', sans-serif">Total clones (369)</text><line x1="230" y1="264" x2="246" y2="264" stroke="#f28e2b" stroke-width="2" stroke-dasharray="5,3"/><text x="250" y="268" font-size="11" fill="#57606a" font-family="-apple-system, BlinkMacSystemFont, 'Segoe UI', sans-serif">Unique cloners</text>

</svg>