<svg xmlns="http://www.w3.org/2000/svg" viewBox="0 0 820 280" width="820" height="280">

  <!-- title -->
  <text x="52" y="18" font-size="13" font-weight="600"
        fill="#24292f" font-family="-apple-system, BlinkMacSystemFont, 'Segoe UI', sans-serif"
        >Clone traffic — git-pulse</text>
  <text x="800" y="18" font-size="10" fill="#8c959f"
        font-family="ui-monospace, SFMono-Regular, 'SF Mono', Menlo, monospace" text-anchor="end">2026-06-15</text>

  <!-- grid -->
  <line x1="52" y1="232.0" x2="800" y2="232.0" stroke="#e8e8e8" stroke-width="1"/><line x1="52" y1="186.7" x2="800" y2="186.7" stroke="#e8e8e8" stroke-width="1"/><line x1="52" y1="141.3" x2="800" y2="141.3" stroke="#e8e8e8" stroke-width="1"/><line x1="52" y1="96.0" x2="800" y2="96.0" stroke="#e8e8e8" stroke-width="1"/><line x1="52" y1="50.7" x2="800" y2="50.7" stroke="#e8e8e8" stroke-width="1"/><line x1="52" y1="5.3" x2="800" y2="5.3" stroke="#e8e8e8" stroke-width="1"/>

  <!-- area fill -->
  <path d="M52.0,232.0 L52.0,232.0 L74.7,220.7 L97.3,198.0 L120.0,232.0 L142.7,209.3 L165.3,232.0 L188.0,232.0 L210.7,232.0 L233.3,232.0 L256.0,220.7 L278.7,232.0 L301.3,232.0 L324.0,232.0 L346.7,28.0 L369.3,220.7 L392.0,220.7 L414.7,232.0 L437.3,232.0 L460.0,220.7 L482.7,232.0 L505.3,220.7 L528.0,220.7 L550.7,232.0 L573.3,232.0 L596.0,209.3 L618.7,220.7 L641.3,232.0 L664.0,232.0 L686.7,220.7 L709.3,209.3 L732.0,209.3 L754.7,232.0 L777.3,232.0 L800.0,232.0 L800.0,232.0 L52.0,232.0Z" fill="#4e79a7" opacity="0.12"/>

  <!-- lines -->
  <polyline points="52.0,232.0 74.7,220.7 97.3,198.0 120.0,232.0 142.7,209.3 165.3,232.0 188.0,232.0 210.7,232.0 233.3,232.0 256.0,220.7 278.7,232.0 301.3,232.0 324.0,232.0 346.7,28.0 369.3,220.7 392.0,220.7 414.7,232.0 437.3,232.0 460.0,220.7 482.7,232.0 505.3,220.7 528.0,220.7 550.7,232.0 573.3,232.0 596.0,209.3 618.7,220.7 641.3,232.0 664.0,232.0 686.7,220.7 709.3,209.3 732.0,209.3 754.7,232.0 777.3,232.0 800.0,232.0"
            fill="none" stroke="#4e79a7"
            stroke-width="2" stroke-linejoin="round"/>
  <polyline points="52.0,232.0 74.7,220.7 97.3,198.0 120.0,232.0 142.7,209.3 165.3,232.0 188.0,232.0 210.7,232.0 233.3,232.0 256.0,220.7 278.7,232.0 301.3,232.0 324.0,232.0 346.7,73.3 369.3,220.7 392.0,220.7 414.7,232.0 437.3,232.0 460.0,220.7 482.7,232.0 505.3,220.7 528.0,220.7 550.7,232.0 573.3,232.0 596.0,220.7 618.7,220.7 641.3,232.0 664.0,232.0 686.7,220.7 709.3,209.3 732.0,209.3 754.7,232.0 777.3,232.0 800.0,232.0"
            fill="none" stroke="#f28e2b"
            stroke-width="2" stroke-linejoin="round"
            stroke-dasharray="5,3"/>

  <!-- dots -->
  <circle cx="52.0" cy="232.0" r="3" fill="#4e79a7"/><circle cx="74.7" cy="220.7" r="3" fill="#4e79a7"/><circle cx="97.3" cy="198.0" r="3" fill="#4e79a7"/><circle cx="120.0" cy="232.0" r="3" fill="#4e79a7"/><circle cx="142.7" cy="209.3" r="3" fill="#4e79a7"/><circle cx="165.3" cy="232.0" r="3" fill="#4e79a7"/><circle cx="188.0" cy="232.0" r="3" fill="#4e79a7"/><circle cx="210.7" cy="232.0" r="3" fill="#4e79a7"/><circle cx="233.3" cy="232.0" r="3" fill="#4e79a7"/><circle cx="256.0" cy="220.7" r="3" fill="#4e79a7"/><circle cx="278.7" cy="232.0" r="3" fill="#4e79a7"/><circle cx="301.3" cy="232.0" r="3" fill="#4e79a7"/><circle cx="324.0" cy="232.0" r="3" fill="#4e79a7"/><circle cx="346.7" cy="28.0" r="3" fill="#4e79a7"/><circle cx="369.3" cy="220.7" r="3" fill="#4e79a7"/><circle cx="392.0" cy="220.7" r="3" fill="#4e79a7"/><circle cx="414.7" cy="232.0" r="3" fill="#4e79a7"/><circle cx="437.3" cy="232.0" r="3" fill="#4e79a7"/><circle cx="460.0" cy="220.7" r="3" fill="#4e79a7"/><circle cx="482.7" cy="232.0" r="3" fill="#4e79a7"/><circle cx="505.3" cy="220.7" r="3" fill="#4e79a7"/><circle cx="528.0" cy="220.7" r="3" fill="#4e79a7"/><circle cx="550.7" cy="232.0" r="3" fill="#4e79a7"/><circle cx="573.3" cy="232.0" r="3" fill="#4e79a7"/><circle cx="596.0" cy="209.3" r="3" fill="#4e79a7"/><circle cx="618.7" cy="220.7" r="3" fill="#4e79a7"/><circle cx="641.3" cy="232.0" r="3" fill="#4e79a7"/><circle cx="664.0" cy="232.0" r="3" fill="#4e79a7"/><circle cx="686.7" cy="220.7" r="3" fill="#4e79a7"/><circle cx="709.3" cy="209.3" r="3" fill="#4e79a7"/><circle cx="732.0" cy="209.3" r="3" fill="#4e79a7"/><circle cx="754.7" cy="232.0" r="3" fill="#4e79a7"/><circle cx="777.3" cy="232.0" r="3" fill="#4e79a7"/><circle cx="800.0" cy="232.0" r="3" fill="#4e79a7"/>
  <circle cx="52.0" cy="232.0" r="3" fill="#f28e2b"/><circle cx="74.7" cy="220.7" r="3" fill="#f28e2b"/><circle cx="97.3" cy="198.0" r="3" fill="#f28e2b"/><circle cx="120.0" cy="232.0" r="3" fill="#f28e2b"/><circle cx="142.7" cy="209.3" r="3" fill="#f28e2b"/><circle cx="165.3" cy="232.0" r="3" fill="#f28e2b"/><circle cx="188.0" cy="232.0" r="3" fill="#f28e2b"/><circle cx="210.7" cy="232.0" r="3" fill="#f28e2b"/><circle cx="233.3" cy="232.0" r="3" fill="#f28e2b"/><circle cx="256.0" cy="220.7" r="3" fill="#f28e2b"/><circle cx="278.7" cy="232.0" r="3" fill="#f28e2b"/><circle cx="301.3" cy="232.0" r="3" fill="#f28e2b"/><circle cx="324.0" cy="232.0" r="3" fill="#f28e2b"/><circle cx="346.7" cy="73.3" r="3" fill="#f28e2b"/><circle cx="369.3" cy="220.7" r="3" fill="#f28e2b"/><circle cx="392.0" cy="220.7" r="3" fill="#f28e2b"/><circle cx="414.7" cy="232.0" r="3" fill="#f28e2b"/><circle cx="437.3" cy="232.0" r="3" fill="#f28e2b"/><circle cx="460.0" cy="220.7" r="3" fill="#f28e2b"/><circle cx="482.7" cy="232.0" r="3" fill="#f28e2b"/><circle cx="505.3" cy="220.7" r="3" fill="#f28e2b"/><circle cx="528.0" cy="220.7" r="3" fill="#f28e2b"/><circle cx="550.7" cy="232.0" r="3" fill="#f28e2b"/><circle cx="573.3" cy="232.0" r="3" fill="#f28e2b"/><circle cx="596.0" cy="220.7" r="3" fill="#f28e2b"/><circle cx="618.7" cy="220.7" r="3" fill="#f28e2b"/><circle cx="641.3" cy="232.0" r="3" fill="#f28e2b"/><circle cx="664.0" cy="232.0" r="3" fill="#f28e2b"/><circle cx="686.7" cy="220.7" r="3" fill="#f28e2b"/><circle cx="709.3" cy="209.3" r="3" fill="#f28e2b"/><circle cx="732.0" cy="209.3" r="3" fill="#f28e2b"/><circle cx="754.7" cy="232.0" r="3" fill="#f28e2b"/><circle cx="777.3" cy="232.0" r="3" fill="#f28e2b"/><circle cx="800.0" cy="232.0" r="3" fill="#f28e2b"/>

  <!-- axes -->
  <line x1="52" y1="28" x2="52" y2="232"
        stroke="#cccccc" stroke-width="1"/>
  <line x1="52" y1="232" x2="800" y2="232"
        stroke="#cccccc" stroke-width="1"/>

  <!-- y-axis labels -->
  <text x="47" y="236.0" text-anchor="end" font-size="10" fill="#57606a" font-family="ui-monospace, SFMono-Regular, 'SF Mono', Menlo, monospace">0</text><text x="47" y="190.7" text-anchor="end" font-size="10" fill="#57606a" font-family="ui-monospace, SFMono-Regular, 'SF Mono', Menlo, monospace">4</text><text x="47" y="145.3" text-anchor="end" font-size="10" fill="#57606a" font-family="ui-monospace, SFMono-Regular, 'SF Mono', Menlo, monospace">8</text><text x="47" y="100.0" text-anchor="end" font-size="10" fill="#57606a" font-family="ui-monospace, SFMono-Regular, 'SF Mono', Menlo, monospace">12</text><text x="47" y="54.7" text-anchor="end" font-size="10" fill="#57606a" font-family="ui-monospace, SFMono-Regular, 'SF Mono', Menlo, monospace">16</text><text x="47" y="9.3" text-anchor="end" font-size="10" fill="#57606a" font-family="ui-monospace, SFMono-Regular, 'SF Mono', Menlo, monospace">20</text>

  <!-- x-axis labels -->
  <text x="52.0" y="248" text-anchor="middle" font-size="10" fill="#8c959f" font-family="ui-monospace, SFMono-Regular, 'SF Mono', Menlo, monospace">05-11</text><text x="777.3" y="248" text-anchor="middle" font-size="10" fill="#8c959f" font-family="ui-monospace, SFMono-Regular, 'SF Mono', Menlo, monospace">06-12</text><text x="800.0" y="248" text-anchor="middle" font-size="10" fill="#8c959f" font-family="ui-monospace, SFMono-Regular, 'SF Mono', Menlo, monospace">06-13</text><text x="142.7" y="248" text-anchor="middle" font-size="10" fill="#8c959f" font-family="ui-monospace, SFMono-Regular, 'SF Mono', Menlo, monospace">05-15</text><text x="233.3" y="248" text-anchor="middle" font-size="10" fill="#8c959f" font-family="ui-monospace, SFMono-Regular, 'SF Mono', Menlo, monospace">05-19</text><text x="324.0" y="248" text-anchor="middle" font-size="10" fill="#8c959f" font-family="ui-monospace, SFMono-Regular, 'SF Mono', Menlo, monospace">05-23</text><text x="414.7" y="248" text-anchor="middle" font-size="10" fill="#8c959f" font-family="ui-monospace, SFMono-Regular, 'SF Mono', Menlo, monospace">05-27</text><text x="505.3" y="248" text-anchor="middle" font-size="10" fill="#8c959f" font-family="ui-monospace, SFMono-Regular, 'SF Mono', Menlo, monospace">05-31</text><text x="596.0" y="248" text-anchor="middle" font-size="10" fill="#8c959f" font-family="ui-monospace, SFMono-Regular, 'SF Mono', Menlo, monospace">06-04</text><text x="686.7" y="248" text-anchor="middle" font-size="10" fill="#8c959f" font-family="ui-monospace, SFMono-Regular, 'SF Mono', Menlo, monospace">06-08</text>

  <!-- legend -->
  <rect x="60" y="262" width="16" height="3" fill="#4e79a7" rx="1"/><text x="80" y="268" font-size="11" fill="#57606a" font-family="-apple-system, BlinkMacSystemFont, 'Segoe UI', sans-serif">Total clones (38)</text><line x1="230" y1="264" x2="246" y2="264" stroke="#f28e2b" stroke-width="2" stroke-dasharray="5,3"/><text x="250" y="268" font-size="11" fill="#57606a" font-family="-apple-system, BlinkMacSystemFont, 'Segoe UI', sans-serif">Unique cloners</text>

</svg>