<svg xmlns="http://www.w3.org/2000/svg" viewBox="0 0 820 280" width="820" height="280">

  <!-- title -->
  <text x="52" y="18" font-size="13" font-weight="600"
        fill="#24292f" font-family="-apple-system, BlinkMacSystemFont, 'Segoe UI', sans-serif"
        >Clone traffic — git-lantern</text>
  <text x="800" y="18" font-size="10" fill="#8c959f"
        font-family="ui-monospace, SFMono-Regular, 'SF Mono', Menlo, monospace" text-anchor="end">2026-07-09</text>

  <!-- grid -->
  <line x1="52" y1="232.0" x2="800" y2="232.0" stroke="#e8e8e8" stroke-width="1"/><line x1="52" y1="191.6" x2="800" y2="191.6" stroke="#e8e8e8" stroke-width="1"/><line x1="52" y1="151.2" x2="800" y2="151.2" stroke="#e8e8e8" stroke-width="1"/><line x1="52" y1="110.8" x2="800" y2="110.8" stroke="#e8e8e8" stroke-width="1"/><line x1="52" y1="70.4" x2="800" y2="70.4" stroke="#e8e8e8" stroke-width="1"/><line x1="52" y1="30.0" x2="800" y2="30.0" stroke="#e8e8e8" stroke-width="1"/><line x1="52" y1="-10.4" x2="800" y2="-10.4" stroke="#e8e8e8" stroke-width="1"/>

  <!-- area fill -->
  <path d="M52.0,232.0 L52.0,232.0 L65.1,230.0 L78.2,199.7 L91.4,228.0 L104.5,230.0 L117.6,230.0 L130.7,232.0 L143.9,228.0 L157.0,230.0 L170.1,211.8 L183.2,228.0 L196.4,232.0 L209.5,232.0 L222.6,232.0 L235.7,232.0 L248.8,215.8 L262.0,215.8 L275.1,228.0 L288.2,232.0 L301.3,230.0 L314.5,230.0 L327.6,225.9 L340.7,232.0 L353.8,230.0 L366.9,232.0 L380.1,232.0 L393.2,232.0 L406.3,232.0 L419.4,232.0 L432.6,223.9 L445.7,228.0 L458.8,230.0 L471.9,232.0 L485.1,232.0 L498.2,232.0 L511.3,230.0 L524.4,232.0 L537.5,232.0 L550.7,207.8 L563.8,219.9 L576.9,68.4 L590.0,28.0 L603.2,157.3 L616.3,215.8 L629.4,225.9 L642.5,137.1 L655.6,232.0 L668.8,219.9 L681.9,232.0 L695.0,232.0 L708.1,225.9 L721.3,232.0 L734.4,230.0 L747.5,228.0 L760.6,232.0 L773.8,232.0 L786.9,232.0 L800.0,232.0 L800.0,232.0 L52.0,232.0Z" fill="#4e79a7" opacity="0.12"/>

  <!-- lines -->
  <polyline points="52.0,232.0 65.1,230.0 78.2,199.7 91.4,228.0 104.5,230.0 117.6,230.0 130.7,232.0 143.9,228.0 157.0,230.0 170.1,211.8 183.2,228.0 196.4,232.0 209.5,232.0 222.6,232.0 235.7,232.0 248.8,215.8 262.0,215.8 275.1,228.0 288.2,232.0 301.3,230.0 314.5,230.0 327.6,225.9 340.7,232.0 353.8,230.0 366.9,232.0 380.1,232.0 393.2,232.0 406.3,232.0 419.4,232.0 432.6,223.9 445.7,228.0 458.8,230.0 471.9,232.0 485.1,232.0 498.2,232.0 511.3,230.0 524.4,232.0 537.5,232.0 550.7,207.8 563.8,219.9 576.9,68.4 590.0,28.0 603.2,157.3 616.3,215.8 629.4,225.9 642.5,137.1 655.6,232.0 668.8,219.9 681.9,232.0 695.0,232.0 708.1,225.9 721.3,232.0 734.4,230.0 747.5,228.0 760.6,232.0 773.8,232.0 786.9,232.0 800.0,232.0"
            fill="none" stroke="#4e79a7"
            stroke-width="2" stroke-linejoin="round"/>
  <polyline points="52.0,232.0 65.1,230.0 78.2,213.8 91.4,230.0 104.5,230.0 117.6,230.0 130.7,232.0 143.9,230.0 157.0,230.0 170.1,225.9 183.2,228.0 196.4,232.0 209.5,232.0 222.6,232.0 235.7,232.0 248.8,223.9 262.0,223.9 275.1,230.0 288.2,232.0 301.3,230.0 314.5,230.0 327.6,225.9 340.7,232.0 353.8,230.0 366.9,232.0 380.1,232.0 393.2,232.0 406.3,232.0 419.4,232.0 432.6,225.9 445.7,228.0 458.8,230.0 471.9,232.0 485.1,232.0 498.2,232.0 511.3,230.0 524.4,232.0 537.5,232.0 550.7,215.8 563.8,225.9 576.9,171.4 590.0,133.0 603.2,207.8 616.3,228.0 629.4,225.9 642.5,211.8 655.6,232.0 668.8,230.0 681.9,232.0 695.0,232.0 708.1,225.9 721.3,232.0 734.4,230.0 747.5,230.0 760.6,232.0 773.8,232.0 786.9,232.0 800.0,232.0"
            fill="none" stroke="#f28e2b"
            stroke-width="2" stroke-linejoin="round"
            stroke-dasharray="5,3"/>

  <!-- dots -->
  <circle cx="52.0" cy="232.0" r="3" fill="#4e79a7"/><circle cx="65.1" cy="230.0" r="3" fill="#4e79a7"/><circle cx="78.2" cy="199.7" r="3" fill="#4e79a7"/><circle cx="91.4" cy="228.0" r="3" fill="#4e79a7"/><circle cx="104.5" cy="230.0" r="3" fill="#4e79a7"/><circle cx="117.6" cy="230.0" r="3" fill="#4e79a7"/><circle cx="130.7" cy="232.0" r="3" fill="#4e79a7"/><circle cx="143.9" cy="228.0" r="3" fill="#4e79a7"/><circle cx="157.0" cy="230.0" r="3" fill="#4e79a7"/><circle cx="170.1" cy="211.8" r="3" fill="#4e79a7"/><circle cx="183.2" cy="228.0" r="3" fill="#4e79a7"/><circle cx="196.4" cy="232.0" r="3" fill="#4e79a7"/><circle cx="209.5" cy="232.0" r="3" fill="#4e79a7"/><circle cx="222.6" cy="232.0" r="3" fill="#4e79a7"/><circle cx="235.7" cy="232.0" r="3" fill="#4e79a7"/><circle cx="248.8" cy="215.8" r="3" fill="#4e79a7"/><circle cx="262.0" cy="215.8" r="3" fill="#4e79a7"/><circle cx="275.1" cy="228.0" r="3" fill="#4e79a7"/><circle cx="288.2" cy="232.0" r="3" fill="#4e79a7"/><circle cx="301.3" cy="230.0" r="3" fill="#4e79a7"/><circle cx="314.5" cy="230.0" r="3" fill="#4e79a7"/><circle cx="327.6" cy="225.9" r="3" fill="#4e79a7"/><circle cx="340.7" cy="232.0" r="3" fill="#4e79a7"/><circle cx="353.8" cy="230.0" r="3" fill="#4e79a7"/><circle cx="366.9" cy="232.0" r="3" fill="#4e79a7"/><circle cx="380.1" cy="232.0" r="3" fill="#4e79a7"/><circle cx="393.2" cy="232.0" r="3" fill="#4e79a7"/><circle cx="406.3" cy="232.0" r="3" fill="#4e79a7"/><circle cx="419.4" cy="232.0" r="3" fill="#4e79a7"/><circle cx="432.6" cy="223.9" r="3" fill="#4e79a7"/><circle cx="445.7" cy="228.0" r="3" fill="#4e79a7"/><circle cx="458.8" cy="230.0" r="3" fill="#4e79a7"/><circle cx="471.9" cy="232.0" r="3" fill="#4e79a7"/><circle cx="485.1" cy="232.0" r="3" fill="#4e79a7"/><circle cx="498.2" cy="232.0" r="3" fill="#4e79a7"/><circle cx="511.3" cy="230.0" r="3" fill="#4e79a7"/><circle cx="524.4" cy="232.0" r="3" fill="#4e79a7"/><circle cx="537.5" cy="232.0" r="3" fill="#4e79a7"/><circle cx="550.7" cy="207.8" r="3" fill="#4e79a7"/><circle cx="563.8" cy="219.9" r="3" fill="#4e79a7"/><circle cx="576.9" cy="68.4" r="3" fill="#4e79a7"/><circle cx="590.0" cy="28.0" r="3" fill="#4e79a7"/><circle cx="603.2" cy="157.3" r="3" fill="#4e79a7"/><circle cx="616.3" cy="215.8" r="3" fill="#4e79a7"/><circle cx="629.4" cy="225.9" r="3" fill="#4e79a7"/><circle cx="642.5" cy="137.1" r="3" fill="#4e79a7"/><circle cx="655.6" cy="232.0" r="3" fill="#4e79a7"/><circle cx="668.8" cy="219.9" r="3" fill="#4e79a7"/><circle cx="681.9" cy="232.0" r="3" fill="#4e79a7"/><circle cx="695.0" cy="232.0" r="3" fill="#4e79a7"/><circle cx="708.1" cy="225.9" r="3" fill="#4e79a7"/><circle cx="721.3" cy="232.0" r="3" fill="#4e79a7"/><circle cx="734.4" cy="230.0" r="3" fill="#4e79a7"/><circle cx="747.5" cy="228.0" r="3" fill="#4e79a7"/><circle cx="760.6" cy="232.0" r="3" fill="#4e79a7"/><circle cx="773.8" cy="232.0" r="3" fill="#4e79a7"/><circle cx="786.9" cy="232.0" r="3" fill="#4e79a7"/><circle cx="800.0" cy="232.0" r="3" fill="#4e79a7"/>
  <circle cx="52.0" cy="232.0" r="3" fill="#f28e2b"/><circle cx="65.1" cy="230.0" r="3" fill="#f28e2b"/><circle cx="78.2" cy="213.8" r="3" fill="#f28e2b"/><circle cx="91.4" cy="230.0" r="3" fill="#f28e2b"/><circle cx="104.5" cy="230.0" r="3" fill="#f28e2b"/><circle cx="117.6" cy="230.0" r="3" fill="#f28e2b"/><circle cx="130.7" cy="232.0" r="3" fill="#f28e2b"/><circle cx="143.9" cy="230.0" r="3" fill="#f28e2b"/><circle cx="157.0" cy="230.0" r="3" fill="#f28e2b"/><circle cx="170.1" cy="225.9" r="3" fill="#f28e2b"/><circle cx="183.2" cy="228.0" r="3" fill="#f28e2b"/><circle cx="196.4" cy="232.0" r="3" fill="#f28e2b"/><circle cx="209.5" cy="232.0" r="3" fill="#f28e2b"/><circle cx="222.6" cy="232.0" r="3" fill="#f28e2b"/><circle cx="235.7" cy="232.0" r="3" fill="#f28e2b"/><circle cx="248.8" cy="223.9" r="3" fill="#f28e2b"/><circle cx="262.0" cy="223.9" r="3" fill="#f28e2b"/><circle cx="275.1" cy="230.0" r="3" fill="#f28e2b"/><circle cx="288.2" cy="232.0" r="3" fill="#f28e2b"/><circle cx="301.3" cy="230.0" r="3" fill="#f28e2b"/><circle cx="314.5" cy="230.0" r="3" fill="#f28e2b"/><circle cx="327.6" cy="225.9" r="3" fill="#f28e2b"/><circle cx="340.7" cy="232.0" r="3" fill="#f28e2b"/><circle cx="353.8" cy="230.0" r="3" fill="#f28e2b"/><circle cx="366.9" cy="232.0" r="3" fill="#f28e2b"/><circle cx="380.1" cy="232.0" r="3" fill="#f28e2b"/><circle cx="393.2" cy="232.0" r="3" fill="#f28e2b"/><circle cx="406.3" cy="232.0" r="3" fill="#f28e2b"/><circle cx="419.4" cy="232.0" r="3" fill="#f28e2b"/><circle cx="432.6" cy="225.9" r="3" fill="#f28e2b"/><circle cx="445.7" cy="228.0" r="3" fill="#f28e2b"/><circle cx="458.8" cy="230.0" r="3" fill="#f28e2b"/><circle cx="471.9" cy="232.0" r="3" fill="#f28e2b"/><circle cx="485.1" cy="232.0" r="3" fill="#f28e2b"/><circle cx="498.2" cy="232.0" r="3" fill="#f28e2b"/><circle cx="511.3" cy="230.0" r="3" fill="#f28e2b"/><circle cx="524.4" cy="232.0" r="3" fill="#f28e2b"/><circle cx="537.5" cy="232.0" r="3" fill="#f28e2b"/><circle cx="550.7" cy="215.8" r="3" fill="#f28e2b"/><circle cx="563.8" cy="225.9" r="3" fill="#f28e2b"/><circle cx="576.9" cy="171.4" r="3" fill="#f28e2b"/><circle cx="590.0" cy="133.0" r="3" fill="#f28e2b"/><circle cx="603.2" cy="207.8" r="3" fill="#f28e2b"/><circle cx="616.3" cy="228.0" r="3" fill="#f28e2b"/><circle cx="629.4" cy="225.9" r="3" fill="#f28e2b"/><circle cx="642.5" cy="211.8" r="3" fill="#f28e2b"/><circle cx="655.6" cy="232.0" r="3" fill="#f28e2b"/><circle cx="668.8" cy="230.0" r="3" fill="#f28e2b"/><circle cx="681.9" cy="232.0" r="3" fill="#f28e2b"/><circle cx="695.0" cy="232.0" r="3" fill="#f28e2b"/><circle cx="708.1" cy="225.9" r="3" fill="#f28e2b"/><circle cx="721.3" cy="232.0" r="3" fill="#f28e2b"/><circle cx="734.4" cy="230.0" r="3" fill="#f28e2b"/><circle cx="747.5" cy="230.0" r="3" fill="#f28e2b"/><circle cx="760.6" cy="232.0" r="3" fill="#f28e2b"/><circle cx="773.8" cy="232.0" r="3" fill="#f28e2b"/><circle cx="786.9" cy="232.0" r="3" fill="#f28e2b"/><circle cx="800.0" cy="232.0" r="3" fill="#f28e2b"/>

  <!-- axes -->
  <line x1="52" y1="28" x2="52" y2="232"
        stroke="#cccccc" stroke-width="1"/>
  <line x1="52" y1="232" x2="800" y2="232"
        stroke="#cccccc" stroke-width="1"/>

  <!-- y-axis labels -->
  <text x="47" y="236.0" text-anchor="end" font-size="10" fill="#57606a" font-family="ui-monospace, SFMono-Regular, 'SF Mono', Menlo, monospace">0</text><text x="47" y="195.6" text-anchor="end" font-size="10" fill="#57606a" font-family="ui-monospace, SFMono-Regular, 'SF Mono', Menlo, monospace">20</text><text x="47" y="155.2" text-anchor="end" font-size="10" fill="#57606a" font-family="ui-monospace, SFMono-Regular, 'SF Mono', Menlo, monospace">40</text><text x="47" y="114.8" text-anchor="end" font-size="10" fill="#57606a" font-family="ui-monospace, SFMono-Regular, 'SF Mono', Menlo, monospace">60</text><text x="47" y="74.4" text-anchor="end" font-size="10" fill="#57606a" font-family="ui-monospace, SFMono-Regular, 'SF Mono', Menlo, monospace">80</text><text x="47" y="34.0" text-anchor="end" font-size="10" fill="#57606a" font-family="ui-monospace, SFMono-Regular, 'SF Mono', Menlo, monospace">100</text><text x="47" y="-6.4" text-anchor="end" font-size="10" fill="#57606a" font-family="ui-monospace, SFMono-Regular, 'SF Mono', Menlo, monospace">120</text>

  <!-- x-axis labels -->
  <text x="52.0" y="248" text-anchor="middle" font-size="10" fill="#8c959f" font-family="ui-monospace, SFMono-Regular, 'SF Mono', Menlo, monospace">05-11</text><text x="511.3" y="248" text-anchor="middle" font-size="10" fill="#8c959f" font-family="ui-monospace, SFMono-Regular, 'SF Mono', Menlo, monospace">06-15</text><text x="143.9" y="248" text-anchor="middle" font-size="10" fill="#8c959f" font-family="ui-monospace, SFMono-Regular, 'SF Mono', Menlo, monospace">05-18</text><text x="603.2" y="248" text-anchor="middle" font-size="10" fill="#8c959f" font-family="ui-monospace, SFMono-Regular, 'SF Mono', Menlo, monospace">06-22</text><text x="235.7" y="248" text-anchor="middle" font-size="10" fill="#8c959f" font-family="ui-monospace, SFMono-Regular, 'SF Mono', Menlo, monospace">05-25</text><text x="695.0" y="248" text-anchor="middle" font-size="10" fill="#8c959f" font-family="ui-monospace, SFMono-Regular, 'SF Mono', Menlo, monospace">06-29</text><text x="327.6" y="248" text-anchor="middle" font-size="10" fill="#8c959f" font-family="ui-monospace, SFMono-Regular, 'SF Mono', Menlo, monospace">06-01</text><text x="786.9" y="248" text-anchor="middle" font-size="10" fill="#8c959f" font-family="ui-monospace, SFMono-Regular, 'SF Mono', Menlo, monospace">07-06</text><text x="800.0" y="248" text-anchor="middle" font-size="10" fill="#8c959f" font-family="ui-monospace, SFMono-Regular, 'SF Mono', Menlo, monospace">07-07</text><text x="419.4" y="248" text-anchor="middle" font-size="10" fill="#8c959f" font-family="ui-monospace, SFMono-Regular, 'SF Mono', Menlo, monospace">06-08</text>

  <!-- legend -->
  <rect x="60" y="262" width="16" height="3" fill="#4e79a7" rx="1"/><text x="80" y="268" font-size="11" fill="#57606a" font-family="-apple-system, BlinkMacSystemFont, 'Segoe UI', sans-serif">Total clones (375)</text><line x1="230" y1="264" x2="246" y2="264" stroke="#f28e2b" stroke-width="2" stroke-dasharray="5,3"/><text x="250" y="268" font-size="11" fill="#57606a" font-family="-apple-system, BlinkMacSystemFont, 'Segoe UI', sans-serif">Unique cloners</text>

</svg>