<svg xmlns="http://www.w3.org/2000/svg" viewBox="0 0 820 280" width="820" height="280">

  <!-- title -->
  <text x="52" y="18" font-size="13" font-weight="600"
        fill="#24292f" font-family="-apple-system, BlinkMacSystemFont, 'Segoe UI', sans-serif"
        >Clone traffic — git-lantern</text>
  <text x="800" y="18" font-size="10" fill="#8c959f"
        font-family="ui-monospace, SFMono-Regular, 'SF Mono', Menlo, monospace" text-anchor="end">2026-06-27</text>

  <!-- grid -->
  <line x1="52" y1="232.0" x2="800" y2="232.0" stroke="#e8e8e8" stroke-width="1"/><line x1="52" y1="191.6" x2="800" y2="191.6" stroke="#e8e8e8" stroke-width="1"/><line x1="52" y1="151.2" x2="800" y2="151.2" stroke="#e8e8e8" stroke-width="1"/><line x1="52" y1="110.8" x2="800" y2="110.8" stroke="#e8e8e8" stroke-width="1"/><line x1="52" y1="70.4" x2="800" y2="70.4" stroke="#e8e8e8" stroke-width="1"/><line x1="52" y1="30.0" x2="800" y2="30.0" stroke="#e8e8e8" stroke-width="1"/><line x1="52" y1="-10.4" x2="800" y2="-10.4" stroke="#e8e8e8" stroke-width="1"/>

  <!-- area fill -->
  <path d="M52.0,232.0 L52.0,232.0 L68.6,230.0 L85.2,199.7 L101.9,228.0 L118.5,230.0 L135.1,230.0 L151.7,232.0 L168.4,228.0 L185.0,230.0 L201.6,211.8 L218.2,228.0 L234.8,232.0 L251.5,232.0 L268.1,232.0 L284.7,232.0 L301.3,215.8 L318.0,215.8 L334.6,228.0 L351.2,232.0 L367.8,230.0 L384.4,230.0 L401.1,225.9 L417.7,232.0 L434.3,230.0 L450.9,232.0 L467.6,232.0 L484.2,232.0 L500.8,232.0 L517.4,232.0 L534.0,223.9 L550.7,228.0 L567.3,230.0 L583.9,232.0 L600.5,232.0 L617.2,232.0 L633.8,230.0 L650.4,232.0 L667.0,232.0 L683.6,207.8 L700.3,219.9 L716.9,68.4 L733.5,28.0 L750.1,157.3 L766.8,215.8 L783.4,225.9 L800.0,137.1 L800.0,232.0 L52.0,232.0Z" fill="#4e79a7" opacity="0.12"/>

  <!-- lines -->
  <polyline points="52.0,232.0 68.6,230.0 85.2,199.7 101.9,228.0 118.5,230.0 135.1,230.0 151.7,232.0 168.4,228.0 185.0,230.0 201.6,211.8 218.2,228.0 234.8,232.0 251.5,232.0 268.1,232.0 284.7,232.0 301.3,215.8 318.0,215.8 334.6,228.0 351.2,232.0 367.8,230.0 384.4,230.0 401.1,225.9 417.7,232.0 434.3,230.0 450.9,232.0 467.6,232.0 484.2,232.0 500.8,232.0 517.4,232.0 534.0,223.9 550.7,228.0 567.3,230.0 583.9,232.0 600.5,232.0 617.2,232.0 633.8,230.0 650.4,232.0 667.0,232.0 683.6,207.8 700.3,219.9 716.9,68.4 733.5,28.0 750.1,157.3 766.8,215.8 783.4,225.9 800.0,137.1"
            fill="none" stroke="#4e79a7"
            stroke-width="2" stroke-linejoin="round"/>
  <polyline points="52.0,232.0 68.6,230.0 85.2,213.8 101.9,230.0 118.5,230.0 135.1,230.0 151.7,232.0 168.4,230.0 185.0,230.0 201.6,225.9 218.2,228.0 234.8,232.0 251.5,232.0 268.1,232.0 284.7,232.0 301.3,223.9 318.0,223.9 334.6,230.0 351.2,232.0 367.8,230.0 384.4,230.0 401.1,225.9 417.7,232.0 434.3,230.0 450.9,232.0 467.6,232.0 484.2,232.0 500.8,232.0 517.4,232.0 534.0,225.9 550.7,228.0 567.3,230.0 583.9,232.0 600.5,232.0 617.2,232.0 633.8,230.0 650.4,232.0 667.0,232.0 683.6,215.8 700.3,225.9 716.9,171.4 733.5,133.0 750.1,207.8 766.8,228.0 783.4,225.9 800.0,211.8"
            fill="none" stroke="#f28e2b"
            stroke-width="2" stroke-linejoin="round"
            stroke-dasharray="5,3"/>

  <!-- dots -->
  <circle cx="52.0" cy="232.0" r="3" fill="#4e79a7"/><circle cx="68.6" cy="230.0" r="3" fill="#4e79a7"/><circle cx="85.2" cy="199.7" r="3" fill="#4e79a7"/><circle cx="101.9" cy="228.0" r="3" fill="#4e79a7"/><circle cx="118.5" cy="230.0" r="3" fill="#4e79a7"/><circle cx="135.1" cy="230.0" r="3" fill="#4e79a7"/><circle cx="151.7" cy="232.0" r="3" fill="#4e79a7"/><circle cx="168.4" cy="228.0" r="3" fill="#4e79a7"/><circle cx="185.0" cy="230.0" r="3" fill="#4e79a7"/><circle cx="201.6" cy="211.8" r="3" fill="#4e79a7"/><circle cx="218.2" cy="228.0" r="3" fill="#4e79a7"/><circle cx="234.8" cy="232.0" r="3" fill="#4e79a7"/><circle cx="251.5" cy="232.0" r="3" fill="#4e79a7"/><circle cx="268.1" cy="232.0" r="3" fill="#4e79a7"/><circle cx="284.7" cy="232.0" r="3" fill="#4e79a7"/><circle cx="301.3" cy="215.8" r="3" fill="#4e79a7"/><circle cx="318.0" cy="215.8" r="3" fill="#4e79a7"/><circle cx="334.6" cy="228.0" r="3" fill="#4e79a7"/><circle cx="351.2" cy="232.0" r="3" fill="#4e79a7"/><circle cx="367.8" cy="230.0" r="3" fill="#4e79a7"/><circle cx="384.4" cy="230.0" r="3" fill="#4e79a7"/><circle cx="401.1" cy="225.9" r="3" fill="#4e79a7"/><circle cx="417.7" cy="232.0" r="3" fill="#4e79a7"/><circle cx="434.3" cy="230.0" r="3" fill="#4e79a7"/><circle cx="450.9" cy="232.0" r="3" fill="#4e79a7"/><circle cx="467.6" cy="232.0" r="3" fill="#4e79a7"/><circle cx="484.2" cy="232.0" r="3" fill="#4e79a7"/><circle cx="500.8" cy="232.0" r="3" fill="#4e79a7"/><circle cx="517.4" cy="232.0" r="3" fill="#4e79a7"/><circle cx="534.0" cy="223.9" r="3" fill="#4e79a7"/><circle cx="550.7" cy="228.0" r="3" fill="#4e79a7"/><circle cx="567.3" cy="230.0" r="3" fill="#4e79a7"/><circle cx="583.9" cy="232.0" r="3" fill="#4e79a7"/><circle cx="600.5" cy="232.0" r="3" fill="#4e79a7"/><circle cx="617.2" cy="232.0" r="3" fill="#4e79a7"/><circle cx="633.8" cy="230.0" r="3" fill="#4e79a7"/><circle cx="650.4" cy="232.0" r="3" fill="#4e79a7"/><circle cx="667.0" cy="232.0" r="3" fill="#4e79a7"/><circle cx="683.6" cy="207.8" r="3" fill="#4e79a7"/><circle cx="700.3" cy="219.9" r="3" fill="#4e79a7"/><circle cx="716.9" cy="68.4" r="3" fill="#4e79a7"/><circle cx="733.5" cy="28.0" r="3" fill="#4e79a7"/><circle cx="750.1" cy="157.3" r="3" fill="#4e79a7"/><circle cx="766.8" cy="215.8" r="3" fill="#4e79a7"/><circle cx="783.4" cy="225.9" r="3" fill="#4e79a7"/><circle cx="800.0" cy="137.1" r="3" fill="#4e79a7"/>
  <circle cx="52.0" cy="232.0" r="3" fill="#f28e2b"/><circle cx="68.6" cy="230.0" r="3" fill="#f28e2b"/><circle cx="85.2" cy="213.8" r="3" fill="#f28e2b"/><circle cx="101.9" cy="230.0" r="3" fill="#f28e2b"/><circle cx="118.5" cy="230.0" r="3" fill="#f28e2b"/><circle cx="135.1" cy="230.0" r="3" fill="#f28e2b"/><circle cx="151.7" cy="232.0" r="3" fill="#f28e2b"/><circle cx="168.4" cy="230.0" r="3" fill="#f28e2b"/><circle cx="185.0" cy="230.0" r="3" fill="#f28e2b"/><circle cx="201.6" cy="225.9" r="3" fill="#f28e2b"/><circle cx="218.2" cy="228.0" r="3" fill="#f28e2b"/><circle cx="234.8" cy="232.0" r="3" fill="#f28e2b"/><circle cx="251.5" cy="232.0" r="3" fill="#f28e2b"/><circle cx="268.1" cy="232.0" r="3" fill="#f28e2b"/><circle cx="284.7" cy="232.0" r="3" fill="#f28e2b"/><circle cx="301.3" cy="223.9" r="3" fill="#f28e2b"/><circle cx="318.0" cy="223.9" r="3" fill="#f28e2b"/><circle cx="334.6" cy="230.0" r="3" fill="#f28e2b"/><circle cx="351.2" cy="232.0" r="3" fill="#f28e2b"/><circle cx="367.8" cy="230.0" r="3" fill="#f28e2b"/><circle cx="384.4" cy="230.0" r="3" fill="#f28e2b"/><circle cx="401.1" cy="225.9" r="3" fill="#f28e2b"/><circle cx="417.7" cy="232.0" r="3" fill="#f28e2b"/><circle cx="434.3" cy="230.0" r="3" fill="#f28e2b"/><circle cx="450.9" cy="232.0" r="3" fill="#f28e2b"/><circle cx="467.6" cy="232.0" r="3" fill="#f28e2b"/><circle cx="484.2" cy="232.0" r="3" fill="#f28e2b"/><circle cx="500.8" cy="232.0" r="3" fill="#f28e2b"/><circle cx="517.4" cy="232.0" r="3" fill="#f28e2b"/><circle cx="534.0" cy="225.9" r="3" fill="#f28e2b"/><circle cx="550.7" cy="228.0" r="3" fill="#f28e2b"/><circle cx="567.3" cy="230.0" r="3" fill="#f28e2b"/><circle cx="583.9" cy="232.0" r="3" fill="#f28e2b"/><circle cx="600.5" cy="232.0" r="3" fill="#f28e2b"/><circle cx="617.2" cy="232.0" r="3" fill="#f28e2b"/><circle cx="633.8" cy="230.0" r="3" fill="#f28e2b"/><circle cx="650.4" cy="232.0" r="3" fill="#f28e2b"/><circle cx="667.0" cy="232.0" r="3" fill="#f28e2b"/><circle cx="683.6" cy="215.8" r="3" fill="#f28e2b"/><circle cx="700.3" cy="225.9" r="3" fill="#f28e2b"/><circle cx="716.9" cy="171.4" r="3" fill="#f28e2b"/><circle cx="733.5" cy="133.0" r="3" fill="#f28e2b"/><circle cx="750.1" cy="207.8" r="3" fill="#f28e2b"/><circle cx="766.8" cy="228.0" r="3" fill="#f28e2b"/><circle cx="783.4" cy="225.9" r="3" fill="#f28e2b"/><circle cx="800.0" cy="211.8" r="3" fill="#f28e2b"/>

  <!-- axes -->
  <line x1="52" y1="28" x2="52" y2="232"
        stroke="#cccccc" stroke-width="1"/>
  <line x1="52" y1="232" x2="800" y2="232"
        stroke="#cccccc" stroke-width="1"/>

  <!-- y-axis labels -->
  <text x="47" y="236.0" text-anchor="end" font-size="10" fill="#57606a" font-family="ui-monospace, SFMono-Regular, 'SF Mono', Menlo, monospace">0</text><text x="47" y="195.6" text-anchor="end" font-size="10" fill="#57606a" font-family="ui-monospace, SFMono-Regular, 'SF Mono', Menlo, monospace">20</text><text x="47" y="155.2" text-anchor="end" font-size="10" fill="#57606a" font-family="ui-monospace, SFMono-Regular, 'SF Mono', Menlo, monospace">40</text><text x="47" y="114.8" text-anchor="end" font-size="10" fill="#57606a" font-family="ui-monospace, SFMono-Regular, 'SF Mono', Menlo, monospace">60</text><text x="47" y="74.4" text-anchor="end" font-size="10" fill="#57606a" font-family="ui-monospace, SFMono-Regular, 'SF Mono', Menlo, monospace">80</text><text x="47" y="34.0" text-anchor="end" font-size="10" fill="#57606a" font-family="ui-monospace, SFMono-Regular, 'SF Mono', Menlo, monospace">100</text><text x="47" y="-6.4" text-anchor="end" font-size="10" fill="#57606a" font-family="ui-monospace, SFMono-Regular, 'SF Mono', Menlo, monospace">120</text>

  <!-- x-axis labels -->
  <text x="52.0" y="248" text-anchor="middle" font-size="10" fill="#8c959f" font-family="ui-monospace, SFMono-Regular, 'SF Mono', Menlo, monospace">05-11</text><text x="633.8" y="248" text-anchor="middle" font-size="10" fill="#8c959f" font-family="ui-monospace, SFMono-Regular, 'SF Mono', Menlo, monospace">06-15</text><text x="135.1" y="248" text-anchor="middle" font-size="10" fill="#8c959f" font-family="ui-monospace, SFMono-Regular, 'SF Mono', Menlo, monospace">05-16</text><text x="716.9" y="248" text-anchor="middle" font-size="10" fill="#8c959f" font-family="ui-monospace, SFMono-Regular, 'SF Mono', Menlo, monospace">06-20</text><text x="218.2" y="248" text-anchor="middle" font-size="10" fill="#8c959f" font-family="ui-monospace, SFMono-Regular, 'SF Mono', Menlo, monospace">05-21</text><text x="800.0" y="248" text-anchor="middle" font-size="10" fill="#8c959f" font-family="ui-monospace, SFMono-Regular, 'SF Mono', Menlo, monospace">06-25</text><text x="301.3" y="248" text-anchor="middle" font-size="10" fill="#8c959f" font-family="ui-monospace, SFMono-Regular, 'SF Mono', Menlo, monospace">05-26</text><text x="384.4" y="248" text-anchor="middle" font-size="10" fill="#8c959f" font-family="ui-monospace, SFMono-Regular, 'SF Mono', Menlo, monospace">05-31</text><text x="467.6" y="248" text-anchor="middle" font-size="10" fill="#8c959f" font-family="ui-monospace, SFMono-Regular, 'SF Mono', Menlo, monospace">06-05</text><text x="550.7" y="248" text-anchor="middle" font-size="10" fill="#8c959f" font-family="ui-monospace, SFMono-Regular, 'SF Mono', Menlo, monospace">06-10</text>

  <!-- legend -->
  <rect x="60" y="262" width="16" height="3" fill="#4e79a7" rx="1"/><text x="80" y="268" font-size="11" fill="#57606a" font-family="-apple-system, BlinkMacSystemFont, 'Segoe UI', sans-serif">Total clones (363)</text><line x1="230" y1="264" x2="246" y2="264" stroke="#f28e2b" stroke-width="2" stroke-dasharray="5,3"/><text x="250" y="268" font-size="11" fill="#57606a" font-family="-apple-system, BlinkMacSystemFont, 'Segoe UI', sans-serif">Unique cloners</text>

</svg>