<svg xmlns="http://www.w3.org/2000/svg" viewBox="0 0 820 280" width="820" height="280">

  <!-- title -->
  <text x="52" y="18" font-size="13" font-weight="600"
        fill="#24292f" font-family="-apple-system, BlinkMacSystemFont, 'Segoe UI', sans-serif"
        >Clone traffic — git-pulse</text>
  <text x="800" y="18" font-size="10" fill="#8c959f"
        font-family="ui-monospace, SFMono-Regular, 'SF Mono', Menlo, monospace" text-anchor="end">2026-07-21</text>

  <!-- grid -->
  <line x1="52" y1="232.0" x2="800" y2="232.0" stroke="#e8e8e8" stroke-width="1"/><line x1="52" y1="186.7" x2="800" y2="186.7" stroke="#e8e8e8" stroke-width="1"/><line x1="52" y1="141.3" x2="800" y2="141.3" stroke="#e8e8e8" stroke-width="1"/><line x1="52" y1="96.0" x2="800" y2="96.0" stroke="#e8e8e8" stroke-width="1"/><line x1="52" y1="50.7" x2="800" y2="50.7" stroke="#e8e8e8" stroke-width="1"/><line x1="52" y1="5.3" x2="800" y2="5.3" stroke="#e8e8e8" stroke-width="1"/>

  <!-- area fill -->
  <path d="M52.0,232.0 L52.0,232.0 L62.8,220.7 L73.7,198.0 L84.5,232.0 L95.4,209.3 L106.2,232.0 L117.0,232.0 L127.9,232.0 L138.7,232.0 L149.6,220.7 L160.4,232.0 L171.2,232.0 L182.1,232.0 L192.9,28.0 L203.8,220.7 L214.6,220.7 L225.4,232.0 L236.3,232.0 L247.1,220.7 L258.0,232.0 L268.8,220.7 L279.7,220.7 L290.5,232.0 L301.3,232.0 L312.2,209.3 L323.0,220.7 L333.9,232.0 L344.7,232.0 L355.5,220.7 L366.4,209.3 L377.2,209.3 L388.1,232.0 L398.9,232.0 L409.7,232.0 L420.6,220.7 L431.4,232.0 L442.3,232.0 L453.1,130.0 L463.9,164.0 L474.8,186.7 L485.6,232.0 L496.5,232.0 L507.3,186.7 L518.1,220.7 L529.0,220.7 L539.8,232.0 L550.7,232.0 L561.5,220.7 L572.3,232.0 L583.2,232.0 L594.0,220.7 L604.9,232.0 L615.7,232.0 L626.6,232.0 L637.4,220.7 L648.2,232.0 L659.1,232.0 L669.9,232.0 L680.8,232.0 L691.6,232.0 L702.4,232.0 L713.3,232.0 L724.1,232.0 L735.0,232.0 L745.8,232.0 L756.6,232.0 L767.5,232.0 L778.3,232.0 L789.2,220.7 L800.0,232.0 L800.0,232.0 L52.0,232.0Z" fill="#4e79a7" opacity="0.12"/>

  <!-- lines -->
  <polyline points="52.0,232.0 62.8,220.7 73.7,198.0 84.5,232.0 95.4,209.3 106.2,232.0 117.0,232.0 127.9,232.0 138.7,232.0 149.6,220.7 160.4,232.0 171.2,232.0 182.1,232.0 192.9,28.0 203.8,220.7 214.6,220.7 225.4,232.0 236.3,232.0 247.1,220.7 258.0,232.0 268.8,220.7 279.7,220.7 290.5,232.0 301.3,232.0 312.2,209.3 323.0,220.7 333.9,232.0 344.7,232.0 355.5,220.7 366.4,209.3 377.2,209.3 388.1,232.0 398.9,232.0 409.7,232.0 420.6,220.7 431.4,232.0 442.3,232.0 453.1,130.0 463.9,164.0 474.8,186.7 485.6,232.0 496.5,232.0 507.3,186.7 518.1,220.7 529.0,220.7 539.8,232.0 550.7,232.0 561.5,220.7 572.3,232.0 583.2,232.0 594.0,220.7 604.9,232.0 615.7,232.0 626.6,232.0 637.4,220.7 648.2,232.0 659.1,232.0 669.9,232.0 680.8,232.0 691.6,232.0 702.4,232.0 713.3,232.0 724.1,232.0 735.0,232.0 745.8,232.0 756.6,232.0 767.5,232.0 778.3,232.0 789.2,220.7 800.0,232.0"
            fill="none" stroke="#4e79a7"
            stroke-width="2" stroke-linejoin="round"/>
  <polyline points="52.0,232.0 62.8,220.7 73.7,198.0 84.5,232.0 95.4,209.3 106.2,232.0 117.0,232.0 127.9,232.0 138.7,232.0 149.6,220.7 160.4,232.0 171.2,232.0 182.1,232.0 192.9,73.3 203.8,220.7 214.6,220.7 225.4,232.0 236.3,232.0 247.1,220.7 258.0,232.0 268.8,220.7 279.7,220.7 290.5,232.0 301.3,232.0 312.2,220.7 323.0,220.7 333.9,232.0 344.7,232.0 355.5,220.7 366.4,209.3 377.2,209.3 388.1,232.0 398.9,232.0 409.7,232.0 420.6,220.7 431.4,232.0 442.3,232.0 453.1,209.3 463.9,175.3 474.8,198.0 485.6,232.0 496.5,232.0 507.3,220.7 518.1,220.7 529.0,220.7 539.8,232.0 550.7,232.0 561.5,220.7 572.3,232.0 583.2,232.0 594.0,220.7 604.9,232.0 615.7,232.0 626.6,232.0 637.4,220.7 648.2,232.0 659.1,232.0 669.9,232.0 680.8,232.0 691.6,232.0 702.4,232.0 713.3,232.0 724.1,232.0 735.0,232.0 745.8,232.0 756.6,232.0 767.5,232.0 778.3,232.0 789.2,220.7 800.0,232.0"
            fill="none" stroke="#f28e2b"
            stroke-width="2" stroke-linejoin="round"
            stroke-dasharray="5,3"/>

  <!-- dots -->
  <circle cx="52.0" cy="232.0" r="3" fill="#4e79a7"/><circle cx="62.8" cy="220.7" r="3" fill="#4e79a7"/><circle cx="73.7" cy="198.0" r="3" fill="#4e79a7"/><circle cx="84.5" cy="232.0" r="3" fill="#4e79a7"/><circle cx="95.4" cy="209.3" r="3" fill="#4e79a7"/><circle cx="106.2" cy="232.0" r="3" fill="#4e79a7"/><circle cx="117.0" cy="232.0" r="3" fill="#4e79a7"/><circle cx="127.9" cy="232.0" r="3" fill="#4e79a7"/><circle cx="138.7" cy="232.0" r="3" fill="#4e79a7"/><circle cx="149.6" cy="220.7" r="3" fill="#4e79a7"/><circle cx="160.4" cy="232.0" r="3" fill="#4e79a7"/><circle cx="171.2" cy="232.0" r="3" fill="#4e79a7"/><circle cx="182.1" cy="232.0" r="3" fill="#4e79a7"/><circle cx="192.9" cy="28.0" r="3" fill="#4e79a7"/><circle cx="203.8" cy="220.7" r="3" fill="#4e79a7"/><circle cx="214.6" cy="220.7" r="3" fill="#4e79a7"/><circle cx="225.4" cy="232.0" r="3" fill="#4e79a7"/><circle cx="236.3" cy="232.0" r="3" fill="#4e79a7"/><circle cx="247.1" cy="220.7" r="3" fill="#4e79a7"/><circle cx="258.0" cy="232.0" r="3" fill="#4e79a7"/><circle cx="268.8" cy="220.7" r="3" fill="#4e79a7"/><circle cx="279.7" cy="220.7" r="3" fill="#4e79a7"/><circle cx="290.5" cy="232.0" r="3" fill="#4e79a7"/><circle cx="301.3" cy="232.0" r="3" fill="#4e79a7"/><circle cx="312.2" cy="209.3" r="3" fill="#4e79a7"/><circle cx="323.0" cy="220.7" r="3" fill="#4e79a7"/><circle cx="333.9" cy="232.0" r="3" fill="#4e79a7"/><circle cx="344.7" cy="232.0" r="3" fill="#4e79a7"/><circle cx="355.5" cy="220.7" r="3" fill="#4e79a7"/><circle cx="366.4" cy="209.3" r="3" fill="#4e79a7"/><circle cx="377.2" cy="209.3" r="3" fill="#4e79a7"/><circle cx="388.1" cy="232.0" r="3" fill="#4e79a7"/><circle cx="398.9" cy="232.0" r="3" fill="#4e79a7"/><circle cx="409.7" cy="232.0" r="3" fill="#4e79a7"/><circle cx="420.6" cy="220.7" r="3" fill="#4e79a7"/><circle cx="431.4" cy="232.0" r="3" fill="#4e79a7"/><circle cx="442.3" cy="232.0" r="3" fill="#4e79a7"/><circle cx="453.1" cy="130.0" r="3" fill="#4e79a7"/><circle cx="463.9" cy="164.0" r="3" fill="#4e79a7"/><circle cx="474.8" cy="186.7" r="3" fill="#4e79a7"/><circle cx="485.6" cy="232.0" r="3" fill="#4e79a7"/><circle cx="496.5" cy="232.0" r="3" fill="#4e79a7"/><circle cx="507.3" cy="186.7" r="3" fill="#4e79a7"/><circle cx="518.1" cy="220.7" r="3" fill="#4e79a7"/><circle cx="529.0" cy="220.7" r="3" fill="#4e79a7"/><circle cx="539.8" cy="232.0" r="3" fill="#4e79a7"/><circle cx="550.7" cy="232.0" r="3" fill="#4e79a7"/><circle cx="561.5" cy="220.7" r="3" fill="#4e79a7"/><circle cx="572.3" cy="232.0" r="3" fill="#4e79a7"/><circle cx="583.2" cy="232.0" r="3" fill="#4e79a7"/><circle cx="594.0" cy="220.7" r="3" fill="#4e79a7"/><circle cx="604.9" cy="232.0" r="3" fill="#4e79a7"/><circle cx="615.7" cy="232.0" r="3" fill="#4e79a7"/><circle cx="626.6" cy="232.0" r="3" fill="#4e79a7"/><circle cx="637.4" cy="220.7" r="3" fill="#4e79a7"/><circle cx="648.2" cy="232.0" r="3" fill="#4e79a7"/><circle cx="659.1" cy="232.0" r="3" fill="#4e79a7"/><circle cx="669.9" cy="232.0" r="3" fill="#4e79a7"/><circle cx="680.8" cy="232.0" r="3" fill="#4e79a7"/><circle cx="691.6" cy="232.0" r="3" fill="#4e79a7"/><circle cx="702.4" cy="232.0" r="3" fill="#4e79a7"/><circle cx="713.3" cy="232.0" r="3" fill="#4e79a7"/><circle cx="724.1" cy="232.0" r="3" fill="#4e79a7"/><circle cx="735.0" cy="232.0" r="3" fill="#4e79a7"/><circle cx="745.8" cy="232.0" r="3" fill="#4e79a7"/><circle cx="756.6" cy="232.0" r="3" fill="#4e79a7"/><circle cx="767.5" cy="232.0" r="3" fill="#4e79a7"/><circle cx="778.3" cy="232.0" r="3" fill="#4e79a7"/><circle cx="789.2" cy="220.7" r="3" fill="#4e79a7"/><circle cx="800.0" cy="232.0" r="3" fill="#4e79a7"/>
  <circle cx="52.0" cy="232.0" r="3" fill="#f28e2b"/><circle cx="62.8" cy="220.7" r="3" fill="#f28e2b"/><circle cx="73.7" cy="198.0" r="3" fill="#f28e2b"/><circle cx="84.5" cy="232.0" r="3" fill="#f28e2b"/><circle cx="95.4" cy="209.3" r="3" fill="#f28e2b"/><circle cx="106.2" cy="232.0" r="3" fill="#f28e2b"/><circle cx="117.0" cy="232.0" r="3" fill="#f28e2b"/><circle cx="127.9" cy="232.0" r="3" fill="#f28e2b"/><circle cx="138.7" cy="232.0" r="3" fill="#f28e2b"/><circle cx="149.6" cy="220.7" r="3" fill="#f28e2b"/><circle cx="160.4" cy="232.0" r="3" fill="#f28e2b"/><circle cx="171.2" cy="232.0" r="3" fill="#f28e2b"/><circle cx="182.1" cy="232.0" r="3" fill="#f28e2b"/><circle cx="192.9" cy="73.3" r="3" fill="#f28e2b"/><circle cx="203.8" cy="220.7" r="3" fill="#f28e2b"/><circle cx="214.6" cy="220.7" r="3" fill="#f28e2b"/><circle cx="225.4" cy="232.0" r="3" fill="#f28e2b"/><circle cx="236.3" cy="232.0" r="3" fill="#f28e2b"/><circle cx="247.1" cy="220.7" r="3" fill="#f28e2b"/><circle cx="258.0" cy="232.0" r="3" fill="#f28e2b"/><circle cx="268.8" cy="220.7" r="3" fill="#f28e2b"/><circle cx="279.7" cy="220.7" r="3" fill="#f28e2b"/><circle cx="290.5" cy="232.0" r="3" fill="#f28e2b"/><circle cx="301.3" cy="232.0" r="3" fill="#f28e2b"/><circle cx="312.2" cy="220.7" r="3" fill="#f28e2b"/><circle cx="323.0" cy="220.7" r="3" fill="#f28e2b"/><circle cx="333.9" cy="232.0" r="3" fill="#f28e2b"/><circle cx="344.7" cy="232.0" r="3" fill="#f28e2b"/><circle cx="355.5" cy="220.7" r="3" fill="#f28e2b"/><circle cx="366.4" cy="209.3" r="3" fill="#f28e2b"/><circle cx="377.2" cy="209.3" r="3" fill="#f28e2b"/><circle cx="388.1" cy="232.0" r="3" fill="#f28e2b"/><circle cx="398.9" cy="232.0" r="3" fill="#f28e2b"/><circle cx="409.7" cy="232.0" r="3" fill="#f28e2b"/><circle cx="420.6" cy="220.7" r="3" fill="#f28e2b"/><circle cx="431.4" cy="232.0" r="3" fill="#f28e2b"/><circle cx="442.3" cy="232.0" r="3" fill="#f28e2b"/><circle cx="453.1" cy="209.3" r="3" fill="#f28e2b"/><circle cx="463.9" cy="175.3" r="3" fill="#f28e2b"/><circle cx="474.8" cy="198.0" r="3" fill="#f28e2b"/><circle cx="485.6" cy="232.0" r="3" fill="#f28e2b"/><circle cx="496.5" cy="232.0" r="3" fill="#f28e2b"/><circle cx="507.3" cy="220.7" r="3" fill="#f28e2b"/><circle cx="518.1" cy="220.7" r="3" fill="#f28e2b"/><circle cx="529.0" cy="220.7" r="3" fill="#f28e2b"/><circle cx="539.8" cy="232.0" r="3" fill="#f28e2b"/><circle cx="550.7" cy="232.0" r="3" fill="#f28e2b"/><circle cx="561.5" cy="220.7" r="3" fill="#f28e2b"/><circle cx="572.3" cy="232.0" r="3" fill="#f28e2b"/><circle cx="583.2" cy="232.0" r="3" fill="#f28e2b"/><circle cx="594.0" cy="220.7" r="3" fill="#f28e2b"/><circle cx="604.9" cy="232.0" r="3" fill="#f28e2b"/><circle cx="615.7" cy="232.0" r="3" fill="#f28e2b"/><circle cx="626.6" cy="232.0" r="3" fill="#f28e2b"/><circle cx="637.4" cy="220.7" r="3" fill="#f28e2b"/><circle cx="648.2" cy="232.0" r="3" fill="#f28e2b"/><circle cx="659.1" cy="232.0" r="3" fill="#f28e2b"/><circle cx="669.9" cy="232.0" r="3" fill="#f28e2b"/><circle cx="680.8" cy="232.0" r="3" fill="#f28e2b"/><circle cx="691.6" cy="232.0" r="3" fill="#f28e2b"/><circle cx="702.4" cy="232.0" r="3" fill="#f28e2b"/><circle cx="713.3" cy="232.0" r="3" fill="#f28e2b"/><circle cx="724.1" cy="232.0" r="3" fill="#f28e2b"/><circle cx="735.0" cy="232.0" r="3" fill="#f28e2b"/><circle cx="745.8" cy="232.0" r="3" fill="#f28e2b"/><circle cx="756.6" cy="232.0" r="3" fill="#f28e2b"/><circle cx="767.5" cy="232.0" r="3" fill="#f28e2b"/><circle cx="778.3" cy="232.0" r="3" fill="#f28e2b"/><circle cx="789.2" cy="220.7" r="3" fill="#f28e2b"/><circle cx="800.0" cy="232.0" r="3" fill="#f28e2b"/>

  <!-- axes -->
  <line x1="52" y1="28" x2="52" y2="232"
        stroke="#cccccc" stroke-width="1"/>
  <line x1="52" y1="232" x2="800" y2="232"
        stroke="#cccccc" stroke-width="1"/>

  <!-- y-axis labels -->
  <text x="47" y="236.0" text-anchor="end" font-size="10" fill="#57606a" font-family="ui-monospace, SFMono-Regular, 'SF Mono', Menlo, monospace">0</text><text x="47" y="190.7" text-anchor="end" font-size="10" fill="#57606a" font-family="ui-monospace, SFMono-Regular, 'SF Mono', Menlo, monospace">4</text><text x="47" y="145.3" text-anchor="end" font-size="10" fill="#57606a" font-family="ui-monospace, SFMono-Regular, 'SF Mono', Menlo, monospace">8</text><text x="47" y="100.0" text-anchor="end" font-size="10" fill="#57606a" font-family="ui-monospace, SFMono-Regular, 'SF Mono', Menlo, monospace">12</text><text x="47" y="54.7" text-anchor="end" font-size="10" fill="#57606a" font-family="ui-monospace, SFMono-Regular, 'SF Mono', Menlo, monospace">16</text><text x="47" y="9.3" text-anchor="end" font-size="10" fill="#57606a" font-family="ui-monospace, SFMono-Regular, 'SF Mono', Menlo, monospace">20</text>

  <!-- x-axis labels -->
  <text x="52.0" y="248" text-anchor="middle" font-size="10" fill="#8c959f" font-family="ui-monospace, SFMono-Regular, 'SF Mono', Menlo, monospace">05-11</text><text x="398.9" y="248" text-anchor="middle" font-size="10" fill="#8c959f" font-family="ui-monospace, SFMono-Regular, 'SF Mono', Menlo, monospace">06-12</text><text x="745.8" y="248" text-anchor="middle" font-size="10" fill="#8c959f" font-family="ui-monospace, SFMono-Regular, 'SF Mono', Menlo, monospace">07-14</text><text x="800.0" y="248" text-anchor="middle" font-size="10" fill="#8c959f" font-family="ui-monospace, SFMono-Regular, 'SF Mono', Menlo, monospace">07-19</text><text x="138.7" y="248" text-anchor="middle" font-size="10" fill="#8c959f" font-family="ui-monospace, SFMono-Regular, 'SF Mono', Menlo, monospace">05-19</text><text x="485.6" y="248" text-anchor="middle" font-size="10" fill="#8c959f" font-family="ui-monospace, SFMono-Regular, 'SF Mono', Menlo, monospace">06-20</text><text x="225.4" y="248" text-anchor="middle" font-size="10" fill="#8c959f" font-family="ui-monospace, SFMono-Regular, 'SF Mono', Menlo, monospace">05-27</text><text x="572.3" y="248" text-anchor="middle" font-size="10" fill="#8c959f" font-family="ui-monospace, SFMono-Regular, 'SF Mono', Menlo, monospace">06-28</text><text x="312.2" y="248" text-anchor="middle" font-size="10" fill="#8c959f" font-family="ui-monospace, SFMono-Regular, 'SF Mono', Menlo, monospace">06-04</text><text x="659.1" y="248" text-anchor="middle" font-size="10" fill="#8c959f" font-family="ui-monospace, SFMono-Regular, 'SF Mono', Menlo, monospace">07-06</text>

  <!-- legend -->
  <rect x="60" y="262" width="16" height="3" fill="#4e79a7" rx="1"/><text x="80" y="268" font-size="11" fill="#57606a" font-family="-apple-system, BlinkMacSystemFont, 'Segoe UI', sans-serif">Total clones (68)</text><line x1="230" y1="264" x2="246" y2="264" stroke="#f28e2b" stroke-width="2" stroke-dasharray="5,3"/><text x="250" y="268" font-size="11" fill="#57606a" font-family="-apple-system, BlinkMacSystemFont, 'Segoe UI', sans-serif">Unique cloners</text>

</svg>