<svg xmlns="http://www.w3.org/2000/svg" viewBox="0 0 820 280" width="820" height="280">

  <!-- title -->
  <text x="52" y="18" font-size="13" font-weight="600"
        fill="#24292f" font-family="-apple-system, BlinkMacSystemFont, 'Segoe UI', sans-serif"
        >Clone traffic — git-pulse</text>
  <text x="800" y="18" font-size="10" fill="#8c959f"
        font-family="ui-monospace, SFMono-Regular, 'SF Mono', Menlo, monospace" text-anchor="end">2026-07-23</text>

  <!-- grid -->
  <line x1="52" y1="232.0" x2="800" y2="232.0" stroke="#e8e8e8" stroke-width="1"/><line x1="52" y1="186.7" x2="800" y2="186.7" stroke="#e8e8e8" stroke-width="1"/><line x1="52" y1="141.3" x2="800" y2="141.3" stroke="#e8e8e8" stroke-width="1"/><line x1="52" y1="96.0" x2="800" y2="96.0" stroke="#e8e8e8" stroke-width="1"/><line x1="52" y1="50.7" x2="800" y2="50.7" stroke="#e8e8e8" stroke-width="1"/><line x1="52" y1="5.3" x2="800" y2="5.3" stroke="#e8e8e8" stroke-width="1"/>

  <!-- area fill -->
  <path d="M52.0,232.0 L52.0,232.0 L62.5,220.7 L73.1,198.0 L83.6,232.0 L94.1,209.3 L104.7,232.0 L115.2,232.0 L125.7,232.0 L136.3,232.0 L146.8,220.7 L157.4,232.0 L167.9,232.0 L178.4,232.0 L189.0,28.0 L199.5,220.7 L210.0,220.7 L220.6,232.0 L231.1,232.0 L241.6,220.7 L252.2,232.0 L262.7,220.7 L273.2,220.7 L283.8,232.0 L294.3,232.0 L304.8,209.3 L315.4,220.7 L325.9,232.0 L336.5,232.0 L347.0,220.7 L357.5,209.3 L368.1,209.3 L378.6,232.0 L389.1,232.0 L399.7,232.0 L410.2,220.7 L420.7,232.0 L431.3,232.0 L441.8,130.0 L452.3,164.0 L462.9,186.7 L473.4,232.0 L483.9,232.0 L494.5,186.7 L505.0,220.7 L515.5,220.7 L526.1,232.0 L536.6,232.0 L547.2,220.7 L557.7,232.0 L568.2,232.0 L578.8,220.7 L589.3,232.0 L599.8,232.0 L610.4,232.0 L620.9,220.7 L631.4,232.0 L642.0,232.0 L652.5,232.0 L663.0,232.0 L673.6,232.0 L684.1,232.0 L694.6,232.0 L705.2,232.0 L715.7,232.0 L726.3,232.0 L736.8,232.0 L747.3,232.0 L757.9,232.0 L768.4,220.7 L778.9,232.0 L789.5,232.0 L800.0,232.0 L800.0,232.0 L52.0,232.0Z" fill="#4e79a7" opacity="0.12"/>

  <!-- lines -->
  <polyline points="52.0,232.0 62.5,220.7 73.1,198.0 83.6,232.0 94.1,209.3 104.7,232.0 115.2,232.0 125.7,232.0 136.3,232.0 146.8,220.7 157.4,232.0 167.9,232.0 178.4,232.0 189.0,28.0 199.5,220.7 210.0,220.7 220.6,232.0 231.1,232.0 241.6,220.7 252.2,232.0 262.7,220.7 273.2,220.7 283.8,232.0 294.3,232.0 304.8,209.3 315.4,220.7 325.9,232.0 336.5,232.0 347.0,220.7 357.5,209.3 368.1,209.3 378.6,232.0 389.1,232.0 399.7,232.0 410.2,220.7 420.7,232.0 431.3,232.0 441.8,130.0 452.3,164.0 462.9,186.7 473.4,232.0 483.9,232.0 494.5,186.7 505.0,220.7 515.5,220.7 526.1,232.0 536.6,232.0 547.2,220.7 557.7,232.0 568.2,232.0 578.8,220.7 589.3,232.0 599.8,232.0 610.4,232.0 620.9,220.7 631.4,232.0 642.0,232.0 652.5,232.0 663.0,232.0 673.6,232.0 684.1,232.0 694.6,232.0 705.2,232.0 715.7,232.0 726.3,232.0 736.8,232.0 747.3,232.0 757.9,232.0 768.4,220.7 778.9,232.0 789.5,232.0 800.0,232.0"
            fill="none" stroke="#4e79a7"
            stroke-width="2" stroke-linejoin="round"/>
  <polyline points="52.0,232.0 62.5,220.7 73.1,198.0 83.6,232.0 94.1,209.3 104.7,232.0 115.2,232.0 125.7,232.0 136.3,232.0 146.8,220.7 157.4,232.0 167.9,232.0 178.4,232.0 189.0,73.3 199.5,220.7 210.0,220.7 220.6,232.0 231.1,232.0 241.6,220.7 252.2,232.0 262.7,220.7 273.2,220.7 283.8,232.0 294.3,232.0 304.8,220.7 315.4,220.7 325.9,232.0 336.5,232.0 347.0,220.7 357.5,209.3 368.1,209.3 378.6,232.0 389.1,232.0 399.7,232.0 410.2,220.7 420.7,232.0 431.3,232.0 441.8,209.3 452.3,175.3 462.9,198.0 473.4,232.0 483.9,232.0 494.5,220.7 505.0,220.7 515.5,220.7 526.1,232.0 536.6,232.0 547.2,220.7 557.7,232.0 568.2,232.0 578.8,220.7 589.3,232.0 599.8,232.0 610.4,232.0 620.9,220.7 631.4,232.0 642.0,232.0 652.5,232.0 663.0,232.0 673.6,232.0 684.1,232.0 694.6,232.0 705.2,232.0 715.7,232.0 726.3,232.0 736.8,232.0 747.3,232.0 757.9,232.0 768.4,220.7 778.9,232.0 789.5,232.0 800.0,232.0"
            fill="none" stroke="#f28e2b"
            stroke-width="2" stroke-linejoin="round"
            stroke-dasharray="5,3"/>

  <!-- dots -->
  <circle cx="52.0" cy="232.0" r="3" fill="#4e79a7"/><circle cx="62.5" cy="220.7" r="3" fill="#4e79a7"/><circle cx="73.1" cy="198.0" r="3" fill="#4e79a7"/><circle cx="83.6" cy="232.0" r="3" fill="#4e79a7"/><circle cx="94.1" cy="209.3" r="3" fill="#4e79a7"/><circle cx="104.7" cy="232.0" r="3" fill="#4e79a7"/><circle cx="115.2" cy="232.0" r="3" fill="#4e79a7"/><circle cx="125.7" cy="232.0" r="3" fill="#4e79a7"/><circle cx="136.3" cy="232.0" r="3" fill="#4e79a7"/><circle cx="146.8" cy="220.7" r="3" fill="#4e79a7"/><circle cx="157.4" cy="232.0" r="3" fill="#4e79a7"/><circle cx="167.9" cy="232.0" r="3" fill="#4e79a7"/><circle cx="178.4" cy="232.0" r="3" fill="#4e79a7"/><circle cx="189.0" cy="28.0" r="3" fill="#4e79a7"/><circle cx="199.5" cy="220.7" r="3" fill="#4e79a7"/><circle cx="210.0" cy="220.7" r="3" fill="#4e79a7"/><circle cx="220.6" cy="232.0" r="3" fill="#4e79a7"/><circle cx="231.1" cy="232.0" r="3" fill="#4e79a7"/><circle cx="241.6" cy="220.7" r="3" fill="#4e79a7"/><circle cx="252.2" cy="232.0" r="3" fill="#4e79a7"/><circle cx="262.7" cy="220.7" r="3" fill="#4e79a7"/><circle cx="273.2" cy="220.7" r="3" fill="#4e79a7"/><circle cx="283.8" cy="232.0" r="3" fill="#4e79a7"/><circle cx="294.3" cy="232.0" r="3" fill="#4e79a7"/><circle cx="304.8" cy="209.3" r="3" fill="#4e79a7"/><circle cx="315.4" cy="220.7" r="3" fill="#4e79a7"/><circle cx="325.9" cy="232.0" r="3" fill="#4e79a7"/><circle cx="336.5" cy="232.0" r="3" fill="#4e79a7"/><circle cx="347.0" cy="220.7" r="3" fill="#4e79a7"/><circle cx="357.5" cy="209.3" r="3" fill="#4e79a7"/><circle cx="368.1" cy="209.3" r="3" fill="#4e79a7"/><circle cx="378.6" cy="232.0" r="3" fill="#4e79a7"/><circle cx="389.1" cy="232.0" r="3" fill="#4e79a7"/><circle cx="399.7" cy="232.0" r="3" fill="#4e79a7"/><circle cx="410.2" cy="220.7" r="3" fill="#4e79a7"/><circle cx="420.7" cy="232.0" r="3" fill="#4e79a7"/><circle cx="431.3" cy="232.0" r="3" fill="#4e79a7"/><circle cx="441.8" cy="130.0" r="3" fill="#4e79a7"/><circle cx="452.3" cy="164.0" r="3" fill="#4e79a7"/><circle cx="462.9" cy="186.7" r="3" fill="#4e79a7"/><circle cx="473.4" cy="232.0" r="3" fill="#4e79a7"/><circle cx="483.9" cy="232.0" r="3" fill="#4e79a7"/><circle cx="494.5" cy="186.7" r="3" fill="#4e79a7"/><circle cx="505.0" cy="220.7" r="3" fill="#4e79a7"/><circle cx="515.5" cy="220.7" r="3" fill="#4e79a7"/><circle cx="526.1" cy="232.0" r="3" fill="#4e79a7"/><circle cx="536.6" cy="232.0" r="3" fill="#4e79a7"/><circle cx="547.2" cy="220.7" r="3" fill="#4e79a7"/><circle cx="557.7" cy="232.0" r="3" fill="#4e79a7"/><circle cx="568.2" cy="232.0" r="3" fill="#4e79a7"/><circle cx="578.8" cy="220.7" r="3" fill="#4e79a7"/><circle cx="589.3" cy="232.0" r="3" fill="#4e79a7"/><circle cx="599.8" cy="232.0" r="3" fill="#4e79a7"/><circle cx="610.4" cy="232.0" r="3" fill="#4e79a7"/><circle cx="620.9" cy="220.7" r="3" fill="#4e79a7"/><circle cx="631.4" cy="232.0" r="3" fill="#4e79a7"/><circle cx="642.0" cy="232.0" r="3" fill="#4e79a7"/><circle cx="652.5" cy="232.0" r="3" fill="#4e79a7"/><circle cx="663.0" cy="232.0" r="3" fill="#4e79a7"/><circle cx="673.6" cy="232.0" r="3" fill="#4e79a7"/><circle cx="684.1" cy="232.0" r="3" fill="#4e79a7"/><circle cx="694.6" cy="232.0" r="3" fill="#4e79a7"/><circle cx="705.2" cy="232.0" r="3" fill="#4e79a7"/><circle cx="715.7" cy="232.0" r="3" fill="#4e79a7"/><circle cx="726.3" cy="232.0" r="3" fill="#4e79a7"/><circle cx="736.8" cy="232.0" r="3" fill="#4e79a7"/><circle cx="747.3" cy="232.0" r="3" fill="#4e79a7"/><circle cx="757.9" cy="232.0" r="3" fill="#4e79a7"/><circle cx="768.4" cy="220.7" r="3" fill="#4e79a7"/><circle cx="778.9" cy="232.0" r="3" fill="#4e79a7"/><circle cx="789.5" cy="232.0" r="3" fill="#4e79a7"/><circle cx="800.0" cy="232.0" r="3" fill="#4e79a7"/>
  <circle cx="52.0" cy="232.0" r="3" fill="#f28e2b"/><circle cx="62.5" cy="220.7" r="3" fill="#f28e2b"/><circle cx="73.1" cy="198.0" r="3" fill="#f28e2b"/><circle cx="83.6" cy="232.0" r="3" fill="#f28e2b"/><circle cx="94.1" cy="209.3" r="3" fill="#f28e2b"/><circle cx="104.7" cy="232.0" r="3" fill="#f28e2b"/><circle cx="115.2" cy="232.0" r="3" fill="#f28e2b"/><circle cx="125.7" cy="232.0" r="3" fill="#f28e2b"/><circle cx="136.3" cy="232.0" r="3" fill="#f28e2b"/><circle cx="146.8" cy="220.7" r="3" fill="#f28e2b"/><circle cx="157.4" cy="232.0" r="3" fill="#f28e2b"/><circle cx="167.9" cy="232.0" r="3" fill="#f28e2b"/><circle cx="178.4" cy="232.0" r="3" fill="#f28e2b"/><circle cx="189.0" cy="73.3" r="3" fill="#f28e2b"/><circle cx="199.5" cy="220.7" r="3" fill="#f28e2b"/><circle cx="210.0" cy="220.7" r="3" fill="#f28e2b"/><circle cx="220.6" cy="232.0" r="3" fill="#f28e2b"/><circle cx="231.1" cy="232.0" r="3" fill="#f28e2b"/><circle cx="241.6" cy="220.7" r="3" fill="#f28e2b"/><circle cx="252.2" cy="232.0" r="3" fill="#f28e2b"/><circle cx="262.7" cy="220.7" r="3" fill="#f28e2b"/><circle cx="273.2" cy="220.7" r="3" fill="#f28e2b"/><circle cx="283.8" cy="232.0" r="3" fill="#f28e2b"/><circle cx="294.3" cy="232.0" r="3" fill="#f28e2b"/><circle cx="304.8" cy="220.7" r="3" fill="#f28e2b"/><circle cx="315.4" cy="220.7" r="3" fill="#f28e2b"/><circle cx="325.9" cy="232.0" r="3" fill="#f28e2b"/><circle cx="336.5" cy="232.0" r="3" fill="#f28e2b"/><circle cx="347.0" cy="220.7" r="3" fill="#f28e2b"/><circle cx="357.5" cy="209.3" r="3" fill="#f28e2b"/><circle cx="368.1" cy="209.3" r="3" fill="#f28e2b"/><circle cx="378.6" cy="232.0" r="3" fill="#f28e2b"/><circle cx="389.1" cy="232.0" r="3" fill="#f28e2b"/><circle cx="399.7" cy="232.0" r="3" fill="#f28e2b"/><circle cx="410.2" cy="220.7" r="3" fill="#f28e2b"/><circle cx="420.7" cy="232.0" r="3" fill="#f28e2b"/><circle cx="431.3" cy="232.0" r="3" fill="#f28e2b"/><circle cx="441.8" cy="209.3" r="3" fill="#f28e2b"/><circle cx="452.3" cy="175.3" r="3" fill="#f28e2b"/><circle cx="462.9" cy="198.0" r="3" fill="#f28e2b"/><circle cx="473.4" cy="232.0" r="3" fill="#f28e2b"/><circle cx="483.9" cy="232.0" r="3" fill="#f28e2b"/><circle cx="494.5" cy="220.7" r="3" fill="#f28e2b"/><circle cx="505.0" cy="220.7" r="3" fill="#f28e2b"/><circle cx="515.5" cy="220.7" r="3" fill="#f28e2b"/><circle cx="526.1" cy="232.0" r="3" fill="#f28e2b"/><circle cx="536.6" cy="232.0" r="3" fill="#f28e2b"/><circle cx="547.2" cy="220.7" r="3" fill="#f28e2b"/><circle cx="557.7" cy="232.0" r="3" fill="#f28e2b"/><circle cx="568.2" cy="232.0" r="3" fill="#f28e2b"/><circle cx="578.8" cy="220.7" r="3" fill="#f28e2b"/><circle cx="589.3" cy="232.0" r="3" fill="#f28e2b"/><circle cx="599.8" cy="232.0" r="3" fill="#f28e2b"/><circle cx="610.4" cy="232.0" r="3" fill="#f28e2b"/><circle cx="620.9" cy="220.7" r="3" fill="#f28e2b"/><circle cx="631.4" cy="232.0" r="3" fill="#f28e2b"/><circle cx="642.0" cy="232.0" r="3" fill="#f28e2b"/><circle cx="652.5" cy="232.0" r="3" fill="#f28e2b"/><circle cx="663.0" cy="232.0" r="3" fill="#f28e2b"/><circle cx="673.6" cy="232.0" r="3" fill="#f28e2b"/><circle cx="684.1" cy="232.0" r="3" fill="#f28e2b"/><circle cx="694.6" cy="232.0" r="3" fill="#f28e2b"/><circle cx="705.2" cy="232.0" r="3" fill="#f28e2b"/><circle cx="715.7" cy="232.0" r="3" fill="#f28e2b"/><circle cx="726.3" cy="232.0" r="3" fill="#f28e2b"/><circle cx="736.8" cy="232.0" r="3" fill="#f28e2b"/><circle cx="747.3" cy="232.0" r="3" fill="#f28e2b"/><circle cx="757.9" cy="232.0" r="3" fill="#f28e2b"/><circle cx="768.4" cy="220.7" r="3" fill="#f28e2b"/><circle cx="778.9" cy="232.0" r="3" fill="#f28e2b"/><circle cx="789.5" cy="232.0" r="3" fill="#f28e2b"/><circle cx="800.0" cy="232.0" r="3" fill="#f28e2b"/>

  <!-- axes -->
  <line x1="52" y1="28" x2="52" y2="232"
        stroke="#cccccc" stroke-width="1"/>
  <line x1="52" y1="232" x2="800" y2="232"
        stroke="#cccccc" stroke-width="1"/>

  <!-- y-axis labels -->
  <text x="47" y="236.0" text-anchor="end" font-size="10" fill="#57606a" font-family="ui-monospace, SFMono-Regular, 'SF Mono', Menlo, monospace">0</text><text x="47" y="190.7" text-anchor="end" font-size="10" fill="#57606a" font-family="ui-monospace, SFMono-Regular, 'SF Mono', Menlo, monospace">4</text><text x="47" y="145.3" text-anchor="end" font-size="10" fill="#57606a" font-family="ui-monospace, SFMono-Regular, 'SF Mono', Menlo, monospace">8</text><text x="47" y="100.0" text-anchor="end" font-size="10" fill="#57606a" font-family="ui-monospace, SFMono-Regular, 'SF Mono', Menlo, monospace">12</text><text x="47" y="54.7" text-anchor="end" font-size="10" fill="#57606a" font-family="ui-monospace, SFMono-Regular, 'SF Mono', Menlo, monospace">16</text><text x="47" y="9.3" text-anchor="end" font-size="10" fill="#57606a" font-family="ui-monospace, SFMono-Regular, 'SF Mono', Menlo, monospace">20</text>

  <!-- x-axis labels -->
  <text x="52.0" y="248" text-anchor="middle" font-size="10" fill="#8c959f" font-family="ui-monospace, SFMono-Regular, 'SF Mono', Menlo, monospace">05-11</text><text x="431.3" y="248" text-anchor="middle" font-size="10" fill="#8c959f" font-family="ui-monospace, SFMono-Regular, 'SF Mono', Menlo, monospace">06-16</text><text x="800.0" y="248" text-anchor="middle" font-size="10" fill="#8c959f" font-family="ui-monospace, SFMono-Regular, 'SF Mono', Menlo, monospace">07-21</text><text x="146.8" y="248" text-anchor="middle" font-size="10" fill="#8c959f" font-family="ui-monospace, SFMono-Regular, 'SF Mono', Menlo, monospace">05-20</text><text x="526.1" y="248" text-anchor="middle" font-size="10" fill="#8c959f" font-family="ui-monospace, SFMono-Regular, 'SF Mono', Menlo, monospace">06-25</text><text x="241.6" y="248" text-anchor="middle" font-size="10" fill="#8c959f" font-family="ui-monospace, SFMono-Regular, 'SF Mono', Menlo, monospace">05-29</text><text x="620.9" y="248" text-anchor="middle" font-size="10" fill="#8c959f" font-family="ui-monospace, SFMono-Regular, 'SF Mono', Menlo, monospace">07-04</text><text x="336.5" y="248" text-anchor="middle" font-size="10" fill="#8c959f" font-family="ui-monospace, SFMono-Regular, 'SF Mono', Menlo, monospace">06-07</text><text x="715.7" y="248" text-anchor="middle" font-size="10" fill="#8c959f" font-family="ui-monospace, SFMono-Regular, 'SF Mono', Menlo, monospace">07-13</text>

  <!-- legend -->
  <rect x="60" y="262" width="16" height="3" fill="#4e79a7" rx="1"/><text x="80" y="268" font-size="11" fill="#57606a" font-family="-apple-system, BlinkMacSystemFont, 'Segoe UI', sans-serif">Total clones (68)</text><line x1="230" y1="264" x2="246" y2="264" stroke="#f28e2b" stroke-width="2" stroke-dasharray="5,3"/><text x="250" y="268" font-size="11" fill="#57606a" font-family="-apple-system, BlinkMacSystemFont, 'Segoe UI', sans-serif">Unique cloners</text>

</svg>