<svg xmlns="http://www.w3.org/2000/svg" viewBox="0 0 820 280" width="820" height="280">

  <!-- title -->
  <text x="52" y="18" font-size="13" font-weight="600"
        fill="#24292f" font-family="-apple-system, BlinkMacSystemFont, 'Segoe UI', sans-serif"
        >Clone traffic — git-lantern</text>
  <text x="800" y="18" font-size="10" fill="#8c959f"
        font-family="ui-monospace, SFMono-Regular, 'SF Mono', Menlo, monospace" text-anchor="end">2026-06-28</text>

  <!-- grid -->
  <line x1="52" y1="232.0" x2="800" y2="232.0" stroke="#e8e8e8" stroke-width="1"/><line x1="52" y1="191.6" x2="800" y2="191.6" stroke="#e8e8e8" stroke-width="1"/><line x1="52" y1="151.2" x2="800" y2="151.2" stroke="#e8e8e8" stroke-width="1"/><line x1="52" y1="110.8" x2="800" y2="110.8" stroke="#e8e8e8" stroke-width="1"/><line x1="52" y1="70.4" x2="800" y2="70.4" stroke="#e8e8e8" stroke-width="1"/><line x1="52" y1="30.0" x2="800" y2="30.0" stroke="#e8e8e8" stroke-width="1"/><line x1="52" y1="-10.4" x2="800" y2="-10.4" stroke="#e8e8e8" stroke-width="1"/>

  <!-- area fill -->
  <path d="M52.0,232.0 L52.0,232.0 L68.3,230.0 L84.5,199.7 L100.8,228.0 L117.0,230.0 L133.3,230.0 L149.6,232.0 L165.8,228.0 L182.1,230.0 L198.3,211.8 L214.6,228.0 L230.9,232.0 L247.1,232.0 L263.4,232.0 L279.7,232.0 L295.9,215.8 L312.2,215.8 L328.4,228.0 L344.7,232.0 L361.0,230.0 L377.2,230.0 L393.5,225.9 L409.7,232.0 L426.0,230.0 L442.3,232.0 L458.5,232.0 L474.8,232.0 L491.0,232.0 L507.3,232.0 L523.6,223.9 L539.8,228.0 L556.1,230.0 L572.3,232.0 L588.6,232.0 L604.9,232.0 L621.1,230.0 L637.4,232.0 L653.7,232.0 L669.9,207.8 L686.2,219.9 L702.4,68.4 L718.7,28.0 L735.0,157.3 L751.2,215.8 L767.5,225.9 L783.7,137.1 L800.0,232.0 L800.0,232.0 L52.0,232.0Z" fill="#4e79a7" opacity="0.12"/>

  <!-- lines -->
  <polyline points="52.0,232.0 68.3,230.0 84.5,199.7 100.8,228.0 117.0,230.0 133.3,230.0 149.6,232.0 165.8,228.0 182.1,230.0 198.3,211.8 214.6,228.0 230.9,232.0 247.1,232.0 263.4,232.0 279.7,232.0 295.9,215.8 312.2,215.8 328.4,228.0 344.7,232.0 361.0,230.0 377.2,230.0 393.5,225.9 409.7,232.0 426.0,230.0 442.3,232.0 458.5,232.0 474.8,232.0 491.0,232.0 507.3,232.0 523.6,223.9 539.8,228.0 556.1,230.0 572.3,232.0 588.6,232.0 604.9,232.0 621.1,230.0 637.4,232.0 653.7,232.0 669.9,207.8 686.2,219.9 702.4,68.4 718.7,28.0 735.0,157.3 751.2,215.8 767.5,225.9 783.7,137.1 800.0,232.0"
            fill="none" stroke="#4e79a7"
            stroke-width="2" stroke-linejoin="round"/>
  <polyline points="52.0,232.0 68.3,230.0 84.5,213.8 100.8,230.0 117.0,230.0 133.3,230.0 149.6,232.0 165.8,230.0 182.1,230.0 198.3,225.9 214.6,228.0 230.9,232.0 247.1,232.0 263.4,232.0 279.7,232.0 295.9,223.9 312.2,223.9 328.4,230.0 344.7,232.0 361.0,230.0 377.2,230.0 393.5,225.9 409.7,232.0 426.0,230.0 442.3,232.0 458.5,232.0 474.8,232.0 491.0,232.0 507.3,232.0 523.6,225.9 539.8,228.0 556.1,230.0 572.3,232.0 588.6,232.0 604.9,232.0 621.1,230.0 637.4,232.0 653.7,232.0 669.9,215.8 686.2,225.9 702.4,171.4 718.7,133.0 735.0,207.8 751.2,228.0 767.5,225.9 783.7,211.8 800.0,232.0"
            fill="none" stroke="#f28e2b"
            stroke-width="2" stroke-linejoin="round"
            stroke-dasharray="5,3"/>

  <!-- dots -->
  <circle cx="52.0" cy="232.0" r="3" fill="#4e79a7"/><circle cx="68.3" cy="230.0" r="3" fill="#4e79a7"/><circle cx="84.5" cy="199.7" r="3" fill="#4e79a7"/><circle cx="100.8" cy="228.0" r="3" fill="#4e79a7"/><circle cx="117.0" cy="230.0" r="3" fill="#4e79a7"/><circle cx="133.3" cy="230.0" r="3" fill="#4e79a7"/><circle cx="149.6" cy="232.0" r="3" fill="#4e79a7"/><circle cx="165.8" cy="228.0" r="3" fill="#4e79a7"/><circle cx="182.1" cy="230.0" r="3" fill="#4e79a7"/><circle cx="198.3" cy="211.8" r="3" fill="#4e79a7"/><circle cx="214.6" cy="228.0" r="3" fill="#4e79a7"/><circle cx="230.9" cy="232.0" r="3" fill="#4e79a7"/><circle cx="247.1" cy="232.0" r="3" fill="#4e79a7"/><circle cx="263.4" cy="232.0" r="3" fill="#4e79a7"/><circle cx="279.7" cy="232.0" r="3" fill="#4e79a7"/><circle cx="295.9" cy="215.8" r="3" fill="#4e79a7"/><circle cx="312.2" cy="215.8" r="3" fill="#4e79a7"/><circle cx="328.4" cy="228.0" r="3" fill="#4e79a7"/><circle cx="344.7" cy="232.0" r="3" fill="#4e79a7"/><circle cx="361.0" cy="230.0" r="3" fill="#4e79a7"/><circle cx="377.2" cy="230.0" r="3" fill="#4e79a7"/><circle cx="393.5" cy="225.9" r="3" fill="#4e79a7"/><circle cx="409.7" cy="232.0" r="3" fill="#4e79a7"/><circle cx="426.0" cy="230.0" r="3" fill="#4e79a7"/><circle cx="442.3" cy="232.0" r="3" fill="#4e79a7"/><circle cx="458.5" cy="232.0" r="3" fill="#4e79a7"/><circle cx="474.8" cy="232.0" r="3" fill="#4e79a7"/><circle cx="491.0" cy="232.0" r="3" fill="#4e79a7"/><circle cx="507.3" cy="232.0" r="3" fill="#4e79a7"/><circle cx="523.6" cy="223.9" r="3" fill="#4e79a7"/><circle cx="539.8" cy="228.0" r="3" fill="#4e79a7"/><circle cx="556.1" cy="230.0" r="3" fill="#4e79a7"/><circle cx="572.3" cy="232.0" r="3" fill="#4e79a7"/><circle cx="588.6" cy="232.0" r="3" fill="#4e79a7"/><circle cx="604.9" cy="232.0" r="3" fill="#4e79a7"/><circle cx="621.1" cy="230.0" r="3" fill="#4e79a7"/><circle cx="637.4" cy="232.0" r="3" fill="#4e79a7"/><circle cx="653.7" cy="232.0" r="3" fill="#4e79a7"/><circle cx="669.9" cy="207.8" r="3" fill="#4e79a7"/><circle cx="686.2" cy="219.9" r="3" fill="#4e79a7"/><circle cx="702.4" cy="68.4" r="3" fill="#4e79a7"/><circle cx="718.7" cy="28.0" r="3" fill="#4e79a7"/><circle cx="735.0" cy="157.3" r="3" fill="#4e79a7"/><circle cx="751.2" cy="215.8" r="3" fill="#4e79a7"/><circle cx="767.5" cy="225.9" r="3" fill="#4e79a7"/><circle cx="783.7" cy="137.1" r="3" fill="#4e79a7"/><circle cx="800.0" cy="232.0" r="3" fill="#4e79a7"/>
  <circle cx="52.0" cy="232.0" r="3" fill="#f28e2b"/><circle cx="68.3" cy="230.0" r="3" fill="#f28e2b"/><circle cx="84.5" cy="213.8" r="3" fill="#f28e2b"/><circle cx="100.8" cy="230.0" r="3" fill="#f28e2b"/><circle cx="117.0" cy="230.0" r="3" fill="#f28e2b"/><circle cx="133.3" cy="230.0" r="3" fill="#f28e2b"/><circle cx="149.6" cy="232.0" r="3" fill="#f28e2b"/><circle cx="165.8" cy="230.0" r="3" fill="#f28e2b"/><circle cx="182.1" cy="230.0" r="3" fill="#f28e2b"/><circle cx="198.3" cy="225.9" r="3" fill="#f28e2b"/><circle cx="214.6" cy="228.0" r="3" fill="#f28e2b"/><circle cx="230.9" cy="232.0" r="3" fill="#f28e2b"/><circle cx="247.1" cy="232.0" r="3" fill="#f28e2b"/><circle cx="263.4" cy="232.0" r="3" fill="#f28e2b"/><circle cx="279.7" cy="232.0" r="3" fill="#f28e2b"/><circle cx="295.9" cy="223.9" r="3" fill="#f28e2b"/><circle cx="312.2" cy="223.9" r="3" fill="#f28e2b"/><circle cx="328.4" cy="230.0" r="3" fill="#f28e2b"/><circle cx="344.7" cy="232.0" r="3" fill="#f28e2b"/><circle cx="361.0" cy="230.0" r="3" fill="#f28e2b"/><circle cx="377.2" cy="230.0" r="3" fill="#f28e2b"/><circle cx="393.5" cy="225.9" r="3" fill="#f28e2b"/><circle cx="409.7" cy="232.0" r="3" fill="#f28e2b"/><circle cx="426.0" cy="230.0" r="3" fill="#f28e2b"/><circle cx="442.3" cy="232.0" r="3" fill="#f28e2b"/><circle cx="458.5" cy="232.0" r="3" fill="#f28e2b"/><circle cx="474.8" cy="232.0" r="3" fill="#f28e2b"/><circle cx="491.0" cy="232.0" r="3" fill="#f28e2b"/><circle cx="507.3" cy="232.0" r="3" fill="#f28e2b"/><circle cx="523.6" cy="225.9" r="3" fill="#f28e2b"/><circle cx="539.8" cy="228.0" r="3" fill="#f28e2b"/><circle cx="556.1" cy="230.0" r="3" fill="#f28e2b"/><circle cx="572.3" cy="232.0" r="3" fill="#f28e2b"/><circle cx="588.6" cy="232.0" r="3" fill="#f28e2b"/><circle cx="604.9" cy="232.0" r="3" fill="#f28e2b"/><circle cx="621.1" cy="230.0" r="3" fill="#f28e2b"/><circle cx="637.4" cy="232.0" r="3" fill="#f28e2b"/><circle cx="653.7" cy="232.0" r="3" fill="#f28e2b"/><circle cx="669.9" cy="215.8" r="3" fill="#f28e2b"/><circle cx="686.2" cy="225.9" r="3" fill="#f28e2b"/><circle cx="702.4" cy="171.4" r="3" fill="#f28e2b"/><circle cx="718.7" cy="133.0" r="3" fill="#f28e2b"/><circle cx="735.0" cy="207.8" r="3" fill="#f28e2b"/><circle cx="751.2" cy="228.0" r="3" fill="#f28e2b"/><circle cx="767.5" cy="225.9" r="3" fill="#f28e2b"/><circle cx="783.7" cy="211.8" r="3" fill="#f28e2b"/><circle cx="800.0" cy="232.0" r="3" fill="#f28e2b"/>

  <!-- axes -->
  <line x1="52" y1="28" x2="52" y2="232"
        stroke="#cccccc" stroke-width="1"/>
  <line x1="52" y1="232" x2="800" y2="232"
        stroke="#cccccc" stroke-width="1"/>

  <!-- y-axis labels -->
  <text x="47" y="236.0" text-anchor="end" font-size="10" fill="#57606a" font-family="ui-monospace, SFMono-Regular, 'SF Mono', Menlo, monospace">0</text><text x="47" y="195.6" text-anchor="end" font-size="10" fill="#57606a" font-family="ui-monospace, SFMono-Regular, 'SF Mono', Menlo, monospace">20</text><text x="47" y="155.2" text-anchor="end" font-size="10" fill="#57606a" font-family="ui-monospace, SFMono-Regular, 'SF Mono', Menlo, monospace">40</text><text x="47" y="114.8" text-anchor="end" font-size="10" fill="#57606a" font-family="ui-monospace, SFMono-Regular, 'SF Mono', Menlo, monospace">60</text><text x="47" y="74.4" text-anchor="end" font-size="10" fill="#57606a" font-family="ui-monospace, SFMono-Regular, 'SF Mono', Menlo, monospace">80</text><text x="47" y="34.0" text-anchor="end" font-size="10" fill="#57606a" font-family="ui-monospace, SFMono-Regular, 'SF Mono', Menlo, monospace">100</text><text x="47" y="-6.4" text-anchor="end" font-size="10" fill="#57606a" font-family="ui-monospace, SFMono-Regular, 'SF Mono', Menlo, monospace">120</text>

  <!-- x-axis labels -->
  <text x="52.0" y="248" text-anchor="middle" font-size="10" fill="#8c959f" font-family="ui-monospace, SFMono-Regular, 'SF Mono', Menlo, monospace">05-11</text><text x="621.1" y="248" text-anchor="middle" font-size="10" fill="#8c959f" font-family="ui-monospace, SFMono-Regular, 'SF Mono', Menlo, monospace">06-15</text><text x="133.3" y="248" text-anchor="middle" font-size="10" fill="#8c959f" font-family="ui-monospace, SFMono-Regular, 'SF Mono', Menlo, monospace">05-16</text><text x="702.4" y="248" text-anchor="middle" font-size="10" fill="#8c959f" font-family="ui-monospace, SFMono-Regular, 'SF Mono', Menlo, monospace">06-20</text><text x="214.6" y="248" text-anchor="middle" font-size="10" fill="#8c959f" font-family="ui-monospace, SFMono-Regular, 'SF Mono', Menlo, monospace">05-21</text><text x="783.7" y="248" text-anchor="middle" font-size="10" fill="#8c959f" font-family="ui-monospace, SFMono-Regular, 'SF Mono', Menlo, monospace">06-25</text><text x="800.0" y="248" text-anchor="middle" font-size="10" fill="#8c959f" font-family="ui-monospace, SFMono-Regular, 'SF Mono', Menlo, monospace">06-26</text><text x="295.9" y="248" text-anchor="middle" font-size="10" fill="#8c959f" font-family="ui-monospace, SFMono-Regular, 'SF Mono', Menlo, monospace">05-26</text><text x="377.2" y="248" text-anchor="middle" font-size="10" fill="#8c959f" font-family="ui-monospace, SFMono-Regular, 'SF Mono', Menlo, monospace">05-31</text><text x="458.5" y="248" text-anchor="middle" font-size="10" fill="#8c959f" font-family="ui-monospace, SFMono-Regular, 'SF Mono', Menlo, monospace">06-05</text><text x="539.8" y="248" text-anchor="middle" font-size="10" fill="#8c959f" font-family="ui-monospace, SFMono-Regular, 'SF Mono', Menlo, monospace">06-10</text>

  <!-- legend -->
  <rect x="60" y="262" width="16" height="3" fill="#4e79a7" rx="1"/><text x="80" y="268" font-size="11" fill="#57606a" font-family="-apple-system, BlinkMacSystemFont, 'Segoe UI', sans-serif">Total clones (363)</text><line x1="230" y1="264" x2="246" y2="264" stroke="#f28e2b" stroke-width="2" stroke-dasharray="5,3"/><text x="250" y="268" font-size="11" fill="#57606a" font-family="-apple-system, BlinkMacSystemFont, 'Segoe UI', sans-serif">Unique cloners</text>

</svg>