<svg xmlns="http://www.w3.org/2000/svg" viewBox="0 0 820 280" width="820" height="280">

  <!-- title -->
  <text x="52" y="18" font-size="13" font-weight="600"
        fill="#24292f" font-family="-apple-system, BlinkMacSystemFont, 'Segoe UI', sans-serif"
        >Clone traffic — git-lantern</text>
  <text x="800" y="18" font-size="10" fill="#8c959f"
        font-family="ui-monospace, SFMono-Regular, 'SF Mono', Menlo, monospace" text-anchor="end">2026-07-03</text>

  <!-- grid -->
  <line x1="52" y1="232.0" x2="800" y2="232.0" stroke="#e8e8e8" stroke-width="1"/><line x1="52" y1="191.6" x2="800" y2="191.6" stroke="#e8e8e8" stroke-width="1"/><line x1="52" y1="151.2" x2="800" y2="151.2" stroke="#e8e8e8" stroke-width="1"/><line x1="52" y1="110.8" x2="800" y2="110.8" stroke="#e8e8e8" stroke-width="1"/><line x1="52" y1="70.4" x2="800" y2="70.4" stroke="#e8e8e8" stroke-width="1"/><line x1="52" y1="30.0" x2="800" y2="30.0" stroke="#e8e8e8" stroke-width="1"/><line x1="52" y1="-10.4" x2="800" y2="-10.4" stroke="#e8e8e8" stroke-width="1"/>

  <!-- area fill -->
  <path d="M52.0,232.0 L52.0,232.0 L66.7,230.0 L81.3,199.7 L96.0,228.0 L110.7,230.0 L125.3,230.0 L140.0,232.0 L154.7,228.0 L169.3,230.0 L184.0,211.8 L198.7,228.0 L213.3,232.0 L228.0,232.0 L242.7,232.0 L257.3,232.0 L272.0,215.8 L286.7,215.8 L301.3,228.0 L316.0,232.0 L330.7,230.0 L345.3,230.0 L360.0,225.9 L374.7,232.0 L389.3,230.0 L404.0,232.0 L418.7,232.0 L433.3,232.0 L448.0,232.0 L462.7,232.0 L477.3,223.9 L492.0,228.0 L506.7,230.0 L521.3,232.0 L536.0,232.0 L550.7,232.0 L565.3,230.0 L580.0,232.0 L594.7,232.0 L609.3,207.8 L624.0,219.9 L638.7,68.4 L653.3,28.0 L668.0,157.3 L682.7,215.8 L697.3,225.9 L712.0,137.1 L726.7,232.0 L741.3,219.9 L756.0,232.0 L770.7,232.0 L785.3,225.9 L800.0,232.0 L800.0,232.0 L52.0,232.0Z" fill="#4e79a7" opacity="0.12"/>

  <!-- lines -->
  <polyline points="52.0,232.0 66.7,230.0 81.3,199.7 96.0,228.0 110.7,230.0 125.3,230.0 140.0,232.0 154.7,228.0 169.3,230.0 184.0,211.8 198.7,228.0 213.3,232.0 228.0,232.0 242.7,232.0 257.3,232.0 272.0,215.8 286.7,215.8 301.3,228.0 316.0,232.0 330.7,230.0 345.3,230.0 360.0,225.9 374.7,232.0 389.3,230.0 404.0,232.0 418.7,232.0 433.3,232.0 448.0,232.0 462.7,232.0 477.3,223.9 492.0,228.0 506.7,230.0 521.3,232.0 536.0,232.0 550.7,232.0 565.3,230.0 580.0,232.0 594.7,232.0 609.3,207.8 624.0,219.9 638.7,68.4 653.3,28.0 668.0,157.3 682.7,215.8 697.3,225.9 712.0,137.1 726.7,232.0 741.3,219.9 756.0,232.0 770.7,232.0 785.3,225.9 800.0,232.0"
            fill="none" stroke="#4e79a7"
            stroke-width="2" stroke-linejoin="round"/>
  <polyline points="52.0,232.0 66.7,230.0 81.3,213.8 96.0,230.0 110.7,230.0 125.3,230.0 140.0,232.0 154.7,230.0 169.3,230.0 184.0,225.9 198.7,228.0 213.3,232.0 228.0,232.0 242.7,232.0 257.3,232.0 272.0,223.9 286.7,223.9 301.3,230.0 316.0,232.0 330.7,230.0 345.3,230.0 360.0,225.9 374.7,232.0 389.3,230.0 404.0,232.0 418.7,232.0 433.3,232.0 448.0,232.0 462.7,232.0 477.3,225.9 492.0,228.0 506.7,230.0 521.3,232.0 536.0,232.0 550.7,232.0 565.3,230.0 580.0,232.0 594.7,232.0 609.3,215.8 624.0,225.9 638.7,171.4 653.3,133.0 668.0,207.8 682.7,228.0 697.3,225.9 712.0,211.8 726.7,232.0 741.3,230.0 756.0,232.0 770.7,232.0 785.3,225.9 800.0,232.0"
            fill="none" stroke="#f28e2b"
            stroke-width="2" stroke-linejoin="round"
            stroke-dasharray="5,3"/>

  <!-- dots -->
  <circle cx="52.0" cy="232.0" r="3" fill="#4e79a7"/><circle cx="66.7" cy="230.0" r="3" fill="#4e79a7"/><circle cx="81.3" cy="199.7" r="3" fill="#4e79a7"/><circle cx="96.0" cy="228.0" r="3" fill="#4e79a7"/><circle cx="110.7" cy="230.0" r="3" fill="#4e79a7"/><circle cx="125.3" cy="230.0" r="3" fill="#4e79a7"/><circle cx="140.0" cy="232.0" r="3" fill="#4e79a7"/><circle cx="154.7" cy="228.0" r="3" fill="#4e79a7"/><circle cx="169.3" cy="230.0" r="3" fill="#4e79a7"/><circle cx="184.0" cy="211.8" r="3" fill="#4e79a7"/><circle cx="198.7" cy="228.0" r="3" fill="#4e79a7"/><circle cx="213.3" cy="232.0" r="3" fill="#4e79a7"/><circle cx="228.0" cy="232.0" r="3" fill="#4e79a7"/><circle cx="242.7" cy="232.0" r="3" fill="#4e79a7"/><circle cx="257.3" cy="232.0" r="3" fill="#4e79a7"/><circle cx="272.0" cy="215.8" r="3" fill="#4e79a7"/><circle cx="286.7" cy="215.8" r="3" fill="#4e79a7"/><circle cx="301.3" cy="228.0" r="3" fill="#4e79a7"/><circle cx="316.0" cy="232.0" r="3" fill="#4e79a7"/><circle cx="330.7" cy="230.0" r="3" fill="#4e79a7"/><circle cx="345.3" cy="230.0" r="3" fill="#4e79a7"/><circle cx="360.0" cy="225.9" r="3" fill="#4e79a7"/><circle cx="374.7" cy="232.0" r="3" fill="#4e79a7"/><circle cx="389.3" cy="230.0" r="3" fill="#4e79a7"/><circle cx="404.0" cy="232.0" r="3" fill="#4e79a7"/><circle cx="418.7" cy="232.0" r="3" fill="#4e79a7"/><circle cx="433.3" cy="232.0" r="3" fill="#4e79a7"/><circle cx="448.0" cy="232.0" r="3" fill="#4e79a7"/><circle cx="462.7" cy="232.0" r="3" fill="#4e79a7"/><circle cx="477.3" cy="223.9" r="3" fill="#4e79a7"/><circle cx="492.0" cy="228.0" r="3" fill="#4e79a7"/><circle cx="506.7" cy="230.0" r="3" fill="#4e79a7"/><circle cx="521.3" cy="232.0" r="3" fill="#4e79a7"/><circle cx="536.0" cy="232.0" r="3" fill="#4e79a7"/><circle cx="550.7" cy="232.0" r="3" fill="#4e79a7"/><circle cx="565.3" cy="230.0" r="3" fill="#4e79a7"/><circle cx="580.0" cy="232.0" r="3" fill="#4e79a7"/><circle cx="594.7" cy="232.0" r="3" fill="#4e79a7"/><circle cx="609.3" cy="207.8" r="3" fill="#4e79a7"/><circle cx="624.0" cy="219.9" r="3" fill="#4e79a7"/><circle cx="638.7" cy="68.4" r="3" fill="#4e79a7"/><circle cx="653.3" cy="28.0" r="3" fill="#4e79a7"/><circle cx="668.0" cy="157.3" r="3" fill="#4e79a7"/><circle cx="682.7" cy="215.8" r="3" fill="#4e79a7"/><circle cx="697.3" cy="225.9" r="3" fill="#4e79a7"/><circle cx="712.0" cy="137.1" r="3" fill="#4e79a7"/><circle cx="726.7" cy="232.0" r="3" fill="#4e79a7"/><circle cx="741.3" cy="219.9" r="3" fill="#4e79a7"/><circle cx="756.0" cy="232.0" r="3" fill="#4e79a7"/><circle cx="770.7" cy="232.0" r="3" fill="#4e79a7"/><circle cx="785.3" cy="225.9" r="3" fill="#4e79a7"/><circle cx="800.0" cy="232.0" r="3" fill="#4e79a7"/>
  <circle cx="52.0" cy="232.0" r="3" fill="#f28e2b"/><circle cx="66.7" cy="230.0" r="3" fill="#f28e2b"/><circle cx="81.3" cy="213.8" r="3" fill="#f28e2b"/><circle cx="96.0" cy="230.0" r="3" fill="#f28e2b"/><circle cx="110.7" cy="230.0" r="3" fill="#f28e2b"/><circle cx="125.3" cy="230.0" r="3" fill="#f28e2b"/><circle cx="140.0" cy="232.0" r="3" fill="#f28e2b"/><circle cx="154.7" cy="230.0" r="3" fill="#f28e2b"/><circle cx="169.3" cy="230.0" r="3" fill="#f28e2b"/><circle cx="184.0" cy="225.9" r="3" fill="#f28e2b"/><circle cx="198.7" cy="228.0" r="3" fill="#f28e2b"/><circle cx="213.3" cy="232.0" r="3" fill="#f28e2b"/><circle cx="228.0" cy="232.0" r="3" fill="#f28e2b"/><circle cx="242.7" cy="232.0" r="3" fill="#f28e2b"/><circle cx="257.3" cy="232.0" r="3" fill="#f28e2b"/><circle cx="272.0" cy="223.9" r="3" fill="#f28e2b"/><circle cx="286.7" cy="223.9" r="3" fill="#f28e2b"/><circle cx="301.3" cy="230.0" r="3" fill="#f28e2b"/><circle cx="316.0" cy="232.0" r="3" fill="#f28e2b"/><circle cx="330.7" cy="230.0" r="3" fill="#f28e2b"/><circle cx="345.3" cy="230.0" r="3" fill="#f28e2b"/><circle cx="360.0" cy="225.9" r="3" fill="#f28e2b"/><circle cx="374.7" cy="232.0" r="3" fill="#f28e2b"/><circle cx="389.3" cy="230.0" r="3" fill="#f28e2b"/><circle cx="404.0" cy="232.0" r="3" fill="#f28e2b"/><circle cx="418.7" cy="232.0" r="3" fill="#f28e2b"/><circle cx="433.3" cy="232.0" r="3" fill="#f28e2b"/><circle cx="448.0" cy="232.0" r="3" fill="#f28e2b"/><circle cx="462.7" cy="232.0" r="3" fill="#f28e2b"/><circle cx="477.3" cy="225.9" r="3" fill="#f28e2b"/><circle cx="492.0" cy="228.0" r="3" fill="#f28e2b"/><circle cx="506.7" cy="230.0" r="3" fill="#f28e2b"/><circle cx="521.3" cy="232.0" r="3" fill="#f28e2b"/><circle cx="536.0" cy="232.0" r="3" fill="#f28e2b"/><circle cx="550.7" cy="232.0" r="3" fill="#f28e2b"/><circle cx="565.3" cy="230.0" r="3" fill="#f28e2b"/><circle cx="580.0" cy="232.0" r="3" fill="#f28e2b"/><circle cx="594.7" cy="232.0" r="3" fill="#f28e2b"/><circle cx="609.3" cy="215.8" r="3" fill="#f28e2b"/><circle cx="624.0" cy="225.9" r="3" fill="#f28e2b"/><circle cx="638.7" cy="171.4" r="3" fill="#f28e2b"/><circle cx="653.3" cy="133.0" r="3" fill="#f28e2b"/><circle cx="668.0" cy="207.8" r="3" fill="#f28e2b"/><circle cx="682.7" cy="228.0" r="3" fill="#f28e2b"/><circle cx="697.3" cy="225.9" r="3" fill="#f28e2b"/><circle cx="712.0" cy="211.8" r="3" fill="#f28e2b"/><circle cx="726.7" cy="232.0" r="3" fill="#f28e2b"/><circle cx="741.3" cy="230.0" r="3" fill="#f28e2b"/><circle cx="756.0" cy="232.0" r="3" fill="#f28e2b"/><circle cx="770.7" cy="232.0" r="3" fill="#f28e2b"/><circle cx="785.3" cy="225.9" r="3" fill="#f28e2b"/><circle cx="800.0" cy="232.0" r="3" fill="#f28e2b"/>

  <!-- axes -->
  <line x1="52" y1="28" x2="52" y2="232"
        stroke="#cccccc" stroke-width="1"/>
  <line x1="52" y1="232" x2="800" y2="232"
        stroke="#cccccc" stroke-width="1"/>

  <!-- y-axis labels -->
  <text x="47" y="236.0" text-anchor="end" font-size="10" fill="#57606a" font-family="ui-monospace, SFMono-Regular, 'SF Mono', Menlo, monospace">0</text><text x="47" y="195.6" text-anchor="end" font-size="10" fill="#57606a" font-family="ui-monospace, SFMono-Regular, 'SF Mono', Menlo, monospace">20</text><text x="47" y="155.2" text-anchor="end" font-size="10" fill="#57606a" font-family="ui-monospace, SFMono-Regular, 'SF Mono', Menlo, monospace">40</text><text x="47" y="114.8" text-anchor="end" font-size="10" fill="#57606a" font-family="ui-monospace, SFMono-Regular, 'SF Mono', Menlo, monospace">60</text><text x="47" y="74.4" text-anchor="end" font-size="10" fill="#57606a" font-family="ui-monospace, SFMono-Regular, 'SF Mono', Menlo, monospace">80</text><text x="47" y="34.0" text-anchor="end" font-size="10" fill="#57606a" font-family="ui-monospace, SFMono-Regular, 'SF Mono', Menlo, monospace">100</text><text x="47" y="-6.4" text-anchor="end" font-size="10" fill="#57606a" font-family="ui-monospace, SFMono-Regular, 'SF Mono', Menlo, monospace">120</text>

  <!-- x-axis labels -->
  <text x="52.0" y="248" text-anchor="middle" font-size="10" fill="#8c959f" font-family="ui-monospace, SFMono-Regular, 'SF Mono', Menlo, monospace">05-11</text><text x="580.0" y="248" text-anchor="middle" font-size="10" fill="#8c959f" font-family="ui-monospace, SFMono-Regular, 'SF Mono', Menlo, monospace">06-16</text><text x="140.0" y="248" text-anchor="middle" font-size="10" fill="#8c959f" font-family="ui-monospace, SFMono-Regular, 'SF Mono', Menlo, monospace">05-17</text><text x="668.0" y="248" text-anchor="middle" font-size="10" fill="#8c959f" font-family="ui-monospace, SFMono-Regular, 'SF Mono', Menlo, monospace">06-22</text><text x="228.0" y="248" text-anchor="middle" font-size="10" fill="#8c959f" font-family="ui-monospace, SFMono-Regular, 'SF Mono', Menlo, monospace">05-23</text><text x="756.0" y="248" text-anchor="middle" font-size="10" fill="#8c959f" font-family="ui-monospace, SFMono-Regular, 'SF Mono', Menlo, monospace">06-28</text><text x="316.0" y="248" text-anchor="middle" font-size="10" fill="#8c959f" font-family="ui-monospace, SFMono-Regular, 'SF Mono', Menlo, monospace">05-29</text><text x="800.0" y="248" text-anchor="middle" font-size="10" fill="#8c959f" font-family="ui-monospace, SFMono-Regular, 'SF Mono', Menlo, monospace">07-01</text><text x="404.0" y="248" text-anchor="middle" font-size="10" fill="#8c959f" font-family="ui-monospace, SFMono-Regular, 'SF Mono', Menlo, monospace">06-04</text><text x="492.0" y="248" text-anchor="middle" font-size="10" fill="#8c959f" font-family="ui-monospace, SFMono-Regular, 'SF Mono', Menlo, monospace">06-10</text>

  <!-- legend -->
  <rect x="60" y="262" width="16" height="3" fill="#4e79a7" rx="1"/><text x="80" y="268" font-size="11" fill="#57606a" font-family="-apple-system, BlinkMacSystemFont, 'Segoe UI', sans-serif">Total clones (372)</text><line x1="230" y1="264" x2="246" y2="264" stroke="#f28e2b" stroke-width="2" stroke-dasharray="5,3"/><text x="250" y="268" font-size="11" fill="#57606a" font-family="-apple-system, BlinkMacSystemFont, 'Segoe UI', sans-serif">Unique cloners</text>

</svg>