<svg xmlns="http://www.w3.org/2000/svg" viewBox="0 0 820 280" width="820" height="280">

  <!-- title -->
  <text x="52" y="18" font-size="13" font-weight="600"
        fill="#24292f" font-family="-apple-system, BlinkMacSystemFont, 'Segoe UI', sans-serif"
        >Clone traffic — git-lantern</text>
  <text x="800" y="18" font-size="10" fill="#8c959f"
        font-family="ui-monospace, SFMono-Regular, 'SF Mono', Menlo, monospace" text-anchor="end">2026-06-04</text>

  <!-- grid -->
  <line x1="52" y1="232.0" x2="800" y2="232.0" stroke="#e8e8e8" stroke-width="1"/><line x1="52" y1="193.8" x2="800" y2="193.8" stroke="#e8e8e8" stroke-width="1"/><line x1="52" y1="155.5" x2="800" y2="155.5" stroke="#e8e8e8" stroke-width="1"/><line x1="52" y1="117.2" x2="800" y2="117.2" stroke="#e8e8e8" stroke-width="1"/><line x1="52" y1="79.0" x2="800" y2="79.0" stroke="#e8e8e8" stroke-width="1"/><line x1="52" y1="40.8" x2="800" y2="40.8" stroke="#e8e8e8" stroke-width="1"/><line x1="52" y1="2.5" x2="800" y2="2.5" stroke="#e8e8e8" stroke-width="1"/>

  <!-- area fill -->
  <path d="M52.0,232.0 L52.0,232.0 L86.0,219.2 L120.0,28.0 L154.0,206.5 L188.0,219.2 L222.0,219.2 L256.0,232.0 L290.0,206.5 L324.0,219.2 L358.0,104.5 L392.0,206.5 L426.0,232.0 L460.0,232.0 L494.0,232.0 L528.0,232.0 L562.0,130.0 L596.0,130.0 L630.0,206.5 L664.0,232.0 L698.0,219.2 L732.0,219.2 L766.0,193.8 L800.0,232.0 L800.0,232.0 L52.0,232.0Z" fill="#4e79a7" opacity="0.12"/>

  <!-- lines -->
  <polyline points="52.0,232.0 86.0,219.2 120.0,28.0 154.0,206.5 188.0,219.2 222.0,219.2 256.0,232.0 290.0,206.5 324.0,219.2 358.0,104.5 392.0,206.5 426.0,232.0 460.0,232.0 494.0,232.0 528.0,232.0 562.0,130.0 596.0,130.0 630.0,206.5 664.0,232.0 698.0,219.2 732.0,219.2 766.0,193.8 800.0,232.0"
            fill="none" stroke="#4e79a7"
            stroke-width="2" stroke-linejoin="round"/>
  <polyline points="52.0,232.0 86.0,219.2 120.0,117.2 154.0,219.2 188.0,219.2 222.0,219.2 256.0,232.0 290.0,219.2 324.0,219.2 358.0,193.8 392.0,206.5 426.0,232.0 460.0,232.0 494.0,232.0 528.0,232.0 562.0,181.0 596.0,181.0 630.0,219.2 664.0,232.0 698.0,219.2 732.0,219.2 766.0,193.8 800.0,232.0"
            fill="none" stroke="#f28e2b"
            stroke-width="2" stroke-linejoin="round"
            stroke-dasharray="5,3"/>

  <!-- dots -->
  <circle cx="52.0" cy="232.0" r="3" fill="#4e79a7"/><circle cx="86.0" cy="219.2" r="3" fill="#4e79a7"/><circle cx="120.0" cy="28.0" r="3" fill="#4e79a7"/><circle cx="154.0" cy="206.5" r="3" fill="#4e79a7"/><circle cx="188.0" cy="219.2" r="3" fill="#4e79a7"/><circle cx="222.0" cy="219.2" r="3" fill="#4e79a7"/><circle cx="256.0" cy="232.0" r="3" fill="#4e79a7"/><circle cx="290.0" cy="206.5" r="3" fill="#4e79a7"/><circle cx="324.0" cy="219.2" r="3" fill="#4e79a7"/><circle cx="358.0" cy="104.5" r="3" fill="#4e79a7"/><circle cx="392.0" cy="206.5" r="3" fill="#4e79a7"/><circle cx="426.0" cy="232.0" r="3" fill="#4e79a7"/><circle cx="460.0" cy="232.0" r="3" fill="#4e79a7"/><circle cx="494.0" cy="232.0" r="3" fill="#4e79a7"/><circle cx="528.0" cy="232.0" r="3" fill="#4e79a7"/><circle cx="562.0" cy="130.0" r="3" fill="#4e79a7"/><circle cx="596.0" cy="130.0" r="3" fill="#4e79a7"/><circle cx="630.0" cy="206.5" r="3" fill="#4e79a7"/><circle cx="664.0" cy="232.0" r="3" fill="#4e79a7"/><circle cx="698.0" cy="219.2" r="3" fill="#4e79a7"/><circle cx="732.0" cy="219.2" r="3" fill="#4e79a7"/><circle cx="766.0" cy="193.8" r="3" fill="#4e79a7"/><circle cx="800.0" cy="232.0" r="3" fill="#4e79a7"/>
  <circle cx="52.0" cy="232.0" r="3" fill="#f28e2b"/><circle cx="86.0" cy="219.2" r="3" fill="#f28e2b"/><circle cx="120.0" cy="117.2" r="3" fill="#f28e2b"/><circle cx="154.0" cy="219.2" r="3" fill="#f28e2b"/><circle cx="188.0" cy="219.2" r="3" fill="#f28e2b"/><circle cx="222.0" cy="219.2" r="3" fill="#f28e2b"/><circle cx="256.0" cy="232.0" r="3" fill="#f28e2b"/><circle cx="290.0" cy="219.2" r="3" fill="#f28e2b"/><circle cx="324.0" cy="219.2" r="3" fill="#f28e2b"/><circle cx="358.0" cy="193.8" r="3" fill="#f28e2b"/><circle cx="392.0" cy="206.5" r="3" fill="#f28e2b"/><circle cx="426.0" cy="232.0" r="3" fill="#f28e2b"/><circle cx="460.0" cy="232.0" r="3" fill="#f28e2b"/><circle cx="494.0" cy="232.0" r="3" fill="#f28e2b"/><circle cx="528.0" cy="232.0" r="3" fill="#f28e2b"/><circle cx="562.0" cy="181.0" r="3" fill="#f28e2b"/><circle cx="596.0" cy="181.0" r="3" fill="#f28e2b"/><circle cx="630.0" cy="219.2" r="3" fill="#f28e2b"/><circle cx="664.0" cy="232.0" r="3" fill="#f28e2b"/><circle cx="698.0" cy="219.2" r="3" fill="#f28e2b"/><circle cx="732.0" cy="219.2" r="3" fill="#f28e2b"/><circle cx="766.0" cy="193.8" r="3" fill="#f28e2b"/><circle cx="800.0" cy="232.0" r="3" fill="#f28e2b"/>

  <!-- axes -->
  <line x1="52" y1="28" x2="52" y2="232"
        stroke="#cccccc" stroke-width="1"/>
  <line x1="52" y1="232" x2="800" y2="232"
        stroke="#cccccc" stroke-width="1"/>

  <!-- y-axis labels -->
  <text x="47" y="236.0" text-anchor="end" font-size="10" fill="#57606a" font-family="ui-monospace, SFMono-Regular, 'SF Mono', Menlo, monospace">0</text><text x="47" y="197.8" text-anchor="end" font-size="10" fill="#57606a" font-family="ui-monospace, SFMono-Regular, 'SF Mono', Menlo, monospace">3</text><text x="47" y="159.5" text-anchor="end" font-size="10" fill="#57606a" font-family="ui-monospace, SFMono-Regular, 'SF Mono', Menlo, monospace">6</text><text x="47" y="121.2" text-anchor="end" font-size="10" fill="#57606a" font-family="ui-monospace, SFMono-Regular, 'SF Mono', Menlo, monospace">9</text><text x="47" y="83.0" text-anchor="end" font-size="10" fill="#57606a" font-family="ui-monospace, SFMono-Regular, 'SF Mono', Menlo, monospace">12</text><text x="47" y="44.8" text-anchor="end" font-size="10" fill="#57606a" font-family="ui-monospace, SFMono-Regular, 'SF Mono', Menlo, monospace">15</text><text x="47" y="6.5" text-anchor="end" font-size="10" fill="#57606a" font-family="ui-monospace, SFMono-Regular, 'SF Mono', Menlo, monospace">18</text>

  <!-- x-axis labels -->
  <text x="52.0" y="248" text-anchor="middle" font-size="10" fill="#8c959f" font-family="ui-monospace, SFMono-Regular, 'SF Mono', Menlo, monospace">05-11</text><text x="120.0" y="248" text-anchor="middle" font-size="10" fill="#8c959f" font-family="ui-monospace, SFMono-Regular, 'SF Mono', Menlo, monospace">05-13</text><text x="188.0" y="248" text-anchor="middle" font-size="10" fill="#8c959f" font-family="ui-monospace, SFMono-Regular, 'SF Mono', Menlo, monospace">05-15</text><text x="256.0" y="248" text-anchor="middle" font-size="10" fill="#8c959f" font-family="ui-monospace, SFMono-Regular, 'SF Mono', Menlo, monospace">05-17</text><text x="324.0" y="248" text-anchor="middle" font-size="10" fill="#8c959f" font-family="ui-monospace, SFMono-Regular, 'SF Mono', Menlo, monospace">05-19</text><text x="392.0" y="248" text-anchor="middle" font-size="10" fill="#8c959f" font-family="ui-monospace, SFMono-Regular, 'SF Mono', Menlo, monospace">05-21</text><text x="460.0" y="248" text-anchor="middle" font-size="10" fill="#8c959f" font-family="ui-monospace, SFMono-Regular, 'SF Mono', Menlo, monospace">05-23</text><text x="528.0" y="248" text-anchor="middle" font-size="10" fill="#8c959f" font-family="ui-monospace, SFMono-Regular, 'SF Mono', Menlo, monospace">05-25</text><text x="596.0" y="248" text-anchor="middle" font-size="10" fill="#8c959f" font-family="ui-monospace, SFMono-Regular, 'SF Mono', Menlo, monospace">05-27</text><text x="664.0" y="248" text-anchor="middle" font-size="10" fill="#8c959f" font-family="ui-monospace, SFMono-Regular, 'SF Mono', Menlo, monospace">05-29</text><text x="732.0" y="248" text-anchor="middle" font-size="10" fill="#8c959f" font-family="ui-monospace, SFMono-Regular, 'SF Mono', Menlo, monospace">05-31</text><text x="800.0" y="248" text-anchor="middle" font-size="10" fill="#8c959f" font-family="ui-monospace, SFMono-Regular, 'SF Mono', Menlo, monospace">06-02</text>

  <!-- legend -->
  <rect x="60" y="262" width="16" height="3" fill="#4e79a7" rx="1"/><text x="80" y="268" font-size="11" fill="#57606a" font-family="-apple-system, BlinkMacSystemFont, 'Segoe UI', sans-serif">Total clones (59)</text><line x1="230" y1="264" x2="246" y2="264" stroke="#f28e2b" stroke-width="2" stroke-dasharray="5,3"/><text x="250" y="268" font-size="11" fill="#57606a" font-family="-apple-system, BlinkMacSystemFont, 'Segoe UI', sans-serif">Unique cloners</text>

</svg>