<svg xmlns="http://www.w3.org/2000/svg" viewBox="0 0 820 280" width="820" height="280">

  <!-- title -->
  <text x="52" y="18" font-size="13" font-weight="600"
        fill="#24292f" font-family="-apple-system, BlinkMacSystemFont, 'Segoe UI', sans-serif"
        >Clone traffic — git-lantern</text>
  <text x="800" y="18" font-size="10" fill="#8c959f"
        font-family="ui-monospace, SFMono-Regular, 'SF Mono', Menlo, monospace" text-anchor="end">2026-06-14</text>

  <!-- grid -->
  <line x1="52" y1="232.0" x2="800" y2="232.0" stroke="#e8e8e8" stroke-width="1"/><line x1="52" y1="193.8" x2="800" y2="193.8" stroke="#e8e8e8" stroke-width="1"/><line x1="52" y1="155.5" x2="800" y2="155.5" stroke="#e8e8e8" stroke-width="1"/><line x1="52" y1="117.2" x2="800" y2="117.2" stroke="#e8e8e8" stroke-width="1"/><line x1="52" y1="79.0" x2="800" y2="79.0" stroke="#e8e8e8" stroke-width="1"/><line x1="52" y1="40.8" x2="800" y2="40.8" stroke="#e8e8e8" stroke-width="1"/><line x1="52" y1="2.5" x2="800" y2="2.5" stroke="#e8e8e8" stroke-width="1"/>

  <!-- area fill -->
  <path d="M52.0,232.0 L52.0,232.0 L75.4,219.2 L98.8,28.0 L122.1,206.5 L145.5,219.2 L168.9,219.2 L192.2,232.0 L215.6,206.5 L239.0,219.2 L262.4,104.5 L285.8,206.5 L309.1,232.0 L332.5,232.0 L355.9,232.0 L379.2,232.0 L402.6,130.0 L426.0,130.0 L449.4,206.5 L472.8,232.0 L496.1,219.2 L519.5,219.2 L542.9,193.8 L566.2,232.0 L589.6,219.2 L613.0,232.0 L636.4,232.0 L659.8,232.0 L683.1,232.0 L706.5,232.0 L729.9,181.0 L753.2,206.5 L776.6,219.2 L800.0,232.0 L800.0,232.0 L52.0,232.0Z" fill="#4e79a7" opacity="0.12"/>

  <!-- lines -->
  <polyline points="52.0,232.0 75.4,219.2 98.8,28.0 122.1,206.5 145.5,219.2 168.9,219.2 192.2,232.0 215.6,206.5 239.0,219.2 262.4,104.5 285.8,206.5 309.1,232.0 332.5,232.0 355.9,232.0 379.2,232.0 402.6,130.0 426.0,130.0 449.4,206.5 472.8,232.0 496.1,219.2 519.5,219.2 542.9,193.8 566.2,232.0 589.6,219.2 613.0,232.0 636.4,232.0 659.8,232.0 683.1,232.0 706.5,232.0 729.9,181.0 753.2,206.5 776.6,219.2 800.0,232.0"
            fill="none" stroke="#4e79a7"
            stroke-width="2" stroke-linejoin="round"/>
  <polyline points="52.0,232.0 75.4,219.2 98.8,117.2 122.1,219.2 145.5,219.2 168.9,219.2 192.2,232.0 215.6,219.2 239.0,219.2 262.4,193.8 285.8,206.5 309.1,232.0 332.5,232.0 355.9,232.0 379.2,232.0 402.6,181.0 426.0,181.0 449.4,219.2 472.8,232.0 496.1,219.2 519.5,219.2 542.9,193.8 566.2,232.0 589.6,219.2 613.0,232.0 636.4,232.0 659.8,232.0 683.1,232.0 706.5,232.0 729.9,193.8 753.2,206.5 776.6,219.2 800.0,232.0"
            fill="none" stroke="#f28e2b"
            stroke-width="2" stroke-linejoin="round"
            stroke-dasharray="5,3"/>

  <!-- dots -->
  <circle cx="52.0" cy="232.0" r="3" fill="#4e79a7"/><circle cx="75.4" cy="219.2" r="3" fill="#4e79a7"/><circle cx="98.8" cy="28.0" r="3" fill="#4e79a7"/><circle cx="122.1" cy="206.5" r="3" fill="#4e79a7"/><circle cx="145.5" cy="219.2" r="3" fill="#4e79a7"/><circle cx="168.9" cy="219.2" r="3" fill="#4e79a7"/><circle cx="192.2" cy="232.0" r="3" fill="#4e79a7"/><circle cx="215.6" cy="206.5" r="3" fill="#4e79a7"/><circle cx="239.0" cy="219.2" r="3" fill="#4e79a7"/><circle cx="262.4" cy="104.5" r="3" fill="#4e79a7"/><circle cx="285.8" cy="206.5" r="3" fill="#4e79a7"/><circle cx="309.1" cy="232.0" r="3" fill="#4e79a7"/><circle cx="332.5" cy="232.0" r="3" fill="#4e79a7"/><circle cx="355.9" cy="232.0" r="3" fill="#4e79a7"/><circle cx="379.2" cy="232.0" r="3" fill="#4e79a7"/><circle cx="402.6" cy="130.0" r="3" fill="#4e79a7"/><circle cx="426.0" cy="130.0" r="3" fill="#4e79a7"/><circle cx="449.4" cy="206.5" r="3" fill="#4e79a7"/><circle cx="472.8" cy="232.0" r="3" fill="#4e79a7"/><circle cx="496.1" cy="219.2" r="3" fill="#4e79a7"/><circle cx="519.5" cy="219.2" r="3" fill="#4e79a7"/><circle cx="542.9" cy="193.8" r="3" fill="#4e79a7"/><circle cx="566.2" cy="232.0" r="3" fill="#4e79a7"/><circle cx="589.6" cy="219.2" r="3" fill="#4e79a7"/><circle cx="613.0" cy="232.0" r="3" fill="#4e79a7"/><circle cx="636.4" cy="232.0" r="3" fill="#4e79a7"/><circle cx="659.8" cy="232.0" r="3" fill="#4e79a7"/><circle cx="683.1" cy="232.0" r="3" fill="#4e79a7"/><circle cx="706.5" cy="232.0" r="3" fill="#4e79a7"/><circle cx="729.9" cy="181.0" r="3" fill="#4e79a7"/><circle cx="753.2" cy="206.5" r="3" fill="#4e79a7"/><circle cx="776.6" cy="219.2" r="3" fill="#4e79a7"/><circle cx="800.0" cy="232.0" r="3" fill="#4e79a7"/>
  <circle cx="52.0" cy="232.0" r="3" fill="#f28e2b"/><circle cx="75.4" cy="219.2" r="3" fill="#f28e2b"/><circle cx="98.8" cy="117.2" r="3" fill="#f28e2b"/><circle cx="122.1" cy="219.2" r="3" fill="#f28e2b"/><circle cx="145.5" cy="219.2" r="3" fill="#f28e2b"/><circle cx="168.9" cy="219.2" r="3" fill="#f28e2b"/><circle cx="192.2" cy="232.0" r="3" fill="#f28e2b"/><circle cx="215.6" cy="219.2" r="3" fill="#f28e2b"/><circle cx="239.0" cy="219.2" r="3" fill="#f28e2b"/><circle cx="262.4" cy="193.8" r="3" fill="#f28e2b"/><circle cx="285.8" cy="206.5" r="3" fill="#f28e2b"/><circle cx="309.1" cy="232.0" r="3" fill="#f28e2b"/><circle cx="332.5" cy="232.0" r="3" fill="#f28e2b"/><circle cx="355.9" cy="232.0" r="3" fill="#f28e2b"/><circle cx="379.2" cy="232.0" r="3" fill="#f28e2b"/><circle cx="402.6" cy="181.0" r="3" fill="#f28e2b"/><circle cx="426.0" cy="181.0" r="3" fill="#f28e2b"/><circle cx="449.4" cy="219.2" r="3" fill="#f28e2b"/><circle cx="472.8" cy="232.0" r="3" fill="#f28e2b"/><circle cx="496.1" cy="219.2" r="3" fill="#f28e2b"/><circle cx="519.5" cy="219.2" r="3" fill="#f28e2b"/><circle cx="542.9" cy="193.8" r="3" fill="#f28e2b"/><circle cx="566.2" cy="232.0" r="3" fill="#f28e2b"/><circle cx="589.6" cy="219.2" r="3" fill="#f28e2b"/><circle cx="613.0" cy="232.0" r="3" fill="#f28e2b"/><circle cx="636.4" cy="232.0" r="3" fill="#f28e2b"/><circle cx="659.8" cy="232.0" r="3" fill="#f28e2b"/><circle cx="683.1" cy="232.0" r="3" fill="#f28e2b"/><circle cx="706.5" cy="232.0" r="3" fill="#f28e2b"/><circle cx="729.9" cy="193.8" r="3" fill="#f28e2b"/><circle cx="753.2" cy="206.5" r="3" fill="#f28e2b"/><circle cx="776.6" cy="219.2" r="3" fill="#f28e2b"/><circle cx="800.0" cy="232.0" r="3" fill="#f28e2b"/>

  <!-- axes -->
  <line x1="52" y1="28" x2="52" y2="232"
        stroke="#cccccc" stroke-width="1"/>
  <line x1="52" y1="232" x2="800" y2="232"
        stroke="#cccccc" stroke-width="1"/>

  <!-- y-axis labels -->
  <text x="47" y="236.0" text-anchor="end" font-size="10" fill="#57606a" font-family="ui-monospace, SFMono-Regular, 'SF Mono', Menlo, monospace">0</text><text x="47" y="197.8" text-anchor="end" font-size="10" fill="#57606a" font-family="ui-monospace, SFMono-Regular, 'SF Mono', Menlo, monospace">3</text><text x="47" y="159.5" text-anchor="end" font-size="10" fill="#57606a" font-family="ui-monospace, SFMono-Regular, 'SF Mono', Menlo, monospace">6</text><text x="47" y="121.2" text-anchor="end" font-size="10" fill="#57606a" font-family="ui-monospace, SFMono-Regular, 'SF Mono', Menlo, monospace">9</text><text x="47" y="83.0" text-anchor="end" font-size="10" fill="#57606a" font-family="ui-monospace, SFMono-Regular, 'SF Mono', Menlo, monospace">12</text><text x="47" y="44.8" text-anchor="end" font-size="10" fill="#57606a" font-family="ui-monospace, SFMono-Regular, 'SF Mono', Menlo, monospace">15</text><text x="47" y="6.5" text-anchor="end" font-size="10" fill="#57606a" font-family="ui-monospace, SFMono-Regular, 'SF Mono', Menlo, monospace">18</text>

  <!-- x-axis labels -->
  <text x="52.0" y="248" text-anchor="middle" font-size="10" fill="#8c959f" font-family="ui-monospace, SFMono-Regular, 'SF Mono', Menlo, monospace">05-11</text><text x="800.0" y="248" text-anchor="middle" font-size="10" fill="#8c959f" font-family="ui-monospace, SFMono-Regular, 'SF Mono', Menlo, monospace">06-12</text><text x="145.5" y="248" text-anchor="middle" font-size="10" fill="#8c959f" font-family="ui-monospace, SFMono-Regular, 'SF Mono', Menlo, monospace">05-15</text><text x="239.0" y="248" text-anchor="middle" font-size="10" fill="#8c959f" font-family="ui-monospace, SFMono-Regular, 'SF Mono', Menlo, monospace">05-19</text><text x="332.5" y="248" text-anchor="middle" font-size="10" fill="#8c959f" font-family="ui-monospace, SFMono-Regular, 'SF Mono', Menlo, monospace">05-23</text><text x="426.0" y="248" text-anchor="middle" font-size="10" fill="#8c959f" font-family="ui-monospace, SFMono-Regular, 'SF Mono', Menlo, monospace">05-27</text><text x="519.5" y="248" text-anchor="middle" font-size="10" fill="#8c959f" font-family="ui-monospace, SFMono-Regular, 'SF Mono', Menlo, monospace">05-31</text><text x="613.0" y="248" text-anchor="middle" font-size="10" fill="#8c959f" font-family="ui-monospace, SFMono-Regular, 'SF Mono', Menlo, monospace">06-04</text><text x="706.5" y="248" text-anchor="middle" font-size="10" fill="#8c959f" font-family="ui-monospace, SFMono-Regular, 'SF Mono', Menlo, monospace">06-08</text>

  <!-- legend -->
  <rect x="60" y="262" width="16" height="3" fill="#4e79a7" rx="1"/><text x="80" y="268" font-size="11" fill="#57606a" font-family="-apple-system, BlinkMacSystemFont, 'Segoe UI', sans-serif">Total clones (67)</text><line x1="230" y1="264" x2="246" y2="264" stroke="#f28e2b" stroke-width="2" stroke-dasharray="5,3"/><text x="250" y="268" font-size="11" fill="#57606a" font-family="-apple-system, BlinkMacSystemFont, 'Segoe UI', sans-serif">Unique cloners</text>

</svg>