<svg xmlns="http://www.w3.org/2000/svg" viewBox="0 0 820 280" width="820" height="280">

  <!-- title -->
  <text x="52" y="18" font-size="13" font-weight="600"
        fill="#24292f" font-family="-apple-system, BlinkMacSystemFont, 'Segoe UI', sans-serif"
        >Clone traffic — gutenberg-stocks</text>
  <text x="800" y="18" font-size="10" fill="#8c959f"
        font-family="ui-monospace, SFMono-Regular, 'SF Mono', Menlo, monospace" text-anchor="end">2026-07-01</text>

  <!-- grid -->
  <line x1="52" y1="232.0" x2="800" y2="232.0" stroke="#e8e8e8" stroke-width="1"/><line x1="52" y1="189.5" x2="800" y2="189.5" stroke="#e8e8e8" stroke-width="1"/><line x1="52" y1="147.0" x2="800" y2="147.0" stroke="#e8e8e8" stroke-width="1"/><line x1="52" y1="104.5" x2="800" y2="104.5" stroke="#e8e8e8" stroke-width="1"/><line x1="52" y1="62.0" x2="800" y2="62.0" stroke="#e8e8e8" stroke-width="1"/><line x1="52" y1="19.5" x2="800" y2="19.5" stroke="#e8e8e8" stroke-width="1"/>

  <!-- area fill -->
  <path d="M52.0,232.0 L52.0,232.0 L67.3,223.5 L82.5,28.0 L97.8,223.5 L113.1,232.0 L128.3,232.0 L143.6,232.0 L158.9,215.0 L174.1,223.5 L189.4,215.0 L204.7,206.5 L219.9,189.5 L235.2,223.5 L250.4,223.5 L265.7,223.5 L281.0,232.0 L296.2,223.5 L311.5,198.0 L326.8,232.0 L342.0,232.0 L357.3,215.0 L372.6,232.0 L387.8,232.0 L403.1,232.0 L418.4,223.5 L433.6,232.0 L448.9,232.0 L464.2,232.0 L479.4,232.0 L494.7,181.0 L510.0,198.0 L525.2,223.5 L540.5,223.5 L555.8,232.0 L571.0,232.0 L586.3,232.0 L601.6,215.0 L616.8,223.5 L632.1,121.5 L647.3,215.0 L662.6,164.0 L677.9,223.5 L693.1,181.0 L708.4,223.5 L723.7,232.0 L738.9,189.5 L754.2,223.5 L769.5,215.0 L784.7,223.5 L800.0,232.0 L800.0,232.0 L52.0,232.0Z" fill="#4e79a7" opacity="0.12"/>

  <!-- lines -->
  <polyline points="52.0,232.0 67.3,223.5 82.5,28.0 97.8,223.5 113.1,232.0 128.3,232.0 143.6,232.0 158.9,215.0 174.1,223.5 189.4,215.0 204.7,206.5 219.9,189.5 235.2,223.5 250.4,223.5 265.7,223.5 281.0,232.0 296.2,223.5 311.5,198.0 326.8,232.0 342.0,232.0 357.3,215.0 372.6,232.0 387.8,232.0 403.1,232.0 418.4,223.5 433.6,232.0 448.9,232.0 464.2,232.0 479.4,232.0 494.7,181.0 510.0,198.0 525.2,223.5 540.5,223.5 555.8,232.0 571.0,232.0 586.3,232.0 601.6,215.0 616.8,223.5 632.1,121.5 647.3,215.0 662.6,164.0 677.9,223.5 693.1,181.0 708.4,223.5 723.7,232.0 738.9,189.5 754.2,223.5 769.5,215.0 784.7,223.5 800.0,232.0"
            fill="none" stroke="#4e79a7"
            stroke-width="2" stroke-linejoin="round"/>
  <polyline points="52.0,232.0 67.3,223.5 82.5,113.0 97.8,223.5 113.1,232.0 128.3,232.0 143.6,232.0 158.9,215.0 174.1,223.5 189.4,215.0 204.7,206.5 219.9,215.0 235.2,223.5 250.4,223.5 265.7,223.5 281.0,232.0 296.2,223.5 311.5,206.5 326.8,232.0 342.0,232.0 357.3,215.0 372.6,232.0 387.8,232.0 403.1,232.0 418.4,223.5 433.6,232.0 448.9,232.0 464.2,232.0 479.4,232.0 494.7,198.0 510.0,215.0 525.2,223.5 540.5,223.5 555.8,232.0 571.0,232.0 586.3,232.0 601.6,215.0 616.8,223.5 632.1,147.0 647.3,215.0 662.6,189.5 677.9,223.5 693.1,206.5 708.4,223.5 723.7,232.0 738.9,215.0 754.2,223.5 769.5,215.0 784.7,223.5 800.0,232.0"
            fill="none" stroke="#f28e2b"
            stroke-width="2" stroke-linejoin="round"
            stroke-dasharray="5,3"/>

  <!-- dots -->
  <circle cx="52.0" cy="232.0" r="3" fill="#4e79a7"/><circle cx="67.3" cy="223.5" r="3" fill="#4e79a7"/><circle cx="82.5" cy="28.0" r="3" fill="#4e79a7"/><circle cx="97.8" cy="223.5" r="3" fill="#4e79a7"/><circle cx="113.1" cy="232.0" r="3" fill="#4e79a7"/><circle cx="128.3" cy="232.0" r="3" fill="#4e79a7"/><circle cx="143.6" cy="232.0" r="3" fill="#4e79a7"/><circle cx="158.9" cy="215.0" r="3" fill="#4e79a7"/><circle cx="174.1" cy="223.5" r="3" fill="#4e79a7"/><circle cx="189.4" cy="215.0" r="3" fill="#4e79a7"/><circle cx="204.7" cy="206.5" r="3" fill="#4e79a7"/><circle cx="219.9" cy="189.5" r="3" fill="#4e79a7"/><circle cx="235.2" cy="223.5" r="3" fill="#4e79a7"/><circle cx="250.4" cy="223.5" r="3" fill="#4e79a7"/><circle cx="265.7" cy="223.5" r="3" fill="#4e79a7"/><circle cx="281.0" cy="232.0" r="3" fill="#4e79a7"/><circle cx="296.2" cy="223.5" r="3" fill="#4e79a7"/><circle cx="311.5" cy="198.0" r="3" fill="#4e79a7"/><circle cx="326.8" cy="232.0" r="3" fill="#4e79a7"/><circle cx="342.0" cy="232.0" r="3" fill="#4e79a7"/><circle cx="357.3" cy="215.0" r="3" fill="#4e79a7"/><circle cx="372.6" cy="232.0" r="3" fill="#4e79a7"/><circle cx="387.8" cy="232.0" r="3" fill="#4e79a7"/><circle cx="403.1" cy="232.0" r="3" fill="#4e79a7"/><circle cx="418.4" cy="223.5" r="3" fill="#4e79a7"/><circle cx="433.6" cy="232.0" r="3" fill="#4e79a7"/><circle cx="448.9" cy="232.0" r="3" fill="#4e79a7"/><circle cx="464.2" cy="232.0" r="3" fill="#4e79a7"/><circle cx="479.4" cy="232.0" r="3" fill="#4e79a7"/><circle cx="494.7" cy="181.0" r="3" fill="#4e79a7"/><circle cx="510.0" cy="198.0" r="3" fill="#4e79a7"/><circle cx="525.2" cy="223.5" r="3" fill="#4e79a7"/><circle cx="540.5" cy="223.5" r="3" fill="#4e79a7"/><circle cx="555.8" cy="232.0" r="3" fill="#4e79a7"/><circle cx="571.0" cy="232.0" r="3" fill="#4e79a7"/><circle cx="586.3" cy="232.0" r="3" fill="#4e79a7"/><circle cx="601.6" cy="215.0" r="3" fill="#4e79a7"/><circle cx="616.8" cy="223.5" r="3" fill="#4e79a7"/><circle cx="632.1" cy="121.5" r="3" fill="#4e79a7"/><circle cx="647.3" cy="215.0" r="3" fill="#4e79a7"/><circle cx="662.6" cy="164.0" r="3" fill="#4e79a7"/><circle cx="677.9" cy="223.5" r="3" fill="#4e79a7"/><circle cx="693.1" cy="181.0" r="3" fill="#4e79a7"/><circle cx="708.4" cy="223.5" r="3" fill="#4e79a7"/><circle cx="723.7" cy="232.0" r="3" fill="#4e79a7"/><circle cx="738.9" cy="189.5" r="3" fill="#4e79a7"/><circle cx="754.2" cy="223.5" r="3" fill="#4e79a7"/><circle cx="769.5" cy="215.0" r="3" fill="#4e79a7"/><circle cx="784.7" cy="223.5" r="3" fill="#4e79a7"/><circle cx="800.0" cy="232.0" r="3" fill="#4e79a7"/>
  <circle cx="52.0" cy="232.0" r="3" fill="#f28e2b"/><circle cx="67.3" cy="223.5" r="3" fill="#f28e2b"/><circle cx="82.5" cy="113.0" r="3" fill="#f28e2b"/><circle cx="97.8" cy="223.5" r="3" fill="#f28e2b"/><circle cx="113.1" cy="232.0" r="3" fill="#f28e2b"/><circle cx="128.3" cy="232.0" r="3" fill="#f28e2b"/><circle cx="143.6" cy="232.0" r="3" fill="#f28e2b"/><circle cx="158.9" cy="215.0" r="3" fill="#f28e2b"/><circle cx="174.1" cy="223.5" r="3" fill="#f28e2b"/><circle cx="189.4" cy="215.0" r="3" fill="#f28e2b"/><circle cx="204.7" cy="206.5" r="3" fill="#f28e2b"/><circle cx="219.9" cy="215.0" r="3" fill="#f28e2b"/><circle cx="235.2" cy="223.5" r="3" fill="#f28e2b"/><circle cx="250.4" cy="223.5" r="3" fill="#f28e2b"/><circle cx="265.7" cy="223.5" r="3" fill="#f28e2b"/><circle cx="281.0" cy="232.0" r="3" fill="#f28e2b"/><circle cx="296.2" cy="223.5" r="3" fill="#f28e2b"/><circle cx="311.5" cy="206.5" r="3" fill="#f28e2b"/><circle cx="326.8" cy="232.0" r="3" fill="#f28e2b"/><circle cx="342.0" cy="232.0" r="3" fill="#f28e2b"/><circle cx="357.3" cy="215.0" r="3" fill="#f28e2b"/><circle cx="372.6" cy="232.0" r="3" fill="#f28e2b"/><circle cx="387.8" cy="232.0" r="3" fill="#f28e2b"/><circle cx="403.1" cy="232.0" r="3" fill="#f28e2b"/><circle cx="418.4" cy="223.5" r="3" fill="#f28e2b"/><circle cx="433.6" cy="232.0" r="3" fill="#f28e2b"/><circle cx="448.9" cy="232.0" r="3" fill="#f28e2b"/><circle cx="464.2" cy="232.0" r="3" fill="#f28e2b"/><circle cx="479.4" cy="232.0" r="3" fill="#f28e2b"/><circle cx="494.7" cy="198.0" r="3" fill="#f28e2b"/><circle cx="510.0" cy="215.0" r="3" fill="#f28e2b"/><circle cx="525.2" cy="223.5" r="3" fill="#f28e2b"/><circle cx="540.5" cy="223.5" r="3" fill="#f28e2b"/><circle cx="555.8" cy="232.0" r="3" fill="#f28e2b"/><circle cx="571.0" cy="232.0" r="3" fill="#f28e2b"/><circle cx="586.3" cy="232.0" r="3" fill="#f28e2b"/><circle cx="601.6" cy="215.0" r="3" fill="#f28e2b"/><circle cx="616.8" cy="223.5" r="3" fill="#f28e2b"/><circle cx="632.1" cy="147.0" r="3" fill="#f28e2b"/><circle cx="647.3" cy="215.0" r="3" fill="#f28e2b"/><circle cx="662.6" cy="189.5" r="3" fill="#f28e2b"/><circle cx="677.9" cy="223.5" r="3" fill="#f28e2b"/><circle cx="693.1" cy="206.5" r="3" fill="#f28e2b"/><circle cx="708.4" cy="223.5" r="3" fill="#f28e2b"/><circle cx="723.7" cy="232.0" r="3" fill="#f28e2b"/><circle cx="738.9" cy="215.0" r="3" fill="#f28e2b"/><circle cx="754.2" cy="223.5" r="3" fill="#f28e2b"/><circle cx="769.5" cy="215.0" r="3" fill="#f28e2b"/><circle cx="784.7" cy="223.5" r="3" fill="#f28e2b"/><circle cx="800.0" cy="232.0" r="3" fill="#f28e2b"/>

  <!-- axes -->
  <line x1="52" y1="28" x2="52" y2="232"
        stroke="#cccccc" stroke-width="1"/>
  <line x1="52" y1="232" x2="800" y2="232"
        stroke="#cccccc" stroke-width="1"/>

  <!-- y-axis labels -->
  <text x="47" y="236.0" text-anchor="end" font-size="10" fill="#57606a" font-family="ui-monospace, SFMono-Regular, 'SF Mono', Menlo, monospace">0</text><text x="47" y="193.5" text-anchor="end" font-size="10" fill="#57606a" font-family="ui-monospace, SFMono-Regular, 'SF Mono', Menlo, monospace">5</text><text x="47" y="151.0" text-anchor="end" font-size="10" fill="#57606a" font-family="ui-monospace, SFMono-Regular, 'SF Mono', Menlo, monospace">10</text><text x="47" y="108.5" text-anchor="end" font-size="10" fill="#57606a" font-family="ui-monospace, SFMono-Regular, 'SF Mono', Menlo, monospace">15</text><text x="47" y="66.0" text-anchor="end" font-size="10" fill="#57606a" font-family="ui-monospace, SFMono-Regular, 'SF Mono', Menlo, monospace">20</text><text x="47" y="23.5" text-anchor="end" font-size="10" fill="#57606a" font-family="ui-monospace, SFMono-Regular, 'SF Mono', Menlo, monospace">25</text>

  <!-- x-axis labels -->
  <text x="52.0" y="248" text-anchor="middle" font-size="10" fill="#8c959f" font-family="ui-monospace, SFMono-Regular, 'SF Mono', Menlo, monospace">05-11</text><text x="601.6" y="248" text-anchor="middle" font-size="10" fill="#8c959f" font-family="ui-monospace, SFMono-Regular, 'SF Mono', Menlo, monospace">06-16</text><text x="143.6" y="248" text-anchor="middle" font-size="10" fill="#8c959f" font-family="ui-monospace, SFMono-Regular, 'SF Mono', Menlo, monospace">05-17</text><text x="693.1" y="248" text-anchor="middle" font-size="10" fill="#8c959f" font-family="ui-monospace, SFMono-Regular, 'SF Mono', Menlo, monospace">06-22</text><text x="235.2" y="248" text-anchor="middle" font-size="10" fill="#8c959f" font-family="ui-monospace, SFMono-Regular, 'SF Mono', Menlo, monospace">05-23</text><text x="784.7" y="248" text-anchor="middle" font-size="10" fill="#8c959f" font-family="ui-monospace, SFMono-Regular, 'SF Mono', Menlo, monospace">06-28</text><text x="800.0" y="248" text-anchor="middle" font-size="10" fill="#8c959f" font-family="ui-monospace, SFMono-Regular, 'SF Mono', Menlo, monospace">06-29</text><text x="326.8" y="248" text-anchor="middle" font-size="10" fill="#8c959f" font-family="ui-monospace, SFMono-Regular, 'SF Mono', Menlo, monospace">05-29</text><text x="418.4" y="248" text-anchor="middle" font-size="10" fill="#8c959f" font-family="ui-monospace, SFMono-Regular, 'SF Mono', Menlo, monospace">06-04</text><text x="510.0" y="248" text-anchor="middle" font-size="10" fill="#8c959f" font-family="ui-monospace, SFMono-Regular, 'SF Mono', Menlo, monospace">06-10</text>

  <!-- legend -->
  <rect x="60" y="262" width="16" height="3" fill="#4e79a7" rx="1"/><text x="80" y="268" font-size="11" fill="#57606a" font-family="-apple-system, BlinkMacSystemFont, 'Segoe UI', sans-serif">Total clones (105)</text><line x1="230" y1="264" x2="246" y2="264" stroke="#f28e2b" stroke-width="2" stroke-dasharray="5,3"/><text x="250" y="268" font-size="11" fill="#57606a" font-family="-apple-system, BlinkMacSystemFont, 'Segoe UI', sans-serif">Unique cloners</text>

</svg>