<svg xmlns="http://www.w3.org/2000/svg" viewBox="0 0 820 280" width="820" height="280">

  <!-- title -->
  <text x="52" y="18" font-size="13" font-weight="600"
        fill="#24292f" font-family="-apple-system, BlinkMacSystemFont, 'Segoe UI', sans-serif"
        >Clone traffic — gutenberg-stocks</text>
  <text x="800" y="18" font-size="10" fill="#8c959f"
        font-family="ui-monospace, SFMono-Regular, 'SF Mono', Menlo, monospace" text-anchor="end">2026-06-30</text>

  <!-- grid -->
  <line x1="52" y1="232.0" x2="800" y2="232.0" stroke="#e8e8e8" stroke-width="1"/><line x1="52" y1="189.5" x2="800" y2="189.5" stroke="#e8e8e8" stroke-width="1"/><line x1="52" y1="147.0" x2="800" y2="147.0" stroke="#e8e8e8" stroke-width="1"/><line x1="52" y1="104.5" x2="800" y2="104.5" stroke="#e8e8e8" stroke-width="1"/><line x1="52" y1="62.0" x2="800" y2="62.0" stroke="#e8e8e8" stroke-width="1"/><line x1="52" y1="19.5" x2="800" y2="19.5" stroke="#e8e8e8" stroke-width="1"/>

  <!-- area fill -->
  <path d="M52.0,232.0 L52.0,232.0 L67.6,223.5 L83.2,28.0 L98.8,223.5 L114.3,232.0 L129.9,232.0 L145.5,232.0 L161.1,215.0 L176.7,223.5 L192.2,215.0 L207.8,206.5 L223.4,189.5 L239.0,223.5 L254.6,223.5 L270.2,223.5 L285.8,232.0 L301.3,223.5 L316.9,198.0 L332.5,232.0 L348.1,232.0 L363.7,215.0 L379.2,232.0 L394.8,232.0 L410.4,232.0 L426.0,223.5 L441.6,232.0 L457.2,232.0 L472.8,232.0 L488.3,232.0 L503.9,181.0 L519.5,198.0 L535.1,223.5 L550.7,223.5 L566.2,232.0 L581.8,232.0 L597.4,232.0 L613.0,215.0 L628.6,223.5 L644.2,121.5 L659.8,215.0 L675.3,164.0 L690.9,223.5 L706.5,181.0 L722.1,223.5 L737.7,232.0 L753.2,189.5 L768.8,223.5 L784.4,215.0 L800.0,223.5 L800.0,232.0 L52.0,232.0Z" fill="#4e79a7" opacity="0.12"/>

  <!-- lines -->
  <polyline points="52.0,232.0 67.6,223.5 83.2,28.0 98.8,223.5 114.3,232.0 129.9,232.0 145.5,232.0 161.1,215.0 176.7,223.5 192.2,215.0 207.8,206.5 223.4,189.5 239.0,223.5 254.6,223.5 270.2,223.5 285.8,232.0 301.3,223.5 316.9,198.0 332.5,232.0 348.1,232.0 363.7,215.0 379.2,232.0 394.8,232.0 410.4,232.0 426.0,223.5 441.6,232.0 457.2,232.0 472.8,232.0 488.3,232.0 503.9,181.0 519.5,198.0 535.1,223.5 550.7,223.5 566.2,232.0 581.8,232.0 597.4,232.0 613.0,215.0 628.6,223.5 644.2,121.5 659.8,215.0 675.3,164.0 690.9,223.5 706.5,181.0 722.1,223.5 737.7,232.0 753.2,189.5 768.8,223.5 784.4,215.0 800.0,223.5"
            fill="none" stroke="#4e79a7"
            stroke-width="2" stroke-linejoin="round"/>
  <polyline points="52.0,232.0 67.6,223.5 83.2,113.0 98.8,223.5 114.3,232.0 129.9,232.0 145.5,232.0 161.1,215.0 176.7,223.5 192.2,215.0 207.8,206.5 223.4,215.0 239.0,223.5 254.6,223.5 270.2,223.5 285.8,232.0 301.3,223.5 316.9,206.5 332.5,232.0 348.1,232.0 363.7,215.0 379.2,232.0 394.8,232.0 410.4,232.0 426.0,223.5 441.6,232.0 457.2,232.0 472.8,232.0 488.3,232.0 503.9,198.0 519.5,215.0 535.1,223.5 550.7,223.5 566.2,232.0 581.8,232.0 597.4,232.0 613.0,215.0 628.6,223.5 644.2,147.0 659.8,215.0 675.3,189.5 690.9,223.5 706.5,206.5 722.1,223.5 737.7,232.0 753.2,215.0 768.8,223.5 784.4,215.0 800.0,223.5"
            fill="none" stroke="#f28e2b"
            stroke-width="2" stroke-linejoin="round"
            stroke-dasharray="5,3"/>

  <!-- dots -->
  <circle cx="52.0" cy="232.0" r="3" fill="#4e79a7"/><circle cx="67.6" cy="223.5" r="3" fill="#4e79a7"/><circle cx="83.2" cy="28.0" r="3" fill="#4e79a7"/><circle cx="98.8" cy="223.5" r="3" fill="#4e79a7"/><circle cx="114.3" cy="232.0" r="3" fill="#4e79a7"/><circle cx="129.9" cy="232.0" r="3" fill="#4e79a7"/><circle cx="145.5" cy="232.0" r="3" fill="#4e79a7"/><circle cx="161.1" cy="215.0" r="3" fill="#4e79a7"/><circle cx="176.7" cy="223.5" r="3" fill="#4e79a7"/><circle cx="192.2" cy="215.0" r="3" fill="#4e79a7"/><circle cx="207.8" cy="206.5" r="3" fill="#4e79a7"/><circle cx="223.4" cy="189.5" r="3" fill="#4e79a7"/><circle cx="239.0" cy="223.5" r="3" fill="#4e79a7"/><circle cx="254.6" cy="223.5" r="3" fill="#4e79a7"/><circle cx="270.2" cy="223.5" r="3" fill="#4e79a7"/><circle cx="285.8" cy="232.0" r="3" fill="#4e79a7"/><circle cx="301.3" cy="223.5" r="3" fill="#4e79a7"/><circle cx="316.9" cy="198.0" r="3" fill="#4e79a7"/><circle cx="332.5" cy="232.0" r="3" fill="#4e79a7"/><circle cx="348.1" cy="232.0" r="3" fill="#4e79a7"/><circle cx="363.7" cy="215.0" r="3" fill="#4e79a7"/><circle cx="379.2" cy="232.0" r="3" fill="#4e79a7"/><circle cx="394.8" cy="232.0" r="3" fill="#4e79a7"/><circle cx="410.4" cy="232.0" r="3" fill="#4e79a7"/><circle cx="426.0" cy="223.5" r="3" fill="#4e79a7"/><circle cx="441.6" cy="232.0" r="3" fill="#4e79a7"/><circle cx="457.2" cy="232.0" r="3" fill="#4e79a7"/><circle cx="472.8" cy="232.0" r="3" fill="#4e79a7"/><circle cx="488.3" cy="232.0" r="3" fill="#4e79a7"/><circle cx="503.9" cy="181.0" r="3" fill="#4e79a7"/><circle cx="519.5" cy="198.0" r="3" fill="#4e79a7"/><circle cx="535.1" cy="223.5" r="3" fill="#4e79a7"/><circle cx="550.7" cy="223.5" r="3" fill="#4e79a7"/><circle cx="566.2" cy="232.0" r="3" fill="#4e79a7"/><circle cx="581.8" cy="232.0" r="3" fill="#4e79a7"/><circle cx="597.4" cy="232.0" r="3" fill="#4e79a7"/><circle cx="613.0" cy="215.0" r="3" fill="#4e79a7"/><circle cx="628.6" cy="223.5" r="3" fill="#4e79a7"/><circle cx="644.2" cy="121.5" r="3" fill="#4e79a7"/><circle cx="659.8" cy="215.0" r="3" fill="#4e79a7"/><circle cx="675.3" cy="164.0" r="3" fill="#4e79a7"/><circle cx="690.9" cy="223.5" r="3" fill="#4e79a7"/><circle cx="706.5" cy="181.0" r="3" fill="#4e79a7"/><circle cx="722.1" cy="223.5" r="3" fill="#4e79a7"/><circle cx="737.7" cy="232.0" r="3" fill="#4e79a7"/><circle cx="753.2" cy="189.5" r="3" fill="#4e79a7"/><circle cx="768.8" cy="223.5" r="3" fill="#4e79a7"/><circle cx="784.4" cy="215.0" r="3" fill="#4e79a7"/><circle cx="800.0" cy="223.5" r="3" fill="#4e79a7"/>
  <circle cx="52.0" cy="232.0" r="3" fill="#f28e2b"/><circle cx="67.6" cy="223.5" r="3" fill="#f28e2b"/><circle cx="83.2" cy="113.0" r="3" fill="#f28e2b"/><circle cx="98.8" cy="223.5" r="3" fill="#f28e2b"/><circle cx="114.3" cy="232.0" r="3" fill="#f28e2b"/><circle cx="129.9" cy="232.0" r="3" fill="#f28e2b"/><circle cx="145.5" cy="232.0" r="3" fill="#f28e2b"/><circle cx="161.1" cy="215.0" r="3" fill="#f28e2b"/><circle cx="176.7" cy="223.5" r="3" fill="#f28e2b"/><circle cx="192.2" cy="215.0" r="3" fill="#f28e2b"/><circle cx="207.8" cy="206.5" r="3" fill="#f28e2b"/><circle cx="223.4" cy="215.0" r="3" fill="#f28e2b"/><circle cx="239.0" cy="223.5" r="3" fill="#f28e2b"/><circle cx="254.6" cy="223.5" r="3" fill="#f28e2b"/><circle cx="270.2" cy="223.5" r="3" fill="#f28e2b"/><circle cx="285.8" cy="232.0" r="3" fill="#f28e2b"/><circle cx="301.3" cy="223.5" r="3" fill="#f28e2b"/><circle cx="316.9" cy="206.5" r="3" fill="#f28e2b"/><circle cx="332.5" cy="232.0" r="3" fill="#f28e2b"/><circle cx="348.1" cy="232.0" r="3" fill="#f28e2b"/><circle cx="363.7" cy="215.0" r="3" fill="#f28e2b"/><circle cx="379.2" cy="232.0" r="3" fill="#f28e2b"/><circle cx="394.8" cy="232.0" r="3" fill="#f28e2b"/><circle cx="410.4" cy="232.0" r="3" fill="#f28e2b"/><circle cx="426.0" cy="223.5" r="3" fill="#f28e2b"/><circle cx="441.6" cy="232.0" r="3" fill="#f28e2b"/><circle cx="457.2" cy="232.0" r="3" fill="#f28e2b"/><circle cx="472.8" cy="232.0" r="3" fill="#f28e2b"/><circle cx="488.3" cy="232.0" r="3" fill="#f28e2b"/><circle cx="503.9" cy="198.0" r="3" fill="#f28e2b"/><circle cx="519.5" cy="215.0" r="3" fill="#f28e2b"/><circle cx="535.1" cy="223.5" r="3" fill="#f28e2b"/><circle cx="550.7" cy="223.5" r="3" fill="#f28e2b"/><circle cx="566.2" cy="232.0" r="3" fill="#f28e2b"/><circle cx="581.8" cy="232.0" r="3" fill="#f28e2b"/><circle cx="597.4" cy="232.0" r="3" fill="#f28e2b"/><circle cx="613.0" cy="215.0" r="3" fill="#f28e2b"/><circle cx="628.6" cy="223.5" r="3" fill="#f28e2b"/><circle cx="644.2" cy="147.0" r="3" fill="#f28e2b"/><circle cx="659.8" cy="215.0" r="3" fill="#f28e2b"/><circle cx="675.3" cy="189.5" r="3" fill="#f28e2b"/><circle cx="690.9" cy="223.5" r="3" fill="#f28e2b"/><circle cx="706.5" cy="206.5" r="3" fill="#f28e2b"/><circle cx="722.1" cy="223.5" r="3" fill="#f28e2b"/><circle cx="737.7" cy="232.0" r="3" fill="#f28e2b"/><circle cx="753.2" cy="215.0" r="3" fill="#f28e2b"/><circle cx="768.8" cy="223.5" r="3" fill="#f28e2b"/><circle cx="784.4" cy="215.0" r="3" fill="#f28e2b"/><circle cx="800.0" cy="223.5" r="3" fill="#f28e2b"/>

  <!-- axes -->
  <line x1="52" y1="28" x2="52" y2="232"
        stroke="#cccccc" stroke-width="1"/>
  <line x1="52" y1="232" x2="800" y2="232"
        stroke="#cccccc" stroke-width="1"/>

  <!-- y-axis labels -->
  <text x="47" y="236.0" text-anchor="end" font-size="10" fill="#57606a" font-family="ui-monospace, SFMono-Regular, 'SF Mono', Menlo, monospace">0</text><text x="47" y="193.5" text-anchor="end" font-size="10" fill="#57606a" font-family="ui-monospace, SFMono-Regular, 'SF Mono', Menlo, monospace">5</text><text x="47" y="151.0" text-anchor="end" font-size="10" fill="#57606a" font-family="ui-monospace, SFMono-Regular, 'SF Mono', Menlo, monospace">10</text><text x="47" y="108.5" text-anchor="end" font-size="10" fill="#57606a" font-family="ui-monospace, SFMono-Regular, 'SF Mono', Menlo, monospace">15</text><text x="47" y="66.0" text-anchor="end" font-size="10" fill="#57606a" font-family="ui-monospace, SFMono-Regular, 'SF Mono', Menlo, monospace">20</text><text x="47" y="23.5" text-anchor="end" font-size="10" fill="#57606a" font-family="ui-monospace, SFMono-Regular, 'SF Mono', Menlo, monospace">25</text>

  <!-- x-axis labels -->
  <text x="52.0" y="248" text-anchor="middle" font-size="10" fill="#8c959f" font-family="ui-monospace, SFMono-Regular, 'SF Mono', Menlo, monospace">05-11</text><text x="613.0" y="248" text-anchor="middle" font-size="10" fill="#8c959f" font-family="ui-monospace, SFMono-Regular, 'SF Mono', Menlo, monospace">06-16</text><text x="145.5" y="248" text-anchor="middle" font-size="10" fill="#8c959f" font-family="ui-monospace, SFMono-Regular, 'SF Mono', Menlo, monospace">05-17</text><text x="706.5" y="248" text-anchor="middle" font-size="10" fill="#8c959f" font-family="ui-monospace, SFMono-Regular, 'SF Mono', Menlo, monospace">06-22</text><text x="239.0" y="248" text-anchor="middle" font-size="10" fill="#8c959f" font-family="ui-monospace, SFMono-Regular, 'SF Mono', Menlo, monospace">05-23</text><text x="800.0" y="248" text-anchor="middle" font-size="10" fill="#8c959f" font-family="ui-monospace, SFMono-Regular, 'SF Mono', Menlo, monospace">06-28</text><text x="332.5" y="248" text-anchor="middle" font-size="10" fill="#8c959f" font-family="ui-monospace, SFMono-Regular, 'SF Mono', Menlo, monospace">05-29</text><text x="426.0" y="248" text-anchor="middle" font-size="10" fill="#8c959f" font-family="ui-monospace, SFMono-Regular, 'SF Mono', Menlo, monospace">06-04</text><text x="519.5" y="248" text-anchor="middle" font-size="10" fill="#8c959f" font-family="ui-monospace, SFMono-Regular, 'SF Mono', Menlo, monospace">06-10</text>

  <!-- legend -->
  <rect x="60" y="262" width="16" height="3" fill="#4e79a7" rx="1"/><text x="80" y="268" font-size="11" fill="#57606a" font-family="-apple-system, BlinkMacSystemFont, 'Segoe UI', sans-serif">Total clones (105)</text><line x1="230" y1="264" x2="246" y2="264" stroke="#f28e2b" stroke-width="2" stroke-dasharray="5,3"/><text x="250" y="268" font-size="11" fill="#57606a" font-family="-apple-system, BlinkMacSystemFont, 'Segoe UI', sans-serif">Unique cloners</text>

</svg>