<svg xmlns="http://www.w3.org/2000/svg" viewBox="0 0 820 280" width="820" height="280">

  <!-- title -->
  <text x="52" y="18" font-size="13" font-weight="600"
        fill="#24292f" font-family="-apple-system, BlinkMacSystemFont, 'Segoe UI', sans-serif"
        >Clone traffic — gutenberg-stocks</text>
  <text x="800" y="18" font-size="10" fill="#8c959f"
        font-family="ui-monospace, SFMono-Regular, 'SF Mono', Menlo, monospace" text-anchor="end">2026-07-24</text>

  <!-- grid -->
  <line x1="52" y1="232.0" x2="800" y2="232.0" stroke="#e8e8e8" stroke-width="1"/><line x1="52" y1="189.5" x2="800" y2="189.5" stroke="#e8e8e8" stroke-width="1"/><line x1="52" y1="147.0" x2="800" y2="147.0" stroke="#e8e8e8" stroke-width="1"/><line x1="52" y1="104.5" x2="800" y2="104.5" stroke="#e8e8e8" stroke-width="1"/><line x1="52" y1="62.0" x2="800" y2="62.0" stroke="#e8e8e8" stroke-width="1"/><line x1="52" y1="19.5" x2="800" y2="19.5" stroke="#e8e8e8" stroke-width="1"/>

  <!-- area fill -->
  <path d="M52.0,232.0 L52.0,232.0 L62.4,223.5 L72.8,28.0 L83.2,223.5 L93.6,232.0 L103.9,232.0 L114.3,232.0 L124.7,215.0 L135.1,223.5 L145.5,215.0 L155.9,206.5 L166.3,189.5 L176.7,223.5 L187.1,223.5 L197.4,223.5 L207.8,232.0 L218.2,223.5 L228.6,198.0 L239.0,232.0 L249.4,232.0 L259.8,215.0 L270.2,232.0 L280.6,232.0 L290.9,232.0 L301.3,223.5 L311.7,232.0 L322.1,232.0 L332.5,232.0 L342.9,232.0 L353.3,181.0 L363.7,198.0 L374.1,223.5 L384.4,223.5 L394.8,232.0 L405.2,232.0 L415.6,232.0 L426.0,215.0 L436.4,223.5 L446.8,121.5 L457.2,215.0 L467.6,164.0 L477.9,223.5 L488.3,181.0 L498.7,223.5 L509.1,232.0 L519.5,189.5 L529.9,223.5 L540.3,215.0 L550.7,223.5 L561.1,232.0 L571.4,206.5 L581.8,232.0 L592.2,232.0 L602.6,223.5 L613.0,232.0 L623.4,232.0 L633.8,223.5 L644.2,189.5 L654.6,215.0 L664.9,223.5 L675.3,223.5 L685.7,223.5 L696.1,232.0 L706.5,223.5 L716.9,232.0 L727.3,223.5 L737.7,223.5 L748.1,223.5 L758.4,215.0 L768.8,232.0 L779.2,232.0 L789.6,223.5 L800.0,215.0 L800.0,232.0 L52.0,232.0Z" fill="#4e79a7" opacity="0.12"/>

  <!-- lines -->
  <polyline points="52.0,232.0 62.4,223.5 72.8,28.0 83.2,223.5 93.6,232.0 103.9,232.0 114.3,232.0 124.7,215.0 135.1,223.5 145.5,215.0 155.9,206.5 166.3,189.5 176.7,223.5 187.1,223.5 197.4,223.5 207.8,232.0 218.2,223.5 228.6,198.0 239.0,232.0 249.4,232.0 259.8,215.0 270.2,232.0 280.6,232.0 290.9,232.0 301.3,223.5 311.7,232.0 322.1,232.0 332.5,232.0 342.9,232.0 353.3,181.0 363.7,198.0 374.1,223.5 384.4,223.5 394.8,232.0 405.2,232.0 415.6,232.0 426.0,215.0 436.4,223.5 446.8,121.5 457.2,215.0 467.6,164.0 477.9,223.5 488.3,181.0 498.7,223.5 509.1,232.0 519.5,189.5 529.9,223.5 540.3,215.0 550.7,223.5 561.1,232.0 571.4,206.5 581.8,232.0 592.2,232.0 602.6,223.5 613.0,232.0 623.4,232.0 633.8,223.5 644.2,189.5 654.6,215.0 664.9,223.5 675.3,223.5 685.7,223.5 696.1,232.0 706.5,223.5 716.9,232.0 727.3,223.5 737.7,223.5 748.1,223.5 758.4,215.0 768.8,232.0 779.2,232.0 789.6,223.5 800.0,215.0"
            fill="none" stroke="#4e79a7"
            stroke-width="2" stroke-linejoin="round"/>
  <polyline points="52.0,232.0 62.4,223.5 72.8,113.0 83.2,223.5 93.6,232.0 103.9,232.0 114.3,232.0 124.7,215.0 135.1,223.5 145.5,215.0 155.9,206.5 166.3,215.0 176.7,223.5 187.1,223.5 197.4,223.5 207.8,232.0 218.2,223.5 228.6,206.5 239.0,232.0 249.4,232.0 259.8,215.0 270.2,232.0 280.6,232.0 290.9,232.0 301.3,223.5 311.7,232.0 322.1,232.0 332.5,232.0 342.9,232.0 353.3,198.0 363.7,215.0 374.1,223.5 384.4,223.5 394.8,232.0 405.2,232.0 415.6,232.0 426.0,215.0 436.4,223.5 446.8,147.0 457.2,215.0 467.6,189.5 477.9,223.5 488.3,206.5 498.7,223.5 509.1,232.0 519.5,215.0 529.9,223.5 540.3,215.0 550.7,223.5 561.1,232.0 571.4,206.5 581.8,232.0 592.2,232.0 602.6,223.5 613.0,232.0 623.4,232.0 633.8,223.5 644.2,223.5 654.6,215.0 664.9,223.5 675.3,223.5 685.7,223.5 696.1,232.0 706.5,223.5 716.9,232.0 727.3,223.5 737.7,223.5 748.1,223.5 758.4,215.0 768.8,232.0 779.2,232.0 789.6,223.5 800.0,215.0"
            fill="none" stroke="#f28e2b"
            stroke-width="2" stroke-linejoin="round"
            stroke-dasharray="5,3"/>

  <!-- dots -->
  <circle cx="52.0" cy="232.0" r="3" fill="#4e79a7"/><circle cx="62.4" cy="223.5" r="3" fill="#4e79a7"/><circle cx="72.8" cy="28.0" r="3" fill="#4e79a7"/><circle cx="83.2" cy="223.5" r="3" fill="#4e79a7"/><circle cx="93.6" cy="232.0" r="3" fill="#4e79a7"/><circle cx="103.9" cy="232.0" r="3" fill="#4e79a7"/><circle cx="114.3" cy="232.0" r="3" fill="#4e79a7"/><circle cx="124.7" cy="215.0" r="3" fill="#4e79a7"/><circle cx="135.1" cy="223.5" r="3" fill="#4e79a7"/><circle cx="145.5" cy="215.0" r="3" fill="#4e79a7"/><circle cx="155.9" cy="206.5" r="3" fill="#4e79a7"/><circle cx="166.3" cy="189.5" r="3" fill="#4e79a7"/><circle cx="176.7" cy="223.5" r="3" fill="#4e79a7"/><circle cx="187.1" cy="223.5" r="3" fill="#4e79a7"/><circle cx="197.4" cy="223.5" r="3" fill="#4e79a7"/><circle cx="207.8" cy="232.0" r="3" fill="#4e79a7"/><circle cx="218.2" cy="223.5" r="3" fill="#4e79a7"/><circle cx="228.6" cy="198.0" r="3" fill="#4e79a7"/><circle cx="239.0" cy="232.0" r="3" fill="#4e79a7"/><circle cx="249.4" cy="232.0" r="3" fill="#4e79a7"/><circle cx="259.8" cy="215.0" r="3" fill="#4e79a7"/><circle cx="270.2" cy="232.0" r="3" fill="#4e79a7"/><circle cx="280.6" cy="232.0" r="3" fill="#4e79a7"/><circle cx="290.9" cy="232.0" r="3" fill="#4e79a7"/><circle cx="301.3" cy="223.5" r="3" fill="#4e79a7"/><circle cx="311.7" cy="232.0" r="3" fill="#4e79a7"/><circle cx="322.1" cy="232.0" r="3" fill="#4e79a7"/><circle cx="332.5" cy="232.0" r="3" fill="#4e79a7"/><circle cx="342.9" cy="232.0" r="3" fill="#4e79a7"/><circle cx="353.3" cy="181.0" r="3" fill="#4e79a7"/><circle cx="363.7" cy="198.0" r="3" fill="#4e79a7"/><circle cx="374.1" cy="223.5" r="3" fill="#4e79a7"/><circle cx="384.4" cy="223.5" r="3" fill="#4e79a7"/><circle cx="394.8" cy="232.0" r="3" fill="#4e79a7"/><circle cx="405.2" cy="232.0" r="3" fill="#4e79a7"/><circle cx="415.6" cy="232.0" r="3" fill="#4e79a7"/><circle cx="426.0" cy="215.0" r="3" fill="#4e79a7"/><circle cx="436.4" cy="223.5" r="3" fill="#4e79a7"/><circle cx="446.8" cy="121.5" r="3" fill="#4e79a7"/><circle cx="457.2" cy="215.0" r="3" fill="#4e79a7"/><circle cx="467.6" cy="164.0" r="3" fill="#4e79a7"/><circle cx="477.9" cy="223.5" r="3" fill="#4e79a7"/><circle cx="488.3" cy="181.0" r="3" fill="#4e79a7"/><circle cx="498.7" cy="223.5" r="3" fill="#4e79a7"/><circle cx="509.1" cy="232.0" r="3" fill="#4e79a7"/><circle cx="519.5" cy="189.5" r="3" fill="#4e79a7"/><circle cx="529.9" cy="223.5" r="3" fill="#4e79a7"/><circle cx="540.3" cy="215.0" r="3" fill="#4e79a7"/><circle cx="550.7" cy="223.5" r="3" fill="#4e79a7"/><circle cx="561.1" cy="232.0" r="3" fill="#4e79a7"/><circle cx="571.4" cy="206.5" r="3" fill="#4e79a7"/><circle cx="581.8" cy="232.0" r="3" fill="#4e79a7"/><circle cx="592.2" cy="232.0" r="3" fill="#4e79a7"/><circle cx="602.6" cy="223.5" r="3" fill="#4e79a7"/><circle cx="613.0" cy="232.0" r="3" fill="#4e79a7"/><circle cx="623.4" cy="232.0" r="3" fill="#4e79a7"/><circle cx="633.8" cy="223.5" r="3" fill="#4e79a7"/><circle cx="644.2" cy="189.5" r="3" fill="#4e79a7"/><circle cx="654.6" cy="215.0" r="3" fill="#4e79a7"/><circle cx="664.9" cy="223.5" r="3" fill="#4e79a7"/><circle cx="675.3" cy="223.5" r="3" fill="#4e79a7"/><circle cx="685.7" cy="223.5" r="3" fill="#4e79a7"/><circle cx="696.1" cy="232.0" r="3" fill="#4e79a7"/><circle cx="706.5" cy="223.5" r="3" fill="#4e79a7"/><circle cx="716.9" cy="232.0" r="3" fill="#4e79a7"/><circle cx="727.3" cy="223.5" r="3" fill="#4e79a7"/><circle cx="737.7" cy="223.5" r="3" fill="#4e79a7"/><circle cx="748.1" cy="223.5" r="3" fill="#4e79a7"/><circle cx="758.4" cy="215.0" r="3" fill="#4e79a7"/><circle cx="768.8" cy="232.0" r="3" fill="#4e79a7"/><circle cx="779.2" cy="232.0" r="3" fill="#4e79a7"/><circle cx="789.6" cy="223.5" r="3" fill="#4e79a7"/><circle cx="800.0" cy="215.0" r="3" fill="#4e79a7"/>
  <circle cx="52.0" cy="232.0" r="3" fill="#f28e2b"/><circle cx="62.4" cy="223.5" r="3" fill="#f28e2b"/><circle cx="72.8" cy="113.0" r="3" fill="#f28e2b"/><circle cx="83.2" cy="223.5" r="3" fill="#f28e2b"/><circle cx="93.6" cy="232.0" r="3" fill="#f28e2b"/><circle cx="103.9" cy="232.0" r="3" fill="#f28e2b"/><circle cx="114.3" cy="232.0" r="3" fill="#f28e2b"/><circle cx="124.7" cy="215.0" r="3" fill="#f28e2b"/><circle cx="135.1" cy="223.5" r="3" fill="#f28e2b"/><circle cx="145.5" cy="215.0" r="3" fill="#f28e2b"/><circle cx="155.9" cy="206.5" r="3" fill="#f28e2b"/><circle cx="166.3" cy="215.0" r="3" fill="#f28e2b"/><circle cx="176.7" cy="223.5" r="3" fill="#f28e2b"/><circle cx="187.1" cy="223.5" r="3" fill="#f28e2b"/><circle cx="197.4" cy="223.5" r="3" fill="#f28e2b"/><circle cx="207.8" cy="232.0" r="3" fill="#f28e2b"/><circle cx="218.2" cy="223.5" r="3" fill="#f28e2b"/><circle cx="228.6" cy="206.5" r="3" fill="#f28e2b"/><circle cx="239.0" cy="232.0" r="3" fill="#f28e2b"/><circle cx="249.4" cy="232.0" r="3" fill="#f28e2b"/><circle cx="259.8" cy="215.0" r="3" fill="#f28e2b"/><circle cx="270.2" cy="232.0" r="3" fill="#f28e2b"/><circle cx="280.6" cy="232.0" r="3" fill="#f28e2b"/><circle cx="290.9" cy="232.0" r="3" fill="#f28e2b"/><circle cx="301.3" cy="223.5" r="3" fill="#f28e2b"/><circle cx="311.7" cy="232.0" r="3" fill="#f28e2b"/><circle cx="322.1" cy="232.0" r="3" fill="#f28e2b"/><circle cx="332.5" cy="232.0" r="3" fill="#f28e2b"/><circle cx="342.9" cy="232.0" r="3" fill="#f28e2b"/><circle cx="353.3" cy="198.0" r="3" fill="#f28e2b"/><circle cx="363.7" cy="215.0" r="3" fill="#f28e2b"/><circle cx="374.1" cy="223.5" r="3" fill="#f28e2b"/><circle cx="384.4" cy="223.5" r="3" fill="#f28e2b"/><circle cx="394.8" cy="232.0" r="3" fill="#f28e2b"/><circle cx="405.2" cy="232.0" r="3" fill="#f28e2b"/><circle cx="415.6" cy="232.0" r="3" fill="#f28e2b"/><circle cx="426.0" cy="215.0" r="3" fill="#f28e2b"/><circle cx="436.4" cy="223.5" r="3" fill="#f28e2b"/><circle cx="446.8" cy="147.0" r="3" fill="#f28e2b"/><circle cx="457.2" cy="215.0" r="3" fill="#f28e2b"/><circle cx="467.6" cy="189.5" r="3" fill="#f28e2b"/><circle cx="477.9" cy="223.5" r="3" fill="#f28e2b"/><circle cx="488.3" cy="206.5" r="3" fill="#f28e2b"/><circle cx="498.7" cy="223.5" r="3" fill="#f28e2b"/><circle cx="509.1" cy="232.0" r="3" fill="#f28e2b"/><circle cx="519.5" cy="215.0" r="3" fill="#f28e2b"/><circle cx="529.9" cy="223.5" r="3" fill="#f28e2b"/><circle cx="540.3" cy="215.0" r="3" fill="#f28e2b"/><circle cx="550.7" cy="223.5" r="3" fill="#f28e2b"/><circle cx="561.1" cy="232.0" r="3" fill="#f28e2b"/><circle cx="571.4" cy="206.5" r="3" fill="#f28e2b"/><circle cx="581.8" cy="232.0" r="3" fill="#f28e2b"/><circle cx="592.2" cy="232.0" r="3" fill="#f28e2b"/><circle cx="602.6" cy="223.5" r="3" fill="#f28e2b"/><circle cx="613.0" cy="232.0" r="3" fill="#f28e2b"/><circle cx="623.4" cy="232.0" r="3" fill="#f28e2b"/><circle cx="633.8" cy="223.5" r="3" fill="#f28e2b"/><circle cx="644.2" cy="223.5" r="3" fill="#f28e2b"/><circle cx="654.6" cy="215.0" r="3" fill="#f28e2b"/><circle cx="664.9" cy="223.5" r="3" fill="#f28e2b"/><circle cx="675.3" cy="223.5" r="3" fill="#f28e2b"/><circle cx="685.7" cy="223.5" r="3" fill="#f28e2b"/><circle cx="696.1" cy="232.0" r="3" fill="#f28e2b"/><circle cx="706.5" cy="223.5" r="3" fill="#f28e2b"/><circle cx="716.9" cy="232.0" r="3" fill="#f28e2b"/><circle cx="727.3" cy="223.5" r="3" fill="#f28e2b"/><circle cx="737.7" cy="223.5" r="3" fill="#f28e2b"/><circle cx="748.1" cy="223.5" r="3" fill="#f28e2b"/><circle cx="758.4" cy="215.0" r="3" fill="#f28e2b"/><circle cx="768.8" cy="232.0" r="3" fill="#f28e2b"/><circle cx="779.2" cy="232.0" r="3" fill="#f28e2b"/><circle cx="789.6" cy="223.5" r="3" fill="#f28e2b"/><circle cx="800.0" cy="215.0" r="3" fill="#f28e2b"/>

  <!-- axes -->
  <line x1="52" y1="28" x2="52" y2="232"
        stroke="#cccccc" stroke-width="1"/>
  <line x1="52" y1="232" x2="800" y2="232"
        stroke="#cccccc" stroke-width="1"/>

  <!-- y-axis labels -->
  <text x="47" y="236.0" text-anchor="end" font-size="10" fill="#57606a" font-family="ui-monospace, SFMono-Regular, 'SF Mono', Menlo, monospace">0</text><text x="47" y="193.5" text-anchor="end" font-size="10" fill="#57606a" font-family="ui-monospace, SFMono-Regular, 'SF Mono', Menlo, monospace">5</text><text x="47" y="151.0" text-anchor="end" font-size="10" fill="#57606a" font-family="ui-monospace, SFMono-Regular, 'SF Mono', Menlo, monospace">10</text><text x="47" y="108.5" text-anchor="end" font-size="10" fill="#57606a" font-family="ui-monospace, SFMono-Regular, 'SF Mono', Menlo, monospace">15</text><text x="47" y="66.0" text-anchor="end" font-size="10" fill="#57606a" font-family="ui-monospace, SFMono-Regular, 'SF Mono', Menlo, monospace">20</text><text x="47" y="23.5" text-anchor="end" font-size="10" fill="#57606a" font-family="ui-monospace, SFMono-Regular, 'SF Mono', Menlo, monospace">25</text>

  <!-- x-axis labels -->
  <text x="52.0" y="248" text-anchor="middle" font-size="10" fill="#8c959f" font-family="ui-monospace, SFMono-Regular, 'SF Mono', Menlo, monospace">05-11</text><text x="426.0" y="248" text-anchor="middle" font-size="10" fill="#8c959f" font-family="ui-monospace, SFMono-Regular, 'SF Mono', Menlo, monospace">06-16</text><text x="800.0" y="248" text-anchor="middle" font-size="10" fill="#8c959f" font-family="ui-monospace, SFMono-Regular, 'SF Mono', Menlo, monospace">07-22</text><text x="145.5" y="248" text-anchor="middle" font-size="10" fill="#8c959f" font-family="ui-monospace, SFMono-Regular, 'SF Mono', Menlo, monospace">05-20</text><text x="519.5" y="248" text-anchor="middle" font-size="10" fill="#8c959f" font-family="ui-monospace, SFMono-Regular, 'SF Mono', Menlo, monospace">06-25</text><text x="239.0" y="248" text-anchor="middle" font-size="10" fill="#8c959f" font-family="ui-monospace, SFMono-Regular, 'SF Mono', Menlo, monospace">05-29</text><text x="613.0" y="248" text-anchor="middle" font-size="10" fill="#8c959f" font-family="ui-monospace, SFMono-Regular, 'SF Mono', Menlo, monospace">07-04</text><text x="332.5" y="248" text-anchor="middle" font-size="10" fill="#8c959f" font-family="ui-monospace, SFMono-Regular, 'SF Mono', Menlo, monospace">06-07</text><text x="706.5" y="248" text-anchor="middle" font-size="10" fill="#8c959f" font-family="ui-monospace, SFMono-Regular, 'SF Mono', Menlo, monospace">07-13</text>

  <!-- legend -->
  <rect x="60" y="262" width="16" height="3" fill="#4e79a7" rx="1"/><text x="80" y="268" font-size="11" fill="#57606a" font-family="-apple-system, BlinkMacSystemFont, 'Segoe UI', sans-serif">Total clones (129)</text><line x1="230" y1="264" x2="246" y2="264" stroke="#f28e2b" stroke-width="2" stroke-dasharray="5,3"/><text x="250" y="268" font-size="11" fill="#57606a" font-family="-apple-system, BlinkMacSystemFont, 'Segoe UI', sans-serif">Unique cloners</text>

</svg>