<svg xmlns="http://www.w3.org/2000/svg" viewBox="0 0 820 280" width="820" height="280">

  <!-- title -->
  <text x="52" y="18" font-size="13" font-weight="600"
        fill="#24292f" font-family="-apple-system, BlinkMacSystemFont, 'Segoe UI', sans-serif"
        >Clone traffic — gutenberg-stocks</text>
  <text x="800" y="18" font-size="10" fill="#8c959f"
        font-family="ui-monospace, SFMono-Regular, 'SF Mono', Menlo, monospace" text-anchor="end">2026-07-14</text>

  <!-- grid -->
  <line x1="52" y1="232.0" x2="800" y2="232.0" stroke="#e8e8e8" stroke-width="1"/><line x1="52" y1="189.5" x2="800" y2="189.5" stroke="#e8e8e8" stroke-width="1"/><line x1="52" y1="147.0" x2="800" y2="147.0" stroke="#e8e8e8" stroke-width="1"/><line x1="52" y1="104.5" x2="800" y2="104.5" stroke="#e8e8e8" stroke-width="1"/><line x1="52" y1="62.0" x2="800" y2="62.0" stroke="#e8e8e8" stroke-width="1"/><line x1="52" y1="19.5" x2="800" y2="19.5" stroke="#e8e8e8" stroke-width="1"/>

  <!-- area fill -->
  <path d="M52.0,232.0 L52.0,232.0 L64.1,223.5 L76.1,28.0 L88.2,223.5 L100.3,232.0 L112.3,232.0 L124.4,232.0 L136.5,215.0 L148.5,223.5 L160.6,215.0 L172.6,206.5 L184.7,189.5 L196.8,223.5 L208.8,223.5 L220.9,223.5 L233.0,232.0 L245.0,223.5 L257.1,198.0 L269.2,232.0 L281.2,232.0 L293.3,215.0 L305.4,232.0 L317.4,232.0 L329.5,232.0 L341.5,223.5 L353.6,232.0 L365.7,232.0 L377.7,232.0 L389.8,232.0 L401.9,181.0 L413.9,198.0 L426.0,223.5 L438.1,223.5 L450.1,232.0 L462.2,232.0 L474.3,232.0 L486.3,215.0 L498.4,223.5 L510.5,121.5 L522.5,215.0 L534.6,164.0 L546.6,223.5 L558.7,181.0 L570.8,223.5 L582.8,232.0 L594.9,189.5 L607.0,223.5 L619.0,215.0 L631.1,223.5 L643.2,232.0 L655.2,206.5 L667.3,232.0 L679.4,232.0 L691.4,223.5 L703.5,232.0 L715.5,232.0 L727.6,223.5 L739.7,189.5 L751.7,215.0 L763.8,223.5 L775.9,223.5 L787.9,223.5 L800.0,232.0 L800.0,232.0 L52.0,232.0Z" fill="#4e79a7" opacity="0.12"/>

  <!-- lines -->
  <polyline points="52.0,232.0 64.1,223.5 76.1,28.0 88.2,223.5 100.3,232.0 112.3,232.0 124.4,232.0 136.5,215.0 148.5,223.5 160.6,215.0 172.6,206.5 184.7,189.5 196.8,223.5 208.8,223.5 220.9,223.5 233.0,232.0 245.0,223.5 257.1,198.0 269.2,232.0 281.2,232.0 293.3,215.0 305.4,232.0 317.4,232.0 329.5,232.0 341.5,223.5 353.6,232.0 365.7,232.0 377.7,232.0 389.8,232.0 401.9,181.0 413.9,198.0 426.0,223.5 438.1,223.5 450.1,232.0 462.2,232.0 474.3,232.0 486.3,215.0 498.4,223.5 510.5,121.5 522.5,215.0 534.6,164.0 546.6,223.5 558.7,181.0 570.8,223.5 582.8,232.0 594.9,189.5 607.0,223.5 619.0,215.0 631.1,223.5 643.2,232.0 655.2,206.5 667.3,232.0 679.4,232.0 691.4,223.5 703.5,232.0 715.5,232.0 727.6,223.5 739.7,189.5 751.7,215.0 763.8,223.5 775.9,223.5 787.9,223.5 800.0,232.0"
            fill="none" stroke="#4e79a7"
            stroke-width="2" stroke-linejoin="round"/>
  <polyline points="52.0,232.0 64.1,223.5 76.1,113.0 88.2,223.5 100.3,232.0 112.3,232.0 124.4,232.0 136.5,215.0 148.5,223.5 160.6,215.0 172.6,206.5 184.7,215.0 196.8,223.5 208.8,223.5 220.9,223.5 233.0,232.0 245.0,223.5 257.1,206.5 269.2,232.0 281.2,232.0 293.3,215.0 305.4,232.0 317.4,232.0 329.5,232.0 341.5,223.5 353.6,232.0 365.7,232.0 377.7,232.0 389.8,232.0 401.9,198.0 413.9,215.0 426.0,223.5 438.1,223.5 450.1,232.0 462.2,232.0 474.3,232.0 486.3,215.0 498.4,223.5 510.5,147.0 522.5,215.0 534.6,189.5 546.6,223.5 558.7,206.5 570.8,223.5 582.8,232.0 594.9,215.0 607.0,223.5 619.0,215.0 631.1,223.5 643.2,232.0 655.2,206.5 667.3,232.0 679.4,232.0 691.4,223.5 703.5,232.0 715.5,232.0 727.6,223.5 739.7,223.5 751.7,215.0 763.8,223.5 775.9,223.5 787.9,223.5 800.0,232.0"
            fill="none" stroke="#f28e2b"
            stroke-width="2" stroke-linejoin="round"
            stroke-dasharray="5,3"/>

  <!-- dots -->
  <circle cx="52.0" cy="232.0" r="3" fill="#4e79a7"/><circle cx="64.1" cy="223.5" r="3" fill="#4e79a7"/><circle cx="76.1" cy="28.0" r="3" fill="#4e79a7"/><circle cx="88.2" cy="223.5" r="3" fill="#4e79a7"/><circle cx="100.3" cy="232.0" r="3" fill="#4e79a7"/><circle cx="112.3" cy="232.0" r="3" fill="#4e79a7"/><circle cx="124.4" cy="232.0" r="3" fill="#4e79a7"/><circle cx="136.5" cy="215.0" r="3" fill="#4e79a7"/><circle cx="148.5" cy="223.5" r="3" fill="#4e79a7"/><circle cx="160.6" cy="215.0" r="3" fill="#4e79a7"/><circle cx="172.6" cy="206.5" r="3" fill="#4e79a7"/><circle cx="184.7" cy="189.5" r="3" fill="#4e79a7"/><circle cx="196.8" cy="223.5" r="3" fill="#4e79a7"/><circle cx="208.8" cy="223.5" r="3" fill="#4e79a7"/><circle cx="220.9" cy="223.5" r="3" fill="#4e79a7"/><circle cx="233.0" cy="232.0" r="3" fill="#4e79a7"/><circle cx="245.0" cy="223.5" r="3" fill="#4e79a7"/><circle cx="257.1" cy="198.0" r="3" fill="#4e79a7"/><circle cx="269.2" cy="232.0" r="3" fill="#4e79a7"/><circle cx="281.2" cy="232.0" r="3" fill="#4e79a7"/><circle cx="293.3" cy="215.0" r="3" fill="#4e79a7"/><circle cx="305.4" cy="232.0" r="3" fill="#4e79a7"/><circle cx="317.4" cy="232.0" r="3" fill="#4e79a7"/><circle cx="329.5" cy="232.0" r="3" fill="#4e79a7"/><circle cx="341.5" cy="223.5" r="3" fill="#4e79a7"/><circle cx="353.6" cy="232.0" r="3" fill="#4e79a7"/><circle cx="365.7" cy="232.0" r="3" fill="#4e79a7"/><circle cx="377.7" cy="232.0" r="3" fill="#4e79a7"/><circle cx="389.8" cy="232.0" r="3" fill="#4e79a7"/><circle cx="401.9" cy="181.0" r="3" fill="#4e79a7"/><circle cx="413.9" cy="198.0" r="3" fill="#4e79a7"/><circle cx="426.0" cy="223.5" r="3" fill="#4e79a7"/><circle cx="438.1" cy="223.5" r="3" fill="#4e79a7"/><circle cx="450.1" cy="232.0" r="3" fill="#4e79a7"/><circle cx="462.2" cy="232.0" r="3" fill="#4e79a7"/><circle cx="474.3" cy="232.0" r="3" fill="#4e79a7"/><circle cx="486.3" cy="215.0" r="3" fill="#4e79a7"/><circle cx="498.4" cy="223.5" r="3" fill="#4e79a7"/><circle cx="510.5" cy="121.5" r="3" fill="#4e79a7"/><circle cx="522.5" cy="215.0" r="3" fill="#4e79a7"/><circle cx="534.6" cy="164.0" r="3" fill="#4e79a7"/><circle cx="546.6" cy="223.5" r="3" fill="#4e79a7"/><circle cx="558.7" cy="181.0" r="3" fill="#4e79a7"/><circle cx="570.8" cy="223.5" r="3" fill="#4e79a7"/><circle cx="582.8" cy="232.0" r="3" fill="#4e79a7"/><circle cx="594.9" cy="189.5" r="3" fill="#4e79a7"/><circle cx="607.0" cy="223.5" r="3" fill="#4e79a7"/><circle cx="619.0" cy="215.0" r="3" fill="#4e79a7"/><circle cx="631.1" cy="223.5" r="3" fill="#4e79a7"/><circle cx="643.2" cy="232.0" r="3" fill="#4e79a7"/><circle cx="655.2" cy="206.5" r="3" fill="#4e79a7"/><circle cx="667.3" cy="232.0" r="3" fill="#4e79a7"/><circle cx="679.4" cy="232.0" r="3" fill="#4e79a7"/><circle cx="691.4" cy="223.5" r="3" fill="#4e79a7"/><circle cx="703.5" cy="232.0" r="3" fill="#4e79a7"/><circle cx="715.5" cy="232.0" r="3" fill="#4e79a7"/><circle cx="727.6" cy="223.5" r="3" fill="#4e79a7"/><circle cx="739.7" cy="189.5" r="3" fill="#4e79a7"/><circle cx="751.7" cy="215.0" r="3" fill="#4e79a7"/><circle cx="763.8" cy="223.5" r="3" fill="#4e79a7"/><circle cx="775.9" cy="223.5" r="3" fill="#4e79a7"/><circle cx="787.9" cy="223.5" r="3" fill="#4e79a7"/><circle cx="800.0" cy="232.0" r="3" fill="#4e79a7"/>
  <circle cx="52.0" cy="232.0" r="3" fill="#f28e2b"/><circle cx="64.1" cy="223.5" r="3" fill="#f28e2b"/><circle cx="76.1" cy="113.0" r="3" fill="#f28e2b"/><circle cx="88.2" cy="223.5" r="3" fill="#f28e2b"/><circle cx="100.3" cy="232.0" r="3" fill="#f28e2b"/><circle cx="112.3" cy="232.0" r="3" fill="#f28e2b"/><circle cx="124.4" cy="232.0" r="3" fill="#f28e2b"/><circle cx="136.5" cy="215.0" r="3" fill="#f28e2b"/><circle cx="148.5" cy="223.5" r="3" fill="#f28e2b"/><circle cx="160.6" cy="215.0" r="3" fill="#f28e2b"/><circle cx="172.6" cy="206.5" r="3" fill="#f28e2b"/><circle cx="184.7" cy="215.0" r="3" fill="#f28e2b"/><circle cx="196.8" cy="223.5" r="3" fill="#f28e2b"/><circle cx="208.8" cy="223.5" r="3" fill="#f28e2b"/><circle cx="220.9" cy="223.5" r="3" fill="#f28e2b"/><circle cx="233.0" cy="232.0" r="3" fill="#f28e2b"/><circle cx="245.0" cy="223.5" r="3" fill="#f28e2b"/><circle cx="257.1" cy="206.5" r="3" fill="#f28e2b"/><circle cx="269.2" cy="232.0" r="3" fill="#f28e2b"/><circle cx="281.2" cy="232.0" r="3" fill="#f28e2b"/><circle cx="293.3" cy="215.0" r="3" fill="#f28e2b"/><circle cx="305.4" cy="232.0" r="3" fill="#f28e2b"/><circle cx="317.4" cy="232.0" r="3" fill="#f28e2b"/><circle cx="329.5" cy="232.0" r="3" fill="#f28e2b"/><circle cx="341.5" cy="223.5" r="3" fill="#f28e2b"/><circle cx="353.6" cy="232.0" r="3" fill="#f28e2b"/><circle cx="365.7" cy="232.0" r="3" fill="#f28e2b"/><circle cx="377.7" cy="232.0" r="3" fill="#f28e2b"/><circle cx="389.8" cy="232.0" r="3" fill="#f28e2b"/><circle cx="401.9" cy="198.0" r="3" fill="#f28e2b"/><circle cx="413.9" cy="215.0" r="3" fill="#f28e2b"/><circle cx="426.0" cy="223.5" r="3" fill="#f28e2b"/><circle cx="438.1" cy="223.5" r="3" fill="#f28e2b"/><circle cx="450.1" cy="232.0" r="3" fill="#f28e2b"/><circle cx="462.2" cy="232.0" r="3" fill="#f28e2b"/><circle cx="474.3" cy="232.0" r="3" fill="#f28e2b"/><circle cx="486.3" cy="215.0" r="3" fill="#f28e2b"/><circle cx="498.4" cy="223.5" r="3" fill="#f28e2b"/><circle cx="510.5" cy="147.0" r="3" fill="#f28e2b"/><circle cx="522.5" cy="215.0" r="3" fill="#f28e2b"/><circle cx="534.6" cy="189.5" r="3" fill="#f28e2b"/><circle cx="546.6" cy="223.5" r="3" fill="#f28e2b"/><circle cx="558.7" cy="206.5" r="3" fill="#f28e2b"/><circle cx="570.8" cy="223.5" r="3" fill="#f28e2b"/><circle cx="582.8" cy="232.0" r="3" fill="#f28e2b"/><circle cx="594.9" cy="215.0" r="3" fill="#f28e2b"/><circle cx="607.0" cy="223.5" r="3" fill="#f28e2b"/><circle cx="619.0" cy="215.0" r="3" fill="#f28e2b"/><circle cx="631.1" cy="223.5" r="3" fill="#f28e2b"/><circle cx="643.2" cy="232.0" r="3" fill="#f28e2b"/><circle cx="655.2" cy="206.5" r="3" fill="#f28e2b"/><circle cx="667.3" cy="232.0" r="3" fill="#f28e2b"/><circle cx="679.4" cy="232.0" r="3" fill="#f28e2b"/><circle cx="691.4" cy="223.5" r="3" fill="#f28e2b"/><circle cx="703.5" cy="232.0" r="3" fill="#f28e2b"/><circle cx="715.5" cy="232.0" r="3" fill="#f28e2b"/><circle cx="727.6" cy="223.5" r="3" fill="#f28e2b"/><circle cx="739.7" cy="223.5" r="3" fill="#f28e2b"/><circle cx="751.7" cy="215.0" r="3" fill="#f28e2b"/><circle cx="763.8" cy="223.5" r="3" fill="#f28e2b"/><circle cx="775.9" cy="223.5" r="3" fill="#f28e2b"/><circle cx="787.9" cy="223.5" r="3" fill="#f28e2b"/><circle cx="800.0" cy="232.0" r="3" fill="#f28e2b"/>

  <!-- axes -->
  <line x1="52" y1="28" x2="52" y2="232"
        stroke="#cccccc" stroke-width="1"/>
  <line x1="52" y1="232" x2="800" y2="232"
        stroke="#cccccc" stroke-width="1"/>

  <!-- y-axis labels -->
  <text x="47" y="236.0" text-anchor="end" font-size="10" fill="#57606a" font-family="ui-monospace, SFMono-Regular, 'SF Mono', Menlo, monospace">0</text><text x="47" y="193.5" text-anchor="end" font-size="10" fill="#57606a" font-family="ui-monospace, SFMono-Regular, 'SF Mono', Menlo, monospace">5</text><text x="47" y="151.0" text-anchor="end" font-size="10" fill="#57606a" font-family="ui-monospace, SFMono-Regular, 'SF Mono', Menlo, monospace">10</text><text x="47" y="108.5" text-anchor="end" font-size="10" fill="#57606a" font-family="ui-monospace, SFMono-Regular, 'SF Mono', Menlo, monospace">15</text><text x="47" y="66.0" text-anchor="end" font-size="10" fill="#57606a" font-family="ui-monospace, SFMono-Regular, 'SF Mono', Menlo, monospace">20</text><text x="47" y="23.5" text-anchor="end" font-size="10" fill="#57606a" font-family="ui-monospace, SFMono-Regular, 'SF Mono', Menlo, monospace">25</text>

  <!-- x-axis labels -->
  <text x="52.0" y="248" text-anchor="middle" font-size="10" fill="#8c959f" font-family="ui-monospace, SFMono-Regular, 'SF Mono', Menlo, monospace">05-11</text><text x="474.3" y="248" text-anchor="middle" font-size="10" fill="#8c959f" font-family="ui-monospace, SFMono-Regular, 'SF Mono', Menlo, monospace">06-15</text><text x="136.5" y="248" text-anchor="middle" font-size="10" fill="#8c959f" font-family="ui-monospace, SFMono-Regular, 'SF Mono', Menlo, monospace">05-18</text><text x="558.7" y="248" text-anchor="middle" font-size="10" fill="#8c959f" font-family="ui-monospace, SFMono-Regular, 'SF Mono', Menlo, monospace">06-22</text><text x="220.9" y="248" text-anchor="middle" font-size="10" fill="#8c959f" font-family="ui-monospace, SFMono-Regular, 'SF Mono', Menlo, monospace">05-25</text><text x="643.2" y="248" text-anchor="middle" font-size="10" fill="#8c959f" font-family="ui-monospace, SFMono-Regular, 'SF Mono', Menlo, monospace">06-29</text><text x="305.4" y="248" text-anchor="middle" font-size="10" fill="#8c959f" font-family="ui-monospace, SFMono-Regular, 'SF Mono', Menlo, monospace">06-01</text><text x="727.6" y="248" text-anchor="middle" font-size="10" fill="#8c959f" font-family="ui-monospace, SFMono-Regular, 'SF Mono', Menlo, monospace">07-06</text><text x="389.8" y="248" text-anchor="middle" font-size="10" fill="#8c959f" font-family="ui-monospace, SFMono-Regular, 'SF Mono', Menlo, monospace">06-08</text><text x="800.0" y="248" text-anchor="middle" font-size="10" fill="#8c959f" font-family="ui-monospace, SFMono-Regular, 'SF Mono', Menlo, monospace">07-12</text>

  <!-- legend -->
  <rect x="60" y="262" width="16" height="3" fill="#4e79a7" rx="1"/><text x="80" y="268" font-size="11" fill="#57606a" font-family="-apple-system, BlinkMacSystemFont, 'Segoe UI', sans-serif">Total clones (120)</text><line x1="230" y1="264" x2="246" y2="264" stroke="#f28e2b" stroke-width="2" stroke-dasharray="5,3"/><text x="250" y="268" font-size="11" fill="#57606a" font-family="-apple-system, BlinkMacSystemFont, 'Segoe UI', sans-serif">Unique cloners</text>

</svg>