<svg xmlns="http://www.w3.org/2000/svg" viewBox="0 0 820 280" width="820" height="280">

  <!-- title -->
  <text x="52" y="18" font-size="13" font-weight="600"
        fill="#24292f" font-family="-apple-system, BlinkMacSystemFont, 'Segoe UI', sans-serif"
        >Clone traffic — gutenberg-stocks</text>
  <text x="800" y="18" font-size="10" fill="#8c959f"
        font-family="ui-monospace, SFMono-Regular, 'SF Mono', Menlo, monospace" text-anchor="end">2026-06-19</text>

  <!-- grid -->
  <line x1="52" y1="232.0" x2="800" y2="232.0" stroke="#e8e8e8" stroke-width="1"/><line x1="52" y1="189.5" x2="800" y2="189.5" stroke="#e8e8e8" stroke-width="1"/><line x1="52" y1="147.0" x2="800" y2="147.0" stroke="#e8e8e8" stroke-width="1"/><line x1="52" y1="104.5" x2="800" y2="104.5" stroke="#e8e8e8" stroke-width="1"/><line x1="52" y1="62.0" x2="800" y2="62.0" stroke="#e8e8e8" stroke-width="1"/><line x1="52" y1="19.5" x2="800" y2="19.5" stroke="#e8e8e8" stroke-width="1"/>

  <!-- area fill -->
  <path d="M52.0,232.0 L52.0,232.0 L72.2,223.5 L92.4,28.0 L112.6,223.5 L132.9,232.0 L153.1,232.0 L173.3,232.0 L193.5,215.0 L213.7,223.5 L233.9,215.0 L254.2,206.5 L274.4,189.5 L294.6,223.5 L314.8,223.5 L335.0,223.5 L355.2,232.0 L375.5,223.5 L395.7,198.0 L415.9,232.0 L436.1,232.0 L456.3,215.0 L476.5,232.0 L496.8,232.0 L517.0,232.0 L537.2,223.5 L557.4,232.0 L577.6,232.0 L597.8,232.0 L618.1,232.0 L638.3,181.0 L658.5,198.0 L678.7,223.5 L698.9,223.5 L719.1,232.0 L739.4,232.0 L759.6,232.0 L779.8,215.0 L800.0,223.5 L800.0,232.0 L52.0,232.0Z" fill="#4e79a7" opacity="0.12"/>

  <!-- lines -->
  <polyline points="52.0,232.0 72.2,223.5 92.4,28.0 112.6,223.5 132.9,232.0 153.1,232.0 173.3,232.0 193.5,215.0 213.7,223.5 233.9,215.0 254.2,206.5 274.4,189.5 294.6,223.5 314.8,223.5 335.0,223.5 355.2,232.0 375.5,223.5 395.7,198.0 415.9,232.0 436.1,232.0 456.3,215.0 476.5,232.0 496.8,232.0 517.0,232.0 537.2,223.5 557.4,232.0 577.6,232.0 597.8,232.0 618.1,232.0 638.3,181.0 658.5,198.0 678.7,223.5 698.9,223.5 719.1,232.0 739.4,232.0 759.6,232.0 779.8,215.0 800.0,223.5"
            fill="none" stroke="#4e79a7"
            stroke-width="2" stroke-linejoin="round"/>
  <polyline points="52.0,232.0 72.2,223.5 92.4,113.0 112.6,223.5 132.9,232.0 153.1,232.0 173.3,232.0 193.5,215.0 213.7,223.5 233.9,215.0 254.2,206.5 274.4,215.0 294.6,223.5 314.8,223.5 335.0,223.5 355.2,232.0 375.5,223.5 395.7,206.5 415.9,232.0 436.1,232.0 456.3,215.0 476.5,232.0 496.8,232.0 517.0,232.0 537.2,223.5 557.4,232.0 577.6,232.0 597.8,232.0 618.1,232.0 638.3,198.0 658.5,215.0 678.7,223.5 698.9,223.5 719.1,232.0 739.4,232.0 759.6,232.0 779.8,215.0 800.0,223.5"
            fill="none" stroke="#f28e2b"
            stroke-width="2" stroke-linejoin="round"
            stroke-dasharray="5,3"/>

  <!-- dots -->
  <circle cx="52.0" cy="232.0" r="3" fill="#4e79a7"/><circle cx="72.2" cy="223.5" r="3" fill="#4e79a7"/><circle cx="92.4" cy="28.0" r="3" fill="#4e79a7"/><circle cx="112.6" cy="223.5" r="3" fill="#4e79a7"/><circle cx="132.9" cy="232.0" r="3" fill="#4e79a7"/><circle cx="153.1" cy="232.0" r="3" fill="#4e79a7"/><circle cx="173.3" cy="232.0" r="3" fill="#4e79a7"/><circle cx="193.5" cy="215.0" r="3" fill="#4e79a7"/><circle cx="213.7" cy="223.5" r="3" fill="#4e79a7"/><circle cx="233.9" cy="215.0" r="3" fill="#4e79a7"/><circle cx="254.2" cy="206.5" r="3" fill="#4e79a7"/><circle cx="274.4" cy="189.5" r="3" fill="#4e79a7"/><circle cx="294.6" cy="223.5" r="3" fill="#4e79a7"/><circle cx="314.8" cy="223.5" r="3" fill="#4e79a7"/><circle cx="335.0" cy="223.5" r="3" fill="#4e79a7"/><circle cx="355.2" cy="232.0" r="3" fill="#4e79a7"/><circle cx="375.5" cy="223.5" r="3" fill="#4e79a7"/><circle cx="395.7" cy="198.0" r="3" fill="#4e79a7"/><circle cx="415.9" cy="232.0" r="3" fill="#4e79a7"/><circle cx="436.1" cy="232.0" r="3" fill="#4e79a7"/><circle cx="456.3" cy="215.0" r="3" fill="#4e79a7"/><circle cx="476.5" cy="232.0" r="3" fill="#4e79a7"/><circle cx="496.8" cy="232.0" r="3" fill="#4e79a7"/><circle cx="517.0" cy="232.0" r="3" fill="#4e79a7"/><circle cx="537.2" cy="223.5" r="3" fill="#4e79a7"/><circle cx="557.4" cy="232.0" r="3" fill="#4e79a7"/><circle cx="577.6" cy="232.0" r="3" fill="#4e79a7"/><circle cx="597.8" cy="232.0" r="3" fill="#4e79a7"/><circle cx="618.1" cy="232.0" r="3" fill="#4e79a7"/><circle cx="638.3" cy="181.0" r="3" fill="#4e79a7"/><circle cx="658.5" cy="198.0" r="3" fill="#4e79a7"/><circle cx="678.7" cy="223.5" r="3" fill="#4e79a7"/><circle cx="698.9" cy="223.5" r="3" fill="#4e79a7"/><circle cx="719.1" cy="232.0" r="3" fill="#4e79a7"/><circle cx="739.4" cy="232.0" r="3" fill="#4e79a7"/><circle cx="759.6" cy="232.0" r="3" fill="#4e79a7"/><circle cx="779.8" cy="215.0" r="3" fill="#4e79a7"/><circle cx="800.0" cy="223.5" r="3" fill="#4e79a7"/>
  <circle cx="52.0" cy="232.0" r="3" fill="#f28e2b"/><circle cx="72.2" cy="223.5" r="3" fill="#f28e2b"/><circle cx="92.4" cy="113.0" r="3" fill="#f28e2b"/><circle cx="112.6" cy="223.5" r="3" fill="#f28e2b"/><circle cx="132.9" cy="232.0" r="3" fill="#f28e2b"/><circle cx="153.1" cy="232.0" r="3" fill="#f28e2b"/><circle cx="173.3" cy="232.0" r="3" fill="#f28e2b"/><circle cx="193.5" cy="215.0" r="3" fill="#f28e2b"/><circle cx="213.7" cy="223.5" r="3" fill="#f28e2b"/><circle cx="233.9" cy="215.0" r="3" fill="#f28e2b"/><circle cx="254.2" cy="206.5" r="3" fill="#f28e2b"/><circle cx="274.4" cy="215.0" r="3" fill="#f28e2b"/><circle cx="294.6" cy="223.5" r="3" fill="#f28e2b"/><circle cx="314.8" cy="223.5" r="3" fill="#f28e2b"/><circle cx="335.0" cy="223.5" r="3" fill="#f28e2b"/><circle cx="355.2" cy="232.0" r="3" fill="#f28e2b"/><circle cx="375.5" cy="223.5" r="3" fill="#f28e2b"/><circle cx="395.7" cy="206.5" r="3" fill="#f28e2b"/><circle cx="415.9" cy="232.0" r="3" fill="#f28e2b"/><circle cx="436.1" cy="232.0" r="3" fill="#f28e2b"/><circle cx="456.3" cy="215.0" r="3" fill="#f28e2b"/><circle cx="476.5" cy="232.0" r="3" fill="#f28e2b"/><circle cx="496.8" cy="232.0" r="3" fill="#f28e2b"/><circle cx="517.0" cy="232.0" r="3" fill="#f28e2b"/><circle cx="537.2" cy="223.5" r="3" fill="#f28e2b"/><circle cx="557.4" cy="232.0" r="3" fill="#f28e2b"/><circle cx="577.6" cy="232.0" r="3" fill="#f28e2b"/><circle cx="597.8" cy="232.0" r="3" fill="#f28e2b"/><circle cx="618.1" cy="232.0" r="3" fill="#f28e2b"/><circle cx="638.3" cy="198.0" r="3" fill="#f28e2b"/><circle cx="658.5" cy="215.0" r="3" fill="#f28e2b"/><circle cx="678.7" cy="223.5" r="3" fill="#f28e2b"/><circle cx="698.9" cy="223.5" r="3" fill="#f28e2b"/><circle cx="719.1" cy="232.0" r="3" fill="#f28e2b"/><circle cx="739.4" cy="232.0" r="3" fill="#f28e2b"/><circle cx="759.6" cy="232.0" r="3" fill="#f28e2b"/><circle cx="779.8" cy="215.0" r="3" fill="#f28e2b"/><circle cx="800.0" cy="223.5" r="3" fill="#f28e2b"/>

  <!-- axes -->
  <line x1="52" y1="28" x2="52" y2="232"
        stroke="#cccccc" stroke-width="1"/>
  <line x1="52" y1="232" x2="800" y2="232"
        stroke="#cccccc" stroke-width="1"/>

  <!-- y-axis labels -->
  <text x="47" y="236.0" text-anchor="end" font-size="10" fill="#57606a" font-family="ui-monospace, SFMono-Regular, 'SF Mono', Menlo, monospace">0</text><text x="47" y="193.5" text-anchor="end" font-size="10" fill="#57606a" font-family="ui-monospace, SFMono-Regular, 'SF Mono', Menlo, monospace">5</text><text x="47" y="151.0" text-anchor="end" font-size="10" fill="#57606a" font-family="ui-monospace, SFMono-Regular, 'SF Mono', Menlo, monospace">10</text><text x="47" y="108.5" text-anchor="end" font-size="10" fill="#57606a" font-family="ui-monospace, SFMono-Regular, 'SF Mono', Menlo, monospace">15</text><text x="47" y="66.0" text-anchor="end" font-size="10" fill="#57606a" font-family="ui-monospace, SFMono-Regular, 'SF Mono', Menlo, monospace">20</text><text x="47" y="23.5" text-anchor="end" font-size="10" fill="#57606a" font-family="ui-monospace, SFMono-Regular, 'SF Mono', Menlo, monospace">25</text>

  <!-- x-axis labels -->
  <text x="52.0" y="248" text-anchor="middle" font-size="10" fill="#8c959f" font-family="ui-monospace, SFMono-Regular, 'SF Mono', Menlo, monospace">05-11</text><text x="698.9" y="248" text-anchor="middle" font-size="10" fill="#8c959f" font-family="ui-monospace, SFMono-Regular, 'SF Mono', Menlo, monospace">06-12</text><text x="132.9" y="248" text-anchor="middle" font-size="10" fill="#8c959f" font-family="ui-monospace, SFMono-Regular, 'SF Mono', Menlo, monospace">05-15</text><text x="779.8" y="248" text-anchor="middle" font-size="10" fill="#8c959f" font-family="ui-monospace, SFMono-Regular, 'SF Mono', Menlo, monospace">06-16</text><text x="800.0" y="248" text-anchor="middle" font-size="10" fill="#8c959f" font-family="ui-monospace, SFMono-Regular, 'SF Mono', Menlo, monospace">06-17</text><text x="213.7" y="248" text-anchor="middle" font-size="10" fill="#8c959f" font-family="ui-monospace, SFMono-Regular, 'SF Mono', Menlo, monospace">05-19</text><text x="294.6" y="248" text-anchor="middle" font-size="10" fill="#8c959f" font-family="ui-monospace, SFMono-Regular, 'SF Mono', Menlo, monospace">05-23</text><text x="375.5" y="248" text-anchor="middle" font-size="10" fill="#8c959f" font-family="ui-monospace, SFMono-Regular, 'SF Mono', Menlo, monospace">05-27</text><text x="456.3" y="248" text-anchor="middle" font-size="10" fill="#8c959f" font-family="ui-monospace, SFMono-Regular, 'SF Mono', Menlo, monospace">05-31</text><text x="537.2" y="248" text-anchor="middle" font-size="10" fill="#8c959f" font-family="ui-monospace, SFMono-Regular, 'SF Mono', Menlo, monospace">06-04</text><text x="618.1" y="248" text-anchor="middle" font-size="10" fill="#8c959f" font-family="ui-monospace, SFMono-Regular, 'SF Mono', Menlo, monospace">06-08</text>

  <!-- legend -->
  <rect x="60" y="262" width="16" height="3" fill="#4e79a7" rx="1"/><text x="80" y="268" font-size="11" fill="#57606a" font-family="-apple-system, BlinkMacSystemFont, 'Segoe UI', sans-serif">Total clones (65)</text><line x1="230" y1="264" x2="246" y2="264" stroke="#f28e2b" stroke-width="2" stroke-dasharray="5,3"/><text x="250" y="268" font-size="11" fill="#57606a" font-family="-apple-system, BlinkMacSystemFont, 'Segoe UI', sans-serif">Unique cloners</text>

</svg>