<svg xmlns="http://www.w3.org/2000/svg" viewBox="0 0 820 280" width="820" height="280">

  <!-- title -->
  <text x="52" y="18" font-size="13" font-weight="600"
        fill="#24292f" font-family="-apple-system, BlinkMacSystemFont, 'Segoe UI', sans-serif"
        >Clone traffic — gutenberg-stocks</text>
  <text x="800" y="18" font-size="10" fill="#8c959f"
        font-family="ui-monospace, SFMono-Regular, 'SF Mono', Menlo, monospace" text-anchor="end">2026-07-11</text>

  <!-- grid -->
  <line x1="52" y1="232.0" x2="800" y2="232.0" stroke="#e8e8e8" stroke-width="1"/><line x1="52" y1="189.5" x2="800" y2="189.5" stroke="#e8e8e8" stroke-width="1"/><line x1="52" y1="147.0" x2="800" y2="147.0" stroke="#e8e8e8" stroke-width="1"/><line x1="52" y1="104.5" x2="800" y2="104.5" stroke="#e8e8e8" stroke-width="1"/><line x1="52" y1="62.0" x2="800" y2="62.0" stroke="#e8e8e8" stroke-width="1"/><line x1="52" y1="19.5" x2="800" y2="19.5" stroke="#e8e8e8" stroke-width="1"/>

  <!-- area fill -->
  <path d="M52.0,232.0 L52.0,232.0 L64.7,223.5 L77.4,28.0 L90.0,223.5 L102.7,232.0 L115.4,232.0 L128.1,232.0 L140.7,215.0 L153.4,223.5 L166.1,215.0 L178.8,206.5 L191.5,189.5 L204.1,223.5 L216.8,223.5 L229.5,223.5 L242.2,232.0 L254.8,223.5 L267.5,198.0 L280.2,232.0 L292.9,232.0 L305.6,215.0 L318.2,232.0 L330.9,232.0 L343.6,232.0 L356.3,223.5 L368.9,232.0 L381.6,232.0 L394.3,232.0 L407.0,232.0 L419.7,181.0 L432.3,198.0 L445.0,223.5 L457.7,223.5 L470.4,232.0 L483.1,232.0 L495.7,232.0 L508.4,215.0 L521.1,223.5 L533.8,121.5 L546.4,215.0 L559.1,164.0 L571.8,223.5 L584.5,181.0 L597.2,223.5 L609.8,232.0 L622.5,189.5 L635.2,223.5 L647.9,215.0 L660.5,223.5 L673.2,232.0 L685.9,206.5 L698.6,232.0 L711.3,232.0 L723.9,223.5 L736.6,232.0 L749.3,232.0 L762.0,223.5 L774.6,189.5 L787.3,215.0 L800.0,223.5 L800.0,232.0 L52.0,232.0Z" fill="#4e79a7" opacity="0.12"/>

  <!-- lines -->
  <polyline points="52.0,232.0 64.7,223.5 77.4,28.0 90.0,223.5 102.7,232.0 115.4,232.0 128.1,232.0 140.7,215.0 153.4,223.5 166.1,215.0 178.8,206.5 191.5,189.5 204.1,223.5 216.8,223.5 229.5,223.5 242.2,232.0 254.8,223.5 267.5,198.0 280.2,232.0 292.9,232.0 305.6,215.0 318.2,232.0 330.9,232.0 343.6,232.0 356.3,223.5 368.9,232.0 381.6,232.0 394.3,232.0 407.0,232.0 419.7,181.0 432.3,198.0 445.0,223.5 457.7,223.5 470.4,232.0 483.1,232.0 495.7,232.0 508.4,215.0 521.1,223.5 533.8,121.5 546.4,215.0 559.1,164.0 571.8,223.5 584.5,181.0 597.2,223.5 609.8,232.0 622.5,189.5 635.2,223.5 647.9,215.0 660.5,223.5 673.2,232.0 685.9,206.5 698.6,232.0 711.3,232.0 723.9,223.5 736.6,232.0 749.3,232.0 762.0,223.5 774.6,189.5 787.3,215.0 800.0,223.5"
            fill="none" stroke="#4e79a7"
            stroke-width="2" stroke-linejoin="round"/>
  <polyline points="52.0,232.0 64.7,223.5 77.4,113.0 90.0,223.5 102.7,232.0 115.4,232.0 128.1,232.0 140.7,215.0 153.4,223.5 166.1,215.0 178.8,206.5 191.5,215.0 204.1,223.5 216.8,223.5 229.5,223.5 242.2,232.0 254.8,223.5 267.5,206.5 280.2,232.0 292.9,232.0 305.6,215.0 318.2,232.0 330.9,232.0 343.6,232.0 356.3,223.5 368.9,232.0 381.6,232.0 394.3,232.0 407.0,232.0 419.7,198.0 432.3,215.0 445.0,223.5 457.7,223.5 470.4,232.0 483.1,232.0 495.7,232.0 508.4,215.0 521.1,223.5 533.8,147.0 546.4,215.0 559.1,189.5 571.8,223.5 584.5,206.5 597.2,223.5 609.8,232.0 622.5,215.0 635.2,223.5 647.9,215.0 660.5,223.5 673.2,232.0 685.9,206.5 698.6,232.0 711.3,232.0 723.9,223.5 736.6,232.0 749.3,232.0 762.0,223.5 774.6,223.5 787.3,215.0 800.0,223.5"
            fill="none" stroke="#f28e2b"
            stroke-width="2" stroke-linejoin="round"
            stroke-dasharray="5,3"/>

  <!-- dots -->
  <circle cx="52.0" cy="232.0" r="3" fill="#4e79a7"/><circle cx="64.7" cy="223.5" r="3" fill="#4e79a7"/><circle cx="77.4" cy="28.0" r="3" fill="#4e79a7"/><circle cx="90.0" cy="223.5" r="3" fill="#4e79a7"/><circle cx="102.7" cy="232.0" r="3" fill="#4e79a7"/><circle cx="115.4" cy="232.0" r="3" fill="#4e79a7"/><circle cx="128.1" cy="232.0" r="3" fill="#4e79a7"/><circle cx="140.7" cy="215.0" r="3" fill="#4e79a7"/><circle cx="153.4" cy="223.5" r="3" fill="#4e79a7"/><circle cx="166.1" cy="215.0" r="3" fill="#4e79a7"/><circle cx="178.8" cy="206.5" r="3" fill="#4e79a7"/><circle cx="191.5" cy="189.5" r="3" fill="#4e79a7"/><circle cx="204.1" cy="223.5" r="3" fill="#4e79a7"/><circle cx="216.8" cy="223.5" r="3" fill="#4e79a7"/><circle cx="229.5" cy="223.5" r="3" fill="#4e79a7"/><circle cx="242.2" cy="232.0" r="3" fill="#4e79a7"/><circle cx="254.8" cy="223.5" r="3" fill="#4e79a7"/><circle cx="267.5" cy="198.0" r="3" fill="#4e79a7"/><circle cx="280.2" cy="232.0" r="3" fill="#4e79a7"/><circle cx="292.9" cy="232.0" r="3" fill="#4e79a7"/><circle cx="305.6" cy="215.0" r="3" fill="#4e79a7"/><circle cx="318.2" cy="232.0" r="3" fill="#4e79a7"/><circle cx="330.9" cy="232.0" r="3" fill="#4e79a7"/><circle cx="343.6" cy="232.0" r="3" fill="#4e79a7"/><circle cx="356.3" cy="223.5" r="3" fill="#4e79a7"/><circle cx="368.9" cy="232.0" r="3" fill="#4e79a7"/><circle cx="381.6" cy="232.0" r="3" fill="#4e79a7"/><circle cx="394.3" cy="232.0" r="3" fill="#4e79a7"/><circle cx="407.0" cy="232.0" r="3" fill="#4e79a7"/><circle cx="419.7" cy="181.0" r="3" fill="#4e79a7"/><circle cx="432.3" cy="198.0" r="3" fill="#4e79a7"/><circle cx="445.0" cy="223.5" r="3" fill="#4e79a7"/><circle cx="457.7" cy="223.5" r="3" fill="#4e79a7"/><circle cx="470.4" cy="232.0" r="3" fill="#4e79a7"/><circle cx="483.1" cy="232.0" r="3" fill="#4e79a7"/><circle cx="495.7" cy="232.0" r="3" fill="#4e79a7"/><circle cx="508.4" cy="215.0" r="3" fill="#4e79a7"/><circle cx="521.1" cy="223.5" r="3" fill="#4e79a7"/><circle cx="533.8" cy="121.5" r="3" fill="#4e79a7"/><circle cx="546.4" cy="215.0" r="3" fill="#4e79a7"/><circle cx="559.1" cy="164.0" r="3" fill="#4e79a7"/><circle cx="571.8" cy="223.5" r="3" fill="#4e79a7"/><circle cx="584.5" cy="181.0" r="3" fill="#4e79a7"/><circle cx="597.2" cy="223.5" r="3" fill="#4e79a7"/><circle cx="609.8" cy="232.0" r="3" fill="#4e79a7"/><circle cx="622.5" cy="189.5" r="3" fill="#4e79a7"/><circle cx="635.2" cy="223.5" r="3" fill="#4e79a7"/><circle cx="647.9" cy="215.0" r="3" fill="#4e79a7"/><circle cx="660.5" cy="223.5" r="3" fill="#4e79a7"/><circle cx="673.2" cy="232.0" r="3" fill="#4e79a7"/><circle cx="685.9" cy="206.5" r="3" fill="#4e79a7"/><circle cx="698.6" cy="232.0" r="3" fill="#4e79a7"/><circle cx="711.3" cy="232.0" r="3" fill="#4e79a7"/><circle cx="723.9" cy="223.5" r="3" fill="#4e79a7"/><circle cx="736.6" cy="232.0" r="3" fill="#4e79a7"/><circle cx="749.3" cy="232.0" r="3" fill="#4e79a7"/><circle cx="762.0" cy="223.5" r="3" fill="#4e79a7"/><circle cx="774.6" cy="189.5" r="3" fill="#4e79a7"/><circle cx="787.3" cy="215.0" r="3" fill="#4e79a7"/><circle cx="800.0" cy="223.5" r="3" fill="#4e79a7"/>
  <circle cx="52.0" cy="232.0" r="3" fill="#f28e2b"/><circle cx="64.7" cy="223.5" r="3" fill="#f28e2b"/><circle cx="77.4" cy="113.0" r="3" fill="#f28e2b"/><circle cx="90.0" cy="223.5" r="3" fill="#f28e2b"/><circle cx="102.7" cy="232.0" r="3" fill="#f28e2b"/><circle cx="115.4" cy="232.0" r="3" fill="#f28e2b"/><circle cx="128.1" cy="232.0" r="3" fill="#f28e2b"/><circle cx="140.7" cy="215.0" r="3" fill="#f28e2b"/><circle cx="153.4" cy="223.5" r="3" fill="#f28e2b"/><circle cx="166.1" cy="215.0" r="3" fill="#f28e2b"/><circle cx="178.8" cy="206.5" r="3" fill="#f28e2b"/><circle cx="191.5" cy="215.0" r="3" fill="#f28e2b"/><circle cx="204.1" cy="223.5" r="3" fill="#f28e2b"/><circle cx="216.8" cy="223.5" r="3" fill="#f28e2b"/><circle cx="229.5" cy="223.5" r="3" fill="#f28e2b"/><circle cx="242.2" cy="232.0" r="3" fill="#f28e2b"/><circle cx="254.8" cy="223.5" r="3" fill="#f28e2b"/><circle cx="267.5" cy="206.5" r="3" fill="#f28e2b"/><circle cx="280.2" cy="232.0" r="3" fill="#f28e2b"/><circle cx="292.9" cy="232.0" r="3" fill="#f28e2b"/><circle cx="305.6" cy="215.0" r="3" fill="#f28e2b"/><circle cx="318.2" cy="232.0" r="3" fill="#f28e2b"/><circle cx="330.9" cy="232.0" r="3" fill="#f28e2b"/><circle cx="343.6" cy="232.0" r="3" fill="#f28e2b"/><circle cx="356.3" cy="223.5" r="3" fill="#f28e2b"/><circle cx="368.9" cy="232.0" r="3" fill="#f28e2b"/><circle cx="381.6" cy="232.0" r="3" fill="#f28e2b"/><circle cx="394.3" cy="232.0" r="3" fill="#f28e2b"/><circle cx="407.0" cy="232.0" r="3" fill="#f28e2b"/><circle cx="419.7" cy="198.0" r="3" fill="#f28e2b"/><circle cx="432.3" cy="215.0" r="3" fill="#f28e2b"/><circle cx="445.0" cy="223.5" r="3" fill="#f28e2b"/><circle cx="457.7" cy="223.5" r="3" fill="#f28e2b"/><circle cx="470.4" cy="232.0" r="3" fill="#f28e2b"/><circle cx="483.1" cy="232.0" r="3" fill="#f28e2b"/><circle cx="495.7" cy="232.0" r="3" fill="#f28e2b"/><circle cx="508.4" cy="215.0" r="3" fill="#f28e2b"/><circle cx="521.1" cy="223.5" r="3" fill="#f28e2b"/><circle cx="533.8" cy="147.0" r="3" fill="#f28e2b"/><circle cx="546.4" cy="215.0" r="3" fill="#f28e2b"/><circle cx="559.1" cy="189.5" r="3" fill="#f28e2b"/><circle cx="571.8" cy="223.5" r="3" fill="#f28e2b"/><circle cx="584.5" cy="206.5" r="3" fill="#f28e2b"/><circle cx="597.2" cy="223.5" r="3" fill="#f28e2b"/><circle cx="609.8" cy="232.0" r="3" fill="#f28e2b"/><circle cx="622.5" cy="215.0" r="3" fill="#f28e2b"/><circle cx="635.2" cy="223.5" r="3" fill="#f28e2b"/><circle cx="647.9" cy="215.0" r="3" fill="#f28e2b"/><circle cx="660.5" cy="223.5" r="3" fill="#f28e2b"/><circle cx="673.2" cy="232.0" r="3" fill="#f28e2b"/><circle cx="685.9" cy="206.5" r="3" fill="#f28e2b"/><circle cx="698.6" cy="232.0" r="3" fill="#f28e2b"/><circle cx="711.3" cy="232.0" r="3" fill="#f28e2b"/><circle cx="723.9" cy="223.5" r="3" fill="#f28e2b"/><circle cx="736.6" cy="232.0" r="3" fill="#f28e2b"/><circle cx="749.3" cy="232.0" r="3" fill="#f28e2b"/><circle cx="762.0" cy="223.5" r="3" fill="#f28e2b"/><circle cx="774.6" cy="223.5" r="3" fill="#f28e2b"/><circle cx="787.3" cy="215.0" r="3" fill="#f28e2b"/><circle cx="800.0" cy="223.5" r="3" fill="#f28e2b"/>

  <!-- axes -->
  <line x1="52" y1="28" x2="52" y2="232"
        stroke="#cccccc" stroke-width="1"/>
  <line x1="52" y1="232" x2="800" y2="232"
        stroke="#cccccc" stroke-width="1"/>

  <!-- y-axis labels -->
  <text x="47" y="236.0" text-anchor="end" font-size="10" fill="#57606a" font-family="ui-monospace, SFMono-Regular, 'SF Mono', Menlo, monospace">0</text><text x="47" y="193.5" text-anchor="end" font-size="10" fill="#57606a" font-family="ui-monospace, SFMono-Regular, 'SF Mono', Menlo, monospace">5</text><text x="47" y="151.0" text-anchor="end" font-size="10" fill="#57606a" font-family="ui-monospace, SFMono-Regular, 'SF Mono', Menlo, monospace">10</text><text x="47" y="108.5" text-anchor="end" font-size="10" fill="#57606a" font-family="ui-monospace, SFMono-Regular, 'SF Mono', Menlo, monospace">15</text><text x="47" y="66.0" text-anchor="end" font-size="10" fill="#57606a" font-family="ui-monospace, SFMono-Regular, 'SF Mono', Menlo, monospace">20</text><text x="47" y="23.5" text-anchor="end" font-size="10" fill="#57606a" font-family="ui-monospace, SFMono-Regular, 'SF Mono', Menlo, monospace">25</text>

  <!-- x-axis labels -->
  <text x="52.0" y="248" text-anchor="middle" font-size="10" fill="#8c959f" font-family="ui-monospace, SFMono-Regular, 'SF Mono', Menlo, monospace">05-11</text><text x="495.7" y="248" text-anchor="middle" font-size="10" fill="#8c959f" font-family="ui-monospace, SFMono-Regular, 'SF Mono', Menlo, monospace">06-15</text><text x="140.7" y="248" text-anchor="middle" font-size="10" fill="#8c959f" font-family="ui-monospace, SFMono-Regular, 'SF Mono', Menlo, monospace">05-18</text><text x="584.5" y="248" text-anchor="middle" font-size="10" fill="#8c959f" font-family="ui-monospace, SFMono-Regular, 'SF Mono', Menlo, monospace">06-22</text><text x="229.5" y="248" text-anchor="middle" font-size="10" fill="#8c959f" font-family="ui-monospace, SFMono-Regular, 'SF Mono', Menlo, monospace">05-25</text><text x="673.2" y="248" text-anchor="middle" font-size="10" fill="#8c959f" font-family="ui-monospace, SFMono-Regular, 'SF Mono', Menlo, monospace">06-29</text><text x="318.2" y="248" text-anchor="middle" font-size="10" fill="#8c959f" font-family="ui-monospace, SFMono-Regular, 'SF Mono', Menlo, monospace">06-01</text><text x="762.0" y="248" text-anchor="middle" font-size="10" fill="#8c959f" font-family="ui-monospace, SFMono-Regular, 'SF Mono', Menlo, monospace">07-06</text><text x="800.0" y="248" text-anchor="middle" font-size="10" fill="#8c959f" font-family="ui-monospace, SFMono-Regular, 'SF Mono', Menlo, monospace">07-09</text><text x="407.0" y="248" text-anchor="middle" font-size="10" fill="#8c959f" font-family="ui-monospace, SFMono-Regular, 'SF Mono', Menlo, monospace">06-08</text>

  <!-- legend -->
  <rect x="60" y="262" width="16" height="3" fill="#4e79a7" rx="1"/><text x="80" y="268" font-size="11" fill="#57606a" font-family="-apple-system, BlinkMacSystemFont, 'Segoe UI', sans-serif">Total clones (118)</text><line x1="230" y1="264" x2="246" y2="264" stroke="#f28e2b" stroke-width="2" stroke-dasharray="5,3"/><text x="250" y="268" font-size="11" fill="#57606a" font-family="-apple-system, BlinkMacSystemFont, 'Segoe UI', sans-serif">Unique cloners</text>

</svg>