<svg xmlns="http://www.w3.org/2000/svg" viewBox="0 0 820 280" width="820" height="280">

  <!-- title -->
  <text x="52" y="18" font-size="13" font-weight="600"
        fill="#24292f" font-family="-apple-system, BlinkMacSystemFont, 'Segoe UI', sans-serif"
        >Clone traffic — gutenberg-stocks</text>
  <text x="800" y="18" font-size="10" fill="#8c959f"
        font-family="ui-monospace, SFMono-Regular, 'SF Mono', Menlo, monospace" text-anchor="end">2026-05-30</text>

  <!-- grid -->
  <line x1="52" y1="232.0" x2="800" y2="232.0" stroke="#e8e8e8" stroke-width="1"/><line x1="52" y1="189.5" x2="800" y2="189.5" stroke="#e8e8e8" stroke-width="1"/><line x1="52" y1="147.0" x2="800" y2="147.0" stroke="#e8e8e8" stroke-width="1"/><line x1="52" y1="104.5" x2="800" y2="104.5" stroke="#e8e8e8" stroke-width="1"/><line x1="52" y1="62.0" x2="800" y2="62.0" stroke="#e8e8e8" stroke-width="1"/><line x1="52" y1="19.5" x2="800" y2="19.5" stroke="#e8e8e8" stroke-width="1"/>

  <!-- area fill -->
  <path d="M52.0,232.0 L52.0,232.0 L96.0,223.5 L140.0,28.0 L184.0,223.5 L228.0,232.0 L272.0,232.0 L316.0,232.0 L360.0,215.0 L404.0,223.5 L448.0,215.0 L492.0,206.5 L536.0,189.5 L580.0,223.5 L624.0,223.5 L668.0,223.5 L712.0,232.0 L756.0,223.5 L800.0,198.0 L800.0,232.0 L52.0,232.0Z" fill="#4e79a7" opacity="0.12"/>

  <!-- lines -->
  <polyline points="52.0,232.0 96.0,223.5 140.0,28.0 184.0,223.5 228.0,232.0 272.0,232.0 316.0,232.0 360.0,215.0 404.0,223.5 448.0,215.0 492.0,206.5 536.0,189.5 580.0,223.5 624.0,223.5 668.0,223.5 712.0,232.0 756.0,223.5 800.0,198.0"
            fill="none" stroke="#4e79a7"
            stroke-width="2" stroke-linejoin="round"/>
  <polyline points="52.0,232.0 96.0,223.5 140.0,113.0 184.0,223.5 228.0,232.0 272.0,232.0 316.0,232.0 360.0,215.0 404.0,223.5 448.0,215.0 492.0,206.5 536.0,215.0 580.0,223.5 624.0,223.5 668.0,223.5 712.0,232.0 756.0,223.5 800.0,206.5"
            fill="none" stroke="#f28e2b"
            stroke-width="2" stroke-linejoin="round"
            stroke-dasharray="5,3"/>

  <!-- dots -->
  <circle cx="52.0" cy="232.0" r="3" fill="#4e79a7"/><circle cx="96.0" cy="223.5" r="3" fill="#4e79a7"/><circle cx="140.0" cy="28.0" r="3" fill="#4e79a7"/><circle cx="184.0" cy="223.5" r="3" fill="#4e79a7"/><circle cx="228.0" cy="232.0" r="3" fill="#4e79a7"/><circle cx="272.0" cy="232.0" r="3" fill="#4e79a7"/><circle cx="316.0" cy="232.0" r="3" fill="#4e79a7"/><circle cx="360.0" cy="215.0" r="3" fill="#4e79a7"/><circle cx="404.0" cy="223.5" r="3" fill="#4e79a7"/><circle cx="448.0" cy="215.0" r="3" fill="#4e79a7"/><circle cx="492.0" cy="206.5" r="3" fill="#4e79a7"/><circle cx="536.0" cy="189.5" r="3" fill="#4e79a7"/><circle cx="580.0" cy="223.5" r="3" fill="#4e79a7"/><circle cx="624.0" cy="223.5" r="3" fill="#4e79a7"/><circle cx="668.0" cy="223.5" r="3" fill="#4e79a7"/><circle cx="712.0" cy="232.0" r="3" fill="#4e79a7"/><circle cx="756.0" cy="223.5" r="3" fill="#4e79a7"/><circle cx="800.0" cy="198.0" r="3" fill="#4e79a7"/>
  <circle cx="52.0" cy="232.0" r="3" fill="#f28e2b"/><circle cx="96.0" cy="223.5" r="3" fill="#f28e2b"/><circle cx="140.0" cy="113.0" r="3" fill="#f28e2b"/><circle cx="184.0" cy="223.5" r="3" fill="#f28e2b"/><circle cx="228.0" cy="232.0" r="3" fill="#f28e2b"/><circle cx="272.0" cy="232.0" r="3" fill="#f28e2b"/><circle cx="316.0" cy="232.0" r="3" fill="#f28e2b"/><circle cx="360.0" cy="215.0" r="3" fill="#f28e2b"/><circle cx="404.0" cy="223.5" r="3" fill="#f28e2b"/><circle cx="448.0" cy="215.0" r="3" fill="#f28e2b"/><circle cx="492.0" cy="206.5" r="3" fill="#f28e2b"/><circle cx="536.0" cy="215.0" r="3" fill="#f28e2b"/><circle cx="580.0" cy="223.5" r="3" fill="#f28e2b"/><circle cx="624.0" cy="223.5" r="3" fill="#f28e2b"/><circle cx="668.0" cy="223.5" r="3" fill="#f28e2b"/><circle cx="712.0" cy="232.0" r="3" fill="#f28e2b"/><circle cx="756.0" cy="223.5" r="3" fill="#f28e2b"/><circle cx="800.0" cy="206.5" r="3" fill="#f28e2b"/>

  <!-- axes -->
  <line x1="52" y1="28" x2="52" y2="232"
        stroke="#cccccc" stroke-width="1"/>
  <line x1="52" y1="232" x2="800" y2="232"
        stroke="#cccccc" stroke-width="1"/>

  <!-- y-axis labels -->
  <text x="47" y="236.0" text-anchor="end" font-size="10" fill="#57606a" font-family="ui-monospace, SFMono-Regular, 'SF Mono', Menlo, monospace">0</text><text x="47" y="193.5" text-anchor="end" font-size="10" fill="#57606a" font-family="ui-monospace, SFMono-Regular, 'SF Mono', Menlo, monospace">5</text><text x="47" y="151.0" text-anchor="end" font-size="10" fill="#57606a" font-family="ui-monospace, SFMono-Regular, 'SF Mono', Menlo, monospace">10</text><text x="47" y="108.5" text-anchor="end" font-size="10" fill="#57606a" font-family="ui-monospace, SFMono-Regular, 'SF Mono', Menlo, monospace">15</text><text x="47" y="66.0" text-anchor="end" font-size="10" fill="#57606a" font-family="ui-monospace, SFMono-Regular, 'SF Mono', Menlo, monospace">20</text><text x="47" y="23.5" text-anchor="end" font-size="10" fill="#57606a" font-family="ui-monospace, SFMono-Regular, 'SF Mono', Menlo, monospace">25</text>

  <!-- x-axis labels -->
  <text x="52.0" y="248" text-anchor="middle" font-size="10" fill="#8c959f" font-family="ui-monospace, SFMono-Regular, 'SF Mono', Menlo, monospace">05-11</text><text x="140.0" y="248" text-anchor="middle" font-size="10" fill="#8c959f" font-family="ui-monospace, SFMono-Regular, 'SF Mono', Menlo, monospace">05-13</text><text x="228.0" y="248" text-anchor="middle" font-size="10" fill="#8c959f" font-family="ui-monospace, SFMono-Regular, 'SF Mono', Menlo, monospace">05-15</text><text x="316.0" y="248" text-anchor="middle" font-size="10" fill="#8c959f" font-family="ui-monospace, SFMono-Regular, 'SF Mono', Menlo, monospace">05-17</text><text x="404.0" y="248" text-anchor="middle" font-size="10" fill="#8c959f" font-family="ui-monospace, SFMono-Regular, 'SF Mono', Menlo, monospace">05-19</text><text x="492.0" y="248" text-anchor="middle" font-size="10" fill="#8c959f" font-family="ui-monospace, SFMono-Regular, 'SF Mono', Menlo, monospace">05-21</text><text x="580.0" y="248" text-anchor="middle" font-size="10" fill="#8c959f" font-family="ui-monospace, SFMono-Regular, 'SF Mono', Menlo, monospace">05-23</text><text x="668.0" y="248" text-anchor="middle" font-size="10" fill="#8c959f" font-family="ui-monospace, SFMono-Regular, 'SF Mono', Menlo, monospace">05-25</text><text x="756.0" y="248" text-anchor="middle" font-size="10" fill="#8c959f" font-family="ui-monospace, SFMono-Regular, 'SF Mono', Menlo, monospace">05-27</text><text x="800.0" y="248" text-anchor="middle" font-size="10" fill="#8c959f" font-family="ui-monospace, SFMono-Regular, 'SF Mono', Menlo, monospace">05-28</text>

  <!-- legend -->
  <rect x="60" y="262" width="16" height="3" fill="#4e79a7" rx="1"/><text x="80" y="268" font-size="11" fill="#57606a" font-family="-apple-system, BlinkMacSystemFont, 'Segoe UI', sans-serif">Total clones (47)</text><line x1="230" y1="264" x2="246" y2="264" stroke="#f28e2b" stroke-width="2" stroke-dasharray="5,3"/><text x="250" y="268" font-size="11" fill="#57606a" font-family="-apple-system, BlinkMacSystemFont, 'Segoe UI', sans-serif">Unique cloners</text>

</svg>