<svg xmlns="http://www.w3.org/2000/svg" viewBox="0 0 820 280" width="820" height="280">

  <!-- title -->
  <text x="52" y="18" font-size="13" font-weight="600"
        fill="#24292f" font-family="-apple-system, BlinkMacSystemFont, 'Segoe UI', sans-serif"
        >Clone traffic — gutenberg-stocks</text>
  <text x="800" y="18" font-size="10" fill="#8c959f"
        font-family="ui-monospace, SFMono-Regular, 'SF Mono', Menlo, monospace" text-anchor="end">2026-07-22</text>

  <!-- grid -->
  <line x1="52" y1="232.0" x2="800" y2="232.0" stroke="#e8e8e8" stroke-width="1"/><line x1="52" y1="189.5" x2="800" y2="189.5" stroke="#e8e8e8" stroke-width="1"/><line x1="52" y1="147.0" x2="800" y2="147.0" stroke="#e8e8e8" stroke-width="1"/><line x1="52" y1="104.5" x2="800" y2="104.5" stroke="#e8e8e8" stroke-width="1"/><line x1="52" y1="62.0" x2="800" y2="62.0" stroke="#e8e8e8" stroke-width="1"/><line x1="52" y1="19.5" x2="800" y2="19.5" stroke="#e8e8e8" stroke-width="1"/>

  <!-- area fill -->
  <path d="M52.0,232.0 L52.0,232.0 L62.5,223.5 L73.1,28.0 L83.6,223.5 L94.1,232.0 L104.7,232.0 L115.2,232.0 L125.7,215.0 L136.3,223.5 L146.8,215.0 L157.4,206.5 L167.9,189.5 L178.4,223.5 L189.0,223.5 L199.5,223.5 L210.0,232.0 L220.6,223.5 L231.1,198.0 L241.6,232.0 L252.2,232.0 L262.7,215.0 L273.2,232.0 L283.8,232.0 L294.3,232.0 L304.8,223.5 L315.4,232.0 L325.9,232.0 L336.5,232.0 L347.0,232.0 L357.5,181.0 L368.1,198.0 L378.6,223.5 L389.1,223.5 L399.7,232.0 L410.2,232.0 L420.7,232.0 L431.3,215.0 L441.8,223.5 L452.3,121.5 L462.9,215.0 L473.4,164.0 L483.9,223.5 L494.5,181.0 L505.0,223.5 L515.5,232.0 L526.1,189.5 L536.6,223.5 L547.2,215.0 L557.7,223.5 L568.2,232.0 L578.8,206.5 L589.3,232.0 L599.8,232.0 L610.4,223.5 L620.9,232.0 L631.4,232.0 L642.0,223.5 L652.5,189.5 L663.0,215.0 L673.6,223.5 L684.1,223.5 L694.6,223.5 L705.2,232.0 L715.7,223.5 L726.3,232.0 L736.8,223.5 L747.3,223.5 L757.9,223.5 L768.4,215.0 L778.9,232.0 L789.5,232.0 L800.0,223.5 L800.0,232.0 L52.0,232.0Z" fill="#4e79a7" opacity="0.12"/>

  <!-- lines -->
  <polyline points="52.0,232.0 62.5,223.5 73.1,28.0 83.6,223.5 94.1,232.0 104.7,232.0 115.2,232.0 125.7,215.0 136.3,223.5 146.8,215.0 157.4,206.5 167.9,189.5 178.4,223.5 189.0,223.5 199.5,223.5 210.0,232.0 220.6,223.5 231.1,198.0 241.6,232.0 252.2,232.0 262.7,215.0 273.2,232.0 283.8,232.0 294.3,232.0 304.8,223.5 315.4,232.0 325.9,232.0 336.5,232.0 347.0,232.0 357.5,181.0 368.1,198.0 378.6,223.5 389.1,223.5 399.7,232.0 410.2,232.0 420.7,232.0 431.3,215.0 441.8,223.5 452.3,121.5 462.9,215.0 473.4,164.0 483.9,223.5 494.5,181.0 505.0,223.5 515.5,232.0 526.1,189.5 536.6,223.5 547.2,215.0 557.7,223.5 568.2,232.0 578.8,206.5 589.3,232.0 599.8,232.0 610.4,223.5 620.9,232.0 631.4,232.0 642.0,223.5 652.5,189.5 663.0,215.0 673.6,223.5 684.1,223.5 694.6,223.5 705.2,232.0 715.7,223.5 726.3,232.0 736.8,223.5 747.3,223.5 757.9,223.5 768.4,215.0 778.9,232.0 789.5,232.0 800.0,223.5"
            fill="none" stroke="#4e79a7"
            stroke-width="2" stroke-linejoin="round"/>
  <polyline points="52.0,232.0 62.5,223.5 73.1,113.0 83.6,223.5 94.1,232.0 104.7,232.0 115.2,232.0 125.7,215.0 136.3,223.5 146.8,215.0 157.4,206.5 167.9,215.0 178.4,223.5 189.0,223.5 199.5,223.5 210.0,232.0 220.6,223.5 231.1,206.5 241.6,232.0 252.2,232.0 262.7,215.0 273.2,232.0 283.8,232.0 294.3,232.0 304.8,223.5 315.4,232.0 325.9,232.0 336.5,232.0 347.0,232.0 357.5,198.0 368.1,215.0 378.6,223.5 389.1,223.5 399.7,232.0 410.2,232.0 420.7,232.0 431.3,215.0 441.8,223.5 452.3,147.0 462.9,215.0 473.4,189.5 483.9,223.5 494.5,206.5 505.0,223.5 515.5,232.0 526.1,215.0 536.6,223.5 547.2,215.0 557.7,223.5 568.2,232.0 578.8,206.5 589.3,232.0 599.8,232.0 610.4,223.5 620.9,232.0 631.4,232.0 642.0,223.5 652.5,223.5 663.0,215.0 673.6,223.5 684.1,223.5 694.6,223.5 705.2,232.0 715.7,223.5 726.3,232.0 736.8,223.5 747.3,223.5 757.9,223.5 768.4,215.0 778.9,232.0 789.5,232.0 800.0,223.5"
            fill="none" stroke="#f28e2b"
            stroke-width="2" stroke-linejoin="round"
            stroke-dasharray="5,3"/>

  <!-- dots -->
  <circle cx="52.0" cy="232.0" r="3" fill="#4e79a7"/><circle cx="62.5" cy="223.5" r="3" fill="#4e79a7"/><circle cx="73.1" cy="28.0" r="3" fill="#4e79a7"/><circle cx="83.6" cy="223.5" r="3" fill="#4e79a7"/><circle cx="94.1" cy="232.0" r="3" fill="#4e79a7"/><circle cx="104.7" cy="232.0" r="3" fill="#4e79a7"/><circle cx="115.2" cy="232.0" r="3" fill="#4e79a7"/><circle cx="125.7" cy="215.0" r="3" fill="#4e79a7"/><circle cx="136.3" cy="223.5" r="3" fill="#4e79a7"/><circle cx="146.8" cy="215.0" r="3" fill="#4e79a7"/><circle cx="157.4" cy="206.5" r="3" fill="#4e79a7"/><circle cx="167.9" cy="189.5" r="3" fill="#4e79a7"/><circle cx="178.4" cy="223.5" r="3" fill="#4e79a7"/><circle cx="189.0" cy="223.5" r="3" fill="#4e79a7"/><circle cx="199.5" cy="223.5" r="3" fill="#4e79a7"/><circle cx="210.0" cy="232.0" r="3" fill="#4e79a7"/><circle cx="220.6" cy="223.5" r="3" fill="#4e79a7"/><circle cx="231.1" cy="198.0" r="3" fill="#4e79a7"/><circle cx="241.6" cy="232.0" r="3" fill="#4e79a7"/><circle cx="252.2" cy="232.0" r="3" fill="#4e79a7"/><circle cx="262.7" cy="215.0" r="3" fill="#4e79a7"/><circle cx="273.2" cy="232.0" r="3" fill="#4e79a7"/><circle cx="283.8" cy="232.0" r="3" fill="#4e79a7"/><circle cx="294.3" cy="232.0" r="3" fill="#4e79a7"/><circle cx="304.8" cy="223.5" r="3" fill="#4e79a7"/><circle cx="315.4" cy="232.0" r="3" fill="#4e79a7"/><circle cx="325.9" cy="232.0" r="3" fill="#4e79a7"/><circle cx="336.5" cy="232.0" r="3" fill="#4e79a7"/><circle cx="347.0" cy="232.0" r="3" fill="#4e79a7"/><circle cx="357.5" cy="181.0" r="3" fill="#4e79a7"/><circle cx="368.1" cy="198.0" r="3" fill="#4e79a7"/><circle cx="378.6" cy="223.5" r="3" fill="#4e79a7"/><circle cx="389.1" cy="223.5" r="3" fill="#4e79a7"/><circle cx="399.7" cy="232.0" r="3" fill="#4e79a7"/><circle cx="410.2" cy="232.0" r="3" fill="#4e79a7"/><circle cx="420.7" cy="232.0" r="3" fill="#4e79a7"/><circle cx="431.3" cy="215.0" r="3" fill="#4e79a7"/><circle cx="441.8" cy="223.5" r="3" fill="#4e79a7"/><circle cx="452.3" cy="121.5" r="3" fill="#4e79a7"/><circle cx="462.9" cy="215.0" r="3" fill="#4e79a7"/><circle cx="473.4" cy="164.0" r="3" fill="#4e79a7"/><circle cx="483.9" cy="223.5" r="3" fill="#4e79a7"/><circle cx="494.5" cy="181.0" r="3" fill="#4e79a7"/><circle cx="505.0" cy="223.5" r="3" fill="#4e79a7"/><circle cx="515.5" cy="232.0" r="3" fill="#4e79a7"/><circle cx="526.1" cy="189.5" r="3" fill="#4e79a7"/><circle cx="536.6" cy="223.5" r="3" fill="#4e79a7"/><circle cx="547.2" cy="215.0" r="3" fill="#4e79a7"/><circle cx="557.7" cy="223.5" r="3" fill="#4e79a7"/><circle cx="568.2" cy="232.0" r="3" fill="#4e79a7"/><circle cx="578.8" cy="206.5" r="3" fill="#4e79a7"/><circle cx="589.3" cy="232.0" r="3" fill="#4e79a7"/><circle cx="599.8" cy="232.0" r="3" fill="#4e79a7"/><circle cx="610.4" cy="223.5" r="3" fill="#4e79a7"/><circle cx="620.9" cy="232.0" r="3" fill="#4e79a7"/><circle cx="631.4" cy="232.0" r="3" fill="#4e79a7"/><circle cx="642.0" cy="223.5" r="3" fill="#4e79a7"/><circle cx="652.5" cy="189.5" r="3" fill="#4e79a7"/><circle cx="663.0" cy="215.0" r="3" fill="#4e79a7"/><circle cx="673.6" cy="223.5" r="3" fill="#4e79a7"/><circle cx="684.1" cy="223.5" r="3" fill="#4e79a7"/><circle cx="694.6" cy="223.5" r="3" fill="#4e79a7"/><circle cx="705.2" cy="232.0" r="3" fill="#4e79a7"/><circle cx="715.7" cy="223.5" r="3" fill="#4e79a7"/><circle cx="726.3" cy="232.0" r="3" fill="#4e79a7"/><circle cx="736.8" cy="223.5" r="3" fill="#4e79a7"/><circle cx="747.3" cy="223.5" r="3" fill="#4e79a7"/><circle cx="757.9" cy="223.5" r="3" fill="#4e79a7"/><circle cx="768.4" cy="215.0" r="3" fill="#4e79a7"/><circle cx="778.9" cy="232.0" r="3" fill="#4e79a7"/><circle cx="789.5" cy="232.0" r="3" fill="#4e79a7"/><circle cx="800.0" cy="223.5" r="3" fill="#4e79a7"/>
  <circle cx="52.0" cy="232.0" r="3" fill="#f28e2b"/><circle cx="62.5" cy="223.5" r="3" fill="#f28e2b"/><circle cx="73.1" cy="113.0" r="3" fill="#f28e2b"/><circle cx="83.6" cy="223.5" r="3" fill="#f28e2b"/><circle cx="94.1" cy="232.0" r="3" fill="#f28e2b"/><circle cx="104.7" cy="232.0" r="3" fill="#f28e2b"/><circle cx="115.2" cy="232.0" r="3" fill="#f28e2b"/><circle cx="125.7" cy="215.0" r="3" fill="#f28e2b"/><circle cx="136.3" cy="223.5" r="3" fill="#f28e2b"/><circle cx="146.8" cy="215.0" r="3" fill="#f28e2b"/><circle cx="157.4" cy="206.5" r="3" fill="#f28e2b"/><circle cx="167.9" cy="215.0" r="3" fill="#f28e2b"/><circle cx="178.4" cy="223.5" r="3" fill="#f28e2b"/><circle cx="189.0" cy="223.5" r="3" fill="#f28e2b"/><circle cx="199.5" cy="223.5" r="3" fill="#f28e2b"/><circle cx="210.0" cy="232.0" r="3" fill="#f28e2b"/><circle cx="220.6" cy="223.5" r="3" fill="#f28e2b"/><circle cx="231.1" cy="206.5" r="3" fill="#f28e2b"/><circle cx="241.6" cy="232.0" r="3" fill="#f28e2b"/><circle cx="252.2" cy="232.0" r="3" fill="#f28e2b"/><circle cx="262.7" cy="215.0" r="3" fill="#f28e2b"/><circle cx="273.2" cy="232.0" r="3" fill="#f28e2b"/><circle cx="283.8" cy="232.0" r="3" fill="#f28e2b"/><circle cx="294.3" cy="232.0" r="3" fill="#f28e2b"/><circle cx="304.8" cy="223.5" r="3" fill="#f28e2b"/><circle cx="315.4" cy="232.0" r="3" fill="#f28e2b"/><circle cx="325.9" cy="232.0" r="3" fill="#f28e2b"/><circle cx="336.5" cy="232.0" r="3" fill="#f28e2b"/><circle cx="347.0" cy="232.0" r="3" fill="#f28e2b"/><circle cx="357.5" cy="198.0" r="3" fill="#f28e2b"/><circle cx="368.1" cy="215.0" r="3" fill="#f28e2b"/><circle cx="378.6" cy="223.5" r="3" fill="#f28e2b"/><circle cx="389.1" cy="223.5" r="3" fill="#f28e2b"/><circle cx="399.7" cy="232.0" r="3" fill="#f28e2b"/><circle cx="410.2" cy="232.0" r="3" fill="#f28e2b"/><circle cx="420.7" cy="232.0" r="3" fill="#f28e2b"/><circle cx="431.3" cy="215.0" r="3" fill="#f28e2b"/><circle cx="441.8" cy="223.5" r="3" fill="#f28e2b"/><circle cx="452.3" cy="147.0" r="3" fill="#f28e2b"/><circle cx="462.9" cy="215.0" r="3" fill="#f28e2b"/><circle cx="473.4" cy="189.5" r="3" fill="#f28e2b"/><circle cx="483.9" cy="223.5" r="3" fill="#f28e2b"/><circle cx="494.5" cy="206.5" r="3" fill="#f28e2b"/><circle cx="505.0" cy="223.5" r="3" fill="#f28e2b"/><circle cx="515.5" cy="232.0" r="3" fill="#f28e2b"/><circle cx="526.1" cy="215.0" r="3" fill="#f28e2b"/><circle cx="536.6" cy="223.5" r="3" fill="#f28e2b"/><circle cx="547.2" cy="215.0" r="3" fill="#f28e2b"/><circle cx="557.7" cy="223.5" r="3" fill="#f28e2b"/><circle cx="568.2" cy="232.0" r="3" fill="#f28e2b"/><circle cx="578.8" cy="206.5" r="3" fill="#f28e2b"/><circle cx="589.3" cy="232.0" r="3" fill="#f28e2b"/><circle cx="599.8" cy="232.0" r="3" fill="#f28e2b"/><circle cx="610.4" cy="223.5" r="3" fill="#f28e2b"/><circle cx="620.9" cy="232.0" r="3" fill="#f28e2b"/><circle cx="631.4" cy="232.0" r="3" fill="#f28e2b"/><circle cx="642.0" cy="223.5" r="3" fill="#f28e2b"/><circle cx="652.5" cy="223.5" r="3" fill="#f28e2b"/><circle cx="663.0" cy="215.0" r="3" fill="#f28e2b"/><circle cx="673.6" cy="223.5" r="3" fill="#f28e2b"/><circle cx="684.1" cy="223.5" r="3" fill="#f28e2b"/><circle cx="694.6" cy="223.5" r="3" fill="#f28e2b"/><circle cx="705.2" cy="232.0" r="3" fill="#f28e2b"/><circle cx="715.7" cy="223.5" r="3" fill="#f28e2b"/><circle cx="726.3" cy="232.0" r="3" fill="#f28e2b"/><circle cx="736.8" cy="223.5" r="3" fill="#f28e2b"/><circle cx="747.3" cy="223.5" r="3" fill="#f28e2b"/><circle cx="757.9" cy="223.5" r="3" fill="#f28e2b"/><circle cx="768.4" cy="215.0" r="3" fill="#f28e2b"/><circle cx="778.9" cy="232.0" r="3" fill="#f28e2b"/><circle cx="789.5" cy="232.0" r="3" fill="#f28e2b"/><circle cx="800.0" cy="223.5" r="3" fill="#f28e2b"/>

  <!-- axes -->
  <line x1="52" y1="28" x2="52" y2="232"
        stroke="#cccccc" stroke-width="1"/>
  <line x1="52" y1="232" x2="800" y2="232"
        stroke="#cccccc" stroke-width="1"/>

  <!-- y-axis labels -->
  <text x="47" y="236.0" text-anchor="end" font-size="10" fill="#57606a" font-family="ui-monospace, SFMono-Regular, 'SF Mono', Menlo, monospace">0</text><text x="47" y="193.5" text-anchor="end" font-size="10" fill="#57606a" font-family="ui-monospace, SFMono-Regular, 'SF Mono', Menlo, monospace">5</text><text x="47" y="151.0" text-anchor="end" font-size="10" fill="#57606a" font-family="ui-monospace, SFMono-Regular, 'SF Mono', Menlo, monospace">10</text><text x="47" y="108.5" text-anchor="end" font-size="10" fill="#57606a" font-family="ui-monospace, SFMono-Regular, 'SF Mono', Menlo, monospace">15</text><text x="47" y="66.0" text-anchor="end" font-size="10" fill="#57606a" font-family="ui-monospace, SFMono-Regular, 'SF Mono', Menlo, monospace">20</text><text x="47" y="23.5" text-anchor="end" font-size="10" fill="#57606a" font-family="ui-monospace, SFMono-Regular, 'SF Mono', Menlo, monospace">25</text>

  <!-- x-axis labels -->
  <text x="52.0" y="248" text-anchor="middle" font-size="10" fill="#8c959f" font-family="ui-monospace, SFMono-Regular, 'SF Mono', Menlo, monospace">05-11</text><text x="431.3" y="248" text-anchor="middle" font-size="10" fill="#8c959f" font-family="ui-monospace, SFMono-Regular, 'SF Mono', Menlo, monospace">06-16</text><text x="800.0" y="248" text-anchor="middle" font-size="10" fill="#8c959f" font-family="ui-monospace, SFMono-Regular, 'SF Mono', Menlo, monospace">07-21</text><text x="146.8" y="248" text-anchor="middle" font-size="10" fill="#8c959f" font-family="ui-monospace, SFMono-Regular, 'SF Mono', Menlo, monospace">05-20</text><text x="526.1" y="248" text-anchor="middle" font-size="10" fill="#8c959f" font-family="ui-monospace, SFMono-Regular, 'SF Mono', Menlo, monospace">06-25</text><text x="241.6" y="248" text-anchor="middle" font-size="10" fill="#8c959f" font-family="ui-monospace, SFMono-Regular, 'SF Mono', Menlo, monospace">05-29</text><text x="620.9" y="248" text-anchor="middle" font-size="10" fill="#8c959f" font-family="ui-monospace, SFMono-Regular, 'SF Mono', Menlo, monospace">07-04</text><text x="336.5" y="248" text-anchor="middle" font-size="10" fill="#8c959f" font-family="ui-monospace, SFMono-Regular, 'SF Mono', Menlo, monospace">06-07</text><text x="715.7" y="248" text-anchor="middle" font-size="10" fill="#8c959f" font-family="ui-monospace, SFMono-Regular, 'SF Mono', Menlo, monospace">07-13</text>

  <!-- legend -->
  <rect x="60" y="262" width="16" height="3" fill="#4e79a7" rx="1"/><text x="80" y="268" font-size="11" fill="#57606a" font-family="-apple-system, BlinkMacSystemFont, 'Segoe UI', sans-serif">Total clones (127)</text><line x1="230" y1="264" x2="246" y2="264" stroke="#f28e2b" stroke-width="2" stroke-dasharray="5,3"/><text x="250" y="268" font-size="11" fill="#57606a" font-family="-apple-system, BlinkMacSystemFont, 'Segoe UI', sans-serif">Unique cloners</text>

</svg>