<svg xmlns="http://www.w3.org/2000/svg" viewBox="0 0 820 280" width="820" height="280">

  <!-- title -->
  <text x="52" y="18" font-size="13" font-weight="600"
        fill="#24292f" font-family="-apple-system, BlinkMacSystemFont, 'Segoe UI', sans-serif"
        >Clone traffic — gutenberg-stocks</text>
  <text x="800" y="18" font-size="10" fill="#8c959f"
        font-family="ui-monospace, SFMono-Regular, 'SF Mono', Menlo, monospace" text-anchor="end">2026-07-17</text>

  <!-- grid -->
  <line x1="52" y1="232.0" x2="800" y2="232.0" stroke="#e8e8e8" stroke-width="1"/><line x1="52" y1="189.5" x2="800" y2="189.5" stroke="#e8e8e8" stroke-width="1"/><line x1="52" y1="147.0" x2="800" y2="147.0" stroke="#e8e8e8" stroke-width="1"/><line x1="52" y1="104.5" x2="800" y2="104.5" stroke="#e8e8e8" stroke-width="1"/><line x1="52" y1="62.0" x2="800" y2="62.0" stroke="#e8e8e8" stroke-width="1"/><line x1="52" y1="19.5" x2="800" y2="19.5" stroke="#e8e8e8" stroke-width="1"/>

  <!-- area fill -->
  <path d="M52.0,232.0 L52.0,232.0 L63.5,223.5 L75.0,28.0 L86.5,223.5 L98.0,232.0 L109.5,232.0 L121.0,232.0 L132.6,215.0 L144.1,223.5 L155.6,215.0 L167.1,206.5 L178.6,189.5 L190.1,223.5 L201.6,223.5 L213.1,223.5 L224.6,232.0 L236.1,223.5 L247.6,198.0 L259.1,232.0 L270.6,232.0 L282.2,215.0 L293.7,232.0 L305.2,232.0 L316.7,232.0 L328.2,223.5 L339.7,232.0 L351.2,232.0 L362.7,232.0 L374.2,232.0 L385.7,181.0 L397.2,198.0 L408.7,223.5 L420.2,223.5 L431.8,232.0 L443.3,232.0 L454.8,232.0 L466.3,215.0 L477.8,223.5 L489.3,121.5 L500.8,215.0 L512.3,164.0 L523.8,223.5 L535.3,181.0 L546.8,223.5 L558.3,232.0 L569.8,189.5 L581.4,223.5 L592.9,215.0 L604.4,223.5 L615.9,232.0 L627.4,206.5 L638.9,232.0 L650.4,232.0 L661.9,223.5 L673.4,232.0 L684.9,232.0 L696.4,223.5 L707.9,189.5 L719.4,215.0 L731.0,223.5 L742.5,223.5 L754.0,223.5 L765.5,232.0 L777.0,223.5 L788.5,232.0 L800.0,223.5 L800.0,232.0 L52.0,232.0Z" fill="#4e79a7" opacity="0.12"/>

  <!-- lines -->
  <polyline points="52.0,232.0 63.5,223.5 75.0,28.0 86.5,223.5 98.0,232.0 109.5,232.0 121.0,232.0 132.6,215.0 144.1,223.5 155.6,215.0 167.1,206.5 178.6,189.5 190.1,223.5 201.6,223.5 213.1,223.5 224.6,232.0 236.1,223.5 247.6,198.0 259.1,232.0 270.6,232.0 282.2,215.0 293.7,232.0 305.2,232.0 316.7,232.0 328.2,223.5 339.7,232.0 351.2,232.0 362.7,232.0 374.2,232.0 385.7,181.0 397.2,198.0 408.7,223.5 420.2,223.5 431.8,232.0 443.3,232.0 454.8,232.0 466.3,215.0 477.8,223.5 489.3,121.5 500.8,215.0 512.3,164.0 523.8,223.5 535.3,181.0 546.8,223.5 558.3,232.0 569.8,189.5 581.4,223.5 592.9,215.0 604.4,223.5 615.9,232.0 627.4,206.5 638.9,232.0 650.4,232.0 661.9,223.5 673.4,232.0 684.9,232.0 696.4,223.5 707.9,189.5 719.4,215.0 731.0,223.5 742.5,223.5 754.0,223.5 765.5,232.0 777.0,223.5 788.5,232.0 800.0,223.5"
            fill="none" stroke="#4e79a7"
            stroke-width="2" stroke-linejoin="round"/>
  <polyline points="52.0,232.0 63.5,223.5 75.0,113.0 86.5,223.5 98.0,232.0 109.5,232.0 121.0,232.0 132.6,215.0 144.1,223.5 155.6,215.0 167.1,206.5 178.6,215.0 190.1,223.5 201.6,223.5 213.1,223.5 224.6,232.0 236.1,223.5 247.6,206.5 259.1,232.0 270.6,232.0 282.2,215.0 293.7,232.0 305.2,232.0 316.7,232.0 328.2,223.5 339.7,232.0 351.2,232.0 362.7,232.0 374.2,232.0 385.7,198.0 397.2,215.0 408.7,223.5 420.2,223.5 431.8,232.0 443.3,232.0 454.8,232.0 466.3,215.0 477.8,223.5 489.3,147.0 500.8,215.0 512.3,189.5 523.8,223.5 535.3,206.5 546.8,223.5 558.3,232.0 569.8,215.0 581.4,223.5 592.9,215.0 604.4,223.5 615.9,232.0 627.4,206.5 638.9,232.0 650.4,232.0 661.9,223.5 673.4,232.0 684.9,232.0 696.4,223.5 707.9,223.5 719.4,215.0 731.0,223.5 742.5,223.5 754.0,223.5 765.5,232.0 777.0,223.5 788.5,232.0 800.0,223.5"
            fill="none" stroke="#f28e2b"
            stroke-width="2" stroke-linejoin="round"
            stroke-dasharray="5,3"/>

  <!-- dots -->
  <circle cx="52.0" cy="232.0" r="3" fill="#4e79a7"/><circle cx="63.5" cy="223.5" r="3" fill="#4e79a7"/><circle cx="75.0" cy="28.0" r="3" fill="#4e79a7"/><circle cx="86.5" cy="223.5" r="3" fill="#4e79a7"/><circle cx="98.0" cy="232.0" r="3" fill="#4e79a7"/><circle cx="109.5" cy="232.0" r="3" fill="#4e79a7"/><circle cx="121.0" cy="232.0" r="3" fill="#4e79a7"/><circle cx="132.6" cy="215.0" r="3" fill="#4e79a7"/><circle cx="144.1" cy="223.5" r="3" fill="#4e79a7"/><circle cx="155.6" cy="215.0" r="3" fill="#4e79a7"/><circle cx="167.1" cy="206.5" r="3" fill="#4e79a7"/><circle cx="178.6" cy="189.5" r="3" fill="#4e79a7"/><circle cx="190.1" cy="223.5" r="3" fill="#4e79a7"/><circle cx="201.6" cy="223.5" r="3" fill="#4e79a7"/><circle cx="213.1" cy="223.5" r="3" fill="#4e79a7"/><circle cx="224.6" cy="232.0" r="3" fill="#4e79a7"/><circle cx="236.1" cy="223.5" r="3" fill="#4e79a7"/><circle cx="247.6" cy="198.0" r="3" fill="#4e79a7"/><circle cx="259.1" cy="232.0" r="3" fill="#4e79a7"/><circle cx="270.6" cy="232.0" r="3" fill="#4e79a7"/><circle cx="282.2" cy="215.0" r="3" fill="#4e79a7"/><circle cx="293.7" cy="232.0" r="3" fill="#4e79a7"/><circle cx="305.2" cy="232.0" r="3" fill="#4e79a7"/><circle cx="316.7" cy="232.0" r="3" fill="#4e79a7"/><circle cx="328.2" cy="223.5" r="3" fill="#4e79a7"/><circle cx="339.7" cy="232.0" r="3" fill="#4e79a7"/><circle cx="351.2" cy="232.0" r="3" fill="#4e79a7"/><circle cx="362.7" cy="232.0" r="3" fill="#4e79a7"/><circle cx="374.2" cy="232.0" r="3" fill="#4e79a7"/><circle cx="385.7" cy="181.0" r="3" fill="#4e79a7"/><circle cx="397.2" cy="198.0" r="3" fill="#4e79a7"/><circle cx="408.7" cy="223.5" r="3" fill="#4e79a7"/><circle cx="420.2" cy="223.5" r="3" fill="#4e79a7"/><circle cx="431.8" cy="232.0" r="3" fill="#4e79a7"/><circle cx="443.3" cy="232.0" r="3" fill="#4e79a7"/><circle cx="454.8" cy="232.0" r="3" fill="#4e79a7"/><circle cx="466.3" cy="215.0" r="3" fill="#4e79a7"/><circle cx="477.8" cy="223.5" r="3" fill="#4e79a7"/><circle cx="489.3" cy="121.5" r="3" fill="#4e79a7"/><circle cx="500.8" cy="215.0" r="3" fill="#4e79a7"/><circle cx="512.3" cy="164.0" r="3" fill="#4e79a7"/><circle cx="523.8" cy="223.5" r="3" fill="#4e79a7"/><circle cx="535.3" cy="181.0" r="3" fill="#4e79a7"/><circle cx="546.8" cy="223.5" r="3" fill="#4e79a7"/><circle cx="558.3" cy="232.0" r="3" fill="#4e79a7"/><circle cx="569.8" cy="189.5" r="3" fill="#4e79a7"/><circle cx="581.4" cy="223.5" r="3" fill="#4e79a7"/><circle cx="592.9" cy="215.0" r="3" fill="#4e79a7"/><circle cx="604.4" cy="223.5" r="3" fill="#4e79a7"/><circle cx="615.9" cy="232.0" r="3" fill="#4e79a7"/><circle cx="627.4" cy="206.5" r="3" fill="#4e79a7"/><circle cx="638.9" cy="232.0" r="3" fill="#4e79a7"/><circle cx="650.4" cy="232.0" r="3" fill="#4e79a7"/><circle cx="661.9" cy="223.5" r="3" fill="#4e79a7"/><circle cx="673.4" cy="232.0" r="3" fill="#4e79a7"/><circle cx="684.9" cy="232.0" r="3" fill="#4e79a7"/><circle cx="696.4" cy="223.5" r="3" fill="#4e79a7"/><circle cx="707.9" cy="189.5" r="3" fill="#4e79a7"/><circle cx="719.4" cy="215.0" r="3" fill="#4e79a7"/><circle cx="731.0" cy="223.5" r="3" fill="#4e79a7"/><circle cx="742.5" cy="223.5" r="3" fill="#4e79a7"/><circle cx="754.0" cy="223.5" r="3" fill="#4e79a7"/><circle cx="765.5" cy="232.0" r="3" fill="#4e79a7"/><circle cx="777.0" cy="223.5" r="3" fill="#4e79a7"/><circle cx="788.5" cy="232.0" r="3" fill="#4e79a7"/><circle cx="800.0" cy="223.5" r="3" fill="#4e79a7"/>
  <circle cx="52.0" cy="232.0" r="3" fill="#f28e2b"/><circle cx="63.5" cy="223.5" r="3" fill="#f28e2b"/><circle cx="75.0" cy="113.0" r="3" fill="#f28e2b"/><circle cx="86.5" cy="223.5" r="3" fill="#f28e2b"/><circle cx="98.0" cy="232.0" r="3" fill="#f28e2b"/><circle cx="109.5" cy="232.0" r="3" fill="#f28e2b"/><circle cx="121.0" cy="232.0" r="3" fill="#f28e2b"/><circle cx="132.6" cy="215.0" r="3" fill="#f28e2b"/><circle cx="144.1" cy="223.5" r="3" fill="#f28e2b"/><circle cx="155.6" cy="215.0" r="3" fill="#f28e2b"/><circle cx="167.1" cy="206.5" r="3" fill="#f28e2b"/><circle cx="178.6" cy="215.0" r="3" fill="#f28e2b"/><circle cx="190.1" cy="223.5" r="3" fill="#f28e2b"/><circle cx="201.6" cy="223.5" r="3" fill="#f28e2b"/><circle cx="213.1" cy="223.5" r="3" fill="#f28e2b"/><circle cx="224.6" cy="232.0" r="3" fill="#f28e2b"/><circle cx="236.1" cy="223.5" r="3" fill="#f28e2b"/><circle cx="247.6" cy="206.5" r="3" fill="#f28e2b"/><circle cx="259.1" cy="232.0" r="3" fill="#f28e2b"/><circle cx="270.6" cy="232.0" r="3" fill="#f28e2b"/><circle cx="282.2" cy="215.0" r="3" fill="#f28e2b"/><circle cx="293.7" cy="232.0" r="3" fill="#f28e2b"/><circle cx="305.2" cy="232.0" r="3" fill="#f28e2b"/><circle cx="316.7" cy="232.0" r="3" fill="#f28e2b"/><circle cx="328.2" cy="223.5" r="3" fill="#f28e2b"/><circle cx="339.7" cy="232.0" r="3" fill="#f28e2b"/><circle cx="351.2" cy="232.0" r="3" fill="#f28e2b"/><circle cx="362.7" cy="232.0" r="3" fill="#f28e2b"/><circle cx="374.2" cy="232.0" r="3" fill="#f28e2b"/><circle cx="385.7" cy="198.0" r="3" fill="#f28e2b"/><circle cx="397.2" cy="215.0" r="3" fill="#f28e2b"/><circle cx="408.7" cy="223.5" r="3" fill="#f28e2b"/><circle cx="420.2" cy="223.5" r="3" fill="#f28e2b"/><circle cx="431.8" cy="232.0" r="3" fill="#f28e2b"/><circle cx="443.3" cy="232.0" r="3" fill="#f28e2b"/><circle cx="454.8" cy="232.0" r="3" fill="#f28e2b"/><circle cx="466.3" cy="215.0" r="3" fill="#f28e2b"/><circle cx="477.8" cy="223.5" r="3" fill="#f28e2b"/><circle cx="489.3" cy="147.0" r="3" fill="#f28e2b"/><circle cx="500.8" cy="215.0" r="3" fill="#f28e2b"/><circle cx="512.3" cy="189.5" r="3" fill="#f28e2b"/><circle cx="523.8" cy="223.5" r="3" fill="#f28e2b"/><circle cx="535.3" cy="206.5" r="3" fill="#f28e2b"/><circle cx="546.8" cy="223.5" r="3" fill="#f28e2b"/><circle cx="558.3" cy="232.0" r="3" fill="#f28e2b"/><circle cx="569.8" cy="215.0" r="3" fill="#f28e2b"/><circle cx="581.4" cy="223.5" r="3" fill="#f28e2b"/><circle cx="592.9" cy="215.0" r="3" fill="#f28e2b"/><circle cx="604.4" cy="223.5" r="3" fill="#f28e2b"/><circle cx="615.9" cy="232.0" r="3" fill="#f28e2b"/><circle cx="627.4" cy="206.5" r="3" fill="#f28e2b"/><circle cx="638.9" cy="232.0" r="3" fill="#f28e2b"/><circle cx="650.4" cy="232.0" r="3" fill="#f28e2b"/><circle cx="661.9" cy="223.5" r="3" fill="#f28e2b"/><circle cx="673.4" cy="232.0" r="3" fill="#f28e2b"/><circle cx="684.9" cy="232.0" r="3" fill="#f28e2b"/><circle cx="696.4" cy="223.5" r="3" fill="#f28e2b"/><circle cx="707.9" cy="223.5" r="3" fill="#f28e2b"/><circle cx="719.4" cy="215.0" r="3" fill="#f28e2b"/><circle cx="731.0" cy="223.5" r="3" fill="#f28e2b"/><circle cx="742.5" cy="223.5" r="3" fill="#f28e2b"/><circle cx="754.0" cy="223.5" r="3" fill="#f28e2b"/><circle cx="765.5" cy="232.0" r="3" fill="#f28e2b"/><circle cx="777.0" cy="223.5" r="3" fill="#f28e2b"/><circle cx="788.5" cy="232.0" r="3" fill="#f28e2b"/><circle cx="800.0" cy="223.5" r="3" fill="#f28e2b"/>

  <!-- axes -->
  <line x1="52" y1="28" x2="52" y2="232"
        stroke="#cccccc" stroke-width="1"/>
  <line x1="52" y1="232" x2="800" y2="232"
        stroke="#cccccc" stroke-width="1"/>

  <!-- y-axis labels -->
  <text x="47" y="236.0" text-anchor="end" font-size="10" fill="#57606a" font-family="ui-monospace, SFMono-Regular, 'SF Mono', Menlo, monospace">0</text><text x="47" y="193.5" text-anchor="end" font-size="10" fill="#57606a" font-family="ui-monospace, SFMono-Regular, 'SF Mono', Menlo, monospace">5</text><text x="47" y="151.0" text-anchor="end" font-size="10" fill="#57606a" font-family="ui-monospace, SFMono-Regular, 'SF Mono', Menlo, monospace">10</text><text x="47" y="108.5" text-anchor="end" font-size="10" fill="#57606a" font-family="ui-monospace, SFMono-Regular, 'SF Mono', Menlo, monospace">15</text><text x="47" y="66.0" text-anchor="end" font-size="10" fill="#57606a" font-family="ui-monospace, SFMono-Regular, 'SF Mono', Menlo, monospace">20</text><text x="47" y="23.5" text-anchor="end" font-size="10" fill="#57606a" font-family="ui-monospace, SFMono-Regular, 'SF Mono', Menlo, monospace">25</text>

  <!-- x-axis labels -->
  <text x="52.0" y="248" text-anchor="middle" font-size="10" fill="#8c959f" font-family="ui-monospace, SFMono-Regular, 'SF Mono', Menlo, monospace">05-11</text><text x="420.2" y="248" text-anchor="middle" font-size="10" fill="#8c959f" font-family="ui-monospace, SFMono-Regular, 'SF Mono', Menlo, monospace">06-12</text><text x="788.5" y="248" text-anchor="middle" font-size="10" fill="#8c959f" font-family="ui-monospace, SFMono-Regular, 'SF Mono', Menlo, monospace">07-14</text><text x="800.0" y="248" text-anchor="middle" font-size="10" fill="#8c959f" font-family="ui-monospace, SFMono-Regular, 'SF Mono', Menlo, monospace">07-15</text><text x="144.1" y="248" text-anchor="middle" font-size="10" fill="#8c959f" font-family="ui-monospace, SFMono-Regular, 'SF Mono', Menlo, monospace">05-19</text><text x="512.3" y="248" text-anchor="middle" font-size="10" fill="#8c959f" font-family="ui-monospace, SFMono-Regular, 'SF Mono', Menlo, monospace">06-20</text><text x="236.1" y="248" text-anchor="middle" font-size="10" fill="#8c959f" font-family="ui-monospace, SFMono-Regular, 'SF Mono', Menlo, monospace">05-27</text><text x="604.4" y="248" text-anchor="middle" font-size="10" fill="#8c959f" font-family="ui-monospace, SFMono-Regular, 'SF Mono', Menlo, monospace">06-28</text><text x="328.2" y="248" text-anchor="middle" font-size="10" fill="#8c959f" font-family="ui-monospace, SFMono-Regular, 'SF Mono', Menlo, monospace">06-04</text><text x="696.4" y="248" text-anchor="middle" font-size="10" fill="#8c959f" font-family="ui-monospace, SFMono-Regular, 'SF Mono', Menlo, monospace">07-06</text>

  <!-- legend -->
  <rect x="60" y="262" width="16" height="3" fill="#4e79a7" rx="1"/><text x="80" y="268" font-size="11" fill="#57606a" font-family="-apple-system, BlinkMacSystemFont, 'Segoe UI', sans-serif">Total clones (122)</text><line x1="230" y1="264" x2="246" y2="264" stroke="#f28e2b" stroke-width="2" stroke-dasharray="5,3"/><text x="250" y="268" font-size="11" fill="#57606a" font-family="-apple-system, BlinkMacSystemFont, 'Segoe UI', sans-serif">Unique cloners</text>

</svg>