<svg xmlns="http://www.w3.org/2000/svg" viewBox="0 0 820 280" width="820" height="280">

  <!-- title -->
  <text x="52" y="18" font-size="13" font-weight="600"
        fill="#24292f" font-family="-apple-system, BlinkMacSystemFont, 'Segoe UI', sans-serif"
        >Clone traffic — gutenberg-stocks</text>
  <text x="800" y="18" font-size="10" fill="#8c959f"
        font-family="ui-monospace, SFMono-Regular, 'SF Mono', Menlo, monospace" text-anchor="end">2026-06-10</text>

  <!-- grid -->
  <line x1="52" y1="232.0" x2="800" y2="232.0" stroke="#e8e8e8" stroke-width="1"/><line x1="52" y1="189.5" x2="800" y2="189.5" stroke="#e8e8e8" stroke-width="1"/><line x1="52" y1="147.0" x2="800" y2="147.0" stroke="#e8e8e8" stroke-width="1"/><line x1="52" y1="104.5" x2="800" y2="104.5" stroke="#e8e8e8" stroke-width="1"/><line x1="52" y1="62.0" x2="800" y2="62.0" stroke="#e8e8e8" stroke-width="1"/><line x1="52" y1="19.5" x2="800" y2="19.5" stroke="#e8e8e8" stroke-width="1"/>

  <!-- area fill -->
  <path d="M52.0,232.0 L52.0,232.0 L79.7,223.5 L107.4,28.0 L135.1,223.5 L162.8,232.0 L190.5,232.0 L218.2,232.0 L245.9,215.0 L273.6,223.5 L301.3,215.0 L329.0,206.5 L356.7,189.5 L384.4,223.5 L412.1,223.5 L439.9,223.5 L467.6,232.0 L495.3,223.5 L523.0,198.0 L550.7,232.0 L578.4,232.0 L606.1,215.0 L633.8,232.0 L661.5,232.0 L689.2,232.0 L716.9,223.5 L744.6,232.0 L772.3,232.0 L800.0,232.0 L800.0,232.0 L52.0,232.0Z" fill="#4e79a7" opacity="0.12"/>

  <!-- lines -->
  <polyline points="52.0,232.0 79.7,223.5 107.4,28.0 135.1,223.5 162.8,232.0 190.5,232.0 218.2,232.0 245.9,215.0 273.6,223.5 301.3,215.0 329.0,206.5 356.7,189.5 384.4,223.5 412.1,223.5 439.9,223.5 467.6,232.0 495.3,223.5 523.0,198.0 550.7,232.0 578.4,232.0 606.1,215.0 633.8,232.0 661.5,232.0 689.2,232.0 716.9,223.5 744.6,232.0 772.3,232.0 800.0,232.0"
            fill="none" stroke="#4e79a7"
            stroke-width="2" stroke-linejoin="round"/>
  <polyline points="52.0,232.0 79.7,223.5 107.4,113.0 135.1,223.5 162.8,232.0 190.5,232.0 218.2,232.0 245.9,215.0 273.6,223.5 301.3,215.0 329.0,206.5 356.7,215.0 384.4,223.5 412.1,223.5 439.9,223.5 467.6,232.0 495.3,223.5 523.0,206.5 550.7,232.0 578.4,232.0 606.1,215.0 633.8,232.0 661.5,232.0 689.2,232.0 716.9,223.5 744.6,232.0 772.3,232.0 800.0,232.0"
            fill="none" stroke="#f28e2b"
            stroke-width="2" stroke-linejoin="round"
            stroke-dasharray="5,3"/>

  <!-- dots -->
  <circle cx="52.0" cy="232.0" r="3" fill="#4e79a7"/><circle cx="79.7" cy="223.5" r="3" fill="#4e79a7"/><circle cx="107.4" cy="28.0" r="3" fill="#4e79a7"/><circle cx="135.1" cy="223.5" r="3" fill="#4e79a7"/><circle cx="162.8" cy="232.0" r="3" fill="#4e79a7"/><circle cx="190.5" cy="232.0" r="3" fill="#4e79a7"/><circle cx="218.2" cy="232.0" r="3" fill="#4e79a7"/><circle cx="245.9" cy="215.0" r="3" fill="#4e79a7"/><circle cx="273.6" cy="223.5" r="3" fill="#4e79a7"/><circle cx="301.3" cy="215.0" r="3" fill="#4e79a7"/><circle cx="329.0" cy="206.5" r="3" fill="#4e79a7"/><circle cx="356.7" cy="189.5" r="3" fill="#4e79a7"/><circle cx="384.4" cy="223.5" r="3" fill="#4e79a7"/><circle cx="412.1" cy="223.5" r="3" fill="#4e79a7"/><circle cx="439.9" cy="223.5" r="3" fill="#4e79a7"/><circle cx="467.6" cy="232.0" r="3" fill="#4e79a7"/><circle cx="495.3" cy="223.5" r="3" fill="#4e79a7"/><circle cx="523.0" cy="198.0" r="3" fill="#4e79a7"/><circle cx="550.7" cy="232.0" r="3" fill="#4e79a7"/><circle cx="578.4" cy="232.0" r="3" fill="#4e79a7"/><circle cx="606.1" cy="215.0" r="3" fill="#4e79a7"/><circle cx="633.8" cy="232.0" r="3" fill="#4e79a7"/><circle cx="661.5" cy="232.0" r="3" fill="#4e79a7"/><circle cx="689.2" cy="232.0" r="3" fill="#4e79a7"/><circle cx="716.9" cy="223.5" r="3" fill="#4e79a7"/><circle cx="744.6" cy="232.0" r="3" fill="#4e79a7"/><circle cx="772.3" cy="232.0" r="3" fill="#4e79a7"/><circle cx="800.0" cy="232.0" r="3" fill="#4e79a7"/>
  <circle cx="52.0" cy="232.0" r="3" fill="#f28e2b"/><circle cx="79.7" cy="223.5" r="3" fill="#f28e2b"/><circle cx="107.4" cy="113.0" r="3" fill="#f28e2b"/><circle cx="135.1" cy="223.5" r="3" fill="#f28e2b"/><circle cx="162.8" cy="232.0" r="3" fill="#f28e2b"/><circle cx="190.5" cy="232.0" r="3" fill="#f28e2b"/><circle cx="218.2" cy="232.0" r="3" fill="#f28e2b"/><circle cx="245.9" cy="215.0" r="3" fill="#f28e2b"/><circle cx="273.6" cy="223.5" r="3" fill="#f28e2b"/><circle cx="301.3" cy="215.0" r="3" fill="#f28e2b"/><circle cx="329.0" cy="206.5" r="3" fill="#f28e2b"/><circle cx="356.7" cy="215.0" r="3" fill="#f28e2b"/><circle cx="384.4" cy="223.5" r="3" fill="#f28e2b"/><circle cx="412.1" cy="223.5" r="3" fill="#f28e2b"/><circle cx="439.9" cy="223.5" r="3" fill="#f28e2b"/><circle cx="467.6" cy="232.0" r="3" fill="#f28e2b"/><circle cx="495.3" cy="223.5" r="3" fill="#f28e2b"/><circle cx="523.0" cy="206.5" r="3" fill="#f28e2b"/><circle cx="550.7" cy="232.0" r="3" fill="#f28e2b"/><circle cx="578.4" cy="232.0" r="3" fill="#f28e2b"/><circle cx="606.1" cy="215.0" r="3" fill="#f28e2b"/><circle cx="633.8" cy="232.0" r="3" fill="#f28e2b"/><circle cx="661.5" cy="232.0" r="3" fill="#f28e2b"/><circle cx="689.2" cy="232.0" r="3" fill="#f28e2b"/><circle cx="716.9" cy="223.5" r="3" fill="#f28e2b"/><circle cx="744.6" cy="232.0" r="3" fill="#f28e2b"/><circle cx="772.3" cy="232.0" r="3" fill="#f28e2b"/><circle cx="800.0" cy="232.0" r="3" fill="#f28e2b"/>

  <!-- axes -->
  <line x1="52" y1="28" x2="52" y2="232"
        stroke="#cccccc" stroke-width="1"/>
  <line x1="52" y1="232" x2="800" y2="232"
        stroke="#cccccc" stroke-width="1"/>

  <!-- y-axis labels -->
  <text x="47" y="236.0" text-anchor="end" font-size="10" fill="#57606a" font-family="ui-monospace, SFMono-Regular, 'SF Mono', Menlo, monospace">0</text><text x="47" y="193.5" text-anchor="end" font-size="10" fill="#57606a" font-family="ui-monospace, SFMono-Regular, 'SF Mono', Menlo, monospace">5</text><text x="47" y="151.0" text-anchor="end" font-size="10" fill="#57606a" font-family="ui-monospace, SFMono-Regular, 'SF Mono', Menlo, monospace">10</text><text x="47" y="108.5" text-anchor="end" font-size="10" fill="#57606a" font-family="ui-monospace, SFMono-Regular, 'SF Mono', Menlo, monospace">15</text><text x="47" y="66.0" text-anchor="end" font-size="10" fill="#57606a" font-family="ui-monospace, SFMono-Regular, 'SF Mono', Menlo, monospace">20</text><text x="47" y="23.5" text-anchor="end" font-size="10" fill="#57606a" font-family="ui-monospace, SFMono-Regular, 'SF Mono', Menlo, monospace">25</text>

  <!-- x-axis labels -->
  <text x="52.0" y="248" text-anchor="middle" font-size="10" fill="#8c959f" font-family="ui-monospace, SFMono-Regular, 'SF Mono', Menlo, monospace">05-11</text><text x="135.1" y="248" text-anchor="middle" font-size="10" fill="#8c959f" font-family="ui-monospace, SFMono-Regular, 'SF Mono', Menlo, monospace">05-14</text><text x="218.2" y="248" text-anchor="middle" font-size="10" fill="#8c959f" font-family="ui-monospace, SFMono-Regular, 'SF Mono', Menlo, monospace">05-17</text><text x="301.3" y="248" text-anchor="middle" font-size="10" fill="#8c959f" font-family="ui-monospace, SFMono-Regular, 'SF Mono', Menlo, monospace">05-20</text><text x="384.4" y="248" text-anchor="middle" font-size="10" fill="#8c959f" font-family="ui-monospace, SFMono-Regular, 'SF Mono', Menlo, monospace">05-23</text><text x="467.6" y="248" text-anchor="middle" font-size="10" fill="#8c959f" font-family="ui-monospace, SFMono-Regular, 'SF Mono', Menlo, monospace">05-26</text><text x="550.7" y="248" text-anchor="middle" font-size="10" fill="#8c959f" font-family="ui-monospace, SFMono-Regular, 'SF Mono', Menlo, monospace">05-29</text><text x="633.8" y="248" text-anchor="middle" font-size="10" fill="#8c959f" font-family="ui-monospace, SFMono-Regular, 'SF Mono', Menlo, monospace">06-01</text><text x="716.9" y="248" text-anchor="middle" font-size="10" fill="#8c959f" font-family="ui-monospace, SFMono-Regular, 'SF Mono', Menlo, monospace">06-04</text><text x="800.0" y="248" text-anchor="middle" font-size="10" fill="#8c959f" font-family="ui-monospace, SFMono-Regular, 'SF Mono', Menlo, monospace">06-07</text>

  <!-- legend -->
  <rect x="60" y="262" width="16" height="3" fill="#4e79a7" rx="1"/><text x="80" y="268" font-size="11" fill="#57606a" font-family="-apple-system, BlinkMacSystemFont, 'Segoe UI', sans-serif">Total clones (50)</text><line x1="230" y1="264" x2="246" y2="264" stroke="#f28e2b" stroke-width="2" stroke-dasharray="5,3"/><text x="250" y="268" font-size="11" fill="#57606a" font-family="-apple-system, BlinkMacSystemFont, 'Segoe UI', sans-serif">Unique cloners</text>

</svg>