<svg xmlns="http://www.w3.org/2000/svg" viewBox="0 0 820 280" width="820" height="280">

  <!-- title -->
  <text x="52" y="18" font-size="13" font-weight="600"
        fill="#24292f" font-family="-apple-system, BlinkMacSystemFont, 'Segoe UI', sans-serif"
        >Clone traffic — gutenberg-stocks</text>
  <text x="800" y="18" font-size="10" fill="#8c959f"
        font-family="ui-monospace, SFMono-Regular, 'SF Mono', Menlo, monospace" text-anchor="end">2026-07-03</text>

  <!-- grid -->
  <line x1="52" y1="232.0" x2="800" y2="232.0" stroke="#e8e8e8" stroke-width="1"/><line x1="52" y1="189.5" x2="800" y2="189.5" stroke="#e8e8e8" stroke-width="1"/><line x1="52" y1="147.0" x2="800" y2="147.0" stroke="#e8e8e8" stroke-width="1"/><line x1="52" y1="104.5" x2="800" y2="104.5" stroke="#e8e8e8" stroke-width="1"/><line x1="52" y1="62.0" x2="800" y2="62.0" stroke="#e8e8e8" stroke-width="1"/><line x1="52" y1="19.5" x2="800" y2="19.5" stroke="#e8e8e8" stroke-width="1"/>

  <!-- area fill -->
  <path d="M52.0,232.0 L52.0,232.0 L66.7,223.5 L81.3,28.0 L96.0,223.5 L110.7,232.0 L125.3,232.0 L140.0,232.0 L154.7,215.0 L169.3,223.5 L184.0,215.0 L198.7,206.5 L213.3,189.5 L228.0,223.5 L242.7,223.5 L257.3,223.5 L272.0,232.0 L286.7,223.5 L301.3,198.0 L316.0,232.0 L330.7,232.0 L345.3,215.0 L360.0,232.0 L374.7,232.0 L389.3,232.0 L404.0,223.5 L418.7,232.0 L433.3,232.0 L448.0,232.0 L462.7,232.0 L477.3,181.0 L492.0,198.0 L506.7,223.5 L521.3,223.5 L536.0,232.0 L550.7,232.0 L565.3,232.0 L580.0,215.0 L594.7,223.5 L609.3,121.5 L624.0,215.0 L638.7,164.0 L653.3,223.5 L668.0,181.0 L682.7,223.5 L697.3,232.0 L712.0,189.5 L726.7,223.5 L741.3,215.0 L756.0,223.5 L770.7,232.0 L785.3,206.5 L800.0,232.0 L800.0,232.0 L52.0,232.0Z" fill="#4e79a7" opacity="0.12"/>

  <!-- lines -->
  <polyline points="52.0,232.0 66.7,223.5 81.3,28.0 96.0,223.5 110.7,232.0 125.3,232.0 140.0,232.0 154.7,215.0 169.3,223.5 184.0,215.0 198.7,206.5 213.3,189.5 228.0,223.5 242.7,223.5 257.3,223.5 272.0,232.0 286.7,223.5 301.3,198.0 316.0,232.0 330.7,232.0 345.3,215.0 360.0,232.0 374.7,232.0 389.3,232.0 404.0,223.5 418.7,232.0 433.3,232.0 448.0,232.0 462.7,232.0 477.3,181.0 492.0,198.0 506.7,223.5 521.3,223.5 536.0,232.0 550.7,232.0 565.3,232.0 580.0,215.0 594.7,223.5 609.3,121.5 624.0,215.0 638.7,164.0 653.3,223.5 668.0,181.0 682.7,223.5 697.3,232.0 712.0,189.5 726.7,223.5 741.3,215.0 756.0,223.5 770.7,232.0 785.3,206.5 800.0,232.0"
            fill="none" stroke="#4e79a7"
            stroke-width="2" stroke-linejoin="round"/>
  <polyline points="52.0,232.0 66.7,223.5 81.3,113.0 96.0,223.5 110.7,232.0 125.3,232.0 140.0,232.0 154.7,215.0 169.3,223.5 184.0,215.0 198.7,206.5 213.3,215.0 228.0,223.5 242.7,223.5 257.3,223.5 272.0,232.0 286.7,223.5 301.3,206.5 316.0,232.0 330.7,232.0 345.3,215.0 360.0,232.0 374.7,232.0 389.3,232.0 404.0,223.5 418.7,232.0 433.3,232.0 448.0,232.0 462.7,232.0 477.3,198.0 492.0,215.0 506.7,223.5 521.3,223.5 536.0,232.0 550.7,232.0 565.3,232.0 580.0,215.0 594.7,223.5 609.3,147.0 624.0,215.0 638.7,189.5 653.3,223.5 668.0,206.5 682.7,223.5 697.3,232.0 712.0,215.0 726.7,223.5 741.3,215.0 756.0,223.5 770.7,232.0 785.3,206.5 800.0,232.0"
            fill="none" stroke="#f28e2b"
            stroke-width="2" stroke-linejoin="round"
            stroke-dasharray="5,3"/>

  <!-- dots -->
  <circle cx="52.0" cy="232.0" r="3" fill="#4e79a7"/><circle cx="66.7" cy="223.5" r="3" fill="#4e79a7"/><circle cx="81.3" cy="28.0" r="3" fill="#4e79a7"/><circle cx="96.0" cy="223.5" r="3" fill="#4e79a7"/><circle cx="110.7" cy="232.0" r="3" fill="#4e79a7"/><circle cx="125.3" cy="232.0" r="3" fill="#4e79a7"/><circle cx="140.0" cy="232.0" r="3" fill="#4e79a7"/><circle cx="154.7" cy="215.0" r="3" fill="#4e79a7"/><circle cx="169.3" cy="223.5" r="3" fill="#4e79a7"/><circle cx="184.0" cy="215.0" r="3" fill="#4e79a7"/><circle cx="198.7" cy="206.5" r="3" fill="#4e79a7"/><circle cx="213.3" cy="189.5" r="3" fill="#4e79a7"/><circle cx="228.0" cy="223.5" r="3" fill="#4e79a7"/><circle cx="242.7" cy="223.5" r="3" fill="#4e79a7"/><circle cx="257.3" cy="223.5" r="3" fill="#4e79a7"/><circle cx="272.0" cy="232.0" r="3" fill="#4e79a7"/><circle cx="286.7" cy="223.5" r="3" fill="#4e79a7"/><circle cx="301.3" cy="198.0" r="3" fill="#4e79a7"/><circle cx="316.0" cy="232.0" r="3" fill="#4e79a7"/><circle cx="330.7" cy="232.0" r="3" fill="#4e79a7"/><circle cx="345.3" cy="215.0" r="3" fill="#4e79a7"/><circle cx="360.0" cy="232.0" r="3" fill="#4e79a7"/><circle cx="374.7" cy="232.0" r="3" fill="#4e79a7"/><circle cx="389.3" cy="232.0" r="3" fill="#4e79a7"/><circle cx="404.0" cy="223.5" r="3" fill="#4e79a7"/><circle cx="418.7" cy="232.0" r="3" fill="#4e79a7"/><circle cx="433.3" cy="232.0" r="3" fill="#4e79a7"/><circle cx="448.0" cy="232.0" r="3" fill="#4e79a7"/><circle cx="462.7" cy="232.0" r="3" fill="#4e79a7"/><circle cx="477.3" cy="181.0" r="3" fill="#4e79a7"/><circle cx="492.0" cy="198.0" r="3" fill="#4e79a7"/><circle cx="506.7" cy="223.5" r="3" fill="#4e79a7"/><circle cx="521.3" cy="223.5" r="3" fill="#4e79a7"/><circle cx="536.0" cy="232.0" r="3" fill="#4e79a7"/><circle cx="550.7" cy="232.0" r="3" fill="#4e79a7"/><circle cx="565.3" cy="232.0" r="3" fill="#4e79a7"/><circle cx="580.0" cy="215.0" r="3" fill="#4e79a7"/><circle cx="594.7" cy="223.5" r="3" fill="#4e79a7"/><circle cx="609.3" cy="121.5" r="3" fill="#4e79a7"/><circle cx="624.0" cy="215.0" r="3" fill="#4e79a7"/><circle cx="638.7" cy="164.0" r="3" fill="#4e79a7"/><circle cx="653.3" cy="223.5" r="3" fill="#4e79a7"/><circle cx="668.0" cy="181.0" r="3" fill="#4e79a7"/><circle cx="682.7" cy="223.5" r="3" fill="#4e79a7"/><circle cx="697.3" cy="232.0" r="3" fill="#4e79a7"/><circle cx="712.0" cy="189.5" r="3" fill="#4e79a7"/><circle cx="726.7" cy="223.5" r="3" fill="#4e79a7"/><circle cx="741.3" cy="215.0" r="3" fill="#4e79a7"/><circle cx="756.0" cy="223.5" r="3" fill="#4e79a7"/><circle cx="770.7" cy="232.0" r="3" fill="#4e79a7"/><circle cx="785.3" cy="206.5" r="3" fill="#4e79a7"/><circle cx="800.0" cy="232.0" r="3" fill="#4e79a7"/>
  <circle cx="52.0" cy="232.0" r="3" fill="#f28e2b"/><circle cx="66.7" cy="223.5" r="3" fill="#f28e2b"/><circle cx="81.3" cy="113.0" r="3" fill="#f28e2b"/><circle cx="96.0" cy="223.5" r="3" fill="#f28e2b"/><circle cx="110.7" cy="232.0" r="3" fill="#f28e2b"/><circle cx="125.3" cy="232.0" r="3" fill="#f28e2b"/><circle cx="140.0" cy="232.0" r="3" fill="#f28e2b"/><circle cx="154.7" cy="215.0" r="3" fill="#f28e2b"/><circle cx="169.3" cy="223.5" r="3" fill="#f28e2b"/><circle cx="184.0" cy="215.0" r="3" fill="#f28e2b"/><circle cx="198.7" cy="206.5" r="3" fill="#f28e2b"/><circle cx="213.3" cy="215.0" r="3" fill="#f28e2b"/><circle cx="228.0" cy="223.5" r="3" fill="#f28e2b"/><circle cx="242.7" cy="223.5" r="3" fill="#f28e2b"/><circle cx="257.3" cy="223.5" r="3" fill="#f28e2b"/><circle cx="272.0" cy="232.0" r="3" fill="#f28e2b"/><circle cx="286.7" cy="223.5" r="3" fill="#f28e2b"/><circle cx="301.3" cy="206.5" r="3" fill="#f28e2b"/><circle cx="316.0" cy="232.0" r="3" fill="#f28e2b"/><circle cx="330.7" cy="232.0" r="3" fill="#f28e2b"/><circle cx="345.3" cy="215.0" r="3" fill="#f28e2b"/><circle cx="360.0" cy="232.0" r="3" fill="#f28e2b"/><circle cx="374.7" cy="232.0" r="3" fill="#f28e2b"/><circle cx="389.3" cy="232.0" r="3" fill="#f28e2b"/><circle cx="404.0" cy="223.5" r="3" fill="#f28e2b"/><circle cx="418.7" cy="232.0" r="3" fill="#f28e2b"/><circle cx="433.3" cy="232.0" r="3" fill="#f28e2b"/><circle cx="448.0" cy="232.0" r="3" fill="#f28e2b"/><circle cx="462.7" cy="232.0" r="3" fill="#f28e2b"/><circle cx="477.3" cy="198.0" r="3" fill="#f28e2b"/><circle cx="492.0" cy="215.0" r="3" fill="#f28e2b"/><circle cx="506.7" cy="223.5" r="3" fill="#f28e2b"/><circle cx="521.3" cy="223.5" r="3" fill="#f28e2b"/><circle cx="536.0" cy="232.0" r="3" fill="#f28e2b"/><circle cx="550.7" cy="232.0" r="3" fill="#f28e2b"/><circle cx="565.3" cy="232.0" r="3" fill="#f28e2b"/><circle cx="580.0" cy="215.0" r="3" fill="#f28e2b"/><circle cx="594.7" cy="223.5" r="3" fill="#f28e2b"/><circle cx="609.3" cy="147.0" r="3" fill="#f28e2b"/><circle cx="624.0" cy="215.0" r="3" fill="#f28e2b"/><circle cx="638.7" cy="189.5" r="3" fill="#f28e2b"/><circle cx="653.3" cy="223.5" r="3" fill="#f28e2b"/><circle cx="668.0" cy="206.5" r="3" fill="#f28e2b"/><circle cx="682.7" cy="223.5" r="3" fill="#f28e2b"/><circle cx="697.3" cy="232.0" r="3" fill="#f28e2b"/><circle cx="712.0" cy="215.0" r="3" fill="#f28e2b"/><circle cx="726.7" cy="223.5" r="3" fill="#f28e2b"/><circle cx="741.3" cy="215.0" r="3" fill="#f28e2b"/><circle cx="756.0" cy="223.5" r="3" fill="#f28e2b"/><circle cx="770.7" cy="232.0" r="3" fill="#f28e2b"/><circle cx="785.3" cy="206.5" r="3" fill="#f28e2b"/><circle cx="800.0" cy="232.0" r="3" fill="#f28e2b"/>

  <!-- axes -->
  <line x1="52" y1="28" x2="52" y2="232"
        stroke="#cccccc" stroke-width="1"/>
  <line x1="52" y1="232" x2="800" y2="232"
        stroke="#cccccc" stroke-width="1"/>

  <!-- y-axis labels -->
  <text x="47" y="236.0" text-anchor="end" font-size="10" fill="#57606a" font-family="ui-monospace, SFMono-Regular, 'SF Mono', Menlo, monospace">0</text><text x="47" y="193.5" text-anchor="end" font-size="10" fill="#57606a" font-family="ui-monospace, SFMono-Regular, 'SF Mono', Menlo, monospace">5</text><text x="47" y="151.0" text-anchor="end" font-size="10" fill="#57606a" font-family="ui-monospace, SFMono-Regular, 'SF Mono', Menlo, monospace">10</text><text x="47" y="108.5" text-anchor="end" font-size="10" fill="#57606a" font-family="ui-monospace, SFMono-Regular, 'SF Mono', Menlo, monospace">15</text><text x="47" y="66.0" text-anchor="end" font-size="10" fill="#57606a" font-family="ui-monospace, SFMono-Regular, 'SF Mono', Menlo, monospace">20</text><text x="47" y="23.5" text-anchor="end" font-size="10" fill="#57606a" font-family="ui-monospace, SFMono-Regular, 'SF Mono', Menlo, monospace">25</text>

  <!-- x-axis labels -->
  <text x="52.0" y="248" text-anchor="middle" font-size="10" fill="#8c959f" font-family="ui-monospace, SFMono-Regular, 'SF Mono', Menlo, monospace">05-11</text><text x="580.0" y="248" text-anchor="middle" font-size="10" fill="#8c959f" font-family="ui-monospace, SFMono-Regular, 'SF Mono', Menlo, monospace">06-16</text><text x="140.0" y="248" text-anchor="middle" font-size="10" fill="#8c959f" font-family="ui-monospace, SFMono-Regular, 'SF Mono', Menlo, monospace">05-17</text><text x="668.0" y="248" text-anchor="middle" font-size="10" fill="#8c959f" font-family="ui-monospace, SFMono-Regular, 'SF Mono', Menlo, monospace">06-22</text><text x="228.0" y="248" text-anchor="middle" font-size="10" fill="#8c959f" font-family="ui-monospace, SFMono-Regular, 'SF Mono', Menlo, monospace">05-23</text><text x="756.0" y="248" text-anchor="middle" font-size="10" fill="#8c959f" font-family="ui-monospace, SFMono-Regular, 'SF Mono', Menlo, monospace">06-28</text><text x="316.0" y="248" text-anchor="middle" font-size="10" fill="#8c959f" font-family="ui-monospace, SFMono-Regular, 'SF Mono', Menlo, monospace">05-29</text><text x="800.0" y="248" text-anchor="middle" font-size="10" fill="#8c959f" font-family="ui-monospace, SFMono-Regular, 'SF Mono', Menlo, monospace">07-01</text><text x="404.0" y="248" text-anchor="middle" font-size="10" fill="#8c959f" font-family="ui-monospace, SFMono-Regular, 'SF Mono', Menlo, monospace">06-04</text><text x="492.0" y="248" text-anchor="middle" font-size="10" fill="#8c959f" font-family="ui-monospace, SFMono-Regular, 'SF Mono', Menlo, monospace">06-10</text>

  <!-- legend -->
  <rect x="60" y="262" width="16" height="3" fill="#4e79a7" rx="1"/><text x="80" y="268" font-size="11" fill="#57606a" font-family="-apple-system, BlinkMacSystemFont, 'Segoe UI', sans-serif">Total clones (108)</text><line x1="230" y1="264" x2="246" y2="264" stroke="#f28e2b" stroke-width="2" stroke-dasharray="5,3"/><text x="250" y="268" font-size="11" fill="#57606a" font-family="-apple-system, BlinkMacSystemFont, 'Segoe UI', sans-serif">Unique cloners</text>

</svg>