<svg xmlns="http://www.w3.org/2000/svg" viewBox="0 0 820 280" width="820" height="280">

  <!-- title -->
  <text x="52" y="18" font-size="13" font-weight="600"
        fill="#24292f" font-family="-apple-system, BlinkMacSystemFont, 'Segoe UI', sans-serif"
        >Clone traffic — home-monitor</text>
  <text x="800" y="18" font-size="10" fill="#8c959f"
        font-family="ui-monospace, SFMono-Regular, 'SF Mono', Menlo, monospace" text-anchor="end">2026-06-26</text>

  <!-- grid -->
  <line x1="52" y1="232.0" x2="800" y2="232.0" stroke="#e8e8e8" stroke-width="1"/><line x1="52" y1="196.0" x2="800" y2="196.0" stroke="#e8e8e8" stroke-width="1"/><line x1="52" y1="160.0" x2="800" y2="160.0" stroke="#e8e8e8" stroke-width="1"/><line x1="52" y1="124.0" x2="800" y2="124.0" stroke="#e8e8e8" stroke-width="1"/><line x1="52" y1="88.0" x2="800" y2="88.0" stroke="#e8e8e8" stroke-width="1"/><line x1="52" y1="52.0" x2="800" y2="52.0" stroke="#e8e8e8" stroke-width="1"/><line x1="52" y1="16.0" x2="800" y2="16.0" stroke="#e8e8e8" stroke-width="1"/>

  <!-- area fill -->
  <path d="M52.0,232.0 L52.0,232.0 L69.0,220.0 L86.0,196.0 L103.0,232.0 L120.0,220.0 L137.0,232.0 L154.0,232.0 L171.0,232.0 L188.0,220.0 L205.0,232.0 L222.0,232.0 L239.0,220.0 L256.0,232.0 L273.0,28.0 L290.0,232.0 L307.0,232.0 L324.0,232.0 L341.0,220.0 L358.0,220.0 L375.0,220.0 L392.0,220.0 L409.0,232.0 L426.0,208.0 L443.0,232.0 L460.0,220.0 L477.0,220.0 L494.0,232.0 L511.0,208.0 L528.0,232.0 L545.0,208.0 L562.0,220.0 L579.0,232.0 L596.0,220.0 L613.0,232.0 L630.0,232.0 L647.0,232.0 L664.0,232.0 L681.0,232.0 L698.0,136.0 L715.0,208.0 L732.0,208.0 L749.0,232.0 L766.0,232.0 L783.0,232.0 L800.0,220.0 L800.0,232.0 L52.0,232.0Z" fill="#4e79a7" opacity="0.12"/>

  <!-- lines -->
  <polyline points="52.0,232.0 69.0,220.0 86.0,196.0 103.0,232.0 120.0,220.0 137.0,232.0 154.0,232.0 171.0,232.0 188.0,220.0 205.0,232.0 222.0,232.0 239.0,220.0 256.0,232.0 273.0,28.0 290.0,232.0 307.0,232.0 324.0,232.0 341.0,220.0 358.0,220.0 375.0,220.0 392.0,220.0 409.0,232.0 426.0,208.0 443.0,232.0 460.0,220.0 477.0,220.0 494.0,232.0 511.0,208.0 528.0,232.0 545.0,208.0 562.0,220.0 579.0,232.0 596.0,220.0 613.0,232.0 630.0,232.0 647.0,232.0 664.0,232.0 681.0,232.0 698.0,136.0 715.0,208.0 732.0,208.0 749.0,232.0 766.0,232.0 783.0,232.0 800.0,220.0"
            fill="none" stroke="#4e79a7"
            stroke-width="2" stroke-linejoin="round"/>
  <polyline points="52.0,232.0 69.0,220.0 86.0,196.0 103.0,232.0 120.0,220.0 137.0,232.0 154.0,232.0 171.0,232.0 188.0,220.0 205.0,232.0 222.0,232.0 239.0,220.0 256.0,232.0 273.0,76.0 290.0,232.0 307.0,232.0 324.0,232.0 341.0,220.0 358.0,220.0 375.0,220.0 392.0,220.0 409.0,232.0 426.0,208.0 443.0,232.0 460.0,220.0 477.0,220.0 494.0,232.0 511.0,208.0 528.0,232.0 545.0,208.0 562.0,220.0 579.0,232.0 596.0,220.0 613.0,232.0 630.0,232.0 647.0,232.0 664.0,232.0 681.0,232.0 698.0,148.0 715.0,208.0 732.0,208.0 749.0,232.0 766.0,232.0 783.0,232.0 800.0,220.0"
            fill="none" stroke="#f28e2b"
            stroke-width="2" stroke-linejoin="round"
            stroke-dasharray="5,3"/>

  <!-- dots -->
  <circle cx="52.0" cy="232.0" r="3" fill="#4e79a7"/><circle cx="69.0" cy="220.0" r="3" fill="#4e79a7"/><circle cx="86.0" cy="196.0" r="3" fill="#4e79a7"/><circle cx="103.0" cy="232.0" r="3" fill="#4e79a7"/><circle cx="120.0" cy="220.0" r="3" fill="#4e79a7"/><circle cx="137.0" cy="232.0" r="3" fill="#4e79a7"/><circle cx="154.0" cy="232.0" r="3" fill="#4e79a7"/><circle cx="171.0" cy="232.0" r="3" fill="#4e79a7"/><circle cx="188.0" cy="220.0" r="3" fill="#4e79a7"/><circle cx="205.0" cy="232.0" r="3" fill="#4e79a7"/><circle cx="222.0" cy="232.0" r="3" fill="#4e79a7"/><circle cx="239.0" cy="220.0" r="3" fill="#4e79a7"/><circle cx="256.0" cy="232.0" r="3" fill="#4e79a7"/><circle cx="273.0" cy="28.0" r="3" fill="#4e79a7"/><circle cx="290.0" cy="232.0" r="3" fill="#4e79a7"/><circle cx="307.0" cy="232.0" r="3" fill="#4e79a7"/><circle cx="324.0" cy="232.0" r="3" fill="#4e79a7"/><circle cx="341.0" cy="220.0" r="3" fill="#4e79a7"/><circle cx="358.0" cy="220.0" r="3" fill="#4e79a7"/><circle cx="375.0" cy="220.0" r="3" fill="#4e79a7"/><circle cx="392.0" cy="220.0" r="3" fill="#4e79a7"/><circle cx="409.0" cy="232.0" r="3" fill="#4e79a7"/><circle cx="426.0" cy="208.0" r="3" fill="#4e79a7"/><circle cx="443.0" cy="232.0" r="3" fill="#4e79a7"/><circle cx="460.0" cy="220.0" r="3" fill="#4e79a7"/><circle cx="477.0" cy="220.0" r="3" fill="#4e79a7"/><circle cx="494.0" cy="232.0" r="3" fill="#4e79a7"/><circle cx="511.0" cy="208.0" r="3" fill="#4e79a7"/><circle cx="528.0" cy="232.0" r="3" fill="#4e79a7"/><circle cx="545.0" cy="208.0" r="3" fill="#4e79a7"/><circle cx="562.0" cy="220.0" r="3" fill="#4e79a7"/><circle cx="579.0" cy="232.0" r="3" fill="#4e79a7"/><circle cx="596.0" cy="220.0" r="3" fill="#4e79a7"/><circle cx="613.0" cy="232.0" r="3" fill="#4e79a7"/><circle cx="630.0" cy="232.0" r="3" fill="#4e79a7"/><circle cx="647.0" cy="232.0" r="3" fill="#4e79a7"/><circle cx="664.0" cy="232.0" r="3" fill="#4e79a7"/><circle cx="681.0" cy="232.0" r="3" fill="#4e79a7"/><circle cx="698.0" cy="136.0" r="3" fill="#4e79a7"/><circle cx="715.0" cy="208.0" r="3" fill="#4e79a7"/><circle cx="732.0" cy="208.0" r="3" fill="#4e79a7"/><circle cx="749.0" cy="232.0" r="3" fill="#4e79a7"/><circle cx="766.0" cy="232.0" r="3" fill="#4e79a7"/><circle cx="783.0" cy="232.0" r="3" fill="#4e79a7"/><circle cx="800.0" cy="220.0" r="3" fill="#4e79a7"/>
  <circle cx="52.0" cy="232.0" r="3" fill="#f28e2b"/><circle cx="69.0" cy="220.0" r="3" fill="#f28e2b"/><circle cx="86.0" cy="196.0" r="3" fill="#f28e2b"/><circle cx="103.0" cy="232.0" r="3" fill="#f28e2b"/><circle cx="120.0" cy="220.0" r="3" fill="#f28e2b"/><circle cx="137.0" cy="232.0" r="3" fill="#f28e2b"/><circle cx="154.0" cy="232.0" r="3" fill="#f28e2b"/><circle cx="171.0" cy="232.0" r="3" fill="#f28e2b"/><circle cx="188.0" cy="220.0" r="3" fill="#f28e2b"/><circle cx="205.0" cy="232.0" r="3" fill="#f28e2b"/><circle cx="222.0" cy="232.0" r="3" fill="#f28e2b"/><circle cx="239.0" cy="220.0" r="3" fill="#f28e2b"/><circle cx="256.0" cy="232.0" r="3" fill="#f28e2b"/><circle cx="273.0" cy="76.0" r="3" fill="#f28e2b"/><circle cx="290.0" cy="232.0" r="3" fill="#f28e2b"/><circle cx="307.0" cy="232.0" r="3" fill="#f28e2b"/><circle cx="324.0" cy="232.0" r="3" fill="#f28e2b"/><circle cx="341.0" cy="220.0" r="3" fill="#f28e2b"/><circle cx="358.0" cy="220.0" r="3" fill="#f28e2b"/><circle cx="375.0" cy="220.0" r="3" fill="#f28e2b"/><circle cx="392.0" cy="220.0" r="3" fill="#f28e2b"/><circle cx="409.0" cy="232.0" r="3" fill="#f28e2b"/><circle cx="426.0" cy="208.0" r="3" fill="#f28e2b"/><circle cx="443.0" cy="232.0" r="3" fill="#f28e2b"/><circle cx="460.0" cy="220.0" r="3" fill="#f28e2b"/><circle cx="477.0" cy="220.0" r="3" fill="#f28e2b"/><circle cx="494.0" cy="232.0" r="3" fill="#f28e2b"/><circle cx="511.0" cy="208.0" r="3" fill="#f28e2b"/><circle cx="528.0" cy="232.0" r="3" fill="#f28e2b"/><circle cx="545.0" cy="208.0" r="3" fill="#f28e2b"/><circle cx="562.0" cy="220.0" r="3" fill="#f28e2b"/><circle cx="579.0" cy="232.0" r="3" fill="#f28e2b"/><circle cx="596.0" cy="220.0" r="3" fill="#f28e2b"/><circle cx="613.0" cy="232.0" r="3" fill="#f28e2b"/><circle cx="630.0" cy="232.0" r="3" fill="#f28e2b"/><circle cx="647.0" cy="232.0" r="3" fill="#f28e2b"/><circle cx="664.0" cy="232.0" r="3" fill="#f28e2b"/><circle cx="681.0" cy="232.0" r="3" fill="#f28e2b"/><circle cx="698.0" cy="148.0" r="3" fill="#f28e2b"/><circle cx="715.0" cy="208.0" r="3" fill="#f28e2b"/><circle cx="732.0" cy="208.0" r="3" fill="#f28e2b"/><circle cx="749.0" cy="232.0" r="3" fill="#f28e2b"/><circle cx="766.0" cy="232.0" r="3" fill="#f28e2b"/><circle cx="783.0" cy="232.0" r="3" fill="#f28e2b"/><circle cx="800.0" cy="220.0" r="3" fill="#f28e2b"/>

  <!-- axes -->
  <line x1="52" y1="28" x2="52" y2="232"
        stroke="#cccccc" stroke-width="1"/>
  <line x1="52" y1="232" x2="800" y2="232"
        stroke="#cccccc" stroke-width="1"/>

  <!-- y-axis labels -->
  <text x="47" y="236.0" text-anchor="end" font-size="10" fill="#57606a" font-family="ui-monospace, SFMono-Regular, 'SF Mono', Menlo, monospace">0</text><text x="47" y="200.0" text-anchor="end" font-size="10" fill="#57606a" font-family="ui-monospace, SFMono-Regular, 'SF Mono', Menlo, monospace">3</text><text x="47" y="164.0" text-anchor="end" font-size="10" fill="#57606a" font-family="ui-monospace, SFMono-Regular, 'SF Mono', Menlo, monospace">6</text><text x="47" y="128.0" text-anchor="end" font-size="10" fill="#57606a" font-family="ui-monospace, SFMono-Regular, 'SF Mono', Menlo, monospace">9</text><text x="47" y="92.0" text-anchor="end" font-size="10" fill="#57606a" font-family="ui-monospace, SFMono-Regular, 'SF Mono', Menlo, monospace">12</text><text x="47" y="56.0" text-anchor="end" font-size="10" fill="#57606a" font-family="ui-monospace, SFMono-Regular, 'SF Mono', Menlo, monospace">15</text><text x="47" y="20.0" text-anchor="end" font-size="10" fill="#57606a" font-family="ui-monospace, SFMono-Regular, 'SF Mono', Menlo, monospace">18</text>

  <!-- x-axis labels -->
  <text x="52.0" y="248" text-anchor="middle" font-size="10" fill="#8c959f" font-family="ui-monospace, SFMono-Regular, 'SF Mono', Menlo, monospace">05-11</text><text x="647.0" y="248" text-anchor="middle" font-size="10" fill="#8c959f" font-family="ui-monospace, SFMono-Regular, 'SF Mono', Menlo, monospace">06-15</text><text x="137.0" y="248" text-anchor="middle" font-size="10" fill="#8c959f" font-family="ui-monospace, SFMono-Regular, 'SF Mono', Menlo, monospace">05-16</text><text x="732.0" y="248" text-anchor="middle" font-size="10" fill="#8c959f" font-family="ui-monospace, SFMono-Regular, 'SF Mono', Menlo, monospace">06-20</text><text x="222.0" y="248" text-anchor="middle" font-size="10" fill="#8c959f" font-family="ui-monospace, SFMono-Regular, 'SF Mono', Menlo, monospace">05-21</text><text x="800.0" y="248" text-anchor="middle" font-size="10" fill="#8c959f" font-family="ui-monospace, SFMono-Regular, 'SF Mono', Menlo, monospace">06-24</text><text x="307.0" y="248" text-anchor="middle" font-size="10" fill="#8c959f" font-family="ui-monospace, SFMono-Regular, 'SF Mono', Menlo, monospace">05-26</text><text x="392.0" y="248" text-anchor="middle" font-size="10" fill="#8c959f" font-family="ui-monospace, SFMono-Regular, 'SF Mono', Menlo, monospace">05-31</text><text x="477.0" y="248" text-anchor="middle" font-size="10" fill="#8c959f" font-family="ui-monospace, SFMono-Regular, 'SF Mono', Menlo, monospace">06-05</text><text x="562.0" y="248" text-anchor="middle" font-size="10" fill="#8c959f" font-family="ui-monospace, SFMono-Regular, 'SF Mono', Menlo, monospace">06-10</text>

  <!-- legend -->
  <rect x="60" y="262" width="16" height="3" fill="#4e79a7" rx="1"/><text x="80" y="268" font-size="11" fill="#57606a" font-family="-apple-system, BlinkMacSystemFont, 'Segoe UI', sans-serif">Total clones (51)</text><line x1="230" y1="264" x2="246" y2="264" stroke="#f28e2b" stroke-width="2" stroke-dasharray="5,3"/><text x="250" y="268" font-size="11" fill="#57606a" font-family="-apple-system, BlinkMacSystemFont, 'Segoe UI', sans-serif">Unique cloners</text>

</svg>