<svg xmlns="http://www.w3.org/2000/svg" viewBox="0 0 820 280" width="820" height="280">

  <!-- title -->
  <text x="52" y="18" font-size="13" font-weight="600"
        fill="#24292f" font-family="-apple-system, BlinkMacSystemFont, 'Segoe UI', sans-serif"
        >Clone traffic — home-monitor</text>
  <text x="800" y="18" font-size="10" fill="#8c959f"
        font-family="ui-monospace, SFMono-Regular, 'SF Mono', Menlo, monospace" text-anchor="end">2026-07-13</text>

  <!-- grid -->
  <line x1="52" y1="232.0" x2="800" y2="232.0" stroke="#e8e8e8" stroke-width="1"/><line x1="52" y1="196.0" x2="800" y2="196.0" stroke="#e8e8e8" stroke-width="1"/><line x1="52" y1="160.0" x2="800" y2="160.0" stroke="#e8e8e8" stroke-width="1"/><line x1="52" y1="124.0" x2="800" y2="124.0" stroke="#e8e8e8" stroke-width="1"/><line x1="52" y1="88.0" x2="800" y2="88.0" stroke="#e8e8e8" stroke-width="1"/><line x1="52" y1="52.0" x2="800" y2="52.0" stroke="#e8e8e8" stroke-width="1"/><line x1="52" y1="16.0" x2="800" y2="16.0" stroke="#e8e8e8" stroke-width="1"/>

  <!-- area fill -->
  <path d="M52.0,232.0 L52.0,232.0 L64.3,220.0 L76.5,196.0 L88.8,232.0 L101.0,220.0 L113.3,232.0 L125.6,232.0 L137.8,232.0 L150.1,220.0 L162.4,232.0 L174.6,232.0 L186.9,220.0 L199.1,232.0 L211.4,28.0 L223.7,232.0 L235.9,232.0 L248.2,232.0 L260.5,220.0 L272.7,220.0 L285.0,220.0 L297.2,220.0 L309.5,232.0 L321.8,208.0 L334.0,232.0 L346.3,220.0 L358.6,220.0 L370.8,232.0 L383.1,208.0 L395.3,232.0 L407.6,208.0 L419.9,220.0 L432.1,232.0 L444.4,220.0 L456.7,232.0 L468.9,232.0 L481.2,232.0 L493.4,232.0 L505.7,232.0 L518.0,136.0 L530.2,208.0 L542.5,208.0 L554.8,232.0 L567.0,232.0 L579.3,232.0 L591.5,220.0 L603.8,232.0 L616.1,208.0 L628.3,232.0 L640.6,220.0 L652.9,232.0 L665.1,232.0 L677.4,232.0 L689.6,232.0 L701.9,220.0 L714.2,232.0 L726.4,232.0 L738.7,232.0 L751.0,232.0 L763.2,232.0 L775.5,232.0 L787.7,232.0 L800.0,232.0 L800.0,232.0 L52.0,232.0Z" fill="#4e79a7" opacity="0.12"/>

  <!-- lines -->
  <polyline points="52.0,232.0 64.3,220.0 76.5,196.0 88.8,232.0 101.0,220.0 113.3,232.0 125.6,232.0 137.8,232.0 150.1,220.0 162.4,232.0 174.6,232.0 186.9,220.0 199.1,232.0 211.4,28.0 223.7,232.0 235.9,232.0 248.2,232.0 260.5,220.0 272.7,220.0 285.0,220.0 297.2,220.0 309.5,232.0 321.8,208.0 334.0,232.0 346.3,220.0 358.6,220.0 370.8,232.0 383.1,208.0 395.3,232.0 407.6,208.0 419.9,220.0 432.1,232.0 444.4,220.0 456.7,232.0 468.9,232.0 481.2,232.0 493.4,232.0 505.7,232.0 518.0,136.0 530.2,208.0 542.5,208.0 554.8,232.0 567.0,232.0 579.3,232.0 591.5,220.0 603.8,232.0 616.1,208.0 628.3,232.0 640.6,220.0 652.9,232.0 665.1,232.0 677.4,232.0 689.6,232.0 701.9,220.0 714.2,232.0 726.4,232.0 738.7,232.0 751.0,232.0 763.2,232.0 775.5,232.0 787.7,232.0 800.0,232.0"
            fill="none" stroke="#4e79a7"
            stroke-width="2" stroke-linejoin="round"/>
  <polyline points="52.0,232.0 64.3,220.0 76.5,196.0 88.8,232.0 101.0,220.0 113.3,232.0 125.6,232.0 137.8,232.0 150.1,220.0 162.4,232.0 174.6,232.0 186.9,220.0 199.1,232.0 211.4,76.0 223.7,232.0 235.9,232.0 248.2,232.0 260.5,220.0 272.7,220.0 285.0,220.0 297.2,220.0 309.5,232.0 321.8,208.0 334.0,232.0 346.3,220.0 358.6,220.0 370.8,232.0 383.1,208.0 395.3,232.0 407.6,208.0 419.9,220.0 432.1,232.0 444.4,220.0 456.7,232.0 468.9,232.0 481.2,232.0 493.4,232.0 505.7,232.0 518.0,148.0 530.2,208.0 542.5,208.0 554.8,232.0 567.0,232.0 579.3,232.0 591.5,220.0 603.8,232.0 616.1,208.0 628.3,232.0 640.6,220.0 652.9,232.0 665.1,232.0 677.4,232.0 689.6,232.0 701.9,220.0 714.2,232.0 726.4,232.0 738.7,232.0 751.0,232.0 763.2,232.0 775.5,232.0 787.7,232.0 800.0,232.0"
            fill="none" stroke="#f28e2b"
            stroke-width="2" stroke-linejoin="round"
            stroke-dasharray="5,3"/>

  <!-- dots -->
  <circle cx="52.0" cy="232.0" r="3" fill="#4e79a7"/><circle cx="64.3" cy="220.0" r="3" fill="#4e79a7"/><circle cx="76.5" cy="196.0" r="3" fill="#4e79a7"/><circle cx="88.8" cy="232.0" r="3" fill="#4e79a7"/><circle cx="101.0" cy="220.0" r="3" fill="#4e79a7"/><circle cx="113.3" cy="232.0" r="3" fill="#4e79a7"/><circle cx="125.6" cy="232.0" r="3" fill="#4e79a7"/><circle cx="137.8" cy="232.0" r="3" fill="#4e79a7"/><circle cx="150.1" cy="220.0" r="3" fill="#4e79a7"/><circle cx="162.4" cy="232.0" r="3" fill="#4e79a7"/><circle cx="174.6" cy="232.0" r="3" fill="#4e79a7"/><circle cx="186.9" cy="220.0" r="3" fill="#4e79a7"/><circle cx="199.1" cy="232.0" r="3" fill="#4e79a7"/><circle cx="211.4" cy="28.0" r="3" fill="#4e79a7"/><circle cx="223.7" cy="232.0" r="3" fill="#4e79a7"/><circle cx="235.9" cy="232.0" r="3" fill="#4e79a7"/><circle cx="248.2" cy="232.0" r="3" fill="#4e79a7"/><circle cx="260.5" cy="220.0" r="3" fill="#4e79a7"/><circle cx="272.7" cy="220.0" r="3" fill="#4e79a7"/><circle cx="285.0" cy="220.0" r="3" fill="#4e79a7"/><circle cx="297.2" cy="220.0" r="3" fill="#4e79a7"/><circle cx="309.5" cy="232.0" r="3" fill="#4e79a7"/><circle cx="321.8" cy="208.0" r="3" fill="#4e79a7"/><circle cx="334.0" cy="232.0" r="3" fill="#4e79a7"/><circle cx="346.3" cy="220.0" r="3" fill="#4e79a7"/><circle cx="358.6" cy="220.0" r="3" fill="#4e79a7"/><circle cx="370.8" cy="232.0" r="3" fill="#4e79a7"/><circle cx="383.1" cy="208.0" r="3" fill="#4e79a7"/><circle cx="395.3" cy="232.0" r="3" fill="#4e79a7"/><circle cx="407.6" cy="208.0" r="3" fill="#4e79a7"/><circle cx="419.9" cy="220.0" r="3" fill="#4e79a7"/><circle cx="432.1" cy="232.0" r="3" fill="#4e79a7"/><circle cx="444.4" cy="220.0" r="3" fill="#4e79a7"/><circle cx="456.7" cy="232.0" r="3" fill="#4e79a7"/><circle cx="468.9" cy="232.0" r="3" fill="#4e79a7"/><circle cx="481.2" cy="232.0" r="3" fill="#4e79a7"/><circle cx="493.4" cy="232.0" r="3" fill="#4e79a7"/><circle cx="505.7" cy="232.0" r="3" fill="#4e79a7"/><circle cx="518.0" cy="136.0" r="3" fill="#4e79a7"/><circle cx="530.2" cy="208.0" r="3" fill="#4e79a7"/><circle cx="542.5" cy="208.0" r="3" fill="#4e79a7"/><circle cx="554.8" cy="232.0" r="3" fill="#4e79a7"/><circle cx="567.0" cy="232.0" r="3" fill="#4e79a7"/><circle cx="579.3" cy="232.0" r="3" fill="#4e79a7"/><circle cx="591.5" cy="220.0" r="3" fill="#4e79a7"/><circle cx="603.8" cy="232.0" r="3" fill="#4e79a7"/><circle cx="616.1" cy="208.0" r="3" fill="#4e79a7"/><circle cx="628.3" cy="232.0" r="3" fill="#4e79a7"/><circle cx="640.6" cy="220.0" r="3" fill="#4e79a7"/><circle cx="652.9" cy="232.0" r="3" fill="#4e79a7"/><circle cx="665.1" cy="232.0" r="3" fill="#4e79a7"/><circle cx="677.4" cy="232.0" r="3" fill="#4e79a7"/><circle cx="689.6" cy="232.0" r="3" fill="#4e79a7"/><circle cx="701.9" cy="220.0" r="3" fill="#4e79a7"/><circle cx="714.2" cy="232.0" r="3" fill="#4e79a7"/><circle cx="726.4" cy="232.0" r="3" fill="#4e79a7"/><circle cx="738.7" cy="232.0" r="3" fill="#4e79a7"/><circle cx="751.0" cy="232.0" r="3" fill="#4e79a7"/><circle cx="763.2" cy="232.0" r="3" fill="#4e79a7"/><circle cx="775.5" cy="232.0" r="3" fill="#4e79a7"/><circle cx="787.7" cy="232.0" r="3" fill="#4e79a7"/><circle cx="800.0" cy="232.0" r="3" fill="#4e79a7"/>
  <circle cx="52.0" cy="232.0" r="3" fill="#f28e2b"/><circle cx="64.3" cy="220.0" r="3" fill="#f28e2b"/><circle cx="76.5" cy="196.0" r="3" fill="#f28e2b"/><circle cx="88.8" cy="232.0" r="3" fill="#f28e2b"/><circle cx="101.0" cy="220.0" r="3" fill="#f28e2b"/><circle cx="113.3" cy="232.0" r="3" fill="#f28e2b"/><circle cx="125.6" cy="232.0" r="3" fill="#f28e2b"/><circle cx="137.8" cy="232.0" r="3" fill="#f28e2b"/><circle cx="150.1" cy="220.0" r="3" fill="#f28e2b"/><circle cx="162.4" cy="232.0" r="3" fill="#f28e2b"/><circle cx="174.6" cy="232.0" r="3" fill="#f28e2b"/><circle cx="186.9" cy="220.0" r="3" fill="#f28e2b"/><circle cx="199.1" cy="232.0" r="3" fill="#f28e2b"/><circle cx="211.4" cy="76.0" r="3" fill="#f28e2b"/><circle cx="223.7" cy="232.0" r="3" fill="#f28e2b"/><circle cx="235.9" cy="232.0" r="3" fill="#f28e2b"/><circle cx="248.2" cy="232.0" r="3" fill="#f28e2b"/><circle cx="260.5" cy="220.0" r="3" fill="#f28e2b"/><circle cx="272.7" cy="220.0" r="3" fill="#f28e2b"/><circle cx="285.0" cy="220.0" r="3" fill="#f28e2b"/><circle cx="297.2" cy="220.0" r="3" fill="#f28e2b"/><circle cx="309.5" cy="232.0" r="3" fill="#f28e2b"/><circle cx="321.8" cy="208.0" r="3" fill="#f28e2b"/><circle cx="334.0" cy="232.0" r="3" fill="#f28e2b"/><circle cx="346.3" cy="220.0" r="3" fill="#f28e2b"/><circle cx="358.6" cy="220.0" r="3" fill="#f28e2b"/><circle cx="370.8" cy="232.0" r="3" fill="#f28e2b"/><circle cx="383.1" cy="208.0" r="3" fill="#f28e2b"/><circle cx="395.3" cy="232.0" r="3" fill="#f28e2b"/><circle cx="407.6" cy="208.0" r="3" fill="#f28e2b"/><circle cx="419.9" cy="220.0" r="3" fill="#f28e2b"/><circle cx="432.1" cy="232.0" r="3" fill="#f28e2b"/><circle cx="444.4" cy="220.0" r="3" fill="#f28e2b"/><circle cx="456.7" cy="232.0" r="3" fill="#f28e2b"/><circle cx="468.9" cy="232.0" r="3" fill="#f28e2b"/><circle cx="481.2" cy="232.0" r="3" fill="#f28e2b"/><circle cx="493.4" cy="232.0" r="3" fill="#f28e2b"/><circle cx="505.7" cy="232.0" r="3" fill="#f28e2b"/><circle cx="518.0" cy="148.0" r="3" fill="#f28e2b"/><circle cx="530.2" cy="208.0" r="3" fill="#f28e2b"/><circle cx="542.5" cy="208.0" r="3" fill="#f28e2b"/><circle cx="554.8" cy="232.0" r="3" fill="#f28e2b"/><circle cx="567.0" cy="232.0" r="3" fill="#f28e2b"/><circle cx="579.3" cy="232.0" r="3" fill="#f28e2b"/><circle cx="591.5" cy="220.0" r="3" fill="#f28e2b"/><circle cx="603.8" cy="232.0" r="3" fill="#f28e2b"/><circle cx="616.1" cy="208.0" r="3" fill="#f28e2b"/><circle cx="628.3" cy="232.0" r="3" fill="#f28e2b"/><circle cx="640.6" cy="220.0" r="3" fill="#f28e2b"/><circle cx="652.9" cy="232.0" r="3" fill="#f28e2b"/><circle cx="665.1" cy="232.0" r="3" fill="#f28e2b"/><circle cx="677.4" cy="232.0" r="3" fill="#f28e2b"/><circle cx="689.6" cy="232.0" r="3" fill="#f28e2b"/><circle cx="701.9" cy="220.0" r="3" fill="#f28e2b"/><circle cx="714.2" cy="232.0" r="3" fill="#f28e2b"/><circle cx="726.4" cy="232.0" r="3" fill="#f28e2b"/><circle cx="738.7" cy="232.0" r="3" fill="#f28e2b"/><circle cx="751.0" cy="232.0" r="3" fill="#f28e2b"/><circle cx="763.2" cy="232.0" r="3" fill="#f28e2b"/><circle cx="775.5" cy="232.0" r="3" fill="#f28e2b"/><circle cx="787.7" cy="232.0" r="3" fill="#f28e2b"/><circle cx="800.0" cy="232.0" r="3" fill="#f28e2b"/>

  <!-- axes -->
  <line x1="52" y1="28" x2="52" y2="232"
        stroke="#cccccc" stroke-width="1"/>
  <line x1="52" y1="232" x2="800" y2="232"
        stroke="#cccccc" stroke-width="1"/>

  <!-- y-axis labels -->
  <text x="47" y="236.0" text-anchor="end" font-size="10" fill="#57606a" font-family="ui-monospace, SFMono-Regular, 'SF Mono', Menlo, monospace">0</text><text x="47" y="200.0" text-anchor="end" font-size="10" fill="#57606a" font-family="ui-monospace, SFMono-Regular, 'SF Mono', Menlo, monospace">3</text><text x="47" y="164.0" text-anchor="end" font-size="10" fill="#57606a" font-family="ui-monospace, SFMono-Regular, 'SF Mono', Menlo, monospace">6</text><text x="47" y="128.0" text-anchor="end" font-size="10" fill="#57606a" font-family="ui-monospace, SFMono-Regular, 'SF Mono', Menlo, monospace">9</text><text x="47" y="92.0" text-anchor="end" font-size="10" fill="#57606a" font-family="ui-monospace, SFMono-Regular, 'SF Mono', Menlo, monospace">12</text><text x="47" y="56.0" text-anchor="end" font-size="10" fill="#57606a" font-family="ui-monospace, SFMono-Regular, 'SF Mono', Menlo, monospace">15</text><text x="47" y="20.0" text-anchor="end" font-size="10" fill="#57606a" font-family="ui-monospace, SFMono-Regular, 'SF Mono', Menlo, monospace">18</text>

  <!-- x-axis labels -->
  <text x="52.0" y="248" text-anchor="middle" font-size="10" fill="#8c959f" font-family="ui-monospace, SFMono-Regular, 'SF Mono', Menlo, monospace">05-11</text><text x="481.2" y="248" text-anchor="middle" font-size="10" fill="#8c959f" font-family="ui-monospace, SFMono-Regular, 'SF Mono', Menlo, monospace">06-15</text><text x="137.8" y="248" text-anchor="middle" font-size="10" fill="#8c959f" font-family="ui-monospace, SFMono-Regular, 'SF Mono', Menlo, monospace">05-18</text><text x="567.0" y="248" text-anchor="middle" font-size="10" fill="#8c959f" font-family="ui-monospace, SFMono-Regular, 'SF Mono', Menlo, monospace">06-22</text><text x="223.7" y="248" text-anchor="middle" font-size="10" fill="#8c959f" font-family="ui-monospace, SFMono-Regular, 'SF Mono', Menlo, monospace">05-25</text><text x="652.9" y="248" text-anchor="middle" font-size="10" fill="#8c959f" font-family="ui-monospace, SFMono-Regular, 'SF Mono', Menlo, monospace">06-29</text><text x="309.5" y="248" text-anchor="middle" font-size="10" fill="#8c959f" font-family="ui-monospace, SFMono-Regular, 'SF Mono', Menlo, monospace">06-01</text><text x="738.7" y="248" text-anchor="middle" font-size="10" fill="#8c959f" font-family="ui-monospace, SFMono-Regular, 'SF Mono', Menlo, monospace">07-06</text><text x="395.3" y="248" text-anchor="middle" font-size="10" fill="#8c959f" font-family="ui-monospace, SFMono-Regular, 'SF Mono', Menlo, monospace">06-08</text><text x="800.0" y="248" text-anchor="middle" font-size="10" fill="#8c959f" font-family="ui-monospace, SFMono-Regular, 'SF Mono', Menlo, monospace">07-11</text>

  <!-- legend -->
  <rect x="60" y="262" width="16" height="3" fill="#4e79a7" rx="1"/><text x="80" y="268" font-size="11" fill="#57606a" font-family="-apple-system, BlinkMacSystemFont, 'Segoe UI', sans-serif">Total clones (55)</text><line x1="230" y1="264" x2="246" y2="264" stroke="#f28e2b" stroke-width="2" stroke-dasharray="5,3"/><text x="250" y="268" font-size="11" fill="#57606a" font-family="-apple-system, BlinkMacSystemFont, 'Segoe UI', sans-serif">Unique cloners</text>

</svg>