<svg xmlns="http://www.w3.org/2000/svg" viewBox="0 0 820 280" width="820" height="280">

  <!-- title -->
  <text x="52" y="18" font-size="13" font-weight="600"
        fill="#24292f" font-family="-apple-system, BlinkMacSystemFont, 'Segoe UI', sans-serif"
        >Clone traffic — home-monitor</text>
  <text x="800" y="18" font-size="10" fill="#8c959f"
        font-family="ui-monospace, SFMono-Regular, 'SF Mono', Menlo, monospace" text-anchor="end">2026-06-30</text>

  <!-- grid -->
  <line x1="52" y1="232.0" x2="800" y2="232.0" stroke="#e8e8e8" stroke-width="1"/><line x1="52" y1="196.0" x2="800" y2="196.0" stroke="#e8e8e8" stroke-width="1"/><line x1="52" y1="160.0" x2="800" y2="160.0" stroke="#e8e8e8" stroke-width="1"/><line x1="52" y1="124.0" x2="800" y2="124.0" stroke="#e8e8e8" stroke-width="1"/><line x1="52" y1="88.0" x2="800" y2="88.0" stroke="#e8e8e8" stroke-width="1"/><line x1="52" y1="52.0" x2="800" y2="52.0" stroke="#e8e8e8" stroke-width="1"/><line x1="52" y1="16.0" x2="800" y2="16.0" stroke="#e8e8e8" stroke-width="1"/>

  <!-- area fill -->
  <path d="M52.0,232.0 L52.0,232.0 L67.6,220.0 L83.2,196.0 L98.8,232.0 L114.3,220.0 L129.9,232.0 L145.5,232.0 L161.1,232.0 L176.7,220.0 L192.2,232.0 L207.8,232.0 L223.4,220.0 L239.0,232.0 L254.6,28.0 L270.2,232.0 L285.8,232.0 L301.3,232.0 L316.9,220.0 L332.5,220.0 L348.1,220.0 L363.7,220.0 L379.2,232.0 L394.8,208.0 L410.4,232.0 L426.0,220.0 L441.6,220.0 L457.2,232.0 L472.8,208.0 L488.3,232.0 L503.9,208.0 L519.5,220.0 L535.1,232.0 L550.7,220.0 L566.2,232.0 L581.8,232.0 L597.4,232.0 L613.0,232.0 L628.6,232.0 L644.2,136.0 L659.8,208.0 L675.3,208.0 L690.9,232.0 L706.5,232.0 L722.1,232.0 L737.7,220.0 L753.2,232.0 L768.8,208.0 L784.4,232.0 L800.0,220.0 L800.0,232.0 L52.0,232.0Z" fill="#4e79a7" opacity="0.12"/>

  <!-- lines -->
  <polyline points="52.0,232.0 67.6,220.0 83.2,196.0 98.8,232.0 114.3,220.0 129.9,232.0 145.5,232.0 161.1,232.0 176.7,220.0 192.2,232.0 207.8,232.0 223.4,220.0 239.0,232.0 254.6,28.0 270.2,232.0 285.8,232.0 301.3,232.0 316.9,220.0 332.5,220.0 348.1,220.0 363.7,220.0 379.2,232.0 394.8,208.0 410.4,232.0 426.0,220.0 441.6,220.0 457.2,232.0 472.8,208.0 488.3,232.0 503.9,208.0 519.5,220.0 535.1,232.0 550.7,220.0 566.2,232.0 581.8,232.0 597.4,232.0 613.0,232.0 628.6,232.0 644.2,136.0 659.8,208.0 675.3,208.0 690.9,232.0 706.5,232.0 722.1,232.0 737.7,220.0 753.2,232.0 768.8,208.0 784.4,232.0 800.0,220.0"
            fill="none" stroke="#4e79a7"
            stroke-width="2" stroke-linejoin="round"/>
  <polyline points="52.0,232.0 67.6,220.0 83.2,196.0 98.8,232.0 114.3,220.0 129.9,232.0 145.5,232.0 161.1,232.0 176.7,220.0 192.2,232.0 207.8,232.0 223.4,220.0 239.0,232.0 254.6,76.0 270.2,232.0 285.8,232.0 301.3,232.0 316.9,220.0 332.5,220.0 348.1,220.0 363.7,220.0 379.2,232.0 394.8,208.0 410.4,232.0 426.0,220.0 441.6,220.0 457.2,232.0 472.8,208.0 488.3,232.0 503.9,208.0 519.5,220.0 535.1,232.0 550.7,220.0 566.2,232.0 581.8,232.0 597.4,232.0 613.0,232.0 628.6,232.0 644.2,148.0 659.8,208.0 675.3,208.0 690.9,232.0 706.5,232.0 722.1,232.0 737.7,220.0 753.2,232.0 768.8,208.0 784.4,232.0 800.0,220.0"
            fill="none" stroke="#f28e2b"
            stroke-width="2" stroke-linejoin="round"
            stroke-dasharray="5,3"/>

  <!-- dots -->
  <circle cx="52.0" cy="232.0" r="3" fill="#4e79a7"/><circle cx="67.6" cy="220.0" r="3" fill="#4e79a7"/><circle cx="83.2" cy="196.0" r="3" fill="#4e79a7"/><circle cx="98.8" cy="232.0" r="3" fill="#4e79a7"/><circle cx="114.3" cy="220.0" r="3" fill="#4e79a7"/><circle cx="129.9" cy="232.0" r="3" fill="#4e79a7"/><circle cx="145.5" cy="232.0" r="3" fill="#4e79a7"/><circle cx="161.1" cy="232.0" r="3" fill="#4e79a7"/><circle cx="176.7" cy="220.0" r="3" fill="#4e79a7"/><circle cx="192.2" cy="232.0" r="3" fill="#4e79a7"/><circle cx="207.8" cy="232.0" r="3" fill="#4e79a7"/><circle cx="223.4" cy="220.0" r="3" fill="#4e79a7"/><circle cx="239.0" cy="232.0" r="3" fill="#4e79a7"/><circle cx="254.6" cy="28.0" r="3" fill="#4e79a7"/><circle cx="270.2" cy="232.0" r="3" fill="#4e79a7"/><circle cx="285.8" cy="232.0" r="3" fill="#4e79a7"/><circle cx="301.3" cy="232.0" r="3" fill="#4e79a7"/><circle cx="316.9" cy="220.0" r="3" fill="#4e79a7"/><circle cx="332.5" cy="220.0" r="3" fill="#4e79a7"/><circle cx="348.1" cy="220.0" r="3" fill="#4e79a7"/><circle cx="363.7" cy="220.0" r="3" fill="#4e79a7"/><circle cx="379.2" cy="232.0" r="3" fill="#4e79a7"/><circle cx="394.8" cy="208.0" r="3" fill="#4e79a7"/><circle cx="410.4" cy="232.0" r="3" fill="#4e79a7"/><circle cx="426.0" cy="220.0" r="3" fill="#4e79a7"/><circle cx="441.6" cy="220.0" r="3" fill="#4e79a7"/><circle cx="457.2" cy="232.0" r="3" fill="#4e79a7"/><circle cx="472.8" cy="208.0" r="3" fill="#4e79a7"/><circle cx="488.3" cy="232.0" r="3" fill="#4e79a7"/><circle cx="503.9" cy="208.0" r="3" fill="#4e79a7"/><circle cx="519.5" cy="220.0" r="3" fill="#4e79a7"/><circle cx="535.1" cy="232.0" r="3" fill="#4e79a7"/><circle cx="550.7" cy="220.0" r="3" fill="#4e79a7"/><circle cx="566.2" cy="232.0" r="3" fill="#4e79a7"/><circle cx="581.8" cy="232.0" r="3" fill="#4e79a7"/><circle cx="597.4" cy="232.0" r="3" fill="#4e79a7"/><circle cx="613.0" cy="232.0" r="3" fill="#4e79a7"/><circle cx="628.6" cy="232.0" r="3" fill="#4e79a7"/><circle cx="644.2" cy="136.0" r="3" fill="#4e79a7"/><circle cx="659.8" cy="208.0" r="3" fill="#4e79a7"/><circle cx="675.3" cy="208.0" r="3" fill="#4e79a7"/><circle cx="690.9" cy="232.0" r="3" fill="#4e79a7"/><circle cx="706.5" cy="232.0" r="3" fill="#4e79a7"/><circle cx="722.1" cy="232.0" r="3" fill="#4e79a7"/><circle cx="737.7" cy="220.0" r="3" fill="#4e79a7"/><circle cx="753.2" cy="232.0" r="3" fill="#4e79a7"/><circle cx="768.8" cy="208.0" r="3" fill="#4e79a7"/><circle cx="784.4" cy="232.0" r="3" fill="#4e79a7"/><circle cx="800.0" cy="220.0" r="3" fill="#4e79a7"/>
  <circle cx="52.0" cy="232.0" r="3" fill="#f28e2b"/><circle cx="67.6" cy="220.0" r="3" fill="#f28e2b"/><circle cx="83.2" cy="196.0" r="3" fill="#f28e2b"/><circle cx="98.8" cy="232.0" r="3" fill="#f28e2b"/><circle cx="114.3" cy="220.0" r="3" fill="#f28e2b"/><circle cx="129.9" cy="232.0" r="3" fill="#f28e2b"/><circle cx="145.5" cy="232.0" r="3" fill="#f28e2b"/><circle cx="161.1" cy="232.0" r="3" fill="#f28e2b"/><circle cx="176.7" cy="220.0" r="3" fill="#f28e2b"/><circle cx="192.2" cy="232.0" r="3" fill="#f28e2b"/><circle cx="207.8" cy="232.0" r="3" fill="#f28e2b"/><circle cx="223.4" cy="220.0" r="3" fill="#f28e2b"/><circle cx="239.0" cy="232.0" r="3" fill="#f28e2b"/><circle cx="254.6" cy="76.0" r="3" fill="#f28e2b"/><circle cx="270.2" cy="232.0" r="3" fill="#f28e2b"/><circle cx="285.8" cy="232.0" r="3" fill="#f28e2b"/><circle cx="301.3" cy="232.0" r="3" fill="#f28e2b"/><circle cx="316.9" cy="220.0" r="3" fill="#f28e2b"/><circle cx="332.5" cy="220.0" r="3" fill="#f28e2b"/><circle cx="348.1" cy="220.0" r="3" fill="#f28e2b"/><circle cx="363.7" cy="220.0" r="3" fill="#f28e2b"/><circle cx="379.2" cy="232.0" r="3" fill="#f28e2b"/><circle cx="394.8" cy="208.0" r="3" fill="#f28e2b"/><circle cx="410.4" cy="232.0" r="3" fill="#f28e2b"/><circle cx="426.0" cy="220.0" r="3" fill="#f28e2b"/><circle cx="441.6" cy="220.0" r="3" fill="#f28e2b"/><circle cx="457.2" cy="232.0" r="3" fill="#f28e2b"/><circle cx="472.8" cy="208.0" r="3" fill="#f28e2b"/><circle cx="488.3" cy="232.0" r="3" fill="#f28e2b"/><circle cx="503.9" cy="208.0" r="3" fill="#f28e2b"/><circle cx="519.5" cy="220.0" r="3" fill="#f28e2b"/><circle cx="535.1" cy="232.0" r="3" fill="#f28e2b"/><circle cx="550.7" cy="220.0" r="3" fill="#f28e2b"/><circle cx="566.2" cy="232.0" r="3" fill="#f28e2b"/><circle cx="581.8" cy="232.0" r="3" fill="#f28e2b"/><circle cx="597.4" cy="232.0" r="3" fill="#f28e2b"/><circle cx="613.0" cy="232.0" r="3" fill="#f28e2b"/><circle cx="628.6" cy="232.0" r="3" fill="#f28e2b"/><circle cx="644.2" cy="148.0" r="3" fill="#f28e2b"/><circle cx="659.8" cy="208.0" r="3" fill="#f28e2b"/><circle cx="675.3" cy="208.0" r="3" fill="#f28e2b"/><circle cx="690.9" cy="232.0" r="3" fill="#f28e2b"/><circle cx="706.5" cy="232.0" r="3" fill="#f28e2b"/><circle cx="722.1" cy="232.0" r="3" fill="#f28e2b"/><circle cx="737.7" cy="220.0" r="3" fill="#f28e2b"/><circle cx="753.2" cy="232.0" r="3" fill="#f28e2b"/><circle cx="768.8" cy="208.0" r="3" fill="#f28e2b"/><circle cx="784.4" cy="232.0" r="3" fill="#f28e2b"/><circle cx="800.0" cy="220.0" r="3" fill="#f28e2b"/>

  <!-- axes -->
  <line x1="52" y1="28" x2="52" y2="232"
        stroke="#cccccc" stroke-width="1"/>
  <line x1="52" y1="232" x2="800" y2="232"
        stroke="#cccccc" stroke-width="1"/>

  <!-- y-axis labels -->
  <text x="47" y="236.0" text-anchor="end" font-size="10" fill="#57606a" font-family="ui-monospace, SFMono-Regular, 'SF Mono', Menlo, monospace">0</text><text x="47" y="200.0" text-anchor="end" font-size="10" fill="#57606a" font-family="ui-monospace, SFMono-Regular, 'SF Mono', Menlo, monospace">3</text><text x="47" y="164.0" text-anchor="end" font-size="10" fill="#57606a" font-family="ui-monospace, SFMono-Regular, 'SF Mono', Menlo, monospace">6</text><text x="47" y="128.0" text-anchor="end" font-size="10" fill="#57606a" font-family="ui-monospace, SFMono-Regular, 'SF Mono', Menlo, monospace">9</text><text x="47" y="92.0" text-anchor="end" font-size="10" fill="#57606a" font-family="ui-monospace, SFMono-Regular, 'SF Mono', Menlo, monospace">12</text><text x="47" y="56.0" text-anchor="end" font-size="10" fill="#57606a" font-family="ui-monospace, SFMono-Regular, 'SF Mono', Menlo, monospace">15</text><text x="47" y="20.0" text-anchor="end" font-size="10" fill="#57606a" font-family="ui-monospace, SFMono-Regular, 'SF Mono', Menlo, monospace">18</text>

  <!-- x-axis labels -->
  <text x="52.0" y="248" text-anchor="middle" font-size="10" fill="#8c959f" font-family="ui-monospace, SFMono-Regular, 'SF Mono', Menlo, monospace">05-11</text><text x="613.0" y="248" text-anchor="middle" font-size="10" fill="#8c959f" font-family="ui-monospace, SFMono-Regular, 'SF Mono', Menlo, monospace">06-16</text><text x="145.5" y="248" text-anchor="middle" font-size="10" fill="#8c959f" font-family="ui-monospace, SFMono-Regular, 'SF Mono', Menlo, monospace">05-17</text><text x="706.5" y="248" text-anchor="middle" font-size="10" fill="#8c959f" font-family="ui-monospace, SFMono-Regular, 'SF Mono', Menlo, monospace">06-22</text><text x="239.0" y="248" text-anchor="middle" font-size="10" fill="#8c959f" font-family="ui-monospace, SFMono-Regular, 'SF Mono', Menlo, monospace">05-23</text><text x="800.0" y="248" text-anchor="middle" font-size="10" fill="#8c959f" font-family="ui-monospace, SFMono-Regular, 'SF Mono', Menlo, monospace">06-28</text><text x="332.5" y="248" text-anchor="middle" font-size="10" fill="#8c959f" font-family="ui-monospace, SFMono-Regular, 'SF Mono', Menlo, monospace">05-29</text><text x="426.0" y="248" text-anchor="middle" font-size="10" fill="#8c959f" font-family="ui-monospace, SFMono-Regular, 'SF Mono', Menlo, monospace">06-04</text><text x="519.5" y="248" text-anchor="middle" font-size="10" fill="#8c959f" font-family="ui-monospace, SFMono-Regular, 'SF Mono', Menlo, monospace">06-10</text>

  <!-- legend -->
  <rect x="60" y="262" width="16" height="3" fill="#4e79a7" rx="1"/><text x="80" y="268" font-size="11" fill="#57606a" font-family="-apple-system, BlinkMacSystemFont, 'Segoe UI', sans-serif">Total clones (54)</text><line x1="230" y1="264" x2="246" y2="264" stroke="#f28e2b" stroke-width="2" stroke-dasharray="5,3"/><text x="250" y="268" font-size="11" fill="#57606a" font-family="-apple-system, BlinkMacSystemFont, 'Segoe UI', sans-serif">Unique cloners</text>

</svg>