<svg xmlns="http://www.w3.org/2000/svg" viewBox="0 0 820 280" width="820" height="280">

  <!-- title -->
  <text x="52" y="18" font-size="13" font-weight="600"
        fill="#24292f" font-family="-apple-system, BlinkMacSystemFont, 'Segoe UI', sans-serif"
        >Clone traffic — image-view</text>
  <text x="800" y="18" font-size="10" fill="#8c959f"
        font-family="ui-monospace, SFMono-Regular, 'SF Mono', Menlo, monospace" text-anchor="end">2026-07-15</text>

  <!-- grid -->
  <line x1="52" y1="232.0" x2="800" y2="232.0" stroke="#e8e8e8" stroke-width="1"/><line x1="52" y1="187.1" x2="800" y2="187.1" stroke="#e8e8e8" stroke-width="1"/><line x1="52" y1="142.1" x2="800" y2="142.1" stroke="#e8e8e8" stroke-width="1"/><line x1="52" y1="97.2" x2="800" y2="97.2" stroke="#e8e8e8" stroke-width="1"/><line x1="52" y1="52.3" x2="800" y2="52.3" stroke="#e8e8e8" stroke-width="1"/><line x1="52" y1="7.3" x2="800" y2="7.3" stroke="#e8e8e8" stroke-width="1"/>

  <!-- area fill -->
  <path d="M52.0,232.0 L52.0,232.0 L63.9,231.1 L75.7,229.3 L87.6,231.1 L99.5,229.3 L111.4,232.0 L123.2,232.0 L135.1,232.0 L147.0,231.1 L158.9,232.0 L170.7,232.0 L182.6,232.0 L194.5,232.0 L206.3,231.1 L218.2,232.0 L230.1,232.0 L242.0,232.0 L253.8,117.9 L265.7,28.0 L277.6,222.1 L289.5,227.5 L301.3,229.3 L313.2,228.4 L325.1,231.1 L337.0,231.1 L348.8,230.2 L360.7,221.2 L372.6,232.0 L384.4,228.4 L396.3,231.1 L408.2,229.3 L420.1,224.8 L431.9,232.0 L443.8,232.0 L455.7,232.0 L467.6,205.0 L479.4,229.3 L491.3,232.0 L503.2,130.4 L515.0,229.3 L526.9,232.0 L538.8,232.0 L550.7,230.2 L562.5,231.1 L574.4,231.1 L586.3,230.2 L598.2,230.2 L610.0,232.0 L621.9,232.0 L633.8,231.1 L645.7,232.0 L657.5,231.1 L669.4,232.0 L681.3,232.0 L693.1,223.9 L705.0,226.6 L716.9,231.1 L728.8,232.0 L740.6,231.1 L752.5,231.1 L764.4,231.1 L776.3,231.1 L788.1,232.0 L800.0,232.0 L800.0,232.0 L52.0,232.0Z" fill="#4e79a7" opacity="0.12"/>

  <!-- lines -->
  <polyline points="52.0,232.0 63.9,231.1 75.7,229.3 87.6,231.1 99.5,229.3 111.4,232.0 123.2,232.0 135.1,232.0 147.0,231.1 158.9,232.0 170.7,232.0 182.6,232.0 194.5,232.0 206.3,231.1 218.2,232.0 230.1,232.0 242.0,232.0 253.8,117.9 265.7,28.0 277.6,222.1 289.5,227.5 301.3,229.3 313.2,228.4 325.1,231.1 337.0,231.1 348.8,230.2 360.7,221.2 372.6,232.0 384.4,228.4 396.3,231.1 408.2,229.3 420.1,224.8 431.9,232.0 443.8,232.0 455.7,232.0 467.6,205.0 479.4,229.3 491.3,232.0 503.2,130.4 515.0,229.3 526.9,232.0 538.8,232.0 550.7,230.2 562.5,231.1 574.4,231.1 586.3,230.2 598.2,230.2 610.0,232.0 621.9,232.0 633.8,231.1 645.7,232.0 657.5,231.1 669.4,232.0 681.3,232.0 693.1,223.9 705.0,226.6 716.9,231.1 728.8,232.0 740.6,231.1 752.5,231.1 764.4,231.1 776.3,231.1 788.1,232.0 800.0,232.0"
            fill="none" stroke="#4e79a7"
            stroke-width="2" stroke-linejoin="round"/>
  <polyline points="52.0,232.0 63.9,231.1 75.7,229.3 87.6,231.1 99.5,229.3 111.4,232.0 123.2,232.0 135.1,232.0 147.0,231.1 158.9,232.0 170.7,232.0 182.6,232.0 194.5,232.0 206.3,231.1 218.2,232.0 230.1,232.0 242.0,232.0 253.8,180.8 265.7,162.8 277.6,229.3 289.5,230.2 301.3,230.2 313.2,228.4 325.1,231.1 337.0,231.1 348.8,230.2 360.7,230.2 372.6,232.0 384.4,228.4 396.3,231.1 408.2,229.3 420.1,224.8 431.9,232.0 443.8,232.0 455.7,232.0 467.6,222.1 479.4,229.3 491.3,232.0 503.2,214.0 515.0,229.3 526.9,232.0 538.8,232.0 550.7,230.2 562.5,231.1 574.4,231.1 586.3,230.2 598.2,230.2 610.0,232.0 621.9,232.0 633.8,231.1 645.7,232.0 657.5,231.1 669.4,232.0 681.3,232.0 693.1,224.8 705.0,226.6 716.9,231.1 728.8,232.0 740.6,231.1 752.5,231.1 764.4,231.1 776.3,231.1 788.1,232.0 800.0,232.0"
            fill="none" stroke="#f28e2b"
            stroke-width="2" stroke-linejoin="round"
            stroke-dasharray="5,3"/>

  <!-- dots -->
  <circle cx="52.0" cy="232.0" r="3" fill="#4e79a7"/><circle cx="63.9" cy="231.1" r="3" fill="#4e79a7"/><circle cx="75.7" cy="229.3" r="3" fill="#4e79a7"/><circle cx="87.6" cy="231.1" r="3" fill="#4e79a7"/><circle cx="99.5" cy="229.3" r="3" fill="#4e79a7"/><circle cx="111.4" cy="232.0" r="3" fill="#4e79a7"/><circle cx="123.2" cy="232.0" r="3" fill="#4e79a7"/><circle cx="135.1" cy="232.0" r="3" fill="#4e79a7"/><circle cx="147.0" cy="231.1" r="3" fill="#4e79a7"/><circle cx="158.9" cy="232.0" r="3" fill="#4e79a7"/><circle cx="170.7" cy="232.0" r="3" fill="#4e79a7"/><circle cx="182.6" cy="232.0" r="3" fill="#4e79a7"/><circle cx="194.5" cy="232.0" r="3" fill="#4e79a7"/><circle cx="206.3" cy="231.1" r="3" fill="#4e79a7"/><circle cx="218.2" cy="232.0" r="3" fill="#4e79a7"/><circle cx="230.1" cy="232.0" r="3" fill="#4e79a7"/><circle cx="242.0" cy="232.0" r="3" fill="#4e79a7"/><circle cx="253.8" cy="117.9" r="3" fill="#4e79a7"/><circle cx="265.7" cy="28.0" r="3" fill="#4e79a7"/><circle cx="277.6" cy="222.1" r="3" fill="#4e79a7"/><circle cx="289.5" cy="227.5" r="3" fill="#4e79a7"/><circle cx="301.3" cy="229.3" r="3" fill="#4e79a7"/><circle cx="313.2" cy="228.4" r="3" fill="#4e79a7"/><circle cx="325.1" cy="231.1" r="3" fill="#4e79a7"/><circle cx="337.0" cy="231.1" r="3" fill="#4e79a7"/><circle cx="348.8" cy="230.2" r="3" fill="#4e79a7"/><circle cx="360.7" cy="221.2" r="3" fill="#4e79a7"/><circle cx="372.6" cy="232.0" r="3" fill="#4e79a7"/><circle cx="384.4" cy="228.4" r="3" fill="#4e79a7"/><circle cx="396.3" cy="231.1" r="3" fill="#4e79a7"/><circle cx="408.2" cy="229.3" r="3" fill="#4e79a7"/><circle cx="420.1" cy="224.8" r="3" fill="#4e79a7"/><circle cx="431.9" cy="232.0" r="3" fill="#4e79a7"/><circle cx="443.8" cy="232.0" r="3" fill="#4e79a7"/><circle cx="455.7" cy="232.0" r="3" fill="#4e79a7"/><circle cx="467.6" cy="205.0" r="3" fill="#4e79a7"/><circle cx="479.4" cy="229.3" r="3" fill="#4e79a7"/><circle cx="491.3" cy="232.0" r="3" fill="#4e79a7"/><circle cx="503.2" cy="130.4" r="3" fill="#4e79a7"/><circle cx="515.0" cy="229.3" r="3" fill="#4e79a7"/><circle cx="526.9" cy="232.0" r="3" fill="#4e79a7"/><circle cx="538.8" cy="232.0" r="3" fill="#4e79a7"/><circle cx="550.7" cy="230.2" r="3" fill="#4e79a7"/><circle cx="562.5" cy="231.1" r="3" fill="#4e79a7"/><circle cx="574.4" cy="231.1" r="3" fill="#4e79a7"/><circle cx="586.3" cy="230.2" r="3" fill="#4e79a7"/><circle cx="598.2" cy="230.2" r="3" fill="#4e79a7"/><circle cx="610.0" cy="232.0" r="3" fill="#4e79a7"/><circle cx="621.9" cy="232.0" r="3" fill="#4e79a7"/><circle cx="633.8" cy="231.1" r="3" fill="#4e79a7"/><circle cx="645.7" cy="232.0" r="3" fill="#4e79a7"/><circle cx="657.5" cy="231.1" r="3" fill="#4e79a7"/><circle cx="669.4" cy="232.0" r="3" fill="#4e79a7"/><circle cx="681.3" cy="232.0" r="3" fill="#4e79a7"/><circle cx="693.1" cy="223.9" r="3" fill="#4e79a7"/><circle cx="705.0" cy="226.6" r="3" fill="#4e79a7"/><circle cx="716.9" cy="231.1" r="3" fill="#4e79a7"/><circle cx="728.8" cy="232.0" r="3" fill="#4e79a7"/><circle cx="740.6" cy="231.1" r="3" fill="#4e79a7"/><circle cx="752.5" cy="231.1" r="3" fill="#4e79a7"/><circle cx="764.4" cy="231.1" r="3" fill="#4e79a7"/><circle cx="776.3" cy="231.1" r="3" fill="#4e79a7"/><circle cx="788.1" cy="232.0" r="3" fill="#4e79a7"/><circle cx="800.0" cy="232.0" r="3" fill="#4e79a7"/>
  <circle cx="52.0" cy="232.0" r="3" fill="#f28e2b"/><circle cx="63.9" cy="231.1" r="3" fill="#f28e2b"/><circle cx="75.7" cy="229.3" r="3" fill="#f28e2b"/><circle cx="87.6" cy="231.1" r="3" fill="#f28e2b"/><circle cx="99.5" cy="229.3" r="3" fill="#f28e2b"/><circle cx="111.4" cy="232.0" r="3" fill="#f28e2b"/><circle cx="123.2" cy="232.0" r="3" fill="#f28e2b"/><circle cx="135.1" cy="232.0" r="3" fill="#f28e2b"/><circle cx="147.0" cy="231.1" r="3" fill="#f28e2b"/><circle cx="158.9" cy="232.0" r="3" fill="#f28e2b"/><circle cx="170.7" cy="232.0" r="3" fill="#f28e2b"/><circle cx="182.6" cy="232.0" r="3" fill="#f28e2b"/><circle cx="194.5" cy="232.0" r="3" fill="#f28e2b"/><circle cx="206.3" cy="231.1" r="3" fill="#f28e2b"/><circle cx="218.2" cy="232.0" r="3" fill="#f28e2b"/><circle cx="230.1" cy="232.0" r="3" fill="#f28e2b"/><circle cx="242.0" cy="232.0" r="3" fill="#f28e2b"/><circle cx="253.8" cy="180.8" r="3" fill="#f28e2b"/><circle cx="265.7" cy="162.8" r="3" fill="#f28e2b"/><circle cx="277.6" cy="229.3" r="3" fill="#f28e2b"/><circle cx="289.5" cy="230.2" r="3" fill="#f28e2b"/><circle cx="301.3" cy="230.2" r="3" fill="#f28e2b"/><circle cx="313.2" cy="228.4" r="3" fill="#f28e2b"/><circle cx="325.1" cy="231.1" r="3" fill="#f28e2b"/><circle cx="337.0" cy="231.1" r="3" fill="#f28e2b"/><circle cx="348.8" cy="230.2" r="3" fill="#f28e2b"/><circle cx="360.7" cy="230.2" r="3" fill="#f28e2b"/><circle cx="372.6" cy="232.0" r="3" fill="#f28e2b"/><circle cx="384.4" cy="228.4" r="3" fill="#f28e2b"/><circle cx="396.3" cy="231.1" r="3" fill="#f28e2b"/><circle cx="408.2" cy="229.3" r="3" fill="#f28e2b"/><circle cx="420.1" cy="224.8" r="3" fill="#f28e2b"/><circle cx="431.9" cy="232.0" r="3" fill="#f28e2b"/><circle cx="443.8" cy="232.0" r="3" fill="#f28e2b"/><circle cx="455.7" cy="232.0" r="3" fill="#f28e2b"/><circle cx="467.6" cy="222.1" r="3" fill="#f28e2b"/><circle cx="479.4" cy="229.3" r="3" fill="#f28e2b"/><circle cx="491.3" cy="232.0" r="3" fill="#f28e2b"/><circle cx="503.2" cy="214.0" r="3" fill="#f28e2b"/><circle cx="515.0" cy="229.3" r="3" fill="#f28e2b"/><circle cx="526.9" cy="232.0" r="3" fill="#f28e2b"/><circle cx="538.8" cy="232.0" r="3" fill="#f28e2b"/><circle cx="550.7" cy="230.2" r="3" fill="#f28e2b"/><circle cx="562.5" cy="231.1" r="3" fill="#f28e2b"/><circle cx="574.4" cy="231.1" r="3" fill="#f28e2b"/><circle cx="586.3" cy="230.2" r="3" fill="#f28e2b"/><circle cx="598.2" cy="230.2" r="3" fill="#f28e2b"/><circle cx="610.0" cy="232.0" r="3" fill="#f28e2b"/><circle cx="621.9" cy="232.0" r="3" fill="#f28e2b"/><circle cx="633.8" cy="231.1" r="3" fill="#f28e2b"/><circle cx="645.7" cy="232.0" r="3" fill="#f28e2b"/><circle cx="657.5" cy="231.1" r="3" fill="#f28e2b"/><circle cx="669.4" cy="232.0" r="3" fill="#f28e2b"/><circle cx="681.3" cy="232.0" r="3" fill="#f28e2b"/><circle cx="693.1" cy="224.8" r="3" fill="#f28e2b"/><circle cx="705.0" cy="226.6" r="3" fill="#f28e2b"/><circle cx="716.9" cy="231.1" r="3" fill="#f28e2b"/><circle cx="728.8" cy="232.0" r="3" fill="#f28e2b"/><circle cx="740.6" cy="231.1" r="3" fill="#f28e2b"/><circle cx="752.5" cy="231.1" r="3" fill="#f28e2b"/><circle cx="764.4" cy="231.1" r="3" fill="#f28e2b"/><circle cx="776.3" cy="231.1" r="3" fill="#f28e2b"/><circle cx="788.1" cy="232.0" r="3" fill="#f28e2b"/><circle cx="800.0" cy="232.0" r="3" fill="#f28e2b"/>

  <!-- axes -->
  <line x1="52" y1="28" x2="52" y2="232"
        stroke="#cccccc" stroke-width="1"/>
  <line x1="52" y1="232" x2="800" y2="232"
        stroke="#cccccc" stroke-width="1"/>

  <!-- y-axis labels -->
  <text x="47" y="236.0" text-anchor="end" font-size="10" fill="#57606a" font-family="ui-monospace, SFMono-Regular, 'SF Mono', Menlo, monospace">0</text><text x="47" y="191.1" text-anchor="end" font-size="10" fill="#57606a" font-family="ui-monospace, SFMono-Regular, 'SF Mono', Menlo, monospace">50</text><text x="47" y="146.1" text-anchor="end" font-size="10" fill="#57606a" font-family="ui-monospace, SFMono-Regular, 'SF Mono', Menlo, monospace">100</text><text x="47" y="101.2" text-anchor="end" font-size="10" fill="#57606a" font-family="ui-monospace, SFMono-Regular, 'SF Mono', Menlo, monospace">150</text><text x="47" y="56.3" text-anchor="end" font-size="10" fill="#57606a" font-family="ui-monospace, SFMono-Regular, 'SF Mono', Menlo, monospace">200</text><text x="47" y="11.3" text-anchor="end" font-size="10" fill="#57606a" font-family="ui-monospace, SFMono-Regular, 'SF Mono', Menlo, monospace">250</text>

  <!-- x-axis labels -->
  <text x="52.0" y="248" text-anchor="middle" font-size="10" fill="#8c959f" font-family="ui-monospace, SFMono-Regular, 'SF Mono', Menlo, monospace">05-11</text><text x="431.9" y="248" text-anchor="middle" font-size="10" fill="#8c959f" font-family="ui-monospace, SFMono-Regular, 'SF Mono', Menlo, monospace">06-12</text><text x="147.0" y="248" text-anchor="middle" font-size="10" fill="#8c959f" font-family="ui-monospace, SFMono-Regular, 'SF Mono', Menlo, monospace">05-19</text><text x="526.9" y="248" text-anchor="middle" font-size="10" fill="#8c959f" font-family="ui-monospace, SFMono-Regular, 'SF Mono', Menlo, monospace">06-20</text><text x="242.0" y="248" text-anchor="middle" font-size="10" fill="#8c959f" font-family="ui-monospace, SFMono-Regular, 'SF Mono', Menlo, monospace">05-27</text><text x="621.9" y="248" text-anchor="middle" font-size="10" fill="#8c959f" font-family="ui-monospace, SFMono-Regular, 'SF Mono', Menlo, monospace">06-28</text><text x="337.0" y="248" text-anchor="middle" font-size="10" fill="#8c959f" font-family="ui-monospace, SFMono-Regular, 'SF Mono', Menlo, monospace">06-04</text><text x="716.9" y="248" text-anchor="middle" font-size="10" fill="#8c959f" font-family="ui-monospace, SFMono-Regular, 'SF Mono', Menlo, monospace">07-06</text><text x="800.0" y="248" text-anchor="middle" font-size="10" fill="#8c959f" font-family="ui-monospace, SFMono-Regular, 'SF Mono', Menlo, monospace">07-13</text>

  <!-- legend -->
  <rect x="60" y="262" width="16" height="3" fill="#4e79a7" rx="1"/><text x="80" y="268" font-size="11" fill="#57606a" font-family="-apple-system, BlinkMacSystemFont, 'Segoe UI', sans-serif">Total clones (598)</text><line x1="230" y1="264" x2="246" y2="264" stroke="#f28e2b" stroke-width="2" stroke-dasharray="5,3"/><text x="250" y="268" font-size="11" fill="#57606a" font-family="-apple-system, BlinkMacSystemFont, 'Segoe UI', sans-serif">Unique cloners</text>

</svg>