<svg xmlns="http://www.w3.org/2000/svg" viewBox="0 0 820 280" width="820" height="280">

  <!-- title -->
  <text x="52" y="18" font-size="13" font-weight="600"
        fill="#24292f" font-family="-apple-system, BlinkMacSystemFont, 'Segoe UI', sans-serif"
        >Clone traffic — image-view</text>
  <text x="800" y="18" font-size="10" fill="#8c959f"
        font-family="ui-monospace, SFMono-Regular, 'SF Mono', Menlo, monospace" text-anchor="end">2026-06-30</text>

  <!-- grid -->
  <line x1="52" y1="232.0" x2="800" y2="232.0" stroke="#e8e8e8" stroke-width="1"/><line x1="52" y1="187.1" x2="800" y2="187.1" stroke="#e8e8e8" stroke-width="1"/><line x1="52" y1="142.1" x2="800" y2="142.1" stroke="#e8e8e8" stroke-width="1"/><line x1="52" y1="97.2" x2="800" y2="97.2" stroke="#e8e8e8" stroke-width="1"/><line x1="52" y1="52.3" x2="800" y2="52.3" stroke="#e8e8e8" stroke-width="1"/><line x1="52" y1="7.3" x2="800" y2="7.3" stroke="#e8e8e8" stroke-width="1"/>

  <!-- area fill -->
  <path d="M52.0,232.0 L52.0,232.0 L67.6,231.1 L83.2,229.3 L98.8,231.1 L114.3,229.3 L129.9,232.0 L145.5,232.0 L161.1,232.0 L176.7,231.1 L192.2,232.0 L207.8,232.0 L223.4,232.0 L239.0,232.0 L254.6,231.1 L270.2,232.0 L285.8,232.0 L301.3,232.0 L316.9,117.9 L332.5,28.0 L348.1,222.1 L363.7,227.5 L379.2,229.3 L394.8,228.4 L410.4,231.1 L426.0,231.1 L441.6,230.2 L457.2,221.2 L472.8,232.0 L488.3,228.4 L503.9,231.1 L519.5,229.3 L535.1,224.8 L550.7,232.0 L566.2,232.0 L581.8,232.0 L597.4,205.0 L613.0,229.3 L628.6,232.0 L644.2,130.4 L659.8,229.3 L675.3,232.0 L690.9,232.0 L706.5,230.2 L722.1,231.1 L737.7,231.1 L753.2,230.2 L768.8,230.2 L784.4,232.0 L800.0,232.0 L800.0,232.0 L52.0,232.0Z" fill="#4e79a7" opacity="0.12"/>

  <!-- lines -->
  <polyline points="52.0,232.0 67.6,231.1 83.2,229.3 98.8,231.1 114.3,229.3 129.9,232.0 145.5,232.0 161.1,232.0 176.7,231.1 192.2,232.0 207.8,232.0 223.4,232.0 239.0,232.0 254.6,231.1 270.2,232.0 285.8,232.0 301.3,232.0 316.9,117.9 332.5,28.0 348.1,222.1 363.7,227.5 379.2,229.3 394.8,228.4 410.4,231.1 426.0,231.1 441.6,230.2 457.2,221.2 472.8,232.0 488.3,228.4 503.9,231.1 519.5,229.3 535.1,224.8 550.7,232.0 566.2,232.0 581.8,232.0 597.4,205.0 613.0,229.3 628.6,232.0 644.2,130.4 659.8,229.3 675.3,232.0 690.9,232.0 706.5,230.2 722.1,231.1 737.7,231.1 753.2,230.2 768.8,230.2 784.4,232.0 800.0,232.0"
            fill="none" stroke="#4e79a7"
            stroke-width="2" stroke-linejoin="round"/>
  <polyline points="52.0,232.0 67.6,231.1 83.2,229.3 98.8,231.1 114.3,229.3 129.9,232.0 145.5,232.0 161.1,232.0 176.7,231.1 192.2,232.0 207.8,232.0 223.4,232.0 239.0,232.0 254.6,231.1 270.2,232.0 285.8,232.0 301.3,232.0 316.9,180.8 332.5,162.8 348.1,229.3 363.7,230.2 379.2,230.2 394.8,228.4 410.4,231.1 426.0,231.1 441.6,230.2 457.2,230.2 472.8,232.0 488.3,228.4 503.9,231.1 519.5,229.3 535.1,224.8 550.7,232.0 566.2,232.0 581.8,232.0 597.4,222.1 613.0,229.3 628.6,232.0 644.2,214.0 659.8,229.3 675.3,232.0 690.9,232.0 706.5,230.2 722.1,231.1 737.7,231.1 753.2,230.2 768.8,230.2 784.4,232.0 800.0,232.0"
            fill="none" stroke="#f28e2b"
            stroke-width="2" stroke-linejoin="round"
            stroke-dasharray="5,3"/>

  <!-- dots -->
  <circle cx="52.0" cy="232.0" r="3" fill="#4e79a7"/><circle cx="67.6" cy="231.1" r="3" fill="#4e79a7"/><circle cx="83.2" cy="229.3" r="3" fill="#4e79a7"/><circle cx="98.8" cy="231.1" r="3" fill="#4e79a7"/><circle cx="114.3" cy="229.3" r="3" fill="#4e79a7"/><circle cx="129.9" cy="232.0" r="3" fill="#4e79a7"/><circle cx="145.5" cy="232.0" r="3" fill="#4e79a7"/><circle cx="161.1" cy="232.0" r="3" fill="#4e79a7"/><circle cx="176.7" cy="231.1" r="3" fill="#4e79a7"/><circle cx="192.2" cy="232.0" r="3" fill="#4e79a7"/><circle cx="207.8" cy="232.0" r="3" fill="#4e79a7"/><circle cx="223.4" cy="232.0" r="3" fill="#4e79a7"/><circle cx="239.0" cy="232.0" r="3" fill="#4e79a7"/><circle cx="254.6" cy="231.1" r="3" fill="#4e79a7"/><circle cx="270.2" cy="232.0" r="3" fill="#4e79a7"/><circle cx="285.8" cy="232.0" r="3" fill="#4e79a7"/><circle cx="301.3" cy="232.0" r="3" fill="#4e79a7"/><circle cx="316.9" cy="117.9" r="3" fill="#4e79a7"/><circle cx="332.5" cy="28.0" r="3" fill="#4e79a7"/><circle cx="348.1" cy="222.1" r="3" fill="#4e79a7"/><circle cx="363.7" cy="227.5" r="3" fill="#4e79a7"/><circle cx="379.2" cy="229.3" r="3" fill="#4e79a7"/><circle cx="394.8" cy="228.4" r="3" fill="#4e79a7"/><circle cx="410.4" cy="231.1" r="3" fill="#4e79a7"/><circle cx="426.0" cy="231.1" r="3" fill="#4e79a7"/><circle cx="441.6" cy="230.2" r="3" fill="#4e79a7"/><circle cx="457.2" cy="221.2" r="3" fill="#4e79a7"/><circle cx="472.8" cy="232.0" r="3" fill="#4e79a7"/><circle cx="488.3" cy="228.4" r="3" fill="#4e79a7"/><circle cx="503.9" cy="231.1" r="3" fill="#4e79a7"/><circle cx="519.5" cy="229.3" r="3" fill="#4e79a7"/><circle cx="535.1" cy="224.8" r="3" fill="#4e79a7"/><circle cx="550.7" cy="232.0" r="3" fill="#4e79a7"/><circle cx="566.2" cy="232.0" r="3" fill="#4e79a7"/><circle cx="581.8" cy="232.0" r="3" fill="#4e79a7"/><circle cx="597.4" cy="205.0" r="3" fill="#4e79a7"/><circle cx="613.0" cy="229.3" r="3" fill="#4e79a7"/><circle cx="628.6" cy="232.0" r="3" fill="#4e79a7"/><circle cx="644.2" cy="130.4" r="3" fill="#4e79a7"/><circle cx="659.8" cy="229.3" r="3" fill="#4e79a7"/><circle cx="675.3" cy="232.0" r="3" fill="#4e79a7"/><circle cx="690.9" cy="232.0" r="3" fill="#4e79a7"/><circle cx="706.5" cy="230.2" r="3" fill="#4e79a7"/><circle cx="722.1" cy="231.1" r="3" fill="#4e79a7"/><circle cx="737.7" cy="231.1" r="3" fill="#4e79a7"/><circle cx="753.2" cy="230.2" r="3" fill="#4e79a7"/><circle cx="768.8" cy="230.2" r="3" fill="#4e79a7"/><circle cx="784.4" cy="232.0" r="3" fill="#4e79a7"/><circle cx="800.0" cy="232.0" r="3" fill="#4e79a7"/>
  <circle cx="52.0" cy="232.0" r="3" fill="#f28e2b"/><circle cx="67.6" cy="231.1" r="3" fill="#f28e2b"/><circle cx="83.2" cy="229.3" r="3" fill="#f28e2b"/><circle cx="98.8" cy="231.1" r="3" fill="#f28e2b"/><circle cx="114.3" cy="229.3" r="3" fill="#f28e2b"/><circle cx="129.9" cy="232.0" r="3" fill="#f28e2b"/><circle cx="145.5" cy="232.0" r="3" fill="#f28e2b"/><circle cx="161.1" cy="232.0" r="3" fill="#f28e2b"/><circle cx="176.7" cy="231.1" r="3" fill="#f28e2b"/><circle cx="192.2" cy="232.0" r="3" fill="#f28e2b"/><circle cx="207.8" cy="232.0" r="3" fill="#f28e2b"/><circle cx="223.4" cy="232.0" r="3" fill="#f28e2b"/><circle cx="239.0" cy="232.0" r="3" fill="#f28e2b"/><circle cx="254.6" cy="231.1" r="3" fill="#f28e2b"/><circle cx="270.2" cy="232.0" r="3" fill="#f28e2b"/><circle cx="285.8" cy="232.0" r="3" fill="#f28e2b"/><circle cx="301.3" cy="232.0" r="3" fill="#f28e2b"/><circle cx="316.9" cy="180.8" r="3" fill="#f28e2b"/><circle cx="332.5" cy="162.8" r="3" fill="#f28e2b"/><circle cx="348.1" cy="229.3" r="3" fill="#f28e2b"/><circle cx="363.7" cy="230.2" r="3" fill="#f28e2b"/><circle cx="379.2" cy="230.2" r="3" fill="#f28e2b"/><circle cx="394.8" cy="228.4" r="3" fill="#f28e2b"/><circle cx="410.4" cy="231.1" r="3" fill="#f28e2b"/><circle cx="426.0" cy="231.1" r="3" fill="#f28e2b"/><circle cx="441.6" cy="230.2" r="3" fill="#f28e2b"/><circle cx="457.2" cy="230.2" r="3" fill="#f28e2b"/><circle cx="472.8" cy="232.0" r="3" fill="#f28e2b"/><circle cx="488.3" cy="228.4" r="3" fill="#f28e2b"/><circle cx="503.9" cy="231.1" r="3" fill="#f28e2b"/><circle cx="519.5" cy="229.3" r="3" fill="#f28e2b"/><circle cx="535.1" cy="224.8" r="3" fill="#f28e2b"/><circle cx="550.7" cy="232.0" r="3" fill="#f28e2b"/><circle cx="566.2" cy="232.0" r="3" fill="#f28e2b"/><circle cx="581.8" cy="232.0" r="3" fill="#f28e2b"/><circle cx="597.4" cy="222.1" r="3" fill="#f28e2b"/><circle cx="613.0" cy="229.3" r="3" fill="#f28e2b"/><circle cx="628.6" cy="232.0" r="3" fill="#f28e2b"/><circle cx="644.2" cy="214.0" r="3" fill="#f28e2b"/><circle cx="659.8" cy="229.3" r="3" fill="#f28e2b"/><circle cx="675.3" cy="232.0" r="3" fill="#f28e2b"/><circle cx="690.9" cy="232.0" r="3" fill="#f28e2b"/><circle cx="706.5" cy="230.2" r="3" fill="#f28e2b"/><circle cx="722.1" cy="231.1" r="3" fill="#f28e2b"/><circle cx="737.7" cy="231.1" r="3" fill="#f28e2b"/><circle cx="753.2" cy="230.2" r="3" fill="#f28e2b"/><circle cx="768.8" cy="230.2" r="3" fill="#f28e2b"/><circle cx="784.4" cy="232.0" r="3" fill="#f28e2b"/><circle cx="800.0" cy="232.0" r="3" fill="#f28e2b"/>

  <!-- axes -->
  <line x1="52" y1="28" x2="52" y2="232"
        stroke="#cccccc" stroke-width="1"/>
  <line x1="52" y1="232" x2="800" y2="232"
        stroke="#cccccc" stroke-width="1"/>

  <!-- y-axis labels -->
  <text x="47" y="236.0" text-anchor="end" font-size="10" fill="#57606a" font-family="ui-monospace, SFMono-Regular, 'SF Mono', Menlo, monospace">0</text><text x="47" y="191.1" text-anchor="end" font-size="10" fill="#57606a" font-family="ui-monospace, SFMono-Regular, 'SF Mono', Menlo, monospace">50</text><text x="47" y="146.1" text-anchor="end" font-size="10" fill="#57606a" font-family="ui-monospace, SFMono-Regular, 'SF Mono', Menlo, monospace">100</text><text x="47" y="101.2" text-anchor="end" font-size="10" fill="#57606a" font-family="ui-monospace, SFMono-Regular, 'SF Mono', Menlo, monospace">150</text><text x="47" y="56.3" text-anchor="end" font-size="10" fill="#57606a" font-family="ui-monospace, SFMono-Regular, 'SF Mono', Menlo, monospace">200</text><text x="47" y="11.3" text-anchor="end" font-size="10" fill="#57606a" font-family="ui-monospace, SFMono-Regular, 'SF Mono', Menlo, monospace">250</text>

  <!-- x-axis labels -->
  <text x="52.0" y="248" text-anchor="middle" font-size="10" fill="#8c959f" font-family="ui-monospace, SFMono-Regular, 'SF Mono', Menlo, monospace">05-11</text><text x="613.0" y="248" text-anchor="middle" font-size="10" fill="#8c959f" font-family="ui-monospace, SFMono-Regular, 'SF Mono', Menlo, monospace">06-16</text><text x="145.5" y="248" text-anchor="middle" font-size="10" fill="#8c959f" font-family="ui-monospace, SFMono-Regular, 'SF Mono', Menlo, monospace">05-17</text><text x="706.5" y="248" text-anchor="middle" font-size="10" fill="#8c959f" font-family="ui-monospace, SFMono-Regular, 'SF Mono', Menlo, monospace">06-22</text><text x="239.0" y="248" text-anchor="middle" font-size="10" fill="#8c959f" font-family="ui-monospace, SFMono-Regular, 'SF Mono', Menlo, monospace">05-23</text><text x="800.0" y="248" text-anchor="middle" font-size="10" fill="#8c959f" font-family="ui-monospace, SFMono-Regular, 'SF Mono', Menlo, monospace">06-28</text><text x="332.5" y="248" text-anchor="middle" font-size="10" fill="#8c959f" font-family="ui-monospace, SFMono-Regular, 'SF Mono', Menlo, monospace">05-29</text><text x="426.0" y="248" text-anchor="middle" font-size="10" fill="#8c959f" font-family="ui-monospace, SFMono-Regular, 'SF Mono', Menlo, monospace">06-04</text><text x="519.5" y="248" text-anchor="middle" font-size="10" fill="#8c959f" font-family="ui-monospace, SFMono-Regular, 'SF Mono', Menlo, monospace">06-10</text>

  <!-- legend -->
  <rect x="60" y="262" width="16" height="3" fill="#4e79a7" rx="1"/><text x="80" y="268" font-size="11" fill="#57606a" font-family="-apple-system, BlinkMacSystemFont, 'Segoe UI', sans-serif">Total clones (576)</text><line x1="230" y1="264" x2="246" y2="264" stroke="#f28e2b" stroke-width="2" stroke-dasharray="5,3"/><text x="250" y="268" font-size="11" fill="#57606a" font-family="-apple-system, BlinkMacSystemFont, 'Segoe UI', sans-serif">Unique cloners</text>

</svg>