<svg xmlns="http://www.w3.org/2000/svg" viewBox="0 0 820 280" width="820" height="280">

  <!-- title -->
  <text x="52" y="18" font-size="13" font-weight="600"
        fill="#24292f" font-family="-apple-system, BlinkMacSystemFont, 'Segoe UI', sans-serif"
        >Clone traffic — image-view</text>
  <text x="800" y="18" font-size="10" fill="#8c959f"
        font-family="ui-monospace, SFMono-Regular, 'SF Mono', Menlo, monospace" text-anchor="end">2026-06-07</text>

  <!-- grid -->
  <line x1="52" y1="232.0" x2="800" y2="232.0" stroke="#e8e8e8" stroke-width="1"/><line x1="52" y1="187.1" x2="800" y2="187.1" stroke="#e8e8e8" stroke-width="1"/><line x1="52" y1="142.1" x2="800" y2="142.1" stroke="#e8e8e8" stroke-width="1"/><line x1="52" y1="97.2" x2="800" y2="97.2" stroke="#e8e8e8" stroke-width="1"/><line x1="52" y1="52.3" x2="800" y2="52.3" stroke="#e8e8e8" stroke-width="1"/><line x1="52" y1="7.3" x2="800" y2="7.3" stroke="#e8e8e8" stroke-width="1"/>

  <!-- area fill -->
  <path d="M52.0,232.0 L52.0,232.0 L81.9,231.1 L111.8,229.3 L141.8,231.1 L171.7,229.3 L201.6,232.0 L231.5,232.0 L261.4,232.0 L291.4,231.1 L321.3,232.0 L351.2,232.0 L381.1,232.0 L411.0,232.0 L441.0,231.1 L470.9,232.0 L500.8,232.0 L530.7,232.0 L560.6,117.9 L590.6,28.0 L620.5,222.1 L650.4,227.5 L680.3,229.3 L710.2,228.4 L740.2,231.1 L770.1,231.1 L800.0,230.2 L800.0,232.0 L52.0,232.0Z" fill="#4e79a7" opacity="0.12"/>

  <!-- lines -->
  <polyline points="52.0,232.0 81.9,231.1 111.8,229.3 141.8,231.1 171.7,229.3 201.6,232.0 231.5,232.0 261.4,232.0 291.4,231.1 321.3,232.0 351.2,232.0 381.1,232.0 411.0,232.0 441.0,231.1 470.9,232.0 500.8,232.0 530.7,232.0 560.6,117.9 590.6,28.0 620.5,222.1 650.4,227.5 680.3,229.3 710.2,228.4 740.2,231.1 770.1,231.1 800.0,230.2"
            fill="none" stroke="#4e79a7"
            stroke-width="2" stroke-linejoin="round"/>
  <polyline points="52.0,232.0 81.9,231.1 111.8,229.3 141.8,231.1 171.7,229.3 201.6,232.0 231.5,232.0 261.4,232.0 291.4,231.1 321.3,232.0 351.2,232.0 381.1,232.0 411.0,232.0 441.0,231.1 470.9,232.0 500.8,232.0 530.7,232.0 560.6,180.8 590.6,162.8 620.5,229.3 650.4,230.2 680.3,230.2 710.2,228.4 740.2,231.1 770.1,231.1 800.0,230.2"
            fill="none" stroke="#f28e2b"
            stroke-width="2" stroke-linejoin="round"
            stroke-dasharray="5,3"/>

  <!-- dots -->
  <circle cx="52.0" cy="232.0" r="3" fill="#4e79a7"/><circle cx="81.9" cy="231.1" r="3" fill="#4e79a7"/><circle cx="111.8" cy="229.3" r="3" fill="#4e79a7"/><circle cx="141.8" cy="231.1" r="3" fill="#4e79a7"/><circle cx="171.7" cy="229.3" r="3" fill="#4e79a7"/><circle cx="201.6" cy="232.0" r="3" fill="#4e79a7"/><circle cx="231.5" cy="232.0" r="3" fill="#4e79a7"/><circle cx="261.4" cy="232.0" r="3" fill="#4e79a7"/><circle cx="291.4" cy="231.1" r="3" fill="#4e79a7"/><circle cx="321.3" cy="232.0" r="3" fill="#4e79a7"/><circle cx="351.2" cy="232.0" r="3" fill="#4e79a7"/><circle cx="381.1" cy="232.0" r="3" fill="#4e79a7"/><circle cx="411.0" cy="232.0" r="3" fill="#4e79a7"/><circle cx="441.0" cy="231.1" r="3" fill="#4e79a7"/><circle cx="470.9" cy="232.0" r="3" fill="#4e79a7"/><circle cx="500.8" cy="232.0" r="3" fill="#4e79a7"/><circle cx="530.7" cy="232.0" r="3" fill="#4e79a7"/><circle cx="560.6" cy="117.9" r="3" fill="#4e79a7"/><circle cx="590.6" cy="28.0" r="3" fill="#4e79a7"/><circle cx="620.5" cy="222.1" r="3" fill="#4e79a7"/><circle cx="650.4" cy="227.5" r="3" fill="#4e79a7"/><circle cx="680.3" cy="229.3" r="3" fill="#4e79a7"/><circle cx="710.2" cy="228.4" r="3" fill="#4e79a7"/><circle cx="740.2" cy="231.1" r="3" fill="#4e79a7"/><circle cx="770.1" cy="231.1" r="3" fill="#4e79a7"/><circle cx="800.0" cy="230.2" r="3" fill="#4e79a7"/>
  <circle cx="52.0" cy="232.0" r="3" fill="#f28e2b"/><circle cx="81.9" cy="231.1" r="3" fill="#f28e2b"/><circle cx="111.8" cy="229.3" r="3" fill="#f28e2b"/><circle cx="141.8" cy="231.1" r="3" fill="#f28e2b"/><circle cx="171.7" cy="229.3" r="3" fill="#f28e2b"/><circle cx="201.6" cy="232.0" r="3" fill="#f28e2b"/><circle cx="231.5" cy="232.0" r="3" fill="#f28e2b"/><circle cx="261.4" cy="232.0" r="3" fill="#f28e2b"/><circle cx="291.4" cy="231.1" r="3" fill="#f28e2b"/><circle cx="321.3" cy="232.0" r="3" fill="#f28e2b"/><circle cx="351.2" cy="232.0" r="3" fill="#f28e2b"/><circle cx="381.1" cy="232.0" r="3" fill="#f28e2b"/><circle cx="411.0" cy="232.0" r="3" fill="#f28e2b"/><circle cx="441.0" cy="231.1" r="3" fill="#f28e2b"/><circle cx="470.9" cy="232.0" r="3" fill="#f28e2b"/><circle cx="500.8" cy="232.0" r="3" fill="#f28e2b"/><circle cx="530.7" cy="232.0" r="3" fill="#f28e2b"/><circle cx="560.6" cy="180.8" r="3" fill="#f28e2b"/><circle cx="590.6" cy="162.8" r="3" fill="#f28e2b"/><circle cx="620.5" cy="229.3" r="3" fill="#f28e2b"/><circle cx="650.4" cy="230.2" r="3" fill="#f28e2b"/><circle cx="680.3" cy="230.2" r="3" fill="#f28e2b"/><circle cx="710.2" cy="228.4" r="3" fill="#f28e2b"/><circle cx="740.2" cy="231.1" r="3" fill="#f28e2b"/><circle cx="770.1" cy="231.1" r="3" fill="#f28e2b"/><circle cx="800.0" cy="230.2" r="3" fill="#f28e2b"/>

  <!-- axes -->
  <line x1="52" y1="28" x2="52" y2="232"
        stroke="#cccccc" stroke-width="1"/>
  <line x1="52" y1="232" x2="800" y2="232"
        stroke="#cccccc" stroke-width="1"/>

  <!-- y-axis labels -->
  <text x="47" y="236.0" text-anchor="end" font-size="10" fill="#57606a" font-family="ui-monospace, SFMono-Regular, 'SF Mono', Menlo, monospace">0</text><text x="47" y="191.1" text-anchor="end" font-size="10" fill="#57606a" font-family="ui-monospace, SFMono-Regular, 'SF Mono', Menlo, monospace">50</text><text x="47" y="146.1" text-anchor="end" font-size="10" fill="#57606a" font-family="ui-monospace, SFMono-Regular, 'SF Mono', Menlo, monospace">100</text><text x="47" y="101.2" text-anchor="end" font-size="10" fill="#57606a" font-family="ui-monospace, SFMono-Regular, 'SF Mono', Menlo, monospace">150</text><text x="47" y="56.3" text-anchor="end" font-size="10" fill="#57606a" font-family="ui-monospace, SFMono-Regular, 'SF Mono', Menlo, monospace">200</text><text x="47" y="11.3" text-anchor="end" font-size="10" fill="#57606a" font-family="ui-monospace, SFMono-Regular, 'SF Mono', Menlo, monospace">250</text>

  <!-- x-axis labels -->
  <text x="52.0" y="248" text-anchor="middle" font-size="10" fill="#8c959f" font-family="ui-monospace, SFMono-Regular, 'SF Mono', Menlo, monospace">05-11</text><text x="141.8" y="248" text-anchor="middle" font-size="10" fill="#8c959f" font-family="ui-monospace, SFMono-Regular, 'SF Mono', Menlo, monospace">05-14</text><text x="231.5" y="248" text-anchor="middle" font-size="10" fill="#8c959f" font-family="ui-monospace, SFMono-Regular, 'SF Mono', Menlo, monospace">05-17</text><text x="321.3" y="248" text-anchor="middle" font-size="10" fill="#8c959f" font-family="ui-monospace, SFMono-Regular, 'SF Mono', Menlo, monospace">05-20</text><text x="411.0" y="248" text-anchor="middle" font-size="10" fill="#8c959f" font-family="ui-monospace, SFMono-Regular, 'SF Mono', Menlo, monospace">05-23</text><text x="500.8" y="248" text-anchor="middle" font-size="10" fill="#8c959f" font-family="ui-monospace, SFMono-Regular, 'SF Mono', Menlo, monospace">05-26</text><text x="590.6" y="248" text-anchor="middle" font-size="10" fill="#8c959f" font-family="ui-monospace, SFMono-Regular, 'SF Mono', Menlo, monospace">05-29</text><text x="680.3" y="248" text-anchor="middle" font-size="10" fill="#8c959f" font-family="ui-monospace, SFMono-Regular, 'SF Mono', Menlo, monospace">06-01</text><text x="770.1" y="248" text-anchor="middle" font-size="10" fill="#8c959f" font-family="ui-monospace, SFMono-Regular, 'SF Mono', Menlo, monospace">06-04</text><text x="800.0" y="248" text-anchor="middle" font-size="10" fill="#8c959f" font-family="ui-monospace, SFMono-Regular, 'SF Mono', Menlo, monospace">06-05</text>

  <!-- legend -->
  <rect x="60" y="262" width="16" height="3" fill="#4e79a7" rx="1"/><text x="80" y="268" font-size="11" fill="#57606a" font-family="-apple-system, BlinkMacSystemFont, 'Segoe UI', sans-serif">Total clones (391)</text><line x1="230" y1="264" x2="246" y2="264" stroke="#f28e2b" stroke-width="2" stroke-dasharray="5,3"/><text x="250" y="268" font-size="11" fill="#57606a" font-family="-apple-system, BlinkMacSystemFont, 'Segoe UI', sans-serif">Unique cloners</text>

</svg>