<svg xmlns="http://www.w3.org/2000/svg" viewBox="0 0 820 280" width="820" height="280">

  <!-- title -->
  <text x="52" y="18" font-size="13" font-weight="600"
        fill="#24292f" font-family="-apple-system, BlinkMacSystemFont, 'Segoe UI', sans-serif"
        >Clone traffic — image-view</text>
  <text x="800" y="18" font-size="10" fill="#8c959f"
        font-family="ui-monospace, SFMono-Regular, 'SF Mono', Menlo, monospace" text-anchor="end">2026-07-09</text>

  <!-- grid -->
  <line x1="52" y1="232.0" x2="800" y2="232.0" stroke="#e8e8e8" stroke-width="1"/><line x1="52" y1="187.1" x2="800" y2="187.1" stroke="#e8e8e8" stroke-width="1"/><line x1="52" y1="142.1" x2="800" y2="142.1" stroke="#e8e8e8" stroke-width="1"/><line x1="52" y1="97.2" x2="800" y2="97.2" stroke="#e8e8e8" stroke-width="1"/><line x1="52" y1="52.3" x2="800" y2="52.3" stroke="#e8e8e8" stroke-width="1"/><line x1="52" y1="7.3" x2="800" y2="7.3" stroke="#e8e8e8" stroke-width="1"/>

  <!-- area fill -->
  <path d="M52.0,232.0 L52.0,232.0 L65.1,231.1 L78.2,229.3 L91.4,231.1 L104.5,229.3 L117.6,232.0 L130.7,232.0 L143.9,232.0 L157.0,231.1 L170.1,232.0 L183.2,232.0 L196.4,232.0 L209.5,232.0 L222.6,231.1 L235.7,232.0 L248.8,232.0 L262.0,232.0 L275.1,117.9 L288.2,28.0 L301.3,222.1 L314.5,227.5 L327.6,229.3 L340.7,228.4 L353.8,231.1 L366.9,231.1 L380.1,230.2 L393.2,221.2 L406.3,232.0 L419.4,228.4 L432.6,231.1 L445.7,229.3 L458.8,224.8 L471.9,232.0 L485.1,232.0 L498.2,232.0 L511.3,205.0 L524.4,229.3 L537.5,232.0 L550.7,130.4 L563.8,229.3 L576.9,232.0 L590.0,232.0 L603.2,230.2 L616.3,231.1 L629.4,231.1 L642.5,230.2 L655.6,230.2 L668.8,232.0 L681.9,232.0 L695.0,231.1 L708.1,232.0 L721.3,231.1 L734.4,232.0 L747.5,232.0 L760.6,223.9 L773.8,226.6 L786.9,231.1 L800.0,232.0 L800.0,232.0 L52.0,232.0Z" fill="#4e79a7" opacity="0.12"/>

  <!-- lines -->
  <polyline points="52.0,232.0 65.1,231.1 78.2,229.3 91.4,231.1 104.5,229.3 117.6,232.0 130.7,232.0 143.9,232.0 157.0,231.1 170.1,232.0 183.2,232.0 196.4,232.0 209.5,232.0 222.6,231.1 235.7,232.0 248.8,232.0 262.0,232.0 275.1,117.9 288.2,28.0 301.3,222.1 314.5,227.5 327.6,229.3 340.7,228.4 353.8,231.1 366.9,231.1 380.1,230.2 393.2,221.2 406.3,232.0 419.4,228.4 432.6,231.1 445.7,229.3 458.8,224.8 471.9,232.0 485.1,232.0 498.2,232.0 511.3,205.0 524.4,229.3 537.5,232.0 550.7,130.4 563.8,229.3 576.9,232.0 590.0,232.0 603.2,230.2 616.3,231.1 629.4,231.1 642.5,230.2 655.6,230.2 668.8,232.0 681.9,232.0 695.0,231.1 708.1,232.0 721.3,231.1 734.4,232.0 747.5,232.0 760.6,223.9 773.8,226.6 786.9,231.1 800.0,232.0"
            fill="none" stroke="#4e79a7"
            stroke-width="2" stroke-linejoin="round"/>
  <polyline points="52.0,232.0 65.1,231.1 78.2,229.3 91.4,231.1 104.5,229.3 117.6,232.0 130.7,232.0 143.9,232.0 157.0,231.1 170.1,232.0 183.2,232.0 196.4,232.0 209.5,232.0 222.6,231.1 235.7,232.0 248.8,232.0 262.0,232.0 275.1,180.8 288.2,162.8 301.3,229.3 314.5,230.2 327.6,230.2 340.7,228.4 353.8,231.1 366.9,231.1 380.1,230.2 393.2,230.2 406.3,232.0 419.4,228.4 432.6,231.1 445.7,229.3 458.8,224.8 471.9,232.0 485.1,232.0 498.2,232.0 511.3,222.1 524.4,229.3 537.5,232.0 550.7,214.0 563.8,229.3 576.9,232.0 590.0,232.0 603.2,230.2 616.3,231.1 629.4,231.1 642.5,230.2 655.6,230.2 668.8,232.0 681.9,232.0 695.0,231.1 708.1,232.0 721.3,231.1 734.4,232.0 747.5,232.0 760.6,224.8 773.8,226.6 786.9,231.1 800.0,232.0"
            fill="none" stroke="#f28e2b"
            stroke-width="2" stroke-linejoin="round"
            stroke-dasharray="5,3"/>

  <!-- dots -->
  <circle cx="52.0" cy="232.0" r="3" fill="#4e79a7"/><circle cx="65.1" cy="231.1" r="3" fill="#4e79a7"/><circle cx="78.2" cy="229.3" r="3" fill="#4e79a7"/><circle cx="91.4" cy="231.1" r="3" fill="#4e79a7"/><circle cx="104.5" cy="229.3" r="3" fill="#4e79a7"/><circle cx="117.6" cy="232.0" r="3" fill="#4e79a7"/><circle cx="130.7" cy="232.0" r="3" fill="#4e79a7"/><circle cx="143.9" cy="232.0" r="3" fill="#4e79a7"/><circle cx="157.0" cy="231.1" r="3" fill="#4e79a7"/><circle cx="170.1" cy="232.0" r="3" fill="#4e79a7"/><circle cx="183.2" cy="232.0" r="3" fill="#4e79a7"/><circle cx="196.4" cy="232.0" r="3" fill="#4e79a7"/><circle cx="209.5" cy="232.0" r="3" fill="#4e79a7"/><circle cx="222.6" cy="231.1" r="3" fill="#4e79a7"/><circle cx="235.7" cy="232.0" r="3" fill="#4e79a7"/><circle cx="248.8" cy="232.0" r="3" fill="#4e79a7"/><circle cx="262.0" cy="232.0" r="3" fill="#4e79a7"/><circle cx="275.1" cy="117.9" r="3" fill="#4e79a7"/><circle cx="288.2" cy="28.0" r="3" fill="#4e79a7"/><circle cx="301.3" cy="222.1" r="3" fill="#4e79a7"/><circle cx="314.5" cy="227.5" r="3" fill="#4e79a7"/><circle cx="327.6" cy="229.3" r="3" fill="#4e79a7"/><circle cx="340.7" cy="228.4" r="3" fill="#4e79a7"/><circle cx="353.8" cy="231.1" r="3" fill="#4e79a7"/><circle cx="366.9" cy="231.1" r="3" fill="#4e79a7"/><circle cx="380.1" cy="230.2" r="3" fill="#4e79a7"/><circle cx="393.2" cy="221.2" r="3" fill="#4e79a7"/><circle cx="406.3" cy="232.0" r="3" fill="#4e79a7"/><circle cx="419.4" cy="228.4" r="3" fill="#4e79a7"/><circle cx="432.6" cy="231.1" r="3" fill="#4e79a7"/><circle cx="445.7" cy="229.3" r="3" fill="#4e79a7"/><circle cx="458.8" cy="224.8" r="3" fill="#4e79a7"/><circle cx="471.9" cy="232.0" r="3" fill="#4e79a7"/><circle cx="485.1" cy="232.0" r="3" fill="#4e79a7"/><circle cx="498.2" cy="232.0" r="3" fill="#4e79a7"/><circle cx="511.3" cy="205.0" r="3" fill="#4e79a7"/><circle cx="524.4" cy="229.3" r="3" fill="#4e79a7"/><circle cx="537.5" cy="232.0" r="3" fill="#4e79a7"/><circle cx="550.7" cy="130.4" r="3" fill="#4e79a7"/><circle cx="563.8" cy="229.3" r="3" fill="#4e79a7"/><circle cx="576.9" cy="232.0" r="3" fill="#4e79a7"/><circle cx="590.0" cy="232.0" r="3" fill="#4e79a7"/><circle cx="603.2" cy="230.2" r="3" fill="#4e79a7"/><circle cx="616.3" cy="231.1" r="3" fill="#4e79a7"/><circle cx="629.4" cy="231.1" r="3" fill="#4e79a7"/><circle cx="642.5" cy="230.2" r="3" fill="#4e79a7"/><circle cx="655.6" cy="230.2" r="3" fill="#4e79a7"/><circle cx="668.8" cy="232.0" r="3" fill="#4e79a7"/><circle cx="681.9" cy="232.0" r="3" fill="#4e79a7"/><circle cx="695.0" cy="231.1" r="3" fill="#4e79a7"/><circle cx="708.1" cy="232.0" r="3" fill="#4e79a7"/><circle cx="721.3" cy="231.1" r="3" fill="#4e79a7"/><circle cx="734.4" cy="232.0" r="3" fill="#4e79a7"/><circle cx="747.5" cy="232.0" r="3" fill="#4e79a7"/><circle cx="760.6" cy="223.9" r="3" fill="#4e79a7"/><circle cx="773.8" cy="226.6" r="3" fill="#4e79a7"/><circle cx="786.9" cy="231.1" r="3" fill="#4e79a7"/><circle cx="800.0" cy="232.0" r="3" fill="#4e79a7"/>
  <circle cx="52.0" cy="232.0" r="3" fill="#f28e2b"/><circle cx="65.1" cy="231.1" r="3" fill="#f28e2b"/><circle cx="78.2" cy="229.3" r="3" fill="#f28e2b"/><circle cx="91.4" cy="231.1" r="3" fill="#f28e2b"/><circle cx="104.5" cy="229.3" r="3" fill="#f28e2b"/><circle cx="117.6" cy="232.0" r="3" fill="#f28e2b"/><circle cx="130.7" cy="232.0" r="3" fill="#f28e2b"/><circle cx="143.9" cy="232.0" r="3" fill="#f28e2b"/><circle cx="157.0" cy="231.1" r="3" fill="#f28e2b"/><circle cx="170.1" cy="232.0" r="3" fill="#f28e2b"/><circle cx="183.2" cy="232.0" r="3" fill="#f28e2b"/><circle cx="196.4" cy="232.0" r="3" fill="#f28e2b"/><circle cx="209.5" cy="232.0" r="3" fill="#f28e2b"/><circle cx="222.6" cy="231.1" r="3" fill="#f28e2b"/><circle cx="235.7" cy="232.0" r="3" fill="#f28e2b"/><circle cx="248.8" cy="232.0" r="3" fill="#f28e2b"/><circle cx="262.0" cy="232.0" r="3" fill="#f28e2b"/><circle cx="275.1" cy="180.8" r="3" fill="#f28e2b"/><circle cx="288.2" cy="162.8" r="3" fill="#f28e2b"/><circle cx="301.3" cy="229.3" r="3" fill="#f28e2b"/><circle cx="314.5" cy="230.2" r="3" fill="#f28e2b"/><circle cx="327.6" cy="230.2" r="3" fill="#f28e2b"/><circle cx="340.7" cy="228.4" r="3" fill="#f28e2b"/><circle cx="353.8" cy="231.1" r="3" fill="#f28e2b"/><circle cx="366.9" cy="231.1" r="3" fill="#f28e2b"/><circle cx="380.1" cy="230.2" r="3" fill="#f28e2b"/><circle cx="393.2" cy="230.2" r="3" fill="#f28e2b"/><circle cx="406.3" cy="232.0" r="3" fill="#f28e2b"/><circle cx="419.4" cy="228.4" r="3" fill="#f28e2b"/><circle cx="432.6" cy="231.1" r="3" fill="#f28e2b"/><circle cx="445.7" cy="229.3" r="3" fill="#f28e2b"/><circle cx="458.8" cy="224.8" r="3" fill="#f28e2b"/><circle cx="471.9" cy="232.0" r="3" fill="#f28e2b"/><circle cx="485.1" cy="232.0" r="3" fill="#f28e2b"/><circle cx="498.2" cy="232.0" r="3" fill="#f28e2b"/><circle cx="511.3" cy="222.1" r="3" fill="#f28e2b"/><circle cx="524.4" cy="229.3" r="3" fill="#f28e2b"/><circle cx="537.5" cy="232.0" r="3" fill="#f28e2b"/><circle cx="550.7" cy="214.0" r="3" fill="#f28e2b"/><circle cx="563.8" cy="229.3" r="3" fill="#f28e2b"/><circle cx="576.9" cy="232.0" r="3" fill="#f28e2b"/><circle cx="590.0" cy="232.0" r="3" fill="#f28e2b"/><circle cx="603.2" cy="230.2" r="3" fill="#f28e2b"/><circle cx="616.3" cy="231.1" r="3" fill="#f28e2b"/><circle cx="629.4" cy="231.1" r="3" fill="#f28e2b"/><circle cx="642.5" cy="230.2" r="3" fill="#f28e2b"/><circle cx="655.6" cy="230.2" r="3" fill="#f28e2b"/><circle cx="668.8" cy="232.0" r="3" fill="#f28e2b"/><circle cx="681.9" cy="232.0" r="3" fill="#f28e2b"/><circle cx="695.0" cy="231.1" r="3" fill="#f28e2b"/><circle cx="708.1" cy="232.0" r="3" fill="#f28e2b"/><circle cx="721.3" cy="231.1" r="3" fill="#f28e2b"/><circle cx="734.4" cy="232.0" r="3" fill="#f28e2b"/><circle cx="747.5" cy="232.0" r="3" fill="#f28e2b"/><circle cx="760.6" cy="224.8" r="3" fill="#f28e2b"/><circle cx="773.8" cy="226.6" r="3" fill="#f28e2b"/><circle cx="786.9" cy="231.1" r="3" fill="#f28e2b"/><circle cx="800.0" cy="232.0" r="3" fill="#f28e2b"/>

  <!-- axes -->
  <line x1="52" y1="28" x2="52" y2="232"
        stroke="#cccccc" stroke-width="1"/>
  <line x1="52" y1="232" x2="800" y2="232"
        stroke="#cccccc" stroke-width="1"/>

  <!-- y-axis labels -->
  <text x="47" y="236.0" text-anchor="end" font-size="10" fill="#57606a" font-family="ui-monospace, SFMono-Regular, 'SF Mono', Menlo, monospace">0</text><text x="47" y="191.1" text-anchor="end" font-size="10" fill="#57606a" font-family="ui-monospace, SFMono-Regular, 'SF Mono', Menlo, monospace">50</text><text x="47" y="146.1" text-anchor="end" font-size="10" fill="#57606a" font-family="ui-monospace, SFMono-Regular, 'SF Mono', Menlo, monospace">100</text><text x="47" y="101.2" text-anchor="end" font-size="10" fill="#57606a" font-family="ui-monospace, SFMono-Regular, 'SF Mono', Menlo, monospace">150</text><text x="47" y="56.3" text-anchor="end" font-size="10" fill="#57606a" font-family="ui-monospace, SFMono-Regular, 'SF Mono', Menlo, monospace">200</text><text x="47" y="11.3" text-anchor="end" font-size="10" fill="#57606a" font-family="ui-monospace, SFMono-Regular, 'SF Mono', Menlo, monospace">250</text>

  <!-- x-axis labels -->
  <text x="52.0" y="248" text-anchor="middle" font-size="10" fill="#8c959f" font-family="ui-monospace, SFMono-Regular, 'SF Mono', Menlo, monospace">05-11</text><text x="511.3" y="248" text-anchor="middle" font-size="10" fill="#8c959f" font-family="ui-monospace, SFMono-Regular, 'SF Mono', Menlo, monospace">06-15</text><text x="143.9" y="248" text-anchor="middle" font-size="10" fill="#8c959f" font-family="ui-monospace, SFMono-Regular, 'SF Mono', Menlo, monospace">05-18</text><text x="603.2" y="248" text-anchor="middle" font-size="10" fill="#8c959f" font-family="ui-monospace, SFMono-Regular, 'SF Mono', Menlo, monospace">06-22</text><text x="235.7" y="248" text-anchor="middle" font-size="10" fill="#8c959f" font-family="ui-monospace, SFMono-Regular, 'SF Mono', Menlo, monospace">05-25</text><text x="695.0" y="248" text-anchor="middle" font-size="10" fill="#8c959f" font-family="ui-monospace, SFMono-Regular, 'SF Mono', Menlo, monospace">06-29</text><text x="327.6" y="248" text-anchor="middle" font-size="10" fill="#8c959f" font-family="ui-monospace, SFMono-Regular, 'SF Mono', Menlo, monospace">06-01</text><text x="786.9" y="248" text-anchor="middle" font-size="10" fill="#8c959f" font-family="ui-monospace, SFMono-Regular, 'SF Mono', Menlo, monospace">07-06</text><text x="800.0" y="248" text-anchor="middle" font-size="10" fill="#8c959f" font-family="ui-monospace, SFMono-Regular, 'SF Mono', Menlo, monospace">07-07</text><text x="419.4" y="248" text-anchor="middle" font-size="10" fill="#8c959f" font-family="ui-monospace, SFMono-Regular, 'SF Mono', Menlo, monospace">06-08</text>

  <!-- legend -->
  <rect x="60" y="262" width="16" height="3" fill="#4e79a7" rx="1"/><text x="80" y="268" font-size="11" fill="#57606a" font-family="-apple-system, BlinkMacSystemFont, 'Segoe UI', sans-serif">Total clones (594)</text><line x1="230" y1="264" x2="246" y2="264" stroke="#f28e2b" stroke-width="2" stroke-dasharray="5,3"/><text x="250" y="268" font-size="11" fill="#57606a" font-family="-apple-system, BlinkMacSystemFont, 'Segoe UI', sans-serif">Unique cloners</text>

</svg>