<svg xmlns="http://www.w3.org/2000/svg" viewBox="0 0 820 280" width="820" height="280">

  <!-- title -->
  <text x="52" y="18" font-size="13" font-weight="600"
        fill="#24292f" font-family="-apple-system, BlinkMacSystemFont, 'Segoe UI', sans-serif"
        >Clone traffic — image-view</text>
  <text x="800" y="18" font-size="10" fill="#8c959f"
        font-family="ui-monospace, SFMono-Regular, 'SF Mono', Menlo, monospace" text-anchor="end">2026-07-20</text>

  <!-- grid -->
  <line x1="52" y1="232.0" x2="800" y2="232.0" stroke="#e8e8e8" stroke-width="1"/><line x1="52" y1="187.1" x2="800" y2="187.1" stroke="#e8e8e8" stroke-width="1"/><line x1="52" y1="142.1" x2="800" y2="142.1" stroke="#e8e8e8" stroke-width="1"/><line x1="52" y1="97.2" x2="800" y2="97.2" stroke="#e8e8e8" stroke-width="1"/><line x1="52" y1="52.3" x2="800" y2="52.3" stroke="#e8e8e8" stroke-width="1"/><line x1="52" y1="7.3" x2="800" y2="7.3" stroke="#e8e8e8" stroke-width="1"/>

  <!-- area fill -->
  <path d="M52.0,232.0 L52.0,232.0 L63.0,231.1 L74.0,229.3 L85.0,231.1 L96.0,229.3 L107.0,232.0 L118.0,232.0 L129.0,232.0 L140.0,231.1 L151.0,232.0 L162.0,232.0 L173.0,232.0 L184.0,232.0 L195.0,231.1 L206.0,232.0 L217.0,232.0 L228.0,232.0 L239.0,117.9 L250.0,28.0 L261.0,222.1 L272.0,227.5 L283.0,229.3 L294.0,228.4 L305.0,231.1 L316.0,231.1 L327.0,230.2 L338.0,221.2 L349.0,232.0 L360.0,228.4 L371.0,231.1 L382.0,229.3 L393.0,224.8 L404.0,232.0 L415.0,232.0 L426.0,232.0 L437.0,205.0 L448.0,229.3 L459.0,232.0 L470.0,130.4 L481.0,229.3 L492.0,232.0 L503.0,232.0 L514.0,230.2 L525.0,231.1 L536.0,231.1 L547.0,230.2 L558.0,230.2 L569.0,232.0 L580.0,232.0 L591.0,231.1 L602.0,232.0 L613.0,231.1 L624.0,232.0 L635.0,232.0 L646.0,223.9 L657.0,226.6 L668.0,231.1 L679.0,232.0 L690.0,231.1 L701.0,231.1 L712.0,231.1 L723.0,231.1 L734.0,232.0 L745.0,232.0 L756.0,230.2 L767.0,232.0 L778.0,232.0 L789.0,230.2 L800.0,231.1 L800.0,232.0 L52.0,232.0Z" fill="#4e79a7" opacity="0.12"/>

  <!-- lines -->
  <polyline points="52.0,232.0 63.0,231.1 74.0,229.3 85.0,231.1 96.0,229.3 107.0,232.0 118.0,232.0 129.0,232.0 140.0,231.1 151.0,232.0 162.0,232.0 173.0,232.0 184.0,232.0 195.0,231.1 206.0,232.0 217.0,232.0 228.0,232.0 239.0,117.9 250.0,28.0 261.0,222.1 272.0,227.5 283.0,229.3 294.0,228.4 305.0,231.1 316.0,231.1 327.0,230.2 338.0,221.2 349.0,232.0 360.0,228.4 371.0,231.1 382.0,229.3 393.0,224.8 404.0,232.0 415.0,232.0 426.0,232.0 437.0,205.0 448.0,229.3 459.0,232.0 470.0,130.4 481.0,229.3 492.0,232.0 503.0,232.0 514.0,230.2 525.0,231.1 536.0,231.1 547.0,230.2 558.0,230.2 569.0,232.0 580.0,232.0 591.0,231.1 602.0,232.0 613.0,231.1 624.0,232.0 635.0,232.0 646.0,223.9 657.0,226.6 668.0,231.1 679.0,232.0 690.0,231.1 701.0,231.1 712.0,231.1 723.0,231.1 734.0,232.0 745.0,232.0 756.0,230.2 767.0,232.0 778.0,232.0 789.0,230.2 800.0,231.1"
            fill="none" stroke="#4e79a7"
            stroke-width="2" stroke-linejoin="round"/>
  <polyline points="52.0,232.0 63.0,231.1 74.0,229.3 85.0,231.1 96.0,229.3 107.0,232.0 118.0,232.0 129.0,232.0 140.0,231.1 151.0,232.0 162.0,232.0 173.0,232.0 184.0,232.0 195.0,231.1 206.0,232.0 217.0,232.0 228.0,232.0 239.0,180.8 250.0,162.8 261.0,229.3 272.0,230.2 283.0,230.2 294.0,228.4 305.0,231.1 316.0,231.1 327.0,230.2 338.0,230.2 349.0,232.0 360.0,228.4 371.0,231.1 382.0,229.3 393.0,224.8 404.0,232.0 415.0,232.0 426.0,232.0 437.0,222.1 448.0,229.3 459.0,232.0 470.0,214.0 481.0,229.3 492.0,232.0 503.0,232.0 514.0,230.2 525.0,231.1 536.0,231.1 547.0,230.2 558.0,230.2 569.0,232.0 580.0,232.0 591.0,231.1 602.0,232.0 613.0,231.1 624.0,232.0 635.0,232.0 646.0,224.8 657.0,226.6 668.0,231.1 679.0,232.0 690.0,231.1 701.0,231.1 712.0,231.1 723.0,231.1 734.0,232.0 745.0,232.0 756.0,230.2 767.0,232.0 778.0,232.0 789.0,230.2 800.0,231.1"
            fill="none" stroke="#f28e2b"
            stroke-width="2" stroke-linejoin="round"
            stroke-dasharray="5,3"/>

  <!-- dots -->
  <circle cx="52.0" cy="232.0" r="3" fill="#4e79a7"/><circle cx="63.0" cy="231.1" r="3" fill="#4e79a7"/><circle cx="74.0" cy="229.3" r="3" fill="#4e79a7"/><circle cx="85.0" cy="231.1" r="3" fill="#4e79a7"/><circle cx="96.0" cy="229.3" r="3" fill="#4e79a7"/><circle cx="107.0" cy="232.0" r="3" fill="#4e79a7"/><circle cx="118.0" cy="232.0" r="3" fill="#4e79a7"/><circle cx="129.0" cy="232.0" r="3" fill="#4e79a7"/><circle cx="140.0" cy="231.1" r="3" fill="#4e79a7"/><circle cx="151.0" cy="232.0" r="3" fill="#4e79a7"/><circle cx="162.0" cy="232.0" r="3" fill="#4e79a7"/><circle cx="173.0" cy="232.0" r="3" fill="#4e79a7"/><circle cx="184.0" cy="232.0" r="3" fill="#4e79a7"/><circle cx="195.0" cy="231.1" r="3" fill="#4e79a7"/><circle cx="206.0" cy="232.0" r="3" fill="#4e79a7"/><circle cx="217.0" cy="232.0" r="3" fill="#4e79a7"/><circle cx="228.0" cy="232.0" r="3" fill="#4e79a7"/><circle cx="239.0" cy="117.9" r="3" fill="#4e79a7"/><circle cx="250.0" cy="28.0" r="3" fill="#4e79a7"/><circle cx="261.0" cy="222.1" r="3" fill="#4e79a7"/><circle cx="272.0" cy="227.5" r="3" fill="#4e79a7"/><circle cx="283.0" cy="229.3" r="3" fill="#4e79a7"/><circle cx="294.0" cy="228.4" r="3" fill="#4e79a7"/><circle cx="305.0" cy="231.1" r="3" fill="#4e79a7"/><circle cx="316.0" cy="231.1" r="3" fill="#4e79a7"/><circle cx="327.0" cy="230.2" r="3" fill="#4e79a7"/><circle cx="338.0" cy="221.2" r="3" fill="#4e79a7"/><circle cx="349.0" cy="232.0" r="3" fill="#4e79a7"/><circle cx="360.0" cy="228.4" r="3" fill="#4e79a7"/><circle cx="371.0" cy="231.1" r="3" fill="#4e79a7"/><circle cx="382.0" cy="229.3" r="3" fill="#4e79a7"/><circle cx="393.0" cy="224.8" r="3" fill="#4e79a7"/><circle cx="404.0" cy="232.0" r="3" fill="#4e79a7"/><circle cx="415.0" cy="232.0" r="3" fill="#4e79a7"/><circle cx="426.0" cy="232.0" r="3" fill="#4e79a7"/><circle cx="437.0" cy="205.0" r="3" fill="#4e79a7"/><circle cx="448.0" cy="229.3" r="3" fill="#4e79a7"/><circle cx="459.0" cy="232.0" r="3" fill="#4e79a7"/><circle cx="470.0" cy="130.4" r="3" fill="#4e79a7"/><circle cx="481.0" cy="229.3" r="3" fill="#4e79a7"/><circle cx="492.0" cy="232.0" r="3" fill="#4e79a7"/><circle cx="503.0" cy="232.0" r="3" fill="#4e79a7"/><circle cx="514.0" cy="230.2" r="3" fill="#4e79a7"/><circle cx="525.0" cy="231.1" r="3" fill="#4e79a7"/><circle cx="536.0" cy="231.1" r="3" fill="#4e79a7"/><circle cx="547.0" cy="230.2" r="3" fill="#4e79a7"/><circle cx="558.0" cy="230.2" r="3" fill="#4e79a7"/><circle cx="569.0" cy="232.0" r="3" fill="#4e79a7"/><circle cx="580.0" cy="232.0" r="3" fill="#4e79a7"/><circle cx="591.0" cy="231.1" r="3" fill="#4e79a7"/><circle cx="602.0" cy="232.0" r="3" fill="#4e79a7"/><circle cx="613.0" cy="231.1" r="3" fill="#4e79a7"/><circle cx="624.0" cy="232.0" r="3" fill="#4e79a7"/><circle cx="635.0" cy="232.0" r="3" fill="#4e79a7"/><circle cx="646.0" cy="223.9" r="3" fill="#4e79a7"/><circle cx="657.0" cy="226.6" r="3" fill="#4e79a7"/><circle cx="668.0" cy="231.1" r="3" fill="#4e79a7"/><circle cx="679.0" cy="232.0" r="3" fill="#4e79a7"/><circle cx="690.0" cy="231.1" r="3" fill="#4e79a7"/><circle cx="701.0" cy="231.1" r="3" fill="#4e79a7"/><circle cx="712.0" cy="231.1" r="3" fill="#4e79a7"/><circle cx="723.0" cy="231.1" r="3" fill="#4e79a7"/><circle cx="734.0" cy="232.0" r="3" fill="#4e79a7"/><circle cx="745.0" cy="232.0" r="3" fill="#4e79a7"/><circle cx="756.0" cy="230.2" r="3" fill="#4e79a7"/><circle cx="767.0" cy="232.0" r="3" fill="#4e79a7"/><circle cx="778.0" cy="232.0" r="3" fill="#4e79a7"/><circle cx="789.0" cy="230.2" r="3" fill="#4e79a7"/><circle cx="800.0" cy="231.1" r="3" fill="#4e79a7"/>
  <circle cx="52.0" cy="232.0" r="3" fill="#f28e2b"/><circle cx="63.0" cy="231.1" r="3" fill="#f28e2b"/><circle cx="74.0" cy="229.3" r="3" fill="#f28e2b"/><circle cx="85.0" cy="231.1" r="3" fill="#f28e2b"/><circle cx="96.0" cy="229.3" r="3" fill="#f28e2b"/><circle cx="107.0" cy="232.0" r="3" fill="#f28e2b"/><circle cx="118.0" cy="232.0" r="3" fill="#f28e2b"/><circle cx="129.0" cy="232.0" r="3" fill="#f28e2b"/><circle cx="140.0" cy="231.1" r="3" fill="#f28e2b"/><circle cx="151.0" cy="232.0" r="3" fill="#f28e2b"/><circle cx="162.0" cy="232.0" r="3" fill="#f28e2b"/><circle cx="173.0" cy="232.0" r="3" fill="#f28e2b"/><circle cx="184.0" cy="232.0" r="3" fill="#f28e2b"/><circle cx="195.0" cy="231.1" r="3" fill="#f28e2b"/><circle cx="206.0" cy="232.0" r="3" fill="#f28e2b"/><circle cx="217.0" cy="232.0" r="3" fill="#f28e2b"/><circle cx="228.0" cy="232.0" r="3" fill="#f28e2b"/><circle cx="239.0" cy="180.8" r="3" fill="#f28e2b"/><circle cx="250.0" cy="162.8" r="3" fill="#f28e2b"/><circle cx="261.0" cy="229.3" r="3" fill="#f28e2b"/><circle cx="272.0" cy="230.2" r="3" fill="#f28e2b"/><circle cx="283.0" cy="230.2" r="3" fill="#f28e2b"/><circle cx="294.0" cy="228.4" r="3" fill="#f28e2b"/><circle cx="305.0" cy="231.1" r="3" fill="#f28e2b"/><circle cx="316.0" cy="231.1" r="3" fill="#f28e2b"/><circle cx="327.0" cy="230.2" r="3" fill="#f28e2b"/><circle cx="338.0" cy="230.2" r="3" fill="#f28e2b"/><circle cx="349.0" cy="232.0" r="3" fill="#f28e2b"/><circle cx="360.0" cy="228.4" r="3" fill="#f28e2b"/><circle cx="371.0" cy="231.1" r="3" fill="#f28e2b"/><circle cx="382.0" cy="229.3" r="3" fill="#f28e2b"/><circle cx="393.0" cy="224.8" r="3" fill="#f28e2b"/><circle cx="404.0" cy="232.0" r="3" fill="#f28e2b"/><circle cx="415.0" cy="232.0" r="3" fill="#f28e2b"/><circle cx="426.0" cy="232.0" r="3" fill="#f28e2b"/><circle cx="437.0" cy="222.1" r="3" fill="#f28e2b"/><circle cx="448.0" cy="229.3" r="3" fill="#f28e2b"/><circle cx="459.0" cy="232.0" r="3" fill="#f28e2b"/><circle cx="470.0" cy="214.0" r="3" fill="#f28e2b"/><circle cx="481.0" cy="229.3" r="3" fill="#f28e2b"/><circle cx="492.0" cy="232.0" r="3" fill="#f28e2b"/><circle cx="503.0" cy="232.0" r="3" fill="#f28e2b"/><circle cx="514.0" cy="230.2" r="3" fill="#f28e2b"/><circle cx="525.0" cy="231.1" r="3" fill="#f28e2b"/><circle cx="536.0" cy="231.1" r="3" fill="#f28e2b"/><circle cx="547.0" cy="230.2" r="3" fill="#f28e2b"/><circle cx="558.0" cy="230.2" r="3" fill="#f28e2b"/><circle cx="569.0" cy="232.0" r="3" fill="#f28e2b"/><circle cx="580.0" cy="232.0" r="3" fill="#f28e2b"/><circle cx="591.0" cy="231.1" r="3" fill="#f28e2b"/><circle cx="602.0" cy="232.0" r="3" fill="#f28e2b"/><circle cx="613.0" cy="231.1" r="3" fill="#f28e2b"/><circle cx="624.0" cy="232.0" r="3" fill="#f28e2b"/><circle cx="635.0" cy="232.0" r="3" fill="#f28e2b"/><circle cx="646.0" cy="224.8" r="3" fill="#f28e2b"/><circle cx="657.0" cy="226.6" r="3" fill="#f28e2b"/><circle cx="668.0" cy="231.1" r="3" fill="#f28e2b"/><circle cx="679.0" cy="232.0" r="3" fill="#f28e2b"/><circle cx="690.0" cy="231.1" r="3" fill="#f28e2b"/><circle cx="701.0" cy="231.1" r="3" fill="#f28e2b"/><circle cx="712.0" cy="231.1" r="3" fill="#f28e2b"/><circle cx="723.0" cy="231.1" r="3" fill="#f28e2b"/><circle cx="734.0" cy="232.0" r="3" fill="#f28e2b"/><circle cx="745.0" cy="232.0" r="3" fill="#f28e2b"/><circle cx="756.0" cy="230.2" r="3" fill="#f28e2b"/><circle cx="767.0" cy="232.0" r="3" fill="#f28e2b"/><circle cx="778.0" cy="232.0" r="3" fill="#f28e2b"/><circle cx="789.0" cy="230.2" r="3" fill="#f28e2b"/><circle cx="800.0" cy="231.1" r="3" fill="#f28e2b"/>

  <!-- axes -->
  <line x1="52" y1="28" x2="52" y2="232"
        stroke="#cccccc" stroke-width="1"/>
  <line x1="52" y1="232" x2="800" y2="232"
        stroke="#cccccc" stroke-width="1"/>

  <!-- y-axis labels -->
  <text x="47" y="236.0" text-anchor="end" font-size="10" fill="#57606a" font-family="ui-monospace, SFMono-Regular, 'SF Mono', Menlo, monospace">0</text><text x="47" y="191.1" text-anchor="end" font-size="10" fill="#57606a" font-family="ui-monospace, SFMono-Regular, 'SF Mono', Menlo, monospace">50</text><text x="47" y="146.1" text-anchor="end" font-size="10" fill="#57606a" font-family="ui-monospace, SFMono-Regular, 'SF Mono', Menlo, monospace">100</text><text x="47" y="101.2" text-anchor="end" font-size="10" fill="#57606a" font-family="ui-monospace, SFMono-Regular, 'SF Mono', Menlo, monospace">150</text><text x="47" y="56.3" text-anchor="end" font-size="10" fill="#57606a" font-family="ui-monospace, SFMono-Regular, 'SF Mono', Menlo, monospace">200</text><text x="47" y="11.3" text-anchor="end" font-size="10" fill="#57606a" font-family="ui-monospace, SFMono-Regular, 'SF Mono', Menlo, monospace">250</text>

  <!-- x-axis labels -->
  <text x="52.0" y="248" text-anchor="middle" font-size="10" fill="#8c959f" font-family="ui-monospace, SFMono-Regular, 'SF Mono', Menlo, monospace">05-11</text><text x="404.0" y="248" text-anchor="middle" font-size="10" fill="#8c959f" font-family="ui-monospace, SFMono-Regular, 'SF Mono', Menlo, monospace">06-12</text><text x="756.0" y="248" text-anchor="middle" font-size="10" fill="#8c959f" font-family="ui-monospace, SFMono-Regular, 'SF Mono', Menlo, monospace">07-14</text><text x="800.0" y="248" text-anchor="middle" font-size="10" fill="#8c959f" font-family="ui-monospace, SFMono-Regular, 'SF Mono', Menlo, monospace">07-18</text><text x="140.0" y="248" text-anchor="middle" font-size="10" fill="#8c959f" font-family="ui-monospace, SFMono-Regular, 'SF Mono', Menlo, monospace">05-19</text><text x="492.0" y="248" text-anchor="middle" font-size="10" fill="#8c959f" font-family="ui-monospace, SFMono-Regular, 'SF Mono', Menlo, monospace">06-20</text><text x="228.0" y="248" text-anchor="middle" font-size="10" fill="#8c959f" font-family="ui-monospace, SFMono-Regular, 'SF Mono', Menlo, monospace">05-27</text><text x="580.0" y="248" text-anchor="middle" font-size="10" fill="#8c959f" font-family="ui-monospace, SFMono-Regular, 'SF Mono', Menlo, monospace">06-28</text><text x="316.0" y="248" text-anchor="middle" font-size="10" fill="#8c959f" font-family="ui-monospace, SFMono-Regular, 'SF Mono', Menlo, monospace">06-04</text><text x="668.0" y="248" text-anchor="middle" font-size="10" fill="#8c959f" font-family="ui-monospace, SFMono-Regular, 'SF Mono', Menlo, monospace">07-06</text>

  <!-- legend -->
  <rect x="60" y="262" width="16" height="3" fill="#4e79a7" rx="1"/><text x="80" y="268" font-size="11" fill="#57606a" font-family="-apple-system, BlinkMacSystemFont, 'Segoe UI', sans-serif">Total clones (603)</text><line x1="230" y1="264" x2="246" y2="264" stroke="#f28e2b" stroke-width="2" stroke-dasharray="5,3"/><text x="250" y="268" font-size="11" fill="#57606a" font-family="-apple-system, BlinkMacSystemFont, 'Segoe UI', sans-serif">Unique cloners</text>

</svg>