<svg xmlns="http://www.w3.org/2000/svg" viewBox="0 0 820 280" width="820" height="280">

  <!-- title -->
  <text x="52" y="18" font-size="13" font-weight="600"
        fill="#24292f" font-family="-apple-system, BlinkMacSystemFont, 'Segoe UI', sans-serif"
        >Clone traffic — image-view</text>
  <text x="800" y="18" font-size="10" fill="#8c959f"
        font-family="ui-monospace, SFMono-Regular, 'SF Mono', Menlo, monospace" text-anchor="end">2026-06-15</text>

  <!-- grid -->
  <line x1="52" y1="232.0" x2="800" y2="232.0" stroke="#e8e8e8" stroke-width="1"/><line x1="52" y1="187.1" x2="800" y2="187.1" stroke="#e8e8e8" stroke-width="1"/><line x1="52" y1="142.1" x2="800" y2="142.1" stroke="#e8e8e8" stroke-width="1"/><line x1="52" y1="97.2" x2="800" y2="97.2" stroke="#e8e8e8" stroke-width="1"/><line x1="52" y1="52.3" x2="800" y2="52.3" stroke="#e8e8e8" stroke-width="1"/><line x1="52" y1="7.3" x2="800" y2="7.3" stroke="#e8e8e8" stroke-width="1"/>

  <!-- area fill -->
  <path d="M52.0,232.0 L52.0,232.0 L74.7,231.1 L97.3,229.3 L120.0,231.1 L142.7,229.3 L165.3,232.0 L188.0,232.0 L210.7,232.0 L233.3,231.1 L256.0,232.0 L278.7,232.0 L301.3,232.0 L324.0,232.0 L346.7,231.1 L369.3,232.0 L392.0,232.0 L414.7,232.0 L437.3,117.9 L460.0,28.0 L482.7,222.1 L505.3,227.5 L528.0,229.3 L550.7,228.4 L573.3,231.1 L596.0,231.1 L618.7,230.2 L641.3,221.2 L664.0,232.0 L686.7,228.4 L709.3,231.1 L732.0,229.3 L754.7,224.8 L777.3,232.0 L800.0,232.0 L800.0,232.0 L52.0,232.0Z" fill="#4e79a7" opacity="0.12"/>

  <!-- lines -->
  <polyline points="52.0,232.0 74.7,231.1 97.3,229.3 120.0,231.1 142.7,229.3 165.3,232.0 188.0,232.0 210.7,232.0 233.3,231.1 256.0,232.0 278.7,232.0 301.3,232.0 324.0,232.0 346.7,231.1 369.3,232.0 392.0,232.0 414.7,232.0 437.3,117.9 460.0,28.0 482.7,222.1 505.3,227.5 528.0,229.3 550.7,228.4 573.3,231.1 596.0,231.1 618.7,230.2 641.3,221.2 664.0,232.0 686.7,228.4 709.3,231.1 732.0,229.3 754.7,224.8 777.3,232.0 800.0,232.0"
            fill="none" stroke="#4e79a7"
            stroke-width="2" stroke-linejoin="round"/>
  <polyline points="52.0,232.0 74.7,231.1 97.3,229.3 120.0,231.1 142.7,229.3 165.3,232.0 188.0,232.0 210.7,232.0 233.3,231.1 256.0,232.0 278.7,232.0 301.3,232.0 324.0,232.0 346.7,231.1 369.3,232.0 392.0,232.0 414.7,232.0 437.3,180.8 460.0,162.8 482.7,229.3 505.3,230.2 528.0,230.2 550.7,228.4 573.3,231.1 596.0,231.1 618.7,230.2 641.3,230.2 664.0,232.0 686.7,228.4 709.3,231.1 732.0,229.3 754.7,224.8 777.3,232.0 800.0,232.0"
            fill="none" stroke="#f28e2b"
            stroke-width="2" stroke-linejoin="round"
            stroke-dasharray="5,3"/>

  <!-- dots -->
  <circle cx="52.0" cy="232.0" r="3" fill="#4e79a7"/><circle cx="74.7" cy="231.1" r="3" fill="#4e79a7"/><circle cx="97.3" cy="229.3" r="3" fill="#4e79a7"/><circle cx="120.0" cy="231.1" r="3" fill="#4e79a7"/><circle cx="142.7" cy="229.3" r="3" fill="#4e79a7"/><circle cx="165.3" cy="232.0" r="3" fill="#4e79a7"/><circle cx="188.0" cy="232.0" r="3" fill="#4e79a7"/><circle cx="210.7" cy="232.0" r="3" fill="#4e79a7"/><circle cx="233.3" cy="231.1" r="3" fill="#4e79a7"/><circle cx="256.0" cy="232.0" r="3" fill="#4e79a7"/><circle cx="278.7" cy="232.0" r="3" fill="#4e79a7"/><circle cx="301.3" cy="232.0" r="3" fill="#4e79a7"/><circle cx="324.0" cy="232.0" r="3" fill="#4e79a7"/><circle cx="346.7" cy="231.1" r="3" fill="#4e79a7"/><circle cx="369.3" cy="232.0" r="3" fill="#4e79a7"/><circle cx="392.0" cy="232.0" r="3" fill="#4e79a7"/><circle cx="414.7" cy="232.0" r="3" fill="#4e79a7"/><circle cx="437.3" cy="117.9" r="3" fill="#4e79a7"/><circle cx="460.0" cy="28.0" r="3" fill="#4e79a7"/><circle cx="482.7" cy="222.1" r="3" fill="#4e79a7"/><circle cx="505.3" cy="227.5" r="3" fill="#4e79a7"/><circle cx="528.0" cy="229.3" r="3" fill="#4e79a7"/><circle cx="550.7" cy="228.4" r="3" fill="#4e79a7"/><circle cx="573.3" cy="231.1" r="3" fill="#4e79a7"/><circle cx="596.0" cy="231.1" r="3" fill="#4e79a7"/><circle cx="618.7" cy="230.2" r="3" fill="#4e79a7"/><circle cx="641.3" cy="221.2" r="3" fill="#4e79a7"/><circle cx="664.0" cy="232.0" r="3" fill="#4e79a7"/><circle cx="686.7" cy="228.4" r="3" fill="#4e79a7"/><circle cx="709.3" cy="231.1" r="3" fill="#4e79a7"/><circle cx="732.0" cy="229.3" r="3" fill="#4e79a7"/><circle cx="754.7" cy="224.8" r="3" fill="#4e79a7"/><circle cx="777.3" cy="232.0" r="3" fill="#4e79a7"/><circle cx="800.0" cy="232.0" r="3" fill="#4e79a7"/>
  <circle cx="52.0" cy="232.0" r="3" fill="#f28e2b"/><circle cx="74.7" cy="231.1" r="3" fill="#f28e2b"/><circle cx="97.3" cy="229.3" r="3" fill="#f28e2b"/><circle cx="120.0" cy="231.1" r="3" fill="#f28e2b"/><circle cx="142.7" cy="229.3" r="3" fill="#f28e2b"/><circle cx="165.3" cy="232.0" r="3" fill="#f28e2b"/><circle cx="188.0" cy="232.0" r="3" fill="#f28e2b"/><circle cx="210.7" cy="232.0" r="3" fill="#f28e2b"/><circle cx="233.3" cy="231.1" r="3" fill="#f28e2b"/><circle cx="256.0" cy="232.0" r="3" fill="#f28e2b"/><circle cx="278.7" cy="232.0" r="3" fill="#f28e2b"/><circle cx="301.3" cy="232.0" r="3" fill="#f28e2b"/><circle cx="324.0" cy="232.0" r="3" fill="#f28e2b"/><circle cx="346.7" cy="231.1" r="3" fill="#f28e2b"/><circle cx="369.3" cy="232.0" r="3" fill="#f28e2b"/><circle cx="392.0" cy="232.0" r="3" fill="#f28e2b"/><circle cx="414.7" cy="232.0" r="3" fill="#f28e2b"/><circle cx="437.3" cy="180.8" r="3" fill="#f28e2b"/><circle cx="460.0" cy="162.8" r="3" fill="#f28e2b"/><circle cx="482.7" cy="229.3" r="3" fill="#f28e2b"/><circle cx="505.3" cy="230.2" r="3" fill="#f28e2b"/><circle cx="528.0" cy="230.2" r="3" fill="#f28e2b"/><circle cx="550.7" cy="228.4" r="3" fill="#f28e2b"/><circle cx="573.3" cy="231.1" r="3" fill="#f28e2b"/><circle cx="596.0" cy="231.1" r="3" fill="#f28e2b"/><circle cx="618.7" cy="230.2" r="3" fill="#f28e2b"/><circle cx="641.3" cy="230.2" r="3" fill="#f28e2b"/><circle cx="664.0" cy="232.0" r="3" fill="#f28e2b"/><circle cx="686.7" cy="228.4" r="3" fill="#f28e2b"/><circle cx="709.3" cy="231.1" r="3" fill="#f28e2b"/><circle cx="732.0" cy="229.3" r="3" fill="#f28e2b"/><circle cx="754.7" cy="224.8" r="3" fill="#f28e2b"/><circle cx="777.3" cy="232.0" r="3" fill="#f28e2b"/><circle cx="800.0" cy="232.0" r="3" fill="#f28e2b"/>

  <!-- axes -->
  <line x1="52" y1="28" x2="52" y2="232"
        stroke="#cccccc" stroke-width="1"/>
  <line x1="52" y1="232" x2="800" y2="232"
        stroke="#cccccc" stroke-width="1"/>

  <!-- y-axis labels -->
  <text x="47" y="236.0" text-anchor="end" font-size="10" fill="#57606a" font-family="ui-monospace, SFMono-Regular, 'SF Mono', Menlo, monospace">0</text><text x="47" y="191.1" text-anchor="end" font-size="10" fill="#57606a" font-family="ui-monospace, SFMono-Regular, 'SF Mono', Menlo, monospace">50</text><text x="47" y="146.1" text-anchor="end" font-size="10" fill="#57606a" font-family="ui-monospace, SFMono-Regular, 'SF Mono', Menlo, monospace">100</text><text x="47" y="101.2" text-anchor="end" font-size="10" fill="#57606a" font-family="ui-monospace, SFMono-Regular, 'SF Mono', Menlo, monospace">150</text><text x="47" y="56.3" text-anchor="end" font-size="10" fill="#57606a" font-family="ui-monospace, SFMono-Regular, 'SF Mono', Menlo, monospace">200</text><text x="47" y="11.3" text-anchor="end" font-size="10" fill="#57606a" font-family="ui-monospace, SFMono-Regular, 'SF Mono', Menlo, monospace">250</text>

  <!-- x-axis labels -->
  <text x="52.0" y="248" text-anchor="middle" font-size="10" fill="#8c959f" font-family="ui-monospace, SFMono-Regular, 'SF Mono', Menlo, monospace">05-11</text><text x="777.3" y="248" text-anchor="middle" font-size="10" fill="#8c959f" font-family="ui-monospace, SFMono-Regular, 'SF Mono', Menlo, monospace">06-12</text><text x="800.0" y="248" text-anchor="middle" font-size="10" fill="#8c959f" font-family="ui-monospace, SFMono-Regular, 'SF Mono', Menlo, monospace">06-13</text><text x="142.7" y="248" text-anchor="middle" font-size="10" fill="#8c959f" font-family="ui-monospace, SFMono-Regular, 'SF Mono', Menlo, monospace">05-15</text><text x="233.3" y="248" text-anchor="middle" font-size="10" fill="#8c959f" font-family="ui-monospace, SFMono-Regular, 'SF Mono', Menlo, monospace">05-19</text><text x="324.0" y="248" text-anchor="middle" font-size="10" fill="#8c959f" font-family="ui-monospace, SFMono-Regular, 'SF Mono', Menlo, monospace">05-23</text><text x="414.7" y="248" text-anchor="middle" font-size="10" fill="#8c959f" font-family="ui-monospace, SFMono-Regular, 'SF Mono', Menlo, monospace">05-27</text><text x="505.3" y="248" text-anchor="middle" font-size="10" fill="#8c959f" font-family="ui-monospace, SFMono-Regular, 'SF Mono', Menlo, monospace">05-31</text><text x="596.0" y="248" text-anchor="middle" font-size="10" fill="#8c959f" font-family="ui-monospace, SFMono-Regular, 'SF Mono', Menlo, monospace">06-04</text><text x="686.7" y="248" text-anchor="middle" font-size="10" fill="#8c959f" font-family="ui-monospace, SFMono-Regular, 'SF Mono', Menlo, monospace">06-08</text>

  <!-- legend -->
  <rect x="60" y="262" width="16" height="3" fill="#4e79a7" rx="1"/><text x="80" y="268" font-size="11" fill="#57606a" font-family="-apple-system, BlinkMacSystemFont, 'Segoe UI', sans-serif">Total clones (419)</text><line x1="230" y1="264" x2="246" y2="264" stroke="#f28e2b" stroke-width="2" stroke-dasharray="5,3"/><text x="250" y="268" font-size="11" fill="#57606a" font-family="-apple-system, BlinkMacSystemFont, 'Segoe UI', sans-serif">Unique cloners</text>

</svg>