<svg xmlns="http://www.w3.org/2000/svg" viewBox="0 0 820 280" width="820" height="280">

  <!-- title -->
  <text x="52" y="18" font-size="13" font-weight="600"
        fill="#24292f" font-family="-apple-system, BlinkMacSystemFont, 'Segoe UI', sans-serif"
        >Clone traffic — image-view</text>
  <text x="800" y="18" font-size="10" fill="#8c959f"
        font-family="ui-monospace, SFMono-Regular, 'SF Mono', Menlo, monospace" text-anchor="end">2026-07-19</text>

  <!-- grid -->
  <line x1="52" y1="232.0" x2="800" y2="232.0" stroke="#e8e8e8" stroke-width="1"/><line x1="52" y1="187.1" x2="800" y2="187.1" stroke="#e8e8e8" stroke-width="1"/><line x1="52" y1="142.1" x2="800" y2="142.1" stroke="#e8e8e8" stroke-width="1"/><line x1="52" y1="97.2" x2="800" y2="97.2" stroke="#e8e8e8" stroke-width="1"/><line x1="52" y1="52.3" x2="800" y2="52.3" stroke="#e8e8e8" stroke-width="1"/><line x1="52" y1="7.3" x2="800" y2="7.3" stroke="#e8e8e8" stroke-width="1"/>

  <!-- area fill -->
  <path d="M52.0,232.0 L52.0,232.0 L63.2,231.1 L74.3,229.3 L85.5,231.1 L96.7,229.3 L107.8,232.0 L119.0,232.0 L130.1,232.0 L141.3,231.1 L152.5,232.0 L163.6,232.0 L174.8,232.0 L186.0,232.0 L197.1,231.1 L208.3,232.0 L219.5,232.0 L230.6,232.0 L241.8,117.9 L253.0,28.0 L264.1,222.1 L275.3,227.5 L286.4,229.3 L297.6,228.4 L308.8,231.1 L319.9,231.1 L331.1,230.2 L342.3,221.2 L353.4,232.0 L364.6,228.4 L375.8,231.1 L386.9,229.3 L398.1,224.8 L409.3,232.0 L420.4,232.0 L431.6,232.0 L442.7,205.0 L453.9,229.3 L465.1,232.0 L476.2,130.4 L487.4,229.3 L498.6,232.0 L509.7,232.0 L520.9,230.2 L532.1,231.1 L543.2,231.1 L554.4,230.2 L565.6,230.2 L576.7,232.0 L587.9,232.0 L599.0,231.1 L610.2,232.0 L621.4,231.1 L632.5,232.0 L643.7,232.0 L654.9,223.9 L666.0,226.6 L677.2,231.1 L688.4,232.0 L699.5,231.1 L710.7,231.1 L721.9,231.1 L733.0,231.1 L744.2,232.0 L755.3,232.0 L766.5,230.2 L777.7,232.0 L788.8,232.0 L800.0,230.2 L800.0,232.0 L52.0,232.0Z" fill="#4e79a7" opacity="0.12"/>

  <!-- lines -->
  <polyline points="52.0,232.0 63.2,231.1 74.3,229.3 85.5,231.1 96.7,229.3 107.8,232.0 119.0,232.0 130.1,232.0 141.3,231.1 152.5,232.0 163.6,232.0 174.8,232.0 186.0,232.0 197.1,231.1 208.3,232.0 219.5,232.0 230.6,232.0 241.8,117.9 253.0,28.0 264.1,222.1 275.3,227.5 286.4,229.3 297.6,228.4 308.8,231.1 319.9,231.1 331.1,230.2 342.3,221.2 353.4,232.0 364.6,228.4 375.8,231.1 386.9,229.3 398.1,224.8 409.3,232.0 420.4,232.0 431.6,232.0 442.7,205.0 453.9,229.3 465.1,232.0 476.2,130.4 487.4,229.3 498.6,232.0 509.7,232.0 520.9,230.2 532.1,231.1 543.2,231.1 554.4,230.2 565.6,230.2 576.7,232.0 587.9,232.0 599.0,231.1 610.2,232.0 621.4,231.1 632.5,232.0 643.7,232.0 654.9,223.9 666.0,226.6 677.2,231.1 688.4,232.0 699.5,231.1 710.7,231.1 721.9,231.1 733.0,231.1 744.2,232.0 755.3,232.0 766.5,230.2 777.7,232.0 788.8,232.0 800.0,230.2"
            fill="none" stroke="#4e79a7"
            stroke-width="2" stroke-linejoin="round"/>
  <polyline points="52.0,232.0 63.2,231.1 74.3,229.3 85.5,231.1 96.7,229.3 107.8,232.0 119.0,232.0 130.1,232.0 141.3,231.1 152.5,232.0 163.6,232.0 174.8,232.0 186.0,232.0 197.1,231.1 208.3,232.0 219.5,232.0 230.6,232.0 241.8,180.8 253.0,162.8 264.1,229.3 275.3,230.2 286.4,230.2 297.6,228.4 308.8,231.1 319.9,231.1 331.1,230.2 342.3,230.2 353.4,232.0 364.6,228.4 375.8,231.1 386.9,229.3 398.1,224.8 409.3,232.0 420.4,232.0 431.6,232.0 442.7,222.1 453.9,229.3 465.1,232.0 476.2,214.0 487.4,229.3 498.6,232.0 509.7,232.0 520.9,230.2 532.1,231.1 543.2,231.1 554.4,230.2 565.6,230.2 576.7,232.0 587.9,232.0 599.0,231.1 610.2,232.0 621.4,231.1 632.5,232.0 643.7,232.0 654.9,224.8 666.0,226.6 677.2,231.1 688.4,232.0 699.5,231.1 710.7,231.1 721.9,231.1 733.0,231.1 744.2,232.0 755.3,232.0 766.5,230.2 777.7,232.0 788.8,232.0 800.0,230.2"
            fill="none" stroke="#f28e2b"
            stroke-width="2" stroke-linejoin="round"
            stroke-dasharray="5,3"/>

  <!-- dots -->
  <circle cx="52.0" cy="232.0" r="3" fill="#4e79a7"/><circle cx="63.2" cy="231.1" r="3" fill="#4e79a7"/><circle cx="74.3" cy="229.3" r="3" fill="#4e79a7"/><circle cx="85.5" cy="231.1" r="3" fill="#4e79a7"/><circle cx="96.7" cy="229.3" r="3" fill="#4e79a7"/><circle cx="107.8" cy="232.0" r="3" fill="#4e79a7"/><circle cx="119.0" cy="232.0" r="3" fill="#4e79a7"/><circle cx="130.1" cy="232.0" r="3" fill="#4e79a7"/><circle cx="141.3" cy="231.1" r="3" fill="#4e79a7"/><circle cx="152.5" cy="232.0" r="3" fill="#4e79a7"/><circle cx="163.6" cy="232.0" r="3" fill="#4e79a7"/><circle cx="174.8" cy="232.0" r="3" fill="#4e79a7"/><circle cx="186.0" cy="232.0" r="3" fill="#4e79a7"/><circle cx="197.1" cy="231.1" r="3" fill="#4e79a7"/><circle cx="208.3" cy="232.0" r="3" fill="#4e79a7"/><circle cx="219.5" cy="232.0" r="3" fill="#4e79a7"/><circle cx="230.6" cy="232.0" r="3" fill="#4e79a7"/><circle cx="241.8" cy="117.9" r="3" fill="#4e79a7"/><circle cx="253.0" cy="28.0" r="3" fill="#4e79a7"/><circle cx="264.1" cy="222.1" r="3" fill="#4e79a7"/><circle cx="275.3" cy="227.5" r="3" fill="#4e79a7"/><circle cx="286.4" cy="229.3" r="3" fill="#4e79a7"/><circle cx="297.6" cy="228.4" r="3" fill="#4e79a7"/><circle cx="308.8" cy="231.1" r="3" fill="#4e79a7"/><circle cx="319.9" cy="231.1" r="3" fill="#4e79a7"/><circle cx="331.1" cy="230.2" r="3" fill="#4e79a7"/><circle cx="342.3" cy="221.2" r="3" fill="#4e79a7"/><circle cx="353.4" cy="232.0" r="3" fill="#4e79a7"/><circle cx="364.6" cy="228.4" r="3" fill="#4e79a7"/><circle cx="375.8" cy="231.1" r="3" fill="#4e79a7"/><circle cx="386.9" cy="229.3" r="3" fill="#4e79a7"/><circle cx="398.1" cy="224.8" r="3" fill="#4e79a7"/><circle cx="409.3" cy="232.0" r="3" fill="#4e79a7"/><circle cx="420.4" cy="232.0" r="3" fill="#4e79a7"/><circle cx="431.6" cy="232.0" r="3" fill="#4e79a7"/><circle cx="442.7" cy="205.0" r="3" fill="#4e79a7"/><circle cx="453.9" cy="229.3" r="3" fill="#4e79a7"/><circle cx="465.1" cy="232.0" r="3" fill="#4e79a7"/><circle cx="476.2" cy="130.4" r="3" fill="#4e79a7"/><circle cx="487.4" cy="229.3" r="3" fill="#4e79a7"/><circle cx="498.6" cy="232.0" r="3" fill="#4e79a7"/><circle cx="509.7" cy="232.0" r="3" fill="#4e79a7"/><circle cx="520.9" cy="230.2" r="3" fill="#4e79a7"/><circle cx="532.1" cy="231.1" r="3" fill="#4e79a7"/><circle cx="543.2" cy="231.1" r="3" fill="#4e79a7"/><circle cx="554.4" cy="230.2" r="3" fill="#4e79a7"/><circle cx="565.6" cy="230.2" r="3" fill="#4e79a7"/><circle cx="576.7" cy="232.0" r="3" fill="#4e79a7"/><circle cx="587.9" cy="232.0" r="3" fill="#4e79a7"/><circle cx="599.0" cy="231.1" r="3" fill="#4e79a7"/><circle cx="610.2" cy="232.0" r="3" fill="#4e79a7"/><circle cx="621.4" cy="231.1" r="3" fill="#4e79a7"/><circle cx="632.5" cy="232.0" r="3" fill="#4e79a7"/><circle cx="643.7" cy="232.0" r="3" fill="#4e79a7"/><circle cx="654.9" cy="223.9" r="3" fill="#4e79a7"/><circle cx="666.0" cy="226.6" r="3" fill="#4e79a7"/><circle cx="677.2" cy="231.1" r="3" fill="#4e79a7"/><circle cx="688.4" cy="232.0" r="3" fill="#4e79a7"/><circle cx="699.5" cy="231.1" r="3" fill="#4e79a7"/><circle cx="710.7" cy="231.1" r="3" fill="#4e79a7"/><circle cx="721.9" cy="231.1" r="3" fill="#4e79a7"/><circle cx="733.0" cy="231.1" r="3" fill="#4e79a7"/><circle cx="744.2" cy="232.0" r="3" fill="#4e79a7"/><circle cx="755.3" cy="232.0" r="3" fill="#4e79a7"/><circle cx="766.5" cy="230.2" r="3" fill="#4e79a7"/><circle cx="777.7" cy="232.0" r="3" fill="#4e79a7"/><circle cx="788.8" cy="232.0" r="3" fill="#4e79a7"/><circle cx="800.0" cy="230.2" r="3" fill="#4e79a7"/>
  <circle cx="52.0" cy="232.0" r="3" fill="#f28e2b"/><circle cx="63.2" cy="231.1" r="3" fill="#f28e2b"/><circle cx="74.3" cy="229.3" r="3" fill="#f28e2b"/><circle cx="85.5" cy="231.1" r="3" fill="#f28e2b"/><circle cx="96.7" cy="229.3" r="3" fill="#f28e2b"/><circle cx="107.8" cy="232.0" r="3" fill="#f28e2b"/><circle cx="119.0" cy="232.0" r="3" fill="#f28e2b"/><circle cx="130.1" cy="232.0" r="3" fill="#f28e2b"/><circle cx="141.3" cy="231.1" r="3" fill="#f28e2b"/><circle cx="152.5" cy="232.0" r="3" fill="#f28e2b"/><circle cx="163.6" cy="232.0" r="3" fill="#f28e2b"/><circle cx="174.8" cy="232.0" r="3" fill="#f28e2b"/><circle cx="186.0" cy="232.0" r="3" fill="#f28e2b"/><circle cx="197.1" cy="231.1" r="3" fill="#f28e2b"/><circle cx="208.3" cy="232.0" r="3" fill="#f28e2b"/><circle cx="219.5" cy="232.0" r="3" fill="#f28e2b"/><circle cx="230.6" cy="232.0" r="3" fill="#f28e2b"/><circle cx="241.8" cy="180.8" r="3" fill="#f28e2b"/><circle cx="253.0" cy="162.8" r="3" fill="#f28e2b"/><circle cx="264.1" cy="229.3" r="3" fill="#f28e2b"/><circle cx="275.3" cy="230.2" r="3" fill="#f28e2b"/><circle cx="286.4" cy="230.2" r="3" fill="#f28e2b"/><circle cx="297.6" cy="228.4" r="3" fill="#f28e2b"/><circle cx="308.8" cy="231.1" r="3" fill="#f28e2b"/><circle cx="319.9" cy="231.1" r="3" fill="#f28e2b"/><circle cx="331.1" cy="230.2" r="3" fill="#f28e2b"/><circle cx="342.3" cy="230.2" r="3" fill="#f28e2b"/><circle cx="353.4" cy="232.0" r="3" fill="#f28e2b"/><circle cx="364.6" cy="228.4" r="3" fill="#f28e2b"/><circle cx="375.8" cy="231.1" r="3" fill="#f28e2b"/><circle cx="386.9" cy="229.3" r="3" fill="#f28e2b"/><circle cx="398.1" cy="224.8" r="3" fill="#f28e2b"/><circle cx="409.3" cy="232.0" r="3" fill="#f28e2b"/><circle cx="420.4" cy="232.0" r="3" fill="#f28e2b"/><circle cx="431.6" cy="232.0" r="3" fill="#f28e2b"/><circle cx="442.7" cy="222.1" r="3" fill="#f28e2b"/><circle cx="453.9" cy="229.3" r="3" fill="#f28e2b"/><circle cx="465.1" cy="232.0" r="3" fill="#f28e2b"/><circle cx="476.2" cy="214.0" r="3" fill="#f28e2b"/><circle cx="487.4" cy="229.3" r="3" fill="#f28e2b"/><circle cx="498.6" cy="232.0" r="3" fill="#f28e2b"/><circle cx="509.7" cy="232.0" r="3" fill="#f28e2b"/><circle cx="520.9" cy="230.2" r="3" fill="#f28e2b"/><circle cx="532.1" cy="231.1" r="3" fill="#f28e2b"/><circle cx="543.2" cy="231.1" r="3" fill="#f28e2b"/><circle cx="554.4" cy="230.2" r="3" fill="#f28e2b"/><circle cx="565.6" cy="230.2" r="3" fill="#f28e2b"/><circle cx="576.7" cy="232.0" r="3" fill="#f28e2b"/><circle cx="587.9" cy="232.0" r="3" fill="#f28e2b"/><circle cx="599.0" cy="231.1" r="3" fill="#f28e2b"/><circle cx="610.2" cy="232.0" r="3" fill="#f28e2b"/><circle cx="621.4" cy="231.1" r="3" fill="#f28e2b"/><circle cx="632.5" cy="232.0" r="3" fill="#f28e2b"/><circle cx="643.7" cy="232.0" r="3" fill="#f28e2b"/><circle cx="654.9" cy="224.8" r="3" fill="#f28e2b"/><circle cx="666.0" cy="226.6" r="3" fill="#f28e2b"/><circle cx="677.2" cy="231.1" r="3" fill="#f28e2b"/><circle cx="688.4" cy="232.0" r="3" fill="#f28e2b"/><circle cx="699.5" cy="231.1" r="3" fill="#f28e2b"/><circle cx="710.7" cy="231.1" r="3" fill="#f28e2b"/><circle cx="721.9" cy="231.1" r="3" fill="#f28e2b"/><circle cx="733.0" cy="231.1" r="3" fill="#f28e2b"/><circle cx="744.2" cy="232.0" r="3" fill="#f28e2b"/><circle cx="755.3" cy="232.0" r="3" fill="#f28e2b"/><circle cx="766.5" cy="230.2" r="3" fill="#f28e2b"/><circle cx="777.7" cy="232.0" r="3" fill="#f28e2b"/><circle cx="788.8" cy="232.0" r="3" fill="#f28e2b"/><circle cx="800.0" cy="230.2" r="3" fill="#f28e2b"/>

  <!-- axes -->
  <line x1="52" y1="28" x2="52" y2="232"
        stroke="#cccccc" stroke-width="1"/>
  <line x1="52" y1="232" x2="800" y2="232"
        stroke="#cccccc" stroke-width="1"/>

  <!-- y-axis labels -->
  <text x="47" y="236.0" text-anchor="end" font-size="10" fill="#57606a" font-family="ui-monospace, SFMono-Regular, 'SF Mono', Menlo, monospace">0</text><text x="47" y="191.1" text-anchor="end" font-size="10" fill="#57606a" font-family="ui-monospace, SFMono-Regular, 'SF Mono', Menlo, monospace">50</text><text x="47" y="146.1" text-anchor="end" font-size="10" fill="#57606a" font-family="ui-monospace, SFMono-Regular, 'SF Mono', Menlo, monospace">100</text><text x="47" y="101.2" text-anchor="end" font-size="10" fill="#57606a" font-family="ui-monospace, SFMono-Regular, 'SF Mono', Menlo, monospace">150</text><text x="47" y="56.3" text-anchor="end" font-size="10" fill="#57606a" font-family="ui-monospace, SFMono-Regular, 'SF Mono', Menlo, monospace">200</text><text x="47" y="11.3" text-anchor="end" font-size="10" fill="#57606a" font-family="ui-monospace, SFMono-Regular, 'SF Mono', Menlo, monospace">250</text>

  <!-- x-axis labels -->
  <text x="52.0" y="248" text-anchor="middle" font-size="10" fill="#8c959f" font-family="ui-monospace, SFMono-Regular, 'SF Mono', Menlo, monospace">05-11</text><text x="409.3" y="248" text-anchor="middle" font-size="10" fill="#8c959f" font-family="ui-monospace, SFMono-Regular, 'SF Mono', Menlo, monospace">06-12</text><text x="766.5" y="248" text-anchor="middle" font-size="10" fill="#8c959f" font-family="ui-monospace, SFMono-Regular, 'SF Mono', Menlo, monospace">07-14</text><text x="800.0" y="248" text-anchor="middle" font-size="10" fill="#8c959f" font-family="ui-monospace, SFMono-Regular, 'SF Mono', Menlo, monospace">07-17</text><text x="141.3" y="248" text-anchor="middle" font-size="10" fill="#8c959f" font-family="ui-monospace, SFMono-Regular, 'SF Mono', Menlo, monospace">05-19</text><text x="498.6" y="248" text-anchor="middle" font-size="10" fill="#8c959f" font-family="ui-monospace, SFMono-Regular, 'SF Mono', Menlo, monospace">06-20</text><text x="230.6" y="248" text-anchor="middle" font-size="10" fill="#8c959f" font-family="ui-monospace, SFMono-Regular, 'SF Mono', Menlo, monospace">05-27</text><text x="587.9" y="248" text-anchor="middle" font-size="10" fill="#8c959f" font-family="ui-monospace, SFMono-Regular, 'SF Mono', Menlo, monospace">06-28</text><text x="319.9" y="248" text-anchor="middle" font-size="10" fill="#8c959f" font-family="ui-monospace, SFMono-Regular, 'SF Mono', Menlo, monospace">06-04</text><text x="677.2" y="248" text-anchor="middle" font-size="10" fill="#8c959f" font-family="ui-monospace, SFMono-Regular, 'SF Mono', Menlo, monospace">07-06</text>

  <!-- legend -->
  <rect x="60" y="262" width="16" height="3" fill="#4e79a7" rx="1"/><text x="80" y="268" font-size="11" fill="#57606a" font-family="-apple-system, BlinkMacSystemFont, 'Segoe UI', sans-serif">Total clones (602)</text><line x1="230" y1="264" x2="246" y2="264" stroke="#f28e2b" stroke-width="2" stroke-dasharray="5,3"/><text x="250" y="268" font-size="11" fill="#57606a" font-family="-apple-system, BlinkMacSystemFont, 'Segoe UI', sans-serif">Unique cloners</text>

</svg>