<svg xmlns="http://www.w3.org/2000/svg" viewBox="0 0 820 280" width="820" height="280">

  <!-- title -->
  <text x="52" y="18" font-size="13" font-weight="600"
        fill="#24292f" font-family="-apple-system, BlinkMacSystemFont, 'Segoe UI', sans-serif"
        >Clone traffic — image-view</text>
  <text x="800" y="18" font-size="10" fill="#8c959f"
        font-family="ui-monospace, SFMono-Regular, 'SF Mono', Menlo, monospace" text-anchor="end">2026-07-18</text>

  <!-- grid -->
  <line x1="52" y1="232.0" x2="800" y2="232.0" stroke="#e8e8e8" stroke-width="1"/><line x1="52" y1="187.1" x2="800" y2="187.1" stroke="#e8e8e8" stroke-width="1"/><line x1="52" y1="142.1" x2="800" y2="142.1" stroke="#e8e8e8" stroke-width="1"/><line x1="52" y1="97.2" x2="800" y2="97.2" stroke="#e8e8e8" stroke-width="1"/><line x1="52" y1="52.3" x2="800" y2="52.3" stroke="#e8e8e8" stroke-width="1"/><line x1="52" y1="7.3" x2="800" y2="7.3" stroke="#e8e8e8" stroke-width="1"/>

  <!-- area fill -->
  <path d="M52.0,232.0 L52.0,232.0 L63.3,231.1 L74.7,229.3 L86.0,231.1 L97.3,229.3 L108.7,232.0 L120.0,232.0 L131.3,232.0 L142.7,231.1 L154.0,232.0 L165.3,232.0 L176.7,232.0 L188.0,232.0 L199.3,231.1 L210.7,232.0 L222.0,232.0 L233.3,232.0 L244.7,117.9 L256.0,28.0 L267.3,222.1 L278.7,227.5 L290.0,229.3 L301.3,228.4 L312.7,231.1 L324.0,231.1 L335.3,230.2 L346.7,221.2 L358.0,232.0 L369.3,228.4 L380.7,231.1 L392.0,229.3 L403.3,224.8 L414.7,232.0 L426.0,232.0 L437.3,232.0 L448.7,205.0 L460.0,229.3 L471.3,232.0 L482.7,130.4 L494.0,229.3 L505.3,232.0 L516.7,232.0 L528.0,230.2 L539.3,231.1 L550.7,231.1 L562.0,230.2 L573.3,230.2 L584.7,232.0 L596.0,232.0 L607.3,231.1 L618.7,232.0 L630.0,231.1 L641.3,232.0 L652.7,232.0 L664.0,223.9 L675.3,226.6 L686.7,231.1 L698.0,232.0 L709.3,231.1 L720.7,231.1 L732.0,231.1 L743.3,231.1 L754.7,232.0 L766.0,232.0 L777.3,230.2 L788.7,232.0 L800.0,232.0 L800.0,232.0 L52.0,232.0Z" fill="#4e79a7" opacity="0.12"/>

  <!-- lines -->
  <polyline points="52.0,232.0 63.3,231.1 74.7,229.3 86.0,231.1 97.3,229.3 108.7,232.0 120.0,232.0 131.3,232.0 142.7,231.1 154.0,232.0 165.3,232.0 176.7,232.0 188.0,232.0 199.3,231.1 210.7,232.0 222.0,232.0 233.3,232.0 244.7,117.9 256.0,28.0 267.3,222.1 278.7,227.5 290.0,229.3 301.3,228.4 312.7,231.1 324.0,231.1 335.3,230.2 346.7,221.2 358.0,232.0 369.3,228.4 380.7,231.1 392.0,229.3 403.3,224.8 414.7,232.0 426.0,232.0 437.3,232.0 448.7,205.0 460.0,229.3 471.3,232.0 482.7,130.4 494.0,229.3 505.3,232.0 516.7,232.0 528.0,230.2 539.3,231.1 550.7,231.1 562.0,230.2 573.3,230.2 584.7,232.0 596.0,232.0 607.3,231.1 618.7,232.0 630.0,231.1 641.3,232.0 652.7,232.0 664.0,223.9 675.3,226.6 686.7,231.1 698.0,232.0 709.3,231.1 720.7,231.1 732.0,231.1 743.3,231.1 754.7,232.0 766.0,232.0 777.3,230.2 788.7,232.0 800.0,232.0"
            fill="none" stroke="#4e79a7"
            stroke-width="2" stroke-linejoin="round"/>
  <polyline points="52.0,232.0 63.3,231.1 74.7,229.3 86.0,231.1 97.3,229.3 108.7,232.0 120.0,232.0 131.3,232.0 142.7,231.1 154.0,232.0 165.3,232.0 176.7,232.0 188.0,232.0 199.3,231.1 210.7,232.0 222.0,232.0 233.3,232.0 244.7,180.8 256.0,162.8 267.3,229.3 278.7,230.2 290.0,230.2 301.3,228.4 312.7,231.1 324.0,231.1 335.3,230.2 346.7,230.2 358.0,232.0 369.3,228.4 380.7,231.1 392.0,229.3 403.3,224.8 414.7,232.0 426.0,232.0 437.3,232.0 448.7,222.1 460.0,229.3 471.3,232.0 482.7,214.0 494.0,229.3 505.3,232.0 516.7,232.0 528.0,230.2 539.3,231.1 550.7,231.1 562.0,230.2 573.3,230.2 584.7,232.0 596.0,232.0 607.3,231.1 618.7,232.0 630.0,231.1 641.3,232.0 652.7,232.0 664.0,224.8 675.3,226.6 686.7,231.1 698.0,232.0 709.3,231.1 720.7,231.1 732.0,231.1 743.3,231.1 754.7,232.0 766.0,232.0 777.3,230.2 788.7,232.0 800.0,232.0"
            fill="none" stroke="#f28e2b"
            stroke-width="2" stroke-linejoin="round"
            stroke-dasharray="5,3"/>

  <!-- dots -->
  <circle cx="52.0" cy="232.0" r="3" fill="#4e79a7"/><circle cx="63.3" cy="231.1" r="3" fill="#4e79a7"/><circle cx="74.7" cy="229.3" r="3" fill="#4e79a7"/><circle cx="86.0" cy="231.1" r="3" fill="#4e79a7"/><circle cx="97.3" cy="229.3" r="3" fill="#4e79a7"/><circle cx="108.7" cy="232.0" r="3" fill="#4e79a7"/><circle cx="120.0" cy="232.0" r="3" fill="#4e79a7"/><circle cx="131.3" cy="232.0" r="3" fill="#4e79a7"/><circle cx="142.7" cy="231.1" r="3" fill="#4e79a7"/><circle cx="154.0" cy="232.0" r="3" fill="#4e79a7"/><circle cx="165.3" cy="232.0" r="3" fill="#4e79a7"/><circle cx="176.7" cy="232.0" r="3" fill="#4e79a7"/><circle cx="188.0" cy="232.0" r="3" fill="#4e79a7"/><circle cx="199.3" cy="231.1" r="3" fill="#4e79a7"/><circle cx="210.7" cy="232.0" r="3" fill="#4e79a7"/><circle cx="222.0" cy="232.0" r="3" fill="#4e79a7"/><circle cx="233.3" cy="232.0" r="3" fill="#4e79a7"/><circle cx="244.7" cy="117.9" r="3" fill="#4e79a7"/><circle cx="256.0" cy="28.0" r="3" fill="#4e79a7"/><circle cx="267.3" cy="222.1" r="3" fill="#4e79a7"/><circle cx="278.7" cy="227.5" r="3" fill="#4e79a7"/><circle cx="290.0" cy="229.3" r="3" fill="#4e79a7"/><circle cx="301.3" cy="228.4" r="3" fill="#4e79a7"/><circle cx="312.7" cy="231.1" r="3" fill="#4e79a7"/><circle cx="324.0" cy="231.1" r="3" fill="#4e79a7"/><circle cx="335.3" cy="230.2" r="3" fill="#4e79a7"/><circle cx="346.7" cy="221.2" r="3" fill="#4e79a7"/><circle cx="358.0" cy="232.0" r="3" fill="#4e79a7"/><circle cx="369.3" cy="228.4" r="3" fill="#4e79a7"/><circle cx="380.7" cy="231.1" r="3" fill="#4e79a7"/><circle cx="392.0" cy="229.3" r="3" fill="#4e79a7"/><circle cx="403.3" cy="224.8" r="3" fill="#4e79a7"/><circle cx="414.7" cy="232.0" r="3" fill="#4e79a7"/><circle cx="426.0" cy="232.0" r="3" fill="#4e79a7"/><circle cx="437.3" cy="232.0" r="3" fill="#4e79a7"/><circle cx="448.7" cy="205.0" r="3" fill="#4e79a7"/><circle cx="460.0" cy="229.3" r="3" fill="#4e79a7"/><circle cx="471.3" cy="232.0" r="3" fill="#4e79a7"/><circle cx="482.7" cy="130.4" r="3" fill="#4e79a7"/><circle cx="494.0" cy="229.3" r="3" fill="#4e79a7"/><circle cx="505.3" cy="232.0" r="3" fill="#4e79a7"/><circle cx="516.7" cy="232.0" r="3" fill="#4e79a7"/><circle cx="528.0" cy="230.2" r="3" fill="#4e79a7"/><circle cx="539.3" cy="231.1" r="3" fill="#4e79a7"/><circle cx="550.7" cy="231.1" r="3" fill="#4e79a7"/><circle cx="562.0" cy="230.2" r="3" fill="#4e79a7"/><circle cx="573.3" cy="230.2" r="3" fill="#4e79a7"/><circle cx="584.7" cy="232.0" r="3" fill="#4e79a7"/><circle cx="596.0" cy="232.0" r="3" fill="#4e79a7"/><circle cx="607.3" cy="231.1" r="3" fill="#4e79a7"/><circle cx="618.7" cy="232.0" r="3" fill="#4e79a7"/><circle cx="630.0" cy="231.1" r="3" fill="#4e79a7"/><circle cx="641.3" cy="232.0" r="3" fill="#4e79a7"/><circle cx="652.7" cy="232.0" r="3" fill="#4e79a7"/><circle cx="664.0" cy="223.9" r="3" fill="#4e79a7"/><circle cx="675.3" cy="226.6" r="3" fill="#4e79a7"/><circle cx="686.7" cy="231.1" r="3" fill="#4e79a7"/><circle cx="698.0" cy="232.0" r="3" fill="#4e79a7"/><circle cx="709.3" cy="231.1" r="3" fill="#4e79a7"/><circle cx="720.7" cy="231.1" r="3" fill="#4e79a7"/><circle cx="732.0" cy="231.1" r="3" fill="#4e79a7"/><circle cx="743.3" cy="231.1" r="3" fill="#4e79a7"/><circle cx="754.7" cy="232.0" r="3" fill="#4e79a7"/><circle cx="766.0" cy="232.0" r="3" fill="#4e79a7"/><circle cx="777.3" cy="230.2" r="3" fill="#4e79a7"/><circle cx="788.7" cy="232.0" r="3" fill="#4e79a7"/><circle cx="800.0" cy="232.0" r="3" fill="#4e79a7"/>
  <circle cx="52.0" cy="232.0" r="3" fill="#f28e2b"/><circle cx="63.3" cy="231.1" r="3" fill="#f28e2b"/><circle cx="74.7" cy="229.3" r="3" fill="#f28e2b"/><circle cx="86.0" cy="231.1" r="3" fill="#f28e2b"/><circle cx="97.3" cy="229.3" r="3" fill="#f28e2b"/><circle cx="108.7" cy="232.0" r="3" fill="#f28e2b"/><circle cx="120.0" cy="232.0" r="3" fill="#f28e2b"/><circle cx="131.3" cy="232.0" r="3" fill="#f28e2b"/><circle cx="142.7" cy="231.1" r="3" fill="#f28e2b"/><circle cx="154.0" cy="232.0" r="3" fill="#f28e2b"/><circle cx="165.3" cy="232.0" r="3" fill="#f28e2b"/><circle cx="176.7" cy="232.0" r="3" fill="#f28e2b"/><circle cx="188.0" cy="232.0" r="3" fill="#f28e2b"/><circle cx="199.3" cy="231.1" r="3" fill="#f28e2b"/><circle cx="210.7" cy="232.0" r="3" fill="#f28e2b"/><circle cx="222.0" cy="232.0" r="3" fill="#f28e2b"/><circle cx="233.3" cy="232.0" r="3" fill="#f28e2b"/><circle cx="244.7" cy="180.8" r="3" fill="#f28e2b"/><circle cx="256.0" cy="162.8" r="3" fill="#f28e2b"/><circle cx="267.3" cy="229.3" r="3" fill="#f28e2b"/><circle cx="278.7" cy="230.2" r="3" fill="#f28e2b"/><circle cx="290.0" cy="230.2" r="3" fill="#f28e2b"/><circle cx="301.3" cy="228.4" r="3" fill="#f28e2b"/><circle cx="312.7" cy="231.1" r="3" fill="#f28e2b"/><circle cx="324.0" cy="231.1" r="3" fill="#f28e2b"/><circle cx="335.3" cy="230.2" r="3" fill="#f28e2b"/><circle cx="346.7" cy="230.2" r="3" fill="#f28e2b"/><circle cx="358.0" cy="232.0" r="3" fill="#f28e2b"/><circle cx="369.3" cy="228.4" r="3" fill="#f28e2b"/><circle cx="380.7" cy="231.1" r="3" fill="#f28e2b"/><circle cx="392.0" cy="229.3" r="3" fill="#f28e2b"/><circle cx="403.3" cy="224.8" r="3" fill="#f28e2b"/><circle cx="414.7" cy="232.0" r="3" fill="#f28e2b"/><circle cx="426.0" cy="232.0" r="3" fill="#f28e2b"/><circle cx="437.3" cy="232.0" r="3" fill="#f28e2b"/><circle cx="448.7" cy="222.1" r="3" fill="#f28e2b"/><circle cx="460.0" cy="229.3" r="3" fill="#f28e2b"/><circle cx="471.3" cy="232.0" r="3" fill="#f28e2b"/><circle cx="482.7" cy="214.0" r="3" fill="#f28e2b"/><circle cx="494.0" cy="229.3" r="3" fill="#f28e2b"/><circle cx="505.3" cy="232.0" r="3" fill="#f28e2b"/><circle cx="516.7" cy="232.0" r="3" fill="#f28e2b"/><circle cx="528.0" cy="230.2" r="3" fill="#f28e2b"/><circle cx="539.3" cy="231.1" r="3" fill="#f28e2b"/><circle cx="550.7" cy="231.1" r="3" fill="#f28e2b"/><circle cx="562.0" cy="230.2" r="3" fill="#f28e2b"/><circle cx="573.3" cy="230.2" r="3" fill="#f28e2b"/><circle cx="584.7" cy="232.0" r="3" fill="#f28e2b"/><circle cx="596.0" cy="232.0" r="3" fill="#f28e2b"/><circle cx="607.3" cy="231.1" r="3" fill="#f28e2b"/><circle cx="618.7" cy="232.0" r="3" fill="#f28e2b"/><circle cx="630.0" cy="231.1" r="3" fill="#f28e2b"/><circle cx="641.3" cy="232.0" r="3" fill="#f28e2b"/><circle cx="652.7" cy="232.0" r="3" fill="#f28e2b"/><circle cx="664.0" cy="224.8" r="3" fill="#f28e2b"/><circle cx="675.3" cy="226.6" r="3" fill="#f28e2b"/><circle cx="686.7" cy="231.1" r="3" fill="#f28e2b"/><circle cx="698.0" cy="232.0" r="3" fill="#f28e2b"/><circle cx="709.3" cy="231.1" r="3" fill="#f28e2b"/><circle cx="720.7" cy="231.1" r="3" fill="#f28e2b"/><circle cx="732.0" cy="231.1" r="3" fill="#f28e2b"/><circle cx="743.3" cy="231.1" r="3" fill="#f28e2b"/><circle cx="754.7" cy="232.0" r="3" fill="#f28e2b"/><circle cx="766.0" cy="232.0" r="3" fill="#f28e2b"/><circle cx="777.3" cy="230.2" r="3" fill="#f28e2b"/><circle cx="788.7" cy="232.0" r="3" fill="#f28e2b"/><circle cx="800.0" cy="232.0" r="3" fill="#f28e2b"/>

  <!-- axes -->
  <line x1="52" y1="28" x2="52" y2="232"
        stroke="#cccccc" stroke-width="1"/>
  <line x1="52" y1="232" x2="800" y2="232"
        stroke="#cccccc" stroke-width="1"/>

  <!-- y-axis labels -->
  <text x="47" y="236.0" text-anchor="end" font-size="10" fill="#57606a" font-family="ui-monospace, SFMono-Regular, 'SF Mono', Menlo, monospace">0</text><text x="47" y="191.1" text-anchor="end" font-size="10" fill="#57606a" font-family="ui-monospace, SFMono-Regular, 'SF Mono', Menlo, monospace">50</text><text x="47" y="146.1" text-anchor="end" font-size="10" fill="#57606a" font-family="ui-monospace, SFMono-Regular, 'SF Mono', Menlo, monospace">100</text><text x="47" y="101.2" text-anchor="end" font-size="10" fill="#57606a" font-family="ui-monospace, SFMono-Regular, 'SF Mono', Menlo, monospace">150</text><text x="47" y="56.3" text-anchor="end" font-size="10" fill="#57606a" font-family="ui-monospace, SFMono-Regular, 'SF Mono', Menlo, monospace">200</text><text x="47" y="11.3" text-anchor="end" font-size="10" fill="#57606a" font-family="ui-monospace, SFMono-Regular, 'SF Mono', Menlo, monospace">250</text>

  <!-- x-axis labels -->
  <text x="52.0" y="248" text-anchor="middle" font-size="10" fill="#8c959f" font-family="ui-monospace, SFMono-Regular, 'SF Mono', Menlo, monospace">05-11</text><text x="414.7" y="248" text-anchor="middle" font-size="10" fill="#8c959f" font-family="ui-monospace, SFMono-Regular, 'SF Mono', Menlo, monospace">06-12</text><text x="777.3" y="248" text-anchor="middle" font-size="10" fill="#8c959f" font-family="ui-monospace, SFMono-Regular, 'SF Mono', Menlo, monospace">07-14</text><text x="800.0" y="248" text-anchor="middle" font-size="10" fill="#8c959f" font-family="ui-monospace, SFMono-Regular, 'SF Mono', Menlo, monospace">07-16</text><text x="142.7" y="248" text-anchor="middle" font-size="10" fill="#8c959f" font-family="ui-monospace, SFMono-Regular, 'SF Mono', Menlo, monospace">05-19</text><text x="505.3" y="248" text-anchor="middle" font-size="10" fill="#8c959f" font-family="ui-monospace, SFMono-Regular, 'SF Mono', Menlo, monospace">06-20</text><text x="233.3" y="248" text-anchor="middle" font-size="10" fill="#8c959f" font-family="ui-monospace, SFMono-Regular, 'SF Mono', Menlo, monospace">05-27</text><text x="596.0" y="248" text-anchor="middle" font-size="10" fill="#8c959f" font-family="ui-monospace, SFMono-Regular, 'SF Mono', Menlo, monospace">06-28</text><text x="324.0" y="248" text-anchor="middle" font-size="10" fill="#8c959f" font-family="ui-monospace, SFMono-Regular, 'SF Mono', Menlo, monospace">06-04</text><text x="686.7" y="248" text-anchor="middle" font-size="10" fill="#8c959f" font-family="ui-monospace, SFMono-Regular, 'SF Mono', Menlo, monospace">07-06</text>

  <!-- legend -->
  <rect x="60" y="262" width="16" height="3" fill="#4e79a7" rx="1"/><text x="80" y="268" font-size="11" fill="#57606a" font-family="-apple-system, BlinkMacSystemFont, 'Segoe UI', sans-serif">Total clones (600)</text><line x1="230" y1="264" x2="246" y2="264" stroke="#f28e2b" stroke-width="2" stroke-dasharray="5,3"/><text x="250" y="268" font-size="11" fill="#57606a" font-family="-apple-system, BlinkMacSystemFont, 'Segoe UI', sans-serif">Unique cloners</text>

</svg>