<svg xmlns="http://www.w3.org/2000/svg" viewBox="0 0 820 280" width="820" height="280">

  <!-- title -->
  <text x="52" y="18" font-size="13" font-weight="600"
        fill="#24292f" font-family="-apple-system, BlinkMacSystemFont, 'Segoe UI', sans-serif"
        >Clone traffic — image-view</text>
  <text x="800" y="18" font-size="10" fill="#8c959f"
        font-family="ui-monospace, SFMono-Regular, 'SF Mono', Menlo, monospace" text-anchor="end">2026-06-21</text>

  <!-- grid -->
  <line x1="52" y1="232.0" x2="800" y2="232.0" stroke="#e8e8e8" stroke-width="1"/><line x1="52" y1="187.1" x2="800" y2="187.1" stroke="#e8e8e8" stroke-width="1"/><line x1="52" y1="142.1" x2="800" y2="142.1" stroke="#e8e8e8" stroke-width="1"/><line x1="52" y1="97.2" x2="800" y2="97.2" stroke="#e8e8e8" stroke-width="1"/><line x1="52" y1="52.3" x2="800" y2="52.3" stroke="#e8e8e8" stroke-width="1"/><line x1="52" y1="7.3" x2="800" y2="7.3" stroke="#e8e8e8" stroke-width="1"/>

  <!-- area fill -->
  <path d="M52.0,232.0 L52.0,232.0 L71.2,231.1 L90.4,229.3 L109.5,231.1 L128.7,229.3 L147.9,232.0 L167.1,232.0 L186.3,232.0 L205.4,231.1 L224.6,232.0 L243.8,232.0 L263.0,232.0 L282.2,232.0 L301.3,231.1 L320.5,232.0 L339.7,232.0 L358.9,232.0 L378.1,117.9 L397.2,28.0 L416.4,222.1 L435.6,227.5 L454.8,229.3 L473.9,228.4 L493.1,231.1 L512.3,231.1 L531.5,230.2 L550.7,221.2 L569.8,232.0 L589.0,228.4 L608.2,231.1 L627.4,229.3 L646.6,224.8 L665.7,232.0 L684.9,232.0 L704.1,232.0 L723.3,205.0 L742.5,229.3 L761.6,232.0 L780.8,130.4 L800.0,229.3 L800.0,232.0 L52.0,232.0Z" fill="#4e79a7" opacity="0.12"/>

  <!-- lines -->
  <polyline points="52.0,232.0 71.2,231.1 90.4,229.3 109.5,231.1 128.7,229.3 147.9,232.0 167.1,232.0 186.3,232.0 205.4,231.1 224.6,232.0 243.8,232.0 263.0,232.0 282.2,232.0 301.3,231.1 320.5,232.0 339.7,232.0 358.9,232.0 378.1,117.9 397.2,28.0 416.4,222.1 435.6,227.5 454.8,229.3 473.9,228.4 493.1,231.1 512.3,231.1 531.5,230.2 550.7,221.2 569.8,232.0 589.0,228.4 608.2,231.1 627.4,229.3 646.6,224.8 665.7,232.0 684.9,232.0 704.1,232.0 723.3,205.0 742.5,229.3 761.6,232.0 780.8,130.4 800.0,229.3"
            fill="none" stroke="#4e79a7"
            stroke-width="2" stroke-linejoin="round"/>
  <polyline points="52.0,232.0 71.2,231.1 90.4,229.3 109.5,231.1 128.7,229.3 147.9,232.0 167.1,232.0 186.3,232.0 205.4,231.1 224.6,232.0 243.8,232.0 263.0,232.0 282.2,232.0 301.3,231.1 320.5,232.0 339.7,232.0 358.9,232.0 378.1,180.8 397.2,162.8 416.4,229.3 435.6,230.2 454.8,230.2 473.9,228.4 493.1,231.1 512.3,231.1 531.5,230.2 550.7,230.2 569.8,232.0 589.0,228.4 608.2,231.1 627.4,229.3 646.6,224.8 665.7,232.0 684.9,232.0 704.1,232.0 723.3,222.1 742.5,229.3 761.6,232.0 780.8,214.0 800.0,229.3"
            fill="none" stroke="#f28e2b"
            stroke-width="2" stroke-linejoin="round"
            stroke-dasharray="5,3"/>

  <!-- dots -->
  <circle cx="52.0" cy="232.0" r="3" fill="#4e79a7"/><circle cx="71.2" cy="231.1" r="3" fill="#4e79a7"/><circle cx="90.4" cy="229.3" r="3" fill="#4e79a7"/><circle cx="109.5" cy="231.1" r="3" fill="#4e79a7"/><circle cx="128.7" cy="229.3" r="3" fill="#4e79a7"/><circle cx="147.9" cy="232.0" r="3" fill="#4e79a7"/><circle cx="167.1" cy="232.0" r="3" fill="#4e79a7"/><circle cx="186.3" cy="232.0" r="3" fill="#4e79a7"/><circle cx="205.4" cy="231.1" r="3" fill="#4e79a7"/><circle cx="224.6" cy="232.0" r="3" fill="#4e79a7"/><circle cx="243.8" cy="232.0" r="3" fill="#4e79a7"/><circle cx="263.0" cy="232.0" r="3" fill="#4e79a7"/><circle cx="282.2" cy="232.0" r="3" fill="#4e79a7"/><circle cx="301.3" cy="231.1" r="3" fill="#4e79a7"/><circle cx="320.5" cy="232.0" r="3" fill="#4e79a7"/><circle cx="339.7" cy="232.0" r="3" fill="#4e79a7"/><circle cx="358.9" cy="232.0" r="3" fill="#4e79a7"/><circle cx="378.1" cy="117.9" r="3" fill="#4e79a7"/><circle cx="397.2" cy="28.0" r="3" fill="#4e79a7"/><circle cx="416.4" cy="222.1" r="3" fill="#4e79a7"/><circle cx="435.6" cy="227.5" r="3" fill="#4e79a7"/><circle cx="454.8" cy="229.3" r="3" fill="#4e79a7"/><circle cx="473.9" cy="228.4" r="3" fill="#4e79a7"/><circle cx="493.1" cy="231.1" r="3" fill="#4e79a7"/><circle cx="512.3" cy="231.1" r="3" fill="#4e79a7"/><circle cx="531.5" cy="230.2" r="3" fill="#4e79a7"/><circle cx="550.7" cy="221.2" r="3" fill="#4e79a7"/><circle cx="569.8" cy="232.0" r="3" fill="#4e79a7"/><circle cx="589.0" cy="228.4" r="3" fill="#4e79a7"/><circle cx="608.2" cy="231.1" r="3" fill="#4e79a7"/><circle cx="627.4" cy="229.3" r="3" fill="#4e79a7"/><circle cx="646.6" cy="224.8" r="3" fill="#4e79a7"/><circle cx="665.7" cy="232.0" r="3" fill="#4e79a7"/><circle cx="684.9" cy="232.0" r="3" fill="#4e79a7"/><circle cx="704.1" cy="232.0" r="3" fill="#4e79a7"/><circle cx="723.3" cy="205.0" r="3" fill="#4e79a7"/><circle cx="742.5" cy="229.3" r="3" fill="#4e79a7"/><circle cx="761.6" cy="232.0" r="3" fill="#4e79a7"/><circle cx="780.8" cy="130.4" r="3" fill="#4e79a7"/><circle cx="800.0" cy="229.3" r="3" fill="#4e79a7"/>
  <circle cx="52.0" cy="232.0" r="3" fill="#f28e2b"/><circle cx="71.2" cy="231.1" r="3" fill="#f28e2b"/><circle cx="90.4" cy="229.3" r="3" fill="#f28e2b"/><circle cx="109.5" cy="231.1" r="3" fill="#f28e2b"/><circle cx="128.7" cy="229.3" r="3" fill="#f28e2b"/><circle cx="147.9" cy="232.0" r="3" fill="#f28e2b"/><circle cx="167.1" cy="232.0" r="3" fill="#f28e2b"/><circle cx="186.3" cy="232.0" r="3" fill="#f28e2b"/><circle cx="205.4" cy="231.1" r="3" fill="#f28e2b"/><circle cx="224.6" cy="232.0" r="3" fill="#f28e2b"/><circle cx="243.8" cy="232.0" r="3" fill="#f28e2b"/><circle cx="263.0" cy="232.0" r="3" fill="#f28e2b"/><circle cx="282.2" cy="232.0" r="3" fill="#f28e2b"/><circle cx="301.3" cy="231.1" r="3" fill="#f28e2b"/><circle cx="320.5" cy="232.0" r="3" fill="#f28e2b"/><circle cx="339.7" cy="232.0" r="3" fill="#f28e2b"/><circle cx="358.9" cy="232.0" r="3" fill="#f28e2b"/><circle cx="378.1" cy="180.8" r="3" fill="#f28e2b"/><circle cx="397.2" cy="162.8" r="3" fill="#f28e2b"/><circle cx="416.4" cy="229.3" r="3" fill="#f28e2b"/><circle cx="435.6" cy="230.2" r="3" fill="#f28e2b"/><circle cx="454.8" cy="230.2" r="3" fill="#f28e2b"/><circle cx="473.9" cy="228.4" r="3" fill="#f28e2b"/><circle cx="493.1" cy="231.1" r="3" fill="#f28e2b"/><circle cx="512.3" cy="231.1" r="3" fill="#f28e2b"/><circle cx="531.5" cy="230.2" r="3" fill="#f28e2b"/><circle cx="550.7" cy="230.2" r="3" fill="#f28e2b"/><circle cx="569.8" cy="232.0" r="3" fill="#f28e2b"/><circle cx="589.0" cy="228.4" r="3" fill="#f28e2b"/><circle cx="608.2" cy="231.1" r="3" fill="#f28e2b"/><circle cx="627.4" cy="229.3" r="3" fill="#f28e2b"/><circle cx="646.6" cy="224.8" r="3" fill="#f28e2b"/><circle cx="665.7" cy="232.0" r="3" fill="#f28e2b"/><circle cx="684.9" cy="232.0" r="3" fill="#f28e2b"/><circle cx="704.1" cy="232.0" r="3" fill="#f28e2b"/><circle cx="723.3" cy="222.1" r="3" fill="#f28e2b"/><circle cx="742.5" cy="229.3" r="3" fill="#f28e2b"/><circle cx="761.6" cy="232.0" r="3" fill="#f28e2b"/><circle cx="780.8" cy="214.0" r="3" fill="#f28e2b"/><circle cx="800.0" cy="229.3" r="3" fill="#f28e2b"/>

  <!-- axes -->
  <line x1="52" y1="28" x2="52" y2="232"
        stroke="#cccccc" stroke-width="1"/>
  <line x1="52" y1="232" x2="800" y2="232"
        stroke="#cccccc" stroke-width="1"/>

  <!-- y-axis labels -->
  <text x="47" y="236.0" text-anchor="end" font-size="10" fill="#57606a" font-family="ui-monospace, SFMono-Regular, 'SF Mono', Menlo, monospace">0</text><text x="47" y="191.1" text-anchor="end" font-size="10" fill="#57606a" font-family="ui-monospace, SFMono-Regular, 'SF Mono', Menlo, monospace">50</text><text x="47" y="146.1" text-anchor="end" font-size="10" fill="#57606a" font-family="ui-monospace, SFMono-Regular, 'SF Mono', Menlo, monospace">100</text><text x="47" y="101.2" text-anchor="end" font-size="10" fill="#57606a" font-family="ui-monospace, SFMono-Regular, 'SF Mono', Menlo, monospace">150</text><text x="47" y="56.3" text-anchor="end" font-size="10" fill="#57606a" font-family="ui-monospace, SFMono-Regular, 'SF Mono', Menlo, monospace">200</text><text x="47" y="11.3" text-anchor="end" font-size="10" fill="#57606a" font-family="ui-monospace, SFMono-Regular, 'SF Mono', Menlo, monospace">250</text>

  <!-- x-axis labels -->
  <text x="52.0" y="248" text-anchor="middle" font-size="10" fill="#8c959f" font-family="ui-monospace, SFMono-Regular, 'SF Mono', Menlo, monospace">05-11</text><text x="723.3" y="248" text-anchor="middle" font-size="10" fill="#8c959f" font-family="ui-monospace, SFMono-Regular, 'SF Mono', Menlo, monospace">06-15</text><text x="147.9" y="248" text-anchor="middle" font-size="10" fill="#8c959f" font-family="ui-monospace, SFMono-Regular, 'SF Mono', Menlo, monospace">05-16</text><text x="800.0" y="248" text-anchor="middle" font-size="10" fill="#8c959f" font-family="ui-monospace, SFMono-Regular, 'SF Mono', Menlo, monospace">06-19</text><text x="243.8" y="248" text-anchor="middle" font-size="10" fill="#8c959f" font-family="ui-monospace, SFMono-Regular, 'SF Mono', Menlo, monospace">05-21</text><text x="339.7" y="248" text-anchor="middle" font-size="10" fill="#8c959f" font-family="ui-monospace, SFMono-Regular, 'SF Mono', Menlo, monospace">05-26</text><text x="435.6" y="248" text-anchor="middle" font-size="10" fill="#8c959f" font-family="ui-monospace, SFMono-Regular, 'SF Mono', Menlo, monospace">05-31</text><text x="531.5" y="248" text-anchor="middle" font-size="10" fill="#8c959f" font-family="ui-monospace, SFMono-Regular, 'SF Mono', Menlo, monospace">06-05</text><text x="627.4" y="248" text-anchor="middle" font-size="10" fill="#8c959f" font-family="ui-monospace, SFMono-Regular, 'SF Mono', Menlo, monospace">06-10</text>

  <!-- legend -->
  <rect x="60" y="262" width="16" height="3" fill="#4e79a7" rx="1"/><text x="80" y="268" font-size="11" fill="#57606a" font-family="-apple-system, BlinkMacSystemFont, 'Segoe UI', sans-serif">Total clones (568)</text><line x1="230" y1="264" x2="246" y2="264" stroke="#f28e2b" stroke-width="2" stroke-dasharray="5,3"/><text x="250" y="268" font-size="11" fill="#57606a" font-family="-apple-system, BlinkMacSystemFont, 'Segoe UI', sans-serif">Unique cloners</text>

</svg>