<svg xmlns="http://www.w3.org/2000/svg" viewBox="0 0 820 280" width="820" height="280">

  <!-- title -->
  <text x="52" y="18" font-size="13" font-weight="600"
        fill="#24292f" font-family="-apple-system, BlinkMacSystemFont, 'Segoe UI', sans-serif"
        >Clone traffic — image-view</text>
  <text x="800" y="18" font-size="10" fill="#8c959f"
        font-family="ui-monospace, SFMono-Regular, 'SF Mono', Menlo, monospace" text-anchor="end">2026-07-04</text>

  <!-- grid -->
  <line x1="52" y1="232.0" x2="800" y2="232.0" stroke="#e8e8e8" stroke-width="1"/><line x1="52" y1="187.1" x2="800" y2="187.1" stroke="#e8e8e8" stroke-width="1"/><line x1="52" y1="142.1" x2="800" y2="142.1" stroke="#e8e8e8" stroke-width="1"/><line x1="52" y1="97.2" x2="800" y2="97.2" stroke="#e8e8e8" stroke-width="1"/><line x1="52" y1="52.3" x2="800" y2="52.3" stroke="#e8e8e8" stroke-width="1"/><line x1="52" y1="7.3" x2="800" y2="7.3" stroke="#e8e8e8" stroke-width="1"/>

  <!-- area fill -->
  <path d="M52.0,232.0 L52.0,232.0 L66.4,231.1 L80.8,229.3 L95.2,231.1 L109.5,229.3 L123.9,232.0 L138.3,232.0 L152.7,232.0 L167.1,231.1 L181.5,232.0 L195.8,232.0 L210.2,232.0 L224.6,232.0 L239.0,231.1 L253.4,232.0 L267.8,232.0 L282.2,232.0 L296.5,117.9 L310.9,28.0 L325.3,222.1 L339.7,227.5 L354.1,229.3 L368.5,228.4 L382.8,231.1 L397.2,231.1 L411.6,230.2 L426.0,221.2 L440.4,232.0 L454.8,228.4 L469.2,231.1 L483.5,229.3 L497.9,224.8 L512.3,232.0 L526.7,232.0 L541.1,232.0 L555.5,205.0 L569.8,229.3 L584.2,232.0 L598.6,130.4 L613.0,229.3 L627.4,232.0 L641.8,232.0 L656.2,230.2 L670.5,231.1 L684.9,231.1 L699.3,230.2 L713.7,230.2 L728.1,232.0 L742.5,232.0 L756.8,231.1 L771.2,232.0 L785.6,231.1 L800.0,232.0 L800.0,232.0 L52.0,232.0Z" fill="#4e79a7" opacity="0.12"/>

  <!-- lines -->
  <polyline points="52.0,232.0 66.4,231.1 80.8,229.3 95.2,231.1 109.5,229.3 123.9,232.0 138.3,232.0 152.7,232.0 167.1,231.1 181.5,232.0 195.8,232.0 210.2,232.0 224.6,232.0 239.0,231.1 253.4,232.0 267.8,232.0 282.2,232.0 296.5,117.9 310.9,28.0 325.3,222.1 339.7,227.5 354.1,229.3 368.5,228.4 382.8,231.1 397.2,231.1 411.6,230.2 426.0,221.2 440.4,232.0 454.8,228.4 469.2,231.1 483.5,229.3 497.9,224.8 512.3,232.0 526.7,232.0 541.1,232.0 555.5,205.0 569.8,229.3 584.2,232.0 598.6,130.4 613.0,229.3 627.4,232.0 641.8,232.0 656.2,230.2 670.5,231.1 684.9,231.1 699.3,230.2 713.7,230.2 728.1,232.0 742.5,232.0 756.8,231.1 771.2,232.0 785.6,231.1 800.0,232.0"
            fill="none" stroke="#4e79a7"
            stroke-width="2" stroke-linejoin="round"/>
  <polyline points="52.0,232.0 66.4,231.1 80.8,229.3 95.2,231.1 109.5,229.3 123.9,232.0 138.3,232.0 152.7,232.0 167.1,231.1 181.5,232.0 195.8,232.0 210.2,232.0 224.6,232.0 239.0,231.1 253.4,232.0 267.8,232.0 282.2,232.0 296.5,180.8 310.9,162.8 325.3,229.3 339.7,230.2 354.1,230.2 368.5,228.4 382.8,231.1 397.2,231.1 411.6,230.2 426.0,230.2 440.4,232.0 454.8,228.4 469.2,231.1 483.5,229.3 497.9,224.8 512.3,232.0 526.7,232.0 541.1,232.0 555.5,222.1 569.8,229.3 584.2,232.0 598.6,214.0 613.0,229.3 627.4,232.0 641.8,232.0 656.2,230.2 670.5,231.1 684.9,231.1 699.3,230.2 713.7,230.2 728.1,232.0 742.5,232.0 756.8,231.1 771.2,232.0 785.6,231.1 800.0,232.0"
            fill="none" stroke="#f28e2b"
            stroke-width="2" stroke-linejoin="round"
            stroke-dasharray="5,3"/>

  <!-- dots -->
  <circle cx="52.0" cy="232.0" r="3" fill="#4e79a7"/><circle cx="66.4" cy="231.1" r="3" fill="#4e79a7"/><circle cx="80.8" cy="229.3" r="3" fill="#4e79a7"/><circle cx="95.2" cy="231.1" r="3" fill="#4e79a7"/><circle cx="109.5" cy="229.3" r="3" fill="#4e79a7"/><circle cx="123.9" cy="232.0" r="3" fill="#4e79a7"/><circle cx="138.3" cy="232.0" r="3" fill="#4e79a7"/><circle cx="152.7" cy="232.0" r="3" fill="#4e79a7"/><circle cx="167.1" cy="231.1" r="3" fill="#4e79a7"/><circle cx="181.5" cy="232.0" r="3" fill="#4e79a7"/><circle cx="195.8" cy="232.0" r="3" fill="#4e79a7"/><circle cx="210.2" cy="232.0" r="3" fill="#4e79a7"/><circle cx="224.6" cy="232.0" r="3" fill="#4e79a7"/><circle cx="239.0" cy="231.1" r="3" fill="#4e79a7"/><circle cx="253.4" cy="232.0" r="3" fill="#4e79a7"/><circle cx="267.8" cy="232.0" r="3" fill="#4e79a7"/><circle cx="282.2" cy="232.0" r="3" fill="#4e79a7"/><circle cx="296.5" cy="117.9" r="3" fill="#4e79a7"/><circle cx="310.9" cy="28.0" r="3" fill="#4e79a7"/><circle cx="325.3" cy="222.1" r="3" fill="#4e79a7"/><circle cx="339.7" cy="227.5" r="3" fill="#4e79a7"/><circle cx="354.1" cy="229.3" r="3" fill="#4e79a7"/><circle cx="368.5" cy="228.4" r="3" fill="#4e79a7"/><circle cx="382.8" cy="231.1" r="3" fill="#4e79a7"/><circle cx="397.2" cy="231.1" r="3" fill="#4e79a7"/><circle cx="411.6" cy="230.2" r="3" fill="#4e79a7"/><circle cx="426.0" cy="221.2" r="3" fill="#4e79a7"/><circle cx="440.4" cy="232.0" r="3" fill="#4e79a7"/><circle cx="454.8" cy="228.4" r="3" fill="#4e79a7"/><circle cx="469.2" cy="231.1" r="3" fill="#4e79a7"/><circle cx="483.5" cy="229.3" r="3" fill="#4e79a7"/><circle cx="497.9" cy="224.8" r="3" fill="#4e79a7"/><circle cx="512.3" cy="232.0" r="3" fill="#4e79a7"/><circle cx="526.7" cy="232.0" r="3" fill="#4e79a7"/><circle cx="541.1" cy="232.0" r="3" fill="#4e79a7"/><circle cx="555.5" cy="205.0" r="3" fill="#4e79a7"/><circle cx="569.8" cy="229.3" r="3" fill="#4e79a7"/><circle cx="584.2" cy="232.0" r="3" fill="#4e79a7"/><circle cx="598.6" cy="130.4" r="3" fill="#4e79a7"/><circle cx="613.0" cy="229.3" r="3" fill="#4e79a7"/><circle cx="627.4" cy="232.0" r="3" fill="#4e79a7"/><circle cx="641.8" cy="232.0" r="3" fill="#4e79a7"/><circle cx="656.2" cy="230.2" r="3" fill="#4e79a7"/><circle cx="670.5" cy="231.1" r="3" fill="#4e79a7"/><circle cx="684.9" cy="231.1" r="3" fill="#4e79a7"/><circle cx="699.3" cy="230.2" r="3" fill="#4e79a7"/><circle cx="713.7" cy="230.2" r="3" fill="#4e79a7"/><circle cx="728.1" cy="232.0" r="3" fill="#4e79a7"/><circle cx="742.5" cy="232.0" r="3" fill="#4e79a7"/><circle cx="756.8" cy="231.1" r="3" fill="#4e79a7"/><circle cx="771.2" cy="232.0" r="3" fill="#4e79a7"/><circle cx="785.6" cy="231.1" r="3" fill="#4e79a7"/><circle cx="800.0" cy="232.0" r="3" fill="#4e79a7"/>
  <circle cx="52.0" cy="232.0" r="3" fill="#f28e2b"/><circle cx="66.4" cy="231.1" r="3" fill="#f28e2b"/><circle cx="80.8" cy="229.3" r="3" fill="#f28e2b"/><circle cx="95.2" cy="231.1" r="3" fill="#f28e2b"/><circle cx="109.5" cy="229.3" r="3" fill="#f28e2b"/><circle cx="123.9" cy="232.0" r="3" fill="#f28e2b"/><circle cx="138.3" cy="232.0" r="3" fill="#f28e2b"/><circle cx="152.7" cy="232.0" r="3" fill="#f28e2b"/><circle cx="167.1" cy="231.1" r="3" fill="#f28e2b"/><circle cx="181.5" cy="232.0" r="3" fill="#f28e2b"/><circle cx="195.8" cy="232.0" r="3" fill="#f28e2b"/><circle cx="210.2" cy="232.0" r="3" fill="#f28e2b"/><circle cx="224.6" cy="232.0" r="3" fill="#f28e2b"/><circle cx="239.0" cy="231.1" r="3" fill="#f28e2b"/><circle cx="253.4" cy="232.0" r="3" fill="#f28e2b"/><circle cx="267.8" cy="232.0" r="3" fill="#f28e2b"/><circle cx="282.2" cy="232.0" r="3" fill="#f28e2b"/><circle cx="296.5" cy="180.8" r="3" fill="#f28e2b"/><circle cx="310.9" cy="162.8" r="3" fill="#f28e2b"/><circle cx="325.3" cy="229.3" r="3" fill="#f28e2b"/><circle cx="339.7" cy="230.2" r="3" fill="#f28e2b"/><circle cx="354.1" cy="230.2" r="3" fill="#f28e2b"/><circle cx="368.5" cy="228.4" r="3" fill="#f28e2b"/><circle cx="382.8" cy="231.1" r="3" fill="#f28e2b"/><circle cx="397.2" cy="231.1" r="3" fill="#f28e2b"/><circle cx="411.6" cy="230.2" r="3" fill="#f28e2b"/><circle cx="426.0" cy="230.2" r="3" fill="#f28e2b"/><circle cx="440.4" cy="232.0" r="3" fill="#f28e2b"/><circle cx="454.8" cy="228.4" r="3" fill="#f28e2b"/><circle cx="469.2" cy="231.1" r="3" fill="#f28e2b"/><circle cx="483.5" cy="229.3" r="3" fill="#f28e2b"/><circle cx="497.9" cy="224.8" r="3" fill="#f28e2b"/><circle cx="512.3" cy="232.0" r="3" fill="#f28e2b"/><circle cx="526.7" cy="232.0" r="3" fill="#f28e2b"/><circle cx="541.1" cy="232.0" r="3" fill="#f28e2b"/><circle cx="555.5" cy="222.1" r="3" fill="#f28e2b"/><circle cx="569.8" cy="229.3" r="3" fill="#f28e2b"/><circle cx="584.2" cy="232.0" r="3" fill="#f28e2b"/><circle cx="598.6" cy="214.0" r="3" fill="#f28e2b"/><circle cx="613.0" cy="229.3" r="3" fill="#f28e2b"/><circle cx="627.4" cy="232.0" r="3" fill="#f28e2b"/><circle cx="641.8" cy="232.0" r="3" fill="#f28e2b"/><circle cx="656.2" cy="230.2" r="3" fill="#f28e2b"/><circle cx="670.5" cy="231.1" r="3" fill="#f28e2b"/><circle cx="684.9" cy="231.1" r="3" fill="#f28e2b"/><circle cx="699.3" cy="230.2" r="3" fill="#f28e2b"/><circle cx="713.7" cy="230.2" r="3" fill="#f28e2b"/><circle cx="728.1" cy="232.0" r="3" fill="#f28e2b"/><circle cx="742.5" cy="232.0" r="3" fill="#f28e2b"/><circle cx="756.8" cy="231.1" r="3" fill="#f28e2b"/><circle cx="771.2" cy="232.0" r="3" fill="#f28e2b"/><circle cx="785.6" cy="231.1" r="3" fill="#f28e2b"/><circle cx="800.0" cy="232.0" r="3" fill="#f28e2b"/>

  <!-- axes -->
  <line x1="52" y1="28" x2="52" y2="232"
        stroke="#cccccc" stroke-width="1"/>
  <line x1="52" y1="232" x2="800" y2="232"
        stroke="#cccccc" stroke-width="1"/>

  <!-- y-axis labels -->
  <text x="47" y="236.0" text-anchor="end" font-size="10" fill="#57606a" font-family="ui-monospace, SFMono-Regular, 'SF Mono', Menlo, monospace">0</text><text x="47" y="191.1" text-anchor="end" font-size="10" fill="#57606a" font-family="ui-monospace, SFMono-Regular, 'SF Mono', Menlo, monospace">50</text><text x="47" y="146.1" text-anchor="end" font-size="10" fill="#57606a" font-family="ui-monospace, SFMono-Regular, 'SF Mono', Menlo, monospace">100</text><text x="47" y="101.2" text-anchor="end" font-size="10" fill="#57606a" font-family="ui-monospace, SFMono-Regular, 'SF Mono', Menlo, monospace">150</text><text x="47" y="56.3" text-anchor="end" font-size="10" fill="#57606a" font-family="ui-monospace, SFMono-Regular, 'SF Mono', Menlo, monospace">200</text><text x="47" y="11.3" text-anchor="end" font-size="10" fill="#57606a" font-family="ui-monospace, SFMono-Regular, 'SF Mono', Menlo, monospace">250</text>

  <!-- x-axis labels -->
  <text x="52.0" y="248" text-anchor="middle" font-size="10" fill="#8c959f" font-family="ui-monospace, SFMono-Regular, 'SF Mono', Menlo, monospace">05-11</text><text x="569.8" y="248" text-anchor="middle" font-size="10" fill="#8c959f" font-family="ui-monospace, SFMono-Regular, 'SF Mono', Menlo, monospace">06-16</text><text x="138.3" y="248" text-anchor="middle" font-size="10" fill="#8c959f" font-family="ui-monospace, SFMono-Regular, 'SF Mono', Menlo, monospace">05-17</text><text x="656.2" y="248" text-anchor="middle" font-size="10" fill="#8c959f" font-family="ui-monospace, SFMono-Regular, 'SF Mono', Menlo, monospace">06-22</text><text x="224.6" y="248" text-anchor="middle" font-size="10" fill="#8c959f" font-family="ui-monospace, SFMono-Regular, 'SF Mono', Menlo, monospace">05-23</text><text x="742.5" y="248" text-anchor="middle" font-size="10" fill="#8c959f" font-family="ui-monospace, SFMono-Regular, 'SF Mono', Menlo, monospace">06-28</text><text x="310.9" y="248" text-anchor="middle" font-size="10" fill="#8c959f" font-family="ui-monospace, SFMono-Regular, 'SF Mono', Menlo, monospace">05-29</text><text x="800.0" y="248" text-anchor="middle" font-size="10" fill="#8c959f" font-family="ui-monospace, SFMono-Regular, 'SF Mono', Menlo, monospace">07-02</text><text x="397.2" y="248" text-anchor="middle" font-size="10" fill="#8c959f" font-family="ui-monospace, SFMono-Regular, 'SF Mono', Menlo, monospace">06-04</text><text x="483.5" y="248" text-anchor="middle" font-size="10" fill="#8c959f" font-family="ui-monospace, SFMono-Regular, 'SF Mono', Menlo, monospace">06-10</text>

  <!-- legend -->
  <rect x="60" y="262" width="16" height="3" fill="#4e79a7" rx="1"/><text x="80" y="268" font-size="11" fill="#57606a" font-family="-apple-system, BlinkMacSystemFont, 'Segoe UI', sans-serif">Total clones (578)</text><line x1="230" y1="264" x2="246" y2="264" stroke="#f28e2b" stroke-width="2" stroke-dasharray="5,3"/><text x="250" y="268" font-size="11" fill="#57606a" font-family="-apple-system, BlinkMacSystemFont, 'Segoe UI', sans-serif">Unique cloners</text>

</svg>