<svg xmlns="http://www.w3.org/2000/svg" viewBox="0 0 820 280" width="820" height="280">

  <!-- title -->
  <text x="52" y="18" font-size="13" font-weight="600"
        fill="#24292f" font-family="-apple-system, BlinkMacSystemFont, 'Segoe UI', sans-serif"
        >Clone traffic — image-view</text>
  <text x="800" y="18" font-size="10" fill="#8c959f"
        font-family="ui-monospace, SFMono-Regular, 'SF Mono', Menlo, monospace" text-anchor="end">2026-07-02</text>

  <!-- grid -->
  <line x1="52" y1="232.0" x2="800" y2="232.0" stroke="#e8e8e8" stroke-width="1"/><line x1="52" y1="187.1" x2="800" y2="187.1" stroke="#e8e8e8" stroke-width="1"/><line x1="52" y1="142.1" x2="800" y2="142.1" stroke="#e8e8e8" stroke-width="1"/><line x1="52" y1="97.2" x2="800" y2="97.2" stroke="#e8e8e8" stroke-width="1"/><line x1="52" y1="52.3" x2="800" y2="52.3" stroke="#e8e8e8" stroke-width="1"/><line x1="52" y1="7.3" x2="800" y2="7.3" stroke="#e8e8e8" stroke-width="1"/>

  <!-- area fill -->
  <path d="M52.0,232.0 L52.0,232.0 L67.0,231.1 L81.9,229.3 L96.9,231.1 L111.8,229.3 L126.8,232.0 L141.8,232.0 L156.7,232.0 L171.7,231.1 L186.6,232.0 L201.6,232.0 L216.6,232.0 L231.5,232.0 L246.5,231.1 L261.4,232.0 L276.4,232.0 L291.4,232.0 L306.3,117.9 L321.3,28.0 L336.2,222.1 L351.2,227.5 L366.2,229.3 L381.1,228.4 L396.1,231.1 L411.0,231.1 L426.0,230.2 L441.0,221.2 L455.9,232.0 L470.9,228.4 L485.8,231.1 L500.8,229.3 L515.8,224.8 L530.7,232.0 L545.7,232.0 L560.6,232.0 L575.6,205.0 L590.6,229.3 L605.5,232.0 L620.5,130.4 L635.4,229.3 L650.4,232.0 L665.4,232.0 L680.3,230.2 L695.3,231.1 L710.2,231.1 L725.2,230.2 L740.2,230.2 L755.1,232.0 L770.1,232.0 L785.0,231.1 L800.0,232.0 L800.0,232.0 L52.0,232.0Z" fill="#4e79a7" opacity="0.12"/>

  <!-- lines -->
  <polyline points="52.0,232.0 67.0,231.1 81.9,229.3 96.9,231.1 111.8,229.3 126.8,232.0 141.8,232.0 156.7,232.0 171.7,231.1 186.6,232.0 201.6,232.0 216.6,232.0 231.5,232.0 246.5,231.1 261.4,232.0 276.4,232.0 291.4,232.0 306.3,117.9 321.3,28.0 336.2,222.1 351.2,227.5 366.2,229.3 381.1,228.4 396.1,231.1 411.0,231.1 426.0,230.2 441.0,221.2 455.9,232.0 470.9,228.4 485.8,231.1 500.8,229.3 515.8,224.8 530.7,232.0 545.7,232.0 560.6,232.0 575.6,205.0 590.6,229.3 605.5,232.0 620.5,130.4 635.4,229.3 650.4,232.0 665.4,232.0 680.3,230.2 695.3,231.1 710.2,231.1 725.2,230.2 740.2,230.2 755.1,232.0 770.1,232.0 785.0,231.1 800.0,232.0"
            fill="none" stroke="#4e79a7"
            stroke-width="2" stroke-linejoin="round"/>
  <polyline points="52.0,232.0 67.0,231.1 81.9,229.3 96.9,231.1 111.8,229.3 126.8,232.0 141.8,232.0 156.7,232.0 171.7,231.1 186.6,232.0 201.6,232.0 216.6,232.0 231.5,232.0 246.5,231.1 261.4,232.0 276.4,232.0 291.4,232.0 306.3,180.8 321.3,162.8 336.2,229.3 351.2,230.2 366.2,230.2 381.1,228.4 396.1,231.1 411.0,231.1 426.0,230.2 441.0,230.2 455.9,232.0 470.9,228.4 485.8,231.1 500.8,229.3 515.8,224.8 530.7,232.0 545.7,232.0 560.6,232.0 575.6,222.1 590.6,229.3 605.5,232.0 620.5,214.0 635.4,229.3 650.4,232.0 665.4,232.0 680.3,230.2 695.3,231.1 710.2,231.1 725.2,230.2 740.2,230.2 755.1,232.0 770.1,232.0 785.0,231.1 800.0,232.0"
            fill="none" stroke="#f28e2b"
            stroke-width="2" stroke-linejoin="round"
            stroke-dasharray="5,3"/>

  <!-- dots -->
  <circle cx="52.0" cy="232.0" r="3" fill="#4e79a7"/><circle cx="67.0" cy="231.1" r="3" fill="#4e79a7"/><circle cx="81.9" cy="229.3" r="3" fill="#4e79a7"/><circle cx="96.9" cy="231.1" r="3" fill="#4e79a7"/><circle cx="111.8" cy="229.3" r="3" fill="#4e79a7"/><circle cx="126.8" cy="232.0" r="3" fill="#4e79a7"/><circle cx="141.8" cy="232.0" r="3" fill="#4e79a7"/><circle cx="156.7" cy="232.0" r="3" fill="#4e79a7"/><circle cx="171.7" cy="231.1" r="3" fill="#4e79a7"/><circle cx="186.6" cy="232.0" r="3" fill="#4e79a7"/><circle cx="201.6" cy="232.0" r="3" fill="#4e79a7"/><circle cx="216.6" cy="232.0" r="3" fill="#4e79a7"/><circle cx="231.5" cy="232.0" r="3" fill="#4e79a7"/><circle cx="246.5" cy="231.1" r="3" fill="#4e79a7"/><circle cx="261.4" cy="232.0" r="3" fill="#4e79a7"/><circle cx="276.4" cy="232.0" r="3" fill="#4e79a7"/><circle cx="291.4" cy="232.0" r="3" fill="#4e79a7"/><circle cx="306.3" cy="117.9" r="3" fill="#4e79a7"/><circle cx="321.3" cy="28.0" r="3" fill="#4e79a7"/><circle cx="336.2" cy="222.1" r="3" fill="#4e79a7"/><circle cx="351.2" cy="227.5" r="3" fill="#4e79a7"/><circle cx="366.2" cy="229.3" r="3" fill="#4e79a7"/><circle cx="381.1" cy="228.4" r="3" fill="#4e79a7"/><circle cx="396.1" cy="231.1" r="3" fill="#4e79a7"/><circle cx="411.0" cy="231.1" r="3" fill="#4e79a7"/><circle cx="426.0" cy="230.2" r="3" fill="#4e79a7"/><circle cx="441.0" cy="221.2" r="3" fill="#4e79a7"/><circle cx="455.9" cy="232.0" r="3" fill="#4e79a7"/><circle cx="470.9" cy="228.4" r="3" fill="#4e79a7"/><circle cx="485.8" cy="231.1" r="3" fill="#4e79a7"/><circle cx="500.8" cy="229.3" r="3" fill="#4e79a7"/><circle cx="515.8" cy="224.8" r="3" fill="#4e79a7"/><circle cx="530.7" cy="232.0" r="3" fill="#4e79a7"/><circle cx="545.7" cy="232.0" r="3" fill="#4e79a7"/><circle cx="560.6" cy="232.0" r="3" fill="#4e79a7"/><circle cx="575.6" cy="205.0" r="3" fill="#4e79a7"/><circle cx="590.6" cy="229.3" r="3" fill="#4e79a7"/><circle cx="605.5" cy="232.0" r="3" fill="#4e79a7"/><circle cx="620.5" cy="130.4" r="3" fill="#4e79a7"/><circle cx="635.4" cy="229.3" r="3" fill="#4e79a7"/><circle cx="650.4" cy="232.0" r="3" fill="#4e79a7"/><circle cx="665.4" cy="232.0" r="3" fill="#4e79a7"/><circle cx="680.3" cy="230.2" r="3" fill="#4e79a7"/><circle cx="695.3" cy="231.1" r="3" fill="#4e79a7"/><circle cx="710.2" cy="231.1" r="3" fill="#4e79a7"/><circle cx="725.2" cy="230.2" r="3" fill="#4e79a7"/><circle cx="740.2" cy="230.2" r="3" fill="#4e79a7"/><circle cx="755.1" cy="232.0" r="3" fill="#4e79a7"/><circle cx="770.1" cy="232.0" r="3" fill="#4e79a7"/><circle cx="785.0" cy="231.1" r="3" fill="#4e79a7"/><circle cx="800.0" cy="232.0" r="3" fill="#4e79a7"/>
  <circle cx="52.0" cy="232.0" r="3" fill="#f28e2b"/><circle cx="67.0" cy="231.1" r="3" fill="#f28e2b"/><circle cx="81.9" cy="229.3" r="3" fill="#f28e2b"/><circle cx="96.9" cy="231.1" r="3" fill="#f28e2b"/><circle cx="111.8" cy="229.3" r="3" fill="#f28e2b"/><circle cx="126.8" cy="232.0" r="3" fill="#f28e2b"/><circle cx="141.8" cy="232.0" r="3" fill="#f28e2b"/><circle cx="156.7" cy="232.0" r="3" fill="#f28e2b"/><circle cx="171.7" cy="231.1" r="3" fill="#f28e2b"/><circle cx="186.6" cy="232.0" r="3" fill="#f28e2b"/><circle cx="201.6" cy="232.0" r="3" fill="#f28e2b"/><circle cx="216.6" cy="232.0" r="3" fill="#f28e2b"/><circle cx="231.5" cy="232.0" r="3" fill="#f28e2b"/><circle cx="246.5" cy="231.1" r="3" fill="#f28e2b"/><circle cx="261.4" cy="232.0" r="3" fill="#f28e2b"/><circle cx="276.4" cy="232.0" r="3" fill="#f28e2b"/><circle cx="291.4" cy="232.0" r="3" fill="#f28e2b"/><circle cx="306.3" cy="180.8" r="3" fill="#f28e2b"/><circle cx="321.3" cy="162.8" r="3" fill="#f28e2b"/><circle cx="336.2" cy="229.3" r="3" fill="#f28e2b"/><circle cx="351.2" cy="230.2" r="3" fill="#f28e2b"/><circle cx="366.2" cy="230.2" r="3" fill="#f28e2b"/><circle cx="381.1" cy="228.4" r="3" fill="#f28e2b"/><circle cx="396.1" cy="231.1" r="3" fill="#f28e2b"/><circle cx="411.0" cy="231.1" r="3" fill="#f28e2b"/><circle cx="426.0" cy="230.2" r="3" fill="#f28e2b"/><circle cx="441.0" cy="230.2" r="3" fill="#f28e2b"/><circle cx="455.9" cy="232.0" r="3" fill="#f28e2b"/><circle cx="470.9" cy="228.4" r="3" fill="#f28e2b"/><circle cx="485.8" cy="231.1" r="3" fill="#f28e2b"/><circle cx="500.8" cy="229.3" r="3" fill="#f28e2b"/><circle cx="515.8" cy="224.8" r="3" fill="#f28e2b"/><circle cx="530.7" cy="232.0" r="3" fill="#f28e2b"/><circle cx="545.7" cy="232.0" r="3" fill="#f28e2b"/><circle cx="560.6" cy="232.0" r="3" fill="#f28e2b"/><circle cx="575.6" cy="222.1" r="3" fill="#f28e2b"/><circle cx="590.6" cy="229.3" r="3" fill="#f28e2b"/><circle cx="605.5" cy="232.0" r="3" fill="#f28e2b"/><circle cx="620.5" cy="214.0" r="3" fill="#f28e2b"/><circle cx="635.4" cy="229.3" r="3" fill="#f28e2b"/><circle cx="650.4" cy="232.0" r="3" fill="#f28e2b"/><circle cx="665.4" cy="232.0" r="3" fill="#f28e2b"/><circle cx="680.3" cy="230.2" r="3" fill="#f28e2b"/><circle cx="695.3" cy="231.1" r="3" fill="#f28e2b"/><circle cx="710.2" cy="231.1" r="3" fill="#f28e2b"/><circle cx="725.2" cy="230.2" r="3" fill="#f28e2b"/><circle cx="740.2" cy="230.2" r="3" fill="#f28e2b"/><circle cx="755.1" cy="232.0" r="3" fill="#f28e2b"/><circle cx="770.1" cy="232.0" r="3" fill="#f28e2b"/><circle cx="785.0" cy="231.1" r="3" fill="#f28e2b"/><circle cx="800.0" cy="232.0" r="3" fill="#f28e2b"/>

  <!-- axes -->
  <line x1="52" y1="28" x2="52" y2="232"
        stroke="#cccccc" stroke-width="1"/>
  <line x1="52" y1="232" x2="800" y2="232"
        stroke="#cccccc" stroke-width="1"/>

  <!-- y-axis labels -->
  <text x="47" y="236.0" text-anchor="end" font-size="10" fill="#57606a" font-family="ui-monospace, SFMono-Regular, 'SF Mono', Menlo, monospace">0</text><text x="47" y="191.1" text-anchor="end" font-size="10" fill="#57606a" font-family="ui-monospace, SFMono-Regular, 'SF Mono', Menlo, monospace">50</text><text x="47" y="146.1" text-anchor="end" font-size="10" fill="#57606a" font-family="ui-monospace, SFMono-Regular, 'SF Mono', Menlo, monospace">100</text><text x="47" y="101.2" text-anchor="end" font-size="10" fill="#57606a" font-family="ui-monospace, SFMono-Regular, 'SF Mono', Menlo, monospace">150</text><text x="47" y="56.3" text-anchor="end" font-size="10" fill="#57606a" font-family="ui-monospace, SFMono-Regular, 'SF Mono', Menlo, monospace">200</text><text x="47" y="11.3" text-anchor="end" font-size="10" fill="#57606a" font-family="ui-monospace, SFMono-Regular, 'SF Mono', Menlo, monospace">250</text>

  <!-- x-axis labels -->
  <text x="52.0" y="248" text-anchor="middle" font-size="10" fill="#8c959f" font-family="ui-monospace, SFMono-Regular, 'SF Mono', Menlo, monospace">05-11</text><text x="590.6" y="248" text-anchor="middle" font-size="10" fill="#8c959f" font-family="ui-monospace, SFMono-Regular, 'SF Mono', Menlo, monospace">06-16</text><text x="141.8" y="248" text-anchor="middle" font-size="10" fill="#8c959f" font-family="ui-monospace, SFMono-Regular, 'SF Mono', Menlo, monospace">05-17</text><text x="680.3" y="248" text-anchor="middle" font-size="10" fill="#8c959f" font-family="ui-monospace, SFMono-Regular, 'SF Mono', Menlo, monospace">06-22</text><text x="231.5" y="248" text-anchor="middle" font-size="10" fill="#8c959f" font-family="ui-monospace, SFMono-Regular, 'SF Mono', Menlo, monospace">05-23</text><text x="770.1" y="248" text-anchor="middle" font-size="10" fill="#8c959f" font-family="ui-monospace, SFMono-Regular, 'SF Mono', Menlo, monospace">06-28</text><text x="321.3" y="248" text-anchor="middle" font-size="10" fill="#8c959f" font-family="ui-monospace, SFMono-Regular, 'SF Mono', Menlo, monospace">05-29</text><text x="800.0" y="248" text-anchor="middle" font-size="10" fill="#8c959f" font-family="ui-monospace, SFMono-Regular, 'SF Mono', Menlo, monospace">06-30</text><text x="411.0" y="248" text-anchor="middle" font-size="10" fill="#8c959f" font-family="ui-monospace, SFMono-Regular, 'SF Mono', Menlo, monospace">06-04</text><text x="500.8" y="248" text-anchor="middle" font-size="10" fill="#8c959f" font-family="ui-monospace, SFMono-Regular, 'SF Mono', Menlo, monospace">06-10</text>

  <!-- legend -->
  <rect x="60" y="262" width="16" height="3" fill="#4e79a7" rx="1"/><text x="80" y="268" font-size="11" fill="#57606a" font-family="-apple-system, BlinkMacSystemFont, 'Segoe UI', sans-serif">Total clones (577)</text><line x1="230" y1="264" x2="246" y2="264" stroke="#f28e2b" stroke-width="2" stroke-dasharray="5,3"/><text x="250" y="268" font-size="11" fill="#57606a" font-family="-apple-system, BlinkMacSystemFont, 'Segoe UI', sans-serif">Unique cloners</text>

</svg>