<svg xmlns="http://www.w3.org/2000/svg" viewBox="0 0 820 280" width="820" height="280">

  <!-- title -->
  <text x="52" y="18" font-size="13" font-weight="600"
        fill="#24292f" font-family="-apple-system, BlinkMacSystemFont, 'Segoe UI', sans-serif"
        >Clone traffic — image-view</text>
  <text x="800" y="18" font-size="10" fill="#8c959f"
        font-family="ui-monospace, SFMono-Regular, 'SF Mono', Menlo, monospace" text-anchor="end">2026-07-14</text>

  <!-- grid -->
  <line x1="52" y1="232.0" x2="800" y2="232.0" stroke="#e8e8e8" stroke-width="1"/><line x1="52" y1="187.1" x2="800" y2="187.1" stroke="#e8e8e8" stroke-width="1"/><line x1="52" y1="142.1" x2="800" y2="142.1" stroke="#e8e8e8" stroke-width="1"/><line x1="52" y1="97.2" x2="800" y2="97.2" stroke="#e8e8e8" stroke-width="1"/><line x1="52" y1="52.3" x2="800" y2="52.3" stroke="#e8e8e8" stroke-width="1"/><line x1="52" y1="7.3" x2="800" y2="7.3" stroke="#e8e8e8" stroke-width="1"/>

  <!-- area fill -->
  <path d="M52.0,232.0 L52.0,232.0 L64.1,231.1 L76.1,229.3 L88.2,231.1 L100.3,229.3 L112.3,232.0 L124.4,232.0 L136.5,232.0 L148.5,231.1 L160.6,232.0 L172.6,232.0 L184.7,232.0 L196.8,232.0 L208.8,231.1 L220.9,232.0 L233.0,232.0 L245.0,232.0 L257.1,117.9 L269.2,28.0 L281.2,222.1 L293.3,227.5 L305.4,229.3 L317.4,228.4 L329.5,231.1 L341.5,231.1 L353.6,230.2 L365.7,221.2 L377.7,232.0 L389.8,228.4 L401.9,231.1 L413.9,229.3 L426.0,224.8 L438.1,232.0 L450.1,232.0 L462.2,232.0 L474.3,205.0 L486.3,229.3 L498.4,232.0 L510.5,130.4 L522.5,229.3 L534.6,232.0 L546.6,232.0 L558.7,230.2 L570.8,231.1 L582.8,231.1 L594.9,230.2 L607.0,230.2 L619.0,232.0 L631.1,232.0 L643.2,231.1 L655.2,232.0 L667.3,231.1 L679.4,232.0 L691.4,232.0 L703.5,223.9 L715.5,226.6 L727.6,231.1 L739.7,232.0 L751.7,231.1 L763.8,231.1 L775.9,231.1 L787.9,231.1 L800.0,232.0 L800.0,232.0 L52.0,232.0Z" fill="#4e79a7" opacity="0.12"/>

  <!-- lines -->
  <polyline points="52.0,232.0 64.1,231.1 76.1,229.3 88.2,231.1 100.3,229.3 112.3,232.0 124.4,232.0 136.5,232.0 148.5,231.1 160.6,232.0 172.6,232.0 184.7,232.0 196.8,232.0 208.8,231.1 220.9,232.0 233.0,232.0 245.0,232.0 257.1,117.9 269.2,28.0 281.2,222.1 293.3,227.5 305.4,229.3 317.4,228.4 329.5,231.1 341.5,231.1 353.6,230.2 365.7,221.2 377.7,232.0 389.8,228.4 401.9,231.1 413.9,229.3 426.0,224.8 438.1,232.0 450.1,232.0 462.2,232.0 474.3,205.0 486.3,229.3 498.4,232.0 510.5,130.4 522.5,229.3 534.6,232.0 546.6,232.0 558.7,230.2 570.8,231.1 582.8,231.1 594.9,230.2 607.0,230.2 619.0,232.0 631.1,232.0 643.2,231.1 655.2,232.0 667.3,231.1 679.4,232.0 691.4,232.0 703.5,223.9 715.5,226.6 727.6,231.1 739.7,232.0 751.7,231.1 763.8,231.1 775.9,231.1 787.9,231.1 800.0,232.0"
            fill="none" stroke="#4e79a7"
            stroke-width="2" stroke-linejoin="round"/>
  <polyline points="52.0,232.0 64.1,231.1 76.1,229.3 88.2,231.1 100.3,229.3 112.3,232.0 124.4,232.0 136.5,232.0 148.5,231.1 160.6,232.0 172.6,232.0 184.7,232.0 196.8,232.0 208.8,231.1 220.9,232.0 233.0,232.0 245.0,232.0 257.1,180.8 269.2,162.8 281.2,229.3 293.3,230.2 305.4,230.2 317.4,228.4 329.5,231.1 341.5,231.1 353.6,230.2 365.7,230.2 377.7,232.0 389.8,228.4 401.9,231.1 413.9,229.3 426.0,224.8 438.1,232.0 450.1,232.0 462.2,232.0 474.3,222.1 486.3,229.3 498.4,232.0 510.5,214.0 522.5,229.3 534.6,232.0 546.6,232.0 558.7,230.2 570.8,231.1 582.8,231.1 594.9,230.2 607.0,230.2 619.0,232.0 631.1,232.0 643.2,231.1 655.2,232.0 667.3,231.1 679.4,232.0 691.4,232.0 703.5,224.8 715.5,226.6 727.6,231.1 739.7,232.0 751.7,231.1 763.8,231.1 775.9,231.1 787.9,231.1 800.0,232.0"
            fill="none" stroke="#f28e2b"
            stroke-width="2" stroke-linejoin="round"
            stroke-dasharray="5,3"/>

  <!-- dots -->
  <circle cx="52.0" cy="232.0" r="3" fill="#4e79a7"/><circle cx="64.1" cy="231.1" r="3" fill="#4e79a7"/><circle cx="76.1" cy="229.3" r="3" fill="#4e79a7"/><circle cx="88.2" cy="231.1" r="3" fill="#4e79a7"/><circle cx="100.3" cy="229.3" r="3" fill="#4e79a7"/><circle cx="112.3" cy="232.0" r="3" fill="#4e79a7"/><circle cx="124.4" cy="232.0" r="3" fill="#4e79a7"/><circle cx="136.5" cy="232.0" r="3" fill="#4e79a7"/><circle cx="148.5" cy="231.1" r="3" fill="#4e79a7"/><circle cx="160.6" cy="232.0" r="3" fill="#4e79a7"/><circle cx="172.6" cy="232.0" r="3" fill="#4e79a7"/><circle cx="184.7" cy="232.0" r="3" fill="#4e79a7"/><circle cx="196.8" cy="232.0" r="3" fill="#4e79a7"/><circle cx="208.8" cy="231.1" r="3" fill="#4e79a7"/><circle cx="220.9" cy="232.0" r="3" fill="#4e79a7"/><circle cx="233.0" cy="232.0" r="3" fill="#4e79a7"/><circle cx="245.0" cy="232.0" r="3" fill="#4e79a7"/><circle cx="257.1" cy="117.9" r="3" fill="#4e79a7"/><circle cx="269.2" cy="28.0" r="3" fill="#4e79a7"/><circle cx="281.2" cy="222.1" r="3" fill="#4e79a7"/><circle cx="293.3" cy="227.5" r="3" fill="#4e79a7"/><circle cx="305.4" cy="229.3" r="3" fill="#4e79a7"/><circle cx="317.4" cy="228.4" r="3" fill="#4e79a7"/><circle cx="329.5" cy="231.1" r="3" fill="#4e79a7"/><circle cx="341.5" cy="231.1" r="3" fill="#4e79a7"/><circle cx="353.6" cy="230.2" r="3" fill="#4e79a7"/><circle cx="365.7" cy="221.2" r="3" fill="#4e79a7"/><circle cx="377.7" cy="232.0" r="3" fill="#4e79a7"/><circle cx="389.8" cy="228.4" r="3" fill="#4e79a7"/><circle cx="401.9" cy="231.1" r="3" fill="#4e79a7"/><circle cx="413.9" cy="229.3" r="3" fill="#4e79a7"/><circle cx="426.0" cy="224.8" r="3" fill="#4e79a7"/><circle cx="438.1" cy="232.0" r="3" fill="#4e79a7"/><circle cx="450.1" cy="232.0" r="3" fill="#4e79a7"/><circle cx="462.2" cy="232.0" r="3" fill="#4e79a7"/><circle cx="474.3" cy="205.0" r="3" fill="#4e79a7"/><circle cx="486.3" cy="229.3" r="3" fill="#4e79a7"/><circle cx="498.4" cy="232.0" r="3" fill="#4e79a7"/><circle cx="510.5" cy="130.4" r="3" fill="#4e79a7"/><circle cx="522.5" cy="229.3" r="3" fill="#4e79a7"/><circle cx="534.6" cy="232.0" r="3" fill="#4e79a7"/><circle cx="546.6" cy="232.0" r="3" fill="#4e79a7"/><circle cx="558.7" cy="230.2" r="3" fill="#4e79a7"/><circle cx="570.8" cy="231.1" r="3" fill="#4e79a7"/><circle cx="582.8" cy="231.1" r="3" fill="#4e79a7"/><circle cx="594.9" cy="230.2" r="3" fill="#4e79a7"/><circle cx="607.0" cy="230.2" r="3" fill="#4e79a7"/><circle cx="619.0" cy="232.0" r="3" fill="#4e79a7"/><circle cx="631.1" cy="232.0" r="3" fill="#4e79a7"/><circle cx="643.2" cy="231.1" r="3" fill="#4e79a7"/><circle cx="655.2" cy="232.0" r="3" fill="#4e79a7"/><circle cx="667.3" cy="231.1" r="3" fill="#4e79a7"/><circle cx="679.4" cy="232.0" r="3" fill="#4e79a7"/><circle cx="691.4" cy="232.0" r="3" fill="#4e79a7"/><circle cx="703.5" cy="223.9" r="3" fill="#4e79a7"/><circle cx="715.5" cy="226.6" r="3" fill="#4e79a7"/><circle cx="727.6" cy="231.1" r="3" fill="#4e79a7"/><circle cx="739.7" cy="232.0" r="3" fill="#4e79a7"/><circle cx="751.7" cy="231.1" r="3" fill="#4e79a7"/><circle cx="763.8" cy="231.1" r="3" fill="#4e79a7"/><circle cx="775.9" cy="231.1" r="3" fill="#4e79a7"/><circle cx="787.9" cy="231.1" r="3" fill="#4e79a7"/><circle cx="800.0" cy="232.0" r="3" fill="#4e79a7"/>
  <circle cx="52.0" cy="232.0" r="3" fill="#f28e2b"/><circle cx="64.1" cy="231.1" r="3" fill="#f28e2b"/><circle cx="76.1" cy="229.3" r="3" fill="#f28e2b"/><circle cx="88.2" cy="231.1" r="3" fill="#f28e2b"/><circle cx="100.3" cy="229.3" r="3" fill="#f28e2b"/><circle cx="112.3" cy="232.0" r="3" fill="#f28e2b"/><circle cx="124.4" cy="232.0" r="3" fill="#f28e2b"/><circle cx="136.5" cy="232.0" r="3" fill="#f28e2b"/><circle cx="148.5" cy="231.1" r="3" fill="#f28e2b"/><circle cx="160.6" cy="232.0" r="3" fill="#f28e2b"/><circle cx="172.6" cy="232.0" r="3" fill="#f28e2b"/><circle cx="184.7" cy="232.0" r="3" fill="#f28e2b"/><circle cx="196.8" cy="232.0" r="3" fill="#f28e2b"/><circle cx="208.8" cy="231.1" r="3" fill="#f28e2b"/><circle cx="220.9" cy="232.0" r="3" fill="#f28e2b"/><circle cx="233.0" cy="232.0" r="3" fill="#f28e2b"/><circle cx="245.0" cy="232.0" r="3" fill="#f28e2b"/><circle cx="257.1" cy="180.8" r="3" fill="#f28e2b"/><circle cx="269.2" cy="162.8" r="3" fill="#f28e2b"/><circle cx="281.2" cy="229.3" r="3" fill="#f28e2b"/><circle cx="293.3" cy="230.2" r="3" fill="#f28e2b"/><circle cx="305.4" cy="230.2" r="3" fill="#f28e2b"/><circle cx="317.4" cy="228.4" r="3" fill="#f28e2b"/><circle cx="329.5" cy="231.1" r="3" fill="#f28e2b"/><circle cx="341.5" cy="231.1" r="3" fill="#f28e2b"/><circle cx="353.6" cy="230.2" r="3" fill="#f28e2b"/><circle cx="365.7" cy="230.2" r="3" fill="#f28e2b"/><circle cx="377.7" cy="232.0" r="3" fill="#f28e2b"/><circle cx="389.8" cy="228.4" r="3" fill="#f28e2b"/><circle cx="401.9" cy="231.1" r="3" fill="#f28e2b"/><circle cx="413.9" cy="229.3" r="3" fill="#f28e2b"/><circle cx="426.0" cy="224.8" r="3" fill="#f28e2b"/><circle cx="438.1" cy="232.0" r="3" fill="#f28e2b"/><circle cx="450.1" cy="232.0" r="3" fill="#f28e2b"/><circle cx="462.2" cy="232.0" r="3" fill="#f28e2b"/><circle cx="474.3" cy="222.1" r="3" fill="#f28e2b"/><circle cx="486.3" cy="229.3" r="3" fill="#f28e2b"/><circle cx="498.4" cy="232.0" r="3" fill="#f28e2b"/><circle cx="510.5" cy="214.0" r="3" fill="#f28e2b"/><circle cx="522.5" cy="229.3" r="3" fill="#f28e2b"/><circle cx="534.6" cy="232.0" r="3" fill="#f28e2b"/><circle cx="546.6" cy="232.0" r="3" fill="#f28e2b"/><circle cx="558.7" cy="230.2" r="3" fill="#f28e2b"/><circle cx="570.8" cy="231.1" r="3" fill="#f28e2b"/><circle cx="582.8" cy="231.1" r="3" fill="#f28e2b"/><circle cx="594.9" cy="230.2" r="3" fill="#f28e2b"/><circle cx="607.0" cy="230.2" r="3" fill="#f28e2b"/><circle cx="619.0" cy="232.0" r="3" fill="#f28e2b"/><circle cx="631.1" cy="232.0" r="3" fill="#f28e2b"/><circle cx="643.2" cy="231.1" r="3" fill="#f28e2b"/><circle cx="655.2" cy="232.0" r="3" fill="#f28e2b"/><circle cx="667.3" cy="231.1" r="3" fill="#f28e2b"/><circle cx="679.4" cy="232.0" r="3" fill="#f28e2b"/><circle cx="691.4" cy="232.0" r="3" fill="#f28e2b"/><circle cx="703.5" cy="224.8" r="3" fill="#f28e2b"/><circle cx="715.5" cy="226.6" r="3" fill="#f28e2b"/><circle cx="727.6" cy="231.1" r="3" fill="#f28e2b"/><circle cx="739.7" cy="232.0" r="3" fill="#f28e2b"/><circle cx="751.7" cy="231.1" r="3" fill="#f28e2b"/><circle cx="763.8" cy="231.1" r="3" fill="#f28e2b"/><circle cx="775.9" cy="231.1" r="3" fill="#f28e2b"/><circle cx="787.9" cy="231.1" r="3" fill="#f28e2b"/><circle cx="800.0" cy="232.0" r="3" fill="#f28e2b"/>

  <!-- axes -->
  <line x1="52" y1="28" x2="52" y2="232"
        stroke="#cccccc" stroke-width="1"/>
  <line x1="52" y1="232" x2="800" y2="232"
        stroke="#cccccc" stroke-width="1"/>

  <!-- y-axis labels -->
  <text x="47" y="236.0" text-anchor="end" font-size="10" fill="#57606a" font-family="ui-monospace, SFMono-Regular, 'SF Mono', Menlo, monospace">0</text><text x="47" y="191.1" text-anchor="end" font-size="10" fill="#57606a" font-family="ui-monospace, SFMono-Regular, 'SF Mono', Menlo, monospace">50</text><text x="47" y="146.1" text-anchor="end" font-size="10" fill="#57606a" font-family="ui-monospace, SFMono-Regular, 'SF Mono', Menlo, monospace">100</text><text x="47" y="101.2" text-anchor="end" font-size="10" fill="#57606a" font-family="ui-monospace, SFMono-Regular, 'SF Mono', Menlo, monospace">150</text><text x="47" y="56.3" text-anchor="end" font-size="10" fill="#57606a" font-family="ui-monospace, SFMono-Regular, 'SF Mono', Menlo, monospace">200</text><text x="47" y="11.3" text-anchor="end" font-size="10" fill="#57606a" font-family="ui-monospace, SFMono-Regular, 'SF Mono', Menlo, monospace">250</text>

  <!-- x-axis labels -->
  <text x="52.0" y="248" text-anchor="middle" font-size="10" fill="#8c959f" font-family="ui-monospace, SFMono-Regular, 'SF Mono', Menlo, monospace">05-11</text><text x="474.3" y="248" text-anchor="middle" font-size="10" fill="#8c959f" font-family="ui-monospace, SFMono-Regular, 'SF Mono', Menlo, monospace">06-15</text><text x="136.5" y="248" text-anchor="middle" font-size="10" fill="#8c959f" font-family="ui-monospace, SFMono-Regular, 'SF Mono', Menlo, monospace">05-18</text><text x="558.7" y="248" text-anchor="middle" font-size="10" fill="#8c959f" font-family="ui-monospace, SFMono-Regular, 'SF Mono', Menlo, monospace">06-22</text><text x="220.9" y="248" text-anchor="middle" font-size="10" fill="#8c959f" font-family="ui-monospace, SFMono-Regular, 'SF Mono', Menlo, monospace">05-25</text><text x="643.2" y="248" text-anchor="middle" font-size="10" fill="#8c959f" font-family="ui-monospace, SFMono-Regular, 'SF Mono', Menlo, monospace">06-29</text><text x="305.4" y="248" text-anchor="middle" font-size="10" fill="#8c959f" font-family="ui-monospace, SFMono-Regular, 'SF Mono', Menlo, monospace">06-01</text><text x="727.6" y="248" text-anchor="middle" font-size="10" fill="#8c959f" font-family="ui-monospace, SFMono-Regular, 'SF Mono', Menlo, monospace">07-06</text><text x="389.8" y="248" text-anchor="middle" font-size="10" fill="#8c959f" font-family="ui-monospace, SFMono-Regular, 'SF Mono', Menlo, monospace">06-08</text><text x="800.0" y="248" text-anchor="middle" font-size="10" fill="#8c959f" font-family="ui-monospace, SFMono-Regular, 'SF Mono', Menlo, monospace">07-12</text>

  <!-- legend -->
  <rect x="60" y="262" width="16" height="3" fill="#4e79a7" rx="1"/><text x="80" y="268" font-size="11" fill="#57606a" font-family="-apple-system, BlinkMacSystemFont, 'Segoe UI', sans-serif">Total clones (598)</text><line x1="230" y1="264" x2="246" y2="264" stroke="#f28e2b" stroke-width="2" stroke-dasharray="5,3"/><text x="250" y="268" font-size="11" fill="#57606a" font-family="-apple-system, BlinkMacSystemFont, 'Segoe UI', sans-serif">Unique cloners</text>

</svg>