<svg xmlns="http://www.w3.org/2000/svg" viewBox="0 0 820 280" width="820" height="280">

  <!-- title -->
  <text x="52" y="18" font-size="13" font-weight="600"
        fill="#24292f" font-family="-apple-system, BlinkMacSystemFont, 'Segoe UI', sans-serif"
        >Clone traffic — image-view</text>
  <text x="800" y="18" font-size="10" fill="#8c959f"
        font-family="ui-monospace, SFMono-Regular, 'SF Mono', Menlo, monospace" text-anchor="end">2026-06-17</text>

  <!-- grid -->
  <line x1="52" y1="232.0" x2="800" y2="232.0" stroke="#e8e8e8" stroke-width="1"/><line x1="52" y1="187.1" x2="800" y2="187.1" stroke="#e8e8e8" stroke-width="1"/><line x1="52" y1="142.1" x2="800" y2="142.1" stroke="#e8e8e8" stroke-width="1"/><line x1="52" y1="97.2" x2="800" y2="97.2" stroke="#e8e8e8" stroke-width="1"/><line x1="52" y1="52.3" x2="800" y2="52.3" stroke="#e8e8e8" stroke-width="1"/><line x1="52" y1="7.3" x2="800" y2="7.3" stroke="#e8e8e8" stroke-width="1"/>

  <!-- area fill -->
  <path d="M52.0,232.0 L52.0,232.0 L73.4,231.1 L94.7,229.3 L116.1,231.1 L137.5,229.3 L158.9,232.0 L180.2,232.0 L201.6,232.0 L223.0,231.1 L244.3,232.0 L265.7,232.0 L287.1,232.0 L308.5,232.0 L329.8,231.1 L351.2,232.0 L372.6,232.0 L393.9,232.0 L415.3,117.9 L436.7,28.0 L458.1,222.1 L479.4,227.5 L500.8,229.3 L522.2,228.4 L543.5,231.1 L564.9,231.1 L586.3,230.2 L607.7,221.2 L629.0,232.0 L650.4,228.4 L671.8,231.1 L693.1,229.3 L714.5,224.8 L735.9,232.0 L757.3,232.0 L778.6,232.0 L800.0,205.0 L800.0,232.0 L52.0,232.0Z" fill="#4e79a7" opacity="0.12"/>

  <!-- lines -->
  <polyline points="52.0,232.0 73.4,231.1 94.7,229.3 116.1,231.1 137.5,229.3 158.9,232.0 180.2,232.0 201.6,232.0 223.0,231.1 244.3,232.0 265.7,232.0 287.1,232.0 308.5,232.0 329.8,231.1 351.2,232.0 372.6,232.0 393.9,232.0 415.3,117.9 436.7,28.0 458.1,222.1 479.4,227.5 500.8,229.3 522.2,228.4 543.5,231.1 564.9,231.1 586.3,230.2 607.7,221.2 629.0,232.0 650.4,228.4 671.8,231.1 693.1,229.3 714.5,224.8 735.9,232.0 757.3,232.0 778.6,232.0 800.0,205.0"
            fill="none" stroke="#4e79a7"
            stroke-width="2" stroke-linejoin="round"/>
  <polyline points="52.0,232.0 73.4,231.1 94.7,229.3 116.1,231.1 137.5,229.3 158.9,232.0 180.2,232.0 201.6,232.0 223.0,231.1 244.3,232.0 265.7,232.0 287.1,232.0 308.5,232.0 329.8,231.1 351.2,232.0 372.6,232.0 393.9,232.0 415.3,180.8 436.7,162.8 458.1,229.3 479.4,230.2 500.8,230.2 522.2,228.4 543.5,231.1 564.9,231.1 586.3,230.2 607.7,230.2 629.0,232.0 650.4,228.4 671.8,231.1 693.1,229.3 714.5,224.8 735.9,232.0 757.3,232.0 778.6,232.0 800.0,222.1"
            fill="none" stroke="#f28e2b"
            stroke-width="2" stroke-linejoin="round"
            stroke-dasharray="5,3"/>

  <!-- dots -->
  <circle cx="52.0" cy="232.0" r="3" fill="#4e79a7"/><circle cx="73.4" cy="231.1" r="3" fill="#4e79a7"/><circle cx="94.7" cy="229.3" r="3" fill="#4e79a7"/><circle cx="116.1" cy="231.1" r="3" fill="#4e79a7"/><circle cx="137.5" cy="229.3" r="3" fill="#4e79a7"/><circle cx="158.9" cy="232.0" r="3" fill="#4e79a7"/><circle cx="180.2" cy="232.0" r="3" fill="#4e79a7"/><circle cx="201.6" cy="232.0" r="3" fill="#4e79a7"/><circle cx="223.0" cy="231.1" r="3" fill="#4e79a7"/><circle cx="244.3" cy="232.0" r="3" fill="#4e79a7"/><circle cx="265.7" cy="232.0" r="3" fill="#4e79a7"/><circle cx="287.1" cy="232.0" r="3" fill="#4e79a7"/><circle cx="308.5" cy="232.0" r="3" fill="#4e79a7"/><circle cx="329.8" cy="231.1" r="3" fill="#4e79a7"/><circle cx="351.2" cy="232.0" r="3" fill="#4e79a7"/><circle cx="372.6" cy="232.0" r="3" fill="#4e79a7"/><circle cx="393.9" cy="232.0" r="3" fill="#4e79a7"/><circle cx="415.3" cy="117.9" r="3" fill="#4e79a7"/><circle cx="436.7" cy="28.0" r="3" fill="#4e79a7"/><circle cx="458.1" cy="222.1" r="3" fill="#4e79a7"/><circle cx="479.4" cy="227.5" r="3" fill="#4e79a7"/><circle cx="500.8" cy="229.3" r="3" fill="#4e79a7"/><circle cx="522.2" cy="228.4" r="3" fill="#4e79a7"/><circle cx="543.5" cy="231.1" r="3" fill="#4e79a7"/><circle cx="564.9" cy="231.1" r="3" fill="#4e79a7"/><circle cx="586.3" cy="230.2" r="3" fill="#4e79a7"/><circle cx="607.7" cy="221.2" r="3" fill="#4e79a7"/><circle cx="629.0" cy="232.0" r="3" fill="#4e79a7"/><circle cx="650.4" cy="228.4" r="3" fill="#4e79a7"/><circle cx="671.8" cy="231.1" r="3" fill="#4e79a7"/><circle cx="693.1" cy="229.3" r="3" fill="#4e79a7"/><circle cx="714.5" cy="224.8" r="3" fill="#4e79a7"/><circle cx="735.9" cy="232.0" r="3" fill="#4e79a7"/><circle cx="757.3" cy="232.0" r="3" fill="#4e79a7"/><circle cx="778.6" cy="232.0" r="3" fill="#4e79a7"/><circle cx="800.0" cy="205.0" r="3" fill="#4e79a7"/>
  <circle cx="52.0" cy="232.0" r="3" fill="#f28e2b"/><circle cx="73.4" cy="231.1" r="3" fill="#f28e2b"/><circle cx="94.7" cy="229.3" r="3" fill="#f28e2b"/><circle cx="116.1" cy="231.1" r="3" fill="#f28e2b"/><circle cx="137.5" cy="229.3" r="3" fill="#f28e2b"/><circle cx="158.9" cy="232.0" r="3" fill="#f28e2b"/><circle cx="180.2" cy="232.0" r="3" fill="#f28e2b"/><circle cx="201.6" cy="232.0" r="3" fill="#f28e2b"/><circle cx="223.0" cy="231.1" r="3" fill="#f28e2b"/><circle cx="244.3" cy="232.0" r="3" fill="#f28e2b"/><circle cx="265.7" cy="232.0" r="3" fill="#f28e2b"/><circle cx="287.1" cy="232.0" r="3" fill="#f28e2b"/><circle cx="308.5" cy="232.0" r="3" fill="#f28e2b"/><circle cx="329.8" cy="231.1" r="3" fill="#f28e2b"/><circle cx="351.2" cy="232.0" r="3" fill="#f28e2b"/><circle cx="372.6" cy="232.0" r="3" fill="#f28e2b"/><circle cx="393.9" cy="232.0" r="3" fill="#f28e2b"/><circle cx="415.3" cy="180.8" r="3" fill="#f28e2b"/><circle cx="436.7" cy="162.8" r="3" fill="#f28e2b"/><circle cx="458.1" cy="229.3" r="3" fill="#f28e2b"/><circle cx="479.4" cy="230.2" r="3" fill="#f28e2b"/><circle cx="500.8" cy="230.2" r="3" fill="#f28e2b"/><circle cx="522.2" cy="228.4" r="3" fill="#f28e2b"/><circle cx="543.5" cy="231.1" r="3" fill="#f28e2b"/><circle cx="564.9" cy="231.1" r="3" fill="#f28e2b"/><circle cx="586.3" cy="230.2" r="3" fill="#f28e2b"/><circle cx="607.7" cy="230.2" r="3" fill="#f28e2b"/><circle cx="629.0" cy="232.0" r="3" fill="#f28e2b"/><circle cx="650.4" cy="228.4" r="3" fill="#f28e2b"/><circle cx="671.8" cy="231.1" r="3" fill="#f28e2b"/><circle cx="693.1" cy="229.3" r="3" fill="#f28e2b"/><circle cx="714.5" cy="224.8" r="3" fill="#f28e2b"/><circle cx="735.9" cy="232.0" r="3" fill="#f28e2b"/><circle cx="757.3" cy="232.0" r="3" fill="#f28e2b"/><circle cx="778.6" cy="232.0" r="3" fill="#f28e2b"/><circle cx="800.0" cy="222.1" r="3" fill="#f28e2b"/>

  <!-- axes -->
  <line x1="52" y1="28" x2="52" y2="232"
        stroke="#cccccc" stroke-width="1"/>
  <line x1="52" y1="232" x2="800" y2="232"
        stroke="#cccccc" stroke-width="1"/>

  <!-- y-axis labels -->
  <text x="47" y="236.0" text-anchor="end" font-size="10" fill="#57606a" font-family="ui-monospace, SFMono-Regular, 'SF Mono', Menlo, monospace">0</text><text x="47" y="191.1" text-anchor="end" font-size="10" fill="#57606a" font-family="ui-monospace, SFMono-Regular, 'SF Mono', Menlo, monospace">50</text><text x="47" y="146.1" text-anchor="end" font-size="10" fill="#57606a" font-family="ui-monospace, SFMono-Regular, 'SF Mono', Menlo, monospace">100</text><text x="47" y="101.2" text-anchor="end" font-size="10" fill="#57606a" font-family="ui-monospace, SFMono-Regular, 'SF Mono', Menlo, monospace">150</text><text x="47" y="56.3" text-anchor="end" font-size="10" fill="#57606a" font-family="ui-monospace, SFMono-Regular, 'SF Mono', Menlo, monospace">200</text><text x="47" y="11.3" text-anchor="end" font-size="10" fill="#57606a" font-family="ui-monospace, SFMono-Regular, 'SF Mono', Menlo, monospace">250</text>

  <!-- x-axis labels -->
  <text x="52.0" y="248" text-anchor="middle" font-size="10" fill="#8c959f" font-family="ui-monospace, SFMono-Regular, 'SF Mono', Menlo, monospace">05-11</text><text x="735.9" y="248" text-anchor="middle" font-size="10" fill="#8c959f" font-family="ui-monospace, SFMono-Regular, 'SF Mono', Menlo, monospace">06-12</text><text x="800.0" y="248" text-anchor="middle" font-size="10" fill="#8c959f" font-family="ui-monospace, SFMono-Regular, 'SF Mono', Menlo, monospace">06-15</text><text x="137.5" y="248" text-anchor="middle" font-size="10" fill="#8c959f" font-family="ui-monospace, SFMono-Regular, 'SF Mono', Menlo, monospace">05-15</text><text x="223.0" y="248" text-anchor="middle" font-size="10" fill="#8c959f" font-family="ui-monospace, SFMono-Regular, 'SF Mono', Menlo, monospace">05-19</text><text x="308.5" y="248" text-anchor="middle" font-size="10" fill="#8c959f" font-family="ui-monospace, SFMono-Regular, 'SF Mono', Menlo, monospace">05-23</text><text x="393.9" y="248" text-anchor="middle" font-size="10" fill="#8c959f" font-family="ui-monospace, SFMono-Regular, 'SF Mono', Menlo, monospace">05-27</text><text x="479.4" y="248" text-anchor="middle" font-size="10" fill="#8c959f" font-family="ui-monospace, SFMono-Regular, 'SF Mono', Menlo, monospace">05-31</text><text x="564.9" y="248" text-anchor="middle" font-size="10" fill="#8c959f" font-family="ui-monospace, SFMono-Regular, 'SF Mono', Menlo, monospace">06-04</text><text x="650.4" y="248" text-anchor="middle" font-size="10" fill="#8c959f" font-family="ui-monospace, SFMono-Regular, 'SF Mono', Menlo, monospace">06-08</text>

  <!-- legend -->
  <rect x="60" y="262" width="16" height="3" fill="#4e79a7" rx="1"/><text x="80" y="268" font-size="11" fill="#57606a" font-family="-apple-system, BlinkMacSystemFont, 'Segoe UI', sans-serif">Total clones (449)</text><line x1="230" y1="264" x2="246" y2="264" stroke="#f28e2b" stroke-width="2" stroke-dasharray="5,3"/><text x="250" y="268" font-size="11" fill="#57606a" font-family="-apple-system, BlinkMacSystemFont, 'Segoe UI', sans-serif">Unique cloners</text>

</svg>