<svg xmlns="http://www.w3.org/2000/svg" viewBox="0 0 820 280" width="820" height="280">

  <!-- title -->
  <text x="52" y="18" font-size="13" font-weight="600"
        fill="#24292f" font-family="-apple-system, BlinkMacSystemFont, 'Segoe UI', sans-serif"
        >Clone traffic — image-view</text>
  <text x="800" y="18" font-size="10" fill="#8c959f"
        font-family="ui-monospace, SFMono-Regular, 'SF Mono', Menlo, monospace" text-anchor="end">2026-06-18</text>

  <!-- grid -->
  <line x1="52" y1="232.0" x2="800" y2="232.0" stroke="#e8e8e8" stroke-width="1"/><line x1="52" y1="187.1" x2="800" y2="187.1" stroke="#e8e8e8" stroke-width="1"/><line x1="52" y1="142.1" x2="800" y2="142.1" stroke="#e8e8e8" stroke-width="1"/><line x1="52" y1="97.2" x2="800" y2="97.2" stroke="#e8e8e8" stroke-width="1"/><line x1="52" y1="52.3" x2="800" y2="52.3" stroke="#e8e8e8" stroke-width="1"/><line x1="52" y1="7.3" x2="800" y2="7.3" stroke="#e8e8e8" stroke-width="1"/>

  <!-- area fill -->
  <path d="M52.0,232.0 L52.0,232.0 L72.8,231.1 L93.6,229.3 L114.3,231.1 L135.1,229.3 L155.9,232.0 L176.7,232.0 L197.4,232.0 L218.2,231.1 L239.0,232.0 L259.8,232.0 L280.6,232.0 L301.3,232.0 L322.1,231.1 L342.9,232.0 L363.7,232.0 L384.4,232.0 L405.2,117.9 L426.0,28.0 L446.8,222.1 L467.6,227.5 L488.3,229.3 L509.1,228.4 L529.9,231.1 L550.7,231.1 L571.4,230.2 L592.2,221.2 L613.0,232.0 L633.8,228.4 L654.6,231.1 L675.3,229.3 L696.1,224.8 L716.9,232.0 L737.7,232.0 L758.4,232.0 L779.2,205.0 L800.0,229.3 L800.0,232.0 L52.0,232.0Z" fill="#4e79a7" opacity="0.12"/>

  <!-- lines -->
  <polyline points="52.0,232.0 72.8,231.1 93.6,229.3 114.3,231.1 135.1,229.3 155.9,232.0 176.7,232.0 197.4,232.0 218.2,231.1 239.0,232.0 259.8,232.0 280.6,232.0 301.3,232.0 322.1,231.1 342.9,232.0 363.7,232.0 384.4,232.0 405.2,117.9 426.0,28.0 446.8,222.1 467.6,227.5 488.3,229.3 509.1,228.4 529.9,231.1 550.7,231.1 571.4,230.2 592.2,221.2 613.0,232.0 633.8,228.4 654.6,231.1 675.3,229.3 696.1,224.8 716.9,232.0 737.7,232.0 758.4,232.0 779.2,205.0 800.0,229.3"
            fill="none" stroke="#4e79a7"
            stroke-width="2" stroke-linejoin="round"/>
  <polyline points="52.0,232.0 72.8,231.1 93.6,229.3 114.3,231.1 135.1,229.3 155.9,232.0 176.7,232.0 197.4,232.0 218.2,231.1 239.0,232.0 259.8,232.0 280.6,232.0 301.3,232.0 322.1,231.1 342.9,232.0 363.7,232.0 384.4,232.0 405.2,180.8 426.0,162.8 446.8,229.3 467.6,230.2 488.3,230.2 509.1,228.4 529.9,231.1 550.7,231.1 571.4,230.2 592.2,230.2 613.0,232.0 633.8,228.4 654.6,231.1 675.3,229.3 696.1,224.8 716.9,232.0 737.7,232.0 758.4,232.0 779.2,222.1 800.0,229.3"
            fill="none" stroke="#f28e2b"
            stroke-width="2" stroke-linejoin="round"
            stroke-dasharray="5,3"/>

  <!-- dots -->
  <circle cx="52.0" cy="232.0" r="3" fill="#4e79a7"/><circle cx="72.8" cy="231.1" r="3" fill="#4e79a7"/><circle cx="93.6" cy="229.3" r="3" fill="#4e79a7"/><circle cx="114.3" cy="231.1" r="3" fill="#4e79a7"/><circle cx="135.1" cy="229.3" r="3" fill="#4e79a7"/><circle cx="155.9" cy="232.0" r="3" fill="#4e79a7"/><circle cx="176.7" cy="232.0" r="3" fill="#4e79a7"/><circle cx="197.4" cy="232.0" r="3" fill="#4e79a7"/><circle cx="218.2" cy="231.1" r="3" fill="#4e79a7"/><circle cx="239.0" cy="232.0" r="3" fill="#4e79a7"/><circle cx="259.8" cy="232.0" r="3" fill="#4e79a7"/><circle cx="280.6" cy="232.0" r="3" fill="#4e79a7"/><circle cx="301.3" cy="232.0" r="3" fill="#4e79a7"/><circle cx="322.1" cy="231.1" r="3" fill="#4e79a7"/><circle cx="342.9" cy="232.0" r="3" fill="#4e79a7"/><circle cx="363.7" cy="232.0" r="3" fill="#4e79a7"/><circle cx="384.4" cy="232.0" r="3" fill="#4e79a7"/><circle cx="405.2" cy="117.9" r="3" fill="#4e79a7"/><circle cx="426.0" cy="28.0" r="3" fill="#4e79a7"/><circle cx="446.8" cy="222.1" r="3" fill="#4e79a7"/><circle cx="467.6" cy="227.5" r="3" fill="#4e79a7"/><circle cx="488.3" cy="229.3" r="3" fill="#4e79a7"/><circle cx="509.1" cy="228.4" r="3" fill="#4e79a7"/><circle cx="529.9" cy="231.1" r="3" fill="#4e79a7"/><circle cx="550.7" cy="231.1" r="3" fill="#4e79a7"/><circle cx="571.4" cy="230.2" r="3" fill="#4e79a7"/><circle cx="592.2" cy="221.2" r="3" fill="#4e79a7"/><circle cx="613.0" cy="232.0" r="3" fill="#4e79a7"/><circle cx="633.8" cy="228.4" r="3" fill="#4e79a7"/><circle cx="654.6" cy="231.1" r="3" fill="#4e79a7"/><circle cx="675.3" cy="229.3" r="3" fill="#4e79a7"/><circle cx="696.1" cy="224.8" r="3" fill="#4e79a7"/><circle cx="716.9" cy="232.0" r="3" fill="#4e79a7"/><circle cx="737.7" cy="232.0" r="3" fill="#4e79a7"/><circle cx="758.4" cy="232.0" r="3" fill="#4e79a7"/><circle cx="779.2" cy="205.0" r="3" fill="#4e79a7"/><circle cx="800.0" cy="229.3" r="3" fill="#4e79a7"/>
  <circle cx="52.0" cy="232.0" r="3" fill="#f28e2b"/><circle cx="72.8" cy="231.1" r="3" fill="#f28e2b"/><circle cx="93.6" cy="229.3" r="3" fill="#f28e2b"/><circle cx="114.3" cy="231.1" r="3" fill="#f28e2b"/><circle cx="135.1" cy="229.3" r="3" fill="#f28e2b"/><circle cx="155.9" cy="232.0" r="3" fill="#f28e2b"/><circle cx="176.7" cy="232.0" r="3" fill="#f28e2b"/><circle cx="197.4" cy="232.0" r="3" fill="#f28e2b"/><circle cx="218.2" cy="231.1" r="3" fill="#f28e2b"/><circle cx="239.0" cy="232.0" r="3" fill="#f28e2b"/><circle cx="259.8" cy="232.0" r="3" fill="#f28e2b"/><circle cx="280.6" cy="232.0" r="3" fill="#f28e2b"/><circle cx="301.3" cy="232.0" r="3" fill="#f28e2b"/><circle cx="322.1" cy="231.1" r="3" fill="#f28e2b"/><circle cx="342.9" cy="232.0" r="3" fill="#f28e2b"/><circle cx="363.7" cy="232.0" r="3" fill="#f28e2b"/><circle cx="384.4" cy="232.0" r="3" fill="#f28e2b"/><circle cx="405.2" cy="180.8" r="3" fill="#f28e2b"/><circle cx="426.0" cy="162.8" r="3" fill="#f28e2b"/><circle cx="446.8" cy="229.3" r="3" fill="#f28e2b"/><circle cx="467.6" cy="230.2" r="3" fill="#f28e2b"/><circle cx="488.3" cy="230.2" r="3" fill="#f28e2b"/><circle cx="509.1" cy="228.4" r="3" fill="#f28e2b"/><circle cx="529.9" cy="231.1" r="3" fill="#f28e2b"/><circle cx="550.7" cy="231.1" r="3" fill="#f28e2b"/><circle cx="571.4" cy="230.2" r="3" fill="#f28e2b"/><circle cx="592.2" cy="230.2" r="3" fill="#f28e2b"/><circle cx="613.0" cy="232.0" r="3" fill="#f28e2b"/><circle cx="633.8" cy="228.4" r="3" fill="#f28e2b"/><circle cx="654.6" cy="231.1" r="3" fill="#f28e2b"/><circle cx="675.3" cy="229.3" r="3" fill="#f28e2b"/><circle cx="696.1" cy="224.8" r="3" fill="#f28e2b"/><circle cx="716.9" cy="232.0" r="3" fill="#f28e2b"/><circle cx="737.7" cy="232.0" r="3" fill="#f28e2b"/><circle cx="758.4" cy="232.0" r="3" fill="#f28e2b"/><circle cx="779.2" cy="222.1" r="3" fill="#f28e2b"/><circle cx="800.0" cy="229.3" r="3" fill="#f28e2b"/>

  <!-- axes -->
  <line x1="52" y1="28" x2="52" y2="232"
        stroke="#cccccc" stroke-width="1"/>
  <line x1="52" y1="232" x2="800" y2="232"
        stroke="#cccccc" stroke-width="1"/>

  <!-- y-axis labels -->
  <text x="47" y="236.0" text-anchor="end" font-size="10" fill="#57606a" font-family="ui-monospace, SFMono-Regular, 'SF Mono', Menlo, monospace">0</text><text x="47" y="191.1" text-anchor="end" font-size="10" fill="#57606a" font-family="ui-monospace, SFMono-Regular, 'SF Mono', Menlo, monospace">50</text><text x="47" y="146.1" text-anchor="end" font-size="10" fill="#57606a" font-family="ui-monospace, SFMono-Regular, 'SF Mono', Menlo, monospace">100</text><text x="47" y="101.2" text-anchor="end" font-size="10" fill="#57606a" font-family="ui-monospace, SFMono-Regular, 'SF Mono', Menlo, monospace">150</text><text x="47" y="56.3" text-anchor="end" font-size="10" fill="#57606a" font-family="ui-monospace, SFMono-Regular, 'SF Mono', Menlo, monospace">200</text><text x="47" y="11.3" text-anchor="end" font-size="10" fill="#57606a" font-family="ui-monospace, SFMono-Regular, 'SF Mono', Menlo, monospace">250</text>

  <!-- x-axis labels -->
  <text x="52.0" y="248" text-anchor="middle" font-size="10" fill="#8c959f" font-family="ui-monospace, SFMono-Regular, 'SF Mono', Menlo, monospace">05-11</text><text x="716.9" y="248" text-anchor="middle" font-size="10" fill="#8c959f" font-family="ui-monospace, SFMono-Regular, 'SF Mono', Menlo, monospace">06-12</text><text x="135.1" y="248" text-anchor="middle" font-size="10" fill="#8c959f" font-family="ui-monospace, SFMono-Regular, 'SF Mono', Menlo, monospace">05-15</text><text x="800.0" y="248" text-anchor="middle" font-size="10" fill="#8c959f" font-family="ui-monospace, SFMono-Regular, 'SF Mono', Menlo, monospace">06-16</text><text x="218.2" y="248" text-anchor="middle" font-size="10" fill="#8c959f" font-family="ui-monospace, SFMono-Regular, 'SF Mono', Menlo, monospace">05-19</text><text x="301.3" y="248" text-anchor="middle" font-size="10" fill="#8c959f" font-family="ui-monospace, SFMono-Regular, 'SF Mono', Menlo, monospace">05-23</text><text x="384.4" y="248" text-anchor="middle" font-size="10" fill="#8c959f" font-family="ui-monospace, SFMono-Regular, 'SF Mono', Menlo, monospace">05-27</text><text x="467.6" y="248" text-anchor="middle" font-size="10" fill="#8c959f" font-family="ui-monospace, SFMono-Regular, 'SF Mono', Menlo, monospace">05-31</text><text x="550.7" y="248" text-anchor="middle" font-size="10" fill="#8c959f" font-family="ui-monospace, SFMono-Regular, 'SF Mono', Menlo, monospace">06-04</text><text x="633.8" y="248" text-anchor="middle" font-size="10" fill="#8c959f" font-family="ui-monospace, SFMono-Regular, 'SF Mono', Menlo, monospace">06-08</text>

  <!-- legend -->
  <rect x="60" y="262" width="16" height="3" fill="#4e79a7" rx="1"/><text x="80" y="268" font-size="11" fill="#57606a" font-family="-apple-system, BlinkMacSystemFont, 'Segoe UI', sans-serif">Total clones (452)</text><line x1="230" y1="264" x2="246" y2="264" stroke="#f28e2b" stroke-width="2" stroke-dasharray="5,3"/><text x="250" y="268" font-size="11" fill="#57606a" font-family="-apple-system, BlinkMacSystemFont, 'Segoe UI', sans-serif">Unique cloners</text>

</svg>