<svg xmlns="http://www.w3.org/2000/svg" viewBox="0 0 820 280" width="820" height="280">

  <!-- title -->
  <text x="52" y="18" font-size="13" font-weight="600"
        fill="#24292f" font-family="-apple-system, BlinkMacSystemFont, 'Segoe UI', sans-serif"
        >Clone traffic — image-view</text>
  <text x="800" y="18" font-size="10" fill="#8c959f"
        font-family="ui-monospace, SFMono-Regular, 'SF Mono', Menlo, monospace" text-anchor="end">2026-07-01</text>

  <!-- grid -->
  <line x1="52" y1="232.0" x2="800" y2="232.0" stroke="#e8e8e8" stroke-width="1"/><line x1="52" y1="187.1" x2="800" y2="187.1" stroke="#e8e8e8" stroke-width="1"/><line x1="52" y1="142.1" x2="800" y2="142.1" stroke="#e8e8e8" stroke-width="1"/><line x1="52" y1="97.2" x2="800" y2="97.2" stroke="#e8e8e8" stroke-width="1"/><line x1="52" y1="52.3" x2="800" y2="52.3" stroke="#e8e8e8" stroke-width="1"/><line x1="52" y1="7.3" x2="800" y2="7.3" stroke="#e8e8e8" stroke-width="1"/>

  <!-- area fill -->
  <path d="M52.0,232.0 L52.0,232.0 L67.3,231.1 L82.5,229.3 L97.8,231.1 L113.1,229.3 L128.3,232.0 L143.6,232.0 L158.9,232.0 L174.1,231.1 L189.4,232.0 L204.7,232.0 L219.9,232.0 L235.2,232.0 L250.4,231.1 L265.7,232.0 L281.0,232.0 L296.2,232.0 L311.5,117.9 L326.8,28.0 L342.0,222.1 L357.3,227.5 L372.6,229.3 L387.8,228.4 L403.1,231.1 L418.4,231.1 L433.6,230.2 L448.9,221.2 L464.2,232.0 L479.4,228.4 L494.7,231.1 L510.0,229.3 L525.2,224.8 L540.5,232.0 L555.8,232.0 L571.0,232.0 L586.3,205.0 L601.6,229.3 L616.8,232.0 L632.1,130.4 L647.3,229.3 L662.6,232.0 L677.9,232.0 L693.1,230.2 L708.4,231.1 L723.7,231.1 L738.9,230.2 L754.2,230.2 L769.5,232.0 L784.7,232.0 L800.0,231.1 L800.0,232.0 L52.0,232.0Z" fill="#4e79a7" opacity="0.12"/>

  <!-- lines -->
  <polyline points="52.0,232.0 67.3,231.1 82.5,229.3 97.8,231.1 113.1,229.3 128.3,232.0 143.6,232.0 158.9,232.0 174.1,231.1 189.4,232.0 204.7,232.0 219.9,232.0 235.2,232.0 250.4,231.1 265.7,232.0 281.0,232.0 296.2,232.0 311.5,117.9 326.8,28.0 342.0,222.1 357.3,227.5 372.6,229.3 387.8,228.4 403.1,231.1 418.4,231.1 433.6,230.2 448.9,221.2 464.2,232.0 479.4,228.4 494.7,231.1 510.0,229.3 525.2,224.8 540.5,232.0 555.8,232.0 571.0,232.0 586.3,205.0 601.6,229.3 616.8,232.0 632.1,130.4 647.3,229.3 662.6,232.0 677.9,232.0 693.1,230.2 708.4,231.1 723.7,231.1 738.9,230.2 754.2,230.2 769.5,232.0 784.7,232.0 800.0,231.1"
            fill="none" stroke="#4e79a7"
            stroke-width="2" stroke-linejoin="round"/>
  <polyline points="52.0,232.0 67.3,231.1 82.5,229.3 97.8,231.1 113.1,229.3 128.3,232.0 143.6,232.0 158.9,232.0 174.1,231.1 189.4,232.0 204.7,232.0 219.9,232.0 235.2,232.0 250.4,231.1 265.7,232.0 281.0,232.0 296.2,232.0 311.5,180.8 326.8,162.8 342.0,229.3 357.3,230.2 372.6,230.2 387.8,228.4 403.1,231.1 418.4,231.1 433.6,230.2 448.9,230.2 464.2,232.0 479.4,228.4 494.7,231.1 510.0,229.3 525.2,224.8 540.5,232.0 555.8,232.0 571.0,232.0 586.3,222.1 601.6,229.3 616.8,232.0 632.1,214.0 647.3,229.3 662.6,232.0 677.9,232.0 693.1,230.2 708.4,231.1 723.7,231.1 738.9,230.2 754.2,230.2 769.5,232.0 784.7,232.0 800.0,231.1"
            fill="none" stroke="#f28e2b"
            stroke-width="2" stroke-linejoin="round"
            stroke-dasharray="5,3"/>

  <!-- dots -->
  <circle cx="52.0" cy="232.0" r="3" fill="#4e79a7"/><circle cx="67.3" cy="231.1" r="3" fill="#4e79a7"/><circle cx="82.5" cy="229.3" r="3" fill="#4e79a7"/><circle cx="97.8" cy="231.1" r="3" fill="#4e79a7"/><circle cx="113.1" cy="229.3" r="3" fill="#4e79a7"/><circle cx="128.3" cy="232.0" r="3" fill="#4e79a7"/><circle cx="143.6" cy="232.0" r="3" fill="#4e79a7"/><circle cx="158.9" cy="232.0" r="3" fill="#4e79a7"/><circle cx="174.1" cy="231.1" r="3" fill="#4e79a7"/><circle cx="189.4" cy="232.0" r="3" fill="#4e79a7"/><circle cx="204.7" cy="232.0" r="3" fill="#4e79a7"/><circle cx="219.9" cy="232.0" r="3" fill="#4e79a7"/><circle cx="235.2" cy="232.0" r="3" fill="#4e79a7"/><circle cx="250.4" cy="231.1" r="3" fill="#4e79a7"/><circle cx="265.7" cy="232.0" r="3" fill="#4e79a7"/><circle cx="281.0" cy="232.0" r="3" fill="#4e79a7"/><circle cx="296.2" cy="232.0" r="3" fill="#4e79a7"/><circle cx="311.5" cy="117.9" r="3" fill="#4e79a7"/><circle cx="326.8" cy="28.0" r="3" fill="#4e79a7"/><circle cx="342.0" cy="222.1" r="3" fill="#4e79a7"/><circle cx="357.3" cy="227.5" r="3" fill="#4e79a7"/><circle cx="372.6" cy="229.3" r="3" fill="#4e79a7"/><circle cx="387.8" cy="228.4" r="3" fill="#4e79a7"/><circle cx="403.1" cy="231.1" r="3" fill="#4e79a7"/><circle cx="418.4" cy="231.1" r="3" fill="#4e79a7"/><circle cx="433.6" cy="230.2" r="3" fill="#4e79a7"/><circle cx="448.9" cy="221.2" r="3" fill="#4e79a7"/><circle cx="464.2" cy="232.0" r="3" fill="#4e79a7"/><circle cx="479.4" cy="228.4" r="3" fill="#4e79a7"/><circle cx="494.7" cy="231.1" r="3" fill="#4e79a7"/><circle cx="510.0" cy="229.3" r="3" fill="#4e79a7"/><circle cx="525.2" cy="224.8" r="3" fill="#4e79a7"/><circle cx="540.5" cy="232.0" r="3" fill="#4e79a7"/><circle cx="555.8" cy="232.0" r="3" fill="#4e79a7"/><circle cx="571.0" cy="232.0" r="3" fill="#4e79a7"/><circle cx="586.3" cy="205.0" r="3" fill="#4e79a7"/><circle cx="601.6" cy="229.3" r="3" fill="#4e79a7"/><circle cx="616.8" cy="232.0" r="3" fill="#4e79a7"/><circle cx="632.1" cy="130.4" r="3" fill="#4e79a7"/><circle cx="647.3" cy="229.3" r="3" fill="#4e79a7"/><circle cx="662.6" cy="232.0" r="3" fill="#4e79a7"/><circle cx="677.9" cy="232.0" r="3" fill="#4e79a7"/><circle cx="693.1" cy="230.2" r="3" fill="#4e79a7"/><circle cx="708.4" cy="231.1" r="3" fill="#4e79a7"/><circle cx="723.7" cy="231.1" r="3" fill="#4e79a7"/><circle cx="738.9" cy="230.2" r="3" fill="#4e79a7"/><circle cx="754.2" cy="230.2" r="3" fill="#4e79a7"/><circle cx="769.5" cy="232.0" r="3" fill="#4e79a7"/><circle cx="784.7" cy="232.0" r="3" fill="#4e79a7"/><circle cx="800.0" cy="231.1" r="3" fill="#4e79a7"/>
  <circle cx="52.0" cy="232.0" r="3" fill="#f28e2b"/><circle cx="67.3" cy="231.1" r="3" fill="#f28e2b"/><circle cx="82.5" cy="229.3" r="3" fill="#f28e2b"/><circle cx="97.8" cy="231.1" r="3" fill="#f28e2b"/><circle cx="113.1" cy="229.3" r="3" fill="#f28e2b"/><circle cx="128.3" cy="232.0" r="3" fill="#f28e2b"/><circle cx="143.6" cy="232.0" r="3" fill="#f28e2b"/><circle cx="158.9" cy="232.0" r="3" fill="#f28e2b"/><circle cx="174.1" cy="231.1" r="3" fill="#f28e2b"/><circle cx="189.4" cy="232.0" r="3" fill="#f28e2b"/><circle cx="204.7" cy="232.0" r="3" fill="#f28e2b"/><circle cx="219.9" cy="232.0" r="3" fill="#f28e2b"/><circle cx="235.2" cy="232.0" r="3" fill="#f28e2b"/><circle cx="250.4" cy="231.1" r="3" fill="#f28e2b"/><circle cx="265.7" cy="232.0" r="3" fill="#f28e2b"/><circle cx="281.0" cy="232.0" r="3" fill="#f28e2b"/><circle cx="296.2" cy="232.0" r="3" fill="#f28e2b"/><circle cx="311.5" cy="180.8" r="3" fill="#f28e2b"/><circle cx="326.8" cy="162.8" r="3" fill="#f28e2b"/><circle cx="342.0" cy="229.3" r="3" fill="#f28e2b"/><circle cx="357.3" cy="230.2" r="3" fill="#f28e2b"/><circle cx="372.6" cy="230.2" r="3" fill="#f28e2b"/><circle cx="387.8" cy="228.4" r="3" fill="#f28e2b"/><circle cx="403.1" cy="231.1" r="3" fill="#f28e2b"/><circle cx="418.4" cy="231.1" r="3" fill="#f28e2b"/><circle cx="433.6" cy="230.2" r="3" fill="#f28e2b"/><circle cx="448.9" cy="230.2" r="3" fill="#f28e2b"/><circle cx="464.2" cy="232.0" r="3" fill="#f28e2b"/><circle cx="479.4" cy="228.4" r="3" fill="#f28e2b"/><circle cx="494.7" cy="231.1" r="3" fill="#f28e2b"/><circle cx="510.0" cy="229.3" r="3" fill="#f28e2b"/><circle cx="525.2" cy="224.8" r="3" fill="#f28e2b"/><circle cx="540.5" cy="232.0" r="3" fill="#f28e2b"/><circle cx="555.8" cy="232.0" r="3" fill="#f28e2b"/><circle cx="571.0" cy="232.0" r="3" fill="#f28e2b"/><circle cx="586.3" cy="222.1" r="3" fill="#f28e2b"/><circle cx="601.6" cy="229.3" r="3" fill="#f28e2b"/><circle cx="616.8" cy="232.0" r="3" fill="#f28e2b"/><circle cx="632.1" cy="214.0" r="3" fill="#f28e2b"/><circle cx="647.3" cy="229.3" r="3" fill="#f28e2b"/><circle cx="662.6" cy="232.0" r="3" fill="#f28e2b"/><circle cx="677.9" cy="232.0" r="3" fill="#f28e2b"/><circle cx="693.1" cy="230.2" r="3" fill="#f28e2b"/><circle cx="708.4" cy="231.1" r="3" fill="#f28e2b"/><circle cx="723.7" cy="231.1" r="3" fill="#f28e2b"/><circle cx="738.9" cy="230.2" r="3" fill="#f28e2b"/><circle cx="754.2" cy="230.2" r="3" fill="#f28e2b"/><circle cx="769.5" cy="232.0" r="3" fill="#f28e2b"/><circle cx="784.7" cy="232.0" r="3" fill="#f28e2b"/><circle cx="800.0" cy="231.1" r="3" fill="#f28e2b"/>

  <!-- axes -->
  <line x1="52" y1="28" x2="52" y2="232"
        stroke="#cccccc" stroke-width="1"/>
  <line x1="52" y1="232" x2="800" y2="232"
        stroke="#cccccc" stroke-width="1"/>

  <!-- y-axis labels -->
  <text x="47" y="236.0" text-anchor="end" font-size="10" fill="#57606a" font-family="ui-monospace, SFMono-Regular, 'SF Mono', Menlo, monospace">0</text><text x="47" y="191.1" text-anchor="end" font-size="10" fill="#57606a" font-family="ui-monospace, SFMono-Regular, 'SF Mono', Menlo, monospace">50</text><text x="47" y="146.1" text-anchor="end" font-size="10" fill="#57606a" font-family="ui-monospace, SFMono-Regular, 'SF Mono', Menlo, monospace">100</text><text x="47" y="101.2" text-anchor="end" font-size="10" fill="#57606a" font-family="ui-monospace, SFMono-Regular, 'SF Mono', Menlo, monospace">150</text><text x="47" y="56.3" text-anchor="end" font-size="10" fill="#57606a" font-family="ui-monospace, SFMono-Regular, 'SF Mono', Menlo, monospace">200</text><text x="47" y="11.3" text-anchor="end" font-size="10" fill="#57606a" font-family="ui-monospace, SFMono-Regular, 'SF Mono', Menlo, monospace">250</text>

  <!-- x-axis labels -->
  <text x="52.0" y="248" text-anchor="middle" font-size="10" fill="#8c959f" font-family="ui-monospace, SFMono-Regular, 'SF Mono', Menlo, monospace">05-11</text><text x="601.6" y="248" text-anchor="middle" font-size="10" fill="#8c959f" font-family="ui-monospace, SFMono-Regular, 'SF Mono', Menlo, monospace">06-16</text><text x="143.6" y="248" text-anchor="middle" font-size="10" fill="#8c959f" font-family="ui-monospace, SFMono-Regular, 'SF Mono', Menlo, monospace">05-17</text><text x="693.1" y="248" text-anchor="middle" font-size="10" fill="#8c959f" font-family="ui-monospace, SFMono-Regular, 'SF Mono', Menlo, monospace">06-22</text><text x="235.2" y="248" text-anchor="middle" font-size="10" fill="#8c959f" font-family="ui-monospace, SFMono-Regular, 'SF Mono', Menlo, monospace">05-23</text><text x="784.7" y="248" text-anchor="middle" font-size="10" fill="#8c959f" font-family="ui-monospace, SFMono-Regular, 'SF Mono', Menlo, monospace">06-28</text><text x="800.0" y="248" text-anchor="middle" font-size="10" fill="#8c959f" font-family="ui-monospace, SFMono-Regular, 'SF Mono', Menlo, monospace">06-29</text><text x="326.8" y="248" text-anchor="middle" font-size="10" fill="#8c959f" font-family="ui-monospace, SFMono-Regular, 'SF Mono', Menlo, monospace">05-29</text><text x="418.4" y="248" text-anchor="middle" font-size="10" fill="#8c959f" font-family="ui-monospace, SFMono-Regular, 'SF Mono', Menlo, monospace">06-04</text><text x="510.0" y="248" text-anchor="middle" font-size="10" fill="#8c959f" font-family="ui-monospace, SFMono-Regular, 'SF Mono', Menlo, monospace">06-10</text>

  <!-- legend -->
  <rect x="60" y="262" width="16" height="3" fill="#4e79a7" rx="1"/><text x="80" y="268" font-size="11" fill="#57606a" font-family="-apple-system, BlinkMacSystemFont, 'Segoe UI', sans-serif">Total clones (577)</text><line x1="230" y1="264" x2="246" y2="264" stroke="#f28e2b" stroke-width="2" stroke-dasharray="5,3"/><text x="250" y="268" font-size="11" fill="#57606a" font-family="-apple-system, BlinkMacSystemFont, 'Segoe UI', sans-serif">Unique cloners</text>

</svg>