<svg xmlns="http://www.w3.org/2000/svg" viewBox="0 0 820 280" width="820" height="280">

  <!-- title -->
  <text x="52" y="18" font-size="13" font-weight="600"
        fill="#24292f" font-family="-apple-system, BlinkMacSystemFont, 'Segoe UI', sans-serif"
        >Clone traffic — image-view</text>
  <text x="800" y="18" font-size="10" fill="#8c959f"
        font-family="ui-monospace, SFMono-Regular, 'SF Mono', Menlo, monospace" text-anchor="end">2026-07-21</text>

  <!-- grid -->
  <line x1="52" y1="232.0" x2="800" y2="232.0" stroke="#e8e8e8" stroke-width="1"/><line x1="52" y1="187.1" x2="800" y2="187.1" stroke="#e8e8e8" stroke-width="1"/><line x1="52" y1="142.1" x2="800" y2="142.1" stroke="#e8e8e8" stroke-width="1"/><line x1="52" y1="97.2" x2="800" y2="97.2" stroke="#e8e8e8" stroke-width="1"/><line x1="52" y1="52.3" x2="800" y2="52.3" stroke="#e8e8e8" stroke-width="1"/><line x1="52" y1="7.3" x2="800" y2="7.3" stroke="#e8e8e8" stroke-width="1"/>

  <!-- area fill -->
  <path d="M52.0,232.0 L52.0,232.0 L62.8,231.1 L73.7,229.3 L84.5,231.1 L95.4,229.3 L106.2,232.0 L117.0,232.0 L127.9,232.0 L138.7,231.1 L149.6,232.0 L160.4,232.0 L171.2,232.0 L182.1,232.0 L192.9,231.1 L203.8,232.0 L214.6,232.0 L225.4,232.0 L236.3,117.9 L247.1,28.0 L258.0,222.1 L268.8,227.5 L279.7,229.3 L290.5,228.4 L301.3,231.1 L312.2,231.1 L323.0,230.2 L333.9,221.2 L344.7,232.0 L355.5,228.4 L366.4,231.1 L377.2,229.3 L388.1,224.8 L398.9,232.0 L409.7,232.0 L420.6,232.0 L431.4,205.0 L442.3,229.3 L453.1,232.0 L463.9,130.4 L474.8,229.3 L485.6,232.0 L496.5,232.0 L507.3,230.2 L518.1,231.1 L529.0,231.1 L539.8,230.2 L550.7,230.2 L561.5,232.0 L572.3,232.0 L583.2,231.1 L594.0,232.0 L604.9,231.1 L615.7,232.0 L626.6,232.0 L637.4,223.9 L648.2,226.6 L659.1,231.1 L669.9,232.0 L680.8,231.1 L691.6,231.1 L702.4,231.1 L713.3,231.1 L724.1,232.0 L735.0,232.0 L745.8,230.2 L756.6,232.0 L767.5,232.0 L778.3,230.2 L789.2,231.1 L800.0,232.0 L800.0,232.0 L52.0,232.0Z" fill="#4e79a7" opacity="0.12"/>

  <!-- lines -->
  <polyline points="52.0,232.0 62.8,231.1 73.7,229.3 84.5,231.1 95.4,229.3 106.2,232.0 117.0,232.0 127.9,232.0 138.7,231.1 149.6,232.0 160.4,232.0 171.2,232.0 182.1,232.0 192.9,231.1 203.8,232.0 214.6,232.0 225.4,232.0 236.3,117.9 247.1,28.0 258.0,222.1 268.8,227.5 279.7,229.3 290.5,228.4 301.3,231.1 312.2,231.1 323.0,230.2 333.9,221.2 344.7,232.0 355.5,228.4 366.4,231.1 377.2,229.3 388.1,224.8 398.9,232.0 409.7,232.0 420.6,232.0 431.4,205.0 442.3,229.3 453.1,232.0 463.9,130.4 474.8,229.3 485.6,232.0 496.5,232.0 507.3,230.2 518.1,231.1 529.0,231.1 539.8,230.2 550.7,230.2 561.5,232.0 572.3,232.0 583.2,231.1 594.0,232.0 604.9,231.1 615.7,232.0 626.6,232.0 637.4,223.9 648.2,226.6 659.1,231.1 669.9,232.0 680.8,231.1 691.6,231.1 702.4,231.1 713.3,231.1 724.1,232.0 735.0,232.0 745.8,230.2 756.6,232.0 767.5,232.0 778.3,230.2 789.2,231.1 800.0,232.0"
            fill="none" stroke="#4e79a7"
            stroke-width="2" stroke-linejoin="round"/>
  <polyline points="52.0,232.0 62.8,231.1 73.7,229.3 84.5,231.1 95.4,229.3 106.2,232.0 117.0,232.0 127.9,232.0 138.7,231.1 149.6,232.0 160.4,232.0 171.2,232.0 182.1,232.0 192.9,231.1 203.8,232.0 214.6,232.0 225.4,232.0 236.3,180.8 247.1,162.8 258.0,229.3 268.8,230.2 279.7,230.2 290.5,228.4 301.3,231.1 312.2,231.1 323.0,230.2 333.9,230.2 344.7,232.0 355.5,228.4 366.4,231.1 377.2,229.3 388.1,224.8 398.9,232.0 409.7,232.0 420.6,232.0 431.4,222.1 442.3,229.3 453.1,232.0 463.9,214.0 474.8,229.3 485.6,232.0 496.5,232.0 507.3,230.2 518.1,231.1 529.0,231.1 539.8,230.2 550.7,230.2 561.5,232.0 572.3,232.0 583.2,231.1 594.0,232.0 604.9,231.1 615.7,232.0 626.6,232.0 637.4,224.8 648.2,226.6 659.1,231.1 669.9,232.0 680.8,231.1 691.6,231.1 702.4,231.1 713.3,231.1 724.1,232.0 735.0,232.0 745.8,230.2 756.6,232.0 767.5,232.0 778.3,230.2 789.2,231.1 800.0,232.0"
            fill="none" stroke="#f28e2b"
            stroke-width="2" stroke-linejoin="round"
            stroke-dasharray="5,3"/>

  <!-- dots -->
  <circle cx="52.0" cy="232.0" r="3" fill="#4e79a7"/><circle cx="62.8" cy="231.1" r="3" fill="#4e79a7"/><circle cx="73.7" cy="229.3" r="3" fill="#4e79a7"/><circle cx="84.5" cy="231.1" r="3" fill="#4e79a7"/><circle cx="95.4" cy="229.3" r="3" fill="#4e79a7"/><circle cx="106.2" cy="232.0" r="3" fill="#4e79a7"/><circle cx="117.0" cy="232.0" r="3" fill="#4e79a7"/><circle cx="127.9" cy="232.0" r="3" fill="#4e79a7"/><circle cx="138.7" cy="231.1" r="3" fill="#4e79a7"/><circle cx="149.6" cy="232.0" r="3" fill="#4e79a7"/><circle cx="160.4" cy="232.0" r="3" fill="#4e79a7"/><circle cx="171.2" cy="232.0" r="3" fill="#4e79a7"/><circle cx="182.1" cy="232.0" r="3" fill="#4e79a7"/><circle cx="192.9" cy="231.1" r="3" fill="#4e79a7"/><circle cx="203.8" cy="232.0" r="3" fill="#4e79a7"/><circle cx="214.6" cy="232.0" r="3" fill="#4e79a7"/><circle cx="225.4" cy="232.0" r="3" fill="#4e79a7"/><circle cx="236.3" cy="117.9" r="3" fill="#4e79a7"/><circle cx="247.1" cy="28.0" r="3" fill="#4e79a7"/><circle cx="258.0" cy="222.1" r="3" fill="#4e79a7"/><circle cx="268.8" cy="227.5" r="3" fill="#4e79a7"/><circle cx="279.7" cy="229.3" r="3" fill="#4e79a7"/><circle cx="290.5" cy="228.4" r="3" fill="#4e79a7"/><circle cx="301.3" cy="231.1" r="3" fill="#4e79a7"/><circle cx="312.2" cy="231.1" r="3" fill="#4e79a7"/><circle cx="323.0" cy="230.2" r="3" fill="#4e79a7"/><circle cx="333.9" cy="221.2" r="3" fill="#4e79a7"/><circle cx="344.7" cy="232.0" r="3" fill="#4e79a7"/><circle cx="355.5" cy="228.4" r="3" fill="#4e79a7"/><circle cx="366.4" cy="231.1" r="3" fill="#4e79a7"/><circle cx="377.2" cy="229.3" r="3" fill="#4e79a7"/><circle cx="388.1" cy="224.8" r="3" fill="#4e79a7"/><circle cx="398.9" cy="232.0" r="3" fill="#4e79a7"/><circle cx="409.7" cy="232.0" r="3" fill="#4e79a7"/><circle cx="420.6" cy="232.0" r="3" fill="#4e79a7"/><circle cx="431.4" cy="205.0" r="3" fill="#4e79a7"/><circle cx="442.3" cy="229.3" r="3" fill="#4e79a7"/><circle cx="453.1" cy="232.0" r="3" fill="#4e79a7"/><circle cx="463.9" cy="130.4" r="3" fill="#4e79a7"/><circle cx="474.8" cy="229.3" r="3" fill="#4e79a7"/><circle cx="485.6" cy="232.0" r="3" fill="#4e79a7"/><circle cx="496.5" cy="232.0" r="3" fill="#4e79a7"/><circle cx="507.3" cy="230.2" r="3" fill="#4e79a7"/><circle cx="518.1" cy="231.1" r="3" fill="#4e79a7"/><circle cx="529.0" cy="231.1" r="3" fill="#4e79a7"/><circle cx="539.8" cy="230.2" r="3" fill="#4e79a7"/><circle cx="550.7" cy="230.2" r="3" fill="#4e79a7"/><circle cx="561.5" cy="232.0" r="3" fill="#4e79a7"/><circle cx="572.3" cy="232.0" r="3" fill="#4e79a7"/><circle cx="583.2" cy="231.1" r="3" fill="#4e79a7"/><circle cx="594.0" cy="232.0" r="3" fill="#4e79a7"/><circle cx="604.9" cy="231.1" r="3" fill="#4e79a7"/><circle cx="615.7" cy="232.0" r="3" fill="#4e79a7"/><circle cx="626.6" cy="232.0" r="3" fill="#4e79a7"/><circle cx="637.4" cy="223.9" r="3" fill="#4e79a7"/><circle cx="648.2" cy="226.6" r="3" fill="#4e79a7"/><circle cx="659.1" cy="231.1" r="3" fill="#4e79a7"/><circle cx="669.9" cy="232.0" r="3" fill="#4e79a7"/><circle cx="680.8" cy="231.1" r="3" fill="#4e79a7"/><circle cx="691.6" cy="231.1" r="3" fill="#4e79a7"/><circle cx="702.4" cy="231.1" r="3" fill="#4e79a7"/><circle cx="713.3" cy="231.1" r="3" fill="#4e79a7"/><circle cx="724.1" cy="232.0" r="3" fill="#4e79a7"/><circle cx="735.0" cy="232.0" r="3" fill="#4e79a7"/><circle cx="745.8" cy="230.2" r="3" fill="#4e79a7"/><circle cx="756.6" cy="232.0" r="3" fill="#4e79a7"/><circle cx="767.5" cy="232.0" r="3" fill="#4e79a7"/><circle cx="778.3" cy="230.2" r="3" fill="#4e79a7"/><circle cx="789.2" cy="231.1" r="3" fill="#4e79a7"/><circle cx="800.0" cy="232.0" r="3" fill="#4e79a7"/>
  <circle cx="52.0" cy="232.0" r="3" fill="#f28e2b"/><circle cx="62.8" cy="231.1" r="3" fill="#f28e2b"/><circle cx="73.7" cy="229.3" r="3" fill="#f28e2b"/><circle cx="84.5" cy="231.1" r="3" fill="#f28e2b"/><circle cx="95.4" cy="229.3" r="3" fill="#f28e2b"/><circle cx="106.2" cy="232.0" r="3" fill="#f28e2b"/><circle cx="117.0" cy="232.0" r="3" fill="#f28e2b"/><circle cx="127.9" cy="232.0" r="3" fill="#f28e2b"/><circle cx="138.7" cy="231.1" r="3" fill="#f28e2b"/><circle cx="149.6" cy="232.0" r="3" fill="#f28e2b"/><circle cx="160.4" cy="232.0" r="3" fill="#f28e2b"/><circle cx="171.2" cy="232.0" r="3" fill="#f28e2b"/><circle cx="182.1" cy="232.0" r="3" fill="#f28e2b"/><circle cx="192.9" cy="231.1" r="3" fill="#f28e2b"/><circle cx="203.8" cy="232.0" r="3" fill="#f28e2b"/><circle cx="214.6" cy="232.0" r="3" fill="#f28e2b"/><circle cx="225.4" cy="232.0" r="3" fill="#f28e2b"/><circle cx="236.3" cy="180.8" r="3" fill="#f28e2b"/><circle cx="247.1" cy="162.8" r="3" fill="#f28e2b"/><circle cx="258.0" cy="229.3" r="3" fill="#f28e2b"/><circle cx="268.8" cy="230.2" r="3" fill="#f28e2b"/><circle cx="279.7" cy="230.2" r="3" fill="#f28e2b"/><circle cx="290.5" cy="228.4" r="3" fill="#f28e2b"/><circle cx="301.3" cy="231.1" r="3" fill="#f28e2b"/><circle cx="312.2" cy="231.1" r="3" fill="#f28e2b"/><circle cx="323.0" cy="230.2" r="3" fill="#f28e2b"/><circle cx="333.9" cy="230.2" r="3" fill="#f28e2b"/><circle cx="344.7" cy="232.0" r="3" fill="#f28e2b"/><circle cx="355.5" cy="228.4" r="3" fill="#f28e2b"/><circle cx="366.4" cy="231.1" r="3" fill="#f28e2b"/><circle cx="377.2" cy="229.3" r="3" fill="#f28e2b"/><circle cx="388.1" cy="224.8" r="3" fill="#f28e2b"/><circle cx="398.9" cy="232.0" r="3" fill="#f28e2b"/><circle cx="409.7" cy="232.0" r="3" fill="#f28e2b"/><circle cx="420.6" cy="232.0" r="3" fill="#f28e2b"/><circle cx="431.4" cy="222.1" r="3" fill="#f28e2b"/><circle cx="442.3" cy="229.3" r="3" fill="#f28e2b"/><circle cx="453.1" cy="232.0" r="3" fill="#f28e2b"/><circle cx="463.9" cy="214.0" r="3" fill="#f28e2b"/><circle cx="474.8" cy="229.3" r="3" fill="#f28e2b"/><circle cx="485.6" cy="232.0" r="3" fill="#f28e2b"/><circle cx="496.5" cy="232.0" r="3" fill="#f28e2b"/><circle cx="507.3" cy="230.2" r="3" fill="#f28e2b"/><circle cx="518.1" cy="231.1" r="3" fill="#f28e2b"/><circle cx="529.0" cy="231.1" r="3" fill="#f28e2b"/><circle cx="539.8" cy="230.2" r="3" fill="#f28e2b"/><circle cx="550.7" cy="230.2" r="3" fill="#f28e2b"/><circle cx="561.5" cy="232.0" r="3" fill="#f28e2b"/><circle cx="572.3" cy="232.0" r="3" fill="#f28e2b"/><circle cx="583.2" cy="231.1" r="3" fill="#f28e2b"/><circle cx="594.0" cy="232.0" r="3" fill="#f28e2b"/><circle cx="604.9" cy="231.1" r="3" fill="#f28e2b"/><circle cx="615.7" cy="232.0" r="3" fill="#f28e2b"/><circle cx="626.6" cy="232.0" r="3" fill="#f28e2b"/><circle cx="637.4" cy="224.8" r="3" fill="#f28e2b"/><circle cx="648.2" cy="226.6" r="3" fill="#f28e2b"/><circle cx="659.1" cy="231.1" r="3" fill="#f28e2b"/><circle cx="669.9" cy="232.0" r="3" fill="#f28e2b"/><circle cx="680.8" cy="231.1" r="3" fill="#f28e2b"/><circle cx="691.6" cy="231.1" r="3" fill="#f28e2b"/><circle cx="702.4" cy="231.1" r="3" fill="#f28e2b"/><circle cx="713.3" cy="231.1" r="3" fill="#f28e2b"/><circle cx="724.1" cy="232.0" r="3" fill="#f28e2b"/><circle cx="735.0" cy="232.0" r="3" fill="#f28e2b"/><circle cx="745.8" cy="230.2" r="3" fill="#f28e2b"/><circle cx="756.6" cy="232.0" r="3" fill="#f28e2b"/><circle cx="767.5" cy="232.0" r="3" fill="#f28e2b"/><circle cx="778.3" cy="230.2" r="3" fill="#f28e2b"/><circle cx="789.2" cy="231.1" r="3" fill="#f28e2b"/><circle cx="800.0" cy="232.0" r="3" fill="#f28e2b"/>

  <!-- axes -->
  <line x1="52" y1="28" x2="52" y2="232"
        stroke="#cccccc" stroke-width="1"/>
  <line x1="52" y1="232" x2="800" y2="232"
        stroke="#cccccc" stroke-width="1"/>

  <!-- y-axis labels -->
  <text x="47" y="236.0" text-anchor="end" font-size="10" fill="#57606a" font-family="ui-monospace, SFMono-Regular, 'SF Mono', Menlo, monospace">0</text><text x="47" y="191.1" text-anchor="end" font-size="10" fill="#57606a" font-family="ui-monospace, SFMono-Regular, 'SF Mono', Menlo, monospace">50</text><text x="47" y="146.1" text-anchor="end" font-size="10" fill="#57606a" font-family="ui-monospace, SFMono-Regular, 'SF Mono', Menlo, monospace">100</text><text x="47" y="101.2" text-anchor="end" font-size="10" fill="#57606a" font-family="ui-monospace, SFMono-Regular, 'SF Mono', Menlo, monospace">150</text><text x="47" y="56.3" text-anchor="end" font-size="10" fill="#57606a" font-family="ui-monospace, SFMono-Regular, 'SF Mono', Menlo, monospace">200</text><text x="47" y="11.3" text-anchor="end" font-size="10" fill="#57606a" font-family="ui-monospace, SFMono-Regular, 'SF Mono', Menlo, monospace">250</text>

  <!-- x-axis labels -->
  <text x="52.0" y="248" text-anchor="middle" font-size="10" fill="#8c959f" font-family="ui-monospace, SFMono-Regular, 'SF Mono', Menlo, monospace">05-11</text><text x="398.9" y="248" text-anchor="middle" font-size="10" fill="#8c959f" font-family="ui-monospace, SFMono-Regular, 'SF Mono', Menlo, monospace">06-12</text><text x="745.8" y="248" text-anchor="middle" font-size="10" fill="#8c959f" font-family="ui-monospace, SFMono-Regular, 'SF Mono', Menlo, monospace">07-14</text><text x="800.0" y="248" text-anchor="middle" font-size="10" fill="#8c959f" font-family="ui-monospace, SFMono-Regular, 'SF Mono', Menlo, monospace">07-19</text><text x="138.7" y="248" text-anchor="middle" font-size="10" fill="#8c959f" font-family="ui-monospace, SFMono-Regular, 'SF Mono', Menlo, monospace">05-19</text><text x="485.6" y="248" text-anchor="middle" font-size="10" fill="#8c959f" font-family="ui-monospace, SFMono-Regular, 'SF Mono', Menlo, monospace">06-20</text><text x="225.4" y="248" text-anchor="middle" font-size="10" fill="#8c959f" font-family="ui-monospace, SFMono-Regular, 'SF Mono', Menlo, monospace">05-27</text><text x="572.3" y="248" text-anchor="middle" font-size="10" fill="#8c959f" font-family="ui-monospace, SFMono-Regular, 'SF Mono', Menlo, monospace">06-28</text><text x="312.2" y="248" text-anchor="middle" font-size="10" fill="#8c959f" font-family="ui-monospace, SFMono-Regular, 'SF Mono', Menlo, monospace">06-04</text><text x="659.1" y="248" text-anchor="middle" font-size="10" fill="#8c959f" font-family="ui-monospace, SFMono-Regular, 'SF Mono', Menlo, monospace">07-06</text>

  <!-- legend -->
  <rect x="60" y="262" width="16" height="3" fill="#4e79a7" rx="1"/><text x="80" y="268" font-size="11" fill="#57606a" font-family="-apple-system, BlinkMacSystemFont, 'Segoe UI', sans-serif">Total clones (603)</text><line x1="230" y1="264" x2="246" y2="264" stroke="#f28e2b" stroke-width="2" stroke-dasharray="5,3"/><text x="250" y="268" font-size="11" fill="#57606a" font-family="-apple-system, BlinkMacSystemFont, 'Segoe UI', sans-serif">Unique cloners</text>

</svg>