<svg xmlns="http://www.w3.org/2000/svg" viewBox="0 0 820 280" width="820" height="280">

  <!-- title -->
  <text x="52" y="18" font-size="13" font-weight="600"
        fill="#24292f" font-family="-apple-system, BlinkMacSystemFont, 'Segoe UI', sans-serif"
        >Clone traffic — image-view</text>
  <text x="800" y="18" font-size="10" fill="#8c959f"
        font-family="ui-monospace, SFMono-Regular, 'SF Mono', Menlo, monospace" text-anchor="end">2026-07-10</text>

  <!-- grid -->
  <line x1="52" y1="232.0" x2="800" y2="232.0" stroke="#e8e8e8" stroke-width="1"/><line x1="52" y1="187.1" x2="800" y2="187.1" stroke="#e8e8e8" stroke-width="1"/><line x1="52" y1="142.1" x2="800" y2="142.1" stroke="#e8e8e8" stroke-width="1"/><line x1="52" y1="97.2" x2="800" y2="97.2" stroke="#e8e8e8" stroke-width="1"/><line x1="52" y1="52.3" x2="800" y2="52.3" stroke="#e8e8e8" stroke-width="1"/><line x1="52" y1="7.3" x2="800" y2="7.3" stroke="#e8e8e8" stroke-width="1"/>

  <!-- area fill -->
  <path d="M52.0,232.0 L52.0,232.0 L64.7,231.1 L77.4,229.3 L90.0,231.1 L102.7,229.3 L115.4,232.0 L128.1,232.0 L140.7,232.0 L153.4,231.1 L166.1,232.0 L178.8,232.0 L191.5,232.0 L204.1,232.0 L216.8,231.1 L229.5,232.0 L242.2,232.0 L254.8,232.0 L267.5,117.9 L280.2,28.0 L292.9,222.1 L305.6,227.5 L318.2,229.3 L330.9,228.4 L343.6,231.1 L356.3,231.1 L368.9,230.2 L381.6,221.2 L394.3,232.0 L407.0,228.4 L419.7,231.1 L432.3,229.3 L445.0,224.8 L457.7,232.0 L470.4,232.0 L483.1,232.0 L495.7,205.0 L508.4,229.3 L521.1,232.0 L533.8,130.4 L546.4,229.3 L559.1,232.0 L571.8,232.0 L584.5,230.2 L597.2,231.1 L609.8,231.1 L622.5,230.2 L635.2,230.2 L647.9,232.0 L660.5,232.0 L673.2,231.1 L685.9,232.0 L698.6,231.1 L711.3,232.0 L723.9,232.0 L736.6,223.9 L749.3,226.6 L762.0,231.1 L774.6,232.0 L787.3,231.1 L800.0,231.1 L800.0,232.0 L52.0,232.0Z" fill="#4e79a7" opacity="0.12"/>

  <!-- lines -->
  <polyline points="52.0,232.0 64.7,231.1 77.4,229.3 90.0,231.1 102.7,229.3 115.4,232.0 128.1,232.0 140.7,232.0 153.4,231.1 166.1,232.0 178.8,232.0 191.5,232.0 204.1,232.0 216.8,231.1 229.5,232.0 242.2,232.0 254.8,232.0 267.5,117.9 280.2,28.0 292.9,222.1 305.6,227.5 318.2,229.3 330.9,228.4 343.6,231.1 356.3,231.1 368.9,230.2 381.6,221.2 394.3,232.0 407.0,228.4 419.7,231.1 432.3,229.3 445.0,224.8 457.7,232.0 470.4,232.0 483.1,232.0 495.7,205.0 508.4,229.3 521.1,232.0 533.8,130.4 546.4,229.3 559.1,232.0 571.8,232.0 584.5,230.2 597.2,231.1 609.8,231.1 622.5,230.2 635.2,230.2 647.9,232.0 660.5,232.0 673.2,231.1 685.9,232.0 698.6,231.1 711.3,232.0 723.9,232.0 736.6,223.9 749.3,226.6 762.0,231.1 774.6,232.0 787.3,231.1 800.0,231.1"
            fill="none" stroke="#4e79a7"
            stroke-width="2" stroke-linejoin="round"/>
  <polyline points="52.0,232.0 64.7,231.1 77.4,229.3 90.0,231.1 102.7,229.3 115.4,232.0 128.1,232.0 140.7,232.0 153.4,231.1 166.1,232.0 178.8,232.0 191.5,232.0 204.1,232.0 216.8,231.1 229.5,232.0 242.2,232.0 254.8,232.0 267.5,180.8 280.2,162.8 292.9,229.3 305.6,230.2 318.2,230.2 330.9,228.4 343.6,231.1 356.3,231.1 368.9,230.2 381.6,230.2 394.3,232.0 407.0,228.4 419.7,231.1 432.3,229.3 445.0,224.8 457.7,232.0 470.4,232.0 483.1,232.0 495.7,222.1 508.4,229.3 521.1,232.0 533.8,214.0 546.4,229.3 559.1,232.0 571.8,232.0 584.5,230.2 597.2,231.1 609.8,231.1 622.5,230.2 635.2,230.2 647.9,232.0 660.5,232.0 673.2,231.1 685.9,232.0 698.6,231.1 711.3,232.0 723.9,232.0 736.6,224.8 749.3,226.6 762.0,231.1 774.6,232.0 787.3,231.1 800.0,231.1"
            fill="none" stroke="#f28e2b"
            stroke-width="2" stroke-linejoin="round"
            stroke-dasharray="5,3"/>

  <!-- dots -->
  <circle cx="52.0" cy="232.0" r="3" fill="#4e79a7"/><circle cx="64.7" cy="231.1" r="3" fill="#4e79a7"/><circle cx="77.4" cy="229.3" r="3" fill="#4e79a7"/><circle cx="90.0" cy="231.1" r="3" fill="#4e79a7"/><circle cx="102.7" cy="229.3" r="3" fill="#4e79a7"/><circle cx="115.4" cy="232.0" r="3" fill="#4e79a7"/><circle cx="128.1" cy="232.0" r="3" fill="#4e79a7"/><circle cx="140.7" cy="232.0" r="3" fill="#4e79a7"/><circle cx="153.4" cy="231.1" r="3" fill="#4e79a7"/><circle cx="166.1" cy="232.0" r="3" fill="#4e79a7"/><circle cx="178.8" cy="232.0" r="3" fill="#4e79a7"/><circle cx="191.5" cy="232.0" r="3" fill="#4e79a7"/><circle cx="204.1" cy="232.0" r="3" fill="#4e79a7"/><circle cx="216.8" cy="231.1" r="3" fill="#4e79a7"/><circle cx="229.5" cy="232.0" r="3" fill="#4e79a7"/><circle cx="242.2" cy="232.0" r="3" fill="#4e79a7"/><circle cx="254.8" cy="232.0" r="3" fill="#4e79a7"/><circle cx="267.5" cy="117.9" r="3" fill="#4e79a7"/><circle cx="280.2" cy="28.0" r="3" fill="#4e79a7"/><circle cx="292.9" cy="222.1" r="3" fill="#4e79a7"/><circle cx="305.6" cy="227.5" r="3" fill="#4e79a7"/><circle cx="318.2" cy="229.3" r="3" fill="#4e79a7"/><circle cx="330.9" cy="228.4" r="3" fill="#4e79a7"/><circle cx="343.6" cy="231.1" r="3" fill="#4e79a7"/><circle cx="356.3" cy="231.1" r="3" fill="#4e79a7"/><circle cx="368.9" cy="230.2" r="3" fill="#4e79a7"/><circle cx="381.6" cy="221.2" r="3" fill="#4e79a7"/><circle cx="394.3" cy="232.0" r="3" fill="#4e79a7"/><circle cx="407.0" cy="228.4" r="3" fill="#4e79a7"/><circle cx="419.7" cy="231.1" r="3" fill="#4e79a7"/><circle cx="432.3" cy="229.3" r="3" fill="#4e79a7"/><circle cx="445.0" cy="224.8" r="3" fill="#4e79a7"/><circle cx="457.7" cy="232.0" r="3" fill="#4e79a7"/><circle cx="470.4" cy="232.0" r="3" fill="#4e79a7"/><circle cx="483.1" cy="232.0" r="3" fill="#4e79a7"/><circle cx="495.7" cy="205.0" r="3" fill="#4e79a7"/><circle cx="508.4" cy="229.3" r="3" fill="#4e79a7"/><circle cx="521.1" cy="232.0" r="3" fill="#4e79a7"/><circle cx="533.8" cy="130.4" r="3" fill="#4e79a7"/><circle cx="546.4" cy="229.3" r="3" fill="#4e79a7"/><circle cx="559.1" cy="232.0" r="3" fill="#4e79a7"/><circle cx="571.8" cy="232.0" r="3" fill="#4e79a7"/><circle cx="584.5" cy="230.2" r="3" fill="#4e79a7"/><circle cx="597.2" cy="231.1" r="3" fill="#4e79a7"/><circle cx="609.8" cy="231.1" r="3" fill="#4e79a7"/><circle cx="622.5" cy="230.2" r="3" fill="#4e79a7"/><circle cx="635.2" cy="230.2" r="3" fill="#4e79a7"/><circle cx="647.9" cy="232.0" r="3" fill="#4e79a7"/><circle cx="660.5" cy="232.0" r="3" fill="#4e79a7"/><circle cx="673.2" cy="231.1" r="3" fill="#4e79a7"/><circle cx="685.9" cy="232.0" r="3" fill="#4e79a7"/><circle cx="698.6" cy="231.1" r="3" fill="#4e79a7"/><circle cx="711.3" cy="232.0" r="3" fill="#4e79a7"/><circle cx="723.9" cy="232.0" r="3" fill="#4e79a7"/><circle cx="736.6" cy="223.9" r="3" fill="#4e79a7"/><circle cx="749.3" cy="226.6" r="3" fill="#4e79a7"/><circle cx="762.0" cy="231.1" r="3" fill="#4e79a7"/><circle cx="774.6" cy="232.0" r="3" fill="#4e79a7"/><circle cx="787.3" cy="231.1" r="3" fill="#4e79a7"/><circle cx="800.0" cy="231.1" r="3" fill="#4e79a7"/>
  <circle cx="52.0" cy="232.0" r="3" fill="#f28e2b"/><circle cx="64.7" cy="231.1" r="3" fill="#f28e2b"/><circle cx="77.4" cy="229.3" r="3" fill="#f28e2b"/><circle cx="90.0" cy="231.1" r="3" fill="#f28e2b"/><circle cx="102.7" cy="229.3" r="3" fill="#f28e2b"/><circle cx="115.4" cy="232.0" r="3" fill="#f28e2b"/><circle cx="128.1" cy="232.0" r="3" fill="#f28e2b"/><circle cx="140.7" cy="232.0" r="3" fill="#f28e2b"/><circle cx="153.4" cy="231.1" r="3" fill="#f28e2b"/><circle cx="166.1" cy="232.0" r="3" fill="#f28e2b"/><circle cx="178.8" cy="232.0" r="3" fill="#f28e2b"/><circle cx="191.5" cy="232.0" r="3" fill="#f28e2b"/><circle cx="204.1" cy="232.0" r="3" fill="#f28e2b"/><circle cx="216.8" cy="231.1" r="3" fill="#f28e2b"/><circle cx="229.5" cy="232.0" r="3" fill="#f28e2b"/><circle cx="242.2" cy="232.0" r="3" fill="#f28e2b"/><circle cx="254.8" cy="232.0" r="3" fill="#f28e2b"/><circle cx="267.5" cy="180.8" r="3" fill="#f28e2b"/><circle cx="280.2" cy="162.8" r="3" fill="#f28e2b"/><circle cx="292.9" cy="229.3" r="3" fill="#f28e2b"/><circle cx="305.6" cy="230.2" r="3" fill="#f28e2b"/><circle cx="318.2" cy="230.2" r="3" fill="#f28e2b"/><circle cx="330.9" cy="228.4" r="3" fill="#f28e2b"/><circle cx="343.6" cy="231.1" r="3" fill="#f28e2b"/><circle cx="356.3" cy="231.1" r="3" fill="#f28e2b"/><circle cx="368.9" cy="230.2" r="3" fill="#f28e2b"/><circle cx="381.6" cy="230.2" r="3" fill="#f28e2b"/><circle cx="394.3" cy="232.0" r="3" fill="#f28e2b"/><circle cx="407.0" cy="228.4" r="3" fill="#f28e2b"/><circle cx="419.7" cy="231.1" r="3" fill="#f28e2b"/><circle cx="432.3" cy="229.3" r="3" fill="#f28e2b"/><circle cx="445.0" cy="224.8" r="3" fill="#f28e2b"/><circle cx="457.7" cy="232.0" r="3" fill="#f28e2b"/><circle cx="470.4" cy="232.0" r="3" fill="#f28e2b"/><circle cx="483.1" cy="232.0" r="3" fill="#f28e2b"/><circle cx="495.7" cy="222.1" r="3" fill="#f28e2b"/><circle cx="508.4" cy="229.3" r="3" fill="#f28e2b"/><circle cx="521.1" cy="232.0" r="3" fill="#f28e2b"/><circle cx="533.8" cy="214.0" r="3" fill="#f28e2b"/><circle cx="546.4" cy="229.3" r="3" fill="#f28e2b"/><circle cx="559.1" cy="232.0" r="3" fill="#f28e2b"/><circle cx="571.8" cy="232.0" r="3" fill="#f28e2b"/><circle cx="584.5" cy="230.2" r="3" fill="#f28e2b"/><circle cx="597.2" cy="231.1" r="3" fill="#f28e2b"/><circle cx="609.8" cy="231.1" r="3" fill="#f28e2b"/><circle cx="622.5" cy="230.2" r="3" fill="#f28e2b"/><circle cx="635.2" cy="230.2" r="3" fill="#f28e2b"/><circle cx="647.9" cy="232.0" r="3" fill="#f28e2b"/><circle cx="660.5" cy="232.0" r="3" fill="#f28e2b"/><circle cx="673.2" cy="231.1" r="3" fill="#f28e2b"/><circle cx="685.9" cy="232.0" r="3" fill="#f28e2b"/><circle cx="698.6" cy="231.1" r="3" fill="#f28e2b"/><circle cx="711.3" cy="232.0" r="3" fill="#f28e2b"/><circle cx="723.9" cy="232.0" r="3" fill="#f28e2b"/><circle cx="736.6" cy="224.8" r="3" fill="#f28e2b"/><circle cx="749.3" cy="226.6" r="3" fill="#f28e2b"/><circle cx="762.0" cy="231.1" r="3" fill="#f28e2b"/><circle cx="774.6" cy="232.0" r="3" fill="#f28e2b"/><circle cx="787.3" cy="231.1" r="3" fill="#f28e2b"/><circle cx="800.0" cy="231.1" r="3" fill="#f28e2b"/>

  <!-- axes -->
  <line x1="52" y1="28" x2="52" y2="232"
        stroke="#cccccc" stroke-width="1"/>
  <line x1="52" y1="232" x2="800" y2="232"
        stroke="#cccccc" stroke-width="1"/>

  <!-- y-axis labels -->
  <text x="47" y="236.0" text-anchor="end" font-size="10" fill="#57606a" font-family="ui-monospace, SFMono-Regular, 'SF Mono', Menlo, monospace">0</text><text x="47" y="191.1" text-anchor="end" font-size="10" fill="#57606a" font-family="ui-monospace, SFMono-Regular, 'SF Mono', Menlo, monospace">50</text><text x="47" y="146.1" text-anchor="end" font-size="10" fill="#57606a" font-family="ui-monospace, SFMono-Regular, 'SF Mono', Menlo, monospace">100</text><text x="47" y="101.2" text-anchor="end" font-size="10" fill="#57606a" font-family="ui-monospace, SFMono-Regular, 'SF Mono', Menlo, monospace">150</text><text x="47" y="56.3" text-anchor="end" font-size="10" fill="#57606a" font-family="ui-monospace, SFMono-Regular, 'SF Mono', Menlo, monospace">200</text><text x="47" y="11.3" text-anchor="end" font-size="10" fill="#57606a" font-family="ui-monospace, SFMono-Regular, 'SF Mono', Menlo, monospace">250</text>

  <!-- x-axis labels -->
  <text x="52.0" y="248" text-anchor="middle" font-size="10" fill="#8c959f" font-family="ui-monospace, SFMono-Regular, 'SF Mono', Menlo, monospace">05-11</text><text x="495.7" y="248" text-anchor="middle" font-size="10" fill="#8c959f" font-family="ui-monospace, SFMono-Regular, 'SF Mono', Menlo, monospace">06-15</text><text x="140.7" y="248" text-anchor="middle" font-size="10" fill="#8c959f" font-family="ui-monospace, SFMono-Regular, 'SF Mono', Menlo, monospace">05-18</text><text x="584.5" y="248" text-anchor="middle" font-size="10" fill="#8c959f" font-family="ui-monospace, SFMono-Regular, 'SF Mono', Menlo, monospace">06-22</text><text x="229.5" y="248" text-anchor="middle" font-size="10" fill="#8c959f" font-family="ui-monospace, SFMono-Regular, 'SF Mono', Menlo, monospace">05-25</text><text x="673.2" y="248" text-anchor="middle" font-size="10" fill="#8c959f" font-family="ui-monospace, SFMono-Regular, 'SF Mono', Menlo, monospace">06-29</text><text x="318.2" y="248" text-anchor="middle" font-size="10" fill="#8c959f" font-family="ui-monospace, SFMono-Regular, 'SF Mono', Menlo, monospace">06-01</text><text x="762.0" y="248" text-anchor="middle" font-size="10" fill="#8c959f" font-family="ui-monospace, SFMono-Regular, 'SF Mono', Menlo, monospace">07-06</text><text x="800.0" y="248" text-anchor="middle" font-size="10" fill="#8c959f" font-family="ui-monospace, SFMono-Regular, 'SF Mono', Menlo, monospace">07-09</text><text x="407.0" y="248" text-anchor="middle" font-size="10" fill="#8c959f" font-family="ui-monospace, SFMono-Regular, 'SF Mono', Menlo, monospace">06-08</text>

  <!-- legend -->
  <rect x="60" y="262" width="16" height="3" fill="#4e79a7" rx="1"/><text x="80" y="268" font-size="11" fill="#57606a" font-family="-apple-system, BlinkMacSystemFont, 'Segoe UI', sans-serif">Total clones (596)</text><line x1="230" y1="264" x2="246" y2="264" stroke="#f28e2b" stroke-width="2" stroke-dasharray="5,3"/><text x="250" y="268" font-size="11" fill="#57606a" font-family="-apple-system, BlinkMacSystemFont, 'Segoe UI', sans-serif">Unique cloners</text>

</svg>