<svg xmlns="http://www.w3.org/2000/svg" viewBox="0 0 820 280" width="820" height="280">

  <!-- title -->
  <text x="52" y="18" font-size="13" font-weight="600"
        fill="#24292f" font-family="-apple-system, BlinkMacSystemFont, 'Segoe UI', sans-serif"
        >Clone traffic — image-view</text>
  <text x="800" y="18" font-size="10" fill="#8c959f"
        font-family="ui-monospace, SFMono-Regular, 'SF Mono', Menlo, monospace" text-anchor="end">2026-06-08</text>

  <!-- grid -->
  <line x1="52" y1="232.0" x2="800" y2="232.0" stroke="#e8e8e8" stroke-width="1"/><line x1="52" y1="187.1" x2="800" y2="187.1" stroke="#e8e8e8" stroke-width="1"/><line x1="52" y1="142.1" x2="800" y2="142.1" stroke="#e8e8e8" stroke-width="1"/><line x1="52" y1="97.2" x2="800" y2="97.2" stroke="#e8e8e8" stroke-width="1"/><line x1="52" y1="52.3" x2="800" y2="52.3" stroke="#e8e8e8" stroke-width="1"/><line x1="52" y1="7.3" x2="800" y2="7.3" stroke="#e8e8e8" stroke-width="1"/>

  <!-- area fill -->
  <path d="M52.0,232.0 L52.0,232.0 L80.8,231.1 L109.5,229.3 L138.3,231.1 L167.1,229.3 L195.8,232.0 L224.6,232.0 L253.4,232.0 L282.2,231.1 L310.9,232.0 L339.7,232.0 L368.5,232.0 L397.2,232.0 L426.0,231.1 L454.8,232.0 L483.5,232.0 L512.3,232.0 L541.1,117.9 L569.8,28.0 L598.6,222.1 L627.4,227.5 L656.2,229.3 L684.9,228.4 L713.7,231.1 L742.5,231.1 L771.2,230.2 L800.0,221.2 L800.0,232.0 L52.0,232.0Z" fill="#4e79a7" opacity="0.12"/>

  <!-- lines -->
  <polyline points="52.0,232.0 80.8,231.1 109.5,229.3 138.3,231.1 167.1,229.3 195.8,232.0 224.6,232.0 253.4,232.0 282.2,231.1 310.9,232.0 339.7,232.0 368.5,232.0 397.2,232.0 426.0,231.1 454.8,232.0 483.5,232.0 512.3,232.0 541.1,117.9 569.8,28.0 598.6,222.1 627.4,227.5 656.2,229.3 684.9,228.4 713.7,231.1 742.5,231.1 771.2,230.2 800.0,221.2"
            fill="none" stroke="#4e79a7"
            stroke-width="2" stroke-linejoin="round"/>
  <polyline points="52.0,232.0 80.8,231.1 109.5,229.3 138.3,231.1 167.1,229.3 195.8,232.0 224.6,232.0 253.4,232.0 282.2,231.1 310.9,232.0 339.7,232.0 368.5,232.0 397.2,232.0 426.0,231.1 454.8,232.0 483.5,232.0 512.3,232.0 541.1,180.8 569.8,162.8 598.6,229.3 627.4,230.2 656.2,230.2 684.9,228.4 713.7,231.1 742.5,231.1 771.2,230.2 800.0,230.2"
            fill="none" stroke="#f28e2b"
            stroke-width="2" stroke-linejoin="round"
            stroke-dasharray="5,3"/>

  <!-- dots -->
  <circle cx="52.0" cy="232.0" r="3" fill="#4e79a7"/><circle cx="80.8" cy="231.1" r="3" fill="#4e79a7"/><circle cx="109.5" cy="229.3" r="3" fill="#4e79a7"/><circle cx="138.3" cy="231.1" r="3" fill="#4e79a7"/><circle cx="167.1" cy="229.3" r="3" fill="#4e79a7"/><circle cx="195.8" cy="232.0" r="3" fill="#4e79a7"/><circle cx="224.6" cy="232.0" r="3" fill="#4e79a7"/><circle cx="253.4" cy="232.0" r="3" fill="#4e79a7"/><circle cx="282.2" cy="231.1" r="3" fill="#4e79a7"/><circle cx="310.9" cy="232.0" r="3" fill="#4e79a7"/><circle cx="339.7" cy="232.0" r="3" fill="#4e79a7"/><circle cx="368.5" cy="232.0" r="3" fill="#4e79a7"/><circle cx="397.2" cy="232.0" r="3" fill="#4e79a7"/><circle cx="426.0" cy="231.1" r="3" fill="#4e79a7"/><circle cx="454.8" cy="232.0" r="3" fill="#4e79a7"/><circle cx="483.5" cy="232.0" r="3" fill="#4e79a7"/><circle cx="512.3" cy="232.0" r="3" fill="#4e79a7"/><circle cx="541.1" cy="117.9" r="3" fill="#4e79a7"/><circle cx="569.8" cy="28.0" r="3" fill="#4e79a7"/><circle cx="598.6" cy="222.1" r="3" fill="#4e79a7"/><circle cx="627.4" cy="227.5" r="3" fill="#4e79a7"/><circle cx="656.2" cy="229.3" r="3" fill="#4e79a7"/><circle cx="684.9" cy="228.4" r="3" fill="#4e79a7"/><circle cx="713.7" cy="231.1" r="3" fill="#4e79a7"/><circle cx="742.5" cy="231.1" r="3" fill="#4e79a7"/><circle cx="771.2" cy="230.2" r="3" fill="#4e79a7"/><circle cx="800.0" cy="221.2" r="3" fill="#4e79a7"/>
  <circle cx="52.0" cy="232.0" r="3" fill="#f28e2b"/><circle cx="80.8" cy="231.1" r="3" fill="#f28e2b"/><circle cx="109.5" cy="229.3" r="3" fill="#f28e2b"/><circle cx="138.3" cy="231.1" r="3" fill="#f28e2b"/><circle cx="167.1" cy="229.3" r="3" fill="#f28e2b"/><circle cx="195.8" cy="232.0" r="3" fill="#f28e2b"/><circle cx="224.6" cy="232.0" r="3" fill="#f28e2b"/><circle cx="253.4" cy="232.0" r="3" fill="#f28e2b"/><circle cx="282.2" cy="231.1" r="3" fill="#f28e2b"/><circle cx="310.9" cy="232.0" r="3" fill="#f28e2b"/><circle cx="339.7" cy="232.0" r="3" fill="#f28e2b"/><circle cx="368.5" cy="232.0" r="3" fill="#f28e2b"/><circle cx="397.2" cy="232.0" r="3" fill="#f28e2b"/><circle cx="426.0" cy="231.1" r="3" fill="#f28e2b"/><circle cx="454.8" cy="232.0" r="3" fill="#f28e2b"/><circle cx="483.5" cy="232.0" r="3" fill="#f28e2b"/><circle cx="512.3" cy="232.0" r="3" fill="#f28e2b"/><circle cx="541.1" cy="180.8" r="3" fill="#f28e2b"/><circle cx="569.8" cy="162.8" r="3" fill="#f28e2b"/><circle cx="598.6" cy="229.3" r="3" fill="#f28e2b"/><circle cx="627.4" cy="230.2" r="3" fill="#f28e2b"/><circle cx="656.2" cy="230.2" r="3" fill="#f28e2b"/><circle cx="684.9" cy="228.4" r="3" fill="#f28e2b"/><circle cx="713.7" cy="231.1" r="3" fill="#f28e2b"/><circle cx="742.5" cy="231.1" r="3" fill="#f28e2b"/><circle cx="771.2" cy="230.2" r="3" fill="#f28e2b"/><circle cx="800.0" cy="230.2" r="3" fill="#f28e2b"/>

  <!-- axes -->
  <line x1="52" y1="28" x2="52" y2="232"
        stroke="#cccccc" stroke-width="1"/>
  <line x1="52" y1="232" x2="800" y2="232"
        stroke="#cccccc" stroke-width="1"/>

  <!-- y-axis labels -->
  <text x="47" y="236.0" text-anchor="end" font-size="10" fill="#57606a" font-family="ui-monospace, SFMono-Regular, 'SF Mono', Menlo, monospace">0</text><text x="47" y="191.1" text-anchor="end" font-size="10" fill="#57606a" font-family="ui-monospace, SFMono-Regular, 'SF Mono', Menlo, monospace">50</text><text x="47" y="146.1" text-anchor="end" font-size="10" fill="#57606a" font-family="ui-monospace, SFMono-Regular, 'SF Mono', Menlo, monospace">100</text><text x="47" y="101.2" text-anchor="end" font-size="10" fill="#57606a" font-family="ui-monospace, SFMono-Regular, 'SF Mono', Menlo, monospace">150</text><text x="47" y="56.3" text-anchor="end" font-size="10" fill="#57606a" font-family="ui-monospace, SFMono-Regular, 'SF Mono', Menlo, monospace">200</text><text x="47" y="11.3" text-anchor="end" font-size="10" fill="#57606a" font-family="ui-monospace, SFMono-Regular, 'SF Mono', Menlo, monospace">250</text>

  <!-- x-axis labels -->
  <text x="52.0" y="248" text-anchor="middle" font-size="10" fill="#8c959f" font-family="ui-monospace, SFMono-Regular, 'SF Mono', Menlo, monospace">05-11</text><text x="138.3" y="248" text-anchor="middle" font-size="10" fill="#8c959f" font-family="ui-monospace, SFMono-Regular, 'SF Mono', Menlo, monospace">05-14</text><text x="224.6" y="248" text-anchor="middle" font-size="10" fill="#8c959f" font-family="ui-monospace, SFMono-Regular, 'SF Mono', Menlo, monospace">05-17</text><text x="310.9" y="248" text-anchor="middle" font-size="10" fill="#8c959f" font-family="ui-monospace, SFMono-Regular, 'SF Mono', Menlo, monospace">05-20</text><text x="397.2" y="248" text-anchor="middle" font-size="10" fill="#8c959f" font-family="ui-monospace, SFMono-Regular, 'SF Mono', Menlo, monospace">05-23</text><text x="483.5" y="248" text-anchor="middle" font-size="10" fill="#8c959f" font-family="ui-monospace, SFMono-Regular, 'SF Mono', Menlo, monospace">05-26</text><text x="569.8" y="248" text-anchor="middle" font-size="10" fill="#8c959f" font-family="ui-monospace, SFMono-Regular, 'SF Mono', Menlo, monospace">05-29</text><text x="656.2" y="248" text-anchor="middle" font-size="10" fill="#8c959f" font-family="ui-monospace, SFMono-Regular, 'SF Mono', Menlo, monospace">06-01</text><text x="742.5" y="248" text-anchor="middle" font-size="10" fill="#8c959f" font-family="ui-monospace, SFMono-Regular, 'SF Mono', Menlo, monospace">06-04</text><text x="800.0" y="248" text-anchor="middle" font-size="10" fill="#8c959f" font-family="ui-monospace, SFMono-Regular, 'SF Mono', Menlo, monospace">06-06</text>

  <!-- legend -->
  <rect x="60" y="262" width="16" height="3" fill="#4e79a7" rx="1"/><text x="80" y="268" font-size="11" fill="#57606a" font-family="-apple-system, BlinkMacSystemFont, 'Segoe UI', sans-serif">Total clones (403)</text><line x1="230" y1="264" x2="246" y2="264" stroke="#f28e2b" stroke-width="2" stroke-dasharray="5,3"/><text x="250" y="268" font-size="11" fill="#57606a" font-family="-apple-system, BlinkMacSystemFont, 'Segoe UI', sans-serif">Unique cloners</text>

</svg>