<svg xmlns="http://www.w3.org/2000/svg" viewBox="0 0 820 280" width="820" height="280">

  <!-- title -->
  <text x="52" y="18" font-size="13" font-weight="600"
        fill="#24292f" font-family="-apple-system, BlinkMacSystemFont, 'Segoe UI', sans-serif"
        >Clone traffic — image-view</text>
  <text x="800" y="18" font-size="10" fill="#8c959f"
        font-family="ui-monospace, SFMono-Regular, 'SF Mono', Menlo, monospace" text-anchor="end">2026-06-14</text>

  <!-- grid -->
  <line x1="52" y1="232.0" x2="800" y2="232.0" stroke="#e8e8e8" stroke-width="1"/><line x1="52" y1="187.1" x2="800" y2="187.1" stroke="#e8e8e8" stroke-width="1"/><line x1="52" y1="142.1" x2="800" y2="142.1" stroke="#e8e8e8" stroke-width="1"/><line x1="52" y1="97.2" x2="800" y2="97.2" stroke="#e8e8e8" stroke-width="1"/><line x1="52" y1="52.3" x2="800" y2="52.3" stroke="#e8e8e8" stroke-width="1"/><line x1="52" y1="7.3" x2="800" y2="7.3" stroke="#e8e8e8" stroke-width="1"/>

  <!-- area fill -->
  <path d="M52.0,232.0 L52.0,232.0 L75.4,231.1 L98.8,229.3 L122.1,231.1 L145.5,229.3 L168.9,232.0 L192.2,232.0 L215.6,232.0 L239.0,231.1 L262.4,232.0 L285.8,232.0 L309.1,232.0 L332.5,232.0 L355.9,231.1 L379.2,232.0 L402.6,232.0 L426.0,232.0 L449.4,117.9 L472.8,28.0 L496.1,222.1 L519.5,227.5 L542.9,229.3 L566.2,228.4 L589.6,231.1 L613.0,231.1 L636.4,230.2 L659.8,221.2 L683.1,232.0 L706.5,228.4 L729.9,231.1 L753.2,229.3 L776.6,224.8 L800.0,232.0 L800.0,232.0 L52.0,232.0Z" fill="#4e79a7" opacity="0.12"/>

  <!-- lines -->
  <polyline points="52.0,232.0 75.4,231.1 98.8,229.3 122.1,231.1 145.5,229.3 168.9,232.0 192.2,232.0 215.6,232.0 239.0,231.1 262.4,232.0 285.8,232.0 309.1,232.0 332.5,232.0 355.9,231.1 379.2,232.0 402.6,232.0 426.0,232.0 449.4,117.9 472.8,28.0 496.1,222.1 519.5,227.5 542.9,229.3 566.2,228.4 589.6,231.1 613.0,231.1 636.4,230.2 659.8,221.2 683.1,232.0 706.5,228.4 729.9,231.1 753.2,229.3 776.6,224.8 800.0,232.0"
            fill="none" stroke="#4e79a7"
            stroke-width="2" stroke-linejoin="round"/>
  <polyline points="52.0,232.0 75.4,231.1 98.8,229.3 122.1,231.1 145.5,229.3 168.9,232.0 192.2,232.0 215.6,232.0 239.0,231.1 262.4,232.0 285.8,232.0 309.1,232.0 332.5,232.0 355.9,231.1 379.2,232.0 402.6,232.0 426.0,232.0 449.4,180.8 472.8,162.8 496.1,229.3 519.5,230.2 542.9,230.2 566.2,228.4 589.6,231.1 613.0,231.1 636.4,230.2 659.8,230.2 683.1,232.0 706.5,228.4 729.9,231.1 753.2,229.3 776.6,224.8 800.0,232.0"
            fill="none" stroke="#f28e2b"
            stroke-width="2" stroke-linejoin="round"
            stroke-dasharray="5,3"/>

  <!-- dots -->
  <circle cx="52.0" cy="232.0" r="3" fill="#4e79a7"/><circle cx="75.4" cy="231.1" r="3" fill="#4e79a7"/><circle cx="98.8" cy="229.3" r="3" fill="#4e79a7"/><circle cx="122.1" cy="231.1" r="3" fill="#4e79a7"/><circle cx="145.5" cy="229.3" r="3" fill="#4e79a7"/><circle cx="168.9" cy="232.0" r="3" fill="#4e79a7"/><circle cx="192.2" cy="232.0" r="3" fill="#4e79a7"/><circle cx="215.6" cy="232.0" r="3" fill="#4e79a7"/><circle cx="239.0" cy="231.1" r="3" fill="#4e79a7"/><circle cx="262.4" cy="232.0" r="3" fill="#4e79a7"/><circle cx="285.8" cy="232.0" r="3" fill="#4e79a7"/><circle cx="309.1" cy="232.0" r="3" fill="#4e79a7"/><circle cx="332.5" cy="232.0" r="3" fill="#4e79a7"/><circle cx="355.9" cy="231.1" r="3" fill="#4e79a7"/><circle cx="379.2" cy="232.0" r="3" fill="#4e79a7"/><circle cx="402.6" cy="232.0" r="3" fill="#4e79a7"/><circle cx="426.0" cy="232.0" r="3" fill="#4e79a7"/><circle cx="449.4" cy="117.9" r="3" fill="#4e79a7"/><circle cx="472.8" cy="28.0" r="3" fill="#4e79a7"/><circle cx="496.1" cy="222.1" r="3" fill="#4e79a7"/><circle cx="519.5" cy="227.5" r="3" fill="#4e79a7"/><circle cx="542.9" cy="229.3" r="3" fill="#4e79a7"/><circle cx="566.2" cy="228.4" r="3" fill="#4e79a7"/><circle cx="589.6" cy="231.1" r="3" fill="#4e79a7"/><circle cx="613.0" cy="231.1" r="3" fill="#4e79a7"/><circle cx="636.4" cy="230.2" r="3" fill="#4e79a7"/><circle cx="659.8" cy="221.2" r="3" fill="#4e79a7"/><circle cx="683.1" cy="232.0" r="3" fill="#4e79a7"/><circle cx="706.5" cy="228.4" r="3" fill="#4e79a7"/><circle cx="729.9" cy="231.1" r="3" fill="#4e79a7"/><circle cx="753.2" cy="229.3" r="3" fill="#4e79a7"/><circle cx="776.6" cy="224.8" r="3" fill="#4e79a7"/><circle cx="800.0" cy="232.0" r="3" fill="#4e79a7"/>
  <circle cx="52.0" cy="232.0" r="3" fill="#f28e2b"/><circle cx="75.4" cy="231.1" r="3" fill="#f28e2b"/><circle cx="98.8" cy="229.3" r="3" fill="#f28e2b"/><circle cx="122.1" cy="231.1" r="3" fill="#f28e2b"/><circle cx="145.5" cy="229.3" r="3" fill="#f28e2b"/><circle cx="168.9" cy="232.0" r="3" fill="#f28e2b"/><circle cx="192.2" cy="232.0" r="3" fill="#f28e2b"/><circle cx="215.6" cy="232.0" r="3" fill="#f28e2b"/><circle cx="239.0" cy="231.1" r="3" fill="#f28e2b"/><circle cx="262.4" cy="232.0" r="3" fill="#f28e2b"/><circle cx="285.8" cy="232.0" r="3" fill="#f28e2b"/><circle cx="309.1" cy="232.0" r="3" fill="#f28e2b"/><circle cx="332.5" cy="232.0" r="3" fill="#f28e2b"/><circle cx="355.9" cy="231.1" r="3" fill="#f28e2b"/><circle cx="379.2" cy="232.0" r="3" fill="#f28e2b"/><circle cx="402.6" cy="232.0" r="3" fill="#f28e2b"/><circle cx="426.0" cy="232.0" r="3" fill="#f28e2b"/><circle cx="449.4" cy="180.8" r="3" fill="#f28e2b"/><circle cx="472.8" cy="162.8" r="3" fill="#f28e2b"/><circle cx="496.1" cy="229.3" r="3" fill="#f28e2b"/><circle cx="519.5" cy="230.2" r="3" fill="#f28e2b"/><circle cx="542.9" cy="230.2" r="3" fill="#f28e2b"/><circle cx="566.2" cy="228.4" r="3" fill="#f28e2b"/><circle cx="589.6" cy="231.1" r="3" fill="#f28e2b"/><circle cx="613.0" cy="231.1" r="3" fill="#f28e2b"/><circle cx="636.4" cy="230.2" r="3" fill="#f28e2b"/><circle cx="659.8" cy="230.2" r="3" fill="#f28e2b"/><circle cx="683.1" cy="232.0" r="3" fill="#f28e2b"/><circle cx="706.5" cy="228.4" r="3" fill="#f28e2b"/><circle cx="729.9" cy="231.1" r="3" fill="#f28e2b"/><circle cx="753.2" cy="229.3" r="3" fill="#f28e2b"/><circle cx="776.6" cy="224.8" r="3" fill="#f28e2b"/><circle cx="800.0" cy="232.0" r="3" fill="#f28e2b"/>

  <!-- axes -->
  <line x1="52" y1="28" x2="52" y2="232"
        stroke="#cccccc" stroke-width="1"/>
  <line x1="52" y1="232" x2="800" y2="232"
        stroke="#cccccc" stroke-width="1"/>

  <!-- y-axis labels -->
  <text x="47" y="236.0" text-anchor="end" font-size="10" fill="#57606a" font-family="ui-monospace, SFMono-Regular, 'SF Mono', Menlo, monospace">0</text><text x="47" y="191.1" text-anchor="end" font-size="10" fill="#57606a" font-family="ui-monospace, SFMono-Regular, 'SF Mono', Menlo, monospace">50</text><text x="47" y="146.1" text-anchor="end" font-size="10" fill="#57606a" font-family="ui-monospace, SFMono-Regular, 'SF Mono', Menlo, monospace">100</text><text x="47" y="101.2" text-anchor="end" font-size="10" fill="#57606a" font-family="ui-monospace, SFMono-Regular, 'SF Mono', Menlo, monospace">150</text><text x="47" y="56.3" text-anchor="end" font-size="10" fill="#57606a" font-family="ui-monospace, SFMono-Regular, 'SF Mono', Menlo, monospace">200</text><text x="47" y="11.3" text-anchor="end" font-size="10" fill="#57606a" font-family="ui-monospace, SFMono-Regular, 'SF Mono', Menlo, monospace">250</text>

  <!-- x-axis labels -->
  <text x="52.0" y="248" text-anchor="middle" font-size="10" fill="#8c959f" font-family="ui-monospace, SFMono-Regular, 'SF Mono', Menlo, monospace">05-11</text><text x="800.0" y="248" text-anchor="middle" font-size="10" fill="#8c959f" font-family="ui-monospace, SFMono-Regular, 'SF Mono', Menlo, monospace">06-12</text><text x="145.5" y="248" text-anchor="middle" font-size="10" fill="#8c959f" font-family="ui-monospace, SFMono-Regular, 'SF Mono', Menlo, monospace">05-15</text><text x="239.0" y="248" text-anchor="middle" font-size="10" fill="#8c959f" font-family="ui-monospace, SFMono-Regular, 'SF Mono', Menlo, monospace">05-19</text><text x="332.5" y="248" text-anchor="middle" font-size="10" fill="#8c959f" font-family="ui-monospace, SFMono-Regular, 'SF Mono', Menlo, monospace">05-23</text><text x="426.0" y="248" text-anchor="middle" font-size="10" fill="#8c959f" font-family="ui-monospace, SFMono-Regular, 'SF Mono', Menlo, monospace">05-27</text><text x="519.5" y="248" text-anchor="middle" font-size="10" fill="#8c959f" font-family="ui-monospace, SFMono-Regular, 'SF Mono', Menlo, monospace">05-31</text><text x="613.0" y="248" text-anchor="middle" font-size="10" fill="#8c959f" font-family="ui-monospace, SFMono-Regular, 'SF Mono', Menlo, monospace">06-04</text><text x="706.5" y="248" text-anchor="middle" font-size="10" fill="#8c959f" font-family="ui-monospace, SFMono-Regular, 'SF Mono', Menlo, monospace">06-08</text>

  <!-- legend -->
  <rect x="60" y="262" width="16" height="3" fill="#4e79a7" rx="1"/><text x="80" y="268" font-size="11" fill="#57606a" font-family="-apple-system, BlinkMacSystemFont, 'Segoe UI', sans-serif">Total clones (419)</text><line x1="230" y1="264" x2="246" y2="264" stroke="#f28e2b" stroke-width="2" stroke-dasharray="5,3"/><text x="250" y="268" font-size="11" fill="#57606a" font-family="-apple-system, BlinkMacSystemFont, 'Segoe UI', sans-serif">Unique cloners</text>

</svg>