<svg xmlns="http://www.w3.org/2000/svg" viewBox="0 0 820 280" width="820" height="280">

  <!-- title -->
  <text x="52" y="18" font-size="13" font-weight="600"
        fill="#24292f" font-family="-apple-system, BlinkMacSystemFont, 'Segoe UI', sans-serif"
        >Clone traffic — image-view</text>
  <text x="800" y="18" font-size="10" fill="#8c959f"
        font-family="ui-monospace, SFMono-Regular, 'SF Mono', Menlo, monospace" text-anchor="end">2026-06-16</text>

  <!-- grid -->
  <line x1="52" y1="232.0" x2="800" y2="232.0" stroke="#e8e8e8" stroke-width="1"/><line x1="52" y1="187.1" x2="800" y2="187.1" stroke="#e8e8e8" stroke-width="1"/><line x1="52" y1="142.1" x2="800" y2="142.1" stroke="#e8e8e8" stroke-width="1"/><line x1="52" y1="97.2" x2="800" y2="97.2" stroke="#e8e8e8" stroke-width="1"/><line x1="52" y1="52.3" x2="800" y2="52.3" stroke="#e8e8e8" stroke-width="1"/><line x1="52" y1="7.3" x2="800" y2="7.3" stroke="#e8e8e8" stroke-width="1"/>

  <!-- area fill -->
  <path d="M52.0,232.0 L52.0,232.0 L74.0,231.1 L96.0,229.3 L118.0,231.1 L140.0,229.3 L162.0,232.0 L184.0,232.0 L206.0,232.0 L228.0,231.1 L250.0,232.0 L272.0,232.0 L294.0,232.0 L316.0,232.0 L338.0,231.1 L360.0,232.0 L382.0,232.0 L404.0,232.0 L426.0,117.9 L448.0,28.0 L470.0,222.1 L492.0,227.5 L514.0,229.3 L536.0,228.4 L558.0,231.1 L580.0,231.1 L602.0,230.2 L624.0,221.2 L646.0,232.0 L668.0,228.4 L690.0,231.1 L712.0,229.3 L734.0,224.8 L756.0,232.0 L778.0,232.0 L800.0,232.0 L800.0,232.0 L52.0,232.0Z" fill="#4e79a7" opacity="0.12"/>

  <!-- lines -->
  <polyline points="52.0,232.0 74.0,231.1 96.0,229.3 118.0,231.1 140.0,229.3 162.0,232.0 184.0,232.0 206.0,232.0 228.0,231.1 250.0,232.0 272.0,232.0 294.0,232.0 316.0,232.0 338.0,231.1 360.0,232.0 382.0,232.0 404.0,232.0 426.0,117.9 448.0,28.0 470.0,222.1 492.0,227.5 514.0,229.3 536.0,228.4 558.0,231.1 580.0,231.1 602.0,230.2 624.0,221.2 646.0,232.0 668.0,228.4 690.0,231.1 712.0,229.3 734.0,224.8 756.0,232.0 778.0,232.0 800.0,232.0"
            fill="none" stroke="#4e79a7"
            stroke-width="2" stroke-linejoin="round"/>
  <polyline points="52.0,232.0 74.0,231.1 96.0,229.3 118.0,231.1 140.0,229.3 162.0,232.0 184.0,232.0 206.0,232.0 228.0,231.1 250.0,232.0 272.0,232.0 294.0,232.0 316.0,232.0 338.0,231.1 360.0,232.0 382.0,232.0 404.0,232.0 426.0,180.8 448.0,162.8 470.0,229.3 492.0,230.2 514.0,230.2 536.0,228.4 558.0,231.1 580.0,231.1 602.0,230.2 624.0,230.2 646.0,232.0 668.0,228.4 690.0,231.1 712.0,229.3 734.0,224.8 756.0,232.0 778.0,232.0 800.0,232.0"
            fill="none" stroke="#f28e2b"
            stroke-width="2" stroke-linejoin="round"
            stroke-dasharray="5,3"/>

  <!-- dots -->
  <circle cx="52.0" cy="232.0" r="3" fill="#4e79a7"/><circle cx="74.0" cy="231.1" r="3" fill="#4e79a7"/><circle cx="96.0" cy="229.3" r="3" fill="#4e79a7"/><circle cx="118.0" cy="231.1" r="3" fill="#4e79a7"/><circle cx="140.0" cy="229.3" r="3" fill="#4e79a7"/><circle cx="162.0" cy="232.0" r="3" fill="#4e79a7"/><circle cx="184.0" cy="232.0" r="3" fill="#4e79a7"/><circle cx="206.0" cy="232.0" r="3" fill="#4e79a7"/><circle cx="228.0" cy="231.1" r="3" fill="#4e79a7"/><circle cx="250.0" cy="232.0" r="3" fill="#4e79a7"/><circle cx="272.0" cy="232.0" r="3" fill="#4e79a7"/><circle cx="294.0" cy="232.0" r="3" fill="#4e79a7"/><circle cx="316.0" cy="232.0" r="3" fill="#4e79a7"/><circle cx="338.0" cy="231.1" r="3" fill="#4e79a7"/><circle cx="360.0" cy="232.0" r="3" fill="#4e79a7"/><circle cx="382.0" cy="232.0" r="3" fill="#4e79a7"/><circle cx="404.0" cy="232.0" r="3" fill="#4e79a7"/><circle cx="426.0" cy="117.9" r="3" fill="#4e79a7"/><circle cx="448.0" cy="28.0" r="3" fill="#4e79a7"/><circle cx="470.0" cy="222.1" r="3" fill="#4e79a7"/><circle cx="492.0" cy="227.5" r="3" fill="#4e79a7"/><circle cx="514.0" cy="229.3" r="3" fill="#4e79a7"/><circle cx="536.0" cy="228.4" r="3" fill="#4e79a7"/><circle cx="558.0" cy="231.1" r="3" fill="#4e79a7"/><circle cx="580.0" cy="231.1" r="3" fill="#4e79a7"/><circle cx="602.0" cy="230.2" r="3" fill="#4e79a7"/><circle cx="624.0" cy="221.2" r="3" fill="#4e79a7"/><circle cx="646.0" cy="232.0" r="3" fill="#4e79a7"/><circle cx="668.0" cy="228.4" r="3" fill="#4e79a7"/><circle cx="690.0" cy="231.1" r="3" fill="#4e79a7"/><circle cx="712.0" cy="229.3" r="3" fill="#4e79a7"/><circle cx="734.0" cy="224.8" r="3" fill="#4e79a7"/><circle cx="756.0" cy="232.0" r="3" fill="#4e79a7"/><circle cx="778.0" cy="232.0" r="3" fill="#4e79a7"/><circle cx="800.0" cy="232.0" r="3" fill="#4e79a7"/>
  <circle cx="52.0" cy="232.0" r="3" fill="#f28e2b"/><circle cx="74.0" cy="231.1" r="3" fill="#f28e2b"/><circle cx="96.0" cy="229.3" r="3" fill="#f28e2b"/><circle cx="118.0" cy="231.1" r="3" fill="#f28e2b"/><circle cx="140.0" cy="229.3" r="3" fill="#f28e2b"/><circle cx="162.0" cy="232.0" r="3" fill="#f28e2b"/><circle cx="184.0" cy="232.0" r="3" fill="#f28e2b"/><circle cx="206.0" cy="232.0" r="3" fill="#f28e2b"/><circle cx="228.0" cy="231.1" r="3" fill="#f28e2b"/><circle cx="250.0" cy="232.0" r="3" fill="#f28e2b"/><circle cx="272.0" cy="232.0" r="3" fill="#f28e2b"/><circle cx="294.0" cy="232.0" r="3" fill="#f28e2b"/><circle cx="316.0" cy="232.0" r="3" fill="#f28e2b"/><circle cx="338.0" cy="231.1" r="3" fill="#f28e2b"/><circle cx="360.0" cy="232.0" r="3" fill="#f28e2b"/><circle cx="382.0" cy="232.0" r="3" fill="#f28e2b"/><circle cx="404.0" cy="232.0" r="3" fill="#f28e2b"/><circle cx="426.0" cy="180.8" r="3" fill="#f28e2b"/><circle cx="448.0" cy="162.8" r="3" fill="#f28e2b"/><circle cx="470.0" cy="229.3" r="3" fill="#f28e2b"/><circle cx="492.0" cy="230.2" r="3" fill="#f28e2b"/><circle cx="514.0" cy="230.2" r="3" fill="#f28e2b"/><circle cx="536.0" cy="228.4" r="3" fill="#f28e2b"/><circle cx="558.0" cy="231.1" r="3" fill="#f28e2b"/><circle cx="580.0" cy="231.1" r="3" fill="#f28e2b"/><circle cx="602.0" cy="230.2" r="3" fill="#f28e2b"/><circle cx="624.0" cy="230.2" r="3" fill="#f28e2b"/><circle cx="646.0" cy="232.0" r="3" fill="#f28e2b"/><circle cx="668.0" cy="228.4" r="3" fill="#f28e2b"/><circle cx="690.0" cy="231.1" r="3" fill="#f28e2b"/><circle cx="712.0" cy="229.3" r="3" fill="#f28e2b"/><circle cx="734.0" cy="224.8" r="3" fill="#f28e2b"/><circle cx="756.0" cy="232.0" r="3" fill="#f28e2b"/><circle cx="778.0" cy="232.0" r="3" fill="#f28e2b"/><circle cx="800.0" cy="232.0" r="3" fill="#f28e2b"/>

  <!-- axes -->
  <line x1="52" y1="28" x2="52" y2="232"
        stroke="#cccccc" stroke-width="1"/>
  <line x1="52" y1="232" x2="800" y2="232"
        stroke="#cccccc" stroke-width="1"/>

  <!-- y-axis labels -->
  <text x="47" y="236.0" text-anchor="end" font-size="10" fill="#57606a" font-family="ui-monospace, SFMono-Regular, 'SF Mono', Menlo, monospace">0</text><text x="47" y="191.1" text-anchor="end" font-size="10" fill="#57606a" font-family="ui-monospace, SFMono-Regular, 'SF Mono', Menlo, monospace">50</text><text x="47" y="146.1" text-anchor="end" font-size="10" fill="#57606a" font-family="ui-monospace, SFMono-Regular, 'SF Mono', Menlo, monospace">100</text><text x="47" y="101.2" text-anchor="end" font-size="10" fill="#57606a" font-family="ui-monospace, SFMono-Regular, 'SF Mono', Menlo, monospace">150</text><text x="47" y="56.3" text-anchor="end" font-size="10" fill="#57606a" font-family="ui-monospace, SFMono-Regular, 'SF Mono', Menlo, monospace">200</text><text x="47" y="11.3" text-anchor="end" font-size="10" fill="#57606a" font-family="ui-monospace, SFMono-Regular, 'SF Mono', Menlo, monospace">250</text>

  <!-- x-axis labels -->
  <text x="52.0" y="248" text-anchor="middle" font-size="10" fill="#8c959f" font-family="ui-monospace, SFMono-Regular, 'SF Mono', Menlo, monospace">05-11</text><text x="756.0" y="248" text-anchor="middle" font-size="10" fill="#8c959f" font-family="ui-monospace, SFMono-Regular, 'SF Mono', Menlo, monospace">06-12</text><text x="800.0" y="248" text-anchor="middle" font-size="10" fill="#8c959f" font-family="ui-monospace, SFMono-Regular, 'SF Mono', Menlo, monospace">06-14</text><text x="140.0" y="248" text-anchor="middle" font-size="10" fill="#8c959f" font-family="ui-monospace, SFMono-Regular, 'SF Mono', Menlo, monospace">05-15</text><text x="228.0" y="248" text-anchor="middle" font-size="10" fill="#8c959f" font-family="ui-monospace, SFMono-Regular, 'SF Mono', Menlo, monospace">05-19</text><text x="316.0" y="248" text-anchor="middle" font-size="10" fill="#8c959f" font-family="ui-monospace, SFMono-Regular, 'SF Mono', Menlo, monospace">05-23</text><text x="404.0" y="248" text-anchor="middle" font-size="10" fill="#8c959f" font-family="ui-monospace, SFMono-Regular, 'SF Mono', Menlo, monospace">05-27</text><text x="492.0" y="248" text-anchor="middle" font-size="10" fill="#8c959f" font-family="ui-monospace, SFMono-Regular, 'SF Mono', Menlo, monospace">05-31</text><text x="580.0" y="248" text-anchor="middle" font-size="10" fill="#8c959f" font-family="ui-monospace, SFMono-Regular, 'SF Mono', Menlo, monospace">06-04</text><text x="668.0" y="248" text-anchor="middle" font-size="10" fill="#8c959f" font-family="ui-monospace, SFMono-Regular, 'SF Mono', Menlo, monospace">06-08</text>

  <!-- legend -->
  <rect x="60" y="262" width="16" height="3" fill="#4e79a7" rx="1"/><text x="80" y="268" font-size="11" fill="#57606a" font-family="-apple-system, BlinkMacSystemFont, 'Segoe UI', sans-serif">Total clones (419)</text><line x1="230" y1="264" x2="246" y2="264" stroke="#f28e2b" stroke-width="2" stroke-dasharray="5,3"/><text x="250" y="268" font-size="11" fill="#57606a" font-family="-apple-system, BlinkMacSystemFont, 'Segoe UI', sans-serif">Unique cloners</text>

</svg>