<svg xmlns="http://www.w3.org/2000/svg" viewBox="0 0 820 280" width="820" height="280">

  <!-- title -->
  <text x="52" y="18" font-size="13" font-weight="600"
        fill="#24292f" font-family="-apple-system, BlinkMacSystemFont, 'Segoe UI', sans-serif"
        >Clone traffic — image-view</text>
  <text x="800" y="18" font-size="10" fill="#8c959f"
        font-family="ui-monospace, SFMono-Regular, 'SF Mono', Menlo, monospace" text-anchor="end">2026-06-27</text>

  <!-- grid -->
  <line x1="52" y1="232.0" x2="800" y2="232.0" stroke="#e8e8e8" stroke-width="1"/><line x1="52" y1="187.1" x2="800" y2="187.1" stroke="#e8e8e8" stroke-width="1"/><line x1="52" y1="142.1" x2="800" y2="142.1" stroke="#e8e8e8" stroke-width="1"/><line x1="52" y1="97.2" x2="800" y2="97.2" stroke="#e8e8e8" stroke-width="1"/><line x1="52" y1="52.3" x2="800" y2="52.3" stroke="#e8e8e8" stroke-width="1"/><line x1="52" y1="7.3" x2="800" y2="7.3" stroke="#e8e8e8" stroke-width="1"/>

  <!-- area fill -->
  <path d="M52.0,232.0 L52.0,232.0 L68.6,231.1 L85.2,229.3 L101.9,231.1 L118.5,229.3 L135.1,232.0 L151.7,232.0 L168.4,232.0 L185.0,231.1 L201.6,232.0 L218.2,232.0 L234.8,232.0 L251.5,232.0 L268.1,231.1 L284.7,232.0 L301.3,232.0 L318.0,232.0 L334.6,117.9 L351.2,28.0 L367.8,222.1 L384.4,227.5 L401.1,229.3 L417.7,228.4 L434.3,231.1 L450.9,231.1 L467.6,230.2 L484.2,221.2 L500.8,232.0 L517.4,228.4 L534.0,231.1 L550.7,229.3 L567.3,224.8 L583.9,232.0 L600.5,232.0 L617.2,232.0 L633.8,205.0 L650.4,229.3 L667.0,232.0 L683.6,130.4 L700.3,229.3 L716.9,232.0 L733.5,232.0 L750.1,230.2 L766.8,231.1 L783.4,231.1 L800.0,230.2 L800.0,232.0 L52.0,232.0Z" fill="#4e79a7" opacity="0.12"/>

  <!-- lines -->
  <polyline points="52.0,232.0 68.6,231.1 85.2,229.3 101.9,231.1 118.5,229.3 135.1,232.0 151.7,232.0 168.4,232.0 185.0,231.1 201.6,232.0 218.2,232.0 234.8,232.0 251.5,232.0 268.1,231.1 284.7,232.0 301.3,232.0 318.0,232.0 334.6,117.9 351.2,28.0 367.8,222.1 384.4,227.5 401.1,229.3 417.7,228.4 434.3,231.1 450.9,231.1 467.6,230.2 484.2,221.2 500.8,232.0 517.4,228.4 534.0,231.1 550.7,229.3 567.3,224.8 583.9,232.0 600.5,232.0 617.2,232.0 633.8,205.0 650.4,229.3 667.0,232.0 683.6,130.4 700.3,229.3 716.9,232.0 733.5,232.0 750.1,230.2 766.8,231.1 783.4,231.1 800.0,230.2"
            fill="none" stroke="#4e79a7"
            stroke-width="2" stroke-linejoin="round"/>
  <polyline points="52.0,232.0 68.6,231.1 85.2,229.3 101.9,231.1 118.5,229.3 135.1,232.0 151.7,232.0 168.4,232.0 185.0,231.1 201.6,232.0 218.2,232.0 234.8,232.0 251.5,232.0 268.1,231.1 284.7,232.0 301.3,232.0 318.0,232.0 334.6,180.8 351.2,162.8 367.8,229.3 384.4,230.2 401.1,230.2 417.7,228.4 434.3,231.1 450.9,231.1 467.6,230.2 484.2,230.2 500.8,232.0 517.4,228.4 534.0,231.1 550.7,229.3 567.3,224.8 583.9,232.0 600.5,232.0 617.2,232.0 633.8,222.1 650.4,229.3 667.0,232.0 683.6,214.0 700.3,229.3 716.9,232.0 733.5,232.0 750.1,230.2 766.8,231.1 783.4,231.1 800.0,230.2"
            fill="none" stroke="#f28e2b"
            stroke-width="2" stroke-linejoin="round"
            stroke-dasharray="5,3"/>

  <!-- dots -->
  <circle cx="52.0" cy="232.0" r="3" fill="#4e79a7"/><circle cx="68.6" cy="231.1" r="3" fill="#4e79a7"/><circle cx="85.2" cy="229.3" r="3" fill="#4e79a7"/><circle cx="101.9" cy="231.1" r="3" fill="#4e79a7"/><circle cx="118.5" cy="229.3" r="3" fill="#4e79a7"/><circle cx="135.1" cy="232.0" r="3" fill="#4e79a7"/><circle cx="151.7" cy="232.0" r="3" fill="#4e79a7"/><circle cx="168.4" cy="232.0" r="3" fill="#4e79a7"/><circle cx="185.0" cy="231.1" r="3" fill="#4e79a7"/><circle cx="201.6" cy="232.0" r="3" fill="#4e79a7"/><circle cx="218.2" cy="232.0" r="3" fill="#4e79a7"/><circle cx="234.8" cy="232.0" r="3" fill="#4e79a7"/><circle cx="251.5" cy="232.0" r="3" fill="#4e79a7"/><circle cx="268.1" cy="231.1" r="3" fill="#4e79a7"/><circle cx="284.7" cy="232.0" r="3" fill="#4e79a7"/><circle cx="301.3" cy="232.0" r="3" fill="#4e79a7"/><circle cx="318.0" cy="232.0" r="3" fill="#4e79a7"/><circle cx="334.6" cy="117.9" r="3" fill="#4e79a7"/><circle cx="351.2" cy="28.0" r="3" fill="#4e79a7"/><circle cx="367.8" cy="222.1" r="3" fill="#4e79a7"/><circle cx="384.4" cy="227.5" r="3" fill="#4e79a7"/><circle cx="401.1" cy="229.3" r="3" fill="#4e79a7"/><circle cx="417.7" cy="228.4" r="3" fill="#4e79a7"/><circle cx="434.3" cy="231.1" r="3" fill="#4e79a7"/><circle cx="450.9" cy="231.1" r="3" fill="#4e79a7"/><circle cx="467.6" cy="230.2" r="3" fill="#4e79a7"/><circle cx="484.2" cy="221.2" r="3" fill="#4e79a7"/><circle cx="500.8" cy="232.0" r="3" fill="#4e79a7"/><circle cx="517.4" cy="228.4" r="3" fill="#4e79a7"/><circle cx="534.0" cy="231.1" r="3" fill="#4e79a7"/><circle cx="550.7" cy="229.3" r="3" fill="#4e79a7"/><circle cx="567.3" cy="224.8" r="3" fill="#4e79a7"/><circle cx="583.9" cy="232.0" r="3" fill="#4e79a7"/><circle cx="600.5" cy="232.0" r="3" fill="#4e79a7"/><circle cx="617.2" cy="232.0" r="3" fill="#4e79a7"/><circle cx="633.8" cy="205.0" r="3" fill="#4e79a7"/><circle cx="650.4" cy="229.3" r="3" fill="#4e79a7"/><circle cx="667.0" cy="232.0" r="3" fill="#4e79a7"/><circle cx="683.6" cy="130.4" r="3" fill="#4e79a7"/><circle cx="700.3" cy="229.3" r="3" fill="#4e79a7"/><circle cx="716.9" cy="232.0" r="3" fill="#4e79a7"/><circle cx="733.5" cy="232.0" r="3" fill="#4e79a7"/><circle cx="750.1" cy="230.2" r="3" fill="#4e79a7"/><circle cx="766.8" cy="231.1" r="3" fill="#4e79a7"/><circle cx="783.4" cy="231.1" r="3" fill="#4e79a7"/><circle cx="800.0" cy="230.2" r="3" fill="#4e79a7"/>
  <circle cx="52.0" cy="232.0" r="3" fill="#f28e2b"/><circle cx="68.6" cy="231.1" r="3" fill="#f28e2b"/><circle cx="85.2" cy="229.3" r="3" fill="#f28e2b"/><circle cx="101.9" cy="231.1" r="3" fill="#f28e2b"/><circle cx="118.5" cy="229.3" r="3" fill="#f28e2b"/><circle cx="135.1" cy="232.0" r="3" fill="#f28e2b"/><circle cx="151.7" cy="232.0" r="3" fill="#f28e2b"/><circle cx="168.4" cy="232.0" r="3" fill="#f28e2b"/><circle cx="185.0" cy="231.1" r="3" fill="#f28e2b"/><circle cx="201.6" cy="232.0" r="3" fill="#f28e2b"/><circle cx="218.2" cy="232.0" r="3" fill="#f28e2b"/><circle cx="234.8" cy="232.0" r="3" fill="#f28e2b"/><circle cx="251.5" cy="232.0" r="3" fill="#f28e2b"/><circle cx="268.1" cy="231.1" r="3" fill="#f28e2b"/><circle cx="284.7" cy="232.0" r="3" fill="#f28e2b"/><circle cx="301.3" cy="232.0" r="3" fill="#f28e2b"/><circle cx="318.0" cy="232.0" r="3" fill="#f28e2b"/><circle cx="334.6" cy="180.8" r="3" fill="#f28e2b"/><circle cx="351.2" cy="162.8" r="3" fill="#f28e2b"/><circle cx="367.8" cy="229.3" r="3" fill="#f28e2b"/><circle cx="384.4" cy="230.2" r="3" fill="#f28e2b"/><circle cx="401.1" cy="230.2" r="3" fill="#f28e2b"/><circle cx="417.7" cy="228.4" r="3" fill="#f28e2b"/><circle cx="434.3" cy="231.1" r="3" fill="#f28e2b"/><circle cx="450.9" cy="231.1" r="3" fill="#f28e2b"/><circle cx="467.6" cy="230.2" r="3" fill="#f28e2b"/><circle cx="484.2" cy="230.2" r="3" fill="#f28e2b"/><circle cx="500.8" cy="232.0" r="3" fill="#f28e2b"/><circle cx="517.4" cy="228.4" r="3" fill="#f28e2b"/><circle cx="534.0" cy="231.1" r="3" fill="#f28e2b"/><circle cx="550.7" cy="229.3" r="3" fill="#f28e2b"/><circle cx="567.3" cy="224.8" r="3" fill="#f28e2b"/><circle cx="583.9" cy="232.0" r="3" fill="#f28e2b"/><circle cx="600.5" cy="232.0" r="3" fill="#f28e2b"/><circle cx="617.2" cy="232.0" r="3" fill="#f28e2b"/><circle cx="633.8" cy="222.1" r="3" fill="#f28e2b"/><circle cx="650.4" cy="229.3" r="3" fill="#f28e2b"/><circle cx="667.0" cy="232.0" r="3" fill="#f28e2b"/><circle cx="683.6" cy="214.0" r="3" fill="#f28e2b"/><circle cx="700.3" cy="229.3" r="3" fill="#f28e2b"/><circle cx="716.9" cy="232.0" r="3" fill="#f28e2b"/><circle cx="733.5" cy="232.0" r="3" fill="#f28e2b"/><circle cx="750.1" cy="230.2" r="3" fill="#f28e2b"/><circle cx="766.8" cy="231.1" r="3" fill="#f28e2b"/><circle cx="783.4" cy="231.1" r="3" fill="#f28e2b"/><circle cx="800.0" cy="230.2" r="3" fill="#f28e2b"/>

  <!-- axes -->
  <line x1="52" y1="28" x2="52" y2="232"
        stroke="#cccccc" stroke-width="1"/>
  <line x1="52" y1="232" x2="800" y2="232"
        stroke="#cccccc" stroke-width="1"/>

  <!-- y-axis labels -->
  <text x="47" y="236.0" text-anchor="end" font-size="10" fill="#57606a" font-family="ui-monospace, SFMono-Regular, 'SF Mono', Menlo, monospace">0</text><text x="47" y="191.1" text-anchor="end" font-size="10" fill="#57606a" font-family="ui-monospace, SFMono-Regular, 'SF Mono', Menlo, monospace">50</text><text x="47" y="146.1" text-anchor="end" font-size="10" fill="#57606a" font-family="ui-monospace, SFMono-Regular, 'SF Mono', Menlo, monospace">100</text><text x="47" y="101.2" text-anchor="end" font-size="10" fill="#57606a" font-family="ui-monospace, SFMono-Regular, 'SF Mono', Menlo, monospace">150</text><text x="47" y="56.3" text-anchor="end" font-size="10" fill="#57606a" font-family="ui-monospace, SFMono-Regular, 'SF Mono', Menlo, monospace">200</text><text x="47" y="11.3" text-anchor="end" font-size="10" fill="#57606a" font-family="ui-monospace, SFMono-Regular, 'SF Mono', Menlo, monospace">250</text>

  <!-- x-axis labels -->
  <text x="52.0" y="248" text-anchor="middle" font-size="10" fill="#8c959f" font-family="ui-monospace, SFMono-Regular, 'SF Mono', Menlo, monospace">05-11</text><text x="633.8" y="248" text-anchor="middle" font-size="10" fill="#8c959f" font-family="ui-monospace, SFMono-Regular, 'SF Mono', Menlo, monospace">06-15</text><text x="135.1" y="248" text-anchor="middle" font-size="10" fill="#8c959f" font-family="ui-monospace, SFMono-Regular, 'SF Mono', Menlo, monospace">05-16</text><text x="716.9" y="248" text-anchor="middle" font-size="10" fill="#8c959f" font-family="ui-monospace, SFMono-Regular, 'SF Mono', Menlo, monospace">06-20</text><text x="218.2" y="248" text-anchor="middle" font-size="10" fill="#8c959f" font-family="ui-monospace, SFMono-Regular, 'SF Mono', Menlo, monospace">05-21</text><text x="800.0" y="248" text-anchor="middle" font-size="10" fill="#8c959f" font-family="ui-monospace, SFMono-Regular, 'SF Mono', Menlo, monospace">06-25</text><text x="301.3" y="248" text-anchor="middle" font-size="10" fill="#8c959f" font-family="ui-monospace, SFMono-Regular, 'SF Mono', Menlo, monospace">05-26</text><text x="384.4" y="248" text-anchor="middle" font-size="10" fill="#8c959f" font-family="ui-monospace, SFMono-Regular, 'SF Mono', Menlo, monospace">05-31</text><text x="467.6" y="248" text-anchor="middle" font-size="10" fill="#8c959f" font-family="ui-monospace, SFMono-Regular, 'SF Mono', Menlo, monospace">06-05</text><text x="550.7" y="248" text-anchor="middle" font-size="10" fill="#8c959f" font-family="ui-monospace, SFMono-Regular, 'SF Mono', Menlo, monospace">06-10</text>

  <!-- legend -->
  <rect x="60" y="262" width="16" height="3" fill="#4e79a7" rx="1"/><text x="80" y="268" font-size="11" fill="#57606a" font-family="-apple-system, BlinkMacSystemFont, 'Segoe UI', sans-serif">Total clones (574)</text><line x1="230" y1="264" x2="246" y2="264" stroke="#f28e2b" stroke-width="2" stroke-dasharray="5,3"/><text x="250" y="268" font-size="11" fill="#57606a" font-family="-apple-system, BlinkMacSystemFont, 'Segoe UI', sans-serif">Unique cloners</text>

</svg>