<svg xmlns="http://www.w3.org/2000/svg" viewBox="0 0 820 280" width="820" height="280">

  <!-- title -->
  <text x="52" y="18" font-size="13" font-weight="600"
        fill="#24292f" font-family="-apple-system, BlinkMacSystemFont, 'Segoe UI', sans-serif"
        >Clone traffic — image-view</text>
  <text x="800" y="18" font-size="10" fill="#8c959f"
        font-family="ui-monospace, SFMono-Regular, 'SF Mono', Menlo, monospace" text-anchor="end">2026-06-22</text>

  <!-- grid -->
  <line x1="52" y1="232.0" x2="800" y2="232.0" stroke="#e8e8e8" stroke-width="1"/><line x1="52" y1="187.1" x2="800" y2="187.1" stroke="#e8e8e8" stroke-width="1"/><line x1="52" y1="142.1" x2="800" y2="142.1" stroke="#e8e8e8" stroke-width="1"/><line x1="52" y1="97.2" x2="800" y2="97.2" stroke="#e8e8e8" stroke-width="1"/><line x1="52" y1="52.3" x2="800" y2="52.3" stroke="#e8e8e8" stroke-width="1"/><line x1="52" y1="7.3" x2="800" y2="7.3" stroke="#e8e8e8" stroke-width="1"/>

  <!-- area fill -->
  <path d="M52.0,232.0 L52.0,232.0 L70.7,231.1 L89.4,229.3 L108.1,231.1 L126.8,229.3 L145.5,232.0 L164.2,232.0 L182.9,232.0 L201.6,231.1 L220.3,232.0 L239.0,232.0 L257.7,232.0 L276.4,232.0 L295.1,231.1 L313.8,232.0 L332.5,232.0 L351.2,232.0 L369.9,117.9 L388.6,28.0 L407.3,222.1 L426.0,227.5 L444.7,229.3 L463.4,228.4 L482.1,231.1 L500.8,231.1 L519.5,230.2 L538.2,221.2 L556.9,232.0 L575.6,228.4 L594.3,231.1 L613.0,229.3 L631.7,224.8 L650.4,232.0 L669.1,232.0 L687.8,232.0 L706.5,205.0 L725.2,229.3 L743.9,232.0 L762.6,130.4 L781.3,229.3 L800.0,232.0 L800.0,232.0 L52.0,232.0Z" fill="#4e79a7" opacity="0.12"/>

  <!-- lines -->
  <polyline points="52.0,232.0 70.7,231.1 89.4,229.3 108.1,231.1 126.8,229.3 145.5,232.0 164.2,232.0 182.9,232.0 201.6,231.1 220.3,232.0 239.0,232.0 257.7,232.0 276.4,232.0 295.1,231.1 313.8,232.0 332.5,232.0 351.2,232.0 369.9,117.9 388.6,28.0 407.3,222.1 426.0,227.5 444.7,229.3 463.4,228.4 482.1,231.1 500.8,231.1 519.5,230.2 538.2,221.2 556.9,232.0 575.6,228.4 594.3,231.1 613.0,229.3 631.7,224.8 650.4,232.0 669.1,232.0 687.8,232.0 706.5,205.0 725.2,229.3 743.9,232.0 762.6,130.4 781.3,229.3 800.0,232.0"
            fill="none" stroke="#4e79a7"
            stroke-width="2" stroke-linejoin="round"/>
  <polyline points="52.0,232.0 70.7,231.1 89.4,229.3 108.1,231.1 126.8,229.3 145.5,232.0 164.2,232.0 182.9,232.0 201.6,231.1 220.3,232.0 239.0,232.0 257.7,232.0 276.4,232.0 295.1,231.1 313.8,232.0 332.5,232.0 351.2,232.0 369.9,180.8 388.6,162.8 407.3,229.3 426.0,230.2 444.7,230.2 463.4,228.4 482.1,231.1 500.8,231.1 519.5,230.2 538.2,230.2 556.9,232.0 575.6,228.4 594.3,231.1 613.0,229.3 631.7,224.8 650.4,232.0 669.1,232.0 687.8,232.0 706.5,222.1 725.2,229.3 743.9,232.0 762.6,214.0 781.3,229.3 800.0,232.0"
            fill="none" stroke="#f28e2b"
            stroke-width="2" stroke-linejoin="round"
            stroke-dasharray="5,3"/>

  <!-- dots -->
  <circle cx="52.0" cy="232.0" r="3" fill="#4e79a7"/><circle cx="70.7" cy="231.1" r="3" fill="#4e79a7"/><circle cx="89.4" cy="229.3" r="3" fill="#4e79a7"/><circle cx="108.1" cy="231.1" r="3" fill="#4e79a7"/><circle cx="126.8" cy="229.3" r="3" fill="#4e79a7"/><circle cx="145.5" cy="232.0" r="3" fill="#4e79a7"/><circle cx="164.2" cy="232.0" r="3" fill="#4e79a7"/><circle cx="182.9" cy="232.0" r="3" fill="#4e79a7"/><circle cx="201.6" cy="231.1" r="3" fill="#4e79a7"/><circle cx="220.3" cy="232.0" r="3" fill="#4e79a7"/><circle cx="239.0" cy="232.0" r="3" fill="#4e79a7"/><circle cx="257.7" cy="232.0" r="3" fill="#4e79a7"/><circle cx="276.4" cy="232.0" r="3" fill="#4e79a7"/><circle cx="295.1" cy="231.1" r="3" fill="#4e79a7"/><circle cx="313.8" cy="232.0" r="3" fill="#4e79a7"/><circle cx="332.5" cy="232.0" r="3" fill="#4e79a7"/><circle cx="351.2" cy="232.0" r="3" fill="#4e79a7"/><circle cx="369.9" cy="117.9" r="3" fill="#4e79a7"/><circle cx="388.6" cy="28.0" r="3" fill="#4e79a7"/><circle cx="407.3" cy="222.1" r="3" fill="#4e79a7"/><circle cx="426.0" cy="227.5" r="3" fill="#4e79a7"/><circle cx="444.7" cy="229.3" r="3" fill="#4e79a7"/><circle cx="463.4" cy="228.4" r="3" fill="#4e79a7"/><circle cx="482.1" cy="231.1" r="3" fill="#4e79a7"/><circle cx="500.8" cy="231.1" r="3" fill="#4e79a7"/><circle cx="519.5" cy="230.2" r="3" fill="#4e79a7"/><circle cx="538.2" cy="221.2" r="3" fill="#4e79a7"/><circle cx="556.9" cy="232.0" r="3" fill="#4e79a7"/><circle cx="575.6" cy="228.4" r="3" fill="#4e79a7"/><circle cx="594.3" cy="231.1" r="3" fill="#4e79a7"/><circle cx="613.0" cy="229.3" r="3" fill="#4e79a7"/><circle cx="631.7" cy="224.8" r="3" fill="#4e79a7"/><circle cx="650.4" cy="232.0" r="3" fill="#4e79a7"/><circle cx="669.1" cy="232.0" r="3" fill="#4e79a7"/><circle cx="687.8" cy="232.0" r="3" fill="#4e79a7"/><circle cx="706.5" cy="205.0" r="3" fill="#4e79a7"/><circle cx="725.2" cy="229.3" r="3" fill="#4e79a7"/><circle cx="743.9" cy="232.0" r="3" fill="#4e79a7"/><circle cx="762.6" cy="130.4" r="3" fill="#4e79a7"/><circle cx="781.3" cy="229.3" r="3" fill="#4e79a7"/><circle cx="800.0" cy="232.0" r="3" fill="#4e79a7"/>
  <circle cx="52.0" cy="232.0" r="3" fill="#f28e2b"/><circle cx="70.7" cy="231.1" r="3" fill="#f28e2b"/><circle cx="89.4" cy="229.3" r="3" fill="#f28e2b"/><circle cx="108.1" cy="231.1" r="3" fill="#f28e2b"/><circle cx="126.8" cy="229.3" r="3" fill="#f28e2b"/><circle cx="145.5" cy="232.0" r="3" fill="#f28e2b"/><circle cx="164.2" cy="232.0" r="3" fill="#f28e2b"/><circle cx="182.9" cy="232.0" r="3" fill="#f28e2b"/><circle cx="201.6" cy="231.1" r="3" fill="#f28e2b"/><circle cx="220.3" cy="232.0" r="3" fill="#f28e2b"/><circle cx="239.0" cy="232.0" r="3" fill="#f28e2b"/><circle cx="257.7" cy="232.0" r="3" fill="#f28e2b"/><circle cx="276.4" cy="232.0" r="3" fill="#f28e2b"/><circle cx="295.1" cy="231.1" r="3" fill="#f28e2b"/><circle cx="313.8" cy="232.0" r="3" fill="#f28e2b"/><circle cx="332.5" cy="232.0" r="3" fill="#f28e2b"/><circle cx="351.2" cy="232.0" r="3" fill="#f28e2b"/><circle cx="369.9" cy="180.8" r="3" fill="#f28e2b"/><circle cx="388.6" cy="162.8" r="3" fill="#f28e2b"/><circle cx="407.3" cy="229.3" r="3" fill="#f28e2b"/><circle cx="426.0" cy="230.2" r="3" fill="#f28e2b"/><circle cx="444.7" cy="230.2" r="3" fill="#f28e2b"/><circle cx="463.4" cy="228.4" r="3" fill="#f28e2b"/><circle cx="482.1" cy="231.1" r="3" fill="#f28e2b"/><circle cx="500.8" cy="231.1" r="3" fill="#f28e2b"/><circle cx="519.5" cy="230.2" r="3" fill="#f28e2b"/><circle cx="538.2" cy="230.2" r="3" fill="#f28e2b"/><circle cx="556.9" cy="232.0" r="3" fill="#f28e2b"/><circle cx="575.6" cy="228.4" r="3" fill="#f28e2b"/><circle cx="594.3" cy="231.1" r="3" fill="#f28e2b"/><circle cx="613.0" cy="229.3" r="3" fill="#f28e2b"/><circle cx="631.7" cy="224.8" r="3" fill="#f28e2b"/><circle cx="650.4" cy="232.0" r="3" fill="#f28e2b"/><circle cx="669.1" cy="232.0" r="3" fill="#f28e2b"/><circle cx="687.8" cy="232.0" r="3" fill="#f28e2b"/><circle cx="706.5" cy="222.1" r="3" fill="#f28e2b"/><circle cx="725.2" cy="229.3" r="3" fill="#f28e2b"/><circle cx="743.9" cy="232.0" r="3" fill="#f28e2b"/><circle cx="762.6" cy="214.0" r="3" fill="#f28e2b"/><circle cx="781.3" cy="229.3" r="3" fill="#f28e2b"/><circle cx="800.0" cy="232.0" r="3" fill="#f28e2b"/>

  <!-- axes -->
  <line x1="52" y1="28" x2="52" y2="232"
        stroke="#cccccc" stroke-width="1"/>
  <line x1="52" y1="232" x2="800" y2="232"
        stroke="#cccccc" stroke-width="1"/>

  <!-- y-axis labels -->
  <text x="47" y="236.0" text-anchor="end" font-size="10" fill="#57606a" font-family="ui-monospace, SFMono-Regular, 'SF Mono', Menlo, monospace">0</text><text x="47" y="191.1" text-anchor="end" font-size="10" fill="#57606a" font-family="ui-monospace, SFMono-Regular, 'SF Mono', Menlo, monospace">50</text><text x="47" y="146.1" text-anchor="end" font-size="10" fill="#57606a" font-family="ui-monospace, SFMono-Regular, 'SF Mono', Menlo, monospace">100</text><text x="47" y="101.2" text-anchor="end" font-size="10" fill="#57606a" font-family="ui-monospace, SFMono-Regular, 'SF Mono', Menlo, monospace">150</text><text x="47" y="56.3" text-anchor="end" font-size="10" fill="#57606a" font-family="ui-monospace, SFMono-Regular, 'SF Mono', Menlo, monospace">200</text><text x="47" y="11.3" text-anchor="end" font-size="10" fill="#57606a" font-family="ui-monospace, SFMono-Regular, 'SF Mono', Menlo, monospace">250</text>

  <!-- x-axis labels -->
  <text x="52.0" y="248" text-anchor="middle" font-size="10" fill="#8c959f" font-family="ui-monospace, SFMono-Regular, 'SF Mono', Menlo, monospace">05-11</text><text x="706.5" y="248" text-anchor="middle" font-size="10" fill="#8c959f" font-family="ui-monospace, SFMono-Regular, 'SF Mono', Menlo, monospace">06-15</text><text x="145.5" y="248" text-anchor="middle" font-size="10" fill="#8c959f" font-family="ui-monospace, SFMono-Regular, 'SF Mono', Menlo, monospace">05-16</text><text x="800.0" y="248" text-anchor="middle" font-size="10" fill="#8c959f" font-family="ui-monospace, SFMono-Regular, 'SF Mono', Menlo, monospace">06-20</text><text x="239.0" y="248" text-anchor="middle" font-size="10" fill="#8c959f" font-family="ui-monospace, SFMono-Regular, 'SF Mono', Menlo, monospace">05-21</text><text x="332.5" y="248" text-anchor="middle" font-size="10" fill="#8c959f" font-family="ui-monospace, SFMono-Regular, 'SF Mono', Menlo, monospace">05-26</text><text x="426.0" y="248" text-anchor="middle" font-size="10" fill="#8c959f" font-family="ui-monospace, SFMono-Regular, 'SF Mono', Menlo, monospace">05-31</text><text x="519.5" y="248" text-anchor="middle" font-size="10" fill="#8c959f" font-family="ui-monospace, SFMono-Regular, 'SF Mono', Menlo, monospace">06-05</text><text x="613.0" y="248" text-anchor="middle" font-size="10" fill="#8c959f" font-family="ui-monospace, SFMono-Regular, 'SF Mono', Menlo, monospace">06-10</text>

  <!-- legend -->
  <rect x="60" y="262" width="16" height="3" fill="#4e79a7" rx="1"/><text x="80" y="268" font-size="11" fill="#57606a" font-family="-apple-system, BlinkMacSystemFont, 'Segoe UI', sans-serif">Total clones (568)</text><line x1="230" y1="264" x2="246" y2="264" stroke="#f28e2b" stroke-width="2" stroke-dasharray="5,3"/><text x="250" y="268" font-size="11" fill="#57606a" font-family="-apple-system, BlinkMacSystemFont, 'Segoe UI', sans-serif">Unique cloners</text>

</svg>