<svg xmlns="http://www.w3.org/2000/svg" viewBox="0 0 820 280" width="820" height="280">

  <!-- title -->
  <text x="52" y="18" font-size="13" font-weight="600"
        fill="#24292f" font-family="-apple-system, BlinkMacSystemFont, 'Segoe UI', sans-serif"
        >Clone traffic — install_opencv</text>
  <text x="800" y="18" font-size="10" fill="#8c959f"
        font-family="ui-monospace, SFMono-Regular, 'SF Mono', Menlo, monospace" text-anchor="end">2026-07-16</text>

  <!-- grid -->
  <line x1="52" y1="232.0" x2="800" y2="232.0" stroke="#e8e8e8" stroke-width="1"/><line x1="52" y1="186.7" x2="800" y2="186.7" stroke="#e8e8e8" stroke-width="1"/><line x1="52" y1="141.3" x2="800" y2="141.3" stroke="#e8e8e8" stroke-width="1"/><line x1="52" y1="96.0" x2="800" y2="96.0" stroke="#e8e8e8" stroke-width="1"/><line x1="52" y1="50.7" x2="800" y2="50.7" stroke="#e8e8e8" stroke-width="1"/><line x1="52" y1="5.3" x2="800" y2="5.3" stroke="#e8e8e8" stroke-width="1"/>

  <!-- area fill -->
  <path d="M52.0,232.0 L52.0,232.0 L63.7,209.3 L75.4,186.7 L87.1,232.0 L98.8,232.0 L110.4,232.0 L122.1,232.0 L133.8,232.0 L145.5,232.0 L157.2,232.0 L168.9,232.0 L180.6,232.0 L192.2,232.0 L203.9,232.0 L215.6,209.3 L227.3,232.0 L239.0,232.0 L250.7,232.0 L262.4,232.0 L274.1,232.0 L285.8,209.3 L297.4,232.0 L309.1,232.0 L320.8,209.3 L332.5,232.0 L344.2,232.0 L355.9,232.0 L367.6,232.0 L379.2,232.0 L390.9,186.7 L402.6,209.3 L414.3,232.0 L426.0,232.0 L437.7,232.0 L449.4,232.0 L461.1,232.0 L472.8,232.0 L484.4,209.3 L496.1,28.0 L507.8,186.7 L519.5,209.3 L531.2,232.0 L542.9,232.0 L554.6,232.0 L566.2,232.0 L577.9,232.0 L589.6,232.0 L601.3,232.0 L613.0,232.0 L624.7,232.0 L636.4,232.0 L648.1,232.0 L659.8,232.0 L671.4,232.0 L683.1,232.0 L694.8,232.0 L706.5,232.0 L718.2,232.0 L729.9,232.0 L741.6,232.0 L753.2,232.0 L764.9,232.0 L776.6,232.0 L788.3,209.3 L800.0,232.0 L800.0,232.0 L52.0,232.0Z" fill="#4e79a7" opacity="0.12"/>

  <!-- lines -->
  <polyline points="52.0,232.0 63.7,209.3 75.4,186.7 87.1,232.0 98.8,232.0 110.4,232.0 122.1,232.0 133.8,232.0 145.5,232.0 157.2,232.0 168.9,232.0 180.6,232.0 192.2,232.0 203.9,232.0 215.6,209.3 227.3,232.0 239.0,232.0 250.7,232.0 262.4,232.0 274.1,232.0 285.8,209.3 297.4,232.0 309.1,232.0 320.8,209.3 332.5,232.0 344.2,232.0 355.9,232.0 367.6,232.0 379.2,232.0 390.9,186.7 402.6,209.3 414.3,232.0 426.0,232.0 437.7,232.0 449.4,232.0 461.1,232.0 472.8,232.0 484.4,209.3 496.1,28.0 507.8,186.7 519.5,209.3 531.2,232.0 542.9,232.0 554.6,232.0 566.2,232.0 577.9,232.0 589.6,232.0 601.3,232.0 613.0,232.0 624.7,232.0 636.4,232.0 648.1,232.0 659.8,232.0 671.4,232.0 683.1,232.0 694.8,232.0 706.5,232.0 718.2,232.0 729.9,232.0 741.6,232.0 753.2,232.0 764.9,232.0 776.6,232.0 788.3,209.3 800.0,232.0"
            fill="none" stroke="#4e79a7"
            stroke-width="2" stroke-linejoin="round"/>
  <polyline points="52.0,232.0 63.7,209.3 75.4,186.7 87.1,232.0 98.8,232.0 110.4,232.0 122.1,232.0 133.8,232.0 145.5,232.0 157.2,232.0 168.9,232.0 180.6,232.0 192.2,232.0 203.9,232.0 215.6,209.3 227.3,232.0 239.0,232.0 250.7,232.0 262.4,232.0 274.1,232.0 285.8,209.3 297.4,232.0 309.1,232.0 320.8,209.3 332.5,232.0 344.2,232.0 355.9,232.0 367.6,232.0 379.2,232.0 390.9,186.7 402.6,209.3 414.3,232.0 426.0,232.0 437.7,232.0 449.4,232.0 461.1,232.0 472.8,232.0 484.4,209.3 496.1,73.3 507.8,186.7 519.5,209.3 531.2,232.0 542.9,232.0 554.6,232.0 566.2,232.0 577.9,232.0 589.6,232.0 601.3,232.0 613.0,232.0 624.7,232.0 636.4,232.0 648.1,232.0 659.8,232.0 671.4,232.0 683.1,232.0 694.8,232.0 706.5,232.0 718.2,232.0 729.9,232.0 741.6,232.0 753.2,232.0 764.9,232.0 776.6,232.0 788.3,209.3 800.0,232.0"
            fill="none" stroke="#f28e2b"
            stroke-width="2" stroke-linejoin="round"
            stroke-dasharray="5,3"/>

  <!-- dots -->
  <circle cx="52.0" cy="232.0" r="3" fill="#4e79a7"/><circle cx="63.7" cy="209.3" r="3" fill="#4e79a7"/><circle cx="75.4" cy="186.7" r="3" fill="#4e79a7"/><circle cx="87.1" cy="232.0" r="3" fill="#4e79a7"/><circle cx="98.8" cy="232.0" r="3" fill="#4e79a7"/><circle cx="110.4" cy="232.0" r="3" fill="#4e79a7"/><circle cx="122.1" cy="232.0" r="3" fill="#4e79a7"/><circle cx="133.8" cy="232.0" r="3" fill="#4e79a7"/><circle cx="145.5" cy="232.0" r="3" fill="#4e79a7"/><circle cx="157.2" cy="232.0" r="3" fill="#4e79a7"/><circle cx="168.9" cy="232.0" r="3" fill="#4e79a7"/><circle cx="180.6" cy="232.0" r="3" fill="#4e79a7"/><circle cx="192.2" cy="232.0" r="3" fill="#4e79a7"/><circle cx="203.9" cy="232.0" r="3" fill="#4e79a7"/><circle cx="215.6" cy="209.3" r="3" fill="#4e79a7"/><circle cx="227.3" cy="232.0" r="3" fill="#4e79a7"/><circle cx="239.0" cy="232.0" r="3" fill="#4e79a7"/><circle cx="250.7" cy="232.0" r="3" fill="#4e79a7"/><circle cx="262.4" cy="232.0" r="3" fill="#4e79a7"/><circle cx="274.1" cy="232.0" r="3" fill="#4e79a7"/><circle cx="285.8" cy="209.3" r="3" fill="#4e79a7"/><circle cx="297.4" cy="232.0" r="3" fill="#4e79a7"/><circle cx="309.1" cy="232.0" r="3" fill="#4e79a7"/><circle cx="320.8" cy="209.3" r="3" fill="#4e79a7"/><circle cx="332.5" cy="232.0" r="3" fill="#4e79a7"/><circle cx="344.2" cy="232.0" r="3" fill="#4e79a7"/><circle cx="355.9" cy="232.0" r="3" fill="#4e79a7"/><circle cx="367.6" cy="232.0" r="3" fill="#4e79a7"/><circle cx="379.2" cy="232.0" r="3" fill="#4e79a7"/><circle cx="390.9" cy="186.7" r="3" fill="#4e79a7"/><circle cx="402.6" cy="209.3" r="3" fill="#4e79a7"/><circle cx="414.3" cy="232.0" r="3" fill="#4e79a7"/><circle cx="426.0" cy="232.0" r="3" fill="#4e79a7"/><circle cx="437.7" cy="232.0" r="3" fill="#4e79a7"/><circle cx="449.4" cy="232.0" r="3" fill="#4e79a7"/><circle cx="461.1" cy="232.0" r="3" fill="#4e79a7"/><circle cx="472.8" cy="232.0" r="3" fill="#4e79a7"/><circle cx="484.4" cy="209.3" r="3" fill="#4e79a7"/><circle cx="496.1" cy="28.0" r="3" fill="#4e79a7"/><circle cx="507.8" cy="186.7" r="3" fill="#4e79a7"/><circle cx="519.5" cy="209.3" r="3" fill="#4e79a7"/><circle cx="531.2" cy="232.0" r="3" fill="#4e79a7"/><circle cx="542.9" cy="232.0" r="3" fill="#4e79a7"/><circle cx="554.6" cy="232.0" r="3" fill="#4e79a7"/><circle cx="566.2" cy="232.0" r="3" fill="#4e79a7"/><circle cx="577.9" cy="232.0" r="3" fill="#4e79a7"/><circle cx="589.6" cy="232.0" r="3" fill="#4e79a7"/><circle cx="601.3" cy="232.0" r="3" fill="#4e79a7"/><circle cx="613.0" cy="232.0" r="3" fill="#4e79a7"/><circle cx="624.7" cy="232.0" r="3" fill="#4e79a7"/><circle cx="636.4" cy="232.0" r="3" fill="#4e79a7"/><circle cx="648.1" cy="232.0" r="3" fill="#4e79a7"/><circle cx="659.8" cy="232.0" r="3" fill="#4e79a7"/><circle cx="671.4" cy="232.0" r="3" fill="#4e79a7"/><circle cx="683.1" cy="232.0" r="3" fill="#4e79a7"/><circle cx="694.8" cy="232.0" r="3" fill="#4e79a7"/><circle cx="706.5" cy="232.0" r="3" fill="#4e79a7"/><circle cx="718.2" cy="232.0" r="3" fill="#4e79a7"/><circle cx="729.9" cy="232.0" r="3" fill="#4e79a7"/><circle cx="741.6" cy="232.0" r="3" fill="#4e79a7"/><circle cx="753.2" cy="232.0" r="3" fill="#4e79a7"/><circle cx="764.9" cy="232.0" r="3" fill="#4e79a7"/><circle cx="776.6" cy="232.0" r="3" fill="#4e79a7"/><circle cx="788.3" cy="209.3" r="3" fill="#4e79a7"/><circle cx="800.0" cy="232.0" r="3" fill="#4e79a7"/>
  <circle cx="52.0" cy="232.0" r="3" fill="#f28e2b"/><circle cx="63.7" cy="209.3" r="3" fill="#f28e2b"/><circle cx="75.4" cy="186.7" r="3" fill="#f28e2b"/><circle cx="87.1" cy="232.0" r="3" fill="#f28e2b"/><circle cx="98.8" cy="232.0" r="3" fill="#f28e2b"/><circle cx="110.4" cy="232.0" r="3" fill="#f28e2b"/><circle cx="122.1" cy="232.0" r="3" fill="#f28e2b"/><circle cx="133.8" cy="232.0" r="3" fill="#f28e2b"/><circle cx="145.5" cy="232.0" r="3" fill="#f28e2b"/><circle cx="157.2" cy="232.0" r="3" fill="#f28e2b"/><circle cx="168.9" cy="232.0" r="3" fill="#f28e2b"/><circle cx="180.6" cy="232.0" r="3" fill="#f28e2b"/><circle cx="192.2" cy="232.0" r="3" fill="#f28e2b"/><circle cx="203.9" cy="232.0" r="3" fill="#f28e2b"/><circle cx="215.6" cy="209.3" r="3" fill="#f28e2b"/><circle cx="227.3" cy="232.0" r="3" fill="#f28e2b"/><circle cx="239.0" cy="232.0" r="3" fill="#f28e2b"/><circle cx="250.7" cy="232.0" r="3" fill="#f28e2b"/><circle cx="262.4" cy="232.0" r="3" fill="#f28e2b"/><circle cx="274.1" cy="232.0" r="3" fill="#f28e2b"/><circle cx="285.8" cy="209.3" r="3" fill="#f28e2b"/><circle cx="297.4" cy="232.0" r="3" fill="#f28e2b"/><circle cx="309.1" cy="232.0" r="3" fill="#f28e2b"/><circle cx="320.8" cy="209.3" r="3" fill="#f28e2b"/><circle cx="332.5" cy="232.0" r="3" fill="#f28e2b"/><circle cx="344.2" cy="232.0" r="3" fill="#f28e2b"/><circle cx="355.9" cy="232.0" r="3" fill="#f28e2b"/><circle cx="367.6" cy="232.0" r="3" fill="#f28e2b"/><circle cx="379.2" cy="232.0" r="3" fill="#f28e2b"/><circle cx="390.9" cy="186.7" r="3" fill="#f28e2b"/><circle cx="402.6" cy="209.3" r="3" fill="#f28e2b"/><circle cx="414.3" cy="232.0" r="3" fill="#f28e2b"/><circle cx="426.0" cy="232.0" r="3" fill="#f28e2b"/><circle cx="437.7" cy="232.0" r="3" fill="#f28e2b"/><circle cx="449.4" cy="232.0" r="3" fill="#f28e2b"/><circle cx="461.1" cy="232.0" r="3" fill="#f28e2b"/><circle cx="472.8" cy="232.0" r="3" fill="#f28e2b"/><circle cx="484.4" cy="209.3" r="3" fill="#f28e2b"/><circle cx="496.1" cy="73.3" r="3" fill="#f28e2b"/><circle cx="507.8" cy="186.7" r="3" fill="#f28e2b"/><circle cx="519.5" cy="209.3" r="3" fill="#f28e2b"/><circle cx="531.2" cy="232.0" r="3" fill="#f28e2b"/><circle cx="542.9" cy="232.0" r="3" fill="#f28e2b"/><circle cx="554.6" cy="232.0" r="3" fill="#f28e2b"/><circle cx="566.2" cy="232.0" r="3" fill="#f28e2b"/><circle cx="577.9" cy="232.0" r="3" fill="#f28e2b"/><circle cx="589.6" cy="232.0" r="3" fill="#f28e2b"/><circle cx="601.3" cy="232.0" r="3" fill="#f28e2b"/><circle cx="613.0" cy="232.0" r="3" fill="#f28e2b"/><circle cx="624.7" cy="232.0" r="3" fill="#f28e2b"/><circle cx="636.4" cy="232.0" r="3" fill="#f28e2b"/><circle cx="648.1" cy="232.0" r="3" fill="#f28e2b"/><circle cx="659.8" cy="232.0" r="3" fill="#f28e2b"/><circle cx="671.4" cy="232.0" r="3" fill="#f28e2b"/><circle cx="683.1" cy="232.0" r="3" fill="#f28e2b"/><circle cx="694.8" cy="232.0" r="3" fill="#f28e2b"/><circle cx="706.5" cy="232.0" r="3" fill="#f28e2b"/><circle cx="718.2" cy="232.0" r="3" fill="#f28e2b"/><circle cx="729.9" cy="232.0" r="3" fill="#f28e2b"/><circle cx="741.6" cy="232.0" r="3" fill="#f28e2b"/><circle cx="753.2" cy="232.0" r="3" fill="#f28e2b"/><circle cx="764.9" cy="232.0" r="3" fill="#f28e2b"/><circle cx="776.6" cy="232.0" r="3" fill="#f28e2b"/><circle cx="788.3" cy="209.3" r="3" fill="#f28e2b"/><circle cx="800.0" cy="232.0" r="3" fill="#f28e2b"/>

  <!-- axes -->
  <line x1="52" y1="28" x2="52" y2="232"
        stroke="#cccccc" stroke-width="1"/>
  <line x1="52" y1="232" x2="800" y2="232"
        stroke="#cccccc" stroke-width="1"/>

  <!-- y-axis labels -->
  <text x="47" y="236.0" text-anchor="end" font-size="10" fill="#57606a" font-family="ui-monospace, SFMono-Regular, 'SF Mono', Menlo, monospace">0</text><text x="47" y="190.7" text-anchor="end" font-size="10" fill="#57606a" font-family="ui-monospace, SFMono-Regular, 'SF Mono', Menlo, monospace">2</text><text x="47" y="145.3" text-anchor="end" font-size="10" fill="#57606a" font-family="ui-monospace, SFMono-Regular, 'SF Mono', Menlo, monospace">4</text><text x="47" y="100.0" text-anchor="end" font-size="10" fill="#57606a" font-family="ui-monospace, SFMono-Regular, 'SF Mono', Menlo, monospace">6</text><text x="47" y="54.7" text-anchor="end" font-size="10" fill="#57606a" font-family="ui-monospace, SFMono-Regular, 'SF Mono', Menlo, monospace">8</text><text x="47" y="9.3" text-anchor="end" font-size="10" fill="#57606a" font-family="ui-monospace, SFMono-Regular, 'SF Mono', Menlo, monospace">10</text>

  <!-- x-axis labels -->
  <text x="52.0" y="248" text-anchor="middle" font-size="10" fill="#8c959f" font-family="ui-monospace, SFMono-Regular, 'SF Mono', Menlo, monospace">05-11</text><text x="426.0" y="248" text-anchor="middle" font-size="10" fill="#8c959f" font-family="ui-monospace, SFMono-Regular, 'SF Mono', Menlo, monospace">06-12</text><text x="800.0" y="248" text-anchor="middle" font-size="10" fill="#8c959f" font-family="ui-monospace, SFMono-Regular, 'SF Mono', Menlo, monospace">07-14</text><text x="145.5" y="248" text-anchor="middle" font-size="10" fill="#8c959f" font-family="ui-monospace, SFMono-Regular, 'SF Mono', Menlo, monospace">05-19</text><text x="519.5" y="248" text-anchor="middle" font-size="10" fill="#8c959f" font-family="ui-monospace, SFMono-Regular, 'SF Mono', Menlo, monospace">06-20</text><text x="239.0" y="248" text-anchor="middle" font-size="10" fill="#8c959f" font-family="ui-monospace, SFMono-Regular, 'SF Mono', Menlo, monospace">05-27</text><text x="613.0" y="248" text-anchor="middle" font-size="10" fill="#8c959f" font-family="ui-monospace, SFMono-Regular, 'SF Mono', Menlo, monospace">06-28</text><text x="332.5" y="248" text-anchor="middle" font-size="10" fill="#8c959f" font-family="ui-monospace, SFMono-Regular, 'SF Mono', Menlo, monospace">06-04</text><text x="706.5" y="248" text-anchor="middle" font-size="10" fill="#8c959f" font-family="ui-monospace, SFMono-Regular, 'SF Mono', Menlo, monospace">07-06</text>

  <!-- legend -->
  <rect x="60" y="262" width="16" height="3" fill="#4e79a7" rx="1"/><text x="80" y="268" font-size="11" fill="#57606a" font-family="-apple-system, BlinkMacSystemFont, 'Segoe UI', sans-serif">Total clones (23)</text><line x1="230" y1="264" x2="246" y2="264" stroke="#f28e2b" stroke-width="2" stroke-dasharray="5,3"/><text x="250" y="268" font-size="11" fill="#57606a" font-family="-apple-system, BlinkMacSystemFont, 'Segoe UI', sans-serif">Unique cloners</text>

</svg>