<svg xmlns="http://www.w3.org/2000/svg" viewBox="0 0 820 280" width="820" height="280">

  <!-- title -->
  <text x="52" y="18" font-size="13" font-weight="600"
        fill="#24292f" font-family="-apple-system, BlinkMacSystemFont, 'Segoe UI', sans-serif"
        >Clone traffic — kinect-forge</text>
  <text x="800" y="18" font-size="10" fill="#8c959f"
        font-family="ui-monospace, SFMono-Regular, 'SF Mono', Menlo, monospace" text-anchor="end">2026-07-02</text>

  <!-- grid -->
  <line x1="52" y1="232.0" x2="800" y2="232.0" stroke="#e8e8e8" stroke-width="1"/><line x1="52" y1="186.7" x2="800" y2="186.7" stroke="#e8e8e8" stroke-width="1"/><line x1="52" y1="141.3" x2="800" y2="141.3" stroke="#e8e8e8" stroke-width="1"/><line x1="52" y1="96.0" x2="800" y2="96.0" stroke="#e8e8e8" stroke-width="1"/><line x1="52" y1="50.7" x2="800" y2="50.7" stroke="#e8e8e8" stroke-width="1"/><line x1="52" y1="5.3" x2="800" y2="5.3" stroke="#e8e8e8" stroke-width="1"/>

  <!-- area fill -->
  <path d="M52.0,232.0 L52.0,232.0 L67.0,209.3 L81.9,164.0 L96.9,232.0 L111.8,209.3 L126.8,232.0 L141.8,209.3 L156.7,209.3 L171.7,232.0 L186.6,232.0 L201.6,232.0 L216.6,232.0 L231.5,209.3 L246.5,232.0 L261.4,232.0 L276.4,209.3 L291.4,209.3 L306.3,209.3 L321.3,232.0 L336.2,232.0 L351.2,209.3 L366.2,232.0 L381.1,209.3 L396.1,232.0 L411.0,232.0 L426.0,232.0 L441.0,209.3 L455.9,232.0 L470.9,232.0 L485.8,186.7 L500.8,209.3 L515.8,232.0 L530.7,232.0 L545.7,232.0 L560.6,209.3 L575.6,232.0 L590.6,232.0 L605.5,232.0 L620.5,28.0 L635.4,164.0 L650.4,209.3 L665.4,232.0 L680.3,209.3 L695.3,118.7 L710.2,209.3 L725.2,232.0 L740.2,232.0 L755.1,232.0 L770.1,232.0 L785.0,232.0 L800.0,232.0 L800.0,232.0 L52.0,232.0Z" fill="#4e79a7" opacity="0.12"/>

  <!-- lines -->
  <polyline points="52.0,232.0 67.0,209.3 81.9,164.0 96.9,232.0 111.8,209.3 126.8,232.0 141.8,209.3 156.7,209.3 171.7,232.0 186.6,232.0 201.6,232.0 216.6,232.0 231.5,209.3 246.5,232.0 261.4,232.0 276.4,209.3 291.4,209.3 306.3,209.3 321.3,232.0 336.2,232.0 351.2,209.3 366.2,232.0 381.1,209.3 396.1,232.0 411.0,232.0 426.0,232.0 441.0,209.3 455.9,232.0 470.9,232.0 485.8,186.7 500.8,209.3 515.8,232.0 530.7,232.0 545.7,232.0 560.6,209.3 575.6,232.0 590.6,232.0 605.5,232.0 620.5,28.0 635.4,164.0 650.4,209.3 665.4,232.0 680.3,209.3 695.3,118.7 710.2,209.3 725.2,232.0 740.2,232.0 755.1,232.0 770.1,232.0 785.0,232.0 800.0,232.0"
            fill="none" stroke="#4e79a7"
            stroke-width="2" stroke-linejoin="round"/>
  <polyline points="52.0,232.0 67.0,209.3 81.9,164.0 96.9,232.0 111.8,209.3 126.8,232.0 141.8,209.3 156.7,209.3 171.7,232.0 186.6,232.0 201.6,232.0 216.6,232.0 231.5,209.3 246.5,232.0 261.4,232.0 276.4,209.3 291.4,209.3 306.3,209.3 321.3,232.0 336.2,232.0 351.2,209.3 366.2,232.0 381.1,209.3 396.1,232.0 411.0,232.0 426.0,232.0 441.0,209.3 455.9,232.0 470.9,232.0 485.8,186.7 500.8,209.3 515.8,232.0 530.7,232.0 545.7,232.0 560.6,209.3 575.6,232.0 590.6,232.0 605.5,232.0 620.5,73.3 635.4,164.0 650.4,209.3 665.4,232.0 680.3,209.3 695.3,186.7 710.2,209.3 725.2,232.0 740.2,232.0 755.1,232.0 770.1,232.0 785.0,232.0 800.0,232.0"
            fill="none" stroke="#f28e2b"
            stroke-width="2" stroke-linejoin="round"
            stroke-dasharray="5,3"/>

  <!-- dots -->
  <circle cx="52.0" cy="232.0" r="3" fill="#4e79a7"/><circle cx="67.0" cy="209.3" r="3" fill="#4e79a7"/><circle cx="81.9" cy="164.0" r="3" fill="#4e79a7"/><circle cx="96.9" cy="232.0" r="3" fill="#4e79a7"/><circle cx="111.8" cy="209.3" r="3" fill="#4e79a7"/><circle cx="126.8" cy="232.0" r="3" fill="#4e79a7"/><circle cx="141.8" cy="209.3" r="3" fill="#4e79a7"/><circle cx="156.7" cy="209.3" r="3" fill="#4e79a7"/><circle cx="171.7" cy="232.0" r="3" fill="#4e79a7"/><circle cx="186.6" cy="232.0" r="3" fill="#4e79a7"/><circle cx="201.6" cy="232.0" r="3" fill="#4e79a7"/><circle cx="216.6" cy="232.0" r="3" fill="#4e79a7"/><circle cx="231.5" cy="209.3" r="3" fill="#4e79a7"/><circle cx="246.5" cy="232.0" r="3" fill="#4e79a7"/><circle cx="261.4" cy="232.0" r="3" fill="#4e79a7"/><circle cx="276.4" cy="209.3" r="3" fill="#4e79a7"/><circle cx="291.4" cy="209.3" r="3" fill="#4e79a7"/><circle cx="306.3" cy="209.3" r="3" fill="#4e79a7"/><circle cx="321.3" cy="232.0" r="3" fill="#4e79a7"/><circle cx="336.2" cy="232.0" r="3" fill="#4e79a7"/><circle cx="351.2" cy="209.3" r="3" fill="#4e79a7"/><circle cx="366.2" cy="232.0" r="3" fill="#4e79a7"/><circle cx="381.1" cy="209.3" r="3" fill="#4e79a7"/><circle cx="396.1" cy="232.0" r="3" fill="#4e79a7"/><circle cx="411.0" cy="232.0" r="3" fill="#4e79a7"/><circle cx="426.0" cy="232.0" r="3" fill="#4e79a7"/><circle cx="441.0" cy="209.3" r="3" fill="#4e79a7"/><circle cx="455.9" cy="232.0" r="3" fill="#4e79a7"/><circle cx="470.9" cy="232.0" r="3" fill="#4e79a7"/><circle cx="485.8" cy="186.7" r="3" fill="#4e79a7"/><circle cx="500.8" cy="209.3" r="3" fill="#4e79a7"/><circle cx="515.8" cy="232.0" r="3" fill="#4e79a7"/><circle cx="530.7" cy="232.0" r="3" fill="#4e79a7"/><circle cx="545.7" cy="232.0" r="3" fill="#4e79a7"/><circle cx="560.6" cy="209.3" r="3" fill="#4e79a7"/><circle cx="575.6" cy="232.0" r="3" fill="#4e79a7"/><circle cx="590.6" cy="232.0" r="3" fill="#4e79a7"/><circle cx="605.5" cy="232.0" r="3" fill="#4e79a7"/><circle cx="620.5" cy="28.0" r="3" fill="#4e79a7"/><circle cx="635.4" cy="164.0" r="3" fill="#4e79a7"/><circle cx="650.4" cy="209.3" r="3" fill="#4e79a7"/><circle cx="665.4" cy="232.0" r="3" fill="#4e79a7"/><circle cx="680.3" cy="209.3" r="3" fill="#4e79a7"/><circle cx="695.3" cy="118.7" r="3" fill="#4e79a7"/><circle cx="710.2" cy="209.3" r="3" fill="#4e79a7"/><circle cx="725.2" cy="232.0" r="3" fill="#4e79a7"/><circle cx="740.2" cy="232.0" r="3" fill="#4e79a7"/><circle cx="755.1" cy="232.0" r="3" fill="#4e79a7"/><circle cx="770.1" cy="232.0" r="3" fill="#4e79a7"/><circle cx="785.0" cy="232.0" r="3" fill="#4e79a7"/><circle cx="800.0" cy="232.0" r="3" fill="#4e79a7"/>
  <circle cx="52.0" cy="232.0" r="3" fill="#f28e2b"/><circle cx="67.0" cy="209.3" r="3" fill="#f28e2b"/><circle cx="81.9" cy="164.0" r="3" fill="#f28e2b"/><circle cx="96.9" cy="232.0" r="3" fill="#f28e2b"/><circle cx="111.8" cy="209.3" r="3" fill="#f28e2b"/><circle cx="126.8" cy="232.0" r="3" fill="#f28e2b"/><circle cx="141.8" cy="209.3" r="3" fill="#f28e2b"/><circle cx="156.7" cy="209.3" r="3" fill="#f28e2b"/><circle cx="171.7" cy="232.0" r="3" fill="#f28e2b"/><circle cx="186.6" cy="232.0" r="3" fill="#f28e2b"/><circle cx="201.6" cy="232.0" r="3" fill="#f28e2b"/><circle cx="216.6" cy="232.0" r="3" fill="#f28e2b"/><circle cx="231.5" cy="209.3" r="3" fill="#f28e2b"/><circle cx="246.5" cy="232.0" r="3" fill="#f28e2b"/><circle cx="261.4" cy="232.0" r="3" fill="#f28e2b"/><circle cx="276.4" cy="209.3" r="3" fill="#f28e2b"/><circle cx="291.4" cy="209.3" r="3" fill="#f28e2b"/><circle cx="306.3" cy="209.3" r="3" fill="#f28e2b"/><circle cx="321.3" cy="232.0" r="3" fill="#f28e2b"/><circle cx="336.2" cy="232.0" r="3" fill="#f28e2b"/><circle cx="351.2" cy="209.3" r="3" fill="#f28e2b"/><circle cx="366.2" cy="232.0" r="3" fill="#f28e2b"/><circle cx="381.1" cy="209.3" r="3" fill="#f28e2b"/><circle cx="396.1" cy="232.0" r="3" fill="#f28e2b"/><circle cx="411.0" cy="232.0" r="3" fill="#f28e2b"/><circle cx="426.0" cy="232.0" r="3" fill="#f28e2b"/><circle cx="441.0" cy="209.3" r="3" fill="#f28e2b"/><circle cx="455.9" cy="232.0" r="3" fill="#f28e2b"/><circle cx="470.9" cy="232.0" r="3" fill="#f28e2b"/><circle cx="485.8" cy="186.7" r="3" fill="#f28e2b"/><circle cx="500.8" cy="209.3" r="3" fill="#f28e2b"/><circle cx="515.8" cy="232.0" r="3" fill="#f28e2b"/><circle cx="530.7" cy="232.0" r="3" fill="#f28e2b"/><circle cx="545.7" cy="232.0" r="3" fill="#f28e2b"/><circle cx="560.6" cy="209.3" r="3" fill="#f28e2b"/><circle cx="575.6" cy="232.0" r="3" fill="#f28e2b"/><circle cx="590.6" cy="232.0" r="3" fill="#f28e2b"/><circle cx="605.5" cy="232.0" r="3" fill="#f28e2b"/><circle cx="620.5" cy="73.3" r="3" fill="#f28e2b"/><circle cx="635.4" cy="164.0" r="3" fill="#f28e2b"/><circle cx="650.4" cy="209.3" r="3" fill="#f28e2b"/><circle cx="665.4" cy="232.0" r="3" fill="#f28e2b"/><circle cx="680.3" cy="209.3" r="3" fill="#f28e2b"/><circle cx="695.3" cy="186.7" r="3" fill="#f28e2b"/><circle cx="710.2" cy="209.3" r="3" fill="#f28e2b"/><circle cx="725.2" cy="232.0" r="3" fill="#f28e2b"/><circle cx="740.2" cy="232.0" r="3" fill="#f28e2b"/><circle cx="755.1" cy="232.0" r="3" fill="#f28e2b"/><circle cx="770.1" cy="232.0" r="3" fill="#f28e2b"/><circle cx="785.0" cy="232.0" r="3" fill="#f28e2b"/><circle cx="800.0" cy="232.0" r="3" fill="#f28e2b"/>

  <!-- axes -->
  <line x1="52" y1="28" x2="52" y2="232"
        stroke="#cccccc" stroke-width="1"/>
  <line x1="52" y1="232" x2="800" y2="232"
        stroke="#cccccc" stroke-width="1"/>

  <!-- y-axis labels -->
  <text x="47" y="236.0" text-anchor="end" font-size="10" fill="#57606a" font-family="ui-monospace, SFMono-Regular, 'SF Mono', Menlo, monospace">0</text><text x="47" y="190.7" text-anchor="end" font-size="10" fill="#57606a" font-family="ui-monospace, SFMono-Regular, 'SF Mono', Menlo, monospace">2</text><text x="47" y="145.3" text-anchor="end" font-size="10" fill="#57606a" font-family="ui-monospace, SFMono-Regular, 'SF Mono', Menlo, monospace">4</text><text x="47" y="100.0" text-anchor="end" font-size="10" fill="#57606a" font-family="ui-monospace, SFMono-Regular, 'SF Mono', Menlo, monospace">6</text><text x="47" y="54.7" text-anchor="end" font-size="10" fill="#57606a" font-family="ui-monospace, SFMono-Regular, 'SF Mono', Menlo, monospace">8</text><text x="47" y="9.3" text-anchor="end" font-size="10" fill="#57606a" font-family="ui-monospace, SFMono-Regular, 'SF Mono', Menlo, monospace">10</text>

  <!-- x-axis labels -->
  <text x="52.0" y="248" text-anchor="middle" font-size="10" fill="#8c959f" font-family="ui-monospace, SFMono-Regular, 'SF Mono', Menlo, monospace">05-11</text><text x="590.6" y="248" text-anchor="middle" font-size="10" fill="#8c959f" font-family="ui-monospace, SFMono-Regular, 'SF Mono', Menlo, monospace">06-16</text><text x="141.8" y="248" text-anchor="middle" font-size="10" fill="#8c959f" font-family="ui-monospace, SFMono-Regular, 'SF Mono', Menlo, monospace">05-17</text><text x="680.3" y="248" text-anchor="middle" font-size="10" fill="#8c959f" font-family="ui-monospace, SFMono-Regular, 'SF Mono', Menlo, monospace">06-22</text><text x="231.5" y="248" text-anchor="middle" font-size="10" fill="#8c959f" font-family="ui-monospace, SFMono-Regular, 'SF Mono', Menlo, monospace">05-23</text><text x="770.1" y="248" text-anchor="middle" font-size="10" fill="#8c959f" font-family="ui-monospace, SFMono-Regular, 'SF Mono', Menlo, monospace">06-28</text><text x="321.3" y="248" text-anchor="middle" font-size="10" fill="#8c959f" font-family="ui-monospace, SFMono-Regular, 'SF Mono', Menlo, monospace">05-29</text><text x="800.0" y="248" text-anchor="middle" font-size="10" fill="#8c959f" font-family="ui-monospace, SFMono-Regular, 'SF Mono', Menlo, monospace">06-30</text><text x="411.0" y="248" text-anchor="middle" font-size="10" fill="#8c959f" font-family="ui-monospace, SFMono-Regular, 'SF Mono', Menlo, monospace">06-04</text><text x="500.8" y="248" text-anchor="middle" font-size="10" fill="#8c959f" font-family="ui-monospace, SFMono-Regular, 'SF Mono', Menlo, monospace">06-10</text>

  <!-- legend -->
  <rect x="60" y="262" width="16" height="3" fill="#4e79a7" rx="1"/><text x="80" y="268" font-size="11" fill="#57606a" font-family="-apple-system, BlinkMacSystemFont, 'Segoe UI', sans-serif">Total clones (38)</text><line x1="230" y1="264" x2="246" y2="264" stroke="#f28e2b" stroke-width="2" stroke-dasharray="5,3"/><text x="250" y="268" font-size="11" fill="#57606a" font-family="-apple-system, BlinkMacSystemFont, 'Segoe UI', sans-serif">Unique cloners</text>

</svg>