<svg xmlns="http://www.w3.org/2000/svg" viewBox="0 0 820 280" width="820" height="280">

  <!-- title -->
  <text x="52" y="18" font-size="13" font-weight="600"
        fill="#24292f" font-family="-apple-system, BlinkMacSystemFont, 'Segoe UI', sans-serif"
        >Clone traffic — kiosk-frame</text>
  <text x="800" y="18" font-size="10" fill="#8c959f"
        font-family="ui-monospace, SFMono-Regular, 'SF Mono', Menlo, monospace" text-anchor="end">2026-06-05</text>

  <!-- grid -->
  <line x1="52" y1="232.0" x2="800" y2="232.0" stroke="#e8e8e8" stroke-width="1"/><line x1="52" y1="186.7" x2="800" y2="186.7" stroke="#e8e8e8" stroke-width="1"/><line x1="52" y1="141.3" x2="800" y2="141.3" stroke="#e8e8e8" stroke-width="1"/><line x1="52" y1="96.0" x2="800" y2="96.0" stroke="#e8e8e8" stroke-width="1"/><line x1="52" y1="50.7" x2="800" y2="50.7" stroke="#e8e8e8" stroke-width="1"/><line x1="52" y1="5.3" x2="800" y2="5.3" stroke="#e8e8e8" stroke-width="1"/>

  <!-- area fill -->
  <path d="M52.0,107.3 L52.0,107.3 L84.5,209.3 L117.0,198.0 L149.6,220.7 L182.1,232.0 L214.6,232.0 L247.1,232.0 L279.7,232.0 L312.2,220.7 L344.7,232.0 L377.2,232.0 L409.7,232.0 L442.3,232.0 L474.8,28.0 L507.3,164.0 L539.8,186.7 L572.3,220.7 L604.9,220.7 L637.4,232.0 L669.9,232.0 L702.4,220.7 L735.0,232.0 L767.5,232.0 L800.0,220.7 L800.0,232.0 L52.0,232.0Z" fill="#4e79a7" opacity="0.12"/>

  <!-- lines -->
  <polyline points="52.0,107.3 84.5,209.3 117.0,198.0 149.6,220.7 182.1,232.0 214.6,232.0 247.1,232.0 279.7,232.0 312.2,220.7 344.7,232.0 377.2,232.0 409.7,232.0 442.3,232.0 474.8,28.0 507.3,164.0 539.8,186.7 572.3,220.7 604.9,220.7 637.4,232.0 669.9,232.0 702.4,220.7 735.0,232.0 767.5,232.0 800.0,220.7"
            fill="none" stroke="#4e79a7"
            stroke-width="2" stroke-linejoin="round"/>
  <polyline points="52.0,152.7 84.5,209.3 117.0,198.0 149.6,220.7 182.1,232.0 214.6,232.0 247.1,232.0 279.7,232.0 312.2,220.7 344.7,232.0 377.2,232.0 409.7,232.0 442.3,232.0 474.8,84.7 507.3,164.0 539.8,198.0 572.3,220.7 604.9,220.7 637.4,232.0 669.9,232.0 702.4,220.7 735.0,232.0 767.5,232.0 800.0,220.7"
            fill="none" stroke="#f28e2b"
            stroke-width="2" stroke-linejoin="round"
            stroke-dasharray="5,3"/>

  <!-- dots -->
  <circle cx="52.0" cy="107.3" r="3" fill="#4e79a7"/><circle cx="84.5" cy="209.3" r="3" fill="#4e79a7"/><circle cx="117.0" cy="198.0" r="3" fill="#4e79a7"/><circle cx="149.6" cy="220.7" r="3" fill="#4e79a7"/><circle cx="182.1" cy="232.0" r="3" fill="#4e79a7"/><circle cx="214.6" cy="232.0" r="3" fill="#4e79a7"/><circle cx="247.1" cy="232.0" r="3" fill="#4e79a7"/><circle cx="279.7" cy="232.0" r="3" fill="#4e79a7"/><circle cx="312.2" cy="220.7" r="3" fill="#4e79a7"/><circle cx="344.7" cy="232.0" r="3" fill="#4e79a7"/><circle cx="377.2" cy="232.0" r="3" fill="#4e79a7"/><circle cx="409.7" cy="232.0" r="3" fill="#4e79a7"/><circle cx="442.3" cy="232.0" r="3" fill="#4e79a7"/><circle cx="474.8" cy="28.0" r="3" fill="#4e79a7"/><circle cx="507.3" cy="164.0" r="3" fill="#4e79a7"/><circle cx="539.8" cy="186.7" r="3" fill="#4e79a7"/><circle cx="572.3" cy="220.7" r="3" fill="#4e79a7"/><circle cx="604.9" cy="220.7" r="3" fill="#4e79a7"/><circle cx="637.4" cy="232.0" r="3" fill="#4e79a7"/><circle cx="669.9" cy="232.0" r="3" fill="#4e79a7"/><circle cx="702.4" cy="220.7" r="3" fill="#4e79a7"/><circle cx="735.0" cy="232.0" r="3" fill="#4e79a7"/><circle cx="767.5" cy="232.0" r="3" fill="#4e79a7"/><circle cx="800.0" cy="220.7" r="3" fill="#4e79a7"/>
  <circle cx="52.0" cy="152.7" r="3" fill="#f28e2b"/><circle cx="84.5" cy="209.3" r="3" fill="#f28e2b"/><circle cx="117.0" cy="198.0" r="3" fill="#f28e2b"/><circle cx="149.6" cy="220.7" r="3" fill="#f28e2b"/><circle cx="182.1" cy="232.0" r="3" fill="#f28e2b"/><circle cx="214.6" cy="232.0" r="3" fill="#f28e2b"/><circle cx="247.1" cy="232.0" r="3" fill="#f28e2b"/><circle cx="279.7" cy="232.0" r="3" fill="#f28e2b"/><circle cx="312.2" cy="220.7" r="3" fill="#f28e2b"/><circle cx="344.7" cy="232.0" r="3" fill="#f28e2b"/><circle cx="377.2" cy="232.0" r="3" fill="#f28e2b"/><circle cx="409.7" cy="232.0" r="3" fill="#f28e2b"/><circle cx="442.3" cy="232.0" r="3" fill="#f28e2b"/><circle cx="474.8" cy="84.7" r="3" fill="#f28e2b"/><circle cx="507.3" cy="164.0" r="3" fill="#f28e2b"/><circle cx="539.8" cy="198.0" r="3" fill="#f28e2b"/><circle cx="572.3" cy="220.7" r="3" fill="#f28e2b"/><circle cx="604.9" cy="220.7" r="3" fill="#f28e2b"/><circle cx="637.4" cy="232.0" r="3" fill="#f28e2b"/><circle cx="669.9" cy="232.0" r="3" fill="#f28e2b"/><circle cx="702.4" cy="220.7" r="3" fill="#f28e2b"/><circle cx="735.0" cy="232.0" r="3" fill="#f28e2b"/><circle cx="767.5" cy="232.0" r="3" fill="#f28e2b"/><circle cx="800.0" cy="220.7" r="3" fill="#f28e2b"/>

  <!-- axes -->
  <line x1="52" y1="28" x2="52" y2="232"
        stroke="#cccccc" stroke-width="1"/>
  <line x1="52" y1="232" x2="800" y2="232"
        stroke="#cccccc" stroke-width="1"/>

  <!-- y-axis labels -->
  <text x="47" y="236.0" text-anchor="end" font-size="10" fill="#57606a" font-family="ui-monospace, SFMono-Regular, 'SF Mono', Menlo, monospace">0</text><text x="47" y="190.7" text-anchor="end" font-size="10" fill="#57606a" font-family="ui-monospace, SFMono-Regular, 'SF Mono', Menlo, monospace">4</text><text x="47" y="145.3" text-anchor="end" font-size="10" fill="#57606a" font-family="ui-monospace, SFMono-Regular, 'SF Mono', Menlo, monospace">8</text><text x="47" y="100.0" text-anchor="end" font-size="10" fill="#57606a" font-family="ui-monospace, SFMono-Regular, 'SF Mono', Menlo, monospace">12</text><text x="47" y="54.7" text-anchor="end" font-size="10" fill="#57606a" font-family="ui-monospace, SFMono-Regular, 'SF Mono', Menlo, monospace">16</text><text x="47" y="9.3" text-anchor="end" font-size="10" fill="#57606a" font-family="ui-monospace, SFMono-Regular, 'SF Mono', Menlo, monospace">20</text>

  <!-- x-axis labels -->
  <text x="52.0" y="248" text-anchor="middle" font-size="10" fill="#8c959f" font-family="ui-monospace, SFMono-Regular, 'SF Mono', Menlo, monospace">05-11</text><text x="149.6" y="248" text-anchor="middle" font-size="10" fill="#8c959f" font-family="ui-monospace, SFMono-Regular, 'SF Mono', Menlo, monospace">05-14</text><text x="247.1" y="248" text-anchor="middle" font-size="10" fill="#8c959f" font-family="ui-monospace, SFMono-Regular, 'SF Mono', Menlo, monospace">05-17</text><text x="344.7" y="248" text-anchor="middle" font-size="10" fill="#8c959f" font-family="ui-monospace, SFMono-Regular, 'SF Mono', Menlo, monospace">05-20</text><text x="442.3" y="248" text-anchor="middle" font-size="10" fill="#8c959f" font-family="ui-monospace, SFMono-Regular, 'SF Mono', Menlo, monospace">05-23</text><text x="539.8" y="248" text-anchor="middle" font-size="10" fill="#8c959f" font-family="ui-monospace, SFMono-Regular, 'SF Mono', Menlo, monospace">05-26</text><text x="637.4" y="248" text-anchor="middle" font-size="10" fill="#8c959f" font-family="ui-monospace, SFMono-Regular, 'SF Mono', Menlo, monospace">05-29</text><text x="735.0" y="248" text-anchor="middle" font-size="10" fill="#8c959f" font-family="ui-monospace, SFMono-Regular, 'SF Mono', Menlo, monospace">06-01</text><text x="800.0" y="248" text-anchor="middle" font-size="10" fill="#8c959f" font-family="ui-monospace, SFMono-Regular, 'SF Mono', Menlo, monospace">06-03</text>

  <!-- legend -->
  <rect x="60" y="262" width="16" height="3" fill="#4e79a7" rx="1"/><text x="80" y="268" font-size="11" fill="#57606a" font-family="-apple-system, BlinkMacSystemFont, 'Segoe UI', sans-serif">Total clones (50)</text><line x1="230" y1="264" x2="246" y2="264" stroke="#f28e2b" stroke-width="2" stroke-dasharray="5,3"/><text x="250" y="268" font-size="11" fill="#57606a" font-family="-apple-system, BlinkMacSystemFont, 'Segoe UI', sans-serif">Unique cloners</text>

</svg>