<svg xmlns="http://www.w3.org/2000/svg" viewBox="0 0 820 280" width="820" height="280">

  <!-- title -->
  <text x="52" y="18" font-size="13" font-weight="600"
        fill="#24292f" font-family="-apple-system, BlinkMacSystemFont, 'Segoe UI', sans-serif"
        >Clone traffic — local-ai-lab</text>
  <text x="800" y="18" font-size="10" fill="#8c959f"
        font-family="ui-monospace, SFMono-Regular, 'SF Mono', Menlo, monospace" text-anchor="end">2026-07-17</text>

  <!-- grid -->
  <line x1="52" y1="232.0" x2="800" y2="232.0" stroke="#e8e8e8" stroke-width="1"/><line x1="52" y1="179.2" x2="800" y2="179.2" stroke="#e8e8e8" stroke-width="1"/><line x1="52" y1="126.3" x2="800" y2="126.3" stroke="#e8e8e8" stroke-width="1"/><line x1="52" y1="73.5" x2="800" y2="73.5" stroke="#e8e8e8" stroke-width="1"/><line x1="52" y1="20.6" x2="800" y2="20.6" stroke="#e8e8e8" stroke-width="1"/>

  <!-- area fill -->
  <path d="M52.0,232.0 L52.0,232.0 L68.3,232.0 L84.5,232.0 L100.8,232.0 L117.0,232.0 L133.3,232.0 L149.6,232.0 L165.8,232.0 L182.1,232.0 L198.3,232.0 L214.6,232.0 L230.9,232.0 L247.1,232.0 L263.4,118.1 L279.7,117.1 L295.9,91.9 L312.2,77.4 L328.4,28.0 L344.7,191.3 L361.0,230.4 L377.2,232.0 L393.5,221.2 L409.7,230.4 L426.0,225.1 L442.3,228.6 L458.5,229.6 L474.8,230.7 L491.0,229.1 L507.3,232.0 L523.6,231.7 L539.8,232.0 L556.1,232.0 L572.3,231.5 L588.6,231.5 L604.9,207.7 L621.1,220.6 L637.4,231.2 L653.7,231.7 L669.9,230.9 L686.2,231.7 L702.4,231.7 L718.7,232.0 L735.0,231.7 L751.2,231.5 L767.5,231.7 L783.7,231.5 L800.0,232.0 L800.0,232.0 L52.0,232.0Z" fill="#4e79a7" opacity="0.12"/>

  <!-- lines -->
  <polyline points="52.0,232.0 68.3,232.0 84.5,232.0 100.8,232.0 117.0,232.0 133.3,232.0 149.6,232.0 165.8,232.0 182.1,232.0 198.3,232.0 214.6,232.0 230.9,232.0 247.1,232.0 263.4,118.1 279.7,117.1 295.9,91.9 312.2,77.4 328.4,28.0 344.7,191.3 361.0,230.4 377.2,232.0 393.5,221.2 409.7,230.4 426.0,225.1 442.3,228.6 458.5,229.6 474.8,230.7 491.0,229.1 507.3,232.0 523.6,231.7 539.8,232.0 556.1,232.0 572.3,231.5 588.6,231.5 604.9,207.7 621.1,220.6 637.4,231.2 653.7,231.7 669.9,230.9 686.2,231.7 702.4,231.7 718.7,232.0 735.0,231.7 751.2,231.5 767.5,231.7 783.7,231.5 800.0,232.0"
            fill="none" stroke="#4e79a7"
            stroke-width="2" stroke-linejoin="round"/>
  <polyline points="52.0,232.0 68.3,232.0 84.5,232.0 100.8,232.0 117.0,232.0 133.3,232.0 149.6,232.0 165.8,232.0 182.1,232.0 198.3,232.0 214.6,232.0 230.9,232.0 247.1,232.0 263.4,191.0 279.7,188.9 295.9,193.9 312.2,189.2 328.4,168.8 344.7,215.1 361.0,230.7 377.2,232.0 393.5,229.6 409.7,230.7 426.0,230.7 442.3,230.9 458.5,231.2 474.8,231.5 491.0,231.2 507.3,232.0 523.6,231.7 539.8,232.0 556.1,232.0 572.3,231.5 588.6,231.5 604.9,222.2 621.1,226.2 637.4,231.2 653.7,231.7 669.9,230.9 686.2,231.7 702.4,231.7 718.7,232.0 735.0,231.7 751.2,231.5 767.5,231.7 783.7,231.5 800.0,232.0"
            fill="none" stroke="#f28e2b"
            stroke-width="2" stroke-linejoin="round"
            stroke-dasharray="5,3"/>

  <!-- dots -->
  <circle cx="52.0" cy="232.0" r="3" fill="#4e79a7"/><circle cx="68.3" cy="232.0" r="3" fill="#4e79a7"/><circle cx="84.5" cy="232.0" r="3" fill="#4e79a7"/><circle cx="100.8" cy="232.0" r="3" fill="#4e79a7"/><circle cx="117.0" cy="232.0" r="3" fill="#4e79a7"/><circle cx="133.3" cy="232.0" r="3" fill="#4e79a7"/><circle cx="149.6" cy="232.0" r="3" fill="#4e79a7"/><circle cx="165.8" cy="232.0" r="3" fill="#4e79a7"/><circle cx="182.1" cy="232.0" r="3" fill="#4e79a7"/><circle cx="198.3" cy="232.0" r="3" fill="#4e79a7"/><circle cx="214.6" cy="232.0" r="3" fill="#4e79a7"/><circle cx="230.9" cy="232.0" r="3" fill="#4e79a7"/><circle cx="247.1" cy="232.0" r="3" fill="#4e79a7"/><circle cx="263.4" cy="118.1" r="3" fill="#4e79a7"/><circle cx="279.7" cy="117.1" r="3" fill="#4e79a7"/><circle cx="295.9" cy="91.9" r="3" fill="#4e79a7"/><circle cx="312.2" cy="77.4" r="3" fill="#4e79a7"/><circle cx="328.4" cy="28.0" r="3" fill="#4e79a7"/><circle cx="344.7" cy="191.3" r="3" fill="#4e79a7"/><circle cx="361.0" cy="230.4" r="3" fill="#4e79a7"/><circle cx="377.2" cy="232.0" r="3" fill="#4e79a7"/><circle cx="393.5" cy="221.2" r="3" fill="#4e79a7"/><circle cx="409.7" cy="230.4" r="3" fill="#4e79a7"/><circle cx="426.0" cy="225.1" r="3" fill="#4e79a7"/><circle cx="442.3" cy="228.6" r="3" fill="#4e79a7"/><circle cx="458.5" cy="229.6" r="3" fill="#4e79a7"/><circle cx="474.8" cy="230.7" r="3" fill="#4e79a7"/><circle cx="491.0" cy="229.1" r="3" fill="#4e79a7"/><circle cx="507.3" cy="232.0" r="3" fill="#4e79a7"/><circle cx="523.6" cy="231.7" r="3" fill="#4e79a7"/><circle cx="539.8" cy="232.0" r="3" fill="#4e79a7"/><circle cx="556.1" cy="232.0" r="3" fill="#4e79a7"/><circle cx="572.3" cy="231.5" r="3" fill="#4e79a7"/><circle cx="588.6" cy="231.5" r="3" fill="#4e79a7"/><circle cx="604.9" cy="207.7" r="3" fill="#4e79a7"/><circle cx="621.1" cy="220.6" r="3" fill="#4e79a7"/><circle cx="637.4" cy="231.2" r="3" fill="#4e79a7"/><circle cx="653.7" cy="231.7" r="3" fill="#4e79a7"/><circle cx="669.9" cy="230.9" r="3" fill="#4e79a7"/><circle cx="686.2" cy="231.7" r="3" fill="#4e79a7"/><circle cx="702.4" cy="231.7" r="3" fill="#4e79a7"/><circle cx="718.7" cy="232.0" r="3" fill="#4e79a7"/><circle cx="735.0" cy="231.7" r="3" fill="#4e79a7"/><circle cx="751.2" cy="231.5" r="3" fill="#4e79a7"/><circle cx="767.5" cy="231.7" r="3" fill="#4e79a7"/><circle cx="783.7" cy="231.5" r="3" fill="#4e79a7"/><circle cx="800.0" cy="232.0" r="3" fill="#4e79a7"/>
  <circle cx="52.0" cy="232.0" r="3" fill="#f28e2b"/><circle cx="68.3" cy="232.0" r="3" fill="#f28e2b"/><circle cx="84.5" cy="232.0" r="3" fill="#f28e2b"/><circle cx="100.8" cy="232.0" r="3" fill="#f28e2b"/><circle cx="117.0" cy="232.0" r="3" fill="#f28e2b"/><circle cx="133.3" cy="232.0" r="3" fill="#f28e2b"/><circle cx="149.6" cy="232.0" r="3" fill="#f28e2b"/><circle cx="165.8" cy="232.0" r="3" fill="#f28e2b"/><circle cx="182.1" cy="232.0" r="3" fill="#f28e2b"/><circle cx="198.3" cy="232.0" r="3" fill="#f28e2b"/><circle cx="214.6" cy="232.0" r="3" fill="#f28e2b"/><circle cx="230.9" cy="232.0" r="3" fill="#f28e2b"/><circle cx="247.1" cy="232.0" r="3" fill="#f28e2b"/><circle cx="263.4" cy="191.0" r="3" fill="#f28e2b"/><circle cx="279.7" cy="188.9" r="3" fill="#f28e2b"/><circle cx="295.9" cy="193.9" r="3" fill="#f28e2b"/><circle cx="312.2" cy="189.2" r="3" fill="#f28e2b"/><circle cx="328.4" cy="168.8" r="3" fill="#f28e2b"/><circle cx="344.7" cy="215.1" r="3" fill="#f28e2b"/><circle cx="361.0" cy="230.7" r="3" fill="#f28e2b"/><circle cx="377.2" cy="232.0" r="3" fill="#f28e2b"/><circle cx="393.5" cy="229.6" r="3" fill="#f28e2b"/><circle cx="409.7" cy="230.7" r="3" fill="#f28e2b"/><circle cx="426.0" cy="230.7" r="3" fill="#f28e2b"/><circle cx="442.3" cy="230.9" r="3" fill="#f28e2b"/><circle cx="458.5" cy="231.2" r="3" fill="#f28e2b"/><circle cx="474.8" cy="231.5" r="3" fill="#f28e2b"/><circle cx="491.0" cy="231.2" r="3" fill="#f28e2b"/><circle cx="507.3" cy="232.0" r="3" fill="#f28e2b"/><circle cx="523.6" cy="231.7" r="3" fill="#f28e2b"/><circle cx="539.8" cy="232.0" r="3" fill="#f28e2b"/><circle cx="556.1" cy="232.0" r="3" fill="#f28e2b"/><circle cx="572.3" cy="231.5" r="3" fill="#f28e2b"/><circle cx="588.6" cy="231.5" r="3" fill="#f28e2b"/><circle cx="604.9" cy="222.2" r="3" fill="#f28e2b"/><circle cx="621.1" cy="226.2" r="3" fill="#f28e2b"/><circle cx="637.4" cy="231.2" r="3" fill="#f28e2b"/><circle cx="653.7" cy="231.7" r="3" fill="#f28e2b"/><circle cx="669.9" cy="230.9" r="3" fill="#f28e2b"/><circle cx="686.2" cy="231.7" r="3" fill="#f28e2b"/><circle cx="702.4" cy="231.7" r="3" fill="#f28e2b"/><circle cx="718.7" cy="232.0" r="3" fill="#f28e2b"/><circle cx="735.0" cy="231.7" r="3" fill="#f28e2b"/><circle cx="751.2" cy="231.5" r="3" fill="#f28e2b"/><circle cx="767.5" cy="231.7" r="3" fill="#f28e2b"/><circle cx="783.7" cy="231.5" r="3" fill="#f28e2b"/><circle cx="800.0" cy="232.0" r="3" fill="#f28e2b"/>

  <!-- axes -->
  <line x1="52" y1="28" x2="52" y2="232"
        stroke="#cccccc" stroke-width="1"/>
  <line x1="52" y1="232" x2="800" y2="232"
        stroke="#cccccc" stroke-width="1"/>

  <!-- y-axis labels -->
  <text x="47" y="236.0" text-anchor="end" font-size="10" fill="#57606a" font-family="ui-monospace, SFMono-Regular, 'SF Mono', Menlo, monospace">0</text><text x="47" y="183.2" text-anchor="end" font-size="10" fill="#57606a" font-family="ui-monospace, SFMono-Regular, 'SF Mono', Menlo, monospace">200</text><text x="47" y="130.3" text-anchor="end" font-size="10" fill="#57606a" font-family="ui-monospace, SFMono-Regular, 'SF Mono', Menlo, monospace">400</text><text x="47" y="77.5" text-anchor="end" font-size="10" fill="#57606a" font-family="ui-monospace, SFMono-Regular, 'SF Mono', Menlo, monospace">600</text><text x="47" y="24.6" text-anchor="end" font-size="10" fill="#57606a" font-family="ui-monospace, SFMono-Regular, 'SF Mono', Menlo, monospace">800</text>

  <!-- x-axis labels -->
  <text x="52.0" y="248" text-anchor="middle" font-size="10" fill="#8c959f" font-family="ui-monospace, SFMono-Regular, 'SF Mono', Menlo, monospace">05-30</text><text x="621.1" y="248" text-anchor="middle" font-size="10" fill="#8c959f" font-family="ui-monospace, SFMono-Regular, 'SF Mono', Menlo, monospace">07-04</text><text x="133.3" y="248" text-anchor="middle" font-size="10" fill="#8c959f" font-family="ui-monospace, SFMono-Regular, 'SF Mono', Menlo, monospace">06-04</text><text x="702.4" y="248" text-anchor="middle" font-size="10" fill="#8c959f" font-family="ui-monospace, SFMono-Regular, 'SF Mono', Menlo, monospace">07-09</text><text x="214.6" y="248" text-anchor="middle" font-size="10" fill="#8c959f" font-family="ui-monospace, SFMono-Regular, 'SF Mono', Menlo, monospace">06-09</text><text x="783.7" y="248" text-anchor="middle" font-size="10" fill="#8c959f" font-family="ui-monospace, SFMono-Regular, 'SF Mono', Menlo, monospace">07-14</text><text x="800.0" y="248" text-anchor="middle" font-size="10" fill="#8c959f" font-family="ui-monospace, SFMono-Regular, 'SF Mono', Menlo, monospace">07-15</text><text x="295.9" y="248" text-anchor="middle" font-size="10" fill="#8c959f" font-family="ui-monospace, SFMono-Regular, 'SF Mono', Menlo, monospace">06-14</text><text x="377.2" y="248" text-anchor="middle" font-size="10" fill="#8c959f" font-family="ui-monospace, SFMono-Regular, 'SF Mono', Menlo, monospace">06-19</text><text x="458.5" y="248" text-anchor="middle" font-size="10" fill="#8c959f" font-family="ui-monospace, SFMono-Regular, 'SF Mono', Menlo, monospace">06-24</text><text x="539.8" y="248" text-anchor="middle" font-size="10" fill="#8c959f" font-family="ui-monospace, SFMono-Regular, 'SF Mono', Menlo, monospace">06-29</text>

  <!-- legend -->
  <rect x="60" y="262" width="16" height="3" fill="#4e79a7" rx="1"/><text x="80" y="268" font-size="11" fill="#57606a" font-family="-apple-system, BlinkMacSystemFont, 'Segoe UI', sans-serif">Total clones (3,180)</text><line x1="230" y1="264" x2="246" y2="264" stroke="#f28e2b" stroke-width="2" stroke-dasharray="5,3"/><text x="250" y="268" font-size="11" fill="#57606a" font-family="-apple-system, BlinkMacSystemFont, 'Segoe UI', sans-serif">Unique cloners</text>

</svg>