<svg xmlns="http://www.w3.org/2000/svg" viewBox="0 0 820 280" width="820" height="280">

  <!-- title -->
  <text x="52" y="18" font-size="13" font-weight="600"
        fill="#24292f" font-family="-apple-system, BlinkMacSystemFont, 'Segoe UI', sans-serif"
        >Clone traffic — local-ai-lab</text>
  <text x="800" y="18" font-size="10" fill="#8c959f"
        font-family="ui-monospace, SFMono-Regular, 'SF Mono', Menlo, monospace" text-anchor="end">2026-07-13</text>

  <!-- grid -->
  <line x1="52" y1="232.0" x2="800" y2="232.0" stroke="#e8e8e8" stroke-width="1"/><line x1="52" y1="179.2" x2="800" y2="179.2" stroke="#e8e8e8" stroke-width="1"/><line x1="52" y1="126.3" x2="800" y2="126.3" stroke="#e8e8e8" stroke-width="1"/><line x1="52" y1="73.5" x2="800" y2="73.5" stroke="#e8e8e8" stroke-width="1"/><line x1="52" y1="20.6" x2="800" y2="20.6" stroke="#e8e8e8" stroke-width="1"/>

  <!-- area fill -->
  <path d="M52.0,232.0 L52.0,232.0 L69.8,232.0 L87.6,232.0 L105.4,232.0 L123.2,232.0 L141.0,232.0 L158.9,232.0 L176.7,232.0 L194.5,232.0 L212.3,232.0 L230.1,232.0 L247.9,232.0 L265.7,232.0 L283.5,118.1 L301.3,117.1 L319.1,91.9 L337.0,77.4 L354.8,28.0 L372.6,191.3 L390.4,230.4 L408.2,232.0 L426.0,221.2 L443.8,230.4 L461.6,225.1 L479.4,228.6 L497.2,229.6 L515.0,230.7 L532.9,229.1 L550.7,232.0 L568.5,231.7 L586.3,232.0 L604.1,232.0 L621.9,231.5 L639.7,231.5 L657.5,207.7 L675.3,220.6 L693.1,231.2 L711.0,231.7 L728.8,230.9 L746.6,231.7 L764.4,231.7 L782.2,232.0 L800.0,231.7 L800.0,232.0 L52.0,232.0Z" fill="#4e79a7" opacity="0.12"/>

  <!-- lines -->
  <polyline points="52.0,232.0 69.8,232.0 87.6,232.0 105.4,232.0 123.2,232.0 141.0,232.0 158.9,232.0 176.7,232.0 194.5,232.0 212.3,232.0 230.1,232.0 247.9,232.0 265.7,232.0 283.5,118.1 301.3,117.1 319.1,91.9 337.0,77.4 354.8,28.0 372.6,191.3 390.4,230.4 408.2,232.0 426.0,221.2 443.8,230.4 461.6,225.1 479.4,228.6 497.2,229.6 515.0,230.7 532.9,229.1 550.7,232.0 568.5,231.7 586.3,232.0 604.1,232.0 621.9,231.5 639.7,231.5 657.5,207.7 675.3,220.6 693.1,231.2 711.0,231.7 728.8,230.9 746.6,231.7 764.4,231.7 782.2,232.0 800.0,231.7"
            fill="none" stroke="#4e79a7"
            stroke-width="2" stroke-linejoin="round"/>
  <polyline points="52.0,232.0 69.8,232.0 87.6,232.0 105.4,232.0 123.2,232.0 141.0,232.0 158.9,232.0 176.7,232.0 194.5,232.0 212.3,232.0 230.1,232.0 247.9,232.0 265.7,232.0 283.5,191.0 301.3,188.9 319.1,193.9 337.0,189.2 354.8,168.8 372.6,215.1 390.4,230.7 408.2,232.0 426.0,229.6 443.8,230.7 461.6,230.7 479.4,230.9 497.2,231.2 515.0,231.5 532.9,231.2 550.7,232.0 568.5,231.7 586.3,232.0 604.1,232.0 621.9,231.5 639.7,231.5 657.5,222.2 675.3,226.2 693.1,231.2 711.0,231.7 728.8,230.9 746.6,231.7 764.4,231.7 782.2,232.0 800.0,231.7"
            fill="none" stroke="#f28e2b"
            stroke-width="2" stroke-linejoin="round"
            stroke-dasharray="5,3"/>

  <!-- dots -->
  <circle cx="52.0" cy="232.0" r="3" fill="#4e79a7"/><circle cx="69.8" cy="232.0" r="3" fill="#4e79a7"/><circle cx="87.6" cy="232.0" r="3" fill="#4e79a7"/><circle cx="105.4" cy="232.0" r="3" fill="#4e79a7"/><circle cx="123.2" cy="232.0" r="3" fill="#4e79a7"/><circle cx="141.0" cy="232.0" r="3" fill="#4e79a7"/><circle cx="158.9" cy="232.0" r="3" fill="#4e79a7"/><circle cx="176.7" cy="232.0" r="3" fill="#4e79a7"/><circle cx="194.5" cy="232.0" r="3" fill="#4e79a7"/><circle cx="212.3" cy="232.0" r="3" fill="#4e79a7"/><circle cx="230.1" cy="232.0" r="3" fill="#4e79a7"/><circle cx="247.9" cy="232.0" r="3" fill="#4e79a7"/><circle cx="265.7" cy="232.0" r="3" fill="#4e79a7"/><circle cx="283.5" cy="118.1" r="3" fill="#4e79a7"/><circle cx="301.3" cy="117.1" r="3" fill="#4e79a7"/><circle cx="319.1" cy="91.9" r="3" fill="#4e79a7"/><circle cx="337.0" cy="77.4" r="3" fill="#4e79a7"/><circle cx="354.8" cy="28.0" r="3" fill="#4e79a7"/><circle cx="372.6" cy="191.3" r="3" fill="#4e79a7"/><circle cx="390.4" cy="230.4" r="3" fill="#4e79a7"/><circle cx="408.2" cy="232.0" r="3" fill="#4e79a7"/><circle cx="426.0" cy="221.2" r="3" fill="#4e79a7"/><circle cx="443.8" cy="230.4" r="3" fill="#4e79a7"/><circle cx="461.6" cy="225.1" r="3" fill="#4e79a7"/><circle cx="479.4" cy="228.6" r="3" fill="#4e79a7"/><circle cx="497.2" cy="229.6" r="3" fill="#4e79a7"/><circle cx="515.0" cy="230.7" r="3" fill="#4e79a7"/><circle cx="532.9" cy="229.1" r="3" fill="#4e79a7"/><circle cx="550.7" cy="232.0" r="3" fill="#4e79a7"/><circle cx="568.5" cy="231.7" r="3" fill="#4e79a7"/><circle cx="586.3" cy="232.0" r="3" fill="#4e79a7"/><circle cx="604.1" cy="232.0" r="3" fill="#4e79a7"/><circle cx="621.9" cy="231.5" r="3" fill="#4e79a7"/><circle cx="639.7" cy="231.5" r="3" fill="#4e79a7"/><circle cx="657.5" cy="207.7" r="3" fill="#4e79a7"/><circle cx="675.3" cy="220.6" r="3" fill="#4e79a7"/><circle cx="693.1" cy="231.2" r="3" fill="#4e79a7"/><circle cx="711.0" cy="231.7" r="3" fill="#4e79a7"/><circle cx="728.8" cy="230.9" r="3" fill="#4e79a7"/><circle cx="746.6" cy="231.7" r="3" fill="#4e79a7"/><circle cx="764.4" cy="231.7" r="3" fill="#4e79a7"/><circle cx="782.2" cy="232.0" r="3" fill="#4e79a7"/><circle cx="800.0" cy="231.7" r="3" fill="#4e79a7"/>
  <circle cx="52.0" cy="232.0" r="3" fill="#f28e2b"/><circle cx="69.8" cy="232.0" r="3" fill="#f28e2b"/><circle cx="87.6" cy="232.0" r="3" fill="#f28e2b"/><circle cx="105.4" cy="232.0" r="3" fill="#f28e2b"/><circle cx="123.2" cy="232.0" r="3" fill="#f28e2b"/><circle cx="141.0" cy="232.0" r="3" fill="#f28e2b"/><circle cx="158.9" cy="232.0" r="3" fill="#f28e2b"/><circle cx="176.7" cy="232.0" r="3" fill="#f28e2b"/><circle cx="194.5" cy="232.0" r="3" fill="#f28e2b"/><circle cx="212.3" cy="232.0" r="3" fill="#f28e2b"/><circle cx="230.1" cy="232.0" r="3" fill="#f28e2b"/><circle cx="247.9" cy="232.0" r="3" fill="#f28e2b"/><circle cx="265.7" cy="232.0" r="3" fill="#f28e2b"/><circle cx="283.5" cy="191.0" r="3" fill="#f28e2b"/><circle cx="301.3" cy="188.9" r="3" fill="#f28e2b"/><circle cx="319.1" cy="193.9" r="3" fill="#f28e2b"/><circle cx="337.0" cy="189.2" r="3" fill="#f28e2b"/><circle cx="354.8" cy="168.8" r="3" fill="#f28e2b"/><circle cx="372.6" cy="215.1" r="3" fill="#f28e2b"/><circle cx="390.4" cy="230.7" r="3" fill="#f28e2b"/><circle cx="408.2" cy="232.0" r="3" fill="#f28e2b"/><circle cx="426.0" cy="229.6" r="3" fill="#f28e2b"/><circle cx="443.8" cy="230.7" r="3" fill="#f28e2b"/><circle cx="461.6" cy="230.7" r="3" fill="#f28e2b"/><circle cx="479.4" cy="230.9" r="3" fill="#f28e2b"/><circle cx="497.2" cy="231.2" r="3" fill="#f28e2b"/><circle cx="515.0" cy="231.5" r="3" fill="#f28e2b"/><circle cx="532.9" cy="231.2" r="3" fill="#f28e2b"/><circle cx="550.7" cy="232.0" r="3" fill="#f28e2b"/><circle cx="568.5" cy="231.7" r="3" fill="#f28e2b"/><circle cx="586.3" cy="232.0" r="3" fill="#f28e2b"/><circle cx="604.1" cy="232.0" r="3" fill="#f28e2b"/><circle cx="621.9" cy="231.5" r="3" fill="#f28e2b"/><circle cx="639.7" cy="231.5" r="3" fill="#f28e2b"/><circle cx="657.5" cy="222.2" r="3" fill="#f28e2b"/><circle cx="675.3" cy="226.2" r="3" fill="#f28e2b"/><circle cx="693.1" cy="231.2" r="3" fill="#f28e2b"/><circle cx="711.0" cy="231.7" r="3" fill="#f28e2b"/><circle cx="728.8" cy="230.9" r="3" fill="#f28e2b"/><circle cx="746.6" cy="231.7" r="3" fill="#f28e2b"/><circle cx="764.4" cy="231.7" r="3" fill="#f28e2b"/><circle cx="782.2" cy="232.0" r="3" fill="#f28e2b"/><circle cx="800.0" cy="231.7" r="3" fill="#f28e2b"/>

  <!-- axes -->
  <line x1="52" y1="28" x2="52" y2="232"
        stroke="#cccccc" stroke-width="1"/>
  <line x1="52" y1="232" x2="800" y2="232"
        stroke="#cccccc" stroke-width="1"/>

  <!-- y-axis labels -->
  <text x="47" y="236.0" text-anchor="end" font-size="10" fill="#57606a" font-family="ui-monospace, SFMono-Regular, 'SF Mono', Menlo, monospace">0</text><text x="47" y="183.2" text-anchor="end" font-size="10" fill="#57606a" font-family="ui-monospace, SFMono-Regular, 'SF Mono', Menlo, monospace">200</text><text x="47" y="130.3" text-anchor="end" font-size="10" fill="#57606a" font-family="ui-monospace, SFMono-Regular, 'SF Mono', Menlo, monospace">400</text><text x="47" y="77.5" text-anchor="end" font-size="10" fill="#57606a" font-family="ui-monospace, SFMono-Regular, 'SF Mono', Menlo, monospace">600</text><text x="47" y="24.6" text-anchor="end" font-size="10" fill="#57606a" font-family="ui-monospace, SFMono-Regular, 'SF Mono', Menlo, monospace">800</text>

  <!-- x-axis labels -->
  <text x="52.0" y="248" text-anchor="middle" font-size="10" fill="#8c959f" font-family="ui-monospace, SFMono-Regular, 'SF Mono', Menlo, monospace">05-30</text><text x="675.3" y="248" text-anchor="middle" font-size="10" fill="#8c959f" font-family="ui-monospace, SFMono-Regular, 'SF Mono', Menlo, monospace">07-04</text><text x="141.0" y="248" text-anchor="middle" font-size="10" fill="#8c959f" font-family="ui-monospace, SFMono-Regular, 'SF Mono', Menlo, monospace">06-04</text><text x="764.4" y="248" text-anchor="middle" font-size="10" fill="#8c959f" font-family="ui-monospace, SFMono-Regular, 'SF Mono', Menlo, monospace">07-09</text><text x="230.1" y="248" text-anchor="middle" font-size="10" fill="#8c959f" font-family="ui-monospace, SFMono-Regular, 'SF Mono', Menlo, monospace">06-09</text><text x="800.0" y="248" text-anchor="middle" font-size="10" fill="#8c959f" font-family="ui-monospace, SFMono-Regular, 'SF Mono', Menlo, monospace">07-11</text><text x="319.1" y="248" text-anchor="middle" font-size="10" fill="#8c959f" font-family="ui-monospace, SFMono-Regular, 'SF Mono', Menlo, monospace">06-14</text><text x="408.2" y="248" text-anchor="middle" font-size="10" fill="#8c959f" font-family="ui-monospace, SFMono-Regular, 'SF Mono', Menlo, monospace">06-19</text><text x="497.2" y="248" text-anchor="middle" font-size="10" fill="#8c959f" font-family="ui-monospace, SFMono-Regular, 'SF Mono', Menlo, monospace">06-24</text><text x="586.3" y="248" text-anchor="middle" font-size="10" fill="#8c959f" font-family="ui-monospace, SFMono-Regular, 'SF Mono', Menlo, monospace">06-29</text>

  <!-- legend -->
  <rect x="60" y="262" width="16" height="3" fill="#4e79a7" rx="1"/><text x="80" y="268" font-size="11" fill="#57606a" font-family="-apple-system, BlinkMacSystemFont, 'Segoe UI', sans-serif">Total clones (3,175)</text><line x1="230" y1="264" x2="246" y2="264" stroke="#f28e2b" stroke-width="2" stroke-dasharray="5,3"/><text x="250" y="268" font-size="11" fill="#57606a" font-family="-apple-system, BlinkMacSystemFont, 'Segoe UI', sans-serif">Unique cloners</text>

</svg>