<svg xmlns="http://www.w3.org/2000/svg" viewBox="0 0 820 280" width="820" height="280">

  <!-- title -->
  <text x="52" y="18" font-size="13" font-weight="600"
        fill="#24292f" font-family="-apple-system, BlinkMacSystemFont, 'Segoe UI', sans-serif"
        >Clone traffic — local-ai-lab</text>
  <text x="800" y="18" font-size="10" fill="#8c959f"
        font-family="ui-monospace, SFMono-Regular, 'SF Mono', Menlo, monospace" text-anchor="end">2026-07-03</text>

  <!-- grid -->
  <line x1="52" y1="232.0" x2="800" y2="232.0" stroke="#e8e8e8" stroke-width="1"/><line x1="52" y1="179.2" x2="800" y2="179.2" stroke="#e8e8e8" stroke-width="1"/><line x1="52" y1="126.3" x2="800" y2="126.3" stroke="#e8e8e8" stroke-width="1"/><line x1="52" y1="73.5" x2="800" y2="73.5" stroke="#e8e8e8" stroke-width="1"/><line x1="52" y1="20.6" x2="800" y2="20.6" stroke="#e8e8e8" stroke-width="1"/>

  <!-- area fill -->
  <path d="M52.0,232.0 L52.0,232.0 L74.7,232.0 L97.3,232.0 L120.0,232.0 L142.7,232.0 L165.3,232.0 L188.0,232.0 L210.7,232.0 L233.3,232.0 L256.0,232.0 L278.7,232.0 L301.3,232.0 L324.0,232.0 L346.7,118.1 L369.3,117.1 L392.0,91.9 L414.7,77.4 L437.3,28.0 L460.0,191.3 L482.7,230.4 L505.3,232.0 L528.0,221.2 L550.7,230.4 L573.3,225.1 L596.0,228.6 L618.7,229.6 L641.3,230.7 L664.0,229.1 L686.7,232.0 L709.3,231.7 L732.0,232.0 L754.7,232.0 L777.3,231.5 L800.0,231.5 L800.0,232.0 L52.0,232.0Z" fill="#4e79a7" opacity="0.12"/>

  <!-- lines -->
  <polyline points="52.0,232.0 74.7,232.0 97.3,232.0 120.0,232.0 142.7,232.0 165.3,232.0 188.0,232.0 210.7,232.0 233.3,232.0 256.0,232.0 278.7,232.0 301.3,232.0 324.0,232.0 346.7,118.1 369.3,117.1 392.0,91.9 414.7,77.4 437.3,28.0 460.0,191.3 482.7,230.4 505.3,232.0 528.0,221.2 550.7,230.4 573.3,225.1 596.0,228.6 618.7,229.6 641.3,230.7 664.0,229.1 686.7,232.0 709.3,231.7 732.0,232.0 754.7,232.0 777.3,231.5 800.0,231.5"
            fill="none" stroke="#4e79a7"
            stroke-width="2" stroke-linejoin="round"/>
  <polyline points="52.0,232.0 74.7,232.0 97.3,232.0 120.0,232.0 142.7,232.0 165.3,232.0 188.0,232.0 210.7,232.0 233.3,232.0 256.0,232.0 278.7,232.0 301.3,232.0 324.0,232.0 346.7,191.0 369.3,188.9 392.0,193.9 414.7,189.2 437.3,168.8 460.0,215.1 482.7,230.7 505.3,232.0 528.0,229.6 550.7,230.7 573.3,230.7 596.0,230.9 618.7,231.2 641.3,231.5 664.0,231.2 686.7,232.0 709.3,231.7 732.0,232.0 754.7,232.0 777.3,231.5 800.0,231.5"
            fill="none" stroke="#f28e2b"
            stroke-width="2" stroke-linejoin="round"
            stroke-dasharray="5,3"/>

  <!-- dots -->
  <circle cx="52.0" cy="232.0" r="3" fill="#4e79a7"/><circle cx="74.7" cy="232.0" r="3" fill="#4e79a7"/><circle cx="97.3" cy="232.0" r="3" fill="#4e79a7"/><circle cx="120.0" cy="232.0" r="3" fill="#4e79a7"/><circle cx="142.7" cy="232.0" r="3" fill="#4e79a7"/><circle cx="165.3" cy="232.0" r="3" fill="#4e79a7"/><circle cx="188.0" cy="232.0" r="3" fill="#4e79a7"/><circle cx="210.7" cy="232.0" r="3" fill="#4e79a7"/><circle cx="233.3" cy="232.0" r="3" fill="#4e79a7"/><circle cx="256.0" cy="232.0" r="3" fill="#4e79a7"/><circle cx="278.7" cy="232.0" r="3" fill="#4e79a7"/><circle cx="301.3" cy="232.0" r="3" fill="#4e79a7"/><circle cx="324.0" cy="232.0" r="3" fill="#4e79a7"/><circle cx="346.7" cy="118.1" r="3" fill="#4e79a7"/><circle cx="369.3" cy="117.1" r="3" fill="#4e79a7"/><circle cx="392.0" cy="91.9" r="3" fill="#4e79a7"/><circle cx="414.7" cy="77.4" r="3" fill="#4e79a7"/><circle cx="437.3" cy="28.0" r="3" fill="#4e79a7"/><circle cx="460.0" cy="191.3" r="3" fill="#4e79a7"/><circle cx="482.7" cy="230.4" r="3" fill="#4e79a7"/><circle cx="505.3" cy="232.0" r="3" fill="#4e79a7"/><circle cx="528.0" cy="221.2" r="3" fill="#4e79a7"/><circle cx="550.7" cy="230.4" r="3" fill="#4e79a7"/><circle cx="573.3" cy="225.1" r="3" fill="#4e79a7"/><circle cx="596.0" cy="228.6" r="3" fill="#4e79a7"/><circle cx="618.7" cy="229.6" r="3" fill="#4e79a7"/><circle cx="641.3" cy="230.7" r="3" fill="#4e79a7"/><circle cx="664.0" cy="229.1" r="3" fill="#4e79a7"/><circle cx="686.7" cy="232.0" r="3" fill="#4e79a7"/><circle cx="709.3" cy="231.7" r="3" fill="#4e79a7"/><circle cx="732.0" cy="232.0" r="3" fill="#4e79a7"/><circle cx="754.7" cy="232.0" r="3" fill="#4e79a7"/><circle cx="777.3" cy="231.5" r="3" fill="#4e79a7"/><circle cx="800.0" cy="231.5" r="3" fill="#4e79a7"/>
  <circle cx="52.0" cy="232.0" r="3" fill="#f28e2b"/><circle cx="74.7" cy="232.0" r="3" fill="#f28e2b"/><circle cx="97.3" cy="232.0" r="3" fill="#f28e2b"/><circle cx="120.0" cy="232.0" r="3" fill="#f28e2b"/><circle cx="142.7" cy="232.0" r="3" fill="#f28e2b"/><circle cx="165.3" cy="232.0" r="3" fill="#f28e2b"/><circle cx="188.0" cy="232.0" r="3" fill="#f28e2b"/><circle cx="210.7" cy="232.0" r="3" fill="#f28e2b"/><circle cx="233.3" cy="232.0" r="3" fill="#f28e2b"/><circle cx="256.0" cy="232.0" r="3" fill="#f28e2b"/><circle cx="278.7" cy="232.0" r="3" fill="#f28e2b"/><circle cx="301.3" cy="232.0" r="3" fill="#f28e2b"/><circle cx="324.0" cy="232.0" r="3" fill="#f28e2b"/><circle cx="346.7" cy="191.0" r="3" fill="#f28e2b"/><circle cx="369.3" cy="188.9" r="3" fill="#f28e2b"/><circle cx="392.0" cy="193.9" r="3" fill="#f28e2b"/><circle cx="414.7" cy="189.2" r="3" fill="#f28e2b"/><circle cx="437.3" cy="168.8" r="3" fill="#f28e2b"/><circle cx="460.0" cy="215.1" r="3" fill="#f28e2b"/><circle cx="482.7" cy="230.7" r="3" fill="#f28e2b"/><circle cx="505.3" cy="232.0" r="3" fill="#f28e2b"/><circle cx="528.0" cy="229.6" r="3" fill="#f28e2b"/><circle cx="550.7" cy="230.7" r="3" fill="#f28e2b"/><circle cx="573.3" cy="230.7" r="3" fill="#f28e2b"/><circle cx="596.0" cy="230.9" r="3" fill="#f28e2b"/><circle cx="618.7" cy="231.2" r="3" fill="#f28e2b"/><circle cx="641.3" cy="231.5" r="3" fill="#f28e2b"/><circle cx="664.0" cy="231.2" r="3" fill="#f28e2b"/><circle cx="686.7" cy="232.0" r="3" fill="#f28e2b"/><circle cx="709.3" cy="231.7" r="3" fill="#f28e2b"/><circle cx="732.0" cy="232.0" r="3" fill="#f28e2b"/><circle cx="754.7" cy="232.0" r="3" fill="#f28e2b"/><circle cx="777.3" cy="231.5" r="3" fill="#f28e2b"/><circle cx="800.0" cy="231.5" r="3" fill="#f28e2b"/>

  <!-- axes -->
  <line x1="52" y1="28" x2="52" y2="232"
        stroke="#cccccc" stroke-width="1"/>
  <line x1="52" y1="232" x2="800" y2="232"
        stroke="#cccccc" stroke-width="1"/>

  <!-- y-axis labels -->
  <text x="47" y="236.0" text-anchor="end" font-size="10" fill="#57606a" font-family="ui-monospace, SFMono-Regular, 'SF Mono', Menlo, monospace">0</text><text x="47" y="183.2" text-anchor="end" font-size="10" fill="#57606a" font-family="ui-monospace, SFMono-Regular, 'SF Mono', Menlo, monospace">200</text><text x="47" y="130.3" text-anchor="end" font-size="10" fill="#57606a" font-family="ui-monospace, SFMono-Regular, 'SF Mono', Menlo, monospace">400</text><text x="47" y="77.5" text-anchor="end" font-size="10" fill="#57606a" font-family="ui-monospace, SFMono-Regular, 'SF Mono', Menlo, monospace">600</text><text x="47" y="24.6" text-anchor="end" font-size="10" fill="#57606a" font-family="ui-monospace, SFMono-Regular, 'SF Mono', Menlo, monospace">800</text>

  <!-- x-axis labels -->
  <text x="52.0" y="248" text-anchor="middle" font-size="10" fill="#8c959f" font-family="ui-monospace, SFMono-Regular, 'SF Mono', Menlo, monospace">05-30</text><text x="777.3" y="248" text-anchor="middle" font-size="10" fill="#8c959f" font-family="ui-monospace, SFMono-Regular, 'SF Mono', Menlo, monospace">07-01</text><text x="800.0" y="248" text-anchor="middle" font-size="10" fill="#8c959f" font-family="ui-monospace, SFMono-Regular, 'SF Mono', Menlo, monospace">07-02</text><text x="142.7" y="248" text-anchor="middle" font-size="10" fill="#8c959f" font-family="ui-monospace, SFMono-Regular, 'SF Mono', Menlo, monospace">06-03</text><text x="233.3" y="248" text-anchor="middle" font-size="10" fill="#8c959f" font-family="ui-monospace, SFMono-Regular, 'SF Mono', Menlo, monospace">06-07</text><text x="324.0" y="248" text-anchor="middle" font-size="10" fill="#8c959f" font-family="ui-monospace, SFMono-Regular, 'SF Mono', Menlo, monospace">06-11</text><text x="414.7" y="248" text-anchor="middle" font-size="10" fill="#8c959f" font-family="ui-monospace, SFMono-Regular, 'SF Mono', Menlo, monospace">06-15</text><text x="505.3" y="248" text-anchor="middle" font-size="10" fill="#8c959f" font-family="ui-monospace, SFMono-Regular, 'SF Mono', Menlo, monospace">06-19</text><text x="596.0" y="248" text-anchor="middle" font-size="10" fill="#8c959f" font-family="ui-monospace, SFMono-Regular, 'SF Mono', Menlo, monospace">06-23</text><text x="686.7" y="248" text-anchor="middle" font-size="10" fill="#8c959f" font-family="ui-monospace, SFMono-Regular, 'SF Mono', Menlo, monospace">06-27</text>

  <!-- legend -->
  <rect x="60" y="262" width="16" height="3" fill="#4e79a7" rx="1"/><text x="80" y="268" font-size="11" fill="#57606a" font-family="-apple-system, BlinkMacSystemFont, 'Segoe UI', sans-serif">Total clones (3,029)</text><line x1="230" y1="264" x2="246" y2="264" stroke="#f28e2b" stroke-width="2" stroke-dasharray="5,3"/><text x="250" y="268" font-size="11" fill="#57606a" font-family="-apple-system, BlinkMacSystemFont, 'Segoe UI', sans-serif">Unique cloners</text>

</svg>