<svg xmlns="http://www.w3.org/2000/svg" viewBox="0 0 820 280" width="820" height="280">

  <!-- title -->
  <text x="52" y="18" font-size="13" font-weight="600"
        fill="#24292f" font-family="-apple-system, BlinkMacSystemFont, 'Segoe UI', sans-serif"
        >Clone traffic — local-ai-lab</text>
  <text x="800" y="18" font-size="10" fill="#8c959f"
        font-family="ui-monospace, SFMono-Regular, 'SF Mono', Menlo, monospace" text-anchor="end">2026-10-07</text>

  <!-- grid -->
  <line x1="52" y1="232.0" x2="800" y2="232.0" stroke="#e8e8e8" stroke-width="1"/><line x1="52" y1="179.2" x2="800" y2="179.2" stroke="#e8e8e8" stroke-width="1"/><line x1="52" y1="126.3" x2="800" y2="126.3" stroke="#e8e8e8" stroke-width="1"/><line x1="52" y1="73.5" x2="800" y2="73.5" stroke="#e8e8e8" stroke-width="1"/><line x1="52" y1="20.6" x2="800" y2="20.6" stroke="#e8e8e8" stroke-width="1"/>

  <!-- area fill -->
  <path d="M52.0,232.0 L52.0,232.0 L58.1,232.0 L64.2,232.0 L70.2,232.0 L76.3,232.0 L82.4,232.0 L88.5,232.0 L94.6,232.0 L100.7,232.0 L106.7,232.0 L112.8,232.0 L118.9,232.0 L125.0,232.0 L131.1,118.1 L137.1,117.1 L143.2,91.9 L149.3,77.4 L155.4,28.0 L161.5,191.3 L167.5,230.4 L173.6,232.0 L179.7,221.2 L185.8,230.4 L191.9,225.1 L198.0,228.6 L204.0,229.6 L210.1,230.7 L216.2,229.1 L222.3,232.0 L228.4,231.7 L234.4,232.0 L240.5,232.0 L246.6,231.5 L252.7,231.5 L258.8,207.7 L264.8,220.6 L270.9,231.2 L277.0,231.7 L283.1,230.9 L289.2,231.7 L295.3,231.7 L301.3,232.0 L307.4,231.7 L313.5,231.5 L319.6,231.7 L325.7,231.5 L331.7,232.0 L337.8,232.0 L343.9,232.0 L350.0,231.7 L356.1,231.7 L362.1,231.7 L368.2,232.0 L374.3,231.2 L380.4,232.0 L386.5,230.9 L392.6,231.5 L398.6,231.7 L404.7,232.0 L410.8,231.7 L416.9,232.0 L423.0,231.2 L429.0,232.0 L435.1,232.0 L441.2,231.7 L447.3,231.7 L453.4,231.2 L459.4,230.7 L465.5,232.0 L471.6,231.7 L477.7,232.0 L483.8,231.2 L489.9,231.7 L495.9,231.7 L502.0,231.5 L508.1,232.0 L514.2,232.0 L520.3,231.7 L526.3,232.0 L532.4,232.0 L538.5,211.1 L544.6,213.8 L550.7,231.5 L556.7,231.5 L562.8,232.0 L568.9,231.7 L575.0,232.0 L581.1,232.0 L587.2,230.7 L593.2,231.7 L599.3,227.8 L605.4,204.0 L611.5,229.4 L617.6,231.7 L623.6,231.5 L629.7,232.0 L635.8,231.5 L641.9,230.9 L648.0,230.2 L654.0,231.5 L660.1,231.2 L666.2,231.7 L672.3,231.7 L678.4,231.7 L684.5,231.7 L690.5,230.7 L696.6,232.0 L702.7,232.0 L708.8,231.5 L714.9,225.9 L720.9,231.5 L727.0,230.9 L733.1,177.0 L739.2,231.2 L745.3,231.5 L751.3,230.2 L757.4,231.7 L763.5,231.7 L769.6,231.5 L775.7,232.0 L781.8,214.0 L787.8,178.9 L793.9,217.7 L800.0,227.0 L800.0,232.0 L52.0,232.0Z" fill="#4e79a7" opacity="0.12"/>

  <!-- lines -->
  <polyline points="52.0,232.0 58.1,232.0 64.2,232.0 70.2,232.0 76.3,232.0 82.4,232.0 88.5,232.0 94.6,232.0 100.7,232.0 106.7,232.0 112.8,232.0 118.9,232.0 125.0,232.0 131.1,118.1 137.1,117.1 143.2,91.9 149.3,77.4 155.4,28.0 161.5,191.3 167.5,230.4 173.6,232.0 179.7,221.2 185.8,230.4 191.9,225.1 198.0,228.6 204.0,229.6 210.1,230.7 216.2,229.1 222.3,232.0 228.4,231.7 234.4,232.0 240.5,232.0 246.6,231.5 252.7,231.5 258.8,207.7 264.8,220.6 270.9,231.2 277.0,231.7 283.1,230.9 289.2,231.7 295.3,231.7 301.3,232.0 307.4,231.7 313.5,231.5 319.6,231.7 325.7,231.5 331.7,232.0 337.8,232.0 343.9,232.0 350.0,231.7 356.1,231.7 362.1,231.7 368.2,232.0 374.3,231.2 380.4,232.0 386.5,230.9 392.6,231.5 398.6,231.7 404.7,232.0 410.8,231.7 416.9,232.0 423.0,231.2 429.0,232.0 435.1,232.0 441.2,231.7 447.3,231.7 453.4,231.2 459.4,230.7 465.5,232.0 471.6,231.7 477.7,232.0 483.8,231.2 489.9,231.7 495.9,231.7 502.0,231.5 508.1,232.0 514.2,232.0 520.3,231.7 526.3,232.0 532.4,232.0 538.5,211.1 544.6,213.8 550.7,231.5 556.7,231.5 562.8,232.0 568.9,231.7 575.0,232.0 581.1,232.0 587.2,230.7 593.2,231.7 599.3,227.8 605.4,204.0 611.5,229.4 617.6,231.7 623.6,231.5 629.7,232.0 635.8,231.5 641.9,230.9 648.0,230.2 654.0,231.5 660.1,231.2 666.2,231.7 672.3,231.7 678.4,231.7 684.5,231.7 690.5,230.7 696.6,232.0 702.7,232.0 708.8,231.5 714.9,225.9 720.9,231.5 727.0,230.9 733.1,177.0 739.2,231.2 745.3,231.5 751.3,230.2 757.4,231.7 763.5,231.7 769.6,231.5 775.7,232.0 781.8,214.0 787.8,178.9 793.9,217.7 800.0,227.0"
            fill="none" stroke="#4e79a7"
            stroke-width="2" stroke-linejoin="round"/>
  <polyline points="52.0,232.0 58.1,232.0 64.2,232.0 70.2,232.0 76.3,232.0 82.4,232.0 88.5,232.0 94.6,232.0 100.7,232.0 106.7,232.0 112.8,232.0 118.9,232.0 125.0,232.0 131.1,191.0 137.1,188.9 143.2,193.9 149.3,189.2 155.4,168.8 161.5,215.1 167.5,230.7 173.6,232.0 179.7,229.6 185.8,230.7 191.9,230.7 198.0,230.9 204.0,231.2 210.1,231.5 216.2,231.2 222.3,232.0 228.4,231.7 234.4,232.0 240.5,232.0 246.6,231.5 252.7,231.5 258.8,222.2 264.8,226.2 270.9,231.2 277.0,231.7 283.1,230.9 289.2,231.7 295.3,231.7 301.3,232.0 307.4,231.7 313.5,231.5 319.6,231.7 325.7,231.5 331.7,232.0 337.8,232.0 343.9,232.0 350.0,231.7 356.1,231.7 362.1,231.7 368.2,232.0 374.3,231.2 380.4,232.0 386.5,231.7 392.6,231.7 398.6,231.7 404.7,232.0 410.8,231.7 416.9,232.0 423.0,231.5 429.0,232.0 435.1,232.0 441.2,231.7 447.3,231.7 453.4,231.7 459.4,230.9 465.5,232.0 471.6,231.7 477.7,232.0 483.8,231.7 489.9,231.7 495.9,231.7 502.0,231.5 508.1,232.0 514.2,232.0 520.3,231.7 526.3,232.0 532.4,232.0 538.5,221.2 544.6,221.7 550.7,231.5 556.7,231.7 562.8,232.0 568.9,231.7 575.0,232.0 581.1,232.0 587.2,230.7 593.2,231.7 599.3,230.4 605.4,224.9 611.5,230.7 617.6,231.7 623.6,231.5 629.7,232.0 635.8,231.5 641.9,230.9 648.0,231.2 654.0,231.5 660.1,231.2 666.2,231.7 672.3,231.7 678.4,231.7 684.5,231.7 690.5,230.9 696.6,232.0 702.7,232.0 708.8,231.5 714.9,228.6 720.9,231.5 727.0,230.9 733.1,212.2 739.2,231.2 745.3,231.5 751.3,230.7 757.4,231.7 763.5,231.7 769.6,231.5 775.7,232.0 781.8,224.3 787.8,212.2 793.9,225.9 800.0,229.1"
            fill="none" stroke="#f28e2b"
            stroke-width="2" stroke-linejoin="round"
            stroke-dasharray="5,3"/>

  <!-- dots -->
  <circle cx="52.0" cy="232.0" r="3" fill="#4e79a7"/><circle cx="58.1" cy="232.0" r="3" fill="#4e79a7"/><circle cx="64.2" cy="232.0" r="3" fill="#4e79a7"/><circle cx="70.2" cy="232.0" r="3" fill="#4e79a7"/><circle cx="76.3" cy="232.0" r="3" fill="#4e79a7"/><circle cx="82.4" cy="232.0" r="3" fill="#4e79a7"/><circle cx="88.5" cy="232.0" r="3" fill="#4e79a7"/><circle cx="94.6" cy="232.0" r="3" fill="#4e79a7"/><circle cx="100.7" cy="232.0" r="3" fill="#4e79a7"/><circle cx="106.7" cy="232.0" r="3" fill="#4e79a7"/><circle cx="112.8" cy="232.0" r="3" fill="#4e79a7"/><circle cx="118.9" cy="232.0" r="3" fill="#4e79a7"/><circle cx="125.0" cy="232.0" r="3" fill="#4e79a7"/><circle cx="131.1" cy="118.1" r="3" fill="#4e79a7"/><circle cx="137.1" cy="117.1" r="3" fill="#4e79a7"/><circle cx="143.2" cy="91.9" r="3" fill="#4e79a7"/><circle cx="149.3" cy="77.4" r="3" fill="#4e79a7"/><circle cx="155.4" cy="28.0" r="3" fill="#4e79a7"/><circle cx="161.5" cy="191.3" r="3" fill="#4e79a7"/><circle cx="167.5" cy="230.4" r="3" fill="#4e79a7"/><circle cx="173.6" cy="232.0" r="3" fill="#4e79a7"/><circle cx="179.7" cy="221.2" r="3" fill="#4e79a7"/><circle cx="185.8" cy="230.4" r="3" fill="#4e79a7"/><circle cx="191.9" cy="225.1" r="3" fill="#4e79a7"/><circle cx="198.0" cy="228.6" r="3" fill="#4e79a7"/><circle cx="204.0" cy="229.6" r="3" fill="#4e79a7"/><circle cx="210.1" cy="230.7" r="3" fill="#4e79a7"/><circle cx="216.2" cy="229.1" r="3" fill="#4e79a7"/><circle cx="222.3" cy="232.0" r="3" fill="#4e79a7"/><circle cx="228.4" cy="231.7" r="3" fill="#4e79a7"/><circle cx="234.4" cy="232.0" r="3" fill="#4e79a7"/><circle cx="240.5" cy="232.0" r="3" fill="#4e79a7"/><circle cx="246.6" cy="231.5" r="3" fill="#4e79a7"/><circle cx="252.7" cy="231.5" r="3" fill="#4e79a7"/><circle cx="258.8" cy="207.7" r="3" fill="#4e79a7"/><circle cx="264.8" cy="220.6" r="3" fill="#4e79a7"/><circle cx="270.9" cy="231.2" r="3" fill="#4e79a7"/><circle cx="277.0" cy="231.7" r="3" fill="#4e79a7"/><circle cx="283.1" cy="230.9" r="3" fill="#4e79a7"/><circle cx="289.2" cy="231.7" r="3" fill="#4e79a7"/><circle cx="295.3" cy="231.7" r="3" fill="#4e79a7"/><circle cx="301.3" cy="232.0" r="3" fill="#4e79a7"/><circle cx="307.4" cy="231.7" r="3" fill="#4e79a7"/><circle cx="313.5" cy="231.5" r="3" fill="#4e79a7"/><circle cx="319.6" cy="231.7" r="3" fill="#4e79a7"/><circle cx="325.7" cy="231.5" r="3" fill="#4e79a7"/><circle cx="331.7" cy="232.0" r="3" fill="#4e79a7"/><circle cx="337.8" cy="232.0" r="3" fill="#4e79a7"/><circle cx="343.9" cy="232.0" r="3" fill="#4e79a7"/><circle cx="350.0" cy="231.7" r="3" fill="#4e79a7"/><circle cx="356.1" cy="231.7" r="3" fill="#4e79a7"/><circle cx="362.1" cy="231.7" r="3" fill="#4e79a7"/><circle cx="368.2" cy="232.0" r="3" fill="#4e79a7"/><circle cx="374.3" cy="231.2" r="3" fill="#4e79a7"/><circle cx="380.4" cy="232.0" r="3" fill="#4e79a7"/><circle cx="386.5" cy="230.9" r="3" fill="#4e79a7"/><circle cx="392.6" cy="231.5" r="3" fill="#4e79a7"/><circle cx="398.6" cy="231.7" r="3" fill="#4e79a7"/><circle cx="404.7" cy="232.0" r="3" fill="#4e79a7"/><circle cx="410.8" cy="231.7" r="3" fill="#4e79a7"/><circle cx="416.9" cy="232.0" r="3" fill="#4e79a7"/><circle cx="423.0" cy="231.2" r="3" fill="#4e79a7"/><circle cx="429.0" cy="232.0" r="3" fill="#4e79a7"/><circle cx="435.1" cy="232.0" r="3" fill="#4e79a7"/><circle cx="441.2" cy="231.7" r="3" fill="#4e79a7"/><circle cx="447.3" cy="231.7" r="3" fill="#4e79a7"/><circle cx="453.4" cy="231.2" r="3" fill="#4e79a7"/><circle cx="459.4" cy="230.7" r="3" fill="#4e79a7"/><circle cx="465.5" cy="232.0" r="3" fill="#4e79a7"/><circle cx="471.6" cy="231.7" r="3" fill="#4e79a7"/><circle cx="477.7" cy="232.0" r="3" fill="#4e79a7"/><circle cx="483.8" cy="231.2" r="3" fill="#4e79a7"/><circle cx="489.9" cy="231.7" r="3" fill="#4e79a7"/><circle cx="495.9" cy="231.7" r="3" fill="#4e79a7"/><circle cx="502.0" cy="231.5" r="3" fill="#4e79a7"/><circle cx="508.1" cy="232.0" r="3" fill="#4e79a7"/><circle cx="514.2" cy="232.0" r="3" fill="#4e79a7"/><circle cx="520.3" cy="231.7" r="3" fill="#4e79a7"/><circle cx="526.3" cy="232.0" r="3" fill="#4e79a7"/><circle cx="532.4" cy="232.0" r="3" fill="#4e79a7"/><circle cx="538.5" cy="211.1" r="3" fill="#4e79a7"/><circle cx="544.6" cy="213.8" r="3" fill="#4e79a7"/><circle cx="550.7" cy="231.5" r="3" fill="#4e79a7"/><circle cx="556.7" cy="231.5" r="3" fill="#4e79a7"/><circle cx="562.8" cy="232.0" r="3" fill="#4e79a7"/><circle cx="568.9" cy="231.7" r="3" fill="#4e79a7"/><circle cx="575.0" cy="232.0" r="3" fill="#4e79a7"/><circle cx="581.1" cy="232.0" r="3" fill="#4e79a7"/><circle cx="587.2" cy="230.7" r="3" fill="#4e79a7"/><circle cx="593.2" cy="231.7" r="3" fill="#4e79a7"/><circle cx="599.3" cy="227.8" r="3" fill="#4e79a7"/><circle cx="605.4" cy="204.0" r="3" fill="#4e79a7"/><circle cx="611.5" cy="229.4" r="3" fill="#4e79a7"/><circle cx="617.6" cy="231.7" r="3" fill="#4e79a7"/><circle cx="623.6" cy="231.5" r="3" fill="#4e79a7"/><circle cx="629.7" cy="232.0" r="3" fill="#4e79a7"/><circle cx="635.8" cy="231.5" r="3" fill="#4e79a7"/><circle cx="641.9" cy="230.9" r="3" fill="#4e79a7"/><circle cx="648.0" cy="230.2" r="3" fill="#4e79a7"/><circle cx="654.0" cy="231.5" r="3" fill="#4e79a7"/><circle cx="660.1" cy="231.2" r="3" fill="#4e79a7"/><circle cx="666.2" cy="231.7" r="3" fill="#4e79a7"/><circle cx="672.3" cy="231.7" r="3" fill="#4e79a7"/><circle cx="678.4" cy="231.7" r="3" fill="#4e79a7"/><circle cx="684.5" cy="231.7" r="3" fill="#4e79a7"/><circle cx="690.5" cy="230.7" r="3" fill="#4e79a7"/><circle cx="696.6" cy="232.0" r="3" fill="#4e79a7"/><circle cx="702.7" cy="232.0" r="3" fill="#4e79a7"/><circle cx="708.8" cy="231.5" r="3" fill="#4e79a7"/><circle cx="714.9" cy="225.9" r="3" fill="#4e79a7"/><circle cx="720.9" cy="231.5" r="3" fill="#4e79a7"/><circle cx="727.0" cy="230.9" r="3" fill="#4e79a7"/><circle cx="733.1" cy="177.0" r="3" fill="#4e79a7"/><circle cx="739.2" cy="231.2" r="3" fill="#4e79a7"/><circle cx="745.3" cy="231.5" r="3" fill="#4e79a7"/><circle cx="751.3" cy="230.2" r="3" fill="#4e79a7"/><circle cx="757.4" cy="231.7" r="3" fill="#4e79a7"/><circle cx="763.5" cy="231.7" r="3" fill="#4e79a7"/><circle cx="769.6" cy="231.5" r="3" fill="#4e79a7"/><circle cx="775.7" cy="232.0" r="3" fill="#4e79a7"/><circle cx="781.8" cy="214.0" r="3" fill="#4e79a7"/><circle cx="787.8" cy="178.9" r="3" fill="#4e79a7"/><circle cx="793.9" cy="217.7" r="3" fill="#4e79a7"/><circle cx="800.0" cy="227.0" r="3" fill="#4e79a7"/>
  <circle cx="52.0" cy="232.0" r="3" fill="#f28e2b"/><circle cx="58.1" cy="232.0" r="3" fill="#f28e2b"/><circle cx="64.2" cy="232.0" r="3" fill="#f28e2b"/><circle cx="70.2" cy="232.0" r="3" fill="#f28e2b"/><circle cx="76.3" cy="232.0" r="3" fill="#f28e2b"/><circle cx="82.4" cy="232.0" r="3" fill="#f28e2b"/><circle cx="88.5" cy="232.0" r="3" fill="#f28e2b"/><circle cx="94.6" cy="232.0" r="3" fill="#f28e2b"/><circle cx="100.7" cy="232.0" r="3" fill="#f28e2b"/><circle cx="106.7" cy="232.0" r="3" fill="#f28e2b"/><circle cx="112.8" cy="232.0" r="3" fill="#f28e2b"/><circle cx="118.9" cy="232.0" r="3" fill="#f28e2b"/><circle cx="125.0" cy="232.0" r="3" fill="#f28e2b"/><circle cx="131.1" cy="191.0" r="3" fill="#f28e2b"/><circle cx="137.1" cy="188.9" r="3" fill="#f28e2b"/><circle cx="143.2" cy="193.9" r="3" fill="#f28e2b"/><circle cx="149.3" cy="189.2" r="3" fill="#f28e2b"/><circle cx="155.4" cy="168.8" r="3" fill="#f28e2b"/><circle cx="161.5" cy="215.1" r="3" fill="#f28e2b"/><circle cx="167.5" cy="230.7" r="3" fill="#f28e2b"/><circle cx="173.6" cy="232.0" r="3" fill="#f28e2b"/><circle cx="179.7" cy="229.6" r="3" fill="#f28e2b"/><circle cx="185.8" cy="230.7" r="3" fill="#f28e2b"/><circle cx="191.9" cy="230.7" r="3" fill="#f28e2b"/><circle cx="198.0" cy="230.9" r="3" fill="#f28e2b"/><circle cx="204.0" cy="231.2" r="3" fill="#f28e2b"/><circle cx="210.1" cy="231.5" r="3" fill="#f28e2b"/><circle cx="216.2" cy="231.2" r="3" fill="#f28e2b"/><circle cx="222.3" cy="232.0" r="3" fill="#f28e2b"/><circle cx="228.4" cy="231.7" r="3" fill="#f28e2b"/><circle cx="234.4" cy="232.0" r="3" fill="#f28e2b"/><circle cx="240.5" cy="232.0" r="3" fill="#f28e2b"/><circle cx="246.6" cy="231.5" r="3" fill="#f28e2b"/><circle cx="252.7" cy="231.5" r="3" fill="#f28e2b"/><circle cx="258.8" cy="222.2" r="3" fill="#f28e2b"/><circle cx="264.8" cy="226.2" r="3" fill="#f28e2b"/><circle cx="270.9" cy="231.2" r="3" fill="#f28e2b"/><circle cx="277.0" cy="231.7" r="3" fill="#f28e2b"/><circle cx="283.1" cy="230.9" r="3" fill="#f28e2b"/><circle cx="289.2" cy="231.7" r="3" fill="#f28e2b"/><circle cx="295.3" cy="231.7" r="3" fill="#f28e2b"/><circle cx="301.3" cy="232.0" r="3" fill="#f28e2b"/><circle cx="307.4" cy="231.7" r="3" fill="#f28e2b"/><circle cx="313.5" cy="231.5" r="3" fill="#f28e2b"/><circle cx="319.6" cy="231.7" r="3" fill="#f28e2b"/><circle cx="325.7" cy="231.5" r="3" fill="#f28e2b"/><circle cx="331.7" cy="232.0" r="3" fill="#f28e2b"/><circle cx="337.8" cy="232.0" r="3" fill="#f28e2b"/><circle cx="343.9" cy="232.0" r="3" fill="#f28e2b"/><circle cx="350.0" cy="231.7" r="3" fill="#f28e2b"/><circle cx="356.1" cy="231.7" r="3" fill="#f28e2b"/><circle cx="362.1" cy="231.7" r="3" fill="#f28e2b"/><circle cx="368.2" cy="232.0" r="3" fill="#f28e2b"/><circle cx="374.3" cy="231.2" r="3" fill="#f28e2b"/><circle cx="380.4" cy="232.0" r="3" fill="#f28e2b"/><circle cx="386.5" cy="231.7" r="3" fill="#f28e2b"/><circle cx="392.6" cy="231.7" r="3" fill="#f28e2b"/><circle cx="398.6" cy="231.7" r="3" fill="#f28e2b"/><circle cx="404.7" cy="232.0" r="3" fill="#f28e2b"/><circle cx="410.8" cy="231.7" r="3" fill="#f28e2b"/><circle cx="416.9" cy="232.0" r="3" fill="#f28e2b"/><circle cx="423.0" cy="231.5" r="3" fill="#f28e2b"/><circle cx="429.0" cy="232.0" r="3" fill="#f28e2b"/><circle cx="435.1" cy="232.0" r="3" fill="#f28e2b"/><circle cx="441.2" cy="231.7" r="3" fill="#f28e2b"/><circle cx="447.3" cy="231.7" r="3" fill="#f28e2b"/><circle cx="453.4" cy="231.7" r="3" fill="#f28e2b"/><circle cx="459.4" cy="230.9" r="3" fill="#f28e2b"/><circle cx="465.5" cy="232.0" r="3" fill="#f28e2b"/><circle cx="471.6" cy="231.7" r="3" fill="#f28e2b"/><circle cx="477.7" cy="232.0" r="3" fill="#f28e2b"/><circle cx="483.8" cy="231.7" r="3" fill="#f28e2b"/><circle cx="489.9" cy="231.7" r="3" fill="#f28e2b"/><circle cx="495.9" cy="231.7" r="3" fill="#f28e2b"/><circle cx="502.0" cy="231.5" r="3" fill="#f28e2b"/><circle cx="508.1" cy="232.0" r="3" fill="#f28e2b"/><circle cx="514.2" cy="232.0" r="3" fill="#f28e2b"/><circle cx="520.3" cy="231.7" r="3" fill="#f28e2b"/><circle cx="526.3" cy="232.0" r="3" fill="#f28e2b"/><circle cx="532.4" cy="232.0" r="3" fill="#f28e2b"/><circle cx="538.5" cy="221.2" r="3" fill="#f28e2b"/><circle cx="544.6" cy="221.7" r="3" fill="#f28e2b"/><circle cx="550.7" cy="231.5" r="3" fill="#f28e2b"/><circle cx="556.7" cy="231.7" r="3" fill="#f28e2b"/><circle cx="562.8" cy="232.0" r="3" fill="#f28e2b"/><circle cx="568.9" cy="231.7" r="3" fill="#f28e2b"/><circle cx="575.0" cy="232.0" r="3" fill="#f28e2b"/><circle cx="581.1" cy="232.0" r="3" fill="#f28e2b"/><circle cx="587.2" cy="230.7" r="3" fill="#f28e2b"/><circle cx="593.2" cy="231.7" r="3" fill="#f28e2b"/><circle cx="599.3" cy="230.4" r="3" fill="#f28e2b"/><circle cx="605.4" cy="224.9" r="3" fill="#f28e2b"/><circle cx="611.5" cy="230.7" r="3" fill="#f28e2b"/><circle cx="617.6" cy="231.7" r="3" fill="#f28e2b"/><circle cx="623.6" cy="231.5" r="3" fill="#f28e2b"/><circle cx="629.7" cy="232.0" r="3" fill="#f28e2b"/><circle cx="635.8" cy="231.5" r="3" fill="#f28e2b"/><circle cx="641.9" cy="230.9" r="3" fill="#f28e2b"/><circle cx="648.0" cy="231.2" r="3" fill="#f28e2b"/><circle cx="654.0" cy="231.5" r="3" fill="#f28e2b"/><circle cx="660.1" cy="231.2" r="3" fill="#f28e2b"/><circle cx="666.2" cy="231.7" r="3" fill="#f28e2b"/><circle cx="672.3" cy="231.7" r="3" fill="#f28e2b"/><circle cx="678.4" cy="231.7" r="3" fill="#f28e2b"/><circle cx="684.5" cy="231.7" r="3" fill="#f28e2b"/><circle cx="690.5" cy="230.9" r="3" fill="#f28e2b"/><circle cx="696.6" cy="232.0" r="3" fill="#f28e2b"/><circle cx="702.7" cy="232.0" r="3" fill="#f28e2b"/><circle cx="708.8" cy="231.5" r="3" fill="#f28e2b"/><circle cx="714.9" cy="228.6" r="3" fill="#f28e2b"/><circle cx="720.9" cy="231.5" r="3" fill="#f28e2b"/><circle cx="727.0" cy="230.9" r="3" fill="#f28e2b"/><circle cx="733.1" cy="212.2" r="3" fill="#f28e2b"/><circle cx="739.2" cy="231.2" r="3" fill="#f28e2b"/><circle cx="745.3" cy="231.5" r="3" fill="#f28e2b"/><circle cx="751.3" cy="230.7" r="3" fill="#f28e2b"/><circle cx="757.4" cy="231.7" r="3" fill="#f28e2b"/><circle cx="763.5" cy="231.7" r="3" fill="#f28e2b"/><circle cx="769.6" cy="231.5" r="3" fill="#f28e2b"/><circle cx="775.7" cy="232.0" r="3" fill="#f28e2b"/><circle cx="781.8" cy="224.3" r="3" fill="#f28e2b"/><circle cx="787.8" cy="212.2" r="3" fill="#f28e2b"/><circle cx="793.9" cy="225.9" r="3" fill="#f28e2b"/><circle cx="800.0" cy="229.1" r="3" fill="#f28e2b"/>

  <!-- axes -->
  <line x1="52" y1="28" x2="52" y2="232"
        stroke="#cccccc" stroke-width="1"/>
  <line x1="52" y1="232" x2="800" y2="232"
        stroke="#cccccc" stroke-width="1"/>

  <!-- y-axis labels -->
  <text x="47" y="236.0" text-anchor="end" font-size="10" fill="#57606a" font-family="ui-monospace, SFMono-Regular, 'SF Mono', Menlo, monospace">0</text><text x="47" y="183.2" text-anchor="end" font-size="10" fill="#57606a" font-family="ui-monospace, SFMono-Regular, 'SF Mono', Menlo, monospace">200</text><text x="47" y="130.3" text-anchor="end" font-size="10" fill="#57606a" font-family="ui-monospace, SFMono-Regular, 'SF Mono', Menlo, monospace">400</text><text x="47" y="77.5" text-anchor="end" font-size="10" fill="#57606a" font-family="ui-monospace, SFMono-Regular, 'SF Mono', Menlo, monospace">600</text><text x="47" y="24.6" text-anchor="end" font-size="10" fill="#57606a" font-family="ui-monospace, SFMono-Regular, 'SF Mono', Menlo, monospace">800</text>

  <!-- x-axis labels -->
  <text x="52.0" y="248" text-anchor="middle" font-size="10" fill="#8c959f" font-family="ui-monospace, SFMono-Regular, 'SF Mono', Menlo, monospace">05-30</text><text x="690.5" y="248" text-anchor="middle" font-size="10" fill="#8c959f" font-family="ui-monospace, SFMono-Regular, 'SF Mono', Menlo, monospace">09-17</text><text x="508.1" y="248" text-anchor="middle" font-size="10" fill="#8c959f" font-family="ui-monospace, SFMono-Regular, 'SF Mono', Menlo, monospace">08-13</text><text x="325.7" y="248" text-anchor="middle" font-size="10" fill="#8c959f" font-family="ui-monospace, SFMono-Regular, 'SF Mono', Menlo, monospace">07-14</text><text x="143.2" y="248" text-anchor="middle" font-size="10" fill="#8c959f" font-family="ui-monospace, SFMono-Regular, 'SF Mono', Menlo, monospace">06-14</text><text x="781.8" y="248" text-anchor="middle" font-size="10" fill="#8c959f" font-family="ui-monospace, SFMono-Regular, 'SF Mono', Menlo, monospace">10-02</text><text x="599.3" y="248" text-anchor="middle" font-size="10" fill="#8c959f" font-family="ui-monospace, SFMono-Regular, 'SF Mono', Menlo, monospace">09-02</text><text x="800.0" y="248" text-anchor="middle" font-size="10" fill="#8c959f" font-family="ui-monospace, SFMono-Regular, 'SF Mono', Menlo, monospace">10-05</text><text x="416.9" y="248" text-anchor="middle" font-size="10" fill="#8c959f" font-family="ui-monospace, SFMono-Regular, 'SF Mono', Menlo, monospace">07-29</text><text x="234.4" y="248" text-anchor="middle" font-size="10" fill="#8c959f" font-family="ui-monospace, SFMono-Regular, 'SF Mono', Menlo, monospace">06-29</text>

  <!-- legend -->
  <rect x="60" y="262" width="16" height="3" fill="#4e79a7" rx="1"/><text x="80" y="268" font-size="11" fill="#57606a" font-family="-apple-system, BlinkMacSystemFont, 'Segoe UI', sans-serif">Total clones (4,134)</text><line x1="230" y1="264" x2="246" y2="264" stroke="#f28e2b" stroke-width="2" stroke-dasharray="5,3"/><text x="250" y="268" font-size="11" fill="#57606a" font-family="-apple-system, BlinkMacSystemFont, 'Segoe UI', sans-serif">Unique cloners</text>

</svg>