<svg xmlns="http://www.w3.org/2000/svg" viewBox="0 0 820 280" width="820" height="280">

  <!-- title -->
  <text x="52" y="18" font-size="13" font-weight="600"
        fill="#24292f" font-family="-apple-system, BlinkMacSystemFont, 'Segoe UI', sans-serif"
        >Clone traffic — local-ai-lab</text>
  <text x="800" y="18" font-size="10" fill="#8c959f"
        font-family="ui-monospace, SFMono-Regular, 'SF Mono', Menlo, monospace" text-anchor="end">2026-07-02</text>

  <!-- grid -->
  <line x1="52" y1="232.0" x2="800" y2="232.0" stroke="#e8e8e8" stroke-width="1"/><line x1="52" y1="179.2" x2="800" y2="179.2" stroke="#e8e8e8" stroke-width="1"/><line x1="52" y1="126.3" x2="800" y2="126.3" stroke="#e8e8e8" stroke-width="1"/><line x1="52" y1="73.5" x2="800" y2="73.5" stroke="#e8e8e8" stroke-width="1"/><line x1="52" y1="20.6" x2="800" y2="20.6" stroke="#e8e8e8" stroke-width="1"/>

  <!-- area fill -->
  <path d="M52.0,232.0 L52.0,232.0 L76.1,232.0 L100.3,232.0 L124.4,232.0 L148.5,232.0 L172.6,232.0 L196.8,232.0 L220.9,232.0 L245.0,232.0 L269.2,232.0 L293.3,232.0 L317.4,232.0 L341.5,232.0 L365.7,118.1 L389.8,117.1 L413.9,91.9 L438.1,77.4 L462.2,28.0 L486.3,191.3 L510.5,230.4 L534.6,232.0 L558.7,221.2 L582.8,230.4 L607.0,225.1 L631.1,228.6 L655.2,229.6 L679.4,230.7 L703.5,229.1 L727.6,232.0 L751.7,231.7 L775.9,232.0 L800.0,232.0 L800.0,232.0 L52.0,232.0Z" fill="#4e79a7" opacity="0.12"/>

  <!-- lines -->
  <polyline points="52.0,232.0 76.1,232.0 100.3,232.0 124.4,232.0 148.5,232.0 172.6,232.0 196.8,232.0 220.9,232.0 245.0,232.0 269.2,232.0 293.3,232.0 317.4,232.0 341.5,232.0 365.7,118.1 389.8,117.1 413.9,91.9 438.1,77.4 462.2,28.0 486.3,191.3 510.5,230.4 534.6,232.0 558.7,221.2 582.8,230.4 607.0,225.1 631.1,228.6 655.2,229.6 679.4,230.7 703.5,229.1 727.6,232.0 751.7,231.7 775.9,232.0 800.0,232.0"
            fill="none" stroke="#4e79a7"
            stroke-width="2" stroke-linejoin="round"/>
  <polyline points="52.0,232.0 76.1,232.0 100.3,232.0 124.4,232.0 148.5,232.0 172.6,232.0 196.8,232.0 220.9,232.0 245.0,232.0 269.2,232.0 293.3,232.0 317.4,232.0 341.5,232.0 365.7,191.0 389.8,188.9 413.9,193.9 438.1,189.2 462.2,168.8 486.3,215.1 510.5,230.7 534.6,232.0 558.7,229.6 582.8,230.7 607.0,230.7 631.1,230.9 655.2,231.2 679.4,231.5 703.5,231.2 727.6,232.0 751.7,231.7 775.9,232.0 800.0,232.0"
            fill="none" stroke="#f28e2b"
            stroke-width="2" stroke-linejoin="round"
            stroke-dasharray="5,3"/>

  <!-- dots -->
  <circle cx="52.0" cy="232.0" r="3" fill="#4e79a7"/><circle cx="76.1" cy="232.0" r="3" fill="#4e79a7"/><circle cx="100.3" cy="232.0" r="3" fill="#4e79a7"/><circle cx="124.4" cy="232.0" r="3" fill="#4e79a7"/><circle cx="148.5" cy="232.0" r="3" fill="#4e79a7"/><circle cx="172.6" cy="232.0" r="3" fill="#4e79a7"/><circle cx="196.8" cy="232.0" r="3" fill="#4e79a7"/><circle cx="220.9" cy="232.0" r="3" fill="#4e79a7"/><circle cx="245.0" cy="232.0" r="3" fill="#4e79a7"/><circle cx="269.2" cy="232.0" r="3" fill="#4e79a7"/><circle cx="293.3" cy="232.0" r="3" fill="#4e79a7"/><circle cx="317.4" cy="232.0" r="3" fill="#4e79a7"/><circle cx="341.5" cy="232.0" r="3" fill="#4e79a7"/><circle cx="365.7" cy="118.1" r="3" fill="#4e79a7"/><circle cx="389.8" cy="117.1" r="3" fill="#4e79a7"/><circle cx="413.9" cy="91.9" r="3" fill="#4e79a7"/><circle cx="438.1" cy="77.4" r="3" fill="#4e79a7"/><circle cx="462.2" cy="28.0" r="3" fill="#4e79a7"/><circle cx="486.3" cy="191.3" r="3" fill="#4e79a7"/><circle cx="510.5" cy="230.4" r="3" fill="#4e79a7"/><circle cx="534.6" cy="232.0" r="3" fill="#4e79a7"/><circle cx="558.7" cy="221.2" r="3" fill="#4e79a7"/><circle cx="582.8" cy="230.4" r="3" fill="#4e79a7"/><circle cx="607.0" cy="225.1" r="3" fill="#4e79a7"/><circle cx="631.1" cy="228.6" r="3" fill="#4e79a7"/><circle cx="655.2" cy="229.6" r="3" fill="#4e79a7"/><circle cx="679.4" cy="230.7" r="3" fill="#4e79a7"/><circle cx="703.5" cy="229.1" r="3" fill="#4e79a7"/><circle cx="727.6" cy="232.0" r="3" fill="#4e79a7"/><circle cx="751.7" cy="231.7" r="3" fill="#4e79a7"/><circle cx="775.9" cy="232.0" r="3" fill="#4e79a7"/><circle cx="800.0" cy="232.0" r="3" fill="#4e79a7"/>
  <circle cx="52.0" cy="232.0" r="3" fill="#f28e2b"/><circle cx="76.1" cy="232.0" r="3" fill="#f28e2b"/><circle cx="100.3" cy="232.0" r="3" fill="#f28e2b"/><circle cx="124.4" cy="232.0" r="3" fill="#f28e2b"/><circle cx="148.5" cy="232.0" r="3" fill="#f28e2b"/><circle cx="172.6" cy="232.0" r="3" fill="#f28e2b"/><circle cx="196.8" cy="232.0" r="3" fill="#f28e2b"/><circle cx="220.9" cy="232.0" r="3" fill="#f28e2b"/><circle cx="245.0" cy="232.0" r="3" fill="#f28e2b"/><circle cx="269.2" cy="232.0" r="3" fill="#f28e2b"/><circle cx="293.3" cy="232.0" r="3" fill="#f28e2b"/><circle cx="317.4" cy="232.0" r="3" fill="#f28e2b"/><circle cx="341.5" cy="232.0" r="3" fill="#f28e2b"/><circle cx="365.7" cy="191.0" r="3" fill="#f28e2b"/><circle cx="389.8" cy="188.9" r="3" fill="#f28e2b"/><circle cx="413.9" cy="193.9" r="3" fill="#f28e2b"/><circle cx="438.1" cy="189.2" r="3" fill="#f28e2b"/><circle cx="462.2" cy="168.8" r="3" fill="#f28e2b"/><circle cx="486.3" cy="215.1" r="3" fill="#f28e2b"/><circle cx="510.5" cy="230.7" r="3" fill="#f28e2b"/><circle cx="534.6" cy="232.0" r="3" fill="#f28e2b"/><circle cx="558.7" cy="229.6" r="3" fill="#f28e2b"/><circle cx="582.8" cy="230.7" r="3" fill="#f28e2b"/><circle cx="607.0" cy="230.7" r="3" fill="#f28e2b"/><circle cx="631.1" cy="230.9" r="3" fill="#f28e2b"/><circle cx="655.2" cy="231.2" r="3" fill="#f28e2b"/><circle cx="679.4" cy="231.5" r="3" fill="#f28e2b"/><circle cx="703.5" cy="231.2" r="3" fill="#f28e2b"/><circle cx="727.6" cy="232.0" r="3" fill="#f28e2b"/><circle cx="751.7" cy="231.7" r="3" fill="#f28e2b"/><circle cx="775.9" cy="232.0" r="3" fill="#f28e2b"/><circle cx="800.0" cy="232.0" r="3" fill="#f28e2b"/>

  <!-- axes -->
  <line x1="52" y1="28" x2="52" y2="232"
        stroke="#cccccc" stroke-width="1"/>
  <line x1="52" y1="232" x2="800" y2="232"
        stroke="#cccccc" stroke-width="1"/>

  <!-- y-axis labels -->
  <text x="47" y="236.0" text-anchor="end" font-size="10" fill="#57606a" font-family="ui-monospace, SFMono-Regular, 'SF Mono', Menlo, monospace">0</text><text x="47" y="183.2" text-anchor="end" font-size="10" fill="#57606a" font-family="ui-monospace, SFMono-Regular, 'SF Mono', Menlo, monospace">200</text><text x="47" y="130.3" text-anchor="end" font-size="10" fill="#57606a" font-family="ui-monospace, SFMono-Regular, 'SF Mono', Menlo, monospace">400</text><text x="47" y="77.5" text-anchor="end" font-size="10" fill="#57606a" font-family="ui-monospace, SFMono-Regular, 'SF Mono', Menlo, monospace">600</text><text x="47" y="24.6" text-anchor="end" font-size="10" fill="#57606a" font-family="ui-monospace, SFMono-Regular, 'SF Mono', Menlo, monospace">800</text>

  <!-- x-axis labels -->
  <text x="52.0" y="248" text-anchor="middle" font-size="10" fill="#8c959f" font-family="ui-monospace, SFMono-Regular, 'SF Mono', Menlo, monospace">05-30</text><text x="148.5" y="248" text-anchor="middle" font-size="10" fill="#8c959f" font-family="ui-monospace, SFMono-Regular, 'SF Mono', Menlo, monospace">06-03</text><text x="245.0" y="248" text-anchor="middle" font-size="10" fill="#8c959f" font-family="ui-monospace, SFMono-Regular, 'SF Mono', Menlo, monospace">06-07</text><text x="341.5" y="248" text-anchor="middle" font-size="10" fill="#8c959f" font-family="ui-monospace, SFMono-Regular, 'SF Mono', Menlo, monospace">06-11</text><text x="438.1" y="248" text-anchor="middle" font-size="10" fill="#8c959f" font-family="ui-monospace, SFMono-Regular, 'SF Mono', Menlo, monospace">06-15</text><text x="534.6" y="248" text-anchor="middle" font-size="10" fill="#8c959f" font-family="ui-monospace, SFMono-Regular, 'SF Mono', Menlo, monospace">06-19</text><text x="631.1" y="248" text-anchor="middle" font-size="10" fill="#8c959f" font-family="ui-monospace, SFMono-Regular, 'SF Mono', Menlo, monospace">06-23</text><text x="727.6" y="248" text-anchor="middle" font-size="10" fill="#8c959f" font-family="ui-monospace, SFMono-Regular, 'SF Mono', Menlo, monospace">06-27</text><text x="800.0" y="248" text-anchor="middle" font-size="10" fill="#8c959f" font-family="ui-monospace, SFMono-Regular, 'SF Mono', Menlo, monospace">06-30</text>

  <!-- legend -->
  <rect x="60" y="262" width="16" height="3" fill="#4e79a7" rx="1"/><text x="80" y="268" font-size="11" fill="#57606a" font-family="-apple-system, BlinkMacSystemFont, 'Segoe UI', sans-serif">Total clones (3,025)</text><line x1="230" y1="264" x2="246" y2="264" stroke="#f28e2b" stroke-width="2" stroke-dasharray="5,3"/><text x="250" y="268" font-size="11" fill="#57606a" font-family="-apple-system, BlinkMacSystemFont, 'Segoe UI', sans-serif">Unique cloners</text>

</svg>