<svg xmlns="http://www.w3.org/2000/svg" viewBox="0 0 820 280" width="820" height="280">

  <!-- title -->
  <text x="52" y="18" font-size="13" font-weight="600"
        fill="#24292f" font-family="-apple-system, BlinkMacSystemFont, 'Segoe UI', sans-serif"
        >Clone traffic — local-ai-lab</text>
  <text x="800" y="18" font-size="10" fill="#8c959f"
        font-family="ui-monospace, SFMono-Regular, 'SF Mono', Menlo, monospace" text-anchor="end">2026-06-29</text>

  <!-- grid -->
  <line x1="52" y1="232.0" x2="800" y2="232.0" stroke="#e8e8e8" stroke-width="1"/><line x1="52" y1="179.2" x2="800" y2="179.2" stroke="#e8e8e8" stroke-width="1"/><line x1="52" y1="126.3" x2="800" y2="126.3" stroke="#e8e8e8" stroke-width="1"/><line x1="52" y1="73.5" x2="800" y2="73.5" stroke="#e8e8e8" stroke-width="1"/><line x1="52" y1="20.6" x2="800" y2="20.6" stroke="#e8e8e8" stroke-width="1"/>

  <!-- area fill -->
  <path d="M52.0,232.0 L52.0,232.0 L78.7,232.0 L105.4,232.0 L132.1,232.0 L158.9,232.0 L185.6,232.0 L212.3,232.0 L239.0,232.0 L265.7,232.0 L292.4,232.0 L319.1,232.0 L345.9,232.0 L372.6,232.0 L399.3,118.1 L426.0,117.1 L452.7,91.9 L479.4,77.4 L506.1,28.0 L532.9,191.3 L559.6,230.4 L586.3,232.0 L613.0,221.2 L639.7,230.4 L666.4,225.1 L693.1,228.6 L719.9,229.6 L746.6,230.7 L773.3,229.1 L800.0,232.0 L800.0,232.0 L52.0,232.0Z" fill="#4e79a7" opacity="0.12"/>

  <!-- lines -->
  <polyline points="52.0,232.0 78.7,232.0 105.4,232.0 132.1,232.0 158.9,232.0 185.6,232.0 212.3,232.0 239.0,232.0 265.7,232.0 292.4,232.0 319.1,232.0 345.9,232.0 372.6,232.0 399.3,118.1 426.0,117.1 452.7,91.9 479.4,77.4 506.1,28.0 532.9,191.3 559.6,230.4 586.3,232.0 613.0,221.2 639.7,230.4 666.4,225.1 693.1,228.6 719.9,229.6 746.6,230.7 773.3,229.1 800.0,232.0"
            fill="none" stroke="#4e79a7"
            stroke-width="2" stroke-linejoin="round"/>
  <polyline points="52.0,232.0 78.7,232.0 105.4,232.0 132.1,232.0 158.9,232.0 185.6,232.0 212.3,232.0 239.0,232.0 265.7,232.0 292.4,232.0 319.1,232.0 345.9,232.0 372.6,232.0 399.3,191.0 426.0,188.9 452.7,193.9 479.4,189.2 506.1,168.8 532.9,215.1 559.6,230.7 586.3,232.0 613.0,229.6 639.7,230.7 666.4,230.7 693.1,230.9 719.9,231.2 746.6,231.5 773.3,231.2 800.0,232.0"
            fill="none" stroke="#f28e2b"
            stroke-width="2" stroke-linejoin="round"
            stroke-dasharray="5,3"/>

  <!-- dots -->
  <circle cx="52.0" cy="232.0" r="3" fill="#4e79a7"/><circle cx="78.7" cy="232.0" r="3" fill="#4e79a7"/><circle cx="105.4" cy="232.0" r="3" fill="#4e79a7"/><circle cx="132.1" cy="232.0" r="3" fill="#4e79a7"/><circle cx="158.9" cy="232.0" r="3" fill="#4e79a7"/><circle cx="185.6" cy="232.0" r="3" fill="#4e79a7"/><circle cx="212.3" cy="232.0" r="3" fill="#4e79a7"/><circle cx="239.0" cy="232.0" r="3" fill="#4e79a7"/><circle cx="265.7" cy="232.0" r="3" fill="#4e79a7"/><circle cx="292.4" cy="232.0" r="3" fill="#4e79a7"/><circle cx="319.1" cy="232.0" r="3" fill="#4e79a7"/><circle cx="345.9" cy="232.0" r="3" fill="#4e79a7"/><circle cx="372.6" cy="232.0" r="3" fill="#4e79a7"/><circle cx="399.3" cy="118.1" r="3" fill="#4e79a7"/><circle cx="426.0" cy="117.1" r="3" fill="#4e79a7"/><circle cx="452.7" cy="91.9" r="3" fill="#4e79a7"/><circle cx="479.4" cy="77.4" r="3" fill="#4e79a7"/><circle cx="506.1" cy="28.0" r="3" fill="#4e79a7"/><circle cx="532.9" cy="191.3" r="3" fill="#4e79a7"/><circle cx="559.6" cy="230.4" r="3" fill="#4e79a7"/><circle cx="586.3" cy="232.0" r="3" fill="#4e79a7"/><circle cx="613.0" cy="221.2" r="3" fill="#4e79a7"/><circle cx="639.7" cy="230.4" r="3" fill="#4e79a7"/><circle cx="666.4" cy="225.1" r="3" fill="#4e79a7"/><circle cx="693.1" cy="228.6" r="3" fill="#4e79a7"/><circle cx="719.9" cy="229.6" r="3" fill="#4e79a7"/><circle cx="746.6" cy="230.7" r="3" fill="#4e79a7"/><circle cx="773.3" cy="229.1" r="3" fill="#4e79a7"/><circle cx="800.0" cy="232.0" r="3" fill="#4e79a7"/>
  <circle cx="52.0" cy="232.0" r="3" fill="#f28e2b"/><circle cx="78.7" cy="232.0" r="3" fill="#f28e2b"/><circle cx="105.4" cy="232.0" r="3" fill="#f28e2b"/><circle cx="132.1" cy="232.0" r="3" fill="#f28e2b"/><circle cx="158.9" cy="232.0" r="3" fill="#f28e2b"/><circle cx="185.6" cy="232.0" r="3" fill="#f28e2b"/><circle cx="212.3" cy="232.0" r="3" fill="#f28e2b"/><circle cx="239.0" cy="232.0" r="3" fill="#f28e2b"/><circle cx="265.7" cy="232.0" r="3" fill="#f28e2b"/><circle cx="292.4" cy="232.0" r="3" fill="#f28e2b"/><circle cx="319.1" cy="232.0" r="3" fill="#f28e2b"/><circle cx="345.9" cy="232.0" r="3" fill="#f28e2b"/><circle cx="372.6" cy="232.0" r="3" fill="#f28e2b"/><circle cx="399.3" cy="191.0" r="3" fill="#f28e2b"/><circle cx="426.0" cy="188.9" r="3" fill="#f28e2b"/><circle cx="452.7" cy="193.9" r="3" fill="#f28e2b"/><circle cx="479.4" cy="189.2" r="3" fill="#f28e2b"/><circle cx="506.1" cy="168.8" r="3" fill="#f28e2b"/><circle cx="532.9" cy="215.1" r="3" fill="#f28e2b"/><circle cx="559.6" cy="230.7" r="3" fill="#f28e2b"/><circle cx="586.3" cy="232.0" r="3" fill="#f28e2b"/><circle cx="613.0" cy="229.6" r="3" fill="#f28e2b"/><circle cx="639.7" cy="230.7" r="3" fill="#f28e2b"/><circle cx="666.4" cy="230.7" r="3" fill="#f28e2b"/><circle cx="693.1" cy="230.9" r="3" fill="#f28e2b"/><circle cx="719.9" cy="231.2" r="3" fill="#f28e2b"/><circle cx="746.6" cy="231.5" r="3" fill="#f28e2b"/><circle cx="773.3" cy="231.2" r="3" fill="#f28e2b"/><circle cx="800.0" cy="232.0" r="3" fill="#f28e2b"/>

  <!-- axes -->
  <line x1="52" y1="28" x2="52" y2="232"
        stroke="#cccccc" stroke-width="1"/>
  <line x1="52" y1="232" x2="800" y2="232"
        stroke="#cccccc" stroke-width="1"/>

  <!-- y-axis labels -->
  <text x="47" y="236.0" text-anchor="end" font-size="10" fill="#57606a" font-family="ui-monospace, SFMono-Regular, 'SF Mono', Menlo, monospace">0</text><text x="47" y="183.2" text-anchor="end" font-size="10" fill="#57606a" font-family="ui-monospace, SFMono-Regular, 'SF Mono', Menlo, monospace">200</text><text x="47" y="130.3" text-anchor="end" font-size="10" fill="#57606a" font-family="ui-monospace, SFMono-Regular, 'SF Mono', Menlo, monospace">400</text><text x="47" y="77.5" text-anchor="end" font-size="10" fill="#57606a" font-family="ui-monospace, SFMono-Regular, 'SF Mono', Menlo, monospace">600</text><text x="47" y="24.6" text-anchor="end" font-size="10" fill="#57606a" font-family="ui-monospace, SFMono-Regular, 'SF Mono', Menlo, monospace">800</text>

  <!-- x-axis labels -->
  <text x="52.0" y="248" text-anchor="middle" font-size="10" fill="#8c959f" font-family="ui-monospace, SFMono-Regular, 'SF Mono', Menlo, monospace">05-30</text><text x="132.1" y="248" text-anchor="middle" font-size="10" fill="#8c959f" font-family="ui-monospace, SFMono-Regular, 'SF Mono', Menlo, monospace">06-02</text><text x="212.3" y="248" text-anchor="middle" font-size="10" fill="#8c959f" font-family="ui-monospace, SFMono-Regular, 'SF Mono', Menlo, monospace">06-05</text><text x="292.4" y="248" text-anchor="middle" font-size="10" fill="#8c959f" font-family="ui-monospace, SFMono-Regular, 'SF Mono', Menlo, monospace">06-08</text><text x="372.6" y="248" text-anchor="middle" font-size="10" fill="#8c959f" font-family="ui-monospace, SFMono-Regular, 'SF Mono', Menlo, monospace">06-11</text><text x="452.7" y="248" text-anchor="middle" font-size="10" fill="#8c959f" font-family="ui-monospace, SFMono-Regular, 'SF Mono', Menlo, monospace">06-14</text><text x="532.9" y="248" text-anchor="middle" font-size="10" fill="#8c959f" font-family="ui-monospace, SFMono-Regular, 'SF Mono', Menlo, monospace">06-17</text><text x="613.0" y="248" text-anchor="middle" font-size="10" fill="#8c959f" font-family="ui-monospace, SFMono-Regular, 'SF Mono', Menlo, monospace">06-20</text><text x="693.1" y="248" text-anchor="middle" font-size="10" fill="#8c959f" font-family="ui-monospace, SFMono-Regular, 'SF Mono', Menlo, monospace">06-23</text><text x="773.3" y="248" text-anchor="middle" font-size="10" fill="#8c959f" font-family="ui-monospace, SFMono-Regular, 'SF Mono', Menlo, monospace">06-26</text><text x="800.0" y="248" text-anchor="middle" font-size="10" fill="#8c959f" font-family="ui-monospace, SFMono-Regular, 'SF Mono', Menlo, monospace">06-27</text>

  <!-- legend -->
  <rect x="60" y="262" width="16" height="3" fill="#4e79a7" rx="1"/><text x="80" y="268" font-size="11" fill="#57606a" font-family="-apple-system, BlinkMacSystemFont, 'Segoe UI', sans-serif">Total clones (3,024)</text><line x1="230" y1="264" x2="246" y2="264" stroke="#f28e2b" stroke-width="2" stroke-dasharray="5,3"/><text x="250" y="268" font-size="11" fill="#57606a" font-family="-apple-system, BlinkMacSystemFont, 'Segoe UI', sans-serif">Unique cloners</text>

</svg>