<svg xmlns="http://www.w3.org/2000/svg" viewBox="0 0 820 280" width="820" height="280">

  <!-- title -->
  <text x="52" y="18" font-size="13" font-weight="600"
        fill="#24292f" font-family="-apple-system, BlinkMacSystemFont, 'Segoe UI', sans-serif"
        >Clone traffic — local-ai-lab</text>
  <text x="800" y="18" font-size="10" fill="#8c959f"
        font-family="ui-monospace, SFMono-Regular, 'SF Mono', Menlo, monospace" text-anchor="end">2026-07-01</text>

  <!-- grid -->
  <line x1="52" y1="232.0" x2="800" y2="232.0" stroke="#e8e8e8" stroke-width="1"/><line x1="52" y1="179.2" x2="800" y2="179.2" stroke="#e8e8e8" stroke-width="1"/><line x1="52" y1="126.3" x2="800" y2="126.3" stroke="#e8e8e8" stroke-width="1"/><line x1="52" y1="73.5" x2="800" y2="73.5" stroke="#e8e8e8" stroke-width="1"/><line x1="52" y1="20.6" x2="800" y2="20.6" stroke="#e8e8e8" stroke-width="1"/>

  <!-- area fill -->
  <path d="M52.0,232.0 L52.0,232.0 L76.9,232.0 L101.9,232.0 L126.8,232.0 L151.7,232.0 L176.7,232.0 L201.6,232.0 L226.5,232.0 L251.5,232.0 L276.4,232.0 L301.3,232.0 L326.3,232.0 L351.2,232.0 L376.1,118.1 L401.1,117.1 L426.0,91.9 L450.9,77.4 L475.9,28.0 L500.8,191.3 L525.7,230.4 L550.7,232.0 L575.6,221.2 L600.5,230.4 L625.5,225.1 L650.4,228.6 L675.3,229.6 L700.3,230.7 L725.2,229.1 L750.1,232.0 L775.1,231.7 L800.0,232.0 L800.0,232.0 L52.0,232.0Z" fill="#4e79a7" opacity="0.12"/>

  <!-- lines -->
  <polyline points="52.0,232.0 76.9,232.0 101.9,232.0 126.8,232.0 151.7,232.0 176.7,232.0 201.6,232.0 226.5,232.0 251.5,232.0 276.4,232.0 301.3,232.0 326.3,232.0 351.2,232.0 376.1,118.1 401.1,117.1 426.0,91.9 450.9,77.4 475.9,28.0 500.8,191.3 525.7,230.4 550.7,232.0 575.6,221.2 600.5,230.4 625.5,225.1 650.4,228.6 675.3,229.6 700.3,230.7 725.2,229.1 750.1,232.0 775.1,231.7 800.0,232.0"
            fill="none" stroke="#4e79a7"
            stroke-width="2" stroke-linejoin="round"/>
  <polyline points="52.0,232.0 76.9,232.0 101.9,232.0 126.8,232.0 151.7,232.0 176.7,232.0 201.6,232.0 226.5,232.0 251.5,232.0 276.4,232.0 301.3,232.0 326.3,232.0 351.2,232.0 376.1,191.0 401.1,188.9 426.0,193.9 450.9,189.2 475.9,168.8 500.8,215.1 525.7,230.7 550.7,232.0 575.6,229.6 600.5,230.7 625.5,230.7 650.4,230.9 675.3,231.2 700.3,231.5 725.2,231.2 750.1,232.0 775.1,231.7 800.0,232.0"
            fill="none" stroke="#f28e2b"
            stroke-width="2" stroke-linejoin="round"
            stroke-dasharray="5,3"/>

  <!-- dots -->
  <circle cx="52.0" cy="232.0" r="3" fill="#4e79a7"/><circle cx="76.9" cy="232.0" r="3" fill="#4e79a7"/><circle cx="101.9" cy="232.0" r="3" fill="#4e79a7"/><circle cx="126.8" cy="232.0" r="3" fill="#4e79a7"/><circle cx="151.7" cy="232.0" r="3" fill="#4e79a7"/><circle cx="176.7" cy="232.0" r="3" fill="#4e79a7"/><circle cx="201.6" cy="232.0" r="3" fill="#4e79a7"/><circle cx="226.5" cy="232.0" r="3" fill="#4e79a7"/><circle cx="251.5" cy="232.0" r="3" fill="#4e79a7"/><circle cx="276.4" cy="232.0" r="3" fill="#4e79a7"/><circle cx="301.3" cy="232.0" r="3" fill="#4e79a7"/><circle cx="326.3" cy="232.0" r="3" fill="#4e79a7"/><circle cx="351.2" cy="232.0" r="3" fill="#4e79a7"/><circle cx="376.1" cy="118.1" r="3" fill="#4e79a7"/><circle cx="401.1" cy="117.1" r="3" fill="#4e79a7"/><circle cx="426.0" cy="91.9" r="3" fill="#4e79a7"/><circle cx="450.9" cy="77.4" r="3" fill="#4e79a7"/><circle cx="475.9" cy="28.0" r="3" fill="#4e79a7"/><circle cx="500.8" cy="191.3" r="3" fill="#4e79a7"/><circle cx="525.7" cy="230.4" r="3" fill="#4e79a7"/><circle cx="550.7" cy="232.0" r="3" fill="#4e79a7"/><circle cx="575.6" cy="221.2" r="3" fill="#4e79a7"/><circle cx="600.5" cy="230.4" r="3" fill="#4e79a7"/><circle cx="625.5" cy="225.1" r="3" fill="#4e79a7"/><circle cx="650.4" cy="228.6" r="3" fill="#4e79a7"/><circle cx="675.3" cy="229.6" r="3" fill="#4e79a7"/><circle cx="700.3" cy="230.7" r="3" fill="#4e79a7"/><circle cx="725.2" cy="229.1" r="3" fill="#4e79a7"/><circle cx="750.1" cy="232.0" r="3" fill="#4e79a7"/><circle cx="775.1" cy="231.7" r="3" fill="#4e79a7"/><circle cx="800.0" cy="232.0" r="3" fill="#4e79a7"/>
  <circle cx="52.0" cy="232.0" r="3" fill="#f28e2b"/><circle cx="76.9" cy="232.0" r="3" fill="#f28e2b"/><circle cx="101.9" cy="232.0" r="3" fill="#f28e2b"/><circle cx="126.8" cy="232.0" r="3" fill="#f28e2b"/><circle cx="151.7" cy="232.0" r="3" fill="#f28e2b"/><circle cx="176.7" cy="232.0" r="3" fill="#f28e2b"/><circle cx="201.6" cy="232.0" r="3" fill="#f28e2b"/><circle cx="226.5" cy="232.0" r="3" fill="#f28e2b"/><circle cx="251.5" cy="232.0" r="3" fill="#f28e2b"/><circle cx="276.4" cy="232.0" r="3" fill="#f28e2b"/><circle cx="301.3" cy="232.0" r="3" fill="#f28e2b"/><circle cx="326.3" cy="232.0" r="3" fill="#f28e2b"/><circle cx="351.2" cy="232.0" r="3" fill="#f28e2b"/><circle cx="376.1" cy="191.0" r="3" fill="#f28e2b"/><circle cx="401.1" cy="188.9" r="3" fill="#f28e2b"/><circle cx="426.0" cy="193.9" r="3" fill="#f28e2b"/><circle cx="450.9" cy="189.2" r="3" fill="#f28e2b"/><circle cx="475.9" cy="168.8" r="3" fill="#f28e2b"/><circle cx="500.8" cy="215.1" r="3" fill="#f28e2b"/><circle cx="525.7" cy="230.7" r="3" fill="#f28e2b"/><circle cx="550.7" cy="232.0" r="3" fill="#f28e2b"/><circle cx="575.6" cy="229.6" r="3" fill="#f28e2b"/><circle cx="600.5" cy="230.7" r="3" fill="#f28e2b"/><circle cx="625.5" cy="230.7" r="3" fill="#f28e2b"/><circle cx="650.4" cy="230.9" r="3" fill="#f28e2b"/><circle cx="675.3" cy="231.2" r="3" fill="#f28e2b"/><circle cx="700.3" cy="231.5" r="3" fill="#f28e2b"/><circle cx="725.2" cy="231.2" r="3" fill="#f28e2b"/><circle cx="750.1" cy="232.0" r="3" fill="#f28e2b"/><circle cx="775.1" cy="231.7" r="3" fill="#f28e2b"/><circle cx="800.0" cy="232.0" r="3" fill="#f28e2b"/>

  <!-- axes -->
  <line x1="52" y1="28" x2="52" y2="232"
        stroke="#cccccc" stroke-width="1"/>
  <line x1="52" y1="232" x2="800" y2="232"
        stroke="#cccccc" stroke-width="1"/>

  <!-- y-axis labels -->
  <text x="47" y="236.0" text-anchor="end" font-size="10" fill="#57606a" font-family="ui-monospace, SFMono-Regular, 'SF Mono', Menlo, monospace">0</text><text x="47" y="183.2" text-anchor="end" font-size="10" fill="#57606a" font-family="ui-monospace, SFMono-Regular, 'SF Mono', Menlo, monospace">200</text><text x="47" y="130.3" text-anchor="end" font-size="10" fill="#57606a" font-family="ui-monospace, SFMono-Regular, 'SF Mono', Menlo, monospace">400</text><text x="47" y="77.5" text-anchor="end" font-size="10" fill="#57606a" font-family="ui-monospace, SFMono-Regular, 'SF Mono', Menlo, monospace">600</text><text x="47" y="24.6" text-anchor="end" font-size="10" fill="#57606a" font-family="ui-monospace, SFMono-Regular, 'SF Mono', Menlo, monospace">800</text>

  <!-- x-axis labels -->
  <text x="52.0" y="248" text-anchor="middle" font-size="10" fill="#8c959f" font-family="ui-monospace, SFMono-Regular, 'SF Mono', Menlo, monospace">05-30</text><text x="126.8" y="248" text-anchor="middle" font-size="10" fill="#8c959f" font-family="ui-monospace, SFMono-Regular, 'SF Mono', Menlo, monospace">06-02</text><text x="201.6" y="248" text-anchor="middle" font-size="10" fill="#8c959f" font-family="ui-monospace, SFMono-Regular, 'SF Mono', Menlo, monospace">06-05</text><text x="276.4" y="248" text-anchor="middle" font-size="10" fill="#8c959f" font-family="ui-monospace, SFMono-Regular, 'SF Mono', Menlo, monospace">06-08</text><text x="351.2" y="248" text-anchor="middle" font-size="10" fill="#8c959f" font-family="ui-monospace, SFMono-Regular, 'SF Mono', Menlo, monospace">06-11</text><text x="426.0" y="248" text-anchor="middle" font-size="10" fill="#8c959f" font-family="ui-monospace, SFMono-Regular, 'SF Mono', Menlo, monospace">06-14</text><text x="500.8" y="248" text-anchor="middle" font-size="10" fill="#8c959f" font-family="ui-monospace, SFMono-Regular, 'SF Mono', Menlo, monospace">06-17</text><text x="575.6" y="248" text-anchor="middle" font-size="10" fill="#8c959f" font-family="ui-monospace, SFMono-Regular, 'SF Mono', Menlo, monospace">06-20</text><text x="650.4" y="248" text-anchor="middle" font-size="10" fill="#8c959f" font-family="ui-monospace, SFMono-Regular, 'SF Mono', Menlo, monospace">06-23</text><text x="725.2" y="248" text-anchor="middle" font-size="10" fill="#8c959f" font-family="ui-monospace, SFMono-Regular, 'SF Mono', Menlo, monospace">06-26</text><text x="800.0" y="248" text-anchor="middle" font-size="10" fill="#8c959f" font-family="ui-monospace, SFMono-Regular, 'SF Mono', Menlo, monospace">06-29</text>

  <!-- legend -->
  <rect x="60" y="262" width="16" height="3" fill="#4e79a7" rx="1"/><text x="80" y="268" font-size="11" fill="#57606a" font-family="-apple-system, BlinkMacSystemFont, 'Segoe UI', sans-serif">Total clones (3,025)</text><line x1="230" y1="264" x2="246" y2="264" stroke="#f28e2b" stroke-width="2" stroke-dasharray="5,3"/><text x="250" y="268" font-size="11" fill="#57606a" font-family="-apple-system, BlinkMacSystemFont, 'Segoe UI', sans-serif">Unique cloners</text>

</svg>