<svg xmlns="http://www.w3.org/2000/svg" viewBox="0 0 820 280" width="820" height="280">

  <!-- title -->
  <text x="52" y="18" font-size="13" font-weight="600"
        fill="#24292f" font-family="-apple-system, BlinkMacSystemFont, 'Segoe UI', sans-serif"
        >Clone traffic — local-ai-lab</text>
  <text x="800" y="18" font-size="10" fill="#8c959f"
        font-family="ui-monospace, SFMono-Regular, 'SF Mono', Menlo, monospace" text-anchor="end">2026-06-30</text>

  <!-- grid -->
  <line x1="52" y1="232.0" x2="800" y2="232.0" stroke="#e8e8e8" stroke-width="1"/><line x1="52" y1="179.2" x2="800" y2="179.2" stroke="#e8e8e8" stroke-width="1"/><line x1="52" y1="126.3" x2="800" y2="126.3" stroke="#e8e8e8" stroke-width="1"/><line x1="52" y1="73.5" x2="800" y2="73.5" stroke="#e8e8e8" stroke-width="1"/><line x1="52" y1="20.6" x2="800" y2="20.6" stroke="#e8e8e8" stroke-width="1"/>

  <!-- area fill -->
  <path d="M52.0,232.0 L52.0,232.0 L77.8,232.0 L103.6,232.0 L129.4,232.0 L155.2,232.0 L181.0,232.0 L206.8,232.0 L232.6,232.0 L258.3,232.0 L284.1,232.0 L309.9,232.0 L335.7,232.0 L361.5,232.0 L387.3,118.1 L413.1,117.1 L438.9,91.9 L464.7,77.4 L490.5,28.0 L516.3,191.3 L542.1,230.4 L567.9,232.0 L593.7,221.2 L619.4,230.4 L645.2,225.1 L671.0,228.6 L696.8,229.6 L722.6,230.7 L748.4,229.1 L774.2,232.0 L800.0,231.7 L800.0,232.0 L52.0,232.0Z" fill="#4e79a7" opacity="0.12"/>

  <!-- lines -->
  <polyline points="52.0,232.0 77.8,232.0 103.6,232.0 129.4,232.0 155.2,232.0 181.0,232.0 206.8,232.0 232.6,232.0 258.3,232.0 284.1,232.0 309.9,232.0 335.7,232.0 361.5,232.0 387.3,118.1 413.1,117.1 438.9,91.9 464.7,77.4 490.5,28.0 516.3,191.3 542.1,230.4 567.9,232.0 593.7,221.2 619.4,230.4 645.2,225.1 671.0,228.6 696.8,229.6 722.6,230.7 748.4,229.1 774.2,232.0 800.0,231.7"
            fill="none" stroke="#4e79a7"
            stroke-width="2" stroke-linejoin="round"/>
  <polyline points="52.0,232.0 77.8,232.0 103.6,232.0 129.4,232.0 155.2,232.0 181.0,232.0 206.8,232.0 232.6,232.0 258.3,232.0 284.1,232.0 309.9,232.0 335.7,232.0 361.5,232.0 387.3,191.0 413.1,188.9 438.9,193.9 464.7,189.2 490.5,168.8 516.3,215.1 542.1,230.7 567.9,232.0 593.7,229.6 619.4,230.7 645.2,230.7 671.0,230.9 696.8,231.2 722.6,231.5 748.4,231.2 774.2,232.0 800.0,231.7"
            fill="none" stroke="#f28e2b"
            stroke-width="2" stroke-linejoin="round"
            stroke-dasharray="5,3"/>

  <!-- dots -->
  <circle cx="52.0" cy="232.0" r="3" fill="#4e79a7"/><circle cx="77.8" cy="232.0" r="3" fill="#4e79a7"/><circle cx="103.6" cy="232.0" r="3" fill="#4e79a7"/><circle cx="129.4" cy="232.0" r="3" fill="#4e79a7"/><circle cx="155.2" cy="232.0" r="3" fill="#4e79a7"/><circle cx="181.0" cy="232.0" r="3" fill="#4e79a7"/><circle cx="206.8" cy="232.0" r="3" fill="#4e79a7"/><circle cx="232.6" cy="232.0" r="3" fill="#4e79a7"/><circle cx="258.3" cy="232.0" r="3" fill="#4e79a7"/><circle cx="284.1" cy="232.0" r="3" fill="#4e79a7"/><circle cx="309.9" cy="232.0" r="3" fill="#4e79a7"/><circle cx="335.7" cy="232.0" r="3" fill="#4e79a7"/><circle cx="361.5" cy="232.0" r="3" fill="#4e79a7"/><circle cx="387.3" cy="118.1" r="3" fill="#4e79a7"/><circle cx="413.1" cy="117.1" r="3" fill="#4e79a7"/><circle cx="438.9" cy="91.9" r="3" fill="#4e79a7"/><circle cx="464.7" cy="77.4" r="3" fill="#4e79a7"/><circle cx="490.5" cy="28.0" r="3" fill="#4e79a7"/><circle cx="516.3" cy="191.3" r="3" fill="#4e79a7"/><circle cx="542.1" cy="230.4" r="3" fill="#4e79a7"/><circle cx="567.9" cy="232.0" r="3" fill="#4e79a7"/><circle cx="593.7" cy="221.2" r="3" fill="#4e79a7"/><circle cx="619.4" cy="230.4" r="3" fill="#4e79a7"/><circle cx="645.2" cy="225.1" r="3" fill="#4e79a7"/><circle cx="671.0" cy="228.6" r="3" fill="#4e79a7"/><circle cx="696.8" cy="229.6" r="3" fill="#4e79a7"/><circle cx="722.6" cy="230.7" r="3" fill="#4e79a7"/><circle cx="748.4" cy="229.1" r="3" fill="#4e79a7"/><circle cx="774.2" cy="232.0" r="3" fill="#4e79a7"/><circle cx="800.0" cy="231.7" r="3" fill="#4e79a7"/>
  <circle cx="52.0" cy="232.0" r="3" fill="#f28e2b"/><circle cx="77.8" cy="232.0" r="3" fill="#f28e2b"/><circle cx="103.6" cy="232.0" r="3" fill="#f28e2b"/><circle cx="129.4" cy="232.0" r="3" fill="#f28e2b"/><circle cx="155.2" cy="232.0" r="3" fill="#f28e2b"/><circle cx="181.0" cy="232.0" r="3" fill="#f28e2b"/><circle cx="206.8" cy="232.0" r="3" fill="#f28e2b"/><circle cx="232.6" cy="232.0" r="3" fill="#f28e2b"/><circle cx="258.3" cy="232.0" r="3" fill="#f28e2b"/><circle cx="284.1" cy="232.0" r="3" fill="#f28e2b"/><circle cx="309.9" cy="232.0" r="3" fill="#f28e2b"/><circle cx="335.7" cy="232.0" r="3" fill="#f28e2b"/><circle cx="361.5" cy="232.0" r="3" fill="#f28e2b"/><circle cx="387.3" cy="191.0" r="3" fill="#f28e2b"/><circle cx="413.1" cy="188.9" r="3" fill="#f28e2b"/><circle cx="438.9" cy="193.9" r="3" fill="#f28e2b"/><circle cx="464.7" cy="189.2" r="3" fill="#f28e2b"/><circle cx="490.5" cy="168.8" r="3" fill="#f28e2b"/><circle cx="516.3" cy="215.1" r="3" fill="#f28e2b"/><circle cx="542.1" cy="230.7" r="3" fill="#f28e2b"/><circle cx="567.9" cy="232.0" r="3" fill="#f28e2b"/><circle cx="593.7" cy="229.6" r="3" fill="#f28e2b"/><circle cx="619.4" cy="230.7" r="3" fill="#f28e2b"/><circle cx="645.2" cy="230.7" r="3" fill="#f28e2b"/><circle cx="671.0" cy="230.9" r="3" fill="#f28e2b"/><circle cx="696.8" cy="231.2" r="3" fill="#f28e2b"/><circle cx="722.6" cy="231.5" r="3" fill="#f28e2b"/><circle cx="748.4" cy="231.2" r="3" fill="#f28e2b"/><circle cx="774.2" cy="232.0" r="3" fill="#f28e2b"/><circle cx="800.0" cy="231.7" r="3" fill="#f28e2b"/>

  <!-- axes -->
  <line x1="52" y1="28" x2="52" y2="232"
        stroke="#cccccc" stroke-width="1"/>
  <line x1="52" y1="232" x2="800" y2="232"
        stroke="#cccccc" stroke-width="1"/>

  <!-- y-axis labels -->
  <text x="47" y="236.0" text-anchor="end" font-size="10" fill="#57606a" font-family="ui-monospace, SFMono-Regular, 'SF Mono', Menlo, monospace">0</text><text x="47" y="183.2" text-anchor="end" font-size="10" fill="#57606a" font-family="ui-monospace, SFMono-Regular, 'SF Mono', Menlo, monospace">200</text><text x="47" y="130.3" text-anchor="end" font-size="10" fill="#57606a" font-family="ui-monospace, SFMono-Regular, 'SF Mono', Menlo, monospace">400</text><text x="47" y="77.5" text-anchor="end" font-size="10" fill="#57606a" font-family="ui-monospace, SFMono-Regular, 'SF Mono', Menlo, monospace">600</text><text x="47" y="24.6" text-anchor="end" font-size="10" fill="#57606a" font-family="ui-monospace, SFMono-Regular, 'SF Mono', Menlo, monospace">800</text>

  <!-- x-axis labels -->
  <text x="52.0" y="248" text-anchor="middle" font-size="10" fill="#8c959f" font-family="ui-monospace, SFMono-Regular, 'SF Mono', Menlo, monospace">05-30</text><text x="129.4" y="248" text-anchor="middle" font-size="10" fill="#8c959f" font-family="ui-monospace, SFMono-Regular, 'SF Mono', Menlo, monospace">06-02</text><text x="206.8" y="248" text-anchor="middle" font-size="10" fill="#8c959f" font-family="ui-monospace, SFMono-Regular, 'SF Mono', Menlo, monospace">06-05</text><text x="284.1" y="248" text-anchor="middle" font-size="10" fill="#8c959f" font-family="ui-monospace, SFMono-Regular, 'SF Mono', Menlo, monospace">06-08</text><text x="361.5" y="248" text-anchor="middle" font-size="10" fill="#8c959f" font-family="ui-monospace, SFMono-Regular, 'SF Mono', Menlo, monospace">06-11</text><text x="438.9" y="248" text-anchor="middle" font-size="10" fill="#8c959f" font-family="ui-monospace, SFMono-Regular, 'SF Mono', Menlo, monospace">06-14</text><text x="516.3" y="248" text-anchor="middle" font-size="10" fill="#8c959f" font-family="ui-monospace, SFMono-Regular, 'SF Mono', Menlo, monospace">06-17</text><text x="593.7" y="248" text-anchor="middle" font-size="10" fill="#8c959f" font-family="ui-monospace, SFMono-Regular, 'SF Mono', Menlo, monospace">06-20</text><text x="671.0" y="248" text-anchor="middle" font-size="10" fill="#8c959f" font-family="ui-monospace, SFMono-Regular, 'SF Mono', Menlo, monospace">06-23</text><text x="748.4" y="248" text-anchor="middle" font-size="10" fill="#8c959f" font-family="ui-monospace, SFMono-Regular, 'SF Mono', Menlo, monospace">06-26</text><text x="800.0" y="248" text-anchor="middle" font-size="10" fill="#8c959f" font-family="ui-monospace, SFMono-Regular, 'SF Mono', Menlo, monospace">06-28</text>

  <!-- legend -->
  <rect x="60" y="262" width="16" height="3" fill="#4e79a7" rx="1"/><text x="80" y="268" font-size="11" fill="#57606a" font-family="-apple-system, BlinkMacSystemFont, 'Segoe UI', sans-serif">Total clones (3,025)</text><line x1="230" y1="264" x2="246" y2="264" stroke="#f28e2b" stroke-width="2" stroke-dasharray="5,3"/><text x="250" y="268" font-size="11" fill="#57606a" font-family="-apple-system, BlinkMacSystemFont, 'Segoe UI', sans-serif">Unique cloners</text>

</svg>