<svg xmlns="http://www.w3.org/2000/svg" viewBox="0 0 820 280" width="820" height="280">

  <!-- title -->
  <text x="52" y="18" font-size="13" font-weight="600"
        fill="#24292f" font-family="-apple-system, BlinkMacSystemFont, 'Segoe UI', sans-serif"
        >Clone traffic — local-ai-lab</text>
  <text x="800" y="18" font-size="10" fill="#8c959f"
        font-family="ui-monospace, SFMono-Regular, 'SF Mono', Menlo, monospace" text-anchor="end">2026-07-23</text>

  <!-- grid -->
  <line x1="52" y1="232.0" x2="800" y2="232.0" stroke="#e8e8e8" stroke-width="1"/><line x1="52" y1="179.2" x2="800" y2="179.2" stroke="#e8e8e8" stroke-width="1"/><line x1="52" y1="126.3" x2="800" y2="126.3" stroke="#e8e8e8" stroke-width="1"/><line x1="52" y1="73.5" x2="800" y2="73.5" stroke="#e8e8e8" stroke-width="1"/><line x1="52" y1="20.6" x2="800" y2="20.6" stroke="#e8e8e8" stroke-width="1"/>

  <!-- area fill -->
  <path d="M52.0,232.0 L52.0,232.0 L66.4,232.0 L80.8,232.0 L95.2,232.0 L109.5,232.0 L123.9,232.0 L138.3,232.0 L152.7,232.0 L167.1,232.0 L181.5,232.0 L195.8,232.0 L210.2,232.0 L224.6,232.0 L239.0,118.1 L253.4,117.1 L267.8,91.9 L282.2,77.4 L296.5,28.0 L310.9,191.3 L325.3,230.4 L339.7,232.0 L354.1,221.2 L368.5,230.4 L382.8,225.1 L397.2,228.6 L411.6,229.6 L426.0,230.7 L440.4,229.1 L454.8,232.0 L469.2,231.7 L483.5,232.0 L497.9,232.0 L512.3,231.5 L526.7,231.5 L541.1,207.7 L555.5,220.6 L569.8,231.2 L584.2,231.7 L598.6,230.9 L613.0,231.7 L627.4,231.7 L641.8,232.0 L656.2,231.7 L670.5,231.5 L684.9,231.7 L699.3,231.5 L713.7,232.0 L728.1,232.0 L742.5,232.0 L756.8,231.7 L771.2,231.7 L785.6,231.7 L800.0,232.0 L800.0,232.0 L52.0,232.0Z" fill="#4e79a7" opacity="0.12"/>

  <!-- lines -->
  <polyline points="52.0,232.0 66.4,232.0 80.8,232.0 95.2,232.0 109.5,232.0 123.9,232.0 138.3,232.0 152.7,232.0 167.1,232.0 181.5,232.0 195.8,232.0 210.2,232.0 224.6,232.0 239.0,118.1 253.4,117.1 267.8,91.9 282.2,77.4 296.5,28.0 310.9,191.3 325.3,230.4 339.7,232.0 354.1,221.2 368.5,230.4 382.8,225.1 397.2,228.6 411.6,229.6 426.0,230.7 440.4,229.1 454.8,232.0 469.2,231.7 483.5,232.0 497.9,232.0 512.3,231.5 526.7,231.5 541.1,207.7 555.5,220.6 569.8,231.2 584.2,231.7 598.6,230.9 613.0,231.7 627.4,231.7 641.8,232.0 656.2,231.7 670.5,231.5 684.9,231.7 699.3,231.5 713.7,232.0 728.1,232.0 742.5,232.0 756.8,231.7 771.2,231.7 785.6,231.7 800.0,232.0"
            fill="none" stroke="#4e79a7"
            stroke-width="2" stroke-linejoin="round"/>
  <polyline points="52.0,232.0 66.4,232.0 80.8,232.0 95.2,232.0 109.5,232.0 123.9,232.0 138.3,232.0 152.7,232.0 167.1,232.0 181.5,232.0 195.8,232.0 210.2,232.0 224.6,232.0 239.0,191.0 253.4,188.9 267.8,193.9 282.2,189.2 296.5,168.8 310.9,215.1 325.3,230.7 339.7,232.0 354.1,229.6 368.5,230.7 382.8,230.7 397.2,230.9 411.6,231.2 426.0,231.5 440.4,231.2 454.8,232.0 469.2,231.7 483.5,232.0 497.9,232.0 512.3,231.5 526.7,231.5 541.1,222.2 555.5,226.2 569.8,231.2 584.2,231.7 598.6,230.9 613.0,231.7 627.4,231.7 641.8,232.0 656.2,231.7 670.5,231.5 684.9,231.7 699.3,231.5 713.7,232.0 728.1,232.0 742.5,232.0 756.8,231.7 771.2,231.7 785.6,231.7 800.0,232.0"
            fill="none" stroke="#f28e2b"
            stroke-width="2" stroke-linejoin="round"
            stroke-dasharray="5,3"/>

  <!-- dots -->
  <circle cx="52.0" cy="232.0" r="3" fill="#4e79a7"/><circle cx="66.4" cy="232.0" r="3" fill="#4e79a7"/><circle cx="80.8" cy="232.0" r="3" fill="#4e79a7"/><circle cx="95.2" cy="232.0" r="3" fill="#4e79a7"/><circle cx="109.5" cy="232.0" r="3" fill="#4e79a7"/><circle cx="123.9" cy="232.0" r="3" fill="#4e79a7"/><circle cx="138.3" cy="232.0" r="3" fill="#4e79a7"/><circle cx="152.7" cy="232.0" r="3" fill="#4e79a7"/><circle cx="167.1" cy="232.0" r="3" fill="#4e79a7"/><circle cx="181.5" cy="232.0" r="3" fill="#4e79a7"/><circle cx="195.8" cy="232.0" r="3" fill="#4e79a7"/><circle cx="210.2" cy="232.0" r="3" fill="#4e79a7"/><circle cx="224.6" cy="232.0" r="3" fill="#4e79a7"/><circle cx="239.0" cy="118.1" r="3" fill="#4e79a7"/><circle cx="253.4" cy="117.1" r="3" fill="#4e79a7"/><circle cx="267.8" cy="91.9" r="3" fill="#4e79a7"/><circle cx="282.2" cy="77.4" r="3" fill="#4e79a7"/><circle cx="296.5" cy="28.0" r="3" fill="#4e79a7"/><circle cx="310.9" cy="191.3" r="3" fill="#4e79a7"/><circle cx="325.3" cy="230.4" r="3" fill="#4e79a7"/><circle cx="339.7" cy="232.0" r="3" fill="#4e79a7"/><circle cx="354.1" cy="221.2" r="3" fill="#4e79a7"/><circle cx="368.5" cy="230.4" r="3" fill="#4e79a7"/><circle cx="382.8" cy="225.1" r="3" fill="#4e79a7"/><circle cx="397.2" cy="228.6" r="3" fill="#4e79a7"/><circle cx="411.6" cy="229.6" r="3" fill="#4e79a7"/><circle cx="426.0" cy="230.7" r="3" fill="#4e79a7"/><circle cx="440.4" cy="229.1" r="3" fill="#4e79a7"/><circle cx="454.8" cy="232.0" r="3" fill="#4e79a7"/><circle cx="469.2" cy="231.7" r="3" fill="#4e79a7"/><circle cx="483.5" cy="232.0" r="3" fill="#4e79a7"/><circle cx="497.9" cy="232.0" r="3" fill="#4e79a7"/><circle cx="512.3" cy="231.5" r="3" fill="#4e79a7"/><circle cx="526.7" cy="231.5" r="3" fill="#4e79a7"/><circle cx="541.1" cy="207.7" r="3" fill="#4e79a7"/><circle cx="555.5" cy="220.6" r="3" fill="#4e79a7"/><circle cx="569.8" cy="231.2" r="3" fill="#4e79a7"/><circle cx="584.2" cy="231.7" r="3" fill="#4e79a7"/><circle cx="598.6" cy="230.9" r="3" fill="#4e79a7"/><circle cx="613.0" cy="231.7" r="3" fill="#4e79a7"/><circle cx="627.4" cy="231.7" r="3" fill="#4e79a7"/><circle cx="641.8" cy="232.0" r="3" fill="#4e79a7"/><circle cx="656.2" cy="231.7" r="3" fill="#4e79a7"/><circle cx="670.5" cy="231.5" r="3" fill="#4e79a7"/><circle cx="684.9" cy="231.7" r="3" fill="#4e79a7"/><circle cx="699.3" cy="231.5" r="3" fill="#4e79a7"/><circle cx="713.7" cy="232.0" r="3" fill="#4e79a7"/><circle cx="728.1" cy="232.0" r="3" fill="#4e79a7"/><circle cx="742.5" cy="232.0" r="3" fill="#4e79a7"/><circle cx="756.8" cy="231.7" r="3" fill="#4e79a7"/><circle cx="771.2" cy="231.7" r="3" fill="#4e79a7"/><circle cx="785.6" cy="231.7" r="3" fill="#4e79a7"/><circle cx="800.0" cy="232.0" r="3" fill="#4e79a7"/>
  <circle cx="52.0" cy="232.0" r="3" fill="#f28e2b"/><circle cx="66.4" cy="232.0" r="3" fill="#f28e2b"/><circle cx="80.8" cy="232.0" r="3" fill="#f28e2b"/><circle cx="95.2" cy="232.0" r="3" fill="#f28e2b"/><circle cx="109.5" cy="232.0" r="3" fill="#f28e2b"/><circle cx="123.9" cy="232.0" r="3" fill="#f28e2b"/><circle cx="138.3" cy="232.0" r="3" fill="#f28e2b"/><circle cx="152.7" cy="232.0" r="3" fill="#f28e2b"/><circle cx="167.1" cy="232.0" r="3" fill="#f28e2b"/><circle cx="181.5" cy="232.0" r="3" fill="#f28e2b"/><circle cx="195.8" cy="232.0" r="3" fill="#f28e2b"/><circle cx="210.2" cy="232.0" r="3" fill="#f28e2b"/><circle cx="224.6" cy="232.0" r="3" fill="#f28e2b"/><circle cx="239.0" cy="191.0" r="3" fill="#f28e2b"/><circle cx="253.4" cy="188.9" r="3" fill="#f28e2b"/><circle cx="267.8" cy="193.9" r="3" fill="#f28e2b"/><circle cx="282.2" cy="189.2" r="3" fill="#f28e2b"/><circle cx="296.5" cy="168.8" r="3" fill="#f28e2b"/><circle cx="310.9" cy="215.1" r="3" fill="#f28e2b"/><circle cx="325.3" cy="230.7" r="3" fill="#f28e2b"/><circle cx="339.7" cy="232.0" r="3" fill="#f28e2b"/><circle cx="354.1" cy="229.6" r="3" fill="#f28e2b"/><circle cx="368.5" cy="230.7" r="3" fill="#f28e2b"/><circle cx="382.8" cy="230.7" r="3" fill="#f28e2b"/><circle cx="397.2" cy="230.9" r="3" fill="#f28e2b"/><circle cx="411.6" cy="231.2" r="3" fill="#f28e2b"/><circle cx="426.0" cy="231.5" r="3" fill="#f28e2b"/><circle cx="440.4" cy="231.2" r="3" fill="#f28e2b"/><circle cx="454.8" cy="232.0" r="3" fill="#f28e2b"/><circle cx="469.2" cy="231.7" r="3" fill="#f28e2b"/><circle cx="483.5" cy="232.0" r="3" fill="#f28e2b"/><circle cx="497.9" cy="232.0" r="3" fill="#f28e2b"/><circle cx="512.3" cy="231.5" r="3" fill="#f28e2b"/><circle cx="526.7" cy="231.5" r="3" fill="#f28e2b"/><circle cx="541.1" cy="222.2" r="3" fill="#f28e2b"/><circle cx="555.5" cy="226.2" r="3" fill="#f28e2b"/><circle cx="569.8" cy="231.2" r="3" fill="#f28e2b"/><circle cx="584.2" cy="231.7" r="3" fill="#f28e2b"/><circle cx="598.6" cy="230.9" r="3" fill="#f28e2b"/><circle cx="613.0" cy="231.7" r="3" fill="#f28e2b"/><circle cx="627.4" cy="231.7" r="3" fill="#f28e2b"/><circle cx="641.8" cy="232.0" r="3" fill="#f28e2b"/><circle cx="656.2" cy="231.7" r="3" fill="#f28e2b"/><circle cx="670.5" cy="231.5" r="3" fill="#f28e2b"/><circle cx="684.9" cy="231.7" r="3" fill="#f28e2b"/><circle cx="699.3" cy="231.5" r="3" fill="#f28e2b"/><circle cx="713.7" cy="232.0" r="3" fill="#f28e2b"/><circle cx="728.1" cy="232.0" r="3" fill="#f28e2b"/><circle cx="742.5" cy="232.0" r="3" fill="#f28e2b"/><circle cx="756.8" cy="231.7" r="3" fill="#f28e2b"/><circle cx="771.2" cy="231.7" r="3" fill="#f28e2b"/><circle cx="785.6" cy="231.7" r="3" fill="#f28e2b"/><circle cx="800.0" cy="232.0" r="3" fill="#f28e2b"/>

  <!-- axes -->
  <line x1="52" y1="28" x2="52" y2="232"
        stroke="#cccccc" stroke-width="1"/>
  <line x1="52" y1="232" x2="800" y2="232"
        stroke="#cccccc" stroke-width="1"/>

  <!-- y-axis labels -->
  <text x="47" y="236.0" text-anchor="end" font-size="10" fill="#57606a" font-family="ui-monospace, SFMono-Regular, 'SF Mono', Menlo, monospace">0</text><text x="47" y="183.2" text-anchor="end" font-size="10" fill="#57606a" font-family="ui-monospace, SFMono-Regular, 'SF Mono', Menlo, monospace">200</text><text x="47" y="130.3" text-anchor="end" font-size="10" fill="#57606a" font-family="ui-monospace, SFMono-Regular, 'SF Mono', Menlo, monospace">400</text><text x="47" y="77.5" text-anchor="end" font-size="10" fill="#57606a" font-family="ui-monospace, SFMono-Regular, 'SF Mono', Menlo, monospace">600</text><text x="47" y="24.6" text-anchor="end" font-size="10" fill="#57606a" font-family="ui-monospace, SFMono-Regular, 'SF Mono', Menlo, monospace">800</text>

  <!-- x-axis labels -->
  <text x="52.0" y="248" text-anchor="middle" font-size="10" fill="#8c959f" font-family="ui-monospace, SFMono-Regular, 'SF Mono', Menlo, monospace">05-30</text><text x="569.8" y="248" text-anchor="middle" font-size="10" fill="#8c959f" font-family="ui-monospace, SFMono-Regular, 'SF Mono', Menlo, monospace">07-05</text><text x="138.3" y="248" text-anchor="middle" font-size="10" fill="#8c959f" font-family="ui-monospace, SFMono-Regular, 'SF Mono', Menlo, monospace">06-05</text><text x="656.2" y="248" text-anchor="middle" font-size="10" fill="#8c959f" font-family="ui-monospace, SFMono-Regular, 'SF Mono', Menlo, monospace">07-11</text><text x="224.6" y="248" text-anchor="middle" font-size="10" fill="#8c959f" font-family="ui-monospace, SFMono-Regular, 'SF Mono', Menlo, monospace">06-11</text><text x="742.5" y="248" text-anchor="middle" font-size="10" fill="#8c959f" font-family="ui-monospace, SFMono-Regular, 'SF Mono', Menlo, monospace">07-17</text><text x="310.9" y="248" text-anchor="middle" font-size="10" fill="#8c959f" font-family="ui-monospace, SFMono-Regular, 'SF Mono', Menlo, monospace">06-17</text><text x="800.0" y="248" text-anchor="middle" font-size="10" fill="#8c959f" font-family="ui-monospace, SFMono-Regular, 'SF Mono', Menlo, monospace">07-21</text><text x="397.2" y="248" text-anchor="middle" font-size="10" fill="#8c959f" font-family="ui-monospace, SFMono-Regular, 'SF Mono', Menlo, monospace">06-23</text><text x="483.5" y="248" text-anchor="middle" font-size="10" fill="#8c959f" font-family="ui-monospace, SFMono-Regular, 'SF Mono', Menlo, monospace">06-29</text>

  <!-- legend -->
  <rect x="60" y="262" width="16" height="3" fill="#4e79a7" rx="1"/><text x="80" y="268" font-size="11" fill="#57606a" font-family="-apple-system, BlinkMacSystemFont, 'Segoe UI', sans-serif">Total clones (3,183)</text><line x1="230" y1="264" x2="246" y2="264" stroke="#f28e2b" stroke-width="2" stroke-dasharray="5,3"/><text x="250" y="268" font-size="11" fill="#57606a" font-family="-apple-system, BlinkMacSystemFont, 'Segoe UI', sans-serif">Unique cloners</text>

</svg>