<svg xmlns="http://www.w3.org/2000/svg" viewBox="0 0 820 280" width="820" height="280">

  <!-- title -->
  <text x="52" y="18" font-size="13" font-weight="600"
        fill="#24292f" font-family="-apple-system, BlinkMacSystemFont, 'Segoe UI', sans-serif"
        >Clone traffic — local-ai-lab</text>
  <text x="800" y="18" font-size="10" fill="#8c959f"
        font-family="ui-monospace, SFMono-Regular, 'SF Mono', Menlo, monospace" text-anchor="end">2026-07-24</text>

  <!-- grid -->
  <line x1="52" y1="232.0" x2="800" y2="232.0" stroke="#e8e8e8" stroke-width="1"/><line x1="52" y1="179.2" x2="800" y2="179.2" stroke="#e8e8e8" stroke-width="1"/><line x1="52" y1="126.3" x2="800" y2="126.3" stroke="#e8e8e8" stroke-width="1"/><line x1="52" y1="73.5" x2="800" y2="73.5" stroke="#e8e8e8" stroke-width="1"/><line x1="52" y1="20.6" x2="800" y2="20.6" stroke="#e8e8e8" stroke-width="1"/>

  <!-- area fill -->
  <path d="M52.0,232.0 L52.0,232.0 L66.1,232.0 L80.2,232.0 L94.3,232.0 L108.5,232.0 L122.6,232.0 L136.7,232.0 L150.8,232.0 L164.9,232.0 L179.0,232.0 L193.1,232.0 L207.2,232.0 L221.4,232.0 L235.5,118.1 L249.6,117.1 L263.7,91.9 L277.8,77.4 L291.9,28.0 L306.0,191.3 L320.2,230.4 L334.3,232.0 L348.4,221.2 L362.5,230.4 L376.6,225.1 L390.7,228.6 L404.8,229.6 L418.9,230.7 L433.1,229.1 L447.2,232.0 L461.3,231.7 L475.4,232.0 L489.5,232.0 L503.6,231.5 L517.7,231.5 L531.8,207.7 L546.0,220.6 L560.1,231.2 L574.2,231.7 L588.3,230.9 L602.4,231.7 L616.5,231.7 L630.6,232.0 L644.8,231.7 L658.9,231.5 L673.0,231.7 L687.1,231.5 L701.2,232.0 L715.3,232.0 L729.4,232.0 L743.5,231.7 L757.7,231.7 L771.8,231.7 L785.9,232.0 L800.0,231.2 L800.0,232.0 L52.0,232.0Z" fill="#4e79a7" opacity="0.12"/>

  <!-- lines -->
  <polyline points="52.0,232.0 66.1,232.0 80.2,232.0 94.3,232.0 108.5,232.0 122.6,232.0 136.7,232.0 150.8,232.0 164.9,232.0 179.0,232.0 193.1,232.0 207.2,232.0 221.4,232.0 235.5,118.1 249.6,117.1 263.7,91.9 277.8,77.4 291.9,28.0 306.0,191.3 320.2,230.4 334.3,232.0 348.4,221.2 362.5,230.4 376.6,225.1 390.7,228.6 404.8,229.6 418.9,230.7 433.1,229.1 447.2,232.0 461.3,231.7 475.4,232.0 489.5,232.0 503.6,231.5 517.7,231.5 531.8,207.7 546.0,220.6 560.1,231.2 574.2,231.7 588.3,230.9 602.4,231.7 616.5,231.7 630.6,232.0 644.8,231.7 658.9,231.5 673.0,231.7 687.1,231.5 701.2,232.0 715.3,232.0 729.4,232.0 743.5,231.7 757.7,231.7 771.8,231.7 785.9,232.0 800.0,231.2"
            fill="none" stroke="#4e79a7"
            stroke-width="2" stroke-linejoin="round"/>
  <polyline points="52.0,232.0 66.1,232.0 80.2,232.0 94.3,232.0 108.5,232.0 122.6,232.0 136.7,232.0 150.8,232.0 164.9,232.0 179.0,232.0 193.1,232.0 207.2,232.0 221.4,232.0 235.5,191.0 249.6,188.9 263.7,193.9 277.8,189.2 291.9,168.8 306.0,215.1 320.2,230.7 334.3,232.0 348.4,229.6 362.5,230.7 376.6,230.7 390.7,230.9 404.8,231.2 418.9,231.5 433.1,231.2 447.2,232.0 461.3,231.7 475.4,232.0 489.5,232.0 503.6,231.5 517.7,231.5 531.8,222.2 546.0,226.2 560.1,231.2 574.2,231.7 588.3,230.9 602.4,231.7 616.5,231.7 630.6,232.0 644.8,231.7 658.9,231.5 673.0,231.7 687.1,231.5 701.2,232.0 715.3,232.0 729.4,232.0 743.5,231.7 757.7,231.7 771.8,231.7 785.9,232.0 800.0,231.2"
            fill="none" stroke="#f28e2b"
            stroke-width="2" stroke-linejoin="round"
            stroke-dasharray="5,3"/>

  <!-- dots -->
  <circle cx="52.0" cy="232.0" r="3" fill="#4e79a7"/><circle cx="66.1" cy="232.0" r="3" fill="#4e79a7"/><circle cx="80.2" cy="232.0" r="3" fill="#4e79a7"/><circle cx="94.3" cy="232.0" r="3" fill="#4e79a7"/><circle cx="108.5" cy="232.0" r="3" fill="#4e79a7"/><circle cx="122.6" cy="232.0" r="3" fill="#4e79a7"/><circle cx="136.7" cy="232.0" r="3" fill="#4e79a7"/><circle cx="150.8" cy="232.0" r="3" fill="#4e79a7"/><circle cx="164.9" cy="232.0" r="3" fill="#4e79a7"/><circle cx="179.0" cy="232.0" r="3" fill="#4e79a7"/><circle cx="193.1" cy="232.0" r="3" fill="#4e79a7"/><circle cx="207.2" cy="232.0" r="3" fill="#4e79a7"/><circle cx="221.4" cy="232.0" r="3" fill="#4e79a7"/><circle cx="235.5" cy="118.1" r="3" fill="#4e79a7"/><circle cx="249.6" cy="117.1" r="3" fill="#4e79a7"/><circle cx="263.7" cy="91.9" r="3" fill="#4e79a7"/><circle cx="277.8" cy="77.4" r="3" fill="#4e79a7"/><circle cx="291.9" cy="28.0" r="3" fill="#4e79a7"/><circle cx="306.0" cy="191.3" r="3" fill="#4e79a7"/><circle cx="320.2" cy="230.4" r="3" fill="#4e79a7"/><circle cx="334.3" cy="232.0" r="3" fill="#4e79a7"/><circle cx="348.4" cy="221.2" r="3" fill="#4e79a7"/><circle cx="362.5" cy="230.4" r="3" fill="#4e79a7"/><circle cx="376.6" cy="225.1" r="3" fill="#4e79a7"/><circle cx="390.7" cy="228.6" r="3" fill="#4e79a7"/><circle cx="404.8" cy="229.6" r="3" fill="#4e79a7"/><circle cx="418.9" cy="230.7" r="3" fill="#4e79a7"/><circle cx="433.1" cy="229.1" r="3" fill="#4e79a7"/><circle cx="447.2" cy="232.0" r="3" fill="#4e79a7"/><circle cx="461.3" cy="231.7" r="3" fill="#4e79a7"/><circle cx="475.4" cy="232.0" r="3" fill="#4e79a7"/><circle cx="489.5" cy="232.0" r="3" fill="#4e79a7"/><circle cx="503.6" cy="231.5" r="3" fill="#4e79a7"/><circle cx="517.7" cy="231.5" r="3" fill="#4e79a7"/><circle cx="531.8" cy="207.7" r="3" fill="#4e79a7"/><circle cx="546.0" cy="220.6" r="3" fill="#4e79a7"/><circle cx="560.1" cy="231.2" r="3" fill="#4e79a7"/><circle cx="574.2" cy="231.7" r="3" fill="#4e79a7"/><circle cx="588.3" cy="230.9" r="3" fill="#4e79a7"/><circle cx="602.4" cy="231.7" r="3" fill="#4e79a7"/><circle cx="616.5" cy="231.7" r="3" fill="#4e79a7"/><circle cx="630.6" cy="232.0" r="3" fill="#4e79a7"/><circle cx="644.8" cy="231.7" r="3" fill="#4e79a7"/><circle cx="658.9" cy="231.5" r="3" fill="#4e79a7"/><circle cx="673.0" cy="231.7" r="3" fill="#4e79a7"/><circle cx="687.1" cy="231.5" r="3" fill="#4e79a7"/><circle cx="701.2" cy="232.0" r="3" fill="#4e79a7"/><circle cx="715.3" cy="232.0" r="3" fill="#4e79a7"/><circle cx="729.4" cy="232.0" r="3" fill="#4e79a7"/><circle cx="743.5" cy="231.7" r="3" fill="#4e79a7"/><circle cx="757.7" cy="231.7" r="3" fill="#4e79a7"/><circle cx="771.8" cy="231.7" r="3" fill="#4e79a7"/><circle cx="785.9" cy="232.0" r="3" fill="#4e79a7"/><circle cx="800.0" cy="231.2" r="3" fill="#4e79a7"/>
  <circle cx="52.0" cy="232.0" r="3" fill="#f28e2b"/><circle cx="66.1" cy="232.0" r="3" fill="#f28e2b"/><circle cx="80.2" cy="232.0" r="3" fill="#f28e2b"/><circle cx="94.3" cy="232.0" r="3" fill="#f28e2b"/><circle cx="108.5" cy="232.0" r="3" fill="#f28e2b"/><circle cx="122.6" cy="232.0" r="3" fill="#f28e2b"/><circle cx="136.7" cy="232.0" r="3" fill="#f28e2b"/><circle cx="150.8" cy="232.0" r="3" fill="#f28e2b"/><circle cx="164.9" cy="232.0" r="3" fill="#f28e2b"/><circle cx="179.0" cy="232.0" r="3" fill="#f28e2b"/><circle cx="193.1" cy="232.0" r="3" fill="#f28e2b"/><circle cx="207.2" cy="232.0" r="3" fill="#f28e2b"/><circle cx="221.4" cy="232.0" r="3" fill="#f28e2b"/><circle cx="235.5" cy="191.0" r="3" fill="#f28e2b"/><circle cx="249.6" cy="188.9" r="3" fill="#f28e2b"/><circle cx="263.7" cy="193.9" r="3" fill="#f28e2b"/><circle cx="277.8" cy="189.2" r="3" fill="#f28e2b"/><circle cx="291.9" cy="168.8" r="3" fill="#f28e2b"/><circle cx="306.0" cy="215.1" r="3" fill="#f28e2b"/><circle cx="320.2" cy="230.7" r="3" fill="#f28e2b"/><circle cx="334.3" cy="232.0" r="3" fill="#f28e2b"/><circle cx="348.4" cy="229.6" r="3" fill="#f28e2b"/><circle cx="362.5" cy="230.7" r="3" fill="#f28e2b"/><circle cx="376.6" cy="230.7" r="3" fill="#f28e2b"/><circle cx="390.7" cy="230.9" r="3" fill="#f28e2b"/><circle cx="404.8" cy="231.2" r="3" fill="#f28e2b"/><circle cx="418.9" cy="231.5" r="3" fill="#f28e2b"/><circle cx="433.1" cy="231.2" r="3" fill="#f28e2b"/><circle cx="447.2" cy="232.0" r="3" fill="#f28e2b"/><circle cx="461.3" cy="231.7" r="3" fill="#f28e2b"/><circle cx="475.4" cy="232.0" r="3" fill="#f28e2b"/><circle cx="489.5" cy="232.0" r="3" fill="#f28e2b"/><circle cx="503.6" cy="231.5" r="3" fill="#f28e2b"/><circle cx="517.7" cy="231.5" r="3" fill="#f28e2b"/><circle cx="531.8" cy="222.2" r="3" fill="#f28e2b"/><circle cx="546.0" cy="226.2" r="3" fill="#f28e2b"/><circle cx="560.1" cy="231.2" r="3" fill="#f28e2b"/><circle cx="574.2" cy="231.7" r="3" fill="#f28e2b"/><circle cx="588.3" cy="230.9" r="3" fill="#f28e2b"/><circle cx="602.4" cy="231.7" r="3" fill="#f28e2b"/><circle cx="616.5" cy="231.7" r="3" fill="#f28e2b"/><circle cx="630.6" cy="232.0" r="3" fill="#f28e2b"/><circle cx="644.8" cy="231.7" r="3" fill="#f28e2b"/><circle cx="658.9" cy="231.5" r="3" fill="#f28e2b"/><circle cx="673.0" cy="231.7" r="3" fill="#f28e2b"/><circle cx="687.1" cy="231.5" r="3" fill="#f28e2b"/><circle cx="701.2" cy="232.0" r="3" fill="#f28e2b"/><circle cx="715.3" cy="232.0" r="3" fill="#f28e2b"/><circle cx="729.4" cy="232.0" r="3" fill="#f28e2b"/><circle cx="743.5" cy="231.7" r="3" fill="#f28e2b"/><circle cx="757.7" cy="231.7" r="3" fill="#f28e2b"/><circle cx="771.8" cy="231.7" r="3" fill="#f28e2b"/><circle cx="785.9" cy="232.0" r="3" fill="#f28e2b"/><circle cx="800.0" cy="231.2" r="3" fill="#f28e2b"/>

  <!-- axes -->
  <line x1="52" y1="28" x2="52" y2="232"
        stroke="#cccccc" stroke-width="1"/>
  <line x1="52" y1="232" x2="800" y2="232"
        stroke="#cccccc" stroke-width="1"/>

  <!-- y-axis labels -->
  <text x="47" y="236.0" text-anchor="end" font-size="10" fill="#57606a" font-family="ui-monospace, SFMono-Regular, 'SF Mono', Menlo, monospace">0</text><text x="47" y="183.2" text-anchor="end" font-size="10" fill="#57606a" font-family="ui-monospace, SFMono-Regular, 'SF Mono', Menlo, monospace">200</text><text x="47" y="130.3" text-anchor="end" font-size="10" fill="#57606a" font-family="ui-monospace, SFMono-Regular, 'SF Mono', Menlo, monospace">400</text><text x="47" y="77.5" text-anchor="end" font-size="10" fill="#57606a" font-family="ui-monospace, SFMono-Regular, 'SF Mono', Menlo, monospace">600</text><text x="47" y="24.6" text-anchor="end" font-size="10" fill="#57606a" font-family="ui-monospace, SFMono-Regular, 'SF Mono', Menlo, monospace">800</text>

  <!-- x-axis labels -->
  <text x="52.0" y="248" text-anchor="middle" font-size="10" fill="#8c959f" font-family="ui-monospace, SFMono-Regular, 'SF Mono', Menlo, monospace">05-30</text><text x="560.1" y="248" text-anchor="middle" font-size="10" fill="#8c959f" font-family="ui-monospace, SFMono-Regular, 'SF Mono', Menlo, monospace">07-05</text><text x="136.7" y="248" text-anchor="middle" font-size="10" fill="#8c959f" font-family="ui-monospace, SFMono-Regular, 'SF Mono', Menlo, monospace">06-05</text><text x="644.8" y="248" text-anchor="middle" font-size="10" fill="#8c959f" font-family="ui-monospace, SFMono-Regular, 'SF Mono', Menlo, monospace">07-11</text><text x="221.4" y="248" text-anchor="middle" font-size="10" fill="#8c959f" font-family="ui-monospace, SFMono-Regular, 'SF Mono', Menlo, monospace">06-11</text><text x="729.4" y="248" text-anchor="middle" font-size="10" fill="#8c959f" font-family="ui-monospace, SFMono-Regular, 'SF Mono', Menlo, monospace">07-17</text><text x="306.0" y="248" text-anchor="middle" font-size="10" fill="#8c959f" font-family="ui-monospace, SFMono-Regular, 'SF Mono', Menlo, monospace">06-17</text><text x="800.0" y="248" text-anchor="middle" font-size="10" fill="#8c959f" font-family="ui-monospace, SFMono-Regular, 'SF Mono', Menlo, monospace">07-22</text><text x="390.7" y="248" text-anchor="middle" font-size="10" fill="#8c959f" font-family="ui-monospace, SFMono-Regular, 'SF Mono', Menlo, monospace">06-23</text><text x="475.4" y="248" text-anchor="middle" font-size="10" fill="#8c959f" font-family="ui-monospace, SFMono-Regular, 'SF Mono', Menlo, monospace">06-29</text>

  <!-- legend -->
  <rect x="60" y="262" width="16" height="3" fill="#4e79a7" rx="1"/><text x="80" y="268" font-size="11" fill="#57606a" font-family="-apple-system, BlinkMacSystemFont, 'Segoe UI', sans-serif">Total clones (3,186)</text><line x1="230" y1="264" x2="246" y2="264" stroke="#f28e2b" stroke-width="2" stroke-dasharray="5,3"/><text x="250" y="268" font-size="11" fill="#57606a" font-family="-apple-system, BlinkMacSystemFont, 'Segoe UI', sans-serif">Unique cloners</text>

</svg>