<svg xmlns="http://www.w3.org/2000/svg" viewBox="0 0 820 280" width="820" height="280">

  <!-- title -->
  <text x="52" y="18" font-size="13" font-weight="600"
        fill="#24292f" font-family="-apple-system, BlinkMacSystemFont, 'Segoe UI', sans-serif"
        >Clone traffic — local-ai-lab</text>
  <text x="800" y="18" font-size="10" fill="#8c959f"
        font-family="ui-monospace, SFMono-Regular, 'SF Mono', Menlo, monospace" text-anchor="end">2026-07-05</text>

  <!-- grid -->
  <line x1="52" y1="232.0" x2="800" y2="232.0" stroke="#e8e8e8" stroke-width="1"/><line x1="52" y1="179.2" x2="800" y2="179.2" stroke="#e8e8e8" stroke-width="1"/><line x1="52" y1="126.3" x2="800" y2="126.3" stroke="#e8e8e8" stroke-width="1"/><line x1="52" y1="73.5" x2="800" y2="73.5" stroke="#e8e8e8" stroke-width="1"/><line x1="52" y1="20.6" x2="800" y2="20.6" stroke="#e8e8e8" stroke-width="1"/>

  <!-- area fill -->
  <path d="M52.0,232.0 L52.0,232.0 L73.4,232.0 L94.7,232.0 L116.1,232.0 L137.5,232.0 L158.9,232.0 L180.2,232.0 L201.6,232.0 L223.0,232.0 L244.3,232.0 L265.7,232.0 L287.1,232.0 L308.5,232.0 L329.8,118.1 L351.2,117.1 L372.6,91.9 L393.9,77.4 L415.3,28.0 L436.7,191.3 L458.1,230.4 L479.4,232.0 L500.8,221.2 L522.2,230.4 L543.5,225.1 L564.9,228.6 L586.3,229.6 L607.7,230.7 L629.0,229.1 L650.4,232.0 L671.8,231.7 L693.1,232.0 L714.5,232.0 L735.9,231.5 L757.3,231.5 L778.6,207.7 L800.0,220.6 L800.0,232.0 L52.0,232.0Z" fill="#4e79a7" opacity="0.12"/>

  <!-- lines -->
  <polyline points="52.0,232.0 73.4,232.0 94.7,232.0 116.1,232.0 137.5,232.0 158.9,232.0 180.2,232.0 201.6,232.0 223.0,232.0 244.3,232.0 265.7,232.0 287.1,232.0 308.5,232.0 329.8,118.1 351.2,117.1 372.6,91.9 393.9,77.4 415.3,28.0 436.7,191.3 458.1,230.4 479.4,232.0 500.8,221.2 522.2,230.4 543.5,225.1 564.9,228.6 586.3,229.6 607.7,230.7 629.0,229.1 650.4,232.0 671.8,231.7 693.1,232.0 714.5,232.0 735.9,231.5 757.3,231.5 778.6,207.7 800.0,220.6"
            fill="none" stroke="#4e79a7"
            stroke-width="2" stroke-linejoin="round"/>
  <polyline points="52.0,232.0 73.4,232.0 94.7,232.0 116.1,232.0 137.5,232.0 158.9,232.0 180.2,232.0 201.6,232.0 223.0,232.0 244.3,232.0 265.7,232.0 287.1,232.0 308.5,232.0 329.8,191.0 351.2,188.9 372.6,193.9 393.9,189.2 415.3,168.8 436.7,215.1 458.1,230.7 479.4,232.0 500.8,229.6 522.2,230.7 543.5,230.7 564.9,230.9 586.3,231.2 607.7,231.5 629.0,231.2 650.4,232.0 671.8,231.7 693.1,232.0 714.5,232.0 735.9,231.5 757.3,231.5 778.6,222.2 800.0,226.2"
            fill="none" stroke="#f28e2b"
            stroke-width="2" stroke-linejoin="round"
            stroke-dasharray="5,3"/>

  <!-- dots -->
  <circle cx="52.0" cy="232.0" r="3" fill="#4e79a7"/><circle cx="73.4" cy="232.0" r="3" fill="#4e79a7"/><circle cx="94.7" cy="232.0" r="3" fill="#4e79a7"/><circle cx="116.1" cy="232.0" r="3" fill="#4e79a7"/><circle cx="137.5" cy="232.0" r="3" fill="#4e79a7"/><circle cx="158.9" cy="232.0" r="3" fill="#4e79a7"/><circle cx="180.2" cy="232.0" r="3" fill="#4e79a7"/><circle cx="201.6" cy="232.0" r="3" fill="#4e79a7"/><circle cx="223.0" cy="232.0" r="3" fill="#4e79a7"/><circle cx="244.3" cy="232.0" r="3" fill="#4e79a7"/><circle cx="265.7" cy="232.0" r="3" fill="#4e79a7"/><circle cx="287.1" cy="232.0" r="3" fill="#4e79a7"/><circle cx="308.5" cy="232.0" r="3" fill="#4e79a7"/><circle cx="329.8" cy="118.1" r="3" fill="#4e79a7"/><circle cx="351.2" cy="117.1" r="3" fill="#4e79a7"/><circle cx="372.6" cy="91.9" r="3" fill="#4e79a7"/><circle cx="393.9" cy="77.4" r="3" fill="#4e79a7"/><circle cx="415.3" cy="28.0" r="3" fill="#4e79a7"/><circle cx="436.7" cy="191.3" r="3" fill="#4e79a7"/><circle cx="458.1" cy="230.4" r="3" fill="#4e79a7"/><circle cx="479.4" cy="232.0" r="3" fill="#4e79a7"/><circle cx="500.8" cy="221.2" r="3" fill="#4e79a7"/><circle cx="522.2" cy="230.4" r="3" fill="#4e79a7"/><circle cx="543.5" cy="225.1" r="3" fill="#4e79a7"/><circle cx="564.9" cy="228.6" r="3" fill="#4e79a7"/><circle cx="586.3" cy="229.6" r="3" fill="#4e79a7"/><circle cx="607.7" cy="230.7" r="3" fill="#4e79a7"/><circle cx="629.0" cy="229.1" r="3" fill="#4e79a7"/><circle cx="650.4" cy="232.0" r="3" fill="#4e79a7"/><circle cx="671.8" cy="231.7" r="3" fill="#4e79a7"/><circle cx="693.1" cy="232.0" r="3" fill="#4e79a7"/><circle cx="714.5" cy="232.0" r="3" fill="#4e79a7"/><circle cx="735.9" cy="231.5" r="3" fill="#4e79a7"/><circle cx="757.3" cy="231.5" r="3" fill="#4e79a7"/><circle cx="778.6" cy="207.7" r="3" fill="#4e79a7"/><circle cx="800.0" cy="220.6" r="3" fill="#4e79a7"/>
  <circle cx="52.0" cy="232.0" r="3" fill="#f28e2b"/><circle cx="73.4" cy="232.0" r="3" fill="#f28e2b"/><circle cx="94.7" cy="232.0" r="3" fill="#f28e2b"/><circle cx="116.1" cy="232.0" r="3" fill="#f28e2b"/><circle cx="137.5" cy="232.0" r="3" fill="#f28e2b"/><circle cx="158.9" cy="232.0" r="3" fill="#f28e2b"/><circle cx="180.2" cy="232.0" r="3" fill="#f28e2b"/><circle cx="201.6" cy="232.0" r="3" fill="#f28e2b"/><circle cx="223.0" cy="232.0" r="3" fill="#f28e2b"/><circle cx="244.3" cy="232.0" r="3" fill="#f28e2b"/><circle cx="265.7" cy="232.0" r="3" fill="#f28e2b"/><circle cx="287.1" cy="232.0" r="3" fill="#f28e2b"/><circle cx="308.5" cy="232.0" r="3" fill="#f28e2b"/><circle cx="329.8" cy="191.0" r="3" fill="#f28e2b"/><circle cx="351.2" cy="188.9" r="3" fill="#f28e2b"/><circle cx="372.6" cy="193.9" r="3" fill="#f28e2b"/><circle cx="393.9" cy="189.2" r="3" fill="#f28e2b"/><circle cx="415.3" cy="168.8" r="3" fill="#f28e2b"/><circle cx="436.7" cy="215.1" r="3" fill="#f28e2b"/><circle cx="458.1" cy="230.7" r="3" fill="#f28e2b"/><circle cx="479.4" cy="232.0" r="3" fill="#f28e2b"/><circle cx="500.8" cy="229.6" r="3" fill="#f28e2b"/><circle cx="522.2" cy="230.7" r="3" fill="#f28e2b"/><circle cx="543.5" cy="230.7" r="3" fill="#f28e2b"/><circle cx="564.9" cy="230.9" r="3" fill="#f28e2b"/><circle cx="586.3" cy="231.2" r="3" fill="#f28e2b"/><circle cx="607.7" cy="231.5" r="3" fill="#f28e2b"/><circle cx="629.0" cy="231.2" r="3" fill="#f28e2b"/><circle cx="650.4" cy="232.0" r="3" fill="#f28e2b"/><circle cx="671.8" cy="231.7" r="3" fill="#f28e2b"/><circle cx="693.1" cy="232.0" r="3" fill="#f28e2b"/><circle cx="714.5" cy="232.0" r="3" fill="#f28e2b"/><circle cx="735.9" cy="231.5" r="3" fill="#f28e2b"/><circle cx="757.3" cy="231.5" r="3" fill="#f28e2b"/><circle cx="778.6" cy="222.2" r="3" fill="#f28e2b"/><circle cx="800.0" cy="226.2" r="3" fill="#f28e2b"/>

  <!-- axes -->
  <line x1="52" y1="28" x2="52" y2="232"
        stroke="#cccccc" stroke-width="1"/>
  <line x1="52" y1="232" x2="800" y2="232"
        stroke="#cccccc" stroke-width="1"/>

  <!-- y-axis labels -->
  <text x="47" y="236.0" text-anchor="end" font-size="10" fill="#57606a" font-family="ui-monospace, SFMono-Regular, 'SF Mono', Menlo, monospace">0</text><text x="47" y="183.2" text-anchor="end" font-size="10" fill="#57606a" font-family="ui-monospace, SFMono-Regular, 'SF Mono', Menlo, monospace">200</text><text x="47" y="130.3" text-anchor="end" font-size="10" fill="#57606a" font-family="ui-monospace, SFMono-Regular, 'SF Mono', Menlo, monospace">400</text><text x="47" y="77.5" text-anchor="end" font-size="10" fill="#57606a" font-family="ui-monospace, SFMono-Regular, 'SF Mono', Menlo, monospace">600</text><text x="47" y="24.6" text-anchor="end" font-size="10" fill="#57606a" font-family="ui-monospace, SFMono-Regular, 'SF Mono', Menlo, monospace">800</text>

  <!-- x-axis labels -->
  <text x="52.0" y="248" text-anchor="middle" font-size="10" fill="#8c959f" font-family="ui-monospace, SFMono-Regular, 'SF Mono', Menlo, monospace">05-30</text><text x="735.9" y="248" text-anchor="middle" font-size="10" fill="#8c959f" font-family="ui-monospace, SFMono-Regular, 'SF Mono', Menlo, monospace">07-01</text><text x="800.0" y="248" text-anchor="middle" font-size="10" fill="#8c959f" font-family="ui-monospace, SFMono-Regular, 'SF Mono', Menlo, monospace">07-04</text><text x="137.5" y="248" text-anchor="middle" font-size="10" fill="#8c959f" font-family="ui-monospace, SFMono-Regular, 'SF Mono', Menlo, monospace">06-03</text><text x="223.0" y="248" text-anchor="middle" font-size="10" fill="#8c959f" font-family="ui-monospace, SFMono-Regular, 'SF Mono', Menlo, monospace">06-07</text><text x="308.5" y="248" text-anchor="middle" font-size="10" fill="#8c959f" font-family="ui-monospace, SFMono-Regular, 'SF Mono', Menlo, monospace">06-11</text><text x="393.9" y="248" text-anchor="middle" font-size="10" fill="#8c959f" font-family="ui-monospace, SFMono-Regular, 'SF Mono', Menlo, monospace">06-15</text><text x="479.4" y="248" text-anchor="middle" font-size="10" fill="#8c959f" font-family="ui-monospace, SFMono-Regular, 'SF Mono', Menlo, monospace">06-19</text><text x="564.9" y="248" text-anchor="middle" font-size="10" fill="#8c959f" font-family="ui-monospace, SFMono-Regular, 'SF Mono', Menlo, monospace">06-23</text><text x="650.4" y="248" text-anchor="middle" font-size="10" fill="#8c959f" font-family="ui-monospace, SFMono-Regular, 'SF Mono', Menlo, monospace">06-27</text>

  <!-- legend -->
  <rect x="60" y="262" width="16" height="3" fill="#4e79a7" rx="1"/><text x="80" y="268" font-size="11" fill="#57606a" font-family="-apple-system, BlinkMacSystemFont, 'Segoe UI', sans-serif">Total clones (3,164)</text><line x1="230" y1="264" x2="246" y2="264" stroke="#f28e2b" stroke-width="2" stroke-dasharray="5,3"/><text x="250" y="268" font-size="11" fill="#57606a" font-family="-apple-system, BlinkMacSystemFont, 'Segoe UI', sans-serif">Unique cloners</text>

</svg>