<svg xmlns="http://www.w3.org/2000/svg" viewBox="0 0 820 280" width="820" height="280">

  <!-- title -->
  <text x="52" y="18" font-size="13" font-weight="600"
        fill="#24292f" font-family="-apple-system, BlinkMacSystemFont, 'Segoe UI', sans-serif"
        >Clone traffic — local-ai-lab</text>
  <text x="800" y="18" font-size="10" fill="#8c959f"
        font-family="ui-monospace, SFMono-Regular, 'SF Mono', Menlo, monospace" text-anchor="end">2026-06-28</text>

  <!-- grid -->
  <line x1="52" y1="232.0" x2="800" y2="232.0" stroke="#e8e8e8" stroke-width="1"/><line x1="52" y1="179.2" x2="800" y2="179.2" stroke="#e8e8e8" stroke-width="1"/><line x1="52" y1="126.3" x2="800" y2="126.3" stroke="#e8e8e8" stroke-width="1"/><line x1="52" y1="73.5" x2="800" y2="73.5" stroke="#e8e8e8" stroke-width="1"/><line x1="52" y1="20.6" x2="800" y2="20.6" stroke="#e8e8e8" stroke-width="1"/>

  <!-- area fill -->
  <path d="M52.0,232.0 L52.0,232.0 L79.7,232.0 L107.4,232.0 L135.1,232.0 L162.8,232.0 L190.5,232.0 L218.2,232.0 L245.9,232.0 L273.6,232.0 L301.3,232.0 L329.0,232.0 L356.7,232.0 L384.4,232.0 L412.1,118.1 L439.9,117.1 L467.6,91.9 L495.3,77.4 L523.0,28.0 L550.7,191.3 L578.4,230.4 L606.1,232.0 L633.8,221.2 L661.5,230.4 L689.2,225.1 L716.9,228.6 L744.6,229.6 L772.3,230.7 L800.0,229.1 L800.0,232.0 L52.0,232.0Z" fill="#4e79a7" opacity="0.12"/>

  <!-- lines -->
  <polyline points="52.0,232.0 79.7,232.0 107.4,232.0 135.1,232.0 162.8,232.0 190.5,232.0 218.2,232.0 245.9,232.0 273.6,232.0 301.3,232.0 329.0,232.0 356.7,232.0 384.4,232.0 412.1,118.1 439.9,117.1 467.6,91.9 495.3,77.4 523.0,28.0 550.7,191.3 578.4,230.4 606.1,232.0 633.8,221.2 661.5,230.4 689.2,225.1 716.9,228.6 744.6,229.6 772.3,230.7 800.0,229.1"
            fill="none" stroke="#4e79a7"
            stroke-width="2" stroke-linejoin="round"/>
  <polyline points="52.0,232.0 79.7,232.0 107.4,232.0 135.1,232.0 162.8,232.0 190.5,232.0 218.2,232.0 245.9,232.0 273.6,232.0 301.3,232.0 329.0,232.0 356.7,232.0 384.4,232.0 412.1,191.0 439.9,188.9 467.6,193.9 495.3,189.2 523.0,168.8 550.7,215.1 578.4,230.7 606.1,232.0 633.8,229.6 661.5,230.7 689.2,230.7 716.9,230.9 744.6,231.2 772.3,231.5 800.0,231.2"
            fill="none" stroke="#f28e2b"
            stroke-width="2" stroke-linejoin="round"
            stroke-dasharray="5,3"/>

  <!-- dots -->
  <circle cx="52.0" cy="232.0" r="3" fill="#4e79a7"/><circle cx="79.7" cy="232.0" r="3" fill="#4e79a7"/><circle cx="107.4" cy="232.0" r="3" fill="#4e79a7"/><circle cx="135.1" cy="232.0" r="3" fill="#4e79a7"/><circle cx="162.8" cy="232.0" r="3" fill="#4e79a7"/><circle cx="190.5" cy="232.0" r="3" fill="#4e79a7"/><circle cx="218.2" cy="232.0" r="3" fill="#4e79a7"/><circle cx="245.9" cy="232.0" r="3" fill="#4e79a7"/><circle cx="273.6" cy="232.0" r="3" fill="#4e79a7"/><circle cx="301.3" cy="232.0" r="3" fill="#4e79a7"/><circle cx="329.0" cy="232.0" r="3" fill="#4e79a7"/><circle cx="356.7" cy="232.0" r="3" fill="#4e79a7"/><circle cx="384.4" cy="232.0" r="3" fill="#4e79a7"/><circle cx="412.1" cy="118.1" r="3" fill="#4e79a7"/><circle cx="439.9" cy="117.1" r="3" fill="#4e79a7"/><circle cx="467.6" cy="91.9" r="3" fill="#4e79a7"/><circle cx="495.3" cy="77.4" r="3" fill="#4e79a7"/><circle cx="523.0" cy="28.0" r="3" fill="#4e79a7"/><circle cx="550.7" cy="191.3" r="3" fill="#4e79a7"/><circle cx="578.4" cy="230.4" r="3" fill="#4e79a7"/><circle cx="606.1" cy="232.0" r="3" fill="#4e79a7"/><circle cx="633.8" cy="221.2" r="3" fill="#4e79a7"/><circle cx="661.5" cy="230.4" r="3" fill="#4e79a7"/><circle cx="689.2" cy="225.1" r="3" fill="#4e79a7"/><circle cx="716.9" cy="228.6" r="3" fill="#4e79a7"/><circle cx="744.6" cy="229.6" r="3" fill="#4e79a7"/><circle cx="772.3" cy="230.7" r="3" fill="#4e79a7"/><circle cx="800.0" cy="229.1" r="3" fill="#4e79a7"/>
  <circle cx="52.0" cy="232.0" r="3" fill="#f28e2b"/><circle cx="79.7" cy="232.0" r="3" fill="#f28e2b"/><circle cx="107.4" cy="232.0" r="3" fill="#f28e2b"/><circle cx="135.1" cy="232.0" r="3" fill="#f28e2b"/><circle cx="162.8" cy="232.0" r="3" fill="#f28e2b"/><circle cx="190.5" cy="232.0" r="3" fill="#f28e2b"/><circle cx="218.2" cy="232.0" r="3" fill="#f28e2b"/><circle cx="245.9" cy="232.0" r="3" fill="#f28e2b"/><circle cx="273.6" cy="232.0" r="3" fill="#f28e2b"/><circle cx="301.3" cy="232.0" r="3" fill="#f28e2b"/><circle cx="329.0" cy="232.0" r="3" fill="#f28e2b"/><circle cx="356.7" cy="232.0" r="3" fill="#f28e2b"/><circle cx="384.4" cy="232.0" r="3" fill="#f28e2b"/><circle cx="412.1" cy="191.0" r="3" fill="#f28e2b"/><circle cx="439.9" cy="188.9" r="3" fill="#f28e2b"/><circle cx="467.6" cy="193.9" r="3" fill="#f28e2b"/><circle cx="495.3" cy="189.2" r="3" fill="#f28e2b"/><circle cx="523.0" cy="168.8" r="3" fill="#f28e2b"/><circle cx="550.7" cy="215.1" r="3" fill="#f28e2b"/><circle cx="578.4" cy="230.7" r="3" fill="#f28e2b"/><circle cx="606.1" cy="232.0" r="3" fill="#f28e2b"/><circle cx="633.8" cy="229.6" r="3" fill="#f28e2b"/><circle cx="661.5" cy="230.7" r="3" fill="#f28e2b"/><circle cx="689.2" cy="230.7" r="3" fill="#f28e2b"/><circle cx="716.9" cy="230.9" r="3" fill="#f28e2b"/><circle cx="744.6" cy="231.2" r="3" fill="#f28e2b"/><circle cx="772.3" cy="231.5" r="3" fill="#f28e2b"/><circle cx="800.0" cy="231.2" r="3" fill="#f28e2b"/>

  <!-- axes -->
  <line x1="52" y1="28" x2="52" y2="232"
        stroke="#cccccc" stroke-width="1"/>
  <line x1="52" y1="232" x2="800" y2="232"
        stroke="#cccccc" stroke-width="1"/>

  <!-- y-axis labels -->
  <text x="47" y="236.0" text-anchor="end" font-size="10" fill="#57606a" font-family="ui-monospace, SFMono-Regular, 'SF Mono', Menlo, monospace">0</text><text x="47" y="183.2" text-anchor="end" font-size="10" fill="#57606a" font-family="ui-monospace, SFMono-Regular, 'SF Mono', Menlo, monospace">200</text><text x="47" y="130.3" text-anchor="end" font-size="10" fill="#57606a" font-family="ui-monospace, SFMono-Regular, 'SF Mono', Menlo, monospace">400</text><text x="47" y="77.5" text-anchor="end" font-size="10" fill="#57606a" font-family="ui-monospace, SFMono-Regular, 'SF Mono', Menlo, monospace">600</text><text x="47" y="24.6" text-anchor="end" font-size="10" fill="#57606a" font-family="ui-monospace, SFMono-Regular, 'SF Mono', Menlo, monospace">800</text>

  <!-- x-axis labels -->
  <text x="52.0" y="248" text-anchor="middle" font-size="10" fill="#8c959f" font-family="ui-monospace, SFMono-Regular, 'SF Mono', Menlo, monospace">05-30</text><text x="135.1" y="248" text-anchor="middle" font-size="10" fill="#8c959f" font-family="ui-monospace, SFMono-Regular, 'SF Mono', Menlo, monospace">06-02</text><text x="218.2" y="248" text-anchor="middle" font-size="10" fill="#8c959f" font-family="ui-monospace, SFMono-Regular, 'SF Mono', Menlo, monospace">06-05</text><text x="301.3" y="248" text-anchor="middle" font-size="10" fill="#8c959f" font-family="ui-monospace, SFMono-Regular, 'SF Mono', Menlo, monospace">06-08</text><text x="384.4" y="248" text-anchor="middle" font-size="10" fill="#8c959f" font-family="ui-monospace, SFMono-Regular, 'SF Mono', Menlo, monospace">06-11</text><text x="467.6" y="248" text-anchor="middle" font-size="10" fill="#8c959f" font-family="ui-monospace, SFMono-Regular, 'SF Mono', Menlo, monospace">06-14</text><text x="550.7" y="248" text-anchor="middle" font-size="10" fill="#8c959f" font-family="ui-monospace, SFMono-Regular, 'SF Mono', Menlo, monospace">06-17</text><text x="633.8" y="248" text-anchor="middle" font-size="10" fill="#8c959f" font-family="ui-monospace, SFMono-Regular, 'SF Mono', Menlo, monospace">06-20</text><text x="716.9" y="248" text-anchor="middle" font-size="10" fill="#8c959f" font-family="ui-monospace, SFMono-Regular, 'SF Mono', Menlo, monospace">06-23</text><text x="800.0" y="248" text-anchor="middle" font-size="10" fill="#8c959f" font-family="ui-monospace, SFMono-Regular, 'SF Mono', Menlo, monospace">06-26</text>

  <!-- legend -->
  <rect x="60" y="262" width="16" height="3" fill="#4e79a7" rx="1"/><text x="80" y="268" font-size="11" fill="#57606a" font-family="-apple-system, BlinkMacSystemFont, 'Segoe UI', sans-serif">Total clones (3,024)</text><line x1="230" y1="264" x2="246" y2="264" stroke="#f28e2b" stroke-width="2" stroke-dasharray="5,3"/><text x="250" y="268" font-size="11" fill="#57606a" font-family="-apple-system, BlinkMacSystemFont, 'Segoe UI', sans-serif">Unique cloners</text>

</svg>