<svg xmlns="http://www.w3.org/2000/svg" viewBox="0 0 820 280" width="820" height="280">

  <!-- title -->
  <text x="52" y="18" font-size="13" font-weight="600"
        fill="#24292f" font-family="-apple-system, BlinkMacSystemFont, 'Segoe UI', sans-serif"
        >Clone traffic — local-ai-lab</text>
  <text x="800" y="18" font-size="10" fill="#8c959f"
        font-family="ui-monospace, SFMono-Regular, 'SF Mono', Menlo, monospace" text-anchor="end">2026-07-10</text>

  <!-- grid -->
  <line x1="52" y1="232.0" x2="800" y2="232.0" stroke="#e8e8e8" stroke-width="1"/><line x1="52" y1="179.2" x2="800" y2="179.2" stroke="#e8e8e8" stroke-width="1"/><line x1="52" y1="126.3" x2="800" y2="126.3" stroke="#e8e8e8" stroke-width="1"/><line x1="52" y1="73.5" x2="800" y2="73.5" stroke="#e8e8e8" stroke-width="1"/><line x1="52" y1="20.6" x2="800" y2="20.6" stroke="#e8e8e8" stroke-width="1"/>

  <!-- area fill -->
  <path d="M52.0,232.0 L52.0,232.0 L71.2,232.0 L90.4,232.0 L109.5,232.0 L128.7,232.0 L147.9,232.0 L167.1,232.0 L186.3,232.0 L205.4,232.0 L224.6,232.0 L243.8,232.0 L263.0,232.0 L282.2,232.0 L301.3,118.1 L320.5,117.1 L339.7,91.9 L358.9,77.4 L378.1,28.0 L397.2,191.3 L416.4,230.4 L435.6,232.0 L454.8,221.2 L473.9,230.4 L493.1,225.1 L512.3,228.6 L531.5,229.6 L550.7,230.7 L569.8,229.1 L589.0,232.0 L608.2,231.7 L627.4,232.0 L646.6,232.0 L665.7,231.5 L684.9,231.5 L704.1,207.7 L723.3,220.6 L742.5,231.2 L761.6,231.7 L780.8,230.9 L800.0,231.7 L800.0,232.0 L52.0,232.0Z" fill="#4e79a7" opacity="0.12"/>

  <!-- lines -->
  <polyline points="52.0,232.0 71.2,232.0 90.4,232.0 109.5,232.0 128.7,232.0 147.9,232.0 167.1,232.0 186.3,232.0 205.4,232.0 224.6,232.0 243.8,232.0 263.0,232.0 282.2,232.0 301.3,118.1 320.5,117.1 339.7,91.9 358.9,77.4 378.1,28.0 397.2,191.3 416.4,230.4 435.6,232.0 454.8,221.2 473.9,230.4 493.1,225.1 512.3,228.6 531.5,229.6 550.7,230.7 569.8,229.1 589.0,232.0 608.2,231.7 627.4,232.0 646.6,232.0 665.7,231.5 684.9,231.5 704.1,207.7 723.3,220.6 742.5,231.2 761.6,231.7 780.8,230.9 800.0,231.7"
            fill="none" stroke="#4e79a7"
            stroke-width="2" stroke-linejoin="round"/>
  <polyline points="52.0,232.0 71.2,232.0 90.4,232.0 109.5,232.0 128.7,232.0 147.9,232.0 167.1,232.0 186.3,232.0 205.4,232.0 224.6,232.0 243.8,232.0 263.0,232.0 282.2,232.0 301.3,191.0 320.5,188.9 339.7,193.9 358.9,189.2 378.1,168.8 397.2,215.1 416.4,230.7 435.6,232.0 454.8,229.6 473.9,230.7 493.1,230.7 512.3,230.9 531.5,231.2 550.7,231.5 569.8,231.2 589.0,232.0 608.2,231.7 627.4,232.0 646.6,232.0 665.7,231.5 684.9,231.5 704.1,222.2 723.3,226.2 742.5,231.2 761.6,231.7 780.8,230.9 800.0,231.7"
            fill="none" stroke="#f28e2b"
            stroke-width="2" stroke-linejoin="round"
            stroke-dasharray="5,3"/>

  <!-- dots -->
  <circle cx="52.0" cy="232.0" r="3" fill="#4e79a7"/><circle cx="71.2" cy="232.0" r="3" fill="#4e79a7"/><circle cx="90.4" cy="232.0" r="3" fill="#4e79a7"/><circle cx="109.5" cy="232.0" r="3" fill="#4e79a7"/><circle cx="128.7" cy="232.0" r="3" fill="#4e79a7"/><circle cx="147.9" cy="232.0" r="3" fill="#4e79a7"/><circle cx="167.1" cy="232.0" r="3" fill="#4e79a7"/><circle cx="186.3" cy="232.0" r="3" fill="#4e79a7"/><circle cx="205.4" cy="232.0" r="3" fill="#4e79a7"/><circle cx="224.6" cy="232.0" r="3" fill="#4e79a7"/><circle cx="243.8" cy="232.0" r="3" fill="#4e79a7"/><circle cx="263.0" cy="232.0" r="3" fill="#4e79a7"/><circle cx="282.2" cy="232.0" r="3" fill="#4e79a7"/><circle cx="301.3" cy="118.1" r="3" fill="#4e79a7"/><circle cx="320.5" cy="117.1" r="3" fill="#4e79a7"/><circle cx="339.7" cy="91.9" r="3" fill="#4e79a7"/><circle cx="358.9" cy="77.4" r="3" fill="#4e79a7"/><circle cx="378.1" cy="28.0" r="3" fill="#4e79a7"/><circle cx="397.2" cy="191.3" r="3" fill="#4e79a7"/><circle cx="416.4" cy="230.4" r="3" fill="#4e79a7"/><circle cx="435.6" cy="232.0" r="3" fill="#4e79a7"/><circle cx="454.8" cy="221.2" r="3" fill="#4e79a7"/><circle cx="473.9" cy="230.4" r="3" fill="#4e79a7"/><circle cx="493.1" cy="225.1" r="3" fill="#4e79a7"/><circle cx="512.3" cy="228.6" r="3" fill="#4e79a7"/><circle cx="531.5" cy="229.6" r="3" fill="#4e79a7"/><circle cx="550.7" cy="230.7" r="3" fill="#4e79a7"/><circle cx="569.8" cy="229.1" r="3" fill="#4e79a7"/><circle cx="589.0" cy="232.0" r="3" fill="#4e79a7"/><circle cx="608.2" cy="231.7" r="3" fill="#4e79a7"/><circle cx="627.4" cy="232.0" r="3" fill="#4e79a7"/><circle cx="646.6" cy="232.0" r="3" fill="#4e79a7"/><circle cx="665.7" cy="231.5" r="3" fill="#4e79a7"/><circle cx="684.9" cy="231.5" r="3" fill="#4e79a7"/><circle cx="704.1" cy="207.7" r="3" fill="#4e79a7"/><circle cx="723.3" cy="220.6" r="3" fill="#4e79a7"/><circle cx="742.5" cy="231.2" r="3" fill="#4e79a7"/><circle cx="761.6" cy="231.7" r="3" fill="#4e79a7"/><circle cx="780.8" cy="230.9" r="3" fill="#4e79a7"/><circle cx="800.0" cy="231.7" r="3" fill="#4e79a7"/>
  <circle cx="52.0" cy="232.0" r="3" fill="#f28e2b"/><circle cx="71.2" cy="232.0" r="3" fill="#f28e2b"/><circle cx="90.4" cy="232.0" r="3" fill="#f28e2b"/><circle cx="109.5" cy="232.0" r="3" fill="#f28e2b"/><circle cx="128.7" cy="232.0" r="3" fill="#f28e2b"/><circle cx="147.9" cy="232.0" r="3" fill="#f28e2b"/><circle cx="167.1" cy="232.0" r="3" fill="#f28e2b"/><circle cx="186.3" cy="232.0" r="3" fill="#f28e2b"/><circle cx="205.4" cy="232.0" r="3" fill="#f28e2b"/><circle cx="224.6" cy="232.0" r="3" fill="#f28e2b"/><circle cx="243.8" cy="232.0" r="3" fill="#f28e2b"/><circle cx="263.0" cy="232.0" r="3" fill="#f28e2b"/><circle cx="282.2" cy="232.0" r="3" fill="#f28e2b"/><circle cx="301.3" cy="191.0" r="3" fill="#f28e2b"/><circle cx="320.5" cy="188.9" r="3" fill="#f28e2b"/><circle cx="339.7" cy="193.9" r="3" fill="#f28e2b"/><circle cx="358.9" cy="189.2" r="3" fill="#f28e2b"/><circle cx="378.1" cy="168.8" r="3" fill="#f28e2b"/><circle cx="397.2" cy="215.1" r="3" fill="#f28e2b"/><circle cx="416.4" cy="230.7" r="3" fill="#f28e2b"/><circle cx="435.6" cy="232.0" r="3" fill="#f28e2b"/><circle cx="454.8" cy="229.6" r="3" fill="#f28e2b"/><circle cx="473.9" cy="230.7" r="3" fill="#f28e2b"/><circle cx="493.1" cy="230.7" r="3" fill="#f28e2b"/><circle cx="512.3" cy="230.9" r="3" fill="#f28e2b"/><circle cx="531.5" cy="231.2" r="3" fill="#f28e2b"/><circle cx="550.7" cy="231.5" r="3" fill="#f28e2b"/><circle cx="569.8" cy="231.2" r="3" fill="#f28e2b"/><circle cx="589.0" cy="232.0" r="3" fill="#f28e2b"/><circle cx="608.2" cy="231.7" r="3" fill="#f28e2b"/><circle cx="627.4" cy="232.0" r="3" fill="#f28e2b"/><circle cx="646.6" cy="232.0" r="3" fill="#f28e2b"/><circle cx="665.7" cy="231.5" r="3" fill="#f28e2b"/><circle cx="684.9" cy="231.5" r="3" fill="#f28e2b"/><circle cx="704.1" cy="222.2" r="3" fill="#f28e2b"/><circle cx="723.3" cy="226.2" r="3" fill="#f28e2b"/><circle cx="742.5" cy="231.2" r="3" fill="#f28e2b"/><circle cx="761.6" cy="231.7" r="3" fill="#f28e2b"/><circle cx="780.8" cy="230.9" r="3" fill="#f28e2b"/><circle cx="800.0" cy="231.7" r="3" fill="#f28e2b"/>

  <!-- axes -->
  <line x1="52" y1="28" x2="52" y2="232"
        stroke="#cccccc" stroke-width="1"/>
  <line x1="52" y1="232" x2="800" y2="232"
        stroke="#cccccc" stroke-width="1"/>

  <!-- y-axis labels -->
  <text x="47" y="236.0" text-anchor="end" font-size="10" fill="#57606a" font-family="ui-monospace, SFMono-Regular, 'SF Mono', Menlo, monospace">0</text><text x="47" y="183.2" text-anchor="end" font-size="10" fill="#57606a" font-family="ui-monospace, SFMono-Regular, 'SF Mono', Menlo, monospace">200</text><text x="47" y="130.3" text-anchor="end" font-size="10" fill="#57606a" font-family="ui-monospace, SFMono-Regular, 'SF Mono', Menlo, monospace">400</text><text x="47" y="77.5" text-anchor="end" font-size="10" fill="#57606a" font-family="ui-monospace, SFMono-Regular, 'SF Mono', Menlo, monospace">600</text><text x="47" y="24.6" text-anchor="end" font-size="10" fill="#57606a" font-family="ui-monospace, SFMono-Regular, 'SF Mono', Menlo, monospace">800</text>

  <!-- x-axis labels -->
  <text x="52.0" y="248" text-anchor="middle" font-size="10" fill="#8c959f" font-family="ui-monospace, SFMono-Regular, 'SF Mono', Menlo, monospace">05-30</text><text x="723.3" y="248" text-anchor="middle" font-size="10" fill="#8c959f" font-family="ui-monospace, SFMono-Regular, 'SF Mono', Menlo, monospace">07-04</text><text x="147.9" y="248" text-anchor="middle" font-size="10" fill="#8c959f" font-family="ui-monospace, SFMono-Regular, 'SF Mono', Menlo, monospace">06-04</text><text x="800.0" y="248" text-anchor="middle" font-size="10" fill="#8c959f" font-family="ui-monospace, SFMono-Regular, 'SF Mono', Menlo, monospace">07-08</text><text x="243.8" y="248" text-anchor="middle" font-size="10" fill="#8c959f" font-family="ui-monospace, SFMono-Regular, 'SF Mono', Menlo, monospace">06-09</text><text x="339.7" y="248" text-anchor="middle" font-size="10" fill="#8c959f" font-family="ui-monospace, SFMono-Regular, 'SF Mono', Menlo, monospace">06-14</text><text x="435.6" y="248" text-anchor="middle" font-size="10" fill="#8c959f" font-family="ui-monospace, SFMono-Regular, 'SF Mono', Menlo, monospace">06-19</text><text x="531.5" y="248" text-anchor="middle" font-size="10" fill="#8c959f" font-family="ui-monospace, SFMono-Regular, 'SF Mono', Menlo, monospace">06-24</text><text x="627.4" y="248" text-anchor="middle" font-size="10" fill="#8c959f" font-family="ui-monospace, SFMono-Regular, 'SF Mono', Menlo, monospace">06-29</text>

  <!-- legend -->
  <rect x="60" y="262" width="16" height="3" fill="#4e79a7" rx="1"/><text x="80" y="268" font-size="11" fill="#57606a" font-family="-apple-system, BlinkMacSystemFont, 'Segoe UI', sans-serif">Total clones (3,173)</text><line x1="230" y1="264" x2="246" y2="264" stroke="#f28e2b" stroke-width="2" stroke-dasharray="5,3"/><text x="250" y="268" font-size="11" fill="#57606a" font-family="-apple-system, BlinkMacSystemFont, 'Segoe UI', sans-serif">Unique cloners</text>

</svg>