<svg xmlns="http://www.w3.org/2000/svg" viewBox="0 0 820 280" width="820" height="280">

  <!-- title -->
  <text x="52" y="18" font-size="13" font-weight="600"
        fill="#24292f" font-family="-apple-system, BlinkMacSystemFont, 'Segoe UI', sans-serif"
        >Clone traffic — local-ai-lab</text>
  <text x="800" y="18" font-size="10" fill="#8c959f"
        font-family="ui-monospace, SFMono-Regular, 'SF Mono', Menlo, monospace" text-anchor="end">2026-07-16</text>

  <!-- grid -->
  <line x1="52" y1="232.0" x2="800" y2="232.0" stroke="#e8e8e8" stroke-width="1"/><line x1="52" y1="179.2" x2="800" y2="179.2" stroke="#e8e8e8" stroke-width="1"/><line x1="52" y1="126.3" x2="800" y2="126.3" stroke="#e8e8e8" stroke-width="1"/><line x1="52" y1="73.5" x2="800" y2="73.5" stroke="#e8e8e8" stroke-width="1"/><line x1="52" y1="20.6" x2="800" y2="20.6" stroke="#e8e8e8" stroke-width="1"/>

  <!-- area fill -->
  <path d="M52.0,232.0 L52.0,232.0 L68.6,232.0 L85.2,232.0 L101.9,232.0 L118.5,232.0 L135.1,232.0 L151.7,232.0 L168.4,232.0 L185.0,232.0 L201.6,232.0 L218.2,232.0 L234.8,232.0 L251.5,232.0 L268.1,118.1 L284.7,117.1 L301.3,91.9 L318.0,77.4 L334.6,28.0 L351.2,191.3 L367.8,230.4 L384.4,232.0 L401.1,221.2 L417.7,230.4 L434.3,225.1 L450.9,228.6 L467.6,229.6 L484.2,230.7 L500.8,229.1 L517.4,232.0 L534.0,231.7 L550.7,232.0 L567.3,232.0 L583.9,231.5 L600.5,231.5 L617.2,207.7 L633.8,220.6 L650.4,231.2 L667.0,231.7 L683.6,230.9 L700.3,231.7 L716.9,231.7 L733.5,232.0 L750.1,231.7 L766.8,231.5 L783.4,231.7 L800.0,231.5 L800.0,232.0 L52.0,232.0Z" fill="#4e79a7" opacity="0.12"/>

  <!-- lines -->
  <polyline points="52.0,232.0 68.6,232.0 85.2,232.0 101.9,232.0 118.5,232.0 135.1,232.0 151.7,232.0 168.4,232.0 185.0,232.0 201.6,232.0 218.2,232.0 234.8,232.0 251.5,232.0 268.1,118.1 284.7,117.1 301.3,91.9 318.0,77.4 334.6,28.0 351.2,191.3 367.8,230.4 384.4,232.0 401.1,221.2 417.7,230.4 434.3,225.1 450.9,228.6 467.6,229.6 484.2,230.7 500.8,229.1 517.4,232.0 534.0,231.7 550.7,232.0 567.3,232.0 583.9,231.5 600.5,231.5 617.2,207.7 633.8,220.6 650.4,231.2 667.0,231.7 683.6,230.9 700.3,231.7 716.9,231.7 733.5,232.0 750.1,231.7 766.8,231.5 783.4,231.7 800.0,231.5"
            fill="none" stroke="#4e79a7"
            stroke-width="2" stroke-linejoin="round"/>
  <polyline points="52.0,232.0 68.6,232.0 85.2,232.0 101.9,232.0 118.5,232.0 135.1,232.0 151.7,232.0 168.4,232.0 185.0,232.0 201.6,232.0 218.2,232.0 234.8,232.0 251.5,232.0 268.1,191.0 284.7,188.9 301.3,193.9 318.0,189.2 334.6,168.8 351.2,215.1 367.8,230.7 384.4,232.0 401.1,229.6 417.7,230.7 434.3,230.7 450.9,230.9 467.6,231.2 484.2,231.5 500.8,231.2 517.4,232.0 534.0,231.7 550.7,232.0 567.3,232.0 583.9,231.5 600.5,231.5 617.2,222.2 633.8,226.2 650.4,231.2 667.0,231.7 683.6,230.9 700.3,231.7 716.9,231.7 733.5,232.0 750.1,231.7 766.8,231.5 783.4,231.7 800.0,231.5"
            fill="none" stroke="#f28e2b"
            stroke-width="2" stroke-linejoin="round"
            stroke-dasharray="5,3"/>

  <!-- dots -->
  <circle cx="52.0" cy="232.0" r="3" fill="#4e79a7"/><circle cx="68.6" cy="232.0" r="3" fill="#4e79a7"/><circle cx="85.2" cy="232.0" r="3" fill="#4e79a7"/><circle cx="101.9" cy="232.0" r="3" fill="#4e79a7"/><circle cx="118.5" cy="232.0" r="3" fill="#4e79a7"/><circle cx="135.1" cy="232.0" r="3" fill="#4e79a7"/><circle cx="151.7" cy="232.0" r="3" fill="#4e79a7"/><circle cx="168.4" cy="232.0" r="3" fill="#4e79a7"/><circle cx="185.0" cy="232.0" r="3" fill="#4e79a7"/><circle cx="201.6" cy="232.0" r="3" fill="#4e79a7"/><circle cx="218.2" cy="232.0" r="3" fill="#4e79a7"/><circle cx="234.8" cy="232.0" r="3" fill="#4e79a7"/><circle cx="251.5" cy="232.0" r="3" fill="#4e79a7"/><circle cx="268.1" cy="118.1" r="3" fill="#4e79a7"/><circle cx="284.7" cy="117.1" r="3" fill="#4e79a7"/><circle cx="301.3" cy="91.9" r="3" fill="#4e79a7"/><circle cx="318.0" cy="77.4" r="3" fill="#4e79a7"/><circle cx="334.6" cy="28.0" r="3" fill="#4e79a7"/><circle cx="351.2" cy="191.3" r="3" fill="#4e79a7"/><circle cx="367.8" cy="230.4" r="3" fill="#4e79a7"/><circle cx="384.4" cy="232.0" r="3" fill="#4e79a7"/><circle cx="401.1" cy="221.2" r="3" fill="#4e79a7"/><circle cx="417.7" cy="230.4" r="3" fill="#4e79a7"/><circle cx="434.3" cy="225.1" r="3" fill="#4e79a7"/><circle cx="450.9" cy="228.6" r="3" fill="#4e79a7"/><circle cx="467.6" cy="229.6" r="3" fill="#4e79a7"/><circle cx="484.2" cy="230.7" r="3" fill="#4e79a7"/><circle cx="500.8" cy="229.1" r="3" fill="#4e79a7"/><circle cx="517.4" cy="232.0" r="3" fill="#4e79a7"/><circle cx="534.0" cy="231.7" r="3" fill="#4e79a7"/><circle cx="550.7" cy="232.0" r="3" fill="#4e79a7"/><circle cx="567.3" cy="232.0" r="3" fill="#4e79a7"/><circle cx="583.9" cy="231.5" r="3" fill="#4e79a7"/><circle cx="600.5" cy="231.5" r="3" fill="#4e79a7"/><circle cx="617.2" cy="207.7" r="3" fill="#4e79a7"/><circle cx="633.8" cy="220.6" r="3" fill="#4e79a7"/><circle cx="650.4" cy="231.2" r="3" fill="#4e79a7"/><circle cx="667.0" cy="231.7" r="3" fill="#4e79a7"/><circle cx="683.6" cy="230.9" r="3" fill="#4e79a7"/><circle cx="700.3" cy="231.7" r="3" fill="#4e79a7"/><circle cx="716.9" cy="231.7" r="3" fill="#4e79a7"/><circle cx="733.5" cy="232.0" r="3" fill="#4e79a7"/><circle cx="750.1" cy="231.7" r="3" fill="#4e79a7"/><circle cx="766.8" cy="231.5" r="3" fill="#4e79a7"/><circle cx="783.4" cy="231.7" r="3" fill="#4e79a7"/><circle cx="800.0" cy="231.5" r="3" fill="#4e79a7"/>
  <circle cx="52.0" cy="232.0" r="3" fill="#f28e2b"/><circle cx="68.6" cy="232.0" r="3" fill="#f28e2b"/><circle cx="85.2" cy="232.0" r="3" fill="#f28e2b"/><circle cx="101.9" cy="232.0" r="3" fill="#f28e2b"/><circle cx="118.5" cy="232.0" r="3" fill="#f28e2b"/><circle cx="135.1" cy="232.0" r="3" fill="#f28e2b"/><circle cx="151.7" cy="232.0" r="3" fill="#f28e2b"/><circle cx="168.4" cy="232.0" r="3" fill="#f28e2b"/><circle cx="185.0" cy="232.0" r="3" fill="#f28e2b"/><circle cx="201.6" cy="232.0" r="3" fill="#f28e2b"/><circle cx="218.2" cy="232.0" r="3" fill="#f28e2b"/><circle cx="234.8" cy="232.0" r="3" fill="#f28e2b"/><circle cx="251.5" cy="232.0" r="3" fill="#f28e2b"/><circle cx="268.1" cy="191.0" r="3" fill="#f28e2b"/><circle cx="284.7" cy="188.9" r="3" fill="#f28e2b"/><circle cx="301.3" cy="193.9" r="3" fill="#f28e2b"/><circle cx="318.0" cy="189.2" r="3" fill="#f28e2b"/><circle cx="334.6" cy="168.8" r="3" fill="#f28e2b"/><circle cx="351.2" cy="215.1" r="3" fill="#f28e2b"/><circle cx="367.8" cy="230.7" r="3" fill="#f28e2b"/><circle cx="384.4" cy="232.0" r="3" fill="#f28e2b"/><circle cx="401.1" cy="229.6" r="3" fill="#f28e2b"/><circle cx="417.7" cy="230.7" r="3" fill="#f28e2b"/><circle cx="434.3" cy="230.7" r="3" fill="#f28e2b"/><circle cx="450.9" cy="230.9" r="3" fill="#f28e2b"/><circle cx="467.6" cy="231.2" r="3" fill="#f28e2b"/><circle cx="484.2" cy="231.5" r="3" fill="#f28e2b"/><circle cx="500.8" cy="231.2" r="3" fill="#f28e2b"/><circle cx="517.4" cy="232.0" r="3" fill="#f28e2b"/><circle cx="534.0" cy="231.7" r="3" fill="#f28e2b"/><circle cx="550.7" cy="232.0" r="3" fill="#f28e2b"/><circle cx="567.3" cy="232.0" r="3" fill="#f28e2b"/><circle cx="583.9" cy="231.5" r="3" fill="#f28e2b"/><circle cx="600.5" cy="231.5" r="3" fill="#f28e2b"/><circle cx="617.2" cy="222.2" r="3" fill="#f28e2b"/><circle cx="633.8" cy="226.2" r="3" fill="#f28e2b"/><circle cx="650.4" cy="231.2" r="3" fill="#f28e2b"/><circle cx="667.0" cy="231.7" r="3" fill="#f28e2b"/><circle cx="683.6" cy="230.9" r="3" fill="#f28e2b"/><circle cx="700.3" cy="231.7" r="3" fill="#f28e2b"/><circle cx="716.9" cy="231.7" r="3" fill="#f28e2b"/><circle cx="733.5" cy="232.0" r="3" fill="#f28e2b"/><circle cx="750.1" cy="231.7" r="3" fill="#f28e2b"/><circle cx="766.8" cy="231.5" r="3" fill="#f28e2b"/><circle cx="783.4" cy="231.7" r="3" fill="#f28e2b"/><circle cx="800.0" cy="231.5" r="3" fill="#f28e2b"/>

  <!-- axes -->
  <line x1="52" y1="28" x2="52" y2="232"
        stroke="#cccccc" stroke-width="1"/>
  <line x1="52" y1="232" x2="800" y2="232"
        stroke="#cccccc" stroke-width="1"/>

  <!-- y-axis labels -->
  <text x="47" y="236.0" text-anchor="end" font-size="10" fill="#57606a" font-family="ui-monospace, SFMono-Regular, 'SF Mono', Menlo, monospace">0</text><text x="47" y="183.2" text-anchor="end" font-size="10" fill="#57606a" font-family="ui-monospace, SFMono-Regular, 'SF Mono', Menlo, monospace">200</text><text x="47" y="130.3" text-anchor="end" font-size="10" fill="#57606a" font-family="ui-monospace, SFMono-Regular, 'SF Mono', Menlo, monospace">400</text><text x="47" y="77.5" text-anchor="end" font-size="10" fill="#57606a" font-family="ui-monospace, SFMono-Regular, 'SF Mono', Menlo, monospace">600</text><text x="47" y="24.6" text-anchor="end" font-size="10" fill="#57606a" font-family="ui-monospace, SFMono-Regular, 'SF Mono', Menlo, monospace">800</text>

  <!-- x-axis labels -->
  <text x="52.0" y="248" text-anchor="middle" font-size="10" fill="#8c959f" font-family="ui-monospace, SFMono-Regular, 'SF Mono', Menlo, monospace">05-30</text><text x="633.8" y="248" text-anchor="middle" font-size="10" fill="#8c959f" font-family="ui-monospace, SFMono-Regular, 'SF Mono', Menlo, monospace">07-04</text><text x="135.1" y="248" text-anchor="middle" font-size="10" fill="#8c959f" font-family="ui-monospace, SFMono-Regular, 'SF Mono', Menlo, monospace">06-04</text><text x="716.9" y="248" text-anchor="middle" font-size="10" fill="#8c959f" font-family="ui-monospace, SFMono-Regular, 'SF Mono', Menlo, monospace">07-09</text><text x="218.2" y="248" text-anchor="middle" font-size="10" fill="#8c959f" font-family="ui-monospace, SFMono-Regular, 'SF Mono', Menlo, monospace">06-09</text><text x="800.0" y="248" text-anchor="middle" font-size="10" fill="#8c959f" font-family="ui-monospace, SFMono-Regular, 'SF Mono', Menlo, monospace">07-14</text><text x="301.3" y="248" text-anchor="middle" font-size="10" fill="#8c959f" font-family="ui-monospace, SFMono-Regular, 'SF Mono', Menlo, monospace">06-14</text><text x="384.4" y="248" text-anchor="middle" font-size="10" fill="#8c959f" font-family="ui-monospace, SFMono-Regular, 'SF Mono', Menlo, monospace">06-19</text><text x="467.6" y="248" text-anchor="middle" font-size="10" fill="#8c959f" font-family="ui-monospace, SFMono-Regular, 'SF Mono', Menlo, monospace">06-24</text><text x="550.7" y="248" text-anchor="middle" font-size="10" fill="#8c959f" font-family="ui-monospace, SFMono-Regular, 'SF Mono', Menlo, monospace">06-29</text>

  <!-- legend -->
  <rect x="60" y="262" width="16" height="3" fill="#4e79a7" rx="1"/><text x="80" y="268" font-size="11" fill="#57606a" font-family="-apple-system, BlinkMacSystemFont, 'Segoe UI', sans-serif">Total clones (3,180)</text><line x1="230" y1="264" x2="246" y2="264" stroke="#f28e2b" stroke-width="2" stroke-dasharray="5,3"/><text x="250" y="268" font-size="11" fill="#57606a" font-family="-apple-system, BlinkMacSystemFont, 'Segoe UI', sans-serif">Unique cloners</text>

</svg>