<svg xmlns="http://www.w3.org/2000/svg" viewBox="0 0 820 280" width="820" height="280">

  <!-- title -->
  <text x="52" y="18" font-size="13" font-weight="600"
        fill="#24292f" font-family="-apple-system, BlinkMacSystemFont, 'Segoe UI', sans-serif"
        >Clone traffic — mood</text>
  <text x="800" y="18" font-size="10" fill="#8c959f"
        font-family="ui-monospace, SFMono-Regular, 'SF Mono', Menlo, monospace" text-anchor="end">2026-07-08</text>

  <!-- grid -->
  <line x1="52" y1="232.0" x2="800" y2="232.0" stroke="#e8e8e8" stroke-width="1"/><line x1="52" y1="164.0" x2="800" y2="164.0" stroke="#e8e8e8" stroke-width="1"/><line x1="52" y1="96.0" x2="800" y2="96.0" stroke="#e8e8e8" stroke-width="1"/><line x1="52" y1="28.0" x2="800" y2="28.0" stroke="#e8e8e8" stroke-width="1"/>

  <!-- area fill -->
  <path d="M52.0,232.0 L52.0,232.0 L65.4,164.0 L78.7,96.0 L92.1,232.0 L105.4,232.0 L118.8,232.0 L132.1,232.0 L145.5,232.0 L158.9,232.0 L172.2,164.0 L185.6,232.0 L198.9,232.0 L212.3,232.0 L225.6,232.0 L239.0,232.0 L252.4,232.0 L265.7,232.0 L279.1,232.0 L292.4,232.0 L305.8,232.0 L319.1,164.0 L332.5,232.0 L345.9,232.0 L359.2,96.0 L372.6,232.0 L385.9,232.0 L399.3,232.0 L412.6,232.0 L426.0,232.0 L439.4,28.0 L452.7,164.0 L466.1,232.0 L479.4,232.0 L492.8,232.0 L506.1,232.0 L519.5,232.0 L532.9,232.0 L546.2,232.0 L559.6,164.0 L572.9,232.0 L586.3,232.0 L599.6,232.0 L613.0,232.0 L626.4,164.0 L639.7,232.0 L653.1,232.0 L666.4,164.0 L679.8,232.0 L693.1,232.0 L706.5,232.0 L719.9,232.0 L733.2,232.0 L746.6,232.0 L759.9,232.0 L773.3,96.0 L786.6,232.0 L800.0,232.0 L800.0,232.0 L52.0,232.0Z" fill="#4e79a7" opacity="0.12"/>

  <!-- lines -->
  <polyline points="52.0,232.0 65.4,164.0 78.7,96.0 92.1,232.0 105.4,232.0 118.8,232.0 132.1,232.0 145.5,232.0 158.9,232.0 172.2,164.0 185.6,232.0 198.9,232.0 212.3,232.0 225.6,232.0 239.0,232.0 252.4,232.0 265.7,232.0 279.1,232.0 292.4,232.0 305.8,232.0 319.1,164.0 332.5,232.0 345.9,232.0 359.2,96.0 372.6,232.0 385.9,232.0 399.3,232.0 412.6,232.0 426.0,232.0 439.4,28.0 452.7,164.0 466.1,232.0 479.4,232.0 492.8,232.0 506.1,232.0 519.5,232.0 532.9,232.0 546.2,232.0 559.6,164.0 572.9,232.0 586.3,232.0 599.6,232.0 613.0,232.0 626.4,164.0 639.7,232.0 653.1,232.0 666.4,164.0 679.8,232.0 693.1,232.0 706.5,232.0 719.9,232.0 733.2,232.0 746.6,232.0 759.9,232.0 773.3,96.0 786.6,232.0 800.0,232.0"
            fill="none" stroke="#4e79a7"
            stroke-width="2" stroke-linejoin="round"/>
  <polyline points="52.0,232.0 65.4,164.0 78.7,96.0 92.1,232.0 105.4,232.0 118.8,232.0 132.1,232.0 145.5,232.0 158.9,232.0 172.2,164.0 185.6,232.0 198.9,232.0 212.3,232.0 225.6,232.0 239.0,232.0 252.4,232.0 265.7,232.0 279.1,232.0 292.4,232.0 305.8,232.0 319.1,164.0 332.5,232.0 345.9,232.0 359.2,96.0 372.6,232.0 385.9,232.0 399.3,232.0 412.6,232.0 426.0,232.0 439.4,28.0 452.7,164.0 466.1,232.0 479.4,232.0 492.8,232.0 506.1,232.0 519.5,232.0 532.9,232.0 546.2,232.0 559.6,164.0 572.9,232.0 586.3,232.0 599.6,232.0 613.0,232.0 626.4,164.0 639.7,232.0 653.1,232.0 666.4,164.0 679.8,232.0 693.1,232.0 706.5,232.0 719.9,232.0 733.2,232.0 746.6,232.0 759.9,232.0 773.3,164.0 786.6,232.0 800.0,232.0"
            fill="none" stroke="#f28e2b"
            stroke-width="2" stroke-linejoin="round"
            stroke-dasharray="5,3"/>

  <!-- dots -->
  <circle cx="52.0" cy="232.0" r="3" fill="#4e79a7"/><circle cx="65.4" cy="164.0" r="3" fill="#4e79a7"/><circle cx="78.7" cy="96.0" r="3" fill="#4e79a7"/><circle cx="92.1" cy="232.0" r="3" fill="#4e79a7"/><circle cx="105.4" cy="232.0" r="3" fill="#4e79a7"/><circle cx="118.8" cy="232.0" r="3" fill="#4e79a7"/><circle cx="132.1" cy="232.0" r="3" fill="#4e79a7"/><circle cx="145.5" cy="232.0" r="3" fill="#4e79a7"/><circle cx="158.9" cy="232.0" r="3" fill="#4e79a7"/><circle cx="172.2" cy="164.0" r="3" fill="#4e79a7"/><circle cx="185.6" cy="232.0" r="3" fill="#4e79a7"/><circle cx="198.9" cy="232.0" r="3" fill="#4e79a7"/><circle cx="212.3" cy="232.0" r="3" fill="#4e79a7"/><circle cx="225.6" cy="232.0" r="3" fill="#4e79a7"/><circle cx="239.0" cy="232.0" r="3" fill="#4e79a7"/><circle cx="252.4" cy="232.0" r="3" fill="#4e79a7"/><circle cx="265.7" cy="232.0" r="3" fill="#4e79a7"/><circle cx="279.1" cy="232.0" r="3" fill="#4e79a7"/><circle cx="292.4" cy="232.0" r="3" fill="#4e79a7"/><circle cx="305.8" cy="232.0" r="3" fill="#4e79a7"/><circle cx="319.1" cy="164.0" r="3" fill="#4e79a7"/><circle cx="332.5" cy="232.0" r="3" fill="#4e79a7"/><circle cx="345.9" cy="232.0" r="3" fill="#4e79a7"/><circle cx="359.2" cy="96.0" r="3" fill="#4e79a7"/><circle cx="372.6" cy="232.0" r="3" fill="#4e79a7"/><circle cx="385.9" cy="232.0" r="3" fill="#4e79a7"/><circle cx="399.3" cy="232.0" r="3" fill="#4e79a7"/><circle cx="412.6" cy="232.0" r="3" fill="#4e79a7"/><circle cx="426.0" cy="232.0" r="3" fill="#4e79a7"/><circle cx="439.4" cy="28.0" r="3" fill="#4e79a7"/><circle cx="452.7" cy="164.0" r="3" fill="#4e79a7"/><circle cx="466.1" cy="232.0" r="3" fill="#4e79a7"/><circle cx="479.4" cy="232.0" r="3" fill="#4e79a7"/><circle cx="492.8" cy="232.0" r="3" fill="#4e79a7"/><circle cx="506.1" cy="232.0" r="3" fill="#4e79a7"/><circle cx="519.5" cy="232.0" r="3" fill="#4e79a7"/><circle cx="532.9" cy="232.0" r="3" fill="#4e79a7"/><circle cx="546.2" cy="232.0" r="3" fill="#4e79a7"/><circle cx="559.6" cy="164.0" r="3" fill="#4e79a7"/><circle cx="572.9" cy="232.0" r="3" fill="#4e79a7"/><circle cx="586.3" cy="232.0" r="3" fill="#4e79a7"/><circle cx="599.6" cy="232.0" r="3" fill="#4e79a7"/><circle cx="613.0" cy="232.0" r="3" fill="#4e79a7"/><circle cx="626.4" cy="164.0" r="3" fill="#4e79a7"/><circle cx="639.7" cy="232.0" r="3" fill="#4e79a7"/><circle cx="653.1" cy="232.0" r="3" fill="#4e79a7"/><circle cx="666.4" cy="164.0" r="3" fill="#4e79a7"/><circle cx="679.8" cy="232.0" r="3" fill="#4e79a7"/><circle cx="693.1" cy="232.0" r="3" fill="#4e79a7"/><circle cx="706.5" cy="232.0" r="3" fill="#4e79a7"/><circle cx="719.9" cy="232.0" r="3" fill="#4e79a7"/><circle cx="733.2" cy="232.0" r="3" fill="#4e79a7"/><circle cx="746.6" cy="232.0" r="3" fill="#4e79a7"/><circle cx="759.9" cy="232.0" r="3" fill="#4e79a7"/><circle cx="773.3" cy="96.0" r="3" fill="#4e79a7"/><circle cx="786.6" cy="232.0" r="3" fill="#4e79a7"/><circle cx="800.0" cy="232.0" r="3" fill="#4e79a7"/>
  <circle cx="52.0" cy="232.0" r="3" fill="#f28e2b"/><circle cx="65.4" cy="164.0" r="3" fill="#f28e2b"/><circle cx="78.7" cy="96.0" r="3" fill="#f28e2b"/><circle cx="92.1" cy="232.0" r="3" fill="#f28e2b"/><circle cx="105.4" cy="232.0" r="3" fill="#f28e2b"/><circle cx="118.8" cy="232.0" r="3" fill="#f28e2b"/><circle cx="132.1" cy="232.0" r="3" fill="#f28e2b"/><circle cx="145.5" cy="232.0" r="3" fill="#f28e2b"/><circle cx="158.9" cy="232.0" r="3" fill="#f28e2b"/><circle cx="172.2" cy="164.0" r="3" fill="#f28e2b"/><circle cx="185.6" cy="232.0" r="3" fill="#f28e2b"/><circle cx="198.9" cy="232.0" r="3" fill="#f28e2b"/><circle cx="212.3" cy="232.0" r="3" fill="#f28e2b"/><circle cx="225.6" cy="232.0" r="3" fill="#f28e2b"/><circle cx="239.0" cy="232.0" r="3" fill="#f28e2b"/><circle cx="252.4" cy="232.0" r="3" fill="#f28e2b"/><circle cx="265.7" cy="232.0" r="3" fill="#f28e2b"/><circle cx="279.1" cy="232.0" r="3" fill="#f28e2b"/><circle cx="292.4" cy="232.0" r="3" fill="#f28e2b"/><circle cx="305.8" cy="232.0" r="3" fill="#f28e2b"/><circle cx="319.1" cy="164.0" r="3" fill="#f28e2b"/><circle cx="332.5" cy="232.0" r="3" fill="#f28e2b"/><circle cx="345.9" cy="232.0" r="3" fill="#f28e2b"/><circle cx="359.2" cy="96.0" r="3" fill="#f28e2b"/><circle cx="372.6" cy="232.0" r="3" fill="#f28e2b"/><circle cx="385.9" cy="232.0" r="3" fill="#f28e2b"/><circle cx="399.3" cy="232.0" r="3" fill="#f28e2b"/><circle cx="412.6" cy="232.0" r="3" fill="#f28e2b"/><circle cx="426.0" cy="232.0" r="3" fill="#f28e2b"/><circle cx="439.4" cy="28.0" r="3" fill="#f28e2b"/><circle cx="452.7" cy="164.0" r="3" fill="#f28e2b"/><circle cx="466.1" cy="232.0" r="3" fill="#f28e2b"/><circle cx="479.4" cy="232.0" r="3" fill="#f28e2b"/><circle cx="492.8" cy="232.0" r="3" fill="#f28e2b"/><circle cx="506.1" cy="232.0" r="3" fill="#f28e2b"/><circle cx="519.5" cy="232.0" r="3" fill="#f28e2b"/><circle cx="532.9" cy="232.0" r="3" fill="#f28e2b"/><circle cx="546.2" cy="232.0" r="3" fill="#f28e2b"/><circle cx="559.6" cy="164.0" r="3" fill="#f28e2b"/><circle cx="572.9" cy="232.0" r="3" fill="#f28e2b"/><circle cx="586.3" cy="232.0" r="3" fill="#f28e2b"/><circle cx="599.6" cy="232.0" r="3" fill="#f28e2b"/><circle cx="613.0" cy="232.0" r="3" fill="#f28e2b"/><circle cx="626.4" cy="164.0" r="3" fill="#f28e2b"/><circle cx="639.7" cy="232.0" r="3" fill="#f28e2b"/><circle cx="653.1" cy="232.0" r="3" fill="#f28e2b"/><circle cx="666.4" cy="164.0" r="3" fill="#f28e2b"/><circle cx="679.8" cy="232.0" r="3" fill="#f28e2b"/><circle cx="693.1" cy="232.0" r="3" fill="#f28e2b"/><circle cx="706.5" cy="232.0" r="3" fill="#f28e2b"/><circle cx="719.9" cy="232.0" r="3" fill="#f28e2b"/><circle cx="733.2" cy="232.0" r="3" fill="#f28e2b"/><circle cx="746.6" cy="232.0" r="3" fill="#f28e2b"/><circle cx="759.9" cy="232.0" r="3" fill="#f28e2b"/><circle cx="773.3" cy="164.0" r="3" fill="#f28e2b"/><circle cx="786.6" cy="232.0" r="3" fill="#f28e2b"/><circle cx="800.0" cy="232.0" r="3" fill="#f28e2b"/>

  <!-- axes -->
  <line x1="52" y1="28" x2="52" y2="232"
        stroke="#cccccc" stroke-width="1"/>
  <line x1="52" y1="232" x2="800" y2="232"
        stroke="#cccccc" stroke-width="1"/>

  <!-- y-axis labels -->
  <text x="47" y="236.0" text-anchor="end" font-size="10" fill="#57606a" font-family="ui-monospace, SFMono-Regular, 'SF Mono', Menlo, monospace">0</text><text x="47" y="168.0" text-anchor="end" font-size="10" fill="#57606a" font-family="ui-monospace, SFMono-Regular, 'SF Mono', Menlo, monospace">1</text><text x="47" y="100.0" text-anchor="end" font-size="10" fill="#57606a" font-family="ui-monospace, SFMono-Regular, 'SF Mono', Menlo, monospace">2</text><text x="47" y="32.0" text-anchor="end" font-size="10" fill="#57606a" font-family="ui-monospace, SFMono-Regular, 'SF Mono', Menlo, monospace">3</text>

  <!-- x-axis labels -->
  <text x="52.0" y="248" text-anchor="middle" font-size="10" fill="#8c959f" font-family="ui-monospace, SFMono-Regular, 'SF Mono', Menlo, monospace">05-11</text><text x="519.5" y="248" text-anchor="middle" font-size="10" fill="#8c959f" font-family="ui-monospace, SFMono-Regular, 'SF Mono', Menlo, monospace">06-15</text><text x="145.5" y="248" text-anchor="middle" font-size="10" fill="#8c959f" font-family="ui-monospace, SFMono-Regular, 'SF Mono', Menlo, monospace">05-18</text><text x="613.0" y="248" text-anchor="middle" font-size="10" fill="#8c959f" font-family="ui-monospace, SFMono-Regular, 'SF Mono', Menlo, monospace">06-22</text><text x="239.0" y="248" text-anchor="middle" font-size="10" fill="#8c959f" font-family="ui-monospace, SFMono-Regular, 'SF Mono', Menlo, monospace">05-25</text><text x="706.5" y="248" text-anchor="middle" font-size="10" fill="#8c959f" font-family="ui-monospace, SFMono-Regular, 'SF Mono', Menlo, monospace">06-29</text><text x="332.5" y="248" text-anchor="middle" font-size="10" fill="#8c959f" font-family="ui-monospace, SFMono-Regular, 'SF Mono', Menlo, monospace">06-01</text><text x="800.0" y="248" text-anchor="middle" font-size="10" fill="#8c959f" font-family="ui-monospace, SFMono-Regular, 'SF Mono', Menlo, monospace">07-06</text><text x="426.0" y="248" text-anchor="middle" font-size="10" fill="#8c959f" font-family="ui-monospace, SFMono-Regular, 'SF Mono', Menlo, monospace">06-08</text>

  <!-- legend -->
  <rect x="60" y="262" width="16" height="3" fill="#4e79a7" rx="1"/><text x="80" y="268" font-size="11" fill="#57606a" font-family="-apple-system, BlinkMacSystemFont, 'Segoe UI', sans-serif">Total clones (16)</text><line x1="230" y1="264" x2="246" y2="264" stroke="#f28e2b" stroke-width="2" stroke-dasharray="5,3"/><text x="250" y="268" font-size="11" fill="#57606a" font-family="-apple-system, BlinkMacSystemFont, 'Segoe UI', sans-serif">Unique cloners</text>

</svg>