<svg xmlns="http://www.w3.org/2000/svg" viewBox="0 0 820 280" width="820" height="280">

  <!-- title -->
  <text x="52" y="18" font-size="13" font-weight="600"
        fill="#24292f" font-family="-apple-system, BlinkMacSystemFont, 'Segoe UI', sans-serif"
        >Clone traffic — nikos</text>
  <text x="800" y="18" font-size="10" fill="#8c959f"
        font-family="ui-monospace, SFMono-Regular, 'SF Mono', Menlo, monospace" text-anchor="end">2026-06-17</text>

  <!-- grid -->
  <line x1="52" y1="232.0" x2="800" y2="232.0" stroke="#e8e8e8" stroke-width="1"/><line x1="52" y1="192.4" x2="800" y2="192.4" stroke="#e8e8e8" stroke-width="1"/><line x1="52" y1="152.8" x2="800" y2="152.8" stroke="#e8e8e8" stroke-width="1"/><line x1="52" y1="113.2" x2="800" y2="113.2" stroke="#e8e8e8" stroke-width="1"/><line x1="52" y1="73.6" x2="800" y2="73.6" stroke="#e8e8e8" stroke-width="1"/><line x1="52" y1="33.9" x2="800" y2="33.9" stroke="#e8e8e8" stroke-width="1"/><line x1="52" y1="-5.7" x2="800" y2="-5.7" stroke="#e8e8e8" stroke-width="1"/>

  <!-- area fill -->
  <path d="M52.0,232.0 L52.0,232.0 L73.4,230.0 L94.7,228.0 L116.1,142.9 L137.5,226.1 L158.9,232.0 L180.2,232.0 L201.6,230.0 L223.0,230.0 L244.3,224.1 L265.7,178.5 L287.1,178.5 L308.5,28.0 L329.8,210.2 L351.2,172.6 L372.6,232.0 L393.9,232.0 L415.3,232.0 L436.7,230.0 L458.1,228.0 L479.4,226.1 L500.8,232.0 L522.2,232.0 L543.5,228.0 L564.9,230.0 L586.3,230.0 L607.7,230.0 L629.0,232.0 L650.4,230.0 L671.8,230.0 L693.1,230.0 L714.5,232.0 L735.9,230.0 L757.3,230.0 L778.6,230.0 L800.0,230.0 L800.0,232.0 L52.0,232.0Z" fill="#4e79a7" opacity="0.12"/>

  <!-- lines -->
  <polyline points="52.0,232.0 73.4,230.0 94.7,228.0 116.1,142.9 137.5,226.1 158.9,232.0 180.2,232.0 201.6,230.0 223.0,230.0 244.3,224.1 265.7,178.5 287.1,178.5 308.5,28.0 329.8,210.2 351.2,172.6 372.6,232.0 393.9,232.0 415.3,232.0 436.7,230.0 458.1,228.0 479.4,226.1 500.8,232.0 522.2,232.0 543.5,228.0 564.9,230.0 586.3,230.0 607.7,230.0 629.0,232.0 650.4,230.0 671.8,230.0 693.1,230.0 714.5,232.0 735.9,230.0 757.3,230.0 778.6,230.0 800.0,230.0"
            fill="none" stroke="#4e79a7"
            stroke-width="2" stroke-linejoin="round"/>
  <polyline points="52.0,232.0 73.4,230.0 94.7,228.0 116.1,174.6 137.5,226.1 158.9,232.0 180.2,232.0 201.6,230.0 223.0,230.0 244.3,224.1 265.7,214.2 287.1,196.3 308.5,138.9 329.8,224.1 351.2,222.1 372.6,232.0 393.9,232.0 415.3,232.0 436.7,230.0 458.1,228.0 479.4,228.0 500.8,232.0 522.2,232.0 543.5,228.0 564.9,230.0 586.3,230.0 607.7,230.0 629.0,232.0 650.4,230.0 671.8,230.0 693.1,230.0 714.5,232.0 735.9,230.0 757.3,230.0 778.6,230.0 800.0,230.0"
            fill="none" stroke="#f28e2b"
            stroke-width="2" stroke-linejoin="round"
            stroke-dasharray="5,3"/>

  <!-- dots -->
  <circle cx="52.0" cy="232.0" r="3" fill="#4e79a7"/><circle cx="73.4" cy="230.0" r="3" fill="#4e79a7"/><circle cx="94.7" cy="228.0" r="3" fill="#4e79a7"/><circle cx="116.1" cy="142.9" r="3" fill="#4e79a7"/><circle cx="137.5" cy="226.1" r="3" fill="#4e79a7"/><circle cx="158.9" cy="232.0" r="3" fill="#4e79a7"/><circle cx="180.2" cy="232.0" r="3" fill="#4e79a7"/><circle cx="201.6" cy="230.0" r="3" fill="#4e79a7"/><circle cx="223.0" cy="230.0" r="3" fill="#4e79a7"/><circle cx="244.3" cy="224.1" r="3" fill="#4e79a7"/><circle cx="265.7" cy="178.5" r="3" fill="#4e79a7"/><circle cx="287.1" cy="178.5" r="3" fill="#4e79a7"/><circle cx="308.5" cy="28.0" r="3" fill="#4e79a7"/><circle cx="329.8" cy="210.2" r="3" fill="#4e79a7"/><circle cx="351.2" cy="172.6" r="3" fill="#4e79a7"/><circle cx="372.6" cy="232.0" r="3" fill="#4e79a7"/><circle cx="393.9" cy="232.0" r="3" fill="#4e79a7"/><circle cx="415.3" cy="232.0" r="3" fill="#4e79a7"/><circle cx="436.7" cy="230.0" r="3" fill="#4e79a7"/><circle cx="458.1" cy="228.0" r="3" fill="#4e79a7"/><circle cx="479.4" cy="226.1" r="3" fill="#4e79a7"/><circle cx="500.8" cy="232.0" r="3" fill="#4e79a7"/><circle cx="522.2" cy="232.0" r="3" fill="#4e79a7"/><circle cx="543.5" cy="228.0" r="3" fill="#4e79a7"/><circle cx="564.9" cy="230.0" r="3" fill="#4e79a7"/><circle cx="586.3" cy="230.0" r="3" fill="#4e79a7"/><circle cx="607.7" cy="230.0" r="3" fill="#4e79a7"/><circle cx="629.0" cy="232.0" r="3" fill="#4e79a7"/><circle cx="650.4" cy="230.0" r="3" fill="#4e79a7"/><circle cx="671.8" cy="230.0" r="3" fill="#4e79a7"/><circle cx="693.1" cy="230.0" r="3" fill="#4e79a7"/><circle cx="714.5" cy="232.0" r="3" fill="#4e79a7"/><circle cx="735.9" cy="230.0" r="3" fill="#4e79a7"/><circle cx="757.3" cy="230.0" r="3" fill="#4e79a7"/><circle cx="778.6" cy="230.0" r="3" fill="#4e79a7"/><circle cx="800.0" cy="230.0" r="3" fill="#4e79a7"/>
  <circle cx="52.0" cy="232.0" r="3" fill="#f28e2b"/><circle cx="73.4" cy="230.0" r="3" fill="#f28e2b"/><circle cx="94.7" cy="228.0" r="3" fill="#f28e2b"/><circle cx="116.1" cy="174.6" r="3" fill="#f28e2b"/><circle cx="137.5" cy="226.1" r="3" fill="#f28e2b"/><circle cx="158.9" cy="232.0" r="3" fill="#f28e2b"/><circle cx="180.2" cy="232.0" r="3" fill="#f28e2b"/><circle cx="201.6" cy="230.0" r="3" fill="#f28e2b"/><circle cx="223.0" cy="230.0" r="3" fill="#f28e2b"/><circle cx="244.3" cy="224.1" r="3" fill="#f28e2b"/><circle cx="265.7" cy="214.2" r="3" fill="#f28e2b"/><circle cx="287.1" cy="196.3" r="3" fill="#f28e2b"/><circle cx="308.5" cy="138.9" r="3" fill="#f28e2b"/><circle cx="329.8" cy="224.1" r="3" fill="#f28e2b"/><circle cx="351.2" cy="222.1" r="3" fill="#f28e2b"/><circle cx="372.6" cy="232.0" r="3" fill="#f28e2b"/><circle cx="393.9" cy="232.0" r="3" fill="#f28e2b"/><circle cx="415.3" cy="232.0" r="3" fill="#f28e2b"/><circle cx="436.7" cy="230.0" r="3" fill="#f28e2b"/><circle cx="458.1" cy="228.0" r="3" fill="#f28e2b"/><circle cx="479.4" cy="228.0" r="3" fill="#f28e2b"/><circle cx="500.8" cy="232.0" r="3" fill="#f28e2b"/><circle cx="522.2" cy="232.0" r="3" fill="#f28e2b"/><circle cx="543.5" cy="228.0" r="3" fill="#f28e2b"/><circle cx="564.9" cy="230.0" r="3" fill="#f28e2b"/><circle cx="586.3" cy="230.0" r="3" fill="#f28e2b"/><circle cx="607.7" cy="230.0" r="3" fill="#f28e2b"/><circle cx="629.0" cy="232.0" r="3" fill="#f28e2b"/><circle cx="650.4" cy="230.0" r="3" fill="#f28e2b"/><circle cx="671.8" cy="230.0" r="3" fill="#f28e2b"/><circle cx="693.1" cy="230.0" r="3" fill="#f28e2b"/><circle cx="714.5" cy="232.0" r="3" fill="#f28e2b"/><circle cx="735.9" cy="230.0" r="3" fill="#f28e2b"/><circle cx="757.3" cy="230.0" r="3" fill="#f28e2b"/><circle cx="778.6" cy="230.0" r="3" fill="#f28e2b"/><circle cx="800.0" cy="230.0" r="3" fill="#f28e2b"/>

  <!-- axes -->
  <line x1="52" y1="28" x2="52" y2="232"
        stroke="#cccccc" stroke-width="1"/>
  <line x1="52" y1="232" x2="800" y2="232"
        stroke="#cccccc" stroke-width="1"/>

  <!-- y-axis labels -->
  <text x="47" y="236.0" text-anchor="end" font-size="10" fill="#57606a" font-family="ui-monospace, SFMono-Regular, 'SF Mono', Menlo, monospace">0</text><text x="47" y="196.4" text-anchor="end" font-size="10" fill="#57606a" font-family="ui-monospace, SFMono-Regular, 'SF Mono', Menlo, monospace">20</text><text x="47" y="156.8" text-anchor="end" font-size="10" fill="#57606a" font-family="ui-monospace, SFMono-Regular, 'SF Mono', Menlo, monospace">40</text><text x="47" y="117.2" text-anchor="end" font-size="10" fill="#57606a" font-family="ui-monospace, SFMono-Regular, 'SF Mono', Menlo, monospace">60</text><text x="47" y="77.6" text-anchor="end" font-size="10" fill="#57606a" font-family="ui-monospace, SFMono-Regular, 'SF Mono', Menlo, monospace">80</text><text x="47" y="37.9" text-anchor="end" font-size="10" fill="#57606a" font-family="ui-monospace, SFMono-Regular, 'SF Mono', Menlo, monospace">100</text><text x="47" y="-1.7" text-anchor="end" font-size="10" fill="#57606a" font-family="ui-monospace, SFMono-Regular, 'SF Mono', Menlo, monospace">120</text>

  <!-- x-axis labels -->
  <text x="52.0" y="248" text-anchor="middle" font-size="10" fill="#8c959f" font-family="ui-monospace, SFMono-Regular, 'SF Mono', Menlo, monospace">05-11</text><text x="735.9" y="248" text-anchor="middle" font-size="10" fill="#8c959f" font-family="ui-monospace, SFMono-Regular, 'SF Mono', Menlo, monospace">06-12</text><text x="800.0" y="248" text-anchor="middle" font-size="10" fill="#8c959f" font-family="ui-monospace, SFMono-Regular, 'SF Mono', Menlo, monospace">06-15</text><text x="137.5" y="248" text-anchor="middle" font-size="10" fill="#8c959f" font-family="ui-monospace, SFMono-Regular, 'SF Mono', Menlo, monospace">05-15</text><text x="223.0" y="248" text-anchor="middle" font-size="10" fill="#8c959f" font-family="ui-monospace, SFMono-Regular, 'SF Mono', Menlo, monospace">05-19</text><text x="308.5" y="248" text-anchor="middle" font-size="10" fill="#8c959f" font-family="ui-monospace, SFMono-Regular, 'SF Mono', Menlo, monospace">05-23</text><text x="393.9" y="248" text-anchor="middle" font-size="10" fill="#8c959f" font-family="ui-monospace, SFMono-Regular, 'SF Mono', Menlo, monospace">05-27</text><text x="479.4" y="248" text-anchor="middle" font-size="10" fill="#8c959f" font-family="ui-monospace, SFMono-Regular, 'SF Mono', Menlo, monospace">05-31</text><text x="564.9" y="248" text-anchor="middle" font-size="10" fill="#8c959f" font-family="ui-monospace, SFMono-Regular, 'SF Mono', Menlo, monospace">06-04</text><text x="650.4" y="248" text-anchor="middle" font-size="10" fill="#8c959f" font-family="ui-monospace, SFMono-Regular, 'SF Mono', Menlo, monospace">06-08</text>

  <!-- legend -->
  <rect x="60" y="262" width="16" height="3" fill="#4e79a7" rx="1"/><text x="80" y="268" font-size="11" fill="#57606a" font-family="-apple-system, BlinkMacSystemFont, 'Segoe UI', sans-serif">Total clones (273)</text><line x1="230" y1="264" x2="246" y2="264" stroke="#f28e2b" stroke-width="2" stroke-dasharray="5,3"/><text x="250" y="268" font-size="11" fill="#57606a" font-family="-apple-system, BlinkMacSystemFont, 'Segoe UI', sans-serif">Unique cloners</text>

</svg>