<svg xmlns="http://www.w3.org/2000/svg" viewBox="0 0 820 280" width="820" height="280">

  <!-- title -->
  <text x="52" y="18" font-size="13" font-weight="600"
        fill="#24292f" font-family="-apple-system, BlinkMacSystemFont, 'Segoe UI', sans-serif"
        >Clone traffic — nikos</text>
  <text x="800" y="18" font-size="10" fill="#8c959f"
        font-family="ui-monospace, SFMono-Regular, 'SF Mono', Menlo, monospace" text-anchor="end">2026-06-24</text>

  <!-- grid -->
  <line x1="52" y1="232.0" x2="800" y2="232.0" stroke="#e8e8e8" stroke-width="1"/><line x1="52" y1="192.4" x2="800" y2="192.4" stroke="#e8e8e8" stroke-width="1"/><line x1="52" y1="152.8" x2="800" y2="152.8" stroke="#e8e8e8" stroke-width="1"/><line x1="52" y1="113.2" x2="800" y2="113.2" stroke="#e8e8e8" stroke-width="1"/><line x1="52" y1="73.6" x2="800" y2="73.6" stroke="#e8e8e8" stroke-width="1"/><line x1="52" y1="33.9" x2="800" y2="33.9" stroke="#e8e8e8" stroke-width="1"/><line x1="52" y1="-5.7" x2="800" y2="-5.7" stroke="#e8e8e8" stroke-width="1"/>

  <!-- area fill -->
  <path d="M52.0,232.0 L52.0,232.0 L69.8,230.0 L87.6,228.0 L105.4,142.9 L123.2,226.1 L141.0,232.0 L158.9,232.0 L176.7,230.0 L194.5,230.0 L212.3,224.1 L230.1,178.5 L247.9,178.5 L265.7,28.0 L283.5,210.2 L301.3,172.6 L319.1,232.0 L337.0,232.0 L354.8,232.0 L372.6,230.0 L390.4,228.0 L408.2,226.1 L426.0,232.0 L443.8,232.0 L461.6,228.0 L479.4,230.0 L497.2,230.0 L515.0,230.0 L532.9,232.0 L550.7,230.0 L568.5,230.0 L586.3,230.0 L604.1,232.0 L621.9,230.0 L639.7,230.0 L657.5,230.0 L675.3,230.0 L693.1,230.0 L711.0,228.0 L728.8,230.0 L746.6,190.4 L764.4,214.2 L782.2,224.1 L800.0,51.8 L800.0,232.0 L52.0,232.0Z" fill="#4e79a7" opacity="0.12"/>

  <!-- lines -->
  <polyline points="52.0,232.0 69.8,230.0 87.6,228.0 105.4,142.9 123.2,226.1 141.0,232.0 158.9,232.0 176.7,230.0 194.5,230.0 212.3,224.1 230.1,178.5 247.9,178.5 265.7,28.0 283.5,210.2 301.3,172.6 319.1,232.0 337.0,232.0 354.8,232.0 372.6,230.0 390.4,228.0 408.2,226.1 426.0,232.0 443.8,232.0 461.6,228.0 479.4,230.0 497.2,230.0 515.0,230.0 532.9,232.0 550.7,230.0 568.5,230.0 586.3,230.0 604.1,232.0 621.9,230.0 639.7,230.0 657.5,230.0 675.3,230.0 693.1,230.0 711.0,228.0 728.8,230.0 746.6,190.4 764.4,214.2 782.2,224.1 800.0,51.8"
            fill="none" stroke="#4e79a7"
            stroke-width="2" stroke-linejoin="round"/>
  <polyline points="52.0,232.0 69.8,230.0 87.6,228.0 105.4,174.6 123.2,226.1 141.0,232.0 158.9,232.0 176.7,230.0 194.5,230.0 212.3,224.1 230.1,214.2 247.9,196.3 265.7,138.9 283.5,224.1 301.3,222.1 319.1,232.0 337.0,232.0 354.8,232.0 372.6,230.0 390.4,228.0 408.2,228.0 426.0,232.0 443.8,232.0 461.6,228.0 479.4,230.0 497.2,230.0 515.0,230.0 532.9,232.0 550.7,230.0 568.5,230.0 586.3,230.0 604.1,232.0 621.9,230.0 639.7,230.0 657.5,230.0 675.3,230.0 693.1,230.0 711.0,228.0 728.8,230.0 746.6,220.1 764.4,224.1 782.2,230.0 800.0,194.4"
            fill="none" stroke="#f28e2b"
            stroke-width="2" stroke-linejoin="round"
            stroke-dasharray="5,3"/>

  <!-- dots -->
  <circle cx="52.0" cy="232.0" r="3" fill="#4e79a7"/><circle cx="69.8" cy="230.0" r="3" fill="#4e79a7"/><circle cx="87.6" cy="228.0" r="3" fill="#4e79a7"/><circle cx="105.4" cy="142.9" r="3" fill="#4e79a7"/><circle cx="123.2" cy="226.1" r="3" fill="#4e79a7"/><circle cx="141.0" cy="232.0" r="3" fill="#4e79a7"/><circle cx="158.9" cy="232.0" r="3" fill="#4e79a7"/><circle cx="176.7" cy="230.0" r="3" fill="#4e79a7"/><circle cx="194.5" cy="230.0" r="3" fill="#4e79a7"/><circle cx="212.3" cy="224.1" r="3" fill="#4e79a7"/><circle cx="230.1" cy="178.5" r="3" fill="#4e79a7"/><circle cx="247.9" cy="178.5" r="3" fill="#4e79a7"/><circle cx="265.7" cy="28.0" r="3" fill="#4e79a7"/><circle cx="283.5" cy="210.2" r="3" fill="#4e79a7"/><circle cx="301.3" cy="172.6" r="3" fill="#4e79a7"/><circle cx="319.1" cy="232.0" r="3" fill="#4e79a7"/><circle cx="337.0" cy="232.0" r="3" fill="#4e79a7"/><circle cx="354.8" cy="232.0" r="3" fill="#4e79a7"/><circle cx="372.6" cy="230.0" r="3" fill="#4e79a7"/><circle cx="390.4" cy="228.0" r="3" fill="#4e79a7"/><circle cx="408.2" cy="226.1" r="3" fill="#4e79a7"/><circle cx="426.0" cy="232.0" r="3" fill="#4e79a7"/><circle cx="443.8" cy="232.0" r="3" fill="#4e79a7"/><circle cx="461.6" cy="228.0" r="3" fill="#4e79a7"/><circle cx="479.4" cy="230.0" r="3" fill="#4e79a7"/><circle cx="497.2" cy="230.0" r="3" fill="#4e79a7"/><circle cx="515.0" cy="230.0" r="3" fill="#4e79a7"/><circle cx="532.9" cy="232.0" r="3" fill="#4e79a7"/><circle cx="550.7" cy="230.0" r="3" fill="#4e79a7"/><circle cx="568.5" cy="230.0" r="3" fill="#4e79a7"/><circle cx="586.3" cy="230.0" r="3" fill="#4e79a7"/><circle cx="604.1" cy="232.0" r="3" fill="#4e79a7"/><circle cx="621.9" cy="230.0" r="3" fill="#4e79a7"/><circle cx="639.7" cy="230.0" r="3" fill="#4e79a7"/><circle cx="657.5" cy="230.0" r="3" fill="#4e79a7"/><circle cx="675.3" cy="230.0" r="3" fill="#4e79a7"/><circle cx="693.1" cy="230.0" r="3" fill="#4e79a7"/><circle cx="711.0" cy="228.0" r="3" fill="#4e79a7"/><circle cx="728.8" cy="230.0" r="3" fill="#4e79a7"/><circle cx="746.6" cy="190.4" r="3" fill="#4e79a7"/><circle cx="764.4" cy="214.2" r="3" fill="#4e79a7"/><circle cx="782.2" cy="224.1" r="3" fill="#4e79a7"/><circle cx="800.0" cy="51.8" r="3" fill="#4e79a7"/>
  <circle cx="52.0" cy="232.0" r="3" fill="#f28e2b"/><circle cx="69.8" cy="230.0" r="3" fill="#f28e2b"/><circle cx="87.6" cy="228.0" r="3" fill="#f28e2b"/><circle cx="105.4" cy="174.6" r="3" fill="#f28e2b"/><circle cx="123.2" cy="226.1" r="3" fill="#f28e2b"/><circle cx="141.0" cy="232.0" r="3" fill="#f28e2b"/><circle cx="158.9" cy="232.0" r="3" fill="#f28e2b"/><circle cx="176.7" cy="230.0" r="3" fill="#f28e2b"/><circle cx="194.5" cy="230.0" r="3" fill="#f28e2b"/><circle cx="212.3" cy="224.1" r="3" fill="#f28e2b"/><circle cx="230.1" cy="214.2" r="3" fill="#f28e2b"/><circle cx="247.9" cy="196.3" r="3" fill="#f28e2b"/><circle cx="265.7" cy="138.9" r="3" fill="#f28e2b"/><circle cx="283.5" cy="224.1" r="3" fill="#f28e2b"/><circle cx="301.3" cy="222.1" r="3" fill="#f28e2b"/><circle cx="319.1" cy="232.0" r="3" fill="#f28e2b"/><circle cx="337.0" cy="232.0" r="3" fill="#f28e2b"/><circle cx="354.8" cy="232.0" r="3" fill="#f28e2b"/><circle cx="372.6" cy="230.0" r="3" fill="#f28e2b"/><circle cx="390.4" cy="228.0" r="3" fill="#f28e2b"/><circle cx="408.2" cy="228.0" r="3" fill="#f28e2b"/><circle cx="426.0" cy="232.0" r="3" fill="#f28e2b"/><circle cx="443.8" cy="232.0" r="3" fill="#f28e2b"/><circle cx="461.6" cy="228.0" r="3" fill="#f28e2b"/><circle cx="479.4" cy="230.0" r="3" fill="#f28e2b"/><circle cx="497.2" cy="230.0" r="3" fill="#f28e2b"/><circle cx="515.0" cy="230.0" r="3" fill="#f28e2b"/><circle cx="532.9" cy="232.0" r="3" fill="#f28e2b"/><circle cx="550.7" cy="230.0" r="3" fill="#f28e2b"/><circle cx="568.5" cy="230.0" r="3" fill="#f28e2b"/><circle cx="586.3" cy="230.0" r="3" fill="#f28e2b"/><circle cx="604.1" cy="232.0" r="3" fill="#f28e2b"/><circle cx="621.9" cy="230.0" r="3" fill="#f28e2b"/><circle cx="639.7" cy="230.0" r="3" fill="#f28e2b"/><circle cx="657.5" cy="230.0" r="3" fill="#f28e2b"/><circle cx="675.3" cy="230.0" r="3" fill="#f28e2b"/><circle cx="693.1" cy="230.0" r="3" fill="#f28e2b"/><circle cx="711.0" cy="228.0" r="3" fill="#f28e2b"/><circle cx="728.8" cy="230.0" r="3" fill="#f28e2b"/><circle cx="746.6" cy="220.1" r="3" fill="#f28e2b"/><circle cx="764.4" cy="224.1" r="3" fill="#f28e2b"/><circle cx="782.2" cy="230.0" r="3" fill="#f28e2b"/><circle cx="800.0" cy="194.4" r="3" fill="#f28e2b"/>

  <!-- axes -->
  <line x1="52" y1="28" x2="52" y2="232"
        stroke="#cccccc" stroke-width="1"/>
  <line x1="52" y1="232" x2="800" y2="232"
        stroke="#cccccc" stroke-width="1"/>

  <!-- y-axis labels -->
  <text x="47" y="236.0" text-anchor="end" font-size="10" fill="#57606a" font-family="ui-monospace, SFMono-Regular, 'SF Mono', Menlo, monospace">0</text><text x="47" y="196.4" text-anchor="end" font-size="10" fill="#57606a" font-family="ui-monospace, SFMono-Regular, 'SF Mono', Menlo, monospace">20</text><text x="47" y="156.8" text-anchor="end" font-size="10" fill="#57606a" font-family="ui-monospace, SFMono-Regular, 'SF Mono', Menlo, monospace">40</text><text x="47" y="117.2" text-anchor="end" font-size="10" fill="#57606a" font-family="ui-monospace, SFMono-Regular, 'SF Mono', Menlo, monospace">60</text><text x="47" y="77.6" text-anchor="end" font-size="10" fill="#57606a" font-family="ui-monospace, SFMono-Regular, 'SF Mono', Menlo, monospace">80</text><text x="47" y="37.9" text-anchor="end" font-size="10" fill="#57606a" font-family="ui-monospace, SFMono-Regular, 'SF Mono', Menlo, monospace">100</text><text x="47" y="-1.7" text-anchor="end" font-size="10" fill="#57606a" font-family="ui-monospace, SFMono-Regular, 'SF Mono', Menlo, monospace">120</text>

  <!-- x-axis labels -->
  <text x="52.0" y="248" text-anchor="middle" font-size="10" fill="#8c959f" font-family="ui-monospace, SFMono-Regular, 'SF Mono', Menlo, monospace">05-11</text><text x="675.3" y="248" text-anchor="middle" font-size="10" fill="#8c959f" font-family="ui-monospace, SFMono-Regular, 'SF Mono', Menlo, monospace">06-15</text><text x="141.0" y="248" text-anchor="middle" font-size="10" fill="#8c959f" font-family="ui-monospace, SFMono-Regular, 'SF Mono', Menlo, monospace">05-16</text><text x="764.4" y="248" text-anchor="middle" font-size="10" fill="#8c959f" font-family="ui-monospace, SFMono-Regular, 'SF Mono', Menlo, monospace">06-20</text><text x="230.1" y="248" text-anchor="middle" font-size="10" fill="#8c959f" font-family="ui-monospace, SFMono-Regular, 'SF Mono', Menlo, monospace">05-21</text><text x="800.0" y="248" text-anchor="middle" font-size="10" fill="#8c959f" font-family="ui-monospace, SFMono-Regular, 'SF Mono', Menlo, monospace">06-22</text><text x="319.1" y="248" text-anchor="middle" font-size="10" fill="#8c959f" font-family="ui-monospace, SFMono-Regular, 'SF Mono', Menlo, monospace">05-26</text><text x="408.2" y="248" text-anchor="middle" font-size="10" fill="#8c959f" font-family="ui-monospace, SFMono-Regular, 'SF Mono', Menlo, monospace">05-31</text><text x="497.2" y="248" text-anchor="middle" font-size="10" fill="#8c959f" font-family="ui-monospace, SFMono-Regular, 'SF Mono', Menlo, monospace">06-05</text><text x="586.3" y="248" text-anchor="middle" font-size="10" fill="#8c959f" font-family="ui-monospace, SFMono-Regular, 'SF Mono', Menlo, monospace">06-10</text>

  <!-- legend -->
  <rect x="60" y="262" width="16" height="3" fill="#4e79a7" rx="1"/><text x="80" y="268" font-size="11" fill="#57606a" font-family="-apple-system, BlinkMacSystemFont, 'Segoe UI', sans-serif">Total clones (402)</text><line x1="230" y1="264" x2="246" y2="264" stroke="#f28e2b" stroke-width="2" stroke-dasharray="5,3"/><text x="250" y="268" font-size="11" fill="#57606a" font-family="-apple-system, BlinkMacSystemFont, 'Segoe UI', sans-serif">Unique cloners</text>

</svg>