<svg xmlns="http://www.w3.org/2000/svg" viewBox="0 0 820 280" width="820" height="280">

  <!-- title -->
  <text x="52" y="18" font-size="13" font-weight="600"
        fill="#24292f" font-family="-apple-system, BlinkMacSystemFont, 'Segoe UI', sans-serif"
        >Clone traffic — nikos</text>
  <text x="800" y="18" font-size="10" fill="#8c959f"
        font-family="ui-monospace, SFMono-Regular, 'SF Mono', Menlo, monospace" text-anchor="end">2026-06-22</text>

  <!-- grid -->
  <line x1="52" y1="232.0" x2="800" y2="232.0" stroke="#e8e8e8" stroke-width="1"/><line x1="52" y1="192.4" x2="800" y2="192.4" stroke="#e8e8e8" stroke-width="1"/><line x1="52" y1="152.8" x2="800" y2="152.8" stroke="#e8e8e8" stroke-width="1"/><line x1="52" y1="113.2" x2="800" y2="113.2" stroke="#e8e8e8" stroke-width="1"/><line x1="52" y1="73.6" x2="800" y2="73.6" stroke="#e8e8e8" stroke-width="1"/><line x1="52" y1="33.9" x2="800" y2="33.9" stroke="#e8e8e8" stroke-width="1"/><line x1="52" y1="-5.7" x2="800" y2="-5.7" stroke="#e8e8e8" stroke-width="1"/>

  <!-- area fill -->
  <path d="M52.0,232.0 L52.0,232.0 L70.7,230.0 L89.4,228.0 L108.1,142.9 L126.8,226.1 L145.5,232.0 L164.2,232.0 L182.9,230.0 L201.6,230.0 L220.3,224.1 L239.0,178.5 L257.7,178.5 L276.4,28.0 L295.1,210.2 L313.8,172.6 L332.5,232.0 L351.2,232.0 L369.9,232.0 L388.6,230.0 L407.3,228.0 L426.0,226.1 L444.7,232.0 L463.4,232.0 L482.1,228.0 L500.8,230.0 L519.5,230.0 L538.2,230.0 L556.9,232.0 L575.6,230.0 L594.3,230.0 L613.0,230.0 L631.7,232.0 L650.4,230.0 L669.1,230.0 L687.8,230.0 L706.5,230.0 L725.2,230.0 L743.9,228.0 L762.6,230.0 L781.3,190.4 L800.0,214.2 L800.0,232.0 L52.0,232.0Z" fill="#4e79a7" opacity="0.12"/>

  <!-- lines -->
  <polyline points="52.0,232.0 70.7,230.0 89.4,228.0 108.1,142.9 126.8,226.1 145.5,232.0 164.2,232.0 182.9,230.0 201.6,230.0 220.3,224.1 239.0,178.5 257.7,178.5 276.4,28.0 295.1,210.2 313.8,172.6 332.5,232.0 351.2,232.0 369.9,232.0 388.6,230.0 407.3,228.0 426.0,226.1 444.7,232.0 463.4,232.0 482.1,228.0 500.8,230.0 519.5,230.0 538.2,230.0 556.9,232.0 575.6,230.0 594.3,230.0 613.0,230.0 631.7,232.0 650.4,230.0 669.1,230.0 687.8,230.0 706.5,230.0 725.2,230.0 743.9,228.0 762.6,230.0 781.3,190.4 800.0,214.2"
            fill="none" stroke="#4e79a7"
            stroke-width="2" stroke-linejoin="round"/>
  <polyline points="52.0,232.0 70.7,230.0 89.4,228.0 108.1,174.6 126.8,226.1 145.5,232.0 164.2,232.0 182.9,230.0 201.6,230.0 220.3,224.1 239.0,214.2 257.7,196.3 276.4,138.9 295.1,224.1 313.8,222.1 332.5,232.0 351.2,232.0 369.9,232.0 388.6,230.0 407.3,228.0 426.0,228.0 444.7,232.0 463.4,232.0 482.1,228.0 500.8,230.0 519.5,230.0 538.2,230.0 556.9,232.0 575.6,230.0 594.3,230.0 613.0,230.0 631.7,232.0 650.4,230.0 669.1,230.0 687.8,230.0 706.5,230.0 725.2,230.0 743.9,228.0 762.6,230.0 781.3,220.1 800.0,224.1"
            fill="none" stroke="#f28e2b"
            stroke-width="2" stroke-linejoin="round"
            stroke-dasharray="5,3"/>

  <!-- dots -->
  <circle cx="52.0" cy="232.0" r="3" fill="#4e79a7"/><circle cx="70.7" cy="230.0" r="3" fill="#4e79a7"/><circle cx="89.4" cy="228.0" r="3" fill="#4e79a7"/><circle cx="108.1" cy="142.9" r="3" fill="#4e79a7"/><circle cx="126.8" cy="226.1" r="3" fill="#4e79a7"/><circle cx="145.5" cy="232.0" r="3" fill="#4e79a7"/><circle cx="164.2" cy="232.0" r="3" fill="#4e79a7"/><circle cx="182.9" cy="230.0" r="3" fill="#4e79a7"/><circle cx="201.6" cy="230.0" r="3" fill="#4e79a7"/><circle cx="220.3" cy="224.1" r="3" fill="#4e79a7"/><circle cx="239.0" cy="178.5" r="3" fill="#4e79a7"/><circle cx="257.7" cy="178.5" r="3" fill="#4e79a7"/><circle cx="276.4" cy="28.0" r="3" fill="#4e79a7"/><circle cx="295.1" cy="210.2" r="3" fill="#4e79a7"/><circle cx="313.8" cy="172.6" r="3" fill="#4e79a7"/><circle cx="332.5" cy="232.0" r="3" fill="#4e79a7"/><circle cx="351.2" cy="232.0" r="3" fill="#4e79a7"/><circle cx="369.9" cy="232.0" r="3" fill="#4e79a7"/><circle cx="388.6" cy="230.0" r="3" fill="#4e79a7"/><circle cx="407.3" cy="228.0" r="3" fill="#4e79a7"/><circle cx="426.0" cy="226.1" r="3" fill="#4e79a7"/><circle cx="444.7" cy="232.0" r="3" fill="#4e79a7"/><circle cx="463.4" cy="232.0" r="3" fill="#4e79a7"/><circle cx="482.1" cy="228.0" r="3" fill="#4e79a7"/><circle cx="500.8" cy="230.0" r="3" fill="#4e79a7"/><circle cx="519.5" cy="230.0" r="3" fill="#4e79a7"/><circle cx="538.2" cy="230.0" r="3" fill="#4e79a7"/><circle cx="556.9" cy="232.0" r="3" fill="#4e79a7"/><circle cx="575.6" cy="230.0" r="3" fill="#4e79a7"/><circle cx="594.3" cy="230.0" r="3" fill="#4e79a7"/><circle cx="613.0" cy="230.0" r="3" fill="#4e79a7"/><circle cx="631.7" cy="232.0" r="3" fill="#4e79a7"/><circle cx="650.4" cy="230.0" r="3" fill="#4e79a7"/><circle cx="669.1" cy="230.0" r="3" fill="#4e79a7"/><circle cx="687.8" cy="230.0" r="3" fill="#4e79a7"/><circle cx="706.5" cy="230.0" r="3" fill="#4e79a7"/><circle cx="725.2" cy="230.0" r="3" fill="#4e79a7"/><circle cx="743.9" cy="228.0" r="3" fill="#4e79a7"/><circle cx="762.6" cy="230.0" r="3" fill="#4e79a7"/><circle cx="781.3" cy="190.4" r="3" fill="#4e79a7"/><circle cx="800.0" cy="214.2" r="3" fill="#4e79a7"/>
  <circle cx="52.0" cy="232.0" r="3" fill="#f28e2b"/><circle cx="70.7" cy="230.0" r="3" fill="#f28e2b"/><circle cx="89.4" cy="228.0" r="3" fill="#f28e2b"/><circle cx="108.1" cy="174.6" r="3" fill="#f28e2b"/><circle cx="126.8" cy="226.1" r="3" fill="#f28e2b"/><circle cx="145.5" cy="232.0" r="3" fill="#f28e2b"/><circle cx="164.2" cy="232.0" r="3" fill="#f28e2b"/><circle cx="182.9" cy="230.0" r="3" fill="#f28e2b"/><circle cx="201.6" cy="230.0" r="3" fill="#f28e2b"/><circle cx="220.3" cy="224.1" r="3" fill="#f28e2b"/><circle cx="239.0" cy="214.2" r="3" fill="#f28e2b"/><circle cx="257.7" cy="196.3" r="3" fill="#f28e2b"/><circle cx="276.4" cy="138.9" r="3" fill="#f28e2b"/><circle cx="295.1" cy="224.1" r="3" fill="#f28e2b"/><circle cx="313.8" cy="222.1" r="3" fill="#f28e2b"/><circle cx="332.5" cy="232.0" r="3" fill="#f28e2b"/><circle cx="351.2" cy="232.0" r="3" fill="#f28e2b"/><circle cx="369.9" cy="232.0" r="3" fill="#f28e2b"/><circle cx="388.6" cy="230.0" r="3" fill="#f28e2b"/><circle cx="407.3" cy="228.0" r="3" fill="#f28e2b"/><circle cx="426.0" cy="228.0" r="3" fill="#f28e2b"/><circle cx="444.7" cy="232.0" r="3" fill="#f28e2b"/><circle cx="463.4" cy="232.0" r="3" fill="#f28e2b"/><circle cx="482.1" cy="228.0" r="3" fill="#f28e2b"/><circle cx="500.8" cy="230.0" r="3" fill="#f28e2b"/><circle cx="519.5" cy="230.0" r="3" fill="#f28e2b"/><circle cx="538.2" cy="230.0" r="3" fill="#f28e2b"/><circle cx="556.9" cy="232.0" r="3" fill="#f28e2b"/><circle cx="575.6" cy="230.0" r="3" fill="#f28e2b"/><circle cx="594.3" cy="230.0" r="3" fill="#f28e2b"/><circle cx="613.0" cy="230.0" r="3" fill="#f28e2b"/><circle cx="631.7" cy="232.0" r="3" fill="#f28e2b"/><circle cx="650.4" cy="230.0" r="3" fill="#f28e2b"/><circle cx="669.1" cy="230.0" r="3" fill="#f28e2b"/><circle cx="687.8" cy="230.0" r="3" fill="#f28e2b"/><circle cx="706.5" cy="230.0" r="3" fill="#f28e2b"/><circle cx="725.2" cy="230.0" r="3" fill="#f28e2b"/><circle cx="743.9" cy="228.0" r="3" fill="#f28e2b"/><circle cx="762.6" cy="230.0" r="3" fill="#f28e2b"/><circle cx="781.3" cy="220.1" r="3" fill="#f28e2b"/><circle cx="800.0" cy="224.1" r="3" fill="#f28e2b"/>

  <!-- axes -->
  <line x1="52" y1="28" x2="52" y2="232"
        stroke="#cccccc" stroke-width="1"/>
  <line x1="52" y1="232" x2="800" y2="232"
        stroke="#cccccc" stroke-width="1"/>

  <!-- y-axis labels -->
  <text x="47" y="236.0" text-anchor="end" font-size="10" fill="#57606a" font-family="ui-monospace, SFMono-Regular, 'SF Mono', Menlo, monospace">0</text><text x="47" y="196.4" text-anchor="end" font-size="10" fill="#57606a" font-family="ui-monospace, SFMono-Regular, 'SF Mono', Menlo, monospace">20</text><text x="47" y="156.8" text-anchor="end" font-size="10" fill="#57606a" font-family="ui-monospace, SFMono-Regular, 'SF Mono', Menlo, monospace">40</text><text x="47" y="117.2" text-anchor="end" font-size="10" fill="#57606a" font-family="ui-monospace, SFMono-Regular, 'SF Mono', Menlo, monospace">60</text><text x="47" y="77.6" text-anchor="end" font-size="10" fill="#57606a" font-family="ui-monospace, SFMono-Regular, 'SF Mono', Menlo, monospace">80</text><text x="47" y="37.9" text-anchor="end" font-size="10" fill="#57606a" font-family="ui-monospace, SFMono-Regular, 'SF Mono', Menlo, monospace">100</text><text x="47" y="-1.7" text-anchor="end" font-size="10" fill="#57606a" font-family="ui-monospace, SFMono-Regular, 'SF Mono', Menlo, monospace">120</text>

  <!-- x-axis labels -->
  <text x="52.0" y="248" text-anchor="middle" font-size="10" fill="#8c959f" font-family="ui-monospace, SFMono-Regular, 'SF Mono', Menlo, monospace">05-11</text><text x="706.5" y="248" text-anchor="middle" font-size="10" fill="#8c959f" font-family="ui-monospace, SFMono-Regular, 'SF Mono', Menlo, monospace">06-15</text><text x="145.5" y="248" text-anchor="middle" font-size="10" fill="#8c959f" font-family="ui-monospace, SFMono-Regular, 'SF Mono', Menlo, monospace">05-16</text><text x="800.0" y="248" text-anchor="middle" font-size="10" fill="#8c959f" font-family="ui-monospace, SFMono-Regular, 'SF Mono', Menlo, monospace">06-20</text><text x="239.0" y="248" text-anchor="middle" font-size="10" fill="#8c959f" font-family="ui-monospace, SFMono-Regular, 'SF Mono', Menlo, monospace">05-21</text><text x="332.5" y="248" text-anchor="middle" font-size="10" fill="#8c959f" font-family="ui-monospace, SFMono-Regular, 'SF Mono', Menlo, monospace">05-26</text><text x="426.0" y="248" text-anchor="middle" font-size="10" fill="#8c959f" font-family="ui-monospace, SFMono-Regular, 'SF Mono', Menlo, monospace">05-31</text><text x="519.5" y="248" text-anchor="middle" font-size="10" fill="#8c959f" font-family="ui-monospace, SFMono-Regular, 'SF Mono', Menlo, monospace">06-05</text><text x="613.0" y="248" text-anchor="middle" font-size="10" fill="#8c959f" font-family="ui-monospace, SFMono-Regular, 'SF Mono', Menlo, monospace">06-10</text>

  <!-- legend -->
  <rect x="60" y="262" width="16" height="3" fill="#4e79a7" rx="1"/><text x="80" y="268" font-size="11" fill="#57606a" font-family="-apple-system, BlinkMacSystemFont, 'Segoe UI', sans-serif">Total clones (307)</text><line x1="230" y1="264" x2="246" y2="264" stroke="#f28e2b" stroke-width="2" stroke-dasharray="5,3"/><text x="250" y="268" font-size="11" fill="#57606a" font-family="-apple-system, BlinkMacSystemFont, 'Segoe UI', sans-serif">Unique cloners</text>

</svg>