<svg xmlns="http://www.w3.org/2000/svg" viewBox="0 0 820 280" width="820" height="280">

  <!-- title -->
  <text x="52" y="18" font-size="13" font-weight="600"
        fill="#24292f" font-family="-apple-system, BlinkMacSystemFont, 'Segoe UI', sans-serif"
        >Clone traffic — nikos</text>
  <text x="800" y="18" font-size="10" fill="#8c959f"
        font-family="ui-monospace, SFMono-Regular, 'SF Mono', Menlo, monospace" text-anchor="end">2026-06-15</text>

  <!-- grid -->
  <line x1="52" y1="232.0" x2="800" y2="232.0" stroke="#e8e8e8" stroke-width="1"/><line x1="52" y1="192.4" x2="800" y2="192.4" stroke="#e8e8e8" stroke-width="1"/><line x1="52" y1="152.8" x2="800" y2="152.8" stroke="#e8e8e8" stroke-width="1"/><line x1="52" y1="113.2" x2="800" y2="113.2" stroke="#e8e8e8" stroke-width="1"/><line x1="52" y1="73.6" x2="800" y2="73.6" stroke="#e8e8e8" stroke-width="1"/><line x1="52" y1="33.9" x2="800" y2="33.9" stroke="#e8e8e8" stroke-width="1"/><line x1="52" y1="-5.7" x2="800" y2="-5.7" stroke="#e8e8e8" stroke-width="1"/>

  <!-- area fill -->
  <path d="M52.0,232.0 L52.0,232.0 L74.7,230.0 L97.3,228.0 L120.0,142.9 L142.7,226.1 L165.3,232.0 L188.0,232.0 L210.7,230.0 L233.3,230.0 L256.0,224.1 L278.7,178.5 L301.3,178.5 L324.0,28.0 L346.7,210.2 L369.3,172.6 L392.0,232.0 L414.7,232.0 L437.3,232.0 L460.0,230.0 L482.7,228.0 L505.3,226.1 L528.0,232.0 L550.7,232.0 L573.3,228.0 L596.0,230.0 L618.7,230.0 L641.3,230.0 L664.0,232.0 L686.7,230.0 L709.3,230.0 L732.0,230.0 L754.7,232.0 L777.3,230.0 L800.0,230.0 L800.0,232.0 L52.0,232.0Z" fill="#4e79a7" opacity="0.12"/>

  <!-- lines -->
  <polyline points="52.0,232.0 74.7,230.0 97.3,228.0 120.0,142.9 142.7,226.1 165.3,232.0 188.0,232.0 210.7,230.0 233.3,230.0 256.0,224.1 278.7,178.5 301.3,178.5 324.0,28.0 346.7,210.2 369.3,172.6 392.0,232.0 414.7,232.0 437.3,232.0 460.0,230.0 482.7,228.0 505.3,226.1 528.0,232.0 550.7,232.0 573.3,228.0 596.0,230.0 618.7,230.0 641.3,230.0 664.0,232.0 686.7,230.0 709.3,230.0 732.0,230.0 754.7,232.0 777.3,230.0 800.0,230.0"
            fill="none" stroke="#4e79a7"
            stroke-width="2" stroke-linejoin="round"/>
  <polyline points="52.0,232.0 74.7,230.0 97.3,228.0 120.0,174.6 142.7,226.1 165.3,232.0 188.0,232.0 210.7,230.0 233.3,230.0 256.0,224.1 278.7,214.2 301.3,196.3 324.0,138.9 346.7,224.1 369.3,222.1 392.0,232.0 414.7,232.0 437.3,232.0 460.0,230.0 482.7,228.0 505.3,228.0 528.0,232.0 550.7,232.0 573.3,228.0 596.0,230.0 618.7,230.0 641.3,230.0 664.0,232.0 686.7,230.0 709.3,230.0 732.0,230.0 754.7,232.0 777.3,230.0 800.0,230.0"
            fill="none" stroke="#f28e2b"
            stroke-width="2" stroke-linejoin="round"
            stroke-dasharray="5,3"/>

  <!-- dots -->
  <circle cx="52.0" cy="232.0" r="3" fill="#4e79a7"/><circle cx="74.7" cy="230.0" r="3" fill="#4e79a7"/><circle cx="97.3" cy="228.0" r="3" fill="#4e79a7"/><circle cx="120.0" cy="142.9" r="3" fill="#4e79a7"/><circle cx="142.7" cy="226.1" r="3" fill="#4e79a7"/><circle cx="165.3" cy="232.0" r="3" fill="#4e79a7"/><circle cx="188.0" cy="232.0" r="3" fill="#4e79a7"/><circle cx="210.7" cy="230.0" r="3" fill="#4e79a7"/><circle cx="233.3" cy="230.0" r="3" fill="#4e79a7"/><circle cx="256.0" cy="224.1" r="3" fill="#4e79a7"/><circle cx="278.7" cy="178.5" r="3" fill="#4e79a7"/><circle cx="301.3" cy="178.5" r="3" fill="#4e79a7"/><circle cx="324.0" cy="28.0" r="3" fill="#4e79a7"/><circle cx="346.7" cy="210.2" r="3" fill="#4e79a7"/><circle cx="369.3" cy="172.6" r="3" fill="#4e79a7"/><circle cx="392.0" cy="232.0" r="3" fill="#4e79a7"/><circle cx="414.7" cy="232.0" r="3" fill="#4e79a7"/><circle cx="437.3" cy="232.0" r="3" fill="#4e79a7"/><circle cx="460.0" cy="230.0" r="3" fill="#4e79a7"/><circle cx="482.7" cy="228.0" r="3" fill="#4e79a7"/><circle cx="505.3" cy="226.1" r="3" fill="#4e79a7"/><circle cx="528.0" cy="232.0" r="3" fill="#4e79a7"/><circle cx="550.7" cy="232.0" r="3" fill="#4e79a7"/><circle cx="573.3" cy="228.0" r="3" fill="#4e79a7"/><circle cx="596.0" cy="230.0" r="3" fill="#4e79a7"/><circle cx="618.7" cy="230.0" r="3" fill="#4e79a7"/><circle cx="641.3" cy="230.0" r="3" fill="#4e79a7"/><circle cx="664.0" cy="232.0" r="3" fill="#4e79a7"/><circle cx="686.7" cy="230.0" r="3" fill="#4e79a7"/><circle cx="709.3" cy="230.0" r="3" fill="#4e79a7"/><circle cx="732.0" cy="230.0" r="3" fill="#4e79a7"/><circle cx="754.7" cy="232.0" r="3" fill="#4e79a7"/><circle cx="777.3" cy="230.0" r="3" fill="#4e79a7"/><circle cx="800.0" cy="230.0" r="3" fill="#4e79a7"/>
  <circle cx="52.0" cy="232.0" r="3" fill="#f28e2b"/><circle cx="74.7" cy="230.0" r="3" fill="#f28e2b"/><circle cx="97.3" cy="228.0" r="3" fill="#f28e2b"/><circle cx="120.0" cy="174.6" r="3" fill="#f28e2b"/><circle cx="142.7" cy="226.1" r="3" fill="#f28e2b"/><circle cx="165.3" cy="232.0" r="3" fill="#f28e2b"/><circle cx="188.0" cy="232.0" r="3" fill="#f28e2b"/><circle cx="210.7" cy="230.0" r="3" fill="#f28e2b"/><circle cx="233.3" cy="230.0" r="3" fill="#f28e2b"/><circle cx="256.0" cy="224.1" r="3" fill="#f28e2b"/><circle cx="278.7" cy="214.2" r="3" fill="#f28e2b"/><circle cx="301.3" cy="196.3" r="3" fill="#f28e2b"/><circle cx="324.0" cy="138.9" r="3" fill="#f28e2b"/><circle cx="346.7" cy="224.1" r="3" fill="#f28e2b"/><circle cx="369.3" cy="222.1" r="3" fill="#f28e2b"/><circle cx="392.0" cy="232.0" r="3" fill="#f28e2b"/><circle cx="414.7" cy="232.0" r="3" fill="#f28e2b"/><circle cx="437.3" cy="232.0" r="3" fill="#f28e2b"/><circle cx="460.0" cy="230.0" r="3" fill="#f28e2b"/><circle cx="482.7" cy="228.0" r="3" fill="#f28e2b"/><circle cx="505.3" cy="228.0" r="3" fill="#f28e2b"/><circle cx="528.0" cy="232.0" r="3" fill="#f28e2b"/><circle cx="550.7" cy="232.0" r="3" fill="#f28e2b"/><circle cx="573.3" cy="228.0" r="3" fill="#f28e2b"/><circle cx="596.0" cy="230.0" r="3" fill="#f28e2b"/><circle cx="618.7" cy="230.0" r="3" fill="#f28e2b"/><circle cx="641.3" cy="230.0" r="3" fill="#f28e2b"/><circle cx="664.0" cy="232.0" r="3" fill="#f28e2b"/><circle cx="686.7" cy="230.0" r="3" fill="#f28e2b"/><circle cx="709.3" cy="230.0" r="3" fill="#f28e2b"/><circle cx="732.0" cy="230.0" r="3" fill="#f28e2b"/><circle cx="754.7" cy="232.0" r="3" fill="#f28e2b"/><circle cx="777.3" cy="230.0" r="3" fill="#f28e2b"/><circle cx="800.0" cy="230.0" r="3" fill="#f28e2b"/>

  <!-- axes -->
  <line x1="52" y1="28" x2="52" y2="232"
        stroke="#cccccc" stroke-width="1"/>
  <line x1="52" y1="232" x2="800" y2="232"
        stroke="#cccccc" stroke-width="1"/>

  <!-- y-axis labels -->
  <text x="47" y="236.0" text-anchor="end" font-size="10" fill="#57606a" font-family="ui-monospace, SFMono-Regular, 'SF Mono', Menlo, monospace">0</text><text x="47" y="196.4" text-anchor="end" font-size="10" fill="#57606a" font-family="ui-monospace, SFMono-Regular, 'SF Mono', Menlo, monospace">20</text><text x="47" y="156.8" text-anchor="end" font-size="10" fill="#57606a" font-family="ui-monospace, SFMono-Regular, 'SF Mono', Menlo, monospace">40</text><text x="47" y="117.2" text-anchor="end" font-size="10" fill="#57606a" font-family="ui-monospace, SFMono-Regular, 'SF Mono', Menlo, monospace">60</text><text x="47" y="77.6" text-anchor="end" font-size="10" fill="#57606a" font-family="ui-monospace, SFMono-Regular, 'SF Mono', Menlo, monospace">80</text><text x="47" y="37.9" text-anchor="end" font-size="10" fill="#57606a" font-family="ui-monospace, SFMono-Regular, 'SF Mono', Menlo, monospace">100</text><text x="47" y="-1.7" text-anchor="end" font-size="10" fill="#57606a" font-family="ui-monospace, SFMono-Regular, 'SF Mono', Menlo, monospace">120</text>

  <!-- x-axis labels -->
  <text x="52.0" y="248" text-anchor="middle" font-size="10" fill="#8c959f" font-family="ui-monospace, SFMono-Regular, 'SF Mono', Menlo, monospace">05-11</text><text x="777.3" y="248" text-anchor="middle" font-size="10" fill="#8c959f" font-family="ui-monospace, SFMono-Regular, 'SF Mono', Menlo, monospace">06-12</text><text x="800.0" y="248" text-anchor="middle" font-size="10" fill="#8c959f" font-family="ui-monospace, SFMono-Regular, 'SF Mono', Menlo, monospace">06-13</text><text x="142.7" y="248" text-anchor="middle" font-size="10" fill="#8c959f" font-family="ui-monospace, SFMono-Regular, 'SF Mono', Menlo, monospace">05-15</text><text x="233.3" y="248" text-anchor="middle" font-size="10" fill="#8c959f" font-family="ui-monospace, SFMono-Regular, 'SF Mono', Menlo, monospace">05-19</text><text x="324.0" y="248" text-anchor="middle" font-size="10" fill="#8c959f" font-family="ui-monospace, SFMono-Regular, 'SF Mono', Menlo, monospace">05-23</text><text x="414.7" y="248" text-anchor="middle" font-size="10" fill="#8c959f" font-family="ui-monospace, SFMono-Regular, 'SF Mono', Menlo, monospace">05-27</text><text x="505.3" y="248" text-anchor="middle" font-size="10" fill="#8c959f" font-family="ui-monospace, SFMono-Regular, 'SF Mono', Menlo, monospace">05-31</text><text x="596.0" y="248" text-anchor="middle" font-size="10" fill="#8c959f" font-family="ui-monospace, SFMono-Regular, 'SF Mono', Menlo, monospace">06-04</text><text x="686.7" y="248" text-anchor="middle" font-size="10" fill="#8c959f" font-family="ui-monospace, SFMono-Regular, 'SF Mono', Menlo, monospace">06-08</text>

  <!-- legend -->
  <rect x="60" y="262" width="16" height="3" fill="#4e79a7" rx="1"/><text x="80" y="268" font-size="11" fill="#57606a" font-family="-apple-system, BlinkMacSystemFont, 'Segoe UI', sans-serif">Total clones (271)</text><line x1="230" y1="264" x2="246" y2="264" stroke="#f28e2b" stroke-width="2" stroke-dasharray="5,3"/><text x="250" y="268" font-size="11" fill="#57606a" font-family="-apple-system, BlinkMacSystemFont, 'Segoe UI', sans-serif">Unique cloners</text>

</svg>