<svg xmlns="http://www.w3.org/2000/svg" viewBox="0 0 820 280" width="820" height="280">

  <!-- title -->
  <text x="52" y="18" font-size="13" font-weight="600"
        fill="#24292f" font-family="-apple-system, BlinkMacSystemFont, 'Segoe UI', sans-serif"
        >Clone traffic — nikos</text>
  <text x="800" y="18" font-size="10" fill="#8c959f"
        font-family="ui-monospace, SFMono-Regular, 'SF Mono', Menlo, monospace" text-anchor="end">2026-07-02</text>

  <!-- grid -->
  <line x1="52" y1="232.0" x2="800" y2="232.0" stroke="#e8e8e8" stroke-width="1"/><line x1="52" y1="192.4" x2="800" y2="192.4" stroke="#e8e8e8" stroke-width="1"/><line x1="52" y1="152.8" x2="800" y2="152.8" stroke="#e8e8e8" stroke-width="1"/><line x1="52" y1="113.2" x2="800" y2="113.2" stroke="#e8e8e8" stroke-width="1"/><line x1="52" y1="73.6" x2="800" y2="73.6" stroke="#e8e8e8" stroke-width="1"/><line x1="52" y1="33.9" x2="800" y2="33.9" stroke="#e8e8e8" stroke-width="1"/><line x1="52" y1="-5.7" x2="800" y2="-5.7" stroke="#e8e8e8" stroke-width="1"/>

  <!-- area fill -->
  <path d="M52.0,232.0 L52.0,232.0 L67.0,230.0 L81.9,228.0 L96.9,142.9 L111.8,226.1 L126.8,232.0 L141.8,232.0 L156.7,230.0 L171.7,230.0 L186.6,224.1 L201.6,178.5 L216.6,178.5 L231.5,28.0 L246.5,210.2 L261.4,172.6 L276.4,232.0 L291.4,232.0 L306.3,232.0 L321.3,230.0 L336.2,228.0 L351.2,226.1 L366.2,232.0 L381.1,232.0 L396.1,228.0 L411.0,230.0 L426.0,230.0 L441.0,230.0 L455.9,232.0 L470.9,230.0 L485.8,230.0 L500.8,230.0 L515.8,232.0 L530.7,230.0 L545.7,230.0 L560.6,230.0 L575.6,230.0 L590.6,230.0 L605.5,228.0 L620.5,230.0 L635.4,190.4 L650.4,214.2 L665.4,224.1 L680.3,51.8 L695.3,136.9 L710.2,119.1 L725.2,154.8 L740.2,232.0 L755.1,230.0 L770.1,232.0 L785.0,232.0 L800.0,232.0 L800.0,232.0 L52.0,232.0Z" fill="#4e79a7" opacity="0.12"/>

  <!-- lines -->
  <polyline points="52.0,232.0 67.0,230.0 81.9,228.0 96.9,142.9 111.8,226.1 126.8,232.0 141.8,232.0 156.7,230.0 171.7,230.0 186.6,224.1 201.6,178.5 216.6,178.5 231.5,28.0 246.5,210.2 261.4,172.6 276.4,232.0 291.4,232.0 306.3,232.0 321.3,230.0 336.2,228.0 351.2,226.1 366.2,232.0 381.1,232.0 396.1,228.0 411.0,230.0 426.0,230.0 441.0,230.0 455.9,232.0 470.9,230.0 485.8,230.0 500.8,230.0 515.8,232.0 530.7,230.0 545.7,230.0 560.6,230.0 575.6,230.0 590.6,230.0 605.5,228.0 620.5,230.0 635.4,190.4 650.4,214.2 665.4,224.1 680.3,51.8 695.3,136.9 710.2,119.1 725.2,154.8 740.2,232.0 755.1,230.0 770.1,232.0 785.0,232.0 800.0,232.0"
            fill="none" stroke="#4e79a7"
            stroke-width="2" stroke-linejoin="round"/>
  <polyline points="52.0,232.0 67.0,230.0 81.9,228.0 96.9,174.6 111.8,226.1 126.8,232.0 141.8,232.0 156.7,230.0 171.7,230.0 186.6,224.1 201.6,214.2 216.6,196.3 231.5,138.9 246.5,224.1 261.4,222.1 276.4,232.0 291.4,232.0 306.3,232.0 321.3,230.0 336.2,228.0 351.2,228.0 366.2,232.0 381.1,232.0 396.1,228.0 411.0,230.0 426.0,230.0 441.0,230.0 455.9,232.0 470.9,230.0 485.8,230.0 500.8,230.0 515.8,232.0 530.7,230.0 545.7,230.0 560.6,230.0 575.6,230.0 590.6,230.0 605.5,228.0 620.5,230.0 635.4,220.1 650.4,224.1 665.4,230.0 680.3,194.4 695.3,206.3 710.2,202.3 725.2,212.2 740.2,232.0 755.1,230.0 770.1,232.0 785.0,232.0 800.0,232.0"
            fill="none" stroke="#f28e2b"
            stroke-width="2" stroke-linejoin="round"
            stroke-dasharray="5,3"/>

  <!-- dots -->
  <circle cx="52.0" cy="232.0" r="3" fill="#4e79a7"/><circle cx="67.0" cy="230.0" r="3" fill="#4e79a7"/><circle cx="81.9" cy="228.0" r="3" fill="#4e79a7"/><circle cx="96.9" cy="142.9" r="3" fill="#4e79a7"/><circle cx="111.8" cy="226.1" r="3" fill="#4e79a7"/><circle cx="126.8" cy="232.0" r="3" fill="#4e79a7"/><circle cx="141.8" cy="232.0" r="3" fill="#4e79a7"/><circle cx="156.7" cy="230.0" r="3" fill="#4e79a7"/><circle cx="171.7" cy="230.0" r="3" fill="#4e79a7"/><circle cx="186.6" cy="224.1" r="3" fill="#4e79a7"/><circle cx="201.6" cy="178.5" r="3" fill="#4e79a7"/><circle cx="216.6" cy="178.5" r="3" fill="#4e79a7"/><circle cx="231.5" cy="28.0" r="3" fill="#4e79a7"/><circle cx="246.5" cy="210.2" r="3" fill="#4e79a7"/><circle cx="261.4" cy="172.6" r="3" fill="#4e79a7"/><circle cx="276.4" cy="232.0" r="3" fill="#4e79a7"/><circle cx="291.4" cy="232.0" r="3" fill="#4e79a7"/><circle cx="306.3" cy="232.0" r="3" fill="#4e79a7"/><circle cx="321.3" cy="230.0" r="3" fill="#4e79a7"/><circle cx="336.2" cy="228.0" r="3" fill="#4e79a7"/><circle cx="351.2" cy="226.1" r="3" fill="#4e79a7"/><circle cx="366.2" cy="232.0" r="3" fill="#4e79a7"/><circle cx="381.1" cy="232.0" r="3" fill="#4e79a7"/><circle cx="396.1" cy="228.0" r="3" fill="#4e79a7"/><circle cx="411.0" cy="230.0" r="3" fill="#4e79a7"/><circle cx="426.0" cy="230.0" r="3" fill="#4e79a7"/><circle cx="441.0" cy="230.0" r="3" fill="#4e79a7"/><circle cx="455.9" cy="232.0" r="3" fill="#4e79a7"/><circle cx="470.9" cy="230.0" r="3" fill="#4e79a7"/><circle cx="485.8" cy="230.0" r="3" fill="#4e79a7"/><circle cx="500.8" cy="230.0" r="3" fill="#4e79a7"/><circle cx="515.8" cy="232.0" r="3" fill="#4e79a7"/><circle cx="530.7" cy="230.0" r="3" fill="#4e79a7"/><circle cx="545.7" cy="230.0" r="3" fill="#4e79a7"/><circle cx="560.6" cy="230.0" r="3" fill="#4e79a7"/><circle cx="575.6" cy="230.0" r="3" fill="#4e79a7"/><circle cx="590.6" cy="230.0" r="3" fill="#4e79a7"/><circle cx="605.5" cy="228.0" r="3" fill="#4e79a7"/><circle cx="620.5" cy="230.0" r="3" fill="#4e79a7"/><circle cx="635.4" cy="190.4" r="3" fill="#4e79a7"/><circle cx="650.4" cy="214.2" r="3" fill="#4e79a7"/><circle cx="665.4" cy="224.1" r="3" fill="#4e79a7"/><circle cx="680.3" cy="51.8" r="3" fill="#4e79a7"/><circle cx="695.3" cy="136.9" r="3" fill="#4e79a7"/><circle cx="710.2" cy="119.1" r="3" fill="#4e79a7"/><circle cx="725.2" cy="154.8" r="3" fill="#4e79a7"/><circle cx="740.2" cy="232.0" r="3" fill="#4e79a7"/><circle cx="755.1" cy="230.0" r="3" fill="#4e79a7"/><circle cx="770.1" cy="232.0" r="3" fill="#4e79a7"/><circle cx="785.0" cy="232.0" r="3" fill="#4e79a7"/><circle cx="800.0" cy="232.0" r="3" fill="#4e79a7"/>
  <circle cx="52.0" cy="232.0" r="3" fill="#f28e2b"/><circle cx="67.0" cy="230.0" r="3" fill="#f28e2b"/><circle cx="81.9" cy="228.0" r="3" fill="#f28e2b"/><circle cx="96.9" cy="174.6" r="3" fill="#f28e2b"/><circle cx="111.8" cy="226.1" r="3" fill="#f28e2b"/><circle cx="126.8" cy="232.0" r="3" fill="#f28e2b"/><circle cx="141.8" cy="232.0" r="3" fill="#f28e2b"/><circle cx="156.7" cy="230.0" r="3" fill="#f28e2b"/><circle cx="171.7" cy="230.0" r="3" fill="#f28e2b"/><circle cx="186.6" cy="224.1" r="3" fill="#f28e2b"/><circle cx="201.6" cy="214.2" r="3" fill="#f28e2b"/><circle cx="216.6" cy="196.3" r="3" fill="#f28e2b"/><circle cx="231.5" cy="138.9" r="3" fill="#f28e2b"/><circle cx="246.5" cy="224.1" r="3" fill="#f28e2b"/><circle cx="261.4" cy="222.1" r="3" fill="#f28e2b"/><circle cx="276.4" cy="232.0" r="3" fill="#f28e2b"/><circle cx="291.4" cy="232.0" r="3" fill="#f28e2b"/><circle cx="306.3" cy="232.0" r="3" fill="#f28e2b"/><circle cx="321.3" cy="230.0" r="3" fill="#f28e2b"/><circle cx="336.2" cy="228.0" r="3" fill="#f28e2b"/><circle cx="351.2" cy="228.0" r="3" fill="#f28e2b"/><circle cx="366.2" cy="232.0" r="3" fill="#f28e2b"/><circle cx="381.1" cy="232.0" r="3" fill="#f28e2b"/><circle cx="396.1" cy="228.0" r="3" fill="#f28e2b"/><circle cx="411.0" cy="230.0" r="3" fill="#f28e2b"/><circle cx="426.0" cy="230.0" r="3" fill="#f28e2b"/><circle cx="441.0" cy="230.0" r="3" fill="#f28e2b"/><circle cx="455.9" cy="232.0" r="3" fill="#f28e2b"/><circle cx="470.9" cy="230.0" r="3" fill="#f28e2b"/><circle cx="485.8" cy="230.0" r="3" fill="#f28e2b"/><circle cx="500.8" cy="230.0" r="3" fill="#f28e2b"/><circle cx="515.8" cy="232.0" r="3" fill="#f28e2b"/><circle cx="530.7" cy="230.0" r="3" fill="#f28e2b"/><circle cx="545.7" cy="230.0" r="3" fill="#f28e2b"/><circle cx="560.6" cy="230.0" r="3" fill="#f28e2b"/><circle cx="575.6" cy="230.0" r="3" fill="#f28e2b"/><circle cx="590.6" cy="230.0" r="3" fill="#f28e2b"/><circle cx="605.5" cy="228.0" r="3" fill="#f28e2b"/><circle cx="620.5" cy="230.0" r="3" fill="#f28e2b"/><circle cx="635.4" cy="220.1" r="3" fill="#f28e2b"/><circle cx="650.4" cy="224.1" r="3" fill="#f28e2b"/><circle cx="665.4" cy="230.0" r="3" fill="#f28e2b"/><circle cx="680.3" cy="194.4" r="3" fill="#f28e2b"/><circle cx="695.3" cy="206.3" r="3" fill="#f28e2b"/><circle cx="710.2" cy="202.3" r="3" fill="#f28e2b"/><circle cx="725.2" cy="212.2" r="3" fill="#f28e2b"/><circle cx="740.2" cy="232.0" r="3" fill="#f28e2b"/><circle cx="755.1" cy="230.0" r="3" fill="#f28e2b"/><circle cx="770.1" cy="232.0" r="3" fill="#f28e2b"/><circle cx="785.0" cy="232.0" r="3" fill="#f28e2b"/><circle cx="800.0" cy="232.0" r="3" fill="#f28e2b"/>

  <!-- axes -->
  <line x1="52" y1="28" x2="52" y2="232"
        stroke="#cccccc" stroke-width="1"/>
  <line x1="52" y1="232" x2="800" y2="232"
        stroke="#cccccc" stroke-width="1"/>

  <!-- y-axis labels -->
  <text x="47" y="236.0" text-anchor="end" font-size="10" fill="#57606a" font-family="ui-monospace, SFMono-Regular, 'SF Mono', Menlo, monospace">0</text><text x="47" y="196.4" text-anchor="end" font-size="10" fill="#57606a" font-family="ui-monospace, SFMono-Regular, 'SF Mono', Menlo, monospace">20</text><text x="47" y="156.8" text-anchor="end" font-size="10" fill="#57606a" font-family="ui-monospace, SFMono-Regular, 'SF Mono', Menlo, monospace">40</text><text x="47" y="117.2" text-anchor="end" font-size="10" fill="#57606a" font-family="ui-monospace, SFMono-Regular, 'SF Mono', Menlo, monospace">60</text><text x="47" y="77.6" text-anchor="end" font-size="10" fill="#57606a" font-family="ui-monospace, SFMono-Regular, 'SF Mono', Menlo, monospace">80</text><text x="47" y="37.9" text-anchor="end" font-size="10" fill="#57606a" font-family="ui-monospace, SFMono-Regular, 'SF Mono', Menlo, monospace">100</text><text x="47" y="-1.7" text-anchor="end" font-size="10" fill="#57606a" font-family="ui-monospace, SFMono-Regular, 'SF Mono', Menlo, monospace">120</text>

  <!-- x-axis labels -->
  <text x="52.0" y="248" text-anchor="middle" font-size="10" fill="#8c959f" font-family="ui-monospace, SFMono-Regular, 'SF Mono', Menlo, monospace">05-11</text><text x="590.6" y="248" text-anchor="middle" font-size="10" fill="#8c959f" font-family="ui-monospace, SFMono-Regular, 'SF Mono', Menlo, monospace">06-16</text><text x="141.8" y="248" text-anchor="middle" font-size="10" fill="#8c959f" font-family="ui-monospace, SFMono-Regular, 'SF Mono', Menlo, monospace">05-17</text><text x="680.3" y="248" text-anchor="middle" font-size="10" fill="#8c959f" font-family="ui-monospace, SFMono-Regular, 'SF Mono', Menlo, monospace">06-22</text><text x="231.5" y="248" text-anchor="middle" font-size="10" fill="#8c959f" font-family="ui-monospace, SFMono-Regular, 'SF Mono', Menlo, monospace">05-23</text><text x="770.1" y="248" text-anchor="middle" font-size="10" fill="#8c959f" font-family="ui-monospace, SFMono-Regular, 'SF Mono', Menlo, monospace">06-28</text><text x="321.3" y="248" text-anchor="middle" font-size="10" fill="#8c959f" font-family="ui-monospace, SFMono-Regular, 'SF Mono', Menlo, monospace">05-29</text><text x="800.0" y="248" text-anchor="middle" font-size="10" fill="#8c959f" font-family="ui-monospace, SFMono-Regular, 'SF Mono', Menlo, monospace">06-30</text><text x="411.0" y="248" text-anchor="middle" font-size="10" fill="#8c959f" font-family="ui-monospace, SFMono-Regular, 'SF Mono', Menlo, monospace">06-04</text><text x="500.8" y="248" text-anchor="middle" font-size="10" fill="#8c959f" font-family="ui-monospace, SFMono-Regular, 'SF Mono', Menlo, monospace">06-10</text>

  <!-- legend -->
  <rect x="60" y="262" width="16" height="3" fill="#4e79a7" rx="1"/><text x="80" y="268" font-size="11" fill="#57606a" font-family="-apple-system, BlinkMacSystemFont, 'Segoe UI', sans-serif">Total clones (547)</text><line x1="230" y1="264" x2="246" y2="264" stroke="#f28e2b" stroke-width="2" stroke-dasharray="5,3"/><text x="250" y="268" font-size="11" fill="#57606a" font-family="-apple-system, BlinkMacSystemFont, 'Segoe UI', sans-serif">Unique cloners</text>

</svg>