<svg xmlns="http://www.w3.org/2000/svg" viewBox="0 0 820 280" width="820" height="280">

  <!-- title -->
  <text x="52" y="18" font-size="13" font-weight="600"
        fill="#24292f" font-family="-apple-system, BlinkMacSystemFont, 'Segoe UI', sans-serif"
        >Clone traffic — nikos</text>
  <text x="800" y="18" font-size="10" fill="#8c959f"
        font-family="ui-monospace, SFMono-Regular, 'SF Mono', Menlo, monospace" text-anchor="end">2026-07-12</text>

  <!-- grid -->
  <line x1="52" y1="232.0" x2="800" y2="232.0" stroke="#e8e8e8" stroke-width="1"/><line x1="52" y1="192.4" x2="800" y2="192.4" stroke="#e8e8e8" stroke-width="1"/><line x1="52" y1="152.8" x2="800" y2="152.8" stroke="#e8e8e8" stroke-width="1"/><line x1="52" y1="113.2" x2="800" y2="113.2" stroke="#e8e8e8" stroke-width="1"/><line x1="52" y1="73.6" x2="800" y2="73.6" stroke="#e8e8e8" stroke-width="1"/><line x1="52" y1="33.9" x2="800" y2="33.9" stroke="#e8e8e8" stroke-width="1"/><line x1="52" y1="-5.7" x2="800" y2="-5.7" stroke="#e8e8e8" stroke-width="1"/>

  <!-- area fill -->
  <path d="M52.0,232.0 L52.0,232.0 L64.5,230.0 L76.9,228.0 L89.4,142.9 L101.9,226.1 L114.3,232.0 L126.8,232.0 L139.3,230.0 L151.7,230.0 L164.2,224.1 L176.7,178.5 L189.1,178.5 L201.6,28.0 L214.1,210.2 L226.5,172.6 L239.0,232.0 L251.5,232.0 L263.9,232.0 L276.4,230.0 L288.9,228.0 L301.3,226.1 L313.8,232.0 L326.3,232.0 L338.7,228.0 L351.2,230.0 L363.7,230.0 L376.1,230.0 L388.6,232.0 L401.1,230.0 L413.5,230.0 L426.0,230.0 L438.5,232.0 L450.9,230.0 L463.4,230.0 L475.9,230.0 L488.3,230.0 L500.8,230.0 L513.3,228.0 L525.7,230.0 L538.2,190.4 L550.7,214.2 L563.1,224.1 L575.6,51.8 L588.1,136.9 L600.5,119.1 L613.0,154.8 L625.5,232.0 L637.9,230.0 L650.4,232.0 L662.9,232.0 L675.3,232.0 L687.8,232.0 L700.3,232.0 L712.7,232.0 L725.2,228.0 L737.7,232.0 L750.1,232.0 L762.6,232.0 L775.1,232.0 L787.5,230.0 L800.0,230.0 L800.0,232.0 L52.0,232.0Z" fill="#4e79a7" opacity="0.12"/>

  <!-- lines -->
  <polyline points="52.0,232.0 64.5,230.0 76.9,228.0 89.4,142.9 101.9,226.1 114.3,232.0 126.8,232.0 139.3,230.0 151.7,230.0 164.2,224.1 176.7,178.5 189.1,178.5 201.6,28.0 214.1,210.2 226.5,172.6 239.0,232.0 251.5,232.0 263.9,232.0 276.4,230.0 288.9,228.0 301.3,226.1 313.8,232.0 326.3,232.0 338.7,228.0 351.2,230.0 363.7,230.0 376.1,230.0 388.6,232.0 401.1,230.0 413.5,230.0 426.0,230.0 438.5,232.0 450.9,230.0 463.4,230.0 475.9,230.0 488.3,230.0 500.8,230.0 513.3,228.0 525.7,230.0 538.2,190.4 550.7,214.2 563.1,224.1 575.6,51.8 588.1,136.9 600.5,119.1 613.0,154.8 625.5,232.0 637.9,230.0 650.4,232.0 662.9,232.0 675.3,232.0 687.8,232.0 700.3,232.0 712.7,232.0 725.2,228.0 737.7,232.0 750.1,232.0 762.6,232.0 775.1,232.0 787.5,230.0 800.0,230.0"
            fill="none" stroke="#4e79a7"
            stroke-width="2" stroke-linejoin="round"/>
  <polyline points="52.0,232.0 64.5,230.0 76.9,228.0 89.4,174.6 101.9,226.1 114.3,232.0 126.8,232.0 139.3,230.0 151.7,230.0 164.2,224.1 176.7,214.2 189.1,196.3 201.6,138.9 214.1,224.1 226.5,222.1 239.0,232.0 251.5,232.0 263.9,232.0 276.4,230.0 288.9,228.0 301.3,228.0 313.8,232.0 326.3,232.0 338.7,228.0 351.2,230.0 363.7,230.0 376.1,230.0 388.6,232.0 401.1,230.0 413.5,230.0 426.0,230.0 438.5,232.0 450.9,230.0 463.4,230.0 475.9,230.0 488.3,230.0 500.8,230.0 513.3,228.0 525.7,230.0 538.2,220.1 550.7,224.1 563.1,230.0 575.6,194.4 588.1,206.3 600.5,202.3 613.0,212.2 625.5,232.0 637.9,230.0 650.4,232.0 662.9,232.0 675.3,232.0 687.8,232.0 700.3,232.0 712.7,232.0 725.2,230.0 737.7,232.0 750.1,232.0 762.6,232.0 775.1,232.0 787.5,230.0 800.0,230.0"
            fill="none" stroke="#f28e2b"
            stroke-width="2" stroke-linejoin="round"
            stroke-dasharray="5,3"/>

  <!-- dots -->
  <circle cx="52.0" cy="232.0" r="3" fill="#4e79a7"/><circle cx="64.5" cy="230.0" r="3" fill="#4e79a7"/><circle cx="76.9" cy="228.0" r="3" fill="#4e79a7"/><circle cx="89.4" cy="142.9" r="3" fill="#4e79a7"/><circle cx="101.9" cy="226.1" r="3" fill="#4e79a7"/><circle cx="114.3" cy="232.0" r="3" fill="#4e79a7"/><circle cx="126.8" cy="232.0" r="3" fill="#4e79a7"/><circle cx="139.3" cy="230.0" r="3" fill="#4e79a7"/><circle cx="151.7" cy="230.0" r="3" fill="#4e79a7"/><circle cx="164.2" cy="224.1" r="3" fill="#4e79a7"/><circle cx="176.7" cy="178.5" r="3" fill="#4e79a7"/><circle cx="189.1" cy="178.5" r="3" fill="#4e79a7"/><circle cx="201.6" cy="28.0" r="3" fill="#4e79a7"/><circle cx="214.1" cy="210.2" r="3" fill="#4e79a7"/><circle cx="226.5" cy="172.6" r="3" fill="#4e79a7"/><circle cx="239.0" cy="232.0" r="3" fill="#4e79a7"/><circle cx="251.5" cy="232.0" r="3" fill="#4e79a7"/><circle cx="263.9" cy="232.0" r="3" fill="#4e79a7"/><circle cx="276.4" cy="230.0" r="3" fill="#4e79a7"/><circle cx="288.9" cy="228.0" r="3" fill="#4e79a7"/><circle cx="301.3" cy="226.1" r="3" fill="#4e79a7"/><circle cx="313.8" cy="232.0" r="3" fill="#4e79a7"/><circle cx="326.3" cy="232.0" r="3" fill="#4e79a7"/><circle cx="338.7" cy="228.0" r="3" fill="#4e79a7"/><circle cx="351.2" cy="230.0" r="3" fill="#4e79a7"/><circle cx="363.7" cy="230.0" r="3" fill="#4e79a7"/><circle cx="376.1" cy="230.0" r="3" fill="#4e79a7"/><circle cx="388.6" cy="232.0" r="3" fill="#4e79a7"/><circle cx="401.1" cy="230.0" r="3" fill="#4e79a7"/><circle cx="413.5" cy="230.0" r="3" fill="#4e79a7"/><circle cx="426.0" cy="230.0" r="3" fill="#4e79a7"/><circle cx="438.5" cy="232.0" r="3" fill="#4e79a7"/><circle cx="450.9" cy="230.0" r="3" fill="#4e79a7"/><circle cx="463.4" cy="230.0" r="3" fill="#4e79a7"/><circle cx="475.9" cy="230.0" r="3" fill="#4e79a7"/><circle cx="488.3" cy="230.0" r="3" fill="#4e79a7"/><circle cx="500.8" cy="230.0" r="3" fill="#4e79a7"/><circle cx="513.3" cy="228.0" r="3" fill="#4e79a7"/><circle cx="525.7" cy="230.0" r="3" fill="#4e79a7"/><circle cx="538.2" cy="190.4" r="3" fill="#4e79a7"/><circle cx="550.7" cy="214.2" r="3" fill="#4e79a7"/><circle cx="563.1" cy="224.1" r="3" fill="#4e79a7"/><circle cx="575.6" cy="51.8" r="3" fill="#4e79a7"/><circle cx="588.1" cy="136.9" r="3" fill="#4e79a7"/><circle cx="600.5" cy="119.1" r="3" fill="#4e79a7"/><circle cx="613.0" cy="154.8" r="3" fill="#4e79a7"/><circle cx="625.5" cy="232.0" r="3" fill="#4e79a7"/><circle cx="637.9" cy="230.0" r="3" fill="#4e79a7"/><circle cx="650.4" cy="232.0" r="3" fill="#4e79a7"/><circle cx="662.9" cy="232.0" r="3" fill="#4e79a7"/><circle cx="675.3" cy="232.0" r="3" fill="#4e79a7"/><circle cx="687.8" cy="232.0" r="3" fill="#4e79a7"/><circle cx="700.3" cy="232.0" r="3" fill="#4e79a7"/><circle cx="712.7" cy="232.0" r="3" fill="#4e79a7"/><circle cx="725.2" cy="228.0" r="3" fill="#4e79a7"/><circle cx="737.7" cy="232.0" r="3" fill="#4e79a7"/><circle cx="750.1" cy="232.0" r="3" fill="#4e79a7"/><circle cx="762.6" cy="232.0" r="3" fill="#4e79a7"/><circle cx="775.1" cy="232.0" r="3" fill="#4e79a7"/><circle cx="787.5" cy="230.0" r="3" fill="#4e79a7"/><circle cx="800.0" cy="230.0" r="3" fill="#4e79a7"/>
  <circle cx="52.0" cy="232.0" r="3" fill="#f28e2b"/><circle cx="64.5" cy="230.0" r="3" fill="#f28e2b"/><circle cx="76.9" cy="228.0" r="3" fill="#f28e2b"/><circle cx="89.4" cy="174.6" r="3" fill="#f28e2b"/><circle cx="101.9" cy="226.1" r="3" fill="#f28e2b"/><circle cx="114.3" cy="232.0" r="3" fill="#f28e2b"/><circle cx="126.8" cy="232.0" r="3" fill="#f28e2b"/><circle cx="139.3" cy="230.0" r="3" fill="#f28e2b"/><circle cx="151.7" cy="230.0" r="3" fill="#f28e2b"/><circle cx="164.2" cy="224.1" r="3" fill="#f28e2b"/><circle cx="176.7" cy="214.2" r="3" fill="#f28e2b"/><circle cx="189.1" cy="196.3" r="3" fill="#f28e2b"/><circle cx="201.6" cy="138.9" r="3" fill="#f28e2b"/><circle cx="214.1" cy="224.1" r="3" fill="#f28e2b"/><circle cx="226.5" cy="222.1" r="3" fill="#f28e2b"/><circle cx="239.0" cy="232.0" r="3" fill="#f28e2b"/><circle cx="251.5" cy="232.0" r="3" fill="#f28e2b"/><circle cx="263.9" cy="232.0" r="3" fill="#f28e2b"/><circle cx="276.4" cy="230.0" r="3" fill="#f28e2b"/><circle cx="288.9" cy="228.0" r="3" fill="#f28e2b"/><circle cx="301.3" cy="228.0" r="3" fill="#f28e2b"/><circle cx="313.8" cy="232.0" r="3" fill="#f28e2b"/><circle cx="326.3" cy="232.0" r="3" fill="#f28e2b"/><circle cx="338.7" cy="228.0" r="3" fill="#f28e2b"/><circle cx="351.2" cy="230.0" r="3" fill="#f28e2b"/><circle cx="363.7" cy="230.0" r="3" fill="#f28e2b"/><circle cx="376.1" cy="230.0" r="3" fill="#f28e2b"/><circle cx="388.6" cy="232.0" r="3" fill="#f28e2b"/><circle cx="401.1" cy="230.0" r="3" fill="#f28e2b"/><circle cx="413.5" cy="230.0" r="3" fill="#f28e2b"/><circle cx="426.0" cy="230.0" r="3" fill="#f28e2b"/><circle cx="438.5" cy="232.0" r="3" fill="#f28e2b"/><circle cx="450.9" cy="230.0" r="3" fill="#f28e2b"/><circle cx="463.4" cy="230.0" r="3" fill="#f28e2b"/><circle cx="475.9" cy="230.0" r="3" fill="#f28e2b"/><circle cx="488.3" cy="230.0" r="3" fill="#f28e2b"/><circle cx="500.8" cy="230.0" r="3" fill="#f28e2b"/><circle cx="513.3" cy="228.0" r="3" fill="#f28e2b"/><circle cx="525.7" cy="230.0" r="3" fill="#f28e2b"/><circle cx="538.2" cy="220.1" r="3" fill="#f28e2b"/><circle cx="550.7" cy="224.1" r="3" fill="#f28e2b"/><circle cx="563.1" cy="230.0" r="3" fill="#f28e2b"/><circle cx="575.6" cy="194.4" r="3" fill="#f28e2b"/><circle cx="588.1" cy="206.3" r="3" fill="#f28e2b"/><circle cx="600.5" cy="202.3" r="3" fill="#f28e2b"/><circle cx="613.0" cy="212.2" r="3" fill="#f28e2b"/><circle cx="625.5" cy="232.0" r="3" fill="#f28e2b"/><circle cx="637.9" cy="230.0" r="3" fill="#f28e2b"/><circle cx="650.4" cy="232.0" r="3" fill="#f28e2b"/><circle cx="662.9" cy="232.0" r="3" fill="#f28e2b"/><circle cx="675.3" cy="232.0" r="3" fill="#f28e2b"/><circle cx="687.8" cy="232.0" r="3" fill="#f28e2b"/><circle cx="700.3" cy="232.0" r="3" fill="#f28e2b"/><circle cx="712.7" cy="232.0" r="3" fill="#f28e2b"/><circle cx="725.2" cy="230.0" r="3" fill="#f28e2b"/><circle cx="737.7" cy="232.0" r="3" fill="#f28e2b"/><circle cx="750.1" cy="232.0" r="3" fill="#f28e2b"/><circle cx="762.6" cy="232.0" r="3" fill="#f28e2b"/><circle cx="775.1" cy="232.0" r="3" fill="#f28e2b"/><circle cx="787.5" cy="230.0" r="3" fill="#f28e2b"/><circle cx="800.0" cy="230.0" r="3" fill="#f28e2b"/>

  <!-- axes -->
  <line x1="52" y1="28" x2="52" y2="232"
        stroke="#cccccc" stroke-width="1"/>
  <line x1="52" y1="232" x2="800" y2="232"
        stroke="#cccccc" stroke-width="1"/>

  <!-- y-axis labels -->
  <text x="47" y="236.0" text-anchor="end" font-size="10" fill="#57606a" font-family="ui-monospace, SFMono-Regular, 'SF Mono', Menlo, monospace">0</text><text x="47" y="196.4" text-anchor="end" font-size="10" fill="#57606a" font-family="ui-monospace, SFMono-Regular, 'SF Mono', Menlo, monospace">20</text><text x="47" y="156.8" text-anchor="end" font-size="10" fill="#57606a" font-family="ui-monospace, SFMono-Regular, 'SF Mono', Menlo, monospace">40</text><text x="47" y="117.2" text-anchor="end" font-size="10" fill="#57606a" font-family="ui-monospace, SFMono-Regular, 'SF Mono', Menlo, monospace">60</text><text x="47" y="77.6" text-anchor="end" font-size="10" fill="#57606a" font-family="ui-monospace, SFMono-Regular, 'SF Mono', Menlo, monospace">80</text><text x="47" y="37.9" text-anchor="end" font-size="10" fill="#57606a" font-family="ui-monospace, SFMono-Regular, 'SF Mono', Menlo, monospace">100</text><text x="47" y="-1.7" text-anchor="end" font-size="10" fill="#57606a" font-family="ui-monospace, SFMono-Regular, 'SF Mono', Menlo, monospace">120</text>

  <!-- x-axis labels -->
  <text x="52.0" y="248" text-anchor="middle" font-size="10" fill="#8c959f" font-family="ui-monospace, SFMono-Regular, 'SF Mono', Menlo, monospace">05-11</text><text x="488.3" y="248" text-anchor="middle" font-size="10" fill="#8c959f" font-family="ui-monospace, SFMono-Regular, 'SF Mono', Menlo, monospace">06-15</text><text x="139.3" y="248" text-anchor="middle" font-size="10" fill="#8c959f" font-family="ui-monospace, SFMono-Regular, 'SF Mono', Menlo, monospace">05-18</text><text x="575.6" y="248" text-anchor="middle" font-size="10" fill="#8c959f" font-family="ui-monospace, SFMono-Regular, 'SF Mono', Menlo, monospace">06-22</text><text x="226.5" y="248" text-anchor="middle" font-size="10" fill="#8c959f" font-family="ui-monospace, SFMono-Regular, 'SF Mono', Menlo, monospace">05-25</text><text x="800.0" y="248" text-anchor="middle" font-size="10" fill="#8c959f" font-family="ui-monospace, SFMono-Regular, 'SF Mono', Menlo, monospace">07-10</text><text x="662.9" y="248" text-anchor="middle" font-size="10" fill="#8c959f" font-family="ui-monospace, SFMono-Regular, 'SF Mono', Menlo, monospace">06-29</text><text x="313.8" y="248" text-anchor="middle" font-size="10" fill="#8c959f" font-family="ui-monospace, SFMono-Regular, 'SF Mono', Menlo, monospace">06-01</text><text x="750.1" y="248" text-anchor="middle" font-size="10" fill="#8c959f" font-family="ui-monospace, SFMono-Regular, 'SF Mono', Menlo, monospace">07-06</text><text x="401.1" y="248" text-anchor="middle" font-size="10" fill="#8c959f" font-family="ui-monospace, SFMono-Regular, 'SF Mono', Menlo, monospace">06-08</text>

  <!-- legend -->
  <rect x="60" y="262" width="16" height="3" fill="#4e79a7" rx="1"/><text x="80" y="268" font-size="11" fill="#57606a" font-family="-apple-system, BlinkMacSystemFont, 'Segoe UI', sans-serif">Total clones (551)</text><line x1="230" y1="264" x2="246" y2="264" stroke="#f28e2b" stroke-width="2" stroke-dasharray="5,3"/><text x="250" y="268" font-size="11" fill="#57606a" font-family="-apple-system, BlinkMacSystemFont, 'Segoe UI', sans-serif">Unique cloners</text>

</svg>