<svg xmlns="http://www.w3.org/2000/svg" viewBox="0 0 820 280" width="820" height="280">

  <!-- title -->
  <text x="52" y="18" font-size="13" font-weight="600"
        fill="#24292f" font-family="-apple-system, BlinkMacSystemFont, 'Segoe UI', sans-serif"
        >Clone traffic — nikos</text>
  <text x="800" y="18" font-size="10" fill="#8c959f"
        font-family="ui-monospace, SFMono-Regular, 'SF Mono', Menlo, monospace" text-anchor="end">2026-06-18</text>

  <!-- grid -->
  <line x1="52" y1="232.0" x2="800" y2="232.0" stroke="#e8e8e8" stroke-width="1"/><line x1="52" y1="192.4" x2="800" y2="192.4" stroke="#e8e8e8" stroke-width="1"/><line x1="52" y1="152.8" x2="800" y2="152.8" stroke="#e8e8e8" stroke-width="1"/><line x1="52" y1="113.2" x2="800" y2="113.2" stroke="#e8e8e8" stroke-width="1"/><line x1="52" y1="73.6" x2="800" y2="73.6" stroke="#e8e8e8" stroke-width="1"/><line x1="52" y1="33.9" x2="800" y2="33.9" stroke="#e8e8e8" stroke-width="1"/><line x1="52" y1="-5.7" x2="800" y2="-5.7" stroke="#e8e8e8" stroke-width="1"/>

  <!-- area fill -->
  <path d="M52.0,232.0 L52.0,232.0 L72.8,230.0 L93.6,228.0 L114.3,142.9 L135.1,226.1 L155.9,232.0 L176.7,232.0 L197.4,230.0 L218.2,230.0 L239.0,224.1 L259.8,178.5 L280.6,178.5 L301.3,28.0 L322.1,210.2 L342.9,172.6 L363.7,232.0 L384.4,232.0 L405.2,232.0 L426.0,230.0 L446.8,228.0 L467.6,226.1 L488.3,232.0 L509.1,232.0 L529.9,228.0 L550.7,230.0 L571.4,230.0 L592.2,230.0 L613.0,232.0 L633.8,230.0 L654.6,230.0 L675.3,230.0 L696.1,232.0 L716.9,230.0 L737.7,230.0 L758.4,230.0 L779.2,230.0 L800.0,230.0 L800.0,232.0 L52.0,232.0Z" fill="#4e79a7" opacity="0.12"/>

  <!-- lines -->
  <polyline points="52.0,232.0 72.8,230.0 93.6,228.0 114.3,142.9 135.1,226.1 155.9,232.0 176.7,232.0 197.4,230.0 218.2,230.0 239.0,224.1 259.8,178.5 280.6,178.5 301.3,28.0 322.1,210.2 342.9,172.6 363.7,232.0 384.4,232.0 405.2,232.0 426.0,230.0 446.8,228.0 467.6,226.1 488.3,232.0 509.1,232.0 529.9,228.0 550.7,230.0 571.4,230.0 592.2,230.0 613.0,232.0 633.8,230.0 654.6,230.0 675.3,230.0 696.1,232.0 716.9,230.0 737.7,230.0 758.4,230.0 779.2,230.0 800.0,230.0"
            fill="none" stroke="#4e79a7"
            stroke-width="2" stroke-linejoin="round"/>
  <polyline points="52.0,232.0 72.8,230.0 93.6,228.0 114.3,174.6 135.1,226.1 155.9,232.0 176.7,232.0 197.4,230.0 218.2,230.0 239.0,224.1 259.8,214.2 280.6,196.3 301.3,138.9 322.1,224.1 342.9,222.1 363.7,232.0 384.4,232.0 405.2,232.0 426.0,230.0 446.8,228.0 467.6,228.0 488.3,232.0 509.1,232.0 529.9,228.0 550.7,230.0 571.4,230.0 592.2,230.0 613.0,232.0 633.8,230.0 654.6,230.0 675.3,230.0 696.1,232.0 716.9,230.0 737.7,230.0 758.4,230.0 779.2,230.0 800.0,230.0"
            fill="none" stroke="#f28e2b"
            stroke-width="2" stroke-linejoin="round"
            stroke-dasharray="5,3"/>

  <!-- dots -->
  <circle cx="52.0" cy="232.0" r="3" fill="#4e79a7"/><circle cx="72.8" cy="230.0" r="3" fill="#4e79a7"/><circle cx="93.6" cy="228.0" r="3" fill="#4e79a7"/><circle cx="114.3" cy="142.9" r="3" fill="#4e79a7"/><circle cx="135.1" cy="226.1" r="3" fill="#4e79a7"/><circle cx="155.9" cy="232.0" r="3" fill="#4e79a7"/><circle cx="176.7" cy="232.0" r="3" fill="#4e79a7"/><circle cx="197.4" cy="230.0" r="3" fill="#4e79a7"/><circle cx="218.2" cy="230.0" r="3" fill="#4e79a7"/><circle cx="239.0" cy="224.1" r="3" fill="#4e79a7"/><circle cx="259.8" cy="178.5" r="3" fill="#4e79a7"/><circle cx="280.6" cy="178.5" r="3" fill="#4e79a7"/><circle cx="301.3" cy="28.0" r="3" fill="#4e79a7"/><circle cx="322.1" cy="210.2" r="3" fill="#4e79a7"/><circle cx="342.9" cy="172.6" r="3" fill="#4e79a7"/><circle cx="363.7" cy="232.0" r="3" fill="#4e79a7"/><circle cx="384.4" cy="232.0" r="3" fill="#4e79a7"/><circle cx="405.2" cy="232.0" r="3" fill="#4e79a7"/><circle cx="426.0" cy="230.0" r="3" fill="#4e79a7"/><circle cx="446.8" cy="228.0" r="3" fill="#4e79a7"/><circle cx="467.6" cy="226.1" r="3" fill="#4e79a7"/><circle cx="488.3" cy="232.0" r="3" fill="#4e79a7"/><circle cx="509.1" cy="232.0" r="3" fill="#4e79a7"/><circle cx="529.9" cy="228.0" r="3" fill="#4e79a7"/><circle cx="550.7" cy="230.0" r="3" fill="#4e79a7"/><circle cx="571.4" cy="230.0" r="3" fill="#4e79a7"/><circle cx="592.2" cy="230.0" r="3" fill="#4e79a7"/><circle cx="613.0" cy="232.0" r="3" fill="#4e79a7"/><circle cx="633.8" cy="230.0" r="3" fill="#4e79a7"/><circle cx="654.6" cy="230.0" r="3" fill="#4e79a7"/><circle cx="675.3" cy="230.0" r="3" fill="#4e79a7"/><circle cx="696.1" cy="232.0" r="3" fill="#4e79a7"/><circle cx="716.9" cy="230.0" r="3" fill="#4e79a7"/><circle cx="737.7" cy="230.0" r="3" fill="#4e79a7"/><circle cx="758.4" cy="230.0" r="3" fill="#4e79a7"/><circle cx="779.2" cy="230.0" r="3" fill="#4e79a7"/><circle cx="800.0" cy="230.0" r="3" fill="#4e79a7"/>
  <circle cx="52.0" cy="232.0" r="3" fill="#f28e2b"/><circle cx="72.8" cy="230.0" r="3" fill="#f28e2b"/><circle cx="93.6" cy="228.0" r="3" fill="#f28e2b"/><circle cx="114.3" cy="174.6" r="3" fill="#f28e2b"/><circle cx="135.1" cy="226.1" r="3" fill="#f28e2b"/><circle cx="155.9" cy="232.0" r="3" fill="#f28e2b"/><circle cx="176.7" cy="232.0" r="3" fill="#f28e2b"/><circle cx="197.4" cy="230.0" r="3" fill="#f28e2b"/><circle cx="218.2" cy="230.0" r="3" fill="#f28e2b"/><circle cx="239.0" cy="224.1" r="3" fill="#f28e2b"/><circle cx="259.8" cy="214.2" r="3" fill="#f28e2b"/><circle cx="280.6" cy="196.3" r="3" fill="#f28e2b"/><circle cx="301.3" cy="138.9" r="3" fill="#f28e2b"/><circle cx="322.1" cy="224.1" r="3" fill="#f28e2b"/><circle cx="342.9" cy="222.1" r="3" fill="#f28e2b"/><circle cx="363.7" cy="232.0" r="3" fill="#f28e2b"/><circle cx="384.4" cy="232.0" r="3" fill="#f28e2b"/><circle cx="405.2" cy="232.0" r="3" fill="#f28e2b"/><circle cx="426.0" cy="230.0" r="3" fill="#f28e2b"/><circle cx="446.8" cy="228.0" r="3" fill="#f28e2b"/><circle cx="467.6" cy="228.0" r="3" fill="#f28e2b"/><circle cx="488.3" cy="232.0" r="3" fill="#f28e2b"/><circle cx="509.1" cy="232.0" r="3" fill="#f28e2b"/><circle cx="529.9" cy="228.0" r="3" fill="#f28e2b"/><circle cx="550.7" cy="230.0" r="3" fill="#f28e2b"/><circle cx="571.4" cy="230.0" r="3" fill="#f28e2b"/><circle cx="592.2" cy="230.0" r="3" fill="#f28e2b"/><circle cx="613.0" cy="232.0" r="3" fill="#f28e2b"/><circle cx="633.8" cy="230.0" r="3" fill="#f28e2b"/><circle cx="654.6" cy="230.0" r="3" fill="#f28e2b"/><circle cx="675.3" cy="230.0" r="3" fill="#f28e2b"/><circle cx="696.1" cy="232.0" r="3" fill="#f28e2b"/><circle cx="716.9" cy="230.0" r="3" fill="#f28e2b"/><circle cx="737.7" cy="230.0" r="3" fill="#f28e2b"/><circle cx="758.4" cy="230.0" r="3" fill="#f28e2b"/><circle cx="779.2" cy="230.0" r="3" fill="#f28e2b"/><circle cx="800.0" cy="230.0" r="3" fill="#f28e2b"/>

  <!-- axes -->
  <line x1="52" y1="28" x2="52" y2="232"
        stroke="#cccccc" stroke-width="1"/>
  <line x1="52" y1="232" x2="800" y2="232"
        stroke="#cccccc" stroke-width="1"/>

  <!-- y-axis labels -->
  <text x="47" y="236.0" text-anchor="end" font-size="10" fill="#57606a" font-family="ui-monospace, SFMono-Regular, 'SF Mono', Menlo, monospace">0</text><text x="47" y="196.4" text-anchor="end" font-size="10" fill="#57606a" font-family="ui-monospace, SFMono-Regular, 'SF Mono', Menlo, monospace">20</text><text x="47" y="156.8" text-anchor="end" font-size="10" fill="#57606a" font-family="ui-monospace, SFMono-Regular, 'SF Mono', Menlo, monospace">40</text><text x="47" y="117.2" text-anchor="end" font-size="10" fill="#57606a" font-family="ui-monospace, SFMono-Regular, 'SF Mono', Menlo, monospace">60</text><text x="47" y="77.6" text-anchor="end" font-size="10" fill="#57606a" font-family="ui-monospace, SFMono-Regular, 'SF Mono', Menlo, monospace">80</text><text x="47" y="37.9" text-anchor="end" font-size="10" fill="#57606a" font-family="ui-monospace, SFMono-Regular, 'SF Mono', Menlo, monospace">100</text><text x="47" y="-1.7" text-anchor="end" font-size="10" fill="#57606a" font-family="ui-monospace, SFMono-Regular, 'SF Mono', Menlo, monospace">120</text>

  <!-- x-axis labels -->
  <text x="52.0" y="248" text-anchor="middle" font-size="10" fill="#8c959f" font-family="ui-monospace, SFMono-Regular, 'SF Mono', Menlo, monospace">05-11</text><text x="716.9" y="248" text-anchor="middle" font-size="10" fill="#8c959f" font-family="ui-monospace, SFMono-Regular, 'SF Mono', Menlo, monospace">06-12</text><text x="135.1" y="248" text-anchor="middle" font-size="10" fill="#8c959f" font-family="ui-monospace, SFMono-Regular, 'SF Mono', Menlo, monospace">05-15</text><text x="800.0" y="248" text-anchor="middle" font-size="10" fill="#8c959f" font-family="ui-monospace, SFMono-Regular, 'SF Mono', Menlo, monospace">06-16</text><text x="218.2" y="248" text-anchor="middle" font-size="10" fill="#8c959f" font-family="ui-monospace, SFMono-Regular, 'SF Mono', Menlo, monospace">05-19</text><text x="301.3" y="248" text-anchor="middle" font-size="10" fill="#8c959f" font-family="ui-monospace, SFMono-Regular, 'SF Mono', Menlo, monospace">05-23</text><text x="384.4" y="248" text-anchor="middle" font-size="10" fill="#8c959f" font-family="ui-monospace, SFMono-Regular, 'SF Mono', Menlo, monospace">05-27</text><text x="467.6" y="248" text-anchor="middle" font-size="10" fill="#8c959f" font-family="ui-monospace, SFMono-Regular, 'SF Mono', Menlo, monospace">05-31</text><text x="550.7" y="248" text-anchor="middle" font-size="10" fill="#8c959f" font-family="ui-monospace, SFMono-Regular, 'SF Mono', Menlo, monospace">06-04</text><text x="633.8" y="248" text-anchor="middle" font-size="10" fill="#8c959f" font-family="ui-monospace, SFMono-Regular, 'SF Mono', Menlo, monospace">06-08</text>

  <!-- legend -->
  <rect x="60" y="262" width="16" height="3" fill="#4e79a7" rx="1"/><text x="80" y="268" font-size="11" fill="#57606a" font-family="-apple-system, BlinkMacSystemFont, 'Segoe UI', sans-serif">Total clones (274)</text><line x1="230" y1="264" x2="246" y2="264" stroke="#f28e2b" stroke-width="2" stroke-dasharray="5,3"/><text x="250" y="268" font-size="11" fill="#57606a" font-family="-apple-system, BlinkMacSystemFont, 'Segoe UI', sans-serif">Unique cloners</text>

</svg>