<svg xmlns="http://www.w3.org/2000/svg" viewBox="0 0 820 280" width="820" height="280">

  <!-- title -->
  <text x="52" y="18" font-size="13" font-weight="600"
        fill="#24292f" font-family="-apple-system, BlinkMacSystemFont, 'Segoe UI', sans-serif"
        >Clone traffic — nikos</text>
  <text x="800" y="18" font-size="10" fill="#8c959f"
        font-family="ui-monospace, SFMono-Regular, 'SF Mono', Menlo, monospace" text-anchor="end">2026-06-30</text>

  <!-- grid -->
  <line x1="52" y1="232.0" x2="800" y2="232.0" stroke="#e8e8e8" stroke-width="1"/><line x1="52" y1="192.4" x2="800" y2="192.4" stroke="#e8e8e8" stroke-width="1"/><line x1="52" y1="152.8" x2="800" y2="152.8" stroke="#e8e8e8" stroke-width="1"/><line x1="52" y1="113.2" x2="800" y2="113.2" stroke="#e8e8e8" stroke-width="1"/><line x1="52" y1="73.6" x2="800" y2="73.6" stroke="#e8e8e8" stroke-width="1"/><line x1="52" y1="33.9" x2="800" y2="33.9" stroke="#e8e8e8" stroke-width="1"/><line x1="52" y1="-5.7" x2="800" y2="-5.7" stroke="#e8e8e8" stroke-width="1"/>

  <!-- area fill -->
  <path d="M52.0,232.0 L52.0,232.0 L67.6,230.0 L83.2,228.0 L98.8,142.9 L114.3,226.1 L129.9,232.0 L145.5,232.0 L161.1,230.0 L176.7,230.0 L192.2,224.1 L207.8,178.5 L223.4,178.5 L239.0,28.0 L254.6,210.2 L270.2,172.6 L285.8,232.0 L301.3,232.0 L316.9,232.0 L332.5,230.0 L348.1,228.0 L363.7,226.1 L379.2,232.0 L394.8,232.0 L410.4,228.0 L426.0,230.0 L441.6,230.0 L457.2,230.0 L472.8,232.0 L488.3,230.0 L503.9,230.0 L519.5,230.0 L535.1,232.0 L550.7,230.0 L566.2,230.0 L581.8,230.0 L597.4,230.0 L613.0,230.0 L628.6,228.0 L644.2,230.0 L659.8,190.4 L675.3,214.2 L690.9,224.1 L706.5,51.8 L722.1,136.9 L737.7,119.1 L753.2,154.8 L768.8,232.0 L784.4,230.0 L800.0,232.0 L800.0,232.0 L52.0,232.0Z" fill="#4e79a7" opacity="0.12"/>

  <!-- lines -->
  <polyline points="52.0,232.0 67.6,230.0 83.2,228.0 98.8,142.9 114.3,226.1 129.9,232.0 145.5,232.0 161.1,230.0 176.7,230.0 192.2,224.1 207.8,178.5 223.4,178.5 239.0,28.0 254.6,210.2 270.2,172.6 285.8,232.0 301.3,232.0 316.9,232.0 332.5,230.0 348.1,228.0 363.7,226.1 379.2,232.0 394.8,232.0 410.4,228.0 426.0,230.0 441.6,230.0 457.2,230.0 472.8,232.0 488.3,230.0 503.9,230.0 519.5,230.0 535.1,232.0 550.7,230.0 566.2,230.0 581.8,230.0 597.4,230.0 613.0,230.0 628.6,228.0 644.2,230.0 659.8,190.4 675.3,214.2 690.9,224.1 706.5,51.8 722.1,136.9 737.7,119.1 753.2,154.8 768.8,232.0 784.4,230.0 800.0,232.0"
            fill="none" stroke="#4e79a7"
            stroke-width="2" stroke-linejoin="round"/>
  <polyline points="52.0,232.0 67.6,230.0 83.2,228.0 98.8,174.6 114.3,226.1 129.9,232.0 145.5,232.0 161.1,230.0 176.7,230.0 192.2,224.1 207.8,214.2 223.4,196.3 239.0,138.9 254.6,224.1 270.2,222.1 285.8,232.0 301.3,232.0 316.9,232.0 332.5,230.0 348.1,228.0 363.7,228.0 379.2,232.0 394.8,232.0 410.4,228.0 426.0,230.0 441.6,230.0 457.2,230.0 472.8,232.0 488.3,230.0 503.9,230.0 519.5,230.0 535.1,232.0 550.7,230.0 566.2,230.0 581.8,230.0 597.4,230.0 613.0,230.0 628.6,228.0 644.2,230.0 659.8,220.1 675.3,224.1 690.9,230.0 706.5,194.4 722.1,206.3 737.7,202.3 753.2,212.2 768.8,232.0 784.4,230.0 800.0,232.0"
            fill="none" stroke="#f28e2b"
            stroke-width="2" stroke-linejoin="round"
            stroke-dasharray="5,3"/>

  <!-- dots -->
  <circle cx="52.0" cy="232.0" r="3" fill="#4e79a7"/><circle cx="67.6" cy="230.0" r="3" fill="#4e79a7"/><circle cx="83.2" cy="228.0" r="3" fill="#4e79a7"/><circle cx="98.8" cy="142.9" r="3" fill="#4e79a7"/><circle cx="114.3" cy="226.1" r="3" fill="#4e79a7"/><circle cx="129.9" cy="232.0" r="3" fill="#4e79a7"/><circle cx="145.5" cy="232.0" r="3" fill="#4e79a7"/><circle cx="161.1" cy="230.0" r="3" fill="#4e79a7"/><circle cx="176.7" cy="230.0" r="3" fill="#4e79a7"/><circle cx="192.2" cy="224.1" r="3" fill="#4e79a7"/><circle cx="207.8" cy="178.5" r="3" fill="#4e79a7"/><circle cx="223.4" cy="178.5" r="3" fill="#4e79a7"/><circle cx="239.0" cy="28.0" r="3" fill="#4e79a7"/><circle cx="254.6" cy="210.2" r="3" fill="#4e79a7"/><circle cx="270.2" cy="172.6" r="3" fill="#4e79a7"/><circle cx="285.8" cy="232.0" r="3" fill="#4e79a7"/><circle cx="301.3" cy="232.0" r="3" fill="#4e79a7"/><circle cx="316.9" cy="232.0" r="3" fill="#4e79a7"/><circle cx="332.5" cy="230.0" r="3" fill="#4e79a7"/><circle cx="348.1" cy="228.0" r="3" fill="#4e79a7"/><circle cx="363.7" cy="226.1" r="3" fill="#4e79a7"/><circle cx="379.2" cy="232.0" r="3" fill="#4e79a7"/><circle cx="394.8" cy="232.0" r="3" fill="#4e79a7"/><circle cx="410.4" cy="228.0" r="3" fill="#4e79a7"/><circle cx="426.0" cy="230.0" r="3" fill="#4e79a7"/><circle cx="441.6" cy="230.0" r="3" fill="#4e79a7"/><circle cx="457.2" cy="230.0" r="3" fill="#4e79a7"/><circle cx="472.8" cy="232.0" r="3" fill="#4e79a7"/><circle cx="488.3" cy="230.0" r="3" fill="#4e79a7"/><circle cx="503.9" cy="230.0" r="3" fill="#4e79a7"/><circle cx="519.5" cy="230.0" r="3" fill="#4e79a7"/><circle cx="535.1" cy="232.0" r="3" fill="#4e79a7"/><circle cx="550.7" cy="230.0" r="3" fill="#4e79a7"/><circle cx="566.2" cy="230.0" r="3" fill="#4e79a7"/><circle cx="581.8" cy="230.0" r="3" fill="#4e79a7"/><circle cx="597.4" cy="230.0" r="3" fill="#4e79a7"/><circle cx="613.0" cy="230.0" r="3" fill="#4e79a7"/><circle cx="628.6" cy="228.0" r="3" fill="#4e79a7"/><circle cx="644.2" cy="230.0" r="3" fill="#4e79a7"/><circle cx="659.8" cy="190.4" r="3" fill="#4e79a7"/><circle cx="675.3" cy="214.2" r="3" fill="#4e79a7"/><circle cx="690.9" cy="224.1" r="3" fill="#4e79a7"/><circle cx="706.5" cy="51.8" r="3" fill="#4e79a7"/><circle cx="722.1" cy="136.9" r="3" fill="#4e79a7"/><circle cx="737.7" cy="119.1" r="3" fill="#4e79a7"/><circle cx="753.2" cy="154.8" r="3" fill="#4e79a7"/><circle cx="768.8" cy="232.0" r="3" fill="#4e79a7"/><circle cx="784.4" cy="230.0" r="3" fill="#4e79a7"/><circle cx="800.0" cy="232.0" r="3" fill="#4e79a7"/>
  <circle cx="52.0" cy="232.0" r="3" fill="#f28e2b"/><circle cx="67.6" cy="230.0" r="3" fill="#f28e2b"/><circle cx="83.2" cy="228.0" r="3" fill="#f28e2b"/><circle cx="98.8" cy="174.6" r="3" fill="#f28e2b"/><circle cx="114.3" cy="226.1" r="3" fill="#f28e2b"/><circle cx="129.9" cy="232.0" r="3" fill="#f28e2b"/><circle cx="145.5" cy="232.0" r="3" fill="#f28e2b"/><circle cx="161.1" cy="230.0" r="3" fill="#f28e2b"/><circle cx="176.7" cy="230.0" r="3" fill="#f28e2b"/><circle cx="192.2" cy="224.1" r="3" fill="#f28e2b"/><circle cx="207.8" cy="214.2" r="3" fill="#f28e2b"/><circle cx="223.4" cy="196.3" r="3" fill="#f28e2b"/><circle cx="239.0" cy="138.9" r="3" fill="#f28e2b"/><circle cx="254.6" cy="224.1" r="3" fill="#f28e2b"/><circle cx="270.2" cy="222.1" r="3" fill="#f28e2b"/><circle cx="285.8" cy="232.0" r="3" fill="#f28e2b"/><circle cx="301.3" cy="232.0" r="3" fill="#f28e2b"/><circle cx="316.9" cy="232.0" r="3" fill="#f28e2b"/><circle cx="332.5" cy="230.0" r="3" fill="#f28e2b"/><circle cx="348.1" cy="228.0" r="3" fill="#f28e2b"/><circle cx="363.7" cy="228.0" r="3" fill="#f28e2b"/><circle cx="379.2" cy="232.0" r="3" fill="#f28e2b"/><circle cx="394.8" cy="232.0" r="3" fill="#f28e2b"/><circle cx="410.4" cy="228.0" r="3" fill="#f28e2b"/><circle cx="426.0" cy="230.0" r="3" fill="#f28e2b"/><circle cx="441.6" cy="230.0" r="3" fill="#f28e2b"/><circle cx="457.2" cy="230.0" r="3" fill="#f28e2b"/><circle cx="472.8" cy="232.0" r="3" fill="#f28e2b"/><circle cx="488.3" cy="230.0" r="3" fill="#f28e2b"/><circle cx="503.9" cy="230.0" r="3" fill="#f28e2b"/><circle cx="519.5" cy="230.0" r="3" fill="#f28e2b"/><circle cx="535.1" cy="232.0" r="3" fill="#f28e2b"/><circle cx="550.7" cy="230.0" r="3" fill="#f28e2b"/><circle cx="566.2" cy="230.0" r="3" fill="#f28e2b"/><circle cx="581.8" cy="230.0" r="3" fill="#f28e2b"/><circle cx="597.4" cy="230.0" r="3" fill="#f28e2b"/><circle cx="613.0" cy="230.0" r="3" fill="#f28e2b"/><circle cx="628.6" cy="228.0" r="3" fill="#f28e2b"/><circle cx="644.2" cy="230.0" r="3" fill="#f28e2b"/><circle cx="659.8" cy="220.1" r="3" fill="#f28e2b"/><circle cx="675.3" cy="224.1" r="3" fill="#f28e2b"/><circle cx="690.9" cy="230.0" r="3" fill="#f28e2b"/><circle cx="706.5" cy="194.4" r="3" fill="#f28e2b"/><circle cx="722.1" cy="206.3" r="3" fill="#f28e2b"/><circle cx="737.7" cy="202.3" r="3" fill="#f28e2b"/><circle cx="753.2" cy="212.2" r="3" fill="#f28e2b"/><circle cx="768.8" cy="232.0" r="3" fill="#f28e2b"/><circle cx="784.4" cy="230.0" r="3" fill="#f28e2b"/><circle cx="800.0" cy="232.0" r="3" fill="#f28e2b"/>

  <!-- axes -->
  <line x1="52" y1="28" x2="52" y2="232"
        stroke="#cccccc" stroke-width="1"/>
  <line x1="52" y1="232" x2="800" y2="232"
        stroke="#cccccc" stroke-width="1"/>

  <!-- y-axis labels -->
  <text x="47" y="236.0" text-anchor="end" font-size="10" fill="#57606a" font-family="ui-monospace, SFMono-Regular, 'SF Mono', Menlo, monospace">0</text><text x="47" y="196.4" text-anchor="end" font-size="10" fill="#57606a" font-family="ui-monospace, SFMono-Regular, 'SF Mono', Menlo, monospace">20</text><text x="47" y="156.8" text-anchor="end" font-size="10" fill="#57606a" font-family="ui-monospace, SFMono-Regular, 'SF Mono', Menlo, monospace">40</text><text x="47" y="117.2" text-anchor="end" font-size="10" fill="#57606a" font-family="ui-monospace, SFMono-Regular, 'SF Mono', Menlo, monospace">60</text><text x="47" y="77.6" text-anchor="end" font-size="10" fill="#57606a" font-family="ui-monospace, SFMono-Regular, 'SF Mono', Menlo, monospace">80</text><text x="47" y="37.9" text-anchor="end" font-size="10" fill="#57606a" font-family="ui-monospace, SFMono-Regular, 'SF Mono', Menlo, monospace">100</text><text x="47" y="-1.7" text-anchor="end" font-size="10" fill="#57606a" font-family="ui-monospace, SFMono-Regular, 'SF Mono', Menlo, monospace">120</text>

  <!-- x-axis labels -->
  <text x="52.0" y="248" text-anchor="middle" font-size="10" fill="#8c959f" font-family="ui-monospace, SFMono-Regular, 'SF Mono', Menlo, monospace">05-11</text><text x="613.0" y="248" text-anchor="middle" font-size="10" fill="#8c959f" font-family="ui-monospace, SFMono-Regular, 'SF Mono', Menlo, monospace">06-16</text><text x="145.5" y="248" text-anchor="middle" font-size="10" fill="#8c959f" font-family="ui-monospace, SFMono-Regular, 'SF Mono', Menlo, monospace">05-17</text><text x="706.5" y="248" text-anchor="middle" font-size="10" fill="#8c959f" font-family="ui-monospace, SFMono-Regular, 'SF Mono', Menlo, monospace">06-22</text><text x="239.0" y="248" text-anchor="middle" font-size="10" fill="#8c959f" font-family="ui-monospace, SFMono-Regular, 'SF Mono', Menlo, monospace">05-23</text><text x="800.0" y="248" text-anchor="middle" font-size="10" fill="#8c959f" font-family="ui-monospace, SFMono-Regular, 'SF Mono', Menlo, monospace">06-28</text><text x="332.5" y="248" text-anchor="middle" font-size="10" fill="#8c959f" font-family="ui-monospace, SFMono-Regular, 'SF Mono', Menlo, monospace">05-29</text><text x="426.0" y="248" text-anchor="middle" font-size="10" fill="#8c959f" font-family="ui-monospace, SFMono-Regular, 'SF Mono', Menlo, monospace">06-04</text><text x="519.5" y="248" text-anchor="middle" font-size="10" fill="#8c959f" font-family="ui-monospace, SFMono-Regular, 'SF Mono', Menlo, monospace">06-10</text>

  <!-- legend -->
  <rect x="60" y="262" width="16" height="3" fill="#4e79a7" rx="1"/><text x="80" y="268" font-size="11" fill="#57606a" font-family="-apple-system, BlinkMacSystemFont, 'Segoe UI', sans-serif">Total clones (547)</text><line x1="230" y1="264" x2="246" y2="264" stroke="#f28e2b" stroke-width="2" stroke-dasharray="5,3"/><text x="250" y="268" font-size="11" fill="#57606a" font-family="-apple-system, BlinkMacSystemFont, 'Segoe UI', sans-serif">Unique cloners</text>

</svg>