<svg xmlns="http://www.w3.org/2000/svg" viewBox="0 0 820 280" width="820" height="280">

  <!-- title -->
  <text x="52" y="18" font-size="13" font-weight="600"
        fill="#24292f" font-family="-apple-system, BlinkMacSystemFont, 'Segoe UI', sans-serif"
        >Clone traffic — nikos</text>
  <text x="800" y="18" font-size="10" fill="#8c959f"
        font-family="ui-monospace, SFMono-Regular, 'SF Mono', Menlo, monospace" text-anchor="end">2026-06-03</text>

  <!-- grid -->
  <line x1="52" y1="232.0" x2="800" y2="232.0" stroke="#e8e8e8" stroke-width="1"/><line x1="52" y1="192.4" x2="800" y2="192.4" stroke="#e8e8e8" stroke-width="1"/><line x1="52" y1="152.8" x2="800" y2="152.8" stroke="#e8e8e8" stroke-width="1"/><line x1="52" y1="113.2" x2="800" y2="113.2" stroke="#e8e8e8" stroke-width="1"/><line x1="52" y1="73.6" x2="800" y2="73.6" stroke="#e8e8e8" stroke-width="1"/><line x1="52" y1="33.9" x2="800" y2="33.9" stroke="#e8e8e8" stroke-width="1"/><line x1="52" y1="-5.7" x2="800" y2="-5.7" stroke="#e8e8e8" stroke-width="1"/>

  <!-- area fill -->
  <path d="M52.0,232.0 L52.0,232.0 L87.6,230.0 L123.2,228.0 L158.9,142.9 L194.5,226.1 L230.1,232.0 L265.7,232.0 L301.3,230.0 L337.0,230.0 L372.6,224.1 L408.2,178.5 L443.8,178.5 L479.4,28.0 L515.0,210.2 L550.7,172.6 L586.3,232.0 L621.9,232.0 L657.5,232.0 L693.1,230.0 L728.8,228.0 L764.4,226.1 L800.0,232.0 L800.0,232.0 L52.0,232.0Z" fill="#4e79a7" opacity="0.12"/>

  <!-- lines -->
  <polyline points="52.0,232.0 87.6,230.0 123.2,228.0 158.9,142.9 194.5,226.1 230.1,232.0 265.7,232.0 301.3,230.0 337.0,230.0 372.6,224.1 408.2,178.5 443.8,178.5 479.4,28.0 515.0,210.2 550.7,172.6 586.3,232.0 621.9,232.0 657.5,232.0 693.1,230.0 728.8,228.0 764.4,226.1 800.0,232.0"
            fill="none" stroke="#4e79a7"
            stroke-width="2" stroke-linejoin="round"/>
  <polyline points="52.0,232.0 87.6,230.0 123.2,228.0 158.9,174.6 194.5,226.1 230.1,232.0 265.7,232.0 301.3,230.0 337.0,230.0 372.6,224.1 408.2,214.2 443.8,196.3 479.4,138.9 515.0,224.1 550.7,222.1 586.3,232.0 621.9,232.0 657.5,232.0 693.1,230.0 728.8,228.0 764.4,228.0 800.0,232.0"
            fill="none" stroke="#f28e2b"
            stroke-width="2" stroke-linejoin="round"
            stroke-dasharray="5,3"/>

  <!-- dots -->
  <circle cx="52.0" cy="232.0" r="3" fill="#4e79a7"/><circle cx="87.6" cy="230.0" r="3" fill="#4e79a7"/><circle cx="123.2" cy="228.0" r="3" fill="#4e79a7"/><circle cx="158.9" cy="142.9" r="3" fill="#4e79a7"/><circle cx="194.5" cy="226.1" r="3" fill="#4e79a7"/><circle cx="230.1" cy="232.0" r="3" fill="#4e79a7"/><circle cx="265.7" cy="232.0" r="3" fill="#4e79a7"/><circle cx="301.3" cy="230.0" r="3" fill="#4e79a7"/><circle cx="337.0" cy="230.0" r="3" fill="#4e79a7"/><circle cx="372.6" cy="224.1" r="3" fill="#4e79a7"/><circle cx="408.2" cy="178.5" r="3" fill="#4e79a7"/><circle cx="443.8" cy="178.5" r="3" fill="#4e79a7"/><circle cx="479.4" cy="28.0" r="3" fill="#4e79a7"/><circle cx="515.0" cy="210.2" r="3" fill="#4e79a7"/><circle cx="550.7" cy="172.6" r="3" fill="#4e79a7"/><circle cx="586.3" cy="232.0" r="3" fill="#4e79a7"/><circle cx="621.9" cy="232.0" r="3" fill="#4e79a7"/><circle cx="657.5" cy="232.0" r="3" fill="#4e79a7"/><circle cx="693.1" cy="230.0" r="3" fill="#4e79a7"/><circle cx="728.8" cy="228.0" r="3" fill="#4e79a7"/><circle cx="764.4" cy="226.1" r="3" fill="#4e79a7"/><circle cx="800.0" cy="232.0" r="3" fill="#4e79a7"/>
  <circle cx="52.0" cy="232.0" r="3" fill="#f28e2b"/><circle cx="87.6" cy="230.0" r="3" fill="#f28e2b"/><circle cx="123.2" cy="228.0" r="3" fill="#f28e2b"/><circle cx="158.9" cy="174.6" r="3" fill="#f28e2b"/><circle cx="194.5" cy="226.1" r="3" fill="#f28e2b"/><circle cx="230.1" cy="232.0" r="3" fill="#f28e2b"/><circle cx="265.7" cy="232.0" r="3" fill="#f28e2b"/><circle cx="301.3" cy="230.0" r="3" fill="#f28e2b"/><circle cx="337.0" cy="230.0" r="3" fill="#f28e2b"/><circle cx="372.6" cy="224.1" r="3" fill="#f28e2b"/><circle cx="408.2" cy="214.2" r="3" fill="#f28e2b"/><circle cx="443.8" cy="196.3" r="3" fill="#f28e2b"/><circle cx="479.4" cy="138.9" r="3" fill="#f28e2b"/><circle cx="515.0" cy="224.1" r="3" fill="#f28e2b"/><circle cx="550.7" cy="222.1" r="3" fill="#f28e2b"/><circle cx="586.3" cy="232.0" r="3" fill="#f28e2b"/><circle cx="621.9" cy="232.0" r="3" fill="#f28e2b"/><circle cx="657.5" cy="232.0" r="3" fill="#f28e2b"/><circle cx="693.1" cy="230.0" r="3" fill="#f28e2b"/><circle cx="728.8" cy="228.0" r="3" fill="#f28e2b"/><circle cx="764.4" cy="228.0" r="3" fill="#f28e2b"/><circle cx="800.0" cy="232.0" r="3" fill="#f28e2b"/>

  <!-- axes -->
  <line x1="52" y1="28" x2="52" y2="232"
        stroke="#cccccc" stroke-width="1"/>
  <line x1="52" y1="232" x2="800" y2="232"
        stroke="#cccccc" stroke-width="1"/>

  <!-- y-axis labels -->
  <text x="47" y="236.0" text-anchor="end" font-size="10" fill="#57606a" font-family="ui-monospace, SFMono-Regular, 'SF Mono', Menlo, monospace">0</text><text x="47" y="196.4" text-anchor="end" font-size="10" fill="#57606a" font-family="ui-monospace, SFMono-Regular, 'SF Mono', Menlo, monospace">20</text><text x="47" y="156.8" text-anchor="end" font-size="10" fill="#57606a" font-family="ui-monospace, SFMono-Regular, 'SF Mono', Menlo, monospace">40</text><text x="47" y="117.2" text-anchor="end" font-size="10" fill="#57606a" font-family="ui-monospace, SFMono-Regular, 'SF Mono', Menlo, monospace">60</text><text x="47" y="77.6" text-anchor="end" font-size="10" fill="#57606a" font-family="ui-monospace, SFMono-Regular, 'SF Mono', Menlo, monospace">80</text><text x="47" y="37.9" text-anchor="end" font-size="10" fill="#57606a" font-family="ui-monospace, SFMono-Regular, 'SF Mono', Menlo, monospace">100</text><text x="47" y="-1.7" text-anchor="end" font-size="10" fill="#57606a" font-family="ui-monospace, SFMono-Regular, 'SF Mono', Menlo, monospace">120</text>

  <!-- x-axis labels -->
  <text x="52.0" y="248" text-anchor="middle" font-size="10" fill="#8c959f" font-family="ui-monospace, SFMono-Regular, 'SF Mono', Menlo, monospace">05-11</text><text x="123.2" y="248" text-anchor="middle" font-size="10" fill="#8c959f" font-family="ui-monospace, SFMono-Regular, 'SF Mono', Menlo, monospace">05-13</text><text x="194.5" y="248" text-anchor="middle" font-size="10" fill="#8c959f" font-family="ui-monospace, SFMono-Regular, 'SF Mono', Menlo, monospace">05-15</text><text x="265.7" y="248" text-anchor="middle" font-size="10" fill="#8c959f" font-family="ui-monospace, SFMono-Regular, 'SF Mono', Menlo, monospace">05-17</text><text x="337.0" y="248" text-anchor="middle" font-size="10" fill="#8c959f" font-family="ui-monospace, SFMono-Regular, 'SF Mono', Menlo, monospace">05-19</text><text x="408.2" y="248" text-anchor="middle" font-size="10" fill="#8c959f" font-family="ui-monospace, SFMono-Regular, 'SF Mono', Menlo, monospace">05-21</text><text x="479.4" y="248" text-anchor="middle" font-size="10" fill="#8c959f" font-family="ui-monospace, SFMono-Regular, 'SF Mono', Menlo, monospace">05-23</text><text x="550.7" y="248" text-anchor="middle" font-size="10" fill="#8c959f" font-family="ui-monospace, SFMono-Regular, 'SF Mono', Menlo, monospace">05-25</text><text x="621.9" y="248" text-anchor="middle" font-size="10" fill="#8c959f" font-family="ui-monospace, SFMono-Regular, 'SF Mono', Menlo, monospace">05-27</text><text x="693.1" y="248" text-anchor="middle" font-size="10" fill="#8c959f" font-family="ui-monospace, SFMono-Regular, 'SF Mono', Menlo, monospace">05-29</text><text x="764.4" y="248" text-anchor="middle" font-size="10" fill="#8c959f" font-family="ui-monospace, SFMono-Regular, 'SF Mono', Menlo, monospace">05-31</text><text x="800.0" y="248" text-anchor="middle" font-size="10" fill="#8c959f" font-family="ui-monospace, SFMono-Regular, 'SF Mono', Menlo, monospace">06-01</text>

  <!-- legend -->
  <rect x="60" y="262" width="16" height="3" fill="#4e79a7" rx="1"/><text x="80" y="268" font-size="11" fill="#57606a" font-family="-apple-system, BlinkMacSystemFont, 'Segoe UI', sans-serif">Total clones (261)</text><line x1="230" y1="264" x2="246" y2="264" stroke="#f28e2b" stroke-width="2" stroke-dasharray="5,3"/><text x="250" y="268" font-size="11" fill="#57606a" font-family="-apple-system, BlinkMacSystemFont, 'Segoe UI', sans-serif">Unique cloners</text>

</svg>