<svg xmlns="http://www.w3.org/2000/svg" viewBox="0 0 820 280" width="820" height="280">

  <!-- title -->
  <text x="52" y="18" font-size="13" font-weight="600"
        fill="#24292f" font-family="-apple-system, BlinkMacSystemFont, 'Segoe UI', sans-serif"
        >Clone traffic — nikos</text>
  <text x="800" y="18" font-size="10" fill="#8c959f"
        font-family="ui-monospace, SFMono-Regular, 'SF Mono', Menlo, monospace" text-anchor="end">2026-06-02</text>

  <!-- grid -->
  <line x1="52" y1="232.0" x2="800" y2="232.0" stroke="#e8e8e8" stroke-width="1"/><line x1="52" y1="192.4" x2="800" y2="192.4" stroke="#e8e8e8" stroke-width="1"/><line x1="52" y1="152.8" x2="800" y2="152.8" stroke="#e8e8e8" stroke-width="1"/><line x1="52" y1="113.2" x2="800" y2="113.2" stroke="#e8e8e8" stroke-width="1"/><line x1="52" y1="73.6" x2="800" y2="73.6" stroke="#e8e8e8" stroke-width="1"/><line x1="52" y1="33.9" x2="800" y2="33.9" stroke="#e8e8e8" stroke-width="1"/><line x1="52" y1="-5.7" x2="800" y2="-5.7" stroke="#e8e8e8" stroke-width="1"/>

  <!-- area fill -->
  <path d="M52.0,232.0 L52.0,232.0 L89.4,230.0 L126.8,228.0 L164.2,142.9 L201.6,226.1 L239.0,232.0 L276.4,232.0 L313.8,230.0 L351.2,230.0 L388.6,224.1 L426.0,178.5 L463.4,178.5 L500.8,28.0 L538.2,210.2 L575.6,172.6 L613.0,232.0 L650.4,232.0 L687.8,232.0 L725.2,230.0 L762.6,228.0 L800.0,226.1 L800.0,232.0 L52.0,232.0Z" fill="#4e79a7" opacity="0.12"/>

  <!-- lines -->
  <polyline points="52.0,232.0 89.4,230.0 126.8,228.0 164.2,142.9 201.6,226.1 239.0,232.0 276.4,232.0 313.8,230.0 351.2,230.0 388.6,224.1 426.0,178.5 463.4,178.5 500.8,28.0 538.2,210.2 575.6,172.6 613.0,232.0 650.4,232.0 687.8,232.0 725.2,230.0 762.6,228.0 800.0,226.1"
            fill="none" stroke="#4e79a7"
            stroke-width="2" stroke-linejoin="round"/>
  <polyline points="52.0,232.0 89.4,230.0 126.8,228.0 164.2,174.6 201.6,226.1 239.0,232.0 276.4,232.0 313.8,230.0 351.2,230.0 388.6,224.1 426.0,214.2 463.4,196.3 500.8,138.9 538.2,224.1 575.6,222.1 613.0,232.0 650.4,232.0 687.8,232.0 725.2,230.0 762.6,228.0 800.0,228.0"
            fill="none" stroke="#f28e2b"
            stroke-width="2" stroke-linejoin="round"
            stroke-dasharray="5,3"/>

  <!-- dots -->
  <circle cx="52.0" cy="232.0" r="3" fill="#4e79a7"/><circle cx="89.4" cy="230.0" r="3" fill="#4e79a7"/><circle cx="126.8" cy="228.0" r="3" fill="#4e79a7"/><circle cx="164.2" cy="142.9" r="3" fill="#4e79a7"/><circle cx="201.6" cy="226.1" r="3" fill="#4e79a7"/><circle cx="239.0" cy="232.0" r="3" fill="#4e79a7"/><circle cx="276.4" cy="232.0" r="3" fill="#4e79a7"/><circle cx="313.8" cy="230.0" r="3" fill="#4e79a7"/><circle cx="351.2" cy="230.0" r="3" fill="#4e79a7"/><circle cx="388.6" cy="224.1" r="3" fill="#4e79a7"/><circle cx="426.0" cy="178.5" r="3" fill="#4e79a7"/><circle cx="463.4" cy="178.5" r="3" fill="#4e79a7"/><circle cx="500.8" cy="28.0" r="3" fill="#4e79a7"/><circle cx="538.2" cy="210.2" r="3" fill="#4e79a7"/><circle cx="575.6" cy="172.6" r="3" fill="#4e79a7"/><circle cx="613.0" cy="232.0" r="3" fill="#4e79a7"/><circle cx="650.4" cy="232.0" r="3" fill="#4e79a7"/><circle cx="687.8" cy="232.0" r="3" fill="#4e79a7"/><circle cx="725.2" cy="230.0" r="3" fill="#4e79a7"/><circle cx="762.6" cy="228.0" r="3" fill="#4e79a7"/><circle cx="800.0" cy="226.1" r="3" fill="#4e79a7"/>
  <circle cx="52.0" cy="232.0" r="3" fill="#f28e2b"/><circle cx="89.4" cy="230.0" r="3" fill="#f28e2b"/><circle cx="126.8" cy="228.0" r="3" fill="#f28e2b"/><circle cx="164.2" cy="174.6" r="3" fill="#f28e2b"/><circle cx="201.6" cy="226.1" r="3" fill="#f28e2b"/><circle cx="239.0" cy="232.0" r="3" fill="#f28e2b"/><circle cx="276.4" cy="232.0" r="3" fill="#f28e2b"/><circle cx="313.8" cy="230.0" r="3" fill="#f28e2b"/><circle cx="351.2" cy="230.0" r="3" fill="#f28e2b"/><circle cx="388.6" cy="224.1" r="3" fill="#f28e2b"/><circle cx="426.0" cy="214.2" r="3" fill="#f28e2b"/><circle cx="463.4" cy="196.3" r="3" fill="#f28e2b"/><circle cx="500.8" cy="138.9" r="3" fill="#f28e2b"/><circle cx="538.2" cy="224.1" r="3" fill="#f28e2b"/><circle cx="575.6" cy="222.1" r="3" fill="#f28e2b"/><circle cx="613.0" cy="232.0" r="3" fill="#f28e2b"/><circle cx="650.4" cy="232.0" r="3" fill="#f28e2b"/><circle cx="687.8" cy="232.0" r="3" fill="#f28e2b"/><circle cx="725.2" cy="230.0" r="3" fill="#f28e2b"/><circle cx="762.6" cy="228.0" r="3" fill="#f28e2b"/><circle cx="800.0" cy="228.0" r="3" fill="#f28e2b"/>

  <!-- axes -->
  <line x1="52" y1="28" x2="52" y2="232"
        stroke="#cccccc" stroke-width="1"/>
  <line x1="52" y1="232" x2="800" y2="232"
        stroke="#cccccc" stroke-width="1"/>

  <!-- y-axis labels -->
  <text x="47" y="236.0" text-anchor="end" font-size="10" fill="#57606a" font-family="ui-monospace, SFMono-Regular, 'SF Mono', Menlo, monospace">0</text><text x="47" y="196.4" text-anchor="end" font-size="10" fill="#57606a" font-family="ui-monospace, SFMono-Regular, 'SF Mono', Menlo, monospace">20</text><text x="47" y="156.8" text-anchor="end" font-size="10" fill="#57606a" font-family="ui-monospace, SFMono-Regular, 'SF Mono', Menlo, monospace">40</text><text x="47" y="117.2" text-anchor="end" font-size="10" fill="#57606a" font-family="ui-monospace, SFMono-Regular, 'SF Mono', Menlo, monospace">60</text><text x="47" y="77.6" text-anchor="end" font-size="10" fill="#57606a" font-family="ui-monospace, SFMono-Regular, 'SF Mono', Menlo, monospace">80</text><text x="47" y="37.9" text-anchor="end" font-size="10" fill="#57606a" font-family="ui-monospace, SFMono-Regular, 'SF Mono', Menlo, monospace">100</text><text x="47" y="-1.7" text-anchor="end" font-size="10" fill="#57606a" font-family="ui-monospace, SFMono-Regular, 'SF Mono', Menlo, monospace">120</text>

  <!-- x-axis labels -->
  <text x="52.0" y="248" text-anchor="middle" font-size="10" fill="#8c959f" font-family="ui-monospace, SFMono-Regular, 'SF Mono', Menlo, monospace">05-11</text><text x="126.8" y="248" text-anchor="middle" font-size="10" fill="#8c959f" font-family="ui-monospace, SFMono-Regular, 'SF Mono', Menlo, monospace">05-13</text><text x="201.6" y="248" text-anchor="middle" font-size="10" fill="#8c959f" font-family="ui-monospace, SFMono-Regular, 'SF Mono', Menlo, monospace">05-15</text><text x="276.4" y="248" text-anchor="middle" font-size="10" fill="#8c959f" font-family="ui-monospace, SFMono-Regular, 'SF Mono', Menlo, monospace">05-17</text><text x="351.2" y="248" text-anchor="middle" font-size="10" fill="#8c959f" font-family="ui-monospace, SFMono-Regular, 'SF Mono', Menlo, monospace">05-19</text><text x="426.0" y="248" text-anchor="middle" font-size="10" fill="#8c959f" font-family="ui-monospace, SFMono-Regular, 'SF Mono', Menlo, monospace">05-21</text><text x="500.8" y="248" text-anchor="middle" font-size="10" fill="#8c959f" font-family="ui-monospace, SFMono-Regular, 'SF Mono', Menlo, monospace">05-23</text><text x="575.6" y="248" text-anchor="middle" font-size="10" fill="#8c959f" font-family="ui-monospace, SFMono-Regular, 'SF Mono', Menlo, monospace">05-25</text><text x="650.4" y="248" text-anchor="middle" font-size="10" fill="#8c959f" font-family="ui-monospace, SFMono-Regular, 'SF Mono', Menlo, monospace">05-27</text><text x="725.2" y="248" text-anchor="middle" font-size="10" fill="#8c959f" font-family="ui-monospace, SFMono-Regular, 'SF Mono', Menlo, monospace">05-29</text><text x="800.0" y="248" text-anchor="middle" font-size="10" fill="#8c959f" font-family="ui-monospace, SFMono-Regular, 'SF Mono', Menlo, monospace">05-31</text>

  <!-- legend -->
  <rect x="60" y="262" width="16" height="3" fill="#4e79a7" rx="1"/><text x="80" y="268" font-size="11" fill="#57606a" font-family="-apple-system, BlinkMacSystemFont, 'Segoe UI', sans-serif">Total clones (261)</text><line x1="230" y1="264" x2="246" y2="264" stroke="#f28e2b" stroke-width="2" stroke-dasharray="5,3"/><text x="250" y="268" font-size="11" fill="#57606a" font-family="-apple-system, BlinkMacSystemFont, 'Segoe UI', sans-serif">Unique cloners</text>

</svg>