<svg xmlns="http://www.w3.org/2000/svg" viewBox="0 0 820 280" width="820" height="280">

  <!-- title -->
  <text x="52" y="18" font-size="13" font-weight="600"
        fill="#24292f" font-family="-apple-system, BlinkMacSystemFont, 'Segoe UI', sans-serif"
        >Clone traffic — nikos</text>
  <text x="800" y="18" font-size="10" fill="#8c959f"
        font-family="ui-monospace, SFMono-Regular, 'SF Mono', Menlo, monospace" text-anchor="end">2026-06-29</text>

  <!-- grid -->
  <line x1="52" y1="232.0" x2="800" y2="232.0" stroke="#e8e8e8" stroke-width="1"/><line x1="52" y1="192.4" x2="800" y2="192.4" stroke="#e8e8e8" stroke-width="1"/><line x1="52" y1="152.8" x2="800" y2="152.8" stroke="#e8e8e8" stroke-width="1"/><line x1="52" y1="113.2" x2="800" y2="113.2" stroke="#e8e8e8" stroke-width="1"/><line x1="52" y1="73.6" x2="800" y2="73.6" stroke="#e8e8e8" stroke-width="1"/><line x1="52" y1="33.9" x2="800" y2="33.9" stroke="#e8e8e8" stroke-width="1"/><line x1="52" y1="-5.7" x2="800" y2="-5.7" stroke="#e8e8e8" stroke-width="1"/>

  <!-- area fill -->
  <path d="M52.0,232.0 L52.0,232.0 L67.9,230.0 L83.8,228.0 L99.7,142.9 L115.7,226.1 L131.6,232.0 L147.5,232.0 L163.4,230.0 L179.3,230.0 L195.2,224.1 L211.1,178.5 L227.1,178.5 L243.0,28.0 L258.9,210.2 L274.8,172.6 L290.7,232.0 L306.6,232.0 L322.6,232.0 L338.5,230.0 L354.4,228.0 L370.3,226.1 L386.2,232.0 L402.1,232.0 L418.0,228.0 L434.0,230.0 L449.9,230.0 L465.8,230.0 L481.7,232.0 L497.6,230.0 L513.5,230.0 L529.4,230.0 L545.4,232.0 L561.3,230.0 L577.2,230.0 L593.1,230.0 L609.0,230.0 L624.9,230.0 L640.9,228.0 L656.8,230.0 L672.7,190.4 L688.6,214.2 L704.5,224.1 L720.4,51.8 L736.3,136.9 L752.3,119.1 L768.2,154.8 L784.1,232.0 L800.0,230.0 L800.0,232.0 L52.0,232.0Z" fill="#4e79a7" opacity="0.12"/>

  <!-- lines -->
  <polyline points="52.0,232.0 67.9,230.0 83.8,228.0 99.7,142.9 115.7,226.1 131.6,232.0 147.5,232.0 163.4,230.0 179.3,230.0 195.2,224.1 211.1,178.5 227.1,178.5 243.0,28.0 258.9,210.2 274.8,172.6 290.7,232.0 306.6,232.0 322.6,232.0 338.5,230.0 354.4,228.0 370.3,226.1 386.2,232.0 402.1,232.0 418.0,228.0 434.0,230.0 449.9,230.0 465.8,230.0 481.7,232.0 497.6,230.0 513.5,230.0 529.4,230.0 545.4,232.0 561.3,230.0 577.2,230.0 593.1,230.0 609.0,230.0 624.9,230.0 640.9,228.0 656.8,230.0 672.7,190.4 688.6,214.2 704.5,224.1 720.4,51.8 736.3,136.9 752.3,119.1 768.2,154.8 784.1,232.0 800.0,230.0"
            fill="none" stroke="#4e79a7"
            stroke-width="2" stroke-linejoin="round"/>
  <polyline points="52.0,232.0 67.9,230.0 83.8,228.0 99.7,174.6 115.7,226.1 131.6,232.0 147.5,232.0 163.4,230.0 179.3,230.0 195.2,224.1 211.1,214.2 227.1,196.3 243.0,138.9 258.9,224.1 274.8,222.1 290.7,232.0 306.6,232.0 322.6,232.0 338.5,230.0 354.4,228.0 370.3,228.0 386.2,232.0 402.1,232.0 418.0,228.0 434.0,230.0 449.9,230.0 465.8,230.0 481.7,232.0 497.6,230.0 513.5,230.0 529.4,230.0 545.4,232.0 561.3,230.0 577.2,230.0 593.1,230.0 609.0,230.0 624.9,230.0 640.9,228.0 656.8,230.0 672.7,220.1 688.6,224.1 704.5,230.0 720.4,194.4 736.3,206.3 752.3,202.3 768.2,212.2 784.1,232.0 800.0,230.0"
            fill="none" stroke="#f28e2b"
            stroke-width="2" stroke-linejoin="round"
            stroke-dasharray="5,3"/>

  <!-- dots -->
  <circle cx="52.0" cy="232.0" r="3" fill="#4e79a7"/><circle cx="67.9" cy="230.0" r="3" fill="#4e79a7"/><circle cx="83.8" cy="228.0" r="3" fill="#4e79a7"/><circle cx="99.7" cy="142.9" r="3" fill="#4e79a7"/><circle cx="115.7" cy="226.1" r="3" fill="#4e79a7"/><circle cx="131.6" cy="232.0" r="3" fill="#4e79a7"/><circle cx="147.5" cy="232.0" r="3" fill="#4e79a7"/><circle cx="163.4" cy="230.0" r="3" fill="#4e79a7"/><circle cx="179.3" cy="230.0" r="3" fill="#4e79a7"/><circle cx="195.2" cy="224.1" r="3" fill="#4e79a7"/><circle cx="211.1" cy="178.5" r="3" fill="#4e79a7"/><circle cx="227.1" cy="178.5" r="3" fill="#4e79a7"/><circle cx="243.0" cy="28.0" r="3" fill="#4e79a7"/><circle cx="258.9" cy="210.2" r="3" fill="#4e79a7"/><circle cx="274.8" cy="172.6" r="3" fill="#4e79a7"/><circle cx="290.7" cy="232.0" r="3" fill="#4e79a7"/><circle cx="306.6" cy="232.0" r="3" fill="#4e79a7"/><circle cx="322.6" cy="232.0" r="3" fill="#4e79a7"/><circle cx="338.5" cy="230.0" r="3" fill="#4e79a7"/><circle cx="354.4" cy="228.0" r="3" fill="#4e79a7"/><circle cx="370.3" cy="226.1" r="3" fill="#4e79a7"/><circle cx="386.2" cy="232.0" r="3" fill="#4e79a7"/><circle cx="402.1" cy="232.0" r="3" fill="#4e79a7"/><circle cx="418.0" cy="228.0" r="3" fill="#4e79a7"/><circle cx="434.0" cy="230.0" r="3" fill="#4e79a7"/><circle cx="449.9" cy="230.0" r="3" fill="#4e79a7"/><circle cx="465.8" cy="230.0" r="3" fill="#4e79a7"/><circle cx="481.7" cy="232.0" r="3" fill="#4e79a7"/><circle cx="497.6" cy="230.0" r="3" fill="#4e79a7"/><circle cx="513.5" cy="230.0" r="3" fill="#4e79a7"/><circle cx="529.4" cy="230.0" r="3" fill="#4e79a7"/><circle cx="545.4" cy="232.0" r="3" fill="#4e79a7"/><circle cx="561.3" cy="230.0" r="3" fill="#4e79a7"/><circle cx="577.2" cy="230.0" r="3" fill="#4e79a7"/><circle cx="593.1" cy="230.0" r="3" fill="#4e79a7"/><circle cx="609.0" cy="230.0" r="3" fill="#4e79a7"/><circle cx="624.9" cy="230.0" r="3" fill="#4e79a7"/><circle cx="640.9" cy="228.0" r="3" fill="#4e79a7"/><circle cx="656.8" cy="230.0" r="3" fill="#4e79a7"/><circle cx="672.7" cy="190.4" r="3" fill="#4e79a7"/><circle cx="688.6" cy="214.2" r="3" fill="#4e79a7"/><circle cx="704.5" cy="224.1" r="3" fill="#4e79a7"/><circle cx="720.4" cy="51.8" r="3" fill="#4e79a7"/><circle cx="736.3" cy="136.9" r="3" fill="#4e79a7"/><circle cx="752.3" cy="119.1" r="3" fill="#4e79a7"/><circle cx="768.2" cy="154.8" r="3" fill="#4e79a7"/><circle cx="784.1" cy="232.0" r="3" fill="#4e79a7"/><circle cx="800.0" cy="230.0" r="3" fill="#4e79a7"/>
  <circle cx="52.0" cy="232.0" r="3" fill="#f28e2b"/><circle cx="67.9" cy="230.0" r="3" fill="#f28e2b"/><circle cx="83.8" cy="228.0" r="3" fill="#f28e2b"/><circle cx="99.7" cy="174.6" r="3" fill="#f28e2b"/><circle cx="115.7" cy="226.1" r="3" fill="#f28e2b"/><circle cx="131.6" cy="232.0" r="3" fill="#f28e2b"/><circle cx="147.5" cy="232.0" r="3" fill="#f28e2b"/><circle cx="163.4" cy="230.0" r="3" fill="#f28e2b"/><circle cx="179.3" cy="230.0" r="3" fill="#f28e2b"/><circle cx="195.2" cy="224.1" r="3" fill="#f28e2b"/><circle cx="211.1" cy="214.2" r="3" fill="#f28e2b"/><circle cx="227.1" cy="196.3" r="3" fill="#f28e2b"/><circle cx="243.0" cy="138.9" r="3" fill="#f28e2b"/><circle cx="258.9" cy="224.1" r="3" fill="#f28e2b"/><circle cx="274.8" cy="222.1" r="3" fill="#f28e2b"/><circle cx="290.7" cy="232.0" r="3" fill="#f28e2b"/><circle cx="306.6" cy="232.0" r="3" fill="#f28e2b"/><circle cx="322.6" cy="232.0" r="3" fill="#f28e2b"/><circle cx="338.5" cy="230.0" r="3" fill="#f28e2b"/><circle cx="354.4" cy="228.0" r="3" fill="#f28e2b"/><circle cx="370.3" cy="228.0" r="3" fill="#f28e2b"/><circle cx="386.2" cy="232.0" r="3" fill="#f28e2b"/><circle cx="402.1" cy="232.0" r="3" fill="#f28e2b"/><circle cx="418.0" cy="228.0" r="3" fill="#f28e2b"/><circle cx="434.0" cy="230.0" r="3" fill="#f28e2b"/><circle cx="449.9" cy="230.0" r="3" fill="#f28e2b"/><circle cx="465.8" cy="230.0" r="3" fill="#f28e2b"/><circle cx="481.7" cy="232.0" r="3" fill="#f28e2b"/><circle cx="497.6" cy="230.0" r="3" fill="#f28e2b"/><circle cx="513.5" cy="230.0" r="3" fill="#f28e2b"/><circle cx="529.4" cy="230.0" r="3" fill="#f28e2b"/><circle cx="545.4" cy="232.0" r="3" fill="#f28e2b"/><circle cx="561.3" cy="230.0" r="3" fill="#f28e2b"/><circle cx="577.2" cy="230.0" r="3" fill="#f28e2b"/><circle cx="593.1" cy="230.0" r="3" fill="#f28e2b"/><circle cx="609.0" cy="230.0" r="3" fill="#f28e2b"/><circle cx="624.9" cy="230.0" r="3" fill="#f28e2b"/><circle cx="640.9" cy="228.0" r="3" fill="#f28e2b"/><circle cx="656.8" cy="230.0" r="3" fill="#f28e2b"/><circle cx="672.7" cy="220.1" r="3" fill="#f28e2b"/><circle cx="688.6" cy="224.1" r="3" fill="#f28e2b"/><circle cx="704.5" cy="230.0" r="3" fill="#f28e2b"/><circle cx="720.4" cy="194.4" r="3" fill="#f28e2b"/><circle cx="736.3" cy="206.3" r="3" fill="#f28e2b"/><circle cx="752.3" cy="202.3" r="3" fill="#f28e2b"/><circle cx="768.2" cy="212.2" r="3" fill="#f28e2b"/><circle cx="784.1" cy="232.0" r="3" fill="#f28e2b"/><circle cx="800.0" cy="230.0" r="3" fill="#f28e2b"/>

  <!-- axes -->
  <line x1="52" y1="28" x2="52" y2="232"
        stroke="#cccccc" stroke-width="1"/>
  <line x1="52" y1="232" x2="800" y2="232"
        stroke="#cccccc" stroke-width="1"/>

  <!-- y-axis labels -->
  <text x="47" y="236.0" text-anchor="end" font-size="10" fill="#57606a" font-family="ui-monospace, SFMono-Regular, 'SF Mono', Menlo, monospace">0</text><text x="47" y="196.4" text-anchor="end" font-size="10" fill="#57606a" font-family="ui-monospace, SFMono-Regular, 'SF Mono', Menlo, monospace">20</text><text x="47" y="156.8" text-anchor="end" font-size="10" fill="#57606a" font-family="ui-monospace, SFMono-Regular, 'SF Mono', Menlo, monospace">40</text><text x="47" y="117.2" text-anchor="end" font-size="10" fill="#57606a" font-family="ui-monospace, SFMono-Regular, 'SF Mono', Menlo, monospace">60</text><text x="47" y="77.6" text-anchor="end" font-size="10" fill="#57606a" font-family="ui-monospace, SFMono-Regular, 'SF Mono', Menlo, monospace">80</text><text x="47" y="37.9" text-anchor="end" font-size="10" fill="#57606a" font-family="ui-monospace, SFMono-Regular, 'SF Mono', Menlo, monospace">100</text><text x="47" y="-1.7" text-anchor="end" font-size="10" fill="#57606a" font-family="ui-monospace, SFMono-Regular, 'SF Mono', Menlo, monospace">120</text>

  <!-- x-axis labels -->
  <text x="52.0" y="248" text-anchor="middle" font-size="10" fill="#8c959f" font-family="ui-monospace, SFMono-Regular, 'SF Mono', Menlo, monospace">05-11</text><text x="624.9" y="248" text-anchor="middle" font-size="10" fill="#8c959f" font-family="ui-monospace, SFMono-Regular, 'SF Mono', Menlo, monospace">06-16</text><text x="147.5" y="248" text-anchor="middle" font-size="10" fill="#8c959f" font-family="ui-monospace, SFMono-Regular, 'SF Mono', Menlo, monospace">05-17</text><text x="720.4" y="248" text-anchor="middle" font-size="10" fill="#8c959f" font-family="ui-monospace, SFMono-Regular, 'SF Mono', Menlo, monospace">06-22</text><text x="243.0" y="248" text-anchor="middle" font-size="10" fill="#8c959f" font-family="ui-monospace, SFMono-Regular, 'SF Mono', Menlo, monospace">05-23</text><text x="800.0" y="248" text-anchor="middle" font-size="10" fill="#8c959f" font-family="ui-monospace, SFMono-Regular, 'SF Mono', Menlo, monospace">06-27</text><text x="338.5" y="248" text-anchor="middle" font-size="10" fill="#8c959f" font-family="ui-monospace, SFMono-Regular, 'SF Mono', Menlo, monospace">05-29</text><text x="434.0" y="248" text-anchor="middle" font-size="10" fill="#8c959f" font-family="ui-monospace, SFMono-Regular, 'SF Mono', Menlo, monospace">06-04</text><text x="529.4" y="248" text-anchor="middle" font-size="10" fill="#8c959f" font-family="ui-monospace, SFMono-Regular, 'SF Mono', Menlo, monospace">06-10</text>

  <!-- legend -->
  <rect x="60" y="262" width="16" height="3" fill="#4e79a7" rx="1"/><text x="80" y="268" font-size="11" fill="#57606a" font-family="-apple-system, BlinkMacSystemFont, 'Segoe UI', sans-serif">Total clones (547)</text><line x1="230" y1="264" x2="246" y2="264" stroke="#f28e2b" stroke-width="2" stroke-dasharray="5,3"/><text x="250" y="268" font-size="11" fill="#57606a" font-family="-apple-system, BlinkMacSystemFont, 'Segoe UI', sans-serif">Unique cloners</text>

</svg>