<svg xmlns="http://www.w3.org/2000/svg" viewBox="0 0 820 280" width="820" height="280">

  <!-- title -->
  <text x="52" y="18" font-size="13" font-weight="600"
        fill="#24292f" font-family="-apple-system, BlinkMacSystemFont, 'Segoe UI', sans-serif"
        >Clone traffic — nikos</text>
  <text x="800" y="18" font-size="10" fill="#8c959f"
        font-family="ui-monospace, SFMono-Regular, 'SF Mono', Menlo, monospace" text-anchor="end">2026-07-21</text>

  <!-- grid -->
  <line x1="52" y1="232.0" x2="800" y2="232.0" stroke="#e8e8e8" stroke-width="1"/><line x1="52" y1="192.4" x2="800" y2="192.4" stroke="#e8e8e8" stroke-width="1"/><line x1="52" y1="152.8" x2="800" y2="152.8" stroke="#e8e8e8" stroke-width="1"/><line x1="52" y1="113.2" x2="800" y2="113.2" stroke="#e8e8e8" stroke-width="1"/><line x1="52" y1="73.6" x2="800" y2="73.6" stroke="#e8e8e8" stroke-width="1"/><line x1="52" y1="33.9" x2="800" y2="33.9" stroke="#e8e8e8" stroke-width="1"/><line x1="52" y1="-5.7" x2="800" y2="-5.7" stroke="#e8e8e8" stroke-width="1"/>

  <!-- area fill -->
  <path d="M52.0,232.0 L52.0,232.0 L62.8,230.0 L73.7,228.0 L84.5,142.9 L95.4,226.1 L106.2,232.0 L117.0,232.0 L127.9,230.0 L138.7,230.0 L149.6,224.1 L160.4,178.5 L171.2,178.5 L182.1,28.0 L192.9,210.2 L203.8,172.6 L214.6,232.0 L225.4,232.0 L236.3,232.0 L247.1,230.0 L258.0,228.0 L268.8,226.1 L279.7,232.0 L290.5,232.0 L301.3,228.0 L312.2,230.0 L323.0,230.0 L333.9,230.0 L344.7,232.0 L355.5,230.0 L366.4,230.0 L377.2,230.0 L388.1,232.0 L398.9,230.0 L409.7,230.0 L420.6,230.0 L431.4,230.0 L442.3,230.0 L453.1,228.0 L463.9,230.0 L474.8,190.4 L485.6,214.2 L496.5,224.1 L507.3,51.8 L518.1,136.9 L529.0,119.1 L539.8,154.8 L550.7,232.0 L561.5,230.0 L572.3,232.0 L583.2,232.0 L594.0,232.0 L604.9,232.0 L615.7,232.0 L626.6,232.0 L637.4,228.0 L648.2,232.0 L659.1,232.0 L669.9,232.0 L680.8,232.0 L691.6,230.0 L702.4,230.0 L713.3,230.0 L724.1,232.0 L735.0,232.0 L745.8,230.0 L756.6,232.0 L767.5,232.0 L778.3,232.0 L789.2,226.1 L800.0,232.0 L800.0,232.0 L52.0,232.0Z" fill="#4e79a7" opacity="0.12"/>

  <!-- lines -->
  <polyline points="52.0,232.0 62.8,230.0 73.7,228.0 84.5,142.9 95.4,226.1 106.2,232.0 117.0,232.0 127.9,230.0 138.7,230.0 149.6,224.1 160.4,178.5 171.2,178.5 182.1,28.0 192.9,210.2 203.8,172.6 214.6,232.0 225.4,232.0 236.3,232.0 247.1,230.0 258.0,228.0 268.8,226.1 279.7,232.0 290.5,232.0 301.3,228.0 312.2,230.0 323.0,230.0 333.9,230.0 344.7,232.0 355.5,230.0 366.4,230.0 377.2,230.0 388.1,232.0 398.9,230.0 409.7,230.0 420.6,230.0 431.4,230.0 442.3,230.0 453.1,228.0 463.9,230.0 474.8,190.4 485.6,214.2 496.5,224.1 507.3,51.8 518.1,136.9 529.0,119.1 539.8,154.8 550.7,232.0 561.5,230.0 572.3,232.0 583.2,232.0 594.0,232.0 604.9,232.0 615.7,232.0 626.6,232.0 637.4,228.0 648.2,232.0 659.1,232.0 669.9,232.0 680.8,232.0 691.6,230.0 702.4,230.0 713.3,230.0 724.1,232.0 735.0,232.0 745.8,230.0 756.6,232.0 767.5,232.0 778.3,232.0 789.2,226.1 800.0,232.0"
            fill="none" stroke="#4e79a7"
            stroke-width="2" stroke-linejoin="round"/>
  <polyline points="52.0,232.0 62.8,230.0 73.7,228.0 84.5,174.6 95.4,226.1 106.2,232.0 117.0,232.0 127.9,230.0 138.7,230.0 149.6,224.1 160.4,214.2 171.2,196.3 182.1,138.9 192.9,224.1 203.8,222.1 214.6,232.0 225.4,232.0 236.3,232.0 247.1,230.0 258.0,228.0 268.8,228.0 279.7,232.0 290.5,232.0 301.3,228.0 312.2,230.0 323.0,230.0 333.9,230.0 344.7,232.0 355.5,230.0 366.4,230.0 377.2,230.0 388.1,232.0 398.9,230.0 409.7,230.0 420.6,230.0 431.4,230.0 442.3,230.0 453.1,228.0 463.9,230.0 474.8,220.1 485.6,224.1 496.5,230.0 507.3,194.4 518.1,206.3 529.0,202.3 539.8,212.2 550.7,232.0 561.5,230.0 572.3,232.0 583.2,232.0 594.0,232.0 604.9,232.0 615.7,232.0 626.6,232.0 637.4,230.0 648.2,232.0 659.1,232.0 669.9,232.0 680.8,232.0 691.6,230.0 702.4,230.0 713.3,230.0 724.1,232.0 735.0,232.0 745.8,230.0 756.6,232.0 767.5,232.0 778.3,232.0 789.2,230.0 800.0,232.0"
            fill="none" stroke="#f28e2b"
            stroke-width="2" stroke-linejoin="round"
            stroke-dasharray="5,3"/>

  <!-- dots -->
  <circle cx="52.0" cy="232.0" r="3" fill="#4e79a7"/><circle cx="62.8" cy="230.0" r="3" fill="#4e79a7"/><circle cx="73.7" cy="228.0" r="3" fill="#4e79a7"/><circle cx="84.5" cy="142.9" r="3" fill="#4e79a7"/><circle cx="95.4" cy="226.1" r="3" fill="#4e79a7"/><circle cx="106.2" cy="232.0" r="3" fill="#4e79a7"/><circle cx="117.0" cy="232.0" r="3" fill="#4e79a7"/><circle cx="127.9" cy="230.0" r="3" fill="#4e79a7"/><circle cx="138.7" cy="230.0" r="3" fill="#4e79a7"/><circle cx="149.6" cy="224.1" r="3" fill="#4e79a7"/><circle cx="160.4" cy="178.5" r="3" fill="#4e79a7"/><circle cx="171.2" cy="178.5" r="3" fill="#4e79a7"/><circle cx="182.1" cy="28.0" r="3" fill="#4e79a7"/><circle cx="192.9" cy="210.2" r="3" fill="#4e79a7"/><circle cx="203.8" cy="172.6" r="3" fill="#4e79a7"/><circle cx="214.6" cy="232.0" r="3" fill="#4e79a7"/><circle cx="225.4" cy="232.0" r="3" fill="#4e79a7"/><circle cx="236.3" cy="232.0" r="3" fill="#4e79a7"/><circle cx="247.1" cy="230.0" r="3" fill="#4e79a7"/><circle cx="258.0" cy="228.0" r="3" fill="#4e79a7"/><circle cx="268.8" cy="226.1" r="3" fill="#4e79a7"/><circle cx="279.7" cy="232.0" r="3" fill="#4e79a7"/><circle cx="290.5" cy="232.0" r="3" fill="#4e79a7"/><circle cx="301.3" cy="228.0" r="3" fill="#4e79a7"/><circle cx="312.2" cy="230.0" r="3" fill="#4e79a7"/><circle cx="323.0" cy="230.0" r="3" fill="#4e79a7"/><circle cx="333.9" cy="230.0" r="3" fill="#4e79a7"/><circle cx="344.7" cy="232.0" r="3" fill="#4e79a7"/><circle cx="355.5" cy="230.0" r="3" fill="#4e79a7"/><circle cx="366.4" cy="230.0" r="3" fill="#4e79a7"/><circle cx="377.2" cy="230.0" r="3" fill="#4e79a7"/><circle cx="388.1" cy="232.0" r="3" fill="#4e79a7"/><circle cx="398.9" cy="230.0" r="3" fill="#4e79a7"/><circle cx="409.7" cy="230.0" r="3" fill="#4e79a7"/><circle cx="420.6" cy="230.0" r="3" fill="#4e79a7"/><circle cx="431.4" cy="230.0" r="3" fill="#4e79a7"/><circle cx="442.3" cy="230.0" r="3" fill="#4e79a7"/><circle cx="453.1" cy="228.0" r="3" fill="#4e79a7"/><circle cx="463.9" cy="230.0" r="3" fill="#4e79a7"/><circle cx="474.8" cy="190.4" r="3" fill="#4e79a7"/><circle cx="485.6" cy="214.2" r="3" fill="#4e79a7"/><circle cx="496.5" cy="224.1" r="3" fill="#4e79a7"/><circle cx="507.3" cy="51.8" r="3" fill="#4e79a7"/><circle cx="518.1" cy="136.9" r="3" fill="#4e79a7"/><circle cx="529.0" cy="119.1" r="3" fill="#4e79a7"/><circle cx="539.8" cy="154.8" r="3" fill="#4e79a7"/><circle cx="550.7" cy="232.0" r="3" fill="#4e79a7"/><circle cx="561.5" cy="230.0" r="3" fill="#4e79a7"/><circle cx="572.3" cy="232.0" r="3" fill="#4e79a7"/><circle cx="583.2" cy="232.0" r="3" fill="#4e79a7"/><circle cx="594.0" cy="232.0" r="3" fill="#4e79a7"/><circle cx="604.9" cy="232.0" r="3" fill="#4e79a7"/><circle cx="615.7" cy="232.0" r="3" fill="#4e79a7"/><circle cx="626.6" cy="232.0" r="3" fill="#4e79a7"/><circle cx="637.4" cy="228.0" r="3" fill="#4e79a7"/><circle cx="648.2" cy="232.0" r="3" fill="#4e79a7"/><circle cx="659.1" cy="232.0" r="3" fill="#4e79a7"/><circle cx="669.9" cy="232.0" r="3" fill="#4e79a7"/><circle cx="680.8" cy="232.0" r="3" fill="#4e79a7"/><circle cx="691.6" cy="230.0" r="3" fill="#4e79a7"/><circle cx="702.4" cy="230.0" r="3" fill="#4e79a7"/><circle cx="713.3" cy="230.0" r="3" fill="#4e79a7"/><circle cx="724.1" cy="232.0" r="3" fill="#4e79a7"/><circle cx="735.0" cy="232.0" r="3" fill="#4e79a7"/><circle cx="745.8" cy="230.0" r="3" fill="#4e79a7"/><circle cx="756.6" cy="232.0" r="3" fill="#4e79a7"/><circle cx="767.5" cy="232.0" r="3" fill="#4e79a7"/><circle cx="778.3" cy="232.0" r="3" fill="#4e79a7"/><circle cx="789.2" cy="226.1" r="3" fill="#4e79a7"/><circle cx="800.0" cy="232.0" r="3" fill="#4e79a7"/>
  <circle cx="52.0" cy="232.0" r="3" fill="#f28e2b"/><circle cx="62.8" cy="230.0" r="3" fill="#f28e2b"/><circle cx="73.7" cy="228.0" r="3" fill="#f28e2b"/><circle cx="84.5" cy="174.6" r="3" fill="#f28e2b"/><circle cx="95.4" cy="226.1" r="3" fill="#f28e2b"/><circle cx="106.2" cy="232.0" r="3" fill="#f28e2b"/><circle cx="117.0" cy="232.0" r="3" fill="#f28e2b"/><circle cx="127.9" cy="230.0" r="3" fill="#f28e2b"/><circle cx="138.7" cy="230.0" r="3" fill="#f28e2b"/><circle cx="149.6" cy="224.1" r="3" fill="#f28e2b"/><circle cx="160.4" cy="214.2" r="3" fill="#f28e2b"/><circle cx="171.2" cy="196.3" r="3" fill="#f28e2b"/><circle cx="182.1" cy="138.9" r="3" fill="#f28e2b"/><circle cx="192.9" cy="224.1" r="3" fill="#f28e2b"/><circle cx="203.8" cy="222.1" r="3" fill="#f28e2b"/><circle cx="214.6" cy="232.0" r="3" fill="#f28e2b"/><circle cx="225.4" cy="232.0" r="3" fill="#f28e2b"/><circle cx="236.3" cy="232.0" r="3" fill="#f28e2b"/><circle cx="247.1" cy="230.0" r="3" fill="#f28e2b"/><circle cx="258.0" cy="228.0" r="3" fill="#f28e2b"/><circle cx="268.8" cy="228.0" r="3" fill="#f28e2b"/><circle cx="279.7" cy="232.0" r="3" fill="#f28e2b"/><circle cx="290.5" cy="232.0" r="3" fill="#f28e2b"/><circle cx="301.3" cy="228.0" r="3" fill="#f28e2b"/><circle cx="312.2" cy="230.0" r="3" fill="#f28e2b"/><circle cx="323.0" cy="230.0" r="3" fill="#f28e2b"/><circle cx="333.9" cy="230.0" r="3" fill="#f28e2b"/><circle cx="344.7" cy="232.0" r="3" fill="#f28e2b"/><circle cx="355.5" cy="230.0" r="3" fill="#f28e2b"/><circle cx="366.4" cy="230.0" r="3" fill="#f28e2b"/><circle cx="377.2" cy="230.0" r="3" fill="#f28e2b"/><circle cx="388.1" cy="232.0" r="3" fill="#f28e2b"/><circle cx="398.9" cy="230.0" r="3" fill="#f28e2b"/><circle cx="409.7" cy="230.0" r="3" fill="#f28e2b"/><circle cx="420.6" cy="230.0" r="3" fill="#f28e2b"/><circle cx="431.4" cy="230.0" r="3" fill="#f28e2b"/><circle cx="442.3" cy="230.0" r="3" fill="#f28e2b"/><circle cx="453.1" cy="228.0" r="3" fill="#f28e2b"/><circle cx="463.9" cy="230.0" r="3" fill="#f28e2b"/><circle cx="474.8" cy="220.1" r="3" fill="#f28e2b"/><circle cx="485.6" cy="224.1" r="3" fill="#f28e2b"/><circle cx="496.5" cy="230.0" r="3" fill="#f28e2b"/><circle cx="507.3" cy="194.4" r="3" fill="#f28e2b"/><circle cx="518.1" cy="206.3" r="3" fill="#f28e2b"/><circle cx="529.0" cy="202.3" r="3" fill="#f28e2b"/><circle cx="539.8" cy="212.2" r="3" fill="#f28e2b"/><circle cx="550.7" cy="232.0" r="3" fill="#f28e2b"/><circle cx="561.5" cy="230.0" r="3" fill="#f28e2b"/><circle cx="572.3" cy="232.0" r="3" fill="#f28e2b"/><circle cx="583.2" cy="232.0" r="3" fill="#f28e2b"/><circle cx="594.0" cy="232.0" r="3" fill="#f28e2b"/><circle cx="604.9" cy="232.0" r="3" fill="#f28e2b"/><circle cx="615.7" cy="232.0" r="3" fill="#f28e2b"/><circle cx="626.6" cy="232.0" r="3" fill="#f28e2b"/><circle cx="637.4" cy="230.0" r="3" fill="#f28e2b"/><circle cx="648.2" cy="232.0" r="3" fill="#f28e2b"/><circle cx="659.1" cy="232.0" r="3" fill="#f28e2b"/><circle cx="669.9" cy="232.0" r="3" fill="#f28e2b"/><circle cx="680.8" cy="232.0" r="3" fill="#f28e2b"/><circle cx="691.6" cy="230.0" r="3" fill="#f28e2b"/><circle cx="702.4" cy="230.0" r="3" fill="#f28e2b"/><circle cx="713.3" cy="230.0" r="3" fill="#f28e2b"/><circle cx="724.1" cy="232.0" r="3" fill="#f28e2b"/><circle cx="735.0" cy="232.0" r="3" fill="#f28e2b"/><circle cx="745.8" cy="230.0" r="3" fill="#f28e2b"/><circle cx="756.6" cy="232.0" r="3" fill="#f28e2b"/><circle cx="767.5" cy="232.0" r="3" fill="#f28e2b"/><circle cx="778.3" cy="232.0" r="3" fill="#f28e2b"/><circle cx="789.2" cy="230.0" r="3" fill="#f28e2b"/><circle cx="800.0" cy="232.0" r="3" fill="#f28e2b"/>

  <!-- axes -->
  <line x1="52" y1="28" x2="52" y2="232"
        stroke="#cccccc" stroke-width="1"/>
  <line x1="52" y1="232" x2="800" y2="232"
        stroke="#cccccc" stroke-width="1"/>

  <!-- y-axis labels -->
  <text x="47" y="236.0" text-anchor="end" font-size="10" fill="#57606a" font-family="ui-monospace, SFMono-Regular, 'SF Mono', Menlo, monospace">0</text><text x="47" y="196.4" text-anchor="end" font-size="10" fill="#57606a" font-family="ui-monospace, SFMono-Regular, 'SF Mono', Menlo, monospace">20</text><text x="47" y="156.8" text-anchor="end" font-size="10" fill="#57606a" font-family="ui-monospace, SFMono-Regular, 'SF Mono', Menlo, monospace">40</text><text x="47" y="117.2" text-anchor="end" font-size="10" fill="#57606a" font-family="ui-monospace, SFMono-Regular, 'SF Mono', Menlo, monospace">60</text><text x="47" y="77.6" text-anchor="end" font-size="10" fill="#57606a" font-family="ui-monospace, SFMono-Regular, 'SF Mono', Menlo, monospace">80</text><text x="47" y="37.9" text-anchor="end" font-size="10" fill="#57606a" font-family="ui-monospace, SFMono-Regular, 'SF Mono', Menlo, monospace">100</text><text x="47" y="-1.7" text-anchor="end" font-size="10" fill="#57606a" font-family="ui-monospace, SFMono-Regular, 'SF Mono', Menlo, monospace">120</text>

  <!-- x-axis labels -->
  <text x="52.0" y="248" text-anchor="middle" font-size="10" fill="#8c959f" font-family="ui-monospace, SFMono-Regular, 'SF Mono', Menlo, monospace">05-11</text><text x="398.9" y="248" text-anchor="middle" font-size="10" fill="#8c959f" font-family="ui-monospace, SFMono-Regular, 'SF Mono', Menlo, monospace">06-12</text><text x="745.8" y="248" text-anchor="middle" font-size="10" fill="#8c959f" font-family="ui-monospace, SFMono-Regular, 'SF Mono', Menlo, monospace">07-14</text><text x="800.0" y="248" text-anchor="middle" font-size="10" fill="#8c959f" font-family="ui-monospace, SFMono-Regular, 'SF Mono', Menlo, monospace">07-19</text><text x="138.7" y="248" text-anchor="middle" font-size="10" fill="#8c959f" font-family="ui-monospace, SFMono-Regular, 'SF Mono', Menlo, monospace">05-19</text><text x="485.6" y="248" text-anchor="middle" font-size="10" fill="#8c959f" font-family="ui-monospace, SFMono-Regular, 'SF Mono', Menlo, monospace">06-20</text><text x="225.4" y="248" text-anchor="middle" font-size="10" fill="#8c959f" font-family="ui-monospace, SFMono-Regular, 'SF Mono', Menlo, monospace">05-27</text><text x="572.3" y="248" text-anchor="middle" font-size="10" fill="#8c959f" font-family="ui-monospace, SFMono-Regular, 'SF Mono', Menlo, monospace">06-28</text><text x="312.2" y="248" text-anchor="middle" font-size="10" fill="#8c959f" font-family="ui-monospace, SFMono-Regular, 'SF Mono', Menlo, monospace">06-04</text><text x="659.1" y="248" text-anchor="middle" font-size="10" fill="#8c959f" font-family="ui-monospace, SFMono-Regular, 'SF Mono', Menlo, monospace">07-06</text>

  <!-- legend -->
  <rect x="60" y="262" width="16" height="3" fill="#4e79a7" rx="1"/><text x="80" y="268" font-size="11" fill="#57606a" font-family="-apple-system, BlinkMacSystemFont, 'Segoe UI', sans-serif">Total clones (556)</text><line x1="230" y1="264" x2="246" y2="264" stroke="#f28e2b" stroke-width="2" stroke-dasharray="5,3"/><text x="250" y="268" font-size="11" fill="#57606a" font-family="-apple-system, BlinkMacSystemFont, 'Segoe UI', sans-serif">Unique cloners</text>

</svg>