<svg xmlns="http://www.w3.org/2000/svg" viewBox="0 0 820 280" width="820" height="280">

  <!-- title -->
  <text x="52" y="18" font-size="13" font-weight="600"
        fill="#24292f" font-family="-apple-system, BlinkMacSystemFont, 'Segoe UI', sans-serif"
        >Clone traffic — nomisma</text>
  <text x="800" y="18" font-size="10" fill="#8c959f"
        font-family="ui-monospace, SFMono-Regular, 'SF Mono', Menlo, monospace" text-anchor="end">2026-06-19</text>

  <!-- grid -->
  <line x1="52" y1="232.0" x2="800" y2="232.0" stroke="#e8e8e8" stroke-width="1"/><line x1="52" y1="198.0" x2="800" y2="198.0" stroke="#e8e8e8" stroke-width="1"/><line x1="52" y1="164.0" x2="800" y2="164.0" stroke="#e8e8e8" stroke-width="1"/><line x1="52" y1="130.0" x2="800" y2="130.0" stroke="#e8e8e8" stroke-width="1"/><line x1="52" y1="96.0" x2="800" y2="96.0" stroke="#e8e8e8" stroke-width="1"/><line x1="52" y1="62.0" x2="800" y2="62.0" stroke="#e8e8e8" stroke-width="1"/><line x1="52" y1="28.0" x2="800" y2="28.0" stroke="#e8e8e8" stroke-width="1"/>

  <!-- area fill -->
  <path d="M52.0,232.0 L52.0,232.0 L72.2,228.6 L92.4,225.2 L112.6,228.6 L132.9,228.6 L153.1,232.0 L173.3,232.0 L193.5,232.0 L213.7,225.2 L233.9,232.0 L254.2,215.0 L274.4,232.0 L294.6,228.6 L314.8,153.8 L335.0,28.0 L355.2,225.2 L375.5,221.8 L395.7,225.2 L415.9,225.2 L436.1,232.0 L456.3,228.6 L476.5,215.0 L496.8,221.8 L517.0,232.0 L537.2,225.2 L557.4,228.6 L577.6,228.6 L597.8,232.0 L618.1,232.0 L638.3,221.8 L658.5,228.6 L678.7,232.0 L698.9,228.6 L719.1,232.0 L739.4,228.6 L759.6,228.6 L779.8,228.6 L800.0,228.6 L800.0,232.0 L52.0,232.0Z" fill="#4e79a7" opacity="0.12"/>

  <!-- lines -->
  <polyline points="52.0,232.0 72.2,228.6 92.4,225.2 112.6,228.6 132.9,228.6 153.1,232.0 173.3,232.0 193.5,232.0 213.7,225.2 233.9,232.0 254.2,215.0 274.4,232.0 294.6,228.6 314.8,153.8 335.0,28.0 355.2,225.2 375.5,221.8 395.7,225.2 415.9,225.2 436.1,232.0 456.3,228.6 476.5,215.0 496.8,221.8 517.0,232.0 537.2,225.2 557.4,228.6 577.6,228.6 597.8,232.0 618.1,232.0 638.3,221.8 658.5,228.6 678.7,232.0 698.9,228.6 719.1,232.0 739.4,228.6 759.6,228.6 779.8,228.6 800.0,228.6"
            fill="none" stroke="#4e79a7"
            stroke-width="2" stroke-linejoin="round"/>
  <polyline points="52.0,232.0 72.2,228.6 92.4,225.2 112.6,228.6 132.9,228.6 153.1,232.0 173.3,232.0 193.5,232.0 213.7,225.2 233.9,232.0 254.2,228.6 274.4,232.0 294.6,228.6 314.8,184.4 335.0,140.2 355.2,225.2 375.5,221.8 395.7,225.2 415.9,225.2 436.1,232.0 456.3,228.6 476.5,221.8 496.8,225.2 517.0,232.0 537.2,225.2 557.4,228.6 577.6,228.6 597.8,232.0 618.1,232.0 638.3,221.8 658.5,228.6 678.7,232.0 698.9,228.6 719.1,232.0 739.4,228.6 759.6,228.6 779.8,228.6 800.0,228.6"
            fill="none" stroke="#f28e2b"
            stroke-width="2" stroke-linejoin="round"
            stroke-dasharray="5,3"/>

  <!-- dots -->
  <circle cx="52.0" cy="232.0" r="3" fill="#4e79a7"/><circle cx="72.2" cy="228.6" r="3" fill="#4e79a7"/><circle cx="92.4" cy="225.2" r="3" fill="#4e79a7"/><circle cx="112.6" cy="228.6" r="3" fill="#4e79a7"/><circle cx="132.9" cy="228.6" r="3" fill="#4e79a7"/><circle cx="153.1" cy="232.0" r="3" fill="#4e79a7"/><circle cx="173.3" cy="232.0" r="3" fill="#4e79a7"/><circle cx="193.5" cy="232.0" r="3" fill="#4e79a7"/><circle cx="213.7" cy="225.2" r="3" fill="#4e79a7"/><circle cx="233.9" cy="232.0" r="3" fill="#4e79a7"/><circle cx="254.2" cy="215.0" r="3" fill="#4e79a7"/><circle cx="274.4" cy="232.0" r="3" fill="#4e79a7"/><circle cx="294.6" cy="228.6" r="3" fill="#4e79a7"/><circle cx="314.8" cy="153.8" r="3" fill="#4e79a7"/><circle cx="335.0" cy="28.0" r="3" fill="#4e79a7"/><circle cx="355.2" cy="225.2" r="3" fill="#4e79a7"/><circle cx="375.5" cy="221.8" r="3" fill="#4e79a7"/><circle cx="395.7" cy="225.2" r="3" fill="#4e79a7"/><circle cx="415.9" cy="225.2" r="3" fill="#4e79a7"/><circle cx="436.1" cy="232.0" r="3" fill="#4e79a7"/><circle cx="456.3" cy="228.6" r="3" fill="#4e79a7"/><circle cx="476.5" cy="215.0" r="3" fill="#4e79a7"/><circle cx="496.8" cy="221.8" r="3" fill="#4e79a7"/><circle cx="517.0" cy="232.0" r="3" fill="#4e79a7"/><circle cx="537.2" cy="225.2" r="3" fill="#4e79a7"/><circle cx="557.4" cy="228.6" r="3" fill="#4e79a7"/><circle cx="577.6" cy="228.6" r="3" fill="#4e79a7"/><circle cx="597.8" cy="232.0" r="3" fill="#4e79a7"/><circle cx="618.1" cy="232.0" r="3" fill="#4e79a7"/><circle cx="638.3" cy="221.8" r="3" fill="#4e79a7"/><circle cx="658.5" cy="228.6" r="3" fill="#4e79a7"/><circle cx="678.7" cy="232.0" r="3" fill="#4e79a7"/><circle cx="698.9" cy="228.6" r="3" fill="#4e79a7"/><circle cx="719.1" cy="232.0" r="3" fill="#4e79a7"/><circle cx="739.4" cy="228.6" r="3" fill="#4e79a7"/><circle cx="759.6" cy="228.6" r="3" fill="#4e79a7"/><circle cx="779.8" cy="228.6" r="3" fill="#4e79a7"/><circle cx="800.0" cy="228.6" r="3" fill="#4e79a7"/>
  <circle cx="52.0" cy="232.0" r="3" fill="#f28e2b"/><circle cx="72.2" cy="228.6" r="3" fill="#f28e2b"/><circle cx="92.4" cy="225.2" r="3" fill="#f28e2b"/><circle cx="112.6" cy="228.6" r="3" fill="#f28e2b"/><circle cx="132.9" cy="228.6" r="3" fill="#f28e2b"/><circle cx="153.1" cy="232.0" r="3" fill="#f28e2b"/><circle cx="173.3" cy="232.0" r="3" fill="#f28e2b"/><circle cx="193.5" cy="232.0" r="3" fill="#f28e2b"/><circle cx="213.7" cy="225.2" r="3" fill="#f28e2b"/><circle cx="233.9" cy="232.0" r="3" fill="#f28e2b"/><circle cx="254.2" cy="228.6" r="3" fill="#f28e2b"/><circle cx="274.4" cy="232.0" r="3" fill="#f28e2b"/><circle cx="294.6" cy="228.6" r="3" fill="#f28e2b"/><circle cx="314.8" cy="184.4" r="3" fill="#f28e2b"/><circle cx="335.0" cy="140.2" r="3" fill="#f28e2b"/><circle cx="355.2" cy="225.2" r="3" fill="#f28e2b"/><circle cx="375.5" cy="221.8" r="3" fill="#f28e2b"/><circle cx="395.7" cy="225.2" r="3" fill="#f28e2b"/><circle cx="415.9" cy="225.2" r="3" fill="#f28e2b"/><circle cx="436.1" cy="232.0" r="3" fill="#f28e2b"/><circle cx="456.3" cy="228.6" r="3" fill="#f28e2b"/><circle cx="476.5" cy="221.8" r="3" fill="#f28e2b"/><circle cx="496.8" cy="225.2" r="3" fill="#f28e2b"/><circle cx="517.0" cy="232.0" r="3" fill="#f28e2b"/><circle cx="537.2" cy="225.2" r="3" fill="#f28e2b"/><circle cx="557.4" cy="228.6" r="3" fill="#f28e2b"/><circle cx="577.6" cy="228.6" r="3" fill="#f28e2b"/><circle cx="597.8" cy="232.0" r="3" fill="#f28e2b"/><circle cx="618.1" cy="232.0" r="3" fill="#f28e2b"/><circle cx="638.3" cy="221.8" r="3" fill="#f28e2b"/><circle cx="658.5" cy="228.6" r="3" fill="#f28e2b"/><circle cx="678.7" cy="232.0" r="3" fill="#f28e2b"/><circle cx="698.9" cy="228.6" r="3" fill="#f28e2b"/><circle cx="719.1" cy="232.0" r="3" fill="#f28e2b"/><circle cx="739.4" cy="228.6" r="3" fill="#f28e2b"/><circle cx="759.6" cy="228.6" r="3" fill="#f28e2b"/><circle cx="779.8" cy="228.6" r="3" fill="#f28e2b"/><circle cx="800.0" cy="228.6" r="3" fill="#f28e2b"/>

  <!-- axes -->
  <line x1="52" y1="28" x2="52" y2="232"
        stroke="#cccccc" stroke-width="1"/>
  <line x1="52" y1="232" x2="800" y2="232"
        stroke="#cccccc" stroke-width="1"/>

  <!-- y-axis labels -->
  <text x="47" y="236.0" text-anchor="end" font-size="10" fill="#57606a" font-family="ui-monospace, SFMono-Regular, 'SF Mono', Menlo, monospace">0</text><text x="47" y="202.0" text-anchor="end" font-size="10" fill="#57606a" font-family="ui-monospace, SFMono-Regular, 'SF Mono', Menlo, monospace">10</text><text x="47" y="168.0" text-anchor="end" font-size="10" fill="#57606a" font-family="ui-monospace, SFMono-Regular, 'SF Mono', Menlo, monospace">20</text><text x="47" y="134.0" text-anchor="end" font-size="10" fill="#57606a" font-family="ui-monospace, SFMono-Regular, 'SF Mono', Menlo, monospace">30</text><text x="47" y="100.0" text-anchor="end" font-size="10" fill="#57606a" font-family="ui-monospace, SFMono-Regular, 'SF Mono', Menlo, monospace">40</text><text x="47" y="66.0" text-anchor="end" font-size="10" fill="#57606a" font-family="ui-monospace, SFMono-Regular, 'SF Mono', Menlo, monospace">50</text><text x="47" y="32.0" text-anchor="end" font-size="10" fill="#57606a" font-family="ui-monospace, SFMono-Regular, 'SF Mono', Menlo, monospace">60</text>

  <!-- x-axis labels -->
  <text x="52.0" y="248" text-anchor="middle" font-size="10" fill="#8c959f" font-family="ui-monospace, SFMono-Regular, 'SF Mono', Menlo, monospace">05-11</text><text x="698.9" y="248" text-anchor="middle" font-size="10" fill="#8c959f" font-family="ui-monospace, SFMono-Regular, 'SF Mono', Menlo, monospace">06-12</text><text x="132.9" y="248" text-anchor="middle" font-size="10" fill="#8c959f" font-family="ui-monospace, SFMono-Regular, 'SF Mono', Menlo, monospace">05-15</text><text x="779.8" y="248" text-anchor="middle" font-size="10" fill="#8c959f" font-family="ui-monospace, SFMono-Regular, 'SF Mono', Menlo, monospace">06-16</text><text x="800.0" y="248" text-anchor="middle" font-size="10" fill="#8c959f" font-family="ui-monospace, SFMono-Regular, 'SF Mono', Menlo, monospace">06-17</text><text x="213.7" y="248" text-anchor="middle" font-size="10" fill="#8c959f" font-family="ui-monospace, SFMono-Regular, 'SF Mono', Menlo, monospace">05-19</text><text x="294.6" y="248" text-anchor="middle" font-size="10" fill="#8c959f" font-family="ui-monospace, SFMono-Regular, 'SF Mono', Menlo, monospace">05-23</text><text x="375.5" y="248" text-anchor="middle" font-size="10" fill="#8c959f" font-family="ui-monospace, SFMono-Regular, 'SF Mono', Menlo, monospace">05-27</text><text x="456.3" y="248" text-anchor="middle" font-size="10" fill="#8c959f" font-family="ui-monospace, SFMono-Regular, 'SF Mono', Menlo, monospace">05-31</text><text x="537.2" y="248" text-anchor="middle" font-size="10" fill="#8c959f" font-family="ui-monospace, SFMono-Regular, 'SF Mono', Menlo, monospace">06-04</text><text x="618.1" y="248" text-anchor="middle" font-size="10" fill="#8c959f" font-family="ui-monospace, SFMono-Regular, 'SF Mono', Menlo, monospace">06-08</text>

  <!-- legend -->
  <rect x="60" y="262" width="16" height="3" fill="#4e79a7" rx="1"/><text x="80" y="268" font-size="11" fill="#57606a" font-family="-apple-system, BlinkMacSystemFont, 'Segoe UI', sans-serif">Total clones (127)</text><line x1="230" y1="264" x2="246" y2="264" stroke="#f28e2b" stroke-width="2" stroke-dasharray="5,3"/><text x="250" y="268" font-size="11" fill="#57606a" font-family="-apple-system, BlinkMacSystemFont, 'Segoe UI', sans-serif">Unique cloners</text>

</svg>