<svg xmlns="http://www.w3.org/2000/svg" viewBox="0 0 820 280" width="820" height="280">

  <!-- title -->
  <text x="52" y="18" font-size="13" font-weight="600"
        fill="#24292f" font-family="-apple-system, BlinkMacSystemFont, 'Segoe UI', sans-serif"
        >Clone traffic — nomisma</text>
  <text x="800" y="18" font-size="10" fill="#8c959f"
        font-family="ui-monospace, SFMono-Regular, 'SF Mono', Menlo, monospace" text-anchor="end">2026-06-17</text>

  <!-- grid -->
  <line x1="52" y1="232.0" x2="800" y2="232.0" stroke="#e8e8e8" stroke-width="1"/><line x1="52" y1="198.0" x2="800" y2="198.0" stroke="#e8e8e8" stroke-width="1"/><line x1="52" y1="164.0" x2="800" y2="164.0" stroke="#e8e8e8" stroke-width="1"/><line x1="52" y1="130.0" x2="800" y2="130.0" stroke="#e8e8e8" stroke-width="1"/><line x1="52" y1="96.0" x2="800" y2="96.0" stroke="#e8e8e8" stroke-width="1"/><line x1="52" y1="62.0" x2="800" y2="62.0" stroke="#e8e8e8" stroke-width="1"/><line x1="52" y1="28.0" x2="800" y2="28.0" stroke="#e8e8e8" stroke-width="1"/>

  <!-- area fill -->
  <path d="M52.0,232.0 L52.0,232.0 L73.4,228.6 L94.7,225.2 L116.1,228.6 L137.5,228.6 L158.9,232.0 L180.2,232.0 L201.6,232.0 L223.0,225.2 L244.3,232.0 L265.7,215.0 L287.1,232.0 L308.5,228.6 L329.8,153.8 L351.2,28.0 L372.6,225.2 L393.9,221.8 L415.3,225.2 L436.7,225.2 L458.1,232.0 L479.4,228.6 L500.8,215.0 L522.2,221.8 L543.5,232.0 L564.9,225.2 L586.3,228.6 L607.7,228.6 L629.0,232.0 L650.4,232.0 L671.8,221.8 L693.1,228.6 L714.5,232.0 L735.9,228.6 L757.3,232.0 L778.6,228.6 L800.0,228.6 L800.0,232.0 L52.0,232.0Z" fill="#4e79a7" opacity="0.12"/>

  <!-- lines -->
  <polyline points="52.0,232.0 73.4,228.6 94.7,225.2 116.1,228.6 137.5,228.6 158.9,232.0 180.2,232.0 201.6,232.0 223.0,225.2 244.3,232.0 265.7,215.0 287.1,232.0 308.5,228.6 329.8,153.8 351.2,28.0 372.6,225.2 393.9,221.8 415.3,225.2 436.7,225.2 458.1,232.0 479.4,228.6 500.8,215.0 522.2,221.8 543.5,232.0 564.9,225.2 586.3,228.6 607.7,228.6 629.0,232.0 650.4,232.0 671.8,221.8 693.1,228.6 714.5,232.0 735.9,228.6 757.3,232.0 778.6,228.6 800.0,228.6"
            fill="none" stroke="#4e79a7"
            stroke-width="2" stroke-linejoin="round"/>
  <polyline points="52.0,232.0 73.4,228.6 94.7,225.2 116.1,228.6 137.5,228.6 158.9,232.0 180.2,232.0 201.6,232.0 223.0,225.2 244.3,232.0 265.7,228.6 287.1,232.0 308.5,228.6 329.8,184.4 351.2,140.2 372.6,225.2 393.9,221.8 415.3,225.2 436.7,225.2 458.1,232.0 479.4,228.6 500.8,221.8 522.2,225.2 543.5,232.0 564.9,225.2 586.3,228.6 607.7,228.6 629.0,232.0 650.4,232.0 671.8,221.8 693.1,228.6 714.5,232.0 735.9,228.6 757.3,232.0 778.6,228.6 800.0,228.6"
            fill="none" stroke="#f28e2b"
            stroke-width="2" stroke-linejoin="round"
            stroke-dasharray="5,3"/>

  <!-- dots -->
  <circle cx="52.0" cy="232.0" r="3" fill="#4e79a7"/><circle cx="73.4" cy="228.6" r="3" fill="#4e79a7"/><circle cx="94.7" cy="225.2" r="3" fill="#4e79a7"/><circle cx="116.1" cy="228.6" r="3" fill="#4e79a7"/><circle cx="137.5" cy="228.6" r="3" fill="#4e79a7"/><circle cx="158.9" cy="232.0" r="3" fill="#4e79a7"/><circle cx="180.2" cy="232.0" r="3" fill="#4e79a7"/><circle cx="201.6" cy="232.0" r="3" fill="#4e79a7"/><circle cx="223.0" cy="225.2" r="3" fill="#4e79a7"/><circle cx="244.3" cy="232.0" r="3" fill="#4e79a7"/><circle cx="265.7" cy="215.0" r="3" fill="#4e79a7"/><circle cx="287.1" cy="232.0" r="3" fill="#4e79a7"/><circle cx="308.5" cy="228.6" r="3" fill="#4e79a7"/><circle cx="329.8" cy="153.8" r="3" fill="#4e79a7"/><circle cx="351.2" cy="28.0" r="3" fill="#4e79a7"/><circle cx="372.6" cy="225.2" r="3" fill="#4e79a7"/><circle cx="393.9" cy="221.8" r="3" fill="#4e79a7"/><circle cx="415.3" cy="225.2" r="3" fill="#4e79a7"/><circle cx="436.7" cy="225.2" r="3" fill="#4e79a7"/><circle cx="458.1" cy="232.0" r="3" fill="#4e79a7"/><circle cx="479.4" cy="228.6" r="3" fill="#4e79a7"/><circle cx="500.8" cy="215.0" r="3" fill="#4e79a7"/><circle cx="522.2" cy="221.8" r="3" fill="#4e79a7"/><circle cx="543.5" cy="232.0" r="3" fill="#4e79a7"/><circle cx="564.9" cy="225.2" r="3" fill="#4e79a7"/><circle cx="586.3" cy="228.6" r="3" fill="#4e79a7"/><circle cx="607.7" cy="228.6" r="3" fill="#4e79a7"/><circle cx="629.0" cy="232.0" r="3" fill="#4e79a7"/><circle cx="650.4" cy="232.0" r="3" fill="#4e79a7"/><circle cx="671.8" cy="221.8" r="3" fill="#4e79a7"/><circle cx="693.1" cy="228.6" r="3" fill="#4e79a7"/><circle cx="714.5" cy="232.0" r="3" fill="#4e79a7"/><circle cx="735.9" cy="228.6" r="3" fill="#4e79a7"/><circle cx="757.3" cy="232.0" r="3" fill="#4e79a7"/><circle cx="778.6" cy="228.6" r="3" fill="#4e79a7"/><circle cx="800.0" cy="228.6" r="3" fill="#4e79a7"/>
  <circle cx="52.0" cy="232.0" r="3" fill="#f28e2b"/><circle cx="73.4" cy="228.6" r="3" fill="#f28e2b"/><circle cx="94.7" cy="225.2" r="3" fill="#f28e2b"/><circle cx="116.1" cy="228.6" r="3" fill="#f28e2b"/><circle cx="137.5" cy="228.6" r="3" fill="#f28e2b"/><circle cx="158.9" cy="232.0" r="3" fill="#f28e2b"/><circle cx="180.2" cy="232.0" r="3" fill="#f28e2b"/><circle cx="201.6" cy="232.0" r="3" fill="#f28e2b"/><circle cx="223.0" cy="225.2" r="3" fill="#f28e2b"/><circle cx="244.3" cy="232.0" r="3" fill="#f28e2b"/><circle cx="265.7" cy="228.6" r="3" fill="#f28e2b"/><circle cx="287.1" cy="232.0" r="3" fill="#f28e2b"/><circle cx="308.5" cy="228.6" r="3" fill="#f28e2b"/><circle cx="329.8" cy="184.4" r="3" fill="#f28e2b"/><circle cx="351.2" cy="140.2" r="3" fill="#f28e2b"/><circle cx="372.6" cy="225.2" r="3" fill="#f28e2b"/><circle cx="393.9" cy="221.8" r="3" fill="#f28e2b"/><circle cx="415.3" cy="225.2" r="3" fill="#f28e2b"/><circle cx="436.7" cy="225.2" r="3" fill="#f28e2b"/><circle cx="458.1" cy="232.0" r="3" fill="#f28e2b"/><circle cx="479.4" cy="228.6" r="3" fill="#f28e2b"/><circle cx="500.8" cy="221.8" r="3" fill="#f28e2b"/><circle cx="522.2" cy="225.2" r="3" fill="#f28e2b"/><circle cx="543.5" cy="232.0" r="3" fill="#f28e2b"/><circle cx="564.9" cy="225.2" r="3" fill="#f28e2b"/><circle cx="586.3" cy="228.6" r="3" fill="#f28e2b"/><circle cx="607.7" cy="228.6" r="3" fill="#f28e2b"/><circle cx="629.0" cy="232.0" r="3" fill="#f28e2b"/><circle cx="650.4" cy="232.0" r="3" fill="#f28e2b"/><circle cx="671.8" cy="221.8" r="3" fill="#f28e2b"/><circle cx="693.1" cy="228.6" r="3" fill="#f28e2b"/><circle cx="714.5" cy="232.0" r="3" fill="#f28e2b"/><circle cx="735.9" cy="228.6" r="3" fill="#f28e2b"/><circle cx="757.3" cy="232.0" r="3" fill="#f28e2b"/><circle cx="778.6" cy="228.6" r="3" fill="#f28e2b"/><circle cx="800.0" cy="228.6" r="3" fill="#f28e2b"/>

  <!-- axes -->
  <line x1="52" y1="28" x2="52" y2="232"
        stroke="#cccccc" stroke-width="1"/>
  <line x1="52" y1="232" x2="800" y2="232"
        stroke="#cccccc" stroke-width="1"/>

  <!-- y-axis labels -->
  <text x="47" y="236.0" text-anchor="end" font-size="10" fill="#57606a" font-family="ui-monospace, SFMono-Regular, 'SF Mono', Menlo, monospace">0</text><text x="47" y="202.0" text-anchor="end" font-size="10" fill="#57606a" font-family="ui-monospace, SFMono-Regular, 'SF Mono', Menlo, monospace">10</text><text x="47" y="168.0" text-anchor="end" font-size="10" fill="#57606a" font-family="ui-monospace, SFMono-Regular, 'SF Mono', Menlo, monospace">20</text><text x="47" y="134.0" text-anchor="end" font-size="10" fill="#57606a" font-family="ui-monospace, SFMono-Regular, 'SF Mono', Menlo, monospace">30</text><text x="47" y="100.0" text-anchor="end" font-size="10" fill="#57606a" font-family="ui-monospace, SFMono-Regular, 'SF Mono', Menlo, monospace">40</text><text x="47" y="66.0" text-anchor="end" font-size="10" fill="#57606a" font-family="ui-monospace, SFMono-Regular, 'SF Mono', Menlo, monospace">50</text><text x="47" y="32.0" text-anchor="end" font-size="10" fill="#57606a" font-family="ui-monospace, SFMono-Regular, 'SF Mono', Menlo, monospace">60</text>

  <!-- x-axis labels -->
  <text x="52.0" y="248" text-anchor="middle" font-size="10" fill="#8c959f" font-family="ui-monospace, SFMono-Regular, 'SF Mono', Menlo, monospace">05-11</text><text x="735.9" y="248" text-anchor="middle" font-size="10" fill="#8c959f" font-family="ui-monospace, SFMono-Regular, 'SF Mono', Menlo, monospace">06-12</text><text x="800.0" y="248" text-anchor="middle" font-size="10" fill="#8c959f" font-family="ui-monospace, SFMono-Regular, 'SF Mono', Menlo, monospace">06-15</text><text x="137.5" y="248" text-anchor="middle" font-size="10" fill="#8c959f" font-family="ui-monospace, SFMono-Regular, 'SF Mono', Menlo, monospace">05-15</text><text x="223.0" y="248" text-anchor="middle" font-size="10" fill="#8c959f" font-family="ui-monospace, SFMono-Regular, 'SF Mono', Menlo, monospace">05-19</text><text x="308.5" y="248" text-anchor="middle" font-size="10" fill="#8c959f" font-family="ui-monospace, SFMono-Regular, 'SF Mono', Menlo, monospace">05-23</text><text x="393.9" y="248" text-anchor="middle" font-size="10" fill="#8c959f" font-family="ui-monospace, SFMono-Regular, 'SF Mono', Menlo, monospace">05-27</text><text x="479.4" y="248" text-anchor="middle" font-size="10" fill="#8c959f" font-family="ui-monospace, SFMono-Regular, 'SF Mono', Menlo, monospace">05-31</text><text x="564.9" y="248" text-anchor="middle" font-size="10" fill="#8c959f" font-family="ui-monospace, SFMono-Regular, 'SF Mono', Menlo, monospace">06-04</text><text x="650.4" y="248" text-anchor="middle" font-size="10" fill="#8c959f" font-family="ui-monospace, SFMono-Regular, 'SF Mono', Menlo, monospace">06-08</text>

  <!-- legend -->
  <rect x="60" y="262" width="16" height="3" fill="#4e79a7" rx="1"/><text x="80" y="268" font-size="11" fill="#57606a" font-family="-apple-system, BlinkMacSystemFont, 'Segoe UI', sans-serif">Total clones (125)</text><line x1="230" y1="264" x2="246" y2="264" stroke="#f28e2b" stroke-width="2" stroke-dasharray="5,3"/><text x="250" y="268" font-size="11" fill="#57606a" font-family="-apple-system, BlinkMacSystemFont, 'Segoe UI', sans-serif">Unique cloners</text>

</svg>