<svg xmlns="http://www.w3.org/2000/svg" viewBox="0 0 820 280" width="820" height="280">

  <!-- title -->
  <text x="52" y="18" font-size="13" font-weight="600"
        fill="#24292f" font-family="-apple-system, BlinkMacSystemFont, 'Segoe UI', sans-serif"
        >Clone traffic — nomisma</text>
  <text x="800" y="18" font-size="10" fill="#8c959f"
        font-family="ui-monospace, SFMono-Regular, 'SF Mono', Menlo, monospace" text-anchor="end">2026-08-19</text>

  <!-- grid -->
  <line x1="52" y1="232.0" x2="800" y2="232.0" stroke="#e8e8e8" stroke-width="1"/><line x1="52" y1="198.0" x2="800" y2="198.0" stroke="#e8e8e8" stroke-width="1"/><line x1="52" y1="164.0" x2="800" y2="164.0" stroke="#e8e8e8" stroke-width="1"/><line x1="52" y1="130.0" x2="800" y2="130.0" stroke="#e8e8e8" stroke-width="1"/><line x1="52" y1="96.0" x2="800" y2="96.0" stroke="#e8e8e8" stroke-width="1"/><line x1="52" y1="62.0" x2="800" y2="62.0" stroke="#e8e8e8" stroke-width="1"/><line x1="52" y1="28.0" x2="800" y2="28.0" stroke="#e8e8e8" stroke-width="1"/>

  <!-- area fill -->
  <path d="M52.0,232.0 L52.0,232.0 L59.6,228.6 L67.3,225.2 L74.9,228.6 L82.5,228.6 L90.2,232.0 L97.8,232.0 L105.4,232.0 L113.1,225.2 L120.7,232.0 L128.3,215.0 L136.0,232.0 L143.6,228.6 L151.2,153.8 L158.9,28.0 L166.5,225.2 L174.1,221.8 L181.8,225.2 L189.4,225.2 L197.0,232.0 L204.7,228.6 L212.3,215.0 L219.9,221.8 L227.6,232.0 L235.2,225.2 L242.8,228.6 L250.4,228.6 L258.1,232.0 L265.7,232.0 L273.3,221.8 L281.0,228.6 L288.6,232.0 L296.2,228.6 L303.9,232.0 L311.5,228.6 L319.1,228.6 L326.8,228.6 L334.4,228.6 L342.0,232.0 L349.7,187.8 L357.3,232.0 L364.9,225.2 L372.6,232.0 L380.2,232.0 L387.8,228.6 L395.5,232.0 L403.1,232.0 L410.7,232.0 L418.4,232.0 L426.0,228.6 L433.6,221.8 L441.3,232.0 L448.9,232.0 L456.5,228.6 L464.2,232.0 L471.8,211.6 L479.4,232.0 L487.1,232.0 L494.7,232.0 L502.3,228.6 L510.0,228.6 L517.6,228.6 L525.2,228.6 L532.9,211.6 L540.5,232.0 L548.1,228.6 L555.8,232.0 L563.4,228.6 L571.0,228.6 L578.7,232.0 L586.3,228.6 L593.9,211.6 L601.6,232.0 L609.2,228.6 L616.8,232.0 L624.4,228.6 L632.1,225.2 L639.7,225.2 L647.3,225.2 L655.0,232.0 L662.6,232.0 L670.2,232.0 L677.9,232.0 L685.5,221.8 L693.1,232.0 L700.8,232.0 L708.4,221.8 L716.0,232.0 L723.7,225.2 L731.3,232.0 L738.9,232.0 L746.6,208.2 L754.2,232.0 L761.8,228.6 L769.5,232.0 L777.1,232.0 L784.7,232.0 L792.4,228.6 L800.0,232.0 L800.0,232.0 L52.0,232.0Z" fill="#4e79a7" opacity="0.12"/>

  <!-- lines -->
  <polyline points="52.0,232.0 59.6,228.6 67.3,225.2 74.9,228.6 82.5,228.6 90.2,232.0 97.8,232.0 105.4,232.0 113.1,225.2 120.7,232.0 128.3,215.0 136.0,232.0 143.6,228.6 151.2,153.8 158.9,28.0 166.5,225.2 174.1,221.8 181.8,225.2 189.4,225.2 197.0,232.0 204.7,228.6 212.3,215.0 219.9,221.8 227.6,232.0 235.2,225.2 242.8,228.6 250.4,228.6 258.1,232.0 265.7,232.0 273.3,221.8 281.0,228.6 288.6,232.0 296.2,228.6 303.9,232.0 311.5,228.6 319.1,228.6 326.8,228.6 334.4,228.6 342.0,232.0 349.7,187.8 357.3,232.0 364.9,225.2 372.6,232.0 380.2,232.0 387.8,228.6 395.5,232.0 403.1,232.0 410.7,232.0 418.4,232.0 426.0,228.6 433.6,221.8 441.3,232.0 448.9,232.0 456.5,228.6 464.2,232.0 471.8,211.6 479.4,232.0 487.1,232.0 494.7,232.0 502.3,228.6 510.0,228.6 517.6,228.6 525.2,228.6 532.9,211.6 540.5,232.0 548.1,228.6 555.8,232.0 563.4,228.6 571.0,228.6 578.7,232.0 586.3,228.6 593.9,211.6 601.6,232.0 609.2,228.6 616.8,232.0 624.4,228.6 632.1,225.2 639.7,225.2 647.3,225.2 655.0,232.0 662.6,232.0 670.2,232.0 677.9,232.0 685.5,221.8 693.1,232.0 700.8,232.0 708.4,221.8 716.0,232.0 723.7,225.2 731.3,232.0 738.9,232.0 746.6,208.2 754.2,232.0 761.8,228.6 769.5,232.0 777.1,232.0 784.7,232.0 792.4,228.6 800.0,232.0"
            fill="none" stroke="#4e79a7"
            stroke-width="2" stroke-linejoin="round"/>
  <polyline points="52.0,232.0 59.6,228.6 67.3,225.2 74.9,228.6 82.5,228.6 90.2,232.0 97.8,232.0 105.4,232.0 113.1,225.2 120.7,232.0 128.3,228.6 136.0,232.0 143.6,228.6 151.2,184.4 158.9,140.2 166.5,225.2 174.1,221.8 181.8,225.2 189.4,225.2 197.0,232.0 204.7,228.6 212.3,221.8 219.9,225.2 227.6,232.0 235.2,225.2 242.8,228.6 250.4,228.6 258.1,232.0 265.7,232.0 273.3,221.8 281.0,228.6 288.6,232.0 296.2,228.6 303.9,232.0 311.5,228.6 319.1,228.6 326.8,228.6 334.4,228.6 342.0,232.0 349.7,221.8 357.3,232.0 364.9,225.2 372.6,232.0 380.2,232.0 387.8,228.6 395.5,232.0 403.1,232.0 410.7,232.0 418.4,232.0 426.0,228.6 433.6,225.2 441.3,232.0 448.9,232.0 456.5,228.6 464.2,232.0 471.8,211.6 479.4,232.0 487.1,232.0 494.7,232.0 502.3,228.6 510.0,228.6 517.6,228.6 525.2,228.6 532.9,228.6 540.5,232.0 548.1,228.6 555.8,232.0 563.4,228.6 571.0,228.6 578.7,232.0 586.3,228.6 593.9,221.8 601.6,232.0 609.2,228.6 616.8,232.0 624.4,228.6 632.1,228.6 639.7,228.6 647.3,228.6 655.0,232.0 662.6,232.0 670.2,232.0 677.9,232.0 685.5,221.8 693.1,232.0 700.8,232.0 708.4,221.8 716.0,232.0 723.7,225.2 731.3,232.0 738.9,232.0 746.6,208.2 754.2,232.0 761.8,228.6 769.5,232.0 777.1,232.0 784.7,232.0 792.4,228.6 800.0,232.0"
            fill="none" stroke="#f28e2b"
            stroke-width="2" stroke-linejoin="round"
            stroke-dasharray="5,3"/>

  <!-- dots -->
  <circle cx="52.0" cy="232.0" r="3" fill="#4e79a7"/><circle cx="59.6" cy="228.6" r="3" fill="#4e79a7"/><circle cx="67.3" cy="225.2" r="3" fill="#4e79a7"/><circle cx="74.9" cy="228.6" r="3" fill="#4e79a7"/><circle cx="82.5" cy="228.6" r="3" fill="#4e79a7"/><circle cx="90.2" cy="232.0" r="3" fill="#4e79a7"/><circle cx="97.8" cy="232.0" r="3" fill="#4e79a7"/><circle cx="105.4" cy="232.0" r="3" fill="#4e79a7"/><circle cx="113.1" cy="225.2" r="3" fill="#4e79a7"/><circle cx="120.7" cy="232.0" r="3" fill="#4e79a7"/><circle cx="128.3" cy="215.0" r="3" fill="#4e79a7"/><circle cx="136.0" cy="232.0" r="3" fill="#4e79a7"/><circle cx="143.6" cy="228.6" r="3" fill="#4e79a7"/><circle cx="151.2" cy="153.8" r="3" fill="#4e79a7"/><circle cx="158.9" cy="28.0" r="3" fill="#4e79a7"/><circle cx="166.5" cy="225.2" r="3" fill="#4e79a7"/><circle cx="174.1" cy="221.8" r="3" fill="#4e79a7"/><circle cx="181.8" cy="225.2" r="3" fill="#4e79a7"/><circle cx="189.4" cy="225.2" r="3" fill="#4e79a7"/><circle cx="197.0" cy="232.0" r="3" fill="#4e79a7"/><circle cx="204.7" cy="228.6" r="3" fill="#4e79a7"/><circle cx="212.3" cy="215.0" r="3" fill="#4e79a7"/><circle cx="219.9" cy="221.8" r="3" fill="#4e79a7"/><circle cx="227.6" cy="232.0" r="3" fill="#4e79a7"/><circle cx="235.2" cy="225.2" r="3" fill="#4e79a7"/><circle cx="242.8" cy="228.6" r="3" fill="#4e79a7"/><circle cx="250.4" cy="228.6" r="3" fill="#4e79a7"/><circle cx="258.1" cy="232.0" r="3" fill="#4e79a7"/><circle cx="265.7" cy="232.0" r="3" fill="#4e79a7"/><circle cx="273.3" cy="221.8" r="3" fill="#4e79a7"/><circle cx="281.0" cy="228.6" r="3" fill="#4e79a7"/><circle cx="288.6" cy="232.0" r="3" fill="#4e79a7"/><circle cx="296.2" cy="228.6" r="3" fill="#4e79a7"/><circle cx="303.9" cy="232.0" r="3" fill="#4e79a7"/><circle cx="311.5" cy="228.6" r="3" fill="#4e79a7"/><circle cx="319.1" cy="228.6" r="3" fill="#4e79a7"/><circle cx="326.8" cy="228.6" r="3" fill="#4e79a7"/><circle cx="334.4" cy="228.6" r="3" fill="#4e79a7"/><circle cx="342.0" cy="232.0" r="3" fill="#4e79a7"/><circle cx="349.7" cy="187.8" r="3" fill="#4e79a7"/><circle cx="357.3" cy="232.0" r="3" fill="#4e79a7"/><circle cx="364.9" cy="225.2" r="3" fill="#4e79a7"/><circle cx="372.6" cy="232.0" r="3" fill="#4e79a7"/><circle cx="380.2" cy="232.0" r="3" fill="#4e79a7"/><circle cx="387.8" cy="228.6" r="3" fill="#4e79a7"/><circle cx="395.5" cy="232.0" r="3" fill="#4e79a7"/><circle cx="403.1" cy="232.0" r="3" fill="#4e79a7"/><circle cx="410.7" cy="232.0" r="3" fill="#4e79a7"/><circle cx="418.4" cy="232.0" r="3" fill="#4e79a7"/><circle cx="426.0" cy="228.6" r="3" fill="#4e79a7"/><circle cx="433.6" cy="221.8" r="3" fill="#4e79a7"/><circle cx="441.3" cy="232.0" r="3" fill="#4e79a7"/><circle cx="448.9" cy="232.0" r="3" fill="#4e79a7"/><circle cx="456.5" cy="228.6" r="3" fill="#4e79a7"/><circle cx="464.2" cy="232.0" r="3" fill="#4e79a7"/><circle cx="471.8" cy="211.6" r="3" fill="#4e79a7"/><circle cx="479.4" cy="232.0" r="3" fill="#4e79a7"/><circle cx="487.1" cy="232.0" r="3" fill="#4e79a7"/><circle cx="494.7" cy="232.0" r="3" fill="#4e79a7"/><circle cx="502.3" cy="228.6" r="3" fill="#4e79a7"/><circle cx="510.0" cy="228.6" r="3" fill="#4e79a7"/><circle cx="517.6" cy="228.6" r="3" fill="#4e79a7"/><circle cx="525.2" cy="228.6" r="3" fill="#4e79a7"/><circle cx="532.9" cy="211.6" r="3" fill="#4e79a7"/><circle cx="540.5" cy="232.0" r="3" fill="#4e79a7"/><circle cx="548.1" cy="228.6" r="3" fill="#4e79a7"/><circle cx="555.8" cy="232.0" r="3" fill="#4e79a7"/><circle cx="563.4" cy="228.6" r="3" fill="#4e79a7"/><circle cx="571.0" cy="228.6" r="3" fill="#4e79a7"/><circle cx="578.7" cy="232.0" r="3" fill="#4e79a7"/><circle cx="586.3" cy="228.6" r="3" fill="#4e79a7"/><circle cx="593.9" cy="211.6" r="3" fill="#4e79a7"/><circle cx="601.6" cy="232.0" r="3" fill="#4e79a7"/><circle cx="609.2" cy="228.6" r="3" fill="#4e79a7"/><circle cx="616.8" cy="232.0" r="3" fill="#4e79a7"/><circle cx="624.4" cy="228.6" r="3" fill="#4e79a7"/><circle cx="632.1" cy="225.2" r="3" fill="#4e79a7"/><circle cx="639.7" cy="225.2" r="3" fill="#4e79a7"/><circle cx="647.3" cy="225.2" r="3" fill="#4e79a7"/><circle cx="655.0" cy="232.0" r="3" fill="#4e79a7"/><circle cx="662.6" cy="232.0" r="3" fill="#4e79a7"/><circle cx="670.2" cy="232.0" r="3" fill="#4e79a7"/><circle cx="677.9" cy="232.0" r="3" fill="#4e79a7"/><circle cx="685.5" cy="221.8" r="3" fill="#4e79a7"/><circle cx="693.1" cy="232.0" r="3" fill="#4e79a7"/><circle cx="700.8" cy="232.0" r="3" fill="#4e79a7"/><circle cx="708.4" cy="221.8" r="3" fill="#4e79a7"/><circle cx="716.0" cy="232.0" r="3" fill="#4e79a7"/><circle cx="723.7" cy="225.2" r="3" fill="#4e79a7"/><circle cx="731.3" cy="232.0" r="3" fill="#4e79a7"/><circle cx="738.9" cy="232.0" r="3" fill="#4e79a7"/><circle cx="746.6" cy="208.2" r="3" fill="#4e79a7"/><circle cx="754.2" cy="232.0" r="3" fill="#4e79a7"/><circle cx="761.8" cy="228.6" r="3" fill="#4e79a7"/><circle cx="769.5" cy="232.0" r="3" fill="#4e79a7"/><circle cx="777.1" cy="232.0" r="3" fill="#4e79a7"/><circle cx="784.7" cy="232.0" r="3" fill="#4e79a7"/><circle cx="792.4" cy="228.6" r="3" fill="#4e79a7"/><circle cx="800.0" cy="232.0" r="3" fill="#4e79a7"/>
  <circle cx="52.0" cy="232.0" r="3" fill="#f28e2b"/><circle cx="59.6" cy="228.6" r="3" fill="#f28e2b"/><circle cx="67.3" cy="225.2" r="3" fill="#f28e2b"/><circle cx="74.9" cy="228.6" r="3" fill="#f28e2b"/><circle cx="82.5" cy="228.6" r="3" fill="#f28e2b"/><circle cx="90.2" cy="232.0" r="3" fill="#f28e2b"/><circle cx="97.8" cy="232.0" r="3" fill="#f28e2b"/><circle cx="105.4" cy="232.0" r="3" fill="#f28e2b"/><circle cx="113.1" cy="225.2" r="3" fill="#f28e2b"/><circle cx="120.7" cy="232.0" r="3" fill="#f28e2b"/><circle cx="128.3" cy="228.6" r="3" fill="#f28e2b"/><circle cx="136.0" cy="232.0" r="3" fill="#f28e2b"/><circle cx="143.6" cy="228.6" r="3" fill="#f28e2b"/><circle cx="151.2" cy="184.4" r="3" fill="#f28e2b"/><circle cx="158.9" cy="140.2" r="3" fill="#f28e2b"/><circle cx="166.5" cy="225.2" r="3" fill="#f28e2b"/><circle cx="174.1" cy="221.8" r="3" fill="#f28e2b"/><circle cx="181.8" cy="225.2" r="3" fill="#f28e2b"/><circle cx="189.4" cy="225.2" r="3" fill="#f28e2b"/><circle cx="197.0" cy="232.0" r="3" fill="#f28e2b"/><circle cx="204.7" cy="228.6" r="3" fill="#f28e2b"/><circle cx="212.3" cy="221.8" r="3" fill="#f28e2b"/><circle cx="219.9" cy="225.2" r="3" fill="#f28e2b"/><circle cx="227.6" cy="232.0" r="3" fill="#f28e2b"/><circle cx="235.2" cy="225.2" r="3" fill="#f28e2b"/><circle cx="242.8" cy="228.6" r="3" fill="#f28e2b"/><circle cx="250.4" cy="228.6" r="3" fill="#f28e2b"/><circle cx="258.1" cy="232.0" r="3" fill="#f28e2b"/><circle cx="265.7" cy="232.0" r="3" fill="#f28e2b"/><circle cx="273.3" cy="221.8" r="3" fill="#f28e2b"/><circle cx="281.0" cy="228.6" r="3" fill="#f28e2b"/><circle cx="288.6" cy="232.0" r="3" fill="#f28e2b"/><circle cx="296.2" cy="228.6" r="3" fill="#f28e2b"/><circle cx="303.9" cy="232.0" r="3" fill="#f28e2b"/><circle cx="311.5" cy="228.6" r="3" fill="#f28e2b"/><circle cx="319.1" cy="228.6" r="3" fill="#f28e2b"/><circle cx="326.8" cy="228.6" r="3" fill="#f28e2b"/><circle cx="334.4" cy="228.6" r="3" fill="#f28e2b"/><circle cx="342.0" cy="232.0" r="3" fill="#f28e2b"/><circle cx="349.7" cy="221.8" r="3" fill="#f28e2b"/><circle cx="357.3" cy="232.0" r="3" fill="#f28e2b"/><circle cx="364.9" cy="225.2" r="3" fill="#f28e2b"/><circle cx="372.6" cy="232.0" r="3" fill="#f28e2b"/><circle cx="380.2" cy="232.0" r="3" fill="#f28e2b"/><circle cx="387.8" cy="228.6" r="3" fill="#f28e2b"/><circle cx="395.5" cy="232.0" r="3" fill="#f28e2b"/><circle cx="403.1" cy="232.0" r="3" fill="#f28e2b"/><circle cx="410.7" cy="232.0" r="3" fill="#f28e2b"/><circle cx="418.4" cy="232.0" r="3" fill="#f28e2b"/><circle cx="426.0" cy="228.6" r="3" fill="#f28e2b"/><circle cx="433.6" cy="225.2" r="3" fill="#f28e2b"/><circle cx="441.3" cy="232.0" r="3" fill="#f28e2b"/><circle cx="448.9" cy="232.0" r="3" fill="#f28e2b"/><circle cx="456.5" cy="228.6" r="3" fill="#f28e2b"/><circle cx="464.2" cy="232.0" r="3" fill="#f28e2b"/><circle cx="471.8" cy="211.6" r="3" fill="#f28e2b"/><circle cx="479.4" cy="232.0" r="3" fill="#f28e2b"/><circle cx="487.1" cy="232.0" r="3" fill="#f28e2b"/><circle cx="494.7" cy="232.0" r="3" fill="#f28e2b"/><circle cx="502.3" cy="228.6" r="3" fill="#f28e2b"/><circle cx="510.0" cy="228.6" r="3" fill="#f28e2b"/><circle cx="517.6" cy="228.6" r="3" fill="#f28e2b"/><circle cx="525.2" cy="228.6" r="3" fill="#f28e2b"/><circle cx="532.9" cy="228.6" r="3" fill="#f28e2b"/><circle cx="540.5" cy="232.0" r="3" fill="#f28e2b"/><circle cx="548.1" cy="228.6" r="3" fill="#f28e2b"/><circle cx="555.8" cy="232.0" r="3" fill="#f28e2b"/><circle cx="563.4" cy="228.6" r="3" fill="#f28e2b"/><circle cx="571.0" cy="228.6" r="3" fill="#f28e2b"/><circle cx="578.7" cy="232.0" r="3" fill="#f28e2b"/><circle cx="586.3" cy="228.6" r="3" fill="#f28e2b"/><circle cx="593.9" cy="221.8" r="3" fill="#f28e2b"/><circle cx="601.6" cy="232.0" r="3" fill="#f28e2b"/><circle cx="609.2" cy="228.6" r="3" fill="#f28e2b"/><circle cx="616.8" cy="232.0" r="3" fill="#f28e2b"/><circle cx="624.4" cy="228.6" r="3" fill="#f28e2b"/><circle cx="632.1" cy="228.6" r="3" fill="#f28e2b"/><circle cx="639.7" cy="228.6" r="3" fill="#f28e2b"/><circle cx="647.3" cy="228.6" r="3" fill="#f28e2b"/><circle cx="655.0" cy="232.0" r="3" fill="#f28e2b"/><circle cx="662.6" cy="232.0" r="3" fill="#f28e2b"/><circle cx="670.2" cy="232.0" r="3" fill="#f28e2b"/><circle cx="677.9" cy="232.0" r="3" fill="#f28e2b"/><circle cx="685.5" cy="221.8" r="3" fill="#f28e2b"/><circle cx="693.1" cy="232.0" r="3" fill="#f28e2b"/><circle cx="700.8" cy="232.0" r="3" fill="#f28e2b"/><circle cx="708.4" cy="221.8" r="3" fill="#f28e2b"/><circle cx="716.0" cy="232.0" r="3" fill="#f28e2b"/><circle cx="723.7" cy="225.2" r="3" fill="#f28e2b"/><circle cx="731.3" cy="232.0" r="3" fill="#f28e2b"/><circle cx="738.9" cy="232.0" r="3" fill="#f28e2b"/><circle cx="746.6" cy="208.2" r="3" fill="#f28e2b"/><circle cx="754.2" cy="232.0" r="3" fill="#f28e2b"/><circle cx="761.8" cy="228.6" r="3" fill="#f28e2b"/><circle cx="769.5" cy="232.0" r="3" fill="#f28e2b"/><circle cx="777.1" cy="232.0" r="3" fill="#f28e2b"/><circle cx="784.7" cy="232.0" r="3" fill="#f28e2b"/><circle cx="792.4" cy="228.6" r="3" fill="#f28e2b"/><circle cx="800.0" cy="232.0" r="3" fill="#f28e2b"/>

  <!-- axes -->
  <line x1="52" y1="28" x2="52" y2="232"
        stroke="#cccccc" stroke-width="1"/>
  <line x1="52" y1="232" x2="800" y2="232"
        stroke="#cccccc" stroke-width="1"/>

  <!-- y-axis labels -->
  <text x="47" y="236.0" text-anchor="end" font-size="10" fill="#57606a" font-family="ui-monospace, SFMono-Regular, 'SF Mono', Menlo, monospace">0</text><text x="47" y="202.0" text-anchor="end" font-size="10" fill="#57606a" font-family="ui-monospace, SFMono-Regular, 'SF Mono', Menlo, monospace">10</text><text x="47" y="168.0" text-anchor="end" font-size="10" fill="#57606a" font-family="ui-monospace, SFMono-Regular, 'SF Mono', Menlo, monospace">20</text><text x="47" y="134.0" text-anchor="end" font-size="10" fill="#57606a" font-family="ui-monospace, SFMono-Regular, 'SF Mono', Menlo, monospace">30</text><text x="47" y="100.0" text-anchor="end" font-size="10" fill="#57606a" font-family="ui-monospace, SFMono-Regular, 'SF Mono', Menlo, monospace">40</text><text x="47" y="66.0" text-anchor="end" font-size="10" fill="#57606a" font-family="ui-monospace, SFMono-Regular, 'SF Mono', Menlo, monospace">50</text><text x="47" y="32.0" text-anchor="end" font-size="10" fill="#57606a" font-family="ui-monospace, SFMono-Regular, 'SF Mono', Menlo, monospace">60</text>

  <!-- x-axis labels -->
  <text x="52.0" y="248" text-anchor="middle" font-size="10" fill="#8c959f" font-family="ui-monospace, SFMono-Regular, 'SF Mono', Menlo, monospace">05-11</text><text x="784.7" y="248" text-anchor="middle" font-size="10" fill="#8c959f" font-family="ui-monospace, SFMono-Regular, 'SF Mono', Menlo, monospace">08-15</text><text x="800.0" y="248" text-anchor="middle" font-size="10" fill="#8c959f" font-family="ui-monospace, SFMono-Regular, 'SF Mono', Menlo, monospace">08-17</text><text x="326.8" y="248" text-anchor="middle" font-size="10" fill="#8c959f" font-family="ui-monospace, SFMono-Regular, 'SF Mono', Menlo, monospace">06-16</text><text x="601.6" y="248" text-anchor="middle" font-size="10" fill="#8c959f" font-family="ui-monospace, SFMono-Regular, 'SF Mono', Menlo, monospace">07-22</text><text x="143.6" y="248" text-anchor="middle" font-size="10" fill="#8c959f" font-family="ui-monospace, SFMono-Regular, 'SF Mono', Menlo, monospace">05-23</text><text x="418.4" y="248" text-anchor="middle" font-size="10" fill="#8c959f" font-family="ui-monospace, SFMono-Regular, 'SF Mono', Menlo, monospace">06-28</text><text x="693.1" y="248" text-anchor="middle" font-size="10" fill="#8c959f" font-family="ui-monospace, SFMono-Regular, 'SF Mono', Menlo, monospace">08-03</text><text x="235.2" y="248" text-anchor="middle" font-size="10" fill="#8c959f" font-family="ui-monospace, SFMono-Regular, 'SF Mono', Menlo, monospace">06-04</text><text x="510.0" y="248" text-anchor="middle" font-size="10" fill="#8c959f" font-family="ui-monospace, SFMono-Regular, 'SF Mono', Menlo, monospace">07-10</text>

  <!-- legend -->
  <rect x="60" y="262" width="16" height="3" fill="#4e79a7" rx="1"/><text x="80" y="268" font-size="11" fill="#57606a" font-family="-apple-system, BlinkMacSystemFont, 'Segoe UI', sans-serif">Total clones (199)</text><line x1="230" y1="264" x2="246" y2="264" stroke="#f28e2b" stroke-width="2" stroke-dasharray="5,3"/><text x="250" y="268" font-size="11" fill="#57606a" font-family="-apple-system, BlinkMacSystemFont, 'Segoe UI', sans-serif">Unique cloners</text>

</svg>