<svg xmlns="http://www.w3.org/2000/svg" viewBox="0 0 820 280" width="820" height="280">

  <!-- title -->
  <text x="52" y="18" font-size="13" font-weight="600"
        fill="#24292f" font-family="-apple-system, BlinkMacSystemFont, 'Segoe UI', sans-serif"
        >Clone traffic — nomisma</text>
  <text x="800" y="18" font-size="10" fill="#8c959f"
        font-family="ui-monospace, SFMono-Regular, 'SF Mono', Menlo, monospace" text-anchor="end">2026-06-06</text>

  <!-- grid -->
  <line x1="52" y1="232.0" x2="800" y2="232.0" stroke="#e8e8e8" stroke-width="1"/><line x1="52" y1="198.0" x2="800" y2="198.0" stroke="#e8e8e8" stroke-width="1"/><line x1="52" y1="164.0" x2="800" y2="164.0" stroke="#e8e8e8" stroke-width="1"/><line x1="52" y1="130.0" x2="800" y2="130.0" stroke="#e8e8e8" stroke-width="1"/><line x1="52" y1="96.0" x2="800" y2="96.0" stroke="#e8e8e8" stroke-width="1"/><line x1="52" y1="62.0" x2="800" y2="62.0" stroke="#e8e8e8" stroke-width="1"/><line x1="52" y1="28.0" x2="800" y2="28.0" stroke="#e8e8e8" stroke-width="1"/>

  <!-- area fill -->
  <path d="M52.0,232.0 L52.0,232.0 L83.2,228.6 L114.3,225.2 L145.5,228.6 L176.7,228.6 L207.8,232.0 L239.0,232.0 L270.2,232.0 L301.3,225.2 L332.5,232.0 L363.7,215.0 L394.8,232.0 L426.0,228.6 L457.2,153.8 L488.3,28.0 L519.5,225.2 L550.7,221.8 L581.8,225.2 L613.0,225.2 L644.2,232.0 L675.3,228.6 L706.5,215.0 L737.7,221.8 L768.8,232.0 L800.0,225.2 L800.0,232.0 L52.0,232.0Z" fill="#4e79a7" opacity="0.12"/>

  <!-- lines -->
  <polyline points="52.0,232.0 83.2,228.6 114.3,225.2 145.5,228.6 176.7,228.6 207.8,232.0 239.0,232.0 270.2,232.0 301.3,225.2 332.5,232.0 363.7,215.0 394.8,232.0 426.0,228.6 457.2,153.8 488.3,28.0 519.5,225.2 550.7,221.8 581.8,225.2 613.0,225.2 644.2,232.0 675.3,228.6 706.5,215.0 737.7,221.8 768.8,232.0 800.0,225.2"
            fill="none" stroke="#4e79a7"
            stroke-width="2" stroke-linejoin="round"/>
  <polyline points="52.0,232.0 83.2,228.6 114.3,225.2 145.5,228.6 176.7,228.6 207.8,232.0 239.0,232.0 270.2,232.0 301.3,225.2 332.5,232.0 363.7,228.6 394.8,232.0 426.0,228.6 457.2,184.4 488.3,140.2 519.5,225.2 550.7,221.8 581.8,225.2 613.0,225.2 644.2,232.0 675.3,228.6 706.5,221.8 737.7,225.2 768.8,232.0 800.0,225.2"
            fill="none" stroke="#f28e2b"
            stroke-width="2" stroke-linejoin="round"
            stroke-dasharray="5,3"/>

  <!-- dots -->
  <circle cx="52.0" cy="232.0" r="3" fill="#4e79a7"/><circle cx="83.2" cy="228.6" r="3" fill="#4e79a7"/><circle cx="114.3" cy="225.2" r="3" fill="#4e79a7"/><circle cx="145.5" cy="228.6" r="3" fill="#4e79a7"/><circle cx="176.7" cy="228.6" r="3" fill="#4e79a7"/><circle cx="207.8" cy="232.0" r="3" fill="#4e79a7"/><circle cx="239.0" cy="232.0" r="3" fill="#4e79a7"/><circle cx="270.2" cy="232.0" r="3" fill="#4e79a7"/><circle cx="301.3" cy="225.2" r="3" fill="#4e79a7"/><circle cx="332.5" cy="232.0" r="3" fill="#4e79a7"/><circle cx="363.7" cy="215.0" r="3" fill="#4e79a7"/><circle cx="394.8" cy="232.0" r="3" fill="#4e79a7"/><circle cx="426.0" cy="228.6" r="3" fill="#4e79a7"/><circle cx="457.2" cy="153.8" r="3" fill="#4e79a7"/><circle cx="488.3" cy="28.0" r="3" fill="#4e79a7"/><circle cx="519.5" cy="225.2" r="3" fill="#4e79a7"/><circle cx="550.7" cy="221.8" r="3" fill="#4e79a7"/><circle cx="581.8" cy="225.2" r="3" fill="#4e79a7"/><circle cx="613.0" cy="225.2" r="3" fill="#4e79a7"/><circle cx="644.2" cy="232.0" r="3" fill="#4e79a7"/><circle cx="675.3" cy="228.6" r="3" fill="#4e79a7"/><circle cx="706.5" cy="215.0" r="3" fill="#4e79a7"/><circle cx="737.7" cy="221.8" r="3" fill="#4e79a7"/><circle cx="768.8" cy="232.0" r="3" fill="#4e79a7"/><circle cx="800.0" cy="225.2" r="3" fill="#4e79a7"/>
  <circle cx="52.0" cy="232.0" r="3" fill="#f28e2b"/><circle cx="83.2" cy="228.6" r="3" fill="#f28e2b"/><circle cx="114.3" cy="225.2" r="3" fill="#f28e2b"/><circle cx="145.5" cy="228.6" r="3" fill="#f28e2b"/><circle cx="176.7" cy="228.6" r="3" fill="#f28e2b"/><circle cx="207.8" cy="232.0" r="3" fill="#f28e2b"/><circle cx="239.0" cy="232.0" r="3" fill="#f28e2b"/><circle cx="270.2" cy="232.0" r="3" fill="#f28e2b"/><circle cx="301.3" cy="225.2" r="3" fill="#f28e2b"/><circle cx="332.5" cy="232.0" r="3" fill="#f28e2b"/><circle cx="363.7" cy="228.6" r="3" fill="#f28e2b"/><circle cx="394.8" cy="232.0" r="3" fill="#f28e2b"/><circle cx="426.0" cy="228.6" r="3" fill="#f28e2b"/><circle cx="457.2" cy="184.4" r="3" fill="#f28e2b"/><circle cx="488.3" cy="140.2" r="3" fill="#f28e2b"/><circle cx="519.5" cy="225.2" r="3" fill="#f28e2b"/><circle cx="550.7" cy="221.8" r="3" fill="#f28e2b"/><circle cx="581.8" cy="225.2" r="3" fill="#f28e2b"/><circle cx="613.0" cy="225.2" r="3" fill="#f28e2b"/><circle cx="644.2" cy="232.0" r="3" fill="#f28e2b"/><circle cx="675.3" cy="228.6" r="3" fill="#f28e2b"/><circle cx="706.5" cy="221.8" r="3" fill="#f28e2b"/><circle cx="737.7" cy="225.2" r="3" fill="#f28e2b"/><circle cx="768.8" cy="232.0" r="3" fill="#f28e2b"/><circle cx="800.0" cy="225.2" r="3" fill="#f28e2b"/>

  <!-- axes -->
  <line x1="52" y1="28" x2="52" y2="232"
        stroke="#cccccc" stroke-width="1"/>
  <line x1="52" y1="232" x2="800" y2="232"
        stroke="#cccccc" stroke-width="1"/>

  <!-- y-axis labels -->
  <text x="47" y="236.0" text-anchor="end" font-size="10" fill="#57606a" font-family="ui-monospace, SFMono-Regular, 'SF Mono', Menlo, monospace">0</text><text x="47" y="202.0" text-anchor="end" font-size="10" fill="#57606a" font-family="ui-monospace, SFMono-Regular, 'SF Mono', Menlo, monospace">10</text><text x="47" y="168.0" text-anchor="end" font-size="10" fill="#57606a" font-family="ui-monospace, SFMono-Regular, 'SF Mono', Menlo, monospace">20</text><text x="47" y="134.0" text-anchor="end" font-size="10" fill="#57606a" font-family="ui-monospace, SFMono-Regular, 'SF Mono', Menlo, monospace">30</text><text x="47" y="100.0" text-anchor="end" font-size="10" fill="#57606a" font-family="ui-monospace, SFMono-Regular, 'SF Mono', Menlo, monospace">40</text><text x="47" y="66.0" text-anchor="end" font-size="10" fill="#57606a" font-family="ui-monospace, SFMono-Regular, 'SF Mono', Menlo, monospace">50</text><text x="47" y="32.0" text-anchor="end" font-size="10" fill="#57606a" font-family="ui-monospace, SFMono-Regular, 'SF Mono', Menlo, monospace">60</text>

  <!-- x-axis labels -->
  <text x="52.0" y="248" text-anchor="middle" font-size="10" fill="#8c959f" font-family="ui-monospace, SFMono-Regular, 'SF Mono', Menlo, monospace">05-11</text><text x="145.5" y="248" text-anchor="middle" font-size="10" fill="#8c959f" font-family="ui-monospace, SFMono-Regular, 'SF Mono', Menlo, monospace">05-14</text><text x="239.0" y="248" text-anchor="middle" font-size="10" fill="#8c959f" font-family="ui-monospace, SFMono-Regular, 'SF Mono', Menlo, monospace">05-17</text><text x="332.5" y="248" text-anchor="middle" font-size="10" fill="#8c959f" font-family="ui-monospace, SFMono-Regular, 'SF Mono', Menlo, monospace">05-20</text><text x="426.0" y="248" text-anchor="middle" font-size="10" fill="#8c959f" font-family="ui-monospace, SFMono-Regular, 'SF Mono', Menlo, monospace">05-23</text><text x="519.5" y="248" text-anchor="middle" font-size="10" fill="#8c959f" font-family="ui-monospace, SFMono-Regular, 'SF Mono', Menlo, monospace">05-26</text><text x="613.0" y="248" text-anchor="middle" font-size="10" fill="#8c959f" font-family="ui-monospace, SFMono-Regular, 'SF Mono', Menlo, monospace">05-29</text><text x="706.5" y="248" text-anchor="middle" font-size="10" fill="#8c959f" font-family="ui-monospace, SFMono-Regular, 'SF Mono', Menlo, monospace">06-01</text><text x="800.0" y="248" text-anchor="middle" font-size="10" fill="#8c959f" font-family="ui-monospace, SFMono-Regular, 'SF Mono', Menlo, monospace">06-04</text>

  <!-- legend -->
  <rect x="60" y="262" width="16" height="3" fill="#4e79a7" rx="1"/><text x="80" y="268" font-size="11" fill="#57606a" font-family="-apple-system, BlinkMacSystemFont, 'Segoe UI', sans-serif">Total clones (116)</text><line x1="230" y1="264" x2="246" y2="264" stroke="#f28e2b" stroke-width="2" stroke-dasharray="5,3"/><text x="250" y="268" font-size="11" fill="#57606a" font-family="-apple-system, BlinkMacSystemFont, 'Segoe UI', sans-serif">Unique cloners</text>

</svg>