<svg xmlns="http://www.w3.org/2000/svg" viewBox="0 0 820 280" width="820" height="280">

  <!-- title -->
  <text x="52" y="18" font-size="13" font-weight="600"
        fill="#24292f" font-family="-apple-system, BlinkMacSystemFont, 'Segoe UI', sans-serif"
        >Clone traffic — nomisma</text>
  <text x="800" y="18" font-size="10" fill="#8c959f"
        font-family="ui-monospace, SFMono-Regular, 'SF Mono', Menlo, monospace" text-anchor="end">2026-06-08</text>

  <!-- grid -->
  <line x1="52" y1="232.0" x2="800" y2="232.0" stroke="#e8e8e8" stroke-width="1"/><line x1="52" y1="198.0" x2="800" y2="198.0" stroke="#e8e8e8" stroke-width="1"/><line x1="52" y1="164.0" x2="800" y2="164.0" stroke="#e8e8e8" stroke-width="1"/><line x1="52" y1="130.0" x2="800" y2="130.0" stroke="#e8e8e8" stroke-width="1"/><line x1="52" y1="96.0" x2="800" y2="96.0" stroke="#e8e8e8" stroke-width="1"/><line x1="52" y1="62.0" x2="800" y2="62.0" stroke="#e8e8e8" stroke-width="1"/><line x1="52" y1="28.0" x2="800" y2="28.0" stroke="#e8e8e8" stroke-width="1"/>

  <!-- area fill -->
  <path d="M52.0,232.0 L52.0,232.0 L80.8,228.6 L109.5,225.2 L138.3,228.6 L167.1,228.6 L195.8,232.0 L224.6,232.0 L253.4,232.0 L282.2,225.2 L310.9,232.0 L339.7,215.0 L368.5,232.0 L397.2,228.6 L426.0,153.8 L454.8,28.0 L483.5,225.2 L512.3,221.8 L541.1,225.2 L569.8,225.2 L598.6,232.0 L627.4,228.6 L656.2,215.0 L684.9,221.8 L713.7,232.0 L742.5,225.2 L771.2,228.6 L800.0,228.6 L800.0,232.0 L52.0,232.0Z" fill="#4e79a7" opacity="0.12"/>

  <!-- lines -->
  <polyline points="52.0,232.0 80.8,228.6 109.5,225.2 138.3,228.6 167.1,228.6 195.8,232.0 224.6,232.0 253.4,232.0 282.2,225.2 310.9,232.0 339.7,215.0 368.5,232.0 397.2,228.6 426.0,153.8 454.8,28.0 483.5,225.2 512.3,221.8 541.1,225.2 569.8,225.2 598.6,232.0 627.4,228.6 656.2,215.0 684.9,221.8 713.7,232.0 742.5,225.2 771.2,228.6 800.0,228.6"
            fill="none" stroke="#4e79a7"
            stroke-width="2" stroke-linejoin="round"/>
  <polyline points="52.0,232.0 80.8,228.6 109.5,225.2 138.3,228.6 167.1,228.6 195.8,232.0 224.6,232.0 253.4,232.0 282.2,225.2 310.9,232.0 339.7,228.6 368.5,232.0 397.2,228.6 426.0,184.4 454.8,140.2 483.5,225.2 512.3,221.8 541.1,225.2 569.8,225.2 598.6,232.0 627.4,228.6 656.2,221.8 684.9,225.2 713.7,232.0 742.5,225.2 771.2,228.6 800.0,228.6"
            fill="none" stroke="#f28e2b"
            stroke-width="2" stroke-linejoin="round"
            stroke-dasharray="5,3"/>

  <!-- dots -->
  <circle cx="52.0" cy="232.0" r="3" fill="#4e79a7"/><circle cx="80.8" cy="228.6" r="3" fill="#4e79a7"/><circle cx="109.5" cy="225.2" r="3" fill="#4e79a7"/><circle cx="138.3" cy="228.6" r="3" fill="#4e79a7"/><circle cx="167.1" cy="228.6" r="3" fill="#4e79a7"/><circle cx="195.8" cy="232.0" r="3" fill="#4e79a7"/><circle cx="224.6" cy="232.0" r="3" fill="#4e79a7"/><circle cx="253.4" cy="232.0" r="3" fill="#4e79a7"/><circle cx="282.2" cy="225.2" r="3" fill="#4e79a7"/><circle cx="310.9" cy="232.0" r="3" fill="#4e79a7"/><circle cx="339.7" cy="215.0" r="3" fill="#4e79a7"/><circle cx="368.5" cy="232.0" r="3" fill="#4e79a7"/><circle cx="397.2" cy="228.6" r="3" fill="#4e79a7"/><circle cx="426.0" cy="153.8" r="3" fill="#4e79a7"/><circle cx="454.8" cy="28.0" r="3" fill="#4e79a7"/><circle cx="483.5" cy="225.2" r="3" fill="#4e79a7"/><circle cx="512.3" cy="221.8" r="3" fill="#4e79a7"/><circle cx="541.1" cy="225.2" r="3" fill="#4e79a7"/><circle cx="569.8" cy="225.2" r="3" fill="#4e79a7"/><circle cx="598.6" cy="232.0" r="3" fill="#4e79a7"/><circle cx="627.4" cy="228.6" r="3" fill="#4e79a7"/><circle cx="656.2" cy="215.0" r="3" fill="#4e79a7"/><circle cx="684.9" cy="221.8" r="3" fill="#4e79a7"/><circle cx="713.7" cy="232.0" r="3" fill="#4e79a7"/><circle cx="742.5" cy="225.2" r="3" fill="#4e79a7"/><circle cx="771.2" cy="228.6" r="3" fill="#4e79a7"/><circle cx="800.0" cy="228.6" r="3" fill="#4e79a7"/>
  <circle cx="52.0" cy="232.0" r="3" fill="#f28e2b"/><circle cx="80.8" cy="228.6" r="3" fill="#f28e2b"/><circle cx="109.5" cy="225.2" r="3" fill="#f28e2b"/><circle cx="138.3" cy="228.6" r="3" fill="#f28e2b"/><circle cx="167.1" cy="228.6" r="3" fill="#f28e2b"/><circle cx="195.8" cy="232.0" r="3" fill="#f28e2b"/><circle cx="224.6" cy="232.0" r="3" fill="#f28e2b"/><circle cx="253.4" cy="232.0" r="3" fill="#f28e2b"/><circle cx="282.2" cy="225.2" r="3" fill="#f28e2b"/><circle cx="310.9" cy="232.0" r="3" fill="#f28e2b"/><circle cx="339.7" cy="228.6" r="3" fill="#f28e2b"/><circle cx="368.5" cy="232.0" r="3" fill="#f28e2b"/><circle cx="397.2" cy="228.6" r="3" fill="#f28e2b"/><circle cx="426.0" cy="184.4" r="3" fill="#f28e2b"/><circle cx="454.8" cy="140.2" r="3" fill="#f28e2b"/><circle cx="483.5" cy="225.2" r="3" fill="#f28e2b"/><circle cx="512.3" cy="221.8" r="3" fill="#f28e2b"/><circle cx="541.1" cy="225.2" r="3" fill="#f28e2b"/><circle cx="569.8" cy="225.2" r="3" fill="#f28e2b"/><circle cx="598.6" cy="232.0" r="3" fill="#f28e2b"/><circle cx="627.4" cy="228.6" r="3" fill="#f28e2b"/><circle cx="656.2" cy="221.8" r="3" fill="#f28e2b"/><circle cx="684.9" cy="225.2" r="3" fill="#f28e2b"/><circle cx="713.7" cy="232.0" r="3" fill="#f28e2b"/><circle cx="742.5" cy="225.2" r="3" fill="#f28e2b"/><circle cx="771.2" cy="228.6" r="3" fill="#f28e2b"/><circle cx="800.0" cy="228.6" r="3" fill="#f28e2b"/>

  <!-- axes -->
  <line x1="52" y1="28" x2="52" y2="232"
        stroke="#cccccc" stroke-width="1"/>
  <line x1="52" y1="232" x2="800" y2="232"
        stroke="#cccccc" stroke-width="1"/>

  <!-- y-axis labels -->
  <text x="47" y="236.0" text-anchor="end" font-size="10" fill="#57606a" font-family="ui-monospace, SFMono-Regular, 'SF Mono', Menlo, monospace">0</text><text x="47" y="202.0" text-anchor="end" font-size="10" fill="#57606a" font-family="ui-monospace, SFMono-Regular, 'SF Mono', Menlo, monospace">10</text><text x="47" y="168.0" text-anchor="end" font-size="10" fill="#57606a" font-family="ui-monospace, SFMono-Regular, 'SF Mono', Menlo, monospace">20</text><text x="47" y="134.0" text-anchor="end" font-size="10" fill="#57606a" font-family="ui-monospace, SFMono-Regular, 'SF Mono', Menlo, monospace">30</text><text x="47" y="100.0" text-anchor="end" font-size="10" fill="#57606a" font-family="ui-monospace, SFMono-Regular, 'SF Mono', Menlo, monospace">40</text><text x="47" y="66.0" text-anchor="end" font-size="10" fill="#57606a" font-family="ui-monospace, SFMono-Regular, 'SF Mono', Menlo, monospace">50</text><text x="47" y="32.0" text-anchor="end" font-size="10" fill="#57606a" font-family="ui-monospace, SFMono-Regular, 'SF Mono', Menlo, monospace">60</text>

  <!-- x-axis labels -->
  <text x="52.0" y="248" text-anchor="middle" font-size="10" fill="#8c959f" font-family="ui-monospace, SFMono-Regular, 'SF Mono', Menlo, monospace">05-11</text><text x="138.3" y="248" text-anchor="middle" font-size="10" fill="#8c959f" font-family="ui-monospace, SFMono-Regular, 'SF Mono', Menlo, monospace">05-14</text><text x="224.6" y="248" text-anchor="middle" font-size="10" fill="#8c959f" font-family="ui-monospace, SFMono-Regular, 'SF Mono', Menlo, monospace">05-17</text><text x="310.9" y="248" text-anchor="middle" font-size="10" fill="#8c959f" font-family="ui-monospace, SFMono-Regular, 'SF Mono', Menlo, monospace">05-20</text><text x="397.2" y="248" text-anchor="middle" font-size="10" fill="#8c959f" font-family="ui-monospace, SFMono-Regular, 'SF Mono', Menlo, monospace">05-23</text><text x="483.5" y="248" text-anchor="middle" font-size="10" fill="#8c959f" font-family="ui-monospace, SFMono-Regular, 'SF Mono', Menlo, monospace">05-26</text><text x="569.8" y="248" text-anchor="middle" font-size="10" fill="#8c959f" font-family="ui-monospace, SFMono-Regular, 'SF Mono', Menlo, monospace">05-29</text><text x="656.2" y="248" text-anchor="middle" font-size="10" fill="#8c959f" font-family="ui-monospace, SFMono-Regular, 'SF Mono', Menlo, monospace">06-01</text><text x="742.5" y="248" text-anchor="middle" font-size="10" fill="#8c959f" font-family="ui-monospace, SFMono-Regular, 'SF Mono', Menlo, monospace">06-04</text><text x="800.0" y="248" text-anchor="middle" font-size="10" fill="#8c959f" font-family="ui-monospace, SFMono-Regular, 'SF Mono', Menlo, monospace">06-06</text>

  <!-- legend -->
  <rect x="60" y="262" width="16" height="3" fill="#4e79a7" rx="1"/><text x="80" y="268" font-size="11" fill="#57606a" font-family="-apple-system, BlinkMacSystemFont, 'Segoe UI', sans-serif">Total clones (118)</text><line x1="230" y1="264" x2="246" y2="264" stroke="#f28e2b" stroke-width="2" stroke-dasharray="5,3"/><text x="250" y="268" font-size="11" fill="#57606a" font-family="-apple-system, BlinkMacSystemFont, 'Segoe UI', sans-serif">Unique cloners</text>

</svg>