<svg xmlns="http://www.w3.org/2000/svg" viewBox="0 0 820 280" width="820" height="280">

  <!-- title -->
  <text x="52" y="18" font-size="13" font-weight="600"
        fill="#24292f" font-family="-apple-system, BlinkMacSystemFont, 'Segoe UI', sans-serif"
        >Clone traffic — nomisma</text>
  <text x="800" y="18" font-size="10" fill="#8c959f"
        font-family="ui-monospace, SFMono-Regular, 'SF Mono', Menlo, monospace" text-anchor="end">2026-07-22</text>

  <!-- grid -->
  <line x1="52" y1="232.0" x2="800" y2="232.0" stroke="#e8e8e8" stroke-width="1"/><line x1="52" y1="198.0" x2="800" y2="198.0" stroke="#e8e8e8" stroke-width="1"/><line x1="52" y1="164.0" x2="800" y2="164.0" stroke="#e8e8e8" stroke-width="1"/><line x1="52" y1="130.0" x2="800" y2="130.0" stroke="#e8e8e8" stroke-width="1"/><line x1="52" y1="96.0" x2="800" y2="96.0" stroke="#e8e8e8" stroke-width="1"/><line x1="52" y1="62.0" x2="800" y2="62.0" stroke="#e8e8e8" stroke-width="1"/><line x1="52" y1="28.0" x2="800" y2="28.0" stroke="#e8e8e8" stroke-width="1"/>

  <!-- area fill -->
  <path d="M52.0,232.0 L52.0,232.0 L62.7,228.6 L73.4,225.2 L84.1,228.6 L94.7,228.6 L105.4,232.0 L116.1,232.0 L126.8,232.0 L137.5,225.2 L148.2,232.0 L158.9,215.0 L169.5,232.0 L180.2,228.6 L190.9,153.8 L201.6,28.0 L212.3,225.2 L223.0,221.8 L233.7,225.2 L244.3,225.2 L255.0,232.0 L265.7,228.6 L276.4,215.0 L287.1,221.8 L297.8,232.0 L308.5,225.2 L319.1,228.6 L329.8,228.6 L340.5,232.0 L351.2,232.0 L361.9,221.8 L372.6,228.6 L383.3,232.0 L393.9,228.6 L404.6,232.0 L415.3,228.6 L426.0,228.6 L436.7,228.6 L447.4,228.6 L458.1,232.0 L468.7,187.8 L479.4,232.0 L490.1,225.2 L500.8,232.0 L511.5,232.0 L522.2,228.6 L532.9,232.0 L543.5,232.0 L554.2,232.0 L564.9,232.0 L575.6,228.6 L586.3,221.8 L597.0,232.0 L607.7,232.0 L618.3,228.6 L629.0,232.0 L639.7,211.6 L650.4,232.0 L661.1,232.0 L671.8,232.0 L682.5,228.6 L693.1,228.6 L703.8,228.6 L714.5,228.6 L725.2,211.6 L735.9,232.0 L746.6,228.6 L757.3,232.0 L767.9,228.6 L778.6,228.6 L789.3,232.0 L800.0,228.6 L800.0,232.0 L52.0,232.0Z" fill="#4e79a7" opacity="0.12"/>

  <!-- lines -->
  <polyline points="52.0,232.0 62.7,228.6 73.4,225.2 84.1,228.6 94.7,228.6 105.4,232.0 116.1,232.0 126.8,232.0 137.5,225.2 148.2,232.0 158.9,215.0 169.5,232.0 180.2,228.6 190.9,153.8 201.6,28.0 212.3,225.2 223.0,221.8 233.7,225.2 244.3,225.2 255.0,232.0 265.7,228.6 276.4,215.0 287.1,221.8 297.8,232.0 308.5,225.2 319.1,228.6 329.8,228.6 340.5,232.0 351.2,232.0 361.9,221.8 372.6,228.6 383.3,232.0 393.9,228.6 404.6,232.0 415.3,228.6 426.0,228.6 436.7,228.6 447.4,228.6 458.1,232.0 468.7,187.8 479.4,232.0 490.1,225.2 500.8,232.0 511.5,232.0 522.2,228.6 532.9,232.0 543.5,232.0 554.2,232.0 564.9,232.0 575.6,228.6 586.3,221.8 597.0,232.0 607.7,232.0 618.3,228.6 629.0,232.0 639.7,211.6 650.4,232.0 661.1,232.0 671.8,232.0 682.5,228.6 693.1,228.6 703.8,228.6 714.5,228.6 725.2,211.6 735.9,232.0 746.6,228.6 757.3,232.0 767.9,228.6 778.6,228.6 789.3,232.0 800.0,228.6"
            fill="none" stroke="#4e79a7"
            stroke-width="2" stroke-linejoin="round"/>
  <polyline points="52.0,232.0 62.7,228.6 73.4,225.2 84.1,228.6 94.7,228.6 105.4,232.0 116.1,232.0 126.8,232.0 137.5,225.2 148.2,232.0 158.9,228.6 169.5,232.0 180.2,228.6 190.9,184.4 201.6,140.2 212.3,225.2 223.0,221.8 233.7,225.2 244.3,225.2 255.0,232.0 265.7,228.6 276.4,221.8 287.1,225.2 297.8,232.0 308.5,225.2 319.1,228.6 329.8,228.6 340.5,232.0 351.2,232.0 361.9,221.8 372.6,228.6 383.3,232.0 393.9,228.6 404.6,232.0 415.3,228.6 426.0,228.6 436.7,228.6 447.4,228.6 458.1,232.0 468.7,221.8 479.4,232.0 490.1,225.2 500.8,232.0 511.5,232.0 522.2,228.6 532.9,232.0 543.5,232.0 554.2,232.0 564.9,232.0 575.6,228.6 586.3,225.2 597.0,232.0 607.7,232.0 618.3,228.6 629.0,232.0 639.7,211.6 650.4,232.0 661.1,232.0 671.8,232.0 682.5,228.6 693.1,228.6 703.8,228.6 714.5,228.6 725.2,228.6 735.9,232.0 746.6,228.6 757.3,232.0 767.9,228.6 778.6,228.6 789.3,232.0 800.0,228.6"
            fill="none" stroke="#f28e2b"
            stroke-width="2" stroke-linejoin="round"
            stroke-dasharray="5,3"/>

  <!-- dots -->
  <circle cx="52.0" cy="232.0" r="3" fill="#4e79a7"/><circle cx="62.7" cy="228.6" r="3" fill="#4e79a7"/><circle cx="73.4" cy="225.2" r="3" fill="#4e79a7"/><circle cx="84.1" cy="228.6" r="3" fill="#4e79a7"/><circle cx="94.7" cy="228.6" r="3" fill="#4e79a7"/><circle cx="105.4" cy="232.0" r="3" fill="#4e79a7"/><circle cx="116.1" cy="232.0" r="3" fill="#4e79a7"/><circle cx="126.8" cy="232.0" r="3" fill="#4e79a7"/><circle cx="137.5" cy="225.2" r="3" fill="#4e79a7"/><circle cx="148.2" cy="232.0" r="3" fill="#4e79a7"/><circle cx="158.9" cy="215.0" r="3" fill="#4e79a7"/><circle cx="169.5" cy="232.0" r="3" fill="#4e79a7"/><circle cx="180.2" cy="228.6" r="3" fill="#4e79a7"/><circle cx="190.9" cy="153.8" r="3" fill="#4e79a7"/><circle cx="201.6" cy="28.0" r="3" fill="#4e79a7"/><circle cx="212.3" cy="225.2" r="3" fill="#4e79a7"/><circle cx="223.0" cy="221.8" r="3" fill="#4e79a7"/><circle cx="233.7" cy="225.2" r="3" fill="#4e79a7"/><circle cx="244.3" cy="225.2" r="3" fill="#4e79a7"/><circle cx="255.0" cy="232.0" r="3" fill="#4e79a7"/><circle cx="265.7" cy="228.6" r="3" fill="#4e79a7"/><circle cx="276.4" cy="215.0" r="3" fill="#4e79a7"/><circle cx="287.1" cy="221.8" r="3" fill="#4e79a7"/><circle cx="297.8" cy="232.0" r="3" fill="#4e79a7"/><circle cx="308.5" cy="225.2" r="3" fill="#4e79a7"/><circle cx="319.1" cy="228.6" r="3" fill="#4e79a7"/><circle cx="329.8" cy="228.6" r="3" fill="#4e79a7"/><circle cx="340.5" cy="232.0" r="3" fill="#4e79a7"/><circle cx="351.2" cy="232.0" r="3" fill="#4e79a7"/><circle cx="361.9" cy="221.8" r="3" fill="#4e79a7"/><circle cx="372.6" cy="228.6" r="3" fill="#4e79a7"/><circle cx="383.3" cy="232.0" r="3" fill="#4e79a7"/><circle cx="393.9" cy="228.6" r="3" fill="#4e79a7"/><circle cx="404.6" cy="232.0" r="3" fill="#4e79a7"/><circle cx="415.3" cy="228.6" r="3" fill="#4e79a7"/><circle cx="426.0" cy="228.6" r="3" fill="#4e79a7"/><circle cx="436.7" cy="228.6" r="3" fill="#4e79a7"/><circle cx="447.4" cy="228.6" r="3" fill="#4e79a7"/><circle cx="458.1" cy="232.0" r="3" fill="#4e79a7"/><circle cx="468.7" cy="187.8" r="3" fill="#4e79a7"/><circle cx="479.4" cy="232.0" r="3" fill="#4e79a7"/><circle cx="490.1" cy="225.2" r="3" fill="#4e79a7"/><circle cx="500.8" cy="232.0" r="3" fill="#4e79a7"/><circle cx="511.5" cy="232.0" r="3" fill="#4e79a7"/><circle cx="522.2" cy="228.6" r="3" fill="#4e79a7"/><circle cx="532.9" cy="232.0" r="3" fill="#4e79a7"/><circle cx="543.5" cy="232.0" r="3" fill="#4e79a7"/><circle cx="554.2" cy="232.0" r="3" fill="#4e79a7"/><circle cx="564.9" cy="232.0" r="3" fill="#4e79a7"/><circle cx="575.6" cy="228.6" r="3" fill="#4e79a7"/><circle cx="586.3" cy="221.8" r="3" fill="#4e79a7"/><circle cx="597.0" cy="232.0" r="3" fill="#4e79a7"/><circle cx="607.7" cy="232.0" r="3" fill="#4e79a7"/><circle cx="618.3" cy="228.6" r="3" fill="#4e79a7"/><circle cx="629.0" cy="232.0" r="3" fill="#4e79a7"/><circle cx="639.7" cy="211.6" r="3" fill="#4e79a7"/><circle cx="650.4" cy="232.0" r="3" fill="#4e79a7"/><circle cx="661.1" cy="232.0" r="3" fill="#4e79a7"/><circle cx="671.8" cy="232.0" r="3" fill="#4e79a7"/><circle cx="682.5" cy="228.6" r="3" fill="#4e79a7"/><circle cx="693.1" cy="228.6" r="3" fill="#4e79a7"/><circle cx="703.8" cy="228.6" r="3" fill="#4e79a7"/><circle cx="714.5" cy="228.6" r="3" fill="#4e79a7"/><circle cx="725.2" cy="211.6" r="3" fill="#4e79a7"/><circle cx="735.9" cy="232.0" r="3" fill="#4e79a7"/><circle cx="746.6" cy="228.6" r="3" fill="#4e79a7"/><circle cx="757.3" cy="232.0" r="3" fill="#4e79a7"/><circle cx="767.9" cy="228.6" r="3" fill="#4e79a7"/><circle cx="778.6" cy="228.6" r="3" fill="#4e79a7"/><circle cx="789.3" cy="232.0" r="3" fill="#4e79a7"/><circle cx="800.0" cy="228.6" r="3" fill="#4e79a7"/>
  <circle cx="52.0" cy="232.0" r="3" fill="#f28e2b"/><circle cx="62.7" cy="228.6" r="3" fill="#f28e2b"/><circle cx="73.4" cy="225.2" r="3" fill="#f28e2b"/><circle cx="84.1" cy="228.6" r="3" fill="#f28e2b"/><circle cx="94.7" cy="228.6" r="3" fill="#f28e2b"/><circle cx="105.4" cy="232.0" r="3" fill="#f28e2b"/><circle cx="116.1" cy="232.0" r="3" fill="#f28e2b"/><circle cx="126.8" cy="232.0" r="3" fill="#f28e2b"/><circle cx="137.5" cy="225.2" r="3" fill="#f28e2b"/><circle cx="148.2" cy="232.0" r="3" fill="#f28e2b"/><circle cx="158.9" cy="228.6" r="3" fill="#f28e2b"/><circle cx="169.5" cy="232.0" r="3" fill="#f28e2b"/><circle cx="180.2" cy="228.6" r="3" fill="#f28e2b"/><circle cx="190.9" cy="184.4" r="3" fill="#f28e2b"/><circle cx="201.6" cy="140.2" r="3" fill="#f28e2b"/><circle cx="212.3" cy="225.2" r="3" fill="#f28e2b"/><circle cx="223.0" cy="221.8" r="3" fill="#f28e2b"/><circle cx="233.7" cy="225.2" r="3" fill="#f28e2b"/><circle cx="244.3" cy="225.2" r="3" fill="#f28e2b"/><circle cx="255.0" cy="232.0" r="3" fill="#f28e2b"/><circle cx="265.7" cy="228.6" r="3" fill="#f28e2b"/><circle cx="276.4" cy="221.8" r="3" fill="#f28e2b"/><circle cx="287.1" cy="225.2" r="3" fill="#f28e2b"/><circle cx="297.8" cy="232.0" r="3" fill="#f28e2b"/><circle cx="308.5" cy="225.2" r="3" fill="#f28e2b"/><circle cx="319.1" cy="228.6" r="3" fill="#f28e2b"/><circle cx="329.8" cy="228.6" r="3" fill="#f28e2b"/><circle cx="340.5" cy="232.0" r="3" fill="#f28e2b"/><circle cx="351.2" cy="232.0" r="3" fill="#f28e2b"/><circle cx="361.9" cy="221.8" r="3" fill="#f28e2b"/><circle cx="372.6" cy="228.6" r="3" fill="#f28e2b"/><circle cx="383.3" cy="232.0" r="3" fill="#f28e2b"/><circle cx="393.9" cy="228.6" r="3" fill="#f28e2b"/><circle cx="404.6" cy="232.0" r="3" fill="#f28e2b"/><circle cx="415.3" cy="228.6" r="3" fill="#f28e2b"/><circle cx="426.0" cy="228.6" r="3" fill="#f28e2b"/><circle cx="436.7" cy="228.6" r="3" fill="#f28e2b"/><circle cx="447.4" cy="228.6" r="3" fill="#f28e2b"/><circle cx="458.1" cy="232.0" r="3" fill="#f28e2b"/><circle cx="468.7" cy="221.8" r="3" fill="#f28e2b"/><circle cx="479.4" cy="232.0" r="3" fill="#f28e2b"/><circle cx="490.1" cy="225.2" r="3" fill="#f28e2b"/><circle cx="500.8" cy="232.0" r="3" fill="#f28e2b"/><circle cx="511.5" cy="232.0" r="3" fill="#f28e2b"/><circle cx="522.2" cy="228.6" r="3" fill="#f28e2b"/><circle cx="532.9" cy="232.0" r="3" fill="#f28e2b"/><circle cx="543.5" cy="232.0" r="3" fill="#f28e2b"/><circle cx="554.2" cy="232.0" r="3" fill="#f28e2b"/><circle cx="564.9" cy="232.0" r="3" fill="#f28e2b"/><circle cx="575.6" cy="228.6" r="3" fill="#f28e2b"/><circle cx="586.3" cy="225.2" r="3" fill="#f28e2b"/><circle cx="597.0" cy="232.0" r="3" fill="#f28e2b"/><circle cx="607.7" cy="232.0" r="3" fill="#f28e2b"/><circle cx="618.3" cy="228.6" r="3" fill="#f28e2b"/><circle cx="629.0" cy="232.0" r="3" fill="#f28e2b"/><circle cx="639.7" cy="211.6" r="3" fill="#f28e2b"/><circle cx="650.4" cy="232.0" r="3" fill="#f28e2b"/><circle cx="661.1" cy="232.0" r="3" fill="#f28e2b"/><circle cx="671.8" cy="232.0" r="3" fill="#f28e2b"/><circle cx="682.5" cy="228.6" r="3" fill="#f28e2b"/><circle cx="693.1" cy="228.6" r="3" fill="#f28e2b"/><circle cx="703.8" cy="228.6" r="3" fill="#f28e2b"/><circle cx="714.5" cy="228.6" r="3" fill="#f28e2b"/><circle cx="725.2" cy="228.6" r="3" fill="#f28e2b"/><circle cx="735.9" cy="232.0" r="3" fill="#f28e2b"/><circle cx="746.6" cy="228.6" r="3" fill="#f28e2b"/><circle cx="757.3" cy="232.0" r="3" fill="#f28e2b"/><circle cx="767.9" cy="228.6" r="3" fill="#f28e2b"/><circle cx="778.6" cy="228.6" r="3" fill="#f28e2b"/><circle cx="789.3" cy="232.0" r="3" fill="#f28e2b"/><circle cx="800.0" cy="228.6" r="3" fill="#f28e2b"/>

  <!-- axes -->
  <line x1="52" y1="28" x2="52" y2="232"
        stroke="#cccccc" stroke-width="1"/>
  <line x1="52" y1="232" x2="800" y2="232"
        stroke="#cccccc" stroke-width="1"/>

  <!-- y-axis labels -->
  <text x="47" y="236.0" text-anchor="end" font-size="10" fill="#57606a" font-family="ui-monospace, SFMono-Regular, 'SF Mono', Menlo, monospace">0</text><text x="47" y="202.0" text-anchor="end" font-size="10" fill="#57606a" font-family="ui-monospace, SFMono-Regular, 'SF Mono', Menlo, monospace">10</text><text x="47" y="168.0" text-anchor="end" font-size="10" fill="#57606a" font-family="ui-monospace, SFMono-Regular, 'SF Mono', Menlo, monospace">20</text><text x="47" y="134.0" text-anchor="end" font-size="10" fill="#57606a" font-family="ui-monospace, SFMono-Regular, 'SF Mono', Menlo, monospace">30</text><text x="47" y="100.0" text-anchor="end" font-size="10" fill="#57606a" font-family="ui-monospace, SFMono-Regular, 'SF Mono', Menlo, monospace">40</text><text x="47" y="66.0" text-anchor="end" font-size="10" fill="#57606a" font-family="ui-monospace, SFMono-Regular, 'SF Mono', Menlo, monospace">50</text><text x="47" y="32.0" text-anchor="end" font-size="10" fill="#57606a" font-family="ui-monospace, SFMono-Regular, 'SF Mono', Menlo, monospace">60</text>

  <!-- x-axis labels -->
  <text x="52.0" y="248" text-anchor="middle" font-size="10" fill="#8c959f" font-family="ui-monospace, SFMono-Regular, 'SF Mono', Menlo, monospace">05-11</text><text x="393.9" y="248" text-anchor="middle" font-size="10" fill="#8c959f" font-family="ui-monospace, SFMono-Regular, 'SF Mono', Menlo, monospace">06-12</text><text x="735.9" y="248" text-anchor="middle" font-size="10" fill="#8c959f" font-family="ui-monospace, SFMono-Regular, 'SF Mono', Menlo, monospace">07-14</text><text x="800.0" y="248" text-anchor="middle" font-size="10" fill="#8c959f" font-family="ui-monospace, SFMono-Regular, 'SF Mono', Menlo, monospace">07-20</text><text x="137.5" y="248" text-anchor="middle" font-size="10" fill="#8c959f" font-family="ui-monospace, SFMono-Regular, 'SF Mono', Menlo, monospace">05-19</text><text x="479.4" y="248" text-anchor="middle" font-size="10" fill="#8c959f" font-family="ui-monospace, SFMono-Regular, 'SF Mono', Menlo, monospace">06-20</text><text x="223.0" y="248" text-anchor="middle" font-size="10" fill="#8c959f" font-family="ui-monospace, SFMono-Regular, 'SF Mono', Menlo, monospace">05-27</text><text x="564.9" y="248" text-anchor="middle" font-size="10" fill="#8c959f" font-family="ui-monospace, SFMono-Regular, 'SF Mono', Menlo, monospace">06-28</text><text x="308.5" y="248" text-anchor="middle" font-size="10" fill="#8c959f" font-family="ui-monospace, SFMono-Regular, 'SF Mono', Menlo, monospace">06-04</text><text x="650.4" y="248" text-anchor="middle" font-size="10" fill="#8c959f" font-family="ui-monospace, SFMono-Regular, 'SF Mono', Menlo, monospace">07-06</text>

  <!-- legend -->
  <rect x="60" y="262" width="16" height="3" fill="#4e79a7" rx="1"/><text x="80" y="268" font-size="11" fill="#57606a" font-family="-apple-system, BlinkMacSystemFont, 'Segoe UI', sans-serif">Total clones (168)</text><line x1="230" y1="264" x2="246" y2="264" stroke="#f28e2b" stroke-width="2" stroke-dasharray="5,3"/><text x="250" y="268" font-size="11" fill="#57606a" font-family="-apple-system, BlinkMacSystemFont, 'Segoe UI', sans-serif">Unique cloners</text>

</svg>