<svg xmlns="http://www.w3.org/2000/svg" viewBox="0 0 820 280" width="820" height="280">

  <!-- title -->
  <text x="52" y="18" font-size="13" font-weight="600"
        fill="#24292f" font-family="-apple-system, BlinkMacSystemFont, 'Segoe UI', sans-serif"
        >Clone traffic — nr-enrich-core</text>
  <text x="800" y="18" font-size="10" fill="#8c959f"
        font-family="ui-monospace, SFMono-Regular, 'SF Mono', Menlo, monospace" text-anchor="end">2026-07-04</text>

  <!-- grid -->
  <line x1="52" y1="232.0" x2="800" y2="232.0" stroke="#e8e8e8" stroke-width="1"/><line x1="52" y1="190.3" x2="800" y2="190.3" stroke="#e8e8e8" stroke-width="1"/><line x1="52" y1="148.5" x2="800" y2="148.5" stroke="#e8e8e8" stroke-width="1"/><line x1="52" y1="106.8" x2="800" y2="106.8" stroke="#e8e8e8" stroke-width="1"/><line x1="52" y1="65.1" x2="800" y2="65.1" stroke="#e8e8e8" stroke-width="1"/><line x1="52" y1="23.4" x2="800" y2="23.4" stroke="#e8e8e8" stroke-width="1"/>

  <!-- area fill -->
  <path d="M52.0,232.0 L52.0,232.0 L66.1,227.4 L80.2,222.7 L94.3,232.0 L108.5,232.0 L122.6,222.7 L136.7,232.0 L150.8,222.7 L164.9,232.0 L179.0,227.4 L193.1,232.0 L207.2,176.4 L221.4,218.1 L235.5,232.0 L249.6,232.0 L263.7,232.0 L277.8,208.8 L291.9,218.1 L306.0,227.4 L320.2,227.4 L334.3,227.4 L348.4,232.0 L362.5,232.0 L376.6,232.0 L390.7,232.0 L404.8,218.1 L418.9,227.4 L433.1,232.0 L447.2,232.0 L461.3,227.4 L475.4,227.4 L489.5,232.0 L503.6,232.0 L517.7,232.0 L531.8,227.4 L546.0,227.4 L560.1,232.0 L574.2,232.0 L588.3,190.3 L602.4,204.2 L616.5,222.7 L630.6,232.0 L644.8,227.4 L658.9,194.9 L673.0,28.0 L687.1,232.0 L701.2,232.0 L715.3,232.0 L729.4,232.0 L743.5,232.0 L757.7,232.0 L771.8,232.0 L785.9,232.0 L800.0,232.0 L800.0,232.0 L52.0,232.0Z" fill="#4e79a7" opacity="0.12"/>

  <!-- lines -->
  <polyline points="52.0,232.0 66.1,227.4 80.2,222.7 94.3,232.0 108.5,232.0 122.6,222.7 136.7,232.0 150.8,222.7 164.9,232.0 179.0,227.4 193.1,232.0 207.2,176.4 221.4,218.1 235.5,232.0 249.6,232.0 263.7,232.0 277.8,208.8 291.9,218.1 306.0,227.4 320.2,227.4 334.3,227.4 348.4,232.0 362.5,232.0 376.6,232.0 390.7,232.0 404.8,218.1 418.9,227.4 433.1,232.0 447.2,232.0 461.3,227.4 475.4,227.4 489.5,232.0 503.6,232.0 517.7,232.0 531.8,227.4 546.0,227.4 560.1,232.0 574.2,232.0 588.3,190.3 602.4,204.2 616.5,222.7 630.6,232.0 644.8,227.4 658.9,194.9 673.0,28.0 687.1,232.0 701.2,232.0 715.3,232.0 729.4,232.0 743.5,232.0 757.7,232.0 771.8,232.0 785.9,232.0 800.0,232.0"
            fill="none" stroke="#4e79a7"
            stroke-width="2" stroke-linejoin="round"/>
  <polyline points="52.0,232.0 66.1,227.4 80.2,222.7 94.3,232.0 108.5,232.0 122.6,222.7 136.7,232.0 150.8,222.7 164.9,232.0 179.0,227.4 193.1,232.0 207.2,194.9 221.4,218.1 235.5,232.0 249.6,232.0 263.7,232.0 277.8,218.1 291.9,227.4 306.0,227.4 320.2,227.4 334.3,227.4 348.4,232.0 362.5,232.0 376.6,232.0 390.7,232.0 404.8,218.1 418.9,227.4 433.1,232.0 447.2,232.0 461.3,227.4 475.4,227.4 489.5,232.0 503.6,232.0 517.7,232.0 531.8,227.4 546.0,227.4 560.1,232.0 574.2,232.0 588.3,213.5 602.4,218.1 616.5,222.7 630.6,232.0 644.8,227.4 658.9,222.7 673.0,199.5 687.1,232.0 701.2,232.0 715.3,232.0 729.4,232.0 743.5,232.0 757.7,232.0 771.8,232.0 785.9,232.0 800.0,232.0"
            fill="none" stroke="#f28e2b"
            stroke-width="2" stroke-linejoin="round"
            stroke-dasharray="5,3"/>

  <!-- dots -->
  <circle cx="52.0" cy="232.0" r="3" fill="#4e79a7"/><circle cx="66.1" cy="227.4" r="3" fill="#4e79a7"/><circle cx="80.2" cy="222.7" r="3" fill="#4e79a7"/><circle cx="94.3" cy="232.0" r="3" fill="#4e79a7"/><circle cx="108.5" cy="232.0" r="3" fill="#4e79a7"/><circle cx="122.6" cy="222.7" r="3" fill="#4e79a7"/><circle cx="136.7" cy="232.0" r="3" fill="#4e79a7"/><circle cx="150.8" cy="222.7" r="3" fill="#4e79a7"/><circle cx="164.9" cy="232.0" r="3" fill="#4e79a7"/><circle cx="179.0" cy="227.4" r="3" fill="#4e79a7"/><circle cx="193.1" cy="232.0" r="3" fill="#4e79a7"/><circle cx="207.2" cy="176.4" r="3" fill="#4e79a7"/><circle cx="221.4" cy="218.1" r="3" fill="#4e79a7"/><circle cx="235.5" cy="232.0" r="3" fill="#4e79a7"/><circle cx="249.6" cy="232.0" r="3" fill="#4e79a7"/><circle cx="263.7" cy="232.0" r="3" fill="#4e79a7"/><circle cx="277.8" cy="208.8" r="3" fill="#4e79a7"/><circle cx="291.9" cy="218.1" r="3" fill="#4e79a7"/><circle cx="306.0" cy="227.4" r="3" fill="#4e79a7"/><circle cx="320.2" cy="227.4" r="3" fill="#4e79a7"/><circle cx="334.3" cy="227.4" r="3" fill="#4e79a7"/><circle cx="348.4" cy="232.0" r="3" fill="#4e79a7"/><circle cx="362.5" cy="232.0" r="3" fill="#4e79a7"/><circle cx="376.6" cy="232.0" r="3" fill="#4e79a7"/><circle cx="390.7" cy="232.0" r="3" fill="#4e79a7"/><circle cx="404.8" cy="218.1" r="3" fill="#4e79a7"/><circle cx="418.9" cy="227.4" r="3" fill="#4e79a7"/><circle cx="433.1" cy="232.0" r="3" fill="#4e79a7"/><circle cx="447.2" cy="232.0" r="3" fill="#4e79a7"/><circle cx="461.3" cy="227.4" r="3" fill="#4e79a7"/><circle cx="475.4" cy="227.4" r="3" fill="#4e79a7"/><circle cx="489.5" cy="232.0" r="3" fill="#4e79a7"/><circle cx="503.6" cy="232.0" r="3" fill="#4e79a7"/><circle cx="517.7" cy="232.0" r="3" fill="#4e79a7"/><circle cx="531.8" cy="227.4" r="3" fill="#4e79a7"/><circle cx="546.0" cy="227.4" r="3" fill="#4e79a7"/><circle cx="560.1" cy="232.0" r="3" fill="#4e79a7"/><circle cx="574.2" cy="232.0" r="3" fill="#4e79a7"/><circle cx="588.3" cy="190.3" r="3" fill="#4e79a7"/><circle cx="602.4" cy="204.2" r="3" fill="#4e79a7"/><circle cx="616.5" cy="222.7" r="3" fill="#4e79a7"/><circle cx="630.6" cy="232.0" r="3" fill="#4e79a7"/><circle cx="644.8" cy="227.4" r="3" fill="#4e79a7"/><circle cx="658.9" cy="194.9" r="3" fill="#4e79a7"/><circle cx="673.0" cy="28.0" r="3" fill="#4e79a7"/><circle cx="687.1" cy="232.0" r="3" fill="#4e79a7"/><circle cx="701.2" cy="232.0" r="3" fill="#4e79a7"/><circle cx="715.3" cy="232.0" r="3" fill="#4e79a7"/><circle cx="729.4" cy="232.0" r="3" fill="#4e79a7"/><circle cx="743.5" cy="232.0" r="3" fill="#4e79a7"/><circle cx="757.7" cy="232.0" r="3" fill="#4e79a7"/><circle cx="771.8" cy="232.0" r="3" fill="#4e79a7"/><circle cx="785.9" cy="232.0" r="3" fill="#4e79a7"/><circle cx="800.0" cy="232.0" r="3" fill="#4e79a7"/>
  <circle cx="52.0" cy="232.0" r="3" fill="#f28e2b"/><circle cx="66.1" cy="227.4" r="3" fill="#f28e2b"/><circle cx="80.2" cy="222.7" r="3" fill="#f28e2b"/><circle cx="94.3" cy="232.0" r="3" fill="#f28e2b"/><circle cx="108.5" cy="232.0" r="3" fill="#f28e2b"/><circle cx="122.6" cy="222.7" r="3" fill="#f28e2b"/><circle cx="136.7" cy="232.0" r="3" fill="#f28e2b"/><circle cx="150.8" cy="222.7" r="3" fill="#f28e2b"/><circle cx="164.9" cy="232.0" r="3" fill="#f28e2b"/><circle cx="179.0" cy="227.4" r="3" fill="#f28e2b"/><circle cx="193.1" cy="232.0" r="3" fill="#f28e2b"/><circle cx="207.2" cy="194.9" r="3" fill="#f28e2b"/><circle cx="221.4" cy="218.1" r="3" fill="#f28e2b"/><circle cx="235.5" cy="232.0" r="3" fill="#f28e2b"/><circle cx="249.6" cy="232.0" r="3" fill="#f28e2b"/><circle cx="263.7" cy="232.0" r="3" fill="#f28e2b"/><circle cx="277.8" cy="218.1" r="3" fill="#f28e2b"/><circle cx="291.9" cy="227.4" r="3" fill="#f28e2b"/><circle cx="306.0" cy="227.4" r="3" fill="#f28e2b"/><circle cx="320.2" cy="227.4" r="3" fill="#f28e2b"/><circle cx="334.3" cy="227.4" r="3" fill="#f28e2b"/><circle cx="348.4" cy="232.0" r="3" fill="#f28e2b"/><circle cx="362.5" cy="232.0" r="3" fill="#f28e2b"/><circle cx="376.6" cy="232.0" r="3" fill="#f28e2b"/><circle cx="390.7" cy="232.0" r="3" fill="#f28e2b"/><circle cx="404.8" cy="218.1" r="3" fill="#f28e2b"/><circle cx="418.9" cy="227.4" r="3" fill="#f28e2b"/><circle cx="433.1" cy="232.0" r="3" fill="#f28e2b"/><circle cx="447.2" cy="232.0" r="3" fill="#f28e2b"/><circle cx="461.3" cy="227.4" r="3" fill="#f28e2b"/><circle cx="475.4" cy="227.4" r="3" fill="#f28e2b"/><circle cx="489.5" cy="232.0" r="3" fill="#f28e2b"/><circle cx="503.6" cy="232.0" r="3" fill="#f28e2b"/><circle cx="517.7" cy="232.0" r="3" fill="#f28e2b"/><circle cx="531.8" cy="227.4" r="3" fill="#f28e2b"/><circle cx="546.0" cy="227.4" r="3" fill="#f28e2b"/><circle cx="560.1" cy="232.0" r="3" fill="#f28e2b"/><circle cx="574.2" cy="232.0" r="3" fill="#f28e2b"/><circle cx="588.3" cy="213.5" r="3" fill="#f28e2b"/><circle cx="602.4" cy="218.1" r="3" fill="#f28e2b"/><circle cx="616.5" cy="222.7" r="3" fill="#f28e2b"/><circle cx="630.6" cy="232.0" r="3" fill="#f28e2b"/><circle cx="644.8" cy="227.4" r="3" fill="#f28e2b"/><circle cx="658.9" cy="222.7" r="3" fill="#f28e2b"/><circle cx="673.0" cy="199.5" r="3" fill="#f28e2b"/><circle cx="687.1" cy="232.0" r="3" fill="#f28e2b"/><circle cx="701.2" cy="232.0" r="3" fill="#f28e2b"/><circle cx="715.3" cy="232.0" r="3" fill="#f28e2b"/><circle cx="729.4" cy="232.0" r="3" fill="#f28e2b"/><circle cx="743.5" cy="232.0" r="3" fill="#f28e2b"/><circle cx="757.7" cy="232.0" r="3" fill="#f28e2b"/><circle cx="771.8" cy="232.0" r="3" fill="#f28e2b"/><circle cx="785.9" cy="232.0" r="3" fill="#f28e2b"/><circle cx="800.0" cy="232.0" r="3" fill="#f28e2b"/>

  <!-- axes -->
  <line x1="52" y1="28" x2="52" y2="232"
        stroke="#cccccc" stroke-width="1"/>
  <line x1="52" y1="232" x2="800" y2="232"
        stroke="#cccccc" stroke-width="1"/>

  <!-- y-axis labels -->
  <text x="47" y="236.0" text-anchor="end" font-size="10" fill="#57606a" font-family="ui-monospace, SFMono-Regular, 'SF Mono', Menlo, monospace">0</text><text x="47" y="194.3" text-anchor="end" font-size="10" fill="#57606a" font-family="ui-monospace, SFMono-Regular, 'SF Mono', Menlo, monospace">9</text><text x="47" y="152.5" text-anchor="end" font-size="10" fill="#57606a" font-family="ui-monospace, SFMono-Regular, 'SF Mono', Menlo, monospace">18</text><text x="47" y="110.8" text-anchor="end" font-size="10" fill="#57606a" font-family="ui-monospace, SFMono-Regular, 'SF Mono', Menlo, monospace">27</text><text x="47" y="69.1" text-anchor="end" font-size="10" fill="#57606a" font-family="ui-monospace, SFMono-Regular, 'SF Mono', Menlo, monospace">36</text><text x="47" y="27.4" text-anchor="end" font-size="10" fill="#57606a" font-family="ui-monospace, SFMono-Regular, 'SF Mono', Menlo, monospace">45</text>

  <!-- x-axis labels -->
  <text x="52.0" y="248" text-anchor="middle" font-size="10" fill="#8c959f" font-family="ui-monospace, SFMono-Regular, 'SF Mono', Menlo, monospace">05-11</text><text x="560.1" y="248" text-anchor="middle" font-size="10" fill="#8c959f" font-family="ui-monospace, SFMono-Regular, 'SF Mono', Menlo, monospace">06-16</text><text x="136.7" y="248" text-anchor="middle" font-size="10" fill="#8c959f" font-family="ui-monospace, SFMono-Regular, 'SF Mono', Menlo, monospace">05-17</text><text x="644.8" y="248" text-anchor="middle" font-size="10" fill="#8c959f" font-family="ui-monospace, SFMono-Regular, 'SF Mono', Menlo, monospace">06-22</text><text x="221.4" y="248" text-anchor="middle" font-size="10" fill="#8c959f" font-family="ui-monospace, SFMono-Regular, 'SF Mono', Menlo, monospace">05-23</text><text x="729.4" y="248" text-anchor="middle" font-size="10" fill="#8c959f" font-family="ui-monospace, SFMono-Regular, 'SF Mono', Menlo, monospace">06-28</text><text x="306.0" y="248" text-anchor="middle" font-size="10" fill="#8c959f" font-family="ui-monospace, SFMono-Regular, 'SF Mono', Menlo, monospace">05-29</text><text x="800.0" y="248" text-anchor="middle" font-size="10" fill="#8c959f" font-family="ui-monospace, SFMono-Regular, 'SF Mono', Menlo, monospace">07-03</text><text x="390.7" y="248" text-anchor="middle" font-size="10" fill="#8c959f" font-family="ui-monospace, SFMono-Regular, 'SF Mono', Menlo, monospace">06-04</text><text x="475.4" y="248" text-anchor="middle" font-size="10" fill="#8c959f" font-family="ui-monospace, SFMono-Regular, 'SF Mono', Menlo, monospace">06-10</text>

  <!-- legend -->
  <rect x="60" y="262" width="16" height="3" fill="#4e79a7" rx="1"/><text x="80" y="268" font-size="11" fill="#57606a" font-family="-apple-system, BlinkMacSystemFont, 'Segoe UI', sans-serif">Total clones (112)</text><line x1="230" y1="264" x2="246" y2="264" stroke="#f28e2b" stroke-width="2" stroke-dasharray="5,3"/><text x="250" y="268" font-size="11" fill="#57606a" font-family="-apple-system, BlinkMacSystemFont, 'Segoe UI', sans-serif">Unique cloners</text>

</svg>