<svg xmlns="http://www.w3.org/2000/svg" viewBox="0 0 820 280" width="820" height="280">

  <!-- title -->
  <text x="52" y="18" font-size="13" font-weight="600"
        fill="#24292f" font-family="-apple-system, BlinkMacSystemFont, 'Segoe UI', sans-serif"
        >Clone traffic — nr-enrich-core</text>
  <text x="800" y="18" font-size="10" fill="#8c959f"
        font-family="ui-monospace, SFMono-Regular, 'SF Mono', Menlo, monospace" text-anchor="end">2026-08-20</text>

  <!-- grid -->
  <line x1="52" y1="232.0" x2="800" y2="232.0" stroke="#e8e8e8" stroke-width="1"/><line x1="52" y1="190.3" x2="800" y2="190.3" stroke="#e8e8e8" stroke-width="1"/><line x1="52" y1="148.5" x2="800" y2="148.5" stroke="#e8e8e8" stroke-width="1"/><line x1="52" y1="106.8" x2="800" y2="106.8" stroke="#e8e8e8" stroke-width="1"/><line x1="52" y1="65.1" x2="800" y2="65.1" stroke="#e8e8e8" stroke-width="1"/><line x1="52" y1="23.4" x2="800" y2="23.4" stroke="#e8e8e8" stroke-width="1"/>

  <!-- area fill -->
  <path d="M52.0,232.0 L52.0,232.0 L59.6,227.4 L67.3,222.7 L74.9,232.0 L82.5,232.0 L90.2,222.7 L97.8,232.0 L105.4,222.7 L113.1,232.0 L120.7,227.4 L128.3,232.0 L136.0,176.4 L143.6,218.1 L151.2,232.0 L158.9,232.0 L166.5,232.0 L174.1,208.8 L181.8,218.1 L189.4,227.4 L197.0,227.4 L204.7,227.4 L212.3,232.0 L219.9,232.0 L227.6,232.0 L235.2,232.0 L242.8,218.1 L250.4,227.4 L258.1,232.0 L265.7,232.0 L273.3,227.4 L281.0,227.4 L288.6,232.0 L296.2,232.0 L303.9,232.0 L311.5,227.4 L319.1,227.4 L326.8,232.0 L334.4,232.0 L342.0,190.3 L349.7,204.2 L357.3,222.7 L364.9,232.0 L372.6,227.4 L380.2,194.9 L387.8,28.0 L395.5,232.0 L403.1,232.0 L410.7,232.0 L418.4,232.0 L426.0,232.0 L433.6,232.0 L441.3,232.0 L448.9,232.0 L456.5,232.0 L464.2,222.7 L471.8,227.4 L479.4,232.0 L487.1,185.6 L494.7,232.0 L502.3,232.0 L510.0,232.0 L517.6,232.0 L525.2,222.7 L532.9,232.0 L540.5,232.0 L548.1,232.0 L555.8,232.0 L563.4,232.0 L571.0,227.4 L578.7,232.0 L586.3,232.0 L593.9,227.4 L601.6,227.4 L609.2,232.0 L616.8,232.0 L624.4,232.0 L632.1,232.0 L639.7,232.0 L647.3,232.0 L655.0,232.0 L662.6,232.0 L670.2,227.4 L677.9,227.4 L685.5,232.0 L693.1,232.0 L700.8,232.0 L708.4,232.0 L716.0,222.7 L723.7,227.4 L731.3,232.0 L738.9,232.0 L746.6,232.0 L754.2,232.0 L761.8,232.0 L769.5,227.4 L777.1,232.0 L784.7,232.0 L792.4,232.0 L800.0,232.0 L800.0,232.0 L52.0,232.0Z" fill="#4e79a7" opacity="0.12"/>

  <!-- lines -->
  <polyline points="52.0,232.0 59.6,227.4 67.3,222.7 74.9,232.0 82.5,232.0 90.2,222.7 97.8,232.0 105.4,222.7 113.1,232.0 120.7,227.4 128.3,232.0 136.0,176.4 143.6,218.1 151.2,232.0 158.9,232.0 166.5,232.0 174.1,208.8 181.8,218.1 189.4,227.4 197.0,227.4 204.7,227.4 212.3,232.0 219.9,232.0 227.6,232.0 235.2,232.0 242.8,218.1 250.4,227.4 258.1,232.0 265.7,232.0 273.3,227.4 281.0,227.4 288.6,232.0 296.2,232.0 303.9,232.0 311.5,227.4 319.1,227.4 326.8,232.0 334.4,232.0 342.0,190.3 349.7,204.2 357.3,222.7 364.9,232.0 372.6,227.4 380.2,194.9 387.8,28.0 395.5,232.0 403.1,232.0 410.7,232.0 418.4,232.0 426.0,232.0 433.6,232.0 441.3,232.0 448.9,232.0 456.5,232.0 464.2,222.7 471.8,227.4 479.4,232.0 487.1,185.6 494.7,232.0 502.3,232.0 510.0,232.0 517.6,232.0 525.2,222.7 532.9,232.0 540.5,232.0 548.1,232.0 555.8,232.0 563.4,232.0 571.0,227.4 578.7,232.0 586.3,232.0 593.9,227.4 601.6,227.4 609.2,232.0 616.8,232.0 624.4,232.0 632.1,232.0 639.7,232.0 647.3,232.0 655.0,232.0 662.6,232.0 670.2,227.4 677.9,227.4 685.5,232.0 693.1,232.0 700.8,232.0 708.4,232.0 716.0,222.7 723.7,227.4 731.3,232.0 738.9,232.0 746.6,232.0 754.2,232.0 761.8,232.0 769.5,227.4 777.1,232.0 784.7,232.0 792.4,232.0 800.0,232.0"
            fill="none" stroke="#4e79a7"
            stroke-width="2" stroke-linejoin="round"/>
  <polyline points="52.0,232.0 59.6,227.4 67.3,222.7 74.9,232.0 82.5,232.0 90.2,222.7 97.8,232.0 105.4,222.7 113.1,232.0 120.7,227.4 128.3,232.0 136.0,194.9 143.6,218.1 151.2,232.0 158.9,232.0 166.5,232.0 174.1,218.1 181.8,227.4 189.4,227.4 197.0,227.4 204.7,227.4 212.3,232.0 219.9,232.0 227.6,232.0 235.2,232.0 242.8,218.1 250.4,227.4 258.1,232.0 265.7,232.0 273.3,227.4 281.0,227.4 288.6,232.0 296.2,232.0 303.9,232.0 311.5,227.4 319.1,227.4 326.8,232.0 334.4,232.0 342.0,213.5 349.7,218.1 357.3,222.7 364.9,232.0 372.6,227.4 380.2,222.7 387.8,199.5 395.5,232.0 403.1,232.0 410.7,232.0 418.4,232.0 426.0,232.0 433.6,232.0 441.3,232.0 448.9,232.0 456.5,232.0 464.2,227.4 471.8,227.4 479.4,232.0 487.1,227.4 494.7,232.0 502.3,232.0 510.0,232.0 517.6,232.0 525.2,222.7 532.9,232.0 540.5,232.0 548.1,232.0 555.8,232.0 563.4,232.0 571.0,227.4 578.7,232.0 586.3,232.0 593.9,227.4 601.6,227.4 609.2,232.0 616.8,232.0 624.4,232.0 632.1,232.0 639.7,232.0 647.3,232.0 655.0,232.0 662.6,232.0 670.2,227.4 677.9,227.4 685.5,232.0 693.1,232.0 700.8,232.0 708.4,232.0 716.0,222.7 723.7,227.4 731.3,232.0 738.9,232.0 746.6,232.0 754.2,232.0 761.8,232.0 769.5,227.4 777.1,232.0 784.7,232.0 792.4,232.0 800.0,232.0"
            fill="none" stroke="#f28e2b"
            stroke-width="2" stroke-linejoin="round"
            stroke-dasharray="5,3"/>

  <!-- dots -->
  <circle cx="52.0" cy="232.0" r="3" fill="#4e79a7"/><circle cx="59.6" cy="227.4" r="3" fill="#4e79a7"/><circle cx="67.3" cy="222.7" r="3" fill="#4e79a7"/><circle cx="74.9" cy="232.0" r="3" fill="#4e79a7"/><circle cx="82.5" cy="232.0" r="3" fill="#4e79a7"/><circle cx="90.2" cy="222.7" r="3" fill="#4e79a7"/><circle cx="97.8" cy="232.0" r="3" fill="#4e79a7"/><circle cx="105.4" cy="222.7" r="3" fill="#4e79a7"/><circle cx="113.1" cy="232.0" r="3" fill="#4e79a7"/><circle cx="120.7" cy="227.4" r="3" fill="#4e79a7"/><circle cx="128.3" cy="232.0" r="3" fill="#4e79a7"/><circle cx="136.0" cy="176.4" r="3" fill="#4e79a7"/><circle cx="143.6" cy="218.1" r="3" fill="#4e79a7"/><circle cx="151.2" cy="232.0" r="3" fill="#4e79a7"/><circle cx="158.9" cy="232.0" r="3" fill="#4e79a7"/><circle cx="166.5" cy="232.0" r="3" fill="#4e79a7"/><circle cx="174.1" cy="208.8" r="3" fill="#4e79a7"/><circle cx="181.8" cy="218.1" r="3" fill="#4e79a7"/><circle cx="189.4" cy="227.4" r="3" fill="#4e79a7"/><circle cx="197.0" cy="227.4" r="3" fill="#4e79a7"/><circle cx="204.7" cy="227.4" r="3" fill="#4e79a7"/><circle cx="212.3" cy="232.0" r="3" fill="#4e79a7"/><circle cx="219.9" cy="232.0" r="3" fill="#4e79a7"/><circle cx="227.6" cy="232.0" r="3" fill="#4e79a7"/><circle cx="235.2" cy="232.0" r="3" fill="#4e79a7"/><circle cx="242.8" cy="218.1" r="3" fill="#4e79a7"/><circle cx="250.4" cy="227.4" r="3" fill="#4e79a7"/><circle cx="258.1" cy="232.0" r="3" fill="#4e79a7"/><circle cx="265.7" cy="232.0" r="3" fill="#4e79a7"/><circle cx="273.3" cy="227.4" r="3" fill="#4e79a7"/><circle cx="281.0" cy="227.4" r="3" fill="#4e79a7"/><circle cx="288.6" cy="232.0" r="3" fill="#4e79a7"/><circle cx="296.2" cy="232.0" r="3" fill="#4e79a7"/><circle cx="303.9" cy="232.0" r="3" fill="#4e79a7"/><circle cx="311.5" cy="227.4" r="3" fill="#4e79a7"/><circle cx="319.1" cy="227.4" r="3" fill="#4e79a7"/><circle cx="326.8" cy="232.0" r="3" fill="#4e79a7"/><circle cx="334.4" cy="232.0" r="3" fill="#4e79a7"/><circle cx="342.0" cy="190.3" r="3" fill="#4e79a7"/><circle cx="349.7" cy="204.2" r="3" fill="#4e79a7"/><circle cx="357.3" cy="222.7" r="3" fill="#4e79a7"/><circle cx="364.9" cy="232.0" r="3" fill="#4e79a7"/><circle cx="372.6" cy="227.4" r="3" fill="#4e79a7"/><circle cx="380.2" cy="194.9" r="3" fill="#4e79a7"/><circle cx="387.8" cy="28.0" r="3" fill="#4e79a7"/><circle cx="395.5" cy="232.0" r="3" fill="#4e79a7"/><circle cx="403.1" cy="232.0" r="3" fill="#4e79a7"/><circle cx="410.7" cy="232.0" r="3" fill="#4e79a7"/><circle cx="418.4" cy="232.0" r="3" fill="#4e79a7"/><circle cx="426.0" cy="232.0" r="3" fill="#4e79a7"/><circle cx="433.6" cy="232.0" r="3" fill="#4e79a7"/><circle cx="441.3" cy="232.0" r="3" fill="#4e79a7"/><circle cx="448.9" cy="232.0" r="3" fill="#4e79a7"/><circle cx="456.5" cy="232.0" r="3" fill="#4e79a7"/><circle cx="464.2" cy="222.7" r="3" fill="#4e79a7"/><circle cx="471.8" cy="227.4" r="3" fill="#4e79a7"/><circle cx="479.4" cy="232.0" r="3" fill="#4e79a7"/><circle cx="487.1" cy="185.6" r="3" fill="#4e79a7"/><circle cx="494.7" cy="232.0" r="3" fill="#4e79a7"/><circle cx="502.3" cy="232.0" r="3" fill="#4e79a7"/><circle cx="510.0" cy="232.0" r="3" fill="#4e79a7"/><circle cx="517.6" cy="232.0" r="3" fill="#4e79a7"/><circle cx="525.2" cy="222.7" r="3" fill="#4e79a7"/><circle cx="532.9" cy="232.0" r="3" fill="#4e79a7"/><circle cx="540.5" cy="232.0" r="3" fill="#4e79a7"/><circle cx="548.1" cy="232.0" r="3" fill="#4e79a7"/><circle cx="555.8" cy="232.0" r="3" fill="#4e79a7"/><circle cx="563.4" cy="232.0" r="3" fill="#4e79a7"/><circle cx="571.0" cy="227.4" r="3" fill="#4e79a7"/><circle cx="578.7" cy="232.0" r="3" fill="#4e79a7"/><circle cx="586.3" cy="232.0" r="3" fill="#4e79a7"/><circle cx="593.9" cy="227.4" r="3" fill="#4e79a7"/><circle cx="601.6" cy="227.4" r="3" fill="#4e79a7"/><circle cx="609.2" cy="232.0" r="3" fill="#4e79a7"/><circle cx="616.8" cy="232.0" r="3" fill="#4e79a7"/><circle cx="624.4" cy="232.0" r="3" fill="#4e79a7"/><circle cx="632.1" cy="232.0" r="3" fill="#4e79a7"/><circle cx="639.7" cy="232.0" r="3" fill="#4e79a7"/><circle cx="647.3" cy="232.0" r="3" fill="#4e79a7"/><circle cx="655.0" cy="232.0" r="3" fill="#4e79a7"/><circle cx="662.6" cy="232.0" r="3" fill="#4e79a7"/><circle cx="670.2" cy="227.4" r="3" fill="#4e79a7"/><circle cx="677.9" cy="227.4" r="3" fill="#4e79a7"/><circle cx="685.5" cy="232.0" r="3" fill="#4e79a7"/><circle cx="693.1" cy="232.0" r="3" fill="#4e79a7"/><circle cx="700.8" cy="232.0" r="3" fill="#4e79a7"/><circle cx="708.4" cy="232.0" r="3" fill="#4e79a7"/><circle cx="716.0" cy="222.7" r="3" fill="#4e79a7"/><circle cx="723.7" cy="227.4" r="3" fill="#4e79a7"/><circle cx="731.3" cy="232.0" r="3" fill="#4e79a7"/><circle cx="738.9" cy="232.0" r="3" fill="#4e79a7"/><circle cx="746.6" cy="232.0" r="3" fill="#4e79a7"/><circle cx="754.2" cy="232.0" r="3" fill="#4e79a7"/><circle cx="761.8" cy="232.0" r="3" fill="#4e79a7"/><circle cx="769.5" cy="227.4" r="3" fill="#4e79a7"/><circle cx="777.1" cy="232.0" r="3" fill="#4e79a7"/><circle cx="784.7" cy="232.0" r="3" fill="#4e79a7"/><circle cx="792.4" cy="232.0" r="3" fill="#4e79a7"/><circle cx="800.0" cy="232.0" r="3" fill="#4e79a7"/>
  <circle cx="52.0" cy="232.0" r="3" fill="#f28e2b"/><circle cx="59.6" cy="227.4" r="3" fill="#f28e2b"/><circle cx="67.3" cy="222.7" r="3" fill="#f28e2b"/><circle cx="74.9" cy="232.0" r="3" fill="#f28e2b"/><circle cx="82.5" cy="232.0" r="3" fill="#f28e2b"/><circle cx="90.2" cy="222.7" r="3" fill="#f28e2b"/><circle cx="97.8" cy="232.0" r="3" fill="#f28e2b"/><circle cx="105.4" cy="222.7" r="3" fill="#f28e2b"/><circle cx="113.1" cy="232.0" r="3" fill="#f28e2b"/><circle cx="120.7" cy="227.4" r="3" fill="#f28e2b"/><circle cx="128.3" cy="232.0" r="3" fill="#f28e2b"/><circle cx="136.0" cy="194.9" r="3" fill="#f28e2b"/><circle cx="143.6" cy="218.1" r="3" fill="#f28e2b"/><circle cx="151.2" cy="232.0" r="3" fill="#f28e2b"/><circle cx="158.9" cy="232.0" r="3" fill="#f28e2b"/><circle cx="166.5" cy="232.0" r="3" fill="#f28e2b"/><circle cx="174.1" cy="218.1" r="3" fill="#f28e2b"/><circle cx="181.8" cy="227.4" r="3" fill="#f28e2b"/><circle cx="189.4" cy="227.4" r="3" fill="#f28e2b"/><circle cx="197.0" cy="227.4" r="3" fill="#f28e2b"/><circle cx="204.7" cy="227.4" r="3" fill="#f28e2b"/><circle cx="212.3" cy="232.0" r="3" fill="#f28e2b"/><circle cx="219.9" cy="232.0" r="3" fill="#f28e2b"/><circle cx="227.6" cy="232.0" r="3" fill="#f28e2b"/><circle cx="235.2" cy="232.0" r="3" fill="#f28e2b"/><circle cx="242.8" cy="218.1" r="3" fill="#f28e2b"/><circle cx="250.4" cy="227.4" r="3" fill="#f28e2b"/><circle cx="258.1" cy="232.0" r="3" fill="#f28e2b"/><circle cx="265.7" cy="232.0" r="3" fill="#f28e2b"/><circle cx="273.3" cy="227.4" r="3" fill="#f28e2b"/><circle cx="281.0" cy="227.4" r="3" fill="#f28e2b"/><circle cx="288.6" cy="232.0" r="3" fill="#f28e2b"/><circle cx="296.2" cy="232.0" r="3" fill="#f28e2b"/><circle cx="303.9" cy="232.0" r="3" fill="#f28e2b"/><circle cx="311.5" cy="227.4" r="3" fill="#f28e2b"/><circle cx="319.1" cy="227.4" r="3" fill="#f28e2b"/><circle cx="326.8" cy="232.0" r="3" fill="#f28e2b"/><circle cx="334.4" cy="232.0" r="3" fill="#f28e2b"/><circle cx="342.0" cy="213.5" r="3" fill="#f28e2b"/><circle cx="349.7" cy="218.1" r="3" fill="#f28e2b"/><circle cx="357.3" cy="222.7" r="3" fill="#f28e2b"/><circle cx="364.9" cy="232.0" r="3" fill="#f28e2b"/><circle cx="372.6" cy="227.4" r="3" fill="#f28e2b"/><circle cx="380.2" cy="222.7" r="3" fill="#f28e2b"/><circle cx="387.8" cy="199.5" r="3" fill="#f28e2b"/><circle cx="395.5" cy="232.0" r="3" fill="#f28e2b"/><circle cx="403.1" cy="232.0" r="3" fill="#f28e2b"/><circle cx="410.7" cy="232.0" r="3" fill="#f28e2b"/><circle cx="418.4" cy="232.0" r="3" fill="#f28e2b"/><circle cx="426.0" cy="232.0" r="3" fill="#f28e2b"/><circle cx="433.6" cy="232.0" r="3" fill="#f28e2b"/><circle cx="441.3" cy="232.0" r="3" fill="#f28e2b"/><circle cx="448.9" cy="232.0" r="3" fill="#f28e2b"/><circle cx="456.5" cy="232.0" r="3" fill="#f28e2b"/><circle cx="464.2" cy="227.4" r="3" fill="#f28e2b"/><circle cx="471.8" cy="227.4" r="3" fill="#f28e2b"/><circle cx="479.4" cy="232.0" r="3" fill="#f28e2b"/><circle cx="487.1" cy="227.4" r="3" fill="#f28e2b"/><circle cx="494.7" cy="232.0" r="3" fill="#f28e2b"/><circle cx="502.3" cy="232.0" r="3" fill="#f28e2b"/><circle cx="510.0" cy="232.0" r="3" fill="#f28e2b"/><circle cx="517.6" cy="232.0" r="3" fill="#f28e2b"/><circle cx="525.2" cy="222.7" r="3" fill="#f28e2b"/><circle cx="532.9" cy="232.0" r="3" fill="#f28e2b"/><circle cx="540.5" cy="232.0" r="3" fill="#f28e2b"/><circle cx="548.1" cy="232.0" r="3" fill="#f28e2b"/><circle cx="555.8" cy="232.0" r="3" fill="#f28e2b"/><circle cx="563.4" cy="232.0" r="3" fill="#f28e2b"/><circle cx="571.0" cy="227.4" r="3" fill="#f28e2b"/><circle cx="578.7" cy="232.0" r="3" fill="#f28e2b"/><circle cx="586.3" cy="232.0" r="3" fill="#f28e2b"/><circle cx="593.9" cy="227.4" r="3" fill="#f28e2b"/><circle cx="601.6" cy="227.4" r="3" fill="#f28e2b"/><circle cx="609.2" cy="232.0" r="3" fill="#f28e2b"/><circle cx="616.8" cy="232.0" r="3" fill="#f28e2b"/><circle cx="624.4" cy="232.0" r="3" fill="#f28e2b"/><circle cx="632.1" cy="232.0" r="3" fill="#f28e2b"/><circle cx="639.7" cy="232.0" r="3" fill="#f28e2b"/><circle cx="647.3" cy="232.0" r="3" fill="#f28e2b"/><circle cx="655.0" cy="232.0" r="3" fill="#f28e2b"/><circle cx="662.6" cy="232.0" r="3" fill="#f28e2b"/><circle cx="670.2" cy="227.4" r="3" fill="#f28e2b"/><circle cx="677.9" cy="227.4" r="3" fill="#f28e2b"/><circle cx="685.5" cy="232.0" r="3" fill="#f28e2b"/><circle cx="693.1" cy="232.0" r="3" fill="#f28e2b"/><circle cx="700.8" cy="232.0" r="3" fill="#f28e2b"/><circle cx="708.4" cy="232.0" r="3" fill="#f28e2b"/><circle cx="716.0" cy="222.7" r="3" fill="#f28e2b"/><circle cx="723.7" cy="227.4" r="3" fill="#f28e2b"/><circle cx="731.3" cy="232.0" r="3" fill="#f28e2b"/><circle cx="738.9" cy="232.0" r="3" fill="#f28e2b"/><circle cx="746.6" cy="232.0" r="3" fill="#f28e2b"/><circle cx="754.2" cy="232.0" r="3" fill="#f28e2b"/><circle cx="761.8" cy="232.0" r="3" fill="#f28e2b"/><circle cx="769.5" cy="227.4" r="3" fill="#f28e2b"/><circle cx="777.1" cy="232.0" r="3" fill="#f28e2b"/><circle cx="784.7" cy="232.0" r="3" fill="#f28e2b"/><circle cx="792.4" cy="232.0" r="3" fill="#f28e2b"/><circle cx="800.0" cy="232.0" r="3" fill="#f28e2b"/>

  <!-- axes -->
  <line x1="52" y1="28" x2="52" y2="232"
        stroke="#cccccc" stroke-width="1"/>
  <line x1="52" y1="232" x2="800" y2="232"
        stroke="#cccccc" stroke-width="1"/>

  <!-- y-axis labels -->
  <text x="47" y="236.0" text-anchor="end" font-size="10" fill="#57606a" font-family="ui-monospace, SFMono-Regular, 'SF Mono', Menlo, monospace">0</text><text x="47" y="194.3" text-anchor="end" font-size="10" fill="#57606a" font-family="ui-monospace, SFMono-Regular, 'SF Mono', Menlo, monospace">9</text><text x="47" y="152.5" text-anchor="end" font-size="10" fill="#57606a" font-family="ui-monospace, SFMono-Regular, 'SF Mono', Menlo, monospace">18</text><text x="47" y="110.8" text-anchor="end" font-size="10" fill="#57606a" font-family="ui-monospace, SFMono-Regular, 'SF Mono', Menlo, monospace">27</text><text x="47" y="69.1" text-anchor="end" font-size="10" fill="#57606a" font-family="ui-monospace, SFMono-Regular, 'SF Mono', Menlo, monospace">36</text><text x="47" y="27.4" text-anchor="end" font-size="10" fill="#57606a" font-family="ui-monospace, SFMono-Regular, 'SF Mono', Menlo, monospace">45</text>

  <!-- x-axis labels -->
  <text x="52.0" y="248" text-anchor="middle" font-size="10" fill="#8c959f" font-family="ui-monospace, SFMono-Regular, 'SF Mono', Menlo, monospace">05-11</text><text x="784.7" y="248" text-anchor="middle" font-size="10" fill="#8c959f" font-family="ui-monospace, SFMono-Regular, 'SF Mono', Menlo, monospace">08-15</text><text x="800.0" y="248" text-anchor="middle" font-size="10" fill="#8c959f" font-family="ui-monospace, SFMono-Regular, 'SF Mono', Menlo, monospace">08-17</text><text x="326.8" y="248" text-anchor="middle" font-size="10" fill="#8c959f" font-family="ui-monospace, SFMono-Regular, 'SF Mono', Menlo, monospace">06-16</text><text x="601.6" y="248" text-anchor="middle" font-size="10" fill="#8c959f" font-family="ui-monospace, SFMono-Regular, 'SF Mono', Menlo, monospace">07-22</text><text x="143.6" y="248" text-anchor="middle" font-size="10" fill="#8c959f" font-family="ui-monospace, SFMono-Regular, 'SF Mono', Menlo, monospace">05-23</text><text x="418.4" y="248" text-anchor="middle" font-size="10" fill="#8c959f" font-family="ui-monospace, SFMono-Regular, 'SF Mono', Menlo, monospace">06-28</text><text x="693.1" y="248" text-anchor="middle" font-size="10" fill="#8c959f" font-family="ui-monospace, SFMono-Regular, 'SF Mono', Menlo, monospace">08-03</text><text x="235.2" y="248" text-anchor="middle" font-size="10" fill="#8c959f" font-family="ui-monospace, SFMono-Regular, 'SF Mono', Menlo, monospace">06-04</text><text x="510.0" y="248" text-anchor="middle" font-size="10" fill="#8c959f" font-family="ui-monospace, SFMono-Regular, 'SF Mono', Menlo, monospace">07-10</text>

  <!-- legend -->
  <rect x="60" y="262" width="16" height="3" fill="#4e79a7" rx="1"/><text x="80" y="268" font-size="11" fill="#57606a" font-family="-apple-system, BlinkMacSystemFont, 'Segoe UI', sans-serif">Total clones (136)</text><line x1="230" y1="264" x2="246" y2="264" stroke="#f28e2b" stroke-width="2" stroke-dasharray="5,3"/><text x="250" y="268" font-size="11" fill="#57606a" font-family="-apple-system, BlinkMacSystemFont, 'Segoe UI', sans-serif">Unique cloners</text>

</svg>