<svg xmlns="http://www.w3.org/2000/svg" viewBox="0 0 820 280" width="820" height="280">

  <!-- title -->
  <text x="52" y="18" font-size="13" font-weight="600"
        fill="#24292f" font-family="-apple-system, BlinkMacSystemFont, 'Segoe UI', sans-serif"
        >Clone traffic — nr-enrich-core</text>
  <text x="800" y="18" font-size="10" fill="#8c959f"
        font-family="ui-monospace, SFMono-Regular, 'SF Mono', Menlo, monospace" text-anchor="end">2026-10-03</text>

  <!-- grid -->
  <line x1="52" y1="232.0" x2="800" y2="232.0" stroke="#e8e8e8" stroke-width="1"/><line x1="52" y1="185.6" x2="800" y2="185.6" stroke="#e8e8e8" stroke-width="1"/><line x1="52" y1="139.3" x2="800" y2="139.3" stroke="#e8e8e8" stroke-width="1"/><line x1="52" y1="92.9" x2="800" y2="92.9" stroke="#e8e8e8" stroke-width="1"/><line x1="52" y1="46.5" x2="800" y2="46.5" stroke="#e8e8e8" stroke-width="1"/><line x1="52" y1="0.2" x2="800" y2="0.2" stroke="#e8e8e8" stroke-width="1"/>

  <!-- area fill -->
  <path d="M52.0,232.0 L52.0,232.0 L57.4,229.7 L62.8,227.4 L68.3,232.0 L73.7,232.0 L79.1,227.4 L84.5,232.0 L89.9,227.4 L95.4,232.0 L100.8,229.7 L106.2,232.0 L111.6,204.2 L117.0,225.0 L122.5,232.0 L127.9,232.0 L133.3,232.0 L138.7,220.4 L144.1,225.0 L149.6,229.7 L155.0,229.7 L160.4,229.7 L165.8,232.0 L171.2,232.0 L176.7,232.0 L182.1,232.0 L187.5,225.0 L192.9,229.7 L198.3,232.0 L203.8,232.0 L209.2,229.7 L214.6,229.7 L220.0,232.0 L225.4,232.0 L230.9,232.0 L236.3,229.7 L241.7,229.7 L247.1,232.0 L252.6,232.0 L258.0,211.1 L263.4,218.1 L268.8,227.4 L274.2,232.0 L279.7,229.7 L285.1,213.5 L290.5,130.0 L295.9,232.0 L301.3,232.0 L306.8,232.0 L312.2,232.0 L317.6,232.0 L323.0,232.0 L328.4,232.0 L333.9,232.0 L339.3,232.0 L344.7,227.4 L350.1,229.7 L355.5,232.0 L361.0,208.8 L366.4,232.0 L371.8,232.0 L377.2,232.0 L382.6,232.0 L388.1,227.4 L393.5,232.0 L398.9,232.0 L404.3,232.0 L409.7,232.0 L415.2,232.0 L420.6,229.7 L426.0,232.0 L431.4,232.0 L436.8,229.7 L442.3,229.7 L447.7,232.0 L453.1,232.0 L458.5,232.0 L463.9,232.0 L469.4,232.0 L474.8,232.0 L480.2,232.0 L485.6,232.0 L491.0,229.7 L496.5,229.7 L501.9,232.0 L507.3,232.0 L512.7,232.0 L518.1,232.0 L523.6,227.4 L529.0,229.7 L534.4,232.0 L539.8,232.0 L545.2,232.0 L550.7,232.0 L556.1,232.0 L561.5,229.7 L566.9,232.0 L572.3,232.0 L577.8,232.0 L583.2,232.0 L588.6,232.0 L594.0,232.0 L599.4,232.0 L604.9,232.0 L610.3,232.0 L615.7,227.4 L621.1,232.0 L626.6,229.7 L632.0,232.0 L637.4,225.0 L642.8,28.0 L648.2,199.5 L653.7,201.9 L659.1,229.7 L664.5,225.0 L669.9,232.0 L675.3,232.0 L680.8,229.7 L686.2,225.0 L691.6,227.4 L697.0,225.0 L702.4,227.4 L707.9,229.7 L713.3,232.0 L718.7,232.0 L724.1,232.0 L729.5,229.7 L735.0,232.0 L740.4,229.7 L745.8,204.2 L751.2,232.0 L756.6,229.7 L762.1,229.7 L767.5,232.0 L772.9,232.0 L778.3,232.0 L783.7,229.7 L789.2,225.0 L794.6,232.0 L800.0,232.0 L800.0,232.0 L52.0,232.0Z" fill="#4e79a7" opacity="0.12"/>

  <!-- lines -->
  <polyline points="52.0,232.0 57.4,229.7 62.8,227.4 68.3,232.0 73.7,232.0 79.1,227.4 84.5,232.0 89.9,227.4 95.4,232.0 100.8,229.7 106.2,232.0 111.6,204.2 117.0,225.0 122.5,232.0 127.9,232.0 133.3,232.0 138.7,220.4 144.1,225.0 149.6,229.7 155.0,229.7 160.4,229.7 165.8,232.0 171.2,232.0 176.7,232.0 182.1,232.0 187.5,225.0 192.9,229.7 198.3,232.0 203.8,232.0 209.2,229.7 214.6,229.7 220.0,232.0 225.4,232.0 230.9,232.0 236.3,229.7 241.7,229.7 247.1,232.0 252.6,232.0 258.0,211.1 263.4,218.1 268.8,227.4 274.2,232.0 279.7,229.7 285.1,213.5 290.5,130.0 295.9,232.0 301.3,232.0 306.8,232.0 312.2,232.0 317.6,232.0 323.0,232.0 328.4,232.0 333.9,232.0 339.3,232.0 344.7,227.4 350.1,229.7 355.5,232.0 361.0,208.8 366.4,232.0 371.8,232.0 377.2,232.0 382.6,232.0 388.1,227.4 393.5,232.0 398.9,232.0 404.3,232.0 409.7,232.0 415.2,232.0 420.6,229.7 426.0,232.0 431.4,232.0 436.8,229.7 442.3,229.7 447.7,232.0 453.1,232.0 458.5,232.0 463.9,232.0 469.4,232.0 474.8,232.0 480.2,232.0 485.6,232.0 491.0,229.7 496.5,229.7 501.9,232.0 507.3,232.0 512.7,232.0 518.1,232.0 523.6,227.4 529.0,229.7 534.4,232.0 539.8,232.0 545.2,232.0 550.7,232.0 556.1,232.0 561.5,229.7 566.9,232.0 572.3,232.0 577.8,232.0 583.2,232.0 588.6,232.0 594.0,232.0 599.4,232.0 604.9,232.0 610.3,232.0 615.7,227.4 621.1,232.0 626.6,229.7 632.0,232.0 637.4,225.0 642.8,28.0 648.2,199.5 653.7,201.9 659.1,229.7 664.5,225.0 669.9,232.0 675.3,232.0 680.8,229.7 686.2,225.0 691.6,227.4 697.0,225.0 702.4,227.4 707.9,229.7 713.3,232.0 718.7,232.0 724.1,232.0 729.5,229.7 735.0,232.0 740.4,229.7 745.8,204.2 751.2,232.0 756.6,229.7 762.1,229.7 767.5,232.0 772.9,232.0 778.3,232.0 783.7,229.7 789.2,225.0 794.6,232.0 800.0,232.0"
            fill="none" stroke="#4e79a7"
            stroke-width="2" stroke-linejoin="round"/>
  <polyline points="52.0,232.0 57.4,229.7 62.8,227.4 68.3,232.0 73.7,232.0 79.1,227.4 84.5,232.0 89.9,227.4 95.4,232.0 100.8,229.7 106.2,232.0 111.6,213.5 117.0,225.0 122.5,232.0 127.9,232.0 133.3,232.0 138.7,225.0 144.1,229.7 149.6,229.7 155.0,229.7 160.4,229.7 165.8,232.0 171.2,232.0 176.7,232.0 182.1,232.0 187.5,225.0 192.9,229.7 198.3,232.0 203.8,232.0 209.2,229.7 214.6,229.7 220.0,232.0 225.4,232.0 230.9,232.0 236.3,229.7 241.7,229.7 247.1,232.0 252.6,232.0 258.0,222.7 263.4,225.0 268.8,227.4 274.2,232.0 279.7,229.7 285.1,227.4 290.5,215.8 295.9,232.0 301.3,232.0 306.8,232.0 312.2,232.0 317.6,232.0 323.0,232.0 328.4,232.0 333.9,232.0 339.3,232.0 344.7,229.7 350.1,229.7 355.5,232.0 361.0,229.7 366.4,232.0 371.8,232.0 377.2,232.0 382.6,232.0 388.1,227.4 393.5,232.0 398.9,232.0 404.3,232.0 409.7,232.0 415.2,232.0 420.6,229.7 426.0,232.0 431.4,232.0 436.8,229.7 442.3,229.7 447.7,232.0 453.1,232.0 458.5,232.0 463.9,232.0 469.4,232.0 474.8,232.0 480.2,232.0 485.6,232.0 491.0,229.7 496.5,229.7 501.9,232.0 507.3,232.0 512.7,232.0 518.1,232.0 523.6,227.4 529.0,229.7 534.4,232.0 539.8,232.0 545.2,232.0 550.7,232.0 556.1,232.0 561.5,229.7 566.9,232.0 572.3,232.0 577.8,232.0 583.2,232.0 588.6,232.0 594.0,232.0 599.4,232.0 604.9,232.0 610.3,232.0 615.7,229.7 621.1,232.0 626.6,229.7 632.0,232.0 637.4,225.0 642.8,188.0 648.2,215.8 653.7,213.5 659.1,229.7 664.5,225.0 669.9,232.0 675.3,232.0 680.8,229.7 686.2,225.0 691.6,227.4 697.0,225.0 702.4,227.4 707.9,229.7 713.3,232.0 718.7,232.0 724.1,232.0 729.5,229.7 735.0,232.0 740.4,229.7 745.8,220.4 751.2,232.0 756.6,229.7 762.1,229.7 767.5,232.0 772.9,232.0 778.3,232.0 783.7,229.7 789.2,225.0 794.6,232.0 800.0,232.0"
            fill="none" stroke="#f28e2b"
            stroke-width="2" stroke-linejoin="round"
            stroke-dasharray="5,3"/>

  <!-- dots -->
  <circle cx="52.0" cy="232.0" r="3" fill="#4e79a7"/><circle cx="57.4" cy="229.7" r="3" fill="#4e79a7"/><circle cx="62.8" cy="227.4" r="3" fill="#4e79a7"/><circle cx="68.3" cy="232.0" r="3" fill="#4e79a7"/><circle cx="73.7" cy="232.0" r="3" fill="#4e79a7"/><circle cx="79.1" cy="227.4" r="3" fill="#4e79a7"/><circle cx="84.5" cy="232.0" r="3" fill="#4e79a7"/><circle cx="89.9" cy="227.4" r="3" fill="#4e79a7"/><circle cx="95.4" cy="232.0" r="3" fill="#4e79a7"/><circle cx="100.8" cy="229.7" r="3" fill="#4e79a7"/><circle cx="106.2" cy="232.0" r="3" fill="#4e79a7"/><circle cx="111.6" cy="204.2" r="3" fill="#4e79a7"/><circle cx="117.0" cy="225.0" r="3" fill="#4e79a7"/><circle cx="122.5" cy="232.0" r="3" fill="#4e79a7"/><circle cx="127.9" cy="232.0" r="3" fill="#4e79a7"/><circle cx="133.3" cy="232.0" r="3" fill="#4e79a7"/><circle cx="138.7" cy="220.4" r="3" fill="#4e79a7"/><circle cx="144.1" cy="225.0" r="3" fill="#4e79a7"/><circle cx="149.6" cy="229.7" r="3" fill="#4e79a7"/><circle cx="155.0" cy="229.7" r="3" fill="#4e79a7"/><circle cx="160.4" cy="229.7" r="3" fill="#4e79a7"/><circle cx="165.8" cy="232.0" r="3" fill="#4e79a7"/><circle cx="171.2" cy="232.0" r="3" fill="#4e79a7"/><circle cx="176.7" cy="232.0" r="3" fill="#4e79a7"/><circle cx="182.1" cy="232.0" r="3" fill="#4e79a7"/><circle cx="187.5" cy="225.0" r="3" fill="#4e79a7"/><circle cx="192.9" cy="229.7" r="3" fill="#4e79a7"/><circle cx="198.3" cy="232.0" r="3" fill="#4e79a7"/><circle cx="203.8" cy="232.0" r="3" fill="#4e79a7"/><circle cx="209.2" cy="229.7" r="3" fill="#4e79a7"/><circle cx="214.6" cy="229.7" r="3" fill="#4e79a7"/><circle cx="220.0" cy="232.0" r="3" fill="#4e79a7"/><circle cx="225.4" cy="232.0" r="3" fill="#4e79a7"/><circle cx="230.9" cy="232.0" r="3" fill="#4e79a7"/><circle cx="236.3" cy="229.7" r="3" fill="#4e79a7"/><circle cx="241.7" cy="229.7" r="3" fill="#4e79a7"/><circle cx="247.1" cy="232.0" r="3" fill="#4e79a7"/><circle cx="252.6" cy="232.0" r="3" fill="#4e79a7"/><circle cx="258.0" cy="211.1" r="3" fill="#4e79a7"/><circle cx="263.4" cy="218.1" r="3" fill="#4e79a7"/><circle cx="268.8" cy="227.4" r="3" fill="#4e79a7"/><circle cx="274.2" cy="232.0" r="3" fill="#4e79a7"/><circle cx="279.7" cy="229.7" r="3" fill="#4e79a7"/><circle cx="285.1" cy="213.5" r="3" fill="#4e79a7"/><circle cx="290.5" cy="130.0" r="3" fill="#4e79a7"/><circle cx="295.9" cy="232.0" r="3" fill="#4e79a7"/><circle cx="301.3" cy="232.0" r="3" fill="#4e79a7"/><circle cx="306.8" cy="232.0" r="3" fill="#4e79a7"/><circle cx="312.2" cy="232.0" r="3" fill="#4e79a7"/><circle cx="317.6" cy="232.0" r="3" fill="#4e79a7"/><circle cx="323.0" cy="232.0" r="3" fill="#4e79a7"/><circle cx="328.4" cy="232.0" r="3" fill="#4e79a7"/><circle cx="333.9" cy="232.0" r="3" fill="#4e79a7"/><circle cx="339.3" cy="232.0" r="3" fill="#4e79a7"/><circle cx="344.7" cy="227.4" r="3" fill="#4e79a7"/><circle cx="350.1" cy="229.7" r="3" fill="#4e79a7"/><circle cx="355.5" cy="232.0" r="3" fill="#4e79a7"/><circle cx="361.0" cy="208.8" r="3" fill="#4e79a7"/><circle cx="366.4" cy="232.0" r="3" fill="#4e79a7"/><circle cx="371.8" cy="232.0" r="3" fill="#4e79a7"/><circle cx="377.2" cy="232.0" r="3" fill="#4e79a7"/><circle cx="382.6" cy="232.0" r="3" fill="#4e79a7"/><circle cx="388.1" cy="227.4" r="3" fill="#4e79a7"/><circle cx="393.5" cy="232.0" r="3" fill="#4e79a7"/><circle cx="398.9" cy="232.0" r="3" fill="#4e79a7"/><circle cx="404.3" cy="232.0" r="3" fill="#4e79a7"/><circle cx="409.7" cy="232.0" r="3" fill="#4e79a7"/><circle cx="415.2" cy="232.0" r="3" fill="#4e79a7"/><circle cx="420.6" cy="229.7" r="3" fill="#4e79a7"/><circle cx="426.0" cy="232.0" r="3" fill="#4e79a7"/><circle cx="431.4" cy="232.0" r="3" fill="#4e79a7"/><circle cx="436.8" cy="229.7" r="3" fill="#4e79a7"/><circle cx="442.3" cy="229.7" r="3" fill="#4e79a7"/><circle cx="447.7" cy="232.0" r="3" fill="#4e79a7"/><circle cx="453.1" cy="232.0" r="3" fill="#4e79a7"/><circle cx="458.5" cy="232.0" r="3" fill="#4e79a7"/><circle cx="463.9" cy="232.0" r="3" fill="#4e79a7"/><circle cx="469.4" cy="232.0" r="3" fill="#4e79a7"/><circle cx="474.8" cy="232.0" r="3" fill="#4e79a7"/><circle cx="480.2" cy="232.0" r="3" fill="#4e79a7"/><circle cx="485.6" cy="232.0" r="3" fill="#4e79a7"/><circle cx="491.0" cy="229.7" r="3" fill="#4e79a7"/><circle cx="496.5" cy="229.7" r="3" fill="#4e79a7"/><circle cx="501.9" cy="232.0" r="3" fill="#4e79a7"/><circle cx="507.3" cy="232.0" r="3" fill="#4e79a7"/><circle cx="512.7" cy="232.0" r="3" fill="#4e79a7"/><circle cx="518.1" cy="232.0" r="3" fill="#4e79a7"/><circle cx="523.6" cy="227.4" r="3" fill="#4e79a7"/><circle cx="529.0" cy="229.7" r="3" fill="#4e79a7"/><circle cx="534.4" cy="232.0" r="3" fill="#4e79a7"/><circle cx="539.8" cy="232.0" r="3" fill="#4e79a7"/><circle cx="545.2" cy="232.0" r="3" fill="#4e79a7"/><circle cx="550.7" cy="232.0" r="3" fill="#4e79a7"/><circle cx="556.1" cy="232.0" r="3" fill="#4e79a7"/><circle cx="561.5" cy="229.7" r="3" fill="#4e79a7"/><circle cx="566.9" cy="232.0" r="3" fill="#4e79a7"/><circle cx="572.3" cy="232.0" r="3" fill="#4e79a7"/><circle cx="577.8" cy="232.0" r="3" fill="#4e79a7"/><circle cx="583.2" cy="232.0" r="3" fill="#4e79a7"/><circle cx="588.6" cy="232.0" r="3" fill="#4e79a7"/><circle cx="594.0" cy="232.0" r="3" fill="#4e79a7"/><circle cx="599.4" cy="232.0" r="3" fill="#4e79a7"/><circle cx="604.9" cy="232.0" r="3" fill="#4e79a7"/><circle cx="610.3" cy="232.0" r="3" fill="#4e79a7"/><circle cx="615.7" cy="227.4" r="3" fill="#4e79a7"/><circle cx="621.1" cy="232.0" r="3" fill="#4e79a7"/><circle cx="626.6" cy="229.7" r="3" fill="#4e79a7"/><circle cx="632.0" cy="232.0" r="3" fill="#4e79a7"/><circle cx="637.4" cy="225.0" r="3" fill="#4e79a7"/><circle cx="642.8" cy="28.0" r="3" fill="#4e79a7"/><circle cx="648.2" cy="199.5" r="3" fill="#4e79a7"/><circle cx="653.7" cy="201.9" r="3" fill="#4e79a7"/><circle cx="659.1" cy="229.7" r="3" fill="#4e79a7"/><circle cx="664.5" cy="225.0" r="3" fill="#4e79a7"/><circle cx="669.9" cy="232.0" r="3" fill="#4e79a7"/><circle cx="675.3" cy="232.0" r="3" fill="#4e79a7"/><circle cx="680.8" cy="229.7" r="3" fill="#4e79a7"/><circle cx="686.2" cy="225.0" r="3" fill="#4e79a7"/><circle cx="691.6" cy="227.4" r="3" fill="#4e79a7"/><circle cx="697.0" cy="225.0" r="3" fill="#4e79a7"/><circle cx="702.4" cy="227.4" r="3" fill="#4e79a7"/><circle cx="707.9" cy="229.7" r="3" fill="#4e79a7"/><circle cx="713.3" cy="232.0" r="3" fill="#4e79a7"/><circle cx="718.7" cy="232.0" r="3" fill="#4e79a7"/><circle cx="724.1" cy="232.0" r="3" fill="#4e79a7"/><circle cx="729.5" cy="229.7" r="3" fill="#4e79a7"/><circle cx="735.0" cy="232.0" r="3" fill="#4e79a7"/><circle cx="740.4" cy="229.7" r="3" fill="#4e79a7"/><circle cx="745.8" cy="204.2" r="3" fill="#4e79a7"/><circle cx="751.2" cy="232.0" r="3" fill="#4e79a7"/><circle cx="756.6" cy="229.7" r="3" fill="#4e79a7"/><circle cx="762.1" cy="229.7" r="3" fill="#4e79a7"/><circle cx="767.5" cy="232.0" r="3" fill="#4e79a7"/><circle cx="772.9" cy="232.0" r="3" fill="#4e79a7"/><circle cx="778.3" cy="232.0" r="3" fill="#4e79a7"/><circle cx="783.7" cy="229.7" r="3" fill="#4e79a7"/><circle cx="789.2" cy="225.0" r="3" fill="#4e79a7"/><circle cx="794.6" cy="232.0" r="3" fill="#4e79a7"/><circle cx="800.0" cy="232.0" r="3" fill="#4e79a7"/>
  <circle cx="52.0" cy="232.0" r="3" fill="#f28e2b"/><circle cx="57.4" cy="229.7" r="3" fill="#f28e2b"/><circle cx="62.8" cy="227.4" r="3" fill="#f28e2b"/><circle cx="68.3" cy="232.0" r="3" fill="#f28e2b"/><circle cx="73.7" cy="232.0" r="3" fill="#f28e2b"/><circle cx="79.1" cy="227.4" r="3" fill="#f28e2b"/><circle cx="84.5" cy="232.0" r="3" fill="#f28e2b"/><circle cx="89.9" cy="227.4" r="3" fill="#f28e2b"/><circle cx="95.4" cy="232.0" r="3" fill="#f28e2b"/><circle cx="100.8" cy="229.7" r="3" fill="#f28e2b"/><circle cx="106.2" cy="232.0" r="3" fill="#f28e2b"/><circle cx="111.6" cy="213.5" r="3" fill="#f28e2b"/><circle cx="117.0" cy="225.0" r="3" fill="#f28e2b"/><circle cx="122.5" cy="232.0" r="3" fill="#f28e2b"/><circle cx="127.9" cy="232.0" r="3" fill="#f28e2b"/><circle cx="133.3" cy="232.0" r="3" fill="#f28e2b"/><circle cx="138.7" cy="225.0" r="3" fill="#f28e2b"/><circle cx="144.1" cy="229.7" r="3" fill="#f28e2b"/><circle cx="149.6" cy="229.7" r="3" fill="#f28e2b"/><circle cx="155.0" cy="229.7" r="3" fill="#f28e2b"/><circle cx="160.4" cy="229.7" r="3" fill="#f28e2b"/><circle cx="165.8" cy="232.0" r="3" fill="#f28e2b"/><circle cx="171.2" cy="232.0" r="3" fill="#f28e2b"/><circle cx="176.7" cy="232.0" r="3" fill="#f28e2b"/><circle cx="182.1" cy="232.0" r="3" fill="#f28e2b"/><circle cx="187.5" cy="225.0" r="3" fill="#f28e2b"/><circle cx="192.9" cy="229.7" r="3" fill="#f28e2b"/><circle cx="198.3" cy="232.0" r="3" fill="#f28e2b"/><circle cx="203.8" cy="232.0" r="3" fill="#f28e2b"/><circle cx="209.2" cy="229.7" r="3" fill="#f28e2b"/><circle cx="214.6" cy="229.7" r="3" fill="#f28e2b"/><circle cx="220.0" cy="232.0" r="3" fill="#f28e2b"/><circle cx="225.4" cy="232.0" r="3" fill="#f28e2b"/><circle cx="230.9" cy="232.0" r="3" fill="#f28e2b"/><circle cx="236.3" cy="229.7" r="3" fill="#f28e2b"/><circle cx="241.7" cy="229.7" r="3" fill="#f28e2b"/><circle cx="247.1" cy="232.0" r="3" fill="#f28e2b"/><circle cx="252.6" cy="232.0" r="3" fill="#f28e2b"/><circle cx="258.0" cy="222.7" r="3" fill="#f28e2b"/><circle cx="263.4" cy="225.0" r="3" fill="#f28e2b"/><circle cx="268.8" cy="227.4" r="3" fill="#f28e2b"/><circle cx="274.2" cy="232.0" r="3" fill="#f28e2b"/><circle cx="279.7" cy="229.7" r="3" fill="#f28e2b"/><circle cx="285.1" cy="227.4" r="3" fill="#f28e2b"/><circle cx="290.5" cy="215.8" r="3" fill="#f28e2b"/><circle cx="295.9" cy="232.0" r="3" fill="#f28e2b"/><circle cx="301.3" cy="232.0" r="3" fill="#f28e2b"/><circle cx="306.8" cy="232.0" r="3" fill="#f28e2b"/><circle cx="312.2" cy="232.0" r="3" fill="#f28e2b"/><circle cx="317.6" cy="232.0" r="3" fill="#f28e2b"/><circle cx="323.0" cy="232.0" r="3" fill="#f28e2b"/><circle cx="328.4" cy="232.0" r="3" fill="#f28e2b"/><circle cx="333.9" cy="232.0" r="3" fill="#f28e2b"/><circle cx="339.3" cy="232.0" r="3" fill="#f28e2b"/><circle cx="344.7" cy="229.7" r="3" fill="#f28e2b"/><circle cx="350.1" cy="229.7" r="3" fill="#f28e2b"/><circle cx="355.5" cy="232.0" r="3" fill="#f28e2b"/><circle cx="361.0" cy="229.7" r="3" fill="#f28e2b"/><circle cx="366.4" cy="232.0" r="3" fill="#f28e2b"/><circle cx="371.8" cy="232.0" r="3" fill="#f28e2b"/><circle cx="377.2" cy="232.0" r="3" fill="#f28e2b"/><circle cx="382.6" cy="232.0" r="3" fill="#f28e2b"/><circle cx="388.1" cy="227.4" r="3" fill="#f28e2b"/><circle cx="393.5" cy="232.0" r="3" fill="#f28e2b"/><circle cx="398.9" cy="232.0" r="3" fill="#f28e2b"/><circle cx="404.3" cy="232.0" r="3" fill="#f28e2b"/><circle cx="409.7" cy="232.0" r="3" fill="#f28e2b"/><circle cx="415.2" cy="232.0" r="3" fill="#f28e2b"/><circle cx="420.6" cy="229.7" r="3" fill="#f28e2b"/><circle cx="426.0" cy="232.0" r="3" fill="#f28e2b"/><circle cx="431.4" cy="232.0" r="3" fill="#f28e2b"/><circle cx="436.8" cy="229.7" r="3" fill="#f28e2b"/><circle cx="442.3" cy="229.7" r="3" fill="#f28e2b"/><circle cx="447.7" cy="232.0" r="3" fill="#f28e2b"/><circle cx="453.1" cy="232.0" r="3" fill="#f28e2b"/><circle cx="458.5" cy="232.0" r="3" fill="#f28e2b"/><circle cx="463.9" cy="232.0" r="3" fill="#f28e2b"/><circle cx="469.4" cy="232.0" r="3" fill="#f28e2b"/><circle cx="474.8" cy="232.0" r="3" fill="#f28e2b"/><circle cx="480.2" cy="232.0" r="3" fill="#f28e2b"/><circle cx="485.6" cy="232.0" r="3" fill="#f28e2b"/><circle cx="491.0" cy="229.7" r="3" fill="#f28e2b"/><circle cx="496.5" cy="229.7" r="3" fill="#f28e2b"/><circle cx="501.9" cy="232.0" r="3" fill="#f28e2b"/><circle cx="507.3" cy="232.0" r="3" fill="#f28e2b"/><circle cx="512.7" cy="232.0" r="3" fill="#f28e2b"/><circle cx="518.1" cy="232.0" r="3" fill="#f28e2b"/><circle cx="523.6" cy="227.4" r="3" fill="#f28e2b"/><circle cx="529.0" cy="229.7" r="3" fill="#f28e2b"/><circle cx="534.4" cy="232.0" r="3" fill="#f28e2b"/><circle cx="539.8" cy="232.0" r="3" fill="#f28e2b"/><circle cx="545.2" cy="232.0" r="3" fill="#f28e2b"/><circle cx="550.7" cy="232.0" r="3" fill="#f28e2b"/><circle cx="556.1" cy="232.0" r="3" fill="#f28e2b"/><circle cx="561.5" cy="229.7" r="3" fill="#f28e2b"/><circle cx="566.9" cy="232.0" r="3" fill="#f28e2b"/><circle cx="572.3" cy="232.0" r="3" fill="#f28e2b"/><circle cx="577.8" cy="232.0" r="3" fill="#f28e2b"/><circle cx="583.2" cy="232.0" r="3" fill="#f28e2b"/><circle cx="588.6" cy="232.0" r="3" fill="#f28e2b"/><circle cx="594.0" cy="232.0" r="3" fill="#f28e2b"/><circle cx="599.4" cy="232.0" r="3" fill="#f28e2b"/><circle cx="604.9" cy="232.0" r="3" fill="#f28e2b"/><circle cx="610.3" cy="232.0" r="3" fill="#f28e2b"/><circle cx="615.7" cy="229.7" r="3" fill="#f28e2b"/><circle cx="621.1" cy="232.0" r="3" fill="#f28e2b"/><circle cx="626.6" cy="229.7" r="3" fill="#f28e2b"/><circle cx="632.0" cy="232.0" r="3" fill="#f28e2b"/><circle cx="637.4" cy="225.0" r="3" fill="#f28e2b"/><circle cx="642.8" cy="188.0" r="3" fill="#f28e2b"/><circle cx="648.2" cy="215.8" r="3" fill="#f28e2b"/><circle cx="653.7" cy="213.5" r="3" fill="#f28e2b"/><circle cx="659.1" cy="229.7" r="3" fill="#f28e2b"/><circle cx="664.5" cy="225.0" r="3" fill="#f28e2b"/><circle cx="669.9" cy="232.0" r="3" fill="#f28e2b"/><circle cx="675.3" cy="232.0" r="3" fill="#f28e2b"/><circle cx="680.8" cy="229.7" r="3" fill="#f28e2b"/><circle cx="686.2" cy="225.0" r="3" fill="#f28e2b"/><circle cx="691.6" cy="227.4" r="3" fill="#f28e2b"/><circle cx="697.0" cy="225.0" r="3" fill="#f28e2b"/><circle cx="702.4" cy="227.4" r="3" fill="#f28e2b"/><circle cx="707.9" cy="229.7" r="3" fill="#f28e2b"/><circle cx="713.3" cy="232.0" r="3" fill="#f28e2b"/><circle cx="718.7" cy="232.0" r="3" fill="#f28e2b"/><circle cx="724.1" cy="232.0" r="3" fill="#f28e2b"/><circle cx="729.5" cy="229.7" r="3" fill="#f28e2b"/><circle cx="735.0" cy="232.0" r="3" fill="#f28e2b"/><circle cx="740.4" cy="229.7" r="3" fill="#f28e2b"/><circle cx="745.8" cy="220.4" r="3" fill="#f28e2b"/><circle cx="751.2" cy="232.0" r="3" fill="#f28e2b"/><circle cx="756.6" cy="229.7" r="3" fill="#f28e2b"/><circle cx="762.1" cy="229.7" r="3" fill="#f28e2b"/><circle cx="767.5" cy="232.0" r="3" fill="#f28e2b"/><circle cx="772.9" cy="232.0" r="3" fill="#f28e2b"/><circle cx="778.3" cy="232.0" r="3" fill="#f28e2b"/><circle cx="783.7" cy="229.7" r="3" fill="#f28e2b"/><circle cx="789.2" cy="225.0" r="3" fill="#f28e2b"/><circle cx="794.6" cy="232.0" r="3" fill="#f28e2b"/><circle cx="800.0" cy="232.0" r="3" fill="#f28e2b"/>

  <!-- axes -->
  <line x1="52" y1="28" x2="52" y2="232"
        stroke="#cccccc" stroke-width="1"/>
  <line x1="52" y1="232" x2="800" y2="232"
        stroke="#cccccc" stroke-width="1"/>

  <!-- y-axis labels -->
  <text x="47" y="236.0" text-anchor="end" font-size="10" fill="#57606a" font-family="ui-monospace, SFMono-Regular, 'SF Mono', Menlo, monospace">0</text><text x="47" y="189.6" text-anchor="end" font-size="10" fill="#57606a" font-family="ui-monospace, SFMono-Regular, 'SF Mono', Menlo, monospace">20</text><text x="47" y="143.3" text-anchor="end" font-size="10" fill="#57606a" font-family="ui-monospace, SFMono-Regular, 'SF Mono', Menlo, monospace">40</text><text x="47" y="96.9" text-anchor="end" font-size="10" fill="#57606a" font-family="ui-monospace, SFMono-Regular, 'SF Mono', Menlo, monospace">60</text><text x="47" y="50.5" text-anchor="end" font-size="10" fill="#57606a" font-family="ui-monospace, SFMono-Regular, 'SF Mono', Menlo, monospace">80</text><text x="47" y="4.2" text-anchor="end" font-size="10" fill="#57606a" font-family="ui-monospace, SFMono-Regular, 'SF Mono', Menlo, monospace">100</text>

  <!-- x-axis labels -->
  <text x="52.0" y="248" text-anchor="middle" font-size="10" fill="#8c959f" font-family="ui-monospace, SFMono-Regular, 'SF Mono', Menlo, monospace">05-11</text><text x="236.3" y="248" text-anchor="middle" font-size="10" fill="#8c959f" font-family="ui-monospace, SFMono-Regular, 'SF Mono', Menlo, monospace">06-14</text><text x="420.6" y="248" text-anchor="middle" font-size="10" fill="#8c959f" font-family="ui-monospace, SFMono-Regular, 'SF Mono', Menlo, monospace">07-18</text><text x="604.9" y="248" text-anchor="middle" font-size="10" fill="#8c959f" font-family="ui-monospace, SFMono-Regular, 'SF Mono', Menlo, monospace">08-26</text><text x="789.2" y="248" text-anchor="middle" font-size="10" fill="#8c959f" font-family="ui-monospace, SFMono-Regular, 'SF Mono', Menlo, monospace">09-29</text><text x="800.0" y="248" text-anchor="middle" font-size="10" fill="#8c959f" font-family="ui-monospace, SFMono-Regular, 'SF Mono', Menlo, monospace">10-01</text><text x="144.1" y="248" text-anchor="middle" font-size="10" fill="#8c959f" font-family="ui-monospace, SFMono-Regular, 'SF Mono', Menlo, monospace">05-28</text><text x="328.4" y="248" text-anchor="middle" font-size="10" fill="#8c959f" font-family="ui-monospace, SFMono-Regular, 'SF Mono', Menlo, monospace">07-01</text><text x="512.7" y="248" text-anchor="middle" font-size="10" fill="#8c959f" font-family="ui-monospace, SFMono-Regular, 'SF Mono', Menlo, monospace">08-04</text><text x="697.0" y="248" text-anchor="middle" font-size="10" fill="#8c959f" font-family="ui-monospace, SFMono-Regular, 'SF Mono', Menlo, monospace">09-12</text>

  <!-- legend -->
  <rect x="60" y="262" width="16" height="3" fill="#4e79a7" rx="1"/><text x="80" y="268" font-size="11" fill="#57606a" font-family="-apple-system, BlinkMacSystemFont, 'Segoe UI', sans-serif">Total clones (293)</text><line x1="230" y1="264" x2="246" y2="264" stroke="#f28e2b" stroke-width="2" stroke-dasharray="5,3"/><text x="250" y="268" font-size="11" fill="#57606a" font-family="-apple-system, BlinkMacSystemFont, 'Segoe UI', sans-serif">Unique cloners</text>

</svg>