<svg xmlns="http://www.w3.org/2000/svg" viewBox="0 0 820 280" width="820" height="280">

  <!-- title -->
  <text x="52" y="18" font-size="13" font-weight="600"
        fill="#24292f" font-family="-apple-system, BlinkMacSystemFont, 'Segoe UI', sans-serif"
        >Clone traffic — nr-enrich-core</text>
  <text x="800" y="18" font-size="10" fill="#8c959f"
        font-family="ui-monospace, SFMono-Regular, 'SF Mono', Menlo, monospace" text-anchor="end">2026-07-15</text>

  <!-- grid -->
  <line x1="52" y1="232.0" x2="800" y2="232.0" stroke="#e8e8e8" stroke-width="1"/><line x1="52" y1="190.3" x2="800" y2="190.3" stroke="#e8e8e8" stroke-width="1"/><line x1="52" y1="148.5" x2="800" y2="148.5" stroke="#e8e8e8" stroke-width="1"/><line x1="52" y1="106.8" x2="800" y2="106.8" stroke="#e8e8e8" stroke-width="1"/><line x1="52" y1="65.1" x2="800" y2="65.1" stroke="#e8e8e8" stroke-width="1"/><line x1="52" y1="23.4" x2="800" y2="23.4" stroke="#e8e8e8" stroke-width="1"/>

  <!-- area fill -->
  <path d="M52.0,232.0 L52.0,232.0 L63.9,227.4 L75.7,222.7 L87.6,232.0 L99.5,232.0 L111.4,222.7 L123.2,232.0 L135.1,222.7 L147.0,232.0 L158.9,227.4 L170.7,232.0 L182.6,176.4 L194.5,218.1 L206.3,232.0 L218.2,232.0 L230.1,232.0 L242.0,208.8 L253.8,218.1 L265.7,227.4 L277.6,227.4 L289.5,227.4 L301.3,232.0 L313.2,232.0 L325.1,232.0 L337.0,232.0 L348.8,218.1 L360.7,227.4 L372.6,232.0 L384.4,232.0 L396.3,227.4 L408.2,227.4 L420.1,232.0 L431.9,232.0 L443.8,232.0 L455.7,227.4 L467.6,227.4 L479.4,232.0 L491.3,232.0 L503.2,190.3 L515.0,204.2 L526.9,222.7 L538.8,232.0 L550.7,227.4 L562.5,194.9 L574.4,28.0 L586.3,232.0 L598.2,232.0 L610.0,232.0 L621.9,232.0 L633.8,232.0 L645.7,232.0 L657.5,232.0 L669.4,232.0 L681.3,232.0 L693.1,222.7 L705.0,227.4 L716.9,232.0 L728.8,185.6 L740.6,232.0 L752.5,232.0 L764.4,232.0 L776.3,232.0 L788.1,222.7 L800.0,232.0 L800.0,232.0 L52.0,232.0Z" fill="#4e79a7" opacity="0.12"/>

  <!-- lines -->
  <polyline points="52.0,232.0 63.9,227.4 75.7,222.7 87.6,232.0 99.5,232.0 111.4,222.7 123.2,232.0 135.1,222.7 147.0,232.0 158.9,227.4 170.7,232.0 182.6,176.4 194.5,218.1 206.3,232.0 218.2,232.0 230.1,232.0 242.0,208.8 253.8,218.1 265.7,227.4 277.6,227.4 289.5,227.4 301.3,232.0 313.2,232.0 325.1,232.0 337.0,232.0 348.8,218.1 360.7,227.4 372.6,232.0 384.4,232.0 396.3,227.4 408.2,227.4 420.1,232.0 431.9,232.0 443.8,232.0 455.7,227.4 467.6,227.4 479.4,232.0 491.3,232.0 503.2,190.3 515.0,204.2 526.9,222.7 538.8,232.0 550.7,227.4 562.5,194.9 574.4,28.0 586.3,232.0 598.2,232.0 610.0,232.0 621.9,232.0 633.8,232.0 645.7,232.0 657.5,232.0 669.4,232.0 681.3,232.0 693.1,222.7 705.0,227.4 716.9,232.0 728.8,185.6 740.6,232.0 752.5,232.0 764.4,232.0 776.3,232.0 788.1,222.7 800.0,232.0"
            fill="none" stroke="#4e79a7"
            stroke-width="2" stroke-linejoin="round"/>
  <polyline points="52.0,232.0 63.9,227.4 75.7,222.7 87.6,232.0 99.5,232.0 111.4,222.7 123.2,232.0 135.1,222.7 147.0,232.0 158.9,227.4 170.7,232.0 182.6,194.9 194.5,218.1 206.3,232.0 218.2,232.0 230.1,232.0 242.0,218.1 253.8,227.4 265.7,227.4 277.6,227.4 289.5,227.4 301.3,232.0 313.2,232.0 325.1,232.0 337.0,232.0 348.8,218.1 360.7,227.4 372.6,232.0 384.4,232.0 396.3,227.4 408.2,227.4 420.1,232.0 431.9,232.0 443.8,232.0 455.7,227.4 467.6,227.4 479.4,232.0 491.3,232.0 503.2,213.5 515.0,218.1 526.9,222.7 538.8,232.0 550.7,227.4 562.5,222.7 574.4,199.5 586.3,232.0 598.2,232.0 610.0,232.0 621.9,232.0 633.8,232.0 645.7,232.0 657.5,232.0 669.4,232.0 681.3,232.0 693.1,227.4 705.0,227.4 716.9,232.0 728.8,227.4 740.6,232.0 752.5,232.0 764.4,232.0 776.3,232.0 788.1,222.7 800.0,232.0"
            fill="none" stroke="#f28e2b"
            stroke-width="2" stroke-linejoin="round"
            stroke-dasharray="5,3"/>

  <!-- dots -->
  <circle cx="52.0" cy="232.0" r="3" fill="#4e79a7"/><circle cx="63.9" cy="227.4" r="3" fill="#4e79a7"/><circle cx="75.7" cy="222.7" r="3" fill="#4e79a7"/><circle cx="87.6" cy="232.0" r="3" fill="#4e79a7"/><circle cx="99.5" cy="232.0" r="3" fill="#4e79a7"/><circle cx="111.4" cy="222.7" r="3" fill="#4e79a7"/><circle cx="123.2" cy="232.0" r="3" fill="#4e79a7"/><circle cx="135.1" cy="222.7" r="3" fill="#4e79a7"/><circle cx="147.0" cy="232.0" r="3" fill="#4e79a7"/><circle cx="158.9" cy="227.4" r="3" fill="#4e79a7"/><circle cx="170.7" cy="232.0" r="3" fill="#4e79a7"/><circle cx="182.6" cy="176.4" r="3" fill="#4e79a7"/><circle cx="194.5" cy="218.1" r="3" fill="#4e79a7"/><circle cx="206.3" cy="232.0" r="3" fill="#4e79a7"/><circle cx="218.2" cy="232.0" r="3" fill="#4e79a7"/><circle cx="230.1" cy="232.0" r="3" fill="#4e79a7"/><circle cx="242.0" cy="208.8" r="3" fill="#4e79a7"/><circle cx="253.8" cy="218.1" r="3" fill="#4e79a7"/><circle cx="265.7" cy="227.4" r="3" fill="#4e79a7"/><circle cx="277.6" cy="227.4" r="3" fill="#4e79a7"/><circle cx="289.5" cy="227.4" r="3" fill="#4e79a7"/><circle cx="301.3" cy="232.0" r="3" fill="#4e79a7"/><circle cx="313.2" cy="232.0" r="3" fill="#4e79a7"/><circle cx="325.1" cy="232.0" r="3" fill="#4e79a7"/><circle cx="337.0" cy="232.0" r="3" fill="#4e79a7"/><circle cx="348.8" cy="218.1" r="3" fill="#4e79a7"/><circle cx="360.7" cy="227.4" r="3" fill="#4e79a7"/><circle cx="372.6" cy="232.0" r="3" fill="#4e79a7"/><circle cx="384.4" cy="232.0" r="3" fill="#4e79a7"/><circle cx="396.3" cy="227.4" r="3" fill="#4e79a7"/><circle cx="408.2" cy="227.4" r="3" fill="#4e79a7"/><circle cx="420.1" cy="232.0" r="3" fill="#4e79a7"/><circle cx="431.9" cy="232.0" r="3" fill="#4e79a7"/><circle cx="443.8" cy="232.0" r="3" fill="#4e79a7"/><circle cx="455.7" cy="227.4" r="3" fill="#4e79a7"/><circle cx="467.6" cy="227.4" r="3" fill="#4e79a7"/><circle cx="479.4" cy="232.0" r="3" fill="#4e79a7"/><circle cx="491.3" cy="232.0" r="3" fill="#4e79a7"/><circle cx="503.2" cy="190.3" r="3" fill="#4e79a7"/><circle cx="515.0" cy="204.2" r="3" fill="#4e79a7"/><circle cx="526.9" cy="222.7" r="3" fill="#4e79a7"/><circle cx="538.8" cy="232.0" r="3" fill="#4e79a7"/><circle cx="550.7" cy="227.4" r="3" fill="#4e79a7"/><circle cx="562.5" cy="194.9" r="3" fill="#4e79a7"/><circle cx="574.4" cy="28.0" r="3" fill="#4e79a7"/><circle cx="586.3" cy="232.0" r="3" fill="#4e79a7"/><circle cx="598.2" cy="232.0" r="3" fill="#4e79a7"/><circle cx="610.0" cy="232.0" r="3" fill="#4e79a7"/><circle cx="621.9" cy="232.0" r="3" fill="#4e79a7"/><circle cx="633.8" cy="232.0" r="3" fill="#4e79a7"/><circle cx="645.7" cy="232.0" r="3" fill="#4e79a7"/><circle cx="657.5" cy="232.0" r="3" fill="#4e79a7"/><circle cx="669.4" cy="232.0" r="3" fill="#4e79a7"/><circle cx="681.3" cy="232.0" r="3" fill="#4e79a7"/><circle cx="693.1" cy="222.7" r="3" fill="#4e79a7"/><circle cx="705.0" cy="227.4" r="3" fill="#4e79a7"/><circle cx="716.9" cy="232.0" r="3" fill="#4e79a7"/><circle cx="728.8" cy="185.6" r="3" fill="#4e79a7"/><circle cx="740.6" cy="232.0" r="3" fill="#4e79a7"/><circle cx="752.5" cy="232.0" r="3" fill="#4e79a7"/><circle cx="764.4" cy="232.0" r="3" fill="#4e79a7"/><circle cx="776.3" cy="232.0" r="3" fill="#4e79a7"/><circle cx="788.1" cy="222.7" r="3" fill="#4e79a7"/><circle cx="800.0" cy="232.0" r="3" fill="#4e79a7"/>
  <circle cx="52.0" cy="232.0" r="3" fill="#f28e2b"/><circle cx="63.9" cy="227.4" r="3" fill="#f28e2b"/><circle cx="75.7" cy="222.7" r="3" fill="#f28e2b"/><circle cx="87.6" cy="232.0" r="3" fill="#f28e2b"/><circle cx="99.5" cy="232.0" r="3" fill="#f28e2b"/><circle cx="111.4" cy="222.7" r="3" fill="#f28e2b"/><circle cx="123.2" cy="232.0" r="3" fill="#f28e2b"/><circle cx="135.1" cy="222.7" r="3" fill="#f28e2b"/><circle cx="147.0" cy="232.0" r="3" fill="#f28e2b"/><circle cx="158.9" cy="227.4" r="3" fill="#f28e2b"/><circle cx="170.7" cy="232.0" r="3" fill="#f28e2b"/><circle cx="182.6" cy="194.9" r="3" fill="#f28e2b"/><circle cx="194.5" cy="218.1" r="3" fill="#f28e2b"/><circle cx="206.3" cy="232.0" r="3" fill="#f28e2b"/><circle cx="218.2" cy="232.0" r="3" fill="#f28e2b"/><circle cx="230.1" cy="232.0" r="3" fill="#f28e2b"/><circle cx="242.0" cy="218.1" r="3" fill="#f28e2b"/><circle cx="253.8" cy="227.4" r="3" fill="#f28e2b"/><circle cx="265.7" cy="227.4" r="3" fill="#f28e2b"/><circle cx="277.6" cy="227.4" r="3" fill="#f28e2b"/><circle cx="289.5" cy="227.4" r="3" fill="#f28e2b"/><circle cx="301.3" cy="232.0" r="3" fill="#f28e2b"/><circle cx="313.2" cy="232.0" r="3" fill="#f28e2b"/><circle cx="325.1" cy="232.0" r="3" fill="#f28e2b"/><circle cx="337.0" cy="232.0" r="3" fill="#f28e2b"/><circle cx="348.8" cy="218.1" r="3" fill="#f28e2b"/><circle cx="360.7" cy="227.4" r="3" fill="#f28e2b"/><circle cx="372.6" cy="232.0" r="3" fill="#f28e2b"/><circle cx="384.4" cy="232.0" r="3" fill="#f28e2b"/><circle cx="396.3" cy="227.4" r="3" fill="#f28e2b"/><circle cx="408.2" cy="227.4" r="3" fill="#f28e2b"/><circle cx="420.1" cy="232.0" r="3" fill="#f28e2b"/><circle cx="431.9" cy="232.0" r="3" fill="#f28e2b"/><circle cx="443.8" cy="232.0" r="3" fill="#f28e2b"/><circle cx="455.7" cy="227.4" r="3" fill="#f28e2b"/><circle cx="467.6" cy="227.4" r="3" fill="#f28e2b"/><circle cx="479.4" cy="232.0" r="3" fill="#f28e2b"/><circle cx="491.3" cy="232.0" r="3" fill="#f28e2b"/><circle cx="503.2" cy="213.5" r="3" fill="#f28e2b"/><circle cx="515.0" cy="218.1" r="3" fill="#f28e2b"/><circle cx="526.9" cy="222.7" r="3" fill="#f28e2b"/><circle cx="538.8" cy="232.0" r="3" fill="#f28e2b"/><circle cx="550.7" cy="227.4" r="3" fill="#f28e2b"/><circle cx="562.5" cy="222.7" r="3" fill="#f28e2b"/><circle cx="574.4" cy="199.5" r="3" fill="#f28e2b"/><circle cx="586.3" cy="232.0" r="3" fill="#f28e2b"/><circle cx="598.2" cy="232.0" r="3" fill="#f28e2b"/><circle cx="610.0" cy="232.0" r="3" fill="#f28e2b"/><circle cx="621.9" cy="232.0" r="3" fill="#f28e2b"/><circle cx="633.8" cy="232.0" r="3" fill="#f28e2b"/><circle cx="645.7" cy="232.0" r="3" fill="#f28e2b"/><circle cx="657.5" cy="232.0" r="3" fill="#f28e2b"/><circle cx="669.4" cy="232.0" r="3" fill="#f28e2b"/><circle cx="681.3" cy="232.0" r="3" fill="#f28e2b"/><circle cx="693.1" cy="227.4" r="3" fill="#f28e2b"/><circle cx="705.0" cy="227.4" r="3" fill="#f28e2b"/><circle cx="716.9" cy="232.0" r="3" fill="#f28e2b"/><circle cx="728.8" cy="227.4" r="3" fill="#f28e2b"/><circle cx="740.6" cy="232.0" r="3" fill="#f28e2b"/><circle cx="752.5" cy="232.0" r="3" fill="#f28e2b"/><circle cx="764.4" cy="232.0" r="3" fill="#f28e2b"/><circle cx="776.3" cy="232.0" r="3" fill="#f28e2b"/><circle cx="788.1" cy="222.7" r="3" fill="#f28e2b"/><circle cx="800.0" cy="232.0" r="3" fill="#f28e2b"/>

  <!-- axes -->
  <line x1="52" y1="28" x2="52" y2="232"
        stroke="#cccccc" stroke-width="1"/>
  <line x1="52" y1="232" x2="800" y2="232"
        stroke="#cccccc" stroke-width="1"/>

  <!-- y-axis labels -->
  <text x="47" y="236.0" text-anchor="end" font-size="10" fill="#57606a" font-family="ui-monospace, SFMono-Regular, 'SF Mono', Menlo, monospace">0</text><text x="47" y="194.3" text-anchor="end" font-size="10" fill="#57606a" font-family="ui-monospace, SFMono-Regular, 'SF Mono', Menlo, monospace">9</text><text x="47" y="152.5" text-anchor="end" font-size="10" fill="#57606a" font-family="ui-monospace, SFMono-Regular, 'SF Mono', Menlo, monospace">18</text><text x="47" y="110.8" text-anchor="end" font-size="10" fill="#57606a" font-family="ui-monospace, SFMono-Regular, 'SF Mono', Menlo, monospace">27</text><text x="47" y="69.1" text-anchor="end" font-size="10" fill="#57606a" font-family="ui-monospace, SFMono-Regular, 'SF Mono', Menlo, monospace">36</text><text x="47" y="27.4" text-anchor="end" font-size="10" fill="#57606a" font-family="ui-monospace, SFMono-Regular, 'SF Mono', Menlo, monospace">45</text>

  <!-- x-axis labels -->
  <text x="52.0" y="248" text-anchor="middle" font-size="10" fill="#8c959f" font-family="ui-monospace, SFMono-Regular, 'SF Mono', Menlo, monospace">05-11</text><text x="431.9" y="248" text-anchor="middle" font-size="10" fill="#8c959f" font-family="ui-monospace, SFMono-Regular, 'SF Mono', Menlo, monospace">06-12</text><text x="147.0" y="248" text-anchor="middle" font-size="10" fill="#8c959f" font-family="ui-monospace, SFMono-Regular, 'SF Mono', Menlo, monospace">05-19</text><text x="526.9" y="248" text-anchor="middle" font-size="10" fill="#8c959f" font-family="ui-monospace, SFMono-Regular, 'SF Mono', Menlo, monospace">06-20</text><text x="242.0" y="248" text-anchor="middle" font-size="10" fill="#8c959f" font-family="ui-monospace, SFMono-Regular, 'SF Mono', Menlo, monospace">05-27</text><text x="621.9" y="248" text-anchor="middle" font-size="10" fill="#8c959f" font-family="ui-monospace, SFMono-Regular, 'SF Mono', Menlo, monospace">06-28</text><text x="337.0" y="248" text-anchor="middle" font-size="10" fill="#8c959f" font-family="ui-monospace, SFMono-Regular, 'SF Mono', Menlo, monospace">06-04</text><text x="716.9" y="248" text-anchor="middle" font-size="10" fill="#8c959f" font-family="ui-monospace, SFMono-Regular, 'SF Mono', Menlo, monospace">07-06</text><text x="800.0" y="248" text-anchor="middle" font-size="10" fill="#8c959f" font-family="ui-monospace, SFMono-Regular, 'SF Mono', Menlo, monospace">07-13</text>

  <!-- legend -->
  <rect x="60" y="262" width="16" height="3" fill="#4e79a7" rx="1"/><text x="80" y="268" font-size="11" fill="#57606a" font-family="-apple-system, BlinkMacSystemFont, 'Segoe UI', sans-serif">Total clones (127)</text><line x1="230" y1="264" x2="246" y2="264" stroke="#f28e2b" stroke-width="2" stroke-dasharray="5,3"/><text x="250" y="268" font-size="11" fill="#57606a" font-family="-apple-system, BlinkMacSystemFont, 'Segoe UI', sans-serif">Unique cloners</text>

</svg>