<svg xmlns="http://www.w3.org/2000/svg" viewBox="0 0 820 280" width="820" height="280">

  <!-- title -->
  <text x="52" y="18" font-size="13" font-weight="600"
        fill="#24292f" font-family="-apple-system, BlinkMacSystemFont, 'Segoe UI', sans-serif"
        >Clone traffic — orthodox-calendar</text>
  <text x="800" y="18" font-size="10" fill="#8c959f"
        font-family="ui-monospace, SFMono-Regular, 'SF Mono', Menlo, monospace" text-anchor="end">2026-06-07</text>

  <!-- grid -->
  <line x1="52" y1="232.0" x2="800" y2="232.0" stroke="#e8e8e8" stroke-width="1"/><line x1="52" y1="184.9" x2="800" y2="184.9" stroke="#e8e8e8" stroke-width="1"/><line x1="52" y1="137.8" x2="800" y2="137.8" stroke="#e8e8e8" stroke-width="1"/><line x1="52" y1="90.7" x2="800" y2="90.7" stroke="#e8e8e8" stroke-width="1"/><line x1="52" y1="43.5" x2="800" y2="43.5" stroke="#e8e8e8" stroke-width="1"/><line x1="52" y1="-3.6" x2="800" y2="-3.6" stroke="#e8e8e8" stroke-width="1"/>

  <!-- area fill -->
  <path d="M52.0,226.8 L52.0,226.8 L81.9,169.6 L111.8,178.5 L141.8,28.0 L171.7,118.7 L201.6,163.5 L231.5,216.5 L261.4,76.5 L291.4,150.7 L321.3,213.2 L351.2,201.1 L381.1,194.8 L411.0,160.4 L441.0,208.0 L470.9,214.8 L500.8,217.4 L530.7,231.5 L560.6,231.5 L590.6,224.7 L620.5,213.9 L650.4,230.6 L680.3,231.3 L710.2,231.5 L740.2,232.0 L770.1,231.5 L800.0,231.1 L800.0,232.0 L52.0,232.0Z" fill="#4e79a7" opacity="0.12"/>

  <!-- lines -->
  <polyline points="52.0,226.8 81.9,169.6 111.8,178.5 141.8,28.0 171.7,118.7 201.6,163.5 231.5,216.5 261.4,76.5 291.4,150.7 321.3,213.2 351.2,201.1 381.1,194.8 411.0,160.4 441.0,208.0 470.9,214.8 500.8,217.4 530.7,231.5 560.6,231.5 590.6,224.7 620.5,213.9 650.4,230.6 680.3,231.3 710.2,231.5 740.2,232.0 770.1,231.5 800.0,231.1"
            fill="none" stroke="#4e79a7"
            stroke-width="2" stroke-linejoin="round"/>
  <polyline points="52.0,229.4 81.9,202.8 111.8,209.6 141.8,170.0 171.7,193.1 201.6,207.5 231.5,224.9 261.4,188.4 291.4,208.2 321.3,224.9 351.2,223.8 381.1,222.3 411.0,212.7 441.0,225.2 470.9,229.4 500.8,228.2 530.7,231.5 560.6,231.5 590.6,229.4 620.5,226.8 650.4,230.8 680.3,231.5 710.2,231.8 740.2,232.0 770.1,231.8 800.0,231.3"
            fill="none" stroke="#f28e2b"
            stroke-width="2" stroke-linejoin="round"
            stroke-dasharray="5,3"/>

  <!-- dots -->
  <circle cx="52.0" cy="226.8" r="3" fill="#4e79a7"/><circle cx="81.9" cy="169.6" r="3" fill="#4e79a7"/><circle cx="111.8" cy="178.5" r="3" fill="#4e79a7"/><circle cx="141.8" cy="28.0" r="3" fill="#4e79a7"/><circle cx="171.7" cy="118.7" r="3" fill="#4e79a7"/><circle cx="201.6" cy="163.5" r="3" fill="#4e79a7"/><circle cx="231.5" cy="216.5" r="3" fill="#4e79a7"/><circle cx="261.4" cy="76.5" r="3" fill="#4e79a7"/><circle cx="291.4" cy="150.7" r="3" fill="#4e79a7"/><circle cx="321.3" cy="213.2" r="3" fill="#4e79a7"/><circle cx="351.2" cy="201.1" r="3" fill="#4e79a7"/><circle cx="381.1" cy="194.8" r="3" fill="#4e79a7"/><circle cx="411.0" cy="160.4" r="3" fill="#4e79a7"/><circle cx="441.0" cy="208.0" r="3" fill="#4e79a7"/><circle cx="470.9" cy="214.8" r="3" fill="#4e79a7"/><circle cx="500.8" cy="217.4" r="3" fill="#4e79a7"/><circle cx="530.7" cy="231.5" r="3" fill="#4e79a7"/><circle cx="560.6" cy="231.5" r="3" fill="#4e79a7"/><circle cx="590.6" cy="224.7" r="3" fill="#4e79a7"/><circle cx="620.5" cy="213.9" r="3" fill="#4e79a7"/><circle cx="650.4" cy="230.6" r="3" fill="#4e79a7"/><circle cx="680.3" cy="231.3" r="3" fill="#4e79a7"/><circle cx="710.2" cy="231.5" r="3" fill="#4e79a7"/><circle cx="740.2" cy="232.0" r="3" fill="#4e79a7"/><circle cx="770.1" cy="231.5" r="3" fill="#4e79a7"/><circle cx="800.0" cy="231.1" r="3" fill="#4e79a7"/>
  <circle cx="52.0" cy="229.4" r="3" fill="#f28e2b"/><circle cx="81.9" cy="202.8" r="3" fill="#f28e2b"/><circle cx="111.8" cy="209.6" r="3" fill="#f28e2b"/><circle cx="141.8" cy="170.0" r="3" fill="#f28e2b"/><circle cx="171.7" cy="193.1" r="3" fill="#f28e2b"/><circle cx="201.6" cy="207.5" r="3" fill="#f28e2b"/><circle cx="231.5" cy="224.9" r="3" fill="#f28e2b"/><circle cx="261.4" cy="188.4" r="3" fill="#f28e2b"/><circle cx="291.4" cy="208.2" r="3" fill="#f28e2b"/><circle cx="321.3" cy="224.9" r="3" fill="#f28e2b"/><circle cx="351.2" cy="223.8" r="3" fill="#f28e2b"/><circle cx="381.1" cy="222.3" r="3" fill="#f28e2b"/><circle cx="411.0" cy="212.7" r="3" fill="#f28e2b"/><circle cx="441.0" cy="225.2" r="3" fill="#f28e2b"/><circle cx="470.9" cy="229.4" r="3" fill="#f28e2b"/><circle cx="500.8" cy="228.2" r="3" fill="#f28e2b"/><circle cx="530.7" cy="231.5" r="3" fill="#f28e2b"/><circle cx="560.6" cy="231.5" r="3" fill="#f28e2b"/><circle cx="590.6" cy="229.4" r="3" fill="#f28e2b"/><circle cx="620.5" cy="226.8" r="3" fill="#f28e2b"/><circle cx="650.4" cy="230.8" r="3" fill="#f28e2b"/><circle cx="680.3" cy="231.5" r="3" fill="#f28e2b"/><circle cx="710.2" cy="231.8" r="3" fill="#f28e2b"/><circle cx="740.2" cy="232.0" r="3" fill="#f28e2b"/><circle cx="770.1" cy="231.8" r="3" fill="#f28e2b"/><circle cx="800.0" cy="231.3" r="3" fill="#f28e2b"/>

  <!-- axes -->
  <line x1="52" y1="28" x2="52" y2="232"
        stroke="#cccccc" stroke-width="1"/>
  <line x1="52" y1="232" x2="800" y2="232"
        stroke="#cccccc" stroke-width="1"/>

  <!-- y-axis labels -->
  <text x="47" y="236.0" text-anchor="end" font-size="10" fill="#57606a" font-family="ui-monospace, SFMono-Regular, 'SF Mono', Menlo, monospace">0</text><text x="47" y="188.9" text-anchor="end" font-size="10" fill="#57606a" font-family="ui-monospace, SFMono-Regular, 'SF Mono', Menlo, monospace">200</text><text x="47" y="141.8" text-anchor="end" font-size="10" fill="#57606a" font-family="ui-monospace, SFMono-Regular, 'SF Mono', Menlo, monospace">400</text><text x="47" y="94.7" text-anchor="end" font-size="10" fill="#57606a" font-family="ui-monospace, SFMono-Regular, 'SF Mono', Menlo, monospace">600</text><text x="47" y="47.5" text-anchor="end" font-size="10" fill="#57606a" font-family="ui-monospace, SFMono-Regular, 'SF Mono', Menlo, monospace">800</text><text x="47" y="0.4" text-anchor="end" font-size="10" fill="#57606a" font-family="ui-monospace, SFMono-Regular, 'SF Mono', Menlo, monospace">1,000</text>

  <!-- x-axis labels -->
  <text x="52.0" y="248" text-anchor="middle" font-size="10" fill="#8c959f" font-family="ui-monospace, SFMono-Regular, 'SF Mono', Menlo, monospace">05-11</text><text x="141.8" y="248" text-anchor="middle" font-size="10" fill="#8c959f" font-family="ui-monospace, SFMono-Regular, 'SF Mono', Menlo, monospace">05-14</text><text x="231.5" y="248" text-anchor="middle" font-size="10" fill="#8c959f" font-family="ui-monospace, SFMono-Regular, 'SF Mono', Menlo, monospace">05-17</text><text x="321.3" y="248" text-anchor="middle" font-size="10" fill="#8c959f" font-family="ui-monospace, SFMono-Regular, 'SF Mono', Menlo, monospace">05-20</text><text x="411.0" y="248" text-anchor="middle" font-size="10" fill="#8c959f" font-family="ui-monospace, SFMono-Regular, 'SF Mono', Menlo, monospace">05-23</text><text x="500.8" y="248" text-anchor="middle" font-size="10" fill="#8c959f" font-family="ui-monospace, SFMono-Regular, 'SF Mono', Menlo, monospace">05-26</text><text x="590.6" y="248" text-anchor="middle" font-size="10" fill="#8c959f" font-family="ui-monospace, SFMono-Regular, 'SF Mono', Menlo, monospace">05-29</text><text x="680.3" y="248" text-anchor="middle" font-size="10" fill="#8c959f" font-family="ui-monospace, SFMono-Regular, 'SF Mono', Menlo, monospace">06-01</text><text x="770.1" y="248" text-anchor="middle" font-size="10" fill="#8c959f" font-family="ui-monospace, SFMono-Regular, 'SF Mono', Menlo, monospace">06-04</text><text x="800.0" y="248" text-anchor="middle" font-size="10" fill="#8c959f" font-family="ui-monospace, SFMono-Regular, 'SF Mono', Menlo, monospace">06-05</text>

  <!-- legend -->
  <rect x="60" y="262" width="16" height="3" fill="#4e79a7" rx="1"/><text x="80" y="268" font-size="11" fill="#57606a" font-family="-apple-system, BlinkMacSystemFont, 'Segoe UI', sans-serif">Total clones (4,262)</text><line x1="230" y1="264" x2="246" y2="264" stroke="#f28e2b" stroke-width="2" stroke-dasharray="5,3"/><text x="250" y="268" font-size="11" fill="#57606a" font-family="-apple-system, BlinkMacSystemFont, 'Segoe UI', sans-serif">Unique cloners</text>

</svg>