<svg xmlns="http://www.w3.org/2000/svg" viewBox="0 0 820 280" width="820" height="280">

  <!-- title -->
  <text x="52" y="18" font-size="13" font-weight="600"
        fill="#24292f" font-family="-apple-system, BlinkMacSystemFont, 'Segoe UI', sans-serif"
        >Clone traffic — orthodox-calendar</text>
  <text x="800" y="18" font-size="10" fill="#8c959f"
        font-family="ui-monospace, SFMono-Regular, 'SF Mono', Menlo, monospace" text-anchor="end">2026-06-02</text>

  <!-- grid -->
  <line x1="52" y1="232.0" x2="800" y2="232.0" stroke="#e8e8e8" stroke-width="1"/><line x1="52" y1="184.9" x2="800" y2="184.9" stroke="#e8e8e8" stroke-width="1"/><line x1="52" y1="137.8" x2="800" y2="137.8" stroke="#e8e8e8" stroke-width="1"/><line x1="52" y1="90.7" x2="800" y2="90.7" stroke="#e8e8e8" stroke-width="1"/><line x1="52" y1="43.5" x2="800" y2="43.5" stroke="#e8e8e8" stroke-width="1"/><line x1="52" y1="-3.6" x2="800" y2="-3.6" stroke="#e8e8e8" stroke-width="1"/>

  <!-- area fill -->
  <path d="M52.0,226.8 L52.0,226.8 L89.4,169.6 L126.8,178.5 L164.2,28.0 L201.6,118.7 L239.0,163.5 L276.4,216.5 L313.8,76.5 L351.2,150.7 L388.6,213.2 L426.0,201.1 L463.4,194.8 L500.8,160.4 L538.2,208.0 L575.6,214.8 L613.0,217.4 L650.4,231.5 L687.8,231.5 L725.2,224.7 L762.6,213.9 L800.0,230.6 L800.0,232.0 L52.0,232.0Z" fill="#4e79a7" opacity="0.12"/>

  <!-- lines -->
  <polyline points="52.0,226.8 89.4,169.6 126.8,178.5 164.2,28.0 201.6,118.7 239.0,163.5 276.4,216.5 313.8,76.5 351.2,150.7 388.6,213.2 426.0,201.1 463.4,194.8 500.8,160.4 538.2,208.0 575.6,214.8 613.0,217.4 650.4,231.5 687.8,231.5 725.2,224.7 762.6,213.9 800.0,230.6"
            fill="none" stroke="#4e79a7"
            stroke-width="2" stroke-linejoin="round"/>
  <polyline points="52.0,229.4 89.4,202.8 126.8,209.6 164.2,170.0 201.6,193.1 239.0,207.5 276.4,224.9 313.8,188.4 351.2,208.2 388.6,224.9 426.0,223.8 463.4,222.3 500.8,212.7 538.2,225.2 575.6,229.4 613.0,228.2 650.4,231.5 687.8,231.5 725.2,229.4 762.6,226.8 800.0,230.8"
            fill="none" stroke="#f28e2b"
            stroke-width="2" stroke-linejoin="round"
            stroke-dasharray="5,3"/>

  <!-- dots -->
  <circle cx="52.0" cy="226.8" r="3" fill="#4e79a7"/><circle cx="89.4" cy="169.6" r="3" fill="#4e79a7"/><circle cx="126.8" cy="178.5" r="3" fill="#4e79a7"/><circle cx="164.2" cy="28.0" r="3" fill="#4e79a7"/><circle cx="201.6" cy="118.7" r="3" fill="#4e79a7"/><circle cx="239.0" cy="163.5" r="3" fill="#4e79a7"/><circle cx="276.4" cy="216.5" r="3" fill="#4e79a7"/><circle cx="313.8" cy="76.5" r="3" fill="#4e79a7"/><circle cx="351.2" cy="150.7" r="3" fill="#4e79a7"/><circle cx="388.6" cy="213.2" r="3" fill="#4e79a7"/><circle cx="426.0" cy="201.1" r="3" fill="#4e79a7"/><circle cx="463.4" cy="194.8" r="3" fill="#4e79a7"/><circle cx="500.8" cy="160.4" r="3" fill="#4e79a7"/><circle cx="538.2" cy="208.0" r="3" fill="#4e79a7"/><circle cx="575.6" cy="214.8" r="3" fill="#4e79a7"/><circle cx="613.0" cy="217.4" r="3" fill="#4e79a7"/><circle cx="650.4" cy="231.5" r="3" fill="#4e79a7"/><circle cx="687.8" cy="231.5" r="3" fill="#4e79a7"/><circle cx="725.2" cy="224.7" r="3" fill="#4e79a7"/><circle cx="762.6" cy="213.9" r="3" fill="#4e79a7"/><circle cx="800.0" cy="230.6" r="3" fill="#4e79a7"/>
  <circle cx="52.0" cy="229.4" r="3" fill="#f28e2b"/><circle cx="89.4" cy="202.8" r="3" fill="#f28e2b"/><circle cx="126.8" cy="209.6" r="3" fill="#f28e2b"/><circle cx="164.2" cy="170.0" r="3" fill="#f28e2b"/><circle cx="201.6" cy="193.1" r="3" fill="#f28e2b"/><circle cx="239.0" cy="207.5" r="3" fill="#f28e2b"/><circle cx="276.4" cy="224.9" r="3" fill="#f28e2b"/><circle cx="313.8" cy="188.4" r="3" fill="#f28e2b"/><circle cx="351.2" cy="208.2" r="3" fill="#f28e2b"/><circle cx="388.6" cy="224.9" r="3" fill="#f28e2b"/><circle cx="426.0" cy="223.8" r="3" fill="#f28e2b"/><circle cx="463.4" cy="222.3" r="3" fill="#f28e2b"/><circle cx="500.8" cy="212.7" r="3" fill="#f28e2b"/><circle cx="538.2" cy="225.2" r="3" fill="#f28e2b"/><circle cx="575.6" cy="229.4" r="3" fill="#f28e2b"/><circle cx="613.0" cy="228.2" r="3" fill="#f28e2b"/><circle cx="650.4" cy="231.5" r="3" fill="#f28e2b"/><circle cx="687.8" cy="231.5" r="3" fill="#f28e2b"/><circle cx="725.2" cy="229.4" r="3" fill="#f28e2b"/><circle cx="762.6" cy="226.8" r="3" fill="#f28e2b"/><circle cx="800.0" cy="230.8" r="3" fill="#f28e2b"/>

  <!-- axes -->
  <line x1="52" y1="28" x2="52" y2="232"
        stroke="#cccccc" stroke-width="1"/>
  <line x1="52" y1="232" x2="800" y2="232"
        stroke="#cccccc" stroke-width="1"/>

  <!-- y-axis labels -->
  <text x="47" y="236.0" text-anchor="end" font-size="10" fill="#57606a" font-family="ui-monospace, SFMono-Regular, 'SF Mono', Menlo, monospace">0</text><text x="47" y="188.9" text-anchor="end" font-size="10" fill="#57606a" font-family="ui-monospace, SFMono-Regular, 'SF Mono', Menlo, monospace">200</text><text x="47" y="141.8" text-anchor="end" font-size="10" fill="#57606a" font-family="ui-monospace, SFMono-Regular, 'SF Mono', Menlo, monospace">400</text><text x="47" y="94.7" text-anchor="end" font-size="10" fill="#57606a" font-family="ui-monospace, SFMono-Regular, 'SF Mono', Menlo, monospace">600</text><text x="47" y="47.5" text-anchor="end" font-size="10" fill="#57606a" font-family="ui-monospace, SFMono-Regular, 'SF Mono', Menlo, monospace">800</text><text x="47" y="0.4" text-anchor="end" font-size="10" fill="#57606a" font-family="ui-monospace, SFMono-Regular, 'SF Mono', Menlo, monospace">1,000</text>

  <!-- x-axis labels -->
  <text x="52.0" y="248" text-anchor="middle" font-size="10" fill="#8c959f" font-family="ui-monospace, SFMono-Regular, 'SF Mono', Menlo, monospace">05-11</text><text x="126.8" y="248" text-anchor="middle" font-size="10" fill="#8c959f" font-family="ui-monospace, SFMono-Regular, 'SF Mono', Menlo, monospace">05-13</text><text x="201.6" y="248" text-anchor="middle" font-size="10" fill="#8c959f" font-family="ui-monospace, SFMono-Regular, 'SF Mono', Menlo, monospace">05-15</text><text x="276.4" y="248" text-anchor="middle" font-size="10" fill="#8c959f" font-family="ui-monospace, SFMono-Regular, 'SF Mono', Menlo, monospace">05-17</text><text x="351.2" y="248" text-anchor="middle" font-size="10" fill="#8c959f" font-family="ui-monospace, SFMono-Regular, 'SF Mono', Menlo, monospace">05-19</text><text x="426.0" y="248" text-anchor="middle" font-size="10" fill="#8c959f" font-family="ui-monospace, SFMono-Regular, 'SF Mono', Menlo, monospace">05-21</text><text x="500.8" y="248" text-anchor="middle" font-size="10" fill="#8c959f" font-family="ui-monospace, SFMono-Regular, 'SF Mono', Menlo, monospace">05-23</text><text x="575.6" y="248" text-anchor="middle" font-size="10" fill="#8c959f" font-family="ui-monospace, SFMono-Regular, 'SF Mono', Menlo, monospace">05-25</text><text x="650.4" y="248" text-anchor="middle" font-size="10" fill="#8c959f" font-family="ui-monospace, SFMono-Regular, 'SF Mono', Menlo, monospace">05-27</text><text x="725.2" y="248" text-anchor="middle" font-size="10" fill="#8c959f" font-family="ui-monospace, SFMono-Regular, 'SF Mono', Menlo, monospace">05-29</text><text x="800.0" y="248" text-anchor="middle" font-size="10" fill="#8c959f" font-family="ui-monospace, SFMono-Regular, 'SF Mono', Menlo, monospace">05-31</text>

  <!-- legend -->
  <rect x="60" y="262" width="16" height="3" fill="#4e79a7" rx="1"/><text x="80" y="268" font-size="11" fill="#57606a" font-family="-apple-system, BlinkMacSystemFont, 'Segoe UI', sans-serif">Total clones (4,251)</text><line x1="230" y1="264" x2="246" y2="264" stroke="#f28e2b" stroke-width="2" stroke-dasharray="5,3"/><text x="250" y="268" font-size="11" fill="#57606a" font-family="-apple-system, BlinkMacSystemFont, 'Segoe UI', sans-serif">Unique cloners</text>

</svg>