<svg xmlns="http://www.w3.org/2000/svg" viewBox="0 0 820 280" width="820" height="280">

  <!-- title -->
  <text x="52" y="18" font-size="13" font-weight="600"
        fill="#24292f" font-family="-apple-system, BlinkMacSystemFont, 'Segoe UI', sans-serif"
        >Clone traffic — orthodox-calendar</text>
  <text x="800" y="18" font-size="10" fill="#8c959f"
        font-family="ui-monospace, SFMono-Regular, 'SF Mono', Menlo, monospace" text-anchor="end">2026-07-02</text>

  <!-- grid -->
  <line x1="52" y1="232.0" x2="800" y2="232.0" stroke="#e8e8e8" stroke-width="1"/><line x1="52" y1="184.9" x2="800" y2="184.9" stroke="#e8e8e8" stroke-width="1"/><line x1="52" y1="137.8" x2="800" y2="137.8" stroke="#e8e8e8" stroke-width="1"/><line x1="52" y1="90.7" x2="800" y2="90.7" stroke="#e8e8e8" stroke-width="1"/><line x1="52" y1="43.5" x2="800" y2="43.5" stroke="#e8e8e8" stroke-width="1"/><line x1="52" y1="-3.6" x2="800" y2="-3.6" stroke="#e8e8e8" stroke-width="1"/>

  <!-- area fill -->
  <path d="M52.0,226.8 L52.0,226.8 L67.0,169.6 L81.9,178.5 L96.9,28.0 L111.8,118.7 L126.8,163.5 L141.8,216.5 L156.7,76.5 L171.7,150.7 L186.6,213.2 L201.6,201.1 L216.6,194.8 L231.5,160.4 L246.5,208.0 L261.4,214.8 L276.4,217.4 L291.4,231.5 L306.3,231.5 L321.3,224.7 L336.2,213.9 L351.2,230.6 L366.2,231.3 L381.1,231.5 L396.1,232.0 L411.0,231.5 L426.0,231.1 L441.0,232.0 L455.9,230.8 L470.9,232.0 L485.8,212.2 L500.8,231.5 L515.8,229.6 L530.7,226.1 L545.7,229.2 L560.6,231.5 L575.6,231.8 L590.6,228.5 L605.5,231.8 L620.5,230.8 L635.4,212.7 L650.4,130.5 L665.4,231.1 L680.3,231.8 L695.3,231.3 L710.2,231.3 L725.2,232.0 L740.2,231.5 L755.1,232.0 L770.1,231.5 L785.0,231.8 L800.0,231.3 L800.0,232.0 L52.0,232.0Z" fill="#4e79a7" opacity="0.12"/>

  <!-- lines -->
  <polyline points="52.0,226.8 67.0,169.6 81.9,178.5 96.9,28.0 111.8,118.7 126.8,163.5 141.8,216.5 156.7,76.5 171.7,150.7 186.6,213.2 201.6,201.1 216.6,194.8 231.5,160.4 246.5,208.0 261.4,214.8 276.4,217.4 291.4,231.5 306.3,231.5 321.3,224.7 336.2,213.9 351.2,230.6 366.2,231.3 381.1,231.5 396.1,232.0 411.0,231.5 426.0,231.1 441.0,232.0 455.9,230.8 470.9,232.0 485.8,212.2 500.8,231.5 515.8,229.6 530.7,226.1 545.7,229.2 560.6,231.5 575.6,231.8 590.6,228.5 605.5,231.8 620.5,230.8 635.4,212.7 650.4,130.5 665.4,231.1 680.3,231.8 695.3,231.3 710.2,231.3 725.2,232.0 740.2,231.5 755.1,232.0 770.1,231.5 785.0,231.8 800.0,231.3"
            fill="none" stroke="#4e79a7"
            stroke-width="2" stroke-linejoin="round"/>
  <polyline points="52.0,229.4 67.0,202.8 81.9,209.6 96.9,170.0 111.8,193.1 126.8,207.5 141.8,224.9 156.7,188.4 171.7,208.2 186.6,224.9 201.6,223.8 216.6,222.3 231.5,212.7 246.5,225.2 261.4,229.4 276.4,228.2 291.4,231.5 306.3,231.5 321.3,229.4 336.2,226.8 351.2,230.8 366.2,231.5 381.1,231.8 396.1,232.0 411.0,231.8 426.0,231.3 441.0,232.0 455.9,231.3 470.9,232.0 485.8,226.1 500.8,231.5 515.8,230.6 530.7,228.7 545.7,231.1 560.6,231.5 575.6,231.8 590.6,230.6 605.5,231.8 620.5,231.5 635.4,226.8 650.4,217.2 665.4,231.3 680.3,231.8 695.3,231.5 710.2,231.5 725.2,232.0 740.2,231.8 755.1,232.0 770.1,231.8 785.0,231.8 800.0,231.5"
            fill="none" stroke="#f28e2b"
            stroke-width="2" stroke-linejoin="round"
            stroke-dasharray="5,3"/>

  <!-- dots -->
  <circle cx="52.0" cy="226.8" r="3" fill="#4e79a7"/><circle cx="67.0" cy="169.6" r="3" fill="#4e79a7"/><circle cx="81.9" cy="178.5" r="3" fill="#4e79a7"/><circle cx="96.9" cy="28.0" r="3" fill="#4e79a7"/><circle cx="111.8" cy="118.7" r="3" fill="#4e79a7"/><circle cx="126.8" cy="163.5" r="3" fill="#4e79a7"/><circle cx="141.8" cy="216.5" r="3" fill="#4e79a7"/><circle cx="156.7" cy="76.5" r="3" fill="#4e79a7"/><circle cx="171.7" cy="150.7" r="3" fill="#4e79a7"/><circle cx="186.6" cy="213.2" r="3" fill="#4e79a7"/><circle cx="201.6" cy="201.1" r="3" fill="#4e79a7"/><circle cx="216.6" cy="194.8" r="3" fill="#4e79a7"/><circle cx="231.5" cy="160.4" r="3" fill="#4e79a7"/><circle cx="246.5" cy="208.0" r="3" fill="#4e79a7"/><circle cx="261.4" cy="214.8" r="3" fill="#4e79a7"/><circle cx="276.4" cy="217.4" r="3" fill="#4e79a7"/><circle cx="291.4" cy="231.5" r="3" fill="#4e79a7"/><circle cx="306.3" cy="231.5" r="3" fill="#4e79a7"/><circle cx="321.3" cy="224.7" r="3" fill="#4e79a7"/><circle cx="336.2" cy="213.9" r="3" fill="#4e79a7"/><circle cx="351.2" cy="230.6" r="3" fill="#4e79a7"/><circle cx="366.2" cy="231.3" r="3" fill="#4e79a7"/><circle cx="381.1" cy="231.5" r="3" fill="#4e79a7"/><circle cx="396.1" cy="232.0" r="3" fill="#4e79a7"/><circle cx="411.0" cy="231.5" r="3" fill="#4e79a7"/><circle cx="426.0" cy="231.1" r="3" fill="#4e79a7"/><circle cx="441.0" cy="232.0" r="3" fill="#4e79a7"/><circle cx="455.9" cy="230.8" r="3" fill="#4e79a7"/><circle cx="470.9" cy="232.0" r="3" fill="#4e79a7"/><circle cx="485.8" cy="212.2" r="3" fill="#4e79a7"/><circle cx="500.8" cy="231.5" r="3" fill="#4e79a7"/><circle cx="515.8" cy="229.6" r="3" fill="#4e79a7"/><circle cx="530.7" cy="226.1" r="3" fill="#4e79a7"/><circle cx="545.7" cy="229.2" r="3" fill="#4e79a7"/><circle cx="560.6" cy="231.5" r="3" fill="#4e79a7"/><circle cx="575.6" cy="231.8" r="3" fill="#4e79a7"/><circle cx="590.6" cy="228.5" r="3" fill="#4e79a7"/><circle cx="605.5" cy="231.8" r="3" fill="#4e79a7"/><circle cx="620.5" cy="230.8" r="3" fill="#4e79a7"/><circle cx="635.4" cy="212.7" r="3" fill="#4e79a7"/><circle cx="650.4" cy="130.5" r="3" fill="#4e79a7"/><circle cx="665.4" cy="231.1" r="3" fill="#4e79a7"/><circle cx="680.3" cy="231.8" r="3" fill="#4e79a7"/><circle cx="695.3" cy="231.3" r="3" fill="#4e79a7"/><circle cx="710.2" cy="231.3" r="3" fill="#4e79a7"/><circle cx="725.2" cy="232.0" r="3" fill="#4e79a7"/><circle cx="740.2" cy="231.5" r="3" fill="#4e79a7"/><circle cx="755.1" cy="232.0" r="3" fill="#4e79a7"/><circle cx="770.1" cy="231.5" r="3" fill="#4e79a7"/><circle cx="785.0" cy="231.8" r="3" fill="#4e79a7"/><circle cx="800.0" cy="231.3" r="3" fill="#4e79a7"/>
  <circle cx="52.0" cy="229.4" r="3" fill="#f28e2b"/><circle cx="67.0" cy="202.8" r="3" fill="#f28e2b"/><circle cx="81.9" cy="209.6" r="3" fill="#f28e2b"/><circle cx="96.9" cy="170.0" r="3" fill="#f28e2b"/><circle cx="111.8" cy="193.1" r="3" fill="#f28e2b"/><circle cx="126.8" cy="207.5" r="3" fill="#f28e2b"/><circle cx="141.8" cy="224.9" r="3" fill="#f28e2b"/><circle cx="156.7" cy="188.4" r="3" fill="#f28e2b"/><circle cx="171.7" cy="208.2" r="3" fill="#f28e2b"/><circle cx="186.6" cy="224.9" r="3" fill="#f28e2b"/><circle cx="201.6" cy="223.8" r="3" fill="#f28e2b"/><circle cx="216.6" cy="222.3" r="3" fill="#f28e2b"/><circle cx="231.5" cy="212.7" r="3" fill="#f28e2b"/><circle cx="246.5" cy="225.2" r="3" fill="#f28e2b"/><circle cx="261.4" cy="229.4" r="3" fill="#f28e2b"/><circle cx="276.4" cy="228.2" r="3" fill="#f28e2b"/><circle cx="291.4" cy="231.5" r="3" fill="#f28e2b"/><circle cx="306.3" cy="231.5" r="3" fill="#f28e2b"/><circle cx="321.3" cy="229.4" r="3" fill="#f28e2b"/><circle cx="336.2" cy="226.8" r="3" fill="#f28e2b"/><circle cx="351.2" cy="230.8" r="3" fill="#f28e2b"/><circle cx="366.2" cy="231.5" r="3" fill="#f28e2b"/><circle cx="381.1" cy="231.8" r="3" fill="#f28e2b"/><circle cx="396.1" cy="232.0" r="3" fill="#f28e2b"/><circle cx="411.0" cy="231.8" r="3" fill="#f28e2b"/><circle cx="426.0" cy="231.3" r="3" fill="#f28e2b"/><circle cx="441.0" cy="232.0" r="3" fill="#f28e2b"/><circle cx="455.9" cy="231.3" r="3" fill="#f28e2b"/><circle cx="470.9" cy="232.0" r="3" fill="#f28e2b"/><circle cx="485.8" cy="226.1" r="3" fill="#f28e2b"/><circle cx="500.8" cy="231.5" r="3" fill="#f28e2b"/><circle cx="515.8" cy="230.6" r="3" fill="#f28e2b"/><circle cx="530.7" cy="228.7" r="3" fill="#f28e2b"/><circle cx="545.7" cy="231.1" r="3" fill="#f28e2b"/><circle cx="560.6" cy="231.5" r="3" fill="#f28e2b"/><circle cx="575.6" cy="231.8" r="3" fill="#f28e2b"/><circle cx="590.6" cy="230.6" r="3" fill="#f28e2b"/><circle cx="605.5" cy="231.8" r="3" fill="#f28e2b"/><circle cx="620.5" cy="231.5" r="3" fill="#f28e2b"/><circle cx="635.4" cy="226.8" r="3" fill="#f28e2b"/><circle cx="650.4" cy="217.2" r="3" fill="#f28e2b"/><circle cx="665.4" cy="231.3" r="3" fill="#f28e2b"/><circle cx="680.3" cy="231.8" r="3" fill="#f28e2b"/><circle cx="695.3" cy="231.5" r="3" fill="#f28e2b"/><circle cx="710.2" cy="231.5" r="3" fill="#f28e2b"/><circle cx="725.2" cy="232.0" r="3" fill="#f28e2b"/><circle cx="740.2" cy="231.8" r="3" fill="#f28e2b"/><circle cx="755.1" cy="232.0" r="3" fill="#f28e2b"/><circle cx="770.1" cy="231.8" r="3" fill="#f28e2b"/><circle cx="785.0" cy="231.8" r="3" fill="#f28e2b"/><circle cx="800.0" cy="231.5" r="3" fill="#f28e2b"/>

  <!-- axes -->
  <line x1="52" y1="28" x2="52" y2="232"
        stroke="#cccccc" stroke-width="1"/>
  <line x1="52" y1="232" x2="800" y2="232"
        stroke="#cccccc" stroke-width="1"/>

  <!-- y-axis labels -->
  <text x="47" y="236.0" text-anchor="end" font-size="10" fill="#57606a" font-family="ui-monospace, SFMono-Regular, 'SF Mono', Menlo, monospace">0</text><text x="47" y="188.9" text-anchor="end" font-size="10" fill="#57606a" font-family="ui-monospace, SFMono-Regular, 'SF Mono', Menlo, monospace">200</text><text x="47" y="141.8" text-anchor="end" font-size="10" fill="#57606a" font-family="ui-monospace, SFMono-Regular, 'SF Mono', Menlo, monospace">400</text><text x="47" y="94.7" text-anchor="end" font-size="10" fill="#57606a" font-family="ui-monospace, SFMono-Regular, 'SF Mono', Menlo, monospace">600</text><text x="47" y="47.5" text-anchor="end" font-size="10" fill="#57606a" font-family="ui-monospace, SFMono-Regular, 'SF Mono', Menlo, monospace">800</text><text x="47" y="0.4" text-anchor="end" font-size="10" fill="#57606a" font-family="ui-monospace, SFMono-Regular, 'SF Mono', Menlo, monospace">1,000</text>

  <!-- x-axis labels -->
  <text x="52.0" y="248" text-anchor="middle" font-size="10" fill="#8c959f" font-family="ui-monospace, SFMono-Regular, 'SF Mono', Menlo, monospace">05-11</text><text x="590.6" y="248" text-anchor="middle" font-size="10" fill="#8c959f" font-family="ui-monospace, SFMono-Regular, 'SF Mono', Menlo, monospace">06-16</text><text x="141.8" y="248" text-anchor="middle" font-size="10" fill="#8c959f" font-family="ui-monospace, SFMono-Regular, 'SF Mono', Menlo, monospace">05-17</text><text x="680.3" y="248" text-anchor="middle" font-size="10" fill="#8c959f" font-family="ui-monospace, SFMono-Regular, 'SF Mono', Menlo, monospace">06-22</text><text x="231.5" y="248" text-anchor="middle" font-size="10" fill="#8c959f" font-family="ui-monospace, SFMono-Regular, 'SF Mono', Menlo, monospace">05-23</text><text x="770.1" y="248" text-anchor="middle" font-size="10" fill="#8c959f" font-family="ui-monospace, SFMono-Regular, 'SF Mono', Menlo, monospace">06-28</text><text x="321.3" y="248" text-anchor="middle" font-size="10" fill="#8c959f" font-family="ui-monospace, SFMono-Regular, 'SF Mono', Menlo, monospace">05-29</text><text x="800.0" y="248" text-anchor="middle" font-size="10" fill="#8c959f" font-family="ui-monospace, SFMono-Regular, 'SF Mono', Menlo, monospace">06-30</text><text x="411.0" y="248" text-anchor="middle" font-size="10" fill="#8c959f" font-family="ui-monospace, SFMono-Regular, 'SF Mono', Menlo, monospace">06-04</text><text x="500.8" y="248" text-anchor="middle" font-size="10" fill="#8c959f" font-family="ui-monospace, SFMono-Regular, 'SF Mono', Menlo, monospace">06-10</text>

  <!-- legend -->
  <rect x="60" y="262" width="16" height="3" fill="#4e79a7" rx="1"/><text x="80" y="268" font-size="11" fill="#57606a" font-family="-apple-system, BlinkMacSystemFont, 'Segoe UI', sans-serif">Total clones (4,956)</text><line x1="230" y1="264" x2="246" y2="264" stroke="#f28e2b" stroke-width="2" stroke-dasharray="5,3"/><text x="250" y="268" font-size="11" fill="#57606a" font-family="-apple-system, BlinkMacSystemFont, 'Segoe UI', sans-serif">Unique cloners</text>

</svg>