<svg xmlns="http://www.w3.org/2000/svg" viewBox="0 0 820 280" width="820" height="280">

  <!-- title -->
  <text x="52" y="18" font-size="13" font-weight="600"
        fill="#24292f" font-family="-apple-system, BlinkMacSystemFont, 'Segoe UI', sans-serif"
        >Clone traffic — orthodox-calendar</text>
  <text x="800" y="18" font-size="10" fill="#8c959f"
        font-family="ui-monospace, SFMono-Regular, 'SF Mono', Menlo, monospace" text-anchor="end">2026-07-18</text>

  <!-- grid -->
  <line x1="52" y1="232.0" x2="800" y2="232.0" stroke="#e8e8e8" stroke-width="1"/><line x1="52" y1="184.9" x2="800" y2="184.9" stroke="#e8e8e8" stroke-width="1"/><line x1="52" y1="137.8" x2="800" y2="137.8" stroke="#e8e8e8" stroke-width="1"/><line x1="52" y1="90.7" x2="800" y2="90.7" stroke="#e8e8e8" stroke-width="1"/><line x1="52" y1="43.5" x2="800" y2="43.5" stroke="#e8e8e8" stroke-width="1"/><line x1="52" y1="-3.6" x2="800" y2="-3.6" stroke="#e8e8e8" stroke-width="1"/>

  <!-- area fill -->
  <path d="M52.0,226.8 L52.0,226.8 L63.3,169.6 L74.7,178.5 L86.0,28.0 L97.3,118.7 L108.7,163.5 L120.0,216.5 L131.3,76.5 L142.7,150.7 L154.0,213.2 L165.3,201.1 L176.7,194.8 L188.0,160.4 L199.3,208.0 L210.7,214.8 L222.0,217.4 L233.3,231.5 L244.7,231.5 L256.0,224.7 L267.3,213.9 L278.7,230.6 L290.0,231.3 L301.3,231.5 L312.7,232.0 L324.0,231.5 L335.3,231.1 L346.7,232.0 L358.0,230.8 L369.3,232.0 L380.7,212.2 L392.0,231.5 L403.3,229.6 L414.7,226.1 L426.0,229.2 L437.3,231.5 L448.7,231.8 L460.0,228.5 L471.3,231.8 L482.7,230.8 L494.0,212.7 L505.3,130.5 L516.7,231.1 L528.0,231.8 L539.3,231.3 L550.7,231.3 L562.0,232.0 L573.3,231.5 L584.7,232.0 L596.0,231.5 L607.3,231.8 L618.7,231.3 L630.0,231.5 L641.3,232.0 L652.7,232.0 L664.0,231.8 L675.3,232.0 L686.7,232.0 L698.0,232.0 L709.3,232.0 L720.7,231.8 L732.0,231.3 L743.3,232.0 L754.7,232.0 L766.0,231.5 L777.3,232.0 L788.7,232.0 L800.0,231.5 L800.0,232.0 L52.0,232.0Z" fill="#4e79a7" opacity="0.12"/>

  <!-- lines -->
  <polyline points="52.0,226.8 63.3,169.6 74.7,178.5 86.0,28.0 97.3,118.7 108.7,163.5 120.0,216.5 131.3,76.5 142.7,150.7 154.0,213.2 165.3,201.1 176.7,194.8 188.0,160.4 199.3,208.0 210.7,214.8 222.0,217.4 233.3,231.5 244.7,231.5 256.0,224.7 267.3,213.9 278.7,230.6 290.0,231.3 301.3,231.5 312.7,232.0 324.0,231.5 335.3,231.1 346.7,232.0 358.0,230.8 369.3,232.0 380.7,212.2 392.0,231.5 403.3,229.6 414.7,226.1 426.0,229.2 437.3,231.5 448.7,231.8 460.0,228.5 471.3,231.8 482.7,230.8 494.0,212.7 505.3,130.5 516.7,231.1 528.0,231.8 539.3,231.3 550.7,231.3 562.0,232.0 573.3,231.5 584.7,232.0 596.0,231.5 607.3,231.8 618.7,231.3 630.0,231.5 641.3,232.0 652.7,232.0 664.0,231.8 675.3,232.0 686.7,232.0 698.0,232.0 709.3,232.0 720.7,231.8 732.0,231.3 743.3,232.0 754.7,232.0 766.0,231.5 777.3,232.0 788.7,232.0 800.0,231.5"
            fill="none" stroke="#4e79a7"
            stroke-width="2" stroke-linejoin="round"/>
  <polyline points="52.0,229.4 63.3,202.8 74.7,209.6 86.0,170.0 97.3,193.1 108.7,207.5 120.0,224.9 131.3,188.4 142.7,208.2 154.0,224.9 165.3,223.8 176.7,222.3 188.0,212.7 199.3,225.2 210.7,229.4 222.0,228.2 233.3,231.5 244.7,231.5 256.0,229.4 267.3,226.8 278.7,230.8 290.0,231.5 301.3,231.8 312.7,232.0 324.0,231.8 335.3,231.3 346.7,232.0 358.0,231.3 369.3,232.0 380.7,226.1 392.0,231.5 403.3,230.6 414.7,228.7 426.0,231.1 437.3,231.5 448.7,231.8 460.0,230.6 471.3,231.8 482.7,231.5 494.0,226.8 505.3,217.2 516.7,231.3 528.0,231.8 539.3,231.5 550.7,231.5 562.0,232.0 573.3,231.8 584.7,232.0 596.0,231.8 607.3,231.8 618.7,231.5 630.0,231.8 641.3,232.0 652.7,232.0 664.0,231.8 675.3,232.0 686.7,232.0 698.0,232.0 709.3,232.0 720.7,231.8 732.0,231.5 743.3,232.0 754.7,232.0 766.0,231.8 777.3,232.0 788.7,232.0 800.0,231.5"
            fill="none" stroke="#f28e2b"
            stroke-width="2" stroke-linejoin="round"
            stroke-dasharray="5,3"/>

  <!-- dots -->
  <circle cx="52.0" cy="226.8" r="3" fill="#4e79a7"/><circle cx="63.3" cy="169.6" r="3" fill="#4e79a7"/><circle cx="74.7" cy="178.5" r="3" fill="#4e79a7"/><circle cx="86.0" cy="28.0" r="3" fill="#4e79a7"/><circle cx="97.3" cy="118.7" r="3" fill="#4e79a7"/><circle cx="108.7" cy="163.5" r="3" fill="#4e79a7"/><circle cx="120.0" cy="216.5" r="3" fill="#4e79a7"/><circle cx="131.3" cy="76.5" r="3" fill="#4e79a7"/><circle cx="142.7" cy="150.7" r="3" fill="#4e79a7"/><circle cx="154.0" cy="213.2" r="3" fill="#4e79a7"/><circle cx="165.3" cy="201.1" r="3" fill="#4e79a7"/><circle cx="176.7" cy="194.8" r="3" fill="#4e79a7"/><circle cx="188.0" cy="160.4" r="3" fill="#4e79a7"/><circle cx="199.3" cy="208.0" r="3" fill="#4e79a7"/><circle cx="210.7" cy="214.8" r="3" fill="#4e79a7"/><circle cx="222.0" cy="217.4" r="3" fill="#4e79a7"/><circle cx="233.3" cy="231.5" r="3" fill="#4e79a7"/><circle cx="244.7" cy="231.5" r="3" fill="#4e79a7"/><circle cx="256.0" cy="224.7" r="3" fill="#4e79a7"/><circle cx="267.3" cy="213.9" r="3" fill="#4e79a7"/><circle cx="278.7" cy="230.6" r="3" fill="#4e79a7"/><circle cx="290.0" cy="231.3" r="3" fill="#4e79a7"/><circle cx="301.3" cy="231.5" r="3" fill="#4e79a7"/><circle cx="312.7" cy="232.0" r="3" fill="#4e79a7"/><circle cx="324.0" cy="231.5" r="3" fill="#4e79a7"/><circle cx="335.3" cy="231.1" r="3" fill="#4e79a7"/><circle cx="346.7" cy="232.0" r="3" fill="#4e79a7"/><circle cx="358.0" cy="230.8" r="3" fill="#4e79a7"/><circle cx="369.3" cy="232.0" r="3" fill="#4e79a7"/><circle cx="380.7" cy="212.2" r="3" fill="#4e79a7"/><circle cx="392.0" cy="231.5" r="3" fill="#4e79a7"/><circle cx="403.3" cy="229.6" r="3" fill="#4e79a7"/><circle cx="414.7" cy="226.1" r="3" fill="#4e79a7"/><circle cx="426.0" cy="229.2" r="3" fill="#4e79a7"/><circle cx="437.3" cy="231.5" r="3" fill="#4e79a7"/><circle cx="448.7" cy="231.8" r="3" fill="#4e79a7"/><circle cx="460.0" cy="228.5" r="3" fill="#4e79a7"/><circle cx="471.3" cy="231.8" r="3" fill="#4e79a7"/><circle cx="482.7" cy="230.8" r="3" fill="#4e79a7"/><circle cx="494.0" cy="212.7" r="3" fill="#4e79a7"/><circle cx="505.3" cy="130.5" r="3" fill="#4e79a7"/><circle cx="516.7" cy="231.1" r="3" fill="#4e79a7"/><circle cx="528.0" cy="231.8" r="3" fill="#4e79a7"/><circle cx="539.3" cy="231.3" r="3" fill="#4e79a7"/><circle cx="550.7" cy="231.3" r="3" fill="#4e79a7"/><circle cx="562.0" cy="232.0" r="3" fill="#4e79a7"/><circle cx="573.3" cy="231.5" r="3" fill="#4e79a7"/><circle cx="584.7" cy="232.0" r="3" fill="#4e79a7"/><circle cx="596.0" cy="231.5" r="3" fill="#4e79a7"/><circle cx="607.3" cy="231.8" r="3" fill="#4e79a7"/><circle cx="618.7" cy="231.3" r="3" fill="#4e79a7"/><circle cx="630.0" cy="231.5" r="3" fill="#4e79a7"/><circle cx="641.3" cy="232.0" r="3" fill="#4e79a7"/><circle cx="652.7" cy="232.0" r="3" fill="#4e79a7"/><circle cx="664.0" cy="231.8" r="3" fill="#4e79a7"/><circle cx="675.3" cy="232.0" r="3" fill="#4e79a7"/><circle cx="686.7" cy="232.0" r="3" fill="#4e79a7"/><circle cx="698.0" cy="232.0" r="3" fill="#4e79a7"/><circle cx="709.3" cy="232.0" r="3" fill="#4e79a7"/><circle cx="720.7" cy="231.8" r="3" fill="#4e79a7"/><circle cx="732.0" cy="231.3" r="3" fill="#4e79a7"/><circle cx="743.3" cy="232.0" r="3" fill="#4e79a7"/><circle cx="754.7" cy="232.0" r="3" fill="#4e79a7"/><circle cx="766.0" cy="231.5" r="3" fill="#4e79a7"/><circle cx="777.3" cy="232.0" r="3" fill="#4e79a7"/><circle cx="788.7" cy="232.0" r="3" fill="#4e79a7"/><circle cx="800.0" cy="231.5" r="3" fill="#4e79a7"/>
  <circle cx="52.0" cy="229.4" r="3" fill="#f28e2b"/><circle cx="63.3" cy="202.8" r="3" fill="#f28e2b"/><circle cx="74.7" cy="209.6" r="3" fill="#f28e2b"/><circle cx="86.0" cy="170.0" r="3" fill="#f28e2b"/><circle cx="97.3" cy="193.1" r="3" fill="#f28e2b"/><circle cx="108.7" cy="207.5" r="3" fill="#f28e2b"/><circle cx="120.0" cy="224.9" r="3" fill="#f28e2b"/><circle cx="131.3" cy="188.4" r="3" fill="#f28e2b"/><circle cx="142.7" cy="208.2" r="3" fill="#f28e2b"/><circle cx="154.0" cy="224.9" r="3" fill="#f28e2b"/><circle cx="165.3" cy="223.8" r="3" fill="#f28e2b"/><circle cx="176.7" cy="222.3" r="3" fill="#f28e2b"/><circle cx="188.0" cy="212.7" r="3" fill="#f28e2b"/><circle cx="199.3" cy="225.2" r="3" fill="#f28e2b"/><circle cx="210.7" cy="229.4" r="3" fill="#f28e2b"/><circle cx="222.0" cy="228.2" r="3" fill="#f28e2b"/><circle cx="233.3" cy="231.5" r="3" fill="#f28e2b"/><circle cx="244.7" cy="231.5" r="3" fill="#f28e2b"/><circle cx="256.0" cy="229.4" r="3" fill="#f28e2b"/><circle cx="267.3" cy="226.8" r="3" fill="#f28e2b"/><circle cx="278.7" cy="230.8" r="3" fill="#f28e2b"/><circle cx="290.0" cy="231.5" r="3" fill="#f28e2b"/><circle cx="301.3" cy="231.8" r="3" fill="#f28e2b"/><circle cx="312.7" cy="232.0" r="3" fill="#f28e2b"/><circle cx="324.0" cy="231.8" r="3" fill="#f28e2b"/><circle cx="335.3" cy="231.3" r="3" fill="#f28e2b"/><circle cx="346.7" cy="232.0" r="3" fill="#f28e2b"/><circle cx="358.0" cy="231.3" r="3" fill="#f28e2b"/><circle cx="369.3" cy="232.0" r="3" fill="#f28e2b"/><circle cx="380.7" cy="226.1" r="3" fill="#f28e2b"/><circle cx="392.0" cy="231.5" r="3" fill="#f28e2b"/><circle cx="403.3" cy="230.6" r="3" fill="#f28e2b"/><circle cx="414.7" cy="228.7" r="3" fill="#f28e2b"/><circle cx="426.0" cy="231.1" r="3" fill="#f28e2b"/><circle cx="437.3" cy="231.5" r="3" fill="#f28e2b"/><circle cx="448.7" cy="231.8" r="3" fill="#f28e2b"/><circle cx="460.0" cy="230.6" r="3" fill="#f28e2b"/><circle cx="471.3" cy="231.8" r="3" fill="#f28e2b"/><circle cx="482.7" cy="231.5" r="3" fill="#f28e2b"/><circle cx="494.0" cy="226.8" r="3" fill="#f28e2b"/><circle cx="505.3" cy="217.2" r="3" fill="#f28e2b"/><circle cx="516.7" cy="231.3" r="3" fill="#f28e2b"/><circle cx="528.0" cy="231.8" r="3" fill="#f28e2b"/><circle cx="539.3" cy="231.5" r="3" fill="#f28e2b"/><circle cx="550.7" cy="231.5" r="3" fill="#f28e2b"/><circle cx="562.0" cy="232.0" r="3" fill="#f28e2b"/><circle cx="573.3" cy="231.8" r="3" fill="#f28e2b"/><circle cx="584.7" cy="232.0" r="3" fill="#f28e2b"/><circle cx="596.0" cy="231.8" r="3" fill="#f28e2b"/><circle cx="607.3" cy="231.8" r="3" fill="#f28e2b"/><circle cx="618.7" cy="231.5" r="3" fill="#f28e2b"/><circle cx="630.0" cy="231.8" r="3" fill="#f28e2b"/><circle cx="641.3" cy="232.0" r="3" fill="#f28e2b"/><circle cx="652.7" cy="232.0" r="3" fill="#f28e2b"/><circle cx="664.0" cy="231.8" r="3" fill="#f28e2b"/><circle cx="675.3" cy="232.0" r="3" fill="#f28e2b"/><circle cx="686.7" cy="232.0" r="3" fill="#f28e2b"/><circle cx="698.0" cy="232.0" r="3" fill="#f28e2b"/><circle cx="709.3" cy="232.0" r="3" fill="#f28e2b"/><circle cx="720.7" cy="231.8" r="3" fill="#f28e2b"/><circle cx="732.0" cy="231.5" r="3" fill="#f28e2b"/><circle cx="743.3" cy="232.0" r="3" fill="#f28e2b"/><circle cx="754.7" cy="232.0" r="3" fill="#f28e2b"/><circle cx="766.0" cy="231.8" r="3" fill="#f28e2b"/><circle cx="777.3" cy="232.0" r="3" fill="#f28e2b"/><circle cx="788.7" cy="232.0" r="3" fill="#f28e2b"/><circle cx="800.0" cy="231.5" r="3" fill="#f28e2b"/>

  <!-- axes -->
  <line x1="52" y1="28" x2="52" y2="232"
        stroke="#cccccc" stroke-width="1"/>
  <line x1="52" y1="232" x2="800" y2="232"
        stroke="#cccccc" stroke-width="1"/>

  <!-- y-axis labels -->
  <text x="47" y="236.0" text-anchor="end" font-size="10" fill="#57606a" font-family="ui-monospace, SFMono-Regular, 'SF Mono', Menlo, monospace">0</text><text x="47" y="188.9" text-anchor="end" font-size="10" fill="#57606a" font-family="ui-monospace, SFMono-Regular, 'SF Mono', Menlo, monospace">200</text><text x="47" y="141.8" text-anchor="end" font-size="10" fill="#57606a" font-family="ui-monospace, SFMono-Regular, 'SF Mono', Menlo, monospace">400</text><text x="47" y="94.7" text-anchor="end" font-size="10" fill="#57606a" font-family="ui-monospace, SFMono-Regular, 'SF Mono', Menlo, monospace">600</text><text x="47" y="47.5" text-anchor="end" font-size="10" fill="#57606a" font-family="ui-monospace, SFMono-Regular, 'SF Mono', Menlo, monospace">800</text><text x="47" y="0.4" text-anchor="end" font-size="10" fill="#57606a" font-family="ui-monospace, SFMono-Regular, 'SF Mono', Menlo, monospace">1,000</text>

  <!-- x-axis labels -->
  <text x="52.0" y="248" text-anchor="middle" font-size="10" fill="#8c959f" font-family="ui-monospace, SFMono-Regular, 'SF Mono', Menlo, monospace">05-11</text><text x="414.7" y="248" text-anchor="middle" font-size="10" fill="#8c959f" font-family="ui-monospace, SFMono-Regular, 'SF Mono', Menlo, monospace">06-12</text><text x="777.3" y="248" text-anchor="middle" font-size="10" fill="#8c959f" font-family="ui-monospace, SFMono-Regular, 'SF Mono', Menlo, monospace">07-14</text><text x="800.0" y="248" text-anchor="middle" font-size="10" fill="#8c959f" font-family="ui-monospace, SFMono-Regular, 'SF Mono', Menlo, monospace">07-16</text><text x="142.7" y="248" text-anchor="middle" font-size="10" fill="#8c959f" font-family="ui-monospace, SFMono-Regular, 'SF Mono', Menlo, monospace">05-19</text><text x="505.3" y="248" text-anchor="middle" font-size="10" fill="#8c959f" font-family="ui-monospace, SFMono-Regular, 'SF Mono', Menlo, monospace">06-20</text><text x="233.3" y="248" text-anchor="middle" font-size="10" fill="#8c959f" font-family="ui-monospace, SFMono-Regular, 'SF Mono', Menlo, monospace">05-27</text><text x="596.0" y="248" text-anchor="middle" font-size="10" fill="#8c959f" font-family="ui-monospace, SFMono-Regular, 'SF Mono', Menlo, monospace">06-28</text><text x="324.0" y="248" text-anchor="middle" font-size="10" fill="#8c959f" font-family="ui-monospace, SFMono-Regular, 'SF Mono', Menlo, monospace">06-04</text><text x="686.7" y="248" text-anchor="middle" font-size="10" fill="#8c959f" font-family="ui-monospace, SFMono-Regular, 'SF Mono', Menlo, monospace">07-06</text>

  <!-- legend -->
  <rect x="60" y="262" width="16" height="3" fill="#4e79a7" rx="1"/><text x="80" y="268" font-size="11" fill="#57606a" font-family="-apple-system, BlinkMacSystemFont, 'Segoe UI', sans-serif">Total clones (4,967)</text><line x1="230" y1="264" x2="246" y2="264" stroke="#f28e2b" stroke-width="2" stroke-dasharray="5,3"/><text x="250" y="268" font-size="11" fill="#57606a" font-family="-apple-system, BlinkMacSystemFont, 'Segoe UI', sans-serif">Unique cloners</text>

</svg>