<svg xmlns="http://www.w3.org/2000/svg" viewBox="0 0 820 280" width="820" height="280">

  <!-- title -->
  <text x="52" y="18" font-size="13" font-weight="600"
        fill="#24292f" font-family="-apple-system, BlinkMacSystemFont, 'Segoe UI', sans-serif"
        >Clone traffic — orthodox-calendar</text>
  <text x="800" y="18" font-size="10" fill="#8c959f"
        font-family="ui-monospace, SFMono-Regular, 'SF Mono', Menlo, monospace" text-anchor="end">2026-06-26</text>

  <!-- grid -->
  <line x1="52" y1="232.0" x2="800" y2="232.0" stroke="#e8e8e8" stroke-width="1"/><line x1="52" y1="184.9" x2="800" y2="184.9" stroke="#e8e8e8" stroke-width="1"/><line x1="52" y1="137.8" x2="800" y2="137.8" stroke="#e8e8e8" stroke-width="1"/><line x1="52" y1="90.7" x2="800" y2="90.7" stroke="#e8e8e8" stroke-width="1"/><line x1="52" y1="43.5" x2="800" y2="43.5" stroke="#e8e8e8" stroke-width="1"/><line x1="52" y1="-3.6" x2="800" y2="-3.6" stroke="#e8e8e8" stroke-width="1"/>

  <!-- area fill -->
  <path d="M52.0,226.8 L52.0,226.8 L69.0,169.6 L86.0,178.5 L103.0,28.0 L120.0,118.7 L137.0,163.5 L154.0,216.5 L171.0,76.5 L188.0,150.7 L205.0,213.2 L222.0,201.1 L239.0,194.8 L256.0,160.4 L273.0,208.0 L290.0,214.8 L307.0,217.4 L324.0,231.5 L341.0,231.5 L358.0,224.7 L375.0,213.9 L392.0,230.6 L409.0,231.3 L426.0,231.5 L443.0,232.0 L460.0,231.5 L477.0,231.1 L494.0,232.0 L511.0,230.8 L528.0,232.0 L545.0,212.2 L562.0,231.5 L579.0,229.6 L596.0,226.1 L613.0,229.2 L630.0,231.5 L647.0,231.8 L664.0,228.5 L681.0,231.8 L698.0,230.8 L715.0,212.7 L732.0,130.5 L749.0,231.1 L766.0,231.8 L783.0,231.3 L800.0,231.3 L800.0,232.0 L52.0,232.0Z" fill="#4e79a7" opacity="0.12"/>

  <!-- lines -->
  <polyline points="52.0,226.8 69.0,169.6 86.0,178.5 103.0,28.0 120.0,118.7 137.0,163.5 154.0,216.5 171.0,76.5 188.0,150.7 205.0,213.2 222.0,201.1 239.0,194.8 256.0,160.4 273.0,208.0 290.0,214.8 307.0,217.4 324.0,231.5 341.0,231.5 358.0,224.7 375.0,213.9 392.0,230.6 409.0,231.3 426.0,231.5 443.0,232.0 460.0,231.5 477.0,231.1 494.0,232.0 511.0,230.8 528.0,232.0 545.0,212.2 562.0,231.5 579.0,229.6 596.0,226.1 613.0,229.2 630.0,231.5 647.0,231.8 664.0,228.5 681.0,231.8 698.0,230.8 715.0,212.7 732.0,130.5 749.0,231.1 766.0,231.8 783.0,231.3 800.0,231.3"
            fill="none" stroke="#4e79a7"
            stroke-width="2" stroke-linejoin="round"/>
  <polyline points="52.0,229.4 69.0,202.8 86.0,209.6 103.0,170.0 120.0,193.1 137.0,207.5 154.0,224.9 171.0,188.4 188.0,208.2 205.0,224.9 222.0,223.8 239.0,222.3 256.0,212.7 273.0,225.2 290.0,229.4 307.0,228.2 324.0,231.5 341.0,231.5 358.0,229.4 375.0,226.8 392.0,230.8 409.0,231.5 426.0,231.8 443.0,232.0 460.0,231.8 477.0,231.3 494.0,232.0 511.0,231.3 528.0,232.0 545.0,226.1 562.0,231.5 579.0,230.6 596.0,228.7 613.0,231.1 630.0,231.5 647.0,231.8 664.0,230.6 681.0,231.8 698.0,231.5 715.0,226.8 732.0,217.2 749.0,231.3 766.0,231.8 783.0,231.5 800.0,231.5"
            fill="none" stroke="#f28e2b"
            stroke-width="2" stroke-linejoin="round"
            stroke-dasharray="5,3"/>

  <!-- dots -->
  <circle cx="52.0" cy="226.8" r="3" fill="#4e79a7"/><circle cx="69.0" cy="169.6" r="3" fill="#4e79a7"/><circle cx="86.0" cy="178.5" r="3" fill="#4e79a7"/><circle cx="103.0" cy="28.0" r="3" fill="#4e79a7"/><circle cx="120.0" cy="118.7" r="3" fill="#4e79a7"/><circle cx="137.0" cy="163.5" r="3" fill="#4e79a7"/><circle cx="154.0" cy="216.5" r="3" fill="#4e79a7"/><circle cx="171.0" cy="76.5" r="3" fill="#4e79a7"/><circle cx="188.0" cy="150.7" r="3" fill="#4e79a7"/><circle cx="205.0" cy="213.2" r="3" fill="#4e79a7"/><circle cx="222.0" cy="201.1" r="3" fill="#4e79a7"/><circle cx="239.0" cy="194.8" r="3" fill="#4e79a7"/><circle cx="256.0" cy="160.4" r="3" fill="#4e79a7"/><circle cx="273.0" cy="208.0" r="3" fill="#4e79a7"/><circle cx="290.0" cy="214.8" r="3" fill="#4e79a7"/><circle cx="307.0" cy="217.4" r="3" fill="#4e79a7"/><circle cx="324.0" cy="231.5" r="3" fill="#4e79a7"/><circle cx="341.0" cy="231.5" r="3" fill="#4e79a7"/><circle cx="358.0" cy="224.7" r="3" fill="#4e79a7"/><circle cx="375.0" cy="213.9" r="3" fill="#4e79a7"/><circle cx="392.0" cy="230.6" r="3" fill="#4e79a7"/><circle cx="409.0" cy="231.3" r="3" fill="#4e79a7"/><circle cx="426.0" cy="231.5" r="3" fill="#4e79a7"/><circle cx="443.0" cy="232.0" r="3" fill="#4e79a7"/><circle cx="460.0" cy="231.5" r="3" fill="#4e79a7"/><circle cx="477.0" cy="231.1" r="3" fill="#4e79a7"/><circle cx="494.0" cy="232.0" r="3" fill="#4e79a7"/><circle cx="511.0" cy="230.8" r="3" fill="#4e79a7"/><circle cx="528.0" cy="232.0" r="3" fill="#4e79a7"/><circle cx="545.0" cy="212.2" r="3" fill="#4e79a7"/><circle cx="562.0" cy="231.5" r="3" fill="#4e79a7"/><circle cx="579.0" cy="229.6" r="3" fill="#4e79a7"/><circle cx="596.0" cy="226.1" r="3" fill="#4e79a7"/><circle cx="613.0" cy="229.2" r="3" fill="#4e79a7"/><circle cx="630.0" cy="231.5" r="3" fill="#4e79a7"/><circle cx="647.0" cy="231.8" r="3" fill="#4e79a7"/><circle cx="664.0" cy="228.5" r="3" fill="#4e79a7"/><circle cx="681.0" cy="231.8" r="3" fill="#4e79a7"/><circle cx="698.0" cy="230.8" r="3" fill="#4e79a7"/><circle cx="715.0" cy="212.7" r="3" fill="#4e79a7"/><circle cx="732.0" cy="130.5" r="3" fill="#4e79a7"/><circle cx="749.0" cy="231.1" r="3" fill="#4e79a7"/><circle cx="766.0" cy="231.8" r="3" fill="#4e79a7"/><circle cx="783.0" cy="231.3" r="3" fill="#4e79a7"/><circle cx="800.0" cy="231.3" r="3" fill="#4e79a7"/>
  <circle cx="52.0" cy="229.4" r="3" fill="#f28e2b"/><circle cx="69.0" cy="202.8" r="3" fill="#f28e2b"/><circle cx="86.0" cy="209.6" r="3" fill="#f28e2b"/><circle cx="103.0" cy="170.0" r="3" fill="#f28e2b"/><circle cx="120.0" cy="193.1" r="3" fill="#f28e2b"/><circle cx="137.0" cy="207.5" r="3" fill="#f28e2b"/><circle cx="154.0" cy="224.9" r="3" fill="#f28e2b"/><circle cx="171.0" cy="188.4" r="3" fill="#f28e2b"/><circle cx="188.0" cy="208.2" r="3" fill="#f28e2b"/><circle cx="205.0" cy="224.9" r="3" fill="#f28e2b"/><circle cx="222.0" cy="223.8" r="3" fill="#f28e2b"/><circle cx="239.0" cy="222.3" r="3" fill="#f28e2b"/><circle cx="256.0" cy="212.7" r="3" fill="#f28e2b"/><circle cx="273.0" cy="225.2" r="3" fill="#f28e2b"/><circle cx="290.0" cy="229.4" r="3" fill="#f28e2b"/><circle cx="307.0" cy="228.2" r="3" fill="#f28e2b"/><circle cx="324.0" cy="231.5" r="3" fill="#f28e2b"/><circle cx="341.0" cy="231.5" r="3" fill="#f28e2b"/><circle cx="358.0" cy="229.4" r="3" fill="#f28e2b"/><circle cx="375.0" cy="226.8" r="3" fill="#f28e2b"/><circle cx="392.0" cy="230.8" r="3" fill="#f28e2b"/><circle cx="409.0" cy="231.5" r="3" fill="#f28e2b"/><circle cx="426.0" cy="231.8" r="3" fill="#f28e2b"/><circle cx="443.0" cy="232.0" r="3" fill="#f28e2b"/><circle cx="460.0" cy="231.8" r="3" fill="#f28e2b"/><circle cx="477.0" cy="231.3" r="3" fill="#f28e2b"/><circle cx="494.0" cy="232.0" r="3" fill="#f28e2b"/><circle cx="511.0" cy="231.3" r="3" fill="#f28e2b"/><circle cx="528.0" cy="232.0" r="3" fill="#f28e2b"/><circle cx="545.0" cy="226.1" r="3" fill="#f28e2b"/><circle cx="562.0" cy="231.5" r="3" fill="#f28e2b"/><circle cx="579.0" cy="230.6" r="3" fill="#f28e2b"/><circle cx="596.0" cy="228.7" r="3" fill="#f28e2b"/><circle cx="613.0" cy="231.1" r="3" fill="#f28e2b"/><circle cx="630.0" cy="231.5" r="3" fill="#f28e2b"/><circle cx="647.0" cy="231.8" r="3" fill="#f28e2b"/><circle cx="664.0" cy="230.6" r="3" fill="#f28e2b"/><circle cx="681.0" cy="231.8" r="3" fill="#f28e2b"/><circle cx="698.0" cy="231.5" r="3" fill="#f28e2b"/><circle cx="715.0" cy="226.8" r="3" fill="#f28e2b"/><circle cx="732.0" cy="217.2" r="3" fill="#f28e2b"/><circle cx="749.0" cy="231.3" r="3" fill="#f28e2b"/><circle cx="766.0" cy="231.8" r="3" fill="#f28e2b"/><circle cx="783.0" cy="231.5" r="3" fill="#f28e2b"/><circle cx="800.0" cy="231.5" r="3" fill="#f28e2b"/>

  <!-- axes -->
  <line x1="52" y1="28" x2="52" y2="232"
        stroke="#cccccc" stroke-width="1"/>
  <line x1="52" y1="232" x2="800" y2="232"
        stroke="#cccccc" stroke-width="1"/>

  <!-- y-axis labels -->
  <text x="47" y="236.0" text-anchor="end" font-size="10" fill="#57606a" font-family="ui-monospace, SFMono-Regular, 'SF Mono', Menlo, monospace">0</text><text x="47" y="188.9" text-anchor="end" font-size="10" fill="#57606a" font-family="ui-monospace, SFMono-Regular, 'SF Mono', Menlo, monospace">200</text><text x="47" y="141.8" text-anchor="end" font-size="10" fill="#57606a" font-family="ui-monospace, SFMono-Regular, 'SF Mono', Menlo, monospace">400</text><text x="47" y="94.7" text-anchor="end" font-size="10" fill="#57606a" font-family="ui-monospace, SFMono-Regular, 'SF Mono', Menlo, monospace">600</text><text x="47" y="47.5" text-anchor="end" font-size="10" fill="#57606a" font-family="ui-monospace, SFMono-Regular, 'SF Mono', Menlo, monospace">800</text><text x="47" y="0.4" text-anchor="end" font-size="10" fill="#57606a" font-family="ui-monospace, SFMono-Regular, 'SF Mono', Menlo, monospace">1,000</text>

  <!-- x-axis labels -->
  <text x="52.0" y="248" text-anchor="middle" font-size="10" fill="#8c959f" font-family="ui-monospace, SFMono-Regular, 'SF Mono', Menlo, monospace">05-11</text><text x="647.0" y="248" text-anchor="middle" font-size="10" fill="#8c959f" font-family="ui-monospace, SFMono-Regular, 'SF Mono', Menlo, monospace">06-15</text><text x="137.0" y="248" text-anchor="middle" font-size="10" fill="#8c959f" font-family="ui-monospace, SFMono-Regular, 'SF Mono', Menlo, monospace">05-16</text><text x="732.0" y="248" text-anchor="middle" font-size="10" fill="#8c959f" font-family="ui-monospace, SFMono-Regular, 'SF Mono', Menlo, monospace">06-20</text><text x="222.0" y="248" text-anchor="middle" font-size="10" fill="#8c959f" font-family="ui-monospace, SFMono-Regular, 'SF Mono', Menlo, monospace">05-21</text><text x="800.0" y="248" text-anchor="middle" font-size="10" fill="#8c959f" font-family="ui-monospace, SFMono-Regular, 'SF Mono', Menlo, monospace">06-24</text><text x="307.0" y="248" text-anchor="middle" font-size="10" fill="#8c959f" font-family="ui-monospace, SFMono-Regular, 'SF Mono', Menlo, monospace">05-26</text><text x="392.0" y="248" text-anchor="middle" font-size="10" fill="#8c959f" font-family="ui-monospace, SFMono-Regular, 'SF Mono', Menlo, monospace">05-31</text><text x="477.0" y="248" text-anchor="middle" font-size="10" fill="#8c959f" font-family="ui-monospace, SFMono-Regular, 'SF Mono', Menlo, monospace">06-05</text><text x="562.0" y="248" text-anchor="middle" font-size="10" fill="#8c959f" font-family="ui-monospace, SFMono-Regular, 'SF Mono', Menlo, monospace">06-10</text>

  <!-- legend -->
  <rect x="60" y="262" width="16" height="3" fill="#4e79a7" rx="1"/><text x="80" y="268" font-size="11" fill="#57606a" font-family="-apple-system, BlinkMacSystemFont, 'Segoe UI', sans-serif">Total clones (4,948)</text><line x1="230" y1="264" x2="246" y2="264" stroke="#f28e2b" stroke-width="2" stroke-dasharray="5,3"/><text x="250" y="268" font-size="11" fill="#57606a" font-family="-apple-system, BlinkMacSystemFont, 'Segoe UI', sans-serif">Unique cloners</text>

</svg>