<svg xmlns="http://www.w3.org/2000/svg" viewBox="0 0 820 280" width="820" height="280">

  <!-- title -->
  <text x="52" y="18" font-size="13" font-weight="600"
        fill="#24292f" font-family="-apple-system, BlinkMacSystemFont, 'Segoe UI', sans-serif"
        >Clone traffic — orthodox-calendar</text>
  <text x="800" y="18" font-size="10" fill="#8c959f"
        font-family="ui-monospace, SFMono-Regular, 'SF Mono', Menlo, monospace" text-anchor="end">2026-06-17</text>

  <!-- grid -->
  <line x1="52" y1="232.0" x2="800" y2="232.0" stroke="#e8e8e8" stroke-width="1"/><line x1="52" y1="184.9" x2="800" y2="184.9" stroke="#e8e8e8" stroke-width="1"/><line x1="52" y1="137.8" x2="800" y2="137.8" stroke="#e8e8e8" stroke-width="1"/><line x1="52" y1="90.7" x2="800" y2="90.7" stroke="#e8e8e8" stroke-width="1"/><line x1="52" y1="43.5" x2="800" y2="43.5" stroke="#e8e8e8" stroke-width="1"/><line x1="52" y1="-3.6" x2="800" y2="-3.6" stroke="#e8e8e8" stroke-width="1"/>

  <!-- area fill -->
  <path d="M52.0,226.8 L52.0,226.8 L73.4,169.6 L94.7,178.5 L116.1,28.0 L137.5,118.7 L158.9,163.5 L180.2,216.5 L201.6,76.5 L223.0,150.7 L244.3,213.2 L265.7,201.1 L287.1,194.8 L308.5,160.4 L329.8,208.0 L351.2,214.8 L372.6,217.4 L393.9,231.5 L415.3,231.5 L436.7,224.7 L458.1,213.9 L479.4,230.6 L500.8,231.3 L522.2,231.5 L543.5,232.0 L564.9,231.5 L586.3,231.1 L607.7,232.0 L629.0,230.8 L650.4,232.0 L671.8,212.2 L693.1,231.5 L714.5,229.6 L735.9,226.1 L757.3,229.2 L778.6,231.5 L800.0,231.8 L800.0,232.0 L52.0,232.0Z" fill="#4e79a7" opacity="0.12"/>

  <!-- lines -->
  <polyline points="52.0,226.8 73.4,169.6 94.7,178.5 116.1,28.0 137.5,118.7 158.9,163.5 180.2,216.5 201.6,76.5 223.0,150.7 244.3,213.2 265.7,201.1 287.1,194.8 308.5,160.4 329.8,208.0 351.2,214.8 372.6,217.4 393.9,231.5 415.3,231.5 436.7,224.7 458.1,213.9 479.4,230.6 500.8,231.3 522.2,231.5 543.5,232.0 564.9,231.5 586.3,231.1 607.7,232.0 629.0,230.8 650.4,232.0 671.8,212.2 693.1,231.5 714.5,229.6 735.9,226.1 757.3,229.2 778.6,231.5 800.0,231.8"
            fill="none" stroke="#4e79a7"
            stroke-width="2" stroke-linejoin="round"/>
  <polyline points="52.0,229.4 73.4,202.8 94.7,209.6 116.1,170.0 137.5,193.1 158.9,207.5 180.2,224.9 201.6,188.4 223.0,208.2 244.3,224.9 265.7,223.8 287.1,222.3 308.5,212.7 329.8,225.2 351.2,229.4 372.6,228.2 393.9,231.5 415.3,231.5 436.7,229.4 458.1,226.8 479.4,230.8 500.8,231.5 522.2,231.8 543.5,232.0 564.9,231.8 586.3,231.3 607.7,232.0 629.0,231.3 650.4,232.0 671.8,226.1 693.1,231.5 714.5,230.6 735.9,228.7 757.3,231.1 778.6,231.5 800.0,231.8"
            fill="none" stroke="#f28e2b"
            stroke-width="2" stroke-linejoin="round"
            stroke-dasharray="5,3"/>

  <!-- dots -->
  <circle cx="52.0" cy="226.8" r="3" fill="#4e79a7"/><circle cx="73.4" cy="169.6" r="3" fill="#4e79a7"/><circle cx="94.7" cy="178.5" r="3" fill="#4e79a7"/><circle cx="116.1" cy="28.0" r="3" fill="#4e79a7"/><circle cx="137.5" cy="118.7" r="3" fill="#4e79a7"/><circle cx="158.9" cy="163.5" r="3" fill="#4e79a7"/><circle cx="180.2" cy="216.5" r="3" fill="#4e79a7"/><circle cx="201.6" cy="76.5" r="3" fill="#4e79a7"/><circle cx="223.0" cy="150.7" r="3" fill="#4e79a7"/><circle cx="244.3" cy="213.2" r="3" fill="#4e79a7"/><circle cx="265.7" cy="201.1" r="3" fill="#4e79a7"/><circle cx="287.1" cy="194.8" r="3" fill="#4e79a7"/><circle cx="308.5" cy="160.4" r="3" fill="#4e79a7"/><circle cx="329.8" cy="208.0" r="3" fill="#4e79a7"/><circle cx="351.2" cy="214.8" r="3" fill="#4e79a7"/><circle cx="372.6" cy="217.4" r="3" fill="#4e79a7"/><circle cx="393.9" cy="231.5" r="3" fill="#4e79a7"/><circle cx="415.3" cy="231.5" r="3" fill="#4e79a7"/><circle cx="436.7" cy="224.7" r="3" fill="#4e79a7"/><circle cx="458.1" cy="213.9" r="3" fill="#4e79a7"/><circle cx="479.4" cy="230.6" r="3" fill="#4e79a7"/><circle cx="500.8" cy="231.3" r="3" fill="#4e79a7"/><circle cx="522.2" cy="231.5" r="3" fill="#4e79a7"/><circle cx="543.5" cy="232.0" r="3" fill="#4e79a7"/><circle cx="564.9" cy="231.5" r="3" fill="#4e79a7"/><circle cx="586.3" cy="231.1" r="3" fill="#4e79a7"/><circle cx="607.7" cy="232.0" r="3" fill="#4e79a7"/><circle cx="629.0" cy="230.8" r="3" fill="#4e79a7"/><circle cx="650.4" cy="232.0" r="3" fill="#4e79a7"/><circle cx="671.8" cy="212.2" r="3" fill="#4e79a7"/><circle cx="693.1" cy="231.5" r="3" fill="#4e79a7"/><circle cx="714.5" cy="229.6" r="3" fill="#4e79a7"/><circle cx="735.9" cy="226.1" r="3" fill="#4e79a7"/><circle cx="757.3" cy="229.2" r="3" fill="#4e79a7"/><circle cx="778.6" cy="231.5" r="3" fill="#4e79a7"/><circle cx="800.0" cy="231.8" r="3" fill="#4e79a7"/>
  <circle cx="52.0" cy="229.4" r="3" fill="#f28e2b"/><circle cx="73.4" cy="202.8" r="3" fill="#f28e2b"/><circle cx="94.7" cy="209.6" r="3" fill="#f28e2b"/><circle cx="116.1" cy="170.0" r="3" fill="#f28e2b"/><circle cx="137.5" cy="193.1" r="3" fill="#f28e2b"/><circle cx="158.9" cy="207.5" r="3" fill="#f28e2b"/><circle cx="180.2" cy="224.9" r="3" fill="#f28e2b"/><circle cx="201.6" cy="188.4" r="3" fill="#f28e2b"/><circle cx="223.0" cy="208.2" r="3" fill="#f28e2b"/><circle cx="244.3" cy="224.9" r="3" fill="#f28e2b"/><circle cx="265.7" cy="223.8" r="3" fill="#f28e2b"/><circle cx="287.1" cy="222.3" r="3" fill="#f28e2b"/><circle cx="308.5" cy="212.7" r="3" fill="#f28e2b"/><circle cx="329.8" cy="225.2" r="3" fill="#f28e2b"/><circle cx="351.2" cy="229.4" r="3" fill="#f28e2b"/><circle cx="372.6" cy="228.2" r="3" fill="#f28e2b"/><circle cx="393.9" cy="231.5" r="3" fill="#f28e2b"/><circle cx="415.3" cy="231.5" r="3" fill="#f28e2b"/><circle cx="436.7" cy="229.4" r="3" fill="#f28e2b"/><circle cx="458.1" cy="226.8" r="3" fill="#f28e2b"/><circle cx="479.4" cy="230.8" r="3" fill="#f28e2b"/><circle cx="500.8" cy="231.5" r="3" fill="#f28e2b"/><circle cx="522.2" cy="231.8" r="3" fill="#f28e2b"/><circle cx="543.5" cy="232.0" r="3" fill="#f28e2b"/><circle cx="564.9" cy="231.8" r="3" fill="#f28e2b"/><circle cx="586.3" cy="231.3" r="3" fill="#f28e2b"/><circle cx="607.7" cy="232.0" r="3" fill="#f28e2b"/><circle cx="629.0" cy="231.3" r="3" fill="#f28e2b"/><circle cx="650.4" cy="232.0" r="3" fill="#f28e2b"/><circle cx="671.8" cy="226.1" r="3" fill="#f28e2b"/><circle cx="693.1" cy="231.5" r="3" fill="#f28e2b"/><circle cx="714.5" cy="230.6" r="3" fill="#f28e2b"/><circle cx="735.9" cy="228.7" r="3" fill="#f28e2b"/><circle cx="757.3" cy="231.1" r="3" fill="#f28e2b"/><circle cx="778.6" cy="231.5" r="3" fill="#f28e2b"/><circle cx="800.0" cy="231.8" r="3" fill="#f28e2b"/>

  <!-- axes -->
  <line x1="52" y1="28" x2="52" y2="232"
        stroke="#cccccc" stroke-width="1"/>
  <line x1="52" y1="232" x2="800" y2="232"
        stroke="#cccccc" stroke-width="1"/>

  <!-- y-axis labels -->
  <text x="47" y="236.0" text-anchor="end" font-size="10" fill="#57606a" font-family="ui-monospace, SFMono-Regular, 'SF Mono', Menlo, monospace">0</text><text x="47" y="188.9" text-anchor="end" font-size="10" fill="#57606a" font-family="ui-monospace, SFMono-Regular, 'SF Mono', Menlo, monospace">200</text><text x="47" y="141.8" text-anchor="end" font-size="10" fill="#57606a" font-family="ui-monospace, SFMono-Regular, 'SF Mono', Menlo, monospace">400</text><text x="47" y="94.7" text-anchor="end" font-size="10" fill="#57606a" font-family="ui-monospace, SFMono-Regular, 'SF Mono', Menlo, monospace">600</text><text x="47" y="47.5" text-anchor="end" font-size="10" fill="#57606a" font-family="ui-monospace, SFMono-Regular, 'SF Mono', Menlo, monospace">800</text><text x="47" y="0.4" text-anchor="end" font-size="10" fill="#57606a" font-family="ui-monospace, SFMono-Regular, 'SF Mono', Menlo, monospace">1,000</text>

  <!-- x-axis labels -->
  <text x="52.0" y="248" text-anchor="middle" font-size="10" fill="#8c959f" font-family="ui-monospace, SFMono-Regular, 'SF Mono', Menlo, monospace">05-11</text><text x="735.9" y="248" text-anchor="middle" font-size="10" fill="#8c959f" font-family="ui-monospace, SFMono-Regular, 'SF Mono', Menlo, monospace">06-12</text><text x="800.0" y="248" text-anchor="middle" font-size="10" fill="#8c959f" font-family="ui-monospace, SFMono-Regular, 'SF Mono', Menlo, monospace">06-15</text><text x="137.5" y="248" text-anchor="middle" font-size="10" fill="#8c959f" font-family="ui-monospace, SFMono-Regular, 'SF Mono', Menlo, monospace">05-15</text><text x="223.0" y="248" text-anchor="middle" font-size="10" fill="#8c959f" font-family="ui-monospace, SFMono-Regular, 'SF Mono', Menlo, monospace">05-19</text><text x="308.5" y="248" text-anchor="middle" font-size="10" fill="#8c959f" font-family="ui-monospace, SFMono-Regular, 'SF Mono', Menlo, monospace">05-23</text><text x="393.9" y="248" text-anchor="middle" font-size="10" fill="#8c959f" font-family="ui-monospace, SFMono-Regular, 'SF Mono', Menlo, monospace">05-27</text><text x="479.4" y="248" text-anchor="middle" font-size="10" fill="#8c959f" font-family="ui-monospace, SFMono-Regular, 'SF Mono', Menlo, monospace">05-31</text><text x="564.9" y="248" text-anchor="middle" font-size="10" fill="#8c959f" font-family="ui-monospace, SFMono-Regular, 'SF Mono', Menlo, monospace">06-04</text><text x="650.4" y="248" text-anchor="middle" font-size="10" fill="#8c959f" font-family="ui-monospace, SFMono-Regular, 'SF Mono', Menlo, monospace">06-08</text>

  <!-- legend -->
  <rect x="60" y="262" width="16" height="3" fill="#4e79a7" rx="1"/><text x="80" y="268" font-size="11" fill="#57606a" font-family="-apple-system, BlinkMacSystemFont, 'Segoe UI', sans-serif">Total clones (4,403)</text><line x1="230" y1="264" x2="246" y2="264" stroke="#f28e2b" stroke-width="2" stroke-dasharray="5,3"/><text x="250" y="268" font-size="11" fill="#57606a" font-family="-apple-system, BlinkMacSystemFont, 'Segoe UI', sans-serif">Unique cloners</text>

</svg>