<svg xmlns="http://www.w3.org/2000/svg" viewBox="0 0 820 280" width="820" height="280">

  <!-- title -->
  <text x="52" y="18" font-size="13" font-weight="600"
        fill="#24292f" font-family="-apple-system, BlinkMacSystemFont, 'Segoe UI', sans-serif"
        >Clone traffic — orthodox-calendar</text>
  <text x="800" y="18" font-size="10" fill="#8c959f"
        font-family="ui-monospace, SFMono-Regular, 'SF Mono', Menlo, monospace" text-anchor="end">2026-07-10</text>

  <!-- grid -->
  <line x1="52" y1="232.0" x2="800" y2="232.0" stroke="#e8e8e8" stroke-width="1"/><line x1="52" y1="184.9" x2="800" y2="184.9" stroke="#e8e8e8" stroke-width="1"/><line x1="52" y1="137.8" x2="800" y2="137.8" stroke="#e8e8e8" stroke-width="1"/><line x1="52" y1="90.7" x2="800" y2="90.7" stroke="#e8e8e8" stroke-width="1"/><line x1="52" y1="43.5" x2="800" y2="43.5" stroke="#e8e8e8" stroke-width="1"/><line x1="52" y1="-3.6" x2="800" y2="-3.6" stroke="#e8e8e8" stroke-width="1"/>

  <!-- area fill -->
  <path d="M52.0,226.8 L52.0,226.8 L64.9,169.6 L77.8,178.5 L90.7,28.0 L103.6,118.7 L116.5,163.5 L129.4,216.5 L142.3,76.5 L155.2,150.7 L168.1,213.2 L181.0,201.1 L193.9,194.8 L206.8,160.4 L219.7,208.0 L232.6,214.8 L245.4,217.4 L258.3,231.5 L271.2,231.5 L284.1,224.7 L297.0,213.9 L309.9,230.6 L322.8,231.3 L335.7,231.5 L348.6,232.0 L361.5,231.5 L374.4,231.1 L387.3,232.0 L400.2,230.8 L413.1,232.0 L426.0,212.2 L438.9,231.5 L451.8,229.6 L464.7,226.1 L477.6,229.2 L490.5,231.5 L503.4,231.8 L516.3,228.5 L529.2,231.8 L542.1,230.8 L555.0,212.7 L567.9,130.5 L580.8,231.1 L593.7,231.8 L606.6,231.3 L619.4,231.3 L632.3,232.0 L645.2,231.5 L658.1,232.0 L671.0,231.5 L683.9,231.8 L696.8,231.3 L709.7,231.5 L722.6,232.0 L735.5,232.0 L748.4,231.8 L761.3,232.0 L774.2,232.0 L787.1,232.0 L800.0,232.0 L800.0,232.0 L52.0,232.0Z" fill="#4e79a7" opacity="0.12"/>

  <!-- lines -->
  <polyline points="52.0,226.8 64.9,169.6 77.8,178.5 90.7,28.0 103.6,118.7 116.5,163.5 129.4,216.5 142.3,76.5 155.2,150.7 168.1,213.2 181.0,201.1 193.9,194.8 206.8,160.4 219.7,208.0 232.6,214.8 245.4,217.4 258.3,231.5 271.2,231.5 284.1,224.7 297.0,213.9 309.9,230.6 322.8,231.3 335.7,231.5 348.6,232.0 361.5,231.5 374.4,231.1 387.3,232.0 400.2,230.8 413.1,232.0 426.0,212.2 438.9,231.5 451.8,229.6 464.7,226.1 477.6,229.2 490.5,231.5 503.4,231.8 516.3,228.5 529.2,231.8 542.1,230.8 555.0,212.7 567.9,130.5 580.8,231.1 593.7,231.8 606.6,231.3 619.4,231.3 632.3,232.0 645.2,231.5 658.1,232.0 671.0,231.5 683.9,231.8 696.8,231.3 709.7,231.5 722.6,232.0 735.5,232.0 748.4,231.8 761.3,232.0 774.2,232.0 787.1,232.0 800.0,232.0"
            fill="none" stroke="#4e79a7"
            stroke-width="2" stroke-linejoin="round"/>
  <polyline points="52.0,229.4 64.9,202.8 77.8,209.6 90.7,170.0 103.6,193.1 116.5,207.5 129.4,224.9 142.3,188.4 155.2,208.2 168.1,224.9 181.0,223.8 193.9,222.3 206.8,212.7 219.7,225.2 232.6,229.4 245.4,228.2 258.3,231.5 271.2,231.5 284.1,229.4 297.0,226.8 309.9,230.8 322.8,231.5 335.7,231.8 348.6,232.0 361.5,231.8 374.4,231.3 387.3,232.0 400.2,231.3 413.1,232.0 426.0,226.1 438.9,231.5 451.8,230.6 464.7,228.7 477.6,231.1 490.5,231.5 503.4,231.8 516.3,230.6 529.2,231.8 542.1,231.5 555.0,226.8 567.9,217.2 580.8,231.3 593.7,231.8 606.6,231.5 619.4,231.5 632.3,232.0 645.2,231.8 658.1,232.0 671.0,231.8 683.9,231.8 696.8,231.5 709.7,231.8 722.6,232.0 735.5,232.0 748.4,231.8 761.3,232.0 774.2,232.0 787.1,232.0 800.0,232.0"
            fill="none" stroke="#f28e2b"
            stroke-width="2" stroke-linejoin="round"
            stroke-dasharray="5,3"/>

  <!-- dots -->
  <circle cx="52.0" cy="226.8" r="3" fill="#4e79a7"/><circle cx="64.9" cy="169.6" r="3" fill="#4e79a7"/><circle cx="77.8" cy="178.5" r="3" fill="#4e79a7"/><circle cx="90.7" cy="28.0" r="3" fill="#4e79a7"/><circle cx="103.6" cy="118.7" r="3" fill="#4e79a7"/><circle cx="116.5" cy="163.5" r="3" fill="#4e79a7"/><circle cx="129.4" cy="216.5" r="3" fill="#4e79a7"/><circle cx="142.3" cy="76.5" r="3" fill="#4e79a7"/><circle cx="155.2" cy="150.7" r="3" fill="#4e79a7"/><circle cx="168.1" cy="213.2" r="3" fill="#4e79a7"/><circle cx="181.0" cy="201.1" r="3" fill="#4e79a7"/><circle cx="193.9" cy="194.8" r="3" fill="#4e79a7"/><circle cx="206.8" cy="160.4" r="3" fill="#4e79a7"/><circle cx="219.7" cy="208.0" r="3" fill="#4e79a7"/><circle cx="232.6" cy="214.8" r="3" fill="#4e79a7"/><circle cx="245.4" cy="217.4" r="3" fill="#4e79a7"/><circle cx="258.3" cy="231.5" r="3" fill="#4e79a7"/><circle cx="271.2" cy="231.5" r="3" fill="#4e79a7"/><circle cx="284.1" cy="224.7" r="3" fill="#4e79a7"/><circle cx="297.0" cy="213.9" r="3" fill="#4e79a7"/><circle cx="309.9" cy="230.6" r="3" fill="#4e79a7"/><circle cx="322.8" cy="231.3" r="3" fill="#4e79a7"/><circle cx="335.7" cy="231.5" r="3" fill="#4e79a7"/><circle cx="348.6" cy="232.0" r="3" fill="#4e79a7"/><circle cx="361.5" cy="231.5" r="3" fill="#4e79a7"/><circle cx="374.4" cy="231.1" r="3" fill="#4e79a7"/><circle cx="387.3" cy="232.0" r="3" fill="#4e79a7"/><circle cx="400.2" cy="230.8" r="3" fill="#4e79a7"/><circle cx="413.1" cy="232.0" r="3" fill="#4e79a7"/><circle cx="426.0" cy="212.2" r="3" fill="#4e79a7"/><circle cx="438.9" cy="231.5" r="3" fill="#4e79a7"/><circle cx="451.8" cy="229.6" r="3" fill="#4e79a7"/><circle cx="464.7" cy="226.1" r="3" fill="#4e79a7"/><circle cx="477.6" cy="229.2" r="3" fill="#4e79a7"/><circle cx="490.5" cy="231.5" r="3" fill="#4e79a7"/><circle cx="503.4" cy="231.8" r="3" fill="#4e79a7"/><circle cx="516.3" cy="228.5" r="3" fill="#4e79a7"/><circle cx="529.2" cy="231.8" r="3" fill="#4e79a7"/><circle cx="542.1" cy="230.8" r="3" fill="#4e79a7"/><circle cx="555.0" cy="212.7" r="3" fill="#4e79a7"/><circle cx="567.9" cy="130.5" r="3" fill="#4e79a7"/><circle cx="580.8" cy="231.1" r="3" fill="#4e79a7"/><circle cx="593.7" cy="231.8" r="3" fill="#4e79a7"/><circle cx="606.6" cy="231.3" r="3" fill="#4e79a7"/><circle cx="619.4" cy="231.3" r="3" fill="#4e79a7"/><circle cx="632.3" cy="232.0" r="3" fill="#4e79a7"/><circle cx="645.2" cy="231.5" r="3" fill="#4e79a7"/><circle cx="658.1" cy="232.0" r="3" fill="#4e79a7"/><circle cx="671.0" cy="231.5" r="3" fill="#4e79a7"/><circle cx="683.9" cy="231.8" r="3" fill="#4e79a7"/><circle cx="696.8" cy="231.3" r="3" fill="#4e79a7"/><circle cx="709.7" cy="231.5" r="3" fill="#4e79a7"/><circle cx="722.6" cy="232.0" r="3" fill="#4e79a7"/><circle cx="735.5" cy="232.0" r="3" fill="#4e79a7"/><circle cx="748.4" cy="231.8" r="3" fill="#4e79a7"/><circle cx="761.3" cy="232.0" r="3" fill="#4e79a7"/><circle cx="774.2" cy="232.0" r="3" fill="#4e79a7"/><circle cx="787.1" cy="232.0" r="3" fill="#4e79a7"/><circle cx="800.0" cy="232.0" r="3" fill="#4e79a7"/>
  <circle cx="52.0" cy="229.4" r="3" fill="#f28e2b"/><circle cx="64.9" cy="202.8" r="3" fill="#f28e2b"/><circle cx="77.8" cy="209.6" r="3" fill="#f28e2b"/><circle cx="90.7" cy="170.0" r="3" fill="#f28e2b"/><circle cx="103.6" cy="193.1" r="3" fill="#f28e2b"/><circle cx="116.5" cy="207.5" r="3" fill="#f28e2b"/><circle cx="129.4" cy="224.9" r="3" fill="#f28e2b"/><circle cx="142.3" cy="188.4" r="3" fill="#f28e2b"/><circle cx="155.2" cy="208.2" r="3" fill="#f28e2b"/><circle cx="168.1" cy="224.9" r="3" fill="#f28e2b"/><circle cx="181.0" cy="223.8" r="3" fill="#f28e2b"/><circle cx="193.9" cy="222.3" r="3" fill="#f28e2b"/><circle cx="206.8" cy="212.7" r="3" fill="#f28e2b"/><circle cx="219.7" cy="225.2" r="3" fill="#f28e2b"/><circle cx="232.6" cy="229.4" r="3" fill="#f28e2b"/><circle cx="245.4" cy="228.2" r="3" fill="#f28e2b"/><circle cx="258.3" cy="231.5" r="3" fill="#f28e2b"/><circle cx="271.2" cy="231.5" r="3" fill="#f28e2b"/><circle cx="284.1" cy="229.4" r="3" fill="#f28e2b"/><circle cx="297.0" cy="226.8" r="3" fill="#f28e2b"/><circle cx="309.9" cy="230.8" r="3" fill="#f28e2b"/><circle cx="322.8" cy="231.5" r="3" fill="#f28e2b"/><circle cx="335.7" cy="231.8" r="3" fill="#f28e2b"/><circle cx="348.6" cy="232.0" r="3" fill="#f28e2b"/><circle cx="361.5" cy="231.8" r="3" fill="#f28e2b"/><circle cx="374.4" cy="231.3" r="3" fill="#f28e2b"/><circle cx="387.3" cy="232.0" r="3" fill="#f28e2b"/><circle cx="400.2" cy="231.3" r="3" fill="#f28e2b"/><circle cx="413.1" cy="232.0" r="3" fill="#f28e2b"/><circle cx="426.0" cy="226.1" r="3" fill="#f28e2b"/><circle cx="438.9" cy="231.5" r="3" fill="#f28e2b"/><circle cx="451.8" cy="230.6" r="3" fill="#f28e2b"/><circle cx="464.7" cy="228.7" r="3" fill="#f28e2b"/><circle cx="477.6" cy="231.1" r="3" fill="#f28e2b"/><circle cx="490.5" cy="231.5" r="3" fill="#f28e2b"/><circle cx="503.4" cy="231.8" r="3" fill="#f28e2b"/><circle cx="516.3" cy="230.6" r="3" fill="#f28e2b"/><circle cx="529.2" cy="231.8" r="3" fill="#f28e2b"/><circle cx="542.1" cy="231.5" r="3" fill="#f28e2b"/><circle cx="555.0" cy="226.8" r="3" fill="#f28e2b"/><circle cx="567.9" cy="217.2" r="3" fill="#f28e2b"/><circle cx="580.8" cy="231.3" r="3" fill="#f28e2b"/><circle cx="593.7" cy="231.8" r="3" fill="#f28e2b"/><circle cx="606.6" cy="231.5" r="3" fill="#f28e2b"/><circle cx="619.4" cy="231.5" r="3" fill="#f28e2b"/><circle cx="632.3" cy="232.0" r="3" fill="#f28e2b"/><circle cx="645.2" cy="231.8" r="3" fill="#f28e2b"/><circle cx="658.1" cy="232.0" r="3" fill="#f28e2b"/><circle cx="671.0" cy="231.8" r="3" fill="#f28e2b"/><circle cx="683.9" cy="231.8" r="3" fill="#f28e2b"/><circle cx="696.8" cy="231.5" r="3" fill="#f28e2b"/><circle cx="709.7" cy="231.8" r="3" fill="#f28e2b"/><circle cx="722.6" cy="232.0" r="3" fill="#f28e2b"/><circle cx="735.5" cy="232.0" r="3" fill="#f28e2b"/><circle cx="748.4" cy="231.8" r="3" fill="#f28e2b"/><circle cx="761.3" cy="232.0" r="3" fill="#f28e2b"/><circle cx="774.2" cy="232.0" r="3" fill="#f28e2b"/><circle cx="787.1" cy="232.0" r="3" fill="#f28e2b"/><circle cx="800.0" cy="232.0" r="3" fill="#f28e2b"/>

  <!-- axes -->
  <line x1="52" y1="28" x2="52" y2="232"
        stroke="#cccccc" stroke-width="1"/>
  <line x1="52" y1="232" x2="800" y2="232"
        stroke="#cccccc" stroke-width="1"/>

  <!-- y-axis labels -->
  <text x="47" y="236.0" text-anchor="end" font-size="10" fill="#57606a" font-family="ui-monospace, SFMono-Regular, 'SF Mono', Menlo, monospace">0</text><text x="47" y="188.9" text-anchor="end" font-size="10" fill="#57606a" font-family="ui-monospace, SFMono-Regular, 'SF Mono', Menlo, monospace">200</text><text x="47" y="141.8" text-anchor="end" font-size="10" fill="#57606a" font-family="ui-monospace, SFMono-Regular, 'SF Mono', Menlo, monospace">400</text><text x="47" y="94.7" text-anchor="end" font-size="10" fill="#57606a" font-family="ui-monospace, SFMono-Regular, 'SF Mono', Menlo, monospace">600</text><text x="47" y="47.5" text-anchor="end" font-size="10" fill="#57606a" font-family="ui-monospace, SFMono-Regular, 'SF Mono', Menlo, monospace">800</text><text x="47" y="0.4" text-anchor="end" font-size="10" fill="#57606a" font-family="ui-monospace, SFMono-Regular, 'SF Mono', Menlo, monospace">1,000</text>

  <!-- x-axis labels -->
  <text x="52.0" y="248" text-anchor="middle" font-size="10" fill="#8c959f" font-family="ui-monospace, SFMono-Regular, 'SF Mono', Menlo, monospace">05-11</text><text x="503.4" y="248" text-anchor="middle" font-size="10" fill="#8c959f" font-family="ui-monospace, SFMono-Regular, 'SF Mono', Menlo, monospace">06-15</text><text x="142.3" y="248" text-anchor="middle" font-size="10" fill="#8c959f" font-family="ui-monospace, SFMono-Regular, 'SF Mono', Menlo, monospace">05-18</text><text x="593.7" y="248" text-anchor="middle" font-size="10" fill="#8c959f" font-family="ui-monospace, SFMono-Regular, 'SF Mono', Menlo, monospace">06-22</text><text x="232.6" y="248" text-anchor="middle" font-size="10" fill="#8c959f" font-family="ui-monospace, SFMono-Regular, 'SF Mono', Menlo, monospace">05-25</text><text x="683.9" y="248" text-anchor="middle" font-size="10" fill="#8c959f" font-family="ui-monospace, SFMono-Regular, 'SF Mono', Menlo, monospace">06-29</text><text x="322.8" y="248" text-anchor="middle" font-size="10" fill="#8c959f" font-family="ui-monospace, SFMono-Regular, 'SF Mono', Menlo, monospace">06-01</text><text x="774.2" y="248" text-anchor="middle" font-size="10" fill="#8c959f" font-family="ui-monospace, SFMono-Regular, 'SF Mono', Menlo, monospace">07-06</text><text x="800.0" y="248" text-anchor="middle" font-size="10" fill="#8c959f" font-family="ui-monospace, SFMono-Regular, 'SF Mono', Menlo, monospace">07-08</text><text x="413.1" y="248" text-anchor="middle" font-size="10" fill="#8c959f" font-family="ui-monospace, SFMono-Regular, 'SF Mono', Menlo, monospace">06-08</text>

  <!-- legend -->
  <rect x="60" y="262" width="16" height="3" fill="#4e79a7" rx="1"/><text x="80" y="268" font-size="11" fill="#57606a" font-family="-apple-system, BlinkMacSystemFont, 'Segoe UI', sans-serif">Total clones (4,959)</text><line x1="230" y1="264" x2="246" y2="264" stroke="#f28e2b" stroke-width="2" stroke-dasharray="5,3"/><text x="250" y="268" font-size="11" fill="#57606a" font-family="-apple-system, BlinkMacSystemFont, 'Segoe UI', sans-serif">Unique cloners</text>

</svg>