<svg xmlns="http://www.w3.org/2000/svg" viewBox="0 0 820 280" width="820" height="280">

  <!-- title -->
  <text x="52" y="18" font-size="13" font-weight="600"
        fill="#24292f" font-family="-apple-system, BlinkMacSystemFont, 'Segoe UI', sans-serif"
        >Clone traffic — orthodox-calendar</text>
  <text x="800" y="18" font-size="10" fill="#8c959f"
        font-family="ui-monospace, SFMono-Regular, 'SF Mono', Menlo, monospace" text-anchor="end">2026-07-22</text>

  <!-- grid -->
  <line x1="52" y1="232.0" x2="800" y2="232.0" stroke="#e8e8e8" stroke-width="1"/><line x1="52" y1="184.9" x2="800" y2="184.9" stroke="#e8e8e8" stroke-width="1"/><line x1="52" y1="137.8" x2="800" y2="137.8" stroke="#e8e8e8" stroke-width="1"/><line x1="52" y1="90.7" x2="800" y2="90.7" stroke="#e8e8e8" stroke-width="1"/><line x1="52" y1="43.5" x2="800" y2="43.5" stroke="#e8e8e8" stroke-width="1"/><line x1="52" y1="-3.6" x2="800" y2="-3.6" stroke="#e8e8e8" stroke-width="1"/>

  <!-- area fill -->
  <path d="M52.0,226.8 L52.0,226.8 L62.7,169.6 L73.4,178.5 L84.1,28.0 L94.7,118.7 L105.4,163.5 L116.1,216.5 L126.8,76.5 L137.5,150.7 L148.2,213.2 L158.9,201.1 L169.5,194.8 L180.2,160.4 L190.9,208.0 L201.6,214.8 L212.3,217.4 L223.0,231.5 L233.7,231.5 L244.3,224.7 L255.0,213.9 L265.7,230.6 L276.4,231.3 L287.1,231.5 L297.8,232.0 L308.5,231.5 L319.1,231.1 L329.8,232.0 L340.5,230.8 L351.2,232.0 L361.9,212.2 L372.6,231.5 L383.3,229.6 L393.9,226.1 L404.6,229.2 L415.3,231.5 L426.0,231.8 L436.7,228.5 L447.4,231.8 L458.1,230.8 L468.7,212.7 L479.4,130.5 L490.1,231.1 L500.8,231.8 L511.5,231.3 L522.2,231.3 L532.9,232.0 L543.5,231.5 L554.2,232.0 L564.9,231.5 L575.6,231.8 L586.3,231.3 L597.0,231.5 L607.7,232.0 L618.3,232.0 L629.0,231.8 L639.7,232.0 L650.4,232.0 L661.1,232.0 L671.8,232.0 L682.5,231.8 L693.1,231.3 L703.8,232.0 L714.5,232.0 L725.2,231.5 L735.9,232.0 L746.6,232.0 L757.3,231.5 L767.9,231.8 L778.6,226.1 L789.3,232.0 L800.0,231.5 L800.0,232.0 L52.0,232.0Z" fill="#4e79a7" opacity="0.12"/>

  <!-- lines -->
  <polyline points="52.0,226.8 62.7,169.6 73.4,178.5 84.1,28.0 94.7,118.7 105.4,163.5 116.1,216.5 126.8,76.5 137.5,150.7 148.2,213.2 158.9,201.1 169.5,194.8 180.2,160.4 190.9,208.0 201.6,214.8 212.3,217.4 223.0,231.5 233.7,231.5 244.3,224.7 255.0,213.9 265.7,230.6 276.4,231.3 287.1,231.5 297.8,232.0 308.5,231.5 319.1,231.1 329.8,232.0 340.5,230.8 351.2,232.0 361.9,212.2 372.6,231.5 383.3,229.6 393.9,226.1 404.6,229.2 415.3,231.5 426.0,231.8 436.7,228.5 447.4,231.8 458.1,230.8 468.7,212.7 479.4,130.5 490.1,231.1 500.8,231.8 511.5,231.3 522.2,231.3 532.9,232.0 543.5,231.5 554.2,232.0 564.9,231.5 575.6,231.8 586.3,231.3 597.0,231.5 607.7,232.0 618.3,232.0 629.0,231.8 639.7,232.0 650.4,232.0 661.1,232.0 671.8,232.0 682.5,231.8 693.1,231.3 703.8,232.0 714.5,232.0 725.2,231.5 735.9,232.0 746.6,232.0 757.3,231.5 767.9,231.8 778.6,226.1 789.3,232.0 800.0,231.5"
            fill="none" stroke="#4e79a7"
            stroke-width="2" stroke-linejoin="round"/>
  <polyline points="52.0,229.4 62.7,202.8 73.4,209.6 84.1,170.0 94.7,193.1 105.4,207.5 116.1,224.9 126.8,188.4 137.5,208.2 148.2,224.9 158.9,223.8 169.5,222.3 180.2,212.7 190.9,225.2 201.6,229.4 212.3,228.2 223.0,231.5 233.7,231.5 244.3,229.4 255.0,226.8 265.7,230.8 276.4,231.5 287.1,231.8 297.8,232.0 308.5,231.8 319.1,231.3 329.8,232.0 340.5,231.3 351.2,232.0 361.9,226.1 372.6,231.5 383.3,230.6 393.9,228.7 404.6,231.1 415.3,231.5 426.0,231.8 436.7,230.6 447.4,231.8 458.1,231.5 468.7,226.8 479.4,217.2 490.1,231.3 500.8,231.8 511.5,231.5 522.2,231.5 532.9,232.0 543.5,231.8 554.2,232.0 564.9,231.8 575.6,231.8 586.3,231.5 597.0,231.8 607.7,232.0 618.3,232.0 629.0,231.8 639.7,232.0 650.4,232.0 661.1,232.0 671.8,232.0 682.5,231.8 693.1,231.5 703.8,232.0 714.5,232.0 725.2,231.8 735.9,232.0 746.6,232.0 757.3,231.5 767.9,231.8 778.6,231.3 789.3,232.0 800.0,231.8"
            fill="none" stroke="#f28e2b"
            stroke-width="2" stroke-linejoin="round"
            stroke-dasharray="5,3"/>

  <!-- dots -->
  <circle cx="52.0" cy="226.8" r="3" fill="#4e79a7"/><circle cx="62.7" cy="169.6" r="3" fill="#4e79a7"/><circle cx="73.4" cy="178.5" r="3" fill="#4e79a7"/><circle cx="84.1" cy="28.0" r="3" fill="#4e79a7"/><circle cx="94.7" cy="118.7" r="3" fill="#4e79a7"/><circle cx="105.4" cy="163.5" r="3" fill="#4e79a7"/><circle cx="116.1" cy="216.5" r="3" fill="#4e79a7"/><circle cx="126.8" cy="76.5" r="3" fill="#4e79a7"/><circle cx="137.5" cy="150.7" r="3" fill="#4e79a7"/><circle cx="148.2" cy="213.2" r="3" fill="#4e79a7"/><circle cx="158.9" cy="201.1" r="3" fill="#4e79a7"/><circle cx="169.5" cy="194.8" r="3" fill="#4e79a7"/><circle cx="180.2" cy="160.4" r="3" fill="#4e79a7"/><circle cx="190.9" cy="208.0" r="3" fill="#4e79a7"/><circle cx="201.6" cy="214.8" r="3" fill="#4e79a7"/><circle cx="212.3" cy="217.4" r="3" fill="#4e79a7"/><circle cx="223.0" cy="231.5" r="3" fill="#4e79a7"/><circle cx="233.7" cy="231.5" r="3" fill="#4e79a7"/><circle cx="244.3" cy="224.7" r="3" fill="#4e79a7"/><circle cx="255.0" cy="213.9" r="3" fill="#4e79a7"/><circle cx="265.7" cy="230.6" r="3" fill="#4e79a7"/><circle cx="276.4" cy="231.3" r="3" fill="#4e79a7"/><circle cx="287.1" cy="231.5" r="3" fill="#4e79a7"/><circle cx="297.8" cy="232.0" r="3" fill="#4e79a7"/><circle cx="308.5" cy="231.5" r="3" fill="#4e79a7"/><circle cx="319.1" cy="231.1" r="3" fill="#4e79a7"/><circle cx="329.8" cy="232.0" r="3" fill="#4e79a7"/><circle cx="340.5" cy="230.8" r="3" fill="#4e79a7"/><circle cx="351.2" cy="232.0" r="3" fill="#4e79a7"/><circle cx="361.9" cy="212.2" r="3" fill="#4e79a7"/><circle cx="372.6" cy="231.5" r="3" fill="#4e79a7"/><circle cx="383.3" cy="229.6" r="3" fill="#4e79a7"/><circle cx="393.9" cy="226.1" r="3" fill="#4e79a7"/><circle cx="404.6" cy="229.2" r="3" fill="#4e79a7"/><circle cx="415.3" cy="231.5" r="3" fill="#4e79a7"/><circle cx="426.0" cy="231.8" r="3" fill="#4e79a7"/><circle cx="436.7" cy="228.5" r="3" fill="#4e79a7"/><circle cx="447.4" cy="231.8" r="3" fill="#4e79a7"/><circle cx="458.1" cy="230.8" r="3" fill="#4e79a7"/><circle cx="468.7" cy="212.7" r="3" fill="#4e79a7"/><circle cx="479.4" cy="130.5" r="3" fill="#4e79a7"/><circle cx="490.1" cy="231.1" r="3" fill="#4e79a7"/><circle cx="500.8" cy="231.8" r="3" fill="#4e79a7"/><circle cx="511.5" cy="231.3" r="3" fill="#4e79a7"/><circle cx="522.2" cy="231.3" r="3" fill="#4e79a7"/><circle cx="532.9" cy="232.0" r="3" fill="#4e79a7"/><circle cx="543.5" cy="231.5" r="3" fill="#4e79a7"/><circle cx="554.2" cy="232.0" r="3" fill="#4e79a7"/><circle cx="564.9" cy="231.5" r="3" fill="#4e79a7"/><circle cx="575.6" cy="231.8" r="3" fill="#4e79a7"/><circle cx="586.3" cy="231.3" r="3" fill="#4e79a7"/><circle cx="597.0" cy="231.5" r="3" fill="#4e79a7"/><circle cx="607.7" cy="232.0" r="3" fill="#4e79a7"/><circle cx="618.3" cy="232.0" r="3" fill="#4e79a7"/><circle cx="629.0" cy="231.8" r="3" fill="#4e79a7"/><circle cx="639.7" cy="232.0" r="3" fill="#4e79a7"/><circle cx="650.4" cy="232.0" r="3" fill="#4e79a7"/><circle cx="661.1" cy="232.0" r="3" fill="#4e79a7"/><circle cx="671.8" cy="232.0" r="3" fill="#4e79a7"/><circle cx="682.5" cy="231.8" r="3" fill="#4e79a7"/><circle cx="693.1" cy="231.3" r="3" fill="#4e79a7"/><circle cx="703.8" cy="232.0" r="3" fill="#4e79a7"/><circle cx="714.5" cy="232.0" r="3" fill="#4e79a7"/><circle cx="725.2" cy="231.5" r="3" fill="#4e79a7"/><circle cx="735.9" cy="232.0" r="3" fill="#4e79a7"/><circle cx="746.6" cy="232.0" r="3" fill="#4e79a7"/><circle cx="757.3" cy="231.5" r="3" fill="#4e79a7"/><circle cx="767.9" cy="231.8" r="3" fill="#4e79a7"/><circle cx="778.6" cy="226.1" r="3" fill="#4e79a7"/><circle cx="789.3" cy="232.0" r="3" fill="#4e79a7"/><circle cx="800.0" cy="231.5" r="3" fill="#4e79a7"/>
  <circle cx="52.0" cy="229.4" r="3" fill="#f28e2b"/><circle cx="62.7" cy="202.8" r="3" fill="#f28e2b"/><circle cx="73.4" cy="209.6" r="3" fill="#f28e2b"/><circle cx="84.1" cy="170.0" r="3" fill="#f28e2b"/><circle cx="94.7" cy="193.1" r="3" fill="#f28e2b"/><circle cx="105.4" cy="207.5" r="3" fill="#f28e2b"/><circle cx="116.1" cy="224.9" r="3" fill="#f28e2b"/><circle cx="126.8" cy="188.4" r="3" fill="#f28e2b"/><circle cx="137.5" cy="208.2" r="3" fill="#f28e2b"/><circle cx="148.2" cy="224.9" r="3" fill="#f28e2b"/><circle cx="158.9" cy="223.8" r="3" fill="#f28e2b"/><circle cx="169.5" cy="222.3" r="3" fill="#f28e2b"/><circle cx="180.2" cy="212.7" r="3" fill="#f28e2b"/><circle cx="190.9" cy="225.2" r="3" fill="#f28e2b"/><circle cx="201.6" cy="229.4" r="3" fill="#f28e2b"/><circle cx="212.3" cy="228.2" r="3" fill="#f28e2b"/><circle cx="223.0" cy="231.5" r="3" fill="#f28e2b"/><circle cx="233.7" cy="231.5" r="3" fill="#f28e2b"/><circle cx="244.3" cy="229.4" r="3" fill="#f28e2b"/><circle cx="255.0" cy="226.8" r="3" fill="#f28e2b"/><circle cx="265.7" cy="230.8" r="3" fill="#f28e2b"/><circle cx="276.4" cy="231.5" r="3" fill="#f28e2b"/><circle cx="287.1" cy="231.8" r="3" fill="#f28e2b"/><circle cx="297.8" cy="232.0" r="3" fill="#f28e2b"/><circle cx="308.5" cy="231.8" r="3" fill="#f28e2b"/><circle cx="319.1" cy="231.3" r="3" fill="#f28e2b"/><circle cx="329.8" cy="232.0" r="3" fill="#f28e2b"/><circle cx="340.5" cy="231.3" r="3" fill="#f28e2b"/><circle cx="351.2" cy="232.0" r="3" fill="#f28e2b"/><circle cx="361.9" cy="226.1" r="3" fill="#f28e2b"/><circle cx="372.6" cy="231.5" r="3" fill="#f28e2b"/><circle cx="383.3" cy="230.6" r="3" fill="#f28e2b"/><circle cx="393.9" cy="228.7" r="3" fill="#f28e2b"/><circle cx="404.6" cy="231.1" r="3" fill="#f28e2b"/><circle cx="415.3" cy="231.5" r="3" fill="#f28e2b"/><circle cx="426.0" cy="231.8" r="3" fill="#f28e2b"/><circle cx="436.7" cy="230.6" r="3" fill="#f28e2b"/><circle cx="447.4" cy="231.8" r="3" fill="#f28e2b"/><circle cx="458.1" cy="231.5" r="3" fill="#f28e2b"/><circle cx="468.7" cy="226.8" r="3" fill="#f28e2b"/><circle cx="479.4" cy="217.2" r="3" fill="#f28e2b"/><circle cx="490.1" cy="231.3" r="3" fill="#f28e2b"/><circle cx="500.8" cy="231.8" r="3" fill="#f28e2b"/><circle cx="511.5" cy="231.5" r="3" fill="#f28e2b"/><circle cx="522.2" cy="231.5" r="3" fill="#f28e2b"/><circle cx="532.9" cy="232.0" r="3" fill="#f28e2b"/><circle cx="543.5" cy="231.8" r="3" fill="#f28e2b"/><circle cx="554.2" cy="232.0" r="3" fill="#f28e2b"/><circle cx="564.9" cy="231.8" r="3" fill="#f28e2b"/><circle cx="575.6" cy="231.8" r="3" fill="#f28e2b"/><circle cx="586.3" cy="231.5" r="3" fill="#f28e2b"/><circle cx="597.0" cy="231.8" r="3" fill="#f28e2b"/><circle cx="607.7" cy="232.0" r="3" fill="#f28e2b"/><circle cx="618.3" cy="232.0" r="3" fill="#f28e2b"/><circle cx="629.0" cy="231.8" r="3" fill="#f28e2b"/><circle cx="639.7" cy="232.0" r="3" fill="#f28e2b"/><circle cx="650.4" cy="232.0" r="3" fill="#f28e2b"/><circle cx="661.1" cy="232.0" r="3" fill="#f28e2b"/><circle cx="671.8" cy="232.0" r="3" fill="#f28e2b"/><circle cx="682.5" cy="231.8" r="3" fill="#f28e2b"/><circle cx="693.1" cy="231.5" r="3" fill="#f28e2b"/><circle cx="703.8" cy="232.0" r="3" fill="#f28e2b"/><circle cx="714.5" cy="232.0" r="3" fill="#f28e2b"/><circle cx="725.2" cy="231.8" r="3" fill="#f28e2b"/><circle cx="735.9" cy="232.0" r="3" fill="#f28e2b"/><circle cx="746.6" cy="232.0" r="3" fill="#f28e2b"/><circle cx="757.3" cy="231.5" r="3" fill="#f28e2b"/><circle cx="767.9" cy="231.8" r="3" fill="#f28e2b"/><circle cx="778.6" cy="231.3" r="3" fill="#f28e2b"/><circle cx="789.3" cy="232.0" r="3" fill="#f28e2b"/><circle cx="800.0" cy="231.8" r="3" fill="#f28e2b"/>

  <!-- axes -->
  <line x1="52" y1="28" x2="52" y2="232"
        stroke="#cccccc" stroke-width="1"/>
  <line x1="52" y1="232" x2="800" y2="232"
        stroke="#cccccc" stroke-width="1"/>

  <!-- y-axis labels -->
  <text x="47" y="236.0" text-anchor="end" font-size="10" fill="#57606a" font-family="ui-monospace, SFMono-Regular, 'SF Mono', Menlo, monospace">0</text><text x="47" y="188.9" text-anchor="end" font-size="10" fill="#57606a" font-family="ui-monospace, SFMono-Regular, 'SF Mono', Menlo, monospace">200</text><text x="47" y="141.8" text-anchor="end" font-size="10" fill="#57606a" font-family="ui-monospace, SFMono-Regular, 'SF Mono', Menlo, monospace">400</text><text x="47" y="94.7" text-anchor="end" font-size="10" fill="#57606a" font-family="ui-monospace, SFMono-Regular, 'SF Mono', Menlo, monospace">600</text><text x="47" y="47.5" text-anchor="end" font-size="10" fill="#57606a" font-family="ui-monospace, SFMono-Regular, 'SF Mono', Menlo, monospace">800</text><text x="47" y="0.4" text-anchor="end" font-size="10" fill="#57606a" font-family="ui-monospace, SFMono-Regular, 'SF Mono', Menlo, monospace">1,000</text>

  <!-- x-axis labels -->
  <text x="52.0" y="248" text-anchor="middle" font-size="10" fill="#8c959f" font-family="ui-monospace, SFMono-Regular, 'SF Mono', Menlo, monospace">05-11</text><text x="393.9" y="248" text-anchor="middle" font-size="10" fill="#8c959f" font-family="ui-monospace, SFMono-Regular, 'SF Mono', Menlo, monospace">06-12</text><text x="735.9" y="248" text-anchor="middle" font-size="10" fill="#8c959f" font-family="ui-monospace, SFMono-Regular, 'SF Mono', Menlo, monospace">07-14</text><text x="800.0" y="248" text-anchor="middle" font-size="10" fill="#8c959f" font-family="ui-monospace, SFMono-Regular, 'SF Mono', Menlo, monospace">07-20</text><text x="137.5" y="248" text-anchor="middle" font-size="10" fill="#8c959f" font-family="ui-monospace, SFMono-Regular, 'SF Mono', Menlo, monospace">05-19</text><text x="479.4" y="248" text-anchor="middle" font-size="10" fill="#8c959f" font-family="ui-monospace, SFMono-Regular, 'SF Mono', Menlo, monospace">06-20</text><text x="223.0" y="248" text-anchor="middle" font-size="10" fill="#8c959f" font-family="ui-monospace, SFMono-Regular, 'SF Mono', Menlo, monospace">05-27</text><text x="564.9" y="248" text-anchor="middle" font-size="10" fill="#8c959f" font-family="ui-monospace, SFMono-Regular, 'SF Mono', Menlo, monospace">06-28</text><text x="308.5" y="248" text-anchor="middle" font-size="10" fill="#8c959f" font-family="ui-monospace, SFMono-Regular, 'SF Mono', Menlo, monospace">06-04</text><text x="650.4" y="248" text-anchor="middle" font-size="10" fill="#8c959f" font-family="ui-monospace, SFMono-Regular, 'SF Mono', Menlo, monospace">07-06</text>

  <!-- legend -->
  <rect x="60" y="262" width="16" height="3" fill="#4e79a7" rx="1"/><text x="80" y="268" font-size="11" fill="#57606a" font-family="-apple-system, BlinkMacSystemFont, 'Segoe UI', sans-serif">Total clones (4,995)</text><line x1="230" y1="264" x2="246" y2="264" stroke="#f28e2b" stroke-width="2" stroke-dasharray="5,3"/><text x="250" y="268" font-size="11" fill="#57606a" font-family="-apple-system, BlinkMacSystemFont, 'Segoe UI', sans-serif">Unique cloners</text>

</svg>