<svg xmlns="http://www.w3.org/2000/svg" viewBox="0 0 820 280" width="820" height="280">

  <!-- title -->
  <text x="52" y="18" font-size="13" font-weight="600"
        fill="#24292f" font-family="-apple-system, BlinkMacSystemFont, 'Segoe UI', sans-serif"
        >Clone traffic — orthodox-calendar</text>
  <text x="800" y="18" font-size="10" fill="#8c959f"
        font-family="ui-monospace, SFMono-Regular, 'SF Mono', Menlo, monospace" text-anchor="end">2026-06-28</text>

  <!-- grid -->
  <line x1="52" y1="232.0" x2="800" y2="232.0" stroke="#e8e8e8" stroke-width="1"/><line x1="52" y1="184.9" x2="800" y2="184.9" stroke="#e8e8e8" stroke-width="1"/><line x1="52" y1="137.8" x2="800" y2="137.8" stroke="#e8e8e8" stroke-width="1"/><line x1="52" y1="90.7" x2="800" y2="90.7" stroke="#e8e8e8" stroke-width="1"/><line x1="52" y1="43.5" x2="800" y2="43.5" stroke="#e8e8e8" stroke-width="1"/><line x1="52" y1="-3.6" x2="800" y2="-3.6" stroke="#e8e8e8" stroke-width="1"/>

  <!-- area fill -->
  <path d="M52.0,226.8 L52.0,226.8 L68.3,169.6 L84.5,178.5 L100.8,28.0 L117.0,118.7 L133.3,163.5 L149.6,216.5 L165.8,76.5 L182.1,150.7 L198.3,213.2 L214.6,201.1 L230.9,194.8 L247.1,160.4 L263.4,208.0 L279.7,214.8 L295.9,217.4 L312.2,231.5 L328.4,231.5 L344.7,224.7 L361.0,213.9 L377.2,230.6 L393.5,231.3 L409.7,231.5 L426.0,232.0 L442.3,231.5 L458.5,231.1 L474.8,232.0 L491.0,230.8 L507.3,232.0 L523.6,212.2 L539.8,231.5 L556.1,229.6 L572.3,226.1 L588.6,229.2 L604.9,231.5 L621.1,231.8 L637.4,228.5 L653.7,231.8 L669.9,230.8 L686.2,212.7 L702.4,130.5 L718.7,231.1 L735.0,231.8 L751.2,231.3 L767.5,231.3 L783.7,232.0 L800.0,231.5 L800.0,232.0 L52.0,232.0Z" fill="#4e79a7" opacity="0.12"/>

  <!-- lines -->
  <polyline points="52.0,226.8 68.3,169.6 84.5,178.5 100.8,28.0 117.0,118.7 133.3,163.5 149.6,216.5 165.8,76.5 182.1,150.7 198.3,213.2 214.6,201.1 230.9,194.8 247.1,160.4 263.4,208.0 279.7,214.8 295.9,217.4 312.2,231.5 328.4,231.5 344.7,224.7 361.0,213.9 377.2,230.6 393.5,231.3 409.7,231.5 426.0,232.0 442.3,231.5 458.5,231.1 474.8,232.0 491.0,230.8 507.3,232.0 523.6,212.2 539.8,231.5 556.1,229.6 572.3,226.1 588.6,229.2 604.9,231.5 621.1,231.8 637.4,228.5 653.7,231.8 669.9,230.8 686.2,212.7 702.4,130.5 718.7,231.1 735.0,231.8 751.2,231.3 767.5,231.3 783.7,232.0 800.0,231.5"
            fill="none" stroke="#4e79a7"
            stroke-width="2" stroke-linejoin="round"/>
  <polyline points="52.0,229.4 68.3,202.8 84.5,209.6 100.8,170.0 117.0,193.1 133.3,207.5 149.6,224.9 165.8,188.4 182.1,208.2 198.3,224.9 214.6,223.8 230.9,222.3 247.1,212.7 263.4,225.2 279.7,229.4 295.9,228.2 312.2,231.5 328.4,231.5 344.7,229.4 361.0,226.8 377.2,230.8 393.5,231.5 409.7,231.8 426.0,232.0 442.3,231.8 458.5,231.3 474.8,232.0 491.0,231.3 507.3,232.0 523.6,226.1 539.8,231.5 556.1,230.6 572.3,228.7 588.6,231.1 604.9,231.5 621.1,231.8 637.4,230.6 653.7,231.8 669.9,231.5 686.2,226.8 702.4,217.2 718.7,231.3 735.0,231.8 751.2,231.5 767.5,231.5 783.7,232.0 800.0,231.8"
            fill="none" stroke="#f28e2b"
            stroke-width="2" stroke-linejoin="round"
            stroke-dasharray="5,3"/>

  <!-- dots -->
  <circle cx="52.0" cy="226.8" r="3" fill="#4e79a7"/><circle cx="68.3" cy="169.6" r="3" fill="#4e79a7"/><circle cx="84.5" cy="178.5" r="3" fill="#4e79a7"/><circle cx="100.8" cy="28.0" r="3" fill="#4e79a7"/><circle cx="117.0" cy="118.7" r="3" fill="#4e79a7"/><circle cx="133.3" cy="163.5" r="3" fill="#4e79a7"/><circle cx="149.6" cy="216.5" r="3" fill="#4e79a7"/><circle cx="165.8" cy="76.5" r="3" fill="#4e79a7"/><circle cx="182.1" cy="150.7" r="3" fill="#4e79a7"/><circle cx="198.3" cy="213.2" r="3" fill="#4e79a7"/><circle cx="214.6" cy="201.1" r="3" fill="#4e79a7"/><circle cx="230.9" cy="194.8" r="3" fill="#4e79a7"/><circle cx="247.1" cy="160.4" r="3" fill="#4e79a7"/><circle cx="263.4" cy="208.0" r="3" fill="#4e79a7"/><circle cx="279.7" cy="214.8" r="3" fill="#4e79a7"/><circle cx="295.9" cy="217.4" r="3" fill="#4e79a7"/><circle cx="312.2" cy="231.5" r="3" fill="#4e79a7"/><circle cx="328.4" cy="231.5" r="3" fill="#4e79a7"/><circle cx="344.7" cy="224.7" r="3" fill="#4e79a7"/><circle cx="361.0" cy="213.9" r="3" fill="#4e79a7"/><circle cx="377.2" cy="230.6" r="3" fill="#4e79a7"/><circle cx="393.5" cy="231.3" r="3" fill="#4e79a7"/><circle cx="409.7" cy="231.5" r="3" fill="#4e79a7"/><circle cx="426.0" cy="232.0" r="3" fill="#4e79a7"/><circle cx="442.3" cy="231.5" r="3" fill="#4e79a7"/><circle cx="458.5" cy="231.1" r="3" fill="#4e79a7"/><circle cx="474.8" cy="232.0" r="3" fill="#4e79a7"/><circle cx="491.0" cy="230.8" r="3" fill="#4e79a7"/><circle cx="507.3" cy="232.0" r="3" fill="#4e79a7"/><circle cx="523.6" cy="212.2" r="3" fill="#4e79a7"/><circle cx="539.8" cy="231.5" r="3" fill="#4e79a7"/><circle cx="556.1" cy="229.6" r="3" fill="#4e79a7"/><circle cx="572.3" cy="226.1" r="3" fill="#4e79a7"/><circle cx="588.6" cy="229.2" r="3" fill="#4e79a7"/><circle cx="604.9" cy="231.5" r="3" fill="#4e79a7"/><circle cx="621.1" cy="231.8" r="3" fill="#4e79a7"/><circle cx="637.4" cy="228.5" r="3" fill="#4e79a7"/><circle cx="653.7" cy="231.8" r="3" fill="#4e79a7"/><circle cx="669.9" cy="230.8" r="3" fill="#4e79a7"/><circle cx="686.2" cy="212.7" r="3" fill="#4e79a7"/><circle cx="702.4" cy="130.5" r="3" fill="#4e79a7"/><circle cx="718.7" cy="231.1" r="3" fill="#4e79a7"/><circle cx="735.0" cy="231.8" r="3" fill="#4e79a7"/><circle cx="751.2" cy="231.3" r="3" fill="#4e79a7"/><circle cx="767.5" cy="231.3" r="3" fill="#4e79a7"/><circle cx="783.7" cy="232.0" r="3" fill="#4e79a7"/><circle cx="800.0" cy="231.5" r="3" fill="#4e79a7"/>
  <circle cx="52.0" cy="229.4" r="3" fill="#f28e2b"/><circle cx="68.3" cy="202.8" r="3" fill="#f28e2b"/><circle cx="84.5" cy="209.6" r="3" fill="#f28e2b"/><circle cx="100.8" cy="170.0" r="3" fill="#f28e2b"/><circle cx="117.0" cy="193.1" r="3" fill="#f28e2b"/><circle cx="133.3" cy="207.5" r="3" fill="#f28e2b"/><circle cx="149.6" cy="224.9" r="3" fill="#f28e2b"/><circle cx="165.8" cy="188.4" r="3" fill="#f28e2b"/><circle cx="182.1" cy="208.2" r="3" fill="#f28e2b"/><circle cx="198.3" cy="224.9" r="3" fill="#f28e2b"/><circle cx="214.6" cy="223.8" r="3" fill="#f28e2b"/><circle cx="230.9" cy="222.3" r="3" fill="#f28e2b"/><circle cx="247.1" cy="212.7" r="3" fill="#f28e2b"/><circle cx="263.4" cy="225.2" r="3" fill="#f28e2b"/><circle cx="279.7" cy="229.4" r="3" fill="#f28e2b"/><circle cx="295.9" cy="228.2" r="3" fill="#f28e2b"/><circle cx="312.2" cy="231.5" r="3" fill="#f28e2b"/><circle cx="328.4" cy="231.5" r="3" fill="#f28e2b"/><circle cx="344.7" cy="229.4" r="3" fill="#f28e2b"/><circle cx="361.0" cy="226.8" r="3" fill="#f28e2b"/><circle cx="377.2" cy="230.8" r="3" fill="#f28e2b"/><circle cx="393.5" cy="231.5" r="3" fill="#f28e2b"/><circle cx="409.7" cy="231.8" r="3" fill="#f28e2b"/><circle cx="426.0" cy="232.0" r="3" fill="#f28e2b"/><circle cx="442.3" cy="231.8" r="3" fill="#f28e2b"/><circle cx="458.5" cy="231.3" r="3" fill="#f28e2b"/><circle cx="474.8" cy="232.0" r="3" fill="#f28e2b"/><circle cx="491.0" cy="231.3" r="3" fill="#f28e2b"/><circle cx="507.3" cy="232.0" r="3" fill="#f28e2b"/><circle cx="523.6" cy="226.1" r="3" fill="#f28e2b"/><circle cx="539.8" cy="231.5" r="3" fill="#f28e2b"/><circle cx="556.1" cy="230.6" r="3" fill="#f28e2b"/><circle cx="572.3" cy="228.7" r="3" fill="#f28e2b"/><circle cx="588.6" cy="231.1" r="3" fill="#f28e2b"/><circle cx="604.9" cy="231.5" r="3" fill="#f28e2b"/><circle cx="621.1" cy="231.8" r="3" fill="#f28e2b"/><circle cx="637.4" cy="230.6" r="3" fill="#f28e2b"/><circle cx="653.7" cy="231.8" r="3" fill="#f28e2b"/><circle cx="669.9" cy="231.5" r="3" fill="#f28e2b"/><circle cx="686.2" cy="226.8" r="3" fill="#f28e2b"/><circle cx="702.4" cy="217.2" r="3" fill="#f28e2b"/><circle cx="718.7" cy="231.3" r="3" fill="#f28e2b"/><circle cx="735.0" cy="231.8" r="3" fill="#f28e2b"/><circle cx="751.2" cy="231.5" r="3" fill="#f28e2b"/><circle cx="767.5" cy="231.5" r="3" fill="#f28e2b"/><circle cx="783.7" cy="232.0" r="3" fill="#f28e2b"/><circle cx="800.0" cy="231.8" r="3" fill="#f28e2b"/>

  <!-- axes -->
  <line x1="52" y1="28" x2="52" y2="232"
        stroke="#cccccc" stroke-width="1"/>
  <line x1="52" y1="232" x2="800" y2="232"
        stroke="#cccccc" stroke-width="1"/>

  <!-- y-axis labels -->
  <text x="47" y="236.0" text-anchor="end" font-size="10" fill="#57606a" font-family="ui-monospace, SFMono-Regular, 'SF Mono', Menlo, monospace">0</text><text x="47" y="188.9" text-anchor="end" font-size="10" fill="#57606a" font-family="ui-monospace, SFMono-Regular, 'SF Mono', Menlo, monospace">200</text><text x="47" y="141.8" text-anchor="end" font-size="10" fill="#57606a" font-family="ui-monospace, SFMono-Regular, 'SF Mono', Menlo, monospace">400</text><text x="47" y="94.7" text-anchor="end" font-size="10" fill="#57606a" font-family="ui-monospace, SFMono-Regular, 'SF Mono', Menlo, monospace">600</text><text x="47" y="47.5" text-anchor="end" font-size="10" fill="#57606a" font-family="ui-monospace, SFMono-Regular, 'SF Mono', Menlo, monospace">800</text><text x="47" y="0.4" text-anchor="end" font-size="10" fill="#57606a" font-family="ui-monospace, SFMono-Regular, 'SF Mono', Menlo, monospace">1,000</text>

  <!-- x-axis labels -->
  <text x="52.0" y="248" text-anchor="middle" font-size="10" fill="#8c959f" font-family="ui-monospace, SFMono-Regular, 'SF Mono', Menlo, monospace">05-11</text><text x="621.1" y="248" text-anchor="middle" font-size="10" fill="#8c959f" font-family="ui-monospace, SFMono-Regular, 'SF Mono', Menlo, monospace">06-15</text><text x="133.3" y="248" text-anchor="middle" font-size="10" fill="#8c959f" font-family="ui-monospace, SFMono-Regular, 'SF Mono', Menlo, monospace">05-16</text><text x="702.4" y="248" text-anchor="middle" font-size="10" fill="#8c959f" font-family="ui-monospace, SFMono-Regular, 'SF Mono', Menlo, monospace">06-20</text><text x="214.6" y="248" text-anchor="middle" font-size="10" fill="#8c959f" font-family="ui-monospace, SFMono-Regular, 'SF Mono', Menlo, monospace">05-21</text><text x="783.7" y="248" text-anchor="middle" font-size="10" fill="#8c959f" font-family="ui-monospace, SFMono-Regular, 'SF Mono', Menlo, monospace">06-25</text><text x="800.0" y="248" text-anchor="middle" font-size="10" fill="#8c959f" font-family="ui-monospace, SFMono-Regular, 'SF Mono', Menlo, monospace">06-26</text><text x="295.9" y="248" text-anchor="middle" font-size="10" fill="#8c959f" font-family="ui-monospace, SFMono-Regular, 'SF Mono', Menlo, monospace">05-26</text><text x="377.2" y="248" text-anchor="middle" font-size="10" fill="#8c959f" font-family="ui-monospace, SFMono-Regular, 'SF Mono', Menlo, monospace">05-31</text><text x="458.5" y="248" text-anchor="middle" font-size="10" fill="#8c959f" font-family="ui-monospace, SFMono-Regular, 'SF Mono', Menlo, monospace">06-05</text><text x="539.8" y="248" text-anchor="middle" font-size="10" fill="#8c959f" font-family="ui-monospace, SFMono-Regular, 'SF Mono', Menlo, monospace">06-10</text>

  <!-- legend -->
  <rect x="60" y="262" width="16" height="3" fill="#4e79a7" rx="1"/><text x="80" y="268" font-size="11" fill="#57606a" font-family="-apple-system, BlinkMacSystemFont, 'Segoe UI', sans-serif">Total clones (4,950)</text><line x1="230" y1="264" x2="246" y2="264" stroke="#f28e2b" stroke-width="2" stroke-dasharray="5,3"/><text x="250" y="268" font-size="11" fill="#57606a" font-family="-apple-system, BlinkMacSystemFont, 'Segoe UI', sans-serif">Unique cloners</text>

</svg>