<svg xmlns="http://www.w3.org/2000/svg" viewBox="0 0 820 280" width="820" height="280">

  <!-- title -->
  <text x="52" y="18" font-size="13" font-weight="600"
        fill="#24292f" font-family="-apple-system, BlinkMacSystemFont, 'Segoe UI', sans-serif"
        >Clone traffic — orthodox-calendar</text>
  <text x="800" y="18" font-size="10" fill="#8c959f"
        font-family="ui-monospace, SFMono-Regular, 'SF Mono', Menlo, monospace" text-anchor="end">2026-06-27</text>

  <!-- grid -->
  <line x1="52" y1="232.0" x2="800" y2="232.0" stroke="#e8e8e8" stroke-width="1"/><line x1="52" y1="184.9" x2="800" y2="184.9" stroke="#e8e8e8" stroke-width="1"/><line x1="52" y1="137.8" x2="800" y2="137.8" stroke="#e8e8e8" stroke-width="1"/><line x1="52" y1="90.7" x2="800" y2="90.7" stroke="#e8e8e8" stroke-width="1"/><line x1="52" y1="43.5" x2="800" y2="43.5" stroke="#e8e8e8" stroke-width="1"/><line x1="52" y1="-3.6" x2="800" y2="-3.6" stroke="#e8e8e8" stroke-width="1"/>

  <!-- area fill -->
  <path d="M52.0,226.8 L52.0,226.8 L68.6,169.6 L85.2,178.5 L101.9,28.0 L118.5,118.7 L135.1,163.5 L151.7,216.5 L168.4,76.5 L185.0,150.7 L201.6,213.2 L218.2,201.1 L234.8,194.8 L251.5,160.4 L268.1,208.0 L284.7,214.8 L301.3,217.4 L318.0,231.5 L334.6,231.5 L351.2,224.7 L367.8,213.9 L384.4,230.6 L401.1,231.3 L417.7,231.5 L434.3,232.0 L450.9,231.5 L467.6,231.1 L484.2,232.0 L500.8,230.8 L517.4,232.0 L534.0,212.2 L550.7,231.5 L567.3,229.6 L583.9,226.1 L600.5,229.2 L617.2,231.5 L633.8,231.8 L650.4,228.5 L667.0,231.8 L683.6,230.8 L700.3,212.7 L716.9,130.5 L733.5,231.1 L750.1,231.8 L766.8,231.3 L783.4,231.3 L800.0,232.0 L800.0,232.0 L52.0,232.0Z" fill="#4e79a7" opacity="0.12"/>

  <!-- lines -->
  <polyline points="52.0,226.8 68.6,169.6 85.2,178.5 101.9,28.0 118.5,118.7 135.1,163.5 151.7,216.5 168.4,76.5 185.0,150.7 201.6,213.2 218.2,201.1 234.8,194.8 251.5,160.4 268.1,208.0 284.7,214.8 301.3,217.4 318.0,231.5 334.6,231.5 351.2,224.7 367.8,213.9 384.4,230.6 401.1,231.3 417.7,231.5 434.3,232.0 450.9,231.5 467.6,231.1 484.2,232.0 500.8,230.8 517.4,232.0 534.0,212.2 550.7,231.5 567.3,229.6 583.9,226.1 600.5,229.2 617.2,231.5 633.8,231.8 650.4,228.5 667.0,231.8 683.6,230.8 700.3,212.7 716.9,130.5 733.5,231.1 750.1,231.8 766.8,231.3 783.4,231.3 800.0,232.0"
            fill="none" stroke="#4e79a7"
            stroke-width="2" stroke-linejoin="round"/>
  <polyline points="52.0,229.4 68.6,202.8 85.2,209.6 101.9,170.0 118.5,193.1 135.1,207.5 151.7,224.9 168.4,188.4 185.0,208.2 201.6,224.9 218.2,223.8 234.8,222.3 251.5,212.7 268.1,225.2 284.7,229.4 301.3,228.2 318.0,231.5 334.6,231.5 351.2,229.4 367.8,226.8 384.4,230.8 401.1,231.5 417.7,231.8 434.3,232.0 450.9,231.8 467.6,231.3 484.2,232.0 500.8,231.3 517.4,232.0 534.0,226.1 550.7,231.5 567.3,230.6 583.9,228.7 600.5,231.1 617.2,231.5 633.8,231.8 650.4,230.6 667.0,231.8 683.6,231.5 700.3,226.8 716.9,217.2 733.5,231.3 750.1,231.8 766.8,231.5 783.4,231.5 800.0,232.0"
            fill="none" stroke="#f28e2b"
            stroke-width="2" stroke-linejoin="round"
            stroke-dasharray="5,3"/>

  <!-- dots -->
  <circle cx="52.0" cy="226.8" r="3" fill="#4e79a7"/><circle cx="68.6" cy="169.6" r="3" fill="#4e79a7"/><circle cx="85.2" cy="178.5" r="3" fill="#4e79a7"/><circle cx="101.9" cy="28.0" r="3" fill="#4e79a7"/><circle cx="118.5" cy="118.7" r="3" fill="#4e79a7"/><circle cx="135.1" cy="163.5" r="3" fill="#4e79a7"/><circle cx="151.7" cy="216.5" r="3" fill="#4e79a7"/><circle cx="168.4" cy="76.5" r="3" fill="#4e79a7"/><circle cx="185.0" cy="150.7" r="3" fill="#4e79a7"/><circle cx="201.6" cy="213.2" r="3" fill="#4e79a7"/><circle cx="218.2" cy="201.1" r="3" fill="#4e79a7"/><circle cx="234.8" cy="194.8" r="3" fill="#4e79a7"/><circle cx="251.5" cy="160.4" r="3" fill="#4e79a7"/><circle cx="268.1" cy="208.0" r="3" fill="#4e79a7"/><circle cx="284.7" cy="214.8" r="3" fill="#4e79a7"/><circle cx="301.3" cy="217.4" r="3" fill="#4e79a7"/><circle cx="318.0" cy="231.5" r="3" fill="#4e79a7"/><circle cx="334.6" cy="231.5" r="3" fill="#4e79a7"/><circle cx="351.2" cy="224.7" r="3" fill="#4e79a7"/><circle cx="367.8" cy="213.9" r="3" fill="#4e79a7"/><circle cx="384.4" cy="230.6" r="3" fill="#4e79a7"/><circle cx="401.1" cy="231.3" r="3" fill="#4e79a7"/><circle cx="417.7" cy="231.5" r="3" fill="#4e79a7"/><circle cx="434.3" cy="232.0" r="3" fill="#4e79a7"/><circle cx="450.9" cy="231.5" r="3" fill="#4e79a7"/><circle cx="467.6" cy="231.1" r="3" fill="#4e79a7"/><circle cx="484.2" cy="232.0" r="3" fill="#4e79a7"/><circle cx="500.8" cy="230.8" r="3" fill="#4e79a7"/><circle cx="517.4" cy="232.0" r="3" fill="#4e79a7"/><circle cx="534.0" cy="212.2" r="3" fill="#4e79a7"/><circle cx="550.7" cy="231.5" r="3" fill="#4e79a7"/><circle cx="567.3" cy="229.6" r="3" fill="#4e79a7"/><circle cx="583.9" cy="226.1" r="3" fill="#4e79a7"/><circle cx="600.5" cy="229.2" r="3" fill="#4e79a7"/><circle cx="617.2" cy="231.5" r="3" fill="#4e79a7"/><circle cx="633.8" cy="231.8" r="3" fill="#4e79a7"/><circle cx="650.4" cy="228.5" r="3" fill="#4e79a7"/><circle cx="667.0" cy="231.8" r="3" fill="#4e79a7"/><circle cx="683.6" cy="230.8" r="3" fill="#4e79a7"/><circle cx="700.3" cy="212.7" r="3" fill="#4e79a7"/><circle cx="716.9" cy="130.5" r="3" fill="#4e79a7"/><circle cx="733.5" cy="231.1" r="3" fill="#4e79a7"/><circle cx="750.1" cy="231.8" r="3" fill="#4e79a7"/><circle cx="766.8" cy="231.3" r="3" fill="#4e79a7"/><circle cx="783.4" cy="231.3" r="3" fill="#4e79a7"/><circle cx="800.0" cy="232.0" r="3" fill="#4e79a7"/>
  <circle cx="52.0" cy="229.4" r="3" fill="#f28e2b"/><circle cx="68.6" cy="202.8" r="3" fill="#f28e2b"/><circle cx="85.2" cy="209.6" r="3" fill="#f28e2b"/><circle cx="101.9" cy="170.0" r="3" fill="#f28e2b"/><circle cx="118.5" cy="193.1" r="3" fill="#f28e2b"/><circle cx="135.1" cy="207.5" r="3" fill="#f28e2b"/><circle cx="151.7" cy="224.9" r="3" fill="#f28e2b"/><circle cx="168.4" cy="188.4" r="3" fill="#f28e2b"/><circle cx="185.0" cy="208.2" r="3" fill="#f28e2b"/><circle cx="201.6" cy="224.9" r="3" fill="#f28e2b"/><circle cx="218.2" cy="223.8" r="3" fill="#f28e2b"/><circle cx="234.8" cy="222.3" r="3" fill="#f28e2b"/><circle cx="251.5" cy="212.7" r="3" fill="#f28e2b"/><circle cx="268.1" cy="225.2" r="3" fill="#f28e2b"/><circle cx="284.7" cy="229.4" r="3" fill="#f28e2b"/><circle cx="301.3" cy="228.2" r="3" fill="#f28e2b"/><circle cx="318.0" cy="231.5" r="3" fill="#f28e2b"/><circle cx="334.6" cy="231.5" r="3" fill="#f28e2b"/><circle cx="351.2" cy="229.4" r="3" fill="#f28e2b"/><circle cx="367.8" cy="226.8" r="3" fill="#f28e2b"/><circle cx="384.4" cy="230.8" r="3" fill="#f28e2b"/><circle cx="401.1" cy="231.5" r="3" fill="#f28e2b"/><circle cx="417.7" cy="231.8" r="3" fill="#f28e2b"/><circle cx="434.3" cy="232.0" r="3" fill="#f28e2b"/><circle cx="450.9" cy="231.8" r="3" fill="#f28e2b"/><circle cx="467.6" cy="231.3" r="3" fill="#f28e2b"/><circle cx="484.2" cy="232.0" r="3" fill="#f28e2b"/><circle cx="500.8" cy="231.3" r="3" fill="#f28e2b"/><circle cx="517.4" cy="232.0" r="3" fill="#f28e2b"/><circle cx="534.0" cy="226.1" r="3" fill="#f28e2b"/><circle cx="550.7" cy="231.5" r="3" fill="#f28e2b"/><circle cx="567.3" cy="230.6" r="3" fill="#f28e2b"/><circle cx="583.9" cy="228.7" r="3" fill="#f28e2b"/><circle cx="600.5" cy="231.1" r="3" fill="#f28e2b"/><circle cx="617.2" cy="231.5" r="3" fill="#f28e2b"/><circle cx="633.8" cy="231.8" r="3" fill="#f28e2b"/><circle cx="650.4" cy="230.6" r="3" fill="#f28e2b"/><circle cx="667.0" cy="231.8" r="3" fill="#f28e2b"/><circle cx="683.6" cy="231.5" r="3" fill="#f28e2b"/><circle cx="700.3" cy="226.8" r="3" fill="#f28e2b"/><circle cx="716.9" cy="217.2" r="3" fill="#f28e2b"/><circle cx="733.5" cy="231.3" r="3" fill="#f28e2b"/><circle cx="750.1" cy="231.8" r="3" fill="#f28e2b"/><circle cx="766.8" cy="231.5" r="3" fill="#f28e2b"/><circle cx="783.4" cy="231.5" r="3" fill="#f28e2b"/><circle cx="800.0" cy="232.0" r="3" fill="#f28e2b"/>

  <!-- axes -->
  <line x1="52" y1="28" x2="52" y2="232"
        stroke="#cccccc" stroke-width="1"/>
  <line x1="52" y1="232" x2="800" y2="232"
        stroke="#cccccc" stroke-width="1"/>

  <!-- y-axis labels -->
  <text x="47" y="236.0" text-anchor="end" font-size="10" fill="#57606a" font-family="ui-monospace, SFMono-Regular, 'SF Mono', Menlo, monospace">0</text><text x="47" y="188.9" text-anchor="end" font-size="10" fill="#57606a" font-family="ui-monospace, SFMono-Regular, 'SF Mono', Menlo, monospace">200</text><text x="47" y="141.8" text-anchor="end" font-size="10" fill="#57606a" font-family="ui-monospace, SFMono-Regular, 'SF Mono', Menlo, monospace">400</text><text x="47" y="94.7" text-anchor="end" font-size="10" fill="#57606a" font-family="ui-monospace, SFMono-Regular, 'SF Mono', Menlo, monospace">600</text><text x="47" y="47.5" text-anchor="end" font-size="10" fill="#57606a" font-family="ui-monospace, SFMono-Regular, 'SF Mono', Menlo, monospace">800</text><text x="47" y="0.4" text-anchor="end" font-size="10" fill="#57606a" font-family="ui-monospace, SFMono-Regular, 'SF Mono', Menlo, monospace">1,000</text>

  <!-- x-axis labels -->
  <text x="52.0" y="248" text-anchor="middle" font-size="10" fill="#8c959f" font-family="ui-monospace, SFMono-Regular, 'SF Mono', Menlo, monospace">05-11</text><text x="633.8" y="248" text-anchor="middle" font-size="10" fill="#8c959f" font-family="ui-monospace, SFMono-Regular, 'SF Mono', Menlo, monospace">06-15</text><text x="135.1" y="248" text-anchor="middle" font-size="10" fill="#8c959f" font-family="ui-monospace, SFMono-Regular, 'SF Mono', Menlo, monospace">05-16</text><text x="716.9" y="248" text-anchor="middle" font-size="10" fill="#8c959f" font-family="ui-monospace, SFMono-Regular, 'SF Mono', Menlo, monospace">06-20</text><text x="218.2" y="248" text-anchor="middle" font-size="10" fill="#8c959f" font-family="ui-monospace, SFMono-Regular, 'SF Mono', Menlo, monospace">05-21</text><text x="800.0" y="248" text-anchor="middle" font-size="10" fill="#8c959f" font-family="ui-monospace, SFMono-Regular, 'SF Mono', Menlo, monospace">06-25</text><text x="301.3" y="248" text-anchor="middle" font-size="10" fill="#8c959f" font-family="ui-monospace, SFMono-Regular, 'SF Mono', Menlo, monospace">05-26</text><text x="384.4" y="248" text-anchor="middle" font-size="10" fill="#8c959f" font-family="ui-monospace, SFMono-Regular, 'SF Mono', Menlo, monospace">05-31</text><text x="467.6" y="248" text-anchor="middle" font-size="10" fill="#8c959f" font-family="ui-monospace, SFMono-Regular, 'SF Mono', Menlo, monospace">06-05</text><text x="550.7" y="248" text-anchor="middle" font-size="10" fill="#8c959f" font-family="ui-monospace, SFMono-Regular, 'SF Mono', Menlo, monospace">06-10</text>

  <!-- legend -->
  <rect x="60" y="262" width="16" height="3" fill="#4e79a7" rx="1"/><text x="80" y="268" font-size="11" fill="#57606a" font-family="-apple-system, BlinkMacSystemFont, 'Segoe UI', sans-serif">Total clones (4,948)</text><line x1="230" y1="264" x2="246" y2="264" stroke="#f28e2b" stroke-width="2" stroke-dasharray="5,3"/><text x="250" y="268" font-size="11" fill="#57606a" font-family="-apple-system, BlinkMacSystemFont, 'Segoe UI', sans-serif">Unique cloners</text>

</svg>