<svg xmlns="http://www.w3.org/2000/svg" viewBox="0 0 820 280" width="820" height="280">

  <!-- title -->
  <text x="52" y="18" font-size="13" font-weight="600"
        fill="#24292f" font-family="-apple-system, BlinkMacSystemFont, 'Segoe UI', sans-serif"
        >Clone traffic — orthodox-calendar</text>
  <text x="800" y="18" font-size="10" fill="#8c959f"
        font-family="ui-monospace, SFMono-Regular, 'SF Mono', Menlo, monospace" text-anchor="end">2026-06-18</text>

  <!-- grid -->
  <line x1="52" y1="232.0" x2="800" y2="232.0" stroke="#e8e8e8" stroke-width="1"/><line x1="52" y1="184.9" x2="800" y2="184.9" stroke="#e8e8e8" stroke-width="1"/><line x1="52" y1="137.8" x2="800" y2="137.8" stroke="#e8e8e8" stroke-width="1"/><line x1="52" y1="90.7" x2="800" y2="90.7" stroke="#e8e8e8" stroke-width="1"/><line x1="52" y1="43.5" x2="800" y2="43.5" stroke="#e8e8e8" stroke-width="1"/><line x1="52" y1="-3.6" x2="800" y2="-3.6" stroke="#e8e8e8" stroke-width="1"/>

  <!-- area fill -->
  <path d="M52.0,226.8 L52.0,226.8 L72.8,169.6 L93.6,178.5 L114.3,28.0 L135.1,118.7 L155.9,163.5 L176.7,216.5 L197.4,76.5 L218.2,150.7 L239.0,213.2 L259.8,201.1 L280.6,194.8 L301.3,160.4 L322.1,208.0 L342.9,214.8 L363.7,217.4 L384.4,231.5 L405.2,231.5 L426.0,224.7 L446.8,213.9 L467.6,230.6 L488.3,231.3 L509.1,231.5 L529.9,232.0 L550.7,231.5 L571.4,231.1 L592.2,232.0 L613.0,230.8 L633.8,232.0 L654.6,212.2 L675.3,231.5 L696.1,229.6 L716.9,226.1 L737.7,229.2 L758.4,231.5 L779.2,231.8 L800.0,228.5 L800.0,232.0 L52.0,232.0Z" fill="#4e79a7" opacity="0.12"/>

  <!-- lines -->
  <polyline points="52.0,226.8 72.8,169.6 93.6,178.5 114.3,28.0 135.1,118.7 155.9,163.5 176.7,216.5 197.4,76.5 218.2,150.7 239.0,213.2 259.8,201.1 280.6,194.8 301.3,160.4 322.1,208.0 342.9,214.8 363.7,217.4 384.4,231.5 405.2,231.5 426.0,224.7 446.8,213.9 467.6,230.6 488.3,231.3 509.1,231.5 529.9,232.0 550.7,231.5 571.4,231.1 592.2,232.0 613.0,230.8 633.8,232.0 654.6,212.2 675.3,231.5 696.1,229.6 716.9,226.1 737.7,229.2 758.4,231.5 779.2,231.8 800.0,228.5"
            fill="none" stroke="#4e79a7"
            stroke-width="2" stroke-linejoin="round"/>
  <polyline points="52.0,229.4 72.8,202.8 93.6,209.6 114.3,170.0 135.1,193.1 155.9,207.5 176.7,224.9 197.4,188.4 218.2,208.2 239.0,224.9 259.8,223.8 280.6,222.3 301.3,212.7 322.1,225.2 342.9,229.4 363.7,228.2 384.4,231.5 405.2,231.5 426.0,229.4 446.8,226.8 467.6,230.8 488.3,231.5 509.1,231.8 529.9,232.0 550.7,231.8 571.4,231.3 592.2,232.0 613.0,231.3 633.8,232.0 654.6,226.1 675.3,231.5 696.1,230.6 716.9,228.7 737.7,231.1 758.4,231.5 779.2,231.8 800.0,230.6"
            fill="none" stroke="#f28e2b"
            stroke-width="2" stroke-linejoin="round"
            stroke-dasharray="5,3"/>

  <!-- dots -->
  <circle cx="52.0" cy="226.8" r="3" fill="#4e79a7"/><circle cx="72.8" cy="169.6" r="3" fill="#4e79a7"/><circle cx="93.6" cy="178.5" r="3" fill="#4e79a7"/><circle cx="114.3" cy="28.0" r="3" fill="#4e79a7"/><circle cx="135.1" cy="118.7" r="3" fill="#4e79a7"/><circle cx="155.9" cy="163.5" r="3" fill="#4e79a7"/><circle cx="176.7" cy="216.5" r="3" fill="#4e79a7"/><circle cx="197.4" cy="76.5" r="3" fill="#4e79a7"/><circle cx="218.2" cy="150.7" r="3" fill="#4e79a7"/><circle cx="239.0" cy="213.2" r="3" fill="#4e79a7"/><circle cx="259.8" cy="201.1" r="3" fill="#4e79a7"/><circle cx="280.6" cy="194.8" r="3" fill="#4e79a7"/><circle cx="301.3" cy="160.4" r="3" fill="#4e79a7"/><circle cx="322.1" cy="208.0" r="3" fill="#4e79a7"/><circle cx="342.9" cy="214.8" r="3" fill="#4e79a7"/><circle cx="363.7" cy="217.4" r="3" fill="#4e79a7"/><circle cx="384.4" cy="231.5" r="3" fill="#4e79a7"/><circle cx="405.2" cy="231.5" r="3" fill="#4e79a7"/><circle cx="426.0" cy="224.7" r="3" fill="#4e79a7"/><circle cx="446.8" cy="213.9" r="3" fill="#4e79a7"/><circle cx="467.6" cy="230.6" r="3" fill="#4e79a7"/><circle cx="488.3" cy="231.3" r="3" fill="#4e79a7"/><circle cx="509.1" cy="231.5" r="3" fill="#4e79a7"/><circle cx="529.9" cy="232.0" r="3" fill="#4e79a7"/><circle cx="550.7" cy="231.5" r="3" fill="#4e79a7"/><circle cx="571.4" cy="231.1" r="3" fill="#4e79a7"/><circle cx="592.2" cy="232.0" r="3" fill="#4e79a7"/><circle cx="613.0" cy="230.8" r="3" fill="#4e79a7"/><circle cx="633.8" cy="232.0" r="3" fill="#4e79a7"/><circle cx="654.6" cy="212.2" r="3" fill="#4e79a7"/><circle cx="675.3" cy="231.5" r="3" fill="#4e79a7"/><circle cx="696.1" cy="229.6" r="3" fill="#4e79a7"/><circle cx="716.9" cy="226.1" r="3" fill="#4e79a7"/><circle cx="737.7" cy="229.2" r="3" fill="#4e79a7"/><circle cx="758.4" cy="231.5" r="3" fill="#4e79a7"/><circle cx="779.2" cy="231.8" r="3" fill="#4e79a7"/><circle cx="800.0" cy="228.5" r="3" fill="#4e79a7"/>
  <circle cx="52.0" cy="229.4" r="3" fill="#f28e2b"/><circle cx="72.8" cy="202.8" r="3" fill="#f28e2b"/><circle cx="93.6" cy="209.6" r="3" fill="#f28e2b"/><circle cx="114.3" cy="170.0" r="3" fill="#f28e2b"/><circle cx="135.1" cy="193.1" r="3" fill="#f28e2b"/><circle cx="155.9" cy="207.5" r="3" fill="#f28e2b"/><circle cx="176.7" cy="224.9" r="3" fill="#f28e2b"/><circle cx="197.4" cy="188.4" r="3" fill="#f28e2b"/><circle cx="218.2" cy="208.2" r="3" fill="#f28e2b"/><circle cx="239.0" cy="224.9" r="3" fill="#f28e2b"/><circle cx="259.8" cy="223.8" r="3" fill="#f28e2b"/><circle cx="280.6" cy="222.3" r="3" fill="#f28e2b"/><circle cx="301.3" cy="212.7" r="3" fill="#f28e2b"/><circle cx="322.1" cy="225.2" r="3" fill="#f28e2b"/><circle cx="342.9" cy="229.4" r="3" fill="#f28e2b"/><circle cx="363.7" cy="228.2" r="3" fill="#f28e2b"/><circle cx="384.4" cy="231.5" r="3" fill="#f28e2b"/><circle cx="405.2" cy="231.5" r="3" fill="#f28e2b"/><circle cx="426.0" cy="229.4" r="3" fill="#f28e2b"/><circle cx="446.8" cy="226.8" r="3" fill="#f28e2b"/><circle cx="467.6" cy="230.8" r="3" fill="#f28e2b"/><circle cx="488.3" cy="231.5" r="3" fill="#f28e2b"/><circle cx="509.1" cy="231.8" r="3" fill="#f28e2b"/><circle cx="529.9" cy="232.0" r="3" fill="#f28e2b"/><circle cx="550.7" cy="231.8" r="3" fill="#f28e2b"/><circle cx="571.4" cy="231.3" r="3" fill="#f28e2b"/><circle cx="592.2" cy="232.0" r="3" fill="#f28e2b"/><circle cx="613.0" cy="231.3" r="3" fill="#f28e2b"/><circle cx="633.8" cy="232.0" r="3" fill="#f28e2b"/><circle cx="654.6" cy="226.1" r="3" fill="#f28e2b"/><circle cx="675.3" cy="231.5" r="3" fill="#f28e2b"/><circle cx="696.1" cy="230.6" r="3" fill="#f28e2b"/><circle cx="716.9" cy="228.7" r="3" fill="#f28e2b"/><circle cx="737.7" cy="231.1" r="3" fill="#f28e2b"/><circle cx="758.4" cy="231.5" r="3" fill="#f28e2b"/><circle cx="779.2" cy="231.8" r="3" fill="#f28e2b"/><circle cx="800.0" cy="230.6" r="3" fill="#f28e2b"/>

  <!-- axes -->
  <line x1="52" y1="28" x2="52" y2="232"
        stroke="#cccccc" stroke-width="1"/>
  <line x1="52" y1="232" x2="800" y2="232"
        stroke="#cccccc" stroke-width="1"/>

  <!-- y-axis labels -->
  <text x="47" y="236.0" text-anchor="end" font-size="10" fill="#57606a" font-family="ui-monospace, SFMono-Regular, 'SF Mono', Menlo, monospace">0</text><text x="47" y="188.9" text-anchor="end" font-size="10" fill="#57606a" font-family="ui-monospace, SFMono-Regular, 'SF Mono', Menlo, monospace">200</text><text x="47" y="141.8" text-anchor="end" font-size="10" fill="#57606a" font-family="ui-monospace, SFMono-Regular, 'SF Mono', Menlo, monospace">400</text><text x="47" y="94.7" text-anchor="end" font-size="10" fill="#57606a" font-family="ui-monospace, SFMono-Regular, 'SF Mono', Menlo, monospace">600</text><text x="47" y="47.5" text-anchor="end" font-size="10" fill="#57606a" font-family="ui-monospace, SFMono-Regular, 'SF Mono', Menlo, monospace">800</text><text x="47" y="0.4" text-anchor="end" font-size="10" fill="#57606a" font-family="ui-monospace, SFMono-Regular, 'SF Mono', Menlo, monospace">1,000</text>

  <!-- x-axis labels -->
  <text x="52.0" y="248" text-anchor="middle" font-size="10" fill="#8c959f" font-family="ui-monospace, SFMono-Regular, 'SF Mono', Menlo, monospace">05-11</text><text x="716.9" y="248" text-anchor="middle" font-size="10" fill="#8c959f" font-family="ui-monospace, SFMono-Regular, 'SF Mono', Menlo, monospace">06-12</text><text x="135.1" y="248" text-anchor="middle" font-size="10" fill="#8c959f" font-family="ui-monospace, SFMono-Regular, 'SF Mono', Menlo, monospace">05-15</text><text x="800.0" y="248" text-anchor="middle" font-size="10" fill="#8c959f" font-family="ui-monospace, SFMono-Regular, 'SF Mono', Menlo, monospace">06-16</text><text x="218.2" y="248" text-anchor="middle" font-size="10" fill="#8c959f" font-family="ui-monospace, SFMono-Regular, 'SF Mono', Menlo, monospace">05-19</text><text x="301.3" y="248" text-anchor="middle" font-size="10" fill="#8c959f" font-family="ui-monospace, SFMono-Regular, 'SF Mono', Menlo, monospace">05-23</text><text x="384.4" y="248" text-anchor="middle" font-size="10" fill="#8c959f" font-family="ui-monospace, SFMono-Regular, 'SF Mono', Menlo, monospace">05-27</text><text x="467.6" y="248" text-anchor="middle" font-size="10" fill="#8c959f" font-family="ui-monospace, SFMono-Regular, 'SF Mono', Menlo, monospace">05-31</text><text x="550.7" y="248" text-anchor="middle" font-size="10" fill="#8c959f" font-family="ui-monospace, SFMono-Regular, 'SF Mono', Menlo, monospace">06-04</text><text x="633.8" y="248" text-anchor="middle" font-size="10" fill="#8c959f" font-family="ui-monospace, SFMono-Regular, 'SF Mono', Menlo, monospace">06-08</text>

  <!-- legend -->
  <rect x="60" y="262" width="16" height="3" fill="#4e79a7" rx="1"/><text x="80" y="268" font-size="11" fill="#57606a" font-family="-apple-system, BlinkMacSystemFont, 'Segoe UI', sans-serif">Total clones (4,418)</text><line x1="230" y1="264" x2="246" y2="264" stroke="#f28e2b" stroke-width="2" stroke-dasharray="5,3"/><text x="250" y="268" font-size="11" fill="#57606a" font-family="-apple-system, BlinkMacSystemFont, 'Segoe UI', sans-serif">Unique cloners</text>

</svg>