<svg xmlns="http://www.w3.org/2000/svg" viewBox="0 0 820 280" width="820" height="280">

  <!-- title -->
  <text x="52" y="18" font-size="13" font-weight="600"
        fill="#24292f" font-family="-apple-system, BlinkMacSystemFont, 'Segoe UI', sans-serif"
        >Clone traffic — orthodox-calendar</text>
  <text x="800" y="18" font-size="10" fill="#8c959f"
        font-family="ui-monospace, SFMono-Regular, 'SF Mono', Menlo, monospace" text-anchor="end">2026-07-13</text>

  <!-- grid -->
  <line x1="52" y1="232.0" x2="800" y2="232.0" stroke="#e8e8e8" stroke-width="1"/><line x1="52" y1="184.9" x2="800" y2="184.9" stroke="#e8e8e8" stroke-width="1"/><line x1="52" y1="137.8" x2="800" y2="137.8" stroke="#e8e8e8" stroke-width="1"/><line x1="52" y1="90.7" x2="800" y2="90.7" stroke="#e8e8e8" stroke-width="1"/><line x1="52" y1="43.5" x2="800" y2="43.5" stroke="#e8e8e8" stroke-width="1"/><line x1="52" y1="-3.6" x2="800" y2="-3.6" stroke="#e8e8e8" stroke-width="1"/>

  <!-- area fill -->
  <path d="M52.0,226.8 L52.0,226.8 L64.1,169.6 L76.1,178.5 L88.2,28.0 L100.3,118.7 L112.3,163.5 L124.4,216.5 L136.5,76.5 L148.5,150.7 L160.6,213.2 L172.6,201.1 L184.7,194.8 L196.8,160.4 L208.8,208.0 L220.9,214.8 L233.0,217.4 L245.0,231.5 L257.1,231.5 L269.2,224.7 L281.2,213.9 L293.3,230.6 L305.4,231.3 L317.4,231.5 L329.5,232.0 L341.5,231.5 L353.6,231.1 L365.7,232.0 L377.7,230.8 L389.8,232.0 L401.9,212.2 L413.9,231.5 L426.0,229.6 L438.1,226.1 L450.1,229.2 L462.2,231.5 L474.3,231.8 L486.3,228.5 L498.4,231.8 L510.5,230.8 L522.5,212.7 L534.6,130.5 L546.6,231.1 L558.7,231.8 L570.8,231.3 L582.8,231.3 L594.9,232.0 L607.0,231.5 L619.0,232.0 L631.1,231.5 L643.2,231.8 L655.2,231.3 L667.3,231.5 L679.4,232.0 L691.4,232.0 L703.5,231.8 L715.5,232.0 L727.6,232.0 L739.7,232.0 L751.7,232.0 L763.8,231.8 L775.9,231.3 L787.9,232.0 L800.0,232.0 L800.0,232.0 L52.0,232.0Z" fill="#4e79a7" opacity="0.12"/>

  <!-- lines -->
  <polyline points="52.0,226.8 64.1,169.6 76.1,178.5 88.2,28.0 100.3,118.7 112.3,163.5 124.4,216.5 136.5,76.5 148.5,150.7 160.6,213.2 172.6,201.1 184.7,194.8 196.8,160.4 208.8,208.0 220.9,214.8 233.0,217.4 245.0,231.5 257.1,231.5 269.2,224.7 281.2,213.9 293.3,230.6 305.4,231.3 317.4,231.5 329.5,232.0 341.5,231.5 353.6,231.1 365.7,232.0 377.7,230.8 389.8,232.0 401.9,212.2 413.9,231.5 426.0,229.6 438.1,226.1 450.1,229.2 462.2,231.5 474.3,231.8 486.3,228.5 498.4,231.8 510.5,230.8 522.5,212.7 534.6,130.5 546.6,231.1 558.7,231.8 570.8,231.3 582.8,231.3 594.9,232.0 607.0,231.5 619.0,232.0 631.1,231.5 643.2,231.8 655.2,231.3 667.3,231.5 679.4,232.0 691.4,232.0 703.5,231.8 715.5,232.0 727.6,232.0 739.7,232.0 751.7,232.0 763.8,231.8 775.9,231.3 787.9,232.0 800.0,232.0"
            fill="none" stroke="#4e79a7"
            stroke-width="2" stroke-linejoin="round"/>
  <polyline points="52.0,229.4 64.1,202.8 76.1,209.6 88.2,170.0 100.3,193.1 112.3,207.5 124.4,224.9 136.5,188.4 148.5,208.2 160.6,224.9 172.6,223.8 184.7,222.3 196.8,212.7 208.8,225.2 220.9,229.4 233.0,228.2 245.0,231.5 257.1,231.5 269.2,229.4 281.2,226.8 293.3,230.8 305.4,231.5 317.4,231.8 329.5,232.0 341.5,231.8 353.6,231.3 365.7,232.0 377.7,231.3 389.8,232.0 401.9,226.1 413.9,231.5 426.0,230.6 438.1,228.7 450.1,231.1 462.2,231.5 474.3,231.8 486.3,230.6 498.4,231.8 510.5,231.5 522.5,226.8 534.6,217.2 546.6,231.3 558.7,231.8 570.8,231.5 582.8,231.5 594.9,232.0 607.0,231.8 619.0,232.0 631.1,231.8 643.2,231.8 655.2,231.5 667.3,231.8 679.4,232.0 691.4,232.0 703.5,231.8 715.5,232.0 727.6,232.0 739.7,232.0 751.7,232.0 763.8,231.8 775.9,231.5 787.9,232.0 800.0,232.0"
            fill="none" stroke="#f28e2b"
            stroke-width="2" stroke-linejoin="round"
            stroke-dasharray="5,3"/>

  <!-- dots -->
  <circle cx="52.0" cy="226.8" r="3" fill="#4e79a7"/><circle cx="64.1" cy="169.6" r="3" fill="#4e79a7"/><circle cx="76.1" cy="178.5" r="3" fill="#4e79a7"/><circle cx="88.2" cy="28.0" r="3" fill="#4e79a7"/><circle cx="100.3" cy="118.7" r="3" fill="#4e79a7"/><circle cx="112.3" cy="163.5" r="3" fill="#4e79a7"/><circle cx="124.4" cy="216.5" r="3" fill="#4e79a7"/><circle cx="136.5" cy="76.5" r="3" fill="#4e79a7"/><circle cx="148.5" cy="150.7" r="3" fill="#4e79a7"/><circle cx="160.6" cy="213.2" r="3" fill="#4e79a7"/><circle cx="172.6" cy="201.1" r="3" fill="#4e79a7"/><circle cx="184.7" cy="194.8" r="3" fill="#4e79a7"/><circle cx="196.8" cy="160.4" r="3" fill="#4e79a7"/><circle cx="208.8" cy="208.0" r="3" fill="#4e79a7"/><circle cx="220.9" cy="214.8" r="3" fill="#4e79a7"/><circle cx="233.0" cy="217.4" r="3" fill="#4e79a7"/><circle cx="245.0" cy="231.5" r="3" fill="#4e79a7"/><circle cx="257.1" cy="231.5" r="3" fill="#4e79a7"/><circle cx="269.2" cy="224.7" r="3" fill="#4e79a7"/><circle cx="281.2" cy="213.9" r="3" fill="#4e79a7"/><circle cx="293.3" cy="230.6" r="3" fill="#4e79a7"/><circle cx="305.4" cy="231.3" r="3" fill="#4e79a7"/><circle cx="317.4" cy="231.5" r="3" fill="#4e79a7"/><circle cx="329.5" cy="232.0" r="3" fill="#4e79a7"/><circle cx="341.5" cy="231.5" r="3" fill="#4e79a7"/><circle cx="353.6" cy="231.1" r="3" fill="#4e79a7"/><circle cx="365.7" cy="232.0" r="3" fill="#4e79a7"/><circle cx="377.7" cy="230.8" r="3" fill="#4e79a7"/><circle cx="389.8" cy="232.0" r="3" fill="#4e79a7"/><circle cx="401.9" cy="212.2" r="3" fill="#4e79a7"/><circle cx="413.9" cy="231.5" r="3" fill="#4e79a7"/><circle cx="426.0" cy="229.6" r="3" fill="#4e79a7"/><circle cx="438.1" cy="226.1" r="3" fill="#4e79a7"/><circle cx="450.1" cy="229.2" r="3" fill="#4e79a7"/><circle cx="462.2" cy="231.5" r="3" fill="#4e79a7"/><circle cx="474.3" cy="231.8" r="3" fill="#4e79a7"/><circle cx="486.3" cy="228.5" r="3" fill="#4e79a7"/><circle cx="498.4" cy="231.8" r="3" fill="#4e79a7"/><circle cx="510.5" cy="230.8" r="3" fill="#4e79a7"/><circle cx="522.5" cy="212.7" r="3" fill="#4e79a7"/><circle cx="534.6" cy="130.5" r="3" fill="#4e79a7"/><circle cx="546.6" cy="231.1" r="3" fill="#4e79a7"/><circle cx="558.7" cy="231.8" r="3" fill="#4e79a7"/><circle cx="570.8" cy="231.3" r="3" fill="#4e79a7"/><circle cx="582.8" cy="231.3" r="3" fill="#4e79a7"/><circle cx="594.9" cy="232.0" r="3" fill="#4e79a7"/><circle cx="607.0" cy="231.5" r="3" fill="#4e79a7"/><circle cx="619.0" cy="232.0" r="3" fill="#4e79a7"/><circle cx="631.1" cy="231.5" r="3" fill="#4e79a7"/><circle cx="643.2" cy="231.8" r="3" fill="#4e79a7"/><circle cx="655.2" cy="231.3" r="3" fill="#4e79a7"/><circle cx="667.3" cy="231.5" r="3" fill="#4e79a7"/><circle cx="679.4" cy="232.0" r="3" fill="#4e79a7"/><circle cx="691.4" cy="232.0" r="3" fill="#4e79a7"/><circle cx="703.5" cy="231.8" r="3" fill="#4e79a7"/><circle cx="715.5" cy="232.0" r="3" fill="#4e79a7"/><circle cx="727.6" cy="232.0" r="3" fill="#4e79a7"/><circle cx="739.7" cy="232.0" r="3" fill="#4e79a7"/><circle cx="751.7" cy="232.0" r="3" fill="#4e79a7"/><circle cx="763.8" cy="231.8" r="3" fill="#4e79a7"/><circle cx="775.9" cy="231.3" r="3" fill="#4e79a7"/><circle cx="787.9" cy="232.0" r="3" fill="#4e79a7"/><circle cx="800.0" cy="232.0" r="3" fill="#4e79a7"/>
  <circle cx="52.0" cy="229.4" r="3" fill="#f28e2b"/><circle cx="64.1" cy="202.8" r="3" fill="#f28e2b"/><circle cx="76.1" cy="209.6" r="3" fill="#f28e2b"/><circle cx="88.2" cy="170.0" r="3" fill="#f28e2b"/><circle cx="100.3" cy="193.1" r="3" fill="#f28e2b"/><circle cx="112.3" cy="207.5" r="3" fill="#f28e2b"/><circle cx="124.4" cy="224.9" r="3" fill="#f28e2b"/><circle cx="136.5" cy="188.4" r="3" fill="#f28e2b"/><circle cx="148.5" cy="208.2" r="3" fill="#f28e2b"/><circle cx="160.6" cy="224.9" r="3" fill="#f28e2b"/><circle cx="172.6" cy="223.8" r="3" fill="#f28e2b"/><circle cx="184.7" cy="222.3" r="3" fill="#f28e2b"/><circle cx="196.8" cy="212.7" r="3" fill="#f28e2b"/><circle cx="208.8" cy="225.2" r="3" fill="#f28e2b"/><circle cx="220.9" cy="229.4" r="3" fill="#f28e2b"/><circle cx="233.0" cy="228.2" r="3" fill="#f28e2b"/><circle cx="245.0" cy="231.5" r="3" fill="#f28e2b"/><circle cx="257.1" cy="231.5" r="3" fill="#f28e2b"/><circle cx="269.2" cy="229.4" r="3" fill="#f28e2b"/><circle cx="281.2" cy="226.8" r="3" fill="#f28e2b"/><circle cx="293.3" cy="230.8" r="3" fill="#f28e2b"/><circle cx="305.4" cy="231.5" r="3" fill="#f28e2b"/><circle cx="317.4" cy="231.8" r="3" fill="#f28e2b"/><circle cx="329.5" cy="232.0" r="3" fill="#f28e2b"/><circle cx="341.5" cy="231.8" r="3" fill="#f28e2b"/><circle cx="353.6" cy="231.3" r="3" fill="#f28e2b"/><circle cx="365.7" cy="232.0" r="3" fill="#f28e2b"/><circle cx="377.7" cy="231.3" r="3" fill="#f28e2b"/><circle cx="389.8" cy="232.0" r="3" fill="#f28e2b"/><circle cx="401.9" cy="226.1" r="3" fill="#f28e2b"/><circle cx="413.9" cy="231.5" r="3" fill="#f28e2b"/><circle cx="426.0" cy="230.6" r="3" fill="#f28e2b"/><circle cx="438.1" cy="228.7" r="3" fill="#f28e2b"/><circle cx="450.1" cy="231.1" r="3" fill="#f28e2b"/><circle cx="462.2" cy="231.5" r="3" fill="#f28e2b"/><circle cx="474.3" cy="231.8" r="3" fill="#f28e2b"/><circle cx="486.3" cy="230.6" r="3" fill="#f28e2b"/><circle cx="498.4" cy="231.8" r="3" fill="#f28e2b"/><circle cx="510.5" cy="231.5" r="3" fill="#f28e2b"/><circle cx="522.5" cy="226.8" r="3" fill="#f28e2b"/><circle cx="534.6" cy="217.2" r="3" fill="#f28e2b"/><circle cx="546.6" cy="231.3" r="3" fill="#f28e2b"/><circle cx="558.7" cy="231.8" r="3" fill="#f28e2b"/><circle cx="570.8" cy="231.5" r="3" fill="#f28e2b"/><circle cx="582.8" cy="231.5" r="3" fill="#f28e2b"/><circle cx="594.9" cy="232.0" r="3" fill="#f28e2b"/><circle cx="607.0" cy="231.8" r="3" fill="#f28e2b"/><circle cx="619.0" cy="232.0" r="3" fill="#f28e2b"/><circle cx="631.1" cy="231.8" r="3" fill="#f28e2b"/><circle cx="643.2" cy="231.8" r="3" fill="#f28e2b"/><circle cx="655.2" cy="231.5" r="3" fill="#f28e2b"/><circle cx="667.3" cy="231.8" r="3" fill="#f28e2b"/><circle cx="679.4" cy="232.0" r="3" fill="#f28e2b"/><circle cx="691.4" cy="232.0" r="3" fill="#f28e2b"/><circle cx="703.5" cy="231.8" r="3" fill="#f28e2b"/><circle cx="715.5" cy="232.0" r="3" fill="#f28e2b"/><circle cx="727.6" cy="232.0" r="3" fill="#f28e2b"/><circle cx="739.7" cy="232.0" r="3" fill="#f28e2b"/><circle cx="751.7" cy="232.0" r="3" fill="#f28e2b"/><circle cx="763.8" cy="231.8" r="3" fill="#f28e2b"/><circle cx="775.9" cy="231.5" r="3" fill="#f28e2b"/><circle cx="787.9" cy="232.0" r="3" fill="#f28e2b"/><circle cx="800.0" cy="232.0" r="3" fill="#f28e2b"/>

  <!-- axes -->
  <line x1="52" y1="28" x2="52" y2="232"
        stroke="#cccccc" stroke-width="1"/>
  <line x1="52" y1="232" x2="800" y2="232"
        stroke="#cccccc" stroke-width="1"/>

  <!-- y-axis labels -->
  <text x="47" y="236.0" text-anchor="end" font-size="10" fill="#57606a" font-family="ui-monospace, SFMono-Regular, 'SF Mono', Menlo, monospace">0</text><text x="47" y="188.9" text-anchor="end" font-size="10" fill="#57606a" font-family="ui-monospace, SFMono-Regular, 'SF Mono', Menlo, monospace">200</text><text x="47" y="141.8" text-anchor="end" font-size="10" fill="#57606a" font-family="ui-monospace, SFMono-Regular, 'SF Mono', Menlo, monospace">400</text><text x="47" y="94.7" text-anchor="end" font-size="10" fill="#57606a" font-family="ui-monospace, SFMono-Regular, 'SF Mono', Menlo, monospace">600</text><text x="47" y="47.5" text-anchor="end" font-size="10" fill="#57606a" font-family="ui-monospace, SFMono-Regular, 'SF Mono', Menlo, monospace">800</text><text x="47" y="0.4" text-anchor="end" font-size="10" fill="#57606a" font-family="ui-monospace, SFMono-Regular, 'SF Mono', Menlo, monospace">1,000</text>

  <!-- x-axis labels -->
  <text x="52.0" y="248" text-anchor="middle" font-size="10" fill="#8c959f" font-family="ui-monospace, SFMono-Regular, 'SF Mono', Menlo, monospace">05-11</text><text x="474.3" y="248" text-anchor="middle" font-size="10" fill="#8c959f" font-family="ui-monospace, SFMono-Regular, 'SF Mono', Menlo, monospace">06-15</text><text x="136.5" y="248" text-anchor="middle" font-size="10" fill="#8c959f" font-family="ui-monospace, SFMono-Regular, 'SF Mono', Menlo, monospace">05-18</text><text x="558.7" y="248" text-anchor="middle" font-size="10" fill="#8c959f" font-family="ui-monospace, SFMono-Regular, 'SF Mono', Menlo, monospace">06-22</text><text x="220.9" y="248" text-anchor="middle" font-size="10" fill="#8c959f" font-family="ui-monospace, SFMono-Regular, 'SF Mono', Menlo, monospace">05-25</text><text x="643.2" y="248" text-anchor="middle" font-size="10" fill="#8c959f" font-family="ui-monospace, SFMono-Regular, 'SF Mono', Menlo, monospace">06-29</text><text x="305.4" y="248" text-anchor="middle" font-size="10" fill="#8c959f" font-family="ui-monospace, SFMono-Regular, 'SF Mono', Menlo, monospace">06-01</text><text x="727.6" y="248" text-anchor="middle" font-size="10" fill="#8c959f" font-family="ui-monospace, SFMono-Regular, 'SF Mono', Menlo, monospace">07-06</text><text x="389.8" y="248" text-anchor="middle" font-size="10" fill="#8c959f" font-family="ui-monospace, SFMono-Regular, 'SF Mono', Menlo, monospace">06-08</text><text x="800.0" y="248" text-anchor="middle" font-size="10" fill="#8c959f" font-family="ui-monospace, SFMono-Regular, 'SF Mono', Menlo, monospace">07-12</text>

  <!-- legend -->
  <rect x="60" y="262" width="16" height="3" fill="#4e79a7" rx="1"/><text x="80" y="268" font-size="11" fill="#57606a" font-family="-apple-system, BlinkMacSystemFont, 'Segoe UI', sans-serif">Total clones (4,963)</text><line x1="230" y1="264" x2="246" y2="264" stroke="#f28e2b" stroke-width="2" stroke-dasharray="5,3"/><text x="250" y="268" font-size="11" fill="#57606a" font-family="-apple-system, BlinkMacSystemFont, 'Segoe UI', sans-serif">Unique cloners</text>

</svg>