<svg xmlns="http://www.w3.org/2000/svg" viewBox="0 0 820 280" width="820" height="280">

  <!-- title -->
  <text x="52" y="18" font-size="13" font-weight="600"
        fill="#24292f" font-family="-apple-system, BlinkMacSystemFont, 'Segoe UI', sans-serif"
        >Clone traffic — orthodox-calendar</text>
  <text x="800" y="18" font-size="10" fill="#8c959f"
        font-family="ui-monospace, SFMono-Regular, 'SF Mono', Menlo, monospace" text-anchor="end">2026-06-06</text>

  <!-- grid -->
  <line x1="52" y1="232.0" x2="800" y2="232.0" stroke="#e8e8e8" stroke-width="1"/><line x1="52" y1="184.9" x2="800" y2="184.9" stroke="#e8e8e8" stroke-width="1"/><line x1="52" y1="137.8" x2="800" y2="137.8" stroke="#e8e8e8" stroke-width="1"/><line x1="52" y1="90.7" x2="800" y2="90.7" stroke="#e8e8e8" stroke-width="1"/><line x1="52" y1="43.5" x2="800" y2="43.5" stroke="#e8e8e8" stroke-width="1"/><line x1="52" y1="-3.6" x2="800" y2="-3.6" stroke="#e8e8e8" stroke-width="1"/>

  <!-- area fill -->
  <path d="M52.0,226.8 L52.0,226.8 L83.2,169.6 L114.3,178.5 L145.5,28.0 L176.7,118.7 L207.8,163.5 L239.0,216.5 L270.2,76.5 L301.3,150.7 L332.5,213.2 L363.7,201.1 L394.8,194.8 L426.0,160.4 L457.2,208.0 L488.3,214.8 L519.5,217.4 L550.7,231.5 L581.8,231.5 L613.0,224.7 L644.2,213.9 L675.3,230.6 L706.5,231.3 L737.7,231.5 L768.8,232.0 L800.0,231.5 L800.0,232.0 L52.0,232.0Z" fill="#4e79a7" opacity="0.12"/>

  <!-- lines -->
  <polyline points="52.0,226.8 83.2,169.6 114.3,178.5 145.5,28.0 176.7,118.7 207.8,163.5 239.0,216.5 270.2,76.5 301.3,150.7 332.5,213.2 363.7,201.1 394.8,194.8 426.0,160.4 457.2,208.0 488.3,214.8 519.5,217.4 550.7,231.5 581.8,231.5 613.0,224.7 644.2,213.9 675.3,230.6 706.5,231.3 737.7,231.5 768.8,232.0 800.0,231.5"
            fill="none" stroke="#4e79a7"
            stroke-width="2" stroke-linejoin="round"/>
  <polyline points="52.0,229.4 83.2,202.8 114.3,209.6 145.5,170.0 176.7,193.1 207.8,207.5 239.0,224.9 270.2,188.4 301.3,208.2 332.5,224.9 363.7,223.8 394.8,222.3 426.0,212.7 457.2,225.2 488.3,229.4 519.5,228.2 550.7,231.5 581.8,231.5 613.0,229.4 644.2,226.8 675.3,230.8 706.5,231.5 737.7,231.8 768.8,232.0 800.0,231.8"
            fill="none" stroke="#f28e2b"
            stroke-width="2" stroke-linejoin="round"
            stroke-dasharray="5,3"/>

  <!-- dots -->
  <circle cx="52.0" cy="226.8" r="3" fill="#4e79a7"/><circle cx="83.2" cy="169.6" r="3" fill="#4e79a7"/><circle cx="114.3" cy="178.5" r="3" fill="#4e79a7"/><circle cx="145.5" cy="28.0" r="3" fill="#4e79a7"/><circle cx="176.7" cy="118.7" r="3" fill="#4e79a7"/><circle cx="207.8" cy="163.5" r="3" fill="#4e79a7"/><circle cx="239.0" cy="216.5" r="3" fill="#4e79a7"/><circle cx="270.2" cy="76.5" r="3" fill="#4e79a7"/><circle cx="301.3" cy="150.7" r="3" fill="#4e79a7"/><circle cx="332.5" cy="213.2" r="3" fill="#4e79a7"/><circle cx="363.7" cy="201.1" r="3" fill="#4e79a7"/><circle cx="394.8" cy="194.8" r="3" fill="#4e79a7"/><circle cx="426.0" cy="160.4" r="3" fill="#4e79a7"/><circle cx="457.2" cy="208.0" r="3" fill="#4e79a7"/><circle cx="488.3" cy="214.8" r="3" fill="#4e79a7"/><circle cx="519.5" cy="217.4" r="3" fill="#4e79a7"/><circle cx="550.7" cy="231.5" r="3" fill="#4e79a7"/><circle cx="581.8" cy="231.5" r="3" fill="#4e79a7"/><circle cx="613.0" cy="224.7" r="3" fill="#4e79a7"/><circle cx="644.2" cy="213.9" r="3" fill="#4e79a7"/><circle cx="675.3" cy="230.6" r="3" fill="#4e79a7"/><circle cx="706.5" cy="231.3" r="3" fill="#4e79a7"/><circle cx="737.7" cy="231.5" r="3" fill="#4e79a7"/><circle cx="768.8" cy="232.0" r="3" fill="#4e79a7"/><circle cx="800.0" cy="231.5" r="3" fill="#4e79a7"/>
  <circle cx="52.0" cy="229.4" r="3" fill="#f28e2b"/><circle cx="83.2" cy="202.8" r="3" fill="#f28e2b"/><circle cx="114.3" cy="209.6" r="3" fill="#f28e2b"/><circle cx="145.5" cy="170.0" r="3" fill="#f28e2b"/><circle cx="176.7" cy="193.1" r="3" fill="#f28e2b"/><circle cx="207.8" cy="207.5" r="3" fill="#f28e2b"/><circle cx="239.0" cy="224.9" r="3" fill="#f28e2b"/><circle cx="270.2" cy="188.4" r="3" fill="#f28e2b"/><circle cx="301.3" cy="208.2" r="3" fill="#f28e2b"/><circle cx="332.5" cy="224.9" r="3" fill="#f28e2b"/><circle cx="363.7" cy="223.8" r="3" fill="#f28e2b"/><circle cx="394.8" cy="222.3" r="3" fill="#f28e2b"/><circle cx="426.0" cy="212.7" r="3" fill="#f28e2b"/><circle cx="457.2" cy="225.2" r="3" fill="#f28e2b"/><circle cx="488.3" cy="229.4" r="3" fill="#f28e2b"/><circle cx="519.5" cy="228.2" r="3" fill="#f28e2b"/><circle cx="550.7" cy="231.5" r="3" fill="#f28e2b"/><circle cx="581.8" cy="231.5" r="3" fill="#f28e2b"/><circle cx="613.0" cy="229.4" r="3" fill="#f28e2b"/><circle cx="644.2" cy="226.8" r="3" fill="#f28e2b"/><circle cx="675.3" cy="230.8" r="3" fill="#f28e2b"/><circle cx="706.5" cy="231.5" r="3" fill="#f28e2b"/><circle cx="737.7" cy="231.8" r="3" fill="#f28e2b"/><circle cx="768.8" cy="232.0" r="3" fill="#f28e2b"/><circle cx="800.0" cy="231.8" r="3" fill="#f28e2b"/>

  <!-- axes -->
  <line x1="52" y1="28" x2="52" y2="232"
        stroke="#cccccc" stroke-width="1"/>
  <line x1="52" y1="232" x2="800" y2="232"
        stroke="#cccccc" stroke-width="1"/>

  <!-- y-axis labels -->
  <text x="47" y="236.0" text-anchor="end" font-size="10" fill="#57606a" font-family="ui-monospace, SFMono-Regular, 'SF Mono', Menlo, monospace">0</text><text x="47" y="188.9" text-anchor="end" font-size="10" fill="#57606a" font-family="ui-monospace, SFMono-Regular, 'SF Mono', Menlo, monospace">200</text><text x="47" y="141.8" text-anchor="end" font-size="10" fill="#57606a" font-family="ui-monospace, SFMono-Regular, 'SF Mono', Menlo, monospace">400</text><text x="47" y="94.7" text-anchor="end" font-size="10" fill="#57606a" font-family="ui-monospace, SFMono-Regular, 'SF Mono', Menlo, monospace">600</text><text x="47" y="47.5" text-anchor="end" font-size="10" fill="#57606a" font-family="ui-monospace, SFMono-Regular, 'SF Mono', Menlo, monospace">800</text><text x="47" y="0.4" text-anchor="end" font-size="10" fill="#57606a" font-family="ui-monospace, SFMono-Regular, 'SF Mono', Menlo, monospace">1,000</text>

  <!-- x-axis labels -->
  <text x="52.0" y="248" text-anchor="middle" font-size="10" fill="#8c959f" font-family="ui-monospace, SFMono-Regular, 'SF Mono', Menlo, monospace">05-11</text><text x="145.5" y="248" text-anchor="middle" font-size="10" fill="#8c959f" font-family="ui-monospace, SFMono-Regular, 'SF Mono', Menlo, monospace">05-14</text><text x="239.0" y="248" text-anchor="middle" font-size="10" fill="#8c959f" font-family="ui-monospace, SFMono-Regular, 'SF Mono', Menlo, monospace">05-17</text><text x="332.5" y="248" text-anchor="middle" font-size="10" fill="#8c959f" font-family="ui-monospace, SFMono-Regular, 'SF Mono', Menlo, monospace">05-20</text><text x="426.0" y="248" text-anchor="middle" font-size="10" fill="#8c959f" font-family="ui-monospace, SFMono-Regular, 'SF Mono', Menlo, monospace">05-23</text><text x="519.5" y="248" text-anchor="middle" font-size="10" fill="#8c959f" font-family="ui-monospace, SFMono-Regular, 'SF Mono', Menlo, monospace">05-26</text><text x="613.0" y="248" text-anchor="middle" font-size="10" fill="#8c959f" font-family="ui-monospace, SFMono-Regular, 'SF Mono', Menlo, monospace">05-29</text><text x="706.5" y="248" text-anchor="middle" font-size="10" fill="#8c959f" font-family="ui-monospace, SFMono-Regular, 'SF Mono', Menlo, monospace">06-01</text><text x="800.0" y="248" text-anchor="middle" font-size="10" fill="#8c959f" font-family="ui-monospace, SFMono-Regular, 'SF Mono', Menlo, monospace">06-04</text>

  <!-- legend -->
  <rect x="60" y="262" width="16" height="3" fill="#4e79a7" rx="1"/><text x="80" y="268" font-size="11" fill="#57606a" font-family="-apple-system, BlinkMacSystemFont, 'Segoe UI', sans-serif">Total clones (4,258)</text><line x1="230" y1="264" x2="246" y2="264" stroke="#f28e2b" stroke-width="2" stroke-dasharray="5,3"/><text x="250" y="268" font-size="11" fill="#57606a" font-family="-apple-system, BlinkMacSystemFont, 'Segoe UI', sans-serif">Unique cloners</text>

</svg>