<svg xmlns="http://www.w3.org/2000/svg" viewBox="0 0 820 280" width="820" height="280">

  <!-- title -->
  <text x="52" y="18" font-size="13" font-weight="600"
        fill="#24292f" font-family="-apple-system, BlinkMacSystemFont, 'Segoe UI', sans-serif"
        >Clone traffic — orthodox-calendar</text>
  <text x="800" y="18" font-size="10" fill="#8c959f"
        font-family="ui-monospace, SFMono-Regular, 'SF Mono', Menlo, monospace" text-anchor="end">2026-07-03</text>

  <!-- grid -->
  <line x1="52" y1="232.0" x2="800" y2="232.0" stroke="#e8e8e8" stroke-width="1"/><line x1="52" y1="184.9" x2="800" y2="184.9" stroke="#e8e8e8" stroke-width="1"/><line x1="52" y1="137.8" x2="800" y2="137.8" stroke="#e8e8e8" stroke-width="1"/><line x1="52" y1="90.7" x2="800" y2="90.7" stroke="#e8e8e8" stroke-width="1"/><line x1="52" y1="43.5" x2="800" y2="43.5" stroke="#e8e8e8" stroke-width="1"/><line x1="52" y1="-3.6" x2="800" y2="-3.6" stroke="#e8e8e8" stroke-width="1"/>

  <!-- area fill -->
  <path d="M52.0,226.8 L52.0,226.8 L66.4,169.6 L80.8,178.5 L95.2,28.0 L109.5,118.7 L123.9,163.5 L138.3,216.5 L152.7,76.5 L167.1,150.7 L181.5,213.2 L195.8,201.1 L210.2,194.8 L224.6,160.4 L239.0,208.0 L253.4,214.8 L267.8,217.4 L282.2,231.5 L296.5,231.5 L310.9,224.7 L325.3,213.9 L339.7,230.6 L354.1,231.3 L368.5,231.5 L382.8,232.0 L397.2,231.5 L411.6,231.1 L426.0,232.0 L440.4,230.8 L454.8,232.0 L469.2,212.2 L483.5,231.5 L497.9,229.6 L512.3,226.1 L526.7,229.2 L541.1,231.5 L555.5,231.8 L569.8,228.5 L584.2,231.8 L598.6,230.8 L613.0,212.7 L627.4,130.5 L641.8,231.1 L656.2,231.8 L670.5,231.3 L684.9,231.3 L699.3,232.0 L713.7,231.5 L728.1,232.0 L742.5,231.5 L756.8,231.8 L771.2,231.3 L785.6,231.5 L800.0,232.0 L800.0,232.0 L52.0,232.0Z" fill="#4e79a7" opacity="0.12"/>

  <!-- lines -->
  <polyline points="52.0,226.8 66.4,169.6 80.8,178.5 95.2,28.0 109.5,118.7 123.9,163.5 138.3,216.5 152.7,76.5 167.1,150.7 181.5,213.2 195.8,201.1 210.2,194.8 224.6,160.4 239.0,208.0 253.4,214.8 267.8,217.4 282.2,231.5 296.5,231.5 310.9,224.7 325.3,213.9 339.7,230.6 354.1,231.3 368.5,231.5 382.8,232.0 397.2,231.5 411.6,231.1 426.0,232.0 440.4,230.8 454.8,232.0 469.2,212.2 483.5,231.5 497.9,229.6 512.3,226.1 526.7,229.2 541.1,231.5 555.5,231.8 569.8,228.5 584.2,231.8 598.6,230.8 613.0,212.7 627.4,130.5 641.8,231.1 656.2,231.8 670.5,231.3 684.9,231.3 699.3,232.0 713.7,231.5 728.1,232.0 742.5,231.5 756.8,231.8 771.2,231.3 785.6,231.5 800.0,232.0"
            fill="none" stroke="#4e79a7"
            stroke-width="2" stroke-linejoin="round"/>
  <polyline points="52.0,229.4 66.4,202.8 80.8,209.6 95.2,170.0 109.5,193.1 123.9,207.5 138.3,224.9 152.7,188.4 167.1,208.2 181.5,224.9 195.8,223.8 210.2,222.3 224.6,212.7 239.0,225.2 253.4,229.4 267.8,228.2 282.2,231.5 296.5,231.5 310.9,229.4 325.3,226.8 339.7,230.8 354.1,231.5 368.5,231.8 382.8,232.0 397.2,231.8 411.6,231.3 426.0,232.0 440.4,231.3 454.8,232.0 469.2,226.1 483.5,231.5 497.9,230.6 512.3,228.7 526.7,231.1 541.1,231.5 555.5,231.8 569.8,230.6 584.2,231.8 598.6,231.5 613.0,226.8 627.4,217.2 641.8,231.3 656.2,231.8 670.5,231.5 684.9,231.5 699.3,232.0 713.7,231.8 728.1,232.0 742.5,231.8 756.8,231.8 771.2,231.5 785.6,231.8 800.0,232.0"
            fill="none" stroke="#f28e2b"
            stroke-width="2" stroke-linejoin="round"
            stroke-dasharray="5,3"/>

  <!-- dots -->
  <circle cx="52.0" cy="226.8" r="3" fill="#4e79a7"/><circle cx="66.4" cy="169.6" r="3" fill="#4e79a7"/><circle cx="80.8" cy="178.5" r="3" fill="#4e79a7"/><circle cx="95.2" cy="28.0" r="3" fill="#4e79a7"/><circle cx="109.5" cy="118.7" r="3" fill="#4e79a7"/><circle cx="123.9" cy="163.5" r="3" fill="#4e79a7"/><circle cx="138.3" cy="216.5" r="3" fill="#4e79a7"/><circle cx="152.7" cy="76.5" r="3" fill="#4e79a7"/><circle cx="167.1" cy="150.7" r="3" fill="#4e79a7"/><circle cx="181.5" cy="213.2" r="3" fill="#4e79a7"/><circle cx="195.8" cy="201.1" r="3" fill="#4e79a7"/><circle cx="210.2" cy="194.8" r="3" fill="#4e79a7"/><circle cx="224.6" cy="160.4" r="3" fill="#4e79a7"/><circle cx="239.0" cy="208.0" r="3" fill="#4e79a7"/><circle cx="253.4" cy="214.8" r="3" fill="#4e79a7"/><circle cx="267.8" cy="217.4" r="3" fill="#4e79a7"/><circle cx="282.2" cy="231.5" r="3" fill="#4e79a7"/><circle cx="296.5" cy="231.5" r="3" fill="#4e79a7"/><circle cx="310.9" cy="224.7" r="3" fill="#4e79a7"/><circle cx="325.3" cy="213.9" r="3" fill="#4e79a7"/><circle cx="339.7" cy="230.6" r="3" fill="#4e79a7"/><circle cx="354.1" cy="231.3" r="3" fill="#4e79a7"/><circle cx="368.5" cy="231.5" r="3" fill="#4e79a7"/><circle cx="382.8" cy="232.0" r="3" fill="#4e79a7"/><circle cx="397.2" cy="231.5" r="3" fill="#4e79a7"/><circle cx="411.6" cy="231.1" r="3" fill="#4e79a7"/><circle cx="426.0" cy="232.0" r="3" fill="#4e79a7"/><circle cx="440.4" cy="230.8" r="3" fill="#4e79a7"/><circle cx="454.8" cy="232.0" r="3" fill="#4e79a7"/><circle cx="469.2" cy="212.2" r="3" fill="#4e79a7"/><circle cx="483.5" cy="231.5" r="3" fill="#4e79a7"/><circle cx="497.9" cy="229.6" r="3" fill="#4e79a7"/><circle cx="512.3" cy="226.1" r="3" fill="#4e79a7"/><circle cx="526.7" cy="229.2" r="3" fill="#4e79a7"/><circle cx="541.1" cy="231.5" r="3" fill="#4e79a7"/><circle cx="555.5" cy="231.8" r="3" fill="#4e79a7"/><circle cx="569.8" cy="228.5" r="3" fill="#4e79a7"/><circle cx="584.2" cy="231.8" r="3" fill="#4e79a7"/><circle cx="598.6" cy="230.8" r="3" fill="#4e79a7"/><circle cx="613.0" cy="212.7" r="3" fill="#4e79a7"/><circle cx="627.4" cy="130.5" r="3" fill="#4e79a7"/><circle cx="641.8" cy="231.1" r="3" fill="#4e79a7"/><circle cx="656.2" cy="231.8" r="3" fill="#4e79a7"/><circle cx="670.5" cy="231.3" r="3" fill="#4e79a7"/><circle cx="684.9" cy="231.3" r="3" fill="#4e79a7"/><circle cx="699.3" cy="232.0" r="3" fill="#4e79a7"/><circle cx="713.7" cy="231.5" r="3" fill="#4e79a7"/><circle cx="728.1" cy="232.0" r="3" fill="#4e79a7"/><circle cx="742.5" cy="231.5" r="3" fill="#4e79a7"/><circle cx="756.8" cy="231.8" r="3" fill="#4e79a7"/><circle cx="771.2" cy="231.3" r="3" fill="#4e79a7"/><circle cx="785.6" cy="231.5" r="3" fill="#4e79a7"/><circle cx="800.0" cy="232.0" r="3" fill="#4e79a7"/>
  <circle cx="52.0" cy="229.4" r="3" fill="#f28e2b"/><circle cx="66.4" cy="202.8" r="3" fill="#f28e2b"/><circle cx="80.8" cy="209.6" r="3" fill="#f28e2b"/><circle cx="95.2" cy="170.0" r="3" fill="#f28e2b"/><circle cx="109.5" cy="193.1" r="3" fill="#f28e2b"/><circle cx="123.9" cy="207.5" r="3" fill="#f28e2b"/><circle cx="138.3" cy="224.9" r="3" fill="#f28e2b"/><circle cx="152.7" cy="188.4" r="3" fill="#f28e2b"/><circle cx="167.1" cy="208.2" r="3" fill="#f28e2b"/><circle cx="181.5" cy="224.9" r="3" fill="#f28e2b"/><circle cx="195.8" cy="223.8" r="3" fill="#f28e2b"/><circle cx="210.2" cy="222.3" r="3" fill="#f28e2b"/><circle cx="224.6" cy="212.7" r="3" fill="#f28e2b"/><circle cx="239.0" cy="225.2" r="3" fill="#f28e2b"/><circle cx="253.4" cy="229.4" r="3" fill="#f28e2b"/><circle cx="267.8" cy="228.2" r="3" fill="#f28e2b"/><circle cx="282.2" cy="231.5" r="3" fill="#f28e2b"/><circle cx="296.5" cy="231.5" r="3" fill="#f28e2b"/><circle cx="310.9" cy="229.4" r="3" fill="#f28e2b"/><circle cx="325.3" cy="226.8" r="3" fill="#f28e2b"/><circle cx="339.7" cy="230.8" r="3" fill="#f28e2b"/><circle cx="354.1" cy="231.5" r="3" fill="#f28e2b"/><circle cx="368.5" cy="231.8" r="3" fill="#f28e2b"/><circle cx="382.8" cy="232.0" r="3" fill="#f28e2b"/><circle cx="397.2" cy="231.8" r="3" fill="#f28e2b"/><circle cx="411.6" cy="231.3" r="3" fill="#f28e2b"/><circle cx="426.0" cy="232.0" r="3" fill="#f28e2b"/><circle cx="440.4" cy="231.3" r="3" fill="#f28e2b"/><circle cx="454.8" cy="232.0" r="3" fill="#f28e2b"/><circle cx="469.2" cy="226.1" r="3" fill="#f28e2b"/><circle cx="483.5" cy="231.5" r="3" fill="#f28e2b"/><circle cx="497.9" cy="230.6" r="3" fill="#f28e2b"/><circle cx="512.3" cy="228.7" r="3" fill="#f28e2b"/><circle cx="526.7" cy="231.1" r="3" fill="#f28e2b"/><circle cx="541.1" cy="231.5" r="3" fill="#f28e2b"/><circle cx="555.5" cy="231.8" r="3" fill="#f28e2b"/><circle cx="569.8" cy="230.6" r="3" fill="#f28e2b"/><circle cx="584.2" cy="231.8" r="3" fill="#f28e2b"/><circle cx="598.6" cy="231.5" r="3" fill="#f28e2b"/><circle cx="613.0" cy="226.8" r="3" fill="#f28e2b"/><circle cx="627.4" cy="217.2" r="3" fill="#f28e2b"/><circle cx="641.8" cy="231.3" r="3" fill="#f28e2b"/><circle cx="656.2" cy="231.8" r="3" fill="#f28e2b"/><circle cx="670.5" cy="231.5" r="3" fill="#f28e2b"/><circle cx="684.9" cy="231.5" r="3" fill="#f28e2b"/><circle cx="699.3" cy="232.0" r="3" fill="#f28e2b"/><circle cx="713.7" cy="231.8" r="3" fill="#f28e2b"/><circle cx="728.1" cy="232.0" r="3" fill="#f28e2b"/><circle cx="742.5" cy="231.8" r="3" fill="#f28e2b"/><circle cx="756.8" cy="231.8" r="3" fill="#f28e2b"/><circle cx="771.2" cy="231.5" r="3" fill="#f28e2b"/><circle cx="785.6" cy="231.8" r="3" fill="#f28e2b"/><circle cx="800.0" cy="232.0" r="3" fill="#f28e2b"/>

  <!-- axes -->
  <line x1="52" y1="28" x2="52" y2="232"
        stroke="#cccccc" stroke-width="1"/>
  <line x1="52" y1="232" x2="800" y2="232"
        stroke="#cccccc" stroke-width="1"/>

  <!-- y-axis labels -->
  <text x="47" y="236.0" text-anchor="end" font-size="10" fill="#57606a" font-family="ui-monospace, SFMono-Regular, 'SF Mono', Menlo, monospace">0</text><text x="47" y="188.9" text-anchor="end" font-size="10" fill="#57606a" font-family="ui-monospace, SFMono-Regular, 'SF Mono', Menlo, monospace">200</text><text x="47" y="141.8" text-anchor="end" font-size="10" fill="#57606a" font-family="ui-monospace, SFMono-Regular, 'SF Mono', Menlo, monospace">400</text><text x="47" y="94.7" text-anchor="end" font-size="10" fill="#57606a" font-family="ui-monospace, SFMono-Regular, 'SF Mono', Menlo, monospace">600</text><text x="47" y="47.5" text-anchor="end" font-size="10" fill="#57606a" font-family="ui-monospace, SFMono-Regular, 'SF Mono', Menlo, monospace">800</text><text x="47" y="0.4" text-anchor="end" font-size="10" fill="#57606a" font-family="ui-monospace, SFMono-Regular, 'SF Mono', Menlo, monospace">1,000</text>

  <!-- x-axis labels -->
  <text x="52.0" y="248" text-anchor="middle" font-size="10" fill="#8c959f" font-family="ui-monospace, SFMono-Regular, 'SF Mono', Menlo, monospace">05-11</text><text x="569.8" y="248" text-anchor="middle" font-size="10" fill="#8c959f" font-family="ui-monospace, SFMono-Regular, 'SF Mono', Menlo, monospace">06-16</text><text x="138.3" y="248" text-anchor="middle" font-size="10" fill="#8c959f" font-family="ui-monospace, SFMono-Regular, 'SF Mono', Menlo, monospace">05-17</text><text x="656.2" y="248" text-anchor="middle" font-size="10" fill="#8c959f" font-family="ui-monospace, SFMono-Regular, 'SF Mono', Menlo, monospace">06-22</text><text x="224.6" y="248" text-anchor="middle" font-size="10" fill="#8c959f" font-family="ui-monospace, SFMono-Regular, 'SF Mono', Menlo, monospace">05-23</text><text x="742.5" y="248" text-anchor="middle" font-size="10" fill="#8c959f" font-family="ui-monospace, SFMono-Regular, 'SF Mono', Menlo, monospace">06-28</text><text x="310.9" y="248" text-anchor="middle" font-size="10" fill="#8c959f" font-family="ui-monospace, SFMono-Regular, 'SF Mono', Menlo, monospace">05-29</text><text x="800.0" y="248" text-anchor="middle" font-size="10" fill="#8c959f" font-family="ui-monospace, SFMono-Regular, 'SF Mono', Menlo, monospace">07-02</text><text x="397.2" y="248" text-anchor="middle" font-size="10" fill="#8c959f" font-family="ui-monospace, SFMono-Regular, 'SF Mono', Menlo, monospace">06-04</text><text x="483.5" y="248" text-anchor="middle" font-size="10" fill="#8c959f" font-family="ui-monospace, SFMono-Regular, 'SF Mono', Menlo, monospace">06-10</text>

  <!-- legend -->
  <rect x="60" y="262" width="16" height="3" fill="#4e79a7" rx="1"/><text x="80" y="268" font-size="11" fill="#57606a" font-family="-apple-system, BlinkMacSystemFont, 'Segoe UI', sans-serif">Total clones (4,958)</text><line x1="230" y1="264" x2="246" y2="264" stroke="#f28e2b" stroke-width="2" stroke-dasharray="5,3"/><text x="250" y="268" font-size="11" fill="#57606a" font-family="-apple-system, BlinkMacSystemFont, 'Segoe UI', sans-serif">Unique cloners</text>

</svg>