<svg xmlns="http://www.w3.org/2000/svg" viewBox="0 0 820 280" width="820" height="280">

  <!-- title -->
  <text x="52" y="18" font-size="13" font-weight="600"
        fill="#24292f" font-family="-apple-system, BlinkMacSystemFont, 'Segoe UI', sans-serif"
        >Clone traffic — orthodox-calendar</text>
  <text x="800" y="18" font-size="10" fill="#8c959f"
        font-family="ui-monospace, SFMono-Regular, 'SF Mono', Menlo, monospace" text-anchor="end">2026-06-03</text>

  <!-- grid -->
  <line x1="52" y1="232.0" x2="800" y2="232.0" stroke="#e8e8e8" stroke-width="1"/><line x1="52" y1="184.9" x2="800" y2="184.9" stroke="#e8e8e8" stroke-width="1"/><line x1="52" y1="137.8" x2="800" y2="137.8" stroke="#e8e8e8" stroke-width="1"/><line x1="52" y1="90.7" x2="800" y2="90.7" stroke="#e8e8e8" stroke-width="1"/><line x1="52" y1="43.5" x2="800" y2="43.5" stroke="#e8e8e8" stroke-width="1"/><line x1="52" y1="-3.6" x2="800" y2="-3.6" stroke="#e8e8e8" stroke-width="1"/>

  <!-- area fill -->
  <path d="M52.0,226.8 L52.0,226.8 L87.6,169.6 L123.2,178.5 L158.9,28.0 L194.5,118.7 L230.1,163.5 L265.7,216.5 L301.3,76.5 L337.0,150.7 L372.6,213.2 L408.2,201.1 L443.8,194.8 L479.4,160.4 L515.0,208.0 L550.7,214.8 L586.3,217.4 L621.9,231.5 L657.5,231.5 L693.1,224.7 L728.8,213.9 L764.4,230.6 L800.0,231.3 L800.0,232.0 L52.0,232.0Z" fill="#4e79a7" opacity="0.12"/>

  <!-- lines -->
  <polyline points="52.0,226.8 87.6,169.6 123.2,178.5 158.9,28.0 194.5,118.7 230.1,163.5 265.7,216.5 301.3,76.5 337.0,150.7 372.6,213.2 408.2,201.1 443.8,194.8 479.4,160.4 515.0,208.0 550.7,214.8 586.3,217.4 621.9,231.5 657.5,231.5 693.1,224.7 728.8,213.9 764.4,230.6 800.0,231.3"
            fill="none" stroke="#4e79a7"
            stroke-width="2" stroke-linejoin="round"/>
  <polyline points="52.0,229.4 87.6,202.8 123.2,209.6 158.9,170.0 194.5,193.1 230.1,207.5 265.7,224.9 301.3,188.4 337.0,208.2 372.6,224.9 408.2,223.8 443.8,222.3 479.4,212.7 515.0,225.2 550.7,229.4 586.3,228.2 621.9,231.5 657.5,231.5 693.1,229.4 728.8,226.8 764.4,230.8 800.0,231.5"
            fill="none" stroke="#f28e2b"
            stroke-width="2" stroke-linejoin="round"
            stroke-dasharray="5,3"/>

  <!-- dots -->
  <circle cx="52.0" cy="226.8" r="3" fill="#4e79a7"/><circle cx="87.6" cy="169.6" r="3" fill="#4e79a7"/><circle cx="123.2" cy="178.5" r="3" fill="#4e79a7"/><circle cx="158.9" cy="28.0" r="3" fill="#4e79a7"/><circle cx="194.5" cy="118.7" r="3" fill="#4e79a7"/><circle cx="230.1" cy="163.5" r="3" fill="#4e79a7"/><circle cx="265.7" cy="216.5" r="3" fill="#4e79a7"/><circle cx="301.3" cy="76.5" r="3" fill="#4e79a7"/><circle cx="337.0" cy="150.7" r="3" fill="#4e79a7"/><circle cx="372.6" cy="213.2" r="3" fill="#4e79a7"/><circle cx="408.2" cy="201.1" r="3" fill="#4e79a7"/><circle cx="443.8" cy="194.8" r="3" fill="#4e79a7"/><circle cx="479.4" cy="160.4" r="3" fill="#4e79a7"/><circle cx="515.0" cy="208.0" r="3" fill="#4e79a7"/><circle cx="550.7" cy="214.8" r="3" fill="#4e79a7"/><circle cx="586.3" cy="217.4" r="3" fill="#4e79a7"/><circle cx="621.9" cy="231.5" r="3" fill="#4e79a7"/><circle cx="657.5" cy="231.5" r="3" fill="#4e79a7"/><circle cx="693.1" cy="224.7" r="3" fill="#4e79a7"/><circle cx="728.8" cy="213.9" r="3" fill="#4e79a7"/><circle cx="764.4" cy="230.6" r="3" fill="#4e79a7"/><circle cx="800.0" cy="231.3" r="3" fill="#4e79a7"/>
  <circle cx="52.0" cy="229.4" r="3" fill="#f28e2b"/><circle cx="87.6" cy="202.8" r="3" fill="#f28e2b"/><circle cx="123.2" cy="209.6" r="3" fill="#f28e2b"/><circle cx="158.9" cy="170.0" r="3" fill="#f28e2b"/><circle cx="194.5" cy="193.1" r="3" fill="#f28e2b"/><circle cx="230.1" cy="207.5" r="3" fill="#f28e2b"/><circle cx="265.7" cy="224.9" r="3" fill="#f28e2b"/><circle cx="301.3" cy="188.4" r="3" fill="#f28e2b"/><circle cx="337.0" cy="208.2" r="3" fill="#f28e2b"/><circle cx="372.6" cy="224.9" r="3" fill="#f28e2b"/><circle cx="408.2" cy="223.8" r="3" fill="#f28e2b"/><circle cx="443.8" cy="222.3" r="3" fill="#f28e2b"/><circle cx="479.4" cy="212.7" r="3" fill="#f28e2b"/><circle cx="515.0" cy="225.2" r="3" fill="#f28e2b"/><circle cx="550.7" cy="229.4" r="3" fill="#f28e2b"/><circle cx="586.3" cy="228.2" r="3" fill="#f28e2b"/><circle cx="621.9" cy="231.5" r="3" fill="#f28e2b"/><circle cx="657.5" cy="231.5" r="3" fill="#f28e2b"/><circle cx="693.1" cy="229.4" r="3" fill="#f28e2b"/><circle cx="728.8" cy="226.8" r="3" fill="#f28e2b"/><circle cx="764.4" cy="230.8" r="3" fill="#f28e2b"/><circle cx="800.0" cy="231.5" r="3" fill="#f28e2b"/>

  <!-- axes -->
  <line x1="52" y1="28" x2="52" y2="232"
        stroke="#cccccc" stroke-width="1"/>
  <line x1="52" y1="232" x2="800" y2="232"
        stroke="#cccccc" stroke-width="1"/>

  <!-- y-axis labels -->
  <text x="47" y="236.0" text-anchor="end" font-size="10" fill="#57606a" font-family="ui-monospace, SFMono-Regular, 'SF Mono', Menlo, monospace">0</text><text x="47" y="188.9" text-anchor="end" font-size="10" fill="#57606a" font-family="ui-monospace, SFMono-Regular, 'SF Mono', Menlo, monospace">200</text><text x="47" y="141.8" text-anchor="end" font-size="10" fill="#57606a" font-family="ui-monospace, SFMono-Regular, 'SF Mono', Menlo, monospace">400</text><text x="47" y="94.7" text-anchor="end" font-size="10" fill="#57606a" font-family="ui-monospace, SFMono-Regular, 'SF Mono', Menlo, monospace">600</text><text x="47" y="47.5" text-anchor="end" font-size="10" fill="#57606a" font-family="ui-monospace, SFMono-Regular, 'SF Mono', Menlo, monospace">800</text><text x="47" y="0.4" text-anchor="end" font-size="10" fill="#57606a" font-family="ui-monospace, SFMono-Regular, 'SF Mono', Menlo, monospace">1,000</text>

  <!-- x-axis labels -->
  <text x="52.0" y="248" text-anchor="middle" font-size="10" fill="#8c959f" font-family="ui-monospace, SFMono-Regular, 'SF Mono', Menlo, monospace">05-11</text><text x="123.2" y="248" text-anchor="middle" font-size="10" fill="#8c959f" font-family="ui-monospace, SFMono-Regular, 'SF Mono', Menlo, monospace">05-13</text><text x="194.5" y="248" text-anchor="middle" font-size="10" fill="#8c959f" font-family="ui-monospace, SFMono-Regular, 'SF Mono', Menlo, monospace">05-15</text><text x="265.7" y="248" text-anchor="middle" font-size="10" fill="#8c959f" font-family="ui-monospace, SFMono-Regular, 'SF Mono', Menlo, monospace">05-17</text><text x="337.0" y="248" text-anchor="middle" font-size="10" fill="#8c959f" font-family="ui-monospace, SFMono-Regular, 'SF Mono', Menlo, monospace">05-19</text><text x="408.2" y="248" text-anchor="middle" font-size="10" fill="#8c959f" font-family="ui-monospace, SFMono-Regular, 'SF Mono', Menlo, monospace">05-21</text><text x="479.4" y="248" text-anchor="middle" font-size="10" fill="#8c959f" font-family="ui-monospace, SFMono-Regular, 'SF Mono', Menlo, monospace">05-23</text><text x="550.7" y="248" text-anchor="middle" font-size="10" fill="#8c959f" font-family="ui-monospace, SFMono-Regular, 'SF Mono', Menlo, monospace">05-25</text><text x="621.9" y="248" text-anchor="middle" font-size="10" fill="#8c959f" font-family="ui-monospace, SFMono-Regular, 'SF Mono', Menlo, monospace">05-27</text><text x="693.1" y="248" text-anchor="middle" font-size="10" fill="#8c959f" font-family="ui-monospace, SFMono-Regular, 'SF Mono', Menlo, monospace">05-29</text><text x="764.4" y="248" text-anchor="middle" font-size="10" fill="#8c959f" font-family="ui-monospace, SFMono-Regular, 'SF Mono', Menlo, monospace">05-31</text><text x="800.0" y="248" text-anchor="middle" font-size="10" fill="#8c959f" font-family="ui-monospace, SFMono-Regular, 'SF Mono', Menlo, monospace">06-01</text>

  <!-- legend -->
  <rect x="60" y="262" width="16" height="3" fill="#4e79a7" rx="1"/><text x="80" y="268" font-size="11" fill="#57606a" font-family="-apple-system, BlinkMacSystemFont, 'Segoe UI', sans-serif">Total clones (4,254)</text><line x1="230" y1="264" x2="246" y2="264" stroke="#f28e2b" stroke-width="2" stroke-dasharray="5,3"/><text x="250" y="268" font-size="11" fill="#57606a" font-family="-apple-system, BlinkMacSystemFont, 'Segoe UI', sans-serif">Unique cloners</text>

</svg>