<svg xmlns="http://www.w3.org/2000/svg" viewBox="0 0 820 280" width="820" height="280">

  <!-- title -->
  <text x="52" y="18" font-size="13" font-weight="600"
        fill="#24292f" font-family="-apple-system, BlinkMacSystemFont, 'Segoe UI', sans-serif"
        >Clone traffic — orthodox-calendar</text>
  <text x="800" y="18" font-size="10" fill="#8c959f"
        font-family="ui-monospace, SFMono-Regular, 'SF Mono', Menlo, monospace" text-anchor="end">2026-07-08</text>

  <!-- grid -->
  <line x1="52" y1="232.0" x2="800" y2="232.0" stroke="#e8e8e8" stroke-width="1"/><line x1="52" y1="184.9" x2="800" y2="184.9" stroke="#e8e8e8" stroke-width="1"/><line x1="52" y1="137.8" x2="800" y2="137.8" stroke="#e8e8e8" stroke-width="1"/><line x1="52" y1="90.7" x2="800" y2="90.7" stroke="#e8e8e8" stroke-width="1"/><line x1="52" y1="43.5" x2="800" y2="43.5" stroke="#e8e8e8" stroke-width="1"/><line x1="52" y1="-3.6" x2="800" y2="-3.6" stroke="#e8e8e8" stroke-width="1"/>

  <!-- area fill -->
  <path d="M52.0,226.8 L52.0,226.8 L65.4,169.6 L78.7,178.5 L92.1,28.0 L105.4,118.7 L118.8,163.5 L132.1,216.5 L145.5,76.5 L158.9,150.7 L172.2,213.2 L185.6,201.1 L198.9,194.8 L212.3,160.4 L225.6,208.0 L239.0,214.8 L252.4,217.4 L265.7,231.5 L279.1,231.5 L292.4,224.7 L305.8,213.9 L319.1,230.6 L332.5,231.3 L345.9,231.5 L359.2,232.0 L372.6,231.5 L385.9,231.1 L399.3,232.0 L412.6,230.8 L426.0,232.0 L439.4,212.2 L452.7,231.5 L466.1,229.6 L479.4,226.1 L492.8,229.2 L506.1,231.5 L519.5,231.8 L532.9,228.5 L546.2,231.8 L559.6,230.8 L572.9,212.7 L586.3,130.5 L599.6,231.1 L613.0,231.8 L626.4,231.3 L639.7,231.3 L653.1,232.0 L666.4,231.5 L679.8,232.0 L693.1,231.5 L706.5,231.8 L719.9,231.3 L733.2,231.5 L746.6,232.0 L759.9,232.0 L773.3,231.8 L786.6,232.0 L800.0,232.0 L800.0,232.0 L52.0,232.0Z" fill="#4e79a7" opacity="0.12"/>

  <!-- lines -->
  <polyline points="52.0,226.8 65.4,169.6 78.7,178.5 92.1,28.0 105.4,118.7 118.8,163.5 132.1,216.5 145.5,76.5 158.9,150.7 172.2,213.2 185.6,201.1 198.9,194.8 212.3,160.4 225.6,208.0 239.0,214.8 252.4,217.4 265.7,231.5 279.1,231.5 292.4,224.7 305.8,213.9 319.1,230.6 332.5,231.3 345.9,231.5 359.2,232.0 372.6,231.5 385.9,231.1 399.3,232.0 412.6,230.8 426.0,232.0 439.4,212.2 452.7,231.5 466.1,229.6 479.4,226.1 492.8,229.2 506.1,231.5 519.5,231.8 532.9,228.5 546.2,231.8 559.6,230.8 572.9,212.7 586.3,130.5 599.6,231.1 613.0,231.8 626.4,231.3 639.7,231.3 653.1,232.0 666.4,231.5 679.8,232.0 693.1,231.5 706.5,231.8 719.9,231.3 733.2,231.5 746.6,232.0 759.9,232.0 773.3,231.8 786.6,232.0 800.0,232.0"
            fill="none" stroke="#4e79a7"
            stroke-width="2" stroke-linejoin="round"/>
  <polyline points="52.0,229.4 65.4,202.8 78.7,209.6 92.1,170.0 105.4,193.1 118.8,207.5 132.1,224.9 145.5,188.4 158.9,208.2 172.2,224.9 185.6,223.8 198.9,222.3 212.3,212.7 225.6,225.2 239.0,229.4 252.4,228.2 265.7,231.5 279.1,231.5 292.4,229.4 305.8,226.8 319.1,230.8 332.5,231.5 345.9,231.8 359.2,232.0 372.6,231.8 385.9,231.3 399.3,232.0 412.6,231.3 426.0,232.0 439.4,226.1 452.7,231.5 466.1,230.6 479.4,228.7 492.8,231.1 506.1,231.5 519.5,231.8 532.9,230.6 546.2,231.8 559.6,231.5 572.9,226.8 586.3,217.2 599.6,231.3 613.0,231.8 626.4,231.5 639.7,231.5 653.1,232.0 666.4,231.8 679.8,232.0 693.1,231.8 706.5,231.8 719.9,231.5 733.2,231.8 746.6,232.0 759.9,232.0 773.3,231.8 786.6,232.0 800.0,232.0"
            fill="none" stroke="#f28e2b"
            stroke-width="2" stroke-linejoin="round"
            stroke-dasharray="5,3"/>

  <!-- dots -->
  <circle cx="52.0" cy="226.8" r="3" fill="#4e79a7"/><circle cx="65.4" cy="169.6" r="3" fill="#4e79a7"/><circle cx="78.7" cy="178.5" r="3" fill="#4e79a7"/><circle cx="92.1" cy="28.0" r="3" fill="#4e79a7"/><circle cx="105.4" cy="118.7" r="3" fill="#4e79a7"/><circle cx="118.8" cy="163.5" r="3" fill="#4e79a7"/><circle cx="132.1" cy="216.5" r="3" fill="#4e79a7"/><circle cx="145.5" cy="76.5" r="3" fill="#4e79a7"/><circle cx="158.9" cy="150.7" r="3" fill="#4e79a7"/><circle cx="172.2" cy="213.2" r="3" fill="#4e79a7"/><circle cx="185.6" cy="201.1" r="3" fill="#4e79a7"/><circle cx="198.9" cy="194.8" r="3" fill="#4e79a7"/><circle cx="212.3" cy="160.4" r="3" fill="#4e79a7"/><circle cx="225.6" cy="208.0" r="3" fill="#4e79a7"/><circle cx="239.0" cy="214.8" r="3" fill="#4e79a7"/><circle cx="252.4" cy="217.4" r="3" fill="#4e79a7"/><circle cx="265.7" cy="231.5" r="3" fill="#4e79a7"/><circle cx="279.1" cy="231.5" r="3" fill="#4e79a7"/><circle cx="292.4" cy="224.7" r="3" fill="#4e79a7"/><circle cx="305.8" cy="213.9" r="3" fill="#4e79a7"/><circle cx="319.1" cy="230.6" r="3" fill="#4e79a7"/><circle cx="332.5" cy="231.3" r="3" fill="#4e79a7"/><circle cx="345.9" cy="231.5" r="3" fill="#4e79a7"/><circle cx="359.2" cy="232.0" r="3" fill="#4e79a7"/><circle cx="372.6" cy="231.5" r="3" fill="#4e79a7"/><circle cx="385.9" cy="231.1" r="3" fill="#4e79a7"/><circle cx="399.3" cy="232.0" r="3" fill="#4e79a7"/><circle cx="412.6" cy="230.8" r="3" fill="#4e79a7"/><circle cx="426.0" cy="232.0" r="3" fill="#4e79a7"/><circle cx="439.4" cy="212.2" r="3" fill="#4e79a7"/><circle cx="452.7" cy="231.5" r="3" fill="#4e79a7"/><circle cx="466.1" cy="229.6" r="3" fill="#4e79a7"/><circle cx="479.4" cy="226.1" r="3" fill="#4e79a7"/><circle cx="492.8" cy="229.2" r="3" fill="#4e79a7"/><circle cx="506.1" cy="231.5" r="3" fill="#4e79a7"/><circle cx="519.5" cy="231.8" r="3" fill="#4e79a7"/><circle cx="532.9" cy="228.5" r="3" fill="#4e79a7"/><circle cx="546.2" cy="231.8" r="3" fill="#4e79a7"/><circle cx="559.6" cy="230.8" r="3" fill="#4e79a7"/><circle cx="572.9" cy="212.7" r="3" fill="#4e79a7"/><circle cx="586.3" cy="130.5" r="3" fill="#4e79a7"/><circle cx="599.6" cy="231.1" r="3" fill="#4e79a7"/><circle cx="613.0" cy="231.8" r="3" fill="#4e79a7"/><circle cx="626.4" cy="231.3" r="3" fill="#4e79a7"/><circle cx="639.7" cy="231.3" r="3" fill="#4e79a7"/><circle cx="653.1" cy="232.0" r="3" fill="#4e79a7"/><circle cx="666.4" cy="231.5" r="3" fill="#4e79a7"/><circle cx="679.8" cy="232.0" r="3" fill="#4e79a7"/><circle cx="693.1" cy="231.5" r="3" fill="#4e79a7"/><circle cx="706.5" cy="231.8" r="3" fill="#4e79a7"/><circle cx="719.9" cy="231.3" r="3" fill="#4e79a7"/><circle cx="733.2" cy="231.5" r="3" fill="#4e79a7"/><circle cx="746.6" cy="232.0" r="3" fill="#4e79a7"/><circle cx="759.9" cy="232.0" r="3" fill="#4e79a7"/><circle cx="773.3" cy="231.8" r="3" fill="#4e79a7"/><circle cx="786.6" cy="232.0" r="3" fill="#4e79a7"/><circle cx="800.0" cy="232.0" r="3" fill="#4e79a7"/>
  <circle cx="52.0" cy="229.4" r="3" fill="#f28e2b"/><circle cx="65.4" cy="202.8" r="3" fill="#f28e2b"/><circle cx="78.7" cy="209.6" r="3" fill="#f28e2b"/><circle cx="92.1" cy="170.0" r="3" fill="#f28e2b"/><circle cx="105.4" cy="193.1" r="3" fill="#f28e2b"/><circle cx="118.8" cy="207.5" r="3" fill="#f28e2b"/><circle cx="132.1" cy="224.9" r="3" fill="#f28e2b"/><circle cx="145.5" cy="188.4" r="3" fill="#f28e2b"/><circle cx="158.9" cy="208.2" r="3" fill="#f28e2b"/><circle cx="172.2" cy="224.9" r="3" fill="#f28e2b"/><circle cx="185.6" cy="223.8" r="3" fill="#f28e2b"/><circle cx="198.9" cy="222.3" r="3" fill="#f28e2b"/><circle cx="212.3" cy="212.7" r="3" fill="#f28e2b"/><circle cx="225.6" cy="225.2" r="3" fill="#f28e2b"/><circle cx="239.0" cy="229.4" r="3" fill="#f28e2b"/><circle cx="252.4" cy="228.2" r="3" fill="#f28e2b"/><circle cx="265.7" cy="231.5" r="3" fill="#f28e2b"/><circle cx="279.1" cy="231.5" r="3" fill="#f28e2b"/><circle cx="292.4" cy="229.4" r="3" fill="#f28e2b"/><circle cx="305.8" cy="226.8" r="3" fill="#f28e2b"/><circle cx="319.1" cy="230.8" r="3" fill="#f28e2b"/><circle cx="332.5" cy="231.5" r="3" fill="#f28e2b"/><circle cx="345.9" cy="231.8" r="3" fill="#f28e2b"/><circle cx="359.2" cy="232.0" r="3" fill="#f28e2b"/><circle cx="372.6" cy="231.8" r="3" fill="#f28e2b"/><circle cx="385.9" cy="231.3" r="3" fill="#f28e2b"/><circle cx="399.3" cy="232.0" r="3" fill="#f28e2b"/><circle cx="412.6" cy="231.3" r="3" fill="#f28e2b"/><circle cx="426.0" cy="232.0" r="3" fill="#f28e2b"/><circle cx="439.4" cy="226.1" r="3" fill="#f28e2b"/><circle cx="452.7" cy="231.5" r="3" fill="#f28e2b"/><circle cx="466.1" cy="230.6" r="3" fill="#f28e2b"/><circle cx="479.4" cy="228.7" r="3" fill="#f28e2b"/><circle cx="492.8" cy="231.1" r="3" fill="#f28e2b"/><circle cx="506.1" cy="231.5" r="3" fill="#f28e2b"/><circle cx="519.5" cy="231.8" r="3" fill="#f28e2b"/><circle cx="532.9" cy="230.6" r="3" fill="#f28e2b"/><circle cx="546.2" cy="231.8" r="3" fill="#f28e2b"/><circle cx="559.6" cy="231.5" r="3" fill="#f28e2b"/><circle cx="572.9" cy="226.8" r="3" fill="#f28e2b"/><circle cx="586.3" cy="217.2" r="3" fill="#f28e2b"/><circle cx="599.6" cy="231.3" r="3" fill="#f28e2b"/><circle cx="613.0" cy="231.8" r="3" fill="#f28e2b"/><circle cx="626.4" cy="231.5" r="3" fill="#f28e2b"/><circle cx="639.7" cy="231.5" r="3" fill="#f28e2b"/><circle cx="653.1" cy="232.0" r="3" fill="#f28e2b"/><circle cx="666.4" cy="231.8" r="3" fill="#f28e2b"/><circle cx="679.8" cy="232.0" r="3" fill="#f28e2b"/><circle cx="693.1" cy="231.8" r="3" fill="#f28e2b"/><circle cx="706.5" cy="231.8" r="3" fill="#f28e2b"/><circle cx="719.9" cy="231.5" r="3" fill="#f28e2b"/><circle cx="733.2" cy="231.8" r="3" fill="#f28e2b"/><circle cx="746.6" cy="232.0" r="3" fill="#f28e2b"/><circle cx="759.9" cy="232.0" r="3" fill="#f28e2b"/><circle cx="773.3" cy="231.8" r="3" fill="#f28e2b"/><circle cx="786.6" cy="232.0" r="3" fill="#f28e2b"/><circle cx="800.0" cy="232.0" r="3" fill="#f28e2b"/>

  <!-- axes -->
  <line x1="52" y1="28" x2="52" y2="232"
        stroke="#cccccc" stroke-width="1"/>
  <line x1="52" y1="232" x2="800" y2="232"
        stroke="#cccccc" stroke-width="1"/>

  <!-- y-axis labels -->
  <text x="47" y="236.0" text-anchor="end" font-size="10" fill="#57606a" font-family="ui-monospace, SFMono-Regular, 'SF Mono', Menlo, monospace">0</text><text x="47" y="188.9" text-anchor="end" font-size="10" fill="#57606a" font-family="ui-monospace, SFMono-Regular, 'SF Mono', Menlo, monospace">200</text><text x="47" y="141.8" text-anchor="end" font-size="10" fill="#57606a" font-family="ui-monospace, SFMono-Regular, 'SF Mono', Menlo, monospace">400</text><text x="47" y="94.7" text-anchor="end" font-size="10" fill="#57606a" font-family="ui-monospace, SFMono-Regular, 'SF Mono', Menlo, monospace">600</text><text x="47" y="47.5" text-anchor="end" font-size="10" fill="#57606a" font-family="ui-monospace, SFMono-Regular, 'SF Mono', Menlo, monospace">800</text><text x="47" y="0.4" text-anchor="end" font-size="10" fill="#57606a" font-family="ui-monospace, SFMono-Regular, 'SF Mono', Menlo, monospace">1,000</text>

  <!-- x-axis labels -->
  <text x="52.0" y="248" text-anchor="middle" font-size="10" fill="#8c959f" font-family="ui-monospace, SFMono-Regular, 'SF Mono', Menlo, monospace">05-11</text><text x="519.5" y="248" text-anchor="middle" font-size="10" fill="#8c959f" font-family="ui-monospace, SFMono-Regular, 'SF Mono', Menlo, monospace">06-15</text><text x="145.5" y="248" text-anchor="middle" font-size="10" fill="#8c959f" font-family="ui-monospace, SFMono-Regular, 'SF Mono', Menlo, monospace">05-18</text><text x="613.0" y="248" text-anchor="middle" font-size="10" fill="#8c959f" font-family="ui-monospace, SFMono-Regular, 'SF Mono', Menlo, monospace">06-22</text><text x="239.0" y="248" text-anchor="middle" font-size="10" fill="#8c959f" font-family="ui-monospace, SFMono-Regular, 'SF Mono', Menlo, monospace">05-25</text><text x="706.5" y="248" text-anchor="middle" font-size="10" fill="#8c959f" font-family="ui-monospace, SFMono-Regular, 'SF Mono', Menlo, monospace">06-29</text><text x="332.5" y="248" text-anchor="middle" font-size="10" fill="#8c959f" font-family="ui-monospace, SFMono-Regular, 'SF Mono', Menlo, monospace">06-01</text><text x="800.0" y="248" text-anchor="middle" font-size="10" fill="#8c959f" font-family="ui-monospace, SFMono-Regular, 'SF Mono', Menlo, monospace">07-06</text><text x="426.0" y="248" text-anchor="middle" font-size="10" fill="#8c959f" font-family="ui-monospace, SFMono-Regular, 'SF Mono', Menlo, monospace">06-08</text>

  <!-- legend -->
  <rect x="60" y="262" width="16" height="3" fill="#4e79a7" rx="1"/><text x="80" y="268" font-size="11" fill="#57606a" font-family="-apple-system, BlinkMacSystemFont, 'Segoe UI', sans-serif">Total clones (4,959)</text><line x1="230" y1="264" x2="246" y2="264" stroke="#f28e2b" stroke-width="2" stroke-dasharray="5,3"/><text x="250" y="268" font-size="11" fill="#57606a" font-family="-apple-system, BlinkMacSystemFont, 'Segoe UI', sans-serif">Unique cloners</text>

</svg>