<svg xmlns="http://www.w3.org/2000/svg" viewBox="0 0 820 280" width="820" height="280">

  <!-- title -->
  <text x="52" y="18" font-size="13" font-weight="600"
        fill="#24292f" font-family="-apple-system, BlinkMacSystemFont, 'Segoe UI', sans-serif"
        >Clone traffic — orthodox-calendar</text>
  <text x="800" y="18" font-size="10" fill="#8c959f"
        font-family="ui-monospace, SFMono-Regular, 'SF Mono', Menlo, monospace" text-anchor="end">2026-06-04</text>

  <!-- grid -->
  <line x1="52" y1="232.0" x2="800" y2="232.0" stroke="#e8e8e8" stroke-width="1"/><line x1="52" y1="184.9" x2="800" y2="184.9" stroke="#e8e8e8" stroke-width="1"/><line x1="52" y1="137.8" x2="800" y2="137.8" stroke="#e8e8e8" stroke-width="1"/><line x1="52" y1="90.7" x2="800" y2="90.7" stroke="#e8e8e8" stroke-width="1"/><line x1="52" y1="43.5" x2="800" y2="43.5" stroke="#e8e8e8" stroke-width="1"/><line x1="52" y1="-3.6" x2="800" y2="-3.6" stroke="#e8e8e8" stroke-width="1"/>

  <!-- area fill -->
  <path d="M52.0,226.8 L52.0,226.8 L86.0,169.6 L120.0,178.5 L154.0,28.0 L188.0,118.7 L222.0,163.5 L256.0,216.5 L290.0,76.5 L324.0,150.7 L358.0,213.2 L392.0,201.1 L426.0,194.8 L460.0,160.4 L494.0,208.0 L528.0,214.8 L562.0,217.4 L596.0,231.5 L630.0,231.5 L664.0,224.7 L698.0,213.9 L732.0,230.6 L766.0,231.3 L800.0,231.5 L800.0,232.0 L52.0,232.0Z" fill="#4e79a7" opacity="0.12"/>

  <!-- lines -->
  <polyline points="52.0,226.8 86.0,169.6 120.0,178.5 154.0,28.0 188.0,118.7 222.0,163.5 256.0,216.5 290.0,76.5 324.0,150.7 358.0,213.2 392.0,201.1 426.0,194.8 460.0,160.4 494.0,208.0 528.0,214.8 562.0,217.4 596.0,231.5 630.0,231.5 664.0,224.7 698.0,213.9 732.0,230.6 766.0,231.3 800.0,231.5"
            fill="none" stroke="#4e79a7"
            stroke-width="2" stroke-linejoin="round"/>
  <polyline points="52.0,229.4 86.0,202.8 120.0,209.6 154.0,170.0 188.0,193.1 222.0,207.5 256.0,224.9 290.0,188.4 324.0,208.2 358.0,224.9 392.0,223.8 426.0,222.3 460.0,212.7 494.0,225.2 528.0,229.4 562.0,228.2 596.0,231.5 630.0,231.5 664.0,229.4 698.0,226.8 732.0,230.8 766.0,231.5 800.0,231.8"
            fill="none" stroke="#f28e2b"
            stroke-width="2" stroke-linejoin="round"
            stroke-dasharray="5,3"/>

  <!-- dots -->
  <circle cx="52.0" cy="226.8" r="3" fill="#4e79a7"/><circle cx="86.0" cy="169.6" r="3" fill="#4e79a7"/><circle cx="120.0" cy="178.5" r="3" fill="#4e79a7"/><circle cx="154.0" cy="28.0" r="3" fill="#4e79a7"/><circle cx="188.0" cy="118.7" r="3" fill="#4e79a7"/><circle cx="222.0" cy="163.5" r="3" fill="#4e79a7"/><circle cx="256.0" cy="216.5" r="3" fill="#4e79a7"/><circle cx="290.0" cy="76.5" r="3" fill="#4e79a7"/><circle cx="324.0" cy="150.7" r="3" fill="#4e79a7"/><circle cx="358.0" cy="213.2" r="3" fill="#4e79a7"/><circle cx="392.0" cy="201.1" r="3" fill="#4e79a7"/><circle cx="426.0" cy="194.8" r="3" fill="#4e79a7"/><circle cx="460.0" cy="160.4" r="3" fill="#4e79a7"/><circle cx="494.0" cy="208.0" r="3" fill="#4e79a7"/><circle cx="528.0" cy="214.8" r="3" fill="#4e79a7"/><circle cx="562.0" cy="217.4" r="3" fill="#4e79a7"/><circle cx="596.0" cy="231.5" r="3" fill="#4e79a7"/><circle cx="630.0" cy="231.5" r="3" fill="#4e79a7"/><circle cx="664.0" cy="224.7" r="3" fill="#4e79a7"/><circle cx="698.0" cy="213.9" r="3" fill="#4e79a7"/><circle cx="732.0" cy="230.6" r="3" fill="#4e79a7"/><circle cx="766.0" cy="231.3" r="3" fill="#4e79a7"/><circle cx="800.0" cy="231.5" r="3" fill="#4e79a7"/>
  <circle cx="52.0" cy="229.4" r="3" fill="#f28e2b"/><circle cx="86.0" cy="202.8" r="3" fill="#f28e2b"/><circle cx="120.0" cy="209.6" r="3" fill="#f28e2b"/><circle cx="154.0" cy="170.0" r="3" fill="#f28e2b"/><circle cx="188.0" cy="193.1" r="3" fill="#f28e2b"/><circle cx="222.0" cy="207.5" r="3" fill="#f28e2b"/><circle cx="256.0" cy="224.9" r="3" fill="#f28e2b"/><circle cx="290.0" cy="188.4" r="3" fill="#f28e2b"/><circle cx="324.0" cy="208.2" r="3" fill="#f28e2b"/><circle cx="358.0" cy="224.9" r="3" fill="#f28e2b"/><circle cx="392.0" cy="223.8" r="3" fill="#f28e2b"/><circle cx="426.0" cy="222.3" r="3" fill="#f28e2b"/><circle cx="460.0" cy="212.7" r="3" fill="#f28e2b"/><circle cx="494.0" cy="225.2" r="3" fill="#f28e2b"/><circle cx="528.0" cy="229.4" r="3" fill="#f28e2b"/><circle cx="562.0" cy="228.2" r="3" fill="#f28e2b"/><circle cx="596.0" cy="231.5" r="3" fill="#f28e2b"/><circle cx="630.0" cy="231.5" r="3" fill="#f28e2b"/><circle cx="664.0" cy="229.4" r="3" fill="#f28e2b"/><circle cx="698.0" cy="226.8" r="3" fill="#f28e2b"/><circle cx="732.0" cy="230.8" r="3" fill="#f28e2b"/><circle cx="766.0" cy="231.5" r="3" fill="#f28e2b"/><circle cx="800.0" cy="231.8" r="3" fill="#f28e2b"/>

  <!-- axes -->
  <line x1="52" y1="28" x2="52" y2="232"
        stroke="#cccccc" stroke-width="1"/>
  <line x1="52" y1="232" x2="800" y2="232"
        stroke="#cccccc" stroke-width="1"/>

  <!-- y-axis labels -->
  <text x="47" y="236.0" text-anchor="end" font-size="10" fill="#57606a" font-family="ui-monospace, SFMono-Regular, 'SF Mono', Menlo, monospace">0</text><text x="47" y="188.9" text-anchor="end" font-size="10" fill="#57606a" font-family="ui-monospace, SFMono-Regular, 'SF Mono', Menlo, monospace">200</text><text x="47" y="141.8" text-anchor="end" font-size="10" fill="#57606a" font-family="ui-monospace, SFMono-Regular, 'SF Mono', Menlo, monospace">400</text><text x="47" y="94.7" text-anchor="end" font-size="10" fill="#57606a" font-family="ui-monospace, SFMono-Regular, 'SF Mono', Menlo, monospace">600</text><text x="47" y="47.5" text-anchor="end" font-size="10" fill="#57606a" font-family="ui-monospace, SFMono-Regular, 'SF Mono', Menlo, monospace">800</text><text x="47" y="0.4" text-anchor="end" font-size="10" fill="#57606a" font-family="ui-monospace, SFMono-Regular, 'SF Mono', Menlo, monospace">1,000</text>

  <!-- x-axis labels -->
  <text x="52.0" y="248" text-anchor="middle" font-size="10" fill="#8c959f" font-family="ui-monospace, SFMono-Regular, 'SF Mono', Menlo, monospace">05-11</text><text x="120.0" y="248" text-anchor="middle" font-size="10" fill="#8c959f" font-family="ui-monospace, SFMono-Regular, 'SF Mono', Menlo, monospace">05-13</text><text x="188.0" y="248" text-anchor="middle" font-size="10" fill="#8c959f" font-family="ui-monospace, SFMono-Regular, 'SF Mono', Menlo, monospace">05-15</text><text x="256.0" y="248" text-anchor="middle" font-size="10" fill="#8c959f" font-family="ui-monospace, SFMono-Regular, 'SF Mono', Menlo, monospace">05-17</text><text x="324.0" y="248" text-anchor="middle" font-size="10" fill="#8c959f" font-family="ui-monospace, SFMono-Regular, 'SF Mono', Menlo, monospace">05-19</text><text x="392.0" y="248" text-anchor="middle" font-size="10" fill="#8c959f" font-family="ui-monospace, SFMono-Regular, 'SF Mono', Menlo, monospace">05-21</text><text x="460.0" y="248" text-anchor="middle" font-size="10" fill="#8c959f" font-family="ui-monospace, SFMono-Regular, 'SF Mono', Menlo, monospace">05-23</text><text x="528.0" y="248" text-anchor="middle" font-size="10" fill="#8c959f" font-family="ui-monospace, SFMono-Regular, 'SF Mono', Menlo, monospace">05-25</text><text x="596.0" y="248" text-anchor="middle" font-size="10" fill="#8c959f" font-family="ui-monospace, SFMono-Regular, 'SF Mono', Menlo, monospace">05-27</text><text x="664.0" y="248" text-anchor="middle" font-size="10" fill="#8c959f" font-family="ui-monospace, SFMono-Regular, 'SF Mono', Menlo, monospace">05-29</text><text x="732.0" y="248" text-anchor="middle" font-size="10" fill="#8c959f" font-family="ui-monospace, SFMono-Regular, 'SF Mono', Menlo, monospace">05-31</text><text x="800.0" y="248" text-anchor="middle" font-size="10" fill="#8c959f" font-family="ui-monospace, SFMono-Regular, 'SF Mono', Menlo, monospace">06-02</text>

  <!-- legend -->
  <rect x="60" y="262" width="16" height="3" fill="#4e79a7" rx="1"/><text x="80" y="268" font-size="11" fill="#57606a" font-family="-apple-system, BlinkMacSystemFont, 'Segoe UI', sans-serif">Total clones (4,256)</text><line x1="230" y1="264" x2="246" y2="264" stroke="#f28e2b" stroke-width="2" stroke-dasharray="5,3"/><text x="250" y="268" font-size="11" fill="#57606a" font-family="-apple-system, BlinkMacSystemFont, 'Segoe UI', sans-serif">Unique cloners</text>

</svg>