<svg xmlns="http://www.w3.org/2000/svg" viewBox="0 0 820 280" width="820" height="280">

  <!-- title -->
  <text x="52" y="18" font-size="13" font-weight="600"
        fill="#24292f" font-family="-apple-system, BlinkMacSystemFont, 'Segoe UI', sans-serif"
        >Clone traffic — orthodox-calendar</text>
  <text x="800" y="18" font-size="10" fill="#8c959f"
        font-family="ui-monospace, SFMono-Regular, 'SF Mono', Menlo, monospace" text-anchor="end">2026-06-30</text>

  <!-- grid -->
  <line x1="52" y1="232.0" x2="800" y2="232.0" stroke="#e8e8e8" stroke-width="1"/><line x1="52" y1="184.9" x2="800" y2="184.9" stroke="#e8e8e8" stroke-width="1"/><line x1="52" y1="137.8" x2="800" y2="137.8" stroke="#e8e8e8" stroke-width="1"/><line x1="52" y1="90.7" x2="800" y2="90.7" stroke="#e8e8e8" stroke-width="1"/><line x1="52" y1="43.5" x2="800" y2="43.5" stroke="#e8e8e8" stroke-width="1"/><line x1="52" y1="-3.6" x2="800" y2="-3.6" stroke="#e8e8e8" stroke-width="1"/>

  <!-- area fill -->
  <path d="M52.0,226.8 L52.0,226.8 L67.6,169.6 L83.2,178.5 L98.8,28.0 L114.3,118.7 L129.9,163.5 L145.5,216.5 L161.1,76.5 L176.7,150.7 L192.2,213.2 L207.8,201.1 L223.4,194.8 L239.0,160.4 L254.6,208.0 L270.2,214.8 L285.8,217.4 L301.3,231.5 L316.9,231.5 L332.5,224.7 L348.1,213.9 L363.7,230.6 L379.2,231.3 L394.8,231.5 L410.4,232.0 L426.0,231.5 L441.6,231.1 L457.2,232.0 L472.8,230.8 L488.3,232.0 L503.9,212.2 L519.5,231.5 L535.1,229.6 L550.7,226.1 L566.2,229.2 L581.8,231.5 L597.4,231.8 L613.0,228.5 L628.6,231.8 L644.2,230.8 L659.8,212.7 L675.3,130.5 L690.9,231.1 L706.5,231.8 L722.1,231.3 L737.7,231.3 L753.2,232.0 L768.8,231.5 L784.4,232.0 L800.0,231.5 L800.0,232.0 L52.0,232.0Z" fill="#4e79a7" opacity="0.12"/>

  <!-- lines -->
  <polyline points="52.0,226.8 67.6,169.6 83.2,178.5 98.8,28.0 114.3,118.7 129.9,163.5 145.5,216.5 161.1,76.5 176.7,150.7 192.2,213.2 207.8,201.1 223.4,194.8 239.0,160.4 254.6,208.0 270.2,214.8 285.8,217.4 301.3,231.5 316.9,231.5 332.5,224.7 348.1,213.9 363.7,230.6 379.2,231.3 394.8,231.5 410.4,232.0 426.0,231.5 441.6,231.1 457.2,232.0 472.8,230.8 488.3,232.0 503.9,212.2 519.5,231.5 535.1,229.6 550.7,226.1 566.2,229.2 581.8,231.5 597.4,231.8 613.0,228.5 628.6,231.8 644.2,230.8 659.8,212.7 675.3,130.5 690.9,231.1 706.5,231.8 722.1,231.3 737.7,231.3 753.2,232.0 768.8,231.5 784.4,232.0 800.0,231.5"
            fill="none" stroke="#4e79a7"
            stroke-width="2" stroke-linejoin="round"/>
  <polyline points="52.0,229.4 67.6,202.8 83.2,209.6 98.8,170.0 114.3,193.1 129.9,207.5 145.5,224.9 161.1,188.4 176.7,208.2 192.2,224.9 207.8,223.8 223.4,222.3 239.0,212.7 254.6,225.2 270.2,229.4 285.8,228.2 301.3,231.5 316.9,231.5 332.5,229.4 348.1,226.8 363.7,230.8 379.2,231.5 394.8,231.8 410.4,232.0 426.0,231.8 441.6,231.3 457.2,232.0 472.8,231.3 488.3,232.0 503.9,226.1 519.5,231.5 535.1,230.6 550.7,228.7 566.2,231.1 581.8,231.5 597.4,231.8 613.0,230.6 628.6,231.8 644.2,231.5 659.8,226.8 675.3,217.2 690.9,231.3 706.5,231.8 722.1,231.5 737.7,231.5 753.2,232.0 768.8,231.8 784.4,232.0 800.0,231.8"
            fill="none" stroke="#f28e2b"
            stroke-width="2" stroke-linejoin="round"
            stroke-dasharray="5,3"/>

  <!-- dots -->
  <circle cx="52.0" cy="226.8" r="3" fill="#4e79a7"/><circle cx="67.6" cy="169.6" r="3" fill="#4e79a7"/><circle cx="83.2" cy="178.5" r="3" fill="#4e79a7"/><circle cx="98.8" cy="28.0" r="3" fill="#4e79a7"/><circle cx="114.3" cy="118.7" r="3" fill="#4e79a7"/><circle cx="129.9" cy="163.5" r="3" fill="#4e79a7"/><circle cx="145.5" cy="216.5" r="3" fill="#4e79a7"/><circle cx="161.1" cy="76.5" r="3" fill="#4e79a7"/><circle cx="176.7" cy="150.7" r="3" fill="#4e79a7"/><circle cx="192.2" cy="213.2" r="3" fill="#4e79a7"/><circle cx="207.8" cy="201.1" r="3" fill="#4e79a7"/><circle cx="223.4" cy="194.8" r="3" fill="#4e79a7"/><circle cx="239.0" cy="160.4" r="3" fill="#4e79a7"/><circle cx="254.6" cy="208.0" r="3" fill="#4e79a7"/><circle cx="270.2" cy="214.8" r="3" fill="#4e79a7"/><circle cx="285.8" cy="217.4" r="3" fill="#4e79a7"/><circle cx="301.3" cy="231.5" r="3" fill="#4e79a7"/><circle cx="316.9" cy="231.5" r="3" fill="#4e79a7"/><circle cx="332.5" cy="224.7" r="3" fill="#4e79a7"/><circle cx="348.1" cy="213.9" r="3" fill="#4e79a7"/><circle cx="363.7" cy="230.6" r="3" fill="#4e79a7"/><circle cx="379.2" cy="231.3" r="3" fill="#4e79a7"/><circle cx="394.8" cy="231.5" r="3" fill="#4e79a7"/><circle cx="410.4" cy="232.0" r="3" fill="#4e79a7"/><circle cx="426.0" cy="231.5" r="3" fill="#4e79a7"/><circle cx="441.6" cy="231.1" r="3" fill="#4e79a7"/><circle cx="457.2" cy="232.0" r="3" fill="#4e79a7"/><circle cx="472.8" cy="230.8" r="3" fill="#4e79a7"/><circle cx="488.3" cy="232.0" r="3" fill="#4e79a7"/><circle cx="503.9" cy="212.2" r="3" fill="#4e79a7"/><circle cx="519.5" cy="231.5" r="3" fill="#4e79a7"/><circle cx="535.1" cy="229.6" r="3" fill="#4e79a7"/><circle cx="550.7" cy="226.1" r="3" fill="#4e79a7"/><circle cx="566.2" cy="229.2" r="3" fill="#4e79a7"/><circle cx="581.8" cy="231.5" r="3" fill="#4e79a7"/><circle cx="597.4" cy="231.8" r="3" fill="#4e79a7"/><circle cx="613.0" cy="228.5" r="3" fill="#4e79a7"/><circle cx="628.6" cy="231.8" r="3" fill="#4e79a7"/><circle cx="644.2" cy="230.8" r="3" fill="#4e79a7"/><circle cx="659.8" cy="212.7" r="3" fill="#4e79a7"/><circle cx="675.3" cy="130.5" r="3" fill="#4e79a7"/><circle cx="690.9" cy="231.1" r="3" fill="#4e79a7"/><circle cx="706.5" cy="231.8" r="3" fill="#4e79a7"/><circle cx="722.1" cy="231.3" r="3" fill="#4e79a7"/><circle cx="737.7" cy="231.3" r="3" fill="#4e79a7"/><circle cx="753.2" cy="232.0" r="3" fill="#4e79a7"/><circle cx="768.8" cy="231.5" r="3" fill="#4e79a7"/><circle cx="784.4" cy="232.0" r="3" fill="#4e79a7"/><circle cx="800.0" cy="231.5" r="3" fill="#4e79a7"/>
  <circle cx="52.0" cy="229.4" r="3" fill="#f28e2b"/><circle cx="67.6" cy="202.8" r="3" fill="#f28e2b"/><circle cx="83.2" cy="209.6" r="3" fill="#f28e2b"/><circle cx="98.8" cy="170.0" r="3" fill="#f28e2b"/><circle cx="114.3" cy="193.1" r="3" fill="#f28e2b"/><circle cx="129.9" cy="207.5" r="3" fill="#f28e2b"/><circle cx="145.5" cy="224.9" r="3" fill="#f28e2b"/><circle cx="161.1" cy="188.4" r="3" fill="#f28e2b"/><circle cx="176.7" cy="208.2" r="3" fill="#f28e2b"/><circle cx="192.2" cy="224.9" r="3" fill="#f28e2b"/><circle cx="207.8" cy="223.8" r="3" fill="#f28e2b"/><circle cx="223.4" cy="222.3" r="3" fill="#f28e2b"/><circle cx="239.0" cy="212.7" r="3" fill="#f28e2b"/><circle cx="254.6" cy="225.2" r="3" fill="#f28e2b"/><circle cx="270.2" cy="229.4" r="3" fill="#f28e2b"/><circle cx="285.8" cy="228.2" r="3" fill="#f28e2b"/><circle cx="301.3" cy="231.5" r="3" fill="#f28e2b"/><circle cx="316.9" cy="231.5" r="3" fill="#f28e2b"/><circle cx="332.5" cy="229.4" r="3" fill="#f28e2b"/><circle cx="348.1" cy="226.8" r="3" fill="#f28e2b"/><circle cx="363.7" cy="230.8" r="3" fill="#f28e2b"/><circle cx="379.2" cy="231.5" r="3" fill="#f28e2b"/><circle cx="394.8" cy="231.8" r="3" fill="#f28e2b"/><circle cx="410.4" cy="232.0" r="3" fill="#f28e2b"/><circle cx="426.0" cy="231.8" r="3" fill="#f28e2b"/><circle cx="441.6" cy="231.3" r="3" fill="#f28e2b"/><circle cx="457.2" cy="232.0" r="3" fill="#f28e2b"/><circle cx="472.8" cy="231.3" r="3" fill="#f28e2b"/><circle cx="488.3" cy="232.0" r="3" fill="#f28e2b"/><circle cx="503.9" cy="226.1" r="3" fill="#f28e2b"/><circle cx="519.5" cy="231.5" r="3" fill="#f28e2b"/><circle cx="535.1" cy="230.6" r="3" fill="#f28e2b"/><circle cx="550.7" cy="228.7" r="3" fill="#f28e2b"/><circle cx="566.2" cy="231.1" r="3" fill="#f28e2b"/><circle cx="581.8" cy="231.5" r="3" fill="#f28e2b"/><circle cx="597.4" cy="231.8" r="3" fill="#f28e2b"/><circle cx="613.0" cy="230.6" r="3" fill="#f28e2b"/><circle cx="628.6" cy="231.8" r="3" fill="#f28e2b"/><circle cx="644.2" cy="231.5" r="3" fill="#f28e2b"/><circle cx="659.8" cy="226.8" r="3" fill="#f28e2b"/><circle cx="675.3" cy="217.2" r="3" fill="#f28e2b"/><circle cx="690.9" cy="231.3" r="3" fill="#f28e2b"/><circle cx="706.5" cy="231.8" r="3" fill="#f28e2b"/><circle cx="722.1" cy="231.5" r="3" fill="#f28e2b"/><circle cx="737.7" cy="231.5" r="3" fill="#f28e2b"/><circle cx="753.2" cy="232.0" r="3" fill="#f28e2b"/><circle cx="768.8" cy="231.8" r="3" fill="#f28e2b"/><circle cx="784.4" cy="232.0" r="3" fill="#f28e2b"/><circle cx="800.0" cy="231.8" r="3" fill="#f28e2b"/>

  <!-- axes -->
  <line x1="52" y1="28" x2="52" y2="232"
        stroke="#cccccc" stroke-width="1"/>
  <line x1="52" y1="232" x2="800" y2="232"
        stroke="#cccccc" stroke-width="1"/>

  <!-- y-axis labels -->
  <text x="47" y="236.0" text-anchor="end" font-size="10" fill="#57606a" font-family="ui-monospace, SFMono-Regular, 'SF Mono', Menlo, monospace">0</text><text x="47" y="188.9" text-anchor="end" font-size="10" fill="#57606a" font-family="ui-monospace, SFMono-Regular, 'SF Mono', Menlo, monospace">200</text><text x="47" y="141.8" text-anchor="end" font-size="10" fill="#57606a" font-family="ui-monospace, SFMono-Regular, 'SF Mono', Menlo, monospace">400</text><text x="47" y="94.7" text-anchor="end" font-size="10" fill="#57606a" font-family="ui-monospace, SFMono-Regular, 'SF Mono', Menlo, monospace">600</text><text x="47" y="47.5" text-anchor="end" font-size="10" fill="#57606a" font-family="ui-monospace, SFMono-Regular, 'SF Mono', Menlo, monospace">800</text><text x="47" y="0.4" text-anchor="end" font-size="10" fill="#57606a" font-family="ui-monospace, SFMono-Regular, 'SF Mono', Menlo, monospace">1,000</text>

  <!-- x-axis labels -->
  <text x="52.0" y="248" text-anchor="middle" font-size="10" fill="#8c959f" font-family="ui-monospace, SFMono-Regular, 'SF Mono', Menlo, monospace">05-11</text><text x="613.0" y="248" text-anchor="middle" font-size="10" fill="#8c959f" font-family="ui-monospace, SFMono-Regular, 'SF Mono', Menlo, monospace">06-16</text><text x="145.5" y="248" text-anchor="middle" font-size="10" fill="#8c959f" font-family="ui-monospace, SFMono-Regular, 'SF Mono', Menlo, monospace">05-17</text><text x="706.5" y="248" text-anchor="middle" font-size="10" fill="#8c959f" font-family="ui-monospace, SFMono-Regular, 'SF Mono', Menlo, monospace">06-22</text><text x="239.0" y="248" text-anchor="middle" font-size="10" fill="#8c959f" font-family="ui-monospace, SFMono-Regular, 'SF Mono', Menlo, monospace">05-23</text><text x="800.0" y="248" text-anchor="middle" font-size="10" fill="#8c959f" font-family="ui-monospace, SFMono-Regular, 'SF Mono', Menlo, monospace">06-28</text><text x="332.5" y="248" text-anchor="middle" font-size="10" fill="#8c959f" font-family="ui-monospace, SFMono-Regular, 'SF Mono', Menlo, monospace">05-29</text><text x="426.0" y="248" text-anchor="middle" font-size="10" fill="#8c959f" font-family="ui-monospace, SFMono-Regular, 'SF Mono', Menlo, monospace">06-04</text><text x="519.5" y="248" text-anchor="middle" font-size="10" fill="#8c959f" font-family="ui-monospace, SFMono-Regular, 'SF Mono', Menlo, monospace">06-10</text>

  <!-- legend -->
  <rect x="60" y="262" width="16" height="3" fill="#4e79a7" rx="1"/><text x="80" y="268" font-size="11" fill="#57606a" font-family="-apple-system, BlinkMacSystemFont, 'Segoe UI', sans-serif">Total clones (4,952)</text><line x1="230" y1="264" x2="246" y2="264" stroke="#f28e2b" stroke-width="2" stroke-dasharray="5,3"/><text x="250" y="268" font-size="11" fill="#57606a" font-family="-apple-system, BlinkMacSystemFont, 'Segoe UI', sans-serif">Unique cloners</text>

</svg>