<svg xmlns="http://www.w3.org/2000/svg" viewBox="0 0 820 280" width="820" height="280">

  <!-- title -->
  <text x="52" y="18" font-size="13" font-weight="600"
        fill="#24292f" font-family="-apple-system, BlinkMacSystemFont, 'Segoe UI', sans-serif"
        >Clone traffic — orthodox-calendar</text>
  <text x="800" y="18" font-size="10" fill="#8c959f"
        font-family="ui-monospace, SFMono-Regular, 'SF Mono', Menlo, monospace" text-anchor="end">2026-06-29</text>

  <!-- grid -->
  <line x1="52" y1="232.0" x2="800" y2="232.0" stroke="#e8e8e8" stroke-width="1"/><line x1="52" y1="184.9" x2="800" y2="184.9" stroke="#e8e8e8" stroke-width="1"/><line x1="52" y1="137.8" x2="800" y2="137.8" stroke="#e8e8e8" stroke-width="1"/><line x1="52" y1="90.7" x2="800" y2="90.7" stroke="#e8e8e8" stroke-width="1"/><line x1="52" y1="43.5" x2="800" y2="43.5" stroke="#e8e8e8" stroke-width="1"/><line x1="52" y1="-3.6" x2="800" y2="-3.6" stroke="#e8e8e8" stroke-width="1"/>

  <!-- area fill -->
  <path d="M52.0,226.8 L52.0,226.8 L67.9,169.6 L83.8,178.5 L99.7,28.0 L115.7,118.7 L131.6,163.5 L147.5,216.5 L163.4,76.5 L179.3,150.7 L195.2,213.2 L211.1,201.1 L227.1,194.8 L243.0,160.4 L258.9,208.0 L274.8,214.8 L290.7,217.4 L306.6,231.5 L322.6,231.5 L338.5,224.7 L354.4,213.9 L370.3,230.6 L386.2,231.3 L402.1,231.5 L418.0,232.0 L434.0,231.5 L449.9,231.1 L465.8,232.0 L481.7,230.8 L497.6,232.0 L513.5,212.2 L529.4,231.5 L545.4,229.6 L561.3,226.1 L577.2,229.2 L593.1,231.5 L609.0,231.8 L624.9,228.5 L640.9,231.8 L656.8,230.8 L672.7,212.7 L688.6,130.5 L704.5,231.1 L720.4,231.8 L736.3,231.3 L752.3,231.3 L768.2,232.0 L784.1,231.5 L800.0,232.0 L800.0,232.0 L52.0,232.0Z" fill="#4e79a7" opacity="0.12"/>

  <!-- lines -->
  <polyline points="52.0,226.8 67.9,169.6 83.8,178.5 99.7,28.0 115.7,118.7 131.6,163.5 147.5,216.5 163.4,76.5 179.3,150.7 195.2,213.2 211.1,201.1 227.1,194.8 243.0,160.4 258.9,208.0 274.8,214.8 290.7,217.4 306.6,231.5 322.6,231.5 338.5,224.7 354.4,213.9 370.3,230.6 386.2,231.3 402.1,231.5 418.0,232.0 434.0,231.5 449.9,231.1 465.8,232.0 481.7,230.8 497.6,232.0 513.5,212.2 529.4,231.5 545.4,229.6 561.3,226.1 577.2,229.2 593.1,231.5 609.0,231.8 624.9,228.5 640.9,231.8 656.8,230.8 672.7,212.7 688.6,130.5 704.5,231.1 720.4,231.8 736.3,231.3 752.3,231.3 768.2,232.0 784.1,231.5 800.0,232.0"
            fill="none" stroke="#4e79a7"
            stroke-width="2" stroke-linejoin="round"/>
  <polyline points="52.0,229.4 67.9,202.8 83.8,209.6 99.7,170.0 115.7,193.1 131.6,207.5 147.5,224.9 163.4,188.4 179.3,208.2 195.2,224.9 211.1,223.8 227.1,222.3 243.0,212.7 258.9,225.2 274.8,229.4 290.7,228.2 306.6,231.5 322.6,231.5 338.5,229.4 354.4,226.8 370.3,230.8 386.2,231.5 402.1,231.8 418.0,232.0 434.0,231.8 449.9,231.3 465.8,232.0 481.7,231.3 497.6,232.0 513.5,226.1 529.4,231.5 545.4,230.6 561.3,228.7 577.2,231.1 593.1,231.5 609.0,231.8 624.9,230.6 640.9,231.8 656.8,231.5 672.7,226.8 688.6,217.2 704.5,231.3 720.4,231.8 736.3,231.5 752.3,231.5 768.2,232.0 784.1,231.8 800.0,232.0"
            fill="none" stroke="#f28e2b"
            stroke-width="2" stroke-linejoin="round"
            stroke-dasharray="5,3"/>

  <!-- dots -->
  <circle cx="52.0" cy="226.8" r="3" fill="#4e79a7"/><circle cx="67.9" cy="169.6" r="3" fill="#4e79a7"/><circle cx="83.8" cy="178.5" r="3" fill="#4e79a7"/><circle cx="99.7" cy="28.0" r="3" fill="#4e79a7"/><circle cx="115.7" cy="118.7" r="3" fill="#4e79a7"/><circle cx="131.6" cy="163.5" r="3" fill="#4e79a7"/><circle cx="147.5" cy="216.5" r="3" fill="#4e79a7"/><circle cx="163.4" cy="76.5" r="3" fill="#4e79a7"/><circle cx="179.3" cy="150.7" r="3" fill="#4e79a7"/><circle cx="195.2" cy="213.2" r="3" fill="#4e79a7"/><circle cx="211.1" cy="201.1" r="3" fill="#4e79a7"/><circle cx="227.1" cy="194.8" r="3" fill="#4e79a7"/><circle cx="243.0" cy="160.4" r="3" fill="#4e79a7"/><circle cx="258.9" cy="208.0" r="3" fill="#4e79a7"/><circle cx="274.8" cy="214.8" r="3" fill="#4e79a7"/><circle cx="290.7" cy="217.4" r="3" fill="#4e79a7"/><circle cx="306.6" cy="231.5" r="3" fill="#4e79a7"/><circle cx="322.6" cy="231.5" r="3" fill="#4e79a7"/><circle cx="338.5" cy="224.7" r="3" fill="#4e79a7"/><circle cx="354.4" cy="213.9" r="3" fill="#4e79a7"/><circle cx="370.3" cy="230.6" r="3" fill="#4e79a7"/><circle cx="386.2" cy="231.3" r="3" fill="#4e79a7"/><circle cx="402.1" cy="231.5" r="3" fill="#4e79a7"/><circle cx="418.0" cy="232.0" r="3" fill="#4e79a7"/><circle cx="434.0" cy="231.5" r="3" fill="#4e79a7"/><circle cx="449.9" cy="231.1" r="3" fill="#4e79a7"/><circle cx="465.8" cy="232.0" r="3" fill="#4e79a7"/><circle cx="481.7" cy="230.8" r="3" fill="#4e79a7"/><circle cx="497.6" cy="232.0" r="3" fill="#4e79a7"/><circle cx="513.5" cy="212.2" r="3" fill="#4e79a7"/><circle cx="529.4" cy="231.5" r="3" fill="#4e79a7"/><circle cx="545.4" cy="229.6" r="3" fill="#4e79a7"/><circle cx="561.3" cy="226.1" r="3" fill="#4e79a7"/><circle cx="577.2" cy="229.2" r="3" fill="#4e79a7"/><circle cx="593.1" cy="231.5" r="3" fill="#4e79a7"/><circle cx="609.0" cy="231.8" r="3" fill="#4e79a7"/><circle cx="624.9" cy="228.5" r="3" fill="#4e79a7"/><circle cx="640.9" cy="231.8" r="3" fill="#4e79a7"/><circle cx="656.8" cy="230.8" r="3" fill="#4e79a7"/><circle cx="672.7" cy="212.7" r="3" fill="#4e79a7"/><circle cx="688.6" cy="130.5" r="3" fill="#4e79a7"/><circle cx="704.5" cy="231.1" r="3" fill="#4e79a7"/><circle cx="720.4" cy="231.8" r="3" fill="#4e79a7"/><circle cx="736.3" cy="231.3" r="3" fill="#4e79a7"/><circle cx="752.3" cy="231.3" r="3" fill="#4e79a7"/><circle cx="768.2" cy="232.0" r="3" fill="#4e79a7"/><circle cx="784.1" cy="231.5" r="3" fill="#4e79a7"/><circle cx="800.0" cy="232.0" r="3" fill="#4e79a7"/>
  <circle cx="52.0" cy="229.4" r="3" fill="#f28e2b"/><circle cx="67.9" cy="202.8" r="3" fill="#f28e2b"/><circle cx="83.8" cy="209.6" r="3" fill="#f28e2b"/><circle cx="99.7" cy="170.0" r="3" fill="#f28e2b"/><circle cx="115.7" cy="193.1" r="3" fill="#f28e2b"/><circle cx="131.6" cy="207.5" r="3" fill="#f28e2b"/><circle cx="147.5" cy="224.9" r="3" fill="#f28e2b"/><circle cx="163.4" cy="188.4" r="3" fill="#f28e2b"/><circle cx="179.3" cy="208.2" r="3" fill="#f28e2b"/><circle cx="195.2" cy="224.9" r="3" fill="#f28e2b"/><circle cx="211.1" cy="223.8" r="3" fill="#f28e2b"/><circle cx="227.1" cy="222.3" r="3" fill="#f28e2b"/><circle cx="243.0" cy="212.7" r="3" fill="#f28e2b"/><circle cx="258.9" cy="225.2" r="3" fill="#f28e2b"/><circle cx="274.8" cy="229.4" r="3" fill="#f28e2b"/><circle cx="290.7" cy="228.2" r="3" fill="#f28e2b"/><circle cx="306.6" cy="231.5" r="3" fill="#f28e2b"/><circle cx="322.6" cy="231.5" r="3" fill="#f28e2b"/><circle cx="338.5" cy="229.4" r="3" fill="#f28e2b"/><circle cx="354.4" cy="226.8" r="3" fill="#f28e2b"/><circle cx="370.3" cy="230.8" r="3" fill="#f28e2b"/><circle cx="386.2" cy="231.5" r="3" fill="#f28e2b"/><circle cx="402.1" cy="231.8" r="3" fill="#f28e2b"/><circle cx="418.0" cy="232.0" r="3" fill="#f28e2b"/><circle cx="434.0" cy="231.8" r="3" fill="#f28e2b"/><circle cx="449.9" cy="231.3" r="3" fill="#f28e2b"/><circle cx="465.8" cy="232.0" r="3" fill="#f28e2b"/><circle cx="481.7" cy="231.3" r="3" fill="#f28e2b"/><circle cx="497.6" cy="232.0" r="3" fill="#f28e2b"/><circle cx="513.5" cy="226.1" r="3" fill="#f28e2b"/><circle cx="529.4" cy="231.5" r="3" fill="#f28e2b"/><circle cx="545.4" cy="230.6" r="3" fill="#f28e2b"/><circle cx="561.3" cy="228.7" r="3" fill="#f28e2b"/><circle cx="577.2" cy="231.1" r="3" fill="#f28e2b"/><circle cx="593.1" cy="231.5" r="3" fill="#f28e2b"/><circle cx="609.0" cy="231.8" r="3" fill="#f28e2b"/><circle cx="624.9" cy="230.6" r="3" fill="#f28e2b"/><circle cx="640.9" cy="231.8" r="3" fill="#f28e2b"/><circle cx="656.8" cy="231.5" r="3" fill="#f28e2b"/><circle cx="672.7" cy="226.8" r="3" fill="#f28e2b"/><circle cx="688.6" cy="217.2" r="3" fill="#f28e2b"/><circle cx="704.5" cy="231.3" r="3" fill="#f28e2b"/><circle cx="720.4" cy="231.8" r="3" fill="#f28e2b"/><circle cx="736.3" cy="231.5" r="3" fill="#f28e2b"/><circle cx="752.3" cy="231.5" r="3" fill="#f28e2b"/><circle cx="768.2" cy="232.0" r="3" fill="#f28e2b"/><circle cx="784.1" cy="231.8" r="3" fill="#f28e2b"/><circle cx="800.0" cy="232.0" r="3" fill="#f28e2b"/>

  <!-- axes -->
  <line x1="52" y1="28" x2="52" y2="232"
        stroke="#cccccc" stroke-width="1"/>
  <line x1="52" y1="232" x2="800" y2="232"
        stroke="#cccccc" stroke-width="1"/>

  <!-- y-axis labels -->
  <text x="47" y="236.0" text-anchor="end" font-size="10" fill="#57606a" font-family="ui-monospace, SFMono-Regular, 'SF Mono', Menlo, monospace">0</text><text x="47" y="188.9" text-anchor="end" font-size="10" fill="#57606a" font-family="ui-monospace, SFMono-Regular, 'SF Mono', Menlo, monospace">200</text><text x="47" y="141.8" text-anchor="end" font-size="10" fill="#57606a" font-family="ui-monospace, SFMono-Regular, 'SF Mono', Menlo, monospace">400</text><text x="47" y="94.7" text-anchor="end" font-size="10" fill="#57606a" font-family="ui-monospace, SFMono-Regular, 'SF Mono', Menlo, monospace">600</text><text x="47" y="47.5" text-anchor="end" font-size="10" fill="#57606a" font-family="ui-monospace, SFMono-Regular, 'SF Mono', Menlo, monospace">800</text><text x="47" y="0.4" text-anchor="end" font-size="10" fill="#57606a" font-family="ui-monospace, SFMono-Regular, 'SF Mono', Menlo, monospace">1,000</text>

  <!-- x-axis labels -->
  <text x="52.0" y="248" text-anchor="middle" font-size="10" fill="#8c959f" font-family="ui-monospace, SFMono-Regular, 'SF Mono', Menlo, monospace">05-11</text><text x="624.9" y="248" text-anchor="middle" font-size="10" fill="#8c959f" font-family="ui-monospace, SFMono-Regular, 'SF Mono', Menlo, monospace">06-16</text><text x="147.5" y="248" text-anchor="middle" font-size="10" fill="#8c959f" font-family="ui-monospace, SFMono-Regular, 'SF Mono', Menlo, monospace">05-17</text><text x="720.4" y="248" text-anchor="middle" font-size="10" fill="#8c959f" font-family="ui-monospace, SFMono-Regular, 'SF Mono', Menlo, monospace">06-22</text><text x="243.0" y="248" text-anchor="middle" font-size="10" fill="#8c959f" font-family="ui-monospace, SFMono-Regular, 'SF Mono', Menlo, monospace">05-23</text><text x="800.0" y="248" text-anchor="middle" font-size="10" fill="#8c959f" font-family="ui-monospace, SFMono-Regular, 'SF Mono', Menlo, monospace">06-27</text><text x="338.5" y="248" text-anchor="middle" font-size="10" fill="#8c959f" font-family="ui-monospace, SFMono-Regular, 'SF Mono', Menlo, monospace">05-29</text><text x="434.0" y="248" text-anchor="middle" font-size="10" fill="#8c959f" font-family="ui-monospace, SFMono-Regular, 'SF Mono', Menlo, monospace">06-04</text><text x="529.4" y="248" text-anchor="middle" font-size="10" fill="#8c959f" font-family="ui-monospace, SFMono-Regular, 'SF Mono', Menlo, monospace">06-10</text>

  <!-- legend -->
  <rect x="60" y="262" width="16" height="3" fill="#4e79a7" rx="1"/><text x="80" y="268" font-size="11" fill="#57606a" font-family="-apple-system, BlinkMacSystemFont, 'Segoe UI', sans-serif">Total clones (4,950)</text><line x1="230" y1="264" x2="246" y2="264" stroke="#f28e2b" stroke-width="2" stroke-dasharray="5,3"/><text x="250" y="268" font-size="11" fill="#57606a" font-family="-apple-system, BlinkMacSystemFont, 'Segoe UI', sans-serif">Unique cloners</text>

</svg>