<svg xmlns="http://www.w3.org/2000/svg" viewBox="0 0 820 280" width="820" height="280">

  <!-- title -->
  <text x="52" y="18" font-size="13" font-weight="600"
        fill="#24292f" font-family="-apple-system, BlinkMacSystemFont, 'Segoe UI', sans-serif"
        >Clone traffic — orthodox-calendar</text>
  <text x="800" y="18" font-size="10" fill="#8c959f"
        font-family="ui-monospace, SFMono-Regular, 'SF Mono', Menlo, monospace" text-anchor="end">2026-07-07</text>

  <!-- grid -->
  <line x1="52" y1="232.0" x2="800" y2="232.0" stroke="#e8e8e8" stroke-width="1"/><line x1="52" y1="184.9" x2="800" y2="184.9" stroke="#e8e8e8" stroke-width="1"/><line x1="52" y1="137.8" x2="800" y2="137.8" stroke="#e8e8e8" stroke-width="1"/><line x1="52" y1="90.7" x2="800" y2="90.7" stroke="#e8e8e8" stroke-width="1"/><line x1="52" y1="43.5" x2="800" y2="43.5" stroke="#e8e8e8" stroke-width="1"/><line x1="52" y1="-3.6" x2="800" y2="-3.6" stroke="#e8e8e8" stroke-width="1"/>

  <!-- area fill -->
  <path d="M52.0,226.8 L52.0,226.8 L65.6,169.6 L79.2,178.5 L92.8,28.0 L106.4,118.7 L120.0,163.5 L133.6,216.5 L147.2,76.5 L160.8,150.7 L174.4,213.2 L188.0,201.1 L201.6,194.8 L215.2,160.4 L228.8,208.0 L242.4,214.8 L256.0,217.4 L269.6,231.5 L283.2,231.5 L296.8,224.7 L310.4,213.9 L324.0,230.6 L337.6,231.3 L351.2,231.5 L364.8,232.0 L378.4,231.5 L392.0,231.1 L405.6,232.0 L419.2,230.8 L432.8,232.0 L446.4,212.2 L460.0,231.5 L473.6,229.6 L487.2,226.1 L500.8,229.2 L514.4,231.5 L528.0,231.8 L541.6,228.5 L555.2,231.8 L568.8,230.8 L582.4,212.7 L596.0,130.5 L609.6,231.1 L623.2,231.8 L636.8,231.3 L650.4,231.3 L664.0,232.0 L677.6,231.5 L691.2,232.0 L704.8,231.5 L718.4,231.8 L732.0,231.3 L745.6,231.5 L759.2,232.0 L772.8,232.0 L786.4,231.8 L800.0,232.0 L800.0,232.0 L52.0,232.0Z" fill="#4e79a7" opacity="0.12"/>

  <!-- lines -->
  <polyline points="52.0,226.8 65.6,169.6 79.2,178.5 92.8,28.0 106.4,118.7 120.0,163.5 133.6,216.5 147.2,76.5 160.8,150.7 174.4,213.2 188.0,201.1 201.6,194.8 215.2,160.4 228.8,208.0 242.4,214.8 256.0,217.4 269.6,231.5 283.2,231.5 296.8,224.7 310.4,213.9 324.0,230.6 337.6,231.3 351.2,231.5 364.8,232.0 378.4,231.5 392.0,231.1 405.6,232.0 419.2,230.8 432.8,232.0 446.4,212.2 460.0,231.5 473.6,229.6 487.2,226.1 500.8,229.2 514.4,231.5 528.0,231.8 541.6,228.5 555.2,231.8 568.8,230.8 582.4,212.7 596.0,130.5 609.6,231.1 623.2,231.8 636.8,231.3 650.4,231.3 664.0,232.0 677.6,231.5 691.2,232.0 704.8,231.5 718.4,231.8 732.0,231.3 745.6,231.5 759.2,232.0 772.8,232.0 786.4,231.8 800.0,232.0"
            fill="none" stroke="#4e79a7"
            stroke-width="2" stroke-linejoin="round"/>
  <polyline points="52.0,229.4 65.6,202.8 79.2,209.6 92.8,170.0 106.4,193.1 120.0,207.5 133.6,224.9 147.2,188.4 160.8,208.2 174.4,224.9 188.0,223.8 201.6,222.3 215.2,212.7 228.8,225.2 242.4,229.4 256.0,228.2 269.6,231.5 283.2,231.5 296.8,229.4 310.4,226.8 324.0,230.8 337.6,231.5 351.2,231.8 364.8,232.0 378.4,231.8 392.0,231.3 405.6,232.0 419.2,231.3 432.8,232.0 446.4,226.1 460.0,231.5 473.6,230.6 487.2,228.7 500.8,231.1 514.4,231.5 528.0,231.8 541.6,230.6 555.2,231.8 568.8,231.5 582.4,226.8 596.0,217.2 609.6,231.3 623.2,231.8 636.8,231.5 650.4,231.5 664.0,232.0 677.6,231.8 691.2,232.0 704.8,231.8 718.4,231.8 732.0,231.5 745.6,231.8 759.2,232.0 772.8,232.0 786.4,231.8 800.0,232.0"
            fill="none" stroke="#f28e2b"
            stroke-width="2" stroke-linejoin="round"
            stroke-dasharray="5,3"/>

  <!-- dots -->
  <circle cx="52.0" cy="226.8" r="3" fill="#4e79a7"/><circle cx="65.6" cy="169.6" r="3" fill="#4e79a7"/><circle cx="79.2" cy="178.5" r="3" fill="#4e79a7"/><circle cx="92.8" cy="28.0" r="3" fill="#4e79a7"/><circle cx="106.4" cy="118.7" r="3" fill="#4e79a7"/><circle cx="120.0" cy="163.5" r="3" fill="#4e79a7"/><circle cx="133.6" cy="216.5" r="3" fill="#4e79a7"/><circle cx="147.2" cy="76.5" r="3" fill="#4e79a7"/><circle cx="160.8" cy="150.7" r="3" fill="#4e79a7"/><circle cx="174.4" cy="213.2" r="3" fill="#4e79a7"/><circle cx="188.0" cy="201.1" r="3" fill="#4e79a7"/><circle cx="201.6" cy="194.8" r="3" fill="#4e79a7"/><circle cx="215.2" cy="160.4" r="3" fill="#4e79a7"/><circle cx="228.8" cy="208.0" r="3" fill="#4e79a7"/><circle cx="242.4" cy="214.8" r="3" fill="#4e79a7"/><circle cx="256.0" cy="217.4" r="3" fill="#4e79a7"/><circle cx="269.6" cy="231.5" r="3" fill="#4e79a7"/><circle cx="283.2" cy="231.5" r="3" fill="#4e79a7"/><circle cx="296.8" cy="224.7" r="3" fill="#4e79a7"/><circle cx="310.4" cy="213.9" r="3" fill="#4e79a7"/><circle cx="324.0" cy="230.6" r="3" fill="#4e79a7"/><circle cx="337.6" cy="231.3" r="3" fill="#4e79a7"/><circle cx="351.2" cy="231.5" r="3" fill="#4e79a7"/><circle cx="364.8" cy="232.0" r="3" fill="#4e79a7"/><circle cx="378.4" cy="231.5" r="3" fill="#4e79a7"/><circle cx="392.0" cy="231.1" r="3" fill="#4e79a7"/><circle cx="405.6" cy="232.0" r="3" fill="#4e79a7"/><circle cx="419.2" cy="230.8" r="3" fill="#4e79a7"/><circle cx="432.8" cy="232.0" r="3" fill="#4e79a7"/><circle cx="446.4" cy="212.2" r="3" fill="#4e79a7"/><circle cx="460.0" cy="231.5" r="3" fill="#4e79a7"/><circle cx="473.6" cy="229.6" r="3" fill="#4e79a7"/><circle cx="487.2" cy="226.1" r="3" fill="#4e79a7"/><circle cx="500.8" cy="229.2" r="3" fill="#4e79a7"/><circle cx="514.4" cy="231.5" r="3" fill="#4e79a7"/><circle cx="528.0" cy="231.8" r="3" fill="#4e79a7"/><circle cx="541.6" cy="228.5" r="3" fill="#4e79a7"/><circle cx="555.2" cy="231.8" r="3" fill="#4e79a7"/><circle cx="568.8" cy="230.8" r="3" fill="#4e79a7"/><circle cx="582.4" cy="212.7" r="3" fill="#4e79a7"/><circle cx="596.0" cy="130.5" r="3" fill="#4e79a7"/><circle cx="609.6" cy="231.1" r="3" fill="#4e79a7"/><circle cx="623.2" cy="231.8" r="3" fill="#4e79a7"/><circle cx="636.8" cy="231.3" r="3" fill="#4e79a7"/><circle cx="650.4" cy="231.3" r="3" fill="#4e79a7"/><circle cx="664.0" cy="232.0" r="3" fill="#4e79a7"/><circle cx="677.6" cy="231.5" r="3" fill="#4e79a7"/><circle cx="691.2" cy="232.0" r="3" fill="#4e79a7"/><circle cx="704.8" cy="231.5" r="3" fill="#4e79a7"/><circle cx="718.4" cy="231.8" r="3" fill="#4e79a7"/><circle cx="732.0" cy="231.3" r="3" fill="#4e79a7"/><circle cx="745.6" cy="231.5" r="3" fill="#4e79a7"/><circle cx="759.2" cy="232.0" r="3" fill="#4e79a7"/><circle cx="772.8" cy="232.0" r="3" fill="#4e79a7"/><circle cx="786.4" cy="231.8" r="3" fill="#4e79a7"/><circle cx="800.0" cy="232.0" r="3" fill="#4e79a7"/>
  <circle cx="52.0" cy="229.4" r="3" fill="#f28e2b"/><circle cx="65.6" cy="202.8" r="3" fill="#f28e2b"/><circle cx="79.2" cy="209.6" r="3" fill="#f28e2b"/><circle cx="92.8" cy="170.0" r="3" fill="#f28e2b"/><circle cx="106.4" cy="193.1" r="3" fill="#f28e2b"/><circle cx="120.0" cy="207.5" r="3" fill="#f28e2b"/><circle cx="133.6" cy="224.9" r="3" fill="#f28e2b"/><circle cx="147.2" cy="188.4" r="3" fill="#f28e2b"/><circle cx="160.8" cy="208.2" r="3" fill="#f28e2b"/><circle cx="174.4" cy="224.9" r="3" fill="#f28e2b"/><circle cx="188.0" cy="223.8" r="3" fill="#f28e2b"/><circle cx="201.6" cy="222.3" r="3" fill="#f28e2b"/><circle cx="215.2" cy="212.7" r="3" fill="#f28e2b"/><circle cx="228.8" cy="225.2" r="3" fill="#f28e2b"/><circle cx="242.4" cy="229.4" r="3" fill="#f28e2b"/><circle cx="256.0" cy="228.2" r="3" fill="#f28e2b"/><circle cx="269.6" cy="231.5" r="3" fill="#f28e2b"/><circle cx="283.2" cy="231.5" r="3" fill="#f28e2b"/><circle cx="296.8" cy="229.4" r="3" fill="#f28e2b"/><circle cx="310.4" cy="226.8" r="3" fill="#f28e2b"/><circle cx="324.0" cy="230.8" r="3" fill="#f28e2b"/><circle cx="337.6" cy="231.5" r="3" fill="#f28e2b"/><circle cx="351.2" cy="231.8" r="3" fill="#f28e2b"/><circle cx="364.8" cy="232.0" r="3" fill="#f28e2b"/><circle cx="378.4" cy="231.8" r="3" fill="#f28e2b"/><circle cx="392.0" cy="231.3" r="3" fill="#f28e2b"/><circle cx="405.6" cy="232.0" r="3" fill="#f28e2b"/><circle cx="419.2" cy="231.3" r="3" fill="#f28e2b"/><circle cx="432.8" cy="232.0" r="3" fill="#f28e2b"/><circle cx="446.4" cy="226.1" r="3" fill="#f28e2b"/><circle cx="460.0" cy="231.5" r="3" fill="#f28e2b"/><circle cx="473.6" cy="230.6" r="3" fill="#f28e2b"/><circle cx="487.2" cy="228.7" r="3" fill="#f28e2b"/><circle cx="500.8" cy="231.1" r="3" fill="#f28e2b"/><circle cx="514.4" cy="231.5" r="3" fill="#f28e2b"/><circle cx="528.0" cy="231.8" r="3" fill="#f28e2b"/><circle cx="541.6" cy="230.6" r="3" fill="#f28e2b"/><circle cx="555.2" cy="231.8" r="3" fill="#f28e2b"/><circle cx="568.8" cy="231.5" r="3" fill="#f28e2b"/><circle cx="582.4" cy="226.8" r="3" fill="#f28e2b"/><circle cx="596.0" cy="217.2" r="3" fill="#f28e2b"/><circle cx="609.6" cy="231.3" r="3" fill="#f28e2b"/><circle cx="623.2" cy="231.8" r="3" fill="#f28e2b"/><circle cx="636.8" cy="231.5" r="3" fill="#f28e2b"/><circle cx="650.4" cy="231.5" r="3" fill="#f28e2b"/><circle cx="664.0" cy="232.0" r="3" fill="#f28e2b"/><circle cx="677.6" cy="231.8" r="3" fill="#f28e2b"/><circle cx="691.2" cy="232.0" r="3" fill="#f28e2b"/><circle cx="704.8" cy="231.8" r="3" fill="#f28e2b"/><circle cx="718.4" cy="231.8" r="3" fill="#f28e2b"/><circle cx="732.0" cy="231.5" r="3" fill="#f28e2b"/><circle cx="745.6" cy="231.8" r="3" fill="#f28e2b"/><circle cx="759.2" cy="232.0" r="3" fill="#f28e2b"/><circle cx="772.8" cy="232.0" r="3" fill="#f28e2b"/><circle cx="786.4" cy="231.8" r="3" fill="#f28e2b"/><circle cx="800.0" cy="232.0" r="3" fill="#f28e2b"/>

  <!-- axes -->
  <line x1="52" y1="28" x2="52" y2="232"
        stroke="#cccccc" stroke-width="1"/>
  <line x1="52" y1="232" x2="800" y2="232"
        stroke="#cccccc" stroke-width="1"/>

  <!-- y-axis labels -->
  <text x="47" y="236.0" text-anchor="end" font-size="10" fill="#57606a" font-family="ui-monospace, SFMono-Regular, 'SF Mono', Menlo, monospace">0</text><text x="47" y="188.9" text-anchor="end" font-size="10" fill="#57606a" font-family="ui-monospace, SFMono-Regular, 'SF Mono', Menlo, monospace">200</text><text x="47" y="141.8" text-anchor="end" font-size="10" fill="#57606a" font-family="ui-monospace, SFMono-Regular, 'SF Mono', Menlo, monospace">400</text><text x="47" y="94.7" text-anchor="end" font-size="10" fill="#57606a" font-family="ui-monospace, SFMono-Regular, 'SF Mono', Menlo, monospace">600</text><text x="47" y="47.5" text-anchor="end" font-size="10" fill="#57606a" font-family="ui-monospace, SFMono-Regular, 'SF Mono', Menlo, monospace">800</text><text x="47" y="0.4" text-anchor="end" font-size="10" fill="#57606a" font-family="ui-monospace, SFMono-Regular, 'SF Mono', Menlo, monospace">1,000</text>

  <!-- x-axis labels -->
  <text x="52.0" y="248" text-anchor="middle" font-size="10" fill="#8c959f" font-family="ui-monospace, SFMono-Regular, 'SF Mono', Menlo, monospace">05-11</text><text x="528.0" y="248" text-anchor="middle" font-size="10" fill="#8c959f" font-family="ui-monospace, SFMono-Regular, 'SF Mono', Menlo, monospace">06-15</text><text x="147.2" y="248" text-anchor="middle" font-size="10" fill="#8c959f" font-family="ui-monospace, SFMono-Regular, 'SF Mono', Menlo, monospace">05-18</text><text x="623.2" y="248" text-anchor="middle" font-size="10" fill="#8c959f" font-family="ui-monospace, SFMono-Regular, 'SF Mono', Menlo, monospace">06-22</text><text x="242.4" y="248" text-anchor="middle" font-size="10" fill="#8c959f" font-family="ui-monospace, SFMono-Regular, 'SF Mono', Menlo, monospace">05-25</text><text x="718.4" y="248" text-anchor="middle" font-size="10" fill="#8c959f" font-family="ui-monospace, SFMono-Regular, 'SF Mono', Menlo, monospace">06-29</text><text x="337.6" y="248" text-anchor="middle" font-size="10" fill="#8c959f" font-family="ui-monospace, SFMono-Regular, 'SF Mono', Menlo, monospace">06-01</text><text x="800.0" y="248" text-anchor="middle" font-size="10" fill="#8c959f" font-family="ui-monospace, SFMono-Regular, 'SF Mono', Menlo, monospace">07-05</text><text x="432.8" y="248" text-anchor="middle" font-size="10" fill="#8c959f" font-family="ui-monospace, SFMono-Regular, 'SF Mono', Menlo, monospace">06-08</text>

  <!-- legend -->
  <rect x="60" y="262" width="16" height="3" fill="#4e79a7" rx="1"/><text x="80" y="268" font-size="11" fill="#57606a" font-family="-apple-system, BlinkMacSystemFont, 'Segoe UI', sans-serif">Total clones (4,959)</text><line x1="230" y1="264" x2="246" y2="264" stroke="#f28e2b" stroke-width="2" stroke-dasharray="5,3"/><text x="250" y="268" font-size="11" fill="#57606a" font-family="-apple-system, BlinkMacSystemFont, 'Segoe UI', sans-serif">Unique cloners</text>

</svg>