<svg xmlns="http://www.w3.org/2000/svg" viewBox="0 0 820 280" width="820" height="280">

  <!-- title -->
  <text x="52" y="18" font-size="13" font-weight="600"
        fill="#24292f" font-family="-apple-system, BlinkMacSystemFont, 'Segoe UI', sans-serif"
        >Clone traffic — orthodox-calendar</text>
  <text x="800" y="18" font-size="10" fill="#8c959f"
        font-family="ui-monospace, SFMono-Regular, 'SF Mono', Menlo, monospace" text-anchor="end">2026-06-16</text>

  <!-- grid -->
  <line x1="52" y1="232.0" x2="800" y2="232.0" stroke="#e8e8e8" stroke-width="1"/><line x1="52" y1="184.9" x2="800" y2="184.9" stroke="#e8e8e8" stroke-width="1"/><line x1="52" y1="137.8" x2="800" y2="137.8" stroke="#e8e8e8" stroke-width="1"/><line x1="52" y1="90.7" x2="800" y2="90.7" stroke="#e8e8e8" stroke-width="1"/><line x1="52" y1="43.5" x2="800" y2="43.5" stroke="#e8e8e8" stroke-width="1"/><line x1="52" y1="-3.6" x2="800" y2="-3.6" stroke="#e8e8e8" stroke-width="1"/>

  <!-- area fill -->
  <path d="M52.0,226.8 L52.0,226.8 L74.0,169.6 L96.0,178.5 L118.0,28.0 L140.0,118.7 L162.0,163.5 L184.0,216.5 L206.0,76.5 L228.0,150.7 L250.0,213.2 L272.0,201.1 L294.0,194.8 L316.0,160.4 L338.0,208.0 L360.0,214.8 L382.0,217.4 L404.0,231.5 L426.0,231.5 L448.0,224.7 L470.0,213.9 L492.0,230.6 L514.0,231.3 L536.0,231.5 L558.0,232.0 L580.0,231.5 L602.0,231.1 L624.0,232.0 L646.0,230.8 L668.0,232.0 L690.0,212.2 L712.0,231.5 L734.0,229.6 L756.0,226.1 L778.0,229.2 L800.0,231.5 L800.0,232.0 L52.0,232.0Z" fill="#4e79a7" opacity="0.12"/>

  <!-- lines -->
  <polyline points="52.0,226.8 74.0,169.6 96.0,178.5 118.0,28.0 140.0,118.7 162.0,163.5 184.0,216.5 206.0,76.5 228.0,150.7 250.0,213.2 272.0,201.1 294.0,194.8 316.0,160.4 338.0,208.0 360.0,214.8 382.0,217.4 404.0,231.5 426.0,231.5 448.0,224.7 470.0,213.9 492.0,230.6 514.0,231.3 536.0,231.5 558.0,232.0 580.0,231.5 602.0,231.1 624.0,232.0 646.0,230.8 668.0,232.0 690.0,212.2 712.0,231.5 734.0,229.6 756.0,226.1 778.0,229.2 800.0,231.5"
            fill="none" stroke="#4e79a7"
            stroke-width="2" stroke-linejoin="round"/>
  <polyline points="52.0,229.4 74.0,202.8 96.0,209.6 118.0,170.0 140.0,193.1 162.0,207.5 184.0,224.9 206.0,188.4 228.0,208.2 250.0,224.9 272.0,223.8 294.0,222.3 316.0,212.7 338.0,225.2 360.0,229.4 382.0,228.2 404.0,231.5 426.0,231.5 448.0,229.4 470.0,226.8 492.0,230.8 514.0,231.5 536.0,231.8 558.0,232.0 580.0,231.8 602.0,231.3 624.0,232.0 646.0,231.3 668.0,232.0 690.0,226.1 712.0,231.5 734.0,230.6 756.0,228.7 778.0,231.1 800.0,231.5"
            fill="none" stroke="#f28e2b"
            stroke-width="2" stroke-linejoin="round"
            stroke-dasharray="5,3"/>

  <!-- dots -->
  <circle cx="52.0" cy="226.8" r="3" fill="#4e79a7"/><circle cx="74.0" cy="169.6" r="3" fill="#4e79a7"/><circle cx="96.0" cy="178.5" r="3" fill="#4e79a7"/><circle cx="118.0" cy="28.0" r="3" fill="#4e79a7"/><circle cx="140.0" cy="118.7" r="3" fill="#4e79a7"/><circle cx="162.0" cy="163.5" r="3" fill="#4e79a7"/><circle cx="184.0" cy="216.5" r="3" fill="#4e79a7"/><circle cx="206.0" cy="76.5" r="3" fill="#4e79a7"/><circle cx="228.0" cy="150.7" r="3" fill="#4e79a7"/><circle cx="250.0" cy="213.2" r="3" fill="#4e79a7"/><circle cx="272.0" cy="201.1" r="3" fill="#4e79a7"/><circle cx="294.0" cy="194.8" r="3" fill="#4e79a7"/><circle cx="316.0" cy="160.4" r="3" fill="#4e79a7"/><circle cx="338.0" cy="208.0" r="3" fill="#4e79a7"/><circle cx="360.0" cy="214.8" r="3" fill="#4e79a7"/><circle cx="382.0" cy="217.4" r="3" fill="#4e79a7"/><circle cx="404.0" cy="231.5" r="3" fill="#4e79a7"/><circle cx="426.0" cy="231.5" r="3" fill="#4e79a7"/><circle cx="448.0" cy="224.7" r="3" fill="#4e79a7"/><circle cx="470.0" cy="213.9" r="3" fill="#4e79a7"/><circle cx="492.0" cy="230.6" r="3" fill="#4e79a7"/><circle cx="514.0" cy="231.3" r="3" fill="#4e79a7"/><circle cx="536.0" cy="231.5" r="3" fill="#4e79a7"/><circle cx="558.0" cy="232.0" r="3" fill="#4e79a7"/><circle cx="580.0" cy="231.5" r="3" fill="#4e79a7"/><circle cx="602.0" cy="231.1" r="3" fill="#4e79a7"/><circle cx="624.0" cy="232.0" r="3" fill="#4e79a7"/><circle cx="646.0" cy="230.8" r="3" fill="#4e79a7"/><circle cx="668.0" cy="232.0" r="3" fill="#4e79a7"/><circle cx="690.0" cy="212.2" r="3" fill="#4e79a7"/><circle cx="712.0" cy="231.5" r="3" fill="#4e79a7"/><circle cx="734.0" cy="229.6" r="3" fill="#4e79a7"/><circle cx="756.0" cy="226.1" r="3" fill="#4e79a7"/><circle cx="778.0" cy="229.2" r="3" fill="#4e79a7"/><circle cx="800.0" cy="231.5" r="3" fill="#4e79a7"/>
  <circle cx="52.0" cy="229.4" r="3" fill="#f28e2b"/><circle cx="74.0" cy="202.8" r="3" fill="#f28e2b"/><circle cx="96.0" cy="209.6" r="3" fill="#f28e2b"/><circle cx="118.0" cy="170.0" r="3" fill="#f28e2b"/><circle cx="140.0" cy="193.1" r="3" fill="#f28e2b"/><circle cx="162.0" cy="207.5" r="3" fill="#f28e2b"/><circle cx="184.0" cy="224.9" r="3" fill="#f28e2b"/><circle cx="206.0" cy="188.4" r="3" fill="#f28e2b"/><circle cx="228.0" cy="208.2" r="3" fill="#f28e2b"/><circle cx="250.0" cy="224.9" r="3" fill="#f28e2b"/><circle cx="272.0" cy="223.8" r="3" fill="#f28e2b"/><circle cx="294.0" cy="222.3" r="3" fill="#f28e2b"/><circle cx="316.0" cy="212.7" r="3" fill="#f28e2b"/><circle cx="338.0" cy="225.2" r="3" fill="#f28e2b"/><circle cx="360.0" cy="229.4" r="3" fill="#f28e2b"/><circle cx="382.0" cy="228.2" r="3" fill="#f28e2b"/><circle cx="404.0" cy="231.5" r="3" fill="#f28e2b"/><circle cx="426.0" cy="231.5" r="3" fill="#f28e2b"/><circle cx="448.0" cy="229.4" r="3" fill="#f28e2b"/><circle cx="470.0" cy="226.8" r="3" fill="#f28e2b"/><circle cx="492.0" cy="230.8" r="3" fill="#f28e2b"/><circle cx="514.0" cy="231.5" r="3" fill="#f28e2b"/><circle cx="536.0" cy="231.8" r="3" fill="#f28e2b"/><circle cx="558.0" cy="232.0" r="3" fill="#f28e2b"/><circle cx="580.0" cy="231.8" r="3" fill="#f28e2b"/><circle cx="602.0" cy="231.3" r="3" fill="#f28e2b"/><circle cx="624.0" cy="232.0" r="3" fill="#f28e2b"/><circle cx="646.0" cy="231.3" r="3" fill="#f28e2b"/><circle cx="668.0" cy="232.0" r="3" fill="#f28e2b"/><circle cx="690.0" cy="226.1" r="3" fill="#f28e2b"/><circle cx="712.0" cy="231.5" r="3" fill="#f28e2b"/><circle cx="734.0" cy="230.6" r="3" fill="#f28e2b"/><circle cx="756.0" cy="228.7" r="3" fill="#f28e2b"/><circle cx="778.0" cy="231.1" r="3" fill="#f28e2b"/><circle cx="800.0" cy="231.5" r="3" fill="#f28e2b"/>

  <!-- axes -->
  <line x1="52" y1="28" x2="52" y2="232"
        stroke="#cccccc" stroke-width="1"/>
  <line x1="52" y1="232" x2="800" y2="232"
        stroke="#cccccc" stroke-width="1"/>

  <!-- y-axis labels -->
  <text x="47" y="236.0" text-anchor="end" font-size="10" fill="#57606a" font-family="ui-monospace, SFMono-Regular, 'SF Mono', Menlo, monospace">0</text><text x="47" y="188.9" text-anchor="end" font-size="10" fill="#57606a" font-family="ui-monospace, SFMono-Regular, 'SF Mono', Menlo, monospace">200</text><text x="47" y="141.8" text-anchor="end" font-size="10" fill="#57606a" font-family="ui-monospace, SFMono-Regular, 'SF Mono', Menlo, monospace">400</text><text x="47" y="94.7" text-anchor="end" font-size="10" fill="#57606a" font-family="ui-monospace, SFMono-Regular, 'SF Mono', Menlo, monospace">600</text><text x="47" y="47.5" text-anchor="end" font-size="10" fill="#57606a" font-family="ui-monospace, SFMono-Regular, 'SF Mono', Menlo, monospace">800</text><text x="47" y="0.4" text-anchor="end" font-size="10" fill="#57606a" font-family="ui-monospace, SFMono-Regular, 'SF Mono', Menlo, monospace">1,000</text>

  <!-- x-axis labels -->
  <text x="52.0" y="248" text-anchor="middle" font-size="10" fill="#8c959f" font-family="ui-monospace, SFMono-Regular, 'SF Mono', Menlo, monospace">05-11</text><text x="756.0" y="248" text-anchor="middle" font-size="10" fill="#8c959f" font-family="ui-monospace, SFMono-Regular, 'SF Mono', Menlo, monospace">06-12</text><text x="800.0" y="248" text-anchor="middle" font-size="10" fill="#8c959f" font-family="ui-monospace, SFMono-Regular, 'SF Mono', Menlo, monospace">06-14</text><text x="140.0" y="248" text-anchor="middle" font-size="10" fill="#8c959f" font-family="ui-monospace, SFMono-Regular, 'SF Mono', Menlo, monospace">05-15</text><text x="228.0" y="248" text-anchor="middle" font-size="10" fill="#8c959f" font-family="ui-monospace, SFMono-Regular, 'SF Mono', Menlo, monospace">05-19</text><text x="316.0" y="248" text-anchor="middle" font-size="10" fill="#8c959f" font-family="ui-monospace, SFMono-Regular, 'SF Mono', Menlo, monospace">05-23</text><text x="404.0" y="248" text-anchor="middle" font-size="10" fill="#8c959f" font-family="ui-monospace, SFMono-Regular, 'SF Mono', Menlo, monospace">05-27</text><text x="492.0" y="248" text-anchor="middle" font-size="10" fill="#8c959f" font-family="ui-monospace, SFMono-Regular, 'SF Mono', Menlo, monospace">05-31</text><text x="580.0" y="248" text-anchor="middle" font-size="10" fill="#8c959f" font-family="ui-monospace, SFMono-Regular, 'SF Mono', Menlo, monospace">06-04</text><text x="668.0" y="248" text-anchor="middle" font-size="10" fill="#8c959f" font-family="ui-monospace, SFMono-Regular, 'SF Mono', Menlo, monospace">06-08</text>

  <!-- legend -->
  <rect x="60" y="262" width="16" height="3" fill="#4e79a7" rx="1"/><text x="80" y="268" font-size="11" fill="#57606a" font-family="-apple-system, BlinkMacSystemFont, 'Segoe UI', sans-serif">Total clones (4,402)</text><line x1="230" y1="264" x2="246" y2="264" stroke="#f28e2b" stroke-width="2" stroke-dasharray="5,3"/><text x="250" y="268" font-size="11" fill="#57606a" font-family="-apple-system, BlinkMacSystemFont, 'Segoe UI', sans-serif">Unique cloners</text>

</svg>