<svg xmlns="http://www.w3.org/2000/svg" viewBox="0 0 820 280" width="820" height="280">

  <!-- title -->
  <text x="52" y="18" font-size="13" font-weight="600"
        fill="#24292f" font-family="-apple-system, BlinkMacSystemFont, 'Segoe UI', sans-serif"
        >Clone traffic — orthodox-calendar</text>
  <text x="800" y="18" font-size="10" fill="#8c959f"
        font-family="ui-monospace, SFMono-Regular, 'SF Mono', Menlo, monospace" text-anchor="end">2026-06-08</text>

  <!-- grid -->
  <line x1="52" y1="232.0" x2="800" y2="232.0" stroke="#e8e8e8" stroke-width="1"/><line x1="52" y1="184.9" x2="800" y2="184.9" stroke="#e8e8e8" stroke-width="1"/><line x1="52" y1="137.8" x2="800" y2="137.8" stroke="#e8e8e8" stroke-width="1"/><line x1="52" y1="90.7" x2="800" y2="90.7" stroke="#e8e8e8" stroke-width="1"/><line x1="52" y1="43.5" x2="800" y2="43.5" stroke="#e8e8e8" stroke-width="1"/><line x1="52" y1="-3.6" x2="800" y2="-3.6" stroke="#e8e8e8" stroke-width="1"/>

  <!-- area fill -->
  <path d="M52.0,226.8 L52.0,226.8 L80.8,169.6 L109.5,178.5 L138.3,28.0 L167.1,118.7 L195.8,163.5 L224.6,216.5 L253.4,76.5 L282.2,150.7 L310.9,213.2 L339.7,201.1 L368.5,194.8 L397.2,160.4 L426.0,208.0 L454.8,214.8 L483.5,217.4 L512.3,231.5 L541.1,231.5 L569.8,224.7 L598.6,213.9 L627.4,230.6 L656.2,231.3 L684.9,231.5 L713.7,232.0 L742.5,231.5 L771.2,231.1 L800.0,232.0 L800.0,232.0 L52.0,232.0Z" fill="#4e79a7" opacity="0.12"/>

  <!-- lines -->
  <polyline points="52.0,226.8 80.8,169.6 109.5,178.5 138.3,28.0 167.1,118.7 195.8,163.5 224.6,216.5 253.4,76.5 282.2,150.7 310.9,213.2 339.7,201.1 368.5,194.8 397.2,160.4 426.0,208.0 454.8,214.8 483.5,217.4 512.3,231.5 541.1,231.5 569.8,224.7 598.6,213.9 627.4,230.6 656.2,231.3 684.9,231.5 713.7,232.0 742.5,231.5 771.2,231.1 800.0,232.0"
            fill="none" stroke="#4e79a7"
            stroke-width="2" stroke-linejoin="round"/>
  <polyline points="52.0,229.4 80.8,202.8 109.5,209.6 138.3,170.0 167.1,193.1 195.8,207.5 224.6,224.9 253.4,188.4 282.2,208.2 310.9,224.9 339.7,223.8 368.5,222.3 397.2,212.7 426.0,225.2 454.8,229.4 483.5,228.2 512.3,231.5 541.1,231.5 569.8,229.4 598.6,226.8 627.4,230.8 656.2,231.5 684.9,231.8 713.7,232.0 742.5,231.8 771.2,231.3 800.0,232.0"
            fill="none" stroke="#f28e2b"
            stroke-width="2" stroke-linejoin="round"
            stroke-dasharray="5,3"/>

  <!-- dots -->
  <circle cx="52.0" cy="226.8" r="3" fill="#4e79a7"/><circle cx="80.8" cy="169.6" r="3" fill="#4e79a7"/><circle cx="109.5" cy="178.5" r="3" fill="#4e79a7"/><circle cx="138.3" cy="28.0" r="3" fill="#4e79a7"/><circle cx="167.1" cy="118.7" r="3" fill="#4e79a7"/><circle cx="195.8" cy="163.5" r="3" fill="#4e79a7"/><circle cx="224.6" cy="216.5" r="3" fill="#4e79a7"/><circle cx="253.4" cy="76.5" r="3" fill="#4e79a7"/><circle cx="282.2" cy="150.7" r="3" fill="#4e79a7"/><circle cx="310.9" cy="213.2" r="3" fill="#4e79a7"/><circle cx="339.7" cy="201.1" r="3" fill="#4e79a7"/><circle cx="368.5" cy="194.8" r="3" fill="#4e79a7"/><circle cx="397.2" cy="160.4" r="3" fill="#4e79a7"/><circle cx="426.0" cy="208.0" r="3" fill="#4e79a7"/><circle cx="454.8" cy="214.8" r="3" fill="#4e79a7"/><circle cx="483.5" cy="217.4" r="3" fill="#4e79a7"/><circle cx="512.3" cy="231.5" r="3" fill="#4e79a7"/><circle cx="541.1" cy="231.5" r="3" fill="#4e79a7"/><circle cx="569.8" cy="224.7" r="3" fill="#4e79a7"/><circle cx="598.6" cy="213.9" r="3" fill="#4e79a7"/><circle cx="627.4" cy="230.6" r="3" fill="#4e79a7"/><circle cx="656.2" cy="231.3" r="3" fill="#4e79a7"/><circle cx="684.9" cy="231.5" r="3" fill="#4e79a7"/><circle cx="713.7" cy="232.0" r="3" fill="#4e79a7"/><circle cx="742.5" cy="231.5" r="3" fill="#4e79a7"/><circle cx="771.2" cy="231.1" r="3" fill="#4e79a7"/><circle cx="800.0" cy="232.0" r="3" fill="#4e79a7"/>
  <circle cx="52.0" cy="229.4" r="3" fill="#f28e2b"/><circle cx="80.8" cy="202.8" r="3" fill="#f28e2b"/><circle cx="109.5" cy="209.6" r="3" fill="#f28e2b"/><circle cx="138.3" cy="170.0" r="3" fill="#f28e2b"/><circle cx="167.1" cy="193.1" r="3" fill="#f28e2b"/><circle cx="195.8" cy="207.5" r="3" fill="#f28e2b"/><circle cx="224.6" cy="224.9" r="3" fill="#f28e2b"/><circle cx="253.4" cy="188.4" r="3" fill="#f28e2b"/><circle cx="282.2" cy="208.2" r="3" fill="#f28e2b"/><circle cx="310.9" cy="224.9" r="3" fill="#f28e2b"/><circle cx="339.7" cy="223.8" r="3" fill="#f28e2b"/><circle cx="368.5" cy="222.3" r="3" fill="#f28e2b"/><circle cx="397.2" cy="212.7" r="3" fill="#f28e2b"/><circle cx="426.0" cy="225.2" r="3" fill="#f28e2b"/><circle cx="454.8" cy="229.4" r="3" fill="#f28e2b"/><circle cx="483.5" cy="228.2" r="3" fill="#f28e2b"/><circle cx="512.3" cy="231.5" r="3" fill="#f28e2b"/><circle cx="541.1" cy="231.5" r="3" fill="#f28e2b"/><circle cx="569.8" cy="229.4" r="3" fill="#f28e2b"/><circle cx="598.6" cy="226.8" r="3" fill="#f28e2b"/><circle cx="627.4" cy="230.8" r="3" fill="#f28e2b"/><circle cx="656.2" cy="231.5" r="3" fill="#f28e2b"/><circle cx="684.9" cy="231.8" r="3" fill="#f28e2b"/><circle cx="713.7" cy="232.0" r="3" fill="#f28e2b"/><circle cx="742.5" cy="231.8" r="3" fill="#f28e2b"/><circle cx="771.2" cy="231.3" r="3" fill="#f28e2b"/><circle cx="800.0" cy="232.0" r="3" fill="#f28e2b"/>

  <!-- axes -->
  <line x1="52" y1="28" x2="52" y2="232"
        stroke="#cccccc" stroke-width="1"/>
  <line x1="52" y1="232" x2="800" y2="232"
        stroke="#cccccc" stroke-width="1"/>

  <!-- y-axis labels -->
  <text x="47" y="236.0" text-anchor="end" font-size="10" fill="#57606a" font-family="ui-monospace, SFMono-Regular, 'SF Mono', Menlo, monospace">0</text><text x="47" y="188.9" text-anchor="end" font-size="10" fill="#57606a" font-family="ui-monospace, SFMono-Regular, 'SF Mono', Menlo, monospace">200</text><text x="47" y="141.8" text-anchor="end" font-size="10" fill="#57606a" font-family="ui-monospace, SFMono-Regular, 'SF Mono', Menlo, monospace">400</text><text x="47" y="94.7" text-anchor="end" font-size="10" fill="#57606a" font-family="ui-monospace, SFMono-Regular, 'SF Mono', Menlo, monospace">600</text><text x="47" y="47.5" text-anchor="end" font-size="10" fill="#57606a" font-family="ui-monospace, SFMono-Regular, 'SF Mono', Menlo, monospace">800</text><text x="47" y="0.4" text-anchor="end" font-size="10" fill="#57606a" font-family="ui-monospace, SFMono-Regular, 'SF Mono', Menlo, monospace">1,000</text>

  <!-- x-axis labels -->
  <text x="52.0" y="248" text-anchor="middle" font-size="10" fill="#8c959f" font-family="ui-monospace, SFMono-Regular, 'SF Mono', Menlo, monospace">05-11</text><text x="138.3" y="248" text-anchor="middle" font-size="10" fill="#8c959f" font-family="ui-monospace, SFMono-Regular, 'SF Mono', Menlo, monospace">05-14</text><text x="224.6" y="248" text-anchor="middle" font-size="10" fill="#8c959f" font-family="ui-monospace, SFMono-Regular, 'SF Mono', Menlo, monospace">05-17</text><text x="310.9" y="248" text-anchor="middle" font-size="10" fill="#8c959f" font-family="ui-monospace, SFMono-Regular, 'SF Mono', Menlo, monospace">05-20</text><text x="397.2" y="248" text-anchor="middle" font-size="10" fill="#8c959f" font-family="ui-monospace, SFMono-Regular, 'SF Mono', Menlo, monospace">05-23</text><text x="483.5" y="248" text-anchor="middle" font-size="10" fill="#8c959f" font-family="ui-monospace, SFMono-Regular, 'SF Mono', Menlo, monospace">05-26</text><text x="569.8" y="248" text-anchor="middle" font-size="10" fill="#8c959f" font-family="ui-monospace, SFMono-Regular, 'SF Mono', Menlo, monospace">05-29</text><text x="656.2" y="248" text-anchor="middle" font-size="10" fill="#8c959f" font-family="ui-monospace, SFMono-Regular, 'SF Mono', Menlo, monospace">06-01</text><text x="742.5" y="248" text-anchor="middle" font-size="10" fill="#8c959f" font-family="ui-monospace, SFMono-Regular, 'SF Mono', Menlo, monospace">06-04</text><text x="800.0" y="248" text-anchor="middle" font-size="10" fill="#8c959f" font-family="ui-monospace, SFMono-Regular, 'SF Mono', Menlo, monospace">06-06</text>

  <!-- legend -->
  <rect x="60" y="262" width="16" height="3" fill="#4e79a7" rx="1"/><text x="80" y="268" font-size="11" fill="#57606a" font-family="-apple-system, BlinkMacSystemFont, 'Segoe UI', sans-serif">Total clones (4,262)</text><line x1="230" y1="264" x2="246" y2="264" stroke="#f28e2b" stroke-width="2" stroke-dasharray="5,3"/><text x="250" y="268" font-size="11" fill="#57606a" font-family="-apple-system, BlinkMacSystemFont, 'Segoe UI', sans-serif">Unique cloners</text>

</svg>