<svg xmlns="http://www.w3.org/2000/svg" viewBox="0 0 820 280" width="820" height="280">

  <!-- title -->
  <text x="52" y="18" font-size="13" font-weight="600"
        fill="#24292f" font-family="-apple-system, BlinkMacSystemFont, 'Segoe UI', sans-serif"
        >Clone traffic — orthodox-calendar</text>
  <text x="800" y="18" font-size="10" fill="#8c959f"
        font-family="ui-monospace, SFMono-Regular, 'SF Mono', Menlo, monospace" text-anchor="end">2026-06-09</text>

  <!-- grid -->
  <line x1="52" y1="232.0" x2="800" y2="232.0" stroke="#e8e8e8" stroke-width="1"/><line x1="52" y1="184.9" x2="800" y2="184.9" stroke="#e8e8e8" stroke-width="1"/><line x1="52" y1="137.8" x2="800" y2="137.8" stroke="#e8e8e8" stroke-width="1"/><line x1="52" y1="90.7" x2="800" y2="90.7" stroke="#e8e8e8" stroke-width="1"/><line x1="52" y1="43.5" x2="800" y2="43.5" stroke="#e8e8e8" stroke-width="1"/><line x1="52" y1="-3.6" x2="800" y2="-3.6" stroke="#e8e8e8" stroke-width="1"/>

  <!-- area fill -->
  <path d="M52.0,226.8 L52.0,226.8 L79.7,169.6 L107.4,178.5 L135.1,28.0 L162.8,118.7 L190.5,163.5 L218.2,216.5 L245.9,76.5 L273.6,150.7 L301.3,213.2 L329.0,201.1 L356.7,194.8 L384.4,160.4 L412.1,208.0 L439.9,214.8 L467.6,217.4 L495.3,231.5 L523.0,231.5 L550.7,224.7 L578.4,213.9 L606.1,230.6 L633.8,231.3 L661.5,231.5 L689.2,232.0 L716.9,231.5 L744.6,231.1 L772.3,232.0 L800.0,230.8 L800.0,232.0 L52.0,232.0Z" fill="#4e79a7" opacity="0.12"/>

  <!-- lines -->
  <polyline points="52.0,226.8 79.7,169.6 107.4,178.5 135.1,28.0 162.8,118.7 190.5,163.5 218.2,216.5 245.9,76.5 273.6,150.7 301.3,213.2 329.0,201.1 356.7,194.8 384.4,160.4 412.1,208.0 439.9,214.8 467.6,217.4 495.3,231.5 523.0,231.5 550.7,224.7 578.4,213.9 606.1,230.6 633.8,231.3 661.5,231.5 689.2,232.0 716.9,231.5 744.6,231.1 772.3,232.0 800.0,230.8"
            fill="none" stroke="#4e79a7"
            stroke-width="2" stroke-linejoin="round"/>
  <polyline points="52.0,229.4 79.7,202.8 107.4,209.6 135.1,170.0 162.8,193.1 190.5,207.5 218.2,224.9 245.9,188.4 273.6,208.2 301.3,224.9 329.0,223.8 356.7,222.3 384.4,212.7 412.1,225.2 439.9,229.4 467.6,228.2 495.3,231.5 523.0,231.5 550.7,229.4 578.4,226.8 606.1,230.8 633.8,231.5 661.5,231.8 689.2,232.0 716.9,231.8 744.6,231.3 772.3,232.0 800.0,231.3"
            fill="none" stroke="#f28e2b"
            stroke-width="2" stroke-linejoin="round"
            stroke-dasharray="5,3"/>

  <!-- dots -->
  <circle cx="52.0" cy="226.8" r="3" fill="#4e79a7"/><circle cx="79.7" cy="169.6" r="3" fill="#4e79a7"/><circle cx="107.4" cy="178.5" r="3" fill="#4e79a7"/><circle cx="135.1" cy="28.0" r="3" fill="#4e79a7"/><circle cx="162.8" cy="118.7" r="3" fill="#4e79a7"/><circle cx="190.5" cy="163.5" r="3" fill="#4e79a7"/><circle cx="218.2" cy="216.5" r="3" fill="#4e79a7"/><circle cx="245.9" cy="76.5" r="3" fill="#4e79a7"/><circle cx="273.6" cy="150.7" r="3" fill="#4e79a7"/><circle cx="301.3" cy="213.2" r="3" fill="#4e79a7"/><circle cx="329.0" cy="201.1" r="3" fill="#4e79a7"/><circle cx="356.7" cy="194.8" r="3" fill="#4e79a7"/><circle cx="384.4" cy="160.4" r="3" fill="#4e79a7"/><circle cx="412.1" cy="208.0" r="3" fill="#4e79a7"/><circle cx="439.9" cy="214.8" r="3" fill="#4e79a7"/><circle cx="467.6" cy="217.4" r="3" fill="#4e79a7"/><circle cx="495.3" cy="231.5" r="3" fill="#4e79a7"/><circle cx="523.0" cy="231.5" r="3" fill="#4e79a7"/><circle cx="550.7" cy="224.7" r="3" fill="#4e79a7"/><circle cx="578.4" cy="213.9" r="3" fill="#4e79a7"/><circle cx="606.1" cy="230.6" r="3" fill="#4e79a7"/><circle cx="633.8" cy="231.3" r="3" fill="#4e79a7"/><circle cx="661.5" cy="231.5" r="3" fill="#4e79a7"/><circle cx="689.2" cy="232.0" r="3" fill="#4e79a7"/><circle cx="716.9" cy="231.5" r="3" fill="#4e79a7"/><circle cx="744.6" cy="231.1" r="3" fill="#4e79a7"/><circle cx="772.3" cy="232.0" r="3" fill="#4e79a7"/><circle cx="800.0" cy="230.8" r="3" fill="#4e79a7"/>
  <circle cx="52.0" cy="229.4" r="3" fill="#f28e2b"/><circle cx="79.7" cy="202.8" r="3" fill="#f28e2b"/><circle cx="107.4" cy="209.6" r="3" fill="#f28e2b"/><circle cx="135.1" cy="170.0" r="3" fill="#f28e2b"/><circle cx="162.8" cy="193.1" r="3" fill="#f28e2b"/><circle cx="190.5" cy="207.5" r="3" fill="#f28e2b"/><circle cx="218.2" cy="224.9" r="3" fill="#f28e2b"/><circle cx="245.9" cy="188.4" r="3" fill="#f28e2b"/><circle cx="273.6" cy="208.2" r="3" fill="#f28e2b"/><circle cx="301.3" cy="224.9" r="3" fill="#f28e2b"/><circle cx="329.0" cy="223.8" r="3" fill="#f28e2b"/><circle cx="356.7" cy="222.3" r="3" fill="#f28e2b"/><circle cx="384.4" cy="212.7" r="3" fill="#f28e2b"/><circle cx="412.1" cy="225.2" r="3" fill="#f28e2b"/><circle cx="439.9" cy="229.4" r="3" fill="#f28e2b"/><circle cx="467.6" cy="228.2" r="3" fill="#f28e2b"/><circle cx="495.3" cy="231.5" r="3" fill="#f28e2b"/><circle cx="523.0" cy="231.5" r="3" fill="#f28e2b"/><circle cx="550.7" cy="229.4" r="3" fill="#f28e2b"/><circle cx="578.4" cy="226.8" r="3" fill="#f28e2b"/><circle cx="606.1" cy="230.8" r="3" fill="#f28e2b"/><circle cx="633.8" cy="231.5" r="3" fill="#f28e2b"/><circle cx="661.5" cy="231.8" r="3" fill="#f28e2b"/><circle cx="689.2" cy="232.0" r="3" fill="#f28e2b"/><circle cx="716.9" cy="231.8" r="3" fill="#f28e2b"/><circle cx="744.6" cy="231.3" r="3" fill="#f28e2b"/><circle cx="772.3" cy="232.0" r="3" fill="#f28e2b"/><circle cx="800.0" cy="231.3" r="3" fill="#f28e2b"/>

  <!-- axes -->
  <line x1="52" y1="28" x2="52" y2="232"
        stroke="#cccccc" stroke-width="1"/>
  <line x1="52" y1="232" x2="800" y2="232"
        stroke="#cccccc" stroke-width="1"/>

  <!-- y-axis labels -->
  <text x="47" y="236.0" text-anchor="end" font-size="10" fill="#57606a" font-family="ui-monospace, SFMono-Regular, 'SF Mono', Menlo, monospace">0</text><text x="47" y="188.9" text-anchor="end" font-size="10" fill="#57606a" font-family="ui-monospace, SFMono-Regular, 'SF Mono', Menlo, monospace">200</text><text x="47" y="141.8" text-anchor="end" font-size="10" fill="#57606a" font-family="ui-monospace, SFMono-Regular, 'SF Mono', Menlo, monospace">400</text><text x="47" y="94.7" text-anchor="end" font-size="10" fill="#57606a" font-family="ui-monospace, SFMono-Regular, 'SF Mono', Menlo, monospace">600</text><text x="47" y="47.5" text-anchor="end" font-size="10" fill="#57606a" font-family="ui-monospace, SFMono-Regular, 'SF Mono', Menlo, monospace">800</text><text x="47" y="0.4" text-anchor="end" font-size="10" fill="#57606a" font-family="ui-monospace, SFMono-Regular, 'SF Mono', Menlo, monospace">1,000</text>

  <!-- x-axis labels -->
  <text x="52.0" y="248" text-anchor="middle" font-size="10" fill="#8c959f" font-family="ui-monospace, SFMono-Regular, 'SF Mono', Menlo, monospace">05-11</text><text x="135.1" y="248" text-anchor="middle" font-size="10" fill="#8c959f" font-family="ui-monospace, SFMono-Regular, 'SF Mono', Menlo, monospace">05-14</text><text x="218.2" y="248" text-anchor="middle" font-size="10" fill="#8c959f" font-family="ui-monospace, SFMono-Regular, 'SF Mono', Menlo, monospace">05-17</text><text x="301.3" y="248" text-anchor="middle" font-size="10" fill="#8c959f" font-family="ui-monospace, SFMono-Regular, 'SF Mono', Menlo, monospace">05-20</text><text x="384.4" y="248" text-anchor="middle" font-size="10" fill="#8c959f" font-family="ui-monospace, SFMono-Regular, 'SF Mono', Menlo, monospace">05-23</text><text x="467.6" y="248" text-anchor="middle" font-size="10" fill="#8c959f" font-family="ui-monospace, SFMono-Regular, 'SF Mono', Menlo, monospace">05-26</text><text x="550.7" y="248" text-anchor="middle" font-size="10" fill="#8c959f" font-family="ui-monospace, SFMono-Regular, 'SF Mono', Menlo, monospace">05-29</text><text x="633.8" y="248" text-anchor="middle" font-size="10" fill="#8c959f" font-family="ui-monospace, SFMono-Regular, 'SF Mono', Menlo, monospace">06-01</text><text x="716.9" y="248" text-anchor="middle" font-size="10" fill="#8c959f" font-family="ui-monospace, SFMono-Regular, 'SF Mono', Menlo, monospace">06-04</text><text x="800.0" y="248" text-anchor="middle" font-size="10" fill="#8c959f" font-family="ui-monospace, SFMono-Regular, 'SF Mono', Menlo, monospace">06-07</text>

  <!-- legend -->
  <rect x="60" y="262" width="16" height="3" fill="#4e79a7" rx="1"/><text x="80" y="268" font-size="11" fill="#57606a" font-family="-apple-system, BlinkMacSystemFont, 'Segoe UI', sans-serif">Total clones (4,267)</text><line x1="230" y1="264" x2="246" y2="264" stroke="#f28e2b" stroke-width="2" stroke-dasharray="5,3"/><text x="250" y="268" font-size="11" fill="#57606a" font-family="-apple-system, BlinkMacSystemFont, 'Segoe UI', sans-serif">Unique cloners</text>

</svg>