<svg xmlns="http://www.w3.org/2000/svg" viewBox="0 0 820 280" width="820" height="280">

  <!-- title -->
  <text x="52" y="18" font-size="13" font-weight="600"
        fill="#24292f" font-family="-apple-system, BlinkMacSystemFont, 'Segoe UI', sans-serif"
        >Clone traffic — orthodox-calendar</text>
  <text x="800" y="18" font-size="10" fill="#8c959f"
        font-family="ui-monospace, SFMono-Regular, 'SF Mono', Menlo, monospace" text-anchor="end">2026-07-16</text>

  <!-- grid -->
  <line x1="52" y1="232.0" x2="800" y2="232.0" stroke="#e8e8e8" stroke-width="1"/><line x1="52" y1="184.9" x2="800" y2="184.9" stroke="#e8e8e8" stroke-width="1"/><line x1="52" y1="137.8" x2="800" y2="137.8" stroke="#e8e8e8" stroke-width="1"/><line x1="52" y1="90.7" x2="800" y2="90.7" stroke="#e8e8e8" stroke-width="1"/><line x1="52" y1="43.5" x2="800" y2="43.5" stroke="#e8e8e8" stroke-width="1"/><line x1="52" y1="-3.6" x2="800" y2="-3.6" stroke="#e8e8e8" stroke-width="1"/>

  <!-- area fill -->
  <path d="M52.0,226.8 L52.0,226.8 L63.7,169.6 L75.4,178.5 L87.1,28.0 L98.8,118.7 L110.4,163.5 L122.1,216.5 L133.8,76.5 L145.5,150.7 L157.2,213.2 L168.9,201.1 L180.6,194.8 L192.2,160.4 L203.9,208.0 L215.6,214.8 L227.3,217.4 L239.0,231.5 L250.7,231.5 L262.4,224.7 L274.1,213.9 L285.8,230.6 L297.4,231.3 L309.1,231.5 L320.8,232.0 L332.5,231.5 L344.2,231.1 L355.9,232.0 L367.6,230.8 L379.2,232.0 L390.9,212.2 L402.6,231.5 L414.3,229.6 L426.0,226.1 L437.7,229.2 L449.4,231.5 L461.1,231.8 L472.8,228.5 L484.4,231.8 L496.1,230.8 L507.8,212.7 L519.5,130.5 L531.2,231.1 L542.9,231.8 L554.6,231.3 L566.2,231.3 L577.9,232.0 L589.6,231.5 L601.3,232.0 L613.0,231.5 L624.7,231.8 L636.4,231.3 L648.1,231.5 L659.8,232.0 L671.4,232.0 L683.1,231.8 L694.8,232.0 L706.5,232.0 L718.2,232.0 L729.9,232.0 L741.6,231.8 L753.2,231.3 L764.9,232.0 L776.6,232.0 L788.3,231.5 L800.0,232.0 L800.0,232.0 L52.0,232.0Z" fill="#4e79a7" opacity="0.12"/>

  <!-- lines -->
  <polyline points="52.0,226.8 63.7,169.6 75.4,178.5 87.1,28.0 98.8,118.7 110.4,163.5 122.1,216.5 133.8,76.5 145.5,150.7 157.2,213.2 168.9,201.1 180.6,194.8 192.2,160.4 203.9,208.0 215.6,214.8 227.3,217.4 239.0,231.5 250.7,231.5 262.4,224.7 274.1,213.9 285.8,230.6 297.4,231.3 309.1,231.5 320.8,232.0 332.5,231.5 344.2,231.1 355.9,232.0 367.6,230.8 379.2,232.0 390.9,212.2 402.6,231.5 414.3,229.6 426.0,226.1 437.7,229.2 449.4,231.5 461.1,231.8 472.8,228.5 484.4,231.8 496.1,230.8 507.8,212.7 519.5,130.5 531.2,231.1 542.9,231.8 554.6,231.3 566.2,231.3 577.9,232.0 589.6,231.5 601.3,232.0 613.0,231.5 624.7,231.8 636.4,231.3 648.1,231.5 659.8,232.0 671.4,232.0 683.1,231.8 694.8,232.0 706.5,232.0 718.2,232.0 729.9,232.0 741.6,231.8 753.2,231.3 764.9,232.0 776.6,232.0 788.3,231.5 800.0,232.0"
            fill="none" stroke="#4e79a7"
            stroke-width="2" stroke-linejoin="round"/>
  <polyline points="52.0,229.4 63.7,202.8 75.4,209.6 87.1,170.0 98.8,193.1 110.4,207.5 122.1,224.9 133.8,188.4 145.5,208.2 157.2,224.9 168.9,223.8 180.6,222.3 192.2,212.7 203.9,225.2 215.6,229.4 227.3,228.2 239.0,231.5 250.7,231.5 262.4,229.4 274.1,226.8 285.8,230.8 297.4,231.5 309.1,231.8 320.8,232.0 332.5,231.8 344.2,231.3 355.9,232.0 367.6,231.3 379.2,232.0 390.9,226.1 402.6,231.5 414.3,230.6 426.0,228.7 437.7,231.1 449.4,231.5 461.1,231.8 472.8,230.6 484.4,231.8 496.1,231.5 507.8,226.8 519.5,217.2 531.2,231.3 542.9,231.8 554.6,231.5 566.2,231.5 577.9,232.0 589.6,231.8 601.3,232.0 613.0,231.8 624.7,231.8 636.4,231.5 648.1,231.8 659.8,232.0 671.4,232.0 683.1,231.8 694.8,232.0 706.5,232.0 718.2,232.0 729.9,232.0 741.6,231.8 753.2,231.5 764.9,232.0 776.6,232.0 788.3,231.8 800.0,232.0"
            fill="none" stroke="#f28e2b"
            stroke-width="2" stroke-linejoin="round"
            stroke-dasharray="5,3"/>

  <!-- dots -->
  <circle cx="52.0" cy="226.8" r="3" fill="#4e79a7"/><circle cx="63.7" cy="169.6" r="3" fill="#4e79a7"/><circle cx="75.4" cy="178.5" r="3" fill="#4e79a7"/><circle cx="87.1" cy="28.0" r="3" fill="#4e79a7"/><circle cx="98.8" cy="118.7" r="3" fill="#4e79a7"/><circle cx="110.4" cy="163.5" r="3" fill="#4e79a7"/><circle cx="122.1" cy="216.5" r="3" fill="#4e79a7"/><circle cx="133.8" cy="76.5" r="3" fill="#4e79a7"/><circle cx="145.5" cy="150.7" r="3" fill="#4e79a7"/><circle cx="157.2" cy="213.2" r="3" fill="#4e79a7"/><circle cx="168.9" cy="201.1" r="3" fill="#4e79a7"/><circle cx="180.6" cy="194.8" r="3" fill="#4e79a7"/><circle cx="192.2" cy="160.4" r="3" fill="#4e79a7"/><circle cx="203.9" cy="208.0" r="3" fill="#4e79a7"/><circle cx="215.6" cy="214.8" r="3" fill="#4e79a7"/><circle cx="227.3" cy="217.4" r="3" fill="#4e79a7"/><circle cx="239.0" cy="231.5" r="3" fill="#4e79a7"/><circle cx="250.7" cy="231.5" r="3" fill="#4e79a7"/><circle cx="262.4" cy="224.7" r="3" fill="#4e79a7"/><circle cx="274.1" cy="213.9" r="3" fill="#4e79a7"/><circle cx="285.8" cy="230.6" r="3" fill="#4e79a7"/><circle cx="297.4" cy="231.3" r="3" fill="#4e79a7"/><circle cx="309.1" cy="231.5" r="3" fill="#4e79a7"/><circle cx="320.8" cy="232.0" r="3" fill="#4e79a7"/><circle cx="332.5" cy="231.5" r="3" fill="#4e79a7"/><circle cx="344.2" cy="231.1" r="3" fill="#4e79a7"/><circle cx="355.9" cy="232.0" r="3" fill="#4e79a7"/><circle cx="367.6" cy="230.8" r="3" fill="#4e79a7"/><circle cx="379.2" cy="232.0" r="3" fill="#4e79a7"/><circle cx="390.9" cy="212.2" r="3" fill="#4e79a7"/><circle cx="402.6" cy="231.5" r="3" fill="#4e79a7"/><circle cx="414.3" cy="229.6" r="3" fill="#4e79a7"/><circle cx="426.0" cy="226.1" r="3" fill="#4e79a7"/><circle cx="437.7" cy="229.2" r="3" fill="#4e79a7"/><circle cx="449.4" cy="231.5" r="3" fill="#4e79a7"/><circle cx="461.1" cy="231.8" r="3" fill="#4e79a7"/><circle cx="472.8" cy="228.5" r="3" fill="#4e79a7"/><circle cx="484.4" cy="231.8" r="3" fill="#4e79a7"/><circle cx="496.1" cy="230.8" r="3" fill="#4e79a7"/><circle cx="507.8" cy="212.7" r="3" fill="#4e79a7"/><circle cx="519.5" cy="130.5" r="3" fill="#4e79a7"/><circle cx="531.2" cy="231.1" r="3" fill="#4e79a7"/><circle cx="542.9" cy="231.8" r="3" fill="#4e79a7"/><circle cx="554.6" cy="231.3" r="3" fill="#4e79a7"/><circle cx="566.2" cy="231.3" r="3" fill="#4e79a7"/><circle cx="577.9" cy="232.0" r="3" fill="#4e79a7"/><circle cx="589.6" cy="231.5" r="3" fill="#4e79a7"/><circle cx="601.3" cy="232.0" r="3" fill="#4e79a7"/><circle cx="613.0" cy="231.5" r="3" fill="#4e79a7"/><circle cx="624.7" cy="231.8" r="3" fill="#4e79a7"/><circle cx="636.4" cy="231.3" r="3" fill="#4e79a7"/><circle cx="648.1" cy="231.5" r="3" fill="#4e79a7"/><circle cx="659.8" cy="232.0" r="3" fill="#4e79a7"/><circle cx="671.4" cy="232.0" r="3" fill="#4e79a7"/><circle cx="683.1" cy="231.8" r="3" fill="#4e79a7"/><circle cx="694.8" cy="232.0" r="3" fill="#4e79a7"/><circle cx="706.5" cy="232.0" r="3" fill="#4e79a7"/><circle cx="718.2" cy="232.0" r="3" fill="#4e79a7"/><circle cx="729.9" cy="232.0" r="3" fill="#4e79a7"/><circle cx="741.6" cy="231.8" r="3" fill="#4e79a7"/><circle cx="753.2" cy="231.3" r="3" fill="#4e79a7"/><circle cx="764.9" cy="232.0" r="3" fill="#4e79a7"/><circle cx="776.6" cy="232.0" r="3" fill="#4e79a7"/><circle cx="788.3" cy="231.5" r="3" fill="#4e79a7"/><circle cx="800.0" cy="232.0" r="3" fill="#4e79a7"/>
  <circle cx="52.0" cy="229.4" r="3" fill="#f28e2b"/><circle cx="63.7" cy="202.8" r="3" fill="#f28e2b"/><circle cx="75.4" cy="209.6" r="3" fill="#f28e2b"/><circle cx="87.1" cy="170.0" r="3" fill="#f28e2b"/><circle cx="98.8" cy="193.1" r="3" fill="#f28e2b"/><circle cx="110.4" cy="207.5" r="3" fill="#f28e2b"/><circle cx="122.1" cy="224.9" r="3" fill="#f28e2b"/><circle cx="133.8" cy="188.4" r="3" fill="#f28e2b"/><circle cx="145.5" cy="208.2" r="3" fill="#f28e2b"/><circle cx="157.2" cy="224.9" r="3" fill="#f28e2b"/><circle cx="168.9" cy="223.8" r="3" fill="#f28e2b"/><circle cx="180.6" cy="222.3" r="3" fill="#f28e2b"/><circle cx="192.2" cy="212.7" r="3" fill="#f28e2b"/><circle cx="203.9" cy="225.2" r="3" fill="#f28e2b"/><circle cx="215.6" cy="229.4" r="3" fill="#f28e2b"/><circle cx="227.3" cy="228.2" r="3" fill="#f28e2b"/><circle cx="239.0" cy="231.5" r="3" fill="#f28e2b"/><circle cx="250.7" cy="231.5" r="3" fill="#f28e2b"/><circle cx="262.4" cy="229.4" r="3" fill="#f28e2b"/><circle cx="274.1" cy="226.8" r="3" fill="#f28e2b"/><circle cx="285.8" cy="230.8" r="3" fill="#f28e2b"/><circle cx="297.4" cy="231.5" r="3" fill="#f28e2b"/><circle cx="309.1" cy="231.8" r="3" fill="#f28e2b"/><circle cx="320.8" cy="232.0" r="3" fill="#f28e2b"/><circle cx="332.5" cy="231.8" r="3" fill="#f28e2b"/><circle cx="344.2" cy="231.3" r="3" fill="#f28e2b"/><circle cx="355.9" cy="232.0" r="3" fill="#f28e2b"/><circle cx="367.6" cy="231.3" r="3" fill="#f28e2b"/><circle cx="379.2" cy="232.0" r="3" fill="#f28e2b"/><circle cx="390.9" cy="226.1" r="3" fill="#f28e2b"/><circle cx="402.6" cy="231.5" r="3" fill="#f28e2b"/><circle cx="414.3" cy="230.6" r="3" fill="#f28e2b"/><circle cx="426.0" cy="228.7" r="3" fill="#f28e2b"/><circle cx="437.7" cy="231.1" r="3" fill="#f28e2b"/><circle cx="449.4" cy="231.5" r="3" fill="#f28e2b"/><circle cx="461.1" cy="231.8" r="3" fill="#f28e2b"/><circle cx="472.8" cy="230.6" r="3" fill="#f28e2b"/><circle cx="484.4" cy="231.8" r="3" fill="#f28e2b"/><circle cx="496.1" cy="231.5" r="3" fill="#f28e2b"/><circle cx="507.8" cy="226.8" r="3" fill="#f28e2b"/><circle cx="519.5" cy="217.2" r="3" fill="#f28e2b"/><circle cx="531.2" cy="231.3" r="3" fill="#f28e2b"/><circle cx="542.9" cy="231.8" r="3" fill="#f28e2b"/><circle cx="554.6" cy="231.5" r="3" fill="#f28e2b"/><circle cx="566.2" cy="231.5" r="3" fill="#f28e2b"/><circle cx="577.9" cy="232.0" r="3" fill="#f28e2b"/><circle cx="589.6" cy="231.8" r="3" fill="#f28e2b"/><circle cx="601.3" cy="232.0" r="3" fill="#f28e2b"/><circle cx="613.0" cy="231.8" r="3" fill="#f28e2b"/><circle cx="624.7" cy="231.8" r="3" fill="#f28e2b"/><circle cx="636.4" cy="231.5" r="3" fill="#f28e2b"/><circle cx="648.1" cy="231.8" r="3" fill="#f28e2b"/><circle cx="659.8" cy="232.0" r="3" fill="#f28e2b"/><circle cx="671.4" cy="232.0" r="3" fill="#f28e2b"/><circle cx="683.1" cy="231.8" r="3" fill="#f28e2b"/><circle cx="694.8" cy="232.0" r="3" fill="#f28e2b"/><circle cx="706.5" cy="232.0" r="3" fill="#f28e2b"/><circle cx="718.2" cy="232.0" r="3" fill="#f28e2b"/><circle cx="729.9" cy="232.0" r="3" fill="#f28e2b"/><circle cx="741.6" cy="231.8" r="3" fill="#f28e2b"/><circle cx="753.2" cy="231.5" r="3" fill="#f28e2b"/><circle cx="764.9" cy="232.0" r="3" fill="#f28e2b"/><circle cx="776.6" cy="232.0" r="3" fill="#f28e2b"/><circle cx="788.3" cy="231.8" r="3" fill="#f28e2b"/><circle cx="800.0" cy="232.0" r="3" fill="#f28e2b"/>

  <!-- axes -->
  <line x1="52" y1="28" x2="52" y2="232"
        stroke="#cccccc" stroke-width="1"/>
  <line x1="52" y1="232" x2="800" y2="232"
        stroke="#cccccc" stroke-width="1"/>

  <!-- y-axis labels -->
  <text x="47" y="236.0" text-anchor="end" font-size="10" fill="#57606a" font-family="ui-monospace, SFMono-Regular, 'SF Mono', Menlo, monospace">0</text><text x="47" y="188.9" text-anchor="end" font-size="10" fill="#57606a" font-family="ui-monospace, SFMono-Regular, 'SF Mono', Menlo, monospace">200</text><text x="47" y="141.8" text-anchor="end" font-size="10" fill="#57606a" font-family="ui-monospace, SFMono-Regular, 'SF Mono', Menlo, monospace">400</text><text x="47" y="94.7" text-anchor="end" font-size="10" fill="#57606a" font-family="ui-monospace, SFMono-Regular, 'SF Mono', Menlo, monospace">600</text><text x="47" y="47.5" text-anchor="end" font-size="10" fill="#57606a" font-family="ui-monospace, SFMono-Regular, 'SF Mono', Menlo, monospace">800</text><text x="47" y="0.4" text-anchor="end" font-size="10" fill="#57606a" font-family="ui-monospace, SFMono-Regular, 'SF Mono', Menlo, monospace">1,000</text>

  <!-- x-axis labels -->
  <text x="52.0" y="248" text-anchor="middle" font-size="10" fill="#8c959f" font-family="ui-monospace, SFMono-Regular, 'SF Mono', Menlo, monospace">05-11</text><text x="426.0" y="248" text-anchor="middle" font-size="10" fill="#8c959f" font-family="ui-monospace, SFMono-Regular, 'SF Mono', Menlo, monospace">06-12</text><text x="800.0" y="248" text-anchor="middle" font-size="10" fill="#8c959f" font-family="ui-monospace, SFMono-Regular, 'SF Mono', Menlo, monospace">07-14</text><text x="145.5" y="248" text-anchor="middle" font-size="10" fill="#8c959f" font-family="ui-monospace, SFMono-Regular, 'SF Mono', Menlo, monospace">05-19</text><text x="519.5" y="248" text-anchor="middle" font-size="10" fill="#8c959f" font-family="ui-monospace, SFMono-Regular, 'SF Mono', Menlo, monospace">06-20</text><text x="239.0" y="248" text-anchor="middle" font-size="10" fill="#8c959f" font-family="ui-monospace, SFMono-Regular, 'SF Mono', Menlo, monospace">05-27</text><text x="613.0" y="248" text-anchor="middle" font-size="10" fill="#8c959f" font-family="ui-monospace, SFMono-Regular, 'SF Mono', Menlo, monospace">06-28</text><text x="332.5" y="248" text-anchor="middle" font-size="10" fill="#8c959f" font-family="ui-monospace, SFMono-Regular, 'SF Mono', Menlo, monospace">06-04</text><text x="706.5" y="248" text-anchor="middle" font-size="10" fill="#8c959f" font-family="ui-monospace, SFMono-Regular, 'SF Mono', Menlo, monospace">07-06</text>

  <!-- legend -->
  <rect x="60" y="262" width="16" height="3" fill="#4e79a7" rx="1"/><text x="80" y="268" font-size="11" fill="#57606a" font-family="-apple-system, BlinkMacSystemFont, 'Segoe UI', sans-serif">Total clones (4,965)</text><line x1="230" y1="264" x2="246" y2="264" stroke="#f28e2b" stroke-width="2" stroke-dasharray="5,3"/><text x="250" y="268" font-size="11" fill="#57606a" font-family="-apple-system, BlinkMacSystemFont, 'Segoe UI', sans-serif">Unique cloners</text>

</svg>