<svg xmlns="http://www.w3.org/2000/svg" viewBox="0 0 820 280" width="820" height="280">

  <!-- title -->
  <text x="52" y="18" font-size="13" font-weight="600"
        fill="#24292f" font-family="-apple-system, BlinkMacSystemFont, 'Segoe UI', sans-serif"
        >Clone traffic — orthodox-calendar</text>
  <text x="800" y="18" font-size="10" fill="#8c959f"
        font-family="ui-monospace, SFMono-Regular, 'SF Mono', Menlo, monospace" text-anchor="end">2026-07-01</text>

  <!-- grid -->
  <line x1="52" y1="232.0" x2="800" y2="232.0" stroke="#e8e8e8" stroke-width="1"/><line x1="52" y1="184.9" x2="800" y2="184.9" stroke="#e8e8e8" stroke-width="1"/><line x1="52" y1="137.8" x2="800" y2="137.8" stroke="#e8e8e8" stroke-width="1"/><line x1="52" y1="90.7" x2="800" y2="90.7" stroke="#e8e8e8" stroke-width="1"/><line x1="52" y1="43.5" x2="800" y2="43.5" stroke="#e8e8e8" stroke-width="1"/><line x1="52" y1="-3.6" x2="800" y2="-3.6" stroke="#e8e8e8" stroke-width="1"/>

  <!-- area fill -->
  <path d="M52.0,226.8 L52.0,226.8 L67.3,169.6 L82.5,178.5 L97.8,28.0 L113.1,118.7 L128.3,163.5 L143.6,216.5 L158.9,76.5 L174.1,150.7 L189.4,213.2 L204.7,201.1 L219.9,194.8 L235.2,160.4 L250.4,208.0 L265.7,214.8 L281.0,217.4 L296.2,231.5 L311.5,231.5 L326.8,224.7 L342.0,213.9 L357.3,230.6 L372.6,231.3 L387.8,231.5 L403.1,232.0 L418.4,231.5 L433.6,231.1 L448.9,232.0 L464.2,230.8 L479.4,232.0 L494.7,212.2 L510.0,231.5 L525.2,229.6 L540.5,226.1 L555.8,229.2 L571.0,231.5 L586.3,231.8 L601.6,228.5 L616.8,231.8 L632.1,230.8 L647.3,212.7 L662.6,130.5 L677.9,231.1 L693.1,231.8 L708.4,231.3 L723.7,231.3 L738.9,232.0 L754.2,231.5 L769.5,232.0 L784.7,231.5 L800.0,231.8 L800.0,232.0 L52.0,232.0Z" fill="#4e79a7" opacity="0.12"/>

  <!-- lines -->
  <polyline points="52.0,226.8 67.3,169.6 82.5,178.5 97.8,28.0 113.1,118.7 128.3,163.5 143.6,216.5 158.9,76.5 174.1,150.7 189.4,213.2 204.7,201.1 219.9,194.8 235.2,160.4 250.4,208.0 265.7,214.8 281.0,217.4 296.2,231.5 311.5,231.5 326.8,224.7 342.0,213.9 357.3,230.6 372.6,231.3 387.8,231.5 403.1,232.0 418.4,231.5 433.6,231.1 448.9,232.0 464.2,230.8 479.4,232.0 494.7,212.2 510.0,231.5 525.2,229.6 540.5,226.1 555.8,229.2 571.0,231.5 586.3,231.8 601.6,228.5 616.8,231.8 632.1,230.8 647.3,212.7 662.6,130.5 677.9,231.1 693.1,231.8 708.4,231.3 723.7,231.3 738.9,232.0 754.2,231.5 769.5,232.0 784.7,231.5 800.0,231.8"
            fill="none" stroke="#4e79a7"
            stroke-width="2" stroke-linejoin="round"/>
  <polyline points="52.0,229.4 67.3,202.8 82.5,209.6 97.8,170.0 113.1,193.1 128.3,207.5 143.6,224.9 158.9,188.4 174.1,208.2 189.4,224.9 204.7,223.8 219.9,222.3 235.2,212.7 250.4,225.2 265.7,229.4 281.0,228.2 296.2,231.5 311.5,231.5 326.8,229.4 342.0,226.8 357.3,230.8 372.6,231.5 387.8,231.8 403.1,232.0 418.4,231.8 433.6,231.3 448.9,232.0 464.2,231.3 479.4,232.0 494.7,226.1 510.0,231.5 525.2,230.6 540.5,228.7 555.8,231.1 571.0,231.5 586.3,231.8 601.6,230.6 616.8,231.8 632.1,231.5 647.3,226.8 662.6,217.2 677.9,231.3 693.1,231.8 708.4,231.5 723.7,231.5 738.9,232.0 754.2,231.8 769.5,232.0 784.7,231.8 800.0,231.8"
            fill="none" stroke="#f28e2b"
            stroke-width="2" stroke-linejoin="round"
            stroke-dasharray="5,3"/>

  <!-- dots -->
  <circle cx="52.0" cy="226.8" r="3" fill="#4e79a7"/><circle cx="67.3" cy="169.6" r="3" fill="#4e79a7"/><circle cx="82.5" cy="178.5" r="3" fill="#4e79a7"/><circle cx="97.8" cy="28.0" r="3" fill="#4e79a7"/><circle cx="113.1" cy="118.7" r="3" fill="#4e79a7"/><circle cx="128.3" cy="163.5" r="3" fill="#4e79a7"/><circle cx="143.6" cy="216.5" r="3" fill="#4e79a7"/><circle cx="158.9" cy="76.5" r="3" fill="#4e79a7"/><circle cx="174.1" cy="150.7" r="3" fill="#4e79a7"/><circle cx="189.4" cy="213.2" r="3" fill="#4e79a7"/><circle cx="204.7" cy="201.1" r="3" fill="#4e79a7"/><circle cx="219.9" cy="194.8" r="3" fill="#4e79a7"/><circle cx="235.2" cy="160.4" r="3" fill="#4e79a7"/><circle cx="250.4" cy="208.0" r="3" fill="#4e79a7"/><circle cx="265.7" cy="214.8" r="3" fill="#4e79a7"/><circle cx="281.0" cy="217.4" r="3" fill="#4e79a7"/><circle cx="296.2" cy="231.5" r="3" fill="#4e79a7"/><circle cx="311.5" cy="231.5" r="3" fill="#4e79a7"/><circle cx="326.8" cy="224.7" r="3" fill="#4e79a7"/><circle cx="342.0" cy="213.9" r="3" fill="#4e79a7"/><circle cx="357.3" cy="230.6" r="3" fill="#4e79a7"/><circle cx="372.6" cy="231.3" r="3" fill="#4e79a7"/><circle cx="387.8" cy="231.5" r="3" fill="#4e79a7"/><circle cx="403.1" cy="232.0" r="3" fill="#4e79a7"/><circle cx="418.4" cy="231.5" r="3" fill="#4e79a7"/><circle cx="433.6" cy="231.1" r="3" fill="#4e79a7"/><circle cx="448.9" cy="232.0" r="3" fill="#4e79a7"/><circle cx="464.2" cy="230.8" r="3" fill="#4e79a7"/><circle cx="479.4" cy="232.0" r="3" fill="#4e79a7"/><circle cx="494.7" cy="212.2" r="3" fill="#4e79a7"/><circle cx="510.0" cy="231.5" r="3" fill="#4e79a7"/><circle cx="525.2" cy="229.6" r="3" fill="#4e79a7"/><circle cx="540.5" cy="226.1" r="3" fill="#4e79a7"/><circle cx="555.8" cy="229.2" r="3" fill="#4e79a7"/><circle cx="571.0" cy="231.5" r="3" fill="#4e79a7"/><circle cx="586.3" cy="231.8" r="3" fill="#4e79a7"/><circle cx="601.6" cy="228.5" r="3" fill="#4e79a7"/><circle cx="616.8" cy="231.8" r="3" fill="#4e79a7"/><circle cx="632.1" cy="230.8" r="3" fill="#4e79a7"/><circle cx="647.3" cy="212.7" r="3" fill="#4e79a7"/><circle cx="662.6" cy="130.5" r="3" fill="#4e79a7"/><circle cx="677.9" cy="231.1" r="3" fill="#4e79a7"/><circle cx="693.1" cy="231.8" r="3" fill="#4e79a7"/><circle cx="708.4" cy="231.3" r="3" fill="#4e79a7"/><circle cx="723.7" cy="231.3" r="3" fill="#4e79a7"/><circle cx="738.9" cy="232.0" r="3" fill="#4e79a7"/><circle cx="754.2" cy="231.5" r="3" fill="#4e79a7"/><circle cx="769.5" cy="232.0" r="3" fill="#4e79a7"/><circle cx="784.7" cy="231.5" r="3" fill="#4e79a7"/><circle cx="800.0" cy="231.8" r="3" fill="#4e79a7"/>
  <circle cx="52.0" cy="229.4" r="3" fill="#f28e2b"/><circle cx="67.3" cy="202.8" r="3" fill="#f28e2b"/><circle cx="82.5" cy="209.6" r="3" fill="#f28e2b"/><circle cx="97.8" cy="170.0" r="3" fill="#f28e2b"/><circle cx="113.1" cy="193.1" r="3" fill="#f28e2b"/><circle cx="128.3" cy="207.5" r="3" fill="#f28e2b"/><circle cx="143.6" cy="224.9" r="3" fill="#f28e2b"/><circle cx="158.9" cy="188.4" r="3" fill="#f28e2b"/><circle cx="174.1" cy="208.2" r="3" fill="#f28e2b"/><circle cx="189.4" cy="224.9" r="3" fill="#f28e2b"/><circle cx="204.7" cy="223.8" r="3" fill="#f28e2b"/><circle cx="219.9" cy="222.3" r="3" fill="#f28e2b"/><circle cx="235.2" cy="212.7" r="3" fill="#f28e2b"/><circle cx="250.4" cy="225.2" r="3" fill="#f28e2b"/><circle cx="265.7" cy="229.4" r="3" fill="#f28e2b"/><circle cx="281.0" cy="228.2" r="3" fill="#f28e2b"/><circle cx="296.2" cy="231.5" r="3" fill="#f28e2b"/><circle cx="311.5" cy="231.5" r="3" fill="#f28e2b"/><circle cx="326.8" cy="229.4" r="3" fill="#f28e2b"/><circle cx="342.0" cy="226.8" r="3" fill="#f28e2b"/><circle cx="357.3" cy="230.8" r="3" fill="#f28e2b"/><circle cx="372.6" cy="231.5" r="3" fill="#f28e2b"/><circle cx="387.8" cy="231.8" r="3" fill="#f28e2b"/><circle cx="403.1" cy="232.0" r="3" fill="#f28e2b"/><circle cx="418.4" cy="231.8" r="3" fill="#f28e2b"/><circle cx="433.6" cy="231.3" r="3" fill="#f28e2b"/><circle cx="448.9" cy="232.0" r="3" fill="#f28e2b"/><circle cx="464.2" cy="231.3" r="3" fill="#f28e2b"/><circle cx="479.4" cy="232.0" r="3" fill="#f28e2b"/><circle cx="494.7" cy="226.1" r="3" fill="#f28e2b"/><circle cx="510.0" cy="231.5" r="3" fill="#f28e2b"/><circle cx="525.2" cy="230.6" r="3" fill="#f28e2b"/><circle cx="540.5" cy="228.7" r="3" fill="#f28e2b"/><circle cx="555.8" cy="231.1" r="3" fill="#f28e2b"/><circle cx="571.0" cy="231.5" r="3" fill="#f28e2b"/><circle cx="586.3" cy="231.8" r="3" fill="#f28e2b"/><circle cx="601.6" cy="230.6" r="3" fill="#f28e2b"/><circle cx="616.8" cy="231.8" r="3" fill="#f28e2b"/><circle cx="632.1" cy="231.5" r="3" fill="#f28e2b"/><circle cx="647.3" cy="226.8" r="3" fill="#f28e2b"/><circle cx="662.6" cy="217.2" r="3" fill="#f28e2b"/><circle cx="677.9" cy="231.3" r="3" fill="#f28e2b"/><circle cx="693.1" cy="231.8" r="3" fill="#f28e2b"/><circle cx="708.4" cy="231.5" r="3" fill="#f28e2b"/><circle cx="723.7" cy="231.5" r="3" fill="#f28e2b"/><circle cx="738.9" cy="232.0" r="3" fill="#f28e2b"/><circle cx="754.2" cy="231.8" r="3" fill="#f28e2b"/><circle cx="769.5" cy="232.0" r="3" fill="#f28e2b"/><circle cx="784.7" cy="231.8" r="3" fill="#f28e2b"/><circle cx="800.0" cy="231.8" r="3" fill="#f28e2b"/>

  <!-- axes -->
  <line x1="52" y1="28" x2="52" y2="232"
        stroke="#cccccc" stroke-width="1"/>
  <line x1="52" y1="232" x2="800" y2="232"
        stroke="#cccccc" stroke-width="1"/>

  <!-- y-axis labels -->
  <text x="47" y="236.0" text-anchor="end" font-size="10" fill="#57606a" font-family="ui-monospace, SFMono-Regular, 'SF Mono', Menlo, monospace">0</text><text x="47" y="188.9" text-anchor="end" font-size="10" fill="#57606a" font-family="ui-monospace, SFMono-Regular, 'SF Mono', Menlo, monospace">200</text><text x="47" y="141.8" text-anchor="end" font-size="10" fill="#57606a" font-family="ui-monospace, SFMono-Regular, 'SF Mono', Menlo, monospace">400</text><text x="47" y="94.7" text-anchor="end" font-size="10" fill="#57606a" font-family="ui-monospace, SFMono-Regular, 'SF Mono', Menlo, monospace">600</text><text x="47" y="47.5" text-anchor="end" font-size="10" fill="#57606a" font-family="ui-monospace, SFMono-Regular, 'SF Mono', Menlo, monospace">800</text><text x="47" y="0.4" text-anchor="end" font-size="10" fill="#57606a" font-family="ui-monospace, SFMono-Regular, 'SF Mono', Menlo, monospace">1,000</text>

  <!-- x-axis labels -->
  <text x="52.0" y="248" text-anchor="middle" font-size="10" fill="#8c959f" font-family="ui-monospace, SFMono-Regular, 'SF Mono', Menlo, monospace">05-11</text><text x="601.6" y="248" text-anchor="middle" font-size="10" fill="#8c959f" font-family="ui-monospace, SFMono-Regular, 'SF Mono', Menlo, monospace">06-16</text><text x="143.6" y="248" text-anchor="middle" font-size="10" fill="#8c959f" font-family="ui-monospace, SFMono-Regular, 'SF Mono', Menlo, monospace">05-17</text><text x="693.1" y="248" text-anchor="middle" font-size="10" fill="#8c959f" font-family="ui-monospace, SFMono-Regular, 'SF Mono', Menlo, monospace">06-22</text><text x="235.2" y="248" text-anchor="middle" font-size="10" fill="#8c959f" font-family="ui-monospace, SFMono-Regular, 'SF Mono', Menlo, monospace">05-23</text><text x="784.7" y="248" text-anchor="middle" font-size="10" fill="#8c959f" font-family="ui-monospace, SFMono-Regular, 'SF Mono', Menlo, monospace">06-28</text><text x="800.0" y="248" text-anchor="middle" font-size="10" fill="#8c959f" font-family="ui-monospace, SFMono-Regular, 'SF Mono', Menlo, monospace">06-29</text><text x="326.8" y="248" text-anchor="middle" font-size="10" fill="#8c959f" font-family="ui-monospace, SFMono-Regular, 'SF Mono', Menlo, monospace">05-29</text><text x="418.4" y="248" text-anchor="middle" font-size="10" fill="#8c959f" font-family="ui-monospace, SFMono-Regular, 'SF Mono', Menlo, monospace">06-04</text><text x="510.0" y="248" text-anchor="middle" font-size="10" fill="#8c959f" font-family="ui-monospace, SFMono-Regular, 'SF Mono', Menlo, monospace">06-10</text>

  <!-- legend -->
  <rect x="60" y="262" width="16" height="3" fill="#4e79a7" rx="1"/><text x="80" y="268" font-size="11" fill="#57606a" font-family="-apple-system, BlinkMacSystemFont, 'Segoe UI', sans-serif">Total clones (4,953)</text><line x1="230" y1="264" x2="246" y2="264" stroke="#f28e2b" stroke-width="2" stroke-dasharray="5,3"/><text x="250" y="268" font-size="11" fill="#57606a" font-family="-apple-system, BlinkMacSystemFont, 'Segoe UI', sans-serif">Unique cloners</text>

</svg>