<svg xmlns="http://www.w3.org/2000/svg" viewBox="0 0 820 280" width="820" height="280">

  <!-- title -->
  <text x="52" y="18" font-size="13" font-weight="600"
        fill="#24292f" font-family="-apple-system, BlinkMacSystemFont, 'Segoe UI', sans-serif"
        >Clone traffic — orthodox-calendar</text>
  <text x="800" y="18" font-size="10" fill="#8c959f"
        font-family="ui-monospace, SFMono-Regular, 'SF Mono', Menlo, monospace" text-anchor="end">2026-06-21</text>

  <!-- grid -->
  <line x1="52" y1="232.0" x2="800" y2="232.0" stroke="#e8e8e8" stroke-width="1"/><line x1="52" y1="184.9" x2="800" y2="184.9" stroke="#e8e8e8" stroke-width="1"/><line x1="52" y1="137.8" x2="800" y2="137.8" stroke="#e8e8e8" stroke-width="1"/><line x1="52" y1="90.7" x2="800" y2="90.7" stroke="#e8e8e8" stroke-width="1"/><line x1="52" y1="43.5" x2="800" y2="43.5" stroke="#e8e8e8" stroke-width="1"/><line x1="52" y1="-3.6" x2="800" y2="-3.6" stroke="#e8e8e8" stroke-width="1"/>

  <!-- area fill -->
  <path d="M52.0,226.8 L52.0,226.8 L71.2,169.6 L90.4,178.5 L109.5,28.0 L128.7,118.7 L147.9,163.5 L167.1,216.5 L186.3,76.5 L205.4,150.7 L224.6,213.2 L243.8,201.1 L263.0,194.8 L282.2,160.4 L301.3,208.0 L320.5,214.8 L339.7,217.4 L358.9,231.5 L378.1,231.5 L397.2,224.7 L416.4,213.9 L435.6,230.6 L454.8,231.3 L473.9,231.5 L493.1,232.0 L512.3,231.5 L531.5,231.1 L550.7,232.0 L569.8,230.8 L589.0,232.0 L608.2,212.2 L627.4,231.5 L646.6,229.6 L665.7,226.1 L684.9,229.2 L704.1,231.5 L723.3,231.8 L742.5,228.5 L761.6,231.8 L780.8,230.8 L800.0,212.7 L800.0,232.0 L52.0,232.0Z" fill="#4e79a7" opacity="0.12"/>

  <!-- lines -->
  <polyline points="52.0,226.8 71.2,169.6 90.4,178.5 109.5,28.0 128.7,118.7 147.9,163.5 167.1,216.5 186.3,76.5 205.4,150.7 224.6,213.2 243.8,201.1 263.0,194.8 282.2,160.4 301.3,208.0 320.5,214.8 339.7,217.4 358.9,231.5 378.1,231.5 397.2,224.7 416.4,213.9 435.6,230.6 454.8,231.3 473.9,231.5 493.1,232.0 512.3,231.5 531.5,231.1 550.7,232.0 569.8,230.8 589.0,232.0 608.2,212.2 627.4,231.5 646.6,229.6 665.7,226.1 684.9,229.2 704.1,231.5 723.3,231.8 742.5,228.5 761.6,231.8 780.8,230.8 800.0,212.7"
            fill="none" stroke="#4e79a7"
            stroke-width="2" stroke-linejoin="round"/>
  <polyline points="52.0,229.4 71.2,202.8 90.4,209.6 109.5,170.0 128.7,193.1 147.9,207.5 167.1,224.9 186.3,188.4 205.4,208.2 224.6,224.9 243.8,223.8 263.0,222.3 282.2,212.7 301.3,225.2 320.5,229.4 339.7,228.2 358.9,231.5 378.1,231.5 397.2,229.4 416.4,226.8 435.6,230.8 454.8,231.5 473.9,231.8 493.1,232.0 512.3,231.8 531.5,231.3 550.7,232.0 569.8,231.3 589.0,232.0 608.2,226.1 627.4,231.5 646.6,230.6 665.7,228.7 684.9,231.1 704.1,231.5 723.3,231.8 742.5,230.6 761.6,231.8 780.8,231.5 800.0,226.8"
            fill="none" stroke="#f28e2b"
            stroke-width="2" stroke-linejoin="round"
            stroke-dasharray="5,3"/>

  <!-- dots -->
  <circle cx="52.0" cy="226.8" r="3" fill="#4e79a7"/><circle cx="71.2" cy="169.6" r="3" fill="#4e79a7"/><circle cx="90.4" cy="178.5" r="3" fill="#4e79a7"/><circle cx="109.5" cy="28.0" r="3" fill="#4e79a7"/><circle cx="128.7" cy="118.7" r="3" fill="#4e79a7"/><circle cx="147.9" cy="163.5" r="3" fill="#4e79a7"/><circle cx="167.1" cy="216.5" r="3" fill="#4e79a7"/><circle cx="186.3" cy="76.5" r="3" fill="#4e79a7"/><circle cx="205.4" cy="150.7" r="3" fill="#4e79a7"/><circle cx="224.6" cy="213.2" r="3" fill="#4e79a7"/><circle cx="243.8" cy="201.1" r="3" fill="#4e79a7"/><circle cx="263.0" cy="194.8" r="3" fill="#4e79a7"/><circle cx="282.2" cy="160.4" r="3" fill="#4e79a7"/><circle cx="301.3" cy="208.0" r="3" fill="#4e79a7"/><circle cx="320.5" cy="214.8" r="3" fill="#4e79a7"/><circle cx="339.7" cy="217.4" r="3" fill="#4e79a7"/><circle cx="358.9" cy="231.5" r="3" fill="#4e79a7"/><circle cx="378.1" cy="231.5" r="3" fill="#4e79a7"/><circle cx="397.2" cy="224.7" r="3" fill="#4e79a7"/><circle cx="416.4" cy="213.9" r="3" fill="#4e79a7"/><circle cx="435.6" cy="230.6" r="3" fill="#4e79a7"/><circle cx="454.8" cy="231.3" r="3" fill="#4e79a7"/><circle cx="473.9" cy="231.5" r="3" fill="#4e79a7"/><circle cx="493.1" cy="232.0" r="3" fill="#4e79a7"/><circle cx="512.3" cy="231.5" r="3" fill="#4e79a7"/><circle cx="531.5" cy="231.1" r="3" fill="#4e79a7"/><circle cx="550.7" cy="232.0" r="3" fill="#4e79a7"/><circle cx="569.8" cy="230.8" r="3" fill="#4e79a7"/><circle cx="589.0" cy="232.0" r="3" fill="#4e79a7"/><circle cx="608.2" cy="212.2" r="3" fill="#4e79a7"/><circle cx="627.4" cy="231.5" r="3" fill="#4e79a7"/><circle cx="646.6" cy="229.6" r="3" fill="#4e79a7"/><circle cx="665.7" cy="226.1" r="3" fill="#4e79a7"/><circle cx="684.9" cy="229.2" r="3" fill="#4e79a7"/><circle cx="704.1" cy="231.5" r="3" fill="#4e79a7"/><circle cx="723.3" cy="231.8" r="3" fill="#4e79a7"/><circle cx="742.5" cy="228.5" r="3" fill="#4e79a7"/><circle cx="761.6" cy="231.8" r="3" fill="#4e79a7"/><circle cx="780.8" cy="230.8" r="3" fill="#4e79a7"/><circle cx="800.0" cy="212.7" r="3" fill="#4e79a7"/>
  <circle cx="52.0" cy="229.4" r="3" fill="#f28e2b"/><circle cx="71.2" cy="202.8" r="3" fill="#f28e2b"/><circle cx="90.4" cy="209.6" r="3" fill="#f28e2b"/><circle cx="109.5" cy="170.0" r="3" fill="#f28e2b"/><circle cx="128.7" cy="193.1" r="3" fill="#f28e2b"/><circle cx="147.9" cy="207.5" r="3" fill="#f28e2b"/><circle cx="167.1" cy="224.9" r="3" fill="#f28e2b"/><circle cx="186.3" cy="188.4" r="3" fill="#f28e2b"/><circle cx="205.4" cy="208.2" r="3" fill="#f28e2b"/><circle cx="224.6" cy="224.9" r="3" fill="#f28e2b"/><circle cx="243.8" cy="223.8" r="3" fill="#f28e2b"/><circle cx="263.0" cy="222.3" r="3" fill="#f28e2b"/><circle cx="282.2" cy="212.7" r="3" fill="#f28e2b"/><circle cx="301.3" cy="225.2" r="3" fill="#f28e2b"/><circle cx="320.5" cy="229.4" r="3" fill="#f28e2b"/><circle cx="339.7" cy="228.2" r="3" fill="#f28e2b"/><circle cx="358.9" cy="231.5" r="3" fill="#f28e2b"/><circle cx="378.1" cy="231.5" r="3" fill="#f28e2b"/><circle cx="397.2" cy="229.4" r="3" fill="#f28e2b"/><circle cx="416.4" cy="226.8" r="3" fill="#f28e2b"/><circle cx="435.6" cy="230.8" r="3" fill="#f28e2b"/><circle cx="454.8" cy="231.5" r="3" fill="#f28e2b"/><circle cx="473.9" cy="231.8" r="3" fill="#f28e2b"/><circle cx="493.1" cy="232.0" r="3" fill="#f28e2b"/><circle cx="512.3" cy="231.8" r="3" fill="#f28e2b"/><circle cx="531.5" cy="231.3" r="3" fill="#f28e2b"/><circle cx="550.7" cy="232.0" r="3" fill="#f28e2b"/><circle cx="569.8" cy="231.3" r="3" fill="#f28e2b"/><circle cx="589.0" cy="232.0" r="3" fill="#f28e2b"/><circle cx="608.2" cy="226.1" r="3" fill="#f28e2b"/><circle cx="627.4" cy="231.5" r="3" fill="#f28e2b"/><circle cx="646.6" cy="230.6" r="3" fill="#f28e2b"/><circle cx="665.7" cy="228.7" r="3" fill="#f28e2b"/><circle cx="684.9" cy="231.1" r="3" fill="#f28e2b"/><circle cx="704.1" cy="231.5" r="3" fill="#f28e2b"/><circle cx="723.3" cy="231.8" r="3" fill="#f28e2b"/><circle cx="742.5" cy="230.6" r="3" fill="#f28e2b"/><circle cx="761.6" cy="231.8" r="3" fill="#f28e2b"/><circle cx="780.8" cy="231.5" r="3" fill="#f28e2b"/><circle cx="800.0" cy="226.8" r="3" fill="#f28e2b"/>

  <!-- axes -->
  <line x1="52" y1="28" x2="52" y2="232"
        stroke="#cccccc" stroke-width="1"/>
  <line x1="52" y1="232" x2="800" y2="232"
        stroke="#cccccc" stroke-width="1"/>

  <!-- y-axis labels -->
  <text x="47" y="236.0" text-anchor="end" font-size="10" fill="#57606a" font-family="ui-monospace, SFMono-Regular, 'SF Mono', Menlo, monospace">0</text><text x="47" y="188.9" text-anchor="end" font-size="10" fill="#57606a" font-family="ui-monospace, SFMono-Regular, 'SF Mono', Menlo, monospace">200</text><text x="47" y="141.8" text-anchor="end" font-size="10" fill="#57606a" font-family="ui-monospace, SFMono-Regular, 'SF Mono', Menlo, monospace">400</text><text x="47" y="94.7" text-anchor="end" font-size="10" fill="#57606a" font-family="ui-monospace, SFMono-Regular, 'SF Mono', Menlo, monospace">600</text><text x="47" y="47.5" text-anchor="end" font-size="10" fill="#57606a" font-family="ui-monospace, SFMono-Regular, 'SF Mono', Menlo, monospace">800</text><text x="47" y="0.4" text-anchor="end" font-size="10" fill="#57606a" font-family="ui-monospace, SFMono-Regular, 'SF Mono', Menlo, monospace">1,000</text>

  <!-- x-axis labels -->
  <text x="52.0" y="248" text-anchor="middle" font-size="10" fill="#8c959f" font-family="ui-monospace, SFMono-Regular, 'SF Mono', Menlo, monospace">05-11</text><text x="723.3" y="248" text-anchor="middle" font-size="10" fill="#8c959f" font-family="ui-monospace, SFMono-Regular, 'SF Mono', Menlo, monospace">06-15</text><text x="147.9" y="248" text-anchor="middle" font-size="10" fill="#8c959f" font-family="ui-monospace, SFMono-Regular, 'SF Mono', Menlo, monospace">05-16</text><text x="800.0" y="248" text-anchor="middle" font-size="10" fill="#8c959f" font-family="ui-monospace, SFMono-Regular, 'SF Mono', Menlo, monospace">06-19</text><text x="243.8" y="248" text-anchor="middle" font-size="10" fill="#8c959f" font-family="ui-monospace, SFMono-Regular, 'SF Mono', Menlo, monospace">05-21</text><text x="339.7" y="248" text-anchor="middle" font-size="10" fill="#8c959f" font-family="ui-monospace, SFMono-Regular, 'SF Mono', Menlo, monospace">05-26</text><text x="435.6" y="248" text-anchor="middle" font-size="10" fill="#8c959f" font-family="ui-monospace, SFMono-Regular, 'SF Mono', Menlo, monospace">05-31</text><text x="531.5" y="248" text-anchor="middle" font-size="10" fill="#8c959f" font-family="ui-monospace, SFMono-Regular, 'SF Mono', Menlo, monospace">06-05</text><text x="627.4" y="248" text-anchor="middle" font-size="10" fill="#8c959f" font-family="ui-monospace, SFMono-Regular, 'SF Mono', Menlo, monospace">06-10</text>

  <!-- legend -->
  <rect x="60" y="262" width="16" height="3" fill="#4e79a7" rx="1"/><text x="80" y="268" font-size="11" fill="#57606a" font-family="-apple-system, BlinkMacSystemFont, 'Segoe UI', sans-serif">Total clones (4,506)</text><line x1="230" y1="264" x2="246" y2="264" stroke="#f28e2b" stroke-width="2" stroke-dasharray="5,3"/><text x="250" y="268" font-size="11" fill="#57606a" font-family="-apple-system, BlinkMacSystemFont, 'Segoe UI', sans-serif">Unique cloners</text>

</svg>