<svg xmlns="http://www.w3.org/2000/svg" viewBox="0 0 820 280" width="820" height="280">

  <!-- title -->
  <text x="52" y="18" font-size="13" font-weight="600"
        fill="#24292f" font-family="-apple-system, BlinkMacSystemFont, 'Segoe UI', sans-serif"
        >Clone traffic — orthodox-calendar</text>
  <text x="800" y="18" font-size="10" fill="#8c959f"
        font-family="ui-monospace, SFMono-Regular, 'SF Mono', Menlo, monospace" text-anchor="end">2026-07-21</text>

  <!-- grid -->
  <line x1="52" y1="232.0" x2="800" y2="232.0" stroke="#e8e8e8" stroke-width="1"/><line x1="52" y1="184.9" x2="800" y2="184.9" stroke="#e8e8e8" stroke-width="1"/><line x1="52" y1="137.8" x2="800" y2="137.8" stroke="#e8e8e8" stroke-width="1"/><line x1="52" y1="90.7" x2="800" y2="90.7" stroke="#e8e8e8" stroke-width="1"/><line x1="52" y1="43.5" x2="800" y2="43.5" stroke="#e8e8e8" stroke-width="1"/><line x1="52" y1="-3.6" x2="800" y2="-3.6" stroke="#e8e8e8" stroke-width="1"/>

  <!-- area fill -->
  <path d="M52.0,226.8 L52.0,226.8 L62.8,169.6 L73.7,178.5 L84.5,28.0 L95.4,118.7 L106.2,163.5 L117.0,216.5 L127.9,76.5 L138.7,150.7 L149.6,213.2 L160.4,201.1 L171.2,194.8 L182.1,160.4 L192.9,208.0 L203.8,214.8 L214.6,217.4 L225.4,231.5 L236.3,231.5 L247.1,224.7 L258.0,213.9 L268.8,230.6 L279.7,231.3 L290.5,231.5 L301.3,232.0 L312.2,231.5 L323.0,231.1 L333.9,232.0 L344.7,230.8 L355.5,232.0 L366.4,212.2 L377.2,231.5 L388.1,229.6 L398.9,226.1 L409.7,229.2 L420.6,231.5 L431.4,231.8 L442.3,228.5 L453.1,231.8 L463.9,230.8 L474.8,212.7 L485.6,130.5 L496.5,231.1 L507.3,231.8 L518.1,231.3 L529.0,231.3 L539.8,232.0 L550.7,231.5 L561.5,232.0 L572.3,231.5 L583.2,231.8 L594.0,231.3 L604.9,231.5 L615.7,232.0 L626.6,232.0 L637.4,231.8 L648.2,232.0 L659.1,232.0 L669.9,232.0 L680.8,232.0 L691.6,231.8 L702.4,231.3 L713.3,232.0 L724.1,232.0 L735.0,231.5 L745.8,232.0 L756.6,232.0 L767.5,231.5 L778.3,231.8 L789.2,226.1 L800.0,232.0 L800.0,232.0 L52.0,232.0Z" fill="#4e79a7" opacity="0.12"/>

  <!-- lines -->
  <polyline points="52.0,226.8 62.8,169.6 73.7,178.5 84.5,28.0 95.4,118.7 106.2,163.5 117.0,216.5 127.9,76.5 138.7,150.7 149.6,213.2 160.4,201.1 171.2,194.8 182.1,160.4 192.9,208.0 203.8,214.8 214.6,217.4 225.4,231.5 236.3,231.5 247.1,224.7 258.0,213.9 268.8,230.6 279.7,231.3 290.5,231.5 301.3,232.0 312.2,231.5 323.0,231.1 333.9,232.0 344.7,230.8 355.5,232.0 366.4,212.2 377.2,231.5 388.1,229.6 398.9,226.1 409.7,229.2 420.6,231.5 431.4,231.8 442.3,228.5 453.1,231.8 463.9,230.8 474.8,212.7 485.6,130.5 496.5,231.1 507.3,231.8 518.1,231.3 529.0,231.3 539.8,232.0 550.7,231.5 561.5,232.0 572.3,231.5 583.2,231.8 594.0,231.3 604.9,231.5 615.7,232.0 626.6,232.0 637.4,231.8 648.2,232.0 659.1,232.0 669.9,232.0 680.8,232.0 691.6,231.8 702.4,231.3 713.3,232.0 724.1,232.0 735.0,231.5 745.8,232.0 756.6,232.0 767.5,231.5 778.3,231.8 789.2,226.1 800.0,232.0"
            fill="none" stroke="#4e79a7"
            stroke-width="2" stroke-linejoin="round"/>
  <polyline points="52.0,229.4 62.8,202.8 73.7,209.6 84.5,170.0 95.4,193.1 106.2,207.5 117.0,224.9 127.9,188.4 138.7,208.2 149.6,224.9 160.4,223.8 171.2,222.3 182.1,212.7 192.9,225.2 203.8,229.4 214.6,228.2 225.4,231.5 236.3,231.5 247.1,229.4 258.0,226.8 268.8,230.8 279.7,231.5 290.5,231.8 301.3,232.0 312.2,231.8 323.0,231.3 333.9,232.0 344.7,231.3 355.5,232.0 366.4,226.1 377.2,231.5 388.1,230.6 398.9,228.7 409.7,231.1 420.6,231.5 431.4,231.8 442.3,230.6 453.1,231.8 463.9,231.5 474.8,226.8 485.6,217.2 496.5,231.3 507.3,231.8 518.1,231.5 529.0,231.5 539.8,232.0 550.7,231.8 561.5,232.0 572.3,231.8 583.2,231.8 594.0,231.5 604.9,231.8 615.7,232.0 626.6,232.0 637.4,231.8 648.2,232.0 659.1,232.0 669.9,232.0 680.8,232.0 691.6,231.8 702.4,231.5 713.3,232.0 724.1,232.0 735.0,231.8 745.8,232.0 756.6,232.0 767.5,231.5 778.3,231.8 789.2,231.3 800.0,232.0"
            fill="none" stroke="#f28e2b"
            stroke-width="2" stroke-linejoin="round"
            stroke-dasharray="5,3"/>

  <!-- dots -->
  <circle cx="52.0" cy="226.8" r="3" fill="#4e79a7"/><circle cx="62.8" cy="169.6" r="3" fill="#4e79a7"/><circle cx="73.7" cy="178.5" r="3" fill="#4e79a7"/><circle cx="84.5" cy="28.0" r="3" fill="#4e79a7"/><circle cx="95.4" cy="118.7" r="3" fill="#4e79a7"/><circle cx="106.2" cy="163.5" r="3" fill="#4e79a7"/><circle cx="117.0" cy="216.5" r="3" fill="#4e79a7"/><circle cx="127.9" cy="76.5" r="3" fill="#4e79a7"/><circle cx="138.7" cy="150.7" r="3" fill="#4e79a7"/><circle cx="149.6" cy="213.2" r="3" fill="#4e79a7"/><circle cx="160.4" cy="201.1" r="3" fill="#4e79a7"/><circle cx="171.2" cy="194.8" r="3" fill="#4e79a7"/><circle cx="182.1" cy="160.4" r="3" fill="#4e79a7"/><circle cx="192.9" cy="208.0" r="3" fill="#4e79a7"/><circle cx="203.8" cy="214.8" r="3" fill="#4e79a7"/><circle cx="214.6" cy="217.4" r="3" fill="#4e79a7"/><circle cx="225.4" cy="231.5" r="3" fill="#4e79a7"/><circle cx="236.3" cy="231.5" r="3" fill="#4e79a7"/><circle cx="247.1" cy="224.7" r="3" fill="#4e79a7"/><circle cx="258.0" cy="213.9" r="3" fill="#4e79a7"/><circle cx="268.8" cy="230.6" r="3" fill="#4e79a7"/><circle cx="279.7" cy="231.3" r="3" fill="#4e79a7"/><circle cx="290.5" cy="231.5" r="3" fill="#4e79a7"/><circle cx="301.3" cy="232.0" r="3" fill="#4e79a7"/><circle cx="312.2" cy="231.5" r="3" fill="#4e79a7"/><circle cx="323.0" cy="231.1" r="3" fill="#4e79a7"/><circle cx="333.9" cy="232.0" r="3" fill="#4e79a7"/><circle cx="344.7" cy="230.8" r="3" fill="#4e79a7"/><circle cx="355.5" cy="232.0" r="3" fill="#4e79a7"/><circle cx="366.4" cy="212.2" r="3" fill="#4e79a7"/><circle cx="377.2" cy="231.5" r="3" fill="#4e79a7"/><circle cx="388.1" cy="229.6" r="3" fill="#4e79a7"/><circle cx="398.9" cy="226.1" r="3" fill="#4e79a7"/><circle cx="409.7" cy="229.2" r="3" fill="#4e79a7"/><circle cx="420.6" cy="231.5" r="3" fill="#4e79a7"/><circle cx="431.4" cy="231.8" r="3" fill="#4e79a7"/><circle cx="442.3" cy="228.5" r="3" fill="#4e79a7"/><circle cx="453.1" cy="231.8" r="3" fill="#4e79a7"/><circle cx="463.9" cy="230.8" r="3" fill="#4e79a7"/><circle cx="474.8" cy="212.7" r="3" fill="#4e79a7"/><circle cx="485.6" cy="130.5" r="3" fill="#4e79a7"/><circle cx="496.5" cy="231.1" r="3" fill="#4e79a7"/><circle cx="507.3" cy="231.8" r="3" fill="#4e79a7"/><circle cx="518.1" cy="231.3" r="3" fill="#4e79a7"/><circle cx="529.0" cy="231.3" r="3" fill="#4e79a7"/><circle cx="539.8" cy="232.0" r="3" fill="#4e79a7"/><circle cx="550.7" cy="231.5" r="3" fill="#4e79a7"/><circle cx="561.5" cy="232.0" r="3" fill="#4e79a7"/><circle cx="572.3" cy="231.5" r="3" fill="#4e79a7"/><circle cx="583.2" cy="231.8" r="3" fill="#4e79a7"/><circle cx="594.0" cy="231.3" r="3" fill="#4e79a7"/><circle cx="604.9" cy="231.5" r="3" fill="#4e79a7"/><circle cx="615.7" cy="232.0" r="3" fill="#4e79a7"/><circle cx="626.6" cy="232.0" r="3" fill="#4e79a7"/><circle cx="637.4" cy="231.8" r="3" fill="#4e79a7"/><circle cx="648.2" cy="232.0" r="3" fill="#4e79a7"/><circle cx="659.1" cy="232.0" r="3" fill="#4e79a7"/><circle cx="669.9" cy="232.0" r="3" fill="#4e79a7"/><circle cx="680.8" cy="232.0" r="3" fill="#4e79a7"/><circle cx="691.6" cy="231.8" r="3" fill="#4e79a7"/><circle cx="702.4" cy="231.3" r="3" fill="#4e79a7"/><circle cx="713.3" cy="232.0" r="3" fill="#4e79a7"/><circle cx="724.1" cy="232.0" r="3" fill="#4e79a7"/><circle cx="735.0" cy="231.5" r="3" fill="#4e79a7"/><circle cx="745.8" cy="232.0" r="3" fill="#4e79a7"/><circle cx="756.6" cy="232.0" r="3" fill="#4e79a7"/><circle cx="767.5" cy="231.5" r="3" fill="#4e79a7"/><circle cx="778.3" cy="231.8" r="3" fill="#4e79a7"/><circle cx="789.2" cy="226.1" r="3" fill="#4e79a7"/><circle cx="800.0" cy="232.0" r="3" fill="#4e79a7"/>
  <circle cx="52.0" cy="229.4" r="3" fill="#f28e2b"/><circle cx="62.8" cy="202.8" r="3" fill="#f28e2b"/><circle cx="73.7" cy="209.6" r="3" fill="#f28e2b"/><circle cx="84.5" cy="170.0" r="3" fill="#f28e2b"/><circle cx="95.4" cy="193.1" r="3" fill="#f28e2b"/><circle cx="106.2" cy="207.5" r="3" fill="#f28e2b"/><circle cx="117.0" cy="224.9" r="3" fill="#f28e2b"/><circle cx="127.9" cy="188.4" r="3" fill="#f28e2b"/><circle cx="138.7" cy="208.2" r="3" fill="#f28e2b"/><circle cx="149.6" cy="224.9" r="3" fill="#f28e2b"/><circle cx="160.4" cy="223.8" r="3" fill="#f28e2b"/><circle cx="171.2" cy="222.3" r="3" fill="#f28e2b"/><circle cx="182.1" cy="212.7" r="3" fill="#f28e2b"/><circle cx="192.9" cy="225.2" r="3" fill="#f28e2b"/><circle cx="203.8" cy="229.4" r="3" fill="#f28e2b"/><circle cx="214.6" cy="228.2" r="3" fill="#f28e2b"/><circle cx="225.4" cy="231.5" r="3" fill="#f28e2b"/><circle cx="236.3" cy="231.5" r="3" fill="#f28e2b"/><circle cx="247.1" cy="229.4" r="3" fill="#f28e2b"/><circle cx="258.0" cy="226.8" r="3" fill="#f28e2b"/><circle cx="268.8" cy="230.8" r="3" fill="#f28e2b"/><circle cx="279.7" cy="231.5" r="3" fill="#f28e2b"/><circle cx="290.5" cy="231.8" r="3" fill="#f28e2b"/><circle cx="301.3" cy="232.0" r="3" fill="#f28e2b"/><circle cx="312.2" cy="231.8" r="3" fill="#f28e2b"/><circle cx="323.0" cy="231.3" r="3" fill="#f28e2b"/><circle cx="333.9" cy="232.0" r="3" fill="#f28e2b"/><circle cx="344.7" cy="231.3" r="3" fill="#f28e2b"/><circle cx="355.5" cy="232.0" r="3" fill="#f28e2b"/><circle cx="366.4" cy="226.1" r="3" fill="#f28e2b"/><circle cx="377.2" cy="231.5" r="3" fill="#f28e2b"/><circle cx="388.1" cy="230.6" r="3" fill="#f28e2b"/><circle cx="398.9" cy="228.7" r="3" fill="#f28e2b"/><circle cx="409.7" cy="231.1" r="3" fill="#f28e2b"/><circle cx="420.6" cy="231.5" r="3" fill="#f28e2b"/><circle cx="431.4" cy="231.8" r="3" fill="#f28e2b"/><circle cx="442.3" cy="230.6" r="3" fill="#f28e2b"/><circle cx="453.1" cy="231.8" r="3" fill="#f28e2b"/><circle cx="463.9" cy="231.5" r="3" fill="#f28e2b"/><circle cx="474.8" cy="226.8" r="3" fill="#f28e2b"/><circle cx="485.6" cy="217.2" r="3" fill="#f28e2b"/><circle cx="496.5" cy="231.3" r="3" fill="#f28e2b"/><circle cx="507.3" cy="231.8" r="3" fill="#f28e2b"/><circle cx="518.1" cy="231.5" r="3" fill="#f28e2b"/><circle cx="529.0" cy="231.5" r="3" fill="#f28e2b"/><circle cx="539.8" cy="232.0" r="3" fill="#f28e2b"/><circle cx="550.7" cy="231.8" r="3" fill="#f28e2b"/><circle cx="561.5" cy="232.0" r="3" fill="#f28e2b"/><circle cx="572.3" cy="231.8" r="3" fill="#f28e2b"/><circle cx="583.2" cy="231.8" r="3" fill="#f28e2b"/><circle cx="594.0" cy="231.5" r="3" fill="#f28e2b"/><circle cx="604.9" cy="231.8" r="3" fill="#f28e2b"/><circle cx="615.7" cy="232.0" r="3" fill="#f28e2b"/><circle cx="626.6" cy="232.0" r="3" fill="#f28e2b"/><circle cx="637.4" cy="231.8" r="3" fill="#f28e2b"/><circle cx="648.2" cy="232.0" r="3" fill="#f28e2b"/><circle cx="659.1" cy="232.0" r="3" fill="#f28e2b"/><circle cx="669.9" cy="232.0" r="3" fill="#f28e2b"/><circle cx="680.8" cy="232.0" r="3" fill="#f28e2b"/><circle cx="691.6" cy="231.8" r="3" fill="#f28e2b"/><circle cx="702.4" cy="231.5" r="3" fill="#f28e2b"/><circle cx="713.3" cy="232.0" r="3" fill="#f28e2b"/><circle cx="724.1" cy="232.0" r="3" fill="#f28e2b"/><circle cx="735.0" cy="231.8" r="3" fill="#f28e2b"/><circle cx="745.8" cy="232.0" r="3" fill="#f28e2b"/><circle cx="756.6" cy="232.0" r="3" fill="#f28e2b"/><circle cx="767.5" cy="231.5" r="3" fill="#f28e2b"/><circle cx="778.3" cy="231.8" r="3" fill="#f28e2b"/><circle cx="789.2" cy="231.3" r="3" fill="#f28e2b"/><circle cx="800.0" cy="232.0" r="3" fill="#f28e2b"/>

  <!-- axes -->
  <line x1="52" y1="28" x2="52" y2="232"
        stroke="#cccccc" stroke-width="1"/>
  <line x1="52" y1="232" x2="800" y2="232"
        stroke="#cccccc" stroke-width="1"/>

  <!-- y-axis labels -->
  <text x="47" y="236.0" text-anchor="end" font-size="10" fill="#57606a" font-family="ui-monospace, SFMono-Regular, 'SF Mono', Menlo, monospace">0</text><text x="47" y="188.9" text-anchor="end" font-size="10" fill="#57606a" font-family="ui-monospace, SFMono-Regular, 'SF Mono', Menlo, monospace">200</text><text x="47" y="141.8" text-anchor="end" font-size="10" fill="#57606a" font-family="ui-monospace, SFMono-Regular, 'SF Mono', Menlo, monospace">400</text><text x="47" y="94.7" text-anchor="end" font-size="10" fill="#57606a" font-family="ui-monospace, SFMono-Regular, 'SF Mono', Menlo, monospace">600</text><text x="47" y="47.5" text-anchor="end" font-size="10" fill="#57606a" font-family="ui-monospace, SFMono-Regular, 'SF Mono', Menlo, monospace">800</text><text x="47" y="0.4" text-anchor="end" font-size="10" fill="#57606a" font-family="ui-monospace, SFMono-Regular, 'SF Mono', Menlo, monospace">1,000</text>

  <!-- x-axis labels -->
  <text x="52.0" y="248" text-anchor="middle" font-size="10" fill="#8c959f" font-family="ui-monospace, SFMono-Regular, 'SF Mono', Menlo, monospace">05-11</text><text x="398.9" y="248" text-anchor="middle" font-size="10" fill="#8c959f" font-family="ui-monospace, SFMono-Regular, 'SF Mono', Menlo, monospace">06-12</text><text x="745.8" y="248" text-anchor="middle" font-size="10" fill="#8c959f" font-family="ui-monospace, SFMono-Regular, 'SF Mono', Menlo, monospace">07-14</text><text x="800.0" y="248" text-anchor="middle" font-size="10" fill="#8c959f" font-family="ui-monospace, SFMono-Regular, 'SF Mono', Menlo, monospace">07-19</text><text x="138.7" y="248" text-anchor="middle" font-size="10" fill="#8c959f" font-family="ui-monospace, SFMono-Regular, 'SF Mono', Menlo, monospace">05-19</text><text x="485.6" y="248" text-anchor="middle" font-size="10" fill="#8c959f" font-family="ui-monospace, SFMono-Regular, 'SF Mono', Menlo, monospace">06-20</text><text x="225.4" y="248" text-anchor="middle" font-size="10" fill="#8c959f" font-family="ui-monospace, SFMono-Regular, 'SF Mono', Menlo, monospace">05-27</text><text x="572.3" y="248" text-anchor="middle" font-size="10" fill="#8c959f" font-family="ui-monospace, SFMono-Regular, 'SF Mono', Menlo, monospace">06-28</text><text x="312.2" y="248" text-anchor="middle" font-size="10" fill="#8c959f" font-family="ui-monospace, SFMono-Regular, 'SF Mono', Menlo, monospace">06-04</text><text x="659.1" y="248" text-anchor="middle" font-size="10" fill="#8c959f" font-family="ui-monospace, SFMono-Regular, 'SF Mono', Menlo, monospace">07-06</text>

  <!-- legend -->
  <rect x="60" y="262" width="16" height="3" fill="#4e79a7" rx="1"/><text x="80" y="268" font-size="11" fill="#57606a" font-family="-apple-system, BlinkMacSystemFont, 'Segoe UI', sans-serif">Total clones (4,993)</text><line x1="230" y1="264" x2="246" y2="264" stroke="#f28e2b" stroke-width="2" stroke-dasharray="5,3"/><text x="250" y="268" font-size="11" fill="#57606a" font-family="-apple-system, BlinkMacSystemFont, 'Segoe UI', sans-serif">Unique cloners</text>

</svg>