<svg xmlns="http://www.w3.org/2000/svg" viewBox="0 0 820 280" width="820" height="280">

  <!-- title -->
  <text x="52" y="18" font-size="13" font-weight="600"
        fill="#24292f" font-family="-apple-system, BlinkMacSystemFont, 'Segoe UI', sans-serif"
        >Clone traffic — orthodox-calendar</text>
  <text x="800" y="18" font-size="10" fill="#8c959f"
        font-family="ui-monospace, SFMono-Regular, 'SF Mono', Menlo, monospace" text-anchor="end">2026-07-15</text>

  <!-- grid -->
  <line x1="52" y1="232.0" x2="800" y2="232.0" stroke="#e8e8e8" stroke-width="1"/><line x1="52" y1="184.9" x2="800" y2="184.9" stroke="#e8e8e8" stroke-width="1"/><line x1="52" y1="137.8" x2="800" y2="137.8" stroke="#e8e8e8" stroke-width="1"/><line x1="52" y1="90.7" x2="800" y2="90.7" stroke="#e8e8e8" stroke-width="1"/><line x1="52" y1="43.5" x2="800" y2="43.5" stroke="#e8e8e8" stroke-width="1"/><line x1="52" y1="-3.6" x2="800" y2="-3.6" stroke="#e8e8e8" stroke-width="1"/>

  <!-- area fill -->
  <path d="M52.0,226.8 L52.0,226.8 L63.9,169.6 L75.7,178.5 L87.6,28.0 L99.5,118.7 L111.4,163.5 L123.2,216.5 L135.1,76.5 L147.0,150.7 L158.9,213.2 L170.7,201.1 L182.6,194.8 L194.5,160.4 L206.3,208.0 L218.2,214.8 L230.1,217.4 L242.0,231.5 L253.8,231.5 L265.7,224.7 L277.6,213.9 L289.5,230.6 L301.3,231.3 L313.2,231.5 L325.1,232.0 L337.0,231.5 L348.8,231.1 L360.7,232.0 L372.6,230.8 L384.4,232.0 L396.3,212.2 L408.2,231.5 L420.1,229.6 L431.9,226.1 L443.8,229.2 L455.7,231.5 L467.6,231.8 L479.4,228.5 L491.3,231.8 L503.2,230.8 L515.0,212.7 L526.9,130.5 L538.8,231.1 L550.7,231.8 L562.5,231.3 L574.4,231.3 L586.3,232.0 L598.2,231.5 L610.0,232.0 L621.9,231.5 L633.8,231.8 L645.7,231.3 L657.5,231.5 L669.4,232.0 L681.3,232.0 L693.1,231.8 L705.0,232.0 L716.9,232.0 L728.8,232.0 L740.6,232.0 L752.5,231.8 L764.4,231.3 L776.3,232.0 L788.1,232.0 L800.0,231.5 L800.0,232.0 L52.0,232.0Z" fill="#4e79a7" opacity="0.12"/>

  <!-- lines -->
  <polyline points="52.0,226.8 63.9,169.6 75.7,178.5 87.6,28.0 99.5,118.7 111.4,163.5 123.2,216.5 135.1,76.5 147.0,150.7 158.9,213.2 170.7,201.1 182.6,194.8 194.5,160.4 206.3,208.0 218.2,214.8 230.1,217.4 242.0,231.5 253.8,231.5 265.7,224.7 277.6,213.9 289.5,230.6 301.3,231.3 313.2,231.5 325.1,232.0 337.0,231.5 348.8,231.1 360.7,232.0 372.6,230.8 384.4,232.0 396.3,212.2 408.2,231.5 420.1,229.6 431.9,226.1 443.8,229.2 455.7,231.5 467.6,231.8 479.4,228.5 491.3,231.8 503.2,230.8 515.0,212.7 526.9,130.5 538.8,231.1 550.7,231.8 562.5,231.3 574.4,231.3 586.3,232.0 598.2,231.5 610.0,232.0 621.9,231.5 633.8,231.8 645.7,231.3 657.5,231.5 669.4,232.0 681.3,232.0 693.1,231.8 705.0,232.0 716.9,232.0 728.8,232.0 740.6,232.0 752.5,231.8 764.4,231.3 776.3,232.0 788.1,232.0 800.0,231.5"
            fill="none" stroke="#4e79a7"
            stroke-width="2" stroke-linejoin="round"/>
  <polyline points="52.0,229.4 63.9,202.8 75.7,209.6 87.6,170.0 99.5,193.1 111.4,207.5 123.2,224.9 135.1,188.4 147.0,208.2 158.9,224.9 170.7,223.8 182.6,222.3 194.5,212.7 206.3,225.2 218.2,229.4 230.1,228.2 242.0,231.5 253.8,231.5 265.7,229.4 277.6,226.8 289.5,230.8 301.3,231.5 313.2,231.8 325.1,232.0 337.0,231.8 348.8,231.3 360.7,232.0 372.6,231.3 384.4,232.0 396.3,226.1 408.2,231.5 420.1,230.6 431.9,228.7 443.8,231.1 455.7,231.5 467.6,231.8 479.4,230.6 491.3,231.8 503.2,231.5 515.0,226.8 526.9,217.2 538.8,231.3 550.7,231.8 562.5,231.5 574.4,231.5 586.3,232.0 598.2,231.8 610.0,232.0 621.9,231.8 633.8,231.8 645.7,231.5 657.5,231.8 669.4,232.0 681.3,232.0 693.1,231.8 705.0,232.0 716.9,232.0 728.8,232.0 740.6,232.0 752.5,231.8 764.4,231.5 776.3,232.0 788.1,232.0 800.0,231.8"
            fill="none" stroke="#f28e2b"
            stroke-width="2" stroke-linejoin="round"
            stroke-dasharray="5,3"/>

  <!-- dots -->
  <circle cx="52.0" cy="226.8" r="3" fill="#4e79a7"/><circle cx="63.9" cy="169.6" r="3" fill="#4e79a7"/><circle cx="75.7" cy="178.5" r="3" fill="#4e79a7"/><circle cx="87.6" cy="28.0" r="3" fill="#4e79a7"/><circle cx="99.5" cy="118.7" r="3" fill="#4e79a7"/><circle cx="111.4" cy="163.5" r="3" fill="#4e79a7"/><circle cx="123.2" cy="216.5" r="3" fill="#4e79a7"/><circle cx="135.1" cy="76.5" r="3" fill="#4e79a7"/><circle cx="147.0" cy="150.7" r="3" fill="#4e79a7"/><circle cx="158.9" cy="213.2" r="3" fill="#4e79a7"/><circle cx="170.7" cy="201.1" r="3" fill="#4e79a7"/><circle cx="182.6" cy="194.8" r="3" fill="#4e79a7"/><circle cx="194.5" cy="160.4" r="3" fill="#4e79a7"/><circle cx="206.3" cy="208.0" r="3" fill="#4e79a7"/><circle cx="218.2" cy="214.8" r="3" fill="#4e79a7"/><circle cx="230.1" cy="217.4" r="3" fill="#4e79a7"/><circle cx="242.0" cy="231.5" r="3" fill="#4e79a7"/><circle cx="253.8" cy="231.5" r="3" fill="#4e79a7"/><circle cx="265.7" cy="224.7" r="3" fill="#4e79a7"/><circle cx="277.6" cy="213.9" r="3" fill="#4e79a7"/><circle cx="289.5" cy="230.6" r="3" fill="#4e79a7"/><circle cx="301.3" cy="231.3" r="3" fill="#4e79a7"/><circle cx="313.2" cy="231.5" r="3" fill="#4e79a7"/><circle cx="325.1" cy="232.0" r="3" fill="#4e79a7"/><circle cx="337.0" cy="231.5" r="3" fill="#4e79a7"/><circle cx="348.8" cy="231.1" r="3" fill="#4e79a7"/><circle cx="360.7" cy="232.0" r="3" fill="#4e79a7"/><circle cx="372.6" cy="230.8" r="3" fill="#4e79a7"/><circle cx="384.4" cy="232.0" r="3" fill="#4e79a7"/><circle cx="396.3" cy="212.2" r="3" fill="#4e79a7"/><circle cx="408.2" cy="231.5" r="3" fill="#4e79a7"/><circle cx="420.1" cy="229.6" r="3" fill="#4e79a7"/><circle cx="431.9" cy="226.1" r="3" fill="#4e79a7"/><circle cx="443.8" cy="229.2" r="3" fill="#4e79a7"/><circle cx="455.7" cy="231.5" r="3" fill="#4e79a7"/><circle cx="467.6" cy="231.8" r="3" fill="#4e79a7"/><circle cx="479.4" cy="228.5" r="3" fill="#4e79a7"/><circle cx="491.3" cy="231.8" r="3" fill="#4e79a7"/><circle cx="503.2" cy="230.8" r="3" fill="#4e79a7"/><circle cx="515.0" cy="212.7" r="3" fill="#4e79a7"/><circle cx="526.9" cy="130.5" r="3" fill="#4e79a7"/><circle cx="538.8" cy="231.1" r="3" fill="#4e79a7"/><circle cx="550.7" cy="231.8" r="3" fill="#4e79a7"/><circle cx="562.5" cy="231.3" r="3" fill="#4e79a7"/><circle cx="574.4" cy="231.3" r="3" fill="#4e79a7"/><circle cx="586.3" cy="232.0" r="3" fill="#4e79a7"/><circle cx="598.2" cy="231.5" r="3" fill="#4e79a7"/><circle cx="610.0" cy="232.0" r="3" fill="#4e79a7"/><circle cx="621.9" cy="231.5" r="3" fill="#4e79a7"/><circle cx="633.8" cy="231.8" r="3" fill="#4e79a7"/><circle cx="645.7" cy="231.3" r="3" fill="#4e79a7"/><circle cx="657.5" cy="231.5" r="3" fill="#4e79a7"/><circle cx="669.4" cy="232.0" r="3" fill="#4e79a7"/><circle cx="681.3" cy="232.0" r="3" fill="#4e79a7"/><circle cx="693.1" cy="231.8" r="3" fill="#4e79a7"/><circle cx="705.0" cy="232.0" r="3" fill="#4e79a7"/><circle cx="716.9" cy="232.0" r="3" fill="#4e79a7"/><circle cx="728.8" cy="232.0" r="3" fill="#4e79a7"/><circle cx="740.6" cy="232.0" r="3" fill="#4e79a7"/><circle cx="752.5" cy="231.8" r="3" fill="#4e79a7"/><circle cx="764.4" cy="231.3" r="3" fill="#4e79a7"/><circle cx="776.3" cy="232.0" r="3" fill="#4e79a7"/><circle cx="788.1" cy="232.0" r="3" fill="#4e79a7"/><circle cx="800.0" cy="231.5" r="3" fill="#4e79a7"/>
  <circle cx="52.0" cy="229.4" r="3" fill="#f28e2b"/><circle cx="63.9" cy="202.8" r="3" fill="#f28e2b"/><circle cx="75.7" cy="209.6" r="3" fill="#f28e2b"/><circle cx="87.6" cy="170.0" r="3" fill="#f28e2b"/><circle cx="99.5" cy="193.1" r="3" fill="#f28e2b"/><circle cx="111.4" cy="207.5" r="3" fill="#f28e2b"/><circle cx="123.2" cy="224.9" r="3" fill="#f28e2b"/><circle cx="135.1" cy="188.4" r="3" fill="#f28e2b"/><circle cx="147.0" cy="208.2" r="3" fill="#f28e2b"/><circle cx="158.9" cy="224.9" r="3" fill="#f28e2b"/><circle cx="170.7" cy="223.8" r="3" fill="#f28e2b"/><circle cx="182.6" cy="222.3" r="3" fill="#f28e2b"/><circle cx="194.5" cy="212.7" r="3" fill="#f28e2b"/><circle cx="206.3" cy="225.2" r="3" fill="#f28e2b"/><circle cx="218.2" cy="229.4" r="3" fill="#f28e2b"/><circle cx="230.1" cy="228.2" r="3" fill="#f28e2b"/><circle cx="242.0" cy="231.5" r="3" fill="#f28e2b"/><circle cx="253.8" cy="231.5" r="3" fill="#f28e2b"/><circle cx="265.7" cy="229.4" r="3" fill="#f28e2b"/><circle cx="277.6" cy="226.8" r="3" fill="#f28e2b"/><circle cx="289.5" cy="230.8" r="3" fill="#f28e2b"/><circle cx="301.3" cy="231.5" r="3" fill="#f28e2b"/><circle cx="313.2" cy="231.8" r="3" fill="#f28e2b"/><circle cx="325.1" cy="232.0" r="3" fill="#f28e2b"/><circle cx="337.0" cy="231.8" r="3" fill="#f28e2b"/><circle cx="348.8" cy="231.3" r="3" fill="#f28e2b"/><circle cx="360.7" cy="232.0" r="3" fill="#f28e2b"/><circle cx="372.6" cy="231.3" r="3" fill="#f28e2b"/><circle cx="384.4" cy="232.0" r="3" fill="#f28e2b"/><circle cx="396.3" cy="226.1" r="3" fill="#f28e2b"/><circle cx="408.2" cy="231.5" r="3" fill="#f28e2b"/><circle cx="420.1" cy="230.6" r="3" fill="#f28e2b"/><circle cx="431.9" cy="228.7" r="3" fill="#f28e2b"/><circle cx="443.8" cy="231.1" r="3" fill="#f28e2b"/><circle cx="455.7" cy="231.5" r="3" fill="#f28e2b"/><circle cx="467.6" cy="231.8" r="3" fill="#f28e2b"/><circle cx="479.4" cy="230.6" r="3" fill="#f28e2b"/><circle cx="491.3" cy="231.8" r="3" fill="#f28e2b"/><circle cx="503.2" cy="231.5" r="3" fill="#f28e2b"/><circle cx="515.0" cy="226.8" r="3" fill="#f28e2b"/><circle cx="526.9" cy="217.2" r="3" fill="#f28e2b"/><circle cx="538.8" cy="231.3" r="3" fill="#f28e2b"/><circle cx="550.7" cy="231.8" r="3" fill="#f28e2b"/><circle cx="562.5" cy="231.5" r="3" fill="#f28e2b"/><circle cx="574.4" cy="231.5" r="3" fill="#f28e2b"/><circle cx="586.3" cy="232.0" r="3" fill="#f28e2b"/><circle cx="598.2" cy="231.8" r="3" fill="#f28e2b"/><circle cx="610.0" cy="232.0" r="3" fill="#f28e2b"/><circle cx="621.9" cy="231.8" r="3" fill="#f28e2b"/><circle cx="633.8" cy="231.8" r="3" fill="#f28e2b"/><circle cx="645.7" cy="231.5" r="3" fill="#f28e2b"/><circle cx="657.5" cy="231.8" r="3" fill="#f28e2b"/><circle cx="669.4" cy="232.0" r="3" fill="#f28e2b"/><circle cx="681.3" cy="232.0" r="3" fill="#f28e2b"/><circle cx="693.1" cy="231.8" r="3" fill="#f28e2b"/><circle cx="705.0" cy="232.0" r="3" fill="#f28e2b"/><circle cx="716.9" cy="232.0" r="3" fill="#f28e2b"/><circle cx="728.8" cy="232.0" r="3" fill="#f28e2b"/><circle cx="740.6" cy="232.0" r="3" fill="#f28e2b"/><circle cx="752.5" cy="231.8" r="3" fill="#f28e2b"/><circle cx="764.4" cy="231.5" r="3" fill="#f28e2b"/><circle cx="776.3" cy="232.0" r="3" fill="#f28e2b"/><circle cx="788.1" cy="232.0" r="3" fill="#f28e2b"/><circle cx="800.0" cy="231.8" r="3" fill="#f28e2b"/>

  <!-- axes -->
  <line x1="52" y1="28" x2="52" y2="232"
        stroke="#cccccc" stroke-width="1"/>
  <line x1="52" y1="232" x2="800" y2="232"
        stroke="#cccccc" stroke-width="1"/>

  <!-- y-axis labels -->
  <text x="47" y="236.0" text-anchor="end" font-size="10" fill="#57606a" font-family="ui-monospace, SFMono-Regular, 'SF Mono', Menlo, monospace">0</text><text x="47" y="188.9" text-anchor="end" font-size="10" fill="#57606a" font-family="ui-monospace, SFMono-Regular, 'SF Mono', Menlo, monospace">200</text><text x="47" y="141.8" text-anchor="end" font-size="10" fill="#57606a" font-family="ui-monospace, SFMono-Regular, 'SF Mono', Menlo, monospace">400</text><text x="47" y="94.7" text-anchor="end" font-size="10" fill="#57606a" font-family="ui-monospace, SFMono-Regular, 'SF Mono', Menlo, monospace">600</text><text x="47" y="47.5" text-anchor="end" font-size="10" fill="#57606a" font-family="ui-monospace, SFMono-Regular, 'SF Mono', Menlo, monospace">800</text><text x="47" y="0.4" text-anchor="end" font-size="10" fill="#57606a" font-family="ui-monospace, SFMono-Regular, 'SF Mono', Menlo, monospace">1,000</text>

  <!-- x-axis labels -->
  <text x="52.0" y="248" text-anchor="middle" font-size="10" fill="#8c959f" font-family="ui-monospace, SFMono-Regular, 'SF Mono', Menlo, monospace">05-11</text><text x="431.9" y="248" text-anchor="middle" font-size="10" fill="#8c959f" font-family="ui-monospace, SFMono-Regular, 'SF Mono', Menlo, monospace">06-12</text><text x="147.0" y="248" text-anchor="middle" font-size="10" fill="#8c959f" font-family="ui-monospace, SFMono-Regular, 'SF Mono', Menlo, monospace">05-19</text><text x="526.9" y="248" text-anchor="middle" font-size="10" fill="#8c959f" font-family="ui-monospace, SFMono-Regular, 'SF Mono', Menlo, monospace">06-20</text><text x="242.0" y="248" text-anchor="middle" font-size="10" fill="#8c959f" font-family="ui-monospace, SFMono-Regular, 'SF Mono', Menlo, monospace">05-27</text><text x="621.9" y="248" text-anchor="middle" font-size="10" fill="#8c959f" font-family="ui-monospace, SFMono-Regular, 'SF Mono', Menlo, monospace">06-28</text><text x="337.0" y="248" text-anchor="middle" font-size="10" fill="#8c959f" font-family="ui-monospace, SFMono-Regular, 'SF Mono', Menlo, monospace">06-04</text><text x="716.9" y="248" text-anchor="middle" font-size="10" fill="#8c959f" font-family="ui-monospace, SFMono-Regular, 'SF Mono', Menlo, monospace">07-06</text><text x="800.0" y="248" text-anchor="middle" font-size="10" fill="#8c959f" font-family="ui-monospace, SFMono-Regular, 'SF Mono', Menlo, monospace">07-13</text>

  <!-- legend -->
  <rect x="60" y="262" width="16" height="3" fill="#4e79a7" rx="1"/><text x="80" y="268" font-size="11" fill="#57606a" font-family="-apple-system, BlinkMacSystemFont, 'Segoe UI', sans-serif">Total clones (4,965)</text><line x1="230" y1="264" x2="246" y2="264" stroke="#f28e2b" stroke-width="2" stroke-dasharray="5,3"/><text x="250" y="268" font-size="11" fill="#57606a" font-family="-apple-system, BlinkMacSystemFont, 'Segoe UI', sans-serif">Unique cloners</text>

</svg>