<svg xmlns="http://www.w3.org/2000/svg" viewBox="0 0 820 280" width="820" height="280">

  <!-- title -->
  <text x="52" y="18" font-size="13" font-weight="600"
        fill="#24292f" font-family="-apple-system, BlinkMacSystemFont, 'Segoe UI', sans-serif"
        >Clone traffic — orthodox-calendar</text>
  <text x="800" y="18" font-size="10" fill="#8c959f"
        font-family="ui-monospace, SFMono-Regular, 'SF Mono', Menlo, monospace" text-anchor="end">2026-07-23</text>

  <!-- grid -->
  <line x1="52" y1="232.0" x2="800" y2="232.0" stroke="#e8e8e8" stroke-width="1"/><line x1="52" y1="184.9" x2="800" y2="184.9" stroke="#e8e8e8" stroke-width="1"/><line x1="52" y1="137.8" x2="800" y2="137.8" stroke="#e8e8e8" stroke-width="1"/><line x1="52" y1="90.7" x2="800" y2="90.7" stroke="#e8e8e8" stroke-width="1"/><line x1="52" y1="43.5" x2="800" y2="43.5" stroke="#e8e8e8" stroke-width="1"/><line x1="52" y1="-3.6" x2="800" y2="-3.6" stroke="#e8e8e8" stroke-width="1"/>

  <!-- area fill -->
  <path d="M52.0,226.8 L52.0,226.8 L62.5,169.6 L73.1,178.5 L83.6,28.0 L94.1,118.7 L104.7,163.5 L115.2,216.5 L125.7,76.5 L136.3,150.7 L146.8,213.2 L157.4,201.1 L167.9,194.8 L178.4,160.4 L189.0,208.0 L199.5,214.8 L210.0,217.4 L220.6,231.5 L231.1,231.5 L241.6,224.7 L252.2,213.9 L262.7,230.6 L273.2,231.3 L283.8,231.5 L294.3,232.0 L304.8,231.5 L315.4,231.1 L325.9,232.0 L336.5,230.8 L347.0,232.0 L357.5,212.2 L368.1,231.5 L378.6,229.6 L389.1,226.1 L399.7,229.2 L410.2,231.5 L420.7,231.8 L431.3,228.5 L441.8,231.8 L452.3,230.8 L462.9,212.7 L473.4,130.5 L483.9,231.1 L494.5,231.8 L505.0,231.3 L515.5,231.3 L526.1,232.0 L536.6,231.5 L547.2,232.0 L557.7,231.5 L568.2,231.8 L578.8,231.3 L589.3,231.5 L599.8,232.0 L610.4,232.0 L620.9,231.8 L631.4,232.0 L642.0,232.0 L652.5,232.0 L663.0,232.0 L673.6,231.8 L684.1,231.3 L694.6,232.0 L705.2,232.0 L715.7,231.5 L726.3,232.0 L736.8,232.0 L747.3,231.5 L757.9,231.8 L768.4,226.1 L778.9,232.0 L789.5,231.5 L800.0,232.0 L800.0,232.0 L52.0,232.0Z" fill="#4e79a7" opacity="0.12"/>

  <!-- lines -->
  <polyline points="52.0,226.8 62.5,169.6 73.1,178.5 83.6,28.0 94.1,118.7 104.7,163.5 115.2,216.5 125.7,76.5 136.3,150.7 146.8,213.2 157.4,201.1 167.9,194.8 178.4,160.4 189.0,208.0 199.5,214.8 210.0,217.4 220.6,231.5 231.1,231.5 241.6,224.7 252.2,213.9 262.7,230.6 273.2,231.3 283.8,231.5 294.3,232.0 304.8,231.5 315.4,231.1 325.9,232.0 336.5,230.8 347.0,232.0 357.5,212.2 368.1,231.5 378.6,229.6 389.1,226.1 399.7,229.2 410.2,231.5 420.7,231.8 431.3,228.5 441.8,231.8 452.3,230.8 462.9,212.7 473.4,130.5 483.9,231.1 494.5,231.8 505.0,231.3 515.5,231.3 526.1,232.0 536.6,231.5 547.2,232.0 557.7,231.5 568.2,231.8 578.8,231.3 589.3,231.5 599.8,232.0 610.4,232.0 620.9,231.8 631.4,232.0 642.0,232.0 652.5,232.0 663.0,232.0 673.6,231.8 684.1,231.3 694.6,232.0 705.2,232.0 715.7,231.5 726.3,232.0 736.8,232.0 747.3,231.5 757.9,231.8 768.4,226.1 778.9,232.0 789.5,231.5 800.0,232.0"
            fill="none" stroke="#4e79a7"
            stroke-width="2" stroke-linejoin="round"/>
  <polyline points="52.0,229.4 62.5,202.8 73.1,209.6 83.6,170.0 94.1,193.1 104.7,207.5 115.2,224.9 125.7,188.4 136.3,208.2 146.8,224.9 157.4,223.8 167.9,222.3 178.4,212.7 189.0,225.2 199.5,229.4 210.0,228.2 220.6,231.5 231.1,231.5 241.6,229.4 252.2,226.8 262.7,230.8 273.2,231.5 283.8,231.8 294.3,232.0 304.8,231.8 315.4,231.3 325.9,232.0 336.5,231.3 347.0,232.0 357.5,226.1 368.1,231.5 378.6,230.6 389.1,228.7 399.7,231.1 410.2,231.5 420.7,231.8 431.3,230.6 441.8,231.8 452.3,231.5 462.9,226.8 473.4,217.2 483.9,231.3 494.5,231.8 505.0,231.5 515.5,231.5 526.1,232.0 536.6,231.8 547.2,232.0 557.7,231.8 568.2,231.8 578.8,231.5 589.3,231.8 599.8,232.0 610.4,232.0 620.9,231.8 631.4,232.0 642.0,232.0 652.5,232.0 663.0,232.0 673.6,231.8 684.1,231.5 694.6,232.0 705.2,232.0 715.7,231.8 726.3,232.0 736.8,232.0 747.3,231.5 757.9,231.8 768.4,231.3 778.9,232.0 789.5,231.8 800.0,232.0"
            fill="none" stroke="#f28e2b"
            stroke-width="2" stroke-linejoin="round"
            stroke-dasharray="5,3"/>

  <!-- dots -->
  <circle cx="52.0" cy="226.8" r="3" fill="#4e79a7"/><circle cx="62.5" cy="169.6" r="3" fill="#4e79a7"/><circle cx="73.1" cy="178.5" r="3" fill="#4e79a7"/><circle cx="83.6" cy="28.0" r="3" fill="#4e79a7"/><circle cx="94.1" cy="118.7" r="3" fill="#4e79a7"/><circle cx="104.7" cy="163.5" r="3" fill="#4e79a7"/><circle cx="115.2" cy="216.5" r="3" fill="#4e79a7"/><circle cx="125.7" cy="76.5" r="3" fill="#4e79a7"/><circle cx="136.3" cy="150.7" r="3" fill="#4e79a7"/><circle cx="146.8" cy="213.2" r="3" fill="#4e79a7"/><circle cx="157.4" cy="201.1" r="3" fill="#4e79a7"/><circle cx="167.9" cy="194.8" r="3" fill="#4e79a7"/><circle cx="178.4" cy="160.4" r="3" fill="#4e79a7"/><circle cx="189.0" cy="208.0" r="3" fill="#4e79a7"/><circle cx="199.5" cy="214.8" r="3" fill="#4e79a7"/><circle cx="210.0" cy="217.4" r="3" fill="#4e79a7"/><circle cx="220.6" cy="231.5" r="3" fill="#4e79a7"/><circle cx="231.1" cy="231.5" r="3" fill="#4e79a7"/><circle cx="241.6" cy="224.7" r="3" fill="#4e79a7"/><circle cx="252.2" cy="213.9" r="3" fill="#4e79a7"/><circle cx="262.7" cy="230.6" r="3" fill="#4e79a7"/><circle cx="273.2" cy="231.3" r="3" fill="#4e79a7"/><circle cx="283.8" cy="231.5" r="3" fill="#4e79a7"/><circle cx="294.3" cy="232.0" r="3" fill="#4e79a7"/><circle cx="304.8" cy="231.5" r="3" fill="#4e79a7"/><circle cx="315.4" cy="231.1" r="3" fill="#4e79a7"/><circle cx="325.9" cy="232.0" r="3" fill="#4e79a7"/><circle cx="336.5" cy="230.8" r="3" fill="#4e79a7"/><circle cx="347.0" cy="232.0" r="3" fill="#4e79a7"/><circle cx="357.5" cy="212.2" r="3" fill="#4e79a7"/><circle cx="368.1" cy="231.5" r="3" fill="#4e79a7"/><circle cx="378.6" cy="229.6" r="3" fill="#4e79a7"/><circle cx="389.1" cy="226.1" r="3" fill="#4e79a7"/><circle cx="399.7" cy="229.2" r="3" fill="#4e79a7"/><circle cx="410.2" cy="231.5" r="3" fill="#4e79a7"/><circle cx="420.7" cy="231.8" r="3" fill="#4e79a7"/><circle cx="431.3" cy="228.5" r="3" fill="#4e79a7"/><circle cx="441.8" cy="231.8" r="3" fill="#4e79a7"/><circle cx="452.3" cy="230.8" r="3" fill="#4e79a7"/><circle cx="462.9" cy="212.7" r="3" fill="#4e79a7"/><circle cx="473.4" cy="130.5" r="3" fill="#4e79a7"/><circle cx="483.9" cy="231.1" r="3" fill="#4e79a7"/><circle cx="494.5" cy="231.8" r="3" fill="#4e79a7"/><circle cx="505.0" cy="231.3" r="3" fill="#4e79a7"/><circle cx="515.5" cy="231.3" r="3" fill="#4e79a7"/><circle cx="526.1" cy="232.0" r="3" fill="#4e79a7"/><circle cx="536.6" cy="231.5" r="3" fill="#4e79a7"/><circle cx="547.2" cy="232.0" r="3" fill="#4e79a7"/><circle cx="557.7" cy="231.5" r="3" fill="#4e79a7"/><circle cx="568.2" cy="231.8" r="3" fill="#4e79a7"/><circle cx="578.8" cy="231.3" r="3" fill="#4e79a7"/><circle cx="589.3" cy="231.5" r="3" fill="#4e79a7"/><circle cx="599.8" cy="232.0" r="3" fill="#4e79a7"/><circle cx="610.4" cy="232.0" r="3" fill="#4e79a7"/><circle cx="620.9" cy="231.8" r="3" fill="#4e79a7"/><circle cx="631.4" cy="232.0" r="3" fill="#4e79a7"/><circle cx="642.0" cy="232.0" r="3" fill="#4e79a7"/><circle cx="652.5" cy="232.0" r="3" fill="#4e79a7"/><circle cx="663.0" cy="232.0" r="3" fill="#4e79a7"/><circle cx="673.6" cy="231.8" r="3" fill="#4e79a7"/><circle cx="684.1" cy="231.3" r="3" fill="#4e79a7"/><circle cx="694.6" cy="232.0" r="3" fill="#4e79a7"/><circle cx="705.2" cy="232.0" r="3" fill="#4e79a7"/><circle cx="715.7" cy="231.5" r="3" fill="#4e79a7"/><circle cx="726.3" cy="232.0" r="3" fill="#4e79a7"/><circle cx="736.8" cy="232.0" r="3" fill="#4e79a7"/><circle cx="747.3" cy="231.5" r="3" fill="#4e79a7"/><circle cx="757.9" cy="231.8" r="3" fill="#4e79a7"/><circle cx="768.4" cy="226.1" r="3" fill="#4e79a7"/><circle cx="778.9" cy="232.0" r="3" fill="#4e79a7"/><circle cx="789.5" cy="231.5" r="3" fill="#4e79a7"/><circle cx="800.0" cy="232.0" r="3" fill="#4e79a7"/>
  <circle cx="52.0" cy="229.4" r="3" fill="#f28e2b"/><circle cx="62.5" cy="202.8" r="3" fill="#f28e2b"/><circle cx="73.1" cy="209.6" r="3" fill="#f28e2b"/><circle cx="83.6" cy="170.0" r="3" fill="#f28e2b"/><circle cx="94.1" cy="193.1" r="3" fill="#f28e2b"/><circle cx="104.7" cy="207.5" r="3" fill="#f28e2b"/><circle cx="115.2" cy="224.9" r="3" fill="#f28e2b"/><circle cx="125.7" cy="188.4" r="3" fill="#f28e2b"/><circle cx="136.3" cy="208.2" r="3" fill="#f28e2b"/><circle cx="146.8" cy="224.9" r="3" fill="#f28e2b"/><circle cx="157.4" cy="223.8" r="3" fill="#f28e2b"/><circle cx="167.9" cy="222.3" r="3" fill="#f28e2b"/><circle cx="178.4" cy="212.7" r="3" fill="#f28e2b"/><circle cx="189.0" cy="225.2" r="3" fill="#f28e2b"/><circle cx="199.5" cy="229.4" r="3" fill="#f28e2b"/><circle cx="210.0" cy="228.2" r="3" fill="#f28e2b"/><circle cx="220.6" cy="231.5" r="3" fill="#f28e2b"/><circle cx="231.1" cy="231.5" r="3" fill="#f28e2b"/><circle cx="241.6" cy="229.4" r="3" fill="#f28e2b"/><circle cx="252.2" cy="226.8" r="3" fill="#f28e2b"/><circle cx="262.7" cy="230.8" r="3" fill="#f28e2b"/><circle cx="273.2" cy="231.5" r="3" fill="#f28e2b"/><circle cx="283.8" cy="231.8" r="3" fill="#f28e2b"/><circle cx="294.3" cy="232.0" r="3" fill="#f28e2b"/><circle cx="304.8" cy="231.8" r="3" fill="#f28e2b"/><circle cx="315.4" cy="231.3" r="3" fill="#f28e2b"/><circle cx="325.9" cy="232.0" r="3" fill="#f28e2b"/><circle cx="336.5" cy="231.3" r="3" fill="#f28e2b"/><circle cx="347.0" cy="232.0" r="3" fill="#f28e2b"/><circle cx="357.5" cy="226.1" r="3" fill="#f28e2b"/><circle cx="368.1" cy="231.5" r="3" fill="#f28e2b"/><circle cx="378.6" cy="230.6" r="3" fill="#f28e2b"/><circle cx="389.1" cy="228.7" r="3" fill="#f28e2b"/><circle cx="399.7" cy="231.1" r="3" fill="#f28e2b"/><circle cx="410.2" cy="231.5" r="3" fill="#f28e2b"/><circle cx="420.7" cy="231.8" r="3" fill="#f28e2b"/><circle cx="431.3" cy="230.6" r="3" fill="#f28e2b"/><circle cx="441.8" cy="231.8" r="3" fill="#f28e2b"/><circle cx="452.3" cy="231.5" r="3" fill="#f28e2b"/><circle cx="462.9" cy="226.8" r="3" fill="#f28e2b"/><circle cx="473.4" cy="217.2" r="3" fill="#f28e2b"/><circle cx="483.9" cy="231.3" r="3" fill="#f28e2b"/><circle cx="494.5" cy="231.8" r="3" fill="#f28e2b"/><circle cx="505.0" cy="231.5" r="3" fill="#f28e2b"/><circle cx="515.5" cy="231.5" r="3" fill="#f28e2b"/><circle cx="526.1" cy="232.0" r="3" fill="#f28e2b"/><circle cx="536.6" cy="231.8" r="3" fill="#f28e2b"/><circle cx="547.2" cy="232.0" r="3" fill="#f28e2b"/><circle cx="557.7" cy="231.8" r="3" fill="#f28e2b"/><circle cx="568.2" cy="231.8" r="3" fill="#f28e2b"/><circle cx="578.8" cy="231.5" r="3" fill="#f28e2b"/><circle cx="589.3" cy="231.8" r="3" fill="#f28e2b"/><circle cx="599.8" cy="232.0" r="3" fill="#f28e2b"/><circle cx="610.4" cy="232.0" r="3" fill="#f28e2b"/><circle cx="620.9" cy="231.8" r="3" fill="#f28e2b"/><circle cx="631.4" cy="232.0" r="3" fill="#f28e2b"/><circle cx="642.0" cy="232.0" r="3" fill="#f28e2b"/><circle cx="652.5" cy="232.0" r="3" fill="#f28e2b"/><circle cx="663.0" cy="232.0" r="3" fill="#f28e2b"/><circle cx="673.6" cy="231.8" r="3" fill="#f28e2b"/><circle cx="684.1" cy="231.5" r="3" fill="#f28e2b"/><circle cx="694.6" cy="232.0" r="3" fill="#f28e2b"/><circle cx="705.2" cy="232.0" r="3" fill="#f28e2b"/><circle cx="715.7" cy="231.8" r="3" fill="#f28e2b"/><circle cx="726.3" cy="232.0" r="3" fill="#f28e2b"/><circle cx="736.8" cy="232.0" r="3" fill="#f28e2b"/><circle cx="747.3" cy="231.5" r="3" fill="#f28e2b"/><circle cx="757.9" cy="231.8" r="3" fill="#f28e2b"/><circle cx="768.4" cy="231.3" r="3" fill="#f28e2b"/><circle cx="778.9" cy="232.0" r="3" fill="#f28e2b"/><circle cx="789.5" cy="231.8" r="3" fill="#f28e2b"/><circle cx="800.0" cy="232.0" r="3" fill="#f28e2b"/>

  <!-- axes -->
  <line x1="52" y1="28" x2="52" y2="232"
        stroke="#cccccc" stroke-width="1"/>
  <line x1="52" y1="232" x2="800" y2="232"
        stroke="#cccccc" stroke-width="1"/>

  <!-- y-axis labels -->
  <text x="47" y="236.0" text-anchor="end" font-size="10" fill="#57606a" font-family="ui-monospace, SFMono-Regular, 'SF Mono', Menlo, monospace">0</text><text x="47" y="188.9" text-anchor="end" font-size="10" fill="#57606a" font-family="ui-monospace, SFMono-Regular, 'SF Mono', Menlo, monospace">200</text><text x="47" y="141.8" text-anchor="end" font-size="10" fill="#57606a" font-family="ui-monospace, SFMono-Regular, 'SF Mono', Menlo, monospace">400</text><text x="47" y="94.7" text-anchor="end" font-size="10" fill="#57606a" font-family="ui-monospace, SFMono-Regular, 'SF Mono', Menlo, monospace">600</text><text x="47" y="47.5" text-anchor="end" font-size="10" fill="#57606a" font-family="ui-monospace, SFMono-Regular, 'SF Mono', Menlo, monospace">800</text><text x="47" y="0.4" text-anchor="end" font-size="10" fill="#57606a" font-family="ui-monospace, SFMono-Regular, 'SF Mono', Menlo, monospace">1,000</text>

  <!-- x-axis labels -->
  <text x="52.0" y="248" text-anchor="middle" font-size="10" fill="#8c959f" font-family="ui-monospace, SFMono-Regular, 'SF Mono', Menlo, monospace">05-11</text><text x="431.3" y="248" text-anchor="middle" font-size="10" fill="#8c959f" font-family="ui-monospace, SFMono-Regular, 'SF Mono', Menlo, monospace">06-16</text><text x="800.0" y="248" text-anchor="middle" font-size="10" fill="#8c959f" font-family="ui-monospace, SFMono-Regular, 'SF Mono', Menlo, monospace">07-21</text><text x="146.8" y="248" text-anchor="middle" font-size="10" fill="#8c959f" font-family="ui-monospace, SFMono-Regular, 'SF Mono', Menlo, monospace">05-20</text><text x="526.1" y="248" text-anchor="middle" font-size="10" fill="#8c959f" font-family="ui-monospace, SFMono-Regular, 'SF Mono', Menlo, monospace">06-25</text><text x="241.6" y="248" text-anchor="middle" font-size="10" fill="#8c959f" font-family="ui-monospace, SFMono-Regular, 'SF Mono', Menlo, monospace">05-29</text><text x="620.9" y="248" text-anchor="middle" font-size="10" fill="#8c959f" font-family="ui-monospace, SFMono-Regular, 'SF Mono', Menlo, monospace">07-04</text><text x="336.5" y="248" text-anchor="middle" font-size="10" fill="#8c959f" font-family="ui-monospace, SFMono-Regular, 'SF Mono', Menlo, monospace">06-07</text><text x="715.7" y="248" text-anchor="middle" font-size="10" fill="#8c959f" font-family="ui-monospace, SFMono-Regular, 'SF Mono', Menlo, monospace">07-13</text>

  <!-- legend -->
  <rect x="60" y="262" width="16" height="3" fill="#4e79a7" rx="1"/><text x="80" y="268" font-size="11" fill="#57606a" font-family="-apple-system, BlinkMacSystemFont, 'Segoe UI', sans-serif">Total clones (4,995)</text><line x1="230" y1="264" x2="246" y2="264" stroke="#f28e2b" stroke-width="2" stroke-dasharray="5,3"/><text x="250" y="268" font-size="11" fill="#57606a" font-family="-apple-system, BlinkMacSystemFont, 'Segoe UI', sans-serif">Unique cloners</text>

</svg>