<svg xmlns="http://www.w3.org/2000/svg" viewBox="0 0 820 280" width="820" height="280">

  <!-- title -->
  <text x="52" y="18" font-size="13" font-weight="600"
        fill="#24292f" font-family="-apple-system, BlinkMacSystemFont, 'Segoe UI', sans-serif"
        >Clone traffic — orthodox-calendar</text>
  <text x="800" y="18" font-size="10" fill="#8c959f"
        font-family="ui-monospace, SFMono-Regular, 'SF Mono', Menlo, monospace" text-anchor="end">2026-06-25</text>

  <!-- grid -->
  <line x1="52" y1="232.0" x2="800" y2="232.0" stroke="#e8e8e8" stroke-width="1"/><line x1="52" y1="184.9" x2="800" y2="184.9" stroke="#e8e8e8" stroke-width="1"/><line x1="52" y1="137.8" x2="800" y2="137.8" stroke="#e8e8e8" stroke-width="1"/><line x1="52" y1="90.7" x2="800" y2="90.7" stroke="#e8e8e8" stroke-width="1"/><line x1="52" y1="43.5" x2="800" y2="43.5" stroke="#e8e8e8" stroke-width="1"/><line x1="52" y1="-3.6" x2="800" y2="-3.6" stroke="#e8e8e8" stroke-width="1"/>

  <!-- area fill -->
  <path d="M52.0,226.8 L52.0,226.8 L69.4,169.6 L86.8,178.5 L104.2,28.0 L121.6,118.7 L139.0,163.5 L156.4,216.5 L173.8,76.5 L191.2,150.7 L208.6,213.2 L226.0,201.1 L243.3,194.8 L260.7,160.4 L278.1,208.0 L295.5,214.8 L312.9,217.4 L330.3,231.5 L347.7,231.5 L365.1,224.7 L382.5,213.9 L399.9,230.6 L417.3,231.3 L434.7,231.5 L452.1,232.0 L469.5,231.5 L486.9,231.1 L504.3,232.0 L521.7,230.8 L539.1,232.0 L556.5,212.2 L573.9,231.5 L591.3,229.6 L608.7,226.1 L626.0,229.2 L643.4,231.5 L660.8,231.8 L678.2,228.5 L695.6,231.8 L713.0,230.8 L730.4,212.7 L747.8,130.5 L765.2,231.1 L782.6,231.8 L800.0,231.3 L800.0,232.0 L52.0,232.0Z" fill="#4e79a7" opacity="0.12"/>

  <!-- lines -->
  <polyline points="52.0,226.8 69.4,169.6 86.8,178.5 104.2,28.0 121.6,118.7 139.0,163.5 156.4,216.5 173.8,76.5 191.2,150.7 208.6,213.2 226.0,201.1 243.3,194.8 260.7,160.4 278.1,208.0 295.5,214.8 312.9,217.4 330.3,231.5 347.7,231.5 365.1,224.7 382.5,213.9 399.9,230.6 417.3,231.3 434.7,231.5 452.1,232.0 469.5,231.5 486.9,231.1 504.3,232.0 521.7,230.8 539.1,232.0 556.5,212.2 573.9,231.5 591.3,229.6 608.7,226.1 626.0,229.2 643.4,231.5 660.8,231.8 678.2,228.5 695.6,231.8 713.0,230.8 730.4,212.7 747.8,130.5 765.2,231.1 782.6,231.8 800.0,231.3"
            fill="none" stroke="#4e79a7"
            stroke-width="2" stroke-linejoin="round"/>
  <polyline points="52.0,229.4 69.4,202.8 86.8,209.6 104.2,170.0 121.6,193.1 139.0,207.5 156.4,224.9 173.8,188.4 191.2,208.2 208.6,224.9 226.0,223.8 243.3,222.3 260.7,212.7 278.1,225.2 295.5,229.4 312.9,228.2 330.3,231.5 347.7,231.5 365.1,229.4 382.5,226.8 399.9,230.8 417.3,231.5 434.7,231.8 452.1,232.0 469.5,231.8 486.9,231.3 504.3,232.0 521.7,231.3 539.1,232.0 556.5,226.1 573.9,231.5 591.3,230.6 608.7,228.7 626.0,231.1 643.4,231.5 660.8,231.8 678.2,230.6 695.6,231.8 713.0,231.5 730.4,226.8 747.8,217.2 765.2,231.3 782.6,231.8 800.0,231.5"
            fill="none" stroke="#f28e2b"
            stroke-width="2" stroke-linejoin="round"
            stroke-dasharray="5,3"/>

  <!-- dots -->
  <circle cx="52.0" cy="226.8" r="3" fill="#4e79a7"/><circle cx="69.4" cy="169.6" r="3" fill="#4e79a7"/><circle cx="86.8" cy="178.5" r="3" fill="#4e79a7"/><circle cx="104.2" cy="28.0" r="3" fill="#4e79a7"/><circle cx="121.6" cy="118.7" r="3" fill="#4e79a7"/><circle cx="139.0" cy="163.5" r="3" fill="#4e79a7"/><circle cx="156.4" cy="216.5" r="3" fill="#4e79a7"/><circle cx="173.8" cy="76.5" r="3" fill="#4e79a7"/><circle cx="191.2" cy="150.7" r="3" fill="#4e79a7"/><circle cx="208.6" cy="213.2" r="3" fill="#4e79a7"/><circle cx="226.0" cy="201.1" r="3" fill="#4e79a7"/><circle cx="243.3" cy="194.8" r="3" fill="#4e79a7"/><circle cx="260.7" cy="160.4" r="3" fill="#4e79a7"/><circle cx="278.1" cy="208.0" r="3" fill="#4e79a7"/><circle cx="295.5" cy="214.8" r="3" fill="#4e79a7"/><circle cx="312.9" cy="217.4" r="3" fill="#4e79a7"/><circle cx="330.3" cy="231.5" r="3" fill="#4e79a7"/><circle cx="347.7" cy="231.5" r="3" fill="#4e79a7"/><circle cx="365.1" cy="224.7" r="3" fill="#4e79a7"/><circle cx="382.5" cy="213.9" r="3" fill="#4e79a7"/><circle cx="399.9" cy="230.6" r="3" fill="#4e79a7"/><circle cx="417.3" cy="231.3" r="3" fill="#4e79a7"/><circle cx="434.7" cy="231.5" r="3" fill="#4e79a7"/><circle cx="452.1" cy="232.0" r="3" fill="#4e79a7"/><circle cx="469.5" cy="231.5" r="3" fill="#4e79a7"/><circle cx="486.9" cy="231.1" r="3" fill="#4e79a7"/><circle cx="504.3" cy="232.0" r="3" fill="#4e79a7"/><circle cx="521.7" cy="230.8" r="3" fill="#4e79a7"/><circle cx="539.1" cy="232.0" r="3" fill="#4e79a7"/><circle cx="556.5" cy="212.2" r="3" fill="#4e79a7"/><circle cx="573.9" cy="231.5" r="3" fill="#4e79a7"/><circle cx="591.3" cy="229.6" r="3" fill="#4e79a7"/><circle cx="608.7" cy="226.1" r="3" fill="#4e79a7"/><circle cx="626.0" cy="229.2" r="3" fill="#4e79a7"/><circle cx="643.4" cy="231.5" r="3" fill="#4e79a7"/><circle cx="660.8" cy="231.8" r="3" fill="#4e79a7"/><circle cx="678.2" cy="228.5" r="3" fill="#4e79a7"/><circle cx="695.6" cy="231.8" r="3" fill="#4e79a7"/><circle cx="713.0" cy="230.8" r="3" fill="#4e79a7"/><circle cx="730.4" cy="212.7" r="3" fill="#4e79a7"/><circle cx="747.8" cy="130.5" r="3" fill="#4e79a7"/><circle cx="765.2" cy="231.1" r="3" fill="#4e79a7"/><circle cx="782.6" cy="231.8" r="3" fill="#4e79a7"/><circle cx="800.0" cy="231.3" r="3" fill="#4e79a7"/>
  <circle cx="52.0" cy="229.4" r="3" fill="#f28e2b"/><circle cx="69.4" cy="202.8" r="3" fill="#f28e2b"/><circle cx="86.8" cy="209.6" r="3" fill="#f28e2b"/><circle cx="104.2" cy="170.0" r="3" fill="#f28e2b"/><circle cx="121.6" cy="193.1" r="3" fill="#f28e2b"/><circle cx="139.0" cy="207.5" r="3" fill="#f28e2b"/><circle cx="156.4" cy="224.9" r="3" fill="#f28e2b"/><circle cx="173.8" cy="188.4" r="3" fill="#f28e2b"/><circle cx="191.2" cy="208.2" r="3" fill="#f28e2b"/><circle cx="208.6" cy="224.9" r="3" fill="#f28e2b"/><circle cx="226.0" cy="223.8" r="3" fill="#f28e2b"/><circle cx="243.3" cy="222.3" r="3" fill="#f28e2b"/><circle cx="260.7" cy="212.7" r="3" fill="#f28e2b"/><circle cx="278.1" cy="225.2" r="3" fill="#f28e2b"/><circle cx="295.5" cy="229.4" r="3" fill="#f28e2b"/><circle cx="312.9" cy="228.2" r="3" fill="#f28e2b"/><circle cx="330.3" cy="231.5" r="3" fill="#f28e2b"/><circle cx="347.7" cy="231.5" r="3" fill="#f28e2b"/><circle cx="365.1" cy="229.4" r="3" fill="#f28e2b"/><circle cx="382.5" cy="226.8" r="3" fill="#f28e2b"/><circle cx="399.9" cy="230.8" r="3" fill="#f28e2b"/><circle cx="417.3" cy="231.5" r="3" fill="#f28e2b"/><circle cx="434.7" cy="231.8" r="3" fill="#f28e2b"/><circle cx="452.1" cy="232.0" r="3" fill="#f28e2b"/><circle cx="469.5" cy="231.8" r="3" fill="#f28e2b"/><circle cx="486.9" cy="231.3" r="3" fill="#f28e2b"/><circle cx="504.3" cy="232.0" r="3" fill="#f28e2b"/><circle cx="521.7" cy="231.3" r="3" fill="#f28e2b"/><circle cx="539.1" cy="232.0" r="3" fill="#f28e2b"/><circle cx="556.5" cy="226.1" r="3" fill="#f28e2b"/><circle cx="573.9" cy="231.5" r="3" fill="#f28e2b"/><circle cx="591.3" cy="230.6" r="3" fill="#f28e2b"/><circle cx="608.7" cy="228.7" r="3" fill="#f28e2b"/><circle cx="626.0" cy="231.1" r="3" fill="#f28e2b"/><circle cx="643.4" cy="231.5" r="3" fill="#f28e2b"/><circle cx="660.8" cy="231.8" r="3" fill="#f28e2b"/><circle cx="678.2" cy="230.6" r="3" fill="#f28e2b"/><circle cx="695.6" cy="231.8" r="3" fill="#f28e2b"/><circle cx="713.0" cy="231.5" r="3" fill="#f28e2b"/><circle cx="730.4" cy="226.8" r="3" fill="#f28e2b"/><circle cx="747.8" cy="217.2" r="3" fill="#f28e2b"/><circle cx="765.2" cy="231.3" r="3" fill="#f28e2b"/><circle cx="782.6" cy="231.8" r="3" fill="#f28e2b"/><circle cx="800.0" cy="231.5" r="3" fill="#f28e2b"/>

  <!-- axes -->
  <line x1="52" y1="28" x2="52" y2="232"
        stroke="#cccccc" stroke-width="1"/>
  <line x1="52" y1="232" x2="800" y2="232"
        stroke="#cccccc" stroke-width="1"/>

  <!-- y-axis labels -->
  <text x="47" y="236.0" text-anchor="end" font-size="10" fill="#57606a" font-family="ui-monospace, SFMono-Regular, 'SF Mono', Menlo, monospace">0</text><text x="47" y="188.9" text-anchor="end" font-size="10" fill="#57606a" font-family="ui-monospace, SFMono-Regular, 'SF Mono', Menlo, monospace">200</text><text x="47" y="141.8" text-anchor="end" font-size="10" fill="#57606a" font-family="ui-monospace, SFMono-Regular, 'SF Mono', Menlo, monospace">400</text><text x="47" y="94.7" text-anchor="end" font-size="10" fill="#57606a" font-family="ui-monospace, SFMono-Regular, 'SF Mono', Menlo, monospace">600</text><text x="47" y="47.5" text-anchor="end" font-size="10" fill="#57606a" font-family="ui-monospace, SFMono-Regular, 'SF Mono', Menlo, monospace">800</text><text x="47" y="0.4" text-anchor="end" font-size="10" fill="#57606a" font-family="ui-monospace, SFMono-Regular, 'SF Mono', Menlo, monospace">1,000</text>

  <!-- x-axis labels -->
  <text x="52.0" y="248" text-anchor="middle" font-size="10" fill="#8c959f" font-family="ui-monospace, SFMono-Regular, 'SF Mono', Menlo, monospace">05-11</text><text x="660.8" y="248" text-anchor="middle" font-size="10" fill="#8c959f" font-family="ui-monospace, SFMono-Regular, 'SF Mono', Menlo, monospace">06-15</text><text x="139.0" y="248" text-anchor="middle" font-size="10" fill="#8c959f" font-family="ui-monospace, SFMono-Regular, 'SF Mono', Menlo, monospace">05-16</text><text x="747.8" y="248" text-anchor="middle" font-size="10" fill="#8c959f" font-family="ui-monospace, SFMono-Regular, 'SF Mono', Menlo, monospace">06-20</text><text x="226.0" y="248" text-anchor="middle" font-size="10" fill="#8c959f" font-family="ui-monospace, SFMono-Regular, 'SF Mono', Menlo, monospace">05-21</text><text x="800.0" y="248" text-anchor="middle" font-size="10" fill="#8c959f" font-family="ui-monospace, SFMono-Regular, 'SF Mono', Menlo, monospace">06-23</text><text x="312.9" y="248" text-anchor="middle" font-size="10" fill="#8c959f" font-family="ui-monospace, SFMono-Regular, 'SF Mono', Menlo, monospace">05-26</text><text x="399.9" y="248" text-anchor="middle" font-size="10" fill="#8c959f" font-family="ui-monospace, SFMono-Regular, 'SF Mono', Menlo, monospace">05-31</text><text x="486.9" y="248" text-anchor="middle" font-size="10" fill="#8c959f" font-family="ui-monospace, SFMono-Regular, 'SF Mono', Menlo, monospace">06-05</text><text x="573.9" y="248" text-anchor="middle" font-size="10" fill="#8c959f" font-family="ui-monospace, SFMono-Regular, 'SF Mono', Menlo, monospace">06-10</text>

  <!-- legend -->
  <rect x="60" y="262" width="16" height="3" fill="#4e79a7" rx="1"/><text x="80" y="268" font-size="11" fill="#57606a" font-family="-apple-system, BlinkMacSystemFont, 'Segoe UI', sans-serif">Total clones (4,945)</text><line x1="230" y1="264" x2="246" y2="264" stroke="#f28e2b" stroke-width="2" stroke-dasharray="5,3"/><text x="250" y="268" font-size="11" fill="#57606a" font-family="-apple-system, BlinkMacSystemFont, 'Segoe UI', sans-serif">Unique cloners</text>

</svg>