<svg xmlns="http://www.w3.org/2000/svg" viewBox="0 0 820 280" width="820" height="280">

  <!-- title -->
  <text x="52" y="18" font-size="13" font-weight="600"
        fill="#24292f" font-family="-apple-system, BlinkMacSystemFont, 'Segoe UI', sans-serif"
        >Clone traffic — orthodox-calendar</text>
  <text x="800" y="18" font-size="10" fill="#8c959f"
        font-family="ui-monospace, SFMono-Regular, 'SF Mono', Menlo, monospace" text-anchor="end">2026-07-12</text>

  <!-- grid -->
  <line x1="52" y1="232.0" x2="800" y2="232.0" stroke="#e8e8e8" stroke-width="1"/><line x1="52" y1="184.9" x2="800" y2="184.9" stroke="#e8e8e8" stroke-width="1"/><line x1="52" y1="137.8" x2="800" y2="137.8" stroke="#e8e8e8" stroke-width="1"/><line x1="52" y1="90.7" x2="800" y2="90.7" stroke="#e8e8e8" stroke-width="1"/><line x1="52" y1="43.5" x2="800" y2="43.5" stroke="#e8e8e8" stroke-width="1"/><line x1="52" y1="-3.6" x2="800" y2="-3.6" stroke="#e8e8e8" stroke-width="1"/>

  <!-- area fill -->
  <path d="M52.0,226.8 L52.0,226.8 L64.5,169.6 L76.9,178.5 L89.4,28.0 L101.9,118.7 L114.3,163.5 L126.8,216.5 L139.3,76.5 L151.7,150.7 L164.2,213.2 L176.7,201.1 L189.1,194.8 L201.6,160.4 L214.1,208.0 L226.5,214.8 L239.0,217.4 L251.5,231.5 L263.9,231.5 L276.4,224.7 L288.9,213.9 L301.3,230.6 L313.8,231.3 L326.3,231.5 L338.7,232.0 L351.2,231.5 L363.7,231.1 L376.1,232.0 L388.6,230.8 L401.1,232.0 L413.5,212.2 L426.0,231.5 L438.5,229.6 L450.9,226.1 L463.4,229.2 L475.9,231.5 L488.3,231.8 L500.8,228.5 L513.3,231.8 L525.7,230.8 L538.2,212.7 L550.7,130.5 L563.1,231.1 L575.6,231.8 L588.1,231.3 L600.5,231.3 L613.0,232.0 L625.5,231.5 L637.9,232.0 L650.4,231.5 L662.9,231.8 L675.3,231.3 L687.8,231.5 L700.3,232.0 L712.7,232.0 L725.2,231.8 L737.7,232.0 L750.1,232.0 L762.6,232.0 L775.1,232.0 L787.5,231.8 L800.0,231.3 L800.0,232.0 L52.0,232.0Z" fill="#4e79a7" opacity="0.12"/>

  <!-- lines -->
  <polyline points="52.0,226.8 64.5,169.6 76.9,178.5 89.4,28.0 101.9,118.7 114.3,163.5 126.8,216.5 139.3,76.5 151.7,150.7 164.2,213.2 176.7,201.1 189.1,194.8 201.6,160.4 214.1,208.0 226.5,214.8 239.0,217.4 251.5,231.5 263.9,231.5 276.4,224.7 288.9,213.9 301.3,230.6 313.8,231.3 326.3,231.5 338.7,232.0 351.2,231.5 363.7,231.1 376.1,232.0 388.6,230.8 401.1,232.0 413.5,212.2 426.0,231.5 438.5,229.6 450.9,226.1 463.4,229.2 475.9,231.5 488.3,231.8 500.8,228.5 513.3,231.8 525.7,230.8 538.2,212.7 550.7,130.5 563.1,231.1 575.6,231.8 588.1,231.3 600.5,231.3 613.0,232.0 625.5,231.5 637.9,232.0 650.4,231.5 662.9,231.8 675.3,231.3 687.8,231.5 700.3,232.0 712.7,232.0 725.2,231.8 737.7,232.0 750.1,232.0 762.6,232.0 775.1,232.0 787.5,231.8 800.0,231.3"
            fill="none" stroke="#4e79a7"
            stroke-width="2" stroke-linejoin="round"/>
  <polyline points="52.0,229.4 64.5,202.8 76.9,209.6 89.4,170.0 101.9,193.1 114.3,207.5 126.8,224.9 139.3,188.4 151.7,208.2 164.2,224.9 176.7,223.8 189.1,222.3 201.6,212.7 214.1,225.2 226.5,229.4 239.0,228.2 251.5,231.5 263.9,231.5 276.4,229.4 288.9,226.8 301.3,230.8 313.8,231.5 326.3,231.8 338.7,232.0 351.2,231.8 363.7,231.3 376.1,232.0 388.6,231.3 401.1,232.0 413.5,226.1 426.0,231.5 438.5,230.6 450.9,228.7 463.4,231.1 475.9,231.5 488.3,231.8 500.8,230.6 513.3,231.8 525.7,231.5 538.2,226.8 550.7,217.2 563.1,231.3 575.6,231.8 588.1,231.5 600.5,231.5 613.0,232.0 625.5,231.8 637.9,232.0 650.4,231.8 662.9,231.8 675.3,231.5 687.8,231.8 700.3,232.0 712.7,232.0 725.2,231.8 737.7,232.0 750.1,232.0 762.6,232.0 775.1,232.0 787.5,231.8 800.0,231.5"
            fill="none" stroke="#f28e2b"
            stroke-width="2" stroke-linejoin="round"
            stroke-dasharray="5,3"/>

  <!-- dots -->
  <circle cx="52.0" cy="226.8" r="3" fill="#4e79a7"/><circle cx="64.5" cy="169.6" r="3" fill="#4e79a7"/><circle cx="76.9" cy="178.5" r="3" fill="#4e79a7"/><circle cx="89.4" cy="28.0" r="3" fill="#4e79a7"/><circle cx="101.9" cy="118.7" r="3" fill="#4e79a7"/><circle cx="114.3" cy="163.5" r="3" fill="#4e79a7"/><circle cx="126.8" cy="216.5" r="3" fill="#4e79a7"/><circle cx="139.3" cy="76.5" r="3" fill="#4e79a7"/><circle cx="151.7" cy="150.7" r="3" fill="#4e79a7"/><circle cx="164.2" cy="213.2" r="3" fill="#4e79a7"/><circle cx="176.7" cy="201.1" r="3" fill="#4e79a7"/><circle cx="189.1" cy="194.8" r="3" fill="#4e79a7"/><circle cx="201.6" cy="160.4" r="3" fill="#4e79a7"/><circle cx="214.1" cy="208.0" r="3" fill="#4e79a7"/><circle cx="226.5" cy="214.8" r="3" fill="#4e79a7"/><circle cx="239.0" cy="217.4" r="3" fill="#4e79a7"/><circle cx="251.5" cy="231.5" r="3" fill="#4e79a7"/><circle cx="263.9" cy="231.5" r="3" fill="#4e79a7"/><circle cx="276.4" cy="224.7" r="3" fill="#4e79a7"/><circle cx="288.9" cy="213.9" r="3" fill="#4e79a7"/><circle cx="301.3" cy="230.6" r="3" fill="#4e79a7"/><circle cx="313.8" cy="231.3" r="3" fill="#4e79a7"/><circle cx="326.3" cy="231.5" r="3" fill="#4e79a7"/><circle cx="338.7" cy="232.0" r="3" fill="#4e79a7"/><circle cx="351.2" cy="231.5" r="3" fill="#4e79a7"/><circle cx="363.7" cy="231.1" r="3" fill="#4e79a7"/><circle cx="376.1" cy="232.0" r="3" fill="#4e79a7"/><circle cx="388.6" cy="230.8" r="3" fill="#4e79a7"/><circle cx="401.1" cy="232.0" r="3" fill="#4e79a7"/><circle cx="413.5" cy="212.2" r="3" fill="#4e79a7"/><circle cx="426.0" cy="231.5" r="3" fill="#4e79a7"/><circle cx="438.5" cy="229.6" r="3" fill="#4e79a7"/><circle cx="450.9" cy="226.1" r="3" fill="#4e79a7"/><circle cx="463.4" cy="229.2" r="3" fill="#4e79a7"/><circle cx="475.9" cy="231.5" r="3" fill="#4e79a7"/><circle cx="488.3" cy="231.8" r="3" fill="#4e79a7"/><circle cx="500.8" cy="228.5" r="3" fill="#4e79a7"/><circle cx="513.3" cy="231.8" r="3" fill="#4e79a7"/><circle cx="525.7" cy="230.8" r="3" fill="#4e79a7"/><circle cx="538.2" cy="212.7" r="3" fill="#4e79a7"/><circle cx="550.7" cy="130.5" r="3" fill="#4e79a7"/><circle cx="563.1" cy="231.1" r="3" fill="#4e79a7"/><circle cx="575.6" cy="231.8" r="3" fill="#4e79a7"/><circle cx="588.1" cy="231.3" r="3" fill="#4e79a7"/><circle cx="600.5" cy="231.3" r="3" fill="#4e79a7"/><circle cx="613.0" cy="232.0" r="3" fill="#4e79a7"/><circle cx="625.5" cy="231.5" r="3" fill="#4e79a7"/><circle cx="637.9" cy="232.0" r="3" fill="#4e79a7"/><circle cx="650.4" cy="231.5" r="3" fill="#4e79a7"/><circle cx="662.9" cy="231.8" r="3" fill="#4e79a7"/><circle cx="675.3" cy="231.3" r="3" fill="#4e79a7"/><circle cx="687.8" cy="231.5" r="3" fill="#4e79a7"/><circle cx="700.3" cy="232.0" r="3" fill="#4e79a7"/><circle cx="712.7" cy="232.0" r="3" fill="#4e79a7"/><circle cx="725.2" cy="231.8" r="3" fill="#4e79a7"/><circle cx="737.7" cy="232.0" r="3" fill="#4e79a7"/><circle cx="750.1" cy="232.0" r="3" fill="#4e79a7"/><circle cx="762.6" cy="232.0" r="3" fill="#4e79a7"/><circle cx="775.1" cy="232.0" r="3" fill="#4e79a7"/><circle cx="787.5" cy="231.8" r="3" fill="#4e79a7"/><circle cx="800.0" cy="231.3" r="3" fill="#4e79a7"/>
  <circle cx="52.0" cy="229.4" r="3" fill="#f28e2b"/><circle cx="64.5" cy="202.8" r="3" fill="#f28e2b"/><circle cx="76.9" cy="209.6" r="3" fill="#f28e2b"/><circle cx="89.4" cy="170.0" r="3" fill="#f28e2b"/><circle cx="101.9" cy="193.1" r="3" fill="#f28e2b"/><circle cx="114.3" cy="207.5" r="3" fill="#f28e2b"/><circle cx="126.8" cy="224.9" r="3" fill="#f28e2b"/><circle cx="139.3" cy="188.4" r="3" fill="#f28e2b"/><circle cx="151.7" cy="208.2" r="3" fill="#f28e2b"/><circle cx="164.2" cy="224.9" r="3" fill="#f28e2b"/><circle cx="176.7" cy="223.8" r="3" fill="#f28e2b"/><circle cx="189.1" cy="222.3" r="3" fill="#f28e2b"/><circle cx="201.6" cy="212.7" r="3" fill="#f28e2b"/><circle cx="214.1" cy="225.2" r="3" fill="#f28e2b"/><circle cx="226.5" cy="229.4" r="3" fill="#f28e2b"/><circle cx="239.0" cy="228.2" r="3" fill="#f28e2b"/><circle cx="251.5" cy="231.5" r="3" fill="#f28e2b"/><circle cx="263.9" cy="231.5" r="3" fill="#f28e2b"/><circle cx="276.4" cy="229.4" r="3" fill="#f28e2b"/><circle cx="288.9" cy="226.8" r="3" fill="#f28e2b"/><circle cx="301.3" cy="230.8" r="3" fill="#f28e2b"/><circle cx="313.8" cy="231.5" r="3" fill="#f28e2b"/><circle cx="326.3" cy="231.8" r="3" fill="#f28e2b"/><circle cx="338.7" cy="232.0" r="3" fill="#f28e2b"/><circle cx="351.2" cy="231.8" r="3" fill="#f28e2b"/><circle cx="363.7" cy="231.3" r="3" fill="#f28e2b"/><circle cx="376.1" cy="232.0" r="3" fill="#f28e2b"/><circle cx="388.6" cy="231.3" r="3" fill="#f28e2b"/><circle cx="401.1" cy="232.0" r="3" fill="#f28e2b"/><circle cx="413.5" cy="226.1" r="3" fill="#f28e2b"/><circle cx="426.0" cy="231.5" r="3" fill="#f28e2b"/><circle cx="438.5" cy="230.6" r="3" fill="#f28e2b"/><circle cx="450.9" cy="228.7" r="3" fill="#f28e2b"/><circle cx="463.4" cy="231.1" r="3" fill="#f28e2b"/><circle cx="475.9" cy="231.5" r="3" fill="#f28e2b"/><circle cx="488.3" cy="231.8" r="3" fill="#f28e2b"/><circle cx="500.8" cy="230.6" r="3" fill="#f28e2b"/><circle cx="513.3" cy="231.8" r="3" fill="#f28e2b"/><circle cx="525.7" cy="231.5" r="3" fill="#f28e2b"/><circle cx="538.2" cy="226.8" r="3" fill="#f28e2b"/><circle cx="550.7" cy="217.2" r="3" fill="#f28e2b"/><circle cx="563.1" cy="231.3" r="3" fill="#f28e2b"/><circle cx="575.6" cy="231.8" r="3" fill="#f28e2b"/><circle cx="588.1" cy="231.5" r="3" fill="#f28e2b"/><circle cx="600.5" cy="231.5" r="3" fill="#f28e2b"/><circle cx="613.0" cy="232.0" r="3" fill="#f28e2b"/><circle cx="625.5" cy="231.8" r="3" fill="#f28e2b"/><circle cx="637.9" cy="232.0" r="3" fill="#f28e2b"/><circle cx="650.4" cy="231.8" r="3" fill="#f28e2b"/><circle cx="662.9" cy="231.8" r="3" fill="#f28e2b"/><circle cx="675.3" cy="231.5" r="3" fill="#f28e2b"/><circle cx="687.8" cy="231.8" r="3" fill="#f28e2b"/><circle cx="700.3" cy="232.0" r="3" fill="#f28e2b"/><circle cx="712.7" cy="232.0" r="3" fill="#f28e2b"/><circle cx="725.2" cy="231.8" r="3" fill="#f28e2b"/><circle cx="737.7" cy="232.0" r="3" fill="#f28e2b"/><circle cx="750.1" cy="232.0" r="3" fill="#f28e2b"/><circle cx="762.6" cy="232.0" r="3" fill="#f28e2b"/><circle cx="775.1" cy="232.0" r="3" fill="#f28e2b"/><circle cx="787.5" cy="231.8" r="3" fill="#f28e2b"/><circle cx="800.0" cy="231.5" r="3" fill="#f28e2b"/>

  <!-- axes -->
  <line x1="52" y1="28" x2="52" y2="232"
        stroke="#cccccc" stroke-width="1"/>
  <line x1="52" y1="232" x2="800" y2="232"
        stroke="#cccccc" stroke-width="1"/>

  <!-- y-axis labels -->
  <text x="47" y="236.0" text-anchor="end" font-size="10" fill="#57606a" font-family="ui-monospace, SFMono-Regular, 'SF Mono', Menlo, monospace">0</text><text x="47" y="188.9" text-anchor="end" font-size="10" fill="#57606a" font-family="ui-monospace, SFMono-Regular, 'SF Mono', Menlo, monospace">200</text><text x="47" y="141.8" text-anchor="end" font-size="10" fill="#57606a" font-family="ui-monospace, SFMono-Regular, 'SF Mono', Menlo, monospace">400</text><text x="47" y="94.7" text-anchor="end" font-size="10" fill="#57606a" font-family="ui-monospace, SFMono-Regular, 'SF Mono', Menlo, monospace">600</text><text x="47" y="47.5" text-anchor="end" font-size="10" fill="#57606a" font-family="ui-monospace, SFMono-Regular, 'SF Mono', Menlo, monospace">800</text><text x="47" y="0.4" text-anchor="end" font-size="10" fill="#57606a" font-family="ui-monospace, SFMono-Regular, 'SF Mono', Menlo, monospace">1,000</text>

  <!-- x-axis labels -->
  <text x="52.0" y="248" text-anchor="middle" font-size="10" fill="#8c959f" font-family="ui-monospace, SFMono-Regular, 'SF Mono', Menlo, monospace">05-11</text><text x="488.3" y="248" text-anchor="middle" font-size="10" fill="#8c959f" font-family="ui-monospace, SFMono-Regular, 'SF Mono', Menlo, monospace">06-15</text><text x="139.3" y="248" text-anchor="middle" font-size="10" fill="#8c959f" font-family="ui-monospace, SFMono-Regular, 'SF Mono', Menlo, monospace">05-18</text><text x="575.6" y="248" text-anchor="middle" font-size="10" fill="#8c959f" font-family="ui-monospace, SFMono-Regular, 'SF Mono', Menlo, monospace">06-22</text><text x="226.5" y="248" text-anchor="middle" font-size="10" fill="#8c959f" font-family="ui-monospace, SFMono-Regular, 'SF Mono', Menlo, monospace">05-25</text><text x="800.0" y="248" text-anchor="middle" font-size="10" fill="#8c959f" font-family="ui-monospace, SFMono-Regular, 'SF Mono', Menlo, monospace">07-10</text><text x="662.9" y="248" text-anchor="middle" font-size="10" fill="#8c959f" font-family="ui-monospace, SFMono-Regular, 'SF Mono', Menlo, monospace">06-29</text><text x="313.8" y="248" text-anchor="middle" font-size="10" fill="#8c959f" font-family="ui-monospace, SFMono-Regular, 'SF Mono', Menlo, monospace">06-01</text><text x="750.1" y="248" text-anchor="middle" font-size="10" fill="#8c959f" font-family="ui-monospace, SFMono-Regular, 'SF Mono', Menlo, monospace">07-06</text><text x="401.1" y="248" text-anchor="middle" font-size="10" fill="#8c959f" font-family="ui-monospace, SFMono-Regular, 'SF Mono', Menlo, monospace">06-08</text>

  <!-- legend -->
  <rect x="60" y="262" width="16" height="3" fill="#4e79a7" rx="1"/><text x="80" y="268" font-size="11" fill="#57606a" font-family="-apple-system, BlinkMacSystemFont, 'Segoe UI', sans-serif">Total clones (4,963)</text><line x1="230" y1="264" x2="246" y2="264" stroke="#f28e2b" stroke-width="2" stroke-dasharray="5,3"/><text x="250" y="268" font-size="11" fill="#57606a" font-family="-apple-system, BlinkMacSystemFont, 'Segoe UI', sans-serif">Unique cloners</text>

</svg>