<svg xmlns="http://www.w3.org/2000/svg" viewBox="0 0 820 280" width="820" height="280">

  <!-- title -->
  <text x="52" y="18" font-size="13" font-weight="600"
        fill="#24292f" font-family="-apple-system, BlinkMacSystemFont, 'Segoe UI', sans-serif"
        >Clone traffic — orthodox-calendar</text>
  <text x="800" y="18" font-size="10" fill="#8c959f"
        font-family="ui-monospace, SFMono-Regular, 'SF Mono', Menlo, monospace" text-anchor="end">2026-06-24</text>

  <!-- grid -->
  <line x1="52" y1="232.0" x2="800" y2="232.0" stroke="#e8e8e8" stroke-width="1"/><line x1="52" y1="184.9" x2="800" y2="184.9" stroke="#e8e8e8" stroke-width="1"/><line x1="52" y1="137.8" x2="800" y2="137.8" stroke="#e8e8e8" stroke-width="1"/><line x1="52" y1="90.7" x2="800" y2="90.7" stroke="#e8e8e8" stroke-width="1"/><line x1="52" y1="43.5" x2="800" y2="43.5" stroke="#e8e8e8" stroke-width="1"/><line x1="52" y1="-3.6" x2="800" y2="-3.6" stroke="#e8e8e8" stroke-width="1"/>

  <!-- area fill -->
  <path d="M52.0,226.8 L52.0,226.8 L69.8,169.6 L87.6,178.5 L105.4,28.0 L123.2,118.7 L141.0,163.5 L158.9,216.5 L176.7,76.5 L194.5,150.7 L212.3,213.2 L230.1,201.1 L247.9,194.8 L265.7,160.4 L283.5,208.0 L301.3,214.8 L319.1,217.4 L337.0,231.5 L354.8,231.5 L372.6,224.7 L390.4,213.9 L408.2,230.6 L426.0,231.3 L443.8,231.5 L461.6,232.0 L479.4,231.5 L497.2,231.1 L515.0,232.0 L532.9,230.8 L550.7,232.0 L568.5,212.2 L586.3,231.5 L604.1,229.6 L621.9,226.1 L639.7,229.2 L657.5,231.5 L675.3,231.8 L693.1,228.5 L711.0,231.8 L728.8,230.8 L746.6,212.7 L764.4,130.5 L782.2,231.1 L800.0,231.8 L800.0,232.0 L52.0,232.0Z" fill="#4e79a7" opacity="0.12"/>

  <!-- lines -->
  <polyline points="52.0,226.8 69.8,169.6 87.6,178.5 105.4,28.0 123.2,118.7 141.0,163.5 158.9,216.5 176.7,76.5 194.5,150.7 212.3,213.2 230.1,201.1 247.9,194.8 265.7,160.4 283.5,208.0 301.3,214.8 319.1,217.4 337.0,231.5 354.8,231.5 372.6,224.7 390.4,213.9 408.2,230.6 426.0,231.3 443.8,231.5 461.6,232.0 479.4,231.5 497.2,231.1 515.0,232.0 532.9,230.8 550.7,232.0 568.5,212.2 586.3,231.5 604.1,229.6 621.9,226.1 639.7,229.2 657.5,231.5 675.3,231.8 693.1,228.5 711.0,231.8 728.8,230.8 746.6,212.7 764.4,130.5 782.2,231.1 800.0,231.8"
            fill="none" stroke="#4e79a7"
            stroke-width="2" stroke-linejoin="round"/>
  <polyline points="52.0,229.4 69.8,202.8 87.6,209.6 105.4,170.0 123.2,193.1 141.0,207.5 158.9,224.9 176.7,188.4 194.5,208.2 212.3,224.9 230.1,223.8 247.9,222.3 265.7,212.7 283.5,225.2 301.3,229.4 319.1,228.2 337.0,231.5 354.8,231.5 372.6,229.4 390.4,226.8 408.2,230.8 426.0,231.5 443.8,231.8 461.6,232.0 479.4,231.8 497.2,231.3 515.0,232.0 532.9,231.3 550.7,232.0 568.5,226.1 586.3,231.5 604.1,230.6 621.9,228.7 639.7,231.1 657.5,231.5 675.3,231.8 693.1,230.6 711.0,231.8 728.8,231.5 746.6,226.8 764.4,217.2 782.2,231.3 800.0,231.8"
            fill="none" stroke="#f28e2b"
            stroke-width="2" stroke-linejoin="round"
            stroke-dasharray="5,3"/>

  <!-- dots -->
  <circle cx="52.0" cy="226.8" r="3" fill="#4e79a7"/><circle cx="69.8" cy="169.6" r="3" fill="#4e79a7"/><circle cx="87.6" cy="178.5" r="3" fill="#4e79a7"/><circle cx="105.4" cy="28.0" r="3" fill="#4e79a7"/><circle cx="123.2" cy="118.7" r="3" fill="#4e79a7"/><circle cx="141.0" cy="163.5" r="3" fill="#4e79a7"/><circle cx="158.9" cy="216.5" r="3" fill="#4e79a7"/><circle cx="176.7" cy="76.5" r="3" fill="#4e79a7"/><circle cx="194.5" cy="150.7" r="3" fill="#4e79a7"/><circle cx="212.3" cy="213.2" r="3" fill="#4e79a7"/><circle cx="230.1" cy="201.1" r="3" fill="#4e79a7"/><circle cx="247.9" cy="194.8" r="3" fill="#4e79a7"/><circle cx="265.7" cy="160.4" r="3" fill="#4e79a7"/><circle cx="283.5" cy="208.0" r="3" fill="#4e79a7"/><circle cx="301.3" cy="214.8" r="3" fill="#4e79a7"/><circle cx="319.1" cy="217.4" r="3" fill="#4e79a7"/><circle cx="337.0" cy="231.5" r="3" fill="#4e79a7"/><circle cx="354.8" cy="231.5" r="3" fill="#4e79a7"/><circle cx="372.6" cy="224.7" r="3" fill="#4e79a7"/><circle cx="390.4" cy="213.9" r="3" fill="#4e79a7"/><circle cx="408.2" cy="230.6" r="3" fill="#4e79a7"/><circle cx="426.0" cy="231.3" r="3" fill="#4e79a7"/><circle cx="443.8" cy="231.5" r="3" fill="#4e79a7"/><circle cx="461.6" cy="232.0" r="3" fill="#4e79a7"/><circle cx="479.4" cy="231.5" r="3" fill="#4e79a7"/><circle cx="497.2" cy="231.1" r="3" fill="#4e79a7"/><circle cx="515.0" cy="232.0" r="3" fill="#4e79a7"/><circle cx="532.9" cy="230.8" r="3" fill="#4e79a7"/><circle cx="550.7" cy="232.0" r="3" fill="#4e79a7"/><circle cx="568.5" cy="212.2" r="3" fill="#4e79a7"/><circle cx="586.3" cy="231.5" r="3" fill="#4e79a7"/><circle cx="604.1" cy="229.6" r="3" fill="#4e79a7"/><circle cx="621.9" cy="226.1" r="3" fill="#4e79a7"/><circle cx="639.7" cy="229.2" r="3" fill="#4e79a7"/><circle cx="657.5" cy="231.5" r="3" fill="#4e79a7"/><circle cx="675.3" cy="231.8" r="3" fill="#4e79a7"/><circle cx="693.1" cy="228.5" r="3" fill="#4e79a7"/><circle cx="711.0" cy="231.8" r="3" fill="#4e79a7"/><circle cx="728.8" cy="230.8" r="3" fill="#4e79a7"/><circle cx="746.6" cy="212.7" r="3" fill="#4e79a7"/><circle cx="764.4" cy="130.5" r="3" fill="#4e79a7"/><circle cx="782.2" cy="231.1" r="3" fill="#4e79a7"/><circle cx="800.0" cy="231.8" r="3" fill="#4e79a7"/>
  <circle cx="52.0" cy="229.4" r="3" fill="#f28e2b"/><circle cx="69.8" cy="202.8" r="3" fill="#f28e2b"/><circle cx="87.6" cy="209.6" r="3" fill="#f28e2b"/><circle cx="105.4" cy="170.0" r="3" fill="#f28e2b"/><circle cx="123.2" cy="193.1" r="3" fill="#f28e2b"/><circle cx="141.0" cy="207.5" r="3" fill="#f28e2b"/><circle cx="158.9" cy="224.9" r="3" fill="#f28e2b"/><circle cx="176.7" cy="188.4" r="3" fill="#f28e2b"/><circle cx="194.5" cy="208.2" r="3" fill="#f28e2b"/><circle cx="212.3" cy="224.9" r="3" fill="#f28e2b"/><circle cx="230.1" cy="223.8" r="3" fill="#f28e2b"/><circle cx="247.9" cy="222.3" r="3" fill="#f28e2b"/><circle cx="265.7" cy="212.7" r="3" fill="#f28e2b"/><circle cx="283.5" cy="225.2" r="3" fill="#f28e2b"/><circle cx="301.3" cy="229.4" r="3" fill="#f28e2b"/><circle cx="319.1" cy="228.2" r="3" fill="#f28e2b"/><circle cx="337.0" cy="231.5" r="3" fill="#f28e2b"/><circle cx="354.8" cy="231.5" r="3" fill="#f28e2b"/><circle cx="372.6" cy="229.4" r="3" fill="#f28e2b"/><circle cx="390.4" cy="226.8" r="3" fill="#f28e2b"/><circle cx="408.2" cy="230.8" r="3" fill="#f28e2b"/><circle cx="426.0" cy="231.5" r="3" fill="#f28e2b"/><circle cx="443.8" cy="231.8" r="3" fill="#f28e2b"/><circle cx="461.6" cy="232.0" r="3" fill="#f28e2b"/><circle cx="479.4" cy="231.8" r="3" fill="#f28e2b"/><circle cx="497.2" cy="231.3" r="3" fill="#f28e2b"/><circle cx="515.0" cy="232.0" r="3" fill="#f28e2b"/><circle cx="532.9" cy="231.3" r="3" fill="#f28e2b"/><circle cx="550.7" cy="232.0" r="3" fill="#f28e2b"/><circle cx="568.5" cy="226.1" r="3" fill="#f28e2b"/><circle cx="586.3" cy="231.5" r="3" fill="#f28e2b"/><circle cx="604.1" cy="230.6" r="3" fill="#f28e2b"/><circle cx="621.9" cy="228.7" r="3" fill="#f28e2b"/><circle cx="639.7" cy="231.1" r="3" fill="#f28e2b"/><circle cx="657.5" cy="231.5" r="3" fill="#f28e2b"/><circle cx="675.3" cy="231.8" r="3" fill="#f28e2b"/><circle cx="693.1" cy="230.6" r="3" fill="#f28e2b"/><circle cx="711.0" cy="231.8" r="3" fill="#f28e2b"/><circle cx="728.8" cy="231.5" r="3" fill="#f28e2b"/><circle cx="746.6" cy="226.8" r="3" fill="#f28e2b"/><circle cx="764.4" cy="217.2" r="3" fill="#f28e2b"/><circle cx="782.2" cy="231.3" r="3" fill="#f28e2b"/><circle cx="800.0" cy="231.8" r="3" fill="#f28e2b"/>

  <!-- axes -->
  <line x1="52" y1="28" x2="52" y2="232"
        stroke="#cccccc" stroke-width="1"/>
  <line x1="52" y1="232" x2="800" y2="232"
        stroke="#cccccc" stroke-width="1"/>

  <!-- y-axis labels -->
  <text x="47" y="236.0" text-anchor="end" font-size="10" fill="#57606a" font-family="ui-monospace, SFMono-Regular, 'SF Mono', Menlo, monospace">0</text><text x="47" y="188.9" text-anchor="end" font-size="10" fill="#57606a" font-family="ui-monospace, SFMono-Regular, 'SF Mono', Menlo, monospace">200</text><text x="47" y="141.8" text-anchor="end" font-size="10" fill="#57606a" font-family="ui-monospace, SFMono-Regular, 'SF Mono', Menlo, monospace">400</text><text x="47" y="94.7" text-anchor="end" font-size="10" fill="#57606a" font-family="ui-monospace, SFMono-Regular, 'SF Mono', Menlo, monospace">600</text><text x="47" y="47.5" text-anchor="end" font-size="10" fill="#57606a" font-family="ui-monospace, SFMono-Regular, 'SF Mono', Menlo, monospace">800</text><text x="47" y="0.4" text-anchor="end" font-size="10" fill="#57606a" font-family="ui-monospace, SFMono-Regular, 'SF Mono', Menlo, monospace">1,000</text>

  <!-- x-axis labels -->
  <text x="52.0" y="248" text-anchor="middle" font-size="10" fill="#8c959f" font-family="ui-monospace, SFMono-Regular, 'SF Mono', Menlo, monospace">05-11</text><text x="675.3" y="248" text-anchor="middle" font-size="10" fill="#8c959f" font-family="ui-monospace, SFMono-Regular, 'SF Mono', Menlo, monospace">06-15</text><text x="141.0" y="248" text-anchor="middle" font-size="10" fill="#8c959f" font-family="ui-monospace, SFMono-Regular, 'SF Mono', Menlo, monospace">05-16</text><text x="764.4" y="248" text-anchor="middle" font-size="10" fill="#8c959f" font-family="ui-monospace, SFMono-Regular, 'SF Mono', Menlo, monospace">06-20</text><text x="230.1" y="248" text-anchor="middle" font-size="10" fill="#8c959f" font-family="ui-monospace, SFMono-Regular, 'SF Mono', Menlo, monospace">05-21</text><text x="800.0" y="248" text-anchor="middle" font-size="10" fill="#8c959f" font-family="ui-monospace, SFMono-Regular, 'SF Mono', Menlo, monospace">06-22</text><text x="319.1" y="248" text-anchor="middle" font-size="10" fill="#8c959f" font-family="ui-monospace, SFMono-Regular, 'SF Mono', Menlo, monospace">05-26</text><text x="408.2" y="248" text-anchor="middle" font-size="10" fill="#8c959f" font-family="ui-monospace, SFMono-Regular, 'SF Mono', Menlo, monospace">05-31</text><text x="497.2" y="248" text-anchor="middle" font-size="10" fill="#8c959f" font-family="ui-monospace, SFMono-Regular, 'SF Mono', Menlo, monospace">06-05</text><text x="586.3" y="248" text-anchor="middle" font-size="10" fill="#8c959f" font-family="ui-monospace, SFMono-Regular, 'SF Mono', Menlo, monospace">06-10</text>

  <!-- legend -->
  <rect x="60" y="262" width="16" height="3" fill="#4e79a7" rx="1"/><text x="80" y="268" font-size="11" fill="#57606a" font-family="-apple-system, BlinkMacSystemFont, 'Segoe UI', sans-serif">Total clones (4,942)</text><line x1="230" y1="264" x2="246" y2="264" stroke="#f28e2b" stroke-width="2" stroke-dasharray="5,3"/><text x="250" y="268" font-size="11" fill="#57606a" font-family="-apple-system, BlinkMacSystemFont, 'Segoe UI', sans-serif">Unique cloners</text>

</svg>