<svg xmlns="http://www.w3.org/2000/svg" viewBox="0 0 820 280" width="820" height="280">

  <!-- title -->
  <text x="52" y="18" font-size="13" font-weight="600"
        fill="#24292f" font-family="-apple-system, BlinkMacSystemFont, 'Segoe UI', sans-serif"
        >Clone traffic — orthodox-calendar</text>
  <text x="800" y="18" font-size="10" fill="#8c959f"
        font-family="ui-monospace, SFMono-Regular, 'SF Mono', Menlo, monospace" text-anchor="end">2026-06-05</text>

  <!-- grid -->
  <line x1="52" y1="232.0" x2="800" y2="232.0" stroke="#e8e8e8" stroke-width="1"/><line x1="52" y1="184.9" x2="800" y2="184.9" stroke="#e8e8e8" stroke-width="1"/><line x1="52" y1="137.8" x2="800" y2="137.8" stroke="#e8e8e8" stroke-width="1"/><line x1="52" y1="90.7" x2="800" y2="90.7" stroke="#e8e8e8" stroke-width="1"/><line x1="52" y1="43.5" x2="800" y2="43.5" stroke="#e8e8e8" stroke-width="1"/><line x1="52" y1="-3.6" x2="800" y2="-3.6" stroke="#e8e8e8" stroke-width="1"/>

  <!-- area fill -->
  <path d="M52.0,226.8 L52.0,226.8 L84.5,169.6 L117.0,178.5 L149.6,28.0 L182.1,118.7 L214.6,163.5 L247.1,216.5 L279.7,76.5 L312.2,150.7 L344.7,213.2 L377.2,201.1 L409.7,194.8 L442.3,160.4 L474.8,208.0 L507.3,214.8 L539.8,217.4 L572.3,231.5 L604.9,231.5 L637.4,224.7 L669.9,213.9 L702.4,230.6 L735.0,231.3 L767.5,231.5 L800.0,232.0 L800.0,232.0 L52.0,232.0Z" fill="#4e79a7" opacity="0.12"/>

  <!-- lines -->
  <polyline points="52.0,226.8 84.5,169.6 117.0,178.5 149.6,28.0 182.1,118.7 214.6,163.5 247.1,216.5 279.7,76.5 312.2,150.7 344.7,213.2 377.2,201.1 409.7,194.8 442.3,160.4 474.8,208.0 507.3,214.8 539.8,217.4 572.3,231.5 604.9,231.5 637.4,224.7 669.9,213.9 702.4,230.6 735.0,231.3 767.5,231.5 800.0,232.0"
            fill="none" stroke="#4e79a7"
            stroke-width="2" stroke-linejoin="round"/>
  <polyline points="52.0,229.4 84.5,202.8 117.0,209.6 149.6,170.0 182.1,193.1 214.6,207.5 247.1,224.9 279.7,188.4 312.2,208.2 344.7,224.9 377.2,223.8 409.7,222.3 442.3,212.7 474.8,225.2 507.3,229.4 539.8,228.2 572.3,231.5 604.9,231.5 637.4,229.4 669.9,226.8 702.4,230.8 735.0,231.5 767.5,231.8 800.0,232.0"
            fill="none" stroke="#f28e2b"
            stroke-width="2" stroke-linejoin="round"
            stroke-dasharray="5,3"/>

  <!-- dots -->
  <circle cx="52.0" cy="226.8" r="3" fill="#4e79a7"/><circle cx="84.5" cy="169.6" r="3" fill="#4e79a7"/><circle cx="117.0" cy="178.5" r="3" fill="#4e79a7"/><circle cx="149.6" cy="28.0" r="3" fill="#4e79a7"/><circle cx="182.1" cy="118.7" r="3" fill="#4e79a7"/><circle cx="214.6" cy="163.5" r="3" fill="#4e79a7"/><circle cx="247.1" cy="216.5" r="3" fill="#4e79a7"/><circle cx="279.7" cy="76.5" r="3" fill="#4e79a7"/><circle cx="312.2" cy="150.7" r="3" fill="#4e79a7"/><circle cx="344.7" cy="213.2" r="3" fill="#4e79a7"/><circle cx="377.2" cy="201.1" r="3" fill="#4e79a7"/><circle cx="409.7" cy="194.8" r="3" fill="#4e79a7"/><circle cx="442.3" cy="160.4" r="3" fill="#4e79a7"/><circle cx="474.8" cy="208.0" r="3" fill="#4e79a7"/><circle cx="507.3" cy="214.8" r="3" fill="#4e79a7"/><circle cx="539.8" cy="217.4" r="3" fill="#4e79a7"/><circle cx="572.3" cy="231.5" r="3" fill="#4e79a7"/><circle cx="604.9" cy="231.5" r="3" fill="#4e79a7"/><circle cx="637.4" cy="224.7" r="3" fill="#4e79a7"/><circle cx="669.9" cy="213.9" r="3" fill="#4e79a7"/><circle cx="702.4" cy="230.6" r="3" fill="#4e79a7"/><circle cx="735.0" cy="231.3" r="3" fill="#4e79a7"/><circle cx="767.5" cy="231.5" r="3" fill="#4e79a7"/><circle cx="800.0" cy="232.0" r="3" fill="#4e79a7"/>
  <circle cx="52.0" cy="229.4" r="3" fill="#f28e2b"/><circle cx="84.5" cy="202.8" r="3" fill="#f28e2b"/><circle cx="117.0" cy="209.6" r="3" fill="#f28e2b"/><circle cx="149.6" cy="170.0" r="3" fill="#f28e2b"/><circle cx="182.1" cy="193.1" r="3" fill="#f28e2b"/><circle cx="214.6" cy="207.5" r="3" fill="#f28e2b"/><circle cx="247.1" cy="224.9" r="3" fill="#f28e2b"/><circle cx="279.7" cy="188.4" r="3" fill="#f28e2b"/><circle cx="312.2" cy="208.2" r="3" fill="#f28e2b"/><circle cx="344.7" cy="224.9" r="3" fill="#f28e2b"/><circle cx="377.2" cy="223.8" r="3" fill="#f28e2b"/><circle cx="409.7" cy="222.3" r="3" fill="#f28e2b"/><circle cx="442.3" cy="212.7" r="3" fill="#f28e2b"/><circle cx="474.8" cy="225.2" r="3" fill="#f28e2b"/><circle cx="507.3" cy="229.4" r="3" fill="#f28e2b"/><circle cx="539.8" cy="228.2" r="3" fill="#f28e2b"/><circle cx="572.3" cy="231.5" r="3" fill="#f28e2b"/><circle cx="604.9" cy="231.5" r="3" fill="#f28e2b"/><circle cx="637.4" cy="229.4" r="3" fill="#f28e2b"/><circle cx="669.9" cy="226.8" r="3" fill="#f28e2b"/><circle cx="702.4" cy="230.8" r="3" fill="#f28e2b"/><circle cx="735.0" cy="231.5" r="3" fill="#f28e2b"/><circle cx="767.5" cy="231.8" r="3" fill="#f28e2b"/><circle cx="800.0" cy="232.0" r="3" fill="#f28e2b"/>

  <!-- axes -->
  <line x1="52" y1="28" x2="52" y2="232"
        stroke="#cccccc" stroke-width="1"/>
  <line x1="52" y1="232" x2="800" y2="232"
        stroke="#cccccc" stroke-width="1"/>

  <!-- y-axis labels -->
  <text x="47" y="236.0" text-anchor="end" font-size="10" fill="#57606a" font-family="ui-monospace, SFMono-Regular, 'SF Mono', Menlo, monospace">0</text><text x="47" y="188.9" text-anchor="end" font-size="10" fill="#57606a" font-family="ui-monospace, SFMono-Regular, 'SF Mono', Menlo, monospace">200</text><text x="47" y="141.8" text-anchor="end" font-size="10" fill="#57606a" font-family="ui-monospace, SFMono-Regular, 'SF Mono', Menlo, monospace">400</text><text x="47" y="94.7" text-anchor="end" font-size="10" fill="#57606a" font-family="ui-monospace, SFMono-Regular, 'SF Mono', Menlo, monospace">600</text><text x="47" y="47.5" text-anchor="end" font-size="10" fill="#57606a" font-family="ui-monospace, SFMono-Regular, 'SF Mono', Menlo, monospace">800</text><text x="47" y="0.4" text-anchor="end" font-size="10" fill="#57606a" font-family="ui-monospace, SFMono-Regular, 'SF Mono', Menlo, monospace">1,000</text>

  <!-- x-axis labels -->
  <text x="52.0" y="248" text-anchor="middle" font-size="10" fill="#8c959f" font-family="ui-monospace, SFMono-Regular, 'SF Mono', Menlo, monospace">05-11</text><text x="149.6" y="248" text-anchor="middle" font-size="10" fill="#8c959f" font-family="ui-monospace, SFMono-Regular, 'SF Mono', Menlo, monospace">05-14</text><text x="247.1" y="248" text-anchor="middle" font-size="10" fill="#8c959f" font-family="ui-monospace, SFMono-Regular, 'SF Mono', Menlo, monospace">05-17</text><text x="344.7" y="248" text-anchor="middle" font-size="10" fill="#8c959f" font-family="ui-monospace, SFMono-Regular, 'SF Mono', Menlo, monospace">05-20</text><text x="442.3" y="248" text-anchor="middle" font-size="10" fill="#8c959f" font-family="ui-monospace, SFMono-Regular, 'SF Mono', Menlo, monospace">05-23</text><text x="539.8" y="248" text-anchor="middle" font-size="10" fill="#8c959f" font-family="ui-monospace, SFMono-Regular, 'SF Mono', Menlo, monospace">05-26</text><text x="637.4" y="248" text-anchor="middle" font-size="10" fill="#8c959f" font-family="ui-monospace, SFMono-Regular, 'SF Mono', Menlo, monospace">05-29</text><text x="735.0" y="248" text-anchor="middle" font-size="10" fill="#8c959f" font-family="ui-monospace, SFMono-Regular, 'SF Mono', Menlo, monospace">06-01</text><text x="800.0" y="248" text-anchor="middle" font-size="10" fill="#8c959f" font-family="ui-monospace, SFMono-Regular, 'SF Mono', Menlo, monospace">06-03</text>

  <!-- legend -->
  <rect x="60" y="262" width="16" height="3" fill="#4e79a7" rx="1"/><text x="80" y="268" font-size="11" fill="#57606a" font-family="-apple-system, BlinkMacSystemFont, 'Segoe UI', sans-serif">Total clones (4,256)</text><line x1="230" y1="264" x2="246" y2="264" stroke="#f28e2b" stroke-width="2" stroke-dasharray="5,3"/><text x="250" y="268" font-size="11" fill="#57606a" font-family="-apple-system, BlinkMacSystemFont, 'Segoe UI', sans-serif">Unique cloners</text>

</svg>