<svg xmlns="http://www.w3.org/2000/svg" viewBox="0 0 820 280" width="820" height="280">

  <!-- title -->
  <text x="52" y="18" font-size="13" font-weight="600"
        fill="#24292f" font-family="-apple-system, BlinkMacSystemFont, 'Segoe UI', sans-serif"
        >Clone traffic — orthodox-calendar</text>
  <text x="800" y="18" font-size="10" fill="#8c959f"
        font-family="ui-monospace, SFMono-Regular, 'SF Mono', Menlo, monospace" text-anchor="end">2026-07-20</text>

  <!-- grid -->
  <line x1="52" y1="232.0" x2="800" y2="232.0" stroke="#e8e8e8" stroke-width="1"/><line x1="52" y1="184.9" x2="800" y2="184.9" stroke="#e8e8e8" stroke-width="1"/><line x1="52" y1="137.8" x2="800" y2="137.8" stroke="#e8e8e8" stroke-width="1"/><line x1="52" y1="90.7" x2="800" y2="90.7" stroke="#e8e8e8" stroke-width="1"/><line x1="52" y1="43.5" x2="800" y2="43.5" stroke="#e8e8e8" stroke-width="1"/><line x1="52" y1="-3.6" x2="800" y2="-3.6" stroke="#e8e8e8" stroke-width="1"/>

  <!-- area fill -->
  <path d="M52.0,226.8 L52.0,226.8 L63.0,169.6 L74.0,178.5 L85.0,28.0 L96.0,118.7 L107.0,163.5 L118.0,216.5 L129.0,76.5 L140.0,150.7 L151.0,213.2 L162.0,201.1 L173.0,194.8 L184.0,160.4 L195.0,208.0 L206.0,214.8 L217.0,217.4 L228.0,231.5 L239.0,231.5 L250.0,224.7 L261.0,213.9 L272.0,230.6 L283.0,231.3 L294.0,231.5 L305.0,232.0 L316.0,231.5 L327.0,231.1 L338.0,232.0 L349.0,230.8 L360.0,232.0 L371.0,212.2 L382.0,231.5 L393.0,229.6 L404.0,226.1 L415.0,229.2 L426.0,231.5 L437.0,231.8 L448.0,228.5 L459.0,231.8 L470.0,230.8 L481.0,212.7 L492.0,130.5 L503.0,231.1 L514.0,231.8 L525.0,231.3 L536.0,231.3 L547.0,232.0 L558.0,231.5 L569.0,232.0 L580.0,231.5 L591.0,231.8 L602.0,231.3 L613.0,231.5 L624.0,232.0 L635.0,232.0 L646.0,231.8 L657.0,232.0 L668.0,232.0 L679.0,232.0 L690.0,232.0 L701.0,231.8 L712.0,231.3 L723.0,232.0 L734.0,232.0 L745.0,231.5 L756.0,232.0 L767.0,232.0 L778.0,231.5 L789.0,231.8 L800.0,226.1 L800.0,232.0 L52.0,232.0Z" fill="#4e79a7" opacity="0.12"/>

  <!-- lines -->
  <polyline points="52.0,226.8 63.0,169.6 74.0,178.5 85.0,28.0 96.0,118.7 107.0,163.5 118.0,216.5 129.0,76.5 140.0,150.7 151.0,213.2 162.0,201.1 173.0,194.8 184.0,160.4 195.0,208.0 206.0,214.8 217.0,217.4 228.0,231.5 239.0,231.5 250.0,224.7 261.0,213.9 272.0,230.6 283.0,231.3 294.0,231.5 305.0,232.0 316.0,231.5 327.0,231.1 338.0,232.0 349.0,230.8 360.0,232.0 371.0,212.2 382.0,231.5 393.0,229.6 404.0,226.1 415.0,229.2 426.0,231.5 437.0,231.8 448.0,228.5 459.0,231.8 470.0,230.8 481.0,212.7 492.0,130.5 503.0,231.1 514.0,231.8 525.0,231.3 536.0,231.3 547.0,232.0 558.0,231.5 569.0,232.0 580.0,231.5 591.0,231.8 602.0,231.3 613.0,231.5 624.0,232.0 635.0,232.0 646.0,231.8 657.0,232.0 668.0,232.0 679.0,232.0 690.0,232.0 701.0,231.8 712.0,231.3 723.0,232.0 734.0,232.0 745.0,231.5 756.0,232.0 767.0,232.0 778.0,231.5 789.0,231.8 800.0,226.1"
            fill="none" stroke="#4e79a7"
            stroke-width="2" stroke-linejoin="round"/>
  <polyline points="52.0,229.4 63.0,202.8 74.0,209.6 85.0,170.0 96.0,193.1 107.0,207.5 118.0,224.9 129.0,188.4 140.0,208.2 151.0,224.9 162.0,223.8 173.0,222.3 184.0,212.7 195.0,225.2 206.0,229.4 217.0,228.2 228.0,231.5 239.0,231.5 250.0,229.4 261.0,226.8 272.0,230.8 283.0,231.5 294.0,231.8 305.0,232.0 316.0,231.8 327.0,231.3 338.0,232.0 349.0,231.3 360.0,232.0 371.0,226.1 382.0,231.5 393.0,230.6 404.0,228.7 415.0,231.1 426.0,231.5 437.0,231.8 448.0,230.6 459.0,231.8 470.0,231.5 481.0,226.8 492.0,217.2 503.0,231.3 514.0,231.8 525.0,231.5 536.0,231.5 547.0,232.0 558.0,231.8 569.0,232.0 580.0,231.8 591.0,231.8 602.0,231.5 613.0,231.8 624.0,232.0 635.0,232.0 646.0,231.8 657.0,232.0 668.0,232.0 679.0,232.0 690.0,232.0 701.0,231.8 712.0,231.5 723.0,232.0 734.0,232.0 745.0,231.8 756.0,232.0 767.0,232.0 778.0,231.5 789.0,231.8 800.0,231.3"
            fill="none" stroke="#f28e2b"
            stroke-width="2" stroke-linejoin="round"
            stroke-dasharray="5,3"/>

  <!-- dots -->
  <circle cx="52.0" cy="226.8" r="3" fill="#4e79a7"/><circle cx="63.0" cy="169.6" r="3" fill="#4e79a7"/><circle cx="74.0" cy="178.5" r="3" fill="#4e79a7"/><circle cx="85.0" cy="28.0" r="3" fill="#4e79a7"/><circle cx="96.0" cy="118.7" r="3" fill="#4e79a7"/><circle cx="107.0" cy="163.5" r="3" fill="#4e79a7"/><circle cx="118.0" cy="216.5" r="3" fill="#4e79a7"/><circle cx="129.0" cy="76.5" r="3" fill="#4e79a7"/><circle cx="140.0" cy="150.7" r="3" fill="#4e79a7"/><circle cx="151.0" cy="213.2" r="3" fill="#4e79a7"/><circle cx="162.0" cy="201.1" r="3" fill="#4e79a7"/><circle cx="173.0" cy="194.8" r="3" fill="#4e79a7"/><circle cx="184.0" cy="160.4" r="3" fill="#4e79a7"/><circle cx="195.0" cy="208.0" r="3" fill="#4e79a7"/><circle cx="206.0" cy="214.8" r="3" fill="#4e79a7"/><circle cx="217.0" cy="217.4" r="3" fill="#4e79a7"/><circle cx="228.0" cy="231.5" r="3" fill="#4e79a7"/><circle cx="239.0" cy="231.5" r="3" fill="#4e79a7"/><circle cx="250.0" cy="224.7" r="3" fill="#4e79a7"/><circle cx="261.0" cy="213.9" r="3" fill="#4e79a7"/><circle cx="272.0" cy="230.6" r="3" fill="#4e79a7"/><circle cx="283.0" cy="231.3" r="3" fill="#4e79a7"/><circle cx="294.0" cy="231.5" r="3" fill="#4e79a7"/><circle cx="305.0" cy="232.0" r="3" fill="#4e79a7"/><circle cx="316.0" cy="231.5" r="3" fill="#4e79a7"/><circle cx="327.0" cy="231.1" r="3" fill="#4e79a7"/><circle cx="338.0" cy="232.0" r="3" fill="#4e79a7"/><circle cx="349.0" cy="230.8" r="3" fill="#4e79a7"/><circle cx="360.0" cy="232.0" r="3" fill="#4e79a7"/><circle cx="371.0" cy="212.2" r="3" fill="#4e79a7"/><circle cx="382.0" cy="231.5" r="3" fill="#4e79a7"/><circle cx="393.0" cy="229.6" r="3" fill="#4e79a7"/><circle cx="404.0" cy="226.1" r="3" fill="#4e79a7"/><circle cx="415.0" cy="229.2" r="3" fill="#4e79a7"/><circle cx="426.0" cy="231.5" r="3" fill="#4e79a7"/><circle cx="437.0" cy="231.8" r="3" fill="#4e79a7"/><circle cx="448.0" cy="228.5" r="3" fill="#4e79a7"/><circle cx="459.0" cy="231.8" r="3" fill="#4e79a7"/><circle cx="470.0" cy="230.8" r="3" fill="#4e79a7"/><circle cx="481.0" cy="212.7" r="3" fill="#4e79a7"/><circle cx="492.0" cy="130.5" r="3" fill="#4e79a7"/><circle cx="503.0" cy="231.1" r="3" fill="#4e79a7"/><circle cx="514.0" cy="231.8" r="3" fill="#4e79a7"/><circle cx="525.0" cy="231.3" r="3" fill="#4e79a7"/><circle cx="536.0" cy="231.3" r="3" fill="#4e79a7"/><circle cx="547.0" cy="232.0" r="3" fill="#4e79a7"/><circle cx="558.0" cy="231.5" r="3" fill="#4e79a7"/><circle cx="569.0" cy="232.0" r="3" fill="#4e79a7"/><circle cx="580.0" cy="231.5" r="3" fill="#4e79a7"/><circle cx="591.0" cy="231.8" r="3" fill="#4e79a7"/><circle cx="602.0" cy="231.3" r="3" fill="#4e79a7"/><circle cx="613.0" cy="231.5" r="3" fill="#4e79a7"/><circle cx="624.0" cy="232.0" r="3" fill="#4e79a7"/><circle cx="635.0" cy="232.0" r="3" fill="#4e79a7"/><circle cx="646.0" cy="231.8" r="3" fill="#4e79a7"/><circle cx="657.0" cy="232.0" r="3" fill="#4e79a7"/><circle cx="668.0" cy="232.0" r="3" fill="#4e79a7"/><circle cx="679.0" cy="232.0" r="3" fill="#4e79a7"/><circle cx="690.0" cy="232.0" r="3" fill="#4e79a7"/><circle cx="701.0" cy="231.8" r="3" fill="#4e79a7"/><circle cx="712.0" cy="231.3" r="3" fill="#4e79a7"/><circle cx="723.0" cy="232.0" r="3" fill="#4e79a7"/><circle cx="734.0" cy="232.0" r="3" fill="#4e79a7"/><circle cx="745.0" cy="231.5" r="3" fill="#4e79a7"/><circle cx="756.0" cy="232.0" r="3" fill="#4e79a7"/><circle cx="767.0" cy="232.0" r="3" fill="#4e79a7"/><circle cx="778.0" cy="231.5" r="3" fill="#4e79a7"/><circle cx="789.0" cy="231.8" r="3" fill="#4e79a7"/><circle cx="800.0" cy="226.1" r="3" fill="#4e79a7"/>
  <circle cx="52.0" cy="229.4" r="3" fill="#f28e2b"/><circle cx="63.0" cy="202.8" r="3" fill="#f28e2b"/><circle cx="74.0" cy="209.6" r="3" fill="#f28e2b"/><circle cx="85.0" cy="170.0" r="3" fill="#f28e2b"/><circle cx="96.0" cy="193.1" r="3" fill="#f28e2b"/><circle cx="107.0" cy="207.5" r="3" fill="#f28e2b"/><circle cx="118.0" cy="224.9" r="3" fill="#f28e2b"/><circle cx="129.0" cy="188.4" r="3" fill="#f28e2b"/><circle cx="140.0" cy="208.2" r="3" fill="#f28e2b"/><circle cx="151.0" cy="224.9" r="3" fill="#f28e2b"/><circle cx="162.0" cy="223.8" r="3" fill="#f28e2b"/><circle cx="173.0" cy="222.3" r="3" fill="#f28e2b"/><circle cx="184.0" cy="212.7" r="3" fill="#f28e2b"/><circle cx="195.0" cy="225.2" r="3" fill="#f28e2b"/><circle cx="206.0" cy="229.4" r="3" fill="#f28e2b"/><circle cx="217.0" cy="228.2" r="3" fill="#f28e2b"/><circle cx="228.0" cy="231.5" r="3" fill="#f28e2b"/><circle cx="239.0" cy="231.5" r="3" fill="#f28e2b"/><circle cx="250.0" cy="229.4" r="3" fill="#f28e2b"/><circle cx="261.0" cy="226.8" r="3" fill="#f28e2b"/><circle cx="272.0" cy="230.8" r="3" fill="#f28e2b"/><circle cx="283.0" cy="231.5" r="3" fill="#f28e2b"/><circle cx="294.0" cy="231.8" r="3" fill="#f28e2b"/><circle cx="305.0" cy="232.0" r="3" fill="#f28e2b"/><circle cx="316.0" cy="231.8" r="3" fill="#f28e2b"/><circle cx="327.0" cy="231.3" r="3" fill="#f28e2b"/><circle cx="338.0" cy="232.0" r="3" fill="#f28e2b"/><circle cx="349.0" cy="231.3" r="3" fill="#f28e2b"/><circle cx="360.0" cy="232.0" r="3" fill="#f28e2b"/><circle cx="371.0" cy="226.1" r="3" fill="#f28e2b"/><circle cx="382.0" cy="231.5" r="3" fill="#f28e2b"/><circle cx="393.0" cy="230.6" r="3" fill="#f28e2b"/><circle cx="404.0" cy="228.7" r="3" fill="#f28e2b"/><circle cx="415.0" cy="231.1" r="3" fill="#f28e2b"/><circle cx="426.0" cy="231.5" r="3" fill="#f28e2b"/><circle cx="437.0" cy="231.8" r="3" fill="#f28e2b"/><circle cx="448.0" cy="230.6" r="3" fill="#f28e2b"/><circle cx="459.0" cy="231.8" r="3" fill="#f28e2b"/><circle cx="470.0" cy="231.5" r="3" fill="#f28e2b"/><circle cx="481.0" cy="226.8" r="3" fill="#f28e2b"/><circle cx="492.0" cy="217.2" r="3" fill="#f28e2b"/><circle cx="503.0" cy="231.3" r="3" fill="#f28e2b"/><circle cx="514.0" cy="231.8" r="3" fill="#f28e2b"/><circle cx="525.0" cy="231.5" r="3" fill="#f28e2b"/><circle cx="536.0" cy="231.5" r="3" fill="#f28e2b"/><circle cx="547.0" cy="232.0" r="3" fill="#f28e2b"/><circle cx="558.0" cy="231.8" r="3" fill="#f28e2b"/><circle cx="569.0" cy="232.0" r="3" fill="#f28e2b"/><circle cx="580.0" cy="231.8" r="3" fill="#f28e2b"/><circle cx="591.0" cy="231.8" r="3" fill="#f28e2b"/><circle cx="602.0" cy="231.5" r="3" fill="#f28e2b"/><circle cx="613.0" cy="231.8" r="3" fill="#f28e2b"/><circle cx="624.0" cy="232.0" r="3" fill="#f28e2b"/><circle cx="635.0" cy="232.0" r="3" fill="#f28e2b"/><circle cx="646.0" cy="231.8" r="3" fill="#f28e2b"/><circle cx="657.0" cy="232.0" r="3" fill="#f28e2b"/><circle cx="668.0" cy="232.0" r="3" fill="#f28e2b"/><circle cx="679.0" cy="232.0" r="3" fill="#f28e2b"/><circle cx="690.0" cy="232.0" r="3" fill="#f28e2b"/><circle cx="701.0" cy="231.8" r="3" fill="#f28e2b"/><circle cx="712.0" cy="231.5" r="3" fill="#f28e2b"/><circle cx="723.0" cy="232.0" r="3" fill="#f28e2b"/><circle cx="734.0" cy="232.0" r="3" fill="#f28e2b"/><circle cx="745.0" cy="231.8" r="3" fill="#f28e2b"/><circle cx="756.0" cy="232.0" r="3" fill="#f28e2b"/><circle cx="767.0" cy="232.0" r="3" fill="#f28e2b"/><circle cx="778.0" cy="231.5" r="3" fill="#f28e2b"/><circle cx="789.0" cy="231.8" r="3" fill="#f28e2b"/><circle cx="800.0" cy="231.3" r="3" fill="#f28e2b"/>

  <!-- axes -->
  <line x1="52" y1="28" x2="52" y2="232"
        stroke="#cccccc" stroke-width="1"/>
  <line x1="52" y1="232" x2="800" y2="232"
        stroke="#cccccc" stroke-width="1"/>

  <!-- y-axis labels -->
  <text x="47" y="236.0" text-anchor="end" font-size="10" fill="#57606a" font-family="ui-monospace, SFMono-Regular, 'SF Mono', Menlo, monospace">0</text><text x="47" y="188.9" text-anchor="end" font-size="10" fill="#57606a" font-family="ui-monospace, SFMono-Regular, 'SF Mono', Menlo, monospace">200</text><text x="47" y="141.8" text-anchor="end" font-size="10" fill="#57606a" font-family="ui-monospace, SFMono-Regular, 'SF Mono', Menlo, monospace">400</text><text x="47" y="94.7" text-anchor="end" font-size="10" fill="#57606a" font-family="ui-monospace, SFMono-Regular, 'SF Mono', Menlo, monospace">600</text><text x="47" y="47.5" text-anchor="end" font-size="10" fill="#57606a" font-family="ui-monospace, SFMono-Regular, 'SF Mono', Menlo, monospace">800</text><text x="47" y="0.4" text-anchor="end" font-size="10" fill="#57606a" font-family="ui-monospace, SFMono-Regular, 'SF Mono', Menlo, monospace">1,000</text>

  <!-- x-axis labels -->
  <text x="52.0" y="248" text-anchor="middle" font-size="10" fill="#8c959f" font-family="ui-monospace, SFMono-Regular, 'SF Mono', Menlo, monospace">05-11</text><text x="404.0" y="248" text-anchor="middle" font-size="10" fill="#8c959f" font-family="ui-monospace, SFMono-Regular, 'SF Mono', Menlo, monospace">06-12</text><text x="756.0" y="248" text-anchor="middle" font-size="10" fill="#8c959f" font-family="ui-monospace, SFMono-Regular, 'SF Mono', Menlo, monospace">07-14</text><text x="800.0" y="248" text-anchor="middle" font-size="10" fill="#8c959f" font-family="ui-monospace, SFMono-Regular, 'SF Mono', Menlo, monospace">07-18</text><text x="140.0" y="248" text-anchor="middle" font-size="10" fill="#8c959f" font-family="ui-monospace, SFMono-Regular, 'SF Mono', Menlo, monospace">05-19</text><text x="492.0" y="248" text-anchor="middle" font-size="10" fill="#8c959f" font-family="ui-monospace, SFMono-Regular, 'SF Mono', Menlo, monospace">06-20</text><text x="228.0" y="248" text-anchor="middle" font-size="10" fill="#8c959f" font-family="ui-monospace, SFMono-Regular, 'SF Mono', Menlo, monospace">05-27</text><text x="580.0" y="248" text-anchor="middle" font-size="10" fill="#8c959f" font-family="ui-monospace, SFMono-Regular, 'SF Mono', Menlo, monospace">06-28</text><text x="316.0" y="248" text-anchor="middle" font-size="10" fill="#8c959f" font-family="ui-monospace, SFMono-Regular, 'SF Mono', Menlo, monospace">06-04</text><text x="668.0" y="248" text-anchor="middle" font-size="10" fill="#8c959f" font-family="ui-monospace, SFMono-Regular, 'SF Mono', Menlo, monospace">07-06</text>

  <!-- legend -->
  <rect x="60" y="262" width="16" height="3" fill="#4e79a7" rx="1"/><text x="80" y="268" font-size="11" fill="#57606a" font-family="-apple-system, BlinkMacSystemFont, 'Segoe UI', sans-serif">Total clones (4,993)</text><line x1="230" y1="264" x2="246" y2="264" stroke="#f28e2b" stroke-width="2" stroke-dasharray="5,3"/><text x="250" y="268" font-size="11" fill="#57606a" font-family="-apple-system, BlinkMacSystemFont, 'Segoe UI', sans-serif">Unique cloners</text>

</svg>