<svg xmlns="http://www.w3.org/2000/svg" viewBox="0 0 820 280" width="820" height="280">

  <!-- title -->
  <text x="52" y="18" font-size="13" font-weight="600"
        fill="#24292f" font-family="-apple-system, BlinkMacSystemFont, 'Segoe UI', sans-serif"
        >Clone traffic — PravKal</text>
  <text x="800" y="18" font-size="10" fill="#8c959f"
        font-family="ui-monospace, SFMono-Regular, 'SF Mono', Menlo, monospace" text-anchor="end">2026-07-21</text>

  <!-- grid -->
  <line x1="52" y1="232.0" x2="800" y2="232.0" stroke="#e8e8e8" stroke-width="1"/><line x1="52" y1="189.2" x2="800" y2="189.2" stroke="#e8e8e8" stroke-width="1"/><line x1="52" y1="146.4" x2="800" y2="146.4" stroke="#e8e8e8" stroke-width="1"/><line x1="52" y1="103.6" x2="800" y2="103.6" stroke="#e8e8e8" stroke-width="1"/><line x1="52" y1="60.8" x2="800" y2="60.8" stroke="#e8e8e8" stroke-width="1"/><line x1="52" y1="18.0" x2="800" y2="18.0" stroke="#e8e8e8" stroke-width="1"/>

  <!-- area fill -->
  <path d="M52.0,232.0 L52.0,232.0 L66.4,232.0 L80.8,232.0 L95.2,232.0 L109.5,232.0 L123.9,232.0 L138.3,232.0 L152.7,232.0 L167.1,232.0 L181.5,232.0 L195.8,232.0 L210.2,232.0 L224.6,231.3 L239.0,170.7 L253.4,225.6 L267.8,204.2 L282.2,208.5 L296.5,230.6 L310.9,223.4 L325.3,232.0 L339.7,232.0 L354.1,219.9 L368.5,229.1 L382.8,232.0 L397.2,215.6 L411.6,28.0 L426.0,225.6 L440.4,230.6 L454.8,232.0 L469.2,229.9 L483.5,232.0 L497.9,230.6 L512.3,230.6 L526.7,232.0 L541.1,229.9 L555.5,232.0 L569.8,231.3 L584.2,232.0 L598.6,232.0 L613.0,231.3 L627.4,229.1 L641.8,230.6 L656.2,227.0 L670.5,232.0 L684.9,231.3 L699.3,230.6 L713.7,232.0 L728.1,231.3 L742.5,232.0 L756.8,232.0 L771.2,231.3 L785.6,232.0 L800.0,231.3 L800.0,232.0 L52.0,232.0Z" fill="#4e79a7" opacity="0.12"/>

  <!-- lines -->
  <polyline points="52.0,232.0 66.4,232.0 80.8,232.0 95.2,232.0 109.5,232.0 123.9,232.0 138.3,232.0 152.7,232.0 167.1,232.0 181.5,232.0 195.8,232.0 210.2,232.0 224.6,231.3 239.0,170.7 253.4,225.6 267.8,204.2 282.2,208.5 296.5,230.6 310.9,223.4 325.3,232.0 339.7,232.0 354.1,219.9 368.5,229.1 382.8,232.0 397.2,215.6 411.6,28.0 426.0,225.6 440.4,230.6 454.8,232.0 469.2,229.9 483.5,232.0 497.9,230.6 512.3,230.6 526.7,232.0 541.1,229.9 555.5,232.0 569.8,231.3 584.2,232.0 598.6,232.0 613.0,231.3 627.4,229.1 641.8,230.6 656.2,227.0 670.5,232.0 684.9,231.3 699.3,230.6 713.7,232.0 728.1,231.3 742.5,232.0 756.8,232.0 771.2,231.3 785.6,232.0 800.0,231.3"
            fill="none" stroke="#4e79a7"
            stroke-width="2" stroke-linejoin="round"/>
  <polyline points="52.0,232.0 66.4,232.0 80.8,232.0 95.2,232.0 109.5,232.0 123.9,232.0 138.3,232.0 152.7,232.0 167.1,232.0 181.5,232.0 195.8,232.0 210.2,232.0 224.6,231.3 239.0,207.7 253.4,225.6 267.8,216.3 282.2,218.4 296.5,230.6 310.9,231.3 325.3,232.0 339.7,232.0 354.1,223.4 368.5,229.1 382.8,232.0 397.2,223.4 411.6,148.5 426.0,225.6 440.4,230.6 454.8,232.0 469.2,229.9 483.5,232.0 497.9,230.6 512.3,230.6 526.7,232.0 541.1,229.9 555.5,232.0 569.8,231.3 584.2,232.0 598.6,232.0 613.0,231.3 627.4,231.3 641.8,230.6 656.2,231.3 670.5,232.0 684.9,231.3 699.3,230.6 713.7,232.0 728.1,231.3 742.5,232.0 756.8,232.0 771.2,231.3 785.6,232.0 800.0,231.3"
            fill="none" stroke="#f28e2b"
            stroke-width="2" stroke-linejoin="round"
            stroke-dasharray="5,3"/>

  <!-- dots -->
  <circle cx="52.0" cy="232.0" r="3" fill="#4e79a7"/><circle cx="66.4" cy="232.0" r="3" fill="#4e79a7"/><circle cx="80.8" cy="232.0" r="3" fill="#4e79a7"/><circle cx="95.2" cy="232.0" r="3" fill="#4e79a7"/><circle cx="109.5" cy="232.0" r="3" fill="#4e79a7"/><circle cx="123.9" cy="232.0" r="3" fill="#4e79a7"/><circle cx="138.3" cy="232.0" r="3" fill="#4e79a7"/><circle cx="152.7" cy="232.0" r="3" fill="#4e79a7"/><circle cx="167.1" cy="232.0" r="3" fill="#4e79a7"/><circle cx="181.5" cy="232.0" r="3" fill="#4e79a7"/><circle cx="195.8" cy="232.0" r="3" fill="#4e79a7"/><circle cx="210.2" cy="232.0" r="3" fill="#4e79a7"/><circle cx="224.6" cy="231.3" r="3" fill="#4e79a7"/><circle cx="239.0" cy="170.7" r="3" fill="#4e79a7"/><circle cx="253.4" cy="225.6" r="3" fill="#4e79a7"/><circle cx="267.8" cy="204.2" r="3" fill="#4e79a7"/><circle cx="282.2" cy="208.5" r="3" fill="#4e79a7"/><circle cx="296.5" cy="230.6" r="3" fill="#4e79a7"/><circle cx="310.9" cy="223.4" r="3" fill="#4e79a7"/><circle cx="325.3" cy="232.0" r="3" fill="#4e79a7"/><circle cx="339.7" cy="232.0" r="3" fill="#4e79a7"/><circle cx="354.1" cy="219.9" r="3" fill="#4e79a7"/><circle cx="368.5" cy="229.1" r="3" fill="#4e79a7"/><circle cx="382.8" cy="232.0" r="3" fill="#4e79a7"/><circle cx="397.2" cy="215.6" r="3" fill="#4e79a7"/><circle cx="411.6" cy="28.0" r="3" fill="#4e79a7"/><circle cx="426.0" cy="225.6" r="3" fill="#4e79a7"/><circle cx="440.4" cy="230.6" r="3" fill="#4e79a7"/><circle cx="454.8" cy="232.0" r="3" fill="#4e79a7"/><circle cx="469.2" cy="229.9" r="3" fill="#4e79a7"/><circle cx="483.5" cy="232.0" r="3" fill="#4e79a7"/><circle cx="497.9" cy="230.6" r="3" fill="#4e79a7"/><circle cx="512.3" cy="230.6" r="3" fill="#4e79a7"/><circle cx="526.7" cy="232.0" r="3" fill="#4e79a7"/><circle cx="541.1" cy="229.9" r="3" fill="#4e79a7"/><circle cx="555.5" cy="232.0" r="3" fill="#4e79a7"/><circle cx="569.8" cy="231.3" r="3" fill="#4e79a7"/><circle cx="584.2" cy="232.0" r="3" fill="#4e79a7"/><circle cx="598.6" cy="232.0" r="3" fill="#4e79a7"/><circle cx="613.0" cy="231.3" r="3" fill="#4e79a7"/><circle cx="627.4" cy="229.1" r="3" fill="#4e79a7"/><circle cx="641.8" cy="230.6" r="3" fill="#4e79a7"/><circle cx="656.2" cy="227.0" r="3" fill="#4e79a7"/><circle cx="670.5" cy="232.0" r="3" fill="#4e79a7"/><circle cx="684.9" cy="231.3" r="3" fill="#4e79a7"/><circle cx="699.3" cy="230.6" r="3" fill="#4e79a7"/><circle cx="713.7" cy="232.0" r="3" fill="#4e79a7"/><circle cx="728.1" cy="231.3" r="3" fill="#4e79a7"/><circle cx="742.5" cy="232.0" r="3" fill="#4e79a7"/><circle cx="756.8" cy="232.0" r="3" fill="#4e79a7"/><circle cx="771.2" cy="231.3" r="3" fill="#4e79a7"/><circle cx="785.6" cy="232.0" r="3" fill="#4e79a7"/><circle cx="800.0" cy="231.3" r="3" fill="#4e79a7"/>
  <circle cx="52.0" cy="232.0" r="3" fill="#f28e2b"/><circle cx="66.4" cy="232.0" r="3" fill="#f28e2b"/><circle cx="80.8" cy="232.0" r="3" fill="#f28e2b"/><circle cx="95.2" cy="232.0" r="3" fill="#f28e2b"/><circle cx="109.5" cy="232.0" r="3" fill="#f28e2b"/><circle cx="123.9" cy="232.0" r="3" fill="#f28e2b"/><circle cx="138.3" cy="232.0" r="3" fill="#f28e2b"/><circle cx="152.7" cy="232.0" r="3" fill="#f28e2b"/><circle cx="167.1" cy="232.0" r="3" fill="#f28e2b"/><circle cx="181.5" cy="232.0" r="3" fill="#f28e2b"/><circle cx="195.8" cy="232.0" r="3" fill="#f28e2b"/><circle cx="210.2" cy="232.0" r="3" fill="#f28e2b"/><circle cx="224.6" cy="231.3" r="3" fill="#f28e2b"/><circle cx="239.0" cy="207.7" r="3" fill="#f28e2b"/><circle cx="253.4" cy="225.6" r="3" fill="#f28e2b"/><circle cx="267.8" cy="216.3" r="3" fill="#f28e2b"/><circle cx="282.2" cy="218.4" r="3" fill="#f28e2b"/><circle cx="296.5" cy="230.6" r="3" fill="#f28e2b"/><circle cx="310.9" cy="231.3" r="3" fill="#f28e2b"/><circle cx="325.3" cy="232.0" r="3" fill="#f28e2b"/><circle cx="339.7" cy="232.0" r="3" fill="#f28e2b"/><circle cx="354.1" cy="223.4" r="3" fill="#f28e2b"/><circle cx="368.5" cy="229.1" r="3" fill="#f28e2b"/><circle cx="382.8" cy="232.0" r="3" fill="#f28e2b"/><circle cx="397.2" cy="223.4" r="3" fill="#f28e2b"/><circle cx="411.6" cy="148.5" r="3" fill="#f28e2b"/><circle cx="426.0" cy="225.6" r="3" fill="#f28e2b"/><circle cx="440.4" cy="230.6" r="3" fill="#f28e2b"/><circle cx="454.8" cy="232.0" r="3" fill="#f28e2b"/><circle cx="469.2" cy="229.9" r="3" fill="#f28e2b"/><circle cx="483.5" cy="232.0" r="3" fill="#f28e2b"/><circle cx="497.9" cy="230.6" r="3" fill="#f28e2b"/><circle cx="512.3" cy="230.6" r="3" fill="#f28e2b"/><circle cx="526.7" cy="232.0" r="3" fill="#f28e2b"/><circle cx="541.1" cy="229.9" r="3" fill="#f28e2b"/><circle cx="555.5" cy="232.0" r="3" fill="#f28e2b"/><circle cx="569.8" cy="231.3" r="3" fill="#f28e2b"/><circle cx="584.2" cy="232.0" r="3" fill="#f28e2b"/><circle cx="598.6" cy="232.0" r="3" fill="#f28e2b"/><circle cx="613.0" cy="231.3" r="3" fill="#f28e2b"/><circle cx="627.4" cy="231.3" r="3" fill="#f28e2b"/><circle cx="641.8" cy="230.6" r="3" fill="#f28e2b"/><circle cx="656.2" cy="231.3" r="3" fill="#f28e2b"/><circle cx="670.5" cy="232.0" r="3" fill="#f28e2b"/><circle cx="684.9" cy="231.3" r="3" fill="#f28e2b"/><circle cx="699.3" cy="230.6" r="3" fill="#f28e2b"/><circle cx="713.7" cy="232.0" r="3" fill="#f28e2b"/><circle cx="728.1" cy="231.3" r="3" fill="#f28e2b"/><circle cx="742.5" cy="232.0" r="3" fill="#f28e2b"/><circle cx="756.8" cy="232.0" r="3" fill="#f28e2b"/><circle cx="771.2" cy="231.3" r="3" fill="#f28e2b"/><circle cx="785.6" cy="232.0" r="3" fill="#f28e2b"/><circle cx="800.0" cy="231.3" r="3" fill="#f28e2b"/>

  <!-- axes -->
  <line x1="52" y1="28" x2="52" y2="232"
        stroke="#cccccc" stroke-width="1"/>
  <line x1="52" y1="232" x2="800" y2="232"
        stroke="#cccccc" stroke-width="1"/>

  <!-- y-axis labels -->
  <text x="47" y="236.0" text-anchor="end" font-size="10" fill="#57606a" font-family="ui-monospace, SFMono-Regular, 'SF Mono', Menlo, monospace">0</text><text x="47" y="193.2" text-anchor="end" font-size="10" fill="#57606a" font-family="ui-monospace, SFMono-Regular, 'SF Mono', Menlo, monospace">60</text><text x="47" y="150.4" text-anchor="end" font-size="10" fill="#57606a" font-family="ui-monospace, SFMono-Regular, 'SF Mono', Menlo, monospace">120</text><text x="47" y="107.6" text-anchor="end" font-size="10" fill="#57606a" font-family="ui-monospace, SFMono-Regular, 'SF Mono', Menlo, monospace">180</text><text x="47" y="64.8" text-anchor="end" font-size="10" fill="#57606a" font-family="ui-monospace, SFMono-Regular, 'SF Mono', Menlo, monospace">240</text><text x="47" y="22.0" text-anchor="end" font-size="10" fill="#57606a" font-family="ui-monospace, SFMono-Regular, 'SF Mono', Menlo, monospace">300</text>

  <!-- x-axis labels -->
  <text x="52.0" y="248" text-anchor="middle" font-size="10" fill="#8c959f" font-family="ui-monospace, SFMono-Regular, 'SF Mono', Menlo, monospace">05-28</text><text x="569.8" y="248" text-anchor="middle" font-size="10" fill="#8c959f" font-family="ui-monospace, SFMono-Regular, 'SF Mono', Menlo, monospace">07-03</text><text x="138.3" y="248" text-anchor="middle" font-size="10" fill="#8c959f" font-family="ui-monospace, SFMono-Regular, 'SF Mono', Menlo, monospace">06-03</text><text x="656.2" y="248" text-anchor="middle" font-size="10" fill="#8c959f" font-family="ui-monospace, SFMono-Regular, 'SF Mono', Menlo, monospace">07-09</text><text x="224.6" y="248" text-anchor="middle" font-size="10" fill="#8c959f" font-family="ui-monospace, SFMono-Regular, 'SF Mono', Menlo, monospace">06-09</text><text x="742.5" y="248" text-anchor="middle" font-size="10" fill="#8c959f" font-family="ui-monospace, SFMono-Regular, 'SF Mono', Menlo, monospace">07-15</text><text x="310.9" y="248" text-anchor="middle" font-size="10" fill="#8c959f" font-family="ui-monospace, SFMono-Regular, 'SF Mono', Menlo, monospace">06-15</text><text x="800.0" y="248" text-anchor="middle" font-size="10" fill="#8c959f" font-family="ui-monospace, SFMono-Regular, 'SF Mono', Menlo, monospace">07-19</text><text x="397.2" y="248" text-anchor="middle" font-size="10" fill="#8c959f" font-family="ui-monospace, SFMono-Regular, 'SF Mono', Menlo, monospace">06-21</text><text x="483.5" y="248" text-anchor="middle" font-size="10" fill="#8c959f" font-family="ui-monospace, SFMono-Regular, 'SF Mono', Menlo, monospace">06-27</text>

  <!-- legend -->
  <rect x="60" y="262" width="16" height="3" fill="#4e79a7" rx="1"/><text x="80" y="268" font-size="11" fill="#57606a" font-family="-apple-system, BlinkMacSystemFont, 'Segoe UI', sans-serif">Total clones (554)</text><line x1="230" y1="264" x2="246" y2="264" stroke="#f28e2b" stroke-width="2" stroke-dasharray="5,3"/><text x="250" y="268" font-size="11" fill="#57606a" font-family="-apple-system, BlinkMacSystemFont, 'Segoe UI', sans-serif">Unique cloners</text>

</svg>