<svg xmlns="http://www.w3.org/2000/svg" viewBox="0 0 820 280" width="820" height="280">

  <!-- title -->
  <text x="52" y="18" font-size="13" font-weight="600"
        fill="#24292f" font-family="-apple-system, BlinkMacSystemFont, 'Segoe UI', sans-serif"
        >Clone traffic — PravKal</text>
  <text x="800" y="18" font-size="10" fill="#8c959f"
        font-family="ui-monospace, SFMono-Regular, 'SF Mono', Menlo, monospace" text-anchor="end">2026-06-21</text>

  <!-- grid -->
  <line x1="52" y1="232.0" x2="800" y2="232.0" stroke="#e8e8e8" stroke-width="1"/><line x1="52" y1="184.6" x2="800" y2="184.6" stroke="#e8e8e8" stroke-width="1"/><line x1="52" y1="137.1" x2="800" y2="137.1" stroke="#e8e8e8" stroke-width="1"/><line x1="52" y1="89.7" x2="800" y2="89.7" stroke="#e8e8e8" stroke-width="1"/><line x1="52" y1="42.2" x2="800" y2="42.2" stroke="#e8e8e8" stroke-width="1"/><line x1="52" y1="-5.2" x2="800" y2="-5.2" stroke="#e8e8e8" stroke-width="1"/>

  <!-- area fill -->
  <path d="M52.0,232.0 L52.0,232.0 L86.0,232.0 L120.0,232.0 L154.0,232.0 L188.0,232.0 L222.0,232.0 L256.0,232.0 L290.0,232.0 L324.0,232.0 L358.0,232.0 L392.0,232.0 L426.0,232.0 L460.0,229.6 L494.0,28.0 L528.0,210.7 L562.0,139.5 L596.0,153.7 L630.0,227.3 L664.0,203.5 L698.0,232.0 L732.0,232.0 L766.0,191.7 L800.0,222.5 L800.0,232.0 L52.0,232.0Z" fill="#4e79a7" opacity="0.12"/>

  <!-- lines -->
  <polyline points="52.0,232.0 86.0,232.0 120.0,232.0 154.0,232.0 188.0,232.0 222.0,232.0 256.0,232.0 290.0,232.0 324.0,232.0 358.0,232.0 392.0,232.0 426.0,232.0 460.0,229.6 494.0,28.0 528.0,210.7 562.0,139.5 596.0,153.7 630.0,227.3 664.0,203.5 698.0,232.0 732.0,232.0 766.0,191.7 800.0,222.5"
            fill="none" stroke="#4e79a7"
            stroke-width="2" stroke-linejoin="round"/>
  <polyline points="52.0,232.0 86.0,232.0 120.0,232.0 154.0,232.0 188.0,232.0 222.0,232.0 256.0,232.0 290.0,232.0 324.0,232.0 358.0,232.0 392.0,232.0 426.0,232.0 460.0,229.6 494.0,151.3 528.0,210.7 562.0,179.8 596.0,186.9 630.0,227.3 664.0,229.6 698.0,232.0 732.0,232.0 766.0,203.5 800.0,222.5"
            fill="none" stroke="#f28e2b"
            stroke-width="2" stroke-linejoin="round"
            stroke-dasharray="5,3"/>

  <!-- dots -->
  <circle cx="52.0" cy="232.0" r="3" fill="#4e79a7"/><circle cx="86.0" cy="232.0" r="3" fill="#4e79a7"/><circle cx="120.0" cy="232.0" r="3" fill="#4e79a7"/><circle cx="154.0" cy="232.0" r="3" fill="#4e79a7"/><circle cx="188.0" cy="232.0" r="3" fill="#4e79a7"/><circle cx="222.0" cy="232.0" r="3" fill="#4e79a7"/><circle cx="256.0" cy="232.0" r="3" fill="#4e79a7"/><circle cx="290.0" cy="232.0" r="3" fill="#4e79a7"/><circle cx="324.0" cy="232.0" r="3" fill="#4e79a7"/><circle cx="358.0" cy="232.0" r="3" fill="#4e79a7"/><circle cx="392.0" cy="232.0" r="3" fill="#4e79a7"/><circle cx="426.0" cy="232.0" r="3" fill="#4e79a7"/><circle cx="460.0" cy="229.6" r="3" fill="#4e79a7"/><circle cx="494.0" cy="28.0" r="3" fill="#4e79a7"/><circle cx="528.0" cy="210.7" r="3" fill="#4e79a7"/><circle cx="562.0" cy="139.5" r="3" fill="#4e79a7"/><circle cx="596.0" cy="153.7" r="3" fill="#4e79a7"/><circle cx="630.0" cy="227.3" r="3" fill="#4e79a7"/><circle cx="664.0" cy="203.5" r="3" fill="#4e79a7"/><circle cx="698.0" cy="232.0" r="3" fill="#4e79a7"/><circle cx="732.0" cy="232.0" r="3" fill="#4e79a7"/><circle cx="766.0" cy="191.7" r="3" fill="#4e79a7"/><circle cx="800.0" cy="222.5" r="3" fill="#4e79a7"/>
  <circle cx="52.0" cy="232.0" r="3" fill="#f28e2b"/><circle cx="86.0" cy="232.0" r="3" fill="#f28e2b"/><circle cx="120.0" cy="232.0" r="3" fill="#f28e2b"/><circle cx="154.0" cy="232.0" r="3" fill="#f28e2b"/><circle cx="188.0" cy="232.0" r="3" fill="#f28e2b"/><circle cx="222.0" cy="232.0" r="3" fill="#f28e2b"/><circle cx="256.0" cy="232.0" r="3" fill="#f28e2b"/><circle cx="290.0" cy="232.0" r="3" fill="#f28e2b"/><circle cx="324.0" cy="232.0" r="3" fill="#f28e2b"/><circle cx="358.0" cy="232.0" r="3" fill="#f28e2b"/><circle cx="392.0" cy="232.0" r="3" fill="#f28e2b"/><circle cx="426.0" cy="232.0" r="3" fill="#f28e2b"/><circle cx="460.0" cy="229.6" r="3" fill="#f28e2b"/><circle cx="494.0" cy="151.3" r="3" fill="#f28e2b"/><circle cx="528.0" cy="210.7" r="3" fill="#f28e2b"/><circle cx="562.0" cy="179.8" r="3" fill="#f28e2b"/><circle cx="596.0" cy="186.9" r="3" fill="#f28e2b"/><circle cx="630.0" cy="227.3" r="3" fill="#f28e2b"/><circle cx="664.0" cy="229.6" r="3" fill="#f28e2b"/><circle cx="698.0" cy="232.0" r="3" fill="#f28e2b"/><circle cx="732.0" cy="232.0" r="3" fill="#f28e2b"/><circle cx="766.0" cy="203.5" r="3" fill="#f28e2b"/><circle cx="800.0" cy="222.5" r="3" fill="#f28e2b"/>

  <!-- axes -->
  <line x1="52" y1="28" x2="52" y2="232"
        stroke="#cccccc" stroke-width="1"/>
  <line x1="52" y1="232" x2="800" y2="232"
        stroke="#cccccc" stroke-width="1"/>

  <!-- y-axis labels -->
  <text x="47" y="236.0" text-anchor="end" font-size="10" fill="#57606a" font-family="ui-monospace, SFMono-Regular, 'SF Mono', Menlo, monospace">0</text><text x="47" y="188.6" text-anchor="end" font-size="10" fill="#57606a" font-family="ui-monospace, SFMono-Regular, 'SF Mono', Menlo, monospace">20</text><text x="47" y="141.1" text-anchor="end" font-size="10" fill="#57606a" font-family="ui-monospace, SFMono-Regular, 'SF Mono', Menlo, monospace">40</text><text x="47" y="93.7" text-anchor="end" font-size="10" fill="#57606a" font-family="ui-monospace, SFMono-Regular, 'SF Mono', Menlo, monospace">60</text><text x="47" y="46.2" text-anchor="end" font-size="10" fill="#57606a" font-family="ui-monospace, SFMono-Regular, 'SF Mono', Menlo, monospace">80</text><text x="47" y="-1.2" text-anchor="end" font-size="10" fill="#57606a" font-family="ui-monospace, SFMono-Regular, 'SF Mono', Menlo, monospace">100</text>

  <!-- x-axis labels -->
  <text x="52.0" y="248" text-anchor="middle" font-size="10" fill="#8c959f" font-family="ui-monospace, SFMono-Regular, 'SF Mono', Menlo, monospace">05-28</text><text x="120.0" y="248" text-anchor="middle" font-size="10" fill="#8c959f" font-family="ui-monospace, SFMono-Regular, 'SF Mono', Menlo, monospace">05-30</text><text x="188.0" y="248" text-anchor="middle" font-size="10" fill="#8c959f" font-family="ui-monospace, SFMono-Regular, 'SF Mono', Menlo, monospace">06-01</text><text x="256.0" y="248" text-anchor="middle" font-size="10" fill="#8c959f" font-family="ui-monospace, SFMono-Regular, 'SF Mono', Menlo, monospace">06-03</text><text x="324.0" y="248" text-anchor="middle" font-size="10" fill="#8c959f" font-family="ui-monospace, SFMono-Regular, 'SF Mono', Menlo, monospace">06-05</text><text x="392.0" y="248" text-anchor="middle" font-size="10" fill="#8c959f" font-family="ui-monospace, SFMono-Regular, 'SF Mono', Menlo, monospace">06-07</text><text x="460.0" y="248" text-anchor="middle" font-size="10" fill="#8c959f" font-family="ui-monospace, SFMono-Regular, 'SF Mono', Menlo, monospace">06-09</text><text x="528.0" y="248" text-anchor="middle" font-size="10" fill="#8c959f" font-family="ui-monospace, SFMono-Regular, 'SF Mono', Menlo, monospace">06-11</text><text x="596.0" y="248" text-anchor="middle" font-size="10" fill="#8c959f" font-family="ui-monospace, SFMono-Regular, 'SF Mono', Menlo, monospace">06-13</text><text x="664.0" y="248" text-anchor="middle" font-size="10" fill="#8c959f" font-family="ui-monospace, SFMono-Regular, 'SF Mono', Menlo, monospace">06-15</text><text x="732.0" y="248" text-anchor="middle" font-size="10" fill="#8c959f" font-family="ui-monospace, SFMono-Regular, 'SF Mono', Menlo, monospace">06-17</text><text x="800.0" y="248" text-anchor="middle" font-size="10" fill="#8c959f" font-family="ui-monospace, SFMono-Regular, 'SF Mono', Menlo, monospace">06-19</text>

  <!-- legend -->
  <rect x="60" y="262" width="16" height="3" fill="#4e79a7" rx="1"/><text x="80" y="268" font-size="11" fill="#57606a" font-family="-apple-system, BlinkMacSystemFont, 'Segoe UI', sans-serif">Total clones (203)</text><line x1="230" y1="264" x2="246" y2="264" stroke="#f28e2b" stroke-width="2" stroke-dasharray="5,3"/><text x="250" y="268" font-size="11" fill="#57606a" font-family="-apple-system, BlinkMacSystemFont, 'Segoe UI', sans-serif">Unique cloners</text>

</svg>