<svg xmlns="http://www.w3.org/2000/svg" viewBox="0 0 820 280" width="820" height="280">

  <!-- title -->
  <text x="52" y="18" font-size="13" font-weight="600"
        fill="#24292f" font-family="-apple-system, BlinkMacSystemFont, 'Segoe UI', sans-serif"
        >Clone traffic — PravKal</text>
  <text x="800" y="18" font-size="10" fill="#8c959f"
        font-family="ui-monospace, SFMono-Regular, 'SF Mono', Menlo, monospace" text-anchor="end">2026-07-04</text>

  <!-- grid -->
  <line x1="52" y1="232.0" x2="800" y2="232.0" stroke="#e8e8e8" stroke-width="1"/><line x1="52" y1="189.2" x2="800" y2="189.2" stroke="#e8e8e8" stroke-width="1"/><line x1="52" y1="146.4" x2="800" y2="146.4" stroke="#e8e8e8" stroke-width="1"/><line x1="52" y1="103.6" x2="800" y2="103.6" stroke="#e8e8e8" stroke-width="1"/><line x1="52" y1="60.8" x2="800" y2="60.8" stroke="#e8e8e8" stroke-width="1"/><line x1="52" y1="18.0" x2="800" y2="18.0" stroke="#e8e8e8" stroke-width="1"/>

  <!-- area fill -->
  <path d="M52.0,232.0 L52.0,232.0 L72.8,232.0 L93.6,232.0 L114.3,232.0 L135.1,232.0 L155.9,232.0 L176.7,232.0 L197.4,232.0 L218.2,232.0 L239.0,232.0 L259.8,232.0 L280.6,232.0 L301.3,231.3 L322.1,170.7 L342.9,225.6 L363.7,204.2 L384.4,208.5 L405.2,230.6 L426.0,223.4 L446.8,232.0 L467.6,232.0 L488.3,219.9 L509.1,229.1 L529.9,232.0 L550.7,215.6 L571.4,28.0 L592.2,225.6 L613.0,230.6 L633.8,232.0 L654.6,229.9 L675.3,232.0 L696.1,230.6 L716.9,230.6 L737.7,232.0 L758.4,229.9 L779.2,232.0 L800.0,231.3 L800.0,232.0 L52.0,232.0Z" fill="#4e79a7" opacity="0.12"/>

  <!-- lines -->
  <polyline points="52.0,232.0 72.8,232.0 93.6,232.0 114.3,232.0 135.1,232.0 155.9,232.0 176.7,232.0 197.4,232.0 218.2,232.0 239.0,232.0 259.8,232.0 280.6,232.0 301.3,231.3 322.1,170.7 342.9,225.6 363.7,204.2 384.4,208.5 405.2,230.6 426.0,223.4 446.8,232.0 467.6,232.0 488.3,219.9 509.1,229.1 529.9,232.0 550.7,215.6 571.4,28.0 592.2,225.6 613.0,230.6 633.8,232.0 654.6,229.9 675.3,232.0 696.1,230.6 716.9,230.6 737.7,232.0 758.4,229.9 779.2,232.0 800.0,231.3"
            fill="none" stroke="#4e79a7"
            stroke-width="2" stroke-linejoin="round"/>
  <polyline points="52.0,232.0 72.8,232.0 93.6,232.0 114.3,232.0 135.1,232.0 155.9,232.0 176.7,232.0 197.4,232.0 218.2,232.0 239.0,232.0 259.8,232.0 280.6,232.0 301.3,231.3 322.1,207.7 342.9,225.6 363.7,216.3 384.4,218.4 405.2,230.6 426.0,231.3 446.8,232.0 467.6,232.0 488.3,223.4 509.1,229.1 529.9,232.0 550.7,223.4 571.4,148.5 592.2,225.6 613.0,230.6 633.8,232.0 654.6,229.9 675.3,232.0 696.1,230.6 716.9,230.6 737.7,232.0 758.4,229.9 779.2,232.0 800.0,231.3"
            fill="none" stroke="#f28e2b"
            stroke-width="2" stroke-linejoin="round"
            stroke-dasharray="5,3"/>

  <!-- dots -->
  <circle cx="52.0" cy="232.0" r="3" fill="#4e79a7"/><circle cx="72.8" cy="232.0" r="3" fill="#4e79a7"/><circle cx="93.6" cy="232.0" r="3" fill="#4e79a7"/><circle cx="114.3" cy="232.0" r="3" fill="#4e79a7"/><circle cx="135.1" cy="232.0" r="3" fill="#4e79a7"/><circle cx="155.9" cy="232.0" r="3" fill="#4e79a7"/><circle cx="176.7" cy="232.0" r="3" fill="#4e79a7"/><circle cx="197.4" cy="232.0" r="3" fill="#4e79a7"/><circle cx="218.2" cy="232.0" r="3" fill="#4e79a7"/><circle cx="239.0" cy="232.0" r="3" fill="#4e79a7"/><circle cx="259.8" cy="232.0" r="3" fill="#4e79a7"/><circle cx="280.6" cy="232.0" r="3" fill="#4e79a7"/><circle cx="301.3" cy="231.3" r="3" fill="#4e79a7"/><circle cx="322.1" cy="170.7" r="3" fill="#4e79a7"/><circle cx="342.9" cy="225.6" r="3" fill="#4e79a7"/><circle cx="363.7" cy="204.2" r="3" fill="#4e79a7"/><circle cx="384.4" cy="208.5" r="3" fill="#4e79a7"/><circle cx="405.2" cy="230.6" r="3" fill="#4e79a7"/><circle cx="426.0" cy="223.4" r="3" fill="#4e79a7"/><circle cx="446.8" cy="232.0" r="3" fill="#4e79a7"/><circle cx="467.6" cy="232.0" r="3" fill="#4e79a7"/><circle cx="488.3" cy="219.9" r="3" fill="#4e79a7"/><circle cx="509.1" cy="229.1" r="3" fill="#4e79a7"/><circle cx="529.9" cy="232.0" r="3" fill="#4e79a7"/><circle cx="550.7" cy="215.6" r="3" fill="#4e79a7"/><circle cx="571.4" cy="28.0" r="3" fill="#4e79a7"/><circle cx="592.2" cy="225.6" r="3" fill="#4e79a7"/><circle cx="613.0" cy="230.6" r="3" fill="#4e79a7"/><circle cx="633.8" cy="232.0" r="3" fill="#4e79a7"/><circle cx="654.6" cy="229.9" r="3" fill="#4e79a7"/><circle cx="675.3" cy="232.0" r="3" fill="#4e79a7"/><circle cx="696.1" cy="230.6" r="3" fill="#4e79a7"/><circle cx="716.9" cy="230.6" r="3" fill="#4e79a7"/><circle cx="737.7" cy="232.0" r="3" fill="#4e79a7"/><circle cx="758.4" cy="229.9" r="3" fill="#4e79a7"/><circle cx="779.2" cy="232.0" r="3" fill="#4e79a7"/><circle cx="800.0" cy="231.3" r="3" fill="#4e79a7"/>
  <circle cx="52.0" cy="232.0" r="3" fill="#f28e2b"/><circle cx="72.8" cy="232.0" r="3" fill="#f28e2b"/><circle cx="93.6" cy="232.0" r="3" fill="#f28e2b"/><circle cx="114.3" cy="232.0" r="3" fill="#f28e2b"/><circle cx="135.1" cy="232.0" r="3" fill="#f28e2b"/><circle cx="155.9" cy="232.0" r="3" fill="#f28e2b"/><circle cx="176.7" cy="232.0" r="3" fill="#f28e2b"/><circle cx="197.4" cy="232.0" r="3" fill="#f28e2b"/><circle cx="218.2" cy="232.0" r="3" fill="#f28e2b"/><circle cx="239.0" cy="232.0" r="3" fill="#f28e2b"/><circle cx="259.8" cy="232.0" r="3" fill="#f28e2b"/><circle cx="280.6" cy="232.0" r="3" fill="#f28e2b"/><circle cx="301.3" cy="231.3" r="3" fill="#f28e2b"/><circle cx="322.1" cy="207.7" r="3" fill="#f28e2b"/><circle cx="342.9" cy="225.6" r="3" fill="#f28e2b"/><circle cx="363.7" cy="216.3" r="3" fill="#f28e2b"/><circle cx="384.4" cy="218.4" r="3" fill="#f28e2b"/><circle cx="405.2" cy="230.6" r="3" fill="#f28e2b"/><circle cx="426.0" cy="231.3" r="3" fill="#f28e2b"/><circle cx="446.8" cy="232.0" r="3" fill="#f28e2b"/><circle cx="467.6" cy="232.0" r="3" fill="#f28e2b"/><circle cx="488.3" cy="223.4" r="3" fill="#f28e2b"/><circle cx="509.1" cy="229.1" r="3" fill="#f28e2b"/><circle cx="529.9" cy="232.0" r="3" fill="#f28e2b"/><circle cx="550.7" cy="223.4" r="3" fill="#f28e2b"/><circle cx="571.4" cy="148.5" r="3" fill="#f28e2b"/><circle cx="592.2" cy="225.6" r="3" fill="#f28e2b"/><circle cx="613.0" cy="230.6" r="3" fill="#f28e2b"/><circle cx="633.8" cy="232.0" r="3" fill="#f28e2b"/><circle cx="654.6" cy="229.9" r="3" fill="#f28e2b"/><circle cx="675.3" cy="232.0" r="3" fill="#f28e2b"/><circle cx="696.1" cy="230.6" r="3" fill="#f28e2b"/><circle cx="716.9" cy="230.6" r="3" fill="#f28e2b"/><circle cx="737.7" cy="232.0" r="3" fill="#f28e2b"/><circle cx="758.4" cy="229.9" r="3" fill="#f28e2b"/><circle cx="779.2" cy="232.0" r="3" fill="#f28e2b"/><circle cx="800.0" cy="231.3" r="3" fill="#f28e2b"/>

  <!-- axes -->
  <line x1="52" y1="28" x2="52" y2="232"
        stroke="#cccccc" stroke-width="1"/>
  <line x1="52" y1="232" x2="800" y2="232"
        stroke="#cccccc" stroke-width="1"/>

  <!-- y-axis labels -->
  <text x="47" y="236.0" text-anchor="end" font-size="10" fill="#57606a" font-family="ui-monospace, SFMono-Regular, 'SF Mono', Menlo, monospace">0</text><text x="47" y="193.2" text-anchor="end" font-size="10" fill="#57606a" font-family="ui-monospace, SFMono-Regular, 'SF Mono', Menlo, monospace">60</text><text x="47" y="150.4" text-anchor="end" font-size="10" fill="#57606a" font-family="ui-monospace, SFMono-Regular, 'SF Mono', Menlo, monospace">120</text><text x="47" y="107.6" text-anchor="end" font-size="10" fill="#57606a" font-family="ui-monospace, SFMono-Regular, 'SF Mono', Menlo, monospace">180</text><text x="47" y="64.8" text-anchor="end" font-size="10" fill="#57606a" font-family="ui-monospace, SFMono-Regular, 'SF Mono', Menlo, monospace">240</text><text x="47" y="22.0" text-anchor="end" font-size="10" fill="#57606a" font-family="ui-monospace, SFMono-Regular, 'SF Mono', Menlo, monospace">300</text>

  <!-- x-axis labels -->
  <text x="52.0" y="248" text-anchor="middle" font-size="10" fill="#8c959f" font-family="ui-monospace, SFMono-Regular, 'SF Mono', Menlo, monospace">05-28</text><text x="716.9" y="248" text-anchor="middle" font-size="10" fill="#8c959f" font-family="ui-monospace, SFMono-Regular, 'SF Mono', Menlo, monospace">06-29</text><text x="135.1" y="248" text-anchor="middle" font-size="10" fill="#8c959f" font-family="ui-monospace, SFMono-Regular, 'SF Mono', Menlo, monospace">06-01</text><text x="800.0" y="248" text-anchor="middle" font-size="10" fill="#8c959f" font-family="ui-monospace, SFMono-Regular, 'SF Mono', Menlo, monospace">07-03</text><text x="218.2" y="248" text-anchor="middle" font-size="10" fill="#8c959f" font-family="ui-monospace, SFMono-Regular, 'SF Mono', Menlo, monospace">06-05</text><text x="301.3" y="248" text-anchor="middle" font-size="10" fill="#8c959f" font-family="ui-monospace, SFMono-Regular, 'SF Mono', Menlo, monospace">06-09</text><text x="384.4" y="248" text-anchor="middle" font-size="10" fill="#8c959f" font-family="ui-monospace, SFMono-Regular, 'SF Mono', Menlo, monospace">06-13</text><text x="467.6" y="248" text-anchor="middle" font-size="10" fill="#8c959f" font-family="ui-monospace, SFMono-Regular, 'SF Mono', Menlo, monospace">06-17</text><text x="550.7" y="248" text-anchor="middle" font-size="10" fill="#8c959f" font-family="ui-monospace, SFMono-Regular, 'SF Mono', Menlo, monospace">06-21</text><text x="633.8" y="248" text-anchor="middle" font-size="10" fill="#8c959f" font-family="ui-monospace, SFMono-Regular, 'SF Mono', Menlo, monospace">06-25</text>

  <!-- legend -->
  <rect x="60" y="262" width="16" height="3" fill="#4e79a7" rx="1"/><text x="80" y="268" font-size="11" fill="#57606a" font-family="-apple-system, BlinkMacSystemFont, 'Segoe UI', sans-serif">Total clones (534)</text><line x1="230" y1="264" x2="246" y2="264" stroke="#f28e2b" stroke-width="2" stroke-dasharray="5,3"/><text x="250" y="268" font-size="11" fill="#57606a" font-family="-apple-system, BlinkMacSystemFont, 'Segoe UI', sans-serif">Unique cloners</text>

</svg>