<svg xmlns="http://www.w3.org/2000/svg" viewBox="0 0 820 280" width="820" height="280">

  <!-- title -->
  <text x="52" y="18" font-size="13" font-weight="600"
        fill="#24292f" font-family="-apple-system, BlinkMacSystemFont, 'Segoe UI', sans-serif"
        >Clone traffic — PravKal</text>
  <text x="800" y="18" font-size="10" fill="#8c959f"
        font-family="ui-monospace, SFMono-Regular, 'SF Mono', Menlo, monospace" text-anchor="end">2026-06-24</text>

  <!-- grid -->
  <line x1="52" y1="232.0" x2="800" y2="232.0" stroke="#e8e8e8" stroke-width="1"/><line x1="52" y1="189.2" x2="800" y2="189.2" stroke="#e8e8e8" stroke-width="1"/><line x1="52" y1="146.4" x2="800" y2="146.4" stroke="#e8e8e8" stroke-width="1"/><line x1="52" y1="103.6" x2="800" y2="103.6" stroke="#e8e8e8" stroke-width="1"/><line x1="52" y1="60.8" x2="800" y2="60.8" stroke="#e8e8e8" stroke-width="1"/><line x1="52" y1="18.0" x2="800" y2="18.0" stroke="#e8e8e8" stroke-width="1"/>

  <!-- area fill -->
  <path d="M52.0,232.0 L52.0,232.0 L81.9,232.0 L111.8,232.0 L141.8,232.0 L171.7,232.0 L201.6,232.0 L231.5,232.0 L261.4,232.0 L291.4,232.0 L321.3,232.0 L351.2,232.0 L381.1,232.0 L411.0,231.3 L441.0,170.7 L470.9,225.6 L500.8,204.2 L530.7,208.5 L560.6,230.6 L590.6,223.4 L620.5,232.0 L650.4,232.0 L680.3,219.9 L710.2,229.1 L740.2,232.0 L770.1,215.6 L800.0,28.0 L800.0,232.0 L52.0,232.0Z" fill="#4e79a7" opacity="0.12"/>

  <!-- lines -->
  <polyline points="52.0,232.0 81.9,232.0 111.8,232.0 141.8,232.0 171.7,232.0 201.6,232.0 231.5,232.0 261.4,232.0 291.4,232.0 321.3,232.0 351.2,232.0 381.1,232.0 411.0,231.3 441.0,170.7 470.9,225.6 500.8,204.2 530.7,208.5 560.6,230.6 590.6,223.4 620.5,232.0 650.4,232.0 680.3,219.9 710.2,229.1 740.2,232.0 770.1,215.6 800.0,28.0"
            fill="none" stroke="#4e79a7"
            stroke-width="2" stroke-linejoin="round"/>
  <polyline points="52.0,232.0 81.9,232.0 111.8,232.0 141.8,232.0 171.7,232.0 201.6,232.0 231.5,232.0 261.4,232.0 291.4,232.0 321.3,232.0 351.2,232.0 381.1,232.0 411.0,231.3 441.0,207.7 470.9,225.6 500.8,216.3 530.7,218.4 560.6,230.6 590.6,231.3 620.5,232.0 650.4,232.0 680.3,223.4 710.2,229.1 740.2,232.0 770.1,223.4 800.0,148.5"
            fill="none" stroke="#f28e2b"
            stroke-width="2" stroke-linejoin="round"
            stroke-dasharray="5,3"/>

  <!-- dots -->
  <circle cx="52.0" cy="232.0" r="3" fill="#4e79a7"/><circle cx="81.9" cy="232.0" r="3" fill="#4e79a7"/><circle cx="111.8" cy="232.0" r="3" fill="#4e79a7"/><circle cx="141.8" cy="232.0" r="3" fill="#4e79a7"/><circle cx="171.7" cy="232.0" r="3" fill="#4e79a7"/><circle cx="201.6" cy="232.0" r="3" fill="#4e79a7"/><circle cx="231.5" cy="232.0" r="3" fill="#4e79a7"/><circle cx="261.4" cy="232.0" r="3" fill="#4e79a7"/><circle cx="291.4" cy="232.0" r="3" fill="#4e79a7"/><circle cx="321.3" cy="232.0" r="3" fill="#4e79a7"/><circle cx="351.2" cy="232.0" r="3" fill="#4e79a7"/><circle cx="381.1" cy="232.0" r="3" fill="#4e79a7"/><circle cx="411.0" cy="231.3" r="3" fill="#4e79a7"/><circle cx="441.0" cy="170.7" r="3" fill="#4e79a7"/><circle cx="470.9" cy="225.6" r="3" fill="#4e79a7"/><circle cx="500.8" cy="204.2" r="3" fill="#4e79a7"/><circle cx="530.7" cy="208.5" r="3" fill="#4e79a7"/><circle cx="560.6" cy="230.6" r="3" fill="#4e79a7"/><circle cx="590.6" cy="223.4" r="3" fill="#4e79a7"/><circle cx="620.5" cy="232.0" r="3" fill="#4e79a7"/><circle cx="650.4" cy="232.0" r="3" fill="#4e79a7"/><circle cx="680.3" cy="219.9" r="3" fill="#4e79a7"/><circle cx="710.2" cy="229.1" r="3" fill="#4e79a7"/><circle cx="740.2" cy="232.0" r="3" fill="#4e79a7"/><circle cx="770.1" cy="215.6" r="3" fill="#4e79a7"/><circle cx="800.0" cy="28.0" r="3" fill="#4e79a7"/>
  <circle cx="52.0" cy="232.0" r="3" fill="#f28e2b"/><circle cx="81.9" cy="232.0" r="3" fill="#f28e2b"/><circle cx="111.8" cy="232.0" r="3" fill="#f28e2b"/><circle cx="141.8" cy="232.0" r="3" fill="#f28e2b"/><circle cx="171.7" cy="232.0" r="3" fill="#f28e2b"/><circle cx="201.6" cy="232.0" r="3" fill="#f28e2b"/><circle cx="231.5" cy="232.0" r="3" fill="#f28e2b"/><circle cx="261.4" cy="232.0" r="3" fill="#f28e2b"/><circle cx="291.4" cy="232.0" r="3" fill="#f28e2b"/><circle cx="321.3" cy="232.0" r="3" fill="#f28e2b"/><circle cx="351.2" cy="232.0" r="3" fill="#f28e2b"/><circle cx="381.1" cy="232.0" r="3" fill="#f28e2b"/><circle cx="411.0" cy="231.3" r="3" fill="#f28e2b"/><circle cx="441.0" cy="207.7" r="3" fill="#f28e2b"/><circle cx="470.9" cy="225.6" r="3" fill="#f28e2b"/><circle cx="500.8" cy="216.3" r="3" fill="#f28e2b"/><circle cx="530.7" cy="218.4" r="3" fill="#f28e2b"/><circle cx="560.6" cy="230.6" r="3" fill="#f28e2b"/><circle cx="590.6" cy="231.3" r="3" fill="#f28e2b"/><circle cx="620.5" cy="232.0" r="3" fill="#f28e2b"/><circle cx="650.4" cy="232.0" r="3" fill="#f28e2b"/><circle cx="680.3" cy="223.4" r="3" fill="#f28e2b"/><circle cx="710.2" cy="229.1" r="3" fill="#f28e2b"/><circle cx="740.2" cy="232.0" r="3" fill="#f28e2b"/><circle cx="770.1" cy="223.4" r="3" fill="#f28e2b"/><circle cx="800.0" cy="148.5" r="3" fill="#f28e2b"/>

  <!-- axes -->
  <line x1="52" y1="28" x2="52" y2="232"
        stroke="#cccccc" stroke-width="1"/>
  <line x1="52" y1="232" x2="800" y2="232"
        stroke="#cccccc" stroke-width="1"/>

  <!-- y-axis labels -->
  <text x="47" y="236.0" text-anchor="end" font-size="10" fill="#57606a" font-family="ui-monospace, SFMono-Regular, 'SF Mono', Menlo, monospace">0</text><text x="47" y="193.2" text-anchor="end" font-size="10" fill="#57606a" font-family="ui-monospace, SFMono-Regular, 'SF Mono', Menlo, monospace">60</text><text x="47" y="150.4" text-anchor="end" font-size="10" fill="#57606a" font-family="ui-monospace, SFMono-Regular, 'SF Mono', Menlo, monospace">120</text><text x="47" y="107.6" text-anchor="end" font-size="10" fill="#57606a" font-family="ui-monospace, SFMono-Regular, 'SF Mono', Menlo, monospace">180</text><text x="47" y="64.8" text-anchor="end" font-size="10" fill="#57606a" font-family="ui-monospace, SFMono-Regular, 'SF Mono', Menlo, monospace">240</text><text x="47" y="22.0" text-anchor="end" font-size="10" fill="#57606a" font-family="ui-monospace, SFMono-Regular, 'SF Mono', Menlo, monospace">300</text>

  <!-- x-axis labels -->
  <text x="52.0" y="248" text-anchor="middle" font-size="10" fill="#8c959f" font-family="ui-monospace, SFMono-Regular, 'SF Mono', Menlo, monospace">05-28</text><text x="141.8" y="248" text-anchor="middle" font-size="10" fill="#8c959f" font-family="ui-monospace, SFMono-Regular, 'SF Mono', Menlo, monospace">05-31</text><text x="231.5" y="248" text-anchor="middle" font-size="10" fill="#8c959f" font-family="ui-monospace, SFMono-Regular, 'SF Mono', Menlo, monospace">06-03</text><text x="321.3" y="248" text-anchor="middle" font-size="10" fill="#8c959f" font-family="ui-monospace, SFMono-Regular, 'SF Mono', Menlo, monospace">06-06</text><text x="411.0" y="248" text-anchor="middle" font-size="10" fill="#8c959f" font-family="ui-monospace, SFMono-Regular, 'SF Mono', Menlo, monospace">06-09</text><text x="500.8" y="248" text-anchor="middle" font-size="10" fill="#8c959f" font-family="ui-monospace, SFMono-Regular, 'SF Mono', Menlo, monospace">06-12</text><text x="590.6" y="248" text-anchor="middle" font-size="10" fill="#8c959f" font-family="ui-monospace, SFMono-Regular, 'SF Mono', Menlo, monospace">06-15</text><text x="680.3" y="248" text-anchor="middle" font-size="10" fill="#8c959f" font-family="ui-monospace, SFMono-Regular, 'SF Mono', Menlo, monospace">06-18</text><text x="770.1" y="248" text-anchor="middle" font-size="10" fill="#8c959f" font-family="ui-monospace, SFMono-Regular, 'SF Mono', Menlo, monospace">06-21</text><text x="800.0" y="248" text-anchor="middle" font-size="10" fill="#8c959f" font-family="ui-monospace, SFMono-Regular, 'SF Mono', Menlo, monospace">06-22</text>

  <!-- legend -->
  <rect x="60" y="262" width="16" height="3" fill="#4e79a7" rx="1"/><text x="80" y="268" font-size="11" fill="#57606a" font-family="-apple-system, BlinkMacSystemFont, 'Segoe UI', sans-serif">Total clones (512)</text><line x1="230" y1="264" x2="246" y2="264" stroke="#f28e2b" stroke-width="2" stroke-dasharray="5,3"/><text x="250" y="268" font-size="11" fill="#57606a" font-family="-apple-system, BlinkMacSystemFont, 'Segoe UI', sans-serif">Unique cloners</text>

</svg>