<svg xmlns="http://www.w3.org/2000/svg" viewBox="0 0 820 280" width="820" height="280">

  <!-- title -->
  <text x="52" y="18" font-size="13" font-weight="600"
        fill="#24292f" font-family="-apple-system, BlinkMacSystemFont, 'Segoe UI', sans-serif"
        >Clone traffic — PravKal</text>
  <text x="800" y="18" font-size="10" fill="#8c959f"
        font-family="ui-monospace, SFMono-Regular, 'SF Mono', Menlo, monospace" text-anchor="end">2026-06-29</text>

  <!-- grid -->
  <line x1="52" y1="232.0" x2="800" y2="232.0" stroke="#e8e8e8" stroke-width="1"/><line x1="52" y1="189.2" x2="800" y2="189.2" stroke="#e8e8e8" stroke-width="1"/><line x1="52" y1="146.4" x2="800" y2="146.4" stroke="#e8e8e8" stroke-width="1"/><line x1="52" y1="103.6" x2="800" y2="103.6" stroke="#e8e8e8" stroke-width="1"/><line x1="52" y1="60.8" x2="800" y2="60.8" stroke="#e8e8e8" stroke-width="1"/><line x1="52" y1="18.0" x2="800" y2="18.0" stroke="#e8e8e8" stroke-width="1"/>

  <!-- area fill -->
  <path d="M52.0,232.0 L52.0,232.0 L76.9,232.0 L101.9,232.0 L126.8,232.0 L151.7,232.0 L176.7,232.0 L201.6,232.0 L226.5,232.0 L251.5,232.0 L276.4,232.0 L301.3,232.0 L326.3,232.0 L351.2,231.3 L376.1,170.7 L401.1,225.6 L426.0,204.2 L450.9,208.5 L475.9,230.6 L500.8,223.4 L525.7,232.0 L550.7,232.0 L575.6,219.9 L600.5,229.1 L625.5,232.0 L650.4,215.6 L675.3,28.0 L700.3,225.6 L725.2,230.6 L750.1,232.0 L775.1,229.9 L800.0,232.0 L800.0,232.0 L52.0,232.0Z" fill="#4e79a7" opacity="0.12"/>

  <!-- lines -->
  <polyline points="52.0,232.0 76.9,232.0 101.9,232.0 126.8,232.0 151.7,232.0 176.7,232.0 201.6,232.0 226.5,232.0 251.5,232.0 276.4,232.0 301.3,232.0 326.3,232.0 351.2,231.3 376.1,170.7 401.1,225.6 426.0,204.2 450.9,208.5 475.9,230.6 500.8,223.4 525.7,232.0 550.7,232.0 575.6,219.9 600.5,229.1 625.5,232.0 650.4,215.6 675.3,28.0 700.3,225.6 725.2,230.6 750.1,232.0 775.1,229.9 800.0,232.0"
            fill="none" stroke="#4e79a7"
            stroke-width="2" stroke-linejoin="round"/>
  <polyline points="52.0,232.0 76.9,232.0 101.9,232.0 126.8,232.0 151.7,232.0 176.7,232.0 201.6,232.0 226.5,232.0 251.5,232.0 276.4,232.0 301.3,232.0 326.3,232.0 351.2,231.3 376.1,207.7 401.1,225.6 426.0,216.3 450.9,218.4 475.9,230.6 500.8,231.3 525.7,232.0 550.7,232.0 575.6,223.4 600.5,229.1 625.5,232.0 650.4,223.4 675.3,148.5 700.3,225.6 725.2,230.6 750.1,232.0 775.1,229.9 800.0,232.0"
            fill="none" stroke="#f28e2b"
            stroke-width="2" stroke-linejoin="round"
            stroke-dasharray="5,3"/>

  <!-- dots -->
  <circle cx="52.0" cy="232.0" r="3" fill="#4e79a7"/><circle cx="76.9" cy="232.0" r="3" fill="#4e79a7"/><circle cx="101.9" cy="232.0" r="3" fill="#4e79a7"/><circle cx="126.8" cy="232.0" r="3" fill="#4e79a7"/><circle cx="151.7" cy="232.0" r="3" fill="#4e79a7"/><circle cx="176.7" cy="232.0" r="3" fill="#4e79a7"/><circle cx="201.6" cy="232.0" r="3" fill="#4e79a7"/><circle cx="226.5" cy="232.0" r="3" fill="#4e79a7"/><circle cx="251.5" cy="232.0" r="3" fill="#4e79a7"/><circle cx="276.4" cy="232.0" r="3" fill="#4e79a7"/><circle cx="301.3" cy="232.0" r="3" fill="#4e79a7"/><circle cx="326.3" cy="232.0" r="3" fill="#4e79a7"/><circle cx="351.2" cy="231.3" r="3" fill="#4e79a7"/><circle cx="376.1" cy="170.7" r="3" fill="#4e79a7"/><circle cx="401.1" cy="225.6" r="3" fill="#4e79a7"/><circle cx="426.0" cy="204.2" r="3" fill="#4e79a7"/><circle cx="450.9" cy="208.5" r="3" fill="#4e79a7"/><circle cx="475.9" cy="230.6" r="3" fill="#4e79a7"/><circle cx="500.8" cy="223.4" r="3" fill="#4e79a7"/><circle cx="525.7" cy="232.0" r="3" fill="#4e79a7"/><circle cx="550.7" cy="232.0" r="3" fill="#4e79a7"/><circle cx="575.6" cy="219.9" r="3" fill="#4e79a7"/><circle cx="600.5" cy="229.1" r="3" fill="#4e79a7"/><circle cx="625.5" cy="232.0" r="3" fill="#4e79a7"/><circle cx="650.4" cy="215.6" r="3" fill="#4e79a7"/><circle cx="675.3" cy="28.0" r="3" fill="#4e79a7"/><circle cx="700.3" cy="225.6" r="3" fill="#4e79a7"/><circle cx="725.2" cy="230.6" r="3" fill="#4e79a7"/><circle cx="750.1" cy="232.0" r="3" fill="#4e79a7"/><circle cx="775.1" cy="229.9" r="3" fill="#4e79a7"/><circle cx="800.0" cy="232.0" r="3" fill="#4e79a7"/>
  <circle cx="52.0" cy="232.0" r="3" fill="#f28e2b"/><circle cx="76.9" cy="232.0" r="3" fill="#f28e2b"/><circle cx="101.9" cy="232.0" r="3" fill="#f28e2b"/><circle cx="126.8" cy="232.0" r="3" fill="#f28e2b"/><circle cx="151.7" cy="232.0" r="3" fill="#f28e2b"/><circle cx="176.7" cy="232.0" r="3" fill="#f28e2b"/><circle cx="201.6" cy="232.0" r="3" fill="#f28e2b"/><circle cx="226.5" cy="232.0" r="3" fill="#f28e2b"/><circle cx="251.5" cy="232.0" r="3" fill="#f28e2b"/><circle cx="276.4" cy="232.0" r="3" fill="#f28e2b"/><circle cx="301.3" cy="232.0" r="3" fill="#f28e2b"/><circle cx="326.3" cy="232.0" r="3" fill="#f28e2b"/><circle cx="351.2" cy="231.3" r="3" fill="#f28e2b"/><circle cx="376.1" cy="207.7" r="3" fill="#f28e2b"/><circle cx="401.1" cy="225.6" r="3" fill="#f28e2b"/><circle cx="426.0" cy="216.3" r="3" fill="#f28e2b"/><circle cx="450.9" cy="218.4" r="3" fill="#f28e2b"/><circle cx="475.9" cy="230.6" r="3" fill="#f28e2b"/><circle cx="500.8" cy="231.3" r="3" fill="#f28e2b"/><circle cx="525.7" cy="232.0" r="3" fill="#f28e2b"/><circle cx="550.7" cy="232.0" r="3" fill="#f28e2b"/><circle cx="575.6" cy="223.4" r="3" fill="#f28e2b"/><circle cx="600.5" cy="229.1" r="3" fill="#f28e2b"/><circle cx="625.5" cy="232.0" r="3" fill="#f28e2b"/><circle cx="650.4" cy="223.4" r="3" fill="#f28e2b"/><circle cx="675.3" cy="148.5" r="3" fill="#f28e2b"/><circle cx="700.3" cy="225.6" r="3" fill="#f28e2b"/><circle cx="725.2" cy="230.6" r="3" fill="#f28e2b"/><circle cx="750.1" cy="232.0" r="3" fill="#f28e2b"/><circle cx="775.1" cy="229.9" r="3" fill="#f28e2b"/><circle cx="800.0" cy="232.0" r="3" fill="#f28e2b"/>

  <!-- axes -->
  <line x1="52" y1="28" x2="52" y2="232"
        stroke="#cccccc" stroke-width="1"/>
  <line x1="52" y1="232" x2="800" y2="232"
        stroke="#cccccc" stroke-width="1"/>

  <!-- y-axis labels -->
  <text x="47" y="236.0" text-anchor="end" font-size="10" fill="#57606a" font-family="ui-monospace, SFMono-Regular, 'SF Mono', Menlo, monospace">0</text><text x="47" y="193.2" text-anchor="end" font-size="10" fill="#57606a" font-family="ui-monospace, SFMono-Regular, 'SF Mono', Menlo, monospace">60</text><text x="47" y="150.4" text-anchor="end" font-size="10" fill="#57606a" font-family="ui-monospace, SFMono-Regular, 'SF Mono', Menlo, monospace">120</text><text x="47" y="107.6" text-anchor="end" font-size="10" fill="#57606a" font-family="ui-monospace, SFMono-Regular, 'SF Mono', Menlo, monospace">180</text><text x="47" y="64.8" text-anchor="end" font-size="10" fill="#57606a" font-family="ui-monospace, SFMono-Regular, 'SF Mono', Menlo, monospace">240</text><text x="47" y="22.0" text-anchor="end" font-size="10" fill="#57606a" font-family="ui-monospace, SFMono-Regular, 'SF Mono', Menlo, monospace">300</text>

  <!-- x-axis labels -->
  <text x="52.0" y="248" text-anchor="middle" font-size="10" fill="#8c959f" font-family="ui-monospace, SFMono-Regular, 'SF Mono', Menlo, monospace">05-28</text><text x="126.8" y="248" text-anchor="middle" font-size="10" fill="#8c959f" font-family="ui-monospace, SFMono-Regular, 'SF Mono', Menlo, monospace">05-31</text><text x="201.6" y="248" text-anchor="middle" font-size="10" fill="#8c959f" font-family="ui-monospace, SFMono-Regular, 'SF Mono', Menlo, monospace">06-03</text><text x="276.4" y="248" text-anchor="middle" font-size="10" fill="#8c959f" font-family="ui-monospace, SFMono-Regular, 'SF Mono', Menlo, monospace">06-06</text><text x="351.2" y="248" text-anchor="middle" font-size="10" fill="#8c959f" font-family="ui-monospace, SFMono-Regular, 'SF Mono', Menlo, monospace">06-09</text><text x="426.0" y="248" text-anchor="middle" font-size="10" fill="#8c959f" font-family="ui-monospace, SFMono-Regular, 'SF Mono', Menlo, monospace">06-12</text><text x="500.8" y="248" text-anchor="middle" font-size="10" fill="#8c959f" font-family="ui-monospace, SFMono-Regular, 'SF Mono', Menlo, monospace">06-15</text><text x="575.6" y="248" text-anchor="middle" font-size="10" fill="#8c959f" font-family="ui-monospace, SFMono-Regular, 'SF Mono', Menlo, monospace">06-18</text><text x="650.4" y="248" text-anchor="middle" font-size="10" fill="#8c959f" font-family="ui-monospace, SFMono-Regular, 'SF Mono', Menlo, monospace">06-21</text><text x="725.2" y="248" text-anchor="middle" font-size="10" fill="#8c959f" font-family="ui-monospace, SFMono-Regular, 'SF Mono', Menlo, monospace">06-24</text><text x="800.0" y="248" text-anchor="middle" font-size="10" fill="#8c959f" font-family="ui-monospace, SFMono-Regular, 'SF Mono', Menlo, monospace">06-27</text>

  <!-- legend -->
  <rect x="60" y="262" width="16" height="3" fill="#4e79a7" rx="1"/><text x="80" y="268" font-size="11" fill="#57606a" font-family="-apple-system, BlinkMacSystemFont, 'Segoe UI', sans-serif">Total clones (526)</text><line x1="230" y1="264" x2="246" y2="264" stroke="#f28e2b" stroke-width="2" stroke-dasharray="5,3"/><text x="250" y="268" font-size="11" fill="#57606a" font-family="-apple-system, BlinkMacSystemFont, 'Segoe UI', sans-serif">Unique cloners</text>

</svg>