<svg xmlns="http://www.w3.org/2000/svg" viewBox="0 0 820 280" width="820" height="280">

  <!-- title -->
  <text x="52" y="18" font-size="13" font-weight="600"
        fill="#24292f" font-family="-apple-system, BlinkMacSystemFont, 'Segoe UI', sans-serif"
        >Clone traffic — PravKal</text>
  <text x="800" y="18" font-size="10" fill="#8c959f"
        font-family="ui-monospace, SFMono-Regular, 'SF Mono', Menlo, monospace" text-anchor="end">2026-06-14</text>

  <!-- grid -->
  <line x1="52" y1="232.0" x2="800" y2="232.0" stroke="#e8e8e8" stroke-width="1"/><line x1="52" y1="184.6" x2="800" y2="184.6" stroke="#e8e8e8" stroke-width="1"/><line x1="52" y1="137.1" x2="800" y2="137.1" stroke="#e8e8e8" stroke-width="1"/><line x1="52" y1="89.7" x2="800" y2="89.7" stroke="#e8e8e8" stroke-width="1"/><line x1="52" y1="42.2" x2="800" y2="42.2" stroke="#e8e8e8" stroke-width="1"/><line x1="52" y1="-5.2" x2="800" y2="-5.2" stroke="#e8e8e8" stroke-width="1"/>

  <!-- area fill -->
  <path d="M52.0,232.0 L52.0,232.0 L101.9,232.0 L151.7,232.0 L201.6,232.0 L251.5,232.0 L301.3,232.0 L351.2,232.0 L401.1,232.0 L450.9,232.0 L500.8,232.0 L550.7,232.0 L600.5,232.0 L650.4,229.6 L700.3,28.0 L750.1,210.7 L800.0,139.5 L800.0,232.0 L52.0,232.0Z" fill="#4e79a7" opacity="0.12"/>

  <!-- lines -->
  <polyline points="52.0,232.0 101.9,232.0 151.7,232.0 201.6,232.0 251.5,232.0 301.3,232.0 351.2,232.0 401.1,232.0 450.9,232.0 500.8,232.0 550.7,232.0 600.5,232.0 650.4,229.6 700.3,28.0 750.1,210.7 800.0,139.5"
            fill="none" stroke="#4e79a7"
            stroke-width="2" stroke-linejoin="round"/>
  <polyline points="52.0,232.0 101.9,232.0 151.7,232.0 201.6,232.0 251.5,232.0 301.3,232.0 351.2,232.0 401.1,232.0 450.9,232.0 500.8,232.0 550.7,232.0 600.5,232.0 650.4,229.6 700.3,151.3 750.1,210.7 800.0,179.8"
            fill="none" stroke="#f28e2b"
            stroke-width="2" stroke-linejoin="round"
            stroke-dasharray="5,3"/>

  <!-- dots -->
  <circle cx="52.0" cy="232.0" r="3" fill="#4e79a7"/><circle cx="101.9" cy="232.0" r="3" fill="#4e79a7"/><circle cx="151.7" cy="232.0" r="3" fill="#4e79a7"/><circle cx="201.6" cy="232.0" r="3" fill="#4e79a7"/><circle cx="251.5" cy="232.0" r="3" fill="#4e79a7"/><circle cx="301.3" cy="232.0" r="3" fill="#4e79a7"/><circle cx="351.2" cy="232.0" r="3" fill="#4e79a7"/><circle cx="401.1" cy="232.0" r="3" fill="#4e79a7"/><circle cx="450.9" cy="232.0" r="3" fill="#4e79a7"/><circle cx="500.8" cy="232.0" r="3" fill="#4e79a7"/><circle cx="550.7" cy="232.0" r="3" fill="#4e79a7"/><circle cx="600.5" cy="232.0" r="3" fill="#4e79a7"/><circle cx="650.4" cy="229.6" r="3" fill="#4e79a7"/><circle cx="700.3" cy="28.0" r="3" fill="#4e79a7"/><circle cx="750.1" cy="210.7" r="3" fill="#4e79a7"/><circle cx="800.0" cy="139.5" r="3" fill="#4e79a7"/>
  <circle cx="52.0" cy="232.0" r="3" fill="#f28e2b"/><circle cx="101.9" cy="232.0" r="3" fill="#f28e2b"/><circle cx="151.7" cy="232.0" r="3" fill="#f28e2b"/><circle cx="201.6" cy="232.0" r="3" fill="#f28e2b"/><circle cx="251.5" cy="232.0" r="3" fill="#f28e2b"/><circle cx="301.3" cy="232.0" r="3" fill="#f28e2b"/><circle cx="351.2" cy="232.0" r="3" fill="#f28e2b"/><circle cx="401.1" cy="232.0" r="3" fill="#f28e2b"/><circle cx="450.9" cy="232.0" r="3" fill="#f28e2b"/><circle cx="500.8" cy="232.0" r="3" fill="#f28e2b"/><circle cx="550.7" cy="232.0" r="3" fill="#f28e2b"/><circle cx="600.5" cy="232.0" r="3" fill="#f28e2b"/><circle cx="650.4" cy="229.6" r="3" fill="#f28e2b"/><circle cx="700.3" cy="151.3" r="3" fill="#f28e2b"/><circle cx="750.1" cy="210.7" r="3" fill="#f28e2b"/><circle cx="800.0" cy="179.8" r="3" fill="#f28e2b"/>

  <!-- axes -->
  <line x1="52" y1="28" x2="52" y2="232"
        stroke="#cccccc" stroke-width="1"/>
  <line x1="52" y1="232" x2="800" y2="232"
        stroke="#cccccc" stroke-width="1"/>

  <!-- y-axis labels -->
  <text x="47" y="236.0" text-anchor="end" font-size="10" fill="#57606a" font-family="ui-monospace, SFMono-Regular, 'SF Mono', Menlo, monospace">0</text><text x="47" y="188.6" text-anchor="end" font-size="10" fill="#57606a" font-family="ui-monospace, SFMono-Regular, 'SF Mono', Menlo, monospace">20</text><text x="47" y="141.1" text-anchor="end" font-size="10" fill="#57606a" font-family="ui-monospace, SFMono-Regular, 'SF Mono', Menlo, monospace">40</text><text x="47" y="93.7" text-anchor="end" font-size="10" fill="#57606a" font-family="ui-monospace, SFMono-Regular, 'SF Mono', Menlo, monospace">60</text><text x="47" y="46.2" text-anchor="end" font-size="10" fill="#57606a" font-family="ui-monospace, SFMono-Regular, 'SF Mono', Menlo, monospace">80</text><text x="47" y="-1.2" text-anchor="end" font-size="10" fill="#57606a" font-family="ui-monospace, SFMono-Regular, 'SF Mono', Menlo, monospace">100</text>

  <!-- x-axis labels -->
  <text x="52.0" y="248" text-anchor="middle" font-size="10" fill="#8c959f" font-family="ui-monospace, SFMono-Regular, 'SF Mono', Menlo, monospace">05-28</text><text x="151.7" y="248" text-anchor="middle" font-size="10" fill="#8c959f" font-family="ui-monospace, SFMono-Regular, 'SF Mono', Menlo, monospace">05-30</text><text x="251.5" y="248" text-anchor="middle" font-size="10" fill="#8c959f" font-family="ui-monospace, SFMono-Regular, 'SF Mono', Menlo, monospace">06-01</text><text x="351.2" y="248" text-anchor="middle" font-size="10" fill="#8c959f" font-family="ui-monospace, SFMono-Regular, 'SF Mono', Menlo, monospace">06-03</text><text x="450.9" y="248" text-anchor="middle" font-size="10" fill="#8c959f" font-family="ui-monospace, SFMono-Regular, 'SF Mono', Menlo, monospace">06-05</text><text x="550.7" y="248" text-anchor="middle" font-size="10" fill="#8c959f" font-family="ui-monospace, SFMono-Regular, 'SF Mono', Menlo, monospace">06-07</text><text x="650.4" y="248" text-anchor="middle" font-size="10" fill="#8c959f" font-family="ui-monospace, SFMono-Regular, 'SF Mono', Menlo, monospace">06-09</text><text x="750.1" y="248" text-anchor="middle" font-size="10" fill="#8c959f" font-family="ui-monospace, SFMono-Regular, 'SF Mono', Menlo, monospace">06-11</text><text x="800.0" y="248" text-anchor="middle" font-size="10" fill="#8c959f" font-family="ui-monospace, SFMono-Regular, 'SF Mono', Menlo, monospace">06-12</text>

  <!-- legend -->
  <rect x="60" y="262" width="16" height="3" fill="#4e79a7" rx="1"/><text x="80" y="268" font-size="11" fill="#57606a" font-family="-apple-system, BlinkMacSystemFont, 'Segoe UI', sans-serif">Total clones (135)</text><line x1="230" y1="264" x2="246" y2="264" stroke="#f28e2b" stroke-width="2" stroke-dasharray="5,3"/><text x="250" y="268" font-size="11" fill="#57606a" font-family="-apple-system, BlinkMacSystemFont, 'Segoe UI', sans-serif">Unique cloners</text>

</svg>