<svg xmlns="http://www.w3.org/2000/svg" viewBox="0 0 820 280" width="820" height="280">

  <!-- title -->
  <text x="52" y="18" font-size="13" font-weight="600"
        fill="#24292f" font-family="-apple-system, BlinkMacSystemFont, 'Segoe UI', sans-serif"
        >Clone traffic — PravKal</text>
  <text x="800" y="18" font-size="10" fill="#8c959f"
        font-family="ui-monospace, SFMono-Regular, 'SF Mono', Menlo, monospace" text-anchor="end">2026-07-07</text>

  <!-- grid -->
  <line x1="52" y1="232.0" x2="800" y2="232.0" stroke="#e8e8e8" stroke-width="1"/><line x1="52" y1="189.2" x2="800" y2="189.2" stroke="#e8e8e8" stroke-width="1"/><line x1="52" y1="146.4" x2="800" y2="146.4" stroke="#e8e8e8" stroke-width="1"/><line x1="52" y1="103.6" x2="800" y2="103.6" stroke="#e8e8e8" stroke-width="1"/><line x1="52" y1="60.8" x2="800" y2="60.8" stroke="#e8e8e8" stroke-width="1"/><line x1="52" y1="18.0" x2="800" y2="18.0" stroke="#e8e8e8" stroke-width="1"/>

  <!-- area fill -->
  <path d="M52.0,232.0 L52.0,232.0 L71.7,232.0 L91.4,232.0 L111.1,232.0 L130.7,232.0 L150.4,232.0 L170.1,232.0 L189.8,232.0 L209.5,232.0 L229.2,232.0 L248.8,232.0 L268.5,232.0 L288.2,231.3 L307.9,170.7 L327.6,225.6 L347.3,204.2 L366.9,208.5 L386.6,230.6 L406.3,223.4 L426.0,232.0 L445.7,232.0 L465.4,219.9 L485.1,229.1 L504.7,232.0 L524.4,215.6 L544.1,28.0 L563.8,225.6 L583.5,230.6 L603.2,232.0 L622.8,229.9 L642.5,232.0 L662.2,230.6 L681.9,230.6 L701.6,232.0 L721.3,229.9 L740.9,232.0 L760.6,231.3 L780.3,232.0 L800.0,232.0 L800.0,232.0 L52.0,232.0Z" fill="#4e79a7" opacity="0.12"/>

  <!-- lines -->
  <polyline points="52.0,232.0 71.7,232.0 91.4,232.0 111.1,232.0 130.7,232.0 150.4,232.0 170.1,232.0 189.8,232.0 209.5,232.0 229.2,232.0 248.8,232.0 268.5,232.0 288.2,231.3 307.9,170.7 327.6,225.6 347.3,204.2 366.9,208.5 386.6,230.6 406.3,223.4 426.0,232.0 445.7,232.0 465.4,219.9 485.1,229.1 504.7,232.0 524.4,215.6 544.1,28.0 563.8,225.6 583.5,230.6 603.2,232.0 622.8,229.9 642.5,232.0 662.2,230.6 681.9,230.6 701.6,232.0 721.3,229.9 740.9,232.0 760.6,231.3 780.3,232.0 800.0,232.0"
            fill="none" stroke="#4e79a7"
            stroke-width="2" stroke-linejoin="round"/>
  <polyline points="52.0,232.0 71.7,232.0 91.4,232.0 111.1,232.0 130.7,232.0 150.4,232.0 170.1,232.0 189.8,232.0 209.5,232.0 229.2,232.0 248.8,232.0 268.5,232.0 288.2,231.3 307.9,207.7 327.6,225.6 347.3,216.3 366.9,218.4 386.6,230.6 406.3,231.3 426.0,232.0 445.7,232.0 465.4,223.4 485.1,229.1 504.7,232.0 524.4,223.4 544.1,148.5 563.8,225.6 583.5,230.6 603.2,232.0 622.8,229.9 642.5,232.0 662.2,230.6 681.9,230.6 701.6,232.0 721.3,229.9 740.9,232.0 760.6,231.3 780.3,232.0 800.0,232.0"
            fill="none" stroke="#f28e2b"
            stroke-width="2" stroke-linejoin="round"
            stroke-dasharray="5,3"/>

  <!-- dots -->
  <circle cx="52.0" cy="232.0" r="3" fill="#4e79a7"/><circle cx="71.7" cy="232.0" r="3" fill="#4e79a7"/><circle cx="91.4" cy="232.0" r="3" fill="#4e79a7"/><circle cx="111.1" cy="232.0" r="3" fill="#4e79a7"/><circle cx="130.7" cy="232.0" r="3" fill="#4e79a7"/><circle cx="150.4" cy="232.0" r="3" fill="#4e79a7"/><circle cx="170.1" cy="232.0" r="3" fill="#4e79a7"/><circle cx="189.8" cy="232.0" r="3" fill="#4e79a7"/><circle cx="209.5" cy="232.0" r="3" fill="#4e79a7"/><circle cx="229.2" cy="232.0" r="3" fill="#4e79a7"/><circle cx="248.8" cy="232.0" r="3" fill="#4e79a7"/><circle cx="268.5" cy="232.0" r="3" fill="#4e79a7"/><circle cx="288.2" cy="231.3" r="3" fill="#4e79a7"/><circle cx="307.9" cy="170.7" r="3" fill="#4e79a7"/><circle cx="327.6" cy="225.6" r="3" fill="#4e79a7"/><circle cx="347.3" cy="204.2" r="3" fill="#4e79a7"/><circle cx="366.9" cy="208.5" r="3" fill="#4e79a7"/><circle cx="386.6" cy="230.6" r="3" fill="#4e79a7"/><circle cx="406.3" cy="223.4" r="3" fill="#4e79a7"/><circle cx="426.0" cy="232.0" r="3" fill="#4e79a7"/><circle cx="445.7" cy="232.0" r="3" fill="#4e79a7"/><circle cx="465.4" cy="219.9" r="3" fill="#4e79a7"/><circle cx="485.1" cy="229.1" r="3" fill="#4e79a7"/><circle cx="504.7" cy="232.0" r="3" fill="#4e79a7"/><circle cx="524.4" cy="215.6" r="3" fill="#4e79a7"/><circle cx="544.1" cy="28.0" r="3" fill="#4e79a7"/><circle cx="563.8" cy="225.6" r="3" fill="#4e79a7"/><circle cx="583.5" cy="230.6" r="3" fill="#4e79a7"/><circle cx="603.2" cy="232.0" r="3" fill="#4e79a7"/><circle cx="622.8" cy="229.9" r="3" fill="#4e79a7"/><circle cx="642.5" cy="232.0" r="3" fill="#4e79a7"/><circle cx="662.2" cy="230.6" r="3" fill="#4e79a7"/><circle cx="681.9" cy="230.6" r="3" fill="#4e79a7"/><circle cx="701.6" cy="232.0" r="3" fill="#4e79a7"/><circle cx="721.3" cy="229.9" r="3" fill="#4e79a7"/><circle cx="740.9" cy="232.0" r="3" fill="#4e79a7"/><circle cx="760.6" cy="231.3" r="3" fill="#4e79a7"/><circle cx="780.3" cy="232.0" r="3" fill="#4e79a7"/><circle cx="800.0" cy="232.0" r="3" fill="#4e79a7"/>
  <circle cx="52.0" cy="232.0" r="3" fill="#f28e2b"/><circle cx="71.7" cy="232.0" r="3" fill="#f28e2b"/><circle cx="91.4" cy="232.0" r="3" fill="#f28e2b"/><circle cx="111.1" cy="232.0" r="3" fill="#f28e2b"/><circle cx="130.7" cy="232.0" r="3" fill="#f28e2b"/><circle cx="150.4" cy="232.0" r="3" fill="#f28e2b"/><circle cx="170.1" cy="232.0" r="3" fill="#f28e2b"/><circle cx="189.8" cy="232.0" r="3" fill="#f28e2b"/><circle cx="209.5" cy="232.0" r="3" fill="#f28e2b"/><circle cx="229.2" cy="232.0" r="3" fill="#f28e2b"/><circle cx="248.8" cy="232.0" r="3" fill="#f28e2b"/><circle cx="268.5" cy="232.0" r="3" fill="#f28e2b"/><circle cx="288.2" cy="231.3" r="3" fill="#f28e2b"/><circle cx="307.9" cy="207.7" r="3" fill="#f28e2b"/><circle cx="327.6" cy="225.6" r="3" fill="#f28e2b"/><circle cx="347.3" cy="216.3" r="3" fill="#f28e2b"/><circle cx="366.9" cy="218.4" r="3" fill="#f28e2b"/><circle cx="386.6" cy="230.6" r="3" fill="#f28e2b"/><circle cx="406.3" cy="231.3" r="3" fill="#f28e2b"/><circle cx="426.0" cy="232.0" r="3" fill="#f28e2b"/><circle cx="445.7" cy="232.0" r="3" fill="#f28e2b"/><circle cx="465.4" cy="223.4" r="3" fill="#f28e2b"/><circle cx="485.1" cy="229.1" r="3" fill="#f28e2b"/><circle cx="504.7" cy="232.0" r="3" fill="#f28e2b"/><circle cx="524.4" cy="223.4" r="3" fill="#f28e2b"/><circle cx="544.1" cy="148.5" r="3" fill="#f28e2b"/><circle cx="563.8" cy="225.6" r="3" fill="#f28e2b"/><circle cx="583.5" cy="230.6" r="3" fill="#f28e2b"/><circle cx="603.2" cy="232.0" r="3" fill="#f28e2b"/><circle cx="622.8" cy="229.9" r="3" fill="#f28e2b"/><circle cx="642.5" cy="232.0" r="3" fill="#f28e2b"/><circle cx="662.2" cy="230.6" r="3" fill="#f28e2b"/><circle cx="681.9" cy="230.6" r="3" fill="#f28e2b"/><circle cx="701.6" cy="232.0" r="3" fill="#f28e2b"/><circle cx="721.3" cy="229.9" r="3" fill="#f28e2b"/><circle cx="740.9" cy="232.0" r="3" fill="#f28e2b"/><circle cx="760.6" cy="231.3" r="3" fill="#f28e2b"/><circle cx="780.3" cy="232.0" r="3" fill="#f28e2b"/><circle cx="800.0" cy="232.0" r="3" fill="#f28e2b"/>

  <!-- axes -->
  <line x1="52" y1="28" x2="52" y2="232"
        stroke="#cccccc" stroke-width="1"/>
  <line x1="52" y1="232" x2="800" y2="232"
        stroke="#cccccc" stroke-width="1"/>

  <!-- y-axis labels -->
  <text x="47" y="236.0" text-anchor="end" font-size="10" fill="#57606a" font-family="ui-monospace, SFMono-Regular, 'SF Mono', Menlo, monospace">0</text><text x="47" y="193.2" text-anchor="end" font-size="10" fill="#57606a" font-family="ui-monospace, SFMono-Regular, 'SF Mono', Menlo, monospace">60</text><text x="47" y="150.4" text-anchor="end" font-size="10" fill="#57606a" font-family="ui-monospace, SFMono-Regular, 'SF Mono', Menlo, monospace">120</text><text x="47" y="107.6" text-anchor="end" font-size="10" fill="#57606a" font-family="ui-monospace, SFMono-Regular, 'SF Mono', Menlo, monospace">180</text><text x="47" y="64.8" text-anchor="end" font-size="10" fill="#57606a" font-family="ui-monospace, SFMono-Regular, 'SF Mono', Menlo, monospace">240</text><text x="47" y="22.0" text-anchor="end" font-size="10" fill="#57606a" font-family="ui-monospace, SFMono-Regular, 'SF Mono', Menlo, monospace">300</text>

  <!-- x-axis labels -->
  <text x="52.0" y="248" text-anchor="middle" font-size="10" fill="#8c959f" font-family="ui-monospace, SFMono-Regular, 'SF Mono', Menlo, monospace">05-28</text><text x="681.9" y="248" text-anchor="middle" font-size="10" fill="#8c959f" font-family="ui-monospace, SFMono-Regular, 'SF Mono', Menlo, monospace">06-29</text><text x="130.7" y="248" text-anchor="middle" font-size="10" fill="#8c959f" font-family="ui-monospace, SFMono-Regular, 'SF Mono', Menlo, monospace">06-01</text><text x="760.6" y="248" text-anchor="middle" font-size="10" fill="#8c959f" font-family="ui-monospace, SFMono-Regular, 'SF Mono', Menlo, monospace">07-03</text><text x="800.0" y="248" text-anchor="middle" font-size="10" fill="#8c959f" font-family="ui-monospace, SFMono-Regular, 'SF Mono', Menlo, monospace">07-05</text><text x="209.5" y="248" text-anchor="middle" font-size="10" fill="#8c959f" font-family="ui-monospace, SFMono-Regular, 'SF Mono', Menlo, monospace">06-05</text><text x="288.2" y="248" text-anchor="middle" font-size="10" fill="#8c959f" font-family="ui-monospace, SFMono-Regular, 'SF Mono', Menlo, monospace">06-09</text><text x="366.9" y="248" text-anchor="middle" font-size="10" fill="#8c959f" font-family="ui-monospace, SFMono-Regular, 'SF Mono', Menlo, monospace">06-13</text><text x="445.7" y="248" text-anchor="middle" font-size="10" fill="#8c959f" font-family="ui-monospace, SFMono-Regular, 'SF Mono', Menlo, monospace">06-17</text><text x="524.4" y="248" text-anchor="middle" font-size="10" fill="#8c959f" font-family="ui-monospace, SFMono-Regular, 'SF Mono', Menlo, monospace">06-21</text><text x="603.2" y="248" text-anchor="middle" font-size="10" fill="#8c959f" font-family="ui-monospace, SFMono-Regular, 'SF Mono', Menlo, monospace">06-25</text>

  <!-- legend -->
  <rect x="60" y="262" width="16" height="3" fill="#4e79a7" rx="1"/><text x="80" y="268" font-size="11" fill="#57606a" font-family="-apple-system, BlinkMacSystemFont, 'Segoe UI', sans-serif">Total clones (534)</text><line x1="230" y1="264" x2="246" y2="264" stroke="#f28e2b" stroke-width="2" stroke-dasharray="5,3"/><text x="250" y="268" font-size="11" fill="#57606a" font-family="-apple-system, BlinkMacSystemFont, 'Segoe UI', sans-serif">Unique cloners</text>

</svg>