<svg xmlns="http://www.w3.org/2000/svg" viewBox="0 0 820 280" width="820" height="280">

  <!-- title -->
  <text x="52" y="18" font-size="13" font-weight="600"
        fill="#24292f" font-family="-apple-system, BlinkMacSystemFont, 'Segoe UI', sans-serif"
        >Clone traffic — PravKal</text>
  <text x="800" y="18" font-size="10" fill="#8c959f"
        font-family="ui-monospace, SFMono-Regular, 'SF Mono', Menlo, monospace" text-anchor="end">2026-07-22</text>

  <!-- grid -->
  <line x1="52" y1="232.0" x2="800" y2="232.0" stroke="#e8e8e8" stroke-width="1"/><line x1="52" y1="189.2" x2="800" y2="189.2" stroke="#e8e8e8" stroke-width="1"/><line x1="52" y1="146.4" x2="800" y2="146.4" stroke="#e8e8e8" stroke-width="1"/><line x1="52" y1="103.6" x2="800" y2="103.6" stroke="#e8e8e8" stroke-width="1"/><line x1="52" y1="60.8" x2="800" y2="60.8" stroke="#e8e8e8" stroke-width="1"/><line x1="52" y1="18.0" x2="800" y2="18.0" stroke="#e8e8e8" stroke-width="1"/>

  <!-- area fill -->
  <path d="M52.0,232.0 L52.0,232.0 L66.1,232.0 L80.2,232.0 L94.3,232.0 L108.5,232.0 L122.6,232.0 L136.7,232.0 L150.8,232.0 L164.9,232.0 L179.0,232.0 L193.1,232.0 L207.2,232.0 L221.4,231.3 L235.5,170.7 L249.6,225.6 L263.7,204.2 L277.8,208.5 L291.9,230.6 L306.0,223.4 L320.2,232.0 L334.3,232.0 L348.4,219.9 L362.5,229.1 L376.6,232.0 L390.7,215.6 L404.8,28.0 L418.9,225.6 L433.1,230.6 L447.2,232.0 L461.3,229.9 L475.4,232.0 L489.5,230.6 L503.6,230.6 L517.7,232.0 L531.8,229.9 L546.0,232.0 L560.1,231.3 L574.2,232.0 L588.3,232.0 L602.4,231.3 L616.5,229.1 L630.6,230.6 L644.8,227.0 L658.9,232.0 L673.0,231.3 L687.1,230.6 L701.2,232.0 L715.3,231.3 L729.4,232.0 L743.5,232.0 L757.7,231.3 L771.8,232.0 L785.9,231.3 L800.0,232.0 L800.0,232.0 L52.0,232.0Z" fill="#4e79a7" opacity="0.12"/>

  <!-- lines -->
  <polyline points="52.0,232.0 66.1,232.0 80.2,232.0 94.3,232.0 108.5,232.0 122.6,232.0 136.7,232.0 150.8,232.0 164.9,232.0 179.0,232.0 193.1,232.0 207.2,232.0 221.4,231.3 235.5,170.7 249.6,225.6 263.7,204.2 277.8,208.5 291.9,230.6 306.0,223.4 320.2,232.0 334.3,232.0 348.4,219.9 362.5,229.1 376.6,232.0 390.7,215.6 404.8,28.0 418.9,225.6 433.1,230.6 447.2,232.0 461.3,229.9 475.4,232.0 489.5,230.6 503.6,230.6 517.7,232.0 531.8,229.9 546.0,232.0 560.1,231.3 574.2,232.0 588.3,232.0 602.4,231.3 616.5,229.1 630.6,230.6 644.8,227.0 658.9,232.0 673.0,231.3 687.1,230.6 701.2,232.0 715.3,231.3 729.4,232.0 743.5,232.0 757.7,231.3 771.8,232.0 785.9,231.3 800.0,232.0"
            fill="none" stroke="#4e79a7"
            stroke-width="2" stroke-linejoin="round"/>
  <polyline points="52.0,232.0 66.1,232.0 80.2,232.0 94.3,232.0 108.5,232.0 122.6,232.0 136.7,232.0 150.8,232.0 164.9,232.0 179.0,232.0 193.1,232.0 207.2,232.0 221.4,231.3 235.5,207.7 249.6,225.6 263.7,216.3 277.8,218.4 291.9,230.6 306.0,231.3 320.2,232.0 334.3,232.0 348.4,223.4 362.5,229.1 376.6,232.0 390.7,223.4 404.8,148.5 418.9,225.6 433.1,230.6 447.2,232.0 461.3,229.9 475.4,232.0 489.5,230.6 503.6,230.6 517.7,232.0 531.8,229.9 546.0,232.0 560.1,231.3 574.2,232.0 588.3,232.0 602.4,231.3 616.5,231.3 630.6,230.6 644.8,231.3 658.9,232.0 673.0,231.3 687.1,230.6 701.2,232.0 715.3,231.3 729.4,232.0 743.5,232.0 757.7,231.3 771.8,232.0 785.9,231.3 800.0,232.0"
            fill="none" stroke="#f28e2b"
            stroke-width="2" stroke-linejoin="round"
            stroke-dasharray="5,3"/>

  <!-- dots -->
  <circle cx="52.0" cy="232.0" r="3" fill="#4e79a7"/><circle cx="66.1" cy="232.0" r="3" fill="#4e79a7"/><circle cx="80.2" cy="232.0" r="3" fill="#4e79a7"/><circle cx="94.3" cy="232.0" r="3" fill="#4e79a7"/><circle cx="108.5" cy="232.0" r="3" fill="#4e79a7"/><circle cx="122.6" cy="232.0" r="3" fill="#4e79a7"/><circle cx="136.7" cy="232.0" r="3" fill="#4e79a7"/><circle cx="150.8" cy="232.0" r="3" fill="#4e79a7"/><circle cx="164.9" cy="232.0" r="3" fill="#4e79a7"/><circle cx="179.0" cy="232.0" r="3" fill="#4e79a7"/><circle cx="193.1" cy="232.0" r="3" fill="#4e79a7"/><circle cx="207.2" cy="232.0" r="3" fill="#4e79a7"/><circle cx="221.4" cy="231.3" r="3" fill="#4e79a7"/><circle cx="235.5" cy="170.7" r="3" fill="#4e79a7"/><circle cx="249.6" cy="225.6" r="3" fill="#4e79a7"/><circle cx="263.7" cy="204.2" r="3" fill="#4e79a7"/><circle cx="277.8" cy="208.5" r="3" fill="#4e79a7"/><circle cx="291.9" cy="230.6" r="3" fill="#4e79a7"/><circle cx="306.0" cy="223.4" r="3" fill="#4e79a7"/><circle cx="320.2" cy="232.0" r="3" fill="#4e79a7"/><circle cx="334.3" cy="232.0" r="3" fill="#4e79a7"/><circle cx="348.4" cy="219.9" r="3" fill="#4e79a7"/><circle cx="362.5" cy="229.1" r="3" fill="#4e79a7"/><circle cx="376.6" cy="232.0" r="3" fill="#4e79a7"/><circle cx="390.7" cy="215.6" r="3" fill="#4e79a7"/><circle cx="404.8" cy="28.0" r="3" fill="#4e79a7"/><circle cx="418.9" cy="225.6" r="3" fill="#4e79a7"/><circle cx="433.1" cy="230.6" r="3" fill="#4e79a7"/><circle cx="447.2" cy="232.0" r="3" fill="#4e79a7"/><circle cx="461.3" cy="229.9" r="3" fill="#4e79a7"/><circle cx="475.4" cy="232.0" r="3" fill="#4e79a7"/><circle cx="489.5" cy="230.6" r="3" fill="#4e79a7"/><circle cx="503.6" cy="230.6" r="3" fill="#4e79a7"/><circle cx="517.7" cy="232.0" r="3" fill="#4e79a7"/><circle cx="531.8" cy="229.9" r="3" fill="#4e79a7"/><circle cx="546.0" cy="232.0" r="3" fill="#4e79a7"/><circle cx="560.1" cy="231.3" r="3" fill="#4e79a7"/><circle cx="574.2" cy="232.0" r="3" fill="#4e79a7"/><circle cx="588.3" cy="232.0" r="3" fill="#4e79a7"/><circle cx="602.4" cy="231.3" r="3" fill="#4e79a7"/><circle cx="616.5" cy="229.1" r="3" fill="#4e79a7"/><circle cx="630.6" cy="230.6" r="3" fill="#4e79a7"/><circle cx="644.8" cy="227.0" r="3" fill="#4e79a7"/><circle cx="658.9" cy="232.0" r="3" fill="#4e79a7"/><circle cx="673.0" cy="231.3" r="3" fill="#4e79a7"/><circle cx="687.1" cy="230.6" r="3" fill="#4e79a7"/><circle cx="701.2" cy="232.0" r="3" fill="#4e79a7"/><circle cx="715.3" cy="231.3" r="3" fill="#4e79a7"/><circle cx="729.4" cy="232.0" r="3" fill="#4e79a7"/><circle cx="743.5" cy="232.0" r="3" fill="#4e79a7"/><circle cx="757.7" cy="231.3" r="3" fill="#4e79a7"/><circle cx="771.8" cy="232.0" r="3" fill="#4e79a7"/><circle cx="785.9" cy="231.3" r="3" fill="#4e79a7"/><circle cx="800.0" cy="232.0" r="3" fill="#4e79a7"/>
  <circle cx="52.0" cy="232.0" r="3" fill="#f28e2b"/><circle cx="66.1" cy="232.0" r="3" fill="#f28e2b"/><circle cx="80.2" cy="232.0" r="3" fill="#f28e2b"/><circle cx="94.3" cy="232.0" r="3" fill="#f28e2b"/><circle cx="108.5" cy="232.0" r="3" fill="#f28e2b"/><circle cx="122.6" cy="232.0" r="3" fill="#f28e2b"/><circle cx="136.7" cy="232.0" r="3" fill="#f28e2b"/><circle cx="150.8" cy="232.0" r="3" fill="#f28e2b"/><circle cx="164.9" cy="232.0" r="3" fill="#f28e2b"/><circle cx="179.0" cy="232.0" r="3" fill="#f28e2b"/><circle cx="193.1" cy="232.0" r="3" fill="#f28e2b"/><circle cx="207.2" cy="232.0" r="3" fill="#f28e2b"/><circle cx="221.4" cy="231.3" r="3" fill="#f28e2b"/><circle cx="235.5" cy="207.7" r="3" fill="#f28e2b"/><circle cx="249.6" cy="225.6" r="3" fill="#f28e2b"/><circle cx="263.7" cy="216.3" r="3" fill="#f28e2b"/><circle cx="277.8" cy="218.4" r="3" fill="#f28e2b"/><circle cx="291.9" cy="230.6" r="3" fill="#f28e2b"/><circle cx="306.0" cy="231.3" r="3" fill="#f28e2b"/><circle cx="320.2" cy="232.0" r="3" fill="#f28e2b"/><circle cx="334.3" cy="232.0" r="3" fill="#f28e2b"/><circle cx="348.4" cy="223.4" r="3" fill="#f28e2b"/><circle cx="362.5" cy="229.1" r="3" fill="#f28e2b"/><circle cx="376.6" cy="232.0" r="3" fill="#f28e2b"/><circle cx="390.7" cy="223.4" r="3" fill="#f28e2b"/><circle cx="404.8" cy="148.5" r="3" fill="#f28e2b"/><circle cx="418.9" cy="225.6" r="3" fill="#f28e2b"/><circle cx="433.1" cy="230.6" r="3" fill="#f28e2b"/><circle cx="447.2" cy="232.0" r="3" fill="#f28e2b"/><circle cx="461.3" cy="229.9" r="3" fill="#f28e2b"/><circle cx="475.4" cy="232.0" r="3" fill="#f28e2b"/><circle cx="489.5" cy="230.6" r="3" fill="#f28e2b"/><circle cx="503.6" cy="230.6" r="3" fill="#f28e2b"/><circle cx="517.7" cy="232.0" r="3" fill="#f28e2b"/><circle cx="531.8" cy="229.9" r="3" fill="#f28e2b"/><circle cx="546.0" cy="232.0" r="3" fill="#f28e2b"/><circle cx="560.1" cy="231.3" r="3" fill="#f28e2b"/><circle cx="574.2" cy="232.0" r="3" fill="#f28e2b"/><circle cx="588.3" cy="232.0" r="3" fill="#f28e2b"/><circle cx="602.4" cy="231.3" r="3" fill="#f28e2b"/><circle cx="616.5" cy="231.3" r="3" fill="#f28e2b"/><circle cx="630.6" cy="230.6" r="3" fill="#f28e2b"/><circle cx="644.8" cy="231.3" r="3" fill="#f28e2b"/><circle cx="658.9" cy="232.0" r="3" fill="#f28e2b"/><circle cx="673.0" cy="231.3" r="3" fill="#f28e2b"/><circle cx="687.1" cy="230.6" r="3" fill="#f28e2b"/><circle cx="701.2" cy="232.0" r="3" fill="#f28e2b"/><circle cx="715.3" cy="231.3" r="3" fill="#f28e2b"/><circle cx="729.4" cy="232.0" r="3" fill="#f28e2b"/><circle cx="743.5" cy="232.0" r="3" fill="#f28e2b"/><circle cx="757.7" cy="231.3" r="3" fill="#f28e2b"/><circle cx="771.8" cy="232.0" r="3" fill="#f28e2b"/><circle cx="785.9" cy="231.3" r="3" fill="#f28e2b"/><circle cx="800.0" cy="232.0" r="3" fill="#f28e2b"/>

  <!-- axes -->
  <line x1="52" y1="28" x2="52" y2="232"
        stroke="#cccccc" stroke-width="1"/>
  <line x1="52" y1="232" x2="800" y2="232"
        stroke="#cccccc" stroke-width="1"/>

  <!-- y-axis labels -->
  <text x="47" y="236.0" text-anchor="end" font-size="10" fill="#57606a" font-family="ui-monospace, SFMono-Regular, 'SF Mono', Menlo, monospace">0</text><text x="47" y="193.2" text-anchor="end" font-size="10" fill="#57606a" font-family="ui-monospace, SFMono-Regular, 'SF Mono', Menlo, monospace">60</text><text x="47" y="150.4" text-anchor="end" font-size="10" fill="#57606a" font-family="ui-monospace, SFMono-Regular, 'SF Mono', Menlo, monospace">120</text><text x="47" y="107.6" text-anchor="end" font-size="10" fill="#57606a" font-family="ui-monospace, SFMono-Regular, 'SF Mono', Menlo, monospace">180</text><text x="47" y="64.8" text-anchor="end" font-size="10" fill="#57606a" font-family="ui-monospace, SFMono-Regular, 'SF Mono', Menlo, monospace">240</text><text x="47" y="22.0" text-anchor="end" font-size="10" fill="#57606a" font-family="ui-monospace, SFMono-Regular, 'SF Mono', Menlo, monospace">300</text>

  <!-- x-axis labels -->
  <text x="52.0" y="248" text-anchor="middle" font-size="10" fill="#8c959f" font-family="ui-monospace, SFMono-Regular, 'SF Mono', Menlo, monospace">05-28</text><text x="560.1" y="248" text-anchor="middle" font-size="10" fill="#8c959f" font-family="ui-monospace, SFMono-Regular, 'SF Mono', Menlo, monospace">07-03</text><text x="136.7" y="248" text-anchor="middle" font-size="10" fill="#8c959f" font-family="ui-monospace, SFMono-Regular, 'SF Mono', Menlo, monospace">06-03</text><text x="644.8" y="248" text-anchor="middle" font-size="10" fill="#8c959f" font-family="ui-monospace, SFMono-Regular, 'SF Mono', Menlo, monospace">07-09</text><text x="221.4" y="248" text-anchor="middle" font-size="10" fill="#8c959f" font-family="ui-monospace, SFMono-Regular, 'SF Mono', Menlo, monospace">06-09</text><text x="729.4" y="248" text-anchor="middle" font-size="10" fill="#8c959f" font-family="ui-monospace, SFMono-Regular, 'SF Mono', Menlo, monospace">07-15</text><text x="306.0" y="248" text-anchor="middle" font-size="10" fill="#8c959f" font-family="ui-monospace, SFMono-Regular, 'SF Mono', Menlo, monospace">06-15</text><text x="800.0" y="248" text-anchor="middle" font-size="10" fill="#8c959f" font-family="ui-monospace, SFMono-Regular, 'SF Mono', Menlo, monospace">07-20</text><text x="390.7" y="248" text-anchor="middle" font-size="10" fill="#8c959f" font-family="ui-monospace, SFMono-Regular, 'SF Mono', Menlo, monospace">06-21</text><text x="475.4" y="248" text-anchor="middle" font-size="10" fill="#8c959f" font-family="ui-monospace, SFMono-Regular, 'SF Mono', Menlo, monospace">06-27</text>

  <!-- legend -->
  <rect x="60" y="262" width="16" height="3" fill="#4e79a7" rx="1"/><text x="80" y="268" font-size="11" fill="#57606a" font-family="-apple-system, BlinkMacSystemFont, 'Segoe UI', sans-serif">Total clones (554)</text><line x1="230" y1="264" x2="246" y2="264" stroke="#f28e2b" stroke-width="2" stroke-dasharray="5,3"/><text x="250" y="268" font-size="11" fill="#57606a" font-family="-apple-system, BlinkMacSystemFont, 'Segoe UI', sans-serif">Unique cloners</text>

</svg>