<svg xmlns="http://www.w3.org/2000/svg" viewBox="0 0 820 280" width="820" height="280">

  <!-- title -->
  <text x="52" y="18" font-size="13" font-weight="600"
        fill="#24292f" font-family="-apple-system, BlinkMacSystemFont, 'Segoe UI', sans-serif"
        >Clone traffic — PravKal</text>
  <text x="800" y="18" font-size="10" fill="#8c959f"
        font-family="ui-monospace, SFMono-Regular, 'SF Mono', Menlo, monospace" text-anchor="end">2026-07-09</text>

  <!-- grid -->
  <line x1="52" y1="232.0" x2="800" y2="232.0" stroke="#e8e8e8" stroke-width="1"/><line x1="52" y1="189.2" x2="800" y2="189.2" stroke="#e8e8e8" stroke-width="1"/><line x1="52" y1="146.4" x2="800" y2="146.4" stroke="#e8e8e8" stroke-width="1"/><line x1="52" y1="103.6" x2="800" y2="103.6" stroke="#e8e8e8" stroke-width="1"/><line x1="52" y1="60.8" x2="800" y2="60.8" stroke="#e8e8e8" stroke-width="1"/><line x1="52" y1="18.0" x2="800" y2="18.0" stroke="#e8e8e8" stroke-width="1"/>

  <!-- area fill -->
  <path d="M52.0,232.0 L52.0,232.0 L70.7,232.0 L89.4,232.0 L108.1,232.0 L126.8,232.0 L145.5,232.0 L164.2,232.0 L182.9,232.0 L201.6,232.0 L220.3,232.0 L239.0,232.0 L257.7,232.0 L276.4,231.3 L295.1,170.7 L313.8,225.6 L332.5,204.2 L351.2,208.5 L369.9,230.6 L388.6,223.4 L407.3,232.0 L426.0,232.0 L444.7,219.9 L463.4,229.1 L482.1,232.0 L500.8,215.6 L519.5,28.0 L538.2,225.6 L556.9,230.6 L575.6,232.0 L594.3,229.9 L613.0,232.0 L631.7,230.6 L650.4,230.6 L669.1,232.0 L687.8,229.9 L706.5,232.0 L725.2,231.3 L743.9,232.0 L762.6,232.0 L781.3,231.3 L800.0,229.1 L800.0,232.0 L52.0,232.0Z" fill="#4e79a7" opacity="0.12"/>

  <!-- lines -->
  <polyline points="52.0,232.0 70.7,232.0 89.4,232.0 108.1,232.0 126.8,232.0 145.5,232.0 164.2,232.0 182.9,232.0 201.6,232.0 220.3,232.0 239.0,232.0 257.7,232.0 276.4,231.3 295.1,170.7 313.8,225.6 332.5,204.2 351.2,208.5 369.9,230.6 388.6,223.4 407.3,232.0 426.0,232.0 444.7,219.9 463.4,229.1 482.1,232.0 500.8,215.6 519.5,28.0 538.2,225.6 556.9,230.6 575.6,232.0 594.3,229.9 613.0,232.0 631.7,230.6 650.4,230.6 669.1,232.0 687.8,229.9 706.5,232.0 725.2,231.3 743.9,232.0 762.6,232.0 781.3,231.3 800.0,229.1"
            fill="none" stroke="#4e79a7"
            stroke-width="2" stroke-linejoin="round"/>
  <polyline points="52.0,232.0 70.7,232.0 89.4,232.0 108.1,232.0 126.8,232.0 145.5,232.0 164.2,232.0 182.9,232.0 201.6,232.0 220.3,232.0 239.0,232.0 257.7,232.0 276.4,231.3 295.1,207.7 313.8,225.6 332.5,216.3 351.2,218.4 369.9,230.6 388.6,231.3 407.3,232.0 426.0,232.0 444.7,223.4 463.4,229.1 482.1,232.0 500.8,223.4 519.5,148.5 538.2,225.6 556.9,230.6 575.6,232.0 594.3,229.9 613.0,232.0 631.7,230.6 650.4,230.6 669.1,232.0 687.8,229.9 706.5,232.0 725.2,231.3 743.9,232.0 762.6,232.0 781.3,231.3 800.0,231.3"
            fill="none" stroke="#f28e2b"
            stroke-width="2" stroke-linejoin="round"
            stroke-dasharray="5,3"/>

  <!-- dots -->
  <circle cx="52.0" cy="232.0" r="3" fill="#4e79a7"/><circle cx="70.7" cy="232.0" r="3" fill="#4e79a7"/><circle cx="89.4" cy="232.0" r="3" fill="#4e79a7"/><circle cx="108.1" cy="232.0" r="3" fill="#4e79a7"/><circle cx="126.8" cy="232.0" r="3" fill="#4e79a7"/><circle cx="145.5" cy="232.0" r="3" fill="#4e79a7"/><circle cx="164.2" cy="232.0" r="3" fill="#4e79a7"/><circle cx="182.9" cy="232.0" r="3" fill="#4e79a7"/><circle cx="201.6" cy="232.0" r="3" fill="#4e79a7"/><circle cx="220.3" cy="232.0" r="3" fill="#4e79a7"/><circle cx="239.0" cy="232.0" r="3" fill="#4e79a7"/><circle cx="257.7" cy="232.0" r="3" fill="#4e79a7"/><circle cx="276.4" cy="231.3" r="3" fill="#4e79a7"/><circle cx="295.1" cy="170.7" r="3" fill="#4e79a7"/><circle cx="313.8" cy="225.6" r="3" fill="#4e79a7"/><circle cx="332.5" cy="204.2" r="3" fill="#4e79a7"/><circle cx="351.2" cy="208.5" r="3" fill="#4e79a7"/><circle cx="369.9" cy="230.6" r="3" fill="#4e79a7"/><circle cx="388.6" cy="223.4" r="3" fill="#4e79a7"/><circle cx="407.3" cy="232.0" r="3" fill="#4e79a7"/><circle cx="426.0" cy="232.0" r="3" fill="#4e79a7"/><circle cx="444.7" cy="219.9" r="3" fill="#4e79a7"/><circle cx="463.4" cy="229.1" r="3" fill="#4e79a7"/><circle cx="482.1" cy="232.0" r="3" fill="#4e79a7"/><circle cx="500.8" cy="215.6" r="3" fill="#4e79a7"/><circle cx="519.5" cy="28.0" r="3" fill="#4e79a7"/><circle cx="538.2" cy="225.6" r="3" fill="#4e79a7"/><circle cx="556.9" cy="230.6" r="3" fill="#4e79a7"/><circle cx="575.6" cy="232.0" r="3" fill="#4e79a7"/><circle cx="594.3" cy="229.9" r="3" fill="#4e79a7"/><circle cx="613.0" cy="232.0" r="3" fill="#4e79a7"/><circle cx="631.7" cy="230.6" r="3" fill="#4e79a7"/><circle cx="650.4" cy="230.6" r="3" fill="#4e79a7"/><circle cx="669.1" cy="232.0" r="3" fill="#4e79a7"/><circle cx="687.8" cy="229.9" r="3" fill="#4e79a7"/><circle cx="706.5" cy="232.0" r="3" fill="#4e79a7"/><circle cx="725.2" cy="231.3" r="3" fill="#4e79a7"/><circle cx="743.9" cy="232.0" r="3" fill="#4e79a7"/><circle cx="762.6" cy="232.0" r="3" fill="#4e79a7"/><circle cx="781.3" cy="231.3" r="3" fill="#4e79a7"/><circle cx="800.0" cy="229.1" r="3" fill="#4e79a7"/>
  <circle cx="52.0" cy="232.0" r="3" fill="#f28e2b"/><circle cx="70.7" cy="232.0" r="3" fill="#f28e2b"/><circle cx="89.4" cy="232.0" r="3" fill="#f28e2b"/><circle cx="108.1" cy="232.0" r="3" fill="#f28e2b"/><circle cx="126.8" cy="232.0" r="3" fill="#f28e2b"/><circle cx="145.5" cy="232.0" r="3" fill="#f28e2b"/><circle cx="164.2" cy="232.0" r="3" fill="#f28e2b"/><circle cx="182.9" cy="232.0" r="3" fill="#f28e2b"/><circle cx="201.6" cy="232.0" r="3" fill="#f28e2b"/><circle cx="220.3" cy="232.0" r="3" fill="#f28e2b"/><circle cx="239.0" cy="232.0" r="3" fill="#f28e2b"/><circle cx="257.7" cy="232.0" r="3" fill="#f28e2b"/><circle cx="276.4" cy="231.3" r="3" fill="#f28e2b"/><circle cx="295.1" cy="207.7" r="3" fill="#f28e2b"/><circle cx="313.8" cy="225.6" r="3" fill="#f28e2b"/><circle cx="332.5" cy="216.3" r="3" fill="#f28e2b"/><circle cx="351.2" cy="218.4" r="3" fill="#f28e2b"/><circle cx="369.9" cy="230.6" r="3" fill="#f28e2b"/><circle cx="388.6" cy="231.3" r="3" fill="#f28e2b"/><circle cx="407.3" cy="232.0" r="3" fill="#f28e2b"/><circle cx="426.0" cy="232.0" r="3" fill="#f28e2b"/><circle cx="444.7" cy="223.4" r="3" fill="#f28e2b"/><circle cx="463.4" cy="229.1" r="3" fill="#f28e2b"/><circle cx="482.1" cy="232.0" r="3" fill="#f28e2b"/><circle cx="500.8" cy="223.4" r="3" fill="#f28e2b"/><circle cx="519.5" cy="148.5" r="3" fill="#f28e2b"/><circle cx="538.2" cy="225.6" r="3" fill="#f28e2b"/><circle cx="556.9" cy="230.6" r="3" fill="#f28e2b"/><circle cx="575.6" cy="232.0" r="3" fill="#f28e2b"/><circle cx="594.3" cy="229.9" r="3" fill="#f28e2b"/><circle cx="613.0" cy="232.0" r="3" fill="#f28e2b"/><circle cx="631.7" cy="230.6" r="3" fill="#f28e2b"/><circle cx="650.4" cy="230.6" r="3" fill="#f28e2b"/><circle cx="669.1" cy="232.0" r="3" fill="#f28e2b"/><circle cx="687.8" cy="229.9" r="3" fill="#f28e2b"/><circle cx="706.5" cy="232.0" r="3" fill="#f28e2b"/><circle cx="725.2" cy="231.3" r="3" fill="#f28e2b"/><circle cx="743.9" cy="232.0" r="3" fill="#f28e2b"/><circle cx="762.6" cy="232.0" r="3" fill="#f28e2b"/><circle cx="781.3" cy="231.3" r="3" fill="#f28e2b"/><circle cx="800.0" cy="231.3" r="3" fill="#f28e2b"/>

  <!-- axes -->
  <line x1="52" y1="28" x2="52" y2="232"
        stroke="#cccccc" stroke-width="1"/>
  <line x1="52" y1="232" x2="800" y2="232"
        stroke="#cccccc" stroke-width="1"/>

  <!-- y-axis labels -->
  <text x="47" y="236.0" text-anchor="end" font-size="10" fill="#57606a" font-family="ui-monospace, SFMono-Regular, 'SF Mono', Menlo, monospace">0</text><text x="47" y="193.2" text-anchor="end" font-size="10" fill="#57606a" font-family="ui-monospace, SFMono-Regular, 'SF Mono', Menlo, monospace">60</text><text x="47" y="150.4" text-anchor="end" font-size="10" fill="#57606a" font-family="ui-monospace, SFMono-Regular, 'SF Mono', Menlo, monospace">120</text><text x="47" y="107.6" text-anchor="end" font-size="10" fill="#57606a" font-family="ui-monospace, SFMono-Regular, 'SF Mono', Menlo, monospace">180</text><text x="47" y="64.8" text-anchor="end" font-size="10" fill="#57606a" font-family="ui-monospace, SFMono-Regular, 'SF Mono', Menlo, monospace">240</text><text x="47" y="22.0" text-anchor="end" font-size="10" fill="#57606a" font-family="ui-monospace, SFMono-Regular, 'SF Mono', Menlo, monospace">300</text>

  <!-- x-axis labels -->
  <text x="52.0" y="248" text-anchor="middle" font-size="10" fill="#8c959f" font-family="ui-monospace, SFMono-Regular, 'SF Mono', Menlo, monospace">05-28</text><text x="706.5" y="248" text-anchor="middle" font-size="10" fill="#8c959f" font-family="ui-monospace, SFMono-Regular, 'SF Mono', Menlo, monospace">07-02</text><text x="145.5" y="248" text-anchor="middle" font-size="10" fill="#8c959f" font-family="ui-monospace, SFMono-Regular, 'SF Mono', Menlo, monospace">06-02</text><text x="800.0" y="248" text-anchor="middle" font-size="10" fill="#8c959f" font-family="ui-monospace, SFMono-Regular, 'SF Mono', Menlo, monospace">07-07</text><text x="239.0" y="248" text-anchor="middle" font-size="10" fill="#8c959f" font-family="ui-monospace, SFMono-Regular, 'SF Mono', Menlo, monospace">06-07</text><text x="332.5" y="248" text-anchor="middle" font-size="10" fill="#8c959f" font-family="ui-monospace, SFMono-Regular, 'SF Mono', Menlo, monospace">06-12</text><text x="426.0" y="248" text-anchor="middle" font-size="10" fill="#8c959f" font-family="ui-monospace, SFMono-Regular, 'SF Mono', Menlo, monospace">06-17</text><text x="519.5" y="248" text-anchor="middle" font-size="10" fill="#8c959f" font-family="ui-monospace, SFMono-Regular, 'SF Mono', Menlo, monospace">06-22</text><text x="613.0" y="248" text-anchor="middle" font-size="10" fill="#8c959f" font-family="ui-monospace, SFMono-Regular, 'SF Mono', Menlo, monospace">06-27</text>

  <!-- legend -->
  <rect x="60" y="262" width="16" height="3" fill="#4e79a7" rx="1"/><text x="80" y="268" font-size="11" fill="#57606a" font-family="-apple-system, BlinkMacSystemFont, 'Segoe UI', sans-serif">Total clones (539)</text><line x1="230" y1="264" x2="246" y2="264" stroke="#f28e2b" stroke-width="2" stroke-dasharray="5,3"/><text x="250" y="268" font-size="11" fill="#57606a" font-family="-apple-system, BlinkMacSystemFont, 'Segoe UI', sans-serif">Unique cloners</text>

</svg>