<svg xmlns="http://www.w3.org/2000/svg" viewBox="0 0 820 280" width="820" height="280">

  <!-- title -->
  <text x="52" y="18" font-size="13" font-weight="600"
        fill="#24292f" font-family="-apple-system, BlinkMacSystemFont, 'Segoe UI', sans-serif"
        >Clone traffic — PravKal</text>
  <text x="800" y="18" font-size="10" fill="#8c959f"
        font-family="ui-monospace, SFMono-Regular, 'SF Mono', Menlo, monospace" text-anchor="end">2026-06-23</text>

  <!-- grid -->
  <line x1="52" y1="232.0" x2="800" y2="232.0" stroke="#e8e8e8" stroke-width="1"/><line x1="52" y1="184.6" x2="800" y2="184.6" stroke="#e8e8e8" stroke-width="1"/><line x1="52" y1="137.1" x2="800" y2="137.1" stroke="#e8e8e8" stroke-width="1"/><line x1="52" y1="89.7" x2="800" y2="89.7" stroke="#e8e8e8" stroke-width="1"/><line x1="52" y1="42.2" x2="800" y2="42.2" stroke="#e8e8e8" stroke-width="1"/><line x1="52" y1="-5.2" x2="800" y2="-5.2" stroke="#e8e8e8" stroke-width="1"/>

  <!-- area fill -->
  <path d="M52.0,232.0 L52.0,232.0 L83.2,232.0 L114.3,232.0 L145.5,232.0 L176.7,232.0 L207.8,232.0 L239.0,232.0 L270.2,232.0 L301.3,232.0 L332.5,232.0 L363.7,232.0 L394.8,232.0 L426.0,229.6 L457.2,28.0 L488.3,210.7 L519.5,139.5 L550.7,153.7 L581.8,227.3 L613.0,203.5 L644.2,232.0 L675.3,232.0 L706.5,191.7 L737.7,222.5 L768.8,232.0 L800.0,177.4 L800.0,232.0 L52.0,232.0Z" fill="#4e79a7" opacity="0.12"/>

  <!-- lines -->
  <polyline points="52.0,232.0 83.2,232.0 114.3,232.0 145.5,232.0 176.7,232.0 207.8,232.0 239.0,232.0 270.2,232.0 301.3,232.0 332.5,232.0 363.7,232.0 394.8,232.0 426.0,229.6 457.2,28.0 488.3,210.7 519.5,139.5 550.7,153.7 581.8,227.3 613.0,203.5 644.2,232.0 675.3,232.0 706.5,191.7 737.7,222.5 768.8,232.0 800.0,177.4"
            fill="none" stroke="#4e79a7"
            stroke-width="2" stroke-linejoin="round"/>
  <polyline points="52.0,232.0 83.2,232.0 114.3,232.0 145.5,232.0 176.7,232.0 207.8,232.0 239.0,232.0 270.2,232.0 301.3,232.0 332.5,232.0 363.7,232.0 394.8,232.0 426.0,229.6 457.2,151.3 488.3,210.7 519.5,179.8 550.7,186.9 581.8,227.3 613.0,229.6 644.2,232.0 675.3,232.0 706.5,203.5 737.7,222.5 768.8,232.0 800.0,203.5"
            fill="none" stroke="#f28e2b"
            stroke-width="2" stroke-linejoin="round"
            stroke-dasharray="5,3"/>

  <!-- dots -->
  <circle cx="52.0" cy="232.0" r="3" fill="#4e79a7"/><circle cx="83.2" cy="232.0" r="3" fill="#4e79a7"/><circle cx="114.3" cy="232.0" r="3" fill="#4e79a7"/><circle cx="145.5" cy="232.0" r="3" fill="#4e79a7"/><circle cx="176.7" cy="232.0" r="3" fill="#4e79a7"/><circle cx="207.8" cy="232.0" r="3" fill="#4e79a7"/><circle cx="239.0" cy="232.0" r="3" fill="#4e79a7"/><circle cx="270.2" cy="232.0" r="3" fill="#4e79a7"/><circle cx="301.3" cy="232.0" r="3" fill="#4e79a7"/><circle cx="332.5" cy="232.0" r="3" fill="#4e79a7"/><circle cx="363.7" cy="232.0" r="3" fill="#4e79a7"/><circle cx="394.8" cy="232.0" r="3" fill="#4e79a7"/><circle cx="426.0" cy="229.6" r="3" fill="#4e79a7"/><circle cx="457.2" cy="28.0" r="3" fill="#4e79a7"/><circle cx="488.3" cy="210.7" r="3" fill="#4e79a7"/><circle cx="519.5" cy="139.5" r="3" fill="#4e79a7"/><circle cx="550.7" cy="153.7" r="3" fill="#4e79a7"/><circle cx="581.8" cy="227.3" r="3" fill="#4e79a7"/><circle cx="613.0" cy="203.5" r="3" fill="#4e79a7"/><circle cx="644.2" cy="232.0" r="3" fill="#4e79a7"/><circle cx="675.3" cy="232.0" r="3" fill="#4e79a7"/><circle cx="706.5" cy="191.7" r="3" fill="#4e79a7"/><circle cx="737.7" cy="222.5" r="3" fill="#4e79a7"/><circle cx="768.8" cy="232.0" r="3" fill="#4e79a7"/><circle cx="800.0" cy="177.4" r="3" fill="#4e79a7"/>
  <circle cx="52.0" cy="232.0" r="3" fill="#f28e2b"/><circle cx="83.2" cy="232.0" r="3" fill="#f28e2b"/><circle cx="114.3" cy="232.0" r="3" fill="#f28e2b"/><circle cx="145.5" cy="232.0" r="3" fill="#f28e2b"/><circle cx="176.7" cy="232.0" r="3" fill="#f28e2b"/><circle cx="207.8" cy="232.0" r="3" fill="#f28e2b"/><circle cx="239.0" cy="232.0" r="3" fill="#f28e2b"/><circle cx="270.2" cy="232.0" r="3" fill="#f28e2b"/><circle cx="301.3" cy="232.0" r="3" fill="#f28e2b"/><circle cx="332.5" cy="232.0" r="3" fill="#f28e2b"/><circle cx="363.7" cy="232.0" r="3" fill="#f28e2b"/><circle cx="394.8" cy="232.0" r="3" fill="#f28e2b"/><circle cx="426.0" cy="229.6" r="3" fill="#f28e2b"/><circle cx="457.2" cy="151.3" r="3" fill="#f28e2b"/><circle cx="488.3" cy="210.7" r="3" fill="#f28e2b"/><circle cx="519.5" cy="179.8" r="3" fill="#f28e2b"/><circle cx="550.7" cy="186.9" r="3" fill="#f28e2b"/><circle cx="581.8" cy="227.3" r="3" fill="#f28e2b"/><circle cx="613.0" cy="229.6" r="3" fill="#f28e2b"/><circle cx="644.2" cy="232.0" r="3" fill="#f28e2b"/><circle cx="675.3" cy="232.0" r="3" fill="#f28e2b"/><circle cx="706.5" cy="203.5" r="3" fill="#f28e2b"/><circle cx="737.7" cy="222.5" r="3" fill="#f28e2b"/><circle cx="768.8" cy="232.0" r="3" fill="#f28e2b"/><circle cx="800.0" cy="203.5" r="3" fill="#f28e2b"/>

  <!-- axes -->
  <line x1="52" y1="28" x2="52" y2="232"
        stroke="#cccccc" stroke-width="1"/>
  <line x1="52" y1="232" x2="800" y2="232"
        stroke="#cccccc" stroke-width="1"/>

  <!-- y-axis labels -->
  <text x="47" y="236.0" text-anchor="end" font-size="10" fill="#57606a" font-family="ui-monospace, SFMono-Regular, 'SF Mono', Menlo, monospace">0</text><text x="47" y="188.6" text-anchor="end" font-size="10" fill="#57606a" font-family="ui-monospace, SFMono-Regular, 'SF Mono', Menlo, monospace">20</text><text x="47" y="141.1" text-anchor="end" font-size="10" fill="#57606a" font-family="ui-monospace, SFMono-Regular, 'SF Mono', Menlo, monospace">40</text><text x="47" y="93.7" text-anchor="end" font-size="10" fill="#57606a" font-family="ui-monospace, SFMono-Regular, 'SF Mono', Menlo, monospace">60</text><text x="47" y="46.2" text-anchor="end" font-size="10" fill="#57606a" font-family="ui-monospace, SFMono-Regular, 'SF Mono', Menlo, monospace">80</text><text x="47" y="-1.2" text-anchor="end" font-size="10" fill="#57606a" font-family="ui-monospace, SFMono-Regular, 'SF Mono', Menlo, monospace">100</text>

  <!-- x-axis labels -->
  <text x="52.0" y="248" text-anchor="middle" font-size="10" fill="#8c959f" font-family="ui-monospace, SFMono-Regular, 'SF Mono', Menlo, monospace">05-28</text><text x="145.5" y="248" text-anchor="middle" font-size="10" fill="#8c959f" font-family="ui-monospace, SFMono-Regular, 'SF Mono', Menlo, monospace">05-31</text><text x="239.0" y="248" text-anchor="middle" font-size="10" fill="#8c959f" font-family="ui-monospace, SFMono-Regular, 'SF Mono', Menlo, monospace">06-03</text><text x="332.5" y="248" text-anchor="middle" font-size="10" fill="#8c959f" font-family="ui-monospace, SFMono-Regular, 'SF Mono', Menlo, monospace">06-06</text><text x="426.0" y="248" text-anchor="middle" font-size="10" fill="#8c959f" font-family="ui-monospace, SFMono-Regular, 'SF Mono', Menlo, monospace">06-09</text><text x="519.5" y="248" text-anchor="middle" font-size="10" fill="#8c959f" font-family="ui-monospace, SFMono-Regular, 'SF Mono', Menlo, monospace">06-12</text><text x="613.0" y="248" text-anchor="middle" font-size="10" fill="#8c959f" font-family="ui-monospace, SFMono-Regular, 'SF Mono', Menlo, monospace">06-15</text><text x="706.5" y="248" text-anchor="middle" font-size="10" fill="#8c959f" font-family="ui-monospace, SFMono-Regular, 'SF Mono', Menlo, monospace">06-18</text><text x="800.0" y="248" text-anchor="middle" font-size="10" fill="#8c959f" font-family="ui-monospace, SFMono-Regular, 'SF Mono', Menlo, monospace">06-21</text>

  <!-- legend -->
  <rect x="60" y="262" width="16" height="3" fill="#4e79a7" rx="1"/><text x="80" y="268" font-size="11" fill="#57606a" font-family="-apple-system, BlinkMacSystemFont, 'Segoe UI', sans-serif">Total clones (226)</text><line x1="230" y1="264" x2="246" y2="264" stroke="#f28e2b" stroke-width="2" stroke-dasharray="5,3"/><text x="250" y="268" font-size="11" fill="#57606a" font-family="-apple-system, BlinkMacSystemFont, 'Segoe UI', sans-serif">Unique cloners</text>

</svg>