<svg xmlns="http://www.w3.org/2000/svg" viewBox="0 0 820 280" width="820" height="280">

  <!-- title -->
  <text x="52" y="18" font-size="13" font-weight="600"
        fill="#24292f" font-family="-apple-system, BlinkMacSystemFont, 'Segoe UI', sans-serif"
        >Clone traffic — PravKal</text>
  <text x="800" y="18" font-size="10" fill="#8c959f"
        font-family="ui-monospace, SFMono-Regular, 'SF Mono', Menlo, monospace" text-anchor="end">2026-07-01</text>

  <!-- grid -->
  <line x1="52" y1="232.0" x2="800" y2="232.0" stroke="#e8e8e8" stroke-width="1"/><line x1="52" y1="189.2" x2="800" y2="189.2" stroke="#e8e8e8" stroke-width="1"/><line x1="52" y1="146.4" x2="800" y2="146.4" stroke="#e8e8e8" stroke-width="1"/><line x1="52" y1="103.6" x2="800" y2="103.6" stroke="#e8e8e8" stroke-width="1"/><line x1="52" y1="60.8" x2="800" y2="60.8" stroke="#e8e8e8" stroke-width="1"/><line x1="52" y1="18.0" x2="800" y2="18.0" stroke="#e8e8e8" stroke-width="1"/>

  <!-- area fill -->
  <path d="M52.0,232.0 L52.0,232.0 L75.4,232.0 L98.8,232.0 L122.1,232.0 L145.5,232.0 L168.9,232.0 L192.2,232.0 L215.6,232.0 L239.0,232.0 L262.4,232.0 L285.8,232.0 L309.1,232.0 L332.5,231.3 L355.9,170.7 L379.2,225.6 L402.6,204.2 L426.0,208.5 L449.4,230.6 L472.8,223.4 L496.1,232.0 L519.5,232.0 L542.9,219.9 L566.2,229.1 L589.6,232.0 L613.0,215.6 L636.4,28.0 L659.8,225.6 L683.1,230.6 L706.5,232.0 L729.9,229.9 L753.2,232.0 L776.6,230.6 L800.0,230.6 L800.0,232.0 L52.0,232.0Z" fill="#4e79a7" opacity="0.12"/>

  <!-- lines -->
  <polyline points="52.0,232.0 75.4,232.0 98.8,232.0 122.1,232.0 145.5,232.0 168.9,232.0 192.2,232.0 215.6,232.0 239.0,232.0 262.4,232.0 285.8,232.0 309.1,232.0 332.5,231.3 355.9,170.7 379.2,225.6 402.6,204.2 426.0,208.5 449.4,230.6 472.8,223.4 496.1,232.0 519.5,232.0 542.9,219.9 566.2,229.1 589.6,232.0 613.0,215.6 636.4,28.0 659.8,225.6 683.1,230.6 706.5,232.0 729.9,229.9 753.2,232.0 776.6,230.6 800.0,230.6"
            fill="none" stroke="#4e79a7"
            stroke-width="2" stroke-linejoin="round"/>
  <polyline points="52.0,232.0 75.4,232.0 98.8,232.0 122.1,232.0 145.5,232.0 168.9,232.0 192.2,232.0 215.6,232.0 239.0,232.0 262.4,232.0 285.8,232.0 309.1,232.0 332.5,231.3 355.9,207.7 379.2,225.6 402.6,216.3 426.0,218.4 449.4,230.6 472.8,231.3 496.1,232.0 519.5,232.0 542.9,223.4 566.2,229.1 589.6,232.0 613.0,223.4 636.4,148.5 659.8,225.6 683.1,230.6 706.5,232.0 729.9,229.9 753.2,232.0 776.6,230.6 800.0,230.6"
            fill="none" stroke="#f28e2b"
            stroke-width="2" stroke-linejoin="round"
            stroke-dasharray="5,3"/>

  <!-- dots -->
  <circle cx="52.0" cy="232.0" r="3" fill="#4e79a7"/><circle cx="75.4" cy="232.0" r="3" fill="#4e79a7"/><circle cx="98.8" cy="232.0" r="3" fill="#4e79a7"/><circle cx="122.1" cy="232.0" r="3" fill="#4e79a7"/><circle cx="145.5" cy="232.0" r="3" fill="#4e79a7"/><circle cx="168.9" cy="232.0" r="3" fill="#4e79a7"/><circle cx="192.2" cy="232.0" r="3" fill="#4e79a7"/><circle cx="215.6" cy="232.0" r="3" fill="#4e79a7"/><circle cx="239.0" cy="232.0" r="3" fill="#4e79a7"/><circle cx="262.4" cy="232.0" r="3" fill="#4e79a7"/><circle cx="285.8" cy="232.0" r="3" fill="#4e79a7"/><circle cx="309.1" cy="232.0" r="3" fill="#4e79a7"/><circle cx="332.5" cy="231.3" r="3" fill="#4e79a7"/><circle cx="355.9" cy="170.7" r="3" fill="#4e79a7"/><circle cx="379.2" cy="225.6" r="3" fill="#4e79a7"/><circle cx="402.6" cy="204.2" r="3" fill="#4e79a7"/><circle cx="426.0" cy="208.5" r="3" fill="#4e79a7"/><circle cx="449.4" cy="230.6" r="3" fill="#4e79a7"/><circle cx="472.8" cy="223.4" r="3" fill="#4e79a7"/><circle cx="496.1" cy="232.0" r="3" fill="#4e79a7"/><circle cx="519.5" cy="232.0" r="3" fill="#4e79a7"/><circle cx="542.9" cy="219.9" r="3" fill="#4e79a7"/><circle cx="566.2" cy="229.1" r="3" fill="#4e79a7"/><circle cx="589.6" cy="232.0" r="3" fill="#4e79a7"/><circle cx="613.0" cy="215.6" r="3" fill="#4e79a7"/><circle cx="636.4" cy="28.0" r="3" fill="#4e79a7"/><circle cx="659.8" cy="225.6" r="3" fill="#4e79a7"/><circle cx="683.1" cy="230.6" r="3" fill="#4e79a7"/><circle cx="706.5" cy="232.0" r="3" fill="#4e79a7"/><circle cx="729.9" cy="229.9" r="3" fill="#4e79a7"/><circle cx="753.2" cy="232.0" r="3" fill="#4e79a7"/><circle cx="776.6" cy="230.6" r="3" fill="#4e79a7"/><circle cx="800.0" cy="230.6" r="3" fill="#4e79a7"/>
  <circle cx="52.0" cy="232.0" r="3" fill="#f28e2b"/><circle cx="75.4" cy="232.0" r="3" fill="#f28e2b"/><circle cx="98.8" cy="232.0" r="3" fill="#f28e2b"/><circle cx="122.1" cy="232.0" r="3" fill="#f28e2b"/><circle cx="145.5" cy="232.0" r="3" fill="#f28e2b"/><circle cx="168.9" cy="232.0" r="3" fill="#f28e2b"/><circle cx="192.2" cy="232.0" r="3" fill="#f28e2b"/><circle cx="215.6" cy="232.0" r="3" fill="#f28e2b"/><circle cx="239.0" cy="232.0" r="3" fill="#f28e2b"/><circle cx="262.4" cy="232.0" r="3" fill="#f28e2b"/><circle cx="285.8" cy="232.0" r="3" fill="#f28e2b"/><circle cx="309.1" cy="232.0" r="3" fill="#f28e2b"/><circle cx="332.5" cy="231.3" r="3" fill="#f28e2b"/><circle cx="355.9" cy="207.7" r="3" fill="#f28e2b"/><circle cx="379.2" cy="225.6" r="3" fill="#f28e2b"/><circle cx="402.6" cy="216.3" r="3" fill="#f28e2b"/><circle cx="426.0" cy="218.4" r="3" fill="#f28e2b"/><circle cx="449.4" cy="230.6" r="3" fill="#f28e2b"/><circle cx="472.8" cy="231.3" r="3" fill="#f28e2b"/><circle cx="496.1" cy="232.0" r="3" fill="#f28e2b"/><circle cx="519.5" cy="232.0" r="3" fill="#f28e2b"/><circle cx="542.9" cy="223.4" r="3" fill="#f28e2b"/><circle cx="566.2" cy="229.1" r="3" fill="#f28e2b"/><circle cx="589.6" cy="232.0" r="3" fill="#f28e2b"/><circle cx="613.0" cy="223.4" r="3" fill="#f28e2b"/><circle cx="636.4" cy="148.5" r="3" fill="#f28e2b"/><circle cx="659.8" cy="225.6" r="3" fill="#f28e2b"/><circle cx="683.1" cy="230.6" r="3" fill="#f28e2b"/><circle cx="706.5" cy="232.0" r="3" fill="#f28e2b"/><circle cx="729.9" cy="229.9" r="3" fill="#f28e2b"/><circle cx="753.2" cy="232.0" r="3" fill="#f28e2b"/><circle cx="776.6" cy="230.6" r="3" fill="#f28e2b"/><circle cx="800.0" cy="230.6" r="3" fill="#f28e2b"/>

  <!-- axes -->
  <line x1="52" y1="28" x2="52" y2="232"
        stroke="#cccccc" stroke-width="1"/>
  <line x1="52" y1="232" x2="800" y2="232"
        stroke="#cccccc" stroke-width="1"/>

  <!-- y-axis labels -->
  <text x="47" y="236.0" text-anchor="end" font-size="10" fill="#57606a" font-family="ui-monospace, SFMono-Regular, 'SF Mono', Menlo, monospace">0</text><text x="47" y="193.2" text-anchor="end" font-size="10" fill="#57606a" font-family="ui-monospace, SFMono-Regular, 'SF Mono', Menlo, monospace">60</text><text x="47" y="150.4" text-anchor="end" font-size="10" fill="#57606a" font-family="ui-monospace, SFMono-Regular, 'SF Mono', Menlo, monospace">120</text><text x="47" y="107.6" text-anchor="end" font-size="10" fill="#57606a" font-family="ui-monospace, SFMono-Regular, 'SF Mono', Menlo, monospace">180</text><text x="47" y="64.8" text-anchor="end" font-size="10" fill="#57606a" font-family="ui-monospace, SFMono-Regular, 'SF Mono', Menlo, monospace">240</text><text x="47" y="22.0" text-anchor="end" font-size="10" fill="#57606a" font-family="ui-monospace, SFMono-Regular, 'SF Mono', Menlo, monospace">300</text>

  <!-- x-axis labels -->
  <text x="52.0" y="248" text-anchor="middle" font-size="10" fill="#8c959f" font-family="ui-monospace, SFMono-Regular, 'SF Mono', Menlo, monospace">05-28</text><text x="800.0" y="248" text-anchor="middle" font-size="10" fill="#8c959f" font-family="ui-monospace, SFMono-Regular, 'SF Mono', Menlo, monospace">06-29</text><text x="145.5" y="248" text-anchor="middle" font-size="10" fill="#8c959f" font-family="ui-monospace, SFMono-Regular, 'SF Mono', Menlo, monospace">06-01</text><text x="239.0" y="248" text-anchor="middle" font-size="10" fill="#8c959f" font-family="ui-monospace, SFMono-Regular, 'SF Mono', Menlo, monospace">06-05</text><text x="332.5" y="248" text-anchor="middle" font-size="10" fill="#8c959f" font-family="ui-monospace, SFMono-Regular, 'SF Mono', Menlo, monospace">06-09</text><text x="426.0" y="248" text-anchor="middle" font-size="10" fill="#8c959f" font-family="ui-monospace, SFMono-Regular, 'SF Mono', Menlo, monospace">06-13</text><text x="519.5" y="248" text-anchor="middle" font-size="10" fill="#8c959f" font-family="ui-monospace, SFMono-Regular, 'SF Mono', Menlo, monospace">06-17</text><text x="613.0" y="248" text-anchor="middle" font-size="10" fill="#8c959f" font-family="ui-monospace, SFMono-Regular, 'SF Mono', Menlo, monospace">06-21</text><text x="706.5" y="248" text-anchor="middle" font-size="10" fill="#8c959f" font-family="ui-monospace, SFMono-Regular, 'SF Mono', Menlo, monospace">06-25</text>

  <!-- legend -->
  <rect x="60" y="262" width="16" height="3" fill="#4e79a7" rx="1"/><text x="80" y="268" font-size="11" fill="#57606a" font-family="-apple-system, BlinkMacSystemFont, 'Segoe UI', sans-serif">Total clones (530)</text><line x1="230" y1="264" x2="246" y2="264" stroke="#f28e2b" stroke-width="2" stroke-dasharray="5,3"/><text x="250" y="268" font-size="11" fill="#57606a" font-family="-apple-system, BlinkMacSystemFont, 'Segoe UI', sans-serif">Unique cloners</text>

</svg>