<svg xmlns="http://www.w3.org/2000/svg" viewBox="0 0 820 280" width="820" height="280">

  <!-- title -->
  <text x="52" y="18" font-size="13" font-weight="600"
        fill="#24292f" font-family="-apple-system, BlinkMacSystemFont, 'Segoe UI', sans-serif"
        >Clone traffic — scancontext</text>
  <text x="800" y="18" font-size="10" fill="#8c959f"
        font-family="ui-monospace, SFMono-Regular, 'SF Mono', Menlo, monospace" text-anchor="end">2026-06-28</text>

  <!-- grid -->
  <line x1="52" y1="232.0" x2="800" y2="232.0" stroke="#e8e8e8" stroke-width="1"/><line x1="52" y1="197.7" x2="800" y2="197.7" stroke="#e8e8e8" stroke-width="1"/><line x1="52" y1="163.4" x2="800" y2="163.4" stroke="#e8e8e8" stroke-width="1"/><line x1="52" y1="129.1" x2="800" y2="129.1" stroke="#e8e8e8" stroke-width="1"/><line x1="52" y1="94.9" x2="800" y2="94.9" stroke="#e8e8e8" stroke-width="1"/><line x1="52" y1="60.6" x2="800" y2="60.6" stroke="#e8e8e8" stroke-width="1"/><line x1="52" y1="26.3" x2="800" y2="26.3" stroke="#e8e8e8" stroke-width="1"/>

  <!-- area fill -->
  <path d="M52.0,232.0 L52.0,232.0 L68.3,232.0 L84.5,232.0 L100.8,232.0 L117.0,232.0 L133.3,232.0 L149.6,172.0 L165.8,28.0 L182.1,202.9 L198.3,187.4 L214.6,230.3 L230.9,228.6 L247.1,228.6 L263.4,232.0 L279.7,225.1 L295.9,230.3 L312.2,232.0 L328.4,232.0 L344.7,221.7 L361.0,208.0 L377.2,220.0 L393.5,230.3 L409.7,232.0 L426.0,232.0 L442.3,230.3 L458.5,230.3 L474.8,230.3 L491.0,232.0 L507.3,228.6 L523.6,230.3 L539.8,230.3 L556.1,232.0 L572.3,232.0 L588.6,232.0 L604.9,232.0 L621.1,230.3 L637.4,232.0 L653.7,232.0 L669.9,187.4 L686.2,204.6 L702.4,216.6 L718.7,228.6 L735.0,232.0 L751.2,232.0 L767.5,228.6 L783.7,232.0 L800.0,228.6 L800.0,232.0 L52.0,232.0Z" fill="#4e79a7" opacity="0.12"/>

  <!-- lines -->
  <polyline points="52.0,232.0 68.3,232.0 84.5,232.0 100.8,232.0 117.0,232.0 133.3,232.0 149.6,172.0 165.8,28.0 182.1,202.9 198.3,187.4 214.6,230.3 230.9,228.6 247.1,228.6 263.4,232.0 279.7,225.1 295.9,230.3 312.2,232.0 328.4,232.0 344.7,221.7 361.0,208.0 377.2,220.0 393.5,230.3 409.7,232.0 426.0,232.0 442.3,230.3 458.5,230.3 474.8,230.3 491.0,232.0 507.3,228.6 523.6,230.3 539.8,230.3 556.1,232.0 572.3,232.0 588.6,232.0 604.9,232.0 621.1,230.3 637.4,232.0 653.7,232.0 669.9,187.4 686.2,204.6 702.4,216.6 718.7,228.6 735.0,232.0 751.2,232.0 767.5,228.6 783.7,232.0 800.0,228.6"
            fill="none" stroke="#4e79a7"
            stroke-width="2" stroke-linejoin="round"/>
  <polyline points="52.0,232.0 68.3,232.0 84.5,232.0 100.8,232.0 117.0,232.0 133.3,232.0 149.6,194.3 165.8,113.7 182.1,206.3 198.3,206.3 214.6,230.3 230.9,228.6 247.1,228.6 263.4,232.0 279.7,230.3 295.9,230.3 312.2,232.0 328.4,232.0 344.7,221.7 361.0,216.6 377.2,221.7 393.5,230.3 409.7,232.0 426.0,232.0 442.3,230.3 458.5,230.3 474.8,230.3 491.0,232.0 507.3,230.3 523.6,230.3 539.8,230.3 556.1,232.0 572.3,232.0 588.6,232.0 604.9,232.0 621.1,230.3 637.4,232.0 653.7,232.0 669.9,201.1 686.2,220.0 702.4,228.6 718.7,228.6 735.0,232.0 751.2,232.0 767.5,228.6 783.7,232.0 800.0,228.6"
            fill="none" stroke="#f28e2b"
            stroke-width="2" stroke-linejoin="round"
            stroke-dasharray="5,3"/>

  <!-- dots -->
  <circle cx="52.0" cy="232.0" r="3" fill="#4e79a7"/><circle cx="68.3" cy="232.0" r="3" fill="#4e79a7"/><circle cx="84.5" cy="232.0" r="3" fill="#4e79a7"/><circle cx="100.8" cy="232.0" r="3" fill="#4e79a7"/><circle cx="117.0" cy="232.0" r="3" fill="#4e79a7"/><circle cx="133.3" cy="232.0" r="3" fill="#4e79a7"/><circle cx="149.6" cy="172.0" r="3" fill="#4e79a7"/><circle cx="165.8" cy="28.0" r="3" fill="#4e79a7"/><circle cx="182.1" cy="202.9" r="3" fill="#4e79a7"/><circle cx="198.3" cy="187.4" r="3" fill="#4e79a7"/><circle cx="214.6" cy="230.3" r="3" fill="#4e79a7"/><circle cx="230.9" cy="228.6" r="3" fill="#4e79a7"/><circle cx="247.1" cy="228.6" r="3" fill="#4e79a7"/><circle cx="263.4" cy="232.0" r="3" fill="#4e79a7"/><circle cx="279.7" cy="225.1" r="3" fill="#4e79a7"/><circle cx="295.9" cy="230.3" r="3" fill="#4e79a7"/><circle cx="312.2" cy="232.0" r="3" fill="#4e79a7"/><circle cx="328.4" cy="232.0" r="3" fill="#4e79a7"/><circle cx="344.7" cy="221.7" r="3" fill="#4e79a7"/><circle cx="361.0" cy="208.0" r="3" fill="#4e79a7"/><circle cx="377.2" cy="220.0" r="3" fill="#4e79a7"/><circle cx="393.5" cy="230.3" r="3" fill="#4e79a7"/><circle cx="409.7" cy="232.0" r="3" fill="#4e79a7"/><circle cx="426.0" cy="232.0" r="3" fill="#4e79a7"/><circle cx="442.3" cy="230.3" r="3" fill="#4e79a7"/><circle cx="458.5" cy="230.3" r="3" fill="#4e79a7"/><circle cx="474.8" cy="230.3" r="3" fill="#4e79a7"/><circle cx="491.0" cy="232.0" r="3" fill="#4e79a7"/><circle cx="507.3" cy="228.6" r="3" fill="#4e79a7"/><circle cx="523.6" cy="230.3" r="3" fill="#4e79a7"/><circle cx="539.8" cy="230.3" r="3" fill="#4e79a7"/><circle cx="556.1" cy="232.0" r="3" fill="#4e79a7"/><circle cx="572.3" cy="232.0" r="3" fill="#4e79a7"/><circle cx="588.6" cy="232.0" r="3" fill="#4e79a7"/><circle cx="604.9" cy="232.0" r="3" fill="#4e79a7"/><circle cx="621.1" cy="230.3" r="3" fill="#4e79a7"/><circle cx="637.4" cy="232.0" r="3" fill="#4e79a7"/><circle cx="653.7" cy="232.0" r="3" fill="#4e79a7"/><circle cx="669.9" cy="187.4" r="3" fill="#4e79a7"/><circle cx="686.2" cy="204.6" r="3" fill="#4e79a7"/><circle cx="702.4" cy="216.6" r="3" fill="#4e79a7"/><circle cx="718.7" cy="228.6" r="3" fill="#4e79a7"/><circle cx="735.0" cy="232.0" r="3" fill="#4e79a7"/><circle cx="751.2" cy="232.0" r="3" fill="#4e79a7"/><circle cx="767.5" cy="228.6" r="3" fill="#4e79a7"/><circle cx="783.7" cy="232.0" r="3" fill="#4e79a7"/><circle cx="800.0" cy="228.6" r="3" fill="#4e79a7"/>
  <circle cx="52.0" cy="232.0" r="3" fill="#f28e2b"/><circle cx="68.3" cy="232.0" r="3" fill="#f28e2b"/><circle cx="84.5" cy="232.0" r="3" fill="#f28e2b"/><circle cx="100.8" cy="232.0" r="3" fill="#f28e2b"/><circle cx="117.0" cy="232.0" r="3" fill="#f28e2b"/><circle cx="133.3" cy="232.0" r="3" fill="#f28e2b"/><circle cx="149.6" cy="194.3" r="3" fill="#f28e2b"/><circle cx="165.8" cy="113.7" r="3" fill="#f28e2b"/><circle cx="182.1" cy="206.3" r="3" fill="#f28e2b"/><circle cx="198.3" cy="206.3" r="3" fill="#f28e2b"/><circle cx="214.6" cy="230.3" r="3" fill="#f28e2b"/><circle cx="230.9" cy="228.6" r="3" fill="#f28e2b"/><circle cx="247.1" cy="228.6" r="3" fill="#f28e2b"/><circle cx="263.4" cy="232.0" r="3" fill="#f28e2b"/><circle cx="279.7" cy="230.3" r="3" fill="#f28e2b"/><circle cx="295.9" cy="230.3" r="3" fill="#f28e2b"/><circle cx="312.2" cy="232.0" r="3" fill="#f28e2b"/><circle cx="328.4" cy="232.0" r="3" fill="#f28e2b"/><circle cx="344.7" cy="221.7" r="3" fill="#f28e2b"/><circle cx="361.0" cy="216.6" r="3" fill="#f28e2b"/><circle cx="377.2" cy="221.7" r="3" fill="#f28e2b"/><circle cx="393.5" cy="230.3" r="3" fill="#f28e2b"/><circle cx="409.7" cy="232.0" r="3" fill="#f28e2b"/><circle cx="426.0" cy="232.0" r="3" fill="#f28e2b"/><circle cx="442.3" cy="230.3" r="3" fill="#f28e2b"/><circle cx="458.5" cy="230.3" r="3" fill="#f28e2b"/><circle cx="474.8" cy="230.3" r="3" fill="#f28e2b"/><circle cx="491.0" cy="232.0" r="3" fill="#f28e2b"/><circle cx="507.3" cy="230.3" r="3" fill="#f28e2b"/><circle cx="523.6" cy="230.3" r="3" fill="#f28e2b"/><circle cx="539.8" cy="230.3" r="3" fill="#f28e2b"/><circle cx="556.1" cy="232.0" r="3" fill="#f28e2b"/><circle cx="572.3" cy="232.0" r="3" fill="#f28e2b"/><circle cx="588.6" cy="232.0" r="3" fill="#f28e2b"/><circle cx="604.9" cy="232.0" r="3" fill="#f28e2b"/><circle cx="621.1" cy="230.3" r="3" fill="#f28e2b"/><circle cx="637.4" cy="232.0" r="3" fill="#f28e2b"/><circle cx="653.7" cy="232.0" r="3" fill="#f28e2b"/><circle cx="669.9" cy="201.1" r="3" fill="#f28e2b"/><circle cx="686.2" cy="220.0" r="3" fill="#f28e2b"/><circle cx="702.4" cy="228.6" r="3" fill="#f28e2b"/><circle cx="718.7" cy="228.6" r="3" fill="#f28e2b"/><circle cx="735.0" cy="232.0" r="3" fill="#f28e2b"/><circle cx="751.2" cy="232.0" r="3" fill="#f28e2b"/><circle cx="767.5" cy="228.6" r="3" fill="#f28e2b"/><circle cx="783.7" cy="232.0" r="3" fill="#f28e2b"/><circle cx="800.0" cy="228.6" r="3" fill="#f28e2b"/>

  <!-- axes -->
  <line x1="52" y1="28" x2="52" y2="232"
        stroke="#cccccc" stroke-width="1"/>
  <line x1="52" y1="232" x2="800" y2="232"
        stroke="#cccccc" stroke-width="1"/>

  <!-- y-axis labels -->
  <text x="47" y="236.0" text-anchor="end" font-size="10" fill="#57606a" font-family="ui-monospace, SFMono-Regular, 'SF Mono', Menlo, monospace">0</text><text x="47" y="201.7" text-anchor="end" font-size="10" fill="#57606a" font-family="ui-monospace, SFMono-Regular, 'SF Mono', Menlo, monospace">20</text><text x="47" y="167.4" text-anchor="end" font-size="10" fill="#57606a" font-family="ui-monospace, SFMono-Regular, 'SF Mono', Menlo, monospace">40</text><text x="47" y="133.1" text-anchor="end" font-size="10" fill="#57606a" font-family="ui-monospace, SFMono-Regular, 'SF Mono', Menlo, monospace">60</text><text x="47" y="98.9" text-anchor="end" font-size="10" fill="#57606a" font-family="ui-monospace, SFMono-Regular, 'SF Mono', Menlo, monospace">80</text><text x="47" y="64.6" text-anchor="end" font-size="10" fill="#57606a" font-family="ui-monospace, SFMono-Regular, 'SF Mono', Menlo, monospace">100</text><text x="47" y="30.3" text-anchor="end" font-size="10" fill="#57606a" font-family="ui-monospace, SFMono-Regular, 'SF Mono', Menlo, monospace">120</text>

  <!-- x-axis labels -->
  <text x="52.0" y="248" text-anchor="middle" font-size="10" fill="#8c959f" font-family="ui-monospace, SFMono-Regular, 'SF Mono', Menlo, monospace">05-11</text><text x="621.1" y="248" text-anchor="middle" font-size="10" fill="#8c959f" font-family="ui-monospace, SFMono-Regular, 'SF Mono', Menlo, monospace">06-15</text><text x="133.3" y="248" text-anchor="middle" font-size="10" fill="#8c959f" font-family="ui-monospace, SFMono-Regular, 'SF Mono', Menlo, monospace">05-16</text><text x="702.4" y="248" text-anchor="middle" font-size="10" fill="#8c959f" font-family="ui-monospace, SFMono-Regular, 'SF Mono', Menlo, monospace">06-20</text><text x="214.6" y="248" text-anchor="middle" font-size="10" fill="#8c959f" font-family="ui-monospace, SFMono-Regular, 'SF Mono', Menlo, monospace">05-21</text><text x="783.7" y="248" text-anchor="middle" font-size="10" fill="#8c959f" font-family="ui-monospace, SFMono-Regular, 'SF Mono', Menlo, monospace">06-25</text><text x="800.0" y="248" text-anchor="middle" font-size="10" fill="#8c959f" font-family="ui-monospace, SFMono-Regular, 'SF Mono', Menlo, monospace">06-26</text><text x="295.9" y="248" text-anchor="middle" font-size="10" fill="#8c959f" font-family="ui-monospace, SFMono-Regular, 'SF Mono', Menlo, monospace">05-26</text><text x="377.2" y="248" text-anchor="middle" font-size="10" fill="#8c959f" font-family="ui-monospace, SFMono-Regular, 'SF Mono', Menlo, monospace">05-31</text><text x="458.5" y="248" text-anchor="middle" font-size="10" fill="#8c959f" font-family="ui-monospace, SFMono-Regular, 'SF Mono', Menlo, monospace">06-05</text><text x="539.8" y="248" text-anchor="middle" font-size="10" fill="#8c959f" font-family="ui-monospace, SFMono-Regular, 'SF Mono', Menlo, monospace">06-10</text>

  <!-- legend -->
  <rect x="60" y="262" width="16" height="3" fill="#4e79a7" rx="1"/><text x="80" y="268" font-size="11" fill="#57606a" font-family="-apple-system, BlinkMacSystemFont, 'Segoe UI', sans-serif">Total clones (300)</text><line x1="230" y1="264" x2="246" y2="264" stroke="#f28e2b" stroke-width="2" stroke-dasharray="5,3"/><text x="250" y="268" font-size="11" fill="#57606a" font-family="-apple-system, BlinkMacSystemFont, 'Segoe UI', sans-serif">Unique cloners</text>

</svg>