<svg xmlns="http://www.w3.org/2000/svg" viewBox="0 0 820 280" width="820" height="280">

  <!-- title -->
  <text x="52" y="18" font-size="13" font-weight="600"
        fill="#24292f" font-family="-apple-system, BlinkMacSystemFont, 'Segoe UI', sans-serif"
        >Clone traffic — scancontext</text>
  <text x="800" y="18" font-size="10" fill="#8c959f"
        font-family="ui-monospace, SFMono-Regular, 'SF Mono', Menlo, monospace" text-anchor="end">2026-07-09</text>

  <!-- grid -->
  <line x1="52" y1="232.0" x2="800" y2="232.0" stroke="#e8e8e8" stroke-width="1"/><line x1="52" y1="197.7" x2="800" y2="197.7" stroke="#e8e8e8" stroke-width="1"/><line x1="52" y1="163.4" x2="800" y2="163.4" stroke="#e8e8e8" stroke-width="1"/><line x1="52" y1="129.1" x2="800" y2="129.1" stroke="#e8e8e8" stroke-width="1"/><line x1="52" y1="94.9" x2="800" y2="94.9" stroke="#e8e8e8" stroke-width="1"/><line x1="52" y1="60.6" x2="800" y2="60.6" stroke="#e8e8e8" stroke-width="1"/><line x1="52" y1="26.3" x2="800" y2="26.3" stroke="#e8e8e8" stroke-width="1"/>

  <!-- area fill -->
  <path d="M52.0,232.0 L52.0,232.0 L64.9,232.0 L77.8,232.0 L90.7,232.0 L103.6,232.0 L116.5,232.0 L129.4,172.0 L142.3,28.0 L155.2,202.9 L168.1,187.4 L181.0,230.3 L193.9,228.6 L206.8,228.6 L219.7,232.0 L232.6,225.1 L245.4,230.3 L258.3,232.0 L271.2,232.0 L284.1,221.7 L297.0,208.0 L309.9,220.0 L322.8,230.3 L335.7,232.0 L348.6,232.0 L361.5,230.3 L374.4,230.3 L387.3,230.3 L400.2,232.0 L413.1,228.6 L426.0,230.3 L438.9,230.3 L451.8,232.0 L464.7,232.0 L477.6,232.0 L490.5,232.0 L503.4,230.3 L516.3,232.0 L529.2,232.0 L542.1,187.4 L555.0,204.6 L567.9,216.6 L580.8,228.6 L593.7,232.0 L606.6,232.0 L619.4,228.6 L632.3,232.0 L645.2,228.6 L658.1,232.0 L671.0,230.3 L683.9,230.3 L696.8,230.3 L709.7,228.6 L722.6,228.6 L735.5,230.3 L748.4,232.0 L761.3,232.0 L774.2,232.0 L787.1,228.6 L800.0,209.7 L800.0,232.0 L52.0,232.0Z" fill="#4e79a7" opacity="0.12"/>

  <!-- lines -->
  <polyline points="52.0,232.0 64.9,232.0 77.8,232.0 90.7,232.0 103.6,232.0 116.5,232.0 129.4,172.0 142.3,28.0 155.2,202.9 168.1,187.4 181.0,230.3 193.9,228.6 206.8,228.6 219.7,232.0 232.6,225.1 245.4,230.3 258.3,232.0 271.2,232.0 284.1,221.7 297.0,208.0 309.9,220.0 322.8,230.3 335.7,232.0 348.6,232.0 361.5,230.3 374.4,230.3 387.3,230.3 400.2,232.0 413.1,228.6 426.0,230.3 438.9,230.3 451.8,232.0 464.7,232.0 477.6,232.0 490.5,232.0 503.4,230.3 516.3,232.0 529.2,232.0 542.1,187.4 555.0,204.6 567.9,216.6 580.8,228.6 593.7,232.0 606.6,232.0 619.4,228.6 632.3,232.0 645.2,228.6 658.1,232.0 671.0,230.3 683.9,230.3 696.8,230.3 709.7,228.6 722.6,228.6 735.5,230.3 748.4,232.0 761.3,232.0 774.2,232.0 787.1,228.6 800.0,209.7"
            fill="none" stroke="#4e79a7"
            stroke-width="2" stroke-linejoin="round"/>
  <polyline points="52.0,232.0 64.9,232.0 77.8,232.0 90.7,232.0 103.6,232.0 116.5,232.0 129.4,194.3 142.3,113.7 155.2,206.3 168.1,206.3 181.0,230.3 193.9,228.6 206.8,228.6 219.7,232.0 232.6,230.3 245.4,230.3 258.3,232.0 271.2,232.0 284.1,221.7 297.0,216.6 309.9,221.7 322.8,230.3 335.7,232.0 348.6,232.0 361.5,230.3 374.4,230.3 387.3,230.3 400.2,232.0 413.1,230.3 426.0,230.3 438.9,230.3 451.8,232.0 464.7,232.0 477.6,232.0 490.5,232.0 503.4,230.3 516.3,232.0 529.2,232.0 542.1,201.1 555.0,220.0 567.9,228.6 580.8,228.6 593.7,232.0 606.6,232.0 619.4,228.6 632.3,232.0 645.2,228.6 658.1,232.0 671.0,230.3 683.9,230.3 696.8,230.3 709.7,228.6 722.6,228.6 735.5,230.3 748.4,232.0 761.3,232.0 774.2,232.0 787.1,228.6 800.0,216.6"
            fill="none" stroke="#f28e2b"
            stroke-width="2" stroke-linejoin="round"
            stroke-dasharray="5,3"/>

  <!-- dots -->
  <circle cx="52.0" cy="232.0" r="3" fill="#4e79a7"/><circle cx="64.9" cy="232.0" r="3" fill="#4e79a7"/><circle cx="77.8" cy="232.0" r="3" fill="#4e79a7"/><circle cx="90.7" cy="232.0" r="3" fill="#4e79a7"/><circle cx="103.6" cy="232.0" r="3" fill="#4e79a7"/><circle cx="116.5" cy="232.0" r="3" fill="#4e79a7"/><circle cx="129.4" cy="172.0" r="3" fill="#4e79a7"/><circle cx="142.3" cy="28.0" r="3" fill="#4e79a7"/><circle cx="155.2" cy="202.9" r="3" fill="#4e79a7"/><circle cx="168.1" cy="187.4" r="3" fill="#4e79a7"/><circle cx="181.0" cy="230.3" r="3" fill="#4e79a7"/><circle cx="193.9" cy="228.6" r="3" fill="#4e79a7"/><circle cx="206.8" cy="228.6" r="3" fill="#4e79a7"/><circle cx="219.7" cy="232.0" r="3" fill="#4e79a7"/><circle cx="232.6" cy="225.1" r="3" fill="#4e79a7"/><circle cx="245.4" cy="230.3" r="3" fill="#4e79a7"/><circle cx="258.3" cy="232.0" r="3" fill="#4e79a7"/><circle cx="271.2" cy="232.0" r="3" fill="#4e79a7"/><circle cx="284.1" cy="221.7" r="3" fill="#4e79a7"/><circle cx="297.0" cy="208.0" r="3" fill="#4e79a7"/><circle cx="309.9" cy="220.0" r="3" fill="#4e79a7"/><circle cx="322.8" cy="230.3" r="3" fill="#4e79a7"/><circle cx="335.7" cy="232.0" r="3" fill="#4e79a7"/><circle cx="348.6" cy="232.0" r="3" fill="#4e79a7"/><circle cx="361.5" cy="230.3" r="3" fill="#4e79a7"/><circle cx="374.4" cy="230.3" r="3" fill="#4e79a7"/><circle cx="387.3" cy="230.3" r="3" fill="#4e79a7"/><circle cx="400.2" cy="232.0" r="3" fill="#4e79a7"/><circle cx="413.1" cy="228.6" r="3" fill="#4e79a7"/><circle cx="426.0" cy="230.3" r="3" fill="#4e79a7"/><circle cx="438.9" cy="230.3" r="3" fill="#4e79a7"/><circle cx="451.8" cy="232.0" r="3" fill="#4e79a7"/><circle cx="464.7" cy="232.0" r="3" fill="#4e79a7"/><circle cx="477.6" cy="232.0" r="3" fill="#4e79a7"/><circle cx="490.5" cy="232.0" r="3" fill="#4e79a7"/><circle cx="503.4" cy="230.3" r="3" fill="#4e79a7"/><circle cx="516.3" cy="232.0" r="3" fill="#4e79a7"/><circle cx="529.2" cy="232.0" r="3" fill="#4e79a7"/><circle cx="542.1" cy="187.4" r="3" fill="#4e79a7"/><circle cx="555.0" cy="204.6" r="3" fill="#4e79a7"/><circle cx="567.9" cy="216.6" r="3" fill="#4e79a7"/><circle cx="580.8" cy="228.6" r="3" fill="#4e79a7"/><circle cx="593.7" cy="232.0" r="3" fill="#4e79a7"/><circle cx="606.6" cy="232.0" r="3" fill="#4e79a7"/><circle cx="619.4" cy="228.6" r="3" fill="#4e79a7"/><circle cx="632.3" cy="232.0" r="3" fill="#4e79a7"/><circle cx="645.2" cy="228.6" r="3" fill="#4e79a7"/><circle cx="658.1" cy="232.0" r="3" fill="#4e79a7"/><circle cx="671.0" cy="230.3" r="3" fill="#4e79a7"/><circle cx="683.9" cy="230.3" r="3" fill="#4e79a7"/><circle cx="696.8" cy="230.3" r="3" fill="#4e79a7"/><circle cx="709.7" cy="228.6" r="3" fill="#4e79a7"/><circle cx="722.6" cy="228.6" r="3" fill="#4e79a7"/><circle cx="735.5" cy="230.3" r="3" fill="#4e79a7"/><circle cx="748.4" cy="232.0" r="3" fill="#4e79a7"/><circle cx="761.3" cy="232.0" r="3" fill="#4e79a7"/><circle cx="774.2" cy="232.0" r="3" fill="#4e79a7"/><circle cx="787.1" cy="228.6" r="3" fill="#4e79a7"/><circle cx="800.0" cy="209.7" r="3" fill="#4e79a7"/>
  <circle cx="52.0" cy="232.0" r="3" fill="#f28e2b"/><circle cx="64.9" cy="232.0" r="3" fill="#f28e2b"/><circle cx="77.8" cy="232.0" r="3" fill="#f28e2b"/><circle cx="90.7" cy="232.0" r="3" fill="#f28e2b"/><circle cx="103.6" cy="232.0" r="3" fill="#f28e2b"/><circle cx="116.5" cy="232.0" r="3" fill="#f28e2b"/><circle cx="129.4" cy="194.3" r="3" fill="#f28e2b"/><circle cx="142.3" cy="113.7" r="3" fill="#f28e2b"/><circle cx="155.2" cy="206.3" r="3" fill="#f28e2b"/><circle cx="168.1" cy="206.3" r="3" fill="#f28e2b"/><circle cx="181.0" cy="230.3" r="3" fill="#f28e2b"/><circle cx="193.9" cy="228.6" r="3" fill="#f28e2b"/><circle cx="206.8" cy="228.6" r="3" fill="#f28e2b"/><circle cx="219.7" cy="232.0" r="3" fill="#f28e2b"/><circle cx="232.6" cy="230.3" r="3" fill="#f28e2b"/><circle cx="245.4" cy="230.3" r="3" fill="#f28e2b"/><circle cx="258.3" cy="232.0" r="3" fill="#f28e2b"/><circle cx="271.2" cy="232.0" r="3" fill="#f28e2b"/><circle cx="284.1" cy="221.7" r="3" fill="#f28e2b"/><circle cx="297.0" cy="216.6" r="3" fill="#f28e2b"/><circle cx="309.9" cy="221.7" r="3" fill="#f28e2b"/><circle cx="322.8" cy="230.3" r="3" fill="#f28e2b"/><circle cx="335.7" cy="232.0" r="3" fill="#f28e2b"/><circle cx="348.6" cy="232.0" r="3" fill="#f28e2b"/><circle cx="361.5" cy="230.3" r="3" fill="#f28e2b"/><circle cx="374.4" cy="230.3" r="3" fill="#f28e2b"/><circle cx="387.3" cy="230.3" r="3" fill="#f28e2b"/><circle cx="400.2" cy="232.0" r="3" fill="#f28e2b"/><circle cx="413.1" cy="230.3" r="3" fill="#f28e2b"/><circle cx="426.0" cy="230.3" r="3" fill="#f28e2b"/><circle cx="438.9" cy="230.3" r="3" fill="#f28e2b"/><circle cx="451.8" cy="232.0" r="3" fill="#f28e2b"/><circle cx="464.7" cy="232.0" r="3" fill="#f28e2b"/><circle cx="477.6" cy="232.0" r="3" fill="#f28e2b"/><circle cx="490.5" cy="232.0" r="3" fill="#f28e2b"/><circle cx="503.4" cy="230.3" r="3" fill="#f28e2b"/><circle cx="516.3" cy="232.0" r="3" fill="#f28e2b"/><circle cx="529.2" cy="232.0" r="3" fill="#f28e2b"/><circle cx="542.1" cy="201.1" r="3" fill="#f28e2b"/><circle cx="555.0" cy="220.0" r="3" fill="#f28e2b"/><circle cx="567.9" cy="228.6" r="3" fill="#f28e2b"/><circle cx="580.8" cy="228.6" r="3" fill="#f28e2b"/><circle cx="593.7" cy="232.0" r="3" fill="#f28e2b"/><circle cx="606.6" cy="232.0" r="3" fill="#f28e2b"/><circle cx="619.4" cy="228.6" r="3" fill="#f28e2b"/><circle cx="632.3" cy="232.0" r="3" fill="#f28e2b"/><circle cx="645.2" cy="228.6" r="3" fill="#f28e2b"/><circle cx="658.1" cy="232.0" r="3" fill="#f28e2b"/><circle cx="671.0" cy="230.3" r="3" fill="#f28e2b"/><circle cx="683.9" cy="230.3" r="3" fill="#f28e2b"/><circle cx="696.8" cy="230.3" r="3" fill="#f28e2b"/><circle cx="709.7" cy="228.6" r="3" fill="#f28e2b"/><circle cx="722.6" cy="228.6" r="3" fill="#f28e2b"/><circle cx="735.5" cy="230.3" r="3" fill="#f28e2b"/><circle cx="748.4" cy="232.0" r="3" fill="#f28e2b"/><circle cx="761.3" cy="232.0" r="3" fill="#f28e2b"/><circle cx="774.2" cy="232.0" r="3" fill="#f28e2b"/><circle cx="787.1" cy="228.6" r="3" fill="#f28e2b"/><circle cx="800.0" cy="216.6" r="3" fill="#f28e2b"/>

  <!-- axes -->
  <line x1="52" y1="28" x2="52" y2="232"
        stroke="#cccccc" stroke-width="1"/>
  <line x1="52" y1="232" x2="800" y2="232"
        stroke="#cccccc" stroke-width="1"/>

  <!-- y-axis labels -->
  <text x="47" y="236.0" text-anchor="end" font-size="10" fill="#57606a" font-family="ui-monospace, SFMono-Regular, 'SF Mono', Menlo, monospace">0</text><text x="47" y="201.7" text-anchor="end" font-size="10" fill="#57606a" font-family="ui-monospace, SFMono-Regular, 'SF Mono', Menlo, monospace">20</text><text x="47" y="167.4" text-anchor="end" font-size="10" fill="#57606a" font-family="ui-monospace, SFMono-Regular, 'SF Mono', Menlo, monospace">40</text><text x="47" y="133.1" text-anchor="end" font-size="10" fill="#57606a" font-family="ui-monospace, SFMono-Regular, 'SF Mono', Menlo, monospace">60</text><text x="47" y="98.9" text-anchor="end" font-size="10" fill="#57606a" font-family="ui-monospace, SFMono-Regular, 'SF Mono', Menlo, monospace">80</text><text x="47" y="64.6" text-anchor="end" font-size="10" fill="#57606a" font-family="ui-monospace, SFMono-Regular, 'SF Mono', Menlo, monospace">100</text><text x="47" y="30.3" text-anchor="end" font-size="10" fill="#57606a" font-family="ui-monospace, SFMono-Regular, 'SF Mono', Menlo, monospace">120</text>

  <!-- x-axis labels -->
  <text x="52.0" y="248" text-anchor="middle" font-size="10" fill="#8c959f" font-family="ui-monospace, SFMono-Regular, 'SF Mono', Menlo, monospace">05-11</text><text x="503.4" y="248" text-anchor="middle" font-size="10" fill="#8c959f" font-family="ui-monospace, SFMono-Regular, 'SF Mono', Menlo, monospace">06-15</text><text x="142.3" y="248" text-anchor="middle" font-size="10" fill="#8c959f" font-family="ui-monospace, SFMono-Regular, 'SF Mono', Menlo, monospace">05-18</text><text x="593.7" y="248" text-anchor="middle" font-size="10" fill="#8c959f" font-family="ui-monospace, SFMono-Regular, 'SF Mono', Menlo, monospace">06-22</text><text x="232.6" y="248" text-anchor="middle" font-size="10" fill="#8c959f" font-family="ui-monospace, SFMono-Regular, 'SF Mono', Menlo, monospace">05-25</text><text x="683.9" y="248" text-anchor="middle" font-size="10" fill="#8c959f" font-family="ui-monospace, SFMono-Regular, 'SF Mono', Menlo, monospace">06-29</text><text x="322.8" y="248" text-anchor="middle" font-size="10" fill="#8c959f" font-family="ui-monospace, SFMono-Regular, 'SF Mono', Menlo, monospace">06-01</text><text x="774.2" y="248" text-anchor="middle" font-size="10" fill="#8c959f" font-family="ui-monospace, SFMono-Regular, 'SF Mono', Menlo, monospace">07-06</text><text x="800.0" y="248" text-anchor="middle" font-size="10" fill="#8c959f" font-family="ui-monospace, SFMono-Regular, 'SF Mono', Menlo, monospace">07-08</text><text x="413.1" y="248" text-anchor="middle" font-size="10" fill="#8c959f" font-family="ui-monospace, SFMono-Regular, 'SF Mono', Menlo, monospace">06-08</text>

  <!-- legend -->
  <rect x="60" y="262" width="16" height="3" fill="#4e79a7" rx="1"/><text x="80" y="268" font-size="11" fill="#57606a" font-family="-apple-system, BlinkMacSystemFont, 'Segoe UI', sans-serif">Total clones (323)</text><line x1="230" y1="264" x2="246" y2="264" stroke="#f28e2b" stroke-width="2" stroke-dasharray="5,3"/><text x="250" y="268" font-size="11" fill="#57606a" font-family="-apple-system, BlinkMacSystemFont, 'Segoe UI', sans-serif">Unique cloners</text>

</svg>