<svg xmlns="http://www.w3.org/2000/svg" viewBox="0 0 820 280" width="820" height="280">

  <!-- title -->
  <text x="52" y="18" font-size="13" font-weight="600"
        fill="#24292f" font-family="-apple-system, BlinkMacSystemFont, 'Segoe UI', sans-serif"
        >Clone traffic — scancontext</text>
  <text x="800" y="18" font-size="10" fill="#8c959f"
        font-family="ui-monospace, SFMono-Regular, 'SF Mono', Menlo, monospace" text-anchor="end">2026-06-11</text>

  <!-- grid -->
  <line x1="52" y1="232.0" x2="800" y2="232.0" stroke="#e8e8e8" stroke-width="1"/><line x1="52" y1="197.7" x2="800" y2="197.7" stroke="#e8e8e8" stroke-width="1"/><line x1="52" y1="163.4" x2="800" y2="163.4" stroke="#e8e8e8" stroke-width="1"/><line x1="52" y1="129.1" x2="800" y2="129.1" stroke="#e8e8e8" stroke-width="1"/><line x1="52" y1="94.9" x2="800" y2="94.9" stroke="#e8e8e8" stroke-width="1"/><line x1="52" y1="60.6" x2="800" y2="60.6" stroke="#e8e8e8" stroke-width="1"/><line x1="52" y1="26.3" x2="800" y2="26.3" stroke="#e8e8e8" stroke-width="1"/>

  <!-- area fill -->
  <path d="M52.0,232.0 L52.0,232.0 L78.7,232.0 L105.4,232.0 L132.1,232.0 L158.9,232.0 L185.6,232.0 L212.3,172.0 L239.0,28.0 L265.7,202.9 L292.4,187.4 L319.1,230.3 L345.9,228.6 L372.6,228.6 L399.3,232.0 L426.0,225.1 L452.7,230.3 L479.4,232.0 L506.1,232.0 L532.9,221.7 L559.6,208.0 L586.3,220.0 L613.0,230.3 L639.7,232.0 L666.4,232.0 L693.1,230.3 L719.9,230.3 L746.6,230.3 L773.3,232.0 L800.0,228.6 L800.0,232.0 L52.0,232.0Z" fill="#4e79a7" opacity="0.12"/>

  <!-- lines -->
  <polyline points="52.0,232.0 78.7,232.0 105.4,232.0 132.1,232.0 158.9,232.0 185.6,232.0 212.3,172.0 239.0,28.0 265.7,202.9 292.4,187.4 319.1,230.3 345.9,228.6 372.6,228.6 399.3,232.0 426.0,225.1 452.7,230.3 479.4,232.0 506.1,232.0 532.9,221.7 559.6,208.0 586.3,220.0 613.0,230.3 639.7,232.0 666.4,232.0 693.1,230.3 719.9,230.3 746.6,230.3 773.3,232.0 800.0,228.6"
            fill="none" stroke="#4e79a7"
            stroke-width="2" stroke-linejoin="round"/>
  <polyline points="52.0,232.0 78.7,232.0 105.4,232.0 132.1,232.0 158.9,232.0 185.6,232.0 212.3,194.3 239.0,113.7 265.7,206.3 292.4,206.3 319.1,230.3 345.9,228.6 372.6,228.6 399.3,232.0 426.0,230.3 452.7,230.3 479.4,232.0 506.1,232.0 532.9,221.7 559.6,216.6 586.3,221.7 613.0,230.3 639.7,232.0 666.4,232.0 693.1,230.3 719.9,230.3 746.6,230.3 773.3,232.0 800.0,230.3"
            fill="none" stroke="#f28e2b"
            stroke-width="2" stroke-linejoin="round"
            stroke-dasharray="5,3"/>

  <!-- dots -->
  <circle cx="52.0" cy="232.0" r="3" fill="#4e79a7"/><circle cx="78.7" cy="232.0" r="3" fill="#4e79a7"/><circle cx="105.4" cy="232.0" r="3" fill="#4e79a7"/><circle cx="132.1" cy="232.0" r="3" fill="#4e79a7"/><circle cx="158.9" cy="232.0" r="3" fill="#4e79a7"/><circle cx="185.6" cy="232.0" r="3" fill="#4e79a7"/><circle cx="212.3" cy="172.0" r="3" fill="#4e79a7"/><circle cx="239.0" cy="28.0" r="3" fill="#4e79a7"/><circle cx="265.7" cy="202.9" r="3" fill="#4e79a7"/><circle cx="292.4" cy="187.4" r="3" fill="#4e79a7"/><circle cx="319.1" cy="230.3" r="3" fill="#4e79a7"/><circle cx="345.9" cy="228.6" r="3" fill="#4e79a7"/><circle cx="372.6" cy="228.6" r="3" fill="#4e79a7"/><circle cx="399.3" cy="232.0" r="3" fill="#4e79a7"/><circle cx="426.0" cy="225.1" r="3" fill="#4e79a7"/><circle cx="452.7" cy="230.3" r="3" fill="#4e79a7"/><circle cx="479.4" cy="232.0" r="3" fill="#4e79a7"/><circle cx="506.1" cy="232.0" r="3" fill="#4e79a7"/><circle cx="532.9" cy="221.7" r="3" fill="#4e79a7"/><circle cx="559.6" cy="208.0" r="3" fill="#4e79a7"/><circle cx="586.3" cy="220.0" r="3" fill="#4e79a7"/><circle cx="613.0" cy="230.3" r="3" fill="#4e79a7"/><circle cx="639.7" cy="232.0" r="3" fill="#4e79a7"/><circle cx="666.4" cy="232.0" r="3" fill="#4e79a7"/><circle cx="693.1" cy="230.3" r="3" fill="#4e79a7"/><circle cx="719.9" cy="230.3" r="3" fill="#4e79a7"/><circle cx="746.6" cy="230.3" r="3" fill="#4e79a7"/><circle cx="773.3" cy="232.0" r="3" fill="#4e79a7"/><circle cx="800.0" cy="228.6" r="3" fill="#4e79a7"/>
  <circle cx="52.0" cy="232.0" r="3" fill="#f28e2b"/><circle cx="78.7" cy="232.0" r="3" fill="#f28e2b"/><circle cx="105.4" cy="232.0" r="3" fill="#f28e2b"/><circle cx="132.1" cy="232.0" r="3" fill="#f28e2b"/><circle cx="158.9" cy="232.0" r="3" fill="#f28e2b"/><circle cx="185.6" cy="232.0" r="3" fill="#f28e2b"/><circle cx="212.3" cy="194.3" r="3" fill="#f28e2b"/><circle cx="239.0" cy="113.7" r="3" fill="#f28e2b"/><circle cx="265.7" cy="206.3" r="3" fill="#f28e2b"/><circle cx="292.4" cy="206.3" r="3" fill="#f28e2b"/><circle cx="319.1" cy="230.3" r="3" fill="#f28e2b"/><circle cx="345.9" cy="228.6" r="3" fill="#f28e2b"/><circle cx="372.6" cy="228.6" r="3" fill="#f28e2b"/><circle cx="399.3" cy="232.0" r="3" fill="#f28e2b"/><circle cx="426.0" cy="230.3" r="3" fill="#f28e2b"/><circle cx="452.7" cy="230.3" r="3" fill="#f28e2b"/><circle cx="479.4" cy="232.0" r="3" fill="#f28e2b"/><circle cx="506.1" cy="232.0" r="3" fill="#f28e2b"/><circle cx="532.9" cy="221.7" r="3" fill="#f28e2b"/><circle cx="559.6" cy="216.6" r="3" fill="#f28e2b"/><circle cx="586.3" cy="221.7" r="3" fill="#f28e2b"/><circle cx="613.0" cy="230.3" r="3" fill="#f28e2b"/><circle cx="639.7" cy="232.0" r="3" fill="#f28e2b"/><circle cx="666.4" cy="232.0" r="3" fill="#f28e2b"/><circle cx="693.1" cy="230.3" r="3" fill="#f28e2b"/><circle cx="719.9" cy="230.3" r="3" fill="#f28e2b"/><circle cx="746.6" cy="230.3" r="3" fill="#f28e2b"/><circle cx="773.3" cy="232.0" r="3" fill="#f28e2b"/><circle cx="800.0" cy="230.3" r="3" fill="#f28e2b"/>

  <!-- axes -->
  <line x1="52" y1="28" x2="52" y2="232"
        stroke="#cccccc" stroke-width="1"/>
  <line x1="52" y1="232" x2="800" y2="232"
        stroke="#cccccc" stroke-width="1"/>

  <!-- y-axis labels -->
  <text x="47" y="236.0" text-anchor="end" font-size="10" fill="#57606a" font-family="ui-monospace, SFMono-Regular, 'SF Mono', Menlo, monospace">0</text><text x="47" y="201.7" text-anchor="end" font-size="10" fill="#57606a" font-family="ui-monospace, SFMono-Regular, 'SF Mono', Menlo, monospace">20</text><text x="47" y="167.4" text-anchor="end" font-size="10" fill="#57606a" font-family="ui-monospace, SFMono-Regular, 'SF Mono', Menlo, monospace">40</text><text x="47" y="133.1" text-anchor="end" font-size="10" fill="#57606a" font-family="ui-monospace, SFMono-Regular, 'SF Mono', Menlo, monospace">60</text><text x="47" y="98.9" text-anchor="end" font-size="10" fill="#57606a" font-family="ui-monospace, SFMono-Regular, 'SF Mono', Menlo, monospace">80</text><text x="47" y="64.6" text-anchor="end" font-size="10" fill="#57606a" font-family="ui-monospace, SFMono-Regular, 'SF Mono', Menlo, monospace">100</text><text x="47" y="30.3" text-anchor="end" font-size="10" fill="#57606a" font-family="ui-monospace, SFMono-Regular, 'SF Mono', Menlo, monospace">120</text>

  <!-- x-axis labels -->
  <text x="52.0" y="248" text-anchor="middle" font-size="10" fill="#8c959f" font-family="ui-monospace, SFMono-Regular, 'SF Mono', Menlo, monospace">05-11</text><text x="132.1" y="248" text-anchor="middle" font-size="10" fill="#8c959f" font-family="ui-monospace, SFMono-Regular, 'SF Mono', Menlo, monospace">05-14</text><text x="212.3" y="248" text-anchor="middle" font-size="10" fill="#8c959f" font-family="ui-monospace, SFMono-Regular, 'SF Mono', Menlo, monospace">05-17</text><text x="292.4" y="248" text-anchor="middle" font-size="10" fill="#8c959f" font-family="ui-monospace, SFMono-Regular, 'SF Mono', Menlo, monospace">05-20</text><text x="372.6" y="248" text-anchor="middle" font-size="10" fill="#8c959f" font-family="ui-monospace, SFMono-Regular, 'SF Mono', Menlo, monospace">05-23</text><text x="452.7" y="248" text-anchor="middle" font-size="10" fill="#8c959f" font-family="ui-monospace, SFMono-Regular, 'SF Mono', Menlo, monospace">05-26</text><text x="532.9" y="248" text-anchor="middle" font-size="10" fill="#8c959f" font-family="ui-monospace, SFMono-Regular, 'SF Mono', Menlo, monospace">05-29</text><text x="613.0" y="248" text-anchor="middle" font-size="10" fill="#8c959f" font-family="ui-monospace, SFMono-Regular, 'SF Mono', Menlo, monospace">06-01</text><text x="693.1" y="248" text-anchor="middle" font-size="10" fill="#8c959f" font-family="ui-monospace, SFMono-Regular, 'SF Mono', Menlo, monospace">06-04</text><text x="773.3" y="248" text-anchor="middle" font-size="10" fill="#8c959f" font-family="ui-monospace, SFMono-Regular, 'SF Mono', Menlo, monospace">06-07</text><text x="800.0" y="248" text-anchor="middle" font-size="10" fill="#8c959f" font-family="ui-monospace, SFMono-Regular, 'SF Mono', Menlo, monospace">06-08</text>

  <!-- legend -->
  <rect x="60" y="262" width="16" height="3" fill="#4e79a7" rx="1"/><text x="80" y="268" font-size="11" fill="#57606a" font-family="-apple-system, BlinkMacSystemFont, 'Segoe UI', sans-serif">Total clones (240)</text><line x1="230" y1="264" x2="246" y2="264" stroke="#f28e2b" stroke-width="2" stroke-dasharray="5,3"/><text x="250" y="268" font-size="11" fill="#57606a" font-family="-apple-system, BlinkMacSystemFont, 'Segoe UI', sans-serif">Unique cloners</text>

</svg>