<svg xmlns="http://www.w3.org/2000/svg" viewBox="0 0 820 280" width="820" height="280">

  <!-- title -->
  <text x="52" y="18" font-size="13" font-weight="600"
        fill="#24292f" font-family="-apple-system, BlinkMacSystemFont, 'Segoe UI', sans-serif"
        >Clone traffic — scancontext</text>
  <text x="800" y="18" font-size="10" fill="#8c959f"
        font-family="ui-monospace, SFMono-Regular, 'SF Mono', Menlo, monospace" text-anchor="end">2026-06-17</text>

  <!-- grid -->
  <line x1="52" y1="232.0" x2="800" y2="232.0" stroke="#e8e8e8" stroke-width="1"/><line x1="52" y1="197.7" x2="800" y2="197.7" stroke="#e8e8e8" stroke-width="1"/><line x1="52" y1="163.4" x2="800" y2="163.4" stroke="#e8e8e8" stroke-width="1"/><line x1="52" y1="129.1" x2="800" y2="129.1" stroke="#e8e8e8" stroke-width="1"/><line x1="52" y1="94.9" x2="800" y2="94.9" stroke="#e8e8e8" stroke-width="1"/><line x1="52" y1="60.6" x2="800" y2="60.6" stroke="#e8e8e8" stroke-width="1"/><line x1="52" y1="26.3" x2="800" y2="26.3" stroke="#e8e8e8" stroke-width="1"/>

  <!-- area fill -->
  <path d="M52.0,232.0 L52.0,232.0 L73.4,232.0 L94.7,232.0 L116.1,232.0 L137.5,232.0 L158.9,232.0 L180.2,172.0 L201.6,28.0 L223.0,202.9 L244.3,187.4 L265.7,230.3 L287.1,228.6 L308.5,228.6 L329.8,232.0 L351.2,225.1 L372.6,230.3 L393.9,232.0 L415.3,232.0 L436.7,221.7 L458.1,208.0 L479.4,220.0 L500.8,230.3 L522.2,232.0 L543.5,232.0 L564.9,230.3 L586.3,230.3 L607.7,230.3 L629.0,232.0 L650.4,228.6 L671.8,230.3 L693.1,230.3 L714.5,232.0 L735.9,232.0 L757.3,232.0 L778.6,232.0 L800.0,230.3 L800.0,232.0 L52.0,232.0Z" fill="#4e79a7" opacity="0.12"/>

  <!-- lines -->
  <polyline points="52.0,232.0 73.4,232.0 94.7,232.0 116.1,232.0 137.5,232.0 158.9,232.0 180.2,172.0 201.6,28.0 223.0,202.9 244.3,187.4 265.7,230.3 287.1,228.6 308.5,228.6 329.8,232.0 351.2,225.1 372.6,230.3 393.9,232.0 415.3,232.0 436.7,221.7 458.1,208.0 479.4,220.0 500.8,230.3 522.2,232.0 543.5,232.0 564.9,230.3 586.3,230.3 607.7,230.3 629.0,232.0 650.4,228.6 671.8,230.3 693.1,230.3 714.5,232.0 735.9,232.0 757.3,232.0 778.6,232.0 800.0,230.3"
            fill="none" stroke="#4e79a7"
            stroke-width="2" stroke-linejoin="round"/>
  <polyline points="52.0,232.0 73.4,232.0 94.7,232.0 116.1,232.0 137.5,232.0 158.9,232.0 180.2,194.3 201.6,113.7 223.0,206.3 244.3,206.3 265.7,230.3 287.1,228.6 308.5,228.6 329.8,232.0 351.2,230.3 372.6,230.3 393.9,232.0 415.3,232.0 436.7,221.7 458.1,216.6 479.4,221.7 500.8,230.3 522.2,232.0 543.5,232.0 564.9,230.3 586.3,230.3 607.7,230.3 629.0,232.0 650.4,230.3 671.8,230.3 693.1,230.3 714.5,232.0 735.9,232.0 757.3,232.0 778.6,232.0 800.0,230.3"
            fill="none" stroke="#f28e2b"
            stroke-width="2" stroke-linejoin="round"
            stroke-dasharray="5,3"/>

  <!-- dots -->
  <circle cx="52.0" cy="232.0" r="3" fill="#4e79a7"/><circle cx="73.4" cy="232.0" r="3" fill="#4e79a7"/><circle cx="94.7" cy="232.0" r="3" fill="#4e79a7"/><circle cx="116.1" cy="232.0" r="3" fill="#4e79a7"/><circle cx="137.5" cy="232.0" r="3" fill="#4e79a7"/><circle cx="158.9" cy="232.0" r="3" fill="#4e79a7"/><circle cx="180.2" cy="172.0" r="3" fill="#4e79a7"/><circle cx="201.6" cy="28.0" r="3" fill="#4e79a7"/><circle cx="223.0" cy="202.9" r="3" fill="#4e79a7"/><circle cx="244.3" cy="187.4" r="3" fill="#4e79a7"/><circle cx="265.7" cy="230.3" r="3" fill="#4e79a7"/><circle cx="287.1" cy="228.6" r="3" fill="#4e79a7"/><circle cx="308.5" cy="228.6" r="3" fill="#4e79a7"/><circle cx="329.8" cy="232.0" r="3" fill="#4e79a7"/><circle cx="351.2" cy="225.1" r="3" fill="#4e79a7"/><circle cx="372.6" cy="230.3" r="3" fill="#4e79a7"/><circle cx="393.9" cy="232.0" r="3" fill="#4e79a7"/><circle cx="415.3" cy="232.0" r="3" fill="#4e79a7"/><circle cx="436.7" cy="221.7" r="3" fill="#4e79a7"/><circle cx="458.1" cy="208.0" r="3" fill="#4e79a7"/><circle cx="479.4" cy="220.0" r="3" fill="#4e79a7"/><circle cx="500.8" cy="230.3" r="3" fill="#4e79a7"/><circle cx="522.2" cy="232.0" r="3" fill="#4e79a7"/><circle cx="543.5" cy="232.0" r="3" fill="#4e79a7"/><circle cx="564.9" cy="230.3" r="3" fill="#4e79a7"/><circle cx="586.3" cy="230.3" r="3" fill="#4e79a7"/><circle cx="607.7" cy="230.3" r="3" fill="#4e79a7"/><circle cx="629.0" cy="232.0" r="3" fill="#4e79a7"/><circle cx="650.4" cy="228.6" r="3" fill="#4e79a7"/><circle cx="671.8" cy="230.3" r="3" fill="#4e79a7"/><circle cx="693.1" cy="230.3" r="3" fill="#4e79a7"/><circle cx="714.5" cy="232.0" r="3" fill="#4e79a7"/><circle cx="735.9" cy="232.0" r="3" fill="#4e79a7"/><circle cx="757.3" cy="232.0" r="3" fill="#4e79a7"/><circle cx="778.6" cy="232.0" r="3" fill="#4e79a7"/><circle cx="800.0" cy="230.3" r="3" fill="#4e79a7"/>
  <circle cx="52.0" cy="232.0" r="3" fill="#f28e2b"/><circle cx="73.4" cy="232.0" r="3" fill="#f28e2b"/><circle cx="94.7" cy="232.0" r="3" fill="#f28e2b"/><circle cx="116.1" cy="232.0" r="3" fill="#f28e2b"/><circle cx="137.5" cy="232.0" r="3" fill="#f28e2b"/><circle cx="158.9" cy="232.0" r="3" fill="#f28e2b"/><circle cx="180.2" cy="194.3" r="3" fill="#f28e2b"/><circle cx="201.6" cy="113.7" r="3" fill="#f28e2b"/><circle cx="223.0" cy="206.3" r="3" fill="#f28e2b"/><circle cx="244.3" cy="206.3" r="3" fill="#f28e2b"/><circle cx="265.7" cy="230.3" r="3" fill="#f28e2b"/><circle cx="287.1" cy="228.6" r="3" fill="#f28e2b"/><circle cx="308.5" cy="228.6" r="3" fill="#f28e2b"/><circle cx="329.8" cy="232.0" r="3" fill="#f28e2b"/><circle cx="351.2" cy="230.3" r="3" fill="#f28e2b"/><circle cx="372.6" cy="230.3" r="3" fill="#f28e2b"/><circle cx="393.9" cy="232.0" r="3" fill="#f28e2b"/><circle cx="415.3" cy="232.0" r="3" fill="#f28e2b"/><circle cx="436.7" cy="221.7" r="3" fill="#f28e2b"/><circle cx="458.1" cy="216.6" r="3" fill="#f28e2b"/><circle cx="479.4" cy="221.7" r="3" fill="#f28e2b"/><circle cx="500.8" cy="230.3" r="3" fill="#f28e2b"/><circle cx="522.2" cy="232.0" r="3" fill="#f28e2b"/><circle cx="543.5" cy="232.0" r="3" fill="#f28e2b"/><circle cx="564.9" cy="230.3" r="3" fill="#f28e2b"/><circle cx="586.3" cy="230.3" r="3" fill="#f28e2b"/><circle cx="607.7" cy="230.3" r="3" fill="#f28e2b"/><circle cx="629.0" cy="232.0" r="3" fill="#f28e2b"/><circle cx="650.4" cy="230.3" r="3" fill="#f28e2b"/><circle cx="671.8" cy="230.3" r="3" fill="#f28e2b"/><circle cx="693.1" cy="230.3" r="3" fill="#f28e2b"/><circle cx="714.5" cy="232.0" r="3" fill="#f28e2b"/><circle cx="735.9" cy="232.0" r="3" fill="#f28e2b"/><circle cx="757.3" cy="232.0" r="3" fill="#f28e2b"/><circle cx="778.6" cy="232.0" r="3" fill="#f28e2b"/><circle cx="800.0" cy="230.3" r="3" fill="#f28e2b"/>

  <!-- axes -->
  <line x1="52" y1="28" x2="52" y2="232"
        stroke="#cccccc" stroke-width="1"/>
  <line x1="52" y1="232" x2="800" y2="232"
        stroke="#cccccc" stroke-width="1"/>

  <!-- y-axis labels -->
  <text x="47" y="236.0" text-anchor="end" font-size="10" fill="#57606a" font-family="ui-monospace, SFMono-Regular, 'SF Mono', Menlo, monospace">0</text><text x="47" y="201.7" text-anchor="end" font-size="10" fill="#57606a" font-family="ui-monospace, SFMono-Regular, 'SF Mono', Menlo, monospace">20</text><text x="47" y="167.4" text-anchor="end" font-size="10" fill="#57606a" font-family="ui-monospace, SFMono-Regular, 'SF Mono', Menlo, monospace">40</text><text x="47" y="133.1" text-anchor="end" font-size="10" fill="#57606a" font-family="ui-monospace, SFMono-Regular, 'SF Mono', Menlo, monospace">60</text><text x="47" y="98.9" text-anchor="end" font-size="10" fill="#57606a" font-family="ui-monospace, SFMono-Regular, 'SF Mono', Menlo, monospace">80</text><text x="47" y="64.6" text-anchor="end" font-size="10" fill="#57606a" font-family="ui-monospace, SFMono-Regular, 'SF Mono', Menlo, monospace">100</text><text x="47" y="30.3" text-anchor="end" font-size="10" fill="#57606a" font-family="ui-monospace, SFMono-Regular, 'SF Mono', Menlo, monospace">120</text>

  <!-- x-axis labels -->
  <text x="52.0" y="248" text-anchor="middle" font-size="10" fill="#8c959f" font-family="ui-monospace, SFMono-Regular, 'SF Mono', Menlo, monospace">05-11</text><text x="735.9" y="248" text-anchor="middle" font-size="10" fill="#8c959f" font-family="ui-monospace, SFMono-Regular, 'SF Mono', Menlo, monospace">06-12</text><text x="800.0" y="248" text-anchor="middle" font-size="10" fill="#8c959f" font-family="ui-monospace, SFMono-Regular, 'SF Mono', Menlo, monospace">06-15</text><text x="137.5" y="248" text-anchor="middle" font-size="10" fill="#8c959f" font-family="ui-monospace, SFMono-Regular, 'SF Mono', Menlo, monospace">05-15</text><text x="223.0" y="248" text-anchor="middle" font-size="10" fill="#8c959f" font-family="ui-monospace, SFMono-Regular, 'SF Mono', Menlo, monospace">05-19</text><text x="308.5" y="248" text-anchor="middle" font-size="10" fill="#8c959f" font-family="ui-monospace, SFMono-Regular, 'SF Mono', Menlo, monospace">05-23</text><text x="393.9" y="248" text-anchor="middle" font-size="10" fill="#8c959f" font-family="ui-monospace, SFMono-Regular, 'SF Mono', Menlo, monospace">05-27</text><text x="479.4" y="248" text-anchor="middle" font-size="10" fill="#8c959f" font-family="ui-monospace, SFMono-Regular, 'SF Mono', Menlo, monospace">05-31</text><text x="564.9" y="248" text-anchor="middle" font-size="10" fill="#8c959f" font-family="ui-monospace, SFMono-Regular, 'SF Mono', Menlo, monospace">06-04</text><text x="650.4" y="248" text-anchor="middle" font-size="10" fill="#8c959f" font-family="ui-monospace, SFMono-Regular, 'SF Mono', Menlo, monospace">06-08</text>

  <!-- legend -->
  <rect x="60" y="262" width="16" height="3" fill="#4e79a7" rx="1"/><text x="80" y="268" font-size="11" fill="#57606a" font-family="-apple-system, BlinkMacSystemFont, 'Segoe UI', sans-serif">Total clones (243)</text><line x1="230" y1="264" x2="246" y2="264" stroke="#f28e2b" stroke-width="2" stroke-dasharray="5,3"/><text x="250" y="268" font-size="11" fill="#57606a" font-family="-apple-system, BlinkMacSystemFont, 'Segoe UI', sans-serif">Unique cloners</text>

</svg>