<svg xmlns="http://www.w3.org/2000/svg" viewBox="0 0 820 280" width="820" height="280">

  <!-- title -->
  <text x="52" y="18" font-size="13" font-weight="600"
        fill="#24292f" font-family="-apple-system, BlinkMacSystemFont, 'Segoe UI', sans-serif"
        >Clone traffic — scancontext</text>
  <text x="800" y="18" font-size="10" fill="#8c959f"
        font-family="ui-monospace, SFMono-Regular, 'SF Mono', Menlo, monospace" text-anchor="end">2026-07-01</text>

  <!-- grid -->
  <line x1="52" y1="232.0" x2="800" y2="232.0" stroke="#e8e8e8" stroke-width="1"/><line x1="52" y1="197.7" x2="800" y2="197.7" stroke="#e8e8e8" stroke-width="1"/><line x1="52" y1="163.4" x2="800" y2="163.4" stroke="#e8e8e8" stroke-width="1"/><line x1="52" y1="129.1" x2="800" y2="129.1" stroke="#e8e8e8" stroke-width="1"/><line x1="52" y1="94.9" x2="800" y2="94.9" stroke="#e8e8e8" stroke-width="1"/><line x1="52" y1="60.6" x2="800" y2="60.6" stroke="#e8e8e8" stroke-width="1"/><line x1="52" y1="26.3" x2="800" y2="26.3" stroke="#e8e8e8" stroke-width="1"/>

  <!-- area fill -->
  <path d="M52.0,232.0 L52.0,232.0 L67.3,232.0 L82.5,232.0 L97.8,232.0 L113.1,232.0 L128.3,232.0 L143.6,172.0 L158.9,28.0 L174.1,202.9 L189.4,187.4 L204.7,230.3 L219.9,228.6 L235.2,228.6 L250.4,232.0 L265.7,225.1 L281.0,230.3 L296.2,232.0 L311.5,232.0 L326.8,221.7 L342.0,208.0 L357.3,220.0 L372.6,230.3 L387.8,232.0 L403.1,232.0 L418.4,230.3 L433.6,230.3 L448.9,230.3 L464.2,232.0 L479.4,228.6 L494.7,230.3 L510.0,230.3 L525.2,232.0 L540.5,232.0 L555.8,232.0 L571.0,232.0 L586.3,230.3 L601.6,232.0 L616.8,232.0 L632.1,187.4 L647.3,204.6 L662.6,216.6 L677.9,228.6 L693.1,232.0 L708.4,232.0 L723.7,228.6 L738.9,232.0 L754.2,228.6 L769.5,232.0 L784.7,230.3 L800.0,230.3 L800.0,232.0 L52.0,232.0Z" fill="#4e79a7" opacity="0.12"/>

  <!-- lines -->
  <polyline points="52.0,232.0 67.3,232.0 82.5,232.0 97.8,232.0 113.1,232.0 128.3,232.0 143.6,172.0 158.9,28.0 174.1,202.9 189.4,187.4 204.7,230.3 219.9,228.6 235.2,228.6 250.4,232.0 265.7,225.1 281.0,230.3 296.2,232.0 311.5,232.0 326.8,221.7 342.0,208.0 357.3,220.0 372.6,230.3 387.8,232.0 403.1,232.0 418.4,230.3 433.6,230.3 448.9,230.3 464.2,232.0 479.4,228.6 494.7,230.3 510.0,230.3 525.2,232.0 540.5,232.0 555.8,232.0 571.0,232.0 586.3,230.3 601.6,232.0 616.8,232.0 632.1,187.4 647.3,204.6 662.6,216.6 677.9,228.6 693.1,232.0 708.4,232.0 723.7,228.6 738.9,232.0 754.2,228.6 769.5,232.0 784.7,230.3 800.0,230.3"
            fill="none" stroke="#4e79a7"
            stroke-width="2" stroke-linejoin="round"/>
  <polyline points="52.0,232.0 67.3,232.0 82.5,232.0 97.8,232.0 113.1,232.0 128.3,232.0 143.6,194.3 158.9,113.7 174.1,206.3 189.4,206.3 204.7,230.3 219.9,228.6 235.2,228.6 250.4,232.0 265.7,230.3 281.0,230.3 296.2,232.0 311.5,232.0 326.8,221.7 342.0,216.6 357.3,221.7 372.6,230.3 387.8,232.0 403.1,232.0 418.4,230.3 433.6,230.3 448.9,230.3 464.2,232.0 479.4,230.3 494.7,230.3 510.0,230.3 525.2,232.0 540.5,232.0 555.8,232.0 571.0,232.0 586.3,230.3 601.6,232.0 616.8,232.0 632.1,201.1 647.3,220.0 662.6,228.6 677.9,228.6 693.1,232.0 708.4,232.0 723.7,228.6 738.9,232.0 754.2,228.6 769.5,232.0 784.7,230.3 800.0,230.3"
            fill="none" stroke="#f28e2b"
            stroke-width="2" stroke-linejoin="round"
            stroke-dasharray="5,3"/>

  <!-- dots -->
  <circle cx="52.0" cy="232.0" r="3" fill="#4e79a7"/><circle cx="67.3" cy="232.0" r="3" fill="#4e79a7"/><circle cx="82.5" cy="232.0" r="3" fill="#4e79a7"/><circle cx="97.8" cy="232.0" r="3" fill="#4e79a7"/><circle cx="113.1" cy="232.0" r="3" fill="#4e79a7"/><circle cx="128.3" cy="232.0" r="3" fill="#4e79a7"/><circle cx="143.6" cy="172.0" r="3" fill="#4e79a7"/><circle cx="158.9" cy="28.0" r="3" fill="#4e79a7"/><circle cx="174.1" cy="202.9" r="3" fill="#4e79a7"/><circle cx="189.4" cy="187.4" r="3" fill="#4e79a7"/><circle cx="204.7" cy="230.3" r="3" fill="#4e79a7"/><circle cx="219.9" cy="228.6" r="3" fill="#4e79a7"/><circle cx="235.2" cy="228.6" r="3" fill="#4e79a7"/><circle cx="250.4" cy="232.0" r="3" fill="#4e79a7"/><circle cx="265.7" cy="225.1" r="3" fill="#4e79a7"/><circle cx="281.0" cy="230.3" r="3" fill="#4e79a7"/><circle cx="296.2" cy="232.0" r="3" fill="#4e79a7"/><circle cx="311.5" cy="232.0" r="3" fill="#4e79a7"/><circle cx="326.8" cy="221.7" r="3" fill="#4e79a7"/><circle cx="342.0" cy="208.0" r="3" fill="#4e79a7"/><circle cx="357.3" cy="220.0" r="3" fill="#4e79a7"/><circle cx="372.6" cy="230.3" r="3" fill="#4e79a7"/><circle cx="387.8" cy="232.0" r="3" fill="#4e79a7"/><circle cx="403.1" cy="232.0" r="3" fill="#4e79a7"/><circle cx="418.4" cy="230.3" r="3" fill="#4e79a7"/><circle cx="433.6" cy="230.3" r="3" fill="#4e79a7"/><circle cx="448.9" cy="230.3" r="3" fill="#4e79a7"/><circle cx="464.2" cy="232.0" r="3" fill="#4e79a7"/><circle cx="479.4" cy="228.6" r="3" fill="#4e79a7"/><circle cx="494.7" cy="230.3" r="3" fill="#4e79a7"/><circle cx="510.0" cy="230.3" r="3" fill="#4e79a7"/><circle cx="525.2" cy="232.0" r="3" fill="#4e79a7"/><circle cx="540.5" cy="232.0" r="3" fill="#4e79a7"/><circle cx="555.8" cy="232.0" r="3" fill="#4e79a7"/><circle cx="571.0" cy="232.0" r="3" fill="#4e79a7"/><circle cx="586.3" cy="230.3" r="3" fill="#4e79a7"/><circle cx="601.6" cy="232.0" r="3" fill="#4e79a7"/><circle cx="616.8" cy="232.0" r="3" fill="#4e79a7"/><circle cx="632.1" cy="187.4" r="3" fill="#4e79a7"/><circle cx="647.3" cy="204.6" r="3" fill="#4e79a7"/><circle cx="662.6" cy="216.6" r="3" fill="#4e79a7"/><circle cx="677.9" cy="228.6" r="3" fill="#4e79a7"/><circle cx="693.1" cy="232.0" r="3" fill="#4e79a7"/><circle cx="708.4" cy="232.0" r="3" fill="#4e79a7"/><circle cx="723.7" cy="228.6" r="3" fill="#4e79a7"/><circle cx="738.9" cy="232.0" r="3" fill="#4e79a7"/><circle cx="754.2" cy="228.6" r="3" fill="#4e79a7"/><circle cx="769.5" cy="232.0" r="3" fill="#4e79a7"/><circle cx="784.7" cy="230.3" r="3" fill="#4e79a7"/><circle cx="800.0" cy="230.3" r="3" fill="#4e79a7"/>
  <circle cx="52.0" cy="232.0" r="3" fill="#f28e2b"/><circle cx="67.3" cy="232.0" r="3" fill="#f28e2b"/><circle cx="82.5" cy="232.0" r="3" fill="#f28e2b"/><circle cx="97.8" cy="232.0" r="3" fill="#f28e2b"/><circle cx="113.1" cy="232.0" r="3" fill="#f28e2b"/><circle cx="128.3" cy="232.0" r="3" fill="#f28e2b"/><circle cx="143.6" cy="194.3" r="3" fill="#f28e2b"/><circle cx="158.9" cy="113.7" r="3" fill="#f28e2b"/><circle cx="174.1" cy="206.3" r="3" fill="#f28e2b"/><circle cx="189.4" cy="206.3" r="3" fill="#f28e2b"/><circle cx="204.7" cy="230.3" r="3" fill="#f28e2b"/><circle cx="219.9" cy="228.6" r="3" fill="#f28e2b"/><circle cx="235.2" cy="228.6" r="3" fill="#f28e2b"/><circle cx="250.4" cy="232.0" r="3" fill="#f28e2b"/><circle cx="265.7" cy="230.3" r="3" fill="#f28e2b"/><circle cx="281.0" cy="230.3" r="3" fill="#f28e2b"/><circle cx="296.2" cy="232.0" r="3" fill="#f28e2b"/><circle cx="311.5" cy="232.0" r="3" fill="#f28e2b"/><circle cx="326.8" cy="221.7" r="3" fill="#f28e2b"/><circle cx="342.0" cy="216.6" r="3" fill="#f28e2b"/><circle cx="357.3" cy="221.7" r="3" fill="#f28e2b"/><circle cx="372.6" cy="230.3" r="3" fill="#f28e2b"/><circle cx="387.8" cy="232.0" r="3" fill="#f28e2b"/><circle cx="403.1" cy="232.0" r="3" fill="#f28e2b"/><circle cx="418.4" cy="230.3" r="3" fill="#f28e2b"/><circle cx="433.6" cy="230.3" r="3" fill="#f28e2b"/><circle cx="448.9" cy="230.3" r="3" fill="#f28e2b"/><circle cx="464.2" cy="232.0" r="3" fill="#f28e2b"/><circle cx="479.4" cy="230.3" r="3" fill="#f28e2b"/><circle cx="494.7" cy="230.3" r="3" fill="#f28e2b"/><circle cx="510.0" cy="230.3" r="3" fill="#f28e2b"/><circle cx="525.2" cy="232.0" r="3" fill="#f28e2b"/><circle cx="540.5" cy="232.0" r="3" fill="#f28e2b"/><circle cx="555.8" cy="232.0" r="3" fill="#f28e2b"/><circle cx="571.0" cy="232.0" r="3" fill="#f28e2b"/><circle cx="586.3" cy="230.3" r="3" fill="#f28e2b"/><circle cx="601.6" cy="232.0" r="3" fill="#f28e2b"/><circle cx="616.8" cy="232.0" r="3" fill="#f28e2b"/><circle cx="632.1" cy="201.1" r="3" fill="#f28e2b"/><circle cx="647.3" cy="220.0" r="3" fill="#f28e2b"/><circle cx="662.6" cy="228.6" r="3" fill="#f28e2b"/><circle cx="677.9" cy="228.6" r="3" fill="#f28e2b"/><circle cx="693.1" cy="232.0" r="3" fill="#f28e2b"/><circle cx="708.4" cy="232.0" r="3" fill="#f28e2b"/><circle cx="723.7" cy="228.6" r="3" fill="#f28e2b"/><circle cx="738.9" cy="232.0" r="3" fill="#f28e2b"/><circle cx="754.2" cy="228.6" r="3" fill="#f28e2b"/><circle cx="769.5" cy="232.0" r="3" fill="#f28e2b"/><circle cx="784.7" cy="230.3" r="3" fill="#f28e2b"/><circle cx="800.0" cy="230.3" r="3" fill="#f28e2b"/>

  <!-- axes -->
  <line x1="52" y1="28" x2="52" y2="232"
        stroke="#cccccc" stroke-width="1"/>
  <line x1="52" y1="232" x2="800" y2="232"
        stroke="#cccccc" stroke-width="1"/>

  <!-- y-axis labels -->
  <text x="47" y="236.0" text-anchor="end" font-size="10" fill="#57606a" font-family="ui-monospace, SFMono-Regular, 'SF Mono', Menlo, monospace">0</text><text x="47" y="201.7" text-anchor="end" font-size="10" fill="#57606a" font-family="ui-monospace, SFMono-Regular, 'SF Mono', Menlo, monospace">20</text><text x="47" y="167.4" text-anchor="end" font-size="10" fill="#57606a" font-family="ui-monospace, SFMono-Regular, 'SF Mono', Menlo, monospace">40</text><text x="47" y="133.1" text-anchor="end" font-size="10" fill="#57606a" font-family="ui-monospace, SFMono-Regular, 'SF Mono', Menlo, monospace">60</text><text x="47" y="98.9" text-anchor="end" font-size="10" fill="#57606a" font-family="ui-monospace, SFMono-Regular, 'SF Mono', Menlo, monospace">80</text><text x="47" y="64.6" text-anchor="end" font-size="10" fill="#57606a" font-family="ui-monospace, SFMono-Regular, 'SF Mono', Menlo, monospace">100</text><text x="47" y="30.3" text-anchor="end" font-size="10" fill="#57606a" font-family="ui-monospace, SFMono-Regular, 'SF Mono', Menlo, monospace">120</text>

  <!-- x-axis labels -->
  <text x="52.0" y="248" text-anchor="middle" font-size="10" fill="#8c959f" font-family="ui-monospace, SFMono-Regular, 'SF Mono', Menlo, monospace">05-11</text><text x="601.6" y="248" text-anchor="middle" font-size="10" fill="#8c959f" font-family="ui-monospace, SFMono-Regular, 'SF Mono', Menlo, monospace">06-16</text><text x="143.6" y="248" text-anchor="middle" font-size="10" fill="#8c959f" font-family="ui-monospace, SFMono-Regular, 'SF Mono', Menlo, monospace">05-17</text><text x="693.1" y="248" text-anchor="middle" font-size="10" fill="#8c959f" font-family="ui-monospace, SFMono-Regular, 'SF Mono', Menlo, monospace">06-22</text><text x="235.2" y="248" text-anchor="middle" font-size="10" fill="#8c959f" font-family="ui-monospace, SFMono-Regular, 'SF Mono', Menlo, monospace">05-23</text><text x="784.7" y="248" text-anchor="middle" font-size="10" fill="#8c959f" font-family="ui-monospace, SFMono-Regular, 'SF Mono', Menlo, monospace">06-28</text><text x="800.0" y="248" text-anchor="middle" font-size="10" fill="#8c959f" font-family="ui-monospace, SFMono-Regular, 'SF Mono', Menlo, monospace">06-29</text><text x="326.8" y="248" text-anchor="middle" font-size="10" fill="#8c959f" font-family="ui-monospace, SFMono-Regular, 'SF Mono', Menlo, monospace">05-29</text><text x="418.4" y="248" text-anchor="middle" font-size="10" fill="#8c959f" font-family="ui-monospace, SFMono-Regular, 'SF Mono', Menlo, monospace">06-04</text><text x="510.0" y="248" text-anchor="middle" font-size="10" fill="#8c959f" font-family="ui-monospace, SFMono-Regular, 'SF Mono', Menlo, monospace">06-10</text>

  <!-- legend -->
  <rect x="60" y="262" width="16" height="3" fill="#4e79a7" rx="1"/><text x="80" y="268" font-size="11" fill="#57606a" font-family="-apple-system, BlinkMacSystemFont, 'Segoe UI', sans-serif">Total clones (302)</text><line x1="230" y1="264" x2="246" y2="264" stroke="#f28e2b" stroke-width="2" stroke-dasharray="5,3"/><text x="250" y="268" font-size="11" fill="#57606a" font-family="-apple-system, BlinkMacSystemFont, 'Segoe UI', sans-serif">Unique cloners</text>

</svg>