<svg xmlns="http://www.w3.org/2000/svg" viewBox="0 0 820 280" width="820" height="280">

  <!-- title -->
  <text x="52" y="18" font-size="13" font-weight="600"
        fill="#24292f" font-family="-apple-system, BlinkMacSystemFont, 'Segoe UI', sans-serif"
        >Clone traffic — scancontext</text>
  <text x="800" y="18" font-size="10" fill="#8c959f"
        font-family="ui-monospace, SFMono-Regular, 'SF Mono', Menlo, monospace" text-anchor="end">2026-07-20</text>

  <!-- grid -->
  <line x1="52" y1="232.0" x2="800" y2="232.0" stroke="#e8e8e8" stroke-width="1"/><line x1="52" y1="197.7" x2="800" y2="197.7" stroke="#e8e8e8" stroke-width="1"/><line x1="52" y1="163.4" x2="800" y2="163.4" stroke="#e8e8e8" stroke-width="1"/><line x1="52" y1="129.1" x2="800" y2="129.1" stroke="#e8e8e8" stroke-width="1"/><line x1="52" y1="94.9" x2="800" y2="94.9" stroke="#e8e8e8" stroke-width="1"/><line x1="52" y1="60.6" x2="800" y2="60.6" stroke="#e8e8e8" stroke-width="1"/><line x1="52" y1="26.3" x2="800" y2="26.3" stroke="#e8e8e8" stroke-width="1"/>

  <!-- area fill -->
  <path d="M52.0,232.0 L52.0,232.0 L63.0,232.0 L74.0,232.0 L85.0,232.0 L96.0,232.0 L107.0,232.0 L118.0,172.0 L129.0,28.0 L140.0,202.9 L151.0,187.4 L162.0,230.3 L173.0,228.6 L184.0,228.6 L195.0,232.0 L206.0,225.1 L217.0,230.3 L228.0,232.0 L239.0,232.0 L250.0,221.7 L261.0,208.0 L272.0,220.0 L283.0,230.3 L294.0,232.0 L305.0,232.0 L316.0,230.3 L327.0,230.3 L338.0,230.3 L349.0,232.0 L360.0,228.6 L371.0,230.3 L382.0,230.3 L393.0,232.0 L404.0,232.0 L415.0,232.0 L426.0,232.0 L437.0,230.3 L448.0,232.0 L459.0,232.0 L470.0,187.4 L481.0,204.6 L492.0,216.6 L503.0,228.6 L514.0,232.0 L525.0,232.0 L536.0,228.6 L547.0,232.0 L558.0,228.6 L569.0,232.0 L580.0,230.3 L591.0,230.3 L602.0,230.3 L613.0,228.6 L624.0,228.6 L635.0,230.3 L646.0,232.0 L657.0,232.0 L668.0,232.0 L679.0,228.6 L690.0,209.7 L701.0,223.4 L712.0,228.6 L723.0,228.6 L734.0,230.3 L745.0,230.3 L756.0,226.9 L767.0,228.6 L778.0,230.3 L789.0,232.0 L800.0,232.0 L800.0,232.0 L52.0,232.0Z" fill="#4e79a7" opacity="0.12"/>

  <!-- lines -->
  <polyline points="52.0,232.0 63.0,232.0 74.0,232.0 85.0,232.0 96.0,232.0 107.0,232.0 118.0,172.0 129.0,28.0 140.0,202.9 151.0,187.4 162.0,230.3 173.0,228.6 184.0,228.6 195.0,232.0 206.0,225.1 217.0,230.3 228.0,232.0 239.0,232.0 250.0,221.7 261.0,208.0 272.0,220.0 283.0,230.3 294.0,232.0 305.0,232.0 316.0,230.3 327.0,230.3 338.0,230.3 349.0,232.0 360.0,228.6 371.0,230.3 382.0,230.3 393.0,232.0 404.0,232.0 415.0,232.0 426.0,232.0 437.0,230.3 448.0,232.0 459.0,232.0 470.0,187.4 481.0,204.6 492.0,216.6 503.0,228.6 514.0,232.0 525.0,232.0 536.0,228.6 547.0,232.0 558.0,228.6 569.0,232.0 580.0,230.3 591.0,230.3 602.0,230.3 613.0,228.6 624.0,228.6 635.0,230.3 646.0,232.0 657.0,232.0 668.0,232.0 679.0,228.6 690.0,209.7 701.0,223.4 712.0,228.6 723.0,228.6 734.0,230.3 745.0,230.3 756.0,226.9 767.0,228.6 778.0,230.3 789.0,232.0 800.0,232.0"
            fill="none" stroke="#4e79a7"
            stroke-width="2" stroke-linejoin="round"/>
  <polyline points="52.0,232.0 63.0,232.0 74.0,232.0 85.0,232.0 96.0,232.0 107.0,232.0 118.0,194.3 129.0,113.7 140.0,206.3 151.0,206.3 162.0,230.3 173.0,228.6 184.0,228.6 195.0,232.0 206.0,230.3 217.0,230.3 228.0,232.0 239.0,232.0 250.0,221.7 261.0,216.6 272.0,221.7 283.0,230.3 294.0,232.0 305.0,232.0 316.0,230.3 327.0,230.3 338.0,230.3 349.0,232.0 360.0,230.3 371.0,230.3 382.0,230.3 393.0,232.0 404.0,232.0 415.0,232.0 426.0,232.0 437.0,230.3 448.0,232.0 459.0,232.0 470.0,201.1 481.0,220.0 492.0,228.6 503.0,228.6 514.0,232.0 525.0,232.0 536.0,228.6 547.0,232.0 558.0,228.6 569.0,232.0 580.0,230.3 591.0,230.3 602.0,230.3 613.0,228.6 624.0,228.6 635.0,230.3 646.0,232.0 657.0,232.0 668.0,232.0 679.0,228.6 690.0,216.6 701.0,225.1 712.0,228.6 723.0,228.6 734.0,230.3 745.0,230.3 756.0,230.3 767.0,228.6 778.0,230.3 789.0,232.0 800.0,232.0"
            fill="none" stroke="#f28e2b"
            stroke-width="2" stroke-linejoin="round"
            stroke-dasharray="5,3"/>

  <!-- dots -->
  <circle cx="52.0" cy="232.0" r="3" fill="#4e79a7"/><circle cx="63.0" cy="232.0" r="3" fill="#4e79a7"/><circle cx="74.0" cy="232.0" r="3" fill="#4e79a7"/><circle cx="85.0" cy="232.0" r="3" fill="#4e79a7"/><circle cx="96.0" cy="232.0" r="3" fill="#4e79a7"/><circle cx="107.0" cy="232.0" r="3" fill="#4e79a7"/><circle cx="118.0" cy="172.0" r="3" fill="#4e79a7"/><circle cx="129.0" cy="28.0" r="3" fill="#4e79a7"/><circle cx="140.0" cy="202.9" r="3" fill="#4e79a7"/><circle cx="151.0" cy="187.4" r="3" fill="#4e79a7"/><circle cx="162.0" cy="230.3" r="3" fill="#4e79a7"/><circle cx="173.0" cy="228.6" r="3" fill="#4e79a7"/><circle cx="184.0" cy="228.6" r="3" fill="#4e79a7"/><circle cx="195.0" cy="232.0" r="3" fill="#4e79a7"/><circle cx="206.0" cy="225.1" r="3" fill="#4e79a7"/><circle cx="217.0" cy="230.3" r="3" fill="#4e79a7"/><circle cx="228.0" cy="232.0" r="3" fill="#4e79a7"/><circle cx="239.0" cy="232.0" r="3" fill="#4e79a7"/><circle cx="250.0" cy="221.7" r="3" fill="#4e79a7"/><circle cx="261.0" cy="208.0" r="3" fill="#4e79a7"/><circle cx="272.0" cy="220.0" r="3" fill="#4e79a7"/><circle cx="283.0" cy="230.3" r="3" fill="#4e79a7"/><circle cx="294.0" cy="232.0" r="3" fill="#4e79a7"/><circle cx="305.0" cy="232.0" r="3" fill="#4e79a7"/><circle cx="316.0" cy="230.3" r="3" fill="#4e79a7"/><circle cx="327.0" cy="230.3" r="3" fill="#4e79a7"/><circle cx="338.0" cy="230.3" r="3" fill="#4e79a7"/><circle cx="349.0" cy="232.0" r="3" fill="#4e79a7"/><circle cx="360.0" cy="228.6" r="3" fill="#4e79a7"/><circle cx="371.0" cy="230.3" r="3" fill="#4e79a7"/><circle cx="382.0" cy="230.3" r="3" fill="#4e79a7"/><circle cx="393.0" cy="232.0" r="3" fill="#4e79a7"/><circle cx="404.0" cy="232.0" r="3" fill="#4e79a7"/><circle cx="415.0" cy="232.0" r="3" fill="#4e79a7"/><circle cx="426.0" cy="232.0" r="3" fill="#4e79a7"/><circle cx="437.0" cy="230.3" r="3" fill="#4e79a7"/><circle cx="448.0" cy="232.0" r="3" fill="#4e79a7"/><circle cx="459.0" cy="232.0" r="3" fill="#4e79a7"/><circle cx="470.0" cy="187.4" r="3" fill="#4e79a7"/><circle cx="481.0" cy="204.6" r="3" fill="#4e79a7"/><circle cx="492.0" cy="216.6" r="3" fill="#4e79a7"/><circle cx="503.0" cy="228.6" r="3" fill="#4e79a7"/><circle cx="514.0" cy="232.0" r="3" fill="#4e79a7"/><circle cx="525.0" cy="232.0" r="3" fill="#4e79a7"/><circle cx="536.0" cy="228.6" r="3" fill="#4e79a7"/><circle cx="547.0" cy="232.0" r="3" fill="#4e79a7"/><circle cx="558.0" cy="228.6" r="3" fill="#4e79a7"/><circle cx="569.0" cy="232.0" r="3" fill="#4e79a7"/><circle cx="580.0" cy="230.3" r="3" fill="#4e79a7"/><circle cx="591.0" cy="230.3" r="3" fill="#4e79a7"/><circle cx="602.0" cy="230.3" r="3" fill="#4e79a7"/><circle cx="613.0" cy="228.6" r="3" fill="#4e79a7"/><circle cx="624.0" cy="228.6" r="3" fill="#4e79a7"/><circle cx="635.0" cy="230.3" r="3" fill="#4e79a7"/><circle cx="646.0" cy="232.0" r="3" fill="#4e79a7"/><circle cx="657.0" cy="232.0" r="3" fill="#4e79a7"/><circle cx="668.0" cy="232.0" r="3" fill="#4e79a7"/><circle cx="679.0" cy="228.6" r="3" fill="#4e79a7"/><circle cx="690.0" cy="209.7" r="3" fill="#4e79a7"/><circle cx="701.0" cy="223.4" r="3" fill="#4e79a7"/><circle cx="712.0" cy="228.6" r="3" fill="#4e79a7"/><circle cx="723.0" cy="228.6" r="3" fill="#4e79a7"/><circle cx="734.0" cy="230.3" r="3" fill="#4e79a7"/><circle cx="745.0" cy="230.3" r="3" fill="#4e79a7"/><circle cx="756.0" cy="226.9" r="3" fill="#4e79a7"/><circle cx="767.0" cy="228.6" r="3" fill="#4e79a7"/><circle cx="778.0" cy="230.3" r="3" fill="#4e79a7"/><circle cx="789.0" cy="232.0" r="3" fill="#4e79a7"/><circle cx="800.0" cy="232.0" r="3" fill="#4e79a7"/>
  <circle cx="52.0" cy="232.0" r="3" fill="#f28e2b"/><circle cx="63.0" cy="232.0" r="3" fill="#f28e2b"/><circle cx="74.0" cy="232.0" r="3" fill="#f28e2b"/><circle cx="85.0" cy="232.0" r="3" fill="#f28e2b"/><circle cx="96.0" cy="232.0" r="3" fill="#f28e2b"/><circle cx="107.0" cy="232.0" r="3" fill="#f28e2b"/><circle cx="118.0" cy="194.3" r="3" fill="#f28e2b"/><circle cx="129.0" cy="113.7" r="3" fill="#f28e2b"/><circle cx="140.0" cy="206.3" r="3" fill="#f28e2b"/><circle cx="151.0" cy="206.3" r="3" fill="#f28e2b"/><circle cx="162.0" cy="230.3" r="3" fill="#f28e2b"/><circle cx="173.0" cy="228.6" r="3" fill="#f28e2b"/><circle cx="184.0" cy="228.6" r="3" fill="#f28e2b"/><circle cx="195.0" cy="232.0" r="3" fill="#f28e2b"/><circle cx="206.0" cy="230.3" r="3" fill="#f28e2b"/><circle cx="217.0" cy="230.3" r="3" fill="#f28e2b"/><circle cx="228.0" cy="232.0" r="3" fill="#f28e2b"/><circle cx="239.0" cy="232.0" r="3" fill="#f28e2b"/><circle cx="250.0" cy="221.7" r="3" fill="#f28e2b"/><circle cx="261.0" cy="216.6" r="3" fill="#f28e2b"/><circle cx="272.0" cy="221.7" r="3" fill="#f28e2b"/><circle cx="283.0" cy="230.3" r="3" fill="#f28e2b"/><circle cx="294.0" cy="232.0" r="3" fill="#f28e2b"/><circle cx="305.0" cy="232.0" r="3" fill="#f28e2b"/><circle cx="316.0" cy="230.3" r="3" fill="#f28e2b"/><circle cx="327.0" cy="230.3" r="3" fill="#f28e2b"/><circle cx="338.0" cy="230.3" r="3" fill="#f28e2b"/><circle cx="349.0" cy="232.0" r="3" fill="#f28e2b"/><circle cx="360.0" cy="230.3" r="3" fill="#f28e2b"/><circle cx="371.0" cy="230.3" r="3" fill="#f28e2b"/><circle cx="382.0" cy="230.3" r="3" fill="#f28e2b"/><circle cx="393.0" cy="232.0" r="3" fill="#f28e2b"/><circle cx="404.0" cy="232.0" r="3" fill="#f28e2b"/><circle cx="415.0" cy="232.0" r="3" fill="#f28e2b"/><circle cx="426.0" cy="232.0" r="3" fill="#f28e2b"/><circle cx="437.0" cy="230.3" r="3" fill="#f28e2b"/><circle cx="448.0" cy="232.0" r="3" fill="#f28e2b"/><circle cx="459.0" cy="232.0" r="3" fill="#f28e2b"/><circle cx="470.0" cy="201.1" r="3" fill="#f28e2b"/><circle cx="481.0" cy="220.0" r="3" fill="#f28e2b"/><circle cx="492.0" cy="228.6" r="3" fill="#f28e2b"/><circle cx="503.0" cy="228.6" r="3" fill="#f28e2b"/><circle cx="514.0" cy="232.0" r="3" fill="#f28e2b"/><circle cx="525.0" cy="232.0" r="3" fill="#f28e2b"/><circle cx="536.0" cy="228.6" r="3" fill="#f28e2b"/><circle cx="547.0" cy="232.0" r="3" fill="#f28e2b"/><circle cx="558.0" cy="228.6" r="3" fill="#f28e2b"/><circle cx="569.0" cy="232.0" r="3" fill="#f28e2b"/><circle cx="580.0" cy="230.3" r="3" fill="#f28e2b"/><circle cx="591.0" cy="230.3" r="3" fill="#f28e2b"/><circle cx="602.0" cy="230.3" r="3" fill="#f28e2b"/><circle cx="613.0" cy="228.6" r="3" fill="#f28e2b"/><circle cx="624.0" cy="228.6" r="3" fill="#f28e2b"/><circle cx="635.0" cy="230.3" r="3" fill="#f28e2b"/><circle cx="646.0" cy="232.0" r="3" fill="#f28e2b"/><circle cx="657.0" cy="232.0" r="3" fill="#f28e2b"/><circle cx="668.0" cy="232.0" r="3" fill="#f28e2b"/><circle cx="679.0" cy="228.6" r="3" fill="#f28e2b"/><circle cx="690.0" cy="216.6" r="3" fill="#f28e2b"/><circle cx="701.0" cy="225.1" r="3" fill="#f28e2b"/><circle cx="712.0" cy="228.6" r="3" fill="#f28e2b"/><circle cx="723.0" cy="228.6" r="3" fill="#f28e2b"/><circle cx="734.0" cy="230.3" r="3" fill="#f28e2b"/><circle cx="745.0" cy="230.3" r="3" fill="#f28e2b"/><circle cx="756.0" cy="230.3" r="3" fill="#f28e2b"/><circle cx="767.0" cy="228.6" r="3" fill="#f28e2b"/><circle cx="778.0" cy="230.3" r="3" fill="#f28e2b"/><circle cx="789.0" cy="232.0" r="3" fill="#f28e2b"/><circle cx="800.0" cy="232.0" r="3" fill="#f28e2b"/>

  <!-- axes -->
  <line x1="52" y1="28" x2="52" y2="232"
        stroke="#cccccc" stroke-width="1"/>
  <line x1="52" y1="232" x2="800" y2="232"
        stroke="#cccccc" stroke-width="1"/>

  <!-- y-axis labels -->
  <text x="47" y="236.0" text-anchor="end" font-size="10" fill="#57606a" font-family="ui-monospace, SFMono-Regular, 'SF Mono', Menlo, monospace">0</text><text x="47" y="201.7" text-anchor="end" font-size="10" fill="#57606a" font-family="ui-monospace, SFMono-Regular, 'SF Mono', Menlo, monospace">20</text><text x="47" y="167.4" text-anchor="end" font-size="10" fill="#57606a" font-family="ui-monospace, SFMono-Regular, 'SF Mono', Menlo, monospace">40</text><text x="47" y="133.1" text-anchor="end" font-size="10" fill="#57606a" font-family="ui-monospace, SFMono-Regular, 'SF Mono', Menlo, monospace">60</text><text x="47" y="98.9" text-anchor="end" font-size="10" fill="#57606a" font-family="ui-monospace, SFMono-Regular, 'SF Mono', Menlo, monospace">80</text><text x="47" y="64.6" text-anchor="end" font-size="10" fill="#57606a" font-family="ui-monospace, SFMono-Regular, 'SF Mono', Menlo, monospace">100</text><text x="47" y="30.3" text-anchor="end" font-size="10" fill="#57606a" font-family="ui-monospace, SFMono-Regular, 'SF Mono', Menlo, monospace">120</text>

  <!-- x-axis labels -->
  <text x="52.0" y="248" text-anchor="middle" font-size="10" fill="#8c959f" font-family="ui-monospace, SFMono-Regular, 'SF Mono', Menlo, monospace">05-11</text><text x="404.0" y="248" text-anchor="middle" font-size="10" fill="#8c959f" font-family="ui-monospace, SFMono-Regular, 'SF Mono', Menlo, monospace">06-12</text><text x="756.0" y="248" text-anchor="middle" font-size="10" fill="#8c959f" font-family="ui-monospace, SFMono-Regular, 'SF Mono', Menlo, monospace">07-14</text><text x="800.0" y="248" text-anchor="middle" font-size="10" fill="#8c959f" font-family="ui-monospace, SFMono-Regular, 'SF Mono', Menlo, monospace">07-18</text><text x="140.0" y="248" text-anchor="middle" font-size="10" fill="#8c959f" font-family="ui-monospace, SFMono-Regular, 'SF Mono', Menlo, monospace">05-19</text><text x="492.0" y="248" text-anchor="middle" font-size="10" fill="#8c959f" font-family="ui-monospace, SFMono-Regular, 'SF Mono', Menlo, monospace">06-20</text><text x="228.0" y="248" text-anchor="middle" font-size="10" fill="#8c959f" font-family="ui-monospace, SFMono-Regular, 'SF Mono', Menlo, monospace">05-27</text><text x="580.0" y="248" text-anchor="middle" font-size="10" fill="#8c959f" font-family="ui-monospace, SFMono-Regular, 'SF Mono', Menlo, monospace">06-28</text><text x="316.0" y="248" text-anchor="middle" font-size="10" fill="#8c959f" font-family="ui-monospace, SFMono-Regular, 'SF Mono', Menlo, monospace">06-04</text><text x="668.0" y="248" text-anchor="middle" font-size="10" fill="#8c959f" font-family="ui-monospace, SFMono-Regular, 'SF Mono', Menlo, monospace">07-06</text>

  <!-- legend -->
  <rect x="60" y="262" width="16" height="3" fill="#4e79a7" rx="1"/><text x="80" y="268" font-size="11" fill="#57606a" font-family="-apple-system, BlinkMacSystemFont, 'Segoe UI', sans-serif">Total clones (340)</text><line x1="230" y1="264" x2="246" y2="264" stroke="#f28e2b" stroke-width="2" stroke-dasharray="5,3"/><text x="250" y="268" font-size="11" fill="#57606a" font-family="-apple-system, BlinkMacSystemFont, 'Segoe UI', sans-serif">Unique cloners</text>

</svg>