<svg xmlns="http://www.w3.org/2000/svg" viewBox="0 0 820 280" width="820" height="280">

  <!-- title -->
  <text x="52" y="18" font-size="13" font-weight="600"
        fill="#24292f" font-family="-apple-system, BlinkMacSystemFont, 'Segoe UI', sans-serif"
        >Clone traffic — scancontext</text>
  <text x="800" y="18" font-size="10" fill="#8c959f"
        font-family="ui-monospace, SFMono-Regular, 'SF Mono', Menlo, monospace" text-anchor="end">2026-07-13</text>

  <!-- grid -->
  <line x1="52" y1="232.0" x2="800" y2="232.0" stroke="#e8e8e8" stroke-width="1"/><line x1="52" y1="197.7" x2="800" y2="197.7" stroke="#e8e8e8" stroke-width="1"/><line x1="52" y1="163.4" x2="800" y2="163.4" stroke="#e8e8e8" stroke-width="1"/><line x1="52" y1="129.1" x2="800" y2="129.1" stroke="#e8e8e8" stroke-width="1"/><line x1="52" y1="94.9" x2="800" y2="94.9" stroke="#e8e8e8" stroke-width="1"/><line x1="52" y1="60.6" x2="800" y2="60.6" stroke="#e8e8e8" stroke-width="1"/><line x1="52" y1="26.3" x2="800" y2="26.3" stroke="#e8e8e8" stroke-width="1"/>

  <!-- area fill -->
  <path d="M52.0,232.0 L52.0,232.0 L64.1,232.0 L76.1,232.0 L88.2,232.0 L100.3,232.0 L112.3,232.0 L124.4,172.0 L136.5,28.0 L148.5,202.9 L160.6,187.4 L172.6,230.3 L184.7,228.6 L196.8,228.6 L208.8,232.0 L220.9,225.1 L233.0,230.3 L245.0,232.0 L257.1,232.0 L269.2,221.7 L281.2,208.0 L293.3,220.0 L305.4,230.3 L317.4,232.0 L329.5,232.0 L341.5,230.3 L353.6,230.3 L365.7,230.3 L377.7,232.0 L389.8,228.6 L401.9,230.3 L413.9,230.3 L426.0,232.0 L438.1,232.0 L450.1,232.0 L462.2,232.0 L474.3,230.3 L486.3,232.0 L498.4,232.0 L510.5,187.4 L522.5,204.6 L534.6,216.6 L546.6,228.6 L558.7,232.0 L570.8,232.0 L582.8,228.6 L594.9,232.0 L607.0,228.6 L619.0,232.0 L631.1,230.3 L643.2,230.3 L655.2,230.3 L667.3,228.6 L679.4,228.6 L691.4,230.3 L703.5,232.0 L715.5,232.0 L727.6,232.0 L739.7,228.6 L751.7,209.7 L763.8,223.4 L775.9,228.6 L787.9,228.6 L800.0,230.3 L800.0,232.0 L52.0,232.0Z" fill="#4e79a7" opacity="0.12"/>

  <!-- lines -->
  <polyline points="52.0,232.0 64.1,232.0 76.1,232.0 88.2,232.0 100.3,232.0 112.3,232.0 124.4,172.0 136.5,28.0 148.5,202.9 160.6,187.4 172.6,230.3 184.7,228.6 196.8,228.6 208.8,232.0 220.9,225.1 233.0,230.3 245.0,232.0 257.1,232.0 269.2,221.7 281.2,208.0 293.3,220.0 305.4,230.3 317.4,232.0 329.5,232.0 341.5,230.3 353.6,230.3 365.7,230.3 377.7,232.0 389.8,228.6 401.9,230.3 413.9,230.3 426.0,232.0 438.1,232.0 450.1,232.0 462.2,232.0 474.3,230.3 486.3,232.0 498.4,232.0 510.5,187.4 522.5,204.6 534.6,216.6 546.6,228.6 558.7,232.0 570.8,232.0 582.8,228.6 594.9,232.0 607.0,228.6 619.0,232.0 631.1,230.3 643.2,230.3 655.2,230.3 667.3,228.6 679.4,228.6 691.4,230.3 703.5,232.0 715.5,232.0 727.6,232.0 739.7,228.6 751.7,209.7 763.8,223.4 775.9,228.6 787.9,228.6 800.0,230.3"
            fill="none" stroke="#4e79a7"
            stroke-width="2" stroke-linejoin="round"/>
  <polyline points="52.0,232.0 64.1,232.0 76.1,232.0 88.2,232.0 100.3,232.0 112.3,232.0 124.4,194.3 136.5,113.7 148.5,206.3 160.6,206.3 172.6,230.3 184.7,228.6 196.8,228.6 208.8,232.0 220.9,230.3 233.0,230.3 245.0,232.0 257.1,232.0 269.2,221.7 281.2,216.6 293.3,221.7 305.4,230.3 317.4,232.0 329.5,232.0 341.5,230.3 353.6,230.3 365.7,230.3 377.7,232.0 389.8,230.3 401.9,230.3 413.9,230.3 426.0,232.0 438.1,232.0 450.1,232.0 462.2,232.0 474.3,230.3 486.3,232.0 498.4,232.0 510.5,201.1 522.5,220.0 534.6,228.6 546.6,228.6 558.7,232.0 570.8,232.0 582.8,228.6 594.9,232.0 607.0,228.6 619.0,232.0 631.1,230.3 643.2,230.3 655.2,230.3 667.3,228.6 679.4,228.6 691.4,230.3 703.5,232.0 715.5,232.0 727.6,232.0 739.7,228.6 751.7,216.6 763.8,225.1 775.9,228.6 787.9,228.6 800.0,230.3"
            fill="none" stroke="#f28e2b"
            stroke-width="2" stroke-linejoin="round"
            stroke-dasharray="5,3"/>

  <!-- dots -->
  <circle cx="52.0" cy="232.0" r="3" fill="#4e79a7"/><circle cx="64.1" cy="232.0" r="3" fill="#4e79a7"/><circle cx="76.1" cy="232.0" r="3" fill="#4e79a7"/><circle cx="88.2" cy="232.0" r="3" fill="#4e79a7"/><circle cx="100.3" cy="232.0" r="3" fill="#4e79a7"/><circle cx="112.3" cy="232.0" r="3" fill="#4e79a7"/><circle cx="124.4" cy="172.0" r="3" fill="#4e79a7"/><circle cx="136.5" cy="28.0" r="3" fill="#4e79a7"/><circle cx="148.5" cy="202.9" r="3" fill="#4e79a7"/><circle cx="160.6" cy="187.4" r="3" fill="#4e79a7"/><circle cx="172.6" cy="230.3" r="3" fill="#4e79a7"/><circle cx="184.7" cy="228.6" r="3" fill="#4e79a7"/><circle cx="196.8" cy="228.6" r="3" fill="#4e79a7"/><circle cx="208.8" cy="232.0" r="3" fill="#4e79a7"/><circle cx="220.9" cy="225.1" r="3" fill="#4e79a7"/><circle cx="233.0" cy="230.3" r="3" fill="#4e79a7"/><circle cx="245.0" cy="232.0" r="3" fill="#4e79a7"/><circle cx="257.1" cy="232.0" r="3" fill="#4e79a7"/><circle cx="269.2" cy="221.7" r="3" fill="#4e79a7"/><circle cx="281.2" cy="208.0" r="3" fill="#4e79a7"/><circle cx="293.3" cy="220.0" r="3" fill="#4e79a7"/><circle cx="305.4" cy="230.3" r="3" fill="#4e79a7"/><circle cx="317.4" cy="232.0" r="3" fill="#4e79a7"/><circle cx="329.5" cy="232.0" r="3" fill="#4e79a7"/><circle cx="341.5" cy="230.3" r="3" fill="#4e79a7"/><circle cx="353.6" cy="230.3" r="3" fill="#4e79a7"/><circle cx="365.7" cy="230.3" r="3" fill="#4e79a7"/><circle cx="377.7" cy="232.0" r="3" fill="#4e79a7"/><circle cx="389.8" cy="228.6" r="3" fill="#4e79a7"/><circle cx="401.9" cy="230.3" r="3" fill="#4e79a7"/><circle cx="413.9" cy="230.3" r="3" fill="#4e79a7"/><circle cx="426.0" cy="232.0" r="3" fill="#4e79a7"/><circle cx="438.1" cy="232.0" r="3" fill="#4e79a7"/><circle cx="450.1" cy="232.0" r="3" fill="#4e79a7"/><circle cx="462.2" cy="232.0" r="3" fill="#4e79a7"/><circle cx="474.3" cy="230.3" r="3" fill="#4e79a7"/><circle cx="486.3" cy="232.0" r="3" fill="#4e79a7"/><circle cx="498.4" cy="232.0" r="3" fill="#4e79a7"/><circle cx="510.5" cy="187.4" r="3" fill="#4e79a7"/><circle cx="522.5" cy="204.6" r="3" fill="#4e79a7"/><circle cx="534.6" cy="216.6" r="3" fill="#4e79a7"/><circle cx="546.6" cy="228.6" r="3" fill="#4e79a7"/><circle cx="558.7" cy="232.0" r="3" fill="#4e79a7"/><circle cx="570.8" cy="232.0" r="3" fill="#4e79a7"/><circle cx="582.8" cy="228.6" r="3" fill="#4e79a7"/><circle cx="594.9" cy="232.0" r="3" fill="#4e79a7"/><circle cx="607.0" cy="228.6" r="3" fill="#4e79a7"/><circle cx="619.0" cy="232.0" r="3" fill="#4e79a7"/><circle cx="631.1" cy="230.3" r="3" fill="#4e79a7"/><circle cx="643.2" cy="230.3" r="3" fill="#4e79a7"/><circle cx="655.2" cy="230.3" r="3" fill="#4e79a7"/><circle cx="667.3" cy="228.6" r="3" fill="#4e79a7"/><circle cx="679.4" cy="228.6" r="3" fill="#4e79a7"/><circle cx="691.4" cy="230.3" r="3" fill="#4e79a7"/><circle cx="703.5" cy="232.0" r="3" fill="#4e79a7"/><circle cx="715.5" cy="232.0" r="3" fill="#4e79a7"/><circle cx="727.6" cy="232.0" r="3" fill="#4e79a7"/><circle cx="739.7" cy="228.6" r="3" fill="#4e79a7"/><circle cx="751.7" cy="209.7" r="3" fill="#4e79a7"/><circle cx="763.8" cy="223.4" r="3" fill="#4e79a7"/><circle cx="775.9" cy="228.6" r="3" fill="#4e79a7"/><circle cx="787.9" cy="228.6" r="3" fill="#4e79a7"/><circle cx="800.0" cy="230.3" r="3" fill="#4e79a7"/>
  <circle cx="52.0" cy="232.0" r="3" fill="#f28e2b"/><circle cx="64.1" cy="232.0" r="3" fill="#f28e2b"/><circle cx="76.1" cy="232.0" r="3" fill="#f28e2b"/><circle cx="88.2" cy="232.0" r="3" fill="#f28e2b"/><circle cx="100.3" cy="232.0" r="3" fill="#f28e2b"/><circle cx="112.3" cy="232.0" r="3" fill="#f28e2b"/><circle cx="124.4" cy="194.3" r="3" fill="#f28e2b"/><circle cx="136.5" cy="113.7" r="3" fill="#f28e2b"/><circle cx="148.5" cy="206.3" r="3" fill="#f28e2b"/><circle cx="160.6" cy="206.3" r="3" fill="#f28e2b"/><circle cx="172.6" cy="230.3" r="3" fill="#f28e2b"/><circle cx="184.7" cy="228.6" r="3" fill="#f28e2b"/><circle cx="196.8" cy="228.6" r="3" fill="#f28e2b"/><circle cx="208.8" cy="232.0" r="3" fill="#f28e2b"/><circle cx="220.9" cy="230.3" r="3" fill="#f28e2b"/><circle cx="233.0" cy="230.3" r="3" fill="#f28e2b"/><circle cx="245.0" cy="232.0" r="3" fill="#f28e2b"/><circle cx="257.1" cy="232.0" r="3" fill="#f28e2b"/><circle cx="269.2" cy="221.7" r="3" fill="#f28e2b"/><circle cx="281.2" cy="216.6" r="3" fill="#f28e2b"/><circle cx="293.3" cy="221.7" r="3" fill="#f28e2b"/><circle cx="305.4" cy="230.3" r="3" fill="#f28e2b"/><circle cx="317.4" cy="232.0" r="3" fill="#f28e2b"/><circle cx="329.5" cy="232.0" r="3" fill="#f28e2b"/><circle cx="341.5" cy="230.3" r="3" fill="#f28e2b"/><circle cx="353.6" cy="230.3" r="3" fill="#f28e2b"/><circle cx="365.7" cy="230.3" r="3" fill="#f28e2b"/><circle cx="377.7" cy="232.0" r="3" fill="#f28e2b"/><circle cx="389.8" cy="230.3" r="3" fill="#f28e2b"/><circle cx="401.9" cy="230.3" r="3" fill="#f28e2b"/><circle cx="413.9" cy="230.3" r="3" fill="#f28e2b"/><circle cx="426.0" cy="232.0" r="3" fill="#f28e2b"/><circle cx="438.1" cy="232.0" r="3" fill="#f28e2b"/><circle cx="450.1" cy="232.0" r="3" fill="#f28e2b"/><circle cx="462.2" cy="232.0" r="3" fill="#f28e2b"/><circle cx="474.3" cy="230.3" r="3" fill="#f28e2b"/><circle cx="486.3" cy="232.0" r="3" fill="#f28e2b"/><circle cx="498.4" cy="232.0" r="3" fill="#f28e2b"/><circle cx="510.5" cy="201.1" r="3" fill="#f28e2b"/><circle cx="522.5" cy="220.0" r="3" fill="#f28e2b"/><circle cx="534.6" cy="228.6" r="3" fill="#f28e2b"/><circle cx="546.6" cy="228.6" r="3" fill="#f28e2b"/><circle cx="558.7" cy="232.0" r="3" fill="#f28e2b"/><circle cx="570.8" cy="232.0" r="3" fill="#f28e2b"/><circle cx="582.8" cy="228.6" r="3" fill="#f28e2b"/><circle cx="594.9" cy="232.0" r="3" fill="#f28e2b"/><circle cx="607.0" cy="228.6" r="3" fill="#f28e2b"/><circle cx="619.0" cy="232.0" r="3" fill="#f28e2b"/><circle cx="631.1" cy="230.3" r="3" fill="#f28e2b"/><circle cx="643.2" cy="230.3" r="3" fill="#f28e2b"/><circle cx="655.2" cy="230.3" r="3" fill="#f28e2b"/><circle cx="667.3" cy="228.6" r="3" fill="#f28e2b"/><circle cx="679.4" cy="228.6" r="3" fill="#f28e2b"/><circle cx="691.4" cy="230.3" r="3" fill="#f28e2b"/><circle cx="703.5" cy="232.0" r="3" fill="#f28e2b"/><circle cx="715.5" cy="232.0" r="3" fill="#f28e2b"/><circle cx="727.6" cy="232.0" r="3" fill="#f28e2b"/><circle cx="739.7" cy="228.6" r="3" fill="#f28e2b"/><circle cx="751.7" cy="216.6" r="3" fill="#f28e2b"/><circle cx="763.8" cy="225.1" r="3" fill="#f28e2b"/><circle cx="775.9" cy="228.6" r="3" fill="#f28e2b"/><circle cx="787.9" cy="228.6" r="3" fill="#f28e2b"/><circle cx="800.0" cy="230.3" r="3" fill="#f28e2b"/>

  <!-- axes -->
  <line x1="52" y1="28" x2="52" y2="232"
        stroke="#cccccc" stroke-width="1"/>
  <line x1="52" y1="232" x2="800" y2="232"
        stroke="#cccccc" stroke-width="1"/>

  <!-- y-axis labels -->
  <text x="47" y="236.0" text-anchor="end" font-size="10" fill="#57606a" font-family="ui-monospace, SFMono-Regular, 'SF Mono', Menlo, monospace">0</text><text x="47" y="201.7" text-anchor="end" font-size="10" fill="#57606a" font-family="ui-monospace, SFMono-Regular, 'SF Mono', Menlo, monospace">20</text><text x="47" y="167.4" text-anchor="end" font-size="10" fill="#57606a" font-family="ui-monospace, SFMono-Regular, 'SF Mono', Menlo, monospace">40</text><text x="47" y="133.1" text-anchor="end" font-size="10" fill="#57606a" font-family="ui-monospace, SFMono-Regular, 'SF Mono', Menlo, monospace">60</text><text x="47" y="98.9" text-anchor="end" font-size="10" fill="#57606a" font-family="ui-monospace, SFMono-Regular, 'SF Mono', Menlo, monospace">80</text><text x="47" y="64.6" text-anchor="end" font-size="10" fill="#57606a" font-family="ui-monospace, SFMono-Regular, 'SF Mono', Menlo, monospace">100</text><text x="47" y="30.3" text-anchor="end" font-size="10" fill="#57606a" font-family="ui-monospace, SFMono-Regular, 'SF Mono', Menlo, monospace">120</text>

  <!-- x-axis labels -->
  <text x="52.0" y="248" text-anchor="middle" font-size="10" fill="#8c959f" font-family="ui-monospace, SFMono-Regular, 'SF Mono', Menlo, monospace">05-11</text><text x="474.3" y="248" text-anchor="middle" font-size="10" fill="#8c959f" font-family="ui-monospace, SFMono-Regular, 'SF Mono', Menlo, monospace">06-15</text><text x="136.5" y="248" text-anchor="middle" font-size="10" fill="#8c959f" font-family="ui-monospace, SFMono-Regular, 'SF Mono', Menlo, monospace">05-18</text><text x="558.7" y="248" text-anchor="middle" font-size="10" fill="#8c959f" font-family="ui-monospace, SFMono-Regular, 'SF Mono', Menlo, monospace">06-22</text><text x="220.9" y="248" text-anchor="middle" font-size="10" fill="#8c959f" font-family="ui-monospace, SFMono-Regular, 'SF Mono', Menlo, monospace">05-25</text><text x="643.2" y="248" text-anchor="middle" font-size="10" fill="#8c959f" font-family="ui-monospace, SFMono-Regular, 'SF Mono', Menlo, monospace">06-29</text><text x="305.4" y="248" text-anchor="middle" font-size="10" fill="#8c959f" font-family="ui-monospace, SFMono-Regular, 'SF Mono', Menlo, monospace">06-01</text><text x="727.6" y="248" text-anchor="middle" font-size="10" fill="#8c959f" font-family="ui-monospace, SFMono-Regular, 'SF Mono', Menlo, monospace">07-06</text><text x="389.8" y="248" text-anchor="middle" font-size="10" fill="#8c959f" font-family="ui-monospace, SFMono-Regular, 'SF Mono', Menlo, monospace">06-08</text><text x="800.0" y="248" text-anchor="middle" font-size="10" fill="#8c959f" font-family="ui-monospace, SFMono-Regular, 'SF Mono', Menlo, monospace">07-12</text>

  <!-- legend -->
  <rect x="60" y="262" width="16" height="3" fill="#4e79a7" rx="1"/><text x="80" y="268" font-size="11" fill="#57606a" font-family="-apple-system, BlinkMacSystemFont, 'Segoe UI', sans-serif">Total clones (333)</text><line x1="230" y1="264" x2="246" y2="264" stroke="#f28e2b" stroke-width="2" stroke-dasharray="5,3"/><text x="250" y="268" font-size="11" fill="#57606a" font-family="-apple-system, BlinkMacSystemFont, 'Segoe UI', sans-serif">Unique cloners</text>

</svg>