<svg xmlns="http://www.w3.org/2000/svg" viewBox="0 0 820 280" width="820" height="280">

  <!-- title -->
  <text x="52" y="18" font-size="13" font-weight="600"
        fill="#24292f" font-family="-apple-system, BlinkMacSystemFont, 'Segoe UI', sans-serif"
        >Clone traffic — scancontext</text>
  <text x="800" y="18" font-size="10" fill="#8c959f"
        font-family="ui-monospace, SFMono-Regular, 'SF Mono', Menlo, monospace" text-anchor="end">2026-07-15</text>

  <!-- grid -->
  <line x1="52" y1="232.0" x2="800" y2="232.0" stroke="#e8e8e8" stroke-width="1"/><line x1="52" y1="197.7" x2="800" y2="197.7" stroke="#e8e8e8" stroke-width="1"/><line x1="52" y1="163.4" x2="800" y2="163.4" stroke="#e8e8e8" stroke-width="1"/><line x1="52" y1="129.1" x2="800" y2="129.1" stroke="#e8e8e8" stroke-width="1"/><line x1="52" y1="94.9" x2="800" y2="94.9" stroke="#e8e8e8" stroke-width="1"/><line x1="52" y1="60.6" x2="800" y2="60.6" stroke="#e8e8e8" stroke-width="1"/><line x1="52" y1="26.3" x2="800" y2="26.3" stroke="#e8e8e8" stroke-width="1"/>

  <!-- area fill -->
  <path d="M52.0,232.0 L52.0,232.0 L63.9,232.0 L75.7,232.0 L87.6,232.0 L99.5,232.0 L111.4,232.0 L123.2,172.0 L135.1,28.0 L147.0,202.9 L158.9,187.4 L170.7,230.3 L182.6,228.6 L194.5,228.6 L206.3,232.0 L218.2,225.1 L230.1,230.3 L242.0,232.0 L253.8,232.0 L265.7,221.7 L277.6,208.0 L289.5,220.0 L301.3,230.3 L313.2,232.0 L325.1,232.0 L337.0,230.3 L348.8,230.3 L360.7,230.3 L372.6,232.0 L384.4,228.6 L396.3,230.3 L408.2,230.3 L420.1,232.0 L431.9,232.0 L443.8,232.0 L455.7,232.0 L467.6,230.3 L479.4,232.0 L491.3,232.0 L503.2,187.4 L515.0,204.6 L526.9,216.6 L538.8,228.6 L550.7,232.0 L562.5,232.0 L574.4,228.6 L586.3,232.0 L598.2,228.6 L610.0,232.0 L621.9,230.3 L633.8,230.3 L645.7,230.3 L657.5,228.6 L669.4,228.6 L681.3,230.3 L693.1,232.0 L705.0,232.0 L716.9,232.0 L728.8,228.6 L740.6,209.7 L752.5,223.4 L764.4,228.6 L776.3,228.6 L788.1,230.3 L800.0,230.3 L800.0,232.0 L52.0,232.0Z" fill="#4e79a7" opacity="0.12"/>

  <!-- lines -->
  <polyline points="52.0,232.0 63.9,232.0 75.7,232.0 87.6,232.0 99.5,232.0 111.4,232.0 123.2,172.0 135.1,28.0 147.0,202.9 158.9,187.4 170.7,230.3 182.6,228.6 194.5,228.6 206.3,232.0 218.2,225.1 230.1,230.3 242.0,232.0 253.8,232.0 265.7,221.7 277.6,208.0 289.5,220.0 301.3,230.3 313.2,232.0 325.1,232.0 337.0,230.3 348.8,230.3 360.7,230.3 372.6,232.0 384.4,228.6 396.3,230.3 408.2,230.3 420.1,232.0 431.9,232.0 443.8,232.0 455.7,232.0 467.6,230.3 479.4,232.0 491.3,232.0 503.2,187.4 515.0,204.6 526.9,216.6 538.8,228.6 550.7,232.0 562.5,232.0 574.4,228.6 586.3,232.0 598.2,228.6 610.0,232.0 621.9,230.3 633.8,230.3 645.7,230.3 657.5,228.6 669.4,228.6 681.3,230.3 693.1,232.0 705.0,232.0 716.9,232.0 728.8,228.6 740.6,209.7 752.5,223.4 764.4,228.6 776.3,228.6 788.1,230.3 800.0,230.3"
            fill="none" stroke="#4e79a7"
            stroke-width="2" stroke-linejoin="round"/>
  <polyline points="52.0,232.0 63.9,232.0 75.7,232.0 87.6,232.0 99.5,232.0 111.4,232.0 123.2,194.3 135.1,113.7 147.0,206.3 158.9,206.3 170.7,230.3 182.6,228.6 194.5,228.6 206.3,232.0 218.2,230.3 230.1,230.3 242.0,232.0 253.8,232.0 265.7,221.7 277.6,216.6 289.5,221.7 301.3,230.3 313.2,232.0 325.1,232.0 337.0,230.3 348.8,230.3 360.7,230.3 372.6,232.0 384.4,230.3 396.3,230.3 408.2,230.3 420.1,232.0 431.9,232.0 443.8,232.0 455.7,232.0 467.6,230.3 479.4,232.0 491.3,232.0 503.2,201.1 515.0,220.0 526.9,228.6 538.8,228.6 550.7,232.0 562.5,232.0 574.4,228.6 586.3,232.0 598.2,228.6 610.0,232.0 621.9,230.3 633.8,230.3 645.7,230.3 657.5,228.6 669.4,228.6 681.3,230.3 693.1,232.0 705.0,232.0 716.9,232.0 728.8,228.6 740.6,216.6 752.5,225.1 764.4,228.6 776.3,228.6 788.1,230.3 800.0,230.3"
            fill="none" stroke="#f28e2b"
            stroke-width="2" stroke-linejoin="round"
            stroke-dasharray="5,3"/>

  <!-- dots -->
  <circle cx="52.0" cy="232.0" r="3" fill="#4e79a7"/><circle cx="63.9" cy="232.0" r="3" fill="#4e79a7"/><circle cx="75.7" cy="232.0" r="3" fill="#4e79a7"/><circle cx="87.6" cy="232.0" r="3" fill="#4e79a7"/><circle cx="99.5" cy="232.0" r="3" fill="#4e79a7"/><circle cx="111.4" cy="232.0" r="3" fill="#4e79a7"/><circle cx="123.2" cy="172.0" r="3" fill="#4e79a7"/><circle cx="135.1" cy="28.0" r="3" fill="#4e79a7"/><circle cx="147.0" cy="202.9" r="3" fill="#4e79a7"/><circle cx="158.9" cy="187.4" r="3" fill="#4e79a7"/><circle cx="170.7" cy="230.3" r="3" fill="#4e79a7"/><circle cx="182.6" cy="228.6" r="3" fill="#4e79a7"/><circle cx="194.5" cy="228.6" r="3" fill="#4e79a7"/><circle cx="206.3" cy="232.0" r="3" fill="#4e79a7"/><circle cx="218.2" cy="225.1" r="3" fill="#4e79a7"/><circle cx="230.1" cy="230.3" r="3" fill="#4e79a7"/><circle cx="242.0" cy="232.0" r="3" fill="#4e79a7"/><circle cx="253.8" cy="232.0" r="3" fill="#4e79a7"/><circle cx="265.7" cy="221.7" r="3" fill="#4e79a7"/><circle cx="277.6" cy="208.0" r="3" fill="#4e79a7"/><circle cx="289.5" cy="220.0" r="3" fill="#4e79a7"/><circle cx="301.3" cy="230.3" r="3" fill="#4e79a7"/><circle cx="313.2" cy="232.0" r="3" fill="#4e79a7"/><circle cx="325.1" cy="232.0" r="3" fill="#4e79a7"/><circle cx="337.0" cy="230.3" r="3" fill="#4e79a7"/><circle cx="348.8" cy="230.3" r="3" fill="#4e79a7"/><circle cx="360.7" cy="230.3" r="3" fill="#4e79a7"/><circle cx="372.6" cy="232.0" r="3" fill="#4e79a7"/><circle cx="384.4" cy="228.6" r="3" fill="#4e79a7"/><circle cx="396.3" cy="230.3" r="3" fill="#4e79a7"/><circle cx="408.2" cy="230.3" r="3" fill="#4e79a7"/><circle cx="420.1" cy="232.0" r="3" fill="#4e79a7"/><circle cx="431.9" cy="232.0" r="3" fill="#4e79a7"/><circle cx="443.8" cy="232.0" r="3" fill="#4e79a7"/><circle cx="455.7" cy="232.0" r="3" fill="#4e79a7"/><circle cx="467.6" cy="230.3" r="3" fill="#4e79a7"/><circle cx="479.4" cy="232.0" r="3" fill="#4e79a7"/><circle cx="491.3" cy="232.0" r="3" fill="#4e79a7"/><circle cx="503.2" cy="187.4" r="3" fill="#4e79a7"/><circle cx="515.0" cy="204.6" r="3" fill="#4e79a7"/><circle cx="526.9" cy="216.6" r="3" fill="#4e79a7"/><circle cx="538.8" cy="228.6" r="3" fill="#4e79a7"/><circle cx="550.7" cy="232.0" r="3" fill="#4e79a7"/><circle cx="562.5" cy="232.0" r="3" fill="#4e79a7"/><circle cx="574.4" cy="228.6" r="3" fill="#4e79a7"/><circle cx="586.3" cy="232.0" r="3" fill="#4e79a7"/><circle cx="598.2" cy="228.6" r="3" fill="#4e79a7"/><circle cx="610.0" cy="232.0" r="3" fill="#4e79a7"/><circle cx="621.9" cy="230.3" r="3" fill="#4e79a7"/><circle cx="633.8" cy="230.3" r="3" fill="#4e79a7"/><circle cx="645.7" cy="230.3" r="3" fill="#4e79a7"/><circle cx="657.5" cy="228.6" r="3" fill="#4e79a7"/><circle cx="669.4" cy="228.6" r="3" fill="#4e79a7"/><circle cx="681.3" cy="230.3" r="3" fill="#4e79a7"/><circle cx="693.1" cy="232.0" r="3" fill="#4e79a7"/><circle cx="705.0" cy="232.0" r="3" fill="#4e79a7"/><circle cx="716.9" cy="232.0" r="3" fill="#4e79a7"/><circle cx="728.8" cy="228.6" r="3" fill="#4e79a7"/><circle cx="740.6" cy="209.7" r="3" fill="#4e79a7"/><circle cx="752.5" cy="223.4" r="3" fill="#4e79a7"/><circle cx="764.4" cy="228.6" r="3" fill="#4e79a7"/><circle cx="776.3" cy="228.6" r="3" fill="#4e79a7"/><circle cx="788.1" cy="230.3" r="3" fill="#4e79a7"/><circle cx="800.0" cy="230.3" r="3" fill="#4e79a7"/>
  <circle cx="52.0" cy="232.0" r="3" fill="#f28e2b"/><circle cx="63.9" cy="232.0" r="3" fill="#f28e2b"/><circle cx="75.7" cy="232.0" r="3" fill="#f28e2b"/><circle cx="87.6" cy="232.0" r="3" fill="#f28e2b"/><circle cx="99.5" cy="232.0" r="3" fill="#f28e2b"/><circle cx="111.4" cy="232.0" r="3" fill="#f28e2b"/><circle cx="123.2" cy="194.3" r="3" fill="#f28e2b"/><circle cx="135.1" cy="113.7" r="3" fill="#f28e2b"/><circle cx="147.0" cy="206.3" r="3" fill="#f28e2b"/><circle cx="158.9" cy="206.3" r="3" fill="#f28e2b"/><circle cx="170.7" cy="230.3" r="3" fill="#f28e2b"/><circle cx="182.6" cy="228.6" r="3" fill="#f28e2b"/><circle cx="194.5" cy="228.6" r="3" fill="#f28e2b"/><circle cx="206.3" cy="232.0" r="3" fill="#f28e2b"/><circle cx="218.2" cy="230.3" r="3" fill="#f28e2b"/><circle cx="230.1" cy="230.3" r="3" fill="#f28e2b"/><circle cx="242.0" cy="232.0" r="3" fill="#f28e2b"/><circle cx="253.8" cy="232.0" r="3" fill="#f28e2b"/><circle cx="265.7" cy="221.7" r="3" fill="#f28e2b"/><circle cx="277.6" cy="216.6" r="3" fill="#f28e2b"/><circle cx="289.5" cy="221.7" r="3" fill="#f28e2b"/><circle cx="301.3" cy="230.3" r="3" fill="#f28e2b"/><circle cx="313.2" cy="232.0" r="3" fill="#f28e2b"/><circle cx="325.1" cy="232.0" r="3" fill="#f28e2b"/><circle cx="337.0" cy="230.3" r="3" fill="#f28e2b"/><circle cx="348.8" cy="230.3" r="3" fill="#f28e2b"/><circle cx="360.7" cy="230.3" r="3" fill="#f28e2b"/><circle cx="372.6" cy="232.0" r="3" fill="#f28e2b"/><circle cx="384.4" cy="230.3" r="3" fill="#f28e2b"/><circle cx="396.3" cy="230.3" r="3" fill="#f28e2b"/><circle cx="408.2" cy="230.3" r="3" fill="#f28e2b"/><circle cx="420.1" cy="232.0" r="3" fill="#f28e2b"/><circle cx="431.9" cy="232.0" r="3" fill="#f28e2b"/><circle cx="443.8" cy="232.0" r="3" fill="#f28e2b"/><circle cx="455.7" cy="232.0" r="3" fill="#f28e2b"/><circle cx="467.6" cy="230.3" r="3" fill="#f28e2b"/><circle cx="479.4" cy="232.0" r="3" fill="#f28e2b"/><circle cx="491.3" cy="232.0" r="3" fill="#f28e2b"/><circle cx="503.2" cy="201.1" r="3" fill="#f28e2b"/><circle cx="515.0" cy="220.0" r="3" fill="#f28e2b"/><circle cx="526.9" cy="228.6" r="3" fill="#f28e2b"/><circle cx="538.8" cy="228.6" r="3" fill="#f28e2b"/><circle cx="550.7" cy="232.0" r="3" fill="#f28e2b"/><circle cx="562.5" cy="232.0" r="3" fill="#f28e2b"/><circle cx="574.4" cy="228.6" r="3" fill="#f28e2b"/><circle cx="586.3" cy="232.0" r="3" fill="#f28e2b"/><circle cx="598.2" cy="228.6" r="3" fill="#f28e2b"/><circle cx="610.0" cy="232.0" r="3" fill="#f28e2b"/><circle cx="621.9" cy="230.3" r="3" fill="#f28e2b"/><circle cx="633.8" cy="230.3" r="3" fill="#f28e2b"/><circle cx="645.7" cy="230.3" r="3" fill="#f28e2b"/><circle cx="657.5" cy="228.6" r="3" fill="#f28e2b"/><circle cx="669.4" cy="228.6" r="3" fill="#f28e2b"/><circle cx="681.3" cy="230.3" r="3" fill="#f28e2b"/><circle cx="693.1" cy="232.0" r="3" fill="#f28e2b"/><circle cx="705.0" cy="232.0" r="3" fill="#f28e2b"/><circle cx="716.9" cy="232.0" r="3" fill="#f28e2b"/><circle cx="728.8" cy="228.6" r="3" fill="#f28e2b"/><circle cx="740.6" cy="216.6" r="3" fill="#f28e2b"/><circle cx="752.5" cy="225.1" r="3" fill="#f28e2b"/><circle cx="764.4" cy="228.6" r="3" fill="#f28e2b"/><circle cx="776.3" cy="228.6" r="3" fill="#f28e2b"/><circle cx="788.1" cy="230.3" r="3" fill="#f28e2b"/><circle cx="800.0" cy="230.3" r="3" fill="#f28e2b"/>

  <!-- axes -->
  <line x1="52" y1="28" x2="52" y2="232"
        stroke="#cccccc" stroke-width="1"/>
  <line x1="52" y1="232" x2="800" y2="232"
        stroke="#cccccc" stroke-width="1"/>

  <!-- y-axis labels -->
  <text x="47" y="236.0" text-anchor="end" font-size="10" fill="#57606a" font-family="ui-monospace, SFMono-Regular, 'SF Mono', Menlo, monospace">0</text><text x="47" y="201.7" text-anchor="end" font-size="10" fill="#57606a" font-family="ui-monospace, SFMono-Regular, 'SF Mono', Menlo, monospace">20</text><text x="47" y="167.4" text-anchor="end" font-size="10" fill="#57606a" font-family="ui-monospace, SFMono-Regular, 'SF Mono', Menlo, monospace">40</text><text x="47" y="133.1" text-anchor="end" font-size="10" fill="#57606a" font-family="ui-monospace, SFMono-Regular, 'SF Mono', Menlo, monospace">60</text><text x="47" y="98.9" text-anchor="end" font-size="10" fill="#57606a" font-family="ui-monospace, SFMono-Regular, 'SF Mono', Menlo, monospace">80</text><text x="47" y="64.6" text-anchor="end" font-size="10" fill="#57606a" font-family="ui-monospace, SFMono-Regular, 'SF Mono', Menlo, monospace">100</text><text x="47" y="30.3" text-anchor="end" font-size="10" fill="#57606a" font-family="ui-monospace, SFMono-Regular, 'SF Mono', Menlo, monospace">120</text>

  <!-- x-axis labels -->
  <text x="52.0" y="248" text-anchor="middle" font-size="10" fill="#8c959f" font-family="ui-monospace, SFMono-Regular, 'SF Mono', Menlo, monospace">05-11</text><text x="431.9" y="248" text-anchor="middle" font-size="10" fill="#8c959f" font-family="ui-monospace, SFMono-Regular, 'SF Mono', Menlo, monospace">06-12</text><text x="147.0" y="248" text-anchor="middle" font-size="10" fill="#8c959f" font-family="ui-monospace, SFMono-Regular, 'SF Mono', Menlo, monospace">05-19</text><text x="526.9" y="248" text-anchor="middle" font-size="10" fill="#8c959f" font-family="ui-monospace, SFMono-Regular, 'SF Mono', Menlo, monospace">06-20</text><text x="242.0" y="248" text-anchor="middle" font-size="10" fill="#8c959f" font-family="ui-monospace, SFMono-Regular, 'SF Mono', Menlo, monospace">05-27</text><text x="621.9" y="248" text-anchor="middle" font-size="10" fill="#8c959f" font-family="ui-monospace, SFMono-Regular, 'SF Mono', Menlo, monospace">06-28</text><text x="337.0" y="248" text-anchor="middle" font-size="10" fill="#8c959f" font-family="ui-monospace, SFMono-Regular, 'SF Mono', Menlo, monospace">06-04</text><text x="716.9" y="248" text-anchor="middle" font-size="10" fill="#8c959f" font-family="ui-monospace, SFMono-Regular, 'SF Mono', Menlo, monospace">07-06</text><text x="800.0" y="248" text-anchor="middle" font-size="10" fill="#8c959f" font-family="ui-monospace, SFMono-Regular, 'SF Mono', Menlo, monospace">07-13</text>

  <!-- legend -->
  <rect x="60" y="262" width="16" height="3" fill="#4e79a7" rx="1"/><text x="80" y="268" font-size="11" fill="#57606a" font-family="-apple-system, BlinkMacSystemFont, 'Segoe UI', sans-serif">Total clones (334)</text><line x1="230" y1="264" x2="246" y2="264" stroke="#f28e2b" stroke-width="2" stroke-dasharray="5,3"/><text x="250" y="268" font-size="11" fill="#57606a" font-family="-apple-system, BlinkMacSystemFont, 'Segoe UI', sans-serif">Unique cloners</text>

</svg>