<svg xmlns="http://www.w3.org/2000/svg" viewBox="0 0 820 280" width="820" height="280">

  <!-- title -->
  <text x="52" y="18" font-size="13" font-weight="600"
        fill="#24292f" font-family="-apple-system, BlinkMacSystemFont, 'Segoe UI', sans-serif"
        >Clone traffic — scancontext</text>
  <text x="800" y="18" font-size="10" fill="#8c959f"
        font-family="ui-monospace, SFMono-Regular, 'SF Mono', Menlo, monospace" text-anchor="end">2026-06-25</text>

  <!-- grid -->
  <line x1="52" y1="232.0" x2="800" y2="232.0" stroke="#e8e8e8" stroke-width="1"/><line x1="52" y1="197.7" x2="800" y2="197.7" stroke="#e8e8e8" stroke-width="1"/><line x1="52" y1="163.4" x2="800" y2="163.4" stroke="#e8e8e8" stroke-width="1"/><line x1="52" y1="129.1" x2="800" y2="129.1" stroke="#e8e8e8" stroke-width="1"/><line x1="52" y1="94.9" x2="800" y2="94.9" stroke="#e8e8e8" stroke-width="1"/><line x1="52" y1="60.6" x2="800" y2="60.6" stroke="#e8e8e8" stroke-width="1"/><line x1="52" y1="26.3" x2="800" y2="26.3" stroke="#e8e8e8" stroke-width="1"/>

  <!-- area fill -->
  <path d="M52.0,232.0 L52.0,232.0 L69.4,232.0 L86.8,232.0 L104.2,232.0 L121.6,232.0 L139.0,232.0 L156.4,172.0 L173.8,28.0 L191.2,202.9 L208.6,187.4 L226.0,230.3 L243.3,228.6 L260.7,228.6 L278.1,232.0 L295.5,225.1 L312.9,230.3 L330.3,232.0 L347.7,232.0 L365.1,221.7 L382.5,208.0 L399.9,220.0 L417.3,230.3 L434.7,232.0 L452.1,232.0 L469.5,230.3 L486.9,230.3 L504.3,230.3 L521.7,232.0 L539.1,228.6 L556.5,230.3 L573.9,230.3 L591.3,232.0 L608.7,232.0 L626.0,232.0 L643.4,232.0 L660.8,230.3 L678.2,232.0 L695.6,232.0 L713.0,187.4 L730.4,204.6 L747.8,216.6 L765.2,228.6 L782.6,232.0 L800.0,232.0 L800.0,232.0 L52.0,232.0Z" fill="#4e79a7" opacity="0.12"/>

  <!-- lines -->
  <polyline points="52.0,232.0 69.4,232.0 86.8,232.0 104.2,232.0 121.6,232.0 139.0,232.0 156.4,172.0 173.8,28.0 191.2,202.9 208.6,187.4 226.0,230.3 243.3,228.6 260.7,228.6 278.1,232.0 295.5,225.1 312.9,230.3 330.3,232.0 347.7,232.0 365.1,221.7 382.5,208.0 399.9,220.0 417.3,230.3 434.7,232.0 452.1,232.0 469.5,230.3 486.9,230.3 504.3,230.3 521.7,232.0 539.1,228.6 556.5,230.3 573.9,230.3 591.3,232.0 608.7,232.0 626.0,232.0 643.4,232.0 660.8,230.3 678.2,232.0 695.6,232.0 713.0,187.4 730.4,204.6 747.8,216.6 765.2,228.6 782.6,232.0 800.0,232.0"
            fill="none" stroke="#4e79a7"
            stroke-width="2" stroke-linejoin="round"/>
  <polyline points="52.0,232.0 69.4,232.0 86.8,232.0 104.2,232.0 121.6,232.0 139.0,232.0 156.4,194.3 173.8,113.7 191.2,206.3 208.6,206.3 226.0,230.3 243.3,228.6 260.7,228.6 278.1,232.0 295.5,230.3 312.9,230.3 330.3,232.0 347.7,232.0 365.1,221.7 382.5,216.6 399.9,221.7 417.3,230.3 434.7,232.0 452.1,232.0 469.5,230.3 486.9,230.3 504.3,230.3 521.7,232.0 539.1,230.3 556.5,230.3 573.9,230.3 591.3,232.0 608.7,232.0 626.0,232.0 643.4,232.0 660.8,230.3 678.2,232.0 695.6,232.0 713.0,201.1 730.4,220.0 747.8,228.6 765.2,228.6 782.6,232.0 800.0,232.0"
            fill="none" stroke="#f28e2b"
            stroke-width="2" stroke-linejoin="round"
            stroke-dasharray="5,3"/>

  <!-- dots -->
  <circle cx="52.0" cy="232.0" r="3" fill="#4e79a7"/><circle cx="69.4" cy="232.0" r="3" fill="#4e79a7"/><circle cx="86.8" cy="232.0" r="3" fill="#4e79a7"/><circle cx="104.2" cy="232.0" r="3" fill="#4e79a7"/><circle cx="121.6" cy="232.0" r="3" fill="#4e79a7"/><circle cx="139.0" cy="232.0" r="3" fill="#4e79a7"/><circle cx="156.4" cy="172.0" r="3" fill="#4e79a7"/><circle cx="173.8" cy="28.0" r="3" fill="#4e79a7"/><circle cx="191.2" cy="202.9" r="3" fill="#4e79a7"/><circle cx="208.6" cy="187.4" r="3" fill="#4e79a7"/><circle cx="226.0" cy="230.3" r="3" fill="#4e79a7"/><circle cx="243.3" cy="228.6" r="3" fill="#4e79a7"/><circle cx="260.7" cy="228.6" r="3" fill="#4e79a7"/><circle cx="278.1" cy="232.0" r="3" fill="#4e79a7"/><circle cx="295.5" cy="225.1" r="3" fill="#4e79a7"/><circle cx="312.9" cy="230.3" r="3" fill="#4e79a7"/><circle cx="330.3" cy="232.0" r="3" fill="#4e79a7"/><circle cx="347.7" cy="232.0" r="3" fill="#4e79a7"/><circle cx="365.1" cy="221.7" r="3" fill="#4e79a7"/><circle cx="382.5" cy="208.0" r="3" fill="#4e79a7"/><circle cx="399.9" cy="220.0" r="3" fill="#4e79a7"/><circle cx="417.3" cy="230.3" r="3" fill="#4e79a7"/><circle cx="434.7" cy="232.0" r="3" fill="#4e79a7"/><circle cx="452.1" cy="232.0" r="3" fill="#4e79a7"/><circle cx="469.5" cy="230.3" r="3" fill="#4e79a7"/><circle cx="486.9" cy="230.3" r="3" fill="#4e79a7"/><circle cx="504.3" cy="230.3" r="3" fill="#4e79a7"/><circle cx="521.7" cy="232.0" r="3" fill="#4e79a7"/><circle cx="539.1" cy="228.6" r="3" fill="#4e79a7"/><circle cx="556.5" cy="230.3" r="3" fill="#4e79a7"/><circle cx="573.9" cy="230.3" r="3" fill="#4e79a7"/><circle cx="591.3" cy="232.0" r="3" fill="#4e79a7"/><circle cx="608.7" cy="232.0" r="3" fill="#4e79a7"/><circle cx="626.0" cy="232.0" r="3" fill="#4e79a7"/><circle cx="643.4" cy="232.0" r="3" fill="#4e79a7"/><circle cx="660.8" cy="230.3" r="3" fill="#4e79a7"/><circle cx="678.2" cy="232.0" r="3" fill="#4e79a7"/><circle cx="695.6" cy="232.0" r="3" fill="#4e79a7"/><circle cx="713.0" cy="187.4" r="3" fill="#4e79a7"/><circle cx="730.4" cy="204.6" r="3" fill="#4e79a7"/><circle cx="747.8" cy="216.6" r="3" fill="#4e79a7"/><circle cx="765.2" cy="228.6" r="3" fill="#4e79a7"/><circle cx="782.6" cy="232.0" r="3" fill="#4e79a7"/><circle cx="800.0" cy="232.0" r="3" fill="#4e79a7"/>
  <circle cx="52.0" cy="232.0" r="3" fill="#f28e2b"/><circle cx="69.4" cy="232.0" r="3" fill="#f28e2b"/><circle cx="86.8" cy="232.0" r="3" fill="#f28e2b"/><circle cx="104.2" cy="232.0" r="3" fill="#f28e2b"/><circle cx="121.6" cy="232.0" r="3" fill="#f28e2b"/><circle cx="139.0" cy="232.0" r="3" fill="#f28e2b"/><circle cx="156.4" cy="194.3" r="3" fill="#f28e2b"/><circle cx="173.8" cy="113.7" r="3" fill="#f28e2b"/><circle cx="191.2" cy="206.3" r="3" fill="#f28e2b"/><circle cx="208.6" cy="206.3" r="3" fill="#f28e2b"/><circle cx="226.0" cy="230.3" r="3" fill="#f28e2b"/><circle cx="243.3" cy="228.6" r="3" fill="#f28e2b"/><circle cx="260.7" cy="228.6" r="3" fill="#f28e2b"/><circle cx="278.1" cy="232.0" r="3" fill="#f28e2b"/><circle cx="295.5" cy="230.3" r="3" fill="#f28e2b"/><circle cx="312.9" cy="230.3" r="3" fill="#f28e2b"/><circle cx="330.3" cy="232.0" r="3" fill="#f28e2b"/><circle cx="347.7" cy="232.0" r="3" fill="#f28e2b"/><circle cx="365.1" cy="221.7" r="3" fill="#f28e2b"/><circle cx="382.5" cy="216.6" r="3" fill="#f28e2b"/><circle cx="399.9" cy="221.7" r="3" fill="#f28e2b"/><circle cx="417.3" cy="230.3" r="3" fill="#f28e2b"/><circle cx="434.7" cy="232.0" r="3" fill="#f28e2b"/><circle cx="452.1" cy="232.0" r="3" fill="#f28e2b"/><circle cx="469.5" cy="230.3" r="3" fill="#f28e2b"/><circle cx="486.9" cy="230.3" r="3" fill="#f28e2b"/><circle cx="504.3" cy="230.3" r="3" fill="#f28e2b"/><circle cx="521.7" cy="232.0" r="3" fill="#f28e2b"/><circle cx="539.1" cy="230.3" r="3" fill="#f28e2b"/><circle cx="556.5" cy="230.3" r="3" fill="#f28e2b"/><circle cx="573.9" cy="230.3" r="3" fill="#f28e2b"/><circle cx="591.3" cy="232.0" r="3" fill="#f28e2b"/><circle cx="608.7" cy="232.0" r="3" fill="#f28e2b"/><circle cx="626.0" cy="232.0" r="3" fill="#f28e2b"/><circle cx="643.4" cy="232.0" r="3" fill="#f28e2b"/><circle cx="660.8" cy="230.3" r="3" fill="#f28e2b"/><circle cx="678.2" cy="232.0" r="3" fill="#f28e2b"/><circle cx="695.6" cy="232.0" r="3" fill="#f28e2b"/><circle cx="713.0" cy="201.1" r="3" fill="#f28e2b"/><circle cx="730.4" cy="220.0" r="3" fill="#f28e2b"/><circle cx="747.8" cy="228.6" r="3" fill="#f28e2b"/><circle cx="765.2" cy="228.6" r="3" fill="#f28e2b"/><circle cx="782.6" cy="232.0" r="3" fill="#f28e2b"/><circle cx="800.0" cy="232.0" r="3" fill="#f28e2b"/>

  <!-- axes -->
  <line x1="52" y1="28" x2="52" y2="232"
        stroke="#cccccc" stroke-width="1"/>
  <line x1="52" y1="232" x2="800" y2="232"
        stroke="#cccccc" stroke-width="1"/>

  <!-- y-axis labels -->
  <text x="47" y="236.0" text-anchor="end" font-size="10" fill="#57606a" font-family="ui-monospace, SFMono-Regular, 'SF Mono', Menlo, monospace">0</text><text x="47" y="201.7" text-anchor="end" font-size="10" fill="#57606a" font-family="ui-monospace, SFMono-Regular, 'SF Mono', Menlo, monospace">20</text><text x="47" y="167.4" text-anchor="end" font-size="10" fill="#57606a" font-family="ui-monospace, SFMono-Regular, 'SF Mono', Menlo, monospace">40</text><text x="47" y="133.1" text-anchor="end" font-size="10" fill="#57606a" font-family="ui-monospace, SFMono-Regular, 'SF Mono', Menlo, monospace">60</text><text x="47" y="98.9" text-anchor="end" font-size="10" fill="#57606a" font-family="ui-monospace, SFMono-Regular, 'SF Mono', Menlo, monospace">80</text><text x="47" y="64.6" text-anchor="end" font-size="10" fill="#57606a" font-family="ui-monospace, SFMono-Regular, 'SF Mono', Menlo, monospace">100</text><text x="47" y="30.3" text-anchor="end" font-size="10" fill="#57606a" font-family="ui-monospace, SFMono-Regular, 'SF Mono', Menlo, monospace">120</text>

  <!-- x-axis labels -->
  <text x="52.0" y="248" text-anchor="middle" font-size="10" fill="#8c959f" font-family="ui-monospace, SFMono-Regular, 'SF Mono', Menlo, monospace">05-11</text><text x="660.8" y="248" text-anchor="middle" font-size="10" fill="#8c959f" font-family="ui-monospace, SFMono-Regular, 'SF Mono', Menlo, monospace">06-15</text><text x="139.0" y="248" text-anchor="middle" font-size="10" fill="#8c959f" font-family="ui-monospace, SFMono-Regular, 'SF Mono', Menlo, monospace">05-16</text><text x="747.8" y="248" text-anchor="middle" font-size="10" fill="#8c959f" font-family="ui-monospace, SFMono-Regular, 'SF Mono', Menlo, monospace">06-20</text><text x="226.0" y="248" text-anchor="middle" font-size="10" fill="#8c959f" font-family="ui-monospace, SFMono-Regular, 'SF Mono', Menlo, monospace">05-21</text><text x="800.0" y="248" text-anchor="middle" font-size="10" fill="#8c959f" font-family="ui-monospace, SFMono-Regular, 'SF Mono', Menlo, monospace">06-23</text><text x="312.9" y="248" text-anchor="middle" font-size="10" fill="#8c959f" font-family="ui-monospace, SFMono-Regular, 'SF Mono', Menlo, monospace">05-26</text><text x="399.9" y="248" text-anchor="middle" font-size="10" fill="#8c959f" font-family="ui-monospace, SFMono-Regular, 'SF Mono', Menlo, monospace">05-31</text><text x="486.9" y="248" text-anchor="middle" font-size="10" fill="#8c959f" font-family="ui-monospace, SFMono-Regular, 'SF Mono', Menlo, monospace">06-05</text><text x="573.9" y="248" text-anchor="middle" font-size="10" fill="#8c959f" font-family="ui-monospace, SFMono-Regular, 'SF Mono', Menlo, monospace">06-10</text>

  <!-- legend -->
  <rect x="60" y="262" width="16" height="3" fill="#4e79a7" rx="1"/><text x="80" y="268" font-size="11" fill="#57606a" font-family="-apple-system, BlinkMacSystemFont, 'Segoe UI', sans-serif">Total clones (296)</text><line x1="230" y1="264" x2="246" y2="264" stroke="#f28e2b" stroke-width="2" stroke-dasharray="5,3"/><text x="250" y="268" font-size="11" fill="#57606a" font-family="-apple-system, BlinkMacSystemFont, 'Segoe UI', sans-serif">Unique cloners</text>

</svg>