<svg xmlns="http://www.w3.org/2000/svg" viewBox="0 0 820 280" width="820" height="280">

  <!-- title -->
  <text x="52" y="18" font-size="13" font-weight="600"
        fill="#24292f" font-family="-apple-system, BlinkMacSystemFont, 'Segoe UI', sans-serif"
        >Clone traffic — scancontext</text>
  <text x="800" y="18" font-size="10" fill="#8c959f"
        font-family="ui-monospace, SFMono-Regular, 'SF Mono', Menlo, monospace" text-anchor="end">2026-07-04</text>

  <!-- grid -->
  <line x1="52" y1="232.0" x2="800" y2="232.0" stroke="#e8e8e8" stroke-width="1"/><line x1="52" y1="197.7" x2="800" y2="197.7" stroke="#e8e8e8" stroke-width="1"/><line x1="52" y1="163.4" x2="800" y2="163.4" stroke="#e8e8e8" stroke-width="1"/><line x1="52" y1="129.1" x2="800" y2="129.1" stroke="#e8e8e8" stroke-width="1"/><line x1="52" y1="94.9" x2="800" y2="94.9" stroke="#e8e8e8" stroke-width="1"/><line x1="52" y1="60.6" x2="800" y2="60.6" stroke="#e8e8e8" stroke-width="1"/><line x1="52" y1="26.3" x2="800" y2="26.3" stroke="#e8e8e8" stroke-width="1"/>

  <!-- area fill -->
  <path d="M52.0,232.0 L52.0,232.0 L66.4,232.0 L80.8,232.0 L95.2,232.0 L109.5,232.0 L123.9,232.0 L138.3,172.0 L152.7,28.0 L167.1,202.9 L181.5,187.4 L195.8,230.3 L210.2,228.6 L224.6,228.6 L239.0,232.0 L253.4,225.1 L267.8,230.3 L282.2,232.0 L296.5,232.0 L310.9,221.7 L325.3,208.0 L339.7,220.0 L354.1,230.3 L368.5,232.0 L382.8,232.0 L397.2,230.3 L411.6,230.3 L426.0,230.3 L440.4,232.0 L454.8,228.6 L469.2,230.3 L483.5,230.3 L497.9,232.0 L512.3,232.0 L526.7,232.0 L541.1,232.0 L555.5,230.3 L569.8,232.0 L584.2,232.0 L598.6,187.4 L613.0,204.6 L627.4,216.6 L641.8,228.6 L656.2,232.0 L670.5,232.0 L684.9,228.6 L699.3,232.0 L713.7,228.6 L728.1,232.0 L742.5,230.3 L756.8,230.3 L771.2,230.3 L785.6,228.6 L800.0,228.6 L800.0,232.0 L52.0,232.0Z" fill="#4e79a7" opacity="0.12"/>

  <!-- lines -->
  <polyline points="52.0,232.0 66.4,232.0 80.8,232.0 95.2,232.0 109.5,232.0 123.9,232.0 138.3,172.0 152.7,28.0 167.1,202.9 181.5,187.4 195.8,230.3 210.2,228.6 224.6,228.6 239.0,232.0 253.4,225.1 267.8,230.3 282.2,232.0 296.5,232.0 310.9,221.7 325.3,208.0 339.7,220.0 354.1,230.3 368.5,232.0 382.8,232.0 397.2,230.3 411.6,230.3 426.0,230.3 440.4,232.0 454.8,228.6 469.2,230.3 483.5,230.3 497.9,232.0 512.3,232.0 526.7,232.0 541.1,232.0 555.5,230.3 569.8,232.0 584.2,232.0 598.6,187.4 613.0,204.6 627.4,216.6 641.8,228.6 656.2,232.0 670.5,232.0 684.9,228.6 699.3,232.0 713.7,228.6 728.1,232.0 742.5,230.3 756.8,230.3 771.2,230.3 785.6,228.6 800.0,228.6"
            fill="none" stroke="#4e79a7"
            stroke-width="2" stroke-linejoin="round"/>
  <polyline points="52.0,232.0 66.4,232.0 80.8,232.0 95.2,232.0 109.5,232.0 123.9,232.0 138.3,194.3 152.7,113.7 167.1,206.3 181.5,206.3 195.8,230.3 210.2,228.6 224.6,228.6 239.0,232.0 253.4,230.3 267.8,230.3 282.2,232.0 296.5,232.0 310.9,221.7 325.3,216.6 339.7,221.7 354.1,230.3 368.5,232.0 382.8,232.0 397.2,230.3 411.6,230.3 426.0,230.3 440.4,232.0 454.8,230.3 469.2,230.3 483.5,230.3 497.9,232.0 512.3,232.0 526.7,232.0 541.1,232.0 555.5,230.3 569.8,232.0 584.2,232.0 598.6,201.1 613.0,220.0 627.4,228.6 641.8,228.6 656.2,232.0 670.5,232.0 684.9,228.6 699.3,232.0 713.7,228.6 728.1,232.0 742.5,230.3 756.8,230.3 771.2,230.3 785.6,228.6 800.0,228.6"
            fill="none" stroke="#f28e2b"
            stroke-width="2" stroke-linejoin="round"
            stroke-dasharray="5,3"/>

  <!-- dots -->
  <circle cx="52.0" cy="232.0" r="3" fill="#4e79a7"/><circle cx="66.4" cy="232.0" r="3" fill="#4e79a7"/><circle cx="80.8" cy="232.0" r="3" fill="#4e79a7"/><circle cx="95.2" cy="232.0" r="3" fill="#4e79a7"/><circle cx="109.5" cy="232.0" r="3" fill="#4e79a7"/><circle cx="123.9" cy="232.0" r="3" fill="#4e79a7"/><circle cx="138.3" cy="172.0" r="3" fill="#4e79a7"/><circle cx="152.7" cy="28.0" r="3" fill="#4e79a7"/><circle cx="167.1" cy="202.9" r="3" fill="#4e79a7"/><circle cx="181.5" cy="187.4" r="3" fill="#4e79a7"/><circle cx="195.8" cy="230.3" r="3" fill="#4e79a7"/><circle cx="210.2" cy="228.6" r="3" fill="#4e79a7"/><circle cx="224.6" cy="228.6" r="3" fill="#4e79a7"/><circle cx="239.0" cy="232.0" r="3" fill="#4e79a7"/><circle cx="253.4" cy="225.1" r="3" fill="#4e79a7"/><circle cx="267.8" cy="230.3" r="3" fill="#4e79a7"/><circle cx="282.2" cy="232.0" r="3" fill="#4e79a7"/><circle cx="296.5" cy="232.0" r="3" fill="#4e79a7"/><circle cx="310.9" cy="221.7" r="3" fill="#4e79a7"/><circle cx="325.3" cy="208.0" r="3" fill="#4e79a7"/><circle cx="339.7" cy="220.0" r="3" fill="#4e79a7"/><circle cx="354.1" cy="230.3" r="3" fill="#4e79a7"/><circle cx="368.5" cy="232.0" r="3" fill="#4e79a7"/><circle cx="382.8" cy="232.0" r="3" fill="#4e79a7"/><circle cx="397.2" cy="230.3" r="3" fill="#4e79a7"/><circle cx="411.6" cy="230.3" r="3" fill="#4e79a7"/><circle cx="426.0" cy="230.3" r="3" fill="#4e79a7"/><circle cx="440.4" cy="232.0" r="3" fill="#4e79a7"/><circle cx="454.8" cy="228.6" r="3" fill="#4e79a7"/><circle cx="469.2" cy="230.3" r="3" fill="#4e79a7"/><circle cx="483.5" cy="230.3" r="3" fill="#4e79a7"/><circle cx="497.9" cy="232.0" r="3" fill="#4e79a7"/><circle cx="512.3" cy="232.0" r="3" fill="#4e79a7"/><circle cx="526.7" cy="232.0" r="3" fill="#4e79a7"/><circle cx="541.1" cy="232.0" r="3" fill="#4e79a7"/><circle cx="555.5" cy="230.3" r="3" fill="#4e79a7"/><circle cx="569.8" cy="232.0" r="3" fill="#4e79a7"/><circle cx="584.2" cy="232.0" r="3" fill="#4e79a7"/><circle cx="598.6" cy="187.4" r="3" fill="#4e79a7"/><circle cx="613.0" cy="204.6" r="3" fill="#4e79a7"/><circle cx="627.4" cy="216.6" r="3" fill="#4e79a7"/><circle cx="641.8" cy="228.6" r="3" fill="#4e79a7"/><circle cx="656.2" cy="232.0" r="3" fill="#4e79a7"/><circle cx="670.5" cy="232.0" r="3" fill="#4e79a7"/><circle cx="684.9" cy="228.6" r="3" fill="#4e79a7"/><circle cx="699.3" cy="232.0" r="3" fill="#4e79a7"/><circle cx="713.7" cy="228.6" r="3" fill="#4e79a7"/><circle cx="728.1" cy="232.0" r="3" fill="#4e79a7"/><circle cx="742.5" cy="230.3" r="3" fill="#4e79a7"/><circle cx="756.8" cy="230.3" r="3" fill="#4e79a7"/><circle cx="771.2" cy="230.3" r="3" fill="#4e79a7"/><circle cx="785.6" cy="228.6" r="3" fill="#4e79a7"/><circle cx="800.0" cy="228.6" r="3" fill="#4e79a7"/>
  <circle cx="52.0" cy="232.0" r="3" fill="#f28e2b"/><circle cx="66.4" cy="232.0" r="3" fill="#f28e2b"/><circle cx="80.8" cy="232.0" r="3" fill="#f28e2b"/><circle cx="95.2" cy="232.0" r="3" fill="#f28e2b"/><circle cx="109.5" cy="232.0" r="3" fill="#f28e2b"/><circle cx="123.9" cy="232.0" r="3" fill="#f28e2b"/><circle cx="138.3" cy="194.3" r="3" fill="#f28e2b"/><circle cx="152.7" cy="113.7" r="3" fill="#f28e2b"/><circle cx="167.1" cy="206.3" r="3" fill="#f28e2b"/><circle cx="181.5" cy="206.3" r="3" fill="#f28e2b"/><circle cx="195.8" cy="230.3" r="3" fill="#f28e2b"/><circle cx="210.2" cy="228.6" r="3" fill="#f28e2b"/><circle cx="224.6" cy="228.6" r="3" fill="#f28e2b"/><circle cx="239.0" cy="232.0" r="3" fill="#f28e2b"/><circle cx="253.4" cy="230.3" r="3" fill="#f28e2b"/><circle cx="267.8" cy="230.3" r="3" fill="#f28e2b"/><circle cx="282.2" cy="232.0" r="3" fill="#f28e2b"/><circle cx="296.5" cy="232.0" r="3" fill="#f28e2b"/><circle cx="310.9" cy="221.7" r="3" fill="#f28e2b"/><circle cx="325.3" cy="216.6" r="3" fill="#f28e2b"/><circle cx="339.7" cy="221.7" r="3" fill="#f28e2b"/><circle cx="354.1" cy="230.3" r="3" fill="#f28e2b"/><circle cx="368.5" cy="232.0" r="3" fill="#f28e2b"/><circle cx="382.8" cy="232.0" r="3" fill="#f28e2b"/><circle cx="397.2" cy="230.3" r="3" fill="#f28e2b"/><circle cx="411.6" cy="230.3" r="3" fill="#f28e2b"/><circle cx="426.0" cy="230.3" r="3" fill="#f28e2b"/><circle cx="440.4" cy="232.0" r="3" fill="#f28e2b"/><circle cx="454.8" cy="230.3" r="3" fill="#f28e2b"/><circle cx="469.2" cy="230.3" r="3" fill="#f28e2b"/><circle cx="483.5" cy="230.3" r="3" fill="#f28e2b"/><circle cx="497.9" cy="232.0" r="3" fill="#f28e2b"/><circle cx="512.3" cy="232.0" r="3" fill="#f28e2b"/><circle cx="526.7" cy="232.0" r="3" fill="#f28e2b"/><circle cx="541.1" cy="232.0" r="3" fill="#f28e2b"/><circle cx="555.5" cy="230.3" r="3" fill="#f28e2b"/><circle cx="569.8" cy="232.0" r="3" fill="#f28e2b"/><circle cx="584.2" cy="232.0" r="3" fill="#f28e2b"/><circle cx="598.6" cy="201.1" r="3" fill="#f28e2b"/><circle cx="613.0" cy="220.0" r="3" fill="#f28e2b"/><circle cx="627.4" cy="228.6" r="3" fill="#f28e2b"/><circle cx="641.8" cy="228.6" r="3" fill="#f28e2b"/><circle cx="656.2" cy="232.0" r="3" fill="#f28e2b"/><circle cx="670.5" cy="232.0" r="3" fill="#f28e2b"/><circle cx="684.9" cy="228.6" r="3" fill="#f28e2b"/><circle cx="699.3" cy="232.0" r="3" fill="#f28e2b"/><circle cx="713.7" cy="228.6" r="3" fill="#f28e2b"/><circle cx="728.1" cy="232.0" r="3" fill="#f28e2b"/><circle cx="742.5" cy="230.3" r="3" fill="#f28e2b"/><circle cx="756.8" cy="230.3" r="3" fill="#f28e2b"/><circle cx="771.2" cy="230.3" r="3" fill="#f28e2b"/><circle cx="785.6" cy="228.6" r="3" fill="#f28e2b"/><circle cx="800.0" cy="228.6" r="3" fill="#f28e2b"/>

  <!-- axes -->
  <line x1="52" y1="28" x2="52" y2="232"
        stroke="#cccccc" stroke-width="1"/>
  <line x1="52" y1="232" x2="800" y2="232"
        stroke="#cccccc" stroke-width="1"/>

  <!-- y-axis labels -->
  <text x="47" y="236.0" text-anchor="end" font-size="10" fill="#57606a" font-family="ui-monospace, SFMono-Regular, 'SF Mono', Menlo, monospace">0</text><text x="47" y="201.7" text-anchor="end" font-size="10" fill="#57606a" font-family="ui-monospace, SFMono-Regular, 'SF Mono', Menlo, monospace">20</text><text x="47" y="167.4" text-anchor="end" font-size="10" fill="#57606a" font-family="ui-monospace, SFMono-Regular, 'SF Mono', Menlo, monospace">40</text><text x="47" y="133.1" text-anchor="end" font-size="10" fill="#57606a" font-family="ui-monospace, SFMono-Regular, 'SF Mono', Menlo, monospace">60</text><text x="47" y="98.9" text-anchor="end" font-size="10" fill="#57606a" font-family="ui-monospace, SFMono-Regular, 'SF Mono', Menlo, monospace">80</text><text x="47" y="64.6" text-anchor="end" font-size="10" fill="#57606a" font-family="ui-monospace, SFMono-Regular, 'SF Mono', Menlo, monospace">100</text><text x="47" y="30.3" text-anchor="end" font-size="10" fill="#57606a" font-family="ui-monospace, SFMono-Regular, 'SF Mono', Menlo, monospace">120</text>

  <!-- x-axis labels -->
  <text x="52.0" y="248" text-anchor="middle" font-size="10" fill="#8c959f" font-family="ui-monospace, SFMono-Regular, 'SF Mono', Menlo, monospace">05-11</text><text x="569.8" y="248" text-anchor="middle" font-size="10" fill="#8c959f" font-family="ui-monospace, SFMono-Regular, 'SF Mono', Menlo, monospace">06-16</text><text x="138.3" y="248" text-anchor="middle" font-size="10" fill="#8c959f" font-family="ui-monospace, SFMono-Regular, 'SF Mono', Menlo, monospace">05-17</text><text x="656.2" y="248" text-anchor="middle" font-size="10" fill="#8c959f" font-family="ui-monospace, SFMono-Regular, 'SF Mono', Menlo, monospace">06-22</text><text x="224.6" y="248" text-anchor="middle" font-size="10" fill="#8c959f" font-family="ui-monospace, SFMono-Regular, 'SF Mono', Menlo, monospace">05-23</text><text x="742.5" y="248" text-anchor="middle" font-size="10" fill="#8c959f" font-family="ui-monospace, SFMono-Regular, 'SF Mono', Menlo, monospace">06-28</text><text x="310.9" y="248" text-anchor="middle" font-size="10" fill="#8c959f" font-family="ui-monospace, SFMono-Regular, 'SF Mono', Menlo, monospace">05-29</text><text x="800.0" y="248" text-anchor="middle" font-size="10" fill="#8c959f" font-family="ui-monospace, SFMono-Regular, 'SF Mono', Menlo, monospace">07-02</text><text x="397.2" y="248" text-anchor="middle" font-size="10" fill="#8c959f" font-family="ui-monospace, SFMono-Regular, 'SF Mono', Menlo, monospace">06-04</text><text x="483.5" y="248" text-anchor="middle" font-size="10" fill="#8c959f" font-family="ui-monospace, SFMono-Regular, 'SF Mono', Menlo, monospace">06-10</text>

  <!-- legend -->
  <rect x="60" y="262" width="16" height="3" fill="#4e79a7" rx="1"/><text x="80" y="268" font-size="11" fill="#57606a" font-family="-apple-system, BlinkMacSystemFont, 'Segoe UI', sans-serif">Total clones (307)</text><line x1="230" y1="264" x2="246" y2="264" stroke="#f28e2b" stroke-width="2" stroke-dasharray="5,3"/><text x="250" y="268" font-size="11" fill="#57606a" font-family="-apple-system, BlinkMacSystemFont, 'Segoe UI', sans-serif">Unique cloners</text>

</svg>