<svg xmlns="http://www.w3.org/2000/svg" viewBox="0 0 820 280" width="820" height="280">

  <!-- title -->
  <text x="52" y="18" font-size="13" font-weight="600"
        fill="#24292f" font-family="-apple-system, BlinkMacSystemFont, 'Segoe UI', sans-serif"
        >Clone traffic — scancontext</text>
  <text x="800" y="18" font-size="10" fill="#8c959f"
        font-family="ui-monospace, SFMono-Regular, 'SF Mono', Menlo, monospace" text-anchor="end">2026-06-19</text>

  <!-- grid -->
  <line x1="52" y1="232.0" x2="800" y2="232.0" stroke="#e8e8e8" stroke-width="1"/><line x1="52" y1="197.7" x2="800" y2="197.7" stroke="#e8e8e8" stroke-width="1"/><line x1="52" y1="163.4" x2="800" y2="163.4" stroke="#e8e8e8" stroke-width="1"/><line x1="52" y1="129.1" x2="800" y2="129.1" stroke="#e8e8e8" stroke-width="1"/><line x1="52" y1="94.9" x2="800" y2="94.9" stroke="#e8e8e8" stroke-width="1"/><line x1="52" y1="60.6" x2="800" y2="60.6" stroke="#e8e8e8" stroke-width="1"/><line x1="52" y1="26.3" x2="800" y2="26.3" stroke="#e8e8e8" stroke-width="1"/>

  <!-- area fill -->
  <path d="M52.0,232.0 L52.0,232.0 L72.2,232.0 L92.4,232.0 L112.6,232.0 L132.9,232.0 L153.1,232.0 L173.3,172.0 L193.5,28.0 L213.7,202.9 L233.9,187.4 L254.2,230.3 L274.4,228.6 L294.6,228.6 L314.8,232.0 L335.0,225.1 L355.2,230.3 L375.5,232.0 L395.7,232.0 L415.9,221.7 L436.1,208.0 L456.3,220.0 L476.5,230.3 L496.8,232.0 L517.0,232.0 L537.2,230.3 L557.4,230.3 L577.6,230.3 L597.8,232.0 L618.1,228.6 L638.3,230.3 L658.5,230.3 L678.7,232.0 L698.9,232.0 L719.1,232.0 L739.4,232.0 L759.6,230.3 L779.8,232.0 L800.0,232.0 L800.0,232.0 L52.0,232.0Z" fill="#4e79a7" opacity="0.12"/>

  <!-- lines -->
  <polyline points="52.0,232.0 72.2,232.0 92.4,232.0 112.6,232.0 132.9,232.0 153.1,232.0 173.3,172.0 193.5,28.0 213.7,202.9 233.9,187.4 254.2,230.3 274.4,228.6 294.6,228.6 314.8,232.0 335.0,225.1 355.2,230.3 375.5,232.0 395.7,232.0 415.9,221.7 436.1,208.0 456.3,220.0 476.5,230.3 496.8,232.0 517.0,232.0 537.2,230.3 557.4,230.3 577.6,230.3 597.8,232.0 618.1,228.6 638.3,230.3 658.5,230.3 678.7,232.0 698.9,232.0 719.1,232.0 739.4,232.0 759.6,230.3 779.8,232.0 800.0,232.0"
            fill="none" stroke="#4e79a7"
            stroke-width="2" stroke-linejoin="round"/>
  <polyline points="52.0,232.0 72.2,232.0 92.4,232.0 112.6,232.0 132.9,232.0 153.1,232.0 173.3,194.3 193.5,113.7 213.7,206.3 233.9,206.3 254.2,230.3 274.4,228.6 294.6,228.6 314.8,232.0 335.0,230.3 355.2,230.3 375.5,232.0 395.7,232.0 415.9,221.7 436.1,216.6 456.3,221.7 476.5,230.3 496.8,232.0 517.0,232.0 537.2,230.3 557.4,230.3 577.6,230.3 597.8,232.0 618.1,230.3 638.3,230.3 658.5,230.3 678.7,232.0 698.9,232.0 719.1,232.0 739.4,232.0 759.6,230.3 779.8,232.0 800.0,232.0"
            fill="none" stroke="#f28e2b"
            stroke-width="2" stroke-linejoin="round"
            stroke-dasharray="5,3"/>

  <!-- dots -->
  <circle cx="52.0" cy="232.0" r="3" fill="#4e79a7"/><circle cx="72.2" cy="232.0" r="3" fill="#4e79a7"/><circle cx="92.4" cy="232.0" r="3" fill="#4e79a7"/><circle cx="112.6" cy="232.0" r="3" fill="#4e79a7"/><circle cx="132.9" cy="232.0" r="3" fill="#4e79a7"/><circle cx="153.1" cy="232.0" r="3" fill="#4e79a7"/><circle cx="173.3" cy="172.0" r="3" fill="#4e79a7"/><circle cx="193.5" cy="28.0" r="3" fill="#4e79a7"/><circle cx="213.7" cy="202.9" r="3" fill="#4e79a7"/><circle cx="233.9" cy="187.4" r="3" fill="#4e79a7"/><circle cx="254.2" cy="230.3" r="3" fill="#4e79a7"/><circle cx="274.4" cy="228.6" r="3" fill="#4e79a7"/><circle cx="294.6" cy="228.6" r="3" fill="#4e79a7"/><circle cx="314.8" cy="232.0" r="3" fill="#4e79a7"/><circle cx="335.0" cy="225.1" r="3" fill="#4e79a7"/><circle cx="355.2" cy="230.3" r="3" fill="#4e79a7"/><circle cx="375.5" cy="232.0" r="3" fill="#4e79a7"/><circle cx="395.7" cy="232.0" r="3" fill="#4e79a7"/><circle cx="415.9" cy="221.7" r="3" fill="#4e79a7"/><circle cx="436.1" cy="208.0" r="3" fill="#4e79a7"/><circle cx="456.3" cy="220.0" r="3" fill="#4e79a7"/><circle cx="476.5" cy="230.3" r="3" fill="#4e79a7"/><circle cx="496.8" cy="232.0" r="3" fill="#4e79a7"/><circle cx="517.0" cy="232.0" r="3" fill="#4e79a7"/><circle cx="537.2" cy="230.3" r="3" fill="#4e79a7"/><circle cx="557.4" cy="230.3" r="3" fill="#4e79a7"/><circle cx="577.6" cy="230.3" r="3" fill="#4e79a7"/><circle cx="597.8" cy="232.0" r="3" fill="#4e79a7"/><circle cx="618.1" cy="228.6" r="3" fill="#4e79a7"/><circle cx="638.3" cy="230.3" r="3" fill="#4e79a7"/><circle cx="658.5" cy="230.3" r="3" fill="#4e79a7"/><circle cx="678.7" cy="232.0" r="3" fill="#4e79a7"/><circle cx="698.9" cy="232.0" r="3" fill="#4e79a7"/><circle cx="719.1" cy="232.0" r="3" fill="#4e79a7"/><circle cx="739.4" cy="232.0" r="3" fill="#4e79a7"/><circle cx="759.6" cy="230.3" r="3" fill="#4e79a7"/><circle cx="779.8" cy="232.0" r="3" fill="#4e79a7"/><circle cx="800.0" cy="232.0" r="3" fill="#4e79a7"/>
  <circle cx="52.0" cy="232.0" r="3" fill="#f28e2b"/><circle cx="72.2" cy="232.0" r="3" fill="#f28e2b"/><circle cx="92.4" cy="232.0" r="3" fill="#f28e2b"/><circle cx="112.6" cy="232.0" r="3" fill="#f28e2b"/><circle cx="132.9" cy="232.0" r="3" fill="#f28e2b"/><circle cx="153.1" cy="232.0" r="3" fill="#f28e2b"/><circle cx="173.3" cy="194.3" r="3" fill="#f28e2b"/><circle cx="193.5" cy="113.7" r="3" fill="#f28e2b"/><circle cx="213.7" cy="206.3" r="3" fill="#f28e2b"/><circle cx="233.9" cy="206.3" r="3" fill="#f28e2b"/><circle cx="254.2" cy="230.3" r="3" fill="#f28e2b"/><circle cx="274.4" cy="228.6" r="3" fill="#f28e2b"/><circle cx="294.6" cy="228.6" r="3" fill="#f28e2b"/><circle cx="314.8" cy="232.0" r="3" fill="#f28e2b"/><circle cx="335.0" cy="230.3" r="3" fill="#f28e2b"/><circle cx="355.2" cy="230.3" r="3" fill="#f28e2b"/><circle cx="375.5" cy="232.0" r="3" fill="#f28e2b"/><circle cx="395.7" cy="232.0" r="3" fill="#f28e2b"/><circle cx="415.9" cy="221.7" r="3" fill="#f28e2b"/><circle cx="436.1" cy="216.6" r="3" fill="#f28e2b"/><circle cx="456.3" cy="221.7" r="3" fill="#f28e2b"/><circle cx="476.5" cy="230.3" r="3" fill="#f28e2b"/><circle cx="496.8" cy="232.0" r="3" fill="#f28e2b"/><circle cx="517.0" cy="232.0" r="3" fill="#f28e2b"/><circle cx="537.2" cy="230.3" r="3" fill="#f28e2b"/><circle cx="557.4" cy="230.3" r="3" fill="#f28e2b"/><circle cx="577.6" cy="230.3" r="3" fill="#f28e2b"/><circle cx="597.8" cy="232.0" r="3" fill="#f28e2b"/><circle cx="618.1" cy="230.3" r="3" fill="#f28e2b"/><circle cx="638.3" cy="230.3" r="3" fill="#f28e2b"/><circle cx="658.5" cy="230.3" r="3" fill="#f28e2b"/><circle cx="678.7" cy="232.0" r="3" fill="#f28e2b"/><circle cx="698.9" cy="232.0" r="3" fill="#f28e2b"/><circle cx="719.1" cy="232.0" r="3" fill="#f28e2b"/><circle cx="739.4" cy="232.0" r="3" fill="#f28e2b"/><circle cx="759.6" cy="230.3" r="3" fill="#f28e2b"/><circle cx="779.8" cy="232.0" r="3" fill="#f28e2b"/><circle cx="800.0" cy="232.0" r="3" fill="#f28e2b"/>

  <!-- axes -->
  <line x1="52" y1="28" x2="52" y2="232"
        stroke="#cccccc" stroke-width="1"/>
  <line x1="52" y1="232" x2="800" y2="232"
        stroke="#cccccc" stroke-width="1"/>

  <!-- y-axis labels -->
  <text x="47" y="236.0" text-anchor="end" font-size="10" fill="#57606a" font-family="ui-monospace, SFMono-Regular, 'SF Mono', Menlo, monospace">0</text><text x="47" y="201.7" text-anchor="end" font-size="10" fill="#57606a" font-family="ui-monospace, SFMono-Regular, 'SF Mono', Menlo, monospace">20</text><text x="47" y="167.4" text-anchor="end" font-size="10" fill="#57606a" font-family="ui-monospace, SFMono-Regular, 'SF Mono', Menlo, monospace">40</text><text x="47" y="133.1" text-anchor="end" font-size="10" fill="#57606a" font-family="ui-monospace, SFMono-Regular, 'SF Mono', Menlo, monospace">60</text><text x="47" y="98.9" text-anchor="end" font-size="10" fill="#57606a" font-family="ui-monospace, SFMono-Regular, 'SF Mono', Menlo, monospace">80</text><text x="47" y="64.6" text-anchor="end" font-size="10" fill="#57606a" font-family="ui-monospace, SFMono-Regular, 'SF Mono', Menlo, monospace">100</text><text x="47" y="30.3" text-anchor="end" font-size="10" fill="#57606a" font-family="ui-monospace, SFMono-Regular, 'SF Mono', Menlo, monospace">120</text>

  <!-- x-axis labels -->
  <text x="52.0" y="248" text-anchor="middle" font-size="10" fill="#8c959f" font-family="ui-monospace, SFMono-Regular, 'SF Mono', Menlo, monospace">05-11</text><text x="698.9" y="248" text-anchor="middle" font-size="10" fill="#8c959f" font-family="ui-monospace, SFMono-Regular, 'SF Mono', Menlo, monospace">06-12</text><text x="132.9" y="248" text-anchor="middle" font-size="10" fill="#8c959f" font-family="ui-monospace, SFMono-Regular, 'SF Mono', Menlo, monospace">05-15</text><text x="779.8" y="248" text-anchor="middle" font-size="10" fill="#8c959f" font-family="ui-monospace, SFMono-Regular, 'SF Mono', Menlo, monospace">06-16</text><text x="800.0" y="248" text-anchor="middle" font-size="10" fill="#8c959f" font-family="ui-monospace, SFMono-Regular, 'SF Mono', Menlo, monospace">06-17</text><text x="213.7" y="248" text-anchor="middle" font-size="10" fill="#8c959f" font-family="ui-monospace, SFMono-Regular, 'SF Mono', Menlo, monospace">05-19</text><text x="294.6" y="248" text-anchor="middle" font-size="10" fill="#8c959f" font-family="ui-monospace, SFMono-Regular, 'SF Mono', Menlo, monospace">05-23</text><text x="375.5" y="248" text-anchor="middle" font-size="10" fill="#8c959f" font-family="ui-monospace, SFMono-Regular, 'SF Mono', Menlo, monospace">05-27</text><text x="456.3" y="248" text-anchor="middle" font-size="10" fill="#8c959f" font-family="ui-monospace, SFMono-Regular, 'SF Mono', Menlo, monospace">05-31</text><text x="537.2" y="248" text-anchor="middle" font-size="10" fill="#8c959f" font-family="ui-monospace, SFMono-Regular, 'SF Mono', Menlo, monospace">06-04</text><text x="618.1" y="248" text-anchor="middle" font-size="10" fill="#8c959f" font-family="ui-monospace, SFMono-Regular, 'SF Mono', Menlo, monospace">06-08</text>

  <!-- legend -->
  <rect x="60" y="262" width="16" height="3" fill="#4e79a7" rx="1"/><text x="80" y="268" font-size="11" fill="#57606a" font-family="-apple-system, BlinkMacSystemFont, 'Segoe UI', sans-serif">Total clones (243)</text><line x1="230" y1="264" x2="246" y2="264" stroke="#f28e2b" stroke-width="2" stroke-dasharray="5,3"/><text x="250" y="268" font-size="11" fill="#57606a" font-family="-apple-system, BlinkMacSystemFont, 'Segoe UI', sans-serif">Unique cloners</text>

</svg>