<svg xmlns="http://www.w3.org/2000/svg" viewBox="0 0 820 280" width="820" height="280">

  <!-- title -->
  <text x="52" y="18" font-size="13" font-weight="600"
        fill="#24292f" font-family="-apple-system, BlinkMacSystemFont, 'Segoe UI', sans-serif"
        >Clone traffic — scancontext</text>
  <text x="800" y="18" font-size="10" fill="#8c959f"
        font-family="ui-monospace, SFMono-Regular, 'SF Mono', Menlo, monospace" text-anchor="end">2026-07-02</text>

  <!-- grid -->
  <line x1="52" y1="232.0" x2="800" y2="232.0" stroke="#e8e8e8" stroke-width="1"/><line x1="52" y1="197.7" x2="800" y2="197.7" stroke="#e8e8e8" stroke-width="1"/><line x1="52" y1="163.4" x2="800" y2="163.4" stroke="#e8e8e8" stroke-width="1"/><line x1="52" y1="129.1" x2="800" y2="129.1" stroke="#e8e8e8" stroke-width="1"/><line x1="52" y1="94.9" x2="800" y2="94.9" stroke="#e8e8e8" stroke-width="1"/><line x1="52" y1="60.6" x2="800" y2="60.6" stroke="#e8e8e8" stroke-width="1"/><line x1="52" y1="26.3" x2="800" y2="26.3" stroke="#e8e8e8" stroke-width="1"/>

  <!-- area fill -->
  <path d="M52.0,232.0 L52.0,232.0 L67.0,232.0 L81.9,232.0 L96.9,232.0 L111.8,232.0 L126.8,232.0 L141.8,172.0 L156.7,28.0 L171.7,202.9 L186.6,187.4 L201.6,230.3 L216.6,228.6 L231.5,228.6 L246.5,232.0 L261.4,225.1 L276.4,230.3 L291.4,232.0 L306.3,232.0 L321.3,221.7 L336.2,208.0 L351.2,220.0 L366.2,230.3 L381.1,232.0 L396.1,232.0 L411.0,230.3 L426.0,230.3 L441.0,230.3 L455.9,232.0 L470.9,228.6 L485.8,230.3 L500.8,230.3 L515.8,232.0 L530.7,232.0 L545.7,232.0 L560.6,232.0 L575.6,230.3 L590.6,232.0 L605.5,232.0 L620.5,187.4 L635.4,204.6 L650.4,216.6 L665.4,228.6 L680.3,232.0 L695.3,232.0 L710.2,228.6 L725.2,232.0 L740.2,228.6 L755.1,232.0 L770.1,230.3 L785.0,230.3 L800.0,230.3 L800.0,232.0 L52.0,232.0Z" fill="#4e79a7" opacity="0.12"/>

  <!-- lines -->
  <polyline points="52.0,232.0 67.0,232.0 81.9,232.0 96.9,232.0 111.8,232.0 126.8,232.0 141.8,172.0 156.7,28.0 171.7,202.9 186.6,187.4 201.6,230.3 216.6,228.6 231.5,228.6 246.5,232.0 261.4,225.1 276.4,230.3 291.4,232.0 306.3,232.0 321.3,221.7 336.2,208.0 351.2,220.0 366.2,230.3 381.1,232.0 396.1,232.0 411.0,230.3 426.0,230.3 441.0,230.3 455.9,232.0 470.9,228.6 485.8,230.3 500.8,230.3 515.8,232.0 530.7,232.0 545.7,232.0 560.6,232.0 575.6,230.3 590.6,232.0 605.5,232.0 620.5,187.4 635.4,204.6 650.4,216.6 665.4,228.6 680.3,232.0 695.3,232.0 710.2,228.6 725.2,232.0 740.2,228.6 755.1,232.0 770.1,230.3 785.0,230.3 800.0,230.3"
            fill="none" stroke="#4e79a7"
            stroke-width="2" stroke-linejoin="round"/>
  <polyline points="52.0,232.0 67.0,232.0 81.9,232.0 96.9,232.0 111.8,232.0 126.8,232.0 141.8,194.3 156.7,113.7 171.7,206.3 186.6,206.3 201.6,230.3 216.6,228.6 231.5,228.6 246.5,232.0 261.4,230.3 276.4,230.3 291.4,232.0 306.3,232.0 321.3,221.7 336.2,216.6 351.2,221.7 366.2,230.3 381.1,232.0 396.1,232.0 411.0,230.3 426.0,230.3 441.0,230.3 455.9,232.0 470.9,230.3 485.8,230.3 500.8,230.3 515.8,232.0 530.7,232.0 545.7,232.0 560.6,232.0 575.6,230.3 590.6,232.0 605.5,232.0 620.5,201.1 635.4,220.0 650.4,228.6 665.4,228.6 680.3,232.0 695.3,232.0 710.2,228.6 725.2,232.0 740.2,228.6 755.1,232.0 770.1,230.3 785.0,230.3 800.0,230.3"
            fill="none" stroke="#f28e2b"
            stroke-width="2" stroke-linejoin="round"
            stroke-dasharray="5,3"/>

  <!-- dots -->
  <circle cx="52.0" cy="232.0" r="3" fill="#4e79a7"/><circle cx="67.0" cy="232.0" r="3" fill="#4e79a7"/><circle cx="81.9" cy="232.0" r="3" fill="#4e79a7"/><circle cx="96.9" cy="232.0" r="3" fill="#4e79a7"/><circle cx="111.8" cy="232.0" r="3" fill="#4e79a7"/><circle cx="126.8" cy="232.0" r="3" fill="#4e79a7"/><circle cx="141.8" cy="172.0" r="3" fill="#4e79a7"/><circle cx="156.7" cy="28.0" r="3" fill="#4e79a7"/><circle cx="171.7" cy="202.9" r="3" fill="#4e79a7"/><circle cx="186.6" cy="187.4" r="3" fill="#4e79a7"/><circle cx="201.6" cy="230.3" r="3" fill="#4e79a7"/><circle cx="216.6" cy="228.6" r="3" fill="#4e79a7"/><circle cx="231.5" cy="228.6" r="3" fill="#4e79a7"/><circle cx="246.5" cy="232.0" r="3" fill="#4e79a7"/><circle cx="261.4" cy="225.1" r="3" fill="#4e79a7"/><circle cx="276.4" cy="230.3" r="3" fill="#4e79a7"/><circle cx="291.4" cy="232.0" r="3" fill="#4e79a7"/><circle cx="306.3" cy="232.0" r="3" fill="#4e79a7"/><circle cx="321.3" cy="221.7" r="3" fill="#4e79a7"/><circle cx="336.2" cy="208.0" r="3" fill="#4e79a7"/><circle cx="351.2" cy="220.0" r="3" fill="#4e79a7"/><circle cx="366.2" cy="230.3" r="3" fill="#4e79a7"/><circle cx="381.1" cy="232.0" r="3" fill="#4e79a7"/><circle cx="396.1" cy="232.0" r="3" fill="#4e79a7"/><circle cx="411.0" cy="230.3" r="3" fill="#4e79a7"/><circle cx="426.0" cy="230.3" r="3" fill="#4e79a7"/><circle cx="441.0" cy="230.3" r="3" fill="#4e79a7"/><circle cx="455.9" cy="232.0" r="3" fill="#4e79a7"/><circle cx="470.9" cy="228.6" r="3" fill="#4e79a7"/><circle cx="485.8" cy="230.3" r="3" fill="#4e79a7"/><circle cx="500.8" cy="230.3" r="3" fill="#4e79a7"/><circle cx="515.8" cy="232.0" r="3" fill="#4e79a7"/><circle cx="530.7" cy="232.0" r="3" fill="#4e79a7"/><circle cx="545.7" cy="232.0" r="3" fill="#4e79a7"/><circle cx="560.6" cy="232.0" r="3" fill="#4e79a7"/><circle cx="575.6" cy="230.3" r="3" fill="#4e79a7"/><circle cx="590.6" cy="232.0" r="3" fill="#4e79a7"/><circle cx="605.5" cy="232.0" r="3" fill="#4e79a7"/><circle cx="620.5" cy="187.4" r="3" fill="#4e79a7"/><circle cx="635.4" cy="204.6" r="3" fill="#4e79a7"/><circle cx="650.4" cy="216.6" r="3" fill="#4e79a7"/><circle cx="665.4" cy="228.6" r="3" fill="#4e79a7"/><circle cx="680.3" cy="232.0" r="3" fill="#4e79a7"/><circle cx="695.3" cy="232.0" r="3" fill="#4e79a7"/><circle cx="710.2" cy="228.6" r="3" fill="#4e79a7"/><circle cx="725.2" cy="232.0" r="3" fill="#4e79a7"/><circle cx="740.2" cy="228.6" r="3" fill="#4e79a7"/><circle cx="755.1" cy="232.0" r="3" fill="#4e79a7"/><circle cx="770.1" cy="230.3" r="3" fill="#4e79a7"/><circle cx="785.0" cy="230.3" r="3" fill="#4e79a7"/><circle cx="800.0" cy="230.3" r="3" fill="#4e79a7"/>
  <circle cx="52.0" cy="232.0" r="3" fill="#f28e2b"/><circle cx="67.0" cy="232.0" r="3" fill="#f28e2b"/><circle cx="81.9" cy="232.0" r="3" fill="#f28e2b"/><circle cx="96.9" cy="232.0" r="3" fill="#f28e2b"/><circle cx="111.8" cy="232.0" r="3" fill="#f28e2b"/><circle cx="126.8" cy="232.0" r="3" fill="#f28e2b"/><circle cx="141.8" cy="194.3" r="3" fill="#f28e2b"/><circle cx="156.7" cy="113.7" r="3" fill="#f28e2b"/><circle cx="171.7" cy="206.3" r="3" fill="#f28e2b"/><circle cx="186.6" cy="206.3" r="3" fill="#f28e2b"/><circle cx="201.6" cy="230.3" r="3" fill="#f28e2b"/><circle cx="216.6" cy="228.6" r="3" fill="#f28e2b"/><circle cx="231.5" cy="228.6" r="3" fill="#f28e2b"/><circle cx="246.5" cy="232.0" r="3" fill="#f28e2b"/><circle cx="261.4" cy="230.3" r="3" fill="#f28e2b"/><circle cx="276.4" cy="230.3" r="3" fill="#f28e2b"/><circle cx="291.4" cy="232.0" r="3" fill="#f28e2b"/><circle cx="306.3" cy="232.0" r="3" fill="#f28e2b"/><circle cx="321.3" cy="221.7" r="3" fill="#f28e2b"/><circle cx="336.2" cy="216.6" r="3" fill="#f28e2b"/><circle cx="351.2" cy="221.7" r="3" fill="#f28e2b"/><circle cx="366.2" cy="230.3" r="3" fill="#f28e2b"/><circle cx="381.1" cy="232.0" r="3" fill="#f28e2b"/><circle cx="396.1" cy="232.0" r="3" fill="#f28e2b"/><circle cx="411.0" cy="230.3" r="3" fill="#f28e2b"/><circle cx="426.0" cy="230.3" r="3" fill="#f28e2b"/><circle cx="441.0" cy="230.3" r="3" fill="#f28e2b"/><circle cx="455.9" cy="232.0" r="3" fill="#f28e2b"/><circle cx="470.9" cy="230.3" r="3" fill="#f28e2b"/><circle cx="485.8" cy="230.3" r="3" fill="#f28e2b"/><circle cx="500.8" cy="230.3" r="3" fill="#f28e2b"/><circle cx="515.8" cy="232.0" r="3" fill="#f28e2b"/><circle cx="530.7" cy="232.0" r="3" fill="#f28e2b"/><circle cx="545.7" cy="232.0" r="3" fill="#f28e2b"/><circle cx="560.6" cy="232.0" r="3" fill="#f28e2b"/><circle cx="575.6" cy="230.3" r="3" fill="#f28e2b"/><circle cx="590.6" cy="232.0" r="3" fill="#f28e2b"/><circle cx="605.5" cy="232.0" r="3" fill="#f28e2b"/><circle cx="620.5" cy="201.1" r="3" fill="#f28e2b"/><circle cx="635.4" cy="220.0" r="3" fill="#f28e2b"/><circle cx="650.4" cy="228.6" r="3" fill="#f28e2b"/><circle cx="665.4" cy="228.6" r="3" fill="#f28e2b"/><circle cx="680.3" cy="232.0" r="3" fill="#f28e2b"/><circle cx="695.3" cy="232.0" r="3" fill="#f28e2b"/><circle cx="710.2" cy="228.6" r="3" fill="#f28e2b"/><circle cx="725.2" cy="232.0" r="3" fill="#f28e2b"/><circle cx="740.2" cy="228.6" r="3" fill="#f28e2b"/><circle cx="755.1" cy="232.0" r="3" fill="#f28e2b"/><circle cx="770.1" cy="230.3" r="3" fill="#f28e2b"/><circle cx="785.0" cy="230.3" r="3" fill="#f28e2b"/><circle cx="800.0" cy="230.3" r="3" fill="#f28e2b"/>

  <!-- axes -->
  <line x1="52" y1="28" x2="52" y2="232"
        stroke="#cccccc" stroke-width="1"/>
  <line x1="52" y1="232" x2="800" y2="232"
        stroke="#cccccc" stroke-width="1"/>

  <!-- y-axis labels -->
  <text x="47" y="236.0" text-anchor="end" font-size="10" fill="#57606a" font-family="ui-monospace, SFMono-Regular, 'SF Mono', Menlo, monospace">0</text><text x="47" y="201.7" text-anchor="end" font-size="10" fill="#57606a" font-family="ui-monospace, SFMono-Regular, 'SF Mono', Menlo, monospace">20</text><text x="47" y="167.4" text-anchor="end" font-size="10" fill="#57606a" font-family="ui-monospace, SFMono-Regular, 'SF Mono', Menlo, monospace">40</text><text x="47" y="133.1" text-anchor="end" font-size="10" fill="#57606a" font-family="ui-monospace, SFMono-Regular, 'SF Mono', Menlo, monospace">60</text><text x="47" y="98.9" text-anchor="end" font-size="10" fill="#57606a" font-family="ui-monospace, SFMono-Regular, 'SF Mono', Menlo, monospace">80</text><text x="47" y="64.6" text-anchor="end" font-size="10" fill="#57606a" font-family="ui-monospace, SFMono-Regular, 'SF Mono', Menlo, monospace">100</text><text x="47" y="30.3" text-anchor="end" font-size="10" fill="#57606a" font-family="ui-monospace, SFMono-Regular, 'SF Mono', Menlo, monospace">120</text>

  <!-- x-axis labels -->
  <text x="52.0" y="248" text-anchor="middle" font-size="10" fill="#8c959f" font-family="ui-monospace, SFMono-Regular, 'SF Mono', Menlo, monospace">05-11</text><text x="590.6" y="248" text-anchor="middle" font-size="10" fill="#8c959f" font-family="ui-monospace, SFMono-Regular, 'SF Mono', Menlo, monospace">06-16</text><text x="141.8" y="248" text-anchor="middle" font-size="10" fill="#8c959f" font-family="ui-monospace, SFMono-Regular, 'SF Mono', Menlo, monospace">05-17</text><text x="680.3" y="248" text-anchor="middle" font-size="10" fill="#8c959f" font-family="ui-monospace, SFMono-Regular, 'SF Mono', Menlo, monospace">06-22</text><text x="231.5" y="248" text-anchor="middle" font-size="10" fill="#8c959f" font-family="ui-monospace, SFMono-Regular, 'SF Mono', Menlo, monospace">05-23</text><text x="770.1" y="248" text-anchor="middle" font-size="10" fill="#8c959f" font-family="ui-monospace, SFMono-Regular, 'SF Mono', Menlo, monospace">06-28</text><text x="321.3" y="248" text-anchor="middle" font-size="10" fill="#8c959f" font-family="ui-monospace, SFMono-Regular, 'SF Mono', Menlo, monospace">05-29</text><text x="800.0" y="248" text-anchor="middle" font-size="10" fill="#8c959f" font-family="ui-monospace, SFMono-Regular, 'SF Mono', Menlo, monospace">06-30</text><text x="411.0" y="248" text-anchor="middle" font-size="10" fill="#8c959f" font-family="ui-monospace, SFMono-Regular, 'SF Mono', Menlo, monospace">06-04</text><text x="500.8" y="248" text-anchor="middle" font-size="10" fill="#8c959f" font-family="ui-monospace, SFMono-Regular, 'SF Mono', Menlo, monospace">06-10</text>

  <!-- legend -->
  <rect x="60" y="262" width="16" height="3" fill="#4e79a7" rx="1"/><text x="80" y="268" font-size="11" fill="#57606a" font-family="-apple-system, BlinkMacSystemFont, 'Segoe UI', sans-serif">Total clones (303)</text><line x1="230" y1="264" x2="246" y2="264" stroke="#f28e2b" stroke-width="2" stroke-dasharray="5,3"/><text x="250" y="268" font-size="11" fill="#57606a" font-family="-apple-system, BlinkMacSystemFont, 'Segoe UI', sans-serif">Unique cloners</text>

</svg>