<svg xmlns="http://www.w3.org/2000/svg" viewBox="0 0 820 280" width="820" height="280">

  <!-- title -->
  <text x="52" y="18" font-size="13" font-weight="600"
        fill="#24292f" font-family="-apple-system, BlinkMacSystemFont, 'Segoe UI', sans-serif"
        >Clone traffic — scancontext</text>
  <text x="800" y="18" font-size="10" fill="#8c959f"
        font-family="ui-monospace, SFMono-Regular, 'SF Mono', Menlo, monospace" text-anchor="end">2026-06-30</text>

  <!-- grid -->
  <line x1="52" y1="232.0" x2="800" y2="232.0" stroke="#e8e8e8" stroke-width="1"/><line x1="52" y1="197.7" x2="800" y2="197.7" stroke="#e8e8e8" stroke-width="1"/><line x1="52" y1="163.4" x2="800" y2="163.4" stroke="#e8e8e8" stroke-width="1"/><line x1="52" y1="129.1" x2="800" y2="129.1" stroke="#e8e8e8" stroke-width="1"/><line x1="52" y1="94.9" x2="800" y2="94.9" stroke="#e8e8e8" stroke-width="1"/><line x1="52" y1="60.6" x2="800" y2="60.6" stroke="#e8e8e8" stroke-width="1"/><line x1="52" y1="26.3" x2="800" y2="26.3" stroke="#e8e8e8" stroke-width="1"/>

  <!-- area fill -->
  <path d="M52.0,232.0 L52.0,232.0 L67.6,232.0 L83.2,232.0 L98.8,232.0 L114.3,232.0 L129.9,232.0 L145.5,172.0 L161.1,28.0 L176.7,202.9 L192.2,187.4 L207.8,230.3 L223.4,228.6 L239.0,228.6 L254.6,232.0 L270.2,225.1 L285.8,230.3 L301.3,232.0 L316.9,232.0 L332.5,221.7 L348.1,208.0 L363.7,220.0 L379.2,230.3 L394.8,232.0 L410.4,232.0 L426.0,230.3 L441.6,230.3 L457.2,230.3 L472.8,232.0 L488.3,228.6 L503.9,230.3 L519.5,230.3 L535.1,232.0 L550.7,232.0 L566.2,232.0 L581.8,232.0 L597.4,230.3 L613.0,232.0 L628.6,232.0 L644.2,187.4 L659.8,204.6 L675.3,216.6 L690.9,228.6 L706.5,232.0 L722.1,232.0 L737.7,228.6 L753.2,232.0 L768.8,228.6 L784.4,232.0 L800.0,230.3 L800.0,232.0 L52.0,232.0Z" fill="#4e79a7" opacity="0.12"/>

  <!-- lines -->
  <polyline points="52.0,232.0 67.6,232.0 83.2,232.0 98.8,232.0 114.3,232.0 129.9,232.0 145.5,172.0 161.1,28.0 176.7,202.9 192.2,187.4 207.8,230.3 223.4,228.6 239.0,228.6 254.6,232.0 270.2,225.1 285.8,230.3 301.3,232.0 316.9,232.0 332.5,221.7 348.1,208.0 363.7,220.0 379.2,230.3 394.8,232.0 410.4,232.0 426.0,230.3 441.6,230.3 457.2,230.3 472.8,232.0 488.3,228.6 503.9,230.3 519.5,230.3 535.1,232.0 550.7,232.0 566.2,232.0 581.8,232.0 597.4,230.3 613.0,232.0 628.6,232.0 644.2,187.4 659.8,204.6 675.3,216.6 690.9,228.6 706.5,232.0 722.1,232.0 737.7,228.6 753.2,232.0 768.8,228.6 784.4,232.0 800.0,230.3"
            fill="none" stroke="#4e79a7"
            stroke-width="2" stroke-linejoin="round"/>
  <polyline points="52.0,232.0 67.6,232.0 83.2,232.0 98.8,232.0 114.3,232.0 129.9,232.0 145.5,194.3 161.1,113.7 176.7,206.3 192.2,206.3 207.8,230.3 223.4,228.6 239.0,228.6 254.6,232.0 270.2,230.3 285.8,230.3 301.3,232.0 316.9,232.0 332.5,221.7 348.1,216.6 363.7,221.7 379.2,230.3 394.8,232.0 410.4,232.0 426.0,230.3 441.6,230.3 457.2,230.3 472.8,232.0 488.3,230.3 503.9,230.3 519.5,230.3 535.1,232.0 550.7,232.0 566.2,232.0 581.8,232.0 597.4,230.3 613.0,232.0 628.6,232.0 644.2,201.1 659.8,220.0 675.3,228.6 690.9,228.6 706.5,232.0 722.1,232.0 737.7,228.6 753.2,232.0 768.8,228.6 784.4,232.0 800.0,230.3"
            fill="none" stroke="#f28e2b"
            stroke-width="2" stroke-linejoin="round"
            stroke-dasharray="5,3"/>

  <!-- dots -->
  <circle cx="52.0" cy="232.0" r="3" fill="#4e79a7"/><circle cx="67.6" cy="232.0" r="3" fill="#4e79a7"/><circle cx="83.2" cy="232.0" r="3" fill="#4e79a7"/><circle cx="98.8" cy="232.0" r="3" fill="#4e79a7"/><circle cx="114.3" cy="232.0" r="3" fill="#4e79a7"/><circle cx="129.9" cy="232.0" r="3" fill="#4e79a7"/><circle cx="145.5" cy="172.0" r="3" fill="#4e79a7"/><circle cx="161.1" cy="28.0" r="3" fill="#4e79a7"/><circle cx="176.7" cy="202.9" r="3" fill="#4e79a7"/><circle cx="192.2" cy="187.4" r="3" fill="#4e79a7"/><circle cx="207.8" cy="230.3" r="3" fill="#4e79a7"/><circle cx="223.4" cy="228.6" r="3" fill="#4e79a7"/><circle cx="239.0" cy="228.6" r="3" fill="#4e79a7"/><circle cx="254.6" cy="232.0" r="3" fill="#4e79a7"/><circle cx="270.2" cy="225.1" r="3" fill="#4e79a7"/><circle cx="285.8" cy="230.3" r="3" fill="#4e79a7"/><circle cx="301.3" cy="232.0" r="3" fill="#4e79a7"/><circle cx="316.9" cy="232.0" r="3" fill="#4e79a7"/><circle cx="332.5" cy="221.7" r="3" fill="#4e79a7"/><circle cx="348.1" cy="208.0" r="3" fill="#4e79a7"/><circle cx="363.7" cy="220.0" r="3" fill="#4e79a7"/><circle cx="379.2" cy="230.3" r="3" fill="#4e79a7"/><circle cx="394.8" cy="232.0" r="3" fill="#4e79a7"/><circle cx="410.4" cy="232.0" r="3" fill="#4e79a7"/><circle cx="426.0" cy="230.3" r="3" fill="#4e79a7"/><circle cx="441.6" cy="230.3" r="3" fill="#4e79a7"/><circle cx="457.2" cy="230.3" r="3" fill="#4e79a7"/><circle cx="472.8" cy="232.0" r="3" fill="#4e79a7"/><circle cx="488.3" cy="228.6" r="3" fill="#4e79a7"/><circle cx="503.9" cy="230.3" r="3" fill="#4e79a7"/><circle cx="519.5" cy="230.3" r="3" fill="#4e79a7"/><circle cx="535.1" cy="232.0" r="3" fill="#4e79a7"/><circle cx="550.7" cy="232.0" r="3" fill="#4e79a7"/><circle cx="566.2" cy="232.0" r="3" fill="#4e79a7"/><circle cx="581.8" cy="232.0" r="3" fill="#4e79a7"/><circle cx="597.4" cy="230.3" r="3" fill="#4e79a7"/><circle cx="613.0" cy="232.0" r="3" fill="#4e79a7"/><circle cx="628.6" cy="232.0" r="3" fill="#4e79a7"/><circle cx="644.2" cy="187.4" r="3" fill="#4e79a7"/><circle cx="659.8" cy="204.6" r="3" fill="#4e79a7"/><circle cx="675.3" cy="216.6" r="3" fill="#4e79a7"/><circle cx="690.9" cy="228.6" r="3" fill="#4e79a7"/><circle cx="706.5" cy="232.0" r="3" fill="#4e79a7"/><circle cx="722.1" cy="232.0" r="3" fill="#4e79a7"/><circle cx="737.7" cy="228.6" r="3" fill="#4e79a7"/><circle cx="753.2" cy="232.0" r="3" fill="#4e79a7"/><circle cx="768.8" cy="228.6" r="3" fill="#4e79a7"/><circle cx="784.4" cy="232.0" r="3" fill="#4e79a7"/><circle cx="800.0" cy="230.3" r="3" fill="#4e79a7"/>
  <circle cx="52.0" cy="232.0" r="3" fill="#f28e2b"/><circle cx="67.6" cy="232.0" r="3" fill="#f28e2b"/><circle cx="83.2" cy="232.0" r="3" fill="#f28e2b"/><circle cx="98.8" cy="232.0" r="3" fill="#f28e2b"/><circle cx="114.3" cy="232.0" r="3" fill="#f28e2b"/><circle cx="129.9" cy="232.0" r="3" fill="#f28e2b"/><circle cx="145.5" cy="194.3" r="3" fill="#f28e2b"/><circle cx="161.1" cy="113.7" r="3" fill="#f28e2b"/><circle cx="176.7" cy="206.3" r="3" fill="#f28e2b"/><circle cx="192.2" cy="206.3" r="3" fill="#f28e2b"/><circle cx="207.8" cy="230.3" r="3" fill="#f28e2b"/><circle cx="223.4" cy="228.6" r="3" fill="#f28e2b"/><circle cx="239.0" cy="228.6" r="3" fill="#f28e2b"/><circle cx="254.6" cy="232.0" r="3" fill="#f28e2b"/><circle cx="270.2" cy="230.3" r="3" fill="#f28e2b"/><circle cx="285.8" cy="230.3" r="3" fill="#f28e2b"/><circle cx="301.3" cy="232.0" r="3" fill="#f28e2b"/><circle cx="316.9" cy="232.0" r="3" fill="#f28e2b"/><circle cx="332.5" cy="221.7" r="3" fill="#f28e2b"/><circle cx="348.1" cy="216.6" r="3" fill="#f28e2b"/><circle cx="363.7" cy="221.7" r="3" fill="#f28e2b"/><circle cx="379.2" cy="230.3" r="3" fill="#f28e2b"/><circle cx="394.8" cy="232.0" r="3" fill="#f28e2b"/><circle cx="410.4" cy="232.0" r="3" fill="#f28e2b"/><circle cx="426.0" cy="230.3" r="3" fill="#f28e2b"/><circle cx="441.6" cy="230.3" r="3" fill="#f28e2b"/><circle cx="457.2" cy="230.3" r="3" fill="#f28e2b"/><circle cx="472.8" cy="232.0" r="3" fill="#f28e2b"/><circle cx="488.3" cy="230.3" r="3" fill="#f28e2b"/><circle cx="503.9" cy="230.3" r="3" fill="#f28e2b"/><circle cx="519.5" cy="230.3" r="3" fill="#f28e2b"/><circle cx="535.1" cy="232.0" r="3" fill="#f28e2b"/><circle cx="550.7" cy="232.0" r="3" fill="#f28e2b"/><circle cx="566.2" cy="232.0" r="3" fill="#f28e2b"/><circle cx="581.8" cy="232.0" r="3" fill="#f28e2b"/><circle cx="597.4" cy="230.3" r="3" fill="#f28e2b"/><circle cx="613.0" cy="232.0" r="3" fill="#f28e2b"/><circle cx="628.6" cy="232.0" r="3" fill="#f28e2b"/><circle cx="644.2" cy="201.1" r="3" fill="#f28e2b"/><circle cx="659.8" cy="220.0" r="3" fill="#f28e2b"/><circle cx="675.3" cy="228.6" r="3" fill="#f28e2b"/><circle cx="690.9" cy="228.6" r="3" fill="#f28e2b"/><circle cx="706.5" cy="232.0" r="3" fill="#f28e2b"/><circle cx="722.1" cy="232.0" r="3" fill="#f28e2b"/><circle cx="737.7" cy="228.6" r="3" fill="#f28e2b"/><circle cx="753.2" cy="232.0" r="3" fill="#f28e2b"/><circle cx="768.8" cy="228.6" r="3" fill="#f28e2b"/><circle cx="784.4" cy="232.0" r="3" fill="#f28e2b"/><circle cx="800.0" cy="230.3" r="3" fill="#f28e2b"/>

  <!-- axes -->
  <line x1="52" y1="28" x2="52" y2="232"
        stroke="#cccccc" stroke-width="1"/>
  <line x1="52" y1="232" x2="800" y2="232"
        stroke="#cccccc" stroke-width="1"/>

  <!-- y-axis labels -->
  <text x="47" y="236.0" text-anchor="end" font-size="10" fill="#57606a" font-family="ui-monospace, SFMono-Regular, 'SF Mono', Menlo, monospace">0</text><text x="47" y="201.7" text-anchor="end" font-size="10" fill="#57606a" font-family="ui-monospace, SFMono-Regular, 'SF Mono', Menlo, monospace">20</text><text x="47" y="167.4" text-anchor="end" font-size="10" fill="#57606a" font-family="ui-monospace, SFMono-Regular, 'SF Mono', Menlo, monospace">40</text><text x="47" y="133.1" text-anchor="end" font-size="10" fill="#57606a" font-family="ui-monospace, SFMono-Regular, 'SF Mono', Menlo, monospace">60</text><text x="47" y="98.9" text-anchor="end" font-size="10" fill="#57606a" font-family="ui-monospace, SFMono-Regular, 'SF Mono', Menlo, monospace">80</text><text x="47" y="64.6" text-anchor="end" font-size="10" fill="#57606a" font-family="ui-monospace, SFMono-Regular, 'SF Mono', Menlo, monospace">100</text><text x="47" y="30.3" text-anchor="end" font-size="10" fill="#57606a" font-family="ui-monospace, SFMono-Regular, 'SF Mono', Menlo, monospace">120</text>

  <!-- x-axis labels -->
  <text x="52.0" y="248" text-anchor="middle" font-size="10" fill="#8c959f" font-family="ui-monospace, SFMono-Regular, 'SF Mono', Menlo, monospace">05-11</text><text x="613.0" y="248" text-anchor="middle" font-size="10" fill="#8c959f" font-family="ui-monospace, SFMono-Regular, 'SF Mono', Menlo, monospace">06-16</text><text x="145.5" y="248" text-anchor="middle" font-size="10" fill="#8c959f" font-family="ui-monospace, SFMono-Regular, 'SF Mono', Menlo, monospace">05-17</text><text x="706.5" y="248" text-anchor="middle" font-size="10" fill="#8c959f" font-family="ui-monospace, SFMono-Regular, 'SF Mono', Menlo, monospace">06-22</text><text x="239.0" y="248" text-anchor="middle" font-size="10" fill="#8c959f" font-family="ui-monospace, SFMono-Regular, 'SF Mono', Menlo, monospace">05-23</text><text x="800.0" y="248" text-anchor="middle" font-size="10" fill="#8c959f" font-family="ui-monospace, SFMono-Regular, 'SF Mono', Menlo, monospace">06-28</text><text x="332.5" y="248" text-anchor="middle" font-size="10" fill="#8c959f" font-family="ui-monospace, SFMono-Regular, 'SF Mono', Menlo, monospace">05-29</text><text x="426.0" y="248" text-anchor="middle" font-size="10" fill="#8c959f" font-family="ui-monospace, SFMono-Regular, 'SF Mono', Menlo, monospace">06-04</text><text x="519.5" y="248" text-anchor="middle" font-size="10" fill="#8c959f" font-family="ui-monospace, SFMono-Regular, 'SF Mono', Menlo, monospace">06-10</text>

  <!-- legend -->
  <rect x="60" y="262" width="16" height="3" fill="#4e79a7" rx="1"/><text x="80" y="268" font-size="11" fill="#57606a" font-family="-apple-system, BlinkMacSystemFont, 'Segoe UI', sans-serif">Total clones (301)</text><line x1="230" y1="264" x2="246" y2="264" stroke="#f28e2b" stroke-width="2" stroke-dasharray="5,3"/><text x="250" y="268" font-size="11" fill="#57606a" font-family="-apple-system, BlinkMacSystemFont, 'Segoe UI', sans-serif">Unique cloners</text>

</svg>