<svg xmlns="http://www.w3.org/2000/svg" viewBox="0 0 820 280" width="820" height="280">

  <!-- title -->
  <text x="52" y="18" font-size="13" font-weight="600"
        fill="#24292f" font-family="-apple-system, BlinkMacSystemFont, 'Segoe UI', sans-serif"
        >Clone traffic — scancontext</text>
  <text x="800" y="18" font-size="10" fill="#8c959f"
        font-family="ui-monospace, SFMono-Regular, 'SF Mono', Menlo, monospace" text-anchor="end">2026-07-18</text>

  <!-- grid -->
  <line x1="52" y1="232.0" x2="800" y2="232.0" stroke="#e8e8e8" stroke-width="1"/><line x1="52" y1="197.7" x2="800" y2="197.7" stroke="#e8e8e8" stroke-width="1"/><line x1="52" y1="163.4" x2="800" y2="163.4" stroke="#e8e8e8" stroke-width="1"/><line x1="52" y1="129.1" x2="800" y2="129.1" stroke="#e8e8e8" stroke-width="1"/><line x1="52" y1="94.9" x2="800" y2="94.9" stroke="#e8e8e8" stroke-width="1"/><line x1="52" y1="60.6" x2="800" y2="60.6" stroke="#e8e8e8" stroke-width="1"/><line x1="52" y1="26.3" x2="800" y2="26.3" stroke="#e8e8e8" stroke-width="1"/>

  <!-- area fill -->
  <path d="M52.0,232.0 L52.0,232.0 L63.3,232.0 L74.7,232.0 L86.0,232.0 L97.3,232.0 L108.7,232.0 L120.0,172.0 L131.3,28.0 L142.7,202.9 L154.0,187.4 L165.3,230.3 L176.7,228.6 L188.0,228.6 L199.3,232.0 L210.7,225.1 L222.0,230.3 L233.3,232.0 L244.7,232.0 L256.0,221.7 L267.3,208.0 L278.7,220.0 L290.0,230.3 L301.3,232.0 L312.7,232.0 L324.0,230.3 L335.3,230.3 L346.7,230.3 L358.0,232.0 L369.3,228.6 L380.7,230.3 L392.0,230.3 L403.3,232.0 L414.7,232.0 L426.0,232.0 L437.3,232.0 L448.7,230.3 L460.0,232.0 L471.3,232.0 L482.7,187.4 L494.0,204.6 L505.3,216.6 L516.7,228.6 L528.0,232.0 L539.3,232.0 L550.7,228.6 L562.0,232.0 L573.3,228.6 L584.7,232.0 L596.0,230.3 L607.3,230.3 L618.7,230.3 L630.0,228.6 L641.3,228.6 L652.7,230.3 L664.0,232.0 L675.3,232.0 L686.7,232.0 L698.0,228.6 L709.3,209.7 L720.7,223.4 L732.0,228.6 L743.3,228.6 L754.7,230.3 L766.0,230.3 L777.3,226.9 L788.7,228.6 L800.0,230.3 L800.0,232.0 L52.0,232.0Z" fill="#4e79a7" opacity="0.12"/>

  <!-- lines -->
  <polyline points="52.0,232.0 63.3,232.0 74.7,232.0 86.0,232.0 97.3,232.0 108.7,232.0 120.0,172.0 131.3,28.0 142.7,202.9 154.0,187.4 165.3,230.3 176.7,228.6 188.0,228.6 199.3,232.0 210.7,225.1 222.0,230.3 233.3,232.0 244.7,232.0 256.0,221.7 267.3,208.0 278.7,220.0 290.0,230.3 301.3,232.0 312.7,232.0 324.0,230.3 335.3,230.3 346.7,230.3 358.0,232.0 369.3,228.6 380.7,230.3 392.0,230.3 403.3,232.0 414.7,232.0 426.0,232.0 437.3,232.0 448.7,230.3 460.0,232.0 471.3,232.0 482.7,187.4 494.0,204.6 505.3,216.6 516.7,228.6 528.0,232.0 539.3,232.0 550.7,228.6 562.0,232.0 573.3,228.6 584.7,232.0 596.0,230.3 607.3,230.3 618.7,230.3 630.0,228.6 641.3,228.6 652.7,230.3 664.0,232.0 675.3,232.0 686.7,232.0 698.0,228.6 709.3,209.7 720.7,223.4 732.0,228.6 743.3,228.6 754.7,230.3 766.0,230.3 777.3,226.9 788.7,228.6 800.0,230.3"
            fill="none" stroke="#4e79a7"
            stroke-width="2" stroke-linejoin="round"/>
  <polyline points="52.0,232.0 63.3,232.0 74.7,232.0 86.0,232.0 97.3,232.0 108.7,232.0 120.0,194.3 131.3,113.7 142.7,206.3 154.0,206.3 165.3,230.3 176.7,228.6 188.0,228.6 199.3,232.0 210.7,230.3 222.0,230.3 233.3,232.0 244.7,232.0 256.0,221.7 267.3,216.6 278.7,221.7 290.0,230.3 301.3,232.0 312.7,232.0 324.0,230.3 335.3,230.3 346.7,230.3 358.0,232.0 369.3,230.3 380.7,230.3 392.0,230.3 403.3,232.0 414.7,232.0 426.0,232.0 437.3,232.0 448.7,230.3 460.0,232.0 471.3,232.0 482.7,201.1 494.0,220.0 505.3,228.6 516.7,228.6 528.0,232.0 539.3,232.0 550.7,228.6 562.0,232.0 573.3,228.6 584.7,232.0 596.0,230.3 607.3,230.3 618.7,230.3 630.0,228.6 641.3,228.6 652.7,230.3 664.0,232.0 675.3,232.0 686.7,232.0 698.0,228.6 709.3,216.6 720.7,225.1 732.0,228.6 743.3,228.6 754.7,230.3 766.0,230.3 777.3,230.3 788.7,228.6 800.0,230.3"
            fill="none" stroke="#f28e2b"
            stroke-width="2" stroke-linejoin="round"
            stroke-dasharray="5,3"/>

  <!-- dots -->
  <circle cx="52.0" cy="232.0" r="3" fill="#4e79a7"/><circle cx="63.3" cy="232.0" r="3" fill="#4e79a7"/><circle cx="74.7" cy="232.0" r="3" fill="#4e79a7"/><circle cx="86.0" cy="232.0" r="3" fill="#4e79a7"/><circle cx="97.3" cy="232.0" r="3" fill="#4e79a7"/><circle cx="108.7" cy="232.0" r="3" fill="#4e79a7"/><circle cx="120.0" cy="172.0" r="3" fill="#4e79a7"/><circle cx="131.3" cy="28.0" r="3" fill="#4e79a7"/><circle cx="142.7" cy="202.9" r="3" fill="#4e79a7"/><circle cx="154.0" cy="187.4" r="3" fill="#4e79a7"/><circle cx="165.3" cy="230.3" r="3" fill="#4e79a7"/><circle cx="176.7" cy="228.6" r="3" fill="#4e79a7"/><circle cx="188.0" cy="228.6" r="3" fill="#4e79a7"/><circle cx="199.3" cy="232.0" r="3" fill="#4e79a7"/><circle cx="210.7" cy="225.1" r="3" fill="#4e79a7"/><circle cx="222.0" cy="230.3" r="3" fill="#4e79a7"/><circle cx="233.3" cy="232.0" r="3" fill="#4e79a7"/><circle cx="244.7" cy="232.0" r="3" fill="#4e79a7"/><circle cx="256.0" cy="221.7" r="3" fill="#4e79a7"/><circle cx="267.3" cy="208.0" r="3" fill="#4e79a7"/><circle cx="278.7" cy="220.0" r="3" fill="#4e79a7"/><circle cx="290.0" cy="230.3" r="3" fill="#4e79a7"/><circle cx="301.3" cy="232.0" r="3" fill="#4e79a7"/><circle cx="312.7" cy="232.0" r="3" fill="#4e79a7"/><circle cx="324.0" cy="230.3" r="3" fill="#4e79a7"/><circle cx="335.3" cy="230.3" r="3" fill="#4e79a7"/><circle cx="346.7" cy="230.3" r="3" fill="#4e79a7"/><circle cx="358.0" cy="232.0" r="3" fill="#4e79a7"/><circle cx="369.3" cy="228.6" r="3" fill="#4e79a7"/><circle cx="380.7" cy="230.3" r="3" fill="#4e79a7"/><circle cx="392.0" cy="230.3" r="3" fill="#4e79a7"/><circle cx="403.3" cy="232.0" r="3" fill="#4e79a7"/><circle cx="414.7" cy="232.0" r="3" fill="#4e79a7"/><circle cx="426.0" cy="232.0" r="3" fill="#4e79a7"/><circle cx="437.3" cy="232.0" r="3" fill="#4e79a7"/><circle cx="448.7" cy="230.3" r="3" fill="#4e79a7"/><circle cx="460.0" cy="232.0" r="3" fill="#4e79a7"/><circle cx="471.3" cy="232.0" r="3" fill="#4e79a7"/><circle cx="482.7" cy="187.4" r="3" fill="#4e79a7"/><circle cx="494.0" cy="204.6" r="3" fill="#4e79a7"/><circle cx="505.3" cy="216.6" r="3" fill="#4e79a7"/><circle cx="516.7" cy="228.6" r="3" fill="#4e79a7"/><circle cx="528.0" cy="232.0" r="3" fill="#4e79a7"/><circle cx="539.3" cy="232.0" r="3" fill="#4e79a7"/><circle cx="550.7" cy="228.6" r="3" fill="#4e79a7"/><circle cx="562.0" cy="232.0" r="3" fill="#4e79a7"/><circle cx="573.3" cy="228.6" r="3" fill="#4e79a7"/><circle cx="584.7" cy="232.0" r="3" fill="#4e79a7"/><circle cx="596.0" cy="230.3" r="3" fill="#4e79a7"/><circle cx="607.3" cy="230.3" r="3" fill="#4e79a7"/><circle cx="618.7" cy="230.3" r="3" fill="#4e79a7"/><circle cx="630.0" cy="228.6" r="3" fill="#4e79a7"/><circle cx="641.3" cy="228.6" r="3" fill="#4e79a7"/><circle cx="652.7" cy="230.3" r="3" fill="#4e79a7"/><circle cx="664.0" cy="232.0" r="3" fill="#4e79a7"/><circle cx="675.3" cy="232.0" r="3" fill="#4e79a7"/><circle cx="686.7" cy="232.0" r="3" fill="#4e79a7"/><circle cx="698.0" cy="228.6" r="3" fill="#4e79a7"/><circle cx="709.3" cy="209.7" r="3" fill="#4e79a7"/><circle cx="720.7" cy="223.4" r="3" fill="#4e79a7"/><circle cx="732.0" cy="228.6" r="3" fill="#4e79a7"/><circle cx="743.3" cy="228.6" r="3" fill="#4e79a7"/><circle cx="754.7" cy="230.3" r="3" fill="#4e79a7"/><circle cx="766.0" cy="230.3" r="3" fill="#4e79a7"/><circle cx="777.3" cy="226.9" r="3" fill="#4e79a7"/><circle cx="788.7" cy="228.6" r="3" fill="#4e79a7"/><circle cx="800.0" cy="230.3" r="3" fill="#4e79a7"/>
  <circle cx="52.0" cy="232.0" r="3" fill="#f28e2b"/><circle cx="63.3" cy="232.0" r="3" fill="#f28e2b"/><circle cx="74.7" cy="232.0" r="3" fill="#f28e2b"/><circle cx="86.0" cy="232.0" r="3" fill="#f28e2b"/><circle cx="97.3" cy="232.0" r="3" fill="#f28e2b"/><circle cx="108.7" cy="232.0" r="3" fill="#f28e2b"/><circle cx="120.0" cy="194.3" r="3" fill="#f28e2b"/><circle cx="131.3" cy="113.7" r="3" fill="#f28e2b"/><circle cx="142.7" cy="206.3" r="3" fill="#f28e2b"/><circle cx="154.0" cy="206.3" r="3" fill="#f28e2b"/><circle cx="165.3" cy="230.3" r="3" fill="#f28e2b"/><circle cx="176.7" cy="228.6" r="3" fill="#f28e2b"/><circle cx="188.0" cy="228.6" r="3" fill="#f28e2b"/><circle cx="199.3" cy="232.0" r="3" fill="#f28e2b"/><circle cx="210.7" cy="230.3" r="3" fill="#f28e2b"/><circle cx="222.0" cy="230.3" r="3" fill="#f28e2b"/><circle cx="233.3" cy="232.0" r="3" fill="#f28e2b"/><circle cx="244.7" cy="232.0" r="3" fill="#f28e2b"/><circle cx="256.0" cy="221.7" r="3" fill="#f28e2b"/><circle cx="267.3" cy="216.6" r="3" fill="#f28e2b"/><circle cx="278.7" cy="221.7" r="3" fill="#f28e2b"/><circle cx="290.0" cy="230.3" r="3" fill="#f28e2b"/><circle cx="301.3" cy="232.0" r="3" fill="#f28e2b"/><circle cx="312.7" cy="232.0" r="3" fill="#f28e2b"/><circle cx="324.0" cy="230.3" r="3" fill="#f28e2b"/><circle cx="335.3" cy="230.3" r="3" fill="#f28e2b"/><circle cx="346.7" cy="230.3" r="3" fill="#f28e2b"/><circle cx="358.0" cy="232.0" r="3" fill="#f28e2b"/><circle cx="369.3" cy="230.3" r="3" fill="#f28e2b"/><circle cx="380.7" cy="230.3" r="3" fill="#f28e2b"/><circle cx="392.0" cy="230.3" r="3" fill="#f28e2b"/><circle cx="403.3" cy="232.0" r="3" fill="#f28e2b"/><circle cx="414.7" cy="232.0" r="3" fill="#f28e2b"/><circle cx="426.0" cy="232.0" r="3" fill="#f28e2b"/><circle cx="437.3" cy="232.0" r="3" fill="#f28e2b"/><circle cx="448.7" cy="230.3" r="3" fill="#f28e2b"/><circle cx="460.0" cy="232.0" r="3" fill="#f28e2b"/><circle cx="471.3" cy="232.0" r="3" fill="#f28e2b"/><circle cx="482.7" cy="201.1" r="3" fill="#f28e2b"/><circle cx="494.0" cy="220.0" r="3" fill="#f28e2b"/><circle cx="505.3" cy="228.6" r="3" fill="#f28e2b"/><circle cx="516.7" cy="228.6" r="3" fill="#f28e2b"/><circle cx="528.0" cy="232.0" r="3" fill="#f28e2b"/><circle cx="539.3" cy="232.0" r="3" fill="#f28e2b"/><circle cx="550.7" cy="228.6" r="3" fill="#f28e2b"/><circle cx="562.0" cy="232.0" r="3" fill="#f28e2b"/><circle cx="573.3" cy="228.6" r="3" fill="#f28e2b"/><circle cx="584.7" cy="232.0" r="3" fill="#f28e2b"/><circle cx="596.0" cy="230.3" r="3" fill="#f28e2b"/><circle cx="607.3" cy="230.3" r="3" fill="#f28e2b"/><circle cx="618.7" cy="230.3" r="3" fill="#f28e2b"/><circle cx="630.0" cy="228.6" r="3" fill="#f28e2b"/><circle cx="641.3" cy="228.6" r="3" fill="#f28e2b"/><circle cx="652.7" cy="230.3" r="3" fill="#f28e2b"/><circle cx="664.0" cy="232.0" r="3" fill="#f28e2b"/><circle cx="675.3" cy="232.0" r="3" fill="#f28e2b"/><circle cx="686.7" cy="232.0" r="3" fill="#f28e2b"/><circle cx="698.0" cy="228.6" r="3" fill="#f28e2b"/><circle cx="709.3" cy="216.6" r="3" fill="#f28e2b"/><circle cx="720.7" cy="225.1" r="3" fill="#f28e2b"/><circle cx="732.0" cy="228.6" r="3" fill="#f28e2b"/><circle cx="743.3" cy="228.6" r="3" fill="#f28e2b"/><circle cx="754.7" cy="230.3" r="3" fill="#f28e2b"/><circle cx="766.0" cy="230.3" r="3" fill="#f28e2b"/><circle cx="777.3" cy="230.3" r="3" fill="#f28e2b"/><circle cx="788.7" cy="228.6" r="3" fill="#f28e2b"/><circle cx="800.0" cy="230.3" r="3" fill="#f28e2b"/>

  <!-- axes -->
  <line x1="52" y1="28" x2="52" y2="232"
        stroke="#cccccc" stroke-width="1"/>
  <line x1="52" y1="232" x2="800" y2="232"
        stroke="#cccccc" stroke-width="1"/>

  <!-- y-axis labels -->
  <text x="47" y="236.0" text-anchor="end" font-size="10" fill="#57606a" font-family="ui-monospace, SFMono-Regular, 'SF Mono', Menlo, monospace">0</text><text x="47" y="201.7" text-anchor="end" font-size="10" fill="#57606a" font-family="ui-monospace, SFMono-Regular, 'SF Mono', Menlo, monospace">20</text><text x="47" y="167.4" text-anchor="end" font-size="10" fill="#57606a" font-family="ui-monospace, SFMono-Regular, 'SF Mono', Menlo, monospace">40</text><text x="47" y="133.1" text-anchor="end" font-size="10" fill="#57606a" font-family="ui-monospace, SFMono-Regular, 'SF Mono', Menlo, monospace">60</text><text x="47" y="98.9" text-anchor="end" font-size="10" fill="#57606a" font-family="ui-monospace, SFMono-Regular, 'SF Mono', Menlo, monospace">80</text><text x="47" y="64.6" text-anchor="end" font-size="10" fill="#57606a" font-family="ui-monospace, SFMono-Regular, 'SF Mono', Menlo, monospace">100</text><text x="47" y="30.3" text-anchor="end" font-size="10" fill="#57606a" font-family="ui-monospace, SFMono-Regular, 'SF Mono', Menlo, monospace">120</text>

  <!-- x-axis labels -->
  <text x="52.0" y="248" text-anchor="middle" font-size="10" fill="#8c959f" font-family="ui-monospace, SFMono-Regular, 'SF Mono', Menlo, monospace">05-11</text><text x="414.7" y="248" text-anchor="middle" font-size="10" fill="#8c959f" font-family="ui-monospace, SFMono-Regular, 'SF Mono', Menlo, monospace">06-12</text><text x="777.3" y="248" text-anchor="middle" font-size="10" fill="#8c959f" font-family="ui-monospace, SFMono-Regular, 'SF Mono', Menlo, monospace">07-14</text><text x="800.0" y="248" text-anchor="middle" font-size="10" fill="#8c959f" font-family="ui-monospace, SFMono-Regular, 'SF Mono', Menlo, monospace">07-16</text><text x="142.7" y="248" text-anchor="middle" font-size="10" fill="#8c959f" font-family="ui-monospace, SFMono-Regular, 'SF Mono', Menlo, monospace">05-19</text><text x="505.3" y="248" text-anchor="middle" font-size="10" fill="#8c959f" font-family="ui-monospace, SFMono-Regular, 'SF Mono', Menlo, monospace">06-20</text><text x="233.3" y="248" text-anchor="middle" font-size="10" fill="#8c959f" font-family="ui-monospace, SFMono-Regular, 'SF Mono', Menlo, monospace">05-27</text><text x="596.0" y="248" text-anchor="middle" font-size="10" fill="#8c959f" font-family="ui-monospace, SFMono-Regular, 'SF Mono', Menlo, monospace">06-28</text><text x="324.0" y="248" text-anchor="middle" font-size="10" fill="#8c959f" font-family="ui-monospace, SFMono-Regular, 'SF Mono', Menlo, monospace">06-04</text><text x="686.7" y="248" text-anchor="middle" font-size="10" fill="#8c959f" font-family="ui-monospace, SFMono-Regular, 'SF Mono', Menlo, monospace">07-06</text>

  <!-- legend -->
  <rect x="60" y="262" width="16" height="3" fill="#4e79a7" rx="1"/><text x="80" y="268" font-size="11" fill="#57606a" font-family="-apple-system, BlinkMacSystemFont, 'Segoe UI', sans-serif">Total clones (340)</text><line x1="230" y1="264" x2="246" y2="264" stroke="#f28e2b" stroke-width="2" stroke-dasharray="5,3"/><text x="250" y="268" font-size="11" fill="#57606a" font-family="-apple-system, BlinkMacSystemFont, 'Segoe UI', sans-serif">Unique cloners</text>

</svg>