<svg xmlns="http://www.w3.org/2000/svg" viewBox="0 0 820 280" width="820" height="280">

  <!-- title -->
  <text x="52" y="18" font-size="13" font-weight="600"
        fill="#24292f" font-family="-apple-system, BlinkMacSystemFont, 'Segoe UI', sans-serif"
        >Clone traffic — script-helpers</text>
  <text x="800" y="18" font-size="10" fill="#8c959f"
        font-family="ui-monospace, SFMono-Regular, 'SF Mono', Menlo, monospace" text-anchor="end">2026-06-24</text>

  <!-- grid -->
  <line x1="52" y1="232.0" x2="800" y2="232.0" stroke="#e8e8e8" stroke-width="1"/><line x1="52" y1="193.8" x2="800" y2="193.8" stroke="#e8e8e8" stroke-width="1"/><line x1="52" y1="155.6" x2="800" y2="155.6" stroke="#e8e8e8" stroke-width="1"/><line x1="52" y1="117.4" x2="800" y2="117.4" stroke="#e8e8e8" stroke-width="1"/><line x1="52" y1="79.2" x2="800" y2="79.2" stroke="#e8e8e8" stroke-width="1"/><line x1="52" y1="41.0" x2="800" y2="41.0" stroke="#e8e8e8" stroke-width="1"/><line x1="52" y1="2.8" x2="800" y2="2.8" stroke="#e8e8e8" stroke-width="1"/>

  <!-- area fill -->
  <path d="M52.0,228.9 L52.0,228.9 L69.8,228.2 L87.6,229.7 L105.4,205.6 L123.2,204.1 L141.0,216.0 L158.9,217.5 L176.7,189.2 L194.5,202.2 L212.3,209.1 L230.1,86.1 L247.9,222.1 L265.7,180.8 L283.5,200.7 L301.3,171.6 L319.1,204.1 L337.0,202.6 L354.8,213.3 L372.6,223.2 L390.4,229.3 L408.2,230.1 L426.0,224.0 L443.8,225.5 L461.6,228.9 L479.4,223.2 L497.2,230.1 L515.0,228.2 L532.9,223.6 L550.7,213.7 L568.5,226.7 L586.3,223.2 L604.1,230.9 L621.9,37.2 L639.7,28.0 L657.5,225.9 L675.3,225.1 L693.1,221.7 L711.0,225.1 L728.8,219.0 L746.6,172.8 L764.4,67.0 L782.2,101.0 L800.0,213.3 L800.0,232.0 L52.0,232.0Z" fill="#4e79a7" opacity="0.12"/>

  <!-- lines -->
  <polyline points="52.0,228.9 69.8,228.2 87.6,229.7 105.4,205.6 123.2,204.1 141.0,216.0 158.9,217.5 176.7,189.2 194.5,202.2 212.3,209.1 230.1,86.1 247.9,222.1 265.7,180.8 283.5,200.7 301.3,171.6 319.1,204.1 337.0,202.6 354.8,213.3 372.6,223.2 390.4,229.3 408.2,230.1 426.0,224.0 443.8,225.5 461.6,228.9 479.4,223.2 497.2,230.1 515.0,228.2 532.9,223.6 550.7,213.7 568.5,226.7 586.3,223.2 604.1,230.9 621.9,37.2 639.7,28.0 657.5,225.9 675.3,225.1 693.1,221.7 711.0,225.1 728.8,219.0 746.6,172.8 764.4,67.0 782.2,101.0 800.0,213.3"
            fill="none" stroke="#4e79a7"
            stroke-width="2" stroke-linejoin="round"/>
  <polyline points="52.0,230.9 69.8,230.5 87.6,230.9 105.4,230.5 123.2,230.5 141.0,230.9 158.9,230.9 176.7,230.5 194.5,231.2 212.3,230.9 230.1,180.8 247.9,226.3 265.7,230.5 283.5,229.7 301.3,224.7 319.1,227.8 337.0,229.7 354.8,230.1 372.6,228.6 390.4,231.2 408.2,231.2 426.0,231.2 443.8,231.2 461.6,231.2 479.4,230.1 497.2,231.2 515.0,231.2 532.9,230.9 550.7,226.7 568.5,230.1 586.3,230.5 604.1,231.6 621.9,184.6 639.7,196.5 657.5,230.1 675.3,231.2 693.1,231.2 711.0,231.2 728.8,230.1 746.6,225.1 764.4,207.6 782.2,214.0 800.0,225.9"
            fill="none" stroke="#f28e2b"
            stroke-width="2" stroke-linejoin="round"
            stroke-dasharray="5,3"/>

  <!-- dots -->
  <circle cx="52.0" cy="228.9" r="3" fill="#4e79a7"/><circle cx="69.8" cy="228.2" r="3" fill="#4e79a7"/><circle cx="87.6" cy="229.7" r="3" fill="#4e79a7"/><circle cx="105.4" cy="205.6" r="3" fill="#4e79a7"/><circle cx="123.2" cy="204.1" r="3" fill="#4e79a7"/><circle cx="141.0" cy="216.0" r="3" fill="#4e79a7"/><circle cx="158.9" cy="217.5" r="3" fill="#4e79a7"/><circle cx="176.7" cy="189.2" r="3" fill="#4e79a7"/><circle cx="194.5" cy="202.2" r="3" fill="#4e79a7"/><circle cx="212.3" cy="209.1" r="3" fill="#4e79a7"/><circle cx="230.1" cy="86.1" r="3" fill="#4e79a7"/><circle cx="247.9" cy="222.1" r="3" fill="#4e79a7"/><circle cx="265.7" cy="180.8" r="3" fill="#4e79a7"/><circle cx="283.5" cy="200.7" r="3" fill="#4e79a7"/><circle cx="301.3" cy="171.6" r="3" fill="#4e79a7"/><circle cx="319.1" cy="204.1" r="3" fill="#4e79a7"/><circle cx="337.0" cy="202.6" r="3" fill="#4e79a7"/><circle cx="354.8" cy="213.3" r="3" fill="#4e79a7"/><circle cx="372.6" cy="223.2" r="3" fill="#4e79a7"/><circle cx="390.4" cy="229.3" r="3" fill="#4e79a7"/><circle cx="408.2" cy="230.1" r="3" fill="#4e79a7"/><circle cx="426.0" cy="224.0" r="3" fill="#4e79a7"/><circle cx="443.8" cy="225.5" r="3" fill="#4e79a7"/><circle cx="461.6" cy="228.9" r="3" fill="#4e79a7"/><circle cx="479.4" cy="223.2" r="3" fill="#4e79a7"/><circle cx="497.2" cy="230.1" r="3" fill="#4e79a7"/><circle cx="515.0" cy="228.2" r="3" fill="#4e79a7"/><circle cx="532.9" cy="223.6" r="3" fill="#4e79a7"/><circle cx="550.7" cy="213.7" r="3" fill="#4e79a7"/><circle cx="568.5" cy="226.7" r="3" fill="#4e79a7"/><circle cx="586.3" cy="223.2" r="3" fill="#4e79a7"/><circle cx="604.1" cy="230.9" r="3" fill="#4e79a7"/><circle cx="621.9" cy="37.2" r="3" fill="#4e79a7"/><circle cx="639.7" cy="28.0" r="3" fill="#4e79a7"/><circle cx="657.5" cy="225.9" r="3" fill="#4e79a7"/><circle cx="675.3" cy="225.1" r="3" fill="#4e79a7"/><circle cx="693.1" cy="221.7" r="3" fill="#4e79a7"/><circle cx="711.0" cy="225.1" r="3" fill="#4e79a7"/><circle cx="728.8" cy="219.0" r="3" fill="#4e79a7"/><circle cx="746.6" cy="172.8" r="3" fill="#4e79a7"/><circle cx="764.4" cy="67.0" r="3" fill="#4e79a7"/><circle cx="782.2" cy="101.0" r="3" fill="#4e79a7"/><circle cx="800.0" cy="213.3" r="3" fill="#4e79a7"/>
  <circle cx="52.0" cy="230.9" r="3" fill="#f28e2b"/><circle cx="69.8" cy="230.5" r="3" fill="#f28e2b"/><circle cx="87.6" cy="230.9" r="3" fill="#f28e2b"/><circle cx="105.4" cy="230.5" r="3" fill="#f28e2b"/><circle cx="123.2" cy="230.5" r="3" fill="#f28e2b"/><circle cx="141.0" cy="230.9" r="3" fill="#f28e2b"/><circle cx="158.9" cy="230.9" r="3" fill="#f28e2b"/><circle cx="176.7" cy="230.5" r="3" fill="#f28e2b"/><circle cx="194.5" cy="231.2" r="3" fill="#f28e2b"/><circle cx="212.3" cy="230.9" r="3" fill="#f28e2b"/><circle cx="230.1" cy="180.8" r="3" fill="#f28e2b"/><circle cx="247.9" cy="226.3" r="3" fill="#f28e2b"/><circle cx="265.7" cy="230.5" r="3" fill="#f28e2b"/><circle cx="283.5" cy="229.7" r="3" fill="#f28e2b"/><circle cx="301.3" cy="224.7" r="3" fill="#f28e2b"/><circle cx="319.1" cy="227.8" r="3" fill="#f28e2b"/><circle cx="337.0" cy="229.7" r="3" fill="#f28e2b"/><circle cx="354.8" cy="230.1" r="3" fill="#f28e2b"/><circle cx="372.6" cy="228.6" r="3" fill="#f28e2b"/><circle cx="390.4" cy="231.2" r="3" fill="#f28e2b"/><circle cx="408.2" cy="231.2" r="3" fill="#f28e2b"/><circle cx="426.0" cy="231.2" r="3" fill="#f28e2b"/><circle cx="443.8" cy="231.2" r="3" fill="#f28e2b"/><circle cx="461.6" cy="231.2" r="3" fill="#f28e2b"/><circle cx="479.4" cy="230.1" r="3" fill="#f28e2b"/><circle cx="497.2" cy="231.2" r="3" fill="#f28e2b"/><circle cx="515.0" cy="231.2" r="3" fill="#f28e2b"/><circle cx="532.9" cy="230.9" r="3" fill="#f28e2b"/><circle cx="550.7" cy="226.7" r="3" fill="#f28e2b"/><circle cx="568.5" cy="230.1" r="3" fill="#f28e2b"/><circle cx="586.3" cy="230.5" r="3" fill="#f28e2b"/><circle cx="604.1" cy="231.6" r="3" fill="#f28e2b"/><circle cx="621.9" cy="184.6" r="3" fill="#f28e2b"/><circle cx="639.7" cy="196.5" r="3" fill="#f28e2b"/><circle cx="657.5" cy="230.1" r="3" fill="#f28e2b"/><circle cx="675.3" cy="231.2" r="3" fill="#f28e2b"/><circle cx="693.1" cy="231.2" r="3" fill="#f28e2b"/><circle cx="711.0" cy="231.2" r="3" fill="#f28e2b"/><circle cx="728.8" cy="230.1" r="3" fill="#f28e2b"/><circle cx="746.6" cy="225.1" r="3" fill="#f28e2b"/><circle cx="764.4" cy="207.6" r="3" fill="#f28e2b"/><circle cx="782.2" cy="214.0" r="3" fill="#f28e2b"/><circle cx="800.0" cy="225.9" r="3" fill="#f28e2b"/>

  <!-- axes -->
  <line x1="52" y1="28" x2="52" y2="232"
        stroke="#cccccc" stroke-width="1"/>
  <line x1="52" y1="232" x2="800" y2="232"
        stroke="#cccccc" stroke-width="1"/>

  <!-- y-axis labels -->
  <text x="47" y="236.0" text-anchor="end" font-size="10" fill="#57606a" font-family="ui-monospace, SFMono-Regular, 'SF Mono', Menlo, monospace">0</text><text x="47" y="197.8" text-anchor="end" font-size="10" fill="#57606a" font-family="ui-monospace, SFMono-Regular, 'SF Mono', Menlo, monospace">100</text><text x="47" y="159.6" text-anchor="end" font-size="10" fill="#57606a" font-family="ui-monospace, SFMono-Regular, 'SF Mono', Menlo, monospace">200</text><text x="47" y="121.4" text-anchor="end" font-size="10" fill="#57606a" font-family="ui-monospace, SFMono-Regular, 'SF Mono', Menlo, monospace">300</text><text x="47" y="83.2" text-anchor="end" font-size="10" fill="#57606a" font-family="ui-monospace, SFMono-Regular, 'SF Mono', Menlo, monospace">400</text><text x="47" y="45.0" text-anchor="end" font-size="10" fill="#57606a" font-family="ui-monospace, SFMono-Regular, 'SF Mono', Menlo, monospace">500</text><text x="47" y="6.8" text-anchor="end" font-size="10" fill="#57606a" font-family="ui-monospace, SFMono-Regular, 'SF Mono', Menlo, monospace">600</text>

  <!-- x-axis labels -->
  <text x="52.0" y="248" text-anchor="middle" font-size="10" fill="#8c959f" font-family="ui-monospace, SFMono-Regular, 'SF Mono', Menlo, monospace">05-11</text><text x="675.3" y="248" text-anchor="middle" font-size="10" fill="#8c959f" font-family="ui-monospace, SFMono-Regular, 'SF Mono', Menlo, monospace">06-15</text><text x="141.0" y="248" text-anchor="middle" font-size="10" fill="#8c959f" font-family="ui-monospace, SFMono-Regular, 'SF Mono', Menlo, monospace">05-16</text><text x="764.4" y="248" text-anchor="middle" font-size="10" fill="#8c959f" font-family="ui-monospace, SFMono-Regular, 'SF Mono', Menlo, monospace">06-20</text><text x="230.1" y="248" text-anchor="middle" font-size="10" fill="#8c959f" font-family="ui-monospace, SFMono-Regular, 'SF Mono', Menlo, monospace">05-21</text><text x="800.0" y="248" text-anchor="middle" font-size="10" fill="#8c959f" font-family="ui-monospace, SFMono-Regular, 'SF Mono', Menlo, monospace">06-22</text><text x="319.1" y="248" text-anchor="middle" font-size="10" fill="#8c959f" font-family="ui-monospace, SFMono-Regular, 'SF Mono', Menlo, monospace">05-26</text><text x="408.2" y="248" text-anchor="middle" font-size="10" fill="#8c959f" font-family="ui-monospace, SFMono-Regular, 'SF Mono', Menlo, monospace">05-31</text><text x="497.2" y="248" text-anchor="middle" font-size="10" fill="#8c959f" font-family="ui-monospace, SFMono-Regular, 'SF Mono', Menlo, monospace">06-05</text><text x="586.3" y="248" text-anchor="middle" font-size="10" fill="#8c959f" font-family="ui-monospace, SFMono-Regular, 'SF Mono', Menlo, monospace">06-10</text>

  <!-- legend -->
  <rect x="60" y="262" width="16" height="3" fill="#4e79a7" rx="1"/><text x="80" y="268" font-size="11" fill="#57606a" font-family="-apple-system, BlinkMacSystemFont, 'Segoe UI', sans-serif">Total clones (3,842)</text><line x1="230" y1="264" x2="246" y2="264" stroke="#f28e2b" stroke-width="2" stroke-dasharray="5,3"/><text x="250" y="268" font-size="11" fill="#57606a" font-family="-apple-system, BlinkMacSystemFont, 'Segoe UI', sans-serif">Unique cloners</text>

</svg>