<svg xmlns="http://www.w3.org/2000/svg" viewBox="0 0 820 280" width="820" height="280">

  <!-- title -->
  <text x="52" y="18" font-size="13" font-weight="600"
        fill="#24292f" font-family="-apple-system, BlinkMacSystemFont, 'Segoe UI', sans-serif"
        >Clone traffic — script-helpers</text>
  <text x="800" y="18" font-size="10" fill="#8c959f"
        font-family="ui-monospace, SFMono-Regular, 'SF Mono', Menlo, monospace" text-anchor="end">2026-06-25</text>

  <!-- grid -->
  <line x1="52" y1="232.0" x2="800" y2="232.0" stroke="#e8e8e8" stroke-width="1"/><line x1="52" y1="193.8" x2="800" y2="193.8" stroke="#e8e8e8" stroke-width="1"/><line x1="52" y1="155.6" x2="800" y2="155.6" stroke="#e8e8e8" stroke-width="1"/><line x1="52" y1="117.4" x2="800" y2="117.4" stroke="#e8e8e8" stroke-width="1"/><line x1="52" y1="79.2" x2="800" y2="79.2" stroke="#e8e8e8" stroke-width="1"/><line x1="52" y1="41.0" x2="800" y2="41.0" stroke="#e8e8e8" stroke-width="1"/><line x1="52" y1="2.8" x2="800" y2="2.8" stroke="#e8e8e8" stroke-width="1"/>

  <!-- area fill -->
  <path d="M52.0,228.9 L52.0,228.9 L69.4,228.2 L86.8,229.7 L104.2,205.6 L121.6,204.1 L139.0,216.0 L156.4,217.5 L173.8,189.2 L191.2,202.2 L208.6,209.1 L226.0,86.1 L243.3,222.1 L260.7,180.8 L278.1,200.7 L295.5,171.6 L312.9,204.1 L330.3,202.6 L347.7,213.3 L365.1,223.2 L382.5,229.3 L399.9,230.1 L417.3,224.0 L434.7,225.5 L452.1,228.9 L469.5,223.2 L486.9,230.1 L504.3,228.2 L521.7,223.6 L539.1,213.7 L556.5,226.7 L573.9,223.2 L591.3,230.9 L608.7,37.2 L626.0,28.0 L643.4,225.9 L660.8,225.1 L678.2,221.7 L695.6,225.1 L713.0,219.0 L730.4,172.8 L747.8,67.0 L765.2,101.0 L782.6,213.3 L800.0,217.9 L800.0,232.0 L52.0,232.0Z" fill="#4e79a7" opacity="0.12"/>

  <!-- lines -->
  <polyline points="52.0,228.9 69.4,228.2 86.8,229.7 104.2,205.6 121.6,204.1 139.0,216.0 156.4,217.5 173.8,189.2 191.2,202.2 208.6,209.1 226.0,86.1 243.3,222.1 260.7,180.8 278.1,200.7 295.5,171.6 312.9,204.1 330.3,202.6 347.7,213.3 365.1,223.2 382.5,229.3 399.9,230.1 417.3,224.0 434.7,225.5 452.1,228.9 469.5,223.2 486.9,230.1 504.3,228.2 521.7,223.6 539.1,213.7 556.5,226.7 573.9,223.2 591.3,230.9 608.7,37.2 626.0,28.0 643.4,225.9 660.8,225.1 678.2,221.7 695.6,225.1 713.0,219.0 730.4,172.8 747.8,67.0 765.2,101.0 782.6,213.3 800.0,217.9"
            fill="none" stroke="#4e79a7"
            stroke-width="2" stroke-linejoin="round"/>
  <polyline points="52.0,230.9 69.4,230.5 86.8,230.9 104.2,230.5 121.6,230.5 139.0,230.9 156.4,230.9 173.8,230.5 191.2,231.2 208.6,230.9 226.0,180.8 243.3,226.3 260.7,230.5 278.1,229.7 295.5,224.7 312.9,227.8 330.3,229.7 347.7,230.1 365.1,228.6 382.5,231.2 399.9,231.2 417.3,231.2 434.7,231.2 452.1,231.2 469.5,230.1 486.9,231.2 504.3,231.2 521.7,230.9 539.1,226.7 556.5,230.1 573.9,230.5 591.3,231.6 608.7,184.6 626.0,196.5 643.4,230.1 660.8,231.2 678.2,231.2 695.6,231.2 713.0,230.1 730.4,225.1 747.8,207.6 765.2,214.0 782.6,225.9 800.0,224.0"
            fill="none" stroke="#f28e2b"
            stroke-width="2" stroke-linejoin="round"
            stroke-dasharray="5,3"/>

  <!-- dots -->
  <circle cx="52.0" cy="228.9" r="3" fill="#4e79a7"/><circle cx="69.4" cy="228.2" r="3" fill="#4e79a7"/><circle cx="86.8" cy="229.7" r="3" fill="#4e79a7"/><circle cx="104.2" cy="205.6" r="3" fill="#4e79a7"/><circle cx="121.6" cy="204.1" r="3" fill="#4e79a7"/><circle cx="139.0" cy="216.0" r="3" fill="#4e79a7"/><circle cx="156.4" cy="217.5" r="3" fill="#4e79a7"/><circle cx="173.8" cy="189.2" r="3" fill="#4e79a7"/><circle cx="191.2" cy="202.2" r="3" fill="#4e79a7"/><circle cx="208.6" cy="209.1" r="3" fill="#4e79a7"/><circle cx="226.0" cy="86.1" r="3" fill="#4e79a7"/><circle cx="243.3" cy="222.1" r="3" fill="#4e79a7"/><circle cx="260.7" cy="180.8" r="3" fill="#4e79a7"/><circle cx="278.1" cy="200.7" r="3" fill="#4e79a7"/><circle cx="295.5" cy="171.6" r="3" fill="#4e79a7"/><circle cx="312.9" cy="204.1" r="3" fill="#4e79a7"/><circle cx="330.3" cy="202.6" r="3" fill="#4e79a7"/><circle cx="347.7" cy="213.3" r="3" fill="#4e79a7"/><circle cx="365.1" cy="223.2" r="3" fill="#4e79a7"/><circle cx="382.5" cy="229.3" r="3" fill="#4e79a7"/><circle cx="399.9" cy="230.1" r="3" fill="#4e79a7"/><circle cx="417.3" cy="224.0" r="3" fill="#4e79a7"/><circle cx="434.7" cy="225.5" r="3" fill="#4e79a7"/><circle cx="452.1" cy="228.9" r="3" fill="#4e79a7"/><circle cx="469.5" cy="223.2" r="3" fill="#4e79a7"/><circle cx="486.9" cy="230.1" r="3" fill="#4e79a7"/><circle cx="504.3" cy="228.2" r="3" fill="#4e79a7"/><circle cx="521.7" cy="223.6" r="3" fill="#4e79a7"/><circle cx="539.1" cy="213.7" r="3" fill="#4e79a7"/><circle cx="556.5" cy="226.7" r="3" fill="#4e79a7"/><circle cx="573.9" cy="223.2" r="3" fill="#4e79a7"/><circle cx="591.3" cy="230.9" r="3" fill="#4e79a7"/><circle cx="608.7" cy="37.2" r="3" fill="#4e79a7"/><circle cx="626.0" cy="28.0" r="3" fill="#4e79a7"/><circle cx="643.4" cy="225.9" r="3" fill="#4e79a7"/><circle cx="660.8" cy="225.1" r="3" fill="#4e79a7"/><circle cx="678.2" cy="221.7" r="3" fill="#4e79a7"/><circle cx="695.6" cy="225.1" r="3" fill="#4e79a7"/><circle cx="713.0" cy="219.0" r="3" fill="#4e79a7"/><circle cx="730.4" cy="172.8" r="3" fill="#4e79a7"/><circle cx="747.8" cy="67.0" r="3" fill="#4e79a7"/><circle cx="765.2" cy="101.0" r="3" fill="#4e79a7"/><circle cx="782.6" cy="213.3" r="3" fill="#4e79a7"/><circle cx="800.0" cy="217.9" r="3" fill="#4e79a7"/>
  <circle cx="52.0" cy="230.9" r="3" fill="#f28e2b"/><circle cx="69.4" cy="230.5" r="3" fill="#f28e2b"/><circle cx="86.8" cy="230.9" r="3" fill="#f28e2b"/><circle cx="104.2" cy="230.5" r="3" fill="#f28e2b"/><circle cx="121.6" cy="230.5" r="3" fill="#f28e2b"/><circle cx="139.0" cy="230.9" r="3" fill="#f28e2b"/><circle cx="156.4" cy="230.9" r="3" fill="#f28e2b"/><circle cx="173.8" cy="230.5" r="3" fill="#f28e2b"/><circle cx="191.2" cy="231.2" r="3" fill="#f28e2b"/><circle cx="208.6" cy="230.9" r="3" fill="#f28e2b"/><circle cx="226.0" cy="180.8" r="3" fill="#f28e2b"/><circle cx="243.3" cy="226.3" r="3" fill="#f28e2b"/><circle cx="260.7" cy="230.5" r="3" fill="#f28e2b"/><circle cx="278.1" cy="229.7" r="3" fill="#f28e2b"/><circle cx="295.5" cy="224.7" r="3" fill="#f28e2b"/><circle cx="312.9" cy="227.8" r="3" fill="#f28e2b"/><circle cx="330.3" cy="229.7" r="3" fill="#f28e2b"/><circle cx="347.7" cy="230.1" r="3" fill="#f28e2b"/><circle cx="365.1" cy="228.6" r="3" fill="#f28e2b"/><circle cx="382.5" cy="231.2" r="3" fill="#f28e2b"/><circle cx="399.9" cy="231.2" r="3" fill="#f28e2b"/><circle cx="417.3" cy="231.2" r="3" fill="#f28e2b"/><circle cx="434.7" cy="231.2" r="3" fill="#f28e2b"/><circle cx="452.1" cy="231.2" r="3" fill="#f28e2b"/><circle cx="469.5" cy="230.1" r="3" fill="#f28e2b"/><circle cx="486.9" cy="231.2" r="3" fill="#f28e2b"/><circle cx="504.3" cy="231.2" r="3" fill="#f28e2b"/><circle cx="521.7" cy="230.9" r="3" fill="#f28e2b"/><circle cx="539.1" cy="226.7" r="3" fill="#f28e2b"/><circle cx="556.5" cy="230.1" r="3" fill="#f28e2b"/><circle cx="573.9" cy="230.5" r="3" fill="#f28e2b"/><circle cx="591.3" cy="231.6" r="3" fill="#f28e2b"/><circle cx="608.7" cy="184.6" r="3" fill="#f28e2b"/><circle cx="626.0" cy="196.5" r="3" fill="#f28e2b"/><circle cx="643.4" cy="230.1" r="3" fill="#f28e2b"/><circle cx="660.8" cy="231.2" r="3" fill="#f28e2b"/><circle cx="678.2" cy="231.2" r="3" fill="#f28e2b"/><circle cx="695.6" cy="231.2" r="3" fill="#f28e2b"/><circle cx="713.0" cy="230.1" r="3" fill="#f28e2b"/><circle cx="730.4" cy="225.1" r="3" fill="#f28e2b"/><circle cx="747.8" cy="207.6" r="3" fill="#f28e2b"/><circle cx="765.2" cy="214.0" r="3" fill="#f28e2b"/><circle cx="782.6" cy="225.9" r="3" fill="#f28e2b"/><circle cx="800.0" cy="224.0" r="3" fill="#f28e2b"/>

  <!-- axes -->
  <line x1="52" y1="28" x2="52" y2="232"
        stroke="#cccccc" stroke-width="1"/>
  <line x1="52" y1="232" x2="800" y2="232"
        stroke="#cccccc" stroke-width="1"/>

  <!-- y-axis labels -->
  <text x="47" y="236.0" text-anchor="end" font-size="10" fill="#57606a" font-family="ui-monospace, SFMono-Regular, 'SF Mono', Menlo, monospace">0</text><text x="47" y="197.8" text-anchor="end" font-size="10" fill="#57606a" font-family="ui-monospace, SFMono-Regular, 'SF Mono', Menlo, monospace">100</text><text x="47" y="159.6" text-anchor="end" font-size="10" fill="#57606a" font-family="ui-monospace, SFMono-Regular, 'SF Mono', Menlo, monospace">200</text><text x="47" y="121.4" text-anchor="end" font-size="10" fill="#57606a" font-family="ui-monospace, SFMono-Regular, 'SF Mono', Menlo, monospace">300</text><text x="47" y="83.2" text-anchor="end" font-size="10" fill="#57606a" font-family="ui-monospace, SFMono-Regular, 'SF Mono', Menlo, monospace">400</text><text x="47" y="45.0" text-anchor="end" font-size="10" fill="#57606a" font-family="ui-monospace, SFMono-Regular, 'SF Mono', Menlo, monospace">500</text><text x="47" y="6.8" text-anchor="end" font-size="10" fill="#57606a" font-family="ui-monospace, SFMono-Regular, 'SF Mono', Menlo, monospace">600</text>

  <!-- x-axis labels -->
  <text x="52.0" y="248" text-anchor="middle" font-size="10" fill="#8c959f" font-family="ui-monospace, SFMono-Regular, 'SF Mono', Menlo, monospace">05-11</text><text x="660.8" y="248" text-anchor="middle" font-size="10" fill="#8c959f" font-family="ui-monospace, SFMono-Regular, 'SF Mono', Menlo, monospace">06-15</text><text x="139.0" y="248" text-anchor="middle" font-size="10" fill="#8c959f" font-family="ui-monospace, SFMono-Regular, 'SF Mono', Menlo, monospace">05-16</text><text x="747.8" y="248" text-anchor="middle" font-size="10" fill="#8c959f" font-family="ui-monospace, SFMono-Regular, 'SF Mono', Menlo, monospace">06-20</text><text x="226.0" y="248" text-anchor="middle" font-size="10" fill="#8c959f" font-family="ui-monospace, SFMono-Regular, 'SF Mono', Menlo, monospace">05-21</text><text x="800.0" y="248" text-anchor="middle" font-size="10" fill="#8c959f" font-family="ui-monospace, SFMono-Regular, 'SF Mono', Menlo, monospace">06-23</text><text x="312.9" y="248" text-anchor="middle" font-size="10" fill="#8c959f" font-family="ui-monospace, SFMono-Regular, 'SF Mono', Menlo, monospace">05-26</text><text x="399.9" y="248" text-anchor="middle" font-size="10" fill="#8c959f" font-family="ui-monospace, SFMono-Regular, 'SF Mono', Menlo, monospace">05-31</text><text x="486.9" y="248" text-anchor="middle" font-size="10" fill="#8c959f" font-family="ui-monospace, SFMono-Regular, 'SF Mono', Menlo, monospace">06-05</text><text x="573.9" y="248" text-anchor="middle" font-size="10" fill="#8c959f" font-family="ui-monospace, SFMono-Regular, 'SF Mono', Menlo, monospace">06-10</text>

  <!-- legend -->
  <rect x="60" y="262" width="16" height="3" fill="#4e79a7" rx="1"/><text x="80" y="268" font-size="11" fill="#57606a" font-family="-apple-system, BlinkMacSystemFont, 'Segoe UI', sans-serif">Total clones (3,879)</text><line x1="230" y1="264" x2="246" y2="264" stroke="#f28e2b" stroke-width="2" stroke-dasharray="5,3"/><text x="250" y="268" font-size="11" fill="#57606a" font-family="-apple-system, BlinkMacSystemFont, 'Segoe UI', sans-serif">Unique cloners</text>

</svg>