<svg xmlns="http://www.w3.org/2000/svg" viewBox="0 0 820 280" width="820" height="280">

  <!-- title -->
  <text x="52" y="18" font-size="13" font-weight="600"
        fill="#24292f" font-family="-apple-system, BlinkMacSystemFont, 'Segoe UI', sans-serif"
        >Clone traffic — script-helpers</text>
  <text x="800" y="18" font-size="10" fill="#8c959f"
        font-family="ui-monospace, SFMono-Regular, 'SF Mono', Menlo, monospace" text-anchor="end">2026-06-29</text>

  <!-- grid -->
  <line x1="52" y1="232.0" x2="800" y2="232.0" stroke="#e8e8e8" stroke-width="1"/><line x1="52" y1="193.8" x2="800" y2="193.8" stroke="#e8e8e8" stroke-width="1"/><line x1="52" y1="155.6" x2="800" y2="155.6" stroke="#e8e8e8" stroke-width="1"/><line x1="52" y1="117.4" x2="800" y2="117.4" stroke="#e8e8e8" stroke-width="1"/><line x1="52" y1="79.2" x2="800" y2="79.2" stroke="#e8e8e8" stroke-width="1"/><line x1="52" y1="41.0" x2="800" y2="41.0" stroke="#e8e8e8" stroke-width="1"/><line x1="52" y1="2.8" x2="800" y2="2.8" stroke="#e8e8e8" stroke-width="1"/>

  <!-- area fill -->
  <path d="M52.0,228.9 L52.0,228.9 L67.9,228.2 L83.8,229.7 L99.7,205.6 L115.7,204.1 L131.6,216.0 L147.5,217.5 L163.4,189.2 L179.3,202.2 L195.2,209.1 L211.1,86.1 L227.1,222.1 L243.0,180.8 L258.9,200.7 L274.8,171.6 L290.7,204.1 L306.6,202.6 L322.6,213.3 L338.5,223.2 L354.4,229.3 L370.3,230.1 L386.2,224.0 L402.1,225.5 L418.0,228.9 L434.0,223.2 L449.9,230.1 L465.8,228.2 L481.7,223.6 L497.6,213.7 L513.5,226.7 L529.4,223.2 L545.4,230.9 L561.3,37.2 L577.2,28.0 L593.1,225.9 L609.0,225.1 L624.9,221.7 L640.9,225.1 L656.8,219.0 L672.7,172.8 L688.6,67.0 L704.5,101.0 L720.4,213.3 L736.3,217.9 L752.3,227.8 L768.2,230.9 L784.1,160.9 L800.0,228.9 L800.0,232.0 L52.0,232.0Z" fill="#4e79a7" opacity="0.12"/>

  <!-- lines -->
  <polyline points="52.0,228.9 67.9,228.2 83.8,229.7 99.7,205.6 115.7,204.1 131.6,216.0 147.5,217.5 163.4,189.2 179.3,202.2 195.2,209.1 211.1,86.1 227.1,222.1 243.0,180.8 258.9,200.7 274.8,171.6 290.7,204.1 306.6,202.6 322.6,213.3 338.5,223.2 354.4,229.3 370.3,230.1 386.2,224.0 402.1,225.5 418.0,228.9 434.0,223.2 449.9,230.1 465.8,228.2 481.7,223.6 497.6,213.7 513.5,226.7 529.4,223.2 545.4,230.9 561.3,37.2 577.2,28.0 593.1,225.9 609.0,225.1 624.9,221.7 640.9,225.1 656.8,219.0 672.7,172.8 688.6,67.0 704.5,101.0 720.4,213.3 736.3,217.9 752.3,227.8 768.2,230.9 784.1,160.9 800.0,228.9"
            fill="none" stroke="#4e79a7"
            stroke-width="2" stroke-linejoin="round"/>
  <polyline points="52.0,230.9 67.9,230.5 83.8,230.9 99.7,230.5 115.7,230.5 131.6,230.9 147.5,230.9 163.4,230.5 179.3,231.2 195.2,230.9 211.1,180.8 227.1,226.3 243.0,230.5 258.9,229.7 274.8,224.7 290.7,227.8 306.6,229.7 322.6,230.1 338.5,228.6 354.4,231.2 370.3,231.2 386.2,231.2 402.1,231.2 418.0,231.2 434.0,230.1 449.9,231.2 465.8,231.2 481.7,230.9 497.6,226.7 513.5,230.1 529.4,230.5 545.4,231.6 561.3,184.6 577.2,196.5 593.1,230.1 609.0,231.2 624.9,231.2 640.9,231.2 656.8,230.1 672.7,225.1 688.6,207.6 704.5,214.0 720.4,225.9 736.3,224.0 752.3,230.1 768.2,230.9 784.1,221.7 800.0,230.5"
            fill="none" stroke="#f28e2b"
            stroke-width="2" stroke-linejoin="round"
            stroke-dasharray="5,3"/>

  <!-- dots -->
  <circle cx="52.0" cy="228.9" r="3" fill="#4e79a7"/><circle cx="67.9" cy="228.2" r="3" fill="#4e79a7"/><circle cx="83.8" cy="229.7" r="3" fill="#4e79a7"/><circle cx="99.7" cy="205.6" r="3" fill="#4e79a7"/><circle cx="115.7" cy="204.1" r="3" fill="#4e79a7"/><circle cx="131.6" cy="216.0" r="3" fill="#4e79a7"/><circle cx="147.5" cy="217.5" r="3" fill="#4e79a7"/><circle cx="163.4" cy="189.2" r="3" fill="#4e79a7"/><circle cx="179.3" cy="202.2" r="3" fill="#4e79a7"/><circle cx="195.2" cy="209.1" r="3" fill="#4e79a7"/><circle cx="211.1" cy="86.1" r="3" fill="#4e79a7"/><circle cx="227.1" cy="222.1" r="3" fill="#4e79a7"/><circle cx="243.0" cy="180.8" r="3" fill="#4e79a7"/><circle cx="258.9" cy="200.7" r="3" fill="#4e79a7"/><circle cx="274.8" cy="171.6" r="3" fill="#4e79a7"/><circle cx="290.7" cy="204.1" r="3" fill="#4e79a7"/><circle cx="306.6" cy="202.6" r="3" fill="#4e79a7"/><circle cx="322.6" cy="213.3" r="3" fill="#4e79a7"/><circle cx="338.5" cy="223.2" r="3" fill="#4e79a7"/><circle cx="354.4" cy="229.3" r="3" fill="#4e79a7"/><circle cx="370.3" cy="230.1" r="3" fill="#4e79a7"/><circle cx="386.2" cy="224.0" r="3" fill="#4e79a7"/><circle cx="402.1" cy="225.5" r="3" fill="#4e79a7"/><circle cx="418.0" cy="228.9" r="3" fill="#4e79a7"/><circle cx="434.0" cy="223.2" r="3" fill="#4e79a7"/><circle cx="449.9" cy="230.1" r="3" fill="#4e79a7"/><circle cx="465.8" cy="228.2" r="3" fill="#4e79a7"/><circle cx="481.7" cy="223.6" r="3" fill="#4e79a7"/><circle cx="497.6" cy="213.7" r="3" fill="#4e79a7"/><circle cx="513.5" cy="226.7" r="3" fill="#4e79a7"/><circle cx="529.4" cy="223.2" r="3" fill="#4e79a7"/><circle cx="545.4" cy="230.9" r="3" fill="#4e79a7"/><circle cx="561.3" cy="37.2" r="3" fill="#4e79a7"/><circle cx="577.2" cy="28.0" r="3" fill="#4e79a7"/><circle cx="593.1" cy="225.9" r="3" fill="#4e79a7"/><circle cx="609.0" cy="225.1" r="3" fill="#4e79a7"/><circle cx="624.9" cy="221.7" r="3" fill="#4e79a7"/><circle cx="640.9" cy="225.1" r="3" fill="#4e79a7"/><circle cx="656.8" cy="219.0" r="3" fill="#4e79a7"/><circle cx="672.7" cy="172.8" r="3" fill="#4e79a7"/><circle cx="688.6" cy="67.0" r="3" fill="#4e79a7"/><circle cx="704.5" cy="101.0" r="3" fill="#4e79a7"/><circle cx="720.4" cy="213.3" r="3" fill="#4e79a7"/><circle cx="736.3" cy="217.9" r="3" fill="#4e79a7"/><circle cx="752.3" cy="227.8" r="3" fill="#4e79a7"/><circle cx="768.2" cy="230.9" r="3" fill="#4e79a7"/><circle cx="784.1" cy="160.9" r="3" fill="#4e79a7"/><circle cx="800.0" cy="228.9" r="3" fill="#4e79a7"/>
  <circle cx="52.0" cy="230.9" r="3" fill="#f28e2b"/><circle cx="67.9" cy="230.5" r="3" fill="#f28e2b"/><circle cx="83.8" cy="230.9" r="3" fill="#f28e2b"/><circle cx="99.7" cy="230.5" r="3" fill="#f28e2b"/><circle cx="115.7" cy="230.5" r="3" fill="#f28e2b"/><circle cx="131.6" cy="230.9" r="3" fill="#f28e2b"/><circle cx="147.5" cy="230.9" r="3" fill="#f28e2b"/><circle cx="163.4" cy="230.5" r="3" fill="#f28e2b"/><circle cx="179.3" cy="231.2" r="3" fill="#f28e2b"/><circle cx="195.2" cy="230.9" r="3" fill="#f28e2b"/><circle cx="211.1" cy="180.8" r="3" fill="#f28e2b"/><circle cx="227.1" cy="226.3" r="3" fill="#f28e2b"/><circle cx="243.0" cy="230.5" r="3" fill="#f28e2b"/><circle cx="258.9" cy="229.7" r="3" fill="#f28e2b"/><circle cx="274.8" cy="224.7" r="3" fill="#f28e2b"/><circle cx="290.7" cy="227.8" r="3" fill="#f28e2b"/><circle cx="306.6" cy="229.7" r="3" fill="#f28e2b"/><circle cx="322.6" cy="230.1" r="3" fill="#f28e2b"/><circle cx="338.5" cy="228.6" r="3" fill="#f28e2b"/><circle cx="354.4" cy="231.2" r="3" fill="#f28e2b"/><circle cx="370.3" cy="231.2" r="3" fill="#f28e2b"/><circle cx="386.2" cy="231.2" r="3" fill="#f28e2b"/><circle cx="402.1" cy="231.2" r="3" fill="#f28e2b"/><circle cx="418.0" cy="231.2" r="3" fill="#f28e2b"/><circle cx="434.0" cy="230.1" r="3" fill="#f28e2b"/><circle cx="449.9" cy="231.2" r="3" fill="#f28e2b"/><circle cx="465.8" cy="231.2" r="3" fill="#f28e2b"/><circle cx="481.7" cy="230.9" r="3" fill="#f28e2b"/><circle cx="497.6" cy="226.7" r="3" fill="#f28e2b"/><circle cx="513.5" cy="230.1" r="3" fill="#f28e2b"/><circle cx="529.4" cy="230.5" r="3" fill="#f28e2b"/><circle cx="545.4" cy="231.6" r="3" fill="#f28e2b"/><circle cx="561.3" cy="184.6" r="3" fill="#f28e2b"/><circle cx="577.2" cy="196.5" r="3" fill="#f28e2b"/><circle cx="593.1" cy="230.1" r="3" fill="#f28e2b"/><circle cx="609.0" cy="231.2" r="3" fill="#f28e2b"/><circle cx="624.9" cy="231.2" r="3" fill="#f28e2b"/><circle cx="640.9" cy="231.2" r="3" fill="#f28e2b"/><circle cx="656.8" cy="230.1" r="3" fill="#f28e2b"/><circle cx="672.7" cy="225.1" r="3" fill="#f28e2b"/><circle cx="688.6" cy="207.6" r="3" fill="#f28e2b"/><circle cx="704.5" cy="214.0" r="3" fill="#f28e2b"/><circle cx="720.4" cy="225.9" r="3" fill="#f28e2b"/><circle cx="736.3" cy="224.0" r="3" fill="#f28e2b"/><circle cx="752.3" cy="230.1" r="3" fill="#f28e2b"/><circle cx="768.2" cy="230.9" r="3" fill="#f28e2b"/><circle cx="784.1" cy="221.7" r="3" fill="#f28e2b"/><circle cx="800.0" cy="230.5" r="3" fill="#f28e2b"/>

  <!-- axes -->
  <line x1="52" y1="28" x2="52" y2="232"
        stroke="#cccccc" stroke-width="1"/>
  <line x1="52" y1="232" x2="800" y2="232"
        stroke="#cccccc" stroke-width="1"/>

  <!-- y-axis labels -->
  <text x="47" y="236.0" text-anchor="end" font-size="10" fill="#57606a" font-family="ui-monospace, SFMono-Regular, 'SF Mono', Menlo, monospace">0</text><text x="47" y="197.8" text-anchor="end" font-size="10" fill="#57606a" font-family="ui-monospace, SFMono-Regular, 'SF Mono', Menlo, monospace">100</text><text x="47" y="159.6" text-anchor="end" font-size="10" fill="#57606a" font-family="ui-monospace, SFMono-Regular, 'SF Mono', Menlo, monospace">200</text><text x="47" y="121.4" text-anchor="end" font-size="10" fill="#57606a" font-family="ui-monospace, SFMono-Regular, 'SF Mono', Menlo, monospace">300</text><text x="47" y="83.2" text-anchor="end" font-size="10" fill="#57606a" font-family="ui-monospace, SFMono-Regular, 'SF Mono', Menlo, monospace">400</text><text x="47" y="45.0" text-anchor="end" font-size="10" fill="#57606a" font-family="ui-monospace, SFMono-Regular, 'SF Mono', Menlo, monospace">500</text><text x="47" y="6.8" text-anchor="end" font-size="10" fill="#57606a" font-family="ui-monospace, SFMono-Regular, 'SF Mono', Menlo, monospace">600</text>

  <!-- x-axis labels -->
  <text x="52.0" y="248" text-anchor="middle" font-size="10" fill="#8c959f" font-family="ui-monospace, SFMono-Regular, 'SF Mono', Menlo, monospace">05-11</text><text x="624.9" y="248" text-anchor="middle" font-size="10" fill="#8c959f" font-family="ui-monospace, SFMono-Regular, 'SF Mono', Menlo, monospace">06-16</text><text x="147.5" y="248" text-anchor="middle" font-size="10" fill="#8c959f" font-family="ui-monospace, SFMono-Regular, 'SF Mono', Menlo, monospace">05-17</text><text x="720.4" y="248" text-anchor="middle" font-size="10" fill="#8c959f" font-family="ui-monospace, SFMono-Regular, 'SF Mono', Menlo, monospace">06-22</text><text x="243.0" y="248" text-anchor="middle" font-size="10" fill="#8c959f" font-family="ui-monospace, SFMono-Regular, 'SF Mono', Menlo, monospace">05-23</text><text x="800.0" y="248" text-anchor="middle" font-size="10" fill="#8c959f" font-family="ui-monospace, SFMono-Regular, 'SF Mono', Menlo, monospace">06-27</text><text x="338.5" y="248" text-anchor="middle" font-size="10" fill="#8c959f" font-family="ui-monospace, SFMono-Regular, 'SF Mono', Menlo, monospace">05-29</text><text x="434.0" y="248" text-anchor="middle" font-size="10" fill="#8c959f" font-family="ui-monospace, SFMono-Regular, 'SF Mono', Menlo, monospace">06-04</text><text x="529.4" y="248" text-anchor="middle" font-size="10" fill="#8c959f" font-family="ui-monospace, SFMono-Regular, 'SF Mono', Menlo, monospace">06-10</text>

  <!-- legend -->
  <rect x="60" y="262" width="16" height="3" fill="#4e79a7" rx="1"/><text x="80" y="268" font-size="11" fill="#57606a" font-family="-apple-system, BlinkMacSystemFont, 'Segoe UI', sans-serif">Total clones (4,087)</text><line x1="230" y1="264" x2="246" y2="264" stroke="#f28e2b" stroke-width="2" stroke-dasharray="5,3"/><text x="250" y="268" font-size="11" fill="#57606a" font-family="-apple-system, BlinkMacSystemFont, 'Segoe UI', sans-serif">Unique cloners</text>

</svg>