<svg xmlns="http://www.w3.org/2000/svg" viewBox="0 0 820 280" width="820" height="280">

  <!-- title -->
  <text x="52" y="18" font-size="13" font-weight="600"
        fill="#24292f" font-family="-apple-system, BlinkMacSystemFont, 'Segoe UI', sans-serif"
        >Clone traffic — script-helpers</text>
  <text x="800" y="18" font-size="10" fill="#8c959f"
        font-family="ui-monospace, SFMono-Regular, 'SF Mono', Menlo, monospace" text-anchor="end">2026-07-11</text>

  <!-- grid -->
  <line x1="52" y1="232.0" x2="800" y2="232.0" stroke="#e8e8e8" stroke-width="1"/><line x1="52" y1="193.8" x2="800" y2="193.8" stroke="#e8e8e8" stroke-width="1"/><line x1="52" y1="155.6" x2="800" y2="155.6" stroke="#e8e8e8" stroke-width="1"/><line x1="52" y1="117.4" x2="800" y2="117.4" stroke="#e8e8e8" stroke-width="1"/><line x1="52" y1="79.2" x2="800" y2="79.2" stroke="#e8e8e8" stroke-width="1"/><line x1="52" y1="41.0" x2="800" y2="41.0" stroke="#e8e8e8" stroke-width="1"/><line x1="52" y1="2.8" x2="800" y2="2.8" stroke="#e8e8e8" stroke-width="1"/>

  <!-- area fill -->
  <path d="M52.0,228.9 L52.0,228.9 L64.7,228.2 L77.4,229.7 L90.0,205.6 L102.7,204.1 L115.4,216.0 L128.1,217.5 L140.7,189.2 L153.4,202.2 L166.1,209.1 L178.8,86.1 L191.5,222.1 L204.1,180.8 L216.8,200.7 L229.5,171.6 L242.2,204.1 L254.8,202.6 L267.5,213.3 L280.2,223.2 L292.9,229.3 L305.6,230.1 L318.2,224.0 L330.9,225.5 L343.6,228.9 L356.3,223.2 L368.9,230.1 L381.6,228.2 L394.3,223.6 L407.0,213.7 L419.7,226.7 L432.3,223.2 L445.0,230.9 L457.7,37.2 L470.4,28.0 L483.1,225.9 L495.7,225.1 L508.4,221.7 L521.1,225.1 L533.8,219.0 L546.4,172.8 L559.1,67.0 L571.8,101.0 L584.5,213.3 L597.2,217.9 L609.8,227.8 L622.5,230.9 L635.2,160.9 L647.9,228.9 L660.5,230.9 L673.2,228.9 L685.9,228.2 L698.6,230.1 L711.3,231.6 L723.9,230.9 L736.6,227.4 L749.3,231.6 L762.0,228.2 L774.6,223.6 L787.3,231.2 L800.0,224.7 L800.0,232.0 L52.0,232.0Z" fill="#4e79a7" opacity="0.12"/>

  <!-- lines -->
  <polyline points="52.0,228.9 64.7,228.2 77.4,229.7 90.0,205.6 102.7,204.1 115.4,216.0 128.1,217.5 140.7,189.2 153.4,202.2 166.1,209.1 178.8,86.1 191.5,222.1 204.1,180.8 216.8,200.7 229.5,171.6 242.2,204.1 254.8,202.6 267.5,213.3 280.2,223.2 292.9,229.3 305.6,230.1 318.2,224.0 330.9,225.5 343.6,228.9 356.3,223.2 368.9,230.1 381.6,228.2 394.3,223.6 407.0,213.7 419.7,226.7 432.3,223.2 445.0,230.9 457.7,37.2 470.4,28.0 483.1,225.9 495.7,225.1 508.4,221.7 521.1,225.1 533.8,219.0 546.4,172.8 559.1,67.0 571.8,101.0 584.5,213.3 597.2,217.9 609.8,227.8 622.5,230.9 635.2,160.9 647.9,228.9 660.5,230.9 673.2,228.9 685.9,228.2 698.6,230.1 711.3,231.6 723.9,230.9 736.6,227.4 749.3,231.6 762.0,228.2 774.6,223.6 787.3,231.2 800.0,224.7"
            fill="none" stroke="#4e79a7"
            stroke-width="2" stroke-linejoin="round"/>
  <polyline points="52.0,230.9 64.7,230.5 77.4,230.9 90.0,230.5 102.7,230.5 115.4,230.9 128.1,230.9 140.7,230.5 153.4,231.2 166.1,230.9 178.8,180.8 191.5,226.3 204.1,230.5 216.8,229.7 229.5,224.7 242.2,227.8 254.8,229.7 267.5,230.1 280.2,228.6 292.9,231.2 305.6,231.2 318.2,231.2 330.9,231.2 343.6,231.2 356.3,230.1 368.9,231.2 381.6,231.2 394.3,230.9 407.0,226.7 419.7,230.1 432.3,230.5 445.0,231.6 457.7,184.6 470.4,196.5 483.1,230.1 495.7,231.2 508.4,231.2 521.1,231.2 533.8,230.1 546.4,225.1 559.1,207.6 571.8,214.0 584.5,225.9 597.2,224.0 609.8,230.1 622.5,230.9 635.2,221.7 647.9,230.5 660.5,231.2 673.2,230.5 685.9,230.5 698.6,231.2 711.3,231.6 723.9,231.2 736.6,230.5 749.3,231.6 762.0,230.5 774.6,231.2 787.3,231.6 800.0,230.1"
            fill="none" stroke="#f28e2b"
            stroke-width="2" stroke-linejoin="round"
            stroke-dasharray="5,3"/>

  <!-- dots -->
  <circle cx="52.0" cy="228.9" r="3" fill="#4e79a7"/><circle cx="64.7" cy="228.2" r="3" fill="#4e79a7"/><circle cx="77.4" cy="229.7" r="3" fill="#4e79a7"/><circle cx="90.0" cy="205.6" r="3" fill="#4e79a7"/><circle cx="102.7" cy="204.1" r="3" fill="#4e79a7"/><circle cx="115.4" cy="216.0" r="3" fill="#4e79a7"/><circle cx="128.1" cy="217.5" r="3" fill="#4e79a7"/><circle cx="140.7" cy="189.2" r="3" fill="#4e79a7"/><circle cx="153.4" cy="202.2" r="3" fill="#4e79a7"/><circle cx="166.1" cy="209.1" r="3" fill="#4e79a7"/><circle cx="178.8" cy="86.1" r="3" fill="#4e79a7"/><circle cx="191.5" cy="222.1" r="3" fill="#4e79a7"/><circle cx="204.1" cy="180.8" r="3" fill="#4e79a7"/><circle cx="216.8" cy="200.7" r="3" fill="#4e79a7"/><circle cx="229.5" cy="171.6" r="3" fill="#4e79a7"/><circle cx="242.2" cy="204.1" r="3" fill="#4e79a7"/><circle cx="254.8" cy="202.6" r="3" fill="#4e79a7"/><circle cx="267.5" cy="213.3" r="3" fill="#4e79a7"/><circle cx="280.2" cy="223.2" r="3" fill="#4e79a7"/><circle cx="292.9" cy="229.3" r="3" fill="#4e79a7"/><circle cx="305.6" cy="230.1" r="3" fill="#4e79a7"/><circle cx="318.2" cy="224.0" r="3" fill="#4e79a7"/><circle cx="330.9" cy="225.5" r="3" fill="#4e79a7"/><circle cx="343.6" cy="228.9" r="3" fill="#4e79a7"/><circle cx="356.3" cy="223.2" r="3" fill="#4e79a7"/><circle cx="368.9" cy="230.1" r="3" fill="#4e79a7"/><circle cx="381.6" cy="228.2" r="3" fill="#4e79a7"/><circle cx="394.3" cy="223.6" r="3" fill="#4e79a7"/><circle cx="407.0" cy="213.7" r="3" fill="#4e79a7"/><circle cx="419.7" cy="226.7" r="3" fill="#4e79a7"/><circle cx="432.3" cy="223.2" r="3" fill="#4e79a7"/><circle cx="445.0" cy="230.9" r="3" fill="#4e79a7"/><circle cx="457.7" cy="37.2" r="3" fill="#4e79a7"/><circle cx="470.4" cy="28.0" r="3" fill="#4e79a7"/><circle cx="483.1" cy="225.9" r="3" fill="#4e79a7"/><circle cx="495.7" cy="225.1" r="3" fill="#4e79a7"/><circle cx="508.4" cy="221.7" r="3" fill="#4e79a7"/><circle cx="521.1" cy="225.1" r="3" fill="#4e79a7"/><circle cx="533.8" cy="219.0" r="3" fill="#4e79a7"/><circle cx="546.4" cy="172.8" r="3" fill="#4e79a7"/><circle cx="559.1" cy="67.0" r="3" fill="#4e79a7"/><circle cx="571.8" cy="101.0" r="3" fill="#4e79a7"/><circle cx="584.5" cy="213.3" r="3" fill="#4e79a7"/><circle cx="597.2" cy="217.9" r="3" fill="#4e79a7"/><circle cx="609.8" cy="227.8" r="3" fill="#4e79a7"/><circle cx="622.5" cy="230.9" r="3" fill="#4e79a7"/><circle cx="635.2" cy="160.9" r="3" fill="#4e79a7"/><circle cx="647.9" cy="228.9" r="3" fill="#4e79a7"/><circle cx="660.5" cy="230.9" r="3" fill="#4e79a7"/><circle cx="673.2" cy="228.9" r="3" fill="#4e79a7"/><circle cx="685.9" cy="228.2" r="3" fill="#4e79a7"/><circle cx="698.6" cy="230.1" r="3" fill="#4e79a7"/><circle cx="711.3" cy="231.6" r="3" fill="#4e79a7"/><circle cx="723.9" cy="230.9" r="3" fill="#4e79a7"/><circle cx="736.6" cy="227.4" r="3" fill="#4e79a7"/><circle cx="749.3" cy="231.6" r="3" fill="#4e79a7"/><circle cx="762.0" cy="228.2" r="3" fill="#4e79a7"/><circle cx="774.6" cy="223.6" r="3" fill="#4e79a7"/><circle cx="787.3" cy="231.2" r="3" fill="#4e79a7"/><circle cx="800.0" cy="224.7" r="3" fill="#4e79a7"/>
  <circle cx="52.0" cy="230.9" r="3" fill="#f28e2b"/><circle cx="64.7" cy="230.5" r="3" fill="#f28e2b"/><circle cx="77.4" cy="230.9" r="3" fill="#f28e2b"/><circle cx="90.0" cy="230.5" r="3" fill="#f28e2b"/><circle cx="102.7" cy="230.5" r="3" fill="#f28e2b"/><circle cx="115.4" cy="230.9" r="3" fill="#f28e2b"/><circle cx="128.1" cy="230.9" r="3" fill="#f28e2b"/><circle cx="140.7" cy="230.5" r="3" fill="#f28e2b"/><circle cx="153.4" cy="231.2" r="3" fill="#f28e2b"/><circle cx="166.1" cy="230.9" r="3" fill="#f28e2b"/><circle cx="178.8" cy="180.8" r="3" fill="#f28e2b"/><circle cx="191.5" cy="226.3" r="3" fill="#f28e2b"/><circle cx="204.1" cy="230.5" r="3" fill="#f28e2b"/><circle cx="216.8" cy="229.7" r="3" fill="#f28e2b"/><circle cx="229.5" cy="224.7" r="3" fill="#f28e2b"/><circle cx="242.2" cy="227.8" r="3" fill="#f28e2b"/><circle cx="254.8" cy="229.7" r="3" fill="#f28e2b"/><circle cx="267.5" cy="230.1" r="3" fill="#f28e2b"/><circle cx="280.2" cy="228.6" r="3" fill="#f28e2b"/><circle cx="292.9" cy="231.2" r="3" fill="#f28e2b"/><circle cx="305.6" cy="231.2" r="3" fill="#f28e2b"/><circle cx="318.2" cy="231.2" r="3" fill="#f28e2b"/><circle cx="330.9" cy="231.2" r="3" fill="#f28e2b"/><circle cx="343.6" cy="231.2" r="3" fill="#f28e2b"/><circle cx="356.3" cy="230.1" r="3" fill="#f28e2b"/><circle cx="368.9" cy="231.2" r="3" fill="#f28e2b"/><circle cx="381.6" cy="231.2" r="3" fill="#f28e2b"/><circle cx="394.3" cy="230.9" r="3" fill="#f28e2b"/><circle cx="407.0" cy="226.7" r="3" fill="#f28e2b"/><circle cx="419.7" cy="230.1" r="3" fill="#f28e2b"/><circle cx="432.3" cy="230.5" r="3" fill="#f28e2b"/><circle cx="445.0" cy="231.6" r="3" fill="#f28e2b"/><circle cx="457.7" cy="184.6" r="3" fill="#f28e2b"/><circle cx="470.4" cy="196.5" r="3" fill="#f28e2b"/><circle cx="483.1" cy="230.1" r="3" fill="#f28e2b"/><circle cx="495.7" cy="231.2" r="3" fill="#f28e2b"/><circle cx="508.4" cy="231.2" r="3" fill="#f28e2b"/><circle cx="521.1" cy="231.2" r="3" fill="#f28e2b"/><circle cx="533.8" cy="230.1" r="3" fill="#f28e2b"/><circle cx="546.4" cy="225.1" r="3" fill="#f28e2b"/><circle cx="559.1" cy="207.6" r="3" fill="#f28e2b"/><circle cx="571.8" cy="214.0" r="3" fill="#f28e2b"/><circle cx="584.5" cy="225.9" r="3" fill="#f28e2b"/><circle cx="597.2" cy="224.0" r="3" fill="#f28e2b"/><circle cx="609.8" cy="230.1" r="3" fill="#f28e2b"/><circle cx="622.5" cy="230.9" r="3" fill="#f28e2b"/><circle cx="635.2" cy="221.7" r="3" fill="#f28e2b"/><circle cx="647.9" cy="230.5" r="3" fill="#f28e2b"/><circle cx="660.5" cy="231.2" r="3" fill="#f28e2b"/><circle cx="673.2" cy="230.5" r="3" fill="#f28e2b"/><circle cx="685.9" cy="230.5" r="3" fill="#f28e2b"/><circle cx="698.6" cy="231.2" r="3" fill="#f28e2b"/><circle cx="711.3" cy="231.6" r="3" fill="#f28e2b"/><circle cx="723.9" cy="231.2" r="3" fill="#f28e2b"/><circle cx="736.6" cy="230.5" r="3" fill="#f28e2b"/><circle cx="749.3" cy="231.6" r="3" fill="#f28e2b"/><circle cx="762.0" cy="230.5" r="3" fill="#f28e2b"/><circle cx="774.6" cy="231.2" r="3" fill="#f28e2b"/><circle cx="787.3" cy="231.6" r="3" fill="#f28e2b"/><circle cx="800.0" cy="230.1" r="3" fill="#f28e2b"/>

  <!-- axes -->
  <line x1="52" y1="28" x2="52" y2="232"
        stroke="#cccccc" stroke-width="1"/>
  <line x1="52" y1="232" x2="800" y2="232"
        stroke="#cccccc" stroke-width="1"/>

  <!-- y-axis labels -->
  <text x="47" y="236.0" text-anchor="end" font-size="10" fill="#57606a" font-family="ui-monospace, SFMono-Regular, 'SF Mono', Menlo, monospace">0</text><text x="47" y="197.8" text-anchor="end" font-size="10" fill="#57606a" font-family="ui-monospace, SFMono-Regular, 'SF Mono', Menlo, monospace">100</text><text x="47" y="159.6" text-anchor="end" font-size="10" fill="#57606a" font-family="ui-monospace, SFMono-Regular, 'SF Mono', Menlo, monospace">200</text><text x="47" y="121.4" text-anchor="end" font-size="10" fill="#57606a" font-family="ui-monospace, SFMono-Regular, 'SF Mono', Menlo, monospace">300</text><text x="47" y="83.2" text-anchor="end" font-size="10" fill="#57606a" font-family="ui-monospace, SFMono-Regular, 'SF Mono', Menlo, monospace">400</text><text x="47" y="45.0" text-anchor="end" font-size="10" fill="#57606a" font-family="ui-monospace, SFMono-Regular, 'SF Mono', Menlo, monospace">500</text><text x="47" y="6.8" text-anchor="end" font-size="10" fill="#57606a" font-family="ui-monospace, SFMono-Regular, 'SF Mono', Menlo, monospace">600</text>

  <!-- x-axis labels -->
  <text x="52.0" y="248" text-anchor="middle" font-size="10" fill="#8c959f" font-family="ui-monospace, SFMono-Regular, 'SF Mono', Menlo, monospace">05-11</text><text x="495.7" y="248" text-anchor="middle" font-size="10" fill="#8c959f" font-family="ui-monospace, SFMono-Regular, 'SF Mono', Menlo, monospace">06-15</text><text x="140.7" y="248" text-anchor="middle" font-size="10" fill="#8c959f" font-family="ui-monospace, SFMono-Regular, 'SF Mono', Menlo, monospace">05-18</text><text x="584.5" y="248" text-anchor="middle" font-size="10" fill="#8c959f" font-family="ui-monospace, SFMono-Regular, 'SF Mono', Menlo, monospace">06-22</text><text x="229.5" y="248" text-anchor="middle" font-size="10" fill="#8c959f" font-family="ui-monospace, SFMono-Regular, 'SF Mono', Menlo, monospace">05-25</text><text x="673.2" y="248" text-anchor="middle" font-size="10" fill="#8c959f" font-family="ui-monospace, SFMono-Regular, 'SF Mono', Menlo, monospace">06-29</text><text x="318.2" y="248" text-anchor="middle" font-size="10" fill="#8c959f" font-family="ui-monospace, SFMono-Regular, 'SF Mono', Menlo, monospace">06-01</text><text x="762.0" y="248" text-anchor="middle" font-size="10" fill="#8c959f" font-family="ui-monospace, SFMono-Regular, 'SF Mono', Menlo, monospace">07-06</text><text x="800.0" y="248" text-anchor="middle" font-size="10" fill="#8c959f" font-family="ui-monospace, SFMono-Regular, 'SF Mono', Menlo, monospace">07-09</text><text x="407.0" y="248" text-anchor="middle" font-size="10" fill="#8c959f" font-family="ui-monospace, SFMono-Regular, 'SF Mono', Menlo, monospace">06-08</text>

  <!-- legend -->
  <rect x="60" y="262" width="16" height="3" fill="#4e79a7" rx="1"/><text x="80" y="268" font-size="11" fill="#57606a" font-family="-apple-system, BlinkMacSystemFont, 'Segoe UI', sans-serif">Total clones (4,183)</text><line x1="230" y1="264" x2="246" y2="264" stroke="#f28e2b" stroke-width="2" stroke-dasharray="5,3"/><text x="250" y="268" font-size="11" fill="#57606a" font-family="-apple-system, BlinkMacSystemFont, 'Segoe UI', sans-serif">Unique cloners</text>

</svg>