<svg xmlns="http://www.w3.org/2000/svg" viewBox="0 0 820 280" width="820" height="280">

  <!-- title -->
  <text x="52" y="18" font-size="13" font-weight="600"
        fill="#24292f" font-family="-apple-system, BlinkMacSystemFont, 'Segoe UI', sans-serif"
        >Clone traffic — script-helpers</text>
  <text x="800" y="18" font-size="10" fill="#8c959f"
        font-family="ui-monospace, SFMono-Regular, 'SF Mono', Menlo, monospace" text-anchor="end">2026-06-03</text>

  <!-- grid -->
  <line x1="52" y1="232.0" x2="800" y2="232.0" stroke="#e8e8e8" stroke-width="1"/><line x1="52" y1="189.3" x2="800" y2="189.3" stroke="#e8e8e8" stroke-width="1"/><line x1="52" y1="146.6" x2="800" y2="146.6" stroke="#e8e8e8" stroke-width="1"/><line x1="52" y1="103.8" x2="800" y2="103.8" stroke="#e8e8e8" stroke-width="1"/><line x1="52" y1="61.1" x2="800" y2="61.1" stroke="#e8e8e8" stroke-width="1"/><line x1="52" y1="18.4" x2="800" y2="18.4" stroke="#e8e8e8" stroke-width="1"/>

  <!-- area fill -->
  <path d="M52.0,227.7 L52.0,227.7 L87.6,226.7 L123.2,228.8 L158.9,195.2 L194.5,193.0 L230.1,209.6 L265.7,211.7 L301.3,172.2 L337.0,190.3 L372.6,200.0 L408.2,28.0 L443.8,218.1 L479.4,160.4 L515.0,188.2 L550.7,147.6 L586.3,193.0 L621.9,190.9 L657.5,205.8 L693.1,219.7 L728.8,228.3 L764.4,229.3 L800.0,220.8 L800.0,232.0 L52.0,232.0Z" fill="#4e79a7" opacity="0.12"/>

  <!-- lines -->
  <polyline points="52.0,227.7 87.6,226.7 123.2,228.8 158.9,195.2 194.5,193.0 230.1,209.6 265.7,211.7 301.3,172.2 337.0,190.3 372.6,200.0 408.2,28.0 443.8,218.1 479.4,160.4 515.0,188.2 550.7,147.6 586.3,193.0 621.9,190.9 657.5,205.8 693.1,219.7 728.8,228.3 764.4,229.3 800.0,220.8"
            fill="none" stroke="#4e79a7"
            stroke-width="2" stroke-linejoin="round"/>
  <polyline points="52.0,230.4 87.6,229.9 123.2,230.4 158.9,229.9 194.5,229.9 230.1,230.4 265.7,230.4 301.3,229.9 337.0,230.9 372.6,230.4 408.2,160.4 443.8,224.0 479.4,229.9 515.0,228.8 550.7,221.9 586.3,226.1 621.9,228.8 657.5,229.3 693.1,227.2 728.8,230.9 764.4,230.9 800.0,230.9"
            fill="none" stroke="#f28e2b"
            stroke-width="2" stroke-linejoin="round"
            stroke-dasharray="5,3"/>

  <!-- dots -->
  <circle cx="52.0" cy="227.7" r="3" fill="#4e79a7"/><circle cx="87.6" cy="226.7" r="3" fill="#4e79a7"/><circle cx="123.2" cy="228.8" r="3" fill="#4e79a7"/><circle cx="158.9" cy="195.2" r="3" fill="#4e79a7"/><circle cx="194.5" cy="193.0" r="3" fill="#4e79a7"/><circle cx="230.1" cy="209.6" r="3" fill="#4e79a7"/><circle cx="265.7" cy="211.7" r="3" fill="#4e79a7"/><circle cx="301.3" cy="172.2" r="3" fill="#4e79a7"/><circle cx="337.0" cy="190.3" r="3" fill="#4e79a7"/><circle cx="372.6" cy="200.0" r="3" fill="#4e79a7"/><circle cx="408.2" cy="28.0" r="3" fill="#4e79a7"/><circle cx="443.8" cy="218.1" r="3" fill="#4e79a7"/><circle cx="479.4" cy="160.4" r="3" fill="#4e79a7"/><circle cx="515.0" cy="188.2" r="3" fill="#4e79a7"/><circle cx="550.7" cy="147.6" r="3" fill="#4e79a7"/><circle cx="586.3" cy="193.0" r="3" fill="#4e79a7"/><circle cx="621.9" cy="190.9" r="3" fill="#4e79a7"/><circle cx="657.5" cy="205.8" r="3" fill="#4e79a7"/><circle cx="693.1" cy="219.7" r="3" fill="#4e79a7"/><circle cx="728.8" cy="228.3" r="3" fill="#4e79a7"/><circle cx="764.4" cy="229.3" r="3" fill="#4e79a7"/><circle cx="800.0" cy="220.8" r="3" fill="#4e79a7"/>
  <circle cx="52.0" cy="230.4" r="3" fill="#f28e2b"/><circle cx="87.6" cy="229.9" r="3" fill="#f28e2b"/><circle cx="123.2" cy="230.4" r="3" fill="#f28e2b"/><circle cx="158.9" cy="229.9" r="3" fill="#f28e2b"/><circle cx="194.5" cy="229.9" r="3" fill="#f28e2b"/><circle cx="230.1" cy="230.4" r="3" fill="#f28e2b"/><circle cx="265.7" cy="230.4" r="3" fill="#f28e2b"/><circle cx="301.3" cy="229.9" r="3" fill="#f28e2b"/><circle cx="337.0" cy="230.9" r="3" fill="#f28e2b"/><circle cx="372.6" cy="230.4" r="3" fill="#f28e2b"/><circle cx="408.2" cy="160.4" r="3" fill="#f28e2b"/><circle cx="443.8" cy="224.0" r="3" fill="#f28e2b"/><circle cx="479.4" cy="229.9" r="3" fill="#f28e2b"/><circle cx="515.0" cy="228.8" r="3" fill="#f28e2b"/><circle cx="550.7" cy="221.9" r="3" fill="#f28e2b"/><circle cx="586.3" cy="226.1" r="3" fill="#f28e2b"/><circle cx="621.9" cy="228.8" r="3" fill="#f28e2b"/><circle cx="657.5" cy="229.3" r="3" fill="#f28e2b"/><circle cx="693.1" cy="227.2" r="3" fill="#f28e2b"/><circle cx="728.8" cy="230.9" r="3" fill="#f28e2b"/><circle cx="764.4" cy="230.9" r="3" fill="#f28e2b"/><circle cx="800.0" cy="230.9" r="3" fill="#f28e2b"/>

  <!-- axes -->
  <line x1="52" y1="28" x2="52" y2="232"
        stroke="#cccccc" stroke-width="1"/>
  <line x1="52" y1="232" x2="800" y2="232"
        stroke="#cccccc" stroke-width="1"/>

  <!-- y-axis labels -->
  <text x="47" y="236.0" text-anchor="end" font-size="10" fill="#57606a" font-family="ui-monospace, SFMono-Regular, 'SF Mono', Menlo, monospace">0</text><text x="47" y="193.3" text-anchor="end" font-size="10" fill="#57606a" font-family="ui-monospace, SFMono-Regular, 'SF Mono', Menlo, monospace">80</text><text x="47" y="150.6" text-anchor="end" font-size="10" fill="#57606a" font-family="ui-monospace, SFMono-Regular, 'SF Mono', Menlo, monospace">160</text><text x="47" y="107.8" text-anchor="end" font-size="10" fill="#57606a" font-family="ui-monospace, SFMono-Regular, 'SF Mono', Menlo, monospace">240</text><text x="47" y="65.1" text-anchor="end" font-size="10" fill="#57606a" font-family="ui-monospace, SFMono-Regular, 'SF Mono', Menlo, monospace">320</text><text x="47" y="22.4" text-anchor="end" font-size="10" fill="#57606a" font-family="ui-monospace, SFMono-Regular, 'SF Mono', Menlo, monospace">400</text>

  <!-- x-axis labels -->
  <text x="52.0" y="248" text-anchor="middle" font-size="10" fill="#8c959f" font-family="ui-monospace, SFMono-Regular, 'SF Mono', Menlo, monospace">05-11</text><text x="123.2" y="248" text-anchor="middle" font-size="10" fill="#8c959f" font-family="ui-monospace, SFMono-Regular, 'SF Mono', Menlo, monospace">05-13</text><text x="194.5" y="248" text-anchor="middle" font-size="10" fill="#8c959f" font-family="ui-monospace, SFMono-Regular, 'SF Mono', Menlo, monospace">05-15</text><text x="265.7" y="248" text-anchor="middle" font-size="10" fill="#8c959f" font-family="ui-monospace, SFMono-Regular, 'SF Mono', Menlo, monospace">05-17</text><text x="337.0" y="248" text-anchor="middle" font-size="10" fill="#8c959f" font-family="ui-monospace, SFMono-Regular, 'SF Mono', Menlo, monospace">05-19</text><text x="408.2" y="248" text-anchor="middle" font-size="10" fill="#8c959f" font-family="ui-monospace, SFMono-Regular, 'SF Mono', Menlo, monospace">05-21</text><text x="479.4" y="248" text-anchor="middle" font-size="10" fill="#8c959f" font-family="ui-monospace, SFMono-Regular, 'SF Mono', Menlo, monospace">05-23</text><text x="550.7" y="248" text-anchor="middle" font-size="10" fill="#8c959f" font-family="ui-monospace, SFMono-Regular, 'SF Mono', Menlo, monospace">05-25</text><text x="621.9" y="248" text-anchor="middle" font-size="10" fill="#8c959f" font-family="ui-monospace, SFMono-Regular, 'SF Mono', Menlo, monospace">05-27</text><text x="693.1" y="248" text-anchor="middle" font-size="10" fill="#8c959f" font-family="ui-monospace, SFMono-Regular, 'SF Mono', Menlo, monospace">05-29</text><text x="764.4" y="248" text-anchor="middle" font-size="10" fill="#8c959f" font-family="ui-monospace, SFMono-Regular, 'SF Mono', Menlo, monospace">05-31</text><text x="800.0" y="248" text-anchor="middle" font-size="10" fill="#8c959f" font-family="ui-monospace, SFMono-Regular, 'SF Mono', Menlo, monospace">06-01</text>

  <!-- legend -->
  <rect x="60" y="262" width="16" height="3" fill="#4e79a7" rx="1"/><text x="80" y="268" font-size="11" fill="#57606a" font-family="-apple-system, BlinkMacSystemFont, 'Segoe UI', sans-serif">Total clones (1,533)</text><line x1="230" y1="264" x2="246" y2="264" stroke="#f28e2b" stroke-width="2" stroke-dasharray="5,3"/><text x="250" y="268" font-size="11" fill="#57606a" font-family="-apple-system, BlinkMacSystemFont, 'Segoe UI', sans-serif">Unique cloners</text>

</svg>