<svg xmlns="http://www.w3.org/2000/svg" viewBox="0 0 820 280" width="820" height="280">

  <!-- title -->
  <text x="52" y="18" font-size="13" font-weight="600"
        fill="#24292f" font-family="-apple-system, BlinkMacSystemFont, 'Segoe UI', sans-serif"
        >Clone traffic — script-helpers</text>
  <text x="800" y="18" font-size="10" fill="#8c959f"
        font-family="ui-monospace, SFMono-Regular, 'SF Mono', Menlo, monospace" text-anchor="end">2026-06-16</text>

  <!-- grid -->
  <line x1="52" y1="232.0" x2="800" y2="232.0" stroke="#e8e8e8" stroke-width="1"/><line x1="52" y1="193.8" x2="800" y2="193.8" stroke="#e8e8e8" stroke-width="1"/><line x1="52" y1="155.6" x2="800" y2="155.6" stroke="#e8e8e8" stroke-width="1"/><line x1="52" y1="117.4" x2="800" y2="117.4" stroke="#e8e8e8" stroke-width="1"/><line x1="52" y1="79.2" x2="800" y2="79.2" stroke="#e8e8e8" stroke-width="1"/><line x1="52" y1="41.0" x2="800" y2="41.0" stroke="#e8e8e8" stroke-width="1"/><line x1="52" y1="2.8" x2="800" y2="2.8" stroke="#e8e8e8" stroke-width="1"/>

  <!-- area fill -->
  <path d="M52.0,228.9 L52.0,228.9 L74.0,228.2 L96.0,229.7 L118.0,205.6 L140.0,204.1 L162.0,216.0 L184.0,217.5 L206.0,189.2 L228.0,202.2 L250.0,209.1 L272.0,86.1 L294.0,222.1 L316.0,180.8 L338.0,200.7 L360.0,171.6 L382.0,204.1 L404.0,202.6 L426.0,213.3 L448.0,223.2 L470.0,229.3 L492.0,230.1 L514.0,224.0 L536.0,225.5 L558.0,228.9 L580.0,223.2 L602.0,230.1 L624.0,228.2 L646.0,223.6 L668.0,213.7 L690.0,226.7 L712.0,223.2 L734.0,230.9 L756.0,37.2 L778.0,28.0 L800.0,225.9 L800.0,232.0 L52.0,232.0Z" fill="#4e79a7" opacity="0.12"/>

  <!-- lines -->
  <polyline points="52.0,228.9 74.0,228.2 96.0,229.7 118.0,205.6 140.0,204.1 162.0,216.0 184.0,217.5 206.0,189.2 228.0,202.2 250.0,209.1 272.0,86.1 294.0,222.1 316.0,180.8 338.0,200.7 360.0,171.6 382.0,204.1 404.0,202.6 426.0,213.3 448.0,223.2 470.0,229.3 492.0,230.1 514.0,224.0 536.0,225.5 558.0,228.9 580.0,223.2 602.0,230.1 624.0,228.2 646.0,223.6 668.0,213.7 690.0,226.7 712.0,223.2 734.0,230.9 756.0,37.2 778.0,28.0 800.0,225.9"
            fill="none" stroke="#4e79a7"
            stroke-width="2" stroke-linejoin="round"/>
  <polyline points="52.0,230.9 74.0,230.5 96.0,230.9 118.0,230.5 140.0,230.5 162.0,230.9 184.0,230.9 206.0,230.5 228.0,231.2 250.0,230.9 272.0,180.8 294.0,226.3 316.0,230.5 338.0,229.7 360.0,224.7 382.0,227.8 404.0,229.7 426.0,230.1 448.0,228.6 470.0,231.2 492.0,231.2 514.0,231.2 536.0,231.2 558.0,231.2 580.0,230.1 602.0,231.2 624.0,231.2 646.0,230.9 668.0,226.7 690.0,230.1 712.0,230.5 734.0,231.6 756.0,184.6 778.0,196.5 800.0,230.1"
            fill="none" stroke="#f28e2b"
            stroke-width="2" stroke-linejoin="round"
            stroke-dasharray="5,3"/>

  <!-- dots -->
  <circle cx="52.0" cy="228.9" r="3" fill="#4e79a7"/><circle cx="74.0" cy="228.2" r="3" fill="#4e79a7"/><circle cx="96.0" cy="229.7" r="3" fill="#4e79a7"/><circle cx="118.0" cy="205.6" r="3" fill="#4e79a7"/><circle cx="140.0" cy="204.1" r="3" fill="#4e79a7"/><circle cx="162.0" cy="216.0" r="3" fill="#4e79a7"/><circle cx="184.0" cy="217.5" r="3" fill="#4e79a7"/><circle cx="206.0" cy="189.2" r="3" fill="#4e79a7"/><circle cx="228.0" cy="202.2" r="3" fill="#4e79a7"/><circle cx="250.0" cy="209.1" r="3" fill="#4e79a7"/><circle cx="272.0" cy="86.1" r="3" fill="#4e79a7"/><circle cx="294.0" cy="222.1" r="3" fill="#4e79a7"/><circle cx="316.0" cy="180.8" r="3" fill="#4e79a7"/><circle cx="338.0" cy="200.7" r="3" fill="#4e79a7"/><circle cx="360.0" cy="171.6" r="3" fill="#4e79a7"/><circle cx="382.0" cy="204.1" r="3" fill="#4e79a7"/><circle cx="404.0" cy="202.6" r="3" fill="#4e79a7"/><circle cx="426.0" cy="213.3" r="3" fill="#4e79a7"/><circle cx="448.0" cy="223.2" r="3" fill="#4e79a7"/><circle cx="470.0" cy="229.3" r="3" fill="#4e79a7"/><circle cx="492.0" cy="230.1" r="3" fill="#4e79a7"/><circle cx="514.0" cy="224.0" r="3" fill="#4e79a7"/><circle cx="536.0" cy="225.5" r="3" fill="#4e79a7"/><circle cx="558.0" cy="228.9" r="3" fill="#4e79a7"/><circle cx="580.0" cy="223.2" r="3" fill="#4e79a7"/><circle cx="602.0" cy="230.1" r="3" fill="#4e79a7"/><circle cx="624.0" cy="228.2" r="3" fill="#4e79a7"/><circle cx="646.0" cy="223.6" r="3" fill="#4e79a7"/><circle cx="668.0" cy="213.7" r="3" fill="#4e79a7"/><circle cx="690.0" cy="226.7" r="3" fill="#4e79a7"/><circle cx="712.0" cy="223.2" r="3" fill="#4e79a7"/><circle cx="734.0" cy="230.9" r="3" fill="#4e79a7"/><circle cx="756.0" cy="37.2" r="3" fill="#4e79a7"/><circle cx="778.0" cy="28.0" r="3" fill="#4e79a7"/><circle cx="800.0" cy="225.9" r="3" fill="#4e79a7"/>
  <circle cx="52.0" cy="230.9" r="3" fill="#f28e2b"/><circle cx="74.0" cy="230.5" r="3" fill="#f28e2b"/><circle cx="96.0" cy="230.9" r="3" fill="#f28e2b"/><circle cx="118.0" cy="230.5" r="3" fill="#f28e2b"/><circle cx="140.0" cy="230.5" r="3" fill="#f28e2b"/><circle cx="162.0" cy="230.9" r="3" fill="#f28e2b"/><circle cx="184.0" cy="230.9" r="3" fill="#f28e2b"/><circle cx="206.0" cy="230.5" r="3" fill="#f28e2b"/><circle cx="228.0" cy="231.2" r="3" fill="#f28e2b"/><circle cx="250.0" cy="230.9" r="3" fill="#f28e2b"/><circle cx="272.0" cy="180.8" r="3" fill="#f28e2b"/><circle cx="294.0" cy="226.3" r="3" fill="#f28e2b"/><circle cx="316.0" cy="230.5" r="3" fill="#f28e2b"/><circle cx="338.0" cy="229.7" r="3" fill="#f28e2b"/><circle cx="360.0" cy="224.7" r="3" fill="#f28e2b"/><circle cx="382.0" cy="227.8" r="3" fill="#f28e2b"/><circle cx="404.0" cy="229.7" r="3" fill="#f28e2b"/><circle cx="426.0" cy="230.1" r="3" fill="#f28e2b"/><circle cx="448.0" cy="228.6" r="3" fill="#f28e2b"/><circle cx="470.0" cy="231.2" r="3" fill="#f28e2b"/><circle cx="492.0" cy="231.2" r="3" fill="#f28e2b"/><circle cx="514.0" cy="231.2" r="3" fill="#f28e2b"/><circle cx="536.0" cy="231.2" r="3" fill="#f28e2b"/><circle cx="558.0" cy="231.2" r="3" fill="#f28e2b"/><circle cx="580.0" cy="230.1" r="3" fill="#f28e2b"/><circle cx="602.0" cy="231.2" r="3" fill="#f28e2b"/><circle cx="624.0" cy="231.2" r="3" fill="#f28e2b"/><circle cx="646.0" cy="230.9" r="3" fill="#f28e2b"/><circle cx="668.0" cy="226.7" r="3" fill="#f28e2b"/><circle cx="690.0" cy="230.1" r="3" fill="#f28e2b"/><circle cx="712.0" cy="230.5" r="3" fill="#f28e2b"/><circle cx="734.0" cy="231.6" r="3" fill="#f28e2b"/><circle cx="756.0" cy="184.6" r="3" fill="#f28e2b"/><circle cx="778.0" cy="196.5" r="3" fill="#f28e2b"/><circle cx="800.0" cy="230.1" r="3" fill="#f28e2b"/>

  <!-- axes -->
  <line x1="52" y1="28" x2="52" y2="232"
        stroke="#cccccc" stroke-width="1"/>
  <line x1="52" y1="232" x2="800" y2="232"
        stroke="#cccccc" stroke-width="1"/>

  <!-- y-axis labels -->
  <text x="47" y="236.0" text-anchor="end" font-size="10" fill="#57606a" font-family="ui-monospace, SFMono-Regular, 'SF Mono', Menlo, monospace">0</text><text x="47" y="197.8" text-anchor="end" font-size="10" fill="#57606a" font-family="ui-monospace, SFMono-Regular, 'SF Mono', Menlo, monospace">100</text><text x="47" y="159.6" text-anchor="end" font-size="10" fill="#57606a" font-family="ui-monospace, SFMono-Regular, 'SF Mono', Menlo, monospace">200</text><text x="47" y="121.4" text-anchor="end" font-size="10" fill="#57606a" font-family="ui-monospace, SFMono-Regular, 'SF Mono', Menlo, monospace">300</text><text x="47" y="83.2" text-anchor="end" font-size="10" fill="#57606a" font-family="ui-monospace, SFMono-Regular, 'SF Mono', Menlo, monospace">400</text><text x="47" y="45.0" text-anchor="end" font-size="10" fill="#57606a" font-family="ui-monospace, SFMono-Regular, 'SF Mono', Menlo, monospace">500</text><text x="47" y="6.8" text-anchor="end" font-size="10" fill="#57606a" font-family="ui-monospace, SFMono-Regular, 'SF Mono', Menlo, monospace">600</text>

  <!-- x-axis labels -->
  <text x="52.0" y="248" text-anchor="middle" font-size="10" fill="#8c959f" font-family="ui-monospace, SFMono-Regular, 'SF Mono', Menlo, monospace">05-11</text><text x="756.0" y="248" text-anchor="middle" font-size="10" fill="#8c959f" font-family="ui-monospace, SFMono-Regular, 'SF Mono', Menlo, monospace">06-12</text><text x="800.0" y="248" text-anchor="middle" font-size="10" fill="#8c959f" font-family="ui-monospace, SFMono-Regular, 'SF Mono', Menlo, monospace">06-14</text><text x="140.0" y="248" text-anchor="middle" font-size="10" fill="#8c959f" font-family="ui-monospace, SFMono-Regular, 'SF Mono', Menlo, monospace">05-15</text><text x="228.0" y="248" text-anchor="middle" font-size="10" fill="#8c959f" font-family="ui-monospace, SFMono-Regular, 'SF Mono', Menlo, monospace">05-19</text><text x="316.0" y="248" text-anchor="middle" font-size="10" fill="#8c959f" font-family="ui-monospace, SFMono-Regular, 'SF Mono', Menlo, monospace">05-23</text><text x="404.0" y="248" text-anchor="middle" font-size="10" fill="#8c959f" font-family="ui-monospace, SFMono-Regular, 'SF Mono', Menlo, monospace">05-27</text><text x="492.0" y="248" text-anchor="middle" font-size="10" fill="#8c959f" font-family="ui-monospace, SFMono-Regular, 'SF Mono', Menlo, monospace">05-31</text><text x="580.0" y="248" text-anchor="middle" font-size="10" fill="#8c959f" font-family="ui-monospace, SFMono-Regular, 'SF Mono', Menlo, monospace">06-04</text><text x="668.0" y="248" text-anchor="middle" font-size="10" fill="#8c959f" font-family="ui-monospace, SFMono-Regular, 'SF Mono', Menlo, monospace">06-08</text>

  <!-- legend -->
  <rect x="60" y="262" width="16" height="3" fill="#4e79a7" rx="1"/><text x="80" y="268" font-size="11" fill="#57606a" font-family="-apple-system, BlinkMacSystemFont, 'Segoe UI', sans-serif">Total clones (2,766)</text><line x1="230" y1="264" x2="246" y2="264" stroke="#f28e2b" stroke-width="2" stroke-dasharray="5,3"/><text x="250" y="268" font-size="11" fill="#57606a" font-family="-apple-system, BlinkMacSystemFont, 'Segoe UI', sans-serif">Unique cloners</text>

</svg>