<svg xmlns="http://www.w3.org/2000/svg" viewBox="0 0 820 280" width="820" height="280">

  <!-- title -->
  <text x="52" y="18" font-size="13" font-weight="600"
        fill="#24292f" font-family="-apple-system, BlinkMacSystemFont, 'Segoe UI', sans-serif"
        >Clone traffic — script-helpers</text>
  <text x="800" y="18" font-size="10" fill="#8c959f"
        font-family="ui-monospace, SFMono-Regular, 'SF Mono', Menlo, monospace" text-anchor="end">2026-07-08</text>

  <!-- grid -->
  <line x1="52" y1="232.0" x2="800" y2="232.0" stroke="#e8e8e8" stroke-width="1"/><line x1="52" y1="193.8" x2="800" y2="193.8" stroke="#e8e8e8" stroke-width="1"/><line x1="52" y1="155.6" x2="800" y2="155.6" stroke="#e8e8e8" stroke-width="1"/><line x1="52" y1="117.4" x2="800" y2="117.4" stroke="#e8e8e8" stroke-width="1"/><line x1="52" y1="79.2" x2="800" y2="79.2" stroke="#e8e8e8" stroke-width="1"/><line x1="52" y1="41.0" x2="800" y2="41.0" stroke="#e8e8e8" stroke-width="1"/><line x1="52" y1="2.8" x2="800" y2="2.8" stroke="#e8e8e8" stroke-width="1"/>

  <!-- area fill -->
  <path d="M52.0,228.9 L52.0,228.9 L65.4,228.2 L78.7,229.7 L92.1,205.6 L105.4,204.1 L118.8,216.0 L132.1,217.5 L145.5,189.2 L158.9,202.2 L172.2,209.1 L185.6,86.1 L198.9,222.1 L212.3,180.8 L225.6,200.7 L239.0,171.6 L252.4,204.1 L265.7,202.6 L279.1,213.3 L292.4,223.2 L305.8,229.3 L319.1,230.1 L332.5,224.0 L345.9,225.5 L359.2,228.9 L372.6,223.2 L385.9,230.1 L399.3,228.2 L412.6,223.6 L426.0,213.7 L439.4,226.7 L452.7,223.2 L466.1,230.9 L479.4,37.2 L492.8,28.0 L506.1,225.9 L519.5,225.1 L532.9,221.7 L546.2,225.1 L559.6,219.0 L572.9,172.8 L586.3,67.0 L599.6,101.0 L613.0,213.3 L626.4,217.9 L639.7,227.8 L653.1,230.9 L666.4,160.9 L679.8,228.9 L693.1,230.9 L706.5,228.9 L719.9,228.2 L733.2,230.1 L746.6,231.6 L759.9,230.9 L773.3,227.4 L786.6,231.6 L800.0,228.2 L800.0,232.0 L52.0,232.0Z" fill="#4e79a7" opacity="0.12"/>

  <!-- lines -->
  <polyline points="52.0,228.9 65.4,228.2 78.7,229.7 92.1,205.6 105.4,204.1 118.8,216.0 132.1,217.5 145.5,189.2 158.9,202.2 172.2,209.1 185.6,86.1 198.9,222.1 212.3,180.8 225.6,200.7 239.0,171.6 252.4,204.1 265.7,202.6 279.1,213.3 292.4,223.2 305.8,229.3 319.1,230.1 332.5,224.0 345.9,225.5 359.2,228.9 372.6,223.2 385.9,230.1 399.3,228.2 412.6,223.6 426.0,213.7 439.4,226.7 452.7,223.2 466.1,230.9 479.4,37.2 492.8,28.0 506.1,225.9 519.5,225.1 532.9,221.7 546.2,225.1 559.6,219.0 572.9,172.8 586.3,67.0 599.6,101.0 613.0,213.3 626.4,217.9 639.7,227.8 653.1,230.9 666.4,160.9 679.8,228.9 693.1,230.9 706.5,228.9 719.9,228.2 733.2,230.1 746.6,231.6 759.9,230.9 773.3,227.4 786.6,231.6 800.0,228.2"
            fill="none" stroke="#4e79a7"
            stroke-width="2" stroke-linejoin="round"/>
  <polyline points="52.0,230.9 65.4,230.5 78.7,230.9 92.1,230.5 105.4,230.5 118.8,230.9 132.1,230.9 145.5,230.5 158.9,231.2 172.2,230.9 185.6,180.8 198.9,226.3 212.3,230.5 225.6,229.7 239.0,224.7 252.4,227.8 265.7,229.7 279.1,230.1 292.4,228.6 305.8,231.2 319.1,231.2 332.5,231.2 345.9,231.2 359.2,231.2 372.6,230.1 385.9,231.2 399.3,231.2 412.6,230.9 426.0,226.7 439.4,230.1 452.7,230.5 466.1,231.6 479.4,184.6 492.8,196.5 506.1,230.1 519.5,231.2 532.9,231.2 546.2,231.2 559.6,230.1 572.9,225.1 586.3,207.6 599.6,214.0 613.0,225.9 626.4,224.0 639.7,230.1 653.1,230.9 666.4,221.7 679.8,230.5 693.1,231.2 706.5,230.5 719.9,230.5 733.2,231.2 746.6,231.6 759.9,231.2 773.3,230.5 786.6,231.6 800.0,230.5"
            fill="none" stroke="#f28e2b"
            stroke-width="2" stroke-linejoin="round"
            stroke-dasharray="5,3"/>

  <!-- dots -->
  <circle cx="52.0" cy="228.9" r="3" fill="#4e79a7"/><circle cx="65.4" cy="228.2" r="3" fill="#4e79a7"/><circle cx="78.7" cy="229.7" r="3" fill="#4e79a7"/><circle cx="92.1" cy="205.6" r="3" fill="#4e79a7"/><circle cx="105.4" cy="204.1" r="3" fill="#4e79a7"/><circle cx="118.8" cy="216.0" r="3" fill="#4e79a7"/><circle cx="132.1" cy="217.5" r="3" fill="#4e79a7"/><circle cx="145.5" cy="189.2" r="3" fill="#4e79a7"/><circle cx="158.9" cy="202.2" r="3" fill="#4e79a7"/><circle cx="172.2" cy="209.1" r="3" fill="#4e79a7"/><circle cx="185.6" cy="86.1" r="3" fill="#4e79a7"/><circle cx="198.9" cy="222.1" r="3" fill="#4e79a7"/><circle cx="212.3" cy="180.8" r="3" fill="#4e79a7"/><circle cx="225.6" cy="200.7" r="3" fill="#4e79a7"/><circle cx="239.0" cy="171.6" r="3" fill="#4e79a7"/><circle cx="252.4" cy="204.1" r="3" fill="#4e79a7"/><circle cx="265.7" cy="202.6" r="3" fill="#4e79a7"/><circle cx="279.1" cy="213.3" r="3" fill="#4e79a7"/><circle cx="292.4" cy="223.2" r="3" fill="#4e79a7"/><circle cx="305.8" cy="229.3" r="3" fill="#4e79a7"/><circle cx="319.1" cy="230.1" r="3" fill="#4e79a7"/><circle cx="332.5" cy="224.0" r="3" fill="#4e79a7"/><circle cx="345.9" cy="225.5" r="3" fill="#4e79a7"/><circle cx="359.2" cy="228.9" r="3" fill="#4e79a7"/><circle cx="372.6" cy="223.2" r="3" fill="#4e79a7"/><circle cx="385.9" cy="230.1" r="3" fill="#4e79a7"/><circle cx="399.3" cy="228.2" r="3" fill="#4e79a7"/><circle cx="412.6" cy="223.6" r="3" fill="#4e79a7"/><circle cx="426.0" cy="213.7" r="3" fill="#4e79a7"/><circle cx="439.4" cy="226.7" r="3" fill="#4e79a7"/><circle cx="452.7" cy="223.2" r="3" fill="#4e79a7"/><circle cx="466.1" cy="230.9" r="3" fill="#4e79a7"/><circle cx="479.4" cy="37.2" r="3" fill="#4e79a7"/><circle cx="492.8" cy="28.0" r="3" fill="#4e79a7"/><circle cx="506.1" cy="225.9" r="3" fill="#4e79a7"/><circle cx="519.5" cy="225.1" r="3" fill="#4e79a7"/><circle cx="532.9" cy="221.7" r="3" fill="#4e79a7"/><circle cx="546.2" cy="225.1" r="3" fill="#4e79a7"/><circle cx="559.6" cy="219.0" r="3" fill="#4e79a7"/><circle cx="572.9" cy="172.8" r="3" fill="#4e79a7"/><circle cx="586.3" cy="67.0" r="3" fill="#4e79a7"/><circle cx="599.6" cy="101.0" r="3" fill="#4e79a7"/><circle cx="613.0" cy="213.3" r="3" fill="#4e79a7"/><circle cx="626.4" cy="217.9" r="3" fill="#4e79a7"/><circle cx="639.7" cy="227.8" r="3" fill="#4e79a7"/><circle cx="653.1" cy="230.9" r="3" fill="#4e79a7"/><circle cx="666.4" cy="160.9" r="3" fill="#4e79a7"/><circle cx="679.8" cy="228.9" r="3" fill="#4e79a7"/><circle cx="693.1" cy="230.9" r="3" fill="#4e79a7"/><circle cx="706.5" cy="228.9" r="3" fill="#4e79a7"/><circle cx="719.9" cy="228.2" r="3" fill="#4e79a7"/><circle cx="733.2" cy="230.1" r="3" fill="#4e79a7"/><circle cx="746.6" cy="231.6" r="3" fill="#4e79a7"/><circle cx="759.9" cy="230.9" r="3" fill="#4e79a7"/><circle cx="773.3" cy="227.4" r="3" fill="#4e79a7"/><circle cx="786.6" cy="231.6" r="3" fill="#4e79a7"/><circle cx="800.0" cy="228.2" r="3" fill="#4e79a7"/>
  <circle cx="52.0" cy="230.9" r="3" fill="#f28e2b"/><circle cx="65.4" cy="230.5" r="3" fill="#f28e2b"/><circle cx="78.7" cy="230.9" r="3" fill="#f28e2b"/><circle cx="92.1" cy="230.5" r="3" fill="#f28e2b"/><circle cx="105.4" cy="230.5" r="3" fill="#f28e2b"/><circle cx="118.8" cy="230.9" r="3" fill="#f28e2b"/><circle cx="132.1" cy="230.9" r="3" fill="#f28e2b"/><circle cx="145.5" cy="230.5" r="3" fill="#f28e2b"/><circle cx="158.9" cy="231.2" r="3" fill="#f28e2b"/><circle cx="172.2" cy="230.9" r="3" fill="#f28e2b"/><circle cx="185.6" cy="180.8" r="3" fill="#f28e2b"/><circle cx="198.9" cy="226.3" r="3" fill="#f28e2b"/><circle cx="212.3" cy="230.5" r="3" fill="#f28e2b"/><circle cx="225.6" cy="229.7" r="3" fill="#f28e2b"/><circle cx="239.0" cy="224.7" r="3" fill="#f28e2b"/><circle cx="252.4" cy="227.8" r="3" fill="#f28e2b"/><circle cx="265.7" cy="229.7" r="3" fill="#f28e2b"/><circle cx="279.1" cy="230.1" r="3" fill="#f28e2b"/><circle cx="292.4" cy="228.6" r="3" fill="#f28e2b"/><circle cx="305.8" cy="231.2" r="3" fill="#f28e2b"/><circle cx="319.1" cy="231.2" r="3" fill="#f28e2b"/><circle cx="332.5" cy="231.2" r="3" fill="#f28e2b"/><circle cx="345.9" cy="231.2" r="3" fill="#f28e2b"/><circle cx="359.2" cy="231.2" r="3" fill="#f28e2b"/><circle cx="372.6" cy="230.1" r="3" fill="#f28e2b"/><circle cx="385.9" cy="231.2" r="3" fill="#f28e2b"/><circle cx="399.3" cy="231.2" r="3" fill="#f28e2b"/><circle cx="412.6" cy="230.9" r="3" fill="#f28e2b"/><circle cx="426.0" cy="226.7" r="3" fill="#f28e2b"/><circle cx="439.4" cy="230.1" r="3" fill="#f28e2b"/><circle cx="452.7" cy="230.5" r="3" fill="#f28e2b"/><circle cx="466.1" cy="231.6" r="3" fill="#f28e2b"/><circle cx="479.4" cy="184.6" r="3" fill="#f28e2b"/><circle cx="492.8" cy="196.5" r="3" fill="#f28e2b"/><circle cx="506.1" cy="230.1" r="3" fill="#f28e2b"/><circle cx="519.5" cy="231.2" r="3" fill="#f28e2b"/><circle cx="532.9" cy="231.2" r="3" fill="#f28e2b"/><circle cx="546.2" cy="231.2" r="3" fill="#f28e2b"/><circle cx="559.6" cy="230.1" r="3" fill="#f28e2b"/><circle cx="572.9" cy="225.1" r="3" fill="#f28e2b"/><circle cx="586.3" cy="207.6" r="3" fill="#f28e2b"/><circle cx="599.6" cy="214.0" r="3" fill="#f28e2b"/><circle cx="613.0" cy="225.9" r="3" fill="#f28e2b"/><circle cx="626.4" cy="224.0" r="3" fill="#f28e2b"/><circle cx="639.7" cy="230.1" r="3" fill="#f28e2b"/><circle cx="653.1" cy="230.9" r="3" fill="#f28e2b"/><circle cx="666.4" cy="221.7" r="3" fill="#f28e2b"/><circle cx="679.8" cy="230.5" r="3" fill="#f28e2b"/><circle cx="693.1" cy="231.2" r="3" fill="#f28e2b"/><circle cx="706.5" cy="230.5" r="3" fill="#f28e2b"/><circle cx="719.9" cy="230.5" r="3" fill="#f28e2b"/><circle cx="733.2" cy="231.2" r="3" fill="#f28e2b"/><circle cx="746.6" cy="231.6" r="3" fill="#f28e2b"/><circle cx="759.9" cy="231.2" r="3" fill="#f28e2b"/><circle cx="773.3" cy="230.5" r="3" fill="#f28e2b"/><circle cx="786.6" cy="231.6" r="3" fill="#f28e2b"/><circle cx="800.0" cy="230.5" r="3" fill="#f28e2b"/>

  <!-- axes -->
  <line x1="52" y1="28" x2="52" y2="232"
        stroke="#cccccc" stroke-width="1"/>
  <line x1="52" y1="232" x2="800" y2="232"
        stroke="#cccccc" stroke-width="1"/>

  <!-- y-axis labels -->
  <text x="47" y="236.0" text-anchor="end" font-size="10" fill="#57606a" font-family="ui-monospace, SFMono-Regular, 'SF Mono', Menlo, monospace">0</text><text x="47" y="197.8" text-anchor="end" font-size="10" fill="#57606a" font-family="ui-monospace, SFMono-Regular, 'SF Mono', Menlo, monospace">100</text><text x="47" y="159.6" text-anchor="end" font-size="10" fill="#57606a" font-family="ui-monospace, SFMono-Regular, 'SF Mono', Menlo, monospace">200</text><text x="47" y="121.4" text-anchor="end" font-size="10" fill="#57606a" font-family="ui-monospace, SFMono-Regular, 'SF Mono', Menlo, monospace">300</text><text x="47" y="83.2" text-anchor="end" font-size="10" fill="#57606a" font-family="ui-monospace, SFMono-Regular, 'SF Mono', Menlo, monospace">400</text><text x="47" y="45.0" text-anchor="end" font-size="10" fill="#57606a" font-family="ui-monospace, SFMono-Regular, 'SF Mono', Menlo, monospace">500</text><text x="47" y="6.8" text-anchor="end" font-size="10" fill="#57606a" font-family="ui-monospace, SFMono-Regular, 'SF Mono', Menlo, monospace">600</text>

  <!-- x-axis labels -->
  <text x="52.0" y="248" text-anchor="middle" font-size="10" fill="#8c959f" font-family="ui-monospace, SFMono-Regular, 'SF Mono', Menlo, monospace">05-11</text><text x="519.5" y="248" text-anchor="middle" font-size="10" fill="#8c959f" font-family="ui-monospace, SFMono-Regular, 'SF Mono', Menlo, monospace">06-15</text><text x="145.5" y="248" text-anchor="middle" font-size="10" fill="#8c959f" font-family="ui-monospace, SFMono-Regular, 'SF Mono', Menlo, monospace">05-18</text><text x="613.0" y="248" text-anchor="middle" font-size="10" fill="#8c959f" font-family="ui-monospace, SFMono-Regular, 'SF Mono', Menlo, monospace">06-22</text><text x="239.0" y="248" text-anchor="middle" font-size="10" fill="#8c959f" font-family="ui-monospace, SFMono-Regular, 'SF Mono', Menlo, monospace">05-25</text><text x="706.5" y="248" text-anchor="middle" font-size="10" fill="#8c959f" font-family="ui-monospace, SFMono-Regular, 'SF Mono', Menlo, monospace">06-29</text><text x="332.5" y="248" text-anchor="middle" font-size="10" fill="#8c959f" font-family="ui-monospace, SFMono-Regular, 'SF Mono', Menlo, monospace">06-01</text><text x="800.0" y="248" text-anchor="middle" font-size="10" fill="#8c959f" font-family="ui-monospace, SFMono-Regular, 'SF Mono', Menlo, monospace">07-06</text><text x="426.0" y="248" text-anchor="middle" font-size="10" fill="#8c959f" font-family="ui-monospace, SFMono-Regular, 'SF Mono', Menlo, monospace">06-08</text>

  <!-- legend -->
  <rect x="60" y="262" width="16" height="3" fill="#4e79a7" rx="1"/><text x="80" y="268" font-size="11" fill="#57606a" font-family="-apple-system, BlinkMacSystemFont, 'Segoe UI', sans-serif">Total clones (4,140)</text><line x1="230" y1="264" x2="246" y2="264" stroke="#f28e2b" stroke-width="2" stroke-dasharray="5,3"/><text x="250" y="268" font-size="11" fill="#57606a" font-family="-apple-system, BlinkMacSystemFont, 'Segoe UI', sans-serif">Unique cloners</text>

</svg>