<svg xmlns="http://www.w3.org/2000/svg" viewBox="0 0 820 280" width="820" height="280">

  <!-- title -->
  <text x="52" y="18" font-size="13" font-weight="600"
        fill="#24292f" font-family="-apple-system, BlinkMacSystemFont, 'Segoe UI', sans-serif"
        >Clone traffic — script-helpers</text>
  <text x="800" y="18" font-size="10" fill="#8c959f"
        font-family="ui-monospace, SFMono-Regular, 'SF Mono', Menlo, monospace" text-anchor="end">2026-07-09</text>

  <!-- grid -->
  <line x1="52" y1="232.0" x2="800" y2="232.0" stroke="#e8e8e8" stroke-width="1"/><line x1="52" y1="193.8" x2="800" y2="193.8" stroke="#e8e8e8" stroke-width="1"/><line x1="52" y1="155.6" x2="800" y2="155.6" stroke="#e8e8e8" stroke-width="1"/><line x1="52" y1="117.4" x2="800" y2="117.4" stroke="#e8e8e8" stroke-width="1"/><line x1="52" y1="79.2" x2="800" y2="79.2" stroke="#e8e8e8" stroke-width="1"/><line x1="52" y1="41.0" x2="800" y2="41.0" stroke="#e8e8e8" stroke-width="1"/><line x1="52" y1="2.8" x2="800" y2="2.8" stroke="#e8e8e8" stroke-width="1"/>

  <!-- area fill -->
  <path d="M52.0,228.9 L52.0,228.9 L65.1,228.2 L78.2,229.7 L91.4,205.6 L104.5,204.1 L117.6,216.0 L130.7,217.5 L143.9,189.2 L157.0,202.2 L170.1,209.1 L183.2,86.1 L196.4,222.1 L209.5,180.8 L222.6,200.7 L235.7,171.6 L248.8,204.1 L262.0,202.6 L275.1,213.3 L288.2,223.2 L301.3,229.3 L314.5,230.1 L327.6,224.0 L340.7,225.5 L353.8,228.9 L366.9,223.2 L380.1,230.1 L393.2,228.2 L406.3,223.6 L419.4,213.7 L432.6,226.7 L445.7,223.2 L458.8,230.9 L471.9,37.2 L485.1,28.0 L498.2,225.9 L511.3,225.1 L524.4,221.7 L537.5,225.1 L550.7,219.0 L563.8,172.8 L576.9,67.0 L590.0,101.0 L603.2,213.3 L616.3,217.9 L629.4,227.8 L642.5,230.9 L655.6,160.9 L668.8,228.9 L681.9,230.9 L695.0,228.9 L708.1,228.2 L721.3,230.1 L734.4,231.6 L747.5,230.9 L760.6,227.4 L773.8,231.6 L786.9,228.2 L800.0,223.6 L800.0,232.0 L52.0,232.0Z" fill="#4e79a7" opacity="0.12"/>

  <!-- lines -->
  <polyline points="52.0,228.9 65.1,228.2 78.2,229.7 91.4,205.6 104.5,204.1 117.6,216.0 130.7,217.5 143.9,189.2 157.0,202.2 170.1,209.1 183.2,86.1 196.4,222.1 209.5,180.8 222.6,200.7 235.7,171.6 248.8,204.1 262.0,202.6 275.1,213.3 288.2,223.2 301.3,229.3 314.5,230.1 327.6,224.0 340.7,225.5 353.8,228.9 366.9,223.2 380.1,230.1 393.2,228.2 406.3,223.6 419.4,213.7 432.6,226.7 445.7,223.2 458.8,230.9 471.9,37.2 485.1,28.0 498.2,225.9 511.3,225.1 524.4,221.7 537.5,225.1 550.7,219.0 563.8,172.8 576.9,67.0 590.0,101.0 603.2,213.3 616.3,217.9 629.4,227.8 642.5,230.9 655.6,160.9 668.8,228.9 681.9,230.9 695.0,228.9 708.1,228.2 721.3,230.1 734.4,231.6 747.5,230.9 760.6,227.4 773.8,231.6 786.9,228.2 800.0,223.6"
            fill="none" stroke="#4e79a7"
            stroke-width="2" stroke-linejoin="round"/>
  <polyline points="52.0,230.9 65.1,230.5 78.2,230.9 91.4,230.5 104.5,230.5 117.6,230.9 130.7,230.9 143.9,230.5 157.0,231.2 170.1,230.9 183.2,180.8 196.4,226.3 209.5,230.5 222.6,229.7 235.7,224.7 248.8,227.8 262.0,229.7 275.1,230.1 288.2,228.6 301.3,231.2 314.5,231.2 327.6,231.2 340.7,231.2 353.8,231.2 366.9,230.1 380.1,231.2 393.2,231.2 406.3,230.9 419.4,226.7 432.6,230.1 445.7,230.5 458.8,231.6 471.9,184.6 485.1,196.5 498.2,230.1 511.3,231.2 524.4,231.2 537.5,231.2 550.7,230.1 563.8,225.1 576.9,207.6 590.0,214.0 603.2,225.9 616.3,224.0 629.4,230.1 642.5,230.9 655.6,221.7 668.8,230.5 681.9,231.2 695.0,230.5 708.1,230.5 721.3,231.2 734.4,231.6 747.5,231.2 760.6,230.5 773.8,231.6 786.9,230.5 800.0,231.2"
            fill="none" stroke="#f28e2b"
            stroke-width="2" stroke-linejoin="round"
            stroke-dasharray="5,3"/>

  <!-- dots -->
  <circle cx="52.0" cy="228.9" r="3" fill="#4e79a7"/><circle cx="65.1" cy="228.2" r="3" fill="#4e79a7"/><circle cx="78.2" cy="229.7" r="3" fill="#4e79a7"/><circle cx="91.4" cy="205.6" r="3" fill="#4e79a7"/><circle cx="104.5" cy="204.1" r="3" fill="#4e79a7"/><circle cx="117.6" cy="216.0" r="3" fill="#4e79a7"/><circle cx="130.7" cy="217.5" r="3" fill="#4e79a7"/><circle cx="143.9" cy="189.2" r="3" fill="#4e79a7"/><circle cx="157.0" cy="202.2" r="3" fill="#4e79a7"/><circle cx="170.1" cy="209.1" r="3" fill="#4e79a7"/><circle cx="183.2" cy="86.1" r="3" fill="#4e79a7"/><circle cx="196.4" cy="222.1" r="3" fill="#4e79a7"/><circle cx="209.5" cy="180.8" r="3" fill="#4e79a7"/><circle cx="222.6" cy="200.7" r="3" fill="#4e79a7"/><circle cx="235.7" cy="171.6" r="3" fill="#4e79a7"/><circle cx="248.8" cy="204.1" r="3" fill="#4e79a7"/><circle cx="262.0" cy="202.6" r="3" fill="#4e79a7"/><circle cx="275.1" cy="213.3" r="3" fill="#4e79a7"/><circle cx="288.2" cy="223.2" r="3" fill="#4e79a7"/><circle cx="301.3" cy="229.3" r="3" fill="#4e79a7"/><circle cx="314.5" cy="230.1" r="3" fill="#4e79a7"/><circle cx="327.6" cy="224.0" r="3" fill="#4e79a7"/><circle cx="340.7" cy="225.5" r="3" fill="#4e79a7"/><circle cx="353.8" cy="228.9" r="3" fill="#4e79a7"/><circle cx="366.9" cy="223.2" r="3" fill="#4e79a7"/><circle cx="380.1" cy="230.1" r="3" fill="#4e79a7"/><circle cx="393.2" cy="228.2" r="3" fill="#4e79a7"/><circle cx="406.3" cy="223.6" r="3" fill="#4e79a7"/><circle cx="419.4" cy="213.7" r="3" fill="#4e79a7"/><circle cx="432.6" cy="226.7" r="3" fill="#4e79a7"/><circle cx="445.7" cy="223.2" r="3" fill="#4e79a7"/><circle cx="458.8" cy="230.9" r="3" fill="#4e79a7"/><circle cx="471.9" cy="37.2" r="3" fill="#4e79a7"/><circle cx="485.1" cy="28.0" r="3" fill="#4e79a7"/><circle cx="498.2" cy="225.9" r="3" fill="#4e79a7"/><circle cx="511.3" cy="225.1" r="3" fill="#4e79a7"/><circle cx="524.4" cy="221.7" r="3" fill="#4e79a7"/><circle cx="537.5" cy="225.1" r="3" fill="#4e79a7"/><circle cx="550.7" cy="219.0" r="3" fill="#4e79a7"/><circle cx="563.8" cy="172.8" r="3" fill="#4e79a7"/><circle cx="576.9" cy="67.0" r="3" fill="#4e79a7"/><circle cx="590.0" cy="101.0" r="3" fill="#4e79a7"/><circle cx="603.2" cy="213.3" r="3" fill="#4e79a7"/><circle cx="616.3" cy="217.9" r="3" fill="#4e79a7"/><circle cx="629.4" cy="227.8" r="3" fill="#4e79a7"/><circle cx="642.5" cy="230.9" r="3" fill="#4e79a7"/><circle cx="655.6" cy="160.9" r="3" fill="#4e79a7"/><circle cx="668.8" cy="228.9" r="3" fill="#4e79a7"/><circle cx="681.9" cy="230.9" r="3" fill="#4e79a7"/><circle cx="695.0" cy="228.9" r="3" fill="#4e79a7"/><circle cx="708.1" cy="228.2" r="3" fill="#4e79a7"/><circle cx="721.3" cy="230.1" r="3" fill="#4e79a7"/><circle cx="734.4" cy="231.6" r="3" fill="#4e79a7"/><circle cx="747.5" cy="230.9" r="3" fill="#4e79a7"/><circle cx="760.6" cy="227.4" r="3" fill="#4e79a7"/><circle cx="773.8" cy="231.6" r="3" fill="#4e79a7"/><circle cx="786.9" cy="228.2" r="3" fill="#4e79a7"/><circle cx="800.0" cy="223.6" r="3" fill="#4e79a7"/>
  <circle cx="52.0" cy="230.9" r="3" fill="#f28e2b"/><circle cx="65.1" cy="230.5" r="3" fill="#f28e2b"/><circle cx="78.2" cy="230.9" r="3" fill="#f28e2b"/><circle cx="91.4" cy="230.5" r="3" fill="#f28e2b"/><circle cx="104.5" cy="230.5" r="3" fill="#f28e2b"/><circle cx="117.6" cy="230.9" r="3" fill="#f28e2b"/><circle cx="130.7" cy="230.9" r="3" fill="#f28e2b"/><circle cx="143.9" cy="230.5" r="3" fill="#f28e2b"/><circle cx="157.0" cy="231.2" r="3" fill="#f28e2b"/><circle cx="170.1" cy="230.9" r="3" fill="#f28e2b"/><circle cx="183.2" cy="180.8" r="3" fill="#f28e2b"/><circle cx="196.4" cy="226.3" r="3" fill="#f28e2b"/><circle cx="209.5" cy="230.5" r="3" fill="#f28e2b"/><circle cx="222.6" cy="229.7" r="3" fill="#f28e2b"/><circle cx="235.7" cy="224.7" r="3" fill="#f28e2b"/><circle cx="248.8" cy="227.8" r="3" fill="#f28e2b"/><circle cx="262.0" cy="229.7" r="3" fill="#f28e2b"/><circle cx="275.1" cy="230.1" r="3" fill="#f28e2b"/><circle cx="288.2" cy="228.6" r="3" fill="#f28e2b"/><circle cx="301.3" cy="231.2" r="3" fill="#f28e2b"/><circle cx="314.5" cy="231.2" r="3" fill="#f28e2b"/><circle cx="327.6" cy="231.2" r="3" fill="#f28e2b"/><circle cx="340.7" cy="231.2" r="3" fill="#f28e2b"/><circle cx="353.8" cy="231.2" r="3" fill="#f28e2b"/><circle cx="366.9" cy="230.1" r="3" fill="#f28e2b"/><circle cx="380.1" cy="231.2" r="3" fill="#f28e2b"/><circle cx="393.2" cy="231.2" r="3" fill="#f28e2b"/><circle cx="406.3" cy="230.9" r="3" fill="#f28e2b"/><circle cx="419.4" cy="226.7" r="3" fill="#f28e2b"/><circle cx="432.6" cy="230.1" r="3" fill="#f28e2b"/><circle cx="445.7" cy="230.5" r="3" fill="#f28e2b"/><circle cx="458.8" cy="231.6" r="3" fill="#f28e2b"/><circle cx="471.9" cy="184.6" r="3" fill="#f28e2b"/><circle cx="485.1" cy="196.5" r="3" fill="#f28e2b"/><circle cx="498.2" cy="230.1" r="3" fill="#f28e2b"/><circle cx="511.3" cy="231.2" r="3" fill="#f28e2b"/><circle cx="524.4" cy="231.2" r="3" fill="#f28e2b"/><circle cx="537.5" cy="231.2" r="3" fill="#f28e2b"/><circle cx="550.7" cy="230.1" r="3" fill="#f28e2b"/><circle cx="563.8" cy="225.1" r="3" fill="#f28e2b"/><circle cx="576.9" cy="207.6" r="3" fill="#f28e2b"/><circle cx="590.0" cy="214.0" r="3" fill="#f28e2b"/><circle cx="603.2" cy="225.9" r="3" fill="#f28e2b"/><circle cx="616.3" cy="224.0" r="3" fill="#f28e2b"/><circle cx="629.4" cy="230.1" r="3" fill="#f28e2b"/><circle cx="642.5" cy="230.9" r="3" fill="#f28e2b"/><circle cx="655.6" cy="221.7" r="3" fill="#f28e2b"/><circle cx="668.8" cy="230.5" r="3" fill="#f28e2b"/><circle cx="681.9" cy="231.2" r="3" fill="#f28e2b"/><circle cx="695.0" cy="230.5" r="3" fill="#f28e2b"/><circle cx="708.1" cy="230.5" r="3" fill="#f28e2b"/><circle cx="721.3" cy="231.2" r="3" fill="#f28e2b"/><circle cx="734.4" cy="231.6" r="3" fill="#f28e2b"/><circle cx="747.5" cy="231.2" r="3" fill="#f28e2b"/><circle cx="760.6" cy="230.5" r="3" fill="#f28e2b"/><circle cx="773.8" cy="231.6" r="3" fill="#f28e2b"/><circle cx="786.9" cy="230.5" r="3" fill="#f28e2b"/><circle cx="800.0" cy="231.2" r="3" fill="#f28e2b"/>

  <!-- axes -->
  <line x1="52" y1="28" x2="52" y2="232"
        stroke="#cccccc" stroke-width="1"/>
  <line x1="52" y1="232" x2="800" y2="232"
        stroke="#cccccc" stroke-width="1"/>

  <!-- y-axis labels -->
  <text x="47" y="236.0" text-anchor="end" font-size="10" fill="#57606a" font-family="ui-monospace, SFMono-Regular, 'SF Mono', Menlo, monospace">0</text><text x="47" y="197.8" text-anchor="end" font-size="10" fill="#57606a" font-family="ui-monospace, SFMono-Regular, 'SF Mono', Menlo, monospace">100</text><text x="47" y="159.6" text-anchor="end" font-size="10" fill="#57606a" font-family="ui-monospace, SFMono-Regular, 'SF Mono', Menlo, monospace">200</text><text x="47" y="121.4" text-anchor="end" font-size="10" fill="#57606a" font-family="ui-monospace, SFMono-Regular, 'SF Mono', Menlo, monospace">300</text><text x="47" y="83.2" text-anchor="end" font-size="10" fill="#57606a" font-family="ui-monospace, SFMono-Regular, 'SF Mono', Menlo, monospace">400</text><text x="47" y="45.0" text-anchor="end" font-size="10" fill="#57606a" font-family="ui-monospace, SFMono-Regular, 'SF Mono', Menlo, monospace">500</text><text x="47" y="6.8" text-anchor="end" font-size="10" fill="#57606a" font-family="ui-monospace, SFMono-Regular, 'SF Mono', Menlo, monospace">600</text>

  <!-- x-axis labels -->
  <text x="52.0" y="248" text-anchor="middle" font-size="10" fill="#8c959f" font-family="ui-monospace, SFMono-Regular, 'SF Mono', Menlo, monospace">05-11</text><text x="511.3" y="248" text-anchor="middle" font-size="10" fill="#8c959f" font-family="ui-monospace, SFMono-Regular, 'SF Mono', Menlo, monospace">06-15</text><text x="143.9" y="248" text-anchor="middle" font-size="10" fill="#8c959f" font-family="ui-monospace, SFMono-Regular, 'SF Mono', Menlo, monospace">05-18</text><text x="603.2" y="248" text-anchor="middle" font-size="10" fill="#8c959f" font-family="ui-monospace, SFMono-Regular, 'SF Mono', Menlo, monospace">06-22</text><text x="235.7" y="248" text-anchor="middle" font-size="10" fill="#8c959f" font-family="ui-monospace, SFMono-Regular, 'SF Mono', Menlo, monospace">05-25</text><text x="695.0" y="248" text-anchor="middle" font-size="10" fill="#8c959f" font-family="ui-monospace, SFMono-Regular, 'SF Mono', Menlo, monospace">06-29</text><text x="327.6" y="248" text-anchor="middle" font-size="10" fill="#8c959f" font-family="ui-monospace, SFMono-Regular, 'SF Mono', Menlo, monospace">06-01</text><text x="786.9" y="248" text-anchor="middle" font-size="10" fill="#8c959f" font-family="ui-monospace, SFMono-Regular, 'SF Mono', Menlo, monospace">07-06</text><text x="800.0" y="248" text-anchor="middle" font-size="10" fill="#8c959f" font-family="ui-monospace, SFMono-Regular, 'SF Mono', Menlo, monospace">07-07</text><text x="419.4" y="248" text-anchor="middle" font-size="10" fill="#8c959f" font-family="ui-monospace, SFMono-Regular, 'SF Mono', Menlo, monospace">06-08</text>

  <!-- legend -->
  <rect x="60" y="262" width="16" height="3" fill="#4e79a7" rx="1"/><text x="80" y="268" font-size="11" fill="#57606a" font-family="-apple-system, BlinkMacSystemFont, 'Segoe UI', sans-serif">Total clones (4,162)</text><line x1="230" y1="264" x2="246" y2="264" stroke="#f28e2b" stroke-width="2" stroke-dasharray="5,3"/><text x="250" y="268" font-size="11" fill="#57606a" font-family="-apple-system, BlinkMacSystemFont, 'Segoe UI', sans-serif">Unique cloners</text>

</svg>