<svg xmlns="http://www.w3.org/2000/svg" viewBox="0 0 820 280" width="820" height="280">

  <!-- title -->
  <text x="52" y="18" font-size="13" font-weight="600"
        fill="#24292f" font-family="-apple-system, BlinkMacSystemFont, 'Segoe UI', sans-serif"
        >Clone traffic — script-helpers</text>
  <text x="800" y="18" font-size="10" fill="#8c959f"
        font-family="ui-monospace, SFMono-Regular, 'SF Mono', Menlo, monospace" text-anchor="end">2026-07-06</text>

  <!-- grid -->
  <line x1="52" y1="232.0" x2="800" y2="232.0" stroke="#e8e8e8" stroke-width="1"/><line x1="52" y1="193.8" x2="800" y2="193.8" stroke="#e8e8e8" stroke-width="1"/><line x1="52" y1="155.6" x2="800" y2="155.6" stroke="#e8e8e8" stroke-width="1"/><line x1="52" y1="117.4" x2="800" y2="117.4" stroke="#e8e8e8" stroke-width="1"/><line x1="52" y1="79.2" x2="800" y2="79.2" stroke="#e8e8e8" stroke-width="1"/><line x1="52" y1="41.0" x2="800" y2="41.0" stroke="#e8e8e8" stroke-width="1"/><line x1="52" y1="2.8" x2="800" y2="2.8" stroke="#e8e8e8" stroke-width="1"/>

  <!-- area fill -->
  <path d="M52.0,228.9 L52.0,228.9 L65.9,228.2 L79.7,229.7 L93.6,205.6 L107.4,204.1 L121.3,216.0 L135.1,217.5 L149.0,189.2 L162.8,202.2 L176.7,209.1 L190.5,86.1 L204.4,222.1 L218.2,180.8 L232.1,200.7 L245.9,171.6 L259.8,204.1 L273.6,202.6 L287.5,213.3 L301.3,223.2 L315.2,229.3 L329.0,230.1 L342.9,224.0 L356.7,225.5 L370.6,228.9 L384.4,223.2 L398.3,230.1 L412.1,228.2 L426.0,223.6 L439.9,213.7 L453.7,226.7 L467.6,223.2 L481.4,230.9 L495.3,37.2 L509.1,28.0 L523.0,225.9 L536.8,225.1 L550.7,221.7 L564.5,225.1 L578.4,219.0 L592.2,172.8 L606.1,67.0 L619.9,101.0 L633.8,213.3 L647.6,217.9 L661.5,227.8 L675.3,230.9 L689.2,160.9 L703.0,228.9 L716.9,230.9 L730.7,228.9 L744.6,228.2 L758.4,230.1 L772.3,231.6 L786.1,230.9 L800.0,227.4 L800.0,232.0 L52.0,232.0Z" fill="#4e79a7" opacity="0.12"/>

  <!-- lines -->
  <polyline points="52.0,228.9 65.9,228.2 79.7,229.7 93.6,205.6 107.4,204.1 121.3,216.0 135.1,217.5 149.0,189.2 162.8,202.2 176.7,209.1 190.5,86.1 204.4,222.1 218.2,180.8 232.1,200.7 245.9,171.6 259.8,204.1 273.6,202.6 287.5,213.3 301.3,223.2 315.2,229.3 329.0,230.1 342.9,224.0 356.7,225.5 370.6,228.9 384.4,223.2 398.3,230.1 412.1,228.2 426.0,223.6 439.9,213.7 453.7,226.7 467.6,223.2 481.4,230.9 495.3,37.2 509.1,28.0 523.0,225.9 536.8,225.1 550.7,221.7 564.5,225.1 578.4,219.0 592.2,172.8 606.1,67.0 619.9,101.0 633.8,213.3 647.6,217.9 661.5,227.8 675.3,230.9 689.2,160.9 703.0,228.9 716.9,230.9 730.7,228.9 744.6,228.2 758.4,230.1 772.3,231.6 786.1,230.9 800.0,227.4"
            fill="none" stroke="#4e79a7"
            stroke-width="2" stroke-linejoin="round"/>
  <polyline points="52.0,230.9 65.9,230.5 79.7,230.9 93.6,230.5 107.4,230.5 121.3,230.9 135.1,230.9 149.0,230.5 162.8,231.2 176.7,230.9 190.5,180.8 204.4,226.3 218.2,230.5 232.1,229.7 245.9,224.7 259.8,227.8 273.6,229.7 287.5,230.1 301.3,228.6 315.2,231.2 329.0,231.2 342.9,231.2 356.7,231.2 370.6,231.2 384.4,230.1 398.3,231.2 412.1,231.2 426.0,230.9 439.9,226.7 453.7,230.1 467.6,230.5 481.4,231.6 495.3,184.6 509.1,196.5 523.0,230.1 536.8,231.2 550.7,231.2 564.5,231.2 578.4,230.1 592.2,225.1 606.1,207.6 619.9,214.0 633.8,225.9 647.6,224.0 661.5,230.1 675.3,230.9 689.2,221.7 703.0,230.5 716.9,231.2 730.7,230.5 744.6,230.5 758.4,231.2 772.3,231.6 786.1,231.2 800.0,230.5"
            fill="none" stroke="#f28e2b"
            stroke-width="2" stroke-linejoin="round"
            stroke-dasharray="5,3"/>

  <!-- dots -->
  <circle cx="52.0" cy="228.9" r="3" fill="#4e79a7"/><circle cx="65.9" cy="228.2" r="3" fill="#4e79a7"/><circle cx="79.7" cy="229.7" r="3" fill="#4e79a7"/><circle cx="93.6" cy="205.6" r="3" fill="#4e79a7"/><circle cx="107.4" cy="204.1" r="3" fill="#4e79a7"/><circle cx="121.3" cy="216.0" r="3" fill="#4e79a7"/><circle cx="135.1" cy="217.5" r="3" fill="#4e79a7"/><circle cx="149.0" cy="189.2" r="3" fill="#4e79a7"/><circle cx="162.8" cy="202.2" r="3" fill="#4e79a7"/><circle cx="176.7" cy="209.1" r="3" fill="#4e79a7"/><circle cx="190.5" cy="86.1" r="3" fill="#4e79a7"/><circle cx="204.4" cy="222.1" r="3" fill="#4e79a7"/><circle cx="218.2" cy="180.8" r="3" fill="#4e79a7"/><circle cx="232.1" cy="200.7" r="3" fill="#4e79a7"/><circle cx="245.9" cy="171.6" r="3" fill="#4e79a7"/><circle cx="259.8" cy="204.1" r="3" fill="#4e79a7"/><circle cx="273.6" cy="202.6" r="3" fill="#4e79a7"/><circle cx="287.5" cy="213.3" r="3" fill="#4e79a7"/><circle cx="301.3" cy="223.2" r="3" fill="#4e79a7"/><circle cx="315.2" cy="229.3" r="3" fill="#4e79a7"/><circle cx="329.0" cy="230.1" r="3" fill="#4e79a7"/><circle cx="342.9" cy="224.0" r="3" fill="#4e79a7"/><circle cx="356.7" cy="225.5" r="3" fill="#4e79a7"/><circle cx="370.6" cy="228.9" r="3" fill="#4e79a7"/><circle cx="384.4" cy="223.2" r="3" fill="#4e79a7"/><circle cx="398.3" cy="230.1" r="3" fill="#4e79a7"/><circle cx="412.1" cy="228.2" r="3" fill="#4e79a7"/><circle cx="426.0" cy="223.6" r="3" fill="#4e79a7"/><circle cx="439.9" cy="213.7" r="3" fill="#4e79a7"/><circle cx="453.7" cy="226.7" r="3" fill="#4e79a7"/><circle cx="467.6" cy="223.2" r="3" fill="#4e79a7"/><circle cx="481.4" cy="230.9" r="3" fill="#4e79a7"/><circle cx="495.3" cy="37.2" r="3" fill="#4e79a7"/><circle cx="509.1" cy="28.0" r="3" fill="#4e79a7"/><circle cx="523.0" cy="225.9" r="3" fill="#4e79a7"/><circle cx="536.8" cy="225.1" r="3" fill="#4e79a7"/><circle cx="550.7" cy="221.7" r="3" fill="#4e79a7"/><circle cx="564.5" cy="225.1" r="3" fill="#4e79a7"/><circle cx="578.4" cy="219.0" r="3" fill="#4e79a7"/><circle cx="592.2" cy="172.8" r="3" fill="#4e79a7"/><circle cx="606.1" cy="67.0" r="3" fill="#4e79a7"/><circle cx="619.9" cy="101.0" r="3" fill="#4e79a7"/><circle cx="633.8" cy="213.3" r="3" fill="#4e79a7"/><circle cx="647.6" cy="217.9" r="3" fill="#4e79a7"/><circle cx="661.5" cy="227.8" r="3" fill="#4e79a7"/><circle cx="675.3" cy="230.9" r="3" fill="#4e79a7"/><circle cx="689.2" cy="160.9" r="3" fill="#4e79a7"/><circle cx="703.0" cy="228.9" r="3" fill="#4e79a7"/><circle cx="716.9" cy="230.9" r="3" fill="#4e79a7"/><circle cx="730.7" cy="228.9" r="3" fill="#4e79a7"/><circle cx="744.6" cy="228.2" r="3" fill="#4e79a7"/><circle cx="758.4" cy="230.1" r="3" fill="#4e79a7"/><circle cx="772.3" cy="231.6" r="3" fill="#4e79a7"/><circle cx="786.1" cy="230.9" r="3" fill="#4e79a7"/><circle cx="800.0" cy="227.4" r="3" fill="#4e79a7"/>
  <circle cx="52.0" cy="230.9" r="3" fill="#f28e2b"/><circle cx="65.9" cy="230.5" r="3" fill="#f28e2b"/><circle cx="79.7" cy="230.9" r="3" fill="#f28e2b"/><circle cx="93.6" cy="230.5" r="3" fill="#f28e2b"/><circle cx="107.4" cy="230.5" r="3" fill="#f28e2b"/><circle cx="121.3" cy="230.9" r="3" fill="#f28e2b"/><circle cx="135.1" cy="230.9" r="3" fill="#f28e2b"/><circle cx="149.0" cy="230.5" r="3" fill="#f28e2b"/><circle cx="162.8" cy="231.2" r="3" fill="#f28e2b"/><circle cx="176.7" cy="230.9" r="3" fill="#f28e2b"/><circle cx="190.5" cy="180.8" r="3" fill="#f28e2b"/><circle cx="204.4" cy="226.3" r="3" fill="#f28e2b"/><circle cx="218.2" cy="230.5" r="3" fill="#f28e2b"/><circle cx="232.1" cy="229.7" r="3" fill="#f28e2b"/><circle cx="245.9" cy="224.7" r="3" fill="#f28e2b"/><circle cx="259.8" cy="227.8" r="3" fill="#f28e2b"/><circle cx="273.6" cy="229.7" r="3" fill="#f28e2b"/><circle cx="287.5" cy="230.1" r="3" fill="#f28e2b"/><circle cx="301.3" cy="228.6" r="3" fill="#f28e2b"/><circle cx="315.2" cy="231.2" r="3" fill="#f28e2b"/><circle cx="329.0" cy="231.2" r="3" fill="#f28e2b"/><circle cx="342.9" cy="231.2" r="3" fill="#f28e2b"/><circle cx="356.7" cy="231.2" r="3" fill="#f28e2b"/><circle cx="370.6" cy="231.2" r="3" fill="#f28e2b"/><circle cx="384.4" cy="230.1" r="3" fill="#f28e2b"/><circle cx="398.3" cy="231.2" r="3" fill="#f28e2b"/><circle cx="412.1" cy="231.2" r="3" fill="#f28e2b"/><circle cx="426.0" cy="230.9" r="3" fill="#f28e2b"/><circle cx="439.9" cy="226.7" r="3" fill="#f28e2b"/><circle cx="453.7" cy="230.1" r="3" fill="#f28e2b"/><circle cx="467.6" cy="230.5" r="3" fill="#f28e2b"/><circle cx="481.4" cy="231.6" r="3" fill="#f28e2b"/><circle cx="495.3" cy="184.6" r="3" fill="#f28e2b"/><circle cx="509.1" cy="196.5" r="3" fill="#f28e2b"/><circle cx="523.0" cy="230.1" r="3" fill="#f28e2b"/><circle cx="536.8" cy="231.2" r="3" fill="#f28e2b"/><circle cx="550.7" cy="231.2" r="3" fill="#f28e2b"/><circle cx="564.5" cy="231.2" r="3" fill="#f28e2b"/><circle cx="578.4" cy="230.1" r="3" fill="#f28e2b"/><circle cx="592.2" cy="225.1" r="3" fill="#f28e2b"/><circle cx="606.1" cy="207.6" r="3" fill="#f28e2b"/><circle cx="619.9" cy="214.0" r="3" fill="#f28e2b"/><circle cx="633.8" cy="225.9" r="3" fill="#f28e2b"/><circle cx="647.6" cy="224.0" r="3" fill="#f28e2b"/><circle cx="661.5" cy="230.1" r="3" fill="#f28e2b"/><circle cx="675.3" cy="230.9" r="3" fill="#f28e2b"/><circle cx="689.2" cy="221.7" r="3" fill="#f28e2b"/><circle cx="703.0" cy="230.5" r="3" fill="#f28e2b"/><circle cx="716.9" cy="231.2" r="3" fill="#f28e2b"/><circle cx="730.7" cy="230.5" r="3" fill="#f28e2b"/><circle cx="744.6" cy="230.5" r="3" fill="#f28e2b"/><circle cx="758.4" cy="231.2" r="3" fill="#f28e2b"/><circle cx="772.3" cy="231.6" r="3" fill="#f28e2b"/><circle cx="786.1" cy="231.2" r="3" fill="#f28e2b"/><circle cx="800.0" cy="230.5" r="3" fill="#f28e2b"/>

  <!-- axes -->
  <line x1="52" y1="28" x2="52" y2="232"
        stroke="#cccccc" stroke-width="1"/>
  <line x1="52" y1="232" x2="800" y2="232"
        stroke="#cccccc" stroke-width="1"/>

  <!-- y-axis labels -->
  <text x="47" y="236.0" text-anchor="end" font-size="10" fill="#57606a" font-family="ui-monospace, SFMono-Regular, 'SF Mono', Menlo, monospace">0</text><text x="47" y="197.8" text-anchor="end" font-size="10" fill="#57606a" font-family="ui-monospace, SFMono-Regular, 'SF Mono', Menlo, monospace">100</text><text x="47" y="159.6" text-anchor="end" font-size="10" fill="#57606a" font-family="ui-monospace, SFMono-Regular, 'SF Mono', Menlo, monospace">200</text><text x="47" y="121.4" text-anchor="end" font-size="10" fill="#57606a" font-family="ui-monospace, SFMono-Regular, 'SF Mono', Menlo, monospace">300</text><text x="47" y="83.2" text-anchor="end" font-size="10" fill="#57606a" font-family="ui-monospace, SFMono-Regular, 'SF Mono', Menlo, monospace">400</text><text x="47" y="45.0" text-anchor="end" font-size="10" fill="#57606a" font-family="ui-monospace, SFMono-Regular, 'SF Mono', Menlo, monospace">500</text><text x="47" y="6.8" text-anchor="end" font-size="10" fill="#57606a" font-family="ui-monospace, SFMono-Regular, 'SF Mono', Menlo, monospace">600</text>

  <!-- x-axis labels -->
  <text x="52.0" y="248" text-anchor="middle" font-size="10" fill="#8c959f" font-family="ui-monospace, SFMono-Regular, 'SF Mono', Menlo, monospace">05-11</text><text x="550.7" y="248" text-anchor="middle" font-size="10" fill="#8c959f" font-family="ui-monospace, SFMono-Regular, 'SF Mono', Menlo, monospace">06-16</text><text x="135.1" y="248" text-anchor="middle" font-size="10" fill="#8c959f" font-family="ui-monospace, SFMono-Regular, 'SF Mono', Menlo, monospace">05-17</text><text x="633.8" y="248" text-anchor="middle" font-size="10" fill="#8c959f" font-family="ui-monospace, SFMono-Regular, 'SF Mono', Menlo, monospace">06-22</text><text x="218.2" y="248" text-anchor="middle" font-size="10" fill="#8c959f" font-family="ui-monospace, SFMono-Regular, 'SF Mono', Menlo, monospace">05-23</text><text x="716.9" y="248" text-anchor="middle" font-size="10" fill="#8c959f" font-family="ui-monospace, SFMono-Regular, 'SF Mono', Menlo, monospace">06-28</text><text x="301.3" y="248" text-anchor="middle" font-size="10" fill="#8c959f" font-family="ui-monospace, SFMono-Regular, 'SF Mono', Menlo, monospace">05-29</text><text x="800.0" y="248" text-anchor="middle" font-size="10" fill="#8c959f" font-family="ui-monospace, SFMono-Regular, 'SF Mono', Menlo, monospace">07-04</text><text x="384.4" y="248" text-anchor="middle" font-size="10" fill="#8c959f" font-family="ui-monospace, SFMono-Regular, 'SF Mono', Menlo, monospace">06-04</text><text x="467.6" y="248" text-anchor="middle" font-size="10" fill="#8c959f" font-family="ui-monospace, SFMono-Regular, 'SF Mono', Menlo, monospace">06-10</text>

  <!-- legend -->
  <rect x="60" y="262" width="16" height="3" fill="#4e79a7" rx="1"/><text x="80" y="268" font-size="11" fill="#57606a" font-family="-apple-system, BlinkMacSystemFont, 'Segoe UI', sans-serif">Total clones (4,129)</text><line x1="230" y1="264" x2="246" y2="264" stroke="#f28e2b" stroke-width="2" stroke-dasharray="5,3"/><text x="250" y="268" font-size="11" fill="#57606a" font-family="-apple-system, BlinkMacSystemFont, 'Segoe UI', sans-serif">Unique cloners</text>

</svg>