<svg xmlns="http://www.w3.org/2000/svg" viewBox="0 0 820 280" width="820" height="280">

  <!-- title -->
  <text x="52" y="18" font-size="13" font-weight="600"
        fill="#24292f" font-family="-apple-system, BlinkMacSystemFont, 'Segoe UI', sans-serif"
        >Clone traffic — script-helpers</text>
  <text x="800" y="18" font-size="10" fill="#8c959f"
        font-family="ui-monospace, SFMono-Regular, 'SF Mono', Menlo, monospace" text-anchor="end">2026-06-06</text>

  <!-- grid -->
  <line x1="52" y1="232.0" x2="800" y2="232.0" stroke="#e8e8e8" stroke-width="1"/><line x1="52" y1="189.3" x2="800" y2="189.3" stroke="#e8e8e8" stroke-width="1"/><line x1="52" y1="146.6" x2="800" y2="146.6" stroke="#e8e8e8" stroke-width="1"/><line x1="52" y1="103.8" x2="800" y2="103.8" stroke="#e8e8e8" stroke-width="1"/><line x1="52" y1="61.1" x2="800" y2="61.1" stroke="#e8e8e8" stroke-width="1"/><line x1="52" y1="18.4" x2="800" y2="18.4" stroke="#e8e8e8" stroke-width="1"/>

  <!-- area fill -->
  <path d="M52.0,227.7 L52.0,227.7 L83.2,226.7 L114.3,228.8 L145.5,195.2 L176.7,193.0 L207.8,209.6 L239.0,211.7 L270.2,172.2 L301.3,190.3 L332.5,200.0 L363.7,28.0 L394.8,218.1 L426.0,160.4 L457.2,188.2 L488.3,147.6 L519.5,193.0 L550.7,190.9 L581.8,205.8 L613.0,219.7 L644.2,228.3 L675.3,229.3 L706.5,220.8 L737.7,222.9 L768.8,227.7 L800.0,219.7 L800.0,232.0 L52.0,232.0Z" fill="#4e79a7" opacity="0.12"/>

  <!-- lines -->
  <polyline points="52.0,227.7 83.2,226.7 114.3,228.8 145.5,195.2 176.7,193.0 207.8,209.6 239.0,211.7 270.2,172.2 301.3,190.3 332.5,200.0 363.7,28.0 394.8,218.1 426.0,160.4 457.2,188.2 488.3,147.6 519.5,193.0 550.7,190.9 581.8,205.8 613.0,219.7 644.2,228.3 675.3,229.3 706.5,220.8 737.7,222.9 768.8,227.7 800.0,219.7"
            fill="none" stroke="#4e79a7"
            stroke-width="2" stroke-linejoin="round"/>
  <polyline points="52.0,230.4 83.2,229.9 114.3,230.4 145.5,229.9 176.7,229.9 207.8,230.4 239.0,230.4 270.2,229.9 301.3,230.9 332.5,230.4 363.7,160.4 394.8,224.0 426.0,229.9 457.2,228.8 488.3,221.9 519.5,226.1 550.7,228.8 581.8,229.3 613.0,227.2 644.2,230.9 675.3,230.9 706.5,230.9 737.7,230.9 768.8,230.9 800.0,229.3"
            fill="none" stroke="#f28e2b"
            stroke-width="2" stroke-linejoin="round"
            stroke-dasharray="5,3"/>

  <!-- dots -->
  <circle cx="52.0" cy="227.7" r="3" fill="#4e79a7"/><circle cx="83.2" cy="226.7" r="3" fill="#4e79a7"/><circle cx="114.3" cy="228.8" r="3" fill="#4e79a7"/><circle cx="145.5" cy="195.2" r="3" fill="#4e79a7"/><circle cx="176.7" cy="193.0" r="3" fill="#4e79a7"/><circle cx="207.8" cy="209.6" r="3" fill="#4e79a7"/><circle cx="239.0" cy="211.7" r="3" fill="#4e79a7"/><circle cx="270.2" cy="172.2" r="3" fill="#4e79a7"/><circle cx="301.3" cy="190.3" r="3" fill="#4e79a7"/><circle cx="332.5" cy="200.0" r="3" fill="#4e79a7"/><circle cx="363.7" cy="28.0" r="3" fill="#4e79a7"/><circle cx="394.8" cy="218.1" r="3" fill="#4e79a7"/><circle cx="426.0" cy="160.4" r="3" fill="#4e79a7"/><circle cx="457.2" cy="188.2" r="3" fill="#4e79a7"/><circle cx="488.3" cy="147.6" r="3" fill="#4e79a7"/><circle cx="519.5" cy="193.0" r="3" fill="#4e79a7"/><circle cx="550.7" cy="190.9" r="3" fill="#4e79a7"/><circle cx="581.8" cy="205.8" r="3" fill="#4e79a7"/><circle cx="613.0" cy="219.7" r="3" fill="#4e79a7"/><circle cx="644.2" cy="228.3" r="3" fill="#4e79a7"/><circle cx="675.3" cy="229.3" r="3" fill="#4e79a7"/><circle cx="706.5" cy="220.8" r="3" fill="#4e79a7"/><circle cx="737.7" cy="222.9" r="3" fill="#4e79a7"/><circle cx="768.8" cy="227.7" r="3" fill="#4e79a7"/><circle cx="800.0" cy="219.7" r="3" fill="#4e79a7"/>
  <circle cx="52.0" cy="230.4" r="3" fill="#f28e2b"/><circle cx="83.2" cy="229.9" r="3" fill="#f28e2b"/><circle cx="114.3" cy="230.4" r="3" fill="#f28e2b"/><circle cx="145.5" cy="229.9" r="3" fill="#f28e2b"/><circle cx="176.7" cy="229.9" r="3" fill="#f28e2b"/><circle cx="207.8" cy="230.4" r="3" fill="#f28e2b"/><circle cx="239.0" cy="230.4" r="3" fill="#f28e2b"/><circle cx="270.2" cy="229.9" r="3" fill="#f28e2b"/><circle cx="301.3" cy="230.9" r="3" fill="#f28e2b"/><circle cx="332.5" cy="230.4" r="3" fill="#f28e2b"/><circle cx="363.7" cy="160.4" r="3" fill="#f28e2b"/><circle cx="394.8" cy="224.0" r="3" fill="#f28e2b"/><circle cx="426.0" cy="229.9" r="3" fill="#f28e2b"/><circle cx="457.2" cy="228.8" r="3" fill="#f28e2b"/><circle cx="488.3" cy="221.9" r="3" fill="#f28e2b"/><circle cx="519.5" cy="226.1" r="3" fill="#f28e2b"/><circle cx="550.7" cy="228.8" r="3" fill="#f28e2b"/><circle cx="581.8" cy="229.3" r="3" fill="#f28e2b"/><circle cx="613.0" cy="227.2" r="3" fill="#f28e2b"/><circle cx="644.2" cy="230.9" r="3" fill="#f28e2b"/><circle cx="675.3" cy="230.9" r="3" fill="#f28e2b"/><circle cx="706.5" cy="230.9" r="3" fill="#f28e2b"/><circle cx="737.7" cy="230.9" r="3" fill="#f28e2b"/><circle cx="768.8" cy="230.9" r="3" fill="#f28e2b"/><circle cx="800.0" cy="229.3" r="3" fill="#f28e2b"/>

  <!-- axes -->
  <line x1="52" y1="28" x2="52" y2="232"
        stroke="#cccccc" stroke-width="1"/>
  <line x1="52" y1="232" x2="800" y2="232"
        stroke="#cccccc" stroke-width="1"/>

  <!-- y-axis labels -->
  <text x="47" y="236.0" text-anchor="end" font-size="10" fill="#57606a" font-family="ui-monospace, SFMono-Regular, 'SF Mono', Menlo, monospace">0</text><text x="47" y="193.3" text-anchor="end" font-size="10" fill="#57606a" font-family="ui-monospace, SFMono-Regular, 'SF Mono', Menlo, monospace">80</text><text x="47" y="150.6" text-anchor="end" font-size="10" fill="#57606a" font-family="ui-monospace, SFMono-Regular, 'SF Mono', Menlo, monospace">160</text><text x="47" y="107.8" text-anchor="end" font-size="10" fill="#57606a" font-family="ui-monospace, SFMono-Regular, 'SF Mono', Menlo, monospace">240</text><text x="47" y="65.1" text-anchor="end" font-size="10" fill="#57606a" font-family="ui-monospace, SFMono-Regular, 'SF Mono', Menlo, monospace">320</text><text x="47" y="22.4" text-anchor="end" font-size="10" fill="#57606a" font-family="ui-monospace, SFMono-Regular, 'SF Mono', Menlo, monospace">400</text>

  <!-- x-axis labels -->
  <text x="52.0" y="248" text-anchor="middle" font-size="10" fill="#8c959f" font-family="ui-monospace, SFMono-Regular, 'SF Mono', Menlo, monospace">05-11</text><text x="145.5" y="248" text-anchor="middle" font-size="10" fill="#8c959f" font-family="ui-monospace, SFMono-Regular, 'SF Mono', Menlo, monospace">05-14</text><text x="239.0" y="248" text-anchor="middle" font-size="10" fill="#8c959f" font-family="ui-monospace, SFMono-Regular, 'SF Mono', Menlo, monospace">05-17</text><text x="332.5" y="248" text-anchor="middle" font-size="10" fill="#8c959f" font-family="ui-monospace, SFMono-Regular, 'SF Mono', Menlo, monospace">05-20</text><text x="426.0" y="248" text-anchor="middle" font-size="10" fill="#8c959f" font-family="ui-monospace, SFMono-Regular, 'SF Mono', Menlo, monospace">05-23</text><text x="519.5" y="248" text-anchor="middle" font-size="10" fill="#8c959f" font-family="ui-monospace, SFMono-Regular, 'SF Mono', Menlo, monospace">05-26</text><text x="613.0" y="248" text-anchor="middle" font-size="10" fill="#8c959f" font-family="ui-monospace, SFMono-Regular, 'SF Mono', Menlo, monospace">05-29</text><text x="706.5" y="248" text-anchor="middle" font-size="10" fill="#8c959f" font-family="ui-monospace, SFMono-Regular, 'SF Mono', Menlo, monospace">06-01</text><text x="800.0" y="248" text-anchor="middle" font-size="10" fill="#8c959f" font-family="ui-monospace, SFMono-Regular, 'SF Mono', Menlo, monospace">06-04</text>

  <!-- legend -->
  <rect x="60" y="262" width="16" height="3" fill="#4e79a7" rx="1"/><text x="80" y="268" font-size="11" fill="#57606a" font-family="-apple-system, BlinkMacSystemFont, 'Segoe UI', sans-serif">Total clones (1,581)</text><line x1="230" y1="264" x2="246" y2="264" stroke="#f28e2b" stroke-width="2" stroke-dasharray="5,3"/><text x="250" y="268" font-size="11" fill="#57606a" font-family="-apple-system, BlinkMacSystemFont, 'Segoe UI', sans-serif">Unique cloners</text>

</svg>