<svg xmlns="http://www.w3.org/2000/svg" viewBox="0 0 820 280" width="820" height="280">

  <!-- title -->
  <text x="52" y="18" font-size="13" font-weight="600"
        fill="#24292f" font-family="-apple-system, BlinkMacSystemFont, 'Segoe UI', sans-serif"
        >Clone traffic — script-helpers</text>
  <text x="800" y="18" font-size="10" fill="#8c959f"
        font-family="ui-monospace, SFMono-Regular, 'SF Mono', Menlo, monospace" text-anchor="end">2026-06-02</text>

  <!-- grid -->
  <line x1="52" y1="232.0" x2="800" y2="232.0" stroke="#e8e8e8" stroke-width="1"/><line x1="52" y1="189.3" x2="800" y2="189.3" stroke="#e8e8e8" stroke-width="1"/><line x1="52" y1="146.6" x2="800" y2="146.6" stroke="#e8e8e8" stroke-width="1"/><line x1="52" y1="103.8" x2="800" y2="103.8" stroke="#e8e8e8" stroke-width="1"/><line x1="52" y1="61.1" x2="800" y2="61.1" stroke="#e8e8e8" stroke-width="1"/><line x1="52" y1="18.4" x2="800" y2="18.4" stroke="#e8e8e8" stroke-width="1"/>

  <!-- area fill -->
  <path d="M52.0,227.7 L52.0,227.7 L89.4,226.7 L126.8,228.8 L164.2,195.2 L201.6,193.0 L239.0,209.6 L276.4,211.7 L313.8,172.2 L351.2,190.3 L388.6,200.0 L426.0,28.0 L463.4,218.1 L500.8,160.4 L538.2,188.2 L575.6,147.6 L613.0,193.0 L650.4,190.9 L687.8,205.8 L725.2,219.7 L762.6,228.3 L800.0,229.3 L800.0,232.0 L52.0,232.0Z" fill="#4e79a7" opacity="0.12"/>

  <!-- lines -->
  <polyline points="52.0,227.7 89.4,226.7 126.8,228.8 164.2,195.2 201.6,193.0 239.0,209.6 276.4,211.7 313.8,172.2 351.2,190.3 388.6,200.0 426.0,28.0 463.4,218.1 500.8,160.4 538.2,188.2 575.6,147.6 613.0,193.0 650.4,190.9 687.8,205.8 725.2,219.7 762.6,228.3 800.0,229.3"
            fill="none" stroke="#4e79a7"
            stroke-width="2" stroke-linejoin="round"/>
  <polyline points="52.0,230.4 89.4,229.9 126.8,230.4 164.2,229.9 201.6,229.9 239.0,230.4 276.4,230.4 313.8,229.9 351.2,230.9 388.6,230.4 426.0,160.4 463.4,224.0 500.8,229.9 538.2,228.8 575.6,221.9 613.0,226.1 650.4,228.8 687.8,229.3 725.2,227.2 762.6,230.9 800.0,230.9"
            fill="none" stroke="#f28e2b"
            stroke-width="2" stroke-linejoin="round"
            stroke-dasharray="5,3"/>

  <!-- dots -->
  <circle cx="52.0" cy="227.7" r="3" fill="#4e79a7"/><circle cx="89.4" cy="226.7" r="3" fill="#4e79a7"/><circle cx="126.8" cy="228.8" r="3" fill="#4e79a7"/><circle cx="164.2" cy="195.2" r="3" fill="#4e79a7"/><circle cx="201.6" cy="193.0" r="3" fill="#4e79a7"/><circle cx="239.0" cy="209.6" r="3" fill="#4e79a7"/><circle cx="276.4" cy="211.7" r="3" fill="#4e79a7"/><circle cx="313.8" cy="172.2" r="3" fill="#4e79a7"/><circle cx="351.2" cy="190.3" r="3" fill="#4e79a7"/><circle cx="388.6" cy="200.0" r="3" fill="#4e79a7"/><circle cx="426.0" cy="28.0" r="3" fill="#4e79a7"/><circle cx="463.4" cy="218.1" r="3" fill="#4e79a7"/><circle cx="500.8" cy="160.4" r="3" fill="#4e79a7"/><circle cx="538.2" cy="188.2" r="3" fill="#4e79a7"/><circle cx="575.6" cy="147.6" r="3" fill="#4e79a7"/><circle cx="613.0" cy="193.0" r="3" fill="#4e79a7"/><circle cx="650.4" cy="190.9" r="3" fill="#4e79a7"/><circle cx="687.8" cy="205.8" r="3" fill="#4e79a7"/><circle cx="725.2" cy="219.7" r="3" fill="#4e79a7"/><circle cx="762.6" cy="228.3" r="3" fill="#4e79a7"/><circle cx="800.0" cy="229.3" r="3" fill="#4e79a7"/>
  <circle cx="52.0" cy="230.4" r="3" fill="#f28e2b"/><circle cx="89.4" cy="229.9" r="3" fill="#f28e2b"/><circle cx="126.8" cy="230.4" r="3" fill="#f28e2b"/><circle cx="164.2" cy="229.9" r="3" fill="#f28e2b"/><circle cx="201.6" cy="229.9" r="3" fill="#f28e2b"/><circle cx="239.0" cy="230.4" r="3" fill="#f28e2b"/><circle cx="276.4" cy="230.4" r="3" fill="#f28e2b"/><circle cx="313.8" cy="229.9" r="3" fill="#f28e2b"/><circle cx="351.2" cy="230.9" r="3" fill="#f28e2b"/><circle cx="388.6" cy="230.4" r="3" fill="#f28e2b"/><circle cx="426.0" cy="160.4" r="3" fill="#f28e2b"/><circle cx="463.4" cy="224.0" r="3" fill="#f28e2b"/><circle cx="500.8" cy="229.9" r="3" fill="#f28e2b"/><circle cx="538.2" cy="228.8" r="3" fill="#f28e2b"/><circle cx="575.6" cy="221.9" r="3" fill="#f28e2b"/><circle cx="613.0" cy="226.1" r="3" fill="#f28e2b"/><circle cx="650.4" cy="228.8" r="3" fill="#f28e2b"/><circle cx="687.8" cy="229.3" r="3" fill="#f28e2b"/><circle cx="725.2" cy="227.2" r="3" fill="#f28e2b"/><circle cx="762.6" cy="230.9" r="3" fill="#f28e2b"/><circle cx="800.0" cy="230.9" r="3" fill="#f28e2b"/>

  <!-- axes -->
  <line x1="52" y1="28" x2="52" y2="232"
        stroke="#cccccc" stroke-width="1"/>
  <line x1="52" y1="232" x2="800" y2="232"
        stroke="#cccccc" stroke-width="1"/>

  <!-- y-axis labels -->
  <text x="47" y="236.0" text-anchor="end" font-size="10" fill="#57606a" font-family="ui-monospace, SFMono-Regular, 'SF Mono', Menlo, monospace">0</text><text x="47" y="193.3" text-anchor="end" font-size="10" fill="#57606a" font-family="ui-monospace, SFMono-Regular, 'SF Mono', Menlo, monospace">80</text><text x="47" y="150.6" text-anchor="end" font-size="10" fill="#57606a" font-family="ui-monospace, SFMono-Regular, 'SF Mono', Menlo, monospace">160</text><text x="47" y="107.8" text-anchor="end" font-size="10" fill="#57606a" font-family="ui-monospace, SFMono-Regular, 'SF Mono', Menlo, monospace">240</text><text x="47" y="65.1" text-anchor="end" font-size="10" fill="#57606a" font-family="ui-monospace, SFMono-Regular, 'SF Mono', Menlo, monospace">320</text><text x="47" y="22.4" text-anchor="end" font-size="10" fill="#57606a" font-family="ui-monospace, SFMono-Regular, 'SF Mono', Menlo, monospace">400</text>

  <!-- x-axis labels -->
  <text x="52.0" y="248" text-anchor="middle" font-size="10" fill="#8c959f" font-family="ui-monospace, SFMono-Regular, 'SF Mono', Menlo, monospace">05-11</text><text x="126.8" y="248" text-anchor="middle" font-size="10" fill="#8c959f" font-family="ui-monospace, SFMono-Regular, 'SF Mono', Menlo, monospace">05-13</text><text x="201.6" y="248" text-anchor="middle" font-size="10" fill="#8c959f" font-family="ui-monospace, SFMono-Regular, 'SF Mono', Menlo, monospace">05-15</text><text x="276.4" y="248" text-anchor="middle" font-size="10" fill="#8c959f" font-family="ui-monospace, SFMono-Regular, 'SF Mono', Menlo, monospace">05-17</text><text x="351.2" y="248" text-anchor="middle" font-size="10" fill="#8c959f" font-family="ui-monospace, SFMono-Regular, 'SF Mono', Menlo, monospace">05-19</text><text x="426.0" y="248" text-anchor="middle" font-size="10" fill="#8c959f" font-family="ui-monospace, SFMono-Regular, 'SF Mono', Menlo, monospace">05-21</text><text x="500.8" y="248" text-anchor="middle" font-size="10" fill="#8c959f" font-family="ui-monospace, SFMono-Regular, 'SF Mono', Menlo, monospace">05-23</text><text x="575.6" y="248" text-anchor="middle" font-size="10" fill="#8c959f" font-family="ui-monospace, SFMono-Regular, 'SF Mono', Menlo, monospace">05-25</text><text x="650.4" y="248" text-anchor="middle" font-size="10" fill="#8c959f" font-family="ui-monospace, SFMono-Regular, 'SF Mono', Menlo, monospace">05-27</text><text x="725.2" y="248" text-anchor="middle" font-size="10" fill="#8c959f" font-family="ui-monospace, SFMono-Regular, 'SF Mono', Menlo, monospace">05-29</text><text x="800.0" y="248" text-anchor="middle" font-size="10" fill="#8c959f" font-family="ui-monospace, SFMono-Regular, 'SF Mono', Menlo, monospace">05-31</text>

  <!-- legend -->
  <rect x="60" y="262" width="16" height="3" fill="#4e79a7" rx="1"/><text x="80" y="268" font-size="11" fill="#57606a" font-family="-apple-system, BlinkMacSystemFont, 'Segoe UI', sans-serif">Total clones (1,512)</text><line x1="230" y1="264" x2="246" y2="264" stroke="#f28e2b" stroke-width="2" stroke-dasharray="5,3"/><text x="250" y="268" font-size="11" fill="#57606a" font-family="-apple-system, BlinkMacSystemFont, 'Segoe UI', sans-serif">Unique cloners</text>

</svg>