<svg xmlns="http://www.w3.org/2000/svg" viewBox="0 0 820 280" width="820" height="280">

  <!-- title -->
  <text x="52" y="18" font-size="13" font-weight="600"
        fill="#24292f" font-family="-apple-system, BlinkMacSystemFont, 'Segoe UI', sans-serif"
        >Clone traffic — script-helpers</text>
  <text x="800" y="18" font-size="10" fill="#8c959f"
        font-family="ui-monospace, SFMono-Regular, 'SF Mono', Menlo, monospace" text-anchor="end">2026-06-26</text>

  <!-- grid -->
  <line x1="52" y1="232.0" x2="800" y2="232.0" stroke="#e8e8e8" stroke-width="1"/><line x1="52" y1="193.8" x2="800" y2="193.8" stroke="#e8e8e8" stroke-width="1"/><line x1="52" y1="155.6" x2="800" y2="155.6" stroke="#e8e8e8" stroke-width="1"/><line x1="52" y1="117.4" x2="800" y2="117.4" stroke="#e8e8e8" stroke-width="1"/><line x1="52" y1="79.2" x2="800" y2="79.2" stroke="#e8e8e8" stroke-width="1"/><line x1="52" y1="41.0" x2="800" y2="41.0" stroke="#e8e8e8" stroke-width="1"/><line x1="52" y1="2.8" x2="800" y2="2.8" stroke="#e8e8e8" stroke-width="1"/>

  <!-- area fill -->
  <path d="M52.0,228.9 L52.0,228.9 L69.0,228.2 L86.0,229.7 L103.0,205.6 L120.0,204.1 L137.0,216.0 L154.0,217.5 L171.0,189.2 L188.0,202.2 L205.0,209.1 L222.0,86.1 L239.0,222.1 L256.0,180.8 L273.0,200.7 L290.0,171.6 L307.0,204.1 L324.0,202.6 L341.0,213.3 L358.0,223.2 L375.0,229.3 L392.0,230.1 L409.0,224.0 L426.0,225.5 L443.0,228.9 L460.0,223.2 L477.0,230.1 L494.0,228.2 L511.0,223.6 L528.0,213.7 L545.0,226.7 L562.0,223.2 L579.0,230.9 L596.0,37.2 L613.0,28.0 L630.0,225.9 L647.0,225.1 L664.0,221.7 L681.0,225.1 L698.0,219.0 L715.0,172.8 L732.0,67.0 L749.0,101.0 L766.0,213.3 L783.0,217.9 L800.0,227.8 L800.0,232.0 L52.0,232.0Z" fill="#4e79a7" opacity="0.12"/>

  <!-- lines -->
  <polyline points="52.0,228.9 69.0,228.2 86.0,229.7 103.0,205.6 120.0,204.1 137.0,216.0 154.0,217.5 171.0,189.2 188.0,202.2 205.0,209.1 222.0,86.1 239.0,222.1 256.0,180.8 273.0,200.7 290.0,171.6 307.0,204.1 324.0,202.6 341.0,213.3 358.0,223.2 375.0,229.3 392.0,230.1 409.0,224.0 426.0,225.5 443.0,228.9 460.0,223.2 477.0,230.1 494.0,228.2 511.0,223.6 528.0,213.7 545.0,226.7 562.0,223.2 579.0,230.9 596.0,37.2 613.0,28.0 630.0,225.9 647.0,225.1 664.0,221.7 681.0,225.1 698.0,219.0 715.0,172.8 732.0,67.0 749.0,101.0 766.0,213.3 783.0,217.9 800.0,227.8"
            fill="none" stroke="#4e79a7"
            stroke-width="2" stroke-linejoin="round"/>
  <polyline points="52.0,230.9 69.0,230.5 86.0,230.9 103.0,230.5 120.0,230.5 137.0,230.9 154.0,230.9 171.0,230.5 188.0,231.2 205.0,230.9 222.0,180.8 239.0,226.3 256.0,230.5 273.0,229.7 290.0,224.7 307.0,227.8 324.0,229.7 341.0,230.1 358.0,228.6 375.0,231.2 392.0,231.2 409.0,231.2 426.0,231.2 443.0,231.2 460.0,230.1 477.0,231.2 494.0,231.2 511.0,230.9 528.0,226.7 545.0,230.1 562.0,230.5 579.0,231.6 596.0,184.6 613.0,196.5 630.0,230.1 647.0,231.2 664.0,231.2 681.0,231.2 698.0,230.1 715.0,225.1 732.0,207.6 749.0,214.0 766.0,225.9 783.0,224.0 800.0,230.1"
            fill="none" stroke="#f28e2b"
            stroke-width="2" stroke-linejoin="round"
            stroke-dasharray="5,3"/>

  <!-- dots -->
  <circle cx="52.0" cy="228.9" r="3" fill="#4e79a7"/><circle cx="69.0" cy="228.2" r="3" fill="#4e79a7"/><circle cx="86.0" cy="229.7" r="3" fill="#4e79a7"/><circle cx="103.0" cy="205.6" r="3" fill="#4e79a7"/><circle cx="120.0" cy="204.1" r="3" fill="#4e79a7"/><circle cx="137.0" cy="216.0" r="3" fill="#4e79a7"/><circle cx="154.0" cy="217.5" r="3" fill="#4e79a7"/><circle cx="171.0" cy="189.2" r="3" fill="#4e79a7"/><circle cx="188.0" cy="202.2" r="3" fill="#4e79a7"/><circle cx="205.0" cy="209.1" r="3" fill="#4e79a7"/><circle cx="222.0" cy="86.1" r="3" fill="#4e79a7"/><circle cx="239.0" cy="222.1" r="3" fill="#4e79a7"/><circle cx="256.0" cy="180.8" r="3" fill="#4e79a7"/><circle cx="273.0" cy="200.7" r="3" fill="#4e79a7"/><circle cx="290.0" cy="171.6" r="3" fill="#4e79a7"/><circle cx="307.0" cy="204.1" r="3" fill="#4e79a7"/><circle cx="324.0" cy="202.6" r="3" fill="#4e79a7"/><circle cx="341.0" cy="213.3" r="3" fill="#4e79a7"/><circle cx="358.0" cy="223.2" r="3" fill="#4e79a7"/><circle cx="375.0" cy="229.3" r="3" fill="#4e79a7"/><circle cx="392.0" cy="230.1" r="3" fill="#4e79a7"/><circle cx="409.0" cy="224.0" r="3" fill="#4e79a7"/><circle cx="426.0" cy="225.5" r="3" fill="#4e79a7"/><circle cx="443.0" cy="228.9" r="3" fill="#4e79a7"/><circle cx="460.0" cy="223.2" r="3" fill="#4e79a7"/><circle cx="477.0" cy="230.1" r="3" fill="#4e79a7"/><circle cx="494.0" cy="228.2" r="3" fill="#4e79a7"/><circle cx="511.0" cy="223.6" r="3" fill="#4e79a7"/><circle cx="528.0" cy="213.7" r="3" fill="#4e79a7"/><circle cx="545.0" cy="226.7" r="3" fill="#4e79a7"/><circle cx="562.0" cy="223.2" r="3" fill="#4e79a7"/><circle cx="579.0" cy="230.9" r="3" fill="#4e79a7"/><circle cx="596.0" cy="37.2" r="3" fill="#4e79a7"/><circle cx="613.0" cy="28.0" r="3" fill="#4e79a7"/><circle cx="630.0" cy="225.9" r="3" fill="#4e79a7"/><circle cx="647.0" cy="225.1" r="3" fill="#4e79a7"/><circle cx="664.0" cy="221.7" r="3" fill="#4e79a7"/><circle cx="681.0" cy="225.1" r="3" fill="#4e79a7"/><circle cx="698.0" cy="219.0" r="3" fill="#4e79a7"/><circle cx="715.0" cy="172.8" r="3" fill="#4e79a7"/><circle cx="732.0" cy="67.0" r="3" fill="#4e79a7"/><circle cx="749.0" cy="101.0" r="3" fill="#4e79a7"/><circle cx="766.0" cy="213.3" r="3" fill="#4e79a7"/><circle cx="783.0" cy="217.9" r="3" fill="#4e79a7"/><circle cx="800.0" cy="227.8" r="3" fill="#4e79a7"/>
  <circle cx="52.0" cy="230.9" r="3" fill="#f28e2b"/><circle cx="69.0" cy="230.5" r="3" fill="#f28e2b"/><circle cx="86.0" cy="230.9" r="3" fill="#f28e2b"/><circle cx="103.0" cy="230.5" r="3" fill="#f28e2b"/><circle cx="120.0" cy="230.5" r="3" fill="#f28e2b"/><circle cx="137.0" cy="230.9" r="3" fill="#f28e2b"/><circle cx="154.0" cy="230.9" r="3" fill="#f28e2b"/><circle cx="171.0" cy="230.5" r="3" fill="#f28e2b"/><circle cx="188.0" cy="231.2" r="3" fill="#f28e2b"/><circle cx="205.0" cy="230.9" r="3" fill="#f28e2b"/><circle cx="222.0" cy="180.8" r="3" fill="#f28e2b"/><circle cx="239.0" cy="226.3" r="3" fill="#f28e2b"/><circle cx="256.0" cy="230.5" r="3" fill="#f28e2b"/><circle cx="273.0" cy="229.7" r="3" fill="#f28e2b"/><circle cx="290.0" cy="224.7" r="3" fill="#f28e2b"/><circle cx="307.0" cy="227.8" r="3" fill="#f28e2b"/><circle cx="324.0" cy="229.7" r="3" fill="#f28e2b"/><circle cx="341.0" cy="230.1" r="3" fill="#f28e2b"/><circle cx="358.0" cy="228.6" r="3" fill="#f28e2b"/><circle cx="375.0" cy="231.2" r="3" fill="#f28e2b"/><circle cx="392.0" cy="231.2" r="3" fill="#f28e2b"/><circle cx="409.0" cy="231.2" r="3" fill="#f28e2b"/><circle cx="426.0" cy="231.2" r="3" fill="#f28e2b"/><circle cx="443.0" cy="231.2" r="3" fill="#f28e2b"/><circle cx="460.0" cy="230.1" r="3" fill="#f28e2b"/><circle cx="477.0" cy="231.2" r="3" fill="#f28e2b"/><circle cx="494.0" cy="231.2" r="3" fill="#f28e2b"/><circle cx="511.0" cy="230.9" r="3" fill="#f28e2b"/><circle cx="528.0" cy="226.7" r="3" fill="#f28e2b"/><circle cx="545.0" cy="230.1" r="3" fill="#f28e2b"/><circle cx="562.0" cy="230.5" r="3" fill="#f28e2b"/><circle cx="579.0" cy="231.6" r="3" fill="#f28e2b"/><circle cx="596.0" cy="184.6" r="3" fill="#f28e2b"/><circle cx="613.0" cy="196.5" r="3" fill="#f28e2b"/><circle cx="630.0" cy="230.1" r="3" fill="#f28e2b"/><circle cx="647.0" cy="231.2" r="3" fill="#f28e2b"/><circle cx="664.0" cy="231.2" r="3" fill="#f28e2b"/><circle cx="681.0" cy="231.2" r="3" fill="#f28e2b"/><circle cx="698.0" cy="230.1" r="3" fill="#f28e2b"/><circle cx="715.0" cy="225.1" r="3" fill="#f28e2b"/><circle cx="732.0" cy="207.6" r="3" fill="#f28e2b"/><circle cx="749.0" cy="214.0" r="3" fill="#f28e2b"/><circle cx="766.0" cy="225.9" r="3" fill="#f28e2b"/><circle cx="783.0" cy="224.0" r="3" fill="#f28e2b"/><circle cx="800.0" cy="230.1" r="3" fill="#f28e2b"/>

  <!-- axes -->
  <line x1="52" y1="28" x2="52" y2="232"
        stroke="#cccccc" stroke-width="1"/>
  <line x1="52" y1="232" x2="800" y2="232"
        stroke="#cccccc" stroke-width="1"/>

  <!-- y-axis labels -->
  <text x="47" y="236.0" text-anchor="end" font-size="10" fill="#57606a" font-family="ui-monospace, SFMono-Regular, 'SF Mono', Menlo, monospace">0</text><text x="47" y="197.8" text-anchor="end" font-size="10" fill="#57606a" font-family="ui-monospace, SFMono-Regular, 'SF Mono', Menlo, monospace">100</text><text x="47" y="159.6" text-anchor="end" font-size="10" fill="#57606a" font-family="ui-monospace, SFMono-Regular, 'SF Mono', Menlo, monospace">200</text><text x="47" y="121.4" text-anchor="end" font-size="10" fill="#57606a" font-family="ui-monospace, SFMono-Regular, 'SF Mono', Menlo, monospace">300</text><text x="47" y="83.2" text-anchor="end" font-size="10" fill="#57606a" font-family="ui-monospace, SFMono-Regular, 'SF Mono', Menlo, monospace">400</text><text x="47" y="45.0" text-anchor="end" font-size="10" fill="#57606a" font-family="ui-monospace, SFMono-Regular, 'SF Mono', Menlo, monospace">500</text><text x="47" y="6.8" text-anchor="end" font-size="10" fill="#57606a" font-family="ui-monospace, SFMono-Regular, 'SF Mono', Menlo, monospace">600</text>

  <!-- x-axis labels -->
  <text x="52.0" y="248" text-anchor="middle" font-size="10" fill="#8c959f" font-family="ui-monospace, SFMono-Regular, 'SF Mono', Menlo, monospace">05-11</text><text x="647.0" y="248" text-anchor="middle" font-size="10" fill="#8c959f" font-family="ui-monospace, SFMono-Regular, 'SF Mono', Menlo, monospace">06-15</text><text x="137.0" y="248" text-anchor="middle" font-size="10" fill="#8c959f" font-family="ui-monospace, SFMono-Regular, 'SF Mono', Menlo, monospace">05-16</text><text x="732.0" y="248" text-anchor="middle" font-size="10" fill="#8c959f" font-family="ui-monospace, SFMono-Regular, 'SF Mono', Menlo, monospace">06-20</text><text x="222.0" y="248" text-anchor="middle" font-size="10" fill="#8c959f" font-family="ui-monospace, SFMono-Regular, 'SF Mono', Menlo, monospace">05-21</text><text x="800.0" y="248" text-anchor="middle" font-size="10" fill="#8c959f" font-family="ui-monospace, SFMono-Regular, 'SF Mono', Menlo, monospace">06-24</text><text x="307.0" y="248" text-anchor="middle" font-size="10" fill="#8c959f" font-family="ui-monospace, SFMono-Regular, 'SF Mono', Menlo, monospace">05-26</text><text x="392.0" y="248" text-anchor="middle" font-size="10" fill="#8c959f" font-family="ui-monospace, SFMono-Regular, 'SF Mono', Menlo, monospace">05-31</text><text x="477.0" y="248" text-anchor="middle" font-size="10" fill="#8c959f" font-family="ui-monospace, SFMono-Regular, 'SF Mono', Menlo, monospace">06-05</text><text x="562.0" y="248" text-anchor="middle" font-size="10" fill="#8c959f" font-family="ui-monospace, SFMono-Regular, 'SF Mono', Menlo, monospace">06-10</text>

  <!-- legend -->
  <rect x="60" y="262" width="16" height="3" fill="#4e79a7" rx="1"/><text x="80" y="268" font-size="11" fill="#57606a" font-family="-apple-system, BlinkMacSystemFont, 'Segoe UI', sans-serif">Total clones (3,890)</text><line x1="230" y1="264" x2="246" y2="264" stroke="#f28e2b" stroke-width="2" stroke-dasharray="5,3"/><text x="250" y="268" font-size="11" fill="#57606a" font-family="-apple-system, BlinkMacSystemFont, 'Segoe UI', sans-serif">Unique cloners</text>

</svg>