<svg xmlns="http://www.w3.org/2000/svg" viewBox="0 0 820 280" width="820" height="280">

  <!-- title -->
  <text x="52" y="18" font-size="13" font-weight="600"
        fill="#24292f" font-family="-apple-system, BlinkMacSystemFont, 'Segoe UI', sans-serif"
        >Clone traffic — script-helpers</text>
  <text x="800" y="18" font-size="10" fill="#8c959f"
        font-family="ui-monospace, SFMono-Regular, 'SF Mono', Menlo, monospace" text-anchor="end">2026-07-18</text>

  <!-- grid -->
  <line x1="52" y1="232.0" x2="800" y2="232.0" stroke="#e8e8e8" stroke-width="1"/><line x1="52" y1="193.8" x2="800" y2="193.8" stroke="#e8e8e8" stroke-width="1"/><line x1="52" y1="155.6" x2="800" y2="155.6" stroke="#e8e8e8" stroke-width="1"/><line x1="52" y1="117.4" x2="800" y2="117.4" stroke="#e8e8e8" stroke-width="1"/><line x1="52" y1="79.2" x2="800" y2="79.2" stroke="#e8e8e8" stroke-width="1"/><line x1="52" y1="41.0" x2="800" y2="41.0" stroke="#e8e8e8" stroke-width="1"/><line x1="52" y1="2.8" x2="800" y2="2.8" stroke="#e8e8e8" stroke-width="1"/>

  <!-- area fill -->
  <path d="M52.0,228.9 L52.0,228.9 L63.3,228.2 L74.7,229.7 L86.0,205.6 L97.3,204.1 L108.7,216.0 L120.0,217.5 L131.3,189.2 L142.7,202.2 L154.0,209.1 L165.3,86.1 L176.7,222.1 L188.0,180.8 L199.3,200.7 L210.7,171.6 L222.0,204.1 L233.3,202.6 L244.7,213.3 L256.0,223.2 L267.3,229.3 L278.7,230.1 L290.0,224.0 L301.3,225.5 L312.7,228.9 L324.0,223.2 L335.3,230.1 L346.7,228.2 L358.0,223.6 L369.3,213.7 L380.7,226.7 L392.0,223.2 L403.3,230.9 L414.7,37.2 L426.0,28.0 L437.3,225.9 L448.7,225.1 L460.0,221.7 L471.3,225.1 L482.7,219.0 L494.0,172.8 L505.3,67.0 L516.7,101.0 L528.0,213.3 L539.3,217.9 L550.7,227.8 L562.0,230.9 L573.3,160.9 L584.7,228.9 L596.0,230.9 L607.3,228.9 L618.7,228.2 L630.0,230.1 L641.3,231.6 L652.7,230.9 L664.0,227.4 L675.3,231.6 L686.7,228.2 L698.0,223.6 L709.3,231.2 L720.7,224.7 L732.0,228.6 L743.3,229.3 L754.7,231.6 L766.0,230.5 L777.3,230.1 L788.7,214.4 L800.0,227.0 L800.0,232.0 L52.0,232.0Z" fill="#4e79a7" opacity="0.12"/>

  <!-- lines -->
  <polyline points="52.0,228.9 63.3,228.2 74.7,229.7 86.0,205.6 97.3,204.1 108.7,216.0 120.0,217.5 131.3,189.2 142.7,202.2 154.0,209.1 165.3,86.1 176.7,222.1 188.0,180.8 199.3,200.7 210.7,171.6 222.0,204.1 233.3,202.6 244.7,213.3 256.0,223.2 267.3,229.3 278.7,230.1 290.0,224.0 301.3,225.5 312.7,228.9 324.0,223.2 335.3,230.1 346.7,228.2 358.0,223.6 369.3,213.7 380.7,226.7 392.0,223.2 403.3,230.9 414.7,37.2 426.0,28.0 437.3,225.9 448.7,225.1 460.0,221.7 471.3,225.1 482.7,219.0 494.0,172.8 505.3,67.0 516.7,101.0 528.0,213.3 539.3,217.9 550.7,227.8 562.0,230.9 573.3,160.9 584.7,228.9 596.0,230.9 607.3,228.9 618.7,228.2 630.0,230.1 641.3,231.6 652.7,230.9 664.0,227.4 675.3,231.6 686.7,228.2 698.0,223.6 709.3,231.2 720.7,224.7 732.0,228.6 743.3,229.3 754.7,231.6 766.0,230.5 777.3,230.1 788.7,214.4 800.0,227.0"
            fill="none" stroke="#4e79a7"
            stroke-width="2" stroke-linejoin="round"/>
  <polyline points="52.0,230.9 63.3,230.5 74.7,230.9 86.0,230.5 97.3,230.5 108.7,230.9 120.0,230.9 131.3,230.5 142.7,231.2 154.0,230.9 165.3,180.8 176.7,226.3 188.0,230.5 199.3,229.7 210.7,224.7 222.0,227.8 233.3,229.7 244.7,230.1 256.0,228.6 267.3,231.2 278.7,231.2 290.0,231.2 301.3,231.2 312.7,231.2 324.0,230.1 335.3,231.2 346.7,231.2 358.0,230.9 369.3,226.7 380.7,230.1 392.0,230.5 403.3,231.6 414.7,184.6 426.0,196.5 437.3,230.1 448.7,231.2 460.0,231.2 471.3,231.2 482.7,230.1 494.0,225.1 505.3,207.6 516.7,214.0 528.0,225.9 539.3,224.0 550.7,230.1 562.0,230.9 573.3,221.7 584.7,230.5 596.0,231.2 607.3,230.5 618.7,230.5 630.0,231.2 641.3,231.6 652.7,231.2 664.0,230.5 675.3,231.6 686.7,230.5 698.0,231.2 709.3,231.6 720.7,230.1 732.0,231.2 743.3,231.2 754.7,231.6 766.0,230.9 777.3,230.5 788.7,230.1 800.0,231.2"
            fill="none" stroke="#f28e2b"
            stroke-width="2" stroke-linejoin="round"
            stroke-dasharray="5,3"/>

  <!-- dots -->
  <circle cx="52.0" cy="228.9" r="3" fill="#4e79a7"/><circle cx="63.3" cy="228.2" r="3" fill="#4e79a7"/><circle cx="74.7" cy="229.7" r="3" fill="#4e79a7"/><circle cx="86.0" cy="205.6" r="3" fill="#4e79a7"/><circle cx="97.3" cy="204.1" r="3" fill="#4e79a7"/><circle cx="108.7" cy="216.0" r="3" fill="#4e79a7"/><circle cx="120.0" cy="217.5" r="3" fill="#4e79a7"/><circle cx="131.3" cy="189.2" r="3" fill="#4e79a7"/><circle cx="142.7" cy="202.2" r="3" fill="#4e79a7"/><circle cx="154.0" cy="209.1" r="3" fill="#4e79a7"/><circle cx="165.3" cy="86.1" r="3" fill="#4e79a7"/><circle cx="176.7" cy="222.1" r="3" fill="#4e79a7"/><circle cx="188.0" cy="180.8" r="3" fill="#4e79a7"/><circle cx="199.3" cy="200.7" r="3" fill="#4e79a7"/><circle cx="210.7" cy="171.6" r="3" fill="#4e79a7"/><circle cx="222.0" cy="204.1" r="3" fill="#4e79a7"/><circle cx="233.3" cy="202.6" r="3" fill="#4e79a7"/><circle cx="244.7" cy="213.3" r="3" fill="#4e79a7"/><circle cx="256.0" cy="223.2" r="3" fill="#4e79a7"/><circle cx="267.3" cy="229.3" r="3" fill="#4e79a7"/><circle cx="278.7" cy="230.1" r="3" fill="#4e79a7"/><circle cx="290.0" cy="224.0" r="3" fill="#4e79a7"/><circle cx="301.3" cy="225.5" r="3" fill="#4e79a7"/><circle cx="312.7" cy="228.9" r="3" fill="#4e79a7"/><circle cx="324.0" cy="223.2" r="3" fill="#4e79a7"/><circle cx="335.3" cy="230.1" r="3" fill="#4e79a7"/><circle cx="346.7" cy="228.2" r="3" fill="#4e79a7"/><circle cx="358.0" cy="223.6" r="3" fill="#4e79a7"/><circle cx="369.3" cy="213.7" r="3" fill="#4e79a7"/><circle cx="380.7" cy="226.7" r="3" fill="#4e79a7"/><circle cx="392.0" cy="223.2" r="3" fill="#4e79a7"/><circle cx="403.3" cy="230.9" r="3" fill="#4e79a7"/><circle cx="414.7" cy="37.2" r="3" fill="#4e79a7"/><circle cx="426.0" cy="28.0" r="3" fill="#4e79a7"/><circle cx="437.3" cy="225.9" r="3" fill="#4e79a7"/><circle cx="448.7" cy="225.1" r="3" fill="#4e79a7"/><circle cx="460.0" cy="221.7" r="3" fill="#4e79a7"/><circle cx="471.3" cy="225.1" r="3" fill="#4e79a7"/><circle cx="482.7" cy="219.0" r="3" fill="#4e79a7"/><circle cx="494.0" cy="172.8" r="3" fill="#4e79a7"/><circle cx="505.3" cy="67.0" r="3" fill="#4e79a7"/><circle cx="516.7" cy="101.0" r="3" fill="#4e79a7"/><circle cx="528.0" cy="213.3" r="3" fill="#4e79a7"/><circle cx="539.3" cy="217.9" r="3" fill="#4e79a7"/><circle cx="550.7" cy="227.8" r="3" fill="#4e79a7"/><circle cx="562.0" cy="230.9" r="3" fill="#4e79a7"/><circle cx="573.3" cy="160.9" r="3" fill="#4e79a7"/><circle cx="584.7" cy="228.9" r="3" fill="#4e79a7"/><circle cx="596.0" cy="230.9" r="3" fill="#4e79a7"/><circle cx="607.3" cy="228.9" r="3" fill="#4e79a7"/><circle cx="618.7" cy="228.2" r="3" fill="#4e79a7"/><circle cx="630.0" cy="230.1" r="3" fill="#4e79a7"/><circle cx="641.3" cy="231.6" r="3" fill="#4e79a7"/><circle cx="652.7" cy="230.9" r="3" fill="#4e79a7"/><circle cx="664.0" cy="227.4" r="3" fill="#4e79a7"/><circle cx="675.3" cy="231.6" r="3" fill="#4e79a7"/><circle cx="686.7" cy="228.2" r="3" fill="#4e79a7"/><circle cx="698.0" cy="223.6" r="3" fill="#4e79a7"/><circle cx="709.3" cy="231.2" r="3" fill="#4e79a7"/><circle cx="720.7" cy="224.7" r="3" fill="#4e79a7"/><circle cx="732.0" cy="228.6" r="3" fill="#4e79a7"/><circle cx="743.3" cy="229.3" r="3" fill="#4e79a7"/><circle cx="754.7" cy="231.6" r="3" fill="#4e79a7"/><circle cx="766.0" cy="230.5" r="3" fill="#4e79a7"/><circle cx="777.3" cy="230.1" r="3" fill="#4e79a7"/><circle cx="788.7" cy="214.4" r="3" fill="#4e79a7"/><circle cx="800.0" cy="227.0" r="3" fill="#4e79a7"/>
  <circle cx="52.0" cy="230.9" r="3" fill="#f28e2b"/><circle cx="63.3" cy="230.5" r="3" fill="#f28e2b"/><circle cx="74.7" cy="230.9" r="3" fill="#f28e2b"/><circle cx="86.0" cy="230.5" r="3" fill="#f28e2b"/><circle cx="97.3" cy="230.5" r="3" fill="#f28e2b"/><circle cx="108.7" cy="230.9" r="3" fill="#f28e2b"/><circle cx="120.0" cy="230.9" r="3" fill="#f28e2b"/><circle cx="131.3" cy="230.5" r="3" fill="#f28e2b"/><circle cx="142.7" cy="231.2" r="3" fill="#f28e2b"/><circle cx="154.0" cy="230.9" r="3" fill="#f28e2b"/><circle cx="165.3" cy="180.8" r="3" fill="#f28e2b"/><circle cx="176.7" cy="226.3" r="3" fill="#f28e2b"/><circle cx="188.0" cy="230.5" r="3" fill="#f28e2b"/><circle cx="199.3" cy="229.7" r="3" fill="#f28e2b"/><circle cx="210.7" cy="224.7" r="3" fill="#f28e2b"/><circle cx="222.0" cy="227.8" r="3" fill="#f28e2b"/><circle cx="233.3" cy="229.7" r="3" fill="#f28e2b"/><circle cx="244.7" cy="230.1" r="3" fill="#f28e2b"/><circle cx="256.0" cy="228.6" r="3" fill="#f28e2b"/><circle cx="267.3" cy="231.2" r="3" fill="#f28e2b"/><circle cx="278.7" cy="231.2" r="3" fill="#f28e2b"/><circle cx="290.0" cy="231.2" r="3" fill="#f28e2b"/><circle cx="301.3" cy="231.2" r="3" fill="#f28e2b"/><circle cx="312.7" cy="231.2" r="3" fill="#f28e2b"/><circle cx="324.0" cy="230.1" r="3" fill="#f28e2b"/><circle cx="335.3" cy="231.2" r="3" fill="#f28e2b"/><circle cx="346.7" cy="231.2" r="3" fill="#f28e2b"/><circle cx="358.0" cy="230.9" r="3" fill="#f28e2b"/><circle cx="369.3" cy="226.7" r="3" fill="#f28e2b"/><circle cx="380.7" cy="230.1" r="3" fill="#f28e2b"/><circle cx="392.0" cy="230.5" r="3" fill="#f28e2b"/><circle cx="403.3" cy="231.6" r="3" fill="#f28e2b"/><circle cx="414.7" cy="184.6" r="3" fill="#f28e2b"/><circle cx="426.0" cy="196.5" r="3" fill="#f28e2b"/><circle cx="437.3" cy="230.1" r="3" fill="#f28e2b"/><circle cx="448.7" cy="231.2" r="3" fill="#f28e2b"/><circle cx="460.0" cy="231.2" r="3" fill="#f28e2b"/><circle cx="471.3" cy="231.2" r="3" fill="#f28e2b"/><circle cx="482.7" cy="230.1" r="3" fill="#f28e2b"/><circle cx="494.0" cy="225.1" r="3" fill="#f28e2b"/><circle cx="505.3" cy="207.6" r="3" fill="#f28e2b"/><circle cx="516.7" cy="214.0" r="3" fill="#f28e2b"/><circle cx="528.0" cy="225.9" r="3" fill="#f28e2b"/><circle cx="539.3" cy="224.0" r="3" fill="#f28e2b"/><circle cx="550.7" cy="230.1" r="3" fill="#f28e2b"/><circle cx="562.0" cy="230.9" r="3" fill="#f28e2b"/><circle cx="573.3" cy="221.7" r="3" fill="#f28e2b"/><circle cx="584.7" cy="230.5" r="3" fill="#f28e2b"/><circle cx="596.0" cy="231.2" r="3" fill="#f28e2b"/><circle cx="607.3" cy="230.5" r="3" fill="#f28e2b"/><circle cx="618.7" cy="230.5" r="3" fill="#f28e2b"/><circle cx="630.0" cy="231.2" r="3" fill="#f28e2b"/><circle cx="641.3" cy="231.6" r="3" fill="#f28e2b"/><circle cx="652.7" cy="231.2" r="3" fill="#f28e2b"/><circle cx="664.0" cy="230.5" r="3" fill="#f28e2b"/><circle cx="675.3" cy="231.6" r="3" fill="#f28e2b"/><circle cx="686.7" cy="230.5" r="3" fill="#f28e2b"/><circle cx="698.0" cy="231.2" r="3" fill="#f28e2b"/><circle cx="709.3" cy="231.6" r="3" fill="#f28e2b"/><circle cx="720.7" cy="230.1" r="3" fill="#f28e2b"/><circle cx="732.0" cy="231.2" r="3" fill="#f28e2b"/><circle cx="743.3" cy="231.2" r="3" fill="#f28e2b"/><circle cx="754.7" cy="231.6" r="3" fill="#f28e2b"/><circle cx="766.0" cy="230.9" r="3" fill="#f28e2b"/><circle cx="777.3" cy="230.5" r="3" fill="#f28e2b"/><circle cx="788.7" cy="230.1" r="3" fill="#f28e2b"/><circle cx="800.0" cy="231.2" r="3" fill="#f28e2b"/>

  <!-- axes -->
  <line x1="52" y1="28" x2="52" y2="232"
        stroke="#cccccc" stroke-width="1"/>
  <line x1="52" y1="232" x2="800" y2="232"
        stroke="#cccccc" stroke-width="1"/>

  <!-- y-axis labels -->
  <text x="47" y="236.0" text-anchor="end" font-size="10" fill="#57606a" font-family="ui-monospace, SFMono-Regular, 'SF Mono', Menlo, monospace">0</text><text x="47" y="197.8" text-anchor="end" font-size="10" fill="#57606a" font-family="ui-monospace, SFMono-Regular, 'SF Mono', Menlo, monospace">100</text><text x="47" y="159.6" text-anchor="end" font-size="10" fill="#57606a" font-family="ui-monospace, SFMono-Regular, 'SF Mono', Menlo, monospace">200</text><text x="47" y="121.4" text-anchor="end" font-size="10" fill="#57606a" font-family="ui-monospace, SFMono-Regular, 'SF Mono', Menlo, monospace">300</text><text x="47" y="83.2" text-anchor="end" font-size="10" fill="#57606a" font-family="ui-monospace, SFMono-Regular, 'SF Mono', Menlo, monospace">400</text><text x="47" y="45.0" text-anchor="end" font-size="10" fill="#57606a" font-family="ui-monospace, SFMono-Regular, 'SF Mono', Menlo, monospace">500</text><text x="47" y="6.8" text-anchor="end" font-size="10" fill="#57606a" font-family="ui-monospace, SFMono-Regular, 'SF Mono', Menlo, monospace">600</text>

  <!-- x-axis labels -->
  <text x="52.0" y="248" text-anchor="middle" font-size="10" fill="#8c959f" font-family="ui-monospace, SFMono-Regular, 'SF Mono', Menlo, monospace">05-11</text><text x="414.7" y="248" text-anchor="middle" font-size="10" fill="#8c959f" font-family="ui-monospace, SFMono-Regular, 'SF Mono', Menlo, monospace">06-12</text><text x="777.3" y="248" text-anchor="middle" font-size="10" fill="#8c959f" font-family="ui-monospace, SFMono-Regular, 'SF Mono', Menlo, monospace">07-14</text><text x="800.0" y="248" text-anchor="middle" font-size="10" fill="#8c959f" font-family="ui-monospace, SFMono-Regular, 'SF Mono', Menlo, monospace">07-16</text><text x="142.7" y="248" text-anchor="middle" font-size="10" fill="#8c959f" font-family="ui-monospace, SFMono-Regular, 'SF Mono', Menlo, monospace">05-19</text><text x="505.3" y="248" text-anchor="middle" font-size="10" fill="#8c959f" font-family="ui-monospace, SFMono-Regular, 'SF Mono', Menlo, monospace">06-20</text><text x="233.3" y="248" text-anchor="middle" font-size="10" fill="#8c959f" font-family="ui-monospace, SFMono-Regular, 'SF Mono', Menlo, monospace">05-27</text><text x="596.0" y="248" text-anchor="middle" font-size="10" fill="#8c959f" font-family="ui-monospace, SFMono-Regular, 'SF Mono', Menlo, monospace">06-28</text><text x="324.0" y="248" text-anchor="middle" font-size="10" fill="#8c959f" font-family="ui-monospace, SFMono-Regular, 'SF Mono', Menlo, monospace">06-04</text><text x="686.7" y="248" text-anchor="middle" font-size="10" fill="#8c959f" font-family="ui-monospace, SFMono-Regular, 'SF Mono', Menlo, monospace">07-06</text>

  <!-- legend -->
  <rect x="60" y="262" width="16" height="3" fill="#4e79a7" rx="1"/><text x="80" y="268" font-size="11" fill="#57606a" font-family="-apple-system, BlinkMacSystemFont, 'Segoe UI', sans-serif">Total clones (4,268)</text><line x1="230" y1="264" x2="246" y2="264" stroke="#f28e2b" stroke-width="2" stroke-dasharray="5,3"/><text x="250" y="268" font-size="11" fill="#57606a" font-family="-apple-system, BlinkMacSystemFont, 'Segoe UI', sans-serif">Unique cloners</text>

</svg>