<svg xmlns="http://www.w3.org/2000/svg" viewBox="0 0 820 280" width="820" height="280">

  <!-- title -->
  <text x="52" y="18" font-size="13" font-weight="600"
        fill="#24292f" font-family="-apple-system, BlinkMacSystemFont, 'Segoe UI', sans-serif"
        >Clone traffic — script-helpers</text>
  <text x="800" y="18" font-size="10" fill="#8c959f"
        font-family="ui-monospace, SFMono-Regular, 'SF Mono', Menlo, monospace" text-anchor="end">2026-07-17</text>

  <!-- grid -->
  <line x1="52" y1="232.0" x2="800" y2="232.0" stroke="#e8e8e8" stroke-width="1"/><line x1="52" y1="193.8" x2="800" y2="193.8" stroke="#e8e8e8" stroke-width="1"/><line x1="52" y1="155.6" x2="800" y2="155.6" stroke="#e8e8e8" stroke-width="1"/><line x1="52" y1="117.4" x2="800" y2="117.4" stroke="#e8e8e8" stroke-width="1"/><line x1="52" y1="79.2" x2="800" y2="79.2" stroke="#e8e8e8" stroke-width="1"/><line x1="52" y1="41.0" x2="800" y2="41.0" stroke="#e8e8e8" stroke-width="1"/><line x1="52" y1="2.8" x2="800" y2="2.8" stroke="#e8e8e8" stroke-width="1"/>

  <!-- area fill -->
  <path d="M52.0,228.9 L52.0,228.9 L63.5,228.2 L75.0,229.7 L86.5,205.6 L98.0,204.1 L109.5,216.0 L121.0,217.5 L132.6,189.2 L144.1,202.2 L155.6,209.1 L167.1,86.1 L178.6,222.1 L190.1,180.8 L201.6,200.7 L213.1,171.6 L224.6,204.1 L236.1,202.6 L247.6,213.3 L259.1,223.2 L270.6,229.3 L282.2,230.1 L293.7,224.0 L305.2,225.5 L316.7,228.9 L328.2,223.2 L339.7,230.1 L351.2,228.2 L362.7,223.6 L374.2,213.7 L385.7,226.7 L397.2,223.2 L408.7,230.9 L420.2,37.2 L431.8,28.0 L443.3,225.9 L454.8,225.1 L466.3,221.7 L477.8,225.1 L489.3,219.0 L500.8,172.8 L512.3,67.0 L523.8,101.0 L535.3,213.3 L546.8,217.9 L558.3,227.8 L569.8,230.9 L581.4,160.9 L592.9,228.9 L604.4,230.9 L615.9,228.9 L627.4,228.2 L638.9,230.1 L650.4,231.6 L661.9,230.9 L673.4,227.4 L684.9,231.6 L696.4,228.2 L707.9,223.6 L719.4,231.2 L731.0,224.7 L742.5,228.6 L754.0,229.3 L765.5,231.6 L777.0,230.5 L788.5,230.1 L800.0,214.4 L800.0,232.0 L52.0,232.0Z" fill="#4e79a7" opacity="0.12"/>

  <!-- lines -->
  <polyline points="52.0,228.9 63.5,228.2 75.0,229.7 86.5,205.6 98.0,204.1 109.5,216.0 121.0,217.5 132.6,189.2 144.1,202.2 155.6,209.1 167.1,86.1 178.6,222.1 190.1,180.8 201.6,200.7 213.1,171.6 224.6,204.1 236.1,202.6 247.6,213.3 259.1,223.2 270.6,229.3 282.2,230.1 293.7,224.0 305.2,225.5 316.7,228.9 328.2,223.2 339.7,230.1 351.2,228.2 362.7,223.6 374.2,213.7 385.7,226.7 397.2,223.2 408.7,230.9 420.2,37.2 431.8,28.0 443.3,225.9 454.8,225.1 466.3,221.7 477.8,225.1 489.3,219.0 500.8,172.8 512.3,67.0 523.8,101.0 535.3,213.3 546.8,217.9 558.3,227.8 569.8,230.9 581.4,160.9 592.9,228.9 604.4,230.9 615.9,228.9 627.4,228.2 638.9,230.1 650.4,231.6 661.9,230.9 673.4,227.4 684.9,231.6 696.4,228.2 707.9,223.6 719.4,231.2 731.0,224.7 742.5,228.6 754.0,229.3 765.5,231.6 777.0,230.5 788.5,230.1 800.0,214.4"
            fill="none" stroke="#4e79a7"
            stroke-width="2" stroke-linejoin="round"/>
  <polyline points="52.0,230.9 63.5,230.5 75.0,230.9 86.5,230.5 98.0,230.5 109.5,230.9 121.0,230.9 132.6,230.5 144.1,231.2 155.6,230.9 167.1,180.8 178.6,226.3 190.1,230.5 201.6,229.7 213.1,224.7 224.6,227.8 236.1,229.7 247.6,230.1 259.1,228.6 270.6,231.2 282.2,231.2 293.7,231.2 305.2,231.2 316.7,231.2 328.2,230.1 339.7,231.2 351.2,231.2 362.7,230.9 374.2,226.7 385.7,230.1 397.2,230.5 408.7,231.6 420.2,184.6 431.8,196.5 443.3,230.1 454.8,231.2 466.3,231.2 477.8,231.2 489.3,230.1 500.8,225.1 512.3,207.6 523.8,214.0 535.3,225.9 546.8,224.0 558.3,230.1 569.8,230.9 581.4,221.7 592.9,230.5 604.4,231.2 615.9,230.5 627.4,230.5 638.9,231.2 650.4,231.6 661.9,231.2 673.4,230.5 684.9,231.6 696.4,230.5 707.9,231.2 719.4,231.6 731.0,230.1 742.5,231.2 754.0,231.2 765.5,231.6 777.0,230.9 788.5,230.5 800.0,230.1"
            fill="none" stroke="#f28e2b"
            stroke-width="2" stroke-linejoin="round"
            stroke-dasharray="5,3"/>

  <!-- dots -->
  <circle cx="52.0" cy="228.9" r="3" fill="#4e79a7"/><circle cx="63.5" cy="228.2" r="3" fill="#4e79a7"/><circle cx="75.0" cy="229.7" r="3" fill="#4e79a7"/><circle cx="86.5" cy="205.6" r="3" fill="#4e79a7"/><circle cx="98.0" cy="204.1" r="3" fill="#4e79a7"/><circle cx="109.5" cy="216.0" r="3" fill="#4e79a7"/><circle cx="121.0" cy="217.5" r="3" fill="#4e79a7"/><circle cx="132.6" cy="189.2" r="3" fill="#4e79a7"/><circle cx="144.1" cy="202.2" r="3" fill="#4e79a7"/><circle cx="155.6" cy="209.1" r="3" fill="#4e79a7"/><circle cx="167.1" cy="86.1" r="3" fill="#4e79a7"/><circle cx="178.6" cy="222.1" r="3" fill="#4e79a7"/><circle cx="190.1" cy="180.8" r="3" fill="#4e79a7"/><circle cx="201.6" cy="200.7" r="3" fill="#4e79a7"/><circle cx="213.1" cy="171.6" r="3" fill="#4e79a7"/><circle cx="224.6" cy="204.1" r="3" fill="#4e79a7"/><circle cx="236.1" cy="202.6" r="3" fill="#4e79a7"/><circle cx="247.6" cy="213.3" r="3" fill="#4e79a7"/><circle cx="259.1" cy="223.2" r="3" fill="#4e79a7"/><circle cx="270.6" cy="229.3" r="3" fill="#4e79a7"/><circle cx="282.2" cy="230.1" r="3" fill="#4e79a7"/><circle cx="293.7" cy="224.0" r="3" fill="#4e79a7"/><circle cx="305.2" cy="225.5" r="3" fill="#4e79a7"/><circle cx="316.7" cy="228.9" r="3" fill="#4e79a7"/><circle cx="328.2" cy="223.2" r="3" fill="#4e79a7"/><circle cx="339.7" cy="230.1" r="3" fill="#4e79a7"/><circle cx="351.2" cy="228.2" r="3" fill="#4e79a7"/><circle cx="362.7" cy="223.6" r="3" fill="#4e79a7"/><circle cx="374.2" cy="213.7" r="3" fill="#4e79a7"/><circle cx="385.7" cy="226.7" r="3" fill="#4e79a7"/><circle cx="397.2" cy="223.2" r="3" fill="#4e79a7"/><circle cx="408.7" cy="230.9" r="3" fill="#4e79a7"/><circle cx="420.2" cy="37.2" r="3" fill="#4e79a7"/><circle cx="431.8" cy="28.0" r="3" fill="#4e79a7"/><circle cx="443.3" cy="225.9" r="3" fill="#4e79a7"/><circle cx="454.8" cy="225.1" r="3" fill="#4e79a7"/><circle cx="466.3" cy="221.7" r="3" fill="#4e79a7"/><circle cx="477.8" cy="225.1" r="3" fill="#4e79a7"/><circle cx="489.3" cy="219.0" r="3" fill="#4e79a7"/><circle cx="500.8" cy="172.8" r="3" fill="#4e79a7"/><circle cx="512.3" cy="67.0" r="3" fill="#4e79a7"/><circle cx="523.8" cy="101.0" r="3" fill="#4e79a7"/><circle cx="535.3" cy="213.3" r="3" fill="#4e79a7"/><circle cx="546.8" cy="217.9" r="3" fill="#4e79a7"/><circle cx="558.3" cy="227.8" r="3" fill="#4e79a7"/><circle cx="569.8" cy="230.9" r="3" fill="#4e79a7"/><circle cx="581.4" cy="160.9" r="3" fill="#4e79a7"/><circle cx="592.9" cy="228.9" r="3" fill="#4e79a7"/><circle cx="604.4" cy="230.9" r="3" fill="#4e79a7"/><circle cx="615.9" cy="228.9" r="3" fill="#4e79a7"/><circle cx="627.4" cy="228.2" r="3" fill="#4e79a7"/><circle cx="638.9" cy="230.1" r="3" fill="#4e79a7"/><circle cx="650.4" cy="231.6" r="3" fill="#4e79a7"/><circle cx="661.9" cy="230.9" r="3" fill="#4e79a7"/><circle cx="673.4" cy="227.4" r="3" fill="#4e79a7"/><circle cx="684.9" cy="231.6" r="3" fill="#4e79a7"/><circle cx="696.4" cy="228.2" r="3" fill="#4e79a7"/><circle cx="707.9" cy="223.6" r="3" fill="#4e79a7"/><circle cx="719.4" cy="231.2" r="3" fill="#4e79a7"/><circle cx="731.0" cy="224.7" r="3" fill="#4e79a7"/><circle cx="742.5" cy="228.6" r="3" fill="#4e79a7"/><circle cx="754.0" cy="229.3" r="3" fill="#4e79a7"/><circle cx="765.5" cy="231.6" r="3" fill="#4e79a7"/><circle cx="777.0" cy="230.5" r="3" fill="#4e79a7"/><circle cx="788.5" cy="230.1" r="3" fill="#4e79a7"/><circle cx="800.0" cy="214.4" r="3" fill="#4e79a7"/>
  <circle cx="52.0" cy="230.9" r="3" fill="#f28e2b"/><circle cx="63.5" cy="230.5" r="3" fill="#f28e2b"/><circle cx="75.0" cy="230.9" r="3" fill="#f28e2b"/><circle cx="86.5" cy="230.5" r="3" fill="#f28e2b"/><circle cx="98.0" cy="230.5" r="3" fill="#f28e2b"/><circle cx="109.5" cy="230.9" r="3" fill="#f28e2b"/><circle cx="121.0" cy="230.9" r="3" fill="#f28e2b"/><circle cx="132.6" cy="230.5" r="3" fill="#f28e2b"/><circle cx="144.1" cy="231.2" r="3" fill="#f28e2b"/><circle cx="155.6" cy="230.9" r="3" fill="#f28e2b"/><circle cx="167.1" cy="180.8" r="3" fill="#f28e2b"/><circle cx="178.6" cy="226.3" r="3" fill="#f28e2b"/><circle cx="190.1" cy="230.5" r="3" fill="#f28e2b"/><circle cx="201.6" cy="229.7" r="3" fill="#f28e2b"/><circle cx="213.1" cy="224.7" r="3" fill="#f28e2b"/><circle cx="224.6" cy="227.8" r="3" fill="#f28e2b"/><circle cx="236.1" cy="229.7" r="3" fill="#f28e2b"/><circle cx="247.6" cy="230.1" r="3" fill="#f28e2b"/><circle cx="259.1" cy="228.6" r="3" fill="#f28e2b"/><circle cx="270.6" cy="231.2" r="3" fill="#f28e2b"/><circle cx="282.2" cy="231.2" r="3" fill="#f28e2b"/><circle cx="293.7" cy="231.2" r="3" fill="#f28e2b"/><circle cx="305.2" cy="231.2" r="3" fill="#f28e2b"/><circle cx="316.7" cy="231.2" r="3" fill="#f28e2b"/><circle cx="328.2" cy="230.1" r="3" fill="#f28e2b"/><circle cx="339.7" cy="231.2" r="3" fill="#f28e2b"/><circle cx="351.2" cy="231.2" r="3" fill="#f28e2b"/><circle cx="362.7" cy="230.9" r="3" fill="#f28e2b"/><circle cx="374.2" cy="226.7" r="3" fill="#f28e2b"/><circle cx="385.7" cy="230.1" r="3" fill="#f28e2b"/><circle cx="397.2" cy="230.5" r="3" fill="#f28e2b"/><circle cx="408.7" cy="231.6" r="3" fill="#f28e2b"/><circle cx="420.2" cy="184.6" r="3" fill="#f28e2b"/><circle cx="431.8" cy="196.5" r="3" fill="#f28e2b"/><circle cx="443.3" cy="230.1" r="3" fill="#f28e2b"/><circle cx="454.8" cy="231.2" r="3" fill="#f28e2b"/><circle cx="466.3" cy="231.2" r="3" fill="#f28e2b"/><circle cx="477.8" cy="231.2" r="3" fill="#f28e2b"/><circle cx="489.3" cy="230.1" r="3" fill="#f28e2b"/><circle cx="500.8" cy="225.1" r="3" fill="#f28e2b"/><circle cx="512.3" cy="207.6" r="3" fill="#f28e2b"/><circle cx="523.8" cy="214.0" r="3" fill="#f28e2b"/><circle cx="535.3" cy="225.9" r="3" fill="#f28e2b"/><circle cx="546.8" cy="224.0" r="3" fill="#f28e2b"/><circle cx="558.3" cy="230.1" r="3" fill="#f28e2b"/><circle cx="569.8" cy="230.9" r="3" fill="#f28e2b"/><circle cx="581.4" cy="221.7" r="3" fill="#f28e2b"/><circle cx="592.9" cy="230.5" r="3" fill="#f28e2b"/><circle cx="604.4" cy="231.2" r="3" fill="#f28e2b"/><circle cx="615.9" cy="230.5" r="3" fill="#f28e2b"/><circle cx="627.4" cy="230.5" r="3" fill="#f28e2b"/><circle cx="638.9" cy="231.2" r="3" fill="#f28e2b"/><circle cx="650.4" cy="231.6" r="3" fill="#f28e2b"/><circle cx="661.9" cy="231.2" r="3" fill="#f28e2b"/><circle cx="673.4" cy="230.5" r="3" fill="#f28e2b"/><circle cx="684.9" cy="231.6" r="3" fill="#f28e2b"/><circle cx="696.4" cy="230.5" r="3" fill="#f28e2b"/><circle cx="707.9" cy="231.2" r="3" fill="#f28e2b"/><circle cx="719.4" cy="231.6" r="3" fill="#f28e2b"/><circle cx="731.0" cy="230.1" r="3" fill="#f28e2b"/><circle cx="742.5" cy="231.2" r="3" fill="#f28e2b"/><circle cx="754.0" cy="231.2" r="3" fill="#f28e2b"/><circle cx="765.5" cy="231.6" r="3" fill="#f28e2b"/><circle cx="777.0" cy="230.9" r="3" fill="#f28e2b"/><circle cx="788.5" cy="230.5" r="3" fill="#f28e2b"/><circle cx="800.0" cy="230.1" r="3" fill="#f28e2b"/>

  <!-- axes -->
  <line x1="52" y1="28" x2="52" y2="232"
        stroke="#cccccc" stroke-width="1"/>
  <line x1="52" y1="232" x2="800" y2="232"
        stroke="#cccccc" stroke-width="1"/>

  <!-- y-axis labels -->
  <text x="47" y="236.0" text-anchor="end" font-size="10" fill="#57606a" font-family="ui-monospace, SFMono-Regular, 'SF Mono', Menlo, monospace">0</text><text x="47" y="197.8" text-anchor="end" font-size="10" fill="#57606a" font-family="ui-monospace, SFMono-Regular, 'SF Mono', Menlo, monospace">100</text><text x="47" y="159.6" text-anchor="end" font-size="10" fill="#57606a" font-family="ui-monospace, SFMono-Regular, 'SF Mono', Menlo, monospace">200</text><text x="47" y="121.4" text-anchor="end" font-size="10" fill="#57606a" font-family="ui-monospace, SFMono-Regular, 'SF Mono', Menlo, monospace">300</text><text x="47" y="83.2" text-anchor="end" font-size="10" fill="#57606a" font-family="ui-monospace, SFMono-Regular, 'SF Mono', Menlo, monospace">400</text><text x="47" y="45.0" text-anchor="end" font-size="10" fill="#57606a" font-family="ui-monospace, SFMono-Regular, 'SF Mono', Menlo, monospace">500</text><text x="47" y="6.8" text-anchor="end" font-size="10" fill="#57606a" font-family="ui-monospace, SFMono-Regular, 'SF Mono', Menlo, monospace">600</text>

  <!-- x-axis labels -->
  <text x="52.0" y="248" text-anchor="middle" font-size="10" fill="#8c959f" font-family="ui-monospace, SFMono-Regular, 'SF Mono', Menlo, monospace">05-11</text><text x="420.2" y="248" text-anchor="middle" font-size="10" fill="#8c959f" font-family="ui-monospace, SFMono-Regular, 'SF Mono', Menlo, monospace">06-12</text><text x="788.5" y="248" text-anchor="middle" font-size="10" fill="#8c959f" font-family="ui-monospace, SFMono-Regular, 'SF Mono', Menlo, monospace">07-14</text><text x="800.0" y="248" text-anchor="middle" font-size="10" fill="#8c959f" font-family="ui-monospace, SFMono-Regular, 'SF Mono', Menlo, monospace">07-15</text><text x="144.1" y="248" text-anchor="middle" font-size="10" fill="#8c959f" font-family="ui-monospace, SFMono-Regular, 'SF Mono', Menlo, monospace">05-19</text><text x="512.3" y="248" text-anchor="middle" font-size="10" fill="#8c959f" font-family="ui-monospace, SFMono-Regular, 'SF Mono', Menlo, monospace">06-20</text><text x="236.1" y="248" text-anchor="middle" font-size="10" fill="#8c959f" font-family="ui-monospace, SFMono-Regular, 'SF Mono', Menlo, monospace">05-27</text><text x="604.4" y="248" text-anchor="middle" font-size="10" fill="#8c959f" font-family="ui-monospace, SFMono-Regular, 'SF Mono', Menlo, monospace">06-28</text><text x="328.2" y="248" text-anchor="middle" font-size="10" fill="#8c959f" font-family="ui-monospace, SFMono-Regular, 'SF Mono', Menlo, monospace">06-04</text><text x="696.4" y="248" text-anchor="middle" font-size="10" fill="#8c959f" font-family="ui-monospace, SFMono-Regular, 'SF Mono', Menlo, monospace">07-06</text>

  <!-- legend -->
  <rect x="60" y="262" width="16" height="3" fill="#4e79a7" rx="1"/><text x="80" y="268" font-size="11" fill="#57606a" font-family="-apple-system, BlinkMacSystemFont, 'Segoe UI', sans-serif">Total clones (4,255)</text><line x1="230" y1="264" x2="246" y2="264" stroke="#f28e2b" stroke-width="2" stroke-dasharray="5,3"/><text x="250" y="268" font-size="11" fill="#57606a" font-family="-apple-system, BlinkMacSystemFont, 'Segoe UI', sans-serif">Unique cloners</text>

</svg>