<svg xmlns="http://www.w3.org/2000/svg" viewBox="0 0 820 280" width="820" height="280">

  <!-- title -->
  <text x="52" y="18" font-size="13" font-weight="600"
        fill="#24292f" font-family="-apple-system, BlinkMacSystemFont, 'Segoe UI', sans-serif"
        >Clone traffic — script-helpers</text>
  <text x="800" y="18" font-size="10" fill="#8c959f"
        font-family="ui-monospace, SFMono-Regular, 'SF Mono', Menlo, monospace" text-anchor="end">2026-09-23</text>

  <!-- grid -->
  <line x1="52" y1="232.0" x2="800" y2="232.0" stroke="#e8e8e8" stroke-width="1"/><line x1="52" y1="193.8" x2="800" y2="193.8" stroke="#e8e8e8" stroke-width="1"/><line x1="52" y1="155.6" x2="800" y2="155.6" stroke="#e8e8e8" stroke-width="1"/><line x1="52" y1="117.4" x2="800" y2="117.4" stroke="#e8e8e8" stroke-width="1"/><line x1="52" y1="79.2" x2="800" y2="79.2" stroke="#e8e8e8" stroke-width="1"/><line x1="52" y1="41.0" x2="800" y2="41.0" stroke="#e8e8e8" stroke-width="1"/><line x1="52" y1="2.8" x2="800" y2="2.8" stroke="#e8e8e8" stroke-width="1"/>

  <!-- area fill -->
  <path d="M52.0,228.9 L52.0,228.9 L57.8,228.2 L63.7,229.7 L69.5,205.6 L75.4,204.1 L81.2,216.0 L87.1,217.5 L92.9,189.2 L98.8,202.2 L104.6,209.1 L110.4,86.1 L116.3,222.1 L122.1,180.8 L128.0,200.7 L133.8,171.6 L139.7,204.1 L145.5,202.6 L151.3,213.3 L157.2,223.2 L163.0,229.3 L168.9,230.1 L174.7,224.0 L180.6,225.5 L186.4,228.9 L192.2,223.2 L198.1,230.1 L203.9,228.2 L209.8,223.6 L215.6,213.7 L221.5,226.7 L227.3,223.2 L233.2,230.9 L239.0,37.2 L244.8,28.0 L250.7,225.9 L256.5,225.1 L262.4,221.7 L268.2,225.1 L274.1,219.0 L279.9,172.8 L285.8,67.0 L291.6,101.0 L297.4,213.3 L303.3,217.9 L309.1,227.8 L315.0,230.9 L320.8,160.9 L326.7,228.9 L332.5,230.9 L338.3,228.9 L344.2,228.2 L350.0,230.1 L355.9,231.6 L361.7,230.9 L367.6,227.4 L373.4,231.6 L379.2,228.2 L385.1,223.6 L390.9,231.2 L396.8,224.7 L402.6,228.6 L408.5,229.3 L414.3,231.6 L420.2,230.5 L426.0,230.1 L431.8,214.4 L437.7,227.0 L443.5,231.6 L449.4,214.0 L455.2,231.2 L461.1,194.9 L466.9,194.9 L472.8,207.2 L478.6,228.2 L484.4,228.6 L490.3,215.2 L496.1,184.2 L502.0,194.9 L507.8,220.5 L513.7,229.3 L519.5,227.4 L525.3,208.3 L531.2,190.0 L537.0,223.2 L542.9,226.7 L548.7,223.6 L554.6,220.2 L560.4,222.1 L566.2,228.2 L572.1,206.4 L577.9,177.4 L583.8,221.3 L589.6,225.9 L595.5,225.5 L601.3,232.0 L607.2,230.9 L613.0,229.7 L618.8,227.0 L624.7,209.1 L630.5,229.7 L636.4,229.3 L642.2,220.2 L648.1,230.9 L653.9,229.7 L659.8,232.0 L665.6,228.9 L671.4,232.0 L677.3,231.6 L683.1,214.4 L689.0,118.2 L694.8,203.3 L700.7,208.7 L706.5,185.4 L712.3,219.0 L718.2,196.9 L724.0,222.8 L729.9,185.4 L735.7,60.1 L741.6,209.5 L747.4,182.0 L753.2,200.3 L759.1,217.5 L764.9,196.1 L770.8,218.2 L776.6,208.3 L782.5,164.4 L788.3,150.6 L794.2,193.0 L800.0,139.9 L800.0,232.0 L52.0,232.0Z" fill="#4e79a7" opacity="0.12"/>

  <!-- lines -->
  <polyline points="52.0,228.9 57.8,228.2 63.7,229.7 69.5,205.6 75.4,204.1 81.2,216.0 87.1,217.5 92.9,189.2 98.8,202.2 104.6,209.1 110.4,86.1 116.3,222.1 122.1,180.8 128.0,200.7 133.8,171.6 139.7,204.1 145.5,202.6 151.3,213.3 157.2,223.2 163.0,229.3 168.9,230.1 174.7,224.0 180.6,225.5 186.4,228.9 192.2,223.2 198.1,230.1 203.9,228.2 209.8,223.6 215.6,213.7 221.5,226.7 227.3,223.2 233.2,230.9 239.0,37.2 244.8,28.0 250.7,225.9 256.5,225.1 262.4,221.7 268.2,225.1 274.1,219.0 279.9,172.8 285.8,67.0 291.6,101.0 297.4,213.3 303.3,217.9 309.1,227.8 315.0,230.9 320.8,160.9 326.7,228.9 332.5,230.9 338.3,228.9 344.2,228.2 350.0,230.1 355.9,231.6 361.7,230.9 367.6,227.4 373.4,231.6 379.2,228.2 385.1,223.6 390.9,231.2 396.8,224.7 402.6,228.6 408.5,229.3 414.3,231.6 420.2,230.5 426.0,230.1 431.8,214.4 437.7,227.0 443.5,231.6 449.4,214.0 455.2,231.2 461.1,194.9 466.9,194.9 472.8,207.2 478.6,228.2 484.4,228.6 490.3,215.2 496.1,184.2 502.0,194.9 507.8,220.5 513.7,229.3 519.5,227.4 525.3,208.3 531.2,190.0 537.0,223.2 542.9,226.7 548.7,223.6 554.6,220.2 560.4,222.1 566.2,228.2 572.1,206.4 577.9,177.4 583.8,221.3 589.6,225.9 595.5,225.5 601.3,232.0 607.2,230.9 613.0,229.7 618.8,227.0 624.7,209.1 630.5,229.7 636.4,229.3 642.2,220.2 648.1,230.9 653.9,229.7 659.8,232.0 665.6,228.9 671.4,232.0 677.3,231.6 683.1,214.4 689.0,118.2 694.8,203.3 700.7,208.7 706.5,185.4 712.3,219.0 718.2,196.9 724.0,222.8 729.9,185.4 735.7,60.1 741.6,209.5 747.4,182.0 753.2,200.3 759.1,217.5 764.9,196.1 770.8,218.2 776.6,208.3 782.5,164.4 788.3,150.6 794.2,193.0 800.0,139.9"
            fill="none" stroke="#4e79a7"
            stroke-width="2" stroke-linejoin="round"/>
  <polyline points="52.0,230.9 57.8,230.5 63.7,230.9 69.5,230.5 75.4,230.5 81.2,230.9 87.1,230.9 92.9,230.5 98.8,231.2 104.6,230.9 110.4,180.8 116.3,226.3 122.1,230.5 128.0,229.7 133.8,224.7 139.7,227.8 145.5,229.7 151.3,230.1 157.2,228.6 163.0,231.2 168.9,231.2 174.7,231.2 180.6,231.2 186.4,231.2 192.2,230.1 198.1,231.2 203.9,231.2 209.8,230.9 215.6,226.7 221.5,230.1 227.3,230.5 233.2,231.6 239.0,184.6 244.8,196.5 250.7,230.1 256.5,231.2 262.4,231.2 268.2,231.2 274.1,230.1 279.9,225.1 285.8,207.6 291.6,214.0 297.4,225.9 303.3,224.0 309.1,230.1 315.0,230.9 320.8,221.7 326.7,230.5 332.5,231.2 338.3,230.5 344.2,230.5 350.0,231.2 355.9,231.6 361.7,231.2 367.6,230.5 373.4,231.6 379.2,230.5 385.1,231.2 390.9,231.6 396.8,230.1 402.6,231.2 408.5,231.2 414.3,231.6 420.2,230.9 426.0,230.5 431.8,230.1 437.7,231.2 443.5,231.6 449.4,230.9 455.2,231.2 461.1,227.4 466.9,225.1 472.8,228.2 478.6,230.1 484.4,230.9 490.3,227.4 496.1,213.3 502.0,219.0 507.8,227.4 513.7,229.7 519.5,230.9 525.3,227.4 531.2,224.4 537.0,230.1 542.9,229.3 548.7,230.9 554.6,229.7 560.4,228.9 566.2,230.5 572.1,220.2 577.9,217.5 583.8,226.7 589.6,230.9 595.5,230.9 601.3,232.0 607.2,231.2 613.0,231.6 618.8,230.9 624.7,224.4 630.5,230.1 636.4,230.9 642.2,220.9 648.1,231.2 653.9,230.9 659.8,232.0 665.6,231.2 671.4,232.0 677.3,231.6 683.1,224.7 689.0,199.5 694.8,218.2 700.7,225.5 706.5,221.3 712.3,226.3 718.2,219.0 724.0,227.4 729.9,220.5 735.7,201.4 741.6,216.0 747.4,212.5 753.2,219.0 759.1,228.2 764.9,224.0 770.8,225.9 776.6,224.0 782.5,208.7 788.3,209.8 794.2,222.4 800.0,212.1"
            fill="none" stroke="#f28e2b"
            stroke-width="2" stroke-linejoin="round"
            stroke-dasharray="5,3"/>

  <!-- dots -->
  <circle cx="52.0" cy="228.9" r="3" fill="#4e79a7"/><circle cx="57.8" cy="228.2" r="3" fill="#4e79a7"/><circle cx="63.7" cy="229.7" r="3" fill="#4e79a7"/><circle cx="69.5" cy="205.6" r="3" fill="#4e79a7"/><circle cx="75.4" cy="204.1" r="3" fill="#4e79a7"/><circle cx="81.2" cy="216.0" r="3" fill="#4e79a7"/><circle cx="87.1" cy="217.5" r="3" fill="#4e79a7"/><circle cx="92.9" cy="189.2" r="3" fill="#4e79a7"/><circle cx="98.8" cy="202.2" r="3" fill="#4e79a7"/><circle cx="104.6" cy="209.1" r="3" fill="#4e79a7"/><circle cx="110.4" cy="86.1" r="3" fill="#4e79a7"/><circle cx="116.3" cy="222.1" r="3" fill="#4e79a7"/><circle cx="122.1" cy="180.8" r="3" fill="#4e79a7"/><circle cx="128.0" cy="200.7" r="3" fill="#4e79a7"/><circle cx="133.8" cy="171.6" r="3" fill="#4e79a7"/><circle cx="139.7" cy="204.1" r="3" fill="#4e79a7"/><circle cx="145.5" cy="202.6" r="3" fill="#4e79a7"/><circle cx="151.3" cy="213.3" r="3" fill="#4e79a7"/><circle cx="157.2" cy="223.2" r="3" fill="#4e79a7"/><circle cx="163.0" cy="229.3" r="3" fill="#4e79a7"/><circle cx="168.9" cy="230.1" r="3" fill="#4e79a7"/><circle cx="174.7" cy="224.0" r="3" fill="#4e79a7"/><circle cx="180.6" cy="225.5" r="3" fill="#4e79a7"/><circle cx="186.4" cy="228.9" r="3" fill="#4e79a7"/><circle cx="192.2" cy="223.2" r="3" fill="#4e79a7"/><circle cx="198.1" cy="230.1" r="3" fill="#4e79a7"/><circle cx="203.9" cy="228.2" r="3" fill="#4e79a7"/><circle cx="209.8" cy="223.6" r="3" fill="#4e79a7"/><circle cx="215.6" cy="213.7" r="3" fill="#4e79a7"/><circle cx="221.5" cy="226.7" r="3" fill="#4e79a7"/><circle cx="227.3" cy="223.2" r="3" fill="#4e79a7"/><circle cx="233.2" cy="230.9" r="3" fill="#4e79a7"/><circle cx="239.0" cy="37.2" r="3" fill="#4e79a7"/><circle cx="244.8" cy="28.0" r="3" fill="#4e79a7"/><circle cx="250.7" cy="225.9" r="3" fill="#4e79a7"/><circle cx="256.5" cy="225.1" r="3" fill="#4e79a7"/><circle cx="262.4" cy="221.7" r="3" fill="#4e79a7"/><circle cx="268.2" cy="225.1" r="3" fill="#4e79a7"/><circle cx="274.1" cy="219.0" r="3" fill="#4e79a7"/><circle cx="279.9" cy="172.8" r="3" fill="#4e79a7"/><circle cx="285.8" cy="67.0" r="3" fill="#4e79a7"/><circle cx="291.6" cy="101.0" r="3" fill="#4e79a7"/><circle cx="297.4" cy="213.3" r="3" fill="#4e79a7"/><circle cx="303.3" cy="217.9" r="3" fill="#4e79a7"/><circle cx="309.1" cy="227.8" r="3" fill="#4e79a7"/><circle cx="315.0" cy="230.9" r="3" fill="#4e79a7"/><circle cx="320.8" cy="160.9" r="3" fill="#4e79a7"/><circle cx="326.7" cy="228.9" r="3" fill="#4e79a7"/><circle cx="332.5" cy="230.9" r="3" fill="#4e79a7"/><circle cx="338.3" cy="228.9" r="3" fill="#4e79a7"/><circle cx="344.2" cy="228.2" r="3" fill="#4e79a7"/><circle cx="350.0" cy="230.1" r="3" fill="#4e79a7"/><circle cx="355.9" cy="231.6" r="3" fill="#4e79a7"/><circle cx="361.7" cy="230.9" r="3" fill="#4e79a7"/><circle cx="367.6" cy="227.4" r="3" fill="#4e79a7"/><circle cx="373.4" cy="231.6" r="3" fill="#4e79a7"/><circle cx="379.2" cy="228.2" r="3" fill="#4e79a7"/><circle cx="385.1" cy="223.6" r="3" fill="#4e79a7"/><circle cx="390.9" cy="231.2" r="3" fill="#4e79a7"/><circle cx="396.8" cy="224.7" r="3" fill="#4e79a7"/><circle cx="402.6" cy="228.6" r="3" fill="#4e79a7"/><circle cx="408.5" cy="229.3" r="3" fill="#4e79a7"/><circle cx="414.3" cy="231.6" r="3" fill="#4e79a7"/><circle cx="420.2" cy="230.5" r="3" fill="#4e79a7"/><circle cx="426.0" cy="230.1" r="3" fill="#4e79a7"/><circle cx="431.8" cy="214.4" r="3" fill="#4e79a7"/><circle cx="437.7" cy="227.0" r="3" fill="#4e79a7"/><circle cx="443.5" cy="231.6" r="3" fill="#4e79a7"/><circle cx="449.4" cy="214.0" r="3" fill="#4e79a7"/><circle cx="455.2" cy="231.2" r="3" fill="#4e79a7"/><circle cx="461.1" cy="194.9" r="3" fill="#4e79a7"/><circle cx="466.9" cy="194.9" r="3" fill="#4e79a7"/><circle cx="472.8" cy="207.2" r="3" fill="#4e79a7"/><circle cx="478.6" cy="228.2" r="3" fill="#4e79a7"/><circle cx="484.4" cy="228.6" r="3" fill="#4e79a7"/><circle cx="490.3" cy="215.2" r="3" fill="#4e79a7"/><circle cx="496.1" cy="184.2" r="3" fill="#4e79a7"/><circle cx="502.0" cy="194.9" r="3" fill="#4e79a7"/><circle cx="507.8" cy="220.5" r="3" fill="#4e79a7"/><circle cx="513.7" cy="229.3" r="3" fill="#4e79a7"/><circle cx="519.5" cy="227.4" r="3" fill="#4e79a7"/><circle cx="525.3" cy="208.3" r="3" fill="#4e79a7"/><circle cx="531.2" cy="190.0" r="3" fill="#4e79a7"/><circle cx="537.0" cy="223.2" r="3" fill="#4e79a7"/><circle cx="542.9" cy="226.7" r="3" fill="#4e79a7"/><circle cx="548.7" cy="223.6" r="3" fill="#4e79a7"/><circle cx="554.6" cy="220.2" r="3" fill="#4e79a7"/><circle cx="560.4" cy="222.1" r="3" fill="#4e79a7"/><circle cx="566.2" cy="228.2" r="3" fill="#4e79a7"/><circle cx="572.1" cy="206.4" r="3" fill="#4e79a7"/><circle cx="577.9" cy="177.4" r="3" fill="#4e79a7"/><circle cx="583.8" cy="221.3" r="3" fill="#4e79a7"/><circle cx="589.6" cy="225.9" r="3" fill="#4e79a7"/><circle cx="595.5" cy="225.5" r="3" fill="#4e79a7"/><circle cx="601.3" cy="232.0" r="3" fill="#4e79a7"/><circle cx="607.2" cy="230.9" r="3" fill="#4e79a7"/><circle cx="613.0" cy="229.7" r="3" fill="#4e79a7"/><circle cx="618.8" cy="227.0" r="3" fill="#4e79a7"/><circle cx="624.7" cy="209.1" r="3" fill="#4e79a7"/><circle cx="630.5" cy="229.7" r="3" fill="#4e79a7"/><circle cx="636.4" cy="229.3" r="3" fill="#4e79a7"/><circle cx="642.2" cy="220.2" r="3" fill="#4e79a7"/><circle cx="648.1" cy="230.9" r="3" fill="#4e79a7"/><circle cx="653.9" cy="229.7" r="3" fill="#4e79a7"/><circle cx="659.8" cy="232.0" r="3" fill="#4e79a7"/><circle cx="665.6" cy="228.9" r="3" fill="#4e79a7"/><circle cx="671.4" cy="232.0" r="3" fill="#4e79a7"/><circle cx="677.3" cy="231.6" r="3" fill="#4e79a7"/><circle cx="683.1" cy="214.4" r="3" fill="#4e79a7"/><circle cx="689.0" cy="118.2" r="3" fill="#4e79a7"/><circle cx="694.8" cy="203.3" r="3" fill="#4e79a7"/><circle cx="700.7" cy="208.7" r="3" fill="#4e79a7"/><circle cx="706.5" cy="185.4" r="3" fill="#4e79a7"/><circle cx="712.3" cy="219.0" r="3" fill="#4e79a7"/><circle cx="718.2" cy="196.9" r="3" fill="#4e79a7"/><circle cx="724.0" cy="222.8" r="3" fill="#4e79a7"/><circle cx="729.9" cy="185.4" r="3" fill="#4e79a7"/><circle cx="735.7" cy="60.1" r="3" fill="#4e79a7"/><circle cx="741.6" cy="209.5" r="3" fill="#4e79a7"/><circle cx="747.4" cy="182.0" r="3" fill="#4e79a7"/><circle cx="753.2" cy="200.3" r="3" fill="#4e79a7"/><circle cx="759.1" cy="217.5" r="3" fill="#4e79a7"/><circle cx="764.9" cy="196.1" r="3" fill="#4e79a7"/><circle cx="770.8" cy="218.2" r="3" fill="#4e79a7"/><circle cx="776.6" cy="208.3" r="3" fill="#4e79a7"/><circle cx="782.5" cy="164.4" r="3" fill="#4e79a7"/><circle cx="788.3" cy="150.6" r="3" fill="#4e79a7"/><circle cx="794.2" cy="193.0" r="3" fill="#4e79a7"/><circle cx="800.0" cy="139.9" r="3" fill="#4e79a7"/>
  <circle cx="52.0" cy="230.9" r="3" fill="#f28e2b"/><circle cx="57.8" cy="230.5" r="3" fill="#f28e2b"/><circle cx="63.7" cy="230.9" r="3" fill="#f28e2b"/><circle cx="69.5" cy="230.5" r="3" fill="#f28e2b"/><circle cx="75.4" cy="230.5" r="3" fill="#f28e2b"/><circle cx="81.2" cy="230.9" r="3" fill="#f28e2b"/><circle cx="87.1" cy="230.9" r="3" fill="#f28e2b"/><circle cx="92.9" cy="230.5" r="3" fill="#f28e2b"/><circle cx="98.8" cy="231.2" r="3" fill="#f28e2b"/><circle cx="104.6" cy="230.9" r="3" fill="#f28e2b"/><circle cx="110.4" cy="180.8" r="3" fill="#f28e2b"/><circle cx="116.3" cy="226.3" r="3" fill="#f28e2b"/><circle cx="122.1" cy="230.5" r="3" fill="#f28e2b"/><circle cx="128.0" cy="229.7" r="3" fill="#f28e2b"/><circle cx="133.8" cy="224.7" r="3" fill="#f28e2b"/><circle cx="139.7" cy="227.8" r="3" fill="#f28e2b"/><circle cx="145.5" cy="229.7" r="3" fill="#f28e2b"/><circle cx="151.3" cy="230.1" r="3" fill="#f28e2b"/><circle cx="157.2" cy="228.6" r="3" fill="#f28e2b"/><circle cx="163.0" cy="231.2" r="3" fill="#f28e2b"/><circle cx="168.9" cy="231.2" r="3" fill="#f28e2b"/><circle cx="174.7" cy="231.2" r="3" fill="#f28e2b"/><circle cx="180.6" cy="231.2" r="3" fill="#f28e2b"/><circle cx="186.4" cy="231.2" r="3" fill="#f28e2b"/><circle cx="192.2" cy="230.1" r="3" fill="#f28e2b"/><circle cx="198.1" cy="231.2" r="3" fill="#f28e2b"/><circle cx="203.9" cy="231.2" r="3" fill="#f28e2b"/><circle cx="209.8" cy="230.9" r="3" fill="#f28e2b"/><circle cx="215.6" cy="226.7" r="3" fill="#f28e2b"/><circle cx="221.5" cy="230.1" r="3" fill="#f28e2b"/><circle cx="227.3" cy="230.5" r="3" fill="#f28e2b"/><circle cx="233.2" cy="231.6" r="3" fill="#f28e2b"/><circle cx="239.0" cy="184.6" r="3" fill="#f28e2b"/><circle cx="244.8" cy="196.5" r="3" fill="#f28e2b"/><circle cx="250.7" cy="230.1" r="3" fill="#f28e2b"/><circle cx="256.5" cy="231.2" r="3" fill="#f28e2b"/><circle cx="262.4" cy="231.2" r="3" fill="#f28e2b"/><circle cx="268.2" cy="231.2" r="3" fill="#f28e2b"/><circle cx="274.1" cy="230.1" r="3" fill="#f28e2b"/><circle cx="279.9" cy="225.1" r="3" fill="#f28e2b"/><circle cx="285.8" cy="207.6" r="3" fill="#f28e2b"/><circle cx="291.6" cy="214.0" r="3" fill="#f28e2b"/><circle cx="297.4" cy="225.9" r="3" fill="#f28e2b"/><circle cx="303.3" cy="224.0" r="3" fill="#f28e2b"/><circle cx="309.1" cy="230.1" r="3" fill="#f28e2b"/><circle cx="315.0" cy="230.9" r="3" fill="#f28e2b"/><circle cx="320.8" cy="221.7" r="3" fill="#f28e2b"/><circle cx="326.7" cy="230.5" r="3" fill="#f28e2b"/><circle cx="332.5" cy="231.2" r="3" fill="#f28e2b"/><circle cx="338.3" cy="230.5" r="3" fill="#f28e2b"/><circle cx="344.2" cy="230.5" r="3" fill="#f28e2b"/><circle cx="350.0" cy="231.2" r="3" fill="#f28e2b"/><circle cx="355.9" cy="231.6" r="3" fill="#f28e2b"/><circle cx="361.7" cy="231.2" r="3" fill="#f28e2b"/><circle cx="367.6" cy="230.5" r="3" fill="#f28e2b"/><circle cx="373.4" cy="231.6" r="3" fill="#f28e2b"/><circle cx="379.2" cy="230.5" r="3" fill="#f28e2b"/><circle cx="385.1" cy="231.2" r="3" fill="#f28e2b"/><circle cx="390.9" cy="231.6" r="3" fill="#f28e2b"/><circle cx="396.8" cy="230.1" r="3" fill="#f28e2b"/><circle cx="402.6" cy="231.2" r="3" fill="#f28e2b"/><circle cx="408.5" cy="231.2" r="3" fill="#f28e2b"/><circle cx="414.3" cy="231.6" r="3" fill="#f28e2b"/><circle cx="420.2" cy="230.9" r="3" fill="#f28e2b"/><circle cx="426.0" cy="230.5" r="3" fill="#f28e2b"/><circle cx="431.8" cy="230.1" r="3" fill="#f28e2b"/><circle cx="437.7" cy="231.2" r="3" fill="#f28e2b"/><circle cx="443.5" cy="231.6" r="3" fill="#f28e2b"/><circle cx="449.4" cy="230.9" r="3" fill="#f28e2b"/><circle cx="455.2" cy="231.2" r="3" fill="#f28e2b"/><circle cx="461.1" cy="227.4" r="3" fill="#f28e2b"/><circle cx="466.9" cy="225.1" r="3" fill="#f28e2b"/><circle cx="472.8" cy="228.2" r="3" fill="#f28e2b"/><circle cx="478.6" cy="230.1" r="3" fill="#f28e2b"/><circle cx="484.4" cy="230.9" r="3" fill="#f28e2b"/><circle cx="490.3" cy="227.4" r="3" fill="#f28e2b"/><circle cx="496.1" cy="213.3" r="3" fill="#f28e2b"/><circle cx="502.0" cy="219.0" r="3" fill="#f28e2b"/><circle cx="507.8" cy="227.4" r="3" fill="#f28e2b"/><circle cx="513.7" cy="229.7" r="3" fill="#f28e2b"/><circle cx="519.5" cy="230.9" r="3" fill="#f28e2b"/><circle cx="525.3" cy="227.4" r="3" fill="#f28e2b"/><circle cx="531.2" cy="224.4" r="3" fill="#f28e2b"/><circle cx="537.0" cy="230.1" r="3" fill="#f28e2b"/><circle cx="542.9" cy="229.3" r="3" fill="#f28e2b"/><circle cx="548.7" cy="230.9" r="3" fill="#f28e2b"/><circle cx="554.6" cy="229.7" r="3" fill="#f28e2b"/><circle cx="560.4" cy="228.9" r="3" fill="#f28e2b"/><circle cx="566.2" cy="230.5" r="3" fill="#f28e2b"/><circle cx="572.1" cy="220.2" r="3" fill="#f28e2b"/><circle cx="577.9" cy="217.5" r="3" fill="#f28e2b"/><circle cx="583.8" cy="226.7" r="3" fill="#f28e2b"/><circle cx="589.6" cy="230.9" r="3" fill="#f28e2b"/><circle cx="595.5" cy="230.9" r="3" fill="#f28e2b"/><circle cx="601.3" cy="232.0" r="3" fill="#f28e2b"/><circle cx="607.2" cy="231.2" r="3" fill="#f28e2b"/><circle cx="613.0" cy="231.6" r="3" fill="#f28e2b"/><circle cx="618.8" cy="230.9" r="3" fill="#f28e2b"/><circle cx="624.7" cy="224.4" r="3" fill="#f28e2b"/><circle cx="630.5" cy="230.1" r="3" fill="#f28e2b"/><circle cx="636.4" cy="230.9" r="3" fill="#f28e2b"/><circle cx="642.2" cy="220.9" r="3" fill="#f28e2b"/><circle cx="648.1" cy="231.2" r="3" fill="#f28e2b"/><circle cx="653.9" cy="230.9" r="3" fill="#f28e2b"/><circle cx="659.8" cy="232.0" r="3" fill="#f28e2b"/><circle cx="665.6" cy="231.2" r="3" fill="#f28e2b"/><circle cx="671.4" cy="232.0" r="3" fill="#f28e2b"/><circle cx="677.3" cy="231.6" r="3" fill="#f28e2b"/><circle cx="683.1" cy="224.7" r="3" fill="#f28e2b"/><circle cx="689.0" cy="199.5" r="3" fill="#f28e2b"/><circle cx="694.8" cy="218.2" r="3" fill="#f28e2b"/><circle cx="700.7" cy="225.5" r="3" fill="#f28e2b"/><circle cx="706.5" cy="221.3" r="3" fill="#f28e2b"/><circle cx="712.3" cy="226.3" r="3" fill="#f28e2b"/><circle cx="718.2" cy="219.0" r="3" fill="#f28e2b"/><circle cx="724.0" cy="227.4" r="3" fill="#f28e2b"/><circle cx="729.9" cy="220.5" r="3" fill="#f28e2b"/><circle cx="735.7" cy="201.4" r="3" fill="#f28e2b"/><circle cx="741.6" cy="216.0" r="3" fill="#f28e2b"/><circle cx="747.4" cy="212.5" r="3" fill="#f28e2b"/><circle cx="753.2" cy="219.0" r="3" fill="#f28e2b"/><circle cx="759.1" cy="228.2" r="3" fill="#f28e2b"/><circle cx="764.9" cy="224.0" r="3" fill="#f28e2b"/><circle cx="770.8" cy="225.9" r="3" fill="#f28e2b"/><circle cx="776.6" cy="224.0" r="3" fill="#f28e2b"/><circle cx="782.5" cy="208.7" r="3" fill="#f28e2b"/><circle cx="788.3" cy="209.8" r="3" fill="#f28e2b"/><circle cx="794.2" cy="222.4" r="3" fill="#f28e2b"/><circle cx="800.0" cy="212.1" r="3" fill="#f28e2b"/>

  <!-- axes -->
  <line x1="52" y1="28" x2="52" y2="232"
        stroke="#cccccc" stroke-width="1"/>
  <line x1="52" y1="232" x2="800" y2="232"
        stroke="#cccccc" stroke-width="1"/>

  <!-- y-axis labels -->
  <text x="47" y="236.0" text-anchor="end" font-size="10" fill="#57606a" font-family="ui-monospace, SFMono-Regular, 'SF Mono', Menlo, monospace">0</text><text x="47" y="197.8" text-anchor="end" font-size="10" fill="#57606a" font-family="ui-monospace, SFMono-Regular, 'SF Mono', Menlo, monospace">100</text><text x="47" y="159.6" text-anchor="end" font-size="10" fill="#57606a" font-family="ui-monospace, SFMono-Regular, 'SF Mono', Menlo, monospace">200</text><text x="47" y="121.4" text-anchor="end" font-size="10" fill="#57606a" font-family="ui-monospace, SFMono-Regular, 'SF Mono', Menlo, monospace">300</text><text x="47" y="83.2" text-anchor="end" font-size="10" fill="#57606a" font-family="ui-monospace, SFMono-Regular, 'SF Mono', Menlo, monospace">400</text><text x="47" y="45.0" text-anchor="end" font-size="10" fill="#57606a" font-family="ui-monospace, SFMono-Regular, 'SF Mono', Menlo, monospace">500</text><text x="47" y="6.8" text-anchor="end" font-size="10" fill="#57606a" font-family="ui-monospace, SFMono-Regular, 'SF Mono', Menlo, monospace">600</text>

  <!-- x-axis labels -->
  <text x="52.0" y="248" text-anchor="middle" font-size="10" fill="#8c959f" font-family="ui-monospace, SFMono-Regular, 'SF Mono', Menlo, monospace">05-11</text><text x="239.0" y="248" text-anchor="middle" font-size="10" fill="#8c959f" font-family="ui-monospace, SFMono-Regular, 'SF Mono', Menlo, monospace">06-12</text><text x="426.0" y="248" text-anchor="middle" font-size="10" fill="#8c959f" font-family="ui-monospace, SFMono-Regular, 'SF Mono', Menlo, monospace">07-14</text><text x="613.0" y="248" text-anchor="middle" font-size="10" fill="#8c959f" font-family="ui-monospace, SFMono-Regular, 'SF Mono', Menlo, monospace">08-15</text><text x="800.0" y="248" text-anchor="middle" font-size="10" fill="#8c959f" font-family="ui-monospace, SFMono-Regular, 'SF Mono', Menlo, monospace">09-21</text><text x="145.5" y="248" text-anchor="middle" font-size="10" fill="#8c959f" font-family="ui-monospace, SFMono-Regular, 'SF Mono', Menlo, monospace">05-27</text><text x="332.5" y="248" text-anchor="middle" font-size="10" fill="#8c959f" font-family="ui-monospace, SFMono-Regular, 'SF Mono', Menlo, monospace">06-28</text><text x="519.5" y="248" text-anchor="middle" font-size="10" fill="#8c959f" font-family="ui-monospace, SFMono-Regular, 'SF Mono', Menlo, monospace">07-30</text><text x="706.5" y="248" text-anchor="middle" font-size="10" fill="#8c959f" font-family="ui-monospace, SFMono-Regular, 'SF Mono', Menlo, monospace">09-05</text>

  <!-- legend -->
  <rect x="60" y="262" width="16" height="3" fill="#4e79a7" rx="1"/><text x="80" y="268" font-size="11" fill="#57606a" font-family="-apple-system, BlinkMacSystemFont, 'Segoe UI', sans-serif">Total clones (8,184)</text><line x1="230" y1="264" x2="246" y2="264" stroke="#f28e2b" stroke-width="2" stroke-dasharray="5,3"/><text x="250" y="268" font-size="11" fill="#57606a" font-family="-apple-system, BlinkMacSystemFont, 'Segoe UI', sans-serif">Unique cloners</text>

</svg>