<svg xmlns="http://www.w3.org/2000/svg" viewBox="0 0 820 280" width="820" height="280">

  <!-- title -->
  <text x="52" y="18" font-size="13" font-weight="600"
        fill="#24292f" font-family="-apple-system, BlinkMacSystemFont, 'Segoe UI', sans-serif"
        >Clone traffic — script-helpers</text>
  <text x="800" y="18" font-size="10" fill="#8c959f"
        font-family="ui-monospace, SFMono-Regular, 'SF Mono', Menlo, monospace" text-anchor="end">2026-07-23</text>

  <!-- grid -->
  <line x1="52" y1="232.0" x2="800" y2="232.0" stroke="#e8e8e8" stroke-width="1"/><line x1="52" y1="193.8" x2="800" y2="193.8" stroke="#e8e8e8" stroke-width="1"/><line x1="52" y1="155.6" x2="800" y2="155.6" stroke="#e8e8e8" stroke-width="1"/><line x1="52" y1="117.4" x2="800" y2="117.4" stroke="#e8e8e8" stroke-width="1"/><line x1="52" y1="79.2" x2="800" y2="79.2" stroke="#e8e8e8" stroke-width="1"/><line x1="52" y1="41.0" x2="800" y2="41.0" stroke="#e8e8e8" stroke-width="1"/><line x1="52" y1="2.8" x2="800" y2="2.8" stroke="#e8e8e8" stroke-width="1"/>

  <!-- area fill -->
  <path d="M52.0,228.9 L52.0,228.9 L62.5,228.2 L73.1,229.7 L83.6,205.6 L94.1,204.1 L104.7,216.0 L115.2,217.5 L125.7,189.2 L136.3,202.2 L146.8,209.1 L157.4,86.1 L167.9,222.1 L178.4,180.8 L189.0,200.7 L199.5,171.6 L210.0,204.1 L220.6,202.6 L231.1,213.3 L241.6,223.2 L252.2,229.3 L262.7,230.1 L273.2,224.0 L283.8,225.5 L294.3,228.9 L304.8,223.2 L315.4,230.1 L325.9,228.2 L336.5,223.6 L347.0,213.7 L357.5,226.7 L368.1,223.2 L378.6,230.9 L389.1,37.2 L399.7,28.0 L410.2,225.9 L420.7,225.1 L431.3,221.7 L441.8,225.1 L452.3,219.0 L462.9,172.8 L473.4,67.0 L483.9,101.0 L494.5,213.3 L505.0,217.9 L515.5,227.8 L526.1,230.9 L536.6,160.9 L547.2,228.9 L557.7,230.9 L568.2,228.9 L578.8,228.2 L589.3,230.1 L599.8,231.6 L610.4,230.9 L620.9,227.4 L631.4,231.6 L642.0,228.2 L652.5,223.6 L663.0,231.2 L673.6,224.7 L684.1,228.6 L694.6,229.3 L705.2,231.6 L715.7,230.5 L726.3,230.1 L736.8,214.4 L747.3,227.0 L757.9,231.6 L768.4,214.0 L778.9,231.2 L789.5,194.9 L800.0,194.9 L800.0,232.0 L52.0,232.0Z" fill="#4e79a7" opacity="0.12"/>

  <!-- lines -->
  <polyline points="52.0,228.9 62.5,228.2 73.1,229.7 83.6,205.6 94.1,204.1 104.7,216.0 115.2,217.5 125.7,189.2 136.3,202.2 146.8,209.1 157.4,86.1 167.9,222.1 178.4,180.8 189.0,200.7 199.5,171.6 210.0,204.1 220.6,202.6 231.1,213.3 241.6,223.2 252.2,229.3 262.7,230.1 273.2,224.0 283.8,225.5 294.3,228.9 304.8,223.2 315.4,230.1 325.9,228.2 336.5,223.6 347.0,213.7 357.5,226.7 368.1,223.2 378.6,230.9 389.1,37.2 399.7,28.0 410.2,225.9 420.7,225.1 431.3,221.7 441.8,225.1 452.3,219.0 462.9,172.8 473.4,67.0 483.9,101.0 494.5,213.3 505.0,217.9 515.5,227.8 526.1,230.9 536.6,160.9 547.2,228.9 557.7,230.9 568.2,228.9 578.8,228.2 589.3,230.1 599.8,231.6 610.4,230.9 620.9,227.4 631.4,231.6 642.0,228.2 652.5,223.6 663.0,231.2 673.6,224.7 684.1,228.6 694.6,229.3 705.2,231.6 715.7,230.5 726.3,230.1 736.8,214.4 747.3,227.0 757.9,231.6 768.4,214.0 778.9,231.2 789.5,194.9 800.0,194.9"
            fill="none" stroke="#4e79a7"
            stroke-width="2" stroke-linejoin="round"/>
  <polyline points="52.0,230.9 62.5,230.5 73.1,230.9 83.6,230.5 94.1,230.5 104.7,230.9 115.2,230.9 125.7,230.5 136.3,231.2 146.8,230.9 157.4,180.8 167.9,226.3 178.4,230.5 189.0,229.7 199.5,224.7 210.0,227.8 220.6,229.7 231.1,230.1 241.6,228.6 252.2,231.2 262.7,231.2 273.2,231.2 283.8,231.2 294.3,231.2 304.8,230.1 315.4,231.2 325.9,231.2 336.5,230.9 347.0,226.7 357.5,230.1 368.1,230.5 378.6,231.6 389.1,184.6 399.7,196.5 410.2,230.1 420.7,231.2 431.3,231.2 441.8,231.2 452.3,230.1 462.9,225.1 473.4,207.6 483.9,214.0 494.5,225.9 505.0,224.0 515.5,230.1 526.1,230.9 536.6,221.7 547.2,230.5 557.7,231.2 568.2,230.5 578.8,230.5 589.3,231.2 599.8,231.6 610.4,231.2 620.9,230.5 631.4,231.6 642.0,230.5 652.5,231.2 663.0,231.6 673.6,230.1 684.1,231.2 694.6,231.2 705.2,231.6 715.7,230.9 726.3,230.5 736.8,230.1 747.3,231.2 757.9,231.6 768.4,230.9 778.9,231.2 789.5,227.4 800.0,225.1"
            fill="none" stroke="#f28e2b"
            stroke-width="2" stroke-linejoin="round"
            stroke-dasharray="5,3"/>

  <!-- dots -->
  <circle cx="52.0" cy="228.9" r="3" fill="#4e79a7"/><circle cx="62.5" cy="228.2" r="3" fill="#4e79a7"/><circle cx="73.1" cy="229.7" r="3" fill="#4e79a7"/><circle cx="83.6" cy="205.6" r="3" fill="#4e79a7"/><circle cx="94.1" cy="204.1" r="3" fill="#4e79a7"/><circle cx="104.7" cy="216.0" r="3" fill="#4e79a7"/><circle cx="115.2" cy="217.5" r="3" fill="#4e79a7"/><circle cx="125.7" cy="189.2" r="3" fill="#4e79a7"/><circle cx="136.3" cy="202.2" r="3" fill="#4e79a7"/><circle cx="146.8" cy="209.1" r="3" fill="#4e79a7"/><circle cx="157.4" cy="86.1" r="3" fill="#4e79a7"/><circle cx="167.9" cy="222.1" r="3" fill="#4e79a7"/><circle cx="178.4" cy="180.8" r="3" fill="#4e79a7"/><circle cx="189.0" cy="200.7" r="3" fill="#4e79a7"/><circle cx="199.5" cy="171.6" r="3" fill="#4e79a7"/><circle cx="210.0" cy="204.1" r="3" fill="#4e79a7"/><circle cx="220.6" cy="202.6" r="3" fill="#4e79a7"/><circle cx="231.1" cy="213.3" r="3" fill="#4e79a7"/><circle cx="241.6" cy="223.2" r="3" fill="#4e79a7"/><circle cx="252.2" cy="229.3" r="3" fill="#4e79a7"/><circle cx="262.7" cy="230.1" r="3" fill="#4e79a7"/><circle cx="273.2" cy="224.0" r="3" fill="#4e79a7"/><circle cx="283.8" cy="225.5" r="3" fill="#4e79a7"/><circle cx="294.3" cy="228.9" r="3" fill="#4e79a7"/><circle cx="304.8" cy="223.2" r="3" fill="#4e79a7"/><circle cx="315.4" cy="230.1" r="3" fill="#4e79a7"/><circle cx="325.9" cy="228.2" r="3" fill="#4e79a7"/><circle cx="336.5" cy="223.6" r="3" fill="#4e79a7"/><circle cx="347.0" cy="213.7" r="3" fill="#4e79a7"/><circle cx="357.5" cy="226.7" r="3" fill="#4e79a7"/><circle cx="368.1" cy="223.2" r="3" fill="#4e79a7"/><circle cx="378.6" cy="230.9" r="3" fill="#4e79a7"/><circle cx="389.1" cy="37.2" r="3" fill="#4e79a7"/><circle cx="399.7" cy="28.0" r="3" fill="#4e79a7"/><circle cx="410.2" cy="225.9" r="3" fill="#4e79a7"/><circle cx="420.7" cy="225.1" r="3" fill="#4e79a7"/><circle cx="431.3" cy="221.7" r="3" fill="#4e79a7"/><circle cx="441.8" cy="225.1" r="3" fill="#4e79a7"/><circle cx="452.3" cy="219.0" r="3" fill="#4e79a7"/><circle cx="462.9" cy="172.8" r="3" fill="#4e79a7"/><circle cx="473.4" cy="67.0" r="3" fill="#4e79a7"/><circle cx="483.9" cy="101.0" r="3" fill="#4e79a7"/><circle cx="494.5" cy="213.3" r="3" fill="#4e79a7"/><circle cx="505.0" cy="217.9" r="3" fill="#4e79a7"/><circle cx="515.5" cy="227.8" r="3" fill="#4e79a7"/><circle cx="526.1" cy="230.9" r="3" fill="#4e79a7"/><circle cx="536.6" cy="160.9" r="3" fill="#4e79a7"/><circle cx="547.2" cy="228.9" r="3" fill="#4e79a7"/><circle cx="557.7" cy="230.9" r="3" fill="#4e79a7"/><circle cx="568.2" cy="228.9" r="3" fill="#4e79a7"/><circle cx="578.8" cy="228.2" r="3" fill="#4e79a7"/><circle cx="589.3" cy="230.1" r="3" fill="#4e79a7"/><circle cx="599.8" cy="231.6" r="3" fill="#4e79a7"/><circle cx="610.4" cy="230.9" r="3" fill="#4e79a7"/><circle cx="620.9" cy="227.4" r="3" fill="#4e79a7"/><circle cx="631.4" cy="231.6" r="3" fill="#4e79a7"/><circle cx="642.0" cy="228.2" r="3" fill="#4e79a7"/><circle cx="652.5" cy="223.6" r="3" fill="#4e79a7"/><circle cx="663.0" cy="231.2" r="3" fill="#4e79a7"/><circle cx="673.6" cy="224.7" r="3" fill="#4e79a7"/><circle cx="684.1" cy="228.6" r="3" fill="#4e79a7"/><circle cx="694.6" cy="229.3" r="3" fill="#4e79a7"/><circle cx="705.2" cy="231.6" r="3" fill="#4e79a7"/><circle cx="715.7" cy="230.5" r="3" fill="#4e79a7"/><circle cx="726.3" cy="230.1" r="3" fill="#4e79a7"/><circle cx="736.8" cy="214.4" r="3" fill="#4e79a7"/><circle cx="747.3" cy="227.0" r="3" fill="#4e79a7"/><circle cx="757.9" cy="231.6" r="3" fill="#4e79a7"/><circle cx="768.4" cy="214.0" r="3" fill="#4e79a7"/><circle cx="778.9" cy="231.2" r="3" fill="#4e79a7"/><circle cx="789.5" cy="194.9" r="3" fill="#4e79a7"/><circle cx="800.0" cy="194.9" r="3" fill="#4e79a7"/>
  <circle cx="52.0" cy="230.9" r="3" fill="#f28e2b"/><circle cx="62.5" cy="230.5" r="3" fill="#f28e2b"/><circle cx="73.1" cy="230.9" r="3" fill="#f28e2b"/><circle cx="83.6" cy="230.5" r="3" fill="#f28e2b"/><circle cx="94.1" cy="230.5" r="3" fill="#f28e2b"/><circle cx="104.7" cy="230.9" r="3" fill="#f28e2b"/><circle cx="115.2" cy="230.9" r="3" fill="#f28e2b"/><circle cx="125.7" cy="230.5" r="3" fill="#f28e2b"/><circle cx="136.3" cy="231.2" r="3" fill="#f28e2b"/><circle cx="146.8" cy="230.9" r="3" fill="#f28e2b"/><circle cx="157.4" cy="180.8" r="3" fill="#f28e2b"/><circle cx="167.9" cy="226.3" r="3" fill="#f28e2b"/><circle cx="178.4" cy="230.5" r="3" fill="#f28e2b"/><circle cx="189.0" cy="229.7" r="3" fill="#f28e2b"/><circle cx="199.5" cy="224.7" r="3" fill="#f28e2b"/><circle cx="210.0" cy="227.8" r="3" fill="#f28e2b"/><circle cx="220.6" cy="229.7" r="3" fill="#f28e2b"/><circle cx="231.1" cy="230.1" r="3" fill="#f28e2b"/><circle cx="241.6" cy="228.6" r="3" fill="#f28e2b"/><circle cx="252.2" cy="231.2" r="3" fill="#f28e2b"/><circle cx="262.7" cy="231.2" r="3" fill="#f28e2b"/><circle cx="273.2" cy="231.2" r="3" fill="#f28e2b"/><circle cx="283.8" cy="231.2" r="3" fill="#f28e2b"/><circle cx="294.3" cy="231.2" r="3" fill="#f28e2b"/><circle cx="304.8" cy="230.1" r="3" fill="#f28e2b"/><circle cx="315.4" cy="231.2" r="3" fill="#f28e2b"/><circle cx="325.9" cy="231.2" r="3" fill="#f28e2b"/><circle cx="336.5" cy="230.9" r="3" fill="#f28e2b"/><circle cx="347.0" cy="226.7" r="3" fill="#f28e2b"/><circle cx="357.5" cy="230.1" r="3" fill="#f28e2b"/><circle cx="368.1" cy="230.5" r="3" fill="#f28e2b"/><circle cx="378.6" cy="231.6" r="3" fill="#f28e2b"/><circle cx="389.1" cy="184.6" r="3" fill="#f28e2b"/><circle cx="399.7" cy="196.5" r="3" fill="#f28e2b"/><circle cx="410.2" cy="230.1" r="3" fill="#f28e2b"/><circle cx="420.7" cy="231.2" r="3" fill="#f28e2b"/><circle cx="431.3" cy="231.2" r="3" fill="#f28e2b"/><circle cx="441.8" cy="231.2" r="3" fill="#f28e2b"/><circle cx="452.3" cy="230.1" r="3" fill="#f28e2b"/><circle cx="462.9" cy="225.1" r="3" fill="#f28e2b"/><circle cx="473.4" cy="207.6" r="3" fill="#f28e2b"/><circle cx="483.9" cy="214.0" r="3" fill="#f28e2b"/><circle cx="494.5" cy="225.9" r="3" fill="#f28e2b"/><circle cx="505.0" cy="224.0" r="3" fill="#f28e2b"/><circle cx="515.5" cy="230.1" r="3" fill="#f28e2b"/><circle cx="526.1" cy="230.9" r="3" fill="#f28e2b"/><circle cx="536.6" cy="221.7" r="3" fill="#f28e2b"/><circle cx="547.2" cy="230.5" r="3" fill="#f28e2b"/><circle cx="557.7" cy="231.2" r="3" fill="#f28e2b"/><circle cx="568.2" cy="230.5" r="3" fill="#f28e2b"/><circle cx="578.8" cy="230.5" r="3" fill="#f28e2b"/><circle cx="589.3" cy="231.2" r="3" fill="#f28e2b"/><circle cx="599.8" cy="231.6" r="3" fill="#f28e2b"/><circle cx="610.4" cy="231.2" r="3" fill="#f28e2b"/><circle cx="620.9" cy="230.5" r="3" fill="#f28e2b"/><circle cx="631.4" cy="231.6" r="3" fill="#f28e2b"/><circle cx="642.0" cy="230.5" r="3" fill="#f28e2b"/><circle cx="652.5" cy="231.2" r="3" fill="#f28e2b"/><circle cx="663.0" cy="231.6" r="3" fill="#f28e2b"/><circle cx="673.6" cy="230.1" r="3" fill="#f28e2b"/><circle cx="684.1" cy="231.2" r="3" fill="#f28e2b"/><circle cx="694.6" cy="231.2" r="3" fill="#f28e2b"/><circle cx="705.2" cy="231.6" r="3" fill="#f28e2b"/><circle cx="715.7" cy="230.9" r="3" fill="#f28e2b"/><circle cx="726.3" cy="230.5" r="3" fill="#f28e2b"/><circle cx="736.8" cy="230.1" r="3" fill="#f28e2b"/><circle cx="747.3" cy="231.2" r="3" fill="#f28e2b"/><circle cx="757.9" cy="231.6" r="3" fill="#f28e2b"/><circle cx="768.4" cy="230.9" r="3" fill="#f28e2b"/><circle cx="778.9" cy="231.2" r="3" fill="#f28e2b"/><circle cx="789.5" cy="227.4" r="3" fill="#f28e2b"/><circle cx="800.0" cy="225.1" r="3" fill="#f28e2b"/>

  <!-- axes -->
  <line x1="52" y1="28" x2="52" y2="232"
        stroke="#cccccc" stroke-width="1"/>
  <line x1="52" y1="232" x2="800" y2="232"
        stroke="#cccccc" stroke-width="1"/>

  <!-- y-axis labels -->
  <text x="47" y="236.0" text-anchor="end" font-size="10" fill="#57606a" font-family="ui-monospace, SFMono-Regular, 'SF Mono', Menlo, monospace">0</text><text x="47" y="197.8" text-anchor="end" font-size="10" fill="#57606a" font-family="ui-monospace, SFMono-Regular, 'SF Mono', Menlo, monospace">100</text><text x="47" y="159.6" text-anchor="end" font-size="10" fill="#57606a" font-family="ui-monospace, SFMono-Regular, 'SF Mono', Menlo, monospace">200</text><text x="47" y="121.4" text-anchor="end" font-size="10" fill="#57606a" font-family="ui-monospace, SFMono-Regular, 'SF Mono', Menlo, monospace">300</text><text x="47" y="83.2" text-anchor="end" font-size="10" fill="#57606a" font-family="ui-monospace, SFMono-Regular, 'SF Mono', Menlo, monospace">400</text><text x="47" y="45.0" text-anchor="end" font-size="10" fill="#57606a" font-family="ui-monospace, SFMono-Regular, 'SF Mono', Menlo, monospace">500</text><text x="47" y="6.8" text-anchor="end" font-size="10" fill="#57606a" font-family="ui-monospace, SFMono-Regular, 'SF Mono', Menlo, monospace">600</text>

  <!-- x-axis labels -->
  <text x="52.0" y="248" text-anchor="middle" font-size="10" fill="#8c959f" font-family="ui-monospace, SFMono-Regular, 'SF Mono', Menlo, monospace">05-11</text><text x="431.3" y="248" text-anchor="middle" font-size="10" fill="#8c959f" font-family="ui-monospace, SFMono-Regular, 'SF Mono', Menlo, monospace">06-16</text><text x="800.0" y="248" text-anchor="middle" font-size="10" fill="#8c959f" font-family="ui-monospace, SFMono-Regular, 'SF Mono', Menlo, monospace">07-21</text><text x="146.8" y="248" text-anchor="middle" font-size="10" fill="#8c959f" font-family="ui-monospace, SFMono-Regular, 'SF Mono', Menlo, monospace">05-20</text><text x="526.1" y="248" text-anchor="middle" font-size="10" fill="#8c959f" font-family="ui-monospace, SFMono-Regular, 'SF Mono', Menlo, monospace">06-25</text><text x="241.6" y="248" text-anchor="middle" font-size="10" fill="#8c959f" font-family="ui-monospace, SFMono-Regular, 'SF Mono', Menlo, monospace">05-29</text><text x="620.9" y="248" text-anchor="middle" font-size="10" fill="#8c959f" font-family="ui-monospace, SFMono-Regular, 'SF Mono', Menlo, monospace">07-04</text><text x="336.5" y="248" text-anchor="middle" font-size="10" fill="#8c959f" font-family="ui-monospace, SFMono-Regular, 'SF Mono', Menlo, monospace">06-07</text><text x="715.7" y="248" text-anchor="middle" font-size="10" fill="#8c959f" font-family="ui-monospace, SFMono-Regular, 'SF Mono', Menlo, monospace">07-13</text>

  <!-- legend -->
  <rect x="60" y="262" width="16" height="3" fill="#4e79a7" rx="1"/><text x="80" y="268" font-size="11" fill="#57606a" font-family="-apple-system, BlinkMacSystemFont, 'Segoe UI', sans-serif">Total clones (4,512)</text><line x1="230" y1="264" x2="246" y2="264" stroke="#f28e2b" stroke-width="2" stroke-dasharray="5,3"/><text x="250" y="268" font-size="11" fill="#57606a" font-family="-apple-system, BlinkMacSystemFont, 'Segoe UI', sans-serif">Unique cloners</text>

</svg>