<svg xmlns="http://www.w3.org/2000/svg" viewBox="0 0 820 280" width="820" height="280">

  <!-- title -->
  <text x="52" y="18" font-size="13" font-weight="600"
        fill="#24292f" font-family="-apple-system, BlinkMacSystemFont, 'Segoe UI', sans-serif"
        >Clone traffic — script-helpers</text>
  <text x="800" y="18" font-size="10" fill="#8c959f"
        font-family="ui-monospace, SFMono-Regular, 'SF Mono', Menlo, monospace" text-anchor="end">2026-05-28</text>

  <!-- grid -->
  <line x1="52" y1="232.0" x2="800" y2="232.0" stroke="#e8e8e8" stroke-width="1"/><line x1="52" y1="189.3" x2="800" y2="189.3" stroke="#e8e8e8" stroke-width="1"/><line x1="52" y1="146.6" x2="800" y2="146.6" stroke="#e8e8e8" stroke-width="1"/><line x1="52" y1="103.8" x2="800" y2="103.8" stroke="#e8e8e8" stroke-width="1"/><line x1="52" y1="61.1" x2="800" y2="61.1" stroke="#e8e8e8" stroke-width="1"/><line x1="52" y1="18.4" x2="800" y2="18.4" stroke="#e8e8e8" stroke-width="1"/>

  <!-- area fill -->
  <path d="M52.0,227.7 L52.0,227.7 L101.9,226.7 L151.7,228.8 L201.6,195.2 L251.5,193.0 L301.3,209.6 L351.2,211.7 L401.1,172.2 L450.9,190.3 L500.8,200.0 L550.7,28.0 L600.5,218.1 L650.4,160.4 L700.3,188.2 L750.1,147.6 L800.0,193.0 L800.0,232.0 L52.0,232.0Z" fill="#4e79a7" opacity="0.12"/>

  <!-- lines -->
  <polyline points="52.0,227.7 101.9,226.7 151.7,228.8 201.6,195.2 251.5,193.0 301.3,209.6 351.2,211.7 401.1,172.2 450.9,190.3 500.8,200.0 550.7,28.0 600.5,218.1 650.4,160.4 700.3,188.2 750.1,147.6 800.0,193.0"
            fill="none" stroke="#4e79a7"
            stroke-width="2" stroke-linejoin="round"/>
  <polyline points="52.0,230.4 101.9,229.9 151.7,230.4 201.6,229.9 251.5,229.9 301.3,230.4 351.2,230.4 401.1,229.9 450.9,230.9 500.8,230.4 550.7,160.4 600.5,224.0 650.4,229.9 700.3,228.8 750.1,221.9 800.0,226.1"
            fill="none" stroke="#f28e2b"
            stroke-width="2" stroke-linejoin="round"
            stroke-dasharray="5,3"/>

  <!-- dots -->
  <circle cx="52.0" cy="227.7" r="3" fill="#4e79a7"/><circle cx="101.9" cy="226.7" r="3" fill="#4e79a7"/><circle cx="151.7" cy="228.8" r="3" fill="#4e79a7"/><circle cx="201.6" cy="195.2" r="3" fill="#4e79a7"/><circle cx="251.5" cy="193.0" r="3" fill="#4e79a7"/><circle cx="301.3" cy="209.6" r="3" fill="#4e79a7"/><circle cx="351.2" cy="211.7" r="3" fill="#4e79a7"/><circle cx="401.1" cy="172.2" r="3" fill="#4e79a7"/><circle cx="450.9" cy="190.3" r="3" fill="#4e79a7"/><circle cx="500.8" cy="200.0" r="3" fill="#4e79a7"/><circle cx="550.7" cy="28.0" r="3" fill="#4e79a7"/><circle cx="600.5" cy="218.1" r="3" fill="#4e79a7"/><circle cx="650.4" cy="160.4" r="3" fill="#4e79a7"/><circle cx="700.3" cy="188.2" r="3" fill="#4e79a7"/><circle cx="750.1" cy="147.6" r="3" fill="#4e79a7"/><circle cx="800.0" cy="193.0" r="3" fill="#4e79a7"/>
  <circle cx="52.0" cy="230.4" r="3" fill="#f28e2b"/><circle cx="101.9" cy="229.9" r="3" fill="#f28e2b"/><circle cx="151.7" cy="230.4" r="3" fill="#f28e2b"/><circle cx="201.6" cy="229.9" r="3" fill="#f28e2b"/><circle cx="251.5" cy="229.9" r="3" fill="#f28e2b"/><circle cx="301.3" cy="230.4" r="3" fill="#f28e2b"/><circle cx="351.2" cy="230.4" r="3" fill="#f28e2b"/><circle cx="401.1" cy="229.9" r="3" fill="#f28e2b"/><circle cx="450.9" cy="230.9" r="3" fill="#f28e2b"/><circle cx="500.8" cy="230.4" r="3" fill="#f28e2b"/><circle cx="550.7" cy="160.4" r="3" fill="#f28e2b"/><circle cx="600.5" cy="224.0" r="3" fill="#f28e2b"/><circle cx="650.4" cy="229.9" r="3" fill="#f28e2b"/><circle cx="700.3" cy="228.8" r="3" fill="#f28e2b"/><circle cx="750.1" cy="221.9" r="3" fill="#f28e2b"/><circle cx="800.0" cy="226.1" r="3" fill="#f28e2b"/>

  <!-- axes -->
  <line x1="52" y1="28" x2="52" y2="232"
        stroke="#cccccc" stroke-width="1"/>
  <line x1="52" y1="232" x2="800" y2="232"
        stroke="#cccccc" stroke-width="1"/>

  <!-- y-axis labels -->
  <text x="47" y="236.0" text-anchor="end" font-size="10" fill="#57606a" font-family="ui-monospace, SFMono-Regular, 'SF Mono', Menlo, monospace">0</text><text x="47" y="193.3" text-anchor="end" font-size="10" fill="#57606a" font-family="ui-monospace, SFMono-Regular, 'SF Mono', Menlo, monospace">80</text><text x="47" y="150.6" text-anchor="end" font-size="10" fill="#57606a" font-family="ui-monospace, SFMono-Regular, 'SF Mono', Menlo, monospace">160</text><text x="47" y="107.8" text-anchor="end" font-size="10" fill="#57606a" font-family="ui-monospace, SFMono-Regular, 'SF Mono', Menlo, monospace">240</text><text x="47" y="65.1" text-anchor="end" font-size="10" fill="#57606a" font-family="ui-monospace, SFMono-Regular, 'SF Mono', Menlo, monospace">320</text><text x="47" y="22.4" text-anchor="end" font-size="10" fill="#57606a" font-family="ui-monospace, SFMono-Regular, 'SF Mono', Menlo, monospace">400</text>

  <!-- x-axis labels -->
  <text x="52.0" y="248" text-anchor="middle" font-size="10" fill="#8c959f" font-family="ui-monospace, SFMono-Regular, 'SF Mono', Menlo, monospace">05-11</text><text x="151.7" y="248" text-anchor="middle" font-size="10" fill="#8c959f" font-family="ui-monospace, SFMono-Regular, 'SF Mono', Menlo, monospace">05-13</text><text x="251.5" y="248" text-anchor="middle" font-size="10" fill="#8c959f" font-family="ui-monospace, SFMono-Regular, 'SF Mono', Menlo, monospace">05-15</text><text x="351.2" y="248" text-anchor="middle" font-size="10" fill="#8c959f" font-family="ui-monospace, SFMono-Regular, 'SF Mono', Menlo, monospace">05-17</text><text x="450.9" y="248" text-anchor="middle" font-size="10" fill="#8c959f" font-family="ui-monospace, SFMono-Regular, 'SF Mono', Menlo, monospace">05-19</text><text x="550.7" y="248" text-anchor="middle" font-size="10" fill="#8c959f" font-family="ui-monospace, SFMono-Regular, 'SF Mono', Menlo, monospace">05-21</text><text x="650.4" y="248" text-anchor="middle" font-size="10" fill="#8c959f" font-family="ui-monospace, SFMono-Regular, 'SF Mono', Menlo, monospace">05-23</text><text x="750.1" y="248" text-anchor="middle" font-size="10" fill="#8c959f" font-family="ui-monospace, SFMono-Regular, 'SF Mono', Menlo, monospace">05-25</text><text x="800.0" y="248" text-anchor="middle" font-size="10" fill="#8c959f" font-family="ui-monospace, SFMono-Regular, 'SF Mono', Menlo, monospace">05-26</text>

  <!-- legend -->
  <rect x="60" y="262" width="16" height="3" fill="#4e79a7" rx="1"/><text x="80" y="268" font-size="11" fill="#57606a" font-family="-apple-system, BlinkMacSystemFont, 'Segoe UI', sans-serif">Total clones (1,351)</text><line x1="230" y1="264" x2="246" y2="264" stroke="#f28e2b" stroke-width="2" stroke-dasharray="5,3"/><text x="250" y="268" font-size="11" fill="#57606a" font-family="-apple-system, BlinkMacSystemFont, 'Segoe UI', sans-serif">Unique cloners</text>

</svg>