<svg xmlns="http://www.w3.org/2000/svg" viewBox="0 0 820 280" width="820" height="280">

  <!-- title -->
  <text x="52" y="18" font-size="13" font-weight="600"
        fill="#24292f" font-family="-apple-system, BlinkMacSystemFont, 'Segoe UI', sans-serif"
        >Clone traffic — script-helpers</text>
  <text x="800" y="18" font-size="10" fill="#8c959f"
        font-family="ui-monospace, SFMono-Regular, 'SF Mono', Menlo, monospace" text-anchor="end">2026-07-04</text>

  <!-- grid -->
  <line x1="52" y1="232.0" x2="800" y2="232.0" stroke="#e8e8e8" stroke-width="1"/><line x1="52" y1="193.8" x2="800" y2="193.8" stroke="#e8e8e8" stroke-width="1"/><line x1="52" y1="155.6" x2="800" y2="155.6" stroke="#e8e8e8" stroke-width="1"/><line x1="52" y1="117.4" x2="800" y2="117.4" stroke="#e8e8e8" stroke-width="1"/><line x1="52" y1="79.2" x2="800" y2="79.2" stroke="#e8e8e8" stroke-width="1"/><line x1="52" y1="41.0" x2="800" y2="41.0" stroke="#e8e8e8" stroke-width="1"/><line x1="52" y1="2.8" x2="800" y2="2.8" stroke="#e8e8e8" stroke-width="1"/>

  <!-- area fill -->
  <path d="M52.0,228.9 L52.0,228.9 L66.4,228.2 L80.8,229.7 L95.2,205.6 L109.5,204.1 L123.9,216.0 L138.3,217.5 L152.7,189.2 L167.1,202.2 L181.5,209.1 L195.8,86.1 L210.2,222.1 L224.6,180.8 L239.0,200.7 L253.4,171.6 L267.8,204.1 L282.2,202.6 L296.5,213.3 L310.9,223.2 L325.3,229.3 L339.7,230.1 L354.1,224.0 L368.5,225.5 L382.8,228.9 L397.2,223.2 L411.6,230.1 L426.0,228.2 L440.4,223.6 L454.8,213.7 L469.2,226.7 L483.5,223.2 L497.9,230.9 L512.3,37.2 L526.7,28.0 L541.1,225.9 L555.5,225.1 L569.8,221.7 L584.2,225.1 L598.6,219.0 L613.0,172.8 L627.4,67.0 L641.8,101.0 L656.2,213.3 L670.5,217.9 L684.9,227.8 L699.3,230.9 L713.7,160.9 L728.1,228.9 L742.5,230.9 L756.8,228.9 L771.2,228.2 L785.6,230.1 L800.0,231.6 L800.0,232.0 L52.0,232.0Z" fill="#4e79a7" opacity="0.12"/>

  <!-- lines -->
  <polyline points="52.0,228.9 66.4,228.2 80.8,229.7 95.2,205.6 109.5,204.1 123.9,216.0 138.3,217.5 152.7,189.2 167.1,202.2 181.5,209.1 195.8,86.1 210.2,222.1 224.6,180.8 239.0,200.7 253.4,171.6 267.8,204.1 282.2,202.6 296.5,213.3 310.9,223.2 325.3,229.3 339.7,230.1 354.1,224.0 368.5,225.5 382.8,228.9 397.2,223.2 411.6,230.1 426.0,228.2 440.4,223.6 454.8,213.7 469.2,226.7 483.5,223.2 497.9,230.9 512.3,37.2 526.7,28.0 541.1,225.9 555.5,225.1 569.8,221.7 584.2,225.1 598.6,219.0 613.0,172.8 627.4,67.0 641.8,101.0 656.2,213.3 670.5,217.9 684.9,227.8 699.3,230.9 713.7,160.9 728.1,228.9 742.5,230.9 756.8,228.9 771.2,228.2 785.6,230.1 800.0,231.6"
            fill="none" stroke="#4e79a7"
            stroke-width="2" stroke-linejoin="round"/>
  <polyline points="52.0,230.9 66.4,230.5 80.8,230.9 95.2,230.5 109.5,230.5 123.9,230.9 138.3,230.9 152.7,230.5 167.1,231.2 181.5,230.9 195.8,180.8 210.2,226.3 224.6,230.5 239.0,229.7 253.4,224.7 267.8,227.8 282.2,229.7 296.5,230.1 310.9,228.6 325.3,231.2 339.7,231.2 354.1,231.2 368.5,231.2 382.8,231.2 397.2,230.1 411.6,231.2 426.0,231.2 440.4,230.9 454.8,226.7 469.2,230.1 483.5,230.5 497.9,231.6 512.3,184.6 526.7,196.5 541.1,230.1 555.5,231.2 569.8,231.2 584.2,231.2 598.6,230.1 613.0,225.1 627.4,207.6 641.8,214.0 656.2,225.9 670.5,224.0 684.9,230.1 699.3,230.9 713.7,221.7 728.1,230.5 742.5,231.2 756.8,230.5 771.2,230.5 785.6,231.2 800.0,231.6"
            fill="none" stroke="#f28e2b"
            stroke-width="2" stroke-linejoin="round"
            stroke-dasharray="5,3"/>

  <!-- dots -->
  <circle cx="52.0" cy="228.9" r="3" fill="#4e79a7"/><circle cx="66.4" cy="228.2" r="3" fill="#4e79a7"/><circle cx="80.8" cy="229.7" r="3" fill="#4e79a7"/><circle cx="95.2" cy="205.6" r="3" fill="#4e79a7"/><circle cx="109.5" cy="204.1" r="3" fill="#4e79a7"/><circle cx="123.9" cy="216.0" r="3" fill="#4e79a7"/><circle cx="138.3" cy="217.5" r="3" fill="#4e79a7"/><circle cx="152.7" cy="189.2" r="3" fill="#4e79a7"/><circle cx="167.1" cy="202.2" r="3" fill="#4e79a7"/><circle cx="181.5" cy="209.1" r="3" fill="#4e79a7"/><circle cx="195.8" cy="86.1" r="3" fill="#4e79a7"/><circle cx="210.2" cy="222.1" r="3" fill="#4e79a7"/><circle cx="224.6" cy="180.8" r="3" fill="#4e79a7"/><circle cx="239.0" cy="200.7" r="3" fill="#4e79a7"/><circle cx="253.4" cy="171.6" r="3" fill="#4e79a7"/><circle cx="267.8" cy="204.1" r="3" fill="#4e79a7"/><circle cx="282.2" cy="202.6" r="3" fill="#4e79a7"/><circle cx="296.5" cy="213.3" r="3" fill="#4e79a7"/><circle cx="310.9" cy="223.2" r="3" fill="#4e79a7"/><circle cx="325.3" cy="229.3" r="3" fill="#4e79a7"/><circle cx="339.7" cy="230.1" r="3" fill="#4e79a7"/><circle cx="354.1" cy="224.0" r="3" fill="#4e79a7"/><circle cx="368.5" cy="225.5" r="3" fill="#4e79a7"/><circle cx="382.8" cy="228.9" r="3" fill="#4e79a7"/><circle cx="397.2" cy="223.2" r="3" fill="#4e79a7"/><circle cx="411.6" cy="230.1" r="3" fill="#4e79a7"/><circle cx="426.0" cy="228.2" r="3" fill="#4e79a7"/><circle cx="440.4" cy="223.6" r="3" fill="#4e79a7"/><circle cx="454.8" cy="213.7" r="3" fill="#4e79a7"/><circle cx="469.2" cy="226.7" r="3" fill="#4e79a7"/><circle cx="483.5" cy="223.2" r="3" fill="#4e79a7"/><circle cx="497.9" cy="230.9" r="3" fill="#4e79a7"/><circle cx="512.3" cy="37.2" r="3" fill="#4e79a7"/><circle cx="526.7" cy="28.0" r="3" fill="#4e79a7"/><circle cx="541.1" cy="225.9" r="3" fill="#4e79a7"/><circle cx="555.5" cy="225.1" r="3" fill="#4e79a7"/><circle cx="569.8" cy="221.7" r="3" fill="#4e79a7"/><circle cx="584.2" cy="225.1" r="3" fill="#4e79a7"/><circle cx="598.6" cy="219.0" r="3" fill="#4e79a7"/><circle cx="613.0" cy="172.8" r="3" fill="#4e79a7"/><circle cx="627.4" cy="67.0" r="3" fill="#4e79a7"/><circle cx="641.8" cy="101.0" r="3" fill="#4e79a7"/><circle cx="656.2" cy="213.3" r="3" fill="#4e79a7"/><circle cx="670.5" cy="217.9" r="3" fill="#4e79a7"/><circle cx="684.9" cy="227.8" r="3" fill="#4e79a7"/><circle cx="699.3" cy="230.9" r="3" fill="#4e79a7"/><circle cx="713.7" cy="160.9" r="3" fill="#4e79a7"/><circle cx="728.1" cy="228.9" r="3" fill="#4e79a7"/><circle cx="742.5" cy="230.9" r="3" fill="#4e79a7"/><circle cx="756.8" cy="228.9" r="3" fill="#4e79a7"/><circle cx="771.2" cy="228.2" r="3" fill="#4e79a7"/><circle cx="785.6" cy="230.1" r="3" fill="#4e79a7"/><circle cx="800.0" cy="231.6" r="3" fill="#4e79a7"/>
  <circle cx="52.0" cy="230.9" r="3" fill="#f28e2b"/><circle cx="66.4" cy="230.5" r="3" fill="#f28e2b"/><circle cx="80.8" cy="230.9" r="3" fill="#f28e2b"/><circle cx="95.2" cy="230.5" r="3" fill="#f28e2b"/><circle cx="109.5" cy="230.5" r="3" fill="#f28e2b"/><circle cx="123.9" cy="230.9" r="3" fill="#f28e2b"/><circle cx="138.3" cy="230.9" r="3" fill="#f28e2b"/><circle cx="152.7" cy="230.5" r="3" fill="#f28e2b"/><circle cx="167.1" cy="231.2" r="3" fill="#f28e2b"/><circle cx="181.5" cy="230.9" r="3" fill="#f28e2b"/><circle cx="195.8" cy="180.8" r="3" fill="#f28e2b"/><circle cx="210.2" cy="226.3" r="3" fill="#f28e2b"/><circle cx="224.6" cy="230.5" r="3" fill="#f28e2b"/><circle cx="239.0" cy="229.7" r="3" fill="#f28e2b"/><circle cx="253.4" cy="224.7" r="3" fill="#f28e2b"/><circle cx="267.8" cy="227.8" r="3" fill="#f28e2b"/><circle cx="282.2" cy="229.7" r="3" fill="#f28e2b"/><circle cx="296.5" cy="230.1" r="3" fill="#f28e2b"/><circle cx="310.9" cy="228.6" r="3" fill="#f28e2b"/><circle cx="325.3" cy="231.2" r="3" fill="#f28e2b"/><circle cx="339.7" cy="231.2" r="3" fill="#f28e2b"/><circle cx="354.1" cy="231.2" r="3" fill="#f28e2b"/><circle cx="368.5" cy="231.2" r="3" fill="#f28e2b"/><circle cx="382.8" cy="231.2" r="3" fill="#f28e2b"/><circle cx="397.2" cy="230.1" r="3" fill="#f28e2b"/><circle cx="411.6" cy="231.2" r="3" fill="#f28e2b"/><circle cx="426.0" cy="231.2" r="3" fill="#f28e2b"/><circle cx="440.4" cy="230.9" r="3" fill="#f28e2b"/><circle cx="454.8" cy="226.7" r="3" fill="#f28e2b"/><circle cx="469.2" cy="230.1" r="3" fill="#f28e2b"/><circle cx="483.5" cy="230.5" r="3" fill="#f28e2b"/><circle cx="497.9" cy="231.6" r="3" fill="#f28e2b"/><circle cx="512.3" cy="184.6" r="3" fill="#f28e2b"/><circle cx="526.7" cy="196.5" r="3" fill="#f28e2b"/><circle cx="541.1" cy="230.1" r="3" fill="#f28e2b"/><circle cx="555.5" cy="231.2" r="3" fill="#f28e2b"/><circle cx="569.8" cy="231.2" r="3" fill="#f28e2b"/><circle cx="584.2" cy="231.2" r="3" fill="#f28e2b"/><circle cx="598.6" cy="230.1" r="3" fill="#f28e2b"/><circle cx="613.0" cy="225.1" r="3" fill="#f28e2b"/><circle cx="627.4" cy="207.6" r="3" fill="#f28e2b"/><circle cx="641.8" cy="214.0" r="3" fill="#f28e2b"/><circle cx="656.2" cy="225.9" r="3" fill="#f28e2b"/><circle cx="670.5" cy="224.0" r="3" fill="#f28e2b"/><circle cx="684.9" cy="230.1" r="3" fill="#f28e2b"/><circle cx="699.3" cy="230.9" r="3" fill="#f28e2b"/><circle cx="713.7" cy="221.7" r="3" fill="#f28e2b"/><circle cx="728.1" cy="230.5" r="3" fill="#f28e2b"/><circle cx="742.5" cy="231.2" r="3" fill="#f28e2b"/><circle cx="756.8" cy="230.5" r="3" fill="#f28e2b"/><circle cx="771.2" cy="230.5" r="3" fill="#f28e2b"/><circle cx="785.6" cy="231.2" r="3" fill="#f28e2b"/><circle cx="800.0" cy="231.6" r="3" fill="#f28e2b"/>

  <!-- axes -->
  <line x1="52" y1="28" x2="52" y2="232"
        stroke="#cccccc" stroke-width="1"/>
  <line x1="52" y1="232" x2="800" y2="232"
        stroke="#cccccc" stroke-width="1"/>

  <!-- y-axis labels -->
  <text x="47" y="236.0" text-anchor="end" font-size="10" fill="#57606a" font-family="ui-monospace, SFMono-Regular, 'SF Mono', Menlo, monospace">0</text><text x="47" y="197.8" text-anchor="end" font-size="10" fill="#57606a" font-family="ui-monospace, SFMono-Regular, 'SF Mono', Menlo, monospace">100</text><text x="47" y="159.6" text-anchor="end" font-size="10" fill="#57606a" font-family="ui-monospace, SFMono-Regular, 'SF Mono', Menlo, monospace">200</text><text x="47" y="121.4" text-anchor="end" font-size="10" fill="#57606a" font-family="ui-monospace, SFMono-Regular, 'SF Mono', Menlo, monospace">300</text><text x="47" y="83.2" text-anchor="end" font-size="10" fill="#57606a" font-family="ui-monospace, SFMono-Regular, 'SF Mono', Menlo, monospace">400</text><text x="47" y="45.0" text-anchor="end" font-size="10" fill="#57606a" font-family="ui-monospace, SFMono-Regular, 'SF Mono', Menlo, monospace">500</text><text x="47" y="6.8" text-anchor="end" font-size="10" fill="#57606a" font-family="ui-monospace, SFMono-Regular, 'SF Mono', Menlo, monospace">600</text>

  <!-- x-axis labels -->
  <text x="52.0" y="248" text-anchor="middle" font-size="10" fill="#8c959f" font-family="ui-monospace, SFMono-Regular, 'SF Mono', Menlo, monospace">05-11</text><text x="569.8" y="248" text-anchor="middle" font-size="10" fill="#8c959f" font-family="ui-monospace, SFMono-Regular, 'SF Mono', Menlo, monospace">06-16</text><text x="138.3" y="248" text-anchor="middle" font-size="10" fill="#8c959f" font-family="ui-monospace, SFMono-Regular, 'SF Mono', Menlo, monospace">05-17</text><text x="656.2" y="248" text-anchor="middle" font-size="10" fill="#8c959f" font-family="ui-monospace, SFMono-Regular, 'SF Mono', Menlo, monospace">06-22</text><text x="224.6" y="248" text-anchor="middle" font-size="10" fill="#8c959f" font-family="ui-monospace, SFMono-Regular, 'SF Mono', Menlo, monospace">05-23</text><text x="742.5" y="248" text-anchor="middle" font-size="10" fill="#8c959f" font-family="ui-monospace, SFMono-Regular, 'SF Mono', Menlo, monospace">06-28</text><text x="310.9" y="248" text-anchor="middle" font-size="10" fill="#8c959f" font-family="ui-monospace, SFMono-Regular, 'SF Mono', Menlo, monospace">05-29</text><text x="800.0" y="248" text-anchor="middle" font-size="10" fill="#8c959f" font-family="ui-monospace, SFMono-Regular, 'SF Mono', Menlo, monospace">07-02</text><text x="397.2" y="248" text-anchor="middle" font-size="10" fill="#8c959f" font-family="ui-monospace, SFMono-Regular, 'SF Mono', Menlo, monospace">06-04</text><text x="483.5" y="248" text-anchor="middle" font-size="10" fill="#8c959f" font-family="ui-monospace, SFMono-Regular, 'SF Mono', Menlo, monospace">06-10</text>

  <!-- legend -->
  <rect x="60" y="262" width="16" height="3" fill="#4e79a7" rx="1"/><text x="80" y="268" font-size="11" fill="#57606a" font-family="-apple-system, BlinkMacSystemFont, 'Segoe UI', sans-serif">Total clones (4,114)</text><line x1="230" y1="264" x2="246" y2="264" stroke="#f28e2b" stroke-width="2" stroke-dasharray="5,3"/><text x="250" y="268" font-size="11" fill="#57606a" font-family="-apple-system, BlinkMacSystemFont, 'Segoe UI', sans-serif">Unique cloners</text>

</svg>