<svg xmlns="http://www.w3.org/2000/svg" viewBox="0 0 820 280" width="820" height="280">

  <!-- title -->
  <text x="52" y="18" font-size="13" font-weight="600"
        fill="#24292f" font-family="-apple-system, BlinkMacSystemFont, 'Segoe UI', sans-serif"
        >Clone traffic — script-helpers</text>
  <text x="800" y="18" font-size="10" fill="#8c959f"
        font-family="ui-monospace, SFMono-Regular, 'SF Mono', Menlo, monospace" text-anchor="end">2026-06-22</text>

  <!-- grid -->
  <line x1="52" y1="232.0" x2="800" y2="232.0" stroke="#e8e8e8" stroke-width="1"/><line x1="52" y1="193.8" x2="800" y2="193.8" stroke="#e8e8e8" stroke-width="1"/><line x1="52" y1="155.6" x2="800" y2="155.6" stroke="#e8e8e8" stroke-width="1"/><line x1="52" y1="117.4" x2="800" y2="117.4" stroke="#e8e8e8" stroke-width="1"/><line x1="52" y1="79.2" x2="800" y2="79.2" stroke="#e8e8e8" stroke-width="1"/><line x1="52" y1="41.0" x2="800" y2="41.0" stroke="#e8e8e8" stroke-width="1"/><line x1="52" y1="2.8" x2="800" y2="2.8" stroke="#e8e8e8" stroke-width="1"/>

  <!-- area fill -->
  <path d="M52.0,228.9 L52.0,228.9 L70.7,228.2 L89.4,229.7 L108.1,205.6 L126.8,204.1 L145.5,216.0 L164.2,217.5 L182.9,189.2 L201.6,202.2 L220.3,209.1 L239.0,86.1 L257.7,222.1 L276.4,180.8 L295.1,200.7 L313.8,171.6 L332.5,204.1 L351.2,202.6 L369.9,213.3 L388.6,223.2 L407.3,229.3 L426.0,230.1 L444.7,224.0 L463.4,225.5 L482.1,228.9 L500.8,223.2 L519.5,230.1 L538.2,228.2 L556.9,223.6 L575.6,213.7 L594.3,226.7 L613.0,223.2 L631.7,230.9 L650.4,37.2 L669.1,28.0 L687.8,225.9 L706.5,225.1 L725.2,221.7 L743.9,225.1 L762.6,219.0 L781.3,172.8 L800.0,67.0 L800.0,232.0 L52.0,232.0Z" fill="#4e79a7" opacity="0.12"/>

  <!-- lines -->
  <polyline points="52.0,228.9 70.7,228.2 89.4,229.7 108.1,205.6 126.8,204.1 145.5,216.0 164.2,217.5 182.9,189.2 201.6,202.2 220.3,209.1 239.0,86.1 257.7,222.1 276.4,180.8 295.1,200.7 313.8,171.6 332.5,204.1 351.2,202.6 369.9,213.3 388.6,223.2 407.3,229.3 426.0,230.1 444.7,224.0 463.4,225.5 482.1,228.9 500.8,223.2 519.5,230.1 538.2,228.2 556.9,223.6 575.6,213.7 594.3,226.7 613.0,223.2 631.7,230.9 650.4,37.2 669.1,28.0 687.8,225.9 706.5,225.1 725.2,221.7 743.9,225.1 762.6,219.0 781.3,172.8 800.0,67.0"
            fill="none" stroke="#4e79a7"
            stroke-width="2" stroke-linejoin="round"/>
  <polyline points="52.0,230.9 70.7,230.5 89.4,230.9 108.1,230.5 126.8,230.5 145.5,230.9 164.2,230.9 182.9,230.5 201.6,231.2 220.3,230.9 239.0,180.8 257.7,226.3 276.4,230.5 295.1,229.7 313.8,224.7 332.5,227.8 351.2,229.7 369.9,230.1 388.6,228.6 407.3,231.2 426.0,231.2 444.7,231.2 463.4,231.2 482.1,231.2 500.8,230.1 519.5,231.2 538.2,231.2 556.9,230.9 575.6,226.7 594.3,230.1 613.0,230.5 631.7,231.6 650.4,184.6 669.1,196.5 687.8,230.1 706.5,231.2 725.2,231.2 743.9,231.2 762.6,230.1 781.3,225.1 800.0,207.6"
            fill="none" stroke="#f28e2b"
            stroke-width="2" stroke-linejoin="round"
            stroke-dasharray="5,3"/>

  <!-- dots -->
  <circle cx="52.0" cy="228.9" r="3" fill="#4e79a7"/><circle cx="70.7" cy="228.2" r="3" fill="#4e79a7"/><circle cx="89.4" cy="229.7" r="3" fill="#4e79a7"/><circle cx="108.1" cy="205.6" r="3" fill="#4e79a7"/><circle cx="126.8" cy="204.1" r="3" fill="#4e79a7"/><circle cx="145.5" cy="216.0" r="3" fill="#4e79a7"/><circle cx="164.2" cy="217.5" r="3" fill="#4e79a7"/><circle cx="182.9" cy="189.2" r="3" fill="#4e79a7"/><circle cx="201.6" cy="202.2" r="3" fill="#4e79a7"/><circle cx="220.3" cy="209.1" r="3" fill="#4e79a7"/><circle cx="239.0" cy="86.1" r="3" fill="#4e79a7"/><circle cx="257.7" cy="222.1" r="3" fill="#4e79a7"/><circle cx="276.4" cy="180.8" r="3" fill="#4e79a7"/><circle cx="295.1" cy="200.7" r="3" fill="#4e79a7"/><circle cx="313.8" cy="171.6" r="3" fill="#4e79a7"/><circle cx="332.5" cy="204.1" r="3" fill="#4e79a7"/><circle cx="351.2" cy="202.6" r="3" fill="#4e79a7"/><circle cx="369.9" cy="213.3" r="3" fill="#4e79a7"/><circle cx="388.6" cy="223.2" r="3" fill="#4e79a7"/><circle cx="407.3" cy="229.3" r="3" fill="#4e79a7"/><circle cx="426.0" cy="230.1" r="3" fill="#4e79a7"/><circle cx="444.7" cy="224.0" r="3" fill="#4e79a7"/><circle cx="463.4" cy="225.5" r="3" fill="#4e79a7"/><circle cx="482.1" cy="228.9" r="3" fill="#4e79a7"/><circle cx="500.8" cy="223.2" r="3" fill="#4e79a7"/><circle cx="519.5" cy="230.1" r="3" fill="#4e79a7"/><circle cx="538.2" cy="228.2" r="3" fill="#4e79a7"/><circle cx="556.9" cy="223.6" r="3" fill="#4e79a7"/><circle cx="575.6" cy="213.7" r="3" fill="#4e79a7"/><circle cx="594.3" cy="226.7" r="3" fill="#4e79a7"/><circle cx="613.0" cy="223.2" r="3" fill="#4e79a7"/><circle cx="631.7" cy="230.9" r="3" fill="#4e79a7"/><circle cx="650.4" cy="37.2" r="3" fill="#4e79a7"/><circle cx="669.1" cy="28.0" r="3" fill="#4e79a7"/><circle cx="687.8" cy="225.9" r="3" fill="#4e79a7"/><circle cx="706.5" cy="225.1" r="3" fill="#4e79a7"/><circle cx="725.2" cy="221.7" r="3" fill="#4e79a7"/><circle cx="743.9" cy="225.1" r="3" fill="#4e79a7"/><circle cx="762.6" cy="219.0" r="3" fill="#4e79a7"/><circle cx="781.3" cy="172.8" r="3" fill="#4e79a7"/><circle cx="800.0" cy="67.0" r="3" fill="#4e79a7"/>
  <circle cx="52.0" cy="230.9" r="3" fill="#f28e2b"/><circle cx="70.7" cy="230.5" r="3" fill="#f28e2b"/><circle cx="89.4" cy="230.9" r="3" fill="#f28e2b"/><circle cx="108.1" cy="230.5" r="3" fill="#f28e2b"/><circle cx="126.8" cy="230.5" r="3" fill="#f28e2b"/><circle cx="145.5" cy="230.9" r="3" fill="#f28e2b"/><circle cx="164.2" cy="230.9" r="3" fill="#f28e2b"/><circle cx="182.9" cy="230.5" r="3" fill="#f28e2b"/><circle cx="201.6" cy="231.2" r="3" fill="#f28e2b"/><circle cx="220.3" cy="230.9" r="3" fill="#f28e2b"/><circle cx="239.0" cy="180.8" r="3" fill="#f28e2b"/><circle cx="257.7" cy="226.3" r="3" fill="#f28e2b"/><circle cx="276.4" cy="230.5" r="3" fill="#f28e2b"/><circle cx="295.1" cy="229.7" r="3" fill="#f28e2b"/><circle cx="313.8" cy="224.7" r="3" fill="#f28e2b"/><circle cx="332.5" cy="227.8" r="3" fill="#f28e2b"/><circle cx="351.2" cy="229.7" r="3" fill="#f28e2b"/><circle cx="369.9" cy="230.1" r="3" fill="#f28e2b"/><circle cx="388.6" cy="228.6" r="3" fill="#f28e2b"/><circle cx="407.3" cy="231.2" r="3" fill="#f28e2b"/><circle cx="426.0" cy="231.2" r="3" fill="#f28e2b"/><circle cx="444.7" cy="231.2" r="3" fill="#f28e2b"/><circle cx="463.4" cy="231.2" r="3" fill="#f28e2b"/><circle cx="482.1" cy="231.2" r="3" fill="#f28e2b"/><circle cx="500.8" cy="230.1" r="3" fill="#f28e2b"/><circle cx="519.5" cy="231.2" r="3" fill="#f28e2b"/><circle cx="538.2" cy="231.2" r="3" fill="#f28e2b"/><circle cx="556.9" cy="230.9" r="3" fill="#f28e2b"/><circle cx="575.6" cy="226.7" r="3" fill="#f28e2b"/><circle cx="594.3" cy="230.1" r="3" fill="#f28e2b"/><circle cx="613.0" cy="230.5" r="3" fill="#f28e2b"/><circle cx="631.7" cy="231.6" r="3" fill="#f28e2b"/><circle cx="650.4" cy="184.6" r="3" fill="#f28e2b"/><circle cx="669.1" cy="196.5" r="3" fill="#f28e2b"/><circle cx="687.8" cy="230.1" r="3" fill="#f28e2b"/><circle cx="706.5" cy="231.2" r="3" fill="#f28e2b"/><circle cx="725.2" cy="231.2" r="3" fill="#f28e2b"/><circle cx="743.9" cy="231.2" r="3" fill="#f28e2b"/><circle cx="762.6" cy="230.1" r="3" fill="#f28e2b"/><circle cx="781.3" cy="225.1" r="3" fill="#f28e2b"/><circle cx="800.0" cy="207.6" r="3" fill="#f28e2b"/>

  <!-- axes -->
  <line x1="52" y1="28" x2="52" y2="232"
        stroke="#cccccc" stroke-width="1"/>
  <line x1="52" y1="232" x2="800" y2="232"
        stroke="#cccccc" stroke-width="1"/>

  <!-- y-axis labels -->
  <text x="47" y="236.0" text-anchor="end" font-size="10" fill="#57606a" font-family="ui-monospace, SFMono-Regular, 'SF Mono', Menlo, monospace">0</text><text x="47" y="197.8" text-anchor="end" font-size="10" fill="#57606a" font-family="ui-monospace, SFMono-Regular, 'SF Mono', Menlo, monospace">100</text><text x="47" y="159.6" text-anchor="end" font-size="10" fill="#57606a" font-family="ui-monospace, SFMono-Regular, 'SF Mono', Menlo, monospace">200</text><text x="47" y="121.4" text-anchor="end" font-size="10" fill="#57606a" font-family="ui-monospace, SFMono-Regular, 'SF Mono', Menlo, monospace">300</text><text x="47" y="83.2" text-anchor="end" font-size="10" fill="#57606a" font-family="ui-monospace, SFMono-Regular, 'SF Mono', Menlo, monospace">400</text><text x="47" y="45.0" text-anchor="end" font-size="10" fill="#57606a" font-family="ui-monospace, SFMono-Regular, 'SF Mono', Menlo, monospace">500</text><text x="47" y="6.8" text-anchor="end" font-size="10" fill="#57606a" font-family="ui-monospace, SFMono-Regular, 'SF Mono', Menlo, monospace">600</text>

  <!-- x-axis labels -->
  <text x="52.0" y="248" text-anchor="middle" font-size="10" fill="#8c959f" font-family="ui-monospace, SFMono-Regular, 'SF Mono', Menlo, monospace">05-11</text><text x="706.5" y="248" text-anchor="middle" font-size="10" fill="#8c959f" font-family="ui-monospace, SFMono-Regular, 'SF Mono', Menlo, monospace">06-15</text><text x="145.5" y="248" text-anchor="middle" font-size="10" fill="#8c959f" font-family="ui-monospace, SFMono-Regular, 'SF Mono', Menlo, monospace">05-16</text><text x="800.0" y="248" text-anchor="middle" font-size="10" fill="#8c959f" font-family="ui-monospace, SFMono-Regular, 'SF Mono', Menlo, monospace">06-20</text><text x="239.0" y="248" text-anchor="middle" font-size="10" fill="#8c959f" font-family="ui-monospace, SFMono-Regular, 'SF Mono', Menlo, monospace">05-21</text><text x="332.5" y="248" text-anchor="middle" font-size="10" fill="#8c959f" font-family="ui-monospace, SFMono-Regular, 'SF Mono', Menlo, monospace">05-26</text><text x="426.0" y="248" text-anchor="middle" font-size="10" fill="#8c959f" font-family="ui-monospace, SFMono-Regular, 'SF Mono', Menlo, monospace">05-31</text><text x="519.5" y="248" text-anchor="middle" font-size="10" fill="#8c959f" font-family="ui-monospace, SFMono-Regular, 'SF Mono', Menlo, monospace">06-05</text><text x="613.0" y="248" text-anchor="middle" font-size="10" fill="#8c959f" font-family="ui-monospace, SFMono-Regular, 'SF Mono', Menlo, monospace">06-10</text>

  <!-- legend -->
  <rect x="60" y="262" width="16" height="3" fill="#4e79a7" rx="1"/><text x="80" y="268" font-size="11" fill="#57606a" font-family="-apple-system, BlinkMacSystemFont, 'Segoe UI', sans-serif">Total clones (3,450)</text><line x1="230" y1="264" x2="246" y2="264" stroke="#f28e2b" stroke-width="2" stroke-dasharray="5,3"/><text x="250" y="268" font-size="11" fill="#57606a" font-family="-apple-system, BlinkMacSystemFont, 'Segoe UI', sans-serif">Unique cloners</text>

</svg>