<svg xmlns="http://www.w3.org/2000/svg" viewBox="0 0 820 280" width="820" height="280">

  <!-- title -->
  <text x="52" y="18" font-size="13" font-weight="600"
        fill="#24292f" font-family="-apple-system, BlinkMacSystemFont, 'Segoe UI', sans-serif"
        >Clone traffic — script-helpers</text>
  <text x="800" y="18" font-size="10" fill="#8c959f"
        font-family="ui-monospace, SFMono-Regular, 'SF Mono', Menlo, monospace" text-anchor="end">2026-06-15</text>

  <!-- grid -->
  <line x1="52" y1="232.0" x2="800" y2="232.0" stroke="#e8e8e8" stroke-width="1"/><line x1="52" y1="193.8" x2="800" y2="193.8" stroke="#e8e8e8" stroke-width="1"/><line x1="52" y1="155.6" x2="800" y2="155.6" stroke="#e8e8e8" stroke-width="1"/><line x1="52" y1="117.4" x2="800" y2="117.4" stroke="#e8e8e8" stroke-width="1"/><line x1="52" y1="79.2" x2="800" y2="79.2" stroke="#e8e8e8" stroke-width="1"/><line x1="52" y1="41.0" x2="800" y2="41.0" stroke="#e8e8e8" stroke-width="1"/><line x1="52" y1="2.8" x2="800" y2="2.8" stroke="#e8e8e8" stroke-width="1"/>

  <!-- area fill -->
  <path d="M52.0,228.9 L52.0,228.9 L74.7,228.2 L97.3,229.7 L120.0,205.6 L142.7,204.1 L165.3,216.0 L188.0,217.5 L210.7,189.2 L233.3,202.2 L256.0,209.1 L278.7,86.1 L301.3,222.1 L324.0,180.8 L346.7,200.7 L369.3,171.6 L392.0,204.1 L414.7,202.6 L437.3,213.3 L460.0,223.2 L482.7,229.3 L505.3,230.1 L528.0,224.0 L550.7,225.5 L573.3,228.9 L596.0,223.2 L618.7,230.1 L641.3,228.2 L664.0,223.6 L686.7,213.7 L709.3,226.7 L732.0,223.2 L754.7,230.9 L777.3,37.2 L800.0,28.0 L800.0,232.0 L52.0,232.0Z" fill="#4e79a7" opacity="0.12"/>

  <!-- lines -->
  <polyline points="52.0,228.9 74.7,228.2 97.3,229.7 120.0,205.6 142.7,204.1 165.3,216.0 188.0,217.5 210.7,189.2 233.3,202.2 256.0,209.1 278.7,86.1 301.3,222.1 324.0,180.8 346.7,200.7 369.3,171.6 392.0,204.1 414.7,202.6 437.3,213.3 460.0,223.2 482.7,229.3 505.3,230.1 528.0,224.0 550.7,225.5 573.3,228.9 596.0,223.2 618.7,230.1 641.3,228.2 664.0,223.6 686.7,213.7 709.3,226.7 732.0,223.2 754.7,230.9 777.3,37.2 800.0,28.0"
            fill="none" stroke="#4e79a7"
            stroke-width="2" stroke-linejoin="round"/>
  <polyline points="52.0,230.9 74.7,230.5 97.3,230.9 120.0,230.5 142.7,230.5 165.3,230.9 188.0,230.9 210.7,230.5 233.3,231.2 256.0,230.9 278.7,180.8 301.3,226.3 324.0,230.5 346.7,229.7 369.3,224.7 392.0,227.8 414.7,229.7 437.3,230.1 460.0,228.6 482.7,231.2 505.3,231.2 528.0,231.2 550.7,231.2 573.3,231.2 596.0,230.1 618.7,231.2 641.3,231.2 664.0,230.9 686.7,226.7 709.3,230.1 732.0,230.5 754.7,231.6 777.3,184.6 800.0,196.5"
            fill="none" stroke="#f28e2b"
            stroke-width="2" stroke-linejoin="round"
            stroke-dasharray="5,3"/>

  <!-- dots -->
  <circle cx="52.0" cy="228.9" r="3" fill="#4e79a7"/><circle cx="74.7" cy="228.2" r="3" fill="#4e79a7"/><circle cx="97.3" cy="229.7" r="3" fill="#4e79a7"/><circle cx="120.0" cy="205.6" r="3" fill="#4e79a7"/><circle cx="142.7" cy="204.1" r="3" fill="#4e79a7"/><circle cx="165.3" cy="216.0" r="3" fill="#4e79a7"/><circle cx="188.0" cy="217.5" r="3" fill="#4e79a7"/><circle cx="210.7" cy="189.2" r="3" fill="#4e79a7"/><circle cx="233.3" cy="202.2" r="3" fill="#4e79a7"/><circle cx="256.0" cy="209.1" r="3" fill="#4e79a7"/><circle cx="278.7" cy="86.1" r="3" fill="#4e79a7"/><circle cx="301.3" cy="222.1" r="3" fill="#4e79a7"/><circle cx="324.0" cy="180.8" r="3" fill="#4e79a7"/><circle cx="346.7" cy="200.7" r="3" fill="#4e79a7"/><circle cx="369.3" cy="171.6" r="3" fill="#4e79a7"/><circle cx="392.0" cy="204.1" r="3" fill="#4e79a7"/><circle cx="414.7" cy="202.6" r="3" fill="#4e79a7"/><circle cx="437.3" cy="213.3" r="3" fill="#4e79a7"/><circle cx="460.0" cy="223.2" r="3" fill="#4e79a7"/><circle cx="482.7" cy="229.3" r="3" fill="#4e79a7"/><circle cx="505.3" cy="230.1" r="3" fill="#4e79a7"/><circle cx="528.0" cy="224.0" r="3" fill="#4e79a7"/><circle cx="550.7" cy="225.5" r="3" fill="#4e79a7"/><circle cx="573.3" cy="228.9" r="3" fill="#4e79a7"/><circle cx="596.0" cy="223.2" r="3" fill="#4e79a7"/><circle cx="618.7" cy="230.1" r="3" fill="#4e79a7"/><circle cx="641.3" cy="228.2" r="3" fill="#4e79a7"/><circle cx="664.0" cy="223.6" r="3" fill="#4e79a7"/><circle cx="686.7" cy="213.7" r="3" fill="#4e79a7"/><circle cx="709.3" cy="226.7" r="3" fill="#4e79a7"/><circle cx="732.0" cy="223.2" r="3" fill="#4e79a7"/><circle cx="754.7" cy="230.9" r="3" fill="#4e79a7"/><circle cx="777.3" cy="37.2" r="3" fill="#4e79a7"/><circle cx="800.0" cy="28.0" r="3" fill="#4e79a7"/>
  <circle cx="52.0" cy="230.9" r="3" fill="#f28e2b"/><circle cx="74.7" cy="230.5" r="3" fill="#f28e2b"/><circle cx="97.3" cy="230.9" r="3" fill="#f28e2b"/><circle cx="120.0" cy="230.5" r="3" fill="#f28e2b"/><circle cx="142.7" cy="230.5" r="3" fill="#f28e2b"/><circle cx="165.3" cy="230.9" r="3" fill="#f28e2b"/><circle cx="188.0" cy="230.9" r="3" fill="#f28e2b"/><circle cx="210.7" cy="230.5" r="3" fill="#f28e2b"/><circle cx="233.3" cy="231.2" r="3" fill="#f28e2b"/><circle cx="256.0" cy="230.9" r="3" fill="#f28e2b"/><circle cx="278.7" cy="180.8" r="3" fill="#f28e2b"/><circle cx="301.3" cy="226.3" r="3" fill="#f28e2b"/><circle cx="324.0" cy="230.5" r="3" fill="#f28e2b"/><circle cx="346.7" cy="229.7" r="3" fill="#f28e2b"/><circle cx="369.3" cy="224.7" r="3" fill="#f28e2b"/><circle cx="392.0" cy="227.8" r="3" fill="#f28e2b"/><circle cx="414.7" cy="229.7" r="3" fill="#f28e2b"/><circle cx="437.3" cy="230.1" r="3" fill="#f28e2b"/><circle cx="460.0" cy="228.6" r="3" fill="#f28e2b"/><circle cx="482.7" cy="231.2" r="3" fill="#f28e2b"/><circle cx="505.3" cy="231.2" r="3" fill="#f28e2b"/><circle cx="528.0" cy="231.2" r="3" fill="#f28e2b"/><circle cx="550.7" cy="231.2" r="3" fill="#f28e2b"/><circle cx="573.3" cy="231.2" r="3" fill="#f28e2b"/><circle cx="596.0" cy="230.1" r="3" fill="#f28e2b"/><circle cx="618.7" cy="231.2" r="3" fill="#f28e2b"/><circle cx="641.3" cy="231.2" r="3" fill="#f28e2b"/><circle cx="664.0" cy="230.9" r="3" fill="#f28e2b"/><circle cx="686.7" cy="226.7" r="3" fill="#f28e2b"/><circle cx="709.3" cy="230.1" r="3" fill="#f28e2b"/><circle cx="732.0" cy="230.5" r="3" fill="#f28e2b"/><circle cx="754.7" cy="231.6" r="3" fill="#f28e2b"/><circle cx="777.3" cy="184.6" r="3" fill="#f28e2b"/><circle cx="800.0" cy="196.5" r="3" fill="#f28e2b"/>

  <!-- axes -->
  <line x1="52" y1="28" x2="52" y2="232"
        stroke="#cccccc" stroke-width="1"/>
  <line x1="52" y1="232" x2="800" y2="232"
        stroke="#cccccc" stroke-width="1"/>

  <!-- y-axis labels -->
  <text x="47" y="236.0" text-anchor="end" font-size="10" fill="#57606a" font-family="ui-monospace, SFMono-Regular, 'SF Mono', Menlo, monospace">0</text><text x="47" y="197.8" text-anchor="end" font-size="10" fill="#57606a" font-family="ui-monospace, SFMono-Regular, 'SF Mono', Menlo, monospace">100</text><text x="47" y="159.6" text-anchor="end" font-size="10" fill="#57606a" font-family="ui-monospace, SFMono-Regular, 'SF Mono', Menlo, monospace">200</text><text x="47" y="121.4" text-anchor="end" font-size="10" fill="#57606a" font-family="ui-monospace, SFMono-Regular, 'SF Mono', Menlo, monospace">300</text><text x="47" y="83.2" text-anchor="end" font-size="10" fill="#57606a" font-family="ui-monospace, SFMono-Regular, 'SF Mono', Menlo, monospace">400</text><text x="47" y="45.0" text-anchor="end" font-size="10" fill="#57606a" font-family="ui-monospace, SFMono-Regular, 'SF Mono', Menlo, monospace">500</text><text x="47" y="6.8" text-anchor="end" font-size="10" fill="#57606a" font-family="ui-monospace, SFMono-Regular, 'SF Mono', Menlo, monospace">600</text>

  <!-- x-axis labels -->
  <text x="52.0" y="248" text-anchor="middle" font-size="10" fill="#8c959f" font-family="ui-monospace, SFMono-Regular, 'SF Mono', Menlo, monospace">05-11</text><text x="777.3" y="248" text-anchor="middle" font-size="10" fill="#8c959f" font-family="ui-monospace, SFMono-Regular, 'SF Mono', Menlo, monospace">06-12</text><text x="800.0" y="248" text-anchor="middle" font-size="10" fill="#8c959f" font-family="ui-monospace, SFMono-Regular, 'SF Mono', Menlo, monospace">06-13</text><text x="142.7" y="248" text-anchor="middle" font-size="10" fill="#8c959f" font-family="ui-monospace, SFMono-Regular, 'SF Mono', Menlo, monospace">05-15</text><text x="233.3" y="248" text-anchor="middle" font-size="10" fill="#8c959f" font-family="ui-monospace, SFMono-Regular, 'SF Mono', Menlo, monospace">05-19</text><text x="324.0" y="248" text-anchor="middle" font-size="10" fill="#8c959f" font-family="ui-monospace, SFMono-Regular, 'SF Mono', Menlo, monospace">05-23</text><text x="414.7" y="248" text-anchor="middle" font-size="10" fill="#8c959f" font-family="ui-monospace, SFMono-Regular, 'SF Mono', Menlo, monospace">05-27</text><text x="505.3" y="248" text-anchor="middle" font-size="10" fill="#8c959f" font-family="ui-monospace, SFMono-Regular, 'SF Mono', Menlo, monospace">05-31</text><text x="596.0" y="248" text-anchor="middle" font-size="10" fill="#8c959f" font-family="ui-monospace, SFMono-Regular, 'SF Mono', Menlo, monospace">06-04</text><text x="686.7" y="248" text-anchor="middle" font-size="10" fill="#8c959f" font-family="ui-monospace, SFMono-Regular, 'SF Mono', Menlo, monospace">06-08</text>

  <!-- legend -->
  <rect x="60" y="262" width="16" height="3" fill="#4e79a7" rx="1"/><text x="80" y="268" font-size="11" fill="#57606a" font-family="-apple-system, BlinkMacSystemFont, 'Segoe UI', sans-serif">Total clones (2,750)</text><line x1="230" y1="264" x2="246" y2="264" stroke="#f28e2b" stroke-width="2" stroke-dasharray="5,3"/><text x="250" y="268" font-size="11" fill="#57606a" font-family="-apple-system, BlinkMacSystemFont, 'Segoe UI', sans-serif">Unique cloners</text>

</svg>