<svg xmlns="http://www.w3.org/2000/svg" viewBox="0 0 820 280" width="820" height="280">

  <!-- title -->
  <text x="52" y="18" font-size="13" font-weight="600"
        fill="#24292f" font-family="-apple-system, BlinkMacSystemFont, 'Segoe UI', sans-serif"
        >Clone traffic — script-helpers</text>
  <text x="800" y="18" font-size="10" fill="#8c959f"
        font-family="ui-monospace, SFMono-Regular, 'SF Mono', Menlo, monospace" text-anchor="end">2026-06-21</text>

  <!-- grid -->
  <line x1="52" y1="232.0" x2="800" y2="232.0" stroke="#e8e8e8" stroke-width="1"/><line x1="52" y1="193.8" x2="800" y2="193.8" stroke="#e8e8e8" stroke-width="1"/><line x1="52" y1="155.6" x2="800" y2="155.6" stroke="#e8e8e8" stroke-width="1"/><line x1="52" y1="117.4" x2="800" y2="117.4" stroke="#e8e8e8" stroke-width="1"/><line x1="52" y1="79.2" x2="800" y2="79.2" stroke="#e8e8e8" stroke-width="1"/><line x1="52" y1="41.0" x2="800" y2="41.0" stroke="#e8e8e8" stroke-width="1"/><line x1="52" y1="2.8" x2="800" y2="2.8" stroke="#e8e8e8" stroke-width="1"/>

  <!-- area fill -->
  <path d="M52.0,228.9 L52.0,228.9 L71.2,228.2 L90.4,229.7 L109.5,205.6 L128.7,204.1 L147.9,216.0 L167.1,217.5 L186.3,189.2 L205.4,202.2 L224.6,209.1 L243.8,86.1 L263.0,222.1 L282.2,180.8 L301.3,200.7 L320.5,171.6 L339.7,204.1 L358.9,202.6 L378.1,213.3 L397.2,223.2 L416.4,229.3 L435.6,230.1 L454.8,224.0 L473.9,225.5 L493.1,228.9 L512.3,223.2 L531.5,230.1 L550.7,228.2 L569.8,223.6 L589.0,213.7 L608.2,226.7 L627.4,223.2 L646.6,230.9 L665.7,37.2 L684.9,28.0 L704.1,225.9 L723.3,225.1 L742.5,221.7 L761.6,225.1 L780.8,219.0 L800.0,172.8 L800.0,232.0 L52.0,232.0Z" fill="#4e79a7" opacity="0.12"/>

  <!-- lines -->
  <polyline points="52.0,228.9 71.2,228.2 90.4,229.7 109.5,205.6 128.7,204.1 147.9,216.0 167.1,217.5 186.3,189.2 205.4,202.2 224.6,209.1 243.8,86.1 263.0,222.1 282.2,180.8 301.3,200.7 320.5,171.6 339.7,204.1 358.9,202.6 378.1,213.3 397.2,223.2 416.4,229.3 435.6,230.1 454.8,224.0 473.9,225.5 493.1,228.9 512.3,223.2 531.5,230.1 550.7,228.2 569.8,223.6 589.0,213.7 608.2,226.7 627.4,223.2 646.6,230.9 665.7,37.2 684.9,28.0 704.1,225.9 723.3,225.1 742.5,221.7 761.6,225.1 780.8,219.0 800.0,172.8"
            fill="none" stroke="#4e79a7"
            stroke-width="2" stroke-linejoin="round"/>
  <polyline points="52.0,230.9 71.2,230.5 90.4,230.9 109.5,230.5 128.7,230.5 147.9,230.9 167.1,230.9 186.3,230.5 205.4,231.2 224.6,230.9 243.8,180.8 263.0,226.3 282.2,230.5 301.3,229.7 320.5,224.7 339.7,227.8 358.9,229.7 378.1,230.1 397.2,228.6 416.4,231.2 435.6,231.2 454.8,231.2 473.9,231.2 493.1,231.2 512.3,230.1 531.5,231.2 550.7,231.2 569.8,230.9 589.0,226.7 608.2,230.1 627.4,230.5 646.6,231.6 665.7,184.6 684.9,196.5 704.1,230.1 723.3,231.2 742.5,231.2 761.6,231.2 780.8,230.1 800.0,225.1"
            fill="none" stroke="#f28e2b"
            stroke-width="2" stroke-linejoin="round"
            stroke-dasharray="5,3"/>

  <!-- dots -->
  <circle cx="52.0" cy="228.9" r="3" fill="#4e79a7"/><circle cx="71.2" cy="228.2" r="3" fill="#4e79a7"/><circle cx="90.4" cy="229.7" r="3" fill="#4e79a7"/><circle cx="109.5" cy="205.6" r="3" fill="#4e79a7"/><circle cx="128.7" cy="204.1" r="3" fill="#4e79a7"/><circle cx="147.9" cy="216.0" r="3" fill="#4e79a7"/><circle cx="167.1" cy="217.5" r="3" fill="#4e79a7"/><circle cx="186.3" cy="189.2" r="3" fill="#4e79a7"/><circle cx="205.4" cy="202.2" r="3" fill="#4e79a7"/><circle cx="224.6" cy="209.1" r="3" fill="#4e79a7"/><circle cx="243.8" cy="86.1" r="3" fill="#4e79a7"/><circle cx="263.0" cy="222.1" r="3" fill="#4e79a7"/><circle cx="282.2" cy="180.8" r="3" fill="#4e79a7"/><circle cx="301.3" cy="200.7" r="3" fill="#4e79a7"/><circle cx="320.5" cy="171.6" r="3" fill="#4e79a7"/><circle cx="339.7" cy="204.1" r="3" fill="#4e79a7"/><circle cx="358.9" cy="202.6" r="3" fill="#4e79a7"/><circle cx="378.1" cy="213.3" r="3" fill="#4e79a7"/><circle cx="397.2" cy="223.2" r="3" fill="#4e79a7"/><circle cx="416.4" cy="229.3" r="3" fill="#4e79a7"/><circle cx="435.6" cy="230.1" r="3" fill="#4e79a7"/><circle cx="454.8" cy="224.0" r="3" fill="#4e79a7"/><circle cx="473.9" cy="225.5" r="3" fill="#4e79a7"/><circle cx="493.1" cy="228.9" r="3" fill="#4e79a7"/><circle cx="512.3" cy="223.2" r="3" fill="#4e79a7"/><circle cx="531.5" cy="230.1" r="3" fill="#4e79a7"/><circle cx="550.7" cy="228.2" r="3" fill="#4e79a7"/><circle cx="569.8" cy="223.6" r="3" fill="#4e79a7"/><circle cx="589.0" cy="213.7" r="3" fill="#4e79a7"/><circle cx="608.2" cy="226.7" r="3" fill="#4e79a7"/><circle cx="627.4" cy="223.2" r="3" fill="#4e79a7"/><circle cx="646.6" cy="230.9" r="3" fill="#4e79a7"/><circle cx="665.7" cy="37.2" r="3" fill="#4e79a7"/><circle cx="684.9" cy="28.0" r="3" fill="#4e79a7"/><circle cx="704.1" cy="225.9" r="3" fill="#4e79a7"/><circle cx="723.3" cy="225.1" r="3" fill="#4e79a7"/><circle cx="742.5" cy="221.7" r="3" fill="#4e79a7"/><circle cx="761.6" cy="225.1" r="3" fill="#4e79a7"/><circle cx="780.8" cy="219.0" r="3" fill="#4e79a7"/><circle cx="800.0" cy="172.8" r="3" fill="#4e79a7"/>
  <circle cx="52.0" cy="230.9" r="3" fill="#f28e2b"/><circle cx="71.2" cy="230.5" r="3" fill="#f28e2b"/><circle cx="90.4" cy="230.9" r="3" fill="#f28e2b"/><circle cx="109.5" cy="230.5" r="3" fill="#f28e2b"/><circle cx="128.7" cy="230.5" r="3" fill="#f28e2b"/><circle cx="147.9" cy="230.9" r="3" fill="#f28e2b"/><circle cx="167.1" cy="230.9" r="3" fill="#f28e2b"/><circle cx="186.3" cy="230.5" r="3" fill="#f28e2b"/><circle cx="205.4" cy="231.2" r="3" fill="#f28e2b"/><circle cx="224.6" cy="230.9" r="3" fill="#f28e2b"/><circle cx="243.8" cy="180.8" r="3" fill="#f28e2b"/><circle cx="263.0" cy="226.3" r="3" fill="#f28e2b"/><circle cx="282.2" cy="230.5" r="3" fill="#f28e2b"/><circle cx="301.3" cy="229.7" r="3" fill="#f28e2b"/><circle cx="320.5" cy="224.7" r="3" fill="#f28e2b"/><circle cx="339.7" cy="227.8" r="3" fill="#f28e2b"/><circle cx="358.9" cy="229.7" r="3" fill="#f28e2b"/><circle cx="378.1" cy="230.1" r="3" fill="#f28e2b"/><circle cx="397.2" cy="228.6" r="3" fill="#f28e2b"/><circle cx="416.4" cy="231.2" r="3" fill="#f28e2b"/><circle cx="435.6" cy="231.2" r="3" fill="#f28e2b"/><circle cx="454.8" cy="231.2" r="3" fill="#f28e2b"/><circle cx="473.9" cy="231.2" r="3" fill="#f28e2b"/><circle cx="493.1" cy="231.2" r="3" fill="#f28e2b"/><circle cx="512.3" cy="230.1" r="3" fill="#f28e2b"/><circle cx="531.5" cy="231.2" r="3" fill="#f28e2b"/><circle cx="550.7" cy="231.2" r="3" fill="#f28e2b"/><circle cx="569.8" cy="230.9" r="3" fill="#f28e2b"/><circle cx="589.0" cy="226.7" r="3" fill="#f28e2b"/><circle cx="608.2" cy="230.1" r="3" fill="#f28e2b"/><circle cx="627.4" cy="230.5" r="3" fill="#f28e2b"/><circle cx="646.6" cy="231.6" r="3" fill="#f28e2b"/><circle cx="665.7" cy="184.6" r="3" fill="#f28e2b"/><circle cx="684.9" cy="196.5" r="3" fill="#f28e2b"/><circle cx="704.1" cy="230.1" r="3" fill="#f28e2b"/><circle cx="723.3" cy="231.2" r="3" fill="#f28e2b"/><circle cx="742.5" cy="231.2" r="3" fill="#f28e2b"/><circle cx="761.6" cy="231.2" r="3" fill="#f28e2b"/><circle cx="780.8" cy="230.1" r="3" fill="#f28e2b"/><circle cx="800.0" cy="225.1" r="3" fill="#f28e2b"/>

  <!-- axes -->
  <line x1="52" y1="28" x2="52" y2="232"
        stroke="#cccccc" stroke-width="1"/>
  <line x1="52" y1="232" x2="800" y2="232"
        stroke="#cccccc" stroke-width="1"/>

  <!-- y-axis labels -->
  <text x="47" y="236.0" text-anchor="end" font-size="10" fill="#57606a" font-family="ui-monospace, SFMono-Regular, 'SF Mono', Menlo, monospace">0</text><text x="47" y="197.8" text-anchor="end" font-size="10" fill="#57606a" font-family="ui-monospace, SFMono-Regular, 'SF Mono', Menlo, monospace">100</text><text x="47" y="159.6" text-anchor="end" font-size="10" fill="#57606a" font-family="ui-monospace, SFMono-Regular, 'SF Mono', Menlo, monospace">200</text><text x="47" y="121.4" text-anchor="end" font-size="10" fill="#57606a" font-family="ui-monospace, SFMono-Regular, 'SF Mono', Menlo, monospace">300</text><text x="47" y="83.2" text-anchor="end" font-size="10" fill="#57606a" font-family="ui-monospace, SFMono-Regular, 'SF Mono', Menlo, monospace">400</text><text x="47" y="45.0" text-anchor="end" font-size="10" fill="#57606a" font-family="ui-monospace, SFMono-Regular, 'SF Mono', Menlo, monospace">500</text><text x="47" y="6.8" text-anchor="end" font-size="10" fill="#57606a" font-family="ui-monospace, SFMono-Regular, 'SF Mono', Menlo, monospace">600</text>

  <!-- x-axis labels -->
  <text x="52.0" y="248" text-anchor="middle" font-size="10" fill="#8c959f" font-family="ui-monospace, SFMono-Regular, 'SF Mono', Menlo, monospace">05-11</text><text x="723.3" y="248" text-anchor="middle" font-size="10" fill="#8c959f" font-family="ui-monospace, SFMono-Regular, 'SF Mono', Menlo, monospace">06-15</text><text x="147.9" y="248" text-anchor="middle" font-size="10" fill="#8c959f" font-family="ui-monospace, SFMono-Regular, 'SF Mono', Menlo, monospace">05-16</text><text x="800.0" y="248" text-anchor="middle" font-size="10" fill="#8c959f" font-family="ui-monospace, SFMono-Regular, 'SF Mono', Menlo, monospace">06-19</text><text x="243.8" y="248" text-anchor="middle" font-size="10" fill="#8c959f" font-family="ui-monospace, SFMono-Regular, 'SF Mono', Menlo, monospace">05-21</text><text x="339.7" y="248" text-anchor="middle" font-size="10" fill="#8c959f" font-family="ui-monospace, SFMono-Regular, 'SF Mono', Menlo, monospace">05-26</text><text x="435.6" y="248" text-anchor="middle" font-size="10" fill="#8c959f" font-family="ui-monospace, SFMono-Regular, 'SF Mono', Menlo, monospace">05-31</text><text x="531.5" y="248" text-anchor="middle" font-size="10" fill="#8c959f" font-family="ui-monospace, SFMono-Regular, 'SF Mono', Menlo, monospace">06-05</text><text x="627.4" y="248" text-anchor="middle" font-size="10" fill="#8c959f" font-family="ui-monospace, SFMono-Regular, 'SF Mono', Menlo, monospace">06-10</text>

  <!-- legend -->
  <rect x="60" y="262" width="16" height="3" fill="#4e79a7" rx="1"/><text x="80" y="268" font-size="11" fill="#57606a" font-family="-apple-system, BlinkMacSystemFont, 'Segoe UI', sans-serif">Total clones (3,018)</text><line x1="230" y1="264" x2="246" y2="264" stroke="#f28e2b" stroke-width="2" stroke-dasharray="5,3"/><text x="250" y="268" font-size="11" fill="#57606a" font-family="-apple-system, BlinkMacSystemFont, 'Segoe UI', sans-serif">Unique cloners</text>

</svg>