<svg xmlns="http://www.w3.org/2000/svg" viewBox="0 0 820 280" width="820" height="280">

  <!-- title -->
  <text x="52" y="18" font-size="13" font-weight="600"
        fill="#24292f" font-family="-apple-system, BlinkMacSystemFont, 'Segoe UI', sans-serif"
        >Clone traffic — script-helpers</text>
  <text x="800" y="18" font-size="10" fill="#8c959f"
        font-family="ui-monospace, SFMono-Regular, 'SF Mono', Menlo, monospace" text-anchor="end">2026-06-07</text>

  <!-- grid -->
  <line x1="52" y1="232.0" x2="800" y2="232.0" stroke="#e8e8e8" stroke-width="1"/><line x1="52" y1="189.3" x2="800" y2="189.3" stroke="#e8e8e8" stroke-width="1"/><line x1="52" y1="146.6" x2="800" y2="146.6" stroke="#e8e8e8" stroke-width="1"/><line x1="52" y1="103.8" x2="800" y2="103.8" stroke="#e8e8e8" stroke-width="1"/><line x1="52" y1="61.1" x2="800" y2="61.1" stroke="#e8e8e8" stroke-width="1"/><line x1="52" y1="18.4" x2="800" y2="18.4" stroke="#e8e8e8" stroke-width="1"/>

  <!-- area fill -->
  <path d="M52.0,227.7 L52.0,227.7 L81.9,226.7 L111.8,228.8 L141.8,195.2 L171.7,193.0 L201.6,209.6 L231.5,211.7 L261.4,172.2 L291.4,190.3 L321.3,200.0 L351.2,28.0 L381.1,218.1 L411.0,160.4 L441.0,188.2 L470.9,147.6 L500.8,193.0 L530.7,190.9 L560.6,205.8 L590.6,219.7 L620.5,228.3 L650.4,229.3 L680.3,220.8 L710.2,222.9 L740.2,227.7 L770.1,219.7 L800.0,229.3 L800.0,232.0 L52.0,232.0Z" fill="#4e79a7" opacity="0.12"/>

  <!-- lines -->
  <polyline points="52.0,227.7 81.9,226.7 111.8,228.8 141.8,195.2 171.7,193.0 201.6,209.6 231.5,211.7 261.4,172.2 291.4,190.3 321.3,200.0 351.2,28.0 381.1,218.1 411.0,160.4 441.0,188.2 470.9,147.6 500.8,193.0 530.7,190.9 560.6,205.8 590.6,219.7 620.5,228.3 650.4,229.3 680.3,220.8 710.2,222.9 740.2,227.7 770.1,219.7 800.0,229.3"
            fill="none" stroke="#4e79a7"
            stroke-width="2" stroke-linejoin="round"/>
  <polyline points="52.0,230.4 81.9,229.9 111.8,230.4 141.8,229.9 171.7,229.9 201.6,230.4 231.5,230.4 261.4,229.9 291.4,230.9 321.3,230.4 351.2,160.4 381.1,224.0 411.0,229.9 441.0,228.8 470.9,221.9 500.8,226.1 530.7,228.8 560.6,229.3 590.6,227.2 620.5,230.9 650.4,230.9 680.3,230.9 710.2,230.9 740.2,230.9 770.1,229.3 800.0,230.9"
            fill="none" stroke="#f28e2b"
            stroke-width="2" stroke-linejoin="round"
            stroke-dasharray="5,3"/>

  <!-- dots -->
  <circle cx="52.0" cy="227.7" r="3" fill="#4e79a7"/><circle cx="81.9" cy="226.7" r="3" fill="#4e79a7"/><circle cx="111.8" cy="228.8" r="3" fill="#4e79a7"/><circle cx="141.8" cy="195.2" r="3" fill="#4e79a7"/><circle cx="171.7" cy="193.0" r="3" fill="#4e79a7"/><circle cx="201.6" cy="209.6" r="3" fill="#4e79a7"/><circle cx="231.5" cy="211.7" r="3" fill="#4e79a7"/><circle cx="261.4" cy="172.2" r="3" fill="#4e79a7"/><circle cx="291.4" cy="190.3" r="3" fill="#4e79a7"/><circle cx="321.3" cy="200.0" r="3" fill="#4e79a7"/><circle cx="351.2" cy="28.0" r="3" fill="#4e79a7"/><circle cx="381.1" cy="218.1" r="3" fill="#4e79a7"/><circle cx="411.0" cy="160.4" r="3" fill="#4e79a7"/><circle cx="441.0" cy="188.2" r="3" fill="#4e79a7"/><circle cx="470.9" cy="147.6" r="3" fill="#4e79a7"/><circle cx="500.8" cy="193.0" r="3" fill="#4e79a7"/><circle cx="530.7" cy="190.9" r="3" fill="#4e79a7"/><circle cx="560.6" cy="205.8" r="3" fill="#4e79a7"/><circle cx="590.6" cy="219.7" r="3" fill="#4e79a7"/><circle cx="620.5" cy="228.3" r="3" fill="#4e79a7"/><circle cx="650.4" cy="229.3" r="3" fill="#4e79a7"/><circle cx="680.3" cy="220.8" r="3" fill="#4e79a7"/><circle cx="710.2" cy="222.9" r="3" fill="#4e79a7"/><circle cx="740.2" cy="227.7" r="3" fill="#4e79a7"/><circle cx="770.1" cy="219.7" r="3" fill="#4e79a7"/><circle cx="800.0" cy="229.3" r="3" fill="#4e79a7"/>
  <circle cx="52.0" cy="230.4" r="3" fill="#f28e2b"/><circle cx="81.9" cy="229.9" r="3" fill="#f28e2b"/><circle cx="111.8" cy="230.4" r="3" fill="#f28e2b"/><circle cx="141.8" cy="229.9" r="3" fill="#f28e2b"/><circle cx="171.7" cy="229.9" r="3" fill="#f28e2b"/><circle cx="201.6" cy="230.4" r="3" fill="#f28e2b"/><circle cx="231.5" cy="230.4" r="3" fill="#f28e2b"/><circle cx="261.4" cy="229.9" r="3" fill="#f28e2b"/><circle cx="291.4" cy="230.9" r="3" fill="#f28e2b"/><circle cx="321.3" cy="230.4" r="3" fill="#f28e2b"/><circle cx="351.2" cy="160.4" r="3" fill="#f28e2b"/><circle cx="381.1" cy="224.0" r="3" fill="#f28e2b"/><circle cx="411.0" cy="229.9" r="3" fill="#f28e2b"/><circle cx="441.0" cy="228.8" r="3" fill="#f28e2b"/><circle cx="470.9" cy="221.9" r="3" fill="#f28e2b"/><circle cx="500.8" cy="226.1" r="3" fill="#f28e2b"/><circle cx="530.7" cy="228.8" r="3" fill="#f28e2b"/><circle cx="560.6" cy="229.3" r="3" fill="#f28e2b"/><circle cx="590.6" cy="227.2" r="3" fill="#f28e2b"/><circle cx="620.5" cy="230.9" r="3" fill="#f28e2b"/><circle cx="650.4" cy="230.9" r="3" fill="#f28e2b"/><circle cx="680.3" cy="230.9" r="3" fill="#f28e2b"/><circle cx="710.2" cy="230.9" r="3" fill="#f28e2b"/><circle cx="740.2" cy="230.9" r="3" fill="#f28e2b"/><circle cx="770.1" cy="229.3" r="3" fill="#f28e2b"/><circle cx="800.0" cy="230.9" r="3" fill="#f28e2b"/>

  <!-- axes -->
  <line x1="52" y1="28" x2="52" y2="232"
        stroke="#cccccc" stroke-width="1"/>
  <line x1="52" y1="232" x2="800" y2="232"
        stroke="#cccccc" stroke-width="1"/>

  <!-- y-axis labels -->
  <text x="47" y="236.0" text-anchor="end" font-size="10" fill="#57606a" font-family="ui-monospace, SFMono-Regular, 'SF Mono', Menlo, monospace">0</text><text x="47" y="193.3" text-anchor="end" font-size="10" fill="#57606a" font-family="ui-monospace, SFMono-Regular, 'SF Mono', Menlo, monospace">80</text><text x="47" y="150.6" text-anchor="end" font-size="10" fill="#57606a" font-family="ui-monospace, SFMono-Regular, 'SF Mono', Menlo, monospace">160</text><text x="47" y="107.8" text-anchor="end" font-size="10" fill="#57606a" font-family="ui-monospace, SFMono-Regular, 'SF Mono', Menlo, monospace">240</text><text x="47" y="65.1" text-anchor="end" font-size="10" fill="#57606a" font-family="ui-monospace, SFMono-Regular, 'SF Mono', Menlo, monospace">320</text><text x="47" y="22.4" text-anchor="end" font-size="10" fill="#57606a" font-family="ui-monospace, SFMono-Regular, 'SF Mono', Menlo, monospace">400</text>

  <!-- x-axis labels -->
  <text x="52.0" y="248" text-anchor="middle" font-size="10" fill="#8c959f" font-family="ui-monospace, SFMono-Regular, 'SF Mono', Menlo, monospace">05-11</text><text x="141.8" y="248" text-anchor="middle" font-size="10" fill="#8c959f" font-family="ui-monospace, SFMono-Regular, 'SF Mono', Menlo, monospace">05-14</text><text x="231.5" y="248" text-anchor="middle" font-size="10" fill="#8c959f" font-family="ui-monospace, SFMono-Regular, 'SF Mono', Menlo, monospace">05-17</text><text x="321.3" y="248" text-anchor="middle" font-size="10" fill="#8c959f" font-family="ui-monospace, SFMono-Regular, 'SF Mono', Menlo, monospace">05-20</text><text x="411.0" y="248" text-anchor="middle" font-size="10" fill="#8c959f" font-family="ui-monospace, SFMono-Regular, 'SF Mono', Menlo, monospace">05-23</text><text x="500.8" y="248" text-anchor="middle" font-size="10" fill="#8c959f" font-family="ui-monospace, SFMono-Regular, 'SF Mono', Menlo, monospace">05-26</text><text x="590.6" y="248" text-anchor="middle" font-size="10" fill="#8c959f" font-family="ui-monospace, SFMono-Regular, 'SF Mono', Menlo, monospace">05-29</text><text x="680.3" y="248" text-anchor="middle" font-size="10" fill="#8c959f" font-family="ui-monospace, SFMono-Regular, 'SF Mono', Menlo, monospace">06-01</text><text x="770.1" y="248" text-anchor="middle" font-size="10" fill="#8c959f" font-family="ui-monospace, SFMono-Regular, 'SF Mono', Menlo, monospace">06-04</text><text x="800.0" y="248" text-anchor="middle" font-size="10" fill="#8c959f" font-family="ui-monospace, SFMono-Regular, 'SF Mono', Menlo, monospace">06-05</text>

  <!-- legend -->
  <rect x="60" y="262" width="16" height="3" fill="#4e79a7" rx="1"/><text x="80" y="268" font-size="11" fill="#57606a" font-family="-apple-system, BlinkMacSystemFont, 'Segoe UI', sans-serif">Total clones (1,586)</text><line x1="230" y1="264" x2="246" y2="264" stroke="#f28e2b" stroke-width="2" stroke-dasharray="5,3"/><text x="250" y="268" font-size="11" fill="#57606a" font-family="-apple-system, BlinkMacSystemFont, 'Segoe UI', sans-serif">Unique cloners</text>

</svg>