<svg xmlns="http://www.w3.org/2000/svg" viewBox="0 0 820 280" width="820" height="280">

  <!-- title -->
  <text x="52" y="18" font-size="13" font-weight="600"
        fill="#24292f" font-family="-apple-system, BlinkMacSystemFont, 'Segoe UI', sans-serif"
        >Clone traffic — script-helpers</text>
  <text x="800" y="18" font-size="10" fill="#8c959f"
        font-family="ui-monospace, SFMono-Regular, 'SF Mono', Menlo, monospace" text-anchor="end">2026-07-22</text>

  <!-- grid -->
  <line x1="52" y1="232.0" x2="800" y2="232.0" stroke="#e8e8e8" stroke-width="1"/><line x1="52" y1="193.8" x2="800" y2="193.8" stroke="#e8e8e8" stroke-width="1"/><line x1="52" y1="155.6" x2="800" y2="155.6" stroke="#e8e8e8" stroke-width="1"/><line x1="52" y1="117.4" x2="800" y2="117.4" stroke="#e8e8e8" stroke-width="1"/><line x1="52" y1="79.2" x2="800" y2="79.2" stroke="#e8e8e8" stroke-width="1"/><line x1="52" y1="41.0" x2="800" y2="41.0" stroke="#e8e8e8" stroke-width="1"/><line x1="52" y1="2.8" x2="800" y2="2.8" stroke="#e8e8e8" stroke-width="1"/>

  <!-- area fill -->
  <path d="M52.0,228.9 L52.0,228.9 L62.7,228.2 L73.4,229.7 L84.1,205.6 L94.7,204.1 L105.4,216.0 L116.1,217.5 L126.8,189.2 L137.5,202.2 L148.2,209.1 L158.9,86.1 L169.5,222.1 L180.2,180.8 L190.9,200.7 L201.6,171.6 L212.3,204.1 L223.0,202.6 L233.7,213.3 L244.3,223.2 L255.0,229.3 L265.7,230.1 L276.4,224.0 L287.1,225.5 L297.8,228.9 L308.5,223.2 L319.1,230.1 L329.8,228.2 L340.5,223.6 L351.2,213.7 L361.9,226.7 L372.6,223.2 L383.3,230.9 L393.9,37.2 L404.6,28.0 L415.3,225.9 L426.0,225.1 L436.7,221.7 L447.4,225.1 L458.1,219.0 L468.7,172.8 L479.4,67.0 L490.1,101.0 L500.8,213.3 L511.5,217.9 L522.2,227.8 L532.9,230.9 L543.5,160.9 L554.2,228.9 L564.9,230.9 L575.6,228.9 L586.3,228.2 L597.0,230.1 L607.7,231.6 L618.3,230.9 L629.0,227.4 L639.7,231.6 L650.4,228.2 L661.1,223.6 L671.8,231.2 L682.5,224.7 L693.1,228.6 L703.8,229.3 L714.5,231.6 L725.2,230.5 L735.9,230.1 L746.6,214.4 L757.3,227.0 L767.9,231.6 L778.6,214.0 L789.3,231.2 L800.0,194.9 L800.0,232.0 L52.0,232.0Z" fill="#4e79a7" opacity="0.12"/>

  <!-- lines -->
  <polyline points="52.0,228.9 62.7,228.2 73.4,229.7 84.1,205.6 94.7,204.1 105.4,216.0 116.1,217.5 126.8,189.2 137.5,202.2 148.2,209.1 158.9,86.1 169.5,222.1 180.2,180.8 190.9,200.7 201.6,171.6 212.3,204.1 223.0,202.6 233.7,213.3 244.3,223.2 255.0,229.3 265.7,230.1 276.4,224.0 287.1,225.5 297.8,228.9 308.5,223.2 319.1,230.1 329.8,228.2 340.5,223.6 351.2,213.7 361.9,226.7 372.6,223.2 383.3,230.9 393.9,37.2 404.6,28.0 415.3,225.9 426.0,225.1 436.7,221.7 447.4,225.1 458.1,219.0 468.7,172.8 479.4,67.0 490.1,101.0 500.8,213.3 511.5,217.9 522.2,227.8 532.9,230.9 543.5,160.9 554.2,228.9 564.9,230.9 575.6,228.9 586.3,228.2 597.0,230.1 607.7,231.6 618.3,230.9 629.0,227.4 639.7,231.6 650.4,228.2 661.1,223.6 671.8,231.2 682.5,224.7 693.1,228.6 703.8,229.3 714.5,231.6 725.2,230.5 735.9,230.1 746.6,214.4 757.3,227.0 767.9,231.6 778.6,214.0 789.3,231.2 800.0,194.9"
            fill="none" stroke="#4e79a7"
            stroke-width="2" stroke-linejoin="round"/>
  <polyline points="52.0,230.9 62.7,230.5 73.4,230.9 84.1,230.5 94.7,230.5 105.4,230.9 116.1,230.9 126.8,230.5 137.5,231.2 148.2,230.9 158.9,180.8 169.5,226.3 180.2,230.5 190.9,229.7 201.6,224.7 212.3,227.8 223.0,229.7 233.7,230.1 244.3,228.6 255.0,231.2 265.7,231.2 276.4,231.2 287.1,231.2 297.8,231.2 308.5,230.1 319.1,231.2 329.8,231.2 340.5,230.9 351.2,226.7 361.9,230.1 372.6,230.5 383.3,231.6 393.9,184.6 404.6,196.5 415.3,230.1 426.0,231.2 436.7,231.2 447.4,231.2 458.1,230.1 468.7,225.1 479.4,207.6 490.1,214.0 500.8,225.9 511.5,224.0 522.2,230.1 532.9,230.9 543.5,221.7 554.2,230.5 564.9,231.2 575.6,230.5 586.3,230.5 597.0,231.2 607.7,231.6 618.3,231.2 629.0,230.5 639.7,231.6 650.4,230.5 661.1,231.2 671.8,231.6 682.5,230.1 693.1,231.2 703.8,231.2 714.5,231.6 725.2,230.9 735.9,230.5 746.6,230.1 757.3,231.2 767.9,231.6 778.6,230.9 789.3,231.2 800.0,227.4"
            fill="none" stroke="#f28e2b"
            stroke-width="2" stroke-linejoin="round"
            stroke-dasharray="5,3"/>

  <!-- dots -->
  <circle cx="52.0" cy="228.9" r="3" fill="#4e79a7"/><circle cx="62.7" cy="228.2" r="3" fill="#4e79a7"/><circle cx="73.4" cy="229.7" r="3" fill="#4e79a7"/><circle cx="84.1" cy="205.6" r="3" fill="#4e79a7"/><circle cx="94.7" cy="204.1" r="3" fill="#4e79a7"/><circle cx="105.4" cy="216.0" r="3" fill="#4e79a7"/><circle cx="116.1" cy="217.5" r="3" fill="#4e79a7"/><circle cx="126.8" cy="189.2" r="3" fill="#4e79a7"/><circle cx="137.5" cy="202.2" r="3" fill="#4e79a7"/><circle cx="148.2" cy="209.1" r="3" fill="#4e79a7"/><circle cx="158.9" cy="86.1" r="3" fill="#4e79a7"/><circle cx="169.5" cy="222.1" r="3" fill="#4e79a7"/><circle cx="180.2" cy="180.8" r="3" fill="#4e79a7"/><circle cx="190.9" cy="200.7" r="3" fill="#4e79a7"/><circle cx="201.6" cy="171.6" r="3" fill="#4e79a7"/><circle cx="212.3" cy="204.1" r="3" fill="#4e79a7"/><circle cx="223.0" cy="202.6" r="3" fill="#4e79a7"/><circle cx="233.7" cy="213.3" r="3" fill="#4e79a7"/><circle cx="244.3" cy="223.2" r="3" fill="#4e79a7"/><circle cx="255.0" cy="229.3" r="3" fill="#4e79a7"/><circle cx="265.7" cy="230.1" r="3" fill="#4e79a7"/><circle cx="276.4" cy="224.0" r="3" fill="#4e79a7"/><circle cx="287.1" cy="225.5" r="3" fill="#4e79a7"/><circle cx="297.8" cy="228.9" r="3" fill="#4e79a7"/><circle cx="308.5" cy="223.2" r="3" fill="#4e79a7"/><circle cx="319.1" cy="230.1" r="3" fill="#4e79a7"/><circle cx="329.8" cy="228.2" r="3" fill="#4e79a7"/><circle cx="340.5" cy="223.6" r="3" fill="#4e79a7"/><circle cx="351.2" cy="213.7" r="3" fill="#4e79a7"/><circle cx="361.9" cy="226.7" r="3" fill="#4e79a7"/><circle cx="372.6" cy="223.2" r="3" fill="#4e79a7"/><circle cx="383.3" cy="230.9" r="3" fill="#4e79a7"/><circle cx="393.9" cy="37.2" r="3" fill="#4e79a7"/><circle cx="404.6" cy="28.0" r="3" fill="#4e79a7"/><circle cx="415.3" cy="225.9" r="3" fill="#4e79a7"/><circle cx="426.0" cy="225.1" r="3" fill="#4e79a7"/><circle cx="436.7" cy="221.7" r="3" fill="#4e79a7"/><circle cx="447.4" cy="225.1" r="3" fill="#4e79a7"/><circle cx="458.1" cy="219.0" r="3" fill="#4e79a7"/><circle cx="468.7" cy="172.8" r="3" fill="#4e79a7"/><circle cx="479.4" cy="67.0" r="3" fill="#4e79a7"/><circle cx="490.1" cy="101.0" r="3" fill="#4e79a7"/><circle cx="500.8" cy="213.3" r="3" fill="#4e79a7"/><circle cx="511.5" cy="217.9" r="3" fill="#4e79a7"/><circle cx="522.2" cy="227.8" r="3" fill="#4e79a7"/><circle cx="532.9" cy="230.9" r="3" fill="#4e79a7"/><circle cx="543.5" cy="160.9" r="3" fill="#4e79a7"/><circle cx="554.2" cy="228.9" r="3" fill="#4e79a7"/><circle cx="564.9" cy="230.9" r="3" fill="#4e79a7"/><circle cx="575.6" cy="228.9" r="3" fill="#4e79a7"/><circle cx="586.3" cy="228.2" r="3" fill="#4e79a7"/><circle cx="597.0" cy="230.1" r="3" fill="#4e79a7"/><circle cx="607.7" cy="231.6" r="3" fill="#4e79a7"/><circle cx="618.3" cy="230.9" r="3" fill="#4e79a7"/><circle cx="629.0" cy="227.4" r="3" fill="#4e79a7"/><circle cx="639.7" cy="231.6" r="3" fill="#4e79a7"/><circle cx="650.4" cy="228.2" r="3" fill="#4e79a7"/><circle cx="661.1" cy="223.6" r="3" fill="#4e79a7"/><circle cx="671.8" cy="231.2" r="3" fill="#4e79a7"/><circle cx="682.5" cy="224.7" r="3" fill="#4e79a7"/><circle cx="693.1" cy="228.6" r="3" fill="#4e79a7"/><circle cx="703.8" cy="229.3" r="3" fill="#4e79a7"/><circle cx="714.5" cy="231.6" r="3" fill="#4e79a7"/><circle cx="725.2" cy="230.5" r="3" fill="#4e79a7"/><circle cx="735.9" cy="230.1" r="3" fill="#4e79a7"/><circle cx="746.6" cy="214.4" r="3" fill="#4e79a7"/><circle cx="757.3" cy="227.0" r="3" fill="#4e79a7"/><circle cx="767.9" cy="231.6" r="3" fill="#4e79a7"/><circle cx="778.6" cy="214.0" r="3" fill="#4e79a7"/><circle cx="789.3" cy="231.2" r="3" fill="#4e79a7"/><circle cx="800.0" cy="194.9" r="3" fill="#4e79a7"/>
  <circle cx="52.0" cy="230.9" r="3" fill="#f28e2b"/><circle cx="62.7" cy="230.5" r="3" fill="#f28e2b"/><circle cx="73.4" cy="230.9" r="3" fill="#f28e2b"/><circle cx="84.1" cy="230.5" r="3" fill="#f28e2b"/><circle cx="94.7" cy="230.5" r="3" fill="#f28e2b"/><circle cx="105.4" cy="230.9" r="3" fill="#f28e2b"/><circle cx="116.1" cy="230.9" r="3" fill="#f28e2b"/><circle cx="126.8" cy="230.5" r="3" fill="#f28e2b"/><circle cx="137.5" cy="231.2" r="3" fill="#f28e2b"/><circle cx="148.2" cy="230.9" r="3" fill="#f28e2b"/><circle cx="158.9" cy="180.8" r="3" fill="#f28e2b"/><circle cx="169.5" cy="226.3" r="3" fill="#f28e2b"/><circle cx="180.2" cy="230.5" r="3" fill="#f28e2b"/><circle cx="190.9" cy="229.7" r="3" fill="#f28e2b"/><circle cx="201.6" cy="224.7" r="3" fill="#f28e2b"/><circle cx="212.3" cy="227.8" r="3" fill="#f28e2b"/><circle cx="223.0" cy="229.7" r="3" fill="#f28e2b"/><circle cx="233.7" cy="230.1" r="3" fill="#f28e2b"/><circle cx="244.3" cy="228.6" r="3" fill="#f28e2b"/><circle cx="255.0" cy="231.2" r="3" fill="#f28e2b"/><circle cx="265.7" cy="231.2" r="3" fill="#f28e2b"/><circle cx="276.4" cy="231.2" r="3" fill="#f28e2b"/><circle cx="287.1" cy="231.2" r="3" fill="#f28e2b"/><circle cx="297.8" cy="231.2" r="3" fill="#f28e2b"/><circle cx="308.5" cy="230.1" r="3" fill="#f28e2b"/><circle cx="319.1" cy="231.2" r="3" fill="#f28e2b"/><circle cx="329.8" cy="231.2" r="3" fill="#f28e2b"/><circle cx="340.5" cy="230.9" r="3" fill="#f28e2b"/><circle cx="351.2" cy="226.7" r="3" fill="#f28e2b"/><circle cx="361.9" cy="230.1" r="3" fill="#f28e2b"/><circle cx="372.6" cy="230.5" r="3" fill="#f28e2b"/><circle cx="383.3" cy="231.6" r="3" fill="#f28e2b"/><circle cx="393.9" cy="184.6" r="3" fill="#f28e2b"/><circle cx="404.6" cy="196.5" r="3" fill="#f28e2b"/><circle cx="415.3" cy="230.1" r="3" fill="#f28e2b"/><circle cx="426.0" cy="231.2" r="3" fill="#f28e2b"/><circle cx="436.7" cy="231.2" r="3" fill="#f28e2b"/><circle cx="447.4" cy="231.2" r="3" fill="#f28e2b"/><circle cx="458.1" cy="230.1" r="3" fill="#f28e2b"/><circle cx="468.7" cy="225.1" r="3" fill="#f28e2b"/><circle cx="479.4" cy="207.6" r="3" fill="#f28e2b"/><circle cx="490.1" cy="214.0" r="3" fill="#f28e2b"/><circle cx="500.8" cy="225.9" r="3" fill="#f28e2b"/><circle cx="511.5" cy="224.0" r="3" fill="#f28e2b"/><circle cx="522.2" cy="230.1" r="3" fill="#f28e2b"/><circle cx="532.9" cy="230.9" r="3" fill="#f28e2b"/><circle cx="543.5" cy="221.7" r="3" fill="#f28e2b"/><circle cx="554.2" cy="230.5" r="3" fill="#f28e2b"/><circle cx="564.9" cy="231.2" r="3" fill="#f28e2b"/><circle cx="575.6" cy="230.5" r="3" fill="#f28e2b"/><circle cx="586.3" cy="230.5" r="3" fill="#f28e2b"/><circle cx="597.0" cy="231.2" r="3" fill="#f28e2b"/><circle cx="607.7" cy="231.6" r="3" fill="#f28e2b"/><circle cx="618.3" cy="231.2" r="3" fill="#f28e2b"/><circle cx="629.0" cy="230.5" r="3" fill="#f28e2b"/><circle cx="639.7" cy="231.6" r="3" fill="#f28e2b"/><circle cx="650.4" cy="230.5" r="3" fill="#f28e2b"/><circle cx="661.1" cy="231.2" r="3" fill="#f28e2b"/><circle cx="671.8" cy="231.6" r="3" fill="#f28e2b"/><circle cx="682.5" cy="230.1" r="3" fill="#f28e2b"/><circle cx="693.1" cy="231.2" r="3" fill="#f28e2b"/><circle cx="703.8" cy="231.2" r="3" fill="#f28e2b"/><circle cx="714.5" cy="231.6" r="3" fill="#f28e2b"/><circle cx="725.2" cy="230.9" r="3" fill="#f28e2b"/><circle cx="735.9" cy="230.5" r="3" fill="#f28e2b"/><circle cx="746.6" cy="230.1" r="3" fill="#f28e2b"/><circle cx="757.3" cy="231.2" r="3" fill="#f28e2b"/><circle cx="767.9" cy="231.6" r="3" fill="#f28e2b"/><circle cx="778.6" cy="230.9" r="3" fill="#f28e2b"/><circle cx="789.3" cy="231.2" r="3" fill="#f28e2b"/><circle cx="800.0" cy="227.4" r="3" fill="#f28e2b"/>

  <!-- axes -->
  <line x1="52" y1="28" x2="52" y2="232"
        stroke="#cccccc" stroke-width="1"/>
  <line x1="52" y1="232" x2="800" y2="232"
        stroke="#cccccc" stroke-width="1"/>

  <!-- y-axis labels -->
  <text x="47" y="236.0" text-anchor="end" font-size="10" fill="#57606a" font-family="ui-monospace, SFMono-Regular, 'SF Mono', Menlo, monospace">0</text><text x="47" y="197.8" text-anchor="end" font-size="10" fill="#57606a" font-family="ui-monospace, SFMono-Regular, 'SF Mono', Menlo, monospace">100</text><text x="47" y="159.6" text-anchor="end" font-size="10" fill="#57606a" font-family="ui-monospace, SFMono-Regular, 'SF Mono', Menlo, monospace">200</text><text x="47" y="121.4" text-anchor="end" font-size="10" fill="#57606a" font-family="ui-monospace, SFMono-Regular, 'SF Mono', Menlo, monospace">300</text><text x="47" y="83.2" text-anchor="end" font-size="10" fill="#57606a" font-family="ui-monospace, SFMono-Regular, 'SF Mono', Menlo, monospace">400</text><text x="47" y="45.0" text-anchor="end" font-size="10" fill="#57606a" font-family="ui-monospace, SFMono-Regular, 'SF Mono', Menlo, monospace">500</text><text x="47" y="6.8" text-anchor="end" font-size="10" fill="#57606a" font-family="ui-monospace, SFMono-Regular, 'SF Mono', Menlo, monospace">600</text>

  <!-- x-axis labels -->
  <text x="52.0" y="248" text-anchor="middle" font-size="10" fill="#8c959f" font-family="ui-monospace, SFMono-Regular, 'SF Mono', Menlo, monospace">05-11</text><text x="393.9" y="248" text-anchor="middle" font-size="10" fill="#8c959f" font-family="ui-monospace, SFMono-Regular, 'SF Mono', Menlo, monospace">06-12</text><text x="735.9" y="248" text-anchor="middle" font-size="10" fill="#8c959f" font-family="ui-monospace, SFMono-Regular, 'SF Mono', Menlo, monospace">07-14</text><text x="800.0" y="248" text-anchor="middle" font-size="10" fill="#8c959f" font-family="ui-monospace, SFMono-Regular, 'SF Mono', Menlo, monospace">07-20</text><text x="137.5" y="248" text-anchor="middle" font-size="10" fill="#8c959f" font-family="ui-monospace, SFMono-Regular, 'SF Mono', Menlo, monospace">05-19</text><text x="479.4" y="248" text-anchor="middle" font-size="10" fill="#8c959f" font-family="ui-monospace, SFMono-Regular, 'SF Mono', Menlo, monospace">06-20</text><text x="223.0" y="248" text-anchor="middle" font-size="10" fill="#8c959f" font-family="ui-monospace, SFMono-Regular, 'SF Mono', Menlo, monospace">05-27</text><text x="564.9" y="248" text-anchor="middle" font-size="10" fill="#8c959f" font-family="ui-monospace, SFMono-Regular, 'SF Mono', Menlo, monospace">06-28</text><text x="308.5" y="248" text-anchor="middle" font-size="10" fill="#8c959f" font-family="ui-monospace, SFMono-Regular, 'SF Mono', Menlo, monospace">06-04</text><text x="650.4" y="248" text-anchor="middle" font-size="10" fill="#8c959f" font-family="ui-monospace, SFMono-Regular, 'SF Mono', Menlo, monospace">07-06</text>

  <!-- legend -->
  <rect x="60" y="262" width="16" height="3" fill="#4e79a7" rx="1"/><text x="80" y="268" font-size="11" fill="#57606a" font-family="-apple-system, BlinkMacSystemFont, 'Segoe UI', sans-serif">Total clones (4,415)</text><line x1="230" y1="264" x2="246" y2="264" stroke="#f28e2b" stroke-width="2" stroke-dasharray="5,3"/><text x="250" y="268" font-size="11" fill="#57606a" font-family="-apple-system, BlinkMacSystemFont, 'Segoe UI', sans-serif">Unique cloners</text>

</svg>