<svg xmlns="http://www.w3.org/2000/svg" viewBox="0 0 820 280" width="820" height="280">

  <!-- title -->
  <text x="52" y="18" font-size="13" font-weight="600"
        fill="#24292f" font-family="-apple-system, BlinkMacSystemFont, 'Segoe UI', sans-serif"
        >Clone traffic — script-helpers</text>
  <text x="800" y="18" font-size="10" fill="#8c959f"
        font-family="ui-monospace, SFMono-Regular, 'SF Mono', Menlo, monospace" text-anchor="end">2026-07-14</text>

  <!-- grid -->
  <line x1="52" y1="232.0" x2="800" y2="232.0" stroke="#e8e8e8" stroke-width="1"/><line x1="52" y1="193.8" x2="800" y2="193.8" stroke="#e8e8e8" stroke-width="1"/><line x1="52" y1="155.6" x2="800" y2="155.6" stroke="#e8e8e8" stroke-width="1"/><line x1="52" y1="117.4" x2="800" y2="117.4" stroke="#e8e8e8" stroke-width="1"/><line x1="52" y1="79.2" x2="800" y2="79.2" stroke="#e8e8e8" stroke-width="1"/><line x1="52" y1="41.0" x2="800" y2="41.0" stroke="#e8e8e8" stroke-width="1"/><line x1="52" y1="2.8" x2="800" y2="2.8" stroke="#e8e8e8" stroke-width="1"/>

  <!-- area fill -->
  <path d="M52.0,228.9 L52.0,228.9 L64.1,228.2 L76.1,229.7 L88.2,205.6 L100.3,204.1 L112.3,216.0 L124.4,217.5 L136.5,189.2 L148.5,202.2 L160.6,209.1 L172.6,86.1 L184.7,222.1 L196.8,180.8 L208.8,200.7 L220.9,171.6 L233.0,204.1 L245.0,202.6 L257.1,213.3 L269.2,223.2 L281.2,229.3 L293.3,230.1 L305.4,224.0 L317.4,225.5 L329.5,228.9 L341.5,223.2 L353.6,230.1 L365.7,228.2 L377.7,223.6 L389.8,213.7 L401.9,226.7 L413.9,223.2 L426.0,230.9 L438.1,37.2 L450.1,28.0 L462.2,225.9 L474.3,225.1 L486.3,221.7 L498.4,225.1 L510.5,219.0 L522.5,172.8 L534.6,67.0 L546.6,101.0 L558.7,213.3 L570.8,217.9 L582.8,227.8 L594.9,230.9 L607.0,160.9 L619.0,228.9 L631.1,230.9 L643.2,228.9 L655.2,228.2 L667.3,230.1 L679.4,231.6 L691.4,230.9 L703.5,227.4 L715.5,231.6 L727.6,228.2 L739.7,223.6 L751.7,231.2 L763.8,224.7 L775.9,228.6 L787.9,229.3 L800.0,231.6 L800.0,232.0 L52.0,232.0Z" fill="#4e79a7" opacity="0.12"/>

  <!-- lines -->
  <polyline points="52.0,228.9 64.1,228.2 76.1,229.7 88.2,205.6 100.3,204.1 112.3,216.0 124.4,217.5 136.5,189.2 148.5,202.2 160.6,209.1 172.6,86.1 184.7,222.1 196.8,180.8 208.8,200.7 220.9,171.6 233.0,204.1 245.0,202.6 257.1,213.3 269.2,223.2 281.2,229.3 293.3,230.1 305.4,224.0 317.4,225.5 329.5,228.9 341.5,223.2 353.6,230.1 365.7,228.2 377.7,223.6 389.8,213.7 401.9,226.7 413.9,223.2 426.0,230.9 438.1,37.2 450.1,28.0 462.2,225.9 474.3,225.1 486.3,221.7 498.4,225.1 510.5,219.0 522.5,172.8 534.6,67.0 546.6,101.0 558.7,213.3 570.8,217.9 582.8,227.8 594.9,230.9 607.0,160.9 619.0,228.9 631.1,230.9 643.2,228.9 655.2,228.2 667.3,230.1 679.4,231.6 691.4,230.9 703.5,227.4 715.5,231.6 727.6,228.2 739.7,223.6 751.7,231.2 763.8,224.7 775.9,228.6 787.9,229.3 800.0,231.6"
            fill="none" stroke="#4e79a7"
            stroke-width="2" stroke-linejoin="round"/>
  <polyline points="52.0,230.9 64.1,230.5 76.1,230.9 88.2,230.5 100.3,230.5 112.3,230.9 124.4,230.9 136.5,230.5 148.5,231.2 160.6,230.9 172.6,180.8 184.7,226.3 196.8,230.5 208.8,229.7 220.9,224.7 233.0,227.8 245.0,229.7 257.1,230.1 269.2,228.6 281.2,231.2 293.3,231.2 305.4,231.2 317.4,231.2 329.5,231.2 341.5,230.1 353.6,231.2 365.7,231.2 377.7,230.9 389.8,226.7 401.9,230.1 413.9,230.5 426.0,231.6 438.1,184.6 450.1,196.5 462.2,230.1 474.3,231.2 486.3,231.2 498.4,231.2 510.5,230.1 522.5,225.1 534.6,207.6 546.6,214.0 558.7,225.9 570.8,224.0 582.8,230.1 594.9,230.9 607.0,221.7 619.0,230.5 631.1,231.2 643.2,230.5 655.2,230.5 667.3,231.2 679.4,231.6 691.4,231.2 703.5,230.5 715.5,231.6 727.6,230.5 739.7,231.2 751.7,231.6 763.8,230.1 775.9,231.2 787.9,231.2 800.0,231.6"
            fill="none" stroke="#f28e2b"
            stroke-width="2" stroke-linejoin="round"
            stroke-dasharray="5,3"/>

  <!-- dots -->
  <circle cx="52.0" cy="228.9" r="3" fill="#4e79a7"/><circle cx="64.1" cy="228.2" r="3" fill="#4e79a7"/><circle cx="76.1" cy="229.7" r="3" fill="#4e79a7"/><circle cx="88.2" cy="205.6" r="3" fill="#4e79a7"/><circle cx="100.3" cy="204.1" r="3" fill="#4e79a7"/><circle cx="112.3" cy="216.0" r="3" fill="#4e79a7"/><circle cx="124.4" cy="217.5" r="3" fill="#4e79a7"/><circle cx="136.5" cy="189.2" r="3" fill="#4e79a7"/><circle cx="148.5" cy="202.2" r="3" fill="#4e79a7"/><circle cx="160.6" cy="209.1" r="3" fill="#4e79a7"/><circle cx="172.6" cy="86.1" r="3" fill="#4e79a7"/><circle cx="184.7" cy="222.1" r="3" fill="#4e79a7"/><circle cx="196.8" cy="180.8" r="3" fill="#4e79a7"/><circle cx="208.8" cy="200.7" r="3" fill="#4e79a7"/><circle cx="220.9" cy="171.6" r="3" fill="#4e79a7"/><circle cx="233.0" cy="204.1" r="3" fill="#4e79a7"/><circle cx="245.0" cy="202.6" r="3" fill="#4e79a7"/><circle cx="257.1" cy="213.3" r="3" fill="#4e79a7"/><circle cx="269.2" cy="223.2" r="3" fill="#4e79a7"/><circle cx="281.2" cy="229.3" r="3" fill="#4e79a7"/><circle cx="293.3" cy="230.1" r="3" fill="#4e79a7"/><circle cx="305.4" cy="224.0" r="3" fill="#4e79a7"/><circle cx="317.4" cy="225.5" r="3" fill="#4e79a7"/><circle cx="329.5" cy="228.9" r="3" fill="#4e79a7"/><circle cx="341.5" cy="223.2" r="3" fill="#4e79a7"/><circle cx="353.6" cy="230.1" r="3" fill="#4e79a7"/><circle cx="365.7" cy="228.2" r="3" fill="#4e79a7"/><circle cx="377.7" cy="223.6" r="3" fill="#4e79a7"/><circle cx="389.8" cy="213.7" r="3" fill="#4e79a7"/><circle cx="401.9" cy="226.7" r="3" fill="#4e79a7"/><circle cx="413.9" cy="223.2" r="3" fill="#4e79a7"/><circle cx="426.0" cy="230.9" r="3" fill="#4e79a7"/><circle cx="438.1" cy="37.2" r="3" fill="#4e79a7"/><circle cx="450.1" cy="28.0" r="3" fill="#4e79a7"/><circle cx="462.2" cy="225.9" r="3" fill="#4e79a7"/><circle cx="474.3" cy="225.1" r="3" fill="#4e79a7"/><circle cx="486.3" cy="221.7" r="3" fill="#4e79a7"/><circle cx="498.4" cy="225.1" r="3" fill="#4e79a7"/><circle cx="510.5" cy="219.0" r="3" fill="#4e79a7"/><circle cx="522.5" cy="172.8" r="3" fill="#4e79a7"/><circle cx="534.6" cy="67.0" r="3" fill="#4e79a7"/><circle cx="546.6" cy="101.0" r="3" fill="#4e79a7"/><circle cx="558.7" cy="213.3" r="3" fill="#4e79a7"/><circle cx="570.8" cy="217.9" r="3" fill="#4e79a7"/><circle cx="582.8" cy="227.8" r="3" fill="#4e79a7"/><circle cx="594.9" cy="230.9" r="3" fill="#4e79a7"/><circle cx="607.0" cy="160.9" r="3" fill="#4e79a7"/><circle cx="619.0" cy="228.9" r="3" fill="#4e79a7"/><circle cx="631.1" cy="230.9" r="3" fill="#4e79a7"/><circle cx="643.2" cy="228.9" r="3" fill="#4e79a7"/><circle cx="655.2" cy="228.2" r="3" fill="#4e79a7"/><circle cx="667.3" cy="230.1" r="3" fill="#4e79a7"/><circle cx="679.4" cy="231.6" r="3" fill="#4e79a7"/><circle cx="691.4" cy="230.9" r="3" fill="#4e79a7"/><circle cx="703.5" cy="227.4" r="3" fill="#4e79a7"/><circle cx="715.5" cy="231.6" r="3" fill="#4e79a7"/><circle cx="727.6" cy="228.2" r="3" fill="#4e79a7"/><circle cx="739.7" cy="223.6" r="3" fill="#4e79a7"/><circle cx="751.7" cy="231.2" r="3" fill="#4e79a7"/><circle cx="763.8" cy="224.7" r="3" fill="#4e79a7"/><circle cx="775.9" cy="228.6" r="3" fill="#4e79a7"/><circle cx="787.9" cy="229.3" r="3" fill="#4e79a7"/><circle cx="800.0" cy="231.6" r="3" fill="#4e79a7"/>
  <circle cx="52.0" cy="230.9" r="3" fill="#f28e2b"/><circle cx="64.1" cy="230.5" r="3" fill="#f28e2b"/><circle cx="76.1" cy="230.9" r="3" fill="#f28e2b"/><circle cx="88.2" cy="230.5" r="3" fill="#f28e2b"/><circle cx="100.3" cy="230.5" r="3" fill="#f28e2b"/><circle cx="112.3" cy="230.9" r="3" fill="#f28e2b"/><circle cx="124.4" cy="230.9" r="3" fill="#f28e2b"/><circle cx="136.5" cy="230.5" r="3" fill="#f28e2b"/><circle cx="148.5" cy="231.2" r="3" fill="#f28e2b"/><circle cx="160.6" cy="230.9" r="3" fill="#f28e2b"/><circle cx="172.6" cy="180.8" r="3" fill="#f28e2b"/><circle cx="184.7" cy="226.3" r="3" fill="#f28e2b"/><circle cx="196.8" cy="230.5" r="3" fill="#f28e2b"/><circle cx="208.8" cy="229.7" r="3" fill="#f28e2b"/><circle cx="220.9" cy="224.7" r="3" fill="#f28e2b"/><circle cx="233.0" cy="227.8" r="3" fill="#f28e2b"/><circle cx="245.0" cy="229.7" r="3" fill="#f28e2b"/><circle cx="257.1" cy="230.1" r="3" fill="#f28e2b"/><circle cx="269.2" cy="228.6" r="3" fill="#f28e2b"/><circle cx="281.2" cy="231.2" r="3" fill="#f28e2b"/><circle cx="293.3" cy="231.2" r="3" fill="#f28e2b"/><circle cx="305.4" cy="231.2" r="3" fill="#f28e2b"/><circle cx="317.4" cy="231.2" r="3" fill="#f28e2b"/><circle cx="329.5" cy="231.2" r="3" fill="#f28e2b"/><circle cx="341.5" cy="230.1" r="3" fill="#f28e2b"/><circle cx="353.6" cy="231.2" r="3" fill="#f28e2b"/><circle cx="365.7" cy="231.2" r="3" fill="#f28e2b"/><circle cx="377.7" cy="230.9" r="3" fill="#f28e2b"/><circle cx="389.8" cy="226.7" r="3" fill="#f28e2b"/><circle cx="401.9" cy="230.1" r="3" fill="#f28e2b"/><circle cx="413.9" cy="230.5" r="3" fill="#f28e2b"/><circle cx="426.0" cy="231.6" r="3" fill="#f28e2b"/><circle cx="438.1" cy="184.6" r="3" fill="#f28e2b"/><circle cx="450.1" cy="196.5" r="3" fill="#f28e2b"/><circle cx="462.2" cy="230.1" r="3" fill="#f28e2b"/><circle cx="474.3" cy="231.2" r="3" fill="#f28e2b"/><circle cx="486.3" cy="231.2" r="3" fill="#f28e2b"/><circle cx="498.4" cy="231.2" r="3" fill="#f28e2b"/><circle cx="510.5" cy="230.1" r="3" fill="#f28e2b"/><circle cx="522.5" cy="225.1" r="3" fill="#f28e2b"/><circle cx="534.6" cy="207.6" r="3" fill="#f28e2b"/><circle cx="546.6" cy="214.0" r="3" fill="#f28e2b"/><circle cx="558.7" cy="225.9" r="3" fill="#f28e2b"/><circle cx="570.8" cy="224.0" r="3" fill="#f28e2b"/><circle cx="582.8" cy="230.1" r="3" fill="#f28e2b"/><circle cx="594.9" cy="230.9" r="3" fill="#f28e2b"/><circle cx="607.0" cy="221.7" r="3" fill="#f28e2b"/><circle cx="619.0" cy="230.5" r="3" fill="#f28e2b"/><circle cx="631.1" cy="231.2" r="3" fill="#f28e2b"/><circle cx="643.2" cy="230.5" r="3" fill="#f28e2b"/><circle cx="655.2" cy="230.5" r="3" fill="#f28e2b"/><circle cx="667.3" cy="231.2" r="3" fill="#f28e2b"/><circle cx="679.4" cy="231.6" r="3" fill="#f28e2b"/><circle cx="691.4" cy="231.2" r="3" fill="#f28e2b"/><circle cx="703.5" cy="230.5" r="3" fill="#f28e2b"/><circle cx="715.5" cy="231.6" r="3" fill="#f28e2b"/><circle cx="727.6" cy="230.5" r="3" fill="#f28e2b"/><circle cx="739.7" cy="231.2" r="3" fill="#f28e2b"/><circle cx="751.7" cy="231.6" r="3" fill="#f28e2b"/><circle cx="763.8" cy="230.1" r="3" fill="#f28e2b"/><circle cx="775.9" cy="231.2" r="3" fill="#f28e2b"/><circle cx="787.9" cy="231.2" r="3" fill="#f28e2b"/><circle cx="800.0" cy="231.6" r="3" fill="#f28e2b"/>

  <!-- axes -->
  <line x1="52" y1="28" x2="52" y2="232"
        stroke="#cccccc" stroke-width="1"/>
  <line x1="52" y1="232" x2="800" y2="232"
        stroke="#cccccc" stroke-width="1"/>

  <!-- y-axis labels -->
  <text x="47" y="236.0" text-anchor="end" font-size="10" fill="#57606a" font-family="ui-monospace, SFMono-Regular, 'SF Mono', Menlo, monospace">0</text><text x="47" y="197.8" text-anchor="end" font-size="10" fill="#57606a" font-family="ui-monospace, SFMono-Regular, 'SF Mono', Menlo, monospace">100</text><text x="47" y="159.6" text-anchor="end" font-size="10" fill="#57606a" font-family="ui-monospace, SFMono-Regular, 'SF Mono', Menlo, monospace">200</text><text x="47" y="121.4" text-anchor="end" font-size="10" fill="#57606a" font-family="ui-monospace, SFMono-Regular, 'SF Mono', Menlo, monospace">300</text><text x="47" y="83.2" text-anchor="end" font-size="10" fill="#57606a" font-family="ui-monospace, SFMono-Regular, 'SF Mono', Menlo, monospace">400</text><text x="47" y="45.0" text-anchor="end" font-size="10" fill="#57606a" font-family="ui-monospace, SFMono-Regular, 'SF Mono', Menlo, monospace">500</text><text x="47" y="6.8" text-anchor="end" font-size="10" fill="#57606a" font-family="ui-monospace, SFMono-Regular, 'SF Mono', Menlo, monospace">600</text>

  <!-- x-axis labels -->
  <text x="52.0" y="248" text-anchor="middle" font-size="10" fill="#8c959f" font-family="ui-monospace, SFMono-Regular, 'SF Mono', Menlo, monospace">05-11</text><text x="474.3" y="248" text-anchor="middle" font-size="10" fill="#8c959f" font-family="ui-monospace, SFMono-Regular, 'SF Mono', Menlo, monospace">06-15</text><text x="136.5" y="248" text-anchor="middle" font-size="10" fill="#8c959f" font-family="ui-monospace, SFMono-Regular, 'SF Mono', Menlo, monospace">05-18</text><text x="558.7" y="248" text-anchor="middle" font-size="10" fill="#8c959f" font-family="ui-monospace, SFMono-Regular, 'SF Mono', Menlo, monospace">06-22</text><text x="220.9" y="248" text-anchor="middle" font-size="10" fill="#8c959f" font-family="ui-monospace, SFMono-Regular, 'SF Mono', Menlo, monospace">05-25</text><text x="643.2" y="248" text-anchor="middle" font-size="10" fill="#8c959f" font-family="ui-monospace, SFMono-Regular, 'SF Mono', Menlo, monospace">06-29</text><text x="305.4" y="248" text-anchor="middle" font-size="10" fill="#8c959f" font-family="ui-monospace, SFMono-Regular, 'SF Mono', Menlo, monospace">06-01</text><text x="727.6" y="248" text-anchor="middle" font-size="10" fill="#8c959f" font-family="ui-monospace, SFMono-Regular, 'SF Mono', Menlo, monospace">07-06</text><text x="389.8" y="248" text-anchor="middle" font-size="10" fill="#8c959f" font-family="ui-monospace, SFMono-Regular, 'SF Mono', Menlo, monospace">06-08</text><text x="800.0" y="248" text-anchor="middle" font-size="10" fill="#8c959f" font-family="ui-monospace, SFMono-Regular, 'SF Mono', Menlo, monospace">07-12</text>

  <!-- legend -->
  <rect x="60" y="262" width="16" height="3" fill="#4e79a7" rx="1"/><text x="80" y="268" font-size="11" fill="#57606a" font-family="-apple-system, BlinkMacSystemFont, 'Segoe UI', sans-serif">Total clones (4,200)</text><line x1="230" y1="264" x2="246" y2="264" stroke="#f28e2b" stroke-width="2" stroke-dasharray="5,3"/><text x="250" y="268" font-size="11" fill="#57606a" font-family="-apple-system, BlinkMacSystemFont, 'Segoe UI', sans-serif">Unique cloners</text>

</svg>