<svg xmlns="http://www.w3.org/2000/svg" viewBox="0 0 820 280" width="820" height="280">

  <!-- title -->
  <text x="52" y="18" font-size="13" font-weight="600"
        fill="#24292f" font-family="-apple-system, BlinkMacSystemFont, 'Segoe UI', sans-serif"
        >Clone traffic — script-helpers</text>
  <text x="800" y="18" font-size="10" fill="#8c959f"
        font-family="ui-monospace, SFMono-Regular, 'SF Mono', Menlo, monospace" text-anchor="end">2026-06-05</text>

  <!-- grid -->
  <line x1="52" y1="232.0" x2="800" y2="232.0" stroke="#e8e8e8" stroke-width="1"/><line x1="52" y1="189.3" x2="800" y2="189.3" stroke="#e8e8e8" stroke-width="1"/><line x1="52" y1="146.6" x2="800" y2="146.6" stroke="#e8e8e8" stroke-width="1"/><line x1="52" y1="103.8" x2="800" y2="103.8" stroke="#e8e8e8" stroke-width="1"/><line x1="52" y1="61.1" x2="800" y2="61.1" stroke="#e8e8e8" stroke-width="1"/><line x1="52" y1="18.4" x2="800" y2="18.4" stroke="#e8e8e8" stroke-width="1"/>

  <!-- area fill -->
  <path d="M52.0,227.7 L52.0,227.7 L84.5,226.7 L117.0,228.8 L149.6,195.2 L182.1,193.0 L214.6,209.6 L247.1,211.7 L279.7,172.2 L312.2,190.3 L344.7,200.0 L377.2,28.0 L409.7,218.1 L442.3,160.4 L474.8,188.2 L507.3,147.6 L539.8,193.0 L572.3,190.9 L604.9,205.8 L637.4,219.7 L669.9,228.3 L702.4,229.3 L735.0,220.8 L767.5,222.9 L800.0,227.7 L800.0,232.0 L52.0,232.0Z" fill="#4e79a7" opacity="0.12"/>

  <!-- lines -->
  <polyline points="52.0,227.7 84.5,226.7 117.0,228.8 149.6,195.2 182.1,193.0 214.6,209.6 247.1,211.7 279.7,172.2 312.2,190.3 344.7,200.0 377.2,28.0 409.7,218.1 442.3,160.4 474.8,188.2 507.3,147.6 539.8,193.0 572.3,190.9 604.9,205.8 637.4,219.7 669.9,228.3 702.4,229.3 735.0,220.8 767.5,222.9 800.0,227.7"
            fill="none" stroke="#4e79a7"
            stroke-width="2" stroke-linejoin="round"/>
  <polyline points="52.0,230.4 84.5,229.9 117.0,230.4 149.6,229.9 182.1,229.9 214.6,230.4 247.1,230.4 279.7,229.9 312.2,230.9 344.7,230.4 377.2,160.4 409.7,224.0 442.3,229.9 474.8,228.8 507.3,221.9 539.8,226.1 572.3,228.8 604.9,229.3 637.4,227.2 669.9,230.9 702.4,230.9 735.0,230.9 767.5,230.9 800.0,230.9"
            fill="none" stroke="#f28e2b"
            stroke-width="2" stroke-linejoin="round"
            stroke-dasharray="5,3"/>

  <!-- dots -->
  <circle cx="52.0" cy="227.7" r="3" fill="#4e79a7"/><circle cx="84.5" cy="226.7" r="3" fill="#4e79a7"/><circle cx="117.0" cy="228.8" r="3" fill="#4e79a7"/><circle cx="149.6" cy="195.2" r="3" fill="#4e79a7"/><circle cx="182.1" cy="193.0" r="3" fill="#4e79a7"/><circle cx="214.6" cy="209.6" r="3" fill="#4e79a7"/><circle cx="247.1" cy="211.7" r="3" fill="#4e79a7"/><circle cx="279.7" cy="172.2" r="3" fill="#4e79a7"/><circle cx="312.2" cy="190.3" r="3" fill="#4e79a7"/><circle cx="344.7" cy="200.0" r="3" fill="#4e79a7"/><circle cx="377.2" cy="28.0" r="3" fill="#4e79a7"/><circle cx="409.7" cy="218.1" r="3" fill="#4e79a7"/><circle cx="442.3" cy="160.4" r="3" fill="#4e79a7"/><circle cx="474.8" cy="188.2" r="3" fill="#4e79a7"/><circle cx="507.3" cy="147.6" r="3" fill="#4e79a7"/><circle cx="539.8" cy="193.0" r="3" fill="#4e79a7"/><circle cx="572.3" cy="190.9" r="3" fill="#4e79a7"/><circle cx="604.9" cy="205.8" r="3" fill="#4e79a7"/><circle cx="637.4" cy="219.7" r="3" fill="#4e79a7"/><circle cx="669.9" cy="228.3" r="3" fill="#4e79a7"/><circle cx="702.4" cy="229.3" r="3" fill="#4e79a7"/><circle cx="735.0" cy="220.8" r="3" fill="#4e79a7"/><circle cx="767.5" cy="222.9" r="3" fill="#4e79a7"/><circle cx="800.0" cy="227.7" r="3" fill="#4e79a7"/>
  <circle cx="52.0" cy="230.4" r="3" fill="#f28e2b"/><circle cx="84.5" cy="229.9" r="3" fill="#f28e2b"/><circle cx="117.0" cy="230.4" r="3" fill="#f28e2b"/><circle cx="149.6" cy="229.9" r="3" fill="#f28e2b"/><circle cx="182.1" cy="229.9" r="3" fill="#f28e2b"/><circle cx="214.6" cy="230.4" r="3" fill="#f28e2b"/><circle cx="247.1" cy="230.4" r="3" fill="#f28e2b"/><circle cx="279.7" cy="229.9" r="3" fill="#f28e2b"/><circle cx="312.2" cy="230.9" r="3" fill="#f28e2b"/><circle cx="344.7" cy="230.4" r="3" fill="#f28e2b"/><circle cx="377.2" cy="160.4" r="3" fill="#f28e2b"/><circle cx="409.7" cy="224.0" r="3" fill="#f28e2b"/><circle cx="442.3" cy="229.9" r="3" fill="#f28e2b"/><circle cx="474.8" cy="228.8" r="3" fill="#f28e2b"/><circle cx="507.3" cy="221.9" r="3" fill="#f28e2b"/><circle cx="539.8" cy="226.1" r="3" fill="#f28e2b"/><circle cx="572.3" cy="228.8" r="3" fill="#f28e2b"/><circle cx="604.9" cy="229.3" r="3" fill="#f28e2b"/><circle cx="637.4" cy="227.2" r="3" fill="#f28e2b"/><circle cx="669.9" cy="230.9" r="3" fill="#f28e2b"/><circle cx="702.4" cy="230.9" r="3" fill="#f28e2b"/><circle cx="735.0" cy="230.9" r="3" fill="#f28e2b"/><circle cx="767.5" cy="230.9" r="3" fill="#f28e2b"/><circle cx="800.0" cy="230.9" r="3" fill="#f28e2b"/>

  <!-- axes -->
  <line x1="52" y1="28" x2="52" y2="232"
        stroke="#cccccc" stroke-width="1"/>
  <line x1="52" y1="232" x2="800" y2="232"
        stroke="#cccccc" stroke-width="1"/>

  <!-- y-axis labels -->
  <text x="47" y="236.0" text-anchor="end" font-size="10" fill="#57606a" font-family="ui-monospace, SFMono-Regular, 'SF Mono', Menlo, monospace">0</text><text x="47" y="193.3" text-anchor="end" font-size="10" fill="#57606a" font-family="ui-monospace, SFMono-Regular, 'SF Mono', Menlo, monospace">80</text><text x="47" y="150.6" text-anchor="end" font-size="10" fill="#57606a" font-family="ui-monospace, SFMono-Regular, 'SF Mono', Menlo, monospace">160</text><text x="47" y="107.8" text-anchor="end" font-size="10" fill="#57606a" font-family="ui-monospace, SFMono-Regular, 'SF Mono', Menlo, monospace">240</text><text x="47" y="65.1" text-anchor="end" font-size="10" fill="#57606a" font-family="ui-monospace, SFMono-Regular, 'SF Mono', Menlo, monospace">320</text><text x="47" y="22.4" text-anchor="end" font-size="10" fill="#57606a" font-family="ui-monospace, SFMono-Regular, 'SF Mono', Menlo, monospace">400</text>

  <!-- x-axis labels -->
  <text x="52.0" y="248" text-anchor="middle" font-size="10" fill="#8c959f" font-family="ui-monospace, SFMono-Regular, 'SF Mono', Menlo, monospace">05-11</text><text x="149.6" y="248" text-anchor="middle" font-size="10" fill="#8c959f" font-family="ui-monospace, SFMono-Regular, 'SF Mono', Menlo, monospace">05-14</text><text x="247.1" y="248" text-anchor="middle" font-size="10" fill="#8c959f" font-family="ui-monospace, SFMono-Regular, 'SF Mono', Menlo, monospace">05-17</text><text x="344.7" y="248" text-anchor="middle" font-size="10" fill="#8c959f" font-family="ui-monospace, SFMono-Regular, 'SF Mono', Menlo, monospace">05-20</text><text x="442.3" y="248" text-anchor="middle" font-size="10" fill="#8c959f" font-family="ui-monospace, SFMono-Regular, 'SF Mono', Menlo, monospace">05-23</text><text x="539.8" y="248" text-anchor="middle" font-size="10" fill="#8c959f" font-family="ui-monospace, SFMono-Regular, 'SF Mono', Menlo, monospace">05-26</text><text x="637.4" y="248" text-anchor="middle" font-size="10" fill="#8c959f" font-family="ui-monospace, SFMono-Regular, 'SF Mono', Menlo, monospace">05-29</text><text x="735.0" y="248" text-anchor="middle" font-size="10" fill="#8c959f" font-family="ui-monospace, SFMono-Regular, 'SF Mono', Menlo, monospace">06-01</text><text x="800.0" y="248" text-anchor="middle" font-size="10" fill="#8c959f" font-family="ui-monospace, SFMono-Regular, 'SF Mono', Menlo, monospace">06-03</text>

  <!-- legend -->
  <rect x="60" y="262" width="16" height="3" fill="#4e79a7" rx="1"/><text x="80" y="268" font-size="11" fill="#57606a" font-family="-apple-system, BlinkMacSystemFont, 'Segoe UI', sans-serif">Total clones (1,558)</text><line x1="230" y1="264" x2="246" y2="264" stroke="#f28e2b" stroke-width="2" stroke-dasharray="5,3"/><text x="250" y="268" font-size="11" fill="#57606a" font-family="-apple-system, BlinkMacSystemFont, 'Segoe UI', sans-serif">Unique cloners</text>

</svg>