<svg xmlns="http://www.w3.org/2000/svg" viewBox="0 0 820 280" width="820" height="280">

  <!-- title -->
  <text x="52" y="18" font-size="13" font-weight="600"
        fill="#24292f" font-family="-apple-system, BlinkMacSystemFont, 'Segoe UI', sans-serif"
        >Clone traffic — script-helpers</text>
  <text x="800" y="18" font-size="10" fill="#8c959f"
        font-family="ui-monospace, SFMono-Regular, 'SF Mono', Menlo, monospace" text-anchor="end">2026-07-03</text>

  <!-- grid -->
  <line x1="52" y1="232.0" x2="800" y2="232.0" stroke="#e8e8e8" stroke-width="1"/><line x1="52" y1="193.8" x2="800" y2="193.8" stroke="#e8e8e8" stroke-width="1"/><line x1="52" y1="155.6" x2="800" y2="155.6" stroke="#e8e8e8" stroke-width="1"/><line x1="52" y1="117.4" x2="800" y2="117.4" stroke="#e8e8e8" stroke-width="1"/><line x1="52" y1="79.2" x2="800" y2="79.2" stroke="#e8e8e8" stroke-width="1"/><line x1="52" y1="41.0" x2="800" y2="41.0" stroke="#e8e8e8" stroke-width="1"/><line x1="52" y1="2.8" x2="800" y2="2.8" stroke="#e8e8e8" stroke-width="1"/>

  <!-- area fill -->
  <path d="M52.0,228.9 L52.0,228.9 L66.7,228.2 L81.3,229.7 L96.0,205.6 L110.7,204.1 L125.3,216.0 L140.0,217.5 L154.7,189.2 L169.3,202.2 L184.0,209.1 L198.7,86.1 L213.3,222.1 L228.0,180.8 L242.7,200.7 L257.3,171.6 L272.0,204.1 L286.7,202.6 L301.3,213.3 L316.0,223.2 L330.7,229.3 L345.3,230.1 L360.0,224.0 L374.7,225.5 L389.3,228.9 L404.0,223.2 L418.7,230.1 L433.3,228.2 L448.0,223.6 L462.7,213.7 L477.3,226.7 L492.0,223.2 L506.7,230.9 L521.3,37.2 L536.0,28.0 L550.7,225.9 L565.3,225.1 L580.0,221.7 L594.7,225.1 L609.3,219.0 L624.0,172.8 L638.7,67.0 L653.3,101.0 L668.0,213.3 L682.7,217.9 L697.3,227.8 L712.0,230.9 L726.7,160.9 L741.3,228.9 L756.0,230.9 L770.7,228.9 L785.3,228.2 L800.0,230.1 L800.0,232.0 L52.0,232.0Z" fill="#4e79a7" opacity="0.12"/>

  <!-- lines -->
  <polyline points="52.0,228.9 66.7,228.2 81.3,229.7 96.0,205.6 110.7,204.1 125.3,216.0 140.0,217.5 154.7,189.2 169.3,202.2 184.0,209.1 198.7,86.1 213.3,222.1 228.0,180.8 242.7,200.7 257.3,171.6 272.0,204.1 286.7,202.6 301.3,213.3 316.0,223.2 330.7,229.3 345.3,230.1 360.0,224.0 374.7,225.5 389.3,228.9 404.0,223.2 418.7,230.1 433.3,228.2 448.0,223.6 462.7,213.7 477.3,226.7 492.0,223.2 506.7,230.9 521.3,37.2 536.0,28.0 550.7,225.9 565.3,225.1 580.0,221.7 594.7,225.1 609.3,219.0 624.0,172.8 638.7,67.0 653.3,101.0 668.0,213.3 682.7,217.9 697.3,227.8 712.0,230.9 726.7,160.9 741.3,228.9 756.0,230.9 770.7,228.9 785.3,228.2 800.0,230.1"
            fill="none" stroke="#4e79a7"
            stroke-width="2" stroke-linejoin="round"/>
  <polyline points="52.0,230.9 66.7,230.5 81.3,230.9 96.0,230.5 110.7,230.5 125.3,230.9 140.0,230.9 154.7,230.5 169.3,231.2 184.0,230.9 198.7,180.8 213.3,226.3 228.0,230.5 242.7,229.7 257.3,224.7 272.0,227.8 286.7,229.7 301.3,230.1 316.0,228.6 330.7,231.2 345.3,231.2 360.0,231.2 374.7,231.2 389.3,231.2 404.0,230.1 418.7,231.2 433.3,231.2 448.0,230.9 462.7,226.7 477.3,230.1 492.0,230.5 506.7,231.6 521.3,184.6 536.0,196.5 550.7,230.1 565.3,231.2 580.0,231.2 594.7,231.2 609.3,230.1 624.0,225.1 638.7,207.6 653.3,214.0 668.0,225.9 682.7,224.0 697.3,230.1 712.0,230.9 726.7,221.7 741.3,230.5 756.0,231.2 770.7,230.5 785.3,230.5 800.0,231.2"
            fill="none" stroke="#f28e2b"
            stroke-width="2" stroke-linejoin="round"
            stroke-dasharray="5,3"/>

  <!-- dots -->
  <circle cx="52.0" cy="228.9" r="3" fill="#4e79a7"/><circle cx="66.7" cy="228.2" r="3" fill="#4e79a7"/><circle cx="81.3" cy="229.7" r="3" fill="#4e79a7"/><circle cx="96.0" cy="205.6" r="3" fill="#4e79a7"/><circle cx="110.7" cy="204.1" r="3" fill="#4e79a7"/><circle cx="125.3" cy="216.0" r="3" fill="#4e79a7"/><circle cx="140.0" cy="217.5" r="3" fill="#4e79a7"/><circle cx="154.7" cy="189.2" r="3" fill="#4e79a7"/><circle cx="169.3" cy="202.2" r="3" fill="#4e79a7"/><circle cx="184.0" cy="209.1" r="3" fill="#4e79a7"/><circle cx="198.7" cy="86.1" r="3" fill="#4e79a7"/><circle cx="213.3" cy="222.1" r="3" fill="#4e79a7"/><circle cx="228.0" cy="180.8" r="3" fill="#4e79a7"/><circle cx="242.7" cy="200.7" r="3" fill="#4e79a7"/><circle cx="257.3" cy="171.6" r="3" fill="#4e79a7"/><circle cx="272.0" cy="204.1" r="3" fill="#4e79a7"/><circle cx="286.7" cy="202.6" r="3" fill="#4e79a7"/><circle cx="301.3" cy="213.3" r="3" fill="#4e79a7"/><circle cx="316.0" cy="223.2" r="3" fill="#4e79a7"/><circle cx="330.7" cy="229.3" r="3" fill="#4e79a7"/><circle cx="345.3" cy="230.1" r="3" fill="#4e79a7"/><circle cx="360.0" cy="224.0" r="3" fill="#4e79a7"/><circle cx="374.7" cy="225.5" r="3" fill="#4e79a7"/><circle cx="389.3" cy="228.9" r="3" fill="#4e79a7"/><circle cx="404.0" cy="223.2" r="3" fill="#4e79a7"/><circle cx="418.7" cy="230.1" r="3" fill="#4e79a7"/><circle cx="433.3" cy="228.2" r="3" fill="#4e79a7"/><circle cx="448.0" cy="223.6" r="3" fill="#4e79a7"/><circle cx="462.7" cy="213.7" r="3" fill="#4e79a7"/><circle cx="477.3" cy="226.7" r="3" fill="#4e79a7"/><circle cx="492.0" cy="223.2" r="3" fill="#4e79a7"/><circle cx="506.7" cy="230.9" r="3" fill="#4e79a7"/><circle cx="521.3" cy="37.2" r="3" fill="#4e79a7"/><circle cx="536.0" cy="28.0" r="3" fill="#4e79a7"/><circle cx="550.7" cy="225.9" r="3" fill="#4e79a7"/><circle cx="565.3" cy="225.1" r="3" fill="#4e79a7"/><circle cx="580.0" cy="221.7" r="3" fill="#4e79a7"/><circle cx="594.7" cy="225.1" r="3" fill="#4e79a7"/><circle cx="609.3" cy="219.0" r="3" fill="#4e79a7"/><circle cx="624.0" cy="172.8" r="3" fill="#4e79a7"/><circle cx="638.7" cy="67.0" r="3" fill="#4e79a7"/><circle cx="653.3" cy="101.0" r="3" fill="#4e79a7"/><circle cx="668.0" cy="213.3" r="3" fill="#4e79a7"/><circle cx="682.7" cy="217.9" r="3" fill="#4e79a7"/><circle cx="697.3" cy="227.8" r="3" fill="#4e79a7"/><circle cx="712.0" cy="230.9" r="3" fill="#4e79a7"/><circle cx="726.7" cy="160.9" r="3" fill="#4e79a7"/><circle cx="741.3" cy="228.9" r="3" fill="#4e79a7"/><circle cx="756.0" cy="230.9" r="3" fill="#4e79a7"/><circle cx="770.7" cy="228.9" r="3" fill="#4e79a7"/><circle cx="785.3" cy="228.2" r="3" fill="#4e79a7"/><circle cx="800.0" cy="230.1" r="3" fill="#4e79a7"/>
  <circle cx="52.0" cy="230.9" r="3" fill="#f28e2b"/><circle cx="66.7" cy="230.5" r="3" fill="#f28e2b"/><circle cx="81.3" cy="230.9" r="3" fill="#f28e2b"/><circle cx="96.0" cy="230.5" r="3" fill="#f28e2b"/><circle cx="110.7" cy="230.5" r="3" fill="#f28e2b"/><circle cx="125.3" cy="230.9" r="3" fill="#f28e2b"/><circle cx="140.0" cy="230.9" r="3" fill="#f28e2b"/><circle cx="154.7" cy="230.5" r="3" fill="#f28e2b"/><circle cx="169.3" cy="231.2" r="3" fill="#f28e2b"/><circle cx="184.0" cy="230.9" r="3" fill="#f28e2b"/><circle cx="198.7" cy="180.8" r="3" fill="#f28e2b"/><circle cx="213.3" cy="226.3" r="3" fill="#f28e2b"/><circle cx="228.0" cy="230.5" r="3" fill="#f28e2b"/><circle cx="242.7" cy="229.7" r="3" fill="#f28e2b"/><circle cx="257.3" cy="224.7" r="3" fill="#f28e2b"/><circle cx="272.0" cy="227.8" r="3" fill="#f28e2b"/><circle cx="286.7" cy="229.7" r="3" fill="#f28e2b"/><circle cx="301.3" cy="230.1" r="3" fill="#f28e2b"/><circle cx="316.0" cy="228.6" r="3" fill="#f28e2b"/><circle cx="330.7" cy="231.2" r="3" fill="#f28e2b"/><circle cx="345.3" cy="231.2" r="3" fill="#f28e2b"/><circle cx="360.0" cy="231.2" r="3" fill="#f28e2b"/><circle cx="374.7" cy="231.2" r="3" fill="#f28e2b"/><circle cx="389.3" cy="231.2" r="3" fill="#f28e2b"/><circle cx="404.0" cy="230.1" r="3" fill="#f28e2b"/><circle cx="418.7" cy="231.2" r="3" fill="#f28e2b"/><circle cx="433.3" cy="231.2" r="3" fill="#f28e2b"/><circle cx="448.0" cy="230.9" r="3" fill="#f28e2b"/><circle cx="462.7" cy="226.7" r="3" fill="#f28e2b"/><circle cx="477.3" cy="230.1" r="3" fill="#f28e2b"/><circle cx="492.0" cy="230.5" r="3" fill="#f28e2b"/><circle cx="506.7" cy="231.6" r="3" fill="#f28e2b"/><circle cx="521.3" cy="184.6" r="3" fill="#f28e2b"/><circle cx="536.0" cy="196.5" r="3" fill="#f28e2b"/><circle cx="550.7" cy="230.1" r="3" fill="#f28e2b"/><circle cx="565.3" cy="231.2" r="3" fill="#f28e2b"/><circle cx="580.0" cy="231.2" r="3" fill="#f28e2b"/><circle cx="594.7" cy="231.2" r="3" fill="#f28e2b"/><circle cx="609.3" cy="230.1" r="3" fill="#f28e2b"/><circle cx="624.0" cy="225.1" r="3" fill="#f28e2b"/><circle cx="638.7" cy="207.6" r="3" fill="#f28e2b"/><circle cx="653.3" cy="214.0" r="3" fill="#f28e2b"/><circle cx="668.0" cy="225.9" r="3" fill="#f28e2b"/><circle cx="682.7" cy="224.0" r="3" fill="#f28e2b"/><circle cx="697.3" cy="230.1" r="3" fill="#f28e2b"/><circle cx="712.0" cy="230.9" r="3" fill="#f28e2b"/><circle cx="726.7" cy="221.7" r="3" fill="#f28e2b"/><circle cx="741.3" cy="230.5" r="3" fill="#f28e2b"/><circle cx="756.0" cy="231.2" r="3" fill="#f28e2b"/><circle cx="770.7" cy="230.5" r="3" fill="#f28e2b"/><circle cx="785.3" cy="230.5" r="3" fill="#f28e2b"/><circle cx="800.0" cy="231.2" r="3" fill="#f28e2b"/>

  <!-- axes -->
  <line x1="52" y1="28" x2="52" y2="232"
        stroke="#cccccc" stroke-width="1"/>
  <line x1="52" y1="232" x2="800" y2="232"
        stroke="#cccccc" stroke-width="1"/>

  <!-- y-axis labels -->
  <text x="47" y="236.0" text-anchor="end" font-size="10" fill="#57606a" font-family="ui-monospace, SFMono-Regular, 'SF Mono', Menlo, monospace">0</text><text x="47" y="197.8" text-anchor="end" font-size="10" fill="#57606a" font-family="ui-monospace, SFMono-Regular, 'SF Mono', Menlo, monospace">100</text><text x="47" y="159.6" text-anchor="end" font-size="10" fill="#57606a" font-family="ui-monospace, SFMono-Regular, 'SF Mono', Menlo, monospace">200</text><text x="47" y="121.4" text-anchor="end" font-size="10" fill="#57606a" font-family="ui-monospace, SFMono-Regular, 'SF Mono', Menlo, monospace">300</text><text x="47" y="83.2" text-anchor="end" font-size="10" fill="#57606a" font-family="ui-monospace, SFMono-Regular, 'SF Mono', Menlo, monospace">400</text><text x="47" y="45.0" text-anchor="end" font-size="10" fill="#57606a" font-family="ui-monospace, SFMono-Regular, 'SF Mono', Menlo, monospace">500</text><text x="47" y="6.8" text-anchor="end" font-size="10" fill="#57606a" font-family="ui-monospace, SFMono-Regular, 'SF Mono', Menlo, monospace">600</text>

  <!-- x-axis labels -->
  <text x="52.0" y="248" text-anchor="middle" font-size="10" fill="#8c959f" font-family="ui-monospace, SFMono-Regular, 'SF Mono', Menlo, monospace">05-11</text><text x="580.0" y="248" text-anchor="middle" font-size="10" fill="#8c959f" font-family="ui-monospace, SFMono-Regular, 'SF Mono', Menlo, monospace">06-16</text><text x="140.0" y="248" text-anchor="middle" font-size="10" fill="#8c959f" font-family="ui-monospace, SFMono-Regular, 'SF Mono', Menlo, monospace">05-17</text><text x="668.0" y="248" text-anchor="middle" font-size="10" fill="#8c959f" font-family="ui-monospace, SFMono-Regular, 'SF Mono', Menlo, monospace">06-22</text><text x="228.0" y="248" text-anchor="middle" font-size="10" fill="#8c959f" font-family="ui-monospace, SFMono-Regular, 'SF Mono', Menlo, monospace">05-23</text><text x="756.0" y="248" text-anchor="middle" font-size="10" fill="#8c959f" font-family="ui-monospace, SFMono-Regular, 'SF Mono', Menlo, monospace">06-28</text><text x="316.0" y="248" text-anchor="middle" font-size="10" fill="#8c959f" font-family="ui-monospace, SFMono-Regular, 'SF Mono', Menlo, monospace">05-29</text><text x="800.0" y="248" text-anchor="middle" font-size="10" fill="#8c959f" font-family="ui-monospace, SFMono-Regular, 'SF Mono', Menlo, monospace">07-01</text><text x="404.0" y="248" text-anchor="middle" font-size="10" fill="#8c959f" font-family="ui-monospace, SFMono-Regular, 'SF Mono', Menlo, monospace">06-04</text><text x="492.0" y="248" text-anchor="middle" font-size="10" fill="#8c959f" font-family="ui-monospace, SFMono-Regular, 'SF Mono', Menlo, monospace">06-10</text>

  <!-- legend -->
  <rect x="60" y="262" width="16" height="3" fill="#4e79a7" rx="1"/><text x="80" y="268" font-size="11" fill="#57606a" font-family="-apple-system, BlinkMacSystemFont, 'Segoe UI', sans-serif">Total clones (4,113)</text><line x1="230" y1="264" x2="246" y2="264" stroke="#f28e2b" stroke-width="2" stroke-dasharray="5,3"/><text x="250" y="268" font-size="11" fill="#57606a" font-family="-apple-system, BlinkMacSystemFont, 'Segoe UI', sans-serif">Unique cloners</text>

</svg>