<svg xmlns="http://www.w3.org/2000/svg" viewBox="0 0 820 280" width="820" height="280">

  <!-- title -->
  <text x="52" y="18" font-size="13" font-weight="600"
        fill="#24292f" font-family="-apple-system, BlinkMacSystemFont, 'Segoe UI', sans-serif"
        >Clone traffic — script-helpers</text>
  <text x="800" y="18" font-size="10" fill="#8c959f"
        font-family="ui-monospace, SFMono-Regular, 'SF Mono', Menlo, monospace" text-anchor="end">2026-06-17</text>

  <!-- grid -->
  <line x1="52" y1="232.0" x2="800" y2="232.0" stroke="#e8e8e8" stroke-width="1"/><line x1="52" y1="193.8" x2="800" y2="193.8" stroke="#e8e8e8" stroke-width="1"/><line x1="52" y1="155.6" x2="800" y2="155.6" stroke="#e8e8e8" stroke-width="1"/><line x1="52" y1="117.4" x2="800" y2="117.4" stroke="#e8e8e8" stroke-width="1"/><line x1="52" y1="79.2" x2="800" y2="79.2" stroke="#e8e8e8" stroke-width="1"/><line x1="52" y1="41.0" x2="800" y2="41.0" stroke="#e8e8e8" stroke-width="1"/><line x1="52" y1="2.8" x2="800" y2="2.8" stroke="#e8e8e8" stroke-width="1"/>

  <!-- area fill -->
  <path d="M52.0,228.9 L52.0,228.9 L73.4,228.2 L94.7,229.7 L116.1,205.6 L137.5,204.1 L158.9,216.0 L180.2,217.5 L201.6,189.2 L223.0,202.2 L244.3,209.1 L265.7,86.1 L287.1,222.1 L308.5,180.8 L329.8,200.7 L351.2,171.6 L372.6,204.1 L393.9,202.6 L415.3,213.3 L436.7,223.2 L458.1,229.3 L479.4,230.1 L500.8,224.0 L522.2,225.5 L543.5,228.9 L564.9,223.2 L586.3,230.1 L607.7,228.2 L629.0,223.6 L650.4,213.7 L671.8,226.7 L693.1,223.2 L714.5,230.9 L735.9,37.2 L757.3,28.0 L778.6,225.9 L800.0,225.1 L800.0,232.0 L52.0,232.0Z" fill="#4e79a7" opacity="0.12"/>

  <!-- lines -->
  <polyline points="52.0,228.9 73.4,228.2 94.7,229.7 116.1,205.6 137.5,204.1 158.9,216.0 180.2,217.5 201.6,189.2 223.0,202.2 244.3,209.1 265.7,86.1 287.1,222.1 308.5,180.8 329.8,200.7 351.2,171.6 372.6,204.1 393.9,202.6 415.3,213.3 436.7,223.2 458.1,229.3 479.4,230.1 500.8,224.0 522.2,225.5 543.5,228.9 564.9,223.2 586.3,230.1 607.7,228.2 629.0,223.6 650.4,213.7 671.8,226.7 693.1,223.2 714.5,230.9 735.9,37.2 757.3,28.0 778.6,225.9 800.0,225.1"
            fill="none" stroke="#4e79a7"
            stroke-width="2" stroke-linejoin="round"/>
  <polyline points="52.0,230.9 73.4,230.5 94.7,230.9 116.1,230.5 137.5,230.5 158.9,230.9 180.2,230.9 201.6,230.5 223.0,231.2 244.3,230.9 265.7,180.8 287.1,226.3 308.5,230.5 329.8,229.7 351.2,224.7 372.6,227.8 393.9,229.7 415.3,230.1 436.7,228.6 458.1,231.2 479.4,231.2 500.8,231.2 522.2,231.2 543.5,231.2 564.9,230.1 586.3,231.2 607.7,231.2 629.0,230.9 650.4,226.7 671.8,230.1 693.1,230.5 714.5,231.6 735.9,184.6 757.3,196.5 778.6,230.1 800.0,231.2"
            fill="none" stroke="#f28e2b"
            stroke-width="2" stroke-linejoin="round"
            stroke-dasharray="5,3"/>

  <!-- dots -->
  <circle cx="52.0" cy="228.9" r="3" fill="#4e79a7"/><circle cx="73.4" cy="228.2" r="3" fill="#4e79a7"/><circle cx="94.7" cy="229.7" r="3" fill="#4e79a7"/><circle cx="116.1" cy="205.6" r="3" fill="#4e79a7"/><circle cx="137.5" cy="204.1" r="3" fill="#4e79a7"/><circle cx="158.9" cy="216.0" r="3" fill="#4e79a7"/><circle cx="180.2" cy="217.5" r="3" fill="#4e79a7"/><circle cx="201.6" cy="189.2" r="3" fill="#4e79a7"/><circle cx="223.0" cy="202.2" r="3" fill="#4e79a7"/><circle cx="244.3" cy="209.1" r="3" fill="#4e79a7"/><circle cx="265.7" cy="86.1" r="3" fill="#4e79a7"/><circle cx="287.1" cy="222.1" r="3" fill="#4e79a7"/><circle cx="308.5" cy="180.8" r="3" fill="#4e79a7"/><circle cx="329.8" cy="200.7" r="3" fill="#4e79a7"/><circle cx="351.2" cy="171.6" r="3" fill="#4e79a7"/><circle cx="372.6" cy="204.1" r="3" fill="#4e79a7"/><circle cx="393.9" cy="202.6" r="3" fill="#4e79a7"/><circle cx="415.3" cy="213.3" r="3" fill="#4e79a7"/><circle cx="436.7" cy="223.2" r="3" fill="#4e79a7"/><circle cx="458.1" cy="229.3" r="3" fill="#4e79a7"/><circle cx="479.4" cy="230.1" r="3" fill="#4e79a7"/><circle cx="500.8" cy="224.0" r="3" fill="#4e79a7"/><circle cx="522.2" cy="225.5" r="3" fill="#4e79a7"/><circle cx="543.5" cy="228.9" r="3" fill="#4e79a7"/><circle cx="564.9" cy="223.2" r="3" fill="#4e79a7"/><circle cx="586.3" cy="230.1" r="3" fill="#4e79a7"/><circle cx="607.7" cy="228.2" r="3" fill="#4e79a7"/><circle cx="629.0" cy="223.6" r="3" fill="#4e79a7"/><circle cx="650.4" cy="213.7" r="3" fill="#4e79a7"/><circle cx="671.8" cy="226.7" r="3" fill="#4e79a7"/><circle cx="693.1" cy="223.2" r="3" fill="#4e79a7"/><circle cx="714.5" cy="230.9" r="3" fill="#4e79a7"/><circle cx="735.9" cy="37.2" r="3" fill="#4e79a7"/><circle cx="757.3" cy="28.0" r="3" fill="#4e79a7"/><circle cx="778.6" cy="225.9" r="3" fill="#4e79a7"/><circle cx="800.0" cy="225.1" r="3" fill="#4e79a7"/>
  <circle cx="52.0" cy="230.9" r="3" fill="#f28e2b"/><circle cx="73.4" cy="230.5" r="3" fill="#f28e2b"/><circle cx="94.7" cy="230.9" r="3" fill="#f28e2b"/><circle cx="116.1" cy="230.5" r="3" fill="#f28e2b"/><circle cx="137.5" cy="230.5" r="3" fill="#f28e2b"/><circle cx="158.9" cy="230.9" r="3" fill="#f28e2b"/><circle cx="180.2" cy="230.9" r="3" fill="#f28e2b"/><circle cx="201.6" cy="230.5" r="3" fill="#f28e2b"/><circle cx="223.0" cy="231.2" r="3" fill="#f28e2b"/><circle cx="244.3" cy="230.9" r="3" fill="#f28e2b"/><circle cx="265.7" cy="180.8" r="3" fill="#f28e2b"/><circle cx="287.1" cy="226.3" r="3" fill="#f28e2b"/><circle cx="308.5" cy="230.5" r="3" fill="#f28e2b"/><circle cx="329.8" cy="229.7" r="3" fill="#f28e2b"/><circle cx="351.2" cy="224.7" r="3" fill="#f28e2b"/><circle cx="372.6" cy="227.8" r="3" fill="#f28e2b"/><circle cx="393.9" cy="229.7" r="3" fill="#f28e2b"/><circle cx="415.3" cy="230.1" r="3" fill="#f28e2b"/><circle cx="436.7" cy="228.6" r="3" fill="#f28e2b"/><circle cx="458.1" cy="231.2" r="3" fill="#f28e2b"/><circle cx="479.4" cy="231.2" r="3" fill="#f28e2b"/><circle cx="500.8" cy="231.2" r="3" fill="#f28e2b"/><circle cx="522.2" cy="231.2" r="3" fill="#f28e2b"/><circle cx="543.5" cy="231.2" r="3" fill="#f28e2b"/><circle cx="564.9" cy="230.1" r="3" fill="#f28e2b"/><circle cx="586.3" cy="231.2" r="3" fill="#f28e2b"/><circle cx="607.7" cy="231.2" r="3" fill="#f28e2b"/><circle cx="629.0" cy="230.9" r="3" fill="#f28e2b"/><circle cx="650.4" cy="226.7" r="3" fill="#f28e2b"/><circle cx="671.8" cy="230.1" r="3" fill="#f28e2b"/><circle cx="693.1" cy="230.5" r="3" fill="#f28e2b"/><circle cx="714.5" cy="231.6" r="3" fill="#f28e2b"/><circle cx="735.9" cy="184.6" r="3" fill="#f28e2b"/><circle cx="757.3" cy="196.5" r="3" fill="#f28e2b"/><circle cx="778.6" cy="230.1" r="3" fill="#f28e2b"/><circle cx="800.0" cy="231.2" r="3" fill="#f28e2b"/>

  <!-- axes -->
  <line x1="52" y1="28" x2="52" y2="232"
        stroke="#cccccc" stroke-width="1"/>
  <line x1="52" y1="232" x2="800" y2="232"
        stroke="#cccccc" stroke-width="1"/>

  <!-- y-axis labels -->
  <text x="47" y="236.0" text-anchor="end" font-size="10" fill="#57606a" font-family="ui-monospace, SFMono-Regular, 'SF Mono', Menlo, monospace">0</text><text x="47" y="197.8" text-anchor="end" font-size="10" fill="#57606a" font-family="ui-monospace, SFMono-Regular, 'SF Mono', Menlo, monospace">100</text><text x="47" y="159.6" text-anchor="end" font-size="10" fill="#57606a" font-family="ui-monospace, SFMono-Regular, 'SF Mono', Menlo, monospace">200</text><text x="47" y="121.4" text-anchor="end" font-size="10" fill="#57606a" font-family="ui-monospace, SFMono-Regular, 'SF Mono', Menlo, monospace">300</text><text x="47" y="83.2" text-anchor="end" font-size="10" fill="#57606a" font-family="ui-monospace, SFMono-Regular, 'SF Mono', Menlo, monospace">400</text><text x="47" y="45.0" text-anchor="end" font-size="10" fill="#57606a" font-family="ui-monospace, SFMono-Regular, 'SF Mono', Menlo, monospace">500</text><text x="47" y="6.8" text-anchor="end" font-size="10" fill="#57606a" font-family="ui-monospace, SFMono-Regular, 'SF Mono', Menlo, monospace">600</text>

  <!-- x-axis labels -->
  <text x="52.0" y="248" text-anchor="middle" font-size="10" fill="#8c959f" font-family="ui-monospace, SFMono-Regular, 'SF Mono', Menlo, monospace">05-11</text><text x="735.9" y="248" text-anchor="middle" font-size="10" fill="#8c959f" font-family="ui-monospace, SFMono-Regular, 'SF Mono', Menlo, monospace">06-12</text><text x="800.0" y="248" text-anchor="middle" font-size="10" fill="#8c959f" font-family="ui-monospace, SFMono-Regular, 'SF Mono', Menlo, monospace">06-15</text><text x="137.5" y="248" text-anchor="middle" font-size="10" fill="#8c959f" font-family="ui-monospace, SFMono-Regular, 'SF Mono', Menlo, monospace">05-15</text><text x="223.0" y="248" text-anchor="middle" font-size="10" fill="#8c959f" font-family="ui-monospace, SFMono-Regular, 'SF Mono', Menlo, monospace">05-19</text><text x="308.5" y="248" text-anchor="middle" font-size="10" fill="#8c959f" font-family="ui-monospace, SFMono-Regular, 'SF Mono', Menlo, monospace">05-23</text><text x="393.9" y="248" text-anchor="middle" font-size="10" fill="#8c959f" font-family="ui-monospace, SFMono-Regular, 'SF Mono', Menlo, monospace">05-27</text><text x="479.4" y="248" text-anchor="middle" font-size="10" fill="#8c959f" font-family="ui-monospace, SFMono-Regular, 'SF Mono', Menlo, monospace">05-31</text><text x="564.9" y="248" text-anchor="middle" font-size="10" fill="#8c959f" font-family="ui-monospace, SFMono-Regular, 'SF Mono', Menlo, monospace">06-04</text><text x="650.4" y="248" text-anchor="middle" font-size="10" fill="#8c959f" font-family="ui-monospace, SFMono-Regular, 'SF Mono', Menlo, monospace">06-08</text>

  <!-- legend -->
  <rect x="60" y="262" width="16" height="3" fill="#4e79a7" rx="1"/><text x="80" y="268" font-size="11" fill="#57606a" font-family="-apple-system, BlinkMacSystemFont, 'Segoe UI', sans-serif">Total clones (2,784)</text><line x1="230" y1="264" x2="246" y2="264" stroke="#f28e2b" stroke-width="2" stroke-dasharray="5,3"/><text x="250" y="268" font-size="11" fill="#57606a" font-family="-apple-system, BlinkMacSystemFont, 'Segoe UI', sans-serif">Unique cloners</text>

</svg>