<svg xmlns="http://www.w3.org/2000/svg" viewBox="0 0 820 280" width="820" height="280">

  <!-- title -->
  <text x="52" y="18" font-size="13" font-weight="600"
        fill="#24292f" font-family="-apple-system, BlinkMacSystemFont, 'Segoe UI', sans-serif"
        >Clone traffic — script-helpers</text>
  <text x="800" y="18" font-size="10" fill="#8c959f"
        font-family="ui-monospace, SFMono-Regular, 'SF Mono', Menlo, monospace" text-anchor="end">2026-06-11</text>

  <!-- grid -->
  <line x1="52" y1="232.0" x2="800" y2="232.0" stroke="#e8e8e8" stroke-width="1"/><line x1="52" y1="189.3" x2="800" y2="189.3" stroke="#e8e8e8" stroke-width="1"/><line x1="52" y1="146.6" x2="800" y2="146.6" stroke="#e8e8e8" stroke-width="1"/><line x1="52" y1="103.8" x2="800" y2="103.8" stroke="#e8e8e8" stroke-width="1"/><line x1="52" y1="61.1" x2="800" y2="61.1" stroke="#e8e8e8" stroke-width="1"/><line x1="52" y1="18.4" x2="800" y2="18.4" stroke="#e8e8e8" stroke-width="1"/>

  <!-- area fill -->
  <path d="M52.0,227.7 L52.0,227.7 L78.7,226.7 L105.4,228.8 L132.1,195.2 L158.9,193.0 L185.6,209.6 L212.3,211.7 L239.0,172.2 L265.7,190.3 L292.4,200.0 L319.1,28.0 L345.9,218.1 L372.6,160.4 L399.3,188.2 L426.0,147.6 L452.7,193.0 L479.4,190.9 L506.1,205.8 L532.9,219.7 L559.6,228.3 L586.3,229.3 L613.0,220.8 L639.7,222.9 L666.4,227.7 L693.1,219.7 L719.9,229.3 L746.6,226.7 L773.3,220.3 L800.0,206.4 L800.0,232.0 L52.0,232.0Z" fill="#4e79a7" opacity="0.12"/>

  <!-- lines -->
  <polyline points="52.0,227.7 78.7,226.7 105.4,228.8 132.1,195.2 158.9,193.0 185.6,209.6 212.3,211.7 239.0,172.2 265.7,190.3 292.4,200.0 319.1,28.0 345.9,218.1 372.6,160.4 399.3,188.2 426.0,147.6 452.7,193.0 479.4,190.9 506.1,205.8 532.9,219.7 559.6,228.3 586.3,229.3 613.0,220.8 639.7,222.9 666.4,227.7 693.1,219.7 719.9,229.3 746.6,226.7 773.3,220.3 800.0,206.4"
            fill="none" stroke="#4e79a7"
            stroke-width="2" stroke-linejoin="round"/>
  <polyline points="52.0,230.4 78.7,229.9 105.4,230.4 132.1,229.9 158.9,229.9 185.6,230.4 212.3,230.4 239.0,229.9 265.7,230.9 292.4,230.4 319.1,160.4 345.9,224.0 372.6,229.9 399.3,228.8 426.0,221.9 452.7,226.1 479.4,228.8 506.1,229.3 532.9,227.2 559.6,230.9 586.3,230.9 613.0,230.9 639.7,230.9 666.4,230.9 693.1,229.3 719.9,230.9 746.6,230.9 773.3,230.4 800.0,224.5"
            fill="none" stroke="#f28e2b"
            stroke-width="2" stroke-linejoin="round"
            stroke-dasharray="5,3"/>

  <!-- dots -->
  <circle cx="52.0" cy="227.7" r="3" fill="#4e79a7"/><circle cx="78.7" cy="226.7" r="3" fill="#4e79a7"/><circle cx="105.4" cy="228.8" r="3" fill="#4e79a7"/><circle cx="132.1" cy="195.2" r="3" fill="#4e79a7"/><circle cx="158.9" cy="193.0" r="3" fill="#4e79a7"/><circle cx="185.6" cy="209.6" r="3" fill="#4e79a7"/><circle cx="212.3" cy="211.7" r="3" fill="#4e79a7"/><circle cx="239.0" cy="172.2" r="3" fill="#4e79a7"/><circle cx="265.7" cy="190.3" r="3" fill="#4e79a7"/><circle cx="292.4" cy="200.0" r="3" fill="#4e79a7"/><circle cx="319.1" cy="28.0" r="3" fill="#4e79a7"/><circle cx="345.9" cy="218.1" r="3" fill="#4e79a7"/><circle cx="372.6" cy="160.4" r="3" fill="#4e79a7"/><circle cx="399.3" cy="188.2" r="3" fill="#4e79a7"/><circle cx="426.0" cy="147.6" r="3" fill="#4e79a7"/><circle cx="452.7" cy="193.0" r="3" fill="#4e79a7"/><circle cx="479.4" cy="190.9" r="3" fill="#4e79a7"/><circle cx="506.1" cy="205.8" r="3" fill="#4e79a7"/><circle cx="532.9" cy="219.7" r="3" fill="#4e79a7"/><circle cx="559.6" cy="228.3" r="3" fill="#4e79a7"/><circle cx="586.3" cy="229.3" r="3" fill="#4e79a7"/><circle cx="613.0" cy="220.8" r="3" fill="#4e79a7"/><circle cx="639.7" cy="222.9" r="3" fill="#4e79a7"/><circle cx="666.4" cy="227.7" r="3" fill="#4e79a7"/><circle cx="693.1" cy="219.7" r="3" fill="#4e79a7"/><circle cx="719.9" cy="229.3" r="3" fill="#4e79a7"/><circle cx="746.6" cy="226.7" r="3" fill="#4e79a7"/><circle cx="773.3" cy="220.3" r="3" fill="#4e79a7"/><circle cx="800.0" cy="206.4" r="3" fill="#4e79a7"/>
  <circle cx="52.0" cy="230.4" r="3" fill="#f28e2b"/><circle cx="78.7" cy="229.9" r="3" fill="#f28e2b"/><circle cx="105.4" cy="230.4" r="3" fill="#f28e2b"/><circle cx="132.1" cy="229.9" r="3" fill="#f28e2b"/><circle cx="158.9" cy="229.9" r="3" fill="#f28e2b"/><circle cx="185.6" cy="230.4" r="3" fill="#f28e2b"/><circle cx="212.3" cy="230.4" r="3" fill="#f28e2b"/><circle cx="239.0" cy="229.9" r="3" fill="#f28e2b"/><circle cx="265.7" cy="230.9" r="3" fill="#f28e2b"/><circle cx="292.4" cy="230.4" r="3" fill="#f28e2b"/><circle cx="319.1" cy="160.4" r="3" fill="#f28e2b"/><circle cx="345.9" cy="224.0" r="3" fill="#f28e2b"/><circle cx="372.6" cy="229.9" r="3" fill="#f28e2b"/><circle cx="399.3" cy="228.8" r="3" fill="#f28e2b"/><circle cx="426.0" cy="221.9" r="3" fill="#f28e2b"/><circle cx="452.7" cy="226.1" r="3" fill="#f28e2b"/><circle cx="479.4" cy="228.8" r="3" fill="#f28e2b"/><circle cx="506.1" cy="229.3" r="3" fill="#f28e2b"/><circle cx="532.9" cy="227.2" r="3" fill="#f28e2b"/><circle cx="559.6" cy="230.9" r="3" fill="#f28e2b"/><circle cx="586.3" cy="230.9" r="3" fill="#f28e2b"/><circle cx="613.0" cy="230.9" r="3" fill="#f28e2b"/><circle cx="639.7" cy="230.9" r="3" fill="#f28e2b"/><circle cx="666.4" cy="230.9" r="3" fill="#f28e2b"/><circle cx="693.1" cy="229.3" r="3" fill="#f28e2b"/><circle cx="719.9" cy="230.9" r="3" fill="#f28e2b"/><circle cx="746.6" cy="230.9" r="3" fill="#f28e2b"/><circle cx="773.3" cy="230.4" r="3" fill="#f28e2b"/><circle cx="800.0" cy="224.5" r="3" fill="#f28e2b"/>

  <!-- axes -->
  <line x1="52" y1="28" x2="52" y2="232"
        stroke="#cccccc" stroke-width="1"/>
  <line x1="52" y1="232" x2="800" y2="232"
        stroke="#cccccc" stroke-width="1"/>

  <!-- y-axis labels -->
  <text x="47" y="236.0" text-anchor="end" font-size="10" fill="#57606a" font-family="ui-monospace, SFMono-Regular, 'SF Mono', Menlo, monospace">0</text><text x="47" y="193.3" text-anchor="end" font-size="10" fill="#57606a" font-family="ui-monospace, SFMono-Regular, 'SF Mono', Menlo, monospace">80</text><text x="47" y="150.6" text-anchor="end" font-size="10" fill="#57606a" font-family="ui-monospace, SFMono-Regular, 'SF Mono', Menlo, monospace">160</text><text x="47" y="107.8" text-anchor="end" font-size="10" fill="#57606a" font-family="ui-monospace, SFMono-Regular, 'SF Mono', Menlo, monospace">240</text><text x="47" y="65.1" text-anchor="end" font-size="10" fill="#57606a" font-family="ui-monospace, SFMono-Regular, 'SF Mono', Menlo, monospace">320</text><text x="47" y="22.4" text-anchor="end" font-size="10" fill="#57606a" font-family="ui-monospace, SFMono-Regular, 'SF Mono', Menlo, monospace">400</text>

  <!-- x-axis labels -->
  <text x="52.0" y="248" text-anchor="middle" font-size="10" fill="#8c959f" font-family="ui-monospace, SFMono-Regular, 'SF Mono', Menlo, monospace">05-11</text><text x="132.1" y="248" text-anchor="middle" font-size="10" fill="#8c959f" font-family="ui-monospace, SFMono-Regular, 'SF Mono', Menlo, monospace">05-14</text><text x="212.3" y="248" text-anchor="middle" font-size="10" fill="#8c959f" font-family="ui-monospace, SFMono-Regular, 'SF Mono', Menlo, monospace">05-17</text><text x="292.4" y="248" text-anchor="middle" font-size="10" fill="#8c959f" font-family="ui-monospace, SFMono-Regular, 'SF Mono', Menlo, monospace">05-20</text><text x="372.6" y="248" text-anchor="middle" font-size="10" fill="#8c959f" font-family="ui-monospace, SFMono-Regular, 'SF Mono', Menlo, monospace">05-23</text><text x="452.7" y="248" text-anchor="middle" font-size="10" fill="#8c959f" font-family="ui-monospace, SFMono-Regular, 'SF Mono', Menlo, monospace">05-26</text><text x="532.9" y="248" text-anchor="middle" font-size="10" fill="#8c959f" font-family="ui-monospace, SFMono-Regular, 'SF Mono', Menlo, monospace">05-29</text><text x="613.0" y="248" text-anchor="middle" font-size="10" fill="#8c959f" font-family="ui-monospace, SFMono-Regular, 'SF Mono', Menlo, monospace">06-01</text><text x="693.1" y="248" text-anchor="middle" font-size="10" fill="#8c959f" font-family="ui-monospace, SFMono-Regular, 'SF Mono', Menlo, monospace">06-04</text><text x="773.3" y="248" text-anchor="middle" font-size="10" fill="#8c959f" font-family="ui-monospace, SFMono-Regular, 'SF Mono', Menlo, monospace">06-07</text><text x="800.0" y="248" text-anchor="middle" font-size="10" fill="#8c959f" font-family="ui-monospace, SFMono-Regular, 'SF Mono', Menlo, monospace">06-08</text>

  <!-- legend -->
  <rect x="60" y="262" width="16" height="3" fill="#4e79a7" rx="1"/><text x="80" y="268" font-size="11" fill="#57606a" font-family="-apple-system, BlinkMacSystemFont, 'Segoe UI', sans-serif">Total clones (1,666)</text><line x1="230" y1="264" x2="246" y2="264" stroke="#f28e2b" stroke-width="2" stroke-dasharray="5,3"/><text x="250" y="268" font-size="11" fill="#57606a" font-family="-apple-system, BlinkMacSystemFont, 'Segoe UI', sans-serif">Unique cloners</text>

</svg>