<svg xmlns="http://www.w3.org/2000/svg" viewBox="0 0 820 280" width="820" height="280">

  <!-- title -->
  <text x="52" y="18" font-size="13" font-weight="600"
        fill="#24292f" font-family="-apple-system, BlinkMacSystemFont, 'Segoe UI', sans-serif"
        >Clone traffic — script-helpers</text>
  <text x="800" y="18" font-size="10" fill="#8c959f"
        font-family="ui-monospace, SFMono-Regular, 'SF Mono', Menlo, monospace" text-anchor="end">2026-06-28</text>

  <!-- grid -->
  <line x1="52" y1="232.0" x2="800" y2="232.0" stroke="#e8e8e8" stroke-width="1"/><line x1="52" y1="193.8" x2="800" y2="193.8" stroke="#e8e8e8" stroke-width="1"/><line x1="52" y1="155.6" x2="800" y2="155.6" stroke="#e8e8e8" stroke-width="1"/><line x1="52" y1="117.4" x2="800" y2="117.4" stroke="#e8e8e8" stroke-width="1"/><line x1="52" y1="79.2" x2="800" y2="79.2" stroke="#e8e8e8" stroke-width="1"/><line x1="52" y1="41.0" x2="800" y2="41.0" stroke="#e8e8e8" stroke-width="1"/><line x1="52" y1="2.8" x2="800" y2="2.8" stroke="#e8e8e8" stroke-width="1"/>

  <!-- area fill -->
  <path d="M52.0,228.9 L52.0,228.9 L68.3,228.2 L84.5,229.7 L100.8,205.6 L117.0,204.1 L133.3,216.0 L149.6,217.5 L165.8,189.2 L182.1,202.2 L198.3,209.1 L214.6,86.1 L230.9,222.1 L247.1,180.8 L263.4,200.7 L279.7,171.6 L295.9,204.1 L312.2,202.6 L328.4,213.3 L344.7,223.2 L361.0,229.3 L377.2,230.1 L393.5,224.0 L409.7,225.5 L426.0,228.9 L442.3,223.2 L458.5,230.1 L474.8,228.2 L491.0,223.6 L507.3,213.7 L523.6,226.7 L539.8,223.2 L556.1,230.9 L572.3,37.2 L588.6,28.0 L604.9,225.9 L621.1,225.1 L637.4,221.7 L653.7,225.1 L669.9,219.0 L686.2,172.8 L702.4,67.0 L718.7,101.0 L735.0,213.3 L751.2,217.9 L767.5,227.8 L783.7,230.9 L800.0,160.9 L800.0,232.0 L52.0,232.0Z" fill="#4e79a7" opacity="0.12"/>

  <!-- lines -->
  <polyline points="52.0,228.9 68.3,228.2 84.5,229.7 100.8,205.6 117.0,204.1 133.3,216.0 149.6,217.5 165.8,189.2 182.1,202.2 198.3,209.1 214.6,86.1 230.9,222.1 247.1,180.8 263.4,200.7 279.7,171.6 295.9,204.1 312.2,202.6 328.4,213.3 344.7,223.2 361.0,229.3 377.2,230.1 393.5,224.0 409.7,225.5 426.0,228.9 442.3,223.2 458.5,230.1 474.8,228.2 491.0,223.6 507.3,213.7 523.6,226.7 539.8,223.2 556.1,230.9 572.3,37.2 588.6,28.0 604.9,225.9 621.1,225.1 637.4,221.7 653.7,225.1 669.9,219.0 686.2,172.8 702.4,67.0 718.7,101.0 735.0,213.3 751.2,217.9 767.5,227.8 783.7,230.9 800.0,160.9"
            fill="none" stroke="#4e79a7"
            stroke-width="2" stroke-linejoin="round"/>
  <polyline points="52.0,230.9 68.3,230.5 84.5,230.9 100.8,230.5 117.0,230.5 133.3,230.9 149.6,230.9 165.8,230.5 182.1,231.2 198.3,230.9 214.6,180.8 230.9,226.3 247.1,230.5 263.4,229.7 279.7,224.7 295.9,227.8 312.2,229.7 328.4,230.1 344.7,228.6 361.0,231.2 377.2,231.2 393.5,231.2 409.7,231.2 426.0,231.2 442.3,230.1 458.5,231.2 474.8,231.2 491.0,230.9 507.3,226.7 523.6,230.1 539.8,230.5 556.1,231.6 572.3,184.6 588.6,196.5 604.9,230.1 621.1,231.2 637.4,231.2 653.7,231.2 669.9,230.1 686.2,225.1 702.4,207.6 718.7,214.0 735.0,225.9 751.2,224.0 767.5,230.1 783.7,230.9 800.0,221.7"
            fill="none" stroke="#f28e2b"
            stroke-width="2" stroke-linejoin="round"
            stroke-dasharray="5,3"/>

  <!-- dots -->
  <circle cx="52.0" cy="228.9" r="3" fill="#4e79a7"/><circle cx="68.3" cy="228.2" r="3" fill="#4e79a7"/><circle cx="84.5" cy="229.7" r="3" fill="#4e79a7"/><circle cx="100.8" cy="205.6" r="3" fill="#4e79a7"/><circle cx="117.0" cy="204.1" r="3" fill="#4e79a7"/><circle cx="133.3" cy="216.0" r="3" fill="#4e79a7"/><circle cx="149.6" cy="217.5" r="3" fill="#4e79a7"/><circle cx="165.8" cy="189.2" r="3" fill="#4e79a7"/><circle cx="182.1" cy="202.2" r="3" fill="#4e79a7"/><circle cx="198.3" cy="209.1" r="3" fill="#4e79a7"/><circle cx="214.6" cy="86.1" r="3" fill="#4e79a7"/><circle cx="230.9" cy="222.1" r="3" fill="#4e79a7"/><circle cx="247.1" cy="180.8" r="3" fill="#4e79a7"/><circle cx="263.4" cy="200.7" r="3" fill="#4e79a7"/><circle cx="279.7" cy="171.6" r="3" fill="#4e79a7"/><circle cx="295.9" cy="204.1" r="3" fill="#4e79a7"/><circle cx="312.2" cy="202.6" r="3" fill="#4e79a7"/><circle cx="328.4" cy="213.3" r="3" fill="#4e79a7"/><circle cx="344.7" cy="223.2" r="3" fill="#4e79a7"/><circle cx="361.0" cy="229.3" r="3" fill="#4e79a7"/><circle cx="377.2" cy="230.1" r="3" fill="#4e79a7"/><circle cx="393.5" cy="224.0" r="3" fill="#4e79a7"/><circle cx="409.7" cy="225.5" r="3" fill="#4e79a7"/><circle cx="426.0" cy="228.9" r="3" fill="#4e79a7"/><circle cx="442.3" cy="223.2" r="3" fill="#4e79a7"/><circle cx="458.5" cy="230.1" r="3" fill="#4e79a7"/><circle cx="474.8" cy="228.2" r="3" fill="#4e79a7"/><circle cx="491.0" cy="223.6" r="3" fill="#4e79a7"/><circle cx="507.3" cy="213.7" r="3" fill="#4e79a7"/><circle cx="523.6" cy="226.7" r="3" fill="#4e79a7"/><circle cx="539.8" cy="223.2" r="3" fill="#4e79a7"/><circle cx="556.1" cy="230.9" r="3" fill="#4e79a7"/><circle cx="572.3" cy="37.2" r="3" fill="#4e79a7"/><circle cx="588.6" cy="28.0" r="3" fill="#4e79a7"/><circle cx="604.9" cy="225.9" r="3" fill="#4e79a7"/><circle cx="621.1" cy="225.1" r="3" fill="#4e79a7"/><circle cx="637.4" cy="221.7" r="3" fill="#4e79a7"/><circle cx="653.7" cy="225.1" r="3" fill="#4e79a7"/><circle cx="669.9" cy="219.0" r="3" fill="#4e79a7"/><circle cx="686.2" cy="172.8" r="3" fill="#4e79a7"/><circle cx="702.4" cy="67.0" r="3" fill="#4e79a7"/><circle cx="718.7" cy="101.0" r="3" fill="#4e79a7"/><circle cx="735.0" cy="213.3" r="3" fill="#4e79a7"/><circle cx="751.2" cy="217.9" r="3" fill="#4e79a7"/><circle cx="767.5" cy="227.8" r="3" fill="#4e79a7"/><circle cx="783.7" cy="230.9" r="3" fill="#4e79a7"/><circle cx="800.0" cy="160.9" r="3" fill="#4e79a7"/>
  <circle cx="52.0" cy="230.9" r="3" fill="#f28e2b"/><circle cx="68.3" cy="230.5" r="3" fill="#f28e2b"/><circle cx="84.5" cy="230.9" r="3" fill="#f28e2b"/><circle cx="100.8" cy="230.5" r="3" fill="#f28e2b"/><circle cx="117.0" cy="230.5" r="3" fill="#f28e2b"/><circle cx="133.3" cy="230.9" r="3" fill="#f28e2b"/><circle cx="149.6" cy="230.9" r="3" fill="#f28e2b"/><circle cx="165.8" cy="230.5" r="3" fill="#f28e2b"/><circle cx="182.1" cy="231.2" r="3" fill="#f28e2b"/><circle cx="198.3" cy="230.9" r="3" fill="#f28e2b"/><circle cx="214.6" cy="180.8" r="3" fill="#f28e2b"/><circle cx="230.9" cy="226.3" r="3" fill="#f28e2b"/><circle cx="247.1" cy="230.5" r="3" fill="#f28e2b"/><circle cx="263.4" cy="229.7" r="3" fill="#f28e2b"/><circle cx="279.7" cy="224.7" r="3" fill="#f28e2b"/><circle cx="295.9" cy="227.8" r="3" fill="#f28e2b"/><circle cx="312.2" cy="229.7" r="3" fill="#f28e2b"/><circle cx="328.4" cy="230.1" r="3" fill="#f28e2b"/><circle cx="344.7" cy="228.6" r="3" fill="#f28e2b"/><circle cx="361.0" cy="231.2" r="3" fill="#f28e2b"/><circle cx="377.2" cy="231.2" r="3" fill="#f28e2b"/><circle cx="393.5" cy="231.2" r="3" fill="#f28e2b"/><circle cx="409.7" cy="231.2" r="3" fill="#f28e2b"/><circle cx="426.0" cy="231.2" r="3" fill="#f28e2b"/><circle cx="442.3" cy="230.1" r="3" fill="#f28e2b"/><circle cx="458.5" cy="231.2" r="3" fill="#f28e2b"/><circle cx="474.8" cy="231.2" r="3" fill="#f28e2b"/><circle cx="491.0" cy="230.9" r="3" fill="#f28e2b"/><circle cx="507.3" cy="226.7" r="3" fill="#f28e2b"/><circle cx="523.6" cy="230.1" r="3" fill="#f28e2b"/><circle cx="539.8" cy="230.5" r="3" fill="#f28e2b"/><circle cx="556.1" cy="231.6" r="3" fill="#f28e2b"/><circle cx="572.3" cy="184.6" r="3" fill="#f28e2b"/><circle cx="588.6" cy="196.5" r="3" fill="#f28e2b"/><circle cx="604.9" cy="230.1" r="3" fill="#f28e2b"/><circle cx="621.1" cy="231.2" r="3" fill="#f28e2b"/><circle cx="637.4" cy="231.2" r="3" fill="#f28e2b"/><circle cx="653.7" cy="231.2" r="3" fill="#f28e2b"/><circle cx="669.9" cy="230.1" r="3" fill="#f28e2b"/><circle cx="686.2" cy="225.1" r="3" fill="#f28e2b"/><circle cx="702.4" cy="207.6" r="3" fill="#f28e2b"/><circle cx="718.7" cy="214.0" r="3" fill="#f28e2b"/><circle cx="735.0" cy="225.9" r="3" fill="#f28e2b"/><circle cx="751.2" cy="224.0" r="3" fill="#f28e2b"/><circle cx="767.5" cy="230.1" r="3" fill="#f28e2b"/><circle cx="783.7" cy="230.9" r="3" fill="#f28e2b"/><circle cx="800.0" cy="221.7" r="3" fill="#f28e2b"/>

  <!-- axes -->
  <line x1="52" y1="28" x2="52" y2="232"
        stroke="#cccccc" stroke-width="1"/>
  <line x1="52" y1="232" x2="800" y2="232"
        stroke="#cccccc" stroke-width="1"/>

  <!-- y-axis labels -->
  <text x="47" y="236.0" text-anchor="end" font-size="10" fill="#57606a" font-family="ui-monospace, SFMono-Regular, 'SF Mono', Menlo, monospace">0</text><text x="47" y="197.8" text-anchor="end" font-size="10" fill="#57606a" font-family="ui-monospace, SFMono-Regular, 'SF Mono', Menlo, monospace">100</text><text x="47" y="159.6" text-anchor="end" font-size="10" fill="#57606a" font-family="ui-monospace, SFMono-Regular, 'SF Mono', Menlo, monospace">200</text><text x="47" y="121.4" text-anchor="end" font-size="10" fill="#57606a" font-family="ui-monospace, SFMono-Regular, 'SF Mono', Menlo, monospace">300</text><text x="47" y="83.2" text-anchor="end" font-size="10" fill="#57606a" font-family="ui-monospace, SFMono-Regular, 'SF Mono', Menlo, monospace">400</text><text x="47" y="45.0" text-anchor="end" font-size="10" fill="#57606a" font-family="ui-monospace, SFMono-Regular, 'SF Mono', Menlo, monospace">500</text><text x="47" y="6.8" text-anchor="end" font-size="10" fill="#57606a" font-family="ui-monospace, SFMono-Regular, 'SF Mono', Menlo, monospace">600</text>

  <!-- x-axis labels -->
  <text x="52.0" y="248" text-anchor="middle" font-size="10" fill="#8c959f" font-family="ui-monospace, SFMono-Regular, 'SF Mono', Menlo, monospace">05-11</text><text x="621.1" y="248" text-anchor="middle" font-size="10" fill="#8c959f" font-family="ui-monospace, SFMono-Regular, 'SF Mono', Menlo, monospace">06-15</text><text x="133.3" y="248" text-anchor="middle" font-size="10" fill="#8c959f" font-family="ui-monospace, SFMono-Regular, 'SF Mono', Menlo, monospace">05-16</text><text x="702.4" y="248" text-anchor="middle" font-size="10" fill="#8c959f" font-family="ui-monospace, SFMono-Regular, 'SF Mono', Menlo, monospace">06-20</text><text x="214.6" y="248" text-anchor="middle" font-size="10" fill="#8c959f" font-family="ui-monospace, SFMono-Regular, 'SF Mono', Menlo, monospace">05-21</text><text x="783.7" y="248" text-anchor="middle" font-size="10" fill="#8c959f" font-family="ui-monospace, SFMono-Regular, 'SF Mono', Menlo, monospace">06-25</text><text x="800.0" y="248" text-anchor="middle" font-size="10" fill="#8c959f" font-family="ui-monospace, SFMono-Regular, 'SF Mono', Menlo, monospace">06-26</text><text x="295.9" y="248" text-anchor="middle" font-size="10" fill="#8c959f" font-family="ui-monospace, SFMono-Regular, 'SF Mono', Menlo, monospace">05-26</text><text x="377.2" y="248" text-anchor="middle" font-size="10" fill="#8c959f" font-family="ui-monospace, SFMono-Regular, 'SF Mono', Menlo, monospace">05-31</text><text x="458.5" y="248" text-anchor="middle" font-size="10" fill="#8c959f" font-family="ui-monospace, SFMono-Regular, 'SF Mono', Menlo, monospace">06-05</text><text x="539.8" y="248" text-anchor="middle" font-size="10" fill="#8c959f" font-family="ui-monospace, SFMono-Regular, 'SF Mono', Menlo, monospace">06-10</text>

  <!-- legend -->
  <rect x="60" y="262" width="16" height="3" fill="#4e79a7" rx="1"/><text x="80" y="268" font-size="11" fill="#57606a" font-family="-apple-system, BlinkMacSystemFont, 'Segoe UI', sans-serif">Total clones (4,079)</text><line x1="230" y1="264" x2="246" y2="264" stroke="#f28e2b" stroke-width="2" stroke-dasharray="5,3"/><text x="250" y="268" font-size="11" fill="#57606a" font-family="-apple-system, BlinkMacSystemFont, 'Segoe UI', sans-serif">Unique cloners</text>

</svg>