<svg xmlns="http://www.w3.org/2000/svg" viewBox="0 0 820 280" width="820" height="280">

  <!-- title -->
  <text x="52" y="18" font-size="13" font-weight="600"
        fill="#24292f" font-family="-apple-system, BlinkMacSystemFont, 'Segoe UI', sans-serif"
        >Clone traffic — script-helpers</text>
  <text x="800" y="18" font-size="10" fill="#8c959f"
        font-family="ui-monospace, SFMono-Regular, 'SF Mono', Menlo, monospace" text-anchor="end">2026-05-27</text>

  <!-- grid -->
  <line x1="52" y1="232.0" x2="800" y2="232.0" stroke="#e8e8e8" stroke-width="1"/><line x1="52" y1="189.3" x2="800" y2="189.3" stroke="#e8e8e8" stroke-width="1"/><line x1="52" y1="146.6" x2="800" y2="146.6" stroke="#e8e8e8" stroke-width="1"/><line x1="52" y1="103.8" x2="800" y2="103.8" stroke="#e8e8e8" stroke-width="1"/><line x1="52" y1="61.1" x2="800" y2="61.1" stroke="#e8e8e8" stroke-width="1"/><line x1="52" y1="18.4" x2="800" y2="18.4" stroke="#e8e8e8" stroke-width="1"/>

  <!-- area fill -->
  <path d="M52.0,227.7 L52.0,227.7 L105.4,226.7 L158.9,228.8 L212.3,195.2 L265.7,193.0 L319.1,209.6 L372.6,211.7 L426.0,172.2 L479.4,190.3 L532.9,200.0 L586.3,28.0 L639.7,218.1 L693.1,160.4 L746.6,188.2 L800.0,147.6 L800.0,232.0 L52.0,232.0Z" fill="#4e79a7" opacity="0.12"/>

  <!-- lines -->
  <polyline points="52.0,227.7 105.4,226.7 158.9,228.8 212.3,195.2 265.7,193.0 319.1,209.6 372.6,211.7 426.0,172.2 479.4,190.3 532.9,200.0 586.3,28.0 639.7,218.1 693.1,160.4 746.6,188.2 800.0,147.6"
            fill="none" stroke="#4e79a7"
            stroke-width="2" stroke-linejoin="round"/>
  <polyline points="52.0,230.4 105.4,229.9 158.9,230.4 212.3,229.9 265.7,229.9 319.1,230.4 372.6,230.4 426.0,229.9 479.4,230.9 532.9,230.4 586.3,160.4 639.7,224.0 693.1,229.9 746.6,228.8 800.0,221.9"
            fill="none" stroke="#f28e2b"
            stroke-width="2" stroke-linejoin="round"
            stroke-dasharray="5,3"/>

  <!-- dots -->
  <circle cx="52.0" cy="227.7" r="3" fill="#4e79a7"/><circle cx="105.4" cy="226.7" r="3" fill="#4e79a7"/><circle cx="158.9" cy="228.8" r="3" fill="#4e79a7"/><circle cx="212.3" cy="195.2" r="3" fill="#4e79a7"/><circle cx="265.7" cy="193.0" r="3" fill="#4e79a7"/><circle cx="319.1" cy="209.6" r="3" fill="#4e79a7"/><circle cx="372.6" cy="211.7" r="3" fill="#4e79a7"/><circle cx="426.0" cy="172.2" r="3" fill="#4e79a7"/><circle cx="479.4" cy="190.3" r="3" fill="#4e79a7"/><circle cx="532.9" cy="200.0" r="3" fill="#4e79a7"/><circle cx="586.3" cy="28.0" r="3" fill="#4e79a7"/><circle cx="639.7" cy="218.1" r="3" fill="#4e79a7"/><circle cx="693.1" cy="160.4" r="3" fill="#4e79a7"/><circle cx="746.6" cy="188.2" r="3" fill="#4e79a7"/><circle cx="800.0" cy="147.6" r="3" fill="#4e79a7"/>
  <circle cx="52.0" cy="230.4" r="3" fill="#f28e2b"/><circle cx="105.4" cy="229.9" r="3" fill="#f28e2b"/><circle cx="158.9" cy="230.4" r="3" fill="#f28e2b"/><circle cx="212.3" cy="229.9" r="3" fill="#f28e2b"/><circle cx="265.7" cy="229.9" r="3" fill="#f28e2b"/><circle cx="319.1" cy="230.4" r="3" fill="#f28e2b"/><circle cx="372.6" cy="230.4" r="3" fill="#f28e2b"/><circle cx="426.0" cy="229.9" r="3" fill="#f28e2b"/><circle cx="479.4" cy="230.9" r="3" fill="#f28e2b"/><circle cx="532.9" cy="230.4" r="3" fill="#f28e2b"/><circle cx="586.3" cy="160.4" r="3" fill="#f28e2b"/><circle cx="639.7" cy="224.0" r="3" fill="#f28e2b"/><circle cx="693.1" cy="229.9" r="3" fill="#f28e2b"/><circle cx="746.6" cy="228.8" r="3" fill="#f28e2b"/><circle cx="800.0" cy="221.9" r="3" fill="#f28e2b"/>

  <!-- axes -->
  <line x1="52" y1="28" x2="52" y2="232"
        stroke="#cccccc" stroke-width="1"/>
  <line x1="52" y1="232" x2="800" y2="232"
        stroke="#cccccc" stroke-width="1"/>

  <!-- y-axis labels -->
  <text x="47" y="236.0" text-anchor="end" font-size="10" fill="#57606a" font-family="ui-monospace, SFMono-Regular, 'SF Mono', Menlo, monospace">0</text><text x="47" y="193.3" text-anchor="end" font-size="10" fill="#57606a" font-family="ui-monospace, SFMono-Regular, 'SF Mono', Menlo, monospace">80</text><text x="47" y="150.6" text-anchor="end" font-size="10" fill="#57606a" font-family="ui-monospace, SFMono-Regular, 'SF Mono', Menlo, monospace">160</text><text x="47" y="107.8" text-anchor="end" font-size="10" fill="#57606a" font-family="ui-monospace, SFMono-Regular, 'SF Mono', Menlo, monospace">240</text><text x="47" y="65.1" text-anchor="end" font-size="10" fill="#57606a" font-family="ui-monospace, SFMono-Regular, 'SF Mono', Menlo, monospace">320</text><text x="47" y="22.4" text-anchor="end" font-size="10" fill="#57606a" font-family="ui-monospace, SFMono-Regular, 'SF Mono', Menlo, monospace">400</text>

  <!-- x-axis labels -->
  <text x="52.0" y="248" text-anchor="middle" font-size="10" fill="#8c959f" font-family="ui-monospace, SFMono-Regular, 'SF Mono', Menlo, monospace">05-11</text><text x="105.4" y="248" text-anchor="middle" font-size="10" fill="#8c959f" font-family="ui-monospace, SFMono-Regular, 'SF Mono', Menlo, monospace">05-12</text><text x="158.9" y="248" text-anchor="middle" font-size="10" fill="#8c959f" font-family="ui-monospace, SFMono-Regular, 'SF Mono', Menlo, monospace">05-13</text><text x="212.3" y="248" text-anchor="middle" font-size="10" fill="#8c959f" font-family="ui-monospace, SFMono-Regular, 'SF Mono', Menlo, monospace">05-14</text><text x="265.7" y="248" text-anchor="middle" font-size="10" fill="#8c959f" font-family="ui-monospace, SFMono-Regular, 'SF Mono', Menlo, monospace">05-15</text><text x="319.1" y="248" text-anchor="middle" font-size="10" fill="#8c959f" font-family="ui-monospace, SFMono-Regular, 'SF Mono', Menlo, monospace">05-16</text><text x="372.6" y="248" text-anchor="middle" font-size="10" fill="#8c959f" font-family="ui-monospace, SFMono-Regular, 'SF Mono', Menlo, monospace">05-17</text><text x="426.0" y="248" text-anchor="middle" font-size="10" fill="#8c959f" font-family="ui-monospace, SFMono-Regular, 'SF Mono', Menlo, monospace">05-18</text><text x="479.4" y="248" text-anchor="middle" font-size="10" fill="#8c959f" font-family="ui-monospace, SFMono-Regular, 'SF Mono', Menlo, monospace">05-19</text><text x="532.9" y="248" text-anchor="middle" font-size="10" fill="#8c959f" font-family="ui-monospace, SFMono-Regular, 'SF Mono', Menlo, monospace">05-20</text><text x="586.3" y="248" text-anchor="middle" font-size="10" fill="#8c959f" font-family="ui-monospace, SFMono-Regular, 'SF Mono', Menlo, monospace">05-21</text><text x="639.7" y="248" text-anchor="middle" font-size="10" fill="#8c959f" font-family="ui-monospace, SFMono-Regular, 'SF Mono', Menlo, monospace">05-22</text><text x="693.1" y="248" text-anchor="middle" font-size="10" fill="#8c959f" font-family="ui-monospace, SFMono-Regular, 'SF Mono', Menlo, monospace">05-23</text><text x="746.6" y="248" text-anchor="middle" font-size="10" fill="#8c959f" font-family="ui-monospace, SFMono-Regular, 'SF Mono', Menlo, monospace">05-24</text><text x="800.0" y="248" text-anchor="middle" font-size="10" fill="#8c959f" font-family="ui-monospace, SFMono-Regular, 'SF Mono', Menlo, monospace">05-25</text>

  <!-- legend -->
  <rect x="60" y="262" width="16" height="3" fill="#4e79a7" rx="1"/><text x="80" y="268" font-size="11" fill="#57606a" font-family="-apple-system, BlinkMacSystemFont, 'Segoe UI', sans-serif">Total clones (1,278)</text><line x1="230" y1="264" x2="246" y2="264" stroke="#f28e2b" stroke-width="2" stroke-dasharray="5,3"/><text x="250" y="268" font-size="11" fill="#57606a" font-family="-apple-system, BlinkMacSystemFont, 'Segoe UI', sans-serif">Unique cloners</text>

</svg>