<svg xmlns="http://www.w3.org/2000/svg" viewBox="0 0 820 280" width="820" height="280">

  <!-- title -->
  <text x="52" y="18" font-size="13" font-weight="600"
        fill="#24292f" font-family="-apple-system, BlinkMacSystemFont, 'Segoe UI', sans-serif"
        >Clone traffic — script-helpers</text>
  <text x="800" y="18" font-size="10" fill="#8c959f"
        font-family="ui-monospace, SFMono-Regular, 'SF Mono', Menlo, monospace" text-anchor="end">2026-06-14</text>

  <!-- grid -->
  <line x1="52" y1="232.0" x2="800" y2="232.0" stroke="#e8e8e8" stroke-width="1"/><line x1="52" y1="192.0" x2="800" y2="192.0" stroke="#e8e8e8" stroke-width="1"/><line x1="52" y1="152.0" x2="800" y2="152.0" stroke="#e8e8e8" stroke-width="1"/><line x1="52" y1="112.0" x2="800" y2="112.0" stroke="#e8e8e8" stroke-width="1"/><line x1="52" y1="72.0" x2="800" y2="72.0" stroke="#e8e8e8" stroke-width="1"/><line x1="52" y1="32.0" x2="800" y2="32.0" stroke="#e8e8e8" stroke-width="1"/><line x1="52" y1="-8.0" x2="800" y2="-8.0" stroke="#e8e8e8" stroke-width="1"/>

  <!-- area fill -->
  <path d="M52.0,228.8 L52.0,228.8 L75.4,228.0 L98.8,229.6 L122.1,204.4 L145.5,202.8 L168.9,215.2 L192.2,216.8 L215.6,187.2 L239.0,200.8 L262.4,208.0 L285.8,79.2 L309.1,221.6 L332.5,178.4 L355.9,199.2 L379.2,168.8 L402.6,202.8 L426.0,201.2 L449.4,212.4 L472.8,222.8 L496.1,229.2 L519.5,230.0 L542.9,223.6 L566.2,225.2 L589.6,228.8 L613.0,222.8 L636.4,230.0 L659.8,228.0 L683.1,223.2 L706.5,212.8 L729.9,226.4 L753.2,222.8 L776.6,230.8 L800.0,28.0 L800.0,232.0 L52.0,232.0Z" fill="#4e79a7" opacity="0.12"/>

  <!-- lines -->
  <polyline points="52.0,228.8 75.4,228.0 98.8,229.6 122.1,204.4 145.5,202.8 168.9,215.2 192.2,216.8 215.6,187.2 239.0,200.8 262.4,208.0 285.8,79.2 309.1,221.6 332.5,178.4 355.9,199.2 379.2,168.8 402.6,202.8 426.0,201.2 449.4,212.4 472.8,222.8 496.1,229.2 519.5,230.0 542.9,223.6 566.2,225.2 589.6,228.8 613.0,222.8 636.4,230.0 659.8,228.0 683.1,223.2 706.5,212.8 729.9,226.4 753.2,222.8 776.6,230.8 800.0,28.0"
            fill="none" stroke="#4e79a7"
            stroke-width="2" stroke-linejoin="round"/>
  <polyline points="52.0,230.8 75.4,230.4 98.8,230.8 122.1,230.4 145.5,230.4 168.9,230.8 192.2,230.8 215.6,230.4 239.0,231.2 262.4,230.8 285.8,178.4 309.1,226.0 332.5,230.4 355.9,229.6 379.2,224.4 402.6,227.6 426.0,229.6 449.4,230.0 472.8,228.4 496.1,231.2 519.5,231.2 542.9,231.2 566.2,231.2 589.6,231.2 613.0,230.0 636.4,231.2 659.8,231.2 683.1,230.8 706.5,226.4 729.9,230.0 753.2,230.4 776.6,231.6 800.0,182.4"
            fill="none" stroke="#f28e2b"
            stroke-width="2" stroke-linejoin="round"
            stroke-dasharray="5,3"/>

  <!-- dots -->
  <circle cx="52.0" cy="228.8" r="3" fill="#4e79a7"/><circle cx="75.4" cy="228.0" r="3" fill="#4e79a7"/><circle cx="98.8" cy="229.6" r="3" fill="#4e79a7"/><circle cx="122.1" cy="204.4" r="3" fill="#4e79a7"/><circle cx="145.5" cy="202.8" r="3" fill="#4e79a7"/><circle cx="168.9" cy="215.2" r="3" fill="#4e79a7"/><circle cx="192.2" cy="216.8" r="3" fill="#4e79a7"/><circle cx="215.6" cy="187.2" r="3" fill="#4e79a7"/><circle cx="239.0" cy="200.8" r="3" fill="#4e79a7"/><circle cx="262.4" cy="208.0" r="3" fill="#4e79a7"/><circle cx="285.8" cy="79.2" r="3" fill="#4e79a7"/><circle cx="309.1" cy="221.6" r="3" fill="#4e79a7"/><circle cx="332.5" cy="178.4" r="3" fill="#4e79a7"/><circle cx="355.9" cy="199.2" r="3" fill="#4e79a7"/><circle cx="379.2" cy="168.8" r="3" fill="#4e79a7"/><circle cx="402.6" cy="202.8" r="3" fill="#4e79a7"/><circle cx="426.0" cy="201.2" r="3" fill="#4e79a7"/><circle cx="449.4" cy="212.4" r="3" fill="#4e79a7"/><circle cx="472.8" cy="222.8" r="3" fill="#4e79a7"/><circle cx="496.1" cy="229.2" r="3" fill="#4e79a7"/><circle cx="519.5" cy="230.0" r="3" fill="#4e79a7"/><circle cx="542.9" cy="223.6" r="3" fill="#4e79a7"/><circle cx="566.2" cy="225.2" r="3" fill="#4e79a7"/><circle cx="589.6" cy="228.8" r="3" fill="#4e79a7"/><circle cx="613.0" cy="222.8" r="3" fill="#4e79a7"/><circle cx="636.4" cy="230.0" r="3" fill="#4e79a7"/><circle cx="659.8" cy="228.0" r="3" fill="#4e79a7"/><circle cx="683.1" cy="223.2" r="3" fill="#4e79a7"/><circle cx="706.5" cy="212.8" r="3" fill="#4e79a7"/><circle cx="729.9" cy="226.4" r="3" fill="#4e79a7"/><circle cx="753.2" cy="222.8" r="3" fill="#4e79a7"/><circle cx="776.6" cy="230.8" r="3" fill="#4e79a7"/><circle cx="800.0" cy="28.0" r="3" fill="#4e79a7"/>
  <circle cx="52.0" cy="230.8" r="3" fill="#f28e2b"/><circle cx="75.4" cy="230.4" r="3" fill="#f28e2b"/><circle cx="98.8" cy="230.8" r="3" fill="#f28e2b"/><circle cx="122.1" cy="230.4" r="3" fill="#f28e2b"/><circle cx="145.5" cy="230.4" r="3" fill="#f28e2b"/><circle cx="168.9" cy="230.8" r="3" fill="#f28e2b"/><circle cx="192.2" cy="230.8" r="3" fill="#f28e2b"/><circle cx="215.6" cy="230.4" r="3" fill="#f28e2b"/><circle cx="239.0" cy="231.2" r="3" fill="#f28e2b"/><circle cx="262.4" cy="230.8" r="3" fill="#f28e2b"/><circle cx="285.8" cy="178.4" r="3" fill="#f28e2b"/><circle cx="309.1" cy="226.0" r="3" fill="#f28e2b"/><circle cx="332.5" cy="230.4" r="3" fill="#f28e2b"/><circle cx="355.9" cy="229.6" r="3" fill="#f28e2b"/><circle cx="379.2" cy="224.4" r="3" fill="#f28e2b"/><circle cx="402.6" cy="227.6" r="3" fill="#f28e2b"/><circle cx="426.0" cy="229.6" r="3" fill="#f28e2b"/><circle cx="449.4" cy="230.0" r="3" fill="#f28e2b"/><circle cx="472.8" cy="228.4" r="3" fill="#f28e2b"/><circle cx="496.1" cy="231.2" r="3" fill="#f28e2b"/><circle cx="519.5" cy="231.2" r="3" fill="#f28e2b"/><circle cx="542.9" cy="231.2" r="3" fill="#f28e2b"/><circle cx="566.2" cy="231.2" r="3" fill="#f28e2b"/><circle cx="589.6" cy="231.2" r="3" fill="#f28e2b"/><circle cx="613.0" cy="230.0" r="3" fill="#f28e2b"/><circle cx="636.4" cy="231.2" r="3" fill="#f28e2b"/><circle cx="659.8" cy="231.2" r="3" fill="#f28e2b"/><circle cx="683.1" cy="230.8" r="3" fill="#f28e2b"/><circle cx="706.5" cy="226.4" r="3" fill="#f28e2b"/><circle cx="729.9" cy="230.0" r="3" fill="#f28e2b"/><circle cx="753.2" cy="230.4" r="3" fill="#f28e2b"/><circle cx="776.6" cy="231.6" r="3" fill="#f28e2b"/><circle cx="800.0" cy="182.4" r="3" fill="#f28e2b"/>

  <!-- axes -->
  <line x1="52" y1="28" x2="52" y2="232"
        stroke="#cccccc" stroke-width="1"/>
  <line x1="52" y1="232" x2="800" y2="232"
        stroke="#cccccc" stroke-width="1"/>

  <!-- y-axis labels -->
  <text x="47" y="236.0" text-anchor="end" font-size="10" fill="#57606a" font-family="ui-monospace, SFMono-Regular, 'SF Mono', Menlo, monospace">0</text><text x="47" y="196.0" text-anchor="end" font-size="10" fill="#57606a" font-family="ui-monospace, SFMono-Regular, 'SF Mono', Menlo, monospace">100</text><text x="47" y="156.0" text-anchor="end" font-size="10" fill="#57606a" font-family="ui-monospace, SFMono-Regular, 'SF Mono', Menlo, monospace">200</text><text x="47" y="116.0" text-anchor="end" font-size="10" fill="#57606a" font-family="ui-monospace, SFMono-Regular, 'SF Mono', Menlo, monospace">300</text><text x="47" y="76.0" text-anchor="end" font-size="10" fill="#57606a" font-family="ui-monospace, SFMono-Regular, 'SF Mono', Menlo, monospace">400</text><text x="47" y="36.0" text-anchor="end" font-size="10" fill="#57606a" font-family="ui-monospace, SFMono-Regular, 'SF Mono', Menlo, monospace">500</text><text x="47" y="-4.0" text-anchor="end" font-size="10" fill="#57606a" font-family="ui-monospace, SFMono-Regular, 'SF Mono', Menlo, monospace">600</text>

  <!-- x-axis labels -->
  <text x="52.0" y="248" text-anchor="middle" font-size="10" fill="#8c959f" font-family="ui-monospace, SFMono-Regular, 'SF Mono', Menlo, monospace">05-11</text><text x="800.0" y="248" text-anchor="middle" font-size="10" fill="#8c959f" font-family="ui-monospace, SFMono-Regular, 'SF Mono', Menlo, monospace">06-12</text><text x="145.5" y="248" text-anchor="middle" font-size="10" fill="#8c959f" font-family="ui-monospace, SFMono-Regular, 'SF Mono', Menlo, monospace">05-15</text><text x="239.0" y="248" text-anchor="middle" font-size="10" fill="#8c959f" font-family="ui-monospace, SFMono-Regular, 'SF Mono', Menlo, monospace">05-19</text><text x="332.5" y="248" text-anchor="middle" font-size="10" fill="#8c959f" font-family="ui-monospace, SFMono-Regular, 'SF Mono', Menlo, monospace">05-23</text><text x="426.0" y="248" text-anchor="middle" font-size="10" fill="#8c959f" font-family="ui-monospace, SFMono-Regular, 'SF Mono', Menlo, monospace">05-27</text><text x="519.5" y="248" text-anchor="middle" font-size="10" fill="#8c959f" font-family="ui-monospace, SFMono-Regular, 'SF Mono', Menlo, monospace">05-31</text><text x="613.0" y="248" text-anchor="middle" font-size="10" fill="#8c959f" font-family="ui-monospace, SFMono-Regular, 'SF Mono', Menlo, monospace">06-04</text><text x="706.5" y="248" text-anchor="middle" font-size="10" fill="#8c959f" font-family="ui-monospace, SFMono-Regular, 'SF Mono', Menlo, monospace">06-08</text>

  <!-- legend -->
  <rect x="60" y="262" width="16" height="3" fill="#4e79a7" rx="1"/><text x="80" y="268" font-size="11" fill="#57606a" font-family="-apple-system, BlinkMacSystemFont, 'Segoe UI', sans-serif">Total clones (2,216)</text><line x1="230" y1="264" x2="246" y2="264" stroke="#f28e2b" stroke-width="2" stroke-dasharray="5,3"/><text x="250" y="268" font-size="11" fill="#57606a" font-family="-apple-system, BlinkMacSystemFont, 'Segoe UI', sans-serif">Unique cloners</text>

</svg>