<svg xmlns="http://www.w3.org/2000/svg" viewBox="0 0 820 280" width="820" height="280">

  <!-- title -->
  <text x="52" y="18" font-size="13" font-weight="600"
        fill="#24292f" font-family="-apple-system, BlinkMacSystemFont, 'Segoe UI', sans-serif"
        >Clone traffic — ShelfCast</text>
  <text x="800" y="18" font-size="10" fill="#8c959f"
        font-family="ui-monospace, SFMono-Regular, 'SF Mono', Menlo, monospace" text-anchor="end">2026-07-12</text>

  <!-- grid -->
  <line x1="52" y1="232.0" x2="800" y2="232.0" stroke="#e8e8e8" stroke-width="1"/><line x1="52" y1="192.8" x2="800" y2="192.8" stroke="#e8e8e8" stroke-width="1"/><line x1="52" y1="153.5" x2="800" y2="153.5" stroke="#e8e8e8" stroke-width="1"/><line x1="52" y1="114.3" x2="800" y2="114.3" stroke="#e8e8e8" stroke-width="1"/><line x1="52" y1="75.1" x2="800" y2="75.1" stroke="#e8e8e8" stroke-width="1"/><line x1="52" y1="35.8" x2="800" y2="35.8" stroke="#e8e8e8" stroke-width="1"/><line x1="52" y1="-3.4" x2="800" y2="-3.4" stroke="#e8e8e8" stroke-width="1"/>

  <!-- area fill -->
  <path d="M52.0,232.0 L52.0,232.0 L64.5,231.4 L76.9,230.9 L89.4,232.0 L101.9,231.4 L114.3,232.0 L126.8,232.0 L139.3,231.4 L151.7,230.9 L164.2,232.0 L176.7,232.0 L189.1,231.4 L201.6,232.0 L214.1,28.0 L226.5,194.5 L239.0,167.0 L251.5,230.9 L263.9,232.0 L276.4,231.4 L288.9,231.4 L301.3,230.9 L313.8,232.0 L326.3,231.4 L338.7,230.9 L351.2,232.0 L363.7,231.4 L376.1,231.4 L388.6,232.0 L401.1,232.0 L413.5,231.4 L426.0,230.9 L438.5,230.9 L450.9,231.4 L463.4,230.9 L475.9,232.0 L488.3,232.0 L500.8,231.4 L513.3,232.0 L525.7,77.9 L538.2,223.0 L550.7,232.0 L563.1,231.4 L575.6,222.5 L588.1,227.5 L600.5,230.9 L613.0,232.0 L625.5,230.3 L637.9,232.0 L650.4,232.0 L662.9,232.0 L675.3,232.0 L687.8,227.0 L700.3,232.0 L712.7,230.3 L725.2,231.4 L737.7,231.4 L750.1,232.0 L762.6,226.4 L775.1,232.0 L787.5,232.0 L800.0,232.0 L800.0,232.0 L52.0,232.0Z" fill="#4e79a7" opacity="0.12"/>

  <!-- lines -->
  <polyline points="52.0,232.0 64.5,231.4 76.9,230.9 89.4,232.0 101.9,231.4 114.3,232.0 126.8,232.0 139.3,231.4 151.7,230.9 164.2,232.0 176.7,232.0 189.1,231.4 201.6,232.0 214.1,28.0 226.5,194.5 239.0,167.0 251.5,230.9 263.9,232.0 276.4,231.4 288.9,231.4 301.3,230.9 313.8,232.0 326.3,231.4 338.7,230.9 351.2,232.0 363.7,231.4 376.1,231.4 388.6,232.0 401.1,232.0 413.5,231.4 426.0,230.9 438.5,230.9 450.9,231.4 463.4,230.9 475.9,232.0 488.3,232.0 500.8,231.4 513.3,232.0 525.7,77.9 538.2,223.0 550.7,232.0 563.1,231.4 575.6,222.5 588.1,227.5 600.5,230.9 613.0,232.0 625.5,230.3 637.9,232.0 650.4,232.0 662.9,232.0 675.3,232.0 687.8,227.0 700.3,232.0 712.7,230.3 725.2,231.4 737.7,231.4 750.1,232.0 762.6,226.4 775.1,232.0 787.5,232.0 800.0,232.0"
            fill="none" stroke="#4e79a7"
            stroke-width="2" stroke-linejoin="round"/>
  <polyline points="52.0,232.0 64.5,231.4 76.9,230.9 89.4,232.0 101.9,231.4 114.3,232.0 126.8,232.0 139.3,231.4 151.7,230.9 164.2,232.0 176.7,232.0 189.1,231.4 201.6,232.0 214.1,221.4 226.5,230.9 239.0,215.7 251.5,230.9 263.9,232.0 276.4,231.4 288.9,231.4 301.3,230.9 313.8,232.0 326.3,231.4 338.7,230.9 351.2,232.0 363.7,231.4 376.1,231.4 388.6,232.0 401.1,232.0 413.5,231.4 426.0,230.9 438.5,230.9 450.9,231.4 463.4,231.4 475.9,232.0 488.3,232.0 500.8,231.4 513.3,232.0 525.7,223.0 538.2,226.4 550.7,232.0 563.1,231.4 575.6,229.2 588.1,230.9 600.5,230.9 613.0,232.0 625.5,230.3 637.9,232.0 650.4,232.0 662.9,232.0 675.3,232.0 687.8,228.6 700.3,232.0 712.7,230.3 725.2,231.4 737.7,231.4 750.1,232.0 762.6,231.4 775.1,232.0 787.5,232.0 800.0,232.0"
            fill="none" stroke="#f28e2b"
            stroke-width="2" stroke-linejoin="round"
            stroke-dasharray="5,3"/>

  <!-- dots -->
  <circle cx="52.0" cy="232.0" r="3" fill="#4e79a7"/><circle cx="64.5" cy="231.4" r="3" fill="#4e79a7"/><circle cx="76.9" cy="230.9" r="3" fill="#4e79a7"/><circle cx="89.4" cy="232.0" r="3" fill="#4e79a7"/><circle cx="101.9" cy="231.4" r="3" fill="#4e79a7"/><circle cx="114.3" cy="232.0" r="3" fill="#4e79a7"/><circle cx="126.8" cy="232.0" r="3" fill="#4e79a7"/><circle cx="139.3" cy="231.4" r="3" fill="#4e79a7"/><circle cx="151.7" cy="230.9" r="3" fill="#4e79a7"/><circle cx="164.2" cy="232.0" r="3" fill="#4e79a7"/><circle cx="176.7" cy="232.0" r="3" fill="#4e79a7"/><circle cx="189.1" cy="231.4" r="3" fill="#4e79a7"/><circle cx="201.6" cy="232.0" r="3" fill="#4e79a7"/><circle cx="214.1" cy="28.0" r="3" fill="#4e79a7"/><circle cx="226.5" cy="194.5" r="3" fill="#4e79a7"/><circle cx="239.0" cy="167.0" r="3" fill="#4e79a7"/><circle cx="251.5" cy="230.9" r="3" fill="#4e79a7"/><circle cx="263.9" cy="232.0" r="3" fill="#4e79a7"/><circle cx="276.4" cy="231.4" r="3" fill="#4e79a7"/><circle cx="288.9" cy="231.4" r="3" fill="#4e79a7"/><circle cx="301.3" cy="230.9" r="3" fill="#4e79a7"/><circle cx="313.8" cy="232.0" r="3" fill="#4e79a7"/><circle cx="326.3" cy="231.4" r="3" fill="#4e79a7"/><circle cx="338.7" cy="230.9" r="3" fill="#4e79a7"/><circle cx="351.2" cy="232.0" r="3" fill="#4e79a7"/><circle cx="363.7" cy="231.4" r="3" fill="#4e79a7"/><circle cx="376.1" cy="231.4" r="3" fill="#4e79a7"/><circle cx="388.6" cy="232.0" r="3" fill="#4e79a7"/><circle cx="401.1" cy="232.0" r="3" fill="#4e79a7"/><circle cx="413.5" cy="231.4" r="3" fill="#4e79a7"/><circle cx="426.0" cy="230.9" r="3" fill="#4e79a7"/><circle cx="438.5" cy="230.9" r="3" fill="#4e79a7"/><circle cx="450.9" cy="231.4" r="3" fill="#4e79a7"/><circle cx="463.4" cy="230.9" r="3" fill="#4e79a7"/><circle cx="475.9" cy="232.0" r="3" fill="#4e79a7"/><circle cx="488.3" cy="232.0" r="3" fill="#4e79a7"/><circle cx="500.8" cy="231.4" r="3" fill="#4e79a7"/><circle cx="513.3" cy="232.0" r="3" fill="#4e79a7"/><circle cx="525.7" cy="77.9" r="3" fill="#4e79a7"/><circle cx="538.2" cy="223.0" r="3" fill="#4e79a7"/><circle cx="550.7" cy="232.0" r="3" fill="#4e79a7"/><circle cx="563.1" cy="231.4" r="3" fill="#4e79a7"/><circle cx="575.6" cy="222.5" r="3" fill="#4e79a7"/><circle cx="588.1" cy="227.5" r="3" fill="#4e79a7"/><circle cx="600.5" cy="230.9" r="3" fill="#4e79a7"/><circle cx="613.0" cy="232.0" r="3" fill="#4e79a7"/><circle cx="625.5" cy="230.3" r="3" fill="#4e79a7"/><circle cx="637.9" cy="232.0" r="3" fill="#4e79a7"/><circle cx="650.4" cy="232.0" r="3" fill="#4e79a7"/><circle cx="662.9" cy="232.0" r="3" fill="#4e79a7"/><circle cx="675.3" cy="232.0" r="3" fill="#4e79a7"/><circle cx="687.8" cy="227.0" r="3" fill="#4e79a7"/><circle cx="700.3" cy="232.0" r="3" fill="#4e79a7"/><circle cx="712.7" cy="230.3" r="3" fill="#4e79a7"/><circle cx="725.2" cy="231.4" r="3" fill="#4e79a7"/><circle cx="737.7" cy="231.4" r="3" fill="#4e79a7"/><circle cx="750.1" cy="232.0" r="3" fill="#4e79a7"/><circle cx="762.6" cy="226.4" r="3" fill="#4e79a7"/><circle cx="775.1" cy="232.0" r="3" fill="#4e79a7"/><circle cx="787.5" cy="232.0" r="3" fill="#4e79a7"/><circle cx="800.0" cy="232.0" r="3" fill="#4e79a7"/>
  <circle cx="52.0" cy="232.0" r="3" fill="#f28e2b"/><circle cx="64.5" cy="231.4" r="3" fill="#f28e2b"/><circle cx="76.9" cy="230.9" r="3" fill="#f28e2b"/><circle cx="89.4" cy="232.0" r="3" fill="#f28e2b"/><circle cx="101.9" cy="231.4" r="3" fill="#f28e2b"/><circle cx="114.3" cy="232.0" r="3" fill="#f28e2b"/><circle cx="126.8" cy="232.0" r="3" fill="#f28e2b"/><circle cx="139.3" cy="231.4" r="3" fill="#f28e2b"/><circle cx="151.7" cy="230.9" r="3" fill="#f28e2b"/><circle cx="164.2" cy="232.0" r="3" fill="#f28e2b"/><circle cx="176.7" cy="232.0" r="3" fill="#f28e2b"/><circle cx="189.1" cy="231.4" r="3" fill="#f28e2b"/><circle cx="201.6" cy="232.0" r="3" fill="#f28e2b"/><circle cx="214.1" cy="221.4" r="3" fill="#f28e2b"/><circle cx="226.5" cy="230.9" r="3" fill="#f28e2b"/><circle cx="239.0" cy="215.7" r="3" fill="#f28e2b"/><circle cx="251.5" cy="230.9" r="3" fill="#f28e2b"/><circle cx="263.9" cy="232.0" r="3" fill="#f28e2b"/><circle cx="276.4" cy="231.4" r="3" fill="#f28e2b"/><circle cx="288.9" cy="231.4" r="3" fill="#f28e2b"/><circle cx="301.3" cy="230.9" r="3" fill="#f28e2b"/><circle cx="313.8" cy="232.0" r="3" fill="#f28e2b"/><circle cx="326.3" cy="231.4" r="3" fill="#f28e2b"/><circle cx="338.7" cy="230.9" r="3" fill="#f28e2b"/><circle cx="351.2" cy="232.0" r="3" fill="#f28e2b"/><circle cx="363.7" cy="231.4" r="3" fill="#f28e2b"/><circle cx="376.1" cy="231.4" r="3" fill="#f28e2b"/><circle cx="388.6" cy="232.0" r="3" fill="#f28e2b"/><circle cx="401.1" cy="232.0" r="3" fill="#f28e2b"/><circle cx="413.5" cy="231.4" r="3" fill="#f28e2b"/><circle cx="426.0" cy="230.9" r="3" fill="#f28e2b"/><circle cx="438.5" cy="230.9" r="3" fill="#f28e2b"/><circle cx="450.9" cy="231.4" r="3" fill="#f28e2b"/><circle cx="463.4" cy="231.4" r="3" fill="#f28e2b"/><circle cx="475.9" cy="232.0" r="3" fill="#f28e2b"/><circle cx="488.3" cy="232.0" r="3" fill="#f28e2b"/><circle cx="500.8" cy="231.4" r="3" fill="#f28e2b"/><circle cx="513.3" cy="232.0" r="3" fill="#f28e2b"/><circle cx="525.7" cy="223.0" r="3" fill="#f28e2b"/><circle cx="538.2" cy="226.4" r="3" fill="#f28e2b"/><circle cx="550.7" cy="232.0" r="3" fill="#f28e2b"/><circle cx="563.1" cy="231.4" r="3" fill="#f28e2b"/><circle cx="575.6" cy="229.2" r="3" fill="#f28e2b"/><circle cx="588.1" cy="230.9" r="3" fill="#f28e2b"/><circle cx="600.5" cy="230.9" r="3" fill="#f28e2b"/><circle cx="613.0" cy="232.0" r="3" fill="#f28e2b"/><circle cx="625.5" cy="230.3" r="3" fill="#f28e2b"/><circle cx="637.9" cy="232.0" r="3" fill="#f28e2b"/><circle cx="650.4" cy="232.0" r="3" fill="#f28e2b"/><circle cx="662.9" cy="232.0" r="3" fill="#f28e2b"/><circle cx="675.3" cy="232.0" r="3" fill="#f28e2b"/><circle cx="687.8" cy="228.6" r="3" fill="#f28e2b"/><circle cx="700.3" cy="232.0" r="3" fill="#f28e2b"/><circle cx="712.7" cy="230.3" r="3" fill="#f28e2b"/><circle cx="725.2" cy="231.4" r="3" fill="#f28e2b"/><circle cx="737.7" cy="231.4" r="3" fill="#f28e2b"/><circle cx="750.1" cy="232.0" r="3" fill="#f28e2b"/><circle cx="762.6" cy="231.4" r="3" fill="#f28e2b"/><circle cx="775.1" cy="232.0" r="3" fill="#f28e2b"/><circle cx="787.5" cy="232.0" r="3" fill="#f28e2b"/><circle cx="800.0" cy="232.0" r="3" fill="#f28e2b"/>

  <!-- axes -->
  <line x1="52" y1="28" x2="52" y2="232"
        stroke="#cccccc" stroke-width="1"/>
  <line x1="52" y1="232" x2="800" y2="232"
        stroke="#cccccc" stroke-width="1"/>

  <!-- y-axis labels -->
  <text x="47" y="236.0" text-anchor="end" font-size="10" fill="#57606a" font-family="ui-monospace, SFMono-Regular, 'SF Mono', Menlo, monospace">0</text><text x="47" y="196.8" text-anchor="end" font-size="10" fill="#57606a" font-family="ui-monospace, SFMono-Regular, 'SF Mono', Menlo, monospace">70</text><text x="47" y="157.5" text-anchor="end" font-size="10" fill="#57606a" font-family="ui-monospace, SFMono-Regular, 'SF Mono', Menlo, monospace">140</text><text x="47" y="118.3" text-anchor="end" font-size="10" fill="#57606a" font-family="ui-monospace, SFMono-Regular, 'SF Mono', Menlo, monospace">210</text><text x="47" y="79.1" text-anchor="end" font-size="10" fill="#57606a" font-family="ui-monospace, SFMono-Regular, 'SF Mono', Menlo, monospace">280</text><text x="47" y="39.8" text-anchor="end" font-size="10" fill="#57606a" font-family="ui-monospace, SFMono-Regular, 'SF Mono', Menlo, monospace">350</text><text x="47" y="0.6" text-anchor="end" font-size="10" fill="#57606a" font-family="ui-monospace, SFMono-Regular, 'SF Mono', Menlo, monospace">420</text>

  <!-- x-axis labels -->
  <text x="52.0" y="248" text-anchor="middle" font-size="10" fill="#8c959f" font-family="ui-monospace, SFMono-Regular, 'SF Mono', Menlo, monospace">05-11</text><text x="488.3" y="248" text-anchor="middle" font-size="10" fill="#8c959f" font-family="ui-monospace, SFMono-Regular, 'SF Mono', Menlo, monospace">06-15</text><text x="139.3" y="248" text-anchor="middle" font-size="10" fill="#8c959f" font-family="ui-monospace, SFMono-Regular, 'SF Mono', Menlo, monospace">05-18</text><text x="575.6" y="248" text-anchor="middle" font-size="10" fill="#8c959f" font-family="ui-monospace, SFMono-Regular, 'SF Mono', Menlo, monospace">06-22</text><text x="226.5" y="248" text-anchor="middle" font-size="10" fill="#8c959f" font-family="ui-monospace, SFMono-Regular, 'SF Mono', Menlo, monospace">05-25</text><text x="800.0" y="248" text-anchor="middle" font-size="10" fill="#8c959f" font-family="ui-monospace, SFMono-Regular, 'SF Mono', Menlo, monospace">07-10</text><text x="662.9" y="248" text-anchor="middle" font-size="10" fill="#8c959f" font-family="ui-monospace, SFMono-Regular, 'SF Mono', Menlo, monospace">06-29</text><text x="313.8" y="248" text-anchor="middle" font-size="10" fill="#8c959f" font-family="ui-monospace, SFMono-Regular, 'SF Mono', Menlo, monospace">06-01</text><text x="750.1" y="248" text-anchor="middle" font-size="10" fill="#8c959f" font-family="ui-monospace, SFMono-Regular, 'SF Mono', Menlo, monospace">07-06</text><text x="401.1" y="248" text-anchor="middle" font-size="10" fill="#8c959f" font-family="ui-monospace, SFMono-Regular, 'SF Mono', Menlo, monospace">06-08</text>

  <!-- legend -->
  <rect x="60" y="262" width="16" height="3" fill="#4e79a7" rx="1"/><text x="80" y="268" font-size="11" fill="#57606a" font-family="-apple-system, BlinkMacSystemFont, 'Segoe UI', sans-serif">Total clones (921)</text><line x1="230" y1="264" x2="246" y2="264" stroke="#f28e2b" stroke-width="2" stroke-dasharray="5,3"/><text x="250" y="268" font-size="11" fill="#57606a" font-family="-apple-system, BlinkMacSystemFont, 'Segoe UI', sans-serif">Unique cloners</text>

</svg>