<svg xmlns="http://www.w3.org/2000/svg" viewBox="0 0 820 280" width="820" height="280">

  <!-- title -->
  <text x="52" y="18" font-size="13" font-weight="600"
        fill="#24292f" font-family="-apple-system, BlinkMacSystemFont, 'Segoe UI', sans-serif"
        >Clone traffic — ShelfCast</text>
  <text x="800" y="18" font-size="10" fill="#8c959f"
        font-family="ui-monospace, SFMono-Regular, 'SF Mono', Menlo, monospace" text-anchor="end">2026-07-21</text>

  <!-- grid -->
  <line x1="52" y1="232.0" x2="800" y2="232.0" stroke="#e8e8e8" stroke-width="1"/><line x1="52" y1="192.8" x2="800" y2="192.8" stroke="#e8e8e8" stroke-width="1"/><line x1="52" y1="153.5" x2="800" y2="153.5" stroke="#e8e8e8" stroke-width="1"/><line x1="52" y1="114.3" x2="800" y2="114.3" stroke="#e8e8e8" stroke-width="1"/><line x1="52" y1="75.1" x2="800" y2="75.1" stroke="#e8e8e8" stroke-width="1"/><line x1="52" y1="35.8" x2="800" y2="35.8" stroke="#e8e8e8" stroke-width="1"/><line x1="52" y1="-3.4" x2="800" y2="-3.4" stroke="#e8e8e8" stroke-width="1"/>

  <!-- area fill -->
  <path d="M52.0,232.0 L52.0,232.0 L62.8,231.4 L73.7,230.9 L84.5,232.0 L95.4,231.4 L106.2,232.0 L117.0,232.0 L127.9,231.4 L138.7,230.9 L149.6,232.0 L160.4,232.0 L171.2,231.4 L182.1,232.0 L192.9,28.0 L203.8,194.5 L214.6,167.0 L225.4,230.9 L236.3,232.0 L247.1,231.4 L258.0,231.4 L268.8,230.9 L279.7,232.0 L290.5,231.4 L301.3,230.9 L312.2,232.0 L323.0,231.4 L333.9,231.4 L344.7,232.0 L355.5,232.0 L366.4,231.4 L377.2,230.9 L388.1,230.9 L398.9,231.4 L409.7,230.9 L420.6,232.0 L431.4,232.0 L442.3,231.4 L453.1,232.0 L463.9,77.9 L474.8,223.0 L485.6,232.0 L496.5,231.4 L507.3,222.5 L518.1,227.5 L529.0,230.9 L539.8,232.0 L550.7,230.3 L561.5,232.0 L572.3,232.0 L583.2,232.0 L594.0,232.0 L604.9,227.0 L615.7,232.0 L626.6,230.3 L637.4,231.4 L648.2,231.4 L659.1,232.0 L669.9,226.4 L680.8,232.0 L691.6,232.0 L702.4,232.0 L713.3,232.0 L724.1,231.4 L735.0,232.0 L745.8,232.0 L756.6,232.0 L767.5,232.0 L778.3,232.0 L789.2,232.0 L800.0,231.4 L800.0,232.0 L52.0,232.0Z" fill="#4e79a7" opacity="0.12"/>

  <!-- lines -->
  <polyline points="52.0,232.0 62.8,231.4 73.7,230.9 84.5,232.0 95.4,231.4 106.2,232.0 117.0,232.0 127.9,231.4 138.7,230.9 149.6,232.0 160.4,232.0 171.2,231.4 182.1,232.0 192.9,28.0 203.8,194.5 214.6,167.0 225.4,230.9 236.3,232.0 247.1,231.4 258.0,231.4 268.8,230.9 279.7,232.0 290.5,231.4 301.3,230.9 312.2,232.0 323.0,231.4 333.9,231.4 344.7,232.0 355.5,232.0 366.4,231.4 377.2,230.9 388.1,230.9 398.9,231.4 409.7,230.9 420.6,232.0 431.4,232.0 442.3,231.4 453.1,232.0 463.9,77.9 474.8,223.0 485.6,232.0 496.5,231.4 507.3,222.5 518.1,227.5 529.0,230.9 539.8,232.0 550.7,230.3 561.5,232.0 572.3,232.0 583.2,232.0 594.0,232.0 604.9,227.0 615.7,232.0 626.6,230.3 637.4,231.4 648.2,231.4 659.1,232.0 669.9,226.4 680.8,232.0 691.6,232.0 702.4,232.0 713.3,232.0 724.1,231.4 735.0,232.0 745.8,232.0 756.6,232.0 767.5,232.0 778.3,232.0 789.2,232.0 800.0,231.4"
            fill="none" stroke="#4e79a7"
            stroke-width="2" stroke-linejoin="round"/>
  <polyline points="52.0,232.0 62.8,231.4 73.7,230.9 84.5,232.0 95.4,231.4 106.2,232.0 117.0,232.0 127.9,231.4 138.7,230.9 149.6,232.0 160.4,232.0 171.2,231.4 182.1,232.0 192.9,221.4 203.8,230.9 214.6,215.7 225.4,230.9 236.3,232.0 247.1,231.4 258.0,231.4 268.8,230.9 279.7,232.0 290.5,231.4 301.3,230.9 312.2,232.0 323.0,231.4 333.9,231.4 344.7,232.0 355.5,232.0 366.4,231.4 377.2,230.9 388.1,230.9 398.9,231.4 409.7,231.4 420.6,232.0 431.4,232.0 442.3,231.4 453.1,232.0 463.9,223.0 474.8,226.4 485.6,232.0 496.5,231.4 507.3,229.2 518.1,230.9 529.0,230.9 539.8,232.0 550.7,230.3 561.5,232.0 572.3,232.0 583.2,232.0 594.0,232.0 604.9,228.6 615.7,232.0 626.6,230.3 637.4,231.4 648.2,231.4 659.1,232.0 669.9,231.4 680.8,232.0 691.6,232.0 702.4,232.0 713.3,232.0 724.1,231.4 735.0,232.0 745.8,232.0 756.6,232.0 767.5,232.0 778.3,232.0 789.2,232.0 800.0,231.4"
            fill="none" stroke="#f28e2b"
            stroke-width="2" stroke-linejoin="round"
            stroke-dasharray="5,3"/>

  <!-- dots -->
  <circle cx="52.0" cy="232.0" r="3" fill="#4e79a7"/><circle cx="62.8" cy="231.4" r="3" fill="#4e79a7"/><circle cx="73.7" cy="230.9" r="3" fill="#4e79a7"/><circle cx="84.5" cy="232.0" r="3" fill="#4e79a7"/><circle cx="95.4" cy="231.4" r="3" fill="#4e79a7"/><circle cx="106.2" cy="232.0" r="3" fill="#4e79a7"/><circle cx="117.0" cy="232.0" r="3" fill="#4e79a7"/><circle cx="127.9" cy="231.4" r="3" fill="#4e79a7"/><circle cx="138.7" cy="230.9" r="3" fill="#4e79a7"/><circle cx="149.6" cy="232.0" r="3" fill="#4e79a7"/><circle cx="160.4" cy="232.0" r="3" fill="#4e79a7"/><circle cx="171.2" cy="231.4" r="3" fill="#4e79a7"/><circle cx="182.1" cy="232.0" r="3" fill="#4e79a7"/><circle cx="192.9" cy="28.0" r="3" fill="#4e79a7"/><circle cx="203.8" cy="194.5" r="3" fill="#4e79a7"/><circle cx="214.6" cy="167.0" r="3" fill="#4e79a7"/><circle cx="225.4" cy="230.9" r="3" fill="#4e79a7"/><circle cx="236.3" cy="232.0" r="3" fill="#4e79a7"/><circle cx="247.1" cy="231.4" r="3" fill="#4e79a7"/><circle cx="258.0" cy="231.4" r="3" fill="#4e79a7"/><circle cx="268.8" cy="230.9" r="3" fill="#4e79a7"/><circle cx="279.7" cy="232.0" r="3" fill="#4e79a7"/><circle cx="290.5" cy="231.4" r="3" fill="#4e79a7"/><circle cx="301.3" cy="230.9" r="3" fill="#4e79a7"/><circle cx="312.2" cy="232.0" r="3" fill="#4e79a7"/><circle cx="323.0" cy="231.4" r="3" fill="#4e79a7"/><circle cx="333.9" cy="231.4" r="3" fill="#4e79a7"/><circle cx="344.7" cy="232.0" r="3" fill="#4e79a7"/><circle cx="355.5" cy="232.0" r="3" fill="#4e79a7"/><circle cx="366.4" cy="231.4" r="3" fill="#4e79a7"/><circle cx="377.2" cy="230.9" r="3" fill="#4e79a7"/><circle cx="388.1" cy="230.9" r="3" fill="#4e79a7"/><circle cx="398.9" cy="231.4" r="3" fill="#4e79a7"/><circle cx="409.7" cy="230.9" r="3" fill="#4e79a7"/><circle cx="420.6" cy="232.0" r="3" fill="#4e79a7"/><circle cx="431.4" cy="232.0" r="3" fill="#4e79a7"/><circle cx="442.3" cy="231.4" r="3" fill="#4e79a7"/><circle cx="453.1" cy="232.0" r="3" fill="#4e79a7"/><circle cx="463.9" cy="77.9" r="3" fill="#4e79a7"/><circle cx="474.8" cy="223.0" r="3" fill="#4e79a7"/><circle cx="485.6" cy="232.0" r="3" fill="#4e79a7"/><circle cx="496.5" cy="231.4" r="3" fill="#4e79a7"/><circle cx="507.3" cy="222.5" r="3" fill="#4e79a7"/><circle cx="518.1" cy="227.5" r="3" fill="#4e79a7"/><circle cx="529.0" cy="230.9" r="3" fill="#4e79a7"/><circle cx="539.8" cy="232.0" r="3" fill="#4e79a7"/><circle cx="550.7" cy="230.3" r="3" fill="#4e79a7"/><circle cx="561.5" cy="232.0" r="3" fill="#4e79a7"/><circle cx="572.3" cy="232.0" r="3" fill="#4e79a7"/><circle cx="583.2" cy="232.0" r="3" fill="#4e79a7"/><circle cx="594.0" cy="232.0" r="3" fill="#4e79a7"/><circle cx="604.9" cy="227.0" r="3" fill="#4e79a7"/><circle cx="615.7" cy="232.0" r="3" fill="#4e79a7"/><circle cx="626.6" cy="230.3" r="3" fill="#4e79a7"/><circle cx="637.4" cy="231.4" r="3" fill="#4e79a7"/><circle cx="648.2" cy="231.4" r="3" fill="#4e79a7"/><circle cx="659.1" cy="232.0" r="3" fill="#4e79a7"/><circle cx="669.9" cy="226.4" r="3" fill="#4e79a7"/><circle cx="680.8" cy="232.0" r="3" fill="#4e79a7"/><circle cx="691.6" cy="232.0" r="3" fill="#4e79a7"/><circle cx="702.4" cy="232.0" r="3" fill="#4e79a7"/><circle cx="713.3" cy="232.0" r="3" fill="#4e79a7"/><circle cx="724.1" cy="231.4" r="3" fill="#4e79a7"/><circle cx="735.0" cy="232.0" r="3" fill="#4e79a7"/><circle cx="745.8" cy="232.0" r="3" fill="#4e79a7"/><circle cx="756.6" cy="232.0" r="3" fill="#4e79a7"/><circle cx="767.5" cy="232.0" r="3" fill="#4e79a7"/><circle cx="778.3" cy="232.0" r="3" fill="#4e79a7"/><circle cx="789.2" cy="232.0" r="3" fill="#4e79a7"/><circle cx="800.0" cy="231.4" r="3" fill="#4e79a7"/>
  <circle cx="52.0" cy="232.0" r="3" fill="#f28e2b"/><circle cx="62.8" cy="231.4" r="3" fill="#f28e2b"/><circle cx="73.7" cy="230.9" r="3" fill="#f28e2b"/><circle cx="84.5" cy="232.0" r="3" fill="#f28e2b"/><circle cx="95.4" cy="231.4" r="3" fill="#f28e2b"/><circle cx="106.2" cy="232.0" r="3" fill="#f28e2b"/><circle cx="117.0" cy="232.0" r="3" fill="#f28e2b"/><circle cx="127.9" cy="231.4" r="3" fill="#f28e2b"/><circle cx="138.7" cy="230.9" r="3" fill="#f28e2b"/><circle cx="149.6" cy="232.0" r="3" fill="#f28e2b"/><circle cx="160.4" cy="232.0" r="3" fill="#f28e2b"/><circle cx="171.2" cy="231.4" r="3" fill="#f28e2b"/><circle cx="182.1" cy="232.0" r="3" fill="#f28e2b"/><circle cx="192.9" cy="221.4" r="3" fill="#f28e2b"/><circle cx="203.8" cy="230.9" r="3" fill="#f28e2b"/><circle cx="214.6" cy="215.7" r="3" fill="#f28e2b"/><circle cx="225.4" cy="230.9" r="3" fill="#f28e2b"/><circle cx="236.3" cy="232.0" r="3" fill="#f28e2b"/><circle cx="247.1" cy="231.4" r="3" fill="#f28e2b"/><circle cx="258.0" cy="231.4" r="3" fill="#f28e2b"/><circle cx="268.8" cy="230.9" r="3" fill="#f28e2b"/><circle cx="279.7" cy="232.0" r="3" fill="#f28e2b"/><circle cx="290.5" cy="231.4" r="3" fill="#f28e2b"/><circle cx="301.3" cy="230.9" r="3" fill="#f28e2b"/><circle cx="312.2" cy="232.0" r="3" fill="#f28e2b"/><circle cx="323.0" cy="231.4" r="3" fill="#f28e2b"/><circle cx="333.9" cy="231.4" r="3" fill="#f28e2b"/><circle cx="344.7" cy="232.0" r="3" fill="#f28e2b"/><circle cx="355.5" cy="232.0" r="3" fill="#f28e2b"/><circle cx="366.4" cy="231.4" r="3" fill="#f28e2b"/><circle cx="377.2" cy="230.9" r="3" fill="#f28e2b"/><circle cx="388.1" cy="230.9" r="3" fill="#f28e2b"/><circle cx="398.9" cy="231.4" r="3" fill="#f28e2b"/><circle cx="409.7" cy="231.4" r="3" fill="#f28e2b"/><circle cx="420.6" cy="232.0" r="3" fill="#f28e2b"/><circle cx="431.4" cy="232.0" r="3" fill="#f28e2b"/><circle cx="442.3" cy="231.4" r="3" fill="#f28e2b"/><circle cx="453.1" cy="232.0" r="3" fill="#f28e2b"/><circle cx="463.9" cy="223.0" r="3" fill="#f28e2b"/><circle cx="474.8" cy="226.4" r="3" fill="#f28e2b"/><circle cx="485.6" cy="232.0" r="3" fill="#f28e2b"/><circle cx="496.5" cy="231.4" r="3" fill="#f28e2b"/><circle cx="507.3" cy="229.2" r="3" fill="#f28e2b"/><circle cx="518.1" cy="230.9" r="3" fill="#f28e2b"/><circle cx="529.0" cy="230.9" r="3" fill="#f28e2b"/><circle cx="539.8" cy="232.0" r="3" fill="#f28e2b"/><circle cx="550.7" cy="230.3" r="3" fill="#f28e2b"/><circle cx="561.5" cy="232.0" r="3" fill="#f28e2b"/><circle cx="572.3" cy="232.0" r="3" fill="#f28e2b"/><circle cx="583.2" cy="232.0" r="3" fill="#f28e2b"/><circle cx="594.0" cy="232.0" r="3" fill="#f28e2b"/><circle cx="604.9" cy="228.6" r="3" fill="#f28e2b"/><circle cx="615.7" cy="232.0" r="3" fill="#f28e2b"/><circle cx="626.6" cy="230.3" r="3" fill="#f28e2b"/><circle cx="637.4" cy="231.4" r="3" fill="#f28e2b"/><circle cx="648.2" cy="231.4" r="3" fill="#f28e2b"/><circle cx="659.1" cy="232.0" r="3" fill="#f28e2b"/><circle cx="669.9" cy="231.4" r="3" fill="#f28e2b"/><circle cx="680.8" cy="232.0" r="3" fill="#f28e2b"/><circle cx="691.6" cy="232.0" r="3" fill="#f28e2b"/><circle cx="702.4" cy="232.0" r="3" fill="#f28e2b"/><circle cx="713.3" cy="232.0" r="3" fill="#f28e2b"/><circle cx="724.1" cy="231.4" r="3" fill="#f28e2b"/><circle cx="735.0" cy="232.0" r="3" fill="#f28e2b"/><circle cx="745.8" cy="232.0" r="3" fill="#f28e2b"/><circle cx="756.6" cy="232.0" r="3" fill="#f28e2b"/><circle cx="767.5" cy="232.0" r="3" fill="#f28e2b"/><circle cx="778.3" cy="232.0" r="3" fill="#f28e2b"/><circle cx="789.2" cy="232.0" r="3" fill="#f28e2b"/><circle cx="800.0" cy="231.4" r="3" fill="#f28e2b"/>

  <!-- axes -->
  <line x1="52" y1="28" x2="52" y2="232"
        stroke="#cccccc" stroke-width="1"/>
  <line x1="52" y1="232" x2="800" y2="232"
        stroke="#cccccc" stroke-width="1"/>

  <!-- y-axis labels -->
  <text x="47" y="236.0" text-anchor="end" font-size="10" fill="#57606a" font-family="ui-monospace, SFMono-Regular, 'SF Mono', Menlo, monospace">0</text><text x="47" y="196.8" text-anchor="end" font-size="10" fill="#57606a" font-family="ui-monospace, SFMono-Regular, 'SF Mono', Menlo, monospace">70</text><text x="47" y="157.5" text-anchor="end" font-size="10" fill="#57606a" font-family="ui-monospace, SFMono-Regular, 'SF Mono', Menlo, monospace">140</text><text x="47" y="118.3" text-anchor="end" font-size="10" fill="#57606a" font-family="ui-monospace, SFMono-Regular, 'SF Mono', Menlo, monospace">210</text><text x="47" y="79.1" text-anchor="end" font-size="10" fill="#57606a" font-family="ui-monospace, SFMono-Regular, 'SF Mono', Menlo, monospace">280</text><text x="47" y="39.8" text-anchor="end" font-size="10" fill="#57606a" font-family="ui-monospace, SFMono-Regular, 'SF Mono', Menlo, monospace">350</text><text x="47" y="0.6" text-anchor="end" font-size="10" fill="#57606a" font-family="ui-monospace, SFMono-Regular, 'SF Mono', Menlo, monospace">420</text>

  <!-- x-axis labels -->
  <text x="52.0" y="248" text-anchor="middle" font-size="10" fill="#8c959f" font-family="ui-monospace, SFMono-Regular, 'SF Mono', Menlo, monospace">05-11</text><text x="398.9" y="248" text-anchor="middle" font-size="10" fill="#8c959f" font-family="ui-monospace, SFMono-Regular, 'SF Mono', Menlo, monospace">06-12</text><text x="745.8" y="248" text-anchor="middle" font-size="10" fill="#8c959f" font-family="ui-monospace, SFMono-Regular, 'SF Mono', Menlo, monospace">07-14</text><text x="800.0" y="248" text-anchor="middle" font-size="10" fill="#8c959f" font-family="ui-monospace, SFMono-Regular, 'SF Mono', Menlo, monospace">07-19</text><text x="138.7" y="248" text-anchor="middle" font-size="10" fill="#8c959f" font-family="ui-monospace, SFMono-Regular, 'SF Mono', Menlo, monospace">05-19</text><text x="485.6" y="248" text-anchor="middle" font-size="10" fill="#8c959f" font-family="ui-monospace, SFMono-Regular, 'SF Mono', Menlo, monospace">06-20</text><text x="225.4" y="248" text-anchor="middle" font-size="10" fill="#8c959f" font-family="ui-monospace, SFMono-Regular, 'SF Mono', Menlo, monospace">05-27</text><text x="572.3" y="248" text-anchor="middle" font-size="10" fill="#8c959f" font-family="ui-monospace, SFMono-Regular, 'SF Mono', Menlo, monospace">06-28</text><text x="312.2" y="248" text-anchor="middle" font-size="10" fill="#8c959f" font-family="ui-monospace, SFMono-Regular, 'SF Mono', Menlo, monospace">06-04</text><text x="659.1" y="248" text-anchor="middle" font-size="10" fill="#8c959f" font-family="ui-monospace, SFMono-Regular, 'SF Mono', Menlo, monospace">07-06</text>

  <!-- legend -->
  <rect x="60" y="262" width="16" height="3" fill="#4e79a7" rx="1"/><text x="80" y="268" font-size="11" fill="#57606a" font-family="-apple-system, BlinkMacSystemFont, 'Segoe UI', sans-serif">Total clones (923)</text><line x1="230" y1="264" x2="246" y2="264" stroke="#f28e2b" stroke-width="2" stroke-dasharray="5,3"/><text x="250" y="268" font-size="11" fill="#57606a" font-family="-apple-system, BlinkMacSystemFont, 'Segoe UI', sans-serif">Unique cloners</text>

</svg>