<svg xmlns="http://www.w3.org/2000/svg" viewBox="0 0 820 280" width="820" height="280">

  <!-- title -->
  <text x="52" y="18" font-size="13" font-weight="600"
        fill="#24292f" font-family="-apple-system, BlinkMacSystemFont, 'Segoe UI', sans-serif"
        >Clone traffic — ShelfCast</text>
  <text x="800" y="18" font-size="10" fill="#8c959f"
        font-family="ui-monospace, SFMono-Regular, 'SF Mono', Menlo, monospace" text-anchor="end">2026-06-11</text>

  <!-- grid -->
  <line x1="52" y1="232.0" x2="800" y2="232.0" stroke="#e8e8e8" stroke-width="1"/><line x1="52" y1="192.8" x2="800" y2="192.8" stroke="#e8e8e8" stroke-width="1"/><line x1="52" y1="153.5" x2="800" y2="153.5" stroke="#e8e8e8" stroke-width="1"/><line x1="52" y1="114.3" x2="800" y2="114.3" stroke="#e8e8e8" stroke-width="1"/><line x1="52" y1="75.1" x2="800" y2="75.1" stroke="#e8e8e8" stroke-width="1"/><line x1="52" y1="35.8" x2="800" y2="35.8" stroke="#e8e8e8" stroke-width="1"/><line x1="52" y1="-3.4" x2="800" y2="-3.4" stroke="#e8e8e8" stroke-width="1"/>

  <!-- area fill -->
  <path d="M52.0,232.0 L52.0,232.0 L78.7,231.4 L105.4,230.9 L132.1,232.0 L158.9,231.4 L185.6,232.0 L212.3,232.0 L239.0,231.4 L265.7,230.9 L292.4,232.0 L319.1,232.0 L345.9,231.4 L372.6,232.0 L399.3,28.0 L426.0,194.5 L452.7,167.0 L479.4,230.9 L506.1,232.0 L532.9,231.4 L559.6,231.4 L586.3,230.9 L613.0,232.0 L639.7,231.4 L666.4,230.9 L693.1,232.0 L719.9,231.4 L746.6,231.4 L773.3,232.0 L800.0,232.0 L800.0,232.0 L52.0,232.0Z" fill="#4e79a7" opacity="0.12"/>

  <!-- lines -->
  <polyline points="52.0,232.0 78.7,231.4 105.4,230.9 132.1,232.0 158.9,231.4 185.6,232.0 212.3,232.0 239.0,231.4 265.7,230.9 292.4,232.0 319.1,232.0 345.9,231.4 372.6,232.0 399.3,28.0 426.0,194.5 452.7,167.0 479.4,230.9 506.1,232.0 532.9,231.4 559.6,231.4 586.3,230.9 613.0,232.0 639.7,231.4 666.4,230.9 693.1,232.0 719.9,231.4 746.6,231.4 773.3,232.0 800.0,232.0"
            fill="none" stroke="#4e79a7"
            stroke-width="2" stroke-linejoin="round"/>
  <polyline points="52.0,232.0 78.7,231.4 105.4,230.9 132.1,232.0 158.9,231.4 185.6,232.0 212.3,232.0 239.0,231.4 265.7,230.9 292.4,232.0 319.1,232.0 345.9,231.4 372.6,232.0 399.3,221.4 426.0,230.9 452.7,215.7 479.4,230.9 506.1,232.0 532.9,231.4 559.6,231.4 586.3,230.9 613.0,232.0 639.7,231.4 666.4,230.9 693.1,232.0 719.9,231.4 746.6,231.4 773.3,232.0 800.0,232.0"
            fill="none" stroke="#f28e2b"
            stroke-width="2" stroke-linejoin="round"
            stroke-dasharray="5,3"/>

  <!-- dots -->
  <circle cx="52.0" cy="232.0" r="3" fill="#4e79a7"/><circle cx="78.7" cy="231.4" r="3" fill="#4e79a7"/><circle cx="105.4" cy="230.9" r="3" fill="#4e79a7"/><circle cx="132.1" cy="232.0" r="3" fill="#4e79a7"/><circle cx="158.9" cy="231.4" r="3" fill="#4e79a7"/><circle cx="185.6" cy="232.0" r="3" fill="#4e79a7"/><circle cx="212.3" cy="232.0" r="3" fill="#4e79a7"/><circle cx="239.0" cy="231.4" r="3" fill="#4e79a7"/><circle cx="265.7" cy="230.9" r="3" fill="#4e79a7"/><circle cx="292.4" cy="232.0" r="3" fill="#4e79a7"/><circle cx="319.1" cy="232.0" r="3" fill="#4e79a7"/><circle cx="345.9" cy="231.4" r="3" fill="#4e79a7"/><circle cx="372.6" cy="232.0" r="3" fill="#4e79a7"/><circle cx="399.3" cy="28.0" r="3" fill="#4e79a7"/><circle cx="426.0" cy="194.5" r="3" fill="#4e79a7"/><circle cx="452.7" cy="167.0" r="3" fill="#4e79a7"/><circle cx="479.4" cy="230.9" r="3" fill="#4e79a7"/><circle cx="506.1" cy="232.0" r="3" fill="#4e79a7"/><circle cx="532.9" cy="231.4" r="3" fill="#4e79a7"/><circle cx="559.6" cy="231.4" r="3" fill="#4e79a7"/><circle cx="586.3" cy="230.9" r="3" fill="#4e79a7"/><circle cx="613.0" cy="232.0" r="3" fill="#4e79a7"/><circle cx="639.7" cy="231.4" r="3" fill="#4e79a7"/><circle cx="666.4" cy="230.9" r="3" fill="#4e79a7"/><circle cx="693.1" cy="232.0" r="3" fill="#4e79a7"/><circle cx="719.9" cy="231.4" r="3" fill="#4e79a7"/><circle cx="746.6" cy="231.4" r="3" fill="#4e79a7"/><circle cx="773.3" cy="232.0" r="3" fill="#4e79a7"/><circle cx="800.0" cy="232.0" r="3" fill="#4e79a7"/>
  <circle cx="52.0" cy="232.0" r="3" fill="#f28e2b"/><circle cx="78.7" cy="231.4" r="3" fill="#f28e2b"/><circle cx="105.4" cy="230.9" r="3" fill="#f28e2b"/><circle cx="132.1" cy="232.0" r="3" fill="#f28e2b"/><circle cx="158.9" cy="231.4" r="3" fill="#f28e2b"/><circle cx="185.6" cy="232.0" r="3" fill="#f28e2b"/><circle cx="212.3" cy="232.0" r="3" fill="#f28e2b"/><circle cx="239.0" cy="231.4" r="3" fill="#f28e2b"/><circle cx="265.7" cy="230.9" r="3" fill="#f28e2b"/><circle cx="292.4" cy="232.0" r="3" fill="#f28e2b"/><circle cx="319.1" cy="232.0" r="3" fill="#f28e2b"/><circle cx="345.9" cy="231.4" r="3" fill="#f28e2b"/><circle cx="372.6" cy="232.0" r="3" fill="#f28e2b"/><circle cx="399.3" cy="221.4" r="3" fill="#f28e2b"/><circle cx="426.0" cy="230.9" r="3" fill="#f28e2b"/><circle cx="452.7" cy="215.7" r="3" fill="#f28e2b"/><circle cx="479.4" cy="230.9" r="3" fill="#f28e2b"/><circle cx="506.1" cy="232.0" r="3" fill="#f28e2b"/><circle cx="532.9" cy="231.4" r="3" fill="#f28e2b"/><circle cx="559.6" cy="231.4" r="3" fill="#f28e2b"/><circle cx="586.3" cy="230.9" r="3" fill="#f28e2b"/><circle cx="613.0" cy="232.0" r="3" fill="#f28e2b"/><circle cx="639.7" cy="231.4" r="3" fill="#f28e2b"/><circle cx="666.4" cy="230.9" r="3" fill="#f28e2b"/><circle cx="693.1" cy="232.0" r="3" fill="#f28e2b"/><circle cx="719.9" cy="231.4" r="3" fill="#f28e2b"/><circle cx="746.6" cy="231.4" r="3" fill="#f28e2b"/><circle cx="773.3" cy="232.0" r="3" fill="#f28e2b"/><circle cx="800.0" cy="232.0" r="3" fill="#f28e2b"/>

  <!-- axes -->
  <line x1="52" y1="28" x2="52" y2="232"
        stroke="#cccccc" stroke-width="1"/>
  <line x1="52" y1="232" x2="800" y2="232"
        stroke="#cccccc" stroke-width="1"/>

  <!-- y-axis labels -->
  <text x="47" y="236.0" text-anchor="end" font-size="10" fill="#57606a" font-family="ui-monospace, SFMono-Regular, 'SF Mono', Menlo, monospace">0</text><text x="47" y="196.8" text-anchor="end" font-size="10" fill="#57606a" font-family="ui-monospace, SFMono-Regular, 'SF Mono', Menlo, monospace">70</text><text x="47" y="157.5" text-anchor="end" font-size="10" fill="#57606a" font-family="ui-monospace, SFMono-Regular, 'SF Mono', Menlo, monospace">140</text><text x="47" y="118.3" text-anchor="end" font-size="10" fill="#57606a" font-family="ui-monospace, SFMono-Regular, 'SF Mono', Menlo, monospace">210</text><text x="47" y="79.1" text-anchor="end" font-size="10" fill="#57606a" font-family="ui-monospace, SFMono-Regular, 'SF Mono', Menlo, monospace">280</text><text x="47" y="39.8" text-anchor="end" font-size="10" fill="#57606a" font-family="ui-monospace, SFMono-Regular, 'SF Mono', Menlo, monospace">350</text><text x="47" y="0.6" text-anchor="end" font-size="10" fill="#57606a" font-family="ui-monospace, SFMono-Regular, 'SF Mono', Menlo, monospace">420</text>

  <!-- x-axis labels -->
  <text x="52.0" y="248" text-anchor="middle" font-size="10" fill="#8c959f" font-family="ui-monospace, SFMono-Regular, 'SF Mono', Menlo, monospace">05-11</text><text x="132.1" y="248" text-anchor="middle" font-size="10" fill="#8c959f" font-family="ui-monospace, SFMono-Regular, 'SF Mono', Menlo, monospace">05-14</text><text x="212.3" y="248" text-anchor="middle" font-size="10" fill="#8c959f" font-family="ui-monospace, SFMono-Regular, 'SF Mono', Menlo, monospace">05-17</text><text x="292.4" y="248" text-anchor="middle" font-size="10" fill="#8c959f" font-family="ui-monospace, SFMono-Regular, 'SF Mono', Menlo, monospace">05-20</text><text x="372.6" y="248" text-anchor="middle" font-size="10" fill="#8c959f" font-family="ui-monospace, SFMono-Regular, 'SF Mono', Menlo, monospace">05-23</text><text x="452.7" y="248" text-anchor="middle" font-size="10" fill="#8c959f" font-family="ui-monospace, SFMono-Regular, 'SF Mono', Menlo, monospace">05-26</text><text x="532.9" y="248" text-anchor="middle" font-size="10" fill="#8c959f" font-family="ui-monospace, SFMono-Regular, 'SF Mono', Menlo, monospace">05-29</text><text x="613.0" y="248" text-anchor="middle" font-size="10" fill="#8c959f" font-family="ui-monospace, SFMono-Regular, 'SF Mono', Menlo, monospace">06-01</text><text x="693.1" y="248" text-anchor="middle" font-size="10" fill="#8c959f" font-family="ui-monospace, SFMono-Regular, 'SF Mono', Menlo, monospace">06-04</text><text x="773.3" y="248" text-anchor="middle" font-size="10" fill="#8c959f" font-family="ui-monospace, SFMono-Regular, 'SF Mono', Menlo, monospace">06-07</text><text x="800.0" y="248" text-anchor="middle" font-size="10" fill="#8c959f" font-family="ui-monospace, SFMono-Regular, 'SF Mono', Menlo, monospace">06-08</text>

  <!-- legend -->
  <rect x="60" y="262" width="16" height="3" fill="#4e79a7" rx="1"/><text x="80" y="268" font-size="11" fill="#57606a" font-family="-apple-system, BlinkMacSystemFont, 'Segoe UI', sans-serif">Total clones (566)</text><line x1="230" y1="264" x2="246" y2="264" stroke="#f28e2b" stroke-width="2" stroke-dasharray="5,3"/><text x="250" y="268" font-size="11" fill="#57606a" font-family="-apple-system, BlinkMacSystemFont, 'Segoe UI', sans-serif">Unique cloners</text>

</svg>