<svg xmlns="http://www.w3.org/2000/svg" viewBox="0 0 820 280" width="820" height="280">

  <!-- title -->
  <text x="52" y="18" font-size="13" font-weight="600"
        fill="#24292f" font-family="-apple-system, BlinkMacSystemFont, 'Segoe UI', sans-serif"
        >Clone traffic — ShelfCast</text>
  <text x="800" y="18" font-size="10" fill="#8c959f"
        font-family="ui-monospace, SFMono-Regular, 'SF Mono', Menlo, monospace" text-anchor="end">2026-07-16</text>

  <!-- grid -->
  <line x1="52" y1="232.0" x2="800" y2="232.0" stroke="#e8e8e8" stroke-width="1"/><line x1="52" y1="192.8" x2="800" y2="192.8" stroke="#e8e8e8" stroke-width="1"/><line x1="52" y1="153.5" x2="800" y2="153.5" stroke="#e8e8e8" stroke-width="1"/><line x1="52" y1="114.3" x2="800" y2="114.3" stroke="#e8e8e8" stroke-width="1"/><line x1="52" y1="75.1" x2="800" y2="75.1" stroke="#e8e8e8" stroke-width="1"/><line x1="52" y1="35.8" x2="800" y2="35.8" stroke="#e8e8e8" stroke-width="1"/><line x1="52" y1="-3.4" x2="800" y2="-3.4" stroke="#e8e8e8" stroke-width="1"/>

  <!-- area fill -->
  <path d="M52.0,232.0 L52.0,232.0 L63.7,231.4 L75.4,230.9 L87.1,232.0 L98.8,231.4 L110.4,232.0 L122.1,232.0 L133.8,231.4 L145.5,230.9 L157.2,232.0 L168.9,232.0 L180.6,231.4 L192.2,232.0 L203.9,28.0 L215.6,194.5 L227.3,167.0 L239.0,230.9 L250.7,232.0 L262.4,231.4 L274.1,231.4 L285.8,230.9 L297.4,232.0 L309.1,231.4 L320.8,230.9 L332.5,232.0 L344.2,231.4 L355.9,231.4 L367.6,232.0 L379.2,232.0 L390.9,231.4 L402.6,230.9 L414.3,230.9 L426.0,231.4 L437.7,230.9 L449.4,232.0 L461.1,232.0 L472.8,231.4 L484.4,232.0 L496.1,77.9 L507.8,223.0 L519.5,232.0 L531.2,231.4 L542.9,222.5 L554.6,227.5 L566.2,230.9 L577.9,232.0 L589.6,230.3 L601.3,232.0 L613.0,232.0 L624.7,232.0 L636.4,232.0 L648.1,227.0 L659.8,232.0 L671.4,230.3 L683.1,231.4 L694.8,231.4 L706.5,232.0 L718.2,226.4 L729.9,232.0 L741.6,232.0 L753.2,232.0 L764.9,232.0 L776.6,231.4 L788.3,232.0 L800.0,232.0 L800.0,232.0 L52.0,232.0Z" fill="#4e79a7" opacity="0.12"/>

  <!-- lines -->
  <polyline points="52.0,232.0 63.7,231.4 75.4,230.9 87.1,232.0 98.8,231.4 110.4,232.0 122.1,232.0 133.8,231.4 145.5,230.9 157.2,232.0 168.9,232.0 180.6,231.4 192.2,232.0 203.9,28.0 215.6,194.5 227.3,167.0 239.0,230.9 250.7,232.0 262.4,231.4 274.1,231.4 285.8,230.9 297.4,232.0 309.1,231.4 320.8,230.9 332.5,232.0 344.2,231.4 355.9,231.4 367.6,232.0 379.2,232.0 390.9,231.4 402.6,230.9 414.3,230.9 426.0,231.4 437.7,230.9 449.4,232.0 461.1,232.0 472.8,231.4 484.4,232.0 496.1,77.9 507.8,223.0 519.5,232.0 531.2,231.4 542.9,222.5 554.6,227.5 566.2,230.9 577.9,232.0 589.6,230.3 601.3,232.0 613.0,232.0 624.7,232.0 636.4,232.0 648.1,227.0 659.8,232.0 671.4,230.3 683.1,231.4 694.8,231.4 706.5,232.0 718.2,226.4 729.9,232.0 741.6,232.0 753.2,232.0 764.9,232.0 776.6,231.4 788.3,232.0 800.0,232.0"
            fill="none" stroke="#4e79a7"
            stroke-width="2" stroke-linejoin="round"/>
  <polyline points="52.0,232.0 63.7,231.4 75.4,230.9 87.1,232.0 98.8,231.4 110.4,232.0 122.1,232.0 133.8,231.4 145.5,230.9 157.2,232.0 168.9,232.0 180.6,231.4 192.2,232.0 203.9,221.4 215.6,230.9 227.3,215.7 239.0,230.9 250.7,232.0 262.4,231.4 274.1,231.4 285.8,230.9 297.4,232.0 309.1,231.4 320.8,230.9 332.5,232.0 344.2,231.4 355.9,231.4 367.6,232.0 379.2,232.0 390.9,231.4 402.6,230.9 414.3,230.9 426.0,231.4 437.7,231.4 449.4,232.0 461.1,232.0 472.8,231.4 484.4,232.0 496.1,223.0 507.8,226.4 519.5,232.0 531.2,231.4 542.9,229.2 554.6,230.9 566.2,230.9 577.9,232.0 589.6,230.3 601.3,232.0 613.0,232.0 624.7,232.0 636.4,232.0 648.1,228.6 659.8,232.0 671.4,230.3 683.1,231.4 694.8,231.4 706.5,232.0 718.2,231.4 729.9,232.0 741.6,232.0 753.2,232.0 764.9,232.0 776.6,231.4 788.3,232.0 800.0,232.0"
            fill="none" stroke="#f28e2b"
            stroke-width="2" stroke-linejoin="round"
            stroke-dasharray="5,3"/>

  <!-- dots -->
  <circle cx="52.0" cy="232.0" r="3" fill="#4e79a7"/><circle cx="63.7" cy="231.4" r="3" fill="#4e79a7"/><circle cx="75.4" cy="230.9" r="3" fill="#4e79a7"/><circle cx="87.1" cy="232.0" r="3" fill="#4e79a7"/><circle cx="98.8" cy="231.4" r="3" fill="#4e79a7"/><circle cx="110.4" cy="232.0" r="3" fill="#4e79a7"/><circle cx="122.1" cy="232.0" r="3" fill="#4e79a7"/><circle cx="133.8" cy="231.4" r="3" fill="#4e79a7"/><circle cx="145.5" cy="230.9" r="3" fill="#4e79a7"/><circle cx="157.2" cy="232.0" r="3" fill="#4e79a7"/><circle cx="168.9" cy="232.0" r="3" fill="#4e79a7"/><circle cx="180.6" cy="231.4" r="3" fill="#4e79a7"/><circle cx="192.2" cy="232.0" r="3" fill="#4e79a7"/><circle cx="203.9" cy="28.0" r="3" fill="#4e79a7"/><circle cx="215.6" cy="194.5" r="3" fill="#4e79a7"/><circle cx="227.3" cy="167.0" r="3" fill="#4e79a7"/><circle cx="239.0" cy="230.9" r="3" fill="#4e79a7"/><circle cx="250.7" cy="232.0" r="3" fill="#4e79a7"/><circle cx="262.4" cy="231.4" r="3" fill="#4e79a7"/><circle cx="274.1" cy="231.4" r="3" fill="#4e79a7"/><circle cx="285.8" cy="230.9" r="3" fill="#4e79a7"/><circle cx="297.4" cy="232.0" r="3" fill="#4e79a7"/><circle cx="309.1" cy="231.4" r="3" fill="#4e79a7"/><circle cx="320.8" cy="230.9" r="3" fill="#4e79a7"/><circle cx="332.5" cy="232.0" r="3" fill="#4e79a7"/><circle cx="344.2" cy="231.4" r="3" fill="#4e79a7"/><circle cx="355.9" cy="231.4" r="3" fill="#4e79a7"/><circle cx="367.6" cy="232.0" r="3" fill="#4e79a7"/><circle cx="379.2" cy="232.0" r="3" fill="#4e79a7"/><circle cx="390.9" cy="231.4" r="3" fill="#4e79a7"/><circle cx="402.6" cy="230.9" r="3" fill="#4e79a7"/><circle cx="414.3" cy="230.9" r="3" fill="#4e79a7"/><circle cx="426.0" cy="231.4" r="3" fill="#4e79a7"/><circle cx="437.7" cy="230.9" r="3" fill="#4e79a7"/><circle cx="449.4" cy="232.0" r="3" fill="#4e79a7"/><circle cx="461.1" cy="232.0" r="3" fill="#4e79a7"/><circle cx="472.8" cy="231.4" r="3" fill="#4e79a7"/><circle cx="484.4" cy="232.0" r="3" fill="#4e79a7"/><circle cx="496.1" cy="77.9" r="3" fill="#4e79a7"/><circle cx="507.8" cy="223.0" r="3" fill="#4e79a7"/><circle cx="519.5" cy="232.0" r="3" fill="#4e79a7"/><circle cx="531.2" cy="231.4" r="3" fill="#4e79a7"/><circle cx="542.9" cy="222.5" r="3" fill="#4e79a7"/><circle cx="554.6" cy="227.5" r="3" fill="#4e79a7"/><circle cx="566.2" cy="230.9" r="3" fill="#4e79a7"/><circle cx="577.9" cy="232.0" r="3" fill="#4e79a7"/><circle cx="589.6" cy="230.3" r="3" fill="#4e79a7"/><circle cx="601.3" cy="232.0" r="3" fill="#4e79a7"/><circle cx="613.0" cy="232.0" r="3" fill="#4e79a7"/><circle cx="624.7" cy="232.0" r="3" fill="#4e79a7"/><circle cx="636.4" cy="232.0" r="3" fill="#4e79a7"/><circle cx="648.1" cy="227.0" r="3" fill="#4e79a7"/><circle cx="659.8" cy="232.0" r="3" fill="#4e79a7"/><circle cx="671.4" cy="230.3" r="3" fill="#4e79a7"/><circle cx="683.1" cy="231.4" r="3" fill="#4e79a7"/><circle cx="694.8" cy="231.4" r="3" fill="#4e79a7"/><circle cx="706.5" cy="232.0" r="3" fill="#4e79a7"/><circle cx="718.2" cy="226.4" r="3" fill="#4e79a7"/><circle cx="729.9" cy="232.0" r="3" fill="#4e79a7"/><circle cx="741.6" cy="232.0" r="3" fill="#4e79a7"/><circle cx="753.2" cy="232.0" r="3" fill="#4e79a7"/><circle cx="764.9" cy="232.0" r="3" fill="#4e79a7"/><circle cx="776.6" cy="231.4" r="3" fill="#4e79a7"/><circle cx="788.3" cy="232.0" r="3" fill="#4e79a7"/><circle cx="800.0" cy="232.0" r="3" fill="#4e79a7"/>
  <circle cx="52.0" cy="232.0" r="3" fill="#f28e2b"/><circle cx="63.7" cy="231.4" r="3" fill="#f28e2b"/><circle cx="75.4" cy="230.9" r="3" fill="#f28e2b"/><circle cx="87.1" cy="232.0" r="3" fill="#f28e2b"/><circle cx="98.8" cy="231.4" r="3" fill="#f28e2b"/><circle cx="110.4" cy="232.0" r="3" fill="#f28e2b"/><circle cx="122.1" cy="232.0" r="3" fill="#f28e2b"/><circle cx="133.8" cy="231.4" r="3" fill="#f28e2b"/><circle cx="145.5" cy="230.9" r="3" fill="#f28e2b"/><circle cx="157.2" cy="232.0" r="3" fill="#f28e2b"/><circle cx="168.9" cy="232.0" r="3" fill="#f28e2b"/><circle cx="180.6" cy="231.4" r="3" fill="#f28e2b"/><circle cx="192.2" cy="232.0" r="3" fill="#f28e2b"/><circle cx="203.9" cy="221.4" r="3" fill="#f28e2b"/><circle cx="215.6" cy="230.9" r="3" fill="#f28e2b"/><circle cx="227.3" cy="215.7" r="3" fill="#f28e2b"/><circle cx="239.0" cy="230.9" r="3" fill="#f28e2b"/><circle cx="250.7" cy="232.0" r="3" fill="#f28e2b"/><circle cx="262.4" cy="231.4" r="3" fill="#f28e2b"/><circle cx="274.1" cy="231.4" r="3" fill="#f28e2b"/><circle cx="285.8" cy="230.9" r="3" fill="#f28e2b"/><circle cx="297.4" cy="232.0" r="3" fill="#f28e2b"/><circle cx="309.1" cy="231.4" r="3" fill="#f28e2b"/><circle cx="320.8" cy="230.9" r="3" fill="#f28e2b"/><circle cx="332.5" cy="232.0" r="3" fill="#f28e2b"/><circle cx="344.2" cy="231.4" r="3" fill="#f28e2b"/><circle cx="355.9" cy="231.4" r="3" fill="#f28e2b"/><circle cx="367.6" cy="232.0" r="3" fill="#f28e2b"/><circle cx="379.2" cy="232.0" r="3" fill="#f28e2b"/><circle cx="390.9" cy="231.4" r="3" fill="#f28e2b"/><circle cx="402.6" cy="230.9" r="3" fill="#f28e2b"/><circle cx="414.3" cy="230.9" r="3" fill="#f28e2b"/><circle cx="426.0" cy="231.4" r="3" fill="#f28e2b"/><circle cx="437.7" cy="231.4" r="3" fill="#f28e2b"/><circle cx="449.4" cy="232.0" r="3" fill="#f28e2b"/><circle cx="461.1" cy="232.0" r="3" fill="#f28e2b"/><circle cx="472.8" cy="231.4" r="3" fill="#f28e2b"/><circle cx="484.4" cy="232.0" r="3" fill="#f28e2b"/><circle cx="496.1" cy="223.0" r="3" fill="#f28e2b"/><circle cx="507.8" cy="226.4" r="3" fill="#f28e2b"/><circle cx="519.5" cy="232.0" r="3" fill="#f28e2b"/><circle cx="531.2" cy="231.4" r="3" fill="#f28e2b"/><circle cx="542.9" cy="229.2" r="3" fill="#f28e2b"/><circle cx="554.6" cy="230.9" r="3" fill="#f28e2b"/><circle cx="566.2" cy="230.9" r="3" fill="#f28e2b"/><circle cx="577.9" cy="232.0" r="3" fill="#f28e2b"/><circle cx="589.6" cy="230.3" r="3" fill="#f28e2b"/><circle cx="601.3" cy="232.0" r="3" fill="#f28e2b"/><circle cx="613.0" cy="232.0" r="3" fill="#f28e2b"/><circle cx="624.7" cy="232.0" r="3" fill="#f28e2b"/><circle cx="636.4" cy="232.0" r="3" fill="#f28e2b"/><circle cx="648.1" cy="228.6" r="3" fill="#f28e2b"/><circle cx="659.8" cy="232.0" r="3" fill="#f28e2b"/><circle cx="671.4" cy="230.3" r="3" fill="#f28e2b"/><circle cx="683.1" cy="231.4" r="3" fill="#f28e2b"/><circle cx="694.8" cy="231.4" r="3" fill="#f28e2b"/><circle cx="706.5" cy="232.0" r="3" fill="#f28e2b"/><circle cx="718.2" cy="231.4" r="3" fill="#f28e2b"/><circle cx="729.9" cy="232.0" r="3" fill="#f28e2b"/><circle cx="741.6" cy="232.0" r="3" fill="#f28e2b"/><circle cx="753.2" cy="232.0" r="3" fill="#f28e2b"/><circle cx="764.9" cy="232.0" r="3" fill="#f28e2b"/><circle cx="776.6" cy="231.4" r="3" fill="#f28e2b"/><circle cx="788.3" cy="232.0" r="3" fill="#f28e2b"/><circle cx="800.0" cy="232.0" r="3" fill="#f28e2b"/>

  <!-- axes -->
  <line x1="52" y1="28" x2="52" y2="232"
        stroke="#cccccc" stroke-width="1"/>
  <line x1="52" y1="232" x2="800" y2="232"
        stroke="#cccccc" stroke-width="1"/>

  <!-- y-axis labels -->
  <text x="47" y="236.0" text-anchor="end" font-size="10" fill="#57606a" font-family="ui-monospace, SFMono-Regular, 'SF Mono', Menlo, monospace">0</text><text x="47" y="196.8" text-anchor="end" font-size="10" fill="#57606a" font-family="ui-monospace, SFMono-Regular, 'SF Mono', Menlo, monospace">70</text><text x="47" y="157.5" text-anchor="end" font-size="10" fill="#57606a" font-family="ui-monospace, SFMono-Regular, 'SF Mono', Menlo, monospace">140</text><text x="47" y="118.3" text-anchor="end" font-size="10" fill="#57606a" font-family="ui-monospace, SFMono-Regular, 'SF Mono', Menlo, monospace">210</text><text x="47" y="79.1" text-anchor="end" font-size="10" fill="#57606a" font-family="ui-monospace, SFMono-Regular, 'SF Mono', Menlo, monospace">280</text><text x="47" y="39.8" text-anchor="end" font-size="10" fill="#57606a" font-family="ui-monospace, SFMono-Regular, 'SF Mono', Menlo, monospace">350</text><text x="47" y="0.6" text-anchor="end" font-size="10" fill="#57606a" font-family="ui-monospace, SFMono-Regular, 'SF Mono', Menlo, monospace">420</text>

  <!-- x-axis labels -->
  <text x="52.0" y="248" text-anchor="middle" font-size="10" fill="#8c959f" font-family="ui-monospace, SFMono-Regular, 'SF Mono', Menlo, monospace">05-11</text><text x="426.0" y="248" text-anchor="middle" font-size="10" fill="#8c959f" font-family="ui-monospace, SFMono-Regular, 'SF Mono', Menlo, monospace">06-12</text><text x="800.0" y="248" text-anchor="middle" font-size="10" fill="#8c959f" font-family="ui-monospace, SFMono-Regular, 'SF Mono', Menlo, monospace">07-14</text><text x="145.5" y="248" text-anchor="middle" font-size="10" fill="#8c959f" font-family="ui-monospace, SFMono-Regular, 'SF Mono', Menlo, monospace">05-19</text><text x="519.5" y="248" text-anchor="middle" font-size="10" fill="#8c959f" font-family="ui-monospace, SFMono-Regular, 'SF Mono', Menlo, monospace">06-20</text><text x="239.0" y="248" text-anchor="middle" font-size="10" fill="#8c959f" font-family="ui-monospace, SFMono-Regular, 'SF Mono', Menlo, monospace">05-27</text><text x="613.0" y="248" text-anchor="middle" font-size="10" fill="#8c959f" font-family="ui-monospace, SFMono-Regular, 'SF Mono', Menlo, monospace">06-28</text><text x="332.5" y="248" text-anchor="middle" font-size="10" fill="#8c959f" font-family="ui-monospace, SFMono-Regular, 'SF Mono', Menlo, monospace">06-04</text><text x="706.5" y="248" text-anchor="middle" font-size="10" fill="#8c959f" font-family="ui-monospace, SFMono-Regular, 'SF Mono', Menlo, monospace">07-06</text>

  <!-- legend -->
  <rect x="60" y="262" width="16" height="3" fill="#4e79a7" rx="1"/><text x="80" y="268" font-size="11" fill="#57606a" font-family="-apple-system, BlinkMacSystemFont, 'Segoe UI', sans-serif">Total clones (922)</text><line x1="230" y1="264" x2="246" y2="264" stroke="#f28e2b" stroke-width="2" stroke-dasharray="5,3"/><text x="250" y="268" font-size="11" fill="#57606a" font-family="-apple-system, BlinkMacSystemFont, 'Segoe UI', sans-serif">Unique cloners</text>

</svg>