<svg xmlns="http://www.w3.org/2000/svg" viewBox="0 0 820 280" width="820" height="280">

  <!-- title -->
  <text x="52" y="18" font-size="13" font-weight="600"
        fill="#24292f" font-family="-apple-system, BlinkMacSystemFont, 'Segoe UI', sans-serif"
        >Clone traffic — ShelfCast</text>
  <text x="800" y="18" font-size="10" fill="#8c959f"
        font-family="ui-monospace, SFMono-Regular, 'SF Mono', Menlo, monospace" text-anchor="end">2026-06-22</text>

  <!-- grid -->
  <line x1="52" y1="232.0" x2="800" y2="232.0" stroke="#e8e8e8" stroke-width="1"/><line x1="52" y1="192.8" x2="800" y2="192.8" stroke="#e8e8e8" stroke-width="1"/><line x1="52" y1="153.5" x2="800" y2="153.5" stroke="#e8e8e8" stroke-width="1"/><line x1="52" y1="114.3" x2="800" y2="114.3" stroke="#e8e8e8" stroke-width="1"/><line x1="52" y1="75.1" x2="800" y2="75.1" stroke="#e8e8e8" stroke-width="1"/><line x1="52" y1="35.8" x2="800" y2="35.8" stroke="#e8e8e8" stroke-width="1"/><line x1="52" y1="-3.4" x2="800" y2="-3.4" stroke="#e8e8e8" stroke-width="1"/>

  <!-- area fill -->
  <path d="M52.0,232.0 L52.0,232.0 L70.7,231.4 L89.4,230.9 L108.1,232.0 L126.8,231.4 L145.5,232.0 L164.2,232.0 L182.9,231.4 L201.6,230.9 L220.3,232.0 L239.0,232.0 L257.7,231.4 L276.4,232.0 L295.1,28.0 L313.8,194.5 L332.5,167.0 L351.2,230.9 L369.9,232.0 L388.6,231.4 L407.3,231.4 L426.0,230.9 L444.7,232.0 L463.4,231.4 L482.1,230.9 L500.8,232.0 L519.5,231.4 L538.2,231.4 L556.9,232.0 L575.6,232.0 L594.3,231.4 L613.0,230.9 L631.7,230.9 L650.4,231.4 L669.1,230.9 L687.8,232.0 L706.5,232.0 L725.2,231.4 L743.9,232.0 L762.6,77.9 L781.3,223.0 L800.0,232.0 L800.0,232.0 L52.0,232.0Z" fill="#4e79a7" opacity="0.12"/>

  <!-- lines -->
  <polyline points="52.0,232.0 70.7,231.4 89.4,230.9 108.1,232.0 126.8,231.4 145.5,232.0 164.2,232.0 182.9,231.4 201.6,230.9 220.3,232.0 239.0,232.0 257.7,231.4 276.4,232.0 295.1,28.0 313.8,194.5 332.5,167.0 351.2,230.9 369.9,232.0 388.6,231.4 407.3,231.4 426.0,230.9 444.7,232.0 463.4,231.4 482.1,230.9 500.8,232.0 519.5,231.4 538.2,231.4 556.9,232.0 575.6,232.0 594.3,231.4 613.0,230.9 631.7,230.9 650.4,231.4 669.1,230.9 687.8,232.0 706.5,232.0 725.2,231.4 743.9,232.0 762.6,77.9 781.3,223.0 800.0,232.0"
            fill="none" stroke="#4e79a7"
            stroke-width="2" stroke-linejoin="round"/>
  <polyline points="52.0,232.0 70.7,231.4 89.4,230.9 108.1,232.0 126.8,231.4 145.5,232.0 164.2,232.0 182.9,231.4 201.6,230.9 220.3,232.0 239.0,232.0 257.7,231.4 276.4,232.0 295.1,221.4 313.8,230.9 332.5,215.7 351.2,230.9 369.9,232.0 388.6,231.4 407.3,231.4 426.0,230.9 444.7,232.0 463.4,231.4 482.1,230.9 500.8,232.0 519.5,231.4 538.2,231.4 556.9,232.0 575.6,232.0 594.3,231.4 613.0,230.9 631.7,230.9 650.4,231.4 669.1,231.4 687.8,232.0 706.5,232.0 725.2,231.4 743.9,232.0 762.6,223.0 781.3,226.4 800.0,232.0"
            fill="none" stroke="#f28e2b"
            stroke-width="2" stroke-linejoin="round"
            stroke-dasharray="5,3"/>

  <!-- dots -->
  <circle cx="52.0" cy="232.0" r="3" fill="#4e79a7"/><circle cx="70.7" cy="231.4" r="3" fill="#4e79a7"/><circle cx="89.4" cy="230.9" r="3" fill="#4e79a7"/><circle cx="108.1" cy="232.0" r="3" fill="#4e79a7"/><circle cx="126.8" cy="231.4" r="3" fill="#4e79a7"/><circle cx="145.5" cy="232.0" r="3" fill="#4e79a7"/><circle cx="164.2" cy="232.0" r="3" fill="#4e79a7"/><circle cx="182.9" cy="231.4" r="3" fill="#4e79a7"/><circle cx="201.6" cy="230.9" r="3" fill="#4e79a7"/><circle cx="220.3" cy="232.0" r="3" fill="#4e79a7"/><circle cx="239.0" cy="232.0" r="3" fill="#4e79a7"/><circle cx="257.7" cy="231.4" r="3" fill="#4e79a7"/><circle cx="276.4" cy="232.0" r="3" fill="#4e79a7"/><circle cx="295.1" cy="28.0" r="3" fill="#4e79a7"/><circle cx="313.8" cy="194.5" r="3" fill="#4e79a7"/><circle cx="332.5" cy="167.0" r="3" fill="#4e79a7"/><circle cx="351.2" cy="230.9" r="3" fill="#4e79a7"/><circle cx="369.9" cy="232.0" r="3" fill="#4e79a7"/><circle cx="388.6" cy="231.4" r="3" fill="#4e79a7"/><circle cx="407.3" cy="231.4" r="3" fill="#4e79a7"/><circle cx="426.0" cy="230.9" r="3" fill="#4e79a7"/><circle cx="444.7" cy="232.0" r="3" fill="#4e79a7"/><circle cx="463.4" cy="231.4" r="3" fill="#4e79a7"/><circle cx="482.1" cy="230.9" r="3" fill="#4e79a7"/><circle cx="500.8" cy="232.0" r="3" fill="#4e79a7"/><circle cx="519.5" cy="231.4" r="3" fill="#4e79a7"/><circle cx="538.2" cy="231.4" r="3" fill="#4e79a7"/><circle cx="556.9" cy="232.0" r="3" fill="#4e79a7"/><circle cx="575.6" cy="232.0" r="3" fill="#4e79a7"/><circle cx="594.3" cy="231.4" r="3" fill="#4e79a7"/><circle cx="613.0" cy="230.9" r="3" fill="#4e79a7"/><circle cx="631.7" cy="230.9" r="3" fill="#4e79a7"/><circle cx="650.4" cy="231.4" r="3" fill="#4e79a7"/><circle cx="669.1" cy="230.9" r="3" fill="#4e79a7"/><circle cx="687.8" cy="232.0" r="3" fill="#4e79a7"/><circle cx="706.5" cy="232.0" r="3" fill="#4e79a7"/><circle cx="725.2" cy="231.4" r="3" fill="#4e79a7"/><circle cx="743.9" cy="232.0" r="3" fill="#4e79a7"/><circle cx="762.6" cy="77.9" r="3" fill="#4e79a7"/><circle cx="781.3" cy="223.0" r="3" fill="#4e79a7"/><circle cx="800.0" cy="232.0" r="3" fill="#4e79a7"/>
  <circle cx="52.0" cy="232.0" r="3" fill="#f28e2b"/><circle cx="70.7" cy="231.4" r="3" fill="#f28e2b"/><circle cx="89.4" cy="230.9" r="3" fill="#f28e2b"/><circle cx="108.1" cy="232.0" r="3" fill="#f28e2b"/><circle cx="126.8" cy="231.4" r="3" fill="#f28e2b"/><circle cx="145.5" cy="232.0" r="3" fill="#f28e2b"/><circle cx="164.2" cy="232.0" r="3" fill="#f28e2b"/><circle cx="182.9" cy="231.4" r="3" fill="#f28e2b"/><circle cx="201.6" cy="230.9" r="3" fill="#f28e2b"/><circle cx="220.3" cy="232.0" r="3" fill="#f28e2b"/><circle cx="239.0" cy="232.0" r="3" fill="#f28e2b"/><circle cx="257.7" cy="231.4" r="3" fill="#f28e2b"/><circle cx="276.4" cy="232.0" r="3" fill="#f28e2b"/><circle cx="295.1" cy="221.4" r="3" fill="#f28e2b"/><circle cx="313.8" cy="230.9" r="3" fill="#f28e2b"/><circle cx="332.5" cy="215.7" r="3" fill="#f28e2b"/><circle cx="351.2" cy="230.9" r="3" fill="#f28e2b"/><circle cx="369.9" cy="232.0" r="3" fill="#f28e2b"/><circle cx="388.6" cy="231.4" r="3" fill="#f28e2b"/><circle cx="407.3" cy="231.4" r="3" fill="#f28e2b"/><circle cx="426.0" cy="230.9" r="3" fill="#f28e2b"/><circle cx="444.7" cy="232.0" r="3" fill="#f28e2b"/><circle cx="463.4" cy="231.4" r="3" fill="#f28e2b"/><circle cx="482.1" cy="230.9" r="3" fill="#f28e2b"/><circle cx="500.8" cy="232.0" r="3" fill="#f28e2b"/><circle cx="519.5" cy="231.4" r="3" fill="#f28e2b"/><circle cx="538.2" cy="231.4" r="3" fill="#f28e2b"/><circle cx="556.9" cy="232.0" r="3" fill="#f28e2b"/><circle cx="575.6" cy="232.0" r="3" fill="#f28e2b"/><circle cx="594.3" cy="231.4" r="3" fill="#f28e2b"/><circle cx="613.0" cy="230.9" r="3" fill="#f28e2b"/><circle cx="631.7" cy="230.9" r="3" fill="#f28e2b"/><circle cx="650.4" cy="231.4" r="3" fill="#f28e2b"/><circle cx="669.1" cy="231.4" r="3" fill="#f28e2b"/><circle cx="687.8" cy="232.0" r="3" fill="#f28e2b"/><circle cx="706.5" cy="232.0" r="3" fill="#f28e2b"/><circle cx="725.2" cy="231.4" r="3" fill="#f28e2b"/><circle cx="743.9" cy="232.0" r="3" fill="#f28e2b"/><circle cx="762.6" cy="223.0" r="3" fill="#f28e2b"/><circle cx="781.3" cy="226.4" r="3" fill="#f28e2b"/><circle cx="800.0" cy="232.0" r="3" fill="#f28e2b"/>

  <!-- axes -->
  <line x1="52" y1="28" x2="52" y2="232"
        stroke="#cccccc" stroke-width="1"/>
  <line x1="52" y1="232" x2="800" y2="232"
        stroke="#cccccc" stroke-width="1"/>

  <!-- y-axis labels -->
  <text x="47" y="236.0" text-anchor="end" font-size="10" fill="#57606a" font-family="ui-monospace, SFMono-Regular, 'SF Mono', Menlo, monospace">0</text><text x="47" y="196.8" text-anchor="end" font-size="10" fill="#57606a" font-family="ui-monospace, SFMono-Regular, 'SF Mono', Menlo, monospace">70</text><text x="47" y="157.5" text-anchor="end" font-size="10" fill="#57606a" font-family="ui-monospace, SFMono-Regular, 'SF Mono', Menlo, monospace">140</text><text x="47" y="118.3" text-anchor="end" font-size="10" fill="#57606a" font-family="ui-monospace, SFMono-Regular, 'SF Mono', Menlo, monospace">210</text><text x="47" y="79.1" text-anchor="end" font-size="10" fill="#57606a" font-family="ui-monospace, SFMono-Regular, 'SF Mono', Menlo, monospace">280</text><text x="47" y="39.8" text-anchor="end" font-size="10" fill="#57606a" font-family="ui-monospace, SFMono-Regular, 'SF Mono', Menlo, monospace">350</text><text x="47" y="0.6" text-anchor="end" font-size="10" fill="#57606a" font-family="ui-monospace, SFMono-Regular, 'SF Mono', Menlo, monospace">420</text>

  <!-- x-axis labels -->
  <text x="52.0" y="248" text-anchor="middle" font-size="10" fill="#8c959f" font-family="ui-monospace, SFMono-Regular, 'SF Mono', Menlo, monospace">05-11</text><text x="706.5" y="248" text-anchor="middle" font-size="10" fill="#8c959f" font-family="ui-monospace, SFMono-Regular, 'SF Mono', Menlo, monospace">06-15</text><text x="145.5" y="248" text-anchor="middle" font-size="10" fill="#8c959f" font-family="ui-monospace, SFMono-Regular, 'SF Mono', Menlo, monospace">05-16</text><text x="800.0" y="248" text-anchor="middle" font-size="10" fill="#8c959f" font-family="ui-monospace, SFMono-Regular, 'SF Mono', Menlo, monospace">06-20</text><text x="239.0" y="248" text-anchor="middle" font-size="10" fill="#8c959f" font-family="ui-monospace, SFMono-Regular, 'SF Mono', Menlo, monospace">05-21</text><text x="332.5" y="248" text-anchor="middle" font-size="10" fill="#8c959f" font-family="ui-monospace, SFMono-Regular, 'SF Mono', Menlo, monospace">05-26</text><text x="426.0" y="248" text-anchor="middle" font-size="10" fill="#8c959f" font-family="ui-monospace, SFMono-Regular, 'SF Mono', Menlo, monospace">05-31</text><text x="519.5" y="248" text-anchor="middle" font-size="10" fill="#8c959f" font-family="ui-monospace, SFMono-Regular, 'SF Mono', Menlo, monospace">06-05</text><text x="613.0" y="248" text-anchor="middle" font-size="10" fill="#8c959f" font-family="ui-monospace, SFMono-Regular, 'SF Mono', Menlo, monospace">06-10</text>

  <!-- legend -->
  <rect x="60" y="262" width="16" height="3" fill="#4e79a7" rx="1"/><text x="80" y="268" font-size="11" fill="#57606a" font-family="-apple-system, BlinkMacSystemFont, 'Segoe UI', sans-serif">Total clones (866)</text><line x1="230" y1="264" x2="246" y2="264" stroke="#f28e2b" stroke-width="2" stroke-dasharray="5,3"/><text x="250" y="268" font-size="11" fill="#57606a" font-family="-apple-system, BlinkMacSystemFont, 'Segoe UI', sans-serif">Unique cloners</text>

</svg>