<svg xmlns="http://www.w3.org/2000/svg" viewBox="0 0 820 280" width="820" height="280">

  <!-- title -->
  <text x="52" y="18" font-size="13" font-weight="600"
        fill="#24292f" font-family="-apple-system, BlinkMacSystemFont, 'Segoe UI', sans-serif"
        >Clone traffic — ShelfCast</text>
  <text x="800" y="18" font-size="10" fill="#8c959f"
        font-family="ui-monospace, SFMono-Regular, 'SF Mono', Menlo, monospace" text-anchor="end">2026-07-09</text>

  <!-- grid -->
  <line x1="52" y1="232.0" x2="800" y2="232.0" stroke="#e8e8e8" stroke-width="1"/><line x1="52" y1="192.8" x2="800" y2="192.8" stroke="#e8e8e8" stroke-width="1"/><line x1="52" y1="153.5" x2="800" y2="153.5" stroke="#e8e8e8" stroke-width="1"/><line x1="52" y1="114.3" x2="800" y2="114.3" stroke="#e8e8e8" stroke-width="1"/><line x1="52" y1="75.1" x2="800" y2="75.1" stroke="#e8e8e8" stroke-width="1"/><line x1="52" y1="35.8" x2="800" y2="35.8" stroke="#e8e8e8" stroke-width="1"/><line x1="52" y1="-3.4" x2="800" y2="-3.4" stroke="#e8e8e8" stroke-width="1"/>

  <!-- area fill -->
  <path d="M52.0,232.0 L52.0,232.0 L64.9,231.4 L77.8,230.9 L90.7,232.0 L103.6,231.4 L116.5,232.0 L129.4,232.0 L142.3,231.4 L155.2,230.9 L168.1,232.0 L181.0,232.0 L193.9,231.4 L206.8,232.0 L219.7,28.0 L232.6,194.5 L245.4,167.0 L258.3,230.9 L271.2,232.0 L284.1,231.4 L297.0,231.4 L309.9,230.9 L322.8,232.0 L335.7,231.4 L348.6,230.9 L361.5,232.0 L374.4,231.4 L387.3,231.4 L400.2,232.0 L413.1,232.0 L426.0,231.4 L438.9,230.9 L451.8,230.9 L464.7,231.4 L477.6,230.9 L490.5,232.0 L503.4,232.0 L516.3,231.4 L529.2,232.0 L542.1,77.9 L555.0,223.0 L567.9,232.0 L580.8,231.4 L593.7,222.5 L606.6,227.5 L619.4,230.9 L632.3,232.0 L645.2,230.3 L658.1,232.0 L671.0,232.0 L683.9,232.0 L696.8,232.0 L709.7,227.0 L722.6,232.0 L735.5,230.3 L748.4,231.4 L761.3,231.4 L774.2,232.0 L787.1,226.4 L800.0,232.0 L800.0,232.0 L52.0,232.0Z" fill="#4e79a7" opacity="0.12"/>

  <!-- lines -->
  <polyline points="52.0,232.0 64.9,231.4 77.8,230.9 90.7,232.0 103.6,231.4 116.5,232.0 129.4,232.0 142.3,231.4 155.2,230.9 168.1,232.0 181.0,232.0 193.9,231.4 206.8,232.0 219.7,28.0 232.6,194.5 245.4,167.0 258.3,230.9 271.2,232.0 284.1,231.4 297.0,231.4 309.9,230.9 322.8,232.0 335.7,231.4 348.6,230.9 361.5,232.0 374.4,231.4 387.3,231.4 400.2,232.0 413.1,232.0 426.0,231.4 438.9,230.9 451.8,230.9 464.7,231.4 477.6,230.9 490.5,232.0 503.4,232.0 516.3,231.4 529.2,232.0 542.1,77.9 555.0,223.0 567.9,232.0 580.8,231.4 593.7,222.5 606.6,227.5 619.4,230.9 632.3,232.0 645.2,230.3 658.1,232.0 671.0,232.0 683.9,232.0 696.8,232.0 709.7,227.0 722.6,232.0 735.5,230.3 748.4,231.4 761.3,231.4 774.2,232.0 787.1,226.4 800.0,232.0"
            fill="none" stroke="#4e79a7"
            stroke-width="2" stroke-linejoin="round"/>
  <polyline points="52.0,232.0 64.9,231.4 77.8,230.9 90.7,232.0 103.6,231.4 116.5,232.0 129.4,232.0 142.3,231.4 155.2,230.9 168.1,232.0 181.0,232.0 193.9,231.4 206.8,232.0 219.7,221.4 232.6,230.9 245.4,215.7 258.3,230.9 271.2,232.0 284.1,231.4 297.0,231.4 309.9,230.9 322.8,232.0 335.7,231.4 348.6,230.9 361.5,232.0 374.4,231.4 387.3,231.4 400.2,232.0 413.1,232.0 426.0,231.4 438.9,230.9 451.8,230.9 464.7,231.4 477.6,231.4 490.5,232.0 503.4,232.0 516.3,231.4 529.2,232.0 542.1,223.0 555.0,226.4 567.9,232.0 580.8,231.4 593.7,229.2 606.6,230.9 619.4,230.9 632.3,232.0 645.2,230.3 658.1,232.0 671.0,232.0 683.9,232.0 696.8,232.0 709.7,228.6 722.6,232.0 735.5,230.3 748.4,231.4 761.3,231.4 774.2,232.0 787.1,231.4 800.0,232.0"
            fill="none" stroke="#f28e2b"
            stroke-width="2" stroke-linejoin="round"
            stroke-dasharray="5,3"/>

  <!-- dots -->
  <circle cx="52.0" cy="232.0" r="3" fill="#4e79a7"/><circle cx="64.9" cy="231.4" r="3" fill="#4e79a7"/><circle cx="77.8" cy="230.9" r="3" fill="#4e79a7"/><circle cx="90.7" cy="232.0" r="3" fill="#4e79a7"/><circle cx="103.6" cy="231.4" r="3" fill="#4e79a7"/><circle cx="116.5" cy="232.0" r="3" fill="#4e79a7"/><circle cx="129.4" cy="232.0" r="3" fill="#4e79a7"/><circle cx="142.3" cy="231.4" r="3" fill="#4e79a7"/><circle cx="155.2" cy="230.9" r="3" fill="#4e79a7"/><circle cx="168.1" cy="232.0" r="3" fill="#4e79a7"/><circle cx="181.0" cy="232.0" r="3" fill="#4e79a7"/><circle cx="193.9" cy="231.4" r="3" fill="#4e79a7"/><circle cx="206.8" cy="232.0" r="3" fill="#4e79a7"/><circle cx="219.7" cy="28.0" r="3" fill="#4e79a7"/><circle cx="232.6" cy="194.5" r="3" fill="#4e79a7"/><circle cx="245.4" cy="167.0" r="3" fill="#4e79a7"/><circle cx="258.3" cy="230.9" r="3" fill="#4e79a7"/><circle cx="271.2" cy="232.0" r="3" fill="#4e79a7"/><circle cx="284.1" cy="231.4" r="3" fill="#4e79a7"/><circle cx="297.0" cy="231.4" r="3" fill="#4e79a7"/><circle cx="309.9" cy="230.9" r="3" fill="#4e79a7"/><circle cx="322.8" cy="232.0" r="3" fill="#4e79a7"/><circle cx="335.7" cy="231.4" r="3" fill="#4e79a7"/><circle cx="348.6" cy="230.9" r="3" fill="#4e79a7"/><circle cx="361.5" cy="232.0" r="3" fill="#4e79a7"/><circle cx="374.4" cy="231.4" r="3" fill="#4e79a7"/><circle cx="387.3" cy="231.4" r="3" fill="#4e79a7"/><circle cx="400.2" cy="232.0" r="3" fill="#4e79a7"/><circle cx="413.1" cy="232.0" r="3" fill="#4e79a7"/><circle cx="426.0" cy="231.4" r="3" fill="#4e79a7"/><circle cx="438.9" cy="230.9" r="3" fill="#4e79a7"/><circle cx="451.8" cy="230.9" r="3" fill="#4e79a7"/><circle cx="464.7" cy="231.4" r="3" fill="#4e79a7"/><circle cx="477.6" cy="230.9" r="3" fill="#4e79a7"/><circle cx="490.5" cy="232.0" r="3" fill="#4e79a7"/><circle cx="503.4" cy="232.0" r="3" fill="#4e79a7"/><circle cx="516.3" cy="231.4" r="3" fill="#4e79a7"/><circle cx="529.2" cy="232.0" r="3" fill="#4e79a7"/><circle cx="542.1" cy="77.9" r="3" fill="#4e79a7"/><circle cx="555.0" cy="223.0" r="3" fill="#4e79a7"/><circle cx="567.9" cy="232.0" r="3" fill="#4e79a7"/><circle cx="580.8" cy="231.4" r="3" fill="#4e79a7"/><circle cx="593.7" cy="222.5" r="3" fill="#4e79a7"/><circle cx="606.6" cy="227.5" r="3" fill="#4e79a7"/><circle cx="619.4" cy="230.9" r="3" fill="#4e79a7"/><circle cx="632.3" cy="232.0" r="3" fill="#4e79a7"/><circle cx="645.2" cy="230.3" r="3" fill="#4e79a7"/><circle cx="658.1" cy="232.0" r="3" fill="#4e79a7"/><circle cx="671.0" cy="232.0" r="3" fill="#4e79a7"/><circle cx="683.9" cy="232.0" r="3" fill="#4e79a7"/><circle cx="696.8" cy="232.0" r="3" fill="#4e79a7"/><circle cx="709.7" cy="227.0" r="3" fill="#4e79a7"/><circle cx="722.6" cy="232.0" r="3" fill="#4e79a7"/><circle cx="735.5" cy="230.3" r="3" fill="#4e79a7"/><circle cx="748.4" cy="231.4" r="3" fill="#4e79a7"/><circle cx="761.3" cy="231.4" r="3" fill="#4e79a7"/><circle cx="774.2" cy="232.0" r="3" fill="#4e79a7"/><circle cx="787.1" cy="226.4" r="3" fill="#4e79a7"/><circle cx="800.0" cy="232.0" r="3" fill="#4e79a7"/>
  <circle cx="52.0" cy="232.0" r="3" fill="#f28e2b"/><circle cx="64.9" cy="231.4" r="3" fill="#f28e2b"/><circle cx="77.8" cy="230.9" r="3" fill="#f28e2b"/><circle cx="90.7" cy="232.0" r="3" fill="#f28e2b"/><circle cx="103.6" cy="231.4" r="3" fill="#f28e2b"/><circle cx="116.5" cy="232.0" r="3" fill="#f28e2b"/><circle cx="129.4" cy="232.0" r="3" fill="#f28e2b"/><circle cx="142.3" cy="231.4" r="3" fill="#f28e2b"/><circle cx="155.2" cy="230.9" r="3" fill="#f28e2b"/><circle cx="168.1" cy="232.0" r="3" fill="#f28e2b"/><circle cx="181.0" cy="232.0" r="3" fill="#f28e2b"/><circle cx="193.9" cy="231.4" r="3" fill="#f28e2b"/><circle cx="206.8" cy="232.0" r="3" fill="#f28e2b"/><circle cx="219.7" cy="221.4" r="3" fill="#f28e2b"/><circle cx="232.6" cy="230.9" r="3" fill="#f28e2b"/><circle cx="245.4" cy="215.7" r="3" fill="#f28e2b"/><circle cx="258.3" cy="230.9" r="3" fill="#f28e2b"/><circle cx="271.2" cy="232.0" r="3" fill="#f28e2b"/><circle cx="284.1" cy="231.4" r="3" fill="#f28e2b"/><circle cx="297.0" cy="231.4" r="3" fill="#f28e2b"/><circle cx="309.9" cy="230.9" r="3" fill="#f28e2b"/><circle cx="322.8" cy="232.0" r="3" fill="#f28e2b"/><circle cx="335.7" cy="231.4" r="3" fill="#f28e2b"/><circle cx="348.6" cy="230.9" r="3" fill="#f28e2b"/><circle cx="361.5" cy="232.0" r="3" fill="#f28e2b"/><circle cx="374.4" cy="231.4" r="3" fill="#f28e2b"/><circle cx="387.3" cy="231.4" r="3" fill="#f28e2b"/><circle cx="400.2" cy="232.0" r="3" fill="#f28e2b"/><circle cx="413.1" cy="232.0" r="3" fill="#f28e2b"/><circle cx="426.0" cy="231.4" r="3" fill="#f28e2b"/><circle cx="438.9" cy="230.9" r="3" fill="#f28e2b"/><circle cx="451.8" cy="230.9" r="3" fill="#f28e2b"/><circle cx="464.7" cy="231.4" r="3" fill="#f28e2b"/><circle cx="477.6" cy="231.4" r="3" fill="#f28e2b"/><circle cx="490.5" cy="232.0" r="3" fill="#f28e2b"/><circle cx="503.4" cy="232.0" r="3" fill="#f28e2b"/><circle cx="516.3" cy="231.4" r="3" fill="#f28e2b"/><circle cx="529.2" cy="232.0" r="3" fill="#f28e2b"/><circle cx="542.1" cy="223.0" r="3" fill="#f28e2b"/><circle cx="555.0" cy="226.4" r="3" fill="#f28e2b"/><circle cx="567.9" cy="232.0" r="3" fill="#f28e2b"/><circle cx="580.8" cy="231.4" r="3" fill="#f28e2b"/><circle cx="593.7" cy="229.2" r="3" fill="#f28e2b"/><circle cx="606.6" cy="230.9" r="3" fill="#f28e2b"/><circle cx="619.4" cy="230.9" r="3" fill="#f28e2b"/><circle cx="632.3" cy="232.0" r="3" fill="#f28e2b"/><circle cx="645.2" cy="230.3" r="3" fill="#f28e2b"/><circle cx="658.1" cy="232.0" r="3" fill="#f28e2b"/><circle cx="671.0" cy="232.0" r="3" fill="#f28e2b"/><circle cx="683.9" cy="232.0" r="3" fill="#f28e2b"/><circle cx="696.8" cy="232.0" r="3" fill="#f28e2b"/><circle cx="709.7" cy="228.6" r="3" fill="#f28e2b"/><circle cx="722.6" cy="232.0" r="3" fill="#f28e2b"/><circle cx="735.5" cy="230.3" r="3" fill="#f28e2b"/><circle cx="748.4" cy="231.4" r="3" fill="#f28e2b"/><circle cx="761.3" cy="231.4" r="3" fill="#f28e2b"/><circle cx="774.2" cy="232.0" r="3" fill="#f28e2b"/><circle cx="787.1" cy="231.4" r="3" fill="#f28e2b"/><circle cx="800.0" cy="232.0" r="3" fill="#f28e2b"/>

  <!-- axes -->
  <line x1="52" y1="28" x2="52" y2="232"
        stroke="#cccccc" stroke-width="1"/>
  <line x1="52" y1="232" x2="800" y2="232"
        stroke="#cccccc" stroke-width="1"/>

  <!-- y-axis labels -->
  <text x="47" y="236.0" text-anchor="end" font-size="10" fill="#57606a" font-family="ui-monospace, SFMono-Regular, 'SF Mono', Menlo, monospace">0</text><text x="47" y="196.8" text-anchor="end" font-size="10" fill="#57606a" font-family="ui-monospace, SFMono-Regular, 'SF Mono', Menlo, monospace">70</text><text x="47" y="157.5" text-anchor="end" font-size="10" fill="#57606a" font-family="ui-monospace, SFMono-Regular, 'SF Mono', Menlo, monospace">140</text><text x="47" y="118.3" text-anchor="end" font-size="10" fill="#57606a" font-family="ui-monospace, SFMono-Regular, 'SF Mono', Menlo, monospace">210</text><text x="47" y="79.1" text-anchor="end" font-size="10" fill="#57606a" font-family="ui-monospace, SFMono-Regular, 'SF Mono', Menlo, monospace">280</text><text x="47" y="39.8" text-anchor="end" font-size="10" fill="#57606a" font-family="ui-monospace, SFMono-Regular, 'SF Mono', Menlo, monospace">350</text><text x="47" y="0.6" text-anchor="end" font-size="10" fill="#57606a" font-family="ui-monospace, SFMono-Regular, 'SF Mono', Menlo, monospace">420</text>

  <!-- x-axis labels -->
  <text x="52.0" y="248" text-anchor="middle" font-size="10" fill="#8c959f" font-family="ui-monospace, SFMono-Regular, 'SF Mono', Menlo, monospace">05-11</text><text x="503.4" y="248" text-anchor="middle" font-size="10" fill="#8c959f" font-family="ui-monospace, SFMono-Regular, 'SF Mono', Menlo, monospace">06-15</text><text x="142.3" y="248" text-anchor="middle" font-size="10" fill="#8c959f" font-family="ui-monospace, SFMono-Regular, 'SF Mono', Menlo, monospace">05-18</text><text x="593.7" y="248" text-anchor="middle" font-size="10" fill="#8c959f" font-family="ui-monospace, SFMono-Regular, 'SF Mono', Menlo, monospace">06-22</text><text x="232.6" y="248" text-anchor="middle" font-size="10" fill="#8c959f" font-family="ui-monospace, SFMono-Regular, 'SF Mono', Menlo, monospace">05-25</text><text x="683.9" y="248" text-anchor="middle" font-size="10" fill="#8c959f" font-family="ui-monospace, SFMono-Regular, 'SF Mono', Menlo, monospace">06-29</text><text x="322.8" y="248" text-anchor="middle" font-size="10" fill="#8c959f" font-family="ui-monospace, SFMono-Regular, 'SF Mono', Menlo, monospace">06-01</text><text x="774.2" y="248" text-anchor="middle" font-size="10" fill="#8c959f" font-family="ui-monospace, SFMono-Regular, 'SF Mono', Menlo, monospace">07-06</text><text x="800.0" y="248" text-anchor="middle" font-size="10" fill="#8c959f" font-family="ui-monospace, SFMono-Regular, 'SF Mono', Menlo, monospace">07-08</text><text x="413.1" y="248" text-anchor="middle" font-size="10" fill="#8c959f" font-family="ui-monospace, SFMono-Regular, 'SF Mono', Menlo, monospace">06-08</text>

  <!-- legend -->
  <rect x="60" y="262" width="16" height="3" fill="#4e79a7" rx="1"/><text x="80" y="268" font-size="11" fill="#57606a" font-family="-apple-system, BlinkMacSystemFont, 'Segoe UI', sans-serif">Total clones (921)</text><line x1="230" y1="264" x2="246" y2="264" stroke="#f28e2b" stroke-width="2" stroke-dasharray="5,3"/><text x="250" y="268" font-size="11" fill="#57606a" font-family="-apple-system, BlinkMacSystemFont, 'Segoe UI', sans-serif">Unique cloners</text>

</svg>