<svg xmlns="http://www.w3.org/2000/svg" viewBox="0 0 820 280" width="820" height="280">

  <!-- title -->
  <text x="52" y="18" font-size="13" font-weight="600"
        fill="#24292f" font-family="-apple-system, BlinkMacSystemFont, 'Segoe UI', sans-serif"
        >Clone traffic — ShelfCast</text>
  <text x="800" y="18" font-size="10" fill="#8c959f"
        font-family="ui-monospace, SFMono-Regular, 'SF Mono', Menlo, monospace" text-anchor="end">2026-06-16</text>

  <!-- grid -->
  <line x1="52" y1="232.0" x2="800" y2="232.0" stroke="#e8e8e8" stroke-width="1"/><line x1="52" y1="192.8" x2="800" y2="192.8" stroke="#e8e8e8" stroke-width="1"/><line x1="52" y1="153.5" x2="800" y2="153.5" stroke="#e8e8e8" stroke-width="1"/><line x1="52" y1="114.3" x2="800" y2="114.3" stroke="#e8e8e8" stroke-width="1"/><line x1="52" y1="75.1" x2="800" y2="75.1" stroke="#e8e8e8" stroke-width="1"/><line x1="52" y1="35.8" x2="800" y2="35.8" stroke="#e8e8e8" stroke-width="1"/><line x1="52" y1="-3.4" x2="800" y2="-3.4" stroke="#e8e8e8" stroke-width="1"/>

  <!-- area fill -->
  <path d="M52.0,232.0 L52.0,232.0 L74.0,231.4 L96.0,230.9 L118.0,232.0 L140.0,231.4 L162.0,232.0 L184.0,232.0 L206.0,231.4 L228.0,230.9 L250.0,232.0 L272.0,232.0 L294.0,231.4 L316.0,232.0 L338.0,28.0 L360.0,194.5 L382.0,167.0 L404.0,230.9 L426.0,232.0 L448.0,231.4 L470.0,231.4 L492.0,230.9 L514.0,232.0 L536.0,231.4 L558.0,230.9 L580.0,232.0 L602.0,231.4 L624.0,231.4 L646.0,232.0 L668.0,232.0 L690.0,231.4 L712.0,230.9 L734.0,230.9 L756.0,231.4 L778.0,230.9 L800.0,232.0 L800.0,232.0 L52.0,232.0Z" fill="#4e79a7" opacity="0.12"/>

  <!-- lines -->
  <polyline points="52.0,232.0 74.0,231.4 96.0,230.9 118.0,232.0 140.0,231.4 162.0,232.0 184.0,232.0 206.0,231.4 228.0,230.9 250.0,232.0 272.0,232.0 294.0,231.4 316.0,232.0 338.0,28.0 360.0,194.5 382.0,167.0 404.0,230.9 426.0,232.0 448.0,231.4 470.0,231.4 492.0,230.9 514.0,232.0 536.0,231.4 558.0,230.9 580.0,232.0 602.0,231.4 624.0,231.4 646.0,232.0 668.0,232.0 690.0,231.4 712.0,230.9 734.0,230.9 756.0,231.4 778.0,230.9 800.0,232.0"
            fill="none" stroke="#4e79a7"
            stroke-width="2" stroke-linejoin="round"/>
  <polyline points="52.0,232.0 74.0,231.4 96.0,230.9 118.0,232.0 140.0,231.4 162.0,232.0 184.0,232.0 206.0,231.4 228.0,230.9 250.0,232.0 272.0,232.0 294.0,231.4 316.0,232.0 338.0,221.4 360.0,230.9 382.0,215.7 404.0,230.9 426.0,232.0 448.0,231.4 470.0,231.4 492.0,230.9 514.0,232.0 536.0,231.4 558.0,230.9 580.0,232.0 602.0,231.4 624.0,231.4 646.0,232.0 668.0,232.0 690.0,231.4 712.0,230.9 734.0,230.9 756.0,231.4 778.0,231.4 800.0,232.0"
            fill="none" stroke="#f28e2b"
            stroke-width="2" stroke-linejoin="round"
            stroke-dasharray="5,3"/>

  <!-- dots -->
  <circle cx="52.0" cy="232.0" r="3" fill="#4e79a7"/><circle cx="74.0" cy="231.4" r="3" fill="#4e79a7"/><circle cx="96.0" cy="230.9" r="3" fill="#4e79a7"/><circle cx="118.0" cy="232.0" r="3" fill="#4e79a7"/><circle cx="140.0" cy="231.4" r="3" fill="#4e79a7"/><circle cx="162.0" cy="232.0" r="3" fill="#4e79a7"/><circle cx="184.0" cy="232.0" r="3" fill="#4e79a7"/><circle cx="206.0" cy="231.4" r="3" fill="#4e79a7"/><circle cx="228.0" cy="230.9" r="3" fill="#4e79a7"/><circle cx="250.0" cy="232.0" r="3" fill="#4e79a7"/><circle cx="272.0" cy="232.0" r="3" fill="#4e79a7"/><circle cx="294.0" cy="231.4" r="3" fill="#4e79a7"/><circle cx="316.0" cy="232.0" r="3" fill="#4e79a7"/><circle cx="338.0" cy="28.0" r="3" fill="#4e79a7"/><circle cx="360.0" cy="194.5" r="3" fill="#4e79a7"/><circle cx="382.0" cy="167.0" r="3" fill="#4e79a7"/><circle cx="404.0" cy="230.9" r="3" fill="#4e79a7"/><circle cx="426.0" cy="232.0" r="3" fill="#4e79a7"/><circle cx="448.0" cy="231.4" r="3" fill="#4e79a7"/><circle cx="470.0" cy="231.4" r="3" fill="#4e79a7"/><circle cx="492.0" cy="230.9" r="3" fill="#4e79a7"/><circle cx="514.0" cy="232.0" r="3" fill="#4e79a7"/><circle cx="536.0" cy="231.4" r="3" fill="#4e79a7"/><circle cx="558.0" cy="230.9" r="3" fill="#4e79a7"/><circle cx="580.0" cy="232.0" r="3" fill="#4e79a7"/><circle cx="602.0" cy="231.4" r="3" fill="#4e79a7"/><circle cx="624.0" cy="231.4" r="3" fill="#4e79a7"/><circle cx="646.0" cy="232.0" r="3" fill="#4e79a7"/><circle cx="668.0" cy="232.0" r="3" fill="#4e79a7"/><circle cx="690.0" cy="231.4" r="3" fill="#4e79a7"/><circle cx="712.0" cy="230.9" r="3" fill="#4e79a7"/><circle cx="734.0" cy="230.9" r="3" fill="#4e79a7"/><circle cx="756.0" cy="231.4" r="3" fill="#4e79a7"/><circle cx="778.0" cy="230.9" r="3" fill="#4e79a7"/><circle cx="800.0" cy="232.0" r="3" fill="#4e79a7"/>
  <circle cx="52.0" cy="232.0" r="3" fill="#f28e2b"/><circle cx="74.0" cy="231.4" r="3" fill="#f28e2b"/><circle cx="96.0" cy="230.9" r="3" fill="#f28e2b"/><circle cx="118.0" cy="232.0" r="3" fill="#f28e2b"/><circle cx="140.0" cy="231.4" r="3" fill="#f28e2b"/><circle cx="162.0" cy="232.0" r="3" fill="#f28e2b"/><circle cx="184.0" cy="232.0" r="3" fill="#f28e2b"/><circle cx="206.0" cy="231.4" r="3" fill="#f28e2b"/><circle cx="228.0" cy="230.9" r="3" fill="#f28e2b"/><circle cx="250.0" cy="232.0" r="3" fill="#f28e2b"/><circle cx="272.0" cy="232.0" r="3" fill="#f28e2b"/><circle cx="294.0" cy="231.4" r="3" fill="#f28e2b"/><circle cx="316.0" cy="232.0" r="3" fill="#f28e2b"/><circle cx="338.0" cy="221.4" r="3" fill="#f28e2b"/><circle cx="360.0" cy="230.9" r="3" fill="#f28e2b"/><circle cx="382.0" cy="215.7" r="3" fill="#f28e2b"/><circle cx="404.0" cy="230.9" r="3" fill="#f28e2b"/><circle cx="426.0" cy="232.0" r="3" fill="#f28e2b"/><circle cx="448.0" cy="231.4" r="3" fill="#f28e2b"/><circle cx="470.0" cy="231.4" r="3" fill="#f28e2b"/><circle cx="492.0" cy="230.9" r="3" fill="#f28e2b"/><circle cx="514.0" cy="232.0" r="3" fill="#f28e2b"/><circle cx="536.0" cy="231.4" r="3" fill="#f28e2b"/><circle cx="558.0" cy="230.9" r="3" fill="#f28e2b"/><circle cx="580.0" cy="232.0" r="3" fill="#f28e2b"/><circle cx="602.0" cy="231.4" r="3" fill="#f28e2b"/><circle cx="624.0" cy="231.4" r="3" fill="#f28e2b"/><circle cx="646.0" cy="232.0" r="3" fill="#f28e2b"/><circle cx="668.0" cy="232.0" r="3" fill="#f28e2b"/><circle cx="690.0" cy="231.4" r="3" fill="#f28e2b"/><circle cx="712.0" cy="230.9" r="3" fill="#f28e2b"/><circle cx="734.0" cy="230.9" r="3" fill="#f28e2b"/><circle cx="756.0" cy="231.4" r="3" fill="#f28e2b"/><circle cx="778.0" cy="231.4" r="3" fill="#f28e2b"/><circle cx="800.0" cy="232.0" r="3" fill="#f28e2b"/>

  <!-- axes -->
  <line x1="52" y1="28" x2="52" y2="232"
        stroke="#cccccc" stroke-width="1"/>
  <line x1="52" y1="232" x2="800" y2="232"
        stroke="#cccccc" stroke-width="1"/>

  <!-- y-axis labels -->
  <text x="47" y="236.0" text-anchor="end" font-size="10" fill="#57606a" font-family="ui-monospace, SFMono-Regular, 'SF Mono', Menlo, monospace">0</text><text x="47" y="196.8" text-anchor="end" font-size="10" fill="#57606a" font-family="ui-monospace, SFMono-Regular, 'SF Mono', Menlo, monospace">70</text><text x="47" y="157.5" text-anchor="end" font-size="10" fill="#57606a" font-family="ui-monospace, SFMono-Regular, 'SF Mono', Menlo, monospace">140</text><text x="47" y="118.3" text-anchor="end" font-size="10" fill="#57606a" font-family="ui-monospace, SFMono-Regular, 'SF Mono', Menlo, monospace">210</text><text x="47" y="79.1" text-anchor="end" font-size="10" fill="#57606a" font-family="ui-monospace, SFMono-Regular, 'SF Mono', Menlo, monospace">280</text><text x="47" y="39.8" text-anchor="end" font-size="10" fill="#57606a" font-family="ui-monospace, SFMono-Regular, 'SF Mono', Menlo, monospace">350</text><text x="47" y="0.6" text-anchor="end" font-size="10" fill="#57606a" font-family="ui-monospace, SFMono-Regular, 'SF Mono', Menlo, monospace">420</text>

  <!-- x-axis labels -->
  <text x="52.0" y="248" text-anchor="middle" font-size="10" fill="#8c959f" font-family="ui-monospace, SFMono-Regular, 'SF Mono', Menlo, monospace">05-11</text><text x="756.0" y="248" text-anchor="middle" font-size="10" fill="#8c959f" font-family="ui-monospace, SFMono-Regular, 'SF Mono', Menlo, monospace">06-12</text><text x="800.0" y="248" text-anchor="middle" font-size="10" fill="#8c959f" font-family="ui-monospace, SFMono-Regular, 'SF Mono', Menlo, monospace">06-14</text><text x="140.0" y="248" text-anchor="middle" font-size="10" fill="#8c959f" font-family="ui-monospace, SFMono-Regular, 'SF Mono', Menlo, monospace">05-15</text><text x="228.0" y="248" text-anchor="middle" font-size="10" fill="#8c959f" font-family="ui-monospace, SFMono-Regular, 'SF Mono', Menlo, monospace">05-19</text><text x="316.0" y="248" text-anchor="middle" font-size="10" fill="#8c959f" font-family="ui-monospace, SFMono-Regular, 'SF Mono', Menlo, monospace">05-23</text><text x="404.0" y="248" text-anchor="middle" font-size="10" fill="#8c959f" font-family="ui-monospace, SFMono-Regular, 'SF Mono', Menlo, monospace">05-27</text><text x="492.0" y="248" text-anchor="middle" font-size="10" fill="#8c959f" font-family="ui-monospace, SFMono-Regular, 'SF Mono', Menlo, monospace">05-31</text><text x="580.0" y="248" text-anchor="middle" font-size="10" fill="#8c959f" font-family="ui-monospace, SFMono-Regular, 'SF Mono', Menlo, monospace">06-04</text><text x="668.0" y="248" text-anchor="middle" font-size="10" fill="#8c959f" font-family="ui-monospace, SFMono-Regular, 'SF Mono', Menlo, monospace">06-08</text>

  <!-- legend -->
  <rect x="60" y="262" width="16" height="3" fill="#4e79a7" rx="1"/><text x="80" y="268" font-size="11" fill="#57606a" font-family="-apple-system, BlinkMacSystemFont, 'Segoe UI', sans-serif">Total clones (574)</text><line x1="230" y1="264" x2="246" y2="264" stroke="#f28e2b" stroke-width="2" stroke-dasharray="5,3"/><text x="250" y="268" font-size="11" fill="#57606a" font-family="-apple-system, BlinkMacSystemFont, 'Segoe UI', sans-serif">Unique cloners</text>

</svg>