<svg xmlns="http://www.w3.org/2000/svg" viewBox="0 0 820 280" width="820" height="280">

  <!-- title -->
  <text x="52" y="18" font-size="13" font-weight="600"
        fill="#24292f" font-family="-apple-system, BlinkMacSystemFont, 'Segoe UI', sans-serif"
        >Clone traffic — ShelfCast</text>
  <text x="800" y="18" font-size="10" fill="#8c959f"
        font-family="ui-monospace, SFMono-Regular, 'SF Mono', Menlo, monospace" text-anchor="end">2026-07-22</text>

  <!-- grid -->
  <line x1="52" y1="232.0" x2="800" y2="232.0" stroke="#e8e8e8" stroke-width="1"/><line x1="52" y1="192.8" x2="800" y2="192.8" stroke="#e8e8e8" stroke-width="1"/><line x1="52" y1="153.5" x2="800" y2="153.5" stroke="#e8e8e8" stroke-width="1"/><line x1="52" y1="114.3" x2="800" y2="114.3" stroke="#e8e8e8" stroke-width="1"/><line x1="52" y1="75.1" x2="800" y2="75.1" stroke="#e8e8e8" stroke-width="1"/><line x1="52" y1="35.8" x2="800" y2="35.8" stroke="#e8e8e8" stroke-width="1"/><line x1="52" y1="-3.4" x2="800" y2="-3.4" stroke="#e8e8e8" stroke-width="1"/>

  <!-- area fill -->
  <path d="M52.0,232.0 L52.0,232.0 L62.7,231.4 L73.4,230.9 L84.1,232.0 L94.7,231.4 L105.4,232.0 L116.1,232.0 L126.8,231.4 L137.5,230.9 L148.2,232.0 L158.9,232.0 L169.5,231.4 L180.2,232.0 L190.9,28.0 L201.6,194.5 L212.3,167.0 L223.0,230.9 L233.7,232.0 L244.3,231.4 L255.0,231.4 L265.7,230.9 L276.4,232.0 L287.1,231.4 L297.8,230.9 L308.5,232.0 L319.1,231.4 L329.8,231.4 L340.5,232.0 L351.2,232.0 L361.9,231.4 L372.6,230.9 L383.3,230.9 L393.9,231.4 L404.6,230.9 L415.3,232.0 L426.0,232.0 L436.7,231.4 L447.4,232.0 L458.1,77.9 L468.7,223.0 L479.4,232.0 L490.1,231.4 L500.8,222.5 L511.5,227.5 L522.2,230.9 L532.9,232.0 L543.5,230.3 L554.2,232.0 L564.9,232.0 L575.6,232.0 L586.3,232.0 L597.0,227.0 L607.7,232.0 L618.3,230.3 L629.0,231.4 L639.7,231.4 L650.4,232.0 L661.1,226.4 L671.8,232.0 L682.5,232.0 L693.1,232.0 L703.8,232.0 L714.5,231.4 L725.2,232.0 L735.9,232.0 L746.6,232.0 L757.3,232.0 L767.9,232.0 L778.6,232.0 L789.3,231.4 L800.0,231.4 L800.0,232.0 L52.0,232.0Z" fill="#4e79a7" opacity="0.12"/>

  <!-- lines -->
  <polyline points="52.0,232.0 62.7,231.4 73.4,230.9 84.1,232.0 94.7,231.4 105.4,232.0 116.1,232.0 126.8,231.4 137.5,230.9 148.2,232.0 158.9,232.0 169.5,231.4 180.2,232.0 190.9,28.0 201.6,194.5 212.3,167.0 223.0,230.9 233.7,232.0 244.3,231.4 255.0,231.4 265.7,230.9 276.4,232.0 287.1,231.4 297.8,230.9 308.5,232.0 319.1,231.4 329.8,231.4 340.5,232.0 351.2,232.0 361.9,231.4 372.6,230.9 383.3,230.9 393.9,231.4 404.6,230.9 415.3,232.0 426.0,232.0 436.7,231.4 447.4,232.0 458.1,77.9 468.7,223.0 479.4,232.0 490.1,231.4 500.8,222.5 511.5,227.5 522.2,230.9 532.9,232.0 543.5,230.3 554.2,232.0 564.9,232.0 575.6,232.0 586.3,232.0 597.0,227.0 607.7,232.0 618.3,230.3 629.0,231.4 639.7,231.4 650.4,232.0 661.1,226.4 671.8,232.0 682.5,232.0 693.1,232.0 703.8,232.0 714.5,231.4 725.2,232.0 735.9,232.0 746.6,232.0 757.3,232.0 767.9,232.0 778.6,232.0 789.3,231.4 800.0,231.4"
            fill="none" stroke="#4e79a7"
            stroke-width="2" stroke-linejoin="round"/>
  <polyline points="52.0,232.0 62.7,231.4 73.4,230.9 84.1,232.0 94.7,231.4 105.4,232.0 116.1,232.0 126.8,231.4 137.5,230.9 148.2,232.0 158.9,232.0 169.5,231.4 180.2,232.0 190.9,221.4 201.6,230.9 212.3,215.7 223.0,230.9 233.7,232.0 244.3,231.4 255.0,231.4 265.7,230.9 276.4,232.0 287.1,231.4 297.8,230.9 308.5,232.0 319.1,231.4 329.8,231.4 340.5,232.0 351.2,232.0 361.9,231.4 372.6,230.9 383.3,230.9 393.9,231.4 404.6,231.4 415.3,232.0 426.0,232.0 436.7,231.4 447.4,232.0 458.1,223.0 468.7,226.4 479.4,232.0 490.1,231.4 500.8,229.2 511.5,230.9 522.2,230.9 532.9,232.0 543.5,230.3 554.2,232.0 564.9,232.0 575.6,232.0 586.3,232.0 597.0,228.6 607.7,232.0 618.3,230.3 629.0,231.4 639.7,231.4 650.4,232.0 661.1,231.4 671.8,232.0 682.5,232.0 693.1,232.0 703.8,232.0 714.5,231.4 725.2,232.0 735.9,232.0 746.6,232.0 757.3,232.0 767.9,232.0 778.6,232.0 789.3,231.4 800.0,231.4"
            fill="none" stroke="#f28e2b"
            stroke-width="2" stroke-linejoin="round"
            stroke-dasharray="5,3"/>

  <!-- dots -->
  <circle cx="52.0" cy="232.0" r="3" fill="#4e79a7"/><circle cx="62.7" cy="231.4" r="3" fill="#4e79a7"/><circle cx="73.4" cy="230.9" r="3" fill="#4e79a7"/><circle cx="84.1" cy="232.0" r="3" fill="#4e79a7"/><circle cx="94.7" cy="231.4" r="3" fill="#4e79a7"/><circle cx="105.4" cy="232.0" r="3" fill="#4e79a7"/><circle cx="116.1" cy="232.0" r="3" fill="#4e79a7"/><circle cx="126.8" cy="231.4" r="3" fill="#4e79a7"/><circle cx="137.5" cy="230.9" r="3" fill="#4e79a7"/><circle cx="148.2" cy="232.0" r="3" fill="#4e79a7"/><circle cx="158.9" cy="232.0" r="3" fill="#4e79a7"/><circle cx="169.5" cy="231.4" r="3" fill="#4e79a7"/><circle cx="180.2" cy="232.0" r="3" fill="#4e79a7"/><circle cx="190.9" cy="28.0" r="3" fill="#4e79a7"/><circle cx="201.6" cy="194.5" r="3" fill="#4e79a7"/><circle cx="212.3" cy="167.0" r="3" fill="#4e79a7"/><circle cx="223.0" cy="230.9" r="3" fill="#4e79a7"/><circle cx="233.7" cy="232.0" r="3" fill="#4e79a7"/><circle cx="244.3" cy="231.4" r="3" fill="#4e79a7"/><circle cx="255.0" cy="231.4" r="3" fill="#4e79a7"/><circle cx="265.7" cy="230.9" r="3" fill="#4e79a7"/><circle cx="276.4" cy="232.0" r="3" fill="#4e79a7"/><circle cx="287.1" cy="231.4" r="3" fill="#4e79a7"/><circle cx="297.8" cy="230.9" r="3" fill="#4e79a7"/><circle cx="308.5" cy="232.0" r="3" fill="#4e79a7"/><circle cx="319.1" cy="231.4" r="3" fill="#4e79a7"/><circle cx="329.8" cy="231.4" r="3" fill="#4e79a7"/><circle cx="340.5" cy="232.0" r="3" fill="#4e79a7"/><circle cx="351.2" cy="232.0" r="3" fill="#4e79a7"/><circle cx="361.9" cy="231.4" r="3" fill="#4e79a7"/><circle cx="372.6" cy="230.9" r="3" fill="#4e79a7"/><circle cx="383.3" cy="230.9" r="3" fill="#4e79a7"/><circle cx="393.9" cy="231.4" r="3" fill="#4e79a7"/><circle cx="404.6" cy="230.9" r="3" fill="#4e79a7"/><circle cx="415.3" cy="232.0" r="3" fill="#4e79a7"/><circle cx="426.0" cy="232.0" r="3" fill="#4e79a7"/><circle cx="436.7" cy="231.4" r="3" fill="#4e79a7"/><circle cx="447.4" cy="232.0" r="3" fill="#4e79a7"/><circle cx="458.1" cy="77.9" r="3" fill="#4e79a7"/><circle cx="468.7" cy="223.0" r="3" fill="#4e79a7"/><circle cx="479.4" cy="232.0" r="3" fill="#4e79a7"/><circle cx="490.1" cy="231.4" r="3" fill="#4e79a7"/><circle cx="500.8" cy="222.5" r="3" fill="#4e79a7"/><circle cx="511.5" cy="227.5" r="3" fill="#4e79a7"/><circle cx="522.2" cy="230.9" r="3" fill="#4e79a7"/><circle cx="532.9" cy="232.0" r="3" fill="#4e79a7"/><circle cx="543.5" cy="230.3" r="3" fill="#4e79a7"/><circle cx="554.2" cy="232.0" r="3" fill="#4e79a7"/><circle cx="564.9" cy="232.0" r="3" fill="#4e79a7"/><circle cx="575.6" cy="232.0" r="3" fill="#4e79a7"/><circle cx="586.3" cy="232.0" r="3" fill="#4e79a7"/><circle cx="597.0" cy="227.0" r="3" fill="#4e79a7"/><circle cx="607.7" cy="232.0" r="3" fill="#4e79a7"/><circle cx="618.3" cy="230.3" r="3" fill="#4e79a7"/><circle cx="629.0" cy="231.4" r="3" fill="#4e79a7"/><circle cx="639.7" cy="231.4" r="3" fill="#4e79a7"/><circle cx="650.4" cy="232.0" r="3" fill="#4e79a7"/><circle cx="661.1" cy="226.4" r="3" fill="#4e79a7"/><circle cx="671.8" cy="232.0" r="3" fill="#4e79a7"/><circle cx="682.5" cy="232.0" r="3" fill="#4e79a7"/><circle cx="693.1" cy="232.0" r="3" fill="#4e79a7"/><circle cx="703.8" cy="232.0" r="3" fill="#4e79a7"/><circle cx="714.5" cy="231.4" r="3" fill="#4e79a7"/><circle cx="725.2" cy="232.0" r="3" fill="#4e79a7"/><circle cx="735.9" cy="232.0" r="3" fill="#4e79a7"/><circle cx="746.6" cy="232.0" r="3" fill="#4e79a7"/><circle cx="757.3" cy="232.0" r="3" fill="#4e79a7"/><circle cx="767.9" cy="232.0" r="3" fill="#4e79a7"/><circle cx="778.6" cy="232.0" r="3" fill="#4e79a7"/><circle cx="789.3" cy="231.4" r="3" fill="#4e79a7"/><circle cx="800.0" cy="231.4" r="3" fill="#4e79a7"/>
  <circle cx="52.0" cy="232.0" r="3" fill="#f28e2b"/><circle cx="62.7" cy="231.4" r="3" fill="#f28e2b"/><circle cx="73.4" cy="230.9" r="3" fill="#f28e2b"/><circle cx="84.1" cy="232.0" r="3" fill="#f28e2b"/><circle cx="94.7" cy="231.4" r="3" fill="#f28e2b"/><circle cx="105.4" cy="232.0" r="3" fill="#f28e2b"/><circle cx="116.1" cy="232.0" r="3" fill="#f28e2b"/><circle cx="126.8" cy="231.4" r="3" fill="#f28e2b"/><circle cx="137.5" cy="230.9" r="3" fill="#f28e2b"/><circle cx="148.2" cy="232.0" r="3" fill="#f28e2b"/><circle cx="158.9" cy="232.0" r="3" fill="#f28e2b"/><circle cx="169.5" cy="231.4" r="3" fill="#f28e2b"/><circle cx="180.2" cy="232.0" r="3" fill="#f28e2b"/><circle cx="190.9" cy="221.4" r="3" fill="#f28e2b"/><circle cx="201.6" cy="230.9" r="3" fill="#f28e2b"/><circle cx="212.3" cy="215.7" r="3" fill="#f28e2b"/><circle cx="223.0" cy="230.9" r="3" fill="#f28e2b"/><circle cx="233.7" cy="232.0" r="3" fill="#f28e2b"/><circle cx="244.3" cy="231.4" r="3" fill="#f28e2b"/><circle cx="255.0" cy="231.4" r="3" fill="#f28e2b"/><circle cx="265.7" cy="230.9" r="3" fill="#f28e2b"/><circle cx="276.4" cy="232.0" r="3" fill="#f28e2b"/><circle cx="287.1" cy="231.4" r="3" fill="#f28e2b"/><circle cx="297.8" cy="230.9" r="3" fill="#f28e2b"/><circle cx="308.5" cy="232.0" r="3" fill="#f28e2b"/><circle cx="319.1" cy="231.4" r="3" fill="#f28e2b"/><circle cx="329.8" cy="231.4" r="3" fill="#f28e2b"/><circle cx="340.5" cy="232.0" r="3" fill="#f28e2b"/><circle cx="351.2" cy="232.0" r="3" fill="#f28e2b"/><circle cx="361.9" cy="231.4" r="3" fill="#f28e2b"/><circle cx="372.6" cy="230.9" r="3" fill="#f28e2b"/><circle cx="383.3" cy="230.9" r="3" fill="#f28e2b"/><circle cx="393.9" cy="231.4" r="3" fill="#f28e2b"/><circle cx="404.6" cy="231.4" r="3" fill="#f28e2b"/><circle cx="415.3" cy="232.0" r="3" fill="#f28e2b"/><circle cx="426.0" cy="232.0" r="3" fill="#f28e2b"/><circle cx="436.7" cy="231.4" r="3" fill="#f28e2b"/><circle cx="447.4" cy="232.0" r="3" fill="#f28e2b"/><circle cx="458.1" cy="223.0" r="3" fill="#f28e2b"/><circle cx="468.7" cy="226.4" r="3" fill="#f28e2b"/><circle cx="479.4" cy="232.0" r="3" fill="#f28e2b"/><circle cx="490.1" cy="231.4" r="3" fill="#f28e2b"/><circle cx="500.8" cy="229.2" r="3" fill="#f28e2b"/><circle cx="511.5" cy="230.9" r="3" fill="#f28e2b"/><circle cx="522.2" cy="230.9" r="3" fill="#f28e2b"/><circle cx="532.9" cy="232.0" r="3" fill="#f28e2b"/><circle cx="543.5" cy="230.3" r="3" fill="#f28e2b"/><circle cx="554.2" cy="232.0" r="3" fill="#f28e2b"/><circle cx="564.9" cy="232.0" r="3" fill="#f28e2b"/><circle cx="575.6" cy="232.0" r="3" fill="#f28e2b"/><circle cx="586.3" cy="232.0" r="3" fill="#f28e2b"/><circle cx="597.0" cy="228.6" r="3" fill="#f28e2b"/><circle cx="607.7" cy="232.0" r="3" fill="#f28e2b"/><circle cx="618.3" cy="230.3" r="3" fill="#f28e2b"/><circle cx="629.0" cy="231.4" r="3" fill="#f28e2b"/><circle cx="639.7" cy="231.4" r="3" fill="#f28e2b"/><circle cx="650.4" cy="232.0" r="3" fill="#f28e2b"/><circle cx="661.1" cy="231.4" r="3" fill="#f28e2b"/><circle cx="671.8" cy="232.0" r="3" fill="#f28e2b"/><circle cx="682.5" cy="232.0" r="3" fill="#f28e2b"/><circle cx="693.1" cy="232.0" r="3" fill="#f28e2b"/><circle cx="703.8" cy="232.0" r="3" fill="#f28e2b"/><circle cx="714.5" cy="231.4" r="3" fill="#f28e2b"/><circle cx="725.2" cy="232.0" r="3" fill="#f28e2b"/><circle cx="735.9" cy="232.0" r="3" fill="#f28e2b"/><circle cx="746.6" cy="232.0" r="3" fill="#f28e2b"/><circle cx="757.3" cy="232.0" r="3" fill="#f28e2b"/><circle cx="767.9" cy="232.0" r="3" fill="#f28e2b"/><circle cx="778.6" cy="232.0" r="3" fill="#f28e2b"/><circle cx="789.3" cy="231.4" r="3" fill="#f28e2b"/><circle cx="800.0" cy="231.4" r="3" fill="#f28e2b"/>

  <!-- axes -->
  <line x1="52" y1="28" x2="52" y2="232"
        stroke="#cccccc" stroke-width="1"/>
  <line x1="52" y1="232" x2="800" y2="232"
        stroke="#cccccc" stroke-width="1"/>

  <!-- y-axis labels -->
  <text x="47" y="236.0" text-anchor="end" font-size="10" fill="#57606a" font-family="ui-monospace, SFMono-Regular, 'SF Mono', Menlo, monospace">0</text><text x="47" y="196.8" text-anchor="end" font-size="10" fill="#57606a" font-family="ui-monospace, SFMono-Regular, 'SF Mono', Menlo, monospace">70</text><text x="47" y="157.5" text-anchor="end" font-size="10" fill="#57606a" font-family="ui-monospace, SFMono-Regular, 'SF Mono', Menlo, monospace">140</text><text x="47" y="118.3" text-anchor="end" font-size="10" fill="#57606a" font-family="ui-monospace, SFMono-Regular, 'SF Mono', Menlo, monospace">210</text><text x="47" y="79.1" text-anchor="end" font-size="10" fill="#57606a" font-family="ui-monospace, SFMono-Regular, 'SF Mono', Menlo, monospace">280</text><text x="47" y="39.8" text-anchor="end" font-size="10" fill="#57606a" font-family="ui-monospace, SFMono-Regular, 'SF Mono', Menlo, monospace">350</text><text x="47" y="0.6" text-anchor="end" font-size="10" fill="#57606a" font-family="ui-monospace, SFMono-Regular, 'SF Mono', Menlo, monospace">420</text>

  <!-- x-axis labels -->
  <text x="52.0" y="248" text-anchor="middle" font-size="10" fill="#8c959f" font-family="ui-monospace, SFMono-Regular, 'SF Mono', Menlo, monospace">05-11</text><text x="393.9" y="248" text-anchor="middle" font-size="10" fill="#8c959f" font-family="ui-monospace, SFMono-Regular, 'SF Mono', Menlo, monospace">06-12</text><text x="735.9" y="248" text-anchor="middle" font-size="10" fill="#8c959f" font-family="ui-monospace, SFMono-Regular, 'SF Mono', Menlo, monospace">07-14</text><text x="800.0" y="248" text-anchor="middle" font-size="10" fill="#8c959f" font-family="ui-monospace, SFMono-Regular, 'SF Mono', Menlo, monospace">07-20</text><text x="137.5" y="248" text-anchor="middle" font-size="10" fill="#8c959f" font-family="ui-monospace, SFMono-Regular, 'SF Mono', Menlo, monospace">05-19</text><text x="479.4" y="248" text-anchor="middle" font-size="10" fill="#8c959f" font-family="ui-monospace, SFMono-Regular, 'SF Mono', Menlo, monospace">06-20</text><text x="223.0" y="248" text-anchor="middle" font-size="10" fill="#8c959f" font-family="ui-monospace, SFMono-Regular, 'SF Mono', Menlo, monospace">05-27</text><text x="564.9" y="248" text-anchor="middle" font-size="10" fill="#8c959f" font-family="ui-monospace, SFMono-Regular, 'SF Mono', Menlo, monospace">06-28</text><text x="308.5" y="248" text-anchor="middle" font-size="10" fill="#8c959f" font-family="ui-monospace, SFMono-Regular, 'SF Mono', Menlo, monospace">06-04</text><text x="650.4" y="248" text-anchor="middle" font-size="10" fill="#8c959f" font-family="ui-monospace, SFMono-Regular, 'SF Mono', Menlo, monospace">07-06</text>

  <!-- legend -->
  <rect x="60" y="262" width="16" height="3" fill="#4e79a7" rx="1"/><text x="80" y="268" font-size="11" fill="#57606a" font-family="-apple-system, BlinkMacSystemFont, 'Segoe UI', sans-serif">Total clones (924)</text><line x1="230" y1="264" x2="246" y2="264" stroke="#f28e2b" stroke-width="2" stroke-dasharray="5,3"/><text x="250" y="268" font-size="11" fill="#57606a" font-family="-apple-system, BlinkMacSystemFont, 'Segoe UI', sans-serif">Unique cloners</text>

</svg>