<svg xmlns="http://www.w3.org/2000/svg" viewBox="0 0 820 280" width="820" height="280">

  <!-- title -->
  <text x="52" y="18" font-size="13" font-weight="600"
        fill="#24292f" font-family="-apple-system, BlinkMacSystemFont, 'Segoe UI', sans-serif"
        >Clone traffic — ShelfCast</text>
  <text x="800" y="18" font-size="10" fill="#8c959f"
        font-family="ui-monospace, SFMono-Regular, 'SF Mono', Menlo, monospace" text-anchor="end">2026-07-04</text>

  <!-- grid -->
  <line x1="52" y1="232.0" x2="800" y2="232.0" stroke="#e8e8e8" stroke-width="1"/><line x1="52" y1="192.8" x2="800" y2="192.8" stroke="#e8e8e8" stroke-width="1"/><line x1="52" y1="153.5" x2="800" y2="153.5" stroke="#e8e8e8" stroke-width="1"/><line x1="52" y1="114.3" x2="800" y2="114.3" stroke="#e8e8e8" stroke-width="1"/><line x1="52" y1="75.1" x2="800" y2="75.1" stroke="#e8e8e8" stroke-width="1"/><line x1="52" y1="35.8" x2="800" y2="35.8" stroke="#e8e8e8" stroke-width="1"/><line x1="52" y1="-3.4" x2="800" y2="-3.4" stroke="#e8e8e8" stroke-width="1"/>

  <!-- area fill -->
  <path d="M52.0,232.0 L52.0,232.0 L66.1,231.4 L80.2,230.9 L94.3,232.0 L108.5,231.4 L122.6,232.0 L136.7,232.0 L150.8,231.4 L164.9,230.9 L179.0,232.0 L193.1,232.0 L207.2,231.4 L221.4,232.0 L235.5,28.0 L249.6,194.5 L263.7,167.0 L277.8,230.9 L291.9,232.0 L306.0,231.4 L320.2,231.4 L334.3,230.9 L348.4,232.0 L362.5,231.4 L376.6,230.9 L390.7,232.0 L404.8,231.4 L418.9,231.4 L433.1,232.0 L447.2,232.0 L461.3,231.4 L475.4,230.9 L489.5,230.9 L503.6,231.4 L517.7,230.9 L531.8,232.0 L546.0,232.0 L560.1,231.4 L574.2,232.0 L588.3,77.9 L602.4,223.0 L616.5,232.0 L630.6,231.4 L644.8,222.5 L658.9,227.5 L673.0,230.9 L687.1,232.0 L701.2,230.3 L715.3,232.0 L729.4,232.0 L743.5,232.0 L757.7,232.0 L771.8,227.0 L785.9,232.0 L800.0,230.3 L800.0,232.0 L52.0,232.0Z" fill="#4e79a7" opacity="0.12"/>

  <!-- lines -->
  <polyline points="52.0,232.0 66.1,231.4 80.2,230.9 94.3,232.0 108.5,231.4 122.6,232.0 136.7,232.0 150.8,231.4 164.9,230.9 179.0,232.0 193.1,232.0 207.2,231.4 221.4,232.0 235.5,28.0 249.6,194.5 263.7,167.0 277.8,230.9 291.9,232.0 306.0,231.4 320.2,231.4 334.3,230.9 348.4,232.0 362.5,231.4 376.6,230.9 390.7,232.0 404.8,231.4 418.9,231.4 433.1,232.0 447.2,232.0 461.3,231.4 475.4,230.9 489.5,230.9 503.6,231.4 517.7,230.9 531.8,232.0 546.0,232.0 560.1,231.4 574.2,232.0 588.3,77.9 602.4,223.0 616.5,232.0 630.6,231.4 644.8,222.5 658.9,227.5 673.0,230.9 687.1,232.0 701.2,230.3 715.3,232.0 729.4,232.0 743.5,232.0 757.7,232.0 771.8,227.0 785.9,232.0 800.0,230.3"
            fill="none" stroke="#4e79a7"
            stroke-width="2" stroke-linejoin="round"/>
  <polyline points="52.0,232.0 66.1,231.4 80.2,230.9 94.3,232.0 108.5,231.4 122.6,232.0 136.7,232.0 150.8,231.4 164.9,230.9 179.0,232.0 193.1,232.0 207.2,231.4 221.4,232.0 235.5,221.4 249.6,230.9 263.7,215.7 277.8,230.9 291.9,232.0 306.0,231.4 320.2,231.4 334.3,230.9 348.4,232.0 362.5,231.4 376.6,230.9 390.7,232.0 404.8,231.4 418.9,231.4 433.1,232.0 447.2,232.0 461.3,231.4 475.4,230.9 489.5,230.9 503.6,231.4 517.7,231.4 531.8,232.0 546.0,232.0 560.1,231.4 574.2,232.0 588.3,223.0 602.4,226.4 616.5,232.0 630.6,231.4 644.8,229.2 658.9,230.9 673.0,230.9 687.1,232.0 701.2,230.3 715.3,232.0 729.4,232.0 743.5,232.0 757.7,232.0 771.8,228.6 785.9,232.0 800.0,230.3"
            fill="none" stroke="#f28e2b"
            stroke-width="2" stroke-linejoin="round"
            stroke-dasharray="5,3"/>

  <!-- dots -->
  <circle cx="52.0" cy="232.0" r="3" fill="#4e79a7"/><circle cx="66.1" cy="231.4" r="3" fill="#4e79a7"/><circle cx="80.2" cy="230.9" r="3" fill="#4e79a7"/><circle cx="94.3" cy="232.0" r="3" fill="#4e79a7"/><circle cx="108.5" cy="231.4" r="3" fill="#4e79a7"/><circle cx="122.6" cy="232.0" r="3" fill="#4e79a7"/><circle cx="136.7" cy="232.0" r="3" fill="#4e79a7"/><circle cx="150.8" cy="231.4" r="3" fill="#4e79a7"/><circle cx="164.9" cy="230.9" r="3" fill="#4e79a7"/><circle cx="179.0" cy="232.0" r="3" fill="#4e79a7"/><circle cx="193.1" cy="232.0" r="3" fill="#4e79a7"/><circle cx="207.2" cy="231.4" r="3" fill="#4e79a7"/><circle cx="221.4" cy="232.0" r="3" fill="#4e79a7"/><circle cx="235.5" cy="28.0" r="3" fill="#4e79a7"/><circle cx="249.6" cy="194.5" r="3" fill="#4e79a7"/><circle cx="263.7" cy="167.0" r="3" fill="#4e79a7"/><circle cx="277.8" cy="230.9" r="3" fill="#4e79a7"/><circle cx="291.9" cy="232.0" r="3" fill="#4e79a7"/><circle cx="306.0" cy="231.4" r="3" fill="#4e79a7"/><circle cx="320.2" cy="231.4" r="3" fill="#4e79a7"/><circle cx="334.3" cy="230.9" r="3" fill="#4e79a7"/><circle cx="348.4" cy="232.0" r="3" fill="#4e79a7"/><circle cx="362.5" cy="231.4" r="3" fill="#4e79a7"/><circle cx="376.6" cy="230.9" r="3" fill="#4e79a7"/><circle cx="390.7" cy="232.0" r="3" fill="#4e79a7"/><circle cx="404.8" cy="231.4" r="3" fill="#4e79a7"/><circle cx="418.9" cy="231.4" r="3" fill="#4e79a7"/><circle cx="433.1" cy="232.0" r="3" fill="#4e79a7"/><circle cx="447.2" cy="232.0" r="3" fill="#4e79a7"/><circle cx="461.3" cy="231.4" r="3" fill="#4e79a7"/><circle cx="475.4" cy="230.9" r="3" fill="#4e79a7"/><circle cx="489.5" cy="230.9" r="3" fill="#4e79a7"/><circle cx="503.6" cy="231.4" r="3" fill="#4e79a7"/><circle cx="517.7" cy="230.9" r="3" fill="#4e79a7"/><circle cx="531.8" cy="232.0" r="3" fill="#4e79a7"/><circle cx="546.0" cy="232.0" r="3" fill="#4e79a7"/><circle cx="560.1" cy="231.4" r="3" fill="#4e79a7"/><circle cx="574.2" cy="232.0" r="3" fill="#4e79a7"/><circle cx="588.3" cy="77.9" r="3" fill="#4e79a7"/><circle cx="602.4" cy="223.0" r="3" fill="#4e79a7"/><circle cx="616.5" cy="232.0" r="3" fill="#4e79a7"/><circle cx="630.6" cy="231.4" r="3" fill="#4e79a7"/><circle cx="644.8" cy="222.5" r="3" fill="#4e79a7"/><circle cx="658.9" cy="227.5" r="3" fill="#4e79a7"/><circle cx="673.0" cy="230.9" r="3" fill="#4e79a7"/><circle cx="687.1" cy="232.0" r="3" fill="#4e79a7"/><circle cx="701.2" cy="230.3" r="3" fill="#4e79a7"/><circle cx="715.3" cy="232.0" r="3" fill="#4e79a7"/><circle cx="729.4" cy="232.0" r="3" fill="#4e79a7"/><circle cx="743.5" cy="232.0" r="3" fill="#4e79a7"/><circle cx="757.7" cy="232.0" r="3" fill="#4e79a7"/><circle cx="771.8" cy="227.0" r="3" fill="#4e79a7"/><circle cx="785.9" cy="232.0" r="3" fill="#4e79a7"/><circle cx="800.0" cy="230.3" r="3" fill="#4e79a7"/>
  <circle cx="52.0" cy="232.0" r="3" fill="#f28e2b"/><circle cx="66.1" cy="231.4" r="3" fill="#f28e2b"/><circle cx="80.2" cy="230.9" r="3" fill="#f28e2b"/><circle cx="94.3" cy="232.0" r="3" fill="#f28e2b"/><circle cx="108.5" cy="231.4" r="3" fill="#f28e2b"/><circle cx="122.6" cy="232.0" r="3" fill="#f28e2b"/><circle cx="136.7" cy="232.0" r="3" fill="#f28e2b"/><circle cx="150.8" cy="231.4" r="3" fill="#f28e2b"/><circle cx="164.9" cy="230.9" r="3" fill="#f28e2b"/><circle cx="179.0" cy="232.0" r="3" fill="#f28e2b"/><circle cx="193.1" cy="232.0" r="3" fill="#f28e2b"/><circle cx="207.2" cy="231.4" r="3" fill="#f28e2b"/><circle cx="221.4" cy="232.0" r="3" fill="#f28e2b"/><circle cx="235.5" cy="221.4" r="3" fill="#f28e2b"/><circle cx="249.6" cy="230.9" r="3" fill="#f28e2b"/><circle cx="263.7" cy="215.7" r="3" fill="#f28e2b"/><circle cx="277.8" cy="230.9" r="3" fill="#f28e2b"/><circle cx="291.9" cy="232.0" r="3" fill="#f28e2b"/><circle cx="306.0" cy="231.4" r="3" fill="#f28e2b"/><circle cx="320.2" cy="231.4" r="3" fill="#f28e2b"/><circle cx="334.3" cy="230.9" r="3" fill="#f28e2b"/><circle cx="348.4" cy="232.0" r="3" fill="#f28e2b"/><circle cx="362.5" cy="231.4" r="3" fill="#f28e2b"/><circle cx="376.6" cy="230.9" r="3" fill="#f28e2b"/><circle cx="390.7" cy="232.0" r="3" fill="#f28e2b"/><circle cx="404.8" cy="231.4" r="3" fill="#f28e2b"/><circle cx="418.9" cy="231.4" r="3" fill="#f28e2b"/><circle cx="433.1" cy="232.0" r="3" fill="#f28e2b"/><circle cx="447.2" cy="232.0" r="3" fill="#f28e2b"/><circle cx="461.3" cy="231.4" r="3" fill="#f28e2b"/><circle cx="475.4" cy="230.9" r="3" fill="#f28e2b"/><circle cx="489.5" cy="230.9" r="3" fill="#f28e2b"/><circle cx="503.6" cy="231.4" r="3" fill="#f28e2b"/><circle cx="517.7" cy="231.4" r="3" fill="#f28e2b"/><circle cx="531.8" cy="232.0" r="3" fill="#f28e2b"/><circle cx="546.0" cy="232.0" r="3" fill="#f28e2b"/><circle cx="560.1" cy="231.4" r="3" fill="#f28e2b"/><circle cx="574.2" cy="232.0" r="3" fill="#f28e2b"/><circle cx="588.3" cy="223.0" r="3" fill="#f28e2b"/><circle cx="602.4" cy="226.4" r="3" fill="#f28e2b"/><circle cx="616.5" cy="232.0" r="3" fill="#f28e2b"/><circle cx="630.6" cy="231.4" r="3" fill="#f28e2b"/><circle cx="644.8" cy="229.2" r="3" fill="#f28e2b"/><circle cx="658.9" cy="230.9" r="3" fill="#f28e2b"/><circle cx="673.0" cy="230.9" r="3" fill="#f28e2b"/><circle cx="687.1" cy="232.0" r="3" fill="#f28e2b"/><circle cx="701.2" cy="230.3" r="3" fill="#f28e2b"/><circle cx="715.3" cy="232.0" r="3" fill="#f28e2b"/><circle cx="729.4" cy="232.0" r="3" fill="#f28e2b"/><circle cx="743.5" cy="232.0" r="3" fill="#f28e2b"/><circle cx="757.7" cy="232.0" r="3" fill="#f28e2b"/><circle cx="771.8" cy="228.6" r="3" fill="#f28e2b"/><circle cx="785.9" cy="232.0" r="3" fill="#f28e2b"/><circle cx="800.0" cy="230.3" r="3" fill="#f28e2b"/>

  <!-- axes -->
  <line x1="52" y1="28" x2="52" y2="232"
        stroke="#cccccc" stroke-width="1"/>
  <line x1="52" y1="232" x2="800" y2="232"
        stroke="#cccccc" stroke-width="1"/>

  <!-- y-axis labels -->
  <text x="47" y="236.0" text-anchor="end" font-size="10" fill="#57606a" font-family="ui-monospace, SFMono-Regular, 'SF Mono', Menlo, monospace">0</text><text x="47" y="196.8" text-anchor="end" font-size="10" fill="#57606a" font-family="ui-monospace, SFMono-Regular, 'SF Mono', Menlo, monospace">70</text><text x="47" y="157.5" text-anchor="end" font-size="10" fill="#57606a" font-family="ui-monospace, SFMono-Regular, 'SF Mono', Menlo, monospace">140</text><text x="47" y="118.3" text-anchor="end" font-size="10" fill="#57606a" font-family="ui-monospace, SFMono-Regular, 'SF Mono', Menlo, monospace">210</text><text x="47" y="79.1" text-anchor="end" font-size="10" fill="#57606a" font-family="ui-monospace, SFMono-Regular, 'SF Mono', Menlo, monospace">280</text><text x="47" y="39.8" text-anchor="end" font-size="10" fill="#57606a" font-family="ui-monospace, SFMono-Regular, 'SF Mono', Menlo, monospace">350</text><text x="47" y="0.6" text-anchor="end" font-size="10" fill="#57606a" font-family="ui-monospace, SFMono-Regular, 'SF Mono', Menlo, monospace">420</text>

  <!-- x-axis labels -->
  <text x="52.0" y="248" text-anchor="middle" font-size="10" fill="#8c959f" font-family="ui-monospace, SFMono-Regular, 'SF Mono', Menlo, monospace">05-11</text><text x="560.1" y="248" text-anchor="middle" font-size="10" fill="#8c959f" font-family="ui-monospace, SFMono-Regular, 'SF Mono', Menlo, monospace">06-16</text><text x="136.7" y="248" text-anchor="middle" font-size="10" fill="#8c959f" font-family="ui-monospace, SFMono-Regular, 'SF Mono', Menlo, monospace">05-17</text><text x="644.8" y="248" text-anchor="middle" font-size="10" fill="#8c959f" font-family="ui-monospace, SFMono-Regular, 'SF Mono', Menlo, monospace">06-22</text><text x="221.4" y="248" text-anchor="middle" font-size="10" fill="#8c959f" font-family="ui-monospace, SFMono-Regular, 'SF Mono', Menlo, monospace">05-23</text><text x="729.4" y="248" text-anchor="middle" font-size="10" fill="#8c959f" font-family="ui-monospace, SFMono-Regular, 'SF Mono', Menlo, monospace">06-28</text><text x="306.0" y="248" text-anchor="middle" font-size="10" fill="#8c959f" font-family="ui-monospace, SFMono-Regular, 'SF Mono', Menlo, monospace">05-29</text><text x="800.0" y="248" text-anchor="middle" font-size="10" fill="#8c959f" font-family="ui-monospace, SFMono-Regular, 'SF Mono', Menlo, monospace">07-03</text><text x="390.7" y="248" text-anchor="middle" font-size="10" fill="#8c959f" font-family="ui-monospace, SFMono-Regular, 'SF Mono', Menlo, monospace">06-04</text><text x="475.4" y="248" text-anchor="middle" font-size="10" fill="#8c959f" font-family="ui-monospace, SFMono-Regular, 'SF Mono', Menlo, monospace">06-10</text>

  <!-- legend -->
  <rect x="60" y="262" width="16" height="3" fill="#4e79a7" rx="1"/><text x="80" y="268" font-size="11" fill="#57606a" font-family="-apple-system, BlinkMacSystemFont, 'Segoe UI', sans-serif">Total clones (909)</text><line x1="230" y1="264" x2="246" y2="264" stroke="#f28e2b" stroke-width="2" stroke-dasharray="5,3"/><text x="250" y="268" font-size="11" fill="#57606a" font-family="-apple-system, BlinkMacSystemFont, 'Segoe UI', sans-serif">Unique cloners</text>

</svg>