<svg xmlns="http://www.w3.org/2000/svg" viewBox="0 0 820 280" width="820" height="280">

  <!-- title -->
  <text x="52" y="18" font-size="13" font-weight="600"
        fill="#24292f" font-family="-apple-system, BlinkMacSystemFont, 'Segoe UI', sans-serif"
        >Clone traffic — spank</text>
  <text x="800" y="18" font-size="10" fill="#8c959f"
        font-family="ui-monospace, SFMono-Regular, 'SF Mono', Menlo, monospace" text-anchor="end">2026-06-22</text>

  <!-- grid -->
  <line x1="52" y1="232.0" x2="800" y2="232.0" stroke="#e8e8e8" stroke-width="1"/><line x1="52" y1="199.6" x2="800" y2="199.6" stroke="#e8e8e8" stroke-width="1"/><line x1="52" y1="167.2" x2="800" y2="167.2" stroke="#e8e8e8" stroke-width="1"/><line x1="52" y1="134.9" x2="800" y2="134.9" stroke="#e8e8e8" stroke-width="1"/><line x1="52" y1="102.5" x2="800" y2="102.5" stroke="#e8e8e8" stroke-width="1"/><line x1="52" y1="70.1" x2="800" y2="70.1" stroke="#e8e8e8" stroke-width="1"/><line x1="52" y1="37.7" x2="800" y2="37.7" stroke="#e8e8e8" stroke-width="1"/><line x1="52" y1="5.3" x2="800" y2="5.3" stroke="#e8e8e8" stroke-width="1"/>

  <!-- area fill -->
  <path d="M52.0,232.0 L52.0,232.0 L70.7,228.8 L89.4,225.5 L108.1,232.0 L126.8,228.8 L145.5,232.0 L164.2,228.8 L182.9,232.0 L201.6,228.8 L220.3,232.0 L239.0,225.5 L257.7,28.0 L276.4,222.3 L295.1,232.0 L313.8,228.8 L332.5,209.3 L351.2,222.3 L369.9,232.0 L388.6,232.0 L407.3,232.0 L426.0,222.3 L444.7,222.3 L463.4,228.8 L482.1,232.0 L500.8,232.0 L519.5,228.8 L538.2,228.8 L556.9,232.0 L575.6,232.0 L594.3,228.8 L613.0,228.8 L631.7,228.8 L650.4,232.0 L669.1,232.0 L687.8,228.8 L706.5,228.8 L725.2,232.0 L743.9,225.5 L762.6,115.4 L781.3,173.7 L800.0,225.5 L800.0,232.0 L52.0,232.0Z" fill="#4e79a7" opacity="0.12"/>

  <!-- lines -->
  <polyline points="52.0,232.0 70.7,228.8 89.4,225.5 108.1,232.0 126.8,228.8 145.5,232.0 164.2,228.8 182.9,232.0 201.6,228.8 220.3,232.0 239.0,225.5 257.7,28.0 276.4,222.3 295.1,232.0 313.8,228.8 332.5,209.3 351.2,222.3 369.9,232.0 388.6,232.0 407.3,232.0 426.0,222.3 444.7,222.3 463.4,228.8 482.1,232.0 500.8,232.0 519.5,228.8 538.2,228.8 556.9,232.0 575.6,232.0 594.3,228.8 613.0,228.8 631.7,228.8 650.4,232.0 669.1,232.0 687.8,228.8 706.5,228.8 725.2,232.0 743.9,225.5 762.6,115.4 781.3,173.7 800.0,225.5"
            fill="none" stroke="#4e79a7"
            stroke-width="2" stroke-linejoin="round"/>
  <polyline points="52.0,232.0 70.7,228.8 89.4,225.5 108.1,232.0 126.8,228.8 145.5,232.0 164.2,228.8 182.9,232.0 201.6,228.8 220.3,232.0 239.0,225.5 257.7,131.6 276.4,222.3 295.1,232.0 313.8,228.8 332.5,228.8 351.2,222.3 369.9,232.0 388.6,232.0 407.3,232.0 426.0,222.3 444.7,222.3 463.4,228.8 482.1,232.0 500.8,232.0 519.5,228.8 538.2,228.8 556.9,232.0 575.6,232.0 594.3,228.8 613.0,228.8 631.7,228.8 650.4,232.0 669.1,232.0 687.8,228.8 706.5,228.8 725.2,232.0 743.9,225.5 762.6,173.7 781.3,193.1 800.0,225.5"
            fill="none" stroke="#f28e2b"
            stroke-width="2" stroke-linejoin="round"
            stroke-dasharray="5,3"/>

  <!-- dots -->
  <circle cx="52.0" cy="232.0" r="3" fill="#4e79a7"/><circle cx="70.7" cy="228.8" r="3" fill="#4e79a7"/><circle cx="89.4" cy="225.5" r="3" fill="#4e79a7"/><circle cx="108.1" cy="232.0" r="3" fill="#4e79a7"/><circle cx="126.8" cy="228.8" r="3" fill="#4e79a7"/><circle cx="145.5" cy="232.0" r="3" fill="#4e79a7"/><circle cx="164.2" cy="228.8" r="3" fill="#4e79a7"/><circle cx="182.9" cy="232.0" r="3" fill="#4e79a7"/><circle cx="201.6" cy="228.8" r="3" fill="#4e79a7"/><circle cx="220.3" cy="232.0" r="3" fill="#4e79a7"/><circle cx="239.0" cy="225.5" r="3" fill="#4e79a7"/><circle cx="257.7" cy="28.0" r="3" fill="#4e79a7"/><circle cx="276.4" cy="222.3" r="3" fill="#4e79a7"/><circle cx="295.1" cy="232.0" r="3" fill="#4e79a7"/><circle cx="313.8" cy="228.8" r="3" fill="#4e79a7"/><circle cx="332.5" cy="209.3" r="3" fill="#4e79a7"/><circle cx="351.2" cy="222.3" r="3" fill="#4e79a7"/><circle cx="369.9" cy="232.0" r="3" fill="#4e79a7"/><circle cx="388.6" cy="232.0" r="3" fill="#4e79a7"/><circle cx="407.3" cy="232.0" r="3" fill="#4e79a7"/><circle cx="426.0" cy="222.3" r="3" fill="#4e79a7"/><circle cx="444.7" cy="222.3" r="3" fill="#4e79a7"/><circle cx="463.4" cy="228.8" r="3" fill="#4e79a7"/><circle cx="482.1" cy="232.0" r="3" fill="#4e79a7"/><circle cx="500.8" cy="232.0" r="3" fill="#4e79a7"/><circle cx="519.5" cy="228.8" r="3" fill="#4e79a7"/><circle cx="538.2" cy="228.8" r="3" fill="#4e79a7"/><circle cx="556.9" cy="232.0" r="3" fill="#4e79a7"/><circle cx="575.6" cy="232.0" r="3" fill="#4e79a7"/><circle cx="594.3" cy="228.8" r="3" fill="#4e79a7"/><circle cx="613.0" cy="228.8" r="3" fill="#4e79a7"/><circle cx="631.7" cy="228.8" r="3" fill="#4e79a7"/><circle cx="650.4" cy="232.0" r="3" fill="#4e79a7"/><circle cx="669.1" cy="232.0" r="3" fill="#4e79a7"/><circle cx="687.8" cy="228.8" r="3" fill="#4e79a7"/><circle cx="706.5" cy="228.8" r="3" fill="#4e79a7"/><circle cx="725.2" cy="232.0" r="3" fill="#4e79a7"/><circle cx="743.9" cy="225.5" r="3" fill="#4e79a7"/><circle cx="762.6" cy="115.4" r="3" fill="#4e79a7"/><circle cx="781.3" cy="173.7" r="3" fill="#4e79a7"/><circle cx="800.0" cy="225.5" r="3" fill="#4e79a7"/>
  <circle cx="52.0" cy="232.0" r="3" fill="#f28e2b"/><circle cx="70.7" cy="228.8" r="3" fill="#f28e2b"/><circle cx="89.4" cy="225.5" r="3" fill="#f28e2b"/><circle cx="108.1" cy="232.0" r="3" fill="#f28e2b"/><circle cx="126.8" cy="228.8" r="3" fill="#f28e2b"/><circle cx="145.5" cy="232.0" r="3" fill="#f28e2b"/><circle cx="164.2" cy="228.8" r="3" fill="#f28e2b"/><circle cx="182.9" cy="232.0" r="3" fill="#f28e2b"/><circle cx="201.6" cy="228.8" r="3" fill="#f28e2b"/><circle cx="220.3" cy="232.0" r="3" fill="#f28e2b"/><circle cx="239.0" cy="225.5" r="3" fill="#f28e2b"/><circle cx="257.7" cy="131.6" r="3" fill="#f28e2b"/><circle cx="276.4" cy="222.3" r="3" fill="#f28e2b"/><circle cx="295.1" cy="232.0" r="3" fill="#f28e2b"/><circle cx="313.8" cy="228.8" r="3" fill="#f28e2b"/><circle cx="332.5" cy="228.8" r="3" fill="#f28e2b"/><circle cx="351.2" cy="222.3" r="3" fill="#f28e2b"/><circle cx="369.9" cy="232.0" r="3" fill="#f28e2b"/><circle cx="388.6" cy="232.0" r="3" fill="#f28e2b"/><circle cx="407.3" cy="232.0" r="3" fill="#f28e2b"/><circle cx="426.0" cy="222.3" r="3" fill="#f28e2b"/><circle cx="444.7" cy="222.3" r="3" fill="#f28e2b"/><circle cx="463.4" cy="228.8" r="3" fill="#f28e2b"/><circle cx="482.1" cy="232.0" r="3" fill="#f28e2b"/><circle cx="500.8" cy="232.0" r="3" fill="#f28e2b"/><circle cx="519.5" cy="228.8" r="3" fill="#f28e2b"/><circle cx="538.2" cy="228.8" r="3" fill="#f28e2b"/><circle cx="556.9" cy="232.0" r="3" fill="#f28e2b"/><circle cx="575.6" cy="232.0" r="3" fill="#f28e2b"/><circle cx="594.3" cy="228.8" r="3" fill="#f28e2b"/><circle cx="613.0" cy="228.8" r="3" fill="#f28e2b"/><circle cx="631.7" cy="228.8" r="3" fill="#f28e2b"/><circle cx="650.4" cy="232.0" r="3" fill="#f28e2b"/><circle cx="669.1" cy="232.0" r="3" fill="#f28e2b"/><circle cx="687.8" cy="228.8" r="3" fill="#f28e2b"/><circle cx="706.5" cy="228.8" r="3" fill="#f28e2b"/><circle cx="725.2" cy="232.0" r="3" fill="#f28e2b"/><circle cx="743.9" cy="225.5" r="3" fill="#f28e2b"/><circle cx="762.6" cy="173.7" r="3" fill="#f28e2b"/><circle cx="781.3" cy="193.1" r="3" fill="#f28e2b"/><circle cx="800.0" cy="225.5" r="3" fill="#f28e2b"/>

  <!-- axes -->
  <line x1="52" y1="28" x2="52" y2="232"
        stroke="#cccccc" stroke-width="1"/>
  <line x1="52" y1="232" x2="800" y2="232"
        stroke="#cccccc" stroke-width="1"/>

  <!-- y-axis labels -->
  <text x="47" y="236.0" text-anchor="end" font-size="10" fill="#57606a" font-family="ui-monospace, SFMono-Regular, 'SF Mono', Menlo, monospace">0</text><text x="47" y="203.6" text-anchor="end" font-size="10" fill="#57606a" font-family="ui-monospace, SFMono-Regular, 'SF Mono', Menlo, monospace">10</text><text x="47" y="171.2" text-anchor="end" font-size="10" fill="#57606a" font-family="ui-monospace, SFMono-Regular, 'SF Mono', Menlo, monospace">20</text><text x="47" y="138.9" text-anchor="end" font-size="10" fill="#57606a" font-family="ui-monospace, SFMono-Regular, 'SF Mono', Menlo, monospace">30</text><text x="47" y="106.5" text-anchor="end" font-size="10" fill="#57606a" font-family="ui-monospace, SFMono-Regular, 'SF Mono', Menlo, monospace">40</text><text x="47" y="74.1" text-anchor="end" font-size="10" fill="#57606a" font-family="ui-monospace, SFMono-Regular, 'SF Mono', Menlo, monospace">50</text><text x="47" y="41.7" text-anchor="end" font-size="10" fill="#57606a" font-family="ui-monospace, SFMono-Regular, 'SF Mono', Menlo, monospace">60</text><text x="47" y="9.3" text-anchor="end" font-size="10" fill="#57606a" font-family="ui-monospace, SFMono-Regular, 'SF Mono', Menlo, monospace">70</text>

  <!-- x-axis labels -->
  <text x="52.0" y="248" text-anchor="middle" font-size="10" fill="#8c959f" font-family="ui-monospace, SFMono-Regular, 'SF Mono', Menlo, monospace">05-11</text><text x="706.5" y="248" text-anchor="middle" font-size="10" fill="#8c959f" font-family="ui-monospace, SFMono-Regular, 'SF Mono', Menlo, monospace">06-15</text><text x="145.5" y="248" text-anchor="middle" font-size="10" fill="#8c959f" font-family="ui-monospace, SFMono-Regular, 'SF Mono', Menlo, monospace">05-16</text><text x="800.0" y="248" text-anchor="middle" font-size="10" fill="#8c959f" font-family="ui-monospace, SFMono-Regular, 'SF Mono', Menlo, monospace">06-20</text><text x="239.0" y="248" text-anchor="middle" font-size="10" fill="#8c959f" font-family="ui-monospace, SFMono-Regular, 'SF Mono', Menlo, monospace">05-21</text><text x="332.5" y="248" text-anchor="middle" font-size="10" fill="#8c959f" font-family="ui-monospace, SFMono-Regular, 'SF Mono', Menlo, monospace">05-26</text><text x="426.0" y="248" text-anchor="middle" font-size="10" fill="#8c959f" font-family="ui-monospace, SFMono-Regular, 'SF Mono', Menlo, monospace">05-31</text><text x="519.5" y="248" text-anchor="middle" font-size="10" fill="#8c959f" font-family="ui-monospace, SFMono-Regular, 'SF Mono', Menlo, monospace">06-05</text><text x="613.0" y="248" text-anchor="middle" font-size="10" fill="#8c959f" font-family="ui-monospace, SFMono-Regular, 'SF Mono', Menlo, monospace">06-10</text>

  <!-- legend -->
  <rect x="60" y="262" width="16" height="3" fill="#4e79a7" rx="1"/><text x="80" y="268" font-size="11" fill="#57606a" font-family="-apple-system, BlinkMacSystemFont, 'Segoe UI', sans-serif">Total clones (157)</text><line x1="230" y1="264" x2="246" y2="264" stroke="#f28e2b" stroke-width="2" stroke-dasharray="5,3"/><text x="250" y="268" font-size="11" fill="#57606a" font-family="-apple-system, BlinkMacSystemFont, 'Segoe UI', sans-serif">Unique cloners</text>

</svg>