<svg xmlns="http://www.w3.org/2000/svg" viewBox="0 0 820 280" width="820" height="280">

  <!-- title -->
  <text x="52" y="18" font-size="13" font-weight="600"
        fill="#24292f" font-family="-apple-system, BlinkMacSystemFont, 'Segoe UI', sans-serif"
        >Clone traffic — spank</text>
  <text x="800" y="18" font-size="10" fill="#8c959f"
        font-family="ui-monospace, SFMono-Regular, 'SF Mono', Menlo, monospace" text-anchor="end">2026-06-18</text>

  <!-- grid -->
  <line x1="52" y1="232.0" x2="800" y2="232.0" stroke="#e8e8e8" stroke-width="1"/><line x1="52" y1="199.6" x2="800" y2="199.6" stroke="#e8e8e8" stroke-width="1"/><line x1="52" y1="167.2" x2="800" y2="167.2" stroke="#e8e8e8" stroke-width="1"/><line x1="52" y1="134.9" x2="800" y2="134.9" stroke="#e8e8e8" stroke-width="1"/><line x1="52" y1="102.5" x2="800" y2="102.5" stroke="#e8e8e8" stroke-width="1"/><line x1="52" y1="70.1" x2="800" y2="70.1" stroke="#e8e8e8" stroke-width="1"/><line x1="52" y1="37.7" x2="800" y2="37.7" stroke="#e8e8e8" stroke-width="1"/><line x1="52" y1="5.3" x2="800" y2="5.3" stroke="#e8e8e8" stroke-width="1"/>

  <!-- area fill -->
  <path d="M52.0,232.0 L52.0,232.0 L72.8,228.8 L93.6,225.5 L114.3,232.0 L135.1,228.8 L155.9,232.0 L176.7,228.8 L197.4,232.0 L218.2,228.8 L239.0,232.0 L259.8,225.5 L280.6,28.0 L301.3,222.3 L322.1,232.0 L342.9,228.8 L363.7,209.3 L384.4,222.3 L405.2,232.0 L426.0,232.0 L446.8,232.0 L467.6,222.3 L488.3,222.3 L509.1,228.8 L529.9,232.0 L550.7,232.0 L571.4,228.8 L592.2,228.8 L613.0,232.0 L633.8,232.0 L654.6,228.8 L675.3,228.8 L696.1,228.8 L716.9,232.0 L737.7,232.0 L758.4,228.8 L779.2,228.8 L800.0,232.0 L800.0,232.0 L52.0,232.0Z" fill="#4e79a7" opacity="0.12"/>

  <!-- lines -->
  <polyline points="52.0,232.0 72.8,228.8 93.6,225.5 114.3,232.0 135.1,228.8 155.9,232.0 176.7,228.8 197.4,232.0 218.2,228.8 239.0,232.0 259.8,225.5 280.6,28.0 301.3,222.3 322.1,232.0 342.9,228.8 363.7,209.3 384.4,222.3 405.2,232.0 426.0,232.0 446.8,232.0 467.6,222.3 488.3,222.3 509.1,228.8 529.9,232.0 550.7,232.0 571.4,228.8 592.2,228.8 613.0,232.0 633.8,232.0 654.6,228.8 675.3,228.8 696.1,228.8 716.9,232.0 737.7,232.0 758.4,228.8 779.2,228.8 800.0,232.0"
            fill="none" stroke="#4e79a7"
            stroke-width="2" stroke-linejoin="round"/>
  <polyline points="52.0,232.0 72.8,228.8 93.6,225.5 114.3,232.0 135.1,228.8 155.9,232.0 176.7,228.8 197.4,232.0 218.2,228.8 239.0,232.0 259.8,225.5 280.6,131.6 301.3,222.3 322.1,232.0 342.9,228.8 363.7,228.8 384.4,222.3 405.2,232.0 426.0,232.0 446.8,232.0 467.6,222.3 488.3,222.3 509.1,228.8 529.9,232.0 550.7,232.0 571.4,228.8 592.2,228.8 613.0,232.0 633.8,232.0 654.6,228.8 675.3,228.8 696.1,228.8 716.9,232.0 737.7,232.0 758.4,228.8 779.2,228.8 800.0,232.0"
            fill="none" stroke="#f28e2b"
            stroke-width="2" stroke-linejoin="round"
            stroke-dasharray="5,3"/>

  <!-- dots -->
  <circle cx="52.0" cy="232.0" r="3" fill="#4e79a7"/><circle cx="72.8" cy="228.8" r="3" fill="#4e79a7"/><circle cx="93.6" cy="225.5" r="3" fill="#4e79a7"/><circle cx="114.3" cy="232.0" r="3" fill="#4e79a7"/><circle cx="135.1" cy="228.8" r="3" fill="#4e79a7"/><circle cx="155.9" cy="232.0" r="3" fill="#4e79a7"/><circle cx="176.7" cy="228.8" r="3" fill="#4e79a7"/><circle cx="197.4" cy="232.0" r="3" fill="#4e79a7"/><circle cx="218.2" cy="228.8" r="3" fill="#4e79a7"/><circle cx="239.0" cy="232.0" r="3" fill="#4e79a7"/><circle cx="259.8" cy="225.5" r="3" fill="#4e79a7"/><circle cx="280.6" cy="28.0" r="3" fill="#4e79a7"/><circle cx="301.3" cy="222.3" r="3" fill="#4e79a7"/><circle cx="322.1" cy="232.0" r="3" fill="#4e79a7"/><circle cx="342.9" cy="228.8" r="3" fill="#4e79a7"/><circle cx="363.7" cy="209.3" r="3" fill="#4e79a7"/><circle cx="384.4" cy="222.3" r="3" fill="#4e79a7"/><circle cx="405.2" cy="232.0" r="3" fill="#4e79a7"/><circle cx="426.0" cy="232.0" r="3" fill="#4e79a7"/><circle cx="446.8" cy="232.0" r="3" fill="#4e79a7"/><circle cx="467.6" cy="222.3" r="3" fill="#4e79a7"/><circle cx="488.3" cy="222.3" r="3" fill="#4e79a7"/><circle cx="509.1" cy="228.8" r="3" fill="#4e79a7"/><circle cx="529.9" cy="232.0" r="3" fill="#4e79a7"/><circle cx="550.7" cy="232.0" r="3" fill="#4e79a7"/><circle cx="571.4" cy="228.8" r="3" fill="#4e79a7"/><circle cx="592.2" cy="228.8" r="3" fill="#4e79a7"/><circle cx="613.0" cy="232.0" r="3" fill="#4e79a7"/><circle cx="633.8" cy="232.0" r="3" fill="#4e79a7"/><circle cx="654.6" cy="228.8" r="3" fill="#4e79a7"/><circle cx="675.3" cy="228.8" r="3" fill="#4e79a7"/><circle cx="696.1" cy="228.8" r="3" fill="#4e79a7"/><circle cx="716.9" cy="232.0" r="3" fill="#4e79a7"/><circle cx="737.7" cy="232.0" r="3" fill="#4e79a7"/><circle cx="758.4" cy="228.8" r="3" fill="#4e79a7"/><circle cx="779.2" cy="228.8" r="3" fill="#4e79a7"/><circle cx="800.0" cy="232.0" r="3" fill="#4e79a7"/>
  <circle cx="52.0" cy="232.0" r="3" fill="#f28e2b"/><circle cx="72.8" cy="228.8" r="3" fill="#f28e2b"/><circle cx="93.6" cy="225.5" r="3" fill="#f28e2b"/><circle cx="114.3" cy="232.0" r="3" fill="#f28e2b"/><circle cx="135.1" cy="228.8" r="3" fill="#f28e2b"/><circle cx="155.9" cy="232.0" r="3" fill="#f28e2b"/><circle cx="176.7" cy="228.8" r="3" fill="#f28e2b"/><circle cx="197.4" cy="232.0" r="3" fill="#f28e2b"/><circle cx="218.2" cy="228.8" r="3" fill="#f28e2b"/><circle cx="239.0" cy="232.0" r="3" fill="#f28e2b"/><circle cx="259.8" cy="225.5" r="3" fill="#f28e2b"/><circle cx="280.6" cy="131.6" r="3" fill="#f28e2b"/><circle cx="301.3" cy="222.3" r="3" fill="#f28e2b"/><circle cx="322.1" cy="232.0" r="3" fill="#f28e2b"/><circle cx="342.9" cy="228.8" r="3" fill="#f28e2b"/><circle cx="363.7" cy="228.8" r="3" fill="#f28e2b"/><circle cx="384.4" cy="222.3" r="3" fill="#f28e2b"/><circle cx="405.2" cy="232.0" r="3" fill="#f28e2b"/><circle cx="426.0" cy="232.0" r="3" fill="#f28e2b"/><circle cx="446.8" cy="232.0" r="3" fill="#f28e2b"/><circle cx="467.6" cy="222.3" r="3" fill="#f28e2b"/><circle cx="488.3" cy="222.3" r="3" fill="#f28e2b"/><circle cx="509.1" cy="228.8" r="3" fill="#f28e2b"/><circle cx="529.9" cy="232.0" r="3" fill="#f28e2b"/><circle cx="550.7" cy="232.0" r="3" fill="#f28e2b"/><circle cx="571.4" cy="228.8" r="3" fill="#f28e2b"/><circle cx="592.2" cy="228.8" r="3" fill="#f28e2b"/><circle cx="613.0" cy="232.0" r="3" fill="#f28e2b"/><circle cx="633.8" cy="232.0" r="3" fill="#f28e2b"/><circle cx="654.6" cy="228.8" r="3" fill="#f28e2b"/><circle cx="675.3" cy="228.8" r="3" fill="#f28e2b"/><circle cx="696.1" cy="228.8" r="3" fill="#f28e2b"/><circle cx="716.9" cy="232.0" r="3" fill="#f28e2b"/><circle cx="737.7" cy="232.0" r="3" fill="#f28e2b"/><circle cx="758.4" cy="228.8" r="3" fill="#f28e2b"/><circle cx="779.2" cy="228.8" r="3" fill="#f28e2b"/><circle cx="800.0" cy="232.0" r="3" fill="#f28e2b"/>

  <!-- axes -->
  <line x1="52" y1="28" x2="52" y2="232"
        stroke="#cccccc" stroke-width="1"/>
  <line x1="52" y1="232" x2="800" y2="232"
        stroke="#cccccc" stroke-width="1"/>

  <!-- y-axis labels -->
  <text x="47" y="236.0" text-anchor="end" font-size="10" fill="#57606a" font-family="ui-monospace, SFMono-Regular, 'SF Mono', Menlo, monospace">0</text><text x="47" y="203.6" text-anchor="end" font-size="10" fill="#57606a" font-family="ui-monospace, SFMono-Regular, 'SF Mono', Menlo, monospace">10</text><text x="47" y="171.2" text-anchor="end" font-size="10" fill="#57606a" font-family="ui-monospace, SFMono-Regular, 'SF Mono', Menlo, monospace">20</text><text x="47" y="138.9" text-anchor="end" font-size="10" fill="#57606a" font-family="ui-monospace, SFMono-Regular, 'SF Mono', Menlo, monospace">30</text><text x="47" y="106.5" text-anchor="end" font-size="10" fill="#57606a" font-family="ui-monospace, SFMono-Regular, 'SF Mono', Menlo, monospace">40</text><text x="47" y="74.1" text-anchor="end" font-size="10" fill="#57606a" font-family="ui-monospace, SFMono-Regular, 'SF Mono', Menlo, monospace">50</text><text x="47" y="41.7" text-anchor="end" font-size="10" fill="#57606a" font-family="ui-monospace, SFMono-Regular, 'SF Mono', Menlo, monospace">60</text><text x="47" y="9.3" text-anchor="end" font-size="10" fill="#57606a" font-family="ui-monospace, SFMono-Regular, 'SF Mono', Menlo, monospace">70</text>

  <!-- x-axis labels -->
  <text x="52.0" y="248" text-anchor="middle" font-size="10" fill="#8c959f" font-family="ui-monospace, SFMono-Regular, 'SF Mono', Menlo, monospace">05-11</text><text x="716.9" y="248" text-anchor="middle" font-size="10" fill="#8c959f" font-family="ui-monospace, SFMono-Regular, 'SF Mono', Menlo, monospace">06-12</text><text x="135.1" y="248" text-anchor="middle" font-size="10" fill="#8c959f" font-family="ui-monospace, SFMono-Regular, 'SF Mono', Menlo, monospace">05-15</text><text x="800.0" y="248" text-anchor="middle" font-size="10" fill="#8c959f" font-family="ui-monospace, SFMono-Regular, 'SF Mono', Menlo, monospace">06-16</text><text x="218.2" y="248" text-anchor="middle" font-size="10" fill="#8c959f" font-family="ui-monospace, SFMono-Regular, 'SF Mono', Menlo, monospace">05-19</text><text x="301.3" y="248" text-anchor="middle" font-size="10" fill="#8c959f" font-family="ui-monospace, SFMono-Regular, 'SF Mono', Menlo, monospace">05-23</text><text x="384.4" y="248" text-anchor="middle" font-size="10" fill="#8c959f" font-family="ui-monospace, SFMono-Regular, 'SF Mono', Menlo, monospace">05-27</text><text x="467.6" y="248" text-anchor="middle" font-size="10" fill="#8c959f" font-family="ui-monospace, SFMono-Regular, 'SF Mono', Menlo, monospace">05-31</text><text x="550.7" y="248" text-anchor="middle" font-size="10" fill="#8c959f" font-family="ui-monospace, SFMono-Regular, 'SF Mono', Menlo, monospace">06-04</text><text x="633.8" y="248" text-anchor="middle" font-size="10" fill="#8c959f" font-family="ui-monospace, SFMono-Regular, 'SF Mono', Menlo, monospace">06-08</text>

  <!-- legend -->
  <rect x="60" y="262" width="16" height="3" fill="#4e79a7" rx="1"/><text x="80" y="268" font-size="11" fill="#57606a" font-family="-apple-system, BlinkMacSystemFont, 'Segoe UI', sans-serif">Total clones (99)</text><line x1="230" y1="264" x2="246" y2="264" stroke="#f28e2b" stroke-width="2" stroke-dasharray="5,3"/><text x="250" y="268" font-size="11" fill="#57606a" font-family="-apple-system, BlinkMacSystemFont, 'Segoe UI', sans-serif">Unique cloners</text>

</svg>