<svg xmlns="http://www.w3.org/2000/svg" viewBox="0 0 820 280" width="820" height="280">

  <!-- title -->
  <text x="52" y="18" font-size="13" font-weight="600"
        fill="#24292f" font-family="-apple-system, BlinkMacSystemFont, 'Segoe UI', sans-serif"
        >Clone traffic — spank</text>
  <text x="800" y="18" font-size="10" fill="#8c959f"
        font-family="ui-monospace, SFMono-Regular, 'SF Mono', Menlo, monospace" text-anchor="end">2026-08-12</text>

  <!-- grid -->
  <line x1="52" y1="232.0" x2="800" y2="232.0" stroke="#e8e8e8" stroke-width="1"/><line x1="52" y1="187.0" x2="800" y2="187.0" stroke="#e8e8e8" stroke-width="1"/><line x1="52" y1="142.0" x2="800" y2="142.0" stroke="#e8e8e8" stroke-width="1"/><line x1="52" y1="97.0" x2="800" y2="97.0" stroke="#e8e8e8" stroke-width="1"/><line x1="52" y1="52.0" x2="800" y2="52.0" stroke="#e8e8e8" stroke-width="1"/><line x1="52" y1="7.0" x2="800" y2="7.0" stroke="#e8e8e8" stroke-width="1"/>

  <!-- area fill -->
  <path d="M52.0,232.0 L52.0,232.0 L60.2,230.5 L68.4,229.0 L76.7,232.0 L84.9,230.5 L93.1,232.0 L101.3,230.5 L109.5,232.0 L117.8,230.5 L126.0,232.0 L134.2,229.0 L142.4,137.5 L150.6,227.5 L158.9,232.0 L167.1,230.5 L175.3,221.5 L183.5,227.5 L191.7,232.0 L200.0,232.0 L208.2,232.0 L216.4,227.5 L224.6,227.5 L232.8,230.5 L241.1,232.0 L249.3,232.0 L257.5,230.5 L265.7,230.5 L273.9,232.0 L282.2,232.0 L290.4,230.5 L298.6,230.5 L306.8,230.5 L315.0,232.0 L323.3,232.0 L331.5,230.5 L339.7,230.5 L347.9,232.0 L356.1,229.0 L364.4,178.0 L372.6,205.0 L380.8,229.0 L389.0,229.0 L397.2,28.0 L405.5,232.0 L413.7,230.5 L421.9,232.0 L430.1,229.0 L438.3,230.5 L446.5,227.5 L454.8,229.0 L463.0,230.5 L471.2,232.0 L479.4,229.0 L487.6,229.0 L495.9,232.0 L504.1,232.0 L512.3,232.0 L520.5,214.0 L528.7,232.0 L537.0,232.0 L545.2,230.5 L553.4,232.0 L561.6,232.0 L569.8,232.0 L578.1,232.0 L586.3,230.5 L594.5,232.0 L602.7,232.0 L610.9,230.5 L619.2,229.0 L627.4,230.5 L635.6,232.0 L643.8,232.0 L652.0,226.0 L660.3,232.0 L668.5,227.5 L676.7,122.5 L684.9,166.0 L693.1,227.5 L701.4,230.5 L709.6,230.5 L717.8,229.0 L726.0,232.0 L734.2,232.0 L742.5,229.0 L750.7,226.0 L758.9,230.5 L767.1,220.0 L775.3,230.5 L783.6,229.0 L791.8,230.5 L800.0,230.5 L800.0,232.0 L52.0,232.0Z" fill="#4e79a7" opacity="0.12"/>

  <!-- lines -->
  <polyline points="52.0,232.0 60.2,230.5 68.4,229.0 76.7,232.0 84.9,230.5 93.1,232.0 101.3,230.5 109.5,232.0 117.8,230.5 126.0,232.0 134.2,229.0 142.4,137.5 150.6,227.5 158.9,232.0 167.1,230.5 175.3,221.5 183.5,227.5 191.7,232.0 200.0,232.0 208.2,232.0 216.4,227.5 224.6,227.5 232.8,230.5 241.1,232.0 249.3,232.0 257.5,230.5 265.7,230.5 273.9,232.0 282.2,232.0 290.4,230.5 298.6,230.5 306.8,230.5 315.0,232.0 323.3,232.0 331.5,230.5 339.7,230.5 347.9,232.0 356.1,229.0 364.4,178.0 372.6,205.0 380.8,229.0 389.0,229.0 397.2,28.0 405.5,232.0 413.7,230.5 421.9,232.0 430.1,229.0 438.3,230.5 446.5,227.5 454.8,229.0 463.0,230.5 471.2,232.0 479.4,229.0 487.6,229.0 495.9,232.0 504.1,232.0 512.3,232.0 520.5,214.0 528.7,232.0 537.0,232.0 545.2,230.5 553.4,232.0 561.6,232.0 569.8,232.0 578.1,232.0 586.3,230.5 594.5,232.0 602.7,232.0 610.9,230.5 619.2,229.0 627.4,230.5 635.6,232.0 643.8,232.0 652.0,226.0 660.3,232.0 668.5,227.5 676.7,122.5 684.9,166.0 693.1,227.5 701.4,230.5 709.6,230.5 717.8,229.0 726.0,232.0 734.2,232.0 742.5,229.0 750.7,226.0 758.9,230.5 767.1,220.0 775.3,230.5 783.6,229.0 791.8,230.5 800.0,230.5"
            fill="none" stroke="#4e79a7"
            stroke-width="2" stroke-linejoin="round"/>
  <polyline points="52.0,232.0 60.2,230.5 68.4,229.0 76.7,232.0 84.9,230.5 93.1,232.0 101.3,230.5 109.5,232.0 117.8,230.5 126.0,232.0 134.2,229.0 142.4,185.5 150.6,227.5 158.9,232.0 167.1,230.5 175.3,230.5 183.5,227.5 191.7,232.0 200.0,232.0 208.2,232.0 216.4,227.5 224.6,227.5 232.8,230.5 241.1,232.0 249.3,232.0 257.5,230.5 265.7,230.5 273.9,232.0 282.2,232.0 290.4,230.5 298.6,230.5 306.8,230.5 315.0,232.0 323.3,232.0 331.5,230.5 339.7,230.5 347.9,232.0 356.1,229.0 364.4,205.0 372.6,214.0 380.8,229.0 389.0,229.0 397.2,202.0 405.5,232.0 413.7,230.5 421.9,232.0 430.1,229.0 438.3,230.5 446.5,227.5 454.8,229.0 463.0,230.5 471.2,232.0 479.4,229.0 487.6,229.0 495.9,232.0 504.1,232.0 512.3,232.0 520.5,230.5 528.7,232.0 537.0,232.0 545.2,230.5 553.4,232.0 561.6,232.0 569.8,232.0 578.1,232.0 586.3,230.5 594.5,232.0 602.7,232.0 610.9,230.5 619.2,229.0 627.4,230.5 635.6,232.0 643.8,232.0 652.0,229.0 660.3,232.0 668.5,227.5 676.7,182.5 684.9,205.0 693.1,227.5 701.4,230.5 709.6,230.5 717.8,229.0 726.0,232.0 734.2,232.0 742.5,229.0 750.7,230.5 758.9,230.5 767.1,227.5 775.3,230.5 783.6,229.0 791.8,230.5 800.0,230.5"
            fill="none" stroke="#f28e2b"
            stroke-width="2" stroke-linejoin="round"
            stroke-dasharray="5,3"/>

  <!-- dots -->
  <circle cx="52.0" cy="232.0" r="3" fill="#4e79a7"/><circle cx="60.2" cy="230.5" r="3" fill="#4e79a7"/><circle cx="68.4" cy="229.0" r="3" fill="#4e79a7"/><circle cx="76.7" cy="232.0" r="3" fill="#4e79a7"/><circle cx="84.9" cy="230.5" r="3" fill="#4e79a7"/><circle cx="93.1" cy="232.0" r="3" fill="#4e79a7"/><circle cx="101.3" cy="230.5" r="3" fill="#4e79a7"/><circle cx="109.5" cy="232.0" r="3" fill="#4e79a7"/><circle cx="117.8" cy="230.5" r="3" fill="#4e79a7"/><circle cx="126.0" cy="232.0" r="3" fill="#4e79a7"/><circle cx="134.2" cy="229.0" r="3" fill="#4e79a7"/><circle cx="142.4" cy="137.5" r="3" fill="#4e79a7"/><circle cx="150.6" cy="227.5" r="3" fill="#4e79a7"/><circle cx="158.9" cy="232.0" r="3" fill="#4e79a7"/><circle cx="167.1" cy="230.5" r="3" fill="#4e79a7"/><circle cx="175.3" cy="221.5" r="3" fill="#4e79a7"/><circle cx="183.5" cy="227.5" r="3" fill="#4e79a7"/><circle cx="191.7" cy="232.0" r="3" fill="#4e79a7"/><circle cx="200.0" cy="232.0" r="3" fill="#4e79a7"/><circle cx="208.2" cy="232.0" r="3" fill="#4e79a7"/><circle cx="216.4" cy="227.5" r="3" fill="#4e79a7"/><circle cx="224.6" cy="227.5" r="3" fill="#4e79a7"/><circle cx="232.8" cy="230.5" r="3" fill="#4e79a7"/><circle cx="241.1" cy="232.0" r="3" fill="#4e79a7"/><circle cx="249.3" cy="232.0" r="3" fill="#4e79a7"/><circle cx="257.5" cy="230.5" r="3" fill="#4e79a7"/><circle cx="265.7" cy="230.5" r="3" fill="#4e79a7"/><circle cx="273.9" cy="232.0" r="3" fill="#4e79a7"/><circle cx="282.2" cy="232.0" r="3" fill="#4e79a7"/><circle cx="290.4" cy="230.5" r="3" fill="#4e79a7"/><circle cx="298.6" cy="230.5" r="3" fill="#4e79a7"/><circle cx="306.8" cy="230.5" r="3" fill="#4e79a7"/><circle cx="315.0" cy="232.0" r="3" fill="#4e79a7"/><circle cx="323.3" cy="232.0" r="3" fill="#4e79a7"/><circle cx="331.5" cy="230.5" r="3" fill="#4e79a7"/><circle cx="339.7" cy="230.5" r="3" fill="#4e79a7"/><circle cx="347.9" cy="232.0" r="3" fill="#4e79a7"/><circle cx="356.1" cy="229.0" r="3" fill="#4e79a7"/><circle cx="364.4" cy="178.0" r="3" fill="#4e79a7"/><circle cx="372.6" cy="205.0" r="3" fill="#4e79a7"/><circle cx="380.8" cy="229.0" r="3" fill="#4e79a7"/><circle cx="389.0" cy="229.0" r="3" fill="#4e79a7"/><circle cx="397.2" cy="28.0" r="3" fill="#4e79a7"/><circle cx="405.5" cy="232.0" r="3" fill="#4e79a7"/><circle cx="413.7" cy="230.5" r="3" fill="#4e79a7"/><circle cx="421.9" cy="232.0" r="3" fill="#4e79a7"/><circle cx="430.1" cy="229.0" r="3" fill="#4e79a7"/><circle cx="438.3" cy="230.5" r="3" fill="#4e79a7"/><circle cx="446.5" cy="227.5" r="3" fill="#4e79a7"/><circle cx="454.8" cy="229.0" r="3" fill="#4e79a7"/><circle cx="463.0" cy="230.5" r="3" fill="#4e79a7"/><circle cx="471.2" cy="232.0" r="3" fill="#4e79a7"/><circle cx="479.4" cy="229.0" r="3" fill="#4e79a7"/><circle cx="487.6" cy="229.0" r="3" fill="#4e79a7"/><circle cx="495.9" cy="232.0" r="3" fill="#4e79a7"/><circle cx="504.1" cy="232.0" r="3" fill="#4e79a7"/><circle cx="512.3" cy="232.0" r="3" fill="#4e79a7"/><circle cx="520.5" cy="214.0" r="3" fill="#4e79a7"/><circle cx="528.7" cy="232.0" r="3" fill="#4e79a7"/><circle cx="537.0" cy="232.0" r="3" fill="#4e79a7"/><circle cx="545.2" cy="230.5" r="3" fill="#4e79a7"/><circle cx="553.4" cy="232.0" r="3" fill="#4e79a7"/><circle cx="561.6" cy="232.0" r="3" fill="#4e79a7"/><circle cx="569.8" cy="232.0" r="3" fill="#4e79a7"/><circle cx="578.1" cy="232.0" r="3" fill="#4e79a7"/><circle cx="586.3" cy="230.5" r="3" fill="#4e79a7"/><circle cx="594.5" cy="232.0" r="3" fill="#4e79a7"/><circle cx="602.7" cy="232.0" r="3" fill="#4e79a7"/><circle cx="610.9" cy="230.5" r="3" fill="#4e79a7"/><circle cx="619.2" cy="229.0" r="3" fill="#4e79a7"/><circle cx="627.4" cy="230.5" r="3" fill="#4e79a7"/><circle cx="635.6" cy="232.0" r="3" fill="#4e79a7"/><circle cx="643.8" cy="232.0" r="3" fill="#4e79a7"/><circle cx="652.0" cy="226.0" r="3" fill="#4e79a7"/><circle cx="660.3" cy="232.0" r="3" fill="#4e79a7"/><circle cx="668.5" cy="227.5" r="3" fill="#4e79a7"/><circle cx="676.7" cy="122.5" r="3" fill="#4e79a7"/><circle cx="684.9" cy="166.0" r="3" fill="#4e79a7"/><circle cx="693.1" cy="227.5" r="3" fill="#4e79a7"/><circle cx="701.4" cy="230.5" r="3" fill="#4e79a7"/><circle cx="709.6" cy="230.5" r="3" fill="#4e79a7"/><circle cx="717.8" cy="229.0" r="3" fill="#4e79a7"/><circle cx="726.0" cy="232.0" r="3" fill="#4e79a7"/><circle cx="734.2" cy="232.0" r="3" fill="#4e79a7"/><circle cx="742.5" cy="229.0" r="3" fill="#4e79a7"/><circle cx="750.7" cy="226.0" r="3" fill="#4e79a7"/><circle cx="758.9" cy="230.5" r="3" fill="#4e79a7"/><circle cx="767.1" cy="220.0" r="3" fill="#4e79a7"/><circle cx="775.3" cy="230.5" r="3" fill="#4e79a7"/><circle cx="783.6" cy="229.0" r="3" fill="#4e79a7"/><circle cx="791.8" cy="230.5" r="3" fill="#4e79a7"/><circle cx="800.0" cy="230.5" r="3" fill="#4e79a7"/>
  <circle cx="52.0" cy="232.0" r="3" fill="#f28e2b"/><circle cx="60.2" cy="230.5" r="3" fill="#f28e2b"/><circle cx="68.4" cy="229.0" r="3" fill="#f28e2b"/><circle cx="76.7" cy="232.0" r="3" fill="#f28e2b"/><circle cx="84.9" cy="230.5" r="3" fill="#f28e2b"/><circle cx="93.1" cy="232.0" r="3" fill="#f28e2b"/><circle cx="101.3" cy="230.5" r="3" fill="#f28e2b"/><circle cx="109.5" cy="232.0" r="3" fill="#f28e2b"/><circle cx="117.8" cy="230.5" r="3" fill="#f28e2b"/><circle cx="126.0" cy="232.0" r="3" fill="#f28e2b"/><circle cx="134.2" cy="229.0" r="3" fill="#f28e2b"/><circle cx="142.4" cy="185.5" r="3" fill="#f28e2b"/><circle cx="150.6" cy="227.5" r="3" fill="#f28e2b"/><circle cx="158.9" cy="232.0" r="3" fill="#f28e2b"/><circle cx="167.1" cy="230.5" r="3" fill="#f28e2b"/><circle cx="175.3" cy="230.5" r="3" fill="#f28e2b"/><circle cx="183.5" cy="227.5" r="3" fill="#f28e2b"/><circle cx="191.7" cy="232.0" r="3" fill="#f28e2b"/><circle cx="200.0" cy="232.0" r="3" fill="#f28e2b"/><circle cx="208.2" cy="232.0" r="3" fill="#f28e2b"/><circle cx="216.4" cy="227.5" r="3" fill="#f28e2b"/><circle cx="224.6" cy="227.5" r="3" fill="#f28e2b"/><circle cx="232.8" cy="230.5" r="3" fill="#f28e2b"/><circle cx="241.1" cy="232.0" r="3" fill="#f28e2b"/><circle cx="249.3" cy="232.0" r="3" fill="#f28e2b"/><circle cx="257.5" cy="230.5" r="3" fill="#f28e2b"/><circle cx="265.7" cy="230.5" r="3" fill="#f28e2b"/><circle cx="273.9" cy="232.0" r="3" fill="#f28e2b"/><circle cx="282.2" cy="232.0" r="3" fill="#f28e2b"/><circle cx="290.4" cy="230.5" r="3" fill="#f28e2b"/><circle cx="298.6" cy="230.5" r="3" fill="#f28e2b"/><circle cx="306.8" cy="230.5" r="3" fill="#f28e2b"/><circle cx="315.0" cy="232.0" r="3" fill="#f28e2b"/><circle cx="323.3" cy="232.0" r="3" fill="#f28e2b"/><circle cx="331.5" cy="230.5" r="3" fill="#f28e2b"/><circle cx="339.7" cy="230.5" r="3" fill="#f28e2b"/><circle cx="347.9" cy="232.0" r="3" fill="#f28e2b"/><circle cx="356.1" cy="229.0" r="3" fill="#f28e2b"/><circle cx="364.4" cy="205.0" r="3" fill="#f28e2b"/><circle cx="372.6" cy="214.0" r="3" fill="#f28e2b"/><circle cx="380.8" cy="229.0" r="3" fill="#f28e2b"/><circle cx="389.0" cy="229.0" r="3" fill="#f28e2b"/><circle cx="397.2" cy="202.0" r="3" fill="#f28e2b"/><circle cx="405.5" cy="232.0" r="3" fill="#f28e2b"/><circle cx="413.7" cy="230.5" r="3" fill="#f28e2b"/><circle cx="421.9" cy="232.0" r="3" fill="#f28e2b"/><circle cx="430.1" cy="229.0" r="3" fill="#f28e2b"/><circle cx="438.3" cy="230.5" r="3" fill="#f28e2b"/><circle cx="446.5" cy="227.5" r="3" fill="#f28e2b"/><circle cx="454.8" cy="229.0" r="3" fill="#f28e2b"/><circle cx="463.0" cy="230.5" r="3" fill="#f28e2b"/><circle cx="471.2" cy="232.0" r="3" fill="#f28e2b"/><circle cx="479.4" cy="229.0" r="3" fill="#f28e2b"/><circle cx="487.6" cy="229.0" r="3" fill="#f28e2b"/><circle cx="495.9" cy="232.0" r="3" fill="#f28e2b"/><circle cx="504.1" cy="232.0" r="3" fill="#f28e2b"/><circle cx="512.3" cy="232.0" r="3" fill="#f28e2b"/><circle cx="520.5" cy="230.5" r="3" fill="#f28e2b"/><circle cx="528.7" cy="232.0" r="3" fill="#f28e2b"/><circle cx="537.0" cy="232.0" r="3" fill="#f28e2b"/><circle cx="545.2" cy="230.5" r="3" fill="#f28e2b"/><circle cx="553.4" cy="232.0" r="3" fill="#f28e2b"/><circle cx="561.6" cy="232.0" r="3" fill="#f28e2b"/><circle cx="569.8" cy="232.0" r="3" fill="#f28e2b"/><circle cx="578.1" cy="232.0" r="3" fill="#f28e2b"/><circle cx="586.3" cy="230.5" r="3" fill="#f28e2b"/><circle cx="594.5" cy="232.0" r="3" fill="#f28e2b"/><circle cx="602.7" cy="232.0" r="3" fill="#f28e2b"/><circle cx="610.9" cy="230.5" r="3" fill="#f28e2b"/><circle cx="619.2" cy="229.0" r="3" fill="#f28e2b"/><circle cx="627.4" cy="230.5" r="3" fill="#f28e2b"/><circle cx="635.6" cy="232.0" r="3" fill="#f28e2b"/><circle cx="643.8" cy="232.0" r="3" fill="#f28e2b"/><circle cx="652.0" cy="229.0" r="3" fill="#f28e2b"/><circle cx="660.3" cy="232.0" r="3" fill="#f28e2b"/><circle cx="668.5" cy="227.5" r="3" fill="#f28e2b"/><circle cx="676.7" cy="182.5" r="3" fill="#f28e2b"/><circle cx="684.9" cy="205.0" r="3" fill="#f28e2b"/><circle cx="693.1" cy="227.5" r="3" fill="#f28e2b"/><circle cx="701.4" cy="230.5" r="3" fill="#f28e2b"/><circle cx="709.6" cy="230.5" r="3" fill="#f28e2b"/><circle cx="717.8" cy="229.0" r="3" fill="#f28e2b"/><circle cx="726.0" cy="232.0" r="3" fill="#f28e2b"/><circle cx="734.2" cy="232.0" r="3" fill="#f28e2b"/><circle cx="742.5" cy="229.0" r="3" fill="#f28e2b"/><circle cx="750.7" cy="230.5" r="3" fill="#f28e2b"/><circle cx="758.9" cy="230.5" r="3" fill="#f28e2b"/><circle cx="767.1" cy="227.5" r="3" fill="#f28e2b"/><circle cx="775.3" cy="230.5" r="3" fill="#f28e2b"/><circle cx="783.6" cy="229.0" r="3" fill="#f28e2b"/><circle cx="791.8" cy="230.5" r="3" fill="#f28e2b"/><circle cx="800.0" cy="230.5" r="3" fill="#f28e2b"/>

  <!-- axes -->
  <line x1="52" y1="28" x2="52" y2="232"
        stroke="#cccccc" stroke-width="1"/>
  <line x1="52" y1="232" x2="800" y2="232"
        stroke="#cccccc" stroke-width="1"/>

  <!-- y-axis labels -->
  <text x="47" y="236.0" text-anchor="end" font-size="10" fill="#57606a" font-family="ui-monospace, SFMono-Regular, 'SF Mono', Menlo, monospace">0</text><text x="47" y="191.0" text-anchor="end" font-size="10" fill="#57606a" font-family="ui-monospace, SFMono-Regular, 'SF Mono', Menlo, monospace">30</text><text x="47" y="146.0" text-anchor="end" font-size="10" fill="#57606a" font-family="ui-monospace, SFMono-Regular, 'SF Mono', Menlo, monospace">60</text><text x="47" y="101.0" text-anchor="end" font-size="10" fill="#57606a" font-family="ui-monospace, SFMono-Regular, 'SF Mono', Menlo, monospace">90</text><text x="47" y="56.0" text-anchor="end" font-size="10" fill="#57606a" font-family="ui-monospace, SFMono-Regular, 'SF Mono', Menlo, monospace">120</text><text x="47" y="11.0" text-anchor="end" font-size="10" fill="#57606a" font-family="ui-monospace, SFMono-Regular, 'SF Mono', Menlo, monospace">150</text>

  <!-- x-axis labels -->
  <text x="52.0" y="248" text-anchor="middle" font-size="10" fill="#8c959f" font-family="ui-monospace, SFMono-Regular, 'SF Mono', Menlo, monospace">05-11</text><text x="323.3" y="248" text-anchor="middle" font-size="10" fill="#8c959f" font-family="ui-monospace, SFMono-Regular, 'SF Mono', Menlo, monospace">06-13</text><text x="594.5" y="248" text-anchor="middle" font-size="10" fill="#8c959f" font-family="ui-monospace, SFMono-Regular, 'SF Mono', Menlo, monospace">07-16</text><text x="142.4" y="248" text-anchor="middle" font-size="10" fill="#8c959f" font-family="ui-monospace, SFMono-Regular, 'SF Mono', Menlo, monospace">05-22</text><text x="413.7" y="248" text-anchor="middle" font-size="10" fill="#8c959f" font-family="ui-monospace, SFMono-Regular, 'SF Mono', Menlo, monospace">06-24</text><text x="684.9" y="248" text-anchor="middle" font-size="10" fill="#8c959f" font-family="ui-monospace, SFMono-Regular, 'SF Mono', Menlo, monospace">07-27</text><text x="232.8" y="248" text-anchor="middle" font-size="10" fill="#8c959f" font-family="ui-monospace, SFMono-Regular, 'SF Mono', Menlo, monospace">06-02</text><text x="504.1" y="248" text-anchor="middle" font-size="10" fill="#8c959f" font-family="ui-monospace, SFMono-Regular, 'SF Mono', Menlo, monospace">07-05</text><text x="775.3" y="248" text-anchor="middle" font-size="10" fill="#8c959f" font-family="ui-monospace, SFMono-Regular, 'SF Mono', Menlo, monospace">08-07</text><text x="800.0" y="248" text-anchor="middle" font-size="10" fill="#8c959f" font-family="ui-monospace, SFMono-Regular, 'SF Mono', Menlo, monospace">08-10</text>

  <!-- legend -->
  <rect x="60" y="262" width="16" height="3" fill="#4e79a7" rx="1"/><text x="80" y="268" font-size="11" fill="#57606a" font-family="-apple-system, BlinkMacSystemFont, 'Segoe UI', sans-serif">Total clones (478)</text><line x1="230" y1="264" x2="246" y2="264" stroke="#f28e2b" stroke-width="2" stroke-dasharray="5,3"/><text x="250" y="268" font-size="11" fill="#57606a" font-family="-apple-system, BlinkMacSystemFont, 'Segoe UI', sans-serif">Unique cloners</text>

</svg>