<svg xmlns="http://www.w3.org/2000/svg" viewBox="0 0 820 280" width="820" height="280">

  <!-- title -->
  <text x="52" y="18" font-size="13" font-weight="600"
        fill="#24292f" font-family="-apple-system, BlinkMacSystemFont, 'Segoe UI', sans-serif"
        >Clone traffic — spank</text>
  <text x="800" y="18" font-size="10" fill="#8c959f"
        font-family="ui-monospace, SFMono-Regular, 'SF Mono', Menlo, monospace" text-anchor="end">2026-06-08</text>

  <!-- grid -->
  <line x1="52" y1="232.0" x2="800" y2="232.0" stroke="#e8e8e8" stroke-width="1"/><line x1="52" y1="199.6" x2="800" y2="199.6" stroke="#e8e8e8" stroke-width="1"/><line x1="52" y1="167.2" x2="800" y2="167.2" stroke="#e8e8e8" stroke-width="1"/><line x1="52" y1="134.9" x2="800" y2="134.9" stroke="#e8e8e8" stroke-width="1"/><line x1="52" y1="102.5" x2="800" y2="102.5" stroke="#e8e8e8" stroke-width="1"/><line x1="52" y1="70.1" x2="800" y2="70.1" stroke="#e8e8e8" stroke-width="1"/><line x1="52" y1="37.7" x2="800" y2="37.7" stroke="#e8e8e8" stroke-width="1"/><line x1="52" y1="5.3" x2="800" y2="5.3" stroke="#e8e8e8" stroke-width="1"/>

  <!-- area fill -->
  <path d="M52.0,232.0 L52.0,232.0 L80.8,228.8 L109.5,225.5 L138.3,232.0 L167.1,228.8 L195.8,232.0 L224.6,228.8 L253.4,232.0 L282.2,228.8 L310.9,232.0 L339.7,225.5 L368.5,28.0 L397.2,222.3 L426.0,232.0 L454.8,228.8 L483.5,209.3 L512.3,222.3 L541.1,232.0 L569.8,232.0 L598.6,232.0 L627.4,222.3 L656.2,222.3 L684.9,228.8 L713.7,232.0 L742.5,232.0 L771.2,228.8 L800.0,228.8 L800.0,232.0 L52.0,232.0Z" fill="#4e79a7" opacity="0.12"/>

  <!-- lines -->
  <polyline points="52.0,232.0 80.8,228.8 109.5,225.5 138.3,232.0 167.1,228.8 195.8,232.0 224.6,228.8 253.4,232.0 282.2,228.8 310.9,232.0 339.7,225.5 368.5,28.0 397.2,222.3 426.0,232.0 454.8,228.8 483.5,209.3 512.3,222.3 541.1,232.0 569.8,232.0 598.6,232.0 627.4,222.3 656.2,222.3 684.9,228.8 713.7,232.0 742.5,232.0 771.2,228.8 800.0,228.8"
            fill="none" stroke="#4e79a7"
            stroke-width="2" stroke-linejoin="round"/>
  <polyline points="52.0,232.0 80.8,228.8 109.5,225.5 138.3,232.0 167.1,228.8 195.8,232.0 224.6,228.8 253.4,232.0 282.2,228.8 310.9,232.0 339.7,225.5 368.5,131.6 397.2,222.3 426.0,232.0 454.8,228.8 483.5,228.8 512.3,222.3 541.1,232.0 569.8,232.0 598.6,232.0 627.4,222.3 656.2,222.3 684.9,228.8 713.7,232.0 742.5,232.0 771.2,228.8 800.0,228.8"
            fill="none" stroke="#f28e2b"
            stroke-width="2" stroke-linejoin="round"
            stroke-dasharray="5,3"/>

  <!-- dots -->
  <circle cx="52.0" cy="232.0" r="3" fill="#4e79a7"/><circle cx="80.8" cy="228.8" r="3" fill="#4e79a7"/><circle cx="109.5" cy="225.5" r="3" fill="#4e79a7"/><circle cx="138.3" cy="232.0" r="3" fill="#4e79a7"/><circle cx="167.1" cy="228.8" r="3" fill="#4e79a7"/><circle cx="195.8" cy="232.0" r="3" fill="#4e79a7"/><circle cx="224.6" cy="228.8" r="3" fill="#4e79a7"/><circle cx="253.4" cy="232.0" r="3" fill="#4e79a7"/><circle cx="282.2" cy="228.8" r="3" fill="#4e79a7"/><circle cx="310.9" cy="232.0" r="3" fill="#4e79a7"/><circle cx="339.7" cy="225.5" r="3" fill="#4e79a7"/><circle cx="368.5" cy="28.0" r="3" fill="#4e79a7"/><circle cx="397.2" cy="222.3" r="3" fill="#4e79a7"/><circle cx="426.0" cy="232.0" r="3" fill="#4e79a7"/><circle cx="454.8" cy="228.8" r="3" fill="#4e79a7"/><circle cx="483.5" cy="209.3" r="3" fill="#4e79a7"/><circle cx="512.3" cy="222.3" r="3" fill="#4e79a7"/><circle cx="541.1" cy="232.0" r="3" fill="#4e79a7"/><circle cx="569.8" cy="232.0" r="3" fill="#4e79a7"/><circle cx="598.6" cy="232.0" r="3" fill="#4e79a7"/><circle cx="627.4" cy="222.3" r="3" fill="#4e79a7"/><circle cx="656.2" cy="222.3" r="3" fill="#4e79a7"/><circle cx="684.9" cy="228.8" r="3" fill="#4e79a7"/><circle cx="713.7" cy="232.0" r="3" fill="#4e79a7"/><circle cx="742.5" cy="232.0" r="3" fill="#4e79a7"/><circle cx="771.2" cy="228.8" r="3" fill="#4e79a7"/><circle cx="800.0" cy="228.8" r="3" fill="#4e79a7"/>
  <circle cx="52.0" cy="232.0" r="3" fill="#f28e2b"/><circle cx="80.8" cy="228.8" r="3" fill="#f28e2b"/><circle cx="109.5" cy="225.5" r="3" fill="#f28e2b"/><circle cx="138.3" cy="232.0" r="3" fill="#f28e2b"/><circle cx="167.1" cy="228.8" r="3" fill="#f28e2b"/><circle cx="195.8" cy="232.0" r="3" fill="#f28e2b"/><circle cx="224.6" cy="228.8" r="3" fill="#f28e2b"/><circle cx="253.4" cy="232.0" r="3" fill="#f28e2b"/><circle cx="282.2" cy="228.8" r="3" fill="#f28e2b"/><circle cx="310.9" cy="232.0" r="3" fill="#f28e2b"/><circle cx="339.7" cy="225.5" r="3" fill="#f28e2b"/><circle cx="368.5" cy="131.6" r="3" fill="#f28e2b"/><circle cx="397.2" cy="222.3" r="3" fill="#f28e2b"/><circle cx="426.0" cy="232.0" r="3" fill="#f28e2b"/><circle cx="454.8" cy="228.8" r="3" fill="#f28e2b"/><circle cx="483.5" cy="228.8" r="3" fill="#f28e2b"/><circle cx="512.3" cy="222.3" r="3" fill="#f28e2b"/><circle cx="541.1" cy="232.0" r="3" fill="#f28e2b"/><circle cx="569.8" cy="232.0" r="3" fill="#f28e2b"/><circle cx="598.6" cy="232.0" r="3" fill="#f28e2b"/><circle cx="627.4" cy="222.3" r="3" fill="#f28e2b"/><circle cx="656.2" cy="222.3" r="3" fill="#f28e2b"/><circle cx="684.9" cy="228.8" r="3" fill="#f28e2b"/><circle cx="713.7" cy="232.0" r="3" fill="#f28e2b"/><circle cx="742.5" cy="232.0" r="3" fill="#f28e2b"/><circle cx="771.2" cy="228.8" r="3" fill="#f28e2b"/><circle cx="800.0" cy="228.8" r="3" fill="#f28e2b"/>

  <!-- axes -->
  <line x1="52" y1="28" x2="52" y2="232"
        stroke="#cccccc" stroke-width="1"/>
  <line x1="52" y1="232" x2="800" y2="232"
        stroke="#cccccc" stroke-width="1"/>

  <!-- y-axis labels -->
  <text x="47" y="236.0" text-anchor="end" font-size="10" fill="#57606a" font-family="ui-monospace, SFMono-Regular, 'SF Mono', Menlo, monospace">0</text><text x="47" y="203.6" text-anchor="end" font-size="10" fill="#57606a" font-family="ui-monospace, SFMono-Regular, 'SF Mono', Menlo, monospace">10</text><text x="47" y="171.2" text-anchor="end" font-size="10" fill="#57606a" font-family="ui-monospace, SFMono-Regular, 'SF Mono', Menlo, monospace">20</text><text x="47" y="138.9" text-anchor="end" font-size="10" fill="#57606a" font-family="ui-monospace, SFMono-Regular, 'SF Mono', Menlo, monospace">30</text><text x="47" y="106.5" text-anchor="end" font-size="10" fill="#57606a" font-family="ui-monospace, SFMono-Regular, 'SF Mono', Menlo, monospace">40</text><text x="47" y="74.1" text-anchor="end" font-size="10" fill="#57606a" font-family="ui-monospace, SFMono-Regular, 'SF Mono', Menlo, monospace">50</text><text x="47" y="41.7" text-anchor="end" font-size="10" fill="#57606a" font-family="ui-monospace, SFMono-Regular, 'SF Mono', Menlo, monospace">60</text><text x="47" y="9.3" text-anchor="end" font-size="10" fill="#57606a" font-family="ui-monospace, SFMono-Regular, 'SF Mono', Menlo, monospace">70</text>

  <!-- x-axis labels -->
  <text x="52.0" y="248" text-anchor="middle" font-size="10" fill="#8c959f" font-family="ui-monospace, SFMono-Regular, 'SF Mono', Menlo, monospace">05-11</text><text x="138.3" y="248" text-anchor="middle" font-size="10" fill="#8c959f" font-family="ui-monospace, SFMono-Regular, 'SF Mono', Menlo, monospace">05-14</text><text x="224.6" y="248" text-anchor="middle" font-size="10" fill="#8c959f" font-family="ui-monospace, SFMono-Regular, 'SF Mono', Menlo, monospace">05-17</text><text x="310.9" y="248" text-anchor="middle" font-size="10" fill="#8c959f" font-family="ui-monospace, SFMono-Regular, 'SF Mono', Menlo, monospace">05-20</text><text x="397.2" y="248" text-anchor="middle" font-size="10" fill="#8c959f" font-family="ui-monospace, SFMono-Regular, 'SF Mono', Menlo, monospace">05-23</text><text x="483.5" y="248" text-anchor="middle" font-size="10" fill="#8c959f" font-family="ui-monospace, SFMono-Regular, 'SF Mono', Menlo, monospace">05-26</text><text x="569.8" y="248" text-anchor="middle" font-size="10" fill="#8c959f" font-family="ui-monospace, SFMono-Regular, 'SF Mono', Menlo, monospace">05-29</text><text x="656.2" y="248" text-anchor="middle" font-size="10" fill="#8c959f" font-family="ui-monospace, SFMono-Regular, 'SF Mono', Menlo, monospace">06-01</text><text x="742.5" y="248" text-anchor="middle" font-size="10" fill="#8c959f" font-family="ui-monospace, SFMono-Regular, 'SF Mono', Menlo, monospace">06-04</text><text x="800.0" y="248" text-anchor="middle" font-size="10" fill="#8c959f" font-family="ui-monospace, SFMono-Regular, 'SF Mono', Menlo, monospace">06-06</text>

  <!-- legend -->
  <rect x="60" y="262" width="16" height="3" fill="#4e79a7" rx="1"/><text x="80" y="268" font-size="11" fill="#57606a" font-family="-apple-system, BlinkMacSystemFont, 'Segoe UI', sans-serif">Total clones (94)</text><line x1="230" y1="264" x2="246" y2="264" stroke="#f28e2b" stroke-width="2" stroke-dasharray="5,3"/><text x="250" y="268" font-size="11" fill="#57606a" font-family="-apple-system, BlinkMacSystemFont, 'Segoe UI', sans-serif">Unique cloners</text>

</svg>