<svg xmlns="http://www.w3.org/2000/svg" viewBox="0 0 820 280" width="820" height="280">

  <!-- title -->
  <text x="52" y="18" font-size="13" font-weight="600"
        fill="#24292f" font-family="-apple-system, BlinkMacSystemFont, 'Segoe UI', sans-serif"
        >Clone traffic — spank</text>
  <text x="800" y="18" font-size="10" fill="#8c959f"
        font-family="ui-monospace, SFMono-Regular, 'SF Mono', Menlo, monospace" text-anchor="end">2026-07-04</text>

  <!-- grid -->
  <line x1="52" y1="232.0" x2="800" y2="232.0" stroke="#e8e8e8" stroke-width="1"/><line x1="52" y1="187.0" x2="800" y2="187.0" stroke="#e8e8e8" stroke-width="1"/><line x1="52" y1="142.0" x2="800" y2="142.0" stroke="#e8e8e8" stroke-width="1"/><line x1="52" y1="97.0" x2="800" y2="97.0" stroke="#e8e8e8" stroke-width="1"/><line x1="52" y1="52.0" x2="800" y2="52.0" stroke="#e8e8e8" stroke-width="1"/><line x1="52" y1="7.0" x2="800" y2="7.0" stroke="#e8e8e8" stroke-width="1"/>

  <!-- area fill -->
  <path d="M52.0,232.0 L52.0,232.0 L66.4,230.5 L80.8,229.0 L95.2,232.0 L109.5,230.5 L123.9,232.0 L138.3,230.5 L152.7,232.0 L167.1,230.5 L181.5,232.0 L195.8,229.0 L210.2,137.5 L224.6,227.5 L239.0,232.0 L253.4,230.5 L267.8,221.5 L282.2,227.5 L296.5,232.0 L310.9,232.0 L325.3,232.0 L339.7,227.5 L354.1,227.5 L368.5,230.5 L382.8,232.0 L397.2,232.0 L411.6,230.5 L426.0,230.5 L440.4,232.0 L454.8,232.0 L469.2,230.5 L483.5,230.5 L497.9,230.5 L512.3,232.0 L526.7,232.0 L541.1,230.5 L555.5,230.5 L569.8,232.0 L584.2,229.0 L598.6,178.0 L613.0,205.0 L627.4,229.0 L641.8,229.0 L656.2,28.0 L670.5,232.0 L684.9,230.5 L699.3,232.0 L713.7,229.0 L728.1,230.5 L742.5,227.5 L756.8,229.0 L771.2,230.5 L785.6,232.0 L800.0,229.0 L800.0,232.0 L52.0,232.0Z" fill="#4e79a7" opacity="0.12"/>

  <!-- lines -->
  <polyline points="52.0,232.0 66.4,230.5 80.8,229.0 95.2,232.0 109.5,230.5 123.9,232.0 138.3,230.5 152.7,232.0 167.1,230.5 181.5,232.0 195.8,229.0 210.2,137.5 224.6,227.5 239.0,232.0 253.4,230.5 267.8,221.5 282.2,227.5 296.5,232.0 310.9,232.0 325.3,232.0 339.7,227.5 354.1,227.5 368.5,230.5 382.8,232.0 397.2,232.0 411.6,230.5 426.0,230.5 440.4,232.0 454.8,232.0 469.2,230.5 483.5,230.5 497.9,230.5 512.3,232.0 526.7,232.0 541.1,230.5 555.5,230.5 569.8,232.0 584.2,229.0 598.6,178.0 613.0,205.0 627.4,229.0 641.8,229.0 656.2,28.0 670.5,232.0 684.9,230.5 699.3,232.0 713.7,229.0 728.1,230.5 742.5,227.5 756.8,229.0 771.2,230.5 785.6,232.0 800.0,229.0"
            fill="none" stroke="#4e79a7"
            stroke-width="2" stroke-linejoin="round"/>
  <polyline points="52.0,232.0 66.4,230.5 80.8,229.0 95.2,232.0 109.5,230.5 123.9,232.0 138.3,230.5 152.7,232.0 167.1,230.5 181.5,232.0 195.8,229.0 210.2,185.5 224.6,227.5 239.0,232.0 253.4,230.5 267.8,230.5 282.2,227.5 296.5,232.0 310.9,232.0 325.3,232.0 339.7,227.5 354.1,227.5 368.5,230.5 382.8,232.0 397.2,232.0 411.6,230.5 426.0,230.5 440.4,232.0 454.8,232.0 469.2,230.5 483.5,230.5 497.9,230.5 512.3,232.0 526.7,232.0 541.1,230.5 555.5,230.5 569.8,232.0 584.2,229.0 598.6,205.0 613.0,214.0 627.4,229.0 641.8,229.0 656.2,202.0 670.5,232.0 684.9,230.5 699.3,232.0 713.7,229.0 728.1,230.5 742.5,227.5 756.8,229.0 771.2,230.5 785.6,232.0 800.0,229.0"
            fill="none" stroke="#f28e2b"
            stroke-width="2" stroke-linejoin="round"
            stroke-dasharray="5,3"/>

  <!-- dots -->
  <circle cx="52.0" cy="232.0" r="3" fill="#4e79a7"/><circle cx="66.4" cy="230.5" r="3" fill="#4e79a7"/><circle cx="80.8" cy="229.0" r="3" fill="#4e79a7"/><circle cx="95.2" cy="232.0" r="3" fill="#4e79a7"/><circle cx="109.5" cy="230.5" r="3" fill="#4e79a7"/><circle cx="123.9" cy="232.0" r="3" fill="#4e79a7"/><circle cx="138.3" cy="230.5" r="3" fill="#4e79a7"/><circle cx="152.7" cy="232.0" r="3" fill="#4e79a7"/><circle cx="167.1" cy="230.5" r="3" fill="#4e79a7"/><circle cx="181.5" cy="232.0" r="3" fill="#4e79a7"/><circle cx="195.8" cy="229.0" r="3" fill="#4e79a7"/><circle cx="210.2" cy="137.5" r="3" fill="#4e79a7"/><circle cx="224.6" cy="227.5" r="3" fill="#4e79a7"/><circle cx="239.0" cy="232.0" r="3" fill="#4e79a7"/><circle cx="253.4" cy="230.5" r="3" fill="#4e79a7"/><circle cx="267.8" cy="221.5" r="3" fill="#4e79a7"/><circle cx="282.2" cy="227.5" r="3" fill="#4e79a7"/><circle cx="296.5" cy="232.0" r="3" fill="#4e79a7"/><circle cx="310.9" cy="232.0" r="3" fill="#4e79a7"/><circle cx="325.3" cy="232.0" r="3" fill="#4e79a7"/><circle cx="339.7" cy="227.5" r="3" fill="#4e79a7"/><circle cx="354.1" cy="227.5" r="3" fill="#4e79a7"/><circle cx="368.5" cy="230.5" r="3" fill="#4e79a7"/><circle cx="382.8" cy="232.0" r="3" fill="#4e79a7"/><circle cx="397.2" cy="232.0" r="3" fill="#4e79a7"/><circle cx="411.6" cy="230.5" r="3" fill="#4e79a7"/><circle cx="426.0" cy="230.5" r="3" fill="#4e79a7"/><circle cx="440.4" cy="232.0" r="3" fill="#4e79a7"/><circle cx="454.8" cy="232.0" r="3" fill="#4e79a7"/><circle cx="469.2" cy="230.5" r="3" fill="#4e79a7"/><circle cx="483.5" cy="230.5" r="3" fill="#4e79a7"/><circle cx="497.9" cy="230.5" r="3" fill="#4e79a7"/><circle cx="512.3" cy="232.0" r="3" fill="#4e79a7"/><circle cx="526.7" cy="232.0" r="3" fill="#4e79a7"/><circle cx="541.1" cy="230.5" r="3" fill="#4e79a7"/><circle cx="555.5" cy="230.5" r="3" fill="#4e79a7"/><circle cx="569.8" cy="232.0" r="3" fill="#4e79a7"/><circle cx="584.2" cy="229.0" r="3" fill="#4e79a7"/><circle cx="598.6" cy="178.0" r="3" fill="#4e79a7"/><circle cx="613.0" cy="205.0" r="3" fill="#4e79a7"/><circle cx="627.4" cy="229.0" r="3" fill="#4e79a7"/><circle cx="641.8" cy="229.0" r="3" fill="#4e79a7"/><circle cx="656.2" cy="28.0" r="3" fill="#4e79a7"/><circle cx="670.5" cy="232.0" r="3" fill="#4e79a7"/><circle cx="684.9" cy="230.5" r="3" fill="#4e79a7"/><circle cx="699.3" cy="232.0" r="3" fill="#4e79a7"/><circle cx="713.7" cy="229.0" r="3" fill="#4e79a7"/><circle cx="728.1" cy="230.5" r="3" fill="#4e79a7"/><circle cx="742.5" cy="227.5" r="3" fill="#4e79a7"/><circle cx="756.8" cy="229.0" r="3" fill="#4e79a7"/><circle cx="771.2" cy="230.5" r="3" fill="#4e79a7"/><circle cx="785.6" cy="232.0" r="3" fill="#4e79a7"/><circle cx="800.0" cy="229.0" r="3" fill="#4e79a7"/>
  <circle cx="52.0" cy="232.0" r="3" fill="#f28e2b"/><circle cx="66.4" cy="230.5" r="3" fill="#f28e2b"/><circle cx="80.8" cy="229.0" r="3" fill="#f28e2b"/><circle cx="95.2" cy="232.0" r="3" fill="#f28e2b"/><circle cx="109.5" cy="230.5" r="3" fill="#f28e2b"/><circle cx="123.9" cy="232.0" r="3" fill="#f28e2b"/><circle cx="138.3" cy="230.5" r="3" fill="#f28e2b"/><circle cx="152.7" cy="232.0" r="3" fill="#f28e2b"/><circle cx="167.1" cy="230.5" r="3" fill="#f28e2b"/><circle cx="181.5" cy="232.0" r="3" fill="#f28e2b"/><circle cx="195.8" cy="229.0" r="3" fill="#f28e2b"/><circle cx="210.2" cy="185.5" r="3" fill="#f28e2b"/><circle cx="224.6" cy="227.5" r="3" fill="#f28e2b"/><circle cx="239.0" cy="232.0" r="3" fill="#f28e2b"/><circle cx="253.4" cy="230.5" r="3" fill="#f28e2b"/><circle cx="267.8" cy="230.5" r="3" fill="#f28e2b"/><circle cx="282.2" cy="227.5" r="3" fill="#f28e2b"/><circle cx="296.5" cy="232.0" r="3" fill="#f28e2b"/><circle cx="310.9" cy="232.0" r="3" fill="#f28e2b"/><circle cx="325.3" cy="232.0" r="3" fill="#f28e2b"/><circle cx="339.7" cy="227.5" r="3" fill="#f28e2b"/><circle cx="354.1" cy="227.5" r="3" fill="#f28e2b"/><circle cx="368.5" cy="230.5" r="3" fill="#f28e2b"/><circle cx="382.8" cy="232.0" r="3" fill="#f28e2b"/><circle cx="397.2" cy="232.0" r="3" fill="#f28e2b"/><circle cx="411.6" cy="230.5" r="3" fill="#f28e2b"/><circle cx="426.0" cy="230.5" r="3" fill="#f28e2b"/><circle cx="440.4" cy="232.0" r="3" fill="#f28e2b"/><circle cx="454.8" cy="232.0" r="3" fill="#f28e2b"/><circle cx="469.2" cy="230.5" r="3" fill="#f28e2b"/><circle cx="483.5" cy="230.5" r="3" fill="#f28e2b"/><circle cx="497.9" cy="230.5" r="3" fill="#f28e2b"/><circle cx="512.3" cy="232.0" r="3" fill="#f28e2b"/><circle cx="526.7" cy="232.0" r="3" fill="#f28e2b"/><circle cx="541.1" cy="230.5" r="3" fill="#f28e2b"/><circle cx="555.5" cy="230.5" r="3" fill="#f28e2b"/><circle cx="569.8" cy="232.0" r="3" fill="#f28e2b"/><circle cx="584.2" cy="229.0" r="3" fill="#f28e2b"/><circle cx="598.6" cy="205.0" r="3" fill="#f28e2b"/><circle cx="613.0" cy="214.0" r="3" fill="#f28e2b"/><circle cx="627.4" cy="229.0" r="3" fill="#f28e2b"/><circle cx="641.8" cy="229.0" r="3" fill="#f28e2b"/><circle cx="656.2" cy="202.0" r="3" fill="#f28e2b"/><circle cx="670.5" cy="232.0" r="3" fill="#f28e2b"/><circle cx="684.9" cy="230.5" r="3" fill="#f28e2b"/><circle cx="699.3" cy="232.0" r="3" fill="#f28e2b"/><circle cx="713.7" cy="229.0" r="3" fill="#f28e2b"/><circle cx="728.1" cy="230.5" r="3" fill="#f28e2b"/><circle cx="742.5" cy="227.5" r="3" fill="#f28e2b"/><circle cx="756.8" cy="229.0" r="3" fill="#f28e2b"/><circle cx="771.2" cy="230.5" r="3" fill="#f28e2b"/><circle cx="785.6" cy="232.0" r="3" fill="#f28e2b"/><circle cx="800.0" cy="229.0" r="3" fill="#f28e2b"/>

  <!-- axes -->
  <line x1="52" y1="28" x2="52" y2="232"
        stroke="#cccccc" stroke-width="1"/>
  <line x1="52" y1="232" x2="800" y2="232"
        stroke="#cccccc" stroke-width="1"/>

  <!-- y-axis labels -->
  <text x="47" y="236.0" text-anchor="end" font-size="10" fill="#57606a" font-family="ui-monospace, SFMono-Regular, 'SF Mono', Menlo, monospace">0</text><text x="47" y="191.0" text-anchor="end" font-size="10" fill="#57606a" font-family="ui-monospace, SFMono-Regular, 'SF Mono', Menlo, monospace">30</text><text x="47" y="146.0" text-anchor="end" font-size="10" fill="#57606a" font-family="ui-monospace, SFMono-Regular, 'SF Mono', Menlo, monospace">60</text><text x="47" y="101.0" text-anchor="end" font-size="10" fill="#57606a" font-family="ui-monospace, SFMono-Regular, 'SF Mono', Menlo, monospace">90</text><text x="47" y="56.0" text-anchor="end" font-size="10" fill="#57606a" font-family="ui-monospace, SFMono-Regular, 'SF Mono', Menlo, monospace">120</text><text x="47" y="11.0" text-anchor="end" font-size="10" fill="#57606a" font-family="ui-monospace, SFMono-Regular, 'SF Mono', Menlo, monospace">150</text>

  <!-- x-axis labels -->
  <text x="52.0" y="248" text-anchor="middle" font-size="10" fill="#8c959f" font-family="ui-monospace, SFMono-Regular, 'SF Mono', Menlo, monospace">05-11</text><text x="569.8" y="248" text-anchor="middle" font-size="10" fill="#8c959f" font-family="ui-monospace, SFMono-Regular, 'SF Mono', Menlo, monospace">06-16</text><text x="138.3" y="248" text-anchor="middle" font-size="10" fill="#8c959f" font-family="ui-monospace, SFMono-Regular, 'SF Mono', Menlo, monospace">05-17</text><text x="656.2" y="248" text-anchor="middle" font-size="10" fill="#8c959f" font-family="ui-monospace, SFMono-Regular, 'SF Mono', Menlo, monospace">06-22</text><text x="224.6" y="248" text-anchor="middle" font-size="10" fill="#8c959f" font-family="ui-monospace, SFMono-Regular, 'SF Mono', Menlo, monospace">05-23</text><text x="742.5" y="248" text-anchor="middle" font-size="10" fill="#8c959f" font-family="ui-monospace, SFMono-Regular, 'SF Mono', Menlo, monospace">06-28</text><text x="310.9" y="248" text-anchor="middle" font-size="10" fill="#8c959f" font-family="ui-monospace, SFMono-Regular, 'SF Mono', Menlo, monospace">05-29</text><text x="800.0" y="248" text-anchor="middle" font-size="10" fill="#8c959f" font-family="ui-monospace, SFMono-Regular, 'SF Mono', Menlo, monospace">07-02</text><text x="397.2" y="248" text-anchor="middle" font-size="10" fill="#8c959f" font-family="ui-monospace, SFMono-Regular, 'SF Mono', Menlo, monospace">06-04</text><text x="483.5" y="248" text-anchor="middle" font-size="10" fill="#8c959f" font-family="ui-monospace, SFMono-Regular, 'SF Mono', Menlo, monospace">06-10</text>

  <!-- legend -->
  <rect x="60" y="262" width="16" height="3" fill="#4e79a7" rx="1"/><text x="80" y="268" font-size="11" fill="#57606a" font-family="-apple-system, BlinkMacSystemFont, 'Segoe UI', sans-serif">Total clones (307)</text><line x1="230" y1="264" x2="246" y2="264" stroke="#f28e2b" stroke-width="2" stroke-dasharray="5,3"/><text x="250" y="268" font-size="11" fill="#57606a" font-family="-apple-system, BlinkMacSystemFont, 'Segoe UI', sans-serif">Unique cloners</text>

</svg>