<svg xmlns="http://www.w3.org/2000/svg" viewBox="0 0 820 280" width="820" height="280">

  <!-- title -->
  <text x="52" y="18" font-size="13" font-weight="600"
        fill="#24292f" font-family="-apple-system, BlinkMacSystemFont, 'Segoe UI', sans-serif"
        >Clone traffic — stats</text>
  <text x="800" y="18" font-size="10" fill="#8c959f"
        font-family="ui-monospace, SFMono-Regular, 'SF Mono', Menlo, monospace" text-anchor="end">2026-07-09</text>

  <!-- grid -->
  <line x1="52" y1="232.0" x2="800" y2="232.0" stroke="#e8e8e8" stroke-width="1"/><line x1="52" y1="191.2" x2="800" y2="191.2" stroke="#e8e8e8" stroke-width="1"/><line x1="52" y1="150.4" x2="800" y2="150.4" stroke="#e8e8e8" stroke-width="1"/><line x1="52" y1="109.6" x2="800" y2="109.6" stroke="#e8e8e8" stroke-width="1"/><line x1="52" y1="68.8" x2="800" y2="68.8" stroke="#e8e8e8" stroke-width="1"/><line x1="52" y1="28.0" x2="800" y2="28.0" stroke="#e8e8e8" stroke-width="1"/>

  <!-- area fill -->
  <path d="M52.0,232.0 L52.0,232.0 L65.4,232.0 L78.7,232.0 L92.1,232.0 L105.4,232.0 L118.8,232.0 L132.1,232.0 L145.5,232.0 L158.9,232.0 L172.2,232.0 L185.6,232.0 L198.9,232.0 L212.3,232.0 L225.6,200.3 L239.0,50.7 L252.4,168.5 L265.7,182.1 L279.1,168.5 L292.4,145.9 L305.8,145.9 L319.1,164.0 L332.5,177.6 L345.9,168.5 L359.2,164.0 L372.6,150.4 L385.9,173.1 L399.3,168.5 L412.6,177.6 L426.0,204.8 L439.4,159.5 L452.7,168.5 L466.1,182.1 L479.4,173.1 L492.8,118.7 L506.1,105.1 L519.5,132.3 L532.9,154.9 L546.2,136.8 L559.6,28.0 L572.9,173.1 L586.3,173.1 L599.6,177.6 L613.0,186.7 L626.4,182.1 L639.7,186.7 L653.1,191.2 L666.4,164.0 L679.8,168.5 L693.1,177.6 L706.5,164.0 L719.9,177.6 L733.2,154.9 L746.6,222.9 L759.9,182.1 L773.3,173.1 L786.6,177.6 L800.0,209.3 L800.0,232.0 L52.0,232.0Z" fill="#4e79a7" opacity="0.12"/>

  <!-- lines -->
  <polyline points="52.0,232.0 65.4,232.0 78.7,232.0 92.1,232.0 105.4,232.0 118.8,232.0 132.1,232.0 145.5,232.0 158.9,232.0 172.2,232.0 185.6,232.0 198.9,232.0 212.3,232.0 225.6,200.3 239.0,50.7 252.4,168.5 265.7,182.1 279.1,168.5 292.4,145.9 305.8,145.9 319.1,164.0 332.5,177.6 345.9,168.5 359.2,164.0 372.6,150.4 385.9,173.1 399.3,168.5 412.6,177.6 426.0,204.8 439.4,159.5 452.7,168.5 466.1,182.1 479.4,173.1 492.8,118.7 506.1,105.1 519.5,132.3 532.9,154.9 546.2,136.8 559.6,28.0 572.9,173.1 586.3,173.1 599.6,177.6 613.0,186.7 626.4,182.1 639.7,186.7 653.1,191.2 666.4,164.0 679.8,168.5 693.1,177.6 706.5,164.0 719.9,177.6 733.2,154.9 746.6,222.9 759.9,182.1 773.3,173.1 786.6,177.6 800.0,209.3"
            fill="none" stroke="#4e79a7"
            stroke-width="2" stroke-linejoin="round"/>
  <polyline points="52.0,232.0 65.4,232.0 78.7,232.0 92.1,232.0 105.4,232.0 118.8,232.0 132.1,232.0 145.5,232.0 158.9,232.0 172.2,232.0 185.6,232.0 198.9,232.0 212.3,232.0 225.6,200.3 239.0,123.2 252.4,182.1 265.7,195.7 279.1,182.1 292.4,159.5 305.8,168.5 319.1,182.1 332.5,195.7 345.9,182.1 359.2,177.6 372.6,164.0 385.9,186.7 399.3,182.1 412.6,191.2 426.0,204.8 439.4,191.2 452.7,182.1 466.1,195.7 479.4,200.3 492.8,173.1 506.1,159.5 519.5,177.6 532.9,182.1 546.2,177.6 559.6,177.6 572.9,186.7 586.3,186.7 599.6,191.2 613.0,200.3 626.4,195.7 639.7,200.3 653.1,191.2 666.4,177.6 679.8,182.1 693.1,191.2 706.5,177.6 719.9,191.2 733.2,173.1 746.6,222.9 759.9,195.7 773.3,200.3 786.6,191.2 800.0,209.3"
            fill="none" stroke="#f28e2b"
            stroke-width="2" stroke-linejoin="round"
            stroke-dasharray="5,3"/>

  <!-- dots -->
  <circle cx="52.0" cy="232.0" r="3" fill="#4e79a7"/><circle cx="65.4" cy="232.0" r="3" fill="#4e79a7"/><circle cx="78.7" cy="232.0" r="3" fill="#4e79a7"/><circle cx="92.1" cy="232.0" r="3" fill="#4e79a7"/><circle cx="105.4" cy="232.0" r="3" fill="#4e79a7"/><circle cx="118.8" cy="232.0" r="3" fill="#4e79a7"/><circle cx="132.1" cy="232.0" r="3" fill="#4e79a7"/><circle cx="145.5" cy="232.0" r="3" fill="#4e79a7"/><circle cx="158.9" cy="232.0" r="3" fill="#4e79a7"/><circle cx="172.2" cy="232.0" r="3" fill="#4e79a7"/><circle cx="185.6" cy="232.0" r="3" fill="#4e79a7"/><circle cx="198.9" cy="232.0" r="3" fill="#4e79a7"/><circle cx="212.3" cy="232.0" r="3" fill="#4e79a7"/><circle cx="225.6" cy="200.3" r="3" fill="#4e79a7"/><circle cx="239.0" cy="50.7" r="3" fill="#4e79a7"/><circle cx="252.4" cy="168.5" r="3" fill="#4e79a7"/><circle cx="265.7" cy="182.1" r="3" fill="#4e79a7"/><circle cx="279.1" cy="168.5" r="3" fill="#4e79a7"/><circle cx="292.4" cy="145.9" r="3" fill="#4e79a7"/><circle cx="305.8" cy="145.9" r="3" fill="#4e79a7"/><circle cx="319.1" cy="164.0" r="3" fill="#4e79a7"/><circle cx="332.5" cy="177.6" r="3" fill="#4e79a7"/><circle cx="345.9" cy="168.5" r="3" fill="#4e79a7"/><circle cx="359.2" cy="164.0" r="3" fill="#4e79a7"/><circle cx="372.6" cy="150.4" r="3" fill="#4e79a7"/><circle cx="385.9" cy="173.1" r="3" fill="#4e79a7"/><circle cx="399.3" cy="168.5" r="3" fill="#4e79a7"/><circle cx="412.6" cy="177.6" r="3" fill="#4e79a7"/><circle cx="426.0" cy="204.8" r="3" fill="#4e79a7"/><circle cx="439.4" cy="159.5" r="3" fill="#4e79a7"/><circle cx="452.7" cy="168.5" r="3" fill="#4e79a7"/><circle cx="466.1" cy="182.1" r="3" fill="#4e79a7"/><circle cx="479.4" cy="173.1" r="3" fill="#4e79a7"/><circle cx="492.8" cy="118.7" r="3" fill="#4e79a7"/><circle cx="506.1" cy="105.1" r="3" fill="#4e79a7"/><circle cx="519.5" cy="132.3" r="3" fill="#4e79a7"/><circle cx="532.9" cy="154.9" r="3" fill="#4e79a7"/><circle cx="546.2" cy="136.8" r="3" fill="#4e79a7"/><circle cx="559.6" cy="28.0" r="3" fill="#4e79a7"/><circle cx="572.9" cy="173.1" r="3" fill="#4e79a7"/><circle cx="586.3" cy="173.1" r="3" fill="#4e79a7"/><circle cx="599.6" cy="177.6" r="3" fill="#4e79a7"/><circle cx="613.0" cy="186.7" r="3" fill="#4e79a7"/><circle cx="626.4" cy="182.1" r="3" fill="#4e79a7"/><circle cx="639.7" cy="186.7" r="3" fill="#4e79a7"/><circle cx="653.1" cy="191.2" r="3" fill="#4e79a7"/><circle cx="666.4" cy="164.0" r="3" fill="#4e79a7"/><circle cx="679.8" cy="168.5" r="3" fill="#4e79a7"/><circle cx="693.1" cy="177.6" r="3" fill="#4e79a7"/><circle cx="706.5" cy="164.0" r="3" fill="#4e79a7"/><circle cx="719.9" cy="177.6" r="3" fill="#4e79a7"/><circle cx="733.2" cy="154.9" r="3" fill="#4e79a7"/><circle cx="746.6" cy="222.9" r="3" fill="#4e79a7"/><circle cx="759.9" cy="182.1" r="3" fill="#4e79a7"/><circle cx="773.3" cy="173.1" r="3" fill="#4e79a7"/><circle cx="786.6" cy="177.6" r="3" fill="#4e79a7"/><circle cx="800.0" cy="209.3" r="3" fill="#4e79a7"/>
  <circle cx="52.0" cy="232.0" r="3" fill="#f28e2b"/><circle cx="65.4" cy="232.0" r="3" fill="#f28e2b"/><circle cx="78.7" cy="232.0" r="3" fill="#f28e2b"/><circle cx="92.1" cy="232.0" r="3" fill="#f28e2b"/><circle cx="105.4" cy="232.0" r="3" fill="#f28e2b"/><circle cx="118.8" cy="232.0" r="3" fill="#f28e2b"/><circle cx="132.1" cy="232.0" r="3" fill="#f28e2b"/><circle cx="145.5" cy="232.0" r="3" fill="#f28e2b"/><circle cx="158.9" cy="232.0" r="3" fill="#f28e2b"/><circle cx="172.2" cy="232.0" r="3" fill="#f28e2b"/><circle cx="185.6" cy="232.0" r="3" fill="#f28e2b"/><circle cx="198.9" cy="232.0" r="3" fill="#f28e2b"/><circle cx="212.3" cy="232.0" r="3" fill="#f28e2b"/><circle cx="225.6" cy="200.3" r="3" fill="#f28e2b"/><circle cx="239.0" cy="123.2" r="3" fill="#f28e2b"/><circle cx="252.4" cy="182.1" r="3" fill="#f28e2b"/><circle cx="265.7" cy="195.7" r="3" fill="#f28e2b"/><circle cx="279.1" cy="182.1" r="3" fill="#f28e2b"/><circle cx="292.4" cy="159.5" r="3" fill="#f28e2b"/><circle cx="305.8" cy="168.5" r="3" fill="#f28e2b"/><circle cx="319.1" cy="182.1" r="3" fill="#f28e2b"/><circle cx="332.5" cy="195.7" r="3" fill="#f28e2b"/><circle cx="345.9" cy="182.1" r="3" fill="#f28e2b"/><circle cx="359.2" cy="177.6" r="3" fill="#f28e2b"/><circle cx="372.6" cy="164.0" r="3" fill="#f28e2b"/><circle cx="385.9" cy="186.7" r="3" fill="#f28e2b"/><circle cx="399.3" cy="182.1" r="3" fill="#f28e2b"/><circle cx="412.6" cy="191.2" r="3" fill="#f28e2b"/><circle cx="426.0" cy="204.8" r="3" fill="#f28e2b"/><circle cx="439.4" cy="191.2" r="3" fill="#f28e2b"/><circle cx="452.7" cy="182.1" r="3" fill="#f28e2b"/><circle cx="466.1" cy="195.7" r="3" fill="#f28e2b"/><circle cx="479.4" cy="200.3" r="3" fill="#f28e2b"/><circle cx="492.8" cy="173.1" r="3" fill="#f28e2b"/><circle cx="506.1" cy="159.5" r="3" fill="#f28e2b"/><circle cx="519.5" cy="177.6" r="3" fill="#f28e2b"/><circle cx="532.9" cy="182.1" r="3" fill="#f28e2b"/><circle cx="546.2" cy="177.6" r="3" fill="#f28e2b"/><circle cx="559.6" cy="177.6" r="3" fill="#f28e2b"/><circle cx="572.9" cy="186.7" r="3" fill="#f28e2b"/><circle cx="586.3" cy="186.7" r="3" fill="#f28e2b"/><circle cx="599.6" cy="191.2" r="3" fill="#f28e2b"/><circle cx="613.0" cy="200.3" r="3" fill="#f28e2b"/><circle cx="626.4" cy="195.7" r="3" fill="#f28e2b"/><circle cx="639.7" cy="200.3" r="3" fill="#f28e2b"/><circle cx="653.1" cy="191.2" r="3" fill="#f28e2b"/><circle cx="666.4" cy="177.6" r="3" fill="#f28e2b"/><circle cx="679.8" cy="182.1" r="3" fill="#f28e2b"/><circle cx="693.1" cy="191.2" r="3" fill="#f28e2b"/><circle cx="706.5" cy="177.6" r="3" fill="#f28e2b"/><circle cx="719.9" cy="191.2" r="3" fill="#f28e2b"/><circle cx="733.2" cy="173.1" r="3" fill="#f28e2b"/><circle cx="746.6" cy="222.9" r="3" fill="#f28e2b"/><circle cx="759.9" cy="195.7" r="3" fill="#f28e2b"/><circle cx="773.3" cy="200.3" r="3" fill="#f28e2b"/><circle cx="786.6" cy="191.2" r="3" fill="#f28e2b"/><circle cx="800.0" cy="209.3" r="3" fill="#f28e2b"/>

  <!-- axes -->
  <line x1="52" y1="28" x2="52" y2="232"
        stroke="#cccccc" stroke-width="1"/>
  <line x1="52" y1="232" x2="800" y2="232"
        stroke="#cccccc" stroke-width="1"/>

  <!-- y-axis labels -->
  <text x="47" y="236.0" text-anchor="end" font-size="10" fill="#57606a" font-family="ui-monospace, SFMono-Regular, 'SF Mono', Menlo, monospace">0</text><text x="47" y="195.2" text-anchor="end" font-size="10" fill="#57606a" font-family="ui-monospace, SFMono-Regular, 'SF Mono', Menlo, monospace">9</text><text x="47" y="154.4" text-anchor="end" font-size="10" fill="#57606a" font-family="ui-monospace, SFMono-Regular, 'SF Mono', Menlo, monospace">18</text><text x="47" y="113.6" text-anchor="end" font-size="10" fill="#57606a" font-family="ui-monospace, SFMono-Regular, 'SF Mono', Menlo, monospace">27</text><text x="47" y="72.8" text-anchor="end" font-size="10" fill="#57606a" font-family="ui-monospace, SFMono-Regular, 'SF Mono', Menlo, monospace">36</text><text x="47" y="32.0" text-anchor="end" font-size="10" fill="#57606a" font-family="ui-monospace, SFMono-Regular, 'SF Mono', Menlo, monospace">45</text>

  <!-- x-axis labels -->
  <text x="52.0" y="248" text-anchor="middle" font-size="10" fill="#8c959f" font-family="ui-monospace, SFMono-Regular, 'SF Mono', Menlo, monospace">05-12</text><text x="519.5" y="248" text-anchor="middle" font-size="10" fill="#8c959f" font-family="ui-monospace, SFMono-Regular, 'SF Mono', Menlo, monospace">06-16</text><text x="145.5" y="248" text-anchor="middle" font-size="10" fill="#8c959f" font-family="ui-monospace, SFMono-Regular, 'SF Mono', Menlo, monospace">05-19</text><text x="613.0" y="248" text-anchor="middle" font-size="10" fill="#8c959f" font-family="ui-monospace, SFMono-Regular, 'SF Mono', Menlo, monospace">06-23</text><text x="239.0" y="248" text-anchor="middle" font-size="10" fill="#8c959f" font-family="ui-monospace, SFMono-Regular, 'SF Mono', Menlo, monospace">05-26</text><text x="706.5" y="248" text-anchor="middle" font-size="10" fill="#8c959f" font-family="ui-monospace, SFMono-Regular, 'SF Mono', Menlo, monospace">06-30</text><text x="332.5" y="248" text-anchor="middle" font-size="10" fill="#8c959f" font-family="ui-monospace, SFMono-Regular, 'SF Mono', Menlo, monospace">06-02</text><text x="800.0" y="248" text-anchor="middle" font-size="10" fill="#8c959f" font-family="ui-monospace, SFMono-Regular, 'SF Mono', Menlo, monospace">07-07</text><text x="426.0" y="248" text-anchor="middle" font-size="10" fill="#8c959f" font-family="ui-monospace, SFMono-Regular, 'SF Mono', Menlo, monospace">06-09</text>

  <!-- legend -->
  <rect x="60" y="262" width="16" height="3" fill="#4e79a7" rx="1"/><text x="80" y="268" font-size="11" fill="#57606a" font-family="-apple-system, BlinkMacSystemFont, 'Segoe UI', sans-serif">Total clones (661)</text><line x1="230" y1="264" x2="246" y2="264" stroke="#f28e2b" stroke-width="2" stroke-dasharray="5,3"/><text x="250" y="268" font-size="11" fill="#57606a" font-family="-apple-system, BlinkMacSystemFont, 'Segoe UI', sans-serif">Unique cloners</text>

</svg>