<svg xmlns="http://www.w3.org/2000/svg" viewBox="0 0 820 280" width="820" height="280">

  <!-- title -->
  <text x="52" y="18" font-size="13" font-weight="600"
        fill="#24292f" font-family="-apple-system, BlinkMacSystemFont, 'Segoe UI', sans-serif"
        >Clone traffic — stats</text>
  <text x="800" y="18" font-size="10" fill="#8c959f"
        font-family="ui-monospace, SFMono-Regular, 'SF Mono', Menlo, monospace" text-anchor="end">2026-06-18</text>

  <!-- grid -->
  <line x1="52" y1="232.0" x2="800" y2="232.0" stroke="#e8e8e8" stroke-width="1"/><line x1="52" y1="191.2" x2="800" y2="191.2" stroke="#e8e8e8" stroke-width="1"/><line x1="52" y1="150.4" x2="800" y2="150.4" stroke="#e8e8e8" stroke-width="1"/><line x1="52" y1="109.6" x2="800" y2="109.6" stroke="#e8e8e8" stroke-width="1"/><line x1="52" y1="68.8" x2="800" y2="68.8" stroke="#e8e8e8" stroke-width="1"/><line x1="52" y1="28.0" x2="800" y2="28.0" stroke="#e8e8e8" stroke-width="1"/>

  <!-- area fill -->
  <path d="M52.0,232.0 L52.0,232.0 L73.4,232.0 L94.7,232.0 L116.1,232.0 L137.5,232.0 L158.9,232.0 L180.2,232.0 L201.6,232.0 L223.0,232.0 L244.3,232.0 L265.7,232.0 L287.1,232.0 L308.5,232.0 L329.8,196.3 L351.2,28.0 L372.6,160.6 L393.9,175.9 L415.3,160.6 L436.7,135.1 L458.1,135.1 L479.4,155.5 L500.8,170.8 L522.2,160.6 L543.5,155.5 L564.9,140.2 L586.3,165.7 L607.7,160.6 L629.0,170.8 L650.4,201.4 L671.8,150.4 L693.1,160.6 L714.5,175.9 L735.9,165.7 L757.3,104.5 L778.6,89.2 L800.0,119.8 L800.0,232.0 L52.0,232.0Z" fill="#4e79a7" opacity="0.12"/>

  <!-- lines -->
  <polyline points="52.0,232.0 73.4,232.0 94.7,232.0 116.1,232.0 137.5,232.0 158.9,232.0 180.2,232.0 201.6,232.0 223.0,232.0 244.3,232.0 265.7,232.0 287.1,232.0 308.5,232.0 329.8,196.3 351.2,28.0 372.6,160.6 393.9,175.9 415.3,160.6 436.7,135.1 458.1,135.1 479.4,155.5 500.8,170.8 522.2,160.6 543.5,155.5 564.9,140.2 586.3,165.7 607.7,160.6 629.0,170.8 650.4,201.4 671.8,150.4 693.1,160.6 714.5,175.9 735.9,165.7 757.3,104.5 778.6,89.2 800.0,119.8"
            fill="none" stroke="#4e79a7"
            stroke-width="2" stroke-linejoin="round"/>
  <polyline points="52.0,232.0 73.4,232.0 94.7,232.0 116.1,232.0 137.5,232.0 158.9,232.0 180.2,232.0 201.6,232.0 223.0,232.0 244.3,232.0 265.7,232.0 287.1,232.0 308.5,232.0 329.8,196.3 351.2,109.6 372.6,175.9 393.9,191.2 415.3,175.9 436.7,150.4 458.1,160.6 479.4,175.9 500.8,191.2 522.2,175.9 543.5,170.8 564.9,155.5 586.3,181.0 607.7,175.9 629.0,186.1 650.4,201.4 671.8,186.1 693.1,175.9 714.5,191.2 735.9,196.3 757.3,165.7 778.6,150.4 800.0,170.8"
            fill="none" stroke="#f28e2b"
            stroke-width="2" stroke-linejoin="round"
            stroke-dasharray="5,3"/>

  <!-- dots -->
  <circle cx="52.0" cy="232.0" r="3" fill="#4e79a7"/><circle cx="73.4" cy="232.0" r="3" fill="#4e79a7"/><circle cx="94.7" cy="232.0" r="3" fill="#4e79a7"/><circle cx="116.1" cy="232.0" r="3" fill="#4e79a7"/><circle cx="137.5" cy="232.0" r="3" fill="#4e79a7"/><circle cx="158.9" cy="232.0" r="3" fill="#4e79a7"/><circle cx="180.2" cy="232.0" r="3" fill="#4e79a7"/><circle cx="201.6" cy="232.0" r="3" fill="#4e79a7"/><circle cx="223.0" cy="232.0" r="3" fill="#4e79a7"/><circle cx="244.3" cy="232.0" r="3" fill="#4e79a7"/><circle cx="265.7" cy="232.0" r="3" fill="#4e79a7"/><circle cx="287.1" cy="232.0" r="3" fill="#4e79a7"/><circle cx="308.5" cy="232.0" r="3" fill="#4e79a7"/><circle cx="329.8" cy="196.3" r="3" fill="#4e79a7"/><circle cx="351.2" cy="28.0" r="3" fill="#4e79a7"/><circle cx="372.6" cy="160.6" r="3" fill="#4e79a7"/><circle cx="393.9" cy="175.9" r="3" fill="#4e79a7"/><circle cx="415.3" cy="160.6" r="3" fill="#4e79a7"/><circle cx="436.7" cy="135.1" r="3" fill="#4e79a7"/><circle cx="458.1" cy="135.1" r="3" fill="#4e79a7"/><circle cx="479.4" cy="155.5" r="3" fill="#4e79a7"/><circle cx="500.8" cy="170.8" r="3" fill="#4e79a7"/><circle cx="522.2" cy="160.6" r="3" fill="#4e79a7"/><circle cx="543.5" cy="155.5" r="3" fill="#4e79a7"/><circle cx="564.9" cy="140.2" r="3" fill="#4e79a7"/><circle cx="586.3" cy="165.7" r="3" fill="#4e79a7"/><circle cx="607.7" cy="160.6" r="3" fill="#4e79a7"/><circle cx="629.0" cy="170.8" r="3" fill="#4e79a7"/><circle cx="650.4" cy="201.4" r="3" fill="#4e79a7"/><circle cx="671.8" cy="150.4" r="3" fill="#4e79a7"/><circle cx="693.1" cy="160.6" r="3" fill="#4e79a7"/><circle cx="714.5" cy="175.9" r="3" fill="#4e79a7"/><circle cx="735.9" cy="165.7" r="3" fill="#4e79a7"/><circle cx="757.3" cy="104.5" r="3" fill="#4e79a7"/><circle cx="778.6" cy="89.2" r="3" fill="#4e79a7"/><circle cx="800.0" cy="119.8" r="3" fill="#4e79a7"/>
  <circle cx="52.0" cy="232.0" r="3" fill="#f28e2b"/><circle cx="73.4" cy="232.0" r="3" fill="#f28e2b"/><circle cx="94.7" cy="232.0" r="3" fill="#f28e2b"/><circle cx="116.1" cy="232.0" r="3" fill="#f28e2b"/><circle cx="137.5" cy="232.0" r="3" fill="#f28e2b"/><circle cx="158.9" cy="232.0" r="3" fill="#f28e2b"/><circle cx="180.2" cy="232.0" r="3" fill="#f28e2b"/><circle cx="201.6" cy="232.0" r="3" fill="#f28e2b"/><circle cx="223.0" cy="232.0" r="3" fill="#f28e2b"/><circle cx="244.3" cy="232.0" r="3" fill="#f28e2b"/><circle cx="265.7" cy="232.0" r="3" fill="#f28e2b"/><circle cx="287.1" cy="232.0" r="3" fill="#f28e2b"/><circle cx="308.5" cy="232.0" r="3" fill="#f28e2b"/><circle cx="329.8" cy="196.3" r="3" fill="#f28e2b"/><circle cx="351.2" cy="109.6" r="3" fill="#f28e2b"/><circle cx="372.6" cy="175.9" r="3" fill="#f28e2b"/><circle cx="393.9" cy="191.2" r="3" fill="#f28e2b"/><circle cx="415.3" cy="175.9" r="3" fill="#f28e2b"/><circle cx="436.7" cy="150.4" r="3" fill="#f28e2b"/><circle cx="458.1" cy="160.6" r="3" fill="#f28e2b"/><circle cx="479.4" cy="175.9" r="3" fill="#f28e2b"/><circle cx="500.8" cy="191.2" r="3" fill="#f28e2b"/><circle cx="522.2" cy="175.9" r="3" fill="#f28e2b"/><circle cx="543.5" cy="170.8" r="3" fill="#f28e2b"/><circle cx="564.9" cy="155.5" r="3" fill="#f28e2b"/><circle cx="586.3" cy="181.0" r="3" fill="#f28e2b"/><circle cx="607.7" cy="175.9" r="3" fill="#f28e2b"/><circle cx="629.0" cy="186.1" r="3" fill="#f28e2b"/><circle cx="650.4" cy="201.4" r="3" fill="#f28e2b"/><circle cx="671.8" cy="186.1" r="3" fill="#f28e2b"/><circle cx="693.1" cy="175.9" r="3" fill="#f28e2b"/><circle cx="714.5" cy="191.2" r="3" fill="#f28e2b"/><circle cx="735.9" cy="196.3" r="3" fill="#f28e2b"/><circle cx="757.3" cy="165.7" r="3" fill="#f28e2b"/><circle cx="778.6" cy="150.4" r="3" fill="#f28e2b"/><circle cx="800.0" cy="170.8" r="3" fill="#f28e2b"/>

  <!-- axes -->
  <line x1="52" y1="28" x2="52" y2="232"
        stroke="#cccccc" stroke-width="1"/>
  <line x1="52" y1="232" x2="800" y2="232"
        stroke="#cccccc" stroke-width="1"/>

  <!-- y-axis labels -->
  <text x="47" y="236.0" text-anchor="end" font-size="10" fill="#57606a" font-family="ui-monospace, SFMono-Regular, 'SF Mono', Menlo, monospace">0</text><text x="47" y="195.2" text-anchor="end" font-size="10" fill="#57606a" font-family="ui-monospace, SFMono-Regular, 'SF Mono', Menlo, monospace">8</text><text x="47" y="154.4" text-anchor="end" font-size="10" fill="#57606a" font-family="ui-monospace, SFMono-Regular, 'SF Mono', Menlo, monospace">16</text><text x="47" y="113.6" text-anchor="end" font-size="10" fill="#57606a" font-family="ui-monospace, SFMono-Regular, 'SF Mono', Menlo, monospace">24</text><text x="47" y="72.8" text-anchor="end" font-size="10" fill="#57606a" font-family="ui-monospace, SFMono-Regular, 'SF Mono', Menlo, monospace">32</text><text x="47" y="32.0" text-anchor="end" font-size="10" fill="#57606a" font-family="ui-monospace, SFMono-Regular, 'SF Mono', Menlo, monospace">40</text>

  <!-- x-axis labels -->
  <text x="52.0" y="248" text-anchor="middle" font-size="10" fill="#8c959f" font-family="ui-monospace, SFMono-Regular, 'SF Mono', Menlo, monospace">05-12</text><text x="735.9" y="248" text-anchor="middle" font-size="10" fill="#8c959f" font-family="ui-monospace, SFMono-Regular, 'SF Mono', Menlo, monospace">06-13</text><text x="800.0" y="248" text-anchor="middle" font-size="10" fill="#8c959f" font-family="ui-monospace, SFMono-Regular, 'SF Mono', Menlo, monospace">06-16</text><text x="137.5" y="248" text-anchor="middle" font-size="10" fill="#8c959f" font-family="ui-monospace, SFMono-Regular, 'SF Mono', Menlo, monospace">05-16</text><text x="223.0" y="248" text-anchor="middle" font-size="10" fill="#8c959f" font-family="ui-monospace, SFMono-Regular, 'SF Mono', Menlo, monospace">05-20</text><text x="308.5" y="248" text-anchor="middle" font-size="10" fill="#8c959f" font-family="ui-monospace, SFMono-Regular, 'SF Mono', Menlo, monospace">05-24</text><text x="393.9" y="248" text-anchor="middle" font-size="10" fill="#8c959f" font-family="ui-monospace, SFMono-Regular, 'SF Mono', Menlo, monospace">05-28</text><text x="479.4" y="248" text-anchor="middle" font-size="10" fill="#8c959f" font-family="ui-monospace, SFMono-Regular, 'SF Mono', Menlo, monospace">06-01</text><text x="564.9" y="248" text-anchor="middle" font-size="10" fill="#8c959f" font-family="ui-monospace, SFMono-Regular, 'SF Mono', Menlo, monospace">06-05</text><text x="650.4" y="248" text-anchor="middle" font-size="10" fill="#8c959f" font-family="ui-monospace, SFMono-Regular, 'SF Mono', Menlo, monospace">06-09</text>

  <!-- legend -->
  <rect x="60" y="262" width="16" height="3" fill="#4e79a7" rx="1"/><text x="80" y="268" font-size="11" fill="#57606a" font-family="-apple-system, BlinkMacSystemFont, 'Segoe UI', sans-serif">Total clones (372)</text><line x1="230" y1="264" x2="246" y2="264" stroke="#f28e2b" stroke-width="2" stroke-dasharray="5,3"/><text x="250" y="268" font-size="11" fill="#57606a" font-family="-apple-system, BlinkMacSystemFont, 'Segoe UI', sans-serif">Unique cloners</text>

</svg>