<svg xmlns="http://www.w3.org/2000/svg" viewBox="0 0 820 280" width="820" height="280">

  <!-- title -->
  <text x="52" y="18" font-size="13" font-weight="600"
        fill="#24292f" font-family="-apple-system, BlinkMacSystemFont, 'Segoe UI', sans-serif"
        >Clone traffic — stats</text>
  <text x="800" y="18" font-size="10" fill="#8c959f"
        font-family="ui-monospace, SFMono-Regular, 'SF Mono', Menlo, monospace" text-anchor="end">2026-07-24</text>

  <!-- grid -->
  <line x1="52" y1="232.0" x2="800" y2="232.0" stroke="#e8e8e8" stroke-width="1"/><line x1="52" y1="191.2" x2="800" y2="191.2" stroke="#e8e8e8" stroke-width="1"/><line x1="52" y1="150.4" x2="800" y2="150.4" stroke="#e8e8e8" stroke-width="1"/><line x1="52" y1="109.6" x2="800" y2="109.6" stroke="#e8e8e8" stroke-width="1"/><line x1="52" y1="68.8" x2="800" y2="68.8" stroke="#e8e8e8" stroke-width="1"/><line x1="52" y1="28.0" x2="800" y2="28.0" stroke="#e8e8e8" stroke-width="1"/>

  <!-- area fill -->
  <path d="M52.0,232.0 L52.0,232.0 L62.4,232.0 L72.8,232.0 L83.2,232.0 L93.6,232.0 L103.9,232.0 L114.3,232.0 L124.7,232.0 L135.1,232.0 L145.5,232.0 L155.9,232.0 L166.3,232.0 L176.7,232.0 L187.1,200.3 L197.4,50.7 L207.8,168.5 L218.2,182.1 L228.6,168.5 L239.0,145.9 L249.4,145.9 L259.8,164.0 L270.2,177.6 L280.6,168.5 L290.9,164.0 L301.3,150.4 L311.7,173.1 L322.1,168.5 L332.5,177.6 L342.9,204.8 L353.3,159.5 L363.7,168.5 L374.1,182.1 L384.4,173.1 L394.8,118.7 L405.2,105.1 L415.6,132.3 L426.0,154.9 L436.4,136.8 L446.8,28.0 L457.2,173.1 L467.6,173.1 L477.9,177.6 L488.3,186.7 L498.7,182.1 L509.1,186.7 L519.5,191.2 L529.9,164.0 L540.3,168.5 L550.7,177.6 L561.1,164.0 L571.4,177.6 L581.8,154.9 L592.2,222.9 L602.6,182.1 L613.0,173.1 L623.4,177.6 L633.8,209.3 L644.2,222.9 L654.6,186.7 L664.9,204.8 L675.3,168.5 L685.7,168.5 L696.1,209.3 L706.5,177.6 L716.9,191.2 L727.3,209.3 L737.7,191.2 L748.1,209.3 L758.4,222.9 L768.8,222.9 L779.2,209.3 L789.6,218.4 L800.0,222.9 L800.0,232.0 L52.0,232.0Z" fill="#4e79a7" opacity="0.12"/>

  <!-- lines -->
  <polyline points="52.0,232.0 62.4,232.0 72.8,232.0 83.2,232.0 93.6,232.0 103.9,232.0 114.3,232.0 124.7,232.0 135.1,232.0 145.5,232.0 155.9,232.0 166.3,232.0 176.7,232.0 187.1,200.3 197.4,50.7 207.8,168.5 218.2,182.1 228.6,168.5 239.0,145.9 249.4,145.9 259.8,164.0 270.2,177.6 280.6,168.5 290.9,164.0 301.3,150.4 311.7,173.1 322.1,168.5 332.5,177.6 342.9,204.8 353.3,159.5 363.7,168.5 374.1,182.1 384.4,173.1 394.8,118.7 405.2,105.1 415.6,132.3 426.0,154.9 436.4,136.8 446.8,28.0 457.2,173.1 467.6,173.1 477.9,177.6 488.3,186.7 498.7,182.1 509.1,186.7 519.5,191.2 529.9,164.0 540.3,168.5 550.7,177.6 561.1,164.0 571.4,177.6 581.8,154.9 592.2,222.9 602.6,182.1 613.0,173.1 623.4,177.6 633.8,209.3 644.2,222.9 654.6,186.7 664.9,204.8 675.3,168.5 685.7,168.5 696.1,209.3 706.5,177.6 716.9,191.2 727.3,209.3 737.7,191.2 748.1,209.3 758.4,222.9 768.8,222.9 779.2,209.3 789.6,218.4 800.0,222.9"
            fill="none" stroke="#4e79a7"
            stroke-width="2" stroke-linejoin="round"/>
  <polyline points="52.0,232.0 62.4,232.0 72.8,232.0 83.2,232.0 93.6,232.0 103.9,232.0 114.3,232.0 124.7,232.0 135.1,232.0 145.5,232.0 155.9,232.0 166.3,232.0 176.7,232.0 187.1,200.3 197.4,123.2 207.8,182.1 218.2,195.7 228.6,182.1 239.0,159.5 249.4,168.5 259.8,182.1 270.2,195.7 280.6,182.1 290.9,177.6 301.3,164.0 311.7,186.7 322.1,182.1 332.5,191.2 342.9,204.8 353.3,191.2 363.7,182.1 374.1,195.7 384.4,200.3 394.8,173.1 405.2,159.5 415.6,177.6 426.0,182.1 436.4,177.6 446.8,177.6 457.2,186.7 467.6,186.7 477.9,191.2 488.3,200.3 498.7,195.7 509.1,200.3 519.5,191.2 529.9,177.6 540.3,182.1 550.7,191.2 561.1,177.6 571.4,191.2 581.8,173.1 592.2,222.9 602.6,195.7 613.0,200.3 623.4,191.2 633.8,209.3 644.2,222.9 654.6,200.3 664.9,209.3 675.3,182.1 685.7,186.7 696.1,209.3 706.5,191.2 716.9,209.3 727.3,209.3 737.7,204.8 748.1,209.3 758.4,222.9 768.8,222.9 779.2,209.3 789.6,218.4 800.0,222.9"
            fill="none" stroke="#f28e2b"
            stroke-width="2" stroke-linejoin="round"
            stroke-dasharray="5,3"/>

  <!-- dots -->
  <circle cx="52.0" cy="232.0" r="3" fill="#4e79a7"/><circle cx="62.4" cy="232.0" r="3" fill="#4e79a7"/><circle cx="72.8" cy="232.0" r="3" fill="#4e79a7"/><circle cx="83.2" cy="232.0" r="3" fill="#4e79a7"/><circle cx="93.6" cy="232.0" r="3" fill="#4e79a7"/><circle cx="103.9" cy="232.0" r="3" fill="#4e79a7"/><circle cx="114.3" cy="232.0" r="3" fill="#4e79a7"/><circle cx="124.7" cy="232.0" r="3" fill="#4e79a7"/><circle cx="135.1" cy="232.0" r="3" fill="#4e79a7"/><circle cx="145.5" cy="232.0" r="3" fill="#4e79a7"/><circle cx="155.9" cy="232.0" r="3" fill="#4e79a7"/><circle cx="166.3" cy="232.0" r="3" fill="#4e79a7"/><circle cx="176.7" cy="232.0" r="3" fill="#4e79a7"/><circle cx="187.1" cy="200.3" r="3" fill="#4e79a7"/><circle cx="197.4" cy="50.7" r="3" fill="#4e79a7"/><circle cx="207.8" cy="168.5" r="3" fill="#4e79a7"/><circle cx="218.2" cy="182.1" r="3" fill="#4e79a7"/><circle cx="228.6" cy="168.5" r="3" fill="#4e79a7"/><circle cx="239.0" cy="145.9" r="3" fill="#4e79a7"/><circle cx="249.4" cy="145.9" r="3" fill="#4e79a7"/><circle cx="259.8" cy="164.0" r="3" fill="#4e79a7"/><circle cx="270.2" cy="177.6" r="3" fill="#4e79a7"/><circle cx="280.6" cy="168.5" r="3" fill="#4e79a7"/><circle cx="290.9" cy="164.0" r="3" fill="#4e79a7"/><circle cx="301.3" cy="150.4" r="3" fill="#4e79a7"/><circle cx="311.7" cy="173.1" r="3" fill="#4e79a7"/><circle cx="322.1" cy="168.5" r="3" fill="#4e79a7"/><circle cx="332.5" cy="177.6" r="3" fill="#4e79a7"/><circle cx="342.9" cy="204.8" r="3" fill="#4e79a7"/><circle cx="353.3" cy="159.5" r="3" fill="#4e79a7"/><circle cx="363.7" cy="168.5" r="3" fill="#4e79a7"/><circle cx="374.1" cy="182.1" r="3" fill="#4e79a7"/><circle cx="384.4" cy="173.1" r="3" fill="#4e79a7"/><circle cx="394.8" cy="118.7" r="3" fill="#4e79a7"/><circle cx="405.2" cy="105.1" r="3" fill="#4e79a7"/><circle cx="415.6" cy="132.3" r="3" fill="#4e79a7"/><circle cx="426.0" cy="154.9" r="3" fill="#4e79a7"/><circle cx="436.4" cy="136.8" r="3" fill="#4e79a7"/><circle cx="446.8" cy="28.0" r="3" fill="#4e79a7"/><circle cx="457.2" cy="173.1" r="3" fill="#4e79a7"/><circle cx="467.6" cy="173.1" r="3" fill="#4e79a7"/><circle cx="477.9" cy="177.6" r="3" fill="#4e79a7"/><circle cx="488.3" cy="186.7" r="3" fill="#4e79a7"/><circle cx="498.7" cy="182.1" r="3" fill="#4e79a7"/><circle cx="509.1" cy="186.7" r="3" fill="#4e79a7"/><circle cx="519.5" cy="191.2" r="3" fill="#4e79a7"/><circle cx="529.9" cy="164.0" r="3" fill="#4e79a7"/><circle cx="540.3" cy="168.5" r="3" fill="#4e79a7"/><circle cx="550.7" cy="177.6" r="3" fill="#4e79a7"/><circle cx="561.1" cy="164.0" r="3" fill="#4e79a7"/><circle cx="571.4" cy="177.6" r="3" fill="#4e79a7"/><circle cx="581.8" cy="154.9" r="3" fill="#4e79a7"/><circle cx="592.2" cy="222.9" r="3" fill="#4e79a7"/><circle cx="602.6" cy="182.1" r="3" fill="#4e79a7"/><circle cx="613.0" cy="173.1" r="3" fill="#4e79a7"/><circle cx="623.4" cy="177.6" r="3" fill="#4e79a7"/><circle cx="633.8" cy="209.3" r="3" fill="#4e79a7"/><circle cx="644.2" cy="222.9" r="3" fill="#4e79a7"/><circle cx="654.6" cy="186.7" r="3" fill="#4e79a7"/><circle cx="664.9" cy="204.8" r="3" fill="#4e79a7"/><circle cx="675.3" cy="168.5" r="3" fill="#4e79a7"/><circle cx="685.7" cy="168.5" r="3" fill="#4e79a7"/><circle cx="696.1" cy="209.3" r="3" fill="#4e79a7"/><circle cx="706.5" cy="177.6" r="3" fill="#4e79a7"/><circle cx="716.9" cy="191.2" r="3" fill="#4e79a7"/><circle cx="727.3" cy="209.3" r="3" fill="#4e79a7"/><circle cx="737.7" cy="191.2" r="3" fill="#4e79a7"/><circle cx="748.1" cy="209.3" r="3" fill="#4e79a7"/><circle cx="758.4" cy="222.9" r="3" fill="#4e79a7"/><circle cx="768.8" cy="222.9" r="3" fill="#4e79a7"/><circle cx="779.2" cy="209.3" r="3" fill="#4e79a7"/><circle cx="789.6" cy="218.4" r="3" fill="#4e79a7"/><circle cx="800.0" cy="222.9" r="3" fill="#4e79a7"/>
  <circle cx="52.0" cy="232.0" r="3" fill="#f28e2b"/><circle cx="62.4" cy="232.0" r="3" fill="#f28e2b"/><circle cx="72.8" cy="232.0" r="3" fill="#f28e2b"/><circle cx="83.2" cy="232.0" r="3" fill="#f28e2b"/><circle cx="93.6" cy="232.0" r="3" fill="#f28e2b"/><circle cx="103.9" cy="232.0" r="3" fill="#f28e2b"/><circle cx="114.3" cy="232.0" r="3" fill="#f28e2b"/><circle cx="124.7" cy="232.0" r="3" fill="#f28e2b"/><circle cx="135.1" cy="232.0" r="3" fill="#f28e2b"/><circle cx="145.5" cy="232.0" r="3" fill="#f28e2b"/><circle cx="155.9" cy="232.0" r="3" fill="#f28e2b"/><circle cx="166.3" cy="232.0" r="3" fill="#f28e2b"/><circle cx="176.7" cy="232.0" r="3" fill="#f28e2b"/><circle cx="187.1" cy="200.3" r="3" fill="#f28e2b"/><circle cx="197.4" cy="123.2" r="3" fill="#f28e2b"/><circle cx="207.8" cy="182.1" r="3" fill="#f28e2b"/><circle cx="218.2" cy="195.7" r="3" fill="#f28e2b"/><circle cx="228.6" cy="182.1" r="3" fill="#f28e2b"/><circle cx="239.0" cy="159.5" r="3" fill="#f28e2b"/><circle cx="249.4" cy="168.5" r="3" fill="#f28e2b"/><circle cx="259.8" cy="182.1" r="3" fill="#f28e2b"/><circle cx="270.2" cy="195.7" r="3" fill="#f28e2b"/><circle cx="280.6" cy="182.1" r="3" fill="#f28e2b"/><circle cx="290.9" cy="177.6" r="3" fill="#f28e2b"/><circle cx="301.3" cy="164.0" r="3" fill="#f28e2b"/><circle cx="311.7" cy="186.7" r="3" fill="#f28e2b"/><circle cx="322.1" cy="182.1" r="3" fill="#f28e2b"/><circle cx="332.5" cy="191.2" r="3" fill="#f28e2b"/><circle cx="342.9" cy="204.8" r="3" fill="#f28e2b"/><circle cx="353.3" cy="191.2" r="3" fill="#f28e2b"/><circle cx="363.7" cy="182.1" r="3" fill="#f28e2b"/><circle cx="374.1" cy="195.7" r="3" fill="#f28e2b"/><circle cx="384.4" cy="200.3" r="3" fill="#f28e2b"/><circle cx="394.8" cy="173.1" r="3" fill="#f28e2b"/><circle cx="405.2" cy="159.5" r="3" fill="#f28e2b"/><circle cx="415.6" cy="177.6" r="3" fill="#f28e2b"/><circle cx="426.0" cy="182.1" r="3" fill="#f28e2b"/><circle cx="436.4" cy="177.6" r="3" fill="#f28e2b"/><circle cx="446.8" cy="177.6" r="3" fill="#f28e2b"/><circle cx="457.2" cy="186.7" r="3" fill="#f28e2b"/><circle cx="467.6" cy="186.7" r="3" fill="#f28e2b"/><circle cx="477.9" cy="191.2" r="3" fill="#f28e2b"/><circle cx="488.3" cy="200.3" r="3" fill="#f28e2b"/><circle cx="498.7" cy="195.7" r="3" fill="#f28e2b"/><circle cx="509.1" cy="200.3" r="3" fill="#f28e2b"/><circle cx="519.5" cy="191.2" r="3" fill="#f28e2b"/><circle cx="529.9" cy="177.6" r="3" fill="#f28e2b"/><circle cx="540.3" cy="182.1" r="3" fill="#f28e2b"/><circle cx="550.7" cy="191.2" r="3" fill="#f28e2b"/><circle cx="561.1" cy="177.6" r="3" fill="#f28e2b"/><circle cx="571.4" cy="191.2" r="3" fill="#f28e2b"/><circle cx="581.8" cy="173.1" r="3" fill="#f28e2b"/><circle cx="592.2" cy="222.9" r="3" fill="#f28e2b"/><circle cx="602.6" cy="195.7" r="3" fill="#f28e2b"/><circle cx="613.0" cy="200.3" r="3" fill="#f28e2b"/><circle cx="623.4" cy="191.2" r="3" fill="#f28e2b"/><circle cx="633.8" cy="209.3" r="3" fill="#f28e2b"/><circle cx="644.2" cy="222.9" r="3" fill="#f28e2b"/><circle cx="654.6" cy="200.3" r="3" fill="#f28e2b"/><circle cx="664.9" cy="209.3" r="3" fill="#f28e2b"/><circle cx="675.3" cy="182.1" r="3" fill="#f28e2b"/><circle cx="685.7" cy="186.7" r="3" fill="#f28e2b"/><circle cx="696.1" cy="209.3" r="3" fill="#f28e2b"/><circle cx="706.5" cy="191.2" r="3" fill="#f28e2b"/><circle cx="716.9" cy="209.3" r="3" fill="#f28e2b"/><circle cx="727.3" cy="209.3" r="3" fill="#f28e2b"/><circle cx="737.7" cy="204.8" r="3" fill="#f28e2b"/><circle cx="748.1" cy="209.3" r="3" fill="#f28e2b"/><circle cx="758.4" cy="222.9" r="3" fill="#f28e2b"/><circle cx="768.8" cy="222.9" r="3" fill="#f28e2b"/><circle cx="779.2" cy="209.3" r="3" fill="#f28e2b"/><circle cx="789.6" cy="218.4" r="3" fill="#f28e2b"/><circle cx="800.0" cy="222.9" r="3" fill="#f28e2b"/>

  <!-- axes -->
  <line x1="52" y1="28" x2="52" y2="232"
        stroke="#cccccc" stroke-width="1"/>
  <line x1="52" y1="232" x2="800" y2="232"
        stroke="#cccccc" stroke-width="1"/>

  <!-- y-axis labels -->
  <text x="47" y="236.0" text-anchor="end" font-size="10" fill="#57606a" font-family="ui-monospace, SFMono-Regular, 'SF Mono', Menlo, monospace">0</text><text x="47" y="195.2" text-anchor="end" font-size="10" fill="#57606a" font-family="ui-monospace, SFMono-Regular, 'SF Mono', Menlo, monospace">9</text><text x="47" y="154.4" text-anchor="end" font-size="10" fill="#57606a" font-family="ui-monospace, SFMono-Regular, 'SF Mono', Menlo, monospace">18</text><text x="47" y="113.6" text-anchor="end" font-size="10" fill="#57606a" font-family="ui-monospace, SFMono-Regular, 'SF Mono', Menlo, monospace">27</text><text x="47" y="72.8" text-anchor="end" font-size="10" fill="#57606a" font-family="ui-monospace, SFMono-Regular, 'SF Mono', Menlo, monospace">36</text><text x="47" y="32.0" text-anchor="end" font-size="10" fill="#57606a" font-family="ui-monospace, SFMono-Regular, 'SF Mono', Menlo, monospace">45</text>

  <!-- x-axis labels -->
  <text x="52.0" y="248" text-anchor="middle" font-size="10" fill="#8c959f" font-family="ui-monospace, SFMono-Regular, 'SF Mono', Menlo, monospace">05-12</text><text x="426.0" y="248" text-anchor="middle" font-size="10" fill="#8c959f" font-family="ui-monospace, SFMono-Regular, 'SF Mono', Menlo, monospace">06-17</text><text x="800.0" y="248" text-anchor="middle" font-size="10" fill="#8c959f" font-family="ui-monospace, SFMono-Regular, 'SF Mono', Menlo, monospace">07-23</text><text x="145.5" y="248" text-anchor="middle" font-size="10" fill="#8c959f" font-family="ui-monospace, SFMono-Regular, 'SF Mono', Menlo, monospace">05-21</text><text x="519.5" y="248" text-anchor="middle" font-size="10" fill="#8c959f" font-family="ui-monospace, SFMono-Regular, 'SF Mono', Menlo, monospace">06-26</text><text x="239.0" y="248" text-anchor="middle" font-size="10" fill="#8c959f" font-family="ui-monospace, SFMono-Regular, 'SF Mono', Menlo, monospace">05-30</text><text x="613.0" y="248" text-anchor="middle" font-size="10" fill="#8c959f" font-family="ui-monospace, SFMono-Regular, 'SF Mono', Menlo, monospace">07-05</text><text x="332.5" y="248" text-anchor="middle" font-size="10" fill="#8c959f" font-family="ui-monospace, SFMono-Regular, 'SF Mono', Menlo, monospace">06-08</text><text x="706.5" y="248" text-anchor="middle" font-size="10" fill="#8c959f" font-family="ui-monospace, SFMono-Regular, 'SF Mono', Menlo, monospace">07-14</text>

  <!-- legend -->
  <rect x="60" y="262" width="16" height="3" fill="#4e79a7" rx="1"/><text x="80" y="268" font-size="11" fill="#57606a" font-family="-apple-system, BlinkMacSystemFont, 'Segoe UI', sans-serif">Total clones (766)</text><line x1="230" y1="264" x2="246" y2="264" stroke="#f28e2b" stroke-width="2" stroke-dasharray="5,3"/><text x="250" y="268" font-size="11" fill="#57606a" font-family="-apple-system, BlinkMacSystemFont, 'Segoe UI', sans-serif">Unique cloners</text>

</svg>