<svg xmlns="http://www.w3.org/2000/svg" viewBox="0 0 820 280" width="820" height="280">

  <!-- title -->
  <text x="52" y="18" font-size="13" font-weight="600"
        fill="#24292f" font-family="-apple-system, BlinkMacSystemFont, 'Segoe UI', sans-serif"
        >Clone traffic — stats</text>
  <text x="800" y="18" font-size="10" fill="#8c959f"
        font-family="ui-monospace, SFMono-Regular, 'SF Mono', Menlo, monospace" text-anchor="end">2026-07-23</text>

  <!-- grid -->
  <line x1="52" y1="232.0" x2="800" y2="232.0" stroke="#e8e8e8" stroke-width="1"/><line x1="52" y1="191.2" x2="800" y2="191.2" stroke="#e8e8e8" stroke-width="1"/><line x1="52" y1="150.4" x2="800" y2="150.4" stroke="#e8e8e8" stroke-width="1"/><line x1="52" y1="109.6" x2="800" y2="109.6" stroke="#e8e8e8" stroke-width="1"/><line x1="52" y1="68.8" x2="800" y2="68.8" stroke="#e8e8e8" stroke-width="1"/><line x1="52" y1="28.0" x2="800" y2="28.0" stroke="#e8e8e8" stroke-width="1"/>

  <!-- area fill -->
  <path d="M52.0,232.0 L52.0,232.0 L62.7,232.0 L73.4,232.0 L84.1,232.0 L94.7,232.0 L105.4,232.0 L116.1,232.0 L126.8,232.0 L137.5,232.0 L148.2,232.0 L158.9,232.0 L169.5,232.0 L180.2,232.0 L190.9,200.3 L201.6,50.7 L212.3,168.5 L223.0,182.1 L233.7,168.5 L244.3,145.9 L255.0,145.9 L265.7,164.0 L276.4,177.6 L287.1,168.5 L297.8,164.0 L308.5,150.4 L319.1,173.1 L329.8,168.5 L340.5,177.6 L351.2,204.8 L361.9,159.5 L372.6,168.5 L383.3,182.1 L393.9,173.1 L404.6,118.7 L415.3,105.1 L426.0,132.3 L436.7,154.9 L447.4,136.8 L458.1,28.0 L468.7,173.1 L479.4,173.1 L490.1,177.6 L500.8,186.7 L511.5,182.1 L522.2,186.7 L532.9,191.2 L543.5,164.0 L554.2,168.5 L564.9,177.6 L575.6,164.0 L586.3,177.6 L597.0,154.9 L607.7,222.9 L618.3,182.1 L629.0,173.1 L639.7,177.6 L650.4,209.3 L661.1,222.9 L671.8,186.7 L682.5,204.8 L693.1,168.5 L703.8,168.5 L714.5,209.3 L725.2,177.6 L735.9,191.2 L746.6,209.3 L757.3,191.2 L767.9,209.3 L778.6,222.9 L789.3,222.9 L800.0,209.3 L800.0,232.0 L52.0,232.0Z" fill="#4e79a7" opacity="0.12"/>

  <!-- lines -->
  <polyline points="52.0,232.0 62.7,232.0 73.4,232.0 84.1,232.0 94.7,232.0 105.4,232.0 116.1,232.0 126.8,232.0 137.5,232.0 148.2,232.0 158.9,232.0 169.5,232.0 180.2,232.0 190.9,200.3 201.6,50.7 212.3,168.5 223.0,182.1 233.7,168.5 244.3,145.9 255.0,145.9 265.7,164.0 276.4,177.6 287.1,168.5 297.8,164.0 308.5,150.4 319.1,173.1 329.8,168.5 340.5,177.6 351.2,204.8 361.9,159.5 372.6,168.5 383.3,182.1 393.9,173.1 404.6,118.7 415.3,105.1 426.0,132.3 436.7,154.9 447.4,136.8 458.1,28.0 468.7,173.1 479.4,173.1 490.1,177.6 500.8,186.7 511.5,182.1 522.2,186.7 532.9,191.2 543.5,164.0 554.2,168.5 564.9,177.6 575.6,164.0 586.3,177.6 597.0,154.9 607.7,222.9 618.3,182.1 629.0,173.1 639.7,177.6 650.4,209.3 661.1,222.9 671.8,186.7 682.5,204.8 693.1,168.5 703.8,168.5 714.5,209.3 725.2,177.6 735.9,191.2 746.6,209.3 757.3,191.2 767.9,209.3 778.6,222.9 789.3,222.9 800.0,209.3"
            fill="none" stroke="#4e79a7"
            stroke-width="2" stroke-linejoin="round"/>
  <polyline points="52.0,232.0 62.7,232.0 73.4,232.0 84.1,232.0 94.7,232.0 105.4,232.0 116.1,232.0 126.8,232.0 137.5,232.0 148.2,232.0 158.9,232.0 169.5,232.0 180.2,232.0 190.9,200.3 201.6,123.2 212.3,182.1 223.0,195.7 233.7,182.1 244.3,159.5 255.0,168.5 265.7,182.1 276.4,195.7 287.1,182.1 297.8,177.6 308.5,164.0 319.1,186.7 329.8,182.1 340.5,191.2 351.2,204.8 361.9,191.2 372.6,182.1 383.3,195.7 393.9,200.3 404.6,173.1 415.3,159.5 426.0,177.6 436.7,182.1 447.4,177.6 458.1,177.6 468.7,186.7 479.4,186.7 490.1,191.2 500.8,200.3 511.5,195.7 522.2,200.3 532.9,191.2 543.5,177.6 554.2,182.1 564.9,191.2 575.6,177.6 586.3,191.2 597.0,173.1 607.7,222.9 618.3,195.7 629.0,200.3 639.7,191.2 650.4,209.3 661.1,222.9 671.8,200.3 682.5,209.3 693.1,182.1 703.8,186.7 714.5,209.3 725.2,191.2 735.9,209.3 746.6,209.3 757.3,204.8 767.9,209.3 778.6,222.9 789.3,222.9 800.0,209.3"
            fill="none" stroke="#f28e2b"
            stroke-width="2" stroke-linejoin="round"
            stroke-dasharray="5,3"/>

  <!-- dots -->
  <circle cx="52.0" cy="232.0" r="3" fill="#4e79a7"/><circle cx="62.7" cy="232.0" r="3" fill="#4e79a7"/><circle cx="73.4" cy="232.0" r="3" fill="#4e79a7"/><circle cx="84.1" cy="232.0" r="3" fill="#4e79a7"/><circle cx="94.7" cy="232.0" r="3" fill="#4e79a7"/><circle cx="105.4" cy="232.0" r="3" fill="#4e79a7"/><circle cx="116.1" cy="232.0" r="3" fill="#4e79a7"/><circle cx="126.8" cy="232.0" r="3" fill="#4e79a7"/><circle cx="137.5" cy="232.0" r="3" fill="#4e79a7"/><circle cx="148.2" cy="232.0" r="3" fill="#4e79a7"/><circle cx="158.9" cy="232.0" r="3" fill="#4e79a7"/><circle cx="169.5" cy="232.0" r="3" fill="#4e79a7"/><circle cx="180.2" cy="232.0" r="3" fill="#4e79a7"/><circle cx="190.9" cy="200.3" r="3" fill="#4e79a7"/><circle cx="201.6" cy="50.7" r="3" fill="#4e79a7"/><circle cx="212.3" cy="168.5" r="3" fill="#4e79a7"/><circle cx="223.0" cy="182.1" r="3" fill="#4e79a7"/><circle cx="233.7" cy="168.5" r="3" fill="#4e79a7"/><circle cx="244.3" cy="145.9" r="3" fill="#4e79a7"/><circle cx="255.0" cy="145.9" r="3" fill="#4e79a7"/><circle cx="265.7" cy="164.0" r="3" fill="#4e79a7"/><circle cx="276.4" cy="177.6" r="3" fill="#4e79a7"/><circle cx="287.1" cy="168.5" r="3" fill="#4e79a7"/><circle cx="297.8" cy="164.0" r="3" fill="#4e79a7"/><circle cx="308.5" cy="150.4" r="3" fill="#4e79a7"/><circle cx="319.1" cy="173.1" r="3" fill="#4e79a7"/><circle cx="329.8" cy="168.5" r="3" fill="#4e79a7"/><circle cx="340.5" cy="177.6" r="3" fill="#4e79a7"/><circle cx="351.2" cy="204.8" r="3" fill="#4e79a7"/><circle cx="361.9" cy="159.5" r="3" fill="#4e79a7"/><circle cx="372.6" cy="168.5" r="3" fill="#4e79a7"/><circle cx="383.3" cy="182.1" r="3" fill="#4e79a7"/><circle cx="393.9" cy="173.1" r="3" fill="#4e79a7"/><circle cx="404.6" cy="118.7" r="3" fill="#4e79a7"/><circle cx="415.3" cy="105.1" r="3" fill="#4e79a7"/><circle cx="426.0" cy="132.3" r="3" fill="#4e79a7"/><circle cx="436.7" cy="154.9" r="3" fill="#4e79a7"/><circle cx="447.4" cy="136.8" r="3" fill="#4e79a7"/><circle cx="458.1" cy="28.0" r="3" fill="#4e79a7"/><circle cx="468.7" cy="173.1" r="3" fill="#4e79a7"/><circle cx="479.4" cy="173.1" r="3" fill="#4e79a7"/><circle cx="490.1" cy="177.6" r="3" fill="#4e79a7"/><circle cx="500.8" cy="186.7" r="3" fill="#4e79a7"/><circle cx="511.5" cy="182.1" r="3" fill="#4e79a7"/><circle cx="522.2" cy="186.7" r="3" fill="#4e79a7"/><circle cx="532.9" cy="191.2" r="3" fill="#4e79a7"/><circle cx="543.5" cy="164.0" r="3" fill="#4e79a7"/><circle cx="554.2" cy="168.5" r="3" fill="#4e79a7"/><circle cx="564.9" cy="177.6" r="3" fill="#4e79a7"/><circle cx="575.6" cy="164.0" r="3" fill="#4e79a7"/><circle cx="586.3" cy="177.6" r="3" fill="#4e79a7"/><circle cx="597.0" cy="154.9" r="3" fill="#4e79a7"/><circle cx="607.7" cy="222.9" r="3" fill="#4e79a7"/><circle cx="618.3" cy="182.1" r="3" fill="#4e79a7"/><circle cx="629.0" cy="173.1" r="3" fill="#4e79a7"/><circle cx="639.7" cy="177.6" r="3" fill="#4e79a7"/><circle cx="650.4" cy="209.3" r="3" fill="#4e79a7"/><circle cx="661.1" cy="222.9" r="3" fill="#4e79a7"/><circle cx="671.8" cy="186.7" r="3" fill="#4e79a7"/><circle cx="682.5" cy="204.8" r="3" fill="#4e79a7"/><circle cx="693.1" cy="168.5" r="3" fill="#4e79a7"/><circle cx="703.8" cy="168.5" r="3" fill="#4e79a7"/><circle cx="714.5" cy="209.3" r="3" fill="#4e79a7"/><circle cx="725.2" cy="177.6" r="3" fill="#4e79a7"/><circle cx="735.9" cy="191.2" r="3" fill="#4e79a7"/><circle cx="746.6" cy="209.3" r="3" fill="#4e79a7"/><circle cx="757.3" cy="191.2" r="3" fill="#4e79a7"/><circle cx="767.9" cy="209.3" r="3" fill="#4e79a7"/><circle cx="778.6" cy="222.9" r="3" fill="#4e79a7"/><circle cx="789.3" cy="222.9" r="3" fill="#4e79a7"/><circle cx="800.0" cy="209.3" r="3" fill="#4e79a7"/>
  <circle cx="52.0" cy="232.0" r="3" fill="#f28e2b"/><circle cx="62.7" cy="232.0" r="3" fill="#f28e2b"/><circle cx="73.4" cy="232.0" r="3" fill="#f28e2b"/><circle cx="84.1" cy="232.0" r="3" fill="#f28e2b"/><circle cx="94.7" cy="232.0" r="3" fill="#f28e2b"/><circle cx="105.4" cy="232.0" r="3" fill="#f28e2b"/><circle cx="116.1" cy="232.0" r="3" fill="#f28e2b"/><circle cx="126.8" cy="232.0" r="3" fill="#f28e2b"/><circle cx="137.5" cy="232.0" r="3" fill="#f28e2b"/><circle cx="148.2" cy="232.0" r="3" fill="#f28e2b"/><circle cx="158.9" cy="232.0" r="3" fill="#f28e2b"/><circle cx="169.5" cy="232.0" r="3" fill="#f28e2b"/><circle cx="180.2" cy="232.0" r="3" fill="#f28e2b"/><circle cx="190.9" cy="200.3" r="3" fill="#f28e2b"/><circle cx="201.6" cy="123.2" r="3" fill="#f28e2b"/><circle cx="212.3" cy="182.1" r="3" fill="#f28e2b"/><circle cx="223.0" cy="195.7" r="3" fill="#f28e2b"/><circle cx="233.7" cy="182.1" r="3" fill="#f28e2b"/><circle cx="244.3" cy="159.5" r="3" fill="#f28e2b"/><circle cx="255.0" cy="168.5" r="3" fill="#f28e2b"/><circle cx="265.7" cy="182.1" r="3" fill="#f28e2b"/><circle cx="276.4" cy="195.7" r="3" fill="#f28e2b"/><circle cx="287.1" cy="182.1" r="3" fill="#f28e2b"/><circle cx="297.8" cy="177.6" r="3" fill="#f28e2b"/><circle cx="308.5" cy="164.0" r="3" fill="#f28e2b"/><circle cx="319.1" cy="186.7" r="3" fill="#f28e2b"/><circle cx="329.8" cy="182.1" r="3" fill="#f28e2b"/><circle cx="340.5" cy="191.2" r="3" fill="#f28e2b"/><circle cx="351.2" cy="204.8" r="3" fill="#f28e2b"/><circle cx="361.9" cy="191.2" r="3" fill="#f28e2b"/><circle cx="372.6" cy="182.1" r="3" fill="#f28e2b"/><circle cx="383.3" cy="195.7" r="3" fill="#f28e2b"/><circle cx="393.9" cy="200.3" r="3" fill="#f28e2b"/><circle cx="404.6" cy="173.1" r="3" fill="#f28e2b"/><circle cx="415.3" cy="159.5" r="3" fill="#f28e2b"/><circle cx="426.0" cy="177.6" r="3" fill="#f28e2b"/><circle cx="436.7" cy="182.1" r="3" fill="#f28e2b"/><circle cx="447.4" cy="177.6" r="3" fill="#f28e2b"/><circle cx="458.1" cy="177.6" r="3" fill="#f28e2b"/><circle cx="468.7" cy="186.7" r="3" fill="#f28e2b"/><circle cx="479.4" cy="186.7" r="3" fill="#f28e2b"/><circle cx="490.1" cy="191.2" r="3" fill="#f28e2b"/><circle cx="500.8" cy="200.3" r="3" fill="#f28e2b"/><circle cx="511.5" cy="195.7" r="3" fill="#f28e2b"/><circle cx="522.2" cy="200.3" r="3" fill="#f28e2b"/><circle cx="532.9" cy="191.2" r="3" fill="#f28e2b"/><circle cx="543.5" cy="177.6" r="3" fill="#f28e2b"/><circle cx="554.2" cy="182.1" r="3" fill="#f28e2b"/><circle cx="564.9" cy="191.2" r="3" fill="#f28e2b"/><circle cx="575.6" cy="177.6" r="3" fill="#f28e2b"/><circle cx="586.3" cy="191.2" r="3" fill="#f28e2b"/><circle cx="597.0" cy="173.1" r="3" fill="#f28e2b"/><circle cx="607.7" cy="222.9" r="3" fill="#f28e2b"/><circle cx="618.3" cy="195.7" r="3" fill="#f28e2b"/><circle cx="629.0" cy="200.3" r="3" fill="#f28e2b"/><circle cx="639.7" cy="191.2" r="3" fill="#f28e2b"/><circle cx="650.4" cy="209.3" r="3" fill="#f28e2b"/><circle cx="661.1" cy="222.9" r="3" fill="#f28e2b"/><circle cx="671.8" cy="200.3" r="3" fill="#f28e2b"/><circle cx="682.5" cy="209.3" r="3" fill="#f28e2b"/><circle cx="693.1" cy="182.1" r="3" fill="#f28e2b"/><circle cx="703.8" cy="186.7" r="3" fill="#f28e2b"/><circle cx="714.5" cy="209.3" r="3" fill="#f28e2b"/><circle cx="725.2" cy="191.2" r="3" fill="#f28e2b"/><circle cx="735.9" cy="209.3" r="3" fill="#f28e2b"/><circle cx="746.6" cy="209.3" r="3" fill="#f28e2b"/><circle cx="757.3" cy="204.8" r="3" fill="#f28e2b"/><circle cx="767.9" cy="209.3" r="3" fill="#f28e2b"/><circle cx="778.6" cy="222.9" r="3" fill="#f28e2b"/><circle cx="789.3" cy="222.9" r="3" fill="#f28e2b"/><circle cx="800.0" cy="209.3" r="3" fill="#f28e2b"/>

  <!-- axes -->
  <line x1="52" y1="28" x2="52" y2="232"
        stroke="#cccccc" stroke-width="1"/>
  <line x1="52" y1="232" x2="800" y2="232"
        stroke="#cccccc" stroke-width="1"/>

  <!-- y-axis labels -->
  <text x="47" y="236.0" text-anchor="end" font-size="10" fill="#57606a" font-family="ui-monospace, SFMono-Regular, 'SF Mono', Menlo, monospace">0</text><text x="47" y="195.2" text-anchor="end" font-size="10" fill="#57606a" font-family="ui-monospace, SFMono-Regular, 'SF Mono', Menlo, monospace">9</text><text x="47" y="154.4" text-anchor="end" font-size="10" fill="#57606a" font-family="ui-monospace, SFMono-Regular, 'SF Mono', Menlo, monospace">18</text><text x="47" y="113.6" text-anchor="end" font-size="10" fill="#57606a" font-family="ui-monospace, SFMono-Regular, 'SF Mono', Menlo, monospace">27</text><text x="47" y="72.8" text-anchor="end" font-size="10" fill="#57606a" font-family="ui-monospace, SFMono-Regular, 'SF Mono', Menlo, monospace">36</text><text x="47" y="32.0" text-anchor="end" font-size="10" fill="#57606a" font-family="ui-monospace, SFMono-Regular, 'SF Mono', Menlo, monospace">45</text>

  <!-- x-axis labels -->
  <text x="52.0" y="248" text-anchor="middle" font-size="10" fill="#8c959f" font-family="ui-monospace, SFMono-Regular, 'SF Mono', Menlo, monospace">05-12</text><text x="393.9" y="248" text-anchor="middle" font-size="10" fill="#8c959f" font-family="ui-monospace, SFMono-Regular, 'SF Mono', Menlo, monospace">06-13</text><text x="735.9" y="248" text-anchor="middle" font-size="10" fill="#8c959f" font-family="ui-monospace, SFMono-Regular, 'SF Mono', Menlo, monospace">07-15</text><text x="800.0" y="248" text-anchor="middle" font-size="10" fill="#8c959f" font-family="ui-monospace, SFMono-Regular, 'SF Mono', Menlo, monospace">07-21</text><text x="137.5" y="248" text-anchor="middle" font-size="10" fill="#8c959f" font-family="ui-monospace, SFMono-Regular, 'SF Mono', Menlo, monospace">05-20</text><text x="479.4" y="248" text-anchor="middle" font-size="10" fill="#8c959f" font-family="ui-monospace, SFMono-Regular, 'SF Mono', Menlo, monospace">06-21</text><text x="223.0" y="248" text-anchor="middle" font-size="10" fill="#8c959f" font-family="ui-monospace, SFMono-Regular, 'SF Mono', Menlo, monospace">05-28</text><text x="564.9" y="248" text-anchor="middle" font-size="10" fill="#8c959f" font-family="ui-monospace, SFMono-Regular, 'SF Mono', Menlo, monospace">06-29</text><text x="308.5" y="248" text-anchor="middle" font-size="10" fill="#8c959f" font-family="ui-monospace, SFMono-Regular, 'SF Mono', Menlo, monospace">06-05</text><text x="650.4" y="248" text-anchor="middle" font-size="10" fill="#8c959f" font-family="ui-monospace, SFMono-Regular, 'SF Mono', Menlo, monospace">07-07</text>

  <!-- legend -->
  <rect x="60" y="262" width="16" height="3" fill="#4e79a7" rx="1"/><text x="80" y="268" font-size="11" fill="#57606a" font-family="-apple-system, BlinkMacSystemFont, 'Segoe UI', sans-serif">Total clones (761)</text><line x1="230" y1="264" x2="246" y2="264" stroke="#f28e2b" stroke-width="2" stroke-dasharray="5,3"/><text x="250" y="268" font-size="11" fill="#57606a" font-family="-apple-system, BlinkMacSystemFont, 'Segoe UI', sans-serif">Unique cloners</text>

</svg>