<svg xmlns="http://www.w3.org/2000/svg" viewBox="0 0 820 280" width="820" height="280">

  <!-- title -->
  <text x="52" y="18" font-size="13" font-weight="600"
        fill="#24292f" font-family="-apple-system, BlinkMacSystemFont, 'Segoe UI', sans-serif"
        >Clone traffic — stats</text>
  <text x="800" y="18" font-size="10" fill="#8c959f"
        font-family="ui-monospace, SFMono-Regular, 'SF Mono', Menlo, monospace" text-anchor="end">2026-06-23</text>

  <!-- grid -->
  <line x1="52" y1="232.0" x2="800" y2="232.0" stroke="#e8e8e8" stroke-width="1"/><line x1="52" y1="191.2" x2="800" y2="191.2" stroke="#e8e8e8" stroke-width="1"/><line x1="52" y1="150.4" x2="800" y2="150.4" stroke="#e8e8e8" stroke-width="1"/><line x1="52" y1="109.6" x2="800" y2="109.6" stroke="#e8e8e8" stroke-width="1"/><line x1="52" y1="68.8" x2="800" y2="68.8" stroke="#e8e8e8" stroke-width="1"/><line x1="52" y1="28.0" x2="800" y2="28.0" stroke="#e8e8e8" stroke-width="1"/>

  <!-- area fill -->
  <path d="M52.0,232.0 L52.0,232.0 L70.7,232.0 L89.4,232.0 L108.1,232.0 L126.8,232.0 L145.5,232.0 L164.2,232.0 L182.9,232.0 L201.6,232.0 L220.3,232.0 L239.0,232.0 L257.7,232.0 L276.4,232.0 L295.1,200.3 L313.8,50.7 L332.5,168.5 L351.2,182.1 L369.9,168.5 L388.6,145.9 L407.3,145.9 L426.0,164.0 L444.7,177.6 L463.4,168.5 L482.1,164.0 L500.8,150.4 L519.5,173.1 L538.2,168.5 L556.9,177.6 L575.6,204.8 L594.3,159.5 L613.0,168.5 L631.7,182.1 L650.4,173.1 L669.1,118.7 L687.8,105.1 L706.5,132.3 L725.2,154.9 L743.9,136.8 L762.6,28.0 L781.3,173.1 L800.0,173.1 L800.0,232.0 L52.0,232.0Z" fill="#4e79a7" opacity="0.12"/>

  <!-- lines -->
  <polyline points="52.0,232.0 70.7,232.0 89.4,232.0 108.1,232.0 126.8,232.0 145.5,232.0 164.2,232.0 182.9,232.0 201.6,232.0 220.3,232.0 239.0,232.0 257.7,232.0 276.4,232.0 295.1,200.3 313.8,50.7 332.5,168.5 351.2,182.1 369.9,168.5 388.6,145.9 407.3,145.9 426.0,164.0 444.7,177.6 463.4,168.5 482.1,164.0 500.8,150.4 519.5,173.1 538.2,168.5 556.9,177.6 575.6,204.8 594.3,159.5 613.0,168.5 631.7,182.1 650.4,173.1 669.1,118.7 687.8,105.1 706.5,132.3 725.2,154.9 743.9,136.8 762.6,28.0 781.3,173.1 800.0,173.1"
            fill="none" stroke="#4e79a7"
            stroke-width="2" stroke-linejoin="round"/>
  <polyline points="52.0,232.0 70.7,232.0 89.4,232.0 108.1,232.0 126.8,232.0 145.5,232.0 164.2,232.0 182.9,232.0 201.6,232.0 220.3,232.0 239.0,232.0 257.7,232.0 276.4,232.0 295.1,200.3 313.8,123.2 332.5,182.1 351.2,195.7 369.9,182.1 388.6,159.5 407.3,168.5 426.0,182.1 444.7,195.7 463.4,182.1 482.1,177.6 500.8,164.0 519.5,186.7 538.2,182.1 556.9,191.2 575.6,204.8 594.3,191.2 613.0,182.1 631.7,195.7 650.4,200.3 669.1,173.1 687.8,159.5 706.5,177.6 725.2,182.1 743.9,177.6 762.6,177.6 781.3,186.7 800.0,186.7"
            fill="none" stroke="#f28e2b"
            stroke-width="2" stroke-linejoin="round"
            stroke-dasharray="5,3"/>

  <!-- dots -->
  <circle cx="52.0" cy="232.0" r="3" fill="#4e79a7"/><circle cx="70.7" cy="232.0" r="3" fill="#4e79a7"/><circle cx="89.4" cy="232.0" r="3" fill="#4e79a7"/><circle cx="108.1" cy="232.0" r="3" fill="#4e79a7"/><circle cx="126.8" cy="232.0" r="3" fill="#4e79a7"/><circle cx="145.5" cy="232.0" r="3" fill="#4e79a7"/><circle cx="164.2" cy="232.0" r="3" fill="#4e79a7"/><circle cx="182.9" cy="232.0" r="3" fill="#4e79a7"/><circle cx="201.6" cy="232.0" r="3" fill="#4e79a7"/><circle cx="220.3" cy="232.0" r="3" fill="#4e79a7"/><circle cx="239.0" cy="232.0" r="3" fill="#4e79a7"/><circle cx="257.7" cy="232.0" r="3" fill="#4e79a7"/><circle cx="276.4" cy="232.0" r="3" fill="#4e79a7"/><circle cx="295.1" cy="200.3" r="3" fill="#4e79a7"/><circle cx="313.8" cy="50.7" r="3" fill="#4e79a7"/><circle cx="332.5" cy="168.5" r="3" fill="#4e79a7"/><circle cx="351.2" cy="182.1" r="3" fill="#4e79a7"/><circle cx="369.9" cy="168.5" r="3" fill="#4e79a7"/><circle cx="388.6" cy="145.9" r="3" fill="#4e79a7"/><circle cx="407.3" cy="145.9" r="3" fill="#4e79a7"/><circle cx="426.0" cy="164.0" r="3" fill="#4e79a7"/><circle cx="444.7" cy="177.6" r="3" fill="#4e79a7"/><circle cx="463.4" cy="168.5" r="3" fill="#4e79a7"/><circle cx="482.1" cy="164.0" r="3" fill="#4e79a7"/><circle cx="500.8" cy="150.4" r="3" fill="#4e79a7"/><circle cx="519.5" cy="173.1" r="3" fill="#4e79a7"/><circle cx="538.2" cy="168.5" r="3" fill="#4e79a7"/><circle cx="556.9" cy="177.6" r="3" fill="#4e79a7"/><circle cx="575.6" cy="204.8" r="3" fill="#4e79a7"/><circle cx="594.3" cy="159.5" r="3" fill="#4e79a7"/><circle cx="613.0" cy="168.5" r="3" fill="#4e79a7"/><circle cx="631.7" cy="182.1" r="3" fill="#4e79a7"/><circle cx="650.4" cy="173.1" r="3" fill="#4e79a7"/><circle cx="669.1" cy="118.7" r="3" fill="#4e79a7"/><circle cx="687.8" cy="105.1" r="3" fill="#4e79a7"/><circle cx="706.5" cy="132.3" r="3" fill="#4e79a7"/><circle cx="725.2" cy="154.9" r="3" fill="#4e79a7"/><circle cx="743.9" cy="136.8" r="3" fill="#4e79a7"/><circle cx="762.6" cy="28.0" r="3" fill="#4e79a7"/><circle cx="781.3" cy="173.1" r="3" fill="#4e79a7"/><circle cx="800.0" cy="173.1" r="3" fill="#4e79a7"/>
  <circle cx="52.0" cy="232.0" r="3" fill="#f28e2b"/><circle cx="70.7" cy="232.0" r="3" fill="#f28e2b"/><circle cx="89.4" cy="232.0" r="3" fill="#f28e2b"/><circle cx="108.1" cy="232.0" r="3" fill="#f28e2b"/><circle cx="126.8" cy="232.0" r="3" fill="#f28e2b"/><circle cx="145.5" cy="232.0" r="3" fill="#f28e2b"/><circle cx="164.2" cy="232.0" r="3" fill="#f28e2b"/><circle cx="182.9" cy="232.0" r="3" fill="#f28e2b"/><circle cx="201.6" cy="232.0" r="3" fill="#f28e2b"/><circle cx="220.3" cy="232.0" r="3" fill="#f28e2b"/><circle cx="239.0" cy="232.0" r="3" fill="#f28e2b"/><circle cx="257.7" cy="232.0" r="3" fill="#f28e2b"/><circle cx="276.4" cy="232.0" r="3" fill="#f28e2b"/><circle cx="295.1" cy="200.3" r="3" fill="#f28e2b"/><circle cx="313.8" cy="123.2" r="3" fill="#f28e2b"/><circle cx="332.5" cy="182.1" r="3" fill="#f28e2b"/><circle cx="351.2" cy="195.7" r="3" fill="#f28e2b"/><circle cx="369.9" cy="182.1" r="3" fill="#f28e2b"/><circle cx="388.6" cy="159.5" r="3" fill="#f28e2b"/><circle cx="407.3" cy="168.5" r="3" fill="#f28e2b"/><circle cx="426.0" cy="182.1" r="3" fill="#f28e2b"/><circle cx="444.7" cy="195.7" r="3" fill="#f28e2b"/><circle cx="463.4" cy="182.1" r="3" fill="#f28e2b"/><circle cx="482.1" cy="177.6" r="3" fill="#f28e2b"/><circle cx="500.8" cy="164.0" r="3" fill="#f28e2b"/><circle cx="519.5" cy="186.7" r="3" fill="#f28e2b"/><circle cx="538.2" cy="182.1" r="3" fill="#f28e2b"/><circle cx="556.9" cy="191.2" r="3" fill="#f28e2b"/><circle cx="575.6" cy="204.8" r="3" fill="#f28e2b"/><circle cx="594.3" cy="191.2" r="3" fill="#f28e2b"/><circle cx="613.0" cy="182.1" r="3" fill="#f28e2b"/><circle cx="631.7" cy="195.7" r="3" fill="#f28e2b"/><circle cx="650.4" cy="200.3" r="3" fill="#f28e2b"/><circle cx="669.1" cy="173.1" r="3" fill="#f28e2b"/><circle cx="687.8" cy="159.5" r="3" fill="#f28e2b"/><circle cx="706.5" cy="177.6" r="3" fill="#f28e2b"/><circle cx="725.2" cy="182.1" r="3" fill="#f28e2b"/><circle cx="743.9" cy="177.6" r="3" fill="#f28e2b"/><circle cx="762.6" cy="177.6" r="3" fill="#f28e2b"/><circle cx="781.3" cy="186.7" r="3" fill="#f28e2b"/><circle cx="800.0" cy="186.7" r="3" fill="#f28e2b"/>

  <!-- axes -->
  <line x1="52" y1="28" x2="52" y2="232"
        stroke="#cccccc" stroke-width="1"/>
  <line x1="52" y1="232" x2="800" y2="232"
        stroke="#cccccc" stroke-width="1"/>

  <!-- y-axis labels -->
  <text x="47" y="236.0" text-anchor="end" font-size="10" fill="#57606a" font-family="ui-monospace, SFMono-Regular, 'SF Mono', Menlo, monospace">0</text><text x="47" y="195.2" text-anchor="end" font-size="10" fill="#57606a" font-family="ui-monospace, SFMono-Regular, 'SF Mono', Menlo, monospace">9</text><text x="47" y="154.4" text-anchor="end" font-size="10" fill="#57606a" font-family="ui-monospace, SFMono-Regular, 'SF Mono', Menlo, monospace">18</text><text x="47" y="113.6" text-anchor="end" font-size="10" fill="#57606a" font-family="ui-monospace, SFMono-Regular, 'SF Mono', Menlo, monospace">27</text><text x="47" y="72.8" text-anchor="end" font-size="10" fill="#57606a" font-family="ui-monospace, SFMono-Regular, 'SF Mono', Menlo, monospace">36</text><text x="47" y="32.0" text-anchor="end" font-size="10" fill="#57606a" font-family="ui-monospace, SFMono-Regular, 'SF Mono', Menlo, monospace">45</text>

  <!-- x-axis labels -->
  <text x="52.0" y="248" text-anchor="middle" font-size="10" fill="#8c959f" font-family="ui-monospace, SFMono-Regular, 'SF Mono', Menlo, monospace">05-12</text><text x="706.5" y="248" text-anchor="middle" font-size="10" fill="#8c959f" font-family="ui-monospace, SFMono-Regular, 'SF Mono', Menlo, monospace">06-16</text><text x="145.5" y="248" text-anchor="middle" font-size="10" fill="#8c959f" font-family="ui-monospace, SFMono-Regular, 'SF Mono', Menlo, monospace">05-17</text><text x="800.0" y="248" text-anchor="middle" font-size="10" fill="#8c959f" font-family="ui-monospace, SFMono-Regular, 'SF Mono', Menlo, monospace">06-21</text><text x="239.0" y="248" text-anchor="middle" font-size="10" fill="#8c959f" font-family="ui-monospace, SFMono-Regular, 'SF Mono', Menlo, monospace">05-22</text><text x="332.5" y="248" text-anchor="middle" font-size="10" fill="#8c959f" font-family="ui-monospace, SFMono-Regular, 'SF Mono', Menlo, monospace">05-27</text><text x="426.0" y="248" text-anchor="middle" font-size="10" fill="#8c959f" font-family="ui-monospace, SFMono-Regular, 'SF Mono', Menlo, monospace">06-01</text><text x="519.5" y="248" text-anchor="middle" font-size="10" fill="#8c959f" font-family="ui-monospace, SFMono-Regular, 'SF Mono', Menlo, monospace">06-06</text><text x="613.0" y="248" text-anchor="middle" font-size="10" fill="#8c959f" font-family="ui-monospace, SFMono-Regular, 'SF Mono', Menlo, monospace">06-11</text>

  <!-- legend -->
  <rect x="60" y="262" width="16" height="3" fill="#4e79a7" rx="1"/><text x="80" y="268" font-size="11" fill="#57606a" font-family="-apple-system, BlinkMacSystemFont, 'Segoe UI', sans-serif">Total clones (481)</text><line x1="230" y1="264" x2="246" y2="264" stroke="#f28e2b" stroke-width="2" stroke-dasharray="5,3"/><text x="250" y="268" font-size="11" fill="#57606a" font-family="-apple-system, BlinkMacSystemFont, 'Segoe UI', sans-serif">Unique cloners</text>

</svg>