<svg xmlns="http://www.w3.org/2000/svg" viewBox="0 0 820 280" width="820" height="280">

  <!-- title -->
  <text x="52" y="18" font-size="13" font-weight="600"
        fill="#24292f" font-family="-apple-system, BlinkMacSystemFont, 'Segoe UI', sans-serif"
        >Clone traffic — stats</text>
  <text x="800" y="18" font-size="10" fill="#8c959f"
        font-family="ui-monospace, SFMono-Regular, 'SF Mono', Menlo, monospace" text-anchor="end">2026-06-25</text>

  <!-- grid -->
  <line x1="52" y1="232.0" x2="800" y2="232.0" stroke="#e8e8e8" stroke-width="1"/><line x1="52" y1="191.2" x2="800" y2="191.2" stroke="#e8e8e8" stroke-width="1"/><line x1="52" y1="150.4" x2="800" y2="150.4" stroke="#e8e8e8" stroke-width="1"/><line x1="52" y1="109.6" x2="800" y2="109.6" stroke="#e8e8e8" stroke-width="1"/><line x1="52" y1="68.8" x2="800" y2="68.8" stroke="#e8e8e8" stroke-width="1"/><line x1="52" y1="28.0" x2="800" y2="28.0" stroke="#e8e8e8" stroke-width="1"/>

  <!-- area fill -->
  <path d="M52.0,232.0 L52.0,232.0 L69.8,232.0 L87.6,232.0 L105.4,232.0 L123.2,232.0 L141.0,232.0 L158.9,232.0 L176.7,232.0 L194.5,232.0 L212.3,232.0 L230.1,232.0 L247.9,232.0 L265.7,232.0 L283.5,200.3 L301.3,50.7 L319.1,168.5 L337.0,182.1 L354.8,168.5 L372.6,145.9 L390.4,145.9 L408.2,164.0 L426.0,177.6 L443.8,168.5 L461.6,164.0 L479.4,150.4 L497.2,173.1 L515.0,168.5 L532.9,177.6 L550.7,204.8 L568.5,159.5 L586.3,168.5 L604.1,182.1 L621.9,173.1 L639.7,118.7 L657.5,105.1 L675.3,132.3 L693.1,154.9 L711.0,136.8 L728.8,28.0 L746.6,173.1 L764.4,173.1 L782.2,177.6 L800.0,186.7 L800.0,232.0 L52.0,232.0Z" fill="#4e79a7" opacity="0.12"/>

  <!-- lines -->
  <polyline points="52.0,232.0 69.8,232.0 87.6,232.0 105.4,232.0 123.2,232.0 141.0,232.0 158.9,232.0 176.7,232.0 194.5,232.0 212.3,232.0 230.1,232.0 247.9,232.0 265.7,232.0 283.5,200.3 301.3,50.7 319.1,168.5 337.0,182.1 354.8,168.5 372.6,145.9 390.4,145.9 408.2,164.0 426.0,177.6 443.8,168.5 461.6,164.0 479.4,150.4 497.2,173.1 515.0,168.5 532.9,177.6 550.7,204.8 568.5,159.5 586.3,168.5 604.1,182.1 621.9,173.1 639.7,118.7 657.5,105.1 675.3,132.3 693.1,154.9 711.0,136.8 728.8,28.0 746.6,173.1 764.4,173.1 782.2,177.6 800.0,186.7"
            fill="none" stroke="#4e79a7"
            stroke-width="2" stroke-linejoin="round"/>
  <polyline points="52.0,232.0 69.8,232.0 87.6,232.0 105.4,232.0 123.2,232.0 141.0,232.0 158.9,232.0 176.7,232.0 194.5,232.0 212.3,232.0 230.1,232.0 247.9,232.0 265.7,232.0 283.5,200.3 301.3,123.2 319.1,182.1 337.0,195.7 354.8,182.1 372.6,159.5 390.4,168.5 408.2,182.1 426.0,195.7 443.8,182.1 461.6,177.6 479.4,164.0 497.2,186.7 515.0,182.1 532.9,191.2 550.7,204.8 568.5,191.2 586.3,182.1 604.1,195.7 621.9,200.3 639.7,173.1 657.5,159.5 675.3,177.6 693.1,182.1 711.0,177.6 728.8,177.6 746.6,186.7 764.4,186.7 782.2,191.2 800.0,200.3"
            fill="none" stroke="#f28e2b"
            stroke-width="2" stroke-linejoin="round"
            stroke-dasharray="5,3"/>

  <!-- dots -->
  <circle cx="52.0" cy="232.0" r="3" fill="#4e79a7"/><circle cx="69.8" cy="232.0" r="3" fill="#4e79a7"/><circle cx="87.6" cy="232.0" r="3" fill="#4e79a7"/><circle cx="105.4" cy="232.0" r="3" fill="#4e79a7"/><circle cx="123.2" cy="232.0" r="3" fill="#4e79a7"/><circle cx="141.0" cy="232.0" r="3" fill="#4e79a7"/><circle cx="158.9" cy="232.0" r="3" fill="#4e79a7"/><circle cx="176.7" cy="232.0" r="3" fill="#4e79a7"/><circle cx="194.5" cy="232.0" r="3" fill="#4e79a7"/><circle cx="212.3" cy="232.0" r="3" fill="#4e79a7"/><circle cx="230.1" cy="232.0" r="3" fill="#4e79a7"/><circle cx="247.9" cy="232.0" r="3" fill="#4e79a7"/><circle cx="265.7" cy="232.0" r="3" fill="#4e79a7"/><circle cx="283.5" cy="200.3" r="3" fill="#4e79a7"/><circle cx="301.3" cy="50.7" r="3" fill="#4e79a7"/><circle cx="319.1" cy="168.5" r="3" fill="#4e79a7"/><circle cx="337.0" cy="182.1" r="3" fill="#4e79a7"/><circle cx="354.8" cy="168.5" r="3" fill="#4e79a7"/><circle cx="372.6" cy="145.9" r="3" fill="#4e79a7"/><circle cx="390.4" cy="145.9" r="3" fill="#4e79a7"/><circle cx="408.2" cy="164.0" r="3" fill="#4e79a7"/><circle cx="426.0" cy="177.6" r="3" fill="#4e79a7"/><circle cx="443.8" cy="168.5" r="3" fill="#4e79a7"/><circle cx="461.6" cy="164.0" r="3" fill="#4e79a7"/><circle cx="479.4" cy="150.4" r="3" fill="#4e79a7"/><circle cx="497.2" cy="173.1" r="3" fill="#4e79a7"/><circle cx="515.0" cy="168.5" r="3" fill="#4e79a7"/><circle cx="532.9" cy="177.6" r="3" fill="#4e79a7"/><circle cx="550.7" cy="204.8" r="3" fill="#4e79a7"/><circle cx="568.5" cy="159.5" r="3" fill="#4e79a7"/><circle cx="586.3" cy="168.5" r="3" fill="#4e79a7"/><circle cx="604.1" cy="182.1" r="3" fill="#4e79a7"/><circle cx="621.9" cy="173.1" r="3" fill="#4e79a7"/><circle cx="639.7" cy="118.7" r="3" fill="#4e79a7"/><circle cx="657.5" cy="105.1" r="3" fill="#4e79a7"/><circle cx="675.3" cy="132.3" r="3" fill="#4e79a7"/><circle cx="693.1" cy="154.9" r="3" fill="#4e79a7"/><circle cx="711.0" cy="136.8" r="3" fill="#4e79a7"/><circle cx="728.8" cy="28.0" r="3" fill="#4e79a7"/><circle cx="746.6" cy="173.1" r="3" fill="#4e79a7"/><circle cx="764.4" cy="173.1" r="3" fill="#4e79a7"/><circle cx="782.2" cy="177.6" r="3" fill="#4e79a7"/><circle cx="800.0" cy="186.7" r="3" fill="#4e79a7"/>
  <circle cx="52.0" cy="232.0" r="3" fill="#f28e2b"/><circle cx="69.8" cy="232.0" r="3" fill="#f28e2b"/><circle cx="87.6" cy="232.0" r="3" fill="#f28e2b"/><circle cx="105.4" cy="232.0" r="3" fill="#f28e2b"/><circle cx="123.2" cy="232.0" r="3" fill="#f28e2b"/><circle cx="141.0" cy="232.0" r="3" fill="#f28e2b"/><circle cx="158.9" cy="232.0" r="3" fill="#f28e2b"/><circle cx="176.7" cy="232.0" r="3" fill="#f28e2b"/><circle cx="194.5" cy="232.0" r="3" fill="#f28e2b"/><circle cx="212.3" cy="232.0" r="3" fill="#f28e2b"/><circle cx="230.1" cy="232.0" r="3" fill="#f28e2b"/><circle cx="247.9" cy="232.0" r="3" fill="#f28e2b"/><circle cx="265.7" cy="232.0" r="3" fill="#f28e2b"/><circle cx="283.5" cy="200.3" r="3" fill="#f28e2b"/><circle cx="301.3" cy="123.2" r="3" fill="#f28e2b"/><circle cx="319.1" cy="182.1" r="3" fill="#f28e2b"/><circle cx="337.0" cy="195.7" r="3" fill="#f28e2b"/><circle cx="354.8" cy="182.1" r="3" fill="#f28e2b"/><circle cx="372.6" cy="159.5" r="3" fill="#f28e2b"/><circle cx="390.4" cy="168.5" r="3" fill="#f28e2b"/><circle cx="408.2" cy="182.1" r="3" fill="#f28e2b"/><circle cx="426.0" cy="195.7" r="3" fill="#f28e2b"/><circle cx="443.8" cy="182.1" r="3" fill="#f28e2b"/><circle cx="461.6" cy="177.6" r="3" fill="#f28e2b"/><circle cx="479.4" cy="164.0" r="3" fill="#f28e2b"/><circle cx="497.2" cy="186.7" r="3" fill="#f28e2b"/><circle cx="515.0" cy="182.1" r="3" fill="#f28e2b"/><circle cx="532.9" cy="191.2" r="3" fill="#f28e2b"/><circle cx="550.7" cy="204.8" r="3" fill="#f28e2b"/><circle cx="568.5" cy="191.2" r="3" fill="#f28e2b"/><circle cx="586.3" cy="182.1" r="3" fill="#f28e2b"/><circle cx="604.1" cy="195.7" r="3" fill="#f28e2b"/><circle cx="621.9" cy="200.3" r="3" fill="#f28e2b"/><circle cx="639.7" cy="173.1" r="3" fill="#f28e2b"/><circle cx="657.5" cy="159.5" r="3" fill="#f28e2b"/><circle cx="675.3" cy="177.6" r="3" fill="#f28e2b"/><circle cx="693.1" cy="182.1" r="3" fill="#f28e2b"/><circle cx="711.0" cy="177.6" r="3" fill="#f28e2b"/><circle cx="728.8" cy="177.6" r="3" fill="#f28e2b"/><circle cx="746.6" cy="186.7" r="3" fill="#f28e2b"/><circle cx="764.4" cy="186.7" r="3" fill="#f28e2b"/><circle cx="782.2" cy="191.2" r="3" fill="#f28e2b"/><circle cx="800.0" cy="200.3" r="3" fill="#f28e2b"/>

  <!-- axes -->
  <line x1="52" y1="28" x2="52" y2="232"
        stroke="#cccccc" stroke-width="1"/>
  <line x1="52" y1="232" x2="800" y2="232"
        stroke="#cccccc" stroke-width="1"/>

  <!-- y-axis labels -->
  <text x="47" y="236.0" text-anchor="end" font-size="10" fill="#57606a" font-family="ui-monospace, SFMono-Regular, 'SF Mono', Menlo, monospace">0</text><text x="47" y="195.2" text-anchor="end" font-size="10" fill="#57606a" font-family="ui-monospace, SFMono-Regular, 'SF Mono', Menlo, monospace">9</text><text x="47" y="154.4" text-anchor="end" font-size="10" fill="#57606a" font-family="ui-monospace, SFMono-Regular, 'SF Mono', Menlo, monospace">18</text><text x="47" y="113.6" text-anchor="end" font-size="10" fill="#57606a" font-family="ui-monospace, SFMono-Regular, 'SF Mono', Menlo, monospace">27</text><text x="47" y="72.8" text-anchor="end" font-size="10" fill="#57606a" font-family="ui-monospace, SFMono-Regular, 'SF Mono', Menlo, monospace">36</text><text x="47" y="32.0" text-anchor="end" font-size="10" fill="#57606a" font-family="ui-monospace, SFMono-Regular, 'SF Mono', Menlo, monospace">45</text>

  <!-- x-axis labels -->
  <text x="52.0" y="248" text-anchor="middle" font-size="10" fill="#8c959f" font-family="ui-monospace, SFMono-Regular, 'SF Mono', Menlo, monospace">05-12</text><text x="675.3" y="248" text-anchor="middle" font-size="10" fill="#8c959f" font-family="ui-monospace, SFMono-Regular, 'SF Mono', Menlo, monospace">06-16</text><text x="141.0" y="248" text-anchor="middle" font-size="10" fill="#8c959f" font-family="ui-monospace, SFMono-Regular, 'SF Mono', Menlo, monospace">05-17</text><text x="764.4" y="248" text-anchor="middle" font-size="10" fill="#8c959f" font-family="ui-monospace, SFMono-Regular, 'SF Mono', Menlo, monospace">06-21</text><text x="230.1" y="248" text-anchor="middle" font-size="10" fill="#8c959f" font-family="ui-monospace, SFMono-Regular, 'SF Mono', Menlo, monospace">05-22</text><text x="800.0" y="248" text-anchor="middle" font-size="10" fill="#8c959f" font-family="ui-monospace, SFMono-Regular, 'SF Mono', Menlo, monospace">06-23</text><text x="319.1" y="248" text-anchor="middle" font-size="10" fill="#8c959f" font-family="ui-monospace, SFMono-Regular, 'SF Mono', Menlo, monospace">05-27</text><text x="408.2" y="248" text-anchor="middle" font-size="10" fill="#8c959f" font-family="ui-monospace, SFMono-Regular, 'SF Mono', Menlo, monospace">06-01</text><text x="497.2" y="248" text-anchor="middle" font-size="10" fill="#8c959f" font-family="ui-monospace, SFMono-Regular, 'SF Mono', Menlo, monospace">06-06</text><text x="586.3" y="248" text-anchor="middle" font-size="10" fill="#8c959f" font-family="ui-monospace, SFMono-Regular, 'SF Mono', Menlo, monospace">06-11</text>

  <!-- legend -->
  <rect x="60" y="262" width="16" height="3" fill="#4e79a7" rx="1"/><text x="80" y="268" font-size="11" fill="#57606a" font-family="-apple-system, BlinkMacSystemFont, 'Segoe UI', sans-serif">Total clones (503)</text><line x1="230" y1="264" x2="246" y2="264" stroke="#f28e2b" stroke-width="2" stroke-dasharray="5,3"/><text x="250" y="268" font-size="11" fill="#57606a" font-family="-apple-system, BlinkMacSystemFont, 'Segoe UI', sans-serif">Unique cloners</text>

</svg>