<svg xmlns="http://www.w3.org/2000/svg" viewBox="0 0 820 280" width="820" height="280">

  <!-- title -->
  <text x="52" y="18" font-size="13" font-weight="600"
        fill="#24292f" font-family="-apple-system, BlinkMacSystemFont, 'Segoe UI', sans-serif"
        >Clone traffic — stats</text>
  <text x="800" y="18" font-size="10" fill="#8c959f"
        font-family="ui-monospace, SFMono-Regular, 'SF Mono', Menlo, monospace" text-anchor="end">2026-07-14</text>

  <!-- grid -->
  <line x1="52" y1="232.0" x2="800" y2="232.0" stroke="#e8e8e8" stroke-width="1"/><line x1="52" y1="191.2" x2="800" y2="191.2" stroke="#e8e8e8" stroke-width="1"/><line x1="52" y1="150.4" x2="800" y2="150.4" stroke="#e8e8e8" stroke-width="1"/><line x1="52" y1="109.6" x2="800" y2="109.6" stroke="#e8e8e8" stroke-width="1"/><line x1="52" y1="68.8" x2="800" y2="68.8" stroke="#e8e8e8" stroke-width="1"/><line x1="52" y1="28.0" x2="800" y2="28.0" stroke="#e8e8e8" stroke-width="1"/>

  <!-- area fill -->
  <path d="M52.0,232.0 L52.0,232.0 L64.3,232.0 L76.5,232.0 L88.8,232.0 L101.0,232.0 L113.3,232.0 L125.6,232.0 L137.8,232.0 L150.1,232.0 L162.4,232.0 L174.6,232.0 L186.9,232.0 L199.1,232.0 L211.4,200.3 L223.7,50.7 L235.9,168.5 L248.2,182.1 L260.5,168.5 L272.7,145.9 L285.0,145.9 L297.2,164.0 L309.5,177.6 L321.8,168.5 L334.0,164.0 L346.3,150.4 L358.6,173.1 L370.8,168.5 L383.1,177.6 L395.3,204.8 L407.6,159.5 L419.9,168.5 L432.1,182.1 L444.4,173.1 L456.7,118.7 L468.9,105.1 L481.2,132.3 L493.4,154.9 L505.7,136.8 L518.0,28.0 L530.2,173.1 L542.5,173.1 L554.8,177.6 L567.0,186.7 L579.3,182.1 L591.5,186.7 L603.8,191.2 L616.1,164.0 L628.3,168.5 L640.6,177.6 L652.9,164.0 L665.1,177.6 L677.4,154.9 L689.6,222.9 L701.9,182.1 L714.2,173.1 L726.4,177.6 L738.7,209.3 L751.0,222.9 L763.2,186.7 L775.5,204.8 L787.7,168.5 L800.0,168.5 L800.0,232.0 L52.0,232.0Z" fill="#4e79a7" opacity="0.12"/>

  <!-- lines -->
  <polyline points="52.0,232.0 64.3,232.0 76.5,232.0 88.8,232.0 101.0,232.0 113.3,232.0 125.6,232.0 137.8,232.0 150.1,232.0 162.4,232.0 174.6,232.0 186.9,232.0 199.1,232.0 211.4,200.3 223.7,50.7 235.9,168.5 248.2,182.1 260.5,168.5 272.7,145.9 285.0,145.9 297.2,164.0 309.5,177.6 321.8,168.5 334.0,164.0 346.3,150.4 358.6,173.1 370.8,168.5 383.1,177.6 395.3,204.8 407.6,159.5 419.9,168.5 432.1,182.1 444.4,173.1 456.7,118.7 468.9,105.1 481.2,132.3 493.4,154.9 505.7,136.8 518.0,28.0 530.2,173.1 542.5,173.1 554.8,177.6 567.0,186.7 579.3,182.1 591.5,186.7 603.8,191.2 616.1,164.0 628.3,168.5 640.6,177.6 652.9,164.0 665.1,177.6 677.4,154.9 689.6,222.9 701.9,182.1 714.2,173.1 726.4,177.6 738.7,209.3 751.0,222.9 763.2,186.7 775.5,204.8 787.7,168.5 800.0,168.5"
            fill="none" stroke="#4e79a7"
            stroke-width="2" stroke-linejoin="round"/>
  <polyline points="52.0,232.0 64.3,232.0 76.5,232.0 88.8,232.0 101.0,232.0 113.3,232.0 125.6,232.0 137.8,232.0 150.1,232.0 162.4,232.0 174.6,232.0 186.9,232.0 199.1,232.0 211.4,200.3 223.7,123.2 235.9,182.1 248.2,195.7 260.5,182.1 272.7,159.5 285.0,168.5 297.2,182.1 309.5,195.7 321.8,182.1 334.0,177.6 346.3,164.0 358.6,186.7 370.8,182.1 383.1,191.2 395.3,204.8 407.6,191.2 419.9,182.1 432.1,195.7 444.4,200.3 456.7,173.1 468.9,159.5 481.2,177.6 493.4,182.1 505.7,177.6 518.0,177.6 530.2,186.7 542.5,186.7 554.8,191.2 567.0,200.3 579.3,195.7 591.5,200.3 603.8,191.2 616.1,177.6 628.3,182.1 640.6,191.2 652.9,177.6 665.1,191.2 677.4,173.1 689.6,222.9 701.9,195.7 714.2,200.3 726.4,191.2 738.7,209.3 751.0,222.9 763.2,200.3 775.5,209.3 787.7,182.1 800.0,186.7"
            fill="none" stroke="#f28e2b"
            stroke-width="2" stroke-linejoin="round"
            stroke-dasharray="5,3"/>

  <!-- dots -->
  <circle cx="52.0" cy="232.0" r="3" fill="#4e79a7"/><circle cx="64.3" cy="232.0" r="3" fill="#4e79a7"/><circle cx="76.5" cy="232.0" r="3" fill="#4e79a7"/><circle cx="88.8" cy="232.0" r="3" fill="#4e79a7"/><circle cx="101.0" cy="232.0" r="3" fill="#4e79a7"/><circle cx="113.3" cy="232.0" r="3" fill="#4e79a7"/><circle cx="125.6" cy="232.0" r="3" fill="#4e79a7"/><circle cx="137.8" cy="232.0" r="3" fill="#4e79a7"/><circle cx="150.1" cy="232.0" r="3" fill="#4e79a7"/><circle cx="162.4" cy="232.0" r="3" fill="#4e79a7"/><circle cx="174.6" cy="232.0" r="3" fill="#4e79a7"/><circle cx="186.9" cy="232.0" r="3" fill="#4e79a7"/><circle cx="199.1" cy="232.0" r="3" fill="#4e79a7"/><circle cx="211.4" cy="200.3" r="3" fill="#4e79a7"/><circle cx="223.7" cy="50.7" r="3" fill="#4e79a7"/><circle cx="235.9" cy="168.5" r="3" fill="#4e79a7"/><circle cx="248.2" cy="182.1" r="3" fill="#4e79a7"/><circle cx="260.5" cy="168.5" r="3" fill="#4e79a7"/><circle cx="272.7" cy="145.9" r="3" fill="#4e79a7"/><circle cx="285.0" cy="145.9" r="3" fill="#4e79a7"/><circle cx="297.2" cy="164.0" r="3" fill="#4e79a7"/><circle cx="309.5" cy="177.6" r="3" fill="#4e79a7"/><circle cx="321.8" cy="168.5" r="3" fill="#4e79a7"/><circle cx="334.0" cy="164.0" r="3" fill="#4e79a7"/><circle cx="346.3" cy="150.4" r="3" fill="#4e79a7"/><circle cx="358.6" cy="173.1" r="3" fill="#4e79a7"/><circle cx="370.8" cy="168.5" r="3" fill="#4e79a7"/><circle cx="383.1" cy="177.6" r="3" fill="#4e79a7"/><circle cx="395.3" cy="204.8" r="3" fill="#4e79a7"/><circle cx="407.6" cy="159.5" r="3" fill="#4e79a7"/><circle cx="419.9" cy="168.5" r="3" fill="#4e79a7"/><circle cx="432.1" cy="182.1" r="3" fill="#4e79a7"/><circle cx="444.4" cy="173.1" r="3" fill="#4e79a7"/><circle cx="456.7" cy="118.7" r="3" fill="#4e79a7"/><circle cx="468.9" cy="105.1" r="3" fill="#4e79a7"/><circle cx="481.2" cy="132.3" r="3" fill="#4e79a7"/><circle cx="493.4" cy="154.9" r="3" fill="#4e79a7"/><circle cx="505.7" cy="136.8" r="3" fill="#4e79a7"/><circle cx="518.0" cy="28.0" r="3" fill="#4e79a7"/><circle cx="530.2" cy="173.1" r="3" fill="#4e79a7"/><circle cx="542.5" cy="173.1" r="3" fill="#4e79a7"/><circle cx="554.8" cy="177.6" r="3" fill="#4e79a7"/><circle cx="567.0" cy="186.7" r="3" fill="#4e79a7"/><circle cx="579.3" cy="182.1" r="3" fill="#4e79a7"/><circle cx="591.5" cy="186.7" r="3" fill="#4e79a7"/><circle cx="603.8" cy="191.2" r="3" fill="#4e79a7"/><circle cx="616.1" cy="164.0" r="3" fill="#4e79a7"/><circle cx="628.3" cy="168.5" r="3" fill="#4e79a7"/><circle cx="640.6" cy="177.6" r="3" fill="#4e79a7"/><circle cx="652.9" cy="164.0" r="3" fill="#4e79a7"/><circle cx="665.1" cy="177.6" r="3" fill="#4e79a7"/><circle cx="677.4" cy="154.9" r="3" fill="#4e79a7"/><circle cx="689.6" cy="222.9" r="3" fill="#4e79a7"/><circle cx="701.9" cy="182.1" r="3" fill="#4e79a7"/><circle cx="714.2" cy="173.1" r="3" fill="#4e79a7"/><circle cx="726.4" cy="177.6" r="3" fill="#4e79a7"/><circle cx="738.7" cy="209.3" r="3" fill="#4e79a7"/><circle cx="751.0" cy="222.9" r="3" fill="#4e79a7"/><circle cx="763.2" cy="186.7" r="3" fill="#4e79a7"/><circle cx="775.5" cy="204.8" r="3" fill="#4e79a7"/><circle cx="787.7" cy="168.5" r="3" fill="#4e79a7"/><circle cx="800.0" cy="168.5" r="3" fill="#4e79a7"/>
  <circle cx="52.0" cy="232.0" r="3" fill="#f28e2b"/><circle cx="64.3" cy="232.0" r="3" fill="#f28e2b"/><circle cx="76.5" cy="232.0" r="3" fill="#f28e2b"/><circle cx="88.8" cy="232.0" r="3" fill="#f28e2b"/><circle cx="101.0" cy="232.0" r="3" fill="#f28e2b"/><circle cx="113.3" cy="232.0" r="3" fill="#f28e2b"/><circle cx="125.6" cy="232.0" r="3" fill="#f28e2b"/><circle cx="137.8" cy="232.0" r="3" fill="#f28e2b"/><circle cx="150.1" cy="232.0" r="3" fill="#f28e2b"/><circle cx="162.4" cy="232.0" r="3" fill="#f28e2b"/><circle cx="174.6" cy="232.0" r="3" fill="#f28e2b"/><circle cx="186.9" cy="232.0" r="3" fill="#f28e2b"/><circle cx="199.1" cy="232.0" r="3" fill="#f28e2b"/><circle cx="211.4" cy="200.3" r="3" fill="#f28e2b"/><circle cx="223.7" cy="123.2" r="3" fill="#f28e2b"/><circle cx="235.9" cy="182.1" r="3" fill="#f28e2b"/><circle cx="248.2" cy="195.7" r="3" fill="#f28e2b"/><circle cx="260.5" cy="182.1" r="3" fill="#f28e2b"/><circle cx="272.7" cy="159.5" r="3" fill="#f28e2b"/><circle cx="285.0" cy="168.5" r="3" fill="#f28e2b"/><circle cx="297.2" cy="182.1" r="3" fill="#f28e2b"/><circle cx="309.5" cy="195.7" r="3" fill="#f28e2b"/><circle cx="321.8" cy="182.1" r="3" fill="#f28e2b"/><circle cx="334.0" cy="177.6" r="3" fill="#f28e2b"/><circle cx="346.3" cy="164.0" r="3" fill="#f28e2b"/><circle cx="358.6" cy="186.7" r="3" fill="#f28e2b"/><circle cx="370.8" cy="182.1" r="3" fill="#f28e2b"/><circle cx="383.1" cy="191.2" r="3" fill="#f28e2b"/><circle cx="395.3" cy="204.8" r="3" fill="#f28e2b"/><circle cx="407.6" cy="191.2" r="3" fill="#f28e2b"/><circle cx="419.9" cy="182.1" r="3" fill="#f28e2b"/><circle cx="432.1" cy="195.7" r="3" fill="#f28e2b"/><circle cx="444.4" cy="200.3" r="3" fill="#f28e2b"/><circle cx="456.7" cy="173.1" r="3" fill="#f28e2b"/><circle cx="468.9" cy="159.5" r="3" fill="#f28e2b"/><circle cx="481.2" cy="177.6" r="3" fill="#f28e2b"/><circle cx="493.4" cy="182.1" r="3" fill="#f28e2b"/><circle cx="505.7" cy="177.6" r="3" fill="#f28e2b"/><circle cx="518.0" cy="177.6" r="3" fill="#f28e2b"/><circle cx="530.2" cy="186.7" r="3" fill="#f28e2b"/><circle cx="542.5" cy="186.7" r="3" fill="#f28e2b"/><circle cx="554.8" cy="191.2" r="3" fill="#f28e2b"/><circle cx="567.0" cy="200.3" r="3" fill="#f28e2b"/><circle cx="579.3" cy="195.7" r="3" fill="#f28e2b"/><circle cx="591.5" cy="200.3" r="3" fill="#f28e2b"/><circle cx="603.8" cy="191.2" r="3" fill="#f28e2b"/><circle cx="616.1" cy="177.6" r="3" fill="#f28e2b"/><circle cx="628.3" cy="182.1" r="3" fill="#f28e2b"/><circle cx="640.6" cy="191.2" r="3" fill="#f28e2b"/><circle cx="652.9" cy="177.6" r="3" fill="#f28e2b"/><circle cx="665.1" cy="191.2" r="3" fill="#f28e2b"/><circle cx="677.4" cy="173.1" r="3" fill="#f28e2b"/><circle cx="689.6" cy="222.9" r="3" fill="#f28e2b"/><circle cx="701.9" cy="195.7" r="3" fill="#f28e2b"/><circle cx="714.2" cy="200.3" r="3" fill="#f28e2b"/><circle cx="726.4" cy="191.2" r="3" fill="#f28e2b"/><circle cx="738.7" cy="209.3" r="3" fill="#f28e2b"/><circle cx="751.0" cy="222.9" r="3" fill="#f28e2b"/><circle cx="763.2" cy="200.3" r="3" fill="#f28e2b"/><circle cx="775.5" cy="209.3" r="3" fill="#f28e2b"/><circle cx="787.7" cy="182.1" r="3" fill="#f28e2b"/><circle cx="800.0" cy="186.7" r="3" fill="#f28e2b"/>

  <!-- axes -->
  <line x1="52" y1="28" x2="52" y2="232"
        stroke="#cccccc" stroke-width="1"/>
  <line x1="52" y1="232" x2="800" y2="232"
        stroke="#cccccc" stroke-width="1"/>

  <!-- y-axis labels -->
  <text x="47" y="236.0" text-anchor="end" font-size="10" fill="#57606a" font-family="ui-monospace, SFMono-Regular, 'SF Mono', Menlo, monospace">0</text><text x="47" y="195.2" text-anchor="end" font-size="10" fill="#57606a" font-family="ui-monospace, SFMono-Regular, 'SF Mono', Menlo, monospace">9</text><text x="47" y="154.4" text-anchor="end" font-size="10" fill="#57606a" font-family="ui-monospace, SFMono-Regular, 'SF Mono', Menlo, monospace">18</text><text x="47" y="113.6" text-anchor="end" font-size="10" fill="#57606a" font-family="ui-monospace, SFMono-Regular, 'SF Mono', Menlo, monospace">27</text><text x="47" y="72.8" text-anchor="end" font-size="10" fill="#57606a" font-family="ui-monospace, SFMono-Regular, 'SF Mono', Menlo, monospace">36</text><text x="47" y="32.0" text-anchor="end" font-size="10" fill="#57606a" font-family="ui-monospace, SFMono-Regular, 'SF Mono', Menlo, monospace">45</text>

  <!-- x-axis labels -->
  <text x="52.0" y="248" text-anchor="middle" font-size="10" fill="#8c959f" font-family="ui-monospace, SFMono-Regular, 'SF Mono', Menlo, monospace">05-12</text><text x="481.2" y="248" text-anchor="middle" font-size="10" fill="#8c959f" font-family="ui-monospace, SFMono-Regular, 'SF Mono', Menlo, monospace">06-16</text><text x="137.8" y="248" text-anchor="middle" font-size="10" fill="#8c959f" font-family="ui-monospace, SFMono-Regular, 'SF Mono', Menlo, monospace">05-19</text><text x="567.0" y="248" text-anchor="middle" font-size="10" fill="#8c959f" font-family="ui-monospace, SFMono-Regular, 'SF Mono', Menlo, monospace">06-23</text><text x="223.7" y="248" text-anchor="middle" font-size="10" fill="#8c959f" font-family="ui-monospace, SFMono-Regular, 'SF Mono', Menlo, monospace">05-26</text><text x="652.9" y="248" text-anchor="middle" font-size="10" fill="#8c959f" font-family="ui-monospace, SFMono-Regular, 'SF Mono', Menlo, monospace">06-30</text><text x="309.5" y="248" text-anchor="middle" font-size="10" fill="#8c959f" font-family="ui-monospace, SFMono-Regular, 'SF Mono', Menlo, monospace">06-02</text><text x="738.7" y="248" text-anchor="middle" font-size="10" fill="#8c959f" font-family="ui-monospace, SFMono-Regular, 'SF Mono', Menlo, monospace">07-07</text><text x="395.3" y="248" text-anchor="middle" font-size="10" fill="#8c959f" font-family="ui-monospace, SFMono-Regular, 'SF Mono', Menlo, monospace">06-09</text><text x="800.0" y="248" text-anchor="middle" font-size="10" fill="#8c959f" font-family="ui-monospace, SFMono-Regular, 'SF Mono', Menlo, monospace">07-12</text>

  <!-- legend -->
  <rect x="60" y="262" width="16" height="3" fill="#4e79a7" rx="1"/><text x="80" y="268" font-size="11" fill="#57606a" font-family="-apple-system, BlinkMacSystemFont, 'Segoe UI', sans-serif">Total clones (707)</text><line x1="230" y1="264" x2="246" y2="264" stroke="#f28e2b" stroke-width="2" stroke-dasharray="5,3"/><text x="250" y="268" font-size="11" fill="#57606a" font-family="-apple-system, BlinkMacSystemFont, 'Segoe UI', sans-serif">Unique cloners</text>

</svg>