<svg xmlns="http://www.w3.org/2000/svg" viewBox="0 0 820 280" width="820" height="280">

  <!-- title -->
  <text x="52" y="18" font-size="13" font-weight="600"
        fill="#24292f" font-family="-apple-system, BlinkMacSystemFont, 'Segoe UI', sans-serif"
        >Clone traffic — stats</text>
  <text x="800" y="18" font-size="10" fill="#8c959f"
        font-family="ui-monospace, SFMono-Regular, 'SF Mono', Menlo, monospace" text-anchor="end">2026-07-22</text>

  <!-- grid -->
  <line x1="52" y1="232.0" x2="800" y2="232.0" stroke="#e8e8e8" stroke-width="1"/><line x1="52" y1="191.2" x2="800" y2="191.2" stroke="#e8e8e8" stroke-width="1"/><line x1="52" y1="150.4" x2="800" y2="150.4" stroke="#e8e8e8" stroke-width="1"/><line x1="52" y1="109.6" x2="800" y2="109.6" stroke="#e8e8e8" stroke-width="1"/><line x1="52" y1="68.8" x2="800" y2="68.8" stroke="#e8e8e8" stroke-width="1"/><line x1="52" y1="28.0" x2="800" y2="28.0" stroke="#e8e8e8" stroke-width="1"/>

  <!-- area fill -->
  <path d="M52.0,232.0 L52.0,232.0 L62.8,232.0 L73.7,232.0 L84.5,232.0 L95.4,232.0 L106.2,232.0 L117.0,232.0 L127.9,232.0 L138.7,232.0 L149.6,232.0 L160.4,232.0 L171.2,232.0 L182.1,232.0 L192.9,200.3 L203.8,50.7 L214.6,168.5 L225.4,182.1 L236.3,168.5 L247.1,145.9 L258.0,145.9 L268.8,164.0 L279.7,177.6 L290.5,168.5 L301.3,164.0 L312.2,150.4 L323.0,173.1 L333.9,168.5 L344.7,177.6 L355.5,204.8 L366.4,159.5 L377.2,168.5 L388.1,182.1 L398.9,173.1 L409.7,118.7 L420.6,105.1 L431.4,132.3 L442.3,154.9 L453.1,136.8 L463.9,28.0 L474.8,173.1 L485.6,173.1 L496.5,177.6 L507.3,186.7 L518.1,182.1 L529.0,186.7 L539.8,191.2 L550.7,164.0 L561.5,168.5 L572.3,177.6 L583.2,164.0 L594.0,177.6 L604.9,154.9 L615.7,222.9 L626.6,182.1 L637.4,173.1 L648.2,177.6 L659.1,209.3 L669.9,222.9 L680.8,186.7 L691.6,204.8 L702.4,168.5 L713.3,168.5 L724.1,209.3 L735.0,177.6 L745.8,191.2 L756.6,209.3 L767.5,191.2 L778.3,209.3 L789.2,222.9 L800.0,222.9 L800.0,232.0 L52.0,232.0Z" fill="#4e79a7" opacity="0.12"/>

  <!-- lines -->
  <polyline points="52.0,232.0 62.8,232.0 73.7,232.0 84.5,232.0 95.4,232.0 106.2,232.0 117.0,232.0 127.9,232.0 138.7,232.0 149.6,232.0 160.4,232.0 171.2,232.0 182.1,232.0 192.9,200.3 203.8,50.7 214.6,168.5 225.4,182.1 236.3,168.5 247.1,145.9 258.0,145.9 268.8,164.0 279.7,177.6 290.5,168.5 301.3,164.0 312.2,150.4 323.0,173.1 333.9,168.5 344.7,177.6 355.5,204.8 366.4,159.5 377.2,168.5 388.1,182.1 398.9,173.1 409.7,118.7 420.6,105.1 431.4,132.3 442.3,154.9 453.1,136.8 463.9,28.0 474.8,173.1 485.6,173.1 496.5,177.6 507.3,186.7 518.1,182.1 529.0,186.7 539.8,191.2 550.7,164.0 561.5,168.5 572.3,177.6 583.2,164.0 594.0,177.6 604.9,154.9 615.7,222.9 626.6,182.1 637.4,173.1 648.2,177.6 659.1,209.3 669.9,222.9 680.8,186.7 691.6,204.8 702.4,168.5 713.3,168.5 724.1,209.3 735.0,177.6 745.8,191.2 756.6,209.3 767.5,191.2 778.3,209.3 789.2,222.9 800.0,222.9"
            fill="none" stroke="#4e79a7"
            stroke-width="2" stroke-linejoin="round"/>
  <polyline points="52.0,232.0 62.8,232.0 73.7,232.0 84.5,232.0 95.4,232.0 106.2,232.0 117.0,232.0 127.9,232.0 138.7,232.0 149.6,232.0 160.4,232.0 171.2,232.0 182.1,232.0 192.9,200.3 203.8,123.2 214.6,182.1 225.4,195.7 236.3,182.1 247.1,159.5 258.0,168.5 268.8,182.1 279.7,195.7 290.5,182.1 301.3,177.6 312.2,164.0 323.0,186.7 333.9,182.1 344.7,191.2 355.5,204.8 366.4,191.2 377.2,182.1 388.1,195.7 398.9,200.3 409.7,173.1 420.6,159.5 431.4,177.6 442.3,182.1 453.1,177.6 463.9,177.6 474.8,186.7 485.6,186.7 496.5,191.2 507.3,200.3 518.1,195.7 529.0,200.3 539.8,191.2 550.7,177.6 561.5,182.1 572.3,191.2 583.2,177.6 594.0,191.2 604.9,173.1 615.7,222.9 626.6,195.7 637.4,200.3 648.2,191.2 659.1,209.3 669.9,222.9 680.8,200.3 691.6,209.3 702.4,182.1 713.3,186.7 724.1,209.3 735.0,191.2 745.8,209.3 756.6,209.3 767.5,204.8 778.3,209.3 789.2,222.9 800.0,222.9"
            fill="none" stroke="#f28e2b"
            stroke-width="2" stroke-linejoin="round"
            stroke-dasharray="5,3"/>

  <!-- dots -->
  <circle cx="52.0" cy="232.0" r="3" fill="#4e79a7"/><circle cx="62.8" cy="232.0" r="3" fill="#4e79a7"/><circle cx="73.7" cy="232.0" r="3" fill="#4e79a7"/><circle cx="84.5" cy="232.0" r="3" fill="#4e79a7"/><circle cx="95.4" cy="232.0" r="3" fill="#4e79a7"/><circle cx="106.2" cy="232.0" r="3" fill="#4e79a7"/><circle cx="117.0" cy="232.0" r="3" fill="#4e79a7"/><circle cx="127.9" cy="232.0" r="3" fill="#4e79a7"/><circle cx="138.7" cy="232.0" r="3" fill="#4e79a7"/><circle cx="149.6" cy="232.0" r="3" fill="#4e79a7"/><circle cx="160.4" cy="232.0" r="3" fill="#4e79a7"/><circle cx="171.2" cy="232.0" r="3" fill="#4e79a7"/><circle cx="182.1" cy="232.0" r="3" fill="#4e79a7"/><circle cx="192.9" cy="200.3" r="3" fill="#4e79a7"/><circle cx="203.8" cy="50.7" r="3" fill="#4e79a7"/><circle cx="214.6" cy="168.5" r="3" fill="#4e79a7"/><circle cx="225.4" cy="182.1" r="3" fill="#4e79a7"/><circle cx="236.3" cy="168.5" r="3" fill="#4e79a7"/><circle cx="247.1" cy="145.9" r="3" fill="#4e79a7"/><circle cx="258.0" cy="145.9" r="3" fill="#4e79a7"/><circle cx="268.8" cy="164.0" r="3" fill="#4e79a7"/><circle cx="279.7" cy="177.6" r="3" fill="#4e79a7"/><circle cx="290.5" cy="168.5" r="3" fill="#4e79a7"/><circle cx="301.3" cy="164.0" r="3" fill="#4e79a7"/><circle cx="312.2" cy="150.4" r="3" fill="#4e79a7"/><circle cx="323.0" cy="173.1" r="3" fill="#4e79a7"/><circle cx="333.9" cy="168.5" r="3" fill="#4e79a7"/><circle cx="344.7" cy="177.6" r="3" fill="#4e79a7"/><circle cx="355.5" cy="204.8" r="3" fill="#4e79a7"/><circle cx="366.4" cy="159.5" r="3" fill="#4e79a7"/><circle cx="377.2" cy="168.5" r="3" fill="#4e79a7"/><circle cx="388.1" cy="182.1" r="3" fill="#4e79a7"/><circle cx="398.9" cy="173.1" r="3" fill="#4e79a7"/><circle cx="409.7" cy="118.7" r="3" fill="#4e79a7"/><circle cx="420.6" cy="105.1" r="3" fill="#4e79a7"/><circle cx="431.4" cy="132.3" r="3" fill="#4e79a7"/><circle cx="442.3" cy="154.9" r="3" fill="#4e79a7"/><circle cx="453.1" cy="136.8" r="3" fill="#4e79a7"/><circle cx="463.9" cy="28.0" r="3" fill="#4e79a7"/><circle cx="474.8" cy="173.1" r="3" fill="#4e79a7"/><circle cx="485.6" cy="173.1" r="3" fill="#4e79a7"/><circle cx="496.5" cy="177.6" r="3" fill="#4e79a7"/><circle cx="507.3" cy="186.7" r="3" fill="#4e79a7"/><circle cx="518.1" cy="182.1" r="3" fill="#4e79a7"/><circle cx="529.0" cy="186.7" r="3" fill="#4e79a7"/><circle cx="539.8" cy="191.2" r="3" fill="#4e79a7"/><circle cx="550.7" cy="164.0" r="3" fill="#4e79a7"/><circle cx="561.5" cy="168.5" r="3" fill="#4e79a7"/><circle cx="572.3" cy="177.6" r="3" fill="#4e79a7"/><circle cx="583.2" cy="164.0" r="3" fill="#4e79a7"/><circle cx="594.0" cy="177.6" r="3" fill="#4e79a7"/><circle cx="604.9" cy="154.9" r="3" fill="#4e79a7"/><circle cx="615.7" cy="222.9" r="3" fill="#4e79a7"/><circle cx="626.6" cy="182.1" r="3" fill="#4e79a7"/><circle cx="637.4" cy="173.1" r="3" fill="#4e79a7"/><circle cx="648.2" cy="177.6" r="3" fill="#4e79a7"/><circle cx="659.1" cy="209.3" r="3" fill="#4e79a7"/><circle cx="669.9" cy="222.9" r="3" fill="#4e79a7"/><circle cx="680.8" cy="186.7" r="3" fill="#4e79a7"/><circle cx="691.6" cy="204.8" r="3" fill="#4e79a7"/><circle cx="702.4" cy="168.5" r="3" fill="#4e79a7"/><circle cx="713.3" cy="168.5" r="3" fill="#4e79a7"/><circle cx="724.1" cy="209.3" r="3" fill="#4e79a7"/><circle cx="735.0" cy="177.6" r="3" fill="#4e79a7"/><circle cx="745.8" cy="191.2" r="3" fill="#4e79a7"/><circle cx="756.6" cy="209.3" r="3" fill="#4e79a7"/><circle cx="767.5" cy="191.2" r="3" fill="#4e79a7"/><circle cx="778.3" cy="209.3" r="3" fill="#4e79a7"/><circle cx="789.2" cy="222.9" r="3" fill="#4e79a7"/><circle cx="800.0" cy="222.9" r="3" fill="#4e79a7"/>
  <circle cx="52.0" cy="232.0" r="3" fill="#f28e2b"/><circle cx="62.8" cy="232.0" r="3" fill="#f28e2b"/><circle cx="73.7" cy="232.0" r="3" fill="#f28e2b"/><circle cx="84.5" cy="232.0" r="3" fill="#f28e2b"/><circle cx="95.4" cy="232.0" r="3" fill="#f28e2b"/><circle cx="106.2" cy="232.0" r="3" fill="#f28e2b"/><circle cx="117.0" cy="232.0" r="3" fill="#f28e2b"/><circle cx="127.9" cy="232.0" r="3" fill="#f28e2b"/><circle cx="138.7" cy="232.0" r="3" fill="#f28e2b"/><circle cx="149.6" cy="232.0" r="3" fill="#f28e2b"/><circle cx="160.4" cy="232.0" r="3" fill="#f28e2b"/><circle cx="171.2" cy="232.0" r="3" fill="#f28e2b"/><circle cx="182.1" cy="232.0" r="3" fill="#f28e2b"/><circle cx="192.9" cy="200.3" r="3" fill="#f28e2b"/><circle cx="203.8" cy="123.2" r="3" fill="#f28e2b"/><circle cx="214.6" cy="182.1" r="3" fill="#f28e2b"/><circle cx="225.4" cy="195.7" r="3" fill="#f28e2b"/><circle cx="236.3" cy="182.1" r="3" fill="#f28e2b"/><circle cx="247.1" cy="159.5" r="3" fill="#f28e2b"/><circle cx="258.0" cy="168.5" r="3" fill="#f28e2b"/><circle cx="268.8" cy="182.1" r="3" fill="#f28e2b"/><circle cx="279.7" cy="195.7" r="3" fill="#f28e2b"/><circle cx="290.5" cy="182.1" r="3" fill="#f28e2b"/><circle cx="301.3" cy="177.6" r="3" fill="#f28e2b"/><circle cx="312.2" cy="164.0" r="3" fill="#f28e2b"/><circle cx="323.0" cy="186.7" r="3" fill="#f28e2b"/><circle cx="333.9" cy="182.1" r="3" fill="#f28e2b"/><circle cx="344.7" cy="191.2" r="3" fill="#f28e2b"/><circle cx="355.5" cy="204.8" r="3" fill="#f28e2b"/><circle cx="366.4" cy="191.2" r="3" fill="#f28e2b"/><circle cx="377.2" cy="182.1" r="3" fill="#f28e2b"/><circle cx="388.1" cy="195.7" r="3" fill="#f28e2b"/><circle cx="398.9" cy="200.3" r="3" fill="#f28e2b"/><circle cx="409.7" cy="173.1" r="3" fill="#f28e2b"/><circle cx="420.6" cy="159.5" r="3" fill="#f28e2b"/><circle cx="431.4" cy="177.6" r="3" fill="#f28e2b"/><circle cx="442.3" cy="182.1" r="3" fill="#f28e2b"/><circle cx="453.1" cy="177.6" r="3" fill="#f28e2b"/><circle cx="463.9" cy="177.6" r="3" fill="#f28e2b"/><circle cx="474.8" cy="186.7" r="3" fill="#f28e2b"/><circle cx="485.6" cy="186.7" r="3" fill="#f28e2b"/><circle cx="496.5" cy="191.2" r="3" fill="#f28e2b"/><circle cx="507.3" cy="200.3" r="3" fill="#f28e2b"/><circle cx="518.1" cy="195.7" r="3" fill="#f28e2b"/><circle cx="529.0" cy="200.3" r="3" fill="#f28e2b"/><circle cx="539.8" cy="191.2" r="3" fill="#f28e2b"/><circle cx="550.7" cy="177.6" r="3" fill="#f28e2b"/><circle cx="561.5" cy="182.1" r="3" fill="#f28e2b"/><circle cx="572.3" cy="191.2" r="3" fill="#f28e2b"/><circle cx="583.2" cy="177.6" r="3" fill="#f28e2b"/><circle cx="594.0" cy="191.2" r="3" fill="#f28e2b"/><circle cx="604.9" cy="173.1" r="3" fill="#f28e2b"/><circle cx="615.7" cy="222.9" r="3" fill="#f28e2b"/><circle cx="626.6" cy="195.7" r="3" fill="#f28e2b"/><circle cx="637.4" cy="200.3" r="3" fill="#f28e2b"/><circle cx="648.2" cy="191.2" r="3" fill="#f28e2b"/><circle cx="659.1" cy="209.3" r="3" fill="#f28e2b"/><circle cx="669.9" cy="222.9" r="3" fill="#f28e2b"/><circle cx="680.8" cy="200.3" r="3" fill="#f28e2b"/><circle cx="691.6" cy="209.3" r="3" fill="#f28e2b"/><circle cx="702.4" cy="182.1" r="3" fill="#f28e2b"/><circle cx="713.3" cy="186.7" r="3" fill="#f28e2b"/><circle cx="724.1" cy="209.3" r="3" fill="#f28e2b"/><circle cx="735.0" cy="191.2" r="3" fill="#f28e2b"/><circle cx="745.8" cy="209.3" r="3" fill="#f28e2b"/><circle cx="756.6" cy="209.3" r="3" fill="#f28e2b"/><circle cx="767.5" cy="204.8" r="3" fill="#f28e2b"/><circle cx="778.3" cy="209.3" r="3" fill="#f28e2b"/><circle cx="789.2" cy="222.9" r="3" fill="#f28e2b"/><circle cx="800.0" cy="222.9" r="3" fill="#f28e2b"/>

  <!-- axes -->
  <line x1="52" y1="28" x2="52" y2="232"
        stroke="#cccccc" stroke-width="1"/>
  <line x1="52" y1="232" x2="800" y2="232"
        stroke="#cccccc" stroke-width="1"/>

  <!-- y-axis labels -->
  <text x="47" y="236.0" text-anchor="end" font-size="10" fill="#57606a" font-family="ui-monospace, SFMono-Regular, 'SF Mono', Menlo, monospace">0</text><text x="47" y="195.2" text-anchor="end" font-size="10" fill="#57606a" font-family="ui-monospace, SFMono-Regular, 'SF Mono', Menlo, monospace">9</text><text x="47" y="154.4" text-anchor="end" font-size="10" fill="#57606a" font-family="ui-monospace, SFMono-Regular, 'SF Mono', Menlo, monospace">18</text><text x="47" y="113.6" text-anchor="end" font-size="10" fill="#57606a" font-family="ui-monospace, SFMono-Regular, 'SF Mono', Menlo, monospace">27</text><text x="47" y="72.8" text-anchor="end" font-size="10" fill="#57606a" font-family="ui-monospace, SFMono-Regular, 'SF Mono', Menlo, monospace">36</text><text x="47" y="32.0" text-anchor="end" font-size="10" fill="#57606a" font-family="ui-monospace, SFMono-Regular, 'SF Mono', Menlo, monospace">45</text>

  <!-- x-axis labels -->
  <text x="52.0" y="248" text-anchor="middle" font-size="10" fill="#8c959f" font-family="ui-monospace, SFMono-Regular, 'SF Mono', Menlo, monospace">05-12</text><text x="398.9" y="248" text-anchor="middle" font-size="10" fill="#8c959f" font-family="ui-monospace, SFMono-Regular, 'SF Mono', Menlo, monospace">06-13</text><text x="745.8" y="248" text-anchor="middle" font-size="10" fill="#8c959f" font-family="ui-monospace, SFMono-Regular, 'SF Mono', Menlo, monospace">07-15</text><text x="800.0" y="248" text-anchor="middle" font-size="10" fill="#8c959f" font-family="ui-monospace, SFMono-Regular, 'SF Mono', Menlo, monospace">07-20</text><text x="138.7" y="248" text-anchor="middle" font-size="10" fill="#8c959f" font-family="ui-monospace, SFMono-Regular, 'SF Mono', Menlo, monospace">05-20</text><text x="485.6" y="248" text-anchor="middle" font-size="10" fill="#8c959f" font-family="ui-monospace, SFMono-Regular, 'SF Mono', Menlo, monospace">06-21</text><text x="225.4" y="248" text-anchor="middle" font-size="10" fill="#8c959f" font-family="ui-monospace, SFMono-Regular, 'SF Mono', Menlo, monospace">05-28</text><text x="572.3" y="248" text-anchor="middle" font-size="10" fill="#8c959f" font-family="ui-monospace, SFMono-Regular, 'SF Mono', Menlo, monospace">06-29</text><text x="312.2" y="248" text-anchor="middle" font-size="10" fill="#8c959f" font-family="ui-monospace, SFMono-Regular, 'SF Mono', Menlo, monospace">06-05</text><text x="659.1" y="248" text-anchor="middle" font-size="10" fill="#8c959f" font-family="ui-monospace, SFMono-Regular, 'SF Mono', Menlo, monospace">07-07</text>

  <!-- legend -->
  <rect x="60" y="262" width="16" height="3" fill="#4e79a7" rx="1"/><text x="80" y="268" font-size="11" fill="#57606a" font-family="-apple-system, BlinkMacSystemFont, 'Segoe UI', sans-serif">Total clones (756)</text><line x1="230" y1="264" x2="246" y2="264" stroke="#f28e2b" stroke-width="2" stroke-dasharray="5,3"/><text x="250" y="268" font-size="11" fill="#57606a" font-family="-apple-system, BlinkMacSystemFont, 'Segoe UI', sans-serif">Unique cloners</text>

</svg>