<svg xmlns="http://www.w3.org/2000/svg" viewBox="0 0 820 280" width="820" height="280">

  <!-- title -->
  <text x="52" y="18" font-size="13" font-weight="600"
        fill="#24292f" font-family="-apple-system, BlinkMacSystemFont, 'Segoe UI', sans-serif"
        >Clone traffic — stats</text>
  <text x="800" y="18" font-size="10" fill="#8c959f"
        font-family="ui-monospace, SFMono-Regular, 'SF Mono', Menlo, monospace" text-anchor="end">2026-06-14</text>

  <!-- grid -->
  <line x1="52" y1="232.0" x2="800" y2="232.0" stroke="#e8e8e8" stroke-width="1"/><line x1="52" y1="191.2" x2="800" y2="191.2" stroke="#e8e8e8" stroke-width="1"/><line x1="52" y1="150.4" x2="800" y2="150.4" stroke="#e8e8e8" stroke-width="1"/><line x1="52" y1="109.6" x2="800" y2="109.6" stroke="#e8e8e8" stroke-width="1"/><line x1="52" y1="68.8" x2="800" y2="68.8" stroke="#e8e8e8" stroke-width="1"/><line x1="52" y1="28.0" x2="800" y2="28.0" stroke="#e8e8e8" stroke-width="1"/>

  <!-- area fill -->
  <path d="M52.0,232.0 L52.0,232.0 L76.1,232.0 L100.3,232.0 L124.4,232.0 L148.5,232.0 L172.6,232.0 L196.8,232.0 L220.9,232.0 L245.0,232.0 L269.2,232.0 L293.3,232.0 L317.4,232.0 L341.5,232.0 L365.7,196.3 L389.8,28.0 L413.9,160.6 L438.1,175.9 L462.2,160.6 L486.3,135.1 L510.5,135.1 L534.6,155.5 L558.7,170.8 L582.8,160.6 L607.0,155.5 L631.1,140.2 L655.2,165.7 L679.4,160.6 L703.5,170.8 L727.6,201.4 L751.7,150.4 L775.9,160.6 L800.0,175.9 L800.0,232.0 L52.0,232.0Z" fill="#4e79a7" opacity="0.12"/>

  <!-- lines -->
  <polyline points="52.0,232.0 76.1,232.0 100.3,232.0 124.4,232.0 148.5,232.0 172.6,232.0 196.8,232.0 220.9,232.0 245.0,232.0 269.2,232.0 293.3,232.0 317.4,232.0 341.5,232.0 365.7,196.3 389.8,28.0 413.9,160.6 438.1,175.9 462.2,160.6 486.3,135.1 510.5,135.1 534.6,155.5 558.7,170.8 582.8,160.6 607.0,155.5 631.1,140.2 655.2,165.7 679.4,160.6 703.5,170.8 727.6,201.4 751.7,150.4 775.9,160.6 800.0,175.9"
            fill="none" stroke="#4e79a7"
            stroke-width="2" stroke-linejoin="round"/>
  <polyline points="52.0,232.0 76.1,232.0 100.3,232.0 124.4,232.0 148.5,232.0 172.6,232.0 196.8,232.0 220.9,232.0 245.0,232.0 269.2,232.0 293.3,232.0 317.4,232.0 341.5,232.0 365.7,196.3 389.8,109.6 413.9,175.9 438.1,191.2 462.2,175.9 486.3,150.4 510.5,160.6 534.6,175.9 558.7,191.2 582.8,175.9 607.0,170.8 631.1,155.5 655.2,181.0 679.4,175.9 703.5,186.1 727.6,201.4 751.7,186.1 775.9,175.9 800.0,191.2"
            fill="none" stroke="#f28e2b"
            stroke-width="2" stroke-linejoin="round"
            stroke-dasharray="5,3"/>

  <!-- dots -->
  <circle cx="52.0" cy="232.0" r="3" fill="#4e79a7"/><circle cx="76.1" cy="232.0" r="3" fill="#4e79a7"/><circle cx="100.3" cy="232.0" r="3" fill="#4e79a7"/><circle cx="124.4" cy="232.0" r="3" fill="#4e79a7"/><circle cx="148.5" cy="232.0" r="3" fill="#4e79a7"/><circle cx="172.6" cy="232.0" r="3" fill="#4e79a7"/><circle cx="196.8" cy="232.0" r="3" fill="#4e79a7"/><circle cx="220.9" cy="232.0" r="3" fill="#4e79a7"/><circle cx="245.0" cy="232.0" r="3" fill="#4e79a7"/><circle cx="269.2" cy="232.0" r="3" fill="#4e79a7"/><circle cx="293.3" cy="232.0" r="3" fill="#4e79a7"/><circle cx="317.4" cy="232.0" r="3" fill="#4e79a7"/><circle cx="341.5" cy="232.0" r="3" fill="#4e79a7"/><circle cx="365.7" cy="196.3" r="3" fill="#4e79a7"/><circle cx="389.8" cy="28.0" r="3" fill="#4e79a7"/><circle cx="413.9" cy="160.6" r="3" fill="#4e79a7"/><circle cx="438.1" cy="175.9" r="3" fill="#4e79a7"/><circle cx="462.2" cy="160.6" r="3" fill="#4e79a7"/><circle cx="486.3" cy="135.1" r="3" fill="#4e79a7"/><circle cx="510.5" cy="135.1" r="3" fill="#4e79a7"/><circle cx="534.6" cy="155.5" r="3" fill="#4e79a7"/><circle cx="558.7" cy="170.8" r="3" fill="#4e79a7"/><circle cx="582.8" cy="160.6" r="3" fill="#4e79a7"/><circle cx="607.0" cy="155.5" r="3" fill="#4e79a7"/><circle cx="631.1" cy="140.2" r="3" fill="#4e79a7"/><circle cx="655.2" cy="165.7" r="3" fill="#4e79a7"/><circle cx="679.4" cy="160.6" r="3" fill="#4e79a7"/><circle cx="703.5" cy="170.8" r="3" fill="#4e79a7"/><circle cx="727.6" cy="201.4" r="3" fill="#4e79a7"/><circle cx="751.7" cy="150.4" r="3" fill="#4e79a7"/><circle cx="775.9" cy="160.6" r="3" fill="#4e79a7"/><circle cx="800.0" cy="175.9" r="3" fill="#4e79a7"/>
  <circle cx="52.0" cy="232.0" r="3" fill="#f28e2b"/><circle cx="76.1" cy="232.0" r="3" fill="#f28e2b"/><circle cx="100.3" cy="232.0" r="3" fill="#f28e2b"/><circle cx="124.4" cy="232.0" r="3" fill="#f28e2b"/><circle cx="148.5" cy="232.0" r="3" fill="#f28e2b"/><circle cx="172.6" cy="232.0" r="3" fill="#f28e2b"/><circle cx="196.8" cy="232.0" r="3" fill="#f28e2b"/><circle cx="220.9" cy="232.0" r="3" fill="#f28e2b"/><circle cx="245.0" cy="232.0" r="3" fill="#f28e2b"/><circle cx="269.2" cy="232.0" r="3" fill="#f28e2b"/><circle cx="293.3" cy="232.0" r="3" fill="#f28e2b"/><circle cx="317.4" cy="232.0" r="3" fill="#f28e2b"/><circle cx="341.5" cy="232.0" r="3" fill="#f28e2b"/><circle cx="365.7" cy="196.3" r="3" fill="#f28e2b"/><circle cx="389.8" cy="109.6" r="3" fill="#f28e2b"/><circle cx="413.9" cy="175.9" r="3" fill="#f28e2b"/><circle cx="438.1" cy="191.2" r="3" fill="#f28e2b"/><circle cx="462.2" cy="175.9" r="3" fill="#f28e2b"/><circle cx="486.3" cy="150.4" r="3" fill="#f28e2b"/><circle cx="510.5" cy="160.6" r="3" fill="#f28e2b"/><circle cx="534.6" cy="175.9" r="3" fill="#f28e2b"/><circle cx="558.7" cy="191.2" r="3" fill="#f28e2b"/><circle cx="582.8" cy="175.9" r="3" fill="#f28e2b"/><circle cx="607.0" cy="170.8" r="3" fill="#f28e2b"/><circle cx="631.1" cy="155.5" r="3" fill="#f28e2b"/><circle cx="655.2" cy="181.0" r="3" fill="#f28e2b"/><circle cx="679.4" cy="175.9" r="3" fill="#f28e2b"/><circle cx="703.5" cy="186.1" r="3" fill="#f28e2b"/><circle cx="727.6" cy="201.4" r="3" fill="#f28e2b"/><circle cx="751.7" cy="186.1" r="3" fill="#f28e2b"/><circle cx="775.9" cy="175.9" r="3" fill="#f28e2b"/><circle cx="800.0" cy="191.2" r="3" fill="#f28e2b"/>

  <!-- axes -->
  <line x1="52" y1="28" x2="52" y2="232"
        stroke="#cccccc" stroke-width="1"/>
  <line x1="52" y1="232" x2="800" y2="232"
        stroke="#cccccc" stroke-width="1"/>

  <!-- y-axis labels -->
  <text x="47" y="236.0" text-anchor="end" font-size="10" fill="#57606a" font-family="ui-monospace, SFMono-Regular, 'SF Mono', Menlo, monospace">0</text><text x="47" y="195.2" text-anchor="end" font-size="10" fill="#57606a" font-family="ui-monospace, SFMono-Regular, 'SF Mono', Menlo, monospace">8</text><text x="47" y="154.4" text-anchor="end" font-size="10" fill="#57606a" font-family="ui-monospace, SFMono-Regular, 'SF Mono', Menlo, monospace">16</text><text x="47" y="113.6" text-anchor="end" font-size="10" fill="#57606a" font-family="ui-monospace, SFMono-Regular, 'SF Mono', Menlo, monospace">24</text><text x="47" y="72.8" text-anchor="end" font-size="10" fill="#57606a" font-family="ui-monospace, SFMono-Regular, 'SF Mono', Menlo, monospace">32</text><text x="47" y="32.0" text-anchor="end" font-size="10" fill="#57606a" font-family="ui-monospace, SFMono-Regular, 'SF Mono', Menlo, monospace">40</text>

  <!-- x-axis labels -->
  <text x="52.0" y="248" text-anchor="middle" font-size="10" fill="#8c959f" font-family="ui-monospace, SFMono-Regular, 'SF Mono', Menlo, monospace">05-12</text><text x="148.5" y="248" text-anchor="middle" font-size="10" fill="#8c959f" font-family="ui-monospace, SFMono-Regular, 'SF Mono', Menlo, monospace">05-16</text><text x="245.0" y="248" text-anchor="middle" font-size="10" fill="#8c959f" font-family="ui-monospace, SFMono-Regular, 'SF Mono', Menlo, monospace">05-20</text><text x="341.5" y="248" text-anchor="middle" font-size="10" fill="#8c959f" font-family="ui-monospace, SFMono-Regular, 'SF Mono', Menlo, monospace">05-24</text><text x="438.1" y="248" text-anchor="middle" font-size="10" fill="#8c959f" font-family="ui-monospace, SFMono-Regular, 'SF Mono', Menlo, monospace">05-28</text><text x="534.6" y="248" text-anchor="middle" font-size="10" fill="#8c959f" font-family="ui-monospace, SFMono-Regular, 'SF Mono', Menlo, monospace">06-01</text><text x="631.1" y="248" text-anchor="middle" font-size="10" fill="#8c959f" font-family="ui-monospace, SFMono-Regular, 'SF Mono', Menlo, monospace">06-05</text><text x="727.6" y="248" text-anchor="middle" font-size="10" fill="#8c959f" font-family="ui-monospace, SFMono-Regular, 'SF Mono', Menlo, monospace">06-09</text><text x="800.0" y="248" text-anchor="middle" font-size="10" fill="#8c959f" font-family="ui-monospace, SFMono-Regular, 'SF Mono', Menlo, monospace">06-12</text>

  <!-- legend -->
  <rect x="60" y="262" width="16" height="3" fill="#4e79a7" rx="1"/><text x="80" y="268" font-size="11" fill="#57606a" font-family="-apple-system, BlinkMacSystemFont, 'Segoe UI', sans-serif">Total clones (284)</text><line x1="230" y1="264" x2="246" y2="264" stroke="#f28e2b" stroke-width="2" stroke-dasharray="5,3"/><text x="250" y="268" font-size="11" fill="#57606a" font-family="-apple-system, BlinkMacSystemFont, 'Segoe UI', sans-serif">Unique cloners</text>

</svg>