<svg xmlns="http://www.w3.org/2000/svg" viewBox="0 0 820 280" width="820" height="280">

  <!-- title -->
  <text x="52" y="18" font-size="13" font-weight="600"
        fill="#24292f" font-family="-apple-system, BlinkMacSystemFont, 'Segoe UI', sans-serif"
        >Clone traffic — stats</text>
  <text x="800" y="18" font-size="10" fill="#8c959f"
        font-family="ui-monospace, SFMono-Regular, 'SF Mono', Menlo, monospace" text-anchor="end">2026-07-01</text>

  <!-- grid -->
  <line x1="52" y1="232.0" x2="800" y2="232.0" stroke="#e8e8e8" stroke-width="1"/><line x1="52" y1="191.2" x2="800" y2="191.2" stroke="#e8e8e8" stroke-width="1"/><line x1="52" y1="150.4" x2="800" y2="150.4" stroke="#e8e8e8" stroke-width="1"/><line x1="52" y1="109.6" x2="800" y2="109.6" stroke="#e8e8e8" stroke-width="1"/><line x1="52" y1="68.8" x2="800" y2="68.8" stroke="#e8e8e8" stroke-width="1"/><line x1="52" y1="28.0" x2="800" y2="28.0" stroke="#e8e8e8" stroke-width="1"/>

  <!-- area fill -->
  <path d="M52.0,232.0 L52.0,232.0 L67.6,232.0 L83.2,232.0 L98.8,232.0 L114.3,232.0 L129.9,232.0 L145.5,232.0 L161.1,232.0 L176.7,232.0 L192.2,232.0 L207.8,232.0 L223.4,232.0 L239.0,232.0 L254.6,200.3 L270.2,50.7 L285.8,168.5 L301.3,182.1 L316.9,168.5 L332.5,145.9 L348.1,145.9 L363.7,164.0 L379.2,177.6 L394.8,168.5 L410.4,164.0 L426.0,150.4 L441.6,173.1 L457.2,168.5 L472.8,177.6 L488.3,204.8 L503.9,159.5 L519.5,168.5 L535.1,182.1 L550.7,173.1 L566.2,118.7 L581.8,105.1 L597.4,132.3 L613.0,154.9 L628.6,136.8 L644.2,28.0 L659.8,173.1 L675.3,173.1 L690.9,177.6 L706.5,186.7 L722.1,182.1 L737.7,186.7 L753.2,191.2 L768.8,164.0 L784.4,168.5 L800.0,177.6 L800.0,232.0 L52.0,232.0Z" fill="#4e79a7" opacity="0.12"/>

  <!-- lines -->
  <polyline points="52.0,232.0 67.6,232.0 83.2,232.0 98.8,232.0 114.3,232.0 129.9,232.0 145.5,232.0 161.1,232.0 176.7,232.0 192.2,232.0 207.8,232.0 223.4,232.0 239.0,232.0 254.6,200.3 270.2,50.7 285.8,168.5 301.3,182.1 316.9,168.5 332.5,145.9 348.1,145.9 363.7,164.0 379.2,177.6 394.8,168.5 410.4,164.0 426.0,150.4 441.6,173.1 457.2,168.5 472.8,177.6 488.3,204.8 503.9,159.5 519.5,168.5 535.1,182.1 550.7,173.1 566.2,118.7 581.8,105.1 597.4,132.3 613.0,154.9 628.6,136.8 644.2,28.0 659.8,173.1 675.3,173.1 690.9,177.6 706.5,186.7 722.1,182.1 737.7,186.7 753.2,191.2 768.8,164.0 784.4,168.5 800.0,177.6"
            fill="none" stroke="#4e79a7"
            stroke-width="2" stroke-linejoin="round"/>
  <polyline points="52.0,232.0 67.6,232.0 83.2,232.0 98.8,232.0 114.3,232.0 129.9,232.0 145.5,232.0 161.1,232.0 176.7,232.0 192.2,232.0 207.8,232.0 223.4,232.0 239.0,232.0 254.6,200.3 270.2,123.2 285.8,182.1 301.3,195.7 316.9,182.1 332.5,159.5 348.1,168.5 363.7,182.1 379.2,195.7 394.8,182.1 410.4,177.6 426.0,164.0 441.6,186.7 457.2,182.1 472.8,191.2 488.3,204.8 503.9,191.2 519.5,182.1 535.1,195.7 550.7,200.3 566.2,173.1 581.8,159.5 597.4,177.6 613.0,182.1 628.6,177.6 644.2,177.6 659.8,186.7 675.3,186.7 690.9,191.2 706.5,200.3 722.1,195.7 737.7,200.3 753.2,191.2 768.8,177.6 784.4,182.1 800.0,191.2"
            fill="none" stroke="#f28e2b"
            stroke-width="2" stroke-linejoin="round"
            stroke-dasharray="5,3"/>

  <!-- dots -->
  <circle cx="52.0" cy="232.0" r="3" fill="#4e79a7"/><circle cx="67.6" cy="232.0" r="3" fill="#4e79a7"/><circle cx="83.2" cy="232.0" r="3" fill="#4e79a7"/><circle cx="98.8" cy="232.0" r="3" fill="#4e79a7"/><circle cx="114.3" cy="232.0" r="3" fill="#4e79a7"/><circle cx="129.9" cy="232.0" r="3" fill="#4e79a7"/><circle cx="145.5" cy="232.0" r="3" fill="#4e79a7"/><circle cx="161.1" cy="232.0" r="3" fill="#4e79a7"/><circle cx="176.7" cy="232.0" r="3" fill="#4e79a7"/><circle cx="192.2" cy="232.0" r="3" fill="#4e79a7"/><circle cx="207.8" cy="232.0" r="3" fill="#4e79a7"/><circle cx="223.4" cy="232.0" r="3" fill="#4e79a7"/><circle cx="239.0" cy="232.0" r="3" fill="#4e79a7"/><circle cx="254.6" cy="200.3" r="3" fill="#4e79a7"/><circle cx="270.2" cy="50.7" r="3" fill="#4e79a7"/><circle cx="285.8" cy="168.5" r="3" fill="#4e79a7"/><circle cx="301.3" cy="182.1" r="3" fill="#4e79a7"/><circle cx="316.9" cy="168.5" r="3" fill="#4e79a7"/><circle cx="332.5" cy="145.9" r="3" fill="#4e79a7"/><circle cx="348.1" cy="145.9" r="3" fill="#4e79a7"/><circle cx="363.7" cy="164.0" r="3" fill="#4e79a7"/><circle cx="379.2" cy="177.6" r="3" fill="#4e79a7"/><circle cx="394.8" cy="168.5" r="3" fill="#4e79a7"/><circle cx="410.4" cy="164.0" r="3" fill="#4e79a7"/><circle cx="426.0" cy="150.4" r="3" fill="#4e79a7"/><circle cx="441.6" cy="173.1" r="3" fill="#4e79a7"/><circle cx="457.2" cy="168.5" r="3" fill="#4e79a7"/><circle cx="472.8" cy="177.6" r="3" fill="#4e79a7"/><circle cx="488.3" cy="204.8" r="3" fill="#4e79a7"/><circle cx="503.9" cy="159.5" r="3" fill="#4e79a7"/><circle cx="519.5" cy="168.5" r="3" fill="#4e79a7"/><circle cx="535.1" cy="182.1" r="3" fill="#4e79a7"/><circle cx="550.7" cy="173.1" r="3" fill="#4e79a7"/><circle cx="566.2" cy="118.7" r="3" fill="#4e79a7"/><circle cx="581.8" cy="105.1" r="3" fill="#4e79a7"/><circle cx="597.4" cy="132.3" r="3" fill="#4e79a7"/><circle cx="613.0" cy="154.9" r="3" fill="#4e79a7"/><circle cx="628.6" cy="136.8" r="3" fill="#4e79a7"/><circle cx="644.2" cy="28.0" r="3" fill="#4e79a7"/><circle cx="659.8" cy="173.1" r="3" fill="#4e79a7"/><circle cx="675.3" cy="173.1" r="3" fill="#4e79a7"/><circle cx="690.9" cy="177.6" r="3" fill="#4e79a7"/><circle cx="706.5" cy="186.7" r="3" fill="#4e79a7"/><circle cx="722.1" cy="182.1" r="3" fill="#4e79a7"/><circle cx="737.7" cy="186.7" r="3" fill="#4e79a7"/><circle cx="753.2" cy="191.2" r="3" fill="#4e79a7"/><circle cx="768.8" cy="164.0" r="3" fill="#4e79a7"/><circle cx="784.4" cy="168.5" r="3" fill="#4e79a7"/><circle cx="800.0" cy="177.6" r="3" fill="#4e79a7"/>
  <circle cx="52.0" cy="232.0" r="3" fill="#f28e2b"/><circle cx="67.6" cy="232.0" r="3" fill="#f28e2b"/><circle cx="83.2" cy="232.0" r="3" fill="#f28e2b"/><circle cx="98.8" cy="232.0" r="3" fill="#f28e2b"/><circle cx="114.3" cy="232.0" r="3" fill="#f28e2b"/><circle cx="129.9" cy="232.0" r="3" fill="#f28e2b"/><circle cx="145.5" cy="232.0" r="3" fill="#f28e2b"/><circle cx="161.1" cy="232.0" r="3" fill="#f28e2b"/><circle cx="176.7" cy="232.0" r="3" fill="#f28e2b"/><circle cx="192.2" cy="232.0" r="3" fill="#f28e2b"/><circle cx="207.8" cy="232.0" r="3" fill="#f28e2b"/><circle cx="223.4" cy="232.0" r="3" fill="#f28e2b"/><circle cx="239.0" cy="232.0" r="3" fill="#f28e2b"/><circle cx="254.6" cy="200.3" r="3" fill="#f28e2b"/><circle cx="270.2" cy="123.2" r="3" fill="#f28e2b"/><circle cx="285.8" cy="182.1" r="3" fill="#f28e2b"/><circle cx="301.3" cy="195.7" r="3" fill="#f28e2b"/><circle cx="316.9" cy="182.1" r="3" fill="#f28e2b"/><circle cx="332.5" cy="159.5" r="3" fill="#f28e2b"/><circle cx="348.1" cy="168.5" r="3" fill="#f28e2b"/><circle cx="363.7" cy="182.1" r="3" fill="#f28e2b"/><circle cx="379.2" cy="195.7" r="3" fill="#f28e2b"/><circle cx="394.8" cy="182.1" r="3" fill="#f28e2b"/><circle cx="410.4" cy="177.6" r="3" fill="#f28e2b"/><circle cx="426.0" cy="164.0" r="3" fill="#f28e2b"/><circle cx="441.6" cy="186.7" r="3" fill="#f28e2b"/><circle cx="457.2" cy="182.1" r="3" fill="#f28e2b"/><circle cx="472.8" cy="191.2" r="3" fill="#f28e2b"/><circle cx="488.3" cy="204.8" r="3" fill="#f28e2b"/><circle cx="503.9" cy="191.2" r="3" fill="#f28e2b"/><circle cx="519.5" cy="182.1" r="3" fill="#f28e2b"/><circle cx="535.1" cy="195.7" r="3" fill="#f28e2b"/><circle cx="550.7" cy="200.3" r="3" fill="#f28e2b"/><circle cx="566.2" cy="173.1" r="3" fill="#f28e2b"/><circle cx="581.8" cy="159.5" r="3" fill="#f28e2b"/><circle cx="597.4" cy="177.6" r="3" fill="#f28e2b"/><circle cx="613.0" cy="182.1" r="3" fill="#f28e2b"/><circle cx="628.6" cy="177.6" r="3" fill="#f28e2b"/><circle cx="644.2" cy="177.6" r="3" fill="#f28e2b"/><circle cx="659.8" cy="186.7" r="3" fill="#f28e2b"/><circle cx="675.3" cy="186.7" r="3" fill="#f28e2b"/><circle cx="690.9" cy="191.2" r="3" fill="#f28e2b"/><circle cx="706.5" cy="200.3" r="3" fill="#f28e2b"/><circle cx="722.1" cy="195.7" r="3" fill="#f28e2b"/><circle cx="737.7" cy="200.3" r="3" fill="#f28e2b"/><circle cx="753.2" cy="191.2" r="3" fill="#f28e2b"/><circle cx="768.8" cy="177.6" r="3" fill="#f28e2b"/><circle cx="784.4" cy="182.1" r="3" fill="#f28e2b"/><circle cx="800.0" cy="191.2" r="3" fill="#f28e2b"/>

  <!-- axes -->
  <line x1="52" y1="28" x2="52" y2="232"
        stroke="#cccccc" stroke-width="1"/>
  <line x1="52" y1="232" x2="800" y2="232"
        stroke="#cccccc" stroke-width="1"/>

  <!-- y-axis labels -->
  <text x="47" y="236.0" text-anchor="end" font-size="10" fill="#57606a" font-family="ui-monospace, SFMono-Regular, 'SF Mono', Menlo, monospace">0</text><text x="47" y="195.2" text-anchor="end" font-size="10" fill="#57606a" font-family="ui-monospace, SFMono-Regular, 'SF Mono', Menlo, monospace">9</text><text x="47" y="154.4" text-anchor="end" font-size="10" fill="#57606a" font-family="ui-monospace, SFMono-Regular, 'SF Mono', Menlo, monospace">18</text><text x="47" y="113.6" text-anchor="end" font-size="10" fill="#57606a" font-family="ui-monospace, SFMono-Regular, 'SF Mono', Menlo, monospace">27</text><text x="47" y="72.8" text-anchor="end" font-size="10" fill="#57606a" font-family="ui-monospace, SFMono-Regular, 'SF Mono', Menlo, monospace">36</text><text x="47" y="32.0" text-anchor="end" font-size="10" fill="#57606a" font-family="ui-monospace, SFMono-Regular, 'SF Mono', Menlo, monospace">45</text>

  <!-- x-axis labels -->
  <text x="52.0" y="248" text-anchor="middle" font-size="10" fill="#8c959f" font-family="ui-monospace, SFMono-Regular, 'SF Mono', Menlo, monospace">05-12</text><text x="613.0" y="248" text-anchor="middle" font-size="10" fill="#8c959f" font-family="ui-monospace, SFMono-Regular, 'SF Mono', Menlo, monospace">06-17</text><text x="145.5" y="248" text-anchor="middle" font-size="10" fill="#8c959f" font-family="ui-monospace, SFMono-Regular, 'SF Mono', Menlo, monospace">05-18</text><text x="706.5" y="248" text-anchor="middle" font-size="10" fill="#8c959f" font-family="ui-monospace, SFMono-Regular, 'SF Mono', Menlo, monospace">06-23</text><text x="239.0" y="248" text-anchor="middle" font-size="10" fill="#8c959f" font-family="ui-monospace, SFMono-Regular, 'SF Mono', Menlo, monospace">05-24</text><text x="800.0" y="248" text-anchor="middle" font-size="10" fill="#8c959f" font-family="ui-monospace, SFMono-Regular, 'SF Mono', Menlo, monospace">06-29</text><text x="332.5" y="248" text-anchor="middle" font-size="10" fill="#8c959f" font-family="ui-monospace, SFMono-Regular, 'SF Mono', Menlo, monospace">05-30</text><text x="426.0" y="248" text-anchor="middle" font-size="10" fill="#8c959f" font-family="ui-monospace, SFMono-Regular, 'SF Mono', Menlo, monospace">06-05</text><text x="519.5" y="248" text-anchor="middle" font-size="10" fill="#8c959f" font-family="ui-monospace, SFMono-Regular, 'SF Mono', Menlo, monospace">06-11</text>

  <!-- legend -->
  <rect x="60" y="262" width="16" height="3" fill="#4e79a7" rx="1"/><text x="80" y="268" font-size="11" fill="#57606a" font-family="-apple-system, BlinkMacSystemFont, 'Segoe UI', sans-serif">Total clones (574)</text><line x1="230" y1="264" x2="246" y2="264" stroke="#f28e2b" stroke-width="2" stroke-dasharray="5,3"/><text x="250" y="268" font-size="11" fill="#57606a" font-family="-apple-system, BlinkMacSystemFont, 'Segoe UI', sans-serif">Unique cloners</text>

</svg>