<svg xmlns="http://www.w3.org/2000/svg" viewBox="0 0 820 280" width="820" height="280">

  <!-- title -->
  <text x="52" y="18" font-size="13" font-weight="600"
        fill="#24292f" font-family="-apple-system, BlinkMacSystemFont, 'Segoe UI', sans-serif"
        >Clone traffic — stats</text>
  <text x="800" y="18" font-size="10" fill="#8c959f"
        font-family="ui-monospace, SFMono-Regular, 'SF Mono', Menlo, monospace" text-anchor="end">2026-06-24</text>

  <!-- grid -->
  <line x1="52" y1="232.0" x2="800" y2="232.0" stroke="#e8e8e8" stroke-width="1"/><line x1="52" y1="191.2" x2="800" y2="191.2" stroke="#e8e8e8" stroke-width="1"/><line x1="52" y1="150.4" x2="800" y2="150.4" stroke="#e8e8e8" stroke-width="1"/><line x1="52" y1="109.6" x2="800" y2="109.6" stroke="#e8e8e8" stroke-width="1"/><line x1="52" y1="68.8" x2="800" y2="68.8" stroke="#e8e8e8" stroke-width="1"/><line x1="52" y1="28.0" x2="800" y2="28.0" stroke="#e8e8e8" stroke-width="1"/>

  <!-- area fill -->
  <path d="M52.0,232.0 L52.0,232.0 L70.2,232.0 L88.5,232.0 L106.7,232.0 L125.0,232.0 L143.2,232.0 L161.5,232.0 L179.7,232.0 L198.0,232.0 L216.2,232.0 L234.4,232.0 L252.7,232.0 L270.9,232.0 L289.2,200.3 L307.4,50.7 L325.7,168.5 L343.9,182.1 L362.1,168.5 L380.4,145.9 L398.6,145.9 L416.9,164.0 L435.1,177.6 L453.4,168.5 L471.6,164.0 L489.9,150.4 L508.1,173.1 L526.3,168.5 L544.6,177.6 L562.8,204.8 L581.1,159.5 L599.3,168.5 L617.6,182.1 L635.8,173.1 L654.0,118.7 L672.3,105.1 L690.5,132.3 L708.8,154.9 L727.0,136.8 L745.3,28.0 L763.5,173.1 L781.8,173.1 L800.0,177.6 L800.0,232.0 L52.0,232.0Z" fill="#4e79a7" opacity="0.12"/>

  <!-- lines -->
  <polyline points="52.0,232.0 70.2,232.0 88.5,232.0 106.7,232.0 125.0,232.0 143.2,232.0 161.5,232.0 179.7,232.0 198.0,232.0 216.2,232.0 234.4,232.0 252.7,232.0 270.9,232.0 289.2,200.3 307.4,50.7 325.7,168.5 343.9,182.1 362.1,168.5 380.4,145.9 398.6,145.9 416.9,164.0 435.1,177.6 453.4,168.5 471.6,164.0 489.9,150.4 508.1,173.1 526.3,168.5 544.6,177.6 562.8,204.8 581.1,159.5 599.3,168.5 617.6,182.1 635.8,173.1 654.0,118.7 672.3,105.1 690.5,132.3 708.8,154.9 727.0,136.8 745.3,28.0 763.5,173.1 781.8,173.1 800.0,177.6"
            fill="none" stroke="#4e79a7"
            stroke-width="2" stroke-linejoin="round"/>
  <polyline points="52.0,232.0 70.2,232.0 88.5,232.0 106.7,232.0 125.0,232.0 143.2,232.0 161.5,232.0 179.7,232.0 198.0,232.0 216.2,232.0 234.4,232.0 252.7,232.0 270.9,232.0 289.2,200.3 307.4,123.2 325.7,182.1 343.9,195.7 362.1,182.1 380.4,159.5 398.6,168.5 416.9,182.1 435.1,195.7 453.4,182.1 471.6,177.6 489.9,164.0 508.1,186.7 526.3,182.1 544.6,191.2 562.8,204.8 581.1,191.2 599.3,182.1 617.6,195.7 635.8,200.3 654.0,173.1 672.3,159.5 690.5,177.6 708.8,182.1 727.0,177.6 745.3,177.6 763.5,186.7 781.8,186.7 800.0,191.2"
            fill="none" stroke="#f28e2b"
            stroke-width="2" stroke-linejoin="round"
            stroke-dasharray="5,3"/>

  <!-- dots -->
  <circle cx="52.0" cy="232.0" r="3" fill="#4e79a7"/><circle cx="70.2" cy="232.0" r="3" fill="#4e79a7"/><circle cx="88.5" cy="232.0" r="3" fill="#4e79a7"/><circle cx="106.7" cy="232.0" r="3" fill="#4e79a7"/><circle cx="125.0" cy="232.0" r="3" fill="#4e79a7"/><circle cx="143.2" cy="232.0" r="3" fill="#4e79a7"/><circle cx="161.5" cy="232.0" r="3" fill="#4e79a7"/><circle cx="179.7" cy="232.0" r="3" fill="#4e79a7"/><circle cx="198.0" cy="232.0" r="3" fill="#4e79a7"/><circle cx="216.2" cy="232.0" r="3" fill="#4e79a7"/><circle cx="234.4" cy="232.0" r="3" fill="#4e79a7"/><circle cx="252.7" cy="232.0" r="3" fill="#4e79a7"/><circle cx="270.9" cy="232.0" r="3" fill="#4e79a7"/><circle cx="289.2" cy="200.3" r="3" fill="#4e79a7"/><circle cx="307.4" cy="50.7" r="3" fill="#4e79a7"/><circle cx="325.7" cy="168.5" r="3" fill="#4e79a7"/><circle cx="343.9" cy="182.1" r="3" fill="#4e79a7"/><circle cx="362.1" cy="168.5" r="3" fill="#4e79a7"/><circle cx="380.4" cy="145.9" r="3" fill="#4e79a7"/><circle cx="398.6" cy="145.9" r="3" fill="#4e79a7"/><circle cx="416.9" cy="164.0" r="3" fill="#4e79a7"/><circle cx="435.1" cy="177.6" r="3" fill="#4e79a7"/><circle cx="453.4" cy="168.5" r="3" fill="#4e79a7"/><circle cx="471.6" cy="164.0" r="3" fill="#4e79a7"/><circle cx="489.9" cy="150.4" r="3" fill="#4e79a7"/><circle cx="508.1" cy="173.1" r="3" fill="#4e79a7"/><circle cx="526.3" cy="168.5" r="3" fill="#4e79a7"/><circle cx="544.6" cy="177.6" r="3" fill="#4e79a7"/><circle cx="562.8" cy="204.8" r="3" fill="#4e79a7"/><circle cx="581.1" cy="159.5" r="3" fill="#4e79a7"/><circle cx="599.3" cy="168.5" r="3" fill="#4e79a7"/><circle cx="617.6" cy="182.1" r="3" fill="#4e79a7"/><circle cx="635.8" cy="173.1" r="3" fill="#4e79a7"/><circle cx="654.0" cy="118.7" r="3" fill="#4e79a7"/><circle cx="672.3" cy="105.1" r="3" fill="#4e79a7"/><circle cx="690.5" cy="132.3" r="3" fill="#4e79a7"/><circle cx="708.8" cy="154.9" r="3" fill="#4e79a7"/><circle cx="727.0" cy="136.8" r="3" fill="#4e79a7"/><circle cx="745.3" cy="28.0" r="3" fill="#4e79a7"/><circle cx="763.5" cy="173.1" r="3" fill="#4e79a7"/><circle cx="781.8" cy="173.1" r="3" fill="#4e79a7"/><circle cx="800.0" cy="177.6" r="3" fill="#4e79a7"/>
  <circle cx="52.0" cy="232.0" r="3" fill="#f28e2b"/><circle cx="70.2" cy="232.0" r="3" fill="#f28e2b"/><circle cx="88.5" cy="232.0" r="3" fill="#f28e2b"/><circle cx="106.7" cy="232.0" r="3" fill="#f28e2b"/><circle cx="125.0" cy="232.0" r="3" fill="#f28e2b"/><circle cx="143.2" cy="232.0" r="3" fill="#f28e2b"/><circle cx="161.5" cy="232.0" r="3" fill="#f28e2b"/><circle cx="179.7" cy="232.0" r="3" fill="#f28e2b"/><circle cx="198.0" cy="232.0" r="3" fill="#f28e2b"/><circle cx="216.2" cy="232.0" r="3" fill="#f28e2b"/><circle cx="234.4" cy="232.0" r="3" fill="#f28e2b"/><circle cx="252.7" cy="232.0" r="3" fill="#f28e2b"/><circle cx="270.9" cy="232.0" r="3" fill="#f28e2b"/><circle cx="289.2" cy="200.3" r="3" fill="#f28e2b"/><circle cx="307.4" cy="123.2" r="3" fill="#f28e2b"/><circle cx="325.7" cy="182.1" r="3" fill="#f28e2b"/><circle cx="343.9" cy="195.7" r="3" fill="#f28e2b"/><circle cx="362.1" cy="182.1" r="3" fill="#f28e2b"/><circle cx="380.4" cy="159.5" r="3" fill="#f28e2b"/><circle cx="398.6" cy="168.5" r="3" fill="#f28e2b"/><circle cx="416.9" cy="182.1" r="3" fill="#f28e2b"/><circle cx="435.1" cy="195.7" r="3" fill="#f28e2b"/><circle cx="453.4" cy="182.1" r="3" fill="#f28e2b"/><circle cx="471.6" cy="177.6" r="3" fill="#f28e2b"/><circle cx="489.9" cy="164.0" r="3" fill="#f28e2b"/><circle cx="508.1" cy="186.7" r="3" fill="#f28e2b"/><circle cx="526.3" cy="182.1" r="3" fill="#f28e2b"/><circle cx="544.6" cy="191.2" r="3" fill="#f28e2b"/><circle cx="562.8" cy="204.8" r="3" fill="#f28e2b"/><circle cx="581.1" cy="191.2" r="3" fill="#f28e2b"/><circle cx="599.3" cy="182.1" r="3" fill="#f28e2b"/><circle cx="617.6" cy="195.7" r="3" fill="#f28e2b"/><circle cx="635.8" cy="200.3" r="3" fill="#f28e2b"/><circle cx="654.0" cy="173.1" r="3" fill="#f28e2b"/><circle cx="672.3" cy="159.5" r="3" fill="#f28e2b"/><circle cx="690.5" cy="177.6" r="3" fill="#f28e2b"/><circle cx="708.8" cy="182.1" r="3" fill="#f28e2b"/><circle cx="727.0" cy="177.6" r="3" fill="#f28e2b"/><circle cx="745.3" cy="177.6" r="3" fill="#f28e2b"/><circle cx="763.5" cy="186.7" r="3" fill="#f28e2b"/><circle cx="781.8" cy="186.7" r="3" fill="#f28e2b"/><circle cx="800.0" cy="191.2" r="3" fill="#f28e2b"/>

  <!-- axes -->
  <line x1="52" y1="28" x2="52" y2="232"
        stroke="#cccccc" stroke-width="1"/>
  <line x1="52" y1="232" x2="800" y2="232"
        stroke="#cccccc" stroke-width="1"/>

  <!-- y-axis labels -->
  <text x="47" y="236.0" text-anchor="end" font-size="10" fill="#57606a" font-family="ui-monospace, SFMono-Regular, 'SF Mono', Menlo, monospace">0</text><text x="47" y="195.2" text-anchor="end" font-size="10" fill="#57606a" font-family="ui-monospace, SFMono-Regular, 'SF Mono', Menlo, monospace">9</text><text x="47" y="154.4" text-anchor="end" font-size="10" fill="#57606a" font-family="ui-monospace, SFMono-Regular, 'SF Mono', Menlo, monospace">18</text><text x="47" y="113.6" text-anchor="end" font-size="10" fill="#57606a" font-family="ui-monospace, SFMono-Regular, 'SF Mono', Menlo, monospace">27</text><text x="47" y="72.8" text-anchor="end" font-size="10" fill="#57606a" font-family="ui-monospace, SFMono-Regular, 'SF Mono', Menlo, monospace">36</text><text x="47" y="32.0" text-anchor="end" font-size="10" fill="#57606a" font-family="ui-monospace, SFMono-Regular, 'SF Mono', Menlo, monospace">45</text>

  <!-- x-axis labels -->
  <text x="52.0" y="248" text-anchor="middle" font-size="10" fill="#8c959f" font-family="ui-monospace, SFMono-Regular, 'SF Mono', Menlo, monospace">05-12</text><text x="690.5" y="248" text-anchor="middle" font-size="10" fill="#8c959f" font-family="ui-monospace, SFMono-Regular, 'SF Mono', Menlo, monospace">06-16</text><text x="143.2" y="248" text-anchor="middle" font-size="10" fill="#8c959f" font-family="ui-monospace, SFMono-Regular, 'SF Mono', Menlo, monospace">05-17</text><text x="781.8" y="248" text-anchor="middle" font-size="10" fill="#8c959f" font-family="ui-monospace, SFMono-Regular, 'SF Mono', Menlo, monospace">06-21</text><text x="800.0" y="248" text-anchor="middle" font-size="10" fill="#8c959f" font-family="ui-monospace, SFMono-Regular, 'SF Mono', Menlo, monospace">06-22</text><text x="234.4" y="248" text-anchor="middle" font-size="10" fill="#8c959f" font-family="ui-monospace, SFMono-Regular, 'SF Mono', Menlo, monospace">05-22</text><text x="325.7" y="248" text-anchor="middle" font-size="10" fill="#8c959f" font-family="ui-monospace, SFMono-Regular, 'SF Mono', Menlo, monospace">05-27</text><text x="416.9" y="248" text-anchor="middle" font-size="10" fill="#8c959f" font-family="ui-monospace, SFMono-Regular, 'SF Mono', Menlo, monospace">06-01</text><text x="508.1" y="248" text-anchor="middle" font-size="10" fill="#8c959f" font-family="ui-monospace, SFMono-Regular, 'SF Mono', Menlo, monospace">06-06</text><text x="599.3" y="248" text-anchor="middle" font-size="10" fill="#8c959f" font-family="ui-monospace, SFMono-Regular, 'SF Mono', Menlo, monospace">06-11</text>

  <!-- legend -->
  <rect x="60" y="262" width="16" height="3" fill="#4e79a7" rx="1"/><text x="80" y="268" font-size="11" fill="#57606a" font-family="-apple-system, BlinkMacSystemFont, 'Segoe UI', sans-serif">Total clones (493)</text><line x1="230" y1="264" x2="246" y2="264" stroke="#f28e2b" stroke-width="2" stroke-dasharray="5,3"/><text x="250" y="268" font-size="11" fill="#57606a" font-family="-apple-system, BlinkMacSystemFont, 'Segoe UI', sans-serif">Unique cloners</text>

</svg>