<svg xmlns="http://www.w3.org/2000/svg" viewBox="0 0 820 280" width="820" height="280">

  <!-- title -->
  <text x="52" y="18" font-size="13" font-weight="600"
        fill="#24292f" font-family="-apple-system, BlinkMacSystemFont, 'Segoe UI', sans-serif"
        >Clone traffic — stats</text>
  <text x="800" y="18" font-size="10" fill="#8c959f"
        font-family="ui-monospace, SFMono-Regular, 'SF Mono', Menlo, monospace" text-anchor="end">2026-06-26</text>

  <!-- grid -->
  <line x1="52" y1="232.0" x2="800" y2="232.0" stroke="#e8e8e8" stroke-width="1"/><line x1="52" y1="191.2" x2="800" y2="191.2" stroke="#e8e8e8" stroke-width="1"/><line x1="52" y1="150.4" x2="800" y2="150.4" stroke="#e8e8e8" stroke-width="1"/><line x1="52" y1="109.6" x2="800" y2="109.6" stroke="#e8e8e8" stroke-width="1"/><line x1="52" y1="68.8" x2="800" y2="68.8" stroke="#e8e8e8" stroke-width="1"/><line x1="52" y1="28.0" x2="800" y2="28.0" stroke="#e8e8e8" stroke-width="1"/>

  <!-- area fill -->
  <path d="M52.0,232.0 L52.0,232.0 L69.4,232.0 L86.8,232.0 L104.2,232.0 L121.6,232.0 L139.0,232.0 L156.4,232.0 L173.8,232.0 L191.2,232.0 L208.6,232.0 L226.0,232.0 L243.3,232.0 L260.7,232.0 L278.1,200.3 L295.5,50.7 L312.9,168.5 L330.3,182.1 L347.7,168.5 L365.1,145.9 L382.5,145.9 L399.9,164.0 L417.3,177.6 L434.7,168.5 L452.1,164.0 L469.5,150.4 L486.9,173.1 L504.3,168.5 L521.7,177.6 L539.1,204.8 L556.5,159.5 L573.9,168.5 L591.3,182.1 L608.7,173.1 L626.0,118.7 L643.4,105.1 L660.8,132.3 L678.2,154.9 L695.6,136.8 L713.0,28.0 L730.4,173.1 L747.8,173.1 L765.2,177.6 L782.6,186.7 L800.0,182.1 L800.0,232.0 L52.0,232.0Z" fill="#4e79a7" opacity="0.12"/>

  <!-- lines -->
  <polyline points="52.0,232.0 69.4,232.0 86.8,232.0 104.2,232.0 121.6,232.0 139.0,232.0 156.4,232.0 173.8,232.0 191.2,232.0 208.6,232.0 226.0,232.0 243.3,232.0 260.7,232.0 278.1,200.3 295.5,50.7 312.9,168.5 330.3,182.1 347.7,168.5 365.1,145.9 382.5,145.9 399.9,164.0 417.3,177.6 434.7,168.5 452.1,164.0 469.5,150.4 486.9,173.1 504.3,168.5 521.7,177.6 539.1,204.8 556.5,159.5 573.9,168.5 591.3,182.1 608.7,173.1 626.0,118.7 643.4,105.1 660.8,132.3 678.2,154.9 695.6,136.8 713.0,28.0 730.4,173.1 747.8,173.1 765.2,177.6 782.6,186.7 800.0,182.1"
            fill="none" stroke="#4e79a7"
            stroke-width="2" stroke-linejoin="round"/>
  <polyline points="52.0,232.0 69.4,232.0 86.8,232.0 104.2,232.0 121.6,232.0 139.0,232.0 156.4,232.0 173.8,232.0 191.2,232.0 208.6,232.0 226.0,232.0 243.3,232.0 260.7,232.0 278.1,200.3 295.5,123.2 312.9,182.1 330.3,195.7 347.7,182.1 365.1,159.5 382.5,168.5 399.9,182.1 417.3,195.7 434.7,182.1 452.1,177.6 469.5,164.0 486.9,186.7 504.3,182.1 521.7,191.2 539.1,204.8 556.5,191.2 573.9,182.1 591.3,195.7 608.7,200.3 626.0,173.1 643.4,159.5 660.8,177.6 678.2,182.1 695.6,177.6 713.0,177.6 730.4,186.7 747.8,186.7 765.2,191.2 782.6,200.3 800.0,195.7"
            fill="none" stroke="#f28e2b"
            stroke-width="2" stroke-linejoin="round"
            stroke-dasharray="5,3"/>

  <!-- dots -->
  <circle cx="52.0" cy="232.0" r="3" fill="#4e79a7"/><circle cx="69.4" cy="232.0" r="3" fill="#4e79a7"/><circle cx="86.8" cy="232.0" r="3" fill="#4e79a7"/><circle cx="104.2" cy="232.0" r="3" fill="#4e79a7"/><circle cx="121.6" cy="232.0" r="3" fill="#4e79a7"/><circle cx="139.0" cy="232.0" r="3" fill="#4e79a7"/><circle cx="156.4" cy="232.0" r="3" fill="#4e79a7"/><circle cx="173.8" cy="232.0" r="3" fill="#4e79a7"/><circle cx="191.2" cy="232.0" r="3" fill="#4e79a7"/><circle cx="208.6" cy="232.0" r="3" fill="#4e79a7"/><circle cx="226.0" cy="232.0" r="3" fill="#4e79a7"/><circle cx="243.3" cy="232.0" r="3" fill="#4e79a7"/><circle cx="260.7" cy="232.0" r="3" fill="#4e79a7"/><circle cx="278.1" cy="200.3" r="3" fill="#4e79a7"/><circle cx="295.5" cy="50.7" r="3" fill="#4e79a7"/><circle cx="312.9" cy="168.5" r="3" fill="#4e79a7"/><circle cx="330.3" cy="182.1" r="3" fill="#4e79a7"/><circle cx="347.7" cy="168.5" r="3" fill="#4e79a7"/><circle cx="365.1" cy="145.9" r="3" fill="#4e79a7"/><circle cx="382.5" cy="145.9" r="3" fill="#4e79a7"/><circle cx="399.9" cy="164.0" r="3" fill="#4e79a7"/><circle cx="417.3" cy="177.6" r="3" fill="#4e79a7"/><circle cx="434.7" cy="168.5" r="3" fill="#4e79a7"/><circle cx="452.1" cy="164.0" r="3" fill="#4e79a7"/><circle cx="469.5" cy="150.4" r="3" fill="#4e79a7"/><circle cx="486.9" cy="173.1" r="3" fill="#4e79a7"/><circle cx="504.3" cy="168.5" r="3" fill="#4e79a7"/><circle cx="521.7" cy="177.6" r="3" fill="#4e79a7"/><circle cx="539.1" cy="204.8" r="3" fill="#4e79a7"/><circle cx="556.5" cy="159.5" r="3" fill="#4e79a7"/><circle cx="573.9" cy="168.5" r="3" fill="#4e79a7"/><circle cx="591.3" cy="182.1" r="3" fill="#4e79a7"/><circle cx="608.7" cy="173.1" r="3" fill="#4e79a7"/><circle cx="626.0" cy="118.7" r="3" fill="#4e79a7"/><circle cx="643.4" cy="105.1" r="3" fill="#4e79a7"/><circle cx="660.8" cy="132.3" r="3" fill="#4e79a7"/><circle cx="678.2" cy="154.9" r="3" fill="#4e79a7"/><circle cx="695.6" cy="136.8" r="3" fill="#4e79a7"/><circle cx="713.0" cy="28.0" r="3" fill="#4e79a7"/><circle cx="730.4" cy="173.1" r="3" fill="#4e79a7"/><circle cx="747.8" cy="173.1" r="3" fill="#4e79a7"/><circle cx="765.2" cy="177.6" r="3" fill="#4e79a7"/><circle cx="782.6" cy="186.7" r="3" fill="#4e79a7"/><circle cx="800.0" cy="182.1" r="3" fill="#4e79a7"/>
  <circle cx="52.0" cy="232.0" r="3" fill="#f28e2b"/><circle cx="69.4" cy="232.0" r="3" fill="#f28e2b"/><circle cx="86.8" cy="232.0" r="3" fill="#f28e2b"/><circle cx="104.2" cy="232.0" r="3" fill="#f28e2b"/><circle cx="121.6" cy="232.0" r="3" fill="#f28e2b"/><circle cx="139.0" cy="232.0" r="3" fill="#f28e2b"/><circle cx="156.4" cy="232.0" r="3" fill="#f28e2b"/><circle cx="173.8" cy="232.0" r="3" fill="#f28e2b"/><circle cx="191.2" cy="232.0" r="3" fill="#f28e2b"/><circle cx="208.6" cy="232.0" r="3" fill="#f28e2b"/><circle cx="226.0" cy="232.0" r="3" fill="#f28e2b"/><circle cx="243.3" cy="232.0" r="3" fill="#f28e2b"/><circle cx="260.7" cy="232.0" r="3" fill="#f28e2b"/><circle cx="278.1" cy="200.3" r="3" fill="#f28e2b"/><circle cx="295.5" cy="123.2" r="3" fill="#f28e2b"/><circle cx="312.9" cy="182.1" r="3" fill="#f28e2b"/><circle cx="330.3" cy="195.7" r="3" fill="#f28e2b"/><circle cx="347.7" cy="182.1" r="3" fill="#f28e2b"/><circle cx="365.1" cy="159.5" r="3" fill="#f28e2b"/><circle cx="382.5" cy="168.5" r="3" fill="#f28e2b"/><circle cx="399.9" cy="182.1" r="3" fill="#f28e2b"/><circle cx="417.3" cy="195.7" r="3" fill="#f28e2b"/><circle cx="434.7" cy="182.1" r="3" fill="#f28e2b"/><circle cx="452.1" cy="177.6" r="3" fill="#f28e2b"/><circle cx="469.5" cy="164.0" r="3" fill="#f28e2b"/><circle cx="486.9" cy="186.7" r="3" fill="#f28e2b"/><circle cx="504.3" cy="182.1" r="3" fill="#f28e2b"/><circle cx="521.7" cy="191.2" r="3" fill="#f28e2b"/><circle cx="539.1" cy="204.8" r="3" fill="#f28e2b"/><circle cx="556.5" cy="191.2" r="3" fill="#f28e2b"/><circle cx="573.9" cy="182.1" r="3" fill="#f28e2b"/><circle cx="591.3" cy="195.7" r="3" fill="#f28e2b"/><circle cx="608.7" cy="200.3" r="3" fill="#f28e2b"/><circle cx="626.0" cy="173.1" r="3" fill="#f28e2b"/><circle cx="643.4" cy="159.5" r="3" fill="#f28e2b"/><circle cx="660.8" cy="177.6" r="3" fill="#f28e2b"/><circle cx="678.2" cy="182.1" r="3" fill="#f28e2b"/><circle cx="695.6" cy="177.6" r="3" fill="#f28e2b"/><circle cx="713.0" cy="177.6" r="3" fill="#f28e2b"/><circle cx="730.4" cy="186.7" r="3" fill="#f28e2b"/><circle cx="747.8" cy="186.7" r="3" fill="#f28e2b"/><circle cx="765.2" cy="191.2" r="3" fill="#f28e2b"/><circle cx="782.6" cy="200.3" r="3" fill="#f28e2b"/><circle cx="800.0" cy="195.7" r="3" fill="#f28e2b"/>

  <!-- axes -->
  <line x1="52" y1="28" x2="52" y2="232"
        stroke="#cccccc" stroke-width="1"/>
  <line x1="52" y1="232" x2="800" y2="232"
        stroke="#cccccc" stroke-width="1"/>

  <!-- y-axis labels -->
  <text x="47" y="236.0" text-anchor="end" font-size="10" fill="#57606a" font-family="ui-monospace, SFMono-Regular, 'SF Mono', Menlo, monospace">0</text><text x="47" y="195.2" text-anchor="end" font-size="10" fill="#57606a" font-family="ui-monospace, SFMono-Regular, 'SF Mono', Menlo, monospace">9</text><text x="47" y="154.4" text-anchor="end" font-size="10" fill="#57606a" font-family="ui-monospace, SFMono-Regular, 'SF Mono', Menlo, monospace">18</text><text x="47" y="113.6" text-anchor="end" font-size="10" fill="#57606a" font-family="ui-monospace, SFMono-Regular, 'SF Mono', Menlo, monospace">27</text><text x="47" y="72.8" text-anchor="end" font-size="10" fill="#57606a" font-family="ui-monospace, SFMono-Regular, 'SF Mono', Menlo, monospace">36</text><text x="47" y="32.0" text-anchor="end" font-size="10" fill="#57606a" font-family="ui-monospace, SFMono-Regular, 'SF Mono', Menlo, monospace">45</text>

  <!-- x-axis labels -->
  <text x="52.0" y="248" text-anchor="middle" font-size="10" fill="#8c959f" font-family="ui-monospace, SFMono-Regular, 'SF Mono', Menlo, monospace">05-12</text><text x="660.8" y="248" text-anchor="middle" font-size="10" fill="#8c959f" font-family="ui-monospace, SFMono-Regular, 'SF Mono', Menlo, monospace">06-16</text><text x="139.0" y="248" text-anchor="middle" font-size="10" fill="#8c959f" font-family="ui-monospace, SFMono-Regular, 'SF Mono', Menlo, monospace">05-17</text><text x="747.8" y="248" text-anchor="middle" font-size="10" fill="#8c959f" font-family="ui-monospace, SFMono-Regular, 'SF Mono', Menlo, monospace">06-21</text><text x="226.0" y="248" text-anchor="middle" font-size="10" fill="#8c959f" font-family="ui-monospace, SFMono-Regular, 'SF Mono', Menlo, monospace">05-22</text><text x="800.0" y="248" text-anchor="middle" font-size="10" fill="#8c959f" font-family="ui-monospace, SFMono-Regular, 'SF Mono', Menlo, monospace">06-24</text><text x="312.9" y="248" text-anchor="middle" font-size="10" fill="#8c959f" font-family="ui-monospace, SFMono-Regular, 'SF Mono', Menlo, monospace">05-27</text><text x="399.9" y="248" text-anchor="middle" font-size="10" fill="#8c959f" font-family="ui-monospace, SFMono-Regular, 'SF Mono', Menlo, monospace">06-01</text><text x="486.9" y="248" text-anchor="middle" font-size="10" fill="#8c959f" font-family="ui-monospace, SFMono-Regular, 'SF Mono', Menlo, monospace">06-06</text><text x="573.9" y="248" text-anchor="middle" font-size="10" fill="#8c959f" font-family="ui-monospace, SFMono-Regular, 'SF Mono', Menlo, monospace">06-11</text>

  <!-- legend -->
  <rect x="60" y="262" width="16" height="3" fill="#4e79a7" rx="1"/><text x="80" y="268" font-size="11" fill="#57606a" font-family="-apple-system, BlinkMacSystemFont, 'Segoe UI', sans-serif">Total clones (514)</text><line x1="230" y1="264" x2="246" y2="264" stroke="#f28e2b" stroke-width="2" stroke-dasharray="5,3"/><text x="250" y="268" font-size="11" fill="#57606a" font-family="-apple-system, BlinkMacSystemFont, 'Segoe UI', sans-serif">Unique cloners</text>

</svg>