<svg xmlns="http://www.w3.org/2000/svg" viewBox="0 0 820 280" width="820" height="280">

  <!-- title -->
  <text x="52" y="18" font-size="13" font-weight="600"
        fill="#24292f" font-family="-apple-system, BlinkMacSystemFont, 'Segoe UI', sans-serif"
        >Clone traffic — stats</text>
  <text x="800" y="18" font-size="10" fill="#8c959f"
        font-family="ui-monospace, SFMono-Regular, 'SF Mono', Menlo, monospace" text-anchor="end">2026-07-17</text>

  <!-- grid -->
  <line x1="52" y1="232.0" x2="800" y2="232.0" stroke="#e8e8e8" stroke-width="1"/><line x1="52" y1="191.2" x2="800" y2="191.2" stroke="#e8e8e8" stroke-width="1"/><line x1="52" y1="150.4" x2="800" y2="150.4" stroke="#e8e8e8" stroke-width="1"/><line x1="52" y1="109.6" x2="800" y2="109.6" stroke="#e8e8e8" stroke-width="1"/><line x1="52" y1="68.8" x2="800" y2="68.8" stroke="#e8e8e8" stroke-width="1"/><line x1="52" y1="28.0" x2="800" y2="28.0" stroke="#e8e8e8" stroke-width="1"/>

  <!-- area fill -->
  <path d="M52.0,232.0 L52.0,232.0 L63.7,232.0 L75.4,232.0 L87.1,232.0 L98.8,232.0 L110.4,232.0 L122.1,232.0 L133.8,232.0 L145.5,232.0 L157.2,232.0 L168.9,232.0 L180.6,232.0 L192.2,232.0 L203.9,200.3 L215.6,50.7 L227.3,168.5 L239.0,182.1 L250.7,168.5 L262.4,145.9 L274.1,145.9 L285.8,164.0 L297.4,177.6 L309.1,168.5 L320.8,164.0 L332.5,150.4 L344.2,173.1 L355.9,168.5 L367.6,177.6 L379.2,204.8 L390.9,159.5 L402.6,168.5 L414.3,182.1 L426.0,173.1 L437.7,118.7 L449.4,105.1 L461.1,132.3 L472.8,154.9 L484.4,136.8 L496.1,28.0 L507.8,173.1 L519.5,173.1 L531.2,177.6 L542.9,186.7 L554.6,182.1 L566.2,186.7 L577.9,191.2 L589.6,164.0 L601.3,168.5 L613.0,177.6 L624.7,164.0 L636.4,177.6 L648.1,154.9 L659.8,222.9 L671.4,182.1 L683.1,173.1 L694.8,177.6 L706.5,209.3 L718.2,222.9 L729.9,186.7 L741.6,204.8 L753.2,168.5 L764.9,168.5 L776.6,209.3 L788.3,177.6 L800.0,191.2 L800.0,232.0 L52.0,232.0Z" fill="#4e79a7" opacity="0.12"/>

  <!-- lines -->
  <polyline points="52.0,232.0 63.7,232.0 75.4,232.0 87.1,232.0 98.8,232.0 110.4,232.0 122.1,232.0 133.8,232.0 145.5,232.0 157.2,232.0 168.9,232.0 180.6,232.0 192.2,232.0 203.9,200.3 215.6,50.7 227.3,168.5 239.0,182.1 250.7,168.5 262.4,145.9 274.1,145.9 285.8,164.0 297.4,177.6 309.1,168.5 320.8,164.0 332.5,150.4 344.2,173.1 355.9,168.5 367.6,177.6 379.2,204.8 390.9,159.5 402.6,168.5 414.3,182.1 426.0,173.1 437.7,118.7 449.4,105.1 461.1,132.3 472.8,154.9 484.4,136.8 496.1,28.0 507.8,173.1 519.5,173.1 531.2,177.6 542.9,186.7 554.6,182.1 566.2,186.7 577.9,191.2 589.6,164.0 601.3,168.5 613.0,177.6 624.7,164.0 636.4,177.6 648.1,154.9 659.8,222.9 671.4,182.1 683.1,173.1 694.8,177.6 706.5,209.3 718.2,222.9 729.9,186.7 741.6,204.8 753.2,168.5 764.9,168.5 776.6,209.3 788.3,177.6 800.0,191.2"
            fill="none" stroke="#4e79a7"
            stroke-width="2" stroke-linejoin="round"/>
  <polyline points="52.0,232.0 63.7,232.0 75.4,232.0 87.1,232.0 98.8,232.0 110.4,232.0 122.1,232.0 133.8,232.0 145.5,232.0 157.2,232.0 168.9,232.0 180.6,232.0 192.2,232.0 203.9,200.3 215.6,123.2 227.3,182.1 239.0,195.7 250.7,182.1 262.4,159.5 274.1,168.5 285.8,182.1 297.4,195.7 309.1,182.1 320.8,177.6 332.5,164.0 344.2,186.7 355.9,182.1 367.6,191.2 379.2,204.8 390.9,191.2 402.6,182.1 414.3,195.7 426.0,200.3 437.7,173.1 449.4,159.5 461.1,177.6 472.8,182.1 484.4,177.6 496.1,177.6 507.8,186.7 519.5,186.7 531.2,191.2 542.9,200.3 554.6,195.7 566.2,200.3 577.9,191.2 589.6,177.6 601.3,182.1 613.0,191.2 624.7,177.6 636.4,191.2 648.1,173.1 659.8,222.9 671.4,195.7 683.1,200.3 694.8,191.2 706.5,209.3 718.2,222.9 729.9,200.3 741.6,209.3 753.2,182.1 764.9,186.7 776.6,209.3 788.3,191.2 800.0,209.3"
            fill="none" stroke="#f28e2b"
            stroke-width="2" stroke-linejoin="round"
            stroke-dasharray="5,3"/>

  <!-- dots -->
  <circle cx="52.0" cy="232.0" r="3" fill="#4e79a7"/><circle cx="63.7" cy="232.0" r="3" fill="#4e79a7"/><circle cx="75.4" cy="232.0" r="3" fill="#4e79a7"/><circle cx="87.1" cy="232.0" r="3" fill="#4e79a7"/><circle cx="98.8" cy="232.0" r="3" fill="#4e79a7"/><circle cx="110.4" cy="232.0" r="3" fill="#4e79a7"/><circle cx="122.1" cy="232.0" r="3" fill="#4e79a7"/><circle cx="133.8" cy="232.0" r="3" fill="#4e79a7"/><circle cx="145.5" cy="232.0" r="3" fill="#4e79a7"/><circle cx="157.2" cy="232.0" r="3" fill="#4e79a7"/><circle cx="168.9" cy="232.0" r="3" fill="#4e79a7"/><circle cx="180.6" cy="232.0" r="3" fill="#4e79a7"/><circle cx="192.2" cy="232.0" r="3" fill="#4e79a7"/><circle cx="203.9" cy="200.3" r="3" fill="#4e79a7"/><circle cx="215.6" cy="50.7" r="3" fill="#4e79a7"/><circle cx="227.3" cy="168.5" r="3" fill="#4e79a7"/><circle cx="239.0" cy="182.1" r="3" fill="#4e79a7"/><circle cx="250.7" cy="168.5" r="3" fill="#4e79a7"/><circle cx="262.4" cy="145.9" r="3" fill="#4e79a7"/><circle cx="274.1" cy="145.9" r="3" fill="#4e79a7"/><circle cx="285.8" cy="164.0" r="3" fill="#4e79a7"/><circle cx="297.4" cy="177.6" r="3" fill="#4e79a7"/><circle cx="309.1" cy="168.5" r="3" fill="#4e79a7"/><circle cx="320.8" cy="164.0" r="3" fill="#4e79a7"/><circle cx="332.5" cy="150.4" r="3" fill="#4e79a7"/><circle cx="344.2" cy="173.1" r="3" fill="#4e79a7"/><circle cx="355.9" cy="168.5" r="3" fill="#4e79a7"/><circle cx="367.6" cy="177.6" r="3" fill="#4e79a7"/><circle cx="379.2" cy="204.8" r="3" fill="#4e79a7"/><circle cx="390.9" cy="159.5" r="3" fill="#4e79a7"/><circle cx="402.6" cy="168.5" r="3" fill="#4e79a7"/><circle cx="414.3" cy="182.1" r="3" fill="#4e79a7"/><circle cx="426.0" cy="173.1" r="3" fill="#4e79a7"/><circle cx="437.7" cy="118.7" r="3" fill="#4e79a7"/><circle cx="449.4" cy="105.1" r="3" fill="#4e79a7"/><circle cx="461.1" cy="132.3" r="3" fill="#4e79a7"/><circle cx="472.8" cy="154.9" r="3" fill="#4e79a7"/><circle cx="484.4" cy="136.8" r="3" fill="#4e79a7"/><circle cx="496.1" cy="28.0" r="3" fill="#4e79a7"/><circle cx="507.8" cy="173.1" r="3" fill="#4e79a7"/><circle cx="519.5" cy="173.1" r="3" fill="#4e79a7"/><circle cx="531.2" cy="177.6" r="3" fill="#4e79a7"/><circle cx="542.9" cy="186.7" r="3" fill="#4e79a7"/><circle cx="554.6" cy="182.1" r="3" fill="#4e79a7"/><circle cx="566.2" cy="186.7" r="3" fill="#4e79a7"/><circle cx="577.9" cy="191.2" r="3" fill="#4e79a7"/><circle cx="589.6" cy="164.0" r="3" fill="#4e79a7"/><circle cx="601.3" cy="168.5" r="3" fill="#4e79a7"/><circle cx="613.0" cy="177.6" r="3" fill="#4e79a7"/><circle cx="624.7" cy="164.0" r="3" fill="#4e79a7"/><circle cx="636.4" cy="177.6" r="3" fill="#4e79a7"/><circle cx="648.1" cy="154.9" r="3" fill="#4e79a7"/><circle cx="659.8" cy="222.9" r="3" fill="#4e79a7"/><circle cx="671.4" cy="182.1" r="3" fill="#4e79a7"/><circle cx="683.1" cy="173.1" r="3" fill="#4e79a7"/><circle cx="694.8" cy="177.6" r="3" fill="#4e79a7"/><circle cx="706.5" cy="209.3" r="3" fill="#4e79a7"/><circle cx="718.2" cy="222.9" r="3" fill="#4e79a7"/><circle cx="729.9" cy="186.7" r="3" fill="#4e79a7"/><circle cx="741.6" cy="204.8" r="3" fill="#4e79a7"/><circle cx="753.2" cy="168.5" r="3" fill="#4e79a7"/><circle cx="764.9" cy="168.5" r="3" fill="#4e79a7"/><circle cx="776.6" cy="209.3" r="3" fill="#4e79a7"/><circle cx="788.3" cy="177.6" r="3" fill="#4e79a7"/><circle cx="800.0" cy="191.2" r="3" fill="#4e79a7"/>
  <circle cx="52.0" cy="232.0" r="3" fill="#f28e2b"/><circle cx="63.7" cy="232.0" r="3" fill="#f28e2b"/><circle cx="75.4" cy="232.0" r="3" fill="#f28e2b"/><circle cx="87.1" cy="232.0" r="3" fill="#f28e2b"/><circle cx="98.8" cy="232.0" r="3" fill="#f28e2b"/><circle cx="110.4" cy="232.0" r="3" fill="#f28e2b"/><circle cx="122.1" cy="232.0" r="3" fill="#f28e2b"/><circle cx="133.8" cy="232.0" r="3" fill="#f28e2b"/><circle cx="145.5" cy="232.0" r="3" fill="#f28e2b"/><circle cx="157.2" cy="232.0" r="3" fill="#f28e2b"/><circle cx="168.9" cy="232.0" r="3" fill="#f28e2b"/><circle cx="180.6" cy="232.0" r="3" fill="#f28e2b"/><circle cx="192.2" cy="232.0" r="3" fill="#f28e2b"/><circle cx="203.9" cy="200.3" r="3" fill="#f28e2b"/><circle cx="215.6" cy="123.2" r="3" fill="#f28e2b"/><circle cx="227.3" cy="182.1" r="3" fill="#f28e2b"/><circle cx="239.0" cy="195.7" r="3" fill="#f28e2b"/><circle cx="250.7" cy="182.1" r="3" fill="#f28e2b"/><circle cx="262.4" cy="159.5" r="3" fill="#f28e2b"/><circle cx="274.1" cy="168.5" r="3" fill="#f28e2b"/><circle cx="285.8" cy="182.1" r="3" fill="#f28e2b"/><circle cx="297.4" cy="195.7" r="3" fill="#f28e2b"/><circle cx="309.1" cy="182.1" r="3" fill="#f28e2b"/><circle cx="320.8" cy="177.6" r="3" fill="#f28e2b"/><circle cx="332.5" cy="164.0" r="3" fill="#f28e2b"/><circle cx="344.2" cy="186.7" r="3" fill="#f28e2b"/><circle cx="355.9" cy="182.1" r="3" fill="#f28e2b"/><circle cx="367.6" cy="191.2" r="3" fill="#f28e2b"/><circle cx="379.2" cy="204.8" r="3" fill="#f28e2b"/><circle cx="390.9" cy="191.2" r="3" fill="#f28e2b"/><circle cx="402.6" cy="182.1" r="3" fill="#f28e2b"/><circle cx="414.3" cy="195.7" r="3" fill="#f28e2b"/><circle cx="426.0" cy="200.3" r="3" fill="#f28e2b"/><circle cx="437.7" cy="173.1" r="3" fill="#f28e2b"/><circle cx="449.4" cy="159.5" r="3" fill="#f28e2b"/><circle cx="461.1" cy="177.6" r="3" fill="#f28e2b"/><circle cx="472.8" cy="182.1" r="3" fill="#f28e2b"/><circle cx="484.4" cy="177.6" r="3" fill="#f28e2b"/><circle cx="496.1" cy="177.6" r="3" fill="#f28e2b"/><circle cx="507.8" cy="186.7" r="3" fill="#f28e2b"/><circle cx="519.5" cy="186.7" r="3" fill="#f28e2b"/><circle cx="531.2" cy="191.2" r="3" fill="#f28e2b"/><circle cx="542.9" cy="200.3" r="3" fill="#f28e2b"/><circle cx="554.6" cy="195.7" r="3" fill="#f28e2b"/><circle cx="566.2" cy="200.3" r="3" fill="#f28e2b"/><circle cx="577.9" cy="191.2" r="3" fill="#f28e2b"/><circle cx="589.6" cy="177.6" r="3" fill="#f28e2b"/><circle cx="601.3" cy="182.1" r="3" fill="#f28e2b"/><circle cx="613.0" cy="191.2" r="3" fill="#f28e2b"/><circle cx="624.7" cy="177.6" r="3" fill="#f28e2b"/><circle cx="636.4" cy="191.2" r="3" fill="#f28e2b"/><circle cx="648.1" cy="173.1" r="3" fill="#f28e2b"/><circle cx="659.8" cy="222.9" r="3" fill="#f28e2b"/><circle cx="671.4" cy="195.7" r="3" fill="#f28e2b"/><circle cx="683.1" cy="200.3" r="3" fill="#f28e2b"/><circle cx="694.8" cy="191.2" r="3" fill="#f28e2b"/><circle cx="706.5" cy="209.3" r="3" fill="#f28e2b"/><circle cx="718.2" cy="222.9" r="3" fill="#f28e2b"/><circle cx="729.9" cy="200.3" r="3" fill="#f28e2b"/><circle cx="741.6" cy="209.3" r="3" fill="#f28e2b"/><circle cx="753.2" cy="182.1" r="3" fill="#f28e2b"/><circle cx="764.9" cy="186.7" r="3" fill="#f28e2b"/><circle cx="776.6" cy="209.3" r="3" fill="#f28e2b"/><circle cx="788.3" cy="191.2" r="3" fill="#f28e2b"/><circle cx="800.0" cy="209.3" r="3" fill="#f28e2b"/>

  <!-- axes -->
  <line x1="52" y1="28" x2="52" y2="232"
        stroke="#cccccc" stroke-width="1"/>
  <line x1="52" y1="232" x2="800" y2="232"
        stroke="#cccccc" stroke-width="1"/>

  <!-- y-axis labels -->
  <text x="47" y="236.0" text-anchor="end" font-size="10" fill="#57606a" font-family="ui-monospace, SFMono-Regular, 'SF Mono', Menlo, monospace">0</text><text x="47" y="195.2" text-anchor="end" font-size="10" fill="#57606a" font-family="ui-monospace, SFMono-Regular, 'SF Mono', Menlo, monospace">9</text><text x="47" y="154.4" text-anchor="end" font-size="10" fill="#57606a" font-family="ui-monospace, SFMono-Regular, 'SF Mono', Menlo, monospace">18</text><text x="47" y="113.6" text-anchor="end" font-size="10" fill="#57606a" font-family="ui-monospace, SFMono-Regular, 'SF Mono', Menlo, monospace">27</text><text x="47" y="72.8" text-anchor="end" font-size="10" fill="#57606a" font-family="ui-monospace, SFMono-Regular, 'SF Mono', Menlo, monospace">36</text><text x="47" y="32.0" text-anchor="end" font-size="10" fill="#57606a" font-family="ui-monospace, SFMono-Regular, 'SF Mono', Menlo, monospace">45</text>

  <!-- x-axis labels -->
  <text x="52.0" y="248" text-anchor="middle" font-size="10" fill="#8c959f" font-family="ui-monospace, SFMono-Regular, 'SF Mono', Menlo, monospace">05-12</text><text x="426.0" y="248" text-anchor="middle" font-size="10" fill="#8c959f" font-family="ui-monospace, SFMono-Regular, 'SF Mono', Menlo, monospace">06-13</text><text x="800.0" y="248" text-anchor="middle" font-size="10" fill="#8c959f" font-family="ui-monospace, SFMono-Regular, 'SF Mono', Menlo, monospace">07-15</text><text x="145.5" y="248" text-anchor="middle" font-size="10" fill="#8c959f" font-family="ui-monospace, SFMono-Regular, 'SF Mono', Menlo, monospace">05-20</text><text x="519.5" y="248" text-anchor="middle" font-size="10" fill="#8c959f" font-family="ui-monospace, SFMono-Regular, 'SF Mono', Menlo, monospace">06-21</text><text x="239.0" y="248" text-anchor="middle" font-size="10" fill="#8c959f" font-family="ui-monospace, SFMono-Regular, 'SF Mono', Menlo, monospace">05-28</text><text x="613.0" y="248" text-anchor="middle" font-size="10" fill="#8c959f" font-family="ui-monospace, SFMono-Regular, 'SF Mono', Menlo, monospace">06-29</text><text x="332.5" y="248" text-anchor="middle" font-size="10" fill="#8c959f" font-family="ui-monospace, SFMono-Regular, 'SF Mono', Menlo, monospace">06-05</text><text x="706.5" y="248" text-anchor="middle" font-size="10" fill="#8c959f" font-family="ui-monospace, SFMono-Regular, 'SF Mono', Menlo, monospace">07-07</text>

  <!-- legend -->
  <rect x="60" y="262" width="16" height="3" fill="#4e79a7" rx="1"/><text x="80" y="268" font-size="11" fill="#57606a" font-family="-apple-system, BlinkMacSystemFont, 'Segoe UI', sans-serif">Total clones (733)</text><line x1="230" y1="264" x2="246" y2="264" stroke="#f28e2b" stroke-width="2" stroke-dasharray="5,3"/><text x="250" y="268" font-size="11" fill="#57606a" font-family="-apple-system, BlinkMacSystemFont, 'Segoe UI', sans-serif">Unique cloners</text>

</svg>