<svg xmlns="http://www.w3.org/2000/svg" viewBox="0 0 820 280" width="820" height="280">

  <!-- title -->
  <text x="52" y="18" font-size="13" font-weight="600"
        fill="#24292f" font-family="-apple-system, BlinkMacSystemFont, 'Segoe UI', sans-serif"
        >Clone traffic — stats</text>
  <text x="800" y="18" font-size="10" fill="#8c959f"
        font-family="ui-monospace, SFMono-Regular, 'SF Mono', Menlo, monospace" text-anchor="end">2026-06-30</text>

  <!-- grid -->
  <line x1="52" y1="232.0" x2="800" y2="232.0" stroke="#e8e8e8" stroke-width="1"/><line x1="52" y1="191.2" x2="800" y2="191.2" stroke="#e8e8e8" stroke-width="1"/><line x1="52" y1="150.4" x2="800" y2="150.4" stroke="#e8e8e8" stroke-width="1"/><line x1="52" y1="109.6" x2="800" y2="109.6" stroke="#e8e8e8" stroke-width="1"/><line x1="52" y1="68.8" x2="800" y2="68.8" stroke="#e8e8e8" stroke-width="1"/><line x1="52" y1="28.0" x2="800" y2="28.0" stroke="#e8e8e8" stroke-width="1"/>

  <!-- area fill -->
  <path d="M52.0,232.0 L52.0,232.0 L67.9,232.0 L83.8,232.0 L99.7,232.0 L115.7,232.0 L131.6,232.0 L147.5,232.0 L163.4,232.0 L179.3,232.0 L195.2,232.0 L211.1,232.0 L227.1,232.0 L243.0,232.0 L258.9,200.3 L274.8,50.7 L290.7,168.5 L306.6,182.1 L322.6,168.5 L338.5,145.9 L354.4,145.9 L370.3,164.0 L386.2,177.6 L402.1,168.5 L418.0,164.0 L434.0,150.4 L449.9,173.1 L465.8,168.5 L481.7,177.6 L497.6,204.8 L513.5,159.5 L529.4,168.5 L545.4,182.1 L561.3,173.1 L577.2,118.7 L593.1,105.1 L609.0,132.3 L624.9,154.9 L640.9,136.8 L656.8,28.0 L672.7,173.1 L688.6,173.1 L704.5,177.6 L720.4,186.7 L736.3,182.1 L752.3,186.7 L768.2,191.2 L784.1,164.0 L800.0,168.5 L800.0,232.0 L52.0,232.0Z" fill="#4e79a7" opacity="0.12"/>

  <!-- lines -->
  <polyline points="52.0,232.0 67.9,232.0 83.8,232.0 99.7,232.0 115.7,232.0 131.6,232.0 147.5,232.0 163.4,232.0 179.3,232.0 195.2,232.0 211.1,232.0 227.1,232.0 243.0,232.0 258.9,200.3 274.8,50.7 290.7,168.5 306.6,182.1 322.6,168.5 338.5,145.9 354.4,145.9 370.3,164.0 386.2,177.6 402.1,168.5 418.0,164.0 434.0,150.4 449.9,173.1 465.8,168.5 481.7,177.6 497.6,204.8 513.5,159.5 529.4,168.5 545.4,182.1 561.3,173.1 577.2,118.7 593.1,105.1 609.0,132.3 624.9,154.9 640.9,136.8 656.8,28.0 672.7,173.1 688.6,173.1 704.5,177.6 720.4,186.7 736.3,182.1 752.3,186.7 768.2,191.2 784.1,164.0 800.0,168.5"
            fill="none" stroke="#4e79a7"
            stroke-width="2" stroke-linejoin="round"/>
  <polyline points="52.0,232.0 67.9,232.0 83.8,232.0 99.7,232.0 115.7,232.0 131.6,232.0 147.5,232.0 163.4,232.0 179.3,232.0 195.2,232.0 211.1,232.0 227.1,232.0 243.0,232.0 258.9,200.3 274.8,123.2 290.7,182.1 306.6,195.7 322.6,182.1 338.5,159.5 354.4,168.5 370.3,182.1 386.2,195.7 402.1,182.1 418.0,177.6 434.0,164.0 449.9,186.7 465.8,182.1 481.7,191.2 497.6,204.8 513.5,191.2 529.4,182.1 545.4,195.7 561.3,200.3 577.2,173.1 593.1,159.5 609.0,177.6 624.9,182.1 640.9,177.6 656.8,177.6 672.7,186.7 688.6,186.7 704.5,191.2 720.4,200.3 736.3,195.7 752.3,200.3 768.2,191.2 784.1,177.6 800.0,182.1"
            fill="none" stroke="#f28e2b"
            stroke-width="2" stroke-linejoin="round"
            stroke-dasharray="5,3"/>

  <!-- dots -->
  <circle cx="52.0" cy="232.0" r="3" fill="#4e79a7"/><circle cx="67.9" cy="232.0" r="3" fill="#4e79a7"/><circle cx="83.8" cy="232.0" r="3" fill="#4e79a7"/><circle cx="99.7" cy="232.0" r="3" fill="#4e79a7"/><circle cx="115.7" cy="232.0" r="3" fill="#4e79a7"/><circle cx="131.6" cy="232.0" r="3" fill="#4e79a7"/><circle cx="147.5" cy="232.0" r="3" fill="#4e79a7"/><circle cx="163.4" cy="232.0" r="3" fill="#4e79a7"/><circle cx="179.3" cy="232.0" r="3" fill="#4e79a7"/><circle cx="195.2" cy="232.0" r="3" fill="#4e79a7"/><circle cx="211.1" cy="232.0" r="3" fill="#4e79a7"/><circle cx="227.1" cy="232.0" r="3" fill="#4e79a7"/><circle cx="243.0" cy="232.0" r="3" fill="#4e79a7"/><circle cx="258.9" cy="200.3" r="3" fill="#4e79a7"/><circle cx="274.8" cy="50.7" r="3" fill="#4e79a7"/><circle cx="290.7" cy="168.5" r="3" fill="#4e79a7"/><circle cx="306.6" cy="182.1" r="3" fill="#4e79a7"/><circle cx="322.6" cy="168.5" r="3" fill="#4e79a7"/><circle cx="338.5" cy="145.9" r="3" fill="#4e79a7"/><circle cx="354.4" cy="145.9" r="3" fill="#4e79a7"/><circle cx="370.3" cy="164.0" r="3" fill="#4e79a7"/><circle cx="386.2" cy="177.6" r="3" fill="#4e79a7"/><circle cx="402.1" cy="168.5" r="3" fill="#4e79a7"/><circle cx="418.0" cy="164.0" r="3" fill="#4e79a7"/><circle cx="434.0" cy="150.4" r="3" fill="#4e79a7"/><circle cx="449.9" cy="173.1" r="3" fill="#4e79a7"/><circle cx="465.8" cy="168.5" r="3" fill="#4e79a7"/><circle cx="481.7" cy="177.6" r="3" fill="#4e79a7"/><circle cx="497.6" cy="204.8" r="3" fill="#4e79a7"/><circle cx="513.5" cy="159.5" r="3" fill="#4e79a7"/><circle cx="529.4" cy="168.5" r="3" fill="#4e79a7"/><circle cx="545.4" cy="182.1" r="3" fill="#4e79a7"/><circle cx="561.3" cy="173.1" r="3" fill="#4e79a7"/><circle cx="577.2" cy="118.7" r="3" fill="#4e79a7"/><circle cx="593.1" cy="105.1" r="3" fill="#4e79a7"/><circle cx="609.0" cy="132.3" r="3" fill="#4e79a7"/><circle cx="624.9" cy="154.9" r="3" fill="#4e79a7"/><circle cx="640.9" cy="136.8" r="3" fill="#4e79a7"/><circle cx="656.8" cy="28.0" r="3" fill="#4e79a7"/><circle cx="672.7" cy="173.1" r="3" fill="#4e79a7"/><circle cx="688.6" cy="173.1" r="3" fill="#4e79a7"/><circle cx="704.5" cy="177.6" r="3" fill="#4e79a7"/><circle cx="720.4" cy="186.7" r="3" fill="#4e79a7"/><circle cx="736.3" cy="182.1" r="3" fill="#4e79a7"/><circle cx="752.3" cy="186.7" r="3" fill="#4e79a7"/><circle cx="768.2" cy="191.2" r="3" fill="#4e79a7"/><circle cx="784.1" cy="164.0" r="3" fill="#4e79a7"/><circle cx="800.0" cy="168.5" r="3" fill="#4e79a7"/>
  <circle cx="52.0" cy="232.0" r="3" fill="#f28e2b"/><circle cx="67.9" cy="232.0" r="3" fill="#f28e2b"/><circle cx="83.8" cy="232.0" r="3" fill="#f28e2b"/><circle cx="99.7" cy="232.0" r="3" fill="#f28e2b"/><circle cx="115.7" cy="232.0" r="3" fill="#f28e2b"/><circle cx="131.6" cy="232.0" r="3" fill="#f28e2b"/><circle cx="147.5" cy="232.0" r="3" fill="#f28e2b"/><circle cx="163.4" cy="232.0" r="3" fill="#f28e2b"/><circle cx="179.3" cy="232.0" r="3" fill="#f28e2b"/><circle cx="195.2" cy="232.0" r="3" fill="#f28e2b"/><circle cx="211.1" cy="232.0" r="3" fill="#f28e2b"/><circle cx="227.1" cy="232.0" r="3" fill="#f28e2b"/><circle cx="243.0" cy="232.0" r="3" fill="#f28e2b"/><circle cx="258.9" cy="200.3" r="3" fill="#f28e2b"/><circle cx="274.8" cy="123.2" r="3" fill="#f28e2b"/><circle cx="290.7" cy="182.1" r="3" fill="#f28e2b"/><circle cx="306.6" cy="195.7" r="3" fill="#f28e2b"/><circle cx="322.6" cy="182.1" r="3" fill="#f28e2b"/><circle cx="338.5" cy="159.5" r="3" fill="#f28e2b"/><circle cx="354.4" cy="168.5" r="3" fill="#f28e2b"/><circle cx="370.3" cy="182.1" r="3" fill="#f28e2b"/><circle cx="386.2" cy="195.7" r="3" fill="#f28e2b"/><circle cx="402.1" cy="182.1" r="3" fill="#f28e2b"/><circle cx="418.0" cy="177.6" r="3" fill="#f28e2b"/><circle cx="434.0" cy="164.0" r="3" fill="#f28e2b"/><circle cx="449.9" cy="186.7" r="3" fill="#f28e2b"/><circle cx="465.8" cy="182.1" r="3" fill="#f28e2b"/><circle cx="481.7" cy="191.2" r="3" fill="#f28e2b"/><circle cx="497.6" cy="204.8" r="3" fill="#f28e2b"/><circle cx="513.5" cy="191.2" r="3" fill="#f28e2b"/><circle cx="529.4" cy="182.1" r="3" fill="#f28e2b"/><circle cx="545.4" cy="195.7" r="3" fill="#f28e2b"/><circle cx="561.3" cy="200.3" r="3" fill="#f28e2b"/><circle cx="577.2" cy="173.1" r="3" fill="#f28e2b"/><circle cx="593.1" cy="159.5" r="3" fill="#f28e2b"/><circle cx="609.0" cy="177.6" r="3" fill="#f28e2b"/><circle cx="624.9" cy="182.1" r="3" fill="#f28e2b"/><circle cx="640.9" cy="177.6" r="3" fill="#f28e2b"/><circle cx="656.8" cy="177.6" r="3" fill="#f28e2b"/><circle cx="672.7" cy="186.7" r="3" fill="#f28e2b"/><circle cx="688.6" cy="186.7" r="3" fill="#f28e2b"/><circle cx="704.5" cy="191.2" r="3" fill="#f28e2b"/><circle cx="720.4" cy="200.3" r="3" fill="#f28e2b"/><circle cx="736.3" cy="195.7" r="3" fill="#f28e2b"/><circle cx="752.3" cy="200.3" r="3" fill="#f28e2b"/><circle cx="768.2" cy="191.2" r="3" fill="#f28e2b"/><circle cx="784.1" cy="177.6" r="3" fill="#f28e2b"/><circle cx="800.0" cy="182.1" r="3" fill="#f28e2b"/>

  <!-- axes -->
  <line x1="52" y1="28" x2="52" y2="232"
        stroke="#cccccc" stroke-width="1"/>
  <line x1="52" y1="232" x2="800" y2="232"
        stroke="#cccccc" stroke-width="1"/>

  <!-- y-axis labels -->
  <text x="47" y="236.0" text-anchor="end" font-size="10" fill="#57606a" font-family="ui-monospace, SFMono-Regular, 'SF Mono', Menlo, monospace">0</text><text x="47" y="195.2" text-anchor="end" font-size="10" fill="#57606a" font-family="ui-monospace, SFMono-Regular, 'SF Mono', Menlo, monospace">9</text><text x="47" y="154.4" text-anchor="end" font-size="10" fill="#57606a" font-family="ui-monospace, SFMono-Regular, 'SF Mono', Menlo, monospace">18</text><text x="47" y="113.6" text-anchor="end" font-size="10" fill="#57606a" font-family="ui-monospace, SFMono-Regular, 'SF Mono', Menlo, monospace">27</text><text x="47" y="72.8" text-anchor="end" font-size="10" fill="#57606a" font-family="ui-monospace, SFMono-Regular, 'SF Mono', Menlo, monospace">36</text><text x="47" y="32.0" text-anchor="end" font-size="10" fill="#57606a" font-family="ui-monospace, SFMono-Regular, 'SF Mono', Menlo, monospace">45</text>

  <!-- x-axis labels -->
  <text x="52.0" y="248" text-anchor="middle" font-size="10" fill="#8c959f" font-family="ui-monospace, SFMono-Regular, 'SF Mono', Menlo, monospace">05-12</text><text x="624.9" y="248" text-anchor="middle" font-size="10" fill="#8c959f" font-family="ui-monospace, SFMono-Regular, 'SF Mono', Menlo, monospace">06-17</text><text x="147.5" y="248" text-anchor="middle" font-size="10" fill="#8c959f" font-family="ui-monospace, SFMono-Regular, 'SF Mono', Menlo, monospace">05-18</text><text x="720.4" y="248" text-anchor="middle" font-size="10" fill="#8c959f" font-family="ui-monospace, SFMono-Regular, 'SF Mono', Menlo, monospace">06-23</text><text x="243.0" y="248" text-anchor="middle" font-size="10" fill="#8c959f" font-family="ui-monospace, SFMono-Regular, 'SF Mono', Menlo, monospace">05-24</text><text x="800.0" y="248" text-anchor="middle" font-size="10" fill="#8c959f" font-family="ui-monospace, SFMono-Regular, 'SF Mono', Menlo, monospace">06-28</text><text x="338.5" y="248" text-anchor="middle" font-size="10" fill="#8c959f" font-family="ui-monospace, SFMono-Regular, 'SF Mono', Menlo, monospace">05-30</text><text x="434.0" y="248" text-anchor="middle" font-size="10" fill="#8c959f" font-family="ui-monospace, SFMono-Regular, 'SF Mono', Menlo, monospace">06-05</text><text x="529.4" y="248" text-anchor="middle" font-size="10" fill="#8c959f" font-family="ui-monospace, SFMono-Regular, 'SF Mono', Menlo, monospace">06-11</text>

  <!-- legend -->
  <rect x="60" y="262" width="16" height="3" fill="#4e79a7" rx="1"/><text x="80" y="268" font-size="11" fill="#57606a" font-family="-apple-system, BlinkMacSystemFont, 'Segoe UI', sans-serif">Total clones (562)</text><line x1="230" y1="264" x2="246" y2="264" stroke="#f28e2b" stroke-width="2" stroke-dasharray="5,3"/><text x="250" y="268" font-size="11" fill="#57606a" font-family="-apple-system, BlinkMacSystemFont, 'Segoe UI', sans-serif">Unique cloners</text>

</svg>