<svg xmlns="http://www.w3.org/2000/svg" viewBox="0 0 820 280" width="820" height="280">

  <!-- title -->
  <text x="52" y="18" font-size="13" font-weight="600"
        fill="#24292f" font-family="-apple-system, BlinkMacSystemFont, 'Segoe UI', sans-serif"
        >Clone traffic — stats</text>
  <text x="800" y="18" font-size="10" fill="#8c959f"
        font-family="ui-monospace, SFMono-Regular, 'SF Mono', Menlo, monospace" text-anchor="end">2026-07-02</text>

  <!-- grid -->
  <line x1="52" y1="232.0" x2="800" y2="232.0" stroke="#e8e8e8" stroke-width="1"/><line x1="52" y1="191.2" x2="800" y2="191.2" stroke="#e8e8e8" stroke-width="1"/><line x1="52" y1="150.4" x2="800" y2="150.4" stroke="#e8e8e8" stroke-width="1"/><line x1="52" y1="109.6" x2="800" y2="109.6" stroke="#e8e8e8" stroke-width="1"/><line x1="52" y1="68.8" x2="800" y2="68.8" stroke="#e8e8e8" stroke-width="1"/><line x1="52" y1="28.0" x2="800" y2="28.0" stroke="#e8e8e8" stroke-width="1"/>

  <!-- area fill -->
  <path d="M52.0,232.0 L52.0,232.0 L67.3,232.0 L82.5,232.0 L97.8,232.0 L113.1,232.0 L128.3,232.0 L143.6,232.0 L158.9,232.0 L174.1,232.0 L189.4,232.0 L204.7,232.0 L219.9,232.0 L235.2,232.0 L250.4,200.3 L265.7,50.7 L281.0,168.5 L296.2,182.1 L311.5,168.5 L326.8,145.9 L342.0,145.9 L357.3,164.0 L372.6,177.6 L387.8,168.5 L403.1,164.0 L418.4,150.4 L433.6,173.1 L448.9,168.5 L464.2,177.6 L479.4,204.8 L494.7,159.5 L510.0,168.5 L525.2,182.1 L540.5,173.1 L555.8,118.7 L571.0,105.1 L586.3,132.3 L601.6,154.9 L616.8,136.8 L632.1,28.0 L647.3,173.1 L662.6,173.1 L677.9,177.6 L693.1,186.7 L708.4,182.1 L723.7,186.7 L738.9,191.2 L754.2,164.0 L769.5,168.5 L784.7,177.6 L800.0,164.0 L800.0,232.0 L52.0,232.0Z" fill="#4e79a7" opacity="0.12"/>

  <!-- lines -->
  <polyline points="52.0,232.0 67.3,232.0 82.5,232.0 97.8,232.0 113.1,232.0 128.3,232.0 143.6,232.0 158.9,232.0 174.1,232.0 189.4,232.0 204.7,232.0 219.9,232.0 235.2,232.0 250.4,200.3 265.7,50.7 281.0,168.5 296.2,182.1 311.5,168.5 326.8,145.9 342.0,145.9 357.3,164.0 372.6,177.6 387.8,168.5 403.1,164.0 418.4,150.4 433.6,173.1 448.9,168.5 464.2,177.6 479.4,204.8 494.7,159.5 510.0,168.5 525.2,182.1 540.5,173.1 555.8,118.7 571.0,105.1 586.3,132.3 601.6,154.9 616.8,136.8 632.1,28.0 647.3,173.1 662.6,173.1 677.9,177.6 693.1,186.7 708.4,182.1 723.7,186.7 738.9,191.2 754.2,164.0 769.5,168.5 784.7,177.6 800.0,164.0"
            fill="none" stroke="#4e79a7"
            stroke-width="2" stroke-linejoin="round"/>
  <polyline points="52.0,232.0 67.3,232.0 82.5,232.0 97.8,232.0 113.1,232.0 128.3,232.0 143.6,232.0 158.9,232.0 174.1,232.0 189.4,232.0 204.7,232.0 219.9,232.0 235.2,232.0 250.4,200.3 265.7,123.2 281.0,182.1 296.2,195.7 311.5,182.1 326.8,159.5 342.0,168.5 357.3,182.1 372.6,195.7 387.8,182.1 403.1,177.6 418.4,164.0 433.6,186.7 448.9,182.1 464.2,191.2 479.4,204.8 494.7,191.2 510.0,182.1 525.2,195.7 540.5,200.3 555.8,173.1 571.0,159.5 586.3,177.6 601.6,182.1 616.8,177.6 632.1,177.6 647.3,186.7 662.6,186.7 677.9,191.2 693.1,200.3 708.4,195.7 723.7,200.3 738.9,191.2 754.2,177.6 769.5,182.1 784.7,191.2 800.0,177.6"
            fill="none" stroke="#f28e2b"
            stroke-width="2" stroke-linejoin="round"
            stroke-dasharray="5,3"/>

  <!-- dots -->
  <circle cx="52.0" cy="232.0" r="3" fill="#4e79a7"/><circle cx="67.3" cy="232.0" r="3" fill="#4e79a7"/><circle cx="82.5" cy="232.0" r="3" fill="#4e79a7"/><circle cx="97.8" cy="232.0" r="3" fill="#4e79a7"/><circle cx="113.1" cy="232.0" r="3" fill="#4e79a7"/><circle cx="128.3" cy="232.0" r="3" fill="#4e79a7"/><circle cx="143.6" cy="232.0" r="3" fill="#4e79a7"/><circle cx="158.9" cy="232.0" r="3" fill="#4e79a7"/><circle cx="174.1" cy="232.0" r="3" fill="#4e79a7"/><circle cx="189.4" cy="232.0" r="3" fill="#4e79a7"/><circle cx="204.7" cy="232.0" r="3" fill="#4e79a7"/><circle cx="219.9" cy="232.0" r="3" fill="#4e79a7"/><circle cx="235.2" cy="232.0" r="3" fill="#4e79a7"/><circle cx="250.4" cy="200.3" r="3" fill="#4e79a7"/><circle cx="265.7" cy="50.7" r="3" fill="#4e79a7"/><circle cx="281.0" cy="168.5" r="3" fill="#4e79a7"/><circle cx="296.2" cy="182.1" r="3" fill="#4e79a7"/><circle cx="311.5" cy="168.5" r="3" fill="#4e79a7"/><circle cx="326.8" cy="145.9" r="3" fill="#4e79a7"/><circle cx="342.0" cy="145.9" r="3" fill="#4e79a7"/><circle cx="357.3" cy="164.0" r="3" fill="#4e79a7"/><circle cx="372.6" cy="177.6" r="3" fill="#4e79a7"/><circle cx="387.8" cy="168.5" r="3" fill="#4e79a7"/><circle cx="403.1" cy="164.0" r="3" fill="#4e79a7"/><circle cx="418.4" cy="150.4" r="3" fill="#4e79a7"/><circle cx="433.6" cy="173.1" r="3" fill="#4e79a7"/><circle cx="448.9" cy="168.5" r="3" fill="#4e79a7"/><circle cx="464.2" cy="177.6" r="3" fill="#4e79a7"/><circle cx="479.4" cy="204.8" r="3" fill="#4e79a7"/><circle cx="494.7" cy="159.5" r="3" fill="#4e79a7"/><circle cx="510.0" cy="168.5" r="3" fill="#4e79a7"/><circle cx="525.2" cy="182.1" r="3" fill="#4e79a7"/><circle cx="540.5" cy="173.1" r="3" fill="#4e79a7"/><circle cx="555.8" cy="118.7" r="3" fill="#4e79a7"/><circle cx="571.0" cy="105.1" r="3" fill="#4e79a7"/><circle cx="586.3" cy="132.3" r="3" fill="#4e79a7"/><circle cx="601.6" cy="154.9" r="3" fill="#4e79a7"/><circle cx="616.8" cy="136.8" r="3" fill="#4e79a7"/><circle cx="632.1" cy="28.0" r="3" fill="#4e79a7"/><circle cx="647.3" cy="173.1" r="3" fill="#4e79a7"/><circle cx="662.6" cy="173.1" r="3" fill="#4e79a7"/><circle cx="677.9" cy="177.6" r="3" fill="#4e79a7"/><circle cx="693.1" cy="186.7" r="3" fill="#4e79a7"/><circle cx="708.4" cy="182.1" r="3" fill="#4e79a7"/><circle cx="723.7" cy="186.7" r="3" fill="#4e79a7"/><circle cx="738.9" cy="191.2" r="3" fill="#4e79a7"/><circle cx="754.2" cy="164.0" r="3" fill="#4e79a7"/><circle cx="769.5" cy="168.5" r="3" fill="#4e79a7"/><circle cx="784.7" cy="177.6" r="3" fill="#4e79a7"/><circle cx="800.0" cy="164.0" r="3" fill="#4e79a7"/>
  <circle cx="52.0" cy="232.0" r="3" fill="#f28e2b"/><circle cx="67.3" cy="232.0" r="3" fill="#f28e2b"/><circle cx="82.5" cy="232.0" r="3" fill="#f28e2b"/><circle cx="97.8" cy="232.0" r="3" fill="#f28e2b"/><circle cx="113.1" cy="232.0" r="3" fill="#f28e2b"/><circle cx="128.3" cy="232.0" r="3" fill="#f28e2b"/><circle cx="143.6" cy="232.0" r="3" fill="#f28e2b"/><circle cx="158.9" cy="232.0" r="3" fill="#f28e2b"/><circle cx="174.1" cy="232.0" r="3" fill="#f28e2b"/><circle cx="189.4" cy="232.0" r="3" fill="#f28e2b"/><circle cx="204.7" cy="232.0" r="3" fill="#f28e2b"/><circle cx="219.9" cy="232.0" r="3" fill="#f28e2b"/><circle cx="235.2" cy="232.0" r="3" fill="#f28e2b"/><circle cx="250.4" cy="200.3" r="3" fill="#f28e2b"/><circle cx="265.7" cy="123.2" r="3" fill="#f28e2b"/><circle cx="281.0" cy="182.1" r="3" fill="#f28e2b"/><circle cx="296.2" cy="195.7" r="3" fill="#f28e2b"/><circle cx="311.5" cy="182.1" r="3" fill="#f28e2b"/><circle cx="326.8" cy="159.5" r="3" fill="#f28e2b"/><circle cx="342.0" cy="168.5" r="3" fill="#f28e2b"/><circle cx="357.3" cy="182.1" r="3" fill="#f28e2b"/><circle cx="372.6" cy="195.7" r="3" fill="#f28e2b"/><circle cx="387.8" cy="182.1" r="3" fill="#f28e2b"/><circle cx="403.1" cy="177.6" r="3" fill="#f28e2b"/><circle cx="418.4" cy="164.0" r="3" fill="#f28e2b"/><circle cx="433.6" cy="186.7" r="3" fill="#f28e2b"/><circle cx="448.9" cy="182.1" r="3" fill="#f28e2b"/><circle cx="464.2" cy="191.2" r="3" fill="#f28e2b"/><circle cx="479.4" cy="204.8" r="3" fill="#f28e2b"/><circle cx="494.7" cy="191.2" r="3" fill="#f28e2b"/><circle cx="510.0" cy="182.1" r="3" fill="#f28e2b"/><circle cx="525.2" cy="195.7" r="3" fill="#f28e2b"/><circle cx="540.5" cy="200.3" r="3" fill="#f28e2b"/><circle cx="555.8" cy="173.1" r="3" fill="#f28e2b"/><circle cx="571.0" cy="159.5" r="3" fill="#f28e2b"/><circle cx="586.3" cy="177.6" r="3" fill="#f28e2b"/><circle cx="601.6" cy="182.1" r="3" fill="#f28e2b"/><circle cx="616.8" cy="177.6" r="3" fill="#f28e2b"/><circle cx="632.1" cy="177.6" r="3" fill="#f28e2b"/><circle cx="647.3" cy="186.7" r="3" fill="#f28e2b"/><circle cx="662.6" cy="186.7" r="3" fill="#f28e2b"/><circle cx="677.9" cy="191.2" r="3" fill="#f28e2b"/><circle cx="693.1" cy="200.3" r="3" fill="#f28e2b"/><circle cx="708.4" cy="195.7" r="3" fill="#f28e2b"/><circle cx="723.7" cy="200.3" r="3" fill="#f28e2b"/><circle cx="738.9" cy="191.2" r="3" fill="#f28e2b"/><circle cx="754.2" cy="177.6" r="3" fill="#f28e2b"/><circle cx="769.5" cy="182.1" r="3" fill="#f28e2b"/><circle cx="784.7" cy="191.2" r="3" fill="#f28e2b"/><circle cx="800.0" cy="177.6" r="3" fill="#f28e2b"/>

  <!-- axes -->
  <line x1="52" y1="28" x2="52" y2="232"
        stroke="#cccccc" stroke-width="1"/>
  <line x1="52" y1="232" x2="800" y2="232"
        stroke="#cccccc" stroke-width="1"/>

  <!-- y-axis labels -->
  <text x="47" y="236.0" text-anchor="end" font-size="10" fill="#57606a" font-family="ui-monospace, SFMono-Regular, 'SF Mono', Menlo, monospace">0</text><text x="47" y="195.2" text-anchor="end" font-size="10" fill="#57606a" font-family="ui-monospace, SFMono-Regular, 'SF Mono', Menlo, monospace">9</text><text x="47" y="154.4" text-anchor="end" font-size="10" fill="#57606a" font-family="ui-monospace, SFMono-Regular, 'SF Mono', Menlo, monospace">18</text><text x="47" y="113.6" text-anchor="end" font-size="10" fill="#57606a" font-family="ui-monospace, SFMono-Regular, 'SF Mono', Menlo, monospace">27</text><text x="47" y="72.8" text-anchor="end" font-size="10" fill="#57606a" font-family="ui-monospace, SFMono-Regular, 'SF Mono', Menlo, monospace">36</text><text x="47" y="32.0" text-anchor="end" font-size="10" fill="#57606a" font-family="ui-monospace, SFMono-Regular, 'SF Mono', Menlo, monospace">45</text>

  <!-- x-axis labels -->
  <text x="52.0" y="248" text-anchor="middle" font-size="10" fill="#8c959f" font-family="ui-monospace, SFMono-Regular, 'SF Mono', Menlo, monospace">05-12</text><text x="601.6" y="248" text-anchor="middle" font-size="10" fill="#8c959f" font-family="ui-monospace, SFMono-Regular, 'SF Mono', Menlo, monospace">06-17</text><text x="143.6" y="248" text-anchor="middle" font-size="10" fill="#8c959f" font-family="ui-monospace, SFMono-Regular, 'SF Mono', Menlo, monospace">05-18</text><text x="693.1" y="248" text-anchor="middle" font-size="10" fill="#8c959f" font-family="ui-monospace, SFMono-Regular, 'SF Mono', Menlo, monospace">06-23</text><text x="235.2" y="248" text-anchor="middle" font-size="10" fill="#8c959f" font-family="ui-monospace, SFMono-Regular, 'SF Mono', Menlo, monospace">05-24</text><text x="784.7" y="248" text-anchor="middle" font-size="10" fill="#8c959f" font-family="ui-monospace, SFMono-Regular, 'SF Mono', Menlo, monospace">06-29</text><text x="800.0" y="248" text-anchor="middle" font-size="10" fill="#8c959f" font-family="ui-monospace, SFMono-Regular, 'SF Mono', Menlo, monospace">06-30</text><text x="326.8" y="248" text-anchor="middle" font-size="10" fill="#8c959f" font-family="ui-monospace, SFMono-Regular, 'SF Mono', Menlo, monospace">05-30</text><text x="418.4" y="248" text-anchor="middle" font-size="10" fill="#8c959f" font-family="ui-monospace, SFMono-Regular, 'SF Mono', Menlo, monospace">06-05</text><text x="510.0" y="248" text-anchor="middle" font-size="10" fill="#8c959f" font-family="ui-monospace, SFMono-Regular, 'SF Mono', Menlo, monospace">06-11</text>

  <!-- legend -->
  <rect x="60" y="262" width="16" height="3" fill="#4e79a7" rx="1"/><text x="80" y="268" font-size="11" fill="#57606a" font-family="-apple-system, BlinkMacSystemFont, 'Segoe UI', sans-serif">Total clones (589)</text><line x1="230" y1="264" x2="246" y2="264" stroke="#f28e2b" stroke-width="2" stroke-dasharray="5,3"/><text x="250" y="268" font-size="11" fill="#57606a" font-family="-apple-system, BlinkMacSystemFont, 'Segoe UI', sans-serif">Unique cloners</text>

</svg>