<svg xmlns="http://www.w3.org/2000/svg" viewBox="0 0 820 280" width="820" height="280">

  <!-- title -->
  <text x="52" y="18" font-size="13" font-weight="600"
        fill="#24292f" font-family="-apple-system, BlinkMacSystemFont, 'Segoe UI', sans-serif"
        >Clone traffic — stats</text>
  <text x="800" y="18" font-size="10" fill="#8c959f"
        font-family="ui-monospace, SFMono-Regular, 'SF Mono', Menlo, monospace" text-anchor="end">2026-06-13</text>

  <!-- grid -->
  <line x1="52" y1="232.0" x2="800" y2="232.0" stroke="#e8e8e8" stroke-width="1"/><line x1="52" y1="191.2" x2="800" y2="191.2" stroke="#e8e8e8" stroke-width="1"/><line x1="52" y1="150.4" x2="800" y2="150.4" stroke="#e8e8e8" stroke-width="1"/><line x1="52" y1="109.6" x2="800" y2="109.6" stroke="#e8e8e8" stroke-width="1"/><line x1="52" y1="68.8" x2="800" y2="68.8" stroke="#e8e8e8" stroke-width="1"/><line x1="52" y1="28.0" x2="800" y2="28.0" stroke="#e8e8e8" stroke-width="1"/>

  <!-- area fill -->
  <path d="M52.0,232.0 L52.0,232.0 L77.8,232.0 L103.6,232.0 L129.4,232.0 L155.2,232.0 L181.0,232.0 L206.8,232.0 L232.6,232.0 L258.3,232.0 L284.1,232.0 L309.9,232.0 L335.7,232.0 L361.5,232.0 L387.3,196.3 L413.1,28.0 L438.9,160.6 L464.7,175.9 L490.5,160.6 L516.3,135.1 L542.1,135.1 L567.9,155.5 L593.7,170.8 L619.4,160.6 L645.2,155.5 L671.0,140.2 L696.8,165.7 L722.6,160.6 L748.4,170.8 L774.2,201.4 L800.0,150.4 L800.0,232.0 L52.0,232.0Z" fill="#4e79a7" opacity="0.12"/>

  <!-- lines -->
  <polyline points="52.0,232.0 77.8,232.0 103.6,232.0 129.4,232.0 155.2,232.0 181.0,232.0 206.8,232.0 232.6,232.0 258.3,232.0 284.1,232.0 309.9,232.0 335.7,232.0 361.5,232.0 387.3,196.3 413.1,28.0 438.9,160.6 464.7,175.9 490.5,160.6 516.3,135.1 542.1,135.1 567.9,155.5 593.7,170.8 619.4,160.6 645.2,155.5 671.0,140.2 696.8,165.7 722.6,160.6 748.4,170.8 774.2,201.4 800.0,150.4"
            fill="none" stroke="#4e79a7"
            stroke-width="2" stroke-linejoin="round"/>
  <polyline points="52.0,232.0 77.8,232.0 103.6,232.0 129.4,232.0 155.2,232.0 181.0,232.0 206.8,232.0 232.6,232.0 258.3,232.0 284.1,232.0 309.9,232.0 335.7,232.0 361.5,232.0 387.3,196.3 413.1,109.6 438.9,175.9 464.7,191.2 490.5,175.9 516.3,150.4 542.1,160.6 567.9,175.9 593.7,191.2 619.4,175.9 645.2,170.8 671.0,155.5 696.8,181.0 722.6,175.9 748.4,186.1 774.2,201.4 800.0,186.1"
            fill="none" stroke="#f28e2b"
            stroke-width="2" stroke-linejoin="round"
            stroke-dasharray="5,3"/>

  <!-- dots -->
  <circle cx="52.0" cy="232.0" r="3" fill="#4e79a7"/><circle cx="77.8" cy="232.0" r="3" fill="#4e79a7"/><circle cx="103.6" cy="232.0" r="3" fill="#4e79a7"/><circle cx="129.4" cy="232.0" r="3" fill="#4e79a7"/><circle cx="155.2" cy="232.0" r="3" fill="#4e79a7"/><circle cx="181.0" cy="232.0" r="3" fill="#4e79a7"/><circle cx="206.8" cy="232.0" r="3" fill="#4e79a7"/><circle cx="232.6" cy="232.0" r="3" fill="#4e79a7"/><circle cx="258.3" cy="232.0" r="3" fill="#4e79a7"/><circle cx="284.1" cy="232.0" r="3" fill="#4e79a7"/><circle cx="309.9" cy="232.0" r="3" fill="#4e79a7"/><circle cx="335.7" cy="232.0" r="3" fill="#4e79a7"/><circle cx="361.5" cy="232.0" r="3" fill="#4e79a7"/><circle cx="387.3" cy="196.3" r="3" fill="#4e79a7"/><circle cx="413.1" cy="28.0" r="3" fill="#4e79a7"/><circle cx="438.9" cy="160.6" r="3" fill="#4e79a7"/><circle cx="464.7" cy="175.9" r="3" fill="#4e79a7"/><circle cx="490.5" cy="160.6" r="3" fill="#4e79a7"/><circle cx="516.3" cy="135.1" r="3" fill="#4e79a7"/><circle cx="542.1" cy="135.1" r="3" fill="#4e79a7"/><circle cx="567.9" cy="155.5" r="3" fill="#4e79a7"/><circle cx="593.7" cy="170.8" r="3" fill="#4e79a7"/><circle cx="619.4" cy="160.6" r="3" fill="#4e79a7"/><circle cx="645.2" cy="155.5" r="3" fill="#4e79a7"/><circle cx="671.0" cy="140.2" r="3" fill="#4e79a7"/><circle cx="696.8" cy="165.7" r="3" fill="#4e79a7"/><circle cx="722.6" cy="160.6" r="3" fill="#4e79a7"/><circle cx="748.4" cy="170.8" r="3" fill="#4e79a7"/><circle cx="774.2" cy="201.4" r="3" fill="#4e79a7"/><circle cx="800.0" cy="150.4" r="3" fill="#4e79a7"/>
  <circle cx="52.0" cy="232.0" r="3" fill="#f28e2b"/><circle cx="77.8" cy="232.0" r="3" fill="#f28e2b"/><circle cx="103.6" cy="232.0" r="3" fill="#f28e2b"/><circle cx="129.4" cy="232.0" r="3" fill="#f28e2b"/><circle cx="155.2" cy="232.0" r="3" fill="#f28e2b"/><circle cx="181.0" cy="232.0" r="3" fill="#f28e2b"/><circle cx="206.8" cy="232.0" r="3" fill="#f28e2b"/><circle cx="232.6" cy="232.0" r="3" fill="#f28e2b"/><circle cx="258.3" cy="232.0" r="3" fill="#f28e2b"/><circle cx="284.1" cy="232.0" r="3" fill="#f28e2b"/><circle cx="309.9" cy="232.0" r="3" fill="#f28e2b"/><circle cx="335.7" cy="232.0" r="3" fill="#f28e2b"/><circle cx="361.5" cy="232.0" r="3" fill="#f28e2b"/><circle cx="387.3" cy="196.3" r="3" fill="#f28e2b"/><circle cx="413.1" cy="109.6" r="3" fill="#f28e2b"/><circle cx="438.9" cy="175.9" r="3" fill="#f28e2b"/><circle cx="464.7" cy="191.2" r="3" fill="#f28e2b"/><circle cx="490.5" cy="175.9" r="3" fill="#f28e2b"/><circle cx="516.3" cy="150.4" r="3" fill="#f28e2b"/><circle cx="542.1" cy="160.6" r="3" fill="#f28e2b"/><circle cx="567.9" cy="175.9" r="3" fill="#f28e2b"/><circle cx="593.7" cy="191.2" r="3" fill="#f28e2b"/><circle cx="619.4" cy="175.9" r="3" fill="#f28e2b"/><circle cx="645.2" cy="170.8" r="3" fill="#f28e2b"/><circle cx="671.0" cy="155.5" r="3" fill="#f28e2b"/><circle cx="696.8" cy="181.0" r="3" fill="#f28e2b"/><circle cx="722.6" cy="175.9" r="3" fill="#f28e2b"/><circle cx="748.4" cy="186.1" r="3" fill="#f28e2b"/><circle cx="774.2" cy="201.4" r="3" fill="#f28e2b"/><circle cx="800.0" cy="186.1" r="3" fill="#f28e2b"/>

  <!-- axes -->
  <line x1="52" y1="28" x2="52" y2="232"
        stroke="#cccccc" stroke-width="1"/>
  <line x1="52" y1="232" x2="800" y2="232"
        stroke="#cccccc" stroke-width="1"/>

  <!-- y-axis labels -->
  <text x="47" y="236.0" text-anchor="end" font-size="10" fill="#57606a" font-family="ui-monospace, SFMono-Regular, 'SF Mono', Menlo, monospace">0</text><text x="47" y="195.2" text-anchor="end" font-size="10" fill="#57606a" font-family="ui-monospace, SFMono-Regular, 'SF Mono', Menlo, monospace">8</text><text x="47" y="154.4" text-anchor="end" font-size="10" fill="#57606a" font-family="ui-monospace, SFMono-Regular, 'SF Mono', Menlo, monospace">16</text><text x="47" y="113.6" text-anchor="end" font-size="10" fill="#57606a" font-family="ui-monospace, SFMono-Regular, 'SF Mono', Menlo, monospace">24</text><text x="47" y="72.8" text-anchor="end" font-size="10" fill="#57606a" font-family="ui-monospace, SFMono-Regular, 'SF Mono', Menlo, monospace">32</text><text x="47" y="32.0" text-anchor="end" font-size="10" fill="#57606a" font-family="ui-monospace, SFMono-Regular, 'SF Mono', Menlo, monospace">40</text>

  <!-- x-axis labels -->
  <text x="52.0" y="248" text-anchor="middle" font-size="10" fill="#8c959f" font-family="ui-monospace, SFMono-Regular, 'SF Mono', Menlo, monospace">05-12</text><text x="129.4" y="248" text-anchor="middle" font-size="10" fill="#8c959f" font-family="ui-monospace, SFMono-Regular, 'SF Mono', Menlo, monospace">05-15</text><text x="206.8" y="248" text-anchor="middle" font-size="10" fill="#8c959f" font-family="ui-monospace, SFMono-Regular, 'SF Mono', Menlo, monospace">05-18</text><text x="284.1" y="248" text-anchor="middle" font-size="10" fill="#8c959f" font-family="ui-monospace, SFMono-Regular, 'SF Mono', Menlo, monospace">05-21</text><text x="361.5" y="248" text-anchor="middle" font-size="10" fill="#8c959f" font-family="ui-monospace, SFMono-Regular, 'SF Mono', Menlo, monospace">05-24</text><text x="438.9" y="248" text-anchor="middle" font-size="10" fill="#8c959f" font-family="ui-monospace, SFMono-Regular, 'SF Mono', Menlo, monospace">05-27</text><text x="516.3" y="248" text-anchor="middle" font-size="10" fill="#8c959f" font-family="ui-monospace, SFMono-Regular, 'SF Mono', Menlo, monospace">05-30</text><text x="593.7" y="248" text-anchor="middle" font-size="10" fill="#8c959f" font-family="ui-monospace, SFMono-Regular, 'SF Mono', Menlo, monospace">06-02</text><text x="671.0" y="248" text-anchor="middle" font-size="10" fill="#8c959f" font-family="ui-monospace, SFMono-Regular, 'SF Mono', Menlo, monospace">06-05</text><text x="748.4" y="248" text-anchor="middle" font-size="10" fill="#8c959f" font-family="ui-monospace, SFMono-Regular, 'SF Mono', Menlo, monospace">06-08</text><text x="800.0" y="248" text-anchor="middle" font-size="10" fill="#8c959f" font-family="ui-monospace, SFMono-Regular, 'SF Mono', Menlo, monospace">06-10</text>

  <!-- legend -->
  <rect x="60" y="262" width="16" height="3" fill="#4e79a7" rx="1"/><text x="80" y="268" font-size="11" fill="#57606a" font-family="-apple-system, BlinkMacSystemFont, 'Segoe UI', sans-serif">Total clones (259)</text><line x1="230" y1="264" x2="246" y2="264" stroke="#f28e2b" stroke-width="2" stroke-dasharray="5,3"/><text x="250" y="268" font-size="11" fill="#57606a" font-family="-apple-system, BlinkMacSystemFont, 'Segoe UI', sans-serif">Unique cloners</text>

</svg>