<svg xmlns="http://www.w3.org/2000/svg" viewBox="0 0 820 280" width="820" height="280">

  <!-- title -->
  <text x="52" y="18" font-size="13" font-weight="600"
        fill="#24292f" font-family="-apple-system, BlinkMacSystemFont, 'Segoe UI', sans-serif"
        >Clone traffic — stats</text>
  <text x="800" y="18" font-size="10" fill="#8c959f"
        font-family="ui-monospace, SFMono-Regular, 'SF Mono', Menlo, monospace" text-anchor="end">2026-07-10</text>

  <!-- grid -->
  <line x1="52" y1="232.0" x2="800" y2="232.0" stroke="#e8e8e8" stroke-width="1"/><line x1="52" y1="191.2" x2="800" y2="191.2" stroke="#e8e8e8" stroke-width="1"/><line x1="52" y1="150.4" x2="800" y2="150.4" stroke="#e8e8e8" stroke-width="1"/><line x1="52" y1="109.6" x2="800" y2="109.6" stroke="#e8e8e8" stroke-width="1"/><line x1="52" y1="68.8" x2="800" y2="68.8" stroke="#e8e8e8" stroke-width="1"/><line x1="52" y1="28.0" x2="800" y2="28.0" stroke="#e8e8e8" stroke-width="1"/>

  <!-- area fill -->
  <path d="M52.0,232.0 L52.0,232.0 L65.1,232.0 L78.2,232.0 L91.4,232.0 L104.5,232.0 L117.6,232.0 L130.7,232.0 L143.9,232.0 L157.0,232.0 L170.1,232.0 L183.2,232.0 L196.4,232.0 L209.5,232.0 L222.6,200.3 L235.7,50.7 L248.8,168.5 L262.0,182.1 L275.1,168.5 L288.2,145.9 L301.3,145.9 L314.5,164.0 L327.6,177.6 L340.7,168.5 L353.8,164.0 L366.9,150.4 L380.1,173.1 L393.2,168.5 L406.3,177.6 L419.4,204.8 L432.6,159.5 L445.7,168.5 L458.8,182.1 L471.9,173.1 L485.1,118.7 L498.2,105.1 L511.3,132.3 L524.4,154.9 L537.5,136.8 L550.7,28.0 L563.8,173.1 L576.9,173.1 L590.0,177.6 L603.2,186.7 L616.3,182.1 L629.4,186.7 L642.5,191.2 L655.6,164.0 L668.8,168.5 L681.9,177.6 L695.0,164.0 L708.1,177.6 L721.3,154.9 L734.4,222.9 L747.5,182.1 L760.6,173.1 L773.8,177.6 L786.9,209.3 L800.0,222.9 L800.0,232.0 L52.0,232.0Z" fill="#4e79a7" opacity="0.12"/>

  <!-- lines -->
  <polyline points="52.0,232.0 65.1,232.0 78.2,232.0 91.4,232.0 104.5,232.0 117.6,232.0 130.7,232.0 143.9,232.0 157.0,232.0 170.1,232.0 183.2,232.0 196.4,232.0 209.5,232.0 222.6,200.3 235.7,50.7 248.8,168.5 262.0,182.1 275.1,168.5 288.2,145.9 301.3,145.9 314.5,164.0 327.6,177.6 340.7,168.5 353.8,164.0 366.9,150.4 380.1,173.1 393.2,168.5 406.3,177.6 419.4,204.8 432.6,159.5 445.7,168.5 458.8,182.1 471.9,173.1 485.1,118.7 498.2,105.1 511.3,132.3 524.4,154.9 537.5,136.8 550.7,28.0 563.8,173.1 576.9,173.1 590.0,177.6 603.2,186.7 616.3,182.1 629.4,186.7 642.5,191.2 655.6,164.0 668.8,168.5 681.9,177.6 695.0,164.0 708.1,177.6 721.3,154.9 734.4,222.9 747.5,182.1 760.6,173.1 773.8,177.6 786.9,209.3 800.0,222.9"
            fill="none" stroke="#4e79a7"
            stroke-width="2" stroke-linejoin="round"/>
  <polyline points="52.0,232.0 65.1,232.0 78.2,232.0 91.4,232.0 104.5,232.0 117.6,232.0 130.7,232.0 143.9,232.0 157.0,232.0 170.1,232.0 183.2,232.0 196.4,232.0 209.5,232.0 222.6,200.3 235.7,123.2 248.8,182.1 262.0,195.7 275.1,182.1 288.2,159.5 301.3,168.5 314.5,182.1 327.6,195.7 340.7,182.1 353.8,177.6 366.9,164.0 380.1,186.7 393.2,182.1 406.3,191.2 419.4,204.8 432.6,191.2 445.7,182.1 458.8,195.7 471.9,200.3 485.1,173.1 498.2,159.5 511.3,177.6 524.4,182.1 537.5,177.6 550.7,177.6 563.8,186.7 576.9,186.7 590.0,191.2 603.2,200.3 616.3,195.7 629.4,200.3 642.5,191.2 655.6,177.6 668.8,182.1 681.9,191.2 695.0,177.6 708.1,191.2 721.3,173.1 734.4,222.9 747.5,195.7 760.6,200.3 773.8,191.2 786.9,209.3 800.0,222.9"
            fill="none" stroke="#f28e2b"
            stroke-width="2" stroke-linejoin="round"
            stroke-dasharray="5,3"/>

  <!-- dots -->
  <circle cx="52.0" cy="232.0" r="3" fill="#4e79a7"/><circle cx="65.1" cy="232.0" r="3" fill="#4e79a7"/><circle cx="78.2" cy="232.0" r="3" fill="#4e79a7"/><circle cx="91.4" cy="232.0" r="3" fill="#4e79a7"/><circle cx="104.5" cy="232.0" r="3" fill="#4e79a7"/><circle cx="117.6" cy="232.0" r="3" fill="#4e79a7"/><circle cx="130.7" cy="232.0" r="3" fill="#4e79a7"/><circle cx="143.9" cy="232.0" r="3" fill="#4e79a7"/><circle cx="157.0" cy="232.0" r="3" fill="#4e79a7"/><circle cx="170.1" cy="232.0" r="3" fill="#4e79a7"/><circle cx="183.2" cy="232.0" r="3" fill="#4e79a7"/><circle cx="196.4" cy="232.0" r="3" fill="#4e79a7"/><circle cx="209.5" cy="232.0" r="3" fill="#4e79a7"/><circle cx="222.6" cy="200.3" r="3" fill="#4e79a7"/><circle cx="235.7" cy="50.7" r="3" fill="#4e79a7"/><circle cx="248.8" cy="168.5" r="3" fill="#4e79a7"/><circle cx="262.0" cy="182.1" r="3" fill="#4e79a7"/><circle cx="275.1" cy="168.5" r="3" fill="#4e79a7"/><circle cx="288.2" cy="145.9" r="3" fill="#4e79a7"/><circle cx="301.3" cy="145.9" r="3" fill="#4e79a7"/><circle cx="314.5" cy="164.0" r="3" fill="#4e79a7"/><circle cx="327.6" cy="177.6" r="3" fill="#4e79a7"/><circle cx="340.7" cy="168.5" r="3" fill="#4e79a7"/><circle cx="353.8" cy="164.0" r="3" fill="#4e79a7"/><circle cx="366.9" cy="150.4" r="3" fill="#4e79a7"/><circle cx="380.1" cy="173.1" r="3" fill="#4e79a7"/><circle cx="393.2" cy="168.5" r="3" fill="#4e79a7"/><circle cx="406.3" cy="177.6" r="3" fill="#4e79a7"/><circle cx="419.4" cy="204.8" r="3" fill="#4e79a7"/><circle cx="432.6" cy="159.5" r="3" fill="#4e79a7"/><circle cx="445.7" cy="168.5" r="3" fill="#4e79a7"/><circle cx="458.8" cy="182.1" r="3" fill="#4e79a7"/><circle cx="471.9" cy="173.1" r="3" fill="#4e79a7"/><circle cx="485.1" cy="118.7" r="3" fill="#4e79a7"/><circle cx="498.2" cy="105.1" r="3" fill="#4e79a7"/><circle cx="511.3" cy="132.3" r="3" fill="#4e79a7"/><circle cx="524.4" cy="154.9" r="3" fill="#4e79a7"/><circle cx="537.5" cy="136.8" r="3" fill="#4e79a7"/><circle cx="550.7" cy="28.0" r="3" fill="#4e79a7"/><circle cx="563.8" cy="173.1" r="3" fill="#4e79a7"/><circle cx="576.9" cy="173.1" r="3" fill="#4e79a7"/><circle cx="590.0" cy="177.6" r="3" fill="#4e79a7"/><circle cx="603.2" cy="186.7" r="3" fill="#4e79a7"/><circle cx="616.3" cy="182.1" r="3" fill="#4e79a7"/><circle cx="629.4" cy="186.7" r="3" fill="#4e79a7"/><circle cx="642.5" cy="191.2" r="3" fill="#4e79a7"/><circle cx="655.6" cy="164.0" r="3" fill="#4e79a7"/><circle cx="668.8" cy="168.5" r="3" fill="#4e79a7"/><circle cx="681.9" cy="177.6" r="3" fill="#4e79a7"/><circle cx="695.0" cy="164.0" r="3" fill="#4e79a7"/><circle cx="708.1" cy="177.6" r="3" fill="#4e79a7"/><circle cx="721.3" cy="154.9" r="3" fill="#4e79a7"/><circle cx="734.4" cy="222.9" r="3" fill="#4e79a7"/><circle cx="747.5" cy="182.1" r="3" fill="#4e79a7"/><circle cx="760.6" cy="173.1" r="3" fill="#4e79a7"/><circle cx="773.8" cy="177.6" r="3" fill="#4e79a7"/><circle cx="786.9" cy="209.3" r="3" fill="#4e79a7"/><circle cx="800.0" cy="222.9" r="3" fill="#4e79a7"/>
  <circle cx="52.0" cy="232.0" r="3" fill="#f28e2b"/><circle cx="65.1" cy="232.0" r="3" fill="#f28e2b"/><circle cx="78.2" cy="232.0" r="3" fill="#f28e2b"/><circle cx="91.4" cy="232.0" r="3" fill="#f28e2b"/><circle cx="104.5" cy="232.0" r="3" fill="#f28e2b"/><circle cx="117.6" cy="232.0" r="3" fill="#f28e2b"/><circle cx="130.7" cy="232.0" r="3" fill="#f28e2b"/><circle cx="143.9" cy="232.0" r="3" fill="#f28e2b"/><circle cx="157.0" cy="232.0" r="3" fill="#f28e2b"/><circle cx="170.1" cy="232.0" r="3" fill="#f28e2b"/><circle cx="183.2" cy="232.0" r="3" fill="#f28e2b"/><circle cx="196.4" cy="232.0" r="3" fill="#f28e2b"/><circle cx="209.5" cy="232.0" r="3" fill="#f28e2b"/><circle cx="222.6" cy="200.3" r="3" fill="#f28e2b"/><circle cx="235.7" cy="123.2" r="3" fill="#f28e2b"/><circle cx="248.8" cy="182.1" r="3" fill="#f28e2b"/><circle cx="262.0" cy="195.7" r="3" fill="#f28e2b"/><circle cx="275.1" cy="182.1" r="3" fill="#f28e2b"/><circle cx="288.2" cy="159.5" r="3" fill="#f28e2b"/><circle cx="301.3" cy="168.5" r="3" fill="#f28e2b"/><circle cx="314.5" cy="182.1" r="3" fill="#f28e2b"/><circle cx="327.6" cy="195.7" r="3" fill="#f28e2b"/><circle cx="340.7" cy="182.1" r="3" fill="#f28e2b"/><circle cx="353.8" cy="177.6" r="3" fill="#f28e2b"/><circle cx="366.9" cy="164.0" r="3" fill="#f28e2b"/><circle cx="380.1" cy="186.7" r="3" fill="#f28e2b"/><circle cx="393.2" cy="182.1" r="3" fill="#f28e2b"/><circle cx="406.3" cy="191.2" r="3" fill="#f28e2b"/><circle cx="419.4" cy="204.8" r="3" fill="#f28e2b"/><circle cx="432.6" cy="191.2" r="3" fill="#f28e2b"/><circle cx="445.7" cy="182.1" r="3" fill="#f28e2b"/><circle cx="458.8" cy="195.7" r="3" fill="#f28e2b"/><circle cx="471.9" cy="200.3" r="3" fill="#f28e2b"/><circle cx="485.1" cy="173.1" r="3" fill="#f28e2b"/><circle cx="498.2" cy="159.5" r="3" fill="#f28e2b"/><circle cx="511.3" cy="177.6" r="3" fill="#f28e2b"/><circle cx="524.4" cy="182.1" r="3" fill="#f28e2b"/><circle cx="537.5" cy="177.6" r="3" fill="#f28e2b"/><circle cx="550.7" cy="177.6" r="3" fill="#f28e2b"/><circle cx="563.8" cy="186.7" r="3" fill="#f28e2b"/><circle cx="576.9" cy="186.7" r="3" fill="#f28e2b"/><circle cx="590.0" cy="191.2" r="3" fill="#f28e2b"/><circle cx="603.2" cy="200.3" r="3" fill="#f28e2b"/><circle cx="616.3" cy="195.7" r="3" fill="#f28e2b"/><circle cx="629.4" cy="200.3" r="3" fill="#f28e2b"/><circle cx="642.5" cy="191.2" r="3" fill="#f28e2b"/><circle cx="655.6" cy="177.6" r="3" fill="#f28e2b"/><circle cx="668.8" cy="182.1" r="3" fill="#f28e2b"/><circle cx="681.9" cy="191.2" r="3" fill="#f28e2b"/><circle cx="695.0" cy="177.6" r="3" fill="#f28e2b"/><circle cx="708.1" cy="191.2" r="3" fill="#f28e2b"/><circle cx="721.3" cy="173.1" r="3" fill="#f28e2b"/><circle cx="734.4" cy="222.9" r="3" fill="#f28e2b"/><circle cx="747.5" cy="195.7" r="3" fill="#f28e2b"/><circle cx="760.6" cy="200.3" r="3" fill="#f28e2b"/><circle cx="773.8" cy="191.2" r="3" fill="#f28e2b"/><circle cx="786.9" cy="209.3" r="3" fill="#f28e2b"/><circle cx="800.0" cy="222.9" r="3" fill="#f28e2b"/>

  <!-- axes -->
  <line x1="52" y1="28" x2="52" y2="232"
        stroke="#cccccc" stroke-width="1"/>
  <line x1="52" y1="232" x2="800" y2="232"
        stroke="#cccccc" stroke-width="1"/>

  <!-- y-axis labels -->
  <text x="47" y="236.0" text-anchor="end" font-size="10" fill="#57606a" font-family="ui-monospace, SFMono-Regular, 'SF Mono', Menlo, monospace">0</text><text x="47" y="195.2" text-anchor="end" font-size="10" fill="#57606a" font-family="ui-monospace, SFMono-Regular, 'SF Mono', Menlo, monospace">9</text><text x="47" y="154.4" text-anchor="end" font-size="10" fill="#57606a" font-family="ui-monospace, SFMono-Regular, 'SF Mono', Menlo, monospace">18</text><text x="47" y="113.6" text-anchor="end" font-size="10" fill="#57606a" font-family="ui-monospace, SFMono-Regular, 'SF Mono', Menlo, monospace">27</text><text x="47" y="72.8" text-anchor="end" font-size="10" fill="#57606a" font-family="ui-monospace, SFMono-Regular, 'SF Mono', Menlo, monospace">36</text><text x="47" y="32.0" text-anchor="end" font-size="10" fill="#57606a" font-family="ui-monospace, SFMono-Regular, 'SF Mono', Menlo, monospace">45</text>

  <!-- x-axis labels -->
  <text x="52.0" y="248" text-anchor="middle" font-size="10" fill="#8c959f" font-family="ui-monospace, SFMono-Regular, 'SF Mono', Menlo, monospace">05-12</text><text x="511.3" y="248" text-anchor="middle" font-size="10" fill="#8c959f" font-family="ui-monospace, SFMono-Regular, 'SF Mono', Menlo, monospace">06-16</text><text x="143.9" y="248" text-anchor="middle" font-size="10" fill="#8c959f" font-family="ui-monospace, SFMono-Regular, 'SF Mono', Menlo, monospace">05-19</text><text x="603.2" y="248" text-anchor="middle" font-size="10" fill="#8c959f" font-family="ui-monospace, SFMono-Regular, 'SF Mono', Menlo, monospace">06-23</text><text x="235.7" y="248" text-anchor="middle" font-size="10" fill="#8c959f" font-family="ui-monospace, SFMono-Regular, 'SF Mono', Menlo, monospace">05-26</text><text x="695.0" y="248" text-anchor="middle" font-size="10" fill="#8c959f" font-family="ui-monospace, SFMono-Regular, 'SF Mono', Menlo, monospace">06-30</text><text x="327.6" y="248" text-anchor="middle" font-size="10" fill="#8c959f" font-family="ui-monospace, SFMono-Regular, 'SF Mono', Menlo, monospace">06-02</text><text x="786.9" y="248" text-anchor="middle" font-size="10" fill="#8c959f" font-family="ui-monospace, SFMono-Regular, 'SF Mono', Menlo, monospace">07-07</text><text x="800.0" y="248" text-anchor="middle" font-size="10" fill="#8c959f" font-family="ui-monospace, SFMono-Regular, 'SF Mono', Menlo, monospace">07-08</text><text x="419.4" y="248" text-anchor="middle" font-size="10" fill="#8c959f" font-family="ui-monospace, SFMono-Regular, 'SF Mono', Menlo, monospace">06-09</text>

  <!-- legend -->
  <rect x="60" y="262" width="16" height="3" fill="#4e79a7" rx="1"/><text x="80" y="268" font-size="11" fill="#57606a" font-family="-apple-system, BlinkMacSystemFont, 'Segoe UI', sans-serif">Total clones (663)</text><line x1="230" y1="264" x2="246" y2="264" stroke="#f28e2b" stroke-width="2" stroke-dasharray="5,3"/><text x="250" y="268" font-size="11" fill="#57606a" font-family="-apple-system, BlinkMacSystemFont, 'Segoe UI', sans-serif">Unique cloners</text>

</svg>