<svg xmlns="http://www.w3.org/2000/svg" viewBox="0 0 820 280" width="820" height="280">

  <!-- title -->
  <text x="52" y="18" font-size="13" font-weight="600"
        fill="#24292f" font-family="-apple-system, BlinkMacSystemFont, 'Segoe UI', sans-serif"
        >Clone traffic — stats</text>
  <text x="800" y="18" font-size="10" fill="#8c959f"
        font-family="ui-monospace, SFMono-Regular, 'SF Mono', Menlo, monospace" text-anchor="end">2026-07-13</text>

  <!-- grid -->
  <line x1="52" y1="232.0" x2="800" y2="232.0" stroke="#e8e8e8" stroke-width="1"/><line x1="52" y1="191.2" x2="800" y2="191.2" stroke="#e8e8e8" stroke-width="1"/><line x1="52" y1="150.4" x2="800" y2="150.4" stroke="#e8e8e8" stroke-width="1"/><line x1="52" y1="109.6" x2="800" y2="109.6" stroke="#e8e8e8" stroke-width="1"/><line x1="52" y1="68.8" x2="800" y2="68.8" stroke="#e8e8e8" stroke-width="1"/><line x1="52" y1="28.0" x2="800" y2="28.0" stroke="#e8e8e8" stroke-width="1"/>

  <!-- area fill -->
  <path d="M52.0,232.0 L52.0,232.0 L64.5,232.0 L76.9,232.0 L89.4,232.0 L101.9,232.0 L114.3,232.0 L126.8,232.0 L139.3,232.0 L151.7,232.0 L164.2,232.0 L176.7,232.0 L189.1,232.0 L201.6,232.0 L214.1,200.3 L226.5,50.7 L239.0,168.5 L251.5,182.1 L263.9,168.5 L276.4,145.9 L288.9,145.9 L301.3,164.0 L313.8,177.6 L326.3,168.5 L338.7,164.0 L351.2,150.4 L363.7,173.1 L376.1,168.5 L388.6,177.6 L401.1,204.8 L413.5,159.5 L426.0,168.5 L438.5,182.1 L450.9,173.1 L463.4,118.7 L475.9,105.1 L488.3,132.3 L500.8,154.9 L513.3,136.8 L525.7,28.0 L538.2,173.1 L550.7,173.1 L563.1,177.6 L575.6,186.7 L588.1,182.1 L600.5,186.7 L613.0,191.2 L625.5,164.0 L637.9,168.5 L650.4,177.6 L662.9,164.0 L675.3,177.6 L687.8,154.9 L700.3,222.9 L712.7,182.1 L725.2,173.1 L737.7,177.6 L750.1,209.3 L762.6,222.9 L775.1,186.7 L787.5,204.8 L800.0,168.5 L800.0,232.0 L52.0,232.0Z" fill="#4e79a7" opacity="0.12"/>

  <!-- lines -->
  <polyline points="52.0,232.0 64.5,232.0 76.9,232.0 89.4,232.0 101.9,232.0 114.3,232.0 126.8,232.0 139.3,232.0 151.7,232.0 164.2,232.0 176.7,232.0 189.1,232.0 201.6,232.0 214.1,200.3 226.5,50.7 239.0,168.5 251.5,182.1 263.9,168.5 276.4,145.9 288.9,145.9 301.3,164.0 313.8,177.6 326.3,168.5 338.7,164.0 351.2,150.4 363.7,173.1 376.1,168.5 388.6,177.6 401.1,204.8 413.5,159.5 426.0,168.5 438.5,182.1 450.9,173.1 463.4,118.7 475.9,105.1 488.3,132.3 500.8,154.9 513.3,136.8 525.7,28.0 538.2,173.1 550.7,173.1 563.1,177.6 575.6,186.7 588.1,182.1 600.5,186.7 613.0,191.2 625.5,164.0 637.9,168.5 650.4,177.6 662.9,164.0 675.3,177.6 687.8,154.9 700.3,222.9 712.7,182.1 725.2,173.1 737.7,177.6 750.1,209.3 762.6,222.9 775.1,186.7 787.5,204.8 800.0,168.5"
            fill="none" stroke="#4e79a7"
            stroke-width="2" stroke-linejoin="round"/>
  <polyline points="52.0,232.0 64.5,232.0 76.9,232.0 89.4,232.0 101.9,232.0 114.3,232.0 126.8,232.0 139.3,232.0 151.7,232.0 164.2,232.0 176.7,232.0 189.1,232.0 201.6,232.0 214.1,200.3 226.5,123.2 239.0,182.1 251.5,195.7 263.9,182.1 276.4,159.5 288.9,168.5 301.3,182.1 313.8,195.7 326.3,182.1 338.7,177.6 351.2,164.0 363.7,186.7 376.1,182.1 388.6,191.2 401.1,204.8 413.5,191.2 426.0,182.1 438.5,195.7 450.9,200.3 463.4,173.1 475.9,159.5 488.3,177.6 500.8,182.1 513.3,177.6 525.7,177.6 538.2,186.7 550.7,186.7 563.1,191.2 575.6,200.3 588.1,195.7 600.5,200.3 613.0,191.2 625.5,177.6 637.9,182.1 650.4,191.2 662.9,177.6 675.3,191.2 687.8,173.1 700.3,222.9 712.7,195.7 725.2,200.3 737.7,191.2 750.1,209.3 762.6,222.9 775.1,200.3 787.5,209.3 800.0,182.1"
            fill="none" stroke="#f28e2b"
            stroke-width="2" stroke-linejoin="round"
            stroke-dasharray="5,3"/>

  <!-- dots -->
  <circle cx="52.0" cy="232.0" r="3" fill="#4e79a7"/><circle cx="64.5" cy="232.0" r="3" fill="#4e79a7"/><circle cx="76.9" cy="232.0" r="3" fill="#4e79a7"/><circle cx="89.4" cy="232.0" r="3" fill="#4e79a7"/><circle cx="101.9" cy="232.0" r="3" fill="#4e79a7"/><circle cx="114.3" cy="232.0" r="3" fill="#4e79a7"/><circle cx="126.8" cy="232.0" r="3" fill="#4e79a7"/><circle cx="139.3" cy="232.0" r="3" fill="#4e79a7"/><circle cx="151.7" cy="232.0" r="3" fill="#4e79a7"/><circle cx="164.2" cy="232.0" r="3" fill="#4e79a7"/><circle cx="176.7" cy="232.0" r="3" fill="#4e79a7"/><circle cx="189.1" cy="232.0" r="3" fill="#4e79a7"/><circle cx="201.6" cy="232.0" r="3" fill="#4e79a7"/><circle cx="214.1" cy="200.3" r="3" fill="#4e79a7"/><circle cx="226.5" cy="50.7" r="3" fill="#4e79a7"/><circle cx="239.0" cy="168.5" r="3" fill="#4e79a7"/><circle cx="251.5" cy="182.1" r="3" fill="#4e79a7"/><circle cx="263.9" cy="168.5" r="3" fill="#4e79a7"/><circle cx="276.4" cy="145.9" r="3" fill="#4e79a7"/><circle cx="288.9" cy="145.9" r="3" fill="#4e79a7"/><circle cx="301.3" cy="164.0" r="3" fill="#4e79a7"/><circle cx="313.8" cy="177.6" r="3" fill="#4e79a7"/><circle cx="326.3" cy="168.5" r="3" fill="#4e79a7"/><circle cx="338.7" cy="164.0" r="3" fill="#4e79a7"/><circle cx="351.2" cy="150.4" r="3" fill="#4e79a7"/><circle cx="363.7" cy="173.1" r="3" fill="#4e79a7"/><circle cx="376.1" cy="168.5" r="3" fill="#4e79a7"/><circle cx="388.6" cy="177.6" r="3" fill="#4e79a7"/><circle cx="401.1" cy="204.8" r="3" fill="#4e79a7"/><circle cx="413.5" cy="159.5" r="3" fill="#4e79a7"/><circle cx="426.0" cy="168.5" r="3" fill="#4e79a7"/><circle cx="438.5" cy="182.1" r="3" fill="#4e79a7"/><circle cx="450.9" cy="173.1" r="3" fill="#4e79a7"/><circle cx="463.4" cy="118.7" r="3" fill="#4e79a7"/><circle cx="475.9" cy="105.1" r="3" fill="#4e79a7"/><circle cx="488.3" cy="132.3" r="3" fill="#4e79a7"/><circle cx="500.8" cy="154.9" r="3" fill="#4e79a7"/><circle cx="513.3" cy="136.8" r="3" fill="#4e79a7"/><circle cx="525.7" cy="28.0" r="3" fill="#4e79a7"/><circle cx="538.2" cy="173.1" r="3" fill="#4e79a7"/><circle cx="550.7" cy="173.1" r="3" fill="#4e79a7"/><circle cx="563.1" cy="177.6" r="3" fill="#4e79a7"/><circle cx="575.6" cy="186.7" r="3" fill="#4e79a7"/><circle cx="588.1" cy="182.1" r="3" fill="#4e79a7"/><circle cx="600.5" cy="186.7" r="3" fill="#4e79a7"/><circle cx="613.0" cy="191.2" r="3" fill="#4e79a7"/><circle cx="625.5" cy="164.0" r="3" fill="#4e79a7"/><circle cx="637.9" cy="168.5" r="3" fill="#4e79a7"/><circle cx="650.4" cy="177.6" r="3" fill="#4e79a7"/><circle cx="662.9" cy="164.0" r="3" fill="#4e79a7"/><circle cx="675.3" cy="177.6" r="3" fill="#4e79a7"/><circle cx="687.8" cy="154.9" r="3" fill="#4e79a7"/><circle cx="700.3" cy="222.9" r="3" fill="#4e79a7"/><circle cx="712.7" cy="182.1" r="3" fill="#4e79a7"/><circle cx="725.2" cy="173.1" r="3" fill="#4e79a7"/><circle cx="737.7" cy="177.6" r="3" fill="#4e79a7"/><circle cx="750.1" cy="209.3" r="3" fill="#4e79a7"/><circle cx="762.6" cy="222.9" r="3" fill="#4e79a7"/><circle cx="775.1" cy="186.7" r="3" fill="#4e79a7"/><circle cx="787.5" cy="204.8" r="3" fill="#4e79a7"/><circle cx="800.0" cy="168.5" r="3" fill="#4e79a7"/>
  <circle cx="52.0" cy="232.0" r="3" fill="#f28e2b"/><circle cx="64.5" cy="232.0" r="3" fill="#f28e2b"/><circle cx="76.9" cy="232.0" r="3" fill="#f28e2b"/><circle cx="89.4" cy="232.0" r="3" fill="#f28e2b"/><circle cx="101.9" cy="232.0" r="3" fill="#f28e2b"/><circle cx="114.3" cy="232.0" r="3" fill="#f28e2b"/><circle cx="126.8" cy="232.0" r="3" fill="#f28e2b"/><circle cx="139.3" cy="232.0" r="3" fill="#f28e2b"/><circle cx="151.7" cy="232.0" r="3" fill="#f28e2b"/><circle cx="164.2" cy="232.0" r="3" fill="#f28e2b"/><circle cx="176.7" cy="232.0" r="3" fill="#f28e2b"/><circle cx="189.1" cy="232.0" r="3" fill="#f28e2b"/><circle cx="201.6" cy="232.0" r="3" fill="#f28e2b"/><circle cx="214.1" cy="200.3" r="3" fill="#f28e2b"/><circle cx="226.5" cy="123.2" r="3" fill="#f28e2b"/><circle cx="239.0" cy="182.1" r="3" fill="#f28e2b"/><circle cx="251.5" cy="195.7" r="3" fill="#f28e2b"/><circle cx="263.9" cy="182.1" r="3" fill="#f28e2b"/><circle cx="276.4" cy="159.5" r="3" fill="#f28e2b"/><circle cx="288.9" cy="168.5" r="3" fill="#f28e2b"/><circle cx="301.3" cy="182.1" r="3" fill="#f28e2b"/><circle cx="313.8" cy="195.7" r="3" fill="#f28e2b"/><circle cx="326.3" cy="182.1" r="3" fill="#f28e2b"/><circle cx="338.7" cy="177.6" r="3" fill="#f28e2b"/><circle cx="351.2" cy="164.0" r="3" fill="#f28e2b"/><circle cx="363.7" cy="186.7" r="3" fill="#f28e2b"/><circle cx="376.1" cy="182.1" r="3" fill="#f28e2b"/><circle cx="388.6" cy="191.2" r="3" fill="#f28e2b"/><circle cx="401.1" cy="204.8" r="3" fill="#f28e2b"/><circle cx="413.5" cy="191.2" r="3" fill="#f28e2b"/><circle cx="426.0" cy="182.1" r="3" fill="#f28e2b"/><circle cx="438.5" cy="195.7" r="3" fill="#f28e2b"/><circle cx="450.9" cy="200.3" r="3" fill="#f28e2b"/><circle cx="463.4" cy="173.1" r="3" fill="#f28e2b"/><circle cx="475.9" cy="159.5" r="3" fill="#f28e2b"/><circle cx="488.3" cy="177.6" r="3" fill="#f28e2b"/><circle cx="500.8" cy="182.1" r="3" fill="#f28e2b"/><circle cx="513.3" cy="177.6" r="3" fill="#f28e2b"/><circle cx="525.7" cy="177.6" r="3" fill="#f28e2b"/><circle cx="538.2" cy="186.7" r="3" fill="#f28e2b"/><circle cx="550.7" cy="186.7" r="3" fill="#f28e2b"/><circle cx="563.1" cy="191.2" r="3" fill="#f28e2b"/><circle cx="575.6" cy="200.3" r="3" fill="#f28e2b"/><circle cx="588.1" cy="195.7" r="3" fill="#f28e2b"/><circle cx="600.5" cy="200.3" r="3" fill="#f28e2b"/><circle cx="613.0" cy="191.2" r="3" fill="#f28e2b"/><circle cx="625.5" cy="177.6" r="3" fill="#f28e2b"/><circle cx="637.9" cy="182.1" r="3" fill="#f28e2b"/><circle cx="650.4" cy="191.2" r="3" fill="#f28e2b"/><circle cx="662.9" cy="177.6" r="3" fill="#f28e2b"/><circle cx="675.3" cy="191.2" r="3" fill="#f28e2b"/><circle cx="687.8" cy="173.1" r="3" fill="#f28e2b"/><circle cx="700.3" cy="222.9" r="3" fill="#f28e2b"/><circle cx="712.7" cy="195.7" r="3" fill="#f28e2b"/><circle cx="725.2" cy="200.3" r="3" fill="#f28e2b"/><circle cx="737.7" cy="191.2" r="3" fill="#f28e2b"/><circle cx="750.1" cy="209.3" r="3" fill="#f28e2b"/><circle cx="762.6" cy="222.9" r="3" fill="#f28e2b"/><circle cx="775.1" cy="200.3" r="3" fill="#f28e2b"/><circle cx="787.5" cy="209.3" r="3" fill="#f28e2b"/><circle cx="800.0" cy="182.1" r="3" fill="#f28e2b"/>

  <!-- axes -->
  <line x1="52" y1="28" x2="52" y2="232"
        stroke="#cccccc" stroke-width="1"/>
  <line x1="52" y1="232" x2="800" y2="232"
        stroke="#cccccc" stroke-width="1"/>

  <!-- y-axis labels -->
  <text x="47" y="236.0" text-anchor="end" font-size="10" fill="#57606a" font-family="ui-monospace, SFMono-Regular, 'SF Mono', Menlo, monospace">0</text><text x="47" y="195.2" text-anchor="end" font-size="10" fill="#57606a" font-family="ui-monospace, SFMono-Regular, 'SF Mono', Menlo, monospace">9</text><text x="47" y="154.4" text-anchor="end" font-size="10" fill="#57606a" font-family="ui-monospace, SFMono-Regular, 'SF Mono', Menlo, monospace">18</text><text x="47" y="113.6" text-anchor="end" font-size="10" fill="#57606a" font-family="ui-monospace, SFMono-Regular, 'SF Mono', Menlo, monospace">27</text><text x="47" y="72.8" text-anchor="end" font-size="10" fill="#57606a" font-family="ui-monospace, SFMono-Regular, 'SF Mono', Menlo, monospace">36</text><text x="47" y="32.0" text-anchor="end" font-size="10" fill="#57606a" font-family="ui-monospace, SFMono-Regular, 'SF Mono', Menlo, monospace">45</text>

  <!-- x-axis labels -->
  <text x="52.0" y="248" text-anchor="middle" font-size="10" fill="#8c959f" font-family="ui-monospace, SFMono-Regular, 'SF Mono', Menlo, monospace">05-12</text><text x="488.3" y="248" text-anchor="middle" font-size="10" fill="#8c959f" font-family="ui-monospace, SFMono-Regular, 'SF Mono', Menlo, monospace">06-16</text><text x="139.3" y="248" text-anchor="middle" font-size="10" fill="#8c959f" font-family="ui-monospace, SFMono-Regular, 'SF Mono', Menlo, monospace">05-19</text><text x="575.6" y="248" text-anchor="middle" font-size="10" fill="#8c959f" font-family="ui-monospace, SFMono-Regular, 'SF Mono', Menlo, monospace">06-23</text><text x="226.5" y="248" text-anchor="middle" font-size="10" fill="#8c959f" font-family="ui-monospace, SFMono-Regular, 'SF Mono', Menlo, monospace">05-26</text><text x="800.0" y="248" text-anchor="middle" font-size="10" fill="#8c959f" font-family="ui-monospace, SFMono-Regular, 'SF Mono', Menlo, monospace">07-11</text><text x="662.9" y="248" text-anchor="middle" font-size="10" fill="#8c959f" font-family="ui-monospace, SFMono-Regular, 'SF Mono', Menlo, monospace">06-30</text><text x="313.8" y="248" text-anchor="middle" font-size="10" fill="#8c959f" font-family="ui-monospace, SFMono-Regular, 'SF Mono', Menlo, monospace">06-02</text><text x="750.1" y="248" text-anchor="middle" font-size="10" fill="#8c959f" font-family="ui-monospace, SFMono-Regular, 'SF Mono', Menlo, monospace">07-07</text><text x="401.1" y="248" text-anchor="middle" font-size="10" fill="#8c959f" font-family="ui-monospace, SFMono-Regular, 'SF Mono', Menlo, monospace">06-09</text>

  <!-- legend -->
  <rect x="60" y="262" width="16" height="3" fill="#4e79a7" rx="1"/><text x="80" y="268" font-size="11" fill="#57606a" font-family="-apple-system, BlinkMacSystemFont, 'Segoe UI', sans-serif">Total clones (693)</text><line x1="230" y1="264" x2="246" y2="264" stroke="#f28e2b" stroke-width="2" stroke-dasharray="5,3"/><text x="250" y="268" font-size="11" fill="#57606a" font-family="-apple-system, BlinkMacSystemFont, 'Segoe UI', sans-serif">Unique cloners</text>

</svg>