<svg xmlns="http://www.w3.org/2000/svg" viewBox="0 0 820 280" width="820" height="280">

  <!-- title -->
  <text x="52" y="18" font-size="13" font-weight="600"
        fill="#24292f" font-family="-apple-system, BlinkMacSystemFont, 'Segoe UI', sans-serif"
        >Clone traffic — stats</text>
  <text x="800" y="18" font-size="10" fill="#8c959f"
        font-family="ui-monospace, SFMono-Regular, 'SF Mono', Menlo, monospace" text-anchor="end">2026-06-06</text>

  <!-- grid -->
  <line x1="52" y1="232.0" x2="800" y2="232.0" stroke="#e8e8e8" stroke-width="1"/><line x1="52" y1="191.2" x2="800" y2="191.2" stroke="#e8e8e8" stroke-width="1"/><line x1="52" y1="150.4" x2="800" y2="150.4" stroke="#e8e8e8" stroke-width="1"/><line x1="52" y1="109.6" x2="800" y2="109.6" stroke="#e8e8e8" stroke-width="1"/><line x1="52" y1="68.8" x2="800" y2="68.8" stroke="#e8e8e8" stroke-width="1"/><line x1="52" y1="28.0" x2="800" y2="28.0" stroke="#e8e8e8" stroke-width="1"/>

  <!-- area fill -->
  <path d="M52.0,232.0 L52.0,232.0 L84.5,232.0 L117.0,232.0 L149.6,232.0 L182.1,232.0 L214.6,232.0 L247.1,232.0 L279.7,232.0 L312.2,232.0 L344.7,232.0 L377.2,232.0 L409.7,232.0 L442.3,232.0 L474.8,196.3 L507.3,28.0 L539.8,160.6 L572.3,175.9 L604.9,160.6 L637.4,135.1 L669.9,135.1 L702.4,155.5 L735.0,170.8 L767.5,160.6 L800.0,155.5 L800.0,232.0 L52.0,232.0Z" fill="#4e79a7" opacity="0.12"/>

  <!-- lines -->
  <polyline points="52.0,232.0 84.5,232.0 117.0,232.0 149.6,232.0 182.1,232.0 214.6,232.0 247.1,232.0 279.7,232.0 312.2,232.0 344.7,232.0 377.2,232.0 409.7,232.0 442.3,232.0 474.8,196.3 507.3,28.0 539.8,160.6 572.3,175.9 604.9,160.6 637.4,135.1 669.9,135.1 702.4,155.5 735.0,170.8 767.5,160.6 800.0,155.5"
            fill="none" stroke="#4e79a7"
            stroke-width="2" stroke-linejoin="round"/>
  <polyline points="52.0,232.0 84.5,232.0 117.0,232.0 149.6,232.0 182.1,232.0 214.6,232.0 247.1,232.0 279.7,232.0 312.2,232.0 344.7,232.0 377.2,232.0 409.7,232.0 442.3,232.0 474.8,196.3 507.3,109.6 539.8,175.9 572.3,191.2 604.9,175.9 637.4,150.4 669.9,160.6 702.4,175.9 735.0,191.2 767.5,175.9 800.0,170.8"
            fill="none" stroke="#f28e2b"
            stroke-width="2" stroke-linejoin="round"
            stroke-dasharray="5,3"/>

  <!-- dots -->
  <circle cx="52.0" cy="232.0" r="3" fill="#4e79a7"/><circle cx="84.5" cy="232.0" r="3" fill="#4e79a7"/><circle cx="117.0" cy="232.0" r="3" fill="#4e79a7"/><circle cx="149.6" cy="232.0" r="3" fill="#4e79a7"/><circle cx="182.1" cy="232.0" r="3" fill="#4e79a7"/><circle cx="214.6" cy="232.0" r="3" fill="#4e79a7"/><circle cx="247.1" cy="232.0" r="3" fill="#4e79a7"/><circle cx="279.7" cy="232.0" r="3" fill="#4e79a7"/><circle cx="312.2" cy="232.0" r="3" fill="#4e79a7"/><circle cx="344.7" cy="232.0" r="3" fill="#4e79a7"/><circle cx="377.2" cy="232.0" r="3" fill="#4e79a7"/><circle cx="409.7" cy="232.0" r="3" fill="#4e79a7"/><circle cx="442.3" cy="232.0" r="3" fill="#4e79a7"/><circle cx="474.8" cy="196.3" r="3" fill="#4e79a7"/><circle cx="507.3" cy="28.0" r="3" fill="#4e79a7"/><circle cx="539.8" cy="160.6" r="3" fill="#4e79a7"/><circle cx="572.3" cy="175.9" r="3" fill="#4e79a7"/><circle cx="604.9" cy="160.6" r="3" fill="#4e79a7"/><circle cx="637.4" cy="135.1" r="3" fill="#4e79a7"/><circle cx="669.9" cy="135.1" r="3" fill="#4e79a7"/><circle cx="702.4" cy="155.5" r="3" fill="#4e79a7"/><circle cx="735.0" cy="170.8" r="3" fill="#4e79a7"/><circle cx="767.5" cy="160.6" r="3" fill="#4e79a7"/><circle cx="800.0" cy="155.5" r="3" fill="#4e79a7"/>
  <circle cx="52.0" cy="232.0" r="3" fill="#f28e2b"/><circle cx="84.5" cy="232.0" r="3" fill="#f28e2b"/><circle cx="117.0" cy="232.0" r="3" fill="#f28e2b"/><circle cx="149.6" cy="232.0" r="3" fill="#f28e2b"/><circle cx="182.1" cy="232.0" r="3" fill="#f28e2b"/><circle cx="214.6" cy="232.0" r="3" fill="#f28e2b"/><circle cx="247.1" cy="232.0" r="3" fill="#f28e2b"/><circle cx="279.7" cy="232.0" r="3" fill="#f28e2b"/><circle cx="312.2" cy="232.0" r="3" fill="#f28e2b"/><circle cx="344.7" cy="232.0" r="3" fill="#f28e2b"/><circle cx="377.2" cy="232.0" r="3" fill="#f28e2b"/><circle cx="409.7" cy="232.0" r="3" fill="#f28e2b"/><circle cx="442.3" cy="232.0" r="3" fill="#f28e2b"/><circle cx="474.8" cy="196.3" r="3" fill="#f28e2b"/><circle cx="507.3" cy="109.6" r="3" fill="#f28e2b"/><circle cx="539.8" cy="175.9" r="3" fill="#f28e2b"/><circle cx="572.3" cy="191.2" r="3" fill="#f28e2b"/><circle cx="604.9" cy="175.9" r="3" fill="#f28e2b"/><circle cx="637.4" cy="150.4" r="3" fill="#f28e2b"/><circle cx="669.9" cy="160.6" r="3" fill="#f28e2b"/><circle cx="702.4" cy="175.9" r="3" fill="#f28e2b"/><circle cx="735.0" cy="191.2" r="3" fill="#f28e2b"/><circle cx="767.5" cy="175.9" r="3" fill="#f28e2b"/><circle cx="800.0" cy="170.8" r="3" fill="#f28e2b"/>

  <!-- axes -->
  <line x1="52" y1="28" x2="52" y2="232"
        stroke="#cccccc" stroke-width="1"/>
  <line x1="52" y1="232" x2="800" y2="232"
        stroke="#cccccc" stroke-width="1"/>

  <!-- y-axis labels -->
  <text x="47" y="236.0" text-anchor="end" font-size="10" fill="#57606a" font-family="ui-monospace, SFMono-Regular, 'SF Mono', Menlo, monospace">0</text><text x="47" y="195.2" text-anchor="end" font-size="10" fill="#57606a" font-family="ui-monospace, SFMono-Regular, 'SF Mono', Menlo, monospace">8</text><text x="47" y="154.4" text-anchor="end" font-size="10" fill="#57606a" font-family="ui-monospace, SFMono-Regular, 'SF Mono', Menlo, monospace">16</text><text x="47" y="113.6" text-anchor="end" font-size="10" fill="#57606a" font-family="ui-monospace, SFMono-Regular, 'SF Mono', Menlo, monospace">24</text><text x="47" y="72.8" text-anchor="end" font-size="10" fill="#57606a" font-family="ui-monospace, SFMono-Regular, 'SF Mono', Menlo, monospace">32</text><text x="47" y="32.0" text-anchor="end" font-size="10" fill="#57606a" font-family="ui-monospace, SFMono-Regular, 'SF Mono', Menlo, monospace">40</text>

  <!-- x-axis labels -->
  <text x="52.0" y="248" text-anchor="middle" font-size="10" fill="#8c959f" font-family="ui-monospace, SFMono-Regular, 'SF Mono', Menlo, monospace">05-12</text><text x="149.6" y="248" text-anchor="middle" font-size="10" fill="#8c959f" font-family="ui-monospace, SFMono-Regular, 'SF Mono', Menlo, monospace">05-15</text><text x="247.1" y="248" text-anchor="middle" font-size="10" fill="#8c959f" font-family="ui-monospace, SFMono-Regular, 'SF Mono', Menlo, monospace">05-18</text><text x="344.7" y="248" text-anchor="middle" font-size="10" fill="#8c959f" font-family="ui-monospace, SFMono-Regular, 'SF Mono', Menlo, monospace">05-21</text><text x="442.3" y="248" text-anchor="middle" font-size="10" fill="#8c959f" font-family="ui-monospace, SFMono-Regular, 'SF Mono', Menlo, monospace">05-24</text><text x="539.8" y="248" text-anchor="middle" font-size="10" fill="#8c959f" font-family="ui-monospace, SFMono-Regular, 'SF Mono', Menlo, monospace">05-27</text><text x="637.4" y="248" text-anchor="middle" font-size="10" fill="#8c959f" font-family="ui-monospace, SFMono-Regular, 'SF Mono', Menlo, monospace">05-30</text><text x="735.0" y="248" text-anchor="middle" font-size="10" fill="#8c959f" font-family="ui-monospace, SFMono-Regular, 'SF Mono', Menlo, monospace">06-02</text><text x="800.0" y="248" text-anchor="middle" font-size="10" fill="#8c959f" font-family="ui-monospace, SFMono-Regular, 'SF Mono', Menlo, monospace">06-04</text>

  <!-- legend -->
  <rect x="60" y="262" width="16" height="3" fill="#4e79a7" rx="1"/><text x="80" y="268" font-size="11" fill="#57606a" font-family="-apple-system, BlinkMacSystemFont, 'Segoe UI', sans-serif">Total clones (180)</text><line x1="230" y1="264" x2="246" y2="264" stroke="#f28e2b" stroke-width="2" stroke-dasharray="5,3"/><text x="250" y="268" font-size="11" fill="#57606a" font-family="-apple-system, BlinkMacSystemFont, 'Segoe UI', sans-serif">Unique cloners</text>

</svg>