<svg xmlns="http://www.w3.org/2000/svg" viewBox="0 0 820 280" width="820" height="280">

  <!-- title -->
  <text x="52" y="18" font-size="13" font-weight="600"
        fill="#24292f" font-family="-apple-system, BlinkMacSystemFont, 'Segoe UI', sans-serif"
        >Clone traffic — stats</text>
  <text x="800" y="18" font-size="10" fill="#8c959f"
        font-family="ui-monospace, SFMono-Regular, 'SF Mono', Menlo, monospace" text-anchor="end">2026-07-21</text>

  <!-- grid -->
  <line x1="52" y1="232.0" x2="800" y2="232.0" stroke="#e8e8e8" stroke-width="1"/><line x1="52" y1="191.2" x2="800" y2="191.2" stroke="#e8e8e8" stroke-width="1"/><line x1="52" y1="150.4" x2="800" y2="150.4" stroke="#e8e8e8" stroke-width="1"/><line x1="52" y1="109.6" x2="800" y2="109.6" stroke="#e8e8e8" stroke-width="1"/><line x1="52" y1="68.8" x2="800" y2="68.8" stroke="#e8e8e8" stroke-width="1"/><line x1="52" y1="28.0" x2="800" y2="28.0" stroke="#e8e8e8" stroke-width="1"/>

  <!-- area fill -->
  <path d="M52.0,232.0 L52.0,232.0 L63.0,232.0 L74.0,232.0 L85.0,232.0 L96.0,232.0 L107.0,232.0 L118.0,232.0 L129.0,232.0 L140.0,232.0 L151.0,232.0 L162.0,232.0 L173.0,232.0 L184.0,232.0 L195.0,200.3 L206.0,50.7 L217.0,168.5 L228.0,182.1 L239.0,168.5 L250.0,145.9 L261.0,145.9 L272.0,164.0 L283.0,177.6 L294.0,168.5 L305.0,164.0 L316.0,150.4 L327.0,173.1 L338.0,168.5 L349.0,177.6 L360.0,204.8 L371.0,159.5 L382.0,168.5 L393.0,182.1 L404.0,173.1 L415.0,118.7 L426.0,105.1 L437.0,132.3 L448.0,154.9 L459.0,136.8 L470.0,28.0 L481.0,173.1 L492.0,173.1 L503.0,177.6 L514.0,186.7 L525.0,182.1 L536.0,186.7 L547.0,191.2 L558.0,164.0 L569.0,168.5 L580.0,177.6 L591.0,164.0 L602.0,177.6 L613.0,154.9 L624.0,222.9 L635.0,182.1 L646.0,173.1 L657.0,177.6 L668.0,209.3 L679.0,222.9 L690.0,186.7 L701.0,204.8 L712.0,168.5 L723.0,168.5 L734.0,209.3 L745.0,177.6 L756.0,191.2 L767.0,209.3 L778.0,191.2 L789.0,209.3 L800.0,222.9 L800.0,232.0 L52.0,232.0Z" fill="#4e79a7" opacity="0.12"/>

  <!-- lines -->
  <polyline points="52.0,232.0 63.0,232.0 74.0,232.0 85.0,232.0 96.0,232.0 107.0,232.0 118.0,232.0 129.0,232.0 140.0,232.0 151.0,232.0 162.0,232.0 173.0,232.0 184.0,232.0 195.0,200.3 206.0,50.7 217.0,168.5 228.0,182.1 239.0,168.5 250.0,145.9 261.0,145.9 272.0,164.0 283.0,177.6 294.0,168.5 305.0,164.0 316.0,150.4 327.0,173.1 338.0,168.5 349.0,177.6 360.0,204.8 371.0,159.5 382.0,168.5 393.0,182.1 404.0,173.1 415.0,118.7 426.0,105.1 437.0,132.3 448.0,154.9 459.0,136.8 470.0,28.0 481.0,173.1 492.0,173.1 503.0,177.6 514.0,186.7 525.0,182.1 536.0,186.7 547.0,191.2 558.0,164.0 569.0,168.5 580.0,177.6 591.0,164.0 602.0,177.6 613.0,154.9 624.0,222.9 635.0,182.1 646.0,173.1 657.0,177.6 668.0,209.3 679.0,222.9 690.0,186.7 701.0,204.8 712.0,168.5 723.0,168.5 734.0,209.3 745.0,177.6 756.0,191.2 767.0,209.3 778.0,191.2 789.0,209.3 800.0,222.9"
            fill="none" stroke="#4e79a7"
            stroke-width="2" stroke-linejoin="round"/>
  <polyline points="52.0,232.0 63.0,232.0 74.0,232.0 85.0,232.0 96.0,232.0 107.0,232.0 118.0,232.0 129.0,232.0 140.0,232.0 151.0,232.0 162.0,232.0 173.0,232.0 184.0,232.0 195.0,200.3 206.0,123.2 217.0,182.1 228.0,195.7 239.0,182.1 250.0,159.5 261.0,168.5 272.0,182.1 283.0,195.7 294.0,182.1 305.0,177.6 316.0,164.0 327.0,186.7 338.0,182.1 349.0,191.2 360.0,204.8 371.0,191.2 382.0,182.1 393.0,195.7 404.0,200.3 415.0,173.1 426.0,159.5 437.0,177.6 448.0,182.1 459.0,177.6 470.0,177.6 481.0,186.7 492.0,186.7 503.0,191.2 514.0,200.3 525.0,195.7 536.0,200.3 547.0,191.2 558.0,177.6 569.0,182.1 580.0,191.2 591.0,177.6 602.0,191.2 613.0,173.1 624.0,222.9 635.0,195.7 646.0,200.3 657.0,191.2 668.0,209.3 679.0,222.9 690.0,200.3 701.0,209.3 712.0,182.1 723.0,186.7 734.0,209.3 745.0,191.2 756.0,209.3 767.0,209.3 778.0,204.8 789.0,209.3 800.0,222.9"
            fill="none" stroke="#f28e2b"
            stroke-width="2" stroke-linejoin="round"
            stroke-dasharray="5,3"/>

  <!-- dots -->
  <circle cx="52.0" cy="232.0" r="3" fill="#4e79a7"/><circle cx="63.0" cy="232.0" r="3" fill="#4e79a7"/><circle cx="74.0" cy="232.0" r="3" fill="#4e79a7"/><circle cx="85.0" cy="232.0" r="3" fill="#4e79a7"/><circle cx="96.0" cy="232.0" r="3" fill="#4e79a7"/><circle cx="107.0" cy="232.0" r="3" fill="#4e79a7"/><circle cx="118.0" cy="232.0" r="3" fill="#4e79a7"/><circle cx="129.0" cy="232.0" r="3" fill="#4e79a7"/><circle cx="140.0" cy="232.0" r="3" fill="#4e79a7"/><circle cx="151.0" cy="232.0" r="3" fill="#4e79a7"/><circle cx="162.0" cy="232.0" r="3" fill="#4e79a7"/><circle cx="173.0" cy="232.0" r="3" fill="#4e79a7"/><circle cx="184.0" cy="232.0" r="3" fill="#4e79a7"/><circle cx="195.0" cy="200.3" r="3" fill="#4e79a7"/><circle cx="206.0" cy="50.7" r="3" fill="#4e79a7"/><circle cx="217.0" cy="168.5" r="3" fill="#4e79a7"/><circle cx="228.0" cy="182.1" r="3" fill="#4e79a7"/><circle cx="239.0" cy="168.5" r="3" fill="#4e79a7"/><circle cx="250.0" cy="145.9" r="3" fill="#4e79a7"/><circle cx="261.0" cy="145.9" r="3" fill="#4e79a7"/><circle cx="272.0" cy="164.0" r="3" fill="#4e79a7"/><circle cx="283.0" cy="177.6" r="3" fill="#4e79a7"/><circle cx="294.0" cy="168.5" r="3" fill="#4e79a7"/><circle cx="305.0" cy="164.0" r="3" fill="#4e79a7"/><circle cx="316.0" cy="150.4" r="3" fill="#4e79a7"/><circle cx="327.0" cy="173.1" r="3" fill="#4e79a7"/><circle cx="338.0" cy="168.5" r="3" fill="#4e79a7"/><circle cx="349.0" cy="177.6" r="3" fill="#4e79a7"/><circle cx="360.0" cy="204.8" r="3" fill="#4e79a7"/><circle cx="371.0" cy="159.5" r="3" fill="#4e79a7"/><circle cx="382.0" cy="168.5" r="3" fill="#4e79a7"/><circle cx="393.0" cy="182.1" r="3" fill="#4e79a7"/><circle cx="404.0" cy="173.1" r="3" fill="#4e79a7"/><circle cx="415.0" cy="118.7" r="3" fill="#4e79a7"/><circle cx="426.0" cy="105.1" r="3" fill="#4e79a7"/><circle cx="437.0" cy="132.3" r="3" fill="#4e79a7"/><circle cx="448.0" cy="154.9" r="3" fill="#4e79a7"/><circle cx="459.0" cy="136.8" r="3" fill="#4e79a7"/><circle cx="470.0" cy="28.0" r="3" fill="#4e79a7"/><circle cx="481.0" cy="173.1" r="3" fill="#4e79a7"/><circle cx="492.0" cy="173.1" r="3" fill="#4e79a7"/><circle cx="503.0" cy="177.6" r="3" fill="#4e79a7"/><circle cx="514.0" cy="186.7" r="3" fill="#4e79a7"/><circle cx="525.0" cy="182.1" r="3" fill="#4e79a7"/><circle cx="536.0" cy="186.7" r="3" fill="#4e79a7"/><circle cx="547.0" cy="191.2" r="3" fill="#4e79a7"/><circle cx="558.0" cy="164.0" r="3" fill="#4e79a7"/><circle cx="569.0" cy="168.5" r="3" fill="#4e79a7"/><circle cx="580.0" cy="177.6" r="3" fill="#4e79a7"/><circle cx="591.0" cy="164.0" r="3" fill="#4e79a7"/><circle cx="602.0" cy="177.6" r="3" fill="#4e79a7"/><circle cx="613.0" cy="154.9" r="3" fill="#4e79a7"/><circle cx="624.0" cy="222.9" r="3" fill="#4e79a7"/><circle cx="635.0" cy="182.1" r="3" fill="#4e79a7"/><circle cx="646.0" cy="173.1" r="3" fill="#4e79a7"/><circle cx="657.0" cy="177.6" r="3" fill="#4e79a7"/><circle cx="668.0" cy="209.3" r="3" fill="#4e79a7"/><circle cx="679.0" cy="222.9" r="3" fill="#4e79a7"/><circle cx="690.0" cy="186.7" r="3" fill="#4e79a7"/><circle cx="701.0" cy="204.8" r="3" fill="#4e79a7"/><circle cx="712.0" cy="168.5" r="3" fill="#4e79a7"/><circle cx="723.0" cy="168.5" r="3" fill="#4e79a7"/><circle cx="734.0" cy="209.3" r="3" fill="#4e79a7"/><circle cx="745.0" cy="177.6" r="3" fill="#4e79a7"/><circle cx="756.0" cy="191.2" r="3" fill="#4e79a7"/><circle cx="767.0" cy="209.3" r="3" fill="#4e79a7"/><circle cx="778.0" cy="191.2" r="3" fill="#4e79a7"/><circle cx="789.0" cy="209.3" r="3" fill="#4e79a7"/><circle cx="800.0" cy="222.9" r="3" fill="#4e79a7"/>
  <circle cx="52.0" cy="232.0" r="3" fill="#f28e2b"/><circle cx="63.0" cy="232.0" r="3" fill="#f28e2b"/><circle cx="74.0" cy="232.0" r="3" fill="#f28e2b"/><circle cx="85.0" cy="232.0" r="3" fill="#f28e2b"/><circle cx="96.0" cy="232.0" r="3" fill="#f28e2b"/><circle cx="107.0" cy="232.0" r="3" fill="#f28e2b"/><circle cx="118.0" cy="232.0" r="3" fill="#f28e2b"/><circle cx="129.0" cy="232.0" r="3" fill="#f28e2b"/><circle cx="140.0" cy="232.0" r="3" fill="#f28e2b"/><circle cx="151.0" cy="232.0" r="3" fill="#f28e2b"/><circle cx="162.0" cy="232.0" r="3" fill="#f28e2b"/><circle cx="173.0" cy="232.0" r="3" fill="#f28e2b"/><circle cx="184.0" cy="232.0" r="3" fill="#f28e2b"/><circle cx="195.0" cy="200.3" r="3" fill="#f28e2b"/><circle cx="206.0" cy="123.2" r="3" fill="#f28e2b"/><circle cx="217.0" cy="182.1" r="3" fill="#f28e2b"/><circle cx="228.0" cy="195.7" r="3" fill="#f28e2b"/><circle cx="239.0" cy="182.1" r="3" fill="#f28e2b"/><circle cx="250.0" cy="159.5" r="3" fill="#f28e2b"/><circle cx="261.0" cy="168.5" r="3" fill="#f28e2b"/><circle cx="272.0" cy="182.1" r="3" fill="#f28e2b"/><circle cx="283.0" cy="195.7" r="3" fill="#f28e2b"/><circle cx="294.0" cy="182.1" r="3" fill="#f28e2b"/><circle cx="305.0" cy="177.6" r="3" fill="#f28e2b"/><circle cx="316.0" cy="164.0" r="3" fill="#f28e2b"/><circle cx="327.0" cy="186.7" r="3" fill="#f28e2b"/><circle cx="338.0" cy="182.1" r="3" fill="#f28e2b"/><circle cx="349.0" cy="191.2" r="3" fill="#f28e2b"/><circle cx="360.0" cy="204.8" r="3" fill="#f28e2b"/><circle cx="371.0" cy="191.2" r="3" fill="#f28e2b"/><circle cx="382.0" cy="182.1" r="3" fill="#f28e2b"/><circle cx="393.0" cy="195.7" r="3" fill="#f28e2b"/><circle cx="404.0" cy="200.3" r="3" fill="#f28e2b"/><circle cx="415.0" cy="173.1" r="3" fill="#f28e2b"/><circle cx="426.0" cy="159.5" r="3" fill="#f28e2b"/><circle cx="437.0" cy="177.6" r="3" fill="#f28e2b"/><circle cx="448.0" cy="182.1" r="3" fill="#f28e2b"/><circle cx="459.0" cy="177.6" r="3" fill="#f28e2b"/><circle cx="470.0" cy="177.6" r="3" fill="#f28e2b"/><circle cx="481.0" cy="186.7" r="3" fill="#f28e2b"/><circle cx="492.0" cy="186.7" r="3" fill="#f28e2b"/><circle cx="503.0" cy="191.2" r="3" fill="#f28e2b"/><circle cx="514.0" cy="200.3" r="3" fill="#f28e2b"/><circle cx="525.0" cy="195.7" r="3" fill="#f28e2b"/><circle cx="536.0" cy="200.3" r="3" fill="#f28e2b"/><circle cx="547.0" cy="191.2" r="3" fill="#f28e2b"/><circle cx="558.0" cy="177.6" r="3" fill="#f28e2b"/><circle cx="569.0" cy="182.1" r="3" fill="#f28e2b"/><circle cx="580.0" cy="191.2" r="3" fill="#f28e2b"/><circle cx="591.0" cy="177.6" r="3" fill="#f28e2b"/><circle cx="602.0" cy="191.2" r="3" fill="#f28e2b"/><circle cx="613.0" cy="173.1" r="3" fill="#f28e2b"/><circle cx="624.0" cy="222.9" r="3" fill="#f28e2b"/><circle cx="635.0" cy="195.7" r="3" fill="#f28e2b"/><circle cx="646.0" cy="200.3" r="3" fill="#f28e2b"/><circle cx="657.0" cy="191.2" r="3" fill="#f28e2b"/><circle cx="668.0" cy="209.3" r="3" fill="#f28e2b"/><circle cx="679.0" cy="222.9" r="3" fill="#f28e2b"/><circle cx="690.0" cy="200.3" r="3" fill="#f28e2b"/><circle cx="701.0" cy="209.3" r="3" fill="#f28e2b"/><circle cx="712.0" cy="182.1" r="3" fill="#f28e2b"/><circle cx="723.0" cy="186.7" r="3" fill="#f28e2b"/><circle cx="734.0" cy="209.3" r="3" fill="#f28e2b"/><circle cx="745.0" cy="191.2" r="3" fill="#f28e2b"/><circle cx="756.0" cy="209.3" r="3" fill="#f28e2b"/><circle cx="767.0" cy="209.3" r="3" fill="#f28e2b"/><circle cx="778.0" cy="204.8" r="3" fill="#f28e2b"/><circle cx="789.0" cy="209.3" r="3" fill="#f28e2b"/><circle cx="800.0" cy="222.9" r="3" fill="#f28e2b"/>

  <!-- axes -->
  <line x1="52" y1="28" x2="52" y2="232"
        stroke="#cccccc" stroke-width="1"/>
  <line x1="52" y1="232" x2="800" y2="232"
        stroke="#cccccc" stroke-width="1"/>

  <!-- y-axis labels -->
  <text x="47" y="236.0" text-anchor="end" font-size="10" fill="#57606a" font-family="ui-monospace, SFMono-Regular, 'SF Mono', Menlo, monospace">0</text><text x="47" y="195.2" text-anchor="end" font-size="10" fill="#57606a" font-family="ui-monospace, SFMono-Regular, 'SF Mono', Menlo, monospace">9</text><text x="47" y="154.4" text-anchor="end" font-size="10" fill="#57606a" font-family="ui-monospace, SFMono-Regular, 'SF Mono', Menlo, monospace">18</text><text x="47" y="113.6" text-anchor="end" font-size="10" fill="#57606a" font-family="ui-monospace, SFMono-Regular, 'SF Mono', Menlo, monospace">27</text><text x="47" y="72.8" text-anchor="end" font-size="10" fill="#57606a" font-family="ui-monospace, SFMono-Regular, 'SF Mono', Menlo, monospace">36</text><text x="47" y="32.0" text-anchor="end" font-size="10" fill="#57606a" font-family="ui-monospace, SFMono-Regular, 'SF Mono', Menlo, monospace">45</text>

  <!-- x-axis labels -->
  <text x="52.0" y="248" text-anchor="middle" font-size="10" fill="#8c959f" font-family="ui-monospace, SFMono-Regular, 'SF Mono', Menlo, monospace">05-12</text><text x="404.0" y="248" text-anchor="middle" font-size="10" fill="#8c959f" font-family="ui-monospace, SFMono-Regular, 'SF Mono', Menlo, monospace">06-13</text><text x="756.0" y="248" text-anchor="middle" font-size="10" fill="#8c959f" font-family="ui-monospace, SFMono-Regular, 'SF Mono', Menlo, monospace">07-15</text><text x="800.0" y="248" text-anchor="middle" font-size="10" fill="#8c959f" font-family="ui-monospace, SFMono-Regular, 'SF Mono', Menlo, monospace">07-19</text><text x="140.0" y="248" text-anchor="middle" font-size="10" fill="#8c959f" font-family="ui-monospace, SFMono-Regular, 'SF Mono', Menlo, monospace">05-20</text><text x="492.0" y="248" text-anchor="middle" font-size="10" fill="#8c959f" font-family="ui-monospace, SFMono-Regular, 'SF Mono', Menlo, monospace">06-21</text><text x="228.0" y="248" text-anchor="middle" font-size="10" fill="#8c959f" font-family="ui-monospace, SFMono-Regular, 'SF Mono', Menlo, monospace">05-28</text><text x="580.0" y="248" text-anchor="middle" font-size="10" fill="#8c959f" font-family="ui-monospace, SFMono-Regular, 'SF Mono', Menlo, monospace">06-29</text><text x="316.0" y="248" text-anchor="middle" font-size="10" fill="#8c959f" font-family="ui-monospace, SFMono-Regular, 'SF Mono', Menlo, monospace">06-05</text><text x="668.0" y="248" text-anchor="middle" font-size="10" fill="#8c959f" font-family="ui-monospace, SFMono-Regular, 'SF Mono', Menlo, monospace">07-07</text>

  <!-- legend -->
  <rect x="60" y="262" width="16" height="3" fill="#4e79a7" rx="1"/><text x="80" y="268" font-size="11" fill="#57606a" font-family="-apple-system, BlinkMacSystemFont, 'Segoe UI', sans-serif">Total clones (754)</text><line x1="230" y1="264" x2="246" y2="264" stroke="#f28e2b" stroke-width="2" stroke-dasharray="5,3"/><text x="250" y="268" font-size="11" fill="#57606a" font-family="-apple-system, BlinkMacSystemFont, 'Segoe UI', sans-serif">Unique cloners</text>

</svg>