<svg xmlns="http://www.w3.org/2000/svg" viewBox="0 0 820 280" width="820" height="280">

  <!-- title -->
  <text x="52" y="18" font-size="13" font-weight="600"
        fill="#24292f" font-family="-apple-system, BlinkMacSystemFont, 'Segoe UI', sans-serif"
        >Clone traffic — stats</text>
  <text x="800" y="18" font-size="10" fill="#8c959f"
        font-family="ui-monospace, SFMono-Regular, 'SF Mono', Menlo, monospace" text-anchor="end">2026-06-19</text>

  <!-- grid -->
  <line x1="52" y1="232.0" x2="800" y2="232.0" stroke="#e8e8e8" stroke-width="1"/><line x1="52" y1="191.2" x2="800" y2="191.2" stroke="#e8e8e8" stroke-width="1"/><line x1="52" y1="150.4" x2="800" y2="150.4" stroke="#e8e8e8" stroke-width="1"/><line x1="52" y1="109.6" x2="800" y2="109.6" stroke="#e8e8e8" stroke-width="1"/><line x1="52" y1="68.8" x2="800" y2="68.8" stroke="#e8e8e8" stroke-width="1"/><line x1="52" y1="28.0" x2="800" y2="28.0" stroke="#e8e8e8" stroke-width="1"/>

  <!-- area fill -->
  <path d="M52.0,232.0 L52.0,232.0 L72.8,232.0 L93.6,232.0 L114.3,232.0 L135.1,232.0 L155.9,232.0 L176.7,232.0 L197.4,232.0 L218.2,232.0 L239.0,232.0 L259.8,232.0 L280.6,232.0 L301.3,232.0 L322.1,196.3 L342.9,28.0 L363.7,160.6 L384.4,175.9 L405.2,160.6 L426.0,135.1 L446.8,135.1 L467.6,155.5 L488.3,170.8 L509.1,160.6 L529.9,155.5 L550.7,140.2 L571.4,165.7 L592.2,160.6 L613.0,170.8 L633.8,201.4 L654.6,150.4 L675.3,160.6 L696.1,175.9 L716.9,165.7 L737.7,104.5 L758.4,89.2 L779.2,119.8 L800.0,145.3 L800.0,232.0 L52.0,232.0Z" fill="#4e79a7" opacity="0.12"/>

  <!-- lines -->
  <polyline points="52.0,232.0 72.8,232.0 93.6,232.0 114.3,232.0 135.1,232.0 155.9,232.0 176.7,232.0 197.4,232.0 218.2,232.0 239.0,232.0 259.8,232.0 280.6,232.0 301.3,232.0 322.1,196.3 342.9,28.0 363.7,160.6 384.4,175.9 405.2,160.6 426.0,135.1 446.8,135.1 467.6,155.5 488.3,170.8 509.1,160.6 529.9,155.5 550.7,140.2 571.4,165.7 592.2,160.6 613.0,170.8 633.8,201.4 654.6,150.4 675.3,160.6 696.1,175.9 716.9,165.7 737.7,104.5 758.4,89.2 779.2,119.8 800.0,145.3"
            fill="none" stroke="#4e79a7"
            stroke-width="2" stroke-linejoin="round"/>
  <polyline points="52.0,232.0 72.8,232.0 93.6,232.0 114.3,232.0 135.1,232.0 155.9,232.0 176.7,232.0 197.4,232.0 218.2,232.0 239.0,232.0 259.8,232.0 280.6,232.0 301.3,232.0 322.1,196.3 342.9,109.6 363.7,175.9 384.4,191.2 405.2,175.9 426.0,150.4 446.8,160.6 467.6,175.9 488.3,191.2 509.1,175.9 529.9,170.8 550.7,155.5 571.4,181.0 592.2,175.9 613.0,186.1 633.8,201.4 654.6,186.1 675.3,175.9 696.1,191.2 716.9,196.3 737.7,165.7 758.4,150.4 779.2,170.8 800.0,175.9"
            fill="none" stroke="#f28e2b"
            stroke-width="2" stroke-linejoin="round"
            stroke-dasharray="5,3"/>

  <!-- dots -->
  <circle cx="52.0" cy="232.0" r="3" fill="#4e79a7"/><circle cx="72.8" cy="232.0" r="3" fill="#4e79a7"/><circle cx="93.6" cy="232.0" r="3" fill="#4e79a7"/><circle cx="114.3" cy="232.0" r="3" fill="#4e79a7"/><circle cx="135.1" cy="232.0" r="3" fill="#4e79a7"/><circle cx="155.9" cy="232.0" r="3" fill="#4e79a7"/><circle cx="176.7" cy="232.0" r="3" fill="#4e79a7"/><circle cx="197.4" cy="232.0" r="3" fill="#4e79a7"/><circle cx="218.2" cy="232.0" r="3" fill="#4e79a7"/><circle cx="239.0" cy="232.0" r="3" fill="#4e79a7"/><circle cx="259.8" cy="232.0" r="3" fill="#4e79a7"/><circle cx="280.6" cy="232.0" r="3" fill="#4e79a7"/><circle cx="301.3" cy="232.0" r="3" fill="#4e79a7"/><circle cx="322.1" cy="196.3" r="3" fill="#4e79a7"/><circle cx="342.9" cy="28.0" r="3" fill="#4e79a7"/><circle cx="363.7" cy="160.6" r="3" fill="#4e79a7"/><circle cx="384.4" cy="175.9" r="3" fill="#4e79a7"/><circle cx="405.2" cy="160.6" r="3" fill="#4e79a7"/><circle cx="426.0" cy="135.1" r="3" fill="#4e79a7"/><circle cx="446.8" cy="135.1" r="3" fill="#4e79a7"/><circle cx="467.6" cy="155.5" r="3" fill="#4e79a7"/><circle cx="488.3" cy="170.8" r="3" fill="#4e79a7"/><circle cx="509.1" cy="160.6" r="3" fill="#4e79a7"/><circle cx="529.9" cy="155.5" r="3" fill="#4e79a7"/><circle cx="550.7" cy="140.2" r="3" fill="#4e79a7"/><circle cx="571.4" cy="165.7" r="3" fill="#4e79a7"/><circle cx="592.2" cy="160.6" r="3" fill="#4e79a7"/><circle cx="613.0" cy="170.8" r="3" fill="#4e79a7"/><circle cx="633.8" cy="201.4" r="3" fill="#4e79a7"/><circle cx="654.6" cy="150.4" r="3" fill="#4e79a7"/><circle cx="675.3" cy="160.6" r="3" fill="#4e79a7"/><circle cx="696.1" cy="175.9" r="3" fill="#4e79a7"/><circle cx="716.9" cy="165.7" r="3" fill="#4e79a7"/><circle cx="737.7" cy="104.5" r="3" fill="#4e79a7"/><circle cx="758.4" cy="89.2" r="3" fill="#4e79a7"/><circle cx="779.2" cy="119.8" r="3" fill="#4e79a7"/><circle cx="800.0" cy="145.3" r="3" fill="#4e79a7"/>
  <circle cx="52.0" cy="232.0" r="3" fill="#f28e2b"/><circle cx="72.8" cy="232.0" r="3" fill="#f28e2b"/><circle cx="93.6" cy="232.0" r="3" fill="#f28e2b"/><circle cx="114.3" cy="232.0" r="3" fill="#f28e2b"/><circle cx="135.1" cy="232.0" r="3" fill="#f28e2b"/><circle cx="155.9" cy="232.0" r="3" fill="#f28e2b"/><circle cx="176.7" cy="232.0" r="3" fill="#f28e2b"/><circle cx="197.4" cy="232.0" r="3" fill="#f28e2b"/><circle cx="218.2" cy="232.0" r="3" fill="#f28e2b"/><circle cx="239.0" cy="232.0" r="3" fill="#f28e2b"/><circle cx="259.8" cy="232.0" r="3" fill="#f28e2b"/><circle cx="280.6" cy="232.0" r="3" fill="#f28e2b"/><circle cx="301.3" cy="232.0" r="3" fill="#f28e2b"/><circle cx="322.1" cy="196.3" r="3" fill="#f28e2b"/><circle cx="342.9" cy="109.6" r="3" fill="#f28e2b"/><circle cx="363.7" cy="175.9" r="3" fill="#f28e2b"/><circle cx="384.4" cy="191.2" r="3" fill="#f28e2b"/><circle cx="405.2" cy="175.9" r="3" fill="#f28e2b"/><circle cx="426.0" cy="150.4" r="3" fill="#f28e2b"/><circle cx="446.8" cy="160.6" r="3" fill="#f28e2b"/><circle cx="467.6" cy="175.9" r="3" fill="#f28e2b"/><circle cx="488.3" cy="191.2" r="3" fill="#f28e2b"/><circle cx="509.1" cy="175.9" r="3" fill="#f28e2b"/><circle cx="529.9" cy="170.8" r="3" fill="#f28e2b"/><circle cx="550.7" cy="155.5" r="3" fill="#f28e2b"/><circle cx="571.4" cy="181.0" r="3" fill="#f28e2b"/><circle cx="592.2" cy="175.9" r="3" fill="#f28e2b"/><circle cx="613.0" cy="186.1" r="3" fill="#f28e2b"/><circle cx="633.8" cy="201.4" r="3" fill="#f28e2b"/><circle cx="654.6" cy="186.1" r="3" fill="#f28e2b"/><circle cx="675.3" cy="175.9" r="3" fill="#f28e2b"/><circle cx="696.1" cy="191.2" r="3" fill="#f28e2b"/><circle cx="716.9" cy="196.3" r="3" fill="#f28e2b"/><circle cx="737.7" cy="165.7" r="3" fill="#f28e2b"/><circle cx="758.4" cy="150.4" r="3" fill="#f28e2b"/><circle cx="779.2" cy="170.8" r="3" fill="#f28e2b"/><circle cx="800.0" cy="175.9" r="3" fill="#f28e2b"/>

  <!-- axes -->
  <line x1="52" y1="28" x2="52" y2="232"
        stroke="#cccccc" stroke-width="1"/>
  <line x1="52" y1="232" x2="800" y2="232"
        stroke="#cccccc" stroke-width="1"/>

  <!-- y-axis labels -->
  <text x="47" y="236.0" text-anchor="end" font-size="10" fill="#57606a" font-family="ui-monospace, SFMono-Regular, 'SF Mono', Menlo, monospace">0</text><text x="47" y="195.2" text-anchor="end" font-size="10" fill="#57606a" font-family="ui-monospace, SFMono-Regular, 'SF Mono', Menlo, monospace">8</text><text x="47" y="154.4" text-anchor="end" font-size="10" fill="#57606a" font-family="ui-monospace, SFMono-Regular, 'SF Mono', Menlo, monospace">16</text><text x="47" y="113.6" text-anchor="end" font-size="10" fill="#57606a" font-family="ui-monospace, SFMono-Regular, 'SF Mono', Menlo, monospace">24</text><text x="47" y="72.8" text-anchor="end" font-size="10" fill="#57606a" font-family="ui-monospace, SFMono-Regular, 'SF Mono', Menlo, monospace">32</text><text x="47" y="32.0" text-anchor="end" font-size="10" fill="#57606a" font-family="ui-monospace, SFMono-Regular, 'SF Mono', Menlo, monospace">40</text>

  <!-- x-axis labels -->
  <text x="52.0" y="248" text-anchor="middle" font-size="10" fill="#8c959f" font-family="ui-monospace, SFMono-Regular, 'SF Mono', Menlo, monospace">05-12</text><text x="716.9" y="248" text-anchor="middle" font-size="10" fill="#8c959f" font-family="ui-monospace, SFMono-Regular, 'SF Mono', Menlo, monospace">06-13</text><text x="135.1" y="248" text-anchor="middle" font-size="10" fill="#8c959f" font-family="ui-monospace, SFMono-Regular, 'SF Mono', Menlo, monospace">05-16</text><text x="800.0" y="248" text-anchor="middle" font-size="10" fill="#8c959f" font-family="ui-monospace, SFMono-Regular, 'SF Mono', Menlo, monospace">06-17</text><text x="218.2" y="248" text-anchor="middle" font-size="10" fill="#8c959f" font-family="ui-monospace, SFMono-Regular, 'SF Mono', Menlo, monospace">05-20</text><text x="301.3" y="248" text-anchor="middle" font-size="10" fill="#8c959f" font-family="ui-monospace, SFMono-Regular, 'SF Mono', Menlo, monospace">05-24</text><text x="384.4" y="248" text-anchor="middle" font-size="10" fill="#8c959f" font-family="ui-monospace, SFMono-Regular, 'SF Mono', Menlo, monospace">05-28</text><text x="467.6" y="248" text-anchor="middle" font-size="10" fill="#8c959f" font-family="ui-monospace, SFMono-Regular, 'SF Mono', Menlo, monospace">06-01</text><text x="550.7" y="248" text-anchor="middle" font-size="10" fill="#8c959f" font-family="ui-monospace, SFMono-Regular, 'SF Mono', Menlo, monospace">06-05</text><text x="633.8" y="248" text-anchor="middle" font-size="10" fill="#8c959f" font-family="ui-monospace, SFMono-Regular, 'SF Mono', Menlo, monospace">06-09</text>

  <!-- legend -->
  <rect x="60" y="262" width="16" height="3" fill="#4e79a7" rx="1"/><text x="80" y="268" font-size="11" fill="#57606a" font-family="-apple-system, BlinkMacSystemFont, 'Segoe UI', sans-serif">Total clones (389)</text><line x1="230" y1="264" x2="246" y2="264" stroke="#f28e2b" stroke-width="2" stroke-dasharray="5,3"/><text x="250" y="268" font-size="11" fill="#57606a" font-family="-apple-system, BlinkMacSystemFont, 'Segoe UI', sans-serif">Unique cloners</text>

</svg>