<svg xmlns="http://www.w3.org/2000/svg" viewBox="0 0 820 280" width="820" height="280">

  <!-- title -->
  <text x="52" y="18" font-size="13" font-weight="600"
        fill="#24292f" font-family="-apple-system, BlinkMacSystemFont, 'Segoe UI', sans-serif"
        >Clone traffic — stats</text>
  <text x="800" y="18" font-size="10" fill="#8c959f"
        font-family="ui-monospace, SFMono-Regular, 'SF Mono', Menlo, monospace" text-anchor="end">2026-07-08</text>

  <!-- grid -->
  <line x1="52" y1="232.0" x2="800" y2="232.0" stroke="#e8e8e8" stroke-width="1"/><line x1="52" y1="191.2" x2="800" y2="191.2" stroke="#e8e8e8" stroke-width="1"/><line x1="52" y1="150.4" x2="800" y2="150.4" stroke="#e8e8e8" stroke-width="1"/><line x1="52" y1="109.6" x2="800" y2="109.6" stroke="#e8e8e8" stroke-width="1"/><line x1="52" y1="68.8" x2="800" y2="68.8" stroke="#e8e8e8" stroke-width="1"/><line x1="52" y1="28.0" x2="800" y2="28.0" stroke="#e8e8e8" stroke-width="1"/>

  <!-- area fill -->
  <path d="M52.0,232.0 L52.0,232.0 L65.6,232.0 L79.2,232.0 L92.8,232.0 L106.4,232.0 L120.0,232.0 L133.6,232.0 L147.2,232.0 L160.8,232.0 L174.4,232.0 L188.0,232.0 L201.6,232.0 L215.2,232.0 L228.8,200.3 L242.4,50.7 L256.0,168.5 L269.6,182.1 L283.2,168.5 L296.8,145.9 L310.4,145.9 L324.0,164.0 L337.6,177.6 L351.2,168.5 L364.8,164.0 L378.4,150.4 L392.0,173.1 L405.6,168.5 L419.2,177.6 L432.8,204.8 L446.4,159.5 L460.0,168.5 L473.6,182.1 L487.2,173.1 L500.8,118.7 L514.4,105.1 L528.0,132.3 L541.6,154.9 L555.2,136.8 L568.8,28.0 L582.4,173.1 L596.0,173.1 L609.6,177.6 L623.2,186.7 L636.8,182.1 L650.4,186.7 L664.0,191.2 L677.6,164.0 L691.2,168.5 L704.8,177.6 L718.4,164.0 L732.0,177.6 L745.6,154.9 L759.2,222.9 L772.8,182.1 L786.4,173.1 L800.0,177.6 L800.0,232.0 L52.0,232.0Z" fill="#4e79a7" opacity="0.12"/>

  <!-- lines -->
  <polyline points="52.0,232.0 65.6,232.0 79.2,232.0 92.8,232.0 106.4,232.0 120.0,232.0 133.6,232.0 147.2,232.0 160.8,232.0 174.4,232.0 188.0,232.0 201.6,232.0 215.2,232.0 228.8,200.3 242.4,50.7 256.0,168.5 269.6,182.1 283.2,168.5 296.8,145.9 310.4,145.9 324.0,164.0 337.6,177.6 351.2,168.5 364.8,164.0 378.4,150.4 392.0,173.1 405.6,168.5 419.2,177.6 432.8,204.8 446.4,159.5 460.0,168.5 473.6,182.1 487.2,173.1 500.8,118.7 514.4,105.1 528.0,132.3 541.6,154.9 555.2,136.8 568.8,28.0 582.4,173.1 596.0,173.1 609.6,177.6 623.2,186.7 636.8,182.1 650.4,186.7 664.0,191.2 677.6,164.0 691.2,168.5 704.8,177.6 718.4,164.0 732.0,177.6 745.6,154.9 759.2,222.9 772.8,182.1 786.4,173.1 800.0,177.6"
            fill="none" stroke="#4e79a7"
            stroke-width="2" stroke-linejoin="round"/>
  <polyline points="52.0,232.0 65.6,232.0 79.2,232.0 92.8,232.0 106.4,232.0 120.0,232.0 133.6,232.0 147.2,232.0 160.8,232.0 174.4,232.0 188.0,232.0 201.6,232.0 215.2,232.0 228.8,200.3 242.4,123.2 256.0,182.1 269.6,195.7 283.2,182.1 296.8,159.5 310.4,168.5 324.0,182.1 337.6,195.7 351.2,182.1 364.8,177.6 378.4,164.0 392.0,186.7 405.6,182.1 419.2,191.2 432.8,204.8 446.4,191.2 460.0,182.1 473.6,195.7 487.2,200.3 500.8,173.1 514.4,159.5 528.0,177.6 541.6,182.1 555.2,177.6 568.8,177.6 582.4,186.7 596.0,186.7 609.6,191.2 623.2,200.3 636.8,195.7 650.4,200.3 664.0,191.2 677.6,177.6 691.2,182.1 704.8,191.2 718.4,177.6 732.0,191.2 745.6,173.1 759.2,222.9 772.8,195.7 786.4,200.3 800.0,191.2"
            fill="none" stroke="#f28e2b"
            stroke-width="2" stroke-linejoin="round"
            stroke-dasharray="5,3"/>

  <!-- dots -->
  <circle cx="52.0" cy="232.0" r="3" fill="#4e79a7"/><circle cx="65.6" cy="232.0" r="3" fill="#4e79a7"/><circle cx="79.2" cy="232.0" r="3" fill="#4e79a7"/><circle cx="92.8" cy="232.0" r="3" fill="#4e79a7"/><circle cx="106.4" cy="232.0" r="3" fill="#4e79a7"/><circle cx="120.0" cy="232.0" r="3" fill="#4e79a7"/><circle cx="133.6" cy="232.0" r="3" fill="#4e79a7"/><circle cx="147.2" cy="232.0" r="3" fill="#4e79a7"/><circle cx="160.8" cy="232.0" r="3" fill="#4e79a7"/><circle cx="174.4" cy="232.0" r="3" fill="#4e79a7"/><circle cx="188.0" cy="232.0" r="3" fill="#4e79a7"/><circle cx="201.6" cy="232.0" r="3" fill="#4e79a7"/><circle cx="215.2" cy="232.0" r="3" fill="#4e79a7"/><circle cx="228.8" cy="200.3" r="3" fill="#4e79a7"/><circle cx="242.4" cy="50.7" r="3" fill="#4e79a7"/><circle cx="256.0" cy="168.5" r="3" fill="#4e79a7"/><circle cx="269.6" cy="182.1" r="3" fill="#4e79a7"/><circle cx="283.2" cy="168.5" r="3" fill="#4e79a7"/><circle cx="296.8" cy="145.9" r="3" fill="#4e79a7"/><circle cx="310.4" cy="145.9" r="3" fill="#4e79a7"/><circle cx="324.0" cy="164.0" r="3" fill="#4e79a7"/><circle cx="337.6" cy="177.6" r="3" fill="#4e79a7"/><circle cx="351.2" cy="168.5" r="3" fill="#4e79a7"/><circle cx="364.8" cy="164.0" r="3" fill="#4e79a7"/><circle cx="378.4" cy="150.4" r="3" fill="#4e79a7"/><circle cx="392.0" cy="173.1" r="3" fill="#4e79a7"/><circle cx="405.6" cy="168.5" r="3" fill="#4e79a7"/><circle cx="419.2" cy="177.6" r="3" fill="#4e79a7"/><circle cx="432.8" cy="204.8" r="3" fill="#4e79a7"/><circle cx="446.4" cy="159.5" r="3" fill="#4e79a7"/><circle cx="460.0" cy="168.5" r="3" fill="#4e79a7"/><circle cx="473.6" cy="182.1" r="3" fill="#4e79a7"/><circle cx="487.2" cy="173.1" r="3" fill="#4e79a7"/><circle cx="500.8" cy="118.7" r="3" fill="#4e79a7"/><circle cx="514.4" cy="105.1" r="3" fill="#4e79a7"/><circle cx="528.0" cy="132.3" r="3" fill="#4e79a7"/><circle cx="541.6" cy="154.9" r="3" fill="#4e79a7"/><circle cx="555.2" cy="136.8" r="3" fill="#4e79a7"/><circle cx="568.8" cy="28.0" r="3" fill="#4e79a7"/><circle cx="582.4" cy="173.1" r="3" fill="#4e79a7"/><circle cx="596.0" cy="173.1" r="3" fill="#4e79a7"/><circle cx="609.6" cy="177.6" r="3" fill="#4e79a7"/><circle cx="623.2" cy="186.7" r="3" fill="#4e79a7"/><circle cx="636.8" cy="182.1" r="3" fill="#4e79a7"/><circle cx="650.4" cy="186.7" r="3" fill="#4e79a7"/><circle cx="664.0" cy="191.2" r="3" fill="#4e79a7"/><circle cx="677.6" cy="164.0" r="3" fill="#4e79a7"/><circle cx="691.2" cy="168.5" r="3" fill="#4e79a7"/><circle cx="704.8" cy="177.6" r="3" fill="#4e79a7"/><circle cx="718.4" cy="164.0" r="3" fill="#4e79a7"/><circle cx="732.0" cy="177.6" r="3" fill="#4e79a7"/><circle cx="745.6" cy="154.9" r="3" fill="#4e79a7"/><circle cx="759.2" cy="222.9" r="3" fill="#4e79a7"/><circle cx="772.8" cy="182.1" r="3" fill="#4e79a7"/><circle cx="786.4" cy="173.1" r="3" fill="#4e79a7"/><circle cx="800.0" cy="177.6" r="3" fill="#4e79a7"/>
  <circle cx="52.0" cy="232.0" r="3" fill="#f28e2b"/><circle cx="65.6" cy="232.0" r="3" fill="#f28e2b"/><circle cx="79.2" cy="232.0" r="3" fill="#f28e2b"/><circle cx="92.8" cy="232.0" r="3" fill="#f28e2b"/><circle cx="106.4" cy="232.0" r="3" fill="#f28e2b"/><circle cx="120.0" cy="232.0" r="3" fill="#f28e2b"/><circle cx="133.6" cy="232.0" r="3" fill="#f28e2b"/><circle cx="147.2" cy="232.0" r="3" fill="#f28e2b"/><circle cx="160.8" cy="232.0" r="3" fill="#f28e2b"/><circle cx="174.4" cy="232.0" r="3" fill="#f28e2b"/><circle cx="188.0" cy="232.0" r="3" fill="#f28e2b"/><circle cx="201.6" cy="232.0" r="3" fill="#f28e2b"/><circle cx="215.2" cy="232.0" r="3" fill="#f28e2b"/><circle cx="228.8" cy="200.3" r="3" fill="#f28e2b"/><circle cx="242.4" cy="123.2" r="3" fill="#f28e2b"/><circle cx="256.0" cy="182.1" r="3" fill="#f28e2b"/><circle cx="269.6" cy="195.7" r="3" fill="#f28e2b"/><circle cx="283.2" cy="182.1" r="3" fill="#f28e2b"/><circle cx="296.8" cy="159.5" r="3" fill="#f28e2b"/><circle cx="310.4" cy="168.5" r="3" fill="#f28e2b"/><circle cx="324.0" cy="182.1" r="3" fill="#f28e2b"/><circle cx="337.6" cy="195.7" r="3" fill="#f28e2b"/><circle cx="351.2" cy="182.1" r="3" fill="#f28e2b"/><circle cx="364.8" cy="177.6" r="3" fill="#f28e2b"/><circle cx="378.4" cy="164.0" r="3" fill="#f28e2b"/><circle cx="392.0" cy="186.7" r="3" fill="#f28e2b"/><circle cx="405.6" cy="182.1" r="3" fill="#f28e2b"/><circle cx="419.2" cy="191.2" r="3" fill="#f28e2b"/><circle cx="432.8" cy="204.8" r="3" fill="#f28e2b"/><circle cx="446.4" cy="191.2" r="3" fill="#f28e2b"/><circle cx="460.0" cy="182.1" r="3" fill="#f28e2b"/><circle cx="473.6" cy="195.7" r="3" fill="#f28e2b"/><circle cx="487.2" cy="200.3" r="3" fill="#f28e2b"/><circle cx="500.8" cy="173.1" r="3" fill="#f28e2b"/><circle cx="514.4" cy="159.5" r="3" fill="#f28e2b"/><circle cx="528.0" cy="177.6" r="3" fill="#f28e2b"/><circle cx="541.6" cy="182.1" r="3" fill="#f28e2b"/><circle cx="555.2" cy="177.6" r="3" fill="#f28e2b"/><circle cx="568.8" cy="177.6" r="3" fill="#f28e2b"/><circle cx="582.4" cy="186.7" r="3" fill="#f28e2b"/><circle cx="596.0" cy="186.7" r="3" fill="#f28e2b"/><circle cx="609.6" cy="191.2" r="3" fill="#f28e2b"/><circle cx="623.2" cy="200.3" r="3" fill="#f28e2b"/><circle cx="636.8" cy="195.7" r="3" fill="#f28e2b"/><circle cx="650.4" cy="200.3" r="3" fill="#f28e2b"/><circle cx="664.0" cy="191.2" r="3" fill="#f28e2b"/><circle cx="677.6" cy="177.6" r="3" fill="#f28e2b"/><circle cx="691.2" cy="182.1" r="3" fill="#f28e2b"/><circle cx="704.8" cy="191.2" r="3" fill="#f28e2b"/><circle cx="718.4" cy="177.6" r="3" fill="#f28e2b"/><circle cx="732.0" cy="191.2" r="3" fill="#f28e2b"/><circle cx="745.6" cy="173.1" r="3" fill="#f28e2b"/><circle cx="759.2" cy="222.9" r="3" fill="#f28e2b"/><circle cx="772.8" cy="195.7" r="3" fill="#f28e2b"/><circle cx="786.4" cy="200.3" r="3" fill="#f28e2b"/><circle cx="800.0" cy="191.2" r="3" fill="#f28e2b"/>

  <!-- axes -->
  <line x1="52" y1="28" x2="52" y2="232"
        stroke="#cccccc" stroke-width="1"/>
  <line x1="52" y1="232" x2="800" y2="232"
        stroke="#cccccc" stroke-width="1"/>

  <!-- y-axis labels -->
  <text x="47" y="236.0" text-anchor="end" font-size="10" fill="#57606a" font-family="ui-monospace, SFMono-Regular, 'SF Mono', Menlo, monospace">0</text><text x="47" y="195.2" text-anchor="end" font-size="10" fill="#57606a" font-family="ui-monospace, SFMono-Regular, 'SF Mono', Menlo, monospace">9</text><text x="47" y="154.4" text-anchor="end" font-size="10" fill="#57606a" font-family="ui-monospace, SFMono-Regular, 'SF Mono', Menlo, monospace">18</text><text x="47" y="113.6" text-anchor="end" font-size="10" fill="#57606a" font-family="ui-monospace, SFMono-Regular, 'SF Mono', Menlo, monospace">27</text><text x="47" y="72.8" text-anchor="end" font-size="10" fill="#57606a" font-family="ui-monospace, SFMono-Regular, 'SF Mono', Menlo, monospace">36</text><text x="47" y="32.0" text-anchor="end" font-size="10" fill="#57606a" font-family="ui-monospace, SFMono-Regular, 'SF Mono', Menlo, monospace">45</text>

  <!-- x-axis labels -->
  <text x="52.0" y="248" text-anchor="middle" font-size="10" fill="#8c959f" font-family="ui-monospace, SFMono-Regular, 'SF Mono', Menlo, monospace">05-12</text><text x="528.0" y="248" text-anchor="middle" font-size="10" fill="#8c959f" font-family="ui-monospace, SFMono-Regular, 'SF Mono', Menlo, monospace">06-16</text><text x="147.2" y="248" text-anchor="middle" font-size="10" fill="#8c959f" font-family="ui-monospace, SFMono-Regular, 'SF Mono', Menlo, monospace">05-19</text><text x="623.2" y="248" text-anchor="middle" font-size="10" fill="#8c959f" font-family="ui-monospace, SFMono-Regular, 'SF Mono', Menlo, monospace">06-23</text><text x="242.4" y="248" text-anchor="middle" font-size="10" fill="#8c959f" font-family="ui-monospace, SFMono-Regular, 'SF Mono', Menlo, monospace">05-26</text><text x="718.4" y="248" text-anchor="middle" font-size="10" fill="#8c959f" font-family="ui-monospace, SFMono-Regular, 'SF Mono', Menlo, monospace">06-30</text><text x="337.6" y="248" text-anchor="middle" font-size="10" fill="#8c959f" font-family="ui-monospace, SFMono-Regular, 'SF Mono', Menlo, monospace">06-02</text><text x="800.0" y="248" text-anchor="middle" font-size="10" fill="#8c959f" font-family="ui-monospace, SFMono-Regular, 'SF Mono', Menlo, monospace">07-06</text><text x="432.8" y="248" text-anchor="middle" font-size="10" fill="#8c959f" font-family="ui-monospace, SFMono-Regular, 'SF Mono', Menlo, monospace">06-09</text>

  <!-- legend -->
  <rect x="60" y="262" width="16" height="3" fill="#4e79a7" rx="1"/><text x="80" y="268" font-size="11" fill="#57606a" font-family="-apple-system, BlinkMacSystemFont, 'Segoe UI', sans-serif">Total clones (656)</text><line x1="230" y1="264" x2="246" y2="264" stroke="#f28e2b" stroke-width="2" stroke-dasharray="5,3"/><text x="250" y="268" font-size="11" fill="#57606a" font-family="-apple-system, BlinkMacSystemFont, 'Segoe UI', sans-serif">Unique cloners</text>

</svg>