<svg xmlns="http://www.w3.org/2000/svg" viewBox="0 0 820 280" width="820" height="280">

  <!-- title -->
  <text x="52" y="18" font-size="13" font-weight="600"
        fill="#24292f" font-family="-apple-system, BlinkMacSystemFont, 'Segoe UI', sans-serif"
        >Clone traffic — stats</text>
  <text x="800" y="18" font-size="10" fill="#8c959f"
        font-family="ui-monospace, SFMono-Regular, 'SF Mono', Menlo, monospace" text-anchor="end">2026-07-12</text>

  <!-- grid -->
  <line x1="52" y1="232.0" x2="800" y2="232.0" stroke="#e8e8e8" stroke-width="1"/><line x1="52" y1="191.2" x2="800" y2="191.2" stroke="#e8e8e8" stroke-width="1"/><line x1="52" y1="150.4" x2="800" y2="150.4" stroke="#e8e8e8" stroke-width="1"/><line x1="52" y1="109.6" x2="800" y2="109.6" stroke="#e8e8e8" stroke-width="1"/><line x1="52" y1="68.8" x2="800" y2="68.8" stroke="#e8e8e8" stroke-width="1"/><line x1="52" y1="28.0" x2="800" y2="28.0" stroke="#e8e8e8" stroke-width="1"/>

  <!-- area fill -->
  <path d="M52.0,232.0 L52.0,232.0 L64.7,232.0 L77.4,232.0 L90.0,232.0 L102.7,232.0 L115.4,232.0 L128.1,232.0 L140.7,232.0 L153.4,232.0 L166.1,232.0 L178.8,232.0 L191.5,232.0 L204.1,232.0 L216.8,200.3 L229.5,50.7 L242.2,168.5 L254.8,182.1 L267.5,168.5 L280.2,145.9 L292.9,145.9 L305.6,164.0 L318.2,177.6 L330.9,168.5 L343.6,164.0 L356.3,150.4 L368.9,173.1 L381.6,168.5 L394.3,177.6 L407.0,204.8 L419.7,159.5 L432.3,168.5 L445.0,182.1 L457.7,173.1 L470.4,118.7 L483.1,105.1 L495.7,132.3 L508.4,154.9 L521.1,136.8 L533.8,28.0 L546.4,173.1 L559.1,173.1 L571.8,177.6 L584.5,186.7 L597.2,182.1 L609.8,186.7 L622.5,191.2 L635.2,164.0 L647.9,168.5 L660.5,177.6 L673.2,164.0 L685.9,177.6 L698.6,154.9 L711.3,222.9 L723.9,182.1 L736.6,173.1 L749.3,177.6 L762.0,209.3 L774.6,222.9 L787.3,186.7 L800.0,204.8 L800.0,232.0 L52.0,232.0Z" fill="#4e79a7" opacity="0.12"/>

  <!-- lines -->
  <polyline points="52.0,232.0 64.7,232.0 77.4,232.0 90.0,232.0 102.7,232.0 115.4,232.0 128.1,232.0 140.7,232.0 153.4,232.0 166.1,232.0 178.8,232.0 191.5,232.0 204.1,232.0 216.8,200.3 229.5,50.7 242.2,168.5 254.8,182.1 267.5,168.5 280.2,145.9 292.9,145.9 305.6,164.0 318.2,177.6 330.9,168.5 343.6,164.0 356.3,150.4 368.9,173.1 381.6,168.5 394.3,177.6 407.0,204.8 419.7,159.5 432.3,168.5 445.0,182.1 457.7,173.1 470.4,118.7 483.1,105.1 495.7,132.3 508.4,154.9 521.1,136.8 533.8,28.0 546.4,173.1 559.1,173.1 571.8,177.6 584.5,186.7 597.2,182.1 609.8,186.7 622.5,191.2 635.2,164.0 647.9,168.5 660.5,177.6 673.2,164.0 685.9,177.6 698.6,154.9 711.3,222.9 723.9,182.1 736.6,173.1 749.3,177.6 762.0,209.3 774.6,222.9 787.3,186.7 800.0,204.8"
            fill="none" stroke="#4e79a7"
            stroke-width="2" stroke-linejoin="round"/>
  <polyline points="52.0,232.0 64.7,232.0 77.4,232.0 90.0,232.0 102.7,232.0 115.4,232.0 128.1,232.0 140.7,232.0 153.4,232.0 166.1,232.0 178.8,232.0 191.5,232.0 204.1,232.0 216.8,200.3 229.5,123.2 242.2,182.1 254.8,195.7 267.5,182.1 280.2,159.5 292.9,168.5 305.6,182.1 318.2,195.7 330.9,182.1 343.6,177.6 356.3,164.0 368.9,186.7 381.6,182.1 394.3,191.2 407.0,204.8 419.7,191.2 432.3,182.1 445.0,195.7 457.7,200.3 470.4,173.1 483.1,159.5 495.7,177.6 508.4,182.1 521.1,177.6 533.8,177.6 546.4,186.7 559.1,186.7 571.8,191.2 584.5,200.3 597.2,195.7 609.8,200.3 622.5,191.2 635.2,177.6 647.9,182.1 660.5,191.2 673.2,177.6 685.9,191.2 698.6,173.1 711.3,222.9 723.9,195.7 736.6,200.3 749.3,191.2 762.0,209.3 774.6,222.9 787.3,200.3 800.0,209.3"
            fill="none" stroke="#f28e2b"
            stroke-width="2" stroke-linejoin="round"
            stroke-dasharray="5,3"/>

  <!-- dots -->
  <circle cx="52.0" cy="232.0" r="3" fill="#4e79a7"/><circle cx="64.7" cy="232.0" r="3" fill="#4e79a7"/><circle cx="77.4" cy="232.0" r="3" fill="#4e79a7"/><circle cx="90.0" cy="232.0" r="3" fill="#4e79a7"/><circle cx="102.7" cy="232.0" r="3" fill="#4e79a7"/><circle cx="115.4" cy="232.0" r="3" fill="#4e79a7"/><circle cx="128.1" cy="232.0" r="3" fill="#4e79a7"/><circle cx="140.7" cy="232.0" r="3" fill="#4e79a7"/><circle cx="153.4" cy="232.0" r="3" fill="#4e79a7"/><circle cx="166.1" cy="232.0" r="3" fill="#4e79a7"/><circle cx="178.8" cy="232.0" r="3" fill="#4e79a7"/><circle cx="191.5" cy="232.0" r="3" fill="#4e79a7"/><circle cx="204.1" cy="232.0" r="3" fill="#4e79a7"/><circle cx="216.8" cy="200.3" r="3" fill="#4e79a7"/><circle cx="229.5" cy="50.7" r="3" fill="#4e79a7"/><circle cx="242.2" cy="168.5" r="3" fill="#4e79a7"/><circle cx="254.8" cy="182.1" r="3" fill="#4e79a7"/><circle cx="267.5" cy="168.5" r="3" fill="#4e79a7"/><circle cx="280.2" cy="145.9" r="3" fill="#4e79a7"/><circle cx="292.9" cy="145.9" r="3" fill="#4e79a7"/><circle cx="305.6" cy="164.0" r="3" fill="#4e79a7"/><circle cx="318.2" cy="177.6" r="3" fill="#4e79a7"/><circle cx="330.9" cy="168.5" r="3" fill="#4e79a7"/><circle cx="343.6" cy="164.0" r="3" fill="#4e79a7"/><circle cx="356.3" cy="150.4" r="3" fill="#4e79a7"/><circle cx="368.9" cy="173.1" r="3" fill="#4e79a7"/><circle cx="381.6" cy="168.5" r="3" fill="#4e79a7"/><circle cx="394.3" cy="177.6" r="3" fill="#4e79a7"/><circle cx="407.0" cy="204.8" r="3" fill="#4e79a7"/><circle cx="419.7" cy="159.5" r="3" fill="#4e79a7"/><circle cx="432.3" cy="168.5" r="3" fill="#4e79a7"/><circle cx="445.0" cy="182.1" r="3" fill="#4e79a7"/><circle cx="457.7" cy="173.1" r="3" fill="#4e79a7"/><circle cx="470.4" cy="118.7" r="3" fill="#4e79a7"/><circle cx="483.1" cy="105.1" r="3" fill="#4e79a7"/><circle cx="495.7" cy="132.3" r="3" fill="#4e79a7"/><circle cx="508.4" cy="154.9" r="3" fill="#4e79a7"/><circle cx="521.1" cy="136.8" r="3" fill="#4e79a7"/><circle cx="533.8" cy="28.0" r="3" fill="#4e79a7"/><circle cx="546.4" cy="173.1" r="3" fill="#4e79a7"/><circle cx="559.1" cy="173.1" r="3" fill="#4e79a7"/><circle cx="571.8" cy="177.6" r="3" fill="#4e79a7"/><circle cx="584.5" cy="186.7" r="3" fill="#4e79a7"/><circle cx="597.2" cy="182.1" r="3" fill="#4e79a7"/><circle cx="609.8" cy="186.7" r="3" fill="#4e79a7"/><circle cx="622.5" cy="191.2" r="3" fill="#4e79a7"/><circle cx="635.2" cy="164.0" r="3" fill="#4e79a7"/><circle cx="647.9" cy="168.5" r="3" fill="#4e79a7"/><circle cx="660.5" cy="177.6" r="3" fill="#4e79a7"/><circle cx="673.2" cy="164.0" r="3" fill="#4e79a7"/><circle cx="685.9" cy="177.6" r="3" fill="#4e79a7"/><circle cx="698.6" cy="154.9" r="3" fill="#4e79a7"/><circle cx="711.3" cy="222.9" r="3" fill="#4e79a7"/><circle cx="723.9" cy="182.1" r="3" fill="#4e79a7"/><circle cx="736.6" cy="173.1" r="3" fill="#4e79a7"/><circle cx="749.3" cy="177.6" r="3" fill="#4e79a7"/><circle cx="762.0" cy="209.3" r="3" fill="#4e79a7"/><circle cx="774.6" cy="222.9" r="3" fill="#4e79a7"/><circle cx="787.3" cy="186.7" r="3" fill="#4e79a7"/><circle cx="800.0" cy="204.8" r="3" fill="#4e79a7"/>
  <circle cx="52.0" cy="232.0" r="3" fill="#f28e2b"/><circle cx="64.7" cy="232.0" r="3" fill="#f28e2b"/><circle cx="77.4" cy="232.0" r="3" fill="#f28e2b"/><circle cx="90.0" cy="232.0" r="3" fill="#f28e2b"/><circle cx="102.7" cy="232.0" r="3" fill="#f28e2b"/><circle cx="115.4" cy="232.0" r="3" fill="#f28e2b"/><circle cx="128.1" cy="232.0" r="3" fill="#f28e2b"/><circle cx="140.7" cy="232.0" r="3" fill="#f28e2b"/><circle cx="153.4" cy="232.0" r="3" fill="#f28e2b"/><circle cx="166.1" cy="232.0" r="3" fill="#f28e2b"/><circle cx="178.8" cy="232.0" r="3" fill="#f28e2b"/><circle cx="191.5" cy="232.0" r="3" fill="#f28e2b"/><circle cx="204.1" cy="232.0" r="3" fill="#f28e2b"/><circle cx="216.8" cy="200.3" r="3" fill="#f28e2b"/><circle cx="229.5" cy="123.2" r="3" fill="#f28e2b"/><circle cx="242.2" cy="182.1" r="3" fill="#f28e2b"/><circle cx="254.8" cy="195.7" r="3" fill="#f28e2b"/><circle cx="267.5" cy="182.1" r="3" fill="#f28e2b"/><circle cx="280.2" cy="159.5" r="3" fill="#f28e2b"/><circle cx="292.9" cy="168.5" r="3" fill="#f28e2b"/><circle cx="305.6" cy="182.1" r="3" fill="#f28e2b"/><circle cx="318.2" cy="195.7" r="3" fill="#f28e2b"/><circle cx="330.9" cy="182.1" r="3" fill="#f28e2b"/><circle cx="343.6" cy="177.6" r="3" fill="#f28e2b"/><circle cx="356.3" cy="164.0" r="3" fill="#f28e2b"/><circle cx="368.9" cy="186.7" r="3" fill="#f28e2b"/><circle cx="381.6" cy="182.1" r="3" fill="#f28e2b"/><circle cx="394.3" cy="191.2" r="3" fill="#f28e2b"/><circle cx="407.0" cy="204.8" r="3" fill="#f28e2b"/><circle cx="419.7" cy="191.2" r="3" fill="#f28e2b"/><circle cx="432.3" cy="182.1" r="3" fill="#f28e2b"/><circle cx="445.0" cy="195.7" r="3" fill="#f28e2b"/><circle cx="457.7" cy="200.3" r="3" fill="#f28e2b"/><circle cx="470.4" cy="173.1" r="3" fill="#f28e2b"/><circle cx="483.1" cy="159.5" r="3" fill="#f28e2b"/><circle cx="495.7" cy="177.6" r="3" fill="#f28e2b"/><circle cx="508.4" cy="182.1" r="3" fill="#f28e2b"/><circle cx="521.1" cy="177.6" r="3" fill="#f28e2b"/><circle cx="533.8" cy="177.6" r="3" fill="#f28e2b"/><circle cx="546.4" cy="186.7" r="3" fill="#f28e2b"/><circle cx="559.1" cy="186.7" r="3" fill="#f28e2b"/><circle cx="571.8" cy="191.2" r="3" fill="#f28e2b"/><circle cx="584.5" cy="200.3" r="3" fill="#f28e2b"/><circle cx="597.2" cy="195.7" r="3" fill="#f28e2b"/><circle cx="609.8" cy="200.3" r="3" fill="#f28e2b"/><circle cx="622.5" cy="191.2" r="3" fill="#f28e2b"/><circle cx="635.2" cy="177.6" r="3" fill="#f28e2b"/><circle cx="647.9" cy="182.1" r="3" fill="#f28e2b"/><circle cx="660.5" cy="191.2" r="3" fill="#f28e2b"/><circle cx="673.2" cy="177.6" r="3" fill="#f28e2b"/><circle cx="685.9" cy="191.2" r="3" fill="#f28e2b"/><circle cx="698.6" cy="173.1" r="3" fill="#f28e2b"/><circle cx="711.3" cy="222.9" r="3" fill="#f28e2b"/><circle cx="723.9" cy="195.7" r="3" fill="#f28e2b"/><circle cx="736.6" cy="200.3" r="3" fill="#f28e2b"/><circle cx="749.3" cy="191.2" r="3" fill="#f28e2b"/><circle cx="762.0" cy="209.3" r="3" fill="#f28e2b"/><circle cx="774.6" cy="222.9" r="3" fill="#f28e2b"/><circle cx="787.3" cy="200.3" r="3" fill="#f28e2b"/><circle cx="800.0" cy="209.3" r="3" fill="#f28e2b"/>

  <!-- axes -->
  <line x1="52" y1="28" x2="52" y2="232"
        stroke="#cccccc" stroke-width="1"/>
  <line x1="52" y1="232" x2="800" y2="232"
        stroke="#cccccc" stroke-width="1"/>

  <!-- y-axis labels -->
  <text x="47" y="236.0" text-anchor="end" font-size="10" fill="#57606a" font-family="ui-monospace, SFMono-Regular, 'SF Mono', Menlo, monospace">0</text><text x="47" y="195.2" text-anchor="end" font-size="10" fill="#57606a" font-family="ui-monospace, SFMono-Regular, 'SF Mono', Menlo, monospace">9</text><text x="47" y="154.4" text-anchor="end" font-size="10" fill="#57606a" font-family="ui-monospace, SFMono-Regular, 'SF Mono', Menlo, monospace">18</text><text x="47" y="113.6" text-anchor="end" font-size="10" fill="#57606a" font-family="ui-monospace, SFMono-Regular, 'SF Mono', Menlo, monospace">27</text><text x="47" y="72.8" text-anchor="end" font-size="10" fill="#57606a" font-family="ui-monospace, SFMono-Regular, 'SF Mono', Menlo, monospace">36</text><text x="47" y="32.0" text-anchor="end" font-size="10" fill="#57606a" font-family="ui-monospace, SFMono-Regular, 'SF Mono', Menlo, monospace">45</text>

  <!-- x-axis labels -->
  <text x="52.0" y="248" text-anchor="middle" font-size="10" fill="#8c959f" font-family="ui-monospace, SFMono-Regular, 'SF Mono', Menlo, monospace">05-12</text><text x="495.7" y="248" text-anchor="middle" font-size="10" fill="#8c959f" font-family="ui-monospace, SFMono-Regular, 'SF Mono', Menlo, monospace">06-16</text><text x="140.7" y="248" text-anchor="middle" font-size="10" fill="#8c959f" font-family="ui-monospace, SFMono-Regular, 'SF Mono', Menlo, monospace">05-19</text><text x="584.5" y="248" text-anchor="middle" font-size="10" fill="#8c959f" font-family="ui-monospace, SFMono-Regular, 'SF Mono', Menlo, monospace">06-23</text><text x="229.5" y="248" text-anchor="middle" font-size="10" fill="#8c959f" font-family="ui-monospace, SFMono-Regular, 'SF Mono', Menlo, monospace">05-26</text><text x="673.2" y="248" text-anchor="middle" font-size="10" fill="#8c959f" font-family="ui-monospace, SFMono-Regular, 'SF Mono', Menlo, monospace">06-30</text><text x="318.2" y="248" text-anchor="middle" font-size="10" fill="#8c959f" font-family="ui-monospace, SFMono-Regular, 'SF Mono', Menlo, monospace">06-02</text><text x="762.0" y="248" text-anchor="middle" font-size="10" fill="#8c959f" font-family="ui-monospace, SFMono-Regular, 'SF Mono', Menlo, monospace">07-07</text><text x="800.0" y="248" text-anchor="middle" font-size="10" fill="#8c959f" font-family="ui-monospace, SFMono-Regular, 'SF Mono', Menlo, monospace">07-10</text><text x="407.0" y="248" text-anchor="middle" font-size="10" fill="#8c959f" font-family="ui-monospace, SFMono-Regular, 'SF Mono', Menlo, monospace">06-09</text>

  <!-- legend -->
  <rect x="60" y="262" width="16" height="3" fill="#4e79a7" rx="1"/><text x="80" y="268" font-size="11" fill="#57606a" font-family="-apple-system, BlinkMacSystemFont, 'Segoe UI', sans-serif">Total clones (679)</text><line x1="230" y1="264" x2="246" y2="264" stroke="#f28e2b" stroke-width="2" stroke-dasharray="5,3"/><text x="250" y="268" font-size="11" fill="#57606a" font-family="-apple-system, BlinkMacSystemFont, 'Segoe UI', sans-serif">Unique cloners</text>

</svg>