<svg xmlns="http://www.w3.org/2000/svg" viewBox="0 0 820 280" width="820" height="280">

  <!-- title -->
  <text x="52" y="18" font-size="13" font-weight="600"
        fill="#24292f" font-family="-apple-system, BlinkMacSystemFont, 'Segoe UI', sans-serif"
        >Clone traffic — stats</text>
  <text x="800" y="18" font-size="10" fill="#8c959f"
        font-family="ui-monospace, SFMono-Regular, 'SF Mono', Menlo, monospace" text-anchor="end">2026-07-16</text>

  <!-- grid -->
  <line x1="52" y1="232.0" x2="800" y2="232.0" stroke="#e8e8e8" stroke-width="1"/><line x1="52" y1="191.2" x2="800" y2="191.2" stroke="#e8e8e8" stroke-width="1"/><line x1="52" y1="150.4" x2="800" y2="150.4" stroke="#e8e8e8" stroke-width="1"/><line x1="52" y1="109.6" x2="800" y2="109.6" stroke="#e8e8e8" stroke-width="1"/><line x1="52" y1="68.8" x2="800" y2="68.8" stroke="#e8e8e8" stroke-width="1"/><line x1="52" y1="28.0" x2="800" y2="28.0" stroke="#e8e8e8" stroke-width="1"/>

  <!-- area fill -->
  <path d="M52.0,232.0 L52.0,232.0 L63.9,232.0 L75.7,232.0 L87.6,232.0 L99.5,232.0 L111.4,232.0 L123.2,232.0 L135.1,232.0 L147.0,232.0 L158.9,232.0 L170.7,232.0 L182.6,232.0 L194.5,232.0 L206.3,200.3 L218.2,50.7 L230.1,168.5 L242.0,182.1 L253.8,168.5 L265.7,145.9 L277.6,145.9 L289.5,164.0 L301.3,177.6 L313.2,168.5 L325.1,164.0 L337.0,150.4 L348.8,173.1 L360.7,168.5 L372.6,177.6 L384.4,204.8 L396.3,159.5 L408.2,168.5 L420.1,182.1 L431.9,173.1 L443.8,118.7 L455.7,105.1 L467.6,132.3 L479.4,154.9 L491.3,136.8 L503.2,28.0 L515.0,173.1 L526.9,173.1 L538.8,177.6 L550.7,186.7 L562.5,182.1 L574.4,186.7 L586.3,191.2 L598.2,164.0 L610.0,168.5 L621.9,177.6 L633.8,164.0 L645.7,177.6 L657.5,154.9 L669.4,222.9 L681.3,182.1 L693.1,173.1 L705.0,177.6 L716.9,209.3 L728.8,222.9 L740.6,186.7 L752.5,204.8 L764.4,168.5 L776.3,168.5 L788.1,209.3 L800.0,177.6 L800.0,232.0 L52.0,232.0Z" fill="#4e79a7" opacity="0.12"/>

  <!-- lines -->
  <polyline points="52.0,232.0 63.9,232.0 75.7,232.0 87.6,232.0 99.5,232.0 111.4,232.0 123.2,232.0 135.1,232.0 147.0,232.0 158.9,232.0 170.7,232.0 182.6,232.0 194.5,232.0 206.3,200.3 218.2,50.7 230.1,168.5 242.0,182.1 253.8,168.5 265.7,145.9 277.6,145.9 289.5,164.0 301.3,177.6 313.2,168.5 325.1,164.0 337.0,150.4 348.8,173.1 360.7,168.5 372.6,177.6 384.4,204.8 396.3,159.5 408.2,168.5 420.1,182.1 431.9,173.1 443.8,118.7 455.7,105.1 467.6,132.3 479.4,154.9 491.3,136.8 503.2,28.0 515.0,173.1 526.9,173.1 538.8,177.6 550.7,186.7 562.5,182.1 574.4,186.7 586.3,191.2 598.2,164.0 610.0,168.5 621.9,177.6 633.8,164.0 645.7,177.6 657.5,154.9 669.4,222.9 681.3,182.1 693.1,173.1 705.0,177.6 716.9,209.3 728.8,222.9 740.6,186.7 752.5,204.8 764.4,168.5 776.3,168.5 788.1,209.3 800.0,177.6"
            fill="none" stroke="#4e79a7"
            stroke-width="2" stroke-linejoin="round"/>
  <polyline points="52.0,232.0 63.9,232.0 75.7,232.0 87.6,232.0 99.5,232.0 111.4,232.0 123.2,232.0 135.1,232.0 147.0,232.0 158.9,232.0 170.7,232.0 182.6,232.0 194.5,232.0 206.3,200.3 218.2,123.2 230.1,182.1 242.0,195.7 253.8,182.1 265.7,159.5 277.6,168.5 289.5,182.1 301.3,195.7 313.2,182.1 325.1,177.6 337.0,164.0 348.8,186.7 360.7,182.1 372.6,191.2 384.4,204.8 396.3,191.2 408.2,182.1 420.1,195.7 431.9,200.3 443.8,173.1 455.7,159.5 467.6,177.6 479.4,182.1 491.3,177.6 503.2,177.6 515.0,186.7 526.9,186.7 538.8,191.2 550.7,200.3 562.5,195.7 574.4,200.3 586.3,191.2 598.2,177.6 610.0,182.1 621.9,191.2 633.8,177.6 645.7,191.2 657.5,173.1 669.4,222.9 681.3,195.7 693.1,200.3 705.0,191.2 716.9,209.3 728.8,222.9 740.6,200.3 752.5,209.3 764.4,182.1 776.3,186.7 788.1,209.3 800.0,191.2"
            fill="none" stroke="#f28e2b"
            stroke-width="2" stroke-linejoin="round"
            stroke-dasharray="5,3"/>

  <!-- dots -->
  <circle cx="52.0" cy="232.0" r="3" fill="#4e79a7"/><circle cx="63.9" cy="232.0" r="3" fill="#4e79a7"/><circle cx="75.7" cy="232.0" r="3" fill="#4e79a7"/><circle cx="87.6" cy="232.0" r="3" fill="#4e79a7"/><circle cx="99.5" cy="232.0" r="3" fill="#4e79a7"/><circle cx="111.4" cy="232.0" r="3" fill="#4e79a7"/><circle cx="123.2" cy="232.0" r="3" fill="#4e79a7"/><circle cx="135.1" cy="232.0" r="3" fill="#4e79a7"/><circle cx="147.0" cy="232.0" r="3" fill="#4e79a7"/><circle cx="158.9" cy="232.0" r="3" fill="#4e79a7"/><circle cx="170.7" cy="232.0" r="3" fill="#4e79a7"/><circle cx="182.6" cy="232.0" r="3" fill="#4e79a7"/><circle cx="194.5" cy="232.0" r="3" fill="#4e79a7"/><circle cx="206.3" cy="200.3" r="3" fill="#4e79a7"/><circle cx="218.2" cy="50.7" r="3" fill="#4e79a7"/><circle cx="230.1" cy="168.5" r="3" fill="#4e79a7"/><circle cx="242.0" cy="182.1" r="3" fill="#4e79a7"/><circle cx="253.8" cy="168.5" r="3" fill="#4e79a7"/><circle cx="265.7" cy="145.9" r="3" fill="#4e79a7"/><circle cx="277.6" cy="145.9" r="3" fill="#4e79a7"/><circle cx="289.5" cy="164.0" r="3" fill="#4e79a7"/><circle cx="301.3" cy="177.6" r="3" fill="#4e79a7"/><circle cx="313.2" cy="168.5" r="3" fill="#4e79a7"/><circle cx="325.1" cy="164.0" r="3" fill="#4e79a7"/><circle cx="337.0" cy="150.4" r="3" fill="#4e79a7"/><circle cx="348.8" cy="173.1" r="3" fill="#4e79a7"/><circle cx="360.7" cy="168.5" r="3" fill="#4e79a7"/><circle cx="372.6" cy="177.6" r="3" fill="#4e79a7"/><circle cx="384.4" cy="204.8" r="3" fill="#4e79a7"/><circle cx="396.3" cy="159.5" r="3" fill="#4e79a7"/><circle cx="408.2" cy="168.5" r="3" fill="#4e79a7"/><circle cx="420.1" cy="182.1" r="3" fill="#4e79a7"/><circle cx="431.9" cy="173.1" r="3" fill="#4e79a7"/><circle cx="443.8" cy="118.7" r="3" fill="#4e79a7"/><circle cx="455.7" cy="105.1" r="3" fill="#4e79a7"/><circle cx="467.6" cy="132.3" r="3" fill="#4e79a7"/><circle cx="479.4" cy="154.9" r="3" fill="#4e79a7"/><circle cx="491.3" cy="136.8" r="3" fill="#4e79a7"/><circle cx="503.2" cy="28.0" r="3" fill="#4e79a7"/><circle cx="515.0" cy="173.1" r="3" fill="#4e79a7"/><circle cx="526.9" cy="173.1" r="3" fill="#4e79a7"/><circle cx="538.8" cy="177.6" r="3" fill="#4e79a7"/><circle cx="550.7" cy="186.7" r="3" fill="#4e79a7"/><circle cx="562.5" cy="182.1" r="3" fill="#4e79a7"/><circle cx="574.4" cy="186.7" r="3" fill="#4e79a7"/><circle cx="586.3" cy="191.2" r="3" fill="#4e79a7"/><circle cx="598.2" cy="164.0" r="3" fill="#4e79a7"/><circle cx="610.0" cy="168.5" r="3" fill="#4e79a7"/><circle cx="621.9" cy="177.6" r="3" fill="#4e79a7"/><circle cx="633.8" cy="164.0" r="3" fill="#4e79a7"/><circle cx="645.7" cy="177.6" r="3" fill="#4e79a7"/><circle cx="657.5" cy="154.9" r="3" fill="#4e79a7"/><circle cx="669.4" cy="222.9" r="3" fill="#4e79a7"/><circle cx="681.3" cy="182.1" r="3" fill="#4e79a7"/><circle cx="693.1" cy="173.1" r="3" fill="#4e79a7"/><circle cx="705.0" cy="177.6" r="3" fill="#4e79a7"/><circle cx="716.9" cy="209.3" r="3" fill="#4e79a7"/><circle cx="728.8" cy="222.9" r="3" fill="#4e79a7"/><circle cx="740.6" cy="186.7" r="3" fill="#4e79a7"/><circle cx="752.5" cy="204.8" r="3" fill="#4e79a7"/><circle cx="764.4" cy="168.5" r="3" fill="#4e79a7"/><circle cx="776.3" cy="168.5" r="3" fill="#4e79a7"/><circle cx="788.1" cy="209.3" r="3" fill="#4e79a7"/><circle cx="800.0" cy="177.6" r="3" fill="#4e79a7"/>
  <circle cx="52.0" cy="232.0" r="3" fill="#f28e2b"/><circle cx="63.9" cy="232.0" r="3" fill="#f28e2b"/><circle cx="75.7" cy="232.0" r="3" fill="#f28e2b"/><circle cx="87.6" cy="232.0" r="3" fill="#f28e2b"/><circle cx="99.5" cy="232.0" r="3" fill="#f28e2b"/><circle cx="111.4" cy="232.0" r="3" fill="#f28e2b"/><circle cx="123.2" cy="232.0" r="3" fill="#f28e2b"/><circle cx="135.1" cy="232.0" r="3" fill="#f28e2b"/><circle cx="147.0" cy="232.0" r="3" fill="#f28e2b"/><circle cx="158.9" cy="232.0" r="3" fill="#f28e2b"/><circle cx="170.7" cy="232.0" r="3" fill="#f28e2b"/><circle cx="182.6" cy="232.0" r="3" fill="#f28e2b"/><circle cx="194.5" cy="232.0" r="3" fill="#f28e2b"/><circle cx="206.3" cy="200.3" r="3" fill="#f28e2b"/><circle cx="218.2" cy="123.2" r="3" fill="#f28e2b"/><circle cx="230.1" cy="182.1" r="3" fill="#f28e2b"/><circle cx="242.0" cy="195.7" r="3" fill="#f28e2b"/><circle cx="253.8" cy="182.1" r="3" fill="#f28e2b"/><circle cx="265.7" cy="159.5" r="3" fill="#f28e2b"/><circle cx="277.6" cy="168.5" r="3" fill="#f28e2b"/><circle cx="289.5" cy="182.1" r="3" fill="#f28e2b"/><circle cx="301.3" cy="195.7" r="3" fill="#f28e2b"/><circle cx="313.2" cy="182.1" r="3" fill="#f28e2b"/><circle cx="325.1" cy="177.6" r="3" fill="#f28e2b"/><circle cx="337.0" cy="164.0" r="3" fill="#f28e2b"/><circle cx="348.8" cy="186.7" r="3" fill="#f28e2b"/><circle cx="360.7" cy="182.1" r="3" fill="#f28e2b"/><circle cx="372.6" cy="191.2" r="3" fill="#f28e2b"/><circle cx="384.4" cy="204.8" r="3" fill="#f28e2b"/><circle cx="396.3" cy="191.2" r="3" fill="#f28e2b"/><circle cx="408.2" cy="182.1" r="3" fill="#f28e2b"/><circle cx="420.1" cy="195.7" r="3" fill="#f28e2b"/><circle cx="431.9" cy="200.3" r="3" fill="#f28e2b"/><circle cx="443.8" cy="173.1" r="3" fill="#f28e2b"/><circle cx="455.7" cy="159.5" r="3" fill="#f28e2b"/><circle cx="467.6" cy="177.6" r="3" fill="#f28e2b"/><circle cx="479.4" cy="182.1" r="3" fill="#f28e2b"/><circle cx="491.3" cy="177.6" r="3" fill="#f28e2b"/><circle cx="503.2" cy="177.6" r="3" fill="#f28e2b"/><circle cx="515.0" cy="186.7" r="3" fill="#f28e2b"/><circle cx="526.9" cy="186.7" r="3" fill="#f28e2b"/><circle cx="538.8" cy="191.2" r="3" fill="#f28e2b"/><circle cx="550.7" cy="200.3" r="3" fill="#f28e2b"/><circle cx="562.5" cy="195.7" r="3" fill="#f28e2b"/><circle cx="574.4" cy="200.3" r="3" fill="#f28e2b"/><circle cx="586.3" cy="191.2" r="3" fill="#f28e2b"/><circle cx="598.2" cy="177.6" r="3" fill="#f28e2b"/><circle cx="610.0" cy="182.1" r="3" fill="#f28e2b"/><circle cx="621.9" cy="191.2" r="3" fill="#f28e2b"/><circle cx="633.8" cy="177.6" r="3" fill="#f28e2b"/><circle cx="645.7" cy="191.2" r="3" fill="#f28e2b"/><circle cx="657.5" cy="173.1" r="3" fill="#f28e2b"/><circle cx="669.4" cy="222.9" r="3" fill="#f28e2b"/><circle cx="681.3" cy="195.7" r="3" fill="#f28e2b"/><circle cx="693.1" cy="200.3" r="3" fill="#f28e2b"/><circle cx="705.0" cy="191.2" r="3" fill="#f28e2b"/><circle cx="716.9" cy="209.3" r="3" fill="#f28e2b"/><circle cx="728.8" cy="222.9" r="3" fill="#f28e2b"/><circle cx="740.6" cy="200.3" r="3" fill="#f28e2b"/><circle cx="752.5" cy="209.3" r="3" fill="#f28e2b"/><circle cx="764.4" cy="182.1" r="3" fill="#f28e2b"/><circle cx="776.3" cy="186.7" r="3" fill="#f28e2b"/><circle cx="788.1" cy="209.3" r="3" fill="#f28e2b"/><circle cx="800.0" cy="191.2" r="3" fill="#f28e2b"/>

  <!-- axes -->
  <line x1="52" y1="28" x2="52" y2="232"
        stroke="#cccccc" stroke-width="1"/>
  <line x1="52" y1="232" x2="800" y2="232"
        stroke="#cccccc" stroke-width="1"/>

  <!-- y-axis labels -->
  <text x="47" y="236.0" text-anchor="end" font-size="10" fill="#57606a" font-family="ui-monospace, SFMono-Regular, 'SF Mono', Menlo, monospace">0</text><text x="47" y="195.2" text-anchor="end" font-size="10" fill="#57606a" font-family="ui-monospace, SFMono-Regular, 'SF Mono', Menlo, monospace">9</text><text x="47" y="154.4" text-anchor="end" font-size="10" fill="#57606a" font-family="ui-monospace, SFMono-Regular, 'SF Mono', Menlo, monospace">18</text><text x="47" y="113.6" text-anchor="end" font-size="10" fill="#57606a" font-family="ui-monospace, SFMono-Regular, 'SF Mono', Menlo, monospace">27</text><text x="47" y="72.8" text-anchor="end" font-size="10" fill="#57606a" font-family="ui-monospace, SFMono-Regular, 'SF Mono', Menlo, monospace">36</text><text x="47" y="32.0" text-anchor="end" font-size="10" fill="#57606a" font-family="ui-monospace, SFMono-Regular, 'SF Mono', Menlo, monospace">45</text>

  <!-- x-axis labels -->
  <text x="52.0" y="248" text-anchor="middle" font-size="10" fill="#8c959f" font-family="ui-monospace, SFMono-Regular, 'SF Mono', Menlo, monospace">05-12</text><text x="431.9" y="248" text-anchor="middle" font-size="10" fill="#8c959f" font-family="ui-monospace, SFMono-Regular, 'SF Mono', Menlo, monospace">06-13</text><text x="147.0" y="248" text-anchor="middle" font-size="10" fill="#8c959f" font-family="ui-monospace, SFMono-Regular, 'SF Mono', Menlo, monospace">05-20</text><text x="526.9" y="248" text-anchor="middle" font-size="10" fill="#8c959f" font-family="ui-monospace, SFMono-Regular, 'SF Mono', Menlo, monospace">06-21</text><text x="242.0" y="248" text-anchor="middle" font-size="10" fill="#8c959f" font-family="ui-monospace, SFMono-Regular, 'SF Mono', Menlo, monospace">05-28</text><text x="621.9" y="248" text-anchor="middle" font-size="10" fill="#8c959f" font-family="ui-monospace, SFMono-Regular, 'SF Mono', Menlo, monospace">06-29</text><text x="337.0" y="248" text-anchor="middle" font-size="10" fill="#8c959f" font-family="ui-monospace, SFMono-Regular, 'SF Mono', Menlo, monospace">06-05</text><text x="716.9" y="248" text-anchor="middle" font-size="10" fill="#8c959f" font-family="ui-monospace, SFMono-Regular, 'SF Mono', Menlo, monospace">07-07</text><text x="800.0" y="248" text-anchor="middle" font-size="10" fill="#8c959f" font-family="ui-monospace, SFMono-Regular, 'SF Mono', Menlo, monospace">07-14</text>

  <!-- legend -->
  <rect x="60" y="262" width="16" height="3" fill="#4e79a7" rx="1"/><text x="80" y="268" font-size="11" fill="#57606a" font-family="-apple-system, BlinkMacSystemFont, 'Segoe UI', sans-serif">Total clones (724)</text><line x1="230" y1="264" x2="246" y2="264" stroke="#f28e2b" stroke-width="2" stroke-dasharray="5,3"/><text x="250" y="268" font-size="11" fill="#57606a" font-family="-apple-system, BlinkMacSystemFont, 'Segoe UI', sans-serif">Unique cloners</text>

</svg>