<svg xmlns="http://www.w3.org/2000/svg" viewBox="0 0 820 280" width="820" height="280">

  <!-- title -->
  <text x="52" y="18" font-size="13" font-weight="600"
        fill="#24292f" font-family="-apple-system, BlinkMacSystemFont, 'Segoe UI', sans-serif"
        >Clone traffic — stats</text>
  <text x="800" y="18" font-size="10" fill="#8c959f"
        font-family="ui-monospace, SFMono-Regular, 'SF Mono', Menlo, monospace" text-anchor="end">2026-06-29</text>

  <!-- grid -->
  <line x1="52" y1="232.0" x2="800" y2="232.0" stroke="#e8e8e8" stroke-width="1"/><line x1="52" y1="191.2" x2="800" y2="191.2" stroke="#e8e8e8" stroke-width="1"/><line x1="52" y1="150.4" x2="800" y2="150.4" stroke="#e8e8e8" stroke-width="1"/><line x1="52" y1="109.6" x2="800" y2="109.6" stroke="#e8e8e8" stroke-width="1"/><line x1="52" y1="68.8" x2="800" y2="68.8" stroke="#e8e8e8" stroke-width="1"/><line x1="52" y1="28.0" x2="800" y2="28.0" stroke="#e8e8e8" stroke-width="1"/>

  <!-- area fill -->
  <path d="M52.0,232.0 L52.0,232.0 L68.3,232.0 L84.5,232.0 L100.8,232.0 L117.0,232.0 L133.3,232.0 L149.6,232.0 L165.8,232.0 L182.1,232.0 L198.3,232.0 L214.6,232.0 L230.9,232.0 L247.1,232.0 L263.4,200.3 L279.7,50.7 L295.9,168.5 L312.2,182.1 L328.4,168.5 L344.7,145.9 L361.0,145.9 L377.2,164.0 L393.5,177.6 L409.7,168.5 L426.0,164.0 L442.3,150.4 L458.5,173.1 L474.8,168.5 L491.0,177.6 L507.3,204.8 L523.6,159.5 L539.8,168.5 L556.1,182.1 L572.3,173.1 L588.6,118.7 L604.9,105.1 L621.1,132.3 L637.4,154.9 L653.7,136.8 L669.9,28.0 L686.2,173.1 L702.4,173.1 L718.7,177.6 L735.0,186.7 L751.2,182.1 L767.5,186.7 L783.7,191.2 L800.0,164.0 L800.0,232.0 L52.0,232.0Z" fill="#4e79a7" opacity="0.12"/>

  <!-- lines -->
  <polyline points="52.0,232.0 68.3,232.0 84.5,232.0 100.8,232.0 117.0,232.0 133.3,232.0 149.6,232.0 165.8,232.0 182.1,232.0 198.3,232.0 214.6,232.0 230.9,232.0 247.1,232.0 263.4,200.3 279.7,50.7 295.9,168.5 312.2,182.1 328.4,168.5 344.7,145.9 361.0,145.9 377.2,164.0 393.5,177.6 409.7,168.5 426.0,164.0 442.3,150.4 458.5,173.1 474.8,168.5 491.0,177.6 507.3,204.8 523.6,159.5 539.8,168.5 556.1,182.1 572.3,173.1 588.6,118.7 604.9,105.1 621.1,132.3 637.4,154.9 653.7,136.8 669.9,28.0 686.2,173.1 702.4,173.1 718.7,177.6 735.0,186.7 751.2,182.1 767.5,186.7 783.7,191.2 800.0,164.0"
            fill="none" stroke="#4e79a7"
            stroke-width="2" stroke-linejoin="round"/>
  <polyline points="52.0,232.0 68.3,232.0 84.5,232.0 100.8,232.0 117.0,232.0 133.3,232.0 149.6,232.0 165.8,232.0 182.1,232.0 198.3,232.0 214.6,232.0 230.9,232.0 247.1,232.0 263.4,200.3 279.7,123.2 295.9,182.1 312.2,195.7 328.4,182.1 344.7,159.5 361.0,168.5 377.2,182.1 393.5,195.7 409.7,182.1 426.0,177.6 442.3,164.0 458.5,186.7 474.8,182.1 491.0,191.2 507.3,204.8 523.6,191.2 539.8,182.1 556.1,195.7 572.3,200.3 588.6,173.1 604.9,159.5 621.1,177.6 637.4,182.1 653.7,177.6 669.9,177.6 686.2,186.7 702.4,186.7 718.7,191.2 735.0,200.3 751.2,195.7 767.5,200.3 783.7,191.2 800.0,177.6"
            fill="none" stroke="#f28e2b"
            stroke-width="2" stroke-linejoin="round"
            stroke-dasharray="5,3"/>

  <!-- dots -->
  <circle cx="52.0" cy="232.0" r="3" fill="#4e79a7"/><circle cx="68.3" cy="232.0" r="3" fill="#4e79a7"/><circle cx="84.5" cy="232.0" r="3" fill="#4e79a7"/><circle cx="100.8" cy="232.0" r="3" fill="#4e79a7"/><circle cx="117.0" cy="232.0" r="3" fill="#4e79a7"/><circle cx="133.3" cy="232.0" r="3" fill="#4e79a7"/><circle cx="149.6" cy="232.0" r="3" fill="#4e79a7"/><circle cx="165.8" cy="232.0" r="3" fill="#4e79a7"/><circle cx="182.1" cy="232.0" r="3" fill="#4e79a7"/><circle cx="198.3" cy="232.0" r="3" fill="#4e79a7"/><circle cx="214.6" cy="232.0" r="3" fill="#4e79a7"/><circle cx="230.9" cy="232.0" r="3" fill="#4e79a7"/><circle cx="247.1" cy="232.0" r="3" fill="#4e79a7"/><circle cx="263.4" cy="200.3" r="3" fill="#4e79a7"/><circle cx="279.7" cy="50.7" r="3" fill="#4e79a7"/><circle cx="295.9" cy="168.5" r="3" fill="#4e79a7"/><circle cx="312.2" cy="182.1" r="3" fill="#4e79a7"/><circle cx="328.4" cy="168.5" r="3" fill="#4e79a7"/><circle cx="344.7" cy="145.9" r="3" fill="#4e79a7"/><circle cx="361.0" cy="145.9" r="3" fill="#4e79a7"/><circle cx="377.2" cy="164.0" r="3" fill="#4e79a7"/><circle cx="393.5" cy="177.6" r="3" fill="#4e79a7"/><circle cx="409.7" cy="168.5" r="3" fill="#4e79a7"/><circle cx="426.0" cy="164.0" r="3" fill="#4e79a7"/><circle cx="442.3" cy="150.4" r="3" fill="#4e79a7"/><circle cx="458.5" cy="173.1" r="3" fill="#4e79a7"/><circle cx="474.8" cy="168.5" r="3" fill="#4e79a7"/><circle cx="491.0" cy="177.6" r="3" fill="#4e79a7"/><circle cx="507.3" cy="204.8" r="3" fill="#4e79a7"/><circle cx="523.6" cy="159.5" r="3" fill="#4e79a7"/><circle cx="539.8" cy="168.5" r="3" fill="#4e79a7"/><circle cx="556.1" cy="182.1" r="3" fill="#4e79a7"/><circle cx="572.3" cy="173.1" r="3" fill="#4e79a7"/><circle cx="588.6" cy="118.7" r="3" fill="#4e79a7"/><circle cx="604.9" cy="105.1" r="3" fill="#4e79a7"/><circle cx="621.1" cy="132.3" r="3" fill="#4e79a7"/><circle cx="637.4" cy="154.9" r="3" fill="#4e79a7"/><circle cx="653.7" cy="136.8" r="3" fill="#4e79a7"/><circle cx="669.9" cy="28.0" r="3" fill="#4e79a7"/><circle cx="686.2" cy="173.1" r="3" fill="#4e79a7"/><circle cx="702.4" cy="173.1" r="3" fill="#4e79a7"/><circle cx="718.7" cy="177.6" r="3" fill="#4e79a7"/><circle cx="735.0" cy="186.7" r="3" fill="#4e79a7"/><circle cx="751.2" cy="182.1" r="3" fill="#4e79a7"/><circle cx="767.5" cy="186.7" r="3" fill="#4e79a7"/><circle cx="783.7" cy="191.2" r="3" fill="#4e79a7"/><circle cx="800.0" cy="164.0" r="3" fill="#4e79a7"/>
  <circle cx="52.0" cy="232.0" r="3" fill="#f28e2b"/><circle cx="68.3" cy="232.0" r="3" fill="#f28e2b"/><circle cx="84.5" cy="232.0" r="3" fill="#f28e2b"/><circle cx="100.8" cy="232.0" r="3" fill="#f28e2b"/><circle cx="117.0" cy="232.0" r="3" fill="#f28e2b"/><circle cx="133.3" cy="232.0" r="3" fill="#f28e2b"/><circle cx="149.6" cy="232.0" r="3" fill="#f28e2b"/><circle cx="165.8" cy="232.0" r="3" fill="#f28e2b"/><circle cx="182.1" cy="232.0" r="3" fill="#f28e2b"/><circle cx="198.3" cy="232.0" r="3" fill="#f28e2b"/><circle cx="214.6" cy="232.0" r="3" fill="#f28e2b"/><circle cx="230.9" cy="232.0" r="3" fill="#f28e2b"/><circle cx="247.1" cy="232.0" r="3" fill="#f28e2b"/><circle cx="263.4" cy="200.3" r="3" fill="#f28e2b"/><circle cx="279.7" cy="123.2" r="3" fill="#f28e2b"/><circle cx="295.9" cy="182.1" r="3" fill="#f28e2b"/><circle cx="312.2" cy="195.7" r="3" fill="#f28e2b"/><circle cx="328.4" cy="182.1" r="3" fill="#f28e2b"/><circle cx="344.7" cy="159.5" r="3" fill="#f28e2b"/><circle cx="361.0" cy="168.5" r="3" fill="#f28e2b"/><circle cx="377.2" cy="182.1" r="3" fill="#f28e2b"/><circle cx="393.5" cy="195.7" r="3" fill="#f28e2b"/><circle cx="409.7" cy="182.1" r="3" fill="#f28e2b"/><circle cx="426.0" cy="177.6" r="3" fill="#f28e2b"/><circle cx="442.3" cy="164.0" r="3" fill="#f28e2b"/><circle cx="458.5" cy="186.7" r="3" fill="#f28e2b"/><circle cx="474.8" cy="182.1" r="3" fill="#f28e2b"/><circle cx="491.0" cy="191.2" r="3" fill="#f28e2b"/><circle cx="507.3" cy="204.8" r="3" fill="#f28e2b"/><circle cx="523.6" cy="191.2" r="3" fill="#f28e2b"/><circle cx="539.8" cy="182.1" r="3" fill="#f28e2b"/><circle cx="556.1" cy="195.7" r="3" fill="#f28e2b"/><circle cx="572.3" cy="200.3" r="3" fill="#f28e2b"/><circle cx="588.6" cy="173.1" r="3" fill="#f28e2b"/><circle cx="604.9" cy="159.5" r="3" fill="#f28e2b"/><circle cx="621.1" cy="177.6" r="3" fill="#f28e2b"/><circle cx="637.4" cy="182.1" r="3" fill="#f28e2b"/><circle cx="653.7" cy="177.6" r="3" fill="#f28e2b"/><circle cx="669.9" cy="177.6" r="3" fill="#f28e2b"/><circle cx="686.2" cy="186.7" r="3" fill="#f28e2b"/><circle cx="702.4" cy="186.7" r="3" fill="#f28e2b"/><circle cx="718.7" cy="191.2" r="3" fill="#f28e2b"/><circle cx="735.0" cy="200.3" r="3" fill="#f28e2b"/><circle cx="751.2" cy="195.7" r="3" fill="#f28e2b"/><circle cx="767.5" cy="200.3" r="3" fill="#f28e2b"/><circle cx="783.7" cy="191.2" r="3" fill="#f28e2b"/><circle cx="800.0" cy="177.6" r="3" fill="#f28e2b"/>

  <!-- axes -->
  <line x1="52" y1="28" x2="52" y2="232"
        stroke="#cccccc" stroke-width="1"/>
  <line x1="52" y1="232" x2="800" y2="232"
        stroke="#cccccc" stroke-width="1"/>

  <!-- y-axis labels -->
  <text x="47" y="236.0" text-anchor="end" font-size="10" fill="#57606a" font-family="ui-monospace, SFMono-Regular, 'SF Mono', Menlo, monospace">0</text><text x="47" y="195.2" text-anchor="end" font-size="10" fill="#57606a" font-family="ui-monospace, SFMono-Regular, 'SF Mono', Menlo, monospace">9</text><text x="47" y="154.4" text-anchor="end" font-size="10" fill="#57606a" font-family="ui-monospace, SFMono-Regular, 'SF Mono', Menlo, monospace">18</text><text x="47" y="113.6" text-anchor="end" font-size="10" fill="#57606a" font-family="ui-monospace, SFMono-Regular, 'SF Mono', Menlo, monospace">27</text><text x="47" y="72.8" text-anchor="end" font-size="10" fill="#57606a" font-family="ui-monospace, SFMono-Regular, 'SF Mono', Menlo, monospace">36</text><text x="47" y="32.0" text-anchor="end" font-size="10" fill="#57606a" font-family="ui-monospace, SFMono-Regular, 'SF Mono', Menlo, monospace">45</text>

  <!-- x-axis labels -->
  <text x="52.0" y="248" text-anchor="middle" font-size="10" fill="#8c959f" font-family="ui-monospace, SFMono-Regular, 'SF Mono', Menlo, monospace">05-12</text><text x="621.1" y="248" text-anchor="middle" font-size="10" fill="#8c959f" font-family="ui-monospace, SFMono-Regular, 'SF Mono', Menlo, monospace">06-16</text><text x="133.3" y="248" text-anchor="middle" font-size="10" fill="#8c959f" font-family="ui-monospace, SFMono-Regular, 'SF Mono', Menlo, monospace">05-17</text><text x="702.4" y="248" text-anchor="middle" font-size="10" fill="#8c959f" font-family="ui-monospace, SFMono-Regular, 'SF Mono', Menlo, monospace">06-21</text><text x="214.6" y="248" text-anchor="middle" font-size="10" fill="#8c959f" font-family="ui-monospace, SFMono-Regular, 'SF Mono', Menlo, monospace">05-22</text><text x="783.7" y="248" text-anchor="middle" font-size="10" fill="#8c959f" font-family="ui-monospace, SFMono-Regular, 'SF Mono', Menlo, monospace">06-26</text><text x="800.0" y="248" text-anchor="middle" font-size="10" fill="#8c959f" font-family="ui-monospace, SFMono-Regular, 'SF Mono', Menlo, monospace">06-27</text><text x="295.9" y="248" text-anchor="middle" font-size="10" fill="#8c959f" font-family="ui-monospace, SFMono-Regular, 'SF Mono', Menlo, monospace">05-27</text><text x="377.2" y="248" text-anchor="middle" font-size="10" fill="#8c959f" font-family="ui-monospace, SFMono-Regular, 'SF Mono', Menlo, monospace">06-01</text><text x="458.5" y="248" text-anchor="middle" font-size="10" fill="#8c959f" font-family="ui-monospace, SFMono-Regular, 'SF Mono', Menlo, monospace">06-06</text><text x="539.8" y="248" text-anchor="middle" font-size="10" fill="#8c959f" font-family="ui-monospace, SFMono-Regular, 'SF Mono', Menlo, monospace">06-11</text>

  <!-- legend -->
  <rect x="60" y="262" width="16" height="3" fill="#4e79a7" rx="1"/><text x="80" y="268" font-size="11" fill="#57606a" font-family="-apple-system, BlinkMacSystemFont, 'Segoe UI', sans-serif">Total clones (548)</text><line x1="230" y1="264" x2="246" y2="264" stroke="#f28e2b" stroke-width="2" stroke-dasharray="5,3"/><text x="250" y="268" font-size="11" fill="#57606a" font-family="-apple-system, BlinkMacSystemFont, 'Segoe UI', sans-serif">Unique cloners</text>

</svg>