<svg xmlns="http://www.w3.org/2000/svg" viewBox="0 0 820 280" width="820" height="280">

  <!-- title -->
  <text x="52" y="18" font-size="13" font-weight="600"
        fill="#24292f" font-family="-apple-system, BlinkMacSystemFont, 'Segoe UI', sans-serif"
        >Clone traffic — stats</text>
  <text x="800" y="18" font-size="10" fill="#8c959f"
        font-family="ui-monospace, SFMono-Regular, 'SF Mono', Menlo, monospace" text-anchor="end">2026-06-16</text>

  <!-- grid -->
  <line x1="52" y1="232.0" x2="800" y2="232.0" stroke="#e8e8e8" stroke-width="1"/><line x1="52" y1="191.2" x2="800" y2="191.2" stroke="#e8e8e8" stroke-width="1"/><line x1="52" y1="150.4" x2="800" y2="150.4" stroke="#e8e8e8" stroke-width="1"/><line x1="52" y1="109.6" x2="800" y2="109.6" stroke="#e8e8e8" stroke-width="1"/><line x1="52" y1="68.8" x2="800" y2="68.8" stroke="#e8e8e8" stroke-width="1"/><line x1="52" y1="28.0" x2="800" y2="28.0" stroke="#e8e8e8" stroke-width="1"/>

  <!-- area fill -->
  <path d="M52.0,232.0 L52.0,232.0 L74.7,232.0 L97.3,232.0 L120.0,232.0 L142.7,232.0 L165.3,232.0 L188.0,232.0 L210.7,232.0 L233.3,232.0 L256.0,232.0 L278.7,232.0 L301.3,232.0 L324.0,232.0 L346.7,196.3 L369.3,28.0 L392.0,160.6 L414.7,175.9 L437.3,160.6 L460.0,135.1 L482.7,135.1 L505.3,155.5 L528.0,170.8 L550.7,160.6 L573.3,155.5 L596.0,140.2 L618.7,165.7 L641.3,160.6 L664.0,170.8 L686.7,201.4 L709.3,150.4 L732.0,160.6 L754.7,175.9 L777.3,165.7 L800.0,104.5 L800.0,232.0 L52.0,232.0Z" fill="#4e79a7" opacity="0.12"/>

  <!-- lines -->
  <polyline points="52.0,232.0 74.7,232.0 97.3,232.0 120.0,232.0 142.7,232.0 165.3,232.0 188.0,232.0 210.7,232.0 233.3,232.0 256.0,232.0 278.7,232.0 301.3,232.0 324.0,232.0 346.7,196.3 369.3,28.0 392.0,160.6 414.7,175.9 437.3,160.6 460.0,135.1 482.7,135.1 505.3,155.5 528.0,170.8 550.7,160.6 573.3,155.5 596.0,140.2 618.7,165.7 641.3,160.6 664.0,170.8 686.7,201.4 709.3,150.4 732.0,160.6 754.7,175.9 777.3,165.7 800.0,104.5"
            fill="none" stroke="#4e79a7"
            stroke-width="2" stroke-linejoin="round"/>
  <polyline points="52.0,232.0 74.7,232.0 97.3,232.0 120.0,232.0 142.7,232.0 165.3,232.0 188.0,232.0 210.7,232.0 233.3,232.0 256.0,232.0 278.7,232.0 301.3,232.0 324.0,232.0 346.7,196.3 369.3,109.6 392.0,175.9 414.7,191.2 437.3,175.9 460.0,150.4 482.7,160.6 505.3,175.9 528.0,191.2 550.7,175.9 573.3,170.8 596.0,155.5 618.7,181.0 641.3,175.9 664.0,186.1 686.7,201.4 709.3,186.1 732.0,175.9 754.7,191.2 777.3,196.3 800.0,165.7"
            fill="none" stroke="#f28e2b"
            stroke-width="2" stroke-linejoin="round"
            stroke-dasharray="5,3"/>

  <!-- dots -->
  <circle cx="52.0" cy="232.0" r="3" fill="#4e79a7"/><circle cx="74.7" cy="232.0" r="3" fill="#4e79a7"/><circle cx="97.3" cy="232.0" r="3" fill="#4e79a7"/><circle cx="120.0" cy="232.0" r="3" fill="#4e79a7"/><circle cx="142.7" cy="232.0" r="3" fill="#4e79a7"/><circle cx="165.3" cy="232.0" r="3" fill="#4e79a7"/><circle cx="188.0" cy="232.0" r="3" fill="#4e79a7"/><circle cx="210.7" cy="232.0" r="3" fill="#4e79a7"/><circle cx="233.3" cy="232.0" r="3" fill="#4e79a7"/><circle cx="256.0" cy="232.0" r="3" fill="#4e79a7"/><circle cx="278.7" cy="232.0" r="3" fill="#4e79a7"/><circle cx="301.3" cy="232.0" r="3" fill="#4e79a7"/><circle cx="324.0" cy="232.0" r="3" fill="#4e79a7"/><circle cx="346.7" cy="196.3" r="3" fill="#4e79a7"/><circle cx="369.3" cy="28.0" r="3" fill="#4e79a7"/><circle cx="392.0" cy="160.6" r="3" fill="#4e79a7"/><circle cx="414.7" cy="175.9" r="3" fill="#4e79a7"/><circle cx="437.3" cy="160.6" r="3" fill="#4e79a7"/><circle cx="460.0" cy="135.1" r="3" fill="#4e79a7"/><circle cx="482.7" cy="135.1" r="3" fill="#4e79a7"/><circle cx="505.3" cy="155.5" r="3" fill="#4e79a7"/><circle cx="528.0" cy="170.8" r="3" fill="#4e79a7"/><circle cx="550.7" cy="160.6" r="3" fill="#4e79a7"/><circle cx="573.3" cy="155.5" r="3" fill="#4e79a7"/><circle cx="596.0" cy="140.2" r="3" fill="#4e79a7"/><circle cx="618.7" cy="165.7" r="3" fill="#4e79a7"/><circle cx="641.3" cy="160.6" r="3" fill="#4e79a7"/><circle cx="664.0" cy="170.8" r="3" fill="#4e79a7"/><circle cx="686.7" cy="201.4" r="3" fill="#4e79a7"/><circle cx="709.3" cy="150.4" r="3" fill="#4e79a7"/><circle cx="732.0" cy="160.6" r="3" fill="#4e79a7"/><circle cx="754.7" cy="175.9" r="3" fill="#4e79a7"/><circle cx="777.3" cy="165.7" r="3" fill="#4e79a7"/><circle cx="800.0" cy="104.5" r="3" fill="#4e79a7"/>
  <circle cx="52.0" cy="232.0" r="3" fill="#f28e2b"/><circle cx="74.7" cy="232.0" r="3" fill="#f28e2b"/><circle cx="97.3" cy="232.0" r="3" fill="#f28e2b"/><circle cx="120.0" cy="232.0" r="3" fill="#f28e2b"/><circle cx="142.7" cy="232.0" r="3" fill="#f28e2b"/><circle cx="165.3" cy="232.0" r="3" fill="#f28e2b"/><circle cx="188.0" cy="232.0" r="3" fill="#f28e2b"/><circle cx="210.7" cy="232.0" r="3" fill="#f28e2b"/><circle cx="233.3" cy="232.0" r="3" fill="#f28e2b"/><circle cx="256.0" cy="232.0" r="3" fill="#f28e2b"/><circle cx="278.7" cy="232.0" r="3" fill="#f28e2b"/><circle cx="301.3" cy="232.0" r="3" fill="#f28e2b"/><circle cx="324.0" cy="232.0" r="3" fill="#f28e2b"/><circle cx="346.7" cy="196.3" r="3" fill="#f28e2b"/><circle cx="369.3" cy="109.6" r="3" fill="#f28e2b"/><circle cx="392.0" cy="175.9" r="3" fill="#f28e2b"/><circle cx="414.7" cy="191.2" r="3" fill="#f28e2b"/><circle cx="437.3" cy="175.9" r="3" fill="#f28e2b"/><circle cx="460.0" cy="150.4" r="3" fill="#f28e2b"/><circle cx="482.7" cy="160.6" r="3" fill="#f28e2b"/><circle cx="505.3" cy="175.9" r="3" fill="#f28e2b"/><circle cx="528.0" cy="191.2" r="3" fill="#f28e2b"/><circle cx="550.7" cy="175.9" r="3" fill="#f28e2b"/><circle cx="573.3" cy="170.8" r="3" fill="#f28e2b"/><circle cx="596.0" cy="155.5" r="3" fill="#f28e2b"/><circle cx="618.7" cy="181.0" r="3" fill="#f28e2b"/><circle cx="641.3" cy="175.9" r="3" fill="#f28e2b"/><circle cx="664.0" cy="186.1" r="3" fill="#f28e2b"/><circle cx="686.7" cy="201.4" r="3" fill="#f28e2b"/><circle cx="709.3" cy="186.1" r="3" fill="#f28e2b"/><circle cx="732.0" cy="175.9" r="3" fill="#f28e2b"/><circle cx="754.7" cy="191.2" r="3" fill="#f28e2b"/><circle cx="777.3" cy="196.3" r="3" fill="#f28e2b"/><circle cx="800.0" cy="165.7" r="3" fill="#f28e2b"/>

  <!-- axes -->
  <line x1="52" y1="28" x2="52" y2="232"
        stroke="#cccccc" stroke-width="1"/>
  <line x1="52" y1="232" x2="800" y2="232"
        stroke="#cccccc" stroke-width="1"/>

  <!-- y-axis labels -->
  <text x="47" y="236.0" text-anchor="end" font-size="10" fill="#57606a" font-family="ui-monospace, SFMono-Regular, 'SF Mono', Menlo, monospace">0</text><text x="47" y="195.2" text-anchor="end" font-size="10" fill="#57606a" font-family="ui-monospace, SFMono-Regular, 'SF Mono', Menlo, monospace">8</text><text x="47" y="154.4" text-anchor="end" font-size="10" fill="#57606a" font-family="ui-monospace, SFMono-Regular, 'SF Mono', Menlo, monospace">16</text><text x="47" y="113.6" text-anchor="end" font-size="10" fill="#57606a" font-family="ui-monospace, SFMono-Regular, 'SF Mono', Menlo, monospace">24</text><text x="47" y="72.8" text-anchor="end" font-size="10" fill="#57606a" font-family="ui-monospace, SFMono-Regular, 'SF Mono', Menlo, monospace">32</text><text x="47" y="32.0" text-anchor="end" font-size="10" fill="#57606a" font-family="ui-monospace, SFMono-Regular, 'SF Mono', Menlo, monospace">40</text>

  <!-- x-axis labels -->
  <text x="52.0" y="248" text-anchor="middle" font-size="10" fill="#8c959f" font-family="ui-monospace, SFMono-Regular, 'SF Mono', Menlo, monospace">05-12</text><text x="777.3" y="248" text-anchor="middle" font-size="10" fill="#8c959f" font-family="ui-monospace, SFMono-Regular, 'SF Mono', Menlo, monospace">06-13</text><text x="800.0" y="248" text-anchor="middle" font-size="10" fill="#8c959f" font-family="ui-monospace, SFMono-Regular, 'SF Mono', Menlo, monospace">06-14</text><text x="142.7" y="248" text-anchor="middle" font-size="10" fill="#8c959f" font-family="ui-monospace, SFMono-Regular, 'SF Mono', Menlo, monospace">05-16</text><text x="233.3" y="248" text-anchor="middle" font-size="10" fill="#8c959f" font-family="ui-monospace, SFMono-Regular, 'SF Mono', Menlo, monospace">05-20</text><text x="324.0" y="248" text-anchor="middle" font-size="10" fill="#8c959f" font-family="ui-monospace, SFMono-Regular, 'SF Mono', Menlo, monospace">05-24</text><text x="414.7" y="248" text-anchor="middle" font-size="10" fill="#8c959f" font-family="ui-monospace, SFMono-Regular, 'SF Mono', Menlo, monospace">05-28</text><text x="505.3" y="248" text-anchor="middle" font-size="10" fill="#8c959f" font-family="ui-monospace, SFMono-Regular, 'SF Mono', Menlo, monospace">06-01</text><text x="596.0" y="248" text-anchor="middle" font-size="10" fill="#8c959f" font-family="ui-monospace, SFMono-Regular, 'SF Mono', Menlo, monospace">06-05</text><text x="686.7" y="248" text-anchor="middle" font-size="10" fill="#8c959f" font-family="ui-monospace, SFMono-Regular, 'SF Mono', Menlo, monospace">06-09</text>

  <!-- legend -->
  <rect x="60" y="262" width="16" height="3" fill="#4e79a7" rx="1"/><text x="80" y="268" font-size="11" fill="#57606a" font-family="-apple-system, BlinkMacSystemFont, 'Segoe UI', sans-serif">Total clones (322)</text><line x1="230" y1="264" x2="246" y2="264" stroke="#f28e2b" stroke-width="2" stroke-dasharray="5,3"/><text x="250" y="268" font-size="11" fill="#57606a" font-family="-apple-system, BlinkMacSystemFont, 'Segoe UI', sans-serif">Unique cloners</text>

</svg>