<svg xmlns="http://www.w3.org/2000/svg" viewBox="0 0 820 280" width="820" height="280">

  <!-- title -->
  <text x="52" y="18" font-size="13" font-weight="600"
        fill="#24292f" font-family="-apple-system, BlinkMacSystemFont, 'Segoe UI', sans-serif"
        >Clone traffic — stats</text>
  <text x="800" y="18" font-size="10" fill="#8c959f"
        font-family="ui-monospace, SFMono-Regular, 'SF Mono', Menlo, monospace" text-anchor="end">2026-07-19</text>

  <!-- grid -->
  <line x1="52" y1="232.0" x2="800" y2="232.0" stroke="#e8e8e8" stroke-width="1"/><line x1="52" y1="191.2" x2="800" y2="191.2" stroke="#e8e8e8" stroke-width="1"/><line x1="52" y1="150.4" x2="800" y2="150.4" stroke="#e8e8e8" stroke-width="1"/><line x1="52" y1="109.6" x2="800" y2="109.6" stroke="#e8e8e8" stroke-width="1"/><line x1="52" y1="68.8" x2="800" y2="68.8" stroke="#e8e8e8" stroke-width="1"/><line x1="52" y1="28.0" x2="800" y2="28.0" stroke="#e8e8e8" stroke-width="1"/>

  <!-- area fill -->
  <path d="M52.0,232.0 L52.0,232.0 L63.3,232.0 L74.7,232.0 L86.0,232.0 L97.3,232.0 L108.7,232.0 L120.0,232.0 L131.3,232.0 L142.7,232.0 L154.0,232.0 L165.3,232.0 L176.7,232.0 L188.0,232.0 L199.3,200.3 L210.7,50.7 L222.0,168.5 L233.3,182.1 L244.7,168.5 L256.0,145.9 L267.3,145.9 L278.7,164.0 L290.0,177.6 L301.3,168.5 L312.7,164.0 L324.0,150.4 L335.3,173.1 L346.7,168.5 L358.0,177.6 L369.3,204.8 L380.7,159.5 L392.0,168.5 L403.3,182.1 L414.7,173.1 L426.0,118.7 L437.3,105.1 L448.7,132.3 L460.0,154.9 L471.3,136.8 L482.7,28.0 L494.0,173.1 L505.3,173.1 L516.7,177.6 L528.0,186.7 L539.3,182.1 L550.7,186.7 L562.0,191.2 L573.3,164.0 L584.7,168.5 L596.0,177.6 L607.3,164.0 L618.7,177.6 L630.0,154.9 L641.3,222.9 L652.7,182.1 L664.0,173.1 L675.3,177.6 L686.7,209.3 L698.0,222.9 L709.3,186.7 L720.7,204.8 L732.0,168.5 L743.3,168.5 L754.7,209.3 L766.0,177.6 L777.3,191.2 L788.7,209.3 L800.0,191.2 L800.0,232.0 L52.0,232.0Z" fill="#4e79a7" opacity="0.12"/>

  <!-- lines -->
  <polyline points="52.0,232.0 63.3,232.0 74.7,232.0 86.0,232.0 97.3,232.0 108.7,232.0 120.0,232.0 131.3,232.0 142.7,232.0 154.0,232.0 165.3,232.0 176.7,232.0 188.0,232.0 199.3,200.3 210.7,50.7 222.0,168.5 233.3,182.1 244.7,168.5 256.0,145.9 267.3,145.9 278.7,164.0 290.0,177.6 301.3,168.5 312.7,164.0 324.0,150.4 335.3,173.1 346.7,168.5 358.0,177.6 369.3,204.8 380.7,159.5 392.0,168.5 403.3,182.1 414.7,173.1 426.0,118.7 437.3,105.1 448.7,132.3 460.0,154.9 471.3,136.8 482.7,28.0 494.0,173.1 505.3,173.1 516.7,177.6 528.0,186.7 539.3,182.1 550.7,186.7 562.0,191.2 573.3,164.0 584.7,168.5 596.0,177.6 607.3,164.0 618.7,177.6 630.0,154.9 641.3,222.9 652.7,182.1 664.0,173.1 675.3,177.6 686.7,209.3 698.0,222.9 709.3,186.7 720.7,204.8 732.0,168.5 743.3,168.5 754.7,209.3 766.0,177.6 777.3,191.2 788.7,209.3 800.0,191.2"
            fill="none" stroke="#4e79a7"
            stroke-width="2" stroke-linejoin="round"/>
  <polyline points="52.0,232.0 63.3,232.0 74.7,232.0 86.0,232.0 97.3,232.0 108.7,232.0 120.0,232.0 131.3,232.0 142.7,232.0 154.0,232.0 165.3,232.0 176.7,232.0 188.0,232.0 199.3,200.3 210.7,123.2 222.0,182.1 233.3,195.7 244.7,182.1 256.0,159.5 267.3,168.5 278.7,182.1 290.0,195.7 301.3,182.1 312.7,177.6 324.0,164.0 335.3,186.7 346.7,182.1 358.0,191.2 369.3,204.8 380.7,191.2 392.0,182.1 403.3,195.7 414.7,200.3 426.0,173.1 437.3,159.5 448.7,177.6 460.0,182.1 471.3,177.6 482.7,177.6 494.0,186.7 505.3,186.7 516.7,191.2 528.0,200.3 539.3,195.7 550.7,200.3 562.0,191.2 573.3,177.6 584.7,182.1 596.0,191.2 607.3,177.6 618.7,191.2 630.0,173.1 641.3,222.9 652.7,195.7 664.0,200.3 675.3,191.2 686.7,209.3 698.0,222.9 709.3,200.3 720.7,209.3 732.0,182.1 743.3,186.7 754.7,209.3 766.0,191.2 777.3,209.3 788.7,209.3 800.0,204.8"
            fill="none" stroke="#f28e2b"
            stroke-width="2" stroke-linejoin="round"
            stroke-dasharray="5,3"/>

  <!-- dots -->
  <circle cx="52.0" cy="232.0" r="3" fill="#4e79a7"/><circle cx="63.3" cy="232.0" r="3" fill="#4e79a7"/><circle cx="74.7" cy="232.0" r="3" fill="#4e79a7"/><circle cx="86.0" cy="232.0" r="3" fill="#4e79a7"/><circle cx="97.3" cy="232.0" r="3" fill="#4e79a7"/><circle cx="108.7" cy="232.0" r="3" fill="#4e79a7"/><circle cx="120.0" cy="232.0" r="3" fill="#4e79a7"/><circle cx="131.3" cy="232.0" r="3" fill="#4e79a7"/><circle cx="142.7" cy="232.0" r="3" fill="#4e79a7"/><circle cx="154.0" cy="232.0" r="3" fill="#4e79a7"/><circle cx="165.3" cy="232.0" r="3" fill="#4e79a7"/><circle cx="176.7" cy="232.0" r="3" fill="#4e79a7"/><circle cx="188.0" cy="232.0" r="3" fill="#4e79a7"/><circle cx="199.3" cy="200.3" r="3" fill="#4e79a7"/><circle cx="210.7" cy="50.7" r="3" fill="#4e79a7"/><circle cx="222.0" cy="168.5" r="3" fill="#4e79a7"/><circle cx="233.3" cy="182.1" r="3" fill="#4e79a7"/><circle cx="244.7" cy="168.5" r="3" fill="#4e79a7"/><circle cx="256.0" cy="145.9" r="3" fill="#4e79a7"/><circle cx="267.3" cy="145.9" r="3" fill="#4e79a7"/><circle cx="278.7" cy="164.0" r="3" fill="#4e79a7"/><circle cx="290.0" cy="177.6" r="3" fill="#4e79a7"/><circle cx="301.3" cy="168.5" r="3" fill="#4e79a7"/><circle cx="312.7" cy="164.0" r="3" fill="#4e79a7"/><circle cx="324.0" cy="150.4" r="3" fill="#4e79a7"/><circle cx="335.3" cy="173.1" r="3" fill="#4e79a7"/><circle cx="346.7" cy="168.5" r="3" fill="#4e79a7"/><circle cx="358.0" cy="177.6" r="3" fill="#4e79a7"/><circle cx="369.3" cy="204.8" r="3" fill="#4e79a7"/><circle cx="380.7" cy="159.5" r="3" fill="#4e79a7"/><circle cx="392.0" cy="168.5" r="3" fill="#4e79a7"/><circle cx="403.3" cy="182.1" r="3" fill="#4e79a7"/><circle cx="414.7" cy="173.1" r="3" fill="#4e79a7"/><circle cx="426.0" cy="118.7" r="3" fill="#4e79a7"/><circle cx="437.3" cy="105.1" r="3" fill="#4e79a7"/><circle cx="448.7" cy="132.3" r="3" fill="#4e79a7"/><circle cx="460.0" cy="154.9" r="3" fill="#4e79a7"/><circle cx="471.3" cy="136.8" r="3" fill="#4e79a7"/><circle cx="482.7" cy="28.0" r="3" fill="#4e79a7"/><circle cx="494.0" cy="173.1" r="3" fill="#4e79a7"/><circle cx="505.3" cy="173.1" r="3" fill="#4e79a7"/><circle cx="516.7" cy="177.6" r="3" fill="#4e79a7"/><circle cx="528.0" cy="186.7" r="3" fill="#4e79a7"/><circle cx="539.3" cy="182.1" r="3" fill="#4e79a7"/><circle cx="550.7" cy="186.7" r="3" fill="#4e79a7"/><circle cx="562.0" cy="191.2" r="3" fill="#4e79a7"/><circle cx="573.3" cy="164.0" r="3" fill="#4e79a7"/><circle cx="584.7" cy="168.5" r="3" fill="#4e79a7"/><circle cx="596.0" cy="177.6" r="3" fill="#4e79a7"/><circle cx="607.3" cy="164.0" r="3" fill="#4e79a7"/><circle cx="618.7" cy="177.6" r="3" fill="#4e79a7"/><circle cx="630.0" cy="154.9" r="3" fill="#4e79a7"/><circle cx="641.3" cy="222.9" r="3" fill="#4e79a7"/><circle cx="652.7" cy="182.1" r="3" fill="#4e79a7"/><circle cx="664.0" cy="173.1" r="3" fill="#4e79a7"/><circle cx="675.3" cy="177.6" r="3" fill="#4e79a7"/><circle cx="686.7" cy="209.3" r="3" fill="#4e79a7"/><circle cx="698.0" cy="222.9" r="3" fill="#4e79a7"/><circle cx="709.3" cy="186.7" r="3" fill="#4e79a7"/><circle cx="720.7" cy="204.8" r="3" fill="#4e79a7"/><circle cx="732.0" cy="168.5" r="3" fill="#4e79a7"/><circle cx="743.3" cy="168.5" r="3" fill="#4e79a7"/><circle cx="754.7" cy="209.3" r="3" fill="#4e79a7"/><circle cx="766.0" cy="177.6" r="3" fill="#4e79a7"/><circle cx="777.3" cy="191.2" r="3" fill="#4e79a7"/><circle cx="788.7" cy="209.3" r="3" fill="#4e79a7"/><circle cx="800.0" cy="191.2" r="3" fill="#4e79a7"/>
  <circle cx="52.0" cy="232.0" r="3" fill="#f28e2b"/><circle cx="63.3" cy="232.0" r="3" fill="#f28e2b"/><circle cx="74.7" cy="232.0" r="3" fill="#f28e2b"/><circle cx="86.0" cy="232.0" r="3" fill="#f28e2b"/><circle cx="97.3" cy="232.0" r="3" fill="#f28e2b"/><circle cx="108.7" cy="232.0" r="3" fill="#f28e2b"/><circle cx="120.0" cy="232.0" r="3" fill="#f28e2b"/><circle cx="131.3" cy="232.0" r="3" fill="#f28e2b"/><circle cx="142.7" cy="232.0" r="3" fill="#f28e2b"/><circle cx="154.0" cy="232.0" r="3" fill="#f28e2b"/><circle cx="165.3" cy="232.0" r="3" fill="#f28e2b"/><circle cx="176.7" cy="232.0" r="3" fill="#f28e2b"/><circle cx="188.0" cy="232.0" r="3" fill="#f28e2b"/><circle cx="199.3" cy="200.3" r="3" fill="#f28e2b"/><circle cx="210.7" cy="123.2" r="3" fill="#f28e2b"/><circle cx="222.0" cy="182.1" r="3" fill="#f28e2b"/><circle cx="233.3" cy="195.7" r="3" fill="#f28e2b"/><circle cx="244.7" cy="182.1" r="3" fill="#f28e2b"/><circle cx="256.0" cy="159.5" r="3" fill="#f28e2b"/><circle cx="267.3" cy="168.5" r="3" fill="#f28e2b"/><circle cx="278.7" cy="182.1" r="3" fill="#f28e2b"/><circle cx="290.0" cy="195.7" r="3" fill="#f28e2b"/><circle cx="301.3" cy="182.1" r="3" fill="#f28e2b"/><circle cx="312.7" cy="177.6" r="3" fill="#f28e2b"/><circle cx="324.0" cy="164.0" r="3" fill="#f28e2b"/><circle cx="335.3" cy="186.7" r="3" fill="#f28e2b"/><circle cx="346.7" cy="182.1" r="3" fill="#f28e2b"/><circle cx="358.0" cy="191.2" r="3" fill="#f28e2b"/><circle cx="369.3" cy="204.8" r="3" fill="#f28e2b"/><circle cx="380.7" cy="191.2" r="3" fill="#f28e2b"/><circle cx="392.0" cy="182.1" r="3" fill="#f28e2b"/><circle cx="403.3" cy="195.7" r="3" fill="#f28e2b"/><circle cx="414.7" cy="200.3" r="3" fill="#f28e2b"/><circle cx="426.0" cy="173.1" r="3" fill="#f28e2b"/><circle cx="437.3" cy="159.5" r="3" fill="#f28e2b"/><circle cx="448.7" cy="177.6" r="3" fill="#f28e2b"/><circle cx="460.0" cy="182.1" r="3" fill="#f28e2b"/><circle cx="471.3" cy="177.6" r="3" fill="#f28e2b"/><circle cx="482.7" cy="177.6" r="3" fill="#f28e2b"/><circle cx="494.0" cy="186.7" r="3" fill="#f28e2b"/><circle cx="505.3" cy="186.7" r="3" fill="#f28e2b"/><circle cx="516.7" cy="191.2" r="3" fill="#f28e2b"/><circle cx="528.0" cy="200.3" r="3" fill="#f28e2b"/><circle cx="539.3" cy="195.7" r="3" fill="#f28e2b"/><circle cx="550.7" cy="200.3" r="3" fill="#f28e2b"/><circle cx="562.0" cy="191.2" r="3" fill="#f28e2b"/><circle cx="573.3" cy="177.6" r="3" fill="#f28e2b"/><circle cx="584.7" cy="182.1" r="3" fill="#f28e2b"/><circle cx="596.0" cy="191.2" r="3" fill="#f28e2b"/><circle cx="607.3" cy="177.6" r="3" fill="#f28e2b"/><circle cx="618.7" cy="191.2" r="3" fill="#f28e2b"/><circle cx="630.0" cy="173.1" r="3" fill="#f28e2b"/><circle cx="641.3" cy="222.9" r="3" fill="#f28e2b"/><circle cx="652.7" cy="195.7" r="3" fill="#f28e2b"/><circle cx="664.0" cy="200.3" r="3" fill="#f28e2b"/><circle cx="675.3" cy="191.2" r="3" fill="#f28e2b"/><circle cx="686.7" cy="209.3" r="3" fill="#f28e2b"/><circle cx="698.0" cy="222.9" r="3" fill="#f28e2b"/><circle cx="709.3" cy="200.3" r="3" fill="#f28e2b"/><circle cx="720.7" cy="209.3" r="3" fill="#f28e2b"/><circle cx="732.0" cy="182.1" r="3" fill="#f28e2b"/><circle cx="743.3" cy="186.7" r="3" fill="#f28e2b"/><circle cx="754.7" cy="209.3" r="3" fill="#f28e2b"/><circle cx="766.0" cy="191.2" r="3" fill="#f28e2b"/><circle cx="777.3" cy="209.3" r="3" fill="#f28e2b"/><circle cx="788.7" cy="209.3" r="3" fill="#f28e2b"/><circle cx="800.0" cy="204.8" r="3" fill="#f28e2b"/>

  <!-- axes -->
  <line x1="52" y1="28" x2="52" y2="232"
        stroke="#cccccc" stroke-width="1"/>
  <line x1="52" y1="232" x2="800" y2="232"
        stroke="#cccccc" stroke-width="1"/>

  <!-- y-axis labels -->
  <text x="47" y="236.0" text-anchor="end" font-size="10" fill="#57606a" font-family="ui-monospace, SFMono-Regular, 'SF Mono', Menlo, monospace">0</text><text x="47" y="195.2" text-anchor="end" font-size="10" fill="#57606a" font-family="ui-monospace, SFMono-Regular, 'SF Mono', Menlo, monospace">9</text><text x="47" y="154.4" text-anchor="end" font-size="10" fill="#57606a" font-family="ui-monospace, SFMono-Regular, 'SF Mono', Menlo, monospace">18</text><text x="47" y="113.6" text-anchor="end" font-size="10" fill="#57606a" font-family="ui-monospace, SFMono-Regular, 'SF Mono', Menlo, monospace">27</text><text x="47" y="72.8" text-anchor="end" font-size="10" fill="#57606a" font-family="ui-monospace, SFMono-Regular, 'SF Mono', Menlo, monospace">36</text><text x="47" y="32.0" text-anchor="end" font-size="10" fill="#57606a" font-family="ui-monospace, SFMono-Regular, 'SF Mono', Menlo, monospace">45</text>

  <!-- x-axis labels -->
  <text x="52.0" y="248" text-anchor="middle" font-size="10" fill="#8c959f" font-family="ui-monospace, SFMono-Regular, 'SF Mono', Menlo, monospace">05-12</text><text x="414.7" y="248" text-anchor="middle" font-size="10" fill="#8c959f" font-family="ui-monospace, SFMono-Regular, 'SF Mono', Menlo, monospace">06-13</text><text x="777.3" y="248" text-anchor="middle" font-size="10" fill="#8c959f" font-family="ui-monospace, SFMono-Regular, 'SF Mono', Menlo, monospace">07-15</text><text x="800.0" y="248" text-anchor="middle" font-size="10" fill="#8c959f" font-family="ui-monospace, SFMono-Regular, 'SF Mono', Menlo, monospace">07-17</text><text x="142.7" y="248" text-anchor="middle" font-size="10" fill="#8c959f" font-family="ui-monospace, SFMono-Regular, 'SF Mono', Menlo, monospace">05-20</text><text x="505.3" y="248" text-anchor="middle" font-size="10" fill="#8c959f" font-family="ui-monospace, SFMono-Regular, 'SF Mono', Menlo, monospace">06-21</text><text x="233.3" y="248" text-anchor="middle" font-size="10" fill="#8c959f" font-family="ui-monospace, SFMono-Regular, 'SF Mono', Menlo, monospace">05-28</text><text x="596.0" y="248" text-anchor="middle" font-size="10" fill="#8c959f" font-family="ui-monospace, SFMono-Regular, 'SF Mono', Menlo, monospace">06-29</text><text x="324.0" y="248" text-anchor="middle" font-size="10" fill="#8c959f" font-family="ui-monospace, SFMono-Regular, 'SF Mono', Menlo, monospace">06-05</text><text x="686.7" y="248" text-anchor="middle" font-size="10" fill="#8c959f" font-family="ui-monospace, SFMono-Regular, 'SF Mono', Menlo, monospace">07-07</text>

  <!-- legend -->
  <rect x="60" y="262" width="16" height="3" fill="#4e79a7" rx="1"/><text x="80" y="268" font-size="11" fill="#57606a" font-family="-apple-system, BlinkMacSystemFont, 'Segoe UI', sans-serif">Total clones (747)</text><line x1="230" y1="264" x2="246" y2="264" stroke="#f28e2b" stroke-width="2" stroke-dasharray="5,3"/><text x="250" y="268" font-size="11" fill="#57606a" font-family="-apple-system, BlinkMacSystemFont, 'Segoe UI', sans-serif">Unique cloners</text>

</svg>