<svg xmlns="http://www.w3.org/2000/svg" viewBox="0 0 820 280" width="820" height="280">

  <!-- title -->
  <text x="52" y="18" font-size="13" font-weight="600"
        fill="#24292f" font-family="-apple-system, BlinkMacSystemFont, 'Segoe UI', sans-serif"
        >Clone traffic — stats</text>
  <text x="800" y="18" font-size="10" fill="#8c959f"
        font-family="ui-monospace, SFMono-Regular, 'SF Mono', Menlo, monospace" text-anchor="end">2026-07-11</text>

  <!-- grid -->
  <line x1="52" y1="232.0" x2="800" y2="232.0" stroke="#e8e8e8" stroke-width="1"/><line x1="52" y1="191.2" x2="800" y2="191.2" stroke="#e8e8e8" stroke-width="1"/><line x1="52" y1="150.4" x2="800" y2="150.4" stroke="#e8e8e8" stroke-width="1"/><line x1="52" y1="109.6" x2="800" y2="109.6" stroke="#e8e8e8" stroke-width="1"/><line x1="52" y1="68.8" x2="800" y2="68.8" stroke="#e8e8e8" stroke-width="1"/><line x1="52" y1="28.0" x2="800" y2="28.0" stroke="#e8e8e8" stroke-width="1"/>

  <!-- area fill -->
  <path d="M52.0,232.0 L52.0,232.0 L64.9,232.0 L77.8,232.0 L90.7,232.0 L103.6,232.0 L116.5,232.0 L129.4,232.0 L142.3,232.0 L155.2,232.0 L168.1,232.0 L181.0,232.0 L193.9,232.0 L206.8,232.0 L219.7,200.3 L232.6,50.7 L245.4,168.5 L258.3,182.1 L271.2,168.5 L284.1,145.9 L297.0,145.9 L309.9,164.0 L322.8,177.6 L335.7,168.5 L348.6,164.0 L361.5,150.4 L374.4,173.1 L387.3,168.5 L400.2,177.6 L413.1,204.8 L426.0,159.5 L438.9,168.5 L451.8,182.1 L464.7,173.1 L477.6,118.7 L490.5,105.1 L503.4,132.3 L516.3,154.9 L529.2,136.8 L542.1,28.0 L555.0,173.1 L567.9,173.1 L580.8,177.6 L593.7,186.7 L606.6,182.1 L619.4,186.7 L632.3,191.2 L645.2,164.0 L658.1,168.5 L671.0,177.6 L683.9,164.0 L696.8,177.6 L709.7,154.9 L722.6,222.9 L735.5,182.1 L748.4,173.1 L761.3,177.6 L774.2,209.3 L787.1,222.9 L800.0,186.7 L800.0,232.0 L52.0,232.0Z" fill="#4e79a7" opacity="0.12"/>

  <!-- lines -->
  <polyline points="52.0,232.0 64.9,232.0 77.8,232.0 90.7,232.0 103.6,232.0 116.5,232.0 129.4,232.0 142.3,232.0 155.2,232.0 168.1,232.0 181.0,232.0 193.9,232.0 206.8,232.0 219.7,200.3 232.6,50.7 245.4,168.5 258.3,182.1 271.2,168.5 284.1,145.9 297.0,145.9 309.9,164.0 322.8,177.6 335.7,168.5 348.6,164.0 361.5,150.4 374.4,173.1 387.3,168.5 400.2,177.6 413.1,204.8 426.0,159.5 438.9,168.5 451.8,182.1 464.7,173.1 477.6,118.7 490.5,105.1 503.4,132.3 516.3,154.9 529.2,136.8 542.1,28.0 555.0,173.1 567.9,173.1 580.8,177.6 593.7,186.7 606.6,182.1 619.4,186.7 632.3,191.2 645.2,164.0 658.1,168.5 671.0,177.6 683.9,164.0 696.8,177.6 709.7,154.9 722.6,222.9 735.5,182.1 748.4,173.1 761.3,177.6 774.2,209.3 787.1,222.9 800.0,186.7"
            fill="none" stroke="#4e79a7"
            stroke-width="2" stroke-linejoin="round"/>
  <polyline points="52.0,232.0 64.9,232.0 77.8,232.0 90.7,232.0 103.6,232.0 116.5,232.0 129.4,232.0 142.3,232.0 155.2,232.0 168.1,232.0 181.0,232.0 193.9,232.0 206.8,232.0 219.7,200.3 232.6,123.2 245.4,182.1 258.3,195.7 271.2,182.1 284.1,159.5 297.0,168.5 309.9,182.1 322.8,195.7 335.7,182.1 348.6,177.6 361.5,164.0 374.4,186.7 387.3,182.1 400.2,191.2 413.1,204.8 426.0,191.2 438.9,182.1 451.8,195.7 464.7,200.3 477.6,173.1 490.5,159.5 503.4,177.6 516.3,182.1 529.2,177.6 542.1,177.6 555.0,186.7 567.9,186.7 580.8,191.2 593.7,200.3 606.6,195.7 619.4,200.3 632.3,191.2 645.2,177.6 658.1,182.1 671.0,191.2 683.9,177.6 696.8,191.2 709.7,173.1 722.6,222.9 735.5,195.7 748.4,200.3 761.3,191.2 774.2,209.3 787.1,222.9 800.0,200.3"
            fill="none" stroke="#f28e2b"
            stroke-width="2" stroke-linejoin="round"
            stroke-dasharray="5,3"/>

  <!-- dots -->
  <circle cx="52.0" cy="232.0" r="3" fill="#4e79a7"/><circle cx="64.9" cy="232.0" r="3" fill="#4e79a7"/><circle cx="77.8" cy="232.0" r="3" fill="#4e79a7"/><circle cx="90.7" cy="232.0" r="3" fill="#4e79a7"/><circle cx="103.6" cy="232.0" r="3" fill="#4e79a7"/><circle cx="116.5" cy="232.0" r="3" fill="#4e79a7"/><circle cx="129.4" cy="232.0" r="3" fill="#4e79a7"/><circle cx="142.3" cy="232.0" r="3" fill="#4e79a7"/><circle cx="155.2" cy="232.0" r="3" fill="#4e79a7"/><circle cx="168.1" cy="232.0" r="3" fill="#4e79a7"/><circle cx="181.0" cy="232.0" r="3" fill="#4e79a7"/><circle cx="193.9" cy="232.0" r="3" fill="#4e79a7"/><circle cx="206.8" cy="232.0" r="3" fill="#4e79a7"/><circle cx="219.7" cy="200.3" r="3" fill="#4e79a7"/><circle cx="232.6" cy="50.7" r="3" fill="#4e79a7"/><circle cx="245.4" cy="168.5" r="3" fill="#4e79a7"/><circle cx="258.3" cy="182.1" r="3" fill="#4e79a7"/><circle cx="271.2" cy="168.5" r="3" fill="#4e79a7"/><circle cx="284.1" cy="145.9" r="3" fill="#4e79a7"/><circle cx="297.0" cy="145.9" r="3" fill="#4e79a7"/><circle cx="309.9" cy="164.0" r="3" fill="#4e79a7"/><circle cx="322.8" cy="177.6" r="3" fill="#4e79a7"/><circle cx="335.7" cy="168.5" r="3" fill="#4e79a7"/><circle cx="348.6" cy="164.0" r="3" fill="#4e79a7"/><circle cx="361.5" cy="150.4" r="3" fill="#4e79a7"/><circle cx="374.4" cy="173.1" r="3" fill="#4e79a7"/><circle cx="387.3" cy="168.5" r="3" fill="#4e79a7"/><circle cx="400.2" cy="177.6" r="3" fill="#4e79a7"/><circle cx="413.1" cy="204.8" r="3" fill="#4e79a7"/><circle cx="426.0" cy="159.5" r="3" fill="#4e79a7"/><circle cx="438.9" cy="168.5" r="3" fill="#4e79a7"/><circle cx="451.8" cy="182.1" r="3" fill="#4e79a7"/><circle cx="464.7" cy="173.1" r="3" fill="#4e79a7"/><circle cx="477.6" cy="118.7" r="3" fill="#4e79a7"/><circle cx="490.5" cy="105.1" r="3" fill="#4e79a7"/><circle cx="503.4" cy="132.3" r="3" fill="#4e79a7"/><circle cx="516.3" cy="154.9" r="3" fill="#4e79a7"/><circle cx="529.2" cy="136.8" r="3" fill="#4e79a7"/><circle cx="542.1" cy="28.0" r="3" fill="#4e79a7"/><circle cx="555.0" cy="173.1" r="3" fill="#4e79a7"/><circle cx="567.9" cy="173.1" r="3" fill="#4e79a7"/><circle cx="580.8" cy="177.6" r="3" fill="#4e79a7"/><circle cx="593.7" cy="186.7" r="3" fill="#4e79a7"/><circle cx="606.6" cy="182.1" r="3" fill="#4e79a7"/><circle cx="619.4" cy="186.7" r="3" fill="#4e79a7"/><circle cx="632.3" cy="191.2" r="3" fill="#4e79a7"/><circle cx="645.2" cy="164.0" r="3" fill="#4e79a7"/><circle cx="658.1" cy="168.5" r="3" fill="#4e79a7"/><circle cx="671.0" cy="177.6" r="3" fill="#4e79a7"/><circle cx="683.9" cy="164.0" r="3" fill="#4e79a7"/><circle cx="696.8" cy="177.6" r="3" fill="#4e79a7"/><circle cx="709.7" cy="154.9" r="3" fill="#4e79a7"/><circle cx="722.6" cy="222.9" r="3" fill="#4e79a7"/><circle cx="735.5" cy="182.1" r="3" fill="#4e79a7"/><circle cx="748.4" cy="173.1" r="3" fill="#4e79a7"/><circle cx="761.3" cy="177.6" r="3" fill="#4e79a7"/><circle cx="774.2" cy="209.3" r="3" fill="#4e79a7"/><circle cx="787.1" cy="222.9" r="3" fill="#4e79a7"/><circle cx="800.0" cy="186.7" r="3" fill="#4e79a7"/>
  <circle cx="52.0" cy="232.0" r="3" fill="#f28e2b"/><circle cx="64.9" cy="232.0" r="3" fill="#f28e2b"/><circle cx="77.8" cy="232.0" r="3" fill="#f28e2b"/><circle cx="90.7" cy="232.0" r="3" fill="#f28e2b"/><circle cx="103.6" cy="232.0" r="3" fill="#f28e2b"/><circle cx="116.5" cy="232.0" r="3" fill="#f28e2b"/><circle cx="129.4" cy="232.0" r="3" fill="#f28e2b"/><circle cx="142.3" cy="232.0" r="3" fill="#f28e2b"/><circle cx="155.2" cy="232.0" r="3" fill="#f28e2b"/><circle cx="168.1" cy="232.0" r="3" fill="#f28e2b"/><circle cx="181.0" cy="232.0" r="3" fill="#f28e2b"/><circle cx="193.9" cy="232.0" r="3" fill="#f28e2b"/><circle cx="206.8" cy="232.0" r="3" fill="#f28e2b"/><circle cx="219.7" cy="200.3" r="3" fill="#f28e2b"/><circle cx="232.6" cy="123.2" r="3" fill="#f28e2b"/><circle cx="245.4" cy="182.1" r="3" fill="#f28e2b"/><circle cx="258.3" cy="195.7" r="3" fill="#f28e2b"/><circle cx="271.2" cy="182.1" r="3" fill="#f28e2b"/><circle cx="284.1" cy="159.5" r="3" fill="#f28e2b"/><circle cx="297.0" cy="168.5" r="3" fill="#f28e2b"/><circle cx="309.9" cy="182.1" r="3" fill="#f28e2b"/><circle cx="322.8" cy="195.7" r="3" fill="#f28e2b"/><circle cx="335.7" cy="182.1" r="3" fill="#f28e2b"/><circle cx="348.6" cy="177.6" r="3" fill="#f28e2b"/><circle cx="361.5" cy="164.0" r="3" fill="#f28e2b"/><circle cx="374.4" cy="186.7" r="3" fill="#f28e2b"/><circle cx="387.3" cy="182.1" r="3" fill="#f28e2b"/><circle cx="400.2" cy="191.2" r="3" fill="#f28e2b"/><circle cx="413.1" cy="204.8" r="3" fill="#f28e2b"/><circle cx="426.0" cy="191.2" r="3" fill="#f28e2b"/><circle cx="438.9" cy="182.1" r="3" fill="#f28e2b"/><circle cx="451.8" cy="195.7" r="3" fill="#f28e2b"/><circle cx="464.7" cy="200.3" r="3" fill="#f28e2b"/><circle cx="477.6" cy="173.1" r="3" fill="#f28e2b"/><circle cx="490.5" cy="159.5" r="3" fill="#f28e2b"/><circle cx="503.4" cy="177.6" r="3" fill="#f28e2b"/><circle cx="516.3" cy="182.1" r="3" fill="#f28e2b"/><circle cx="529.2" cy="177.6" r="3" fill="#f28e2b"/><circle cx="542.1" cy="177.6" r="3" fill="#f28e2b"/><circle cx="555.0" cy="186.7" r="3" fill="#f28e2b"/><circle cx="567.9" cy="186.7" r="3" fill="#f28e2b"/><circle cx="580.8" cy="191.2" r="3" fill="#f28e2b"/><circle cx="593.7" cy="200.3" r="3" fill="#f28e2b"/><circle cx="606.6" cy="195.7" r="3" fill="#f28e2b"/><circle cx="619.4" cy="200.3" r="3" fill="#f28e2b"/><circle cx="632.3" cy="191.2" r="3" fill="#f28e2b"/><circle cx="645.2" cy="177.6" r="3" fill="#f28e2b"/><circle cx="658.1" cy="182.1" r="3" fill="#f28e2b"/><circle cx="671.0" cy="191.2" r="3" fill="#f28e2b"/><circle cx="683.9" cy="177.6" r="3" fill="#f28e2b"/><circle cx="696.8" cy="191.2" r="3" fill="#f28e2b"/><circle cx="709.7" cy="173.1" r="3" fill="#f28e2b"/><circle cx="722.6" cy="222.9" r="3" fill="#f28e2b"/><circle cx="735.5" cy="195.7" r="3" fill="#f28e2b"/><circle cx="748.4" cy="200.3" r="3" fill="#f28e2b"/><circle cx="761.3" cy="191.2" r="3" fill="#f28e2b"/><circle cx="774.2" cy="209.3" r="3" fill="#f28e2b"/><circle cx="787.1" cy="222.9" r="3" fill="#f28e2b"/><circle cx="800.0" cy="200.3" r="3" fill="#f28e2b"/>

  <!-- axes -->
  <line x1="52" y1="28" x2="52" y2="232"
        stroke="#cccccc" stroke-width="1"/>
  <line x1="52" y1="232" x2="800" y2="232"
        stroke="#cccccc" stroke-width="1"/>

  <!-- y-axis labels -->
  <text x="47" y="236.0" text-anchor="end" font-size="10" fill="#57606a" font-family="ui-monospace, SFMono-Regular, 'SF Mono', Menlo, monospace">0</text><text x="47" y="195.2" text-anchor="end" font-size="10" fill="#57606a" font-family="ui-monospace, SFMono-Regular, 'SF Mono', Menlo, monospace">9</text><text x="47" y="154.4" text-anchor="end" font-size="10" fill="#57606a" font-family="ui-monospace, SFMono-Regular, 'SF Mono', Menlo, monospace">18</text><text x="47" y="113.6" text-anchor="end" font-size="10" fill="#57606a" font-family="ui-monospace, SFMono-Regular, 'SF Mono', Menlo, monospace">27</text><text x="47" y="72.8" text-anchor="end" font-size="10" fill="#57606a" font-family="ui-monospace, SFMono-Regular, 'SF Mono', Menlo, monospace">36</text><text x="47" y="32.0" text-anchor="end" font-size="10" fill="#57606a" font-family="ui-monospace, SFMono-Regular, 'SF Mono', Menlo, monospace">45</text>

  <!-- x-axis labels -->
  <text x="52.0" y="248" text-anchor="middle" font-size="10" fill="#8c959f" font-family="ui-monospace, SFMono-Regular, 'SF Mono', Menlo, monospace">05-12</text><text x="503.4" y="248" text-anchor="middle" font-size="10" fill="#8c959f" font-family="ui-monospace, SFMono-Regular, 'SF Mono', Menlo, monospace">06-16</text><text x="142.3" y="248" text-anchor="middle" font-size="10" fill="#8c959f" font-family="ui-monospace, SFMono-Regular, 'SF Mono', Menlo, monospace">05-19</text><text x="593.7" y="248" text-anchor="middle" font-size="10" fill="#8c959f" font-family="ui-monospace, SFMono-Regular, 'SF Mono', Menlo, monospace">06-23</text><text x="232.6" y="248" text-anchor="middle" font-size="10" fill="#8c959f" font-family="ui-monospace, SFMono-Regular, 'SF Mono', Menlo, monospace">05-26</text><text x="683.9" y="248" text-anchor="middle" font-size="10" fill="#8c959f" font-family="ui-monospace, SFMono-Regular, 'SF Mono', Menlo, monospace">06-30</text><text x="322.8" y="248" text-anchor="middle" font-size="10" fill="#8c959f" font-family="ui-monospace, SFMono-Regular, 'SF Mono', Menlo, monospace">06-02</text><text x="774.2" y="248" text-anchor="middle" font-size="10" fill="#8c959f" font-family="ui-monospace, SFMono-Regular, 'SF Mono', Menlo, monospace">07-07</text><text x="800.0" y="248" text-anchor="middle" font-size="10" fill="#8c959f" font-family="ui-monospace, SFMono-Regular, 'SF Mono', Menlo, monospace">07-09</text><text x="413.1" y="248" text-anchor="middle" font-size="10" fill="#8c959f" font-family="ui-monospace, SFMono-Regular, 'SF Mono', Menlo, monospace">06-09</text>

  <!-- legend -->
  <rect x="60" y="262" width="16" height="3" fill="#4e79a7" rx="1"/><text x="80" y="268" font-size="11" fill="#57606a" font-family="-apple-system, BlinkMacSystemFont, 'Segoe UI', sans-serif">Total clones (673)</text><line x1="230" y1="264" x2="246" y2="264" stroke="#f28e2b" stroke-width="2" stroke-dasharray="5,3"/><text x="250" y="268" font-size="11" fill="#57606a" font-family="-apple-system, BlinkMacSystemFont, 'Segoe UI', sans-serif">Unique cloners</text>

</svg>