<svg xmlns="http://www.w3.org/2000/svg" viewBox="0 0 820 280" width="820" height="280">

  <!-- title -->
  <text x="52" y="18" font-size="13" font-weight="600"
        fill="#24292f" font-family="-apple-system, BlinkMacSystemFont, 'Segoe UI', sans-serif"
        >Clone traffic — stats</text>
  <text x="800" y="18" font-size="10" fill="#8c959f"
        font-family="ui-monospace, SFMono-Regular, 'SF Mono', Menlo, monospace" text-anchor="end">2026-07-06</text>

  <!-- grid -->
  <line x1="52" y1="232.0" x2="800" y2="232.0" stroke="#e8e8e8" stroke-width="1"/><line x1="52" y1="191.2" x2="800" y2="191.2" stroke="#e8e8e8" stroke-width="1"/><line x1="52" y1="150.4" x2="800" y2="150.4" stroke="#e8e8e8" stroke-width="1"/><line x1="52" y1="109.6" x2="800" y2="109.6" stroke="#e8e8e8" stroke-width="1"/><line x1="52" y1="68.8" x2="800" y2="68.8" stroke="#e8e8e8" stroke-width="1"/><line x1="52" y1="28.0" x2="800" y2="28.0" stroke="#e8e8e8" stroke-width="1"/>

  <!-- area fill -->
  <path d="M52.0,232.0 L52.0,232.0 L65.9,232.0 L79.7,232.0 L93.6,232.0 L107.4,232.0 L121.3,232.0 L135.1,232.0 L149.0,232.0 L162.8,232.0 L176.7,232.0 L190.5,232.0 L204.4,232.0 L218.2,232.0 L232.1,200.3 L245.9,50.7 L259.8,168.5 L273.6,182.1 L287.5,168.5 L301.3,145.9 L315.2,145.9 L329.0,164.0 L342.9,177.6 L356.7,168.5 L370.6,164.0 L384.4,150.4 L398.3,173.1 L412.1,168.5 L426.0,177.6 L439.9,204.8 L453.7,159.5 L467.6,168.5 L481.4,182.1 L495.3,173.1 L509.1,118.7 L523.0,105.1 L536.8,132.3 L550.7,154.9 L564.5,136.8 L578.4,28.0 L592.2,173.1 L606.1,173.1 L619.9,177.6 L633.8,186.7 L647.6,182.1 L661.5,186.7 L675.3,191.2 L689.2,164.0 L703.0,168.5 L716.9,177.6 L730.7,164.0 L744.6,177.6 L758.4,154.9 L772.3,222.9 L786.1,182.1 L800.0,173.1 L800.0,232.0 L52.0,232.0Z" fill="#4e79a7" opacity="0.12"/>

  <!-- lines -->
  <polyline points="52.0,232.0 65.9,232.0 79.7,232.0 93.6,232.0 107.4,232.0 121.3,232.0 135.1,232.0 149.0,232.0 162.8,232.0 176.7,232.0 190.5,232.0 204.4,232.0 218.2,232.0 232.1,200.3 245.9,50.7 259.8,168.5 273.6,182.1 287.5,168.5 301.3,145.9 315.2,145.9 329.0,164.0 342.9,177.6 356.7,168.5 370.6,164.0 384.4,150.4 398.3,173.1 412.1,168.5 426.0,177.6 439.9,204.8 453.7,159.5 467.6,168.5 481.4,182.1 495.3,173.1 509.1,118.7 523.0,105.1 536.8,132.3 550.7,154.9 564.5,136.8 578.4,28.0 592.2,173.1 606.1,173.1 619.9,177.6 633.8,186.7 647.6,182.1 661.5,186.7 675.3,191.2 689.2,164.0 703.0,168.5 716.9,177.6 730.7,164.0 744.6,177.6 758.4,154.9 772.3,222.9 786.1,182.1 800.0,173.1"
            fill="none" stroke="#4e79a7"
            stroke-width="2" stroke-linejoin="round"/>
  <polyline points="52.0,232.0 65.9,232.0 79.7,232.0 93.6,232.0 107.4,232.0 121.3,232.0 135.1,232.0 149.0,232.0 162.8,232.0 176.7,232.0 190.5,232.0 204.4,232.0 218.2,232.0 232.1,200.3 245.9,123.2 259.8,182.1 273.6,195.7 287.5,182.1 301.3,159.5 315.2,168.5 329.0,182.1 342.9,195.7 356.7,182.1 370.6,177.6 384.4,164.0 398.3,186.7 412.1,182.1 426.0,191.2 439.9,204.8 453.7,191.2 467.6,182.1 481.4,195.7 495.3,200.3 509.1,173.1 523.0,159.5 536.8,177.6 550.7,182.1 564.5,177.6 578.4,177.6 592.2,186.7 606.1,186.7 619.9,191.2 633.8,200.3 647.6,195.7 661.5,200.3 675.3,191.2 689.2,177.6 703.0,182.1 716.9,191.2 730.7,177.6 744.6,191.2 758.4,173.1 772.3,222.9 786.1,195.7 800.0,200.3"
            fill="none" stroke="#f28e2b"
            stroke-width="2" stroke-linejoin="round"
            stroke-dasharray="5,3"/>

  <!-- dots -->
  <circle cx="52.0" cy="232.0" r="3" fill="#4e79a7"/><circle cx="65.9" cy="232.0" r="3" fill="#4e79a7"/><circle cx="79.7" cy="232.0" r="3" fill="#4e79a7"/><circle cx="93.6" cy="232.0" r="3" fill="#4e79a7"/><circle cx="107.4" cy="232.0" r="3" fill="#4e79a7"/><circle cx="121.3" cy="232.0" r="3" fill="#4e79a7"/><circle cx="135.1" cy="232.0" r="3" fill="#4e79a7"/><circle cx="149.0" cy="232.0" r="3" fill="#4e79a7"/><circle cx="162.8" cy="232.0" r="3" fill="#4e79a7"/><circle cx="176.7" cy="232.0" r="3" fill="#4e79a7"/><circle cx="190.5" cy="232.0" r="3" fill="#4e79a7"/><circle cx="204.4" cy="232.0" r="3" fill="#4e79a7"/><circle cx="218.2" cy="232.0" r="3" fill="#4e79a7"/><circle cx="232.1" cy="200.3" r="3" fill="#4e79a7"/><circle cx="245.9" cy="50.7" r="3" fill="#4e79a7"/><circle cx="259.8" cy="168.5" r="3" fill="#4e79a7"/><circle cx="273.6" cy="182.1" r="3" fill="#4e79a7"/><circle cx="287.5" cy="168.5" r="3" fill="#4e79a7"/><circle cx="301.3" cy="145.9" r="3" fill="#4e79a7"/><circle cx="315.2" cy="145.9" r="3" fill="#4e79a7"/><circle cx="329.0" cy="164.0" r="3" fill="#4e79a7"/><circle cx="342.9" cy="177.6" r="3" fill="#4e79a7"/><circle cx="356.7" cy="168.5" r="3" fill="#4e79a7"/><circle cx="370.6" cy="164.0" r="3" fill="#4e79a7"/><circle cx="384.4" cy="150.4" r="3" fill="#4e79a7"/><circle cx="398.3" cy="173.1" r="3" fill="#4e79a7"/><circle cx="412.1" cy="168.5" r="3" fill="#4e79a7"/><circle cx="426.0" cy="177.6" r="3" fill="#4e79a7"/><circle cx="439.9" cy="204.8" r="3" fill="#4e79a7"/><circle cx="453.7" cy="159.5" r="3" fill="#4e79a7"/><circle cx="467.6" cy="168.5" r="3" fill="#4e79a7"/><circle cx="481.4" cy="182.1" r="3" fill="#4e79a7"/><circle cx="495.3" cy="173.1" r="3" fill="#4e79a7"/><circle cx="509.1" cy="118.7" r="3" fill="#4e79a7"/><circle cx="523.0" cy="105.1" r="3" fill="#4e79a7"/><circle cx="536.8" cy="132.3" r="3" fill="#4e79a7"/><circle cx="550.7" cy="154.9" r="3" fill="#4e79a7"/><circle cx="564.5" cy="136.8" r="3" fill="#4e79a7"/><circle cx="578.4" cy="28.0" r="3" fill="#4e79a7"/><circle cx="592.2" cy="173.1" r="3" fill="#4e79a7"/><circle cx="606.1" cy="173.1" r="3" fill="#4e79a7"/><circle cx="619.9" cy="177.6" r="3" fill="#4e79a7"/><circle cx="633.8" cy="186.7" r="3" fill="#4e79a7"/><circle cx="647.6" cy="182.1" r="3" fill="#4e79a7"/><circle cx="661.5" cy="186.7" r="3" fill="#4e79a7"/><circle cx="675.3" cy="191.2" r="3" fill="#4e79a7"/><circle cx="689.2" cy="164.0" r="3" fill="#4e79a7"/><circle cx="703.0" cy="168.5" r="3" fill="#4e79a7"/><circle cx="716.9" cy="177.6" r="3" fill="#4e79a7"/><circle cx="730.7" cy="164.0" r="3" fill="#4e79a7"/><circle cx="744.6" cy="177.6" r="3" fill="#4e79a7"/><circle cx="758.4" cy="154.9" r="3" fill="#4e79a7"/><circle cx="772.3" cy="222.9" r="3" fill="#4e79a7"/><circle cx="786.1" cy="182.1" r="3" fill="#4e79a7"/><circle cx="800.0" cy="173.1" r="3" fill="#4e79a7"/>
  <circle cx="52.0" cy="232.0" r="3" fill="#f28e2b"/><circle cx="65.9" cy="232.0" r="3" fill="#f28e2b"/><circle cx="79.7" cy="232.0" r="3" fill="#f28e2b"/><circle cx="93.6" cy="232.0" r="3" fill="#f28e2b"/><circle cx="107.4" cy="232.0" r="3" fill="#f28e2b"/><circle cx="121.3" cy="232.0" r="3" fill="#f28e2b"/><circle cx="135.1" cy="232.0" r="3" fill="#f28e2b"/><circle cx="149.0" cy="232.0" r="3" fill="#f28e2b"/><circle cx="162.8" cy="232.0" r="3" fill="#f28e2b"/><circle cx="176.7" cy="232.0" r="3" fill="#f28e2b"/><circle cx="190.5" cy="232.0" r="3" fill="#f28e2b"/><circle cx="204.4" cy="232.0" r="3" fill="#f28e2b"/><circle cx="218.2" cy="232.0" r="3" fill="#f28e2b"/><circle cx="232.1" cy="200.3" r="3" fill="#f28e2b"/><circle cx="245.9" cy="123.2" r="3" fill="#f28e2b"/><circle cx="259.8" cy="182.1" r="3" fill="#f28e2b"/><circle cx="273.6" cy="195.7" r="3" fill="#f28e2b"/><circle cx="287.5" cy="182.1" r="3" fill="#f28e2b"/><circle cx="301.3" cy="159.5" r="3" fill="#f28e2b"/><circle cx="315.2" cy="168.5" r="3" fill="#f28e2b"/><circle cx="329.0" cy="182.1" r="3" fill="#f28e2b"/><circle cx="342.9" cy="195.7" r="3" fill="#f28e2b"/><circle cx="356.7" cy="182.1" r="3" fill="#f28e2b"/><circle cx="370.6" cy="177.6" r="3" fill="#f28e2b"/><circle cx="384.4" cy="164.0" r="3" fill="#f28e2b"/><circle cx="398.3" cy="186.7" r="3" fill="#f28e2b"/><circle cx="412.1" cy="182.1" r="3" fill="#f28e2b"/><circle cx="426.0" cy="191.2" r="3" fill="#f28e2b"/><circle cx="439.9" cy="204.8" r="3" fill="#f28e2b"/><circle cx="453.7" cy="191.2" r="3" fill="#f28e2b"/><circle cx="467.6" cy="182.1" r="3" fill="#f28e2b"/><circle cx="481.4" cy="195.7" r="3" fill="#f28e2b"/><circle cx="495.3" cy="200.3" r="3" fill="#f28e2b"/><circle cx="509.1" cy="173.1" r="3" fill="#f28e2b"/><circle cx="523.0" cy="159.5" r="3" fill="#f28e2b"/><circle cx="536.8" cy="177.6" r="3" fill="#f28e2b"/><circle cx="550.7" cy="182.1" r="3" fill="#f28e2b"/><circle cx="564.5" cy="177.6" r="3" fill="#f28e2b"/><circle cx="578.4" cy="177.6" r="3" fill="#f28e2b"/><circle cx="592.2" cy="186.7" r="3" fill="#f28e2b"/><circle cx="606.1" cy="186.7" r="3" fill="#f28e2b"/><circle cx="619.9" cy="191.2" r="3" fill="#f28e2b"/><circle cx="633.8" cy="200.3" r="3" fill="#f28e2b"/><circle cx="647.6" cy="195.7" r="3" fill="#f28e2b"/><circle cx="661.5" cy="200.3" r="3" fill="#f28e2b"/><circle cx="675.3" cy="191.2" r="3" fill="#f28e2b"/><circle cx="689.2" cy="177.6" r="3" fill="#f28e2b"/><circle cx="703.0" cy="182.1" r="3" fill="#f28e2b"/><circle cx="716.9" cy="191.2" r="3" fill="#f28e2b"/><circle cx="730.7" cy="177.6" r="3" fill="#f28e2b"/><circle cx="744.6" cy="191.2" r="3" fill="#f28e2b"/><circle cx="758.4" cy="173.1" r="3" fill="#f28e2b"/><circle cx="772.3" cy="222.9" r="3" fill="#f28e2b"/><circle cx="786.1" cy="195.7" r="3" fill="#f28e2b"/><circle cx="800.0" cy="200.3" r="3" fill="#f28e2b"/>

  <!-- axes -->
  <line x1="52" y1="28" x2="52" y2="232"
        stroke="#cccccc" stroke-width="1"/>
  <line x1="52" y1="232" x2="800" y2="232"
        stroke="#cccccc" stroke-width="1"/>

  <!-- y-axis labels -->
  <text x="47" y="236.0" text-anchor="end" font-size="10" fill="#57606a" font-family="ui-monospace, SFMono-Regular, 'SF Mono', Menlo, monospace">0</text><text x="47" y="195.2" text-anchor="end" font-size="10" fill="#57606a" font-family="ui-monospace, SFMono-Regular, 'SF Mono', Menlo, monospace">9</text><text x="47" y="154.4" text-anchor="end" font-size="10" fill="#57606a" font-family="ui-monospace, SFMono-Regular, 'SF Mono', Menlo, monospace">18</text><text x="47" y="113.6" text-anchor="end" font-size="10" fill="#57606a" font-family="ui-monospace, SFMono-Regular, 'SF Mono', Menlo, monospace">27</text><text x="47" y="72.8" text-anchor="end" font-size="10" fill="#57606a" font-family="ui-monospace, SFMono-Regular, 'SF Mono', Menlo, monospace">36</text><text x="47" y="32.0" text-anchor="end" font-size="10" fill="#57606a" font-family="ui-monospace, SFMono-Regular, 'SF Mono', Menlo, monospace">45</text>

  <!-- x-axis labels -->
  <text x="52.0" y="248" text-anchor="middle" font-size="10" fill="#8c959f" font-family="ui-monospace, SFMono-Regular, 'SF Mono', Menlo, monospace">05-12</text><text x="550.7" y="248" text-anchor="middle" font-size="10" fill="#8c959f" font-family="ui-monospace, SFMono-Regular, 'SF Mono', Menlo, monospace">06-17</text><text x="135.1" y="248" text-anchor="middle" font-size="10" fill="#8c959f" font-family="ui-monospace, SFMono-Regular, 'SF Mono', Menlo, monospace">05-18</text><text x="633.8" y="248" text-anchor="middle" font-size="10" fill="#8c959f" font-family="ui-monospace, SFMono-Regular, 'SF Mono', Menlo, monospace">06-23</text><text x="218.2" y="248" text-anchor="middle" font-size="10" fill="#8c959f" font-family="ui-monospace, SFMono-Regular, 'SF Mono', Menlo, monospace">05-24</text><text x="716.9" y="248" text-anchor="middle" font-size="10" fill="#8c959f" font-family="ui-monospace, SFMono-Regular, 'SF Mono', Menlo, monospace">06-29</text><text x="301.3" y="248" text-anchor="middle" font-size="10" fill="#8c959f" font-family="ui-monospace, SFMono-Regular, 'SF Mono', Menlo, monospace">05-30</text><text x="800.0" y="248" text-anchor="middle" font-size="10" fill="#8c959f" font-family="ui-monospace, SFMono-Regular, 'SF Mono', Menlo, monospace">07-05</text><text x="384.4" y="248" text-anchor="middle" font-size="10" fill="#8c959f" font-family="ui-monospace, SFMono-Regular, 'SF Mono', Menlo, monospace">06-05</text><text x="467.6" y="248" text-anchor="middle" font-size="10" fill="#8c959f" font-family="ui-monospace, SFMono-Regular, 'SF Mono', Menlo, monospace">06-11</text>

  <!-- legend -->
  <rect x="60" y="262" width="16" height="3" fill="#4e79a7" rx="1"/><text x="80" y="268" font-size="11" fill="#57606a" font-family="-apple-system, BlinkMacSystemFont, 'Segoe UI', sans-serif">Total clones (644)</text><line x1="230" y1="264" x2="246" y2="264" stroke="#f28e2b" stroke-width="2" stroke-dasharray="5,3"/><text x="250" y="268" font-size="11" fill="#57606a" font-family="-apple-system, BlinkMacSystemFont, 'Segoe UI', sans-serif">Unique cloners</text>

</svg>