<svg xmlns="http://www.w3.org/2000/svg" viewBox="0 0 820 280" width="820" height="280">

  <!-- title -->
  <text x="52" y="18" font-size="13" font-weight="600"
        fill="#24292f" font-family="-apple-system, BlinkMacSystemFont, 'Segoe UI', sans-serif"
        >Clone traffic — stats</text>
  <text x="800" y="18" font-size="10" fill="#8c959f"
        font-family="ui-monospace, SFMono-Regular, 'SF Mono', Menlo, monospace" text-anchor="end">2026-07-18</text>

  <!-- grid -->
  <line x1="52" y1="232.0" x2="800" y2="232.0" stroke="#e8e8e8" stroke-width="1"/><line x1="52" y1="191.2" x2="800" y2="191.2" stroke="#e8e8e8" stroke-width="1"/><line x1="52" y1="150.4" x2="800" y2="150.4" stroke="#e8e8e8" stroke-width="1"/><line x1="52" y1="109.6" x2="800" y2="109.6" stroke="#e8e8e8" stroke-width="1"/><line x1="52" y1="68.8" x2="800" y2="68.8" stroke="#e8e8e8" stroke-width="1"/><line x1="52" y1="28.0" x2="800" y2="28.0" stroke="#e8e8e8" stroke-width="1"/>

  <!-- area fill -->
  <path d="M52.0,232.0 L52.0,232.0 L63.5,232.0 L75.0,232.0 L86.5,232.0 L98.0,232.0 L109.5,232.0 L121.0,232.0 L132.6,232.0 L144.1,232.0 L155.6,232.0 L167.1,232.0 L178.6,232.0 L190.1,232.0 L201.6,200.3 L213.1,50.7 L224.6,168.5 L236.1,182.1 L247.6,168.5 L259.1,145.9 L270.6,145.9 L282.2,164.0 L293.7,177.6 L305.2,168.5 L316.7,164.0 L328.2,150.4 L339.7,173.1 L351.2,168.5 L362.7,177.6 L374.2,204.8 L385.7,159.5 L397.2,168.5 L408.7,182.1 L420.2,173.1 L431.8,118.7 L443.3,105.1 L454.8,132.3 L466.3,154.9 L477.8,136.8 L489.3,28.0 L500.8,173.1 L512.3,173.1 L523.8,177.6 L535.3,186.7 L546.8,182.1 L558.3,186.7 L569.8,191.2 L581.4,164.0 L592.9,168.5 L604.4,177.6 L615.9,164.0 L627.4,177.6 L638.9,154.9 L650.4,222.9 L661.9,182.1 L673.4,173.1 L684.9,177.6 L696.4,209.3 L707.9,222.9 L719.4,186.7 L731.0,204.8 L742.5,168.5 L754.0,168.5 L765.5,209.3 L777.0,177.6 L788.5,191.2 L800.0,209.3 L800.0,232.0 L52.0,232.0Z" fill="#4e79a7" opacity="0.12"/>

  <!-- lines -->
  <polyline points="52.0,232.0 63.5,232.0 75.0,232.0 86.5,232.0 98.0,232.0 109.5,232.0 121.0,232.0 132.6,232.0 144.1,232.0 155.6,232.0 167.1,232.0 178.6,232.0 190.1,232.0 201.6,200.3 213.1,50.7 224.6,168.5 236.1,182.1 247.6,168.5 259.1,145.9 270.6,145.9 282.2,164.0 293.7,177.6 305.2,168.5 316.7,164.0 328.2,150.4 339.7,173.1 351.2,168.5 362.7,177.6 374.2,204.8 385.7,159.5 397.2,168.5 408.7,182.1 420.2,173.1 431.8,118.7 443.3,105.1 454.8,132.3 466.3,154.9 477.8,136.8 489.3,28.0 500.8,173.1 512.3,173.1 523.8,177.6 535.3,186.7 546.8,182.1 558.3,186.7 569.8,191.2 581.4,164.0 592.9,168.5 604.4,177.6 615.9,164.0 627.4,177.6 638.9,154.9 650.4,222.9 661.9,182.1 673.4,173.1 684.9,177.6 696.4,209.3 707.9,222.9 719.4,186.7 731.0,204.8 742.5,168.5 754.0,168.5 765.5,209.3 777.0,177.6 788.5,191.2 800.0,209.3"
            fill="none" stroke="#4e79a7"
            stroke-width="2" stroke-linejoin="round"/>
  <polyline points="52.0,232.0 63.5,232.0 75.0,232.0 86.5,232.0 98.0,232.0 109.5,232.0 121.0,232.0 132.6,232.0 144.1,232.0 155.6,232.0 167.1,232.0 178.6,232.0 190.1,232.0 201.6,200.3 213.1,123.2 224.6,182.1 236.1,195.7 247.6,182.1 259.1,159.5 270.6,168.5 282.2,182.1 293.7,195.7 305.2,182.1 316.7,177.6 328.2,164.0 339.7,186.7 351.2,182.1 362.7,191.2 374.2,204.8 385.7,191.2 397.2,182.1 408.7,195.7 420.2,200.3 431.8,173.1 443.3,159.5 454.8,177.6 466.3,182.1 477.8,177.6 489.3,177.6 500.8,186.7 512.3,186.7 523.8,191.2 535.3,200.3 546.8,195.7 558.3,200.3 569.8,191.2 581.4,177.6 592.9,182.1 604.4,191.2 615.9,177.6 627.4,191.2 638.9,173.1 650.4,222.9 661.9,195.7 673.4,200.3 684.9,191.2 696.4,209.3 707.9,222.9 719.4,200.3 731.0,209.3 742.5,182.1 754.0,186.7 765.5,209.3 777.0,191.2 788.5,209.3 800.0,209.3"
            fill="none" stroke="#f28e2b"
            stroke-width="2" stroke-linejoin="round"
            stroke-dasharray="5,3"/>

  <!-- dots -->
  <circle cx="52.0" cy="232.0" r="3" fill="#4e79a7"/><circle cx="63.5" cy="232.0" r="3" fill="#4e79a7"/><circle cx="75.0" cy="232.0" r="3" fill="#4e79a7"/><circle cx="86.5" cy="232.0" r="3" fill="#4e79a7"/><circle cx="98.0" cy="232.0" r="3" fill="#4e79a7"/><circle cx="109.5" cy="232.0" r="3" fill="#4e79a7"/><circle cx="121.0" cy="232.0" r="3" fill="#4e79a7"/><circle cx="132.6" cy="232.0" r="3" fill="#4e79a7"/><circle cx="144.1" cy="232.0" r="3" fill="#4e79a7"/><circle cx="155.6" cy="232.0" r="3" fill="#4e79a7"/><circle cx="167.1" cy="232.0" r="3" fill="#4e79a7"/><circle cx="178.6" cy="232.0" r="3" fill="#4e79a7"/><circle cx="190.1" cy="232.0" r="3" fill="#4e79a7"/><circle cx="201.6" cy="200.3" r="3" fill="#4e79a7"/><circle cx="213.1" cy="50.7" r="3" fill="#4e79a7"/><circle cx="224.6" cy="168.5" r="3" fill="#4e79a7"/><circle cx="236.1" cy="182.1" r="3" fill="#4e79a7"/><circle cx="247.6" cy="168.5" r="3" fill="#4e79a7"/><circle cx="259.1" cy="145.9" r="3" fill="#4e79a7"/><circle cx="270.6" cy="145.9" r="3" fill="#4e79a7"/><circle cx="282.2" cy="164.0" r="3" fill="#4e79a7"/><circle cx="293.7" cy="177.6" r="3" fill="#4e79a7"/><circle cx="305.2" cy="168.5" r="3" fill="#4e79a7"/><circle cx="316.7" cy="164.0" r="3" fill="#4e79a7"/><circle cx="328.2" cy="150.4" r="3" fill="#4e79a7"/><circle cx="339.7" cy="173.1" r="3" fill="#4e79a7"/><circle cx="351.2" cy="168.5" r="3" fill="#4e79a7"/><circle cx="362.7" cy="177.6" r="3" fill="#4e79a7"/><circle cx="374.2" cy="204.8" r="3" fill="#4e79a7"/><circle cx="385.7" cy="159.5" r="3" fill="#4e79a7"/><circle cx="397.2" cy="168.5" r="3" fill="#4e79a7"/><circle cx="408.7" cy="182.1" r="3" fill="#4e79a7"/><circle cx="420.2" cy="173.1" r="3" fill="#4e79a7"/><circle cx="431.8" cy="118.7" r="3" fill="#4e79a7"/><circle cx="443.3" cy="105.1" r="3" fill="#4e79a7"/><circle cx="454.8" cy="132.3" r="3" fill="#4e79a7"/><circle cx="466.3" cy="154.9" r="3" fill="#4e79a7"/><circle cx="477.8" cy="136.8" r="3" fill="#4e79a7"/><circle cx="489.3" cy="28.0" r="3" fill="#4e79a7"/><circle cx="500.8" cy="173.1" r="3" fill="#4e79a7"/><circle cx="512.3" cy="173.1" r="3" fill="#4e79a7"/><circle cx="523.8" cy="177.6" r="3" fill="#4e79a7"/><circle cx="535.3" cy="186.7" r="3" fill="#4e79a7"/><circle cx="546.8" cy="182.1" r="3" fill="#4e79a7"/><circle cx="558.3" cy="186.7" r="3" fill="#4e79a7"/><circle cx="569.8" cy="191.2" r="3" fill="#4e79a7"/><circle cx="581.4" cy="164.0" r="3" fill="#4e79a7"/><circle cx="592.9" cy="168.5" r="3" fill="#4e79a7"/><circle cx="604.4" cy="177.6" r="3" fill="#4e79a7"/><circle cx="615.9" cy="164.0" r="3" fill="#4e79a7"/><circle cx="627.4" cy="177.6" r="3" fill="#4e79a7"/><circle cx="638.9" cy="154.9" r="3" fill="#4e79a7"/><circle cx="650.4" cy="222.9" r="3" fill="#4e79a7"/><circle cx="661.9" cy="182.1" r="3" fill="#4e79a7"/><circle cx="673.4" cy="173.1" r="3" fill="#4e79a7"/><circle cx="684.9" cy="177.6" r="3" fill="#4e79a7"/><circle cx="696.4" cy="209.3" r="3" fill="#4e79a7"/><circle cx="707.9" cy="222.9" r="3" fill="#4e79a7"/><circle cx="719.4" cy="186.7" r="3" fill="#4e79a7"/><circle cx="731.0" cy="204.8" r="3" fill="#4e79a7"/><circle cx="742.5" cy="168.5" r="3" fill="#4e79a7"/><circle cx="754.0" cy="168.5" r="3" fill="#4e79a7"/><circle cx="765.5" cy="209.3" r="3" fill="#4e79a7"/><circle cx="777.0" cy="177.6" r="3" fill="#4e79a7"/><circle cx="788.5" cy="191.2" r="3" fill="#4e79a7"/><circle cx="800.0" cy="209.3" r="3" fill="#4e79a7"/>
  <circle cx="52.0" cy="232.0" r="3" fill="#f28e2b"/><circle cx="63.5" cy="232.0" r="3" fill="#f28e2b"/><circle cx="75.0" cy="232.0" r="3" fill="#f28e2b"/><circle cx="86.5" cy="232.0" r="3" fill="#f28e2b"/><circle cx="98.0" cy="232.0" r="3" fill="#f28e2b"/><circle cx="109.5" cy="232.0" r="3" fill="#f28e2b"/><circle cx="121.0" cy="232.0" r="3" fill="#f28e2b"/><circle cx="132.6" cy="232.0" r="3" fill="#f28e2b"/><circle cx="144.1" cy="232.0" r="3" fill="#f28e2b"/><circle cx="155.6" cy="232.0" r="3" fill="#f28e2b"/><circle cx="167.1" cy="232.0" r="3" fill="#f28e2b"/><circle cx="178.6" cy="232.0" r="3" fill="#f28e2b"/><circle cx="190.1" cy="232.0" r="3" fill="#f28e2b"/><circle cx="201.6" cy="200.3" r="3" fill="#f28e2b"/><circle cx="213.1" cy="123.2" r="3" fill="#f28e2b"/><circle cx="224.6" cy="182.1" r="3" fill="#f28e2b"/><circle cx="236.1" cy="195.7" r="3" fill="#f28e2b"/><circle cx="247.6" cy="182.1" r="3" fill="#f28e2b"/><circle cx="259.1" cy="159.5" r="3" fill="#f28e2b"/><circle cx="270.6" cy="168.5" r="3" fill="#f28e2b"/><circle cx="282.2" cy="182.1" r="3" fill="#f28e2b"/><circle cx="293.7" cy="195.7" r="3" fill="#f28e2b"/><circle cx="305.2" cy="182.1" r="3" fill="#f28e2b"/><circle cx="316.7" cy="177.6" r="3" fill="#f28e2b"/><circle cx="328.2" cy="164.0" r="3" fill="#f28e2b"/><circle cx="339.7" cy="186.7" r="3" fill="#f28e2b"/><circle cx="351.2" cy="182.1" r="3" fill="#f28e2b"/><circle cx="362.7" cy="191.2" r="3" fill="#f28e2b"/><circle cx="374.2" cy="204.8" r="3" fill="#f28e2b"/><circle cx="385.7" cy="191.2" r="3" fill="#f28e2b"/><circle cx="397.2" cy="182.1" r="3" fill="#f28e2b"/><circle cx="408.7" cy="195.7" r="3" fill="#f28e2b"/><circle cx="420.2" cy="200.3" r="3" fill="#f28e2b"/><circle cx="431.8" cy="173.1" r="3" fill="#f28e2b"/><circle cx="443.3" cy="159.5" r="3" fill="#f28e2b"/><circle cx="454.8" cy="177.6" r="3" fill="#f28e2b"/><circle cx="466.3" cy="182.1" r="3" fill="#f28e2b"/><circle cx="477.8" cy="177.6" r="3" fill="#f28e2b"/><circle cx="489.3" cy="177.6" r="3" fill="#f28e2b"/><circle cx="500.8" cy="186.7" r="3" fill="#f28e2b"/><circle cx="512.3" cy="186.7" r="3" fill="#f28e2b"/><circle cx="523.8" cy="191.2" r="3" fill="#f28e2b"/><circle cx="535.3" cy="200.3" r="3" fill="#f28e2b"/><circle cx="546.8" cy="195.7" r="3" fill="#f28e2b"/><circle cx="558.3" cy="200.3" r="3" fill="#f28e2b"/><circle cx="569.8" cy="191.2" r="3" fill="#f28e2b"/><circle cx="581.4" cy="177.6" r="3" fill="#f28e2b"/><circle cx="592.9" cy="182.1" r="3" fill="#f28e2b"/><circle cx="604.4" cy="191.2" r="3" fill="#f28e2b"/><circle cx="615.9" cy="177.6" r="3" fill="#f28e2b"/><circle cx="627.4" cy="191.2" r="3" fill="#f28e2b"/><circle cx="638.9" cy="173.1" r="3" fill="#f28e2b"/><circle cx="650.4" cy="222.9" r="3" fill="#f28e2b"/><circle cx="661.9" cy="195.7" r="3" fill="#f28e2b"/><circle cx="673.4" cy="200.3" r="3" fill="#f28e2b"/><circle cx="684.9" cy="191.2" r="3" fill="#f28e2b"/><circle cx="696.4" cy="209.3" r="3" fill="#f28e2b"/><circle cx="707.9" cy="222.9" r="3" fill="#f28e2b"/><circle cx="719.4" cy="200.3" r="3" fill="#f28e2b"/><circle cx="731.0" cy="209.3" r="3" fill="#f28e2b"/><circle cx="742.5" cy="182.1" r="3" fill="#f28e2b"/><circle cx="754.0" cy="186.7" r="3" fill="#f28e2b"/><circle cx="765.5" cy="209.3" r="3" fill="#f28e2b"/><circle cx="777.0" cy="191.2" r="3" fill="#f28e2b"/><circle cx="788.5" cy="209.3" r="3" fill="#f28e2b"/><circle cx="800.0" cy="209.3" r="3" fill="#f28e2b"/>

  <!-- axes -->
  <line x1="52" y1="28" x2="52" y2="232"
        stroke="#cccccc" stroke-width="1"/>
  <line x1="52" y1="232" x2="800" y2="232"
        stroke="#cccccc" stroke-width="1"/>

  <!-- y-axis labels -->
  <text x="47" y="236.0" text-anchor="end" font-size="10" fill="#57606a" font-family="ui-monospace, SFMono-Regular, 'SF Mono', Menlo, monospace">0</text><text x="47" y="195.2" text-anchor="end" font-size="10" fill="#57606a" font-family="ui-monospace, SFMono-Regular, 'SF Mono', Menlo, monospace">9</text><text x="47" y="154.4" text-anchor="end" font-size="10" fill="#57606a" font-family="ui-monospace, SFMono-Regular, 'SF Mono', Menlo, monospace">18</text><text x="47" y="113.6" text-anchor="end" font-size="10" fill="#57606a" font-family="ui-monospace, SFMono-Regular, 'SF Mono', Menlo, monospace">27</text><text x="47" y="72.8" text-anchor="end" font-size="10" fill="#57606a" font-family="ui-monospace, SFMono-Regular, 'SF Mono', Menlo, monospace">36</text><text x="47" y="32.0" text-anchor="end" font-size="10" fill="#57606a" font-family="ui-monospace, SFMono-Regular, 'SF Mono', Menlo, monospace">45</text>

  <!-- x-axis labels -->
  <text x="52.0" y="248" text-anchor="middle" font-size="10" fill="#8c959f" font-family="ui-monospace, SFMono-Regular, 'SF Mono', Menlo, monospace">05-12</text><text x="420.2" y="248" text-anchor="middle" font-size="10" fill="#8c959f" font-family="ui-monospace, SFMono-Regular, 'SF Mono', Menlo, monospace">06-13</text><text x="788.5" y="248" text-anchor="middle" font-size="10" fill="#8c959f" font-family="ui-monospace, SFMono-Regular, 'SF Mono', Menlo, monospace">07-15</text><text x="800.0" y="248" text-anchor="middle" font-size="10" fill="#8c959f" font-family="ui-monospace, SFMono-Regular, 'SF Mono', Menlo, monospace">07-16</text><text x="144.1" y="248" text-anchor="middle" font-size="10" fill="#8c959f" font-family="ui-monospace, SFMono-Regular, 'SF Mono', Menlo, monospace">05-20</text><text x="512.3" y="248" text-anchor="middle" font-size="10" fill="#8c959f" font-family="ui-monospace, SFMono-Regular, 'SF Mono', Menlo, monospace">06-21</text><text x="236.1" y="248" text-anchor="middle" font-size="10" fill="#8c959f" font-family="ui-monospace, SFMono-Regular, 'SF Mono', Menlo, monospace">05-28</text><text x="604.4" y="248" text-anchor="middle" font-size="10" fill="#8c959f" font-family="ui-monospace, SFMono-Regular, 'SF Mono', Menlo, monospace">06-29</text><text x="328.2" y="248" text-anchor="middle" font-size="10" fill="#8c959f" font-family="ui-monospace, SFMono-Regular, 'SF Mono', Menlo, monospace">06-05</text><text x="696.4" y="248" text-anchor="middle" font-size="10" fill="#8c959f" font-family="ui-monospace, SFMono-Regular, 'SF Mono', Menlo, monospace">07-07</text>

  <!-- legend -->
  <rect x="60" y="262" width="16" height="3" fill="#4e79a7" rx="1"/><text x="80" y="268" font-size="11" fill="#57606a" font-family="-apple-system, BlinkMacSystemFont, 'Segoe UI', sans-serif">Total clones (738)</text><line x1="230" y1="264" x2="246" y2="264" stroke="#f28e2b" stroke-width="2" stroke-dasharray="5,3"/><text x="250" y="268" font-size="11" fill="#57606a" font-family="-apple-system, BlinkMacSystemFont, 'Segoe UI', sans-serif">Unique cloners</text>

</svg>