<svg xmlns="http://www.w3.org/2000/svg" viewBox="0 0 820 280" width="820" height="280">

  <!-- title -->
  <text x="52" y="18" font-size="13" font-weight="600"
        fill="#24292f" font-family="-apple-system, BlinkMacSystemFont, 'Segoe UI', sans-serif"
        >Clone traffic — stats</text>
  <text x="800" y="18" font-size="10" fill="#8c959f"
        font-family="ui-monospace, SFMono-Regular, 'SF Mono', Menlo, monospace" text-anchor="end">2026-06-20</text>

  <!-- grid -->
  <line x1="52" y1="232.0" x2="800" y2="232.0" stroke="#e8e8e8" stroke-width="1"/><line x1="52" y1="191.2" x2="800" y2="191.2" stroke="#e8e8e8" stroke-width="1"/><line x1="52" y1="150.4" x2="800" y2="150.4" stroke="#e8e8e8" stroke-width="1"/><line x1="52" y1="109.6" x2="800" y2="109.6" stroke="#e8e8e8" stroke-width="1"/><line x1="52" y1="68.8" x2="800" y2="68.8" stroke="#e8e8e8" stroke-width="1"/><line x1="52" y1="28.0" x2="800" y2="28.0" stroke="#e8e8e8" stroke-width="1"/>

  <!-- area fill -->
  <path d="M52.0,232.0 L52.0,232.0 L72.2,232.0 L92.4,232.0 L112.6,232.0 L132.9,232.0 L153.1,232.0 L173.3,232.0 L193.5,232.0 L213.7,232.0 L233.9,232.0 L254.2,232.0 L274.4,232.0 L294.6,232.0 L314.8,196.3 L335.0,28.0 L355.2,160.6 L375.5,175.9 L395.7,160.6 L415.9,135.1 L436.1,135.1 L456.3,155.5 L476.5,170.8 L496.8,160.6 L517.0,155.5 L537.2,140.2 L557.4,165.7 L577.6,160.6 L597.8,170.8 L618.1,201.4 L638.3,150.4 L658.5,160.6 L678.7,175.9 L698.9,165.7 L719.1,104.5 L739.4,89.2 L759.6,119.8 L779.8,145.3 L800.0,124.9 L800.0,232.0 L52.0,232.0Z" fill="#4e79a7" opacity="0.12"/>

  <!-- lines -->
  <polyline points="52.0,232.0 72.2,232.0 92.4,232.0 112.6,232.0 132.9,232.0 153.1,232.0 173.3,232.0 193.5,232.0 213.7,232.0 233.9,232.0 254.2,232.0 274.4,232.0 294.6,232.0 314.8,196.3 335.0,28.0 355.2,160.6 375.5,175.9 395.7,160.6 415.9,135.1 436.1,135.1 456.3,155.5 476.5,170.8 496.8,160.6 517.0,155.5 537.2,140.2 557.4,165.7 577.6,160.6 597.8,170.8 618.1,201.4 638.3,150.4 658.5,160.6 678.7,175.9 698.9,165.7 719.1,104.5 739.4,89.2 759.6,119.8 779.8,145.3 800.0,124.9"
            fill="none" stroke="#4e79a7"
            stroke-width="2" stroke-linejoin="round"/>
  <polyline points="52.0,232.0 72.2,232.0 92.4,232.0 112.6,232.0 132.9,232.0 153.1,232.0 173.3,232.0 193.5,232.0 213.7,232.0 233.9,232.0 254.2,232.0 274.4,232.0 294.6,232.0 314.8,196.3 335.0,109.6 355.2,175.9 375.5,191.2 395.7,175.9 415.9,150.4 436.1,160.6 456.3,175.9 476.5,191.2 496.8,175.9 517.0,170.8 537.2,155.5 557.4,181.0 577.6,175.9 597.8,186.1 618.1,201.4 638.3,186.1 658.5,175.9 678.7,191.2 698.9,196.3 719.1,165.7 739.4,150.4 759.6,170.8 779.8,175.9 800.0,170.8"
            fill="none" stroke="#f28e2b"
            stroke-width="2" stroke-linejoin="round"
            stroke-dasharray="5,3"/>

  <!-- dots -->
  <circle cx="52.0" cy="232.0" r="3" fill="#4e79a7"/><circle cx="72.2" cy="232.0" r="3" fill="#4e79a7"/><circle cx="92.4" cy="232.0" r="3" fill="#4e79a7"/><circle cx="112.6" cy="232.0" r="3" fill="#4e79a7"/><circle cx="132.9" cy="232.0" r="3" fill="#4e79a7"/><circle cx="153.1" cy="232.0" r="3" fill="#4e79a7"/><circle cx="173.3" cy="232.0" r="3" fill="#4e79a7"/><circle cx="193.5" cy="232.0" r="3" fill="#4e79a7"/><circle cx="213.7" cy="232.0" r="3" fill="#4e79a7"/><circle cx="233.9" cy="232.0" r="3" fill="#4e79a7"/><circle cx="254.2" cy="232.0" r="3" fill="#4e79a7"/><circle cx="274.4" cy="232.0" r="3" fill="#4e79a7"/><circle cx="294.6" cy="232.0" r="3" fill="#4e79a7"/><circle cx="314.8" cy="196.3" r="3" fill="#4e79a7"/><circle cx="335.0" cy="28.0" r="3" fill="#4e79a7"/><circle cx="355.2" cy="160.6" r="3" fill="#4e79a7"/><circle cx="375.5" cy="175.9" r="3" fill="#4e79a7"/><circle cx="395.7" cy="160.6" r="3" fill="#4e79a7"/><circle cx="415.9" cy="135.1" r="3" fill="#4e79a7"/><circle cx="436.1" cy="135.1" r="3" fill="#4e79a7"/><circle cx="456.3" cy="155.5" r="3" fill="#4e79a7"/><circle cx="476.5" cy="170.8" r="3" fill="#4e79a7"/><circle cx="496.8" cy="160.6" r="3" fill="#4e79a7"/><circle cx="517.0" cy="155.5" r="3" fill="#4e79a7"/><circle cx="537.2" cy="140.2" r="3" fill="#4e79a7"/><circle cx="557.4" cy="165.7" r="3" fill="#4e79a7"/><circle cx="577.6" cy="160.6" r="3" fill="#4e79a7"/><circle cx="597.8" cy="170.8" r="3" fill="#4e79a7"/><circle cx="618.1" cy="201.4" r="3" fill="#4e79a7"/><circle cx="638.3" cy="150.4" r="3" fill="#4e79a7"/><circle cx="658.5" cy="160.6" r="3" fill="#4e79a7"/><circle cx="678.7" cy="175.9" r="3" fill="#4e79a7"/><circle cx="698.9" cy="165.7" r="3" fill="#4e79a7"/><circle cx="719.1" cy="104.5" r="3" fill="#4e79a7"/><circle cx="739.4" cy="89.2" r="3" fill="#4e79a7"/><circle cx="759.6" cy="119.8" r="3" fill="#4e79a7"/><circle cx="779.8" cy="145.3" r="3" fill="#4e79a7"/><circle cx="800.0" cy="124.9" r="3" fill="#4e79a7"/>
  <circle cx="52.0" cy="232.0" r="3" fill="#f28e2b"/><circle cx="72.2" cy="232.0" r="3" fill="#f28e2b"/><circle cx="92.4" cy="232.0" r="3" fill="#f28e2b"/><circle cx="112.6" cy="232.0" r="3" fill="#f28e2b"/><circle cx="132.9" cy="232.0" r="3" fill="#f28e2b"/><circle cx="153.1" cy="232.0" r="3" fill="#f28e2b"/><circle cx="173.3" cy="232.0" r="3" fill="#f28e2b"/><circle cx="193.5" cy="232.0" r="3" fill="#f28e2b"/><circle cx="213.7" cy="232.0" r="3" fill="#f28e2b"/><circle cx="233.9" cy="232.0" r="3" fill="#f28e2b"/><circle cx="254.2" cy="232.0" r="3" fill="#f28e2b"/><circle cx="274.4" cy="232.0" r="3" fill="#f28e2b"/><circle cx="294.6" cy="232.0" r="3" fill="#f28e2b"/><circle cx="314.8" cy="196.3" r="3" fill="#f28e2b"/><circle cx="335.0" cy="109.6" r="3" fill="#f28e2b"/><circle cx="355.2" cy="175.9" r="3" fill="#f28e2b"/><circle cx="375.5" cy="191.2" r="3" fill="#f28e2b"/><circle cx="395.7" cy="175.9" r="3" fill="#f28e2b"/><circle cx="415.9" cy="150.4" r="3" fill="#f28e2b"/><circle cx="436.1" cy="160.6" r="3" fill="#f28e2b"/><circle cx="456.3" cy="175.9" r="3" fill="#f28e2b"/><circle cx="476.5" cy="191.2" r="3" fill="#f28e2b"/><circle cx="496.8" cy="175.9" r="3" fill="#f28e2b"/><circle cx="517.0" cy="170.8" r="3" fill="#f28e2b"/><circle cx="537.2" cy="155.5" r="3" fill="#f28e2b"/><circle cx="557.4" cy="181.0" r="3" fill="#f28e2b"/><circle cx="577.6" cy="175.9" r="3" fill="#f28e2b"/><circle cx="597.8" cy="186.1" r="3" fill="#f28e2b"/><circle cx="618.1" cy="201.4" r="3" fill="#f28e2b"/><circle cx="638.3" cy="186.1" r="3" fill="#f28e2b"/><circle cx="658.5" cy="175.9" r="3" fill="#f28e2b"/><circle cx="678.7" cy="191.2" r="3" fill="#f28e2b"/><circle cx="698.9" cy="196.3" r="3" fill="#f28e2b"/><circle cx="719.1" cy="165.7" r="3" fill="#f28e2b"/><circle cx="739.4" cy="150.4" r="3" fill="#f28e2b"/><circle cx="759.6" cy="170.8" r="3" fill="#f28e2b"/><circle cx="779.8" cy="175.9" r="3" fill="#f28e2b"/><circle cx="800.0" cy="170.8" r="3" fill="#f28e2b"/>

  <!-- axes -->
  <line x1="52" y1="28" x2="52" y2="232"
        stroke="#cccccc" stroke-width="1"/>
  <line x1="52" y1="232" x2="800" y2="232"
        stroke="#cccccc" stroke-width="1"/>

  <!-- y-axis labels -->
  <text x="47" y="236.0" text-anchor="end" font-size="10" fill="#57606a" font-family="ui-monospace, SFMono-Regular, 'SF Mono', Menlo, monospace">0</text><text x="47" y="195.2" text-anchor="end" font-size="10" fill="#57606a" font-family="ui-monospace, SFMono-Regular, 'SF Mono', Menlo, monospace">8</text><text x="47" y="154.4" text-anchor="end" font-size="10" fill="#57606a" font-family="ui-monospace, SFMono-Regular, 'SF Mono', Menlo, monospace">16</text><text x="47" y="113.6" text-anchor="end" font-size="10" fill="#57606a" font-family="ui-monospace, SFMono-Regular, 'SF Mono', Menlo, monospace">24</text><text x="47" y="72.8" text-anchor="end" font-size="10" fill="#57606a" font-family="ui-monospace, SFMono-Regular, 'SF Mono', Menlo, monospace">32</text><text x="47" y="32.0" text-anchor="end" font-size="10" fill="#57606a" font-family="ui-monospace, SFMono-Regular, 'SF Mono', Menlo, monospace">40</text>

  <!-- x-axis labels -->
  <text x="52.0" y="248" text-anchor="middle" font-size="10" fill="#8c959f" font-family="ui-monospace, SFMono-Regular, 'SF Mono', Menlo, monospace">05-12</text><text x="698.9" y="248" text-anchor="middle" font-size="10" fill="#8c959f" font-family="ui-monospace, SFMono-Regular, 'SF Mono', Menlo, monospace">06-13</text><text x="132.9" y="248" text-anchor="middle" font-size="10" fill="#8c959f" font-family="ui-monospace, SFMono-Regular, 'SF Mono', Menlo, monospace">05-16</text><text x="779.8" y="248" text-anchor="middle" font-size="10" fill="#8c959f" font-family="ui-monospace, SFMono-Regular, 'SF Mono', Menlo, monospace">06-17</text><text x="800.0" y="248" text-anchor="middle" font-size="10" fill="#8c959f" font-family="ui-monospace, SFMono-Regular, 'SF Mono', Menlo, monospace">06-18</text><text x="213.7" y="248" text-anchor="middle" font-size="10" fill="#8c959f" font-family="ui-monospace, SFMono-Regular, 'SF Mono', Menlo, monospace">05-20</text><text x="294.6" y="248" text-anchor="middle" font-size="10" fill="#8c959f" font-family="ui-monospace, SFMono-Regular, 'SF Mono', Menlo, monospace">05-24</text><text x="375.5" y="248" text-anchor="middle" font-size="10" fill="#8c959f" font-family="ui-monospace, SFMono-Regular, 'SF Mono', Menlo, monospace">05-28</text><text x="456.3" y="248" text-anchor="middle" font-size="10" fill="#8c959f" font-family="ui-monospace, SFMono-Regular, 'SF Mono', Menlo, monospace">06-01</text><text x="537.2" y="248" text-anchor="middle" font-size="10" fill="#8c959f" font-family="ui-monospace, SFMono-Regular, 'SF Mono', Menlo, monospace">06-05</text><text x="618.1" y="248" text-anchor="middle" font-size="10" fill="#8c959f" font-family="ui-monospace, SFMono-Regular, 'SF Mono', Menlo, monospace">06-09</text>

  <!-- legend -->
  <rect x="60" y="262" width="16" height="3" fill="#4e79a7" rx="1"/><text x="80" y="268" font-size="11" fill="#57606a" font-family="-apple-system, BlinkMacSystemFont, 'Segoe UI', sans-serif">Total clones (410)</text><line x1="230" y1="264" x2="246" y2="264" stroke="#f28e2b" stroke-width="2" stroke-dasharray="5,3"/><text x="250" y="268" font-size="11" fill="#57606a" font-family="-apple-system, BlinkMacSystemFont, 'Segoe UI', sans-serif">Unique cloners</text>

</svg>