<svg xmlns="http://www.w3.org/2000/svg" viewBox="0 0 820 280" width="820" height="280">

  <!-- title -->
  <text x="52" y="18" font-size="13" font-weight="600"
        fill="#24292f" font-family="-apple-system, BlinkMacSystemFont, 'Segoe UI', sans-serif"
        >Clone traffic — stats</text>
  <text x="800" y="18" font-size="10" fill="#8c959f"
        font-family="ui-monospace, SFMono-Regular, 'SF Mono', Menlo, monospace" text-anchor="end">2026-06-27</text>

  <!-- grid -->
  <line x1="52" y1="232.0" x2="800" y2="232.0" stroke="#e8e8e8" stroke-width="1"/><line x1="52" y1="191.2" x2="800" y2="191.2" stroke="#e8e8e8" stroke-width="1"/><line x1="52" y1="150.4" x2="800" y2="150.4" stroke="#e8e8e8" stroke-width="1"/><line x1="52" y1="109.6" x2="800" y2="109.6" stroke="#e8e8e8" stroke-width="1"/><line x1="52" y1="68.8" x2="800" y2="68.8" stroke="#e8e8e8" stroke-width="1"/><line x1="52" y1="28.0" x2="800" y2="28.0" stroke="#e8e8e8" stroke-width="1"/>

  <!-- area fill -->
  <path d="M52.0,232.0 L52.0,232.0 L69.0,232.0 L86.0,232.0 L103.0,232.0 L120.0,232.0 L137.0,232.0 L154.0,232.0 L171.0,232.0 L188.0,232.0 L205.0,232.0 L222.0,232.0 L239.0,232.0 L256.0,232.0 L273.0,200.3 L290.0,50.7 L307.0,168.5 L324.0,182.1 L341.0,168.5 L358.0,145.9 L375.0,145.9 L392.0,164.0 L409.0,177.6 L426.0,168.5 L443.0,164.0 L460.0,150.4 L477.0,173.1 L494.0,168.5 L511.0,177.6 L528.0,204.8 L545.0,159.5 L562.0,168.5 L579.0,182.1 L596.0,173.1 L613.0,118.7 L630.0,105.1 L647.0,132.3 L664.0,154.9 L681.0,136.8 L698.0,28.0 L715.0,173.1 L732.0,173.1 L749.0,177.6 L766.0,186.7 L783.0,182.1 L800.0,186.7 L800.0,232.0 L52.0,232.0Z" fill="#4e79a7" opacity="0.12"/>

  <!-- lines -->
  <polyline points="52.0,232.0 69.0,232.0 86.0,232.0 103.0,232.0 120.0,232.0 137.0,232.0 154.0,232.0 171.0,232.0 188.0,232.0 205.0,232.0 222.0,232.0 239.0,232.0 256.0,232.0 273.0,200.3 290.0,50.7 307.0,168.5 324.0,182.1 341.0,168.5 358.0,145.9 375.0,145.9 392.0,164.0 409.0,177.6 426.0,168.5 443.0,164.0 460.0,150.4 477.0,173.1 494.0,168.5 511.0,177.6 528.0,204.8 545.0,159.5 562.0,168.5 579.0,182.1 596.0,173.1 613.0,118.7 630.0,105.1 647.0,132.3 664.0,154.9 681.0,136.8 698.0,28.0 715.0,173.1 732.0,173.1 749.0,177.6 766.0,186.7 783.0,182.1 800.0,186.7"
            fill="none" stroke="#4e79a7"
            stroke-width="2" stroke-linejoin="round"/>
  <polyline points="52.0,232.0 69.0,232.0 86.0,232.0 103.0,232.0 120.0,232.0 137.0,232.0 154.0,232.0 171.0,232.0 188.0,232.0 205.0,232.0 222.0,232.0 239.0,232.0 256.0,232.0 273.0,200.3 290.0,123.2 307.0,182.1 324.0,195.7 341.0,182.1 358.0,159.5 375.0,168.5 392.0,182.1 409.0,195.7 426.0,182.1 443.0,177.6 460.0,164.0 477.0,186.7 494.0,182.1 511.0,191.2 528.0,204.8 545.0,191.2 562.0,182.1 579.0,195.7 596.0,200.3 613.0,173.1 630.0,159.5 647.0,177.6 664.0,182.1 681.0,177.6 698.0,177.6 715.0,186.7 732.0,186.7 749.0,191.2 766.0,200.3 783.0,195.7 800.0,200.3"
            fill="none" stroke="#f28e2b"
            stroke-width="2" stroke-linejoin="round"
            stroke-dasharray="5,3"/>

  <!-- dots -->
  <circle cx="52.0" cy="232.0" r="3" fill="#4e79a7"/><circle cx="69.0" cy="232.0" r="3" fill="#4e79a7"/><circle cx="86.0" cy="232.0" r="3" fill="#4e79a7"/><circle cx="103.0" cy="232.0" r="3" fill="#4e79a7"/><circle cx="120.0" cy="232.0" r="3" fill="#4e79a7"/><circle cx="137.0" cy="232.0" r="3" fill="#4e79a7"/><circle cx="154.0" cy="232.0" r="3" fill="#4e79a7"/><circle cx="171.0" cy="232.0" r="3" fill="#4e79a7"/><circle cx="188.0" cy="232.0" r="3" fill="#4e79a7"/><circle cx="205.0" cy="232.0" r="3" fill="#4e79a7"/><circle cx="222.0" cy="232.0" r="3" fill="#4e79a7"/><circle cx="239.0" cy="232.0" r="3" fill="#4e79a7"/><circle cx="256.0" cy="232.0" r="3" fill="#4e79a7"/><circle cx="273.0" cy="200.3" r="3" fill="#4e79a7"/><circle cx="290.0" cy="50.7" r="3" fill="#4e79a7"/><circle cx="307.0" cy="168.5" r="3" fill="#4e79a7"/><circle cx="324.0" cy="182.1" r="3" fill="#4e79a7"/><circle cx="341.0" cy="168.5" r="3" fill="#4e79a7"/><circle cx="358.0" cy="145.9" r="3" fill="#4e79a7"/><circle cx="375.0" cy="145.9" r="3" fill="#4e79a7"/><circle cx="392.0" cy="164.0" r="3" fill="#4e79a7"/><circle cx="409.0" cy="177.6" r="3" fill="#4e79a7"/><circle cx="426.0" cy="168.5" r="3" fill="#4e79a7"/><circle cx="443.0" cy="164.0" r="3" fill="#4e79a7"/><circle cx="460.0" cy="150.4" r="3" fill="#4e79a7"/><circle cx="477.0" cy="173.1" r="3" fill="#4e79a7"/><circle cx="494.0" cy="168.5" r="3" fill="#4e79a7"/><circle cx="511.0" cy="177.6" r="3" fill="#4e79a7"/><circle cx="528.0" cy="204.8" r="3" fill="#4e79a7"/><circle cx="545.0" cy="159.5" r="3" fill="#4e79a7"/><circle cx="562.0" cy="168.5" r="3" fill="#4e79a7"/><circle cx="579.0" cy="182.1" r="3" fill="#4e79a7"/><circle cx="596.0" cy="173.1" r="3" fill="#4e79a7"/><circle cx="613.0" cy="118.7" r="3" fill="#4e79a7"/><circle cx="630.0" cy="105.1" r="3" fill="#4e79a7"/><circle cx="647.0" cy="132.3" r="3" fill="#4e79a7"/><circle cx="664.0" cy="154.9" r="3" fill="#4e79a7"/><circle cx="681.0" cy="136.8" r="3" fill="#4e79a7"/><circle cx="698.0" cy="28.0" r="3" fill="#4e79a7"/><circle cx="715.0" cy="173.1" r="3" fill="#4e79a7"/><circle cx="732.0" cy="173.1" r="3" fill="#4e79a7"/><circle cx="749.0" cy="177.6" r="3" fill="#4e79a7"/><circle cx="766.0" cy="186.7" r="3" fill="#4e79a7"/><circle cx="783.0" cy="182.1" r="3" fill="#4e79a7"/><circle cx="800.0" cy="186.7" r="3" fill="#4e79a7"/>
  <circle cx="52.0" cy="232.0" r="3" fill="#f28e2b"/><circle cx="69.0" cy="232.0" r="3" fill="#f28e2b"/><circle cx="86.0" cy="232.0" r="3" fill="#f28e2b"/><circle cx="103.0" cy="232.0" r="3" fill="#f28e2b"/><circle cx="120.0" cy="232.0" r="3" fill="#f28e2b"/><circle cx="137.0" cy="232.0" r="3" fill="#f28e2b"/><circle cx="154.0" cy="232.0" r="3" fill="#f28e2b"/><circle cx="171.0" cy="232.0" r="3" fill="#f28e2b"/><circle cx="188.0" cy="232.0" r="3" fill="#f28e2b"/><circle cx="205.0" cy="232.0" r="3" fill="#f28e2b"/><circle cx="222.0" cy="232.0" r="3" fill="#f28e2b"/><circle cx="239.0" cy="232.0" r="3" fill="#f28e2b"/><circle cx="256.0" cy="232.0" r="3" fill="#f28e2b"/><circle cx="273.0" cy="200.3" r="3" fill="#f28e2b"/><circle cx="290.0" cy="123.2" r="3" fill="#f28e2b"/><circle cx="307.0" cy="182.1" r="3" fill="#f28e2b"/><circle cx="324.0" cy="195.7" r="3" fill="#f28e2b"/><circle cx="341.0" cy="182.1" r="3" fill="#f28e2b"/><circle cx="358.0" cy="159.5" r="3" fill="#f28e2b"/><circle cx="375.0" cy="168.5" r="3" fill="#f28e2b"/><circle cx="392.0" cy="182.1" r="3" fill="#f28e2b"/><circle cx="409.0" cy="195.7" r="3" fill="#f28e2b"/><circle cx="426.0" cy="182.1" r="3" fill="#f28e2b"/><circle cx="443.0" cy="177.6" r="3" fill="#f28e2b"/><circle cx="460.0" cy="164.0" r="3" fill="#f28e2b"/><circle cx="477.0" cy="186.7" r="3" fill="#f28e2b"/><circle cx="494.0" cy="182.1" r="3" fill="#f28e2b"/><circle cx="511.0" cy="191.2" r="3" fill="#f28e2b"/><circle cx="528.0" cy="204.8" r="3" fill="#f28e2b"/><circle cx="545.0" cy="191.2" r="3" fill="#f28e2b"/><circle cx="562.0" cy="182.1" r="3" fill="#f28e2b"/><circle cx="579.0" cy="195.7" r="3" fill="#f28e2b"/><circle cx="596.0" cy="200.3" r="3" fill="#f28e2b"/><circle cx="613.0" cy="173.1" r="3" fill="#f28e2b"/><circle cx="630.0" cy="159.5" r="3" fill="#f28e2b"/><circle cx="647.0" cy="177.6" r="3" fill="#f28e2b"/><circle cx="664.0" cy="182.1" r="3" fill="#f28e2b"/><circle cx="681.0" cy="177.6" r="3" fill="#f28e2b"/><circle cx="698.0" cy="177.6" r="3" fill="#f28e2b"/><circle cx="715.0" cy="186.7" r="3" fill="#f28e2b"/><circle cx="732.0" cy="186.7" r="3" fill="#f28e2b"/><circle cx="749.0" cy="191.2" r="3" fill="#f28e2b"/><circle cx="766.0" cy="200.3" r="3" fill="#f28e2b"/><circle cx="783.0" cy="195.7" r="3" fill="#f28e2b"/><circle cx="800.0" cy="200.3" r="3" fill="#f28e2b"/>

  <!-- axes -->
  <line x1="52" y1="28" x2="52" y2="232"
        stroke="#cccccc" stroke-width="1"/>
  <line x1="52" y1="232" x2="800" y2="232"
        stroke="#cccccc" stroke-width="1"/>

  <!-- y-axis labels -->
  <text x="47" y="236.0" text-anchor="end" font-size="10" fill="#57606a" font-family="ui-monospace, SFMono-Regular, 'SF Mono', Menlo, monospace">0</text><text x="47" y="195.2" text-anchor="end" font-size="10" fill="#57606a" font-family="ui-monospace, SFMono-Regular, 'SF Mono', Menlo, monospace">9</text><text x="47" y="154.4" text-anchor="end" font-size="10" fill="#57606a" font-family="ui-monospace, SFMono-Regular, 'SF Mono', Menlo, monospace">18</text><text x="47" y="113.6" text-anchor="end" font-size="10" fill="#57606a" font-family="ui-monospace, SFMono-Regular, 'SF Mono', Menlo, monospace">27</text><text x="47" y="72.8" text-anchor="end" font-size="10" fill="#57606a" font-family="ui-monospace, SFMono-Regular, 'SF Mono', Menlo, monospace">36</text><text x="47" y="32.0" text-anchor="end" font-size="10" fill="#57606a" font-family="ui-monospace, SFMono-Regular, 'SF Mono', Menlo, monospace">45</text>

  <!-- x-axis labels -->
  <text x="52.0" y="248" text-anchor="middle" font-size="10" fill="#8c959f" font-family="ui-monospace, SFMono-Regular, 'SF Mono', Menlo, monospace">05-12</text><text x="647.0" y="248" text-anchor="middle" font-size="10" fill="#8c959f" font-family="ui-monospace, SFMono-Regular, 'SF Mono', Menlo, monospace">06-16</text><text x="137.0" y="248" text-anchor="middle" font-size="10" fill="#8c959f" font-family="ui-monospace, SFMono-Regular, 'SF Mono', Menlo, monospace">05-17</text><text x="732.0" y="248" text-anchor="middle" font-size="10" fill="#8c959f" font-family="ui-monospace, SFMono-Regular, 'SF Mono', Menlo, monospace">06-21</text><text x="222.0" y="248" text-anchor="middle" font-size="10" fill="#8c959f" font-family="ui-monospace, SFMono-Regular, 'SF Mono', Menlo, monospace">05-22</text><text x="800.0" y="248" text-anchor="middle" font-size="10" fill="#8c959f" font-family="ui-monospace, SFMono-Regular, 'SF Mono', Menlo, monospace">06-25</text><text x="307.0" y="248" text-anchor="middle" font-size="10" fill="#8c959f" font-family="ui-monospace, SFMono-Regular, 'SF Mono', Menlo, monospace">05-27</text><text x="392.0" y="248" text-anchor="middle" font-size="10" fill="#8c959f" font-family="ui-monospace, SFMono-Regular, 'SF Mono', Menlo, monospace">06-01</text><text x="477.0" y="248" text-anchor="middle" font-size="10" fill="#8c959f" font-family="ui-monospace, SFMono-Regular, 'SF Mono', Menlo, monospace">06-06</text><text x="562.0" y="248" text-anchor="middle" font-size="10" fill="#8c959f" font-family="ui-monospace, SFMono-Regular, 'SF Mono', Menlo, monospace">06-11</text>

  <!-- legend -->
  <rect x="60" y="262" width="16" height="3" fill="#4e79a7" rx="1"/><text x="80" y="268" font-size="11" fill="#57606a" font-family="-apple-system, BlinkMacSystemFont, 'Segoe UI', sans-serif">Total clones (524)</text><line x1="230" y1="264" x2="246" y2="264" stroke="#f28e2b" stroke-width="2" stroke-dasharray="5,3"/><text x="250" y="268" font-size="11" fill="#57606a" font-family="-apple-system, BlinkMacSystemFont, 'Segoe UI', sans-serif">Unique cloners</text>

</svg>