<svg xmlns="http://www.w3.org/2000/svg" viewBox="0 0 820 280" width="820" height="280">

  <!-- title -->
  <text x="52" y="18" font-size="13" font-weight="600"
        fill="#24292f" font-family="-apple-system, BlinkMacSystemFont, 'Segoe UI', sans-serif"
        >Clone traffic — stats</text>
  <text x="800" y="18" font-size="10" fill="#8c959f"
        font-family="ui-monospace, SFMono-Regular, 'SF Mono', Menlo, monospace" text-anchor="end">2026-06-10</text>

  <!-- grid -->
  <line x1="52" y1="232.0" x2="800" y2="232.0" stroke="#e8e8e8" stroke-width="1"/><line x1="52" y1="191.2" x2="800" y2="191.2" stroke="#e8e8e8" stroke-width="1"/><line x1="52" y1="150.4" x2="800" y2="150.4" stroke="#e8e8e8" stroke-width="1"/><line x1="52" y1="109.6" x2="800" y2="109.6" stroke="#e8e8e8" stroke-width="1"/><line x1="52" y1="68.8" x2="800" y2="68.8" stroke="#e8e8e8" stroke-width="1"/><line x1="52" y1="28.0" x2="800" y2="28.0" stroke="#e8e8e8" stroke-width="1"/>

  <!-- area fill -->
  <path d="M52.0,232.0 L52.0,232.0 L80.8,232.0 L109.5,232.0 L138.3,232.0 L167.1,232.0 L195.8,232.0 L224.6,232.0 L253.4,232.0 L282.2,232.0 L310.9,232.0 L339.7,232.0 L368.5,232.0 L397.2,232.0 L426.0,196.3 L454.8,28.0 L483.5,160.6 L512.3,175.9 L541.1,160.6 L569.8,135.1 L598.6,135.1 L627.4,155.5 L656.2,170.8 L684.9,160.6 L713.7,155.5 L742.5,140.2 L771.2,165.7 L800.0,160.6 L800.0,232.0 L52.0,232.0Z" fill="#4e79a7" opacity="0.12"/>

  <!-- lines -->
  <polyline points="52.0,232.0 80.8,232.0 109.5,232.0 138.3,232.0 167.1,232.0 195.8,232.0 224.6,232.0 253.4,232.0 282.2,232.0 310.9,232.0 339.7,232.0 368.5,232.0 397.2,232.0 426.0,196.3 454.8,28.0 483.5,160.6 512.3,175.9 541.1,160.6 569.8,135.1 598.6,135.1 627.4,155.5 656.2,170.8 684.9,160.6 713.7,155.5 742.5,140.2 771.2,165.7 800.0,160.6"
            fill="none" stroke="#4e79a7"
            stroke-width="2" stroke-linejoin="round"/>
  <polyline points="52.0,232.0 80.8,232.0 109.5,232.0 138.3,232.0 167.1,232.0 195.8,232.0 224.6,232.0 253.4,232.0 282.2,232.0 310.9,232.0 339.7,232.0 368.5,232.0 397.2,232.0 426.0,196.3 454.8,109.6 483.5,175.9 512.3,191.2 541.1,175.9 569.8,150.4 598.6,160.6 627.4,175.9 656.2,191.2 684.9,175.9 713.7,170.8 742.5,155.5 771.2,181.0 800.0,175.9"
            fill="none" stroke="#f28e2b"
            stroke-width="2" stroke-linejoin="round"
            stroke-dasharray="5,3"/>

  <!-- dots -->
  <circle cx="52.0" cy="232.0" r="3" fill="#4e79a7"/><circle cx="80.8" cy="232.0" r="3" fill="#4e79a7"/><circle cx="109.5" cy="232.0" r="3" fill="#4e79a7"/><circle cx="138.3" cy="232.0" r="3" fill="#4e79a7"/><circle cx="167.1" cy="232.0" r="3" fill="#4e79a7"/><circle cx="195.8" cy="232.0" r="3" fill="#4e79a7"/><circle cx="224.6" cy="232.0" r="3" fill="#4e79a7"/><circle cx="253.4" cy="232.0" r="3" fill="#4e79a7"/><circle cx="282.2" cy="232.0" r="3" fill="#4e79a7"/><circle cx="310.9" cy="232.0" r="3" fill="#4e79a7"/><circle cx="339.7" cy="232.0" r="3" fill="#4e79a7"/><circle cx="368.5" cy="232.0" r="3" fill="#4e79a7"/><circle cx="397.2" cy="232.0" r="3" fill="#4e79a7"/><circle cx="426.0" cy="196.3" r="3" fill="#4e79a7"/><circle cx="454.8" cy="28.0" r="3" fill="#4e79a7"/><circle cx="483.5" cy="160.6" r="3" fill="#4e79a7"/><circle cx="512.3" cy="175.9" r="3" fill="#4e79a7"/><circle cx="541.1" cy="160.6" r="3" fill="#4e79a7"/><circle cx="569.8" cy="135.1" r="3" fill="#4e79a7"/><circle cx="598.6" cy="135.1" r="3" fill="#4e79a7"/><circle cx="627.4" cy="155.5" r="3" fill="#4e79a7"/><circle cx="656.2" cy="170.8" r="3" fill="#4e79a7"/><circle cx="684.9" cy="160.6" r="3" fill="#4e79a7"/><circle cx="713.7" cy="155.5" r="3" fill="#4e79a7"/><circle cx="742.5" cy="140.2" r="3" fill="#4e79a7"/><circle cx="771.2" cy="165.7" r="3" fill="#4e79a7"/><circle cx="800.0" cy="160.6" r="3" fill="#4e79a7"/>
  <circle cx="52.0" cy="232.0" r="3" fill="#f28e2b"/><circle cx="80.8" cy="232.0" r="3" fill="#f28e2b"/><circle cx="109.5" cy="232.0" r="3" fill="#f28e2b"/><circle cx="138.3" cy="232.0" r="3" fill="#f28e2b"/><circle cx="167.1" cy="232.0" r="3" fill="#f28e2b"/><circle cx="195.8" cy="232.0" r="3" fill="#f28e2b"/><circle cx="224.6" cy="232.0" r="3" fill="#f28e2b"/><circle cx="253.4" cy="232.0" r="3" fill="#f28e2b"/><circle cx="282.2" cy="232.0" r="3" fill="#f28e2b"/><circle cx="310.9" cy="232.0" r="3" fill="#f28e2b"/><circle cx="339.7" cy="232.0" r="3" fill="#f28e2b"/><circle cx="368.5" cy="232.0" r="3" fill="#f28e2b"/><circle cx="397.2" cy="232.0" r="3" fill="#f28e2b"/><circle cx="426.0" cy="196.3" r="3" fill="#f28e2b"/><circle cx="454.8" cy="109.6" r="3" fill="#f28e2b"/><circle cx="483.5" cy="175.9" r="3" fill="#f28e2b"/><circle cx="512.3" cy="191.2" r="3" fill="#f28e2b"/><circle cx="541.1" cy="175.9" r="3" fill="#f28e2b"/><circle cx="569.8" cy="150.4" r="3" fill="#f28e2b"/><circle cx="598.6" cy="160.6" r="3" fill="#f28e2b"/><circle cx="627.4" cy="175.9" r="3" fill="#f28e2b"/><circle cx="656.2" cy="191.2" r="3" fill="#f28e2b"/><circle cx="684.9" cy="175.9" r="3" fill="#f28e2b"/><circle cx="713.7" cy="170.8" r="3" fill="#f28e2b"/><circle cx="742.5" cy="155.5" r="3" fill="#f28e2b"/><circle cx="771.2" cy="181.0" r="3" fill="#f28e2b"/><circle cx="800.0" cy="175.9" r="3" fill="#f28e2b"/>

  <!-- axes -->
  <line x1="52" y1="28" x2="52" y2="232"
        stroke="#cccccc" stroke-width="1"/>
  <line x1="52" y1="232" x2="800" y2="232"
        stroke="#cccccc" stroke-width="1"/>

  <!-- y-axis labels -->
  <text x="47" y="236.0" text-anchor="end" font-size="10" fill="#57606a" font-family="ui-monospace, SFMono-Regular, 'SF Mono', Menlo, monospace">0</text><text x="47" y="195.2" text-anchor="end" font-size="10" fill="#57606a" font-family="ui-monospace, SFMono-Regular, 'SF Mono', Menlo, monospace">8</text><text x="47" y="154.4" text-anchor="end" font-size="10" fill="#57606a" font-family="ui-monospace, SFMono-Regular, 'SF Mono', Menlo, monospace">16</text><text x="47" y="113.6" text-anchor="end" font-size="10" fill="#57606a" font-family="ui-monospace, SFMono-Regular, 'SF Mono', Menlo, monospace">24</text><text x="47" y="72.8" text-anchor="end" font-size="10" fill="#57606a" font-family="ui-monospace, SFMono-Regular, 'SF Mono', Menlo, monospace">32</text><text x="47" y="32.0" text-anchor="end" font-size="10" fill="#57606a" font-family="ui-monospace, SFMono-Regular, 'SF Mono', Menlo, monospace">40</text>

  <!-- x-axis labels -->
  <text x="52.0" y="248" text-anchor="middle" font-size="10" fill="#8c959f" font-family="ui-monospace, SFMono-Regular, 'SF Mono', Menlo, monospace">05-12</text><text x="138.3" y="248" text-anchor="middle" font-size="10" fill="#8c959f" font-family="ui-monospace, SFMono-Regular, 'SF Mono', Menlo, monospace">05-15</text><text x="224.6" y="248" text-anchor="middle" font-size="10" fill="#8c959f" font-family="ui-monospace, SFMono-Regular, 'SF Mono', Menlo, monospace">05-18</text><text x="310.9" y="248" text-anchor="middle" font-size="10" fill="#8c959f" font-family="ui-monospace, SFMono-Regular, 'SF Mono', Menlo, monospace">05-21</text><text x="397.2" y="248" text-anchor="middle" font-size="10" fill="#8c959f" font-family="ui-monospace, SFMono-Regular, 'SF Mono', Menlo, monospace">05-24</text><text x="483.5" y="248" text-anchor="middle" font-size="10" fill="#8c959f" font-family="ui-monospace, SFMono-Regular, 'SF Mono', Menlo, monospace">05-27</text><text x="569.8" y="248" text-anchor="middle" font-size="10" fill="#8c959f" font-family="ui-monospace, SFMono-Regular, 'SF Mono', Menlo, monospace">05-30</text><text x="656.2" y="248" text-anchor="middle" font-size="10" fill="#8c959f" font-family="ui-monospace, SFMono-Regular, 'SF Mono', Menlo, monospace">06-02</text><text x="742.5" y="248" text-anchor="middle" font-size="10" fill="#8c959f" font-family="ui-monospace, SFMono-Regular, 'SF Mono', Menlo, monospace">06-05</text><text x="800.0" y="248" text-anchor="middle" font-size="10" fill="#8c959f" font-family="ui-monospace, SFMono-Regular, 'SF Mono', Menlo, monospace">06-07</text>

  <!-- legend -->
  <rect x="60" y="262" width="16" height="3" fill="#4e79a7" rx="1"/><text x="80" y="268" font-size="11" fill="#57606a" font-family="-apple-system, BlinkMacSystemFont, 'Segoe UI', sans-serif">Total clones (225)</text><line x1="230" y1="264" x2="246" y2="264" stroke="#f28e2b" stroke-width="2" stroke-dasharray="5,3"/><text x="250" y="268" font-size="11" fill="#57606a" font-family="-apple-system, BlinkMacSystemFont, 'Segoe UI', sans-serif">Unique cloners</text>

</svg>