<svg xmlns="http://www.w3.org/2000/svg" viewBox="0 0 820 280" width="820" height="280">

  <!-- title -->
  <text x="52" y="18" font-size="13" font-weight="600"
        fill="#24292f" font-family="-apple-system, BlinkMacSystemFont, 'Segoe UI', sans-serif"
        >Clone traffic — stats</text>
  <text x="800" y="18" font-size="10" fill="#8c959f"
        font-family="ui-monospace, SFMono-Regular, 'SF Mono', Menlo, monospace" text-anchor="end">2026-06-28</text>

  <!-- grid -->
  <line x1="52" y1="232.0" x2="800" y2="232.0" stroke="#e8e8e8" stroke-width="1"/><line x1="52" y1="191.2" x2="800" y2="191.2" stroke="#e8e8e8" stroke-width="1"/><line x1="52" y1="150.4" x2="800" y2="150.4" stroke="#e8e8e8" stroke-width="1"/><line x1="52" y1="109.6" x2="800" y2="109.6" stroke="#e8e8e8" stroke-width="1"/><line x1="52" y1="68.8" x2="800" y2="68.8" stroke="#e8e8e8" stroke-width="1"/><line x1="52" y1="28.0" x2="800" y2="28.0" stroke="#e8e8e8" stroke-width="1"/>

  <!-- area fill -->
  <path d="M52.0,232.0 L52.0,232.0 L68.6,232.0 L85.2,232.0 L101.9,232.0 L118.5,232.0 L135.1,232.0 L151.7,232.0 L168.4,232.0 L185.0,232.0 L201.6,232.0 L218.2,232.0 L234.8,232.0 L251.5,232.0 L268.1,200.3 L284.7,50.7 L301.3,168.5 L318.0,182.1 L334.6,168.5 L351.2,145.9 L367.8,145.9 L384.4,164.0 L401.1,177.6 L417.7,168.5 L434.3,164.0 L450.9,150.4 L467.6,173.1 L484.2,168.5 L500.8,177.6 L517.4,204.8 L534.0,159.5 L550.7,168.5 L567.3,182.1 L583.9,173.1 L600.5,118.7 L617.2,105.1 L633.8,132.3 L650.4,154.9 L667.0,136.8 L683.6,28.0 L700.3,173.1 L716.9,173.1 L733.5,177.6 L750.1,186.7 L766.8,182.1 L783.4,186.7 L800.0,191.2 L800.0,232.0 L52.0,232.0Z" fill="#4e79a7" opacity="0.12"/>

  <!-- lines -->
  <polyline points="52.0,232.0 68.6,232.0 85.2,232.0 101.9,232.0 118.5,232.0 135.1,232.0 151.7,232.0 168.4,232.0 185.0,232.0 201.6,232.0 218.2,232.0 234.8,232.0 251.5,232.0 268.1,200.3 284.7,50.7 301.3,168.5 318.0,182.1 334.6,168.5 351.2,145.9 367.8,145.9 384.4,164.0 401.1,177.6 417.7,168.5 434.3,164.0 450.9,150.4 467.6,173.1 484.2,168.5 500.8,177.6 517.4,204.8 534.0,159.5 550.7,168.5 567.3,182.1 583.9,173.1 600.5,118.7 617.2,105.1 633.8,132.3 650.4,154.9 667.0,136.8 683.6,28.0 700.3,173.1 716.9,173.1 733.5,177.6 750.1,186.7 766.8,182.1 783.4,186.7 800.0,191.2"
            fill="none" stroke="#4e79a7"
            stroke-width="2" stroke-linejoin="round"/>
  <polyline points="52.0,232.0 68.6,232.0 85.2,232.0 101.9,232.0 118.5,232.0 135.1,232.0 151.7,232.0 168.4,232.0 185.0,232.0 201.6,232.0 218.2,232.0 234.8,232.0 251.5,232.0 268.1,200.3 284.7,123.2 301.3,182.1 318.0,195.7 334.6,182.1 351.2,159.5 367.8,168.5 384.4,182.1 401.1,195.7 417.7,182.1 434.3,177.6 450.9,164.0 467.6,186.7 484.2,182.1 500.8,191.2 517.4,204.8 534.0,191.2 550.7,182.1 567.3,195.7 583.9,200.3 600.5,173.1 617.2,159.5 633.8,177.6 650.4,182.1 667.0,177.6 683.6,177.6 700.3,186.7 716.9,186.7 733.5,191.2 750.1,200.3 766.8,195.7 783.4,200.3 800.0,191.2"
            fill="none" stroke="#f28e2b"
            stroke-width="2" stroke-linejoin="round"
            stroke-dasharray="5,3"/>

  <!-- dots -->
  <circle cx="52.0" cy="232.0" r="3" fill="#4e79a7"/><circle cx="68.6" cy="232.0" r="3" fill="#4e79a7"/><circle cx="85.2" cy="232.0" r="3" fill="#4e79a7"/><circle cx="101.9" cy="232.0" r="3" fill="#4e79a7"/><circle cx="118.5" cy="232.0" r="3" fill="#4e79a7"/><circle cx="135.1" cy="232.0" r="3" fill="#4e79a7"/><circle cx="151.7" cy="232.0" r="3" fill="#4e79a7"/><circle cx="168.4" cy="232.0" r="3" fill="#4e79a7"/><circle cx="185.0" cy="232.0" r="3" fill="#4e79a7"/><circle cx="201.6" cy="232.0" r="3" fill="#4e79a7"/><circle cx="218.2" cy="232.0" r="3" fill="#4e79a7"/><circle cx="234.8" cy="232.0" r="3" fill="#4e79a7"/><circle cx="251.5" cy="232.0" r="3" fill="#4e79a7"/><circle cx="268.1" cy="200.3" r="3" fill="#4e79a7"/><circle cx="284.7" cy="50.7" r="3" fill="#4e79a7"/><circle cx="301.3" cy="168.5" r="3" fill="#4e79a7"/><circle cx="318.0" cy="182.1" r="3" fill="#4e79a7"/><circle cx="334.6" cy="168.5" r="3" fill="#4e79a7"/><circle cx="351.2" cy="145.9" r="3" fill="#4e79a7"/><circle cx="367.8" cy="145.9" r="3" fill="#4e79a7"/><circle cx="384.4" cy="164.0" r="3" fill="#4e79a7"/><circle cx="401.1" cy="177.6" r="3" fill="#4e79a7"/><circle cx="417.7" cy="168.5" r="3" fill="#4e79a7"/><circle cx="434.3" cy="164.0" r="3" fill="#4e79a7"/><circle cx="450.9" cy="150.4" r="3" fill="#4e79a7"/><circle cx="467.6" cy="173.1" r="3" fill="#4e79a7"/><circle cx="484.2" cy="168.5" r="3" fill="#4e79a7"/><circle cx="500.8" cy="177.6" r="3" fill="#4e79a7"/><circle cx="517.4" cy="204.8" r="3" fill="#4e79a7"/><circle cx="534.0" cy="159.5" r="3" fill="#4e79a7"/><circle cx="550.7" cy="168.5" r="3" fill="#4e79a7"/><circle cx="567.3" cy="182.1" r="3" fill="#4e79a7"/><circle cx="583.9" cy="173.1" r="3" fill="#4e79a7"/><circle cx="600.5" cy="118.7" r="3" fill="#4e79a7"/><circle cx="617.2" cy="105.1" r="3" fill="#4e79a7"/><circle cx="633.8" cy="132.3" r="3" fill="#4e79a7"/><circle cx="650.4" cy="154.9" r="3" fill="#4e79a7"/><circle cx="667.0" cy="136.8" r="3" fill="#4e79a7"/><circle cx="683.6" cy="28.0" r="3" fill="#4e79a7"/><circle cx="700.3" cy="173.1" r="3" fill="#4e79a7"/><circle cx="716.9" cy="173.1" r="3" fill="#4e79a7"/><circle cx="733.5" cy="177.6" r="3" fill="#4e79a7"/><circle cx="750.1" cy="186.7" r="3" fill="#4e79a7"/><circle cx="766.8" cy="182.1" r="3" fill="#4e79a7"/><circle cx="783.4" cy="186.7" r="3" fill="#4e79a7"/><circle cx="800.0" cy="191.2" r="3" fill="#4e79a7"/>
  <circle cx="52.0" cy="232.0" r="3" fill="#f28e2b"/><circle cx="68.6" cy="232.0" r="3" fill="#f28e2b"/><circle cx="85.2" cy="232.0" r="3" fill="#f28e2b"/><circle cx="101.9" cy="232.0" r="3" fill="#f28e2b"/><circle cx="118.5" cy="232.0" r="3" fill="#f28e2b"/><circle cx="135.1" cy="232.0" r="3" fill="#f28e2b"/><circle cx="151.7" cy="232.0" r="3" fill="#f28e2b"/><circle cx="168.4" cy="232.0" r="3" fill="#f28e2b"/><circle cx="185.0" cy="232.0" r="3" fill="#f28e2b"/><circle cx="201.6" cy="232.0" r="3" fill="#f28e2b"/><circle cx="218.2" cy="232.0" r="3" fill="#f28e2b"/><circle cx="234.8" cy="232.0" r="3" fill="#f28e2b"/><circle cx="251.5" cy="232.0" r="3" fill="#f28e2b"/><circle cx="268.1" cy="200.3" r="3" fill="#f28e2b"/><circle cx="284.7" cy="123.2" r="3" fill="#f28e2b"/><circle cx="301.3" cy="182.1" r="3" fill="#f28e2b"/><circle cx="318.0" cy="195.7" r="3" fill="#f28e2b"/><circle cx="334.6" cy="182.1" r="3" fill="#f28e2b"/><circle cx="351.2" cy="159.5" r="3" fill="#f28e2b"/><circle cx="367.8" cy="168.5" r="3" fill="#f28e2b"/><circle cx="384.4" cy="182.1" r="3" fill="#f28e2b"/><circle cx="401.1" cy="195.7" r="3" fill="#f28e2b"/><circle cx="417.7" cy="182.1" r="3" fill="#f28e2b"/><circle cx="434.3" cy="177.6" r="3" fill="#f28e2b"/><circle cx="450.9" cy="164.0" r="3" fill="#f28e2b"/><circle cx="467.6" cy="186.7" r="3" fill="#f28e2b"/><circle cx="484.2" cy="182.1" r="3" fill="#f28e2b"/><circle cx="500.8" cy="191.2" r="3" fill="#f28e2b"/><circle cx="517.4" cy="204.8" r="3" fill="#f28e2b"/><circle cx="534.0" cy="191.2" r="3" fill="#f28e2b"/><circle cx="550.7" cy="182.1" r="3" fill="#f28e2b"/><circle cx="567.3" cy="195.7" r="3" fill="#f28e2b"/><circle cx="583.9" cy="200.3" r="3" fill="#f28e2b"/><circle cx="600.5" cy="173.1" r="3" fill="#f28e2b"/><circle cx="617.2" cy="159.5" r="3" fill="#f28e2b"/><circle cx="633.8" cy="177.6" r="3" fill="#f28e2b"/><circle cx="650.4" cy="182.1" r="3" fill="#f28e2b"/><circle cx="667.0" cy="177.6" r="3" fill="#f28e2b"/><circle cx="683.6" cy="177.6" r="3" fill="#f28e2b"/><circle cx="700.3" cy="186.7" r="3" fill="#f28e2b"/><circle cx="716.9" cy="186.7" r="3" fill="#f28e2b"/><circle cx="733.5" cy="191.2" r="3" fill="#f28e2b"/><circle cx="750.1" cy="200.3" r="3" fill="#f28e2b"/><circle cx="766.8" cy="195.7" r="3" fill="#f28e2b"/><circle cx="783.4" cy="200.3" r="3" fill="#f28e2b"/><circle cx="800.0" cy="191.2" r="3" fill="#f28e2b"/>

  <!-- axes -->
  <line x1="52" y1="28" x2="52" y2="232"
        stroke="#cccccc" stroke-width="1"/>
  <line x1="52" y1="232" x2="800" y2="232"
        stroke="#cccccc" stroke-width="1"/>

  <!-- y-axis labels -->
  <text x="47" y="236.0" text-anchor="end" font-size="10" fill="#57606a" font-family="ui-monospace, SFMono-Regular, 'SF Mono', Menlo, monospace">0</text><text x="47" y="195.2" text-anchor="end" font-size="10" fill="#57606a" font-family="ui-monospace, SFMono-Regular, 'SF Mono', Menlo, monospace">9</text><text x="47" y="154.4" text-anchor="end" font-size="10" fill="#57606a" font-family="ui-monospace, SFMono-Regular, 'SF Mono', Menlo, monospace">18</text><text x="47" y="113.6" text-anchor="end" font-size="10" fill="#57606a" font-family="ui-monospace, SFMono-Regular, 'SF Mono', Menlo, monospace">27</text><text x="47" y="72.8" text-anchor="end" font-size="10" fill="#57606a" font-family="ui-monospace, SFMono-Regular, 'SF Mono', Menlo, monospace">36</text><text x="47" y="32.0" text-anchor="end" font-size="10" fill="#57606a" font-family="ui-monospace, SFMono-Regular, 'SF Mono', Menlo, monospace">45</text>

  <!-- x-axis labels -->
  <text x="52.0" y="248" text-anchor="middle" font-size="10" fill="#8c959f" font-family="ui-monospace, SFMono-Regular, 'SF Mono', Menlo, monospace">05-12</text><text x="633.8" y="248" text-anchor="middle" font-size="10" fill="#8c959f" font-family="ui-monospace, SFMono-Regular, 'SF Mono', Menlo, monospace">06-16</text><text x="135.1" y="248" text-anchor="middle" font-size="10" fill="#8c959f" font-family="ui-monospace, SFMono-Regular, 'SF Mono', Menlo, monospace">05-17</text><text x="716.9" y="248" text-anchor="middle" font-size="10" fill="#8c959f" font-family="ui-monospace, SFMono-Regular, 'SF Mono', Menlo, monospace">06-21</text><text x="218.2" y="248" text-anchor="middle" font-size="10" fill="#8c959f" font-family="ui-monospace, SFMono-Regular, 'SF Mono', Menlo, monospace">05-22</text><text x="800.0" y="248" text-anchor="middle" font-size="10" fill="#8c959f" font-family="ui-monospace, SFMono-Regular, 'SF Mono', Menlo, monospace">06-26</text><text x="301.3" y="248" text-anchor="middle" font-size="10" fill="#8c959f" font-family="ui-monospace, SFMono-Regular, 'SF Mono', Menlo, monospace">05-27</text><text x="384.4" y="248" text-anchor="middle" font-size="10" fill="#8c959f" font-family="ui-monospace, SFMono-Regular, 'SF Mono', Menlo, monospace">06-01</text><text x="467.6" y="248" text-anchor="middle" font-size="10" fill="#8c959f" font-family="ui-monospace, SFMono-Regular, 'SF Mono', Menlo, monospace">06-06</text><text x="550.7" y="248" text-anchor="middle" font-size="10" fill="#8c959f" font-family="ui-monospace, SFMono-Regular, 'SF Mono', Menlo, monospace">06-11</text>

  <!-- legend -->
  <rect x="60" y="262" width="16" height="3" fill="#4e79a7" rx="1"/><text x="80" y="268" font-size="11" fill="#57606a" font-family="-apple-system, BlinkMacSystemFont, 'Segoe UI', sans-serif">Total clones (533)</text><line x1="230" y1="264" x2="246" y2="264" stroke="#f28e2b" stroke-width="2" stroke-dasharray="5,3"/><text x="250" y="268" font-size="11" fill="#57606a" font-family="-apple-system, BlinkMacSystemFont, 'Segoe UI', sans-serif">Unique cloners</text>

</svg>