<svg xmlns="http://www.w3.org/2000/svg" viewBox="0 0 820 280" width="820" height="280">

  <!-- title -->
  <text x="52" y="18" font-size="13" font-weight="600"
        fill="#24292f" font-family="-apple-system, BlinkMacSystemFont, 'Segoe UI', sans-serif"
        >Clone traffic — stats</text>
  <text x="800" y="18" font-size="10" fill="#8c959f"
        font-family="ui-monospace, SFMono-Regular, 'SF Mono', Menlo, monospace" text-anchor="end">2026-07-03</text>

  <!-- grid -->
  <line x1="52" y1="232.0" x2="800" y2="232.0" stroke="#e8e8e8" stroke-width="1"/><line x1="52" y1="191.2" x2="800" y2="191.2" stroke="#e8e8e8" stroke-width="1"/><line x1="52" y1="150.4" x2="800" y2="150.4" stroke="#e8e8e8" stroke-width="1"/><line x1="52" y1="109.6" x2="800" y2="109.6" stroke="#e8e8e8" stroke-width="1"/><line x1="52" y1="68.8" x2="800" y2="68.8" stroke="#e8e8e8" stroke-width="1"/><line x1="52" y1="28.0" x2="800" y2="28.0" stroke="#e8e8e8" stroke-width="1"/>

  <!-- area fill -->
  <path d="M52.0,232.0 L52.0,232.0 L67.0,232.0 L81.9,232.0 L96.9,232.0 L111.8,232.0 L126.8,232.0 L141.8,232.0 L156.7,232.0 L171.7,232.0 L186.6,232.0 L201.6,232.0 L216.6,232.0 L231.5,232.0 L246.5,200.3 L261.4,50.7 L276.4,168.5 L291.4,182.1 L306.3,168.5 L321.3,145.9 L336.2,145.9 L351.2,164.0 L366.2,177.6 L381.1,168.5 L396.1,164.0 L411.0,150.4 L426.0,173.1 L441.0,168.5 L455.9,177.6 L470.9,204.8 L485.8,159.5 L500.8,168.5 L515.8,182.1 L530.7,173.1 L545.7,118.7 L560.6,105.1 L575.6,132.3 L590.6,154.9 L605.5,136.8 L620.5,28.0 L635.4,173.1 L650.4,173.1 L665.4,177.6 L680.3,186.7 L695.3,182.1 L710.2,186.7 L725.2,191.2 L740.2,164.0 L755.1,168.5 L770.1,177.6 L785.0,164.0 L800.0,177.6 L800.0,232.0 L52.0,232.0Z" fill="#4e79a7" opacity="0.12"/>

  <!-- lines -->
  <polyline points="52.0,232.0 67.0,232.0 81.9,232.0 96.9,232.0 111.8,232.0 126.8,232.0 141.8,232.0 156.7,232.0 171.7,232.0 186.6,232.0 201.6,232.0 216.6,232.0 231.5,232.0 246.5,200.3 261.4,50.7 276.4,168.5 291.4,182.1 306.3,168.5 321.3,145.9 336.2,145.9 351.2,164.0 366.2,177.6 381.1,168.5 396.1,164.0 411.0,150.4 426.0,173.1 441.0,168.5 455.9,177.6 470.9,204.8 485.8,159.5 500.8,168.5 515.8,182.1 530.7,173.1 545.7,118.7 560.6,105.1 575.6,132.3 590.6,154.9 605.5,136.8 620.5,28.0 635.4,173.1 650.4,173.1 665.4,177.6 680.3,186.7 695.3,182.1 710.2,186.7 725.2,191.2 740.2,164.0 755.1,168.5 770.1,177.6 785.0,164.0 800.0,177.6"
            fill="none" stroke="#4e79a7"
            stroke-width="2" stroke-linejoin="round"/>
  <polyline points="52.0,232.0 67.0,232.0 81.9,232.0 96.9,232.0 111.8,232.0 126.8,232.0 141.8,232.0 156.7,232.0 171.7,232.0 186.6,232.0 201.6,232.0 216.6,232.0 231.5,232.0 246.5,200.3 261.4,123.2 276.4,182.1 291.4,195.7 306.3,182.1 321.3,159.5 336.2,168.5 351.2,182.1 366.2,195.7 381.1,182.1 396.1,177.6 411.0,164.0 426.0,186.7 441.0,182.1 455.9,191.2 470.9,204.8 485.8,191.2 500.8,182.1 515.8,195.7 530.7,200.3 545.7,173.1 560.6,159.5 575.6,177.6 590.6,182.1 605.5,177.6 620.5,177.6 635.4,186.7 650.4,186.7 665.4,191.2 680.3,200.3 695.3,195.7 710.2,200.3 725.2,191.2 740.2,177.6 755.1,182.1 770.1,191.2 785.0,177.6 800.0,191.2"
            fill="none" stroke="#f28e2b"
            stroke-width="2" stroke-linejoin="round"
            stroke-dasharray="5,3"/>

  <!-- dots -->
  <circle cx="52.0" cy="232.0" r="3" fill="#4e79a7"/><circle cx="67.0" cy="232.0" r="3" fill="#4e79a7"/><circle cx="81.9" cy="232.0" r="3" fill="#4e79a7"/><circle cx="96.9" cy="232.0" r="3" fill="#4e79a7"/><circle cx="111.8" cy="232.0" r="3" fill="#4e79a7"/><circle cx="126.8" cy="232.0" r="3" fill="#4e79a7"/><circle cx="141.8" cy="232.0" r="3" fill="#4e79a7"/><circle cx="156.7" cy="232.0" r="3" fill="#4e79a7"/><circle cx="171.7" cy="232.0" r="3" fill="#4e79a7"/><circle cx="186.6" cy="232.0" r="3" fill="#4e79a7"/><circle cx="201.6" cy="232.0" r="3" fill="#4e79a7"/><circle cx="216.6" cy="232.0" r="3" fill="#4e79a7"/><circle cx="231.5" cy="232.0" r="3" fill="#4e79a7"/><circle cx="246.5" cy="200.3" r="3" fill="#4e79a7"/><circle cx="261.4" cy="50.7" r="3" fill="#4e79a7"/><circle cx="276.4" cy="168.5" r="3" fill="#4e79a7"/><circle cx="291.4" cy="182.1" r="3" fill="#4e79a7"/><circle cx="306.3" cy="168.5" r="3" fill="#4e79a7"/><circle cx="321.3" cy="145.9" r="3" fill="#4e79a7"/><circle cx="336.2" cy="145.9" r="3" fill="#4e79a7"/><circle cx="351.2" cy="164.0" r="3" fill="#4e79a7"/><circle cx="366.2" cy="177.6" r="3" fill="#4e79a7"/><circle cx="381.1" cy="168.5" r="3" fill="#4e79a7"/><circle cx="396.1" cy="164.0" r="3" fill="#4e79a7"/><circle cx="411.0" cy="150.4" r="3" fill="#4e79a7"/><circle cx="426.0" cy="173.1" r="3" fill="#4e79a7"/><circle cx="441.0" cy="168.5" r="3" fill="#4e79a7"/><circle cx="455.9" cy="177.6" r="3" fill="#4e79a7"/><circle cx="470.9" cy="204.8" r="3" fill="#4e79a7"/><circle cx="485.8" cy="159.5" r="3" fill="#4e79a7"/><circle cx="500.8" cy="168.5" r="3" fill="#4e79a7"/><circle cx="515.8" cy="182.1" r="3" fill="#4e79a7"/><circle cx="530.7" cy="173.1" r="3" fill="#4e79a7"/><circle cx="545.7" cy="118.7" r="3" fill="#4e79a7"/><circle cx="560.6" cy="105.1" r="3" fill="#4e79a7"/><circle cx="575.6" cy="132.3" r="3" fill="#4e79a7"/><circle cx="590.6" cy="154.9" r="3" fill="#4e79a7"/><circle cx="605.5" cy="136.8" r="3" fill="#4e79a7"/><circle cx="620.5" cy="28.0" r="3" fill="#4e79a7"/><circle cx="635.4" cy="173.1" r="3" fill="#4e79a7"/><circle cx="650.4" cy="173.1" r="3" fill="#4e79a7"/><circle cx="665.4" cy="177.6" r="3" fill="#4e79a7"/><circle cx="680.3" cy="186.7" r="3" fill="#4e79a7"/><circle cx="695.3" cy="182.1" r="3" fill="#4e79a7"/><circle cx="710.2" cy="186.7" r="3" fill="#4e79a7"/><circle cx="725.2" cy="191.2" r="3" fill="#4e79a7"/><circle cx="740.2" cy="164.0" r="3" fill="#4e79a7"/><circle cx="755.1" cy="168.5" r="3" fill="#4e79a7"/><circle cx="770.1" cy="177.6" r="3" fill="#4e79a7"/><circle cx="785.0" cy="164.0" r="3" fill="#4e79a7"/><circle cx="800.0" cy="177.6" r="3" fill="#4e79a7"/>
  <circle cx="52.0" cy="232.0" r="3" fill="#f28e2b"/><circle cx="67.0" cy="232.0" r="3" fill="#f28e2b"/><circle cx="81.9" cy="232.0" r="3" fill="#f28e2b"/><circle cx="96.9" cy="232.0" r="3" fill="#f28e2b"/><circle cx="111.8" cy="232.0" r="3" fill="#f28e2b"/><circle cx="126.8" cy="232.0" r="3" fill="#f28e2b"/><circle cx="141.8" cy="232.0" r="3" fill="#f28e2b"/><circle cx="156.7" cy="232.0" r="3" fill="#f28e2b"/><circle cx="171.7" cy="232.0" r="3" fill="#f28e2b"/><circle cx="186.6" cy="232.0" r="3" fill="#f28e2b"/><circle cx="201.6" cy="232.0" r="3" fill="#f28e2b"/><circle cx="216.6" cy="232.0" r="3" fill="#f28e2b"/><circle cx="231.5" cy="232.0" r="3" fill="#f28e2b"/><circle cx="246.5" cy="200.3" r="3" fill="#f28e2b"/><circle cx="261.4" cy="123.2" r="3" fill="#f28e2b"/><circle cx="276.4" cy="182.1" r="3" fill="#f28e2b"/><circle cx="291.4" cy="195.7" r="3" fill="#f28e2b"/><circle cx="306.3" cy="182.1" r="3" fill="#f28e2b"/><circle cx="321.3" cy="159.5" r="3" fill="#f28e2b"/><circle cx="336.2" cy="168.5" r="3" fill="#f28e2b"/><circle cx="351.2" cy="182.1" r="3" fill="#f28e2b"/><circle cx="366.2" cy="195.7" r="3" fill="#f28e2b"/><circle cx="381.1" cy="182.1" r="3" fill="#f28e2b"/><circle cx="396.1" cy="177.6" r="3" fill="#f28e2b"/><circle cx="411.0" cy="164.0" r="3" fill="#f28e2b"/><circle cx="426.0" cy="186.7" r="3" fill="#f28e2b"/><circle cx="441.0" cy="182.1" r="3" fill="#f28e2b"/><circle cx="455.9" cy="191.2" r="3" fill="#f28e2b"/><circle cx="470.9" cy="204.8" r="3" fill="#f28e2b"/><circle cx="485.8" cy="191.2" r="3" fill="#f28e2b"/><circle cx="500.8" cy="182.1" r="3" fill="#f28e2b"/><circle cx="515.8" cy="195.7" r="3" fill="#f28e2b"/><circle cx="530.7" cy="200.3" r="3" fill="#f28e2b"/><circle cx="545.7" cy="173.1" r="3" fill="#f28e2b"/><circle cx="560.6" cy="159.5" r="3" fill="#f28e2b"/><circle cx="575.6" cy="177.6" r="3" fill="#f28e2b"/><circle cx="590.6" cy="182.1" r="3" fill="#f28e2b"/><circle cx="605.5" cy="177.6" r="3" fill="#f28e2b"/><circle cx="620.5" cy="177.6" r="3" fill="#f28e2b"/><circle cx="635.4" cy="186.7" r="3" fill="#f28e2b"/><circle cx="650.4" cy="186.7" r="3" fill="#f28e2b"/><circle cx="665.4" cy="191.2" r="3" fill="#f28e2b"/><circle cx="680.3" cy="200.3" r="3" fill="#f28e2b"/><circle cx="695.3" cy="195.7" r="3" fill="#f28e2b"/><circle cx="710.2" cy="200.3" r="3" fill="#f28e2b"/><circle cx="725.2" cy="191.2" r="3" fill="#f28e2b"/><circle cx="740.2" cy="177.6" r="3" fill="#f28e2b"/><circle cx="755.1" cy="182.1" r="3" fill="#f28e2b"/><circle cx="770.1" cy="191.2" r="3" fill="#f28e2b"/><circle cx="785.0" cy="177.6" r="3" fill="#f28e2b"/><circle cx="800.0" cy="191.2" r="3" fill="#f28e2b"/>

  <!-- axes -->
  <line x1="52" y1="28" x2="52" y2="232"
        stroke="#cccccc" stroke-width="1"/>
  <line x1="52" y1="232" x2="800" y2="232"
        stroke="#cccccc" stroke-width="1"/>

  <!-- y-axis labels -->
  <text x="47" y="236.0" text-anchor="end" font-size="10" fill="#57606a" font-family="ui-monospace, SFMono-Regular, 'SF Mono', Menlo, monospace">0</text><text x="47" y="195.2" text-anchor="end" font-size="10" fill="#57606a" font-family="ui-monospace, SFMono-Regular, 'SF Mono', Menlo, monospace">9</text><text x="47" y="154.4" text-anchor="end" font-size="10" fill="#57606a" font-family="ui-monospace, SFMono-Regular, 'SF Mono', Menlo, monospace">18</text><text x="47" y="113.6" text-anchor="end" font-size="10" fill="#57606a" font-family="ui-monospace, SFMono-Regular, 'SF Mono', Menlo, monospace">27</text><text x="47" y="72.8" text-anchor="end" font-size="10" fill="#57606a" font-family="ui-monospace, SFMono-Regular, 'SF Mono', Menlo, monospace">36</text><text x="47" y="32.0" text-anchor="end" font-size="10" fill="#57606a" font-family="ui-monospace, SFMono-Regular, 'SF Mono', Menlo, monospace">45</text>

  <!-- x-axis labels -->
  <text x="52.0" y="248" text-anchor="middle" font-size="10" fill="#8c959f" font-family="ui-monospace, SFMono-Regular, 'SF Mono', Menlo, monospace">05-12</text><text x="590.6" y="248" text-anchor="middle" font-size="10" fill="#8c959f" font-family="ui-monospace, SFMono-Regular, 'SF Mono', Menlo, monospace">06-17</text><text x="141.8" y="248" text-anchor="middle" font-size="10" fill="#8c959f" font-family="ui-monospace, SFMono-Regular, 'SF Mono', Menlo, monospace">05-18</text><text x="680.3" y="248" text-anchor="middle" font-size="10" fill="#8c959f" font-family="ui-monospace, SFMono-Regular, 'SF Mono', Menlo, monospace">06-23</text><text x="231.5" y="248" text-anchor="middle" font-size="10" fill="#8c959f" font-family="ui-monospace, SFMono-Regular, 'SF Mono', Menlo, monospace">05-24</text><text x="770.1" y="248" text-anchor="middle" font-size="10" fill="#8c959f" font-family="ui-monospace, SFMono-Regular, 'SF Mono', Menlo, monospace">06-29</text><text x="321.3" y="248" text-anchor="middle" font-size="10" fill="#8c959f" font-family="ui-monospace, SFMono-Regular, 'SF Mono', Menlo, monospace">05-30</text><text x="800.0" y="248" text-anchor="middle" font-size="10" fill="#8c959f" font-family="ui-monospace, SFMono-Regular, 'SF Mono', Menlo, monospace">07-01</text><text x="411.0" y="248" text-anchor="middle" font-size="10" fill="#8c959f" font-family="ui-monospace, SFMono-Regular, 'SF Mono', Menlo, monospace">06-05</text><text x="500.8" y="248" text-anchor="middle" font-size="10" fill="#8c959f" font-family="ui-monospace, SFMono-Regular, 'SF Mono', Menlo, monospace">06-11</text>

  <!-- legend -->
  <rect x="60" y="262" width="16" height="3" fill="#4e79a7" rx="1"/><text x="80" y="268" font-size="11" fill="#57606a" font-family="-apple-system, BlinkMacSystemFont, 'Segoe UI', sans-serif">Total clones (601)</text><line x1="230" y1="264" x2="246" y2="264" stroke="#f28e2b" stroke-width="2" stroke-dasharray="5,3"/><text x="250" y="268" font-size="11" fill="#57606a" font-family="-apple-system, BlinkMacSystemFont, 'Segoe UI', sans-serif">Unique cloners</text>

</svg>