<svg xmlns="http://www.w3.org/2000/svg" viewBox="0 0 820 280" width="820" height="280">

  <!-- title -->
  <text x="52" y="18" font-size="13" font-weight="600"
        fill="#24292f" font-family="-apple-system, BlinkMacSystemFont, 'Segoe UI', sans-serif"
        >Clone traffic — stats</text>
  <text x="800" y="18" font-size="10" fill="#8c959f"
        font-family="ui-monospace, SFMono-Regular, 'SF Mono', Menlo, monospace" text-anchor="end">2026-06-17</text>

  <!-- grid -->
  <line x1="52" y1="232.0" x2="800" y2="232.0" stroke="#e8e8e8" stroke-width="1"/><line x1="52" y1="191.2" x2="800" y2="191.2" stroke="#e8e8e8" stroke-width="1"/><line x1="52" y1="150.4" x2="800" y2="150.4" stroke="#e8e8e8" stroke-width="1"/><line x1="52" y1="109.6" x2="800" y2="109.6" stroke="#e8e8e8" stroke-width="1"/><line x1="52" y1="68.8" x2="800" y2="68.8" stroke="#e8e8e8" stroke-width="1"/><line x1="52" y1="28.0" x2="800" y2="28.0" stroke="#e8e8e8" stroke-width="1"/>

  <!-- area fill -->
  <path d="M52.0,232.0 L52.0,232.0 L74.0,232.0 L96.0,232.0 L118.0,232.0 L140.0,232.0 L162.0,232.0 L184.0,232.0 L206.0,232.0 L228.0,232.0 L250.0,232.0 L272.0,232.0 L294.0,232.0 L316.0,232.0 L338.0,196.3 L360.0,28.0 L382.0,160.6 L404.0,175.9 L426.0,160.6 L448.0,135.1 L470.0,135.1 L492.0,155.5 L514.0,170.8 L536.0,160.6 L558.0,155.5 L580.0,140.2 L602.0,165.7 L624.0,160.6 L646.0,170.8 L668.0,201.4 L690.0,150.4 L712.0,160.6 L734.0,175.9 L756.0,165.7 L778.0,104.5 L800.0,89.2 L800.0,232.0 L52.0,232.0Z" fill="#4e79a7" opacity="0.12"/>

  <!-- lines -->
  <polyline points="52.0,232.0 74.0,232.0 96.0,232.0 118.0,232.0 140.0,232.0 162.0,232.0 184.0,232.0 206.0,232.0 228.0,232.0 250.0,232.0 272.0,232.0 294.0,232.0 316.0,232.0 338.0,196.3 360.0,28.0 382.0,160.6 404.0,175.9 426.0,160.6 448.0,135.1 470.0,135.1 492.0,155.5 514.0,170.8 536.0,160.6 558.0,155.5 580.0,140.2 602.0,165.7 624.0,160.6 646.0,170.8 668.0,201.4 690.0,150.4 712.0,160.6 734.0,175.9 756.0,165.7 778.0,104.5 800.0,89.2"
            fill="none" stroke="#4e79a7"
            stroke-width="2" stroke-linejoin="round"/>
  <polyline points="52.0,232.0 74.0,232.0 96.0,232.0 118.0,232.0 140.0,232.0 162.0,232.0 184.0,232.0 206.0,232.0 228.0,232.0 250.0,232.0 272.0,232.0 294.0,232.0 316.0,232.0 338.0,196.3 360.0,109.6 382.0,175.9 404.0,191.2 426.0,175.9 448.0,150.4 470.0,160.6 492.0,175.9 514.0,191.2 536.0,175.9 558.0,170.8 580.0,155.5 602.0,181.0 624.0,175.9 646.0,186.1 668.0,201.4 690.0,186.1 712.0,175.9 734.0,191.2 756.0,196.3 778.0,165.7 800.0,150.4"
            fill="none" stroke="#f28e2b"
            stroke-width="2" stroke-linejoin="round"
            stroke-dasharray="5,3"/>

  <!-- dots -->
  <circle cx="52.0" cy="232.0" r="3" fill="#4e79a7"/><circle cx="74.0" cy="232.0" r="3" fill="#4e79a7"/><circle cx="96.0" cy="232.0" r="3" fill="#4e79a7"/><circle cx="118.0" cy="232.0" r="3" fill="#4e79a7"/><circle cx="140.0" cy="232.0" r="3" fill="#4e79a7"/><circle cx="162.0" cy="232.0" r="3" fill="#4e79a7"/><circle cx="184.0" cy="232.0" r="3" fill="#4e79a7"/><circle cx="206.0" cy="232.0" r="3" fill="#4e79a7"/><circle cx="228.0" cy="232.0" r="3" fill="#4e79a7"/><circle cx="250.0" cy="232.0" r="3" fill="#4e79a7"/><circle cx="272.0" cy="232.0" r="3" fill="#4e79a7"/><circle cx="294.0" cy="232.0" r="3" fill="#4e79a7"/><circle cx="316.0" cy="232.0" r="3" fill="#4e79a7"/><circle cx="338.0" cy="196.3" r="3" fill="#4e79a7"/><circle cx="360.0" cy="28.0" r="3" fill="#4e79a7"/><circle cx="382.0" cy="160.6" r="3" fill="#4e79a7"/><circle cx="404.0" cy="175.9" r="3" fill="#4e79a7"/><circle cx="426.0" cy="160.6" r="3" fill="#4e79a7"/><circle cx="448.0" cy="135.1" r="3" fill="#4e79a7"/><circle cx="470.0" cy="135.1" r="3" fill="#4e79a7"/><circle cx="492.0" cy="155.5" r="3" fill="#4e79a7"/><circle cx="514.0" cy="170.8" r="3" fill="#4e79a7"/><circle cx="536.0" cy="160.6" r="3" fill="#4e79a7"/><circle cx="558.0" cy="155.5" r="3" fill="#4e79a7"/><circle cx="580.0" cy="140.2" r="3" fill="#4e79a7"/><circle cx="602.0" cy="165.7" r="3" fill="#4e79a7"/><circle cx="624.0" cy="160.6" r="3" fill="#4e79a7"/><circle cx="646.0" cy="170.8" r="3" fill="#4e79a7"/><circle cx="668.0" cy="201.4" r="3" fill="#4e79a7"/><circle cx="690.0" cy="150.4" r="3" fill="#4e79a7"/><circle cx="712.0" cy="160.6" r="3" fill="#4e79a7"/><circle cx="734.0" cy="175.9" r="3" fill="#4e79a7"/><circle cx="756.0" cy="165.7" r="3" fill="#4e79a7"/><circle cx="778.0" cy="104.5" r="3" fill="#4e79a7"/><circle cx="800.0" cy="89.2" r="3" fill="#4e79a7"/>
  <circle cx="52.0" cy="232.0" r="3" fill="#f28e2b"/><circle cx="74.0" cy="232.0" r="3" fill="#f28e2b"/><circle cx="96.0" cy="232.0" r="3" fill="#f28e2b"/><circle cx="118.0" cy="232.0" r="3" fill="#f28e2b"/><circle cx="140.0" cy="232.0" r="3" fill="#f28e2b"/><circle cx="162.0" cy="232.0" r="3" fill="#f28e2b"/><circle cx="184.0" cy="232.0" r="3" fill="#f28e2b"/><circle cx="206.0" cy="232.0" r="3" fill="#f28e2b"/><circle cx="228.0" cy="232.0" r="3" fill="#f28e2b"/><circle cx="250.0" cy="232.0" r="3" fill="#f28e2b"/><circle cx="272.0" cy="232.0" r="3" fill="#f28e2b"/><circle cx="294.0" cy="232.0" r="3" fill="#f28e2b"/><circle cx="316.0" cy="232.0" r="3" fill="#f28e2b"/><circle cx="338.0" cy="196.3" r="3" fill="#f28e2b"/><circle cx="360.0" cy="109.6" r="3" fill="#f28e2b"/><circle cx="382.0" cy="175.9" r="3" fill="#f28e2b"/><circle cx="404.0" cy="191.2" r="3" fill="#f28e2b"/><circle cx="426.0" cy="175.9" r="3" fill="#f28e2b"/><circle cx="448.0" cy="150.4" r="3" fill="#f28e2b"/><circle cx="470.0" cy="160.6" r="3" fill="#f28e2b"/><circle cx="492.0" cy="175.9" r="3" fill="#f28e2b"/><circle cx="514.0" cy="191.2" r="3" fill="#f28e2b"/><circle cx="536.0" cy="175.9" r="3" fill="#f28e2b"/><circle cx="558.0" cy="170.8" r="3" fill="#f28e2b"/><circle cx="580.0" cy="155.5" r="3" fill="#f28e2b"/><circle cx="602.0" cy="181.0" r="3" fill="#f28e2b"/><circle cx="624.0" cy="175.9" r="3" fill="#f28e2b"/><circle cx="646.0" cy="186.1" r="3" fill="#f28e2b"/><circle cx="668.0" cy="201.4" r="3" fill="#f28e2b"/><circle cx="690.0" cy="186.1" r="3" fill="#f28e2b"/><circle cx="712.0" cy="175.9" r="3" fill="#f28e2b"/><circle cx="734.0" cy="191.2" r="3" fill="#f28e2b"/><circle cx="756.0" cy="196.3" r="3" fill="#f28e2b"/><circle cx="778.0" cy="165.7" r="3" fill="#f28e2b"/><circle cx="800.0" cy="150.4" r="3" fill="#f28e2b"/>

  <!-- axes -->
  <line x1="52" y1="28" x2="52" y2="232"
        stroke="#cccccc" stroke-width="1"/>
  <line x1="52" y1="232" x2="800" y2="232"
        stroke="#cccccc" stroke-width="1"/>

  <!-- y-axis labels -->
  <text x="47" y="236.0" text-anchor="end" font-size="10" fill="#57606a" font-family="ui-monospace, SFMono-Regular, 'SF Mono', Menlo, monospace">0</text><text x="47" y="195.2" text-anchor="end" font-size="10" fill="#57606a" font-family="ui-monospace, SFMono-Regular, 'SF Mono', Menlo, monospace">8</text><text x="47" y="154.4" text-anchor="end" font-size="10" fill="#57606a" font-family="ui-monospace, SFMono-Regular, 'SF Mono', Menlo, monospace">16</text><text x="47" y="113.6" text-anchor="end" font-size="10" fill="#57606a" font-family="ui-monospace, SFMono-Regular, 'SF Mono', Menlo, monospace">24</text><text x="47" y="72.8" text-anchor="end" font-size="10" fill="#57606a" font-family="ui-monospace, SFMono-Regular, 'SF Mono', Menlo, monospace">32</text><text x="47" y="32.0" text-anchor="end" font-size="10" fill="#57606a" font-family="ui-monospace, SFMono-Regular, 'SF Mono', Menlo, monospace">40</text>

  <!-- x-axis labels -->
  <text x="52.0" y="248" text-anchor="middle" font-size="10" fill="#8c959f" font-family="ui-monospace, SFMono-Regular, 'SF Mono', Menlo, monospace">05-12</text><text x="756.0" y="248" text-anchor="middle" font-size="10" fill="#8c959f" font-family="ui-monospace, SFMono-Regular, 'SF Mono', Menlo, monospace">06-13</text><text x="800.0" y="248" text-anchor="middle" font-size="10" fill="#8c959f" font-family="ui-monospace, SFMono-Regular, 'SF Mono', Menlo, monospace">06-15</text><text x="140.0" y="248" text-anchor="middle" font-size="10" fill="#8c959f" font-family="ui-monospace, SFMono-Regular, 'SF Mono', Menlo, monospace">05-16</text><text x="228.0" y="248" text-anchor="middle" font-size="10" fill="#8c959f" font-family="ui-monospace, SFMono-Regular, 'SF Mono', Menlo, monospace">05-20</text><text x="316.0" y="248" text-anchor="middle" font-size="10" fill="#8c959f" font-family="ui-monospace, SFMono-Regular, 'SF Mono', Menlo, monospace">05-24</text><text x="404.0" y="248" text-anchor="middle" font-size="10" fill="#8c959f" font-family="ui-monospace, SFMono-Regular, 'SF Mono', Menlo, monospace">05-28</text><text x="492.0" y="248" text-anchor="middle" font-size="10" fill="#8c959f" font-family="ui-monospace, SFMono-Regular, 'SF Mono', Menlo, monospace">06-01</text><text x="580.0" y="248" text-anchor="middle" font-size="10" fill="#8c959f" font-family="ui-monospace, SFMono-Regular, 'SF Mono', Menlo, monospace">06-05</text><text x="668.0" y="248" text-anchor="middle" font-size="10" fill="#8c959f" font-family="ui-monospace, SFMono-Regular, 'SF Mono', Menlo, monospace">06-09</text>

  <!-- legend -->
  <rect x="60" y="262" width="16" height="3" fill="#4e79a7" rx="1"/><text x="80" y="268" font-size="11" fill="#57606a" font-family="-apple-system, BlinkMacSystemFont, 'Segoe UI', sans-serif">Total clones (350)</text><line x1="230" y1="264" x2="246" y2="264" stroke="#f28e2b" stroke-width="2" stroke-dasharray="5,3"/><text x="250" y="268" font-size="11" fill="#57606a" font-family="-apple-system, BlinkMacSystemFont, 'Segoe UI', sans-serif">Unique cloners</text>

</svg>