<svg xmlns="http://www.w3.org/2000/svg" viewBox="0 0 820 280" width="820" height="280">

  <!-- title -->
  <text x="52" y="18" font-size="13" font-weight="600"
        fill="#24292f" font-family="-apple-system, BlinkMacSystemFont, 'Segoe UI', sans-serif"
        >Clone traffic — stats</text>
  <text x="800" y="18" font-size="10" fill="#8c959f"
        font-family="ui-monospace, SFMono-Regular, 'SF Mono', Menlo, monospace" text-anchor="end">2026-07-15</text>

  <!-- grid -->
  <line x1="52" y1="232.0" x2="800" y2="232.0" stroke="#e8e8e8" stroke-width="1"/><line x1="52" y1="191.2" x2="800" y2="191.2" stroke="#e8e8e8" stroke-width="1"/><line x1="52" y1="150.4" x2="800" y2="150.4" stroke="#e8e8e8" stroke-width="1"/><line x1="52" y1="109.6" x2="800" y2="109.6" stroke="#e8e8e8" stroke-width="1"/><line x1="52" y1="68.8" x2="800" y2="68.8" stroke="#e8e8e8" stroke-width="1"/><line x1="52" y1="28.0" x2="800" y2="28.0" stroke="#e8e8e8" stroke-width="1"/>

  <!-- area fill -->
  <path d="M52.0,232.0 L52.0,232.0 L64.1,232.0 L76.1,232.0 L88.2,232.0 L100.3,232.0 L112.3,232.0 L124.4,232.0 L136.5,232.0 L148.5,232.0 L160.6,232.0 L172.6,232.0 L184.7,232.0 L196.8,232.0 L208.8,200.3 L220.9,50.7 L233.0,168.5 L245.0,182.1 L257.1,168.5 L269.2,145.9 L281.2,145.9 L293.3,164.0 L305.4,177.6 L317.4,168.5 L329.5,164.0 L341.5,150.4 L353.6,173.1 L365.7,168.5 L377.7,177.6 L389.8,204.8 L401.9,159.5 L413.9,168.5 L426.0,182.1 L438.1,173.1 L450.1,118.7 L462.2,105.1 L474.3,132.3 L486.3,154.9 L498.4,136.8 L510.5,28.0 L522.5,173.1 L534.6,173.1 L546.6,177.6 L558.7,186.7 L570.8,182.1 L582.8,186.7 L594.9,191.2 L607.0,164.0 L619.0,168.5 L631.1,177.6 L643.2,164.0 L655.2,177.6 L667.3,154.9 L679.4,222.9 L691.4,182.1 L703.5,173.1 L715.5,177.6 L727.6,209.3 L739.7,222.9 L751.7,186.7 L763.8,204.8 L775.9,168.5 L787.9,168.5 L800.0,209.3 L800.0,232.0 L52.0,232.0Z" fill="#4e79a7" opacity="0.12"/>

  <!-- lines -->
  <polyline points="52.0,232.0 64.1,232.0 76.1,232.0 88.2,232.0 100.3,232.0 112.3,232.0 124.4,232.0 136.5,232.0 148.5,232.0 160.6,232.0 172.6,232.0 184.7,232.0 196.8,232.0 208.8,200.3 220.9,50.7 233.0,168.5 245.0,182.1 257.1,168.5 269.2,145.9 281.2,145.9 293.3,164.0 305.4,177.6 317.4,168.5 329.5,164.0 341.5,150.4 353.6,173.1 365.7,168.5 377.7,177.6 389.8,204.8 401.9,159.5 413.9,168.5 426.0,182.1 438.1,173.1 450.1,118.7 462.2,105.1 474.3,132.3 486.3,154.9 498.4,136.8 510.5,28.0 522.5,173.1 534.6,173.1 546.6,177.6 558.7,186.7 570.8,182.1 582.8,186.7 594.9,191.2 607.0,164.0 619.0,168.5 631.1,177.6 643.2,164.0 655.2,177.6 667.3,154.9 679.4,222.9 691.4,182.1 703.5,173.1 715.5,177.6 727.6,209.3 739.7,222.9 751.7,186.7 763.8,204.8 775.9,168.5 787.9,168.5 800.0,209.3"
            fill="none" stroke="#4e79a7"
            stroke-width="2" stroke-linejoin="round"/>
  <polyline points="52.0,232.0 64.1,232.0 76.1,232.0 88.2,232.0 100.3,232.0 112.3,232.0 124.4,232.0 136.5,232.0 148.5,232.0 160.6,232.0 172.6,232.0 184.7,232.0 196.8,232.0 208.8,200.3 220.9,123.2 233.0,182.1 245.0,195.7 257.1,182.1 269.2,159.5 281.2,168.5 293.3,182.1 305.4,195.7 317.4,182.1 329.5,177.6 341.5,164.0 353.6,186.7 365.7,182.1 377.7,191.2 389.8,204.8 401.9,191.2 413.9,182.1 426.0,195.7 438.1,200.3 450.1,173.1 462.2,159.5 474.3,177.6 486.3,182.1 498.4,177.6 510.5,177.6 522.5,186.7 534.6,186.7 546.6,191.2 558.7,200.3 570.8,195.7 582.8,200.3 594.9,191.2 607.0,177.6 619.0,182.1 631.1,191.2 643.2,177.6 655.2,191.2 667.3,173.1 679.4,222.9 691.4,195.7 703.5,200.3 715.5,191.2 727.6,209.3 739.7,222.9 751.7,200.3 763.8,209.3 775.9,182.1 787.9,186.7 800.0,209.3"
            fill="none" stroke="#f28e2b"
            stroke-width="2" stroke-linejoin="round"
            stroke-dasharray="5,3"/>

  <!-- dots -->
  <circle cx="52.0" cy="232.0" r="3" fill="#4e79a7"/><circle cx="64.1" cy="232.0" r="3" fill="#4e79a7"/><circle cx="76.1" cy="232.0" r="3" fill="#4e79a7"/><circle cx="88.2" cy="232.0" r="3" fill="#4e79a7"/><circle cx="100.3" cy="232.0" r="3" fill="#4e79a7"/><circle cx="112.3" cy="232.0" r="3" fill="#4e79a7"/><circle cx="124.4" cy="232.0" r="3" fill="#4e79a7"/><circle cx="136.5" cy="232.0" r="3" fill="#4e79a7"/><circle cx="148.5" cy="232.0" r="3" fill="#4e79a7"/><circle cx="160.6" cy="232.0" r="3" fill="#4e79a7"/><circle cx="172.6" cy="232.0" r="3" fill="#4e79a7"/><circle cx="184.7" cy="232.0" r="3" fill="#4e79a7"/><circle cx="196.8" cy="232.0" r="3" fill="#4e79a7"/><circle cx="208.8" cy="200.3" r="3" fill="#4e79a7"/><circle cx="220.9" cy="50.7" r="3" fill="#4e79a7"/><circle cx="233.0" cy="168.5" r="3" fill="#4e79a7"/><circle cx="245.0" cy="182.1" r="3" fill="#4e79a7"/><circle cx="257.1" cy="168.5" r="3" fill="#4e79a7"/><circle cx="269.2" cy="145.9" r="3" fill="#4e79a7"/><circle cx="281.2" cy="145.9" r="3" fill="#4e79a7"/><circle cx="293.3" cy="164.0" r="3" fill="#4e79a7"/><circle cx="305.4" cy="177.6" r="3" fill="#4e79a7"/><circle cx="317.4" cy="168.5" r="3" fill="#4e79a7"/><circle cx="329.5" cy="164.0" r="3" fill="#4e79a7"/><circle cx="341.5" cy="150.4" r="3" fill="#4e79a7"/><circle cx="353.6" cy="173.1" r="3" fill="#4e79a7"/><circle cx="365.7" cy="168.5" r="3" fill="#4e79a7"/><circle cx="377.7" cy="177.6" r="3" fill="#4e79a7"/><circle cx="389.8" cy="204.8" r="3" fill="#4e79a7"/><circle cx="401.9" cy="159.5" r="3" fill="#4e79a7"/><circle cx="413.9" cy="168.5" r="3" fill="#4e79a7"/><circle cx="426.0" cy="182.1" r="3" fill="#4e79a7"/><circle cx="438.1" cy="173.1" r="3" fill="#4e79a7"/><circle cx="450.1" cy="118.7" r="3" fill="#4e79a7"/><circle cx="462.2" cy="105.1" r="3" fill="#4e79a7"/><circle cx="474.3" cy="132.3" r="3" fill="#4e79a7"/><circle cx="486.3" cy="154.9" r="3" fill="#4e79a7"/><circle cx="498.4" cy="136.8" r="3" fill="#4e79a7"/><circle cx="510.5" cy="28.0" r="3" fill="#4e79a7"/><circle cx="522.5" cy="173.1" r="3" fill="#4e79a7"/><circle cx="534.6" cy="173.1" r="3" fill="#4e79a7"/><circle cx="546.6" cy="177.6" r="3" fill="#4e79a7"/><circle cx="558.7" cy="186.7" r="3" fill="#4e79a7"/><circle cx="570.8" cy="182.1" r="3" fill="#4e79a7"/><circle cx="582.8" cy="186.7" r="3" fill="#4e79a7"/><circle cx="594.9" cy="191.2" r="3" fill="#4e79a7"/><circle cx="607.0" cy="164.0" r="3" fill="#4e79a7"/><circle cx="619.0" cy="168.5" r="3" fill="#4e79a7"/><circle cx="631.1" cy="177.6" r="3" fill="#4e79a7"/><circle cx="643.2" cy="164.0" r="3" fill="#4e79a7"/><circle cx="655.2" cy="177.6" r="3" fill="#4e79a7"/><circle cx="667.3" cy="154.9" r="3" fill="#4e79a7"/><circle cx="679.4" cy="222.9" r="3" fill="#4e79a7"/><circle cx="691.4" cy="182.1" r="3" fill="#4e79a7"/><circle cx="703.5" cy="173.1" r="3" fill="#4e79a7"/><circle cx="715.5" cy="177.6" r="3" fill="#4e79a7"/><circle cx="727.6" cy="209.3" r="3" fill="#4e79a7"/><circle cx="739.7" cy="222.9" r="3" fill="#4e79a7"/><circle cx="751.7" cy="186.7" r="3" fill="#4e79a7"/><circle cx="763.8" cy="204.8" r="3" fill="#4e79a7"/><circle cx="775.9" cy="168.5" r="3" fill="#4e79a7"/><circle cx="787.9" cy="168.5" r="3" fill="#4e79a7"/><circle cx="800.0" cy="209.3" r="3" fill="#4e79a7"/>
  <circle cx="52.0" cy="232.0" r="3" fill="#f28e2b"/><circle cx="64.1" cy="232.0" r="3" fill="#f28e2b"/><circle cx="76.1" cy="232.0" r="3" fill="#f28e2b"/><circle cx="88.2" cy="232.0" r="3" fill="#f28e2b"/><circle cx="100.3" cy="232.0" r="3" fill="#f28e2b"/><circle cx="112.3" cy="232.0" r="3" fill="#f28e2b"/><circle cx="124.4" cy="232.0" r="3" fill="#f28e2b"/><circle cx="136.5" cy="232.0" r="3" fill="#f28e2b"/><circle cx="148.5" cy="232.0" r="3" fill="#f28e2b"/><circle cx="160.6" cy="232.0" r="3" fill="#f28e2b"/><circle cx="172.6" cy="232.0" r="3" fill="#f28e2b"/><circle cx="184.7" cy="232.0" r="3" fill="#f28e2b"/><circle cx="196.8" cy="232.0" r="3" fill="#f28e2b"/><circle cx="208.8" cy="200.3" r="3" fill="#f28e2b"/><circle cx="220.9" cy="123.2" r="3" fill="#f28e2b"/><circle cx="233.0" cy="182.1" r="3" fill="#f28e2b"/><circle cx="245.0" cy="195.7" r="3" fill="#f28e2b"/><circle cx="257.1" cy="182.1" r="3" fill="#f28e2b"/><circle cx="269.2" cy="159.5" r="3" fill="#f28e2b"/><circle cx="281.2" cy="168.5" r="3" fill="#f28e2b"/><circle cx="293.3" cy="182.1" r="3" fill="#f28e2b"/><circle cx="305.4" cy="195.7" r="3" fill="#f28e2b"/><circle cx="317.4" cy="182.1" r="3" fill="#f28e2b"/><circle cx="329.5" cy="177.6" r="3" fill="#f28e2b"/><circle cx="341.5" cy="164.0" r="3" fill="#f28e2b"/><circle cx="353.6" cy="186.7" r="3" fill="#f28e2b"/><circle cx="365.7" cy="182.1" r="3" fill="#f28e2b"/><circle cx="377.7" cy="191.2" r="3" fill="#f28e2b"/><circle cx="389.8" cy="204.8" r="3" fill="#f28e2b"/><circle cx="401.9" cy="191.2" r="3" fill="#f28e2b"/><circle cx="413.9" cy="182.1" r="3" fill="#f28e2b"/><circle cx="426.0" cy="195.7" r="3" fill="#f28e2b"/><circle cx="438.1" cy="200.3" r="3" fill="#f28e2b"/><circle cx="450.1" cy="173.1" r="3" fill="#f28e2b"/><circle cx="462.2" cy="159.5" r="3" fill="#f28e2b"/><circle cx="474.3" cy="177.6" r="3" fill="#f28e2b"/><circle cx="486.3" cy="182.1" r="3" fill="#f28e2b"/><circle cx="498.4" cy="177.6" r="3" fill="#f28e2b"/><circle cx="510.5" cy="177.6" r="3" fill="#f28e2b"/><circle cx="522.5" cy="186.7" r="3" fill="#f28e2b"/><circle cx="534.6" cy="186.7" r="3" fill="#f28e2b"/><circle cx="546.6" cy="191.2" r="3" fill="#f28e2b"/><circle cx="558.7" cy="200.3" r="3" fill="#f28e2b"/><circle cx="570.8" cy="195.7" r="3" fill="#f28e2b"/><circle cx="582.8" cy="200.3" r="3" fill="#f28e2b"/><circle cx="594.9" cy="191.2" r="3" fill="#f28e2b"/><circle cx="607.0" cy="177.6" r="3" fill="#f28e2b"/><circle cx="619.0" cy="182.1" r="3" fill="#f28e2b"/><circle cx="631.1" cy="191.2" r="3" fill="#f28e2b"/><circle cx="643.2" cy="177.6" r="3" fill="#f28e2b"/><circle cx="655.2" cy="191.2" r="3" fill="#f28e2b"/><circle cx="667.3" cy="173.1" r="3" fill="#f28e2b"/><circle cx="679.4" cy="222.9" r="3" fill="#f28e2b"/><circle cx="691.4" cy="195.7" r="3" fill="#f28e2b"/><circle cx="703.5" cy="200.3" r="3" fill="#f28e2b"/><circle cx="715.5" cy="191.2" r="3" fill="#f28e2b"/><circle cx="727.6" cy="209.3" r="3" fill="#f28e2b"/><circle cx="739.7" cy="222.9" r="3" fill="#f28e2b"/><circle cx="751.7" cy="200.3" r="3" fill="#f28e2b"/><circle cx="763.8" cy="209.3" r="3" fill="#f28e2b"/><circle cx="775.9" cy="182.1" r="3" fill="#f28e2b"/><circle cx="787.9" cy="186.7" r="3" fill="#f28e2b"/><circle cx="800.0" cy="209.3" r="3" fill="#f28e2b"/>

  <!-- axes -->
  <line x1="52" y1="28" x2="52" y2="232"
        stroke="#cccccc" stroke-width="1"/>
  <line x1="52" y1="232" x2="800" y2="232"
        stroke="#cccccc" stroke-width="1"/>

  <!-- y-axis labels -->
  <text x="47" y="236.0" text-anchor="end" font-size="10" fill="#57606a" font-family="ui-monospace, SFMono-Regular, 'SF Mono', Menlo, monospace">0</text><text x="47" y="195.2" text-anchor="end" font-size="10" fill="#57606a" font-family="ui-monospace, SFMono-Regular, 'SF Mono', Menlo, monospace">9</text><text x="47" y="154.4" text-anchor="end" font-size="10" fill="#57606a" font-family="ui-monospace, SFMono-Regular, 'SF Mono', Menlo, monospace">18</text><text x="47" y="113.6" text-anchor="end" font-size="10" fill="#57606a" font-family="ui-monospace, SFMono-Regular, 'SF Mono', Menlo, monospace">27</text><text x="47" y="72.8" text-anchor="end" font-size="10" fill="#57606a" font-family="ui-monospace, SFMono-Regular, 'SF Mono', Menlo, monospace">36</text><text x="47" y="32.0" text-anchor="end" font-size="10" fill="#57606a" font-family="ui-monospace, SFMono-Regular, 'SF Mono', Menlo, monospace">45</text>

  <!-- x-axis labels -->
  <text x="52.0" y="248" text-anchor="middle" font-size="10" fill="#8c959f" font-family="ui-monospace, SFMono-Regular, 'SF Mono', Menlo, monospace">05-12</text><text x="474.3" y="248" text-anchor="middle" font-size="10" fill="#8c959f" font-family="ui-monospace, SFMono-Regular, 'SF Mono', Menlo, monospace">06-16</text><text x="136.5" y="248" text-anchor="middle" font-size="10" fill="#8c959f" font-family="ui-monospace, SFMono-Regular, 'SF Mono', Menlo, monospace">05-19</text><text x="558.7" y="248" text-anchor="middle" font-size="10" fill="#8c959f" font-family="ui-monospace, SFMono-Regular, 'SF Mono', Menlo, monospace">06-23</text><text x="220.9" y="248" text-anchor="middle" font-size="10" fill="#8c959f" font-family="ui-monospace, SFMono-Regular, 'SF Mono', Menlo, monospace">05-26</text><text x="643.2" y="248" text-anchor="middle" font-size="10" fill="#8c959f" font-family="ui-monospace, SFMono-Regular, 'SF Mono', Menlo, monospace">06-30</text><text x="305.4" y="248" text-anchor="middle" font-size="10" fill="#8c959f" font-family="ui-monospace, SFMono-Regular, 'SF Mono', Menlo, monospace">06-02</text><text x="727.6" y="248" text-anchor="middle" font-size="10" fill="#8c959f" font-family="ui-monospace, SFMono-Regular, 'SF Mono', Menlo, monospace">07-07</text><text x="389.8" y="248" text-anchor="middle" font-size="10" fill="#8c959f" font-family="ui-monospace, SFMono-Regular, 'SF Mono', Menlo, monospace">06-09</text><text x="800.0" y="248" text-anchor="middle" font-size="10" fill="#8c959f" font-family="ui-monospace, SFMono-Regular, 'SF Mono', Menlo, monospace">07-13</text>

  <!-- legend -->
  <rect x="60" y="262" width="16" height="3" fill="#4e79a7" rx="1"/><text x="80" y="268" font-size="11" fill="#57606a" font-family="-apple-system, BlinkMacSystemFont, 'Segoe UI', sans-serif">Total clones (712)</text><line x1="230" y1="264" x2="246" y2="264" stroke="#f28e2b" stroke-width="2" stroke-dasharray="5,3"/><text x="250" y="268" font-size="11" fill="#57606a" font-family="-apple-system, BlinkMacSystemFont, 'Segoe UI', sans-serif">Unique cloners</text>

</svg>