<svg xmlns="http://www.w3.org/2000/svg" viewBox="0 0 820 280" width="820" height="280">

  <!-- title -->
  <text x="52" y="18" font-size="13" font-weight="600"
        fill="#24292f" font-family="-apple-system, BlinkMacSystemFont, 'Segoe UI', sans-serif"
        >Clone traffic — stats</text>
  <text x="800" y="18" font-size="10" fill="#8c959f"
        font-family="ui-monospace, SFMono-Regular, 'SF Mono', Menlo, monospace" text-anchor="end">2026-07-04</text>

  <!-- grid -->
  <line x1="52" y1="232.0" x2="800" y2="232.0" stroke="#e8e8e8" stroke-width="1"/><line x1="52" y1="191.2" x2="800" y2="191.2" stroke="#e8e8e8" stroke-width="1"/><line x1="52" y1="150.4" x2="800" y2="150.4" stroke="#e8e8e8" stroke-width="1"/><line x1="52" y1="109.6" x2="800" y2="109.6" stroke="#e8e8e8" stroke-width="1"/><line x1="52" y1="68.8" x2="800" y2="68.8" stroke="#e8e8e8" stroke-width="1"/><line x1="52" y1="28.0" x2="800" y2="28.0" stroke="#e8e8e8" stroke-width="1"/>

  <!-- area fill -->
  <path d="M52.0,232.0 L52.0,232.0 L66.7,232.0 L81.3,232.0 L96.0,232.0 L110.7,232.0 L125.3,232.0 L140.0,232.0 L154.7,232.0 L169.3,232.0 L184.0,232.0 L198.7,232.0 L213.3,232.0 L228.0,232.0 L242.7,200.3 L257.3,50.7 L272.0,168.5 L286.7,182.1 L301.3,168.5 L316.0,145.9 L330.7,145.9 L345.3,164.0 L360.0,177.6 L374.7,168.5 L389.3,164.0 L404.0,150.4 L418.7,173.1 L433.3,168.5 L448.0,177.6 L462.7,204.8 L477.3,159.5 L492.0,168.5 L506.7,182.1 L521.3,173.1 L536.0,118.7 L550.7,105.1 L565.3,132.3 L580.0,154.9 L594.7,136.8 L609.3,28.0 L624.0,173.1 L638.7,173.1 L653.3,177.6 L668.0,186.7 L682.7,182.1 L697.3,186.7 L712.0,191.2 L726.7,164.0 L741.3,168.5 L756.0,177.6 L770.7,164.0 L785.3,177.6 L800.0,154.9 L800.0,232.0 L52.0,232.0Z" fill="#4e79a7" opacity="0.12"/>

  <!-- lines -->
  <polyline points="52.0,232.0 66.7,232.0 81.3,232.0 96.0,232.0 110.7,232.0 125.3,232.0 140.0,232.0 154.7,232.0 169.3,232.0 184.0,232.0 198.7,232.0 213.3,232.0 228.0,232.0 242.7,200.3 257.3,50.7 272.0,168.5 286.7,182.1 301.3,168.5 316.0,145.9 330.7,145.9 345.3,164.0 360.0,177.6 374.7,168.5 389.3,164.0 404.0,150.4 418.7,173.1 433.3,168.5 448.0,177.6 462.7,204.8 477.3,159.5 492.0,168.5 506.7,182.1 521.3,173.1 536.0,118.7 550.7,105.1 565.3,132.3 580.0,154.9 594.7,136.8 609.3,28.0 624.0,173.1 638.7,173.1 653.3,177.6 668.0,186.7 682.7,182.1 697.3,186.7 712.0,191.2 726.7,164.0 741.3,168.5 756.0,177.6 770.7,164.0 785.3,177.6 800.0,154.9"
            fill="none" stroke="#4e79a7"
            stroke-width="2" stroke-linejoin="round"/>
  <polyline points="52.0,232.0 66.7,232.0 81.3,232.0 96.0,232.0 110.7,232.0 125.3,232.0 140.0,232.0 154.7,232.0 169.3,232.0 184.0,232.0 198.7,232.0 213.3,232.0 228.0,232.0 242.7,200.3 257.3,123.2 272.0,182.1 286.7,195.7 301.3,182.1 316.0,159.5 330.7,168.5 345.3,182.1 360.0,195.7 374.7,182.1 389.3,177.6 404.0,164.0 418.7,186.7 433.3,182.1 448.0,191.2 462.7,204.8 477.3,191.2 492.0,182.1 506.7,195.7 521.3,200.3 536.0,173.1 550.7,159.5 565.3,177.6 580.0,182.1 594.7,177.6 609.3,177.6 624.0,186.7 638.7,186.7 653.3,191.2 668.0,200.3 682.7,195.7 697.3,200.3 712.0,191.2 726.7,177.6 741.3,182.1 756.0,191.2 770.7,177.6 785.3,191.2 800.0,173.1"
            fill="none" stroke="#f28e2b"
            stroke-width="2" stroke-linejoin="round"
            stroke-dasharray="5,3"/>

  <!-- dots -->
  <circle cx="52.0" cy="232.0" r="3" fill="#4e79a7"/><circle cx="66.7" cy="232.0" r="3" fill="#4e79a7"/><circle cx="81.3" cy="232.0" r="3" fill="#4e79a7"/><circle cx="96.0" cy="232.0" r="3" fill="#4e79a7"/><circle cx="110.7" cy="232.0" r="3" fill="#4e79a7"/><circle cx="125.3" cy="232.0" r="3" fill="#4e79a7"/><circle cx="140.0" cy="232.0" r="3" fill="#4e79a7"/><circle cx="154.7" cy="232.0" r="3" fill="#4e79a7"/><circle cx="169.3" cy="232.0" r="3" fill="#4e79a7"/><circle cx="184.0" cy="232.0" r="3" fill="#4e79a7"/><circle cx="198.7" cy="232.0" r="3" fill="#4e79a7"/><circle cx="213.3" cy="232.0" r="3" fill="#4e79a7"/><circle cx="228.0" cy="232.0" r="3" fill="#4e79a7"/><circle cx="242.7" cy="200.3" r="3" fill="#4e79a7"/><circle cx="257.3" cy="50.7" r="3" fill="#4e79a7"/><circle cx="272.0" cy="168.5" r="3" fill="#4e79a7"/><circle cx="286.7" cy="182.1" r="3" fill="#4e79a7"/><circle cx="301.3" cy="168.5" r="3" fill="#4e79a7"/><circle cx="316.0" cy="145.9" r="3" fill="#4e79a7"/><circle cx="330.7" cy="145.9" r="3" fill="#4e79a7"/><circle cx="345.3" cy="164.0" r="3" fill="#4e79a7"/><circle cx="360.0" cy="177.6" r="3" fill="#4e79a7"/><circle cx="374.7" cy="168.5" r="3" fill="#4e79a7"/><circle cx="389.3" cy="164.0" r="3" fill="#4e79a7"/><circle cx="404.0" cy="150.4" r="3" fill="#4e79a7"/><circle cx="418.7" cy="173.1" r="3" fill="#4e79a7"/><circle cx="433.3" cy="168.5" r="3" fill="#4e79a7"/><circle cx="448.0" cy="177.6" r="3" fill="#4e79a7"/><circle cx="462.7" cy="204.8" r="3" fill="#4e79a7"/><circle cx="477.3" cy="159.5" r="3" fill="#4e79a7"/><circle cx="492.0" cy="168.5" r="3" fill="#4e79a7"/><circle cx="506.7" cy="182.1" r="3" fill="#4e79a7"/><circle cx="521.3" cy="173.1" r="3" fill="#4e79a7"/><circle cx="536.0" cy="118.7" r="3" fill="#4e79a7"/><circle cx="550.7" cy="105.1" r="3" fill="#4e79a7"/><circle cx="565.3" cy="132.3" r="3" fill="#4e79a7"/><circle cx="580.0" cy="154.9" r="3" fill="#4e79a7"/><circle cx="594.7" cy="136.8" r="3" fill="#4e79a7"/><circle cx="609.3" cy="28.0" r="3" fill="#4e79a7"/><circle cx="624.0" cy="173.1" r="3" fill="#4e79a7"/><circle cx="638.7" cy="173.1" r="3" fill="#4e79a7"/><circle cx="653.3" cy="177.6" r="3" fill="#4e79a7"/><circle cx="668.0" cy="186.7" r="3" fill="#4e79a7"/><circle cx="682.7" cy="182.1" r="3" fill="#4e79a7"/><circle cx="697.3" cy="186.7" r="3" fill="#4e79a7"/><circle cx="712.0" cy="191.2" r="3" fill="#4e79a7"/><circle cx="726.7" cy="164.0" r="3" fill="#4e79a7"/><circle cx="741.3" cy="168.5" r="3" fill="#4e79a7"/><circle cx="756.0" cy="177.6" r="3" fill="#4e79a7"/><circle cx="770.7" cy="164.0" r="3" fill="#4e79a7"/><circle cx="785.3" cy="177.6" r="3" fill="#4e79a7"/><circle cx="800.0" cy="154.9" r="3" fill="#4e79a7"/>
  <circle cx="52.0" cy="232.0" r="3" fill="#f28e2b"/><circle cx="66.7" cy="232.0" r="3" fill="#f28e2b"/><circle cx="81.3" cy="232.0" r="3" fill="#f28e2b"/><circle cx="96.0" cy="232.0" r="3" fill="#f28e2b"/><circle cx="110.7" cy="232.0" r="3" fill="#f28e2b"/><circle cx="125.3" cy="232.0" r="3" fill="#f28e2b"/><circle cx="140.0" cy="232.0" r="3" fill="#f28e2b"/><circle cx="154.7" cy="232.0" r="3" fill="#f28e2b"/><circle cx="169.3" cy="232.0" r="3" fill="#f28e2b"/><circle cx="184.0" cy="232.0" r="3" fill="#f28e2b"/><circle cx="198.7" cy="232.0" r="3" fill="#f28e2b"/><circle cx="213.3" cy="232.0" r="3" fill="#f28e2b"/><circle cx="228.0" cy="232.0" r="3" fill="#f28e2b"/><circle cx="242.7" cy="200.3" r="3" fill="#f28e2b"/><circle cx="257.3" cy="123.2" r="3" fill="#f28e2b"/><circle cx="272.0" cy="182.1" r="3" fill="#f28e2b"/><circle cx="286.7" cy="195.7" r="3" fill="#f28e2b"/><circle cx="301.3" cy="182.1" r="3" fill="#f28e2b"/><circle cx="316.0" cy="159.5" r="3" fill="#f28e2b"/><circle cx="330.7" cy="168.5" r="3" fill="#f28e2b"/><circle cx="345.3" cy="182.1" r="3" fill="#f28e2b"/><circle cx="360.0" cy="195.7" r="3" fill="#f28e2b"/><circle cx="374.7" cy="182.1" r="3" fill="#f28e2b"/><circle cx="389.3" cy="177.6" r="3" fill="#f28e2b"/><circle cx="404.0" cy="164.0" r="3" fill="#f28e2b"/><circle cx="418.7" cy="186.7" r="3" fill="#f28e2b"/><circle cx="433.3" cy="182.1" r="3" fill="#f28e2b"/><circle cx="448.0" cy="191.2" r="3" fill="#f28e2b"/><circle cx="462.7" cy="204.8" r="3" fill="#f28e2b"/><circle cx="477.3" cy="191.2" r="3" fill="#f28e2b"/><circle cx="492.0" cy="182.1" r="3" fill="#f28e2b"/><circle cx="506.7" cy="195.7" r="3" fill="#f28e2b"/><circle cx="521.3" cy="200.3" r="3" fill="#f28e2b"/><circle cx="536.0" cy="173.1" r="3" fill="#f28e2b"/><circle cx="550.7" cy="159.5" r="3" fill="#f28e2b"/><circle cx="565.3" cy="177.6" r="3" fill="#f28e2b"/><circle cx="580.0" cy="182.1" r="3" fill="#f28e2b"/><circle cx="594.7" cy="177.6" r="3" fill="#f28e2b"/><circle cx="609.3" cy="177.6" r="3" fill="#f28e2b"/><circle cx="624.0" cy="186.7" r="3" fill="#f28e2b"/><circle cx="638.7" cy="186.7" r="3" fill="#f28e2b"/><circle cx="653.3" cy="191.2" r="3" fill="#f28e2b"/><circle cx="668.0" cy="200.3" r="3" fill="#f28e2b"/><circle cx="682.7" cy="195.7" r="3" fill="#f28e2b"/><circle cx="697.3" cy="200.3" r="3" fill="#f28e2b"/><circle cx="712.0" cy="191.2" r="3" fill="#f28e2b"/><circle cx="726.7" cy="177.6" r="3" fill="#f28e2b"/><circle cx="741.3" cy="182.1" r="3" fill="#f28e2b"/><circle cx="756.0" cy="191.2" r="3" fill="#f28e2b"/><circle cx="770.7" cy="177.6" r="3" fill="#f28e2b"/><circle cx="785.3" cy="191.2" r="3" fill="#f28e2b"/><circle cx="800.0" cy="173.1" r="3" fill="#f28e2b"/>

  <!-- axes -->
  <line x1="52" y1="28" x2="52" y2="232"
        stroke="#cccccc" stroke-width="1"/>
  <line x1="52" y1="232" x2="800" y2="232"
        stroke="#cccccc" stroke-width="1"/>

  <!-- y-axis labels -->
  <text x="47" y="236.0" text-anchor="end" font-size="10" fill="#57606a" font-family="ui-monospace, SFMono-Regular, 'SF Mono', Menlo, monospace">0</text><text x="47" y="195.2" text-anchor="end" font-size="10" fill="#57606a" font-family="ui-monospace, SFMono-Regular, 'SF Mono', Menlo, monospace">9</text><text x="47" y="154.4" text-anchor="end" font-size="10" fill="#57606a" font-family="ui-monospace, SFMono-Regular, 'SF Mono', Menlo, monospace">18</text><text x="47" y="113.6" text-anchor="end" font-size="10" fill="#57606a" font-family="ui-monospace, SFMono-Regular, 'SF Mono', Menlo, monospace">27</text><text x="47" y="72.8" text-anchor="end" font-size="10" fill="#57606a" font-family="ui-monospace, SFMono-Regular, 'SF Mono', Menlo, monospace">36</text><text x="47" y="32.0" text-anchor="end" font-size="10" fill="#57606a" font-family="ui-monospace, SFMono-Regular, 'SF Mono', Menlo, monospace">45</text>

  <!-- x-axis labels -->
  <text x="52.0" y="248" text-anchor="middle" font-size="10" fill="#8c959f" font-family="ui-monospace, SFMono-Regular, 'SF Mono', Menlo, monospace">05-12</text><text x="580.0" y="248" text-anchor="middle" font-size="10" fill="#8c959f" font-family="ui-monospace, SFMono-Regular, 'SF Mono', Menlo, monospace">06-17</text><text x="140.0" y="248" text-anchor="middle" font-size="10" fill="#8c959f" font-family="ui-monospace, SFMono-Regular, 'SF Mono', Menlo, monospace">05-18</text><text x="668.0" y="248" text-anchor="middle" font-size="10" fill="#8c959f" font-family="ui-monospace, SFMono-Regular, 'SF Mono', Menlo, monospace">06-23</text><text x="228.0" y="248" text-anchor="middle" font-size="10" fill="#8c959f" font-family="ui-monospace, SFMono-Regular, 'SF Mono', Menlo, monospace">05-24</text><text x="756.0" y="248" text-anchor="middle" font-size="10" fill="#8c959f" font-family="ui-monospace, SFMono-Regular, 'SF Mono', Menlo, monospace">06-29</text><text x="316.0" y="248" text-anchor="middle" font-size="10" fill="#8c959f" font-family="ui-monospace, SFMono-Regular, 'SF Mono', Menlo, monospace">05-30</text><text x="800.0" y="248" text-anchor="middle" font-size="10" fill="#8c959f" font-family="ui-monospace, SFMono-Regular, 'SF Mono', Menlo, monospace">07-02</text><text x="404.0" y="248" text-anchor="middle" font-size="10" fill="#8c959f" font-family="ui-monospace, SFMono-Regular, 'SF Mono', Menlo, monospace">06-05</text><text x="492.0" y="248" text-anchor="middle" font-size="10" fill="#8c959f" font-family="ui-monospace, SFMono-Regular, 'SF Mono', Menlo, monospace">06-11</text>

  <!-- legend -->
  <rect x="60" y="262" width="16" height="3" fill="#4e79a7" rx="1"/><text x="80" y="268" font-size="11" fill="#57606a" font-family="-apple-system, BlinkMacSystemFont, 'Segoe UI', sans-serif">Total clones (618)</text><line x1="230" y1="264" x2="246" y2="264" stroke="#f28e2b" stroke-width="2" stroke-dasharray="5,3"/><text x="250" y="268" font-size="11" fill="#57606a" font-family="-apple-system, BlinkMacSystemFont, 'Segoe UI', sans-serif">Unique cloners</text>

</svg>