<svg xmlns="http://www.w3.org/2000/svg" viewBox="0 0 820 280" width="820" height="280">

  <!-- title -->
  <text x="52" y="18" font-size="13" font-weight="600"
        fill="#24292f" font-family="-apple-system, BlinkMacSystemFont, 'Segoe UI', sans-serif"
        >Clone traffic — vellum</text>
  <text x="800" y="18" font-size="10" fill="#8c959f"
        font-family="ui-monospace, SFMono-Regular, 'SF Mono', Menlo, monospace" text-anchor="end">2026-06-22</text>

  <!-- grid -->
  <line x1="52" y1="232.0" x2="800" y2="232.0" stroke="#e8e8e8" stroke-width="1"/><line x1="52" y1="193.9" x2="800" y2="193.9" stroke="#e8e8e8" stroke-width="1"/><line x1="52" y1="155.7" x2="800" y2="155.7" stroke="#e8e8e8" stroke-width="1"/><line x1="52" y1="117.6" x2="800" y2="117.6" stroke="#e8e8e8" stroke-width="1"/><line x1="52" y1="79.5" x2="800" y2="79.5" stroke="#e8e8e8" stroke-width="1"/><line x1="52" y1="41.3" x2="800" y2="41.3" stroke="#e8e8e8" stroke-width="1"/><line x1="52" y1="3.2" x2="800" y2="3.2" stroke="#e8e8e8" stroke-width="1"/>

  <!-- area fill -->
  <path d="M52.0,232.0 L52.0,232.0 L72.2,232.0 L92.4,232.0 L112.6,232.0 L132.9,232.0 L153.1,232.0 L173.3,232.0 L193.5,232.0 L213.7,232.0 L233.9,232.0 L254.2,232.0 L274.4,232.0 L294.6,232.0 L314.8,172.3 L335.0,28.0 L355.2,75.7 L375.5,187.5 L395.7,176.1 L415.9,60.4 L436.1,62.3 L456.3,190.7 L476.5,135.4 L496.8,209.8 L517.0,220.6 L537.2,230.7 L557.4,232.0 L577.6,231.4 L597.8,228.8 L618.1,232.0 L638.3,232.0 L658.5,232.0 L678.7,203.4 L698.9,232.0 L719.1,203.4 L739.4,221.8 L759.6,172.9 L779.8,228.2 L800.0,232.0 L800.0,232.0 L52.0,232.0Z" fill="#4e79a7" opacity="0.12"/>

  <!-- lines -->
  <polyline points="52.0,232.0 72.2,232.0 92.4,232.0 112.6,232.0 132.9,232.0 153.1,232.0 173.3,232.0 193.5,232.0 213.7,232.0 233.9,232.0 254.2,232.0 274.4,232.0 294.6,232.0 314.8,172.3 335.0,28.0 355.2,75.7 375.5,187.5 395.7,176.1 415.9,60.4 436.1,62.3 456.3,190.7 476.5,135.4 496.8,209.8 517.0,220.6 537.2,230.7 557.4,232.0 577.6,231.4 597.8,228.8 618.1,232.0 638.3,232.0 658.5,232.0 678.7,203.4 698.9,232.0 719.1,203.4 739.4,221.8 759.6,172.9 779.8,228.2 800.0,232.0"
            fill="none" stroke="#4e79a7"
            stroke-width="2" stroke-linejoin="round"/>
  <polyline points="52.0,232.0 72.2,232.0 92.4,232.0 112.6,232.0 132.9,232.0 153.1,232.0 173.3,232.0 193.5,232.0 213.7,232.0 233.9,232.0 254.2,232.0 274.4,232.0 294.6,232.0 314.8,217.4 335.0,151.3 355.2,185.0 375.5,221.8 395.7,209.1 415.9,175.4 436.1,182.4 456.3,209.1 476.5,189.4 496.8,225.6 517.0,228.2 537.2,231.4 557.4,232.0 577.6,231.4 597.8,230.1 618.1,232.0 638.3,232.0 658.5,232.0 678.7,227.6 698.9,232.0 719.1,226.9 739.4,229.5 759.6,211.7 779.8,228.2 800.0,232.0"
            fill="none" stroke="#f28e2b"
            stroke-width="2" stroke-linejoin="round"
            stroke-dasharray="5,3"/>

  <!-- dots -->
  <circle cx="52.0" cy="232.0" r="3" fill="#4e79a7"/><circle cx="72.2" cy="232.0" r="3" fill="#4e79a7"/><circle cx="92.4" cy="232.0" r="3" fill="#4e79a7"/><circle cx="112.6" cy="232.0" r="3" fill="#4e79a7"/><circle cx="132.9" cy="232.0" r="3" fill="#4e79a7"/><circle cx="153.1" cy="232.0" r="3" fill="#4e79a7"/><circle cx="173.3" cy="232.0" r="3" fill="#4e79a7"/><circle cx="193.5" cy="232.0" r="3" fill="#4e79a7"/><circle cx="213.7" cy="232.0" r="3" fill="#4e79a7"/><circle cx="233.9" cy="232.0" r="3" fill="#4e79a7"/><circle cx="254.2" cy="232.0" r="3" fill="#4e79a7"/><circle cx="274.4" cy="232.0" r="3" fill="#4e79a7"/><circle cx="294.6" cy="232.0" r="3" fill="#4e79a7"/><circle cx="314.8" cy="172.3" r="3" fill="#4e79a7"/><circle cx="335.0" cy="28.0" r="3" fill="#4e79a7"/><circle cx="355.2" cy="75.7" r="3" fill="#4e79a7"/><circle cx="375.5" cy="187.5" r="3" fill="#4e79a7"/><circle cx="395.7" cy="176.1" r="3" fill="#4e79a7"/><circle cx="415.9" cy="60.4" r="3" fill="#4e79a7"/><circle cx="436.1" cy="62.3" r="3" fill="#4e79a7"/><circle cx="456.3" cy="190.7" r="3" fill="#4e79a7"/><circle cx="476.5" cy="135.4" r="3" fill="#4e79a7"/><circle cx="496.8" cy="209.8" r="3" fill="#4e79a7"/><circle cx="517.0" cy="220.6" r="3" fill="#4e79a7"/><circle cx="537.2" cy="230.7" r="3" fill="#4e79a7"/><circle cx="557.4" cy="232.0" r="3" fill="#4e79a7"/><circle cx="577.6" cy="231.4" r="3" fill="#4e79a7"/><circle cx="597.8" cy="228.8" r="3" fill="#4e79a7"/><circle cx="618.1" cy="232.0" r="3" fill="#4e79a7"/><circle cx="638.3" cy="232.0" r="3" fill="#4e79a7"/><circle cx="658.5" cy="232.0" r="3" fill="#4e79a7"/><circle cx="678.7" cy="203.4" r="3" fill="#4e79a7"/><circle cx="698.9" cy="232.0" r="3" fill="#4e79a7"/><circle cx="719.1" cy="203.4" r="3" fill="#4e79a7"/><circle cx="739.4" cy="221.8" r="3" fill="#4e79a7"/><circle cx="759.6" cy="172.9" r="3" fill="#4e79a7"/><circle cx="779.8" cy="228.2" r="3" fill="#4e79a7"/><circle cx="800.0" cy="232.0" r="3" fill="#4e79a7"/>
  <circle cx="52.0" cy="232.0" r="3" fill="#f28e2b"/><circle cx="72.2" cy="232.0" r="3" fill="#f28e2b"/><circle cx="92.4" cy="232.0" r="3" fill="#f28e2b"/><circle cx="112.6" cy="232.0" r="3" fill="#f28e2b"/><circle cx="132.9" cy="232.0" r="3" fill="#f28e2b"/><circle cx="153.1" cy="232.0" r="3" fill="#f28e2b"/><circle cx="173.3" cy="232.0" r="3" fill="#f28e2b"/><circle cx="193.5" cy="232.0" r="3" fill="#f28e2b"/><circle cx="213.7" cy="232.0" r="3" fill="#f28e2b"/><circle cx="233.9" cy="232.0" r="3" fill="#f28e2b"/><circle cx="254.2" cy="232.0" r="3" fill="#f28e2b"/><circle cx="274.4" cy="232.0" r="3" fill="#f28e2b"/><circle cx="294.6" cy="232.0" r="3" fill="#f28e2b"/><circle cx="314.8" cy="217.4" r="3" fill="#f28e2b"/><circle cx="335.0" cy="151.3" r="3" fill="#f28e2b"/><circle cx="355.2" cy="185.0" r="3" fill="#f28e2b"/><circle cx="375.5" cy="221.8" r="3" fill="#f28e2b"/><circle cx="395.7" cy="209.1" r="3" fill="#f28e2b"/><circle cx="415.9" cy="175.4" r="3" fill="#f28e2b"/><circle cx="436.1" cy="182.4" r="3" fill="#f28e2b"/><circle cx="456.3" cy="209.1" r="3" fill="#f28e2b"/><circle cx="476.5" cy="189.4" r="3" fill="#f28e2b"/><circle cx="496.8" cy="225.6" r="3" fill="#f28e2b"/><circle cx="517.0" cy="228.2" r="3" fill="#f28e2b"/><circle cx="537.2" cy="231.4" r="3" fill="#f28e2b"/><circle cx="557.4" cy="232.0" r="3" fill="#f28e2b"/><circle cx="577.6" cy="231.4" r="3" fill="#f28e2b"/><circle cx="597.8" cy="230.1" r="3" fill="#f28e2b"/><circle cx="618.1" cy="232.0" r="3" fill="#f28e2b"/><circle cx="638.3" cy="232.0" r="3" fill="#f28e2b"/><circle cx="658.5" cy="232.0" r="3" fill="#f28e2b"/><circle cx="678.7" cy="227.6" r="3" fill="#f28e2b"/><circle cx="698.9" cy="232.0" r="3" fill="#f28e2b"/><circle cx="719.1" cy="226.9" r="3" fill="#f28e2b"/><circle cx="739.4" cy="229.5" r="3" fill="#f28e2b"/><circle cx="759.6" cy="211.7" r="3" fill="#f28e2b"/><circle cx="779.8" cy="228.2" r="3" fill="#f28e2b"/><circle cx="800.0" cy="232.0" r="3" fill="#f28e2b"/>

  <!-- axes -->
  <line x1="52" y1="28" x2="52" y2="232"
        stroke="#cccccc" stroke-width="1"/>
  <line x1="52" y1="232" x2="800" y2="232"
        stroke="#cccccc" stroke-width="1"/>

  <!-- y-axis labels -->
  <text x="47" y="236.0" text-anchor="end" font-size="10" fill="#57606a" font-family="ui-monospace, SFMono-Regular, 'SF Mono', Menlo, monospace">0</text><text x="47" y="197.9" text-anchor="end" font-size="10" fill="#57606a" font-family="ui-monospace, SFMono-Regular, 'SF Mono', Menlo, monospace">60</text><text x="47" y="159.7" text-anchor="end" font-size="10" fill="#57606a" font-family="ui-monospace, SFMono-Regular, 'SF Mono', Menlo, monospace">120</text><text x="47" y="121.6" text-anchor="end" font-size="10" fill="#57606a" font-family="ui-monospace, SFMono-Regular, 'SF Mono', Menlo, monospace">180</text><text x="47" y="83.5" text-anchor="end" font-size="10" fill="#57606a" font-family="ui-monospace, SFMono-Regular, 'SF Mono', Menlo, monospace">240</text><text x="47" y="45.3" text-anchor="end" font-size="10" fill="#57606a" font-family="ui-monospace, SFMono-Regular, 'SF Mono', Menlo, monospace">300</text><text x="47" y="7.2" text-anchor="end" font-size="10" fill="#57606a" font-family="ui-monospace, SFMono-Regular, 'SF Mono', Menlo, monospace">360</text>

  <!-- x-axis labels -->
  <text x="52.0" y="248" text-anchor="middle" font-size="10" fill="#8c959f" font-family="ui-monospace, SFMono-Regular, 'SF Mono', Menlo, monospace">05-14</text><text x="698.9" y="248" text-anchor="middle" font-size="10" fill="#8c959f" font-family="ui-monospace, SFMono-Regular, 'SF Mono', Menlo, monospace">06-15</text><text x="132.9" y="248" text-anchor="middle" font-size="10" fill="#8c959f" font-family="ui-monospace, SFMono-Regular, 'SF Mono', Menlo, monospace">05-18</text><text x="779.8" y="248" text-anchor="middle" font-size="10" fill="#8c959f" font-family="ui-monospace, SFMono-Regular, 'SF Mono', Menlo, monospace">06-19</text><text x="800.0" y="248" text-anchor="middle" font-size="10" fill="#8c959f" font-family="ui-monospace, SFMono-Regular, 'SF Mono', Menlo, monospace">06-20</text><text x="213.7" y="248" text-anchor="middle" font-size="10" fill="#8c959f" font-family="ui-monospace, SFMono-Regular, 'SF Mono', Menlo, monospace">05-22</text><text x="294.6" y="248" text-anchor="middle" font-size="10" fill="#8c959f" font-family="ui-monospace, SFMono-Regular, 'SF Mono', Menlo, monospace">05-26</text><text x="375.5" y="248" text-anchor="middle" font-size="10" fill="#8c959f" font-family="ui-monospace, SFMono-Regular, 'SF Mono', Menlo, monospace">05-30</text><text x="456.3" y="248" text-anchor="middle" font-size="10" fill="#8c959f" font-family="ui-monospace, SFMono-Regular, 'SF Mono', Menlo, monospace">06-03</text><text x="537.2" y="248" text-anchor="middle" font-size="10" fill="#8c959f" font-family="ui-monospace, SFMono-Regular, 'SF Mono', Menlo, monospace">06-07</text><text x="618.1" y="248" text-anchor="middle" font-size="10" fill="#8c959f" font-family="ui-monospace, SFMono-Regular, 'SF Mono', Menlo, monospace">06-11</text>

  <!-- legend -->
  <rect x="60" y="262" width="16" height="3" fill="#4e79a7" rx="1"/><text x="80" y="268" font-size="11" fill="#57606a" font-family="-apple-system, BlinkMacSystemFont, 'Segoe UI', sans-serif">Total clones (1,839)</text><line x1="230" y1="264" x2="246" y2="264" stroke="#f28e2b" stroke-width="2" stroke-dasharray="5,3"/><text x="250" y="268" font-size="11" fill="#57606a" font-family="-apple-system, BlinkMacSystemFont, 'Segoe UI', sans-serif">Unique cloners</text>

</svg>