<svg xmlns="http://www.w3.org/2000/svg" viewBox="0 0 820 280" width="820" height="280">

  <!-- title -->
  <text x="52" y="18" font-size="13" font-weight="600"
        fill="#24292f" font-family="-apple-system, BlinkMacSystemFont, 'Segoe UI', sans-serif"
        >Clone traffic — vellum</text>
  <text x="800" y="18" font-size="10" fill="#8c959f"
        font-family="ui-monospace, SFMono-Regular, 'SF Mono', Menlo, monospace" text-anchor="end">2026-07-03</text>

  <!-- grid -->
  <line x1="52" y1="232.0" x2="800" y2="232.0" stroke="#e8e8e8" stroke-width="1"/><line x1="52" y1="193.9" x2="800" y2="193.9" stroke="#e8e8e8" stroke-width="1"/><line x1="52" y1="155.7" x2="800" y2="155.7" stroke="#e8e8e8" stroke-width="1"/><line x1="52" y1="117.6" x2="800" y2="117.6" stroke="#e8e8e8" stroke-width="1"/><line x1="52" y1="79.5" x2="800" y2="79.5" stroke="#e8e8e8" stroke-width="1"/><line x1="52" y1="41.3" x2="800" y2="41.3" stroke="#e8e8e8" stroke-width="1"/><line x1="52" y1="3.2" x2="800" y2="3.2" stroke="#e8e8e8" stroke-width="1"/>

  <!-- area fill -->
  <path d="M52.0,232.0 L52.0,232.0 L67.6,232.0 L83.2,232.0 L98.8,232.0 L114.3,232.0 L129.9,232.0 L145.5,232.0 L161.1,232.0 L176.7,232.0 L192.2,232.0 L207.8,232.0 L223.4,232.0 L239.0,232.0 L254.6,172.3 L270.2,28.0 L285.8,75.7 L301.3,187.5 L316.9,176.1 L332.5,60.4 L348.1,62.3 L363.7,190.7 L379.2,135.4 L394.8,209.8 L410.4,220.6 L426.0,230.7 L441.6,232.0 L457.2,231.4 L472.8,228.8 L488.3,232.0 L503.9,232.0 L519.5,232.0 L535.1,203.4 L550.7,232.0 L566.2,203.4 L581.8,221.8 L597.4,172.9 L613.0,228.2 L628.6,232.0 L644.2,230.1 L659.8,231.4 L675.3,232.0 L690.9,230.7 L706.5,232.0 L722.1,231.4 L737.7,231.4 L753.2,231.4 L768.8,232.0 L784.4,231.4 L800.0,231.4 L800.0,232.0 L52.0,232.0Z" fill="#4e79a7" opacity="0.12"/>

  <!-- lines -->
  <polyline points="52.0,232.0 67.6,232.0 83.2,232.0 98.8,232.0 114.3,232.0 129.9,232.0 145.5,232.0 161.1,232.0 176.7,232.0 192.2,232.0 207.8,232.0 223.4,232.0 239.0,232.0 254.6,172.3 270.2,28.0 285.8,75.7 301.3,187.5 316.9,176.1 332.5,60.4 348.1,62.3 363.7,190.7 379.2,135.4 394.8,209.8 410.4,220.6 426.0,230.7 441.6,232.0 457.2,231.4 472.8,228.8 488.3,232.0 503.9,232.0 519.5,232.0 535.1,203.4 550.7,232.0 566.2,203.4 581.8,221.8 597.4,172.9 613.0,228.2 628.6,232.0 644.2,230.1 659.8,231.4 675.3,232.0 690.9,230.7 706.5,232.0 722.1,231.4 737.7,231.4 753.2,231.4 768.8,232.0 784.4,231.4 800.0,231.4"
            fill="none" stroke="#4e79a7"
            stroke-width="2" stroke-linejoin="round"/>
  <polyline points="52.0,232.0 67.6,232.0 83.2,232.0 98.8,232.0 114.3,232.0 129.9,232.0 145.5,232.0 161.1,232.0 176.7,232.0 192.2,232.0 207.8,232.0 223.4,232.0 239.0,232.0 254.6,217.4 270.2,151.3 285.8,185.0 301.3,221.8 316.9,209.1 332.5,175.4 348.1,182.4 363.7,209.1 379.2,189.4 394.8,225.6 410.4,228.2 426.0,231.4 441.6,232.0 457.2,231.4 472.8,230.1 488.3,232.0 503.9,232.0 519.5,232.0 535.1,227.6 550.7,232.0 566.2,226.9 581.8,229.5 597.4,211.7 613.0,228.2 628.6,232.0 644.2,230.1 659.8,231.4 675.3,232.0 690.9,230.7 706.5,232.0 722.1,231.4 737.7,231.4 753.2,231.4 768.8,232.0 784.4,231.4 800.0,231.4"
            fill="none" stroke="#f28e2b"
            stroke-width="2" stroke-linejoin="round"
            stroke-dasharray="5,3"/>

  <!-- dots -->
  <circle cx="52.0" cy="232.0" r="3" fill="#4e79a7"/><circle cx="67.6" cy="232.0" r="3" fill="#4e79a7"/><circle cx="83.2" cy="232.0" r="3" fill="#4e79a7"/><circle cx="98.8" cy="232.0" r="3" fill="#4e79a7"/><circle cx="114.3" cy="232.0" r="3" fill="#4e79a7"/><circle cx="129.9" cy="232.0" r="3" fill="#4e79a7"/><circle cx="145.5" cy="232.0" r="3" fill="#4e79a7"/><circle cx="161.1" cy="232.0" r="3" fill="#4e79a7"/><circle cx="176.7" cy="232.0" r="3" fill="#4e79a7"/><circle cx="192.2" cy="232.0" r="3" fill="#4e79a7"/><circle cx="207.8" cy="232.0" r="3" fill="#4e79a7"/><circle cx="223.4" cy="232.0" r="3" fill="#4e79a7"/><circle cx="239.0" cy="232.0" r="3" fill="#4e79a7"/><circle cx="254.6" cy="172.3" r="3" fill="#4e79a7"/><circle cx="270.2" cy="28.0" r="3" fill="#4e79a7"/><circle cx="285.8" cy="75.7" r="3" fill="#4e79a7"/><circle cx="301.3" cy="187.5" r="3" fill="#4e79a7"/><circle cx="316.9" cy="176.1" r="3" fill="#4e79a7"/><circle cx="332.5" cy="60.4" r="3" fill="#4e79a7"/><circle cx="348.1" cy="62.3" r="3" fill="#4e79a7"/><circle cx="363.7" cy="190.7" r="3" fill="#4e79a7"/><circle cx="379.2" cy="135.4" r="3" fill="#4e79a7"/><circle cx="394.8" cy="209.8" r="3" fill="#4e79a7"/><circle cx="410.4" cy="220.6" r="3" fill="#4e79a7"/><circle cx="426.0" cy="230.7" r="3" fill="#4e79a7"/><circle cx="441.6" cy="232.0" r="3" fill="#4e79a7"/><circle cx="457.2" cy="231.4" r="3" fill="#4e79a7"/><circle cx="472.8" cy="228.8" r="3" fill="#4e79a7"/><circle cx="488.3" cy="232.0" r="3" fill="#4e79a7"/><circle cx="503.9" cy="232.0" r="3" fill="#4e79a7"/><circle cx="519.5" cy="232.0" r="3" fill="#4e79a7"/><circle cx="535.1" cy="203.4" r="3" fill="#4e79a7"/><circle cx="550.7" cy="232.0" r="3" fill="#4e79a7"/><circle cx="566.2" cy="203.4" r="3" fill="#4e79a7"/><circle cx="581.8" cy="221.8" r="3" fill="#4e79a7"/><circle cx="597.4" cy="172.9" r="3" fill="#4e79a7"/><circle cx="613.0" cy="228.2" r="3" fill="#4e79a7"/><circle cx="628.6" cy="232.0" r="3" fill="#4e79a7"/><circle cx="644.2" cy="230.1" r="3" fill="#4e79a7"/><circle cx="659.8" cy="231.4" r="3" fill="#4e79a7"/><circle cx="675.3" cy="232.0" r="3" fill="#4e79a7"/><circle cx="690.9" cy="230.7" r="3" fill="#4e79a7"/><circle cx="706.5" cy="232.0" r="3" fill="#4e79a7"/><circle cx="722.1" cy="231.4" r="3" fill="#4e79a7"/><circle cx="737.7" cy="231.4" r="3" fill="#4e79a7"/><circle cx="753.2" cy="231.4" r="3" fill="#4e79a7"/><circle cx="768.8" cy="232.0" r="3" fill="#4e79a7"/><circle cx="784.4" cy="231.4" r="3" fill="#4e79a7"/><circle cx="800.0" cy="231.4" r="3" fill="#4e79a7"/>
  <circle cx="52.0" cy="232.0" r="3" fill="#f28e2b"/><circle cx="67.6" cy="232.0" r="3" fill="#f28e2b"/><circle cx="83.2" cy="232.0" r="3" fill="#f28e2b"/><circle cx="98.8" cy="232.0" r="3" fill="#f28e2b"/><circle cx="114.3" cy="232.0" r="3" fill="#f28e2b"/><circle cx="129.9" cy="232.0" r="3" fill="#f28e2b"/><circle cx="145.5" cy="232.0" r="3" fill="#f28e2b"/><circle cx="161.1" cy="232.0" r="3" fill="#f28e2b"/><circle cx="176.7" cy="232.0" r="3" fill="#f28e2b"/><circle cx="192.2" cy="232.0" r="3" fill="#f28e2b"/><circle cx="207.8" cy="232.0" r="3" fill="#f28e2b"/><circle cx="223.4" cy="232.0" r="3" fill="#f28e2b"/><circle cx="239.0" cy="232.0" r="3" fill="#f28e2b"/><circle cx="254.6" cy="217.4" r="3" fill="#f28e2b"/><circle cx="270.2" cy="151.3" r="3" fill="#f28e2b"/><circle cx="285.8" cy="185.0" r="3" fill="#f28e2b"/><circle cx="301.3" cy="221.8" r="3" fill="#f28e2b"/><circle cx="316.9" cy="209.1" r="3" fill="#f28e2b"/><circle cx="332.5" cy="175.4" r="3" fill="#f28e2b"/><circle cx="348.1" cy="182.4" r="3" fill="#f28e2b"/><circle cx="363.7" cy="209.1" r="3" fill="#f28e2b"/><circle cx="379.2" cy="189.4" r="3" fill="#f28e2b"/><circle cx="394.8" cy="225.6" r="3" fill="#f28e2b"/><circle cx="410.4" cy="228.2" r="3" fill="#f28e2b"/><circle cx="426.0" cy="231.4" r="3" fill="#f28e2b"/><circle cx="441.6" cy="232.0" r="3" fill="#f28e2b"/><circle cx="457.2" cy="231.4" r="3" fill="#f28e2b"/><circle cx="472.8" cy="230.1" r="3" fill="#f28e2b"/><circle cx="488.3" cy="232.0" r="3" fill="#f28e2b"/><circle cx="503.9" cy="232.0" r="3" fill="#f28e2b"/><circle cx="519.5" cy="232.0" r="3" fill="#f28e2b"/><circle cx="535.1" cy="227.6" r="3" fill="#f28e2b"/><circle cx="550.7" cy="232.0" r="3" fill="#f28e2b"/><circle cx="566.2" cy="226.9" r="3" fill="#f28e2b"/><circle cx="581.8" cy="229.5" r="3" fill="#f28e2b"/><circle cx="597.4" cy="211.7" r="3" fill="#f28e2b"/><circle cx="613.0" cy="228.2" r="3" fill="#f28e2b"/><circle cx="628.6" cy="232.0" r="3" fill="#f28e2b"/><circle cx="644.2" cy="230.1" r="3" fill="#f28e2b"/><circle cx="659.8" cy="231.4" r="3" fill="#f28e2b"/><circle cx="675.3" cy="232.0" r="3" fill="#f28e2b"/><circle cx="690.9" cy="230.7" r="3" fill="#f28e2b"/><circle cx="706.5" cy="232.0" r="3" fill="#f28e2b"/><circle cx="722.1" cy="231.4" r="3" fill="#f28e2b"/><circle cx="737.7" cy="231.4" r="3" fill="#f28e2b"/><circle cx="753.2" cy="231.4" r="3" fill="#f28e2b"/><circle cx="768.8" cy="232.0" r="3" fill="#f28e2b"/><circle cx="784.4" cy="231.4" r="3" fill="#f28e2b"/><circle cx="800.0" cy="231.4" r="3" fill="#f28e2b"/>

  <!-- axes -->
  <line x1="52" y1="28" x2="52" y2="232"
        stroke="#cccccc" stroke-width="1"/>
  <line x1="52" y1="232" x2="800" y2="232"
        stroke="#cccccc" stroke-width="1"/>

  <!-- y-axis labels -->
  <text x="47" y="236.0" text-anchor="end" font-size="10" fill="#57606a" font-family="ui-monospace, SFMono-Regular, 'SF Mono', Menlo, monospace">0</text><text x="47" y="197.9" text-anchor="end" font-size="10" fill="#57606a" font-family="ui-monospace, SFMono-Regular, 'SF Mono', Menlo, monospace">60</text><text x="47" y="159.7" text-anchor="end" font-size="10" fill="#57606a" font-family="ui-monospace, SFMono-Regular, 'SF Mono', Menlo, monospace">120</text><text x="47" y="121.6" text-anchor="end" font-size="10" fill="#57606a" font-family="ui-monospace, SFMono-Regular, 'SF Mono', Menlo, monospace">180</text><text x="47" y="83.5" text-anchor="end" font-size="10" fill="#57606a" font-family="ui-monospace, SFMono-Regular, 'SF Mono', Menlo, monospace">240</text><text x="47" y="45.3" text-anchor="end" font-size="10" fill="#57606a" font-family="ui-monospace, SFMono-Regular, 'SF Mono', Menlo, monospace">300</text><text x="47" y="7.2" text-anchor="end" font-size="10" fill="#57606a" font-family="ui-monospace, SFMono-Regular, 'SF Mono', Menlo, monospace">360</text>

  <!-- x-axis labels -->
  <text x="52.0" y="248" text-anchor="middle" font-size="10" fill="#8c959f" font-family="ui-monospace, SFMono-Regular, 'SF Mono', Menlo, monospace">05-14</text><text x="613.0" y="248" text-anchor="middle" font-size="10" fill="#8c959f" font-family="ui-monospace, SFMono-Regular, 'SF Mono', Menlo, monospace">06-19</text><text x="145.5" y="248" text-anchor="middle" font-size="10" fill="#8c959f" font-family="ui-monospace, SFMono-Regular, 'SF Mono', Menlo, monospace">05-20</text><text x="706.5" y="248" text-anchor="middle" font-size="10" fill="#8c959f" font-family="ui-monospace, SFMono-Regular, 'SF Mono', Menlo, monospace">06-25</text><text x="239.0" y="248" text-anchor="middle" font-size="10" fill="#8c959f" font-family="ui-monospace, SFMono-Regular, 'SF Mono', Menlo, monospace">05-26</text><text x="800.0" y="248" text-anchor="middle" font-size="10" fill="#8c959f" font-family="ui-monospace, SFMono-Regular, 'SF Mono', Menlo, monospace">07-01</text><text x="332.5" y="248" text-anchor="middle" font-size="10" fill="#8c959f" font-family="ui-monospace, SFMono-Regular, 'SF Mono', Menlo, monospace">06-01</text><text x="426.0" y="248" text-anchor="middle" font-size="10" fill="#8c959f" font-family="ui-monospace, SFMono-Regular, 'SF Mono', Menlo, monospace">06-07</text><text x="519.5" y="248" text-anchor="middle" font-size="10" fill="#8c959f" font-family="ui-monospace, SFMono-Regular, 'SF Mono', Menlo, monospace">06-13</text>

  <!-- legend -->
  <rect x="60" y="262" width="16" height="3" fill="#4e79a7" rx="1"/><text x="80" y="268" font-size="11" fill="#57606a" font-family="-apple-system, BlinkMacSystemFont, 'Segoe UI', sans-serif">Total clones (1,850)</text><line x1="230" y1="264" x2="246" y2="264" stroke="#f28e2b" stroke-width="2" stroke-dasharray="5,3"/><text x="250" y="268" font-size="11" fill="#57606a" font-family="-apple-system, BlinkMacSystemFont, 'Segoe UI', sans-serif">Unique cloners</text>

</svg>