<svg xmlns="http://www.w3.org/2000/svg" viewBox="0 0 820 280" width="820" height="280">

  <!-- title -->
  <text x="52" y="18" font-size="13" font-weight="600"
        fill="#24292f" font-family="-apple-system, BlinkMacSystemFont, 'Segoe UI', sans-serif"
        >Clone traffic — vellum</text>
  <text x="800" y="18" font-size="10" fill="#8c959f"
        font-family="ui-monospace, SFMono-Regular, 'SF Mono', Menlo, monospace" text-anchor="end">2026-07-21</text>

  <!-- grid -->
  <line x1="52" y1="232.0" x2="800" y2="232.0" stroke="#e8e8e8" stroke-width="1"/><line x1="52" y1="193.9" x2="800" y2="193.9" stroke="#e8e8e8" stroke-width="1"/><line x1="52" y1="155.7" x2="800" y2="155.7" stroke="#e8e8e8" stroke-width="1"/><line x1="52" y1="117.6" x2="800" y2="117.6" stroke="#e8e8e8" stroke-width="1"/><line x1="52" y1="79.5" x2="800" y2="79.5" stroke="#e8e8e8" stroke-width="1"/><line x1="52" y1="41.3" x2="800" y2="41.3" stroke="#e8e8e8" stroke-width="1"/><line x1="52" y1="3.2" x2="800" y2="3.2" stroke="#e8e8e8" stroke-width="1"/>

  <!-- area fill -->
  <path d="M52.0,232.0 L52.0,232.0 L63.3,232.0 L74.7,232.0 L86.0,232.0 L97.3,232.0 L108.7,232.0 L120.0,232.0 L131.3,232.0 L142.7,232.0 L154.0,232.0 L165.3,232.0 L176.7,232.0 L188.0,232.0 L199.3,172.3 L210.7,28.0 L222.0,75.7 L233.3,187.5 L244.7,176.1 L256.0,60.4 L267.3,62.3 L278.7,190.7 L290.0,135.4 L301.3,209.8 L312.7,220.6 L324.0,230.7 L335.3,232.0 L346.7,231.4 L358.0,228.8 L369.3,232.0 L380.7,232.0 L392.0,232.0 L403.3,203.4 L414.7,232.0 L426.0,203.4 L437.3,221.8 L448.7,172.9 L460.0,228.2 L471.3,232.0 L482.7,230.1 L494.0,231.4 L505.3,232.0 L516.7,230.7 L528.0,232.0 L539.3,231.4 L550.7,231.4 L562.0,231.4 L573.3,232.0 L584.7,231.4 L596.0,231.4 L607.3,232.0 L618.7,232.0 L630.0,231.4 L641.3,232.0 L652.7,232.0 L664.0,226.9 L675.3,232.0 L686.7,231.4 L698.0,232.0 L709.3,232.0 L720.7,231.4 L732.0,231.4 L743.3,232.0 L754.7,232.0 L766.0,232.0 L777.3,232.0 L788.7,232.0 L800.0,232.0 L800.0,232.0 L52.0,232.0Z" fill="#4e79a7" opacity="0.12"/>

  <!-- lines -->
  <polyline points="52.0,232.0 63.3,232.0 74.7,232.0 86.0,232.0 97.3,232.0 108.7,232.0 120.0,232.0 131.3,232.0 142.7,232.0 154.0,232.0 165.3,232.0 176.7,232.0 188.0,232.0 199.3,172.3 210.7,28.0 222.0,75.7 233.3,187.5 244.7,176.1 256.0,60.4 267.3,62.3 278.7,190.7 290.0,135.4 301.3,209.8 312.7,220.6 324.0,230.7 335.3,232.0 346.7,231.4 358.0,228.8 369.3,232.0 380.7,232.0 392.0,232.0 403.3,203.4 414.7,232.0 426.0,203.4 437.3,221.8 448.7,172.9 460.0,228.2 471.3,232.0 482.7,230.1 494.0,231.4 505.3,232.0 516.7,230.7 528.0,232.0 539.3,231.4 550.7,231.4 562.0,231.4 573.3,232.0 584.7,231.4 596.0,231.4 607.3,232.0 618.7,232.0 630.0,231.4 641.3,232.0 652.7,232.0 664.0,226.9 675.3,232.0 686.7,231.4 698.0,232.0 709.3,232.0 720.7,231.4 732.0,231.4 743.3,232.0 754.7,232.0 766.0,232.0 777.3,232.0 788.7,232.0 800.0,232.0"
            fill="none" stroke="#4e79a7"
            stroke-width="2" stroke-linejoin="round"/>
  <polyline points="52.0,232.0 63.3,232.0 74.7,232.0 86.0,232.0 97.3,232.0 108.7,232.0 120.0,232.0 131.3,232.0 142.7,232.0 154.0,232.0 165.3,232.0 176.7,232.0 188.0,232.0 199.3,217.4 210.7,151.3 222.0,185.0 233.3,221.8 244.7,209.1 256.0,175.4 267.3,182.4 278.7,209.1 290.0,189.4 301.3,225.6 312.7,228.2 324.0,231.4 335.3,232.0 346.7,231.4 358.0,230.1 369.3,232.0 380.7,232.0 392.0,232.0 403.3,227.6 414.7,232.0 426.0,226.9 437.3,229.5 448.7,211.7 460.0,228.2 471.3,232.0 482.7,230.1 494.0,231.4 505.3,232.0 516.7,230.7 528.0,232.0 539.3,231.4 550.7,231.4 562.0,231.4 573.3,232.0 584.7,231.4 596.0,231.4 607.3,232.0 618.7,232.0 630.0,231.4 641.3,232.0 652.7,232.0 664.0,231.4 675.3,232.0 686.7,231.4 698.0,232.0 709.3,232.0 720.7,231.4 732.0,231.4 743.3,232.0 754.7,232.0 766.0,232.0 777.3,232.0 788.7,232.0 800.0,232.0"
            fill="none" stroke="#f28e2b"
            stroke-width="2" stroke-linejoin="round"
            stroke-dasharray="5,3"/>

  <!-- dots -->
  <circle cx="52.0" cy="232.0" r="3" fill="#4e79a7"/><circle cx="63.3" cy="232.0" r="3" fill="#4e79a7"/><circle cx="74.7" cy="232.0" r="3" fill="#4e79a7"/><circle cx="86.0" cy="232.0" r="3" fill="#4e79a7"/><circle cx="97.3" cy="232.0" r="3" fill="#4e79a7"/><circle cx="108.7" cy="232.0" r="3" fill="#4e79a7"/><circle cx="120.0" cy="232.0" r="3" fill="#4e79a7"/><circle cx="131.3" cy="232.0" r="3" fill="#4e79a7"/><circle cx="142.7" cy="232.0" r="3" fill="#4e79a7"/><circle cx="154.0" cy="232.0" r="3" fill="#4e79a7"/><circle cx="165.3" cy="232.0" r="3" fill="#4e79a7"/><circle cx="176.7" cy="232.0" r="3" fill="#4e79a7"/><circle cx="188.0" cy="232.0" r="3" fill="#4e79a7"/><circle cx="199.3" cy="172.3" r="3" fill="#4e79a7"/><circle cx="210.7" cy="28.0" r="3" fill="#4e79a7"/><circle cx="222.0" cy="75.7" r="3" fill="#4e79a7"/><circle cx="233.3" cy="187.5" r="3" fill="#4e79a7"/><circle cx="244.7" cy="176.1" r="3" fill="#4e79a7"/><circle cx="256.0" cy="60.4" r="3" fill="#4e79a7"/><circle cx="267.3" cy="62.3" r="3" fill="#4e79a7"/><circle cx="278.7" cy="190.7" r="3" fill="#4e79a7"/><circle cx="290.0" cy="135.4" r="3" fill="#4e79a7"/><circle cx="301.3" cy="209.8" r="3" fill="#4e79a7"/><circle cx="312.7" cy="220.6" r="3" fill="#4e79a7"/><circle cx="324.0" cy="230.7" r="3" fill="#4e79a7"/><circle cx="335.3" cy="232.0" r="3" fill="#4e79a7"/><circle cx="346.7" cy="231.4" r="3" fill="#4e79a7"/><circle cx="358.0" cy="228.8" r="3" fill="#4e79a7"/><circle cx="369.3" cy="232.0" r="3" fill="#4e79a7"/><circle cx="380.7" cy="232.0" r="3" fill="#4e79a7"/><circle cx="392.0" cy="232.0" r="3" fill="#4e79a7"/><circle cx="403.3" cy="203.4" r="3" fill="#4e79a7"/><circle cx="414.7" cy="232.0" r="3" fill="#4e79a7"/><circle cx="426.0" cy="203.4" r="3" fill="#4e79a7"/><circle cx="437.3" cy="221.8" r="3" fill="#4e79a7"/><circle cx="448.7" cy="172.9" r="3" fill="#4e79a7"/><circle cx="460.0" cy="228.2" r="3" fill="#4e79a7"/><circle cx="471.3" cy="232.0" r="3" fill="#4e79a7"/><circle cx="482.7" cy="230.1" r="3" fill="#4e79a7"/><circle cx="494.0" cy="231.4" r="3" fill="#4e79a7"/><circle cx="505.3" cy="232.0" r="3" fill="#4e79a7"/><circle cx="516.7" cy="230.7" r="3" fill="#4e79a7"/><circle cx="528.0" cy="232.0" r="3" fill="#4e79a7"/><circle cx="539.3" cy="231.4" r="3" fill="#4e79a7"/><circle cx="550.7" cy="231.4" r="3" fill="#4e79a7"/><circle cx="562.0" cy="231.4" r="3" fill="#4e79a7"/><circle cx="573.3" cy="232.0" r="3" fill="#4e79a7"/><circle cx="584.7" cy="231.4" r="3" fill="#4e79a7"/><circle cx="596.0" cy="231.4" r="3" fill="#4e79a7"/><circle cx="607.3" cy="232.0" r="3" fill="#4e79a7"/><circle cx="618.7" cy="232.0" r="3" fill="#4e79a7"/><circle cx="630.0" cy="231.4" r="3" fill="#4e79a7"/><circle cx="641.3" cy="232.0" r="3" fill="#4e79a7"/><circle cx="652.7" cy="232.0" r="3" fill="#4e79a7"/><circle cx="664.0" cy="226.9" r="3" fill="#4e79a7"/><circle cx="675.3" cy="232.0" r="3" fill="#4e79a7"/><circle cx="686.7" cy="231.4" r="3" fill="#4e79a7"/><circle cx="698.0" cy="232.0" r="3" fill="#4e79a7"/><circle cx="709.3" cy="232.0" r="3" fill="#4e79a7"/><circle cx="720.7" cy="231.4" r="3" fill="#4e79a7"/><circle cx="732.0" cy="231.4" r="3" fill="#4e79a7"/><circle cx="743.3" cy="232.0" r="3" fill="#4e79a7"/><circle cx="754.7" cy="232.0" r="3" fill="#4e79a7"/><circle cx="766.0" cy="232.0" r="3" fill="#4e79a7"/><circle cx="777.3" cy="232.0" r="3" fill="#4e79a7"/><circle cx="788.7" cy="232.0" r="3" fill="#4e79a7"/><circle cx="800.0" cy="232.0" r="3" fill="#4e79a7"/>
  <circle cx="52.0" cy="232.0" r="3" fill="#f28e2b"/><circle cx="63.3" cy="232.0" r="3" fill="#f28e2b"/><circle cx="74.7" cy="232.0" r="3" fill="#f28e2b"/><circle cx="86.0" cy="232.0" r="3" fill="#f28e2b"/><circle cx="97.3" cy="232.0" r="3" fill="#f28e2b"/><circle cx="108.7" cy="232.0" r="3" fill="#f28e2b"/><circle cx="120.0" cy="232.0" r="3" fill="#f28e2b"/><circle cx="131.3" cy="232.0" r="3" fill="#f28e2b"/><circle cx="142.7" cy="232.0" r="3" fill="#f28e2b"/><circle cx="154.0" cy="232.0" r="3" fill="#f28e2b"/><circle cx="165.3" cy="232.0" r="3" fill="#f28e2b"/><circle cx="176.7" cy="232.0" r="3" fill="#f28e2b"/><circle cx="188.0" cy="232.0" r="3" fill="#f28e2b"/><circle cx="199.3" cy="217.4" r="3" fill="#f28e2b"/><circle cx="210.7" cy="151.3" r="3" fill="#f28e2b"/><circle cx="222.0" cy="185.0" r="3" fill="#f28e2b"/><circle cx="233.3" cy="221.8" r="3" fill="#f28e2b"/><circle cx="244.7" cy="209.1" r="3" fill="#f28e2b"/><circle cx="256.0" cy="175.4" r="3" fill="#f28e2b"/><circle cx="267.3" cy="182.4" r="3" fill="#f28e2b"/><circle cx="278.7" cy="209.1" r="3" fill="#f28e2b"/><circle cx="290.0" cy="189.4" r="3" fill="#f28e2b"/><circle cx="301.3" cy="225.6" r="3" fill="#f28e2b"/><circle cx="312.7" cy="228.2" r="3" fill="#f28e2b"/><circle cx="324.0" cy="231.4" r="3" fill="#f28e2b"/><circle cx="335.3" cy="232.0" r="3" fill="#f28e2b"/><circle cx="346.7" cy="231.4" r="3" fill="#f28e2b"/><circle cx="358.0" cy="230.1" r="3" fill="#f28e2b"/><circle cx="369.3" cy="232.0" r="3" fill="#f28e2b"/><circle cx="380.7" cy="232.0" r="3" fill="#f28e2b"/><circle cx="392.0" cy="232.0" r="3" fill="#f28e2b"/><circle cx="403.3" cy="227.6" r="3" fill="#f28e2b"/><circle cx="414.7" cy="232.0" r="3" fill="#f28e2b"/><circle cx="426.0" cy="226.9" r="3" fill="#f28e2b"/><circle cx="437.3" cy="229.5" r="3" fill="#f28e2b"/><circle cx="448.7" cy="211.7" r="3" fill="#f28e2b"/><circle cx="460.0" cy="228.2" r="3" fill="#f28e2b"/><circle cx="471.3" cy="232.0" r="3" fill="#f28e2b"/><circle cx="482.7" cy="230.1" r="3" fill="#f28e2b"/><circle cx="494.0" cy="231.4" r="3" fill="#f28e2b"/><circle cx="505.3" cy="232.0" r="3" fill="#f28e2b"/><circle cx="516.7" cy="230.7" r="3" fill="#f28e2b"/><circle cx="528.0" cy="232.0" r="3" fill="#f28e2b"/><circle cx="539.3" cy="231.4" r="3" fill="#f28e2b"/><circle cx="550.7" cy="231.4" r="3" fill="#f28e2b"/><circle cx="562.0" cy="231.4" r="3" fill="#f28e2b"/><circle cx="573.3" cy="232.0" r="3" fill="#f28e2b"/><circle cx="584.7" cy="231.4" r="3" fill="#f28e2b"/><circle cx="596.0" cy="231.4" r="3" fill="#f28e2b"/><circle cx="607.3" cy="232.0" r="3" fill="#f28e2b"/><circle cx="618.7" cy="232.0" r="3" fill="#f28e2b"/><circle cx="630.0" cy="231.4" r="3" fill="#f28e2b"/><circle cx="641.3" cy="232.0" r="3" fill="#f28e2b"/><circle cx="652.7" cy="232.0" r="3" fill="#f28e2b"/><circle cx="664.0" cy="231.4" r="3" fill="#f28e2b"/><circle cx="675.3" cy="232.0" r="3" fill="#f28e2b"/><circle cx="686.7" cy="231.4" r="3" fill="#f28e2b"/><circle cx="698.0" cy="232.0" r="3" fill="#f28e2b"/><circle cx="709.3" cy="232.0" r="3" fill="#f28e2b"/><circle cx="720.7" cy="231.4" r="3" fill="#f28e2b"/><circle cx="732.0" cy="231.4" r="3" fill="#f28e2b"/><circle cx="743.3" cy="232.0" r="3" fill="#f28e2b"/><circle cx="754.7" cy="232.0" r="3" fill="#f28e2b"/><circle cx="766.0" cy="232.0" r="3" fill="#f28e2b"/><circle cx="777.3" cy="232.0" r="3" fill="#f28e2b"/><circle cx="788.7" cy="232.0" r="3" fill="#f28e2b"/><circle cx="800.0" cy="232.0" r="3" fill="#f28e2b"/>

  <!-- axes -->
  <line x1="52" y1="28" x2="52" y2="232"
        stroke="#cccccc" stroke-width="1"/>
  <line x1="52" y1="232" x2="800" y2="232"
        stroke="#cccccc" stroke-width="1"/>

  <!-- y-axis labels -->
  <text x="47" y="236.0" text-anchor="end" font-size="10" fill="#57606a" font-family="ui-monospace, SFMono-Regular, 'SF Mono', Menlo, monospace">0</text><text x="47" y="197.9" text-anchor="end" font-size="10" fill="#57606a" font-family="ui-monospace, SFMono-Regular, 'SF Mono', Menlo, monospace">60</text><text x="47" y="159.7" text-anchor="end" font-size="10" fill="#57606a" font-family="ui-monospace, SFMono-Regular, 'SF Mono', Menlo, monospace">120</text><text x="47" y="121.6" text-anchor="end" font-size="10" fill="#57606a" font-family="ui-monospace, SFMono-Regular, 'SF Mono', Menlo, monospace">180</text><text x="47" y="83.5" text-anchor="end" font-size="10" fill="#57606a" font-family="ui-monospace, SFMono-Regular, 'SF Mono', Menlo, monospace">240</text><text x="47" y="45.3" text-anchor="end" font-size="10" fill="#57606a" font-family="ui-monospace, SFMono-Regular, 'SF Mono', Menlo, monospace">300</text><text x="47" y="7.2" text-anchor="end" font-size="10" fill="#57606a" font-family="ui-monospace, SFMono-Regular, 'SF Mono', Menlo, monospace">360</text>

  <!-- x-axis labels -->
  <text x="52.0" y="248" text-anchor="middle" font-size="10" fill="#8c959f" font-family="ui-monospace, SFMono-Regular, 'SF Mono', Menlo, monospace">05-14</text><text x="414.7" y="248" text-anchor="middle" font-size="10" fill="#8c959f" font-family="ui-monospace, SFMono-Regular, 'SF Mono', Menlo, monospace">06-15</text><text x="777.3" y="248" text-anchor="middle" font-size="10" fill="#8c959f" font-family="ui-monospace, SFMono-Regular, 'SF Mono', Menlo, monospace">07-17</text><text x="800.0" y="248" text-anchor="middle" font-size="10" fill="#8c959f" font-family="ui-monospace, SFMono-Regular, 'SF Mono', Menlo, monospace">07-19</text><text x="142.7" y="248" text-anchor="middle" font-size="10" fill="#8c959f" font-family="ui-monospace, SFMono-Regular, 'SF Mono', Menlo, monospace">05-22</text><text x="505.3" y="248" text-anchor="middle" font-size="10" fill="#8c959f" font-family="ui-monospace, SFMono-Regular, 'SF Mono', Menlo, monospace">06-23</text><text x="233.3" y="248" text-anchor="middle" font-size="10" fill="#8c959f" font-family="ui-monospace, SFMono-Regular, 'SF Mono', Menlo, monospace">05-30</text><text x="596.0" y="248" text-anchor="middle" font-size="10" fill="#8c959f" font-family="ui-monospace, SFMono-Regular, 'SF Mono', Menlo, monospace">07-01</text><text x="324.0" y="248" text-anchor="middle" font-size="10" fill="#8c959f" font-family="ui-monospace, SFMono-Regular, 'SF Mono', Menlo, monospace">06-07</text><text x="686.7" y="248" text-anchor="middle" font-size="10" fill="#8c959f" font-family="ui-monospace, SFMono-Regular, 'SF Mono', Menlo, monospace">07-09</text>

  <!-- legend -->
  <rect x="60" y="262" width="16" height="3" fill="#4e79a7" rx="1"/><text x="80" y="268" font-size="11" fill="#57606a" font-family="-apple-system, BlinkMacSystemFont, 'Segoe UI', sans-serif">Total clones (1,862)</text><line x1="230" y1="264" x2="246" y2="264" stroke="#f28e2b" stroke-width="2" stroke-dasharray="5,3"/><text x="250" y="268" font-size="11" fill="#57606a" font-family="-apple-system, BlinkMacSystemFont, 'Segoe UI', sans-serif">Unique cloners</text>

</svg>