<svg xmlns="http://www.w3.org/2000/svg" viewBox="0 0 820 280" width="820" height="280">

  <!-- title -->
  <text x="52" y="18" font-size="13" font-weight="600"
        fill="#24292f" font-family="-apple-system, BlinkMacSystemFont, 'Segoe UI', sans-serif"
        >Clone traffic — vellum</text>
  <text x="800" y="18" font-size="10" fill="#8c959f"
        font-family="ui-monospace, SFMono-Regular, 'SF Mono', Menlo, monospace" text-anchor="end">2026-06-21</text>

  <!-- grid -->
  <line x1="52" y1="232.0" x2="800" y2="232.0" stroke="#e8e8e8" stroke-width="1"/><line x1="52" y1="193.9" x2="800" y2="193.9" stroke="#e8e8e8" stroke-width="1"/><line x1="52" y1="155.7" x2="800" y2="155.7" stroke="#e8e8e8" stroke-width="1"/><line x1="52" y1="117.6" x2="800" y2="117.6" stroke="#e8e8e8" stroke-width="1"/><line x1="52" y1="79.5" x2="800" y2="79.5" stroke="#e8e8e8" stroke-width="1"/><line x1="52" y1="41.3" x2="800" y2="41.3" stroke="#e8e8e8" stroke-width="1"/><line x1="52" y1="3.2" x2="800" y2="3.2" stroke="#e8e8e8" stroke-width="1"/>

  <!-- area fill -->
  <path d="M52.0,232.0 L52.0,232.0 L72.8,232.0 L93.6,232.0 L114.3,232.0 L135.1,232.0 L155.9,232.0 L176.7,232.0 L197.4,232.0 L218.2,232.0 L239.0,232.0 L259.8,232.0 L280.6,232.0 L301.3,232.0 L322.1,172.3 L342.9,28.0 L363.7,75.7 L384.4,187.5 L405.2,176.1 L426.0,60.4 L446.8,62.3 L467.6,190.7 L488.3,135.4 L509.1,209.8 L529.9,220.6 L550.7,230.7 L571.4,232.0 L592.2,231.4 L613.0,228.8 L633.8,232.0 L654.6,232.0 L675.3,232.0 L696.1,203.4 L716.9,232.0 L737.7,203.4 L758.4,221.8 L779.2,172.9 L800.0,228.2 L800.0,232.0 L52.0,232.0Z" fill="#4e79a7" opacity="0.12"/>

  <!-- lines -->
  <polyline points="52.0,232.0 72.8,232.0 93.6,232.0 114.3,232.0 135.1,232.0 155.9,232.0 176.7,232.0 197.4,232.0 218.2,232.0 239.0,232.0 259.8,232.0 280.6,232.0 301.3,232.0 322.1,172.3 342.9,28.0 363.7,75.7 384.4,187.5 405.2,176.1 426.0,60.4 446.8,62.3 467.6,190.7 488.3,135.4 509.1,209.8 529.9,220.6 550.7,230.7 571.4,232.0 592.2,231.4 613.0,228.8 633.8,232.0 654.6,232.0 675.3,232.0 696.1,203.4 716.9,232.0 737.7,203.4 758.4,221.8 779.2,172.9 800.0,228.2"
            fill="none" stroke="#4e79a7"
            stroke-width="2" stroke-linejoin="round"/>
  <polyline points="52.0,232.0 72.8,232.0 93.6,232.0 114.3,232.0 135.1,232.0 155.9,232.0 176.7,232.0 197.4,232.0 218.2,232.0 239.0,232.0 259.8,232.0 280.6,232.0 301.3,232.0 322.1,217.4 342.9,151.3 363.7,185.0 384.4,221.8 405.2,209.1 426.0,175.4 446.8,182.4 467.6,209.1 488.3,189.4 509.1,225.6 529.9,228.2 550.7,231.4 571.4,232.0 592.2,231.4 613.0,230.1 633.8,232.0 654.6,232.0 675.3,232.0 696.1,227.6 716.9,232.0 737.7,226.9 758.4,229.5 779.2,211.7 800.0,228.2"
            fill="none" stroke="#f28e2b"
            stroke-width="2" stroke-linejoin="round"
            stroke-dasharray="5,3"/>

  <!-- dots -->
  <circle cx="52.0" cy="232.0" r="3" fill="#4e79a7"/><circle cx="72.8" cy="232.0" r="3" fill="#4e79a7"/><circle cx="93.6" cy="232.0" r="3" fill="#4e79a7"/><circle cx="114.3" cy="232.0" r="3" fill="#4e79a7"/><circle cx="135.1" cy="232.0" r="3" fill="#4e79a7"/><circle cx="155.9" cy="232.0" r="3" fill="#4e79a7"/><circle cx="176.7" cy="232.0" r="3" fill="#4e79a7"/><circle cx="197.4" cy="232.0" r="3" fill="#4e79a7"/><circle cx="218.2" cy="232.0" r="3" fill="#4e79a7"/><circle cx="239.0" cy="232.0" r="3" fill="#4e79a7"/><circle cx="259.8" cy="232.0" r="3" fill="#4e79a7"/><circle cx="280.6" cy="232.0" r="3" fill="#4e79a7"/><circle cx="301.3" cy="232.0" r="3" fill="#4e79a7"/><circle cx="322.1" cy="172.3" r="3" fill="#4e79a7"/><circle cx="342.9" cy="28.0" r="3" fill="#4e79a7"/><circle cx="363.7" cy="75.7" r="3" fill="#4e79a7"/><circle cx="384.4" cy="187.5" r="3" fill="#4e79a7"/><circle cx="405.2" cy="176.1" r="3" fill="#4e79a7"/><circle cx="426.0" cy="60.4" r="3" fill="#4e79a7"/><circle cx="446.8" cy="62.3" r="3" fill="#4e79a7"/><circle cx="467.6" cy="190.7" r="3" fill="#4e79a7"/><circle cx="488.3" cy="135.4" r="3" fill="#4e79a7"/><circle cx="509.1" cy="209.8" r="3" fill="#4e79a7"/><circle cx="529.9" cy="220.6" r="3" fill="#4e79a7"/><circle cx="550.7" cy="230.7" r="3" fill="#4e79a7"/><circle cx="571.4" cy="232.0" r="3" fill="#4e79a7"/><circle cx="592.2" cy="231.4" r="3" fill="#4e79a7"/><circle cx="613.0" cy="228.8" r="3" fill="#4e79a7"/><circle cx="633.8" cy="232.0" r="3" fill="#4e79a7"/><circle cx="654.6" cy="232.0" r="3" fill="#4e79a7"/><circle cx="675.3" cy="232.0" r="3" fill="#4e79a7"/><circle cx="696.1" cy="203.4" r="3" fill="#4e79a7"/><circle cx="716.9" cy="232.0" r="3" fill="#4e79a7"/><circle cx="737.7" cy="203.4" r="3" fill="#4e79a7"/><circle cx="758.4" cy="221.8" r="3" fill="#4e79a7"/><circle cx="779.2" cy="172.9" r="3" fill="#4e79a7"/><circle cx="800.0" cy="228.2" r="3" fill="#4e79a7"/>
  <circle cx="52.0" cy="232.0" r="3" fill="#f28e2b"/><circle cx="72.8" cy="232.0" r="3" fill="#f28e2b"/><circle cx="93.6" cy="232.0" r="3" fill="#f28e2b"/><circle cx="114.3" cy="232.0" r="3" fill="#f28e2b"/><circle cx="135.1" cy="232.0" r="3" fill="#f28e2b"/><circle cx="155.9" cy="232.0" r="3" fill="#f28e2b"/><circle cx="176.7" cy="232.0" r="3" fill="#f28e2b"/><circle cx="197.4" cy="232.0" r="3" fill="#f28e2b"/><circle cx="218.2" cy="232.0" r="3" fill="#f28e2b"/><circle cx="239.0" cy="232.0" r="3" fill="#f28e2b"/><circle cx="259.8" cy="232.0" r="3" fill="#f28e2b"/><circle cx="280.6" cy="232.0" r="3" fill="#f28e2b"/><circle cx="301.3" cy="232.0" r="3" fill="#f28e2b"/><circle cx="322.1" cy="217.4" r="3" fill="#f28e2b"/><circle cx="342.9" cy="151.3" r="3" fill="#f28e2b"/><circle cx="363.7" cy="185.0" r="3" fill="#f28e2b"/><circle cx="384.4" cy="221.8" r="3" fill="#f28e2b"/><circle cx="405.2" cy="209.1" r="3" fill="#f28e2b"/><circle cx="426.0" cy="175.4" r="3" fill="#f28e2b"/><circle cx="446.8" cy="182.4" r="3" fill="#f28e2b"/><circle cx="467.6" cy="209.1" r="3" fill="#f28e2b"/><circle cx="488.3" cy="189.4" r="3" fill="#f28e2b"/><circle cx="509.1" cy="225.6" r="3" fill="#f28e2b"/><circle cx="529.9" cy="228.2" r="3" fill="#f28e2b"/><circle cx="550.7" cy="231.4" r="3" fill="#f28e2b"/><circle cx="571.4" cy="232.0" r="3" fill="#f28e2b"/><circle cx="592.2" cy="231.4" r="3" fill="#f28e2b"/><circle cx="613.0" cy="230.1" r="3" fill="#f28e2b"/><circle cx="633.8" cy="232.0" r="3" fill="#f28e2b"/><circle cx="654.6" cy="232.0" r="3" fill="#f28e2b"/><circle cx="675.3" cy="232.0" r="3" fill="#f28e2b"/><circle cx="696.1" cy="227.6" r="3" fill="#f28e2b"/><circle cx="716.9" cy="232.0" r="3" fill="#f28e2b"/><circle cx="737.7" cy="226.9" r="3" fill="#f28e2b"/><circle cx="758.4" cy="229.5" r="3" fill="#f28e2b"/><circle cx="779.2" cy="211.7" r="3" fill="#f28e2b"/><circle cx="800.0" cy="228.2" r="3" fill="#f28e2b"/>

  <!-- axes -->
  <line x1="52" y1="28" x2="52" y2="232"
        stroke="#cccccc" stroke-width="1"/>
  <line x1="52" y1="232" x2="800" y2="232"
        stroke="#cccccc" stroke-width="1"/>

  <!-- y-axis labels -->
  <text x="47" y="236.0" text-anchor="end" font-size="10" fill="#57606a" font-family="ui-monospace, SFMono-Regular, 'SF Mono', Menlo, monospace">0</text><text x="47" y="197.9" text-anchor="end" font-size="10" fill="#57606a" font-family="ui-monospace, SFMono-Regular, 'SF Mono', Menlo, monospace">60</text><text x="47" y="159.7" text-anchor="end" font-size="10" fill="#57606a" font-family="ui-monospace, SFMono-Regular, 'SF Mono', Menlo, monospace">120</text><text x="47" y="121.6" text-anchor="end" font-size="10" fill="#57606a" font-family="ui-monospace, SFMono-Regular, 'SF Mono', Menlo, monospace">180</text><text x="47" y="83.5" text-anchor="end" font-size="10" fill="#57606a" font-family="ui-monospace, SFMono-Regular, 'SF Mono', Menlo, monospace">240</text><text x="47" y="45.3" text-anchor="end" font-size="10" fill="#57606a" font-family="ui-monospace, SFMono-Regular, 'SF Mono', Menlo, monospace">300</text><text x="47" y="7.2" text-anchor="end" font-size="10" fill="#57606a" font-family="ui-monospace, SFMono-Regular, 'SF Mono', Menlo, monospace">360</text>

  <!-- x-axis labels -->
  <text x="52.0" y="248" text-anchor="middle" font-size="10" fill="#8c959f" font-family="ui-monospace, SFMono-Regular, 'SF Mono', Menlo, monospace">05-14</text><text x="716.9" y="248" text-anchor="middle" font-size="10" fill="#8c959f" font-family="ui-monospace, SFMono-Regular, 'SF Mono', Menlo, monospace">06-15</text><text x="135.1" y="248" text-anchor="middle" font-size="10" fill="#8c959f" font-family="ui-monospace, SFMono-Regular, 'SF Mono', Menlo, monospace">05-18</text><text x="800.0" y="248" text-anchor="middle" font-size="10" fill="#8c959f" font-family="ui-monospace, SFMono-Regular, 'SF Mono', Menlo, monospace">06-19</text><text x="218.2" y="248" text-anchor="middle" font-size="10" fill="#8c959f" font-family="ui-monospace, SFMono-Regular, 'SF Mono', Menlo, monospace">05-22</text><text x="301.3" y="248" text-anchor="middle" font-size="10" fill="#8c959f" font-family="ui-monospace, SFMono-Regular, 'SF Mono', Menlo, monospace">05-26</text><text x="384.4" y="248" text-anchor="middle" font-size="10" fill="#8c959f" font-family="ui-monospace, SFMono-Regular, 'SF Mono', Menlo, monospace">05-30</text><text x="467.6" y="248" text-anchor="middle" font-size="10" fill="#8c959f" font-family="ui-monospace, SFMono-Regular, 'SF Mono', Menlo, monospace">06-03</text><text x="550.7" y="248" text-anchor="middle" font-size="10" fill="#8c959f" font-family="ui-monospace, SFMono-Regular, 'SF Mono', Menlo, monospace">06-07</text><text x="633.8" y="248" text-anchor="middle" font-size="10" fill="#8c959f" font-family="ui-monospace, SFMono-Regular, 'SF Mono', Menlo, monospace">06-11</text>

  <!-- legend -->
  <rect x="60" y="262" width="16" height="3" fill="#4e79a7" rx="1"/><text x="80" y="268" font-size="11" fill="#57606a" font-family="-apple-system, BlinkMacSystemFont, 'Segoe UI', sans-serif">Total clones (1,839)</text><line x1="230" y1="264" x2="246" y2="264" stroke="#f28e2b" stroke-width="2" stroke-dasharray="5,3"/><text x="250" y="268" font-size="11" fill="#57606a" font-family="-apple-system, BlinkMacSystemFont, 'Segoe UI', sans-serif">Unique cloners</text>

</svg>