<svg xmlns="http://www.w3.org/2000/svg" viewBox="0 0 820 280" width="820" height="280">

  <!-- title -->
  <text x="52" y="18" font-size="13" font-weight="600"
        fill="#24292f" font-family="-apple-system, BlinkMacSystemFont, 'Segoe UI', sans-serif"
        >Clone traffic — vellum</text>
  <text x="800" y="18" font-size="10" fill="#8c959f"
        font-family="ui-monospace, SFMono-Regular, 'SF Mono', Menlo, monospace" text-anchor="end">2026-07-01</text>

  <!-- grid -->
  <line x1="52" y1="232.0" x2="800" y2="232.0" stroke="#e8e8e8" stroke-width="1"/><line x1="52" y1="193.9" x2="800" y2="193.9" stroke="#e8e8e8" stroke-width="1"/><line x1="52" y1="155.7" x2="800" y2="155.7" stroke="#e8e8e8" stroke-width="1"/><line x1="52" y1="117.6" x2="800" y2="117.6" stroke="#e8e8e8" stroke-width="1"/><line x1="52" y1="79.5" x2="800" y2="79.5" stroke="#e8e8e8" stroke-width="1"/><line x1="52" y1="41.3" x2="800" y2="41.3" stroke="#e8e8e8" stroke-width="1"/><line x1="52" y1="3.2" x2="800" y2="3.2" stroke="#e8e8e8" stroke-width="1"/>

  <!-- area fill -->
  <path d="M52.0,232.0 L52.0,232.0 L68.3,232.0 L84.5,232.0 L100.8,232.0 L117.0,232.0 L133.3,232.0 L149.6,232.0 L165.8,232.0 L182.1,232.0 L198.3,232.0 L214.6,232.0 L230.9,232.0 L247.1,232.0 L263.4,172.3 L279.7,28.0 L295.9,75.7 L312.2,187.5 L328.4,176.1 L344.7,60.4 L361.0,62.3 L377.2,190.7 L393.5,135.4 L409.7,209.8 L426.0,220.6 L442.3,230.7 L458.5,232.0 L474.8,231.4 L491.0,228.8 L507.3,232.0 L523.6,232.0 L539.8,232.0 L556.1,203.4 L572.3,232.0 L588.6,203.4 L604.9,221.8 L621.1,172.9 L637.4,228.2 L653.7,232.0 L669.9,230.1 L686.2,231.4 L702.4,232.0 L718.7,230.7 L735.0,232.0 L751.2,231.4 L767.5,231.4 L783.7,231.4 L800.0,232.0 L800.0,232.0 L52.0,232.0Z" fill="#4e79a7" opacity="0.12"/>

  <!-- lines -->
  <polyline points="52.0,232.0 68.3,232.0 84.5,232.0 100.8,232.0 117.0,232.0 133.3,232.0 149.6,232.0 165.8,232.0 182.1,232.0 198.3,232.0 214.6,232.0 230.9,232.0 247.1,232.0 263.4,172.3 279.7,28.0 295.9,75.7 312.2,187.5 328.4,176.1 344.7,60.4 361.0,62.3 377.2,190.7 393.5,135.4 409.7,209.8 426.0,220.6 442.3,230.7 458.5,232.0 474.8,231.4 491.0,228.8 507.3,232.0 523.6,232.0 539.8,232.0 556.1,203.4 572.3,232.0 588.6,203.4 604.9,221.8 621.1,172.9 637.4,228.2 653.7,232.0 669.9,230.1 686.2,231.4 702.4,232.0 718.7,230.7 735.0,232.0 751.2,231.4 767.5,231.4 783.7,231.4 800.0,232.0"
            fill="none" stroke="#4e79a7"
            stroke-width="2" stroke-linejoin="round"/>
  <polyline points="52.0,232.0 68.3,232.0 84.5,232.0 100.8,232.0 117.0,232.0 133.3,232.0 149.6,232.0 165.8,232.0 182.1,232.0 198.3,232.0 214.6,232.0 230.9,232.0 247.1,232.0 263.4,217.4 279.7,151.3 295.9,185.0 312.2,221.8 328.4,209.1 344.7,175.4 361.0,182.4 377.2,209.1 393.5,189.4 409.7,225.6 426.0,228.2 442.3,231.4 458.5,232.0 474.8,231.4 491.0,230.1 507.3,232.0 523.6,232.0 539.8,232.0 556.1,227.6 572.3,232.0 588.6,226.9 604.9,229.5 621.1,211.7 637.4,228.2 653.7,232.0 669.9,230.1 686.2,231.4 702.4,232.0 718.7,230.7 735.0,232.0 751.2,231.4 767.5,231.4 783.7,231.4 800.0,232.0"
            fill="none" stroke="#f28e2b"
            stroke-width="2" stroke-linejoin="round"
            stroke-dasharray="5,3"/>

  <!-- dots -->
  <circle cx="52.0" cy="232.0" r="3" fill="#4e79a7"/><circle cx="68.3" cy="232.0" r="3" fill="#4e79a7"/><circle cx="84.5" cy="232.0" r="3" fill="#4e79a7"/><circle cx="100.8" cy="232.0" r="3" fill="#4e79a7"/><circle cx="117.0" cy="232.0" r="3" fill="#4e79a7"/><circle cx="133.3" cy="232.0" r="3" fill="#4e79a7"/><circle cx="149.6" cy="232.0" r="3" fill="#4e79a7"/><circle cx="165.8" cy="232.0" r="3" fill="#4e79a7"/><circle cx="182.1" cy="232.0" r="3" fill="#4e79a7"/><circle cx="198.3" cy="232.0" r="3" fill="#4e79a7"/><circle cx="214.6" cy="232.0" r="3" fill="#4e79a7"/><circle cx="230.9" cy="232.0" r="3" fill="#4e79a7"/><circle cx="247.1" cy="232.0" r="3" fill="#4e79a7"/><circle cx="263.4" cy="172.3" r="3" fill="#4e79a7"/><circle cx="279.7" cy="28.0" r="3" fill="#4e79a7"/><circle cx="295.9" cy="75.7" r="3" fill="#4e79a7"/><circle cx="312.2" cy="187.5" r="3" fill="#4e79a7"/><circle cx="328.4" cy="176.1" r="3" fill="#4e79a7"/><circle cx="344.7" cy="60.4" r="3" fill="#4e79a7"/><circle cx="361.0" cy="62.3" r="3" fill="#4e79a7"/><circle cx="377.2" cy="190.7" r="3" fill="#4e79a7"/><circle cx="393.5" cy="135.4" r="3" fill="#4e79a7"/><circle cx="409.7" cy="209.8" r="3" fill="#4e79a7"/><circle cx="426.0" cy="220.6" r="3" fill="#4e79a7"/><circle cx="442.3" cy="230.7" r="3" fill="#4e79a7"/><circle cx="458.5" cy="232.0" r="3" fill="#4e79a7"/><circle cx="474.8" cy="231.4" r="3" fill="#4e79a7"/><circle cx="491.0" cy="228.8" r="3" fill="#4e79a7"/><circle cx="507.3" cy="232.0" r="3" fill="#4e79a7"/><circle cx="523.6" cy="232.0" r="3" fill="#4e79a7"/><circle cx="539.8" cy="232.0" r="3" fill="#4e79a7"/><circle cx="556.1" cy="203.4" r="3" fill="#4e79a7"/><circle cx="572.3" cy="232.0" r="3" fill="#4e79a7"/><circle cx="588.6" cy="203.4" r="3" fill="#4e79a7"/><circle cx="604.9" cy="221.8" r="3" fill="#4e79a7"/><circle cx="621.1" cy="172.9" r="3" fill="#4e79a7"/><circle cx="637.4" cy="228.2" r="3" fill="#4e79a7"/><circle cx="653.7" cy="232.0" r="3" fill="#4e79a7"/><circle cx="669.9" cy="230.1" r="3" fill="#4e79a7"/><circle cx="686.2" cy="231.4" r="3" fill="#4e79a7"/><circle cx="702.4" cy="232.0" r="3" fill="#4e79a7"/><circle cx="718.7" cy="230.7" r="3" fill="#4e79a7"/><circle cx="735.0" cy="232.0" r="3" fill="#4e79a7"/><circle cx="751.2" cy="231.4" r="3" fill="#4e79a7"/><circle cx="767.5" cy="231.4" r="3" fill="#4e79a7"/><circle cx="783.7" cy="231.4" r="3" fill="#4e79a7"/><circle cx="800.0" cy="232.0" r="3" fill="#4e79a7"/>
  <circle cx="52.0" cy="232.0" r="3" fill="#f28e2b"/><circle cx="68.3" cy="232.0" r="3" fill="#f28e2b"/><circle cx="84.5" cy="232.0" r="3" fill="#f28e2b"/><circle cx="100.8" cy="232.0" r="3" fill="#f28e2b"/><circle cx="117.0" cy="232.0" r="3" fill="#f28e2b"/><circle cx="133.3" cy="232.0" r="3" fill="#f28e2b"/><circle cx="149.6" cy="232.0" r="3" fill="#f28e2b"/><circle cx="165.8" cy="232.0" r="3" fill="#f28e2b"/><circle cx="182.1" cy="232.0" r="3" fill="#f28e2b"/><circle cx="198.3" cy="232.0" r="3" fill="#f28e2b"/><circle cx="214.6" cy="232.0" r="3" fill="#f28e2b"/><circle cx="230.9" cy="232.0" r="3" fill="#f28e2b"/><circle cx="247.1" cy="232.0" r="3" fill="#f28e2b"/><circle cx="263.4" cy="217.4" r="3" fill="#f28e2b"/><circle cx="279.7" cy="151.3" r="3" fill="#f28e2b"/><circle cx="295.9" cy="185.0" r="3" fill="#f28e2b"/><circle cx="312.2" cy="221.8" r="3" fill="#f28e2b"/><circle cx="328.4" cy="209.1" r="3" fill="#f28e2b"/><circle cx="344.7" cy="175.4" r="3" fill="#f28e2b"/><circle cx="361.0" cy="182.4" r="3" fill="#f28e2b"/><circle cx="377.2" cy="209.1" r="3" fill="#f28e2b"/><circle cx="393.5" cy="189.4" r="3" fill="#f28e2b"/><circle cx="409.7" cy="225.6" r="3" fill="#f28e2b"/><circle cx="426.0" cy="228.2" r="3" fill="#f28e2b"/><circle cx="442.3" cy="231.4" r="3" fill="#f28e2b"/><circle cx="458.5" cy="232.0" r="3" fill="#f28e2b"/><circle cx="474.8" cy="231.4" r="3" fill="#f28e2b"/><circle cx="491.0" cy="230.1" r="3" fill="#f28e2b"/><circle cx="507.3" cy="232.0" r="3" fill="#f28e2b"/><circle cx="523.6" cy="232.0" r="3" fill="#f28e2b"/><circle cx="539.8" cy="232.0" r="3" fill="#f28e2b"/><circle cx="556.1" cy="227.6" r="3" fill="#f28e2b"/><circle cx="572.3" cy="232.0" r="3" fill="#f28e2b"/><circle cx="588.6" cy="226.9" r="3" fill="#f28e2b"/><circle cx="604.9" cy="229.5" r="3" fill="#f28e2b"/><circle cx="621.1" cy="211.7" r="3" fill="#f28e2b"/><circle cx="637.4" cy="228.2" r="3" fill="#f28e2b"/><circle cx="653.7" cy="232.0" r="3" fill="#f28e2b"/><circle cx="669.9" cy="230.1" r="3" fill="#f28e2b"/><circle cx="686.2" cy="231.4" r="3" fill="#f28e2b"/><circle cx="702.4" cy="232.0" r="3" fill="#f28e2b"/><circle cx="718.7" cy="230.7" r="3" fill="#f28e2b"/><circle cx="735.0" cy="232.0" r="3" fill="#f28e2b"/><circle cx="751.2" cy="231.4" r="3" fill="#f28e2b"/><circle cx="767.5" cy="231.4" r="3" fill="#f28e2b"/><circle cx="783.7" cy="231.4" r="3" fill="#f28e2b"/><circle cx="800.0" cy="232.0" r="3" fill="#f28e2b"/>

  <!-- axes -->
  <line x1="52" y1="28" x2="52" y2="232"
        stroke="#cccccc" stroke-width="1"/>
  <line x1="52" y1="232" x2="800" y2="232"
        stroke="#cccccc" stroke-width="1"/>

  <!-- y-axis labels -->
  <text x="47" y="236.0" text-anchor="end" font-size="10" fill="#57606a" font-family="ui-monospace, SFMono-Regular, 'SF Mono', Menlo, monospace">0</text><text x="47" y="197.9" text-anchor="end" font-size="10" fill="#57606a" font-family="ui-monospace, SFMono-Regular, 'SF Mono', Menlo, monospace">60</text><text x="47" y="159.7" text-anchor="end" font-size="10" fill="#57606a" font-family="ui-monospace, SFMono-Regular, 'SF Mono', Menlo, monospace">120</text><text x="47" y="121.6" text-anchor="end" font-size="10" fill="#57606a" font-family="ui-monospace, SFMono-Regular, 'SF Mono', Menlo, monospace">180</text><text x="47" y="83.5" text-anchor="end" font-size="10" fill="#57606a" font-family="ui-monospace, SFMono-Regular, 'SF Mono', Menlo, monospace">240</text><text x="47" y="45.3" text-anchor="end" font-size="10" fill="#57606a" font-family="ui-monospace, SFMono-Regular, 'SF Mono', Menlo, monospace">300</text><text x="47" y="7.2" text-anchor="end" font-size="10" fill="#57606a" font-family="ui-monospace, SFMono-Regular, 'SF Mono', Menlo, monospace">360</text>

  <!-- x-axis labels -->
  <text x="52.0" y="248" text-anchor="middle" font-size="10" fill="#8c959f" font-family="ui-monospace, SFMono-Regular, 'SF Mono', Menlo, monospace">05-14</text><text x="621.1" y="248" text-anchor="middle" font-size="10" fill="#8c959f" font-family="ui-monospace, SFMono-Regular, 'SF Mono', Menlo, monospace">06-18</text><text x="133.3" y="248" text-anchor="middle" font-size="10" fill="#8c959f" font-family="ui-monospace, SFMono-Regular, 'SF Mono', Menlo, monospace">05-19</text><text x="702.4" y="248" text-anchor="middle" font-size="10" fill="#8c959f" font-family="ui-monospace, SFMono-Regular, 'SF Mono', Menlo, monospace">06-23</text><text x="214.6" y="248" text-anchor="middle" font-size="10" fill="#8c959f" font-family="ui-monospace, SFMono-Regular, 'SF Mono', Menlo, monospace">05-24</text><text x="783.7" y="248" text-anchor="middle" font-size="10" fill="#8c959f" font-family="ui-monospace, SFMono-Regular, 'SF Mono', Menlo, monospace">06-28</text><text x="800.0" y="248" text-anchor="middle" font-size="10" fill="#8c959f" font-family="ui-monospace, SFMono-Regular, 'SF Mono', Menlo, monospace">06-29</text><text x="295.9" y="248" text-anchor="middle" font-size="10" fill="#8c959f" font-family="ui-monospace, SFMono-Regular, 'SF Mono', Menlo, monospace">05-29</text><text x="377.2" y="248" text-anchor="middle" font-size="10" fill="#8c959f" font-family="ui-monospace, SFMono-Regular, 'SF Mono', Menlo, monospace">06-03</text><text x="458.5" y="248" text-anchor="middle" font-size="10" fill="#8c959f" font-family="ui-monospace, SFMono-Regular, 'SF Mono', Menlo, monospace">06-08</text><text x="539.8" y="248" text-anchor="middle" font-size="10" fill="#8c959f" font-family="ui-monospace, SFMono-Regular, 'SF Mono', Menlo, monospace">06-13</text>

  <!-- legend -->
  <rect x="60" y="262" width="16" height="3" fill="#4e79a7" rx="1"/><text x="80" y="268" font-size="11" fill="#57606a" font-family="-apple-system, BlinkMacSystemFont, 'Segoe UI', sans-serif">Total clones (1,848)</text><line x1="230" y1="264" x2="246" y2="264" stroke="#f28e2b" stroke-width="2" stroke-dasharray="5,3"/><text x="250" y="268" font-size="11" fill="#57606a" font-family="-apple-system, BlinkMacSystemFont, 'Segoe UI', sans-serif">Unique cloners</text>

</svg>