<svg xmlns="http://www.w3.org/2000/svg" viewBox="0 0 820 280" width="820" height="280">

  <!-- title -->
  <text x="52" y="18" font-size="13" font-weight="600"
        fill="#24292f" font-family="-apple-system, BlinkMacSystemFont, 'Segoe UI', sans-serif"
        >Clone traffic — vellum</text>
  <text x="800" y="18" font-size="10" fill="#8c959f"
        font-family="ui-monospace, SFMono-Regular, 'SF Mono', Menlo, monospace" text-anchor="end">2026-06-24</text>

  <!-- grid -->
  <line x1="52" y1="232.0" x2="800" y2="232.0" stroke="#e8e8e8" stroke-width="1"/><line x1="52" y1="193.9" x2="800" y2="193.9" stroke="#e8e8e8" stroke-width="1"/><line x1="52" y1="155.7" x2="800" y2="155.7" stroke="#e8e8e8" stroke-width="1"/><line x1="52" y1="117.6" x2="800" y2="117.6" stroke="#e8e8e8" stroke-width="1"/><line x1="52" y1="79.5" x2="800" y2="79.5" stroke="#e8e8e8" stroke-width="1"/><line x1="52" y1="41.3" x2="800" y2="41.3" stroke="#e8e8e8" stroke-width="1"/><line x1="52" y1="3.2" x2="800" y2="3.2" stroke="#e8e8e8" stroke-width="1"/>

  <!-- area fill -->
  <path d="M52.0,232.0 L52.0,232.0 L71.2,232.0 L90.4,232.0 L109.5,232.0 L128.7,232.0 L147.9,232.0 L167.1,232.0 L186.3,232.0 L205.4,232.0 L224.6,232.0 L243.8,232.0 L263.0,232.0 L282.2,232.0 L301.3,172.3 L320.5,28.0 L339.7,75.7 L358.9,187.5 L378.1,176.1 L397.2,60.4 L416.4,62.3 L435.6,190.7 L454.8,135.4 L473.9,209.8 L493.1,220.6 L512.3,230.7 L531.5,232.0 L550.7,231.4 L569.8,228.8 L589.0,232.0 L608.2,232.0 L627.4,232.0 L646.6,203.4 L665.7,232.0 L684.9,203.4 L704.1,221.8 L723.3,172.9 L742.5,228.2 L761.6,232.0 L780.8,230.1 L800.0,231.4 L800.0,232.0 L52.0,232.0Z" fill="#4e79a7" opacity="0.12"/>

  <!-- lines -->
  <polyline points="52.0,232.0 71.2,232.0 90.4,232.0 109.5,232.0 128.7,232.0 147.9,232.0 167.1,232.0 186.3,232.0 205.4,232.0 224.6,232.0 243.8,232.0 263.0,232.0 282.2,232.0 301.3,172.3 320.5,28.0 339.7,75.7 358.9,187.5 378.1,176.1 397.2,60.4 416.4,62.3 435.6,190.7 454.8,135.4 473.9,209.8 493.1,220.6 512.3,230.7 531.5,232.0 550.7,231.4 569.8,228.8 589.0,232.0 608.2,232.0 627.4,232.0 646.6,203.4 665.7,232.0 684.9,203.4 704.1,221.8 723.3,172.9 742.5,228.2 761.6,232.0 780.8,230.1 800.0,231.4"
            fill="none" stroke="#4e79a7"
            stroke-width="2" stroke-linejoin="round"/>
  <polyline points="52.0,232.0 71.2,232.0 90.4,232.0 109.5,232.0 128.7,232.0 147.9,232.0 167.1,232.0 186.3,232.0 205.4,232.0 224.6,232.0 243.8,232.0 263.0,232.0 282.2,232.0 301.3,217.4 320.5,151.3 339.7,185.0 358.9,221.8 378.1,209.1 397.2,175.4 416.4,182.4 435.6,209.1 454.8,189.4 473.9,225.6 493.1,228.2 512.3,231.4 531.5,232.0 550.7,231.4 569.8,230.1 589.0,232.0 608.2,232.0 627.4,232.0 646.6,227.6 665.7,232.0 684.9,226.9 704.1,229.5 723.3,211.7 742.5,228.2 761.6,232.0 780.8,230.1 800.0,231.4"
            fill="none" stroke="#f28e2b"
            stroke-width="2" stroke-linejoin="round"
            stroke-dasharray="5,3"/>

  <!-- dots -->
  <circle cx="52.0" cy="232.0" r="3" fill="#4e79a7"/><circle cx="71.2" cy="232.0" r="3" fill="#4e79a7"/><circle cx="90.4" cy="232.0" r="3" fill="#4e79a7"/><circle cx="109.5" cy="232.0" r="3" fill="#4e79a7"/><circle cx="128.7" cy="232.0" r="3" fill="#4e79a7"/><circle cx="147.9" cy="232.0" r="3" fill="#4e79a7"/><circle cx="167.1" cy="232.0" r="3" fill="#4e79a7"/><circle cx="186.3" cy="232.0" r="3" fill="#4e79a7"/><circle cx="205.4" cy="232.0" r="3" fill="#4e79a7"/><circle cx="224.6" cy="232.0" r="3" fill="#4e79a7"/><circle cx="243.8" cy="232.0" r="3" fill="#4e79a7"/><circle cx="263.0" cy="232.0" r="3" fill="#4e79a7"/><circle cx="282.2" cy="232.0" r="3" fill="#4e79a7"/><circle cx="301.3" cy="172.3" r="3" fill="#4e79a7"/><circle cx="320.5" cy="28.0" r="3" fill="#4e79a7"/><circle cx="339.7" cy="75.7" r="3" fill="#4e79a7"/><circle cx="358.9" cy="187.5" r="3" fill="#4e79a7"/><circle cx="378.1" cy="176.1" r="3" fill="#4e79a7"/><circle cx="397.2" cy="60.4" r="3" fill="#4e79a7"/><circle cx="416.4" cy="62.3" r="3" fill="#4e79a7"/><circle cx="435.6" cy="190.7" r="3" fill="#4e79a7"/><circle cx="454.8" cy="135.4" r="3" fill="#4e79a7"/><circle cx="473.9" cy="209.8" r="3" fill="#4e79a7"/><circle cx="493.1" cy="220.6" r="3" fill="#4e79a7"/><circle cx="512.3" cy="230.7" r="3" fill="#4e79a7"/><circle cx="531.5" cy="232.0" r="3" fill="#4e79a7"/><circle cx="550.7" cy="231.4" r="3" fill="#4e79a7"/><circle cx="569.8" cy="228.8" r="3" fill="#4e79a7"/><circle cx="589.0" cy="232.0" r="3" fill="#4e79a7"/><circle cx="608.2" cy="232.0" r="3" fill="#4e79a7"/><circle cx="627.4" cy="232.0" r="3" fill="#4e79a7"/><circle cx="646.6" cy="203.4" r="3" fill="#4e79a7"/><circle cx="665.7" cy="232.0" r="3" fill="#4e79a7"/><circle cx="684.9" cy="203.4" r="3" fill="#4e79a7"/><circle cx="704.1" cy="221.8" r="3" fill="#4e79a7"/><circle cx="723.3" cy="172.9" r="3" fill="#4e79a7"/><circle cx="742.5" cy="228.2" r="3" fill="#4e79a7"/><circle cx="761.6" cy="232.0" r="3" fill="#4e79a7"/><circle cx="780.8" cy="230.1" r="3" fill="#4e79a7"/><circle cx="800.0" cy="231.4" r="3" fill="#4e79a7"/>
  <circle cx="52.0" cy="232.0" r="3" fill="#f28e2b"/><circle cx="71.2" cy="232.0" r="3" fill="#f28e2b"/><circle cx="90.4" cy="232.0" r="3" fill="#f28e2b"/><circle cx="109.5" cy="232.0" r="3" fill="#f28e2b"/><circle cx="128.7" cy="232.0" r="3" fill="#f28e2b"/><circle cx="147.9" cy="232.0" r="3" fill="#f28e2b"/><circle cx="167.1" cy="232.0" r="3" fill="#f28e2b"/><circle cx="186.3" cy="232.0" r="3" fill="#f28e2b"/><circle cx="205.4" cy="232.0" r="3" fill="#f28e2b"/><circle cx="224.6" cy="232.0" r="3" fill="#f28e2b"/><circle cx="243.8" cy="232.0" r="3" fill="#f28e2b"/><circle cx="263.0" cy="232.0" r="3" fill="#f28e2b"/><circle cx="282.2" cy="232.0" r="3" fill="#f28e2b"/><circle cx="301.3" cy="217.4" r="3" fill="#f28e2b"/><circle cx="320.5" cy="151.3" r="3" fill="#f28e2b"/><circle cx="339.7" cy="185.0" r="3" fill="#f28e2b"/><circle cx="358.9" cy="221.8" r="3" fill="#f28e2b"/><circle cx="378.1" cy="209.1" r="3" fill="#f28e2b"/><circle cx="397.2" cy="175.4" r="3" fill="#f28e2b"/><circle cx="416.4" cy="182.4" r="3" fill="#f28e2b"/><circle cx="435.6" cy="209.1" r="3" fill="#f28e2b"/><circle cx="454.8" cy="189.4" r="3" fill="#f28e2b"/><circle cx="473.9" cy="225.6" r="3" fill="#f28e2b"/><circle cx="493.1" cy="228.2" r="3" fill="#f28e2b"/><circle cx="512.3" cy="231.4" r="3" fill="#f28e2b"/><circle cx="531.5" cy="232.0" r="3" fill="#f28e2b"/><circle cx="550.7" cy="231.4" r="3" fill="#f28e2b"/><circle cx="569.8" cy="230.1" r="3" fill="#f28e2b"/><circle cx="589.0" cy="232.0" r="3" fill="#f28e2b"/><circle cx="608.2" cy="232.0" r="3" fill="#f28e2b"/><circle cx="627.4" cy="232.0" r="3" fill="#f28e2b"/><circle cx="646.6" cy="227.6" r="3" fill="#f28e2b"/><circle cx="665.7" cy="232.0" r="3" fill="#f28e2b"/><circle cx="684.9" cy="226.9" r="3" fill="#f28e2b"/><circle cx="704.1" cy="229.5" r="3" fill="#f28e2b"/><circle cx="723.3" cy="211.7" r="3" fill="#f28e2b"/><circle cx="742.5" cy="228.2" r="3" fill="#f28e2b"/><circle cx="761.6" cy="232.0" r="3" fill="#f28e2b"/><circle cx="780.8" cy="230.1" r="3" fill="#f28e2b"/><circle cx="800.0" cy="231.4" r="3" fill="#f28e2b"/>

  <!-- axes -->
  <line x1="52" y1="28" x2="52" y2="232"
        stroke="#cccccc" stroke-width="1"/>
  <line x1="52" y1="232" x2="800" y2="232"
        stroke="#cccccc" stroke-width="1"/>

  <!-- y-axis labels -->
  <text x="47" y="236.0" text-anchor="end" font-size="10" fill="#57606a" font-family="ui-monospace, SFMono-Regular, 'SF Mono', Menlo, monospace">0</text><text x="47" y="197.9" text-anchor="end" font-size="10" fill="#57606a" font-family="ui-monospace, SFMono-Regular, 'SF Mono', Menlo, monospace">60</text><text x="47" y="159.7" text-anchor="end" font-size="10" fill="#57606a" font-family="ui-monospace, SFMono-Regular, 'SF Mono', Menlo, monospace">120</text><text x="47" y="121.6" text-anchor="end" font-size="10" fill="#57606a" font-family="ui-monospace, SFMono-Regular, 'SF Mono', Menlo, monospace">180</text><text x="47" y="83.5" text-anchor="end" font-size="10" fill="#57606a" font-family="ui-monospace, SFMono-Regular, 'SF Mono', Menlo, monospace">240</text><text x="47" y="45.3" text-anchor="end" font-size="10" fill="#57606a" font-family="ui-monospace, SFMono-Regular, 'SF Mono', Menlo, monospace">300</text><text x="47" y="7.2" text-anchor="end" font-size="10" fill="#57606a" font-family="ui-monospace, SFMono-Regular, 'SF Mono', Menlo, monospace">360</text>

  <!-- x-axis labels -->
  <text x="52.0" y="248" text-anchor="middle" font-size="10" fill="#8c959f" font-family="ui-monospace, SFMono-Regular, 'SF Mono', Menlo, monospace">05-14</text><text x="723.3" y="248" text-anchor="middle" font-size="10" fill="#8c959f" font-family="ui-monospace, SFMono-Regular, 'SF Mono', Menlo, monospace">06-18</text><text x="147.9" y="248" text-anchor="middle" font-size="10" fill="#8c959f" font-family="ui-monospace, SFMono-Regular, 'SF Mono', Menlo, monospace">05-19</text><text x="800.0" y="248" text-anchor="middle" font-size="10" fill="#8c959f" font-family="ui-monospace, SFMono-Regular, 'SF Mono', Menlo, monospace">06-22</text><text x="243.8" y="248" text-anchor="middle" font-size="10" fill="#8c959f" font-family="ui-monospace, SFMono-Regular, 'SF Mono', Menlo, monospace">05-24</text><text x="339.7" y="248" text-anchor="middle" font-size="10" fill="#8c959f" font-family="ui-monospace, SFMono-Regular, 'SF Mono', Menlo, monospace">05-29</text><text x="435.6" y="248" text-anchor="middle" font-size="10" fill="#8c959f" font-family="ui-monospace, SFMono-Regular, 'SF Mono', Menlo, monospace">06-03</text><text x="531.5" y="248" text-anchor="middle" font-size="10" fill="#8c959f" font-family="ui-monospace, SFMono-Regular, 'SF Mono', Menlo, monospace">06-08</text><text x="627.4" y="248" text-anchor="middle" font-size="10" fill="#8c959f" font-family="ui-monospace, SFMono-Regular, 'SF Mono', Menlo, monospace">06-13</text>

  <!-- legend -->
  <rect x="60" y="262" width="16" height="3" fill="#4e79a7" rx="1"/><text x="80" y="268" font-size="11" fill="#57606a" font-family="-apple-system, BlinkMacSystemFont, 'Segoe UI', sans-serif">Total clones (1,843)</text><line x1="230" y1="264" x2="246" y2="264" stroke="#f28e2b" stroke-width="2" stroke-dasharray="5,3"/><text x="250" y="268" font-size="11" fill="#57606a" font-family="-apple-system, BlinkMacSystemFont, 'Segoe UI', sans-serif">Unique cloners</text>

</svg>