<svg xmlns="http://www.w3.org/2000/svg" viewBox="0 0 820 280" width="820" height="280">

  <!-- title -->
  <text x="52" y="18" font-size="13" font-weight="600"
        fill="#24292f" font-family="-apple-system, BlinkMacSystemFont, 'Segoe UI', sans-serif"
        >Clone traffic — vellum</text>
  <text x="800" y="18" font-size="10" fill="#8c959f"
        font-family="ui-monospace, SFMono-Regular, 'SF Mono', Menlo, monospace" text-anchor="end">2026-07-12</text>

  <!-- grid -->
  <line x1="52" y1="232.0" x2="800" y2="232.0" stroke="#e8e8e8" stroke-width="1"/><line x1="52" y1="193.9" x2="800" y2="193.9" stroke="#e8e8e8" stroke-width="1"/><line x1="52" y1="155.7" x2="800" y2="155.7" stroke="#e8e8e8" stroke-width="1"/><line x1="52" y1="117.6" x2="800" y2="117.6" stroke="#e8e8e8" stroke-width="1"/><line x1="52" y1="79.5" x2="800" y2="79.5" stroke="#e8e8e8" stroke-width="1"/><line x1="52" y1="41.3" x2="800" y2="41.3" stroke="#e8e8e8" stroke-width="1"/><line x1="52" y1="3.2" x2="800" y2="3.2" stroke="#e8e8e8" stroke-width="1"/>

  <!-- area fill -->
  <path d="M52.0,232.0 L52.0,232.0 L65.1,232.0 L78.2,232.0 L91.4,232.0 L104.5,232.0 L117.6,232.0 L130.7,232.0 L143.9,232.0 L157.0,232.0 L170.1,232.0 L183.2,232.0 L196.4,232.0 L209.5,232.0 L222.6,172.3 L235.7,28.0 L248.8,75.7 L262.0,187.5 L275.1,176.1 L288.2,60.4 L301.3,62.3 L314.5,190.7 L327.6,135.4 L340.7,209.8 L353.8,220.6 L366.9,230.7 L380.1,232.0 L393.2,231.4 L406.3,228.8 L419.4,232.0 L432.6,232.0 L445.7,232.0 L458.8,203.4 L471.9,232.0 L485.1,203.4 L498.2,221.8 L511.3,172.9 L524.4,228.2 L537.5,232.0 L550.7,230.1 L563.8,231.4 L576.9,232.0 L590.0,230.7 L603.2,232.0 L616.3,231.4 L629.4,231.4 L642.5,231.4 L655.6,232.0 L668.8,231.4 L681.9,231.4 L695.0,232.0 L708.1,232.0 L721.3,231.4 L734.4,232.0 L747.5,232.0 L760.6,226.9 L773.8,232.0 L786.9,231.4 L800.0,232.0 L800.0,232.0 L52.0,232.0Z" fill="#4e79a7" opacity="0.12"/>

  <!-- lines -->
  <polyline points="52.0,232.0 65.1,232.0 78.2,232.0 91.4,232.0 104.5,232.0 117.6,232.0 130.7,232.0 143.9,232.0 157.0,232.0 170.1,232.0 183.2,232.0 196.4,232.0 209.5,232.0 222.6,172.3 235.7,28.0 248.8,75.7 262.0,187.5 275.1,176.1 288.2,60.4 301.3,62.3 314.5,190.7 327.6,135.4 340.7,209.8 353.8,220.6 366.9,230.7 380.1,232.0 393.2,231.4 406.3,228.8 419.4,232.0 432.6,232.0 445.7,232.0 458.8,203.4 471.9,232.0 485.1,203.4 498.2,221.8 511.3,172.9 524.4,228.2 537.5,232.0 550.7,230.1 563.8,231.4 576.9,232.0 590.0,230.7 603.2,232.0 616.3,231.4 629.4,231.4 642.5,231.4 655.6,232.0 668.8,231.4 681.9,231.4 695.0,232.0 708.1,232.0 721.3,231.4 734.4,232.0 747.5,232.0 760.6,226.9 773.8,232.0 786.9,231.4 800.0,232.0"
            fill="none" stroke="#4e79a7"
            stroke-width="2" stroke-linejoin="round"/>
  <polyline points="52.0,232.0 65.1,232.0 78.2,232.0 91.4,232.0 104.5,232.0 117.6,232.0 130.7,232.0 143.9,232.0 157.0,232.0 170.1,232.0 183.2,232.0 196.4,232.0 209.5,232.0 222.6,217.4 235.7,151.3 248.8,185.0 262.0,221.8 275.1,209.1 288.2,175.4 301.3,182.4 314.5,209.1 327.6,189.4 340.7,225.6 353.8,228.2 366.9,231.4 380.1,232.0 393.2,231.4 406.3,230.1 419.4,232.0 432.6,232.0 445.7,232.0 458.8,227.6 471.9,232.0 485.1,226.9 498.2,229.5 511.3,211.7 524.4,228.2 537.5,232.0 550.7,230.1 563.8,231.4 576.9,232.0 590.0,230.7 603.2,232.0 616.3,231.4 629.4,231.4 642.5,231.4 655.6,232.0 668.8,231.4 681.9,231.4 695.0,232.0 708.1,232.0 721.3,231.4 734.4,232.0 747.5,232.0 760.6,231.4 773.8,232.0 786.9,231.4 800.0,232.0"
            fill="none" stroke="#f28e2b"
            stroke-width="2" stroke-linejoin="round"
            stroke-dasharray="5,3"/>

  <!-- dots -->
  <circle cx="52.0" cy="232.0" r="3" fill="#4e79a7"/><circle cx="65.1" cy="232.0" r="3" fill="#4e79a7"/><circle cx="78.2" cy="232.0" r="3" fill="#4e79a7"/><circle cx="91.4" cy="232.0" r="3" fill="#4e79a7"/><circle cx="104.5" cy="232.0" r="3" fill="#4e79a7"/><circle cx="117.6" cy="232.0" r="3" fill="#4e79a7"/><circle cx="130.7" cy="232.0" r="3" fill="#4e79a7"/><circle cx="143.9" cy="232.0" r="3" fill="#4e79a7"/><circle cx="157.0" cy="232.0" r="3" fill="#4e79a7"/><circle cx="170.1" cy="232.0" r="3" fill="#4e79a7"/><circle cx="183.2" cy="232.0" r="3" fill="#4e79a7"/><circle cx="196.4" cy="232.0" r="3" fill="#4e79a7"/><circle cx="209.5" cy="232.0" r="3" fill="#4e79a7"/><circle cx="222.6" cy="172.3" r="3" fill="#4e79a7"/><circle cx="235.7" cy="28.0" r="3" fill="#4e79a7"/><circle cx="248.8" cy="75.7" r="3" fill="#4e79a7"/><circle cx="262.0" cy="187.5" r="3" fill="#4e79a7"/><circle cx="275.1" cy="176.1" r="3" fill="#4e79a7"/><circle cx="288.2" cy="60.4" r="3" fill="#4e79a7"/><circle cx="301.3" cy="62.3" r="3" fill="#4e79a7"/><circle cx="314.5" cy="190.7" r="3" fill="#4e79a7"/><circle cx="327.6" cy="135.4" r="3" fill="#4e79a7"/><circle cx="340.7" cy="209.8" r="3" fill="#4e79a7"/><circle cx="353.8" cy="220.6" r="3" fill="#4e79a7"/><circle cx="366.9" cy="230.7" r="3" fill="#4e79a7"/><circle cx="380.1" cy="232.0" r="3" fill="#4e79a7"/><circle cx="393.2" cy="231.4" r="3" fill="#4e79a7"/><circle cx="406.3" cy="228.8" r="3" fill="#4e79a7"/><circle cx="419.4" cy="232.0" r="3" fill="#4e79a7"/><circle cx="432.6" cy="232.0" r="3" fill="#4e79a7"/><circle cx="445.7" cy="232.0" r="3" fill="#4e79a7"/><circle cx="458.8" cy="203.4" r="3" fill="#4e79a7"/><circle cx="471.9" cy="232.0" r="3" fill="#4e79a7"/><circle cx="485.1" cy="203.4" r="3" fill="#4e79a7"/><circle cx="498.2" cy="221.8" r="3" fill="#4e79a7"/><circle cx="511.3" cy="172.9" r="3" fill="#4e79a7"/><circle cx="524.4" cy="228.2" r="3" fill="#4e79a7"/><circle cx="537.5" cy="232.0" r="3" fill="#4e79a7"/><circle cx="550.7" cy="230.1" r="3" fill="#4e79a7"/><circle cx="563.8" cy="231.4" r="3" fill="#4e79a7"/><circle cx="576.9" cy="232.0" r="3" fill="#4e79a7"/><circle cx="590.0" cy="230.7" r="3" fill="#4e79a7"/><circle cx="603.2" cy="232.0" r="3" fill="#4e79a7"/><circle cx="616.3" cy="231.4" r="3" fill="#4e79a7"/><circle cx="629.4" cy="231.4" r="3" fill="#4e79a7"/><circle cx="642.5" cy="231.4" r="3" fill="#4e79a7"/><circle cx="655.6" cy="232.0" r="3" fill="#4e79a7"/><circle cx="668.8" cy="231.4" r="3" fill="#4e79a7"/><circle cx="681.9" cy="231.4" r="3" fill="#4e79a7"/><circle cx="695.0" cy="232.0" r="3" fill="#4e79a7"/><circle cx="708.1" cy="232.0" r="3" fill="#4e79a7"/><circle cx="721.3" cy="231.4" r="3" fill="#4e79a7"/><circle cx="734.4" cy="232.0" r="3" fill="#4e79a7"/><circle cx="747.5" cy="232.0" r="3" fill="#4e79a7"/><circle cx="760.6" cy="226.9" r="3" fill="#4e79a7"/><circle cx="773.8" cy="232.0" r="3" fill="#4e79a7"/><circle cx="786.9" cy="231.4" r="3" fill="#4e79a7"/><circle cx="800.0" cy="232.0" r="3" fill="#4e79a7"/>
  <circle cx="52.0" cy="232.0" r="3" fill="#f28e2b"/><circle cx="65.1" cy="232.0" r="3" fill="#f28e2b"/><circle cx="78.2" cy="232.0" r="3" fill="#f28e2b"/><circle cx="91.4" cy="232.0" r="3" fill="#f28e2b"/><circle cx="104.5" cy="232.0" r="3" fill="#f28e2b"/><circle cx="117.6" cy="232.0" r="3" fill="#f28e2b"/><circle cx="130.7" cy="232.0" r="3" fill="#f28e2b"/><circle cx="143.9" cy="232.0" r="3" fill="#f28e2b"/><circle cx="157.0" cy="232.0" r="3" fill="#f28e2b"/><circle cx="170.1" cy="232.0" r="3" fill="#f28e2b"/><circle cx="183.2" cy="232.0" r="3" fill="#f28e2b"/><circle cx="196.4" cy="232.0" r="3" fill="#f28e2b"/><circle cx="209.5" cy="232.0" r="3" fill="#f28e2b"/><circle cx="222.6" cy="217.4" r="3" fill="#f28e2b"/><circle cx="235.7" cy="151.3" r="3" fill="#f28e2b"/><circle cx="248.8" cy="185.0" r="3" fill="#f28e2b"/><circle cx="262.0" cy="221.8" r="3" fill="#f28e2b"/><circle cx="275.1" cy="209.1" r="3" fill="#f28e2b"/><circle cx="288.2" cy="175.4" r="3" fill="#f28e2b"/><circle cx="301.3" cy="182.4" r="3" fill="#f28e2b"/><circle cx="314.5" cy="209.1" r="3" fill="#f28e2b"/><circle cx="327.6" cy="189.4" r="3" fill="#f28e2b"/><circle cx="340.7" cy="225.6" r="3" fill="#f28e2b"/><circle cx="353.8" cy="228.2" r="3" fill="#f28e2b"/><circle cx="366.9" cy="231.4" r="3" fill="#f28e2b"/><circle cx="380.1" cy="232.0" r="3" fill="#f28e2b"/><circle cx="393.2" cy="231.4" r="3" fill="#f28e2b"/><circle cx="406.3" cy="230.1" r="3" fill="#f28e2b"/><circle cx="419.4" cy="232.0" r="3" fill="#f28e2b"/><circle cx="432.6" cy="232.0" r="3" fill="#f28e2b"/><circle cx="445.7" cy="232.0" r="3" fill="#f28e2b"/><circle cx="458.8" cy="227.6" r="3" fill="#f28e2b"/><circle cx="471.9" cy="232.0" r="3" fill="#f28e2b"/><circle cx="485.1" cy="226.9" r="3" fill="#f28e2b"/><circle cx="498.2" cy="229.5" r="3" fill="#f28e2b"/><circle cx="511.3" cy="211.7" r="3" fill="#f28e2b"/><circle cx="524.4" cy="228.2" r="3" fill="#f28e2b"/><circle cx="537.5" cy="232.0" r="3" fill="#f28e2b"/><circle cx="550.7" cy="230.1" r="3" fill="#f28e2b"/><circle cx="563.8" cy="231.4" r="3" fill="#f28e2b"/><circle cx="576.9" cy="232.0" r="3" fill="#f28e2b"/><circle cx="590.0" cy="230.7" r="3" fill="#f28e2b"/><circle cx="603.2" cy="232.0" r="3" fill="#f28e2b"/><circle cx="616.3" cy="231.4" r="3" fill="#f28e2b"/><circle cx="629.4" cy="231.4" r="3" fill="#f28e2b"/><circle cx="642.5" cy="231.4" r="3" fill="#f28e2b"/><circle cx="655.6" cy="232.0" r="3" fill="#f28e2b"/><circle cx="668.8" cy="231.4" r="3" fill="#f28e2b"/><circle cx="681.9" cy="231.4" r="3" fill="#f28e2b"/><circle cx="695.0" cy="232.0" r="3" fill="#f28e2b"/><circle cx="708.1" cy="232.0" r="3" fill="#f28e2b"/><circle cx="721.3" cy="231.4" r="3" fill="#f28e2b"/><circle cx="734.4" cy="232.0" r="3" fill="#f28e2b"/><circle cx="747.5" cy="232.0" r="3" fill="#f28e2b"/><circle cx="760.6" cy="231.4" r="3" fill="#f28e2b"/><circle cx="773.8" cy="232.0" r="3" fill="#f28e2b"/><circle cx="786.9" cy="231.4" r="3" fill="#f28e2b"/><circle cx="800.0" cy="232.0" r="3" fill="#f28e2b"/>

  <!-- axes -->
  <line x1="52" y1="28" x2="52" y2="232"
        stroke="#cccccc" stroke-width="1"/>
  <line x1="52" y1="232" x2="800" y2="232"
        stroke="#cccccc" stroke-width="1"/>

  <!-- y-axis labels -->
  <text x="47" y="236.0" text-anchor="end" font-size="10" fill="#57606a" font-family="ui-monospace, SFMono-Regular, 'SF Mono', Menlo, monospace">0</text><text x="47" y="197.9" text-anchor="end" font-size="10" fill="#57606a" font-family="ui-monospace, SFMono-Regular, 'SF Mono', Menlo, monospace">60</text><text x="47" y="159.7" text-anchor="end" font-size="10" fill="#57606a" font-family="ui-monospace, SFMono-Regular, 'SF Mono', Menlo, monospace">120</text><text x="47" y="121.6" text-anchor="end" font-size="10" fill="#57606a" font-family="ui-monospace, SFMono-Regular, 'SF Mono', Menlo, monospace">180</text><text x="47" y="83.5" text-anchor="end" font-size="10" fill="#57606a" font-family="ui-monospace, SFMono-Regular, 'SF Mono', Menlo, monospace">240</text><text x="47" y="45.3" text-anchor="end" font-size="10" fill="#57606a" font-family="ui-monospace, SFMono-Regular, 'SF Mono', Menlo, monospace">300</text><text x="47" y="7.2" text-anchor="end" font-size="10" fill="#57606a" font-family="ui-monospace, SFMono-Regular, 'SF Mono', Menlo, monospace">360</text>

  <!-- x-axis labels -->
  <text x="52.0" y="248" text-anchor="middle" font-size="10" fill="#8c959f" font-family="ui-monospace, SFMono-Regular, 'SF Mono', Menlo, monospace">05-14</text><text x="511.3" y="248" text-anchor="middle" font-size="10" fill="#8c959f" font-family="ui-monospace, SFMono-Regular, 'SF Mono', Menlo, monospace">06-18</text><text x="143.9" y="248" text-anchor="middle" font-size="10" fill="#8c959f" font-family="ui-monospace, SFMono-Regular, 'SF Mono', Menlo, monospace">05-21</text><text x="603.2" y="248" text-anchor="middle" font-size="10" fill="#8c959f" font-family="ui-monospace, SFMono-Regular, 'SF Mono', Menlo, monospace">06-25</text><text x="235.7" y="248" text-anchor="middle" font-size="10" fill="#8c959f" font-family="ui-monospace, SFMono-Regular, 'SF Mono', Menlo, monospace">05-28</text><text x="695.0" y="248" text-anchor="middle" font-size="10" fill="#8c959f" font-family="ui-monospace, SFMono-Regular, 'SF Mono', Menlo, monospace">07-02</text><text x="327.6" y="248" text-anchor="middle" font-size="10" fill="#8c959f" font-family="ui-monospace, SFMono-Regular, 'SF Mono', Menlo, monospace">06-04</text><text x="786.9" y="248" text-anchor="middle" font-size="10" fill="#8c959f" font-family="ui-monospace, SFMono-Regular, 'SF Mono', Menlo, monospace">07-09</text><text x="800.0" y="248" text-anchor="middle" font-size="10" fill="#8c959f" font-family="ui-monospace, SFMono-Regular, 'SF Mono', Menlo, monospace">07-10</text><text x="419.4" y="248" text-anchor="middle" font-size="10" fill="#8c959f" font-family="ui-monospace, SFMono-Regular, 'SF Mono', Menlo, monospace">06-11</text>

  <!-- legend -->
  <rect x="60" y="262" width="16" height="3" fill="#4e79a7" rx="1"/><text x="80" y="268" font-size="11" fill="#57606a" font-family="-apple-system, BlinkMacSystemFont, 'Segoe UI', sans-serif">Total clones (1,860)</text><line x1="230" y1="264" x2="246" y2="264" stroke="#f28e2b" stroke-width="2" stroke-dasharray="5,3"/><text x="250" y="268" font-size="11" fill="#57606a" font-family="-apple-system, BlinkMacSystemFont, 'Segoe UI', sans-serif">Unique cloners</text>

</svg>