<svg xmlns="http://www.w3.org/2000/svg" viewBox="0 0 820 280" width="820" height="280">

  <!-- title -->
  <text x="52" y="18" font-size="13" font-weight="600"
        fill="#24292f" font-family="-apple-system, BlinkMacSystemFont, 'Segoe UI', sans-serif"
        >Clone traffic — vellum</text>
  <text x="800" y="18" font-size="10" fill="#8c959f"
        font-family="ui-monospace, SFMono-Regular, 'SF Mono', Menlo, monospace" text-anchor="end">2026-06-11</text>

  <!-- grid -->
  <line x1="52" y1="232.0" x2="800" y2="232.0" stroke="#e8e8e8" stroke-width="1"/><line x1="52" y1="193.9" x2="800" y2="193.9" stroke="#e8e8e8" stroke-width="1"/><line x1="52" y1="155.7" x2="800" y2="155.7" stroke="#e8e8e8" stroke-width="1"/><line x1="52" y1="117.6" x2="800" y2="117.6" stroke="#e8e8e8" stroke-width="1"/><line x1="52" y1="79.5" x2="800" y2="79.5" stroke="#e8e8e8" stroke-width="1"/><line x1="52" y1="41.3" x2="800" y2="41.3" stroke="#e8e8e8" stroke-width="1"/><line x1="52" y1="3.2" x2="800" y2="3.2" stroke="#e8e8e8" stroke-width="1"/>

  <!-- area fill -->
  <path d="M52.0,232.0 L52.0,232.0 L81.9,232.0 L111.8,232.0 L141.8,232.0 L171.7,232.0 L201.6,232.0 L231.5,232.0 L261.4,232.0 L291.4,232.0 L321.3,232.0 L351.2,232.0 L381.1,232.0 L411.0,232.0 L441.0,172.3 L470.9,28.0 L500.8,75.7 L530.7,187.5 L560.6,176.1 L590.6,60.4 L620.5,62.3 L650.4,190.7 L680.3,135.4 L710.2,209.8 L740.2,220.6 L770.1,230.7 L800.0,232.0 L800.0,232.0 L52.0,232.0Z" fill="#4e79a7" opacity="0.12"/>

  <!-- lines -->
  <polyline points="52.0,232.0 81.9,232.0 111.8,232.0 141.8,232.0 171.7,232.0 201.6,232.0 231.5,232.0 261.4,232.0 291.4,232.0 321.3,232.0 351.2,232.0 381.1,232.0 411.0,232.0 441.0,172.3 470.9,28.0 500.8,75.7 530.7,187.5 560.6,176.1 590.6,60.4 620.5,62.3 650.4,190.7 680.3,135.4 710.2,209.8 740.2,220.6 770.1,230.7 800.0,232.0"
            fill="none" stroke="#4e79a7"
            stroke-width="2" stroke-linejoin="round"/>
  <polyline points="52.0,232.0 81.9,232.0 111.8,232.0 141.8,232.0 171.7,232.0 201.6,232.0 231.5,232.0 261.4,232.0 291.4,232.0 321.3,232.0 351.2,232.0 381.1,232.0 411.0,232.0 441.0,217.4 470.9,151.3 500.8,185.0 530.7,221.8 560.6,209.1 590.6,175.4 620.5,182.4 650.4,209.1 680.3,189.4 710.2,225.6 740.2,228.2 770.1,231.4 800.0,232.0"
            fill="none" stroke="#f28e2b"
            stroke-width="2" stroke-linejoin="round"
            stroke-dasharray="5,3"/>

  <!-- dots -->
  <circle cx="52.0" cy="232.0" r="3" fill="#4e79a7"/><circle cx="81.9" cy="232.0" r="3" fill="#4e79a7"/><circle cx="111.8" cy="232.0" r="3" fill="#4e79a7"/><circle cx="141.8" cy="232.0" r="3" fill="#4e79a7"/><circle cx="171.7" cy="232.0" r="3" fill="#4e79a7"/><circle cx="201.6" cy="232.0" r="3" fill="#4e79a7"/><circle cx="231.5" cy="232.0" r="3" fill="#4e79a7"/><circle cx="261.4" cy="232.0" r="3" fill="#4e79a7"/><circle cx="291.4" cy="232.0" r="3" fill="#4e79a7"/><circle cx="321.3" cy="232.0" r="3" fill="#4e79a7"/><circle cx="351.2" cy="232.0" r="3" fill="#4e79a7"/><circle cx="381.1" cy="232.0" r="3" fill="#4e79a7"/><circle cx="411.0" cy="232.0" r="3" fill="#4e79a7"/><circle cx="441.0" cy="172.3" r="3" fill="#4e79a7"/><circle cx="470.9" cy="28.0" r="3" fill="#4e79a7"/><circle cx="500.8" cy="75.7" r="3" fill="#4e79a7"/><circle cx="530.7" cy="187.5" r="3" fill="#4e79a7"/><circle cx="560.6" cy="176.1" r="3" fill="#4e79a7"/><circle cx="590.6" cy="60.4" r="3" fill="#4e79a7"/><circle cx="620.5" cy="62.3" r="3" fill="#4e79a7"/><circle cx="650.4" cy="190.7" r="3" fill="#4e79a7"/><circle cx="680.3" cy="135.4" r="3" fill="#4e79a7"/><circle cx="710.2" cy="209.8" r="3" fill="#4e79a7"/><circle cx="740.2" cy="220.6" r="3" fill="#4e79a7"/><circle cx="770.1" cy="230.7" r="3" fill="#4e79a7"/><circle cx="800.0" cy="232.0" r="3" fill="#4e79a7"/>
  <circle cx="52.0" cy="232.0" r="3" fill="#f28e2b"/><circle cx="81.9" cy="232.0" r="3" fill="#f28e2b"/><circle cx="111.8" cy="232.0" r="3" fill="#f28e2b"/><circle cx="141.8" cy="232.0" r="3" fill="#f28e2b"/><circle cx="171.7" cy="232.0" r="3" fill="#f28e2b"/><circle cx="201.6" cy="232.0" r="3" fill="#f28e2b"/><circle cx="231.5" cy="232.0" r="3" fill="#f28e2b"/><circle cx="261.4" cy="232.0" r="3" fill="#f28e2b"/><circle cx="291.4" cy="232.0" r="3" fill="#f28e2b"/><circle cx="321.3" cy="232.0" r="3" fill="#f28e2b"/><circle cx="351.2" cy="232.0" r="3" fill="#f28e2b"/><circle cx="381.1" cy="232.0" r="3" fill="#f28e2b"/><circle cx="411.0" cy="232.0" r="3" fill="#f28e2b"/><circle cx="441.0" cy="217.4" r="3" fill="#f28e2b"/><circle cx="470.9" cy="151.3" r="3" fill="#f28e2b"/><circle cx="500.8" cy="185.0" r="3" fill="#f28e2b"/><circle cx="530.7" cy="221.8" r="3" fill="#f28e2b"/><circle cx="560.6" cy="209.1" r="3" fill="#f28e2b"/><circle cx="590.6" cy="175.4" r="3" fill="#f28e2b"/><circle cx="620.5" cy="182.4" r="3" fill="#f28e2b"/><circle cx="650.4" cy="209.1" r="3" fill="#f28e2b"/><circle cx="680.3" cy="189.4" r="3" fill="#f28e2b"/><circle cx="710.2" cy="225.6" r="3" fill="#f28e2b"/><circle cx="740.2" cy="228.2" r="3" fill="#f28e2b"/><circle cx="770.1" cy="231.4" r="3" fill="#f28e2b"/><circle cx="800.0" cy="232.0" r="3" fill="#f28e2b"/>

  <!-- axes -->
  <line x1="52" y1="28" x2="52" y2="232"
        stroke="#cccccc" stroke-width="1"/>
  <line x1="52" y1="232" x2="800" y2="232"
        stroke="#cccccc" stroke-width="1"/>

  <!-- y-axis labels -->
  <text x="47" y="236.0" text-anchor="end" font-size="10" fill="#57606a" font-family="ui-monospace, SFMono-Regular, 'SF Mono', Menlo, monospace">0</text><text x="47" y="197.9" text-anchor="end" font-size="10" fill="#57606a" font-family="ui-monospace, SFMono-Regular, 'SF Mono', Menlo, monospace">60</text><text x="47" y="159.7" text-anchor="end" font-size="10" fill="#57606a" font-family="ui-monospace, SFMono-Regular, 'SF Mono', Menlo, monospace">120</text><text x="47" y="121.6" text-anchor="end" font-size="10" fill="#57606a" font-family="ui-monospace, SFMono-Regular, 'SF Mono', Menlo, monospace">180</text><text x="47" y="83.5" text-anchor="end" font-size="10" fill="#57606a" font-family="ui-monospace, SFMono-Regular, 'SF Mono', Menlo, monospace">240</text><text x="47" y="45.3" text-anchor="end" font-size="10" fill="#57606a" font-family="ui-monospace, SFMono-Regular, 'SF Mono', Menlo, monospace">300</text><text x="47" y="7.2" text-anchor="end" font-size="10" fill="#57606a" font-family="ui-monospace, SFMono-Regular, 'SF Mono', Menlo, monospace">360</text>

  <!-- x-axis labels -->
  <text x="52.0" y="248" text-anchor="middle" font-size="10" fill="#8c959f" font-family="ui-monospace, SFMono-Regular, 'SF Mono', Menlo, monospace">05-14</text><text x="141.8" y="248" text-anchor="middle" font-size="10" fill="#8c959f" font-family="ui-monospace, SFMono-Regular, 'SF Mono', Menlo, monospace">05-17</text><text x="231.5" y="248" text-anchor="middle" font-size="10" fill="#8c959f" font-family="ui-monospace, SFMono-Regular, 'SF Mono', Menlo, monospace">05-20</text><text x="321.3" y="248" text-anchor="middle" font-size="10" fill="#8c959f" font-family="ui-monospace, SFMono-Regular, 'SF Mono', Menlo, monospace">05-23</text><text x="411.0" y="248" text-anchor="middle" font-size="10" fill="#8c959f" font-family="ui-monospace, SFMono-Regular, 'SF Mono', Menlo, monospace">05-26</text><text x="500.8" y="248" text-anchor="middle" font-size="10" fill="#8c959f" font-family="ui-monospace, SFMono-Regular, 'SF Mono', Menlo, monospace">05-29</text><text x="590.6" y="248" text-anchor="middle" font-size="10" fill="#8c959f" font-family="ui-monospace, SFMono-Regular, 'SF Mono', Menlo, monospace">06-01</text><text x="680.3" y="248" text-anchor="middle" font-size="10" fill="#8c959f" font-family="ui-monospace, SFMono-Regular, 'SF Mono', Menlo, monospace">06-04</text><text x="770.1" y="248" text-anchor="middle" font-size="10" fill="#8c959f" font-family="ui-monospace, SFMono-Regular, 'SF Mono', Menlo, monospace">06-07</text><text x="800.0" y="248" text-anchor="middle" font-size="10" fill="#8c959f" font-family="ui-monospace, SFMono-Regular, 'SF Mono', Menlo, monospace">06-08</text>

  <!-- legend -->
  <rect x="60" y="262" width="16" height="3" fill="#4e79a7" rx="1"/><text x="80" y="268" font-size="11" fill="#57606a" font-family="-apple-system, BlinkMacSystemFont, 'Segoe UI', sans-serif">Total clones (1,628)</text><line x1="230" y1="264" x2="246" y2="264" stroke="#f28e2b" stroke-width="2" stroke-dasharray="5,3"/><text x="250" y="268" font-size="11" fill="#57606a" font-family="-apple-system, BlinkMacSystemFont, 'Segoe UI', sans-serif">Unique cloners</text>

</svg>