<svg xmlns="http://www.w3.org/2000/svg" viewBox="0 0 820 280" width="820" height="280">

  <!-- title -->
  <text x="52" y="18" font-size="13" font-weight="600"
        fill="#24292f" font-family="-apple-system, BlinkMacSystemFont, 'Segoe UI', sans-serif"
        >Clone traffic — vellum</text>
  <text x="800" y="18" font-size="10" fill="#8c959f"
        font-family="ui-monospace, SFMono-Regular, 'SF Mono', Menlo, monospace" text-anchor="end">2026-07-02</text>

  <!-- grid -->
  <line x1="52" y1="232.0" x2="800" y2="232.0" stroke="#e8e8e8" stroke-width="1"/><line x1="52" y1="193.9" x2="800" y2="193.9" stroke="#e8e8e8" stroke-width="1"/><line x1="52" y1="155.7" x2="800" y2="155.7" stroke="#e8e8e8" stroke-width="1"/><line x1="52" y1="117.6" x2="800" y2="117.6" stroke="#e8e8e8" stroke-width="1"/><line x1="52" y1="79.5" x2="800" y2="79.5" stroke="#e8e8e8" stroke-width="1"/><line x1="52" y1="41.3" x2="800" y2="41.3" stroke="#e8e8e8" stroke-width="1"/><line x1="52" y1="3.2" x2="800" y2="3.2" stroke="#e8e8e8" stroke-width="1"/>

  <!-- area fill -->
  <path d="M52.0,232.0 L52.0,232.0 L67.9,232.0 L83.8,232.0 L99.7,232.0 L115.7,232.0 L131.6,232.0 L147.5,232.0 L163.4,232.0 L179.3,232.0 L195.2,232.0 L211.1,232.0 L227.1,232.0 L243.0,232.0 L258.9,172.3 L274.8,28.0 L290.7,75.7 L306.6,187.5 L322.6,176.1 L338.5,60.4 L354.4,62.3 L370.3,190.7 L386.2,135.4 L402.1,209.8 L418.0,220.6 L434.0,230.7 L449.9,232.0 L465.8,231.4 L481.7,228.8 L497.6,232.0 L513.5,232.0 L529.4,232.0 L545.4,203.4 L561.3,232.0 L577.2,203.4 L593.1,221.8 L609.0,172.9 L624.9,228.2 L640.9,232.0 L656.8,230.1 L672.7,231.4 L688.6,232.0 L704.5,230.7 L720.4,232.0 L736.3,231.4 L752.3,231.4 L768.2,231.4 L784.1,232.0 L800.0,231.4 L800.0,232.0 L52.0,232.0Z" fill="#4e79a7" opacity="0.12"/>

  <!-- lines -->
  <polyline points="52.0,232.0 67.9,232.0 83.8,232.0 99.7,232.0 115.7,232.0 131.6,232.0 147.5,232.0 163.4,232.0 179.3,232.0 195.2,232.0 211.1,232.0 227.1,232.0 243.0,232.0 258.9,172.3 274.8,28.0 290.7,75.7 306.6,187.5 322.6,176.1 338.5,60.4 354.4,62.3 370.3,190.7 386.2,135.4 402.1,209.8 418.0,220.6 434.0,230.7 449.9,232.0 465.8,231.4 481.7,228.8 497.6,232.0 513.5,232.0 529.4,232.0 545.4,203.4 561.3,232.0 577.2,203.4 593.1,221.8 609.0,172.9 624.9,228.2 640.9,232.0 656.8,230.1 672.7,231.4 688.6,232.0 704.5,230.7 720.4,232.0 736.3,231.4 752.3,231.4 768.2,231.4 784.1,232.0 800.0,231.4"
            fill="none" stroke="#4e79a7"
            stroke-width="2" stroke-linejoin="round"/>
  <polyline points="52.0,232.0 67.9,232.0 83.8,232.0 99.7,232.0 115.7,232.0 131.6,232.0 147.5,232.0 163.4,232.0 179.3,232.0 195.2,232.0 211.1,232.0 227.1,232.0 243.0,232.0 258.9,217.4 274.8,151.3 290.7,185.0 306.6,221.8 322.6,209.1 338.5,175.4 354.4,182.4 370.3,209.1 386.2,189.4 402.1,225.6 418.0,228.2 434.0,231.4 449.9,232.0 465.8,231.4 481.7,230.1 497.6,232.0 513.5,232.0 529.4,232.0 545.4,227.6 561.3,232.0 577.2,226.9 593.1,229.5 609.0,211.7 624.9,228.2 640.9,232.0 656.8,230.1 672.7,231.4 688.6,232.0 704.5,230.7 720.4,232.0 736.3,231.4 752.3,231.4 768.2,231.4 784.1,232.0 800.0,231.4"
            fill="none" stroke="#f28e2b"
            stroke-width="2" stroke-linejoin="round"
            stroke-dasharray="5,3"/>

  <!-- dots -->
  <circle cx="52.0" cy="232.0" r="3" fill="#4e79a7"/><circle cx="67.9" cy="232.0" r="3" fill="#4e79a7"/><circle cx="83.8" cy="232.0" r="3" fill="#4e79a7"/><circle cx="99.7" cy="232.0" r="3" fill="#4e79a7"/><circle cx="115.7" cy="232.0" r="3" fill="#4e79a7"/><circle cx="131.6" cy="232.0" r="3" fill="#4e79a7"/><circle cx="147.5" cy="232.0" r="3" fill="#4e79a7"/><circle cx="163.4" cy="232.0" r="3" fill="#4e79a7"/><circle cx="179.3" cy="232.0" r="3" fill="#4e79a7"/><circle cx="195.2" cy="232.0" r="3" fill="#4e79a7"/><circle cx="211.1" cy="232.0" r="3" fill="#4e79a7"/><circle cx="227.1" cy="232.0" r="3" fill="#4e79a7"/><circle cx="243.0" cy="232.0" r="3" fill="#4e79a7"/><circle cx="258.9" cy="172.3" r="3" fill="#4e79a7"/><circle cx="274.8" cy="28.0" r="3" fill="#4e79a7"/><circle cx="290.7" cy="75.7" r="3" fill="#4e79a7"/><circle cx="306.6" cy="187.5" r="3" fill="#4e79a7"/><circle cx="322.6" cy="176.1" r="3" fill="#4e79a7"/><circle cx="338.5" cy="60.4" r="3" fill="#4e79a7"/><circle cx="354.4" cy="62.3" r="3" fill="#4e79a7"/><circle cx="370.3" cy="190.7" r="3" fill="#4e79a7"/><circle cx="386.2" cy="135.4" r="3" fill="#4e79a7"/><circle cx="402.1" cy="209.8" r="3" fill="#4e79a7"/><circle cx="418.0" cy="220.6" r="3" fill="#4e79a7"/><circle cx="434.0" cy="230.7" r="3" fill="#4e79a7"/><circle cx="449.9" cy="232.0" r="3" fill="#4e79a7"/><circle cx="465.8" cy="231.4" r="3" fill="#4e79a7"/><circle cx="481.7" cy="228.8" r="3" fill="#4e79a7"/><circle cx="497.6" cy="232.0" r="3" fill="#4e79a7"/><circle cx="513.5" cy="232.0" r="3" fill="#4e79a7"/><circle cx="529.4" cy="232.0" r="3" fill="#4e79a7"/><circle cx="545.4" cy="203.4" r="3" fill="#4e79a7"/><circle cx="561.3" cy="232.0" r="3" fill="#4e79a7"/><circle cx="577.2" cy="203.4" r="3" fill="#4e79a7"/><circle cx="593.1" cy="221.8" r="3" fill="#4e79a7"/><circle cx="609.0" cy="172.9" r="3" fill="#4e79a7"/><circle cx="624.9" cy="228.2" r="3" fill="#4e79a7"/><circle cx="640.9" cy="232.0" r="3" fill="#4e79a7"/><circle cx="656.8" cy="230.1" r="3" fill="#4e79a7"/><circle cx="672.7" cy="231.4" r="3" fill="#4e79a7"/><circle cx="688.6" cy="232.0" r="3" fill="#4e79a7"/><circle cx="704.5" cy="230.7" r="3" fill="#4e79a7"/><circle cx="720.4" cy="232.0" r="3" fill="#4e79a7"/><circle cx="736.3" cy="231.4" r="3" fill="#4e79a7"/><circle cx="752.3" cy="231.4" r="3" fill="#4e79a7"/><circle cx="768.2" cy="231.4" r="3" fill="#4e79a7"/><circle cx="784.1" cy="232.0" r="3" fill="#4e79a7"/><circle cx="800.0" cy="231.4" r="3" fill="#4e79a7"/>
  <circle cx="52.0" cy="232.0" r="3" fill="#f28e2b"/><circle cx="67.9" cy="232.0" r="3" fill="#f28e2b"/><circle cx="83.8" cy="232.0" r="3" fill="#f28e2b"/><circle cx="99.7" cy="232.0" r="3" fill="#f28e2b"/><circle cx="115.7" cy="232.0" r="3" fill="#f28e2b"/><circle cx="131.6" cy="232.0" r="3" fill="#f28e2b"/><circle cx="147.5" cy="232.0" r="3" fill="#f28e2b"/><circle cx="163.4" cy="232.0" r="3" fill="#f28e2b"/><circle cx="179.3" cy="232.0" r="3" fill="#f28e2b"/><circle cx="195.2" cy="232.0" r="3" fill="#f28e2b"/><circle cx="211.1" cy="232.0" r="3" fill="#f28e2b"/><circle cx="227.1" cy="232.0" r="3" fill="#f28e2b"/><circle cx="243.0" cy="232.0" r="3" fill="#f28e2b"/><circle cx="258.9" cy="217.4" r="3" fill="#f28e2b"/><circle cx="274.8" cy="151.3" r="3" fill="#f28e2b"/><circle cx="290.7" cy="185.0" r="3" fill="#f28e2b"/><circle cx="306.6" cy="221.8" r="3" fill="#f28e2b"/><circle cx="322.6" cy="209.1" r="3" fill="#f28e2b"/><circle cx="338.5" cy="175.4" r="3" fill="#f28e2b"/><circle cx="354.4" cy="182.4" r="3" fill="#f28e2b"/><circle cx="370.3" cy="209.1" r="3" fill="#f28e2b"/><circle cx="386.2" cy="189.4" r="3" fill="#f28e2b"/><circle cx="402.1" cy="225.6" r="3" fill="#f28e2b"/><circle cx="418.0" cy="228.2" r="3" fill="#f28e2b"/><circle cx="434.0" cy="231.4" r="3" fill="#f28e2b"/><circle cx="449.9" cy="232.0" r="3" fill="#f28e2b"/><circle cx="465.8" cy="231.4" r="3" fill="#f28e2b"/><circle cx="481.7" cy="230.1" r="3" fill="#f28e2b"/><circle cx="497.6" cy="232.0" r="3" fill="#f28e2b"/><circle cx="513.5" cy="232.0" r="3" fill="#f28e2b"/><circle cx="529.4" cy="232.0" r="3" fill="#f28e2b"/><circle cx="545.4" cy="227.6" r="3" fill="#f28e2b"/><circle cx="561.3" cy="232.0" r="3" fill="#f28e2b"/><circle cx="577.2" cy="226.9" r="3" fill="#f28e2b"/><circle cx="593.1" cy="229.5" r="3" fill="#f28e2b"/><circle cx="609.0" cy="211.7" r="3" fill="#f28e2b"/><circle cx="624.9" cy="228.2" r="3" fill="#f28e2b"/><circle cx="640.9" cy="232.0" r="3" fill="#f28e2b"/><circle cx="656.8" cy="230.1" r="3" fill="#f28e2b"/><circle cx="672.7" cy="231.4" r="3" fill="#f28e2b"/><circle cx="688.6" cy="232.0" r="3" fill="#f28e2b"/><circle cx="704.5" cy="230.7" r="3" fill="#f28e2b"/><circle cx="720.4" cy="232.0" r="3" fill="#f28e2b"/><circle cx="736.3" cy="231.4" r="3" fill="#f28e2b"/><circle cx="752.3" cy="231.4" r="3" fill="#f28e2b"/><circle cx="768.2" cy="231.4" r="3" fill="#f28e2b"/><circle cx="784.1" cy="232.0" r="3" fill="#f28e2b"/><circle cx="800.0" cy="231.4" r="3" fill="#f28e2b"/>

  <!-- axes -->
  <line x1="52" y1="28" x2="52" y2="232"
        stroke="#cccccc" stroke-width="1"/>
  <line x1="52" y1="232" x2="800" y2="232"
        stroke="#cccccc" stroke-width="1"/>

  <!-- y-axis labels -->
  <text x="47" y="236.0" text-anchor="end" font-size="10" fill="#57606a" font-family="ui-monospace, SFMono-Regular, 'SF Mono', Menlo, monospace">0</text><text x="47" y="197.9" text-anchor="end" font-size="10" fill="#57606a" font-family="ui-monospace, SFMono-Regular, 'SF Mono', Menlo, monospace">60</text><text x="47" y="159.7" text-anchor="end" font-size="10" fill="#57606a" font-family="ui-monospace, SFMono-Regular, 'SF Mono', Menlo, monospace">120</text><text x="47" y="121.6" text-anchor="end" font-size="10" fill="#57606a" font-family="ui-monospace, SFMono-Regular, 'SF Mono', Menlo, monospace">180</text><text x="47" y="83.5" text-anchor="end" font-size="10" fill="#57606a" font-family="ui-monospace, SFMono-Regular, 'SF Mono', Menlo, monospace">240</text><text x="47" y="45.3" text-anchor="end" font-size="10" fill="#57606a" font-family="ui-monospace, SFMono-Regular, 'SF Mono', Menlo, monospace">300</text><text x="47" y="7.2" text-anchor="end" font-size="10" fill="#57606a" font-family="ui-monospace, SFMono-Regular, 'SF Mono', Menlo, monospace">360</text>

  <!-- x-axis labels -->
  <text x="52.0" y="248" text-anchor="middle" font-size="10" fill="#8c959f" font-family="ui-monospace, SFMono-Regular, 'SF Mono', Menlo, monospace">05-14</text><text x="624.9" y="248" text-anchor="middle" font-size="10" fill="#8c959f" font-family="ui-monospace, SFMono-Regular, 'SF Mono', Menlo, monospace">06-19</text><text x="147.5" y="248" text-anchor="middle" font-size="10" fill="#8c959f" font-family="ui-monospace, SFMono-Regular, 'SF Mono', Menlo, monospace">05-20</text><text x="720.4" y="248" text-anchor="middle" font-size="10" fill="#8c959f" font-family="ui-monospace, SFMono-Regular, 'SF Mono', Menlo, monospace">06-25</text><text x="243.0" y="248" text-anchor="middle" font-size="10" fill="#8c959f" font-family="ui-monospace, SFMono-Regular, 'SF Mono', Menlo, monospace">05-26</text><text x="800.0" y="248" text-anchor="middle" font-size="10" fill="#8c959f" font-family="ui-monospace, SFMono-Regular, 'SF Mono', Menlo, monospace">06-30</text><text x="338.5" y="248" text-anchor="middle" font-size="10" fill="#8c959f" font-family="ui-monospace, SFMono-Regular, 'SF Mono', Menlo, monospace">06-01</text><text x="434.0" y="248" text-anchor="middle" font-size="10" fill="#8c959f" font-family="ui-monospace, SFMono-Regular, 'SF Mono', Menlo, monospace">06-07</text><text x="529.4" y="248" text-anchor="middle" font-size="10" fill="#8c959f" font-family="ui-monospace, SFMono-Regular, 'SF Mono', Menlo, monospace">06-13</text>

  <!-- legend -->
  <rect x="60" y="262" width="16" height="3" fill="#4e79a7" rx="1"/><text x="80" y="268" font-size="11" fill="#57606a" font-family="-apple-system, BlinkMacSystemFont, 'Segoe UI', sans-serif">Total clones (1,849)</text><line x1="230" y1="264" x2="246" y2="264" stroke="#f28e2b" stroke-width="2" stroke-dasharray="5,3"/><text x="250" y="268" font-size="11" fill="#57606a" font-family="-apple-system, BlinkMacSystemFont, 'Segoe UI', sans-serif">Unique cloners</text>

</svg>