<svg xmlns="http://www.w3.org/2000/svg" viewBox="0 0 820 280" width="820" height="280">

  <!-- title -->
  <text x="52" y="18" font-size="13" font-weight="600"
        fill="#24292f" font-family="-apple-system, BlinkMacSystemFont, 'Segoe UI', sans-serif"
        >Clone traffic — vellum</text>
  <text x="800" y="18" font-size="10" fill="#8c959f"
        font-family="ui-monospace, SFMono-Regular, 'SF Mono', Menlo, monospace" text-anchor="end">2026-06-27</text>

  <!-- grid -->
  <line x1="52" y1="232.0" x2="800" y2="232.0" stroke="#e8e8e8" stroke-width="1"/><line x1="52" y1="193.9" x2="800" y2="193.9" stroke="#e8e8e8" stroke-width="1"/><line x1="52" y1="155.7" x2="800" y2="155.7" stroke="#e8e8e8" stroke-width="1"/><line x1="52" y1="117.6" x2="800" y2="117.6" stroke="#e8e8e8" stroke-width="1"/><line x1="52" y1="79.5" x2="800" y2="79.5" stroke="#e8e8e8" stroke-width="1"/><line x1="52" y1="41.3" x2="800" y2="41.3" stroke="#e8e8e8" stroke-width="1"/><line x1="52" y1="3.2" x2="800" y2="3.2" stroke="#e8e8e8" stroke-width="1"/>

  <!-- area fill -->
  <path d="M52.0,232.0 L52.0,232.0 L69.8,232.0 L87.6,232.0 L105.4,232.0 L123.2,232.0 L141.0,232.0 L158.9,232.0 L176.7,232.0 L194.5,232.0 L212.3,232.0 L230.1,232.0 L247.9,232.0 L265.7,232.0 L283.5,172.3 L301.3,28.0 L319.1,75.7 L337.0,187.5 L354.8,176.1 L372.6,60.4 L390.4,62.3 L408.2,190.7 L426.0,135.4 L443.8,209.8 L461.6,220.6 L479.4,230.7 L497.2,232.0 L515.0,231.4 L532.9,228.8 L550.7,232.0 L568.5,232.0 L586.3,232.0 L604.1,203.4 L621.9,232.0 L639.7,203.4 L657.5,221.8 L675.3,172.9 L693.1,228.2 L711.0,232.0 L728.8,230.1 L746.6,231.4 L764.4,232.0 L782.2,230.7 L800.0,232.0 L800.0,232.0 L52.0,232.0Z" fill="#4e79a7" opacity="0.12"/>

  <!-- lines -->
  <polyline points="52.0,232.0 69.8,232.0 87.6,232.0 105.4,232.0 123.2,232.0 141.0,232.0 158.9,232.0 176.7,232.0 194.5,232.0 212.3,232.0 230.1,232.0 247.9,232.0 265.7,232.0 283.5,172.3 301.3,28.0 319.1,75.7 337.0,187.5 354.8,176.1 372.6,60.4 390.4,62.3 408.2,190.7 426.0,135.4 443.8,209.8 461.6,220.6 479.4,230.7 497.2,232.0 515.0,231.4 532.9,228.8 550.7,232.0 568.5,232.0 586.3,232.0 604.1,203.4 621.9,232.0 639.7,203.4 657.5,221.8 675.3,172.9 693.1,228.2 711.0,232.0 728.8,230.1 746.6,231.4 764.4,232.0 782.2,230.7 800.0,232.0"
            fill="none" stroke="#4e79a7"
            stroke-width="2" stroke-linejoin="round"/>
  <polyline points="52.0,232.0 69.8,232.0 87.6,232.0 105.4,232.0 123.2,232.0 141.0,232.0 158.9,232.0 176.7,232.0 194.5,232.0 212.3,232.0 230.1,232.0 247.9,232.0 265.7,232.0 283.5,217.4 301.3,151.3 319.1,185.0 337.0,221.8 354.8,209.1 372.6,175.4 390.4,182.4 408.2,209.1 426.0,189.4 443.8,225.6 461.6,228.2 479.4,231.4 497.2,232.0 515.0,231.4 532.9,230.1 550.7,232.0 568.5,232.0 586.3,232.0 604.1,227.6 621.9,232.0 639.7,226.9 657.5,229.5 675.3,211.7 693.1,228.2 711.0,232.0 728.8,230.1 746.6,231.4 764.4,232.0 782.2,230.7 800.0,232.0"
            fill="none" stroke="#f28e2b"
            stroke-width="2" stroke-linejoin="round"
            stroke-dasharray="5,3"/>

  <!-- dots -->
  <circle cx="52.0" cy="232.0" r="3" fill="#4e79a7"/><circle cx="69.8" cy="232.0" r="3" fill="#4e79a7"/><circle cx="87.6" cy="232.0" r="3" fill="#4e79a7"/><circle cx="105.4" cy="232.0" r="3" fill="#4e79a7"/><circle cx="123.2" cy="232.0" r="3" fill="#4e79a7"/><circle cx="141.0" cy="232.0" r="3" fill="#4e79a7"/><circle cx="158.9" cy="232.0" r="3" fill="#4e79a7"/><circle cx="176.7" cy="232.0" r="3" fill="#4e79a7"/><circle cx="194.5" cy="232.0" r="3" fill="#4e79a7"/><circle cx="212.3" cy="232.0" r="3" fill="#4e79a7"/><circle cx="230.1" cy="232.0" r="3" fill="#4e79a7"/><circle cx="247.9" cy="232.0" r="3" fill="#4e79a7"/><circle cx="265.7" cy="232.0" r="3" fill="#4e79a7"/><circle cx="283.5" cy="172.3" r="3" fill="#4e79a7"/><circle cx="301.3" cy="28.0" r="3" fill="#4e79a7"/><circle cx="319.1" cy="75.7" r="3" fill="#4e79a7"/><circle cx="337.0" cy="187.5" r="3" fill="#4e79a7"/><circle cx="354.8" cy="176.1" r="3" fill="#4e79a7"/><circle cx="372.6" cy="60.4" r="3" fill="#4e79a7"/><circle cx="390.4" cy="62.3" r="3" fill="#4e79a7"/><circle cx="408.2" cy="190.7" r="3" fill="#4e79a7"/><circle cx="426.0" cy="135.4" r="3" fill="#4e79a7"/><circle cx="443.8" cy="209.8" r="3" fill="#4e79a7"/><circle cx="461.6" cy="220.6" r="3" fill="#4e79a7"/><circle cx="479.4" cy="230.7" r="3" fill="#4e79a7"/><circle cx="497.2" cy="232.0" r="3" fill="#4e79a7"/><circle cx="515.0" cy="231.4" r="3" fill="#4e79a7"/><circle cx="532.9" cy="228.8" r="3" fill="#4e79a7"/><circle cx="550.7" cy="232.0" r="3" fill="#4e79a7"/><circle cx="568.5" cy="232.0" r="3" fill="#4e79a7"/><circle cx="586.3" cy="232.0" r="3" fill="#4e79a7"/><circle cx="604.1" cy="203.4" r="3" fill="#4e79a7"/><circle cx="621.9" cy="232.0" r="3" fill="#4e79a7"/><circle cx="639.7" cy="203.4" r="3" fill="#4e79a7"/><circle cx="657.5" cy="221.8" r="3" fill="#4e79a7"/><circle cx="675.3" cy="172.9" r="3" fill="#4e79a7"/><circle cx="693.1" cy="228.2" r="3" fill="#4e79a7"/><circle cx="711.0" cy="232.0" r="3" fill="#4e79a7"/><circle cx="728.8" cy="230.1" r="3" fill="#4e79a7"/><circle cx="746.6" cy="231.4" r="3" fill="#4e79a7"/><circle cx="764.4" cy="232.0" r="3" fill="#4e79a7"/><circle cx="782.2" cy="230.7" r="3" fill="#4e79a7"/><circle cx="800.0" cy="232.0" r="3" fill="#4e79a7"/>
  <circle cx="52.0" cy="232.0" r="3" fill="#f28e2b"/><circle cx="69.8" cy="232.0" r="3" fill="#f28e2b"/><circle cx="87.6" cy="232.0" r="3" fill="#f28e2b"/><circle cx="105.4" cy="232.0" r="3" fill="#f28e2b"/><circle cx="123.2" cy="232.0" r="3" fill="#f28e2b"/><circle cx="141.0" cy="232.0" r="3" fill="#f28e2b"/><circle cx="158.9" cy="232.0" r="3" fill="#f28e2b"/><circle cx="176.7" cy="232.0" r="3" fill="#f28e2b"/><circle cx="194.5" cy="232.0" r="3" fill="#f28e2b"/><circle cx="212.3" cy="232.0" r="3" fill="#f28e2b"/><circle cx="230.1" cy="232.0" r="3" fill="#f28e2b"/><circle cx="247.9" cy="232.0" r="3" fill="#f28e2b"/><circle cx="265.7" cy="232.0" r="3" fill="#f28e2b"/><circle cx="283.5" cy="217.4" r="3" fill="#f28e2b"/><circle cx="301.3" cy="151.3" r="3" fill="#f28e2b"/><circle cx="319.1" cy="185.0" r="3" fill="#f28e2b"/><circle cx="337.0" cy="221.8" r="3" fill="#f28e2b"/><circle cx="354.8" cy="209.1" r="3" fill="#f28e2b"/><circle cx="372.6" cy="175.4" r="3" fill="#f28e2b"/><circle cx="390.4" cy="182.4" r="3" fill="#f28e2b"/><circle cx="408.2" cy="209.1" r="3" fill="#f28e2b"/><circle cx="426.0" cy="189.4" r="3" fill="#f28e2b"/><circle cx="443.8" cy="225.6" r="3" fill="#f28e2b"/><circle cx="461.6" cy="228.2" r="3" fill="#f28e2b"/><circle cx="479.4" cy="231.4" r="3" fill="#f28e2b"/><circle cx="497.2" cy="232.0" r="3" fill="#f28e2b"/><circle cx="515.0" cy="231.4" r="3" fill="#f28e2b"/><circle cx="532.9" cy="230.1" r="3" fill="#f28e2b"/><circle cx="550.7" cy="232.0" r="3" fill="#f28e2b"/><circle cx="568.5" cy="232.0" r="3" fill="#f28e2b"/><circle cx="586.3" cy="232.0" r="3" fill="#f28e2b"/><circle cx="604.1" cy="227.6" r="3" fill="#f28e2b"/><circle cx="621.9" cy="232.0" r="3" fill="#f28e2b"/><circle cx="639.7" cy="226.9" r="3" fill="#f28e2b"/><circle cx="657.5" cy="229.5" r="3" fill="#f28e2b"/><circle cx="675.3" cy="211.7" r="3" fill="#f28e2b"/><circle cx="693.1" cy="228.2" r="3" fill="#f28e2b"/><circle cx="711.0" cy="232.0" r="3" fill="#f28e2b"/><circle cx="728.8" cy="230.1" r="3" fill="#f28e2b"/><circle cx="746.6" cy="231.4" r="3" fill="#f28e2b"/><circle cx="764.4" cy="232.0" r="3" fill="#f28e2b"/><circle cx="782.2" cy="230.7" r="3" fill="#f28e2b"/><circle cx="800.0" cy="232.0" r="3" fill="#f28e2b"/>

  <!-- axes -->
  <line x1="52" y1="28" x2="52" y2="232"
        stroke="#cccccc" stroke-width="1"/>
  <line x1="52" y1="232" x2="800" y2="232"
        stroke="#cccccc" stroke-width="1"/>

  <!-- y-axis labels -->
  <text x="47" y="236.0" text-anchor="end" font-size="10" fill="#57606a" font-family="ui-monospace, SFMono-Regular, 'SF Mono', Menlo, monospace">0</text><text x="47" y="197.9" text-anchor="end" font-size="10" fill="#57606a" font-family="ui-monospace, SFMono-Regular, 'SF Mono', Menlo, monospace">60</text><text x="47" y="159.7" text-anchor="end" font-size="10" fill="#57606a" font-family="ui-monospace, SFMono-Regular, 'SF Mono', Menlo, monospace">120</text><text x="47" y="121.6" text-anchor="end" font-size="10" fill="#57606a" font-family="ui-monospace, SFMono-Regular, 'SF Mono', Menlo, monospace">180</text><text x="47" y="83.5" text-anchor="end" font-size="10" fill="#57606a" font-family="ui-monospace, SFMono-Regular, 'SF Mono', Menlo, monospace">240</text><text x="47" y="45.3" text-anchor="end" font-size="10" fill="#57606a" font-family="ui-monospace, SFMono-Regular, 'SF Mono', Menlo, monospace">300</text><text x="47" y="7.2" text-anchor="end" font-size="10" fill="#57606a" font-family="ui-monospace, SFMono-Regular, 'SF Mono', Menlo, monospace">360</text>

  <!-- x-axis labels -->
  <text x="52.0" y="248" text-anchor="middle" font-size="10" fill="#8c959f" font-family="ui-monospace, SFMono-Regular, 'SF Mono', Menlo, monospace">05-14</text><text x="675.3" y="248" text-anchor="middle" font-size="10" fill="#8c959f" font-family="ui-monospace, SFMono-Regular, 'SF Mono', Menlo, monospace">06-18</text><text x="141.0" y="248" text-anchor="middle" font-size="10" fill="#8c959f" font-family="ui-monospace, SFMono-Regular, 'SF Mono', Menlo, monospace">05-19</text><text x="764.4" y="248" text-anchor="middle" font-size="10" fill="#8c959f" font-family="ui-monospace, SFMono-Regular, 'SF Mono', Menlo, monospace">06-23</text><text x="230.1" y="248" text-anchor="middle" font-size="10" fill="#8c959f" font-family="ui-monospace, SFMono-Regular, 'SF Mono', Menlo, monospace">05-24</text><text x="800.0" y="248" text-anchor="middle" font-size="10" fill="#8c959f" font-family="ui-monospace, SFMono-Regular, 'SF Mono', Menlo, monospace">06-25</text><text x="319.1" y="248" text-anchor="middle" font-size="10" fill="#8c959f" font-family="ui-monospace, SFMono-Regular, 'SF Mono', Menlo, monospace">05-29</text><text x="408.2" y="248" text-anchor="middle" font-size="10" fill="#8c959f" font-family="ui-monospace, SFMono-Regular, 'SF Mono', Menlo, monospace">06-03</text><text x="497.2" y="248" text-anchor="middle" font-size="10" fill="#8c959f" font-family="ui-monospace, SFMono-Regular, 'SF Mono', Menlo, monospace">06-08</text><text x="586.3" y="248" text-anchor="middle" font-size="10" fill="#8c959f" font-family="ui-monospace, SFMono-Regular, 'SF Mono', Menlo, monospace">06-13</text>

  <!-- legend -->
  <rect x="60" y="262" width="16" height="3" fill="#4e79a7" rx="1"/><text x="80" y="268" font-size="11" fill="#57606a" font-family="-apple-system, BlinkMacSystemFont, 'Segoe UI', sans-serif">Total clones (1,845)</text><line x1="230" y1="264" x2="246" y2="264" stroke="#f28e2b" stroke-width="2" stroke-dasharray="5,3"/><text x="250" y="268" font-size="11" fill="#57606a" font-family="-apple-system, BlinkMacSystemFont, 'Segoe UI', sans-serif">Unique cloners</text>

</svg>