<svg xmlns="http://www.w3.org/2000/svg" viewBox="0 0 820 280" width="820" height="280">

  <!-- title -->
  <text x="52" y="18" font-size="13" font-weight="600"
        fill="#24292f" font-family="-apple-system, BlinkMacSystemFont, 'Segoe UI', sans-serif"
        >Clone traffic — vellum</text>
  <text x="800" y="18" font-size="10" fill="#8c959f"
        font-family="ui-monospace, SFMono-Regular, 'SF Mono', Menlo, monospace" text-anchor="end">2026-07-09</text>

  <!-- grid -->
  <line x1="52" y1="232.0" x2="800" y2="232.0" stroke="#e8e8e8" stroke-width="1"/><line x1="52" y1="193.9" x2="800" y2="193.9" stroke="#e8e8e8" stroke-width="1"/><line x1="52" y1="155.7" x2="800" y2="155.7" stroke="#e8e8e8" stroke-width="1"/><line x1="52" y1="117.6" x2="800" y2="117.6" stroke="#e8e8e8" stroke-width="1"/><line x1="52" y1="79.5" x2="800" y2="79.5" stroke="#e8e8e8" stroke-width="1"/><line x1="52" y1="41.3" x2="800" y2="41.3" stroke="#e8e8e8" stroke-width="1"/><line x1="52" y1="3.2" x2="800" y2="3.2" stroke="#e8e8e8" stroke-width="1"/>

  <!-- area fill -->
  <path d="M52.0,232.0 L52.0,232.0 L65.9,232.0 L79.7,232.0 L93.6,232.0 L107.4,232.0 L121.3,232.0 L135.1,232.0 L149.0,232.0 L162.8,232.0 L176.7,232.0 L190.5,232.0 L204.4,232.0 L218.2,232.0 L232.1,172.3 L245.9,28.0 L259.8,75.7 L273.6,187.5 L287.5,176.1 L301.3,60.4 L315.2,62.3 L329.0,190.7 L342.9,135.4 L356.7,209.8 L370.6,220.6 L384.4,230.7 L398.3,232.0 L412.1,231.4 L426.0,228.8 L439.9,232.0 L453.7,232.0 L467.6,232.0 L481.4,203.4 L495.3,232.0 L509.1,203.4 L523.0,221.8 L536.8,172.9 L550.7,228.2 L564.5,232.0 L578.4,230.1 L592.2,231.4 L606.1,232.0 L619.9,230.7 L633.8,232.0 L647.6,231.4 L661.5,231.4 L675.3,231.4 L689.2,232.0 L703.0,231.4 L716.9,231.4 L730.7,232.0 L744.6,232.0 L758.4,231.4 L772.3,232.0 L786.1,232.0 L800.0,226.9 L800.0,232.0 L52.0,232.0Z" fill="#4e79a7" opacity="0.12"/>

  <!-- lines -->
  <polyline points="52.0,232.0 65.9,232.0 79.7,232.0 93.6,232.0 107.4,232.0 121.3,232.0 135.1,232.0 149.0,232.0 162.8,232.0 176.7,232.0 190.5,232.0 204.4,232.0 218.2,232.0 232.1,172.3 245.9,28.0 259.8,75.7 273.6,187.5 287.5,176.1 301.3,60.4 315.2,62.3 329.0,190.7 342.9,135.4 356.7,209.8 370.6,220.6 384.4,230.7 398.3,232.0 412.1,231.4 426.0,228.8 439.9,232.0 453.7,232.0 467.6,232.0 481.4,203.4 495.3,232.0 509.1,203.4 523.0,221.8 536.8,172.9 550.7,228.2 564.5,232.0 578.4,230.1 592.2,231.4 606.1,232.0 619.9,230.7 633.8,232.0 647.6,231.4 661.5,231.4 675.3,231.4 689.2,232.0 703.0,231.4 716.9,231.4 730.7,232.0 744.6,232.0 758.4,231.4 772.3,232.0 786.1,232.0 800.0,226.9"
            fill="none" stroke="#4e79a7"
            stroke-width="2" stroke-linejoin="round"/>
  <polyline points="52.0,232.0 65.9,232.0 79.7,232.0 93.6,232.0 107.4,232.0 121.3,232.0 135.1,232.0 149.0,232.0 162.8,232.0 176.7,232.0 190.5,232.0 204.4,232.0 218.2,232.0 232.1,217.4 245.9,151.3 259.8,185.0 273.6,221.8 287.5,209.1 301.3,175.4 315.2,182.4 329.0,209.1 342.9,189.4 356.7,225.6 370.6,228.2 384.4,231.4 398.3,232.0 412.1,231.4 426.0,230.1 439.9,232.0 453.7,232.0 467.6,232.0 481.4,227.6 495.3,232.0 509.1,226.9 523.0,229.5 536.8,211.7 550.7,228.2 564.5,232.0 578.4,230.1 592.2,231.4 606.1,232.0 619.9,230.7 633.8,232.0 647.6,231.4 661.5,231.4 675.3,231.4 689.2,232.0 703.0,231.4 716.9,231.4 730.7,232.0 744.6,232.0 758.4,231.4 772.3,232.0 786.1,232.0 800.0,231.4"
            fill="none" stroke="#f28e2b"
            stroke-width="2" stroke-linejoin="round"
            stroke-dasharray="5,3"/>

  <!-- dots -->
  <circle cx="52.0" cy="232.0" r="3" fill="#4e79a7"/><circle cx="65.9" cy="232.0" r="3" fill="#4e79a7"/><circle cx="79.7" cy="232.0" r="3" fill="#4e79a7"/><circle cx="93.6" cy="232.0" r="3" fill="#4e79a7"/><circle cx="107.4" cy="232.0" r="3" fill="#4e79a7"/><circle cx="121.3" cy="232.0" r="3" fill="#4e79a7"/><circle cx="135.1" cy="232.0" r="3" fill="#4e79a7"/><circle cx="149.0" cy="232.0" r="3" fill="#4e79a7"/><circle cx="162.8" cy="232.0" r="3" fill="#4e79a7"/><circle cx="176.7" cy="232.0" r="3" fill="#4e79a7"/><circle cx="190.5" cy="232.0" r="3" fill="#4e79a7"/><circle cx="204.4" cy="232.0" r="3" fill="#4e79a7"/><circle cx="218.2" cy="232.0" r="3" fill="#4e79a7"/><circle cx="232.1" cy="172.3" r="3" fill="#4e79a7"/><circle cx="245.9" cy="28.0" r="3" fill="#4e79a7"/><circle cx="259.8" cy="75.7" r="3" fill="#4e79a7"/><circle cx="273.6" cy="187.5" r="3" fill="#4e79a7"/><circle cx="287.5" cy="176.1" r="3" fill="#4e79a7"/><circle cx="301.3" cy="60.4" r="3" fill="#4e79a7"/><circle cx="315.2" cy="62.3" r="3" fill="#4e79a7"/><circle cx="329.0" cy="190.7" r="3" fill="#4e79a7"/><circle cx="342.9" cy="135.4" r="3" fill="#4e79a7"/><circle cx="356.7" cy="209.8" r="3" fill="#4e79a7"/><circle cx="370.6" cy="220.6" r="3" fill="#4e79a7"/><circle cx="384.4" cy="230.7" r="3" fill="#4e79a7"/><circle cx="398.3" cy="232.0" r="3" fill="#4e79a7"/><circle cx="412.1" cy="231.4" r="3" fill="#4e79a7"/><circle cx="426.0" cy="228.8" r="3" fill="#4e79a7"/><circle cx="439.9" cy="232.0" r="3" fill="#4e79a7"/><circle cx="453.7" cy="232.0" r="3" fill="#4e79a7"/><circle cx="467.6" cy="232.0" r="3" fill="#4e79a7"/><circle cx="481.4" cy="203.4" r="3" fill="#4e79a7"/><circle cx="495.3" cy="232.0" r="3" fill="#4e79a7"/><circle cx="509.1" cy="203.4" r="3" fill="#4e79a7"/><circle cx="523.0" cy="221.8" r="3" fill="#4e79a7"/><circle cx="536.8" cy="172.9" r="3" fill="#4e79a7"/><circle cx="550.7" cy="228.2" r="3" fill="#4e79a7"/><circle cx="564.5" cy="232.0" r="3" fill="#4e79a7"/><circle cx="578.4" cy="230.1" r="3" fill="#4e79a7"/><circle cx="592.2" cy="231.4" r="3" fill="#4e79a7"/><circle cx="606.1" cy="232.0" r="3" fill="#4e79a7"/><circle cx="619.9" cy="230.7" r="3" fill="#4e79a7"/><circle cx="633.8" cy="232.0" r="3" fill="#4e79a7"/><circle cx="647.6" cy="231.4" r="3" fill="#4e79a7"/><circle cx="661.5" cy="231.4" r="3" fill="#4e79a7"/><circle cx="675.3" cy="231.4" r="3" fill="#4e79a7"/><circle cx="689.2" cy="232.0" r="3" fill="#4e79a7"/><circle cx="703.0" cy="231.4" r="3" fill="#4e79a7"/><circle cx="716.9" cy="231.4" r="3" fill="#4e79a7"/><circle cx="730.7" cy="232.0" r="3" fill="#4e79a7"/><circle cx="744.6" cy="232.0" r="3" fill="#4e79a7"/><circle cx="758.4" cy="231.4" r="3" fill="#4e79a7"/><circle cx="772.3" cy="232.0" r="3" fill="#4e79a7"/><circle cx="786.1" cy="232.0" r="3" fill="#4e79a7"/><circle cx="800.0" cy="226.9" r="3" fill="#4e79a7"/>
  <circle cx="52.0" cy="232.0" r="3" fill="#f28e2b"/><circle cx="65.9" cy="232.0" r="3" fill="#f28e2b"/><circle cx="79.7" cy="232.0" r="3" fill="#f28e2b"/><circle cx="93.6" cy="232.0" r="3" fill="#f28e2b"/><circle cx="107.4" cy="232.0" r="3" fill="#f28e2b"/><circle cx="121.3" cy="232.0" r="3" fill="#f28e2b"/><circle cx="135.1" cy="232.0" r="3" fill="#f28e2b"/><circle cx="149.0" cy="232.0" r="3" fill="#f28e2b"/><circle cx="162.8" cy="232.0" r="3" fill="#f28e2b"/><circle cx="176.7" cy="232.0" r="3" fill="#f28e2b"/><circle cx="190.5" cy="232.0" r="3" fill="#f28e2b"/><circle cx="204.4" cy="232.0" r="3" fill="#f28e2b"/><circle cx="218.2" cy="232.0" r="3" fill="#f28e2b"/><circle cx="232.1" cy="217.4" r="3" fill="#f28e2b"/><circle cx="245.9" cy="151.3" r="3" fill="#f28e2b"/><circle cx="259.8" cy="185.0" r="3" fill="#f28e2b"/><circle cx="273.6" cy="221.8" r="3" fill="#f28e2b"/><circle cx="287.5" cy="209.1" r="3" fill="#f28e2b"/><circle cx="301.3" cy="175.4" r="3" fill="#f28e2b"/><circle cx="315.2" cy="182.4" r="3" fill="#f28e2b"/><circle cx="329.0" cy="209.1" r="3" fill="#f28e2b"/><circle cx="342.9" cy="189.4" r="3" fill="#f28e2b"/><circle cx="356.7" cy="225.6" r="3" fill="#f28e2b"/><circle cx="370.6" cy="228.2" r="3" fill="#f28e2b"/><circle cx="384.4" cy="231.4" r="3" fill="#f28e2b"/><circle cx="398.3" cy="232.0" r="3" fill="#f28e2b"/><circle cx="412.1" cy="231.4" r="3" fill="#f28e2b"/><circle cx="426.0" cy="230.1" r="3" fill="#f28e2b"/><circle cx="439.9" cy="232.0" r="3" fill="#f28e2b"/><circle cx="453.7" cy="232.0" r="3" fill="#f28e2b"/><circle cx="467.6" cy="232.0" r="3" fill="#f28e2b"/><circle cx="481.4" cy="227.6" r="3" fill="#f28e2b"/><circle cx="495.3" cy="232.0" r="3" fill="#f28e2b"/><circle cx="509.1" cy="226.9" r="3" fill="#f28e2b"/><circle cx="523.0" cy="229.5" r="3" fill="#f28e2b"/><circle cx="536.8" cy="211.7" r="3" fill="#f28e2b"/><circle cx="550.7" cy="228.2" r="3" fill="#f28e2b"/><circle cx="564.5" cy="232.0" r="3" fill="#f28e2b"/><circle cx="578.4" cy="230.1" r="3" fill="#f28e2b"/><circle cx="592.2" cy="231.4" r="3" fill="#f28e2b"/><circle cx="606.1" cy="232.0" r="3" fill="#f28e2b"/><circle cx="619.9" cy="230.7" r="3" fill="#f28e2b"/><circle cx="633.8" cy="232.0" r="3" fill="#f28e2b"/><circle cx="647.6" cy="231.4" r="3" fill="#f28e2b"/><circle cx="661.5" cy="231.4" r="3" fill="#f28e2b"/><circle cx="675.3" cy="231.4" r="3" fill="#f28e2b"/><circle cx="689.2" cy="232.0" r="3" fill="#f28e2b"/><circle cx="703.0" cy="231.4" r="3" fill="#f28e2b"/><circle cx="716.9" cy="231.4" r="3" fill="#f28e2b"/><circle cx="730.7" cy="232.0" r="3" fill="#f28e2b"/><circle cx="744.6" cy="232.0" r="3" fill="#f28e2b"/><circle cx="758.4" cy="231.4" r="3" fill="#f28e2b"/><circle cx="772.3" cy="232.0" r="3" fill="#f28e2b"/><circle cx="786.1" cy="232.0" r="3" fill="#f28e2b"/><circle cx="800.0" cy="231.4" r="3" fill="#f28e2b"/>

  <!-- axes -->
  <line x1="52" y1="28" x2="52" y2="232"
        stroke="#cccccc" stroke-width="1"/>
  <line x1="52" y1="232" x2="800" y2="232"
        stroke="#cccccc" stroke-width="1"/>

  <!-- y-axis labels -->
  <text x="47" y="236.0" text-anchor="end" font-size="10" fill="#57606a" font-family="ui-monospace, SFMono-Regular, 'SF Mono', Menlo, monospace">0</text><text x="47" y="197.9" text-anchor="end" font-size="10" fill="#57606a" font-family="ui-monospace, SFMono-Regular, 'SF Mono', Menlo, monospace">60</text><text x="47" y="159.7" text-anchor="end" font-size="10" fill="#57606a" font-family="ui-monospace, SFMono-Regular, 'SF Mono', Menlo, monospace">120</text><text x="47" y="121.6" text-anchor="end" font-size="10" fill="#57606a" font-family="ui-monospace, SFMono-Regular, 'SF Mono', Menlo, monospace">180</text><text x="47" y="83.5" text-anchor="end" font-size="10" fill="#57606a" font-family="ui-monospace, SFMono-Regular, 'SF Mono', Menlo, monospace">240</text><text x="47" y="45.3" text-anchor="end" font-size="10" fill="#57606a" font-family="ui-monospace, SFMono-Regular, 'SF Mono', Menlo, monospace">300</text><text x="47" y="7.2" text-anchor="end" font-size="10" fill="#57606a" font-family="ui-monospace, SFMono-Regular, 'SF Mono', Menlo, monospace">360</text>

  <!-- x-axis labels -->
  <text x="52.0" y="248" text-anchor="middle" font-size="10" fill="#8c959f" font-family="ui-monospace, SFMono-Regular, 'SF Mono', Menlo, monospace">05-14</text><text x="550.7" y="248" text-anchor="middle" font-size="10" fill="#8c959f" font-family="ui-monospace, SFMono-Regular, 'SF Mono', Menlo, monospace">06-19</text><text x="135.1" y="248" text-anchor="middle" font-size="10" fill="#8c959f" font-family="ui-monospace, SFMono-Regular, 'SF Mono', Menlo, monospace">05-20</text><text x="633.8" y="248" text-anchor="middle" font-size="10" fill="#8c959f" font-family="ui-monospace, SFMono-Regular, 'SF Mono', Menlo, monospace">06-25</text><text x="218.2" y="248" text-anchor="middle" font-size="10" fill="#8c959f" font-family="ui-monospace, SFMono-Regular, 'SF Mono', Menlo, monospace">05-26</text><text x="716.9" y="248" text-anchor="middle" font-size="10" fill="#8c959f" font-family="ui-monospace, SFMono-Regular, 'SF Mono', Menlo, monospace">07-01</text><text x="301.3" y="248" text-anchor="middle" font-size="10" fill="#8c959f" font-family="ui-monospace, SFMono-Regular, 'SF Mono', Menlo, monospace">06-01</text><text x="800.0" y="248" text-anchor="middle" font-size="10" fill="#8c959f" font-family="ui-monospace, SFMono-Regular, 'SF Mono', Menlo, monospace">07-07</text><text x="384.4" y="248" text-anchor="middle" font-size="10" fill="#8c959f" font-family="ui-monospace, SFMono-Regular, 'SF Mono', Menlo, monospace">06-07</text><text x="467.6" y="248" text-anchor="middle" font-size="10" fill="#8c959f" font-family="ui-monospace, SFMono-Regular, 'SF Mono', Menlo, monospace">06-13</text>

  <!-- legend -->
  <rect x="60" y="262" width="16" height="3" fill="#4e79a7" rx="1"/><text x="80" y="268" font-size="11" fill="#57606a" font-family="-apple-system, BlinkMacSystemFont, 'Segoe UI', sans-serif">Total clones (1,859)</text><line x1="230" y1="264" x2="246" y2="264" stroke="#f28e2b" stroke-width="2" stroke-dasharray="5,3"/><text x="250" y="268" font-size="11" fill="#57606a" font-family="-apple-system, BlinkMacSystemFont, 'Segoe UI', sans-serif">Unique cloners</text>

</svg>