<svg xmlns="http://www.w3.org/2000/svg" viewBox="0 0 820 280" width="820" height="280">

  <!-- title -->
  <text x="52" y="18" font-size="13" font-weight="600"
        fill="#24292f" font-family="-apple-system, BlinkMacSystemFont, 'Segoe UI', sans-serif"
        >Clone traffic — vellum</text>
  <text x="800" y="18" font-size="10" fill="#8c959f"
        font-family="ui-monospace, SFMono-Regular, 'SF Mono', Menlo, monospace" text-anchor="end">2026-06-25</text>

  <!-- grid -->
  <line x1="52" y1="232.0" x2="800" y2="232.0" stroke="#e8e8e8" stroke-width="1"/><line x1="52" y1="193.9" x2="800" y2="193.9" stroke="#e8e8e8" stroke-width="1"/><line x1="52" y1="155.7" x2="800" y2="155.7" stroke="#e8e8e8" stroke-width="1"/><line x1="52" y1="117.6" x2="800" y2="117.6" stroke="#e8e8e8" stroke-width="1"/><line x1="52" y1="79.5" x2="800" y2="79.5" stroke="#e8e8e8" stroke-width="1"/><line x1="52" y1="41.3" x2="800" y2="41.3" stroke="#e8e8e8" stroke-width="1"/><line x1="52" y1="3.2" x2="800" y2="3.2" stroke="#e8e8e8" stroke-width="1"/>

  <!-- area fill -->
  <path d="M52.0,232.0 L52.0,232.0 L70.7,232.0 L89.4,232.0 L108.1,232.0 L126.8,232.0 L145.5,232.0 L164.2,232.0 L182.9,232.0 L201.6,232.0 L220.3,232.0 L239.0,232.0 L257.7,232.0 L276.4,232.0 L295.1,172.3 L313.8,28.0 L332.5,75.7 L351.2,187.5 L369.9,176.1 L388.6,60.4 L407.3,62.3 L426.0,190.7 L444.7,135.4 L463.4,209.8 L482.1,220.6 L500.8,230.7 L519.5,232.0 L538.2,231.4 L556.9,228.8 L575.6,232.0 L594.3,232.0 L613.0,232.0 L631.7,203.4 L650.4,232.0 L669.1,203.4 L687.8,221.8 L706.5,172.9 L725.2,228.2 L743.9,232.0 L762.6,230.1 L781.3,231.4 L800.0,232.0 L800.0,232.0 L52.0,232.0Z" fill="#4e79a7" opacity="0.12"/>

  <!-- lines -->
  <polyline points="52.0,232.0 70.7,232.0 89.4,232.0 108.1,232.0 126.8,232.0 145.5,232.0 164.2,232.0 182.9,232.0 201.6,232.0 220.3,232.0 239.0,232.0 257.7,232.0 276.4,232.0 295.1,172.3 313.8,28.0 332.5,75.7 351.2,187.5 369.9,176.1 388.6,60.4 407.3,62.3 426.0,190.7 444.7,135.4 463.4,209.8 482.1,220.6 500.8,230.7 519.5,232.0 538.2,231.4 556.9,228.8 575.6,232.0 594.3,232.0 613.0,232.0 631.7,203.4 650.4,232.0 669.1,203.4 687.8,221.8 706.5,172.9 725.2,228.2 743.9,232.0 762.6,230.1 781.3,231.4 800.0,232.0"
            fill="none" stroke="#4e79a7"
            stroke-width="2" stroke-linejoin="round"/>
  <polyline points="52.0,232.0 70.7,232.0 89.4,232.0 108.1,232.0 126.8,232.0 145.5,232.0 164.2,232.0 182.9,232.0 201.6,232.0 220.3,232.0 239.0,232.0 257.7,232.0 276.4,232.0 295.1,217.4 313.8,151.3 332.5,185.0 351.2,221.8 369.9,209.1 388.6,175.4 407.3,182.4 426.0,209.1 444.7,189.4 463.4,225.6 482.1,228.2 500.8,231.4 519.5,232.0 538.2,231.4 556.9,230.1 575.6,232.0 594.3,232.0 613.0,232.0 631.7,227.6 650.4,232.0 669.1,226.9 687.8,229.5 706.5,211.7 725.2,228.2 743.9,232.0 762.6,230.1 781.3,231.4 800.0,232.0"
            fill="none" stroke="#f28e2b"
            stroke-width="2" stroke-linejoin="round"
            stroke-dasharray="5,3"/>

  <!-- dots -->
  <circle cx="52.0" cy="232.0" r="3" fill="#4e79a7"/><circle cx="70.7" cy="232.0" r="3" fill="#4e79a7"/><circle cx="89.4" cy="232.0" r="3" fill="#4e79a7"/><circle cx="108.1" cy="232.0" r="3" fill="#4e79a7"/><circle cx="126.8" cy="232.0" r="3" fill="#4e79a7"/><circle cx="145.5" cy="232.0" r="3" fill="#4e79a7"/><circle cx="164.2" cy="232.0" r="3" fill="#4e79a7"/><circle cx="182.9" cy="232.0" r="3" fill="#4e79a7"/><circle cx="201.6" cy="232.0" r="3" fill="#4e79a7"/><circle cx="220.3" cy="232.0" r="3" fill="#4e79a7"/><circle cx="239.0" cy="232.0" r="3" fill="#4e79a7"/><circle cx="257.7" cy="232.0" r="3" fill="#4e79a7"/><circle cx="276.4" cy="232.0" r="3" fill="#4e79a7"/><circle cx="295.1" cy="172.3" r="3" fill="#4e79a7"/><circle cx="313.8" cy="28.0" r="3" fill="#4e79a7"/><circle cx="332.5" cy="75.7" r="3" fill="#4e79a7"/><circle cx="351.2" cy="187.5" r="3" fill="#4e79a7"/><circle cx="369.9" cy="176.1" r="3" fill="#4e79a7"/><circle cx="388.6" cy="60.4" r="3" fill="#4e79a7"/><circle cx="407.3" cy="62.3" r="3" fill="#4e79a7"/><circle cx="426.0" cy="190.7" r="3" fill="#4e79a7"/><circle cx="444.7" cy="135.4" r="3" fill="#4e79a7"/><circle cx="463.4" cy="209.8" r="3" fill="#4e79a7"/><circle cx="482.1" cy="220.6" r="3" fill="#4e79a7"/><circle cx="500.8" cy="230.7" r="3" fill="#4e79a7"/><circle cx="519.5" cy="232.0" r="3" fill="#4e79a7"/><circle cx="538.2" cy="231.4" r="3" fill="#4e79a7"/><circle cx="556.9" cy="228.8" r="3" fill="#4e79a7"/><circle cx="575.6" cy="232.0" r="3" fill="#4e79a7"/><circle cx="594.3" cy="232.0" r="3" fill="#4e79a7"/><circle cx="613.0" cy="232.0" r="3" fill="#4e79a7"/><circle cx="631.7" cy="203.4" r="3" fill="#4e79a7"/><circle cx="650.4" cy="232.0" r="3" fill="#4e79a7"/><circle cx="669.1" cy="203.4" r="3" fill="#4e79a7"/><circle cx="687.8" cy="221.8" r="3" fill="#4e79a7"/><circle cx="706.5" cy="172.9" r="3" fill="#4e79a7"/><circle cx="725.2" cy="228.2" r="3" fill="#4e79a7"/><circle cx="743.9" cy="232.0" r="3" fill="#4e79a7"/><circle cx="762.6" cy="230.1" r="3" fill="#4e79a7"/><circle cx="781.3" cy="231.4" r="3" fill="#4e79a7"/><circle cx="800.0" cy="232.0" r="3" fill="#4e79a7"/>
  <circle cx="52.0" cy="232.0" r="3" fill="#f28e2b"/><circle cx="70.7" cy="232.0" r="3" fill="#f28e2b"/><circle cx="89.4" cy="232.0" r="3" fill="#f28e2b"/><circle cx="108.1" cy="232.0" r="3" fill="#f28e2b"/><circle cx="126.8" cy="232.0" r="3" fill="#f28e2b"/><circle cx="145.5" cy="232.0" r="3" fill="#f28e2b"/><circle cx="164.2" cy="232.0" r="3" fill="#f28e2b"/><circle cx="182.9" cy="232.0" r="3" fill="#f28e2b"/><circle cx="201.6" cy="232.0" r="3" fill="#f28e2b"/><circle cx="220.3" cy="232.0" r="3" fill="#f28e2b"/><circle cx="239.0" cy="232.0" r="3" fill="#f28e2b"/><circle cx="257.7" cy="232.0" r="3" fill="#f28e2b"/><circle cx="276.4" cy="232.0" r="3" fill="#f28e2b"/><circle cx="295.1" cy="217.4" r="3" fill="#f28e2b"/><circle cx="313.8" cy="151.3" r="3" fill="#f28e2b"/><circle cx="332.5" cy="185.0" r="3" fill="#f28e2b"/><circle cx="351.2" cy="221.8" r="3" fill="#f28e2b"/><circle cx="369.9" cy="209.1" r="3" fill="#f28e2b"/><circle cx="388.6" cy="175.4" r="3" fill="#f28e2b"/><circle cx="407.3" cy="182.4" r="3" fill="#f28e2b"/><circle cx="426.0" cy="209.1" r="3" fill="#f28e2b"/><circle cx="444.7" cy="189.4" r="3" fill="#f28e2b"/><circle cx="463.4" cy="225.6" r="3" fill="#f28e2b"/><circle cx="482.1" cy="228.2" r="3" fill="#f28e2b"/><circle cx="500.8" cy="231.4" r="3" fill="#f28e2b"/><circle cx="519.5" cy="232.0" r="3" fill="#f28e2b"/><circle cx="538.2" cy="231.4" r="3" fill="#f28e2b"/><circle cx="556.9" cy="230.1" r="3" fill="#f28e2b"/><circle cx="575.6" cy="232.0" r="3" fill="#f28e2b"/><circle cx="594.3" cy="232.0" r="3" fill="#f28e2b"/><circle cx="613.0" cy="232.0" r="3" fill="#f28e2b"/><circle cx="631.7" cy="227.6" r="3" fill="#f28e2b"/><circle cx="650.4" cy="232.0" r="3" fill="#f28e2b"/><circle cx="669.1" cy="226.9" r="3" fill="#f28e2b"/><circle cx="687.8" cy="229.5" r="3" fill="#f28e2b"/><circle cx="706.5" cy="211.7" r="3" fill="#f28e2b"/><circle cx="725.2" cy="228.2" r="3" fill="#f28e2b"/><circle cx="743.9" cy="232.0" r="3" fill="#f28e2b"/><circle cx="762.6" cy="230.1" r="3" fill="#f28e2b"/><circle cx="781.3" cy="231.4" r="3" fill="#f28e2b"/><circle cx="800.0" cy="232.0" r="3" fill="#f28e2b"/>

  <!-- axes -->
  <line x1="52" y1="28" x2="52" y2="232"
        stroke="#cccccc" stroke-width="1"/>
  <line x1="52" y1="232" x2="800" y2="232"
        stroke="#cccccc" stroke-width="1"/>

  <!-- y-axis labels -->
  <text x="47" y="236.0" text-anchor="end" font-size="10" fill="#57606a" font-family="ui-monospace, SFMono-Regular, 'SF Mono', Menlo, monospace">0</text><text x="47" y="197.9" text-anchor="end" font-size="10" fill="#57606a" font-family="ui-monospace, SFMono-Regular, 'SF Mono', Menlo, monospace">60</text><text x="47" y="159.7" text-anchor="end" font-size="10" fill="#57606a" font-family="ui-monospace, SFMono-Regular, 'SF Mono', Menlo, monospace">120</text><text x="47" y="121.6" text-anchor="end" font-size="10" fill="#57606a" font-family="ui-monospace, SFMono-Regular, 'SF Mono', Menlo, monospace">180</text><text x="47" y="83.5" text-anchor="end" font-size="10" fill="#57606a" font-family="ui-monospace, SFMono-Regular, 'SF Mono', Menlo, monospace">240</text><text x="47" y="45.3" text-anchor="end" font-size="10" fill="#57606a" font-family="ui-monospace, SFMono-Regular, 'SF Mono', Menlo, monospace">300</text><text x="47" y="7.2" text-anchor="end" font-size="10" fill="#57606a" font-family="ui-monospace, SFMono-Regular, 'SF Mono', Menlo, monospace">360</text>

  <!-- x-axis labels -->
  <text x="52.0" y="248" text-anchor="middle" font-size="10" fill="#8c959f" font-family="ui-monospace, SFMono-Regular, 'SF Mono', Menlo, monospace">05-14</text><text x="706.5" y="248" text-anchor="middle" font-size="10" fill="#8c959f" font-family="ui-monospace, SFMono-Regular, 'SF Mono', Menlo, monospace">06-18</text><text x="145.5" y="248" text-anchor="middle" font-size="10" fill="#8c959f" font-family="ui-monospace, SFMono-Regular, 'SF Mono', Menlo, monospace">05-19</text><text x="800.0" y="248" text-anchor="middle" font-size="10" fill="#8c959f" font-family="ui-monospace, SFMono-Regular, 'SF Mono', Menlo, monospace">06-23</text><text x="239.0" y="248" text-anchor="middle" font-size="10" fill="#8c959f" font-family="ui-monospace, SFMono-Regular, 'SF Mono', Menlo, monospace">05-24</text><text x="332.5" y="248" text-anchor="middle" font-size="10" fill="#8c959f" font-family="ui-monospace, SFMono-Regular, 'SF Mono', Menlo, monospace">05-29</text><text x="426.0" y="248" text-anchor="middle" font-size="10" fill="#8c959f" font-family="ui-monospace, SFMono-Regular, 'SF Mono', Menlo, monospace">06-03</text><text x="519.5" y="248" text-anchor="middle" font-size="10" fill="#8c959f" font-family="ui-monospace, SFMono-Regular, 'SF Mono', Menlo, monospace">06-08</text><text x="613.0" y="248" text-anchor="middle" font-size="10" fill="#8c959f" font-family="ui-monospace, SFMono-Regular, 'SF Mono', Menlo, monospace">06-13</text>

  <!-- legend -->
  <rect x="60" y="262" width="16" height="3" fill="#4e79a7" rx="1"/><text x="80" y="268" font-size="11" fill="#57606a" font-family="-apple-system, BlinkMacSystemFont, 'Segoe UI', sans-serif">Total clones (1,843)</text><line x1="230" y1="264" x2="246" y2="264" stroke="#f28e2b" stroke-width="2" stroke-dasharray="5,3"/><text x="250" y="268" font-size="11" fill="#57606a" font-family="-apple-system, BlinkMacSystemFont, 'Segoe UI', sans-serif">Unique cloners</text>

</svg>