<svg xmlns="http://www.w3.org/2000/svg" viewBox="0 0 820 280" width="820" height="280">

  <!-- title -->
  <text x="52" y="18" font-size="13" font-weight="600"
        fill="#24292f" font-family="-apple-system, BlinkMacSystemFont, 'Segoe UI', sans-serif"
        >Clone traffic — vellum</text>
  <text x="800" y="18" font-size="10" fill="#8c959f"
        font-family="ui-monospace, SFMono-Regular, 'SF Mono', Menlo, monospace" text-anchor="end">2026-06-28</text>

  <!-- grid -->
  <line x1="52" y1="232.0" x2="800" y2="232.0" stroke="#e8e8e8" stroke-width="1"/><line x1="52" y1="193.9" x2="800" y2="193.9" stroke="#e8e8e8" stroke-width="1"/><line x1="52" y1="155.7" x2="800" y2="155.7" stroke="#e8e8e8" stroke-width="1"/><line x1="52" y1="117.6" x2="800" y2="117.6" stroke="#e8e8e8" stroke-width="1"/><line x1="52" y1="79.5" x2="800" y2="79.5" stroke="#e8e8e8" stroke-width="1"/><line x1="52" y1="41.3" x2="800" y2="41.3" stroke="#e8e8e8" stroke-width="1"/><line x1="52" y1="3.2" x2="800" y2="3.2" stroke="#e8e8e8" stroke-width="1"/>

  <!-- area fill -->
  <path d="M52.0,232.0 L52.0,232.0 L69.4,232.0 L86.8,232.0 L104.2,232.0 L121.6,232.0 L139.0,232.0 L156.4,232.0 L173.8,232.0 L191.2,232.0 L208.6,232.0 L226.0,232.0 L243.3,232.0 L260.7,232.0 L278.1,172.3 L295.5,28.0 L312.9,75.7 L330.3,187.5 L347.7,176.1 L365.1,60.4 L382.5,62.3 L399.9,190.7 L417.3,135.4 L434.7,209.8 L452.1,220.6 L469.5,230.7 L486.9,232.0 L504.3,231.4 L521.7,228.8 L539.1,232.0 L556.5,232.0 L573.9,232.0 L591.3,203.4 L608.7,232.0 L626.0,203.4 L643.4,221.8 L660.8,172.9 L678.2,228.2 L695.6,232.0 L713.0,230.1 L730.4,231.4 L747.8,232.0 L765.2,230.7 L782.6,232.0 L800.0,231.4 L800.0,232.0 L52.0,232.0Z" fill="#4e79a7" opacity="0.12"/>

  <!-- lines -->
  <polyline points="52.0,232.0 69.4,232.0 86.8,232.0 104.2,232.0 121.6,232.0 139.0,232.0 156.4,232.0 173.8,232.0 191.2,232.0 208.6,232.0 226.0,232.0 243.3,232.0 260.7,232.0 278.1,172.3 295.5,28.0 312.9,75.7 330.3,187.5 347.7,176.1 365.1,60.4 382.5,62.3 399.9,190.7 417.3,135.4 434.7,209.8 452.1,220.6 469.5,230.7 486.9,232.0 504.3,231.4 521.7,228.8 539.1,232.0 556.5,232.0 573.9,232.0 591.3,203.4 608.7,232.0 626.0,203.4 643.4,221.8 660.8,172.9 678.2,228.2 695.6,232.0 713.0,230.1 730.4,231.4 747.8,232.0 765.2,230.7 782.6,232.0 800.0,231.4"
            fill="none" stroke="#4e79a7"
            stroke-width="2" stroke-linejoin="round"/>
  <polyline points="52.0,232.0 69.4,232.0 86.8,232.0 104.2,232.0 121.6,232.0 139.0,232.0 156.4,232.0 173.8,232.0 191.2,232.0 208.6,232.0 226.0,232.0 243.3,232.0 260.7,232.0 278.1,217.4 295.5,151.3 312.9,185.0 330.3,221.8 347.7,209.1 365.1,175.4 382.5,182.4 399.9,209.1 417.3,189.4 434.7,225.6 452.1,228.2 469.5,231.4 486.9,232.0 504.3,231.4 521.7,230.1 539.1,232.0 556.5,232.0 573.9,232.0 591.3,227.6 608.7,232.0 626.0,226.9 643.4,229.5 660.8,211.7 678.2,228.2 695.6,232.0 713.0,230.1 730.4,231.4 747.8,232.0 765.2,230.7 782.6,232.0 800.0,231.4"
            fill="none" stroke="#f28e2b"
            stroke-width="2" stroke-linejoin="round"
            stroke-dasharray="5,3"/>

  <!-- dots -->
  <circle cx="52.0" cy="232.0" r="3" fill="#4e79a7"/><circle cx="69.4" cy="232.0" r="3" fill="#4e79a7"/><circle cx="86.8" cy="232.0" r="3" fill="#4e79a7"/><circle cx="104.2" cy="232.0" r="3" fill="#4e79a7"/><circle cx="121.6" cy="232.0" r="3" fill="#4e79a7"/><circle cx="139.0" cy="232.0" r="3" fill="#4e79a7"/><circle cx="156.4" cy="232.0" r="3" fill="#4e79a7"/><circle cx="173.8" cy="232.0" r="3" fill="#4e79a7"/><circle cx="191.2" cy="232.0" r="3" fill="#4e79a7"/><circle cx="208.6" cy="232.0" r="3" fill="#4e79a7"/><circle cx="226.0" cy="232.0" r="3" fill="#4e79a7"/><circle cx="243.3" cy="232.0" r="3" fill="#4e79a7"/><circle cx="260.7" cy="232.0" r="3" fill="#4e79a7"/><circle cx="278.1" cy="172.3" r="3" fill="#4e79a7"/><circle cx="295.5" cy="28.0" r="3" fill="#4e79a7"/><circle cx="312.9" cy="75.7" r="3" fill="#4e79a7"/><circle cx="330.3" cy="187.5" r="3" fill="#4e79a7"/><circle cx="347.7" cy="176.1" r="3" fill="#4e79a7"/><circle cx="365.1" cy="60.4" r="3" fill="#4e79a7"/><circle cx="382.5" cy="62.3" r="3" fill="#4e79a7"/><circle cx="399.9" cy="190.7" r="3" fill="#4e79a7"/><circle cx="417.3" cy="135.4" r="3" fill="#4e79a7"/><circle cx="434.7" cy="209.8" r="3" fill="#4e79a7"/><circle cx="452.1" cy="220.6" r="3" fill="#4e79a7"/><circle cx="469.5" cy="230.7" r="3" fill="#4e79a7"/><circle cx="486.9" cy="232.0" r="3" fill="#4e79a7"/><circle cx="504.3" cy="231.4" r="3" fill="#4e79a7"/><circle cx="521.7" cy="228.8" r="3" fill="#4e79a7"/><circle cx="539.1" cy="232.0" r="3" fill="#4e79a7"/><circle cx="556.5" cy="232.0" r="3" fill="#4e79a7"/><circle cx="573.9" cy="232.0" r="3" fill="#4e79a7"/><circle cx="591.3" cy="203.4" r="3" fill="#4e79a7"/><circle cx="608.7" cy="232.0" r="3" fill="#4e79a7"/><circle cx="626.0" cy="203.4" r="3" fill="#4e79a7"/><circle cx="643.4" cy="221.8" r="3" fill="#4e79a7"/><circle cx="660.8" cy="172.9" r="3" fill="#4e79a7"/><circle cx="678.2" cy="228.2" r="3" fill="#4e79a7"/><circle cx="695.6" cy="232.0" r="3" fill="#4e79a7"/><circle cx="713.0" cy="230.1" r="3" fill="#4e79a7"/><circle cx="730.4" cy="231.4" r="3" fill="#4e79a7"/><circle cx="747.8" cy="232.0" r="3" fill="#4e79a7"/><circle cx="765.2" cy="230.7" r="3" fill="#4e79a7"/><circle cx="782.6" cy="232.0" r="3" fill="#4e79a7"/><circle cx="800.0" cy="231.4" r="3" fill="#4e79a7"/>
  <circle cx="52.0" cy="232.0" r="3" fill="#f28e2b"/><circle cx="69.4" cy="232.0" r="3" fill="#f28e2b"/><circle cx="86.8" cy="232.0" r="3" fill="#f28e2b"/><circle cx="104.2" cy="232.0" r="3" fill="#f28e2b"/><circle cx="121.6" cy="232.0" r="3" fill="#f28e2b"/><circle cx="139.0" cy="232.0" r="3" fill="#f28e2b"/><circle cx="156.4" cy="232.0" r="3" fill="#f28e2b"/><circle cx="173.8" cy="232.0" r="3" fill="#f28e2b"/><circle cx="191.2" cy="232.0" r="3" fill="#f28e2b"/><circle cx="208.6" cy="232.0" r="3" fill="#f28e2b"/><circle cx="226.0" cy="232.0" r="3" fill="#f28e2b"/><circle cx="243.3" cy="232.0" r="3" fill="#f28e2b"/><circle cx="260.7" cy="232.0" r="3" fill="#f28e2b"/><circle cx="278.1" cy="217.4" r="3" fill="#f28e2b"/><circle cx="295.5" cy="151.3" r="3" fill="#f28e2b"/><circle cx="312.9" cy="185.0" r="3" fill="#f28e2b"/><circle cx="330.3" cy="221.8" r="3" fill="#f28e2b"/><circle cx="347.7" cy="209.1" r="3" fill="#f28e2b"/><circle cx="365.1" cy="175.4" r="3" fill="#f28e2b"/><circle cx="382.5" cy="182.4" r="3" fill="#f28e2b"/><circle cx="399.9" cy="209.1" r="3" fill="#f28e2b"/><circle cx="417.3" cy="189.4" r="3" fill="#f28e2b"/><circle cx="434.7" cy="225.6" r="3" fill="#f28e2b"/><circle cx="452.1" cy="228.2" r="3" fill="#f28e2b"/><circle cx="469.5" cy="231.4" r="3" fill="#f28e2b"/><circle cx="486.9" cy="232.0" r="3" fill="#f28e2b"/><circle cx="504.3" cy="231.4" r="3" fill="#f28e2b"/><circle cx="521.7" cy="230.1" r="3" fill="#f28e2b"/><circle cx="539.1" cy="232.0" r="3" fill="#f28e2b"/><circle cx="556.5" cy="232.0" r="3" fill="#f28e2b"/><circle cx="573.9" cy="232.0" r="3" fill="#f28e2b"/><circle cx="591.3" cy="227.6" r="3" fill="#f28e2b"/><circle cx="608.7" cy="232.0" r="3" fill="#f28e2b"/><circle cx="626.0" cy="226.9" r="3" fill="#f28e2b"/><circle cx="643.4" cy="229.5" r="3" fill="#f28e2b"/><circle cx="660.8" cy="211.7" r="3" fill="#f28e2b"/><circle cx="678.2" cy="228.2" r="3" fill="#f28e2b"/><circle cx="695.6" cy="232.0" r="3" fill="#f28e2b"/><circle cx="713.0" cy="230.1" r="3" fill="#f28e2b"/><circle cx="730.4" cy="231.4" r="3" fill="#f28e2b"/><circle cx="747.8" cy="232.0" r="3" fill="#f28e2b"/><circle cx="765.2" cy="230.7" r="3" fill="#f28e2b"/><circle cx="782.6" cy="232.0" r="3" fill="#f28e2b"/><circle cx="800.0" cy="231.4" r="3" fill="#f28e2b"/>

  <!-- axes -->
  <line x1="52" y1="28" x2="52" y2="232"
        stroke="#cccccc" stroke-width="1"/>
  <line x1="52" y1="232" x2="800" y2="232"
        stroke="#cccccc" stroke-width="1"/>

  <!-- y-axis labels -->
  <text x="47" y="236.0" text-anchor="end" font-size="10" fill="#57606a" font-family="ui-monospace, SFMono-Regular, 'SF Mono', Menlo, monospace">0</text><text x="47" y="197.9" text-anchor="end" font-size="10" fill="#57606a" font-family="ui-monospace, SFMono-Regular, 'SF Mono', Menlo, monospace">60</text><text x="47" y="159.7" text-anchor="end" font-size="10" fill="#57606a" font-family="ui-monospace, SFMono-Regular, 'SF Mono', Menlo, monospace">120</text><text x="47" y="121.6" text-anchor="end" font-size="10" fill="#57606a" font-family="ui-monospace, SFMono-Regular, 'SF Mono', Menlo, monospace">180</text><text x="47" y="83.5" text-anchor="end" font-size="10" fill="#57606a" font-family="ui-monospace, SFMono-Regular, 'SF Mono', Menlo, monospace">240</text><text x="47" y="45.3" text-anchor="end" font-size="10" fill="#57606a" font-family="ui-monospace, SFMono-Regular, 'SF Mono', Menlo, monospace">300</text><text x="47" y="7.2" text-anchor="end" font-size="10" fill="#57606a" font-family="ui-monospace, SFMono-Regular, 'SF Mono', Menlo, monospace">360</text>

  <!-- x-axis labels -->
  <text x="52.0" y="248" text-anchor="middle" font-size="10" fill="#8c959f" font-family="ui-monospace, SFMono-Regular, 'SF Mono', Menlo, monospace">05-14</text><text x="660.8" y="248" text-anchor="middle" font-size="10" fill="#8c959f" font-family="ui-monospace, SFMono-Regular, 'SF Mono', Menlo, monospace">06-18</text><text x="139.0" y="248" text-anchor="middle" font-size="10" fill="#8c959f" font-family="ui-monospace, SFMono-Regular, 'SF Mono', Menlo, monospace">05-19</text><text x="747.8" y="248" text-anchor="middle" font-size="10" fill="#8c959f" font-family="ui-monospace, SFMono-Regular, 'SF Mono', Menlo, monospace">06-23</text><text x="226.0" y="248" text-anchor="middle" font-size="10" fill="#8c959f" font-family="ui-monospace, SFMono-Regular, 'SF Mono', Menlo, monospace">05-24</text><text x="800.0" y="248" text-anchor="middle" font-size="10" fill="#8c959f" font-family="ui-monospace, SFMono-Regular, 'SF Mono', Menlo, monospace">06-26</text><text x="312.9" y="248" text-anchor="middle" font-size="10" fill="#8c959f" font-family="ui-monospace, SFMono-Regular, 'SF Mono', Menlo, monospace">05-29</text><text x="399.9" y="248" text-anchor="middle" font-size="10" fill="#8c959f" font-family="ui-monospace, SFMono-Regular, 'SF Mono', Menlo, monospace">06-03</text><text x="486.9" y="248" text-anchor="middle" font-size="10" fill="#8c959f" font-family="ui-monospace, SFMono-Regular, 'SF Mono', Menlo, monospace">06-08</text><text x="573.9" y="248" text-anchor="middle" font-size="10" fill="#8c959f" font-family="ui-monospace, SFMono-Regular, 'SF Mono', Menlo, monospace">06-13</text>

  <!-- legend -->
  <rect x="60" y="262" width="16" height="3" fill="#4e79a7" rx="1"/><text x="80" y="268" font-size="11" fill="#57606a" font-family="-apple-system, BlinkMacSystemFont, 'Segoe UI', sans-serif">Total clones (1,846)</text><line x1="230" y1="264" x2="246" y2="264" stroke="#f28e2b" stroke-width="2" stroke-dasharray="5,3"/><text x="250" y="268" font-size="11" fill="#57606a" font-family="-apple-system, BlinkMacSystemFont, 'Segoe UI', sans-serif">Unique cloners</text>

</svg>