<svg xmlns="http://www.w3.org/2000/svg" viewBox="0 0 820 280" width="820" height="280">

  <!-- title -->
  <text x="52" y="18" font-size="13" font-weight="600"
        fill="#24292f" font-family="-apple-system, BlinkMacSystemFont, 'Segoe UI', sans-serif"
        >Clone traffic — vellum</text>
  <text x="800" y="18" font-size="10" fill="#8c959f"
        font-family="ui-monospace, SFMono-Regular, 'SF Mono', Menlo, monospace" text-anchor="end">2026-06-07</text>

  <!-- grid -->
  <line x1="52" y1="232.0" x2="800" y2="232.0" stroke="#e8e8e8" stroke-width="1"/><line x1="52" y1="193.9" x2="800" y2="193.9" stroke="#e8e8e8" stroke-width="1"/><line x1="52" y1="155.7" x2="800" y2="155.7" stroke="#e8e8e8" stroke-width="1"/><line x1="52" y1="117.6" x2="800" y2="117.6" stroke="#e8e8e8" stroke-width="1"/><line x1="52" y1="79.5" x2="800" y2="79.5" stroke="#e8e8e8" stroke-width="1"/><line x1="52" y1="41.3" x2="800" y2="41.3" stroke="#e8e8e8" stroke-width="1"/><line x1="52" y1="3.2" x2="800" y2="3.2" stroke="#e8e8e8" stroke-width="1"/>

  <!-- area fill -->
  <path d="M52.0,232.0 L52.0,232.0 L86.0,232.0 L120.0,232.0 L154.0,232.0 L188.0,232.0 L222.0,232.0 L256.0,232.0 L290.0,232.0 L324.0,232.0 L358.0,232.0 L392.0,232.0 L426.0,232.0 L460.0,232.0 L494.0,172.3 L528.0,28.0 L562.0,75.7 L596.0,187.5 L630.0,176.1 L664.0,60.4 L698.0,62.3 L732.0,190.7 L766.0,135.4 L800.0,209.8 L800.0,232.0 L52.0,232.0Z" fill="#4e79a7" opacity="0.12"/>

  <!-- lines -->
  <polyline points="52.0,232.0 86.0,232.0 120.0,232.0 154.0,232.0 188.0,232.0 222.0,232.0 256.0,232.0 290.0,232.0 324.0,232.0 358.0,232.0 392.0,232.0 426.0,232.0 460.0,232.0 494.0,172.3 528.0,28.0 562.0,75.7 596.0,187.5 630.0,176.1 664.0,60.4 698.0,62.3 732.0,190.7 766.0,135.4 800.0,209.8"
            fill="none" stroke="#4e79a7"
            stroke-width="2" stroke-linejoin="round"/>
  <polyline points="52.0,232.0 86.0,232.0 120.0,232.0 154.0,232.0 188.0,232.0 222.0,232.0 256.0,232.0 290.0,232.0 324.0,232.0 358.0,232.0 392.0,232.0 426.0,232.0 460.0,232.0 494.0,217.4 528.0,151.3 562.0,185.0 596.0,221.8 630.0,209.1 664.0,175.4 698.0,182.4 732.0,209.1 766.0,189.4 800.0,225.6"
            fill="none" stroke="#f28e2b"
            stroke-width="2" stroke-linejoin="round"
            stroke-dasharray="5,3"/>

  <!-- dots -->
  <circle cx="52.0" cy="232.0" r="3" fill="#4e79a7"/><circle cx="86.0" cy="232.0" r="3" fill="#4e79a7"/><circle cx="120.0" cy="232.0" r="3" fill="#4e79a7"/><circle cx="154.0" cy="232.0" r="3" fill="#4e79a7"/><circle cx="188.0" cy="232.0" r="3" fill="#4e79a7"/><circle cx="222.0" cy="232.0" r="3" fill="#4e79a7"/><circle cx="256.0" cy="232.0" r="3" fill="#4e79a7"/><circle cx="290.0" cy="232.0" r="3" fill="#4e79a7"/><circle cx="324.0" cy="232.0" r="3" fill="#4e79a7"/><circle cx="358.0" cy="232.0" r="3" fill="#4e79a7"/><circle cx="392.0" cy="232.0" r="3" fill="#4e79a7"/><circle cx="426.0" cy="232.0" r="3" fill="#4e79a7"/><circle cx="460.0" cy="232.0" r="3" fill="#4e79a7"/><circle cx="494.0" cy="172.3" r="3" fill="#4e79a7"/><circle cx="528.0" cy="28.0" r="3" fill="#4e79a7"/><circle cx="562.0" cy="75.7" r="3" fill="#4e79a7"/><circle cx="596.0" cy="187.5" r="3" fill="#4e79a7"/><circle cx="630.0" cy="176.1" r="3" fill="#4e79a7"/><circle cx="664.0" cy="60.4" r="3" fill="#4e79a7"/><circle cx="698.0" cy="62.3" r="3" fill="#4e79a7"/><circle cx="732.0" cy="190.7" r="3" fill="#4e79a7"/><circle cx="766.0" cy="135.4" r="3" fill="#4e79a7"/><circle cx="800.0" cy="209.8" r="3" fill="#4e79a7"/>
  <circle cx="52.0" cy="232.0" r="3" fill="#f28e2b"/><circle cx="86.0" cy="232.0" r="3" fill="#f28e2b"/><circle cx="120.0" cy="232.0" r="3" fill="#f28e2b"/><circle cx="154.0" cy="232.0" r="3" fill="#f28e2b"/><circle cx="188.0" cy="232.0" r="3" fill="#f28e2b"/><circle cx="222.0" cy="232.0" r="3" fill="#f28e2b"/><circle cx="256.0" cy="232.0" r="3" fill="#f28e2b"/><circle cx="290.0" cy="232.0" r="3" fill="#f28e2b"/><circle cx="324.0" cy="232.0" r="3" fill="#f28e2b"/><circle cx="358.0" cy="232.0" r="3" fill="#f28e2b"/><circle cx="392.0" cy="232.0" r="3" fill="#f28e2b"/><circle cx="426.0" cy="232.0" r="3" fill="#f28e2b"/><circle cx="460.0" cy="232.0" r="3" fill="#f28e2b"/><circle cx="494.0" cy="217.4" r="3" fill="#f28e2b"/><circle cx="528.0" cy="151.3" r="3" fill="#f28e2b"/><circle cx="562.0" cy="185.0" r="3" fill="#f28e2b"/><circle cx="596.0" cy="221.8" r="3" fill="#f28e2b"/><circle cx="630.0" cy="209.1" r="3" fill="#f28e2b"/><circle cx="664.0" cy="175.4" r="3" fill="#f28e2b"/><circle cx="698.0" cy="182.4" r="3" fill="#f28e2b"/><circle cx="732.0" cy="209.1" r="3" fill="#f28e2b"/><circle cx="766.0" cy="189.4" r="3" fill="#f28e2b"/><circle cx="800.0" cy="225.6" r="3" fill="#f28e2b"/>

  <!-- axes -->
  <line x1="52" y1="28" x2="52" y2="232"
        stroke="#cccccc" stroke-width="1"/>
  <line x1="52" y1="232" x2="800" y2="232"
        stroke="#cccccc" stroke-width="1"/>

  <!-- y-axis labels -->
  <text x="47" y="236.0" text-anchor="end" font-size="10" fill="#57606a" font-family="ui-monospace, SFMono-Regular, 'SF Mono', Menlo, monospace">0</text><text x="47" y="197.9" text-anchor="end" font-size="10" fill="#57606a" font-family="ui-monospace, SFMono-Regular, 'SF Mono', Menlo, monospace">60</text><text x="47" y="159.7" text-anchor="end" font-size="10" fill="#57606a" font-family="ui-monospace, SFMono-Regular, 'SF Mono', Menlo, monospace">120</text><text x="47" y="121.6" text-anchor="end" font-size="10" fill="#57606a" font-family="ui-monospace, SFMono-Regular, 'SF Mono', Menlo, monospace">180</text><text x="47" y="83.5" text-anchor="end" font-size="10" fill="#57606a" font-family="ui-monospace, SFMono-Regular, 'SF Mono', Menlo, monospace">240</text><text x="47" y="45.3" text-anchor="end" font-size="10" fill="#57606a" font-family="ui-monospace, SFMono-Regular, 'SF Mono', Menlo, monospace">300</text><text x="47" y="7.2" text-anchor="end" font-size="10" fill="#57606a" font-family="ui-monospace, SFMono-Regular, 'SF Mono', Menlo, monospace">360</text>

  <!-- x-axis labels -->
  <text x="52.0" y="248" text-anchor="middle" font-size="10" fill="#8c959f" font-family="ui-monospace, SFMono-Regular, 'SF Mono', Menlo, monospace">05-14</text><text x="120.0" y="248" text-anchor="middle" font-size="10" fill="#8c959f" font-family="ui-monospace, SFMono-Regular, 'SF Mono', Menlo, monospace">05-16</text><text x="188.0" y="248" text-anchor="middle" font-size="10" fill="#8c959f" font-family="ui-monospace, SFMono-Regular, 'SF Mono', Menlo, monospace">05-18</text><text x="256.0" y="248" text-anchor="middle" font-size="10" fill="#8c959f" font-family="ui-monospace, SFMono-Regular, 'SF Mono', Menlo, monospace">05-20</text><text x="324.0" y="248" text-anchor="middle" font-size="10" fill="#8c959f" font-family="ui-monospace, SFMono-Regular, 'SF Mono', Menlo, monospace">05-22</text><text x="392.0" y="248" text-anchor="middle" font-size="10" fill="#8c959f" font-family="ui-monospace, SFMono-Regular, 'SF Mono', Menlo, monospace">05-24</text><text x="460.0" y="248" text-anchor="middle" font-size="10" fill="#8c959f" font-family="ui-monospace, SFMono-Regular, 'SF Mono', Menlo, monospace">05-26</text><text x="528.0" y="248" text-anchor="middle" font-size="10" fill="#8c959f" font-family="ui-monospace, SFMono-Regular, 'SF Mono', Menlo, monospace">05-28</text><text x="596.0" y="248" text-anchor="middle" font-size="10" fill="#8c959f" font-family="ui-monospace, SFMono-Regular, 'SF Mono', Menlo, monospace">05-30</text><text x="664.0" y="248" text-anchor="middle" font-size="10" fill="#8c959f" font-family="ui-monospace, SFMono-Regular, 'SF Mono', Menlo, monospace">06-01</text><text x="732.0" y="248" text-anchor="middle" font-size="10" fill="#8c959f" font-family="ui-monospace, SFMono-Regular, 'SF Mono', Menlo, monospace">06-03</text><text x="800.0" y="248" text-anchor="middle" font-size="10" fill="#8c959f" font-family="ui-monospace, SFMono-Regular, 'SF Mono', Menlo, monospace">06-05</text>

  <!-- legend -->
  <rect x="60" y="262" width="16" height="3" fill="#4e79a7" rx="1"/><text x="80" y="268" font-size="11" fill="#57606a" font-family="-apple-system, BlinkMacSystemFont, 'Segoe UI', sans-serif">Total clones (1,608)</text><line x1="230" y1="264" x2="246" y2="264" stroke="#f28e2b" stroke-width="2" stroke-dasharray="5,3"/><text x="250" y="268" font-size="11" fill="#57606a" font-family="-apple-system, BlinkMacSystemFont, 'Segoe UI', sans-serif">Unique cloners</text>

</svg>