<svg xmlns="http://www.w3.org/2000/svg" viewBox="0 0 820 280" width="820" height="280">

  <!-- title -->
  <text x="52" y="18" font-size="13" font-weight="600"
        fill="#24292f" font-family="-apple-system, BlinkMacSystemFont, 'Segoe UI', sans-serif"
        >Clone traffic — vellum</text>
  <text x="800" y="18" font-size="10" fill="#8c959f"
        font-family="ui-monospace, SFMono-Regular, 'SF Mono', Menlo, monospace" text-anchor="end">2026-06-23</text>

  <!-- grid -->
  <line x1="52" y1="232.0" x2="800" y2="232.0" stroke="#e8e8e8" stroke-width="1"/><line x1="52" y1="193.9" x2="800" y2="193.9" stroke="#e8e8e8" stroke-width="1"/><line x1="52" y1="155.7" x2="800" y2="155.7" stroke="#e8e8e8" stroke-width="1"/><line x1="52" y1="117.6" x2="800" y2="117.6" stroke="#e8e8e8" stroke-width="1"/><line x1="52" y1="79.5" x2="800" y2="79.5" stroke="#e8e8e8" stroke-width="1"/><line x1="52" y1="41.3" x2="800" y2="41.3" stroke="#e8e8e8" stroke-width="1"/><line x1="52" y1="3.2" x2="800" y2="3.2" stroke="#e8e8e8" stroke-width="1"/>

  <!-- area fill -->
  <path d="M52.0,232.0 L52.0,232.0 L71.7,232.0 L91.4,232.0 L111.1,232.0 L130.7,232.0 L150.4,232.0 L170.1,232.0 L189.8,232.0 L209.5,232.0 L229.2,232.0 L248.8,232.0 L268.5,232.0 L288.2,232.0 L307.9,172.3 L327.6,28.0 L347.3,75.7 L366.9,187.5 L386.6,176.1 L406.3,60.4 L426.0,62.3 L445.7,190.7 L465.4,135.4 L485.1,209.8 L504.7,220.6 L524.4,230.7 L544.1,232.0 L563.8,231.4 L583.5,228.8 L603.2,232.0 L622.8,232.0 L642.5,232.0 L662.2,203.4 L681.9,232.0 L701.6,203.4 L721.3,221.8 L740.9,172.9 L760.6,228.2 L780.3,232.0 L800.0,230.1 L800.0,232.0 L52.0,232.0Z" fill="#4e79a7" opacity="0.12"/>

  <!-- lines -->
  <polyline points="52.0,232.0 71.7,232.0 91.4,232.0 111.1,232.0 130.7,232.0 150.4,232.0 170.1,232.0 189.8,232.0 209.5,232.0 229.2,232.0 248.8,232.0 268.5,232.0 288.2,232.0 307.9,172.3 327.6,28.0 347.3,75.7 366.9,187.5 386.6,176.1 406.3,60.4 426.0,62.3 445.7,190.7 465.4,135.4 485.1,209.8 504.7,220.6 524.4,230.7 544.1,232.0 563.8,231.4 583.5,228.8 603.2,232.0 622.8,232.0 642.5,232.0 662.2,203.4 681.9,232.0 701.6,203.4 721.3,221.8 740.9,172.9 760.6,228.2 780.3,232.0 800.0,230.1"
            fill="none" stroke="#4e79a7"
            stroke-width="2" stroke-linejoin="round"/>
  <polyline points="52.0,232.0 71.7,232.0 91.4,232.0 111.1,232.0 130.7,232.0 150.4,232.0 170.1,232.0 189.8,232.0 209.5,232.0 229.2,232.0 248.8,232.0 268.5,232.0 288.2,232.0 307.9,217.4 327.6,151.3 347.3,185.0 366.9,221.8 386.6,209.1 406.3,175.4 426.0,182.4 445.7,209.1 465.4,189.4 485.1,225.6 504.7,228.2 524.4,231.4 544.1,232.0 563.8,231.4 583.5,230.1 603.2,232.0 622.8,232.0 642.5,232.0 662.2,227.6 681.9,232.0 701.6,226.9 721.3,229.5 740.9,211.7 760.6,228.2 780.3,232.0 800.0,230.1"
            fill="none" stroke="#f28e2b"
            stroke-width="2" stroke-linejoin="round"
            stroke-dasharray="5,3"/>

  <!-- dots -->
  <circle cx="52.0" cy="232.0" r="3" fill="#4e79a7"/><circle cx="71.7" cy="232.0" r="3" fill="#4e79a7"/><circle cx="91.4" cy="232.0" r="3" fill="#4e79a7"/><circle cx="111.1" cy="232.0" r="3" fill="#4e79a7"/><circle cx="130.7" cy="232.0" r="3" fill="#4e79a7"/><circle cx="150.4" cy="232.0" r="3" fill="#4e79a7"/><circle cx="170.1" cy="232.0" r="3" fill="#4e79a7"/><circle cx="189.8" cy="232.0" r="3" fill="#4e79a7"/><circle cx="209.5" cy="232.0" r="3" fill="#4e79a7"/><circle cx="229.2" cy="232.0" r="3" fill="#4e79a7"/><circle cx="248.8" cy="232.0" r="3" fill="#4e79a7"/><circle cx="268.5" cy="232.0" r="3" fill="#4e79a7"/><circle cx="288.2" cy="232.0" r="3" fill="#4e79a7"/><circle cx="307.9" cy="172.3" r="3" fill="#4e79a7"/><circle cx="327.6" cy="28.0" r="3" fill="#4e79a7"/><circle cx="347.3" cy="75.7" r="3" fill="#4e79a7"/><circle cx="366.9" cy="187.5" r="3" fill="#4e79a7"/><circle cx="386.6" cy="176.1" r="3" fill="#4e79a7"/><circle cx="406.3" cy="60.4" r="3" fill="#4e79a7"/><circle cx="426.0" cy="62.3" r="3" fill="#4e79a7"/><circle cx="445.7" cy="190.7" r="3" fill="#4e79a7"/><circle cx="465.4" cy="135.4" r="3" fill="#4e79a7"/><circle cx="485.1" cy="209.8" r="3" fill="#4e79a7"/><circle cx="504.7" cy="220.6" r="3" fill="#4e79a7"/><circle cx="524.4" cy="230.7" r="3" fill="#4e79a7"/><circle cx="544.1" cy="232.0" r="3" fill="#4e79a7"/><circle cx="563.8" cy="231.4" r="3" fill="#4e79a7"/><circle cx="583.5" cy="228.8" r="3" fill="#4e79a7"/><circle cx="603.2" cy="232.0" r="3" fill="#4e79a7"/><circle cx="622.8" cy="232.0" r="3" fill="#4e79a7"/><circle cx="642.5" cy="232.0" r="3" fill="#4e79a7"/><circle cx="662.2" cy="203.4" r="3" fill="#4e79a7"/><circle cx="681.9" cy="232.0" r="3" fill="#4e79a7"/><circle cx="701.6" cy="203.4" r="3" fill="#4e79a7"/><circle cx="721.3" cy="221.8" r="3" fill="#4e79a7"/><circle cx="740.9" cy="172.9" r="3" fill="#4e79a7"/><circle cx="760.6" cy="228.2" r="3" fill="#4e79a7"/><circle cx="780.3" cy="232.0" r="3" fill="#4e79a7"/><circle cx="800.0" cy="230.1" r="3" fill="#4e79a7"/>
  <circle cx="52.0" cy="232.0" r="3" fill="#f28e2b"/><circle cx="71.7" cy="232.0" r="3" fill="#f28e2b"/><circle cx="91.4" cy="232.0" r="3" fill="#f28e2b"/><circle cx="111.1" cy="232.0" r="3" fill="#f28e2b"/><circle cx="130.7" cy="232.0" r="3" fill="#f28e2b"/><circle cx="150.4" cy="232.0" r="3" fill="#f28e2b"/><circle cx="170.1" cy="232.0" r="3" fill="#f28e2b"/><circle cx="189.8" cy="232.0" r="3" fill="#f28e2b"/><circle cx="209.5" cy="232.0" r="3" fill="#f28e2b"/><circle cx="229.2" cy="232.0" r="3" fill="#f28e2b"/><circle cx="248.8" cy="232.0" r="3" fill="#f28e2b"/><circle cx="268.5" cy="232.0" r="3" fill="#f28e2b"/><circle cx="288.2" cy="232.0" r="3" fill="#f28e2b"/><circle cx="307.9" cy="217.4" r="3" fill="#f28e2b"/><circle cx="327.6" cy="151.3" r="3" fill="#f28e2b"/><circle cx="347.3" cy="185.0" r="3" fill="#f28e2b"/><circle cx="366.9" cy="221.8" r="3" fill="#f28e2b"/><circle cx="386.6" cy="209.1" r="3" fill="#f28e2b"/><circle cx="406.3" cy="175.4" r="3" fill="#f28e2b"/><circle cx="426.0" cy="182.4" r="3" fill="#f28e2b"/><circle cx="445.7" cy="209.1" r="3" fill="#f28e2b"/><circle cx="465.4" cy="189.4" r="3" fill="#f28e2b"/><circle cx="485.1" cy="225.6" r="3" fill="#f28e2b"/><circle cx="504.7" cy="228.2" r="3" fill="#f28e2b"/><circle cx="524.4" cy="231.4" r="3" fill="#f28e2b"/><circle cx="544.1" cy="232.0" r="3" fill="#f28e2b"/><circle cx="563.8" cy="231.4" r="3" fill="#f28e2b"/><circle cx="583.5" cy="230.1" r="3" fill="#f28e2b"/><circle cx="603.2" cy="232.0" r="3" fill="#f28e2b"/><circle cx="622.8" cy="232.0" r="3" fill="#f28e2b"/><circle cx="642.5" cy="232.0" r="3" fill="#f28e2b"/><circle cx="662.2" cy="227.6" r="3" fill="#f28e2b"/><circle cx="681.9" cy="232.0" r="3" fill="#f28e2b"/><circle cx="701.6" cy="226.9" r="3" fill="#f28e2b"/><circle cx="721.3" cy="229.5" r="3" fill="#f28e2b"/><circle cx="740.9" cy="211.7" r="3" fill="#f28e2b"/><circle cx="760.6" cy="228.2" r="3" fill="#f28e2b"/><circle cx="780.3" cy="232.0" r="3" fill="#f28e2b"/><circle cx="800.0" cy="230.1" r="3" fill="#f28e2b"/>

  <!-- axes -->
  <line x1="52" y1="28" x2="52" y2="232"
        stroke="#cccccc" stroke-width="1"/>
  <line x1="52" y1="232" x2="800" y2="232"
        stroke="#cccccc" stroke-width="1"/>

  <!-- y-axis labels -->
  <text x="47" y="236.0" text-anchor="end" font-size="10" fill="#57606a" font-family="ui-monospace, SFMono-Regular, 'SF Mono', Menlo, monospace">0</text><text x="47" y="197.9" text-anchor="end" font-size="10" fill="#57606a" font-family="ui-monospace, SFMono-Regular, 'SF Mono', Menlo, monospace">60</text><text x="47" y="159.7" text-anchor="end" font-size="10" fill="#57606a" font-family="ui-monospace, SFMono-Regular, 'SF Mono', Menlo, monospace">120</text><text x="47" y="121.6" text-anchor="end" font-size="10" fill="#57606a" font-family="ui-monospace, SFMono-Regular, 'SF Mono', Menlo, monospace">180</text><text x="47" y="83.5" text-anchor="end" font-size="10" fill="#57606a" font-family="ui-monospace, SFMono-Regular, 'SF Mono', Menlo, monospace">240</text><text x="47" y="45.3" text-anchor="end" font-size="10" fill="#57606a" font-family="ui-monospace, SFMono-Regular, 'SF Mono', Menlo, monospace">300</text><text x="47" y="7.2" text-anchor="end" font-size="10" fill="#57606a" font-family="ui-monospace, SFMono-Regular, 'SF Mono', Menlo, monospace">360</text>

  <!-- x-axis labels -->
  <text x="52.0" y="248" text-anchor="middle" font-size="10" fill="#8c959f" font-family="ui-monospace, SFMono-Regular, 'SF Mono', Menlo, monospace">05-14</text><text x="681.9" y="248" text-anchor="middle" font-size="10" fill="#8c959f" font-family="ui-monospace, SFMono-Regular, 'SF Mono', Menlo, monospace">06-15</text><text x="130.7" y="248" text-anchor="middle" font-size="10" fill="#8c959f" font-family="ui-monospace, SFMono-Regular, 'SF Mono', Menlo, monospace">05-18</text><text x="760.6" y="248" text-anchor="middle" font-size="10" fill="#8c959f" font-family="ui-monospace, SFMono-Regular, 'SF Mono', Menlo, monospace">06-19</text><text x="800.0" y="248" text-anchor="middle" font-size="10" fill="#8c959f" font-family="ui-monospace, SFMono-Regular, 'SF Mono', Menlo, monospace">06-21</text><text x="209.5" y="248" text-anchor="middle" font-size="10" fill="#8c959f" font-family="ui-monospace, SFMono-Regular, 'SF Mono', Menlo, monospace">05-22</text><text x="288.2" y="248" text-anchor="middle" font-size="10" fill="#8c959f" font-family="ui-monospace, SFMono-Regular, 'SF Mono', Menlo, monospace">05-26</text><text x="366.9" y="248" text-anchor="middle" font-size="10" fill="#8c959f" font-family="ui-monospace, SFMono-Regular, 'SF Mono', Menlo, monospace">05-30</text><text x="445.7" y="248" text-anchor="middle" font-size="10" fill="#8c959f" font-family="ui-monospace, SFMono-Regular, 'SF Mono', Menlo, monospace">06-03</text><text x="524.4" y="248" text-anchor="middle" font-size="10" fill="#8c959f" font-family="ui-monospace, SFMono-Regular, 'SF Mono', Menlo, monospace">06-07</text><text x="603.2" y="248" text-anchor="middle" font-size="10" fill="#8c959f" font-family="ui-monospace, SFMono-Regular, 'SF Mono', Menlo, monospace">06-11</text>

  <!-- legend -->
  <rect x="60" y="262" width="16" height="3" fill="#4e79a7" rx="1"/><text x="80" y="268" font-size="11" fill="#57606a" font-family="-apple-system, BlinkMacSystemFont, 'Segoe UI', sans-serif">Total clones (1,842)</text><line x1="230" y1="264" x2="246" y2="264" stroke="#f28e2b" stroke-width="2" stroke-dasharray="5,3"/><text x="250" y="268" font-size="11" fill="#57606a" font-family="-apple-system, BlinkMacSystemFont, 'Segoe UI', sans-serif">Unique cloners</text>

</svg>