<svg xmlns="http://www.w3.org/2000/svg" viewBox="0 0 820 280" width="820" height="280">

  <!-- title -->
  <text x="52" y="18" font-size="13" font-weight="600"
        fill="#24292f" font-family="-apple-system, BlinkMacSystemFont, 'Segoe UI', sans-serif"
        >Clone traffic — vellum</text>
  <text x="800" y="18" font-size="10" fill="#8c959f"
        font-family="ui-monospace, SFMono-Regular, 'SF Mono', Menlo, monospace" text-anchor="end">2026-06-13</text>

  <!-- grid -->
  <line x1="52" y1="232.0" x2="800" y2="232.0" stroke="#e8e8e8" stroke-width="1"/><line x1="52" y1="193.9" x2="800" y2="193.9" stroke="#e8e8e8" stroke-width="1"/><line x1="52" y1="155.7" x2="800" y2="155.7" stroke="#e8e8e8" stroke-width="1"/><line x1="52" y1="117.6" x2="800" y2="117.6" stroke="#e8e8e8" stroke-width="1"/><line x1="52" y1="79.5" x2="800" y2="79.5" stroke="#e8e8e8" stroke-width="1"/><line x1="52" y1="41.3" x2="800" y2="41.3" stroke="#e8e8e8" stroke-width="1"/><line x1="52" y1="3.2" x2="800" y2="3.2" stroke="#e8e8e8" stroke-width="1"/>

  <!-- area fill -->
  <path d="M52.0,232.0 L52.0,232.0 L79.7,232.0 L107.4,232.0 L135.1,232.0 L162.8,232.0 L190.5,232.0 L218.2,232.0 L245.9,232.0 L273.6,232.0 L301.3,232.0 L329.0,232.0 L356.7,232.0 L384.4,232.0 L412.1,172.3 L439.9,28.0 L467.6,75.7 L495.3,187.5 L523.0,176.1 L550.7,60.4 L578.4,62.3 L606.1,190.7 L633.8,135.4 L661.5,209.8 L689.2,220.6 L716.9,230.7 L744.6,232.0 L772.3,231.4 L800.0,228.8 L800.0,232.0 L52.0,232.0Z" fill="#4e79a7" opacity="0.12"/>

  <!-- lines -->
  <polyline points="52.0,232.0 79.7,232.0 107.4,232.0 135.1,232.0 162.8,232.0 190.5,232.0 218.2,232.0 245.9,232.0 273.6,232.0 301.3,232.0 329.0,232.0 356.7,232.0 384.4,232.0 412.1,172.3 439.9,28.0 467.6,75.7 495.3,187.5 523.0,176.1 550.7,60.4 578.4,62.3 606.1,190.7 633.8,135.4 661.5,209.8 689.2,220.6 716.9,230.7 744.6,232.0 772.3,231.4 800.0,228.8"
            fill="none" stroke="#4e79a7"
            stroke-width="2" stroke-linejoin="round"/>
  <polyline points="52.0,232.0 79.7,232.0 107.4,232.0 135.1,232.0 162.8,232.0 190.5,232.0 218.2,232.0 245.9,232.0 273.6,232.0 301.3,232.0 329.0,232.0 356.7,232.0 384.4,232.0 412.1,217.4 439.9,151.3 467.6,185.0 495.3,221.8 523.0,209.1 550.7,175.4 578.4,182.4 606.1,209.1 633.8,189.4 661.5,225.6 689.2,228.2 716.9,231.4 744.6,232.0 772.3,231.4 800.0,230.1"
            fill="none" stroke="#f28e2b"
            stroke-width="2" stroke-linejoin="round"
            stroke-dasharray="5,3"/>

  <!-- dots -->
  <circle cx="52.0" cy="232.0" r="3" fill="#4e79a7"/><circle cx="79.7" cy="232.0" r="3" fill="#4e79a7"/><circle cx="107.4" cy="232.0" r="3" fill="#4e79a7"/><circle cx="135.1" cy="232.0" r="3" fill="#4e79a7"/><circle cx="162.8" cy="232.0" r="3" fill="#4e79a7"/><circle cx="190.5" cy="232.0" r="3" fill="#4e79a7"/><circle cx="218.2" cy="232.0" r="3" fill="#4e79a7"/><circle cx="245.9" cy="232.0" r="3" fill="#4e79a7"/><circle cx="273.6" cy="232.0" r="3" fill="#4e79a7"/><circle cx="301.3" cy="232.0" r="3" fill="#4e79a7"/><circle cx="329.0" cy="232.0" r="3" fill="#4e79a7"/><circle cx="356.7" cy="232.0" r="3" fill="#4e79a7"/><circle cx="384.4" cy="232.0" r="3" fill="#4e79a7"/><circle cx="412.1" cy="172.3" r="3" fill="#4e79a7"/><circle cx="439.9" cy="28.0" r="3" fill="#4e79a7"/><circle cx="467.6" cy="75.7" r="3" fill="#4e79a7"/><circle cx="495.3" cy="187.5" r="3" fill="#4e79a7"/><circle cx="523.0" cy="176.1" r="3" fill="#4e79a7"/><circle cx="550.7" cy="60.4" r="3" fill="#4e79a7"/><circle cx="578.4" cy="62.3" r="3" fill="#4e79a7"/><circle cx="606.1" cy="190.7" r="3" fill="#4e79a7"/><circle cx="633.8" cy="135.4" r="3" fill="#4e79a7"/><circle cx="661.5" cy="209.8" r="3" fill="#4e79a7"/><circle cx="689.2" cy="220.6" r="3" fill="#4e79a7"/><circle cx="716.9" cy="230.7" r="3" fill="#4e79a7"/><circle cx="744.6" cy="232.0" r="3" fill="#4e79a7"/><circle cx="772.3" cy="231.4" r="3" fill="#4e79a7"/><circle cx="800.0" cy="228.8" r="3" fill="#4e79a7"/>
  <circle cx="52.0" cy="232.0" r="3" fill="#f28e2b"/><circle cx="79.7" cy="232.0" r="3" fill="#f28e2b"/><circle cx="107.4" cy="232.0" r="3" fill="#f28e2b"/><circle cx="135.1" cy="232.0" r="3" fill="#f28e2b"/><circle cx="162.8" cy="232.0" r="3" fill="#f28e2b"/><circle cx="190.5" cy="232.0" r="3" fill="#f28e2b"/><circle cx="218.2" cy="232.0" r="3" fill="#f28e2b"/><circle cx="245.9" cy="232.0" r="3" fill="#f28e2b"/><circle cx="273.6" cy="232.0" r="3" fill="#f28e2b"/><circle cx="301.3" cy="232.0" r="3" fill="#f28e2b"/><circle cx="329.0" cy="232.0" r="3" fill="#f28e2b"/><circle cx="356.7" cy="232.0" r="3" fill="#f28e2b"/><circle cx="384.4" cy="232.0" r="3" fill="#f28e2b"/><circle cx="412.1" cy="217.4" r="3" fill="#f28e2b"/><circle cx="439.9" cy="151.3" r="3" fill="#f28e2b"/><circle cx="467.6" cy="185.0" r="3" fill="#f28e2b"/><circle cx="495.3" cy="221.8" r="3" fill="#f28e2b"/><circle cx="523.0" cy="209.1" r="3" fill="#f28e2b"/><circle cx="550.7" cy="175.4" r="3" fill="#f28e2b"/><circle cx="578.4" cy="182.4" r="3" fill="#f28e2b"/><circle cx="606.1" cy="209.1" r="3" fill="#f28e2b"/><circle cx="633.8" cy="189.4" r="3" fill="#f28e2b"/><circle cx="661.5" cy="225.6" r="3" fill="#f28e2b"/><circle cx="689.2" cy="228.2" r="3" fill="#f28e2b"/><circle cx="716.9" cy="231.4" r="3" fill="#f28e2b"/><circle cx="744.6" cy="232.0" r="3" fill="#f28e2b"/><circle cx="772.3" cy="231.4" r="3" fill="#f28e2b"/><circle cx="800.0" cy="230.1" r="3" fill="#f28e2b"/>

  <!-- axes -->
  <line x1="52" y1="28" x2="52" y2="232"
        stroke="#cccccc" stroke-width="1"/>
  <line x1="52" y1="232" x2="800" y2="232"
        stroke="#cccccc" stroke-width="1"/>

  <!-- y-axis labels -->
  <text x="47" y="236.0" text-anchor="end" font-size="10" fill="#57606a" font-family="ui-monospace, SFMono-Regular, 'SF Mono', Menlo, monospace">0</text><text x="47" y="197.9" text-anchor="end" font-size="10" fill="#57606a" font-family="ui-monospace, SFMono-Regular, 'SF Mono', Menlo, monospace">60</text><text x="47" y="159.7" text-anchor="end" font-size="10" fill="#57606a" font-family="ui-monospace, SFMono-Regular, 'SF Mono', Menlo, monospace">120</text><text x="47" y="121.6" text-anchor="end" font-size="10" fill="#57606a" font-family="ui-monospace, SFMono-Regular, 'SF Mono', Menlo, monospace">180</text><text x="47" y="83.5" text-anchor="end" font-size="10" fill="#57606a" font-family="ui-monospace, SFMono-Regular, 'SF Mono', Menlo, monospace">240</text><text x="47" y="45.3" text-anchor="end" font-size="10" fill="#57606a" font-family="ui-monospace, SFMono-Regular, 'SF Mono', Menlo, monospace">300</text><text x="47" y="7.2" text-anchor="end" font-size="10" fill="#57606a" font-family="ui-monospace, SFMono-Regular, 'SF Mono', Menlo, monospace">360</text>

  <!-- x-axis labels -->
  <text x="52.0" y="248" text-anchor="middle" font-size="10" fill="#8c959f" font-family="ui-monospace, SFMono-Regular, 'SF Mono', Menlo, monospace">05-14</text><text x="135.1" y="248" text-anchor="middle" font-size="10" fill="#8c959f" font-family="ui-monospace, SFMono-Regular, 'SF Mono', Menlo, monospace">05-17</text><text x="218.2" y="248" text-anchor="middle" font-size="10" fill="#8c959f" font-family="ui-monospace, SFMono-Regular, 'SF Mono', Menlo, monospace">05-20</text><text x="301.3" y="248" text-anchor="middle" font-size="10" fill="#8c959f" font-family="ui-monospace, SFMono-Regular, 'SF Mono', Menlo, monospace">05-23</text><text x="384.4" y="248" text-anchor="middle" font-size="10" fill="#8c959f" font-family="ui-monospace, SFMono-Regular, 'SF Mono', Menlo, monospace">05-26</text><text x="467.6" y="248" text-anchor="middle" font-size="10" fill="#8c959f" font-family="ui-monospace, SFMono-Regular, 'SF Mono', Menlo, monospace">05-29</text><text x="550.7" y="248" text-anchor="middle" font-size="10" fill="#8c959f" font-family="ui-monospace, SFMono-Regular, 'SF Mono', Menlo, monospace">06-01</text><text x="633.8" y="248" text-anchor="middle" font-size="10" fill="#8c959f" font-family="ui-monospace, SFMono-Regular, 'SF Mono', Menlo, monospace">06-04</text><text x="716.9" y="248" text-anchor="middle" font-size="10" fill="#8c959f" font-family="ui-monospace, SFMono-Regular, 'SF Mono', Menlo, monospace">06-07</text><text x="800.0" y="248" text-anchor="middle" font-size="10" fill="#8c959f" font-family="ui-monospace, SFMono-Regular, 'SF Mono', Menlo, monospace">06-10</text>

  <!-- legend -->
  <rect x="60" y="262" width="16" height="3" fill="#4e79a7" rx="1"/><text x="80" y="268" font-size="11" fill="#57606a" font-family="-apple-system, BlinkMacSystemFont, 'Segoe UI', sans-serif">Total clones (1,634)</text><line x1="230" y1="264" x2="246" y2="264" stroke="#f28e2b" stroke-width="2" stroke-dasharray="5,3"/><text x="250" y="268" font-size="11" fill="#57606a" font-family="-apple-system, BlinkMacSystemFont, 'Segoe UI', sans-serif">Unique cloners</text>

</svg>