<svg xmlns="http://www.w3.org/2000/svg" viewBox="0 0 820 280" width="820" height="280">

  <!-- title -->
  <text x="52" y="18" font-size="13" font-weight="600"
        fill="#24292f" font-family="-apple-system, BlinkMacSystemFont, 'Segoe UI', sans-serif"
        >Clone traffic — vellum</text>
  <text x="800" y="18" font-size="10" fill="#8c959f"
        font-family="ui-monospace, SFMono-Regular, 'SF Mono', Menlo, monospace" text-anchor="end">2026-07-14</text>

  <!-- grid -->
  <line x1="52" y1="232.0" x2="800" y2="232.0" stroke="#e8e8e8" stroke-width="1"/><line x1="52" y1="193.9" x2="800" y2="193.9" stroke="#e8e8e8" stroke-width="1"/><line x1="52" y1="155.7" x2="800" y2="155.7" stroke="#e8e8e8" stroke-width="1"/><line x1="52" y1="117.6" x2="800" y2="117.6" stroke="#e8e8e8" stroke-width="1"/><line x1="52" y1="79.5" x2="800" y2="79.5" stroke="#e8e8e8" stroke-width="1"/><line x1="52" y1="41.3" x2="800" y2="41.3" stroke="#e8e8e8" stroke-width="1"/><line x1="52" y1="3.2" x2="800" y2="3.2" stroke="#e8e8e8" stroke-width="1"/>

  <!-- area fill -->
  <path d="M52.0,232.0 L52.0,232.0 L64.7,232.0 L77.4,232.0 L90.0,232.0 L102.7,232.0 L115.4,232.0 L128.1,232.0 L140.7,232.0 L153.4,232.0 L166.1,232.0 L178.8,232.0 L191.5,232.0 L204.1,232.0 L216.8,172.3 L229.5,28.0 L242.2,75.7 L254.8,187.5 L267.5,176.1 L280.2,60.4 L292.9,62.3 L305.6,190.7 L318.2,135.4 L330.9,209.8 L343.6,220.6 L356.3,230.7 L368.9,232.0 L381.6,231.4 L394.3,228.8 L407.0,232.0 L419.7,232.0 L432.3,232.0 L445.0,203.4 L457.7,232.0 L470.4,203.4 L483.1,221.8 L495.7,172.9 L508.4,228.2 L521.1,232.0 L533.8,230.1 L546.4,231.4 L559.1,232.0 L571.8,230.7 L584.5,232.0 L597.2,231.4 L609.8,231.4 L622.5,231.4 L635.2,232.0 L647.9,231.4 L660.5,231.4 L673.2,232.0 L685.9,232.0 L698.6,231.4 L711.3,232.0 L723.9,232.0 L736.6,226.9 L749.3,232.0 L762.0,231.4 L774.6,232.0 L787.3,232.0 L800.0,231.4 L800.0,232.0 L52.0,232.0Z" fill="#4e79a7" opacity="0.12"/>

  <!-- lines -->
  <polyline points="52.0,232.0 64.7,232.0 77.4,232.0 90.0,232.0 102.7,232.0 115.4,232.0 128.1,232.0 140.7,232.0 153.4,232.0 166.1,232.0 178.8,232.0 191.5,232.0 204.1,232.0 216.8,172.3 229.5,28.0 242.2,75.7 254.8,187.5 267.5,176.1 280.2,60.4 292.9,62.3 305.6,190.7 318.2,135.4 330.9,209.8 343.6,220.6 356.3,230.7 368.9,232.0 381.6,231.4 394.3,228.8 407.0,232.0 419.7,232.0 432.3,232.0 445.0,203.4 457.7,232.0 470.4,203.4 483.1,221.8 495.7,172.9 508.4,228.2 521.1,232.0 533.8,230.1 546.4,231.4 559.1,232.0 571.8,230.7 584.5,232.0 597.2,231.4 609.8,231.4 622.5,231.4 635.2,232.0 647.9,231.4 660.5,231.4 673.2,232.0 685.9,232.0 698.6,231.4 711.3,232.0 723.9,232.0 736.6,226.9 749.3,232.0 762.0,231.4 774.6,232.0 787.3,232.0 800.0,231.4"
            fill="none" stroke="#4e79a7"
            stroke-width="2" stroke-linejoin="round"/>
  <polyline points="52.0,232.0 64.7,232.0 77.4,232.0 90.0,232.0 102.7,232.0 115.4,232.0 128.1,232.0 140.7,232.0 153.4,232.0 166.1,232.0 178.8,232.0 191.5,232.0 204.1,232.0 216.8,217.4 229.5,151.3 242.2,185.0 254.8,221.8 267.5,209.1 280.2,175.4 292.9,182.4 305.6,209.1 318.2,189.4 330.9,225.6 343.6,228.2 356.3,231.4 368.9,232.0 381.6,231.4 394.3,230.1 407.0,232.0 419.7,232.0 432.3,232.0 445.0,227.6 457.7,232.0 470.4,226.9 483.1,229.5 495.7,211.7 508.4,228.2 521.1,232.0 533.8,230.1 546.4,231.4 559.1,232.0 571.8,230.7 584.5,232.0 597.2,231.4 609.8,231.4 622.5,231.4 635.2,232.0 647.9,231.4 660.5,231.4 673.2,232.0 685.9,232.0 698.6,231.4 711.3,232.0 723.9,232.0 736.6,231.4 749.3,232.0 762.0,231.4 774.6,232.0 787.3,232.0 800.0,231.4"
            fill="none" stroke="#f28e2b"
            stroke-width="2" stroke-linejoin="round"
            stroke-dasharray="5,3"/>

  <!-- dots -->
  <circle cx="52.0" cy="232.0" r="3" fill="#4e79a7"/><circle cx="64.7" cy="232.0" r="3" fill="#4e79a7"/><circle cx="77.4" cy="232.0" r="3" fill="#4e79a7"/><circle cx="90.0" cy="232.0" r="3" fill="#4e79a7"/><circle cx="102.7" cy="232.0" r="3" fill="#4e79a7"/><circle cx="115.4" cy="232.0" r="3" fill="#4e79a7"/><circle cx="128.1" cy="232.0" r="3" fill="#4e79a7"/><circle cx="140.7" cy="232.0" r="3" fill="#4e79a7"/><circle cx="153.4" cy="232.0" r="3" fill="#4e79a7"/><circle cx="166.1" cy="232.0" r="3" fill="#4e79a7"/><circle cx="178.8" cy="232.0" r="3" fill="#4e79a7"/><circle cx="191.5" cy="232.0" r="3" fill="#4e79a7"/><circle cx="204.1" cy="232.0" r="3" fill="#4e79a7"/><circle cx="216.8" cy="172.3" r="3" fill="#4e79a7"/><circle cx="229.5" cy="28.0" r="3" fill="#4e79a7"/><circle cx="242.2" cy="75.7" r="3" fill="#4e79a7"/><circle cx="254.8" cy="187.5" r="3" fill="#4e79a7"/><circle cx="267.5" cy="176.1" r="3" fill="#4e79a7"/><circle cx="280.2" cy="60.4" r="3" fill="#4e79a7"/><circle cx="292.9" cy="62.3" r="3" fill="#4e79a7"/><circle cx="305.6" cy="190.7" r="3" fill="#4e79a7"/><circle cx="318.2" cy="135.4" r="3" fill="#4e79a7"/><circle cx="330.9" cy="209.8" r="3" fill="#4e79a7"/><circle cx="343.6" cy="220.6" r="3" fill="#4e79a7"/><circle cx="356.3" cy="230.7" r="3" fill="#4e79a7"/><circle cx="368.9" cy="232.0" r="3" fill="#4e79a7"/><circle cx="381.6" cy="231.4" r="3" fill="#4e79a7"/><circle cx="394.3" cy="228.8" r="3" fill="#4e79a7"/><circle cx="407.0" cy="232.0" r="3" fill="#4e79a7"/><circle cx="419.7" cy="232.0" r="3" fill="#4e79a7"/><circle cx="432.3" cy="232.0" r="3" fill="#4e79a7"/><circle cx="445.0" cy="203.4" r="3" fill="#4e79a7"/><circle cx="457.7" cy="232.0" r="3" fill="#4e79a7"/><circle cx="470.4" cy="203.4" r="3" fill="#4e79a7"/><circle cx="483.1" cy="221.8" r="3" fill="#4e79a7"/><circle cx="495.7" cy="172.9" r="3" fill="#4e79a7"/><circle cx="508.4" cy="228.2" r="3" fill="#4e79a7"/><circle cx="521.1" cy="232.0" r="3" fill="#4e79a7"/><circle cx="533.8" cy="230.1" r="3" fill="#4e79a7"/><circle cx="546.4" cy="231.4" r="3" fill="#4e79a7"/><circle cx="559.1" cy="232.0" r="3" fill="#4e79a7"/><circle cx="571.8" cy="230.7" r="3" fill="#4e79a7"/><circle cx="584.5" cy="232.0" r="3" fill="#4e79a7"/><circle cx="597.2" cy="231.4" r="3" fill="#4e79a7"/><circle cx="609.8" cy="231.4" r="3" fill="#4e79a7"/><circle cx="622.5" cy="231.4" r="3" fill="#4e79a7"/><circle cx="635.2" cy="232.0" r="3" fill="#4e79a7"/><circle cx="647.9" cy="231.4" r="3" fill="#4e79a7"/><circle cx="660.5" cy="231.4" r="3" fill="#4e79a7"/><circle cx="673.2" cy="232.0" r="3" fill="#4e79a7"/><circle cx="685.9" cy="232.0" r="3" fill="#4e79a7"/><circle cx="698.6" cy="231.4" r="3" fill="#4e79a7"/><circle cx="711.3" cy="232.0" r="3" fill="#4e79a7"/><circle cx="723.9" cy="232.0" r="3" fill="#4e79a7"/><circle cx="736.6" cy="226.9" r="3" fill="#4e79a7"/><circle cx="749.3" cy="232.0" r="3" fill="#4e79a7"/><circle cx="762.0" cy="231.4" r="3" fill="#4e79a7"/><circle cx="774.6" cy="232.0" r="3" fill="#4e79a7"/><circle cx="787.3" cy="232.0" r="3" fill="#4e79a7"/><circle cx="800.0" cy="231.4" r="3" fill="#4e79a7"/>
  <circle cx="52.0" cy="232.0" r="3" fill="#f28e2b"/><circle cx="64.7" cy="232.0" r="3" fill="#f28e2b"/><circle cx="77.4" cy="232.0" r="3" fill="#f28e2b"/><circle cx="90.0" cy="232.0" r="3" fill="#f28e2b"/><circle cx="102.7" cy="232.0" r="3" fill="#f28e2b"/><circle cx="115.4" cy="232.0" r="3" fill="#f28e2b"/><circle cx="128.1" cy="232.0" r="3" fill="#f28e2b"/><circle cx="140.7" cy="232.0" r="3" fill="#f28e2b"/><circle cx="153.4" cy="232.0" r="3" fill="#f28e2b"/><circle cx="166.1" cy="232.0" r="3" fill="#f28e2b"/><circle cx="178.8" cy="232.0" r="3" fill="#f28e2b"/><circle cx="191.5" cy="232.0" r="3" fill="#f28e2b"/><circle cx="204.1" cy="232.0" r="3" fill="#f28e2b"/><circle cx="216.8" cy="217.4" r="3" fill="#f28e2b"/><circle cx="229.5" cy="151.3" r="3" fill="#f28e2b"/><circle cx="242.2" cy="185.0" r="3" fill="#f28e2b"/><circle cx="254.8" cy="221.8" r="3" fill="#f28e2b"/><circle cx="267.5" cy="209.1" r="3" fill="#f28e2b"/><circle cx="280.2" cy="175.4" r="3" fill="#f28e2b"/><circle cx="292.9" cy="182.4" r="3" fill="#f28e2b"/><circle cx="305.6" cy="209.1" r="3" fill="#f28e2b"/><circle cx="318.2" cy="189.4" r="3" fill="#f28e2b"/><circle cx="330.9" cy="225.6" r="3" fill="#f28e2b"/><circle cx="343.6" cy="228.2" r="3" fill="#f28e2b"/><circle cx="356.3" cy="231.4" r="3" fill="#f28e2b"/><circle cx="368.9" cy="232.0" r="3" fill="#f28e2b"/><circle cx="381.6" cy="231.4" r="3" fill="#f28e2b"/><circle cx="394.3" cy="230.1" r="3" fill="#f28e2b"/><circle cx="407.0" cy="232.0" r="3" fill="#f28e2b"/><circle cx="419.7" cy="232.0" r="3" fill="#f28e2b"/><circle cx="432.3" cy="232.0" r="3" fill="#f28e2b"/><circle cx="445.0" cy="227.6" r="3" fill="#f28e2b"/><circle cx="457.7" cy="232.0" r="3" fill="#f28e2b"/><circle cx="470.4" cy="226.9" r="3" fill="#f28e2b"/><circle cx="483.1" cy="229.5" r="3" fill="#f28e2b"/><circle cx="495.7" cy="211.7" r="3" fill="#f28e2b"/><circle cx="508.4" cy="228.2" r="3" fill="#f28e2b"/><circle cx="521.1" cy="232.0" r="3" fill="#f28e2b"/><circle cx="533.8" cy="230.1" r="3" fill="#f28e2b"/><circle cx="546.4" cy="231.4" r="3" fill="#f28e2b"/><circle cx="559.1" cy="232.0" r="3" fill="#f28e2b"/><circle cx="571.8" cy="230.7" r="3" fill="#f28e2b"/><circle cx="584.5" cy="232.0" r="3" fill="#f28e2b"/><circle cx="597.2" cy="231.4" r="3" fill="#f28e2b"/><circle cx="609.8" cy="231.4" r="3" fill="#f28e2b"/><circle cx="622.5" cy="231.4" r="3" fill="#f28e2b"/><circle cx="635.2" cy="232.0" r="3" fill="#f28e2b"/><circle cx="647.9" cy="231.4" r="3" fill="#f28e2b"/><circle cx="660.5" cy="231.4" r="3" fill="#f28e2b"/><circle cx="673.2" cy="232.0" r="3" fill="#f28e2b"/><circle cx="685.9" cy="232.0" r="3" fill="#f28e2b"/><circle cx="698.6" cy="231.4" r="3" fill="#f28e2b"/><circle cx="711.3" cy="232.0" r="3" fill="#f28e2b"/><circle cx="723.9" cy="232.0" r="3" fill="#f28e2b"/><circle cx="736.6" cy="231.4" r="3" fill="#f28e2b"/><circle cx="749.3" cy="232.0" r="3" fill="#f28e2b"/><circle cx="762.0" cy="231.4" r="3" fill="#f28e2b"/><circle cx="774.6" cy="232.0" r="3" fill="#f28e2b"/><circle cx="787.3" cy="232.0" r="3" fill="#f28e2b"/><circle cx="800.0" cy="231.4" r="3" fill="#f28e2b"/>

  <!-- axes -->
  <line x1="52" y1="28" x2="52" y2="232"
        stroke="#cccccc" stroke-width="1"/>
  <line x1="52" y1="232" x2="800" y2="232"
        stroke="#cccccc" stroke-width="1"/>

  <!-- y-axis labels -->
  <text x="47" y="236.0" text-anchor="end" font-size="10" fill="#57606a" font-family="ui-monospace, SFMono-Regular, 'SF Mono', Menlo, monospace">0</text><text x="47" y="197.9" text-anchor="end" font-size="10" fill="#57606a" font-family="ui-monospace, SFMono-Regular, 'SF Mono', Menlo, monospace">60</text><text x="47" y="159.7" text-anchor="end" font-size="10" fill="#57606a" font-family="ui-monospace, SFMono-Regular, 'SF Mono', Menlo, monospace">120</text><text x="47" y="121.6" text-anchor="end" font-size="10" fill="#57606a" font-family="ui-monospace, SFMono-Regular, 'SF Mono', Menlo, monospace">180</text><text x="47" y="83.5" text-anchor="end" font-size="10" fill="#57606a" font-family="ui-monospace, SFMono-Regular, 'SF Mono', Menlo, monospace">240</text><text x="47" y="45.3" text-anchor="end" font-size="10" fill="#57606a" font-family="ui-monospace, SFMono-Regular, 'SF Mono', Menlo, monospace">300</text><text x="47" y="7.2" text-anchor="end" font-size="10" fill="#57606a" font-family="ui-monospace, SFMono-Regular, 'SF Mono', Menlo, monospace">360</text>

  <!-- x-axis labels -->
  <text x="52.0" y="248" text-anchor="middle" font-size="10" fill="#8c959f" font-family="ui-monospace, SFMono-Regular, 'SF Mono', Menlo, monospace">05-14</text><text x="495.7" y="248" text-anchor="middle" font-size="10" fill="#8c959f" font-family="ui-monospace, SFMono-Regular, 'SF Mono', Menlo, monospace">06-18</text><text x="140.7" y="248" text-anchor="middle" font-size="10" fill="#8c959f" font-family="ui-monospace, SFMono-Regular, 'SF Mono', Menlo, monospace">05-21</text><text x="584.5" y="248" text-anchor="middle" font-size="10" fill="#8c959f" font-family="ui-monospace, SFMono-Regular, 'SF Mono', Menlo, monospace">06-25</text><text x="229.5" y="248" text-anchor="middle" font-size="10" fill="#8c959f" font-family="ui-monospace, SFMono-Regular, 'SF Mono', Menlo, monospace">05-28</text><text x="673.2" y="248" text-anchor="middle" font-size="10" fill="#8c959f" font-family="ui-monospace, SFMono-Regular, 'SF Mono', Menlo, monospace">07-02</text><text x="318.2" y="248" text-anchor="middle" font-size="10" fill="#8c959f" font-family="ui-monospace, SFMono-Regular, 'SF Mono', Menlo, monospace">06-04</text><text x="762.0" y="248" text-anchor="middle" font-size="10" fill="#8c959f" font-family="ui-monospace, SFMono-Regular, 'SF Mono', Menlo, monospace">07-09</text><text x="800.0" y="248" text-anchor="middle" font-size="10" fill="#8c959f" font-family="ui-monospace, SFMono-Regular, 'SF Mono', Menlo, monospace">07-12</text><text x="407.0" y="248" text-anchor="middle" font-size="10" fill="#8c959f" font-family="ui-monospace, SFMono-Regular, 'SF Mono', Menlo, monospace">06-11</text>

  <!-- legend -->
  <rect x="60" y="262" width="16" height="3" fill="#4e79a7" rx="1"/><text x="80" y="268" font-size="11" fill="#57606a" font-family="-apple-system, BlinkMacSystemFont, 'Segoe UI', sans-serif">Total clones (1,861)</text><line x1="230" y1="264" x2="246" y2="264" stroke="#f28e2b" stroke-width="2" stroke-dasharray="5,3"/><text x="250" y="268" font-size="11" fill="#57606a" font-family="-apple-system, BlinkMacSystemFont, 'Segoe UI', sans-serif">Unique cloners</text>

</svg>