<svg xmlns="http://www.w3.org/2000/svg" viewBox="0 0 820 280" width="820" height="280">

  <!-- title -->
  <text x="52" y="18" font-size="13" font-weight="600"
        fill="#24292f" font-family="-apple-system, BlinkMacSystemFont, 'Segoe UI', sans-serif"
        >Clone traffic — vellum</text>
  <text x="800" y="18" font-size="10" fill="#8c959f"
        font-family="ui-monospace, SFMono-Regular, 'SF Mono', Menlo, monospace" text-anchor="end">2026-07-05</text>

  <!-- grid -->
  <line x1="52" y1="232.0" x2="800" y2="232.0" stroke="#e8e8e8" stroke-width="1"/><line x1="52" y1="193.9" x2="800" y2="193.9" stroke="#e8e8e8" stroke-width="1"/><line x1="52" y1="155.7" x2="800" y2="155.7" stroke="#e8e8e8" stroke-width="1"/><line x1="52" y1="117.6" x2="800" y2="117.6" stroke="#e8e8e8" stroke-width="1"/><line x1="52" y1="79.5" x2="800" y2="79.5" stroke="#e8e8e8" stroke-width="1"/><line x1="52" y1="41.3" x2="800" y2="41.3" stroke="#e8e8e8" stroke-width="1"/><line x1="52" y1="3.2" x2="800" y2="3.2" stroke="#e8e8e8" stroke-width="1"/>

  <!-- area fill -->
  <path d="M52.0,232.0 L52.0,232.0 L67.0,232.0 L81.9,232.0 L96.9,232.0 L111.8,232.0 L126.8,232.0 L141.8,232.0 L156.7,232.0 L171.7,232.0 L186.6,232.0 L201.6,232.0 L216.6,232.0 L231.5,232.0 L246.5,172.3 L261.4,28.0 L276.4,75.7 L291.4,187.5 L306.3,176.1 L321.3,60.4 L336.2,62.3 L351.2,190.7 L366.2,135.4 L381.1,209.8 L396.1,220.6 L411.0,230.7 L426.0,232.0 L441.0,231.4 L455.9,228.8 L470.9,232.0 L485.8,232.0 L500.8,232.0 L515.8,203.4 L530.7,232.0 L545.7,203.4 L560.6,221.8 L575.6,172.9 L590.6,228.2 L605.5,232.0 L620.5,230.1 L635.4,231.4 L650.4,232.0 L665.4,230.7 L680.3,232.0 L695.3,231.4 L710.2,231.4 L725.2,231.4 L740.2,232.0 L755.1,231.4 L770.1,231.4 L785.0,232.0 L800.0,232.0 L800.0,232.0 L52.0,232.0Z" fill="#4e79a7" opacity="0.12"/>

  <!-- lines -->
  <polyline points="52.0,232.0 67.0,232.0 81.9,232.0 96.9,232.0 111.8,232.0 126.8,232.0 141.8,232.0 156.7,232.0 171.7,232.0 186.6,232.0 201.6,232.0 216.6,232.0 231.5,232.0 246.5,172.3 261.4,28.0 276.4,75.7 291.4,187.5 306.3,176.1 321.3,60.4 336.2,62.3 351.2,190.7 366.2,135.4 381.1,209.8 396.1,220.6 411.0,230.7 426.0,232.0 441.0,231.4 455.9,228.8 470.9,232.0 485.8,232.0 500.8,232.0 515.8,203.4 530.7,232.0 545.7,203.4 560.6,221.8 575.6,172.9 590.6,228.2 605.5,232.0 620.5,230.1 635.4,231.4 650.4,232.0 665.4,230.7 680.3,232.0 695.3,231.4 710.2,231.4 725.2,231.4 740.2,232.0 755.1,231.4 770.1,231.4 785.0,232.0 800.0,232.0"
            fill="none" stroke="#4e79a7"
            stroke-width="2" stroke-linejoin="round"/>
  <polyline points="52.0,232.0 67.0,232.0 81.9,232.0 96.9,232.0 111.8,232.0 126.8,232.0 141.8,232.0 156.7,232.0 171.7,232.0 186.6,232.0 201.6,232.0 216.6,232.0 231.5,232.0 246.5,217.4 261.4,151.3 276.4,185.0 291.4,221.8 306.3,209.1 321.3,175.4 336.2,182.4 351.2,209.1 366.2,189.4 381.1,225.6 396.1,228.2 411.0,231.4 426.0,232.0 441.0,231.4 455.9,230.1 470.9,232.0 485.8,232.0 500.8,232.0 515.8,227.6 530.7,232.0 545.7,226.9 560.6,229.5 575.6,211.7 590.6,228.2 605.5,232.0 620.5,230.1 635.4,231.4 650.4,232.0 665.4,230.7 680.3,232.0 695.3,231.4 710.2,231.4 725.2,231.4 740.2,232.0 755.1,231.4 770.1,231.4 785.0,232.0 800.0,232.0"
            fill="none" stroke="#f28e2b"
            stroke-width="2" stroke-linejoin="round"
            stroke-dasharray="5,3"/>

  <!-- dots -->
  <circle cx="52.0" cy="232.0" r="3" fill="#4e79a7"/><circle cx="67.0" cy="232.0" r="3" fill="#4e79a7"/><circle cx="81.9" cy="232.0" r="3" fill="#4e79a7"/><circle cx="96.9" cy="232.0" r="3" fill="#4e79a7"/><circle cx="111.8" cy="232.0" r="3" fill="#4e79a7"/><circle cx="126.8" cy="232.0" r="3" fill="#4e79a7"/><circle cx="141.8" cy="232.0" r="3" fill="#4e79a7"/><circle cx="156.7" cy="232.0" r="3" fill="#4e79a7"/><circle cx="171.7" cy="232.0" r="3" fill="#4e79a7"/><circle cx="186.6" cy="232.0" r="3" fill="#4e79a7"/><circle cx="201.6" cy="232.0" r="3" fill="#4e79a7"/><circle cx="216.6" cy="232.0" r="3" fill="#4e79a7"/><circle cx="231.5" cy="232.0" r="3" fill="#4e79a7"/><circle cx="246.5" cy="172.3" r="3" fill="#4e79a7"/><circle cx="261.4" cy="28.0" r="3" fill="#4e79a7"/><circle cx="276.4" cy="75.7" r="3" fill="#4e79a7"/><circle cx="291.4" cy="187.5" r="3" fill="#4e79a7"/><circle cx="306.3" cy="176.1" r="3" fill="#4e79a7"/><circle cx="321.3" cy="60.4" r="3" fill="#4e79a7"/><circle cx="336.2" cy="62.3" r="3" fill="#4e79a7"/><circle cx="351.2" cy="190.7" r="3" fill="#4e79a7"/><circle cx="366.2" cy="135.4" r="3" fill="#4e79a7"/><circle cx="381.1" cy="209.8" r="3" fill="#4e79a7"/><circle cx="396.1" cy="220.6" r="3" fill="#4e79a7"/><circle cx="411.0" cy="230.7" r="3" fill="#4e79a7"/><circle cx="426.0" cy="232.0" r="3" fill="#4e79a7"/><circle cx="441.0" cy="231.4" r="3" fill="#4e79a7"/><circle cx="455.9" cy="228.8" r="3" fill="#4e79a7"/><circle cx="470.9" cy="232.0" r="3" fill="#4e79a7"/><circle cx="485.8" cy="232.0" r="3" fill="#4e79a7"/><circle cx="500.8" cy="232.0" r="3" fill="#4e79a7"/><circle cx="515.8" cy="203.4" r="3" fill="#4e79a7"/><circle cx="530.7" cy="232.0" r="3" fill="#4e79a7"/><circle cx="545.7" cy="203.4" r="3" fill="#4e79a7"/><circle cx="560.6" cy="221.8" r="3" fill="#4e79a7"/><circle cx="575.6" cy="172.9" r="3" fill="#4e79a7"/><circle cx="590.6" cy="228.2" r="3" fill="#4e79a7"/><circle cx="605.5" cy="232.0" r="3" fill="#4e79a7"/><circle cx="620.5" cy="230.1" r="3" fill="#4e79a7"/><circle cx="635.4" cy="231.4" r="3" fill="#4e79a7"/><circle cx="650.4" cy="232.0" r="3" fill="#4e79a7"/><circle cx="665.4" cy="230.7" r="3" fill="#4e79a7"/><circle cx="680.3" cy="232.0" r="3" fill="#4e79a7"/><circle cx="695.3" cy="231.4" r="3" fill="#4e79a7"/><circle cx="710.2" cy="231.4" r="3" fill="#4e79a7"/><circle cx="725.2" cy="231.4" r="3" fill="#4e79a7"/><circle cx="740.2" cy="232.0" r="3" fill="#4e79a7"/><circle cx="755.1" cy="231.4" r="3" fill="#4e79a7"/><circle cx="770.1" cy="231.4" r="3" fill="#4e79a7"/><circle cx="785.0" cy="232.0" r="3" fill="#4e79a7"/><circle cx="800.0" cy="232.0" r="3" fill="#4e79a7"/>
  <circle cx="52.0" cy="232.0" r="3" fill="#f28e2b"/><circle cx="67.0" cy="232.0" r="3" fill="#f28e2b"/><circle cx="81.9" cy="232.0" r="3" fill="#f28e2b"/><circle cx="96.9" cy="232.0" r="3" fill="#f28e2b"/><circle cx="111.8" cy="232.0" r="3" fill="#f28e2b"/><circle cx="126.8" cy="232.0" r="3" fill="#f28e2b"/><circle cx="141.8" cy="232.0" r="3" fill="#f28e2b"/><circle cx="156.7" cy="232.0" r="3" fill="#f28e2b"/><circle cx="171.7" cy="232.0" r="3" fill="#f28e2b"/><circle cx="186.6" cy="232.0" r="3" fill="#f28e2b"/><circle cx="201.6" cy="232.0" r="3" fill="#f28e2b"/><circle cx="216.6" cy="232.0" r="3" fill="#f28e2b"/><circle cx="231.5" cy="232.0" r="3" fill="#f28e2b"/><circle cx="246.5" cy="217.4" r="3" fill="#f28e2b"/><circle cx="261.4" cy="151.3" r="3" fill="#f28e2b"/><circle cx="276.4" cy="185.0" r="3" fill="#f28e2b"/><circle cx="291.4" cy="221.8" r="3" fill="#f28e2b"/><circle cx="306.3" cy="209.1" r="3" fill="#f28e2b"/><circle cx="321.3" cy="175.4" r="3" fill="#f28e2b"/><circle cx="336.2" cy="182.4" r="3" fill="#f28e2b"/><circle cx="351.2" cy="209.1" r="3" fill="#f28e2b"/><circle cx="366.2" cy="189.4" r="3" fill="#f28e2b"/><circle cx="381.1" cy="225.6" r="3" fill="#f28e2b"/><circle cx="396.1" cy="228.2" r="3" fill="#f28e2b"/><circle cx="411.0" cy="231.4" r="3" fill="#f28e2b"/><circle cx="426.0" cy="232.0" r="3" fill="#f28e2b"/><circle cx="441.0" cy="231.4" r="3" fill="#f28e2b"/><circle cx="455.9" cy="230.1" r="3" fill="#f28e2b"/><circle cx="470.9" cy="232.0" r="3" fill="#f28e2b"/><circle cx="485.8" cy="232.0" r="3" fill="#f28e2b"/><circle cx="500.8" cy="232.0" r="3" fill="#f28e2b"/><circle cx="515.8" cy="227.6" r="3" fill="#f28e2b"/><circle cx="530.7" cy="232.0" r="3" fill="#f28e2b"/><circle cx="545.7" cy="226.9" r="3" fill="#f28e2b"/><circle cx="560.6" cy="229.5" r="3" fill="#f28e2b"/><circle cx="575.6" cy="211.7" r="3" fill="#f28e2b"/><circle cx="590.6" cy="228.2" r="3" fill="#f28e2b"/><circle cx="605.5" cy="232.0" r="3" fill="#f28e2b"/><circle cx="620.5" cy="230.1" r="3" fill="#f28e2b"/><circle cx="635.4" cy="231.4" r="3" fill="#f28e2b"/><circle cx="650.4" cy="232.0" r="3" fill="#f28e2b"/><circle cx="665.4" cy="230.7" r="3" fill="#f28e2b"/><circle cx="680.3" cy="232.0" r="3" fill="#f28e2b"/><circle cx="695.3" cy="231.4" r="3" fill="#f28e2b"/><circle cx="710.2" cy="231.4" r="3" fill="#f28e2b"/><circle cx="725.2" cy="231.4" r="3" fill="#f28e2b"/><circle cx="740.2" cy="232.0" r="3" fill="#f28e2b"/><circle cx="755.1" cy="231.4" r="3" fill="#f28e2b"/><circle cx="770.1" cy="231.4" r="3" fill="#f28e2b"/><circle cx="785.0" cy="232.0" r="3" fill="#f28e2b"/><circle cx="800.0" cy="232.0" r="3" fill="#f28e2b"/>

  <!-- axes -->
  <line x1="52" y1="28" x2="52" y2="232"
        stroke="#cccccc" stroke-width="1"/>
  <line x1="52" y1="232" x2="800" y2="232"
        stroke="#cccccc" stroke-width="1"/>

  <!-- y-axis labels -->
  <text x="47" y="236.0" text-anchor="end" font-size="10" fill="#57606a" font-family="ui-monospace, SFMono-Regular, 'SF Mono', Menlo, monospace">0</text><text x="47" y="197.9" text-anchor="end" font-size="10" fill="#57606a" font-family="ui-monospace, SFMono-Regular, 'SF Mono', Menlo, monospace">60</text><text x="47" y="159.7" text-anchor="end" font-size="10" fill="#57606a" font-family="ui-monospace, SFMono-Regular, 'SF Mono', Menlo, monospace">120</text><text x="47" y="121.6" text-anchor="end" font-size="10" fill="#57606a" font-family="ui-monospace, SFMono-Regular, 'SF Mono', Menlo, monospace">180</text><text x="47" y="83.5" text-anchor="end" font-size="10" fill="#57606a" font-family="ui-monospace, SFMono-Regular, 'SF Mono', Menlo, monospace">240</text><text x="47" y="45.3" text-anchor="end" font-size="10" fill="#57606a" font-family="ui-monospace, SFMono-Regular, 'SF Mono', Menlo, monospace">300</text><text x="47" y="7.2" text-anchor="end" font-size="10" fill="#57606a" font-family="ui-monospace, SFMono-Regular, 'SF Mono', Menlo, monospace">360</text>

  <!-- x-axis labels -->
  <text x="52.0" y="248" text-anchor="middle" font-size="10" fill="#8c959f" font-family="ui-monospace, SFMono-Regular, 'SF Mono', Menlo, monospace">05-14</text><text x="590.6" y="248" text-anchor="middle" font-size="10" fill="#8c959f" font-family="ui-monospace, SFMono-Regular, 'SF Mono', Menlo, monospace">06-19</text><text x="141.8" y="248" text-anchor="middle" font-size="10" fill="#8c959f" font-family="ui-monospace, SFMono-Regular, 'SF Mono', Menlo, monospace">05-20</text><text x="680.3" y="248" text-anchor="middle" font-size="10" fill="#8c959f" font-family="ui-monospace, SFMono-Regular, 'SF Mono', Menlo, monospace">06-25</text><text x="231.5" y="248" text-anchor="middle" font-size="10" fill="#8c959f" font-family="ui-monospace, SFMono-Regular, 'SF Mono', Menlo, monospace">05-26</text><text x="770.1" y="248" text-anchor="middle" font-size="10" fill="#8c959f" font-family="ui-monospace, SFMono-Regular, 'SF Mono', Menlo, monospace">07-01</text><text x="321.3" y="248" text-anchor="middle" font-size="10" fill="#8c959f" font-family="ui-monospace, SFMono-Regular, 'SF Mono', Menlo, monospace">06-01</text><text x="800.0" y="248" text-anchor="middle" font-size="10" fill="#8c959f" font-family="ui-monospace, SFMono-Regular, 'SF Mono', Menlo, monospace">07-03</text><text x="411.0" y="248" text-anchor="middle" font-size="10" fill="#8c959f" font-family="ui-monospace, SFMono-Regular, 'SF Mono', Menlo, monospace">06-07</text><text x="500.8" y="248" text-anchor="middle" font-size="10" fill="#8c959f" font-family="ui-monospace, SFMono-Regular, 'SF Mono', Menlo, monospace">06-13</text>

  <!-- legend -->
  <rect x="60" y="262" width="16" height="3" fill="#4e79a7" rx="1"/><text x="80" y="268" font-size="11" fill="#57606a" font-family="-apple-system, BlinkMacSystemFont, 'Segoe UI', sans-serif">Total clones (1,850)</text><line x1="230" y1="264" x2="246" y2="264" stroke="#f28e2b" stroke-width="2" stroke-dasharray="5,3"/><text x="250" y="268" font-size="11" fill="#57606a" font-family="-apple-system, BlinkMacSystemFont, 'Segoe UI', sans-serif">Unique cloners</text>

</svg>