<svg xmlns="http://www.w3.org/2000/svg" viewBox="0 0 820 280" width="820" height="280">

  <!-- title -->
  <text x="52" y="18" font-size="13" font-weight="600"
        fill="#24292f" font-family="-apple-system, BlinkMacSystemFont, 'Segoe UI', sans-serif"
        >Clone traffic — vellum</text>
  <text x="800" y="18" font-size="10" fill="#8c959f"
        font-family="ui-monospace, SFMono-Regular, 'SF Mono', Menlo, monospace" text-anchor="end">2026-06-20</text>

  <!-- grid -->
  <line x1="52" y1="232.0" x2="800" y2="232.0" stroke="#e8e8e8" stroke-width="1"/><line x1="52" y1="193.9" x2="800" y2="193.9" stroke="#e8e8e8" stroke-width="1"/><line x1="52" y1="155.7" x2="800" y2="155.7" stroke="#e8e8e8" stroke-width="1"/><line x1="52" y1="117.6" x2="800" y2="117.6" stroke="#e8e8e8" stroke-width="1"/><line x1="52" y1="79.5" x2="800" y2="79.5" stroke="#e8e8e8" stroke-width="1"/><line x1="52" y1="41.3" x2="800" y2="41.3" stroke="#e8e8e8" stroke-width="1"/><line x1="52" y1="3.2" x2="800" y2="3.2" stroke="#e8e8e8" stroke-width="1"/>

  <!-- area fill -->
  <path d="M52.0,232.0 L52.0,232.0 L73.4,232.0 L94.7,232.0 L116.1,232.0 L137.5,232.0 L158.9,232.0 L180.2,232.0 L201.6,232.0 L223.0,232.0 L244.3,232.0 L265.7,232.0 L287.1,232.0 L308.5,232.0 L329.8,172.3 L351.2,28.0 L372.6,75.7 L393.9,187.5 L415.3,176.1 L436.7,60.4 L458.1,62.3 L479.4,190.7 L500.8,135.4 L522.2,209.8 L543.5,220.6 L564.9,230.7 L586.3,232.0 L607.7,231.4 L629.0,228.8 L650.4,232.0 L671.8,232.0 L693.1,232.0 L714.5,203.4 L735.9,232.0 L757.3,203.4 L778.6,221.8 L800.0,172.9 L800.0,232.0 L52.0,232.0Z" fill="#4e79a7" opacity="0.12"/>

  <!-- lines -->
  <polyline points="52.0,232.0 73.4,232.0 94.7,232.0 116.1,232.0 137.5,232.0 158.9,232.0 180.2,232.0 201.6,232.0 223.0,232.0 244.3,232.0 265.7,232.0 287.1,232.0 308.5,232.0 329.8,172.3 351.2,28.0 372.6,75.7 393.9,187.5 415.3,176.1 436.7,60.4 458.1,62.3 479.4,190.7 500.8,135.4 522.2,209.8 543.5,220.6 564.9,230.7 586.3,232.0 607.7,231.4 629.0,228.8 650.4,232.0 671.8,232.0 693.1,232.0 714.5,203.4 735.9,232.0 757.3,203.4 778.6,221.8 800.0,172.9"
            fill="none" stroke="#4e79a7"
            stroke-width="2" stroke-linejoin="round"/>
  <polyline points="52.0,232.0 73.4,232.0 94.7,232.0 116.1,232.0 137.5,232.0 158.9,232.0 180.2,232.0 201.6,232.0 223.0,232.0 244.3,232.0 265.7,232.0 287.1,232.0 308.5,232.0 329.8,217.4 351.2,151.3 372.6,185.0 393.9,221.8 415.3,209.1 436.7,175.4 458.1,182.4 479.4,209.1 500.8,189.4 522.2,225.6 543.5,228.2 564.9,231.4 586.3,232.0 607.7,231.4 629.0,230.1 650.4,232.0 671.8,232.0 693.1,232.0 714.5,227.6 735.9,232.0 757.3,226.9 778.6,229.5 800.0,211.7"
            fill="none" stroke="#f28e2b"
            stroke-width="2" stroke-linejoin="round"
            stroke-dasharray="5,3"/>

  <!-- dots -->
  <circle cx="52.0" cy="232.0" r="3" fill="#4e79a7"/><circle cx="73.4" cy="232.0" r="3" fill="#4e79a7"/><circle cx="94.7" cy="232.0" r="3" fill="#4e79a7"/><circle cx="116.1" cy="232.0" r="3" fill="#4e79a7"/><circle cx="137.5" cy="232.0" r="3" fill="#4e79a7"/><circle cx="158.9" cy="232.0" r="3" fill="#4e79a7"/><circle cx="180.2" cy="232.0" r="3" fill="#4e79a7"/><circle cx="201.6" cy="232.0" r="3" fill="#4e79a7"/><circle cx="223.0" cy="232.0" r="3" fill="#4e79a7"/><circle cx="244.3" cy="232.0" r="3" fill="#4e79a7"/><circle cx="265.7" cy="232.0" r="3" fill="#4e79a7"/><circle cx="287.1" cy="232.0" r="3" fill="#4e79a7"/><circle cx="308.5" cy="232.0" r="3" fill="#4e79a7"/><circle cx="329.8" cy="172.3" r="3" fill="#4e79a7"/><circle cx="351.2" cy="28.0" r="3" fill="#4e79a7"/><circle cx="372.6" cy="75.7" r="3" fill="#4e79a7"/><circle cx="393.9" cy="187.5" r="3" fill="#4e79a7"/><circle cx="415.3" cy="176.1" r="3" fill="#4e79a7"/><circle cx="436.7" cy="60.4" r="3" fill="#4e79a7"/><circle cx="458.1" cy="62.3" r="3" fill="#4e79a7"/><circle cx="479.4" cy="190.7" r="3" fill="#4e79a7"/><circle cx="500.8" cy="135.4" r="3" fill="#4e79a7"/><circle cx="522.2" cy="209.8" r="3" fill="#4e79a7"/><circle cx="543.5" cy="220.6" r="3" fill="#4e79a7"/><circle cx="564.9" cy="230.7" r="3" fill="#4e79a7"/><circle cx="586.3" cy="232.0" r="3" fill="#4e79a7"/><circle cx="607.7" cy="231.4" r="3" fill="#4e79a7"/><circle cx="629.0" cy="228.8" r="3" fill="#4e79a7"/><circle cx="650.4" cy="232.0" r="3" fill="#4e79a7"/><circle cx="671.8" cy="232.0" r="3" fill="#4e79a7"/><circle cx="693.1" cy="232.0" r="3" fill="#4e79a7"/><circle cx="714.5" cy="203.4" r="3" fill="#4e79a7"/><circle cx="735.9" cy="232.0" r="3" fill="#4e79a7"/><circle cx="757.3" cy="203.4" r="3" fill="#4e79a7"/><circle cx="778.6" cy="221.8" r="3" fill="#4e79a7"/><circle cx="800.0" cy="172.9" r="3" fill="#4e79a7"/>
  <circle cx="52.0" cy="232.0" r="3" fill="#f28e2b"/><circle cx="73.4" cy="232.0" r="3" fill="#f28e2b"/><circle cx="94.7" cy="232.0" r="3" fill="#f28e2b"/><circle cx="116.1" cy="232.0" r="3" fill="#f28e2b"/><circle cx="137.5" cy="232.0" r="3" fill="#f28e2b"/><circle cx="158.9" cy="232.0" r="3" fill="#f28e2b"/><circle cx="180.2" cy="232.0" r="3" fill="#f28e2b"/><circle cx="201.6" cy="232.0" r="3" fill="#f28e2b"/><circle cx="223.0" cy="232.0" r="3" fill="#f28e2b"/><circle cx="244.3" cy="232.0" r="3" fill="#f28e2b"/><circle cx="265.7" cy="232.0" r="3" fill="#f28e2b"/><circle cx="287.1" cy="232.0" r="3" fill="#f28e2b"/><circle cx="308.5" cy="232.0" r="3" fill="#f28e2b"/><circle cx="329.8" cy="217.4" r="3" fill="#f28e2b"/><circle cx="351.2" cy="151.3" r="3" fill="#f28e2b"/><circle cx="372.6" cy="185.0" r="3" fill="#f28e2b"/><circle cx="393.9" cy="221.8" r="3" fill="#f28e2b"/><circle cx="415.3" cy="209.1" r="3" fill="#f28e2b"/><circle cx="436.7" cy="175.4" r="3" fill="#f28e2b"/><circle cx="458.1" cy="182.4" r="3" fill="#f28e2b"/><circle cx="479.4" cy="209.1" r="3" fill="#f28e2b"/><circle cx="500.8" cy="189.4" r="3" fill="#f28e2b"/><circle cx="522.2" cy="225.6" r="3" fill="#f28e2b"/><circle cx="543.5" cy="228.2" r="3" fill="#f28e2b"/><circle cx="564.9" cy="231.4" r="3" fill="#f28e2b"/><circle cx="586.3" cy="232.0" r="3" fill="#f28e2b"/><circle cx="607.7" cy="231.4" r="3" fill="#f28e2b"/><circle cx="629.0" cy="230.1" r="3" fill="#f28e2b"/><circle cx="650.4" cy="232.0" r="3" fill="#f28e2b"/><circle cx="671.8" cy="232.0" r="3" fill="#f28e2b"/><circle cx="693.1" cy="232.0" r="3" fill="#f28e2b"/><circle cx="714.5" cy="227.6" r="3" fill="#f28e2b"/><circle cx="735.9" cy="232.0" r="3" fill="#f28e2b"/><circle cx="757.3" cy="226.9" r="3" fill="#f28e2b"/><circle cx="778.6" cy="229.5" r="3" fill="#f28e2b"/><circle cx="800.0" cy="211.7" r="3" fill="#f28e2b"/>

  <!-- axes -->
  <line x1="52" y1="28" x2="52" y2="232"
        stroke="#cccccc" stroke-width="1"/>
  <line x1="52" y1="232" x2="800" y2="232"
        stroke="#cccccc" stroke-width="1"/>

  <!-- y-axis labels -->
  <text x="47" y="236.0" text-anchor="end" font-size="10" fill="#57606a" font-family="ui-monospace, SFMono-Regular, 'SF Mono', Menlo, monospace">0</text><text x="47" y="197.9" text-anchor="end" font-size="10" fill="#57606a" font-family="ui-monospace, SFMono-Regular, 'SF Mono', Menlo, monospace">60</text><text x="47" y="159.7" text-anchor="end" font-size="10" fill="#57606a" font-family="ui-monospace, SFMono-Regular, 'SF Mono', Menlo, monospace">120</text><text x="47" y="121.6" text-anchor="end" font-size="10" fill="#57606a" font-family="ui-monospace, SFMono-Regular, 'SF Mono', Menlo, monospace">180</text><text x="47" y="83.5" text-anchor="end" font-size="10" fill="#57606a" font-family="ui-monospace, SFMono-Regular, 'SF Mono', Menlo, monospace">240</text><text x="47" y="45.3" text-anchor="end" font-size="10" fill="#57606a" font-family="ui-monospace, SFMono-Regular, 'SF Mono', Menlo, monospace">300</text><text x="47" y="7.2" text-anchor="end" font-size="10" fill="#57606a" font-family="ui-monospace, SFMono-Regular, 'SF Mono', Menlo, monospace">360</text>

  <!-- x-axis labels -->
  <text x="52.0" y="248" text-anchor="middle" font-size="10" fill="#8c959f" font-family="ui-monospace, SFMono-Regular, 'SF Mono', Menlo, monospace">05-14</text><text x="735.9" y="248" text-anchor="middle" font-size="10" fill="#8c959f" font-family="ui-monospace, SFMono-Regular, 'SF Mono', Menlo, monospace">06-15</text><text x="800.0" y="248" text-anchor="middle" font-size="10" fill="#8c959f" font-family="ui-monospace, SFMono-Regular, 'SF Mono', Menlo, monospace">06-18</text><text x="137.5" y="248" text-anchor="middle" font-size="10" fill="#8c959f" font-family="ui-monospace, SFMono-Regular, 'SF Mono', Menlo, monospace">05-18</text><text x="223.0" y="248" text-anchor="middle" font-size="10" fill="#8c959f" font-family="ui-monospace, SFMono-Regular, 'SF Mono', Menlo, monospace">05-22</text><text x="308.5" y="248" text-anchor="middle" font-size="10" fill="#8c959f" font-family="ui-monospace, SFMono-Regular, 'SF Mono', Menlo, monospace">05-26</text><text x="393.9" y="248" text-anchor="middle" font-size="10" fill="#8c959f" font-family="ui-monospace, SFMono-Regular, 'SF Mono', Menlo, monospace">05-30</text><text x="479.4" y="248" text-anchor="middle" font-size="10" fill="#8c959f" font-family="ui-monospace, SFMono-Regular, 'SF Mono', Menlo, monospace">06-03</text><text x="564.9" y="248" text-anchor="middle" font-size="10" fill="#8c959f" font-family="ui-monospace, SFMono-Regular, 'SF Mono', Menlo, monospace">06-07</text><text x="650.4" y="248" text-anchor="middle" font-size="10" fill="#8c959f" font-family="ui-monospace, SFMono-Regular, 'SF Mono', Menlo, monospace">06-11</text>

  <!-- legend -->
  <rect x="60" y="262" width="16" height="3" fill="#4e79a7" rx="1"/><text x="80" y="268" font-size="11" fill="#57606a" font-family="-apple-system, BlinkMacSystemFont, 'Segoe UI', sans-serif">Total clones (1,833)</text><line x1="230" y1="264" x2="246" y2="264" stroke="#f28e2b" stroke-width="2" stroke-dasharray="5,3"/><text x="250" y="268" font-size="11" fill="#57606a" font-family="-apple-system, BlinkMacSystemFont, 'Segoe UI', sans-serif">Unique cloners</text>

</svg>