<svg xmlns="http://www.w3.org/2000/svg" viewBox="0 0 820 280" width="820" height="280">

  <!-- title -->
  <text x="52" y="18" font-size="13" font-weight="600"
        fill="#24292f" font-family="-apple-system, BlinkMacSystemFont, 'Segoe UI', sans-serif"
        >Clone traffic — vellum</text>
  <text x="800" y="18" font-size="10" fill="#8c959f"
        font-family="ui-monospace, SFMono-Regular, 'SF Mono', Menlo, monospace" text-anchor="end">2026-07-23</text>

  <!-- grid -->
  <line x1="52" y1="232.0" x2="800" y2="232.0" stroke="#e8e8e8" stroke-width="1"/><line x1="52" y1="193.9" x2="800" y2="193.9" stroke="#e8e8e8" stroke-width="1"/><line x1="52" y1="155.7" x2="800" y2="155.7" stroke="#e8e8e8" stroke-width="1"/><line x1="52" y1="117.6" x2="800" y2="117.6" stroke="#e8e8e8" stroke-width="1"/><line x1="52" y1="79.5" x2="800" y2="79.5" stroke="#e8e8e8" stroke-width="1"/><line x1="52" y1="41.3" x2="800" y2="41.3" stroke="#e8e8e8" stroke-width="1"/><line x1="52" y1="3.2" x2="800" y2="3.2" stroke="#e8e8e8" stroke-width="1"/>

  <!-- area fill -->
  <path d="M52.0,232.0 L52.0,232.0 L63.0,232.0 L74.0,232.0 L85.0,232.0 L96.0,232.0 L107.0,232.0 L118.0,232.0 L129.0,232.0 L140.0,232.0 L151.0,232.0 L162.0,232.0 L173.0,232.0 L184.0,232.0 L195.0,172.3 L206.0,28.0 L217.0,75.7 L228.0,187.5 L239.0,176.1 L250.0,60.4 L261.0,62.3 L272.0,190.7 L283.0,135.4 L294.0,209.8 L305.0,220.6 L316.0,230.7 L327.0,232.0 L338.0,231.4 L349.0,228.8 L360.0,232.0 L371.0,232.0 L382.0,232.0 L393.0,203.4 L404.0,232.0 L415.0,203.4 L426.0,221.8 L437.0,172.9 L448.0,228.2 L459.0,232.0 L470.0,230.1 L481.0,231.4 L492.0,232.0 L503.0,230.7 L514.0,232.0 L525.0,231.4 L536.0,231.4 L547.0,231.4 L558.0,232.0 L569.0,231.4 L580.0,231.4 L591.0,232.0 L602.0,232.0 L613.0,231.4 L624.0,232.0 L635.0,232.0 L646.0,226.9 L657.0,232.0 L668.0,231.4 L679.0,232.0 L690.0,232.0 L701.0,231.4 L712.0,231.4 L723.0,232.0 L734.0,232.0 L745.0,232.0 L756.0,232.0 L767.0,232.0 L778.0,232.0 L789.0,232.0 L800.0,232.0 L800.0,232.0 L52.0,232.0Z" fill="#4e79a7" opacity="0.12"/>

  <!-- lines -->
  <polyline points="52.0,232.0 63.0,232.0 74.0,232.0 85.0,232.0 96.0,232.0 107.0,232.0 118.0,232.0 129.0,232.0 140.0,232.0 151.0,232.0 162.0,232.0 173.0,232.0 184.0,232.0 195.0,172.3 206.0,28.0 217.0,75.7 228.0,187.5 239.0,176.1 250.0,60.4 261.0,62.3 272.0,190.7 283.0,135.4 294.0,209.8 305.0,220.6 316.0,230.7 327.0,232.0 338.0,231.4 349.0,228.8 360.0,232.0 371.0,232.0 382.0,232.0 393.0,203.4 404.0,232.0 415.0,203.4 426.0,221.8 437.0,172.9 448.0,228.2 459.0,232.0 470.0,230.1 481.0,231.4 492.0,232.0 503.0,230.7 514.0,232.0 525.0,231.4 536.0,231.4 547.0,231.4 558.0,232.0 569.0,231.4 580.0,231.4 591.0,232.0 602.0,232.0 613.0,231.4 624.0,232.0 635.0,232.0 646.0,226.9 657.0,232.0 668.0,231.4 679.0,232.0 690.0,232.0 701.0,231.4 712.0,231.4 723.0,232.0 734.0,232.0 745.0,232.0 756.0,232.0 767.0,232.0 778.0,232.0 789.0,232.0 800.0,232.0"
            fill="none" stroke="#4e79a7"
            stroke-width="2" stroke-linejoin="round"/>
  <polyline points="52.0,232.0 63.0,232.0 74.0,232.0 85.0,232.0 96.0,232.0 107.0,232.0 118.0,232.0 129.0,232.0 140.0,232.0 151.0,232.0 162.0,232.0 173.0,232.0 184.0,232.0 195.0,217.4 206.0,151.3 217.0,185.0 228.0,221.8 239.0,209.1 250.0,175.4 261.0,182.4 272.0,209.1 283.0,189.4 294.0,225.6 305.0,228.2 316.0,231.4 327.0,232.0 338.0,231.4 349.0,230.1 360.0,232.0 371.0,232.0 382.0,232.0 393.0,227.6 404.0,232.0 415.0,226.9 426.0,229.5 437.0,211.7 448.0,228.2 459.0,232.0 470.0,230.1 481.0,231.4 492.0,232.0 503.0,230.7 514.0,232.0 525.0,231.4 536.0,231.4 547.0,231.4 558.0,232.0 569.0,231.4 580.0,231.4 591.0,232.0 602.0,232.0 613.0,231.4 624.0,232.0 635.0,232.0 646.0,231.4 657.0,232.0 668.0,231.4 679.0,232.0 690.0,232.0 701.0,231.4 712.0,231.4 723.0,232.0 734.0,232.0 745.0,232.0 756.0,232.0 767.0,232.0 778.0,232.0 789.0,232.0 800.0,232.0"
            fill="none" stroke="#f28e2b"
            stroke-width="2" stroke-linejoin="round"
            stroke-dasharray="5,3"/>

  <!-- dots -->
  <circle cx="52.0" cy="232.0" r="3" fill="#4e79a7"/><circle cx="63.0" cy="232.0" r="3" fill="#4e79a7"/><circle cx="74.0" cy="232.0" r="3" fill="#4e79a7"/><circle cx="85.0" cy="232.0" r="3" fill="#4e79a7"/><circle cx="96.0" cy="232.0" r="3" fill="#4e79a7"/><circle cx="107.0" cy="232.0" r="3" fill="#4e79a7"/><circle cx="118.0" cy="232.0" r="3" fill="#4e79a7"/><circle cx="129.0" cy="232.0" r="3" fill="#4e79a7"/><circle cx="140.0" cy="232.0" r="3" fill="#4e79a7"/><circle cx="151.0" cy="232.0" r="3" fill="#4e79a7"/><circle cx="162.0" cy="232.0" r="3" fill="#4e79a7"/><circle cx="173.0" cy="232.0" r="3" fill="#4e79a7"/><circle cx="184.0" cy="232.0" r="3" fill="#4e79a7"/><circle cx="195.0" cy="172.3" r="3" fill="#4e79a7"/><circle cx="206.0" cy="28.0" r="3" fill="#4e79a7"/><circle cx="217.0" cy="75.7" r="3" fill="#4e79a7"/><circle cx="228.0" cy="187.5" r="3" fill="#4e79a7"/><circle cx="239.0" cy="176.1" r="3" fill="#4e79a7"/><circle cx="250.0" cy="60.4" r="3" fill="#4e79a7"/><circle cx="261.0" cy="62.3" r="3" fill="#4e79a7"/><circle cx="272.0" cy="190.7" r="3" fill="#4e79a7"/><circle cx="283.0" cy="135.4" r="3" fill="#4e79a7"/><circle cx="294.0" cy="209.8" r="3" fill="#4e79a7"/><circle cx="305.0" cy="220.6" r="3" fill="#4e79a7"/><circle cx="316.0" cy="230.7" r="3" fill="#4e79a7"/><circle cx="327.0" cy="232.0" r="3" fill="#4e79a7"/><circle cx="338.0" cy="231.4" r="3" fill="#4e79a7"/><circle cx="349.0" cy="228.8" r="3" fill="#4e79a7"/><circle cx="360.0" cy="232.0" r="3" fill="#4e79a7"/><circle cx="371.0" cy="232.0" r="3" fill="#4e79a7"/><circle cx="382.0" cy="232.0" r="3" fill="#4e79a7"/><circle cx="393.0" cy="203.4" r="3" fill="#4e79a7"/><circle cx="404.0" cy="232.0" r="3" fill="#4e79a7"/><circle cx="415.0" cy="203.4" r="3" fill="#4e79a7"/><circle cx="426.0" cy="221.8" r="3" fill="#4e79a7"/><circle cx="437.0" cy="172.9" r="3" fill="#4e79a7"/><circle cx="448.0" cy="228.2" r="3" fill="#4e79a7"/><circle cx="459.0" cy="232.0" r="3" fill="#4e79a7"/><circle cx="470.0" cy="230.1" r="3" fill="#4e79a7"/><circle cx="481.0" cy="231.4" r="3" fill="#4e79a7"/><circle cx="492.0" cy="232.0" r="3" fill="#4e79a7"/><circle cx="503.0" cy="230.7" r="3" fill="#4e79a7"/><circle cx="514.0" cy="232.0" r="3" fill="#4e79a7"/><circle cx="525.0" cy="231.4" r="3" fill="#4e79a7"/><circle cx="536.0" cy="231.4" r="3" fill="#4e79a7"/><circle cx="547.0" cy="231.4" r="3" fill="#4e79a7"/><circle cx="558.0" cy="232.0" r="3" fill="#4e79a7"/><circle cx="569.0" cy="231.4" r="3" fill="#4e79a7"/><circle cx="580.0" cy="231.4" r="3" fill="#4e79a7"/><circle cx="591.0" cy="232.0" r="3" fill="#4e79a7"/><circle cx="602.0" cy="232.0" r="3" fill="#4e79a7"/><circle cx="613.0" cy="231.4" r="3" fill="#4e79a7"/><circle cx="624.0" cy="232.0" r="3" fill="#4e79a7"/><circle cx="635.0" cy="232.0" r="3" fill="#4e79a7"/><circle cx="646.0" cy="226.9" r="3" fill="#4e79a7"/><circle cx="657.0" cy="232.0" r="3" fill="#4e79a7"/><circle cx="668.0" cy="231.4" r="3" fill="#4e79a7"/><circle cx="679.0" cy="232.0" r="3" fill="#4e79a7"/><circle cx="690.0" cy="232.0" r="3" fill="#4e79a7"/><circle cx="701.0" cy="231.4" r="3" fill="#4e79a7"/><circle cx="712.0" cy="231.4" r="3" fill="#4e79a7"/><circle cx="723.0" cy="232.0" r="3" fill="#4e79a7"/><circle cx="734.0" cy="232.0" r="3" fill="#4e79a7"/><circle cx="745.0" cy="232.0" r="3" fill="#4e79a7"/><circle cx="756.0" cy="232.0" r="3" fill="#4e79a7"/><circle cx="767.0" cy="232.0" r="3" fill="#4e79a7"/><circle cx="778.0" cy="232.0" r="3" fill="#4e79a7"/><circle cx="789.0" cy="232.0" r="3" fill="#4e79a7"/><circle cx="800.0" cy="232.0" r="3" fill="#4e79a7"/>
  <circle cx="52.0" cy="232.0" r="3" fill="#f28e2b"/><circle cx="63.0" cy="232.0" r="3" fill="#f28e2b"/><circle cx="74.0" cy="232.0" r="3" fill="#f28e2b"/><circle cx="85.0" cy="232.0" r="3" fill="#f28e2b"/><circle cx="96.0" cy="232.0" r="3" fill="#f28e2b"/><circle cx="107.0" cy="232.0" r="3" fill="#f28e2b"/><circle cx="118.0" cy="232.0" r="3" fill="#f28e2b"/><circle cx="129.0" cy="232.0" r="3" fill="#f28e2b"/><circle cx="140.0" cy="232.0" r="3" fill="#f28e2b"/><circle cx="151.0" cy="232.0" r="3" fill="#f28e2b"/><circle cx="162.0" cy="232.0" r="3" fill="#f28e2b"/><circle cx="173.0" cy="232.0" r="3" fill="#f28e2b"/><circle cx="184.0" cy="232.0" r="3" fill="#f28e2b"/><circle cx="195.0" cy="217.4" r="3" fill="#f28e2b"/><circle cx="206.0" cy="151.3" r="3" fill="#f28e2b"/><circle cx="217.0" cy="185.0" r="3" fill="#f28e2b"/><circle cx="228.0" cy="221.8" r="3" fill="#f28e2b"/><circle cx="239.0" cy="209.1" r="3" fill="#f28e2b"/><circle cx="250.0" cy="175.4" r="3" fill="#f28e2b"/><circle cx="261.0" cy="182.4" r="3" fill="#f28e2b"/><circle cx="272.0" cy="209.1" r="3" fill="#f28e2b"/><circle cx="283.0" cy="189.4" r="3" fill="#f28e2b"/><circle cx="294.0" cy="225.6" r="3" fill="#f28e2b"/><circle cx="305.0" cy="228.2" r="3" fill="#f28e2b"/><circle cx="316.0" cy="231.4" r="3" fill="#f28e2b"/><circle cx="327.0" cy="232.0" r="3" fill="#f28e2b"/><circle cx="338.0" cy="231.4" r="3" fill="#f28e2b"/><circle cx="349.0" cy="230.1" r="3" fill="#f28e2b"/><circle cx="360.0" cy="232.0" r="3" fill="#f28e2b"/><circle cx="371.0" cy="232.0" r="3" fill="#f28e2b"/><circle cx="382.0" cy="232.0" r="3" fill="#f28e2b"/><circle cx="393.0" cy="227.6" r="3" fill="#f28e2b"/><circle cx="404.0" cy="232.0" r="3" fill="#f28e2b"/><circle cx="415.0" cy="226.9" r="3" fill="#f28e2b"/><circle cx="426.0" cy="229.5" r="3" fill="#f28e2b"/><circle cx="437.0" cy="211.7" r="3" fill="#f28e2b"/><circle cx="448.0" cy="228.2" r="3" fill="#f28e2b"/><circle cx="459.0" cy="232.0" r="3" fill="#f28e2b"/><circle cx="470.0" cy="230.1" r="3" fill="#f28e2b"/><circle cx="481.0" cy="231.4" r="3" fill="#f28e2b"/><circle cx="492.0" cy="232.0" r="3" fill="#f28e2b"/><circle cx="503.0" cy="230.7" r="3" fill="#f28e2b"/><circle cx="514.0" cy="232.0" r="3" fill="#f28e2b"/><circle cx="525.0" cy="231.4" r="3" fill="#f28e2b"/><circle cx="536.0" cy="231.4" r="3" fill="#f28e2b"/><circle cx="547.0" cy="231.4" r="3" fill="#f28e2b"/><circle cx="558.0" cy="232.0" r="3" fill="#f28e2b"/><circle cx="569.0" cy="231.4" r="3" fill="#f28e2b"/><circle cx="580.0" cy="231.4" r="3" fill="#f28e2b"/><circle cx="591.0" cy="232.0" r="3" fill="#f28e2b"/><circle cx="602.0" cy="232.0" r="3" fill="#f28e2b"/><circle cx="613.0" cy="231.4" r="3" fill="#f28e2b"/><circle cx="624.0" cy="232.0" r="3" fill="#f28e2b"/><circle cx="635.0" cy="232.0" r="3" fill="#f28e2b"/><circle cx="646.0" cy="231.4" r="3" fill="#f28e2b"/><circle cx="657.0" cy="232.0" r="3" fill="#f28e2b"/><circle cx="668.0" cy="231.4" r="3" fill="#f28e2b"/><circle cx="679.0" cy="232.0" r="3" fill="#f28e2b"/><circle cx="690.0" cy="232.0" r="3" fill="#f28e2b"/><circle cx="701.0" cy="231.4" r="3" fill="#f28e2b"/><circle cx="712.0" cy="231.4" r="3" fill="#f28e2b"/><circle cx="723.0" cy="232.0" r="3" fill="#f28e2b"/><circle cx="734.0" cy="232.0" r="3" fill="#f28e2b"/><circle cx="745.0" cy="232.0" r="3" fill="#f28e2b"/><circle cx="756.0" cy="232.0" r="3" fill="#f28e2b"/><circle cx="767.0" cy="232.0" r="3" fill="#f28e2b"/><circle cx="778.0" cy="232.0" r="3" fill="#f28e2b"/><circle cx="789.0" cy="232.0" r="3" fill="#f28e2b"/><circle cx="800.0" cy="232.0" r="3" fill="#f28e2b"/>

  <!-- axes -->
  <line x1="52" y1="28" x2="52" y2="232"
        stroke="#cccccc" stroke-width="1"/>
  <line x1="52" y1="232" x2="800" y2="232"
        stroke="#cccccc" stroke-width="1"/>

  <!-- y-axis labels -->
  <text x="47" y="236.0" text-anchor="end" font-size="10" fill="#57606a" font-family="ui-monospace, SFMono-Regular, 'SF Mono', Menlo, monospace">0</text><text x="47" y="197.9" text-anchor="end" font-size="10" fill="#57606a" font-family="ui-monospace, SFMono-Regular, 'SF Mono', Menlo, monospace">60</text><text x="47" y="159.7" text-anchor="end" font-size="10" fill="#57606a" font-family="ui-monospace, SFMono-Regular, 'SF Mono', Menlo, monospace">120</text><text x="47" y="121.6" text-anchor="end" font-size="10" fill="#57606a" font-family="ui-monospace, SFMono-Regular, 'SF Mono', Menlo, monospace">180</text><text x="47" y="83.5" text-anchor="end" font-size="10" fill="#57606a" font-family="ui-monospace, SFMono-Regular, 'SF Mono', Menlo, monospace">240</text><text x="47" y="45.3" text-anchor="end" font-size="10" fill="#57606a" font-family="ui-monospace, SFMono-Regular, 'SF Mono', Menlo, monospace">300</text><text x="47" y="7.2" text-anchor="end" font-size="10" fill="#57606a" font-family="ui-monospace, SFMono-Regular, 'SF Mono', Menlo, monospace">360</text>

  <!-- x-axis labels -->
  <text x="52.0" y="248" text-anchor="middle" font-size="10" fill="#8c959f" font-family="ui-monospace, SFMono-Regular, 'SF Mono', Menlo, monospace">05-14</text><text x="404.0" y="248" text-anchor="middle" font-size="10" fill="#8c959f" font-family="ui-monospace, SFMono-Regular, 'SF Mono', Menlo, monospace">06-15</text><text x="756.0" y="248" text-anchor="middle" font-size="10" fill="#8c959f" font-family="ui-monospace, SFMono-Regular, 'SF Mono', Menlo, monospace">07-17</text><text x="800.0" y="248" text-anchor="middle" font-size="10" fill="#8c959f" font-family="ui-monospace, SFMono-Regular, 'SF Mono', Menlo, monospace">07-21</text><text x="140.0" y="248" text-anchor="middle" font-size="10" fill="#8c959f" font-family="ui-monospace, SFMono-Regular, 'SF Mono', Menlo, monospace">05-22</text><text x="492.0" y="248" text-anchor="middle" font-size="10" fill="#8c959f" font-family="ui-monospace, SFMono-Regular, 'SF Mono', Menlo, monospace">06-23</text><text x="228.0" y="248" text-anchor="middle" font-size="10" fill="#8c959f" font-family="ui-monospace, SFMono-Regular, 'SF Mono', Menlo, monospace">05-30</text><text x="580.0" y="248" text-anchor="middle" font-size="10" fill="#8c959f" font-family="ui-monospace, SFMono-Regular, 'SF Mono', Menlo, monospace">07-01</text><text x="316.0" y="248" text-anchor="middle" font-size="10" fill="#8c959f" font-family="ui-monospace, SFMono-Regular, 'SF Mono', Menlo, monospace">06-07</text><text x="668.0" y="248" text-anchor="middle" font-size="10" fill="#8c959f" font-family="ui-monospace, SFMono-Regular, 'SF Mono', Menlo, monospace">07-09</text>

  <!-- legend -->
  <rect x="60" y="262" width="16" height="3" fill="#4e79a7" rx="1"/><text x="80" y="268" font-size="11" fill="#57606a" font-family="-apple-system, BlinkMacSystemFont, 'Segoe UI', sans-serif">Total clones (1,862)</text><line x1="230" y1="264" x2="246" y2="264" stroke="#f28e2b" stroke-width="2" stroke-dasharray="5,3"/><text x="250" y="268" font-size="11" fill="#57606a" font-family="-apple-system, BlinkMacSystemFont, 'Segoe UI', sans-serif">Unique cloners</text>

</svg>