<svg xmlns="http://www.w3.org/2000/svg" viewBox="0 0 820 280" width="820" height="280">

  <!-- title -->
  <text x="52" y="18" font-size="13" font-weight="600"
        fill="#24292f" font-family="-apple-system, BlinkMacSystemFont, 'Segoe UI', sans-serif"
        >Clone traffic — vellum</text>
  <text x="800" y="18" font-size="10" fill="#8c959f"
        font-family="ui-monospace, SFMono-Regular, 'SF Mono', Menlo, monospace" text-anchor="end">2026-07-15</text>

  <!-- grid -->
  <line x1="52" y1="232.0" x2="800" y2="232.0" stroke="#e8e8e8" stroke-width="1"/><line x1="52" y1="193.9" x2="800" y2="193.9" stroke="#e8e8e8" stroke-width="1"/><line x1="52" y1="155.7" x2="800" y2="155.7" stroke="#e8e8e8" stroke-width="1"/><line x1="52" y1="117.6" x2="800" y2="117.6" stroke="#e8e8e8" stroke-width="1"/><line x1="52" y1="79.5" x2="800" y2="79.5" stroke="#e8e8e8" stroke-width="1"/><line x1="52" y1="41.3" x2="800" y2="41.3" stroke="#e8e8e8" stroke-width="1"/><line x1="52" y1="3.2" x2="800" y2="3.2" stroke="#e8e8e8" stroke-width="1"/>

  <!-- area fill -->
  <path d="M52.0,232.0 L52.0,232.0 L64.5,232.0 L76.9,232.0 L89.4,232.0 L101.9,232.0 L114.3,232.0 L126.8,232.0 L139.3,232.0 L151.7,232.0 L164.2,232.0 L176.7,232.0 L189.1,232.0 L201.6,232.0 L214.1,172.3 L226.5,28.0 L239.0,75.7 L251.5,187.5 L263.9,176.1 L276.4,60.4 L288.9,62.3 L301.3,190.7 L313.8,135.4 L326.3,209.8 L338.7,220.6 L351.2,230.7 L363.7,232.0 L376.1,231.4 L388.6,228.8 L401.1,232.0 L413.5,232.0 L426.0,232.0 L438.5,203.4 L450.9,232.0 L463.4,203.4 L475.9,221.8 L488.3,172.9 L500.8,228.2 L513.3,232.0 L525.7,230.1 L538.2,231.4 L550.7,232.0 L563.1,230.7 L575.6,232.0 L588.1,231.4 L600.5,231.4 L613.0,231.4 L625.5,232.0 L637.9,231.4 L650.4,231.4 L662.9,232.0 L675.3,232.0 L687.8,231.4 L700.3,232.0 L712.7,232.0 L725.2,226.9 L737.7,232.0 L750.1,231.4 L762.6,232.0 L775.1,232.0 L787.5,231.4 L800.0,231.4 L800.0,232.0 L52.0,232.0Z" fill="#4e79a7" opacity="0.12"/>

  <!-- lines -->
  <polyline points="52.0,232.0 64.5,232.0 76.9,232.0 89.4,232.0 101.9,232.0 114.3,232.0 126.8,232.0 139.3,232.0 151.7,232.0 164.2,232.0 176.7,232.0 189.1,232.0 201.6,232.0 214.1,172.3 226.5,28.0 239.0,75.7 251.5,187.5 263.9,176.1 276.4,60.4 288.9,62.3 301.3,190.7 313.8,135.4 326.3,209.8 338.7,220.6 351.2,230.7 363.7,232.0 376.1,231.4 388.6,228.8 401.1,232.0 413.5,232.0 426.0,232.0 438.5,203.4 450.9,232.0 463.4,203.4 475.9,221.8 488.3,172.9 500.8,228.2 513.3,232.0 525.7,230.1 538.2,231.4 550.7,232.0 563.1,230.7 575.6,232.0 588.1,231.4 600.5,231.4 613.0,231.4 625.5,232.0 637.9,231.4 650.4,231.4 662.9,232.0 675.3,232.0 687.8,231.4 700.3,232.0 712.7,232.0 725.2,226.9 737.7,232.0 750.1,231.4 762.6,232.0 775.1,232.0 787.5,231.4 800.0,231.4"
            fill="none" stroke="#4e79a7"
            stroke-width="2" stroke-linejoin="round"/>
  <polyline points="52.0,232.0 64.5,232.0 76.9,232.0 89.4,232.0 101.9,232.0 114.3,232.0 126.8,232.0 139.3,232.0 151.7,232.0 164.2,232.0 176.7,232.0 189.1,232.0 201.6,232.0 214.1,217.4 226.5,151.3 239.0,185.0 251.5,221.8 263.9,209.1 276.4,175.4 288.9,182.4 301.3,209.1 313.8,189.4 326.3,225.6 338.7,228.2 351.2,231.4 363.7,232.0 376.1,231.4 388.6,230.1 401.1,232.0 413.5,232.0 426.0,232.0 438.5,227.6 450.9,232.0 463.4,226.9 475.9,229.5 488.3,211.7 500.8,228.2 513.3,232.0 525.7,230.1 538.2,231.4 550.7,232.0 563.1,230.7 575.6,232.0 588.1,231.4 600.5,231.4 613.0,231.4 625.5,232.0 637.9,231.4 650.4,231.4 662.9,232.0 675.3,232.0 687.8,231.4 700.3,232.0 712.7,232.0 725.2,231.4 737.7,232.0 750.1,231.4 762.6,232.0 775.1,232.0 787.5,231.4 800.0,231.4"
            fill="none" stroke="#f28e2b"
            stroke-width="2" stroke-linejoin="round"
            stroke-dasharray="5,3"/>

  <!-- dots -->
  <circle cx="52.0" cy="232.0" r="3" fill="#4e79a7"/><circle cx="64.5" cy="232.0" r="3" fill="#4e79a7"/><circle cx="76.9" cy="232.0" r="3" fill="#4e79a7"/><circle cx="89.4" cy="232.0" r="3" fill="#4e79a7"/><circle cx="101.9" cy="232.0" r="3" fill="#4e79a7"/><circle cx="114.3" cy="232.0" r="3" fill="#4e79a7"/><circle cx="126.8" cy="232.0" r="3" fill="#4e79a7"/><circle cx="139.3" cy="232.0" r="3" fill="#4e79a7"/><circle cx="151.7" cy="232.0" r="3" fill="#4e79a7"/><circle cx="164.2" cy="232.0" r="3" fill="#4e79a7"/><circle cx="176.7" cy="232.0" r="3" fill="#4e79a7"/><circle cx="189.1" cy="232.0" r="3" fill="#4e79a7"/><circle cx="201.6" cy="232.0" r="3" fill="#4e79a7"/><circle cx="214.1" cy="172.3" r="3" fill="#4e79a7"/><circle cx="226.5" cy="28.0" r="3" fill="#4e79a7"/><circle cx="239.0" cy="75.7" r="3" fill="#4e79a7"/><circle cx="251.5" cy="187.5" r="3" fill="#4e79a7"/><circle cx="263.9" cy="176.1" r="3" fill="#4e79a7"/><circle cx="276.4" cy="60.4" r="3" fill="#4e79a7"/><circle cx="288.9" cy="62.3" r="3" fill="#4e79a7"/><circle cx="301.3" cy="190.7" r="3" fill="#4e79a7"/><circle cx="313.8" cy="135.4" r="3" fill="#4e79a7"/><circle cx="326.3" cy="209.8" r="3" fill="#4e79a7"/><circle cx="338.7" cy="220.6" r="3" fill="#4e79a7"/><circle cx="351.2" cy="230.7" r="3" fill="#4e79a7"/><circle cx="363.7" cy="232.0" r="3" fill="#4e79a7"/><circle cx="376.1" cy="231.4" r="3" fill="#4e79a7"/><circle cx="388.6" cy="228.8" r="3" fill="#4e79a7"/><circle cx="401.1" cy="232.0" r="3" fill="#4e79a7"/><circle cx="413.5" cy="232.0" r="3" fill="#4e79a7"/><circle cx="426.0" cy="232.0" r="3" fill="#4e79a7"/><circle cx="438.5" cy="203.4" r="3" fill="#4e79a7"/><circle cx="450.9" cy="232.0" r="3" fill="#4e79a7"/><circle cx="463.4" cy="203.4" r="3" fill="#4e79a7"/><circle cx="475.9" cy="221.8" r="3" fill="#4e79a7"/><circle cx="488.3" cy="172.9" r="3" fill="#4e79a7"/><circle cx="500.8" cy="228.2" r="3" fill="#4e79a7"/><circle cx="513.3" cy="232.0" r="3" fill="#4e79a7"/><circle cx="525.7" cy="230.1" r="3" fill="#4e79a7"/><circle cx="538.2" cy="231.4" r="3" fill="#4e79a7"/><circle cx="550.7" cy="232.0" r="3" fill="#4e79a7"/><circle cx="563.1" cy="230.7" r="3" fill="#4e79a7"/><circle cx="575.6" cy="232.0" r="3" fill="#4e79a7"/><circle cx="588.1" cy="231.4" r="3" fill="#4e79a7"/><circle cx="600.5" cy="231.4" r="3" fill="#4e79a7"/><circle cx="613.0" cy="231.4" r="3" fill="#4e79a7"/><circle cx="625.5" cy="232.0" r="3" fill="#4e79a7"/><circle cx="637.9" cy="231.4" r="3" fill="#4e79a7"/><circle cx="650.4" cy="231.4" r="3" fill="#4e79a7"/><circle cx="662.9" cy="232.0" r="3" fill="#4e79a7"/><circle cx="675.3" cy="232.0" r="3" fill="#4e79a7"/><circle cx="687.8" cy="231.4" r="3" fill="#4e79a7"/><circle cx="700.3" cy="232.0" r="3" fill="#4e79a7"/><circle cx="712.7" cy="232.0" r="3" fill="#4e79a7"/><circle cx="725.2" cy="226.9" r="3" fill="#4e79a7"/><circle cx="737.7" cy="232.0" r="3" fill="#4e79a7"/><circle cx="750.1" cy="231.4" r="3" fill="#4e79a7"/><circle cx="762.6" cy="232.0" r="3" fill="#4e79a7"/><circle cx="775.1" cy="232.0" r="3" fill="#4e79a7"/><circle cx="787.5" cy="231.4" r="3" fill="#4e79a7"/><circle cx="800.0" cy="231.4" r="3" fill="#4e79a7"/>
  <circle cx="52.0" cy="232.0" r="3" fill="#f28e2b"/><circle cx="64.5" cy="232.0" r="3" fill="#f28e2b"/><circle cx="76.9" cy="232.0" r="3" fill="#f28e2b"/><circle cx="89.4" cy="232.0" r="3" fill="#f28e2b"/><circle cx="101.9" cy="232.0" r="3" fill="#f28e2b"/><circle cx="114.3" cy="232.0" r="3" fill="#f28e2b"/><circle cx="126.8" cy="232.0" r="3" fill="#f28e2b"/><circle cx="139.3" cy="232.0" r="3" fill="#f28e2b"/><circle cx="151.7" cy="232.0" r="3" fill="#f28e2b"/><circle cx="164.2" cy="232.0" r="3" fill="#f28e2b"/><circle cx="176.7" cy="232.0" r="3" fill="#f28e2b"/><circle cx="189.1" cy="232.0" r="3" fill="#f28e2b"/><circle cx="201.6" cy="232.0" r="3" fill="#f28e2b"/><circle cx="214.1" cy="217.4" r="3" fill="#f28e2b"/><circle cx="226.5" cy="151.3" r="3" fill="#f28e2b"/><circle cx="239.0" cy="185.0" r="3" fill="#f28e2b"/><circle cx="251.5" cy="221.8" r="3" fill="#f28e2b"/><circle cx="263.9" cy="209.1" r="3" fill="#f28e2b"/><circle cx="276.4" cy="175.4" r="3" fill="#f28e2b"/><circle cx="288.9" cy="182.4" r="3" fill="#f28e2b"/><circle cx="301.3" cy="209.1" r="3" fill="#f28e2b"/><circle cx="313.8" cy="189.4" r="3" fill="#f28e2b"/><circle cx="326.3" cy="225.6" r="3" fill="#f28e2b"/><circle cx="338.7" cy="228.2" r="3" fill="#f28e2b"/><circle cx="351.2" cy="231.4" r="3" fill="#f28e2b"/><circle cx="363.7" cy="232.0" r="3" fill="#f28e2b"/><circle cx="376.1" cy="231.4" r="3" fill="#f28e2b"/><circle cx="388.6" cy="230.1" r="3" fill="#f28e2b"/><circle cx="401.1" cy="232.0" r="3" fill="#f28e2b"/><circle cx="413.5" cy="232.0" r="3" fill="#f28e2b"/><circle cx="426.0" cy="232.0" r="3" fill="#f28e2b"/><circle cx="438.5" cy="227.6" r="3" fill="#f28e2b"/><circle cx="450.9" cy="232.0" r="3" fill="#f28e2b"/><circle cx="463.4" cy="226.9" r="3" fill="#f28e2b"/><circle cx="475.9" cy="229.5" r="3" fill="#f28e2b"/><circle cx="488.3" cy="211.7" r="3" fill="#f28e2b"/><circle cx="500.8" cy="228.2" r="3" fill="#f28e2b"/><circle cx="513.3" cy="232.0" r="3" fill="#f28e2b"/><circle cx="525.7" cy="230.1" r="3" fill="#f28e2b"/><circle cx="538.2" cy="231.4" r="3" fill="#f28e2b"/><circle cx="550.7" cy="232.0" r="3" fill="#f28e2b"/><circle cx="563.1" cy="230.7" r="3" fill="#f28e2b"/><circle cx="575.6" cy="232.0" r="3" fill="#f28e2b"/><circle cx="588.1" cy="231.4" r="3" fill="#f28e2b"/><circle cx="600.5" cy="231.4" r="3" fill="#f28e2b"/><circle cx="613.0" cy="231.4" r="3" fill="#f28e2b"/><circle cx="625.5" cy="232.0" r="3" fill="#f28e2b"/><circle cx="637.9" cy="231.4" r="3" fill="#f28e2b"/><circle cx="650.4" cy="231.4" r="3" fill="#f28e2b"/><circle cx="662.9" cy="232.0" r="3" fill="#f28e2b"/><circle cx="675.3" cy="232.0" r="3" fill="#f28e2b"/><circle cx="687.8" cy="231.4" r="3" fill="#f28e2b"/><circle cx="700.3" cy="232.0" r="3" fill="#f28e2b"/><circle cx="712.7" cy="232.0" r="3" fill="#f28e2b"/><circle cx="725.2" cy="231.4" r="3" fill="#f28e2b"/><circle cx="737.7" cy="232.0" r="3" fill="#f28e2b"/><circle cx="750.1" cy="231.4" r="3" fill="#f28e2b"/><circle cx="762.6" cy="232.0" r="3" fill="#f28e2b"/><circle cx="775.1" cy="232.0" r="3" fill="#f28e2b"/><circle cx="787.5" cy="231.4" r="3" fill="#f28e2b"/><circle cx="800.0" cy="231.4" r="3" fill="#f28e2b"/>

  <!-- axes -->
  <line x1="52" y1="28" x2="52" y2="232"
        stroke="#cccccc" stroke-width="1"/>
  <line x1="52" y1="232" x2="800" y2="232"
        stroke="#cccccc" stroke-width="1"/>

  <!-- y-axis labels -->
  <text x="47" y="236.0" text-anchor="end" font-size="10" fill="#57606a" font-family="ui-monospace, SFMono-Regular, 'SF Mono', Menlo, monospace">0</text><text x="47" y="197.9" text-anchor="end" font-size="10" fill="#57606a" font-family="ui-monospace, SFMono-Regular, 'SF Mono', Menlo, monospace">60</text><text x="47" y="159.7" text-anchor="end" font-size="10" fill="#57606a" font-family="ui-monospace, SFMono-Regular, 'SF Mono', Menlo, monospace">120</text><text x="47" y="121.6" text-anchor="end" font-size="10" fill="#57606a" font-family="ui-monospace, SFMono-Regular, 'SF Mono', Menlo, monospace">180</text><text x="47" y="83.5" text-anchor="end" font-size="10" fill="#57606a" font-family="ui-monospace, SFMono-Regular, 'SF Mono', Menlo, monospace">240</text><text x="47" y="45.3" text-anchor="end" font-size="10" fill="#57606a" font-family="ui-monospace, SFMono-Regular, 'SF Mono', Menlo, monospace">300</text><text x="47" y="7.2" text-anchor="end" font-size="10" fill="#57606a" font-family="ui-monospace, SFMono-Regular, 'SF Mono', Menlo, monospace">360</text>

  <!-- x-axis labels -->
  <text x="52.0" y="248" text-anchor="middle" font-size="10" fill="#8c959f" font-family="ui-monospace, SFMono-Regular, 'SF Mono', Menlo, monospace">05-14</text><text x="488.3" y="248" text-anchor="middle" font-size="10" fill="#8c959f" font-family="ui-monospace, SFMono-Regular, 'SF Mono', Menlo, monospace">06-18</text><text x="139.3" y="248" text-anchor="middle" font-size="10" fill="#8c959f" font-family="ui-monospace, SFMono-Regular, 'SF Mono', Menlo, monospace">05-21</text><text x="575.6" y="248" text-anchor="middle" font-size="10" fill="#8c959f" font-family="ui-monospace, SFMono-Regular, 'SF Mono', Menlo, monospace">06-25</text><text x="226.5" y="248" text-anchor="middle" font-size="10" fill="#8c959f" font-family="ui-monospace, SFMono-Regular, 'SF Mono', Menlo, monospace">05-28</text><text x="800.0" y="248" text-anchor="middle" font-size="10" fill="#8c959f" font-family="ui-monospace, SFMono-Regular, 'SF Mono', Menlo, monospace">07-13</text><text x="662.9" y="248" text-anchor="middle" font-size="10" fill="#8c959f" font-family="ui-monospace, SFMono-Regular, 'SF Mono', Menlo, monospace">07-02</text><text x="313.8" y="248" text-anchor="middle" font-size="10" fill="#8c959f" font-family="ui-monospace, SFMono-Regular, 'SF Mono', Menlo, monospace">06-04</text><text x="750.1" y="248" text-anchor="middle" font-size="10" fill="#8c959f" font-family="ui-monospace, SFMono-Regular, 'SF Mono', Menlo, monospace">07-09</text><text x="401.1" y="248" text-anchor="middle" font-size="10" fill="#8c959f" font-family="ui-monospace, SFMono-Regular, 'SF Mono', Menlo, monospace">06-11</text>

  <!-- legend -->
  <rect x="60" y="262" width="16" height="3" fill="#4e79a7" rx="1"/><text x="80" y="268" font-size="11" fill="#57606a" font-family="-apple-system, BlinkMacSystemFont, 'Segoe UI', sans-serif">Total clones (1,862)</text><line x1="230" y1="264" x2="246" y2="264" stroke="#f28e2b" stroke-width="2" stroke-dasharray="5,3"/><text x="250" y="268" font-size="11" fill="#57606a" font-family="-apple-system, BlinkMacSystemFont, 'Segoe UI', sans-serif">Unique cloners</text>

</svg>