<svg xmlns="http://www.w3.org/2000/svg" viewBox="0 0 820 280" width="820" height="280">

  <!-- title -->
  <text x="52" y="18" font-size="13" font-weight="600"
        fill="#24292f" font-family="-apple-system, BlinkMacSystemFont, 'Segoe UI', sans-serif"
        >Clone traffic — vellum</text>
  <text x="800" y="18" font-size="10" fill="#8c959f"
        font-family="ui-monospace, SFMono-Regular, 'SF Mono', Menlo, monospace" text-anchor="end">2026-07-10</text>

  <!-- grid -->
  <line x1="52" y1="232.0" x2="800" y2="232.0" stroke="#e8e8e8" stroke-width="1"/><line x1="52" y1="193.9" x2="800" y2="193.9" stroke="#e8e8e8" stroke-width="1"/><line x1="52" y1="155.7" x2="800" y2="155.7" stroke="#e8e8e8" stroke-width="1"/><line x1="52" y1="117.6" x2="800" y2="117.6" stroke="#e8e8e8" stroke-width="1"/><line x1="52" y1="79.5" x2="800" y2="79.5" stroke="#e8e8e8" stroke-width="1"/><line x1="52" y1="41.3" x2="800" y2="41.3" stroke="#e8e8e8" stroke-width="1"/><line x1="52" y1="3.2" x2="800" y2="3.2" stroke="#e8e8e8" stroke-width="1"/>

  <!-- area fill -->
  <path d="M52.0,232.0 L52.0,232.0 L65.4,232.0 L78.7,232.0 L92.1,232.0 L105.4,232.0 L118.8,232.0 L132.1,232.0 L145.5,232.0 L158.9,232.0 L172.2,232.0 L185.6,232.0 L198.9,232.0 L212.3,232.0 L225.6,172.3 L239.0,28.0 L252.4,75.7 L265.7,187.5 L279.1,176.1 L292.4,60.4 L305.8,62.3 L319.1,190.7 L332.5,135.4 L345.9,209.8 L359.2,220.6 L372.6,230.7 L385.9,232.0 L399.3,231.4 L412.6,228.8 L426.0,232.0 L439.4,232.0 L452.7,232.0 L466.1,203.4 L479.4,232.0 L492.8,203.4 L506.1,221.8 L519.5,172.9 L532.9,228.2 L546.2,232.0 L559.6,230.1 L572.9,231.4 L586.3,232.0 L599.6,230.7 L613.0,232.0 L626.4,231.4 L639.7,231.4 L653.1,231.4 L666.4,232.0 L679.8,231.4 L693.1,231.4 L706.5,232.0 L719.9,232.0 L733.2,231.4 L746.6,232.0 L759.9,232.0 L773.3,226.9 L786.6,232.0 L800.0,231.4 L800.0,232.0 L52.0,232.0Z" fill="#4e79a7" opacity="0.12"/>

  <!-- lines -->
  <polyline points="52.0,232.0 65.4,232.0 78.7,232.0 92.1,232.0 105.4,232.0 118.8,232.0 132.1,232.0 145.5,232.0 158.9,232.0 172.2,232.0 185.6,232.0 198.9,232.0 212.3,232.0 225.6,172.3 239.0,28.0 252.4,75.7 265.7,187.5 279.1,176.1 292.4,60.4 305.8,62.3 319.1,190.7 332.5,135.4 345.9,209.8 359.2,220.6 372.6,230.7 385.9,232.0 399.3,231.4 412.6,228.8 426.0,232.0 439.4,232.0 452.7,232.0 466.1,203.4 479.4,232.0 492.8,203.4 506.1,221.8 519.5,172.9 532.9,228.2 546.2,232.0 559.6,230.1 572.9,231.4 586.3,232.0 599.6,230.7 613.0,232.0 626.4,231.4 639.7,231.4 653.1,231.4 666.4,232.0 679.8,231.4 693.1,231.4 706.5,232.0 719.9,232.0 733.2,231.4 746.6,232.0 759.9,232.0 773.3,226.9 786.6,232.0 800.0,231.4"
            fill="none" stroke="#4e79a7"
            stroke-width="2" stroke-linejoin="round"/>
  <polyline points="52.0,232.0 65.4,232.0 78.7,232.0 92.1,232.0 105.4,232.0 118.8,232.0 132.1,232.0 145.5,232.0 158.9,232.0 172.2,232.0 185.6,232.0 198.9,232.0 212.3,232.0 225.6,217.4 239.0,151.3 252.4,185.0 265.7,221.8 279.1,209.1 292.4,175.4 305.8,182.4 319.1,209.1 332.5,189.4 345.9,225.6 359.2,228.2 372.6,231.4 385.9,232.0 399.3,231.4 412.6,230.1 426.0,232.0 439.4,232.0 452.7,232.0 466.1,227.6 479.4,232.0 492.8,226.9 506.1,229.5 519.5,211.7 532.9,228.2 546.2,232.0 559.6,230.1 572.9,231.4 586.3,232.0 599.6,230.7 613.0,232.0 626.4,231.4 639.7,231.4 653.1,231.4 666.4,232.0 679.8,231.4 693.1,231.4 706.5,232.0 719.9,232.0 733.2,231.4 746.6,232.0 759.9,232.0 773.3,231.4 786.6,232.0 800.0,231.4"
            fill="none" stroke="#f28e2b"
            stroke-width="2" stroke-linejoin="round"
            stroke-dasharray="5,3"/>

  <!-- dots -->
  <circle cx="52.0" cy="232.0" r="3" fill="#4e79a7"/><circle cx="65.4" cy="232.0" r="3" fill="#4e79a7"/><circle cx="78.7" cy="232.0" r="3" fill="#4e79a7"/><circle cx="92.1" cy="232.0" r="3" fill="#4e79a7"/><circle cx="105.4" cy="232.0" r="3" fill="#4e79a7"/><circle cx="118.8" cy="232.0" r="3" fill="#4e79a7"/><circle cx="132.1" cy="232.0" r="3" fill="#4e79a7"/><circle cx="145.5" cy="232.0" r="3" fill="#4e79a7"/><circle cx="158.9" cy="232.0" r="3" fill="#4e79a7"/><circle cx="172.2" cy="232.0" r="3" fill="#4e79a7"/><circle cx="185.6" cy="232.0" r="3" fill="#4e79a7"/><circle cx="198.9" cy="232.0" r="3" fill="#4e79a7"/><circle cx="212.3" cy="232.0" r="3" fill="#4e79a7"/><circle cx="225.6" cy="172.3" r="3" fill="#4e79a7"/><circle cx="239.0" cy="28.0" r="3" fill="#4e79a7"/><circle cx="252.4" cy="75.7" r="3" fill="#4e79a7"/><circle cx="265.7" cy="187.5" r="3" fill="#4e79a7"/><circle cx="279.1" cy="176.1" r="3" fill="#4e79a7"/><circle cx="292.4" cy="60.4" r="3" fill="#4e79a7"/><circle cx="305.8" cy="62.3" r="3" fill="#4e79a7"/><circle cx="319.1" cy="190.7" r="3" fill="#4e79a7"/><circle cx="332.5" cy="135.4" r="3" fill="#4e79a7"/><circle cx="345.9" cy="209.8" r="3" fill="#4e79a7"/><circle cx="359.2" cy="220.6" r="3" fill="#4e79a7"/><circle cx="372.6" cy="230.7" r="3" fill="#4e79a7"/><circle cx="385.9" cy="232.0" r="3" fill="#4e79a7"/><circle cx="399.3" cy="231.4" r="3" fill="#4e79a7"/><circle cx="412.6" cy="228.8" r="3" fill="#4e79a7"/><circle cx="426.0" cy="232.0" r="3" fill="#4e79a7"/><circle cx="439.4" cy="232.0" r="3" fill="#4e79a7"/><circle cx="452.7" cy="232.0" r="3" fill="#4e79a7"/><circle cx="466.1" cy="203.4" r="3" fill="#4e79a7"/><circle cx="479.4" cy="232.0" r="3" fill="#4e79a7"/><circle cx="492.8" cy="203.4" r="3" fill="#4e79a7"/><circle cx="506.1" cy="221.8" r="3" fill="#4e79a7"/><circle cx="519.5" cy="172.9" r="3" fill="#4e79a7"/><circle cx="532.9" cy="228.2" r="3" fill="#4e79a7"/><circle cx="546.2" cy="232.0" r="3" fill="#4e79a7"/><circle cx="559.6" cy="230.1" r="3" fill="#4e79a7"/><circle cx="572.9" cy="231.4" r="3" fill="#4e79a7"/><circle cx="586.3" cy="232.0" r="3" fill="#4e79a7"/><circle cx="599.6" cy="230.7" r="3" fill="#4e79a7"/><circle cx="613.0" cy="232.0" r="3" fill="#4e79a7"/><circle cx="626.4" cy="231.4" r="3" fill="#4e79a7"/><circle cx="639.7" cy="231.4" r="3" fill="#4e79a7"/><circle cx="653.1" cy="231.4" r="3" fill="#4e79a7"/><circle cx="666.4" cy="232.0" r="3" fill="#4e79a7"/><circle cx="679.8" cy="231.4" r="3" fill="#4e79a7"/><circle cx="693.1" cy="231.4" r="3" fill="#4e79a7"/><circle cx="706.5" cy="232.0" r="3" fill="#4e79a7"/><circle cx="719.9" cy="232.0" r="3" fill="#4e79a7"/><circle cx="733.2" cy="231.4" r="3" fill="#4e79a7"/><circle cx="746.6" cy="232.0" r="3" fill="#4e79a7"/><circle cx="759.9" cy="232.0" r="3" fill="#4e79a7"/><circle cx="773.3" cy="226.9" r="3" fill="#4e79a7"/><circle cx="786.6" cy="232.0" r="3" fill="#4e79a7"/><circle cx="800.0" cy="231.4" r="3" fill="#4e79a7"/>
  <circle cx="52.0" cy="232.0" r="3" fill="#f28e2b"/><circle cx="65.4" cy="232.0" r="3" fill="#f28e2b"/><circle cx="78.7" cy="232.0" r="3" fill="#f28e2b"/><circle cx="92.1" cy="232.0" r="3" fill="#f28e2b"/><circle cx="105.4" cy="232.0" r="3" fill="#f28e2b"/><circle cx="118.8" cy="232.0" r="3" fill="#f28e2b"/><circle cx="132.1" cy="232.0" r="3" fill="#f28e2b"/><circle cx="145.5" cy="232.0" r="3" fill="#f28e2b"/><circle cx="158.9" cy="232.0" r="3" fill="#f28e2b"/><circle cx="172.2" cy="232.0" r="3" fill="#f28e2b"/><circle cx="185.6" cy="232.0" r="3" fill="#f28e2b"/><circle cx="198.9" cy="232.0" r="3" fill="#f28e2b"/><circle cx="212.3" cy="232.0" r="3" fill="#f28e2b"/><circle cx="225.6" cy="217.4" r="3" fill="#f28e2b"/><circle cx="239.0" cy="151.3" r="3" fill="#f28e2b"/><circle cx="252.4" cy="185.0" r="3" fill="#f28e2b"/><circle cx="265.7" cy="221.8" r="3" fill="#f28e2b"/><circle cx="279.1" cy="209.1" r="3" fill="#f28e2b"/><circle cx="292.4" cy="175.4" r="3" fill="#f28e2b"/><circle cx="305.8" cy="182.4" r="3" fill="#f28e2b"/><circle cx="319.1" cy="209.1" r="3" fill="#f28e2b"/><circle cx="332.5" cy="189.4" r="3" fill="#f28e2b"/><circle cx="345.9" cy="225.6" r="3" fill="#f28e2b"/><circle cx="359.2" cy="228.2" r="3" fill="#f28e2b"/><circle cx="372.6" cy="231.4" r="3" fill="#f28e2b"/><circle cx="385.9" cy="232.0" r="3" fill="#f28e2b"/><circle cx="399.3" cy="231.4" r="3" fill="#f28e2b"/><circle cx="412.6" cy="230.1" r="3" fill="#f28e2b"/><circle cx="426.0" cy="232.0" r="3" fill="#f28e2b"/><circle cx="439.4" cy="232.0" r="3" fill="#f28e2b"/><circle cx="452.7" cy="232.0" r="3" fill="#f28e2b"/><circle cx="466.1" cy="227.6" r="3" fill="#f28e2b"/><circle cx="479.4" cy="232.0" r="3" fill="#f28e2b"/><circle cx="492.8" cy="226.9" r="3" fill="#f28e2b"/><circle cx="506.1" cy="229.5" r="3" fill="#f28e2b"/><circle cx="519.5" cy="211.7" r="3" fill="#f28e2b"/><circle cx="532.9" cy="228.2" r="3" fill="#f28e2b"/><circle cx="546.2" cy="232.0" r="3" fill="#f28e2b"/><circle cx="559.6" cy="230.1" r="3" fill="#f28e2b"/><circle cx="572.9" cy="231.4" r="3" fill="#f28e2b"/><circle cx="586.3" cy="232.0" r="3" fill="#f28e2b"/><circle cx="599.6" cy="230.7" r="3" fill="#f28e2b"/><circle cx="613.0" cy="232.0" r="3" fill="#f28e2b"/><circle cx="626.4" cy="231.4" r="3" fill="#f28e2b"/><circle cx="639.7" cy="231.4" r="3" fill="#f28e2b"/><circle cx="653.1" cy="231.4" r="3" fill="#f28e2b"/><circle cx="666.4" cy="232.0" r="3" fill="#f28e2b"/><circle cx="679.8" cy="231.4" r="3" fill="#f28e2b"/><circle cx="693.1" cy="231.4" r="3" fill="#f28e2b"/><circle cx="706.5" cy="232.0" r="3" fill="#f28e2b"/><circle cx="719.9" cy="232.0" r="3" fill="#f28e2b"/><circle cx="733.2" cy="231.4" r="3" fill="#f28e2b"/><circle cx="746.6" cy="232.0" r="3" fill="#f28e2b"/><circle cx="759.9" cy="232.0" r="3" fill="#f28e2b"/><circle cx="773.3" cy="231.4" r="3" fill="#f28e2b"/><circle cx="786.6" cy="232.0" r="3" fill="#f28e2b"/><circle cx="800.0" cy="231.4" r="3" fill="#f28e2b"/>

  <!-- axes -->
  <line x1="52" y1="28" x2="52" y2="232"
        stroke="#cccccc" stroke-width="1"/>
  <line x1="52" y1="232" x2="800" y2="232"
        stroke="#cccccc" stroke-width="1"/>

  <!-- y-axis labels -->
  <text x="47" y="236.0" text-anchor="end" font-size="10" fill="#57606a" font-family="ui-monospace, SFMono-Regular, 'SF Mono', Menlo, monospace">0</text><text x="47" y="197.9" text-anchor="end" font-size="10" fill="#57606a" font-family="ui-monospace, SFMono-Regular, 'SF Mono', Menlo, monospace">60</text><text x="47" y="159.7" text-anchor="end" font-size="10" fill="#57606a" font-family="ui-monospace, SFMono-Regular, 'SF Mono', Menlo, monospace">120</text><text x="47" y="121.6" text-anchor="end" font-size="10" fill="#57606a" font-family="ui-monospace, SFMono-Regular, 'SF Mono', Menlo, monospace">180</text><text x="47" y="83.5" text-anchor="end" font-size="10" fill="#57606a" font-family="ui-monospace, SFMono-Regular, 'SF Mono', Menlo, monospace">240</text><text x="47" y="45.3" text-anchor="end" font-size="10" fill="#57606a" font-family="ui-monospace, SFMono-Regular, 'SF Mono', Menlo, monospace">300</text><text x="47" y="7.2" text-anchor="end" font-size="10" fill="#57606a" font-family="ui-monospace, SFMono-Regular, 'SF Mono', Menlo, monospace">360</text>

  <!-- x-axis labels -->
  <text x="52.0" y="248" text-anchor="middle" font-size="10" fill="#8c959f" font-family="ui-monospace, SFMono-Regular, 'SF Mono', Menlo, monospace">05-14</text><text x="519.5" y="248" text-anchor="middle" font-size="10" fill="#8c959f" font-family="ui-monospace, SFMono-Regular, 'SF Mono', Menlo, monospace">06-18</text><text x="145.5" y="248" text-anchor="middle" font-size="10" fill="#8c959f" font-family="ui-monospace, SFMono-Regular, 'SF Mono', Menlo, monospace">05-21</text><text x="613.0" y="248" text-anchor="middle" font-size="10" fill="#8c959f" font-family="ui-monospace, SFMono-Regular, 'SF Mono', Menlo, monospace">06-25</text><text x="239.0" y="248" text-anchor="middle" font-size="10" fill="#8c959f" font-family="ui-monospace, SFMono-Regular, 'SF Mono', Menlo, monospace">05-28</text><text x="706.5" y="248" text-anchor="middle" font-size="10" fill="#8c959f" font-family="ui-monospace, SFMono-Regular, 'SF Mono', Menlo, monospace">07-02</text><text x="332.5" y="248" text-anchor="middle" font-size="10" fill="#8c959f" font-family="ui-monospace, SFMono-Regular, 'SF Mono', Menlo, monospace">06-04</text><text x="800.0" y="248" text-anchor="middle" font-size="10" fill="#8c959f" font-family="ui-monospace, SFMono-Regular, 'SF Mono', Menlo, monospace">07-09</text><text x="426.0" y="248" text-anchor="middle" font-size="10" fill="#8c959f" font-family="ui-monospace, SFMono-Regular, 'SF Mono', Menlo, monospace">06-11</text>

  <!-- legend -->
  <rect x="60" y="262" width="16" height="3" fill="#4e79a7" rx="1"/><text x="80" y="268" font-size="11" fill="#57606a" font-family="-apple-system, BlinkMacSystemFont, 'Segoe UI', sans-serif">Total clones (1,860)</text><line x1="230" y1="264" x2="246" y2="264" stroke="#f28e2b" stroke-width="2" stroke-dasharray="5,3"/><text x="250" y="268" font-size="11" fill="#57606a" font-family="-apple-system, BlinkMacSystemFont, 'Segoe UI', sans-serif">Unique cloners</text>

</svg>