<svg xmlns="http://www.w3.org/2000/svg" viewBox="0 0 820 280" width="820" height="280">

  <!-- title -->
  <text x="52" y="18" font-size="13" font-weight="600"
        fill="#24292f" font-family="-apple-system, BlinkMacSystemFont, 'Segoe UI', sans-serif"
        >Clone traffic — vellum</text>
  <text x="800" y="18" font-size="10" fill="#8c959f"
        font-family="ui-monospace, SFMono-Regular, 'SF Mono', Menlo, monospace" text-anchor="end">2026-07-17</text>

  <!-- grid -->
  <line x1="52" y1="232.0" x2="800" y2="232.0" stroke="#e8e8e8" stroke-width="1"/><line x1="52" y1="193.9" x2="800" y2="193.9" stroke="#e8e8e8" stroke-width="1"/><line x1="52" y1="155.7" x2="800" y2="155.7" stroke="#e8e8e8" stroke-width="1"/><line x1="52" y1="117.6" x2="800" y2="117.6" stroke="#e8e8e8" stroke-width="1"/><line x1="52" y1="79.5" x2="800" y2="79.5" stroke="#e8e8e8" stroke-width="1"/><line x1="52" y1="41.3" x2="800" y2="41.3" stroke="#e8e8e8" stroke-width="1"/><line x1="52" y1="3.2" x2="800" y2="3.2" stroke="#e8e8e8" stroke-width="1"/>

  <!-- area fill -->
  <path d="M52.0,232.0 L52.0,232.0 L63.9,232.0 L75.7,232.0 L87.6,232.0 L99.5,232.0 L111.4,232.0 L123.2,232.0 L135.1,232.0 L147.0,232.0 L158.9,232.0 L170.7,232.0 L182.6,232.0 L194.5,232.0 L206.3,172.3 L218.2,28.0 L230.1,75.7 L242.0,187.5 L253.8,176.1 L265.7,60.4 L277.6,62.3 L289.5,190.7 L301.3,135.4 L313.2,209.8 L325.1,220.6 L337.0,230.7 L348.8,232.0 L360.7,231.4 L372.6,228.8 L384.4,232.0 L396.3,232.0 L408.2,232.0 L420.1,203.4 L431.9,232.0 L443.8,203.4 L455.7,221.8 L467.6,172.9 L479.4,228.2 L491.3,232.0 L503.2,230.1 L515.0,231.4 L526.9,232.0 L538.8,230.7 L550.7,232.0 L562.5,231.4 L574.4,231.4 L586.3,231.4 L598.2,232.0 L610.0,231.4 L621.9,231.4 L633.8,232.0 L645.7,232.0 L657.5,231.4 L669.4,232.0 L681.3,232.0 L693.1,226.9 L705.0,232.0 L716.9,231.4 L728.8,232.0 L740.6,232.0 L752.5,231.4 L764.4,231.4 L776.3,232.0 L788.1,232.0 L800.0,232.0 L800.0,232.0 L52.0,232.0Z" fill="#4e79a7" opacity="0.12"/>

  <!-- lines -->
  <polyline points="52.0,232.0 63.9,232.0 75.7,232.0 87.6,232.0 99.5,232.0 111.4,232.0 123.2,232.0 135.1,232.0 147.0,232.0 158.9,232.0 170.7,232.0 182.6,232.0 194.5,232.0 206.3,172.3 218.2,28.0 230.1,75.7 242.0,187.5 253.8,176.1 265.7,60.4 277.6,62.3 289.5,190.7 301.3,135.4 313.2,209.8 325.1,220.6 337.0,230.7 348.8,232.0 360.7,231.4 372.6,228.8 384.4,232.0 396.3,232.0 408.2,232.0 420.1,203.4 431.9,232.0 443.8,203.4 455.7,221.8 467.6,172.9 479.4,228.2 491.3,232.0 503.2,230.1 515.0,231.4 526.9,232.0 538.8,230.7 550.7,232.0 562.5,231.4 574.4,231.4 586.3,231.4 598.2,232.0 610.0,231.4 621.9,231.4 633.8,232.0 645.7,232.0 657.5,231.4 669.4,232.0 681.3,232.0 693.1,226.9 705.0,232.0 716.9,231.4 728.8,232.0 740.6,232.0 752.5,231.4 764.4,231.4 776.3,232.0 788.1,232.0 800.0,232.0"
            fill="none" stroke="#4e79a7"
            stroke-width="2" stroke-linejoin="round"/>
  <polyline points="52.0,232.0 63.9,232.0 75.7,232.0 87.6,232.0 99.5,232.0 111.4,232.0 123.2,232.0 135.1,232.0 147.0,232.0 158.9,232.0 170.7,232.0 182.6,232.0 194.5,232.0 206.3,217.4 218.2,151.3 230.1,185.0 242.0,221.8 253.8,209.1 265.7,175.4 277.6,182.4 289.5,209.1 301.3,189.4 313.2,225.6 325.1,228.2 337.0,231.4 348.8,232.0 360.7,231.4 372.6,230.1 384.4,232.0 396.3,232.0 408.2,232.0 420.1,227.6 431.9,232.0 443.8,226.9 455.7,229.5 467.6,211.7 479.4,228.2 491.3,232.0 503.2,230.1 515.0,231.4 526.9,232.0 538.8,230.7 550.7,232.0 562.5,231.4 574.4,231.4 586.3,231.4 598.2,232.0 610.0,231.4 621.9,231.4 633.8,232.0 645.7,232.0 657.5,231.4 669.4,232.0 681.3,232.0 693.1,231.4 705.0,232.0 716.9,231.4 728.8,232.0 740.6,232.0 752.5,231.4 764.4,231.4 776.3,232.0 788.1,232.0 800.0,232.0"
            fill="none" stroke="#f28e2b"
            stroke-width="2" stroke-linejoin="round"
            stroke-dasharray="5,3"/>

  <!-- dots -->
  <circle cx="52.0" cy="232.0" r="3" fill="#4e79a7"/><circle cx="63.9" cy="232.0" r="3" fill="#4e79a7"/><circle cx="75.7" cy="232.0" r="3" fill="#4e79a7"/><circle cx="87.6" cy="232.0" r="3" fill="#4e79a7"/><circle cx="99.5" cy="232.0" r="3" fill="#4e79a7"/><circle cx="111.4" cy="232.0" r="3" fill="#4e79a7"/><circle cx="123.2" cy="232.0" r="3" fill="#4e79a7"/><circle cx="135.1" cy="232.0" r="3" fill="#4e79a7"/><circle cx="147.0" cy="232.0" r="3" fill="#4e79a7"/><circle cx="158.9" cy="232.0" r="3" fill="#4e79a7"/><circle cx="170.7" cy="232.0" r="3" fill="#4e79a7"/><circle cx="182.6" cy="232.0" r="3" fill="#4e79a7"/><circle cx="194.5" cy="232.0" r="3" fill="#4e79a7"/><circle cx="206.3" cy="172.3" r="3" fill="#4e79a7"/><circle cx="218.2" cy="28.0" r="3" fill="#4e79a7"/><circle cx="230.1" cy="75.7" r="3" fill="#4e79a7"/><circle cx="242.0" cy="187.5" r="3" fill="#4e79a7"/><circle cx="253.8" cy="176.1" r="3" fill="#4e79a7"/><circle cx="265.7" cy="60.4" r="3" fill="#4e79a7"/><circle cx="277.6" cy="62.3" r="3" fill="#4e79a7"/><circle cx="289.5" cy="190.7" r="3" fill="#4e79a7"/><circle cx="301.3" cy="135.4" r="3" fill="#4e79a7"/><circle cx="313.2" cy="209.8" r="3" fill="#4e79a7"/><circle cx="325.1" cy="220.6" r="3" fill="#4e79a7"/><circle cx="337.0" cy="230.7" r="3" fill="#4e79a7"/><circle cx="348.8" cy="232.0" r="3" fill="#4e79a7"/><circle cx="360.7" cy="231.4" r="3" fill="#4e79a7"/><circle cx="372.6" cy="228.8" r="3" fill="#4e79a7"/><circle cx="384.4" cy="232.0" r="3" fill="#4e79a7"/><circle cx="396.3" cy="232.0" r="3" fill="#4e79a7"/><circle cx="408.2" cy="232.0" r="3" fill="#4e79a7"/><circle cx="420.1" cy="203.4" r="3" fill="#4e79a7"/><circle cx="431.9" cy="232.0" r="3" fill="#4e79a7"/><circle cx="443.8" cy="203.4" r="3" fill="#4e79a7"/><circle cx="455.7" cy="221.8" r="3" fill="#4e79a7"/><circle cx="467.6" cy="172.9" r="3" fill="#4e79a7"/><circle cx="479.4" cy="228.2" r="3" fill="#4e79a7"/><circle cx="491.3" cy="232.0" r="3" fill="#4e79a7"/><circle cx="503.2" cy="230.1" r="3" fill="#4e79a7"/><circle cx="515.0" cy="231.4" r="3" fill="#4e79a7"/><circle cx="526.9" cy="232.0" r="3" fill="#4e79a7"/><circle cx="538.8" cy="230.7" r="3" fill="#4e79a7"/><circle cx="550.7" cy="232.0" r="3" fill="#4e79a7"/><circle cx="562.5" cy="231.4" r="3" fill="#4e79a7"/><circle cx="574.4" cy="231.4" r="3" fill="#4e79a7"/><circle cx="586.3" cy="231.4" r="3" fill="#4e79a7"/><circle cx="598.2" cy="232.0" r="3" fill="#4e79a7"/><circle cx="610.0" cy="231.4" r="3" fill="#4e79a7"/><circle cx="621.9" cy="231.4" r="3" fill="#4e79a7"/><circle cx="633.8" cy="232.0" r="3" fill="#4e79a7"/><circle cx="645.7" cy="232.0" r="3" fill="#4e79a7"/><circle cx="657.5" cy="231.4" r="3" fill="#4e79a7"/><circle cx="669.4" cy="232.0" r="3" fill="#4e79a7"/><circle cx="681.3" cy="232.0" r="3" fill="#4e79a7"/><circle cx="693.1" cy="226.9" r="3" fill="#4e79a7"/><circle cx="705.0" cy="232.0" r="3" fill="#4e79a7"/><circle cx="716.9" cy="231.4" r="3" fill="#4e79a7"/><circle cx="728.8" cy="232.0" r="3" fill="#4e79a7"/><circle cx="740.6" cy="232.0" r="3" fill="#4e79a7"/><circle cx="752.5" cy="231.4" r="3" fill="#4e79a7"/><circle cx="764.4" cy="231.4" r="3" fill="#4e79a7"/><circle cx="776.3" cy="232.0" r="3" fill="#4e79a7"/><circle cx="788.1" cy="232.0" r="3" fill="#4e79a7"/><circle cx="800.0" cy="232.0" r="3" fill="#4e79a7"/>
  <circle cx="52.0" cy="232.0" r="3" fill="#f28e2b"/><circle cx="63.9" cy="232.0" r="3" fill="#f28e2b"/><circle cx="75.7" cy="232.0" r="3" fill="#f28e2b"/><circle cx="87.6" cy="232.0" r="3" fill="#f28e2b"/><circle cx="99.5" cy="232.0" r="3" fill="#f28e2b"/><circle cx="111.4" cy="232.0" r="3" fill="#f28e2b"/><circle cx="123.2" cy="232.0" r="3" fill="#f28e2b"/><circle cx="135.1" cy="232.0" r="3" fill="#f28e2b"/><circle cx="147.0" cy="232.0" r="3" fill="#f28e2b"/><circle cx="158.9" cy="232.0" r="3" fill="#f28e2b"/><circle cx="170.7" cy="232.0" r="3" fill="#f28e2b"/><circle cx="182.6" cy="232.0" r="3" fill="#f28e2b"/><circle cx="194.5" cy="232.0" r="3" fill="#f28e2b"/><circle cx="206.3" cy="217.4" r="3" fill="#f28e2b"/><circle cx="218.2" cy="151.3" r="3" fill="#f28e2b"/><circle cx="230.1" cy="185.0" r="3" fill="#f28e2b"/><circle cx="242.0" cy="221.8" r="3" fill="#f28e2b"/><circle cx="253.8" cy="209.1" r="3" fill="#f28e2b"/><circle cx="265.7" cy="175.4" r="3" fill="#f28e2b"/><circle cx="277.6" cy="182.4" r="3" fill="#f28e2b"/><circle cx="289.5" cy="209.1" r="3" fill="#f28e2b"/><circle cx="301.3" cy="189.4" r="3" fill="#f28e2b"/><circle cx="313.2" cy="225.6" r="3" fill="#f28e2b"/><circle cx="325.1" cy="228.2" r="3" fill="#f28e2b"/><circle cx="337.0" cy="231.4" r="3" fill="#f28e2b"/><circle cx="348.8" cy="232.0" r="3" fill="#f28e2b"/><circle cx="360.7" cy="231.4" r="3" fill="#f28e2b"/><circle cx="372.6" cy="230.1" r="3" fill="#f28e2b"/><circle cx="384.4" cy="232.0" r="3" fill="#f28e2b"/><circle cx="396.3" cy="232.0" r="3" fill="#f28e2b"/><circle cx="408.2" cy="232.0" r="3" fill="#f28e2b"/><circle cx="420.1" cy="227.6" r="3" fill="#f28e2b"/><circle cx="431.9" cy="232.0" r="3" fill="#f28e2b"/><circle cx="443.8" cy="226.9" r="3" fill="#f28e2b"/><circle cx="455.7" cy="229.5" r="3" fill="#f28e2b"/><circle cx="467.6" cy="211.7" r="3" fill="#f28e2b"/><circle cx="479.4" cy="228.2" r="3" fill="#f28e2b"/><circle cx="491.3" cy="232.0" r="3" fill="#f28e2b"/><circle cx="503.2" cy="230.1" r="3" fill="#f28e2b"/><circle cx="515.0" cy="231.4" r="3" fill="#f28e2b"/><circle cx="526.9" cy="232.0" r="3" fill="#f28e2b"/><circle cx="538.8" cy="230.7" r="3" fill="#f28e2b"/><circle cx="550.7" cy="232.0" r="3" fill="#f28e2b"/><circle cx="562.5" cy="231.4" r="3" fill="#f28e2b"/><circle cx="574.4" cy="231.4" r="3" fill="#f28e2b"/><circle cx="586.3" cy="231.4" r="3" fill="#f28e2b"/><circle cx="598.2" cy="232.0" r="3" fill="#f28e2b"/><circle cx="610.0" cy="231.4" r="3" fill="#f28e2b"/><circle cx="621.9" cy="231.4" r="3" fill="#f28e2b"/><circle cx="633.8" cy="232.0" r="3" fill="#f28e2b"/><circle cx="645.7" cy="232.0" r="3" fill="#f28e2b"/><circle cx="657.5" cy="231.4" r="3" fill="#f28e2b"/><circle cx="669.4" cy="232.0" r="3" fill="#f28e2b"/><circle cx="681.3" cy="232.0" r="3" fill="#f28e2b"/><circle cx="693.1" cy="231.4" r="3" fill="#f28e2b"/><circle cx="705.0" cy="232.0" r="3" fill="#f28e2b"/><circle cx="716.9" cy="231.4" r="3" fill="#f28e2b"/><circle cx="728.8" cy="232.0" r="3" fill="#f28e2b"/><circle cx="740.6" cy="232.0" r="3" fill="#f28e2b"/><circle cx="752.5" cy="231.4" r="3" fill="#f28e2b"/><circle cx="764.4" cy="231.4" r="3" fill="#f28e2b"/><circle cx="776.3" cy="232.0" r="3" fill="#f28e2b"/><circle cx="788.1" cy="232.0" r="3" fill="#f28e2b"/><circle cx="800.0" cy="232.0" r="3" fill="#f28e2b"/>

  <!-- axes -->
  <line x1="52" y1="28" x2="52" y2="232"
        stroke="#cccccc" stroke-width="1"/>
  <line x1="52" y1="232" x2="800" y2="232"
        stroke="#cccccc" stroke-width="1"/>

  <!-- y-axis labels -->
  <text x="47" y="236.0" text-anchor="end" font-size="10" fill="#57606a" font-family="ui-monospace, SFMono-Regular, 'SF Mono', Menlo, monospace">0</text><text x="47" y="197.9" text-anchor="end" font-size="10" fill="#57606a" font-family="ui-monospace, SFMono-Regular, 'SF Mono', Menlo, monospace">60</text><text x="47" y="159.7" text-anchor="end" font-size="10" fill="#57606a" font-family="ui-monospace, SFMono-Regular, 'SF Mono', Menlo, monospace">120</text><text x="47" y="121.6" text-anchor="end" font-size="10" fill="#57606a" font-family="ui-monospace, SFMono-Regular, 'SF Mono', Menlo, monospace">180</text><text x="47" y="83.5" text-anchor="end" font-size="10" fill="#57606a" font-family="ui-monospace, SFMono-Regular, 'SF Mono', Menlo, monospace">240</text><text x="47" y="45.3" text-anchor="end" font-size="10" fill="#57606a" font-family="ui-monospace, SFMono-Regular, 'SF Mono', Menlo, monospace">300</text><text x="47" y="7.2" text-anchor="end" font-size="10" fill="#57606a" font-family="ui-monospace, SFMono-Regular, 'SF Mono', Menlo, monospace">360</text>

  <!-- x-axis labels -->
  <text x="52.0" y="248" text-anchor="middle" font-size="10" fill="#8c959f" font-family="ui-monospace, SFMono-Regular, 'SF Mono', Menlo, monospace">05-14</text><text x="431.9" y="248" text-anchor="middle" font-size="10" fill="#8c959f" font-family="ui-monospace, SFMono-Regular, 'SF Mono', Menlo, monospace">06-15</text><text x="147.0" y="248" text-anchor="middle" font-size="10" fill="#8c959f" font-family="ui-monospace, SFMono-Regular, 'SF Mono', Menlo, monospace">05-22</text><text x="526.9" y="248" text-anchor="middle" font-size="10" fill="#8c959f" font-family="ui-monospace, SFMono-Regular, 'SF Mono', Menlo, monospace">06-23</text><text x="242.0" y="248" text-anchor="middle" font-size="10" fill="#8c959f" font-family="ui-monospace, SFMono-Regular, 'SF Mono', Menlo, monospace">05-30</text><text x="621.9" y="248" text-anchor="middle" font-size="10" fill="#8c959f" font-family="ui-monospace, SFMono-Regular, 'SF Mono', Menlo, monospace">07-01</text><text x="337.0" y="248" text-anchor="middle" font-size="10" fill="#8c959f" font-family="ui-monospace, SFMono-Regular, 'SF Mono', Menlo, monospace">06-07</text><text x="716.9" y="248" text-anchor="middle" font-size="10" fill="#8c959f" font-family="ui-monospace, SFMono-Regular, 'SF Mono', Menlo, monospace">07-09</text><text x="800.0" y="248" text-anchor="middle" font-size="10" fill="#8c959f" font-family="ui-monospace, SFMono-Regular, 'SF Mono', Menlo, monospace">07-16</text>

  <!-- legend -->
  <rect x="60" y="262" width="16" height="3" fill="#4e79a7" rx="1"/><text x="80" y="268" font-size="11" fill="#57606a" font-family="-apple-system, BlinkMacSystemFont, 'Segoe UI', sans-serif">Total clones (1,862)</text><line x1="230" y1="264" x2="246" y2="264" stroke="#f28e2b" stroke-width="2" stroke-dasharray="5,3"/><text x="250" y="268" font-size="11" fill="#57606a" font-family="-apple-system, BlinkMacSystemFont, 'Segoe UI', sans-serif">Unique cloners</text>

</svg>