<svg xmlns="http://www.w3.org/2000/svg" viewBox="0 0 820 280" width="820" height="280">

  <!-- title -->
  <text x="52" y="18" font-size="13" font-weight="600"
        fill="#24292f" font-family="-apple-system, BlinkMacSystemFont, 'Segoe UI', sans-serif"
        >Clone traffic — vellum</text>
  <text x="800" y="18" font-size="10" fill="#8c959f"
        font-family="ui-monospace, SFMono-Regular, 'SF Mono', Menlo, monospace" text-anchor="end">2026-07-24</text>

  <!-- grid -->
  <line x1="52" y1="232.0" x2="800" y2="232.0" stroke="#e8e8e8" stroke-width="1"/><line x1="52" y1="193.9" x2="800" y2="193.9" stroke="#e8e8e8" stroke-width="1"/><line x1="52" y1="155.7" x2="800" y2="155.7" stroke="#e8e8e8" stroke-width="1"/><line x1="52" y1="117.6" x2="800" y2="117.6" stroke="#e8e8e8" stroke-width="1"/><line x1="52" y1="79.5" x2="800" y2="79.5" stroke="#e8e8e8" stroke-width="1"/><line x1="52" y1="41.3" x2="800" y2="41.3" stroke="#e8e8e8" stroke-width="1"/><line x1="52" y1="3.2" x2="800" y2="3.2" stroke="#e8e8e8" stroke-width="1"/>

  <!-- area fill -->
  <path d="M52.0,232.0 L52.0,232.0 L62.8,232.0 L73.7,232.0 L84.5,232.0 L95.4,232.0 L106.2,232.0 L117.0,232.0 L127.9,232.0 L138.7,232.0 L149.6,232.0 L160.4,232.0 L171.2,232.0 L182.1,232.0 L192.9,172.3 L203.8,28.0 L214.6,75.7 L225.4,187.5 L236.3,176.1 L247.1,60.4 L258.0,62.3 L268.8,190.7 L279.7,135.4 L290.5,209.8 L301.3,220.6 L312.2,230.7 L323.0,232.0 L333.9,231.4 L344.7,228.8 L355.5,232.0 L366.4,232.0 L377.2,232.0 L388.1,203.4 L398.9,232.0 L409.7,203.4 L420.6,221.8 L431.4,172.9 L442.3,228.2 L453.1,232.0 L463.9,230.1 L474.8,231.4 L485.6,232.0 L496.5,230.7 L507.3,232.0 L518.1,231.4 L529.0,231.4 L539.8,231.4 L550.7,232.0 L561.5,231.4 L572.3,231.4 L583.2,232.0 L594.0,232.0 L604.9,231.4 L615.7,232.0 L626.6,232.0 L637.4,226.9 L648.2,232.0 L659.1,231.4 L669.9,232.0 L680.8,232.0 L691.6,231.4 L702.4,231.4 L713.3,232.0 L724.1,232.0 L735.0,232.0 L745.8,232.0 L756.6,232.0 L767.5,232.0 L778.3,232.0 L789.2,232.0 L800.0,232.0 L800.0,232.0 L52.0,232.0Z" fill="#4e79a7" opacity="0.12"/>

  <!-- lines -->
  <polyline points="52.0,232.0 62.8,232.0 73.7,232.0 84.5,232.0 95.4,232.0 106.2,232.0 117.0,232.0 127.9,232.0 138.7,232.0 149.6,232.0 160.4,232.0 171.2,232.0 182.1,232.0 192.9,172.3 203.8,28.0 214.6,75.7 225.4,187.5 236.3,176.1 247.1,60.4 258.0,62.3 268.8,190.7 279.7,135.4 290.5,209.8 301.3,220.6 312.2,230.7 323.0,232.0 333.9,231.4 344.7,228.8 355.5,232.0 366.4,232.0 377.2,232.0 388.1,203.4 398.9,232.0 409.7,203.4 420.6,221.8 431.4,172.9 442.3,228.2 453.1,232.0 463.9,230.1 474.8,231.4 485.6,232.0 496.5,230.7 507.3,232.0 518.1,231.4 529.0,231.4 539.8,231.4 550.7,232.0 561.5,231.4 572.3,231.4 583.2,232.0 594.0,232.0 604.9,231.4 615.7,232.0 626.6,232.0 637.4,226.9 648.2,232.0 659.1,231.4 669.9,232.0 680.8,232.0 691.6,231.4 702.4,231.4 713.3,232.0 724.1,232.0 735.0,232.0 745.8,232.0 756.6,232.0 767.5,232.0 778.3,232.0 789.2,232.0 800.0,232.0"
            fill="none" stroke="#4e79a7"
            stroke-width="2" stroke-linejoin="round"/>
  <polyline points="52.0,232.0 62.8,232.0 73.7,232.0 84.5,232.0 95.4,232.0 106.2,232.0 117.0,232.0 127.9,232.0 138.7,232.0 149.6,232.0 160.4,232.0 171.2,232.0 182.1,232.0 192.9,217.4 203.8,151.3 214.6,185.0 225.4,221.8 236.3,209.1 247.1,175.4 258.0,182.4 268.8,209.1 279.7,189.4 290.5,225.6 301.3,228.2 312.2,231.4 323.0,232.0 333.9,231.4 344.7,230.1 355.5,232.0 366.4,232.0 377.2,232.0 388.1,227.6 398.9,232.0 409.7,226.9 420.6,229.5 431.4,211.7 442.3,228.2 453.1,232.0 463.9,230.1 474.8,231.4 485.6,232.0 496.5,230.7 507.3,232.0 518.1,231.4 529.0,231.4 539.8,231.4 550.7,232.0 561.5,231.4 572.3,231.4 583.2,232.0 594.0,232.0 604.9,231.4 615.7,232.0 626.6,232.0 637.4,231.4 648.2,232.0 659.1,231.4 669.9,232.0 680.8,232.0 691.6,231.4 702.4,231.4 713.3,232.0 724.1,232.0 735.0,232.0 745.8,232.0 756.6,232.0 767.5,232.0 778.3,232.0 789.2,232.0 800.0,232.0"
            fill="none" stroke="#f28e2b"
            stroke-width="2" stroke-linejoin="round"
            stroke-dasharray="5,3"/>

  <!-- dots -->
  <circle cx="52.0" cy="232.0" r="3" fill="#4e79a7"/><circle cx="62.8" cy="232.0" r="3" fill="#4e79a7"/><circle cx="73.7" cy="232.0" r="3" fill="#4e79a7"/><circle cx="84.5" cy="232.0" r="3" fill="#4e79a7"/><circle cx="95.4" cy="232.0" r="3" fill="#4e79a7"/><circle cx="106.2" cy="232.0" r="3" fill="#4e79a7"/><circle cx="117.0" cy="232.0" r="3" fill="#4e79a7"/><circle cx="127.9" cy="232.0" r="3" fill="#4e79a7"/><circle cx="138.7" cy="232.0" r="3" fill="#4e79a7"/><circle cx="149.6" cy="232.0" r="3" fill="#4e79a7"/><circle cx="160.4" cy="232.0" r="3" fill="#4e79a7"/><circle cx="171.2" cy="232.0" r="3" fill="#4e79a7"/><circle cx="182.1" cy="232.0" r="3" fill="#4e79a7"/><circle cx="192.9" cy="172.3" r="3" fill="#4e79a7"/><circle cx="203.8" cy="28.0" r="3" fill="#4e79a7"/><circle cx="214.6" cy="75.7" r="3" fill="#4e79a7"/><circle cx="225.4" cy="187.5" r="3" fill="#4e79a7"/><circle cx="236.3" cy="176.1" r="3" fill="#4e79a7"/><circle cx="247.1" cy="60.4" r="3" fill="#4e79a7"/><circle cx="258.0" cy="62.3" r="3" fill="#4e79a7"/><circle cx="268.8" cy="190.7" r="3" fill="#4e79a7"/><circle cx="279.7" cy="135.4" r="3" fill="#4e79a7"/><circle cx="290.5" cy="209.8" r="3" fill="#4e79a7"/><circle cx="301.3" cy="220.6" r="3" fill="#4e79a7"/><circle cx="312.2" cy="230.7" r="3" fill="#4e79a7"/><circle cx="323.0" cy="232.0" r="3" fill="#4e79a7"/><circle cx="333.9" cy="231.4" r="3" fill="#4e79a7"/><circle cx="344.7" cy="228.8" r="3" fill="#4e79a7"/><circle cx="355.5" cy="232.0" r="3" fill="#4e79a7"/><circle cx="366.4" cy="232.0" r="3" fill="#4e79a7"/><circle cx="377.2" cy="232.0" r="3" fill="#4e79a7"/><circle cx="388.1" cy="203.4" r="3" fill="#4e79a7"/><circle cx="398.9" cy="232.0" r="3" fill="#4e79a7"/><circle cx="409.7" cy="203.4" r="3" fill="#4e79a7"/><circle cx="420.6" cy="221.8" r="3" fill="#4e79a7"/><circle cx="431.4" cy="172.9" r="3" fill="#4e79a7"/><circle cx="442.3" cy="228.2" r="3" fill="#4e79a7"/><circle cx="453.1" cy="232.0" r="3" fill="#4e79a7"/><circle cx="463.9" cy="230.1" r="3" fill="#4e79a7"/><circle cx="474.8" cy="231.4" r="3" fill="#4e79a7"/><circle cx="485.6" cy="232.0" r="3" fill="#4e79a7"/><circle cx="496.5" cy="230.7" r="3" fill="#4e79a7"/><circle cx="507.3" cy="232.0" r="3" fill="#4e79a7"/><circle cx="518.1" cy="231.4" r="3" fill="#4e79a7"/><circle cx="529.0" cy="231.4" r="3" fill="#4e79a7"/><circle cx="539.8" cy="231.4" r="3" fill="#4e79a7"/><circle cx="550.7" cy="232.0" r="3" fill="#4e79a7"/><circle cx="561.5" cy="231.4" r="3" fill="#4e79a7"/><circle cx="572.3" cy="231.4" r="3" fill="#4e79a7"/><circle cx="583.2" cy="232.0" r="3" fill="#4e79a7"/><circle cx="594.0" cy="232.0" r="3" fill="#4e79a7"/><circle cx="604.9" cy="231.4" r="3" fill="#4e79a7"/><circle cx="615.7" cy="232.0" r="3" fill="#4e79a7"/><circle cx="626.6" cy="232.0" r="3" fill="#4e79a7"/><circle cx="637.4" cy="226.9" r="3" fill="#4e79a7"/><circle cx="648.2" cy="232.0" r="3" fill="#4e79a7"/><circle cx="659.1" cy="231.4" r="3" fill="#4e79a7"/><circle cx="669.9" cy="232.0" r="3" fill="#4e79a7"/><circle cx="680.8" cy="232.0" r="3" fill="#4e79a7"/><circle cx="691.6" cy="231.4" r="3" fill="#4e79a7"/><circle cx="702.4" cy="231.4" r="3" fill="#4e79a7"/><circle cx="713.3" cy="232.0" r="3" fill="#4e79a7"/><circle cx="724.1" cy="232.0" r="3" fill="#4e79a7"/><circle cx="735.0" cy="232.0" r="3" fill="#4e79a7"/><circle cx="745.8" cy="232.0" r="3" fill="#4e79a7"/><circle cx="756.6" cy="232.0" r="3" fill="#4e79a7"/><circle cx="767.5" cy="232.0" r="3" fill="#4e79a7"/><circle cx="778.3" cy="232.0" r="3" fill="#4e79a7"/><circle cx="789.2" cy="232.0" r="3" fill="#4e79a7"/><circle cx="800.0" cy="232.0" r="3" fill="#4e79a7"/>
  <circle cx="52.0" cy="232.0" r="3" fill="#f28e2b"/><circle cx="62.8" cy="232.0" r="3" fill="#f28e2b"/><circle cx="73.7" cy="232.0" r="3" fill="#f28e2b"/><circle cx="84.5" cy="232.0" r="3" fill="#f28e2b"/><circle cx="95.4" cy="232.0" r="3" fill="#f28e2b"/><circle cx="106.2" cy="232.0" r="3" fill="#f28e2b"/><circle cx="117.0" cy="232.0" r="3" fill="#f28e2b"/><circle cx="127.9" cy="232.0" r="3" fill="#f28e2b"/><circle cx="138.7" cy="232.0" r="3" fill="#f28e2b"/><circle cx="149.6" cy="232.0" r="3" fill="#f28e2b"/><circle cx="160.4" cy="232.0" r="3" fill="#f28e2b"/><circle cx="171.2" cy="232.0" r="3" fill="#f28e2b"/><circle cx="182.1" cy="232.0" r="3" fill="#f28e2b"/><circle cx="192.9" cy="217.4" r="3" fill="#f28e2b"/><circle cx="203.8" cy="151.3" r="3" fill="#f28e2b"/><circle cx="214.6" cy="185.0" r="3" fill="#f28e2b"/><circle cx="225.4" cy="221.8" r="3" fill="#f28e2b"/><circle cx="236.3" cy="209.1" r="3" fill="#f28e2b"/><circle cx="247.1" cy="175.4" r="3" fill="#f28e2b"/><circle cx="258.0" cy="182.4" r="3" fill="#f28e2b"/><circle cx="268.8" cy="209.1" r="3" fill="#f28e2b"/><circle cx="279.7" cy="189.4" r="3" fill="#f28e2b"/><circle cx="290.5" cy="225.6" r="3" fill="#f28e2b"/><circle cx="301.3" cy="228.2" r="3" fill="#f28e2b"/><circle cx="312.2" cy="231.4" r="3" fill="#f28e2b"/><circle cx="323.0" cy="232.0" r="3" fill="#f28e2b"/><circle cx="333.9" cy="231.4" r="3" fill="#f28e2b"/><circle cx="344.7" cy="230.1" r="3" fill="#f28e2b"/><circle cx="355.5" cy="232.0" r="3" fill="#f28e2b"/><circle cx="366.4" cy="232.0" r="3" fill="#f28e2b"/><circle cx="377.2" cy="232.0" r="3" fill="#f28e2b"/><circle cx="388.1" cy="227.6" r="3" fill="#f28e2b"/><circle cx="398.9" cy="232.0" r="3" fill="#f28e2b"/><circle cx="409.7" cy="226.9" r="3" fill="#f28e2b"/><circle cx="420.6" cy="229.5" r="3" fill="#f28e2b"/><circle cx="431.4" cy="211.7" r="3" fill="#f28e2b"/><circle cx="442.3" cy="228.2" r="3" fill="#f28e2b"/><circle cx="453.1" cy="232.0" r="3" fill="#f28e2b"/><circle cx="463.9" cy="230.1" r="3" fill="#f28e2b"/><circle cx="474.8" cy="231.4" r="3" fill="#f28e2b"/><circle cx="485.6" cy="232.0" r="3" fill="#f28e2b"/><circle cx="496.5" cy="230.7" r="3" fill="#f28e2b"/><circle cx="507.3" cy="232.0" r="3" fill="#f28e2b"/><circle cx="518.1" cy="231.4" r="3" fill="#f28e2b"/><circle cx="529.0" cy="231.4" r="3" fill="#f28e2b"/><circle cx="539.8" cy="231.4" r="3" fill="#f28e2b"/><circle cx="550.7" cy="232.0" r="3" fill="#f28e2b"/><circle cx="561.5" cy="231.4" r="3" fill="#f28e2b"/><circle cx="572.3" cy="231.4" r="3" fill="#f28e2b"/><circle cx="583.2" cy="232.0" r="3" fill="#f28e2b"/><circle cx="594.0" cy="232.0" r="3" fill="#f28e2b"/><circle cx="604.9" cy="231.4" r="3" fill="#f28e2b"/><circle cx="615.7" cy="232.0" r="3" fill="#f28e2b"/><circle cx="626.6" cy="232.0" r="3" fill="#f28e2b"/><circle cx="637.4" cy="231.4" r="3" fill="#f28e2b"/><circle cx="648.2" cy="232.0" r="3" fill="#f28e2b"/><circle cx="659.1" cy="231.4" r="3" fill="#f28e2b"/><circle cx="669.9" cy="232.0" r="3" fill="#f28e2b"/><circle cx="680.8" cy="232.0" r="3" fill="#f28e2b"/><circle cx="691.6" cy="231.4" r="3" fill="#f28e2b"/><circle cx="702.4" cy="231.4" r="3" fill="#f28e2b"/><circle cx="713.3" cy="232.0" r="3" fill="#f28e2b"/><circle cx="724.1" cy="232.0" r="3" fill="#f28e2b"/><circle cx="735.0" cy="232.0" r="3" fill="#f28e2b"/><circle cx="745.8" cy="232.0" r="3" fill="#f28e2b"/><circle cx="756.6" cy="232.0" r="3" fill="#f28e2b"/><circle cx="767.5" cy="232.0" r="3" fill="#f28e2b"/><circle cx="778.3" cy="232.0" r="3" fill="#f28e2b"/><circle cx="789.2" cy="232.0" r="3" fill="#f28e2b"/><circle cx="800.0" cy="232.0" r="3" fill="#f28e2b"/>

  <!-- axes -->
  <line x1="52" y1="28" x2="52" y2="232"
        stroke="#cccccc" stroke-width="1"/>
  <line x1="52" y1="232" x2="800" y2="232"
        stroke="#cccccc" stroke-width="1"/>

  <!-- y-axis labels -->
  <text x="47" y="236.0" text-anchor="end" font-size="10" fill="#57606a" font-family="ui-monospace, SFMono-Regular, 'SF Mono', Menlo, monospace">0</text><text x="47" y="197.9" text-anchor="end" font-size="10" fill="#57606a" font-family="ui-monospace, SFMono-Regular, 'SF Mono', Menlo, monospace">60</text><text x="47" y="159.7" text-anchor="end" font-size="10" fill="#57606a" font-family="ui-monospace, SFMono-Regular, 'SF Mono', Menlo, monospace">120</text><text x="47" y="121.6" text-anchor="end" font-size="10" fill="#57606a" font-family="ui-monospace, SFMono-Regular, 'SF Mono', Menlo, monospace">180</text><text x="47" y="83.5" text-anchor="end" font-size="10" fill="#57606a" font-family="ui-monospace, SFMono-Regular, 'SF Mono', Menlo, monospace">240</text><text x="47" y="45.3" text-anchor="end" font-size="10" fill="#57606a" font-family="ui-monospace, SFMono-Regular, 'SF Mono', Menlo, monospace">300</text><text x="47" y="7.2" text-anchor="end" font-size="10" fill="#57606a" font-family="ui-monospace, SFMono-Regular, 'SF Mono', Menlo, monospace">360</text>

  <!-- x-axis labels -->
  <text x="52.0" y="248" text-anchor="middle" font-size="10" fill="#8c959f" font-family="ui-monospace, SFMono-Regular, 'SF Mono', Menlo, monospace">05-14</text><text x="398.9" y="248" text-anchor="middle" font-size="10" fill="#8c959f" font-family="ui-monospace, SFMono-Regular, 'SF Mono', Menlo, monospace">06-15</text><text x="745.8" y="248" text-anchor="middle" font-size="10" fill="#8c959f" font-family="ui-monospace, SFMono-Regular, 'SF Mono', Menlo, monospace">07-17</text><text x="800.0" y="248" text-anchor="middle" font-size="10" fill="#8c959f" font-family="ui-monospace, SFMono-Regular, 'SF Mono', Menlo, monospace">07-22</text><text x="138.7" y="248" text-anchor="middle" font-size="10" fill="#8c959f" font-family="ui-monospace, SFMono-Regular, 'SF Mono', Menlo, monospace">05-22</text><text x="485.6" y="248" text-anchor="middle" font-size="10" fill="#8c959f" font-family="ui-monospace, SFMono-Regular, 'SF Mono', Menlo, monospace">06-23</text><text x="225.4" y="248" text-anchor="middle" font-size="10" fill="#8c959f" font-family="ui-monospace, SFMono-Regular, 'SF Mono', Menlo, monospace">05-30</text><text x="572.3" y="248" text-anchor="middle" font-size="10" fill="#8c959f" font-family="ui-monospace, SFMono-Regular, 'SF Mono', Menlo, monospace">07-01</text><text x="312.2" y="248" text-anchor="middle" font-size="10" fill="#8c959f" font-family="ui-monospace, SFMono-Regular, 'SF Mono', Menlo, monospace">06-07</text><text x="659.1" y="248" text-anchor="middle" font-size="10" fill="#8c959f" font-family="ui-monospace, SFMono-Regular, 'SF Mono', Menlo, monospace">07-09</text>

  <!-- legend -->
  <rect x="60" y="262" width="16" height="3" fill="#4e79a7" rx="1"/><text x="80" y="268" font-size="11" fill="#57606a" font-family="-apple-system, BlinkMacSystemFont, 'Segoe UI', sans-serif">Total clones (1,862)</text><line x1="230" y1="264" x2="246" y2="264" stroke="#f28e2b" stroke-width="2" stroke-dasharray="5,3"/><text x="250" y="268" font-size="11" fill="#57606a" font-family="-apple-system, BlinkMacSystemFont, 'Segoe UI', sans-serif">Unique cloners</text>

</svg>