<svg xmlns="http://www.w3.org/2000/svg" viewBox="0 0 820 280" width="820" height="280">

  <!-- title -->
  <text x="52" y="18" font-size="13" font-weight="600"
        fill="#24292f" font-family="-apple-system, BlinkMacSystemFont, 'Segoe UI', sans-serif"
        >Clone traffic — vellum</text>
  <text x="800" y="18" font-size="10" fill="#8c959f"
        font-family="ui-monospace, SFMono-Regular, 'SF Mono', Menlo, monospace" text-anchor="end">2026-06-26</text>

  <!-- grid -->
  <line x1="52" y1="232.0" x2="800" y2="232.0" stroke="#e8e8e8" stroke-width="1"/><line x1="52" y1="193.9" x2="800" y2="193.9" stroke="#e8e8e8" stroke-width="1"/><line x1="52" y1="155.7" x2="800" y2="155.7" stroke="#e8e8e8" stroke-width="1"/><line x1="52" y1="117.6" x2="800" y2="117.6" stroke="#e8e8e8" stroke-width="1"/><line x1="52" y1="79.5" x2="800" y2="79.5" stroke="#e8e8e8" stroke-width="1"/><line x1="52" y1="41.3" x2="800" y2="41.3" stroke="#e8e8e8" stroke-width="1"/><line x1="52" y1="3.2" x2="800" y2="3.2" stroke="#e8e8e8" stroke-width="1"/>

  <!-- area fill -->
  <path d="M52.0,232.0 L52.0,232.0 L70.2,232.0 L88.5,232.0 L106.7,232.0 L125.0,232.0 L143.2,232.0 L161.5,232.0 L179.7,232.0 L198.0,232.0 L216.2,232.0 L234.4,232.0 L252.7,232.0 L270.9,232.0 L289.2,172.3 L307.4,28.0 L325.7,75.7 L343.9,187.5 L362.1,176.1 L380.4,60.4 L398.6,62.3 L416.9,190.7 L435.1,135.4 L453.4,209.8 L471.6,220.6 L489.9,230.7 L508.1,232.0 L526.3,231.4 L544.6,228.8 L562.8,232.0 L581.1,232.0 L599.3,232.0 L617.6,203.4 L635.8,232.0 L654.0,203.4 L672.3,221.8 L690.5,172.9 L708.8,228.2 L727.0,232.0 L745.3,230.1 L763.5,231.4 L781.8,232.0 L800.0,230.7 L800.0,232.0 L52.0,232.0Z" fill="#4e79a7" opacity="0.12"/>

  <!-- lines -->
  <polyline points="52.0,232.0 70.2,232.0 88.5,232.0 106.7,232.0 125.0,232.0 143.2,232.0 161.5,232.0 179.7,232.0 198.0,232.0 216.2,232.0 234.4,232.0 252.7,232.0 270.9,232.0 289.2,172.3 307.4,28.0 325.7,75.7 343.9,187.5 362.1,176.1 380.4,60.4 398.6,62.3 416.9,190.7 435.1,135.4 453.4,209.8 471.6,220.6 489.9,230.7 508.1,232.0 526.3,231.4 544.6,228.8 562.8,232.0 581.1,232.0 599.3,232.0 617.6,203.4 635.8,232.0 654.0,203.4 672.3,221.8 690.5,172.9 708.8,228.2 727.0,232.0 745.3,230.1 763.5,231.4 781.8,232.0 800.0,230.7"
            fill="none" stroke="#4e79a7"
            stroke-width="2" stroke-linejoin="round"/>
  <polyline points="52.0,232.0 70.2,232.0 88.5,232.0 106.7,232.0 125.0,232.0 143.2,232.0 161.5,232.0 179.7,232.0 198.0,232.0 216.2,232.0 234.4,232.0 252.7,232.0 270.9,232.0 289.2,217.4 307.4,151.3 325.7,185.0 343.9,221.8 362.1,209.1 380.4,175.4 398.6,182.4 416.9,209.1 435.1,189.4 453.4,225.6 471.6,228.2 489.9,231.4 508.1,232.0 526.3,231.4 544.6,230.1 562.8,232.0 581.1,232.0 599.3,232.0 617.6,227.6 635.8,232.0 654.0,226.9 672.3,229.5 690.5,211.7 708.8,228.2 727.0,232.0 745.3,230.1 763.5,231.4 781.8,232.0 800.0,230.7"
            fill="none" stroke="#f28e2b"
            stroke-width="2" stroke-linejoin="round"
            stroke-dasharray="5,3"/>

  <!-- dots -->
  <circle cx="52.0" cy="232.0" r="3" fill="#4e79a7"/><circle cx="70.2" cy="232.0" r="3" fill="#4e79a7"/><circle cx="88.5" cy="232.0" r="3" fill="#4e79a7"/><circle cx="106.7" cy="232.0" r="3" fill="#4e79a7"/><circle cx="125.0" cy="232.0" r="3" fill="#4e79a7"/><circle cx="143.2" cy="232.0" r="3" fill="#4e79a7"/><circle cx="161.5" cy="232.0" r="3" fill="#4e79a7"/><circle cx="179.7" cy="232.0" r="3" fill="#4e79a7"/><circle cx="198.0" cy="232.0" r="3" fill="#4e79a7"/><circle cx="216.2" cy="232.0" r="3" fill="#4e79a7"/><circle cx="234.4" cy="232.0" r="3" fill="#4e79a7"/><circle cx="252.7" cy="232.0" r="3" fill="#4e79a7"/><circle cx="270.9" cy="232.0" r="3" fill="#4e79a7"/><circle cx="289.2" cy="172.3" r="3" fill="#4e79a7"/><circle cx="307.4" cy="28.0" r="3" fill="#4e79a7"/><circle cx="325.7" cy="75.7" r="3" fill="#4e79a7"/><circle cx="343.9" cy="187.5" r="3" fill="#4e79a7"/><circle cx="362.1" cy="176.1" r="3" fill="#4e79a7"/><circle cx="380.4" cy="60.4" r="3" fill="#4e79a7"/><circle cx="398.6" cy="62.3" r="3" fill="#4e79a7"/><circle cx="416.9" cy="190.7" r="3" fill="#4e79a7"/><circle cx="435.1" cy="135.4" r="3" fill="#4e79a7"/><circle cx="453.4" cy="209.8" r="3" fill="#4e79a7"/><circle cx="471.6" cy="220.6" r="3" fill="#4e79a7"/><circle cx="489.9" cy="230.7" r="3" fill="#4e79a7"/><circle cx="508.1" cy="232.0" r="3" fill="#4e79a7"/><circle cx="526.3" cy="231.4" r="3" fill="#4e79a7"/><circle cx="544.6" cy="228.8" r="3" fill="#4e79a7"/><circle cx="562.8" cy="232.0" r="3" fill="#4e79a7"/><circle cx="581.1" cy="232.0" r="3" fill="#4e79a7"/><circle cx="599.3" cy="232.0" r="3" fill="#4e79a7"/><circle cx="617.6" cy="203.4" r="3" fill="#4e79a7"/><circle cx="635.8" cy="232.0" r="3" fill="#4e79a7"/><circle cx="654.0" cy="203.4" r="3" fill="#4e79a7"/><circle cx="672.3" cy="221.8" r="3" fill="#4e79a7"/><circle cx="690.5" cy="172.9" r="3" fill="#4e79a7"/><circle cx="708.8" cy="228.2" r="3" fill="#4e79a7"/><circle cx="727.0" cy="232.0" r="3" fill="#4e79a7"/><circle cx="745.3" cy="230.1" r="3" fill="#4e79a7"/><circle cx="763.5" cy="231.4" r="3" fill="#4e79a7"/><circle cx="781.8" cy="232.0" r="3" fill="#4e79a7"/><circle cx="800.0" cy="230.7" r="3" fill="#4e79a7"/>
  <circle cx="52.0" cy="232.0" r="3" fill="#f28e2b"/><circle cx="70.2" cy="232.0" r="3" fill="#f28e2b"/><circle cx="88.5" cy="232.0" r="3" fill="#f28e2b"/><circle cx="106.7" cy="232.0" r="3" fill="#f28e2b"/><circle cx="125.0" cy="232.0" r="3" fill="#f28e2b"/><circle cx="143.2" cy="232.0" r="3" fill="#f28e2b"/><circle cx="161.5" cy="232.0" r="3" fill="#f28e2b"/><circle cx="179.7" cy="232.0" r="3" fill="#f28e2b"/><circle cx="198.0" cy="232.0" r="3" fill="#f28e2b"/><circle cx="216.2" cy="232.0" r="3" fill="#f28e2b"/><circle cx="234.4" cy="232.0" r="3" fill="#f28e2b"/><circle cx="252.7" cy="232.0" r="3" fill="#f28e2b"/><circle cx="270.9" cy="232.0" r="3" fill="#f28e2b"/><circle cx="289.2" cy="217.4" r="3" fill="#f28e2b"/><circle cx="307.4" cy="151.3" r="3" fill="#f28e2b"/><circle cx="325.7" cy="185.0" r="3" fill="#f28e2b"/><circle cx="343.9" cy="221.8" r="3" fill="#f28e2b"/><circle cx="362.1" cy="209.1" r="3" fill="#f28e2b"/><circle cx="380.4" cy="175.4" r="3" fill="#f28e2b"/><circle cx="398.6" cy="182.4" r="3" fill="#f28e2b"/><circle cx="416.9" cy="209.1" r="3" fill="#f28e2b"/><circle cx="435.1" cy="189.4" r="3" fill="#f28e2b"/><circle cx="453.4" cy="225.6" r="3" fill="#f28e2b"/><circle cx="471.6" cy="228.2" r="3" fill="#f28e2b"/><circle cx="489.9" cy="231.4" r="3" fill="#f28e2b"/><circle cx="508.1" cy="232.0" r="3" fill="#f28e2b"/><circle cx="526.3" cy="231.4" r="3" fill="#f28e2b"/><circle cx="544.6" cy="230.1" r="3" fill="#f28e2b"/><circle cx="562.8" cy="232.0" r="3" fill="#f28e2b"/><circle cx="581.1" cy="232.0" r="3" fill="#f28e2b"/><circle cx="599.3" cy="232.0" r="3" fill="#f28e2b"/><circle cx="617.6" cy="227.6" r="3" fill="#f28e2b"/><circle cx="635.8" cy="232.0" r="3" fill="#f28e2b"/><circle cx="654.0" cy="226.9" r="3" fill="#f28e2b"/><circle cx="672.3" cy="229.5" r="3" fill="#f28e2b"/><circle cx="690.5" cy="211.7" r="3" fill="#f28e2b"/><circle cx="708.8" cy="228.2" r="3" fill="#f28e2b"/><circle cx="727.0" cy="232.0" r="3" fill="#f28e2b"/><circle cx="745.3" cy="230.1" r="3" fill="#f28e2b"/><circle cx="763.5" cy="231.4" r="3" fill="#f28e2b"/><circle cx="781.8" cy="232.0" r="3" fill="#f28e2b"/><circle cx="800.0" cy="230.7" r="3" fill="#f28e2b"/>

  <!-- axes -->
  <line x1="52" y1="28" x2="52" y2="232"
        stroke="#cccccc" stroke-width="1"/>
  <line x1="52" y1="232" x2="800" y2="232"
        stroke="#cccccc" stroke-width="1"/>

  <!-- y-axis labels -->
  <text x="47" y="236.0" text-anchor="end" font-size="10" fill="#57606a" font-family="ui-monospace, SFMono-Regular, 'SF Mono', Menlo, monospace">0</text><text x="47" y="197.9" text-anchor="end" font-size="10" fill="#57606a" font-family="ui-monospace, SFMono-Regular, 'SF Mono', Menlo, monospace">60</text><text x="47" y="159.7" text-anchor="end" font-size="10" fill="#57606a" font-family="ui-monospace, SFMono-Regular, 'SF Mono', Menlo, monospace">120</text><text x="47" y="121.6" text-anchor="end" font-size="10" fill="#57606a" font-family="ui-monospace, SFMono-Regular, 'SF Mono', Menlo, monospace">180</text><text x="47" y="83.5" text-anchor="end" font-size="10" fill="#57606a" font-family="ui-monospace, SFMono-Regular, 'SF Mono', Menlo, monospace">240</text><text x="47" y="45.3" text-anchor="end" font-size="10" fill="#57606a" font-family="ui-monospace, SFMono-Regular, 'SF Mono', Menlo, monospace">300</text><text x="47" y="7.2" text-anchor="end" font-size="10" fill="#57606a" font-family="ui-monospace, SFMono-Regular, 'SF Mono', Menlo, monospace">360</text>

  <!-- x-axis labels -->
  <text x="52.0" y="248" text-anchor="middle" font-size="10" fill="#8c959f" font-family="ui-monospace, SFMono-Regular, 'SF Mono', Menlo, monospace">05-14</text><text x="690.5" y="248" text-anchor="middle" font-size="10" fill="#8c959f" font-family="ui-monospace, SFMono-Regular, 'SF Mono', Menlo, monospace">06-18</text><text x="143.2" y="248" text-anchor="middle" font-size="10" fill="#8c959f" font-family="ui-monospace, SFMono-Regular, 'SF Mono', Menlo, monospace">05-19</text><text x="781.8" y="248" text-anchor="middle" font-size="10" fill="#8c959f" font-family="ui-monospace, SFMono-Regular, 'SF Mono', Menlo, monospace">06-23</text><text x="800.0" y="248" text-anchor="middle" font-size="10" fill="#8c959f" font-family="ui-monospace, SFMono-Regular, 'SF Mono', Menlo, monospace">06-24</text><text x="234.4" y="248" text-anchor="middle" font-size="10" fill="#8c959f" font-family="ui-monospace, SFMono-Regular, 'SF Mono', Menlo, monospace">05-24</text><text x="325.7" y="248" text-anchor="middle" font-size="10" fill="#8c959f" font-family="ui-monospace, SFMono-Regular, 'SF Mono', Menlo, monospace">05-29</text><text x="416.9" y="248" text-anchor="middle" font-size="10" fill="#8c959f" font-family="ui-monospace, SFMono-Regular, 'SF Mono', Menlo, monospace">06-03</text><text x="508.1" y="248" text-anchor="middle" font-size="10" fill="#8c959f" font-family="ui-monospace, SFMono-Regular, 'SF Mono', Menlo, monospace">06-08</text><text x="599.3" y="248" text-anchor="middle" font-size="10" fill="#8c959f" font-family="ui-monospace, SFMono-Regular, 'SF Mono', Menlo, monospace">06-13</text>

  <!-- legend -->
  <rect x="60" y="262" width="16" height="3" fill="#4e79a7" rx="1"/><text x="80" y="268" font-size="11" fill="#57606a" font-family="-apple-system, BlinkMacSystemFont, 'Segoe UI', sans-serif">Total clones (1,845)</text><line x1="230" y1="264" x2="246" y2="264" stroke="#f28e2b" stroke-width="2" stroke-dasharray="5,3"/><text x="250" y="268" font-size="11" fill="#57606a" font-family="-apple-system, BlinkMacSystemFont, 'Segoe UI', sans-serif">Unique cloners</text>

</svg>