<svg xmlns="http://www.w3.org/2000/svg" viewBox="0 0 820 280" width="820" height="280">

  <!-- title -->
  <text x="52" y="18" font-size="13" font-weight="600"
        fill="#24292f" font-family="-apple-system, BlinkMacSystemFont, 'Segoe UI', sans-serif"
        >Clone traffic — vellum</text>
  <text x="800" y="18" font-size="10" fill="#8c959f"
        font-family="ui-monospace, SFMono-Regular, 'SF Mono', Menlo, monospace" text-anchor="end">2026-07-06</text>

  <!-- grid -->
  <line x1="52" y1="232.0" x2="800" y2="232.0" stroke="#e8e8e8" stroke-width="1"/><line x1="52" y1="193.9" x2="800" y2="193.9" stroke="#e8e8e8" stroke-width="1"/><line x1="52" y1="155.7" x2="800" y2="155.7" stroke="#e8e8e8" stroke-width="1"/><line x1="52" y1="117.6" x2="800" y2="117.6" stroke="#e8e8e8" stroke-width="1"/><line x1="52" y1="79.5" x2="800" y2="79.5" stroke="#e8e8e8" stroke-width="1"/><line x1="52" y1="41.3" x2="800" y2="41.3" stroke="#e8e8e8" stroke-width="1"/><line x1="52" y1="3.2" x2="800" y2="3.2" stroke="#e8e8e8" stroke-width="1"/>

  <!-- area fill -->
  <path d="M52.0,232.0 L52.0,232.0 L66.7,232.0 L81.3,232.0 L96.0,232.0 L110.7,232.0 L125.3,232.0 L140.0,232.0 L154.7,232.0 L169.3,232.0 L184.0,232.0 L198.7,232.0 L213.3,232.0 L228.0,232.0 L242.7,172.3 L257.3,28.0 L272.0,75.7 L286.7,187.5 L301.3,176.1 L316.0,60.4 L330.7,62.3 L345.3,190.7 L360.0,135.4 L374.7,209.8 L389.3,220.6 L404.0,230.7 L418.7,232.0 L433.3,231.4 L448.0,228.8 L462.7,232.0 L477.3,232.0 L492.0,232.0 L506.7,203.4 L521.3,232.0 L536.0,203.4 L550.7,221.8 L565.3,172.9 L580.0,228.2 L594.7,232.0 L609.3,230.1 L624.0,231.4 L638.7,232.0 L653.3,230.7 L668.0,232.0 L682.7,231.4 L697.3,231.4 L712.0,231.4 L726.7,232.0 L741.3,231.4 L756.0,231.4 L770.7,232.0 L785.3,232.0 L800.0,231.4 L800.0,232.0 L52.0,232.0Z" fill="#4e79a7" opacity="0.12"/>

  <!-- lines -->
  <polyline points="52.0,232.0 66.7,232.0 81.3,232.0 96.0,232.0 110.7,232.0 125.3,232.0 140.0,232.0 154.7,232.0 169.3,232.0 184.0,232.0 198.7,232.0 213.3,232.0 228.0,232.0 242.7,172.3 257.3,28.0 272.0,75.7 286.7,187.5 301.3,176.1 316.0,60.4 330.7,62.3 345.3,190.7 360.0,135.4 374.7,209.8 389.3,220.6 404.0,230.7 418.7,232.0 433.3,231.4 448.0,228.8 462.7,232.0 477.3,232.0 492.0,232.0 506.7,203.4 521.3,232.0 536.0,203.4 550.7,221.8 565.3,172.9 580.0,228.2 594.7,232.0 609.3,230.1 624.0,231.4 638.7,232.0 653.3,230.7 668.0,232.0 682.7,231.4 697.3,231.4 712.0,231.4 726.7,232.0 741.3,231.4 756.0,231.4 770.7,232.0 785.3,232.0 800.0,231.4"
            fill="none" stroke="#4e79a7"
            stroke-width="2" stroke-linejoin="round"/>
  <polyline points="52.0,232.0 66.7,232.0 81.3,232.0 96.0,232.0 110.7,232.0 125.3,232.0 140.0,232.0 154.7,232.0 169.3,232.0 184.0,232.0 198.7,232.0 213.3,232.0 228.0,232.0 242.7,217.4 257.3,151.3 272.0,185.0 286.7,221.8 301.3,209.1 316.0,175.4 330.7,182.4 345.3,209.1 360.0,189.4 374.7,225.6 389.3,228.2 404.0,231.4 418.7,232.0 433.3,231.4 448.0,230.1 462.7,232.0 477.3,232.0 492.0,232.0 506.7,227.6 521.3,232.0 536.0,226.9 550.7,229.5 565.3,211.7 580.0,228.2 594.7,232.0 609.3,230.1 624.0,231.4 638.7,232.0 653.3,230.7 668.0,232.0 682.7,231.4 697.3,231.4 712.0,231.4 726.7,232.0 741.3,231.4 756.0,231.4 770.7,232.0 785.3,232.0 800.0,231.4"
            fill="none" stroke="#f28e2b"
            stroke-width="2" stroke-linejoin="round"
            stroke-dasharray="5,3"/>

  <!-- dots -->
  <circle cx="52.0" cy="232.0" r="3" fill="#4e79a7"/><circle cx="66.7" cy="232.0" r="3" fill="#4e79a7"/><circle cx="81.3" cy="232.0" r="3" fill="#4e79a7"/><circle cx="96.0" cy="232.0" r="3" fill="#4e79a7"/><circle cx="110.7" cy="232.0" r="3" fill="#4e79a7"/><circle cx="125.3" cy="232.0" r="3" fill="#4e79a7"/><circle cx="140.0" cy="232.0" r="3" fill="#4e79a7"/><circle cx="154.7" cy="232.0" r="3" fill="#4e79a7"/><circle cx="169.3" cy="232.0" r="3" fill="#4e79a7"/><circle cx="184.0" cy="232.0" r="3" fill="#4e79a7"/><circle cx="198.7" cy="232.0" r="3" fill="#4e79a7"/><circle cx="213.3" cy="232.0" r="3" fill="#4e79a7"/><circle cx="228.0" cy="232.0" r="3" fill="#4e79a7"/><circle cx="242.7" cy="172.3" r="3" fill="#4e79a7"/><circle cx="257.3" cy="28.0" r="3" fill="#4e79a7"/><circle cx="272.0" cy="75.7" r="3" fill="#4e79a7"/><circle cx="286.7" cy="187.5" r="3" fill="#4e79a7"/><circle cx="301.3" cy="176.1" r="3" fill="#4e79a7"/><circle cx="316.0" cy="60.4" r="3" fill="#4e79a7"/><circle cx="330.7" cy="62.3" r="3" fill="#4e79a7"/><circle cx="345.3" cy="190.7" r="3" fill="#4e79a7"/><circle cx="360.0" cy="135.4" r="3" fill="#4e79a7"/><circle cx="374.7" cy="209.8" r="3" fill="#4e79a7"/><circle cx="389.3" cy="220.6" r="3" fill="#4e79a7"/><circle cx="404.0" cy="230.7" r="3" fill="#4e79a7"/><circle cx="418.7" cy="232.0" r="3" fill="#4e79a7"/><circle cx="433.3" cy="231.4" r="3" fill="#4e79a7"/><circle cx="448.0" cy="228.8" r="3" fill="#4e79a7"/><circle cx="462.7" cy="232.0" r="3" fill="#4e79a7"/><circle cx="477.3" cy="232.0" r="3" fill="#4e79a7"/><circle cx="492.0" cy="232.0" r="3" fill="#4e79a7"/><circle cx="506.7" cy="203.4" r="3" fill="#4e79a7"/><circle cx="521.3" cy="232.0" r="3" fill="#4e79a7"/><circle cx="536.0" cy="203.4" r="3" fill="#4e79a7"/><circle cx="550.7" cy="221.8" r="3" fill="#4e79a7"/><circle cx="565.3" cy="172.9" r="3" fill="#4e79a7"/><circle cx="580.0" cy="228.2" r="3" fill="#4e79a7"/><circle cx="594.7" cy="232.0" r="3" fill="#4e79a7"/><circle cx="609.3" cy="230.1" r="3" fill="#4e79a7"/><circle cx="624.0" cy="231.4" r="3" fill="#4e79a7"/><circle cx="638.7" cy="232.0" r="3" fill="#4e79a7"/><circle cx="653.3" cy="230.7" r="3" fill="#4e79a7"/><circle cx="668.0" cy="232.0" r="3" fill="#4e79a7"/><circle cx="682.7" cy="231.4" r="3" fill="#4e79a7"/><circle cx="697.3" cy="231.4" r="3" fill="#4e79a7"/><circle cx="712.0" cy="231.4" r="3" fill="#4e79a7"/><circle cx="726.7" cy="232.0" r="3" fill="#4e79a7"/><circle cx="741.3" cy="231.4" r="3" fill="#4e79a7"/><circle cx="756.0" cy="231.4" r="3" fill="#4e79a7"/><circle cx="770.7" cy="232.0" r="3" fill="#4e79a7"/><circle cx="785.3" cy="232.0" r="3" fill="#4e79a7"/><circle cx="800.0" cy="231.4" r="3" fill="#4e79a7"/>
  <circle cx="52.0" cy="232.0" r="3" fill="#f28e2b"/><circle cx="66.7" cy="232.0" r="3" fill="#f28e2b"/><circle cx="81.3" cy="232.0" r="3" fill="#f28e2b"/><circle cx="96.0" cy="232.0" r="3" fill="#f28e2b"/><circle cx="110.7" cy="232.0" r="3" fill="#f28e2b"/><circle cx="125.3" cy="232.0" r="3" fill="#f28e2b"/><circle cx="140.0" cy="232.0" r="3" fill="#f28e2b"/><circle cx="154.7" cy="232.0" r="3" fill="#f28e2b"/><circle cx="169.3" cy="232.0" r="3" fill="#f28e2b"/><circle cx="184.0" cy="232.0" r="3" fill="#f28e2b"/><circle cx="198.7" cy="232.0" r="3" fill="#f28e2b"/><circle cx="213.3" cy="232.0" r="3" fill="#f28e2b"/><circle cx="228.0" cy="232.0" r="3" fill="#f28e2b"/><circle cx="242.7" cy="217.4" r="3" fill="#f28e2b"/><circle cx="257.3" cy="151.3" r="3" fill="#f28e2b"/><circle cx="272.0" cy="185.0" r="3" fill="#f28e2b"/><circle cx="286.7" cy="221.8" r="3" fill="#f28e2b"/><circle cx="301.3" cy="209.1" r="3" fill="#f28e2b"/><circle cx="316.0" cy="175.4" r="3" fill="#f28e2b"/><circle cx="330.7" cy="182.4" r="3" fill="#f28e2b"/><circle cx="345.3" cy="209.1" r="3" fill="#f28e2b"/><circle cx="360.0" cy="189.4" r="3" fill="#f28e2b"/><circle cx="374.7" cy="225.6" r="3" fill="#f28e2b"/><circle cx="389.3" cy="228.2" r="3" fill="#f28e2b"/><circle cx="404.0" cy="231.4" r="3" fill="#f28e2b"/><circle cx="418.7" cy="232.0" r="3" fill="#f28e2b"/><circle cx="433.3" cy="231.4" r="3" fill="#f28e2b"/><circle cx="448.0" cy="230.1" r="3" fill="#f28e2b"/><circle cx="462.7" cy="232.0" r="3" fill="#f28e2b"/><circle cx="477.3" cy="232.0" r="3" fill="#f28e2b"/><circle cx="492.0" cy="232.0" r="3" fill="#f28e2b"/><circle cx="506.7" cy="227.6" r="3" fill="#f28e2b"/><circle cx="521.3" cy="232.0" r="3" fill="#f28e2b"/><circle cx="536.0" cy="226.9" r="3" fill="#f28e2b"/><circle cx="550.7" cy="229.5" r="3" fill="#f28e2b"/><circle cx="565.3" cy="211.7" r="3" fill="#f28e2b"/><circle cx="580.0" cy="228.2" r="3" fill="#f28e2b"/><circle cx="594.7" cy="232.0" r="3" fill="#f28e2b"/><circle cx="609.3" cy="230.1" r="3" fill="#f28e2b"/><circle cx="624.0" cy="231.4" r="3" fill="#f28e2b"/><circle cx="638.7" cy="232.0" r="3" fill="#f28e2b"/><circle cx="653.3" cy="230.7" r="3" fill="#f28e2b"/><circle cx="668.0" cy="232.0" r="3" fill="#f28e2b"/><circle cx="682.7" cy="231.4" r="3" fill="#f28e2b"/><circle cx="697.3" cy="231.4" r="3" fill="#f28e2b"/><circle cx="712.0" cy="231.4" r="3" fill="#f28e2b"/><circle cx="726.7" cy="232.0" r="3" fill="#f28e2b"/><circle cx="741.3" cy="231.4" r="3" fill="#f28e2b"/><circle cx="756.0" cy="231.4" r="3" fill="#f28e2b"/><circle cx="770.7" cy="232.0" r="3" fill="#f28e2b"/><circle cx="785.3" cy="232.0" r="3" fill="#f28e2b"/><circle cx="800.0" cy="231.4" r="3" fill="#f28e2b"/>

  <!-- axes -->
  <line x1="52" y1="28" x2="52" y2="232"
        stroke="#cccccc" stroke-width="1"/>
  <line x1="52" y1="232" x2="800" y2="232"
        stroke="#cccccc" stroke-width="1"/>

  <!-- y-axis labels -->
  <text x="47" y="236.0" text-anchor="end" font-size="10" fill="#57606a" font-family="ui-monospace, SFMono-Regular, 'SF Mono', Menlo, monospace">0</text><text x="47" y="197.9" text-anchor="end" font-size="10" fill="#57606a" font-family="ui-monospace, SFMono-Regular, 'SF Mono', Menlo, monospace">60</text><text x="47" y="159.7" text-anchor="end" font-size="10" fill="#57606a" font-family="ui-monospace, SFMono-Regular, 'SF Mono', Menlo, monospace">120</text><text x="47" y="121.6" text-anchor="end" font-size="10" fill="#57606a" font-family="ui-monospace, SFMono-Regular, 'SF Mono', Menlo, monospace">180</text><text x="47" y="83.5" text-anchor="end" font-size="10" fill="#57606a" font-family="ui-monospace, SFMono-Regular, 'SF Mono', Menlo, monospace">240</text><text x="47" y="45.3" text-anchor="end" font-size="10" fill="#57606a" font-family="ui-monospace, SFMono-Regular, 'SF Mono', Menlo, monospace">300</text><text x="47" y="7.2" text-anchor="end" font-size="10" fill="#57606a" font-family="ui-monospace, SFMono-Regular, 'SF Mono', Menlo, monospace">360</text>

  <!-- x-axis labels -->
  <text x="52.0" y="248" text-anchor="middle" font-size="10" fill="#8c959f" font-family="ui-monospace, SFMono-Regular, 'SF Mono', Menlo, monospace">05-14</text><text x="580.0" y="248" text-anchor="middle" font-size="10" fill="#8c959f" font-family="ui-monospace, SFMono-Regular, 'SF Mono', Menlo, monospace">06-19</text><text x="140.0" y="248" text-anchor="middle" font-size="10" fill="#8c959f" font-family="ui-monospace, SFMono-Regular, 'SF Mono', Menlo, monospace">05-20</text><text x="668.0" y="248" text-anchor="middle" font-size="10" fill="#8c959f" font-family="ui-monospace, SFMono-Regular, 'SF Mono', Menlo, monospace">06-25</text><text x="228.0" y="248" text-anchor="middle" font-size="10" fill="#8c959f" font-family="ui-monospace, SFMono-Regular, 'SF Mono', Menlo, monospace">05-26</text><text x="756.0" y="248" text-anchor="middle" font-size="10" fill="#8c959f" font-family="ui-monospace, SFMono-Regular, 'SF Mono', Menlo, monospace">07-01</text><text x="316.0" y="248" text-anchor="middle" font-size="10" fill="#8c959f" font-family="ui-monospace, SFMono-Regular, 'SF Mono', Menlo, monospace">06-01</text><text x="800.0" y="248" text-anchor="middle" font-size="10" fill="#8c959f" font-family="ui-monospace, SFMono-Regular, 'SF Mono', Menlo, monospace">07-04</text><text x="404.0" y="248" text-anchor="middle" font-size="10" fill="#8c959f" font-family="ui-monospace, SFMono-Regular, 'SF Mono', Menlo, monospace">06-07</text><text x="492.0" y="248" text-anchor="middle" font-size="10" fill="#8c959f" font-family="ui-monospace, SFMono-Regular, 'SF Mono', Menlo, monospace">06-13</text>

  <!-- legend -->
  <rect x="60" y="262" width="16" height="3" fill="#4e79a7" rx="1"/><text x="80" y="268" font-size="11" fill="#57606a" font-family="-apple-system, BlinkMacSystemFont, 'Segoe UI', sans-serif">Total clones (1,851)</text><line x1="230" y1="264" x2="246" y2="264" stroke="#f28e2b" stroke-width="2" stroke-dasharray="5,3"/><text x="250" y="268" font-size="11" fill="#57606a" font-family="-apple-system, BlinkMacSystemFont, 'Segoe UI', sans-serif">Unique cloners</text>

</svg>