<svg xmlns="http://www.w3.org/2000/svg" viewBox="0 0 820 280" width="820" height="280">

  <!-- title -->
  <text x="52" y="18" font-size="13" font-weight="600"
        fill="#24292f" font-family="-apple-system, BlinkMacSystemFont, 'Segoe UI', sans-serif"
        >Clone traffic — vellum</text>
  <text x="800" y="18" font-size="10" fill="#8c959f"
        font-family="ui-monospace, SFMono-Regular, 'SF Mono', Menlo, monospace" text-anchor="end">2026-06-30</text>

  <!-- grid -->
  <line x1="52" y1="232.0" x2="800" y2="232.0" stroke="#e8e8e8" stroke-width="1"/><line x1="52" y1="193.9" x2="800" y2="193.9" stroke="#e8e8e8" stroke-width="1"/><line x1="52" y1="155.7" x2="800" y2="155.7" stroke="#e8e8e8" stroke-width="1"/><line x1="52" y1="117.6" x2="800" y2="117.6" stroke="#e8e8e8" stroke-width="1"/><line x1="52" y1="79.5" x2="800" y2="79.5" stroke="#e8e8e8" stroke-width="1"/><line x1="52" y1="41.3" x2="800" y2="41.3" stroke="#e8e8e8" stroke-width="1"/><line x1="52" y1="3.2" x2="800" y2="3.2" stroke="#e8e8e8" stroke-width="1"/>

  <!-- area fill -->
  <path d="M52.0,232.0 L52.0,232.0 L68.6,232.0 L85.2,232.0 L101.9,232.0 L118.5,232.0 L135.1,232.0 L151.7,232.0 L168.4,232.0 L185.0,232.0 L201.6,232.0 L218.2,232.0 L234.8,232.0 L251.5,232.0 L268.1,172.3 L284.7,28.0 L301.3,75.7 L318.0,187.5 L334.6,176.1 L351.2,60.4 L367.8,62.3 L384.4,190.7 L401.1,135.4 L417.7,209.8 L434.3,220.6 L450.9,230.7 L467.6,232.0 L484.2,231.4 L500.8,228.8 L517.4,232.0 L534.0,232.0 L550.7,232.0 L567.3,203.4 L583.9,232.0 L600.5,203.4 L617.2,221.8 L633.8,172.9 L650.4,228.2 L667.0,232.0 L683.6,230.1 L700.3,231.4 L716.9,232.0 L733.5,230.7 L750.1,232.0 L766.8,231.4 L783.4,231.4 L800.0,231.4 L800.0,232.0 L52.0,232.0Z" fill="#4e79a7" opacity="0.12"/>

  <!-- lines -->
  <polyline points="52.0,232.0 68.6,232.0 85.2,232.0 101.9,232.0 118.5,232.0 135.1,232.0 151.7,232.0 168.4,232.0 185.0,232.0 201.6,232.0 218.2,232.0 234.8,232.0 251.5,232.0 268.1,172.3 284.7,28.0 301.3,75.7 318.0,187.5 334.6,176.1 351.2,60.4 367.8,62.3 384.4,190.7 401.1,135.4 417.7,209.8 434.3,220.6 450.9,230.7 467.6,232.0 484.2,231.4 500.8,228.8 517.4,232.0 534.0,232.0 550.7,232.0 567.3,203.4 583.9,232.0 600.5,203.4 617.2,221.8 633.8,172.9 650.4,228.2 667.0,232.0 683.6,230.1 700.3,231.4 716.9,232.0 733.5,230.7 750.1,232.0 766.8,231.4 783.4,231.4 800.0,231.4"
            fill="none" stroke="#4e79a7"
            stroke-width="2" stroke-linejoin="round"/>
  <polyline points="52.0,232.0 68.6,232.0 85.2,232.0 101.9,232.0 118.5,232.0 135.1,232.0 151.7,232.0 168.4,232.0 185.0,232.0 201.6,232.0 218.2,232.0 234.8,232.0 251.5,232.0 268.1,217.4 284.7,151.3 301.3,185.0 318.0,221.8 334.6,209.1 351.2,175.4 367.8,182.4 384.4,209.1 401.1,189.4 417.7,225.6 434.3,228.2 450.9,231.4 467.6,232.0 484.2,231.4 500.8,230.1 517.4,232.0 534.0,232.0 550.7,232.0 567.3,227.6 583.9,232.0 600.5,226.9 617.2,229.5 633.8,211.7 650.4,228.2 667.0,232.0 683.6,230.1 700.3,231.4 716.9,232.0 733.5,230.7 750.1,232.0 766.8,231.4 783.4,231.4 800.0,231.4"
            fill="none" stroke="#f28e2b"
            stroke-width="2" stroke-linejoin="round"
            stroke-dasharray="5,3"/>

  <!-- dots -->
  <circle cx="52.0" cy="232.0" r="3" fill="#4e79a7"/><circle cx="68.6" cy="232.0" r="3" fill="#4e79a7"/><circle cx="85.2" cy="232.0" r="3" fill="#4e79a7"/><circle cx="101.9" cy="232.0" r="3" fill="#4e79a7"/><circle cx="118.5" cy="232.0" r="3" fill="#4e79a7"/><circle cx="135.1" cy="232.0" r="3" fill="#4e79a7"/><circle cx="151.7" cy="232.0" r="3" fill="#4e79a7"/><circle cx="168.4" cy="232.0" r="3" fill="#4e79a7"/><circle cx="185.0" cy="232.0" r="3" fill="#4e79a7"/><circle cx="201.6" cy="232.0" r="3" fill="#4e79a7"/><circle cx="218.2" cy="232.0" r="3" fill="#4e79a7"/><circle cx="234.8" cy="232.0" r="3" fill="#4e79a7"/><circle cx="251.5" cy="232.0" r="3" fill="#4e79a7"/><circle cx="268.1" cy="172.3" r="3" fill="#4e79a7"/><circle cx="284.7" cy="28.0" r="3" fill="#4e79a7"/><circle cx="301.3" cy="75.7" r="3" fill="#4e79a7"/><circle cx="318.0" cy="187.5" r="3" fill="#4e79a7"/><circle cx="334.6" cy="176.1" r="3" fill="#4e79a7"/><circle cx="351.2" cy="60.4" r="3" fill="#4e79a7"/><circle cx="367.8" cy="62.3" r="3" fill="#4e79a7"/><circle cx="384.4" cy="190.7" r="3" fill="#4e79a7"/><circle cx="401.1" cy="135.4" r="3" fill="#4e79a7"/><circle cx="417.7" cy="209.8" r="3" fill="#4e79a7"/><circle cx="434.3" cy="220.6" r="3" fill="#4e79a7"/><circle cx="450.9" cy="230.7" r="3" fill="#4e79a7"/><circle cx="467.6" cy="232.0" r="3" fill="#4e79a7"/><circle cx="484.2" cy="231.4" r="3" fill="#4e79a7"/><circle cx="500.8" cy="228.8" r="3" fill="#4e79a7"/><circle cx="517.4" cy="232.0" r="3" fill="#4e79a7"/><circle cx="534.0" cy="232.0" r="3" fill="#4e79a7"/><circle cx="550.7" cy="232.0" r="3" fill="#4e79a7"/><circle cx="567.3" cy="203.4" r="3" fill="#4e79a7"/><circle cx="583.9" cy="232.0" r="3" fill="#4e79a7"/><circle cx="600.5" cy="203.4" r="3" fill="#4e79a7"/><circle cx="617.2" cy="221.8" r="3" fill="#4e79a7"/><circle cx="633.8" cy="172.9" r="3" fill="#4e79a7"/><circle cx="650.4" cy="228.2" r="3" fill="#4e79a7"/><circle cx="667.0" cy="232.0" r="3" fill="#4e79a7"/><circle cx="683.6" cy="230.1" r="3" fill="#4e79a7"/><circle cx="700.3" cy="231.4" r="3" fill="#4e79a7"/><circle cx="716.9" cy="232.0" r="3" fill="#4e79a7"/><circle cx="733.5" cy="230.7" r="3" fill="#4e79a7"/><circle cx="750.1" cy="232.0" r="3" fill="#4e79a7"/><circle cx="766.8" cy="231.4" r="3" fill="#4e79a7"/><circle cx="783.4" cy="231.4" r="3" fill="#4e79a7"/><circle cx="800.0" cy="231.4" r="3" fill="#4e79a7"/>
  <circle cx="52.0" cy="232.0" r="3" fill="#f28e2b"/><circle cx="68.6" cy="232.0" r="3" fill="#f28e2b"/><circle cx="85.2" cy="232.0" r="3" fill="#f28e2b"/><circle cx="101.9" cy="232.0" r="3" fill="#f28e2b"/><circle cx="118.5" cy="232.0" r="3" fill="#f28e2b"/><circle cx="135.1" cy="232.0" r="3" fill="#f28e2b"/><circle cx="151.7" cy="232.0" r="3" fill="#f28e2b"/><circle cx="168.4" cy="232.0" r="3" fill="#f28e2b"/><circle cx="185.0" cy="232.0" r="3" fill="#f28e2b"/><circle cx="201.6" cy="232.0" r="3" fill="#f28e2b"/><circle cx="218.2" cy="232.0" r="3" fill="#f28e2b"/><circle cx="234.8" cy="232.0" r="3" fill="#f28e2b"/><circle cx="251.5" cy="232.0" r="3" fill="#f28e2b"/><circle cx="268.1" cy="217.4" r="3" fill="#f28e2b"/><circle cx="284.7" cy="151.3" r="3" fill="#f28e2b"/><circle cx="301.3" cy="185.0" r="3" fill="#f28e2b"/><circle cx="318.0" cy="221.8" r="3" fill="#f28e2b"/><circle cx="334.6" cy="209.1" r="3" fill="#f28e2b"/><circle cx="351.2" cy="175.4" r="3" fill="#f28e2b"/><circle cx="367.8" cy="182.4" r="3" fill="#f28e2b"/><circle cx="384.4" cy="209.1" r="3" fill="#f28e2b"/><circle cx="401.1" cy="189.4" r="3" fill="#f28e2b"/><circle cx="417.7" cy="225.6" r="3" fill="#f28e2b"/><circle cx="434.3" cy="228.2" r="3" fill="#f28e2b"/><circle cx="450.9" cy="231.4" r="3" fill="#f28e2b"/><circle cx="467.6" cy="232.0" r="3" fill="#f28e2b"/><circle cx="484.2" cy="231.4" r="3" fill="#f28e2b"/><circle cx="500.8" cy="230.1" r="3" fill="#f28e2b"/><circle cx="517.4" cy="232.0" r="3" fill="#f28e2b"/><circle cx="534.0" cy="232.0" r="3" fill="#f28e2b"/><circle cx="550.7" cy="232.0" r="3" fill="#f28e2b"/><circle cx="567.3" cy="227.6" r="3" fill="#f28e2b"/><circle cx="583.9" cy="232.0" r="3" fill="#f28e2b"/><circle cx="600.5" cy="226.9" r="3" fill="#f28e2b"/><circle cx="617.2" cy="229.5" r="3" fill="#f28e2b"/><circle cx="633.8" cy="211.7" r="3" fill="#f28e2b"/><circle cx="650.4" cy="228.2" r="3" fill="#f28e2b"/><circle cx="667.0" cy="232.0" r="3" fill="#f28e2b"/><circle cx="683.6" cy="230.1" r="3" fill="#f28e2b"/><circle cx="700.3" cy="231.4" r="3" fill="#f28e2b"/><circle cx="716.9" cy="232.0" r="3" fill="#f28e2b"/><circle cx="733.5" cy="230.7" r="3" fill="#f28e2b"/><circle cx="750.1" cy="232.0" r="3" fill="#f28e2b"/><circle cx="766.8" cy="231.4" r="3" fill="#f28e2b"/><circle cx="783.4" cy="231.4" r="3" fill="#f28e2b"/><circle cx="800.0" cy="231.4" r="3" fill="#f28e2b"/>

  <!-- axes -->
  <line x1="52" y1="28" x2="52" y2="232"
        stroke="#cccccc" stroke-width="1"/>
  <line x1="52" y1="232" x2="800" y2="232"
        stroke="#cccccc" stroke-width="1"/>

  <!-- y-axis labels -->
  <text x="47" y="236.0" text-anchor="end" font-size="10" fill="#57606a" font-family="ui-monospace, SFMono-Regular, 'SF Mono', Menlo, monospace">0</text><text x="47" y="197.9" text-anchor="end" font-size="10" fill="#57606a" font-family="ui-monospace, SFMono-Regular, 'SF Mono', Menlo, monospace">60</text><text x="47" y="159.7" text-anchor="end" font-size="10" fill="#57606a" font-family="ui-monospace, SFMono-Regular, 'SF Mono', Menlo, monospace">120</text><text x="47" y="121.6" text-anchor="end" font-size="10" fill="#57606a" font-family="ui-monospace, SFMono-Regular, 'SF Mono', Menlo, monospace">180</text><text x="47" y="83.5" text-anchor="end" font-size="10" fill="#57606a" font-family="ui-monospace, SFMono-Regular, 'SF Mono', Menlo, monospace">240</text><text x="47" y="45.3" text-anchor="end" font-size="10" fill="#57606a" font-family="ui-monospace, SFMono-Regular, 'SF Mono', Menlo, monospace">300</text><text x="47" y="7.2" text-anchor="end" font-size="10" fill="#57606a" font-family="ui-monospace, SFMono-Regular, 'SF Mono', Menlo, monospace">360</text>

  <!-- x-axis labels -->
  <text x="52.0" y="248" text-anchor="middle" font-size="10" fill="#8c959f" font-family="ui-monospace, SFMono-Regular, 'SF Mono', Menlo, monospace">05-14</text><text x="633.8" y="248" text-anchor="middle" font-size="10" fill="#8c959f" font-family="ui-monospace, SFMono-Regular, 'SF Mono', Menlo, monospace">06-18</text><text x="135.1" y="248" text-anchor="middle" font-size="10" fill="#8c959f" font-family="ui-monospace, SFMono-Regular, 'SF Mono', Menlo, monospace">05-19</text><text x="716.9" y="248" text-anchor="middle" font-size="10" fill="#8c959f" font-family="ui-monospace, SFMono-Regular, 'SF Mono', Menlo, monospace">06-23</text><text x="218.2" y="248" text-anchor="middle" font-size="10" fill="#8c959f" font-family="ui-monospace, SFMono-Regular, 'SF Mono', Menlo, monospace">05-24</text><text x="800.0" y="248" text-anchor="middle" font-size="10" fill="#8c959f" font-family="ui-monospace, SFMono-Regular, 'SF Mono', Menlo, monospace">06-28</text><text x="301.3" y="248" text-anchor="middle" font-size="10" fill="#8c959f" font-family="ui-monospace, SFMono-Regular, 'SF Mono', Menlo, monospace">05-29</text><text x="384.4" y="248" text-anchor="middle" font-size="10" fill="#8c959f" font-family="ui-monospace, SFMono-Regular, 'SF Mono', Menlo, monospace">06-03</text><text x="467.6" y="248" text-anchor="middle" font-size="10" fill="#8c959f" font-family="ui-monospace, SFMono-Regular, 'SF Mono', Menlo, monospace">06-08</text><text x="550.7" y="248" text-anchor="middle" font-size="10" fill="#8c959f" font-family="ui-monospace, SFMono-Regular, 'SF Mono', Menlo, monospace">06-13</text>

  <!-- legend -->
  <rect x="60" y="262" width="16" height="3" fill="#4e79a7" rx="1"/><text x="80" y="268" font-size="11" fill="#57606a" font-family="-apple-system, BlinkMacSystemFont, 'Segoe UI', sans-serif">Total clones (1,848)</text><line x1="230" y1="264" x2="246" y2="264" stroke="#f28e2b" stroke-width="2" stroke-dasharray="5,3"/><text x="250" y="268" font-size="11" fill="#57606a" font-family="-apple-system, BlinkMacSystemFont, 'Segoe UI', sans-serif">Unique cloners</text>

</svg>