<svg xmlns="http://www.w3.org/2000/svg" viewBox="0 0 820 280" width="820" height="280">

  <!-- title -->
  <text x="52" y="18" font-size="13" font-weight="600"
        fill="#24292f" font-family="-apple-system, BlinkMacSystemFont, 'Segoe UI', sans-serif"
        >Clone traffic — vellum</text>
  <text x="800" y="18" font-size="10" fill="#8c959f"
        font-family="ui-monospace, SFMono-Regular, 'SF Mono', Menlo, monospace" text-anchor="end">2026-06-19</text>

  <!-- grid -->
  <line x1="52" y1="232.0" x2="800" y2="232.0" stroke="#e8e8e8" stroke-width="1"/><line x1="52" y1="193.9" x2="800" y2="193.9" stroke="#e8e8e8" stroke-width="1"/><line x1="52" y1="155.7" x2="800" y2="155.7" stroke="#e8e8e8" stroke-width="1"/><line x1="52" y1="117.6" x2="800" y2="117.6" stroke="#e8e8e8" stroke-width="1"/><line x1="52" y1="79.5" x2="800" y2="79.5" stroke="#e8e8e8" stroke-width="1"/><line x1="52" y1="41.3" x2="800" y2="41.3" stroke="#e8e8e8" stroke-width="1"/><line x1="52" y1="3.2" x2="800" y2="3.2" stroke="#e8e8e8" stroke-width="1"/>

  <!-- area fill -->
  <path d="M52.0,232.0 L52.0,232.0 L74.0,232.0 L96.0,232.0 L118.0,232.0 L140.0,232.0 L162.0,232.0 L184.0,232.0 L206.0,232.0 L228.0,232.0 L250.0,232.0 L272.0,232.0 L294.0,232.0 L316.0,232.0 L338.0,172.3 L360.0,28.0 L382.0,75.7 L404.0,187.5 L426.0,176.1 L448.0,60.4 L470.0,62.3 L492.0,190.7 L514.0,135.4 L536.0,209.8 L558.0,220.6 L580.0,230.7 L602.0,232.0 L624.0,231.4 L646.0,228.8 L668.0,232.0 L690.0,232.0 L712.0,232.0 L734.0,203.4 L756.0,232.0 L778.0,203.4 L800.0,221.8 L800.0,232.0 L52.0,232.0Z" fill="#4e79a7" opacity="0.12"/>

  <!-- lines -->
  <polyline points="52.0,232.0 74.0,232.0 96.0,232.0 118.0,232.0 140.0,232.0 162.0,232.0 184.0,232.0 206.0,232.0 228.0,232.0 250.0,232.0 272.0,232.0 294.0,232.0 316.0,232.0 338.0,172.3 360.0,28.0 382.0,75.7 404.0,187.5 426.0,176.1 448.0,60.4 470.0,62.3 492.0,190.7 514.0,135.4 536.0,209.8 558.0,220.6 580.0,230.7 602.0,232.0 624.0,231.4 646.0,228.8 668.0,232.0 690.0,232.0 712.0,232.0 734.0,203.4 756.0,232.0 778.0,203.4 800.0,221.8"
            fill="none" stroke="#4e79a7"
            stroke-width="2" stroke-linejoin="round"/>
  <polyline points="52.0,232.0 74.0,232.0 96.0,232.0 118.0,232.0 140.0,232.0 162.0,232.0 184.0,232.0 206.0,232.0 228.0,232.0 250.0,232.0 272.0,232.0 294.0,232.0 316.0,232.0 338.0,217.4 360.0,151.3 382.0,185.0 404.0,221.8 426.0,209.1 448.0,175.4 470.0,182.4 492.0,209.1 514.0,189.4 536.0,225.6 558.0,228.2 580.0,231.4 602.0,232.0 624.0,231.4 646.0,230.1 668.0,232.0 690.0,232.0 712.0,232.0 734.0,227.6 756.0,232.0 778.0,226.9 800.0,229.5"
            fill="none" stroke="#f28e2b"
            stroke-width="2" stroke-linejoin="round"
            stroke-dasharray="5,3"/>

  <!-- dots -->
  <circle cx="52.0" cy="232.0" r="3" fill="#4e79a7"/><circle cx="74.0" cy="232.0" r="3" fill="#4e79a7"/><circle cx="96.0" cy="232.0" r="3" fill="#4e79a7"/><circle cx="118.0" cy="232.0" r="3" fill="#4e79a7"/><circle cx="140.0" cy="232.0" r="3" fill="#4e79a7"/><circle cx="162.0" cy="232.0" r="3" fill="#4e79a7"/><circle cx="184.0" cy="232.0" r="3" fill="#4e79a7"/><circle cx="206.0" cy="232.0" r="3" fill="#4e79a7"/><circle cx="228.0" cy="232.0" r="3" fill="#4e79a7"/><circle cx="250.0" cy="232.0" r="3" fill="#4e79a7"/><circle cx="272.0" cy="232.0" r="3" fill="#4e79a7"/><circle cx="294.0" cy="232.0" r="3" fill="#4e79a7"/><circle cx="316.0" cy="232.0" r="3" fill="#4e79a7"/><circle cx="338.0" cy="172.3" r="3" fill="#4e79a7"/><circle cx="360.0" cy="28.0" r="3" fill="#4e79a7"/><circle cx="382.0" cy="75.7" r="3" fill="#4e79a7"/><circle cx="404.0" cy="187.5" r="3" fill="#4e79a7"/><circle cx="426.0" cy="176.1" r="3" fill="#4e79a7"/><circle cx="448.0" cy="60.4" r="3" fill="#4e79a7"/><circle cx="470.0" cy="62.3" r="3" fill="#4e79a7"/><circle cx="492.0" cy="190.7" r="3" fill="#4e79a7"/><circle cx="514.0" cy="135.4" r="3" fill="#4e79a7"/><circle cx="536.0" cy="209.8" r="3" fill="#4e79a7"/><circle cx="558.0" cy="220.6" r="3" fill="#4e79a7"/><circle cx="580.0" cy="230.7" r="3" fill="#4e79a7"/><circle cx="602.0" cy="232.0" r="3" fill="#4e79a7"/><circle cx="624.0" cy="231.4" r="3" fill="#4e79a7"/><circle cx="646.0" cy="228.8" r="3" fill="#4e79a7"/><circle cx="668.0" cy="232.0" r="3" fill="#4e79a7"/><circle cx="690.0" cy="232.0" r="3" fill="#4e79a7"/><circle cx="712.0" cy="232.0" r="3" fill="#4e79a7"/><circle cx="734.0" cy="203.4" r="3" fill="#4e79a7"/><circle cx="756.0" cy="232.0" r="3" fill="#4e79a7"/><circle cx="778.0" cy="203.4" r="3" fill="#4e79a7"/><circle cx="800.0" cy="221.8" r="3" fill="#4e79a7"/>
  <circle cx="52.0" cy="232.0" r="3" fill="#f28e2b"/><circle cx="74.0" cy="232.0" r="3" fill="#f28e2b"/><circle cx="96.0" cy="232.0" r="3" fill="#f28e2b"/><circle cx="118.0" cy="232.0" r="3" fill="#f28e2b"/><circle cx="140.0" cy="232.0" r="3" fill="#f28e2b"/><circle cx="162.0" cy="232.0" r="3" fill="#f28e2b"/><circle cx="184.0" cy="232.0" r="3" fill="#f28e2b"/><circle cx="206.0" cy="232.0" r="3" fill="#f28e2b"/><circle cx="228.0" cy="232.0" r="3" fill="#f28e2b"/><circle cx="250.0" cy="232.0" r="3" fill="#f28e2b"/><circle cx="272.0" cy="232.0" r="3" fill="#f28e2b"/><circle cx="294.0" cy="232.0" r="3" fill="#f28e2b"/><circle cx="316.0" cy="232.0" r="3" fill="#f28e2b"/><circle cx="338.0" cy="217.4" r="3" fill="#f28e2b"/><circle cx="360.0" cy="151.3" r="3" fill="#f28e2b"/><circle cx="382.0" cy="185.0" r="3" fill="#f28e2b"/><circle cx="404.0" cy="221.8" r="3" fill="#f28e2b"/><circle cx="426.0" cy="209.1" r="3" fill="#f28e2b"/><circle cx="448.0" cy="175.4" r="3" fill="#f28e2b"/><circle cx="470.0" cy="182.4" r="3" fill="#f28e2b"/><circle cx="492.0" cy="209.1" r="3" fill="#f28e2b"/><circle cx="514.0" cy="189.4" r="3" fill="#f28e2b"/><circle cx="536.0" cy="225.6" r="3" fill="#f28e2b"/><circle cx="558.0" cy="228.2" r="3" fill="#f28e2b"/><circle cx="580.0" cy="231.4" r="3" fill="#f28e2b"/><circle cx="602.0" cy="232.0" r="3" fill="#f28e2b"/><circle cx="624.0" cy="231.4" r="3" fill="#f28e2b"/><circle cx="646.0" cy="230.1" r="3" fill="#f28e2b"/><circle cx="668.0" cy="232.0" r="3" fill="#f28e2b"/><circle cx="690.0" cy="232.0" r="3" fill="#f28e2b"/><circle cx="712.0" cy="232.0" r="3" fill="#f28e2b"/><circle cx="734.0" cy="227.6" r="3" fill="#f28e2b"/><circle cx="756.0" cy="232.0" r="3" fill="#f28e2b"/><circle cx="778.0" cy="226.9" r="3" fill="#f28e2b"/><circle cx="800.0" cy="229.5" r="3" fill="#f28e2b"/>

  <!-- axes -->
  <line x1="52" y1="28" x2="52" y2="232"
        stroke="#cccccc" stroke-width="1"/>
  <line x1="52" y1="232" x2="800" y2="232"
        stroke="#cccccc" stroke-width="1"/>

  <!-- y-axis labels -->
  <text x="47" y="236.0" text-anchor="end" font-size="10" fill="#57606a" font-family="ui-monospace, SFMono-Regular, 'SF Mono', Menlo, monospace">0</text><text x="47" y="197.9" text-anchor="end" font-size="10" fill="#57606a" font-family="ui-monospace, SFMono-Regular, 'SF Mono', Menlo, monospace">60</text><text x="47" y="159.7" text-anchor="end" font-size="10" fill="#57606a" font-family="ui-monospace, SFMono-Regular, 'SF Mono', Menlo, monospace">120</text><text x="47" y="121.6" text-anchor="end" font-size="10" fill="#57606a" font-family="ui-monospace, SFMono-Regular, 'SF Mono', Menlo, monospace">180</text><text x="47" y="83.5" text-anchor="end" font-size="10" fill="#57606a" font-family="ui-monospace, SFMono-Regular, 'SF Mono', Menlo, monospace">240</text><text x="47" y="45.3" text-anchor="end" font-size="10" fill="#57606a" font-family="ui-monospace, SFMono-Regular, 'SF Mono', Menlo, monospace">300</text><text x="47" y="7.2" text-anchor="end" font-size="10" fill="#57606a" font-family="ui-monospace, SFMono-Regular, 'SF Mono', Menlo, monospace">360</text>

  <!-- x-axis labels -->
  <text x="52.0" y="248" text-anchor="middle" font-size="10" fill="#8c959f" font-family="ui-monospace, SFMono-Regular, 'SF Mono', Menlo, monospace">05-14</text><text x="756.0" y="248" text-anchor="middle" font-size="10" fill="#8c959f" font-family="ui-monospace, SFMono-Regular, 'SF Mono', Menlo, monospace">06-15</text><text x="800.0" y="248" text-anchor="middle" font-size="10" fill="#8c959f" font-family="ui-monospace, SFMono-Regular, 'SF Mono', Menlo, monospace">06-17</text><text x="140.0" y="248" text-anchor="middle" font-size="10" fill="#8c959f" font-family="ui-monospace, SFMono-Regular, 'SF Mono', Menlo, monospace">05-18</text><text x="228.0" y="248" text-anchor="middle" font-size="10" fill="#8c959f" font-family="ui-monospace, SFMono-Regular, 'SF Mono', Menlo, monospace">05-22</text><text x="316.0" y="248" text-anchor="middle" font-size="10" fill="#8c959f" font-family="ui-monospace, SFMono-Regular, 'SF Mono', Menlo, monospace">05-26</text><text x="404.0" y="248" text-anchor="middle" font-size="10" fill="#8c959f" font-family="ui-monospace, SFMono-Regular, 'SF Mono', Menlo, monospace">05-30</text><text x="492.0" y="248" text-anchor="middle" font-size="10" fill="#8c959f" font-family="ui-monospace, SFMono-Regular, 'SF Mono', Menlo, monospace">06-03</text><text x="580.0" y="248" text-anchor="middle" font-size="10" fill="#8c959f" font-family="ui-monospace, SFMono-Regular, 'SF Mono', Menlo, monospace">06-07</text><text x="668.0" y="248" text-anchor="middle" font-size="10" fill="#8c959f" font-family="ui-monospace, SFMono-Regular, 'SF Mono', Menlo, monospace">06-11</text>

  <!-- legend -->
  <rect x="60" y="262" width="16" height="3" fill="#4e79a7" rx="1"/><text x="80" y="268" font-size="11" fill="#57606a" font-family="-apple-system, BlinkMacSystemFont, 'Segoe UI', sans-serif">Total clones (1,740)</text><line x1="230" y1="264" x2="246" y2="264" stroke="#f28e2b" stroke-width="2" stroke-dasharray="5,3"/><text x="250" y="268" font-size="11" fill="#57606a" font-family="-apple-system, BlinkMacSystemFont, 'Segoe UI', sans-serif">Unique cloners</text>

</svg>