<svg xmlns="http://www.w3.org/2000/svg" viewBox="0 0 820 280" width="820" height="280">

  <!-- title -->
  <text x="52" y="18" font-size="13" font-weight="600"
        fill="#24292f" font-family="-apple-system, BlinkMacSystemFont, 'Segoe UI', sans-serif"
        >Clone traffic — vellum</text>
  <text x="800" y="18" font-size="10" fill="#8c959f"
        font-family="ui-monospace, SFMono-Regular, 'SF Mono', Menlo, monospace" text-anchor="end">2026-06-16</text>

  <!-- grid -->
  <line x1="52" y1="232.0" x2="800" y2="232.0" stroke="#e8e8e8" stroke-width="1"/><line x1="52" y1="193.9" x2="800" y2="193.9" stroke="#e8e8e8" stroke-width="1"/><line x1="52" y1="155.7" x2="800" y2="155.7" stroke="#e8e8e8" stroke-width="1"/><line x1="52" y1="117.6" x2="800" y2="117.6" stroke="#e8e8e8" stroke-width="1"/><line x1="52" y1="79.5" x2="800" y2="79.5" stroke="#e8e8e8" stroke-width="1"/><line x1="52" y1="41.3" x2="800" y2="41.3" stroke="#e8e8e8" stroke-width="1"/><line x1="52" y1="3.2" x2="800" y2="3.2" stroke="#e8e8e8" stroke-width="1"/>

  <!-- area fill -->
  <path d="M52.0,232.0 L52.0,232.0 L76.1,232.0 L100.3,232.0 L124.4,232.0 L148.5,232.0 L172.6,232.0 L196.8,232.0 L220.9,232.0 L245.0,232.0 L269.2,232.0 L293.3,232.0 L317.4,232.0 L341.5,232.0 L365.7,172.3 L389.8,28.0 L413.9,75.7 L438.1,187.5 L462.2,176.1 L486.3,60.4 L510.5,62.3 L534.6,190.7 L558.7,135.4 L582.8,209.8 L607.0,220.6 L631.1,230.7 L655.2,232.0 L679.4,231.4 L703.5,228.8 L727.6,232.0 L751.7,232.0 L775.9,232.0 L800.0,203.4 L800.0,232.0 L52.0,232.0Z" fill="#4e79a7" opacity="0.12"/>

  <!-- lines -->
  <polyline points="52.0,232.0 76.1,232.0 100.3,232.0 124.4,232.0 148.5,232.0 172.6,232.0 196.8,232.0 220.9,232.0 245.0,232.0 269.2,232.0 293.3,232.0 317.4,232.0 341.5,232.0 365.7,172.3 389.8,28.0 413.9,75.7 438.1,187.5 462.2,176.1 486.3,60.4 510.5,62.3 534.6,190.7 558.7,135.4 582.8,209.8 607.0,220.6 631.1,230.7 655.2,232.0 679.4,231.4 703.5,228.8 727.6,232.0 751.7,232.0 775.9,232.0 800.0,203.4"
            fill="none" stroke="#4e79a7"
            stroke-width="2" stroke-linejoin="round"/>
  <polyline points="52.0,232.0 76.1,232.0 100.3,232.0 124.4,232.0 148.5,232.0 172.6,232.0 196.8,232.0 220.9,232.0 245.0,232.0 269.2,232.0 293.3,232.0 317.4,232.0 341.5,232.0 365.7,217.4 389.8,151.3 413.9,185.0 438.1,221.8 462.2,209.1 486.3,175.4 510.5,182.4 534.6,209.1 558.7,189.4 582.8,225.6 607.0,228.2 631.1,231.4 655.2,232.0 679.4,231.4 703.5,230.1 727.6,232.0 751.7,232.0 775.9,232.0 800.0,227.6"
            fill="none" stroke="#f28e2b"
            stroke-width="2" stroke-linejoin="round"
            stroke-dasharray="5,3"/>

  <!-- dots -->
  <circle cx="52.0" cy="232.0" r="3" fill="#4e79a7"/><circle cx="76.1" cy="232.0" r="3" fill="#4e79a7"/><circle cx="100.3" cy="232.0" r="3" fill="#4e79a7"/><circle cx="124.4" cy="232.0" r="3" fill="#4e79a7"/><circle cx="148.5" cy="232.0" r="3" fill="#4e79a7"/><circle cx="172.6" cy="232.0" r="3" fill="#4e79a7"/><circle cx="196.8" cy="232.0" r="3" fill="#4e79a7"/><circle cx="220.9" cy="232.0" r="3" fill="#4e79a7"/><circle cx="245.0" cy="232.0" r="3" fill="#4e79a7"/><circle cx="269.2" cy="232.0" r="3" fill="#4e79a7"/><circle cx="293.3" cy="232.0" r="3" fill="#4e79a7"/><circle cx="317.4" cy="232.0" r="3" fill="#4e79a7"/><circle cx="341.5" cy="232.0" r="3" fill="#4e79a7"/><circle cx="365.7" cy="172.3" r="3" fill="#4e79a7"/><circle cx="389.8" cy="28.0" r="3" fill="#4e79a7"/><circle cx="413.9" cy="75.7" r="3" fill="#4e79a7"/><circle cx="438.1" cy="187.5" r="3" fill="#4e79a7"/><circle cx="462.2" cy="176.1" r="3" fill="#4e79a7"/><circle cx="486.3" cy="60.4" r="3" fill="#4e79a7"/><circle cx="510.5" cy="62.3" r="3" fill="#4e79a7"/><circle cx="534.6" cy="190.7" r="3" fill="#4e79a7"/><circle cx="558.7" cy="135.4" r="3" fill="#4e79a7"/><circle cx="582.8" cy="209.8" r="3" fill="#4e79a7"/><circle cx="607.0" cy="220.6" r="3" fill="#4e79a7"/><circle cx="631.1" cy="230.7" r="3" fill="#4e79a7"/><circle cx="655.2" cy="232.0" r="3" fill="#4e79a7"/><circle cx="679.4" cy="231.4" r="3" fill="#4e79a7"/><circle cx="703.5" cy="228.8" r="3" fill="#4e79a7"/><circle cx="727.6" cy="232.0" r="3" fill="#4e79a7"/><circle cx="751.7" cy="232.0" r="3" fill="#4e79a7"/><circle cx="775.9" cy="232.0" r="3" fill="#4e79a7"/><circle cx="800.0" cy="203.4" r="3" fill="#4e79a7"/>
  <circle cx="52.0" cy="232.0" r="3" fill="#f28e2b"/><circle cx="76.1" cy="232.0" r="3" fill="#f28e2b"/><circle cx="100.3" cy="232.0" r="3" fill="#f28e2b"/><circle cx="124.4" cy="232.0" r="3" fill="#f28e2b"/><circle cx="148.5" cy="232.0" r="3" fill="#f28e2b"/><circle cx="172.6" cy="232.0" r="3" fill="#f28e2b"/><circle cx="196.8" cy="232.0" r="3" fill="#f28e2b"/><circle cx="220.9" cy="232.0" r="3" fill="#f28e2b"/><circle cx="245.0" cy="232.0" r="3" fill="#f28e2b"/><circle cx="269.2" cy="232.0" r="3" fill="#f28e2b"/><circle cx="293.3" cy="232.0" r="3" fill="#f28e2b"/><circle cx="317.4" cy="232.0" r="3" fill="#f28e2b"/><circle cx="341.5" cy="232.0" r="3" fill="#f28e2b"/><circle cx="365.7" cy="217.4" r="3" fill="#f28e2b"/><circle cx="389.8" cy="151.3" r="3" fill="#f28e2b"/><circle cx="413.9" cy="185.0" r="3" fill="#f28e2b"/><circle cx="438.1" cy="221.8" r="3" fill="#f28e2b"/><circle cx="462.2" cy="209.1" r="3" fill="#f28e2b"/><circle cx="486.3" cy="175.4" r="3" fill="#f28e2b"/><circle cx="510.5" cy="182.4" r="3" fill="#f28e2b"/><circle cx="534.6" cy="209.1" r="3" fill="#f28e2b"/><circle cx="558.7" cy="189.4" r="3" fill="#f28e2b"/><circle cx="582.8" cy="225.6" r="3" fill="#f28e2b"/><circle cx="607.0" cy="228.2" r="3" fill="#f28e2b"/><circle cx="631.1" cy="231.4" r="3" fill="#f28e2b"/><circle cx="655.2" cy="232.0" r="3" fill="#f28e2b"/><circle cx="679.4" cy="231.4" r="3" fill="#f28e2b"/><circle cx="703.5" cy="230.1" r="3" fill="#f28e2b"/><circle cx="727.6" cy="232.0" r="3" fill="#f28e2b"/><circle cx="751.7" cy="232.0" r="3" fill="#f28e2b"/><circle cx="775.9" cy="232.0" r="3" fill="#f28e2b"/><circle cx="800.0" cy="227.6" r="3" fill="#f28e2b"/>

  <!-- axes -->
  <line x1="52" y1="28" x2="52" y2="232"
        stroke="#cccccc" stroke-width="1"/>
  <line x1="52" y1="232" x2="800" y2="232"
        stroke="#cccccc" stroke-width="1"/>

  <!-- y-axis labels -->
  <text x="47" y="236.0" text-anchor="end" font-size="10" fill="#57606a" font-family="ui-monospace, SFMono-Regular, 'SF Mono', Menlo, monospace">0</text><text x="47" y="197.9" text-anchor="end" font-size="10" fill="#57606a" font-family="ui-monospace, SFMono-Regular, 'SF Mono', Menlo, monospace">60</text><text x="47" y="159.7" text-anchor="end" font-size="10" fill="#57606a" font-family="ui-monospace, SFMono-Regular, 'SF Mono', Menlo, monospace">120</text><text x="47" y="121.6" text-anchor="end" font-size="10" fill="#57606a" font-family="ui-monospace, SFMono-Regular, 'SF Mono', Menlo, monospace">180</text><text x="47" y="83.5" text-anchor="end" font-size="10" fill="#57606a" font-family="ui-monospace, SFMono-Regular, 'SF Mono', Menlo, monospace">240</text><text x="47" y="45.3" text-anchor="end" font-size="10" fill="#57606a" font-family="ui-monospace, SFMono-Regular, 'SF Mono', Menlo, monospace">300</text><text x="47" y="7.2" text-anchor="end" font-size="10" fill="#57606a" font-family="ui-monospace, SFMono-Regular, 'SF Mono', Menlo, monospace">360</text>

  <!-- x-axis labels -->
  <text x="52.0" y="248" text-anchor="middle" font-size="10" fill="#8c959f" font-family="ui-monospace, SFMono-Regular, 'SF Mono', Menlo, monospace">05-14</text><text x="148.5" y="248" text-anchor="middle" font-size="10" fill="#8c959f" font-family="ui-monospace, SFMono-Regular, 'SF Mono', Menlo, monospace">05-18</text><text x="245.0" y="248" text-anchor="middle" font-size="10" fill="#8c959f" font-family="ui-monospace, SFMono-Regular, 'SF Mono', Menlo, monospace">05-22</text><text x="341.5" y="248" text-anchor="middle" font-size="10" fill="#8c959f" font-family="ui-monospace, SFMono-Regular, 'SF Mono', Menlo, monospace">05-26</text><text x="438.1" y="248" text-anchor="middle" font-size="10" fill="#8c959f" font-family="ui-monospace, SFMono-Regular, 'SF Mono', Menlo, monospace">05-30</text><text x="534.6" y="248" text-anchor="middle" font-size="10" fill="#8c959f" font-family="ui-monospace, SFMono-Regular, 'SF Mono', Menlo, monospace">06-03</text><text x="631.1" y="248" text-anchor="middle" font-size="10" fill="#8c959f" font-family="ui-monospace, SFMono-Regular, 'SF Mono', Menlo, monospace">06-07</text><text x="727.6" y="248" text-anchor="middle" font-size="10" fill="#8c959f" font-family="ui-monospace, SFMono-Regular, 'SF Mono', Menlo, monospace">06-11</text><text x="800.0" y="248" text-anchor="middle" font-size="10" fill="#8c959f" font-family="ui-monospace, SFMono-Regular, 'SF Mono', Menlo, monospace">06-14</text>

  <!-- legend -->
  <rect x="60" y="262" width="16" height="3" fill="#4e79a7" rx="1"/><text x="80" y="268" font-size="11" fill="#57606a" font-family="-apple-system, BlinkMacSystemFont, 'Segoe UI', sans-serif">Total clones (1,679)</text><line x1="230" y1="264" x2="246" y2="264" stroke="#f28e2b" stroke-width="2" stroke-dasharray="5,3"/><text x="250" y="268" font-size="11" fill="#57606a" font-family="-apple-system, BlinkMacSystemFont, 'Segoe UI', sans-serif">Unique cloners</text>

</svg>