<svg xmlns="http://www.w3.org/2000/svg" viewBox="0 0 820 280" width="820" height="280">

  <!-- title -->
  <text x="52" y="18" font-size="13" font-weight="600"
        fill="#24292f" font-family="-apple-system, BlinkMacSystemFont, 'Segoe UI', sans-serif"
        >Clone traffic — vellum</text>
  <text x="800" y="18" font-size="10" fill="#8c959f"
        font-family="ui-monospace, SFMono-Regular, 'SF Mono', Menlo, monospace" text-anchor="end">2026-07-07</text>

  <!-- grid -->
  <line x1="52" y1="232.0" x2="800" y2="232.0" stroke="#e8e8e8" stroke-width="1"/><line x1="52" y1="193.9" x2="800" y2="193.9" stroke="#e8e8e8" stroke-width="1"/><line x1="52" y1="155.7" x2="800" y2="155.7" stroke="#e8e8e8" stroke-width="1"/><line x1="52" y1="117.6" x2="800" y2="117.6" stroke="#e8e8e8" stroke-width="1"/><line x1="52" y1="79.5" x2="800" y2="79.5" stroke="#e8e8e8" stroke-width="1"/><line x1="52" y1="41.3" x2="800" y2="41.3" stroke="#e8e8e8" stroke-width="1"/><line x1="52" y1="3.2" x2="800" y2="3.2" stroke="#e8e8e8" stroke-width="1"/>

  <!-- area fill -->
  <path d="M52.0,232.0 L52.0,232.0 L66.1,232.0 L80.2,232.0 L94.3,232.0 L108.5,232.0 L122.6,232.0 L136.7,232.0 L150.8,232.0 L164.9,232.0 L179.0,232.0 L193.1,232.0 L207.2,232.0 L221.4,232.0 L235.5,172.3 L249.6,28.0 L263.7,75.7 L277.8,187.5 L291.9,176.1 L306.0,60.4 L320.2,62.3 L334.3,190.7 L348.4,135.4 L362.5,209.8 L376.6,220.6 L390.7,230.7 L404.8,232.0 L418.9,231.4 L433.1,228.8 L447.2,232.0 L461.3,232.0 L475.4,232.0 L489.5,203.4 L503.6,232.0 L517.7,203.4 L531.8,221.8 L546.0,172.9 L560.1,228.2 L574.2,232.0 L588.3,230.1 L602.4,231.4 L616.5,232.0 L630.6,230.7 L644.8,232.0 L658.9,231.4 L673.0,231.4 L687.1,231.4 L701.2,232.0 L715.3,231.4 L729.4,231.4 L743.5,232.0 L757.7,232.0 L771.8,231.4 L785.9,232.0 L800.0,232.0 L800.0,232.0 L52.0,232.0Z" fill="#4e79a7" opacity="0.12"/>

  <!-- lines -->
  <polyline points="52.0,232.0 66.1,232.0 80.2,232.0 94.3,232.0 108.5,232.0 122.6,232.0 136.7,232.0 150.8,232.0 164.9,232.0 179.0,232.0 193.1,232.0 207.2,232.0 221.4,232.0 235.5,172.3 249.6,28.0 263.7,75.7 277.8,187.5 291.9,176.1 306.0,60.4 320.2,62.3 334.3,190.7 348.4,135.4 362.5,209.8 376.6,220.6 390.7,230.7 404.8,232.0 418.9,231.4 433.1,228.8 447.2,232.0 461.3,232.0 475.4,232.0 489.5,203.4 503.6,232.0 517.7,203.4 531.8,221.8 546.0,172.9 560.1,228.2 574.2,232.0 588.3,230.1 602.4,231.4 616.5,232.0 630.6,230.7 644.8,232.0 658.9,231.4 673.0,231.4 687.1,231.4 701.2,232.0 715.3,231.4 729.4,231.4 743.5,232.0 757.7,232.0 771.8,231.4 785.9,232.0 800.0,232.0"
            fill="none" stroke="#4e79a7"
            stroke-width="2" stroke-linejoin="round"/>
  <polyline points="52.0,232.0 66.1,232.0 80.2,232.0 94.3,232.0 108.5,232.0 122.6,232.0 136.7,232.0 150.8,232.0 164.9,232.0 179.0,232.0 193.1,232.0 207.2,232.0 221.4,232.0 235.5,217.4 249.6,151.3 263.7,185.0 277.8,221.8 291.9,209.1 306.0,175.4 320.2,182.4 334.3,209.1 348.4,189.4 362.5,225.6 376.6,228.2 390.7,231.4 404.8,232.0 418.9,231.4 433.1,230.1 447.2,232.0 461.3,232.0 475.4,232.0 489.5,227.6 503.6,232.0 517.7,226.9 531.8,229.5 546.0,211.7 560.1,228.2 574.2,232.0 588.3,230.1 602.4,231.4 616.5,232.0 630.6,230.7 644.8,232.0 658.9,231.4 673.0,231.4 687.1,231.4 701.2,232.0 715.3,231.4 729.4,231.4 743.5,232.0 757.7,232.0 771.8,231.4 785.9,232.0 800.0,232.0"
            fill="none" stroke="#f28e2b"
            stroke-width="2" stroke-linejoin="round"
            stroke-dasharray="5,3"/>

  <!-- dots -->
  <circle cx="52.0" cy="232.0" r="3" fill="#4e79a7"/><circle cx="66.1" cy="232.0" r="3" fill="#4e79a7"/><circle cx="80.2" cy="232.0" r="3" fill="#4e79a7"/><circle cx="94.3" cy="232.0" r="3" fill="#4e79a7"/><circle cx="108.5" cy="232.0" r="3" fill="#4e79a7"/><circle cx="122.6" cy="232.0" r="3" fill="#4e79a7"/><circle cx="136.7" cy="232.0" r="3" fill="#4e79a7"/><circle cx="150.8" cy="232.0" r="3" fill="#4e79a7"/><circle cx="164.9" cy="232.0" r="3" fill="#4e79a7"/><circle cx="179.0" cy="232.0" r="3" fill="#4e79a7"/><circle cx="193.1" cy="232.0" r="3" fill="#4e79a7"/><circle cx="207.2" cy="232.0" r="3" fill="#4e79a7"/><circle cx="221.4" cy="232.0" r="3" fill="#4e79a7"/><circle cx="235.5" cy="172.3" r="3" fill="#4e79a7"/><circle cx="249.6" cy="28.0" r="3" fill="#4e79a7"/><circle cx="263.7" cy="75.7" r="3" fill="#4e79a7"/><circle cx="277.8" cy="187.5" r="3" fill="#4e79a7"/><circle cx="291.9" cy="176.1" r="3" fill="#4e79a7"/><circle cx="306.0" cy="60.4" r="3" fill="#4e79a7"/><circle cx="320.2" cy="62.3" r="3" fill="#4e79a7"/><circle cx="334.3" cy="190.7" r="3" fill="#4e79a7"/><circle cx="348.4" cy="135.4" r="3" fill="#4e79a7"/><circle cx="362.5" cy="209.8" r="3" fill="#4e79a7"/><circle cx="376.6" cy="220.6" r="3" fill="#4e79a7"/><circle cx="390.7" cy="230.7" r="3" fill="#4e79a7"/><circle cx="404.8" cy="232.0" r="3" fill="#4e79a7"/><circle cx="418.9" cy="231.4" r="3" fill="#4e79a7"/><circle cx="433.1" cy="228.8" r="3" fill="#4e79a7"/><circle cx="447.2" cy="232.0" r="3" fill="#4e79a7"/><circle cx="461.3" cy="232.0" r="3" fill="#4e79a7"/><circle cx="475.4" cy="232.0" r="3" fill="#4e79a7"/><circle cx="489.5" cy="203.4" r="3" fill="#4e79a7"/><circle cx="503.6" cy="232.0" r="3" fill="#4e79a7"/><circle cx="517.7" cy="203.4" r="3" fill="#4e79a7"/><circle cx="531.8" cy="221.8" r="3" fill="#4e79a7"/><circle cx="546.0" cy="172.9" r="3" fill="#4e79a7"/><circle cx="560.1" cy="228.2" r="3" fill="#4e79a7"/><circle cx="574.2" cy="232.0" r="3" fill="#4e79a7"/><circle cx="588.3" cy="230.1" r="3" fill="#4e79a7"/><circle cx="602.4" cy="231.4" r="3" fill="#4e79a7"/><circle cx="616.5" cy="232.0" r="3" fill="#4e79a7"/><circle cx="630.6" cy="230.7" r="3" fill="#4e79a7"/><circle cx="644.8" cy="232.0" r="3" fill="#4e79a7"/><circle cx="658.9" cy="231.4" r="3" fill="#4e79a7"/><circle cx="673.0" cy="231.4" r="3" fill="#4e79a7"/><circle cx="687.1" cy="231.4" r="3" fill="#4e79a7"/><circle cx="701.2" cy="232.0" r="3" fill="#4e79a7"/><circle cx="715.3" cy="231.4" r="3" fill="#4e79a7"/><circle cx="729.4" cy="231.4" r="3" fill="#4e79a7"/><circle cx="743.5" cy="232.0" r="3" fill="#4e79a7"/><circle cx="757.7" cy="232.0" r="3" fill="#4e79a7"/><circle cx="771.8" cy="231.4" r="3" fill="#4e79a7"/><circle cx="785.9" cy="232.0" r="3" fill="#4e79a7"/><circle cx="800.0" cy="232.0" r="3" fill="#4e79a7"/>
  <circle cx="52.0" cy="232.0" r="3" fill="#f28e2b"/><circle cx="66.1" cy="232.0" r="3" fill="#f28e2b"/><circle cx="80.2" cy="232.0" r="3" fill="#f28e2b"/><circle cx="94.3" cy="232.0" r="3" fill="#f28e2b"/><circle cx="108.5" cy="232.0" r="3" fill="#f28e2b"/><circle cx="122.6" cy="232.0" r="3" fill="#f28e2b"/><circle cx="136.7" cy="232.0" r="3" fill="#f28e2b"/><circle cx="150.8" cy="232.0" r="3" fill="#f28e2b"/><circle cx="164.9" cy="232.0" r="3" fill="#f28e2b"/><circle cx="179.0" cy="232.0" r="3" fill="#f28e2b"/><circle cx="193.1" cy="232.0" r="3" fill="#f28e2b"/><circle cx="207.2" cy="232.0" r="3" fill="#f28e2b"/><circle cx="221.4" cy="232.0" r="3" fill="#f28e2b"/><circle cx="235.5" cy="217.4" r="3" fill="#f28e2b"/><circle cx="249.6" cy="151.3" r="3" fill="#f28e2b"/><circle cx="263.7" cy="185.0" r="3" fill="#f28e2b"/><circle cx="277.8" cy="221.8" r="3" fill="#f28e2b"/><circle cx="291.9" cy="209.1" r="3" fill="#f28e2b"/><circle cx="306.0" cy="175.4" r="3" fill="#f28e2b"/><circle cx="320.2" cy="182.4" r="3" fill="#f28e2b"/><circle cx="334.3" cy="209.1" r="3" fill="#f28e2b"/><circle cx="348.4" cy="189.4" r="3" fill="#f28e2b"/><circle cx="362.5" cy="225.6" r="3" fill="#f28e2b"/><circle cx="376.6" cy="228.2" r="3" fill="#f28e2b"/><circle cx="390.7" cy="231.4" r="3" fill="#f28e2b"/><circle cx="404.8" cy="232.0" r="3" fill="#f28e2b"/><circle cx="418.9" cy="231.4" r="3" fill="#f28e2b"/><circle cx="433.1" cy="230.1" r="3" fill="#f28e2b"/><circle cx="447.2" cy="232.0" r="3" fill="#f28e2b"/><circle cx="461.3" cy="232.0" r="3" fill="#f28e2b"/><circle cx="475.4" cy="232.0" r="3" fill="#f28e2b"/><circle cx="489.5" cy="227.6" r="3" fill="#f28e2b"/><circle cx="503.6" cy="232.0" r="3" fill="#f28e2b"/><circle cx="517.7" cy="226.9" r="3" fill="#f28e2b"/><circle cx="531.8" cy="229.5" r="3" fill="#f28e2b"/><circle cx="546.0" cy="211.7" r="3" fill="#f28e2b"/><circle cx="560.1" cy="228.2" r="3" fill="#f28e2b"/><circle cx="574.2" cy="232.0" r="3" fill="#f28e2b"/><circle cx="588.3" cy="230.1" r="3" fill="#f28e2b"/><circle cx="602.4" cy="231.4" r="3" fill="#f28e2b"/><circle cx="616.5" cy="232.0" r="3" fill="#f28e2b"/><circle cx="630.6" cy="230.7" r="3" fill="#f28e2b"/><circle cx="644.8" cy="232.0" r="3" fill="#f28e2b"/><circle cx="658.9" cy="231.4" r="3" fill="#f28e2b"/><circle cx="673.0" cy="231.4" r="3" fill="#f28e2b"/><circle cx="687.1" cy="231.4" r="3" fill="#f28e2b"/><circle cx="701.2" cy="232.0" r="3" fill="#f28e2b"/><circle cx="715.3" cy="231.4" r="3" fill="#f28e2b"/><circle cx="729.4" cy="231.4" r="3" fill="#f28e2b"/><circle cx="743.5" cy="232.0" r="3" fill="#f28e2b"/><circle cx="757.7" cy="232.0" r="3" fill="#f28e2b"/><circle cx="771.8" cy="231.4" r="3" fill="#f28e2b"/><circle cx="785.9" cy="232.0" r="3" fill="#f28e2b"/><circle cx="800.0" cy="232.0" r="3" fill="#f28e2b"/>

  <!-- axes -->
  <line x1="52" y1="28" x2="52" y2="232"
        stroke="#cccccc" stroke-width="1"/>
  <line x1="52" y1="232" x2="800" y2="232"
        stroke="#cccccc" stroke-width="1"/>

  <!-- y-axis labels -->
  <text x="47" y="236.0" text-anchor="end" font-size="10" fill="#57606a" font-family="ui-monospace, SFMono-Regular, 'SF Mono', Menlo, monospace">0</text><text x="47" y="197.9" text-anchor="end" font-size="10" fill="#57606a" font-family="ui-monospace, SFMono-Regular, 'SF Mono', Menlo, monospace">60</text><text x="47" y="159.7" text-anchor="end" font-size="10" fill="#57606a" font-family="ui-monospace, SFMono-Regular, 'SF Mono', Menlo, monospace">120</text><text x="47" y="121.6" text-anchor="end" font-size="10" fill="#57606a" font-family="ui-monospace, SFMono-Regular, 'SF Mono', Menlo, monospace">180</text><text x="47" y="83.5" text-anchor="end" font-size="10" fill="#57606a" font-family="ui-monospace, SFMono-Regular, 'SF Mono', Menlo, monospace">240</text><text x="47" y="45.3" text-anchor="end" font-size="10" fill="#57606a" font-family="ui-monospace, SFMono-Regular, 'SF Mono', Menlo, monospace">300</text><text x="47" y="7.2" text-anchor="end" font-size="10" fill="#57606a" font-family="ui-monospace, SFMono-Regular, 'SF Mono', Menlo, monospace">360</text>

  <!-- x-axis labels -->
  <text x="52.0" y="248" text-anchor="middle" font-size="10" fill="#8c959f" font-family="ui-monospace, SFMono-Regular, 'SF Mono', Menlo, monospace">05-14</text><text x="560.1" y="248" text-anchor="middle" font-size="10" fill="#8c959f" font-family="ui-monospace, SFMono-Regular, 'SF Mono', Menlo, monospace">06-19</text><text x="136.7" y="248" text-anchor="middle" font-size="10" fill="#8c959f" font-family="ui-monospace, SFMono-Regular, 'SF Mono', Menlo, monospace">05-20</text><text x="644.8" y="248" text-anchor="middle" font-size="10" fill="#8c959f" font-family="ui-monospace, SFMono-Regular, 'SF Mono', Menlo, monospace">06-25</text><text x="221.4" y="248" text-anchor="middle" font-size="10" fill="#8c959f" font-family="ui-monospace, SFMono-Regular, 'SF Mono', Menlo, monospace">05-26</text><text x="729.4" y="248" text-anchor="middle" font-size="10" fill="#8c959f" font-family="ui-monospace, SFMono-Regular, 'SF Mono', Menlo, monospace">07-01</text><text x="306.0" y="248" text-anchor="middle" font-size="10" fill="#8c959f" font-family="ui-monospace, SFMono-Regular, 'SF Mono', Menlo, monospace">06-01</text><text x="800.0" y="248" text-anchor="middle" font-size="10" fill="#8c959f" font-family="ui-monospace, SFMono-Regular, 'SF Mono', Menlo, monospace">07-06</text><text x="390.7" y="248" text-anchor="middle" font-size="10" fill="#8c959f" font-family="ui-monospace, SFMono-Regular, 'SF Mono', Menlo, monospace">06-07</text><text x="475.4" y="248" text-anchor="middle" font-size="10" fill="#8c959f" font-family="ui-monospace, SFMono-Regular, 'SF Mono', Menlo, monospace">06-13</text>

  <!-- legend -->
  <rect x="60" y="262" width="16" height="3" fill="#4e79a7" rx="1"/><text x="80" y="268" font-size="11" fill="#57606a" font-family="-apple-system, BlinkMacSystemFont, 'Segoe UI', sans-serif">Total clones (1,851)</text><line x1="230" y1="264" x2="246" y2="264" stroke="#f28e2b" stroke-width="2" stroke-dasharray="5,3"/><text x="250" y="268" font-size="11" fill="#57606a" font-family="-apple-system, BlinkMacSystemFont, 'Segoe UI', sans-serif">Unique cloners</text>

</svg>