<svg xmlns="http://www.w3.org/2000/svg" viewBox="0 0 820 280" width="820" height="280">

  <!-- title -->
  <text x="52" y="18" font-size="13" font-weight="600"
        fill="#24292f" font-family="-apple-system, BlinkMacSystemFont, 'Segoe UI', sans-serif"
        >Clone traffic — vellum</text>
  <text x="800" y="18" font-size="10" fill="#8c959f"
        font-family="ui-monospace, SFMono-Regular, 'SF Mono', Menlo, monospace" text-anchor="end">2026-06-29</text>

  <!-- grid -->
  <line x1="52" y1="232.0" x2="800" y2="232.0" stroke="#e8e8e8" stroke-width="1"/><line x1="52" y1="193.9" x2="800" y2="193.9" stroke="#e8e8e8" stroke-width="1"/><line x1="52" y1="155.7" x2="800" y2="155.7" stroke="#e8e8e8" stroke-width="1"/><line x1="52" y1="117.6" x2="800" y2="117.6" stroke="#e8e8e8" stroke-width="1"/><line x1="52" y1="79.5" x2="800" y2="79.5" stroke="#e8e8e8" stroke-width="1"/><line x1="52" y1="41.3" x2="800" y2="41.3" stroke="#e8e8e8" stroke-width="1"/><line x1="52" y1="3.2" x2="800" y2="3.2" stroke="#e8e8e8" stroke-width="1"/>

  <!-- area fill -->
  <path d="M52.0,232.0 L52.0,232.0 L69.0,232.0 L86.0,232.0 L103.0,232.0 L120.0,232.0 L137.0,232.0 L154.0,232.0 L171.0,232.0 L188.0,232.0 L205.0,232.0 L222.0,232.0 L239.0,232.0 L256.0,232.0 L273.0,172.3 L290.0,28.0 L307.0,75.7 L324.0,187.5 L341.0,176.1 L358.0,60.4 L375.0,62.3 L392.0,190.7 L409.0,135.4 L426.0,209.8 L443.0,220.6 L460.0,230.7 L477.0,232.0 L494.0,231.4 L511.0,228.8 L528.0,232.0 L545.0,232.0 L562.0,232.0 L579.0,203.4 L596.0,232.0 L613.0,203.4 L630.0,221.8 L647.0,172.9 L664.0,228.2 L681.0,232.0 L698.0,230.1 L715.0,231.4 L732.0,232.0 L749.0,230.7 L766.0,232.0 L783.0,231.4 L800.0,231.4 L800.0,232.0 L52.0,232.0Z" fill="#4e79a7" opacity="0.12"/>

  <!-- lines -->
  <polyline points="52.0,232.0 69.0,232.0 86.0,232.0 103.0,232.0 120.0,232.0 137.0,232.0 154.0,232.0 171.0,232.0 188.0,232.0 205.0,232.0 222.0,232.0 239.0,232.0 256.0,232.0 273.0,172.3 290.0,28.0 307.0,75.7 324.0,187.5 341.0,176.1 358.0,60.4 375.0,62.3 392.0,190.7 409.0,135.4 426.0,209.8 443.0,220.6 460.0,230.7 477.0,232.0 494.0,231.4 511.0,228.8 528.0,232.0 545.0,232.0 562.0,232.0 579.0,203.4 596.0,232.0 613.0,203.4 630.0,221.8 647.0,172.9 664.0,228.2 681.0,232.0 698.0,230.1 715.0,231.4 732.0,232.0 749.0,230.7 766.0,232.0 783.0,231.4 800.0,231.4"
            fill="none" stroke="#4e79a7"
            stroke-width="2" stroke-linejoin="round"/>
  <polyline points="52.0,232.0 69.0,232.0 86.0,232.0 103.0,232.0 120.0,232.0 137.0,232.0 154.0,232.0 171.0,232.0 188.0,232.0 205.0,232.0 222.0,232.0 239.0,232.0 256.0,232.0 273.0,217.4 290.0,151.3 307.0,185.0 324.0,221.8 341.0,209.1 358.0,175.4 375.0,182.4 392.0,209.1 409.0,189.4 426.0,225.6 443.0,228.2 460.0,231.4 477.0,232.0 494.0,231.4 511.0,230.1 528.0,232.0 545.0,232.0 562.0,232.0 579.0,227.6 596.0,232.0 613.0,226.9 630.0,229.5 647.0,211.7 664.0,228.2 681.0,232.0 698.0,230.1 715.0,231.4 732.0,232.0 749.0,230.7 766.0,232.0 783.0,231.4 800.0,231.4"
            fill="none" stroke="#f28e2b"
            stroke-width="2" stroke-linejoin="round"
            stroke-dasharray="5,3"/>

  <!-- dots -->
  <circle cx="52.0" cy="232.0" r="3" fill="#4e79a7"/><circle cx="69.0" cy="232.0" r="3" fill="#4e79a7"/><circle cx="86.0" cy="232.0" r="3" fill="#4e79a7"/><circle cx="103.0" cy="232.0" r="3" fill="#4e79a7"/><circle cx="120.0" cy="232.0" r="3" fill="#4e79a7"/><circle cx="137.0" cy="232.0" r="3" fill="#4e79a7"/><circle cx="154.0" cy="232.0" r="3" fill="#4e79a7"/><circle cx="171.0" cy="232.0" r="3" fill="#4e79a7"/><circle cx="188.0" cy="232.0" r="3" fill="#4e79a7"/><circle cx="205.0" cy="232.0" r="3" fill="#4e79a7"/><circle cx="222.0" cy="232.0" r="3" fill="#4e79a7"/><circle cx="239.0" cy="232.0" r="3" fill="#4e79a7"/><circle cx="256.0" cy="232.0" r="3" fill="#4e79a7"/><circle cx="273.0" cy="172.3" r="3" fill="#4e79a7"/><circle cx="290.0" cy="28.0" r="3" fill="#4e79a7"/><circle cx="307.0" cy="75.7" r="3" fill="#4e79a7"/><circle cx="324.0" cy="187.5" r="3" fill="#4e79a7"/><circle cx="341.0" cy="176.1" r="3" fill="#4e79a7"/><circle cx="358.0" cy="60.4" r="3" fill="#4e79a7"/><circle cx="375.0" cy="62.3" r="3" fill="#4e79a7"/><circle cx="392.0" cy="190.7" r="3" fill="#4e79a7"/><circle cx="409.0" cy="135.4" r="3" fill="#4e79a7"/><circle cx="426.0" cy="209.8" r="3" fill="#4e79a7"/><circle cx="443.0" cy="220.6" r="3" fill="#4e79a7"/><circle cx="460.0" cy="230.7" r="3" fill="#4e79a7"/><circle cx="477.0" cy="232.0" r="3" fill="#4e79a7"/><circle cx="494.0" cy="231.4" r="3" fill="#4e79a7"/><circle cx="511.0" cy="228.8" r="3" fill="#4e79a7"/><circle cx="528.0" cy="232.0" r="3" fill="#4e79a7"/><circle cx="545.0" cy="232.0" r="3" fill="#4e79a7"/><circle cx="562.0" cy="232.0" r="3" fill="#4e79a7"/><circle cx="579.0" cy="203.4" r="3" fill="#4e79a7"/><circle cx="596.0" cy="232.0" r="3" fill="#4e79a7"/><circle cx="613.0" cy="203.4" r="3" fill="#4e79a7"/><circle cx="630.0" cy="221.8" r="3" fill="#4e79a7"/><circle cx="647.0" cy="172.9" r="3" fill="#4e79a7"/><circle cx="664.0" cy="228.2" r="3" fill="#4e79a7"/><circle cx="681.0" cy="232.0" r="3" fill="#4e79a7"/><circle cx="698.0" cy="230.1" r="3" fill="#4e79a7"/><circle cx="715.0" cy="231.4" r="3" fill="#4e79a7"/><circle cx="732.0" cy="232.0" r="3" fill="#4e79a7"/><circle cx="749.0" cy="230.7" r="3" fill="#4e79a7"/><circle cx="766.0" cy="232.0" r="3" fill="#4e79a7"/><circle cx="783.0" cy="231.4" r="3" fill="#4e79a7"/><circle cx="800.0" cy="231.4" r="3" fill="#4e79a7"/>
  <circle cx="52.0" cy="232.0" r="3" fill="#f28e2b"/><circle cx="69.0" cy="232.0" r="3" fill="#f28e2b"/><circle cx="86.0" cy="232.0" r="3" fill="#f28e2b"/><circle cx="103.0" cy="232.0" r="3" fill="#f28e2b"/><circle cx="120.0" cy="232.0" r="3" fill="#f28e2b"/><circle cx="137.0" cy="232.0" r="3" fill="#f28e2b"/><circle cx="154.0" cy="232.0" r="3" fill="#f28e2b"/><circle cx="171.0" cy="232.0" r="3" fill="#f28e2b"/><circle cx="188.0" cy="232.0" r="3" fill="#f28e2b"/><circle cx="205.0" cy="232.0" r="3" fill="#f28e2b"/><circle cx="222.0" cy="232.0" r="3" fill="#f28e2b"/><circle cx="239.0" cy="232.0" r="3" fill="#f28e2b"/><circle cx="256.0" cy="232.0" r="3" fill="#f28e2b"/><circle cx="273.0" cy="217.4" r="3" fill="#f28e2b"/><circle cx="290.0" cy="151.3" r="3" fill="#f28e2b"/><circle cx="307.0" cy="185.0" r="3" fill="#f28e2b"/><circle cx="324.0" cy="221.8" r="3" fill="#f28e2b"/><circle cx="341.0" cy="209.1" r="3" fill="#f28e2b"/><circle cx="358.0" cy="175.4" r="3" fill="#f28e2b"/><circle cx="375.0" cy="182.4" r="3" fill="#f28e2b"/><circle cx="392.0" cy="209.1" r="3" fill="#f28e2b"/><circle cx="409.0" cy="189.4" r="3" fill="#f28e2b"/><circle cx="426.0" cy="225.6" r="3" fill="#f28e2b"/><circle cx="443.0" cy="228.2" r="3" fill="#f28e2b"/><circle cx="460.0" cy="231.4" r="3" fill="#f28e2b"/><circle cx="477.0" cy="232.0" r="3" fill="#f28e2b"/><circle cx="494.0" cy="231.4" r="3" fill="#f28e2b"/><circle cx="511.0" cy="230.1" r="3" fill="#f28e2b"/><circle cx="528.0" cy="232.0" r="3" fill="#f28e2b"/><circle cx="545.0" cy="232.0" r="3" fill="#f28e2b"/><circle cx="562.0" cy="232.0" r="3" fill="#f28e2b"/><circle cx="579.0" cy="227.6" r="3" fill="#f28e2b"/><circle cx="596.0" cy="232.0" r="3" fill="#f28e2b"/><circle cx="613.0" cy="226.9" r="3" fill="#f28e2b"/><circle cx="630.0" cy="229.5" r="3" fill="#f28e2b"/><circle cx="647.0" cy="211.7" r="3" fill="#f28e2b"/><circle cx="664.0" cy="228.2" r="3" fill="#f28e2b"/><circle cx="681.0" cy="232.0" r="3" fill="#f28e2b"/><circle cx="698.0" cy="230.1" r="3" fill="#f28e2b"/><circle cx="715.0" cy="231.4" r="3" fill="#f28e2b"/><circle cx="732.0" cy="232.0" r="3" fill="#f28e2b"/><circle cx="749.0" cy="230.7" r="3" fill="#f28e2b"/><circle cx="766.0" cy="232.0" r="3" fill="#f28e2b"/><circle cx="783.0" cy="231.4" r="3" fill="#f28e2b"/><circle cx="800.0" cy="231.4" r="3" fill="#f28e2b"/>

  <!-- axes -->
  <line x1="52" y1="28" x2="52" y2="232"
        stroke="#cccccc" stroke-width="1"/>
  <line x1="52" y1="232" x2="800" y2="232"
        stroke="#cccccc" stroke-width="1"/>

  <!-- y-axis labels -->
  <text x="47" y="236.0" text-anchor="end" font-size="10" fill="#57606a" font-family="ui-monospace, SFMono-Regular, 'SF Mono', Menlo, monospace">0</text><text x="47" y="197.9" text-anchor="end" font-size="10" fill="#57606a" font-family="ui-monospace, SFMono-Regular, 'SF Mono', Menlo, monospace">60</text><text x="47" y="159.7" text-anchor="end" font-size="10" fill="#57606a" font-family="ui-monospace, SFMono-Regular, 'SF Mono', Menlo, monospace">120</text><text x="47" y="121.6" text-anchor="end" font-size="10" fill="#57606a" font-family="ui-monospace, SFMono-Regular, 'SF Mono', Menlo, monospace">180</text><text x="47" y="83.5" text-anchor="end" font-size="10" fill="#57606a" font-family="ui-monospace, SFMono-Regular, 'SF Mono', Menlo, monospace">240</text><text x="47" y="45.3" text-anchor="end" font-size="10" fill="#57606a" font-family="ui-monospace, SFMono-Regular, 'SF Mono', Menlo, monospace">300</text><text x="47" y="7.2" text-anchor="end" font-size="10" fill="#57606a" font-family="ui-monospace, SFMono-Regular, 'SF Mono', Menlo, monospace">360</text>

  <!-- x-axis labels -->
  <text x="52.0" y="248" text-anchor="middle" font-size="10" fill="#8c959f" font-family="ui-monospace, SFMono-Regular, 'SF Mono', Menlo, monospace">05-14</text><text x="647.0" y="248" text-anchor="middle" font-size="10" fill="#8c959f" font-family="ui-monospace, SFMono-Regular, 'SF Mono', Menlo, monospace">06-18</text><text x="137.0" y="248" text-anchor="middle" font-size="10" fill="#8c959f" font-family="ui-monospace, SFMono-Regular, 'SF Mono', Menlo, monospace">05-19</text><text x="732.0" y="248" text-anchor="middle" font-size="10" fill="#8c959f" font-family="ui-monospace, SFMono-Regular, 'SF Mono', Menlo, monospace">06-23</text><text x="222.0" y="248" text-anchor="middle" font-size="10" fill="#8c959f" font-family="ui-monospace, SFMono-Regular, 'SF Mono', Menlo, monospace">05-24</text><text x="800.0" y="248" text-anchor="middle" font-size="10" fill="#8c959f" font-family="ui-monospace, SFMono-Regular, 'SF Mono', Menlo, monospace">06-27</text><text x="307.0" y="248" text-anchor="middle" font-size="10" fill="#8c959f" font-family="ui-monospace, SFMono-Regular, 'SF Mono', Menlo, monospace">05-29</text><text x="392.0" y="248" text-anchor="middle" font-size="10" fill="#8c959f" font-family="ui-monospace, SFMono-Regular, 'SF Mono', Menlo, monospace">06-03</text><text x="477.0" y="248" text-anchor="middle" font-size="10" fill="#8c959f" font-family="ui-monospace, SFMono-Regular, 'SF Mono', Menlo, monospace">06-08</text><text x="562.0" y="248" text-anchor="middle" font-size="10" fill="#8c959f" font-family="ui-monospace, SFMono-Regular, 'SF Mono', Menlo, monospace">06-13</text>

  <!-- legend -->
  <rect x="60" y="262" width="16" height="3" fill="#4e79a7" rx="1"/><text x="80" y="268" font-size="11" fill="#57606a" font-family="-apple-system, BlinkMacSystemFont, 'Segoe UI', sans-serif">Total clones (1,847)</text><line x1="230" y1="264" x2="246" y2="264" stroke="#f28e2b" stroke-width="2" stroke-dasharray="5,3"/><text x="250" y="268" font-size="11" fill="#57606a" font-family="-apple-system, BlinkMacSystemFont, 'Segoe UI', sans-serif">Unique cloners</text>

</svg>