<svg xmlns="http://www.w3.org/2000/svg" viewBox="0 0 820 280" width="820" height="280">

  <!-- title -->
  <text x="52" y="18" font-size="13" font-weight="600"
        fill="#24292f" font-family="-apple-system, BlinkMacSystemFont, 'Segoe UI', sans-serif"
        >Clone traffic — vigilant-core</text>
  <text x="800" y="18" font-size="10" fill="#8c959f"
        font-family="ui-monospace, SFMono-Regular, 'SF Mono', Menlo, monospace" text-anchor="end">2026-07-12</text>

  <!-- grid -->
  <line x1="52" y1="232.0" x2="800" y2="232.0" stroke="#e8e8e8" stroke-width="1"/><line x1="52" y1="197.0" x2="800" y2="197.0" stroke="#e8e8e8" stroke-width="1"/><line x1="52" y1="162.0" x2="800" y2="162.0" stroke="#e8e8e8" stroke-width="1"/><line x1="52" y1="127.0" x2="800" y2="127.0" stroke="#e8e8e8" stroke-width="1"/><line x1="52" y1="92.0" x2="800" y2="92.0" stroke="#e8e8e8" stroke-width="1"/><line x1="52" y1="56.9" x2="800" y2="56.9" stroke="#e8e8e8" stroke-width="1"/><line x1="52" y1="21.9" x2="800" y2="21.9" stroke="#e8e8e8" stroke-width="1"/>

  <!-- area fill -->
  <path d="M52.0,232.0 L52.0,232.0 L64.3,231.9 L76.5,231.8 L88.8,232.0 L101.0,231.9 L113.3,231.9 L125.6,232.0 L137.8,232.0 L150.1,231.9 L162.4,232.0 L174.6,231.6 L186.9,232.0 L199.1,232.0 L211.4,232.0 L223.7,232.0 L235.9,231.9 L248.2,232.0 L260.5,232.0 L272.7,232.0 L285.0,232.0 L297.2,231.9 L309.5,232.0 L321.8,232.0 L334.0,232.0 L346.3,232.0 L358.6,232.0 L370.8,231.9 L383.1,232.0 L395.3,232.0 L407.6,231.5 L419.9,231.9 L432.1,232.0 L444.4,231.9 L456.7,232.0 L468.9,232.0 L481.2,231.9 L493.4,231.9 L505.7,232.0 L518.0,205.5 L530.2,28.0 L542.5,107.6 L554.8,231.6 L567.0,231.9 L579.3,232.0 L591.5,231.2 L603.8,232.0 L616.1,229.8 L628.3,231.8 L640.6,231.8 L652.9,231.9 L665.1,232.0 L677.4,232.0 L689.6,232.0 L701.9,229.8 L714.2,230.2 L726.4,232.0 L738.7,231.9 L751.0,232.0 L763.2,232.0 L775.5,231.9 L787.7,231.8 L800.0,231.9 L800.0,232.0 L52.0,232.0Z" fill="#4e79a7" opacity="0.12"/>

  <!-- lines -->
  <polyline points="52.0,232.0 64.3,231.9 76.5,231.8 88.8,232.0 101.0,231.9 113.3,231.9 125.6,232.0 137.8,232.0 150.1,231.9 162.4,232.0 174.6,231.6 186.9,232.0 199.1,232.0 211.4,232.0 223.7,232.0 235.9,231.9 248.2,232.0 260.5,232.0 272.7,232.0 285.0,232.0 297.2,231.9 309.5,232.0 321.8,232.0 334.0,232.0 346.3,232.0 358.6,232.0 370.8,231.9 383.1,232.0 395.3,232.0 407.6,231.5 419.9,231.9 432.1,232.0 444.4,231.9 456.7,232.0 468.9,232.0 481.2,231.9 493.4,231.9 505.7,232.0 518.0,205.5 530.2,28.0 542.5,107.6 554.8,231.6 567.0,231.9 579.3,232.0 591.5,231.2 603.8,232.0 616.1,229.8 628.3,231.8 640.6,231.8 652.9,231.9 665.1,232.0 677.4,232.0 689.6,232.0 701.9,229.8 714.2,230.2 726.4,232.0 738.7,231.9 751.0,232.0 763.2,232.0 775.5,231.9 787.7,231.8 800.0,231.9"
            fill="none" stroke="#4e79a7"
            stroke-width="2" stroke-linejoin="round"/>
  <polyline points="52.0,232.0 64.3,231.9 76.5,231.8 88.8,232.0 101.0,231.9 113.3,231.9 125.6,232.0 137.8,232.0 150.1,231.9 162.4,232.0 174.6,231.9 186.9,232.0 199.1,232.0 211.4,232.0 223.7,232.0 235.9,231.9 248.2,232.0 260.5,232.0 272.7,232.0 285.0,232.0 297.2,231.9 309.5,232.0 321.8,232.0 334.0,232.0 346.3,232.0 358.6,232.0 370.8,231.9 383.1,232.0 395.3,232.0 407.6,231.6 419.9,231.9 432.1,232.0 444.4,231.9 456.7,232.0 468.9,232.0 481.2,231.9 493.4,231.9 505.7,232.0 518.0,225.1 530.2,187.8 542.5,204.2 554.8,231.6 567.0,231.9 579.3,232.0 591.5,231.8 603.8,232.0 616.1,231.3 628.3,231.9 640.6,231.8 652.9,231.9 665.1,232.0 677.4,232.0 689.6,232.0 701.9,231.8 714.2,231.6 726.4,232.0 738.7,231.9 751.0,232.0 763.2,232.0 775.5,231.9 787.7,231.8 800.0,231.9"
            fill="none" stroke="#f28e2b"
            stroke-width="2" stroke-linejoin="round"
            stroke-dasharray="5,3"/>

  <!-- dots -->
  <circle cx="52.0" cy="232.0" r="3" fill="#4e79a7"/><circle cx="64.3" cy="231.9" r="3" fill="#4e79a7"/><circle cx="76.5" cy="231.8" r="3" fill="#4e79a7"/><circle cx="88.8" cy="232.0" r="3" fill="#4e79a7"/><circle cx="101.0" cy="231.9" r="3" fill="#4e79a7"/><circle cx="113.3" cy="231.9" r="3" fill="#4e79a7"/><circle cx="125.6" cy="232.0" r="3" fill="#4e79a7"/><circle cx="137.8" cy="232.0" r="3" fill="#4e79a7"/><circle cx="150.1" cy="231.9" r="3" fill="#4e79a7"/><circle cx="162.4" cy="232.0" r="3" fill="#4e79a7"/><circle cx="174.6" cy="231.6" r="3" fill="#4e79a7"/><circle cx="186.9" cy="232.0" r="3" fill="#4e79a7"/><circle cx="199.1" cy="232.0" r="3" fill="#4e79a7"/><circle cx="211.4" cy="232.0" r="3" fill="#4e79a7"/><circle cx="223.7" cy="232.0" r="3" fill="#4e79a7"/><circle cx="235.9" cy="231.9" r="3" fill="#4e79a7"/><circle cx="248.2" cy="232.0" r="3" fill="#4e79a7"/><circle cx="260.5" cy="232.0" r="3" fill="#4e79a7"/><circle cx="272.7" cy="232.0" r="3" fill="#4e79a7"/><circle cx="285.0" cy="232.0" r="3" fill="#4e79a7"/><circle cx="297.2" cy="231.9" r="3" fill="#4e79a7"/><circle cx="309.5" cy="232.0" r="3" fill="#4e79a7"/><circle cx="321.8" cy="232.0" r="3" fill="#4e79a7"/><circle cx="334.0" cy="232.0" r="3" fill="#4e79a7"/><circle cx="346.3" cy="232.0" r="3" fill="#4e79a7"/><circle cx="358.6" cy="232.0" r="3" fill="#4e79a7"/><circle cx="370.8" cy="231.9" r="3" fill="#4e79a7"/><circle cx="383.1" cy="232.0" r="3" fill="#4e79a7"/><circle cx="395.3" cy="232.0" r="3" fill="#4e79a7"/><circle cx="407.6" cy="231.5" r="3" fill="#4e79a7"/><circle cx="419.9" cy="231.9" r="3" fill="#4e79a7"/><circle cx="432.1" cy="232.0" r="3" fill="#4e79a7"/><circle cx="444.4" cy="231.9" r="3" fill="#4e79a7"/><circle cx="456.7" cy="232.0" r="3" fill="#4e79a7"/><circle cx="468.9" cy="232.0" r="3" fill="#4e79a7"/><circle cx="481.2" cy="231.9" r="3" fill="#4e79a7"/><circle cx="493.4" cy="231.9" r="3" fill="#4e79a7"/><circle cx="505.7" cy="232.0" r="3" fill="#4e79a7"/><circle cx="518.0" cy="205.5" r="3" fill="#4e79a7"/><circle cx="530.2" cy="28.0" r="3" fill="#4e79a7"/><circle cx="542.5" cy="107.6" r="3" fill="#4e79a7"/><circle cx="554.8" cy="231.6" r="3" fill="#4e79a7"/><circle cx="567.0" cy="231.9" r="3" fill="#4e79a7"/><circle cx="579.3" cy="232.0" r="3" fill="#4e79a7"/><circle cx="591.5" cy="231.2" r="3" fill="#4e79a7"/><circle cx="603.8" cy="232.0" r="3" fill="#4e79a7"/><circle cx="616.1" cy="229.8" r="3" fill="#4e79a7"/><circle cx="628.3" cy="231.8" r="3" fill="#4e79a7"/><circle cx="640.6" cy="231.8" r="3" fill="#4e79a7"/><circle cx="652.9" cy="231.9" r="3" fill="#4e79a7"/><circle cx="665.1" cy="232.0" r="3" fill="#4e79a7"/><circle cx="677.4" cy="232.0" r="3" fill="#4e79a7"/><circle cx="689.6" cy="232.0" r="3" fill="#4e79a7"/><circle cx="701.9" cy="229.8" r="3" fill="#4e79a7"/><circle cx="714.2" cy="230.2" r="3" fill="#4e79a7"/><circle cx="726.4" cy="232.0" r="3" fill="#4e79a7"/><circle cx="738.7" cy="231.9" r="3" fill="#4e79a7"/><circle cx="751.0" cy="232.0" r="3" fill="#4e79a7"/><circle cx="763.2" cy="232.0" r="3" fill="#4e79a7"/><circle cx="775.5" cy="231.9" r="3" fill="#4e79a7"/><circle cx="787.7" cy="231.8" r="3" fill="#4e79a7"/><circle cx="800.0" cy="231.9" r="3" fill="#4e79a7"/>
  <circle cx="52.0" cy="232.0" r="3" fill="#f28e2b"/><circle cx="64.3" cy="231.9" r="3" fill="#f28e2b"/><circle cx="76.5" cy="231.8" r="3" fill="#f28e2b"/><circle cx="88.8" cy="232.0" r="3" fill="#f28e2b"/><circle cx="101.0" cy="231.9" r="3" fill="#f28e2b"/><circle cx="113.3" cy="231.9" r="3" fill="#f28e2b"/><circle cx="125.6" cy="232.0" r="3" fill="#f28e2b"/><circle cx="137.8" cy="232.0" r="3" fill="#f28e2b"/><circle cx="150.1" cy="231.9" r="3" fill="#f28e2b"/><circle cx="162.4" cy="232.0" r="3" fill="#f28e2b"/><circle cx="174.6" cy="231.9" r="3" fill="#f28e2b"/><circle cx="186.9" cy="232.0" r="3" fill="#f28e2b"/><circle cx="199.1" cy="232.0" r="3" fill="#f28e2b"/><circle cx="211.4" cy="232.0" r="3" fill="#f28e2b"/><circle cx="223.7" cy="232.0" r="3" fill="#f28e2b"/><circle cx="235.9" cy="231.9" r="3" fill="#f28e2b"/><circle cx="248.2" cy="232.0" r="3" fill="#f28e2b"/><circle cx="260.5" cy="232.0" r="3" fill="#f28e2b"/><circle cx="272.7" cy="232.0" r="3" fill="#f28e2b"/><circle cx="285.0" cy="232.0" r="3" fill="#f28e2b"/><circle cx="297.2" cy="231.9" r="3" fill="#f28e2b"/><circle cx="309.5" cy="232.0" r="3" fill="#f28e2b"/><circle cx="321.8" cy="232.0" r="3" fill="#f28e2b"/><circle cx="334.0" cy="232.0" r="3" fill="#f28e2b"/><circle cx="346.3" cy="232.0" r="3" fill="#f28e2b"/><circle cx="358.6" cy="232.0" r="3" fill="#f28e2b"/><circle cx="370.8" cy="231.9" r="3" fill="#f28e2b"/><circle cx="383.1" cy="232.0" r="3" fill="#f28e2b"/><circle cx="395.3" cy="232.0" r="3" fill="#f28e2b"/><circle cx="407.6" cy="231.6" r="3" fill="#f28e2b"/><circle cx="419.9" cy="231.9" r="3" fill="#f28e2b"/><circle cx="432.1" cy="232.0" r="3" fill="#f28e2b"/><circle cx="444.4" cy="231.9" r="3" fill="#f28e2b"/><circle cx="456.7" cy="232.0" r="3" fill="#f28e2b"/><circle cx="468.9" cy="232.0" r="3" fill="#f28e2b"/><circle cx="481.2" cy="231.9" r="3" fill="#f28e2b"/><circle cx="493.4" cy="231.9" r="3" fill="#f28e2b"/><circle cx="505.7" cy="232.0" r="3" fill="#f28e2b"/><circle cx="518.0" cy="225.1" r="3" fill="#f28e2b"/><circle cx="530.2" cy="187.8" r="3" fill="#f28e2b"/><circle cx="542.5" cy="204.2" r="3" fill="#f28e2b"/><circle cx="554.8" cy="231.6" r="3" fill="#f28e2b"/><circle cx="567.0" cy="231.9" r="3" fill="#f28e2b"/><circle cx="579.3" cy="232.0" r="3" fill="#f28e2b"/><circle cx="591.5" cy="231.8" r="3" fill="#f28e2b"/><circle cx="603.8" cy="232.0" r="3" fill="#f28e2b"/><circle cx="616.1" cy="231.3" r="3" fill="#f28e2b"/><circle cx="628.3" cy="231.9" r="3" fill="#f28e2b"/><circle cx="640.6" cy="231.8" r="3" fill="#f28e2b"/><circle cx="652.9" cy="231.9" r="3" fill="#f28e2b"/><circle cx="665.1" cy="232.0" r="3" fill="#f28e2b"/><circle cx="677.4" cy="232.0" r="3" fill="#f28e2b"/><circle cx="689.6" cy="232.0" r="3" fill="#f28e2b"/><circle cx="701.9" cy="231.8" r="3" fill="#f28e2b"/><circle cx="714.2" cy="231.6" r="3" fill="#f28e2b"/><circle cx="726.4" cy="232.0" r="3" fill="#f28e2b"/><circle cx="738.7" cy="231.9" r="3" fill="#f28e2b"/><circle cx="751.0" cy="232.0" r="3" fill="#f28e2b"/><circle cx="763.2" cy="232.0" r="3" fill="#f28e2b"/><circle cx="775.5" cy="231.9" r="3" fill="#f28e2b"/><circle cx="787.7" cy="231.8" r="3" fill="#f28e2b"/><circle cx="800.0" cy="231.9" r="3" fill="#f28e2b"/>

  <!-- axes -->
  <line x1="52" y1="28" x2="52" y2="232"
        stroke="#cccccc" stroke-width="1"/>
  <line x1="52" y1="232" x2="800" y2="232"
        stroke="#cccccc" stroke-width="1"/>

  <!-- y-axis labels -->
  <text x="47" y="236.0" text-anchor="end" font-size="10" fill="#57606a" font-family="ui-monospace, SFMono-Regular, 'SF Mono', Menlo, monospace">0</text><text x="47" y="201.0" text-anchor="end" font-size="10" fill="#57606a" font-family="ui-monospace, SFMono-Regular, 'SF Mono', Menlo, monospace">300</text><text x="47" y="166.0" text-anchor="end" font-size="10" fill="#57606a" font-family="ui-monospace, SFMono-Regular, 'SF Mono', Menlo, monospace">600</text><text x="47" y="131.0" text-anchor="end" font-size="10" fill="#57606a" font-family="ui-monospace, SFMono-Regular, 'SF Mono', Menlo, monospace">900</text><text x="47" y="96.0" text-anchor="end" font-size="10" fill="#57606a" font-family="ui-monospace, SFMono-Regular, 'SF Mono', Menlo, monospace">1,200</text><text x="47" y="60.9" text-anchor="end" font-size="10" fill="#57606a" font-family="ui-monospace, SFMono-Regular, 'SF Mono', Menlo, monospace">1,500</text><text x="47" y="25.9" text-anchor="end" font-size="10" fill="#57606a" font-family="ui-monospace, SFMono-Regular, 'SF Mono', Menlo, monospace">1,800</text>

  <!-- x-axis labels -->
  <text x="52.0" y="248" text-anchor="middle" font-size="10" fill="#8c959f" font-family="ui-monospace, SFMono-Regular, 'SF Mono', Menlo, monospace">05-11</text><text x="481.2" y="248" text-anchor="middle" font-size="10" fill="#8c959f" font-family="ui-monospace, SFMono-Regular, 'SF Mono', Menlo, monospace">06-15</text><text x="137.8" y="248" text-anchor="middle" font-size="10" fill="#8c959f" font-family="ui-monospace, SFMono-Regular, 'SF Mono', Menlo, monospace">05-18</text><text x="567.0" y="248" text-anchor="middle" font-size="10" fill="#8c959f" font-family="ui-monospace, SFMono-Regular, 'SF Mono', Menlo, monospace">06-22</text><text x="223.7" y="248" text-anchor="middle" font-size="10" fill="#8c959f" font-family="ui-monospace, SFMono-Regular, 'SF Mono', Menlo, monospace">05-25</text><text x="652.9" y="248" text-anchor="middle" font-size="10" fill="#8c959f" font-family="ui-monospace, SFMono-Regular, 'SF Mono', Menlo, monospace">06-29</text><text x="309.5" y="248" text-anchor="middle" font-size="10" fill="#8c959f" font-family="ui-monospace, SFMono-Regular, 'SF Mono', Menlo, monospace">06-01</text><text x="738.7" y="248" text-anchor="middle" font-size="10" fill="#8c959f" font-family="ui-monospace, SFMono-Regular, 'SF Mono', Menlo, monospace">07-06</text><text x="395.3" y="248" text-anchor="middle" font-size="10" fill="#8c959f" font-family="ui-monospace, SFMono-Regular, 'SF Mono', Menlo, monospace">06-08</text><text x="800.0" y="248" text-anchor="middle" font-size="10" fill="#8c959f" font-family="ui-monospace, SFMono-Regular, 'SF Mono', Menlo, monospace">07-11</text>

  <!-- legend -->
  <rect x="60" y="262" width="16" height="3" fill="#4e79a7" rx="1"/><text x="80" y="268" font-size="11" fill="#57606a" font-family="-apple-system, BlinkMacSystemFont, 'Segoe UI', sans-serif">Total clones (3,135)</text><line x1="230" y1="264" x2="246" y2="264" stroke="#f28e2b" stroke-width="2" stroke-dasharray="5,3"/><text x="250" y="268" font-size="11" fill="#57606a" font-family="-apple-system, BlinkMacSystemFont, 'Segoe UI', sans-serif">Unique cloners</text>

</svg>