<svg xmlns="http://www.w3.org/2000/svg" viewBox="0 0 820 280" width="820" height="280">

  <!-- title -->
  <text x="52" y="18" font-size="13" font-weight="600"
        fill="#24292f" font-family="-apple-system, BlinkMacSystemFont, 'Segoe UI', sans-serif"
        >Clone traffic — vigilant-core</text>
  <text x="800" y="18" font-size="10" fill="#8c959f"
        font-family="ui-monospace, SFMono-Regular, 'SF Mono', Menlo, monospace" text-anchor="end">2026-07-20</text>

  <!-- grid -->
  <line x1="52" y1="232.0" x2="800" y2="232.0" stroke="#e8e8e8" stroke-width="1"/><line x1="52" y1="197.0" x2="800" y2="197.0" stroke="#e8e8e8" stroke-width="1"/><line x1="52" y1="162.0" x2="800" y2="162.0" stroke="#e8e8e8" stroke-width="1"/><line x1="52" y1="127.0" x2="800" y2="127.0" stroke="#e8e8e8" stroke-width="1"/><line x1="52" y1="92.0" x2="800" y2="92.0" stroke="#e8e8e8" stroke-width="1"/><line x1="52" y1="56.9" x2="800" y2="56.9" stroke="#e8e8e8" stroke-width="1"/><line x1="52" y1="21.9" x2="800" y2="21.9" stroke="#e8e8e8" stroke-width="1"/>

  <!-- area fill -->
  <path d="M52.0,232.0 L52.0,232.0 L63.0,231.9 L74.0,231.8 L85.0,232.0 L96.0,231.9 L107.0,231.9 L118.0,232.0 L129.0,232.0 L140.0,231.9 L151.0,232.0 L162.0,231.6 L173.0,232.0 L184.0,232.0 L195.0,232.0 L206.0,232.0 L217.0,231.9 L228.0,232.0 L239.0,232.0 L250.0,232.0 L261.0,232.0 L272.0,231.9 L283.0,232.0 L294.0,232.0 L305.0,232.0 L316.0,232.0 L327.0,232.0 L338.0,231.9 L349.0,232.0 L360.0,232.0 L371.0,231.5 L382.0,231.9 L393.0,232.0 L404.0,231.9 L415.0,232.0 L426.0,232.0 L437.0,231.9 L448.0,231.9 L459.0,232.0 L470.0,205.5 L481.0,28.0 L492.0,107.6 L503.0,231.6 L514.0,231.9 L525.0,232.0 L536.0,231.2 L547.0,232.0 L558.0,229.8 L569.0,231.8 L580.0,231.8 L591.0,231.9 L602.0,232.0 L613.0,232.0 L624.0,232.0 L635.0,229.8 L646.0,230.2 L657.0,232.0 L668.0,231.9 L679.0,232.0 L690.0,232.0 L701.0,231.9 L712.0,231.8 L723.0,231.9 L734.0,231.9 L745.0,231.9 L756.0,231.9 L767.0,232.0 L778.0,232.0 L789.0,232.0 L800.0,232.0 L800.0,232.0 L52.0,232.0Z" fill="#4e79a7" opacity="0.12"/>

  <!-- lines -->
  <polyline points="52.0,232.0 63.0,231.9 74.0,231.8 85.0,232.0 96.0,231.9 107.0,231.9 118.0,232.0 129.0,232.0 140.0,231.9 151.0,232.0 162.0,231.6 173.0,232.0 184.0,232.0 195.0,232.0 206.0,232.0 217.0,231.9 228.0,232.0 239.0,232.0 250.0,232.0 261.0,232.0 272.0,231.9 283.0,232.0 294.0,232.0 305.0,232.0 316.0,232.0 327.0,232.0 338.0,231.9 349.0,232.0 360.0,232.0 371.0,231.5 382.0,231.9 393.0,232.0 404.0,231.9 415.0,232.0 426.0,232.0 437.0,231.9 448.0,231.9 459.0,232.0 470.0,205.5 481.0,28.0 492.0,107.6 503.0,231.6 514.0,231.9 525.0,232.0 536.0,231.2 547.0,232.0 558.0,229.8 569.0,231.8 580.0,231.8 591.0,231.9 602.0,232.0 613.0,232.0 624.0,232.0 635.0,229.8 646.0,230.2 657.0,232.0 668.0,231.9 679.0,232.0 690.0,232.0 701.0,231.9 712.0,231.8 723.0,231.9 734.0,231.9 745.0,231.9 756.0,231.9 767.0,232.0 778.0,232.0 789.0,232.0 800.0,232.0"
            fill="none" stroke="#4e79a7"
            stroke-width="2" stroke-linejoin="round"/>
  <polyline points="52.0,232.0 63.0,231.9 74.0,231.8 85.0,232.0 96.0,231.9 107.0,231.9 118.0,232.0 129.0,232.0 140.0,231.9 151.0,232.0 162.0,231.9 173.0,232.0 184.0,232.0 195.0,232.0 206.0,232.0 217.0,231.9 228.0,232.0 239.0,232.0 250.0,232.0 261.0,232.0 272.0,231.9 283.0,232.0 294.0,232.0 305.0,232.0 316.0,232.0 327.0,232.0 338.0,231.9 349.0,232.0 360.0,232.0 371.0,231.6 382.0,231.9 393.0,232.0 404.0,231.9 415.0,232.0 426.0,232.0 437.0,231.9 448.0,231.9 459.0,232.0 470.0,225.1 481.0,187.8 492.0,204.2 503.0,231.6 514.0,231.9 525.0,232.0 536.0,231.8 547.0,232.0 558.0,231.3 569.0,231.9 580.0,231.8 591.0,231.9 602.0,232.0 613.0,232.0 624.0,232.0 635.0,231.8 646.0,231.6 657.0,232.0 668.0,231.9 679.0,232.0 690.0,232.0 701.0,231.9 712.0,231.8 723.0,231.9 734.0,231.9 745.0,231.9 756.0,231.9 767.0,232.0 778.0,232.0 789.0,232.0 800.0,232.0"
            fill="none" stroke="#f28e2b"
            stroke-width="2" stroke-linejoin="round"
            stroke-dasharray="5,3"/>

  <!-- dots -->
  <circle cx="52.0" cy="232.0" r="3" fill="#4e79a7"/><circle cx="63.0" cy="231.9" r="3" fill="#4e79a7"/><circle cx="74.0" cy="231.8" r="3" fill="#4e79a7"/><circle cx="85.0" cy="232.0" r="3" fill="#4e79a7"/><circle cx="96.0" cy="231.9" r="3" fill="#4e79a7"/><circle cx="107.0" cy="231.9" r="3" fill="#4e79a7"/><circle cx="118.0" cy="232.0" r="3" fill="#4e79a7"/><circle cx="129.0" cy="232.0" r="3" fill="#4e79a7"/><circle cx="140.0" cy="231.9" r="3" fill="#4e79a7"/><circle cx="151.0" cy="232.0" r="3" fill="#4e79a7"/><circle cx="162.0" cy="231.6" r="3" fill="#4e79a7"/><circle cx="173.0" cy="232.0" r="3" fill="#4e79a7"/><circle cx="184.0" cy="232.0" r="3" fill="#4e79a7"/><circle cx="195.0" cy="232.0" r="3" fill="#4e79a7"/><circle cx="206.0" cy="232.0" r="3" fill="#4e79a7"/><circle cx="217.0" cy="231.9" r="3" fill="#4e79a7"/><circle cx="228.0" cy="232.0" r="3" fill="#4e79a7"/><circle cx="239.0" cy="232.0" r="3" fill="#4e79a7"/><circle cx="250.0" cy="232.0" r="3" fill="#4e79a7"/><circle cx="261.0" cy="232.0" r="3" fill="#4e79a7"/><circle cx="272.0" cy="231.9" r="3" fill="#4e79a7"/><circle cx="283.0" cy="232.0" r="3" fill="#4e79a7"/><circle cx="294.0" cy="232.0" r="3" fill="#4e79a7"/><circle cx="305.0" cy="232.0" r="3" fill="#4e79a7"/><circle cx="316.0" cy="232.0" r="3" fill="#4e79a7"/><circle cx="327.0" cy="232.0" r="3" fill="#4e79a7"/><circle cx="338.0" cy="231.9" r="3" fill="#4e79a7"/><circle cx="349.0" cy="232.0" r="3" fill="#4e79a7"/><circle cx="360.0" cy="232.0" r="3" fill="#4e79a7"/><circle cx="371.0" cy="231.5" r="3" fill="#4e79a7"/><circle cx="382.0" cy="231.9" r="3" fill="#4e79a7"/><circle cx="393.0" cy="232.0" r="3" fill="#4e79a7"/><circle cx="404.0" cy="231.9" r="3" fill="#4e79a7"/><circle cx="415.0" cy="232.0" r="3" fill="#4e79a7"/><circle cx="426.0" cy="232.0" r="3" fill="#4e79a7"/><circle cx="437.0" cy="231.9" r="3" fill="#4e79a7"/><circle cx="448.0" cy="231.9" r="3" fill="#4e79a7"/><circle cx="459.0" cy="232.0" r="3" fill="#4e79a7"/><circle cx="470.0" cy="205.5" r="3" fill="#4e79a7"/><circle cx="481.0" cy="28.0" r="3" fill="#4e79a7"/><circle cx="492.0" cy="107.6" r="3" fill="#4e79a7"/><circle cx="503.0" cy="231.6" r="3" fill="#4e79a7"/><circle cx="514.0" cy="231.9" r="3" fill="#4e79a7"/><circle cx="525.0" cy="232.0" r="3" fill="#4e79a7"/><circle cx="536.0" cy="231.2" r="3" fill="#4e79a7"/><circle cx="547.0" cy="232.0" r="3" fill="#4e79a7"/><circle cx="558.0" cy="229.8" r="3" fill="#4e79a7"/><circle cx="569.0" cy="231.8" r="3" fill="#4e79a7"/><circle cx="580.0" cy="231.8" r="3" fill="#4e79a7"/><circle cx="591.0" cy="231.9" r="3" fill="#4e79a7"/><circle cx="602.0" cy="232.0" r="3" fill="#4e79a7"/><circle cx="613.0" cy="232.0" r="3" fill="#4e79a7"/><circle cx="624.0" cy="232.0" r="3" fill="#4e79a7"/><circle cx="635.0" cy="229.8" r="3" fill="#4e79a7"/><circle cx="646.0" cy="230.2" r="3" fill="#4e79a7"/><circle cx="657.0" cy="232.0" r="3" fill="#4e79a7"/><circle cx="668.0" cy="231.9" r="3" fill="#4e79a7"/><circle cx="679.0" cy="232.0" r="3" fill="#4e79a7"/><circle cx="690.0" cy="232.0" r="3" fill="#4e79a7"/><circle cx="701.0" cy="231.9" r="3" fill="#4e79a7"/><circle cx="712.0" cy="231.8" r="3" fill="#4e79a7"/><circle cx="723.0" cy="231.9" r="3" fill="#4e79a7"/><circle cx="734.0" cy="231.9" r="3" fill="#4e79a7"/><circle cx="745.0" cy="231.9" r="3" fill="#4e79a7"/><circle cx="756.0" cy="231.9" r="3" fill="#4e79a7"/><circle cx="767.0" cy="232.0" r="3" fill="#4e79a7"/><circle cx="778.0" cy="232.0" r="3" fill="#4e79a7"/><circle cx="789.0" cy="232.0" r="3" fill="#4e79a7"/><circle cx="800.0" cy="232.0" r="3" fill="#4e79a7"/>
  <circle cx="52.0" cy="232.0" r="3" fill="#f28e2b"/><circle cx="63.0" cy="231.9" r="3" fill="#f28e2b"/><circle cx="74.0" cy="231.8" r="3" fill="#f28e2b"/><circle cx="85.0" cy="232.0" r="3" fill="#f28e2b"/><circle cx="96.0" cy="231.9" r="3" fill="#f28e2b"/><circle cx="107.0" cy="231.9" r="3" fill="#f28e2b"/><circle cx="118.0" cy="232.0" r="3" fill="#f28e2b"/><circle cx="129.0" cy="232.0" r="3" fill="#f28e2b"/><circle cx="140.0" cy="231.9" r="3" fill="#f28e2b"/><circle cx="151.0" cy="232.0" r="3" fill="#f28e2b"/><circle cx="162.0" cy="231.9" r="3" fill="#f28e2b"/><circle cx="173.0" cy="232.0" r="3" fill="#f28e2b"/><circle cx="184.0" cy="232.0" r="3" fill="#f28e2b"/><circle cx="195.0" cy="232.0" r="3" fill="#f28e2b"/><circle cx="206.0" cy="232.0" r="3" fill="#f28e2b"/><circle cx="217.0" cy="231.9" r="3" fill="#f28e2b"/><circle cx="228.0" cy="232.0" r="3" fill="#f28e2b"/><circle cx="239.0" cy="232.0" r="3" fill="#f28e2b"/><circle cx="250.0" cy="232.0" r="3" fill="#f28e2b"/><circle cx="261.0" cy="232.0" r="3" fill="#f28e2b"/><circle cx="272.0" cy="231.9" r="3" fill="#f28e2b"/><circle cx="283.0" cy="232.0" r="3" fill="#f28e2b"/><circle cx="294.0" cy="232.0" r="3" fill="#f28e2b"/><circle cx="305.0" cy="232.0" r="3" fill="#f28e2b"/><circle cx="316.0" cy="232.0" r="3" fill="#f28e2b"/><circle cx="327.0" cy="232.0" r="3" fill="#f28e2b"/><circle cx="338.0" cy="231.9" r="3" fill="#f28e2b"/><circle cx="349.0" cy="232.0" r="3" fill="#f28e2b"/><circle cx="360.0" cy="232.0" r="3" fill="#f28e2b"/><circle cx="371.0" cy="231.6" r="3" fill="#f28e2b"/><circle cx="382.0" cy="231.9" r="3" fill="#f28e2b"/><circle cx="393.0" cy="232.0" r="3" fill="#f28e2b"/><circle cx="404.0" cy="231.9" r="3" fill="#f28e2b"/><circle cx="415.0" cy="232.0" r="3" fill="#f28e2b"/><circle cx="426.0" cy="232.0" r="3" fill="#f28e2b"/><circle cx="437.0" cy="231.9" r="3" fill="#f28e2b"/><circle cx="448.0" cy="231.9" r="3" fill="#f28e2b"/><circle cx="459.0" cy="232.0" r="3" fill="#f28e2b"/><circle cx="470.0" cy="225.1" r="3" fill="#f28e2b"/><circle cx="481.0" cy="187.8" r="3" fill="#f28e2b"/><circle cx="492.0" cy="204.2" r="3" fill="#f28e2b"/><circle cx="503.0" cy="231.6" r="3" fill="#f28e2b"/><circle cx="514.0" cy="231.9" r="3" fill="#f28e2b"/><circle cx="525.0" cy="232.0" r="3" fill="#f28e2b"/><circle cx="536.0" cy="231.8" r="3" fill="#f28e2b"/><circle cx="547.0" cy="232.0" r="3" fill="#f28e2b"/><circle cx="558.0" cy="231.3" r="3" fill="#f28e2b"/><circle cx="569.0" cy="231.9" r="3" fill="#f28e2b"/><circle cx="580.0" cy="231.8" r="3" fill="#f28e2b"/><circle cx="591.0" cy="231.9" r="3" fill="#f28e2b"/><circle cx="602.0" cy="232.0" r="3" fill="#f28e2b"/><circle cx="613.0" cy="232.0" r="3" fill="#f28e2b"/><circle cx="624.0" cy="232.0" r="3" fill="#f28e2b"/><circle cx="635.0" cy="231.8" r="3" fill="#f28e2b"/><circle cx="646.0" cy="231.6" r="3" fill="#f28e2b"/><circle cx="657.0" cy="232.0" r="3" fill="#f28e2b"/><circle cx="668.0" cy="231.9" r="3" fill="#f28e2b"/><circle cx="679.0" cy="232.0" r="3" fill="#f28e2b"/><circle cx="690.0" cy="232.0" r="3" fill="#f28e2b"/><circle cx="701.0" cy="231.9" r="3" fill="#f28e2b"/><circle cx="712.0" cy="231.8" r="3" fill="#f28e2b"/><circle cx="723.0" cy="231.9" r="3" fill="#f28e2b"/><circle cx="734.0" cy="231.9" r="3" fill="#f28e2b"/><circle cx="745.0" cy="231.9" r="3" fill="#f28e2b"/><circle cx="756.0" cy="231.9" r="3" fill="#f28e2b"/><circle cx="767.0" cy="232.0" r="3" fill="#f28e2b"/><circle cx="778.0" cy="232.0" r="3" fill="#f28e2b"/><circle cx="789.0" cy="232.0" r="3" fill="#f28e2b"/><circle cx="800.0" cy="232.0" r="3" fill="#f28e2b"/>

  <!-- axes -->
  <line x1="52" y1="28" x2="52" y2="232"
        stroke="#cccccc" stroke-width="1"/>
  <line x1="52" y1="232" x2="800" y2="232"
        stroke="#cccccc" stroke-width="1"/>

  <!-- y-axis labels -->
  <text x="47" y="236.0" text-anchor="end" font-size="10" fill="#57606a" font-family="ui-monospace, SFMono-Regular, 'SF Mono', Menlo, monospace">0</text><text x="47" y="201.0" text-anchor="end" font-size="10" fill="#57606a" font-family="ui-monospace, SFMono-Regular, 'SF Mono', Menlo, monospace">300</text><text x="47" y="166.0" text-anchor="end" font-size="10" fill="#57606a" font-family="ui-monospace, SFMono-Regular, 'SF Mono', Menlo, monospace">600</text><text x="47" y="131.0" text-anchor="end" font-size="10" fill="#57606a" font-family="ui-monospace, SFMono-Regular, 'SF Mono', Menlo, monospace">900</text><text x="47" y="96.0" text-anchor="end" font-size="10" fill="#57606a" font-family="ui-monospace, SFMono-Regular, 'SF Mono', Menlo, monospace">1,200</text><text x="47" y="60.9" text-anchor="end" font-size="10" fill="#57606a" font-family="ui-monospace, SFMono-Regular, 'SF Mono', Menlo, monospace">1,500</text><text x="47" y="25.9" text-anchor="end" font-size="10" fill="#57606a" font-family="ui-monospace, SFMono-Regular, 'SF Mono', Menlo, monospace">1,800</text>

  <!-- x-axis labels -->
  <text x="52.0" y="248" text-anchor="middle" font-size="10" fill="#8c959f" font-family="ui-monospace, SFMono-Regular, 'SF Mono', Menlo, monospace">05-11</text><text x="404.0" y="248" text-anchor="middle" font-size="10" fill="#8c959f" font-family="ui-monospace, SFMono-Regular, 'SF Mono', Menlo, monospace">06-12</text><text x="756.0" y="248" text-anchor="middle" font-size="10" fill="#8c959f" font-family="ui-monospace, SFMono-Regular, 'SF Mono', Menlo, monospace">07-14</text><text x="800.0" y="248" text-anchor="middle" font-size="10" fill="#8c959f" font-family="ui-monospace, SFMono-Regular, 'SF Mono', Menlo, monospace">07-18</text><text x="140.0" y="248" text-anchor="middle" font-size="10" fill="#8c959f" font-family="ui-monospace, SFMono-Regular, 'SF Mono', Menlo, monospace">05-19</text><text x="492.0" y="248" text-anchor="middle" font-size="10" fill="#8c959f" font-family="ui-monospace, SFMono-Regular, 'SF Mono', Menlo, monospace">06-20</text><text x="228.0" y="248" text-anchor="middle" font-size="10" fill="#8c959f" font-family="ui-monospace, SFMono-Regular, 'SF Mono', Menlo, monospace">05-27</text><text x="580.0" y="248" text-anchor="middle" font-size="10" fill="#8c959f" font-family="ui-monospace, SFMono-Regular, 'SF Mono', Menlo, monospace">06-28</text><text x="316.0" y="248" text-anchor="middle" font-size="10" fill="#8c959f" font-family="ui-monospace, SFMono-Regular, 'SF Mono', Menlo, monospace">06-04</text><text x="668.0" y="248" text-anchor="middle" font-size="10" fill="#8c959f" font-family="ui-monospace, SFMono-Regular, 'SF Mono', Menlo, monospace">07-06</text>

  <!-- legend -->
  <rect x="60" y="262" width="16" height="3" fill="#4e79a7" rx="1"/><text x="80" y="268" font-size="11" fill="#57606a" font-family="-apple-system, BlinkMacSystemFont, 'Segoe UI', sans-serif">Total clones (3,138)</text><line x1="230" y1="264" x2="246" y2="264" stroke="#f28e2b" stroke-width="2" stroke-dasharray="5,3"/><text x="250" y="268" font-size="11" fill="#57606a" font-family="-apple-system, BlinkMacSystemFont, 'Segoe UI', sans-serif">Unique cloners</text>

</svg>