<svg xmlns="http://www.w3.org/2000/svg" viewBox="0 0 820 280" width="820" height="280">

  <!-- title -->
  <text x="52" y="18" font-size="13" font-weight="600"
        fill="#24292f" font-family="-apple-system, BlinkMacSystemFont, 'Segoe UI', sans-serif"
        >Clone traffic — vigilant-core</text>
  <text x="800" y="18" font-size="10" fill="#8c959f"
        font-family="ui-monospace, SFMono-Regular, 'SF Mono', Menlo, monospace" text-anchor="end">2026-07-11</text>

  <!-- grid -->
  <line x1="52" y1="232.0" x2="800" y2="232.0" stroke="#e8e8e8" stroke-width="1"/><line x1="52" y1="197.0" x2="800" y2="197.0" stroke="#e8e8e8" stroke-width="1"/><line x1="52" y1="162.0" x2="800" y2="162.0" stroke="#e8e8e8" stroke-width="1"/><line x1="52" y1="127.0" x2="800" y2="127.0" stroke="#e8e8e8" stroke-width="1"/><line x1="52" y1="92.0" x2="800" y2="92.0" stroke="#e8e8e8" stroke-width="1"/><line x1="52" y1="56.9" x2="800" y2="56.9" stroke="#e8e8e8" stroke-width="1"/><line x1="52" y1="21.9" x2="800" y2="21.9" stroke="#e8e8e8" stroke-width="1"/>

  <!-- area fill -->
  <path d="M52.0,232.0 L52.0,232.0 L64.7,231.9 L77.4,231.8 L90.0,232.0 L102.7,231.9 L115.4,231.9 L128.1,232.0 L140.7,232.0 L153.4,231.9 L166.1,232.0 L178.8,231.6 L191.5,232.0 L204.1,232.0 L216.8,232.0 L229.5,232.0 L242.2,231.9 L254.8,232.0 L267.5,232.0 L280.2,232.0 L292.9,232.0 L305.6,231.9 L318.2,232.0 L330.9,232.0 L343.6,232.0 L356.3,232.0 L368.9,232.0 L381.6,231.9 L394.3,232.0 L407.0,232.0 L419.7,231.5 L432.3,231.9 L445.0,232.0 L457.7,231.9 L470.4,232.0 L483.1,232.0 L495.7,231.9 L508.4,231.9 L521.1,232.0 L533.8,205.5 L546.4,28.0 L559.1,107.6 L571.8,231.6 L584.5,231.9 L597.2,232.0 L609.8,231.2 L622.5,232.0 L635.2,229.8 L647.9,231.8 L660.5,231.8 L673.2,231.9 L685.9,232.0 L698.6,232.0 L711.3,232.0 L723.9,229.8 L736.6,230.2 L749.3,232.0 L762.0,231.9 L774.6,232.0 L787.3,232.0 L800.0,231.9 L800.0,232.0 L52.0,232.0Z" fill="#4e79a7" opacity="0.12"/>

  <!-- lines -->
  <polyline points="52.0,232.0 64.7,231.9 77.4,231.8 90.0,232.0 102.7,231.9 115.4,231.9 128.1,232.0 140.7,232.0 153.4,231.9 166.1,232.0 178.8,231.6 191.5,232.0 204.1,232.0 216.8,232.0 229.5,232.0 242.2,231.9 254.8,232.0 267.5,232.0 280.2,232.0 292.9,232.0 305.6,231.9 318.2,232.0 330.9,232.0 343.6,232.0 356.3,232.0 368.9,232.0 381.6,231.9 394.3,232.0 407.0,232.0 419.7,231.5 432.3,231.9 445.0,232.0 457.7,231.9 470.4,232.0 483.1,232.0 495.7,231.9 508.4,231.9 521.1,232.0 533.8,205.5 546.4,28.0 559.1,107.6 571.8,231.6 584.5,231.9 597.2,232.0 609.8,231.2 622.5,232.0 635.2,229.8 647.9,231.8 660.5,231.8 673.2,231.9 685.9,232.0 698.6,232.0 711.3,232.0 723.9,229.8 736.6,230.2 749.3,232.0 762.0,231.9 774.6,232.0 787.3,232.0 800.0,231.9"
            fill="none" stroke="#4e79a7"
            stroke-width="2" stroke-linejoin="round"/>
  <polyline points="52.0,232.0 64.7,231.9 77.4,231.8 90.0,232.0 102.7,231.9 115.4,231.9 128.1,232.0 140.7,232.0 153.4,231.9 166.1,232.0 178.8,231.9 191.5,232.0 204.1,232.0 216.8,232.0 229.5,232.0 242.2,231.9 254.8,232.0 267.5,232.0 280.2,232.0 292.9,232.0 305.6,231.9 318.2,232.0 330.9,232.0 343.6,232.0 356.3,232.0 368.9,232.0 381.6,231.9 394.3,232.0 407.0,232.0 419.7,231.6 432.3,231.9 445.0,232.0 457.7,231.9 470.4,232.0 483.1,232.0 495.7,231.9 508.4,231.9 521.1,232.0 533.8,225.1 546.4,187.8 559.1,204.2 571.8,231.6 584.5,231.9 597.2,232.0 609.8,231.8 622.5,232.0 635.2,231.3 647.9,231.9 660.5,231.8 673.2,231.9 685.9,232.0 698.6,232.0 711.3,232.0 723.9,231.8 736.6,231.6 749.3,232.0 762.0,231.9 774.6,232.0 787.3,232.0 800.0,231.9"
            fill="none" stroke="#f28e2b"
            stroke-width="2" stroke-linejoin="round"
            stroke-dasharray="5,3"/>

  <!-- dots -->
  <circle cx="52.0" cy="232.0" r="3" fill="#4e79a7"/><circle cx="64.7" cy="231.9" r="3" fill="#4e79a7"/><circle cx="77.4" cy="231.8" r="3" fill="#4e79a7"/><circle cx="90.0" cy="232.0" r="3" fill="#4e79a7"/><circle cx="102.7" cy="231.9" r="3" fill="#4e79a7"/><circle cx="115.4" cy="231.9" r="3" fill="#4e79a7"/><circle cx="128.1" cy="232.0" r="3" fill="#4e79a7"/><circle cx="140.7" cy="232.0" r="3" fill="#4e79a7"/><circle cx="153.4" cy="231.9" r="3" fill="#4e79a7"/><circle cx="166.1" cy="232.0" r="3" fill="#4e79a7"/><circle cx="178.8" cy="231.6" r="3" fill="#4e79a7"/><circle cx="191.5" cy="232.0" r="3" fill="#4e79a7"/><circle cx="204.1" cy="232.0" r="3" fill="#4e79a7"/><circle cx="216.8" cy="232.0" r="3" fill="#4e79a7"/><circle cx="229.5" cy="232.0" r="3" fill="#4e79a7"/><circle cx="242.2" cy="231.9" r="3" fill="#4e79a7"/><circle cx="254.8" cy="232.0" r="3" fill="#4e79a7"/><circle cx="267.5" cy="232.0" r="3" fill="#4e79a7"/><circle cx="280.2" cy="232.0" r="3" fill="#4e79a7"/><circle cx="292.9" cy="232.0" r="3" fill="#4e79a7"/><circle cx="305.6" cy="231.9" r="3" fill="#4e79a7"/><circle cx="318.2" cy="232.0" r="3" fill="#4e79a7"/><circle cx="330.9" cy="232.0" r="3" fill="#4e79a7"/><circle cx="343.6" cy="232.0" r="3" fill="#4e79a7"/><circle cx="356.3" cy="232.0" r="3" fill="#4e79a7"/><circle cx="368.9" cy="232.0" r="3" fill="#4e79a7"/><circle cx="381.6" cy="231.9" r="3" fill="#4e79a7"/><circle cx="394.3" cy="232.0" r="3" fill="#4e79a7"/><circle cx="407.0" cy="232.0" r="3" fill="#4e79a7"/><circle cx="419.7" cy="231.5" r="3" fill="#4e79a7"/><circle cx="432.3" cy="231.9" r="3" fill="#4e79a7"/><circle cx="445.0" cy="232.0" r="3" fill="#4e79a7"/><circle cx="457.7" cy="231.9" r="3" fill="#4e79a7"/><circle cx="470.4" cy="232.0" r="3" fill="#4e79a7"/><circle cx="483.1" cy="232.0" r="3" fill="#4e79a7"/><circle cx="495.7" cy="231.9" r="3" fill="#4e79a7"/><circle cx="508.4" cy="231.9" r="3" fill="#4e79a7"/><circle cx="521.1" cy="232.0" r="3" fill="#4e79a7"/><circle cx="533.8" cy="205.5" r="3" fill="#4e79a7"/><circle cx="546.4" cy="28.0" r="3" fill="#4e79a7"/><circle cx="559.1" cy="107.6" r="3" fill="#4e79a7"/><circle cx="571.8" cy="231.6" r="3" fill="#4e79a7"/><circle cx="584.5" cy="231.9" r="3" fill="#4e79a7"/><circle cx="597.2" cy="232.0" r="3" fill="#4e79a7"/><circle cx="609.8" cy="231.2" r="3" fill="#4e79a7"/><circle cx="622.5" cy="232.0" r="3" fill="#4e79a7"/><circle cx="635.2" cy="229.8" r="3" fill="#4e79a7"/><circle cx="647.9" cy="231.8" r="3" fill="#4e79a7"/><circle cx="660.5" cy="231.8" r="3" fill="#4e79a7"/><circle cx="673.2" cy="231.9" r="3" fill="#4e79a7"/><circle cx="685.9" cy="232.0" r="3" fill="#4e79a7"/><circle cx="698.6" cy="232.0" r="3" fill="#4e79a7"/><circle cx="711.3" cy="232.0" r="3" fill="#4e79a7"/><circle cx="723.9" cy="229.8" r="3" fill="#4e79a7"/><circle cx="736.6" cy="230.2" r="3" fill="#4e79a7"/><circle cx="749.3" cy="232.0" r="3" fill="#4e79a7"/><circle cx="762.0" cy="231.9" r="3" fill="#4e79a7"/><circle cx="774.6" cy="232.0" r="3" fill="#4e79a7"/><circle cx="787.3" cy="232.0" r="3" fill="#4e79a7"/><circle cx="800.0" cy="231.9" r="3" fill="#4e79a7"/>
  <circle cx="52.0" cy="232.0" r="3" fill="#f28e2b"/><circle cx="64.7" cy="231.9" r="3" fill="#f28e2b"/><circle cx="77.4" cy="231.8" r="3" fill="#f28e2b"/><circle cx="90.0" cy="232.0" r="3" fill="#f28e2b"/><circle cx="102.7" cy="231.9" r="3" fill="#f28e2b"/><circle cx="115.4" cy="231.9" r="3" fill="#f28e2b"/><circle cx="128.1" cy="232.0" r="3" fill="#f28e2b"/><circle cx="140.7" cy="232.0" r="3" fill="#f28e2b"/><circle cx="153.4" cy="231.9" r="3" fill="#f28e2b"/><circle cx="166.1" cy="232.0" r="3" fill="#f28e2b"/><circle cx="178.8" cy="231.9" r="3" fill="#f28e2b"/><circle cx="191.5" cy="232.0" r="3" fill="#f28e2b"/><circle cx="204.1" cy="232.0" r="3" fill="#f28e2b"/><circle cx="216.8" cy="232.0" r="3" fill="#f28e2b"/><circle cx="229.5" cy="232.0" r="3" fill="#f28e2b"/><circle cx="242.2" cy="231.9" r="3" fill="#f28e2b"/><circle cx="254.8" cy="232.0" r="3" fill="#f28e2b"/><circle cx="267.5" cy="232.0" r="3" fill="#f28e2b"/><circle cx="280.2" cy="232.0" r="3" fill="#f28e2b"/><circle cx="292.9" cy="232.0" r="3" fill="#f28e2b"/><circle cx="305.6" cy="231.9" r="3" fill="#f28e2b"/><circle cx="318.2" cy="232.0" r="3" fill="#f28e2b"/><circle cx="330.9" cy="232.0" r="3" fill="#f28e2b"/><circle cx="343.6" cy="232.0" r="3" fill="#f28e2b"/><circle cx="356.3" cy="232.0" r="3" fill="#f28e2b"/><circle cx="368.9" cy="232.0" r="3" fill="#f28e2b"/><circle cx="381.6" cy="231.9" r="3" fill="#f28e2b"/><circle cx="394.3" cy="232.0" r="3" fill="#f28e2b"/><circle cx="407.0" cy="232.0" r="3" fill="#f28e2b"/><circle cx="419.7" cy="231.6" r="3" fill="#f28e2b"/><circle cx="432.3" cy="231.9" r="3" fill="#f28e2b"/><circle cx="445.0" cy="232.0" r="3" fill="#f28e2b"/><circle cx="457.7" cy="231.9" r="3" fill="#f28e2b"/><circle cx="470.4" cy="232.0" r="3" fill="#f28e2b"/><circle cx="483.1" cy="232.0" r="3" fill="#f28e2b"/><circle cx="495.7" cy="231.9" r="3" fill="#f28e2b"/><circle cx="508.4" cy="231.9" r="3" fill="#f28e2b"/><circle cx="521.1" cy="232.0" r="3" fill="#f28e2b"/><circle cx="533.8" cy="225.1" r="3" fill="#f28e2b"/><circle cx="546.4" cy="187.8" r="3" fill="#f28e2b"/><circle cx="559.1" cy="204.2" r="3" fill="#f28e2b"/><circle cx="571.8" cy="231.6" r="3" fill="#f28e2b"/><circle cx="584.5" cy="231.9" r="3" fill="#f28e2b"/><circle cx="597.2" cy="232.0" r="3" fill="#f28e2b"/><circle cx="609.8" cy="231.8" r="3" fill="#f28e2b"/><circle cx="622.5" cy="232.0" r="3" fill="#f28e2b"/><circle cx="635.2" cy="231.3" r="3" fill="#f28e2b"/><circle cx="647.9" cy="231.9" r="3" fill="#f28e2b"/><circle cx="660.5" cy="231.8" r="3" fill="#f28e2b"/><circle cx="673.2" cy="231.9" r="3" fill="#f28e2b"/><circle cx="685.9" cy="232.0" r="3" fill="#f28e2b"/><circle cx="698.6" cy="232.0" r="3" fill="#f28e2b"/><circle cx="711.3" cy="232.0" r="3" fill="#f28e2b"/><circle cx="723.9" cy="231.8" r="3" fill="#f28e2b"/><circle cx="736.6" cy="231.6" r="3" fill="#f28e2b"/><circle cx="749.3" cy="232.0" r="3" fill="#f28e2b"/><circle cx="762.0" cy="231.9" r="3" fill="#f28e2b"/><circle cx="774.6" cy="232.0" r="3" fill="#f28e2b"/><circle cx="787.3" cy="232.0" r="3" fill="#f28e2b"/><circle cx="800.0" cy="231.9" r="3" fill="#f28e2b"/>

  <!-- axes -->
  <line x1="52" y1="28" x2="52" y2="232"
        stroke="#cccccc" stroke-width="1"/>
  <line x1="52" y1="232" x2="800" y2="232"
        stroke="#cccccc" stroke-width="1"/>

  <!-- y-axis labels -->
  <text x="47" y="236.0" text-anchor="end" font-size="10" fill="#57606a" font-family="ui-monospace, SFMono-Regular, 'SF Mono', Menlo, monospace">0</text><text x="47" y="201.0" text-anchor="end" font-size="10" fill="#57606a" font-family="ui-monospace, SFMono-Regular, 'SF Mono', Menlo, monospace">300</text><text x="47" y="166.0" text-anchor="end" font-size="10" fill="#57606a" font-family="ui-monospace, SFMono-Regular, 'SF Mono', Menlo, monospace">600</text><text x="47" y="131.0" text-anchor="end" font-size="10" fill="#57606a" font-family="ui-monospace, SFMono-Regular, 'SF Mono', Menlo, monospace">900</text><text x="47" y="96.0" text-anchor="end" font-size="10" fill="#57606a" font-family="ui-monospace, SFMono-Regular, 'SF Mono', Menlo, monospace">1,200</text><text x="47" y="60.9" text-anchor="end" font-size="10" fill="#57606a" font-family="ui-monospace, SFMono-Regular, 'SF Mono', Menlo, monospace">1,500</text><text x="47" y="25.9" text-anchor="end" font-size="10" fill="#57606a" font-family="ui-monospace, SFMono-Regular, 'SF Mono', Menlo, monospace">1,800</text>

  <!-- x-axis labels -->
  <text x="52.0" y="248" text-anchor="middle" font-size="10" fill="#8c959f" font-family="ui-monospace, SFMono-Regular, 'SF Mono', Menlo, monospace">05-11</text><text x="495.7" y="248" text-anchor="middle" font-size="10" fill="#8c959f" font-family="ui-monospace, SFMono-Regular, 'SF Mono', Menlo, monospace">06-15</text><text x="140.7" y="248" text-anchor="middle" font-size="10" fill="#8c959f" font-family="ui-monospace, SFMono-Regular, 'SF Mono', Menlo, monospace">05-18</text><text x="584.5" y="248" text-anchor="middle" font-size="10" fill="#8c959f" font-family="ui-monospace, SFMono-Regular, 'SF Mono', Menlo, monospace">06-22</text><text x="229.5" y="248" text-anchor="middle" font-size="10" fill="#8c959f" font-family="ui-monospace, SFMono-Regular, 'SF Mono', Menlo, monospace">05-25</text><text x="673.2" y="248" text-anchor="middle" font-size="10" fill="#8c959f" font-family="ui-monospace, SFMono-Regular, 'SF Mono', Menlo, monospace">06-29</text><text x="318.2" y="248" text-anchor="middle" font-size="10" fill="#8c959f" font-family="ui-monospace, SFMono-Regular, 'SF Mono', Menlo, monospace">06-01</text><text x="762.0" y="248" text-anchor="middle" font-size="10" fill="#8c959f" font-family="ui-monospace, SFMono-Regular, 'SF Mono', Menlo, monospace">07-06</text><text x="800.0" y="248" text-anchor="middle" font-size="10" fill="#8c959f" font-family="ui-monospace, SFMono-Regular, 'SF Mono', Menlo, monospace">07-09</text><text x="407.0" y="248" text-anchor="middle" font-size="10" fill="#8c959f" font-family="ui-monospace, SFMono-Regular, 'SF Mono', Menlo, monospace">06-08</text>

  <!-- legend -->
  <rect x="60" y="262" width="16" height="3" fill="#4e79a7" rx="1"/><text x="80" y="268" font-size="11" fill="#57606a" font-family="-apple-system, BlinkMacSystemFont, 'Segoe UI', sans-serif">Total clones (3,132)</text><line x1="230" y1="264" x2="246" y2="264" stroke="#f28e2b" stroke-width="2" stroke-dasharray="5,3"/><text x="250" y="268" font-size="11" fill="#57606a" font-family="-apple-system, BlinkMacSystemFont, 'Segoe UI', sans-serif">Unique cloners</text>

</svg>