<svg xmlns="http://www.w3.org/2000/svg" viewBox="0 0 820 280" width="820" height="280">

  <!-- title -->
  <text x="52" y="18" font-size="13" font-weight="600"
        fill="#24292f" font-family="-apple-system, BlinkMacSystemFont, 'Segoe UI', sans-serif"
        >Clone traffic — wp-precommit-hooks</text>
  <text x="800" y="18" font-size="10" fill="#8c959f"
        font-family="ui-monospace, SFMono-Regular, 'SF Mono', Menlo, monospace" text-anchor="end">2026-08-17</text>

  <!-- grid -->
  <line x1="52" y1="232.0" x2="800" y2="232.0" stroke="#e8e8e8" stroke-width="1"/><line x1="52" y1="193.5" x2="800" y2="193.5" stroke="#e8e8e8" stroke-width="1"/><line x1="52" y1="155.0" x2="800" y2="155.0" stroke="#e8e8e8" stroke-width="1"/><line x1="52" y1="116.5" x2="800" y2="116.5" stroke="#e8e8e8" stroke-width="1"/><line x1="52" y1="78.0" x2="800" y2="78.0" stroke="#e8e8e8" stroke-width="1"/><line x1="52" y1="39.5" x2="800" y2="39.5" stroke="#e8e8e8" stroke-width="1"/><line x1="52" y1="1.1" x2="800" y2="1.1" stroke="#e8e8e8" stroke-width="1"/>

  <!-- area fill -->
  <path d="M52.0,232.0 L52.0,232.0 L59.8,228.2 L67.6,224.3 L75.4,228.2 L83.2,232.0 L91.0,232.0 L98.8,232.0 L106.5,232.0 L114.3,232.0 L122.1,232.0 L129.9,232.0 L137.7,232.0 L145.5,232.0 L153.3,232.0 L161.1,224.3 L168.9,28.0 L176.7,35.7 L184.5,135.8 L192.2,232.0 L200.0,232.0 L207.8,228.2 L215.6,232.0 L223.4,232.0 L231.2,228.2 L239.0,232.0 L246.8,232.0 L254.6,228.2 L262.4,232.0 L270.2,232.0 L278.0,224.3 L285.8,228.2 L293.5,232.0 L301.3,228.2 L309.1,232.0 L316.9,232.0 L324.7,232.0 L332.5,232.0 L340.3,232.0 L348.1,178.1 L355.9,220.5 L363.7,224.3 L371.5,228.2 L379.2,228.2 L387.0,224.3 L394.8,228.2 L402.6,228.2 L410.4,224.3 L418.2,232.0 L426.0,228.2 L433.8,232.0 L441.6,232.0 L449.4,232.0 L457.2,232.0 L465.0,228.2 L472.8,232.0 L480.5,232.0 L488.3,232.0 L496.1,228.2 L503.9,232.0 L511.7,232.0 L519.5,232.0 L527.3,228.2 L535.1,232.0 L542.9,224.3 L550.7,232.0 L558.5,228.2 L566.2,228.2 L574.0,232.0 L581.8,228.2 L589.6,228.2 L597.4,232.0 L605.2,228.2 L613.0,228.2 L620.8,228.2 L628.6,228.2 L636.4,228.2 L644.2,232.0 L652.0,232.0 L659.8,232.0 L667.5,232.0 L675.3,228.2 L683.1,224.3 L690.9,232.0 L698.7,232.0 L706.5,228.2 L714.3,232.0 L722.1,232.0 L729.9,232.0 L737.7,224.3 L745.5,228.2 L753.2,228.2 L761.0,228.2 L768.8,224.3 L776.6,232.0 L784.4,232.0 L792.2,232.0 L800.0,232.0 L800.0,232.0 L52.0,232.0Z" fill="#4e79a7" opacity="0.12"/>

  <!-- lines -->
  <polyline points="52.0,232.0 59.8,228.2 67.6,224.3 75.4,228.2 83.2,232.0 91.0,232.0 98.8,232.0 106.5,232.0 114.3,232.0 122.1,232.0 129.9,232.0 137.7,232.0 145.5,232.0 153.3,232.0 161.1,224.3 168.9,28.0 176.7,35.7 184.5,135.8 192.2,232.0 200.0,232.0 207.8,228.2 215.6,232.0 223.4,232.0 231.2,228.2 239.0,232.0 246.8,232.0 254.6,228.2 262.4,232.0 270.2,232.0 278.0,224.3 285.8,228.2 293.5,232.0 301.3,228.2 309.1,232.0 316.9,232.0 324.7,232.0 332.5,232.0 340.3,232.0 348.1,178.1 355.9,220.5 363.7,224.3 371.5,228.2 379.2,228.2 387.0,224.3 394.8,228.2 402.6,228.2 410.4,224.3 418.2,232.0 426.0,228.2 433.8,232.0 441.6,232.0 449.4,232.0 457.2,232.0 465.0,228.2 472.8,232.0 480.5,232.0 488.3,232.0 496.1,228.2 503.9,232.0 511.7,232.0 519.5,232.0 527.3,228.2 535.1,232.0 542.9,224.3 550.7,232.0 558.5,228.2 566.2,228.2 574.0,232.0 581.8,228.2 589.6,228.2 597.4,232.0 605.2,228.2 613.0,228.2 620.8,228.2 628.6,228.2 636.4,228.2 644.2,232.0 652.0,232.0 659.8,232.0 667.5,232.0 675.3,228.2 683.1,224.3 690.9,232.0 698.7,232.0 706.5,228.2 714.3,232.0 722.1,232.0 729.9,232.0 737.7,224.3 745.5,228.2 753.2,228.2 761.0,228.2 768.8,224.3 776.6,232.0 784.4,232.0 792.2,232.0 800.0,232.0"
            fill="none" stroke="#4e79a7"
            stroke-width="2" stroke-linejoin="round"/>
  <polyline points="52.0,232.0 59.8,228.2 67.6,224.3 75.4,228.2 83.2,232.0 91.0,232.0 98.8,232.0 106.5,232.0 114.3,232.0 122.1,232.0 129.9,232.0 137.7,232.0 145.5,232.0 153.3,232.0 161.1,228.2 168.9,135.8 176.7,139.6 184.5,185.8 192.2,232.0 200.0,232.0 207.8,228.2 215.6,232.0 223.4,232.0 231.2,228.2 239.0,232.0 246.8,232.0 254.6,228.2 262.4,232.0 270.2,232.0 278.0,224.3 285.8,228.2 293.5,232.0 301.3,228.2 309.1,232.0 316.9,232.0 324.7,232.0 332.5,232.0 340.3,232.0 348.1,189.7 355.9,220.5 363.7,224.3 371.5,228.2 379.2,228.2 387.0,224.3 394.8,228.2 402.6,228.2 410.4,224.3 418.2,232.0 426.0,228.2 433.8,232.0 441.6,232.0 449.4,232.0 457.2,232.0 465.0,228.2 472.8,232.0 480.5,232.0 488.3,232.0 496.1,228.2 503.9,232.0 511.7,232.0 519.5,232.0 527.3,228.2 535.1,232.0 542.9,224.3 550.7,232.0 558.5,228.2 566.2,228.2 574.0,232.0 581.8,228.2 589.6,228.2 597.4,232.0 605.2,228.2 613.0,228.2 620.8,228.2 628.6,228.2 636.4,228.2 644.2,232.0 652.0,232.0 659.8,232.0 667.5,232.0 675.3,228.2 683.1,228.2 690.9,232.0 698.7,232.0 706.5,228.2 714.3,232.0 722.1,232.0 729.9,232.0 737.7,224.3 745.5,228.2 753.2,228.2 761.0,228.2 768.8,224.3 776.6,232.0 784.4,232.0 792.2,232.0 800.0,232.0"
            fill="none" stroke="#f28e2b"
            stroke-width="2" stroke-linejoin="round"
            stroke-dasharray="5,3"/>

  <!-- dots -->
  <circle cx="52.0" cy="232.0" r="3" fill="#4e79a7"/><circle cx="59.8" cy="228.2" r="3" fill="#4e79a7"/><circle cx="67.6" cy="224.3" r="3" fill="#4e79a7"/><circle cx="75.4" cy="228.2" r="3" fill="#4e79a7"/><circle cx="83.2" cy="232.0" r="3" fill="#4e79a7"/><circle cx="91.0" cy="232.0" r="3" fill="#4e79a7"/><circle cx="98.8" cy="232.0" r="3" fill="#4e79a7"/><circle cx="106.5" cy="232.0" r="3" fill="#4e79a7"/><circle cx="114.3" cy="232.0" r="3" fill="#4e79a7"/><circle cx="122.1" cy="232.0" r="3" fill="#4e79a7"/><circle cx="129.9" cy="232.0" r="3" fill="#4e79a7"/><circle cx="137.7" cy="232.0" r="3" fill="#4e79a7"/><circle cx="145.5" cy="232.0" r="3" fill="#4e79a7"/><circle cx="153.3" cy="232.0" r="3" fill="#4e79a7"/><circle cx="161.1" cy="224.3" r="3" fill="#4e79a7"/><circle cx="168.9" cy="28.0" r="3" fill="#4e79a7"/><circle cx="176.7" cy="35.7" r="3" fill="#4e79a7"/><circle cx="184.5" cy="135.8" r="3" fill="#4e79a7"/><circle cx="192.2" cy="232.0" r="3" fill="#4e79a7"/><circle cx="200.0" cy="232.0" r="3" fill="#4e79a7"/><circle cx="207.8" cy="228.2" r="3" fill="#4e79a7"/><circle cx="215.6" cy="232.0" r="3" fill="#4e79a7"/><circle cx="223.4" cy="232.0" r="3" fill="#4e79a7"/><circle cx="231.2" cy="228.2" r="3" fill="#4e79a7"/><circle cx="239.0" cy="232.0" r="3" fill="#4e79a7"/><circle cx="246.8" cy="232.0" r="3" fill="#4e79a7"/><circle cx="254.6" cy="228.2" r="3" fill="#4e79a7"/><circle cx="262.4" cy="232.0" r="3" fill="#4e79a7"/><circle cx="270.2" cy="232.0" r="3" fill="#4e79a7"/><circle cx="278.0" cy="224.3" r="3" fill="#4e79a7"/><circle cx="285.8" cy="228.2" r="3" fill="#4e79a7"/><circle cx="293.5" cy="232.0" r="3" fill="#4e79a7"/><circle cx="301.3" cy="228.2" r="3" fill="#4e79a7"/><circle cx="309.1" cy="232.0" r="3" fill="#4e79a7"/><circle cx="316.9" cy="232.0" r="3" fill="#4e79a7"/><circle cx="324.7" cy="232.0" r="3" fill="#4e79a7"/><circle cx="332.5" cy="232.0" r="3" fill="#4e79a7"/><circle cx="340.3" cy="232.0" r="3" fill="#4e79a7"/><circle cx="348.1" cy="178.1" r="3" fill="#4e79a7"/><circle cx="355.9" cy="220.5" r="3" fill="#4e79a7"/><circle cx="363.7" cy="224.3" r="3" fill="#4e79a7"/><circle cx="371.5" cy="228.2" r="3" fill="#4e79a7"/><circle cx="379.2" cy="228.2" r="3" fill="#4e79a7"/><circle cx="387.0" cy="224.3" r="3" fill="#4e79a7"/><circle cx="394.8" cy="228.2" r="3" fill="#4e79a7"/><circle cx="402.6" cy="228.2" r="3" fill="#4e79a7"/><circle cx="410.4" cy="224.3" r="3" fill="#4e79a7"/><circle cx="418.2" cy="232.0" r="3" fill="#4e79a7"/><circle cx="426.0" cy="228.2" r="3" fill="#4e79a7"/><circle cx="433.8" cy="232.0" r="3" fill="#4e79a7"/><circle cx="441.6" cy="232.0" r="3" fill="#4e79a7"/><circle cx="449.4" cy="232.0" r="3" fill="#4e79a7"/><circle cx="457.2" cy="232.0" r="3" fill="#4e79a7"/><circle cx="465.0" cy="228.2" r="3" fill="#4e79a7"/><circle cx="472.8" cy="232.0" r="3" fill="#4e79a7"/><circle cx="480.5" cy="232.0" r="3" fill="#4e79a7"/><circle cx="488.3" cy="232.0" r="3" fill="#4e79a7"/><circle cx="496.1" cy="228.2" r="3" fill="#4e79a7"/><circle cx="503.9" cy="232.0" r="3" fill="#4e79a7"/><circle cx="511.7" cy="232.0" r="3" fill="#4e79a7"/><circle cx="519.5" cy="232.0" r="3" fill="#4e79a7"/><circle cx="527.3" cy="228.2" r="3" fill="#4e79a7"/><circle cx="535.1" cy="232.0" r="3" fill="#4e79a7"/><circle cx="542.9" cy="224.3" r="3" fill="#4e79a7"/><circle cx="550.7" cy="232.0" r="3" fill="#4e79a7"/><circle cx="558.5" cy="228.2" r="3" fill="#4e79a7"/><circle cx="566.2" cy="228.2" r="3" fill="#4e79a7"/><circle cx="574.0" cy="232.0" r="3" fill="#4e79a7"/><circle cx="581.8" cy="228.2" r="3" fill="#4e79a7"/><circle cx="589.6" cy="228.2" r="3" fill="#4e79a7"/><circle cx="597.4" cy="232.0" r="3" fill="#4e79a7"/><circle cx="605.2" cy="228.2" r="3" fill="#4e79a7"/><circle cx="613.0" cy="228.2" r="3" fill="#4e79a7"/><circle cx="620.8" cy="228.2" r="3" fill="#4e79a7"/><circle cx="628.6" cy="228.2" r="3" fill="#4e79a7"/><circle cx="636.4" cy="228.2" r="3" fill="#4e79a7"/><circle cx="644.2" cy="232.0" r="3" fill="#4e79a7"/><circle cx="652.0" cy="232.0" r="3" fill="#4e79a7"/><circle cx="659.8" cy="232.0" r="3" fill="#4e79a7"/><circle cx="667.5" cy="232.0" r="3" fill="#4e79a7"/><circle cx="675.3" cy="228.2" r="3" fill="#4e79a7"/><circle cx="683.1" cy="224.3" r="3" fill="#4e79a7"/><circle cx="690.9" cy="232.0" r="3" fill="#4e79a7"/><circle cx="698.7" cy="232.0" r="3" fill="#4e79a7"/><circle cx="706.5" cy="228.2" r="3" fill="#4e79a7"/><circle cx="714.3" cy="232.0" r="3" fill="#4e79a7"/><circle cx="722.1" cy="232.0" r="3" fill="#4e79a7"/><circle cx="729.9" cy="232.0" r="3" fill="#4e79a7"/><circle cx="737.7" cy="224.3" r="3" fill="#4e79a7"/><circle cx="745.5" cy="228.2" r="3" fill="#4e79a7"/><circle cx="753.2" cy="228.2" r="3" fill="#4e79a7"/><circle cx="761.0" cy="228.2" r="3" fill="#4e79a7"/><circle cx="768.8" cy="224.3" r="3" fill="#4e79a7"/><circle cx="776.6" cy="232.0" r="3" fill="#4e79a7"/><circle cx="784.4" cy="232.0" r="3" fill="#4e79a7"/><circle cx="792.2" cy="232.0" r="3" fill="#4e79a7"/><circle cx="800.0" cy="232.0" r="3" fill="#4e79a7"/>
  <circle cx="52.0" cy="232.0" r="3" fill="#f28e2b"/><circle cx="59.8" cy="228.2" r="3" fill="#f28e2b"/><circle cx="67.6" cy="224.3" r="3" fill="#f28e2b"/><circle cx="75.4" cy="228.2" r="3" fill="#f28e2b"/><circle cx="83.2" cy="232.0" r="3" fill="#f28e2b"/><circle cx="91.0" cy="232.0" r="3" fill="#f28e2b"/><circle cx="98.8" cy="232.0" r="3" fill="#f28e2b"/><circle cx="106.5" cy="232.0" r="3" fill="#f28e2b"/><circle cx="114.3" cy="232.0" r="3" fill="#f28e2b"/><circle cx="122.1" cy="232.0" r="3" fill="#f28e2b"/><circle cx="129.9" cy="232.0" r="3" fill="#f28e2b"/><circle cx="137.7" cy="232.0" r="3" fill="#f28e2b"/><circle cx="145.5" cy="232.0" r="3" fill="#f28e2b"/><circle cx="153.3" cy="232.0" r="3" fill="#f28e2b"/><circle cx="161.1" cy="228.2" r="3" fill="#f28e2b"/><circle cx="168.9" cy="135.8" r="3" fill="#f28e2b"/><circle cx="176.7" cy="139.6" r="3" fill="#f28e2b"/><circle cx="184.5" cy="185.8" r="3" fill="#f28e2b"/><circle cx="192.2" cy="232.0" r="3" fill="#f28e2b"/><circle cx="200.0" cy="232.0" r="3" fill="#f28e2b"/><circle cx="207.8" cy="228.2" r="3" fill="#f28e2b"/><circle cx="215.6" cy="232.0" r="3" fill="#f28e2b"/><circle cx="223.4" cy="232.0" r="3" fill="#f28e2b"/><circle cx="231.2" cy="228.2" r="3" fill="#f28e2b"/><circle cx="239.0" cy="232.0" r="3" fill="#f28e2b"/><circle cx="246.8" cy="232.0" r="3" fill="#f28e2b"/><circle cx="254.6" cy="228.2" r="3" fill="#f28e2b"/><circle cx="262.4" cy="232.0" r="3" fill="#f28e2b"/><circle cx="270.2" cy="232.0" r="3" fill="#f28e2b"/><circle cx="278.0" cy="224.3" r="3" fill="#f28e2b"/><circle cx="285.8" cy="228.2" r="3" fill="#f28e2b"/><circle cx="293.5" cy="232.0" r="3" fill="#f28e2b"/><circle cx="301.3" cy="228.2" r="3" fill="#f28e2b"/><circle cx="309.1" cy="232.0" r="3" fill="#f28e2b"/><circle cx="316.9" cy="232.0" r="3" fill="#f28e2b"/><circle cx="324.7" cy="232.0" r="3" fill="#f28e2b"/><circle cx="332.5" cy="232.0" r="3" fill="#f28e2b"/><circle cx="340.3" cy="232.0" r="3" fill="#f28e2b"/><circle cx="348.1" cy="189.7" r="3" fill="#f28e2b"/><circle cx="355.9" cy="220.5" r="3" fill="#f28e2b"/><circle cx="363.7" cy="224.3" r="3" fill="#f28e2b"/><circle cx="371.5" cy="228.2" r="3" fill="#f28e2b"/><circle cx="379.2" cy="228.2" r="3" fill="#f28e2b"/><circle cx="387.0" cy="224.3" r="3" fill="#f28e2b"/><circle cx="394.8" cy="228.2" r="3" fill="#f28e2b"/><circle cx="402.6" cy="228.2" r="3" fill="#f28e2b"/><circle cx="410.4" cy="224.3" r="3" fill="#f28e2b"/><circle cx="418.2" cy="232.0" r="3" fill="#f28e2b"/><circle cx="426.0" cy="228.2" r="3" fill="#f28e2b"/><circle cx="433.8" cy="232.0" r="3" fill="#f28e2b"/><circle cx="441.6" cy="232.0" r="3" fill="#f28e2b"/><circle cx="449.4" cy="232.0" r="3" fill="#f28e2b"/><circle cx="457.2" cy="232.0" r="3" fill="#f28e2b"/><circle cx="465.0" cy="228.2" r="3" fill="#f28e2b"/><circle cx="472.8" cy="232.0" r="3" fill="#f28e2b"/><circle cx="480.5" cy="232.0" r="3" fill="#f28e2b"/><circle cx="488.3" cy="232.0" r="3" fill="#f28e2b"/><circle cx="496.1" cy="228.2" r="3" fill="#f28e2b"/><circle cx="503.9" cy="232.0" r="3" fill="#f28e2b"/><circle cx="511.7" cy="232.0" r="3" fill="#f28e2b"/><circle cx="519.5" cy="232.0" r="3" fill="#f28e2b"/><circle cx="527.3" cy="228.2" r="3" fill="#f28e2b"/><circle cx="535.1" cy="232.0" r="3" fill="#f28e2b"/><circle cx="542.9" cy="224.3" r="3" fill="#f28e2b"/><circle cx="550.7" cy="232.0" r="3" fill="#f28e2b"/><circle cx="558.5" cy="228.2" r="3" fill="#f28e2b"/><circle cx="566.2" cy="228.2" r="3" fill="#f28e2b"/><circle cx="574.0" cy="232.0" r="3" fill="#f28e2b"/><circle cx="581.8" cy="228.2" r="3" fill="#f28e2b"/><circle cx="589.6" cy="228.2" r="3" fill="#f28e2b"/><circle cx="597.4" cy="232.0" r="3" fill="#f28e2b"/><circle cx="605.2" cy="228.2" r="3" fill="#f28e2b"/><circle cx="613.0" cy="228.2" r="3" fill="#f28e2b"/><circle cx="620.8" cy="228.2" r="3" fill="#f28e2b"/><circle cx="628.6" cy="228.2" r="3" fill="#f28e2b"/><circle cx="636.4" cy="228.2" r="3" fill="#f28e2b"/><circle cx="644.2" cy="232.0" r="3" fill="#f28e2b"/><circle cx="652.0" cy="232.0" r="3" fill="#f28e2b"/><circle cx="659.8" cy="232.0" r="3" fill="#f28e2b"/><circle cx="667.5" cy="232.0" r="3" fill="#f28e2b"/><circle cx="675.3" cy="228.2" r="3" fill="#f28e2b"/><circle cx="683.1" cy="228.2" r="3" fill="#f28e2b"/><circle cx="690.9" cy="232.0" r="3" fill="#f28e2b"/><circle cx="698.7" cy="232.0" r="3" fill="#f28e2b"/><circle cx="706.5" cy="228.2" r="3" fill="#f28e2b"/><circle cx="714.3" cy="232.0" r="3" fill="#f28e2b"/><circle cx="722.1" cy="232.0" r="3" fill="#f28e2b"/><circle cx="729.9" cy="232.0" r="3" fill="#f28e2b"/><circle cx="737.7" cy="224.3" r="3" fill="#f28e2b"/><circle cx="745.5" cy="228.2" r="3" fill="#f28e2b"/><circle cx="753.2" cy="228.2" r="3" fill="#f28e2b"/><circle cx="761.0" cy="228.2" r="3" fill="#f28e2b"/><circle cx="768.8" cy="224.3" r="3" fill="#f28e2b"/><circle cx="776.6" cy="232.0" r="3" fill="#f28e2b"/><circle cx="784.4" cy="232.0" r="3" fill="#f28e2b"/><circle cx="792.2" cy="232.0" r="3" fill="#f28e2b"/><circle cx="800.0" cy="232.0" r="3" fill="#f28e2b"/>

  <!-- axes -->
  <line x1="52" y1="28" x2="52" y2="232"
        stroke="#cccccc" stroke-width="1"/>
  <line x1="52" y1="232" x2="800" y2="232"
        stroke="#cccccc" stroke-width="1"/>

  <!-- y-axis labels -->
  <text x="47" y="236.0" text-anchor="end" font-size="10" fill="#57606a" font-family="ui-monospace, SFMono-Regular, 'SF Mono', Menlo, monospace">0</text><text x="47" y="197.5" text-anchor="end" font-size="10" fill="#57606a" font-family="ui-monospace, SFMono-Regular, 'SF Mono', Menlo, monospace">10</text><text x="47" y="159.0" text-anchor="end" font-size="10" fill="#57606a" font-family="ui-monospace, SFMono-Regular, 'SF Mono', Menlo, monospace">20</text><text x="47" y="120.5" text-anchor="end" font-size="10" fill="#57606a" font-family="ui-monospace, SFMono-Regular, 'SF Mono', Menlo, monospace">30</text><text x="47" y="82.0" text-anchor="end" font-size="10" fill="#57606a" font-family="ui-monospace, SFMono-Regular, 'SF Mono', Menlo, monospace">40</text><text x="47" y="43.5" text-anchor="end" font-size="10" fill="#57606a" font-family="ui-monospace, SFMono-Regular, 'SF Mono', Menlo, monospace">50</text><text x="47" y="5.1" text-anchor="end" font-size="10" fill="#57606a" font-family="ui-monospace, SFMono-Regular, 'SF Mono', Menlo, monospace">60</text>

  <!-- x-axis labels -->
  <text x="52.0" y="248" text-anchor="middle" font-size="10" fill="#8c959f" font-family="ui-monospace, SFMono-Regular, 'SF Mono', Menlo, monospace">05-11</text><text x="800.0" y="248" text-anchor="middle" font-size="10" fill="#8c959f" font-family="ui-monospace, SFMono-Regular, 'SF Mono', Menlo, monospace">08-15</text><text x="332.5" y="248" text-anchor="middle" font-size="10" fill="#8c959f" font-family="ui-monospace, SFMono-Regular, 'SF Mono', Menlo, monospace">06-16</text><text x="613.0" y="248" text-anchor="middle" font-size="10" fill="#8c959f" font-family="ui-monospace, SFMono-Regular, 'SF Mono', Menlo, monospace">07-22</text><text x="145.5" y="248" text-anchor="middle" font-size="10" fill="#8c959f" font-family="ui-monospace, SFMono-Regular, 'SF Mono', Menlo, monospace">05-23</text><text x="426.0" y="248" text-anchor="middle" font-size="10" fill="#8c959f" font-family="ui-monospace, SFMono-Regular, 'SF Mono', Menlo, monospace">06-28</text><text x="706.5" y="248" text-anchor="middle" font-size="10" fill="#8c959f" font-family="ui-monospace, SFMono-Regular, 'SF Mono', Menlo, monospace">08-03</text><text x="239.0" y="248" text-anchor="middle" font-size="10" fill="#8c959f" font-family="ui-monospace, SFMono-Regular, 'SF Mono', Menlo, monospace">06-04</text><text x="519.5" y="248" text-anchor="middle" font-size="10" fill="#8c959f" font-family="ui-monospace, SFMono-Regular, 'SF Mono', Menlo, monospace">07-10</text>

  <!-- legend -->
  <rect x="60" y="262" width="16" height="3" fill="#4e79a7" rx="1"/><text x="80" y="268" font-size="11" fill="#57606a" font-family="-apple-system, BlinkMacSystemFont, 'Segoe UI', sans-serif">Total clones (195)</text><line x1="230" y1="264" x2="246" y2="264" stroke="#f28e2b" stroke-width="2" stroke-dasharray="5,3"/><text x="250" y="268" font-size="11" fill="#57606a" font-family="-apple-system, BlinkMacSystemFont, 'Segoe UI', sans-serif">Unique cloners</text>

</svg>