<svg xmlns="http://www.w3.org/2000/svg" viewBox="0 0 820 280" width="820" height="280">

  <!-- title -->
  <text x="52" y="18" font-size="13" font-weight="600"
        fill="#24292f" font-family="-apple-system, BlinkMacSystemFont, 'Segoe UI', sans-serif"
        >Clone traffic — x240-kbd</text>
  <text x="800" y="18" font-size="10" fill="#8c959f"
        font-family="ui-monospace, SFMono-Regular, 'SF Mono', Menlo, monospace" text-anchor="end">2026-07-19</text>

  <!-- grid -->
  <line x1="52" y1="232.0" x2="800" y2="232.0" stroke="#e8e8e8" stroke-width="1"/><line x1="52" y1="193.8" x2="800" y2="193.8" stroke="#e8e8e8" stroke-width="1"/><line x1="52" y1="155.5" x2="800" y2="155.5" stroke="#e8e8e8" stroke-width="1"/><line x1="52" y1="117.2" x2="800" y2="117.2" stroke="#e8e8e8" stroke-width="1"/><line x1="52" y1="79.0" x2="800" y2="79.0" stroke="#e8e8e8" stroke-width="1"/><line x1="52" y1="40.8" x2="800" y2="40.8" stroke="#e8e8e8" stroke-width="1"/><line x1="52" y1="2.5" x2="800" y2="2.5" stroke="#e8e8e8" stroke-width="1"/>

  <!-- area fill -->
  <path d="M52.0,232.0 L52.0,232.0 L63.2,206.5 L74.3,206.5 L85.5,232.0 L96.7,232.0 L107.8,232.0 L119.0,232.0 L130.1,232.0 L141.3,219.2 L152.5,232.0 L163.6,232.0 L174.8,232.0 L186.0,219.2 L197.1,232.0 L208.3,219.2 L219.5,232.0 L230.6,232.0 L241.8,232.0 L253.0,232.0 L264.1,219.2 L275.3,206.5 L286.4,232.0 L297.6,232.0 L308.8,232.0 L319.9,219.2 L331.1,219.2 L342.3,219.2 L353.4,232.0 L364.6,232.0 L375.8,206.5 L386.9,219.2 L398.1,219.2 L409.3,232.0 L420.4,219.2 L431.6,232.0 L442.7,232.0 L453.9,232.0 L465.1,232.0 L476.2,28.0 L487.4,168.2 L498.6,181.0 L509.7,219.2 L520.9,219.2 L532.1,206.5 L543.2,53.5 L554.4,219.2 L565.6,219.2 L576.7,219.2 L587.9,219.2 L599.0,232.0 L610.2,219.2 L621.4,232.0 L632.5,219.2 L643.7,219.2 L654.9,219.2 L666.0,232.0 L677.2,219.2 L688.4,181.0 L699.5,219.2 L710.7,232.0 L721.9,232.0 L733.0,219.2 L744.2,232.0 L755.3,232.0 L766.5,232.0 L777.7,219.2 L788.8,232.0 L800.0,232.0 L800.0,232.0 L52.0,232.0Z" fill="#4e79a7" opacity="0.12"/>

  <!-- lines -->
  <polyline points="52.0,232.0 63.2,206.5 74.3,206.5 85.5,232.0 96.7,232.0 107.8,232.0 119.0,232.0 130.1,232.0 141.3,219.2 152.5,232.0 163.6,232.0 174.8,232.0 186.0,219.2 197.1,232.0 208.3,219.2 219.5,232.0 230.6,232.0 241.8,232.0 253.0,232.0 264.1,219.2 275.3,206.5 286.4,232.0 297.6,232.0 308.8,232.0 319.9,219.2 331.1,219.2 342.3,219.2 353.4,232.0 364.6,232.0 375.8,206.5 386.9,219.2 398.1,219.2 409.3,232.0 420.4,219.2 431.6,232.0 442.7,232.0 453.9,232.0 465.1,232.0 476.2,28.0 487.4,168.2 498.6,181.0 509.7,219.2 520.9,219.2 532.1,206.5 543.2,53.5 554.4,219.2 565.6,219.2 576.7,219.2 587.9,219.2 599.0,232.0 610.2,219.2 621.4,232.0 632.5,219.2 643.7,219.2 654.9,219.2 666.0,232.0 677.2,219.2 688.4,181.0 699.5,219.2 710.7,232.0 721.9,232.0 733.0,219.2 744.2,232.0 755.3,232.0 766.5,232.0 777.7,219.2 788.8,232.0 800.0,232.0"
            fill="none" stroke="#4e79a7"
            stroke-width="2" stroke-linejoin="round"/>
  <polyline points="52.0,232.0 63.2,206.5 74.3,206.5 85.5,232.0 96.7,232.0 107.8,232.0 119.0,232.0 130.1,232.0 141.3,219.2 152.5,232.0 163.6,232.0 174.8,232.0 186.0,219.2 197.1,232.0 208.3,219.2 219.5,232.0 230.6,232.0 241.8,232.0 253.0,232.0 264.1,219.2 275.3,206.5 286.4,232.0 297.6,232.0 308.8,232.0 319.9,219.2 331.1,219.2 342.3,219.2 353.4,232.0 364.6,232.0 375.8,206.5 386.9,219.2 398.1,219.2 409.3,232.0 420.4,219.2 431.6,232.0 442.7,232.0 453.9,232.0 465.1,232.0 476.2,79.0 487.4,168.2 498.6,181.0 509.7,219.2 520.9,219.2 532.1,206.5 543.2,142.8 554.4,219.2 565.6,219.2 576.7,219.2 587.9,219.2 599.0,232.0 610.2,219.2 621.4,232.0 632.5,219.2 643.7,219.2 654.9,219.2 666.0,232.0 677.2,219.2 688.4,219.2 699.5,219.2 710.7,232.0 721.9,232.0 733.0,219.2 744.2,232.0 755.3,232.0 766.5,232.0 777.7,219.2 788.8,232.0 800.0,232.0"
            fill="none" stroke="#f28e2b"
            stroke-width="2" stroke-linejoin="round"
            stroke-dasharray="5,3"/>

  <!-- dots -->
  <circle cx="52.0" cy="232.0" r="3" fill="#4e79a7"/><circle cx="63.2" cy="206.5" r="3" fill="#4e79a7"/><circle cx="74.3" cy="206.5" r="3" fill="#4e79a7"/><circle cx="85.5" cy="232.0" r="3" fill="#4e79a7"/><circle cx="96.7" cy="232.0" r="3" fill="#4e79a7"/><circle cx="107.8" cy="232.0" r="3" fill="#4e79a7"/><circle cx="119.0" cy="232.0" r="3" fill="#4e79a7"/><circle cx="130.1" cy="232.0" r="3" fill="#4e79a7"/><circle cx="141.3" cy="219.2" r="3" fill="#4e79a7"/><circle cx="152.5" cy="232.0" r="3" fill="#4e79a7"/><circle cx="163.6" cy="232.0" r="3" fill="#4e79a7"/><circle cx="174.8" cy="232.0" r="3" fill="#4e79a7"/><circle cx="186.0" cy="219.2" r="3" fill="#4e79a7"/><circle cx="197.1" cy="232.0" r="3" fill="#4e79a7"/><circle cx="208.3" cy="219.2" r="3" fill="#4e79a7"/><circle cx="219.5" cy="232.0" r="3" fill="#4e79a7"/><circle cx="230.6" cy="232.0" r="3" fill="#4e79a7"/><circle cx="241.8" cy="232.0" r="3" fill="#4e79a7"/><circle cx="253.0" cy="232.0" r="3" fill="#4e79a7"/><circle cx="264.1" cy="219.2" r="3" fill="#4e79a7"/><circle cx="275.3" cy="206.5" r="3" fill="#4e79a7"/><circle cx="286.4" cy="232.0" r="3" fill="#4e79a7"/><circle cx="297.6" cy="232.0" r="3" fill="#4e79a7"/><circle cx="308.8" cy="232.0" r="3" fill="#4e79a7"/><circle cx="319.9" cy="219.2" r="3" fill="#4e79a7"/><circle cx="331.1" cy="219.2" r="3" fill="#4e79a7"/><circle cx="342.3" cy="219.2" r="3" fill="#4e79a7"/><circle cx="353.4" cy="232.0" r="3" fill="#4e79a7"/><circle cx="364.6" cy="232.0" r="3" fill="#4e79a7"/><circle cx="375.8" cy="206.5" r="3" fill="#4e79a7"/><circle cx="386.9" cy="219.2" r="3" fill="#4e79a7"/><circle cx="398.1" cy="219.2" r="3" fill="#4e79a7"/><circle cx="409.3" cy="232.0" r="3" fill="#4e79a7"/><circle cx="420.4" cy="219.2" r="3" fill="#4e79a7"/><circle cx="431.6" cy="232.0" r="3" fill="#4e79a7"/><circle cx="442.7" cy="232.0" r="3" fill="#4e79a7"/><circle cx="453.9" cy="232.0" r="3" fill="#4e79a7"/><circle cx="465.1" cy="232.0" r="3" fill="#4e79a7"/><circle cx="476.2" cy="28.0" r="3" fill="#4e79a7"/><circle cx="487.4" cy="168.2" r="3" fill="#4e79a7"/><circle cx="498.6" cy="181.0" r="3" fill="#4e79a7"/><circle cx="509.7" cy="219.2" r="3" fill="#4e79a7"/><circle cx="520.9" cy="219.2" r="3" fill="#4e79a7"/><circle cx="532.1" cy="206.5" r="3" fill="#4e79a7"/><circle cx="543.2" cy="53.5" r="3" fill="#4e79a7"/><circle cx="554.4" cy="219.2" r="3" fill="#4e79a7"/><circle cx="565.6" cy="219.2" r="3" fill="#4e79a7"/><circle cx="576.7" cy="219.2" r="3" fill="#4e79a7"/><circle cx="587.9" cy="219.2" r="3" fill="#4e79a7"/><circle cx="599.0" cy="232.0" r="3" fill="#4e79a7"/><circle cx="610.2" cy="219.2" r="3" fill="#4e79a7"/><circle cx="621.4" cy="232.0" r="3" fill="#4e79a7"/><circle cx="632.5" cy="219.2" r="3" fill="#4e79a7"/><circle cx="643.7" cy="219.2" r="3" fill="#4e79a7"/><circle cx="654.9" cy="219.2" r="3" fill="#4e79a7"/><circle cx="666.0" cy="232.0" r="3" fill="#4e79a7"/><circle cx="677.2" cy="219.2" r="3" fill="#4e79a7"/><circle cx="688.4" cy="181.0" r="3" fill="#4e79a7"/><circle cx="699.5" cy="219.2" r="3" fill="#4e79a7"/><circle cx="710.7" cy="232.0" r="3" fill="#4e79a7"/><circle cx="721.9" cy="232.0" r="3" fill="#4e79a7"/><circle cx="733.0" cy="219.2" r="3" fill="#4e79a7"/><circle cx="744.2" cy="232.0" r="3" fill="#4e79a7"/><circle cx="755.3" cy="232.0" r="3" fill="#4e79a7"/><circle cx="766.5" cy="232.0" r="3" fill="#4e79a7"/><circle cx="777.7" cy="219.2" r="3" fill="#4e79a7"/><circle cx="788.8" cy="232.0" r="3" fill="#4e79a7"/><circle cx="800.0" cy="232.0" r="3" fill="#4e79a7"/>
  <circle cx="52.0" cy="232.0" r="3" fill="#f28e2b"/><circle cx="63.2" cy="206.5" r="3" fill="#f28e2b"/><circle cx="74.3" cy="206.5" r="3" fill="#f28e2b"/><circle cx="85.5" cy="232.0" r="3" fill="#f28e2b"/><circle cx="96.7" cy="232.0" r="3" fill="#f28e2b"/><circle cx="107.8" cy="232.0" r="3" fill="#f28e2b"/><circle cx="119.0" cy="232.0" r="3" fill="#f28e2b"/><circle cx="130.1" cy="232.0" r="3" fill="#f28e2b"/><circle cx="141.3" cy="219.2" r="3" fill="#f28e2b"/><circle cx="152.5" cy="232.0" r="3" fill="#f28e2b"/><circle cx="163.6" cy="232.0" r="3" fill="#f28e2b"/><circle cx="174.8" cy="232.0" r="3" fill="#f28e2b"/><circle cx="186.0" cy="219.2" r="3" fill="#f28e2b"/><circle cx="197.1" cy="232.0" r="3" fill="#f28e2b"/><circle cx="208.3" cy="219.2" r="3" fill="#f28e2b"/><circle cx="219.5" cy="232.0" r="3" fill="#f28e2b"/><circle cx="230.6" cy="232.0" r="3" fill="#f28e2b"/><circle cx="241.8" cy="232.0" r="3" fill="#f28e2b"/><circle cx="253.0" cy="232.0" r="3" fill="#f28e2b"/><circle cx="264.1" cy="219.2" r="3" fill="#f28e2b"/><circle cx="275.3" cy="206.5" r="3" fill="#f28e2b"/><circle cx="286.4" cy="232.0" r="3" fill="#f28e2b"/><circle cx="297.6" cy="232.0" r="3" fill="#f28e2b"/><circle cx="308.8" cy="232.0" r="3" fill="#f28e2b"/><circle cx="319.9" cy="219.2" r="3" fill="#f28e2b"/><circle cx="331.1" cy="219.2" r="3" fill="#f28e2b"/><circle cx="342.3" cy="219.2" r="3" fill="#f28e2b"/><circle cx="353.4" cy="232.0" r="3" fill="#f28e2b"/><circle cx="364.6" cy="232.0" r="3" fill="#f28e2b"/><circle cx="375.8" cy="206.5" r="3" fill="#f28e2b"/><circle cx="386.9" cy="219.2" r="3" fill="#f28e2b"/><circle cx="398.1" cy="219.2" r="3" fill="#f28e2b"/><circle cx="409.3" cy="232.0" r="3" fill="#f28e2b"/><circle cx="420.4" cy="219.2" r="3" fill="#f28e2b"/><circle cx="431.6" cy="232.0" r="3" fill="#f28e2b"/><circle cx="442.7" cy="232.0" r="3" fill="#f28e2b"/><circle cx="453.9" cy="232.0" r="3" fill="#f28e2b"/><circle cx="465.1" cy="232.0" r="3" fill="#f28e2b"/><circle cx="476.2" cy="79.0" r="3" fill="#f28e2b"/><circle cx="487.4" cy="168.2" r="3" fill="#f28e2b"/><circle cx="498.6" cy="181.0" r="3" fill="#f28e2b"/><circle cx="509.7" cy="219.2" r="3" fill="#f28e2b"/><circle cx="520.9" cy="219.2" r="3" fill="#f28e2b"/><circle cx="532.1" cy="206.5" r="3" fill="#f28e2b"/><circle cx="543.2" cy="142.8" r="3" fill="#f28e2b"/><circle cx="554.4" cy="219.2" r="3" fill="#f28e2b"/><circle cx="565.6" cy="219.2" r="3" fill="#f28e2b"/><circle cx="576.7" cy="219.2" r="3" fill="#f28e2b"/><circle cx="587.9" cy="219.2" r="3" fill="#f28e2b"/><circle cx="599.0" cy="232.0" r="3" fill="#f28e2b"/><circle cx="610.2" cy="219.2" r="3" fill="#f28e2b"/><circle cx="621.4" cy="232.0" r="3" fill="#f28e2b"/><circle cx="632.5" cy="219.2" r="3" fill="#f28e2b"/><circle cx="643.7" cy="219.2" r="3" fill="#f28e2b"/><circle cx="654.9" cy="219.2" r="3" fill="#f28e2b"/><circle cx="666.0" cy="232.0" r="3" fill="#f28e2b"/><circle cx="677.2" cy="219.2" r="3" fill="#f28e2b"/><circle cx="688.4" cy="219.2" r="3" fill="#f28e2b"/><circle cx="699.5" cy="219.2" r="3" fill="#f28e2b"/><circle cx="710.7" cy="232.0" r="3" fill="#f28e2b"/><circle cx="721.9" cy="232.0" r="3" fill="#f28e2b"/><circle cx="733.0" cy="219.2" r="3" fill="#f28e2b"/><circle cx="744.2" cy="232.0" r="3" fill="#f28e2b"/><circle cx="755.3" cy="232.0" r="3" fill="#f28e2b"/><circle cx="766.5" cy="232.0" r="3" fill="#f28e2b"/><circle cx="777.7" cy="219.2" r="3" fill="#f28e2b"/><circle cx="788.8" cy="232.0" r="3" fill="#f28e2b"/><circle cx="800.0" cy="232.0" r="3" fill="#f28e2b"/>

  <!-- axes -->
  <line x1="52" y1="28" x2="52" y2="232"
        stroke="#cccccc" stroke-width="1"/>
  <line x1="52" y1="232" x2="800" y2="232"
        stroke="#cccccc" stroke-width="1"/>

  <!-- y-axis labels -->
  <text x="47" y="236.0" text-anchor="end" font-size="10" fill="#57606a" font-family="ui-monospace, SFMono-Regular, 'SF Mono', Menlo, monospace">0</text><text x="47" y="197.8" text-anchor="end" font-size="10" fill="#57606a" font-family="ui-monospace, SFMono-Regular, 'SF Mono', Menlo, monospace">3</text><text x="47" y="159.5" text-anchor="end" font-size="10" fill="#57606a" font-family="ui-monospace, SFMono-Regular, 'SF Mono', Menlo, monospace">6</text><text x="47" y="121.2" text-anchor="end" font-size="10" fill="#57606a" font-family="ui-monospace, SFMono-Regular, 'SF Mono', Menlo, monospace">9</text><text x="47" y="83.0" text-anchor="end" font-size="10" fill="#57606a" font-family="ui-monospace, SFMono-Regular, 'SF Mono', Menlo, monospace">12</text><text x="47" y="44.8" text-anchor="end" font-size="10" fill="#57606a" font-family="ui-monospace, SFMono-Regular, 'SF Mono', Menlo, monospace">15</text><text x="47" y="6.5" text-anchor="end" font-size="10" fill="#57606a" font-family="ui-monospace, SFMono-Regular, 'SF Mono', Menlo, monospace">18</text>

  <!-- x-axis labels -->
  <text x="52.0" y="248" text-anchor="middle" font-size="10" fill="#8c959f" font-family="ui-monospace, SFMono-Regular, 'SF Mono', Menlo, monospace">05-11</text><text x="409.3" y="248" text-anchor="middle" font-size="10" fill="#8c959f" font-family="ui-monospace, SFMono-Regular, 'SF Mono', Menlo, monospace">06-12</text><text x="766.5" y="248" text-anchor="middle" font-size="10" fill="#8c959f" font-family="ui-monospace, SFMono-Regular, 'SF Mono', Menlo, monospace">07-14</text><text x="800.0" y="248" text-anchor="middle" font-size="10" fill="#8c959f" font-family="ui-monospace, SFMono-Regular, 'SF Mono', Menlo, monospace">07-17</text><text x="141.3" y="248" text-anchor="middle" font-size="10" fill="#8c959f" font-family="ui-monospace, SFMono-Regular, 'SF Mono', Menlo, monospace">05-19</text><text x="498.6" y="248" text-anchor="middle" font-size="10" fill="#8c959f" font-family="ui-monospace, SFMono-Regular, 'SF Mono', Menlo, monospace">06-20</text><text x="230.6" y="248" text-anchor="middle" font-size="10" fill="#8c959f" font-family="ui-monospace, SFMono-Regular, 'SF Mono', Menlo, monospace">05-27</text><text x="587.9" y="248" text-anchor="middle" font-size="10" fill="#8c959f" font-family="ui-monospace, SFMono-Regular, 'SF Mono', Menlo, monospace">06-28</text><text x="319.9" y="248" text-anchor="middle" font-size="10" fill="#8c959f" font-family="ui-monospace, SFMono-Regular, 'SF Mono', Menlo, monospace">06-04</text><text x="677.2" y="248" text-anchor="middle" font-size="10" fill="#8c959f" font-family="ui-monospace, SFMono-Regular, 'SF Mono', Menlo, monospace">07-06</text>

  <!-- legend -->
  <rect x="60" y="262" width="16" height="3" fill="#4e79a7" rx="1"/><text x="80" y="268" font-size="11" fill="#57606a" font-family="-apple-system, BlinkMacSystemFont, 'Segoe UI', sans-serif">Total clones (77)</text><line x1="230" y1="264" x2="246" y2="264" stroke="#f28e2b" stroke-width="2" stroke-dasharray="5,3"/><text x="250" y="268" font-size="11" fill="#57606a" font-family="-apple-system, BlinkMacSystemFont, 'Segoe UI', sans-serif">Unique cloners</text>

</svg>