<svg xmlns="http://www.w3.org/2000/svg" viewBox="0 0 820 280" width="820" height="280">

  <!-- title -->
  <text x="52" y="18" font-size="13" font-weight="600"
        fill="#24292f" font-family="-apple-system, BlinkMacSystemFont, 'Segoe UI', sans-serif"
        >Clone traffic — x240-kbd</text>
  <text x="800" y="18" font-size="10" fill="#8c959f"
        font-family="ui-monospace, SFMono-Regular, 'SF Mono', Menlo, monospace" text-anchor="end">2026-07-21</text>

  <!-- grid -->
  <line x1="52" y1="232.0" x2="800" y2="232.0" stroke="#e8e8e8" stroke-width="1"/><line x1="52" y1="193.8" x2="800" y2="193.8" stroke="#e8e8e8" stroke-width="1"/><line x1="52" y1="155.5" x2="800" y2="155.5" stroke="#e8e8e8" stroke-width="1"/><line x1="52" y1="117.2" x2="800" y2="117.2" stroke="#e8e8e8" stroke-width="1"/><line x1="52" y1="79.0" x2="800" y2="79.0" stroke="#e8e8e8" stroke-width="1"/><line x1="52" y1="40.8" x2="800" y2="40.8" stroke="#e8e8e8" stroke-width="1"/><line x1="52" y1="2.5" x2="800" y2="2.5" stroke="#e8e8e8" stroke-width="1"/>

  <!-- area fill -->
  <path d="M52.0,232.0 L52.0,232.0 L62.8,206.5 L73.7,206.5 L84.5,232.0 L95.4,232.0 L106.2,232.0 L117.0,232.0 L127.9,232.0 L138.7,219.2 L149.6,232.0 L160.4,232.0 L171.2,232.0 L182.1,219.2 L192.9,232.0 L203.8,219.2 L214.6,232.0 L225.4,232.0 L236.3,232.0 L247.1,232.0 L258.0,219.2 L268.8,206.5 L279.7,232.0 L290.5,232.0 L301.3,232.0 L312.2,219.2 L323.0,219.2 L333.9,219.2 L344.7,232.0 L355.5,232.0 L366.4,206.5 L377.2,219.2 L388.1,219.2 L398.9,232.0 L409.7,219.2 L420.6,232.0 L431.4,232.0 L442.3,232.0 L453.1,232.0 L463.9,28.0 L474.8,168.2 L485.6,181.0 L496.5,219.2 L507.3,219.2 L518.1,206.5 L529.0,53.5 L539.8,219.2 L550.7,219.2 L561.5,219.2 L572.3,219.2 L583.2,232.0 L594.0,219.2 L604.9,232.0 L615.7,219.2 L626.6,219.2 L637.4,219.2 L648.2,232.0 L659.1,219.2 L669.9,181.0 L680.8,219.2 L691.6,232.0 L702.4,232.0 L713.3,219.2 L724.1,232.0 L735.0,232.0 L745.8,232.0 L756.6,219.2 L767.5,232.0 L778.3,232.0 L789.2,219.2 L800.0,232.0 L800.0,232.0 L52.0,232.0Z" fill="#4e79a7" opacity="0.12"/>

  <!-- lines -->
  <polyline points="52.0,232.0 62.8,206.5 73.7,206.5 84.5,232.0 95.4,232.0 106.2,232.0 117.0,232.0 127.9,232.0 138.7,219.2 149.6,232.0 160.4,232.0 171.2,232.0 182.1,219.2 192.9,232.0 203.8,219.2 214.6,232.0 225.4,232.0 236.3,232.0 247.1,232.0 258.0,219.2 268.8,206.5 279.7,232.0 290.5,232.0 301.3,232.0 312.2,219.2 323.0,219.2 333.9,219.2 344.7,232.0 355.5,232.0 366.4,206.5 377.2,219.2 388.1,219.2 398.9,232.0 409.7,219.2 420.6,232.0 431.4,232.0 442.3,232.0 453.1,232.0 463.9,28.0 474.8,168.2 485.6,181.0 496.5,219.2 507.3,219.2 518.1,206.5 529.0,53.5 539.8,219.2 550.7,219.2 561.5,219.2 572.3,219.2 583.2,232.0 594.0,219.2 604.9,232.0 615.7,219.2 626.6,219.2 637.4,219.2 648.2,232.0 659.1,219.2 669.9,181.0 680.8,219.2 691.6,232.0 702.4,232.0 713.3,219.2 724.1,232.0 735.0,232.0 745.8,232.0 756.6,219.2 767.5,232.0 778.3,232.0 789.2,219.2 800.0,232.0"
            fill="none" stroke="#4e79a7"
            stroke-width="2" stroke-linejoin="round"/>
  <polyline points="52.0,232.0 62.8,206.5 73.7,206.5 84.5,232.0 95.4,232.0 106.2,232.0 117.0,232.0 127.9,232.0 138.7,219.2 149.6,232.0 160.4,232.0 171.2,232.0 182.1,219.2 192.9,232.0 203.8,219.2 214.6,232.0 225.4,232.0 236.3,232.0 247.1,232.0 258.0,219.2 268.8,206.5 279.7,232.0 290.5,232.0 301.3,232.0 312.2,219.2 323.0,219.2 333.9,219.2 344.7,232.0 355.5,232.0 366.4,206.5 377.2,219.2 388.1,219.2 398.9,232.0 409.7,219.2 420.6,232.0 431.4,232.0 442.3,232.0 453.1,232.0 463.9,79.0 474.8,168.2 485.6,181.0 496.5,219.2 507.3,219.2 518.1,206.5 529.0,142.8 539.8,219.2 550.7,219.2 561.5,219.2 572.3,219.2 583.2,232.0 594.0,219.2 604.9,232.0 615.7,219.2 626.6,219.2 637.4,219.2 648.2,232.0 659.1,219.2 669.9,219.2 680.8,219.2 691.6,232.0 702.4,232.0 713.3,219.2 724.1,232.0 735.0,232.0 745.8,232.0 756.6,219.2 767.5,232.0 778.3,232.0 789.2,219.2 800.0,232.0"
            fill="none" stroke="#f28e2b"
            stroke-width="2" stroke-linejoin="round"
            stroke-dasharray="5,3"/>

  <!-- dots -->
  <circle cx="52.0" cy="232.0" r="3" fill="#4e79a7"/><circle cx="62.8" cy="206.5" r="3" fill="#4e79a7"/><circle cx="73.7" cy="206.5" r="3" fill="#4e79a7"/><circle cx="84.5" cy="232.0" r="3" fill="#4e79a7"/><circle cx="95.4" cy="232.0" r="3" fill="#4e79a7"/><circle cx="106.2" cy="232.0" r="3" fill="#4e79a7"/><circle cx="117.0" cy="232.0" r="3" fill="#4e79a7"/><circle cx="127.9" cy="232.0" r="3" fill="#4e79a7"/><circle cx="138.7" cy="219.2" r="3" fill="#4e79a7"/><circle cx="149.6" cy="232.0" r="3" fill="#4e79a7"/><circle cx="160.4" cy="232.0" r="3" fill="#4e79a7"/><circle cx="171.2" cy="232.0" r="3" fill="#4e79a7"/><circle cx="182.1" cy="219.2" r="3" fill="#4e79a7"/><circle cx="192.9" cy="232.0" r="3" fill="#4e79a7"/><circle cx="203.8" cy="219.2" r="3" fill="#4e79a7"/><circle cx="214.6" cy="232.0" r="3" fill="#4e79a7"/><circle cx="225.4" cy="232.0" r="3" fill="#4e79a7"/><circle cx="236.3" cy="232.0" r="3" fill="#4e79a7"/><circle cx="247.1" cy="232.0" r="3" fill="#4e79a7"/><circle cx="258.0" cy="219.2" r="3" fill="#4e79a7"/><circle cx="268.8" cy="206.5" r="3" fill="#4e79a7"/><circle cx="279.7" cy="232.0" r="3" fill="#4e79a7"/><circle cx="290.5" cy="232.0" r="3" fill="#4e79a7"/><circle cx="301.3" cy="232.0" r="3" fill="#4e79a7"/><circle cx="312.2" cy="219.2" r="3" fill="#4e79a7"/><circle cx="323.0" cy="219.2" r="3" fill="#4e79a7"/><circle cx="333.9" cy="219.2" r="3" fill="#4e79a7"/><circle cx="344.7" cy="232.0" r="3" fill="#4e79a7"/><circle cx="355.5" cy="232.0" r="3" fill="#4e79a7"/><circle cx="366.4" cy="206.5" r="3" fill="#4e79a7"/><circle cx="377.2" cy="219.2" r="3" fill="#4e79a7"/><circle cx="388.1" cy="219.2" r="3" fill="#4e79a7"/><circle cx="398.9" cy="232.0" r="3" fill="#4e79a7"/><circle cx="409.7" cy="219.2" r="3" fill="#4e79a7"/><circle cx="420.6" cy="232.0" r="3" fill="#4e79a7"/><circle cx="431.4" cy="232.0" r="3" fill="#4e79a7"/><circle cx="442.3" cy="232.0" r="3" fill="#4e79a7"/><circle cx="453.1" cy="232.0" r="3" fill="#4e79a7"/><circle cx="463.9" cy="28.0" r="3" fill="#4e79a7"/><circle cx="474.8" cy="168.2" r="3" fill="#4e79a7"/><circle cx="485.6" cy="181.0" r="3" fill="#4e79a7"/><circle cx="496.5" cy="219.2" r="3" fill="#4e79a7"/><circle cx="507.3" cy="219.2" r="3" fill="#4e79a7"/><circle cx="518.1" cy="206.5" r="3" fill="#4e79a7"/><circle cx="529.0" cy="53.5" r="3" fill="#4e79a7"/><circle cx="539.8" cy="219.2" r="3" fill="#4e79a7"/><circle cx="550.7" cy="219.2" r="3" fill="#4e79a7"/><circle cx="561.5" cy="219.2" r="3" fill="#4e79a7"/><circle cx="572.3" cy="219.2" r="3" fill="#4e79a7"/><circle cx="583.2" cy="232.0" r="3" fill="#4e79a7"/><circle cx="594.0" cy="219.2" r="3" fill="#4e79a7"/><circle cx="604.9" cy="232.0" r="3" fill="#4e79a7"/><circle cx="615.7" cy="219.2" r="3" fill="#4e79a7"/><circle cx="626.6" cy="219.2" r="3" fill="#4e79a7"/><circle cx="637.4" cy="219.2" r="3" fill="#4e79a7"/><circle cx="648.2" cy="232.0" r="3" fill="#4e79a7"/><circle cx="659.1" cy="219.2" r="3" fill="#4e79a7"/><circle cx="669.9" cy="181.0" r="3" fill="#4e79a7"/><circle cx="680.8" cy="219.2" r="3" fill="#4e79a7"/><circle cx="691.6" cy="232.0" r="3" fill="#4e79a7"/><circle cx="702.4" cy="232.0" r="3" fill="#4e79a7"/><circle cx="713.3" cy="219.2" r="3" fill="#4e79a7"/><circle cx="724.1" cy="232.0" r="3" fill="#4e79a7"/><circle cx="735.0" cy="232.0" r="3" fill="#4e79a7"/><circle cx="745.8" cy="232.0" r="3" fill="#4e79a7"/><circle cx="756.6" cy="219.2" r="3" fill="#4e79a7"/><circle cx="767.5" cy="232.0" r="3" fill="#4e79a7"/><circle cx="778.3" cy="232.0" r="3" fill="#4e79a7"/><circle cx="789.2" cy="219.2" r="3" fill="#4e79a7"/><circle cx="800.0" cy="232.0" r="3" fill="#4e79a7"/>
  <circle cx="52.0" cy="232.0" r="3" fill="#f28e2b"/><circle cx="62.8" cy="206.5" r="3" fill="#f28e2b"/><circle cx="73.7" cy="206.5" r="3" fill="#f28e2b"/><circle cx="84.5" cy="232.0" r="3" fill="#f28e2b"/><circle cx="95.4" cy="232.0" r="3" fill="#f28e2b"/><circle cx="106.2" cy="232.0" r="3" fill="#f28e2b"/><circle cx="117.0" cy="232.0" r="3" fill="#f28e2b"/><circle cx="127.9" cy="232.0" r="3" fill="#f28e2b"/><circle cx="138.7" cy="219.2" r="3" fill="#f28e2b"/><circle cx="149.6" cy="232.0" r="3" fill="#f28e2b"/><circle cx="160.4" cy="232.0" r="3" fill="#f28e2b"/><circle cx="171.2" cy="232.0" r="3" fill="#f28e2b"/><circle cx="182.1" cy="219.2" r="3" fill="#f28e2b"/><circle cx="192.9" cy="232.0" r="3" fill="#f28e2b"/><circle cx="203.8" cy="219.2" r="3" fill="#f28e2b"/><circle cx="214.6" cy="232.0" r="3" fill="#f28e2b"/><circle cx="225.4" cy="232.0" r="3" fill="#f28e2b"/><circle cx="236.3" cy="232.0" r="3" fill="#f28e2b"/><circle cx="247.1" cy="232.0" r="3" fill="#f28e2b"/><circle cx="258.0" cy="219.2" r="3" fill="#f28e2b"/><circle cx="268.8" cy="206.5" r="3" fill="#f28e2b"/><circle cx="279.7" cy="232.0" r="3" fill="#f28e2b"/><circle cx="290.5" cy="232.0" r="3" fill="#f28e2b"/><circle cx="301.3" cy="232.0" r="3" fill="#f28e2b"/><circle cx="312.2" cy="219.2" r="3" fill="#f28e2b"/><circle cx="323.0" cy="219.2" r="3" fill="#f28e2b"/><circle cx="333.9" cy="219.2" r="3" fill="#f28e2b"/><circle cx="344.7" cy="232.0" r="3" fill="#f28e2b"/><circle cx="355.5" cy="232.0" r="3" fill="#f28e2b"/><circle cx="366.4" cy="206.5" r="3" fill="#f28e2b"/><circle cx="377.2" cy="219.2" r="3" fill="#f28e2b"/><circle cx="388.1" cy="219.2" r="3" fill="#f28e2b"/><circle cx="398.9" cy="232.0" r="3" fill="#f28e2b"/><circle cx="409.7" cy="219.2" r="3" fill="#f28e2b"/><circle cx="420.6" cy="232.0" r="3" fill="#f28e2b"/><circle cx="431.4" cy="232.0" r="3" fill="#f28e2b"/><circle cx="442.3" cy="232.0" r="3" fill="#f28e2b"/><circle cx="453.1" cy="232.0" r="3" fill="#f28e2b"/><circle cx="463.9" cy="79.0" r="3" fill="#f28e2b"/><circle cx="474.8" cy="168.2" r="3" fill="#f28e2b"/><circle cx="485.6" cy="181.0" r="3" fill="#f28e2b"/><circle cx="496.5" cy="219.2" r="3" fill="#f28e2b"/><circle cx="507.3" cy="219.2" r="3" fill="#f28e2b"/><circle cx="518.1" cy="206.5" r="3" fill="#f28e2b"/><circle cx="529.0" cy="142.8" r="3" fill="#f28e2b"/><circle cx="539.8" cy="219.2" r="3" fill="#f28e2b"/><circle cx="550.7" cy="219.2" r="3" fill="#f28e2b"/><circle cx="561.5" cy="219.2" r="3" fill="#f28e2b"/><circle cx="572.3" cy="219.2" r="3" fill="#f28e2b"/><circle cx="583.2" cy="232.0" r="3" fill="#f28e2b"/><circle cx="594.0" cy="219.2" r="3" fill="#f28e2b"/><circle cx="604.9" cy="232.0" r="3" fill="#f28e2b"/><circle cx="615.7" cy="219.2" r="3" fill="#f28e2b"/><circle cx="626.6" cy="219.2" r="3" fill="#f28e2b"/><circle cx="637.4" cy="219.2" r="3" fill="#f28e2b"/><circle cx="648.2" cy="232.0" r="3" fill="#f28e2b"/><circle cx="659.1" cy="219.2" r="3" fill="#f28e2b"/><circle cx="669.9" cy="219.2" r="3" fill="#f28e2b"/><circle cx="680.8" cy="219.2" r="3" fill="#f28e2b"/><circle cx="691.6" cy="232.0" r="3" fill="#f28e2b"/><circle cx="702.4" cy="232.0" r="3" fill="#f28e2b"/><circle cx="713.3" cy="219.2" r="3" fill="#f28e2b"/><circle cx="724.1" cy="232.0" r="3" fill="#f28e2b"/><circle cx="735.0" cy="232.0" r="3" fill="#f28e2b"/><circle cx="745.8" cy="232.0" r="3" fill="#f28e2b"/><circle cx="756.6" cy="219.2" r="3" fill="#f28e2b"/><circle cx="767.5" cy="232.0" r="3" fill="#f28e2b"/><circle cx="778.3" cy="232.0" r="3" fill="#f28e2b"/><circle cx="789.2" cy="219.2" r="3" fill="#f28e2b"/><circle cx="800.0" cy="232.0" r="3" fill="#f28e2b"/>

  <!-- axes -->
  <line x1="52" y1="28" x2="52" y2="232"
        stroke="#cccccc" stroke-width="1"/>
  <line x1="52" y1="232" x2="800" y2="232"
        stroke="#cccccc" stroke-width="1"/>

  <!-- y-axis labels -->
  <text x="47" y="236.0" text-anchor="end" font-size="10" fill="#57606a" font-family="ui-monospace, SFMono-Regular, 'SF Mono', Menlo, monospace">0</text><text x="47" y="197.8" text-anchor="end" font-size="10" fill="#57606a" font-family="ui-monospace, SFMono-Regular, 'SF Mono', Menlo, monospace">3</text><text x="47" y="159.5" text-anchor="end" font-size="10" fill="#57606a" font-family="ui-monospace, SFMono-Regular, 'SF Mono', Menlo, monospace">6</text><text x="47" y="121.2" text-anchor="end" font-size="10" fill="#57606a" font-family="ui-monospace, SFMono-Regular, 'SF Mono', Menlo, monospace">9</text><text x="47" y="83.0" text-anchor="end" font-size="10" fill="#57606a" font-family="ui-monospace, SFMono-Regular, 'SF Mono', Menlo, monospace">12</text><text x="47" y="44.8" text-anchor="end" font-size="10" fill="#57606a" font-family="ui-monospace, SFMono-Regular, 'SF Mono', Menlo, monospace">15</text><text x="47" y="6.5" text-anchor="end" font-size="10" fill="#57606a" font-family="ui-monospace, SFMono-Regular, 'SF Mono', Menlo, monospace">18</text>

  <!-- x-axis labels -->
  <text x="52.0" y="248" text-anchor="middle" font-size="10" fill="#8c959f" font-family="ui-monospace, SFMono-Regular, 'SF Mono', Menlo, monospace">05-11</text><text x="398.9" y="248" text-anchor="middle" font-size="10" fill="#8c959f" font-family="ui-monospace, SFMono-Regular, 'SF Mono', Menlo, monospace">06-12</text><text x="745.8" y="248" text-anchor="middle" font-size="10" fill="#8c959f" font-family="ui-monospace, SFMono-Regular, 'SF Mono', Menlo, monospace">07-14</text><text x="800.0" y="248" text-anchor="middle" font-size="10" fill="#8c959f" font-family="ui-monospace, SFMono-Regular, 'SF Mono', Menlo, monospace">07-19</text><text x="138.7" y="248" text-anchor="middle" font-size="10" fill="#8c959f" font-family="ui-monospace, SFMono-Regular, 'SF Mono', Menlo, monospace">05-19</text><text x="485.6" y="248" text-anchor="middle" font-size="10" fill="#8c959f" font-family="ui-monospace, SFMono-Regular, 'SF Mono', Menlo, monospace">06-20</text><text x="225.4" y="248" text-anchor="middle" font-size="10" fill="#8c959f" font-family="ui-monospace, SFMono-Regular, 'SF Mono', Menlo, monospace">05-27</text><text x="572.3" y="248" text-anchor="middle" font-size="10" fill="#8c959f" font-family="ui-monospace, SFMono-Regular, 'SF Mono', Menlo, monospace">06-28</text><text x="312.2" y="248" text-anchor="middle" font-size="10" fill="#8c959f" font-family="ui-monospace, SFMono-Regular, 'SF Mono', Menlo, monospace">06-04</text><text x="659.1" y="248" text-anchor="middle" font-size="10" fill="#8c959f" font-family="ui-monospace, SFMono-Regular, 'SF Mono', Menlo, monospace">07-06</text>

  <!-- legend -->
  <rect x="60" y="262" width="16" height="3" fill="#4e79a7" rx="1"/><text x="80" y="268" font-size="11" fill="#57606a" font-family="-apple-system, BlinkMacSystemFont, 'Segoe UI', sans-serif">Total clones (78)</text><line x1="230" y1="264" x2="246" y2="264" stroke="#f28e2b" stroke-width="2" stroke-dasharray="5,3"/><text x="250" y="268" font-size="11" fill="#57606a" font-family="-apple-system, BlinkMacSystemFont, 'Segoe UI', sans-serif">Unique cloners</text>

</svg>