<svg xmlns="http://www.w3.org/2000/svg" viewBox="0 0 820 280" width="820" height="280">

  <!-- title -->
  <text x="52" y="18" font-size="13" font-weight="600"
        fill="#24292f" font-family="-apple-system, BlinkMacSystemFont, 'Segoe UI', sans-serif"
        >Clone traffic — x240-kbd</text>
  <text x="800" y="18" font-size="10" fill="#8c959f"
        font-family="ui-monospace, SFMono-Regular, 'SF Mono', Menlo, monospace" text-anchor="end">2026-07-12</text>

  <!-- grid -->
  <line x1="52" y1="232.0" x2="800" y2="232.0" stroke="#e8e8e8" stroke-width="1"/><line x1="52" y1="193.8" x2="800" y2="193.8" stroke="#e8e8e8" stroke-width="1"/><line x1="52" y1="155.5" x2="800" y2="155.5" stroke="#e8e8e8" stroke-width="1"/><line x1="52" y1="117.2" x2="800" y2="117.2" stroke="#e8e8e8" stroke-width="1"/><line x1="52" y1="79.0" x2="800" y2="79.0" stroke="#e8e8e8" stroke-width="1"/><line x1="52" y1="40.8" x2="800" y2="40.8" stroke="#e8e8e8" stroke-width="1"/><line x1="52" y1="2.5" x2="800" y2="2.5" stroke="#e8e8e8" stroke-width="1"/>

  <!-- area fill -->
  <path d="M52.0,232.0 L52.0,232.0 L64.5,206.5 L76.9,206.5 L89.4,232.0 L101.9,232.0 L114.3,232.0 L126.8,232.0 L139.3,232.0 L151.7,219.2 L164.2,232.0 L176.7,232.0 L189.1,232.0 L201.6,219.2 L214.1,232.0 L226.5,219.2 L239.0,232.0 L251.5,232.0 L263.9,232.0 L276.4,232.0 L288.9,219.2 L301.3,206.5 L313.8,232.0 L326.3,232.0 L338.7,232.0 L351.2,219.2 L363.7,219.2 L376.1,219.2 L388.6,232.0 L401.1,232.0 L413.5,206.5 L426.0,219.2 L438.5,219.2 L450.9,232.0 L463.4,219.2 L475.9,232.0 L488.3,232.0 L500.8,232.0 L513.3,232.0 L525.7,28.0 L538.2,168.2 L550.7,181.0 L563.1,219.2 L575.6,219.2 L588.1,206.5 L600.5,53.5 L613.0,219.2 L625.5,219.2 L637.9,219.2 L650.4,219.2 L662.9,232.0 L675.3,219.2 L687.8,232.0 L700.3,219.2 L712.7,219.2 L725.2,219.2 L737.7,232.0 L750.1,219.2 L762.6,181.0 L775.1,219.2 L787.5,232.0 L800.0,232.0 L800.0,232.0 L52.0,232.0Z" fill="#4e79a7" opacity="0.12"/>

  <!-- lines -->
  <polyline points="52.0,232.0 64.5,206.5 76.9,206.5 89.4,232.0 101.9,232.0 114.3,232.0 126.8,232.0 139.3,232.0 151.7,219.2 164.2,232.0 176.7,232.0 189.1,232.0 201.6,219.2 214.1,232.0 226.5,219.2 239.0,232.0 251.5,232.0 263.9,232.0 276.4,232.0 288.9,219.2 301.3,206.5 313.8,232.0 326.3,232.0 338.7,232.0 351.2,219.2 363.7,219.2 376.1,219.2 388.6,232.0 401.1,232.0 413.5,206.5 426.0,219.2 438.5,219.2 450.9,232.0 463.4,219.2 475.9,232.0 488.3,232.0 500.8,232.0 513.3,232.0 525.7,28.0 538.2,168.2 550.7,181.0 563.1,219.2 575.6,219.2 588.1,206.5 600.5,53.5 613.0,219.2 625.5,219.2 637.9,219.2 650.4,219.2 662.9,232.0 675.3,219.2 687.8,232.0 700.3,219.2 712.7,219.2 725.2,219.2 737.7,232.0 750.1,219.2 762.6,181.0 775.1,219.2 787.5,232.0 800.0,232.0"
            fill="none" stroke="#4e79a7"
            stroke-width="2" stroke-linejoin="round"/>
  <polyline points="52.0,232.0 64.5,206.5 76.9,206.5 89.4,232.0 101.9,232.0 114.3,232.0 126.8,232.0 139.3,232.0 151.7,219.2 164.2,232.0 176.7,232.0 189.1,232.0 201.6,219.2 214.1,232.0 226.5,219.2 239.0,232.0 251.5,232.0 263.9,232.0 276.4,232.0 288.9,219.2 301.3,206.5 313.8,232.0 326.3,232.0 338.7,232.0 351.2,219.2 363.7,219.2 376.1,219.2 388.6,232.0 401.1,232.0 413.5,206.5 426.0,219.2 438.5,219.2 450.9,232.0 463.4,219.2 475.9,232.0 488.3,232.0 500.8,232.0 513.3,232.0 525.7,79.0 538.2,168.2 550.7,181.0 563.1,219.2 575.6,219.2 588.1,206.5 600.5,142.8 613.0,219.2 625.5,219.2 637.9,219.2 650.4,219.2 662.9,232.0 675.3,219.2 687.8,232.0 700.3,219.2 712.7,219.2 725.2,219.2 737.7,232.0 750.1,219.2 762.6,219.2 775.1,219.2 787.5,232.0 800.0,232.0"
            fill="none" stroke="#f28e2b"
            stroke-width="2" stroke-linejoin="round"
            stroke-dasharray="5,3"/>

  <!-- dots -->
  <circle cx="52.0" cy="232.0" r="3" fill="#4e79a7"/><circle cx="64.5" cy="206.5" r="3" fill="#4e79a7"/><circle cx="76.9" cy="206.5" r="3" fill="#4e79a7"/><circle cx="89.4" cy="232.0" r="3" fill="#4e79a7"/><circle cx="101.9" cy="232.0" r="3" fill="#4e79a7"/><circle cx="114.3" cy="232.0" r="3" fill="#4e79a7"/><circle cx="126.8" cy="232.0" r="3" fill="#4e79a7"/><circle cx="139.3" cy="232.0" r="3" fill="#4e79a7"/><circle cx="151.7" cy="219.2" r="3" fill="#4e79a7"/><circle cx="164.2" cy="232.0" r="3" fill="#4e79a7"/><circle cx="176.7" cy="232.0" r="3" fill="#4e79a7"/><circle cx="189.1" cy="232.0" r="3" fill="#4e79a7"/><circle cx="201.6" cy="219.2" r="3" fill="#4e79a7"/><circle cx="214.1" cy="232.0" r="3" fill="#4e79a7"/><circle cx="226.5" cy="219.2" r="3" fill="#4e79a7"/><circle cx="239.0" cy="232.0" r="3" fill="#4e79a7"/><circle cx="251.5" cy="232.0" r="3" fill="#4e79a7"/><circle cx="263.9" cy="232.0" r="3" fill="#4e79a7"/><circle cx="276.4" cy="232.0" r="3" fill="#4e79a7"/><circle cx="288.9" cy="219.2" r="3" fill="#4e79a7"/><circle cx="301.3" cy="206.5" r="3" fill="#4e79a7"/><circle cx="313.8" cy="232.0" r="3" fill="#4e79a7"/><circle cx="326.3" cy="232.0" r="3" fill="#4e79a7"/><circle cx="338.7" cy="232.0" r="3" fill="#4e79a7"/><circle cx="351.2" cy="219.2" r="3" fill="#4e79a7"/><circle cx="363.7" cy="219.2" r="3" fill="#4e79a7"/><circle cx="376.1" cy="219.2" r="3" fill="#4e79a7"/><circle cx="388.6" cy="232.0" r="3" fill="#4e79a7"/><circle cx="401.1" cy="232.0" r="3" fill="#4e79a7"/><circle cx="413.5" cy="206.5" r="3" fill="#4e79a7"/><circle cx="426.0" cy="219.2" r="3" fill="#4e79a7"/><circle cx="438.5" cy="219.2" r="3" fill="#4e79a7"/><circle cx="450.9" cy="232.0" r="3" fill="#4e79a7"/><circle cx="463.4" cy="219.2" r="3" fill="#4e79a7"/><circle cx="475.9" cy="232.0" r="3" fill="#4e79a7"/><circle cx="488.3" cy="232.0" r="3" fill="#4e79a7"/><circle cx="500.8" cy="232.0" r="3" fill="#4e79a7"/><circle cx="513.3" cy="232.0" r="3" fill="#4e79a7"/><circle cx="525.7" cy="28.0" r="3" fill="#4e79a7"/><circle cx="538.2" cy="168.2" r="3" fill="#4e79a7"/><circle cx="550.7" cy="181.0" r="3" fill="#4e79a7"/><circle cx="563.1" cy="219.2" r="3" fill="#4e79a7"/><circle cx="575.6" cy="219.2" r="3" fill="#4e79a7"/><circle cx="588.1" cy="206.5" r="3" fill="#4e79a7"/><circle cx="600.5" cy="53.5" r="3" fill="#4e79a7"/><circle cx="613.0" cy="219.2" r="3" fill="#4e79a7"/><circle cx="625.5" cy="219.2" r="3" fill="#4e79a7"/><circle cx="637.9" cy="219.2" r="3" fill="#4e79a7"/><circle cx="650.4" cy="219.2" r="3" fill="#4e79a7"/><circle cx="662.9" cy="232.0" r="3" fill="#4e79a7"/><circle cx="675.3" cy="219.2" r="3" fill="#4e79a7"/><circle cx="687.8" cy="232.0" r="3" fill="#4e79a7"/><circle cx="700.3" cy="219.2" r="3" fill="#4e79a7"/><circle cx="712.7" cy="219.2" r="3" fill="#4e79a7"/><circle cx="725.2" cy="219.2" r="3" fill="#4e79a7"/><circle cx="737.7" cy="232.0" r="3" fill="#4e79a7"/><circle cx="750.1" cy="219.2" r="3" fill="#4e79a7"/><circle cx="762.6" cy="181.0" r="3" fill="#4e79a7"/><circle cx="775.1" cy="219.2" r="3" fill="#4e79a7"/><circle cx="787.5" cy="232.0" r="3" fill="#4e79a7"/><circle cx="800.0" cy="232.0" r="3" fill="#4e79a7"/>
  <circle cx="52.0" cy="232.0" r="3" fill="#f28e2b"/><circle cx="64.5" cy="206.5" r="3" fill="#f28e2b"/><circle cx="76.9" cy="206.5" r="3" fill="#f28e2b"/><circle cx="89.4" cy="232.0" r="3" fill="#f28e2b"/><circle cx="101.9" cy="232.0" r="3" fill="#f28e2b"/><circle cx="114.3" cy="232.0" r="3" fill="#f28e2b"/><circle cx="126.8" cy="232.0" r="3" fill="#f28e2b"/><circle cx="139.3" cy="232.0" r="3" fill="#f28e2b"/><circle cx="151.7" cy="219.2" r="3" fill="#f28e2b"/><circle cx="164.2" cy="232.0" r="3" fill="#f28e2b"/><circle cx="176.7" cy="232.0" r="3" fill="#f28e2b"/><circle cx="189.1" cy="232.0" r="3" fill="#f28e2b"/><circle cx="201.6" cy="219.2" r="3" fill="#f28e2b"/><circle cx="214.1" cy="232.0" r="3" fill="#f28e2b"/><circle cx="226.5" cy="219.2" r="3" fill="#f28e2b"/><circle cx="239.0" cy="232.0" r="3" fill="#f28e2b"/><circle cx="251.5" cy="232.0" r="3" fill="#f28e2b"/><circle cx="263.9" cy="232.0" r="3" fill="#f28e2b"/><circle cx="276.4" cy="232.0" r="3" fill="#f28e2b"/><circle cx="288.9" cy="219.2" r="3" fill="#f28e2b"/><circle cx="301.3" cy="206.5" r="3" fill="#f28e2b"/><circle cx="313.8" cy="232.0" r="3" fill="#f28e2b"/><circle cx="326.3" cy="232.0" r="3" fill="#f28e2b"/><circle cx="338.7" cy="232.0" r="3" fill="#f28e2b"/><circle cx="351.2" cy="219.2" r="3" fill="#f28e2b"/><circle cx="363.7" cy="219.2" r="3" fill="#f28e2b"/><circle cx="376.1" cy="219.2" r="3" fill="#f28e2b"/><circle cx="388.6" cy="232.0" r="3" fill="#f28e2b"/><circle cx="401.1" cy="232.0" r="3" fill="#f28e2b"/><circle cx="413.5" cy="206.5" r="3" fill="#f28e2b"/><circle cx="426.0" cy="219.2" r="3" fill="#f28e2b"/><circle cx="438.5" cy="219.2" r="3" fill="#f28e2b"/><circle cx="450.9" cy="232.0" r="3" fill="#f28e2b"/><circle cx="463.4" cy="219.2" r="3" fill="#f28e2b"/><circle cx="475.9" cy="232.0" r="3" fill="#f28e2b"/><circle cx="488.3" cy="232.0" r="3" fill="#f28e2b"/><circle cx="500.8" cy="232.0" r="3" fill="#f28e2b"/><circle cx="513.3" cy="232.0" r="3" fill="#f28e2b"/><circle cx="525.7" cy="79.0" r="3" fill="#f28e2b"/><circle cx="538.2" cy="168.2" r="3" fill="#f28e2b"/><circle cx="550.7" cy="181.0" r="3" fill="#f28e2b"/><circle cx="563.1" cy="219.2" r="3" fill="#f28e2b"/><circle cx="575.6" cy="219.2" r="3" fill="#f28e2b"/><circle cx="588.1" cy="206.5" r="3" fill="#f28e2b"/><circle cx="600.5" cy="142.8" r="3" fill="#f28e2b"/><circle cx="613.0" cy="219.2" r="3" fill="#f28e2b"/><circle cx="625.5" cy="219.2" r="3" fill="#f28e2b"/><circle cx="637.9" cy="219.2" r="3" fill="#f28e2b"/><circle cx="650.4" cy="219.2" r="3" fill="#f28e2b"/><circle cx="662.9" cy="232.0" r="3" fill="#f28e2b"/><circle cx="675.3" cy="219.2" r="3" fill="#f28e2b"/><circle cx="687.8" cy="232.0" r="3" fill="#f28e2b"/><circle cx="700.3" cy="219.2" r="3" fill="#f28e2b"/><circle cx="712.7" cy="219.2" r="3" fill="#f28e2b"/><circle cx="725.2" cy="219.2" r="3" fill="#f28e2b"/><circle cx="737.7" cy="232.0" r="3" fill="#f28e2b"/><circle cx="750.1" cy="219.2" r="3" fill="#f28e2b"/><circle cx="762.6" cy="219.2" r="3" fill="#f28e2b"/><circle cx="775.1" cy="219.2" r="3" fill="#f28e2b"/><circle cx="787.5" cy="232.0" r="3" fill="#f28e2b"/><circle cx="800.0" cy="232.0" r="3" fill="#f28e2b"/>

  <!-- axes -->
  <line x1="52" y1="28" x2="52" y2="232"
        stroke="#cccccc" stroke-width="1"/>
  <line x1="52" y1="232" x2="800" y2="232"
        stroke="#cccccc" stroke-width="1"/>

  <!-- y-axis labels -->
  <text x="47" y="236.0" text-anchor="end" font-size="10" fill="#57606a" font-family="ui-monospace, SFMono-Regular, 'SF Mono', Menlo, monospace">0</text><text x="47" y="197.8" text-anchor="end" font-size="10" fill="#57606a" font-family="ui-monospace, SFMono-Regular, 'SF Mono', Menlo, monospace">3</text><text x="47" y="159.5" text-anchor="end" font-size="10" fill="#57606a" font-family="ui-monospace, SFMono-Regular, 'SF Mono', Menlo, monospace">6</text><text x="47" y="121.2" text-anchor="end" font-size="10" fill="#57606a" font-family="ui-monospace, SFMono-Regular, 'SF Mono', Menlo, monospace">9</text><text x="47" y="83.0" text-anchor="end" font-size="10" fill="#57606a" font-family="ui-monospace, SFMono-Regular, 'SF Mono', Menlo, monospace">12</text><text x="47" y="44.8" text-anchor="end" font-size="10" fill="#57606a" font-family="ui-monospace, SFMono-Regular, 'SF Mono', Menlo, monospace">15</text><text x="47" y="6.5" text-anchor="end" font-size="10" fill="#57606a" font-family="ui-monospace, SFMono-Regular, 'SF Mono', Menlo, monospace">18</text>

  <!-- x-axis labels -->
  <text x="52.0" y="248" text-anchor="middle" font-size="10" fill="#8c959f" font-family="ui-monospace, SFMono-Regular, 'SF Mono', Menlo, monospace">05-11</text><text x="488.3" y="248" text-anchor="middle" font-size="10" fill="#8c959f" font-family="ui-monospace, SFMono-Regular, 'SF Mono', Menlo, monospace">06-15</text><text x="139.3" y="248" text-anchor="middle" font-size="10" fill="#8c959f" font-family="ui-monospace, SFMono-Regular, 'SF Mono', Menlo, monospace">05-18</text><text x="575.6" y="248" text-anchor="middle" font-size="10" fill="#8c959f" font-family="ui-monospace, SFMono-Regular, 'SF Mono', Menlo, monospace">06-22</text><text x="226.5" y="248" text-anchor="middle" font-size="10" fill="#8c959f" font-family="ui-monospace, SFMono-Regular, 'SF Mono', Menlo, monospace">05-25</text><text x="800.0" y="248" text-anchor="middle" font-size="10" fill="#8c959f" font-family="ui-monospace, SFMono-Regular, 'SF Mono', Menlo, monospace">07-10</text><text x="662.9" y="248" text-anchor="middle" font-size="10" fill="#8c959f" font-family="ui-monospace, SFMono-Regular, 'SF Mono', Menlo, monospace">06-29</text><text x="313.8" y="248" text-anchor="middle" font-size="10" fill="#8c959f" font-family="ui-monospace, SFMono-Regular, 'SF Mono', Menlo, monospace">06-01</text><text x="750.1" y="248" text-anchor="middle" font-size="10" fill="#8c959f" font-family="ui-monospace, SFMono-Regular, 'SF Mono', Menlo, monospace">07-06</text><text x="401.1" y="248" text-anchor="middle" font-size="10" fill="#8c959f" font-family="ui-monospace, SFMono-Regular, 'SF Mono', Menlo, monospace">06-08</text>

  <!-- legend -->
  <rect x="60" y="262" width="16" height="3" fill="#4e79a7" rx="1"/><text x="80" y="268" font-size="11" fill="#57606a" font-family="-apple-system, BlinkMacSystemFont, 'Segoe UI', sans-serif">Total clones (75)</text><line x1="230" y1="264" x2="246" y2="264" stroke="#f28e2b" stroke-width="2" stroke-dasharray="5,3"/><text x="250" y="268" font-size="11" fill="#57606a" font-family="-apple-system, BlinkMacSystemFont, 'Segoe UI', sans-serif">Unique cloners</text>

</svg>